<?xml version="1.0" encoding="utf-8" standalone="no"?>
<!DOCTYPE svg PUBLIC "-//W3C//DTD SVG 1.1//EN"
  "http://www.w3.org/Graphics/SVG/1.1/DTD/svg11.dtd">
<svg xmlns:xlink="http://www.w3.org/1999/xlink" width="614.4pt" height="345.6pt" viewBox="0 0 614.4 345.6" xmlns="http://www.w3.org/2000/svg" version="1.1">
 <metadata>
  <rdf:RDF xmlns:dc="http://purl.org/dc/elements/1.1/" xmlns:cc="http://creativecommons.org/ns#" xmlns:rdf="http://www.w3.org/1999/02/22-rdf-syntax-ns#">
   <cc:Work>
    <dc:type rdf:resource="http://purl.org/dc/dcmitype/StillImage"/>
    <dc:date>2024-04-17T19:40:19.800318</dc:date>
    <dc:format>image/svg+xml</dc:format>
    <dc:creator>
     <cc:Agent>
      <dc:title>Matplotlib v3.7.1, https://matplotlib.org/</dc:title>
     </cc:Agent>
    </dc:creator>
   </cc:Work>
  </rdf:RDF>
 </metadata>
 <defs>
  <style type="text/css">*{stroke-linejoin: round; stroke-linecap: butt}</style>
 </defs>
 <g id="figure_1">
  <g id="patch_1">
   <path d="M 0 345.6 
L 614.4 345.6 
L 614.4 0 
L 0 0 
z
" style="fill: #ffffff"/>
  </g>
  <g id="axes_1">
   <g id="patch_2">
    <path d="M 63.290625 321.621875 
L 603.6 321.621875 
L 603.6 10.8 
L 63.290625 10.8 
z
" style="fill: #ffffff"/>
   </g>
   <path d="M 548.5608 306.473612 
L 547.5608 306.442176 
L 546.5608 306.405235 
L 545.5608 306.307489 
L 544.5608 306.274967 
L 543.5608 306.201343 
L 542.5608 306.162777 
L 541.5608 306.127364 
L 540.5608 306.069724 
L 539.5608 305.999338 
L 538.5608 305.947373 
L 537.5608 305.888284 
L 536.5608 305.799963 
L 535.5608 305.753818 
L 534.5608 305.711407 
L 533.5608 305.680915 
L 532.5608 305.65487 
L 531.5608 305.63367 
L 530.5608 305.579369 
L 529.5608 305.551431 
L 528.5608 305.521707 
L 527.5608 305.496312 
L 526.5608 305.485112 
L 525.5608 305.474988 
L 524.5608 305.475192 
L 523.5608 305.484702 
L 522.5608 305.496356 
L 521.5608 305.527385 
L 520.5608 305.538553 
L 519.5608 305.56867 
L 518.5608 305.628447 
L 517.5608 305.665639 
L 516.5608 305.704735 
L 515.5608 305.747175 
L 514.5608 305.77994 
L 513.5608 305.847366 
L 512.5608 305.886492 
L 511.5608 305.929167 
L 510.5608 305.999747 
L 509.5608 306.036138 
L 508.5608 306.094541 
L 507.5608 306.205494 
L 506.5608 306.276152 
L 505.5608 306.389092 
L 504.5608 306.434865 
L 503.5608 306.496148 
L 502.5608 306.544648 
L 501.5608 306.62547 
L 500.5608 306.743989 
L 499.5608 306.8142 
L 498.5608 306.897462 
L 497.5608 306.930604 
L 496.5608 306.981841 
L 495.5608 307.05024 
L 494.5608 307.116455 
L 493.5608 307.193372 
L 492.5608 307.220688 
L 491.5608 307.247165 
L 490.5608 307.269816 
L 489.5608 307.289347 
L 488.5608 307.315741 
L 487.5608 307.365512 
L 486.5608 307.400585 
L 485.5608 307.436451 
L 484.5608 307.451818 
L 483.5608 307.467587 
L 482.5608 307.471 
L 481.5608 307.473417 
L 480.5608 307.472931 
L 479.5608 307.471002 
L 478.5608 307.457745 
L 477.5608 307.449355 
L 476.5608 307.427818 
L 475.5608 307.404785 
L 474.5608 307.387552 
L 473.5608 307.369089 
L 472.5608 307.348637 
L 471.5608 307.332037 
L 470.5608 307.269258 
L 469.5608 307.193993 
L 468.5608 307.161354 
L 467.5608 307.093791 
L 466.5608 307.039743 
L 465.5608 307.006039 
L 464.5608 306.915913 
L 463.5608 306.887378 
L 462.5608 306.855892 
L 461.5608 306.824881 
L 460.5608 306.770073 
L 459.5608 306.705486 
L 458.184867 306.66729 
" clip-path="url(#p219ceb0bc3)" style="fill: none; stroke-dasharray: 3.7,1.6; stroke-dashoffset: 0; stroke: #2ca02c"/>
   <g id="patch_3">
    <path d="M 233.064735 10.8 
L 233.064735 228.060459 
M 385.100794 10.8 
L 385.100794 228.060459 
" clip-path="url(#p219ceb0bc3)" style="fill: none; stroke: #ffffff; stroke-width: 3; stroke-linejoin: miter"/>
    <path d="M 233.064735 10.8 
L 233.064735 228.060459 
M 385.100794 10.8 
L 385.100794 228.060459 
" clip-path="url(#p219ceb0bc3)" style="fill: none; stroke: #1f77b4; stroke-linejoin: miter"/>
    <g id="PolyCollection_1">
     <path d="M 385.100794 10.8 
L 233.064735 10.8 
L 233.064735 228.060459 
L 385.100794 228.060459 
L 385.100794 228.060459 
L 385.100794 10.8 
z
" clip-path="url(#p219ceb0bc3)" style="fill: #1f77b4; fill-opacity: 0.5"/>
    </g>
    <g id="patch_4">
     <path d="M 98.941237 228.060459 
L 98.854692 318.48767 
L 95.324579 319.670992 
L 91.06841 320.854315 
L 87.850142 321.621875 
M 133.095157 228.060459 
L 133.181702 318.48767 
L 136.711814 319.670992 
L 140.967984 320.854315 
L 144.186251 321.621875 
L 144.186251 321.621875 
" clip-path="url(#p219ceb0bc3)" style="fill: none; stroke: #ffffff; stroke-width: 3; stroke-linejoin: miter"/>
     <path d="M 98.941237 228.060459 
L 98.854692 318.48767 
L 95.324579 319.670992 
L 91.06841 320.854315 
L 87.850142 321.621875 
M 133.095157 228.060459 
L 133.181702 318.48767 
L 136.711814 319.670992 
L 140.967984 320.854315 
L 144.186251 321.621875 
L 144.186251 321.621875 
" clip-path="url(#p219ceb0bc3)" style="fill: none; stroke: #ff7f0e; stroke-linejoin: miter"/>
     <g id="PolyCollection_2">
      <path d="M 133.095157 228.060459 
L 98.941237 228.060459 
L 98.941237 318.455688 
L 98.941237 318.455688 
L 98.854692 318.48767 
L 98.767708 318.519651 
L 98.680284 318.551633 
L 98.592416 318.583615 
L 98.504104 318.615596 
L 98.415344 318.647578 
L 98.326133 318.67956 
L 98.236471 318.711541 
L 98.146355 318.743523 
L 98.055781 318.775505 
L 97.964749 318.807487 
L 97.873255 318.839468 
L 97.781298 318.87145 
L 97.688875 318.903432 
L 97.595983 318.935413 
L 97.50262 318.967395 
L 97.408785 318.999377 
L 97.314473 319.031358 
L 97.219684 319.06334 
L 97.124414 319.095322 
L 97.028662 319.127303 
L 96.932424 319.159285 
L 96.835699 319.191267 
L 96.738483 319.223248 
L 96.640775 319.25523 
L 96.542571 319.287212 
L 96.44387 319.319194 
L 96.344669 319.351175 
L 96.244965 319.383157 
L 96.144755 319.415139 
L 96.044038 319.44712 
L 95.94281 319.479102 
L 95.84107 319.511084 
L 95.738813 319.543065 
L 95.636039 319.575047 
L 95.532743 319.607029 
L 95.428924 319.63901 
L 95.324579 319.670992 
L 95.219706 319.702974 
L 95.1143 319.734955 
L 95.008361 319.766937 
L 94.901884 319.798919 
L 94.794868 319.830901 
L 94.68731 319.862882 
L 94.579206 319.894864 
L 94.470555 319.926846 
L 94.361353 319.958827 
L 94.251597 319.990809 
L 94.141286 320.022791 
L 94.030415 320.054772 
L 93.918982 320.086754 
L 93.806985 320.118736 
L 93.69442 320.150717 
L 93.581285 320.182699 
L 93.467576 320.214681 
L 93.353291 320.246662 
L 93.238427 320.278644 
L 93.12298 320.310626 
L 93.006949 320.342608 
L 92.890329 320.374589 
L 92.773119 320.406571 
L 92.655314 320.438553 
L 92.536913 320.470534 
L 92.417911 320.502516 
L 92.298307 320.534498 
L 92.178096 320.566479 
L 92.057276 320.598461 
L 91.935843 320.630443 
L 91.813796 320.662424 
L 91.691129 320.694406 
L 91.567841 320.726388 
L 91.443929 320.758369 
L 91.319388 320.790351 
L 91.194216 320.822333 
L 91.06841 320.854315 
L 90.941966 320.886296 
L 90.814881 320.918278 
L 90.687152 320.95026 
L 90.558776 320.982241 
L 90.42975 321.014223 
L 90.300069 321.046205 
L 90.169731 321.078186 
L 90.038733 321.110168 
L 89.907071 321.14215 
L 89.774741 321.174131 
L 89.641741 321.206113 
L 89.508067 321.238095 
L 89.373716 321.270076 
L 89.238683 321.302058 
L 89.102966 321.33404 
L 88.966562 321.366022 
L 88.829466 321.398003 
L 88.691675 321.429985 
L 88.553186 321.461967 
L 88.413995 321.493948 
L 88.274099 321.52593 
L 88.133494 321.557912 
L 87.992176 321.589893 
L 87.850142 321.621875 
L 144.186251 321.621875 
L 144.186251 321.621875 
L 144.044217 321.589893 
L 143.902899 321.557912 
L 143.762294 321.52593 
L 143.622398 321.493948 
L 143.483207 321.461967 
L 143.344718 321.429985 
L 143.206927 321.398003 
L 143.069832 321.366022 
L 142.933427 321.33404 
L 142.79771 321.302058 
L 142.662678 321.270076 
L 142.528326 321.238095 
L 142.394652 321.206113 
L 142.261652 321.174131 
L 142.129322 321.14215 
L 141.99766 321.110168 
L 141.866662 321.078186 
L 141.736324 321.046205 
L 141.606644 321.014223 
L 141.477617 320.982241 
L 141.349241 320.95026 
L 141.221512 320.918278 
L 141.094428 320.886296 
L 140.967984 320.854315 
L 140.842177 320.822333 
L 140.717006 320.790351 
L 140.592465 320.758369 
L 140.468552 320.726388 
L 140.345264 320.694406 
L 140.222598 320.662424 
L 140.10055 320.630443 
L 139.979118 320.598461 
L 139.858298 320.566479 
L 139.738087 320.534498 
L 139.618482 320.502516 
L 139.499481 320.470534 
L 139.381079 320.438553 
L 139.263274 320.406571 
L 139.146064 320.374589 
L 139.029445 320.342608 
L 138.913413 320.310626 
L 138.797967 320.278644 
L 138.683102 320.246662 
L 138.568817 320.214681 
L 138.455109 320.182699 
L 138.341973 320.150717 
L 138.229408 320.118736 
L 138.117411 320.086754 
L 138.005978 320.054772 
L 137.895108 320.022791 
L 137.784796 319.990809 
L 137.675041 319.958827 
L 137.565839 319.926846 
L 137.457187 319.894864 
L 137.349084 319.862882 
L 137.241525 319.830901 
L 137.134509 319.798919 
L 137.028033 319.766937 
L 136.922093 319.734955 
L 136.816688 319.702974 
L 136.711814 319.670992 
L 136.607469 319.63901 
L 136.50365 319.607029 
L 136.400354 319.575047 
L 136.29758 319.543065 
L 136.195324 319.511084 
L 136.093583 319.479102 
L 135.992355 319.44712 
L 135.891638 319.415139 
L 135.791428 319.383157 
L 135.691724 319.351175 
L 135.592523 319.319194 
L 135.493822 319.287212 
L 135.395618 319.25523 
L 135.29791 319.223248 
L 135.200694 319.191267 
L 135.103969 319.159285 
L 135.007731 319.127303 
L 134.911979 319.095322 
L 134.816709 319.06334 
L 134.72192 319.031358 
L 134.627609 318.999377 
L 134.533773 318.967395 
L 134.44041 318.935413 
L 134.347519 318.903432 
L 134.255095 318.87145 
L 134.163138 318.839468 
L 134.071644 318.807487 
L 133.980612 318.775505 
L 133.890039 318.743523 
L 133.799922 318.711541 
L 133.71026 318.67956 
L 133.62105 318.647578 
L 133.53229 318.615596 
L 133.443977 318.583615 
L 133.356109 318.551633 
L 133.268685 318.519651 
L 133.181702 318.48767 
L 133.095157 318.455688 
L 133.095157 318.455688 
L 133.095157 228.060459 
z
" clip-path="url(#p219ceb0bc3)" style="fill: #ff7f0e; fill-opacity: 0.5"/>
     </g>
     <g id="patch_5">
      <path d="M 553.963894 72.964375 
L 553.963894 321.621875 
M 579.040483 72.964375 
L 579.040483 321.621875 
" clip-path="url(#p219ceb0bc3)" style="fill: none; stroke: #ffffff; stroke-width: 3; stroke-linejoin: miter"/>
      <path d="M 553.963894 72.964375 
L 553.963894 321.621875 
M 579.040483 72.964375 
L 579.040483 321.621875 
" clip-path="url(#p219ceb0bc3)" style="fill: none; stroke: #2ca02c; stroke-linejoin: miter"/>
      <g id="PolyCollection_3">
       <path d="M 579.040483 72.964375 
L 553.963894 72.964375 
L 553.963894 321.621875 
L 579.040483 321.621875 
L 579.040483 321.621875 
L 579.040483 72.964375 
z
" clip-path="url(#p219ceb0bc3)" style="fill: #2ca02c; fill-opacity: 0.5"/>
      </g>
      <g id="patch_6">
       <path d="M 422.803179 237.288306 
L 422.803179 258.239283 
L 431.751186 258.239283 
L 431.751186 259.345683 
L 422.803179 259.345683 
L 422.73163 317.998314 
L 419.829848 319.366393 
L 416.470755 320.697497 
L 413.775115 321.621875 
M 452.781774 237.288306 
L 452.781774 258.239283 
L 443.833767 258.239283 
L 443.833767 259.345683 
L 452.781774 259.345683 
L 452.853323 317.998314 
L 455.755105 319.366393 
L 459.114198 320.697497 
L 461.809838 321.621875 
L 461.809838 321.621875 
" clip-path="url(#p219ceb0bc3)" style="fill: none; stroke: #ffffff; stroke-width: 3; stroke-linejoin: miter"/>
       <path d="M 422.803179 237.288306 
L 422.803179 258.239283 
L 431.751186 258.239283 
L 431.751186 259.345683 
L 422.803179 259.345683 
L 422.73163 317.998314 
L 419.829848 319.366393 
L 416.470755 320.697497 
L 413.775115 321.621875 
M 452.781774 237.288306 
L 452.781774 258.239283 
L 443.833767 258.239283 
L 443.833767 259.345683 
L 452.781774 259.345683 
L 452.853323 317.998314 
L 455.755105 319.366393 
L 459.114198 320.697497 
L 461.809838 321.621875 
L 461.809838 321.621875 
" clip-path="url(#p219ceb0bc3)" style="fill: none; stroke: #d62728; stroke-linejoin: miter"/>
       <g id="PolyCollection_4">
        <path d="M 452.781774 237.288306 
L 422.803179 237.288306 
L 422.803179 258.239283 
L 431.751186 258.239283 
L 431.751186 259.345683 
L 422.803179 259.345683 
L 422.803179 317.961339 
L 422.803179 317.961339 
L 422.73163 317.998314 
L 422.659739 318.035289 
L 422.587504 318.072264 
L 422.514925 318.109239 
L 422.441999 318.146215 
L 422.368726 318.18319 
L 422.295102 318.220165 
L 422.221127 318.25714 
L 422.146799 318.294115 
L 422.072117 318.33109 
L 421.997077 318.368065 
L 421.92168 318.40504 
L 421.845923 318.442015 
L 421.769804 318.478991 
L 421.693321 318.515966 
L 421.616474 318.552941 
L 421.539259 318.589916 
L 421.461677 318.626891 
L 421.383724 318.663866 
L 421.305398 318.700841 
L 421.226699 318.737816 
L 421.147624 318.774791 
L 421.068172 318.811767 
L 420.988341 318.848742 
L 420.908128 318.885717 
L 420.827533 318.922692 
L 420.746552 318.959667 
L 420.665186 318.996642 
L 420.583431 319.033617 
L 420.501285 319.070592 
L 420.418748 319.107567 
L 420.335816 319.144543 
L 420.252489 319.181518 
L 420.168764 319.218493 
L 420.084639 319.255468 
L 420.000113 319.292443 
L 419.915183 319.329418 
L 419.829848 319.366393 
L 419.744106 319.403368 
L 419.657954 319.440343 
L 419.571391 319.477319 
L 419.484415 319.514294 
L 419.397023 319.551269 
L 419.309215 319.588244 
L 419.220987 319.625219 
L 419.132338 319.662194 
L 419.043266 319.699169 
L 418.953769 319.736144 
L 418.863845 319.773119 
L 418.773491 319.810095 
L 418.682706 319.84707 
L 418.591488 319.884045 
L 418.499834 319.92102 
L 418.407743 319.957995 
L 418.315212 319.99497 
L 418.22224 320.031945 
L 418.128824 320.06892 
L 418.034962 320.105895 
L 417.940651 320.142871 
L 417.845891 320.179846 
L 417.750678 320.216821 
L 417.655011 320.253796 
L 417.558887 320.290771 
L 417.462305 320.327746 
L 417.365261 320.364721 
L 417.267754 320.401696 
L 417.169782 320.438671 
L 417.071342 320.475647 
L 416.972432 320.512622 
L 416.87305 320.549597 
L 416.773194 320.586572 
L 416.67286 320.623547 
L 416.572048 320.660522 
L 416.470755 320.697497 
L 416.368978 320.734472 
L 416.266716 320.771447 
L 416.163965 320.808423 
L 416.060724 320.845398 
L 415.95699 320.882373 
L 415.852761 320.919348 
L 415.748034 320.956323 
L 415.642808 320.993298 
L 415.537079 321.030273 
L 415.430845 321.067248 
L 415.324105 321.104223 
L 415.216855 321.141199 
L 415.109093 321.178174 
L 415.000816 321.215149 
L 414.892023 321.252124 
L 414.78271 321.289099 
L 414.672876 321.326074 
L 414.562517 321.363049 
L 414.451632 321.400024 
L 414.340217 321.436999 
L 414.22827 321.473975 
L 414.115789 321.51095 
L 414.002771 321.547925 
L 413.889214 321.5849 
L 413.775115 321.621875 
L 461.809838 321.621875 
L 461.809838 321.621875 
L 461.695739 321.5849 
L 461.582182 321.547925 
L 461.469164 321.51095 
L 461.356683 321.473975 
L 461.244736 321.436999 
L 461.133321 321.400024 
L 461.022436 321.363049 
L 460.912077 321.326074 
L 460.802243 321.289099 
L 460.69293 321.252124 
L 460.584137 321.215149 
L 460.47586 321.178174 
L 460.368098 321.141199 
L 460.260848 321.104223 
L 460.154108 321.067248 
L 460.047874 321.030273 
L 459.942145 320.993298 
L 459.836919 320.956323 
L 459.732192 320.919348 
L 459.627963 320.882373 
L 459.524229 320.845398 
L 459.420988 320.808423 
L 459.318237 320.771447 
L 459.215974 320.734472 
L 459.114198 320.697497 
L 459.012905 320.660522 
L 458.912093 320.623547 
L 458.811759 320.586572 
L 458.711903 320.549597 
L 458.612521 320.512622 
L 458.513611 320.475647 
L 458.415171 320.438671 
L 458.317199 320.401696 
L 458.219692 320.364721 
L 458.122648 320.327746 
L 458.026066 320.290771 
L 457.929942 320.253796 
L 457.834275 320.216821 
L 457.739062 320.179846 
L 457.644302 320.142871 
L 457.549991 320.105895 
L 457.456129 320.06892 
L 457.362713 320.031945 
L 457.269741 319.99497 
L 457.17721 319.957995 
L 457.085119 319.92102 
L 456.993465 319.884045 
L 456.902247 319.84707 
L 456.811462 319.810095 
L 456.721108 319.773119 
L 456.631184 319.736144 
L 456.541687 319.699169 
L 456.452615 319.662194 
L 456.363966 319.625219 
L 456.275738 319.588244 
L 456.18793 319.551269 
L 456.100538 319.514294 
L 456.013562 319.477319 
L 455.926999 319.440343 
L 455.840847 319.403368 
L 455.755105 319.366393 
L 455.66977 319.329418 
L 455.58484 319.292443 
L 455.500314 319.255468 
L 455.416189 319.218493 
L 455.332464 319.181518 
L 455.249137 319.144543 
L 455.166205 319.107567 
L 455.083668 319.070592 
L 455.001522 319.033617 
L 454.919767 318.996642 
L 454.838401 318.959667 
L 454.75742 318.922692 
L 454.676825 318.885717 
L 454.596612 318.848742 
L 454.516781 318.811767 
L 454.437329 318.774791 
L 454.358254 318.737816 
L 454.279555 318.700841 
L 454.201229 318.663866 
L 454.123276 318.626891 
L 454.045693 318.589916 
L 453.968479 318.552941 
L 453.891632 318.515966 
L 453.815149 318.478991 
L 453.73903 318.442015 
L 453.663273 318.40504 
L 453.587876 318.368065 
L 453.512836 318.33109 
L 453.438154 318.294115 
L 453.363826 318.25714 
L 453.289851 318.220165 
L 453.216227 318.18319 
L 453.142953 318.146215 
L 453.070028 318.109239 
L 452.997449 318.072264 
L 452.925214 318.035289 
L 452.853323 317.998314 
L 452.781774 317.961339 
L 452.781774 317.961339 
L 452.781774 259.345683 
L 443.833767 259.345683 
L 443.833767 258.239283 
L 452.781774 258.239283 
L 452.781774 237.288306 
z
" clip-path="url(#p219ceb0bc3)" style="fill: #d62728; fill-opacity: 0.5"/>
       </g>
       <g id="matplotlib.axis_1">
        <g id="xtick_1">
         <g id="line2d_1"/>
         <g id="text_1">
          <!-- OUT -->
          <g transform="translate(105.368978 332.720312) scale(0.1 -0.1)">
           <defs>
            <path id="DejaVuSans-4f" d="M 2522 4238 
Q 1834 4238 1429 3725 
Q 1025 3213 1025 2328 
Q 1025 1447 1429 934 
Q 1834 422 2522 422 
Q 3209 422 3611 934 
Q 4013 1447 4013 2328 
Q 4013 3213 3611 3725 
Q 3209 4238 2522 4238 
z
M 2522 4750 
Q 3503 4750 4090 4092 
Q 4678 3434 4678 2328 
Q 4678 1225 4090 567 
Q 3503 -91 2522 -91 
Q 1538 -91 948 565 
Q 359 1222 359 2328 
Q 359 3434 948 4092 
Q 1538 4750 2522 4750 
z
" transform="scale(0.015625)"/>
            <path id="DejaVuSans-55" d="M 556 4666 
L 1191 4666 
L 1191 1831 
Q 1191 1081 1462 751 
Q 1734 422 2344 422 
Q 2950 422 3222 751 
Q 3494 1081 3494 1831 
L 3494 4666 
L 4128 4666 
L 4128 1753 
Q 4128 841 3676 375 
Q 3225 -91 2344 -91 
Q 1459 -91 1007 375 
Q 556 841 556 1753 
L 556 4666 
z
" transform="scale(0.015625)"/>
            <path id="DejaVuSans-54" d="M -19 4666 
L 3928 4666 
L 3928 4134 
L 2272 4134 
L 2272 0 
L 1638 0 
L 1638 4134 
L -19 4134 
L -19 4666 
z
" transform="scale(0.015625)"/>
           </defs>
           <use xlink:href="#DejaVuSans-4f"/>
           <use xlink:href="#DejaVuSans-55" x="78.710938"/>
           <use xlink:href="#DejaVuSans-54" x="151.904297"/>
          </g>
         </g>
        </g>
        <g id="xtick_2">
         <g id="line2d_2"/>
         <g id="text_2">
          <!-- SRC -->
          <g transform="translate(556.612345 332.720312) scale(0.1 -0.1)">
           <defs>
            <path id="DejaVuSans-53" d="M 3425 4513 
L 3425 3897 
Q 3066 4069 2747 4153 
Q 2428 4238 2131 4238 
Q 1616 4238 1336 4038 
Q 1056 3838 1056 3469 
Q 1056 3159 1242 3001 
Q 1428 2844 1947 2747 
L 2328 2669 
Q 3034 2534 3370 2195 
Q 3706 1856 3706 1288 
Q 3706 609 3251 259 
Q 2797 -91 1919 -91 
Q 1588 -91 1214 -16 
Q 841 59 441 206 
L 441 856 
Q 825 641 1194 531 
Q 1563 422 1919 422 
Q 2459 422 2753 634 
Q 3047 847 3047 1241 
Q 3047 1584 2836 1778 
Q 2625 1972 2144 2069 
L 1759 2144 
Q 1053 2284 737 2584 
Q 422 2884 422 3419 
Q 422 4038 858 4394 
Q 1294 4750 2059 4750 
Q 2388 4750 2728 4690 
Q 3069 4631 3425 4513 
z
" transform="scale(0.015625)"/>
            <path id="DejaVuSans-52" d="M 2841 2188 
Q 3044 2119 3236 1894 
Q 3428 1669 3622 1275 
L 4263 0 
L 3584 0 
L 2988 1197 
Q 2756 1666 2539 1819 
Q 2322 1972 1947 1972 
L 1259 1972 
L 1259 0 
L 628 0 
L 628 4666 
L 2053 4666 
Q 2853 4666 3247 4331 
Q 3641 3997 3641 3322 
Q 3641 2881 3436 2590 
Q 3231 2300 2841 2188 
z
M 1259 4147 
L 1259 2491 
L 2053 2491 
Q 2509 2491 2742 2702 
Q 2975 2913 2975 3322 
Q 2975 3731 2742 3939 
Q 2509 4147 2053 4147 
L 1259 4147 
z
" transform="scale(0.015625)"/>
            <path id="DejaVuSans-43" d="M 4122 4306 
L 4122 3641 
Q 3803 3938 3442 4084 
Q 3081 4231 2675 4231 
Q 1875 4231 1450 3742 
Q 1025 3253 1025 2328 
Q 1025 1406 1450 917 
Q 1875 428 2675 428 
Q 3081 428 3442 575 
Q 3803 722 4122 1019 
L 4122 359 
Q 3791 134 3420 21 
Q 3050 -91 2638 -91 
Q 1578 -91 968 557 
Q 359 1206 359 2328 
Q 359 3453 968 4101 
Q 1578 4750 2638 4750 
Q 3056 4750 3426 4639 
Q 3797 4528 4122 4306 
z
" transform="scale(0.015625)"/>
           </defs>
           <use xlink:href="#DejaVuSans-53"/>
           <use xlink:href="#DejaVuSans-52" x="63.476562"/>
           <use xlink:href="#DejaVuSans-43" x="127.958984"/>
          </g>
         </g>
        </g>
        <g id="xtick_3">
         <g id="line2d_3"/>
         <g id="text_3">
          <!-- TAR -->
          <g transform="translate(428.231539 332.720312) scale(0.1 -0.1)">
           <defs>
            <path id="DejaVuSans-41" d="M 2188 4044 
L 1331 1722 
L 3047 1722 
L 2188 4044 
z
M 1831 4666 
L 2547 4666 
L 4325 0 
L 3669 0 
L 3244 1197 
L 1141 1197 
L 716 0 
L 50 0 
L 1831 4666 
z
" transform="scale(0.015625)"/>
           </defs>
           <use xlink:href="#DejaVuSans-54"/>
           <use xlink:href="#DejaVuSans-41" x="53.333984"/>
           <use xlink:href="#DejaVuSans-52" x="121.742188"/>
          </g>
         </g>
        </g>
       </g>
       <g id="matplotlib.axis_2">
        <g id="ytick_1">
         <g id="line2d_4">
          <defs>
           <path id="meb16790bab" d="M 0 0 
L -3.5 0 
" style="stroke: #000000; stroke-width: 0.8"/>
          </defs>
          <g>
           <use xlink:href="#meb16790bab" x="63.290625" y="321.621875" style="stroke: #000000; stroke-width: 0.8"/>
          </g>
         </g>
         <g id="text_4">
          <!-- 0 -->
          <g transform="translate(49.928125 325.421094) scale(0.1 -0.1)">
           <defs>
            <path id="DejaVuSans-30" d="M 2034 4250 
Q 1547 4250 1301 3770 
Q 1056 3291 1056 2328 
Q 1056 1369 1301 889 
Q 1547 409 2034 409 
Q 2525 409 2770 889 
Q 3016 1369 3016 2328 
Q 3016 3291 2770 3770 
Q 2525 4250 2034 4250 
z
M 2034 4750 
Q 2819 4750 3233 4129 
Q 3647 3509 3647 2328 
Q 3647 1150 3233 529 
Q 2819 -91 2034 -91 
Q 1250 -91 836 529 
Q 422 1150 422 2328 
Q 422 3509 836 4129 
Q 1250 4750 2034 4750 
z
" transform="scale(0.015625)"/>
           </defs>
           <use xlink:href="#DejaVuSans-30"/>
          </g>
         </g>
        </g>
        <g id="ytick_2">
         <g id="line2d_5">
          <g>
           <use xlink:href="#meb16790bab" x="63.290625" y="262.770815" style="stroke: #000000; stroke-width: 0.8"/>
          </g>
         </g>
         <g id="text_5">
          <!-- 5000 -->
          <g transform="translate(30.840625 266.570033) scale(0.1 -0.1)">
           <defs>
            <path id="DejaVuSans-35" d="M 691 4666 
L 3169 4666 
L 3169 4134 
L 1269 4134 
L 1269 2991 
Q 1406 3038 1543 3061 
Q 1681 3084 1819 3084 
Q 2600 3084 3056 2656 
Q 3513 2228 3513 1497 
Q 3513 744 3044 326 
Q 2575 -91 1722 -91 
Q 1428 -91 1123 -41 
Q 819 9 494 109 
L 494 744 
Q 775 591 1075 516 
Q 1375 441 1709 441 
Q 2250 441 2565 725 
Q 2881 1009 2881 1497 
Q 2881 1984 2565 2268 
Q 2250 2553 1709 2553 
Q 1456 2553 1204 2497 
Q 953 2441 691 2322 
L 691 4666 
z
" transform="scale(0.015625)"/>
           </defs>
           <use xlink:href="#DejaVuSans-35"/>
           <use xlink:href="#DejaVuSans-30" x="63.623047"/>
           <use xlink:href="#DejaVuSans-30" x="127.246094"/>
           <use xlink:href="#DejaVuSans-30" x="190.869141"/>
          </g>
         </g>
        </g>
        <g id="ytick_3">
         <g id="line2d_6">
          <g>
           <use xlink:href="#meb16790bab" x="63.290625" y="203.919754" style="stroke: #000000; stroke-width: 0.8"/>
          </g>
         </g>
         <g id="text_6">
          <!-- 10000 -->
          <g transform="translate(24.478125 207.718973) scale(0.1 -0.1)">
           <defs>
            <path id="DejaVuSans-31" d="M 794 531 
L 1825 531 
L 1825 4091 
L 703 3866 
L 703 4441 
L 1819 4666 
L 2450 4666 
L 2450 531 
L 3481 531 
L 3481 0 
L 794 0 
L 794 531 
z
" transform="scale(0.015625)"/>
           </defs>
           <use xlink:href="#DejaVuSans-31"/>
           <use xlink:href="#DejaVuSans-30" x="63.623047"/>
           <use xlink:href="#DejaVuSans-30" x="127.246094"/>
           <use xlink:href="#DejaVuSans-30" x="190.869141"/>
           <use xlink:href="#DejaVuSans-30" x="254.492188"/>
          </g>
         </g>
        </g>
        <g id="ytick_4">
         <g id="line2d_7">
          <g>
           <use xlink:href="#meb16790bab" x="63.290625" y="145.068694" style="stroke: #000000; stroke-width: 0.8"/>
          </g>
         </g>
         <g id="text_7">
          <!-- 15000 -->
          <g transform="translate(24.478125 148.867913) scale(0.1 -0.1)">
           <use xlink:href="#DejaVuSans-31"/>
           <use xlink:href="#DejaVuSans-35" x="63.623047"/>
           <use xlink:href="#DejaVuSans-30" x="127.246094"/>
           <use xlink:href="#DejaVuSans-30" x="190.869141"/>
           <use xlink:href="#DejaVuSans-30" x="254.492188"/>
          </g>
         </g>
        </g>
        <g id="ytick_5">
         <g id="line2d_8">
          <g>
           <use xlink:href="#meb16790bab" x="63.290625" y="86.217634" style="stroke: #000000; stroke-width: 0.8"/>
          </g>
         </g>
         <g id="text_8">
          <!-- 20000 -->
          <g transform="translate(24.478125 90.016853) scale(0.1 -0.1)">
           <defs>
            <path id="DejaVuSans-32" d="M 1228 531 
L 3431 531 
L 3431 0 
L 469 0 
L 469 531 
Q 828 903 1448 1529 
Q 2069 2156 2228 2338 
Q 2531 2678 2651 2914 
Q 2772 3150 2772 3378 
Q 2772 3750 2511 3984 
Q 2250 4219 1831 4219 
Q 1534 4219 1204 4116 
Q 875 4013 500 3803 
L 500 4441 
Q 881 4594 1212 4672 
Q 1544 4750 1819 4750 
Q 2544 4750 2975 4387 
Q 3406 4025 3406 3419 
Q 3406 3131 3298 2873 
Q 3191 2616 2906 2266 
Q 2828 2175 2409 1742 
Q 1991 1309 1228 531 
z
" transform="scale(0.015625)"/>
           </defs>
           <use xlink:href="#DejaVuSans-32"/>
           <use xlink:href="#DejaVuSans-30" x="63.623047"/>
           <use xlink:href="#DejaVuSans-30" x="127.246094"/>
           <use xlink:href="#DejaVuSans-30" x="190.869141"/>
           <use xlink:href="#DejaVuSans-30" x="254.492188"/>
          </g>
         </g>
        </g>
        <g id="ytick_6">
         <g id="line2d_9">
          <g>
           <use xlink:href="#meb16790bab" x="63.290625" y="27.366573" style="stroke: #000000; stroke-width: 0.8"/>
          </g>
         </g>
         <g id="text_9">
          <!-- 25000 -->
          <g transform="translate(24.478125 31.165792) scale(0.1 -0.1)">
           <use xlink:href="#DejaVuSans-32"/>
           <use xlink:href="#DejaVuSans-35" x="63.623047"/>
           <use xlink:href="#DejaVuSans-30" x="127.246094"/>
           <use xlink:href="#DejaVuSans-30" x="190.869141"/>
           <use xlink:href="#DejaVuSans-30" x="254.492188"/>
          </g>
         </g>
        </g>
        <g id="text_10">
         <!-- time ago (generations) -->
         <g transform="translate(18.398438 223.682031) rotate(-90) scale(0.1 -0.1)">
          <defs>
           <path id="DejaVuSans-74" d="M 1172 4494 
L 1172 3500 
L 2356 3500 
L 2356 3053 
L 1172 3053 
L 1172 1153 
Q 1172 725 1289 603 
Q 1406 481 1766 481 
L 2356 481 
L 2356 0 
L 1766 0 
Q 1100 0 847 248 
Q 594 497 594 1153 
L 594 3053 
L 172 3053 
L 172 3500 
L 594 3500 
L 594 4494 
L 1172 4494 
z
" transform="scale(0.015625)"/>
           <path id="DejaVuSans-69" d="M 603 3500 
L 1178 3500 
L 1178 0 
L 603 0 
L 603 3500 
z
M 603 4863 
L 1178 4863 
L 1178 4134 
L 603 4134 
L 603 4863 
z
" transform="scale(0.015625)"/>
           <path id="DejaVuSans-6d" d="M 3328 2828 
Q 3544 3216 3844 3400 
Q 4144 3584 4550 3584 
Q 5097 3584 5394 3201 
Q 5691 2819 5691 2113 
L 5691 0 
L 5113 0 
L 5113 2094 
Q 5113 2597 4934 2840 
Q 4756 3084 4391 3084 
Q 3944 3084 3684 2787 
Q 3425 2491 3425 1978 
L 3425 0 
L 2847 0 
L 2847 2094 
Q 2847 2600 2669 2842 
Q 2491 3084 2119 3084 
Q 1678 3084 1418 2786 
Q 1159 2488 1159 1978 
L 1159 0 
L 581 0 
L 581 3500 
L 1159 3500 
L 1159 2956 
Q 1356 3278 1631 3431 
Q 1906 3584 2284 3584 
Q 2666 3584 2933 3390 
Q 3200 3197 3328 2828 
z
" transform="scale(0.015625)"/>
           <path id="DejaVuSans-65" d="M 3597 1894 
L 3597 1613 
L 953 1613 
Q 991 1019 1311 708 
Q 1631 397 2203 397 
Q 2534 397 2845 478 
Q 3156 559 3463 722 
L 3463 178 
Q 3153 47 2828 -22 
Q 2503 -91 2169 -91 
Q 1331 -91 842 396 
Q 353 884 353 1716 
Q 353 2575 817 3079 
Q 1281 3584 2069 3584 
Q 2775 3584 3186 3129 
Q 3597 2675 3597 1894 
z
M 3022 2063 
Q 3016 2534 2758 2815 
Q 2500 3097 2075 3097 
Q 1594 3097 1305 2825 
Q 1016 2553 972 2059 
L 3022 2063 
z
" transform="scale(0.015625)"/>
           <path id="DejaVuSans-20" transform="scale(0.015625)"/>
           <path id="DejaVuSans-61" d="M 2194 1759 
Q 1497 1759 1228 1600 
Q 959 1441 959 1056 
Q 959 750 1161 570 
Q 1363 391 1709 391 
Q 2188 391 2477 730 
Q 2766 1069 2766 1631 
L 2766 1759 
L 2194 1759 
z
M 3341 1997 
L 3341 0 
L 2766 0 
L 2766 531 
Q 2569 213 2275 61 
Q 1981 -91 1556 -91 
Q 1019 -91 701 211 
Q 384 513 384 1019 
Q 384 1609 779 1909 
Q 1175 2209 1959 2209 
L 2766 2209 
L 2766 2266 
Q 2766 2663 2505 2880 
Q 2244 3097 1772 3097 
Q 1472 3097 1187 3025 
Q 903 2953 641 2809 
L 641 3341 
Q 956 3463 1253 3523 
Q 1550 3584 1831 3584 
Q 2591 3584 2966 3190 
Q 3341 2797 3341 1997 
z
" transform="scale(0.015625)"/>
           <path id="DejaVuSans-67" d="M 2906 1791 
Q 2906 2416 2648 2759 
Q 2391 3103 1925 3103 
Q 1463 3103 1205 2759 
Q 947 2416 947 1791 
Q 947 1169 1205 825 
Q 1463 481 1925 481 
Q 2391 481 2648 825 
Q 2906 1169 2906 1791 
z
M 3481 434 
Q 3481 -459 3084 -895 
Q 2688 -1331 1869 -1331 
Q 1566 -1331 1297 -1286 
Q 1028 -1241 775 -1147 
L 775 -588 
Q 1028 -725 1275 -790 
Q 1522 -856 1778 -856 
Q 2344 -856 2625 -561 
Q 2906 -266 2906 331 
L 2906 616 
Q 2728 306 2450 153 
Q 2172 0 1784 0 
Q 1141 0 747 490 
Q 353 981 353 1791 
Q 353 2603 747 3093 
Q 1141 3584 1784 3584 
Q 2172 3584 2450 3431 
Q 2728 3278 2906 2969 
L 2906 3500 
L 3481 3500 
L 3481 434 
z
" transform="scale(0.015625)"/>
           <path id="DejaVuSans-6f" d="M 1959 3097 
Q 1497 3097 1228 2736 
Q 959 2375 959 1747 
Q 959 1119 1226 758 
Q 1494 397 1959 397 
Q 2419 397 2687 759 
Q 2956 1122 2956 1747 
Q 2956 2369 2687 2733 
Q 2419 3097 1959 3097 
z
M 1959 3584 
Q 2709 3584 3137 3096 
Q 3566 2609 3566 1747 
Q 3566 888 3137 398 
Q 2709 -91 1959 -91 
Q 1206 -91 779 398 
Q 353 888 353 1747 
Q 353 2609 779 3096 
Q 1206 3584 1959 3584 
z
" transform="scale(0.015625)"/>
           <path id="DejaVuSans-28" d="M 1984 4856 
Q 1566 4138 1362 3434 
Q 1159 2731 1159 2009 
Q 1159 1288 1364 580 
Q 1569 -128 1984 -844 
L 1484 -844 
Q 1016 -109 783 600 
Q 550 1309 550 2009 
Q 550 2706 781 3412 
Q 1013 4119 1484 4856 
L 1984 4856 
z
" transform="scale(0.015625)"/>
           <path id="DejaVuSans-6e" d="M 3513 2113 
L 3513 0 
L 2938 0 
L 2938 2094 
Q 2938 2591 2744 2837 
Q 2550 3084 2163 3084 
Q 1697 3084 1428 2787 
Q 1159 2491 1159 1978 
L 1159 0 
L 581 0 
L 581 3500 
L 1159 3500 
L 1159 2956 
Q 1366 3272 1645 3428 
Q 1925 3584 2291 3584 
Q 2894 3584 3203 3211 
Q 3513 2838 3513 2113 
z
" transform="scale(0.015625)"/>
           <path id="DejaVuSans-72" d="M 2631 2963 
Q 2534 3019 2420 3045 
Q 2306 3072 2169 3072 
Q 1681 3072 1420 2755 
Q 1159 2438 1159 1844 
L 1159 0 
L 581 0 
L 581 3500 
L 1159 3500 
L 1159 2956 
Q 1341 3275 1631 3429 
Q 1922 3584 2338 3584 
Q 2397 3584 2469 3576 
Q 2541 3569 2628 3553 
L 2631 2963 
z
" transform="scale(0.015625)"/>
           <path id="DejaVuSans-73" d="M 2834 3397 
L 2834 2853 
Q 2591 2978 2328 3040 
Q 2066 3103 1784 3103 
Q 1356 3103 1142 2972 
Q 928 2841 928 2578 
Q 928 2378 1081 2264 
Q 1234 2150 1697 2047 
L 1894 2003 
Q 2506 1872 2764 1633 
Q 3022 1394 3022 966 
Q 3022 478 2636 193 
Q 2250 -91 1575 -91 
Q 1294 -91 989 -36 
Q 684 19 347 128 
L 347 722 
Q 666 556 975 473 
Q 1284 391 1588 391 
Q 1994 391 2212 530 
Q 2431 669 2431 922 
Q 2431 1156 2273 1281 
Q 2116 1406 1581 1522 
L 1381 1569 
Q 847 1681 609 1914 
Q 372 2147 372 2553 
Q 372 3047 722 3315 
Q 1072 3584 1716 3584 
Q 2034 3584 2315 3537 
Q 2597 3491 2834 3397 
z
" transform="scale(0.015625)"/>
           <path id="DejaVuSans-29" d="M 513 4856 
L 1013 4856 
Q 1481 4119 1714 3412 
Q 1947 2706 1947 2009 
Q 1947 1309 1714 600 
Q 1481 -109 1013 -844 
L 513 -844 
Q 928 -128 1133 580 
Q 1338 1288 1338 2009 
Q 1338 2731 1133 3434 
Q 928 4138 513 4856 
z
" transform="scale(0.015625)"/>
          </defs>
          <use xlink:href="#DejaVuSans-74"/>
          <use xlink:href="#DejaVuSans-69" x="39.208984"/>
          <use xlink:href="#DejaVuSans-6d" x="66.992188"/>
          <use xlink:href="#DejaVuSans-65" x="164.404297"/>
          <use xlink:href="#DejaVuSans-20" x="225.927734"/>
          <use xlink:href="#DejaVuSans-61" x="257.714844"/>
          <use xlink:href="#DejaVuSans-67" x="318.994141"/>
          <use xlink:href="#DejaVuSans-6f" x="382.470703"/>
          <use xlink:href="#DejaVuSans-20" x="443.652344"/>
          <use xlink:href="#DejaVuSans-28" x="475.439453"/>
          <use xlink:href="#DejaVuSans-67" x="514.453125"/>
          <use xlink:href="#DejaVuSans-65" x="577.929688"/>
          <use xlink:href="#DejaVuSans-6e" x="639.453125"/>
          <use xlink:href="#DejaVuSans-65" x="702.832031"/>
          <use xlink:href="#DejaVuSans-72" x="764.355469"/>
          <use xlink:href="#DejaVuSans-61" x="805.46875"/>
          <use xlink:href="#DejaVuSans-74" x="866.748047"/>
          <use xlink:href="#DejaVuSans-69" x="905.957031"/>
          <use xlink:href="#DejaVuSans-6f" x="933.740234"/>
          <use xlink:href="#DejaVuSans-6e" x="994.921875"/>
          <use xlink:href="#DejaVuSans-73" x="1058.300781"/>
          <use xlink:href="#DejaVuSans-29" x="1110.400391"/>
         </g>
        </g>
       </g>
       <g id="patch_7">
        <path d="M 231.066442 228.060459 
L 230.066442 228.029023 
L 229.066442 227.992083 
L 228.066442 227.894336 
L 227.066442 227.861814 
L 226.066442 227.78819 
L 225.066442 227.749624 
L 224.066442 227.714211 
L 223.066442 227.656571 
L 222.066442 227.586185 
L 221.066442 227.534221 
L 220.066442 227.475131 
L 219.066442 227.38681 
L 218.066442 227.340666 
L 217.066442 227.298255 
L 216.066442 227.267762 
L 215.066442 227.241717 
L 214.066442 227.220517 
L 213.066442 227.166216 
L 212.066442 227.138278 
L 211.066442 227.108554 
L 210.066442 227.08316 
L 209.066442 227.071959 
L 208.066442 227.061835 
L 207.066442 227.06204 
L 206.066442 227.071549 
L 205.066442 227.083203 
L 204.066442 227.114232 
L 203.066442 227.1254 
L 202.066442 227.155518 
L 201.066442 227.215295 
L 200.066442 227.252486 
L 199.066442 227.291582 
L 198.066442 227.334022 
L 197.066442 227.366787 
L 196.066442 227.434213 
L 195.066442 227.473339 
L 194.066442 227.516014 
L 193.066442 227.586595 
L 192.066442 227.622985 
L 191.066442 227.681389 
L 190.066442 227.792341 
L 189.066442 227.862999 
L 188.066442 227.975939 
L 187.066442 228.021712 
L 186.066442 228.082995 
L 185.066442 228.131495 
L 184.066442 228.212317 
L 183.066442 228.330836 
L 182.066442 228.401047 
L 181.066442 228.484309 
L 180.066442 228.517451 
L 179.066442 228.568689 
L 178.066442 228.637087 
L 177.066442 228.703302 
L 176.066442 228.780219 
L 175.066442 228.807535 
L 174.066442 228.834012 
L 173.066442 228.856663 
L 172.066442 228.876194 
L 171.066442 228.902588 
L 170.066442 228.952359 
L 169.066442 228.987432 
L 168.066442 229.023298 
L 167.066442 229.038665 
L 166.066442 229.054434 
L 165.066442 229.057847 
L 164.066442 229.060265 
L 163.066442 229.059779 
L 162.066442 229.057849 
L 161.066442 229.044592 
L 160.066442 229.036202 
L 159.066442 229.014665 
L 158.066442 228.991633 
L 157.066442 228.974399 
L 156.066442 228.955937 
L 155.066442 228.935484 
L 154.066442 228.918884 
L 153.066442 228.856106 
L 152.066442 228.78084 
L 151.066442 228.748201 
L 150.066442 228.680638 
L 149.066442 228.626591 
L 148.066442 228.592886 
L 147.066442 228.50276 
L 146.066442 228.474225 
L 145.066442 228.442739 
L 144.066442 228.411728 
L 143.066442 228.35692 
L 142.066442 228.292333 
L 141.066442 228.254138 
L 140.066442 228.158203 
L 139.066442 228.108945 
L 138.066442 228.064876 
L 136.213398 228.024752 
" clip-path="url(#p219ceb0bc3)" style="fill: none; stroke: #ffffff; stroke-width: 3; stroke-linecap: round"/>
        <path d="M 231.066442 228.060459 
L 230.066442 228.029023 
L 229.066442 227.992083 
L 228.066442 227.894336 
L 227.066442 227.861814 
L 226.066442 227.78819 
L 225.066442 227.749624 
L 224.066442 227.714211 
L 223.066442 227.656571 
L 222.066442 227.586185 
L 221.066442 227.534221 
L 220.066442 227.475131 
L 219.066442 227.38681 
L 218.066442 227.340666 
L 217.066442 227.298255 
L 216.066442 227.267762 
L 215.066442 227.241717 
L 214.066442 227.220517 
L 213.066442 227.166216 
L 212.066442 227.138278 
L 211.066442 227.108554 
L 210.066442 227.08316 
L 209.066442 227.071959 
L 208.066442 227.061835 
L 207.066442 227.06204 
L 206.066442 227.071549 
L 205.066442 227.083203 
L 204.066442 227.114232 
L 203.066442 227.1254 
L 202.066442 227.155518 
L 201.066442 227.215295 
L 200.066442 227.252486 
L 199.066442 227.291582 
L 198.066442 227.334022 
L 197.066442 227.366787 
L 196.066442 227.434213 
L 195.066442 227.473339 
L 194.066442 227.516014 
L 193.066442 227.586595 
L 192.066442 227.622985 
L 191.066442 227.681389 
L 190.066442 227.792341 
L 189.066442 227.862999 
L 188.066442 227.975939 
L 187.066442 228.021712 
L 186.066442 228.082995 
L 185.066442 228.131495 
L 184.066442 228.212317 
L 183.066442 228.330836 
L 182.066442 228.401047 
L 181.066442 228.484309 
L 180.066442 228.517451 
L 179.066442 228.568689 
L 178.066442 228.637087 
L 177.066442 228.703302 
L 176.066442 228.780219 
L 175.066442 228.807535 
L 174.066442 228.834012 
L 173.066442 228.856663 
L 172.066442 228.876194 
L 171.066442 228.902588 
L 170.066442 228.952359 
L 169.066442 228.987432 
L 168.066442 229.023298 
L 167.066442 229.038665 
L 166.066442 229.054434 
L 165.066442 229.057847 
L 164.066442 229.060265 
L 163.066442 229.059779 
L 162.066442 229.057849 
L 161.066442 229.044592 
L 160.066442 229.036202 
L 159.066442 229.014665 
L 158.066442 228.991633 
L 157.066442 228.974399 
L 156.066442 228.955937 
L 155.066442 228.935484 
L 154.066442 228.918884 
L 153.066442 228.856106 
L 152.066442 228.78084 
L 151.066442 228.748201 
L 150.066442 228.680638 
L 149.066442 228.626591 
L 148.066442 228.592886 
L 147.066442 228.50276 
L 146.066442 228.474225 
L 145.066442 228.442739 
L 144.066442 228.411728 
L 143.066442 228.35692 
L 142.066442 228.292333 
L 141.066442 228.254138 
L 140.066442 228.158203 
L 139.066442 228.108945 
L 138.066442 228.064876 
L 136.213398 228.024752 
" clip-path="url(#p219ceb0bc3)" style="fill: none; stroke: #1f77b4; stroke-linecap: round"/>
        <path d="M 140.213398 230.060459 
L 139.33303 229.585128 
L 138.455123 229.104874 
L 137.604409 228.570233 
L 136.302235 227.882786 
L 137.229588 227.856771 
L 138.141262 227.444052 
L 139.051526 227.028513 
L 140.394022 226.421708 
L 139.739123 227.060459 
L 139.687159 228.060459 
L 139.628069 230.060459 
z
" clip-path="url(#p219ceb0bc3)" style="fill: #ffffff; stroke: #ffffff; stroke-width: 3; stroke-linecap: round"/>
        <path d="M 140.213398 230.060459 
L 139.33303 229.585128 
L 138.455123 229.104874 
L 137.604409 228.570233 
L 136.302235 227.882786 
L 137.229588 227.856771 
L 138.141262 227.444052 
L 139.051526 227.028513 
L 140.394022 226.421708 
L 139.739123 227.060459 
L 139.687159 228.060459 
L 139.628069 230.060459 
z
" clip-path="url(#p219ceb0bc3)" style="fill: #ffffff; stroke: #1f77b4; stroke-linecap: round"/>
        <g id="patch_8">
         <path d="M 387.102848 72.964375 
L 388.102848 72.995811 
L 389.102848 73.032752 
L 390.102848 73.130498 
L 391.102848 73.16302 
L 392.102848 73.236645 
L 393.102848 73.27521 
L 394.102848 73.310623 
L 395.102848 73.368263 
L 396.102848 73.438649 
L 397.102848 73.490614 
L 398.102848 73.549703 
L 399.102848 73.638024 
L 400.102848 73.684169 
L 401.102848 73.72658 
L 402.102848 73.757072 
L 403.102848 73.783117 
L 404.102848 73.804317 
L 405.102848 73.858618 
L 406.102848 73.886556 
L 407.102848 73.91628 
L 408.102848 73.941675 
L 409.102848 73.952875 
L 410.102848 73.962999 
L 411.102848 73.962795 
L 412.102848 73.953285 
L 413.102848 73.941631 
L 414.102848 73.910602 
L 415.102848 73.899434 
L 416.102848 73.869317 
L 417.102848 73.80954 
L 418.102848 73.772348 
L 419.102848 73.733252 
L 420.102848 73.690812 
L 421.102848 73.658047 
L 422.102848 73.590621 
L 423.102848 73.551495 
L 424.102848 73.50882 
L 425.102848 73.43824 
L 426.102848 73.401849 
L 427.102848 73.343446 
L 428.102848 73.232493 
L 429.102848 73.161835 
L 430.102848 73.048895 
L 431.102848 73.003122 
L 432.102848 72.941839 
L 433.102848 72.89334 
L 434.102848 72.812517 
L 435.102848 72.693998 
L 436.102848 72.623787 
L 437.102848 72.540525 
L 438.102848 72.507383 
L 439.102848 72.456146 
L 440.102848 72.387747 
L 441.102848 72.321532 
L 442.102848 72.244615 
L 443.102848 72.217299 
L 444.102848 72.190822 
L 445.102848 72.168171 
L 446.102848 72.14864 
L 447.102848 72.122246 
L 448.102848 72.072475 
L 449.102848 72.037402 
L 450.102848 72.001536 
L 451.102848 71.986169 
L 452.102848 71.9704 
L 453.102848 71.966987 
L 454.102848 71.96457 
L 455.102848 71.965056 
L 456.102848 71.966985 
L 457.102848 71.980242 
L 458.102848 71.988633 
L 459.102848 72.010169 
L 460.102848 72.033202 
L 461.102848 72.050435 
L 462.102848 72.068898 
L 463.102848 72.08935 
L 464.102848 72.10595 
L 465.102848 72.168729 
L 466.102848 72.243994 
L 467.102848 72.276633 
L 468.102848 72.344197 
L 469.102848 72.398244 
L 470.102848 72.431948 
L 471.102848 72.522074 
L 472.102848 72.550609 
L 473.102848 72.582095 
L 474.102848 72.613106 
L 475.102848 72.667914 
L 476.102848 72.732501 
L 477.102848 72.770697 
L 478.102848 72.866631 
L 479.102848 72.915889 
L 480.102848 72.959958 
L 481.102848 73.000082 
L 482.102848 73.108449 
L 483.102848 73.150077 
L 484.102848 73.212219 
L 485.102848 73.282181 
L 486.102848 73.386685 
L 487.102848 73.423673 
L 488.102848 73.46955 
L 489.102848 73.538045 
L 490.102848 73.586791 
L 491.102848 73.664388 
L 492.102848 73.694929 
L 493.102848 73.764443 
L 494.102848 73.788416 
L 495.102848 73.817038 
L 496.102848 73.858831 
L 497.102848 73.880407 
L 498.102848 73.894355 
L 499.102848 73.921077 
L 500.102848 73.930387 
L 501.102848 73.942834 
L 502.102848 73.953889 
L 503.102848 73.959553 
L 504.102848 73.964317 
L 505.102848 73.958769 
L 506.102848 73.945481 
L 507.102848 73.937964 
L 508.102848 73.913179 
L 509.102848 73.88961 
L 510.102848 73.85343 
L 511.102848 73.827468 
L 512.102848 73.805146 
L 513.102848 73.736386 
L 514.102848 73.661851 
L 515.102848 73.567872 
L 516.102848 73.51682 
L 517.102848 73.462886 
L 518.102848 73.427635 
L 519.102848 73.321547 
L 520.102848 73.269283 
L 521.102848 73.232376 
L 522.102848 73.201345 
L 523.102848 73.14019 
L 524.102848 73.07277 
L 525.102848 73.023864 
L 526.102848 72.958672 
L 527.102848 72.920484 
L 528.102848 72.878488 
L 529.102848 72.836471 
L 530.102848 72.776955 
L 531.102848 72.663795 
L 532.102848 72.611544 
L 533.102848 72.572126 
L 534.102848 72.525025 
L 535.102848 72.468245 
L 536.102848 72.435582 
L 537.102848 72.399404 
L 538.102848 72.367314 
L 539.102848 72.333034 
L 540.102848 72.274656 
L 541.102848 72.229471 
L 542.102848 72.199847 
L 543.102848 72.149461 
L 544.102848 72.124264 
L 545.102848 72.103213 
L 546.102848 72.068245 
L 547.102848 72.043955 
L 548.102848 72.029888 
L 549.102848 72.010946 
L 550.847173 71.995285 
" clip-path="url(#p219ceb0bc3)" style="fill: none; stroke: #ffffff; stroke-width: 3; stroke-linecap: round"/>
         <path d="M 387.102848 72.964375 
L 388.102848 72.995811 
L 389.102848 73.032752 
L 390.102848 73.130498 
L 391.102848 73.16302 
L 392.102848 73.236645 
L 393.102848 73.27521 
L 394.102848 73.310623 
L 395.102848 73.368263 
L 396.102848 73.438649 
L 397.102848 73.490614 
L 398.102848 73.549703 
L 399.102848 73.638024 
L 400.102848 73.684169 
L 401.102848 73.72658 
L 402.102848 73.757072 
L 403.102848 73.783117 
L 404.102848 73.804317 
L 405.102848 73.858618 
L 406.102848 73.886556 
L 407.102848 73.91628 
L 408.102848 73.941675 
L 409.102848 73.952875 
L 410.102848 73.962999 
L 411.102848 73.962795 
L 412.102848 73.953285 
L 413.102848 73.941631 
L 414.102848 73.910602 
L 415.102848 73.899434 
L 416.102848 73.869317 
L 417.102848 73.80954 
L 418.102848 73.772348 
L 419.102848 73.733252 
L 420.102848 73.690812 
L 421.102848 73.658047 
L 422.102848 73.590621 
L 423.102848 73.551495 
L 424.102848 73.50882 
L 425.102848 73.43824 
L 426.102848 73.401849 
L 427.102848 73.343446 
L 428.102848 73.232493 
L 429.102848 73.161835 
L 430.102848 73.048895 
L 431.102848 73.003122 
L 432.102848 72.941839 
L 433.102848 72.89334 
L 434.102848 72.812517 
L 435.102848 72.693998 
L 436.102848 72.623787 
L 437.102848 72.540525 
L 438.102848 72.507383 
L 439.102848 72.456146 
L 440.102848 72.387747 
L 441.102848 72.321532 
L 442.102848 72.244615 
L 443.102848 72.217299 
L 444.102848 72.190822 
L 445.102848 72.168171 
L 446.102848 72.14864 
L 447.102848 72.122246 
L 448.102848 72.072475 
L 449.102848 72.037402 
L 450.102848 72.001536 
L 451.102848 71.986169 
L 452.102848 71.9704 
L 453.102848 71.966987 
L 454.102848 71.96457 
L 455.102848 71.965056 
L 456.102848 71.966985 
L 457.102848 71.980242 
L 458.102848 71.988633 
L 459.102848 72.010169 
L 460.102848 72.033202 
L 461.102848 72.050435 
L 462.102848 72.068898 
L 463.102848 72.08935 
L 464.102848 72.10595 
L 465.102848 72.168729 
L 466.102848 72.243994 
L 467.102848 72.276633 
L 468.102848 72.344197 
L 469.102848 72.398244 
L 470.102848 72.431948 
L 471.102848 72.522074 
L 472.102848 72.550609 
L 473.102848 72.582095 
L 474.102848 72.613106 
L 475.102848 72.667914 
L 476.102848 72.732501 
L 477.102848 72.770697 
L 478.102848 72.866631 
L 479.102848 72.915889 
L 480.102848 72.959958 
L 481.102848 73.000082 
L 482.102848 73.108449 
L 483.102848 73.150077 
L 484.102848 73.212219 
L 485.102848 73.282181 
L 486.102848 73.386685 
L 487.102848 73.423673 
L 488.102848 73.46955 
L 489.102848 73.538045 
L 490.102848 73.586791 
L 491.102848 73.664388 
L 492.102848 73.694929 
L 493.102848 73.764443 
L 494.102848 73.788416 
L 495.102848 73.817038 
L 496.102848 73.858831 
L 497.102848 73.880407 
L 498.102848 73.894355 
L 499.102848 73.921077 
L 500.102848 73.930387 
L 501.102848 73.942834 
L 502.102848 73.953889 
L 503.102848 73.959553 
L 504.102848 73.964317 
L 505.102848 73.958769 
L 506.102848 73.945481 
L 507.102848 73.937964 
L 508.102848 73.913179 
L 509.102848 73.88961 
L 510.102848 73.85343 
L 511.102848 73.827468 
L 512.102848 73.805146 
L 513.102848 73.736386 
L 514.102848 73.661851 
L 515.102848 73.567872 
L 516.102848 73.51682 
L 517.102848 73.462886 
L 518.102848 73.427635 
L 519.102848 73.321547 
L 520.102848 73.269283 
L 521.102848 73.232376 
L 522.102848 73.201345 
L 523.102848 73.14019 
L 524.102848 73.07277 
L 525.102848 73.023864 
L 526.102848 72.958672 
L 527.102848 72.920484 
L 528.102848 72.878488 
L 529.102848 72.836471 
L 530.102848 72.776955 
L 531.102848 72.663795 
L 532.102848 72.611544 
L 533.102848 72.572126 
L 534.102848 72.525025 
L 535.102848 72.468245 
L 536.102848 72.435582 
L 537.102848 72.399404 
L 538.102848 72.367314 
L 539.102848 72.333034 
L 540.102848 72.274656 
L 541.102848 72.229471 
L 542.102848 72.199847 
L 543.102848 72.149461 
L 544.102848 72.124264 
L 545.102848 72.103213 
L 546.102848 72.068245 
L 547.102848 72.043955 
L 548.102848 72.029888 
L 549.102848 72.010946 
L 550.847173 71.995285 
" clip-path="url(#p219ceb0bc3)" style="fill: none; stroke: #1f77b4; stroke-linecap: round"/>
         <path d="M 546.847173 70.964375 
L 547.727542 71.439706 
L 548.605449 71.91996 
L 549.456162 72.454601 
L 550.758337 73.142048 
L 549.830984 73.168063 
L 548.919309 73.580783 
L 548.009045 73.996322 
L 546.666549 74.603126 
L 547.321448 73.964375 
L 547.373412 72.964375 
L 547.432502 70.964375 
z
" clip-path="url(#p219ceb0bc3)" style="fill: #ffffff; stroke: #ffffff; stroke-width: 3; stroke-linecap: round"/>
         <path d="M 546.847173 70.964375 
L 547.727542 71.439706 
L 548.605449 71.91996 
L 549.456162 72.454601 
L 550.758337 73.142048 
L 549.830984 73.168063 
L 548.919309 73.580783 
L 548.009045 73.996322 
L 546.666549 74.603126 
L 547.321448 73.964375 
L 547.373412 72.964375 
L 547.432502 70.964375 
z
" clip-path="url(#p219ceb0bc3)" style="fill: #ffffff; stroke: #1f77b4; stroke-linecap: round"/>
         <g id="patch_9">
          <path d="M 135.097686 237.288306 
L 136.097686 237.319742 
L 137.097686 237.356682 
L 138.097686 237.454429 
L 139.097686 237.48695 
L 140.097686 237.560575 
L 141.097686 237.599141 
L 142.097686 237.634554 
L 143.097686 237.692194 
L 144.097686 237.76258 
L 145.097686 237.814544 
L 146.097686 237.873634 
L 147.097686 237.961955 
L 148.097686 238.008099 
L 149.097686 238.05051 
L 150.097686 238.081003 
L 151.097686 238.107048 
L 152.097686 238.128248 
L 153.097686 238.182549 
L 154.097686 238.210487 
L 155.097686 238.240211 
L 156.097686 238.265605 
L 157.097686 238.276806 
L 158.097686 238.28693 
L 159.097686 238.286725 
L 160.097686 238.277216 
L 161.097686 238.265562 
L 162.097686 238.234533 
L 163.097686 238.223365 
L 164.097686 238.193247 
L 165.097686 238.13347 
L 166.097686 238.096279 
L 167.097686 238.057183 
L 168.097686 238.014743 
L 169.097686 237.981978 
L 170.097686 237.914551 
L 171.097686 237.875426 
L 172.097686 237.832751 
L 173.097686 237.76217 
L 174.097686 237.72578 
L 175.097686 237.667376 
L 176.097686 237.556424 
L 177.097686 237.485765 
L 178.097686 237.372826 
L 179.097686 237.327053 
L 180.097686 237.26577 
L 181.097686 237.21727 
L 182.097686 237.136448 
L 183.097686 237.017929 
L 184.097686 236.947718 
L 185.097686 236.864455 
L 186.097686 236.831314 
L 187.097686 236.780076 
L 188.097686 236.711678 
L 189.097686 236.645463 
L 190.097686 236.568546 
L 191.097686 236.54123 
L 192.097686 236.514753 
L 193.097686 236.492102 
L 194.097686 236.472571 
L 195.097686 236.446177 
L 196.097686 236.396406 
L 197.097686 236.361333 
L 198.097686 236.325467 
L 199.097686 236.3101 
L 200.097686 236.29433 
L 201.097686 236.290918 
L 202.097686 236.2885 
L 203.097686 236.288986 
L 204.097686 236.290916 
L 205.097686 236.304173 
L 206.097686 236.312563 
L 207.097686 236.3341 
L 208.097686 236.357132 
L 209.097686 236.374366 
L 210.097686 236.392828 
L 211.097686 236.413281 
L 212.097686 236.429881 
L 213.097686 236.492659 
L 214.097686 236.567924 
L 215.097686 236.600564 
L 216.097686 236.668127 
L 217.097686 236.722174 
L 218.097686 236.755879 
L 219.097686 236.846005 
L 220.097686 236.87454 
L 221.097686 236.906026 
L 222.097686 236.937037 
L 223.097686 236.991844 
L 224.097686 237.056432 
L 225.097686 237.094627 
L 226.097686 237.190561 
L 227.097686 237.239819 
L 228.097686 237.283889 
L 229.097686 237.324013 
L 230.097686 237.43238 
L 231.097686 237.474008 
L 232.097686 237.536149 
L 233.097686 237.606112 
L 234.097686 237.710616 
L 235.097686 237.747603 
L 236.097686 237.793481 
L 237.097686 237.861975 
L 238.097686 237.910721 
L 239.097686 237.988319 
L 240.097686 238.018859 
L 241.097686 238.088374 
L 242.097686 238.112347 
L 243.097686 238.140968 
L 244.097686 238.182762 
L 245.097686 238.204337 
L 246.097686 238.218285 
L 247.097686 238.245008 
L 248.097686 238.254318 
L 249.097686 238.266764 
L 250.097686 238.277819 
L 251.097686 238.283484 
L 252.097686 238.288247 
L 253.097686 238.2827 
L 254.097686 238.269412 
L 255.097686 238.261894 
L 256.097686 238.23711 
L 257.097686 238.213541 
L 258.097686 238.17736 
L 259.097686 238.151398 
L 260.097686 238.129077 
L 261.097686 238.060317 
L 262.097686 237.985782 
L 263.097686 237.891802 
L 264.097686 237.84075 
L 265.097686 237.786817 
L 266.097686 237.751566 
L 267.097686 237.645478 
L 268.097686 237.593214 
L 269.097686 237.556307 
L 270.097686 237.525276 
L 271.097686 237.464121 
L 272.097686 237.396701 
L 273.097686 237.347795 
L 274.097686 237.282602 
L 275.097686 237.244415 
L 276.097686 237.202419 
L 277.097686 237.160402 
L 278.097686 237.100885 
L 279.097686 236.987725 
L 280.097686 236.935475 
L 281.097686 236.896057 
L 282.097686 236.848955 
L 283.097686 236.792176 
L 284.097686 236.759513 
L 285.097686 236.723335 
L 286.097686 236.691244 
L 287.097686 236.656965 
L 288.097686 236.598587 
L 289.097686 236.553402 
L 290.097686 236.523778 
L 291.097686 236.473392 
L 292.097686 236.448194 
L 293.097686 236.427143 
L 294.097686 236.392176 
L 295.097686 236.367886 
L 296.097686 236.353819 
L 297.097686 236.334877 
L 298.097686 236.319215 
L 299.097686 236.306663 
L 300.097686 236.300828 
L 301.097686 236.293945 
L 302.097686 236.288772 
L 303.097686 236.290554 
L 304.097686 236.29328 
L 305.097686 236.304433 
L 306.097686 236.332669 
L 307.097686 236.376456 
L 308.097686 236.397146 
L 309.097686 236.438119 
L 310.097686 236.478194 
L 311.097686 236.497304 
L 312.097686 236.519812 
L 313.097686 236.586464 
L 314.097686 236.636173 
L 315.097686 236.70988 
L 316.097686 236.741194 
L 317.097686 236.817816 
L 318.097686 236.856114 
L 319.097686 236.93023 
L 320.097686 237.034289 
L 321.097686 237.10412 
L 322.097686 237.209353 
L 323.097686 237.264369 
L 324.097686 237.387844 
L 325.097686 237.458403 
L 326.097686 237.574242 
L 327.097686 237.624423 
L 328.097686 237.660027 
L 329.097686 237.751433 
L 330.097686 237.804941 
L 331.097686 237.89285 
L 332.097686 237.962035 
L 333.097686 238.008799 
L 334.097686 238.080843 
L 335.097686 238.130985 
L 336.097686 238.148374 
L 337.097686 238.175378 
L 338.097686 238.194805 
L 339.097686 238.214143 
L 340.097686 238.252391 
L 341.097686 238.268825 
L 342.097686 238.277194 
L 343.097686 238.281513 
L 344.097686 238.288068 
L 345.097686 238.285521 
L 346.097686 238.280063 
L 347.097686 238.263634 
L 348.097686 238.2317 
L 349.097686 238.193719 
L 350.097686 238.158915 
L 351.097686 238.095844 
L 352.097686 238.074417 
L 353.097686 238.023799 
L 354.097686 237.998841 
L 355.097686 237.943208 
L 356.097686 237.911979 
L 357.097686 237.861835 
L 358.097686 237.829342 
L 359.097686 237.748929 
L 360.097686 237.680004 
L 361.097686 237.564306 
L 362.097686 237.488827 
L 363.097686 237.373303 
L 364.097686 237.293818 
L 365.097686 237.185377 
L 366.097686 237.14601 
L 367.097686 237.043142 
L 368.097686 236.943344 
L 369.097686 236.897847 
L 370.097686 236.863524 
L 371.097686 236.811569 
L 372.097686 236.771922 
L 373.097686 236.736407 
L 374.097686 236.668762 
L 375.097686 236.629681 
L 376.097686 236.579199 
L 377.097686 236.529893 
L 378.097686 236.478824 
L 379.097686 236.434585 
L 380.097686 236.412565 
L 381.097686 236.397008 
L 382.097686 236.354562 
L 383.097686 236.339694 
L 384.097686 236.316966 
L 385.097686 236.29665 
L 386.097686 236.290853 
L 387.097686 236.28837 
L 388.097686 236.291428 
L 389.097686 236.303023 
L 390.097686 236.319944 
L 391.097686 236.351605 
L 392.097686 236.365688 
L 393.097686 236.41836 
L 394.097686 236.467449 
L 395.097686 236.52215 
L 396.097686 236.566498 
L 397.097686 236.63649 
L 398.097686 236.686872 
L 399.097686 236.740779 
L 400.097686 236.810219 
L 401.097686 236.867606 
L 402.097686 236.917772 
L 403.097686 236.994933 
L 404.097686 237.053123 
L 405.097686 237.113762 
L 406.097686 237.150963 
L 407.097686 237.216054 
L 408.097686 237.321184 
L 409.097686 237.381486 
L 410.097686 237.477808 
L 411.097686 237.509811 
L 412.097686 237.560829 
L 413.097686 237.677621 
L 414.097686 237.713067 
L 415.097686 237.768948 
L 416.097686 237.799323 
L 417.097686 237.887709 
L 418.097686 237.932474 
L 419.687678 238.013362 
" clip-path="url(#p219ceb0bc3)" style="fill: none; stroke: #ffffff; stroke-width: 3; stroke-linecap: round"/>
          <path d="M 135.097686 237.288306 
L 136.097686 237.319742 
L 137.097686 237.356682 
L 138.097686 237.454429 
L 139.097686 237.48695 
L 140.097686 237.560575 
L 141.097686 237.599141 
L 142.097686 237.634554 
L 143.097686 237.692194 
L 144.097686 237.76258 
L 145.097686 237.814544 
L 146.097686 237.873634 
L 147.097686 237.961955 
L 148.097686 238.008099 
L 149.097686 238.05051 
L 150.097686 238.081003 
L 151.097686 238.107048 
L 152.097686 238.128248 
L 153.097686 238.182549 
L 154.097686 238.210487 
L 155.097686 238.240211 
L 156.097686 238.265605 
L 157.097686 238.276806 
L 158.097686 238.28693 
L 159.097686 238.286725 
L 160.097686 238.277216 
L 161.097686 238.265562 
L 162.097686 238.234533 
L 163.097686 238.223365 
L 164.097686 238.193247 
L 165.097686 238.13347 
L 166.097686 238.096279 
L 167.097686 238.057183 
L 168.097686 238.014743 
L 169.097686 237.981978 
L 170.097686 237.914551 
L 171.097686 237.875426 
L 172.097686 237.832751 
L 173.097686 237.76217 
L 174.097686 237.72578 
L 175.097686 237.667376 
L 176.097686 237.556424 
L 177.097686 237.485765 
L 178.097686 237.372826 
L 179.097686 237.327053 
L 180.097686 237.26577 
L 181.097686 237.21727 
L 182.097686 237.136448 
L 183.097686 237.017929 
L 184.097686 236.947718 
L 185.097686 236.864455 
L 186.097686 236.831314 
L 187.097686 236.780076 
L 188.097686 236.711678 
L 189.097686 236.645463 
L 190.097686 236.568546 
L 191.097686 236.54123 
L 192.097686 236.514753 
L 193.097686 236.492102 
L 194.097686 236.472571 
L 195.097686 236.446177 
L 196.097686 236.396406 
L 197.097686 236.361333 
L 198.097686 236.325467 
L 199.097686 236.3101 
L 200.097686 236.29433 
L 201.097686 236.290918 
L 202.097686 236.2885 
L 203.097686 236.288986 
L 204.097686 236.290916 
L 205.097686 236.304173 
L 206.097686 236.312563 
L 207.097686 236.3341 
L 208.097686 236.357132 
L 209.097686 236.374366 
L 210.097686 236.392828 
L 211.097686 236.413281 
L 212.097686 236.429881 
L 213.097686 236.492659 
L 214.097686 236.567924 
L 215.097686 236.600564 
L 216.097686 236.668127 
L 217.097686 236.722174 
L 218.097686 236.755879 
L 219.097686 236.846005 
L 220.097686 236.87454 
L 221.097686 236.906026 
L 222.097686 236.937037 
L 223.097686 236.991844 
L 224.097686 237.056432 
L 225.097686 237.094627 
L 226.097686 237.190561 
L 227.097686 237.239819 
L 228.097686 237.283889 
L 229.097686 237.324013 
L 230.097686 237.43238 
L 231.097686 237.474008 
L 232.097686 237.536149 
L 233.097686 237.606112 
L 234.097686 237.710616 
L 235.097686 237.747603 
L 236.097686 237.793481 
L 237.097686 237.861975 
L 238.097686 237.910721 
L 239.097686 237.988319 
L 240.097686 238.018859 
L 241.097686 238.088374 
L 242.097686 238.112347 
L 243.097686 238.140968 
L 244.097686 238.182762 
L 245.097686 238.204337 
L 246.097686 238.218285 
L 247.097686 238.245008 
L 248.097686 238.254318 
L 249.097686 238.266764 
L 250.097686 238.277819 
L 251.097686 238.283484 
L 252.097686 238.288247 
L 253.097686 238.2827 
L 254.097686 238.269412 
L 255.097686 238.261894 
L 256.097686 238.23711 
L 257.097686 238.213541 
L 258.097686 238.17736 
L 259.097686 238.151398 
L 260.097686 238.129077 
L 261.097686 238.060317 
L 262.097686 237.985782 
L 263.097686 237.891802 
L 264.097686 237.84075 
L 265.097686 237.786817 
L 266.097686 237.751566 
L 267.097686 237.645478 
L 268.097686 237.593214 
L 269.097686 237.556307 
L 270.097686 237.525276 
L 271.097686 237.464121 
L 272.097686 237.396701 
L 273.097686 237.347795 
L 274.097686 237.282602 
L 275.097686 237.244415 
L 276.097686 237.202419 
L 277.097686 237.160402 
L 278.097686 237.100885 
L 279.097686 236.987725 
L 280.097686 236.935475 
L 281.097686 236.896057 
L 282.097686 236.848955 
L 283.097686 236.792176 
L 284.097686 236.759513 
L 285.097686 236.723335 
L 286.097686 236.691244 
L 287.097686 236.656965 
L 288.097686 236.598587 
L 289.097686 236.553402 
L 290.097686 236.523778 
L 291.097686 236.473392 
L 292.097686 236.448194 
L 293.097686 236.427143 
L 294.097686 236.392176 
L 295.097686 236.367886 
L 296.097686 236.353819 
L 297.097686 236.334877 
L 298.097686 236.319215 
L 299.097686 236.306663 
L 300.097686 236.300828 
L 301.097686 236.293945 
L 302.097686 236.288772 
L 303.097686 236.290554 
L 304.097686 236.29328 
L 305.097686 236.304433 
L 306.097686 236.332669 
L 307.097686 236.376456 
L 308.097686 236.397146 
L 309.097686 236.438119 
L 310.097686 236.478194 
L 311.097686 236.497304 
L 312.097686 236.519812 
L 313.097686 236.586464 
L 314.097686 236.636173 
L 315.097686 236.70988 
L 316.097686 236.741194 
L 317.097686 236.817816 
L 318.097686 236.856114 
L 319.097686 236.93023 
L 320.097686 237.034289 
L 321.097686 237.10412 
L 322.097686 237.209353 
L 323.097686 237.264369 
L 324.097686 237.387844 
L 325.097686 237.458403 
L 326.097686 237.574242 
L 327.097686 237.624423 
L 328.097686 237.660027 
L 329.097686 237.751433 
L 330.097686 237.804941 
L 331.097686 237.89285 
L 332.097686 237.962035 
L 333.097686 238.008799 
L 334.097686 238.080843 
L 335.097686 238.130985 
L 336.097686 238.148374 
L 337.097686 238.175378 
L 338.097686 238.194805 
L 339.097686 238.214143 
L 340.097686 238.252391 
L 341.097686 238.268825 
L 342.097686 238.277194 
L 343.097686 238.281513 
L 344.097686 238.288068 
L 345.097686 238.285521 
L 346.097686 238.280063 
L 347.097686 238.263634 
L 348.097686 238.2317 
L 349.097686 238.193719 
L 350.097686 238.158915 
L 351.097686 238.095844 
L 352.097686 238.074417 
L 353.097686 238.023799 
L 354.097686 237.998841 
L 355.097686 237.943208 
L 356.097686 237.911979 
L 357.097686 237.861835 
L 358.097686 237.829342 
L 359.097686 237.748929 
L 360.097686 237.680004 
L 361.097686 237.564306 
L 362.097686 237.488827 
L 363.097686 237.373303 
L 364.097686 237.293818 
L 365.097686 237.185377 
L 366.097686 237.14601 
L 367.097686 237.043142 
L 368.097686 236.943344 
L 369.097686 236.897847 
L 370.097686 236.863524 
L 371.097686 236.811569 
L 372.097686 236.771922 
L 373.097686 236.736407 
L 374.097686 236.668762 
L 375.097686 236.629681 
L 376.097686 236.579199 
L 377.097686 236.529893 
L 378.097686 236.478824 
L 379.097686 236.434585 
L 380.097686 236.412565 
L 381.097686 236.397008 
L 382.097686 236.354562 
L 383.097686 236.339694 
L 384.097686 236.316966 
L 385.097686 236.29665 
L 386.097686 236.290853 
L 387.097686 236.28837 
L 388.097686 236.291428 
L 389.097686 236.303023 
L 390.097686 236.319944 
L 391.097686 236.351605 
L 392.097686 236.365688 
L 393.097686 236.41836 
L 394.097686 236.467449 
L 395.097686 236.52215 
L 396.097686 236.566498 
L 397.097686 236.63649 
L 398.097686 236.686872 
L 399.097686 236.740779 
L 400.097686 236.810219 
L 401.097686 236.867606 
L 402.097686 236.917772 
L 403.097686 236.994933 
L 404.097686 237.053123 
L 405.097686 237.113762 
L 406.097686 237.150963 
L 407.097686 237.216054 
L 408.097686 237.321184 
L 409.097686 237.381486 
L 410.097686 237.477808 
L 411.097686 237.509811 
L 412.097686 237.560829 
L 413.097686 237.677621 
L 414.097686 237.713067 
L 415.097686 237.768948 
L 416.097686 237.799323 
L 417.097686 237.887709 
L 418.097686 237.932474 
L 419.687678 238.013362 
" clip-path="url(#p219ceb0bc3)" style="fill: none; stroke: #ff7f0e; stroke-linecap: round"/>
          <path d="M 415.687678 235.288306 
L 416.568047 235.763637 
L 417.445954 236.243891 
L 418.296667 236.778532 
L 419.598842 237.465979 
L 418.671489 237.491994 
L 417.759814 237.904713 
L 416.84955 238.320252 
L 415.507054 238.927057 
L 416.161953 238.288306 
L 416.213917 237.288306 
L 416.273007 235.288306 
z
" clip-path="url(#p219ceb0bc3)" style="fill: #ffffff; stroke: #ffffff; stroke-width: 3; stroke-linecap: round"/>
          <path d="M 415.687678 235.288306 
L 416.568047 235.763637 
L 417.445954 236.243891 
L 418.296667 236.778532 
L 419.598842 237.465979 
L 418.671489 237.491994 
L 417.759814 237.904713 
L 416.84955 238.320252 
L 415.507054 238.927057 
L 416.161953 238.288306 
L 416.213917 237.288306 
L 416.273007 235.288306 
z
" clip-path="url(#p219ceb0bc3)" style="fill: #ffffff; stroke: #ff7f0e; stroke-linecap: round"/>
          <path d="M 458.184867 306.473612 
" clip-path="url(#p219ceb0bc3)" style="fill: none; stroke-dasharray: 3.7,1.6; stroke-dashoffset: 0; stroke: #2ca02c"/>
          <path d="M 457.184867 306.473612 
L 459.184867 307.473612 
L 459.184867 305.473612 
z
" clip-path="url(#p219ceb0bc3)" style="fill: #2ca02c; stroke: #2ca02c; stroke-linejoin: miter"/>
          <g id="patch_10">
           <path d="M 63.290625 321.621875 
L 63.290625 10.8 
" style="fill: none; stroke: #000000; stroke-width: 0.8; stroke-linejoin: miter; stroke-linecap: square"/>
          </g>
          <g id="text_11">
           <g id="patch_11">
            <path d="M 298.430421 126.269292 
L 319.735108 126.269292 
Q 321.735108 126.269292 321.735108 124.269292 
L 321.735108 114.591167 
Q 321.735108 112.591167 319.735108 112.591167 
L 298.430421 112.591167 
Q 296.430421 112.591167 296.430421 114.591167 
L 296.430421 124.269292 
Q 296.430421 126.269292 298.430421 126.269292 
z
" style="fill: #ffffff; opacity: 0.6"/>
           </g>
           <!-- ANC -->
           <g transform="translate(298.430421 122.189605) scale(0.1 -0.1)">
            <defs>
             <path id="DejaVuSans-4e" d="M 628 4666 
L 1478 4666 
L 3547 763 
L 3547 4666 
L 4159 4666 
L 4159 0 
L 3309 0 
L 1241 3903 
L 1241 0 
L 628 0 
L 628 4666 
z
" transform="scale(0.015625)"/>
            </defs>
            <use xlink:href="#DejaVuSans-41"/>
            <use xlink:href="#DejaVuSans-4e" x="68.408203"/>
            <use xlink:href="#DejaVuSans-43" x="143.212891"/>
           </g>
          </g>
         </g>
        </g>
        <defs>
         <clipPath id="p219ceb0bc3">
          <rect x="63.290625" y="10.8" width="540.309375" height="310.821875"/>
         </clipPath>
        </defs>
       </g>
      </g>
     </g>
    </g>
   </g>
  </g>
 </g>
</svg>
