<?xml version="1.0" encoding="utf-8" standalone="no"?>
<!DOCTYPE svg PUBLIC "-//W3C//DTD SVG 1.1//EN"
  "http://www.w3.org/Graphics/SVG/1.1/DTD/svg11.dtd">
<svg xmlns:xlink="http://www.w3.org/1999/xlink" width="614.4pt" height="345.6pt" viewBox="0 0 614.4 345.6" xmlns="http://www.w3.org/2000/svg" version="1.1">
 <metadata>
  <rdf:RDF xmlns:dc="http://purl.org/dc/elements/1.1/" xmlns:cc="http://creativecommons.org/ns#" xmlns:rdf="http://www.w3.org/1999/02/22-rdf-syntax-ns#">
   <cc:Work>
    <dc:type rdf:resource="http://purl.org/dc/dcmitype/StillImage"/>
    <dc:date>2024-04-17T19:40:08.536845</dc:date>
    <dc:format>image/svg+xml</dc:format>
    <dc:creator>
     <cc:Agent>
      <dc:title>Matplotlib v3.7.1, https://matplotlib.org/</dc:title>
     </cc:Agent>
    </dc:creator>
   </cc:Work>
  </rdf:RDF>
 </metadata>
 <defs>
  <style type="text/css">*{stroke-linejoin: round; stroke-linecap: butt}</style>
 </defs>
 <g id="figure_1">
  <g id="patch_1">
   <path d="M 0 345.6 
L 614.4 345.6 
L 614.4 0 
L 0 0 
z
" style="fill: #ffffff"/>
  </g>
  <g id="axes_1">
   <g id="patch_2">
    <path d="M 63.290625 321.621875 
L 603.6 321.621875 
L 603.6 10.8 
L 63.290625 10.8 
z
" style="fill: #ffffff"/>
   </g>
   <path d="M 557.918479 305.09038 
L 556.918479 305.058943 
L 555.918479 305.022003 
L 554.918479 304.924256 
L 553.918479 304.891735 
L 552.918479 304.81811 
L 551.918479 304.779544 
L 550.918479 304.744131 
L 549.918479 304.686491 
L 548.918479 304.616105 
L 547.918479 304.564141 
L 546.918479 304.505051 
L 545.918479 304.41673 
L 544.918479 304.370586 
L 543.918479 304.328175 
L 542.918479 304.297682 
L 541.918479 304.271637 
L 540.918479 304.250437 
L 539.918479 304.196136 
L 538.918479 304.168199 
L 537.918479 304.138475 
L 536.918479 304.11308 
L 535.918479 304.101879 
L 534.918479 304.091755 
L 533.918479 304.09196 
L 532.918479 304.10147 
L 531.918479 304.113123 
L 530.918479 304.144152 
L 529.918479 304.15532 
L 528.918479 304.185438 
L 527.918479 304.245215 
L 526.918479 304.282406 
L 525.918479 304.321502 
L 524.918479 304.363942 
L 523.918479 304.396707 
L 522.918479 304.464134 
L 521.918479 304.50326 
L 520.918479 304.545934 
L 519.918479 304.616515 
L 518.918479 304.652906 
L 517.918479 304.711309 
L 516.918479 304.822261 
L 515.918479 304.89292 
L 514.918479 305.00586 
L 513.918479 305.051632 
L 512.918479 305.112916 
L 511.918479 305.161415 
L 510.918479 305.242238 
L 509.918479 305.360757 
L 508.918479 305.430967 
L 507.918479 305.51423 
L 506.918479 305.547371 
L 505.918479 305.598609 
L 504.918479 305.667007 
L 503.918479 305.733223 
L 502.918479 305.81014 
L 501.918479 305.837455 
L 500.918479 305.863933 
L 499.918479 305.886583 
L 498.918479 305.906115 
L 497.918479 305.932508 
L 496.918479 305.982279 
L 495.918479 306.017352 
L 494.918479 306.053218 
L 493.918479 306.068585 
L 492.918479 306.084355 
L 491.918479 306.087767 
L 490.918479 306.090185 
L 489.918479 306.089699 
L 488.918479 306.087769 
L 487.918479 306.074512 
L 486.918479 306.066122 
L 485.918479 306.044585 
L 484.918479 306.021553 
L 483.918479 306.004319 
L 482.918479 305.985857 
L 481.918479 305.965404 
L 480.918479 305.948804 
L 479.918479 305.886026 
L 478.918479 305.810761 
L 477.918479 305.778121 
L 476.918479 305.710558 
L 475.918479 305.656511 
L 474.918479 305.622806 
L 473.918479 305.532681 
L 472.918479 305.504146 
L 471.918479 305.472659 
L 470.918479 305.441649 
L 469.918479 305.386841 
L 468.918479 305.322253 
L 467.918479 305.284058 
L 466.918479 305.188124 
L 465.918479 305.138866 
L 464.918479 305.094796 
L 463.918479 305.054673 
L 462.918479 304.946306 
L 461.918479 304.904677 
L 460.918479 304.842536 
L 459.918479 304.772574 
L 458.918479 304.668069 
L 457.918479 304.631082 
L 456.918479 304.585204 
L 455.918479 304.51671 
L 454.918479 304.467964 
L 453.918479 304.390366 
L 452.918479 304.359826 
L 451.918479 304.290311 
L 450.103233 304.266338 
" clip-path="url(#pbc6b4e8f8b)" style="fill: none; stroke-dasharray: 3.7,1.6; stroke-dashoffset: 0; stroke: #2ca02c"/>
   <g id="patch_3">
    <path d="M 262.131433 10.8 
L 262.131433 275.778421 
M 361.203918 10.8 
L 361.203918 275.778421 
" clip-path="url(#pbc6b4e8f8b)" style="fill: none; stroke: #ffffff; stroke-width: 3; stroke-linejoin: miter"/>
    <path d="M 262.131433 10.8 
L 262.131433 275.778421 
M 361.203918 10.8 
L 361.203918 275.778421 
" clip-path="url(#pbc6b4e8f8b)" style="fill: none; stroke: #1f77b4; stroke-linejoin: miter"/>
    <g id="PolyCollection_1">
     <path d="M 361.203918 10.8 
L 262.131433 10.8 
L 262.131433 275.778421 
L 361.203918 275.778421 
L 361.203918 275.778421 
L 361.203918 10.8 
z
" clip-path="url(#pbc6b4e8f8b)" style="fill: #1f77b4; fill-opacity: 0.5"/>
    </g>
    <g id="patch_4">
     <path d="M 103.398565 275.778421 
L 103.293358 316.152215 
L 100.636329 317.435911 
L 97.46546 318.719607 
L 93.681381 320.003302 
L 89.165502 321.286998 
L 87.850142 321.621875 
M 130.666757 275.778421 
L 130.771964 316.152215 
L 133.428993 317.435911 
L 136.599862 318.719607 
L 140.383941 320.003302 
L 144.89982 321.286998 
L 146.21518 321.621875 
L 146.21518 321.621875 
" clip-path="url(#pbc6b4e8f8b)" style="fill: none; stroke: #ffffff; stroke-width: 3; stroke-linejoin: miter"/>
     <path d="M 103.398565 275.778421 
L 103.293358 316.152215 
L 100.636329 317.435911 
L 97.46546 318.719607 
L 93.681381 320.003302 
L 89.165502 321.286998 
L 87.850142 321.621875 
M 130.666757 275.778421 
L 130.771964 316.152215 
L 133.428993 317.435911 
L 136.599862 318.719607 
L 140.383941 320.003302 
L 144.89982 321.286998 
L 146.21518 321.621875 
L 146.21518 321.621875 
" clip-path="url(#pbc6b4e8f8b)" style="fill: none; stroke: #ff7f0e; stroke-linejoin: miter"/>
     <g id="PolyCollection_2">
      <path d="M 130.666757 275.778421 
L 103.398565 275.778421 
L 103.398565 316.096402 
L 103.398565 316.096402 
L 103.293358 316.152215 
L 103.187339 316.208028 
L 103.080503 316.263841 
L 102.972842 316.319654 
L 102.86435 316.375467 
L 102.755021 316.431279 
L 102.644848 316.487092 
L 102.533825 316.542905 
L 102.421946 316.598718 
L 102.309203 316.654531 
L 102.19559 316.710344 
L 102.0811 316.766157 
L 101.965727 316.821969 
L 101.849464 316.877782 
L 101.732304 316.933595 
L 101.614239 316.989408 
L 101.495264 317.045221 
L 101.37537 317.101034 
L 101.254552 317.156847 
L 101.132801 317.212659 
L 101.01011 317.268472 
L 100.886473 317.324285 
L 100.761882 317.380098 
L 100.636329 317.435911 
L 100.509808 317.491724 
L 100.38231 317.547537 
L 100.253828 317.603349 
L 100.124355 317.659162 
L 99.993883 317.714975 
L 99.862404 317.770788 
L 99.729911 317.826601 
L 99.596395 317.882414 
L 99.461849 317.938227 
L 99.326265 317.994039 
L 99.189634 318.049852 
L 99.05195 318.105665 
L 98.913202 318.161478 
L 98.773384 318.217291 
L 98.632488 318.273104 
L 98.490504 318.328917 
L 98.347424 318.384729 
L 98.20324 318.440542 
L 98.057944 318.496355 
L 97.911527 318.552168 
L 97.763979 318.607981 
L 97.615294 318.663794 
L 97.46546 318.719607 
L 97.314471 318.775419 
L 97.162317 318.831232 
L 97.008988 318.887045 
L 96.854477 318.942858 
L 96.698773 318.998671 
L 96.541867 319.054484 
L 96.383751 319.110297 
L 96.224415 319.166109 
L 96.063849 319.221922 
L 95.902044 319.277735 
L 95.738991 319.333548 
L 95.574679 319.389361 
L 95.4091 319.445174 
L 95.242243 319.500987 
L 95.074098 319.556799 
L 94.904656 319.612612 
L 94.733906 319.668425 
L 94.561839 319.724238 
L 94.388444 319.780051 
L 94.213711 319.835864 
L 94.03763 319.891676 
L 93.86019 319.947489 
L 93.681381 320.003302 
L 93.501192 320.059115 
L 93.319613 320.114928 
L 93.136632 320.170741 
L 92.95224 320.226554 
L 92.766424 320.282366 
L 92.579175 320.338179 
L 92.390481 320.393992 
L 92.200331 320.449805 
L 92.008713 320.505618 
L 91.815617 320.561431 
L 91.621031 320.617244 
L 91.424944 320.673056 
L 91.227343 320.728869 
L 91.028218 320.784682 
L 90.827556 320.840495 
L 90.625345 320.896308 
L 90.421575 320.952121 
L 90.216232 321.007934 
L 90.009304 321.063746 
L 89.80078 321.119559 
L 89.590646 321.175372 
L 89.378891 321.231185 
L 89.165502 321.286998 
L 88.950467 321.342811 
L 88.733772 321.398624 
L 88.515405 321.454436 
L 88.295353 321.510249 
L 88.073603 321.566062 
L 87.850142 321.621875 
L 146.21518 321.621875 
L 146.21518 321.621875 
L 145.991719 321.566062 
L 145.769969 321.510249 
L 145.549917 321.454436 
L 145.33155 321.398624 
L 145.114855 321.342811 
L 144.89982 321.286998 
L 144.686431 321.231185 
L 144.474676 321.175372 
L 144.264543 321.119559 
L 144.056018 321.063746 
L 143.849091 321.007934 
L 143.643748 320.952121 
L 143.439977 320.896308 
L 143.237766 320.840495 
L 143.037104 320.784682 
L 142.837979 320.728869 
L 142.640378 320.673056 
L 142.444291 320.617244 
L 142.249705 320.561431 
L 142.056609 320.505618 
L 141.864991 320.449805 
L 141.674841 320.393992 
L 141.486147 320.338179 
L 141.298898 320.282366 
L 141.113083 320.226554 
L 140.92869 320.170741 
L 140.74571 320.114928 
L 140.56413 320.059115 
L 140.383941 320.003302 
L 140.205132 319.947489 
L 140.027692 319.891676 
L 139.851611 319.835864 
L 139.676878 319.780051 
L 139.503483 319.724238 
L 139.331416 319.668425 
L 139.160666 319.612612 
L 138.991224 319.556799 
L 138.823079 319.500987 
L 138.656222 319.445174 
L 138.490643 319.389361 
L 138.326331 319.333548 
L 138.163278 319.277735 
L 138.001473 319.221922 
L 137.840907 319.166109 
L 137.681571 319.110297 
L 137.523455 319.054484 
L 137.36655 318.998671 
L 137.210846 318.942858 
L 137.056334 318.887045 
L 136.903005 318.831232 
L 136.750851 318.775419 
L 136.599862 318.719607 
L 136.450029 318.663794 
L 136.301343 318.607981 
L 136.153796 318.552168 
L 136.007378 318.496355 
L 135.862082 318.440542 
L 135.717898 318.384729 
L 135.574819 318.328917 
L 135.432835 318.273104 
L 135.291938 318.217291 
L 135.15212 318.161478 
L 135.013373 318.105665 
L 134.875688 318.049852 
L 134.739057 317.994039 
L 134.603473 317.938227 
L 134.468927 317.882414 
L 134.335411 317.826601 
L 134.202918 317.770788 
L 134.071439 317.714975 
L 133.940967 317.659162 
L 133.811494 317.603349 
L 133.683012 317.547537 
L 133.555514 317.491724 
L 133.428993 317.435911 
L 133.30344 317.380098 
L 133.178849 317.324285 
L 133.055212 317.268472 
L 132.932521 317.212659 
L 132.81077 317.156847 
L 132.689952 317.101034 
L 132.570058 317.045221 
L 132.451083 316.989408 
L 132.333018 316.933595 
L 132.215858 316.877782 
L 132.099595 316.821969 
L 131.984222 316.766157 
L 131.869732 316.710344 
L 131.756119 316.654531 
L 131.643377 316.598718 
L 131.531497 316.542905 
L 131.420474 316.487092 
L 131.310302 316.431279 
L 131.200973 316.375467 
L 131.092481 316.319654 
L 130.98482 316.263841 
L 130.877983 316.208028 
L 130.771964 316.152215 
L 130.666757 316.096402 
L 130.666757 316.096402 
L 130.666757 275.778421 
z
" clip-path="url(#pbc6b4e8f8b)" style="fill: #ff7f0e; fill-opacity: 0.5"/>
     </g>
     <g id="patch_5">
      <path d="M 563.321573 72.964375 
L 563.321573 321.621875 
M 579.040483 72.964375 
L 579.040483 321.621875 
" clip-path="url(#pbc6b4e8f8b)" style="fill: none; stroke: #ffffff; stroke-width: 3; stroke-linejoin: miter"/>
      <path d="M 563.321573 72.964375 
L 563.321573 321.621875 
M 579.040483 72.964375 
L 579.040483 321.621875 
" clip-path="url(#pbc6b4e8f8b)" style="fill: none; stroke: #2ca02c; stroke-linejoin: miter"/>
      <g id="PolyCollection_3">
       <path d="M 579.040483 72.964375 
L 563.321573 72.964375 
L 563.321573 321.621875 
L 579.040483 321.621875 
L 579.040483 321.621875 
L 579.040483 72.964375 
z
" clip-path="url(#pbc6b4e8f8b)" style="fill: #2ca02c; fill-opacity: 0.5"/>
      </g>
      <g id="patch_6">
       <path d="M 438.148564 281.730658 
L 438.148564 298.037541 
L 441.017618 298.037541 
L 441.017618 298.700148 
L 438.148564 298.700148 
L 438.042573 306.680365 
L 437.061393 307.90008 
L 435.795536 309.119795 
L 434.39001 310.187046 
L 432.633522 311.254297 
L 430.438436 312.321548 
L 427.695232 313.388798 
L 424.267046 314.456049 
L 419.982835 315.5233 
L 414.628849 316.59055 
L 407.937962 317.657801 
L 399.576349 318.725052 
L 389.126825 319.792302 
L 376.068036 320.859553 
L 364.787968 321.621875 
M 444.700139 281.730658 
L 444.700139 298.037541 
L 441.831085 298.037541 
L 441.831085 298.700148 
L 444.700139 298.700148 
L 444.806131 306.680365 
L 445.787311 307.90008 
L 447.053168 309.119795 
L 448.458693 310.187046 
L 450.215181 311.254297 
L 452.410268 312.321548 
L 455.153471 313.388798 
L 458.581658 314.456049 
L 462.865869 315.5233 
L 468.219855 316.59055 
L 474.910742 317.657801 
L 483.272355 318.725052 
L 493.721879 319.792302 
L 506.780668 320.859553 
L 518.060735 321.621875 
L 518.060735 321.621875 
" clip-path="url(#pbc6b4e8f8b)" style="fill: none; stroke: #ffffff; stroke-width: 3; stroke-linejoin: miter"/>
       <path d="M 438.148564 281.730658 
L 438.148564 298.037541 
L 441.017618 298.037541 
L 441.017618 298.700148 
L 438.148564 298.700148 
L 438.042573 306.680365 
L 437.061393 307.90008 
L 435.795536 309.119795 
L 434.39001 310.187046 
L 432.633522 311.254297 
L 430.438436 312.321548 
L 427.695232 313.388798 
L 424.267046 314.456049 
L 419.982835 315.5233 
L 414.628849 316.59055 
L 407.937962 317.657801 
L 399.576349 318.725052 
L 389.126825 319.792302 
L 376.068036 320.859553 
L 364.787968 321.621875 
M 444.700139 281.730658 
L 444.700139 298.037541 
L 441.831085 298.037541 
L 441.831085 298.700148 
L 444.700139 298.700148 
L 444.806131 306.680365 
L 445.787311 307.90008 
L 447.053168 309.119795 
L 448.458693 310.187046 
L 450.215181 311.254297 
L 452.410268 312.321548 
L 455.153471 313.388798 
L 458.581658 314.456049 
L 462.865869 315.5233 
L 468.219855 316.59055 
L 474.910742 317.657801 
L 483.272355 318.725052 
L 493.721879 319.792302 
L 506.780668 320.859553 
L 518.060735 321.621875 
L 518.060735 321.621875 
" clip-path="url(#pbc6b4e8f8b)" style="fill: none; stroke: #d62728; stroke-linejoin: miter"/>
       <g id="PolyCollection_4">
        <path d="M 444.700139 281.730658 
L 438.148564 281.730658 
L 438.148564 298.037541 
L 441.017618 298.037541 
L 441.017618 298.700148 
L 438.148564 298.700148 
L 438.148564 306.527901 
L 438.148564 306.527901 
L 438.042573 306.680365 
L 437.933152 306.83283 
L 437.820191 306.985294 
L 437.703574 307.137758 
L 437.583185 307.290223 
L 437.4589 307.442687 
L 437.330594 307.595152 
L 437.198136 307.747616 
L 437.061393 307.90008 
L 436.920225 308.052545 
L 436.774489 308.205009 
L 436.624038 308.357474 
L 436.468719 308.509938 
L 436.308375 308.662402 
L 436.142842 308.814867 
L 435.971954 308.967331 
L 435.795536 309.119795 
L 435.61341 309.27226 
L 435.425391 309.424724 
L 435.231289 309.577189 
L 435.030906 309.729653 
L 434.82404 309.882117 
L 434.61048 310.034582 
L 434.39001 310.187046 
L 434.162407 310.339511 
L 433.92744 310.491975 
L 433.68487 310.644439 
L 433.434451 310.796904 
L 433.17593 310.949368 
L 432.909044 311.101832 
L 432.633522 311.254297 
L 432.349086 311.406761 
L 432.055447 311.559226 
L 431.752307 311.71169 
L 431.439358 311.864154 
L 431.116283 312.016619 
L 430.782755 312.169083 
L 430.438436 312.321548 
L 430.082976 312.474012 
L 429.716014 312.626476 
L 429.337179 312.778941 
L 428.946086 312.931405 
L 428.54234 313.083869 
L 428.125529 313.236334 
L 427.695232 313.388798 
L 427.251013 313.541263 
L 426.79242 313.693727 
L 426.31899 313.846191 
L 425.83024 313.998656 
L 425.325677 314.15112 
L 424.804789 314.303585 
L 424.267046 314.456049 
L 423.711904 314.608513 
L 423.1388 314.760978 
L 422.547153 314.913442 
L 421.936362 315.065906 
L 421.305809 315.218371 
L 420.654853 315.370835 
L 419.982835 315.5233 
L 419.289073 315.675764 
L 418.572864 315.828228 
L 417.833481 315.980693 
L 417.070175 316.133157 
L 416.282171 316.285622 
L 415.468671 316.438086 
L 414.628849 316.59055 
L 413.761853 316.743015 
L 412.866805 316.895479 
L 411.942797 317.047943 
L 410.988892 317.200408 
L 410.004122 317.352872 
L 408.987489 317.505337 
L 407.937962 317.657801 
L 406.854476 317.810265 
L 405.735933 317.96273 
L 404.581199 318.115194 
L 403.389102 318.267659 
L 402.158433 318.420123 
L 400.887945 318.572587 
L 399.576349 318.725052 
L 398.222314 318.877516 
L 396.824469 319.02998 
L 395.381395 319.182445 
L 393.891629 319.334909 
L 392.35366 319.487374 
L 390.765929 319.639838 
L 389.126825 319.792302 
L 387.434686 319.944767 
L 385.687796 320.097231 
L 383.884384 320.249696 
L 382.022621 320.40216 
L 380.100618 320.554624 
L 378.116427 320.707089 
L 376.068036 320.859553 
L 373.953367 321.012017 
L 371.770275 321.164482 
L 369.516548 321.316946 
L 367.189899 321.469411 
L 364.787968 321.621875 
L 518.060735 321.621875 
L 518.060735 321.621875 
L 515.658805 321.469411 
L 513.332156 321.316946 
L 511.078428 321.164482 
L 508.895337 321.012017 
L 506.780668 320.859553 
L 504.732276 320.707089 
L 502.748085 320.554624 
L 500.826083 320.40216 
L 498.964319 320.249696 
L 497.160907 320.097231 
L 495.414018 319.944767 
L 493.721879 319.792302 
L 492.082775 319.639838 
L 490.495043 319.487374 
L 488.957074 319.334909 
L 487.467308 319.182445 
L 486.024234 319.02998 
L 484.626389 318.877516 
L 483.272355 318.725052 
L 481.960759 318.572587 
L 480.690271 318.420123 
L 479.459602 318.267659 
L 478.267505 318.115194 
L 477.11277 317.96273 
L 475.994227 317.810265 
L 474.910742 317.657801 
L 473.861214 317.505337 
L 472.844581 317.352872 
L 471.859811 317.200408 
L 470.905906 317.047943 
L 469.981898 316.895479 
L 469.08685 316.743015 
L 468.219855 316.59055 
L 467.380033 316.438086 
L 466.566532 316.285622 
L 465.778529 316.133157 
L 465.015222 315.980693 
L 464.275839 315.828228 
L 463.55963 315.675764 
L 462.865869 315.5233 
L 462.193851 315.370835 
L 461.542895 315.218371 
L 460.912341 315.065906 
L 460.301551 314.913442 
L 459.709903 314.760978 
L 459.136799 314.608513 
L 458.581658 314.456049 
L 458.043915 314.303585 
L 457.523026 314.15112 
L 457.018463 313.998656 
L 456.529714 313.846191 
L 456.056283 313.693727 
L 455.597691 313.541263 
L 455.153471 313.388798 
L 454.723174 313.236334 
L 454.306364 313.083869 
L 453.902617 312.931405 
L 453.511525 312.778941 
L 453.13269 312.626476 
L 452.765728 312.474012 
L 452.410268 312.321548 
L 452.065948 312.169083 
L 451.73242 312.016619 
L 451.409346 311.864154 
L 451.096397 311.71169 
L 450.793257 311.559226 
L 450.499617 311.406761 
L 450.215181 311.254297 
L 449.93966 311.101832 
L 449.672774 310.949368 
L 449.414253 310.796904 
L 449.163834 310.644439 
L 448.921264 310.491975 
L 448.686296 310.339511 
L 448.458693 310.187046 
L 448.238224 310.034582 
L 448.024664 309.882117 
L 447.817797 309.729653 
L 447.617415 309.577189 
L 447.423312 309.424724 
L 447.235293 309.27226 
L 447.053168 309.119795 
L 446.87675 308.967331 
L 446.705861 308.814867 
L 446.540329 308.662402 
L 446.379984 308.509938 
L 446.224665 308.357474 
L 446.074214 308.205009 
L 445.928479 308.052545 
L 445.787311 307.90008 
L 445.650567 307.747616 
L 445.51811 307.595152 
L 445.389804 307.442687 
L 445.265519 307.290223 
L 445.145129 307.137758 
L 445.028513 306.985294 
L 444.915552 306.83283 
L 444.806131 306.680365 
L 444.700139 306.527901 
L 444.700139 306.527901 
L 444.700139 298.700148 
L 441.831085 298.700148 
L 441.831085 298.037541 
L 444.700139 298.037541 
L 444.700139 281.730658 
z
" clip-path="url(#pbc6b4e8f8b)" style="fill: #d62728; fill-opacity: 0.5"/>
       </g>
       <g id="matplotlib.axis_1">
        <g id="xtick_1">
         <g id="line2d_1"/>
         <g id="text_1">
          <!-- OUT -->
          <g transform="translate(106.383442 332.720312) scale(0.1 -0.1)">
           <defs>
            <path id="DejaVuSans-4f" d="M 2522 4238 
Q 1834 4238 1429 3725 
Q 1025 3213 1025 2328 
Q 1025 1447 1429 934 
Q 1834 422 2522 422 
Q 3209 422 3611 934 
Q 4013 1447 4013 2328 
Q 4013 3213 3611 3725 
Q 3209 4238 2522 4238 
z
M 2522 4750 
Q 3503 4750 4090 4092 
Q 4678 3434 4678 2328 
Q 4678 1225 4090 567 
Q 3503 -91 2522 -91 
Q 1538 -91 948 565 
Q 359 1222 359 2328 
Q 359 3434 948 4092 
Q 1538 4750 2522 4750 
z
" transform="scale(0.015625)"/>
            <path id="DejaVuSans-55" d="M 556 4666 
L 1191 4666 
L 1191 1831 
Q 1191 1081 1462 751 
Q 1734 422 2344 422 
Q 2950 422 3222 751 
Q 3494 1081 3494 1831 
L 3494 4666 
L 4128 4666 
L 4128 1753 
Q 4128 841 3676 375 
Q 3225 -91 2344 -91 
Q 1459 -91 1007 375 
Q 556 841 556 1753 
L 556 4666 
z
" transform="scale(0.015625)"/>
            <path id="DejaVuSans-54" d="M -19 4666 
L 3928 4666 
L 3928 4134 
L 2272 4134 
L 2272 0 
L 1638 0 
L 1638 4134 
L -19 4134 
L -19 4666 
z
" transform="scale(0.015625)"/>
           </defs>
           <use xlink:href="#DejaVuSans-4f"/>
           <use xlink:href="#DejaVuSans-55" x="78.710938"/>
           <use xlink:href="#DejaVuSans-54" x="151.904297"/>
          </g>
         </g>
        </g>
        <g id="xtick_2">
         <g id="line2d_2"/>
         <g id="text_2">
          <!-- SRC -->
          <g transform="translate(561.291184 332.720312) scale(0.1 -0.1)">
           <defs>
            <path id="DejaVuSans-53" d="M 3425 4513 
L 3425 3897 
Q 3066 4069 2747 4153 
Q 2428 4238 2131 4238 
Q 1616 4238 1336 4038 
Q 1056 3838 1056 3469 
Q 1056 3159 1242 3001 
Q 1428 2844 1947 2747 
L 2328 2669 
Q 3034 2534 3370 2195 
Q 3706 1856 3706 1288 
Q 3706 609 3251 259 
Q 2797 -91 1919 -91 
Q 1588 -91 1214 -16 
Q 841 59 441 206 
L 441 856 
Q 825 641 1194 531 
Q 1563 422 1919 422 
Q 2459 422 2753 634 
Q 3047 847 3047 1241 
Q 3047 1584 2836 1778 
Q 2625 1972 2144 2069 
L 1759 2144 
Q 1053 2284 737 2584 
Q 422 2884 422 3419 
Q 422 4038 858 4394 
Q 1294 4750 2059 4750 
Q 2388 4750 2728 4690 
Q 3069 4631 3425 4513 
z
" transform="scale(0.015625)"/>
            <path id="DejaVuSans-52" d="M 2841 2188 
Q 3044 2119 3236 1894 
Q 3428 1669 3622 1275 
L 4263 0 
L 3584 0 
L 2988 1197 
Q 2756 1666 2539 1819 
Q 2322 1972 1947 1972 
L 1259 1972 
L 1259 0 
L 628 0 
L 628 4666 
L 2053 4666 
Q 2853 4666 3247 4331 
Q 3641 3997 3641 3322 
Q 3641 2881 3436 2590 
Q 3231 2300 2841 2188 
z
M 1259 4147 
L 1259 2491 
L 2053 2491 
Q 2509 2491 2742 2702 
Q 2975 2913 2975 3322 
Q 2975 3731 2742 3939 
Q 2509 4147 2053 4147 
L 1259 4147 
z
" transform="scale(0.015625)"/>
            <path id="DejaVuSans-43" d="M 4122 4306 
L 4122 3641 
Q 3803 3938 3442 4084 
Q 3081 4231 2675 4231 
Q 1875 4231 1450 3742 
Q 1025 3253 1025 2328 
Q 1025 1406 1450 917 
Q 1875 428 2675 428 
Q 3081 428 3442 575 
Q 3803 722 4122 1019 
L 4122 359 
Q 3791 134 3420 21 
Q 3050 -91 2638 -91 
Q 1578 -91 968 557 
Q 359 1206 359 2328 
Q 359 3453 968 4101 
Q 1578 4750 2638 4750 
Q 3056 4750 3426 4639 
Q 3797 4528 4122 4306 
z
" transform="scale(0.015625)"/>
           </defs>
           <use xlink:href="#DejaVuSans-53"/>
           <use xlink:href="#DejaVuSans-52" x="63.476562"/>
           <use xlink:href="#DejaVuSans-43" x="127.958984"/>
          </g>
         </g>
        </g>
        <g id="xtick_3">
         <g id="line2d_3"/>
         <g id="text_3">
          <!-- TAR -->
          <g transform="translate(431.863414 332.720312) scale(0.1 -0.1)">
           <defs>
            <path id="DejaVuSans-41" d="M 2188 4044 
L 1331 1722 
L 3047 1722 
L 2188 4044 
z
M 1831 4666 
L 2547 4666 
L 4325 0 
L 3669 0 
L 3244 1197 
L 1141 1197 
L 716 0 
L 50 0 
L 1831 4666 
z
" transform="scale(0.015625)"/>
           </defs>
           <use xlink:href="#DejaVuSans-54"/>
           <use xlink:href="#DejaVuSans-41" x="53.333984"/>
           <use xlink:href="#DejaVuSans-52" x="121.742188"/>
          </g>
         </g>
        </g>
       </g>
       <g id="matplotlib.axis_2">
        <g id="ytick_1">
         <g id="line2d_4">
          <defs>
           <path id="mdce29cd1fb" d="M 0 0 
L -3.5 0 
" style="stroke: #000000; stroke-width: 0.8"/>
          </defs>
          <g>
           <use xlink:href="#mdce29cd1fb" x="63.290625" y="321.621875" style="stroke: #000000; stroke-width: 0.8"/>
          </g>
         </g>
         <g id="text_4">
          <!-- 0 -->
          <g transform="translate(49.928125 325.421094) scale(0.1 -0.1)">
           <defs>
            <path id="DejaVuSans-30" d="M 2034 4250 
Q 1547 4250 1301 3770 
Q 1056 3291 1056 2328 
Q 1056 1369 1301 889 
Q 1547 409 2034 409 
Q 2525 409 2770 889 
Q 3016 1369 3016 2328 
Q 3016 3291 2770 3770 
Q 2525 4250 2034 4250 
z
M 2034 4750 
Q 2819 4750 3233 4129 
Q 3647 3509 3647 2328 
Q 3647 1150 3233 529 
Q 2819 -91 2034 -91 
Q 1250 -91 836 529 
Q 422 1150 422 2328 
Q 422 3509 836 4129 
Q 1250 4750 2034 4750 
z
" transform="scale(0.015625)"/>
           </defs>
           <use xlink:href="#DejaVuSans-30"/>
          </g>
         </g>
        </g>
        <g id="ytick_2">
         <g id="line2d_5">
          <g>
           <use xlink:href="#mdce29cd1fb" x="63.290625" y="265.468698" style="stroke: #000000; stroke-width: 0.8"/>
          </g>
         </g>
         <g id="text_5">
          <!-- 5000 -->
          <g transform="translate(30.840625 269.267916) scale(0.1 -0.1)">
           <defs>
            <path id="DejaVuSans-35" d="M 691 4666 
L 3169 4666 
L 3169 4134 
L 1269 4134 
L 1269 2991 
Q 1406 3038 1543 3061 
Q 1681 3084 1819 3084 
Q 2600 3084 3056 2656 
Q 3513 2228 3513 1497 
Q 3513 744 3044 326 
Q 2575 -91 1722 -91 
Q 1428 -91 1123 -41 
Q 819 9 494 109 
L 494 744 
Q 775 591 1075 516 
Q 1375 441 1709 441 
Q 2250 441 2565 725 
Q 2881 1009 2881 1497 
Q 2881 1984 2565 2268 
Q 2250 2553 1709 2553 
Q 1456 2553 1204 2497 
Q 953 2441 691 2322 
L 691 4666 
z
" transform="scale(0.015625)"/>
           </defs>
           <use xlink:href="#DejaVuSans-35"/>
           <use xlink:href="#DejaVuSans-30" x="63.623047"/>
           <use xlink:href="#DejaVuSans-30" x="127.246094"/>
           <use xlink:href="#DejaVuSans-30" x="190.869141"/>
          </g>
         </g>
        </g>
        <g id="ytick_3">
         <g id="line2d_6">
          <g>
           <use xlink:href="#mdce29cd1fb" x="63.290625" y="209.31552" style="stroke: #000000; stroke-width: 0.8"/>
          </g>
         </g>
         <g id="text_6">
          <!-- 10000 -->
          <g transform="translate(24.478125 213.114739) scale(0.1 -0.1)">
           <defs>
            <path id="DejaVuSans-31" d="M 794 531 
L 1825 531 
L 1825 4091 
L 703 3866 
L 703 4441 
L 1819 4666 
L 2450 4666 
L 2450 531 
L 3481 531 
L 3481 0 
L 794 0 
L 794 531 
z
" transform="scale(0.015625)"/>
           </defs>
           <use xlink:href="#DejaVuSans-31"/>
           <use xlink:href="#DejaVuSans-30" x="63.623047"/>
           <use xlink:href="#DejaVuSans-30" x="127.246094"/>
           <use xlink:href="#DejaVuSans-30" x="190.869141"/>
           <use xlink:href="#DejaVuSans-30" x="254.492188"/>
          </g>
         </g>
        </g>
        <g id="ytick_4">
         <g id="line2d_7">
          <g>
           <use xlink:href="#mdce29cd1fb" x="63.290625" y="153.162343" style="stroke: #000000; stroke-width: 0.8"/>
          </g>
         </g>
         <g id="text_7">
          <!-- 15000 -->
          <g transform="translate(24.478125 156.961562) scale(0.1 -0.1)">
           <use xlink:href="#DejaVuSans-31"/>
           <use xlink:href="#DejaVuSans-35" x="63.623047"/>
           <use xlink:href="#DejaVuSans-30" x="127.246094"/>
           <use xlink:href="#DejaVuSans-30" x="190.869141"/>
           <use xlink:href="#DejaVuSans-30" x="254.492188"/>
          </g>
         </g>
        </g>
        <g id="ytick_5">
         <g id="line2d_8">
          <g>
           <use xlink:href="#mdce29cd1fb" x="63.290625" y="97.009166" style="stroke: #000000; stroke-width: 0.8"/>
          </g>
         </g>
         <g id="text_8">
          <!-- 20000 -->
          <g transform="translate(24.478125 100.808384) scale(0.1 -0.1)">
           <defs>
            <path id="DejaVuSans-32" d="M 1228 531 
L 3431 531 
L 3431 0 
L 469 0 
L 469 531 
Q 828 903 1448 1529 
Q 2069 2156 2228 2338 
Q 2531 2678 2651 2914 
Q 2772 3150 2772 3378 
Q 2772 3750 2511 3984 
Q 2250 4219 1831 4219 
Q 1534 4219 1204 4116 
Q 875 4013 500 3803 
L 500 4441 
Q 881 4594 1212 4672 
Q 1544 4750 1819 4750 
Q 2544 4750 2975 4387 
Q 3406 4025 3406 3419 
Q 3406 3131 3298 2873 
Q 3191 2616 2906 2266 
Q 2828 2175 2409 1742 
Q 1991 1309 1228 531 
z
" transform="scale(0.015625)"/>
           </defs>
           <use xlink:href="#DejaVuSans-32"/>
           <use xlink:href="#DejaVuSans-30" x="63.623047"/>
           <use xlink:href="#DejaVuSans-30" x="127.246094"/>
           <use xlink:href="#DejaVuSans-30" x="190.869141"/>
           <use xlink:href="#DejaVuSans-30" x="254.492188"/>
          </g>
         </g>
        </g>
        <g id="ytick_6">
         <g id="line2d_9">
          <g>
           <use xlink:href="#mdce29cd1fb" x="63.290625" y="40.855988" style="stroke: #000000; stroke-width: 0.8"/>
          </g>
         </g>
         <g id="text_9">
          <!-- 25000 -->
          <g transform="translate(24.478125 44.655207) scale(0.1 -0.1)">
           <use xlink:href="#DejaVuSans-32"/>
           <use xlink:href="#DejaVuSans-35" x="63.623047"/>
           <use xlink:href="#DejaVuSans-30" x="127.246094"/>
           <use xlink:href="#DejaVuSans-30" x="190.869141"/>
           <use xlink:href="#DejaVuSans-30" x="254.492188"/>
          </g>
         </g>
        </g>
        <g id="text_10">
         <!-- time ago (generations) -->
         <g transform="translate(18.398438 223.682031) rotate(-90) scale(0.1 -0.1)">
          <defs>
           <path id="DejaVuSans-74" d="M 1172 4494 
L 1172 3500 
L 2356 3500 
L 2356 3053 
L 1172 3053 
L 1172 1153 
Q 1172 725 1289 603 
Q 1406 481 1766 481 
L 2356 481 
L 2356 0 
L 1766 0 
Q 1100 0 847 248 
Q 594 497 594 1153 
L 594 3053 
L 172 3053 
L 172 3500 
L 594 3500 
L 594 4494 
L 1172 4494 
z
" transform="scale(0.015625)"/>
           <path id="DejaVuSans-69" d="M 603 3500 
L 1178 3500 
L 1178 0 
L 603 0 
L 603 3500 
z
M 603 4863 
L 1178 4863 
L 1178 4134 
L 603 4134 
L 603 4863 
z
" transform="scale(0.015625)"/>
           <path id="DejaVuSans-6d" d="M 3328 2828 
Q 3544 3216 3844 3400 
Q 4144 3584 4550 3584 
Q 5097 3584 5394 3201 
Q 5691 2819 5691 2113 
L 5691 0 
L 5113 0 
L 5113 2094 
Q 5113 2597 4934 2840 
Q 4756 3084 4391 3084 
Q 3944 3084 3684 2787 
Q 3425 2491 3425 1978 
L 3425 0 
L 2847 0 
L 2847 2094 
Q 2847 2600 2669 2842 
Q 2491 3084 2119 3084 
Q 1678 3084 1418 2786 
Q 1159 2488 1159 1978 
L 1159 0 
L 581 0 
L 581 3500 
L 1159 3500 
L 1159 2956 
Q 1356 3278 1631 3431 
Q 1906 3584 2284 3584 
Q 2666 3584 2933 3390 
Q 3200 3197 3328 2828 
z
" transform="scale(0.015625)"/>
           <path id="DejaVuSans-65" d="M 3597 1894 
L 3597 1613 
L 953 1613 
Q 991 1019 1311 708 
Q 1631 397 2203 397 
Q 2534 397 2845 478 
Q 3156 559 3463 722 
L 3463 178 
Q 3153 47 2828 -22 
Q 2503 -91 2169 -91 
Q 1331 -91 842 396 
Q 353 884 353 1716 
Q 353 2575 817 3079 
Q 1281 3584 2069 3584 
Q 2775 3584 3186 3129 
Q 3597 2675 3597 1894 
z
M 3022 2063 
Q 3016 2534 2758 2815 
Q 2500 3097 2075 3097 
Q 1594 3097 1305 2825 
Q 1016 2553 972 2059 
L 3022 2063 
z
" transform="scale(0.015625)"/>
           <path id="DejaVuSans-20" transform="scale(0.015625)"/>
           <path id="DejaVuSans-61" d="M 2194 1759 
Q 1497 1759 1228 1600 
Q 959 1441 959 1056 
Q 959 750 1161 570 
Q 1363 391 1709 391 
Q 2188 391 2477 730 
Q 2766 1069 2766 1631 
L 2766 1759 
L 2194 1759 
z
M 3341 1997 
L 3341 0 
L 2766 0 
L 2766 531 
Q 2569 213 2275 61 
Q 1981 -91 1556 -91 
Q 1019 -91 701 211 
Q 384 513 384 1019 
Q 384 1609 779 1909 
Q 1175 2209 1959 2209 
L 2766 2209 
L 2766 2266 
Q 2766 2663 2505 2880 
Q 2244 3097 1772 3097 
Q 1472 3097 1187 3025 
Q 903 2953 641 2809 
L 641 3341 
Q 956 3463 1253 3523 
Q 1550 3584 1831 3584 
Q 2591 3584 2966 3190 
Q 3341 2797 3341 1997 
z
" transform="scale(0.015625)"/>
           <path id="DejaVuSans-67" d="M 2906 1791 
Q 2906 2416 2648 2759 
Q 2391 3103 1925 3103 
Q 1463 3103 1205 2759 
Q 947 2416 947 1791 
Q 947 1169 1205 825 
Q 1463 481 1925 481 
Q 2391 481 2648 825 
Q 2906 1169 2906 1791 
z
M 3481 434 
Q 3481 -459 3084 -895 
Q 2688 -1331 1869 -1331 
Q 1566 -1331 1297 -1286 
Q 1028 -1241 775 -1147 
L 775 -588 
Q 1028 -725 1275 -790 
Q 1522 -856 1778 -856 
Q 2344 -856 2625 -561 
Q 2906 -266 2906 331 
L 2906 616 
Q 2728 306 2450 153 
Q 2172 0 1784 0 
Q 1141 0 747 490 
Q 353 981 353 1791 
Q 353 2603 747 3093 
Q 1141 3584 1784 3584 
Q 2172 3584 2450 3431 
Q 2728 3278 2906 2969 
L 2906 3500 
L 3481 3500 
L 3481 434 
z
" transform="scale(0.015625)"/>
           <path id="DejaVuSans-6f" d="M 1959 3097 
Q 1497 3097 1228 2736 
Q 959 2375 959 1747 
Q 959 1119 1226 758 
Q 1494 397 1959 397 
Q 2419 397 2687 759 
Q 2956 1122 2956 1747 
Q 2956 2369 2687 2733 
Q 2419 3097 1959 3097 
z
M 1959 3584 
Q 2709 3584 3137 3096 
Q 3566 2609 3566 1747 
Q 3566 888 3137 398 
Q 2709 -91 1959 -91 
Q 1206 -91 779 398 
Q 353 888 353 1747 
Q 353 2609 779 3096 
Q 1206 3584 1959 3584 
z
" transform="scale(0.015625)"/>
           <path id="DejaVuSans-28" d="M 1984 4856 
Q 1566 4138 1362 3434 
Q 1159 2731 1159 2009 
Q 1159 1288 1364 580 
Q 1569 -128 1984 -844 
L 1484 -844 
Q 1016 -109 783 600 
Q 550 1309 550 2009 
Q 550 2706 781 3412 
Q 1013 4119 1484 4856 
L 1984 4856 
z
" transform="scale(0.015625)"/>
           <path id="DejaVuSans-6e" d="M 3513 2113 
L 3513 0 
L 2938 0 
L 2938 2094 
Q 2938 2591 2744 2837 
Q 2550 3084 2163 3084 
Q 1697 3084 1428 2787 
Q 1159 2491 1159 1978 
L 1159 0 
L 581 0 
L 581 3500 
L 1159 3500 
L 1159 2956 
Q 1366 3272 1645 3428 
Q 1925 3584 2291 3584 
Q 2894 3584 3203 3211 
Q 3513 2838 3513 2113 
z
" transform="scale(0.015625)"/>
           <path id="DejaVuSans-72" d="M 2631 2963 
Q 2534 3019 2420 3045 
Q 2306 3072 2169 3072 
Q 1681 3072 1420 2755 
Q 1159 2438 1159 1844 
L 1159 0 
L 581 0 
L 581 3500 
L 1159 3500 
L 1159 2956 
Q 1341 3275 1631 3429 
Q 1922 3584 2338 3584 
Q 2397 3584 2469 3576 
Q 2541 3569 2628 3553 
L 2631 2963 
z
" transform="scale(0.015625)"/>
           <path id="DejaVuSans-73" d="M 2834 3397 
L 2834 2853 
Q 2591 2978 2328 3040 
Q 2066 3103 1784 3103 
Q 1356 3103 1142 2972 
Q 928 2841 928 2578 
Q 928 2378 1081 2264 
Q 1234 2150 1697 2047 
L 1894 2003 
Q 2506 1872 2764 1633 
Q 3022 1394 3022 966 
Q 3022 478 2636 193 
Q 2250 -91 1575 -91 
Q 1294 -91 989 -36 
Q 684 19 347 128 
L 347 722 
Q 666 556 975 473 
Q 1284 391 1588 391 
Q 1994 391 2212 530 
Q 2431 669 2431 922 
Q 2431 1156 2273 1281 
Q 2116 1406 1581 1522 
L 1381 1569 
Q 847 1681 609 1914 
Q 372 2147 372 2553 
Q 372 3047 722 3315 
Q 1072 3584 1716 3584 
Q 2034 3584 2315 3537 
Q 2597 3491 2834 3397 
z
" transform="scale(0.015625)"/>
           <path id="DejaVuSans-29" d="M 513 4856 
L 1013 4856 
Q 1481 4119 1714 3412 
Q 1947 2706 1947 2009 
Q 1947 1309 1714 600 
Q 1481 -109 1013 -844 
L 513 -844 
Q 928 -128 1133 580 
Q 1338 1288 1338 2009 
Q 1338 2731 1133 3434 
Q 928 4138 513 4856 
z
" transform="scale(0.015625)"/>
          </defs>
          <use xlink:href="#DejaVuSans-74"/>
          <use xlink:href="#DejaVuSans-69" x="39.208984"/>
          <use xlink:href="#DejaVuSans-6d" x="66.992188"/>
          <use xlink:href="#DejaVuSans-65" x="164.404297"/>
          <use xlink:href="#DejaVuSans-20" x="225.927734"/>
          <use xlink:href="#DejaVuSans-61" x="257.714844"/>
          <use xlink:href="#DejaVuSans-67" x="318.994141"/>
          <use xlink:href="#DejaVuSans-6f" x="382.470703"/>
          <use xlink:href="#DejaVuSans-20" x="443.652344"/>
          <use xlink:href="#DejaVuSans-28" x="475.439453"/>
          <use xlink:href="#DejaVuSans-67" x="514.453125"/>
          <use xlink:href="#DejaVuSans-65" x="577.929688"/>
          <use xlink:href="#DejaVuSans-6e" x="639.453125"/>
          <use xlink:href="#DejaVuSans-65" x="702.832031"/>
          <use xlink:href="#DejaVuSans-72" x="764.355469"/>
          <use xlink:href="#DejaVuSans-61" x="805.46875"/>
          <use xlink:href="#DejaVuSans-74" x="866.748047"/>
          <use xlink:href="#DejaVuSans-69" x="905.957031"/>
          <use xlink:href="#DejaVuSans-6f" x="933.740234"/>
          <use xlink:href="#DejaVuSans-6e" x="994.921875"/>
          <use xlink:href="#DejaVuSans-73" x="1058.300781"/>
          <use xlink:href="#DejaVuSans-29" x="1110.400391"/>
         </g>
        </g>
       </g>
       <g id="patch_7">
        <path d="M 260.129453 275.778421 
L 259.129453 275.746985 
L 258.129453 275.710044 
L 257.129453 275.612298 
L 256.129453 275.579776 
L 255.129453 275.506151 
L 254.129453 275.467586 
L 253.129453 275.432173 
L 252.129453 275.374533 
L 251.129453 275.304147 
L 250.129453 275.252182 
L 249.129453 275.193093 
L 248.129453 275.104772 
L 247.129453 275.058627 
L 246.129453 275.016216 
L 245.129453 274.985724 
L 244.129453 274.959679 
L 243.129453 274.938479 
L 242.129453 274.884178 
L 241.129453 274.85624 
L 240.129453 274.826516 
L 239.129453 274.801121 
L 238.129453 274.789921 
L 237.129453 274.779797 
L 236.129453 274.780001 
L 235.129453 274.789511 
L 234.129453 274.801165 
L 233.129453 274.832194 
L 232.129453 274.843362 
L 231.129453 274.873479 
L 230.129453 274.933256 
L 229.129453 274.970448 
L 228.129453 275.009544 
L 227.129453 275.051984 
L 226.129453 275.084749 
L 225.129453 275.152175 
L 224.129453 275.191301 
L 223.129453 275.233976 
L 222.129453 275.304556 
L 221.129453 275.340947 
L 220.129453 275.39935 
L 219.129453 275.510303 
L 218.129453 275.580961 
L 217.129453 275.693901 
L 216.129453 275.739674 
L 215.129453 275.800957 
L 214.129453 275.849456 
L 213.129453 275.930279 
L 212.129453 276.048798 
L 211.129453 276.119009 
L 210.129453 276.202271 
L 209.129453 276.235413 
L 208.129453 276.28665 
L 207.129453 276.355049 
L 206.129453 276.421264 
L 205.129453 276.498181 
L 204.129453 276.525497 
L 203.129453 276.551974 
L 202.129453 276.574625 
L 201.129453 276.594156 
L 200.129453 276.62055 
L 199.129453 276.670321 
L 198.129453 276.705394 
L 197.129453 276.74126 
L 196.129453 276.756627 
L 195.129453 276.772396 
L 194.129453 276.775809 
L 193.129453 276.778226 
L 192.129453 276.77774 
L 191.129453 276.775811 
L 190.129453 276.762554 
L 189.129453 276.754163 
L 188.129453 276.732627 
L 187.129453 276.709594 
L 186.129453 276.692361 
L 185.129453 276.673898 
L 184.129453 276.653446 
L 183.129453 276.636846 
L 182.129453 276.574067 
L 181.129453 276.498802 
L 180.129453 276.466163 
L 179.129453 276.398599 
L 178.129453 276.344552 
L 177.129453 276.310848 
L 176.129453 276.220722 
L 175.129453 276.192187 
L 174.129453 276.160701 
L 173.129453 276.12969 
L 172.129453 276.074882 
L 171.129453 276.010295 
L 170.129453 275.972099 
L 169.129453 275.876165 
L 168.129453 275.826907 
L 167.129453 275.782838 
L 166.129453 275.742714 
L 165.129453 275.634347 
L 164.129453 275.592719 
L 163.129453 275.530577 
L 162.129453 275.460615 
L 161.129453 275.356111 
L 160.129453 275.319123 
L 159.129453 275.273246 
L 158.129453 275.204751 
L 157.129453 275.156005 
L 156.129453 275.078408 
L 155.129453 275.047867 
L 154.129453 274.978353 
L 153.129453 274.95438 
L 152.129453 274.925758 
L 151.129453 274.883965 
L 150.129453 274.862389 
L 149.129453 274.848441 
L 148.129453 274.821719 
L 147.129453 274.812409 
L 146.129453 274.799962 
L 145.129453 274.788907 
L 144.129453 274.783243 
L 143.129453 274.778479 
L 142.129453 274.784027 
L 141.129453 274.797315 
L 140.129453 274.804832 
L 139.129453 274.829617 
L 138.129453 274.853186 
L 137.129453 274.889366 
L 136.129453 274.915328 
L 135.129453 274.93765 
L 133.787892 275.00641 
" clip-path="url(#pbc6b4e8f8b)" style="fill: none; stroke: #ffffff; stroke-width: 3; stroke-linecap: round"/>
        <path d="M 260.129453 275.778421 
L 259.129453 275.746985 
L 258.129453 275.710044 
L 257.129453 275.612298 
L 256.129453 275.579776 
L 255.129453 275.506151 
L 254.129453 275.467586 
L 253.129453 275.432173 
L 252.129453 275.374533 
L 251.129453 275.304147 
L 250.129453 275.252182 
L 249.129453 275.193093 
L 248.129453 275.104772 
L 247.129453 275.058627 
L 246.129453 275.016216 
L 245.129453 274.985724 
L 244.129453 274.959679 
L 243.129453 274.938479 
L 242.129453 274.884178 
L 241.129453 274.85624 
L 240.129453 274.826516 
L 239.129453 274.801121 
L 238.129453 274.789921 
L 237.129453 274.779797 
L 236.129453 274.780001 
L 235.129453 274.789511 
L 234.129453 274.801165 
L 233.129453 274.832194 
L 232.129453 274.843362 
L 231.129453 274.873479 
L 230.129453 274.933256 
L 229.129453 274.970448 
L 228.129453 275.009544 
L 227.129453 275.051984 
L 226.129453 275.084749 
L 225.129453 275.152175 
L 224.129453 275.191301 
L 223.129453 275.233976 
L 222.129453 275.304556 
L 221.129453 275.340947 
L 220.129453 275.39935 
L 219.129453 275.510303 
L 218.129453 275.580961 
L 217.129453 275.693901 
L 216.129453 275.739674 
L 215.129453 275.800957 
L 214.129453 275.849456 
L 213.129453 275.930279 
L 212.129453 276.048798 
L 211.129453 276.119009 
L 210.129453 276.202271 
L 209.129453 276.235413 
L 208.129453 276.28665 
L 207.129453 276.355049 
L 206.129453 276.421264 
L 205.129453 276.498181 
L 204.129453 276.525497 
L 203.129453 276.551974 
L 202.129453 276.574625 
L 201.129453 276.594156 
L 200.129453 276.62055 
L 199.129453 276.670321 
L 198.129453 276.705394 
L 197.129453 276.74126 
L 196.129453 276.756627 
L 195.129453 276.772396 
L 194.129453 276.775809 
L 193.129453 276.778226 
L 192.129453 276.77774 
L 191.129453 276.775811 
L 190.129453 276.762554 
L 189.129453 276.754163 
L 188.129453 276.732627 
L 187.129453 276.709594 
L 186.129453 276.692361 
L 185.129453 276.673898 
L 184.129453 276.653446 
L 183.129453 276.636846 
L 182.129453 276.574067 
L 181.129453 276.498802 
L 180.129453 276.466163 
L 179.129453 276.398599 
L 178.129453 276.344552 
L 177.129453 276.310848 
L 176.129453 276.220722 
L 175.129453 276.192187 
L 174.129453 276.160701 
L 173.129453 276.12969 
L 172.129453 276.074882 
L 171.129453 276.010295 
L 170.129453 275.972099 
L 169.129453 275.876165 
L 168.129453 275.826907 
L 167.129453 275.782838 
L 166.129453 275.742714 
L 165.129453 275.634347 
L 164.129453 275.592719 
L 163.129453 275.530577 
L 162.129453 275.460615 
L 161.129453 275.356111 
L 160.129453 275.319123 
L 159.129453 275.273246 
L 158.129453 275.204751 
L 157.129453 275.156005 
L 156.129453 275.078408 
L 155.129453 275.047867 
L 154.129453 274.978353 
L 153.129453 274.95438 
L 152.129453 274.925758 
L 151.129453 274.883965 
L 150.129453 274.862389 
L 149.129453 274.848441 
L 148.129453 274.821719 
L 147.129453 274.812409 
L 146.129453 274.799962 
L 145.129453 274.788907 
L 144.129453 274.783243 
L 143.129453 274.778479 
L 142.129453 274.784027 
L 141.129453 274.797315 
L 140.129453 274.804832 
L 139.129453 274.829617 
L 138.129453 274.853186 
L 137.129453 274.889366 
L 136.129453 274.915328 
L 135.129453 274.93765 
L 133.787892 275.00641 
" clip-path="url(#pbc6b4e8f8b)" style="fill: none; stroke: #1f77b4; stroke-linecap: round"/>
        <path d="M 137.787892 277.778421 
L 136.907523 277.30309 
L 136.029616 276.822836 
L 135.178903 276.288195 
L 133.876728 275.600748 
L 134.804081 275.574733 
L 135.715756 275.162013 
L 136.62602 274.746474 
L 137.968516 274.13967 
L 137.313617 274.778421 
L 137.261653 275.778421 
L 137.202563 277.778421 
z
" clip-path="url(#pbc6b4e8f8b)" style="fill: #ffffff; stroke: #ffffff; stroke-width: 3; stroke-linecap: round"/>
        <path d="M 137.787892 277.778421 
L 136.907523 277.30309 
L 136.029616 276.822836 
L 135.178903 276.288195 
L 133.876728 275.600748 
L 134.804081 275.574733 
L 135.715756 275.162013 
L 136.62602 274.746474 
L 137.968516 274.13967 
L 137.313617 274.778421 
L 137.261653 275.778421 
L 137.202563 277.778421 
z
" clip-path="url(#pbc6b4e8f8b)" style="fill: #ffffff; stroke: #1f77b4; stroke-linecap: round"/>
        <g id="patch_8">
         <path d="M 363.20548 72.964375 
L 364.20548 72.995811 
L 365.20548 73.032752 
L 366.20548 73.130498 
L 367.20548 73.16302 
L 368.20548 73.236645 
L 369.20548 73.27521 
L 370.20548 73.310623 
L 371.20548 73.368263 
L 372.20548 73.438649 
L 373.20548 73.490614 
L 374.20548 73.549703 
L 375.20548 73.638024 
L 376.20548 73.684169 
L 377.20548 73.72658 
L 378.20548 73.757072 
L 379.20548 73.783117 
L 380.20548 73.804317 
L 381.20548 73.858618 
L 382.20548 73.886556 
L 383.20548 73.91628 
L 384.20548 73.941675 
L 385.20548 73.952875 
L 386.20548 73.962999 
L 387.20548 73.962795 
L 388.20548 73.953285 
L 389.20548 73.941631 
L 390.20548 73.910602 
L 391.20548 73.899434 
L 392.20548 73.869317 
L 393.20548 73.80954 
L 394.20548 73.772348 
L 395.20548 73.733252 
L 396.20548 73.690812 
L 397.20548 73.658047 
L 398.20548 73.590621 
L 399.20548 73.551495 
L 400.20548 73.50882 
L 401.20548 73.43824 
L 402.20548 73.401849 
L 403.20548 73.343446 
L 404.20548 73.232493 
L 405.20548 73.161835 
L 406.20548 73.048895 
L 407.20548 73.003122 
L 408.20548 72.941839 
L 409.20548 72.89334 
L 410.20548 72.812517 
L 411.20548 72.693998 
L 412.20548 72.623787 
L 413.20548 72.540525 
L 414.20548 72.507383 
L 415.20548 72.456146 
L 416.20548 72.387747 
L 417.20548 72.321532 
L 418.20548 72.244615 
L 419.20548 72.217299 
L 420.20548 72.190822 
L 421.20548 72.168171 
L 422.20548 72.14864 
L 423.20548 72.122246 
L 424.20548 72.072475 
L 425.20548 72.037402 
L 426.20548 72.001536 
L 427.20548 71.986169 
L 428.20548 71.9704 
L 429.20548 71.966987 
L 430.20548 71.96457 
L 431.20548 71.965056 
L 432.20548 71.966985 
L 433.20548 71.980242 
L 434.20548 71.988633 
L 435.20548 72.010169 
L 436.20548 72.033202 
L 437.20548 72.050435 
L 438.20548 72.068898 
L 439.20548 72.08935 
L 440.20548 72.10595 
L 441.20548 72.168729 
L 442.20548 72.243994 
L 443.20548 72.276633 
L 444.20548 72.344197 
L 445.20548 72.398244 
L 446.20548 72.431948 
L 447.20548 72.522074 
L 448.20548 72.550609 
L 449.20548 72.582095 
L 450.20548 72.613106 
L 451.20548 72.667914 
L 452.20548 72.732501 
L 453.20548 72.770697 
L 454.20548 72.866631 
L 455.20548 72.915889 
L 456.20548 72.959958 
L 457.20548 73.000082 
L 458.20548 73.108449 
L 459.20548 73.150077 
L 460.20548 73.212219 
L 461.20548 73.282181 
L 462.20548 73.386685 
L 463.20548 73.423673 
L 464.20548 73.46955 
L 465.20548 73.538045 
L 466.20548 73.586791 
L 467.20548 73.664388 
L 468.20548 73.694929 
L 469.20548 73.764443 
L 470.20548 73.788416 
L 471.20548 73.817038 
L 472.20548 73.858831 
L 473.20548 73.880407 
L 474.20548 73.894355 
L 475.20548 73.921077 
L 476.20548 73.930387 
L 477.20548 73.942834 
L 478.20548 73.953889 
L 479.20548 73.959553 
L 480.20548 73.964317 
L 481.20548 73.958769 
L 482.20548 73.945481 
L 483.20548 73.937964 
L 484.20548 73.913179 
L 485.20548 73.88961 
L 486.20548 73.85343 
L 487.20548 73.827468 
L 488.20548 73.805146 
L 489.20548 73.736386 
L 490.20548 73.661851 
L 491.20548 73.567872 
L 492.20548 73.51682 
L 493.20548 73.462886 
L 494.20548 73.427635 
L 495.20548 73.321547 
L 496.20548 73.269283 
L 497.20548 73.232376 
L 498.20548 73.201345 
L 499.20548 73.14019 
L 500.20548 73.07277 
L 501.20548 73.023864 
L 502.20548 72.958672 
L 503.20548 72.920484 
L 504.20548 72.878488 
L 505.20548 72.836471 
L 506.20548 72.776955 
L 507.20548 72.663795 
L 508.20548 72.611544 
L 509.20548 72.572126 
L 510.20548 72.525025 
L 511.20548 72.468245 
L 512.20548 72.435582 
L 513.20548 72.399404 
L 514.20548 72.367314 
L 515.20548 72.333034 
L 516.20548 72.274656 
L 517.20548 72.229471 
L 518.20548 72.199847 
L 519.20548 72.149461 
L 520.20548 72.124264 
L 521.20548 72.103213 
L 522.20548 72.068245 
L 523.20548 72.043955 
L 524.20548 72.029888 
L 525.20548 72.010946 
L 526.20548 71.995285 
L 527.20548 71.982733 
L 528.20548 71.976897 
L 529.20548 71.970015 
L 530.20548 71.964841 
L 531.20548 71.966624 
L 532.20548 71.969349 
L 533.20548 71.980503 
L 534.20548 72.008738 
L 535.20548 72.052526 
L 536.20548 72.073215 
L 537.20548 72.114188 
L 538.20548 72.154263 
L 539.20548 72.173373 
L 540.20548 72.195882 
L 541.20548 72.262533 
L 542.20548 72.312243 
L 543.20548 72.385949 
L 544.20548 72.417263 
L 545.20548 72.493885 
L 546.20548 72.532183 
L 547.20548 72.6063 
L 548.20548 72.710358 
L 549.20548 72.780189 
L 550.20548 72.885423 
L 551.20548 72.940438 
L 552.20548 73.063913 
L 553.20548 73.134472 
L 554.20548 73.250311 
L 555.20548 73.300492 
L 556.20548 73.336096 
L 557.20548 73.427503 
L 558.20548 73.481011 
L 560.203477 73.568919 
" clip-path="url(#pbc6b4e8f8b)" style="fill: none; stroke: #ffffff; stroke-width: 3; stroke-linecap: round"/>
         <path d="M 363.20548 72.964375 
L 364.20548 72.995811 
L 365.20548 73.032752 
L 366.20548 73.130498 
L 367.20548 73.16302 
L 368.20548 73.236645 
L 369.20548 73.27521 
L 370.20548 73.310623 
L 371.20548 73.368263 
L 372.20548 73.438649 
L 373.20548 73.490614 
L 374.20548 73.549703 
L 375.20548 73.638024 
L 376.20548 73.684169 
L 377.20548 73.72658 
L 378.20548 73.757072 
L 379.20548 73.783117 
L 380.20548 73.804317 
L 381.20548 73.858618 
L 382.20548 73.886556 
L 383.20548 73.91628 
L 384.20548 73.941675 
L 385.20548 73.952875 
L 386.20548 73.962999 
L 387.20548 73.962795 
L 388.20548 73.953285 
L 389.20548 73.941631 
L 390.20548 73.910602 
L 391.20548 73.899434 
L 392.20548 73.869317 
L 393.20548 73.80954 
L 394.20548 73.772348 
L 395.20548 73.733252 
L 396.20548 73.690812 
L 397.20548 73.658047 
L 398.20548 73.590621 
L 399.20548 73.551495 
L 400.20548 73.50882 
L 401.20548 73.43824 
L 402.20548 73.401849 
L 403.20548 73.343446 
L 404.20548 73.232493 
L 405.20548 73.161835 
L 406.20548 73.048895 
L 407.20548 73.003122 
L 408.20548 72.941839 
L 409.20548 72.89334 
L 410.20548 72.812517 
L 411.20548 72.693998 
L 412.20548 72.623787 
L 413.20548 72.540525 
L 414.20548 72.507383 
L 415.20548 72.456146 
L 416.20548 72.387747 
L 417.20548 72.321532 
L 418.20548 72.244615 
L 419.20548 72.217299 
L 420.20548 72.190822 
L 421.20548 72.168171 
L 422.20548 72.14864 
L 423.20548 72.122246 
L 424.20548 72.072475 
L 425.20548 72.037402 
L 426.20548 72.001536 
L 427.20548 71.986169 
L 428.20548 71.9704 
L 429.20548 71.966987 
L 430.20548 71.96457 
L 431.20548 71.965056 
L 432.20548 71.966985 
L 433.20548 71.980242 
L 434.20548 71.988633 
L 435.20548 72.010169 
L 436.20548 72.033202 
L 437.20548 72.050435 
L 438.20548 72.068898 
L 439.20548 72.08935 
L 440.20548 72.10595 
L 441.20548 72.168729 
L 442.20548 72.243994 
L 443.20548 72.276633 
L 444.20548 72.344197 
L 445.20548 72.398244 
L 446.20548 72.431948 
L 447.20548 72.522074 
L 448.20548 72.550609 
L 449.20548 72.582095 
L 450.20548 72.613106 
L 451.20548 72.667914 
L 452.20548 72.732501 
L 453.20548 72.770697 
L 454.20548 72.866631 
L 455.20548 72.915889 
L 456.20548 72.959958 
L 457.20548 73.000082 
L 458.20548 73.108449 
L 459.20548 73.150077 
L 460.20548 73.212219 
L 461.20548 73.282181 
L 462.20548 73.386685 
L 463.20548 73.423673 
L 464.20548 73.46955 
L 465.20548 73.538045 
L 466.20548 73.586791 
L 467.20548 73.664388 
L 468.20548 73.694929 
L 469.20548 73.764443 
L 470.20548 73.788416 
L 471.20548 73.817038 
L 472.20548 73.858831 
L 473.20548 73.880407 
L 474.20548 73.894355 
L 475.20548 73.921077 
L 476.20548 73.930387 
L 477.20548 73.942834 
L 478.20548 73.953889 
L 479.20548 73.959553 
L 480.20548 73.964317 
L 481.20548 73.958769 
L 482.20548 73.945481 
L 483.20548 73.937964 
L 484.20548 73.913179 
L 485.20548 73.88961 
L 486.20548 73.85343 
L 487.20548 73.827468 
L 488.20548 73.805146 
L 489.20548 73.736386 
L 490.20548 73.661851 
L 491.20548 73.567872 
L 492.20548 73.51682 
L 493.20548 73.462886 
L 494.20548 73.427635 
L 495.20548 73.321547 
L 496.20548 73.269283 
L 497.20548 73.232376 
L 498.20548 73.201345 
L 499.20548 73.14019 
L 500.20548 73.07277 
L 501.20548 73.023864 
L 502.20548 72.958672 
L 503.20548 72.920484 
L 504.20548 72.878488 
L 505.20548 72.836471 
L 506.20548 72.776955 
L 507.20548 72.663795 
L 508.20548 72.611544 
L 509.20548 72.572126 
L 510.20548 72.525025 
L 511.20548 72.468245 
L 512.20548 72.435582 
L 513.20548 72.399404 
L 514.20548 72.367314 
L 515.20548 72.333034 
L 516.20548 72.274656 
L 517.20548 72.229471 
L 518.20548 72.199847 
L 519.20548 72.149461 
L 520.20548 72.124264 
L 521.20548 72.103213 
L 522.20548 72.068245 
L 523.20548 72.043955 
L 524.20548 72.029888 
L 525.20548 72.010946 
L 526.20548 71.995285 
L 527.20548 71.982733 
L 528.20548 71.976897 
L 529.20548 71.970015 
L 530.20548 71.964841 
L 531.20548 71.966624 
L 532.20548 71.969349 
L 533.20548 71.980503 
L 534.20548 72.008738 
L 535.20548 72.052526 
L 536.20548 72.073215 
L 537.20548 72.114188 
L 538.20548 72.154263 
L 539.20548 72.173373 
L 540.20548 72.195882 
L 541.20548 72.262533 
L 542.20548 72.312243 
L 543.20548 72.385949 
L 544.20548 72.417263 
L 545.20548 72.493885 
L 546.20548 72.532183 
L 547.20548 72.6063 
L 548.20548 72.710358 
L 549.20548 72.780189 
L 550.20548 72.885423 
L 551.20548 72.940438 
L 552.20548 73.063913 
L 553.20548 73.134472 
L 554.20548 73.250311 
L 555.20548 73.300492 
L 556.20548 73.336096 
L 557.20548 73.427503 
L 558.20548 73.481011 
L 560.203477 73.568919 
" clip-path="url(#pbc6b4e8f8b)" style="fill: none; stroke: #1f77b4; stroke-linecap: round"/>
         <path d="M 556.203477 70.964375 
L 557.083846 71.439706 
L 557.961753 71.91996 
L 558.812466 72.454601 
L 560.114641 73.142048 
L 559.187288 73.168063 
L 558.275613 73.580783 
L 557.365349 73.996322 
L 556.022853 74.603126 
L 556.677752 73.964375 
L 556.729716 72.964375 
L 556.788806 70.964375 
z
" clip-path="url(#pbc6b4e8f8b)" style="fill: #ffffff; stroke: #ffffff; stroke-width: 3; stroke-linecap: round"/>
         <path d="M 556.203477 70.964375 
L 557.083846 71.439706 
L 557.961753 71.91996 
L 558.812466 72.454601 
L 560.114641 73.142048 
L 559.187288 73.168063 
L 558.275613 73.580783 
L 557.365349 73.996322 
L 556.022853 74.603126 
L 556.677752 73.964375 
L 556.729716 72.964375 
L 556.788806 70.964375 
z
" clip-path="url(#pbc6b4e8f8b)" style="fill: #ffffff; stroke: #1f77b4; stroke-linecap: round"/>
         <g id="patch_9">
          <path d="M 132.670156 281.730658 
L 133.670156 281.762094 
L 134.670156 281.799035 
L 135.670156 281.896781 
L 136.670156 281.929303 
L 137.670156 282.002927 
L 138.670156 282.041493 
L 139.670156 282.076906 
L 140.670156 282.134546 
L 141.670156 282.204932 
L 142.670156 282.256896 
L 143.670156 282.315986 
L 144.670156 282.404307 
L 145.670156 282.450451 
L 146.670156 282.492862 
L 147.670156 282.523355 
L 148.670156 282.5494 
L 149.670156 282.5706 
L 150.670156 282.624901 
L 151.670156 282.652839 
L 152.670156 282.682563 
L 153.670156 282.707958 
L 154.670156 282.719158 
L 155.670156 282.729282 
L 156.670156 282.729078 
L 157.670156 282.719568 
L 158.670156 282.707914 
L 159.670156 282.676885 
L 160.670156 282.665717 
L 161.670156 282.635599 
L 162.670156 282.575822 
L 163.670156 282.538631 
L 164.670156 282.499535 
L 165.670156 282.457095 
L 166.670156 282.42433 
L 167.670156 282.356904 
L 168.670156 282.317778 
L 169.670156 282.275103 
L 170.670156 282.204523 
L 171.670156 282.168132 
L 172.670156 282.109729 
L 173.670156 281.998776 
L 174.670156 281.928118 
L 175.670156 281.815178 
L 176.670156 281.769405 
L 177.670156 281.708122 
L 178.670156 281.659622 
L 179.670156 281.5788 
L 180.670156 281.460281 
L 181.670156 281.39007 
L 182.670156 281.306808 
L 183.670156 281.273666 
L 184.670156 281.222429 
L 185.670156 281.15403 
L 186.670156 281.087815 
L 187.670156 281.010898 
L 188.670156 280.983582 
L 189.670156 280.957105 
L 190.670156 280.934454 
L 191.670156 280.914923 
L 192.670156 280.888529 
L 193.670156 280.838758 
L 194.670156 280.803685 
L 195.670156 280.767819 
L 196.670156 280.752452 
L 197.670156 280.736683 
L 198.670156 280.73327 
L 199.670156 280.730852 
L 200.670156 280.731339 
L 201.670156 280.733268 
L 202.670156 280.746525 
L 203.670156 280.754915 
L 204.670156 280.776452 
L 205.670156 280.799484 
L 206.670156 280.816718 
L 207.670156 280.83518 
L 208.670156 280.855633 
L 209.670156 280.872233 
L 210.670156 280.935012 
L 211.670156 281.010277 
L 212.670156 281.042916 
L 213.670156 281.110479 
L 214.670156 281.164526 
L 215.670156 281.198231 
L 216.670156 281.288357 
L 217.670156 281.316892 
L 218.670156 281.348378 
L 219.670156 281.379389 
L 220.670156 281.434197 
L 221.670156 281.498784 
L 222.670156 281.536979 
L 223.670156 281.632914 
L 224.670156 281.682172 
L 225.670156 281.726241 
L 226.670156 281.766365 
L 227.670156 281.874732 
L 228.670156 281.91636 
L 229.670156 281.978501 
L 230.670156 282.048464 
L 231.670156 282.152968 
L 232.670156 282.189956 
L 233.670156 282.235833 
L 234.670156 282.304327 
L 235.670156 282.353073 
L 236.670156 282.430671 
L 237.670156 282.461211 
L 238.670156 282.530726 
L 239.670156 282.554699 
L 240.670156 282.583321 
L 241.670156 282.625114 
L 242.670156 282.64669 
L 243.670156 282.660637 
L 244.670156 282.68736 
L 245.670156 282.69667 
L 246.670156 282.709116 
L 247.670156 282.720171 
L 248.670156 282.725836 
L 249.670156 282.7306 
L 250.670156 282.725052 
L 251.670156 282.711764 
L 252.670156 282.704246 
L 253.670156 282.679462 
L 254.670156 282.655893 
L 255.670156 282.619712 
L 256.670156 282.593751 
L 257.670156 282.571429 
L 258.670156 282.502669 
L 259.670156 282.428134 
L 260.670156 282.334155 
L 261.670156 282.283103 
L 262.670156 282.229169 
L 263.670156 282.193918 
L 264.670156 282.08783 
L 265.670156 282.035566 
L 266.670156 281.998659 
L 267.670156 281.967628 
L 268.670156 281.906473 
L 269.670156 281.839053 
L 270.670156 281.790147 
L 271.670156 281.724955 
L 272.670156 281.686767 
L 273.670156 281.644771 
L 274.670156 281.602754 
L 275.670156 281.543237 
L 276.670156 281.430077 
L 277.670156 281.377827 
L 278.670156 281.338409 
L 279.670156 281.291308 
L 280.670156 281.234528 
L 281.670156 281.201865 
L 282.670156 281.165687 
L 283.670156 281.133596 
L 284.670156 281.099317 
L 285.670156 281.040939 
L 286.670156 280.995754 
L 287.670156 280.96613 
L 288.670156 280.915744 
L 289.670156 280.890546 
L 290.670156 280.869496 
L 291.670156 280.834528 
L 292.670156 280.810238 
L 293.670156 280.796171 
L 294.670156 280.777229 
L 295.670156 280.761567 
L 296.670156 280.749016 
L 297.670156 280.74318 
L 298.670156 280.736297 
L 299.670156 280.731124 
L 300.670156 280.732906 
L 301.670156 280.735632 
L 302.670156 280.746785 
L 303.670156 280.775021 
L 304.670156 280.818809 
L 305.670156 280.839498 
L 306.670156 280.880471 
L 307.670156 280.920546 
L 308.670156 280.939656 
L 309.670156 280.962164 
L 310.670156 281.028816 
L 311.670156 281.078525 
L 312.670156 281.152232 
L 313.670156 281.183546 
L 314.670156 281.260168 
L 315.670156 281.298466 
L 316.670156 281.372583 
L 317.670156 281.476641 
L 318.670156 281.546472 
L 319.670156 281.651705 
L 320.670156 281.706721 
L 321.670156 281.830196 
L 322.670156 281.900755 
L 323.670156 282.016594 
L 324.670156 282.066775 
L 325.670156 282.102379 
L 326.670156 282.193786 
L 327.670156 282.247293 
L 328.670156 282.335202 
L 329.670156 282.404387 
L 330.670156 282.451151 
L 331.670156 282.523195 
L 332.670156 282.573337 
L 333.670156 282.590727 
L 334.670156 282.61773 
L 335.670156 282.637157 
L 336.670156 282.656495 
L 337.670156 282.694744 
L 338.670156 282.711177 
L 339.670156 282.719546 
L 340.670156 282.723865 
L 341.670156 282.73042 
L 342.670156 282.727873 
L 343.670156 282.722415 
L 344.670156 282.705987 
L 345.670156 282.674052 
L 346.670156 282.636072 
L 347.670156 282.601267 
L 348.670156 282.538196 
L 349.670156 282.516769 
L 350.670156 282.466151 
L 351.670156 282.441193 
L 352.670156 282.38556 
L 353.670156 282.354331 
L 354.670156 282.304187 
L 355.670156 282.271694 
L 356.670156 282.191281 
L 357.670156 282.122356 
L 358.670156 282.006659 
L 359.670156 281.93118 
L 360.670156 281.815655 
L 361.670156 281.73617 
L 362.670156 281.627729 
L 363.670156 281.588362 
L 364.670156 281.485494 
L 365.670156 281.385696 
L 366.670156 281.340199 
L 367.670156 281.305876 
L 368.670156 281.253921 
L 369.670156 281.214274 
L 370.670156 281.17876 
L 371.670156 281.111114 
L 372.670156 281.072033 
L 373.670156 281.021551 
L 374.670156 280.972246 
L 375.670156 280.921176 
L 376.670156 280.876937 
L 377.670156 280.854917 
L 378.670156 280.83936 
L 379.670156 280.796914 
L 380.670156 280.782046 
L 381.670156 280.759318 
L 382.670156 280.739002 
L 383.670156 280.733205 
L 384.670156 280.730723 
L 385.670156 280.73378 
L 386.670156 280.745376 
L 387.670156 280.762296 
L 388.670156 280.793957 
L 389.670156 280.80804 
L 390.670156 280.860712 
L 391.670156 280.909801 
L 392.670156 280.964502 
L 393.670156 281.00885 
L 394.670156 281.078842 
L 395.670156 281.129224 
L 396.670156 281.183131 
L 397.670156 281.252571 
L 398.670156 281.309958 
L 399.670156 281.360124 
L 400.670156 281.437286 
L 401.670156 281.495476 
L 402.670156 281.556114 
L 403.670156 281.593315 
L 404.670156 281.658407 
L 405.670156 281.763537 
L 406.670156 281.823839 
L 407.670156 281.92016 
L 408.670156 281.952164 
L 409.670156 282.003181 
L 410.670156 282.119973 
L 411.670156 282.155419 
L 412.670156 282.2113 
L 413.670156 282.241675 
L 414.670156 282.330062 
L 415.670156 282.374826 
L 416.670156 282.455714 
L 417.670156 282.51586 
L 418.670156 282.578946 
L 419.670156 282.601894 
L 420.670156 282.618064 
L 421.670156 282.646993 
L 422.670156 282.677344 
L 423.670156 282.689919 
L 424.670156 282.714798 
L 425.670156 282.726882 
L 426.670156 282.730644 
L 427.670156 282.726208 
L 428.670156 282.713869 
L 429.670156 282.699456 
L 430.670156 282.683383 
L 431.670156 282.647862 
L 432.670156 282.627928 
L 433.670156 282.571338 
L 435.030862 282.504145 
" clip-path="url(#pbc6b4e8f8b)" style="fill: none; stroke: #ffffff; stroke-width: 3; stroke-linecap: round"/>
          <path d="M 132.670156 281.730658 
L 133.670156 281.762094 
L 134.670156 281.799035 
L 135.670156 281.896781 
L 136.670156 281.929303 
L 137.670156 282.002927 
L 138.670156 282.041493 
L 139.670156 282.076906 
L 140.670156 282.134546 
L 141.670156 282.204932 
L 142.670156 282.256896 
L 143.670156 282.315986 
L 144.670156 282.404307 
L 145.670156 282.450451 
L 146.670156 282.492862 
L 147.670156 282.523355 
L 148.670156 282.5494 
L 149.670156 282.5706 
L 150.670156 282.624901 
L 151.670156 282.652839 
L 152.670156 282.682563 
L 153.670156 282.707958 
L 154.670156 282.719158 
L 155.670156 282.729282 
L 156.670156 282.729078 
L 157.670156 282.719568 
L 158.670156 282.707914 
L 159.670156 282.676885 
L 160.670156 282.665717 
L 161.670156 282.635599 
L 162.670156 282.575822 
L 163.670156 282.538631 
L 164.670156 282.499535 
L 165.670156 282.457095 
L 166.670156 282.42433 
L 167.670156 282.356904 
L 168.670156 282.317778 
L 169.670156 282.275103 
L 170.670156 282.204523 
L 171.670156 282.168132 
L 172.670156 282.109729 
L 173.670156 281.998776 
L 174.670156 281.928118 
L 175.670156 281.815178 
L 176.670156 281.769405 
L 177.670156 281.708122 
L 178.670156 281.659622 
L 179.670156 281.5788 
L 180.670156 281.460281 
L 181.670156 281.39007 
L 182.670156 281.306808 
L 183.670156 281.273666 
L 184.670156 281.222429 
L 185.670156 281.15403 
L 186.670156 281.087815 
L 187.670156 281.010898 
L 188.670156 280.983582 
L 189.670156 280.957105 
L 190.670156 280.934454 
L 191.670156 280.914923 
L 192.670156 280.888529 
L 193.670156 280.838758 
L 194.670156 280.803685 
L 195.670156 280.767819 
L 196.670156 280.752452 
L 197.670156 280.736683 
L 198.670156 280.73327 
L 199.670156 280.730852 
L 200.670156 280.731339 
L 201.670156 280.733268 
L 202.670156 280.746525 
L 203.670156 280.754915 
L 204.670156 280.776452 
L 205.670156 280.799484 
L 206.670156 280.816718 
L 207.670156 280.83518 
L 208.670156 280.855633 
L 209.670156 280.872233 
L 210.670156 280.935012 
L 211.670156 281.010277 
L 212.670156 281.042916 
L 213.670156 281.110479 
L 214.670156 281.164526 
L 215.670156 281.198231 
L 216.670156 281.288357 
L 217.670156 281.316892 
L 218.670156 281.348378 
L 219.670156 281.379389 
L 220.670156 281.434197 
L 221.670156 281.498784 
L 222.670156 281.536979 
L 223.670156 281.632914 
L 224.670156 281.682172 
L 225.670156 281.726241 
L 226.670156 281.766365 
L 227.670156 281.874732 
L 228.670156 281.91636 
L 229.670156 281.978501 
L 230.670156 282.048464 
L 231.670156 282.152968 
L 232.670156 282.189956 
L 233.670156 282.235833 
L 234.670156 282.304327 
L 235.670156 282.353073 
L 236.670156 282.430671 
L 237.670156 282.461211 
L 238.670156 282.530726 
L 239.670156 282.554699 
L 240.670156 282.583321 
L 241.670156 282.625114 
L 242.670156 282.64669 
L 243.670156 282.660637 
L 244.670156 282.68736 
L 245.670156 282.69667 
L 246.670156 282.709116 
L 247.670156 282.720171 
L 248.670156 282.725836 
L 249.670156 282.7306 
L 250.670156 282.725052 
L 251.670156 282.711764 
L 252.670156 282.704246 
L 253.670156 282.679462 
L 254.670156 282.655893 
L 255.670156 282.619712 
L 256.670156 282.593751 
L 257.670156 282.571429 
L 258.670156 282.502669 
L 259.670156 282.428134 
L 260.670156 282.334155 
L 261.670156 282.283103 
L 262.670156 282.229169 
L 263.670156 282.193918 
L 264.670156 282.08783 
L 265.670156 282.035566 
L 266.670156 281.998659 
L 267.670156 281.967628 
L 268.670156 281.906473 
L 269.670156 281.839053 
L 270.670156 281.790147 
L 271.670156 281.724955 
L 272.670156 281.686767 
L 273.670156 281.644771 
L 274.670156 281.602754 
L 275.670156 281.543237 
L 276.670156 281.430077 
L 277.670156 281.377827 
L 278.670156 281.338409 
L 279.670156 281.291308 
L 280.670156 281.234528 
L 281.670156 281.201865 
L 282.670156 281.165687 
L 283.670156 281.133596 
L 284.670156 281.099317 
L 285.670156 281.040939 
L 286.670156 280.995754 
L 287.670156 280.96613 
L 288.670156 280.915744 
L 289.670156 280.890546 
L 290.670156 280.869496 
L 291.670156 280.834528 
L 292.670156 280.810238 
L 293.670156 280.796171 
L 294.670156 280.777229 
L 295.670156 280.761567 
L 296.670156 280.749016 
L 297.670156 280.74318 
L 298.670156 280.736297 
L 299.670156 280.731124 
L 300.670156 280.732906 
L 301.670156 280.735632 
L 302.670156 280.746785 
L 303.670156 280.775021 
L 304.670156 280.818809 
L 305.670156 280.839498 
L 306.670156 280.880471 
L 307.670156 280.920546 
L 308.670156 280.939656 
L 309.670156 280.962164 
L 310.670156 281.028816 
L 311.670156 281.078525 
L 312.670156 281.152232 
L 313.670156 281.183546 
L 314.670156 281.260168 
L 315.670156 281.298466 
L 316.670156 281.372583 
L 317.670156 281.476641 
L 318.670156 281.546472 
L 319.670156 281.651705 
L 320.670156 281.706721 
L 321.670156 281.830196 
L 322.670156 281.900755 
L 323.670156 282.016594 
L 324.670156 282.066775 
L 325.670156 282.102379 
L 326.670156 282.193786 
L 327.670156 282.247293 
L 328.670156 282.335202 
L 329.670156 282.404387 
L 330.670156 282.451151 
L 331.670156 282.523195 
L 332.670156 282.573337 
L 333.670156 282.590727 
L 334.670156 282.61773 
L 335.670156 282.637157 
L 336.670156 282.656495 
L 337.670156 282.694744 
L 338.670156 282.711177 
L 339.670156 282.719546 
L 340.670156 282.723865 
L 341.670156 282.73042 
L 342.670156 282.727873 
L 343.670156 282.722415 
L 344.670156 282.705987 
L 345.670156 282.674052 
L 346.670156 282.636072 
L 347.670156 282.601267 
L 348.670156 282.538196 
L 349.670156 282.516769 
L 350.670156 282.466151 
L 351.670156 282.441193 
L 352.670156 282.38556 
L 353.670156 282.354331 
L 354.670156 282.304187 
L 355.670156 282.271694 
L 356.670156 282.191281 
L 357.670156 282.122356 
L 358.670156 282.006659 
L 359.670156 281.93118 
L 360.670156 281.815655 
L 361.670156 281.73617 
L 362.670156 281.627729 
L 363.670156 281.588362 
L 364.670156 281.485494 
L 365.670156 281.385696 
L 366.670156 281.340199 
L 367.670156 281.305876 
L 368.670156 281.253921 
L 369.670156 281.214274 
L 370.670156 281.17876 
L 371.670156 281.111114 
L 372.670156 281.072033 
L 373.670156 281.021551 
L 374.670156 280.972246 
L 375.670156 280.921176 
L 376.670156 280.876937 
L 377.670156 280.854917 
L 378.670156 280.83936 
L 379.670156 280.796914 
L 380.670156 280.782046 
L 381.670156 280.759318 
L 382.670156 280.739002 
L 383.670156 280.733205 
L 384.670156 280.730723 
L 385.670156 280.73378 
L 386.670156 280.745376 
L 387.670156 280.762296 
L 388.670156 280.793957 
L 389.670156 280.80804 
L 390.670156 280.860712 
L 391.670156 280.909801 
L 392.670156 280.964502 
L 393.670156 281.00885 
L 394.670156 281.078842 
L 395.670156 281.129224 
L 396.670156 281.183131 
L 397.670156 281.252571 
L 398.670156 281.309958 
L 399.670156 281.360124 
L 400.670156 281.437286 
L 401.670156 281.495476 
L 402.670156 281.556114 
L 403.670156 281.593315 
L 404.670156 281.658407 
L 405.670156 281.763537 
L 406.670156 281.823839 
L 407.670156 281.92016 
L 408.670156 281.952164 
L 409.670156 282.003181 
L 410.670156 282.119973 
L 411.670156 282.155419 
L 412.670156 282.2113 
L 413.670156 282.241675 
L 414.670156 282.330062 
L 415.670156 282.374826 
L 416.670156 282.455714 
L 417.670156 282.51586 
L 418.670156 282.578946 
L 419.670156 282.601894 
L 420.670156 282.618064 
L 421.670156 282.646993 
L 422.670156 282.677344 
L 423.670156 282.689919 
L 424.670156 282.714798 
L 425.670156 282.726882 
L 426.670156 282.730644 
L 427.670156 282.726208 
L 428.670156 282.713869 
L 429.670156 282.699456 
L 430.670156 282.683383 
L 431.670156 282.647862 
L 432.670156 282.627928 
L 433.670156 282.571338 
L 435.030862 282.504145 
" clip-path="url(#pbc6b4e8f8b)" style="fill: none; stroke: #ff7f0e; stroke-linecap: round"/>
          <path d="M 431.030862 279.730658 
L 431.911231 280.205989 
L 432.789138 280.686243 
L 433.639851 281.220884 
L 434.942025 281.908331 
L 434.014672 281.934346 
L 433.102998 282.347066 
L 432.192734 282.762605 
L 430.850238 283.369409 
L 431.505137 282.730658 
L 431.557101 281.730658 
L 431.616191 279.730658 
z
" clip-path="url(#pbc6b4e8f8b)" style="fill: #ffffff; stroke: #ffffff; stroke-width: 3; stroke-linecap: round"/>
          <path d="M 431.030862 279.730658 
L 431.911231 280.205989 
L 432.789138 280.686243 
L 433.639851 281.220884 
L 434.942025 281.908331 
L 434.014672 281.934346 
L 433.102998 282.347066 
L 432.192734 282.762605 
L 430.850238 283.369409 
L 431.505137 282.730658 
L 431.557101 281.730658 
L 431.616191 279.730658 
z
" clip-path="url(#pbc6b4e8f8b)" style="fill: #ffffff; stroke: #ff7f0e; stroke-linecap: round"/>
          <path d="M 450.103233 305.09038 
" clip-path="url(#pbc6b4e8f8b)" style="fill: none; stroke-dasharray: 3.7,1.6; stroke-dashoffset: 0; stroke: #2ca02c"/>
          <path d="M 449.103233 305.09038 
L 451.103233 306.09038 
L 451.103233 304.09038 
z
" clip-path="url(#pbc6b4e8f8b)" style="fill: #2ca02c; stroke: #2ca02c; stroke-linejoin: miter"/>
          <g id="patch_10">
           <path d="M 63.290625 321.621875 
L 63.290625 10.8 
" style="fill: none; stroke: #000000; stroke-width: 0.8; stroke-linejoin: miter; stroke-linecap: square"/>
          </g>
          <g id="text_11">
           <g id="patch_11">
            <path d="M 301.015332 150.128273 
L 322.320019 150.128273 
Q 324.320019 150.128273 324.320019 148.128273 
L 324.320019 138.450148 
Q 324.320019 136.450148 322.320019 136.450148 
L 301.015332 136.450148 
Q 299.015332 136.450148 299.015332 138.450148 
L 299.015332 148.128273 
Q 299.015332 150.128273 301.015332 150.128273 
z
" style="fill: #ffffff; opacity: 0.6"/>
           </g>
           <!-- ANC -->
           <g transform="translate(301.015332 146.048586) scale(0.1 -0.1)">
            <defs>
             <path id="DejaVuSans-4e" d="M 628 4666 
L 1478 4666 
L 3547 763 
L 3547 4666 
L 4159 4666 
L 4159 0 
L 3309 0 
L 1241 3903 
L 1241 0 
L 628 0 
L 628 4666 
z
" transform="scale(0.015625)"/>
            </defs>
            <use xlink:href="#DejaVuSans-41"/>
            <use xlink:href="#DejaVuSans-4e" x="68.408203"/>
            <use xlink:href="#DejaVuSans-43" x="143.212891"/>
           </g>
          </g>
         </g>
        </g>
        <defs>
         <clipPath id="pbc6b4e8f8b">
          <rect x="63.290625" y="10.8" width="540.309375" height="310.821875"/>
         </clipPath>
        </defs>
       </g>
      </g>
     </g>
    </g>
   </g>
  </g>
 </g>
</svg>
