<?xml version="1.0" encoding="utf-8" standalone="no"?>
<!DOCTYPE svg PUBLIC "-//W3C//DTD SVG 1.1//EN"
  "http://www.w3.org/Graphics/SVG/1.1/DTD/svg11.dtd">
<svg xmlns:xlink="http://www.w3.org/1999/xlink" width="614.4pt" height="345.6pt" viewBox="0 0 614.4 345.6" xmlns="http://www.w3.org/2000/svg" version="1.1">
 <metadata>
  <rdf:RDF xmlns:dc="http://purl.org/dc/elements/1.1/" xmlns:cc="http://creativecommons.org/ns#" xmlns:rdf="http://www.w3.org/1999/02/22-rdf-syntax-ns#">
   <cc:Work>
    <dc:type rdf:resource="http://purl.org/dc/dcmitype/StillImage"/>
    <dc:date>2024-04-17T19:40:17.614509</dc:date>
    <dc:format>image/svg+xml</dc:format>
    <dc:creator>
     <cc:Agent>
      <dc:title>Matplotlib v3.7.1, https://matplotlib.org/</dc:title>
     </cc:Agent>
    </dc:creator>
   </cc:Work>
  </rdf:RDF>
 </metadata>
 <defs>
  <style type="text/css">*{stroke-linejoin: round; stroke-linecap: butt}</style>
 </defs>
 <g id="figure_1">
  <g id="patch_1">
   <path d="M 0 345.6 
L 614.4 345.6 
L 614.4 0 
L 0 0 
z
" style="fill: #ffffff"/>
  </g>
  <g id="axes_1">
   <g id="patch_2">
    <path d="M 63.290625 321.621875 
L 603.6 321.621875 
L 603.6 10.8 
L 63.290625 10.8 
z
" style="fill: #ffffff"/>
   </g>
   <path d="M 541.081682 305.800097 
L 540.081682 305.76866 
L 539.081682 305.73172 
L 538.081682 305.633973 
L 537.081682 305.601452 
L 536.081682 305.527827 
L 535.081682 305.489262 
L 534.081682 305.453848 
L 533.081682 305.396209 
L 532.081682 305.325822 
L 531.081682 305.273858 
L 530.081682 305.214768 
L 529.081682 305.126447 
L 528.081682 305.080303 
L 527.081682 305.037892 
L 526.081682 305.007399 
L 525.081682 304.981355 
L 524.081682 304.960154 
L 523.081682 304.905853 
L 522.081682 304.877916 
L 521.081682 304.848192 
L 520.081682 304.822797 
L 519.081682 304.811597 
L 518.081682 304.801473 
L 517.081682 304.801677 
L 516.081682 304.811187 
L 515.081682 304.82284 
L 514.081682 304.85387 
L 513.081682 304.865038 
L 512.081682 304.895155 
L 511.081682 304.954932 
L 510.081682 304.992124 
L 509.081682 305.03122 
L 508.081682 305.073659 
L 507.081682 305.106424 
L 506.081682 305.173851 
L 505.081682 305.212977 
L 504.081682 305.255651 
L 503.081682 305.326232 
L 502.081682 305.362623 
L 501.081682 305.421026 
L 500.081682 305.531979 
L 499.081682 305.602637 
L 498.081682 305.715577 
L 497.081682 305.76135 
L 496.081682 305.822633 
L 495.081682 305.871132 
L 494.081682 305.951955 
L 493.081682 306.070474 
L 492.081682 306.140684 
L 491.081682 306.223947 
L 490.081682 306.257089 
L 489.081682 306.308326 
L 488.081682 306.376724 
L 487.081682 306.44294 
L 486.081682 306.519857 
L 485.081682 306.547172 
L 484.081682 306.57365 
L 483.081682 306.5963 
L 482.081682 306.615832 
L 481.081682 306.642226 
L 480.081682 306.691997 
L 479.081682 306.72707 
L 478.081682 306.762935 
L 477.081682 306.778303 
L 476.081682 306.794072 
L 475.081682 306.797484 
L 474.081682 306.799902 
L 473.081682 306.799416 
L 472.081682 306.797487 
L 471.081682 306.78423 
L 470.081682 306.775839 
L 469.081682 306.754302 
L 468.081682 306.73127 
L 467.081682 306.714036 
L 466.081682 306.695574 
L 465.081682 306.675121 
L 464.081682 306.658522 
L 463.081682 306.595743 
L 462.081682 306.520478 
L 461.081682 306.487839 
L 460.081682 306.420275 
L 459.081682 306.366228 
L 458.081682 306.332524 
L 457.081682 306.242398 
L 456.081682 306.213863 
L 455.081682 306.182377 
L 453.491643 306.151366 
" clip-path="url(#pe2dc5271b9)" style="fill: none; stroke-dasharray: 3.7,1.6; stroke-dashoffset: 0; stroke: #2ca02c"/>
   <g id="patch_3">
    <path d="M 272.466224 10.8 
L 272.466224 229.599979 
M 347.898547 10.8 
L 347.898547 229.599979 
" clip-path="url(#pe2dc5271b9)" style="fill: none; stroke: #ffffff; stroke-width: 3; stroke-linejoin: miter"/>
    <path d="M 272.466224 10.8 
L 272.466224 229.599979 
M 347.898547 10.8 
L 347.898547 229.599979 
" clip-path="url(#pe2dc5271b9)" style="fill: none; stroke: #1f77b4; stroke-linejoin: miter"/>
    <g id="PolyCollection_1">
     <path d="M 347.898547 10.8 
L 272.466224 10.8 
L 272.466224 229.599979 
L 347.898547 229.599979 
L 347.898547 229.599979 
L 347.898547 10.8 
z
" clip-path="url(#pe2dc5271b9)" style="fill: #1f77b4; fill-opacity: 0.5"/>
    </g>
    <g id="patch_4">
     <path d="M 106.785195 229.599979 
L 106.785195 313.491915 
L 106.785195 313.491915 
L 104.289016 315.05221 
L 101.513789 316.530385 
L 98.270594 318.00856 
L 94.480523 319.486734 
L 90.051358 320.964909 
L 87.850142 321.621875 
M 134.70921 229.599979 
L 134.70921 313.491915 
L 134.70921 313.491915 
L 137.205388 315.05221 
L 139.980616 316.530385 
L 143.22381 318.00856 
L 147.013882 319.486734 
L 151.443046 320.964909 
L 153.644262 321.621875 
L 153.644262 321.621875 
" clip-path="url(#pe2dc5271b9)" style="fill: none; stroke: #ffffff; stroke-width: 3; stroke-linejoin: miter"/>
     <path d="M 106.785195 229.599979 
L 106.785195 313.491915 
L 106.785195 313.491915 
L 104.289016 315.05221 
L 101.513789 316.530385 
L 98.270594 318.00856 
L 94.480523 319.486734 
L 90.051358 320.964909 
L 87.850142 321.621875 
M 134.70921 229.599979 
L 134.70921 313.491915 
L 134.70921 313.491915 
L 137.205388 315.05221 
L 139.980616 316.530385 
L 143.22381 318.00856 
L 147.013882 319.486734 
L 151.443046 320.964909 
L 153.644262 321.621875 
L 153.644262 321.621875 
" clip-path="url(#pe2dc5271b9)" style="fill: none; stroke: #ff7f0e; stroke-linejoin: miter"/>
     <g id="PolyCollection_2">
      <path d="M 134.70921 229.599979 
L 106.785195 229.599979 
L 106.785195 313.491915 
L 106.785195 313.491915 
L 106.663801 313.574036 
L 106.541351 313.656157 
L 106.417837 313.738278 
L 106.29325 313.820398 
L 106.167578 313.902519 
L 106.040815 313.98464 
L 105.912949 314.066761 
L 105.783971 314.148882 
L 105.653872 314.231002 
L 105.522642 314.313123 
L 105.390271 314.395244 
L 105.256748 314.477365 
L 105.122065 314.559486 
L 104.986211 314.641606 
L 104.849176 314.723727 
L 104.710949 314.805848 
L 104.571521 314.887969 
L 104.43088 314.97009 
L 104.289016 315.05221 
L 104.145919 315.134331 
L 104.001578 315.216452 
L 103.855982 315.298573 
L 103.70912 315.380694 
L 103.560981 315.462814 
L 103.411554 315.544935 
L 103.260827 315.627056 
L 103.108791 315.709177 
L 102.955432 315.791298 
L 102.80074 315.873419 
L 102.644703 315.955539 
L 102.487309 316.03766 
L 102.328547 316.119781 
L 102.168404 316.201902 
L 102.006869 316.284023 
L 101.84393 316.366143 
L 101.679574 316.448264 
L 101.513789 316.530385 
L 101.346562 316.612506 
L 101.177882 316.694627 
L 101.007735 316.776747 
L 100.836108 316.858868 
L 100.66299 316.940989 
L 100.488366 317.02311 
L 100.312223 317.105231 
L 100.13455 317.187351 
L 99.955331 317.269472 
L 99.774555 317.351593 
L 99.592206 317.433714 
L 99.408272 317.515835 
L 99.222739 317.597955 
L 99.035593 317.680076 
L 98.84682 317.762197 
L 98.656405 317.844318 
L 98.464335 317.926439 
L 98.270594 318.00856 
L 98.07517 318.09068 
L 97.878046 318.172801 
L 97.679208 318.254922 
L 97.478641 318.337043 
L 97.276331 318.419164 
L 97.072261 318.501284 
L 96.866418 318.583405 
L 96.658784 318.665526 
L 96.449345 318.747647 
L 96.238085 318.829768 
L 96.024989 318.911888 
L 95.81004 318.994009 
L 95.593221 319.07613 
L 95.374518 319.158251 
L 95.153913 319.240372 
L 94.93139 319.322492 
L 94.706932 319.404613 
L 94.480523 319.486734 
L 94.252145 319.568855 
L 94.021781 319.650976 
L 93.789415 319.733096 
L 93.555028 319.815217 
L 93.318604 319.897338 
L 93.080123 319.979459 
L 92.83957 320.06158 
L 92.596924 320.1437 
L 92.352169 320.225821 
L 92.105286 320.307942 
L 91.856257 320.390063 
L 91.605062 320.472184 
L 91.351683 320.554305 
L 91.096101 320.636425 
L 90.838297 320.718546 
L 90.578252 320.800667 
L 90.315946 320.882788 
L 90.051358 320.964909 
L 89.784471 321.047029 
L 89.515263 321.12915 
L 89.243714 321.211271 
L 88.969804 321.293392 
L 88.693513 321.375513 
L 88.414819 321.457633 
L 88.133703 321.539754 
L 87.850142 321.621875 
L 153.644262 321.621875 
L 153.644262 321.621875 
L 153.360702 321.539754 
L 153.079585 321.457633 
L 152.800892 321.375513 
L 152.5246 321.293392 
L 152.250691 321.211271 
L 151.979142 321.12915 
L 151.709934 321.047029 
L 151.443046 320.964909 
L 151.178459 320.882788 
L 150.916153 320.800667 
L 150.656107 320.718546 
L 150.398303 320.636425 
L 150.142721 320.554305 
L 149.889342 320.472184 
L 149.638148 320.390063 
L 149.389118 320.307942 
L 149.142235 320.225821 
L 148.89748 320.1437 
L 148.654835 320.06158 
L 148.414281 319.979459 
L 148.175801 319.897338 
L 147.939376 319.815217 
L 147.704989 319.733096 
L 147.472623 319.650976 
L 147.24226 319.568855 
L 147.013882 319.486734 
L 146.787472 319.404613 
L 146.563015 319.322492 
L 146.340492 319.240372 
L 146.119887 319.158251 
L 145.901183 319.07613 
L 145.684365 318.994009 
L 145.469416 318.911888 
L 145.256319 318.829768 
L 145.045059 318.747647 
L 144.835621 318.665526 
L 144.627987 318.583405 
L 144.422143 318.501284 
L 144.218074 318.419164 
L 144.015763 318.337043 
L 143.815197 318.254922 
L 143.616359 318.172801 
L 143.419235 318.09068 
L 143.22381 318.00856 
L 143.03007 317.926439 
L 142.838 317.844318 
L 142.647585 317.762197 
L 142.458812 317.680076 
L 142.271665 317.597955 
L 142.086132 317.515835 
L 141.902198 317.433714 
L 141.71985 317.351593 
L 141.539073 317.269472 
L 141.359855 317.187351 
L 141.182181 317.105231 
L 141.006039 317.02311 
L 140.831415 316.940989 
L 140.658296 316.858868 
L 140.48667 316.776747 
L 140.316523 316.694627 
L 140.147842 316.612506 
L 139.980616 316.530385 
L 139.814831 316.448264 
L 139.650475 316.366143 
L 139.487535 316.284023 
L 139.326 316.201902 
L 139.165858 316.119781 
L 139.007095 316.03766 
L 138.849702 315.955539 
L 138.693665 315.873419 
L 138.538973 315.791298 
L 138.385614 315.709177 
L 138.233577 315.627056 
L 138.082851 315.544935 
L 137.933424 315.462814 
L 137.785285 315.380694 
L 137.638423 315.298573 
L 137.492827 315.216452 
L 137.348485 315.134331 
L 137.205388 315.05221 
L 137.063525 314.97009 
L 136.922884 314.887969 
L 136.783455 314.805848 
L 136.645228 314.723727 
L 136.508193 314.641606 
L 136.372339 314.559486 
L 136.237656 314.477365 
L 136.104134 314.395244 
L 135.971763 314.313123 
L 135.840532 314.231002 
L 135.710433 314.148882 
L 135.581456 314.066761 
L 135.45359 313.98464 
L 135.326826 313.902519 
L 135.201155 313.820398 
L 135.076567 313.738278 
L 134.953053 313.656157 
L 134.830604 313.574036 
L 134.70921 313.491915 
L 134.70921 313.491915 
L 134.70921 229.599979 
z
" clip-path="url(#pe2dc5271b9)" style="fill: #ff7f0e; fill-opacity: 0.5"/>
     </g>
     <g id="patch_5">
      <path d="M 546.484776 72.964375 
L 546.484776 321.621875 
M 579.040483 72.964375 
L 579.040483 321.621875 
" clip-path="url(#pe2dc5271b9)" style="fill: none; stroke: #ffffff; stroke-width: 3; stroke-linejoin: miter"/>
      <path d="M 546.484776 72.964375 
L 546.484776 321.621875 
M 579.040483 72.964375 
L 579.040483 321.621875 
" clip-path="url(#pe2dc5271b9)" style="fill: none; stroke: #2ca02c; stroke-linejoin: miter"/>
      <g id="PolyCollection_3">
       <path d="M 579.040483 72.964375 
L 546.484776 72.964375 
L 546.484776 321.621875 
L 579.040483 321.621875 
L 579.040483 321.621875 
L 579.040483 72.964375 
z
" clip-path="url(#pe2dc5271b9)" style="fill: #2ca02c; fill-opacity: 0.5"/>
      </g>
      <g id="patch_6">
       <path d="M 424.856465 279.657651 
L 424.856465 292.996627 
L 433.56766 292.996627 
L 433.56766 293.592986 
L 424.856465 293.592986 
L 424.856465 312.700826 
L 424.856465 312.700826 
L 422.190365 313.692054 
L 418.912345 314.683282 
L 414.881959 315.674509 
L 409.926522 316.665737 
L 403.83372 317.656964 
L 396.342506 318.648192 
L 387.131917 319.63942 
L 375.807325 320.630647 
L 361.883527 321.621875 
M 448.08855 279.657651 
L 448.08855 292.996627 
L 439.377355 292.996627 
L 439.377355 293.592986 
L 448.08855 293.592986 
L 448.08855 312.700826 
L 448.08855 312.700826 
L 450.754649 313.692054 
L 454.032669 314.683282 
L 458.063056 315.674509 
L 463.018492 316.665737 
L 469.111294 317.656964 
L 476.602509 318.648192 
L 485.813098 319.63942 
L 497.137689 320.630647 
L 511.061488 321.621875 
L 511.061488 321.621875 
" clip-path="url(#pe2dc5271b9)" style="fill: none; stroke: #ffffff; stroke-width: 3; stroke-linejoin: miter"/>
       <path d="M 424.856465 279.657651 
L 424.856465 292.996627 
L 433.56766 292.996627 
L 433.56766 293.592986 
L 424.856465 293.592986 
L 424.856465 312.700826 
L 424.856465 312.700826 
L 422.190365 313.692054 
L 418.912345 314.683282 
L 414.881959 315.674509 
L 409.926522 316.665737 
L 403.83372 317.656964 
L 396.342506 318.648192 
L 387.131917 319.63942 
L 375.807325 320.630647 
L 361.883527 321.621875 
M 448.08855 279.657651 
L 448.08855 292.996627 
L 439.377355 292.996627 
L 439.377355 293.592986 
L 448.08855 293.592986 
L 448.08855 312.700826 
L 448.08855 312.700826 
L 450.754649 313.692054 
L 454.032669 314.683282 
L 458.063056 315.674509 
L 463.018492 316.665737 
L 469.111294 317.656964 
L 476.602509 318.648192 
L 485.813098 319.63942 
L 497.137689 320.630647 
L 511.061488 321.621875 
L 511.061488 321.621875 
" clip-path="url(#pe2dc5271b9)" style="fill: none; stroke: #d62728; stroke-linejoin: miter"/>
       <g id="PolyCollection_4">
        <path d="M 448.08855 279.657651 
L 424.856465 279.657651 
L 424.856465 292.996627 
L 433.56766 292.996627 
L 433.56766 293.592986 
L 424.856465 293.592986 
L 424.856465 312.700826 
L 424.856465 312.700826 
L 424.636208 312.790938 
L 424.411775 312.881049 
L 424.183087 312.971161 
L 423.950062 313.061273 
L 423.712618 313.151384 
L 423.470673 313.241496 
L 423.224139 313.331607 
L 422.972931 313.421719 
L 422.71696 313.511831 
L 422.456136 313.601942 
L 422.190365 313.692054 
L 421.919555 313.782165 
L 421.643611 313.872277 
L 421.362434 313.962389 
L 421.075925 314.0525 
L 420.783984 314.142612 
L 420.486507 314.232723 
L 420.18339 314.322835 
L 419.874525 314.412947 
L 419.559804 314.503058 
L 419.239115 314.59317 
L 418.912345 314.683282 
L 418.57938 314.773393 
L 418.240101 314.863505 
L 417.894388 314.953616 
L 417.542121 315.043728 
L 417.183174 315.13384 
L 416.81742 315.223951 
L 416.444732 315.314063 
L 416.064977 315.404174 
L 415.678021 315.494286 
L 415.283728 315.584398 
L 414.881959 315.674509 
L 414.472571 315.764621 
L 414.055421 315.854732 
L 413.630361 315.944844 
L 413.197241 316.034956 
L 412.755909 316.125067 
L 412.306209 316.215179 
L 411.847981 316.30529 
L 411.381065 316.395402 
L 410.905296 316.485514 
L 410.420505 316.575625 
L 409.926522 316.665737 
L 409.423173 316.755848 
L 408.910279 316.84596 
L 408.38766 316.936072 
L 407.855131 317.026183 
L 407.312505 317.116295 
L 406.75959 317.206406 
L 406.19619 317.296518 
L 405.622108 317.38663 
L 405.037141 317.476741 
L 404.441082 317.566853 
L 403.83372 317.656964 
L 403.214842 317.747076 
L 402.58423 317.837188 
L 401.94166 317.927299 
L 401.286906 318.017411 
L 400.619737 318.107522 
L 399.939917 318.197634 
L 399.247207 318.287746 
L 398.541363 318.377857 
L 397.822134 318.467969 
L 397.089268 318.55808 
L 396.342506 318.648192 
L 395.581584 318.738304 
L 394.806234 318.828415 
L 394.016182 318.918527 
L 393.21115 319.008638 
L 392.390853 319.09875 
L 391.555002 319.188862 
L 390.703302 319.278973 
L 389.835453 319.369085 
L 388.951148 319.459197 
L 388.050075 319.549308 
L 387.131917 319.63942 
L 386.196349 319.729531 
L 385.243042 319.819643 
L 384.271658 319.909755 
L 383.281856 319.999866 
L 382.273285 320.089978 
L 381.245591 320.180089 
L 380.19841 320.270201 
L 379.131373 320.360313 
L 378.044104 320.450424 
L 376.936218 320.540536 
L 375.807325 320.630647 
L 374.657027 320.720759 
L 373.484918 320.810871 
L 372.290583 320.900982 
L 371.073603 320.991094 
L 369.833546 321.081205 
L 368.569977 321.171317 
L 367.282448 321.261429 
L 365.970506 321.35154 
L 364.633688 321.441652 
L 363.271522 321.531763 
L 361.883527 321.621875 
L 511.061488 321.621875 
L 511.061488 321.621875 
L 509.673493 321.531763 
L 508.311327 321.441652 
L 506.974508 321.35154 
L 505.662566 321.261429 
L 504.375038 321.171317 
L 503.111468 321.081205 
L 501.871412 320.991094 
L 500.654431 320.900982 
L 499.460097 320.810871 
L 498.287988 320.720759 
L 497.137689 320.630647 
L 496.008797 320.540536 
L 494.900911 320.450424 
L 493.813642 320.360313 
L 492.746605 320.270201 
L 491.699424 320.180089 
L 490.671729 320.089978 
L 489.663159 319.999866 
L 488.673356 319.909755 
L 487.701973 319.819643 
L 486.748665 319.729531 
L 485.813098 319.63942 
L 484.894939 319.549308 
L 483.993867 319.459197 
L 483.109562 319.369085 
L 482.241713 319.278973 
L 481.390013 319.188862 
L 480.554162 319.09875 
L 479.733865 319.008638 
L 478.928833 318.918527 
L 478.138781 318.828415 
L 477.363431 318.738304 
L 476.602509 318.648192 
L 475.855747 318.55808 
L 475.12288 318.467969 
L 474.403652 318.377857 
L 473.697807 318.287746 
L 473.005097 318.197634 
L 472.325278 318.107522 
L 471.658109 318.017411 
L 471.003355 317.927299 
L 470.360785 317.837188 
L 469.730172 317.747076 
L 469.111294 317.656964 
L 468.503933 317.566853 
L 467.907874 317.476741 
L 467.322906 317.38663 
L 466.748824 317.296518 
L 466.185425 317.206406 
L 465.63251 317.116295 
L 465.089884 317.026183 
L 464.557355 316.936072 
L 464.034736 316.84596 
L 463.521842 316.755848 
L 463.018492 316.665737 
L 462.524509 316.575625 
L 462.039719 316.485514 
L 461.563949 316.395402 
L 461.097033 316.30529 
L 460.638806 316.215179 
L 460.189105 316.125067 
L 459.747773 316.034956 
L 459.314654 315.944844 
L 458.889594 315.854732 
L 458.472444 315.764621 
L 458.063056 315.674509 
L 457.661287 315.584398 
L 457.266994 315.494286 
L 456.880038 315.404174 
L 456.500283 315.314063 
L 456.127594 315.223951 
L 455.761841 315.13384 
L 455.402894 315.043728 
L 455.050626 314.953616 
L 454.704914 314.863505 
L 454.365635 314.773393 
L 454.032669 314.683282 
L 453.7059 314.59317 
L 453.385211 314.503058 
L 453.070489 314.412947 
L 452.761624 314.322835 
L 452.458507 314.232723 
L 452.16103 314.142612 
L 451.869089 314.0525 
L 451.582581 313.962389 
L 451.301404 313.872277 
L 451.025459 313.782165 
L 450.754649 313.692054 
L 450.488879 313.601942 
L 450.228054 313.511831 
L 449.972083 313.421719 
L 449.720875 313.331607 
L 449.474342 313.241496 
L 449.232396 313.151384 
L 448.994953 313.061273 
L 448.761928 312.971161 
L 448.533239 312.881049 
L 448.308806 312.790938 
L 448.08855 312.700826 
L 448.08855 312.700826 
L 448.08855 293.592986 
L 439.377355 293.592986 
L 439.377355 292.996627 
L 448.08855 292.996627 
L 448.08855 279.657651 
z
" clip-path="url(#pe2dc5271b9)" style="fill: #d62728; fill-opacity: 0.5"/>
       </g>
       <g id="matplotlib.axis_1">
        <g id="xtick_1">
         <g id="line2d_1"/>
         <g id="text_1">
          <!-- OUT -->
          <g transform="translate(110.097984 332.720312) scale(0.1 -0.1)">
           <defs>
            <path id="DejaVuSans-4f" d="M 2522 4238 
Q 1834 4238 1429 3725 
Q 1025 3213 1025 2328 
Q 1025 1447 1429 934 
Q 1834 422 2522 422 
Q 3209 422 3611 934 
Q 4013 1447 4013 2328 
Q 4013 3213 3611 3725 
Q 3209 4238 2522 4238 
z
M 2522 4750 
Q 3503 4750 4090 4092 
Q 4678 3434 4678 2328 
Q 4678 1225 4090 567 
Q 3503 -91 2522 -91 
Q 1538 -91 948 565 
Q 359 1222 359 2328 
Q 359 3434 948 4092 
Q 1538 4750 2522 4750 
z
" transform="scale(0.015625)"/>
            <path id="DejaVuSans-55" d="M 556 4666 
L 1191 4666 
L 1191 1831 
Q 1191 1081 1462 751 
Q 1734 422 2344 422 
Q 2950 422 3222 751 
Q 3494 1081 3494 1831 
L 3494 4666 
L 4128 4666 
L 4128 1753 
Q 4128 841 3676 375 
Q 3225 -91 2344 -91 
Q 1459 -91 1007 375 
Q 556 841 556 1753 
L 556 4666 
z
" transform="scale(0.015625)"/>
            <path id="DejaVuSans-54" d="M -19 4666 
L 3928 4666 
L 3928 4134 
L 2272 4134 
L 2272 0 
L 1638 0 
L 1638 4134 
L -19 4134 
L -19 4666 
z
" transform="scale(0.015625)"/>
           </defs>
           <use xlink:href="#DejaVuSans-4f"/>
           <use xlink:href="#DejaVuSans-55" x="78.710938"/>
           <use xlink:href="#DejaVuSans-54" x="151.904297"/>
          </g>
         </g>
        </g>
        <g id="xtick_2">
         <g id="line2d_2"/>
         <g id="text_2">
          <!-- SRC -->
          <g transform="translate(552.872786 332.720312) scale(0.1 -0.1)">
           <defs>
            <path id="DejaVuSans-53" d="M 3425 4513 
L 3425 3897 
Q 3066 4069 2747 4153 
Q 2428 4238 2131 4238 
Q 1616 4238 1336 4038 
Q 1056 3838 1056 3469 
Q 1056 3159 1242 3001 
Q 1428 2844 1947 2747 
L 2328 2669 
Q 3034 2534 3370 2195 
Q 3706 1856 3706 1288 
Q 3706 609 3251 259 
Q 2797 -91 1919 -91 
Q 1588 -91 1214 -16 
Q 841 59 441 206 
L 441 856 
Q 825 641 1194 531 
Q 1563 422 1919 422 
Q 2459 422 2753 634 
Q 3047 847 3047 1241 
Q 3047 1584 2836 1778 
Q 2625 1972 2144 2069 
L 1759 2144 
Q 1053 2284 737 2584 
Q 422 2884 422 3419 
Q 422 4038 858 4394 
Q 1294 4750 2059 4750 
Q 2388 4750 2728 4690 
Q 3069 4631 3425 4513 
z
" transform="scale(0.015625)"/>
            <path id="DejaVuSans-52" d="M 2841 2188 
Q 3044 2119 3236 1894 
Q 3428 1669 3622 1275 
L 4263 0 
L 3584 0 
L 2988 1197 
Q 2756 1666 2539 1819 
Q 2322 1972 1947 1972 
L 1259 1972 
L 1259 0 
L 628 0 
L 628 4666 
L 2053 4666 
Q 2853 4666 3247 4331 
Q 3641 3997 3641 3322 
Q 3641 2881 3436 2590 
Q 3231 2300 2841 2188 
z
M 1259 4147 
L 1259 2491 
L 2053 2491 
Q 2509 2491 2742 2702 
Q 2975 2913 2975 3322 
Q 2975 3731 2742 3939 
Q 2509 4147 2053 4147 
L 1259 4147 
z
" transform="scale(0.015625)"/>
            <path id="DejaVuSans-43" d="M 4122 4306 
L 4122 3641 
Q 3803 3938 3442 4084 
Q 3081 4231 2675 4231 
Q 1875 4231 1450 3742 
Q 1025 3253 1025 2328 
Q 1025 1406 1450 917 
Q 1875 428 2675 428 
Q 3081 428 3442 575 
Q 3803 722 4122 1019 
L 4122 359 
Q 3791 134 3420 21 
Q 3050 -91 2638 -91 
Q 1578 -91 968 557 
Q 359 1206 359 2328 
Q 359 3453 968 4101 
Q 1578 4750 2638 4750 
Q 3056 4750 3426 4639 
Q 3797 4528 4122 4306 
z
" transform="scale(0.015625)"/>
           </defs>
           <use xlink:href="#DejaVuSans-53"/>
           <use xlink:href="#DejaVuSans-52" x="63.476562"/>
           <use xlink:href="#DejaVuSans-43" x="127.958984"/>
          </g>
         </g>
        </g>
        <g id="xtick_3">
         <g id="line2d_3"/>
         <g id="text_3">
          <!-- TAR -->
          <g transform="translate(426.91157 332.720312) scale(0.1 -0.1)">
           <defs>
            <path id="DejaVuSans-41" d="M 2188 4044 
L 1331 1722 
L 3047 1722 
L 2188 4044 
z
M 1831 4666 
L 2547 4666 
L 4325 0 
L 3669 0 
L 3244 1197 
L 1141 1197 
L 716 0 
L 50 0 
L 1831 4666 
z
" transform="scale(0.015625)"/>
           </defs>
           <use xlink:href="#DejaVuSans-54"/>
           <use xlink:href="#DejaVuSans-41" x="53.333984"/>
           <use xlink:href="#DejaVuSans-52" x="121.742188"/>
          </g>
         </g>
        </g>
       </g>
       <g id="matplotlib.axis_2">
        <g id="ytick_1">
         <g id="line2d_4">
          <defs>
           <path id="ma665737e00" d="M 0 0 
L -3.5 0 
" style="stroke: #000000; stroke-width: 0.8"/>
          </defs>
          <g>
           <use xlink:href="#ma665737e00" x="63.290625" y="321.621875" style="stroke: #000000; stroke-width: 0.8"/>
          </g>
         </g>
         <g id="text_4">
          <!-- 0 -->
          <g transform="translate(49.928125 325.421094) scale(0.1 -0.1)">
           <defs>
            <path id="DejaVuSans-30" d="M 2034 4250 
Q 1547 4250 1301 3770 
Q 1056 3291 1056 2328 
Q 1056 1369 1301 889 
Q 1547 409 2034 409 
Q 2525 409 2770 889 
Q 3016 1369 3016 2328 
Q 3016 3291 2770 3770 
Q 2525 4250 2034 4250 
z
M 2034 4750 
Q 2819 4750 3233 4129 
Q 3647 3509 3647 2328 
Q 3647 1150 3233 529 
Q 2819 -91 2034 -91 
Q 1250 -91 836 529 
Q 422 1150 422 2328 
Q 422 3509 836 4129 
Q 1250 4750 2034 4750 
z
" transform="scale(0.015625)"/>
           </defs>
           <use xlink:href="#DejaVuSans-30"/>
          </g>
         </g>
        </g>
        <g id="ytick_2">
         <g id="line2d_5">
          <g>
           <use xlink:href="#ma665737e00" x="63.290625" y="260.768882" style="stroke: #000000; stroke-width: 0.8"/>
          </g>
         </g>
         <g id="text_5">
          <!-- 5000 -->
          <g transform="translate(30.840625 264.568101) scale(0.1 -0.1)">
           <defs>
            <path id="DejaVuSans-35" d="M 691 4666 
L 3169 4666 
L 3169 4134 
L 1269 4134 
L 1269 2991 
Q 1406 3038 1543 3061 
Q 1681 3084 1819 3084 
Q 2600 3084 3056 2656 
Q 3513 2228 3513 1497 
Q 3513 744 3044 326 
Q 2575 -91 1722 -91 
Q 1428 -91 1123 -41 
Q 819 9 494 109 
L 494 744 
Q 775 591 1075 516 
Q 1375 441 1709 441 
Q 2250 441 2565 725 
Q 2881 1009 2881 1497 
Q 2881 1984 2565 2268 
Q 2250 2553 1709 2553 
Q 1456 2553 1204 2497 
Q 953 2441 691 2322 
L 691 4666 
z
" transform="scale(0.015625)"/>
           </defs>
           <use xlink:href="#DejaVuSans-35"/>
           <use xlink:href="#DejaVuSans-30" x="63.623047"/>
           <use xlink:href="#DejaVuSans-30" x="127.246094"/>
           <use xlink:href="#DejaVuSans-30" x="190.869141"/>
          </g>
         </g>
        </g>
        <g id="ytick_3">
         <g id="line2d_6">
          <g>
           <use xlink:href="#ma665737e00" x="63.290625" y="199.915889" style="stroke: #000000; stroke-width: 0.8"/>
          </g>
         </g>
         <g id="text_6">
          <!-- 10000 -->
          <g transform="translate(24.478125 203.715108) scale(0.1 -0.1)">
           <defs>
            <path id="DejaVuSans-31" d="M 794 531 
L 1825 531 
L 1825 4091 
L 703 3866 
L 703 4441 
L 1819 4666 
L 2450 4666 
L 2450 531 
L 3481 531 
L 3481 0 
L 794 0 
L 794 531 
z
" transform="scale(0.015625)"/>
           </defs>
           <use xlink:href="#DejaVuSans-31"/>
           <use xlink:href="#DejaVuSans-30" x="63.623047"/>
           <use xlink:href="#DejaVuSans-30" x="127.246094"/>
           <use xlink:href="#DejaVuSans-30" x="190.869141"/>
           <use xlink:href="#DejaVuSans-30" x="254.492188"/>
          </g>
         </g>
        </g>
        <g id="ytick_4">
         <g id="line2d_7">
          <g>
           <use xlink:href="#ma665737e00" x="63.290625" y="139.062896" style="stroke: #000000; stroke-width: 0.8"/>
          </g>
         </g>
         <g id="text_7">
          <!-- 15000 -->
          <g transform="translate(24.478125 142.862115) scale(0.1 -0.1)">
           <use xlink:href="#DejaVuSans-31"/>
           <use xlink:href="#DejaVuSans-35" x="63.623047"/>
           <use xlink:href="#DejaVuSans-30" x="127.246094"/>
           <use xlink:href="#DejaVuSans-30" x="190.869141"/>
           <use xlink:href="#DejaVuSans-30" x="254.492188"/>
          </g>
         </g>
        </g>
        <g id="ytick_5">
         <g id="line2d_8">
          <g>
           <use xlink:href="#ma665737e00" x="63.290625" y="78.209903" style="stroke: #000000; stroke-width: 0.8"/>
          </g>
         </g>
         <g id="text_8">
          <!-- 20000 -->
          <g transform="translate(24.478125 82.009122) scale(0.1 -0.1)">
           <defs>
            <path id="DejaVuSans-32" d="M 1228 531 
L 3431 531 
L 3431 0 
L 469 0 
L 469 531 
Q 828 903 1448 1529 
Q 2069 2156 2228 2338 
Q 2531 2678 2651 2914 
Q 2772 3150 2772 3378 
Q 2772 3750 2511 3984 
Q 2250 4219 1831 4219 
Q 1534 4219 1204 4116 
Q 875 4013 500 3803 
L 500 4441 
Q 881 4594 1212 4672 
Q 1544 4750 1819 4750 
Q 2544 4750 2975 4387 
Q 3406 4025 3406 3419 
Q 3406 3131 3298 2873 
Q 3191 2616 2906 2266 
Q 2828 2175 2409 1742 
Q 1991 1309 1228 531 
z
" transform="scale(0.015625)"/>
           </defs>
           <use xlink:href="#DejaVuSans-32"/>
           <use xlink:href="#DejaVuSans-30" x="63.623047"/>
           <use xlink:href="#DejaVuSans-30" x="127.246094"/>
           <use xlink:href="#DejaVuSans-30" x="190.869141"/>
           <use xlink:href="#DejaVuSans-30" x="254.492188"/>
          </g>
         </g>
        </g>
        <g id="ytick_6">
         <g id="line2d_9">
          <g>
           <use xlink:href="#ma665737e00" x="63.290625" y="17.35691" style="stroke: #000000; stroke-width: 0.8"/>
          </g>
         </g>
         <g id="text_9">
          <!-- 25000 -->
          <g transform="translate(24.478125 21.156129) scale(0.1 -0.1)">
           <use xlink:href="#DejaVuSans-32"/>
           <use xlink:href="#DejaVuSans-35" x="63.623047"/>
           <use xlink:href="#DejaVuSans-30" x="127.246094"/>
           <use xlink:href="#DejaVuSans-30" x="190.869141"/>
           <use xlink:href="#DejaVuSans-30" x="254.492188"/>
          </g>
         </g>
        </g>
        <g id="text_10">
         <!-- time ago (generations) -->
         <g transform="translate(18.398438 223.682031) rotate(-90) scale(0.1 -0.1)">
          <defs>
           <path id="DejaVuSans-74" d="M 1172 4494 
L 1172 3500 
L 2356 3500 
L 2356 3053 
L 1172 3053 
L 1172 1153 
Q 1172 725 1289 603 
Q 1406 481 1766 481 
L 2356 481 
L 2356 0 
L 1766 0 
Q 1100 0 847 248 
Q 594 497 594 1153 
L 594 3053 
L 172 3053 
L 172 3500 
L 594 3500 
L 594 4494 
L 1172 4494 
z
" transform="scale(0.015625)"/>
           <path id="DejaVuSans-69" d="M 603 3500 
L 1178 3500 
L 1178 0 
L 603 0 
L 603 3500 
z
M 603 4863 
L 1178 4863 
L 1178 4134 
L 603 4134 
L 603 4863 
z
" transform="scale(0.015625)"/>
           <path id="DejaVuSans-6d" d="M 3328 2828 
Q 3544 3216 3844 3400 
Q 4144 3584 4550 3584 
Q 5097 3584 5394 3201 
Q 5691 2819 5691 2113 
L 5691 0 
L 5113 0 
L 5113 2094 
Q 5113 2597 4934 2840 
Q 4756 3084 4391 3084 
Q 3944 3084 3684 2787 
Q 3425 2491 3425 1978 
L 3425 0 
L 2847 0 
L 2847 2094 
Q 2847 2600 2669 2842 
Q 2491 3084 2119 3084 
Q 1678 3084 1418 2786 
Q 1159 2488 1159 1978 
L 1159 0 
L 581 0 
L 581 3500 
L 1159 3500 
L 1159 2956 
Q 1356 3278 1631 3431 
Q 1906 3584 2284 3584 
Q 2666 3584 2933 3390 
Q 3200 3197 3328 2828 
z
" transform="scale(0.015625)"/>
           <path id="DejaVuSans-65" d="M 3597 1894 
L 3597 1613 
L 953 1613 
Q 991 1019 1311 708 
Q 1631 397 2203 397 
Q 2534 397 2845 478 
Q 3156 559 3463 722 
L 3463 178 
Q 3153 47 2828 -22 
Q 2503 -91 2169 -91 
Q 1331 -91 842 396 
Q 353 884 353 1716 
Q 353 2575 817 3079 
Q 1281 3584 2069 3584 
Q 2775 3584 3186 3129 
Q 3597 2675 3597 1894 
z
M 3022 2063 
Q 3016 2534 2758 2815 
Q 2500 3097 2075 3097 
Q 1594 3097 1305 2825 
Q 1016 2553 972 2059 
L 3022 2063 
z
" transform="scale(0.015625)"/>
           <path id="DejaVuSans-20" transform="scale(0.015625)"/>
           <path id="DejaVuSans-61" d="M 2194 1759 
Q 1497 1759 1228 1600 
Q 959 1441 959 1056 
Q 959 750 1161 570 
Q 1363 391 1709 391 
Q 2188 391 2477 730 
Q 2766 1069 2766 1631 
L 2766 1759 
L 2194 1759 
z
M 3341 1997 
L 3341 0 
L 2766 0 
L 2766 531 
Q 2569 213 2275 61 
Q 1981 -91 1556 -91 
Q 1019 -91 701 211 
Q 384 513 384 1019 
Q 384 1609 779 1909 
Q 1175 2209 1959 2209 
L 2766 2209 
L 2766 2266 
Q 2766 2663 2505 2880 
Q 2244 3097 1772 3097 
Q 1472 3097 1187 3025 
Q 903 2953 641 2809 
L 641 3341 
Q 956 3463 1253 3523 
Q 1550 3584 1831 3584 
Q 2591 3584 2966 3190 
Q 3341 2797 3341 1997 
z
" transform="scale(0.015625)"/>
           <path id="DejaVuSans-67" d="M 2906 1791 
Q 2906 2416 2648 2759 
Q 2391 3103 1925 3103 
Q 1463 3103 1205 2759 
Q 947 2416 947 1791 
Q 947 1169 1205 825 
Q 1463 481 1925 481 
Q 2391 481 2648 825 
Q 2906 1169 2906 1791 
z
M 3481 434 
Q 3481 -459 3084 -895 
Q 2688 -1331 1869 -1331 
Q 1566 -1331 1297 -1286 
Q 1028 -1241 775 -1147 
L 775 -588 
Q 1028 -725 1275 -790 
Q 1522 -856 1778 -856 
Q 2344 -856 2625 -561 
Q 2906 -266 2906 331 
L 2906 616 
Q 2728 306 2450 153 
Q 2172 0 1784 0 
Q 1141 0 747 490 
Q 353 981 353 1791 
Q 353 2603 747 3093 
Q 1141 3584 1784 3584 
Q 2172 3584 2450 3431 
Q 2728 3278 2906 2969 
L 2906 3500 
L 3481 3500 
L 3481 434 
z
" transform="scale(0.015625)"/>
           <path id="DejaVuSans-6f" d="M 1959 3097 
Q 1497 3097 1228 2736 
Q 959 2375 959 1747 
Q 959 1119 1226 758 
Q 1494 397 1959 397 
Q 2419 397 2687 759 
Q 2956 1122 2956 1747 
Q 2956 2369 2687 2733 
Q 2419 3097 1959 3097 
z
M 1959 3584 
Q 2709 3584 3137 3096 
Q 3566 2609 3566 1747 
Q 3566 888 3137 398 
Q 2709 -91 1959 -91 
Q 1206 -91 779 398 
Q 353 888 353 1747 
Q 353 2609 779 3096 
Q 1206 3584 1959 3584 
z
" transform="scale(0.015625)"/>
           <path id="DejaVuSans-28" d="M 1984 4856 
Q 1566 4138 1362 3434 
Q 1159 2731 1159 2009 
Q 1159 1288 1364 580 
Q 1569 -128 1984 -844 
L 1484 -844 
Q 1016 -109 783 600 
Q 550 1309 550 2009 
Q 550 2706 781 3412 
Q 1013 4119 1484 4856 
L 1984 4856 
z
" transform="scale(0.015625)"/>
           <path id="DejaVuSans-6e" d="M 3513 2113 
L 3513 0 
L 2938 0 
L 2938 2094 
Q 2938 2591 2744 2837 
Q 2550 3084 2163 3084 
Q 1697 3084 1428 2787 
Q 1159 2491 1159 1978 
L 1159 0 
L 581 0 
L 581 3500 
L 1159 3500 
L 1159 2956 
Q 1366 3272 1645 3428 
Q 1925 3584 2291 3584 
Q 2894 3584 3203 3211 
Q 3513 2838 3513 2113 
z
" transform="scale(0.015625)"/>
           <path id="DejaVuSans-72" d="M 2631 2963 
Q 2534 3019 2420 3045 
Q 2306 3072 2169 3072 
Q 1681 3072 1420 2755 
Q 1159 2438 1159 1844 
L 1159 0 
L 581 0 
L 581 3500 
L 1159 3500 
L 1159 2956 
Q 1341 3275 1631 3429 
Q 1922 3584 2338 3584 
Q 2397 3584 2469 3576 
Q 2541 3569 2628 3553 
L 2631 2963 
z
" transform="scale(0.015625)"/>
           <path id="DejaVuSans-73" d="M 2834 3397 
L 2834 2853 
Q 2591 2978 2328 3040 
Q 2066 3103 1784 3103 
Q 1356 3103 1142 2972 
Q 928 2841 928 2578 
Q 928 2378 1081 2264 
Q 1234 2150 1697 2047 
L 1894 2003 
Q 2506 1872 2764 1633 
Q 3022 1394 3022 966 
Q 3022 478 2636 193 
Q 2250 -91 1575 -91 
Q 1294 -91 989 -36 
Q 684 19 347 128 
L 347 722 
Q 666 556 975 473 
Q 1284 391 1588 391 
Q 1994 391 2212 530 
Q 2431 669 2431 922 
Q 2431 1156 2273 1281 
Q 2116 1406 1581 1522 
L 1381 1569 
Q 847 1681 609 1914 
Q 372 2147 372 2553 
Q 372 3047 722 3315 
Q 1072 3584 1716 3584 
Q 2034 3584 2315 3537 
Q 2597 3491 2834 3397 
z
" transform="scale(0.015625)"/>
           <path id="DejaVuSans-29" d="M 513 4856 
L 1013 4856 
Q 1481 4119 1714 3412 
Q 1947 2706 1947 2009 
Q 1947 1309 1714 600 
Q 1481 -109 1013 -844 
L 513 -844 
Q 928 -128 1133 580 
Q 1338 1288 1338 2009 
Q 1338 2731 1133 3434 
Q 928 4138 513 4856 
z
" transform="scale(0.015625)"/>
          </defs>
          <use xlink:href="#DejaVuSans-74"/>
          <use xlink:href="#DejaVuSans-69" x="39.208984"/>
          <use xlink:href="#DejaVuSans-6d" x="66.992188"/>
          <use xlink:href="#DejaVuSans-65" x="164.404297"/>
          <use xlink:href="#DejaVuSans-20" x="225.927734"/>
          <use xlink:href="#DejaVuSans-61" x="257.714844"/>
          <use xlink:href="#DejaVuSans-67" x="318.994141"/>
          <use xlink:href="#DejaVuSans-6f" x="382.470703"/>
          <use xlink:href="#DejaVuSans-20" x="443.652344"/>
          <use xlink:href="#DejaVuSans-28" x="475.439453"/>
          <use xlink:href="#DejaVuSans-67" x="514.453125"/>
          <use xlink:href="#DejaVuSans-65" x="577.929688"/>
          <use xlink:href="#DejaVuSans-6e" x="639.453125"/>
          <use xlink:href="#DejaVuSans-65" x="702.832031"/>
          <use xlink:href="#DejaVuSans-72" x="764.355469"/>
          <use xlink:href="#DejaVuSans-61" x="805.46875"/>
          <use xlink:href="#DejaVuSans-74" x="866.748047"/>
          <use xlink:href="#DejaVuSans-69" x="905.957031"/>
          <use xlink:href="#DejaVuSans-6f" x="933.740234"/>
          <use xlink:href="#DejaVuSans-6e" x="994.921875"/>
          <use xlink:href="#DejaVuSans-73" x="1058.300781"/>
          <use xlink:href="#DejaVuSans-29" x="1110.400391"/>
         </g>
        </g>
       </g>
       <g id="patch_7">
        <path d="M 270.469319 229.599979 
L 269.469319 229.568543 
L 268.469319 229.531602 
L 267.469319 229.433856 
L 266.469319 229.401334 
L 265.469319 229.327709 
L 264.469319 229.289144 
L 263.469319 229.253731 
L 262.469319 229.196091 
L 261.469319 229.125704 
L 260.469319 229.07374 
L 259.469319 229.014651 
L 258.469319 228.92633 
L 257.469319 228.880185 
L 256.469319 228.837774 
L 255.469319 228.807282 
L 254.469319 228.781237 
L 253.469319 228.760037 
L 252.469319 228.705736 
L 251.469319 228.677798 
L 250.469319 228.648074 
L 249.469319 228.622679 
L 248.469319 228.611479 
L 247.469319 228.601355 
L 246.469319 228.601559 
L 245.469319 228.611069 
L 244.469319 228.622723 
L 243.469319 228.653752 
L 242.469319 228.66492 
L 241.469319 228.695037 
L 240.469319 228.754814 
L 239.469319 228.792006 
L 238.469319 228.831102 
L 237.469319 228.873542 
L 236.469319 228.906307 
L 235.469319 228.973733 
L 234.469319 229.012859 
L 233.469319 229.055534 
L 232.469319 229.126114 
L 231.469319 229.162505 
L 230.469319 229.220908 
L 229.469319 229.331861 
L 228.469319 229.402519 
L 227.469319 229.515459 
L 226.469319 229.561232 
L 225.469319 229.622515 
L 224.469319 229.671014 
L 223.469319 229.751837 
L 222.469319 229.870356 
L 221.469319 229.940567 
L 220.469319 230.023829 
L 219.469319 230.056971 
L 218.469319 230.108208 
L 217.469319 230.176607 
L 216.469319 230.242822 
L 215.469319 230.319739 
L 214.469319 230.347054 
L 213.469319 230.373532 
L 212.469319 230.396183 
L 211.469319 230.415714 
L 210.469319 230.442108 
L 209.469319 230.491879 
L 208.469319 230.526952 
L 207.469319 230.562818 
L 206.469319 230.578185 
L 205.469319 230.593954 
L 204.469319 230.597367 
L 203.469319 230.599784 
L 202.469319 230.599298 
L 201.469319 230.597369 
L 200.469319 230.584112 
L 199.469319 230.575721 
L 198.469319 230.554185 
L 197.469319 230.531152 
L 196.469319 230.513919 
L 195.469319 230.495456 
L 194.469319 230.475004 
L 193.469319 230.458404 
L 192.469319 230.395625 
L 191.469319 230.32036 
L 190.469319 230.287721 
L 189.469319 230.220157 
L 188.469319 230.16611 
L 187.469319 230.132406 
L 186.469319 230.04228 
L 185.469319 230.013745 
L 184.469319 229.982259 
L 183.469319 229.951248 
L 182.469319 229.89644 
L 181.469319 229.831853 
L 180.469319 229.793657 
L 179.469319 229.697723 
L 178.469319 229.648465 
L 177.469319 229.604396 
L 176.469319 229.564272 
L 175.469319 229.455905 
L 174.469319 229.414277 
L 173.469319 229.352135 
L 172.469319 229.282173 
L 171.469319 229.177669 
L 170.469319 229.140681 
L 169.469319 229.094804 
L 168.469319 229.026309 
L 167.469319 228.977563 
L 166.469319 228.899966 
L 165.469319 228.869425 
L 164.469319 228.799911 
L 163.469319 228.775938 
L 162.469319 228.747316 
L 161.469319 228.705523 
L 160.469319 228.683947 
L 159.469319 228.669999 
L 158.469319 228.643277 
L 157.469319 228.633967 
L 156.469319 228.62152 
L 155.469319 228.610465 
L 154.469319 228.604801 
L 153.469319 228.600037 
L 152.469319 228.605584 
L 151.469319 228.618873 
L 150.469319 228.62639 
L 149.469319 228.651175 
L 148.469319 228.674744 
L 147.469319 228.710924 
L 146.469319 228.736886 
L 145.469319 228.759208 
L 144.469319 228.827968 
L 143.469319 228.902503 
L 142.469319 228.996482 
L 141.469319 229.047534 
L 140.469319 229.101468 
L 139.469319 229.136719 
L 137.828347 229.242807 
" clip-path="url(#pe2dc5271b9)" style="fill: none; stroke: #ffffff; stroke-width: 3; stroke-linecap: round"/>
        <path d="M 270.469319 229.599979 
L 269.469319 229.568543 
L 268.469319 229.531602 
L 267.469319 229.433856 
L 266.469319 229.401334 
L 265.469319 229.327709 
L 264.469319 229.289144 
L 263.469319 229.253731 
L 262.469319 229.196091 
L 261.469319 229.125704 
L 260.469319 229.07374 
L 259.469319 229.014651 
L 258.469319 228.92633 
L 257.469319 228.880185 
L 256.469319 228.837774 
L 255.469319 228.807282 
L 254.469319 228.781237 
L 253.469319 228.760037 
L 252.469319 228.705736 
L 251.469319 228.677798 
L 250.469319 228.648074 
L 249.469319 228.622679 
L 248.469319 228.611479 
L 247.469319 228.601355 
L 246.469319 228.601559 
L 245.469319 228.611069 
L 244.469319 228.622723 
L 243.469319 228.653752 
L 242.469319 228.66492 
L 241.469319 228.695037 
L 240.469319 228.754814 
L 239.469319 228.792006 
L 238.469319 228.831102 
L 237.469319 228.873542 
L 236.469319 228.906307 
L 235.469319 228.973733 
L 234.469319 229.012859 
L 233.469319 229.055534 
L 232.469319 229.126114 
L 231.469319 229.162505 
L 230.469319 229.220908 
L 229.469319 229.331861 
L 228.469319 229.402519 
L 227.469319 229.515459 
L 226.469319 229.561232 
L 225.469319 229.622515 
L 224.469319 229.671014 
L 223.469319 229.751837 
L 222.469319 229.870356 
L 221.469319 229.940567 
L 220.469319 230.023829 
L 219.469319 230.056971 
L 218.469319 230.108208 
L 217.469319 230.176607 
L 216.469319 230.242822 
L 215.469319 230.319739 
L 214.469319 230.347054 
L 213.469319 230.373532 
L 212.469319 230.396183 
L 211.469319 230.415714 
L 210.469319 230.442108 
L 209.469319 230.491879 
L 208.469319 230.526952 
L 207.469319 230.562818 
L 206.469319 230.578185 
L 205.469319 230.593954 
L 204.469319 230.597367 
L 203.469319 230.599784 
L 202.469319 230.599298 
L 201.469319 230.597369 
L 200.469319 230.584112 
L 199.469319 230.575721 
L 198.469319 230.554185 
L 197.469319 230.531152 
L 196.469319 230.513919 
L 195.469319 230.495456 
L 194.469319 230.475004 
L 193.469319 230.458404 
L 192.469319 230.395625 
L 191.469319 230.32036 
L 190.469319 230.287721 
L 189.469319 230.220157 
L 188.469319 230.16611 
L 187.469319 230.132406 
L 186.469319 230.04228 
L 185.469319 230.013745 
L 184.469319 229.982259 
L 183.469319 229.951248 
L 182.469319 229.89644 
L 181.469319 229.831853 
L 180.469319 229.793657 
L 179.469319 229.697723 
L 178.469319 229.648465 
L 177.469319 229.604396 
L 176.469319 229.564272 
L 175.469319 229.455905 
L 174.469319 229.414277 
L 173.469319 229.352135 
L 172.469319 229.282173 
L 171.469319 229.177669 
L 170.469319 229.140681 
L 169.469319 229.094804 
L 168.469319 229.026309 
L 167.469319 228.977563 
L 166.469319 228.899966 
L 165.469319 228.869425 
L 164.469319 228.799911 
L 163.469319 228.775938 
L 162.469319 228.747316 
L 161.469319 228.705523 
L 160.469319 228.683947 
L 159.469319 228.669999 
L 158.469319 228.643277 
L 157.469319 228.633967 
L 156.469319 228.62152 
L 155.469319 228.610465 
L 154.469319 228.604801 
L 153.469319 228.600037 
L 152.469319 228.605584 
L 151.469319 228.618873 
L 150.469319 228.62639 
L 149.469319 228.651175 
L 148.469319 228.674744 
L 147.469319 228.710924 
L 146.469319 228.736886 
L 145.469319 228.759208 
L 144.469319 228.827968 
L 143.469319 228.902503 
L 142.469319 228.996482 
L 141.469319 229.047534 
L 140.469319 229.101468 
L 139.469319 229.136719 
L 137.828347 229.242807 
" clip-path="url(#pe2dc5271b9)" style="fill: none; stroke: #1f77b4; stroke-linecap: round"/>
        <path d="M 141.828347 231.599979 
L 140.947978 231.124648 
L 140.070071 230.644394 
L 139.219358 230.109753 
L 137.917183 229.422306 
L 138.844536 229.396291 
L 139.756211 228.983571 
L 140.666475 228.568032 
L 142.008971 227.961228 
L 141.354072 228.599979 
L 141.302108 229.599979 
L 141.243018 231.599979 
z
" clip-path="url(#pe2dc5271b9)" style="fill: #ffffff; stroke: #ffffff; stroke-width: 3; stroke-linecap: round"/>
        <path d="M 141.828347 231.599979 
L 140.947978 231.124648 
L 140.070071 230.644394 
L 139.219358 230.109753 
L 137.917183 229.422306 
L 138.844536 229.396291 
L 139.756211 228.983571 
L 140.666475 228.568032 
L 142.008971 227.961228 
L 141.354072 228.599979 
L 141.302108 229.599979 
L 141.243018 231.599979 
z
" clip-path="url(#pe2dc5271b9)" style="fill: #ffffff; stroke: #1f77b4; stroke-linecap: round"/>
        <g id="patch_8">
         <path d="M 349.901499 72.964375 
L 350.901499 72.995811 
L 351.901499 73.032752 
L 352.901499 73.130498 
L 353.901499 73.16302 
L 354.901499 73.236645 
L 355.901499 73.27521 
L 356.901499 73.310623 
L 357.901499 73.368263 
L 358.901499 73.438649 
L 359.901499 73.490614 
L 360.901499 73.549703 
L 361.901499 73.638024 
L 362.901499 73.684169 
L 363.901499 73.72658 
L 364.901499 73.757072 
L 365.901499 73.783117 
L 366.901499 73.804317 
L 367.901499 73.858618 
L 368.901499 73.886556 
L 369.901499 73.91628 
L 370.901499 73.941675 
L 371.901499 73.952875 
L 372.901499 73.962999 
L 373.901499 73.962795 
L 374.901499 73.953285 
L 375.901499 73.941631 
L 376.901499 73.910602 
L 377.901499 73.899434 
L 378.901499 73.869317 
L 379.901499 73.80954 
L 380.901499 73.772348 
L 381.901499 73.733252 
L 382.901499 73.690812 
L 383.901499 73.658047 
L 384.901499 73.590621 
L 385.901499 73.551495 
L 386.901499 73.50882 
L 387.901499 73.43824 
L 388.901499 73.401849 
L 389.901499 73.343446 
L 390.901499 73.232493 
L 391.901499 73.161835 
L 392.901499 73.048895 
L 393.901499 73.003122 
L 394.901499 72.941839 
L 395.901499 72.89334 
L 396.901499 72.812517 
L 397.901499 72.693998 
L 398.901499 72.623787 
L 399.901499 72.540525 
L 400.901499 72.507383 
L 401.901499 72.456146 
L 402.901499 72.387747 
L 403.901499 72.321532 
L 404.901499 72.244615 
L 405.901499 72.217299 
L 406.901499 72.190822 
L 407.901499 72.168171 
L 408.901499 72.14864 
L 409.901499 72.122246 
L 410.901499 72.072475 
L 411.901499 72.037402 
L 412.901499 72.001536 
L 413.901499 71.986169 
L 414.901499 71.9704 
L 415.901499 71.966987 
L 416.901499 71.96457 
L 417.901499 71.965056 
L 418.901499 71.966985 
L 419.901499 71.980242 
L 420.901499 71.988633 
L 421.901499 72.010169 
L 422.901499 72.033202 
L 423.901499 72.050435 
L 424.901499 72.068898 
L 425.901499 72.08935 
L 426.901499 72.10595 
L 427.901499 72.168729 
L 428.901499 72.243994 
L 429.901499 72.276633 
L 430.901499 72.344197 
L 431.901499 72.398244 
L 432.901499 72.431948 
L 433.901499 72.522074 
L 434.901499 72.550609 
L 435.901499 72.582095 
L 436.901499 72.613106 
L 437.901499 72.667914 
L 438.901499 72.732501 
L 439.901499 72.770697 
L 440.901499 72.866631 
L 441.901499 72.915889 
L 442.901499 72.959958 
L 443.901499 73.000082 
L 444.901499 73.108449 
L 445.901499 73.150077 
L 446.901499 73.212219 
L 447.901499 73.282181 
L 448.901499 73.386685 
L 449.901499 73.423673 
L 450.901499 73.46955 
L 451.901499 73.538045 
L 452.901499 73.586791 
L 453.901499 73.664388 
L 454.901499 73.694929 
L 455.901499 73.764443 
L 456.901499 73.788416 
L 457.901499 73.817038 
L 458.901499 73.858831 
L 459.901499 73.880407 
L 460.901499 73.894355 
L 461.901499 73.921077 
L 462.901499 73.930387 
L 463.901499 73.942834 
L 464.901499 73.953889 
L 465.901499 73.959553 
L 466.901499 73.964317 
L 467.901499 73.958769 
L 468.901499 73.945481 
L 469.901499 73.937964 
L 470.901499 73.913179 
L 471.901499 73.88961 
L 472.901499 73.85343 
L 473.901499 73.827468 
L 474.901499 73.805146 
L 475.901499 73.736386 
L 476.901499 73.661851 
L 477.901499 73.567872 
L 478.901499 73.51682 
L 479.901499 73.462886 
L 480.901499 73.427635 
L 481.901499 73.321547 
L 482.901499 73.269283 
L 483.901499 73.232376 
L 484.901499 73.201345 
L 485.901499 73.14019 
L 486.901499 73.07277 
L 487.901499 73.023864 
L 488.901499 72.958672 
L 489.901499 72.920484 
L 490.901499 72.878488 
L 491.901499 72.836471 
L 492.901499 72.776955 
L 493.901499 72.663795 
L 494.901499 72.611544 
L 495.901499 72.572126 
L 496.901499 72.525025 
L 497.901499 72.468245 
L 498.901499 72.435582 
L 499.901499 72.399404 
L 500.901499 72.367314 
L 501.901499 72.333034 
L 502.901499 72.274656 
L 503.901499 72.229471 
L 504.901499 72.199847 
L 505.901499 72.149461 
L 506.901499 72.124264 
L 507.901499 72.103213 
L 508.901499 72.068245 
L 509.901499 72.043955 
L 510.901499 72.029888 
L 511.901499 72.010946 
L 512.901499 71.995285 
L 513.901499 71.982733 
L 514.901499 71.976897 
L 515.901499 71.970015 
L 516.901499 71.964841 
L 517.901499 71.966624 
L 518.901499 71.969349 
L 519.901499 71.980503 
L 520.901499 72.008738 
L 521.901499 72.052526 
L 522.901499 72.073215 
L 523.901499 72.114188 
L 524.901499 72.154263 
L 525.901499 72.173373 
L 526.901499 72.195882 
L 527.901499 72.262533 
L 528.901499 72.312243 
L 529.901499 72.385949 
L 530.901499 72.417263 
L 531.901499 72.493885 
L 532.901499 72.532183 
L 533.901499 72.6063 
L 534.901499 72.710358 
L 535.901499 72.780189 
L 536.901499 72.885423 
L 537.901499 72.940438 
L 538.901499 73.063913 
L 539.901499 73.134472 
L 540.901499 73.250311 
L 541.901499 73.300492 
L 543.365993 73.336096 
" clip-path="url(#pe2dc5271b9)" style="fill: none; stroke: #ffffff; stroke-width: 3; stroke-linecap: round"/>
         <path d="M 349.901499 72.964375 
L 350.901499 72.995811 
L 351.901499 73.032752 
L 352.901499 73.130498 
L 353.901499 73.16302 
L 354.901499 73.236645 
L 355.901499 73.27521 
L 356.901499 73.310623 
L 357.901499 73.368263 
L 358.901499 73.438649 
L 359.901499 73.490614 
L 360.901499 73.549703 
L 361.901499 73.638024 
L 362.901499 73.684169 
L 363.901499 73.72658 
L 364.901499 73.757072 
L 365.901499 73.783117 
L 366.901499 73.804317 
L 367.901499 73.858618 
L 368.901499 73.886556 
L 369.901499 73.91628 
L 370.901499 73.941675 
L 371.901499 73.952875 
L 372.901499 73.962999 
L 373.901499 73.962795 
L 374.901499 73.953285 
L 375.901499 73.941631 
L 376.901499 73.910602 
L 377.901499 73.899434 
L 378.901499 73.869317 
L 379.901499 73.80954 
L 380.901499 73.772348 
L 381.901499 73.733252 
L 382.901499 73.690812 
L 383.901499 73.658047 
L 384.901499 73.590621 
L 385.901499 73.551495 
L 386.901499 73.50882 
L 387.901499 73.43824 
L 388.901499 73.401849 
L 389.901499 73.343446 
L 390.901499 73.232493 
L 391.901499 73.161835 
L 392.901499 73.048895 
L 393.901499 73.003122 
L 394.901499 72.941839 
L 395.901499 72.89334 
L 396.901499 72.812517 
L 397.901499 72.693998 
L 398.901499 72.623787 
L 399.901499 72.540525 
L 400.901499 72.507383 
L 401.901499 72.456146 
L 402.901499 72.387747 
L 403.901499 72.321532 
L 404.901499 72.244615 
L 405.901499 72.217299 
L 406.901499 72.190822 
L 407.901499 72.168171 
L 408.901499 72.14864 
L 409.901499 72.122246 
L 410.901499 72.072475 
L 411.901499 72.037402 
L 412.901499 72.001536 
L 413.901499 71.986169 
L 414.901499 71.9704 
L 415.901499 71.966987 
L 416.901499 71.96457 
L 417.901499 71.965056 
L 418.901499 71.966985 
L 419.901499 71.980242 
L 420.901499 71.988633 
L 421.901499 72.010169 
L 422.901499 72.033202 
L 423.901499 72.050435 
L 424.901499 72.068898 
L 425.901499 72.08935 
L 426.901499 72.10595 
L 427.901499 72.168729 
L 428.901499 72.243994 
L 429.901499 72.276633 
L 430.901499 72.344197 
L 431.901499 72.398244 
L 432.901499 72.431948 
L 433.901499 72.522074 
L 434.901499 72.550609 
L 435.901499 72.582095 
L 436.901499 72.613106 
L 437.901499 72.667914 
L 438.901499 72.732501 
L 439.901499 72.770697 
L 440.901499 72.866631 
L 441.901499 72.915889 
L 442.901499 72.959958 
L 443.901499 73.000082 
L 444.901499 73.108449 
L 445.901499 73.150077 
L 446.901499 73.212219 
L 447.901499 73.282181 
L 448.901499 73.386685 
L 449.901499 73.423673 
L 450.901499 73.46955 
L 451.901499 73.538045 
L 452.901499 73.586791 
L 453.901499 73.664388 
L 454.901499 73.694929 
L 455.901499 73.764443 
L 456.901499 73.788416 
L 457.901499 73.817038 
L 458.901499 73.858831 
L 459.901499 73.880407 
L 460.901499 73.894355 
L 461.901499 73.921077 
L 462.901499 73.930387 
L 463.901499 73.942834 
L 464.901499 73.953889 
L 465.901499 73.959553 
L 466.901499 73.964317 
L 467.901499 73.958769 
L 468.901499 73.945481 
L 469.901499 73.937964 
L 470.901499 73.913179 
L 471.901499 73.88961 
L 472.901499 73.85343 
L 473.901499 73.827468 
L 474.901499 73.805146 
L 475.901499 73.736386 
L 476.901499 73.661851 
L 477.901499 73.567872 
L 478.901499 73.51682 
L 479.901499 73.462886 
L 480.901499 73.427635 
L 481.901499 73.321547 
L 482.901499 73.269283 
L 483.901499 73.232376 
L 484.901499 73.201345 
L 485.901499 73.14019 
L 486.901499 73.07277 
L 487.901499 73.023864 
L 488.901499 72.958672 
L 489.901499 72.920484 
L 490.901499 72.878488 
L 491.901499 72.836471 
L 492.901499 72.776955 
L 493.901499 72.663795 
L 494.901499 72.611544 
L 495.901499 72.572126 
L 496.901499 72.525025 
L 497.901499 72.468245 
L 498.901499 72.435582 
L 499.901499 72.399404 
L 500.901499 72.367314 
L 501.901499 72.333034 
L 502.901499 72.274656 
L 503.901499 72.229471 
L 504.901499 72.199847 
L 505.901499 72.149461 
L 506.901499 72.124264 
L 507.901499 72.103213 
L 508.901499 72.068245 
L 509.901499 72.043955 
L 510.901499 72.029888 
L 511.901499 72.010946 
L 512.901499 71.995285 
L 513.901499 71.982733 
L 514.901499 71.976897 
L 515.901499 71.970015 
L 516.901499 71.964841 
L 517.901499 71.966624 
L 518.901499 71.969349 
L 519.901499 71.980503 
L 520.901499 72.008738 
L 521.901499 72.052526 
L 522.901499 72.073215 
L 523.901499 72.114188 
L 524.901499 72.154263 
L 525.901499 72.173373 
L 526.901499 72.195882 
L 527.901499 72.262533 
L 528.901499 72.312243 
L 529.901499 72.385949 
L 530.901499 72.417263 
L 531.901499 72.493885 
L 532.901499 72.532183 
L 533.901499 72.6063 
L 534.901499 72.710358 
L 535.901499 72.780189 
L 536.901499 72.885423 
L 537.901499 72.940438 
L 538.901499 73.063913 
L 539.901499 73.134472 
L 540.901499 73.250311 
L 541.901499 73.300492 
L 543.365993 73.336096 
" clip-path="url(#pe2dc5271b9)" style="fill: none; stroke: #1f77b4; stroke-linecap: round"/>
         <path d="M 539.365993 70.964375 
L 540.246362 71.439706 
L 541.124269 71.91996 
L 541.974982 72.454601 
L 543.277157 73.142048 
L 542.349804 73.168063 
L 541.438129 73.580783 
L 540.527865 73.996322 
L 539.185369 74.603126 
L 539.840268 73.964375 
L 539.892232 72.964375 
L 539.951322 70.964375 
z
" clip-path="url(#pe2dc5271b9)" style="fill: #ffffff; stroke: #ffffff; stroke-width: 3; stroke-linecap: round"/>
         <path d="M 539.365993 70.964375 
L 540.246362 71.439706 
L 541.124269 71.91996 
L 541.974982 72.454601 
L 543.277157 73.142048 
L 542.349804 73.168063 
L 541.438129 73.580783 
L 540.527865 73.996322 
L 539.185369 74.603126 
L 539.840268 73.964375 
L 539.892232 72.964375 
L 539.951322 70.964375 
z
" clip-path="url(#pe2dc5271b9)" style="fill: #ffffff; stroke: #1f77b4; stroke-linecap: round"/>
         <g id="patch_9">
          <path d="M 136.70592 279.657651 
L 137.70592 279.689087 
L 138.70592 279.726028 
L 139.70592 279.823774 
L 140.70592 279.856296 
L 141.70592 279.929921 
L 142.70592 279.968486 
L 143.70592 280.003899 
L 144.70592 280.061539 
L 145.70592 280.131926 
L 146.70592 280.18389 
L 147.70592 280.242979 
L 148.70592 280.3313 
L 149.70592 280.377445 
L 150.70592 280.419856 
L 151.70592 280.450348 
L 152.70592 280.476393 
L 153.70592 280.497593 
L 154.70592 280.551895 
L 155.70592 280.579832 
L 156.70592 280.609556 
L 157.70592 280.634951 
L 158.70592 280.646151 
L 159.70592 280.656275 
L 160.70592 280.656071 
L 161.70592 280.646561 
L 162.70592 280.634907 
L 163.70592 280.603878 
L 164.70592 280.59271 
L 165.70592 280.562593 
L 166.70592 280.502816 
L 167.70592 280.465624 
L 168.70592 280.426528 
L 169.70592 280.384088 
L 170.70592 280.351323 
L 171.70592 280.283897 
L 172.70592 280.244771 
L 173.70592 280.202096 
L 174.70592 280.131516 
L 175.70592 280.095125 
L 176.70592 280.036722 
L 177.70592 279.925769 
L 178.70592 279.855111 
L 179.70592 279.742171 
L 180.70592 279.696398 
L 181.70592 279.635115 
L 182.70592 279.586616 
L 183.70592 279.505793 
L 184.70592 279.387274 
L 185.70592 279.317063 
L 186.70592 279.233801 
L 187.70592 279.200659 
L 188.70592 279.149422 
L 189.70592 279.081024 
L 190.70592 279.014808 
L 191.70592 278.937891 
L 192.70592 278.910576 
L 193.70592 278.884098 
L 194.70592 278.861447 
L 195.70592 278.841916 
L 196.70592 278.815522 
L 197.70592 278.765751 
L 198.70592 278.730678 
L 199.70592 278.694812 
L 200.70592 278.679445 
L 201.70592 278.663676 
L 202.70592 278.660263 
L 203.70592 278.657846 
L 204.70592 278.658332 
L 205.70592 278.660261 
L 206.70592 278.673518 
L 207.70592 278.681909 
L 208.70592 278.703445 
L 209.70592 278.726478 
L 210.70592 278.743711 
L 211.70592 278.762174 
L 212.70592 278.782626 
L 213.70592 278.799226 
L 214.70592 278.862005 
L 215.70592 278.93727 
L 216.70592 278.969909 
L 217.70592 279.037473 
L 218.70592 279.09152 
L 219.70592 279.125224 
L 220.70592 279.21535 
L 221.70592 279.243885 
L 222.70592 279.275371 
L 223.70592 279.306382 
L 224.70592 279.36119 
L 225.70592 279.425777 
L 226.70592 279.463973 
L 227.70592 279.559907 
L 228.70592 279.609165 
L 229.70592 279.653234 
L 230.70592 279.693358 
L 231.70592 279.801725 
L 232.70592 279.843353 
L 233.70592 279.905495 
L 234.70592 279.975457 
L 235.70592 280.079961 
L 236.70592 280.116949 
L 237.70592 280.162826 
L 238.70592 280.231321 
L 239.70592 280.280067 
L 240.70592 280.357664 
L 241.70592 280.388205 
L 242.70592 280.457719 
L 243.70592 280.481692 
L 244.70592 280.510314 
L 245.70592 280.552107 
L 246.70592 280.573683 
L 247.70592 280.587631 
L 248.70592 280.614353 
L 249.70592 280.623663 
L 250.70592 280.63611 
L 251.70592 280.647165 
L 252.70592 280.652829 
L 253.70592 280.657593 
L 254.70592 280.652046 
L 255.70592 280.638757 
L 256.70592 280.63124 
L 257.70592 280.606455 
L 258.70592 280.582886 
L 259.70592 280.546706 
L 260.70592 280.520744 
L 261.70592 280.498422 
L 262.70592 280.429662 
L 263.70592 280.355127 
L 264.70592 280.261148 
L 265.70592 280.210096 
L 266.70592 280.156162 
L 267.70592 280.120911 
L 268.70592 280.014823 
L 269.70592 279.962559 
L 270.70592 279.925652 
L 271.70592 279.894622 
L 272.70592 279.833466 
L 273.70592 279.766046 
L 274.70592 279.71714 
L 275.70592 279.651948 
L 276.70592 279.61376 
L 277.70592 279.571765 
L 278.70592 279.529747 
L 279.70592 279.470231 
L 280.70592 279.357071 
L 281.70592 279.30482 
L 282.70592 279.265402 
L 283.70592 279.218301 
L 284.70592 279.161522 
L 285.70592 279.128858 
L 286.70592 279.09268 
L 287.70592 279.06059 
L 288.70592 279.02631 
L 289.70592 278.967932 
L 290.70592 278.922747 
L 291.70592 278.893123 
L 292.70592 278.842737 
L 293.70592 278.81754 
L 294.70592 278.796489 
L 295.70592 278.761521 
L 296.70592 278.737231 
L 297.70592 278.723164 
L 298.70592 278.704222 
L 299.70592 278.688561 
L 300.70592 278.676009 
L 301.70592 278.670173 
L 302.70592 278.663291 
L 303.70592 278.658117 
L 304.70592 278.6599 
L 305.70592 278.662625 
L 306.70592 278.673779 
L 307.70592 278.702014 
L 308.70592 278.745802 
L 309.70592 278.766491 
L 310.70592 278.807464 
L 311.70592 278.847539 
L 312.70592 278.866649 
L 313.70592 278.889158 
L 314.70592 278.955809 
L 315.70592 279.005519 
L 316.70592 279.079225 
L 317.70592 279.110539 
L 318.70592 279.187161 
L 319.70592 279.225459 
L 320.70592 279.299576 
L 321.70592 279.403634 
L 322.70592 279.473465 
L 323.70592 279.578699 
L 324.70592 279.633714 
L 325.70592 279.757189 
L 326.70592 279.827748 
L 327.70592 279.943587 
L 328.70592 279.993768 
L 329.70592 280.029372 
L 330.70592 280.120779 
L 331.70592 280.174287 
L 332.70592 280.262195 
L 333.70592 280.33138 
L 334.70592 280.378144 
L 335.70592 280.450188 
L 336.70592 280.50033 
L 337.70592 280.51772 
L 338.70592 280.544723 
L 339.70592 280.56415 
L 340.70592 280.583489 
L 341.70592 280.621737 
L 342.70592 280.63817 
L 343.70592 280.646539 
L 344.70592 280.650858 
L 345.70592 280.657413 
L 346.70592 280.654867 
L 347.70592 280.649408 
L 348.70592 280.63298 
L 349.70592 280.601045 
L 350.70592 280.563065 
L 351.70592 280.528261 
L 352.70592 280.465189 
L 353.70592 280.443762 
L 354.70592 280.393144 
L 355.70592 280.368187 
L 356.70592 280.312554 
L 357.70592 280.281325 
L 358.70592 280.23118 
L 359.70592 280.198687 
L 360.70592 280.118275 
L 361.70592 280.049349 
L 362.70592 279.933652 
L 363.70592 279.858173 
L 364.70592 279.742648 
L 365.70592 279.663164 
L 366.70592 279.554723 
L 367.70592 279.515355 
L 368.70592 279.412487 
L 369.70592 279.312689 
L 370.70592 279.267192 
L 371.70592 279.23287 
L 372.70592 279.180914 
L 373.70592 279.141267 
L 374.70592 279.105753 
L 375.70592 279.038108 
L 376.70592 278.999026 
L 377.70592 278.948545 
L 378.70592 278.899239 
L 379.70592 278.84817 
L 380.70592 278.80393 
L 381.70592 278.78191 
L 382.70592 278.766354 
L 383.70592 278.723907 
L 384.70592 278.709039 
L 385.70592 278.686311 
L 386.70592 278.665995 
L 387.70592 278.660198 
L 388.70592 278.657716 
L 389.70592 278.660773 
L 390.70592 278.672369 
L 391.70592 278.689289 
L 392.70592 278.72095 
L 393.70592 278.735033 
L 394.70592 278.787705 
L 395.70592 278.836794 
L 396.70592 278.891495 
L 397.70592 278.935843 
L 398.70592 279.005835 
L 399.70592 279.056218 
L 400.70592 279.110125 
L 401.70592 279.179564 
L 402.70592 279.236952 
L 403.70592 279.287117 
L 404.70592 279.364279 
L 405.70592 279.422469 
L 406.70592 279.483107 
L 407.70592 279.520308 
L 408.70592 279.5854 
L 409.70592 279.69053 
L 410.70592 279.750832 
L 411.70592 279.847154 
L 412.70592 279.879157 
L 413.70592 279.930174 
L 414.70592 280.046966 
L 415.70592 280.082413 
L 416.70592 280.138293 
L 417.70592 280.168669 
L 418.70592 280.257055 
L 419.70592 280.301819 
L 420.70592 280.382707 
L 421.737874 280.442853 
" clip-path="url(#pe2dc5271b9)" style="fill: none; stroke: #ffffff; stroke-width: 3; stroke-linecap: round"/>
          <path d="M 136.70592 279.657651 
L 137.70592 279.689087 
L 138.70592 279.726028 
L 139.70592 279.823774 
L 140.70592 279.856296 
L 141.70592 279.929921 
L 142.70592 279.968486 
L 143.70592 280.003899 
L 144.70592 280.061539 
L 145.70592 280.131926 
L 146.70592 280.18389 
L 147.70592 280.242979 
L 148.70592 280.3313 
L 149.70592 280.377445 
L 150.70592 280.419856 
L 151.70592 280.450348 
L 152.70592 280.476393 
L 153.70592 280.497593 
L 154.70592 280.551895 
L 155.70592 280.579832 
L 156.70592 280.609556 
L 157.70592 280.634951 
L 158.70592 280.646151 
L 159.70592 280.656275 
L 160.70592 280.656071 
L 161.70592 280.646561 
L 162.70592 280.634907 
L 163.70592 280.603878 
L 164.70592 280.59271 
L 165.70592 280.562593 
L 166.70592 280.502816 
L 167.70592 280.465624 
L 168.70592 280.426528 
L 169.70592 280.384088 
L 170.70592 280.351323 
L 171.70592 280.283897 
L 172.70592 280.244771 
L 173.70592 280.202096 
L 174.70592 280.131516 
L 175.70592 280.095125 
L 176.70592 280.036722 
L 177.70592 279.925769 
L 178.70592 279.855111 
L 179.70592 279.742171 
L 180.70592 279.696398 
L 181.70592 279.635115 
L 182.70592 279.586616 
L 183.70592 279.505793 
L 184.70592 279.387274 
L 185.70592 279.317063 
L 186.70592 279.233801 
L 187.70592 279.200659 
L 188.70592 279.149422 
L 189.70592 279.081024 
L 190.70592 279.014808 
L 191.70592 278.937891 
L 192.70592 278.910576 
L 193.70592 278.884098 
L 194.70592 278.861447 
L 195.70592 278.841916 
L 196.70592 278.815522 
L 197.70592 278.765751 
L 198.70592 278.730678 
L 199.70592 278.694812 
L 200.70592 278.679445 
L 201.70592 278.663676 
L 202.70592 278.660263 
L 203.70592 278.657846 
L 204.70592 278.658332 
L 205.70592 278.660261 
L 206.70592 278.673518 
L 207.70592 278.681909 
L 208.70592 278.703445 
L 209.70592 278.726478 
L 210.70592 278.743711 
L 211.70592 278.762174 
L 212.70592 278.782626 
L 213.70592 278.799226 
L 214.70592 278.862005 
L 215.70592 278.93727 
L 216.70592 278.969909 
L 217.70592 279.037473 
L 218.70592 279.09152 
L 219.70592 279.125224 
L 220.70592 279.21535 
L 221.70592 279.243885 
L 222.70592 279.275371 
L 223.70592 279.306382 
L 224.70592 279.36119 
L 225.70592 279.425777 
L 226.70592 279.463973 
L 227.70592 279.559907 
L 228.70592 279.609165 
L 229.70592 279.653234 
L 230.70592 279.693358 
L 231.70592 279.801725 
L 232.70592 279.843353 
L 233.70592 279.905495 
L 234.70592 279.975457 
L 235.70592 280.079961 
L 236.70592 280.116949 
L 237.70592 280.162826 
L 238.70592 280.231321 
L 239.70592 280.280067 
L 240.70592 280.357664 
L 241.70592 280.388205 
L 242.70592 280.457719 
L 243.70592 280.481692 
L 244.70592 280.510314 
L 245.70592 280.552107 
L 246.70592 280.573683 
L 247.70592 280.587631 
L 248.70592 280.614353 
L 249.70592 280.623663 
L 250.70592 280.63611 
L 251.70592 280.647165 
L 252.70592 280.652829 
L 253.70592 280.657593 
L 254.70592 280.652046 
L 255.70592 280.638757 
L 256.70592 280.63124 
L 257.70592 280.606455 
L 258.70592 280.582886 
L 259.70592 280.546706 
L 260.70592 280.520744 
L 261.70592 280.498422 
L 262.70592 280.429662 
L 263.70592 280.355127 
L 264.70592 280.261148 
L 265.70592 280.210096 
L 266.70592 280.156162 
L 267.70592 280.120911 
L 268.70592 280.014823 
L 269.70592 279.962559 
L 270.70592 279.925652 
L 271.70592 279.894622 
L 272.70592 279.833466 
L 273.70592 279.766046 
L 274.70592 279.71714 
L 275.70592 279.651948 
L 276.70592 279.61376 
L 277.70592 279.571765 
L 278.70592 279.529747 
L 279.70592 279.470231 
L 280.70592 279.357071 
L 281.70592 279.30482 
L 282.70592 279.265402 
L 283.70592 279.218301 
L 284.70592 279.161522 
L 285.70592 279.128858 
L 286.70592 279.09268 
L 287.70592 279.06059 
L 288.70592 279.02631 
L 289.70592 278.967932 
L 290.70592 278.922747 
L 291.70592 278.893123 
L 292.70592 278.842737 
L 293.70592 278.81754 
L 294.70592 278.796489 
L 295.70592 278.761521 
L 296.70592 278.737231 
L 297.70592 278.723164 
L 298.70592 278.704222 
L 299.70592 278.688561 
L 300.70592 278.676009 
L 301.70592 278.670173 
L 302.70592 278.663291 
L 303.70592 278.658117 
L 304.70592 278.6599 
L 305.70592 278.662625 
L 306.70592 278.673779 
L 307.70592 278.702014 
L 308.70592 278.745802 
L 309.70592 278.766491 
L 310.70592 278.807464 
L 311.70592 278.847539 
L 312.70592 278.866649 
L 313.70592 278.889158 
L 314.70592 278.955809 
L 315.70592 279.005519 
L 316.70592 279.079225 
L 317.70592 279.110539 
L 318.70592 279.187161 
L 319.70592 279.225459 
L 320.70592 279.299576 
L 321.70592 279.403634 
L 322.70592 279.473465 
L 323.70592 279.578699 
L 324.70592 279.633714 
L 325.70592 279.757189 
L 326.70592 279.827748 
L 327.70592 279.943587 
L 328.70592 279.993768 
L 329.70592 280.029372 
L 330.70592 280.120779 
L 331.70592 280.174287 
L 332.70592 280.262195 
L 333.70592 280.33138 
L 334.70592 280.378144 
L 335.70592 280.450188 
L 336.70592 280.50033 
L 337.70592 280.51772 
L 338.70592 280.544723 
L 339.70592 280.56415 
L 340.70592 280.583489 
L 341.70592 280.621737 
L 342.70592 280.63817 
L 343.70592 280.646539 
L 344.70592 280.650858 
L 345.70592 280.657413 
L 346.70592 280.654867 
L 347.70592 280.649408 
L 348.70592 280.63298 
L 349.70592 280.601045 
L 350.70592 280.563065 
L 351.70592 280.528261 
L 352.70592 280.465189 
L 353.70592 280.443762 
L 354.70592 280.393144 
L 355.70592 280.368187 
L 356.70592 280.312554 
L 357.70592 280.281325 
L 358.70592 280.23118 
L 359.70592 280.198687 
L 360.70592 280.118275 
L 361.70592 280.049349 
L 362.70592 279.933652 
L 363.70592 279.858173 
L 364.70592 279.742648 
L 365.70592 279.663164 
L 366.70592 279.554723 
L 367.70592 279.515355 
L 368.70592 279.412487 
L 369.70592 279.312689 
L 370.70592 279.267192 
L 371.70592 279.23287 
L 372.70592 279.180914 
L 373.70592 279.141267 
L 374.70592 279.105753 
L 375.70592 279.038108 
L 376.70592 278.999026 
L 377.70592 278.948545 
L 378.70592 278.899239 
L 379.70592 278.84817 
L 380.70592 278.80393 
L 381.70592 278.78191 
L 382.70592 278.766354 
L 383.70592 278.723907 
L 384.70592 278.709039 
L 385.70592 278.686311 
L 386.70592 278.665995 
L 387.70592 278.660198 
L 388.70592 278.657716 
L 389.70592 278.660773 
L 390.70592 278.672369 
L 391.70592 278.689289 
L 392.70592 278.72095 
L 393.70592 278.735033 
L 394.70592 278.787705 
L 395.70592 278.836794 
L 396.70592 278.891495 
L 397.70592 278.935843 
L 398.70592 279.005835 
L 399.70592 279.056218 
L 400.70592 279.110125 
L 401.70592 279.179564 
L 402.70592 279.236952 
L 403.70592 279.287117 
L 404.70592 279.364279 
L 405.70592 279.422469 
L 406.70592 279.483107 
L 407.70592 279.520308 
L 408.70592 279.5854 
L 409.70592 279.69053 
L 410.70592 279.750832 
L 411.70592 279.847154 
L 412.70592 279.879157 
L 413.70592 279.930174 
L 414.70592 280.046966 
L 415.70592 280.082413 
L 416.70592 280.138293 
L 417.70592 280.168669 
L 418.70592 280.257055 
L 419.70592 280.301819 
L 420.70592 280.382707 
L 421.737874 280.442853 
" clip-path="url(#pe2dc5271b9)" style="fill: none; stroke: #ff7f0e; stroke-linecap: round"/>
          <path d="M 417.737874 277.657651 
L 418.618242 278.132982 
L 419.496149 278.613236 
L 420.346863 279.147877 
L 421.649037 279.835324 
L 420.721684 279.861339 
L 419.81001 280.274059 
L 418.899746 280.689598 
L 417.55725 281.296402 
L 418.212149 280.657651 
L 418.264113 279.657651 
L 418.323203 277.657651 
z
" clip-path="url(#pe2dc5271b9)" style="fill: #ffffff; stroke: #ffffff; stroke-width: 3; stroke-linecap: round"/>
          <path d="M 417.737874 277.657651 
L 418.618242 278.132982 
L 419.496149 278.613236 
L 420.346863 279.147877 
L 421.649037 279.835324 
L 420.721684 279.861339 
L 419.81001 280.274059 
L 418.899746 280.689598 
L 417.55725 281.296402 
L 418.212149 280.657651 
L 418.264113 279.657651 
L 418.323203 277.657651 
z
" clip-path="url(#pe2dc5271b9)" style="fill: #ffffff; stroke: #ff7f0e; stroke-linecap: round"/>
          <path d="M 453.491643 305.800097 
" clip-path="url(#pe2dc5271b9)" style="fill: none; stroke-dasharray: 3.7,1.6; stroke-dashoffset: 0; stroke: #2ca02c"/>
          <path d="M 452.491643 305.800097 
L 454.491643 306.800097 
L 454.491643 304.800097 
z
" clip-path="url(#pe2dc5271b9)" style="fill: #2ca02c; stroke: #2ca02c; stroke-linejoin: miter"/>
          <g id="patch_10">
           <path d="M 63.290625 321.621875 
L 63.290625 10.8 
" style="fill: none; stroke: #000000; stroke-width: 0.8; stroke-linejoin: miter; stroke-linecap: square"/>
          </g>
          <g id="text_11">
           <g id="patch_11">
            <path d="M 299.530042 127.039052 
L 320.834729 127.039052 
Q 322.834729 127.039052 322.834729 125.039052 
L 322.834729 115.360927 
Q 322.834729 113.360927 320.834729 113.360927 
L 299.530042 113.360927 
Q 297.530042 113.360927 297.530042 115.360927 
L 297.530042 125.039052 
Q 297.530042 127.039052 299.530042 127.039052 
z
" style="fill: #ffffff; opacity: 0.6"/>
           </g>
           <!-- ANC -->
           <g transform="translate(299.530042 122.959364) scale(0.1 -0.1)">
            <defs>
             <path id="DejaVuSans-4e" d="M 628 4666 
L 1478 4666 
L 3547 763 
L 3547 4666 
L 4159 4666 
L 4159 0 
L 3309 0 
L 1241 3903 
L 1241 0 
L 628 0 
L 628 4666 
z
" transform="scale(0.015625)"/>
            </defs>
            <use xlink:href="#DejaVuSans-41"/>
            <use xlink:href="#DejaVuSans-4e" x="68.408203"/>
            <use xlink:href="#DejaVuSans-43" x="143.212891"/>
           </g>
          </g>
         </g>
        </g>
        <defs>
         <clipPath id="pe2dc5271b9">
          <rect x="63.290625" y="10.8" width="540.309375" height="310.821875"/>
         </clipPath>
        </defs>
       </g>
      </g>
     </g>
    </g>
   </g>
  </g>
 </g>
</svg>
