<?xml version="1.0" encoding="utf-8" standalone="no"?>
<!DOCTYPE svg PUBLIC "-//W3C//DTD SVG 1.1//EN"
  "http://www.w3.org/Graphics/SVG/1.1/DTD/svg11.dtd">
<svg xmlns:xlink="http://www.w3.org/1999/xlink" width="614.4pt" height="345.6pt" viewBox="0 0 614.4 345.6" xmlns="http://www.w3.org/2000/svg" version="1.1">
 <metadata>
  <rdf:RDF xmlns:dc="http://purl.org/dc/elements/1.1/" xmlns:cc="http://creativecommons.org/ns#" xmlns:rdf="http://www.w3.org/1999/02/22-rdf-syntax-ns#">
   <cc:Work>
    <dc:type rdf:resource="http://purl.org/dc/dcmitype/StillImage"/>
    <dc:date>2024-04-17T19:40:04.345980</dc:date>
    <dc:format>image/svg+xml</dc:format>
    <dc:creator>
     <cc:Agent>
      <dc:title>Matplotlib v3.7.1, https://matplotlib.org/</dc:title>
     </cc:Agent>
    </dc:creator>
   </cc:Work>
  </rdf:RDF>
 </metadata>
 <defs>
  <style type="text/css">*{stroke-linejoin: round; stroke-linecap: butt}</style>
 </defs>
 <g id="figure_1">
  <g id="patch_1">
   <path d="M 0 345.6 
L 614.4 345.6 
L 614.4 0 
L 0 0 
z
" style="fill: #ffffff"/>
  </g>
  <g id="axes_1">
   <g id="patch_2">
    <path d="M 63.290625 321.621875 
L 603.6 321.621875 
L 603.6 10.8 
L 63.290625 10.8 
z
" style="fill: #ffffff"/>
   </g>
   <path d="M 571.970657 303.704 
L 570.970657 303.672564 
L 569.970657 303.635623 
L 568.970657 303.537877 
L 567.970657 303.505355 
L 566.970657 303.431731 
L 565.970657 303.393165 
L 564.970657 303.357752 
L 563.970657 303.300112 
L 562.970657 303.229726 
L 561.970657 303.177762 
L 560.970657 303.118672 
L 559.970657 303.030351 
L 558.970657 302.984207 
L 557.970657 302.941796 
L 556.970657 302.911303 
L 555.970657 302.885258 
L 554.970657 302.864058 
L 553.970657 302.809757 
L 552.970657 302.781819 
L 551.970657 302.752095 
L 550.970657 302.7267 
L 549.970657 302.7155 
L 548.970657 302.705376 
L 547.970657 302.70558 
L 546.970657 302.71509 
L 545.970657 302.726744 
L 544.970657 302.757773 
L 543.970657 302.768941 
L 542.970657 302.799059 
L 541.970657 302.858836 
L 540.970657 302.896027 
L 539.970657 302.935123 
L 538.970657 302.977563 
L 537.970657 303.010328 
L 536.970657 303.077754 
L 535.970657 303.11688 
L 534.970657 303.159555 
L 533.970657 303.230135 
L 532.970657 303.266526 
L 531.970657 303.324929 
L 530.970657 303.435882 
L 529.970657 303.50654 
L 528.970657 303.61948 
L 527.970657 303.665253 
L 526.970657 303.726536 
L 525.970657 303.775036 
L 524.970657 303.855858 
L 523.970657 303.974377 
L 522.970657 304.044588 
L 521.970657 304.12785 
L 520.970657 304.160992 
L 519.970657 304.212229 
L 518.970657 304.280628 
L 517.970657 304.346843 
L 516.970657 304.42376 
L 515.970657 304.451076 
L 514.970657 304.477553 
L 513.970657 304.500204 
L 512.970657 304.519735 
L 511.970657 304.546129 
L 510.970657 304.5959 
L 509.970657 304.630973 
L 508.970657 304.666839 
L 507.970657 304.682206 
L 506.970657 304.697975 
L 505.970657 304.701388 
L 504.970657 304.703806 
L 503.970657 304.703319 
L 502.970657 304.70139 
L 501.970657 304.688133 
L 500.970657 304.679743 
L 499.970657 304.658206 
L 498.970657 304.635174 
L 497.970657 304.61794 
L 496.970657 304.599478 
L 495.970657 304.579025 
L 494.970657 304.562425 
L 493.970657 304.499646 
L 492.970657 304.424381 
L 491.970657 304.391742 
L 490.970657 304.324179 
L 489.970657 304.270132 
L 488.970657 304.236427 
L 487.970657 304.146301 
L 486.970657 304.117766 
L 485.970657 304.08628 
L 484.970657 304.055269 
L 483.970657 304.000461 
L 482.970657 303.935874 
L 481.970657 303.897679 
L 480.970657 303.801744 
L 479.970657 303.752486 
L 478.970657 303.708417 
L 477.970657 303.668293 
L 476.970657 303.559926 
L 475.970657 303.518298 
L 474.970657 303.456157 
L 473.970657 303.386194 
L 472.970657 303.28169 
L 471.970657 303.244702 
L 470.970657 303.198825 
L 469.970657 303.130331 
L 468.970657 303.081585 
L 467.970657 303.003987 
L 466.970657 302.973447 
L 465.970657 302.903932 
L 464.970657 302.879959 
L 463.970657 302.851337 
L 462.970657 302.809544 
L 461.970657 302.787968 
L 460.970657 302.774021 
L 459.970657 302.747298 
L 458.970657 302.737988 
L 457.970657 302.725542 
L 456.970657 302.714487 
L 455.970657 302.708822 
L 454.970657 302.704058 
L 453.970657 302.709606 
L 452.970657 302.722894 
L 451.970657 302.730412 
L 450.970657 302.755196 
L 449.970657 302.778765 
L 448.970657 302.814946 
L 447.970657 302.840908 
L 446.970657 302.863229 
L 445.970657 302.931989 
L 444.721553 303.006524 
" clip-path="url(#p0d79a62fa2)" style="fill: none; stroke-dasharray: 3.7,1.6; stroke-dashoffset: 0; stroke: #2ca02c"/>
   <g id="patch_3">
    <path d="M 295.755078 10.8 
L 295.755078 277.939224 
M 301.708961 10.8 
L 301.708961 277.939224 
" clip-path="url(#p0d79a62fa2)" style="fill: none; stroke: #ffffff; stroke-width: 3; stroke-linejoin: miter"/>
    <path d="M 295.755078 10.8 
L 295.755078 277.939224 
M 301.708961 10.8 
L 301.708961 277.939224 
" clip-path="url(#p0d79a62fa2)" style="fill: none; stroke: #1f77b4; stroke-linejoin: miter"/>
    <g id="PolyCollection_1">
     <path d="M 301.708961 10.8 
L 295.755078 10.8 
L 295.755078 277.939224 
L 301.708961 277.939224 
L 301.708961 277.939224 
L 301.708961 10.8 
z
" clip-path="url(#p0d79a62fa2)" style="fill: #1f77b4; fill-opacity: 0.5"/>
    </g>
    <g id="patch_4">
     <path d="M 88.49083 277.939224 
L 88.384353 317.309473 
L 87.902956 321.285844 
L 87.850142 321.621875 
M 89.760563 277.939224 
L 89.86704 317.309473 
L 90.348438 321.285844 
L 90.401252 321.621875 
L 90.401252 321.621875 
" clip-path="url(#p0d79a62fa2)" style="fill: none; stroke: #ffffff; stroke-width: 3; stroke-linejoin: miter"/>
     <path d="M 88.49083 277.939224 
L 88.384353 317.309473 
L 87.902956 321.285844 
L 87.850142 321.621875 
M 89.760563 277.939224 
L 89.86704 317.309473 
L 90.348438 321.285844 
L 90.401252 321.621875 
L 90.401252 321.621875 
" clip-path="url(#p0d79a62fa2)" style="fill: none; stroke: #ff7f0e; stroke-linejoin: miter"/>
     <g id="PolyCollection_2">
      <path d="M 89.760563 277.939224 
L 88.49083 277.939224 
L 88.49083 316.077358 
L 88.49083 316.077358 
L 88.48634 316.133363 
L 88.481818 316.189368 
L 88.477264 316.245373 
L 88.472678 316.301379 
L 88.46806 316.357384 
L 88.463409 316.413389 
L 88.458725 316.469394 
L 88.454007 316.5254 
L 88.449257 316.581405 
L 88.444473 316.63741 
L 88.439655 316.693415 
L 88.434802 316.74942 
L 88.429916 316.805426 
L 88.424995 316.861431 
L 88.420039 316.917436 
L 88.415048 316.973441 
L 88.410022 317.029447 
L 88.404961 317.085452 
L 88.399863 317.141457 
L 88.39473 317.197462 
L 88.38956 317.253468 
L 88.384353 317.309473 
L 88.37911 317.365478 
L 88.37383 317.421483 
L 88.368512 317.477488 
L 88.363157 317.533494 
L 88.357764 317.589499 
L 88.352333 317.645504 
L 88.346863 317.701509 
L 88.341355 317.757515 
L 88.335807 317.81352 
L 88.330221 317.869525 
L 88.324595 317.92553 
L 88.318929 317.981535 
L 88.313223 318.037541 
L 88.307476 318.093546 
L 88.30169 318.149551 
L 88.295862 318.205556 
L 88.289993 318.261562 
L 88.284082 318.317567 
L 88.27813 318.373572 
L 88.272135 318.429577 
L 88.266098 318.485582 
L 88.260019 318.541588 
L 88.253896 318.597593 
L 88.24773 318.653598 
L 88.241521 318.709603 
L 88.235267 318.765609 
L 88.22897 318.821614 
L 88.222627 318.877619 
L 88.21624 318.933624 
L 88.209808 318.989629 
L 88.20333 319.045635 
L 88.196807 319.10164 
L 88.190237 319.157645 
L 88.183621 319.21365 
L 88.176958 319.269656 
L 88.170248 319.325661 
L 88.163491 319.381666 
L 88.156685 319.437671 
L 88.149832 319.493676 
L 88.14293 319.549682 
L 88.135979 319.605687 
L 88.12898 319.661692 
L 88.12193 319.717697 
L 88.114831 319.773703 
L 88.107682 319.829708 
L 88.100482 319.885713 
L 88.093231 319.941718 
L 88.085928 319.997723 
L 88.078575 320.053729 
L 88.071169 320.109734 
L 88.06371 320.165739 
L 88.056199 320.221744 
L 88.048635 320.27775 
L 88.041018 320.333755 
L 88.033346 320.38976 
L 88.02562 320.445765 
L 88.01784 320.501771 
L 88.010005 320.557776 
L 88.002114 320.613781 
L 87.994167 320.669786 
L 87.986164 320.725791 
L 87.978105 320.781797 
L 87.969988 320.837802 
L 87.961815 320.893807 
L 87.953583 320.949812 
L 87.945293 321.005818 
L 87.936945 321.061823 
L 87.928537 321.117828 
L 87.92007 321.173833 
L 87.911543 321.229838 
L 87.902956 321.285844 
L 87.894308 321.341849 
L 87.885599 321.397854 
L 87.876828 321.453859 
L 87.867995 321.509865 
L 87.8591 321.56587 
L 87.850142 321.621875 
L 90.401252 321.621875 
L 90.401252 321.621875 
L 90.392293 321.56587 
L 90.383398 321.509865 
L 90.374565 321.453859 
L 90.365795 321.397854 
L 90.357086 321.341849 
L 90.348438 321.285844 
L 90.339851 321.229838 
L 90.331324 321.173833 
L 90.322857 321.117828 
L 90.314449 321.061823 
L 90.306101 321.005818 
L 90.297811 320.949812 
L 90.289579 320.893807 
L 90.281405 320.837802 
L 90.273289 320.781797 
L 90.265229 320.725791 
L 90.257226 320.669786 
L 90.24928 320.613781 
L 90.241389 320.557776 
L 90.233554 320.501771 
L 90.225773 320.445765 
L 90.218047 320.38976 
L 90.210376 320.333755 
L 90.202758 320.27775 
L 90.195194 320.221744 
L 90.187683 320.165739 
L 90.180225 320.109734 
L 90.172819 320.053729 
L 90.165465 319.997723 
L 90.158163 319.941718 
L 90.150912 319.885713 
L 90.143712 319.829708 
L 90.136563 319.773703 
L 90.129463 319.717697 
L 90.122414 319.661692 
L 90.115414 319.605687 
L 90.108463 319.549682 
L 90.101562 319.493676 
L 90.094708 319.437671 
L 90.087903 319.381666 
L 90.081145 319.325661 
L 90.074435 319.269656 
L 90.067772 319.21365 
L 90.061156 319.157645 
L 90.054587 319.10164 
L 90.048063 319.045635 
L 90.041585 318.989629 
L 90.035153 318.933624 
L 90.028766 318.877619 
L 90.022424 318.821614 
L 90.016126 318.765609 
L 90.009873 318.709603 
L 90.003663 318.653598 
L 89.997498 318.597593 
L 89.991375 318.541588 
L 89.985295 318.485582 
L 89.979258 318.429577 
L 89.973264 318.373572 
L 89.967312 318.317567 
L 89.961401 318.261562 
L 89.955532 318.205556 
L 89.949704 318.149551 
L 89.943917 318.093546 
L 89.938171 318.037541 
L 89.932465 317.981535 
L 89.926799 317.92553 
L 89.921173 317.869525 
L 89.915586 317.81352 
L 89.910039 317.757515 
L 89.904531 317.701509 
L 89.899061 317.645504 
L 89.89363 317.589499 
L 89.888237 317.533494 
L 89.882881 317.477488 
L 89.877564 317.421483 
L 89.872283 317.365478 
L 89.86704 317.309473 
L 89.861834 317.253468 
L 89.856664 317.197462 
L 89.85153 317.141457 
L 89.846433 317.085452 
L 89.841371 317.029447 
L 89.836345 316.973441 
L 89.831354 316.917436 
L 89.826399 316.861431 
L 89.821478 316.805426 
L 89.816591 316.74942 
L 89.811739 316.693415 
L 89.806921 316.63741 
L 89.802137 316.581405 
L 89.797386 316.5254 
L 89.792669 316.469394 
L 89.787985 316.413389 
L 89.783334 316.357384 
L 89.778715 316.301379 
L 89.774129 316.245373 
L 89.769575 316.189368 
L 89.765053 316.133363 
L 89.760563 316.077358 
L 89.760563 316.077358 
L 89.760563 277.939224 
z
" clip-path="url(#p0d79a62fa2)" style="fill: #ff7f0e; fill-opacity: 0.5"/>
     </g>
     <g id="patch_5">
      <path d="M 577.373751 72.964375 
L 577.373751 321.621875 
M 579.040483 72.964375 
L 579.040483 321.621875 
" clip-path="url(#p0d79a62fa2)" style="fill: none; stroke: #ffffff; stroke-width: 3; stroke-linejoin: miter"/>
      <path d="M 577.373751 72.964375 
L 577.373751 321.621875 
M 579.040483 72.964375 
L 579.040483 321.621875 
" clip-path="url(#p0d79a62fa2)" style="fill: none; stroke: #2ca02c; stroke-linejoin: miter"/>
      <g id="PolyCollection_3">
       <path d="M 579.040483 72.964375 
L 577.373751 72.964375 
L 577.373751 321.621875 
L 579.040483 321.621875 
L 579.040483 321.621875 
L 579.040483 72.964375 
z
" clip-path="url(#p0d79a62fa2)" style="fill: #2ca02c; fill-opacity: 0.5"/>
      </g>
      <g id="patch_6">
       <path d="M 437.620677 277.939224 
L 437.620677 293.601702 
L 438.315149 293.601702 
L 438.315149 294.290851 
L 437.620677 294.290851 
L 437.538441 307.472804 
L 436.991163 308.931471 
L 436.329533 310.098405 
L 435.511759 311.119472 
L 434.381489 312.140539 
L 433.074587 313.015739 
L 431.349885 313.890939 
L 429.07382 314.766139 
L 426.070129 315.64134 
L 422.106199 316.51654 
L 416.875055 317.39174 
L 409.971587 318.266941 
L 400.861174 319.142141 
L 388.838288 320.017341 
L 372.97185 320.892541 
L 355.938321 321.621875 
M 439.318459 277.939224 
L 439.318459 293.601702 
L 438.623988 293.601702 
L 438.623988 294.290851 
L 439.318459 294.290851 
L 439.400695 307.472804 
L 439.947973 308.931471 
L 440.609604 310.098405 
L 441.427377 311.119472 
L 442.557647 312.140539 
L 443.86455 313.015739 
L 445.589251 313.890939 
L 447.865316 314.766139 
L 450.869007 315.64134 
L 454.832937 316.51654 
L 460.064081 317.39174 
L 466.96755 318.266941 
L 476.077963 319.142141 
L 488.100849 320.017341 
L 503.967286 320.892541 
L 521.000815 321.621875 
L 521.000815 321.621875 
" clip-path="url(#p0d79a62fa2)" style="fill: none; stroke: #ffffff; stroke-width: 3; stroke-linejoin: miter"/>
       <path d="M 437.620677 277.939224 
L 437.620677 293.601702 
L 438.315149 293.601702 
L 438.315149 294.290851 
L 437.620677 294.290851 
L 437.538441 307.472804 
L 436.991163 308.931471 
L 436.329533 310.098405 
L 435.511759 311.119472 
L 434.381489 312.140539 
L 433.074587 313.015739 
L 431.349885 313.890939 
L 429.07382 314.766139 
L 426.070129 315.64134 
L 422.106199 316.51654 
L 416.875055 317.39174 
L 409.971587 318.266941 
L 400.861174 319.142141 
L 388.838288 320.017341 
L 372.97185 320.892541 
L 355.938321 321.621875 
M 439.318459 277.939224 
L 439.318459 293.601702 
L 438.623988 293.601702 
L 438.623988 294.290851 
L 439.318459 294.290851 
L 439.400695 307.472804 
L 439.947973 308.931471 
L 440.609604 310.098405 
L 441.427377 311.119472 
L 442.557647 312.140539 
L 443.86455 313.015739 
L 445.589251 313.890939 
L 447.865316 314.766139 
L 450.869007 315.64134 
L 454.832937 316.51654 
L 460.064081 317.39174 
L 466.96755 318.266941 
L 476.077963 319.142141 
L 488.100849 320.017341 
L 503.967286 320.892541 
L 521.000815 321.621875 
L 521.000815 321.621875 
" clip-path="url(#p0d79a62fa2)" style="fill: none; stroke: #d62728; stroke-linejoin: miter"/>
       <g id="PolyCollection_4">
        <path d="M 439.318459 277.939224 
L 437.620677 277.939224 
L 437.620677 293.601702 
L 438.315149 293.601702 
L 438.315149 294.290851 
L 437.620677 294.290851 
L 437.620677 307.18107 
L 437.620677 307.18107 
L 437.580509 307.326937 
L 437.538441 307.472804 
L 437.494382 307.61867 
L 437.448239 307.764537 
L 437.399912 307.910404 
L 437.349298 308.056271 
L 437.29629 308.202137 
L 437.240773 308.348004 
L 437.182629 308.493871 
L 437.121734 308.639737 
L 437.057957 308.785604 
L 436.991163 308.931471 
L 436.921208 309.077338 
L 436.847944 309.223204 
L 436.771212 309.369071 
L 436.69085 309.514938 
L 436.606685 309.660804 
L 436.518537 309.806671 
L 436.426219 309.952538 
L 436.329533 310.098405 
L 436.228271 310.244271 
L 436.122218 310.390138 
L 436.011147 310.536005 
L 435.89482 310.681871 
L 435.772989 310.827738 
L 435.645393 310.973605 
L 435.511759 311.119472 
L 435.371802 311.265338 
L 435.225223 311.411205 
L 435.071708 311.557072 
L 434.910929 311.702938 
L 434.742543 311.848805 
L 434.566188 311.994672 
L 434.381489 312.140539 
L 434.188051 312.286405 
L 433.985459 312.432272 
L 433.773281 312.578139 
L 433.551064 312.724005 
L 433.318331 312.869872 
L 433.074587 313.015739 
L 432.819308 313.161606 
L 432.551951 313.307472 
L 432.271943 313.453339 
L 431.978685 313.599206 
L 431.671552 313.745072 
L 431.349885 313.890939 
L 431.012998 314.036806 
L 430.66017 314.182673 
L 430.290647 314.328539 
L 429.90364 314.474406 
L 429.498319 314.620273 
L 429.07382 314.766139 
L 428.629235 314.912006 
L 428.163613 315.057873 
L 427.675959 315.20374 
L 427.16523 315.349606 
L 426.630335 315.495473 
L 426.070129 315.64134 
L 425.483416 315.787206 
L 424.868941 315.933073 
L 424.225391 316.07894 
L 423.551389 316.224807 
L 422.845495 316.370673 
L 422.106199 316.51654 
L 421.331922 316.662407 
L 420.521008 316.808273 
L 419.671723 316.95414 
L 418.782252 317.100007 
L 417.850693 317.245874 
L 416.875055 317.39174 
L 415.853252 317.537607 
L 414.7831 317.683474 
L 413.66231 317.82934 
L 412.488488 317.975207 
L 411.259123 318.121074 
L 409.971587 318.266941 
L 408.623127 318.412807 
L 407.210862 318.558674 
L 405.731772 318.704541 
L 404.182694 318.850407 
L 402.560317 318.996274 
L 400.861174 319.142141 
L 399.081631 319.288008 
L 397.217884 319.433874 
L 395.265948 319.579741 
L 393.221652 319.725608 
L 391.080624 319.871474 
L 388.838288 320.017341 
L 386.489849 320.163208 
L 384.030288 320.309075 
L 381.454346 320.454941 
L 378.756516 320.600808 
L 375.931031 320.746675 
L 372.97185 320.892541 
L 369.872648 321.038408 
L 366.626799 321.184275 
L 363.227364 321.330142 
L 359.667075 321.476008 
L 355.938321 321.621875 
L 521.000815 321.621875 
L 521.000815 321.621875 
L 517.272062 321.476008 
L 513.711773 321.330142 
L 510.312338 321.184275 
L 507.066488 321.038408 
L 503.967286 320.892541 
L 501.008106 320.746675 
L 498.182621 320.600808 
L 495.484791 320.454941 
L 492.908849 320.309075 
L 490.449287 320.163208 
L 488.100849 320.017341 
L 485.858512 319.871474 
L 483.717485 319.725608 
L 481.673188 319.579741 
L 479.721253 319.433874 
L 477.857506 319.288008 
L 476.077963 319.142141 
L 474.378819 318.996274 
L 472.756443 318.850407 
L 471.207365 318.704541 
L 469.728275 318.558674 
L 468.316009 318.412807 
L 466.96755 318.266941 
L 465.680014 318.121074 
L 464.450649 317.975207 
L 463.276826 317.82934 
L 462.156037 317.683474 
L 461.085884 317.537607 
L 460.064081 317.39174 
L 459.088443 317.245874 
L 458.156885 317.100007 
L 457.267414 316.95414 
L 456.418129 316.808273 
L 455.607215 316.662407 
L 454.832937 316.51654 
L 454.093642 316.370673 
L 453.387748 316.224807 
L 452.713746 316.07894 
L 452.070195 315.933073 
L 451.45572 315.787206 
L 450.869007 315.64134 
L 450.308802 315.495473 
L 449.773906 315.349606 
L 449.263178 315.20374 
L 448.775523 315.057873 
L 448.309901 314.912006 
L 447.865316 314.766139 
L 447.440817 314.620273 
L 447.035497 314.474406 
L 446.648489 314.328539 
L 446.278966 314.182673 
L 445.926138 314.036806 
L 445.589251 313.890939 
L 445.267585 313.745072 
L 444.960451 313.599206 
L 444.667194 313.453339 
L 444.387185 313.307472 
L 444.119828 313.161606 
L 443.86455 313.015739 
L 443.620805 312.869872 
L 443.388073 312.724005 
L 443.165855 312.578139 
L 442.953677 312.432272 
L 442.751086 312.286405 
L 442.557647 312.140539 
L 442.372948 311.994672 
L 442.196594 311.848805 
L 442.028207 311.702938 
L 441.867428 311.557072 
L 441.713913 311.411205 
L 441.567334 311.265338 
L 441.427377 311.119472 
L 441.293744 310.973605 
L 441.166148 310.827738 
L 441.044317 310.681871 
L 440.92799 310.536005 
L 440.816919 310.390138 
L 440.710866 310.244271 
L 440.609604 310.098405 
L 440.512917 309.952538 
L 440.420599 309.806671 
L 440.332452 309.660804 
L 440.248287 309.514938 
L 440.167924 309.369071 
L 440.091193 309.223204 
L 440.017928 309.077338 
L 439.947973 308.931471 
L 439.881179 308.785604 
L 439.817403 308.639737 
L 439.756508 308.493871 
L 439.698364 308.348004 
L 439.642847 308.202137 
L 439.589838 308.056271 
L 439.539225 307.910404 
L 439.490898 307.764537 
L 439.444754 307.61867 
L 439.400695 307.472804 
L 439.358627 307.326937 
L 439.318459 307.18107 
L 439.318459 307.18107 
L 439.318459 294.290851 
L 438.623988 294.290851 
L 438.623988 293.601702 
L 439.318459 293.601702 
L 439.318459 277.939224 
z
" clip-path="url(#p0d79a62fa2)" style="fill: #d62728; fill-opacity: 0.5"/>
       </g>
       <g id="matplotlib.axis_1">
        <g id="xtick_1">
         <g id="line2d_1"/>
         <g id="text_1">
          <!-- OUT -->
          <g transform="translate(78.476478 332.720312) scale(0.1 -0.1)">
           <defs>
            <path id="DejaVuSans-4f" d="M 2522 4238 
Q 1834 4238 1429 3725 
Q 1025 3213 1025 2328 
Q 1025 1447 1429 934 
Q 1834 422 2522 422 
Q 3209 422 3611 934 
Q 4013 1447 4013 2328 
Q 4013 3213 3611 3725 
Q 3209 4238 2522 4238 
z
M 2522 4750 
Q 3503 4750 4090 4092 
Q 4678 3434 4678 2328 
Q 4678 1225 4090 567 
Q 3503 -91 2522 -91 
Q 1538 -91 948 565 
Q 359 1222 359 2328 
Q 359 3434 948 4092 
Q 1538 4750 2522 4750 
z
" transform="scale(0.015625)"/>
            <path id="DejaVuSans-55" d="M 556 4666 
L 1191 4666 
L 1191 1831 
Q 1191 1081 1462 751 
Q 1734 422 2344 422 
Q 2950 422 3222 751 
Q 3494 1081 3494 1831 
L 3494 4666 
L 4128 4666 
L 4128 1753 
Q 4128 841 3676 375 
Q 3225 -91 2344 -91 
Q 1459 -91 1007 375 
Q 556 841 556 1753 
L 556 4666 
z
" transform="scale(0.015625)"/>
            <path id="DejaVuSans-54" d="M -19 4666 
L 3928 4666 
L 3928 4134 
L 2272 4134 
L 2272 0 
L 1638 0 
L 1638 4134 
L -19 4134 
L -19 4666 
z
" transform="scale(0.015625)"/>
           </defs>
           <use xlink:href="#DejaVuSans-4f"/>
           <use xlink:href="#DejaVuSans-55" x="78.710938"/>
           <use xlink:href="#DejaVuSans-54" x="151.904297"/>
          </g>
         </g>
        </g>
        <g id="xtick_2">
         <g id="line2d_2"/>
         <g id="text_2">
          <!-- SRC -->
          <g transform="translate(568.317273 332.720312) scale(0.1 -0.1)">
           <defs>
            <path id="DejaVuSans-53" d="M 3425 4513 
L 3425 3897 
Q 3066 4069 2747 4153 
Q 2428 4238 2131 4238 
Q 1616 4238 1336 4038 
Q 1056 3838 1056 3469 
Q 1056 3159 1242 3001 
Q 1428 2844 1947 2747 
L 2328 2669 
Q 3034 2534 3370 2195 
Q 3706 1856 3706 1288 
Q 3706 609 3251 259 
Q 2797 -91 1919 -91 
Q 1588 -91 1214 -16 
Q 841 59 441 206 
L 441 856 
Q 825 641 1194 531 
Q 1563 422 1919 422 
Q 2459 422 2753 634 
Q 3047 847 3047 1241 
Q 3047 1584 2836 1778 
Q 2625 1972 2144 2069 
L 1759 2144 
Q 1053 2284 737 2584 
Q 422 2884 422 3419 
Q 422 4038 858 4394 
Q 1294 4750 2059 4750 
Q 2388 4750 2728 4690 
Q 3069 4631 3425 4513 
z
" transform="scale(0.015625)"/>
            <path id="DejaVuSans-52" d="M 2841 2188 
Q 3044 2119 3236 1894 
Q 3428 1669 3622 1275 
L 4263 0 
L 3584 0 
L 2988 1197 
Q 2756 1666 2539 1819 
Q 2322 1972 1947 1972 
L 1259 1972 
L 1259 0 
L 628 0 
L 628 4666 
L 2053 4666 
Q 2853 4666 3247 4331 
Q 3641 3997 3641 3322 
Q 3641 2881 3436 2590 
Q 3231 2300 2841 2188 
z
M 1259 4147 
L 1259 2491 
L 2053 2491 
Q 2509 2491 2742 2702 
Q 2975 2913 2975 3322 
Q 2975 3731 2742 3939 
Q 2509 4147 2053 4147 
L 1259 4147 
z
" transform="scale(0.015625)"/>
            <path id="DejaVuSans-43" d="M 4122 4306 
L 4122 3641 
Q 3803 3938 3442 4084 
Q 3081 4231 2675 4231 
Q 1875 4231 1450 3742 
Q 1025 3253 1025 2328 
Q 1025 1406 1450 917 
Q 1875 428 2675 428 
Q 3081 428 3442 575 
Q 3803 722 4122 1019 
L 4122 359 
Q 3791 134 3420 21 
Q 3050 -91 2638 -91 
Q 1578 -91 968 557 
Q 359 1206 359 2328 
Q 359 3453 968 4101 
Q 1578 4750 2638 4750 
Q 3056 4750 3426 4639 
Q 3797 4528 4122 4306 
z
" transform="scale(0.015625)"/>
           </defs>
           <use xlink:href="#DejaVuSans-53"/>
           <use xlink:href="#DejaVuSans-52" x="63.476562"/>
           <use xlink:href="#DejaVuSans-43" x="127.958984"/>
          </g>
         </g>
        </g>
        <g id="xtick_3">
         <g id="line2d_3"/>
         <g id="text_3">
          <!-- TAR -->
          <g transform="translate(428.908631 332.720312) scale(0.1 -0.1)">
           <defs>
            <path id="DejaVuSans-41" d="M 2188 4044 
L 1331 1722 
L 3047 1722 
L 2188 4044 
z
M 1831 4666 
L 2547 4666 
L 4325 0 
L 3669 0 
L 3244 1197 
L 1141 1197 
L 716 0 
L 50 0 
L 1831 4666 
z
" transform="scale(0.015625)"/>
           </defs>
           <use xlink:href="#DejaVuSans-54"/>
           <use xlink:href="#DejaVuSans-41" x="53.333984"/>
           <use xlink:href="#DejaVuSans-52" x="121.742188"/>
          </g>
         </g>
        </g>
       </g>
       <g id="matplotlib.axis_2">
        <g id="ytick_1">
         <g id="line2d_4">
          <defs>
           <path id="ma543a757d4" d="M 0 0 
L -3.5 0 
" style="stroke: #000000; stroke-width: 0.8"/>
          </defs>
          <g>
           <use xlink:href="#ma543a757d4" x="63.290625" y="321.621875" style="stroke: #000000; stroke-width: 0.8"/>
          </g>
         </g>
         <g id="text_4">
          <!-- 0 -->
          <g transform="translate(49.928125 325.421094) scale(0.1 -0.1)">
           <defs>
            <path id="DejaVuSans-30" d="M 2034 4250 
Q 1547 4250 1301 3770 
Q 1056 3291 1056 2328 
Q 1056 1369 1301 889 
Q 1547 409 2034 409 
Q 2525 409 2770 889 
Q 3016 1369 3016 2328 
Q 3016 3291 2770 3770 
Q 2525 4250 2034 4250 
z
M 2034 4750 
Q 2819 4750 3233 4129 
Q 3647 3509 3647 2328 
Q 3647 1150 3233 529 
Q 2819 -91 2034 -91 
Q 1250 -91 836 529 
Q 422 1150 422 2328 
Q 422 3509 836 4129 
Q 1250 4750 2034 4750 
z
" transform="scale(0.015625)"/>
           </defs>
           <use xlink:href="#DejaVuSans-30"/>
          </g>
         </g>
        </g>
        <g id="ytick_2">
         <g id="line2d_5">
          <g>
           <use xlink:href="#ma543a757d4" x="63.290625" y="282.46568" style="stroke: #000000; stroke-width: 0.8"/>
          </g>
         </g>
         <g id="text_5">
          <!-- 2500 -->
          <g transform="translate(30.840625 286.264899) scale(0.1 -0.1)">
           <defs>
            <path id="DejaVuSans-32" d="M 1228 531 
L 3431 531 
L 3431 0 
L 469 0 
L 469 531 
Q 828 903 1448 1529 
Q 2069 2156 2228 2338 
Q 2531 2678 2651 2914 
Q 2772 3150 2772 3378 
Q 2772 3750 2511 3984 
Q 2250 4219 1831 4219 
Q 1534 4219 1204 4116 
Q 875 4013 500 3803 
L 500 4441 
Q 881 4594 1212 4672 
Q 1544 4750 1819 4750 
Q 2544 4750 2975 4387 
Q 3406 4025 3406 3419 
Q 3406 3131 3298 2873 
Q 3191 2616 2906 2266 
Q 2828 2175 2409 1742 
Q 1991 1309 1228 531 
z
" transform="scale(0.015625)"/>
            <path id="DejaVuSans-35" d="M 691 4666 
L 3169 4666 
L 3169 4134 
L 1269 4134 
L 1269 2991 
Q 1406 3038 1543 3061 
Q 1681 3084 1819 3084 
Q 2600 3084 3056 2656 
Q 3513 2228 3513 1497 
Q 3513 744 3044 326 
Q 2575 -91 1722 -91 
Q 1428 -91 1123 -41 
Q 819 9 494 109 
L 494 744 
Q 775 591 1075 516 
Q 1375 441 1709 441 
Q 2250 441 2565 725 
Q 2881 1009 2881 1497 
Q 2881 1984 2565 2268 
Q 2250 2553 1709 2553 
Q 1456 2553 1204 2497 
Q 953 2441 691 2322 
L 691 4666 
z
" transform="scale(0.015625)"/>
           </defs>
           <use xlink:href="#DejaVuSans-32"/>
           <use xlink:href="#DejaVuSans-35" x="63.623047"/>
           <use xlink:href="#DejaVuSans-30" x="127.246094"/>
           <use xlink:href="#DejaVuSans-30" x="190.869141"/>
          </g>
         </g>
        </g>
        <g id="ytick_3">
         <g id="line2d_6">
          <g>
           <use xlink:href="#ma543a757d4" x="63.290625" y="243.309485" style="stroke: #000000; stroke-width: 0.8"/>
          </g>
         </g>
         <g id="text_6">
          <!-- 5000 -->
          <g transform="translate(30.840625 247.108704) scale(0.1 -0.1)">
           <use xlink:href="#DejaVuSans-35"/>
           <use xlink:href="#DejaVuSans-30" x="63.623047"/>
           <use xlink:href="#DejaVuSans-30" x="127.246094"/>
           <use xlink:href="#DejaVuSans-30" x="190.869141"/>
          </g>
         </g>
        </g>
        <g id="ytick_4">
         <g id="line2d_7">
          <g>
           <use xlink:href="#ma543a757d4" x="63.290625" y="204.15329" style="stroke: #000000; stroke-width: 0.8"/>
          </g>
         </g>
         <g id="text_7">
          <!-- 7500 -->
          <g transform="translate(30.840625 207.952509) scale(0.1 -0.1)">
           <defs>
            <path id="DejaVuSans-37" d="M 525 4666 
L 3525 4666 
L 3525 4397 
L 1831 0 
L 1172 0 
L 2766 4134 
L 525 4134 
L 525 4666 
z
" transform="scale(0.015625)"/>
           </defs>
           <use xlink:href="#DejaVuSans-37"/>
           <use xlink:href="#DejaVuSans-35" x="63.623047"/>
           <use xlink:href="#DejaVuSans-30" x="127.246094"/>
           <use xlink:href="#DejaVuSans-30" x="190.869141"/>
          </g>
         </g>
        </g>
        <g id="ytick_5">
         <g id="line2d_8">
          <g>
           <use xlink:href="#ma543a757d4" x="63.290625" y="164.997095" style="stroke: #000000; stroke-width: 0.8"/>
          </g>
         </g>
         <g id="text_8">
          <!-- 10000 -->
          <g transform="translate(24.478125 168.796314) scale(0.1 -0.1)">
           <defs>
            <path id="DejaVuSans-31" d="M 794 531 
L 1825 531 
L 1825 4091 
L 703 3866 
L 703 4441 
L 1819 4666 
L 2450 4666 
L 2450 531 
L 3481 531 
L 3481 0 
L 794 0 
L 794 531 
z
" transform="scale(0.015625)"/>
           </defs>
           <use xlink:href="#DejaVuSans-31"/>
           <use xlink:href="#DejaVuSans-30" x="63.623047"/>
           <use xlink:href="#DejaVuSans-30" x="127.246094"/>
           <use xlink:href="#DejaVuSans-30" x="190.869141"/>
           <use xlink:href="#DejaVuSans-30" x="254.492188"/>
          </g>
         </g>
        </g>
        <g id="ytick_6">
         <g id="line2d_9">
          <g>
           <use xlink:href="#ma543a757d4" x="63.290625" y="125.840901" style="stroke: #000000; stroke-width: 0.8"/>
          </g>
         </g>
         <g id="text_9">
          <!-- 12500 -->
          <g transform="translate(24.478125 129.640119) scale(0.1 -0.1)">
           <use xlink:href="#DejaVuSans-31"/>
           <use xlink:href="#DejaVuSans-32" x="63.623047"/>
           <use xlink:href="#DejaVuSans-35" x="127.246094"/>
           <use xlink:href="#DejaVuSans-30" x="190.869141"/>
           <use xlink:href="#DejaVuSans-30" x="254.492188"/>
          </g>
         </g>
        </g>
        <g id="ytick_7">
         <g id="line2d_10">
          <g>
           <use xlink:href="#ma543a757d4" x="63.290625" y="86.684706" style="stroke: #000000; stroke-width: 0.8"/>
          </g>
         </g>
         <g id="text_10">
          <!-- 15000 -->
          <g transform="translate(24.478125 90.483924) scale(0.1 -0.1)">
           <use xlink:href="#DejaVuSans-31"/>
           <use xlink:href="#DejaVuSans-35" x="63.623047"/>
           <use xlink:href="#DejaVuSans-30" x="127.246094"/>
           <use xlink:href="#DejaVuSans-30" x="190.869141"/>
           <use xlink:href="#DejaVuSans-30" x="254.492188"/>
          </g>
         </g>
        </g>
        <g id="ytick_8">
         <g id="line2d_11">
          <g>
           <use xlink:href="#ma543a757d4" x="63.290625" y="47.528511" style="stroke: #000000; stroke-width: 0.8"/>
          </g>
         </g>
         <g id="text_11">
          <!-- 17500 -->
          <g transform="translate(24.478125 51.32773) scale(0.1 -0.1)">
           <use xlink:href="#DejaVuSans-31"/>
           <use xlink:href="#DejaVuSans-37" x="63.623047"/>
           <use xlink:href="#DejaVuSans-35" x="127.246094"/>
           <use xlink:href="#DejaVuSans-30" x="190.869141"/>
           <use xlink:href="#DejaVuSans-30" x="254.492188"/>
          </g>
         </g>
        </g>
        <g id="text_12">
         <!-- time ago (generations) -->
         <g transform="translate(18.398438 223.682031) rotate(-90) scale(0.1 -0.1)">
          <defs>
           <path id="DejaVuSans-74" d="M 1172 4494 
L 1172 3500 
L 2356 3500 
L 2356 3053 
L 1172 3053 
L 1172 1153 
Q 1172 725 1289 603 
Q 1406 481 1766 481 
L 2356 481 
L 2356 0 
L 1766 0 
Q 1100 0 847 248 
Q 594 497 594 1153 
L 594 3053 
L 172 3053 
L 172 3500 
L 594 3500 
L 594 4494 
L 1172 4494 
z
" transform="scale(0.015625)"/>
           <path id="DejaVuSans-69" d="M 603 3500 
L 1178 3500 
L 1178 0 
L 603 0 
L 603 3500 
z
M 603 4863 
L 1178 4863 
L 1178 4134 
L 603 4134 
L 603 4863 
z
" transform="scale(0.015625)"/>
           <path id="DejaVuSans-6d" d="M 3328 2828 
Q 3544 3216 3844 3400 
Q 4144 3584 4550 3584 
Q 5097 3584 5394 3201 
Q 5691 2819 5691 2113 
L 5691 0 
L 5113 0 
L 5113 2094 
Q 5113 2597 4934 2840 
Q 4756 3084 4391 3084 
Q 3944 3084 3684 2787 
Q 3425 2491 3425 1978 
L 3425 0 
L 2847 0 
L 2847 2094 
Q 2847 2600 2669 2842 
Q 2491 3084 2119 3084 
Q 1678 3084 1418 2786 
Q 1159 2488 1159 1978 
L 1159 0 
L 581 0 
L 581 3500 
L 1159 3500 
L 1159 2956 
Q 1356 3278 1631 3431 
Q 1906 3584 2284 3584 
Q 2666 3584 2933 3390 
Q 3200 3197 3328 2828 
z
" transform="scale(0.015625)"/>
           <path id="DejaVuSans-65" d="M 3597 1894 
L 3597 1613 
L 953 1613 
Q 991 1019 1311 708 
Q 1631 397 2203 397 
Q 2534 397 2845 478 
Q 3156 559 3463 722 
L 3463 178 
Q 3153 47 2828 -22 
Q 2503 -91 2169 -91 
Q 1331 -91 842 396 
Q 353 884 353 1716 
Q 353 2575 817 3079 
Q 1281 3584 2069 3584 
Q 2775 3584 3186 3129 
Q 3597 2675 3597 1894 
z
M 3022 2063 
Q 3016 2534 2758 2815 
Q 2500 3097 2075 3097 
Q 1594 3097 1305 2825 
Q 1016 2553 972 2059 
L 3022 2063 
z
" transform="scale(0.015625)"/>
           <path id="DejaVuSans-20" transform="scale(0.015625)"/>
           <path id="DejaVuSans-61" d="M 2194 1759 
Q 1497 1759 1228 1600 
Q 959 1441 959 1056 
Q 959 750 1161 570 
Q 1363 391 1709 391 
Q 2188 391 2477 730 
Q 2766 1069 2766 1631 
L 2766 1759 
L 2194 1759 
z
M 3341 1997 
L 3341 0 
L 2766 0 
L 2766 531 
Q 2569 213 2275 61 
Q 1981 -91 1556 -91 
Q 1019 -91 701 211 
Q 384 513 384 1019 
Q 384 1609 779 1909 
Q 1175 2209 1959 2209 
L 2766 2209 
L 2766 2266 
Q 2766 2663 2505 2880 
Q 2244 3097 1772 3097 
Q 1472 3097 1187 3025 
Q 903 2953 641 2809 
L 641 3341 
Q 956 3463 1253 3523 
Q 1550 3584 1831 3584 
Q 2591 3584 2966 3190 
Q 3341 2797 3341 1997 
z
" transform="scale(0.015625)"/>
           <path id="DejaVuSans-67" d="M 2906 1791 
Q 2906 2416 2648 2759 
Q 2391 3103 1925 3103 
Q 1463 3103 1205 2759 
Q 947 2416 947 1791 
Q 947 1169 1205 825 
Q 1463 481 1925 481 
Q 2391 481 2648 825 
Q 2906 1169 2906 1791 
z
M 3481 434 
Q 3481 -459 3084 -895 
Q 2688 -1331 1869 -1331 
Q 1566 -1331 1297 -1286 
Q 1028 -1241 775 -1147 
L 775 -588 
Q 1028 -725 1275 -790 
Q 1522 -856 1778 -856 
Q 2344 -856 2625 -561 
Q 2906 -266 2906 331 
L 2906 616 
Q 2728 306 2450 153 
Q 2172 0 1784 0 
Q 1141 0 747 490 
Q 353 981 353 1791 
Q 353 2603 747 3093 
Q 1141 3584 1784 3584 
Q 2172 3584 2450 3431 
Q 2728 3278 2906 2969 
L 2906 3500 
L 3481 3500 
L 3481 434 
z
" transform="scale(0.015625)"/>
           <path id="DejaVuSans-6f" d="M 1959 3097 
Q 1497 3097 1228 2736 
Q 959 2375 959 1747 
Q 959 1119 1226 758 
Q 1494 397 1959 397 
Q 2419 397 2687 759 
Q 2956 1122 2956 1747 
Q 2956 2369 2687 2733 
Q 2419 3097 1959 3097 
z
M 1959 3584 
Q 2709 3584 3137 3096 
Q 3566 2609 3566 1747 
Q 3566 888 3137 398 
Q 2709 -91 1959 -91 
Q 1206 -91 779 398 
Q 353 888 353 1747 
Q 353 2609 779 3096 
Q 1206 3584 1959 3584 
z
" transform="scale(0.015625)"/>
           <path id="DejaVuSans-28" d="M 1984 4856 
Q 1566 4138 1362 3434 
Q 1159 2731 1159 2009 
Q 1159 1288 1364 580 
Q 1569 -128 1984 -844 
L 1484 -844 
Q 1016 -109 783 600 
Q 550 1309 550 2009 
Q 550 2706 781 3412 
Q 1013 4119 1484 4856 
L 1984 4856 
z
" transform="scale(0.015625)"/>
           <path id="DejaVuSans-6e" d="M 3513 2113 
L 3513 0 
L 2938 0 
L 2938 2094 
Q 2938 2591 2744 2837 
Q 2550 3084 2163 3084 
Q 1697 3084 1428 2787 
Q 1159 2491 1159 1978 
L 1159 0 
L 581 0 
L 581 3500 
L 1159 3500 
L 1159 2956 
Q 1366 3272 1645 3428 
Q 1925 3584 2291 3584 
Q 2894 3584 3203 3211 
Q 3513 2838 3513 2113 
z
" transform="scale(0.015625)"/>
           <path id="DejaVuSans-72" d="M 2631 2963 
Q 2534 3019 2420 3045 
Q 2306 3072 2169 3072 
Q 1681 3072 1420 2755 
Q 1159 2438 1159 1844 
L 1159 0 
L 581 0 
L 581 3500 
L 1159 3500 
L 1159 2956 
Q 1341 3275 1631 3429 
Q 1922 3584 2338 3584 
Q 2397 3584 2469 3576 
Q 2541 3569 2628 3553 
L 2631 2963 
z
" transform="scale(0.015625)"/>
           <path id="DejaVuSans-73" d="M 2834 3397 
L 2834 2853 
Q 2591 2978 2328 3040 
Q 2066 3103 1784 3103 
Q 1356 3103 1142 2972 
Q 928 2841 928 2578 
Q 928 2378 1081 2264 
Q 1234 2150 1697 2047 
L 1894 2003 
Q 2506 1872 2764 1633 
Q 3022 1394 3022 966 
Q 3022 478 2636 193 
Q 2250 -91 1575 -91 
Q 1294 -91 989 -36 
Q 684 19 347 128 
L 347 722 
Q 666 556 975 473 
Q 1284 391 1588 391 
Q 1994 391 2212 530 
Q 2431 669 2431 922 
Q 2431 1156 2273 1281 
Q 2116 1406 1581 1522 
L 1381 1569 
Q 847 1681 609 1914 
Q 372 2147 372 2553 
Q 372 3047 722 3315 
Q 1072 3584 1716 3584 
Q 2034 3584 2315 3537 
Q 2597 3491 2834 3397 
z
" transform="scale(0.015625)"/>
           <path id="DejaVuSans-29" d="M 513 4856 
L 1013 4856 
Q 1481 4119 1714 3412 
Q 1947 2706 1947 2009 
Q 1947 1309 1714 600 
Q 1481 -109 1013 -844 
L 513 -844 
Q 928 -128 1133 580 
Q 1338 1288 1338 2009 
Q 1338 2731 1133 3434 
Q 928 4138 513 4856 
z
" transform="scale(0.015625)"/>
          </defs>
          <use xlink:href="#DejaVuSans-74"/>
          <use xlink:href="#DejaVuSans-69" x="39.208984"/>
          <use xlink:href="#DejaVuSans-6d" x="66.992188"/>
          <use xlink:href="#DejaVuSans-65" x="164.404297"/>
          <use xlink:href="#DejaVuSans-20" x="225.927734"/>
          <use xlink:href="#DejaVuSans-61" x="257.714844"/>
          <use xlink:href="#DejaVuSans-67" x="318.994141"/>
          <use xlink:href="#DejaVuSans-6f" x="382.470703"/>
          <use xlink:href="#DejaVuSans-20" x="443.652344"/>
          <use xlink:href="#DejaVuSans-28" x="475.439453"/>
          <use xlink:href="#DejaVuSans-67" x="514.453125"/>
          <use xlink:href="#DejaVuSans-65" x="577.929688"/>
          <use xlink:href="#DejaVuSans-6e" x="639.453125"/>
          <use xlink:href="#DejaVuSans-65" x="702.832031"/>
          <use xlink:href="#DejaVuSans-72" x="764.355469"/>
          <use xlink:href="#DejaVuSans-61" x="805.46875"/>
          <use xlink:href="#DejaVuSans-74" x="866.748047"/>
          <use xlink:href="#DejaVuSans-69" x="905.957031"/>
          <use xlink:href="#DejaVuSans-6f" x="933.740234"/>
          <use xlink:href="#DejaVuSans-6e" x="994.921875"/>
          <use xlink:href="#DejaVuSans-73" x="1058.300781"/>
          <use xlink:href="#DejaVuSans-29" x="1110.400391"/>
         </g>
        </g>
       </g>
       <g id="patch_7">
        <path d="M 293.752843 277.939224 
L 292.752843 277.907788 
L 291.752843 277.870847 
L 290.752843 277.773101 
L 289.752843 277.740579 
L 288.752843 277.666954 
L 287.752843 277.628389 
L 286.752843 277.592976 
L 285.752843 277.535336 
L 284.752843 277.46495 
L 283.752843 277.412985 
L 282.752843 277.353896 
L 281.752843 277.265575 
L 280.752843 277.21943 
L 279.752843 277.177019 
L 278.752843 277.146527 
L 277.752843 277.120482 
L 276.752843 277.099282 
L 275.752843 277.044981 
L 274.752843 277.017043 
L 273.752843 276.987319 
L 272.752843 276.961924 
L 271.752843 276.950724 
L 270.752843 276.9406 
L 269.752843 276.940804 
L 268.752843 276.950314 
L 267.752843 276.961968 
L 266.752843 276.992997 
L 265.752843 277.004165 
L 264.752843 277.034282 
L 263.752843 277.094059 
L 262.752843 277.131251 
L 261.752843 277.170347 
L 260.752843 277.212787 
L 259.752843 277.245552 
L 258.752843 277.312978 
L 257.752843 277.352104 
L 256.752843 277.394779 
L 255.752843 277.465359 
L 254.752843 277.50175 
L 253.752843 277.560153 
L 252.752843 277.671106 
L 251.752843 277.741764 
L 250.752843 277.854704 
L 249.752843 277.900477 
L 248.752843 277.96176 
L 247.752843 278.010259 
L 246.752843 278.091082 
L 245.752843 278.209601 
L 244.752843 278.279812 
L 243.752843 278.363074 
L 242.752843 278.396216 
L 241.752843 278.447453 
L 240.752843 278.515852 
L 239.752843 278.582067 
L 238.752843 278.658984 
L 237.752843 278.686299 
L 236.752843 278.712777 
L 235.752843 278.735428 
L 234.752843 278.754959 
L 233.752843 278.781353 
L 232.752843 278.831124 
L 231.752843 278.866197 
L 230.752843 278.902063 
L 229.752843 278.91743 
L 228.752843 278.933199 
L 227.752843 278.936612 
L 226.752843 278.939029 
L 225.752843 278.938543 
L 224.752843 278.936614 
L 223.752843 278.923357 
L 222.752843 278.914966 
L 221.752843 278.89343 
L 220.752843 278.870397 
L 219.752843 278.853164 
L 218.752843 278.834701 
L 217.752843 278.814249 
L 216.752843 278.797649 
L 215.752843 278.73487 
L 214.752843 278.659605 
L 213.752843 278.626966 
L 212.752843 278.559402 
L 211.752843 278.505355 
L 210.752843 278.471651 
L 209.752843 278.381525 
L 208.752843 278.35299 
L 207.752843 278.321504 
L 206.752843 278.290493 
L 205.752843 278.235685 
L 204.752843 278.171098 
L 203.752843 278.132902 
L 202.752843 278.036968 
L 201.752843 277.98771 
L 200.752843 277.943641 
L 199.752843 277.903517 
L 198.752843 277.79515 
L 197.752843 277.753522 
L 196.752843 277.69138 
L 195.752843 277.621418 
L 194.752843 277.516914 
L 193.752843 277.479926 
L 192.752843 277.434049 
L 191.752843 277.365554 
L 190.752843 277.316808 
L 189.752843 277.239211 
L 188.752843 277.20867 
L 187.752843 277.139156 
L 186.752843 277.115183 
L 185.752843 277.086561 
L 184.752843 277.044768 
L 183.752843 277.023192 
L 182.752843 277.009244 
L 181.752843 276.982522 
L 180.752843 276.973212 
L 179.752843 276.960765 
L 178.752843 276.94971 
L 177.752843 276.944046 
L 176.752843 276.939282 
L 175.752843 276.944829 
L 174.752843 276.958118 
L 173.752843 276.965635 
L 172.752843 276.99042 
L 171.752843 277.013989 
L 170.752843 277.050169 
L 169.752843 277.076131 
L 168.752843 277.098453 
L 167.752843 277.167213 
L 166.752843 277.241748 
L 165.752843 277.335727 
L 164.752843 277.386779 
L 163.752843 277.440713 
L 162.752843 277.475964 
L 161.752843 277.582052 
L 160.752843 277.634316 
L 159.752843 277.671223 
L 158.752843 277.702253 
L 157.752843 277.763409 
L 156.752843 277.830829 
L 155.752843 277.879735 
L 154.752843 277.944927 
L 153.752843 277.983115 
L 152.752843 278.025111 
L 151.752843 278.067128 
L 150.752843 278.126644 
L 149.752843 278.239804 
L 148.752843 278.292055 
L 147.752843 278.331473 
L 146.752843 278.378574 
L 145.752843 278.435353 
L 144.752843 278.468017 
L 143.752843 278.504195 
L 142.752843 278.536285 
L 141.752843 278.570565 
L 140.752843 278.628943 
L 139.752843 278.674128 
L 138.752843 278.703752 
L 137.752843 278.754138 
L 136.752843 278.779335 
L 135.752843 278.800386 
L 134.752843 278.835354 
L 133.752843 278.859644 
L 132.752843 278.873711 
L 131.752843 278.892653 
L 130.752843 278.908314 
L 129.752843 278.920866 
L 128.752843 278.926702 
L 127.752843 278.933584 
L 126.752843 278.938758 
L 125.752843 278.936975 
L 124.752843 278.93425 
L 123.752843 278.923096 
L 122.752843 278.894861 
L 121.752843 278.851073 
L 120.752843 278.830384 
L 119.752843 278.789411 
L 118.752843 278.749336 
L 117.752843 278.730226 
L 116.752843 278.707717 
L 115.752843 278.641066 
L 114.752843 278.591356 
L 113.752843 278.51765 
L 112.752843 278.486336 
L 111.752843 278.409714 
L 110.752843 278.371416 
L 109.752843 278.297299 
L 108.752843 278.193241 
L 107.752843 278.12341 
L 106.752843 278.018176 
L 105.752843 277.963161 
L 104.752843 277.839686 
L 103.752843 277.769127 
L 102.752843 277.653288 
L 101.752843 277.603107 
L 100.752843 277.567503 
L 99.752843 277.476096 
L 98.752843 277.422588 
L 97.752843 277.33468 
L 96.752843 277.265495 
L 95.752843 277.218731 
L 94.752843 277.146687 
L 92.880047 277.096545 
" clip-path="url(#p0d79a62fa2)" style="fill: none; stroke: #ffffff; stroke-width: 3; stroke-linecap: round"/>
        <path d="M 293.752843 277.939224 
L 292.752843 277.907788 
L 291.752843 277.870847 
L 290.752843 277.773101 
L 289.752843 277.740579 
L 288.752843 277.666954 
L 287.752843 277.628389 
L 286.752843 277.592976 
L 285.752843 277.535336 
L 284.752843 277.46495 
L 283.752843 277.412985 
L 282.752843 277.353896 
L 281.752843 277.265575 
L 280.752843 277.21943 
L 279.752843 277.177019 
L 278.752843 277.146527 
L 277.752843 277.120482 
L 276.752843 277.099282 
L 275.752843 277.044981 
L 274.752843 277.017043 
L 273.752843 276.987319 
L 272.752843 276.961924 
L 271.752843 276.950724 
L 270.752843 276.9406 
L 269.752843 276.940804 
L 268.752843 276.950314 
L 267.752843 276.961968 
L 266.752843 276.992997 
L 265.752843 277.004165 
L 264.752843 277.034282 
L 263.752843 277.094059 
L 262.752843 277.131251 
L 261.752843 277.170347 
L 260.752843 277.212787 
L 259.752843 277.245552 
L 258.752843 277.312978 
L 257.752843 277.352104 
L 256.752843 277.394779 
L 255.752843 277.465359 
L 254.752843 277.50175 
L 253.752843 277.560153 
L 252.752843 277.671106 
L 251.752843 277.741764 
L 250.752843 277.854704 
L 249.752843 277.900477 
L 248.752843 277.96176 
L 247.752843 278.010259 
L 246.752843 278.091082 
L 245.752843 278.209601 
L 244.752843 278.279812 
L 243.752843 278.363074 
L 242.752843 278.396216 
L 241.752843 278.447453 
L 240.752843 278.515852 
L 239.752843 278.582067 
L 238.752843 278.658984 
L 237.752843 278.686299 
L 236.752843 278.712777 
L 235.752843 278.735428 
L 234.752843 278.754959 
L 233.752843 278.781353 
L 232.752843 278.831124 
L 231.752843 278.866197 
L 230.752843 278.902063 
L 229.752843 278.91743 
L 228.752843 278.933199 
L 227.752843 278.936612 
L 226.752843 278.939029 
L 225.752843 278.938543 
L 224.752843 278.936614 
L 223.752843 278.923357 
L 222.752843 278.914966 
L 221.752843 278.89343 
L 220.752843 278.870397 
L 219.752843 278.853164 
L 218.752843 278.834701 
L 217.752843 278.814249 
L 216.752843 278.797649 
L 215.752843 278.73487 
L 214.752843 278.659605 
L 213.752843 278.626966 
L 212.752843 278.559402 
L 211.752843 278.505355 
L 210.752843 278.471651 
L 209.752843 278.381525 
L 208.752843 278.35299 
L 207.752843 278.321504 
L 206.752843 278.290493 
L 205.752843 278.235685 
L 204.752843 278.171098 
L 203.752843 278.132902 
L 202.752843 278.036968 
L 201.752843 277.98771 
L 200.752843 277.943641 
L 199.752843 277.903517 
L 198.752843 277.79515 
L 197.752843 277.753522 
L 196.752843 277.69138 
L 195.752843 277.621418 
L 194.752843 277.516914 
L 193.752843 277.479926 
L 192.752843 277.434049 
L 191.752843 277.365554 
L 190.752843 277.316808 
L 189.752843 277.239211 
L 188.752843 277.20867 
L 187.752843 277.139156 
L 186.752843 277.115183 
L 185.752843 277.086561 
L 184.752843 277.044768 
L 183.752843 277.023192 
L 182.752843 277.009244 
L 181.752843 276.982522 
L 180.752843 276.973212 
L 179.752843 276.960765 
L 178.752843 276.94971 
L 177.752843 276.944046 
L 176.752843 276.939282 
L 175.752843 276.944829 
L 174.752843 276.958118 
L 173.752843 276.965635 
L 172.752843 276.99042 
L 171.752843 277.013989 
L 170.752843 277.050169 
L 169.752843 277.076131 
L 168.752843 277.098453 
L 167.752843 277.167213 
L 166.752843 277.241748 
L 165.752843 277.335727 
L 164.752843 277.386779 
L 163.752843 277.440713 
L 162.752843 277.475964 
L 161.752843 277.582052 
L 160.752843 277.634316 
L 159.752843 277.671223 
L 158.752843 277.702253 
L 157.752843 277.763409 
L 156.752843 277.830829 
L 155.752843 277.879735 
L 154.752843 277.944927 
L 153.752843 277.983115 
L 152.752843 278.025111 
L 151.752843 278.067128 
L 150.752843 278.126644 
L 149.752843 278.239804 
L 148.752843 278.292055 
L 147.752843 278.331473 
L 146.752843 278.378574 
L 145.752843 278.435353 
L 144.752843 278.468017 
L 143.752843 278.504195 
L 142.752843 278.536285 
L 141.752843 278.570565 
L 140.752843 278.628943 
L 139.752843 278.674128 
L 138.752843 278.703752 
L 137.752843 278.754138 
L 136.752843 278.779335 
L 135.752843 278.800386 
L 134.752843 278.835354 
L 133.752843 278.859644 
L 132.752843 278.873711 
L 131.752843 278.892653 
L 130.752843 278.908314 
L 129.752843 278.920866 
L 128.752843 278.926702 
L 127.752843 278.933584 
L 126.752843 278.938758 
L 125.752843 278.936975 
L 124.752843 278.93425 
L 123.752843 278.923096 
L 122.752843 278.894861 
L 121.752843 278.851073 
L 120.752843 278.830384 
L 119.752843 278.789411 
L 118.752843 278.749336 
L 117.752843 278.730226 
L 116.752843 278.707717 
L 115.752843 278.641066 
L 114.752843 278.591356 
L 113.752843 278.51765 
L 112.752843 278.486336 
L 111.752843 278.409714 
L 110.752843 278.371416 
L 109.752843 278.297299 
L 108.752843 278.193241 
L 107.752843 278.12341 
L 106.752843 278.018176 
L 105.752843 277.963161 
L 104.752843 277.839686 
L 103.752843 277.769127 
L 102.752843 277.653288 
L 101.752843 277.603107 
L 100.752843 277.567503 
L 99.752843 277.476096 
L 98.752843 277.422588 
L 97.752843 277.33468 
L 96.752843 277.265495 
L 95.752843 277.218731 
L 94.752843 277.146687 
L 92.880047 277.096545 
" clip-path="url(#p0d79a62fa2)" style="fill: none; stroke: #1f77b4; stroke-linecap: round"/>
        <path d="M 96.880047 279.939224 
L 95.999679 279.463893 
L 95.121772 278.983639 
L 94.271058 278.448998 
L 92.968884 277.761551 
L 93.896237 277.735536 
L 94.807911 277.322816 
L 95.718176 276.907277 
L 97.060672 276.300473 
L 96.405773 276.939224 
L 96.353809 277.939224 
L 96.294719 279.939224 
z
" clip-path="url(#p0d79a62fa2)" style="fill: #ffffff; stroke: #ffffff; stroke-width: 3; stroke-linecap: round"/>
        <path d="M 96.880047 279.939224 
L 95.999679 279.463893 
L 95.121772 278.983639 
L 94.271058 278.448998 
L 92.968884 277.761551 
L 93.896237 277.735536 
L 94.807911 277.322816 
L 95.718176 276.907277 
L 97.060672 276.300473 
L 96.405773 276.939224 
L 96.353809 277.939224 
L 96.294719 279.939224 
z
" clip-path="url(#p0d79a62fa2)" style="fill: #ffffff; stroke: #1f77b4; stroke-linecap: round"/>
        <g id="patch_8">
         <path d="M 303.706959 72.964375 
L 304.706959 72.995811 
L 305.706959 73.032752 
L 306.706959 73.130498 
L 307.706959 73.16302 
L 308.706959 73.236645 
L 309.706959 73.27521 
L 310.706959 73.310623 
L 311.706959 73.368263 
L 312.706959 73.438649 
L 313.706959 73.490614 
L 314.706959 73.549703 
L 315.706959 73.638024 
L 316.706959 73.684169 
L 317.706959 73.72658 
L 318.706959 73.757072 
L 319.706959 73.783117 
L 320.706959 73.804317 
L 321.706959 73.858618 
L 322.706959 73.886556 
L 323.706959 73.91628 
L 324.706959 73.941675 
L 325.706959 73.952875 
L 326.706959 73.962999 
L 327.706959 73.962795 
L 328.706959 73.953285 
L 329.706959 73.941631 
L 330.706959 73.910602 
L 331.706959 73.899434 
L 332.706959 73.869317 
L 333.706959 73.80954 
L 334.706959 73.772348 
L 335.706959 73.733252 
L 336.706959 73.690812 
L 337.706959 73.658047 
L 338.706959 73.590621 
L 339.706959 73.551495 
L 340.706959 73.50882 
L 341.706959 73.43824 
L 342.706959 73.401849 
L 343.706959 73.343446 
L 344.706959 73.232493 
L 345.706959 73.161835 
L 346.706959 73.048895 
L 347.706959 73.003122 
L 348.706959 72.941839 
L 349.706959 72.89334 
L 350.706959 72.812517 
L 351.706959 72.693998 
L 352.706959 72.623787 
L 353.706959 72.540525 
L 354.706959 72.507383 
L 355.706959 72.456146 
L 356.706959 72.387747 
L 357.706959 72.321532 
L 358.706959 72.244615 
L 359.706959 72.217299 
L 360.706959 72.190822 
L 361.706959 72.168171 
L 362.706959 72.14864 
L 363.706959 72.122246 
L 364.706959 72.072475 
L 365.706959 72.037402 
L 366.706959 72.001536 
L 367.706959 71.986169 
L 368.706959 71.9704 
L 369.706959 71.966987 
L 370.706959 71.96457 
L 371.706959 71.965056 
L 372.706959 71.966985 
L 373.706959 71.980242 
L 374.706959 71.988633 
L 375.706959 72.010169 
L 376.706959 72.033202 
L 377.706959 72.050435 
L 378.706959 72.068898 
L 379.706959 72.08935 
L 380.706959 72.10595 
L 381.706959 72.168729 
L 382.706959 72.243994 
L 383.706959 72.276633 
L 384.706959 72.344197 
L 385.706959 72.398244 
L 386.706959 72.431948 
L 387.706959 72.522074 
L 388.706959 72.550609 
L 389.706959 72.582095 
L 390.706959 72.613106 
L 391.706959 72.667914 
L 392.706959 72.732501 
L 393.706959 72.770697 
L 394.706959 72.866631 
L 395.706959 72.915889 
L 396.706959 72.959958 
L 397.706959 73.000082 
L 398.706959 73.108449 
L 399.706959 73.150077 
L 400.706959 73.212219 
L 401.706959 73.282181 
L 402.706959 73.386685 
L 403.706959 73.423673 
L 404.706959 73.46955 
L 405.706959 73.538045 
L 406.706959 73.586791 
L 407.706959 73.664388 
L 408.706959 73.694929 
L 409.706959 73.764443 
L 410.706959 73.788416 
L 411.706959 73.817038 
L 412.706959 73.858831 
L 413.706959 73.880407 
L 414.706959 73.894355 
L 415.706959 73.921077 
L 416.706959 73.930387 
L 417.706959 73.942834 
L 418.706959 73.953889 
L 419.706959 73.959553 
L 420.706959 73.964317 
L 421.706959 73.958769 
L 422.706959 73.945481 
L 423.706959 73.937964 
L 424.706959 73.913179 
L 425.706959 73.88961 
L 426.706959 73.85343 
L 427.706959 73.827468 
L 428.706959 73.805146 
L 429.706959 73.736386 
L 430.706959 73.661851 
L 431.706959 73.567872 
L 432.706959 73.51682 
L 433.706959 73.462886 
L 434.706959 73.427635 
L 435.706959 73.321547 
L 436.706959 73.269283 
L 437.706959 73.232376 
L 438.706959 73.201345 
L 439.706959 73.14019 
L 440.706959 73.07277 
L 441.706959 73.023864 
L 442.706959 72.958672 
L 443.706959 72.920484 
L 444.706959 72.878488 
L 445.706959 72.836471 
L 446.706959 72.776955 
L 447.706959 72.663795 
L 448.706959 72.611544 
L 449.706959 72.572126 
L 450.706959 72.525025 
L 451.706959 72.468245 
L 452.706959 72.435582 
L 453.706959 72.399404 
L 454.706959 72.367314 
L 455.706959 72.333034 
L 456.706959 72.274656 
L 457.706959 72.229471 
L 458.706959 72.199847 
L 459.706959 72.149461 
L 460.706959 72.124264 
L 461.706959 72.103213 
L 462.706959 72.068245 
L 463.706959 72.043955 
L 464.706959 72.029888 
L 465.706959 72.010946 
L 466.706959 71.995285 
L 467.706959 71.982733 
L 468.706959 71.976897 
L 469.706959 71.970015 
L 470.706959 71.964841 
L 471.706959 71.966624 
L 472.706959 71.969349 
L 473.706959 71.980503 
L 474.706959 72.008738 
L 475.706959 72.052526 
L 476.706959 72.073215 
L 477.706959 72.114188 
L 478.706959 72.154263 
L 479.706959 72.173373 
L 480.706959 72.195882 
L 481.706959 72.262533 
L 482.706959 72.312243 
L 483.706959 72.385949 
L 484.706959 72.417263 
L 485.706959 72.493885 
L 486.706959 72.532183 
L 487.706959 72.6063 
L 488.706959 72.710358 
L 489.706959 72.780189 
L 490.706959 72.885423 
L 491.706959 72.940438 
L 492.706959 73.063913 
L 493.706959 73.134472 
L 494.706959 73.250311 
L 495.706959 73.300492 
L 496.706959 73.336096 
L 497.706959 73.427503 
L 498.706959 73.481011 
L 499.706959 73.568919 
L 500.706959 73.638104 
L 501.706959 73.684868 
L 502.706959 73.756912 
L 503.706959 73.807054 
L 504.706959 73.824444 
L 505.706959 73.851447 
L 506.706959 73.870874 
L 507.706959 73.890212 
L 508.706959 73.928461 
L 509.706959 73.944894 
L 510.706959 73.953263 
L 511.706959 73.957582 
L 512.706959 73.964137 
L 513.706959 73.961591 
L 514.706959 73.956132 
L 515.706959 73.939704 
L 516.706959 73.907769 
L 517.706959 73.869789 
L 518.706959 73.834985 
L 519.706959 73.771913 
L 520.706959 73.750486 
L 521.706959 73.699868 
L 522.706959 73.674911 
L 523.706959 73.619277 
L 524.706959 73.588048 
L 525.706959 73.537904 
L 526.706959 73.505411 
L 527.706959 73.424999 
L 528.706959 73.356073 
L 529.706959 73.240376 
L 530.706959 73.164897 
L 531.706959 73.049372 
L 532.706959 72.969888 
L 533.706959 72.861447 
L 534.706959 72.822079 
L 535.706959 72.719211 
L 536.706959 72.619413 
L 537.706959 72.573916 
L 538.706959 72.539594 
L 539.706959 72.487638 
L 540.706959 72.447991 
L 541.706959 72.412477 
L 542.706959 72.344832 
L 543.706959 72.30575 
L 544.706959 72.255269 
L 545.706959 72.205963 
L 546.706959 72.154893 
L 547.706959 72.110654 
L 548.706959 72.088634 
L 549.706959 72.073078 
L 550.706959 72.030631 
L 551.706959 72.015763 
L 552.706959 71.993035 
L 553.706959 71.972719 
L 554.706959 71.966922 
L 555.706959 71.96444 
L 556.706959 71.967497 
L 557.706959 71.979093 
L 558.706959 71.996013 
L 559.706959 72.027674 
L 560.706959 72.041757 
L 561.706959 72.094429 
L 562.706959 72.143518 
L 563.706959 72.198219 
L 564.706959 72.242567 
L 565.706959 72.312559 
L 566.706959 72.362942 
L 567.706959 72.416849 
L 568.706959 72.486288 
L 569.706959 72.543676 
L 570.706959 72.593841 
L 571.706959 72.671003 
L 572.706959 72.729193 
L 574.255497 72.789831 
" clip-path="url(#p0d79a62fa2)" style="fill: none; stroke: #ffffff; stroke-width: 3; stroke-linecap: round"/>
         <path d="M 303.706959 72.964375 
L 304.706959 72.995811 
L 305.706959 73.032752 
L 306.706959 73.130498 
L 307.706959 73.16302 
L 308.706959 73.236645 
L 309.706959 73.27521 
L 310.706959 73.310623 
L 311.706959 73.368263 
L 312.706959 73.438649 
L 313.706959 73.490614 
L 314.706959 73.549703 
L 315.706959 73.638024 
L 316.706959 73.684169 
L 317.706959 73.72658 
L 318.706959 73.757072 
L 319.706959 73.783117 
L 320.706959 73.804317 
L 321.706959 73.858618 
L 322.706959 73.886556 
L 323.706959 73.91628 
L 324.706959 73.941675 
L 325.706959 73.952875 
L 326.706959 73.962999 
L 327.706959 73.962795 
L 328.706959 73.953285 
L 329.706959 73.941631 
L 330.706959 73.910602 
L 331.706959 73.899434 
L 332.706959 73.869317 
L 333.706959 73.80954 
L 334.706959 73.772348 
L 335.706959 73.733252 
L 336.706959 73.690812 
L 337.706959 73.658047 
L 338.706959 73.590621 
L 339.706959 73.551495 
L 340.706959 73.50882 
L 341.706959 73.43824 
L 342.706959 73.401849 
L 343.706959 73.343446 
L 344.706959 73.232493 
L 345.706959 73.161835 
L 346.706959 73.048895 
L 347.706959 73.003122 
L 348.706959 72.941839 
L 349.706959 72.89334 
L 350.706959 72.812517 
L 351.706959 72.693998 
L 352.706959 72.623787 
L 353.706959 72.540525 
L 354.706959 72.507383 
L 355.706959 72.456146 
L 356.706959 72.387747 
L 357.706959 72.321532 
L 358.706959 72.244615 
L 359.706959 72.217299 
L 360.706959 72.190822 
L 361.706959 72.168171 
L 362.706959 72.14864 
L 363.706959 72.122246 
L 364.706959 72.072475 
L 365.706959 72.037402 
L 366.706959 72.001536 
L 367.706959 71.986169 
L 368.706959 71.9704 
L 369.706959 71.966987 
L 370.706959 71.96457 
L 371.706959 71.965056 
L 372.706959 71.966985 
L 373.706959 71.980242 
L 374.706959 71.988633 
L 375.706959 72.010169 
L 376.706959 72.033202 
L 377.706959 72.050435 
L 378.706959 72.068898 
L 379.706959 72.08935 
L 380.706959 72.10595 
L 381.706959 72.168729 
L 382.706959 72.243994 
L 383.706959 72.276633 
L 384.706959 72.344197 
L 385.706959 72.398244 
L 386.706959 72.431948 
L 387.706959 72.522074 
L 388.706959 72.550609 
L 389.706959 72.582095 
L 390.706959 72.613106 
L 391.706959 72.667914 
L 392.706959 72.732501 
L 393.706959 72.770697 
L 394.706959 72.866631 
L 395.706959 72.915889 
L 396.706959 72.959958 
L 397.706959 73.000082 
L 398.706959 73.108449 
L 399.706959 73.150077 
L 400.706959 73.212219 
L 401.706959 73.282181 
L 402.706959 73.386685 
L 403.706959 73.423673 
L 404.706959 73.46955 
L 405.706959 73.538045 
L 406.706959 73.586791 
L 407.706959 73.664388 
L 408.706959 73.694929 
L 409.706959 73.764443 
L 410.706959 73.788416 
L 411.706959 73.817038 
L 412.706959 73.858831 
L 413.706959 73.880407 
L 414.706959 73.894355 
L 415.706959 73.921077 
L 416.706959 73.930387 
L 417.706959 73.942834 
L 418.706959 73.953889 
L 419.706959 73.959553 
L 420.706959 73.964317 
L 421.706959 73.958769 
L 422.706959 73.945481 
L 423.706959 73.937964 
L 424.706959 73.913179 
L 425.706959 73.88961 
L 426.706959 73.85343 
L 427.706959 73.827468 
L 428.706959 73.805146 
L 429.706959 73.736386 
L 430.706959 73.661851 
L 431.706959 73.567872 
L 432.706959 73.51682 
L 433.706959 73.462886 
L 434.706959 73.427635 
L 435.706959 73.321547 
L 436.706959 73.269283 
L 437.706959 73.232376 
L 438.706959 73.201345 
L 439.706959 73.14019 
L 440.706959 73.07277 
L 441.706959 73.023864 
L 442.706959 72.958672 
L 443.706959 72.920484 
L 444.706959 72.878488 
L 445.706959 72.836471 
L 446.706959 72.776955 
L 447.706959 72.663795 
L 448.706959 72.611544 
L 449.706959 72.572126 
L 450.706959 72.525025 
L 451.706959 72.468245 
L 452.706959 72.435582 
L 453.706959 72.399404 
L 454.706959 72.367314 
L 455.706959 72.333034 
L 456.706959 72.274656 
L 457.706959 72.229471 
L 458.706959 72.199847 
L 459.706959 72.149461 
L 460.706959 72.124264 
L 461.706959 72.103213 
L 462.706959 72.068245 
L 463.706959 72.043955 
L 464.706959 72.029888 
L 465.706959 72.010946 
L 466.706959 71.995285 
L 467.706959 71.982733 
L 468.706959 71.976897 
L 469.706959 71.970015 
L 470.706959 71.964841 
L 471.706959 71.966624 
L 472.706959 71.969349 
L 473.706959 71.980503 
L 474.706959 72.008738 
L 475.706959 72.052526 
L 476.706959 72.073215 
L 477.706959 72.114188 
L 478.706959 72.154263 
L 479.706959 72.173373 
L 480.706959 72.195882 
L 481.706959 72.262533 
L 482.706959 72.312243 
L 483.706959 72.385949 
L 484.706959 72.417263 
L 485.706959 72.493885 
L 486.706959 72.532183 
L 487.706959 72.6063 
L 488.706959 72.710358 
L 489.706959 72.780189 
L 490.706959 72.885423 
L 491.706959 72.940438 
L 492.706959 73.063913 
L 493.706959 73.134472 
L 494.706959 73.250311 
L 495.706959 73.300492 
L 496.706959 73.336096 
L 497.706959 73.427503 
L 498.706959 73.481011 
L 499.706959 73.568919 
L 500.706959 73.638104 
L 501.706959 73.684868 
L 502.706959 73.756912 
L 503.706959 73.807054 
L 504.706959 73.824444 
L 505.706959 73.851447 
L 506.706959 73.870874 
L 507.706959 73.890212 
L 508.706959 73.928461 
L 509.706959 73.944894 
L 510.706959 73.953263 
L 511.706959 73.957582 
L 512.706959 73.964137 
L 513.706959 73.961591 
L 514.706959 73.956132 
L 515.706959 73.939704 
L 516.706959 73.907769 
L 517.706959 73.869789 
L 518.706959 73.834985 
L 519.706959 73.771913 
L 520.706959 73.750486 
L 521.706959 73.699868 
L 522.706959 73.674911 
L 523.706959 73.619277 
L 524.706959 73.588048 
L 525.706959 73.537904 
L 526.706959 73.505411 
L 527.706959 73.424999 
L 528.706959 73.356073 
L 529.706959 73.240376 
L 530.706959 73.164897 
L 531.706959 73.049372 
L 532.706959 72.969888 
L 533.706959 72.861447 
L 534.706959 72.822079 
L 535.706959 72.719211 
L 536.706959 72.619413 
L 537.706959 72.573916 
L 538.706959 72.539594 
L 539.706959 72.487638 
L 540.706959 72.447991 
L 541.706959 72.412477 
L 542.706959 72.344832 
L 543.706959 72.30575 
L 544.706959 72.255269 
L 545.706959 72.205963 
L 546.706959 72.154893 
L 547.706959 72.110654 
L 548.706959 72.088634 
L 549.706959 72.073078 
L 550.706959 72.030631 
L 551.706959 72.015763 
L 552.706959 71.993035 
L 553.706959 71.972719 
L 554.706959 71.966922 
L 555.706959 71.96444 
L 556.706959 71.967497 
L 557.706959 71.979093 
L 558.706959 71.996013 
L 559.706959 72.027674 
L 560.706959 72.041757 
L 561.706959 72.094429 
L 562.706959 72.143518 
L 563.706959 72.198219 
L 564.706959 72.242567 
L 565.706959 72.312559 
L 566.706959 72.362942 
L 567.706959 72.416849 
L 568.706959 72.486288 
L 569.706959 72.543676 
L 570.706959 72.593841 
L 571.706959 72.671003 
L 572.706959 72.729193 
L 574.255497 72.789831 
" clip-path="url(#p0d79a62fa2)" style="fill: none; stroke: #1f77b4; stroke-linecap: round"/>
         <path d="M 570.255497 70.964375 
L 571.135865 71.439706 
L 572.013772 71.91996 
L 572.864486 72.454601 
L 574.16666 73.142048 
L 573.239307 73.168063 
L 572.327633 73.580783 
L 571.417369 73.996322 
L 570.074873 74.603126 
L 570.729772 73.964375 
L 570.781736 72.964375 
L 570.840826 70.964375 
z
" clip-path="url(#p0d79a62fa2)" style="fill: #ffffff; stroke: #ffffff; stroke-width: 3; stroke-linecap: round"/>
         <path d="M 570.255497 70.964375 
L 571.135865 71.439706 
L 572.013772 71.91996 
L 572.864486 72.454601 
L 574.16666 73.142048 
L 573.239307 73.168063 
L 572.327633 73.580783 
L 571.417369 73.996322 
L 570.074873 74.603126 
L 570.729772 73.964375 
L 570.781736 72.964375 
L 570.840826 70.964375 
z
" clip-path="url(#p0d79a62fa2)" style="fill: #ffffff; stroke: #1f77b4; stroke-linecap: round"/>
         <g id="patch_9">
          <path d="M 303.712298 277.939224 
L 304.712298 277.97066 
L 305.712298 278.007601 
L 306.712298 278.105347 
L 307.712298 278.137869 
L 308.712298 278.211494 
L 309.712298 278.250059 
L 310.712298 278.285472 
L 311.712298 278.343112 
L 312.712298 278.413498 
L 313.712298 278.465463 
L 314.712298 278.524552 
L 315.712298 278.612873 
L 316.712298 278.659018 
L 317.712298 278.701429 
L 318.712298 278.731921 
L 319.712298 278.757966 
L 320.712298 278.779166 
L 321.712298 278.833467 
L 322.712298 278.861405 
L 323.712298 278.891129 
L 324.712298 278.916524 
L 325.712298 278.927724 
L 326.712298 278.937848 
L 327.712298 278.937644 
L 328.712298 278.928134 
L 329.712298 278.91648 
L 330.712298 278.885451 
L 331.712298 278.874283 
L 332.712298 278.844166 
L 333.712298 278.784389 
L 334.712298 278.747197 
L 335.712298 278.708101 
L 336.712298 278.665661 
L 337.712298 278.632896 
L 338.712298 278.56547 
L 339.712298 278.526344 
L 340.712298 278.483669 
L 341.712298 278.413089 
L 342.712298 278.376698 
L 343.712298 278.318295 
L 344.712298 278.207342 
L 345.712298 278.136684 
L 346.712298 278.023744 
L 347.712298 277.977971 
L 348.712298 277.916688 
L 349.712298 277.868189 
L 350.712298 277.787366 
L 351.712298 277.668847 
L 352.712298 277.598636 
L 353.712298 277.515374 
L 354.712298 277.482232 
L 355.712298 277.430995 
L 356.712298 277.362596 
L 357.712298 277.296381 
L 358.712298 277.219464 
L 359.712298 277.192148 
L 360.712298 277.165671 
L 361.712298 277.14302 
L 362.712298 277.123489 
L 363.712298 277.097095 
L 364.712298 277.047324 
L 365.712298 277.012251 
L 366.712298 276.976385 
L 367.712298 276.961018 
L 368.712298 276.945249 
L 369.712298 276.941836 
L 370.712298 276.939419 
L 371.712298 276.939905 
L 372.712298 276.941834 
L 373.712298 276.955091 
L 374.712298 276.963481 
L 375.712298 276.985018 
L 376.712298 277.008051 
L 377.712298 277.025284 
L 378.712298 277.043747 
L 379.712298 277.064199 
L 380.712298 277.080799 
L 381.712298 277.143578 
L 382.712298 277.218843 
L 383.712298 277.251482 
L 384.712298 277.319046 
L 385.712298 277.373093 
L 386.712298 277.406797 
L 387.712298 277.496923 
L 388.712298 277.525458 
L 389.712298 277.556944 
L 390.712298 277.587955 
L 391.712298 277.642763 
L 392.712298 277.70735 
L 393.712298 277.745546 
L 394.712298 277.84148 
L 395.712298 277.890738 
L 396.712298 277.934807 
L 397.712298 277.974931 
L 398.712298 278.083298 
L 399.712298 278.124926 
L 400.712298 278.187068 
L 401.712298 278.25703 
L 402.712298 278.361534 
L 403.712298 278.398522 
L 404.712298 278.444399 
L 405.712298 278.512894 
L 406.712298 278.56164 
L 407.712298 278.639237 
L 408.712298 278.669778 
L 409.712298 278.739292 
L 410.712298 278.763265 
L 411.712298 278.791887 
L 412.712298 278.83368 
L 413.712298 278.855256 
L 414.712298 278.869204 
L 415.712298 278.895926 
L 416.712298 278.905236 
L 417.712298 278.917683 
L 418.712298 278.928738 
L 419.712298 278.934402 
L 420.712298 278.939166 
L 421.712298 278.933618 
L 422.712298 278.92033 
L 423.712298 278.912813 
L 424.712298 278.888028 
L 425.712298 278.864459 
L 426.712298 278.828279 
L 427.712298 278.802317 
L 428.712298 278.779995 
L 429.712298 278.711235 
L 430.712298 278.6367 
L 431.712298 278.542721 
L 432.712298 278.491669 
L 434.504315 278.437735 
" clip-path="url(#p0d79a62fa2)" style="fill: none; stroke: #ffffff; stroke-width: 3; stroke-linecap: round"/>
          <path d="M 303.712298 277.939224 
L 304.712298 277.97066 
L 305.712298 278.007601 
L 306.712298 278.105347 
L 307.712298 278.137869 
L 308.712298 278.211494 
L 309.712298 278.250059 
L 310.712298 278.285472 
L 311.712298 278.343112 
L 312.712298 278.413498 
L 313.712298 278.465463 
L 314.712298 278.524552 
L 315.712298 278.612873 
L 316.712298 278.659018 
L 317.712298 278.701429 
L 318.712298 278.731921 
L 319.712298 278.757966 
L 320.712298 278.779166 
L 321.712298 278.833467 
L 322.712298 278.861405 
L 323.712298 278.891129 
L 324.712298 278.916524 
L 325.712298 278.927724 
L 326.712298 278.937848 
L 327.712298 278.937644 
L 328.712298 278.928134 
L 329.712298 278.91648 
L 330.712298 278.885451 
L 331.712298 278.874283 
L 332.712298 278.844166 
L 333.712298 278.784389 
L 334.712298 278.747197 
L 335.712298 278.708101 
L 336.712298 278.665661 
L 337.712298 278.632896 
L 338.712298 278.56547 
L 339.712298 278.526344 
L 340.712298 278.483669 
L 341.712298 278.413089 
L 342.712298 278.376698 
L 343.712298 278.318295 
L 344.712298 278.207342 
L 345.712298 278.136684 
L 346.712298 278.023744 
L 347.712298 277.977971 
L 348.712298 277.916688 
L 349.712298 277.868189 
L 350.712298 277.787366 
L 351.712298 277.668847 
L 352.712298 277.598636 
L 353.712298 277.515374 
L 354.712298 277.482232 
L 355.712298 277.430995 
L 356.712298 277.362596 
L 357.712298 277.296381 
L 358.712298 277.219464 
L 359.712298 277.192148 
L 360.712298 277.165671 
L 361.712298 277.14302 
L 362.712298 277.123489 
L 363.712298 277.097095 
L 364.712298 277.047324 
L 365.712298 277.012251 
L 366.712298 276.976385 
L 367.712298 276.961018 
L 368.712298 276.945249 
L 369.712298 276.941836 
L 370.712298 276.939419 
L 371.712298 276.939905 
L 372.712298 276.941834 
L 373.712298 276.955091 
L 374.712298 276.963481 
L 375.712298 276.985018 
L 376.712298 277.008051 
L 377.712298 277.025284 
L 378.712298 277.043747 
L 379.712298 277.064199 
L 380.712298 277.080799 
L 381.712298 277.143578 
L 382.712298 277.218843 
L 383.712298 277.251482 
L 384.712298 277.319046 
L 385.712298 277.373093 
L 386.712298 277.406797 
L 387.712298 277.496923 
L 388.712298 277.525458 
L 389.712298 277.556944 
L 390.712298 277.587955 
L 391.712298 277.642763 
L 392.712298 277.70735 
L 393.712298 277.745546 
L 394.712298 277.84148 
L 395.712298 277.890738 
L 396.712298 277.934807 
L 397.712298 277.974931 
L 398.712298 278.083298 
L 399.712298 278.124926 
L 400.712298 278.187068 
L 401.712298 278.25703 
L 402.712298 278.361534 
L 403.712298 278.398522 
L 404.712298 278.444399 
L 405.712298 278.512894 
L 406.712298 278.56164 
L 407.712298 278.639237 
L 408.712298 278.669778 
L 409.712298 278.739292 
L 410.712298 278.763265 
L 411.712298 278.791887 
L 412.712298 278.83368 
L 413.712298 278.855256 
L 414.712298 278.869204 
L 415.712298 278.895926 
L 416.712298 278.905236 
L 417.712298 278.917683 
L 418.712298 278.928738 
L 419.712298 278.934402 
L 420.712298 278.939166 
L 421.712298 278.933618 
L 422.712298 278.92033 
L 423.712298 278.912813 
L 424.712298 278.888028 
L 425.712298 278.864459 
L 426.712298 278.828279 
L 427.712298 278.802317 
L 428.712298 278.779995 
L 429.712298 278.711235 
L 430.712298 278.6367 
L 431.712298 278.542721 
L 432.712298 278.491669 
L 434.504315 278.437735 
" clip-path="url(#p0d79a62fa2)" style="fill: none; stroke: #1f77b4; stroke-linecap: round"/>
          <path d="M 430.504315 275.939224 
L 431.384684 276.414555 
L 432.262591 276.894809 
L 433.113304 277.42945 
L 434.415479 278.116897 
L 433.488126 278.142912 
L 432.576451 278.555632 
L 431.666187 278.971171 
L 430.323691 279.577975 
L 430.97859 278.939224 
L 431.030554 277.939224 
L 431.089644 275.939224 
z
" clip-path="url(#p0d79a62fa2)" style="fill: #ffffff; stroke: #ffffff; stroke-width: 3; stroke-linecap: round"/>
          <path d="M 430.504315 275.939224 
L 431.384684 276.414555 
L 432.262591 276.894809 
L 433.113304 277.42945 
L 434.415479 278.116897 
L 433.488126 278.142912 
L 432.576451 278.555632 
L 431.666187 278.971171 
L 430.323691 279.577975 
L 430.97859 278.939224 
L 431.030554 277.939224 
L 431.089644 275.939224 
z
" clip-path="url(#p0d79a62fa2)" style="fill: #ffffff; stroke: #1f77b4; stroke-linecap: round"/>
          <path d="M 444.721553 303.704 
" clip-path="url(#p0d79a62fa2)" style="fill: none; stroke-dasharray: 3.7,1.6; stroke-dashoffset: 0; stroke: #2ca02c"/>
          <path d="M 443.721553 303.704 
L 445.721553 304.704 
L 445.721553 302.704 
z
" clip-path="url(#p0d79a62fa2)" style="fill: #2ca02c; stroke: #2ca02c; stroke-linejoin: miter"/>
          <g id="patch_10">
           <path d="M 63.290625 321.621875 
L 63.290625 10.8 
" style="fill: none; stroke: #000000; stroke-width: 0.8; stroke-linejoin: miter; stroke-linecap: square"/>
          </g>
          <g id="text_13">
           <g id="patch_11">
            <path d="M 288.079676 151.208674 
L 309.384363 151.208674 
Q 311.384363 151.208674 311.384363 149.208674 
L 311.384363 139.530549 
Q 311.384363 137.530549 309.384363 137.530549 
L 288.079676 137.530549 
Q 286.079676 137.530549 286.079676 139.530549 
L 286.079676 149.208674 
Q 286.079676 151.208674 288.079676 151.208674 
z
" style="fill: #ffffff; opacity: 0.6"/>
           </g>
           <!-- ANC -->
           <g transform="translate(288.079676 147.128987) scale(0.1 -0.1)">
            <defs>
             <path id="DejaVuSans-4e" d="M 628 4666 
L 1478 4666 
L 3547 763 
L 3547 4666 
L 4159 4666 
L 4159 0 
L 3309 0 
L 1241 3903 
L 1241 0 
L 628 0 
L 628 4666 
z
" transform="scale(0.015625)"/>
            </defs>
            <use xlink:href="#DejaVuSans-41"/>
            <use xlink:href="#DejaVuSans-4e" x="68.408203"/>
            <use xlink:href="#DejaVuSans-43" x="143.212891"/>
           </g>
          </g>
         </g>
        </g>
        <defs>
         <clipPath id="p0d79a62fa2">
          <rect x="63.290625" y="10.8" width="540.309375" height="310.821875"/>
         </clipPath>
        </defs>
       </g>
      </g>
     </g>
    </g>
   </g>
  </g>
 </g>
</svg>
