<?xml version="1.0" encoding="utf-8" standalone="no"?>
<!DOCTYPE svg PUBLIC "-//W3C//DTD SVG 1.1//EN"
  "http://www.w3.org/Graphics/SVG/1.1/DTD/svg11.dtd">
<svg xmlns:xlink="http://www.w3.org/1999/xlink" width="614.4pt" height="345.6pt" viewBox="0 0 614.4 345.6" xmlns="http://www.w3.org/2000/svg" version="1.1">
 <metadata>
  <rdf:RDF xmlns:dc="http://purl.org/dc/elements/1.1/" xmlns:cc="http://creativecommons.org/ns#" xmlns:rdf="http://www.w3.org/1999/02/22-rdf-syntax-ns#">
   <cc:Work>
    <dc:type rdf:resource="http://purl.org/dc/dcmitype/StillImage"/>
    <dc:date>2024-04-17T19:39:54.309994</dc:date>
    <dc:format>image/svg+xml</dc:format>
    <dc:creator>
     <cc:Agent>
      <dc:title>Matplotlib v3.7.1, https://matplotlib.org/</dc:title>
     </cc:Agent>
    </dc:creator>
   </cc:Work>
  </rdf:RDF>
 </metadata>
 <defs>
  <style type="text/css">*{stroke-linejoin: round; stroke-linecap: butt}</style>
 </defs>
 <g id="figure_1">
  <g id="patch_1">
   <path d="M 0 345.6 
L 614.4 345.6 
L 614.4 0 
L 0 0 
z
" style="fill: #ffffff"/>
  </g>
  <g id="axes_1">
   <g id="patch_2">
    <path d="M 63.290625 321.621875 
L 603.6 321.621875 
L 603.6 10.8 
L 63.290625 10.8 
z
" style="fill: #ffffff"/>
   </g>
   <path d="M 568.462415 294.337656 
L 567.462415 294.30622 
L 566.462415 294.26928 
L 565.462415 294.171533 
L 564.462415 294.139011 
L 563.462415 294.065387 
L 562.462415 294.026821 
L 561.462415 293.991408 
L 560.462415 293.933768 
L 559.462415 293.863382 
L 558.462415 293.811418 
L 557.462415 293.752328 
L 556.462415 293.664007 
L 555.462415 293.617863 
L 554.462415 293.575452 
L 553.462415 293.544959 
L 552.462415 293.518914 
L 551.462415 293.497714 
L 550.462415 293.443413 
L 549.462415 293.415475 
L 548.462415 293.385751 
L 547.462415 293.360357 
L 546.462415 293.349156 
L 545.462415 293.339032 
L 544.462415 293.339237 
L 543.462415 293.348746 
L 542.462415 293.3604 
L 541.462415 293.391429 
L 540.462415 293.402597 
L 539.462415 293.432715 
L 538.462415 293.492492 
L 537.462415 293.529683 
L 536.462415 293.568779 
L 535.462415 293.611219 
L 534.462415 293.643984 
L 533.462415 293.71141 
L 532.462415 293.750536 
L 531.462415 293.793211 
L 530.462415 293.863791 
L 529.462415 293.900182 
L 528.462415 293.958586 
L 527.462415 294.069538 
L 526.462415 294.140196 
L 525.462415 294.253136 
L 524.462415 294.298909 
L 523.462415 294.360192 
L 522.462415 294.408692 
L 521.462415 294.489514 
L 520.462415 294.608033 
L 519.462415 294.678244 
L 518.462415 294.761506 
L 517.462415 294.794648 
L 516.462415 294.845886 
L 515.462415 294.914284 
L 514.462415 294.980499 
L 513.462415 295.057416 
L 512.462415 295.084732 
L 511.462415 295.111209 
L 510.462415 295.13386 
L 509.462415 295.153391 
L 508.462415 295.179785 
L 507.462415 295.229556 
L 506.462415 295.264629 
L 505.462415 295.300495 
L 504.462415 295.315862 
L 503.462415 295.331631 
L 502.462415 295.335044 
L 501.462415 295.337462 
L 500.462415 295.336975 
L 499.462415 295.335046 
L 498.462415 295.321789 
L 497.462415 295.313399 
L 496.462415 295.291862 
L 495.462415 295.26883 
L 494.462415 295.251596 
L 493.462415 295.233134 
L 492.462415 295.212681 
L 491.462415 295.196081 
L 490.462415 295.133302 
L 489.462415 295.058037 
L 488.462415 295.025398 
L 487.462415 294.957835 
L 486.462415 294.903788 
L 485.462415 294.870083 
L 484.462415 294.779957 
L 483.462415 294.751422 
L 482.462415 294.719936 
L 481.462415 294.688925 
L 480.462415 294.634117 
L 479.462415 294.56953 
L 478.462415 294.531335 
L 477.462415 294.4354 
L 476.462415 294.386142 
L 475.462415 294.342073 
L 474.462415 294.301949 
L 473.462415 294.193582 
L 472.462415 294.151954 
L 471.462415 294.089813 
L 470.462415 294.01985 
L 469.462415 293.915346 
L 468.462415 293.878358 
L 467.462415 293.832481 
L 466.462415 293.763987 
L 465.462415 293.715241 
L 464.462415 293.637643 
L 463.462415 293.607103 
L 462.462415 293.537588 
L 461.462415 293.513615 
L 460.462415 293.484994 
L 459.462415 293.4432 
L 458.462415 293.421625 
L 457.462415 293.407677 
L 456.462415 293.380954 
L 455.462415 293.371644 
L 454.462415 293.359198 
L 453.462415 293.348143 
L 452.462415 293.342478 
L 451.462415 293.337714 
L 450.462415 293.343262 
L 449.462415 293.35655 
L 448.462415 293.364068 
L 447.462415 293.388852 
L 445.831627 293.412421 
" clip-path="url(#pcc135d3fe1)" style="fill: none; stroke-dasharray: 3.7,1.6; stroke-dashoffset: 0; stroke: #2ca02c"/>
   <g id="patch_3">
    <path d="M 298.204288 10.8 
L 298.204288 260.993367 
M 309.284489 10.8 
L 309.284489 260.993367 
" clip-path="url(#pcc135d3fe1)" style="fill: none; stroke: #ffffff; stroke-width: 3; stroke-linejoin: miter"/>
    <path d="M 298.204288 10.8 
L 298.204288 260.993367 
M 309.284489 10.8 
L 309.284489 260.993367 
" clip-path="url(#pcc135d3fe1)" style="fill: none; stroke: #1f77b4; stroke-linejoin: miter"/>
    <g id="PolyCollection_1">
     <path d="M 309.284489 10.8 
L 298.204288 10.8 
L 298.204288 260.993367 
L 309.284489 260.993367 
L 309.284489 260.993367 
L 309.284489 10.8 
z
" clip-path="url(#pcc135d3fe1)" style="fill: #1f77b4; fill-opacity: 0.5"/>
    </g>
    <g id="patch_4">
     <path d="M 97.201363 260.993367 
L 97.093003 316.17674 
L 96.257405 317.254423 
L 95.234081 318.218666 
L 93.949307 319.126188 
L 92.370401 319.976991 
L 90.317878 320.827793 
L 87.850142 321.621875 
M 101.224503 260.993367 
L 101.332863 316.17674 
L 102.168461 317.254423 
L 103.191785 318.218666 
L 104.476559 319.126188 
L 106.055465 319.976991 
L 108.107988 320.827793 
L 110.575724 321.621875 
L 110.575724 321.621875 
" clip-path="url(#pcc135d3fe1)" style="fill: none; stroke: #ffffff; stroke-width: 3; stroke-linejoin: miter"/>
     <path d="M 97.201363 260.993367 
L 97.093003 316.17674 
L 96.257405 317.254423 
L 95.234081 318.218666 
L 93.949307 319.126188 
L 92.370401 319.976991 
L 90.317878 320.827793 
L 87.850142 321.621875 
M 101.224503 260.993367 
L 101.332863 316.17674 
L 102.168461 317.254423 
L 103.191785 318.218666 
L 104.476559 319.126188 
L 106.055465 319.976991 
L 108.107988 320.827793 
L 110.575724 321.621875 
L 110.575724 321.621875 
" clip-path="url(#pcc135d3fe1)" style="fill: none; stroke: #ff7f0e; stroke-linejoin: miter"/>
     <g id="PolyCollection_2">
      <path d="M 101.224503 260.993367 
L 97.201363 260.993367 
L 97.201363 316.00658 
L 97.201363 316.00658 
L 97.165873 316.0633 
L 97.129757 316.12002 
L 97.093003 316.17674 
L 97.055602 316.23346 
L 97.01754 316.290181 
L 96.978806 316.346901 
L 96.93939 316.403621 
L 96.899277 316.460341 
L 96.858458 316.517061 
L 96.816918 316.573781 
L 96.774645 316.630502 
L 96.731626 316.687222 
L 96.687848 316.743942 
L 96.643298 316.800662 
L 96.597962 316.857382 
L 96.551826 316.914102 
L 96.504876 316.970822 
L 96.457098 317.027543 
L 96.408477 317.084263 
L 96.358998 317.140983 
L 96.308646 317.197703 
L 96.257405 317.254423 
L 96.205261 317.311143 
L 96.152196 317.367864 
L 96.098196 317.424584 
L 96.043242 317.481304 
L 95.98732 317.538024 
L 95.93041 317.594744 
L 95.872496 317.651464 
L 95.813561 317.708184 
L 95.753586 317.764905 
L 95.692553 317.821625 
L 95.630442 317.878345 
L 95.567237 317.935065 
L 95.502915 317.991785 
L 95.43746 318.048505 
L 95.370849 318.105226 
L 95.303063 318.161946 
L 95.234081 318.218666 
L 95.163882 318.275386 
L 95.092445 318.332106 
L 95.019747 318.388826 
L 94.945766 318.445546 
L 94.870481 318.502267 
L 94.793867 318.558987 
L 94.715901 318.615707 
L 94.63656 318.672427 
L 94.555819 318.729147 
L 94.473654 318.785867 
L 94.390038 318.842588 
L 94.304948 318.899308 
L 94.218356 318.956028 
L 94.130237 319.012748 
L 94.040563 319.069468 
L 93.949307 319.126188 
L 93.856441 319.182908 
L 93.761936 319.239629 
L 93.665764 319.296349 
L 93.567895 319.353069 
L 93.4683 319.409789 
L 93.366947 319.466509 
L 93.263806 319.523229 
L 93.158846 319.579949 
L 93.052033 319.63667 
L 92.943337 319.69339 
L 92.832722 319.75011 
L 92.720156 319.80683 
L 92.605604 319.86355 
L 92.489031 319.92027 
L 92.370401 319.976991 
L 92.249678 320.033711 
L 92.126825 320.090431 
L 92.001805 320.147151 
L 91.874579 320.203871 
L 91.745108 320.260591 
L 91.613353 320.317311 
L 91.479274 320.374032 
L 91.342829 320.430752 
L 91.203976 320.487472 
L 91.062674 320.544192 
L 90.918879 320.600912 
L 90.772547 320.657632 
L 90.623633 320.714353 
L 90.472092 320.771073 
L 90.317878 320.827793 
L 90.160942 320.884513 
L 90.001238 320.941233 
L 89.838716 320.997953 
L 89.673326 321.054673 
L 89.505019 321.111394 
L 89.333742 321.168114 
L 89.159443 321.224834 
L 88.982069 321.281554 
L 88.801566 321.338274 
L 88.617878 321.394994 
L 88.43095 321.451715 
L 88.240723 321.508435 
L 88.04714 321.565155 
L 87.850142 321.621875 
L 110.575724 321.621875 
L 110.575724 321.621875 
L 110.378726 321.565155 
L 110.185143 321.508435 
L 109.994916 321.451715 
L 109.807988 321.394994 
L 109.6243 321.338274 
L 109.443797 321.281554 
L 109.266423 321.224834 
L 109.092124 321.168114 
L 108.920847 321.111394 
L 108.75254 321.054673 
L 108.58715 320.997953 
L 108.424628 320.941233 
L 108.264924 320.884513 
L 108.107988 320.827793 
L 107.953774 320.771073 
L 107.802233 320.714353 
L 107.653319 320.657632 
L 107.506987 320.600912 
L 107.363192 320.544192 
L 107.22189 320.487472 
L 107.083037 320.430752 
L 106.946592 320.374032 
L 106.812513 320.317311 
L 106.680758 320.260591 
L 106.551287 320.203871 
L 106.424061 320.147151 
L 106.299041 320.090431 
L 106.176188 320.033711 
L 106.055465 319.976991 
L 105.936835 319.92027 
L 105.820262 319.86355 
L 105.70571 319.80683 
L 105.593144 319.75011 
L 105.482529 319.69339 
L 105.373833 319.63667 
L 105.26702 319.579949 
L 105.16206 319.523229 
L 105.058919 319.466509 
L 104.957566 319.409789 
L 104.857971 319.353069 
L 104.760102 319.296349 
L 104.66393 319.239629 
L 104.569425 319.182908 
L 104.476559 319.126188 
L 104.385303 319.069468 
L 104.295629 319.012748 
L 104.20751 318.956028 
L 104.120918 318.899308 
L 104.035828 318.842588 
L 103.952212 318.785867 
L 103.870047 318.729147 
L 103.789306 318.672427 
L 103.709965 318.615707 
L 103.631999 318.558987 
L 103.555385 318.502267 
L 103.4801 318.445546 
L 103.406119 318.388826 
L 103.333421 318.332106 
L 103.261984 318.275386 
L 103.191785 318.218666 
L 103.122803 318.161946 
L 103.055017 318.105226 
L 102.988406 318.048505 
L 102.92295 317.991785 
L 102.858629 317.935065 
L 102.795424 317.878345 
L 102.733313 317.821625 
L 102.67228 317.764905 
L 102.612305 317.708184 
L 102.55337 317.651464 
L 102.495456 317.594744 
L 102.438546 317.538024 
L 102.382624 317.481304 
L 102.32767 317.424584 
L 102.27367 317.367864 
L 102.220605 317.311143 
L 102.168461 317.254423 
L 102.11722 317.197703 
L 102.066868 317.140983 
L 102.017389 317.084263 
L 101.968768 317.027543 
L 101.92099 316.970822 
L 101.87404 316.914102 
L 101.827904 316.857382 
L 101.782568 316.800662 
L 101.738018 316.743942 
L 101.69424 316.687222 
L 101.651221 316.630502 
L 101.608948 316.573781 
L 101.567408 316.517061 
L 101.526589 316.460341 
L 101.486476 316.403621 
L 101.44706 316.346901 
L 101.408326 316.290181 
L 101.370264 316.23346 
L 101.332863 316.17674 
L 101.296109 316.12002 
L 101.259993 316.0633 
L 101.224503 316.00658 
L 101.224503 316.00658 
L 101.224503 260.993367 
z
" clip-path="url(#pcc135d3fe1)" style="fill: #ff7f0e; fill-opacity: 0.5"/>
     </g>
     <g id="patch_5">
      <path d="M 573.865508 72.964375 
L 573.865508 321.621875 
M 579.040483 72.964375 
L 579.040483 321.621875 
" clip-path="url(#pcc135d3fe1)" style="fill: none; stroke: #ffffff; stroke-width: 3; stroke-linejoin: miter"/>
      <path d="M 573.865508 72.964375 
L 573.865508 321.621875 
M 579.040483 72.964375 
L 579.040483 321.621875 
" clip-path="url(#pcc135d3fe1)" style="fill: none; stroke: #2ca02c; stroke-linejoin: miter"/>
      <g id="PolyCollection_3">
       <path d="M 579.040483 72.964375 
L 573.865508 72.964375 
L 573.865508 321.621875 
L 579.040483 321.621875 
L 579.040483 321.621875 
L 579.040483 72.964375 
z
" clip-path="url(#pcc135d3fe1)" style="fill: #2ca02c; fill-opacity: 0.5"/>
      </g>
      <g id="patch_6">
       <path d="M 439.768851 262.786369 
L 439.768851 270.889629 
L 439.98762 270.889629 
L 439.98762 271.723584 
L 439.768851 271.723584 
L 439.663287 303.713189 
L 439.296662 305.808886 
L 438.776631 307.523547 
L 438.148504 308.857173 
L 437.377346 310.000281 
L 436.506387 310.95287 
L 435.356681 311.90546 
L 433.839015 312.85805 
L 431.835625 313.810639 
L 429.191055 314.763229 
L 425.7001 315.715819 
L 422.118616 316.477891 
L 417.646279 317.239962 
L 412.061499 318.002034 
L 405.08757 318.764106 
L 396.378957 319.526178 
L 385.504176 320.288249 
L 371.924419 321.050321 
L 359.565644 321.621875 
M 440.428533 262.786369 
L 440.428533 270.889629 
L 440.209764 270.889629 
L 440.209764 271.723584 
L 440.428533 271.723584 
L 440.534098 303.713189 
L 440.900722 305.808886 
L 441.420753 307.523547 
L 442.04888 308.857173 
L 442.820038 310.000281 
L 443.690997 310.95287 
L 444.840703 311.90546 
L 446.358369 312.85805 
L 448.361759 313.810639 
L 451.006329 314.763229 
L 454.497284 315.715819 
L 458.078768 316.477891 
L 462.551105 317.239962 
L 468.135885 318.002034 
L 475.109814 318.764106 
L 483.818427 319.526178 
L 494.693208 320.288249 
L 508.272965 321.050321 
L 520.63174 321.621875 
L 520.63174 321.621875 
" clip-path="url(#pcc135d3fe1)" style="fill: none; stroke: #ffffff; stroke-width: 3; stroke-linejoin: miter"/>
       <path d="M 439.768851 262.786369 
L 439.768851 270.889629 
L 439.98762 270.889629 
L 439.98762 271.723584 
L 439.768851 271.723584 
L 439.663287 303.713189 
L 439.296662 305.808886 
L 438.776631 307.523547 
L 438.148504 308.857173 
L 437.377346 310.000281 
L 436.506387 310.95287 
L 435.356681 311.90546 
L 433.839015 312.85805 
L 431.835625 313.810639 
L 429.191055 314.763229 
L 425.7001 315.715819 
L 422.118616 316.477891 
L 417.646279 317.239962 
L 412.061499 318.002034 
L 405.08757 318.764106 
L 396.378957 319.526178 
L 385.504176 320.288249 
L 371.924419 321.050321 
L 359.565644 321.621875 
M 440.428533 262.786369 
L 440.428533 270.889629 
L 440.209764 270.889629 
L 440.209764 271.723584 
L 440.428533 271.723584 
L 440.534098 303.713189 
L 440.900722 305.808886 
L 441.420753 307.523547 
L 442.04888 308.857173 
L 442.820038 310.000281 
L 443.690997 310.95287 
L 444.840703 311.90546 
L 446.358369 312.85805 
L 448.361759 313.810639 
L 451.006329 314.763229 
L 454.497284 315.715819 
L 458.078768 316.477891 
L 462.551105 317.239962 
L 468.135885 318.002034 
L 475.109814 318.764106 
L 483.818427 319.526178 
L 494.693208 320.288249 
L 508.272965 321.050321 
L 520.63174 321.621875 
L 520.63174 321.621875 
" clip-path="url(#pcc135d3fe1)" style="fill: none; stroke: #d62728; stroke-linejoin: miter"/>
       <g id="PolyCollection_4">
        <path d="M 440.428533 262.786369 
L 439.768851 262.786369 
L 439.768851 270.889629 
L 439.98762 270.889629 
L 439.98762 271.723584 
L 439.768851 271.723584 
L 439.768851 302.760599 
L 439.768851 302.760599 
L 439.750016 302.951117 
L 439.730105 303.141635 
L 439.709057 303.332153 
L 439.686807 303.522671 
L 439.663287 303.713189 
L 439.638423 303.903707 
L 439.61214 304.094225 
L 439.584355 304.284743 
L 439.554984 304.47526 
L 439.523936 304.665778 
L 439.491115 304.856296 
L 439.45642 305.046814 
L 439.419743 305.237332 
L 439.380972 305.42785 
L 439.339987 305.618368 
L 439.296662 305.808886 
L 439.250863 305.999404 
L 439.202448 306.189922 
L 439.151268 306.38044 
L 439.097166 306.570958 
L 439.039975 306.761476 
L 438.979518 306.951994 
L 438.915608 307.142512 
L 438.848048 307.33303 
L 438.776631 307.523547 
L 438.701136 307.714065 
L 438.621329 307.904583 
L 438.536965 308.095101 
L 438.447784 308.285619 
L 438.35351 308.476137 
L 438.253852 308.666655 
L 438.148504 308.857173 
L 438.037139 309.047691 
L 437.919416 309.238209 
L 437.794969 309.428727 
L 437.663417 309.619245 
L 437.524352 309.809763 
L 437.377346 310.000281 
L 437.221945 310.190799 
L 437.05767 310.381317 
L 436.884014 310.571835 
L 436.700442 310.762352 
L 436.506387 310.95287 
L 436.301251 311.143388 
L 436.0844 311.333906 
L 435.855167 311.524424 
L 435.612843 311.714942 
L 435.356681 311.90546 
L 435.085892 312.095978 
L 434.799639 312.286496 
L 434.497039 312.477014 
L 434.177161 312.667532 
L 433.839015 312.85805 
L 433.48156 313.048568 
L 433.103693 313.239086 
L 432.704248 313.429604 
L 432.281993 313.620122 
L 431.835625 313.810639 
L 431.363767 314.001157 
L 430.864965 314.191675 
L 430.337679 314.382193 
L 429.780282 314.572711 
L 429.191055 314.763229 
L 428.568181 314.953747 
L 427.909739 315.144265 
L 427.213696 315.334783 
L 426.477906 315.525301 
L 425.7001 315.715819 
L 424.877877 315.906337 
L 424.008702 316.096855 
L 423.089893 316.287373 
L 422.118616 316.477891 
L 421.091874 316.668409 
L 420.006502 316.858927 
L 418.85915 317.049444 
L 417.646279 317.239962 
L 416.364147 317.43048 
L 415.008801 317.620998 
L 413.576058 317.811516 
L 412.061499 318.002034 
L 410.460453 318.192552 
L 408.767979 318.38307 
L 406.978858 318.573588 
L 405.08757 318.764106 
L 403.088282 318.954624 
L 400.974825 319.145142 
L 398.740681 319.33566 
L 396.378957 319.526178 
L 393.882368 319.716696 
L 391.243214 319.907214 
L 388.453352 320.097731 
L 385.504176 320.288249 
L 382.38659 320.478767 
L 379.090976 320.669285 
L 375.607168 320.859803 
L 371.924419 321.050321 
L 368.031369 321.240839 
L 363.916009 321.431357 
L 359.565644 321.621875 
L 520.63174 321.621875 
L 520.63174 321.621875 
L 516.281375 321.431357 
L 512.166015 321.240839 
L 508.272965 321.050321 
L 504.590216 320.859803 
L 501.106408 320.669285 
L 497.810794 320.478767 
L 494.693208 320.288249 
L 491.744032 320.097731 
L 488.95417 319.907214 
L 486.315016 319.716696 
L 483.818427 319.526178 
L 481.456703 319.33566 
L 479.222559 319.145142 
L 477.109102 318.954624 
L 475.109814 318.764106 
L 473.218526 318.573588 
L 471.429405 318.38307 
L 469.736931 318.192552 
L 468.135885 318.002034 
L 466.621326 317.811516 
L 465.188583 317.620998 
L 463.833237 317.43048 
L 462.551105 317.239962 
L 461.338234 317.049444 
L 460.190882 316.858927 
L 459.10551 316.668409 
L 458.078768 316.477891 
L 457.107491 316.287373 
L 456.188682 316.096855 
L 455.319507 315.906337 
L 454.497284 315.715819 
L 453.719478 315.525301 
L 452.983688 315.334783 
L 452.287645 315.144265 
L 451.629203 314.953747 
L 451.006329 314.763229 
L 450.417102 314.572711 
L 449.859706 314.382193 
L 449.332419 314.191675 
L 448.833617 314.001157 
L 448.361759 313.810639 
L 447.915392 313.620122 
L 447.493136 313.429604 
L 447.093691 313.239086 
L 446.715824 313.048568 
L 446.358369 312.85805 
L 446.020224 312.667532 
L 445.700345 312.477014 
L 445.397745 312.286496 
L 445.111493 312.095978 
L 444.840703 311.90546 
L 444.584541 311.714942 
L 444.342217 311.524424 
L 444.112984 311.333906 
L 443.896133 311.143388 
L 443.690997 310.95287 
L 443.496942 310.762352 
L 443.31337 310.571835 
L 443.139714 310.381317 
L 442.975439 310.190799 
L 442.820038 310.000281 
L 442.673032 309.809763 
L 442.533967 309.619245 
L 442.402415 309.428727 
L 442.277968 309.238209 
L 442.160245 309.047691 
L 442.04888 308.857173 
L 441.943532 308.666655 
L 441.843874 308.476137 
L 441.7496 308.285619 
L 441.660419 308.095101 
L 441.576055 307.904583 
L 441.496248 307.714065 
L 441.420753 307.523547 
L 441.349336 307.33303 
L 441.281776 307.142512 
L 441.217867 306.951994 
L 441.157409 306.761476 
L 441.100218 306.570958 
L 441.046116 306.38044 
L 440.994936 306.189922 
L 440.946521 305.999404 
L 440.900722 305.808886 
L 440.857397 305.618368 
L 440.816412 305.42785 
L 440.777641 305.237332 
L 440.740964 305.046814 
L 440.706269 304.856296 
L 440.673448 304.665778 
L 440.6424 304.47526 
L 440.613029 304.284743 
L 440.585245 304.094225 
L 440.558961 303.903707 
L 440.534098 303.713189 
L 440.510577 303.522671 
L 440.488327 303.332153 
L 440.467279 303.141635 
L 440.447368 302.951117 
L 440.428533 302.760599 
L 440.428533 302.760599 
L 440.428533 271.723584 
L 440.209764 271.723584 
L 440.209764 270.889629 
L 440.428533 270.889629 
L 440.428533 262.786369 
z
" clip-path="url(#pcc135d3fe1)" style="fill: #d62728; fill-opacity: 0.5"/>
       </g>
       <g id="matplotlib.axis_1">
        <g id="xtick_1">
         <g id="line2d_1"/>
         <g id="text_1">
          <!-- OUT -->
          <g transform="translate(88.563714 332.720312) scale(0.1 -0.1)">
           <defs>
            <path id="DejaVuSans-4f" d="M 2522 4238 
Q 1834 4238 1429 3725 
Q 1025 3213 1025 2328 
Q 1025 1447 1429 934 
Q 1834 422 2522 422 
Q 3209 422 3611 934 
Q 4013 1447 4013 2328 
Q 4013 3213 3611 3725 
Q 3209 4238 2522 4238 
z
M 2522 4750 
Q 3503 4750 4090 4092 
Q 4678 3434 4678 2328 
Q 4678 1225 4090 567 
Q 3503 -91 2522 -91 
Q 1538 -91 948 565 
Q 359 1222 359 2328 
Q 359 3434 948 4092 
Q 1538 4750 2522 4750 
z
" transform="scale(0.015625)"/>
            <path id="DejaVuSans-55" d="M 556 4666 
L 1191 4666 
L 1191 1831 
Q 1191 1081 1462 751 
Q 1734 422 2344 422 
Q 2950 422 3222 751 
Q 3494 1081 3494 1831 
L 3494 4666 
L 4128 4666 
L 4128 1753 
Q 4128 841 3676 375 
Q 3225 -91 2344 -91 
Q 1459 -91 1007 375 
Q 556 841 556 1753 
L 556 4666 
z
" transform="scale(0.015625)"/>
            <path id="DejaVuSans-54" d="M -19 4666 
L 3928 4666 
L 3928 4134 
L 2272 4134 
L 2272 0 
L 1638 0 
L 1638 4134 
L -19 4134 
L -19 4666 
z
" transform="scale(0.015625)"/>
           </defs>
           <use xlink:href="#DejaVuSans-4f"/>
           <use xlink:href="#DejaVuSans-55" x="78.710938"/>
           <use xlink:href="#DejaVuSans-54" x="151.904297"/>
          </g>
         </g>
        </g>
        <g id="xtick_2">
         <g id="line2d_2"/>
         <g id="text_2">
          <!-- SRC -->
          <g transform="translate(566.563152 332.720312) scale(0.1 -0.1)">
           <defs>
            <path id="DejaVuSans-53" d="M 3425 4513 
L 3425 3897 
Q 3066 4069 2747 4153 
Q 2428 4238 2131 4238 
Q 1616 4238 1336 4038 
Q 1056 3838 1056 3469 
Q 1056 3159 1242 3001 
Q 1428 2844 1947 2747 
L 2328 2669 
Q 3034 2534 3370 2195 
Q 3706 1856 3706 1288 
Q 3706 609 3251 259 
Q 2797 -91 1919 -91 
Q 1588 -91 1214 -16 
Q 841 59 441 206 
L 441 856 
Q 825 641 1194 531 
Q 1563 422 1919 422 
Q 2459 422 2753 634 
Q 3047 847 3047 1241 
Q 3047 1584 2836 1778 
Q 2625 1972 2144 2069 
L 1759 2144 
Q 1053 2284 737 2584 
Q 422 2884 422 3419 
Q 422 4038 858 4394 
Q 1294 4750 2059 4750 
Q 2388 4750 2728 4690 
Q 3069 4631 3425 4513 
z
" transform="scale(0.015625)"/>
            <path id="DejaVuSans-52" d="M 2841 2188 
Q 3044 2119 3236 1894 
Q 3428 1669 3622 1275 
L 4263 0 
L 3584 0 
L 2988 1197 
Q 2756 1666 2539 1819 
Q 2322 1972 1947 1972 
L 1259 1972 
L 1259 0 
L 628 0 
L 628 4666 
L 2053 4666 
Q 2853 4666 3247 4331 
Q 3641 3997 3641 3322 
Q 3641 2881 3436 2590 
Q 3231 2300 2841 2188 
z
M 1259 4147 
L 1259 2491 
L 2053 2491 
Q 2509 2491 2742 2702 
Q 2975 2913 2975 3322 
Q 2975 3731 2742 3939 
Q 2509 4147 2053 4147 
L 1259 4147 
z
" transform="scale(0.015625)"/>
            <path id="DejaVuSans-43" d="M 4122 4306 
L 4122 3641 
Q 3803 3938 3442 4084 
Q 3081 4231 2675 4231 
Q 1875 4231 1450 3742 
Q 1025 3253 1025 2328 
Q 1025 1406 1450 917 
Q 1875 428 2675 428 
Q 3081 428 3442 575 
Q 3803 722 4122 1019 
L 4122 359 
Q 3791 134 3420 21 
Q 3050 -91 2638 -91 
Q 1578 -91 968 557 
Q 359 1206 359 2328 
Q 359 3453 968 4101 
Q 1578 4750 2638 4750 
Q 3056 4750 3426 4639 
Q 3797 4528 4122 4306 
z
" transform="scale(0.015625)"/>
           </defs>
           <use xlink:href="#DejaVuSans-53"/>
           <use xlink:href="#DejaVuSans-52" x="63.476562"/>
           <use xlink:href="#DejaVuSans-43" x="127.958984"/>
          </g>
         </g>
        </g>
        <g id="xtick_3">
         <g id="line2d_3"/>
         <g id="text_3">
          <!-- TAR -->
          <g transform="translate(430.537755 332.720312) scale(0.1 -0.1)">
           <defs>
            <path id="DejaVuSans-41" d="M 2188 4044 
L 1331 1722 
L 3047 1722 
L 2188 4044 
z
M 1831 4666 
L 2547 4666 
L 4325 0 
L 3669 0 
L 3244 1197 
L 1141 1197 
L 716 0 
L 50 0 
L 1831 4666 
z
" transform="scale(0.015625)"/>
           </defs>
           <use xlink:href="#DejaVuSans-54"/>
           <use xlink:href="#DejaVuSans-41" x="53.333984"/>
           <use xlink:href="#DejaVuSans-52" x="121.742188"/>
          </g>
         </g>
        </g>
       </g>
       <g id="matplotlib.axis_2">
        <g id="ytick_1">
         <g id="line2d_4">
          <defs>
           <path id="m1901493ff2" d="M 0 0 
L -3.5 0 
" style="stroke: #000000; stroke-width: 0.8"/>
          </defs>
          <g>
           <use xlink:href="#m1901493ff2" x="63.290625" y="321.621875" style="stroke: #000000; stroke-width: 0.8"/>
          </g>
         </g>
         <g id="text_4">
          <!-- 0 -->
          <g transform="translate(49.928125 325.421094) scale(0.1 -0.1)">
           <defs>
            <path id="DejaVuSans-30" d="M 2034 4250 
Q 1547 4250 1301 3770 
Q 1056 3291 1056 2328 
Q 1056 1369 1301 889 
Q 1547 409 2034 409 
Q 2525 409 2770 889 
Q 3016 1369 3016 2328 
Q 3016 3291 2770 3770 
Q 2525 4250 2034 4250 
z
M 2034 4750 
Q 2819 4750 3233 4129 
Q 3647 3509 3647 2328 
Q 3647 1150 3233 529 
Q 2819 -91 2034 -91 
Q 1250 -91 836 529 
Q 422 1150 422 2328 
Q 422 3509 836 4129 
Q 1250 4750 2034 4750 
z
" transform="scale(0.015625)"/>
           </defs>
           <use xlink:href="#DejaVuSans-30"/>
          </g>
         </g>
        </g>
        <g id="ytick_2">
         <g id="line2d_5">
          <g>
           <use xlink:href="#m1901493ff2" x="63.290625" y="286.873762" style="stroke: #000000; stroke-width: 0.8"/>
          </g>
         </g>
         <g id="text_5">
          <!-- 2500 -->
          <g transform="translate(30.840625 290.67298) scale(0.1 -0.1)">
           <defs>
            <path id="DejaVuSans-32" d="M 1228 531 
L 3431 531 
L 3431 0 
L 469 0 
L 469 531 
Q 828 903 1448 1529 
Q 2069 2156 2228 2338 
Q 2531 2678 2651 2914 
Q 2772 3150 2772 3378 
Q 2772 3750 2511 3984 
Q 2250 4219 1831 4219 
Q 1534 4219 1204 4116 
Q 875 4013 500 3803 
L 500 4441 
Q 881 4594 1212 4672 
Q 1544 4750 1819 4750 
Q 2544 4750 2975 4387 
Q 3406 4025 3406 3419 
Q 3406 3131 3298 2873 
Q 3191 2616 2906 2266 
Q 2828 2175 2409 1742 
Q 1991 1309 1228 531 
z
" transform="scale(0.015625)"/>
            <path id="DejaVuSans-35" d="M 691 4666 
L 3169 4666 
L 3169 4134 
L 1269 4134 
L 1269 2991 
Q 1406 3038 1543 3061 
Q 1681 3084 1819 3084 
Q 2600 3084 3056 2656 
Q 3513 2228 3513 1497 
Q 3513 744 3044 326 
Q 2575 -91 1722 -91 
Q 1428 -91 1123 -41 
Q 819 9 494 109 
L 494 744 
Q 775 591 1075 516 
Q 1375 441 1709 441 
Q 2250 441 2565 725 
Q 2881 1009 2881 1497 
Q 2881 1984 2565 2268 
Q 2250 2553 1709 2553 
Q 1456 2553 1204 2497 
Q 953 2441 691 2322 
L 691 4666 
z
" transform="scale(0.015625)"/>
           </defs>
           <use xlink:href="#DejaVuSans-32"/>
           <use xlink:href="#DejaVuSans-35" x="63.623047"/>
           <use xlink:href="#DejaVuSans-30" x="127.246094"/>
           <use xlink:href="#DejaVuSans-30" x="190.869141"/>
          </g>
         </g>
        </g>
        <g id="ytick_3">
         <g id="line2d_6">
          <g>
           <use xlink:href="#m1901493ff2" x="63.290625" y="252.125648" style="stroke: #000000; stroke-width: 0.8"/>
          </g>
         </g>
         <g id="text_6">
          <!-- 5000 -->
          <g transform="translate(30.840625 255.924867) scale(0.1 -0.1)">
           <use xlink:href="#DejaVuSans-35"/>
           <use xlink:href="#DejaVuSans-30" x="63.623047"/>
           <use xlink:href="#DejaVuSans-30" x="127.246094"/>
           <use xlink:href="#DejaVuSans-30" x="190.869141"/>
          </g>
         </g>
        </g>
        <g id="ytick_4">
         <g id="line2d_7">
          <g>
           <use xlink:href="#m1901493ff2" x="63.290625" y="217.377535" style="stroke: #000000; stroke-width: 0.8"/>
          </g>
         </g>
         <g id="text_7">
          <!-- 7500 -->
          <g transform="translate(30.840625 221.176753) scale(0.1 -0.1)">
           <defs>
            <path id="DejaVuSans-37" d="M 525 4666 
L 3525 4666 
L 3525 4397 
L 1831 0 
L 1172 0 
L 2766 4134 
L 525 4134 
L 525 4666 
z
" transform="scale(0.015625)"/>
           </defs>
           <use xlink:href="#DejaVuSans-37"/>
           <use xlink:href="#DejaVuSans-35" x="63.623047"/>
           <use xlink:href="#DejaVuSans-30" x="127.246094"/>
           <use xlink:href="#DejaVuSans-30" x="190.869141"/>
          </g>
         </g>
        </g>
        <g id="ytick_5">
         <g id="line2d_8">
          <g>
           <use xlink:href="#m1901493ff2" x="63.290625" y="182.629421" style="stroke: #000000; stroke-width: 0.8"/>
          </g>
         </g>
         <g id="text_8">
          <!-- 10000 -->
          <g transform="translate(24.478125 186.42864) scale(0.1 -0.1)">
           <defs>
            <path id="DejaVuSans-31" d="M 794 531 
L 1825 531 
L 1825 4091 
L 703 3866 
L 703 4441 
L 1819 4666 
L 2450 4666 
L 2450 531 
L 3481 531 
L 3481 0 
L 794 0 
L 794 531 
z
" transform="scale(0.015625)"/>
           </defs>
           <use xlink:href="#DejaVuSans-31"/>
           <use xlink:href="#DejaVuSans-30" x="63.623047"/>
           <use xlink:href="#DejaVuSans-30" x="127.246094"/>
           <use xlink:href="#DejaVuSans-30" x="190.869141"/>
           <use xlink:href="#DejaVuSans-30" x="254.492188"/>
          </g>
         </g>
        </g>
        <g id="ytick_6">
         <g id="line2d_9">
          <g>
           <use xlink:href="#m1901493ff2" x="63.290625" y="147.881308" style="stroke: #000000; stroke-width: 0.8"/>
          </g>
         </g>
         <g id="text_9">
          <!-- 12500 -->
          <g transform="translate(24.478125 151.680526) scale(0.1 -0.1)">
           <use xlink:href="#DejaVuSans-31"/>
           <use xlink:href="#DejaVuSans-32" x="63.623047"/>
           <use xlink:href="#DejaVuSans-35" x="127.246094"/>
           <use xlink:href="#DejaVuSans-30" x="190.869141"/>
           <use xlink:href="#DejaVuSans-30" x="254.492188"/>
          </g>
         </g>
        </g>
        <g id="ytick_7">
         <g id="line2d_10">
          <g>
           <use xlink:href="#m1901493ff2" x="63.290625" y="113.133194" style="stroke: #000000; stroke-width: 0.8"/>
          </g>
         </g>
         <g id="text_10">
          <!-- 15000 -->
          <g transform="translate(24.478125 116.932413) scale(0.1 -0.1)">
           <use xlink:href="#DejaVuSans-31"/>
           <use xlink:href="#DejaVuSans-35" x="63.623047"/>
           <use xlink:href="#DejaVuSans-30" x="127.246094"/>
           <use xlink:href="#DejaVuSans-30" x="190.869141"/>
           <use xlink:href="#DejaVuSans-30" x="254.492188"/>
          </g>
         </g>
        </g>
        <g id="ytick_8">
         <g id="line2d_11">
          <g>
           <use xlink:href="#m1901493ff2" x="63.290625" y="78.385081" style="stroke: #000000; stroke-width: 0.8"/>
          </g>
         </g>
         <g id="text_11">
          <!-- 17500 -->
          <g transform="translate(24.478125 82.184299) scale(0.1 -0.1)">
           <use xlink:href="#DejaVuSans-31"/>
           <use xlink:href="#DejaVuSans-37" x="63.623047"/>
           <use xlink:href="#DejaVuSans-35" x="127.246094"/>
           <use xlink:href="#DejaVuSans-30" x="190.869141"/>
           <use xlink:href="#DejaVuSans-30" x="254.492188"/>
          </g>
         </g>
        </g>
        <g id="ytick_9">
         <g id="line2d_12">
          <g>
           <use xlink:href="#m1901493ff2" x="63.290625" y="43.636967" style="stroke: #000000; stroke-width: 0.8"/>
          </g>
         </g>
         <g id="text_12">
          <!-- 20000 -->
          <g transform="translate(24.478125 47.436186) scale(0.1 -0.1)">
           <use xlink:href="#DejaVuSans-32"/>
           <use xlink:href="#DejaVuSans-30" x="63.623047"/>
           <use xlink:href="#DejaVuSans-30" x="127.246094"/>
           <use xlink:href="#DejaVuSans-30" x="190.869141"/>
           <use xlink:href="#DejaVuSans-30" x="254.492188"/>
          </g>
         </g>
        </g>
        <g id="text_13">
         <!-- time ago (generations) -->
         <g transform="translate(18.398438 223.682031) rotate(-90) scale(0.1 -0.1)">
          <defs>
           <path id="DejaVuSans-74" d="M 1172 4494 
L 1172 3500 
L 2356 3500 
L 2356 3053 
L 1172 3053 
L 1172 1153 
Q 1172 725 1289 603 
Q 1406 481 1766 481 
L 2356 481 
L 2356 0 
L 1766 0 
Q 1100 0 847 248 
Q 594 497 594 1153 
L 594 3053 
L 172 3053 
L 172 3500 
L 594 3500 
L 594 4494 
L 1172 4494 
z
" transform="scale(0.015625)"/>
           <path id="DejaVuSans-69" d="M 603 3500 
L 1178 3500 
L 1178 0 
L 603 0 
L 603 3500 
z
M 603 4863 
L 1178 4863 
L 1178 4134 
L 603 4134 
L 603 4863 
z
" transform="scale(0.015625)"/>
           <path id="DejaVuSans-6d" d="M 3328 2828 
Q 3544 3216 3844 3400 
Q 4144 3584 4550 3584 
Q 5097 3584 5394 3201 
Q 5691 2819 5691 2113 
L 5691 0 
L 5113 0 
L 5113 2094 
Q 5113 2597 4934 2840 
Q 4756 3084 4391 3084 
Q 3944 3084 3684 2787 
Q 3425 2491 3425 1978 
L 3425 0 
L 2847 0 
L 2847 2094 
Q 2847 2600 2669 2842 
Q 2491 3084 2119 3084 
Q 1678 3084 1418 2786 
Q 1159 2488 1159 1978 
L 1159 0 
L 581 0 
L 581 3500 
L 1159 3500 
L 1159 2956 
Q 1356 3278 1631 3431 
Q 1906 3584 2284 3584 
Q 2666 3584 2933 3390 
Q 3200 3197 3328 2828 
z
" transform="scale(0.015625)"/>
           <path id="DejaVuSans-65" d="M 3597 1894 
L 3597 1613 
L 953 1613 
Q 991 1019 1311 708 
Q 1631 397 2203 397 
Q 2534 397 2845 478 
Q 3156 559 3463 722 
L 3463 178 
Q 3153 47 2828 -22 
Q 2503 -91 2169 -91 
Q 1331 -91 842 396 
Q 353 884 353 1716 
Q 353 2575 817 3079 
Q 1281 3584 2069 3584 
Q 2775 3584 3186 3129 
Q 3597 2675 3597 1894 
z
M 3022 2063 
Q 3016 2534 2758 2815 
Q 2500 3097 2075 3097 
Q 1594 3097 1305 2825 
Q 1016 2553 972 2059 
L 3022 2063 
z
" transform="scale(0.015625)"/>
           <path id="DejaVuSans-20" transform="scale(0.015625)"/>
           <path id="DejaVuSans-61" d="M 2194 1759 
Q 1497 1759 1228 1600 
Q 959 1441 959 1056 
Q 959 750 1161 570 
Q 1363 391 1709 391 
Q 2188 391 2477 730 
Q 2766 1069 2766 1631 
L 2766 1759 
L 2194 1759 
z
M 3341 1997 
L 3341 0 
L 2766 0 
L 2766 531 
Q 2569 213 2275 61 
Q 1981 -91 1556 -91 
Q 1019 -91 701 211 
Q 384 513 384 1019 
Q 384 1609 779 1909 
Q 1175 2209 1959 2209 
L 2766 2209 
L 2766 2266 
Q 2766 2663 2505 2880 
Q 2244 3097 1772 3097 
Q 1472 3097 1187 3025 
Q 903 2953 641 2809 
L 641 3341 
Q 956 3463 1253 3523 
Q 1550 3584 1831 3584 
Q 2591 3584 2966 3190 
Q 3341 2797 3341 1997 
z
" transform="scale(0.015625)"/>
           <path id="DejaVuSans-67" d="M 2906 1791 
Q 2906 2416 2648 2759 
Q 2391 3103 1925 3103 
Q 1463 3103 1205 2759 
Q 947 2416 947 1791 
Q 947 1169 1205 825 
Q 1463 481 1925 481 
Q 2391 481 2648 825 
Q 2906 1169 2906 1791 
z
M 3481 434 
Q 3481 -459 3084 -895 
Q 2688 -1331 1869 -1331 
Q 1566 -1331 1297 -1286 
Q 1028 -1241 775 -1147 
L 775 -588 
Q 1028 -725 1275 -790 
Q 1522 -856 1778 -856 
Q 2344 -856 2625 -561 
Q 2906 -266 2906 331 
L 2906 616 
Q 2728 306 2450 153 
Q 2172 0 1784 0 
Q 1141 0 747 490 
Q 353 981 353 1791 
Q 353 2603 747 3093 
Q 1141 3584 1784 3584 
Q 2172 3584 2450 3431 
Q 2728 3278 2906 2969 
L 2906 3500 
L 3481 3500 
L 3481 434 
z
" transform="scale(0.015625)"/>
           <path id="DejaVuSans-6f" d="M 1959 3097 
Q 1497 3097 1228 2736 
Q 959 2375 959 1747 
Q 959 1119 1226 758 
Q 1494 397 1959 397 
Q 2419 397 2687 759 
Q 2956 1122 2956 1747 
Q 2956 2369 2687 2733 
Q 2419 3097 1959 3097 
z
M 1959 3584 
Q 2709 3584 3137 3096 
Q 3566 2609 3566 1747 
Q 3566 888 3137 398 
Q 2709 -91 1959 -91 
Q 1206 -91 779 398 
Q 353 888 353 1747 
Q 353 2609 779 3096 
Q 1206 3584 1959 3584 
z
" transform="scale(0.015625)"/>
           <path id="DejaVuSans-28" d="M 1984 4856 
Q 1566 4138 1362 3434 
Q 1159 2731 1159 2009 
Q 1159 1288 1364 580 
Q 1569 -128 1984 -844 
L 1484 -844 
Q 1016 -109 783 600 
Q 550 1309 550 2009 
Q 550 2706 781 3412 
Q 1013 4119 1484 4856 
L 1984 4856 
z
" transform="scale(0.015625)"/>
           <path id="DejaVuSans-6e" d="M 3513 2113 
L 3513 0 
L 2938 0 
L 2938 2094 
Q 2938 2591 2744 2837 
Q 2550 3084 2163 3084 
Q 1697 3084 1428 2787 
Q 1159 2491 1159 1978 
L 1159 0 
L 581 0 
L 581 3500 
L 1159 3500 
L 1159 2956 
Q 1366 3272 1645 3428 
Q 1925 3584 2291 3584 
Q 2894 3584 3203 3211 
Q 3513 2838 3513 2113 
z
" transform="scale(0.015625)"/>
           <path id="DejaVuSans-72" d="M 2631 2963 
Q 2534 3019 2420 3045 
Q 2306 3072 2169 3072 
Q 1681 3072 1420 2755 
Q 1159 2438 1159 1844 
L 1159 0 
L 581 0 
L 581 3500 
L 1159 3500 
L 1159 2956 
Q 1341 3275 1631 3429 
Q 1922 3584 2338 3584 
Q 2397 3584 2469 3576 
Q 2541 3569 2628 3553 
L 2631 2963 
z
" transform="scale(0.015625)"/>
           <path id="DejaVuSans-73" d="M 2834 3397 
L 2834 2853 
Q 2591 2978 2328 3040 
Q 2066 3103 1784 3103 
Q 1356 3103 1142 2972 
Q 928 2841 928 2578 
Q 928 2378 1081 2264 
Q 1234 2150 1697 2047 
L 1894 2003 
Q 2506 1872 2764 1633 
Q 3022 1394 3022 966 
Q 3022 478 2636 193 
Q 2250 -91 1575 -91 
Q 1294 -91 989 -36 
Q 684 19 347 128 
L 347 722 
Q 666 556 975 473 
Q 1284 391 1588 391 
Q 1994 391 2212 530 
Q 2431 669 2431 922 
Q 2431 1156 2273 1281 
Q 2116 1406 1581 1522 
L 1381 1569 
Q 847 1681 609 1914 
Q 372 2147 372 2553 
Q 372 3047 722 3315 
Q 1072 3584 1716 3584 
Q 2034 3584 2315 3537 
Q 2597 3491 2834 3397 
z
" transform="scale(0.015625)"/>
           <path id="DejaVuSans-29" d="M 513 4856 
L 1013 4856 
Q 1481 4119 1714 3412 
Q 1947 2706 1947 2009 
Q 1947 1309 1714 600 
Q 1481 -109 1013 -844 
L 513 -844 
Q 928 -128 1133 580 
Q 1338 1288 1338 2009 
Q 1338 2731 1133 3434 
Q 928 4138 513 4856 
z
" transform="scale(0.015625)"/>
          </defs>
          <use xlink:href="#DejaVuSans-74"/>
          <use xlink:href="#DejaVuSans-69" x="39.208984"/>
          <use xlink:href="#DejaVuSans-6d" x="66.992188"/>
          <use xlink:href="#DejaVuSans-65" x="164.404297"/>
          <use xlink:href="#DejaVuSans-20" x="225.927734"/>
          <use xlink:href="#DejaVuSans-61" x="257.714844"/>
          <use xlink:href="#DejaVuSans-67" x="318.994141"/>
          <use xlink:href="#DejaVuSans-6f" x="382.470703"/>
          <use xlink:href="#DejaVuSans-20" x="443.652344"/>
          <use xlink:href="#DejaVuSans-28" x="475.439453"/>
          <use xlink:href="#DejaVuSans-67" x="514.453125"/>
          <use xlink:href="#DejaVuSans-65" x="577.929688"/>
          <use xlink:href="#DejaVuSans-6e" x="639.453125"/>
          <use xlink:href="#DejaVuSans-65" x="702.832031"/>
          <use xlink:href="#DejaVuSans-72" x="764.355469"/>
          <use xlink:href="#DejaVuSans-61" x="805.46875"/>
          <use xlink:href="#DejaVuSans-74" x="866.748047"/>
          <use xlink:href="#DejaVuSans-69" x="905.957031"/>
          <use xlink:href="#DejaVuSans-6f" x="933.740234"/>
          <use xlink:href="#DejaVuSans-6e" x="994.921875"/>
          <use xlink:href="#DejaVuSans-73" x="1058.300781"/>
          <use xlink:href="#DejaVuSans-29" x="1110.400391"/>
         </g>
        </g>
       </g>
       <g id="patch_7">
        <path d="M 296.205515 260.993367 
L 295.205515 260.96193 
L 294.205515 260.92499 
L 293.205515 260.827243 
L 292.205515 260.794722 
L 291.205515 260.721097 
L 290.205515 260.682531 
L 289.205515 260.647118 
L 288.205515 260.589478 
L 287.205515 260.519092 
L 286.205515 260.467128 
L 285.205515 260.408038 
L 284.205515 260.319717 
L 283.205515 260.273573 
L 282.205515 260.231162 
L 281.205515 260.200669 
L 280.205515 260.174624 
L 279.205515 260.153424 
L 278.205515 260.099123 
L 277.205515 260.071186 
L 276.205515 260.041462 
L 275.205515 260.016067 
L 274.205515 260.004866 
L 273.205515 259.994742 
L 272.205515 259.994947 
L 271.205515 260.004457 
L 270.205515 260.01611 
L 269.205515 260.047139 
L 268.205515 260.058307 
L 267.205515 260.088425 
L 266.205515 260.148202 
L 265.205515 260.185393 
L 264.205515 260.224489 
L 263.205515 260.266929 
L 262.205515 260.299694 
L 261.205515 260.367121 
L 260.205515 260.406247 
L 259.205515 260.448921 
L 258.205515 260.519502 
L 257.205515 260.555893 
L 256.205515 260.614296 
L 255.205515 260.725248 
L 254.205515 260.795907 
L 253.205515 260.908847 
L 252.205515 260.954619 
L 251.205515 261.015903 
L 250.205515 261.064402 
L 249.205515 261.145225 
L 248.205515 261.263744 
L 247.205515 261.333954 
L 246.205515 261.417217 
L 245.205515 261.450358 
L 244.205515 261.501596 
L 243.205515 261.569994 
L 242.205515 261.63621 
L 241.205515 261.713127 
L 240.205515 261.740442 
L 239.205515 261.76692 
L 238.205515 261.78957 
L 237.205515 261.809102 
L 236.205515 261.835496 
L 235.205515 261.885266 
L 234.205515 261.920339 
L 233.205515 261.956205 
L 232.205515 261.971572 
L 231.205515 261.987342 
L 230.205515 261.990754 
L 229.205515 261.993172 
L 228.205515 261.992686 
L 227.205515 261.990756 
L 226.205515 261.977499 
L 225.205515 261.969109 
L 224.205515 261.947572 
L 223.205515 261.92454 
L 222.205515 261.907306 
L 221.205515 261.888844 
L 220.205515 261.868391 
L 219.205515 261.851791 
L 218.205515 261.789013 
L 217.205515 261.713748 
L 216.205515 261.681108 
L 215.205515 261.613545 
L 214.205515 261.559498 
L 213.205515 261.525794 
L 212.205515 261.435668 
L 211.205515 261.407133 
L 210.205515 261.375646 
L 209.205515 261.344636 
L 208.205515 261.289828 
L 207.205515 261.22524 
L 206.205515 261.187045 
L 205.205515 261.091111 
L 204.205515 261.041853 
L 203.205515 260.997783 
L 202.205515 260.95766 
L 201.205515 260.849293 
L 200.205515 260.807664 
L 199.205515 260.745523 
L 198.205515 260.675561 
L 197.205515 260.571056 
L 196.205515 260.534069 
L 195.205515 260.488191 
L 194.205515 260.419697 
L 193.205515 260.370951 
L 192.205515 260.293353 
L 191.205515 260.262813 
L 190.205515 260.193298 
L 189.205515 260.169325 
L 188.205515 260.140704 
L 187.205515 260.098911 
L 186.205515 260.077335 
L 185.205515 260.063387 
L 184.205515 260.036664 
L 183.205515 260.027355 
L 182.205515 260.014908 
L 181.205515 260.003853 
L 180.205515 259.998188 
L 179.205515 259.993425 
L 178.205515 259.998972 
L 177.205515 260.01226 
L 176.205515 260.019778 
L 175.205515 260.044563 
L 174.205515 260.068131 
L 173.205515 260.104312 
L 172.205515 260.130274 
L 171.205515 260.152595 
L 170.205515 260.221355 
L 169.205515 260.29589 
L 168.205515 260.38987 
L 167.205515 260.440922 
L 166.205515 260.494856 
L 165.205515 260.530106 
L 164.205515 260.636194 
L 163.205515 260.688459 
L 162.205515 260.725365 
L 161.205515 260.756396 
L 160.205515 260.817552 
L 159.205515 260.884972 
L 158.205515 260.933878 
L 157.205515 260.99907 
L 156.205515 261.037257 
L 155.205515 261.079253 
L 154.205515 261.121271 
L 153.205515 261.180787 
L 152.205515 261.293947 
L 151.205515 261.346198 
L 150.205515 261.385615 
L 149.205515 261.432717 
L 148.205515 261.489496 
L 147.205515 261.522159 
L 146.205515 261.558337 
L 145.205515 261.590428 
L 144.205515 261.624708 
L 143.205515 261.683085 
L 142.205515 261.72827 
L 141.205515 261.757894 
L 140.205515 261.80828 
L 139.205515 261.833478 
L 138.205515 261.854529 
L 137.205515 261.889497 
L 136.205515 261.913787 
L 135.205515 261.927854 
L 134.205515 261.946795 
L 133.205515 261.962457 
L 132.205515 261.975009 
L 131.205515 261.980844 
L 130.205515 261.987727 
L 129.205515 261.992901 
L 128.205515 261.991118 
L 127.205515 261.988392 
L 126.205515 261.977239 
L 125.205515 261.949004 
L 124.205515 261.905216 
L 123.205515 261.884527 
L 122.205515 261.843553 
L 121.205515 261.803478 
L 120.205515 261.784368 
L 119.205515 261.76186 
L 118.205515 261.695208 
L 117.205515 261.645499 
L 116.205515 261.571792 
L 115.205515 261.540479 
L 114.205515 261.463856 
L 113.205515 261.425558 
L 112.205515 261.351442 
L 111.205515 261.247383 
L 110.205515 261.177553 
L 109.205515 261.072319 
L 108.205515 261.017304 
L 107.205515 260.893829 
L 106.205515 260.82327 
L 104.344829 260.70743 
" clip-path="url(#pcc135d3fe1)" style="fill: none; stroke: #ffffff; stroke-width: 3; stroke-linecap: round"/>
        <path d="M 296.205515 260.993367 
L 295.205515 260.96193 
L 294.205515 260.92499 
L 293.205515 260.827243 
L 292.205515 260.794722 
L 291.205515 260.721097 
L 290.205515 260.682531 
L 289.205515 260.647118 
L 288.205515 260.589478 
L 287.205515 260.519092 
L 286.205515 260.467128 
L 285.205515 260.408038 
L 284.205515 260.319717 
L 283.205515 260.273573 
L 282.205515 260.231162 
L 281.205515 260.200669 
L 280.205515 260.174624 
L 279.205515 260.153424 
L 278.205515 260.099123 
L 277.205515 260.071186 
L 276.205515 260.041462 
L 275.205515 260.016067 
L 274.205515 260.004866 
L 273.205515 259.994742 
L 272.205515 259.994947 
L 271.205515 260.004457 
L 270.205515 260.01611 
L 269.205515 260.047139 
L 268.205515 260.058307 
L 267.205515 260.088425 
L 266.205515 260.148202 
L 265.205515 260.185393 
L 264.205515 260.224489 
L 263.205515 260.266929 
L 262.205515 260.299694 
L 261.205515 260.367121 
L 260.205515 260.406247 
L 259.205515 260.448921 
L 258.205515 260.519502 
L 257.205515 260.555893 
L 256.205515 260.614296 
L 255.205515 260.725248 
L 254.205515 260.795907 
L 253.205515 260.908847 
L 252.205515 260.954619 
L 251.205515 261.015903 
L 250.205515 261.064402 
L 249.205515 261.145225 
L 248.205515 261.263744 
L 247.205515 261.333954 
L 246.205515 261.417217 
L 245.205515 261.450358 
L 244.205515 261.501596 
L 243.205515 261.569994 
L 242.205515 261.63621 
L 241.205515 261.713127 
L 240.205515 261.740442 
L 239.205515 261.76692 
L 238.205515 261.78957 
L 237.205515 261.809102 
L 236.205515 261.835496 
L 235.205515 261.885266 
L 234.205515 261.920339 
L 233.205515 261.956205 
L 232.205515 261.971572 
L 231.205515 261.987342 
L 230.205515 261.990754 
L 229.205515 261.993172 
L 228.205515 261.992686 
L 227.205515 261.990756 
L 226.205515 261.977499 
L 225.205515 261.969109 
L 224.205515 261.947572 
L 223.205515 261.92454 
L 222.205515 261.907306 
L 221.205515 261.888844 
L 220.205515 261.868391 
L 219.205515 261.851791 
L 218.205515 261.789013 
L 217.205515 261.713748 
L 216.205515 261.681108 
L 215.205515 261.613545 
L 214.205515 261.559498 
L 213.205515 261.525794 
L 212.205515 261.435668 
L 211.205515 261.407133 
L 210.205515 261.375646 
L 209.205515 261.344636 
L 208.205515 261.289828 
L 207.205515 261.22524 
L 206.205515 261.187045 
L 205.205515 261.091111 
L 204.205515 261.041853 
L 203.205515 260.997783 
L 202.205515 260.95766 
L 201.205515 260.849293 
L 200.205515 260.807664 
L 199.205515 260.745523 
L 198.205515 260.675561 
L 197.205515 260.571056 
L 196.205515 260.534069 
L 195.205515 260.488191 
L 194.205515 260.419697 
L 193.205515 260.370951 
L 192.205515 260.293353 
L 191.205515 260.262813 
L 190.205515 260.193298 
L 189.205515 260.169325 
L 188.205515 260.140704 
L 187.205515 260.098911 
L 186.205515 260.077335 
L 185.205515 260.063387 
L 184.205515 260.036664 
L 183.205515 260.027355 
L 182.205515 260.014908 
L 181.205515 260.003853 
L 180.205515 259.998188 
L 179.205515 259.993425 
L 178.205515 259.998972 
L 177.205515 260.01226 
L 176.205515 260.019778 
L 175.205515 260.044563 
L 174.205515 260.068131 
L 173.205515 260.104312 
L 172.205515 260.130274 
L 171.205515 260.152595 
L 170.205515 260.221355 
L 169.205515 260.29589 
L 168.205515 260.38987 
L 167.205515 260.440922 
L 166.205515 260.494856 
L 165.205515 260.530106 
L 164.205515 260.636194 
L 163.205515 260.688459 
L 162.205515 260.725365 
L 161.205515 260.756396 
L 160.205515 260.817552 
L 159.205515 260.884972 
L 158.205515 260.933878 
L 157.205515 260.99907 
L 156.205515 261.037257 
L 155.205515 261.079253 
L 154.205515 261.121271 
L 153.205515 261.180787 
L 152.205515 261.293947 
L 151.205515 261.346198 
L 150.205515 261.385615 
L 149.205515 261.432717 
L 148.205515 261.489496 
L 147.205515 261.522159 
L 146.205515 261.558337 
L 145.205515 261.590428 
L 144.205515 261.624708 
L 143.205515 261.683085 
L 142.205515 261.72827 
L 141.205515 261.757894 
L 140.205515 261.80828 
L 139.205515 261.833478 
L 138.205515 261.854529 
L 137.205515 261.889497 
L 136.205515 261.913787 
L 135.205515 261.927854 
L 134.205515 261.946795 
L 133.205515 261.962457 
L 132.205515 261.975009 
L 131.205515 261.980844 
L 130.205515 261.987727 
L 129.205515 261.992901 
L 128.205515 261.991118 
L 127.205515 261.988392 
L 126.205515 261.977239 
L 125.205515 261.949004 
L 124.205515 261.905216 
L 123.205515 261.884527 
L 122.205515 261.843553 
L 121.205515 261.803478 
L 120.205515 261.784368 
L 119.205515 261.76186 
L 118.205515 261.695208 
L 117.205515 261.645499 
L 116.205515 261.571792 
L 115.205515 261.540479 
L 114.205515 261.463856 
L 113.205515 261.425558 
L 112.205515 261.351442 
L 111.205515 261.247383 
L 110.205515 261.177553 
L 109.205515 261.072319 
L 108.205515 261.017304 
L 107.205515 260.893829 
L 106.205515 260.82327 
L 104.344829 260.70743 
" clip-path="url(#pcc135d3fe1)" style="fill: none; stroke: #1f77b4; stroke-linecap: round"/>
        <path d="M 108.344829 262.993367 
L 107.46446 262.518035 
L 106.586553 262.037781 
L 105.73584 261.503141 
L 104.433665 260.815693 
L 105.361019 260.789678 
L 106.272693 260.376959 
L 107.182957 259.96142 
L 108.525453 259.354615 
L 107.870554 259.993367 
L 107.81859 260.993367 
L 107.7595 262.993367 
z
" clip-path="url(#pcc135d3fe1)" style="fill: #ffffff; stroke: #ffffff; stroke-width: 3; stroke-linecap: round"/>
        <path d="M 108.344829 262.993367 
L 107.46446 262.518035 
L 106.586553 262.037781 
L 105.73584 261.503141 
L 104.433665 260.815693 
L 105.361019 260.789678 
L 106.272693 260.376959 
L 107.182957 259.96142 
L 108.525453 259.354615 
L 107.870554 259.993367 
L 107.81859 260.993367 
L 107.7595 262.993367 
z
" clip-path="url(#pcc135d3fe1)" style="fill: #ffffff; stroke: #1f77b4; stroke-linecap: round"/>
        <g id="patch_8">
         <path d="M 311.282896 72.964375 
L 312.282896 72.995811 
L 313.282896 73.032752 
L 314.282896 73.130498 
L 315.282896 73.16302 
L 316.282896 73.236645 
L 317.282896 73.27521 
L 318.282896 73.310623 
L 319.282896 73.368263 
L 320.282896 73.438649 
L 321.282896 73.490614 
L 322.282896 73.549703 
L 323.282896 73.638024 
L 324.282896 73.684169 
L 325.282896 73.72658 
L 326.282896 73.757072 
L 327.282896 73.783117 
L 328.282896 73.804317 
L 329.282896 73.858618 
L 330.282896 73.886556 
L 331.282896 73.91628 
L 332.282896 73.941675 
L 333.282896 73.952875 
L 334.282896 73.962999 
L 335.282896 73.962795 
L 336.282896 73.953285 
L 337.282896 73.941631 
L 338.282896 73.910602 
L 339.282896 73.899434 
L 340.282896 73.869317 
L 341.282896 73.80954 
L 342.282896 73.772348 
L 343.282896 73.733252 
L 344.282896 73.690812 
L 345.282896 73.658047 
L 346.282896 73.590621 
L 347.282896 73.551495 
L 348.282896 73.50882 
L 349.282896 73.43824 
L 350.282896 73.401849 
L 351.282896 73.343446 
L 352.282896 73.232493 
L 353.282896 73.161835 
L 354.282896 73.048895 
L 355.282896 73.003122 
L 356.282896 72.941839 
L 357.282896 72.89334 
L 358.282896 72.812517 
L 359.282896 72.693998 
L 360.282896 72.623787 
L 361.282896 72.540525 
L 362.282896 72.507383 
L 363.282896 72.456146 
L 364.282896 72.387747 
L 365.282896 72.321532 
L 366.282896 72.244615 
L 367.282896 72.217299 
L 368.282896 72.190822 
L 369.282896 72.168171 
L 370.282896 72.14864 
L 371.282896 72.122246 
L 372.282896 72.072475 
L 373.282896 72.037402 
L 374.282896 72.001536 
L 375.282896 71.986169 
L 376.282896 71.9704 
L 377.282896 71.966987 
L 378.282896 71.96457 
L 379.282896 71.965056 
L 380.282896 71.966985 
L 381.282896 71.980242 
L 382.282896 71.988633 
L 383.282896 72.010169 
L 384.282896 72.033202 
L 385.282896 72.050435 
L 386.282896 72.068898 
L 387.282896 72.08935 
L 388.282896 72.10595 
L 389.282896 72.168729 
L 390.282896 72.243994 
L 391.282896 72.276633 
L 392.282896 72.344197 
L 393.282896 72.398244 
L 394.282896 72.431948 
L 395.282896 72.522074 
L 396.282896 72.550609 
L 397.282896 72.582095 
L 398.282896 72.613106 
L 399.282896 72.667914 
L 400.282896 72.732501 
L 401.282896 72.770697 
L 402.282896 72.866631 
L 403.282896 72.915889 
L 404.282896 72.959958 
L 405.282896 73.000082 
L 406.282896 73.108449 
L 407.282896 73.150077 
L 408.282896 73.212219 
L 409.282896 73.282181 
L 410.282896 73.386685 
L 411.282896 73.423673 
L 412.282896 73.46955 
L 413.282896 73.538045 
L 414.282896 73.586791 
L 415.282896 73.664388 
L 416.282896 73.694929 
L 417.282896 73.764443 
L 418.282896 73.788416 
L 419.282896 73.817038 
L 420.282896 73.858831 
L 421.282896 73.880407 
L 422.282896 73.894355 
L 423.282896 73.921077 
L 424.282896 73.930387 
L 425.282896 73.942834 
L 426.282896 73.953889 
L 427.282896 73.959553 
L 428.282896 73.964317 
L 429.282896 73.958769 
L 430.282896 73.945481 
L 431.282896 73.937964 
L 432.282896 73.913179 
L 433.282896 73.88961 
L 434.282896 73.85343 
L 435.282896 73.827468 
L 436.282896 73.805146 
L 437.282896 73.736386 
L 438.282896 73.661851 
L 439.282896 73.567872 
L 440.282896 73.51682 
L 441.282896 73.462886 
L 442.282896 73.427635 
L 443.282896 73.321547 
L 444.282896 73.269283 
L 445.282896 73.232376 
L 446.282896 73.201345 
L 447.282896 73.14019 
L 448.282896 73.07277 
L 449.282896 73.023864 
L 450.282896 72.958672 
L 451.282896 72.920484 
L 452.282896 72.878488 
L 453.282896 72.836471 
L 454.282896 72.776955 
L 455.282896 72.663795 
L 456.282896 72.611544 
L 457.282896 72.572126 
L 458.282896 72.525025 
L 459.282896 72.468245 
L 460.282896 72.435582 
L 461.282896 72.399404 
L 462.282896 72.367314 
L 463.282896 72.333034 
L 464.282896 72.274656 
L 465.282896 72.229471 
L 466.282896 72.199847 
L 467.282896 72.149461 
L 468.282896 72.124264 
L 469.282896 72.103213 
L 470.282896 72.068245 
L 471.282896 72.043955 
L 472.282896 72.029888 
L 473.282896 72.010946 
L 474.282896 71.995285 
L 475.282896 71.982733 
L 476.282896 71.976897 
L 477.282896 71.970015 
L 478.282896 71.964841 
L 479.282896 71.966624 
L 480.282896 71.969349 
L 481.282896 71.980503 
L 482.282896 72.008738 
L 483.282896 72.052526 
L 484.282896 72.073215 
L 485.282896 72.114188 
L 486.282896 72.154263 
L 487.282896 72.173373 
L 488.282896 72.195882 
L 489.282896 72.262533 
L 490.282896 72.312243 
L 491.282896 72.385949 
L 492.282896 72.417263 
L 493.282896 72.493885 
L 494.282896 72.532183 
L 495.282896 72.6063 
L 496.282896 72.710358 
L 497.282896 72.780189 
L 498.282896 72.885423 
L 499.282896 72.940438 
L 500.282896 73.063913 
L 501.282896 73.134472 
L 502.282896 73.250311 
L 503.282896 73.300492 
L 504.282896 73.336096 
L 505.282896 73.427503 
L 506.282896 73.481011 
L 507.282896 73.568919 
L 508.282896 73.638104 
L 509.282896 73.684868 
L 510.282896 73.756912 
L 511.282896 73.807054 
L 512.282896 73.824444 
L 513.282896 73.851447 
L 514.282896 73.870874 
L 515.282896 73.890212 
L 516.282896 73.928461 
L 517.282896 73.944894 
L 518.282896 73.953263 
L 519.282896 73.957582 
L 520.282896 73.964137 
L 521.282896 73.961591 
L 522.282896 73.956132 
L 523.282896 73.939704 
L 524.282896 73.907769 
L 525.282896 73.869789 
L 526.282896 73.834985 
L 527.282896 73.771913 
L 528.282896 73.750486 
L 529.282896 73.699868 
L 530.282896 73.674911 
L 531.282896 73.619277 
L 532.282896 73.588048 
L 533.282896 73.537904 
L 534.282896 73.505411 
L 535.282896 73.424999 
L 536.282896 73.356073 
L 537.282896 73.240376 
L 538.282896 73.164897 
L 539.282896 73.049372 
L 540.282896 72.969888 
L 541.282896 72.861447 
L 542.282896 72.822079 
L 543.282896 72.719211 
L 544.282896 72.619413 
L 545.282896 72.573916 
L 546.282896 72.539594 
L 547.282896 72.487638 
L 548.282896 72.447991 
L 549.282896 72.412477 
L 550.282896 72.344832 
L 551.282896 72.30575 
L 552.282896 72.255269 
L 553.282896 72.205963 
L 554.282896 72.154893 
L 555.282896 72.110654 
L 556.282896 72.088634 
L 557.282896 72.073078 
L 558.282896 72.030631 
L 559.282896 72.015763 
L 560.282896 71.993035 
L 561.282896 71.972719 
L 562.282896 71.966922 
L 563.282896 71.96444 
L 564.282896 71.967497 
L 565.282896 71.979093 
L 566.282896 71.996013 
L 567.282896 72.027674 
L 568.282896 72.041757 
L 569.282896 72.094429 
L 570.748135 72.143518 
" clip-path="url(#pcc135d3fe1)" style="fill: none; stroke: #ffffff; stroke-width: 3; stroke-linecap: round"/>
         <path d="M 311.282896 72.964375 
L 312.282896 72.995811 
L 313.282896 73.032752 
L 314.282896 73.130498 
L 315.282896 73.16302 
L 316.282896 73.236645 
L 317.282896 73.27521 
L 318.282896 73.310623 
L 319.282896 73.368263 
L 320.282896 73.438649 
L 321.282896 73.490614 
L 322.282896 73.549703 
L 323.282896 73.638024 
L 324.282896 73.684169 
L 325.282896 73.72658 
L 326.282896 73.757072 
L 327.282896 73.783117 
L 328.282896 73.804317 
L 329.282896 73.858618 
L 330.282896 73.886556 
L 331.282896 73.91628 
L 332.282896 73.941675 
L 333.282896 73.952875 
L 334.282896 73.962999 
L 335.282896 73.962795 
L 336.282896 73.953285 
L 337.282896 73.941631 
L 338.282896 73.910602 
L 339.282896 73.899434 
L 340.282896 73.869317 
L 341.282896 73.80954 
L 342.282896 73.772348 
L 343.282896 73.733252 
L 344.282896 73.690812 
L 345.282896 73.658047 
L 346.282896 73.590621 
L 347.282896 73.551495 
L 348.282896 73.50882 
L 349.282896 73.43824 
L 350.282896 73.401849 
L 351.282896 73.343446 
L 352.282896 73.232493 
L 353.282896 73.161835 
L 354.282896 73.048895 
L 355.282896 73.003122 
L 356.282896 72.941839 
L 357.282896 72.89334 
L 358.282896 72.812517 
L 359.282896 72.693998 
L 360.282896 72.623787 
L 361.282896 72.540525 
L 362.282896 72.507383 
L 363.282896 72.456146 
L 364.282896 72.387747 
L 365.282896 72.321532 
L 366.282896 72.244615 
L 367.282896 72.217299 
L 368.282896 72.190822 
L 369.282896 72.168171 
L 370.282896 72.14864 
L 371.282896 72.122246 
L 372.282896 72.072475 
L 373.282896 72.037402 
L 374.282896 72.001536 
L 375.282896 71.986169 
L 376.282896 71.9704 
L 377.282896 71.966987 
L 378.282896 71.96457 
L 379.282896 71.965056 
L 380.282896 71.966985 
L 381.282896 71.980242 
L 382.282896 71.988633 
L 383.282896 72.010169 
L 384.282896 72.033202 
L 385.282896 72.050435 
L 386.282896 72.068898 
L 387.282896 72.08935 
L 388.282896 72.10595 
L 389.282896 72.168729 
L 390.282896 72.243994 
L 391.282896 72.276633 
L 392.282896 72.344197 
L 393.282896 72.398244 
L 394.282896 72.431948 
L 395.282896 72.522074 
L 396.282896 72.550609 
L 397.282896 72.582095 
L 398.282896 72.613106 
L 399.282896 72.667914 
L 400.282896 72.732501 
L 401.282896 72.770697 
L 402.282896 72.866631 
L 403.282896 72.915889 
L 404.282896 72.959958 
L 405.282896 73.000082 
L 406.282896 73.108449 
L 407.282896 73.150077 
L 408.282896 73.212219 
L 409.282896 73.282181 
L 410.282896 73.386685 
L 411.282896 73.423673 
L 412.282896 73.46955 
L 413.282896 73.538045 
L 414.282896 73.586791 
L 415.282896 73.664388 
L 416.282896 73.694929 
L 417.282896 73.764443 
L 418.282896 73.788416 
L 419.282896 73.817038 
L 420.282896 73.858831 
L 421.282896 73.880407 
L 422.282896 73.894355 
L 423.282896 73.921077 
L 424.282896 73.930387 
L 425.282896 73.942834 
L 426.282896 73.953889 
L 427.282896 73.959553 
L 428.282896 73.964317 
L 429.282896 73.958769 
L 430.282896 73.945481 
L 431.282896 73.937964 
L 432.282896 73.913179 
L 433.282896 73.88961 
L 434.282896 73.85343 
L 435.282896 73.827468 
L 436.282896 73.805146 
L 437.282896 73.736386 
L 438.282896 73.661851 
L 439.282896 73.567872 
L 440.282896 73.51682 
L 441.282896 73.462886 
L 442.282896 73.427635 
L 443.282896 73.321547 
L 444.282896 73.269283 
L 445.282896 73.232376 
L 446.282896 73.201345 
L 447.282896 73.14019 
L 448.282896 73.07277 
L 449.282896 73.023864 
L 450.282896 72.958672 
L 451.282896 72.920484 
L 452.282896 72.878488 
L 453.282896 72.836471 
L 454.282896 72.776955 
L 455.282896 72.663795 
L 456.282896 72.611544 
L 457.282896 72.572126 
L 458.282896 72.525025 
L 459.282896 72.468245 
L 460.282896 72.435582 
L 461.282896 72.399404 
L 462.282896 72.367314 
L 463.282896 72.333034 
L 464.282896 72.274656 
L 465.282896 72.229471 
L 466.282896 72.199847 
L 467.282896 72.149461 
L 468.282896 72.124264 
L 469.282896 72.103213 
L 470.282896 72.068245 
L 471.282896 72.043955 
L 472.282896 72.029888 
L 473.282896 72.010946 
L 474.282896 71.995285 
L 475.282896 71.982733 
L 476.282896 71.976897 
L 477.282896 71.970015 
L 478.282896 71.964841 
L 479.282896 71.966624 
L 480.282896 71.969349 
L 481.282896 71.980503 
L 482.282896 72.008738 
L 483.282896 72.052526 
L 484.282896 72.073215 
L 485.282896 72.114188 
L 486.282896 72.154263 
L 487.282896 72.173373 
L 488.282896 72.195882 
L 489.282896 72.262533 
L 490.282896 72.312243 
L 491.282896 72.385949 
L 492.282896 72.417263 
L 493.282896 72.493885 
L 494.282896 72.532183 
L 495.282896 72.6063 
L 496.282896 72.710358 
L 497.282896 72.780189 
L 498.282896 72.885423 
L 499.282896 72.940438 
L 500.282896 73.063913 
L 501.282896 73.134472 
L 502.282896 73.250311 
L 503.282896 73.300492 
L 504.282896 73.336096 
L 505.282896 73.427503 
L 506.282896 73.481011 
L 507.282896 73.568919 
L 508.282896 73.638104 
L 509.282896 73.684868 
L 510.282896 73.756912 
L 511.282896 73.807054 
L 512.282896 73.824444 
L 513.282896 73.851447 
L 514.282896 73.870874 
L 515.282896 73.890212 
L 516.282896 73.928461 
L 517.282896 73.944894 
L 518.282896 73.953263 
L 519.282896 73.957582 
L 520.282896 73.964137 
L 521.282896 73.961591 
L 522.282896 73.956132 
L 523.282896 73.939704 
L 524.282896 73.907769 
L 525.282896 73.869789 
L 526.282896 73.834985 
L 527.282896 73.771913 
L 528.282896 73.750486 
L 529.282896 73.699868 
L 530.282896 73.674911 
L 531.282896 73.619277 
L 532.282896 73.588048 
L 533.282896 73.537904 
L 534.282896 73.505411 
L 535.282896 73.424999 
L 536.282896 73.356073 
L 537.282896 73.240376 
L 538.282896 73.164897 
L 539.282896 73.049372 
L 540.282896 72.969888 
L 541.282896 72.861447 
L 542.282896 72.822079 
L 543.282896 72.719211 
L 544.282896 72.619413 
L 545.282896 72.573916 
L 546.282896 72.539594 
L 547.282896 72.487638 
L 548.282896 72.447991 
L 549.282896 72.412477 
L 550.282896 72.344832 
L 551.282896 72.30575 
L 552.282896 72.255269 
L 553.282896 72.205963 
L 554.282896 72.154893 
L 555.282896 72.110654 
L 556.282896 72.088634 
L 557.282896 72.073078 
L 558.282896 72.030631 
L 559.282896 72.015763 
L 560.282896 71.993035 
L 561.282896 71.972719 
L 562.282896 71.966922 
L 563.282896 71.96444 
L 564.282896 71.967497 
L 565.282896 71.979093 
L 566.282896 71.996013 
L 567.282896 72.027674 
L 568.282896 72.041757 
L 569.282896 72.094429 
L 570.748135 72.143518 
" clip-path="url(#pcc135d3fe1)" style="fill: none; stroke: #1f77b4; stroke-linecap: round"/>
         <path d="M 566.748135 70.964375 
L 567.628503 71.439706 
L 568.50641 71.91996 
L 569.357124 72.454601 
L 570.659298 73.142048 
L 569.731945 73.168063 
L 568.820271 73.580783 
L 567.910006 73.996322 
L 566.56751 74.603126 
L 567.222409 73.964375 
L 567.274373 72.964375 
L 567.333463 70.964375 
z
" clip-path="url(#pcc135d3fe1)" style="fill: #ffffff; stroke: #ffffff; stroke-width: 3; stroke-linecap: round"/>
         <path d="M 566.748135 70.964375 
L 567.628503 71.439706 
L 568.50641 71.91996 
L 569.357124 72.454601 
L 570.659298 73.142048 
L 569.731945 73.168063 
L 568.820271 73.580783 
L 567.910006 73.996322 
L 566.56751 74.603126 
L 567.222409 73.964375 
L 567.274373 72.964375 
L 567.333463 70.964375 
z
" clip-path="url(#pcc135d3fe1)" style="fill: #ffffff; stroke: #1f77b4; stroke-linecap: round"/>
         <g id="patch_9">
          <path d="M 103.226241 262.786369 
L 104.226241 262.817806 
L 105.226241 262.854746 
L 106.226241 262.952493 
L 107.226241 262.985014 
L 108.226241 263.058639 
L 109.226241 263.097204 
L 110.226241 263.132618 
L 111.226241 263.190258 
L 112.226241 263.260644 
L 113.226241 263.312608 
L 114.226241 263.371698 
L 115.226241 263.460019 
L 116.226241 263.506163 
L 117.226241 263.548574 
L 118.226241 263.579067 
L 119.226241 263.605112 
L 120.226241 263.626312 
L 121.226241 263.680613 
L 122.226241 263.70855 
L 123.226241 263.738274 
L 124.226241 263.763669 
L 125.226241 263.77487 
L 126.226241 263.784993 
L 127.226241 263.784789 
L 128.226241 263.775279 
L 129.226241 263.763626 
L 130.226241 263.732596 
L 131.226241 263.721429 
L 132.226241 263.691311 
L 133.226241 263.631534 
L 134.226241 263.594343 
L 135.226241 263.555246 
L 136.226241 263.512807 
L 137.226241 263.480042 
L 138.226241 263.412615 
L 139.226241 263.373489 
L 140.226241 263.330815 
L 141.226241 263.260234 
L 142.226241 263.223843 
L 143.226241 263.16544 
L 144.226241 263.054488 
L 145.226241 262.983829 
L 146.226241 262.870889 
L 147.226241 262.825117 
L 148.226241 262.763833 
L 149.226241 262.715334 
L 150.226241 262.634511 
L 151.226241 262.515992 
L 152.226241 262.445782 
L 153.226241 262.362519 
L 154.226241 262.329377 
L 155.226241 262.27814 
L 156.226241 262.209742 
L 157.226241 262.143526 
L 158.226241 262.066609 
L 159.226241 262.039294 
L 160.226241 262.012816 
L 161.226241 261.990166 
L 162.226241 261.970634 
L 163.226241 261.94424 
L 164.226241 261.89447 
L 165.226241 261.859396 
L 166.226241 261.823531 
L 167.226241 261.808163 
L 168.226241 261.792394 
L 169.226241 261.788982 
L 170.226241 261.786564 
L 171.226241 261.78705 
L 172.226241 261.788979 
L 173.226241 261.802236 
L 174.226241 261.810627 
L 175.226241 261.832164 
L 176.226241 261.855196 
L 177.226241 261.87243 
L 178.226241 261.890892 
L 179.226241 261.911345 
L 180.226241 261.927945 
L 181.226241 261.990723 
L 182.226241 262.065988 
L 183.226241 262.098627 
L 184.226241 262.166191 
L 185.226241 262.220238 
L 186.226241 262.253942 
L 187.226241 262.344068 
L 188.226241 262.372603 
L 189.226241 262.404089 
L 190.226241 262.4351 
L 191.226241 262.489908 
L 192.226241 262.554496 
L 193.226241 262.592691 
L 194.226241 262.688625 
L 195.226241 262.737883 
L 196.226241 262.781953 
L 197.226241 262.822076 
L 198.226241 262.930443 
L 199.226241 262.972071 
L 200.226241 263.034213 
L 201.226241 263.104175 
L 202.226241 263.20868 
L 203.226241 263.245667 
L 204.226241 263.291545 
L 205.226241 263.360039 
L 206.226241 263.408785 
L 207.226241 263.486382 
L 208.226241 263.516923 
L 209.226241 263.586438 
L 210.226241 263.610411 
L 211.226241 263.639032 
L 212.226241 263.680825 
L 213.226241 263.702401 
L 214.226241 263.716349 
L 215.226241 263.743072 
L 216.226241 263.752381 
L 217.226241 263.764828 
L 218.226241 263.775883 
L 219.226241 263.781548 
L 220.226241 263.786311 
L 221.226241 263.780764 
L 222.226241 263.767476 
L 223.226241 263.759958 
L 224.226241 263.735173 
L 225.226241 263.711605 
L 226.226241 263.675424 
L 227.226241 263.649462 
L 228.226241 263.627141 
L 229.226241 263.558381 
L 230.226241 263.483845 
L 231.226241 263.389866 
L 232.226241 263.338814 
L 233.226241 263.28488 
L 234.226241 263.24963 
L 235.226241 263.143542 
L 236.226241 263.091277 
L 237.226241 263.054371 
L 238.226241 263.02334 
L 239.226241 262.962184 
L 240.226241 262.894764 
L 241.226241 262.845858 
L 242.226241 262.780666 
L 243.226241 262.742479 
L 244.226241 262.700483 
L 245.226241 262.658465 
L 246.226241 262.598949 
L 247.226241 262.485789 
L 248.226241 262.433538 
L 249.226241 262.394121 
L 250.226241 262.347019 
L 251.226241 262.29024 
L 252.226241 262.257577 
L 253.226241 262.221399 
L 254.226241 262.189308 
L 255.226241 262.155028 
L 256.226241 262.09665 
L 257.226241 262.051465 
L 258.226241 262.021842 
L 259.226241 261.971456 
L 260.226241 261.946258 
L 261.226241 261.925207 
L 262.226241 261.890239 
L 263.226241 261.865949 
L 264.226241 261.851882 
L 265.226241 261.832941 
L 266.226241 261.817279 
L 267.226241 261.804727 
L 268.226241 261.798892 
L 269.226241 261.792009 
L 270.226241 261.786835 
L 271.226241 261.788618 
L 272.226241 261.791344 
L 273.226241 261.802497 
L 274.226241 261.830732 
L 275.226241 261.87452 
L 276.226241 261.895209 
L 277.226241 261.936183 
L 278.226241 261.976258 
L 279.226241 261.995367 
L 280.226241 262.017876 
L 281.226241 262.084528 
L 282.226241 262.134237 
L 283.226241 262.207944 
L 284.226241 262.239257 
L 285.226241 262.315879 
L 286.226241 262.354178 
L 287.226241 262.428294 
L 288.226241 262.532353 
L 289.226241 262.602183 
L 290.226241 262.707417 
L 291.226241 262.762432 
L 292.226241 262.885907 
L 293.226241 262.956466 
L 294.226241 263.072306 
L 295.226241 263.122486 
L 296.226241 263.158091 
L 297.226241 263.249497 
L 298.226241 263.303005 
L 299.226241 263.390913 
L 300.226241 263.460098 
L 301.226241 263.506863 
L 302.226241 263.578906 
L 303.226241 263.629048 
L 304.226241 263.646438 
L 305.226241 263.673441 
L 306.226241 263.692869 
L 307.226241 263.712207 
L 308.226241 263.750455 
L 309.226241 263.766889 
L 310.226241 263.775257 
L 311.226241 263.779576 
L 312.226241 263.786132 
L 313.226241 263.783585 
L 314.226241 263.778127 
L 315.226241 263.761698 
L 316.226241 263.729763 
L 317.226241 263.691783 
L 318.226241 263.656979 
L 319.226241 263.593908 
L 320.226241 263.572481 
L 321.226241 263.521863 
L 322.226241 263.496905 
L 323.226241 263.441272 
L 324.226241 263.410043 
L 325.226241 263.359899 
L 326.226241 263.327405 
L 327.226241 263.246993 
L 328.226241 263.178067 
L 329.226241 263.06237 
L 330.226241 262.986891 
L 331.226241 262.871366 
L 332.226241 262.791882 
L 333.226241 262.683441 
L 334.226241 262.644073 
L 335.226241 262.541206 
L 336.226241 262.441408 
L 337.226241 262.395911 
L 338.226241 262.361588 
L 339.226241 262.309632 
L 340.226241 262.269985 
L 341.226241 262.234471 
L 342.226241 262.166826 
L 343.226241 262.127745 
L 344.226241 262.077263 
L 345.226241 262.027957 
L 346.226241 261.976888 
L 347.226241 261.932648 
L 348.226241 261.910629 
L 349.226241 261.895072 
L 350.226241 261.852625 
L 351.226241 261.837757 
L 352.226241 261.81503 
L 353.226241 261.794713 
L 354.226241 261.788916 
L 355.226241 261.786434 
L 356.226241 261.789491 
L 357.226241 261.801087 
L 358.226241 261.818007 
L 359.226241 261.849668 
L 360.226241 261.863752 
L 361.226241 261.916423 
L 362.226241 261.965512 
L 363.226241 262.020213 
L 364.226241 262.064561 
L 365.226241 262.134553 
L 366.226241 262.184936 
L 367.226241 262.238843 
L 368.226241 262.308282 
L 369.226241 262.36567 
L 370.226241 262.415835 
L 371.226241 262.492997 
L 372.226241 262.551187 
L 373.226241 262.611826 
L 374.226241 262.649027 
L 375.226241 262.714118 
L 376.226241 262.819248 
L 377.226241 262.87955 
L 378.226241 262.975872 
L 379.226241 263.007875 
L 380.226241 263.058892 
L 381.226241 263.175684 
L 382.226241 263.211131 
L 383.226241 263.267012 
L 384.226241 263.297387 
L 385.226241 263.385773 
L 386.226241 263.430537 
L 387.226241 263.511425 
L 388.226241 263.571571 
L 389.226241 263.634657 
L 390.226241 263.657606 
L 391.226241 263.673776 
L 392.226241 263.702705 
L 393.226241 263.733056 
L 394.226241 263.745631 
L 395.226241 263.77051 
L 396.226241 263.782594 
L 397.226241 263.786355 
L 398.226241 263.781919 
L 399.226241 263.76958 
L 400.226241 263.755167 
L 401.226241 263.739094 
L 402.226241 263.703573 
L 403.226241 263.683639 
L 404.226241 263.62705 
L 405.226241 263.559856 
L 406.226241 263.532486 
L 407.226241 263.498339 
L 408.226241 263.449658 
L 409.226241 263.401373 
L 410.226241 263.342296 
L 411.226241 263.246692 
L 412.226241 263.203551 
L 413.226241 263.153703 
L 414.226241 263.095169 
L 415.226241 263.047583 
L 416.226241 262.986455 
L 417.226241 262.93037 
L 418.226241 262.8562 
L 419.226241 262.738961 
L 420.226241 262.683238 
L 421.226241 262.575012 
L 422.226241 262.468861 
L 423.226241 262.361289 
L 424.226241 262.326782 
L 425.226241 262.223474 
L 426.226241 262.14775 
L 427.226241 262.108315 
L 428.226241 262.068932 
L 429.226241 262.046449 
L 430.226241 261.990636 
L 431.226241 261.964584 
L 432.226241 261.934349 
L 433.226241 261.883578 
L 434.226241 261.864927 
L 435.226241 261.843219 
L 436.650644 261.830572 
" clip-path="url(#pcc135d3fe1)" style="fill: none; stroke: #ffffff; stroke-width: 3; stroke-linecap: round"/>
          <path d="M 103.226241 262.786369 
L 104.226241 262.817806 
L 105.226241 262.854746 
L 106.226241 262.952493 
L 107.226241 262.985014 
L 108.226241 263.058639 
L 109.226241 263.097204 
L 110.226241 263.132618 
L 111.226241 263.190258 
L 112.226241 263.260644 
L 113.226241 263.312608 
L 114.226241 263.371698 
L 115.226241 263.460019 
L 116.226241 263.506163 
L 117.226241 263.548574 
L 118.226241 263.579067 
L 119.226241 263.605112 
L 120.226241 263.626312 
L 121.226241 263.680613 
L 122.226241 263.70855 
L 123.226241 263.738274 
L 124.226241 263.763669 
L 125.226241 263.77487 
L 126.226241 263.784993 
L 127.226241 263.784789 
L 128.226241 263.775279 
L 129.226241 263.763626 
L 130.226241 263.732596 
L 131.226241 263.721429 
L 132.226241 263.691311 
L 133.226241 263.631534 
L 134.226241 263.594343 
L 135.226241 263.555246 
L 136.226241 263.512807 
L 137.226241 263.480042 
L 138.226241 263.412615 
L 139.226241 263.373489 
L 140.226241 263.330815 
L 141.226241 263.260234 
L 142.226241 263.223843 
L 143.226241 263.16544 
L 144.226241 263.054488 
L 145.226241 262.983829 
L 146.226241 262.870889 
L 147.226241 262.825117 
L 148.226241 262.763833 
L 149.226241 262.715334 
L 150.226241 262.634511 
L 151.226241 262.515992 
L 152.226241 262.445782 
L 153.226241 262.362519 
L 154.226241 262.329377 
L 155.226241 262.27814 
L 156.226241 262.209742 
L 157.226241 262.143526 
L 158.226241 262.066609 
L 159.226241 262.039294 
L 160.226241 262.012816 
L 161.226241 261.990166 
L 162.226241 261.970634 
L 163.226241 261.94424 
L 164.226241 261.89447 
L 165.226241 261.859396 
L 166.226241 261.823531 
L 167.226241 261.808163 
L 168.226241 261.792394 
L 169.226241 261.788982 
L 170.226241 261.786564 
L 171.226241 261.78705 
L 172.226241 261.788979 
L 173.226241 261.802236 
L 174.226241 261.810627 
L 175.226241 261.832164 
L 176.226241 261.855196 
L 177.226241 261.87243 
L 178.226241 261.890892 
L 179.226241 261.911345 
L 180.226241 261.927945 
L 181.226241 261.990723 
L 182.226241 262.065988 
L 183.226241 262.098627 
L 184.226241 262.166191 
L 185.226241 262.220238 
L 186.226241 262.253942 
L 187.226241 262.344068 
L 188.226241 262.372603 
L 189.226241 262.404089 
L 190.226241 262.4351 
L 191.226241 262.489908 
L 192.226241 262.554496 
L 193.226241 262.592691 
L 194.226241 262.688625 
L 195.226241 262.737883 
L 196.226241 262.781953 
L 197.226241 262.822076 
L 198.226241 262.930443 
L 199.226241 262.972071 
L 200.226241 263.034213 
L 201.226241 263.104175 
L 202.226241 263.20868 
L 203.226241 263.245667 
L 204.226241 263.291545 
L 205.226241 263.360039 
L 206.226241 263.408785 
L 207.226241 263.486382 
L 208.226241 263.516923 
L 209.226241 263.586438 
L 210.226241 263.610411 
L 211.226241 263.639032 
L 212.226241 263.680825 
L 213.226241 263.702401 
L 214.226241 263.716349 
L 215.226241 263.743072 
L 216.226241 263.752381 
L 217.226241 263.764828 
L 218.226241 263.775883 
L 219.226241 263.781548 
L 220.226241 263.786311 
L 221.226241 263.780764 
L 222.226241 263.767476 
L 223.226241 263.759958 
L 224.226241 263.735173 
L 225.226241 263.711605 
L 226.226241 263.675424 
L 227.226241 263.649462 
L 228.226241 263.627141 
L 229.226241 263.558381 
L 230.226241 263.483845 
L 231.226241 263.389866 
L 232.226241 263.338814 
L 233.226241 263.28488 
L 234.226241 263.24963 
L 235.226241 263.143542 
L 236.226241 263.091277 
L 237.226241 263.054371 
L 238.226241 263.02334 
L 239.226241 262.962184 
L 240.226241 262.894764 
L 241.226241 262.845858 
L 242.226241 262.780666 
L 243.226241 262.742479 
L 244.226241 262.700483 
L 245.226241 262.658465 
L 246.226241 262.598949 
L 247.226241 262.485789 
L 248.226241 262.433538 
L 249.226241 262.394121 
L 250.226241 262.347019 
L 251.226241 262.29024 
L 252.226241 262.257577 
L 253.226241 262.221399 
L 254.226241 262.189308 
L 255.226241 262.155028 
L 256.226241 262.09665 
L 257.226241 262.051465 
L 258.226241 262.021842 
L 259.226241 261.971456 
L 260.226241 261.946258 
L 261.226241 261.925207 
L 262.226241 261.890239 
L 263.226241 261.865949 
L 264.226241 261.851882 
L 265.226241 261.832941 
L 266.226241 261.817279 
L 267.226241 261.804727 
L 268.226241 261.798892 
L 269.226241 261.792009 
L 270.226241 261.786835 
L 271.226241 261.788618 
L 272.226241 261.791344 
L 273.226241 261.802497 
L 274.226241 261.830732 
L 275.226241 261.87452 
L 276.226241 261.895209 
L 277.226241 261.936183 
L 278.226241 261.976258 
L 279.226241 261.995367 
L 280.226241 262.017876 
L 281.226241 262.084528 
L 282.226241 262.134237 
L 283.226241 262.207944 
L 284.226241 262.239257 
L 285.226241 262.315879 
L 286.226241 262.354178 
L 287.226241 262.428294 
L 288.226241 262.532353 
L 289.226241 262.602183 
L 290.226241 262.707417 
L 291.226241 262.762432 
L 292.226241 262.885907 
L 293.226241 262.956466 
L 294.226241 263.072306 
L 295.226241 263.122486 
L 296.226241 263.158091 
L 297.226241 263.249497 
L 298.226241 263.303005 
L 299.226241 263.390913 
L 300.226241 263.460098 
L 301.226241 263.506863 
L 302.226241 263.578906 
L 303.226241 263.629048 
L 304.226241 263.646438 
L 305.226241 263.673441 
L 306.226241 263.692869 
L 307.226241 263.712207 
L 308.226241 263.750455 
L 309.226241 263.766889 
L 310.226241 263.775257 
L 311.226241 263.779576 
L 312.226241 263.786132 
L 313.226241 263.783585 
L 314.226241 263.778127 
L 315.226241 263.761698 
L 316.226241 263.729763 
L 317.226241 263.691783 
L 318.226241 263.656979 
L 319.226241 263.593908 
L 320.226241 263.572481 
L 321.226241 263.521863 
L 322.226241 263.496905 
L 323.226241 263.441272 
L 324.226241 263.410043 
L 325.226241 263.359899 
L 326.226241 263.327405 
L 327.226241 263.246993 
L 328.226241 263.178067 
L 329.226241 263.06237 
L 330.226241 262.986891 
L 331.226241 262.871366 
L 332.226241 262.791882 
L 333.226241 262.683441 
L 334.226241 262.644073 
L 335.226241 262.541206 
L 336.226241 262.441408 
L 337.226241 262.395911 
L 338.226241 262.361588 
L 339.226241 262.309632 
L 340.226241 262.269985 
L 341.226241 262.234471 
L 342.226241 262.166826 
L 343.226241 262.127745 
L 344.226241 262.077263 
L 345.226241 262.027957 
L 346.226241 261.976888 
L 347.226241 261.932648 
L 348.226241 261.910629 
L 349.226241 261.895072 
L 350.226241 261.852625 
L 351.226241 261.837757 
L 352.226241 261.81503 
L 353.226241 261.794713 
L 354.226241 261.788916 
L 355.226241 261.786434 
L 356.226241 261.789491 
L 357.226241 261.801087 
L 358.226241 261.818007 
L 359.226241 261.849668 
L 360.226241 261.863752 
L 361.226241 261.916423 
L 362.226241 261.965512 
L 363.226241 262.020213 
L 364.226241 262.064561 
L 365.226241 262.134553 
L 366.226241 262.184936 
L 367.226241 262.238843 
L 368.226241 262.308282 
L 369.226241 262.36567 
L 370.226241 262.415835 
L 371.226241 262.492997 
L 372.226241 262.551187 
L 373.226241 262.611826 
L 374.226241 262.649027 
L 375.226241 262.714118 
L 376.226241 262.819248 
L 377.226241 262.87955 
L 378.226241 262.975872 
L 379.226241 263.007875 
L 380.226241 263.058892 
L 381.226241 263.175684 
L 382.226241 263.211131 
L 383.226241 263.267012 
L 384.226241 263.297387 
L 385.226241 263.385773 
L 386.226241 263.430537 
L 387.226241 263.511425 
L 388.226241 263.571571 
L 389.226241 263.634657 
L 390.226241 263.657606 
L 391.226241 263.673776 
L 392.226241 263.702705 
L 393.226241 263.733056 
L 394.226241 263.745631 
L 395.226241 263.77051 
L 396.226241 263.782594 
L 397.226241 263.786355 
L 398.226241 263.781919 
L 399.226241 263.76958 
L 400.226241 263.755167 
L 401.226241 263.739094 
L 402.226241 263.703573 
L 403.226241 263.683639 
L 404.226241 263.62705 
L 405.226241 263.559856 
L 406.226241 263.532486 
L 407.226241 263.498339 
L 408.226241 263.449658 
L 409.226241 263.401373 
L 410.226241 263.342296 
L 411.226241 263.246692 
L 412.226241 263.203551 
L 413.226241 263.153703 
L 414.226241 263.095169 
L 415.226241 263.047583 
L 416.226241 262.986455 
L 417.226241 262.93037 
L 418.226241 262.8562 
L 419.226241 262.738961 
L 420.226241 262.683238 
L 421.226241 262.575012 
L 422.226241 262.468861 
L 423.226241 262.361289 
L 424.226241 262.326782 
L 425.226241 262.223474 
L 426.226241 262.14775 
L 427.226241 262.108315 
L 428.226241 262.068932 
L 429.226241 262.046449 
L 430.226241 261.990636 
L 431.226241 261.964584 
L 432.226241 261.934349 
L 433.226241 261.883578 
L 434.226241 261.864927 
L 435.226241 261.843219 
L 436.650644 261.830572 
" clip-path="url(#pcc135d3fe1)" style="fill: none; stroke: #ff7f0e; stroke-linecap: round"/>
          <path d="M 432.650644 260.786369 
L 433.531012 261.2617 
L 434.408919 261.741954 
L 435.259633 262.276595 
L 436.561807 262.964043 
L 435.634454 262.990058 
L 434.72278 263.402777 
L 433.812515 263.818316 
L 432.47002 264.425121 
L 433.124918 263.786369 
L 433.176883 262.786369 
L 433.235972 260.786369 
z
" clip-path="url(#pcc135d3fe1)" style="fill: #ffffff; stroke: #ffffff; stroke-width: 3; stroke-linecap: round"/>
          <path d="M 432.650644 260.786369 
L 433.531012 261.2617 
L 434.408919 261.741954 
L 435.259633 262.276595 
L 436.561807 262.964043 
L 435.634454 262.990058 
L 434.72278 263.402777 
L 433.812515 263.818316 
L 432.47002 264.425121 
L 433.124918 263.786369 
L 433.176883 262.786369 
L 433.235972 260.786369 
z
" clip-path="url(#pcc135d3fe1)" style="fill: #ffffff; stroke: #ff7f0e; stroke-linecap: round"/>
          <path d="M 445.831627 294.337656 
" clip-path="url(#pcc135d3fe1)" style="fill: none; stroke-dasharray: 3.7,1.6; stroke-dashoffset: 0; stroke: #2ca02c"/>
          <path d="M 444.831627 294.337656 
L 446.831627 295.337656 
L 446.831627 293.337656 
z
" clip-path="url(#pcc135d3fe1)" style="fill: #2ca02c; stroke: #2ca02c; stroke-linejoin: miter"/>
          <g id="patch_10">
           <path d="M 63.290625 321.621875 
L 63.290625 10.8 
" style="fill: none; stroke: #000000; stroke-width: 0.8; stroke-linejoin: miter; stroke-linecap: square"/>
          </g>
          <g id="text_14">
           <g id="patch_11">
            <path d="M 293.092045 142.735746 
L 314.396732 142.735746 
Q 316.396732 142.735746 316.396732 140.735746 
L 316.396732 131.057621 
Q 316.396732 129.057621 314.396732 129.057621 
L 293.092045 129.057621 
Q 291.092045 129.057621 291.092045 131.057621 
L 291.092045 140.735746 
Q 291.092045 142.735746 293.092045 142.735746 
z
" style="fill: #ffffff; opacity: 0.6"/>
           </g>
           <!-- ANC -->
           <g transform="translate(293.092045 138.656058) scale(0.1 -0.1)">
            <defs>
             <path id="DejaVuSans-4e" d="M 628 4666 
L 1478 4666 
L 3547 763 
L 3547 4666 
L 4159 4666 
L 4159 0 
L 3309 0 
L 1241 3903 
L 1241 0 
L 628 0 
L 628 4666 
z
" transform="scale(0.015625)"/>
            </defs>
            <use xlink:href="#DejaVuSans-41"/>
            <use xlink:href="#DejaVuSans-4e" x="68.408203"/>
            <use xlink:href="#DejaVuSans-43" x="143.212891"/>
           </g>
          </g>
         </g>
        </g>
        <defs>
         <clipPath id="pcc135d3fe1">
          <rect x="63.290625" y="10.8" width="540.309375" height="310.821875"/>
         </clipPath>
        </defs>
       </g>
      </g>
     </g>
    </g>
   </g>
  </g>
 </g>
</svg>
