<?xml version="1.0" encoding="utf-8" standalone="no"?>
<!DOCTYPE svg PUBLIC "-//W3C//DTD SVG 1.1//EN"
  "http://www.w3.org/Graphics/SVG/1.1/DTD/svg11.dtd">
<svg xmlns:xlink="http://www.w3.org/1999/xlink" width="614.4pt" height="345.6pt" viewBox="0 0 614.4 345.6" xmlns="http://www.w3.org/2000/svg" version="1.1">
 <metadata>
  <rdf:RDF xmlns:dc="http://purl.org/dc/elements/1.1/" xmlns:cc="http://creativecommons.org/ns#" xmlns:rdf="http://www.w3.org/1999/02/22-rdf-syntax-ns#">
   <cc:Work>
    <dc:type rdf:resource="http://purl.org/dc/dcmitype/StillImage"/>
    <dc:date>2024-04-17T19:40:24.653874</dc:date>
    <dc:format>image/svg+xml</dc:format>
    <dc:creator>
     <cc:Agent>
      <dc:title>Matplotlib v3.7.1, https://matplotlib.org/</dc:title>
     </cc:Agent>
    </dc:creator>
   </cc:Work>
  </rdf:RDF>
 </metadata>
 <defs>
  <style type="text/css">*{stroke-linejoin: round; stroke-linecap: butt}</style>
 </defs>
 <g id="figure_1">
  <g id="patch_1">
   <path d="M 0 345.6 
L 614.4 345.6 
L 614.4 0 
L 0 0 
z
" style="fill: #ffffff"/>
  </g>
  <g id="axes_1">
   <g id="patch_2">
    <path d="M 63.290625 321.621875 
L 603.6 321.621875 
L 603.6 10.8 
L 63.290625 10.8 
z
" style="fill: #ffffff"/>
   </g>
   <path d="M 535.737666 292.865398 
L 534.737666 292.833962 
L 533.737666 292.797022 
L 532.737666 292.699275 
L 531.737666 292.666753 
L 530.737666 292.593129 
L 529.737666 292.554563 
L 528.737666 292.51915 
L 527.737666 292.46151 
L 526.737666 292.391124 
L 525.737666 292.33916 
L 524.737666 292.28007 
L 523.737666 292.191749 
L 522.737666 292.145605 
L 521.737666 292.103194 
L 520.737666 292.072701 
L 519.737666 292.046656 
L 518.737666 292.025456 
L 517.737666 291.971155 
L 516.737666 291.943217 
L 515.737666 291.913493 
L 514.737666 291.888099 
L 513.737666 291.876898 
L 512.737666 291.866774 
L 511.737666 291.866979 
L 510.737666 291.876488 
L 509.737666 291.888142 
L 508.737666 291.919171 
L 507.737666 291.930339 
L 506.737666 291.960457 
L 505.737666 292.020234 
L 504.737666 292.057425 
L 503.737666 292.096521 
L 502.737666 292.138961 
L 501.737666 292.171726 
L 500.737666 292.239152 
L 499.737666 292.278278 
L 498.737666 292.320953 
L 497.737666 292.391533 
L 496.737666 292.427924 
L 495.737666 292.486328 
L 494.737666 292.59728 
L 493.737666 292.667938 
L 492.737666 292.780878 
L 491.737666 292.826651 
L 490.737666 292.887934 
L 489.737666 292.936434 
L 488.737666 293.017256 
L 487.737666 293.135775 
L 486.737666 293.205986 
L 485.737666 293.289248 
L 484.737666 293.32239 
L 483.737666 293.373627 
L 482.737666 293.442026 
L 481.737666 293.508241 
L 480.737666 293.585158 
L 479.737666 293.612474 
L 478.737666 293.638951 
L 477.737666 293.661602 
L 476.737666 293.681133 
L 475.737666 293.707527 
L 474.737666 293.757298 
L 473.737666 293.792371 
L 472.737666 293.828237 
L 471.737666 293.843604 
L 470.737666 293.859373 
L 469.737666 293.862786 
L 468.737666 293.865204 
L 467.737666 293.864717 
L 466.737666 293.862788 
L 465.737666 293.849531 
L 464.737666 293.841141 
L 463.737666 293.819604 
L 462.737666 293.796572 
L 461.737666 293.779338 
L 460.737666 293.760876 
L 459.737666 293.740423 
L 458.737666 293.723823 
L 457.737666 293.661044 
L 456.002639 293.585779 
" clip-path="url(#p393d10623c)" style="fill: none; stroke-dasharray: 3.7,1.6; stroke-dashoffset: 0; stroke: #2ca02c"/>
   <g id="patch_3">
    <path d="M 291.623707 10.8 
L 291.623707 262.707965 
M 366.778218 10.8 
L 366.778218 262.707965 
" clip-path="url(#p393d10623c)" style="fill: none; stroke: #ffffff; stroke-width: 3; stroke-linejoin: miter"/>
    <path d="M 291.623707 10.8 
L 291.623707 262.707965 
M 366.778218 10.8 
L 366.778218 262.707965 
" clip-path="url(#p393d10623c)" style="fill: none; stroke: #1f77b4; stroke-linejoin: miter"/>
    <g id="PolyCollection_1">
     <path d="M 366.778218 10.8 
L 291.623707 10.8 
L 291.623707 262.707965 
L 366.778218 262.707965 
L 366.778218 262.707965 
L 366.778218 10.8 
z
" clip-path="url(#p393d10623c)" style="fill: #1f77b4; fill-opacity: 0.5"/>
    </g>
    <g id="patch_4">
     <path d="M 152.107833 262.707965 
L 152.107833 297.953083 
L 152.107833 297.953083 
L 151.089259 299.865712 
L 149.806416 301.778342 
L 148.413656 303.451893 
L 146.709401 305.125444 
L 144.948278 306.559916 
L 142.854525 307.994388 
L 140.365316 309.428861 
L 137.40596 310.863333 
L 133.887657 312.297805 
L 129.704839 313.732278 
L 124.731994 315.16675 
L 118.819906 316.601222 
L 111.791179 318.035694 
L 103.434906 319.470167 
L 93.500349 320.904639 
L 87.850142 321.621875 
M 159.959603 262.707965 
L 159.959603 297.953083 
L 159.959603 297.953083 
L 160.978177 299.865712 
L 162.26102 301.778342 
L 163.65378 303.451893 
L 165.358035 305.125444 
L 167.119158 306.559916 
L 169.212911 307.994388 
L 171.70212 309.428861 
L 174.661476 310.863333 
L 178.179779 312.297805 
L 182.362597 313.732278 
L 187.335443 315.16675 
L 193.24753 316.601222 
L 200.276258 318.035694 
L 208.63253 319.470167 
L 218.567087 320.904639 
L 224.217294 321.621875 
L 224.217294 321.621875 
" clip-path="url(#p393d10623c)" style="fill: none; stroke: #ffffff; stroke-width: 3; stroke-linejoin: miter"/>
     <path d="M 152.107833 262.707965 
L 152.107833 297.953083 
L 152.107833 297.953083 
L 151.089259 299.865712 
L 149.806416 301.778342 
L 148.413656 303.451893 
L 146.709401 305.125444 
L 144.948278 306.559916 
L 142.854525 307.994388 
L 140.365316 309.428861 
L 137.40596 310.863333 
L 133.887657 312.297805 
L 129.704839 313.732278 
L 124.731994 315.16675 
L 118.819906 316.601222 
L 111.791179 318.035694 
L 103.434906 319.470167 
L 93.500349 320.904639 
L 87.850142 321.621875 
M 159.959603 262.707965 
L 159.959603 297.953083 
L 159.959603 297.953083 
L 160.978177 299.865712 
L 162.26102 301.778342 
L 163.65378 303.451893 
L 165.358035 305.125444 
L 167.119158 306.559916 
L 169.212911 307.994388 
L 171.70212 309.428861 
L 174.661476 310.863333 
L 178.179779 312.297805 
L 182.362597 313.732278 
L 187.335443 315.16675 
L 193.24753 316.601222 
L 200.276258 318.035694 
L 208.63253 319.470167 
L 218.567087 320.904639 
L 224.217294 321.621875 
L 224.217294 321.621875 
" clip-path="url(#p393d10623c)" style="fill: none; stroke: #ff7f0e; stroke-linejoin: miter"/>
     <g id="PolyCollection_2">
      <path d="M 159.959603 262.707965 
L 152.107833 262.707965 
L 152.107833 297.953083 
L 152.107833 297.953083 
L 151.992984 298.192161 
L 151.874776 298.43124 
L 151.753109 298.670319 
L 151.627884 298.909397 
L 151.498995 299.148476 
L 151.366335 299.387555 
L 151.229794 299.626634 
L 151.089259 299.865712 
L 150.944613 300.104791 
L 150.795735 300.34387 
L 150.642502 300.582948 
L 150.484787 300.822027 
L 150.322457 301.061106 
L 150.155379 301.300185 
L 149.983413 301.539263 
L 149.806416 301.778342 
L 149.624241 302.017421 
L 149.436737 302.256499 
L 149.243747 302.495578 
L 149.045112 302.734657 
L 148.840666 302.973736 
L 148.630239 303.212814 
L 148.413656 303.451893 
L 148.190738 303.690972 
L 147.961297 303.93005 
L 147.725145 304.169129 
L 147.482085 304.408208 
L 147.231913 304.647287 
L 146.974424 304.886365 
L 146.709401 305.125444 
L 146.436626 305.364523 
L 146.15587 305.603601 
L 145.866902 305.84268 
L 145.56948 306.081759 
L 145.263357 306.320838 
L 144.948278 306.559916 
L 144.623983 306.798995 
L 144.2902 307.038074 
L 143.946653 307.277152 
L 143.593055 307.516231 
L 143.229114 307.75531 
L 142.854525 307.994388 
L 142.468979 308.233467 
L 142.072153 308.472546 
L 141.663718 308.711625 
L 141.243336 308.950703 
L 140.810655 309.189782 
L 140.365316 309.428861 
L 139.90695 309.667939 
L 139.435174 309.907018 
L 138.949597 310.146097 
L 138.449814 310.385176 
L 137.935411 310.624254 
L 137.40596 310.863333 
L 136.86102 311.102412 
L 136.300138 311.34149 
L 135.722848 311.580569 
L 135.128669 311.819648 
L 134.517109 312.058727 
L 133.887657 312.297805 
L 133.239792 312.536884 
L 132.572974 312.775963 
L 131.886649 313.015041 
L 131.180246 313.25412 
L 130.453177 313.493199 
L 129.704839 313.732278 
L 128.934608 313.971356 
L 128.141846 314.210435 
L 127.325891 314.449514 
L 126.486067 314.688592 
L 125.621674 314.927671 
L 124.731994 315.16675 
L 123.816287 315.405829 
L 122.873791 315.644907 
L 121.903724 315.883986 
L 120.905278 316.123065 
L 119.877624 316.362143 
L 118.819906 316.601222 
L 117.731246 316.840301 
L 116.610738 317.079379 
L 115.45745 317.318458 
L 114.270424 317.557537 
L 113.048672 317.796616 
L 111.791179 318.035694 
L 110.496898 318.274773 
L 109.164755 318.513852 
L 107.793641 318.75293 
L 106.382416 318.992009 
L 104.929907 319.231088 
L 103.434906 319.470167 
L 101.896169 319.709245 
L 100.312419 319.948324 
L 98.682337 320.187403 
L 97.004568 320.426481 
L 95.277717 320.66556 
L 93.500349 320.904639 
L 91.670985 321.143718 
L 89.788105 321.382796 
L 87.850142 321.621875 
L 224.217294 321.621875 
L 224.217294 321.621875 
L 222.279332 321.382796 
L 220.396451 321.143718 
L 218.567087 320.904639 
L 216.789719 320.66556 
L 215.062868 320.426481 
L 213.3851 320.187403 
L 211.755017 319.948324 
L 210.171267 319.709245 
L 208.63253 319.470167 
L 207.137529 319.231088 
L 205.68502 318.992009 
L 204.273795 318.75293 
L 202.902681 318.513852 
L 201.570538 318.274773 
L 200.276258 318.035694 
L 199.018764 317.796616 
L 197.797013 317.557537 
L 196.609986 317.318458 
L 195.456698 317.079379 
L 194.33619 316.840301 
L 193.24753 316.601222 
L 192.189812 316.362143 
L 191.162158 316.123065 
L 190.163712 315.883986 
L 189.193645 315.644907 
L 188.25115 315.405829 
L 187.335443 315.16675 
L 186.445763 314.927671 
L 185.58137 314.688592 
L 184.741545 314.449514 
L 183.925591 314.210435 
L 183.132828 313.971356 
L 182.362597 313.732278 
L 181.614259 313.493199 
L 180.887191 313.25412 
L 180.180787 313.015041 
L 179.494462 312.775963 
L 178.827644 312.536884 
L 178.179779 312.297805 
L 177.550327 312.058727 
L 176.938767 311.819648 
L 176.344589 311.580569 
L 175.767298 311.34149 
L 175.206416 311.102412 
L 174.661476 310.863333 
L 174.132025 310.624254 
L 173.617622 310.385176 
L 173.117839 310.146097 
L 172.632262 309.907018 
L 172.160487 309.667939 
L 171.70212 309.428861 
L 171.256781 309.189782 
L 170.824101 308.950703 
L 170.403718 308.711625 
L 169.995283 308.472546 
L 169.598458 308.233467 
L 169.212911 307.994388 
L 168.838322 307.75531 
L 168.474381 307.516231 
L 168.120783 307.277152 
L 167.777236 307.038074 
L 167.443453 306.798995 
L 167.119158 306.559916 
L 166.804079 306.320838 
L 166.497956 306.081759 
L 166.200534 305.84268 
L 165.911566 305.603601 
L 165.63081 305.364523 
L 165.358035 305.125444 
L 165.093013 304.886365 
L 164.835523 304.647287 
L 164.585352 304.408208 
L 164.342291 304.169129 
L 164.106139 303.93005 
L 163.876699 303.690972 
L 163.65378 303.451893 
L 163.437197 303.212814 
L 163.22677 302.973736 
L 163.022324 302.734657 
L 162.823689 302.495578 
L 162.630699 302.256499 
L 162.443195 302.017421 
L 162.26102 301.778342 
L 162.084024 301.539263 
L 161.912057 301.300185 
L 161.744979 301.061106 
L 161.582649 300.822027 
L 161.424934 300.582948 
L 161.271701 300.34387 
L 161.122823 300.104791 
L 160.978177 299.865712 
L 160.837642 299.626634 
L 160.701101 299.387555 
L 160.568442 299.148476 
L 160.439552 298.909397 
L 160.314327 298.670319 
L 160.19266 298.43124 
L 160.074452 298.192161 
L 159.959603 297.953083 
L 159.959603 297.953083 
L 159.959603 262.707965 
z
" clip-path="url(#p393d10623c)" style="fill: #ff7f0e; fill-opacity: 0.5"/>
     </g>
     <g id="patch_5">
      <path d="M 541.14076 72.964375 
L 541.14076 321.621875 
M 579.040483 72.964375 
L 579.040483 321.621875 
" clip-path="url(#p393d10623c)" style="fill: none; stroke: #ffffff; stroke-width: 3; stroke-linejoin: miter"/>
      <path d="M 541.14076 72.964375 
L 541.14076 321.621875 
M 579.040483 72.964375 
L 579.040483 321.621875 
" clip-path="url(#p393d10623c)" style="fill: none; stroke: #2ca02c; stroke-linejoin: miter"/>
      <g id="PolyCollection_3">
       <path d="M 579.040483 72.964375 
L 541.14076 72.964375 
L 541.14076 321.621875 
L 579.040483 321.621875 
L 579.040483 321.621875 
L 579.040483 72.964375 
z
" clip-path="url(#p393d10623c)" style="fill: #2ca02c; fill-opacity: 0.5"/>
      </g>
      <g id="patch_6">
       <path d="M 438.692038 262.707965 
L 438.692038 272.563817 
L 442.890614 272.563817 
L 442.890614 274.161399 
L 438.692038 274.161399 
L 438.599971 317.383504 
L 437.093326 318.650645 
L 435.28333 319.874093 
L 433.128267 321.053846 
L 431.920211 321.621875 
M 450.599546 262.707965 
L 450.599546 272.563817 
L 446.40097 272.563817 
L 446.40097 274.161399 
L 450.599546 274.161399 
L 450.691612 317.383504 
L 452.198257 318.650645 
L 454.008253 319.874093 
L 456.163317 321.053846 
L 457.371373 321.621875 
L 457.371373 321.621875 
" clip-path="url(#p393d10623c)" style="fill: none; stroke: #ffffff; stroke-width: 3; stroke-linejoin: miter"/>
       <path d="M 438.692038 262.707965 
L 438.692038 272.563817 
L 442.890614 272.563817 
L 442.890614 274.161399 
L 438.692038 274.161399 
L 438.599971 317.383504 
L 437.093326 318.650645 
L 435.28333 319.874093 
L 433.128267 321.053846 
L 431.920211 321.621875 
M 450.599546 262.707965 
L 450.599546 272.563817 
L 446.40097 272.563817 
L 446.40097 274.161399 
L 450.599546 274.161399 
L 450.691612 317.383504 
L 452.198257 318.650645 
L 454.008253 319.874093 
L 456.163317 321.053846 
L 457.371373 321.621875 
L 457.371373 321.621875 
" clip-path="url(#p393d10623c)" style="fill: none; stroke: #d62728; stroke-linejoin: miter"/>
       <g id="PolyCollection_4">
        <path d="M 450.599546 262.707965 
L 438.692038 262.707965 
L 438.692038 272.563817 
L 442.890614 272.563817 
L 442.890614 274.161399 
L 438.692038 274.161399 
L 438.692038 317.296114 
L 438.692038 317.296114 
L 438.646181 317.339809 
L 438.599971 317.383504 
L 438.553405 317.427198 
L 438.506481 317.470893 
L 438.459195 317.514587 
L 438.411545 317.558282 
L 438.363527 317.601976 
L 438.31514 317.645671 
L 438.266381 317.689365 
L 438.217246 317.73306 
L 438.167732 317.776754 
L 438.117837 317.820449 
L 438.067557 317.864144 
L 438.016891 317.907838 
L 437.965834 317.951533 
L 437.914384 317.995227 
L 437.862538 318.038922 
L 437.810292 318.082616 
L 437.757644 318.126311 
L 437.70459 318.170005 
L 437.651128 318.2137 
L 437.597254 318.257395 
L 437.542965 318.301089 
L 437.488258 318.344784 
L 437.433129 318.388478 
L 437.377576 318.432173 
L 437.321595 318.475867 
L 437.265183 318.519562 
L 437.208336 318.563256 
L 437.151052 318.606951 
L 437.093326 318.650645 
L 437.035156 318.69434 
L 436.976538 318.738035 
L 436.917468 318.781729 
L 436.857943 318.825424 
L 436.79796 318.869118 
L 436.737515 318.912813 
L 436.676604 318.956507 
L 436.615224 319.000202 
L 436.553371 319.043896 
L 436.491042 319.087591 
L 436.428233 319.131286 
L 436.36494 319.17498 
L 436.301159 319.218675 
L 436.236888 319.262369 
L 436.172121 319.306064 
L 436.106855 319.349758 
L 436.041087 319.393453 
L 435.974812 319.437147 
L 435.908027 319.480842 
L 435.840727 319.524537 
L 435.772909 319.568231 
L 435.704569 319.611926 
L 435.635702 319.65562 
L 435.566305 319.699315 
L 435.496374 319.743009 
L 435.425903 319.786704 
L 435.35489 319.830398 
L 435.28333 319.874093 
L 435.211219 319.917787 
L 435.138552 319.961482 
L 435.065326 320.005177 
L 434.991536 320.048871 
L 434.917177 320.092566 
L 434.842246 320.13626 
L 434.766738 320.179955 
L 434.690647 320.223649 
L 434.613971 320.267344 
L 434.536705 320.311038 
L 434.458843 320.354733 
L 434.380381 320.398428 
L 434.301316 320.442122 
L 434.221641 320.485817 
L 434.141352 320.529511 
L 434.060445 320.573206 
L 433.978915 320.6169 
L 433.896757 320.660595 
L 433.813967 320.704289 
L 433.730538 320.747984 
L 433.646467 320.791679 
L 433.561749 320.835373 
L 433.476378 320.879068 
L 433.390349 320.922762 
L 433.303658 320.966457 
L 433.216299 321.010151 
L 433.128267 321.053846 
L 433.039557 321.09754 
L 432.950164 321.141235 
L 432.860083 321.184929 
L 432.769307 321.228624 
L 432.677833 321.272319 
L 432.585653 321.316013 
L 432.492764 321.359708 
L 432.39916 321.403402 
L 432.304834 321.447097 
L 432.209782 321.490791 
L 432.113998 321.534486 
L 432.017476 321.57818 
L 431.920211 321.621875 
L 457.371373 321.621875 
L 457.371373 321.621875 
L 457.274107 321.57818 
L 457.177586 321.534486 
L 457.081801 321.490791 
L 456.986749 321.447097 
L 456.892424 321.403402 
L 456.798819 321.359708 
L 456.70593 321.316013 
L 456.613751 321.272319 
L 456.522277 321.228624 
L 456.431501 321.184929 
L 456.34142 321.141235 
L 456.252026 321.09754 
L 456.163317 321.053846 
L 456.075285 321.010151 
L 455.987926 320.966457 
L 455.901235 320.922762 
L 455.815206 320.879068 
L 455.729835 320.835373 
L 455.645116 320.791679 
L 455.561045 320.747984 
L 455.477617 320.704289 
L 455.394826 320.660595 
L 455.312668 320.6169 
L 455.231138 320.573206 
L 455.150231 320.529511 
L 455.069943 320.485817 
L 454.990268 320.442122 
L 454.911202 320.398428 
L 454.832741 320.354733 
L 454.754879 320.311038 
L 454.677612 320.267344 
L 454.600936 320.223649 
L 454.524846 320.179955 
L 454.449338 320.13626 
L 454.374406 320.092566 
L 454.300048 320.048871 
L 454.226257 320.005177 
L 454.153031 319.961482 
L 454.080365 319.917787 
L 454.008253 319.874093 
L 453.936693 319.830398 
L 453.86568 319.786704 
L 453.79521 319.743009 
L 453.725278 319.699315 
L 453.655881 319.65562 
L 453.587014 319.611926 
L 453.518674 319.568231 
L 453.450856 319.524537 
L 453.383556 319.480842 
L 453.316771 319.437147 
L 453.250496 319.393453 
L 453.184728 319.349758 
L 453.119463 319.306064 
L 453.054696 319.262369 
L 452.990424 319.218675 
L 452.926644 319.17498 
L 452.863351 319.131286 
L 452.800542 319.087591 
L 452.738212 319.043896 
L 452.67636 319.000202 
L 452.61498 318.956507 
L 452.554069 318.912813 
L 452.493624 318.869118 
L 452.43364 318.825424 
L 452.374116 318.781729 
L 452.315046 318.738035 
L 452.256428 318.69434 
L 452.198257 318.650645 
L 452.140532 318.606951 
L 452.083247 318.563256 
L 452.0264 318.519562 
L 451.969988 318.475867 
L 451.914007 318.432173 
L 451.858454 318.388478 
L 451.803326 318.344784 
L 451.748619 318.301089 
L 451.69433 318.257395 
L 451.640456 318.2137 
L 451.586994 318.170005 
L 451.53394 318.126311 
L 451.481292 318.082616 
L 451.429046 318.038922 
L 451.3772 317.995227 
L 451.32575 317.951533 
L 451.274693 317.907838 
L 451.224026 317.864144 
L 451.173747 317.820449 
L 451.123852 317.776754 
L 451.074338 317.73306 
L 451.025203 317.689365 
L 450.976443 317.645671 
L 450.928056 317.601976 
L 450.880039 317.558282 
L 450.832389 317.514587 
L 450.785103 317.470893 
L 450.738178 317.427198 
L 450.691612 317.383504 
L 450.645402 317.339809 
L 450.599546 317.296114 
L 450.599546 317.296114 
L 450.599546 274.161399 
L 446.40097 274.161399 
L 446.40097 272.563817 
L 450.599546 272.563817 
L 450.599546 262.707965 
z
" clip-path="url(#p393d10623c)" style="fill: #d62728; fill-opacity: 0.5"/>
       </g>
       <g id="matplotlib.axis_1">
        <g id="xtick_1">
         <g id="line2d_1"/>
         <g id="text_1">
          <!-- OUT -->
          <g transform="translate(145.384499 332.720312) scale(0.1 -0.1)">
           <defs>
            <path id="DejaVuSans-4f" d="M 2522 4238 
Q 1834 4238 1429 3725 
Q 1025 3213 1025 2328 
Q 1025 1447 1429 934 
Q 1834 422 2522 422 
Q 3209 422 3611 934 
Q 4013 1447 4013 2328 
Q 4013 3213 3611 3725 
Q 3209 4238 2522 4238 
z
M 2522 4750 
Q 3503 4750 4090 4092 
Q 4678 3434 4678 2328 
Q 4678 1225 4090 567 
Q 3503 -91 2522 -91 
Q 1538 -91 948 565 
Q 359 1222 359 2328 
Q 359 3434 948 4092 
Q 1538 4750 2522 4750 
z
" transform="scale(0.015625)"/>
            <path id="DejaVuSans-55" d="M 556 4666 
L 1191 4666 
L 1191 1831 
Q 1191 1081 1462 751 
Q 1734 422 2344 422 
Q 2950 422 3222 751 
Q 3494 1081 3494 1831 
L 3494 4666 
L 4128 4666 
L 4128 1753 
Q 4128 841 3676 375 
Q 3225 -91 2344 -91 
Q 1459 -91 1007 375 
Q 556 841 556 1753 
L 556 4666 
z
" transform="scale(0.015625)"/>
            <path id="DejaVuSans-54" d="M -19 4666 
L 3928 4666 
L 3928 4134 
L 2272 4134 
L 2272 0 
L 1638 0 
L 1638 4134 
L -19 4134 
L -19 4666 
z
" transform="scale(0.015625)"/>
           </defs>
           <use xlink:href="#DejaVuSans-4f"/>
           <use xlink:href="#DejaVuSans-55" x="78.710938"/>
           <use xlink:href="#DejaVuSans-54" x="151.904297"/>
          </g>
         </g>
        </g>
        <g id="xtick_2">
         <g id="line2d_2"/>
         <g id="text_2">
          <!-- SRC -->
          <g transform="translate(550.200778 332.720312) scale(0.1 -0.1)">
           <defs>
            <path id="DejaVuSans-53" d="M 3425 4513 
L 3425 3897 
Q 3066 4069 2747 4153 
Q 2428 4238 2131 4238 
Q 1616 4238 1336 4038 
Q 1056 3838 1056 3469 
Q 1056 3159 1242 3001 
Q 1428 2844 1947 2747 
L 2328 2669 
Q 3034 2534 3370 2195 
Q 3706 1856 3706 1288 
Q 3706 609 3251 259 
Q 2797 -91 1919 -91 
Q 1588 -91 1214 -16 
Q 841 59 441 206 
L 441 856 
Q 825 641 1194 531 
Q 1563 422 1919 422 
Q 2459 422 2753 634 
Q 3047 847 3047 1241 
Q 3047 1584 2836 1778 
Q 2625 1972 2144 2069 
L 1759 2144 
Q 1053 2284 737 2584 
Q 422 2884 422 3419 
Q 422 4038 858 4394 
Q 1294 4750 2059 4750 
Q 2388 4750 2728 4690 
Q 3069 4631 3425 4513 
z
" transform="scale(0.015625)"/>
            <path id="DejaVuSans-52" d="M 2841 2188 
Q 3044 2119 3236 1894 
Q 3428 1669 3622 1275 
L 4263 0 
L 3584 0 
L 2988 1197 
Q 2756 1666 2539 1819 
Q 2322 1972 1947 1972 
L 1259 1972 
L 1259 0 
L 628 0 
L 628 4666 
L 2053 4666 
Q 2853 4666 3247 4331 
Q 3641 3997 3641 3322 
Q 3641 2881 3436 2590 
Q 3231 2300 2841 2188 
z
M 1259 4147 
L 1259 2491 
L 2053 2491 
Q 2509 2491 2742 2702 
Q 2975 2913 2975 3322 
Q 2975 3731 2742 3939 
Q 2509 4147 2053 4147 
L 1259 4147 
z
" transform="scale(0.015625)"/>
            <path id="DejaVuSans-43" d="M 4122 4306 
L 4122 3641 
Q 3803 3938 3442 4084 
Q 3081 4231 2675 4231 
Q 1875 4231 1450 3742 
Q 1025 3253 1025 2328 
Q 1025 1406 1450 917 
Q 1875 428 2675 428 
Q 3081 428 3442 575 
Q 3803 722 4122 1019 
L 4122 359 
Q 3791 134 3420 21 
Q 3050 -91 2638 -91 
Q 1578 -91 968 557 
Q 359 1206 359 2328 
Q 359 3453 968 4101 
Q 1578 4750 2638 4750 
Q 3056 4750 3426 4639 
Q 3797 4528 4122 4306 
z
" transform="scale(0.015625)"/>
           </defs>
           <use xlink:href="#DejaVuSans-53"/>
           <use xlink:href="#DejaVuSans-52" x="63.476562"/>
           <use xlink:href="#DejaVuSans-43" x="127.958984"/>
          </g>
         </g>
        </g>
        <g id="xtick_3">
         <g id="line2d_3"/>
         <g id="text_3">
          <!-- TAR -->
          <g transform="translate(435.084854 332.720312) scale(0.1 -0.1)">
           <defs>
            <path id="DejaVuSans-41" d="M 2188 4044 
L 1331 1722 
L 3047 1722 
L 2188 4044 
z
M 1831 4666 
L 2547 4666 
L 4325 0 
L 3669 0 
L 3244 1197 
L 1141 1197 
L 716 0 
L 50 0 
L 1831 4666 
z
" transform="scale(0.015625)"/>
           </defs>
           <use xlink:href="#DejaVuSans-54"/>
           <use xlink:href="#DejaVuSans-41" x="53.333984"/>
           <use xlink:href="#DejaVuSans-52" x="121.742188"/>
          </g>
         </g>
        </g>
       </g>
       <g id="matplotlib.axis_2">
        <g id="ytick_1">
         <g id="line2d_4">
          <defs>
           <path id="md75ac543d2" d="M 0 0 
L -3.5 0 
" style="stroke: #000000; stroke-width: 0.8"/>
          </defs>
          <g>
           <use xlink:href="#md75ac543d2" x="63.290625" y="321.621875" style="stroke: #000000; stroke-width: 0.8"/>
          </g>
         </g>
         <g id="text_4">
          <!-- 0 -->
          <g transform="translate(49.928125 325.421094) scale(0.1 -0.1)">
           <defs>
            <path id="DejaVuSans-30" d="M 2034 4250 
Q 1547 4250 1301 3770 
Q 1056 3291 1056 2328 
Q 1056 1369 1301 889 
Q 1547 409 2034 409 
Q 2525 409 2770 889 
Q 3016 1369 3016 2328 
Q 3016 3291 2770 3770 
Q 2525 4250 2034 4250 
z
M 2034 4750 
Q 2819 4750 3233 4129 
Q 3647 3509 3647 2328 
Q 3647 1150 3233 529 
Q 2819 -91 2034 -91 
Q 1250 -91 836 529 
Q 422 1150 422 2328 
Q 422 3509 836 4129 
Q 1250 4750 2034 4750 
z
" transform="scale(0.015625)"/>
           </defs>
           <use xlink:href="#DejaVuSans-30"/>
          </g>
         </g>
        </g>
        <g id="ytick_2">
         <g id="line2d_5">
          <g>
           <use xlink:href="#md75ac543d2" x="63.290625" y="272.465505" style="stroke: #000000; stroke-width: 0.8"/>
          </g>
         </g>
         <g id="text_5">
          <!-- 2000 -->
          <g transform="translate(30.840625 276.264723) scale(0.1 -0.1)">
           <defs>
            <path id="DejaVuSans-32" d="M 1228 531 
L 3431 531 
L 3431 0 
L 469 0 
L 469 531 
Q 828 903 1448 1529 
Q 2069 2156 2228 2338 
Q 2531 2678 2651 2914 
Q 2772 3150 2772 3378 
Q 2772 3750 2511 3984 
Q 2250 4219 1831 4219 
Q 1534 4219 1204 4116 
Q 875 4013 500 3803 
L 500 4441 
Q 881 4594 1212 4672 
Q 1544 4750 1819 4750 
Q 2544 4750 2975 4387 
Q 3406 4025 3406 3419 
Q 3406 3131 3298 2873 
Q 3191 2616 2906 2266 
Q 2828 2175 2409 1742 
Q 1991 1309 1228 531 
z
" transform="scale(0.015625)"/>
           </defs>
           <use xlink:href="#DejaVuSans-32"/>
           <use xlink:href="#DejaVuSans-30" x="63.623047"/>
           <use xlink:href="#DejaVuSans-30" x="127.246094"/>
           <use xlink:href="#DejaVuSans-30" x="190.869141"/>
          </g>
         </g>
        </g>
        <g id="ytick_3">
         <g id="line2d_6">
          <g>
           <use xlink:href="#md75ac543d2" x="63.290625" y="223.309134" style="stroke: #000000; stroke-width: 0.8"/>
          </g>
         </g>
         <g id="text_6">
          <!-- 4000 -->
          <g transform="translate(30.840625 227.108353) scale(0.1 -0.1)">
           <defs>
            <path id="DejaVuSans-34" d="M 2419 4116 
L 825 1625 
L 2419 1625 
L 2419 4116 
z
M 2253 4666 
L 3047 4666 
L 3047 1625 
L 3713 1625 
L 3713 1100 
L 3047 1100 
L 3047 0 
L 2419 0 
L 2419 1100 
L 313 1100 
L 313 1709 
L 2253 4666 
z
" transform="scale(0.015625)"/>
           </defs>
           <use xlink:href="#DejaVuSans-34"/>
           <use xlink:href="#DejaVuSans-30" x="63.623047"/>
           <use xlink:href="#DejaVuSans-30" x="127.246094"/>
           <use xlink:href="#DejaVuSans-30" x="190.869141"/>
          </g>
         </g>
        </g>
        <g id="ytick_4">
         <g id="line2d_7">
          <g>
           <use xlink:href="#md75ac543d2" x="63.290625" y="174.152764" style="stroke: #000000; stroke-width: 0.8"/>
          </g>
         </g>
         <g id="text_7">
          <!-- 6000 -->
          <g transform="translate(30.840625 177.951982) scale(0.1 -0.1)">
           <defs>
            <path id="DejaVuSans-36" d="M 2113 2584 
Q 1688 2584 1439 2293 
Q 1191 2003 1191 1497 
Q 1191 994 1439 701 
Q 1688 409 2113 409 
Q 2538 409 2786 701 
Q 3034 994 3034 1497 
Q 3034 2003 2786 2293 
Q 2538 2584 2113 2584 
z
M 3366 4563 
L 3366 3988 
Q 3128 4100 2886 4159 
Q 2644 4219 2406 4219 
Q 1781 4219 1451 3797 
Q 1122 3375 1075 2522 
Q 1259 2794 1537 2939 
Q 1816 3084 2150 3084 
Q 2853 3084 3261 2657 
Q 3669 2231 3669 1497 
Q 3669 778 3244 343 
Q 2819 -91 2113 -91 
Q 1303 -91 875 529 
Q 447 1150 447 2328 
Q 447 3434 972 4092 
Q 1497 4750 2381 4750 
Q 2619 4750 2861 4703 
Q 3103 4656 3366 4563 
z
" transform="scale(0.015625)"/>
           </defs>
           <use xlink:href="#DejaVuSans-36"/>
           <use xlink:href="#DejaVuSans-30" x="63.623047"/>
           <use xlink:href="#DejaVuSans-30" x="127.246094"/>
           <use xlink:href="#DejaVuSans-30" x="190.869141"/>
          </g>
         </g>
        </g>
        <g id="ytick_5">
         <g id="line2d_8">
          <g>
           <use xlink:href="#md75ac543d2" x="63.290625" y="124.996393" style="stroke: #000000; stroke-width: 0.8"/>
          </g>
         </g>
         <g id="text_8">
          <!-- 8000 -->
          <g transform="translate(30.840625 128.795612) scale(0.1 -0.1)">
           <defs>
            <path id="DejaVuSans-38" d="M 2034 2216 
Q 1584 2216 1326 1975 
Q 1069 1734 1069 1313 
Q 1069 891 1326 650 
Q 1584 409 2034 409 
Q 2484 409 2743 651 
Q 3003 894 3003 1313 
Q 3003 1734 2745 1975 
Q 2488 2216 2034 2216 
z
M 1403 2484 
Q 997 2584 770 2862 
Q 544 3141 544 3541 
Q 544 4100 942 4425 
Q 1341 4750 2034 4750 
Q 2731 4750 3128 4425 
Q 3525 4100 3525 3541 
Q 3525 3141 3298 2862 
Q 3072 2584 2669 2484 
Q 3125 2378 3379 2068 
Q 3634 1759 3634 1313 
Q 3634 634 3220 271 
Q 2806 -91 2034 -91 
Q 1263 -91 848 271 
Q 434 634 434 1313 
Q 434 1759 690 2068 
Q 947 2378 1403 2484 
z
M 1172 3481 
Q 1172 3119 1398 2916 
Q 1625 2713 2034 2713 
Q 2441 2713 2670 2916 
Q 2900 3119 2900 3481 
Q 2900 3844 2670 4047 
Q 2441 4250 2034 4250 
Q 1625 4250 1398 4047 
Q 1172 3844 1172 3481 
z
" transform="scale(0.015625)"/>
           </defs>
           <use xlink:href="#DejaVuSans-38"/>
           <use xlink:href="#DejaVuSans-30" x="63.623047"/>
           <use xlink:href="#DejaVuSans-30" x="127.246094"/>
           <use xlink:href="#DejaVuSans-30" x="190.869141"/>
          </g>
         </g>
        </g>
        <g id="ytick_6">
         <g id="line2d_9">
          <g>
           <use xlink:href="#md75ac543d2" x="63.290625" y="75.840023" style="stroke: #000000; stroke-width: 0.8"/>
          </g>
         </g>
         <g id="text_9">
          <!-- 10000 -->
          <g transform="translate(24.478125 79.639241) scale(0.1 -0.1)">
           <defs>
            <path id="DejaVuSans-31" d="M 794 531 
L 1825 531 
L 1825 4091 
L 703 3866 
L 703 4441 
L 1819 4666 
L 2450 4666 
L 2450 531 
L 3481 531 
L 3481 0 
L 794 0 
L 794 531 
z
" transform="scale(0.015625)"/>
           </defs>
           <use xlink:href="#DejaVuSans-31"/>
           <use xlink:href="#DejaVuSans-30" x="63.623047"/>
           <use xlink:href="#DejaVuSans-30" x="127.246094"/>
           <use xlink:href="#DejaVuSans-30" x="190.869141"/>
           <use xlink:href="#DejaVuSans-30" x="254.492188"/>
          </g>
         </g>
        </g>
        <g id="ytick_7">
         <g id="line2d_10">
          <g>
           <use xlink:href="#md75ac543d2" x="63.290625" y="26.683652" style="stroke: #000000; stroke-width: 0.8"/>
          </g>
         </g>
         <g id="text_10">
          <!-- 12000 -->
          <g transform="translate(24.478125 30.482871) scale(0.1 -0.1)">
           <use xlink:href="#DejaVuSans-31"/>
           <use xlink:href="#DejaVuSans-32" x="63.623047"/>
           <use xlink:href="#DejaVuSans-30" x="127.246094"/>
           <use xlink:href="#DejaVuSans-30" x="190.869141"/>
           <use xlink:href="#DejaVuSans-30" x="254.492188"/>
          </g>
         </g>
        </g>
        <g id="text_11">
         <!-- time ago (generations) -->
         <g transform="translate(18.398438 223.682031) rotate(-90) scale(0.1 -0.1)">
          <defs>
           <path id="DejaVuSans-74" d="M 1172 4494 
L 1172 3500 
L 2356 3500 
L 2356 3053 
L 1172 3053 
L 1172 1153 
Q 1172 725 1289 603 
Q 1406 481 1766 481 
L 2356 481 
L 2356 0 
L 1766 0 
Q 1100 0 847 248 
Q 594 497 594 1153 
L 594 3053 
L 172 3053 
L 172 3500 
L 594 3500 
L 594 4494 
L 1172 4494 
z
" transform="scale(0.015625)"/>
           <path id="DejaVuSans-69" d="M 603 3500 
L 1178 3500 
L 1178 0 
L 603 0 
L 603 3500 
z
M 603 4863 
L 1178 4863 
L 1178 4134 
L 603 4134 
L 603 4863 
z
" transform="scale(0.015625)"/>
           <path id="DejaVuSans-6d" d="M 3328 2828 
Q 3544 3216 3844 3400 
Q 4144 3584 4550 3584 
Q 5097 3584 5394 3201 
Q 5691 2819 5691 2113 
L 5691 0 
L 5113 0 
L 5113 2094 
Q 5113 2597 4934 2840 
Q 4756 3084 4391 3084 
Q 3944 3084 3684 2787 
Q 3425 2491 3425 1978 
L 3425 0 
L 2847 0 
L 2847 2094 
Q 2847 2600 2669 2842 
Q 2491 3084 2119 3084 
Q 1678 3084 1418 2786 
Q 1159 2488 1159 1978 
L 1159 0 
L 581 0 
L 581 3500 
L 1159 3500 
L 1159 2956 
Q 1356 3278 1631 3431 
Q 1906 3584 2284 3584 
Q 2666 3584 2933 3390 
Q 3200 3197 3328 2828 
z
" transform="scale(0.015625)"/>
           <path id="DejaVuSans-65" d="M 3597 1894 
L 3597 1613 
L 953 1613 
Q 991 1019 1311 708 
Q 1631 397 2203 397 
Q 2534 397 2845 478 
Q 3156 559 3463 722 
L 3463 178 
Q 3153 47 2828 -22 
Q 2503 -91 2169 -91 
Q 1331 -91 842 396 
Q 353 884 353 1716 
Q 353 2575 817 3079 
Q 1281 3584 2069 3584 
Q 2775 3584 3186 3129 
Q 3597 2675 3597 1894 
z
M 3022 2063 
Q 3016 2534 2758 2815 
Q 2500 3097 2075 3097 
Q 1594 3097 1305 2825 
Q 1016 2553 972 2059 
L 3022 2063 
z
" transform="scale(0.015625)"/>
           <path id="DejaVuSans-20" transform="scale(0.015625)"/>
           <path id="DejaVuSans-61" d="M 2194 1759 
Q 1497 1759 1228 1600 
Q 959 1441 959 1056 
Q 959 750 1161 570 
Q 1363 391 1709 391 
Q 2188 391 2477 730 
Q 2766 1069 2766 1631 
L 2766 1759 
L 2194 1759 
z
M 3341 1997 
L 3341 0 
L 2766 0 
L 2766 531 
Q 2569 213 2275 61 
Q 1981 -91 1556 -91 
Q 1019 -91 701 211 
Q 384 513 384 1019 
Q 384 1609 779 1909 
Q 1175 2209 1959 2209 
L 2766 2209 
L 2766 2266 
Q 2766 2663 2505 2880 
Q 2244 3097 1772 3097 
Q 1472 3097 1187 3025 
Q 903 2953 641 2809 
L 641 3341 
Q 956 3463 1253 3523 
Q 1550 3584 1831 3584 
Q 2591 3584 2966 3190 
Q 3341 2797 3341 1997 
z
" transform="scale(0.015625)"/>
           <path id="DejaVuSans-67" d="M 2906 1791 
Q 2906 2416 2648 2759 
Q 2391 3103 1925 3103 
Q 1463 3103 1205 2759 
Q 947 2416 947 1791 
Q 947 1169 1205 825 
Q 1463 481 1925 481 
Q 2391 481 2648 825 
Q 2906 1169 2906 1791 
z
M 3481 434 
Q 3481 -459 3084 -895 
Q 2688 -1331 1869 -1331 
Q 1566 -1331 1297 -1286 
Q 1028 -1241 775 -1147 
L 775 -588 
Q 1028 -725 1275 -790 
Q 1522 -856 1778 -856 
Q 2344 -856 2625 -561 
Q 2906 -266 2906 331 
L 2906 616 
Q 2728 306 2450 153 
Q 2172 0 1784 0 
Q 1141 0 747 490 
Q 353 981 353 1791 
Q 353 2603 747 3093 
Q 1141 3584 1784 3584 
Q 2172 3584 2450 3431 
Q 2728 3278 2906 2969 
L 2906 3500 
L 3481 3500 
L 3481 434 
z
" transform="scale(0.015625)"/>
           <path id="DejaVuSans-6f" d="M 1959 3097 
Q 1497 3097 1228 2736 
Q 959 2375 959 1747 
Q 959 1119 1226 758 
Q 1494 397 1959 397 
Q 2419 397 2687 759 
Q 2956 1122 2956 1747 
Q 2956 2369 2687 2733 
Q 2419 3097 1959 3097 
z
M 1959 3584 
Q 2709 3584 3137 3096 
Q 3566 2609 3566 1747 
Q 3566 888 3137 398 
Q 2709 -91 1959 -91 
Q 1206 -91 779 398 
Q 353 888 353 1747 
Q 353 2609 779 3096 
Q 1206 3584 1959 3584 
z
" transform="scale(0.015625)"/>
           <path id="DejaVuSans-28" d="M 1984 4856 
Q 1566 4138 1362 3434 
Q 1159 2731 1159 2009 
Q 1159 1288 1364 580 
Q 1569 -128 1984 -844 
L 1484 -844 
Q 1016 -109 783 600 
Q 550 1309 550 2009 
Q 550 2706 781 3412 
Q 1013 4119 1484 4856 
L 1984 4856 
z
" transform="scale(0.015625)"/>
           <path id="DejaVuSans-6e" d="M 3513 2113 
L 3513 0 
L 2938 0 
L 2938 2094 
Q 2938 2591 2744 2837 
Q 2550 3084 2163 3084 
Q 1697 3084 1428 2787 
Q 1159 2491 1159 1978 
L 1159 0 
L 581 0 
L 581 3500 
L 1159 3500 
L 1159 2956 
Q 1366 3272 1645 3428 
Q 1925 3584 2291 3584 
Q 2894 3584 3203 3211 
Q 3513 2838 3513 2113 
z
" transform="scale(0.015625)"/>
           <path id="DejaVuSans-72" d="M 2631 2963 
Q 2534 3019 2420 3045 
Q 2306 3072 2169 3072 
Q 1681 3072 1420 2755 
Q 1159 2438 1159 1844 
L 1159 0 
L 581 0 
L 581 3500 
L 1159 3500 
L 1159 2956 
Q 1341 3275 1631 3429 
Q 1922 3584 2338 3584 
Q 2397 3584 2469 3576 
Q 2541 3569 2628 3553 
L 2631 2963 
z
" transform="scale(0.015625)"/>
           <path id="DejaVuSans-73" d="M 2834 3397 
L 2834 2853 
Q 2591 2978 2328 3040 
Q 2066 3103 1784 3103 
Q 1356 3103 1142 2972 
Q 928 2841 928 2578 
Q 928 2378 1081 2264 
Q 1234 2150 1697 2047 
L 1894 2003 
Q 2506 1872 2764 1633 
Q 3022 1394 3022 966 
Q 3022 478 2636 193 
Q 2250 -91 1575 -91 
Q 1294 -91 989 -36 
Q 684 19 347 128 
L 347 722 
Q 666 556 975 473 
Q 1284 391 1588 391 
Q 1994 391 2212 530 
Q 2431 669 2431 922 
Q 2431 1156 2273 1281 
Q 2116 1406 1581 1522 
L 1381 1569 
Q 847 1681 609 1914 
Q 372 2147 372 2553 
Q 372 3047 722 3315 
Q 1072 3584 1716 3584 
Q 2034 3584 2315 3537 
Q 2597 3491 2834 3397 
z
" transform="scale(0.015625)"/>
           <path id="DejaVuSans-29" d="M 513 4856 
L 1013 4856 
Q 1481 4119 1714 3412 
Q 1947 2706 1947 2009 
Q 1947 1309 1714 600 
Q 1481 -109 1013 -844 
L 513 -844 
Q 928 -128 1133 580 
Q 1338 1288 1338 2009 
Q 1338 2731 1133 3434 
Q 928 4138 513 4856 
z
" transform="scale(0.015625)"/>
          </defs>
          <use xlink:href="#DejaVuSans-74"/>
          <use xlink:href="#DejaVuSans-69" x="39.208984"/>
          <use xlink:href="#DejaVuSans-6d" x="66.992188"/>
          <use xlink:href="#DejaVuSans-65" x="164.404297"/>
          <use xlink:href="#DejaVuSans-20" x="225.927734"/>
          <use xlink:href="#DejaVuSans-61" x="257.714844"/>
          <use xlink:href="#DejaVuSans-67" x="318.994141"/>
          <use xlink:href="#DejaVuSans-6f" x="382.470703"/>
          <use xlink:href="#DejaVuSans-20" x="443.652344"/>
          <use xlink:href="#DejaVuSans-28" x="475.439453"/>
          <use xlink:href="#DejaVuSans-67" x="514.453125"/>
          <use xlink:href="#DejaVuSans-65" x="577.929688"/>
          <use xlink:href="#DejaVuSans-6e" x="639.453125"/>
          <use xlink:href="#DejaVuSans-65" x="702.832031"/>
          <use xlink:href="#DejaVuSans-72" x="764.355469"/>
          <use xlink:href="#DejaVuSans-61" x="805.46875"/>
          <use xlink:href="#DejaVuSans-74" x="866.748047"/>
          <use xlink:href="#DejaVuSans-69" x="905.957031"/>
          <use xlink:href="#DejaVuSans-6f" x="933.740234"/>
          <use xlink:href="#DejaVuSans-6e" x="994.921875"/>
          <use xlink:href="#DejaVuSans-73" x="1058.300781"/>
          <use xlink:href="#DejaVuSans-29" x="1110.400391"/>
         </g>
        </g>
       </g>
       <g id="patch_7">
        <path d="M 289.626726 262.707965 
L 288.626726 262.676529 
L 287.626726 262.639588 
L 286.626726 262.541842 
L 285.626726 262.50932 
L 284.626726 262.435695 
L 283.626726 262.39713 
L 282.626726 262.361717 
L 281.626726 262.304077 
L 280.626726 262.233691 
L 279.626726 262.181726 
L 278.626726 262.122637 
L 277.626726 262.034316 
L 276.626726 261.988171 
L 275.626726 261.94576 
L 274.626726 261.915268 
L 273.626726 261.889223 
L 272.626726 261.868023 
L 271.626726 261.813722 
L 270.626726 261.785784 
L 269.626726 261.75606 
L 268.626726 261.730665 
L 267.626726 261.719465 
L 266.626726 261.709341 
L 265.626726 261.709545 
L 264.626726 261.719055 
L 263.626726 261.730709 
L 262.626726 261.761738 
L 261.626726 261.772906 
L 260.626726 261.803023 
L 259.626726 261.8628 
L 258.626726 261.899992 
L 257.626726 261.939088 
L 256.626726 261.981528 
L 255.626726 262.014293 
L 254.626726 262.081719 
L 253.626726 262.120845 
L 252.626726 262.16352 
L 251.626726 262.2341 
L 250.626726 262.270491 
L 249.626726 262.328894 
L 248.626726 262.439847 
L 247.626726 262.510505 
L 246.626726 262.623445 
L 245.626726 262.669218 
L 244.626726 262.730501 
L 243.626726 262.779 
L 242.626726 262.859823 
L 241.626726 262.978342 
L 240.626726 263.048553 
L 239.626726 263.131815 
L 238.626726 263.164957 
L 237.626726 263.216194 
L 236.626726 263.284593 
L 235.626726 263.350808 
L 234.626726 263.427725 
L 233.626726 263.455041 
L 232.626726 263.481518 
L 231.626726 263.504169 
L 230.626726 263.5237 
L 229.626726 263.550094 
L 228.626726 263.599865 
L 227.626726 263.634938 
L 226.626726 263.670804 
L 225.626726 263.686171 
L 224.626726 263.70194 
L 223.626726 263.705353 
L 222.626726 263.70777 
L 221.626726 263.707284 
L 220.626726 263.705355 
L 219.626726 263.692098 
L 218.626726 263.683707 
L 217.626726 263.662171 
L 216.626726 263.639138 
L 215.626726 263.621905 
L 214.626726 263.603442 
L 213.626726 263.58299 
L 212.626726 263.56639 
L 211.626726 263.503611 
L 210.626726 263.428346 
L 209.626726 263.395707 
L 208.626726 263.328143 
L 207.626726 263.274096 
L 206.626726 263.240392 
L 205.626726 263.150266 
L 204.626726 263.121731 
L 203.626726 263.090245 
L 202.626726 263.059234 
L 201.626726 263.004426 
L 200.626726 262.939839 
L 199.626726 262.901643 
L 198.626726 262.805709 
L 197.626726 262.756451 
L 196.626726 262.712382 
L 195.626726 262.672258 
L 194.626726 262.563891 
L 193.626726 262.522263 
L 192.626726 262.460121 
L 191.626726 262.390159 
L 190.626726 262.285655 
L 189.626726 262.248667 
L 188.626726 262.20279 
L 187.626726 262.134295 
L 186.626726 262.085549 
L 185.626726 262.007952 
L 184.626726 261.977411 
L 183.626726 261.907897 
L 182.626726 261.883924 
L 181.626726 261.855302 
L 180.626726 261.813509 
L 179.626726 261.791933 
L 178.626726 261.777985 
L 177.626726 261.751263 
L 176.626726 261.741953 
L 175.626726 261.729506 
L 174.626726 261.718451 
L 173.626726 261.712787 
L 172.626726 261.708023 
L 171.626726 261.713571 
L 170.626726 261.726859 
L 169.626726 261.734376 
L 168.626726 261.759161 
L 167.626726 261.78273 
L 166.626726 261.81891 
L 165.626726 261.844872 
L 164.626726 261.867194 
L 163.075986 261.935954 
" clip-path="url(#p393d10623c)" style="fill: none; stroke: #ffffff; stroke-width: 3; stroke-linecap: round"/>
        <path d="M 289.626726 262.707965 
L 288.626726 262.676529 
L 287.626726 262.639588 
L 286.626726 262.541842 
L 285.626726 262.50932 
L 284.626726 262.435695 
L 283.626726 262.39713 
L 282.626726 262.361717 
L 281.626726 262.304077 
L 280.626726 262.233691 
L 279.626726 262.181726 
L 278.626726 262.122637 
L 277.626726 262.034316 
L 276.626726 261.988171 
L 275.626726 261.94576 
L 274.626726 261.915268 
L 273.626726 261.889223 
L 272.626726 261.868023 
L 271.626726 261.813722 
L 270.626726 261.785784 
L 269.626726 261.75606 
L 268.626726 261.730665 
L 267.626726 261.719465 
L 266.626726 261.709341 
L 265.626726 261.709545 
L 264.626726 261.719055 
L 263.626726 261.730709 
L 262.626726 261.761738 
L 261.626726 261.772906 
L 260.626726 261.803023 
L 259.626726 261.8628 
L 258.626726 261.899992 
L 257.626726 261.939088 
L 256.626726 261.981528 
L 255.626726 262.014293 
L 254.626726 262.081719 
L 253.626726 262.120845 
L 252.626726 262.16352 
L 251.626726 262.2341 
L 250.626726 262.270491 
L 249.626726 262.328894 
L 248.626726 262.439847 
L 247.626726 262.510505 
L 246.626726 262.623445 
L 245.626726 262.669218 
L 244.626726 262.730501 
L 243.626726 262.779 
L 242.626726 262.859823 
L 241.626726 262.978342 
L 240.626726 263.048553 
L 239.626726 263.131815 
L 238.626726 263.164957 
L 237.626726 263.216194 
L 236.626726 263.284593 
L 235.626726 263.350808 
L 234.626726 263.427725 
L 233.626726 263.455041 
L 232.626726 263.481518 
L 231.626726 263.504169 
L 230.626726 263.5237 
L 229.626726 263.550094 
L 228.626726 263.599865 
L 227.626726 263.634938 
L 226.626726 263.670804 
L 225.626726 263.686171 
L 224.626726 263.70194 
L 223.626726 263.705353 
L 222.626726 263.70777 
L 221.626726 263.707284 
L 220.626726 263.705355 
L 219.626726 263.692098 
L 218.626726 263.683707 
L 217.626726 263.662171 
L 216.626726 263.639138 
L 215.626726 263.621905 
L 214.626726 263.603442 
L 213.626726 263.58299 
L 212.626726 263.56639 
L 211.626726 263.503611 
L 210.626726 263.428346 
L 209.626726 263.395707 
L 208.626726 263.328143 
L 207.626726 263.274096 
L 206.626726 263.240392 
L 205.626726 263.150266 
L 204.626726 263.121731 
L 203.626726 263.090245 
L 202.626726 263.059234 
L 201.626726 263.004426 
L 200.626726 262.939839 
L 199.626726 262.901643 
L 198.626726 262.805709 
L 197.626726 262.756451 
L 196.626726 262.712382 
L 195.626726 262.672258 
L 194.626726 262.563891 
L 193.626726 262.522263 
L 192.626726 262.460121 
L 191.626726 262.390159 
L 190.626726 262.285655 
L 189.626726 262.248667 
L 188.626726 262.20279 
L 187.626726 262.134295 
L 186.626726 262.085549 
L 185.626726 262.007952 
L 184.626726 261.977411 
L 183.626726 261.907897 
L 182.626726 261.883924 
L 181.626726 261.855302 
L 180.626726 261.813509 
L 179.626726 261.791933 
L 178.626726 261.777985 
L 177.626726 261.751263 
L 176.626726 261.741953 
L 175.626726 261.729506 
L 174.626726 261.718451 
L 173.626726 261.712787 
L 172.626726 261.708023 
L 171.626726 261.713571 
L 170.626726 261.726859 
L 169.626726 261.734376 
L 168.626726 261.759161 
L 167.626726 261.78273 
L 166.626726 261.81891 
L 165.626726 261.844872 
L 164.626726 261.867194 
L 163.075986 261.935954 
" clip-path="url(#p393d10623c)" style="fill: none; stroke: #1f77b4; stroke-linecap: round"/>
        <path d="M 167.075986 264.707965 
L 166.195618 264.232634 
L 165.317711 263.75238 
L 164.466997 263.217739 
L 163.164823 262.530292 
L 164.092176 262.504277 
L 165.00385 262.091557 
L 165.914115 261.676018 
L 167.25661 261.069214 
L 166.601711 261.707965 
L 166.549747 262.707965 
L 166.490657 264.707965 
z
" clip-path="url(#p393d10623c)" style="fill: #ffffff; stroke: #ffffff; stroke-width: 3; stroke-linecap: round"/>
        <path d="M 167.075986 264.707965 
L 166.195618 264.232634 
L 165.317711 263.75238 
L 164.466997 263.217739 
L 163.164823 262.530292 
L 164.092176 262.504277 
L 165.00385 262.091557 
L 165.914115 261.676018 
L 167.25661 261.069214 
L 166.601711 261.707965 
L 166.549747 262.707965 
L 166.490657 264.707965 
z
" clip-path="url(#p393d10623c)" style="fill: #ffffff; stroke: #1f77b4; stroke-linecap: round"/>
        <g id="patch_8">
         <path d="M 368.776299 72.964375 
L 369.776299 72.995811 
L 370.776299 73.032752 
L 371.776299 73.130498 
L 372.776299 73.16302 
L 373.776299 73.236645 
L 374.776299 73.27521 
L 375.776299 73.310623 
L 376.776299 73.368263 
L 377.776299 73.438649 
L 378.776299 73.490614 
L 379.776299 73.549703 
L 380.776299 73.638024 
L 381.776299 73.684169 
L 382.776299 73.72658 
L 383.776299 73.757072 
L 384.776299 73.783117 
L 385.776299 73.804317 
L 386.776299 73.858618 
L 387.776299 73.886556 
L 388.776299 73.91628 
L 389.776299 73.941675 
L 390.776299 73.952875 
L 391.776299 73.962999 
L 392.776299 73.962795 
L 393.776299 73.953285 
L 394.776299 73.941631 
L 395.776299 73.910602 
L 396.776299 73.899434 
L 397.776299 73.869317 
L 398.776299 73.80954 
L 399.776299 73.772348 
L 400.776299 73.733252 
L 401.776299 73.690812 
L 402.776299 73.658047 
L 403.776299 73.590621 
L 404.776299 73.551495 
L 405.776299 73.50882 
L 406.776299 73.43824 
L 407.776299 73.401849 
L 408.776299 73.343446 
L 409.776299 73.232493 
L 410.776299 73.161835 
L 411.776299 73.048895 
L 412.776299 73.003122 
L 413.776299 72.941839 
L 414.776299 72.89334 
L 415.776299 72.812517 
L 416.776299 72.693998 
L 417.776299 72.623787 
L 418.776299 72.540525 
L 419.776299 72.507383 
L 420.776299 72.456146 
L 421.776299 72.387747 
L 422.776299 72.321532 
L 423.776299 72.244615 
L 424.776299 72.217299 
L 425.776299 72.190822 
L 426.776299 72.168171 
L 427.776299 72.14864 
L 428.776299 72.122246 
L 429.776299 72.072475 
L 430.776299 72.037402 
L 431.776299 72.001536 
L 432.776299 71.986169 
L 433.776299 71.9704 
L 434.776299 71.966987 
L 435.776299 71.96457 
L 436.776299 71.965056 
L 437.776299 71.966985 
L 438.776299 71.980242 
L 439.776299 71.988633 
L 440.776299 72.010169 
L 441.776299 72.033202 
L 442.776299 72.050435 
L 443.776299 72.068898 
L 444.776299 72.08935 
L 445.776299 72.10595 
L 446.776299 72.168729 
L 447.776299 72.243994 
L 448.776299 72.276633 
L 449.776299 72.344197 
L 450.776299 72.398244 
L 451.776299 72.431948 
L 452.776299 72.522074 
L 453.776299 72.550609 
L 454.776299 72.582095 
L 455.776299 72.613106 
L 456.776299 72.667914 
L 457.776299 72.732501 
L 458.776299 72.770697 
L 459.776299 72.866631 
L 460.776299 72.915889 
L 461.776299 72.959958 
L 462.776299 73.000082 
L 463.776299 73.108449 
L 464.776299 73.150077 
L 465.776299 73.212219 
L 466.776299 73.282181 
L 467.776299 73.386685 
L 468.776299 73.423673 
L 469.776299 73.46955 
L 470.776299 73.538045 
L 471.776299 73.586791 
L 472.776299 73.664388 
L 473.776299 73.694929 
L 474.776299 73.764443 
L 475.776299 73.788416 
L 476.776299 73.817038 
L 477.776299 73.858831 
L 478.776299 73.880407 
L 479.776299 73.894355 
L 480.776299 73.921077 
L 481.776299 73.930387 
L 482.776299 73.942834 
L 483.776299 73.953889 
L 484.776299 73.959553 
L 485.776299 73.964317 
L 486.776299 73.958769 
L 487.776299 73.945481 
L 488.776299 73.937964 
L 489.776299 73.913179 
L 490.776299 73.88961 
L 491.776299 73.85343 
L 492.776299 73.827468 
L 493.776299 73.805146 
L 494.776299 73.736386 
L 495.776299 73.661851 
L 496.776299 73.567872 
L 497.776299 73.51682 
L 498.776299 73.462886 
L 499.776299 73.427635 
L 500.776299 73.321547 
L 501.776299 73.269283 
L 502.776299 73.232376 
L 503.776299 73.201345 
L 504.776299 73.14019 
L 505.776299 73.07277 
L 506.776299 73.023864 
L 507.776299 72.958672 
L 508.776299 72.920484 
L 509.776299 72.878488 
L 510.776299 72.836471 
L 511.776299 72.776955 
L 512.776299 72.663795 
L 513.776299 72.611544 
L 514.776299 72.572126 
L 515.776299 72.525025 
L 516.776299 72.468245 
L 517.776299 72.435582 
L 518.776299 72.399404 
L 519.776299 72.367314 
L 520.776299 72.333034 
L 521.776299 72.274656 
L 522.776299 72.229471 
L 523.776299 72.199847 
L 524.776299 72.149461 
L 525.776299 72.124264 
L 526.776299 72.103213 
L 527.776299 72.068245 
L 528.776299 72.043955 
L 529.776299 72.029888 
L 530.776299 72.010946 
L 531.776299 71.995285 
L 532.776299 71.982733 
L 533.776299 71.976897 
L 534.776299 71.970015 
L 535.776299 71.964841 
L 536.776299 71.966624 
L 538.02124 71.969349 
" clip-path="url(#p393d10623c)" style="fill: none; stroke: #ffffff; stroke-width: 3; stroke-linecap: round"/>
         <path d="M 368.776299 72.964375 
L 369.776299 72.995811 
L 370.776299 73.032752 
L 371.776299 73.130498 
L 372.776299 73.16302 
L 373.776299 73.236645 
L 374.776299 73.27521 
L 375.776299 73.310623 
L 376.776299 73.368263 
L 377.776299 73.438649 
L 378.776299 73.490614 
L 379.776299 73.549703 
L 380.776299 73.638024 
L 381.776299 73.684169 
L 382.776299 73.72658 
L 383.776299 73.757072 
L 384.776299 73.783117 
L 385.776299 73.804317 
L 386.776299 73.858618 
L 387.776299 73.886556 
L 388.776299 73.91628 
L 389.776299 73.941675 
L 390.776299 73.952875 
L 391.776299 73.962999 
L 392.776299 73.962795 
L 393.776299 73.953285 
L 394.776299 73.941631 
L 395.776299 73.910602 
L 396.776299 73.899434 
L 397.776299 73.869317 
L 398.776299 73.80954 
L 399.776299 73.772348 
L 400.776299 73.733252 
L 401.776299 73.690812 
L 402.776299 73.658047 
L 403.776299 73.590621 
L 404.776299 73.551495 
L 405.776299 73.50882 
L 406.776299 73.43824 
L 407.776299 73.401849 
L 408.776299 73.343446 
L 409.776299 73.232493 
L 410.776299 73.161835 
L 411.776299 73.048895 
L 412.776299 73.003122 
L 413.776299 72.941839 
L 414.776299 72.89334 
L 415.776299 72.812517 
L 416.776299 72.693998 
L 417.776299 72.623787 
L 418.776299 72.540525 
L 419.776299 72.507383 
L 420.776299 72.456146 
L 421.776299 72.387747 
L 422.776299 72.321532 
L 423.776299 72.244615 
L 424.776299 72.217299 
L 425.776299 72.190822 
L 426.776299 72.168171 
L 427.776299 72.14864 
L 428.776299 72.122246 
L 429.776299 72.072475 
L 430.776299 72.037402 
L 431.776299 72.001536 
L 432.776299 71.986169 
L 433.776299 71.9704 
L 434.776299 71.966987 
L 435.776299 71.96457 
L 436.776299 71.965056 
L 437.776299 71.966985 
L 438.776299 71.980242 
L 439.776299 71.988633 
L 440.776299 72.010169 
L 441.776299 72.033202 
L 442.776299 72.050435 
L 443.776299 72.068898 
L 444.776299 72.08935 
L 445.776299 72.10595 
L 446.776299 72.168729 
L 447.776299 72.243994 
L 448.776299 72.276633 
L 449.776299 72.344197 
L 450.776299 72.398244 
L 451.776299 72.431948 
L 452.776299 72.522074 
L 453.776299 72.550609 
L 454.776299 72.582095 
L 455.776299 72.613106 
L 456.776299 72.667914 
L 457.776299 72.732501 
L 458.776299 72.770697 
L 459.776299 72.866631 
L 460.776299 72.915889 
L 461.776299 72.959958 
L 462.776299 73.000082 
L 463.776299 73.108449 
L 464.776299 73.150077 
L 465.776299 73.212219 
L 466.776299 73.282181 
L 467.776299 73.386685 
L 468.776299 73.423673 
L 469.776299 73.46955 
L 470.776299 73.538045 
L 471.776299 73.586791 
L 472.776299 73.664388 
L 473.776299 73.694929 
L 474.776299 73.764443 
L 475.776299 73.788416 
L 476.776299 73.817038 
L 477.776299 73.858831 
L 478.776299 73.880407 
L 479.776299 73.894355 
L 480.776299 73.921077 
L 481.776299 73.930387 
L 482.776299 73.942834 
L 483.776299 73.953889 
L 484.776299 73.959553 
L 485.776299 73.964317 
L 486.776299 73.958769 
L 487.776299 73.945481 
L 488.776299 73.937964 
L 489.776299 73.913179 
L 490.776299 73.88961 
L 491.776299 73.85343 
L 492.776299 73.827468 
L 493.776299 73.805146 
L 494.776299 73.736386 
L 495.776299 73.661851 
L 496.776299 73.567872 
L 497.776299 73.51682 
L 498.776299 73.462886 
L 499.776299 73.427635 
L 500.776299 73.321547 
L 501.776299 73.269283 
L 502.776299 73.232376 
L 503.776299 73.201345 
L 504.776299 73.14019 
L 505.776299 73.07277 
L 506.776299 73.023864 
L 507.776299 72.958672 
L 508.776299 72.920484 
L 509.776299 72.878488 
L 510.776299 72.836471 
L 511.776299 72.776955 
L 512.776299 72.663795 
L 513.776299 72.611544 
L 514.776299 72.572126 
L 515.776299 72.525025 
L 516.776299 72.468245 
L 517.776299 72.435582 
L 518.776299 72.399404 
L 519.776299 72.367314 
L 520.776299 72.333034 
L 521.776299 72.274656 
L 522.776299 72.229471 
L 523.776299 72.199847 
L 524.776299 72.149461 
L 525.776299 72.124264 
L 526.776299 72.103213 
L 527.776299 72.068245 
L 528.776299 72.043955 
L 529.776299 72.029888 
L 530.776299 72.010946 
L 531.776299 71.995285 
L 532.776299 71.982733 
L 533.776299 71.976897 
L 534.776299 71.970015 
L 535.776299 71.964841 
L 536.776299 71.966624 
L 538.02124 71.969349 
" clip-path="url(#p393d10623c)" style="fill: none; stroke: #1f77b4; stroke-linecap: round"/>
         <path d="M 534.02124 70.964375 
L 534.901609 71.439706 
L 535.779516 71.91996 
L 536.630229 72.454601 
L 537.932403 73.142048 
L 537.00505 73.168063 
L 536.093376 73.580783 
L 535.183112 73.996322 
L 533.840616 74.603126 
L 534.495515 73.964375 
L 534.547479 72.964375 
L 534.606569 70.964375 
z
" clip-path="url(#p393d10623c)" style="fill: #ffffff; stroke: #ffffff; stroke-width: 3; stroke-linecap: round"/>
         <path d="M 534.02124 70.964375 
L 534.901609 71.439706 
L 535.779516 71.91996 
L 536.630229 72.454601 
L 537.932403 73.142048 
L 537.00505 73.168063 
L 536.093376 73.580783 
L 535.183112 73.996322 
L 533.840616 74.603126 
L 534.495515 73.964375 
L 534.547479 72.964375 
L 534.606569 70.964375 
z
" clip-path="url(#p393d10623c)" style="fill: #ffffff; stroke: #1f77b4; stroke-linecap: round"/>
         <g id="patch_9">
          <path d="M 368.775336 262.707965 
L 369.775336 262.739401 
L 370.775336 262.776342 
L 371.775336 262.874088 
L 372.775336 262.90661 
L 373.775336 262.980235 
L 374.775336 263.0188 
L 375.775336 263.054213 
L 376.775336 263.111853 
L 377.775336 263.182239 
L 378.775336 263.234204 
L 379.775336 263.293293 
L 380.775336 263.381614 
L 381.775336 263.427759 
L 382.775336 263.47017 
L 383.775336 263.500662 
L 384.775336 263.526707 
L 385.775336 263.547907 
L 386.775336 263.602208 
L 387.775336 263.630146 
L 388.775336 263.65987 
L 389.775336 263.685265 
L 390.775336 263.696465 
L 391.775336 263.706589 
L 392.775336 263.706385 
L 393.775336 263.696875 
L 394.775336 263.685221 
L 395.775336 263.654192 
L 396.775336 263.643024 
L 397.775336 263.612907 
L 398.775336 263.55313 
L 399.775336 263.515938 
L 400.775336 263.476842 
L 401.775336 263.434402 
L 402.775336 263.401637 
L 403.775336 263.334211 
L 404.775336 263.295085 
L 405.775336 263.25241 
L 406.775336 263.18183 
L 407.775336 263.145439 
L 408.775336 263.087036 
L 409.775336 262.976083 
L 410.775336 262.905425 
L 411.775336 262.792485 
L 412.775336 262.746712 
L 413.775336 262.685429 
L 414.775336 262.63693 
L 415.775336 262.556107 
L 416.775336 262.437588 
L 417.775336 262.367377 
L 418.775336 262.284115 
L 419.775336 262.250973 
L 420.775336 262.199736 
L 421.775336 262.131337 
L 422.775336 262.065122 
L 423.775336 261.988205 
L 424.775336 261.960889 
L 425.775336 261.934412 
L 426.775336 261.911761 
L 427.775336 261.89223 
L 428.775336 261.865836 
L 429.775336 261.816065 
L 430.775336 261.780992 
L 431.775336 261.745126 
L 432.775336 261.729759 
L 433.775336 261.71399 
L 435.572604 261.710577 
" clip-path="url(#p393d10623c)" style="fill: none; stroke: #ffffff; stroke-width: 3; stroke-linecap: round"/>
          <path d="M 368.775336 262.707965 
L 369.775336 262.739401 
L 370.775336 262.776342 
L 371.775336 262.874088 
L 372.775336 262.90661 
L 373.775336 262.980235 
L 374.775336 263.0188 
L 375.775336 263.054213 
L 376.775336 263.111853 
L 377.775336 263.182239 
L 378.775336 263.234204 
L 379.775336 263.293293 
L 380.775336 263.381614 
L 381.775336 263.427759 
L 382.775336 263.47017 
L 383.775336 263.500662 
L 384.775336 263.526707 
L 385.775336 263.547907 
L 386.775336 263.602208 
L 387.775336 263.630146 
L 388.775336 263.65987 
L 389.775336 263.685265 
L 390.775336 263.696465 
L 391.775336 263.706589 
L 392.775336 263.706385 
L 393.775336 263.696875 
L 394.775336 263.685221 
L 395.775336 263.654192 
L 396.775336 263.643024 
L 397.775336 263.612907 
L 398.775336 263.55313 
L 399.775336 263.515938 
L 400.775336 263.476842 
L 401.775336 263.434402 
L 402.775336 263.401637 
L 403.775336 263.334211 
L 404.775336 263.295085 
L 405.775336 263.25241 
L 406.775336 263.18183 
L 407.775336 263.145439 
L 408.775336 263.087036 
L 409.775336 262.976083 
L 410.775336 262.905425 
L 411.775336 262.792485 
L 412.775336 262.746712 
L 413.775336 262.685429 
L 414.775336 262.63693 
L 415.775336 262.556107 
L 416.775336 262.437588 
L 417.775336 262.367377 
L 418.775336 262.284115 
L 419.775336 262.250973 
L 420.775336 262.199736 
L 421.775336 262.131337 
L 422.775336 262.065122 
L 423.775336 261.988205 
L 424.775336 261.960889 
L 425.775336 261.934412 
L 426.775336 261.911761 
L 427.775336 261.89223 
L 428.775336 261.865836 
L 429.775336 261.816065 
L 430.775336 261.780992 
L 431.775336 261.745126 
L 432.775336 261.729759 
L 433.775336 261.71399 
L 435.572604 261.710577 
" clip-path="url(#p393d10623c)" style="fill: none; stroke: #1f77b4; stroke-linecap: round"/>
          <path d="M 431.572604 260.707965 
L 432.452973 261.183296 
L 433.33088 261.66355 
L 434.181593 262.198191 
L 435.483767 262.885638 
L 434.556414 262.911653 
L 433.64474 263.324373 
L 432.734476 263.739912 
L 431.39198 264.346716 
L 432.046879 263.707965 
L 432.098843 262.707965 
L 432.157933 260.707965 
z
" clip-path="url(#p393d10623c)" style="fill: #ffffff; stroke: #ffffff; stroke-width: 3; stroke-linecap: round"/>
          <path d="M 431.572604 260.707965 
L 432.452973 261.183296 
L 433.33088 261.66355 
L 434.181593 262.198191 
L 435.483767 262.885638 
L 434.556414 262.911653 
L 433.64474 263.324373 
L 432.734476 263.739912 
L 431.39198 264.346716 
L 432.046879 263.707965 
L 432.098843 262.707965 
L 432.157933 260.707965 
z
" clip-path="url(#p393d10623c)" style="fill: #ffffff; stroke: #1f77b4; stroke-linecap: round"/>
          <path d="M 456.002639 292.865398 
" clip-path="url(#p393d10623c)" style="fill: none; stroke-dasharray: 3.7,1.6; stroke-dashoffset: 0; stroke: #2ca02c"/>
          <path d="M 455.002639 292.865398 
L 457.002639 293.865398 
L 457.002639 291.865398 
z
" clip-path="url(#p393d10623c)" style="fill: #2ca02c; stroke: #2ca02c; stroke-linejoin: miter"/>
          <g id="patch_10">
           <path d="M 63.290625 321.621875 
L 63.290625 10.8 
" style="fill: none; stroke: #000000; stroke-width: 0.8; stroke-linejoin: miter; stroke-linecap: square"/>
          </g>
          <g id="text_12">
           <g id="patch_11">
            <path d="M 318.548619 143.593045 
L 339.853306 143.593045 
Q 341.853306 143.593045 341.853306 141.593045 
L 341.853306 131.91492 
Q 341.853306 129.91492 339.853306 129.91492 
L 318.548619 129.91492 
Q 316.548619 129.91492 316.548619 131.91492 
L 316.548619 141.593045 
Q 316.548619 143.593045 318.548619 143.593045 
z
" style="fill: #ffffff; opacity: 0.6"/>
           </g>
           <!-- ANC -->
           <g transform="translate(318.548619 139.513357) scale(0.1 -0.1)">
            <defs>
             <path id="DejaVuSans-4e" d="M 628 4666 
L 1478 4666 
L 3547 763 
L 3547 4666 
L 4159 4666 
L 4159 0 
L 3309 0 
L 1241 3903 
L 1241 0 
L 628 0 
L 628 4666 
z
" transform="scale(0.015625)"/>
            </defs>
            <use xlink:href="#DejaVuSans-41"/>
            <use xlink:href="#DejaVuSans-4e" x="68.408203"/>
            <use xlink:href="#DejaVuSans-43" x="143.212891"/>
           </g>
          </g>
         </g>
        </g>
        <defs>
         <clipPath id="p393d10623c">
          <rect x="63.290625" y="10.8" width="540.309375" height="310.821875"/>
         </clipPath>
        </defs>
       </g>
      </g>
     </g>
    </g>
   </g>
  </g>
 </g>
</svg>
