<?xml version="1.0" encoding="utf-8" standalone="no"?>
<!DOCTYPE svg PUBLIC "-//W3C//DTD SVG 1.1//EN"
  "http://www.w3.org/Graphics/SVG/1.1/DTD/svg11.dtd">
<svg xmlns:xlink="http://www.w3.org/1999/xlink" width="614.4pt" height="345.6pt" viewBox="0 0 614.4 345.6" xmlns="http://www.w3.org/2000/svg" version="1.1">
 <metadata>
  <rdf:RDF xmlns:dc="http://purl.org/dc/elements/1.1/" xmlns:cc="http://creativecommons.org/ns#" xmlns:rdf="http://www.w3.org/1999/02/22-rdf-syntax-ns#">
   <cc:Work>
    <dc:type rdf:resource="http://purl.org/dc/dcmitype/StillImage"/>
    <dc:date>2024-04-17T19:40:18.713435</dc:date>
    <dc:format>image/svg+xml</dc:format>
    <dc:creator>
     <cc:Agent>
      <dc:title>Matplotlib v3.7.1, https://matplotlib.org/</dc:title>
     </cc:Agent>
    </dc:creator>
   </cc:Work>
  </rdf:RDF>
 </metadata>
 <defs>
  <style type="text/css">*{stroke-linejoin: round; stroke-linecap: butt}</style>
 </defs>
 <g id="figure_1">
  <g id="patch_1">
   <path d="M 0 345.6 
L 614.4 345.6 
L 614.4 0 
L 0 0 
z
" style="fill: #ffffff"/>
  </g>
  <g id="axes_1">
   <g id="patch_2">
    <path d="M 63.290625 321.621875 
L 603.6 321.621875 
L 603.6 10.8 
L 63.290625 10.8 
z
" style="fill: #ffffff"/>
   </g>
   <path d="M 507.891997 289.569542 
L 506.891997 289.538105 
L 505.891997 289.501165 
L 504.891997 289.403418 
L 503.891997 289.370897 
L 502.891997 289.297272 
L 501.891997 289.258706 
L 500.891997 289.223293 
L 499.891997 289.165653 
L 498.891997 289.095267 
L 497.891997 289.043303 
L 496.891997 288.984213 
L 495.891997 288.895892 
L 494.891997 288.849748 
L 493.891997 288.807337 
L 492.891997 288.776844 
L 491.891997 288.750799 
L 490.891997 288.729599 
L 489.891997 288.675298 
L 488.891997 288.647361 
L 487.891997 288.617637 
L 486.891997 288.592242 
L 485.891997 288.581041 
L 484.891997 288.570917 
L 483.891997 288.571122 
L 482.891997 288.580632 
L 481.891997 288.592285 
L 480.891997 288.623314 
L 479.891997 288.634482 
L 478.891997 288.6646 
L 477.891997 288.724377 
L 476.891997 288.761568 
L 475.891997 288.800664 
L 474.891997 288.843104 
L 473.891997 288.875869 
L 472.891997 288.943296 
L 471.891997 288.982422 
L 470.891997 289.025096 
L 469.891997 289.095677 
L 468.891997 289.132068 
L 467.891997 289.190471 
L 466.891997 289.301423 
L 465.891997 289.372082 
L 464.891997 289.485022 
L 463.891997 289.530794 
L 462.891997 289.592078 
L 461.891997 289.640577 
L 460.891997 289.7214 
L 459.891997 289.839919 
L 458.891997 289.910129 
L 457.891997 289.993392 
L 456.891997 290.026533 
L 455.891997 290.077771 
L 454.891997 290.146169 
L 453.891997 290.212385 
L 452.891997 290.289302 
L 451.891997 290.316617 
L 450.891997 290.343095 
L 449.891997 290.365745 
L 448.891997 290.385277 
L 447.891997 290.411671 
L 446.891997 290.461441 
L 445.891997 290.496514 
L 444.891997 290.53238 
L 443.891997 290.547747 
L 442.891997 290.563517 
L 441.891997 290.566929 
L 440.891997 290.569347 
L 439.891997 290.568861 
L 438.342285 290.566931 
" clip-path="url(#p4f825544d6)" style="fill: none; stroke-dasharray: 3.7,1.6; stroke-dashoffset: 0; stroke: #2ca02c"/>
   <g id="patch_3">
    <path d="M 226.150811 10.8 
L 226.150811 251.020983 
M 372.067592 10.8 
L 372.067592 251.020983 
" clip-path="url(#p4f825544d6)" style="fill: none; stroke: #ffffff; stroke-width: 3; stroke-linejoin: miter"/>
    <path d="M 226.150811 10.8 
L 226.150811 251.020983 
M 372.067592 10.8 
L 372.067592 251.020983 
" clip-path="url(#p4f825544d6)" style="fill: none; stroke: #1f77b4; stroke-linejoin: miter"/>
    <g id="PolyCollection_1">
     <path d="M 372.067592 10.8 
L 226.150811 10.8 
L 226.150811 251.020983 
L 372.067592 251.020983 
L 372.067592 251.020983 
L 372.067592 10.8 
z
" clip-path="url(#p4f825544d6)" style="fill: #1f77b4; fill-opacity: 0.5"/>
    </g>
    <g id="patch_4">
     <path d="M 103.142201 251.020983 
L 103.045924 313.450972 
L 101.042369 315.035126 
L 98.666068 316.619281 
L 96.008302 318.120059 
L 92.88426 319.620837 
L 89.212138 321.121616 
L 87.850142 321.621875 
M 124.488324 251.020983 
L 124.584601 313.450972 
L 126.588156 315.035126 
L 128.964457 316.619281 
L 131.622223 318.120059 
L 134.746265 319.620837 
L 138.418387 321.121616 
L 139.780383 321.621875 
L 139.780383 321.621875 
" clip-path="url(#p4f825544d6)" style="fill: none; stroke: #ffffff; stroke-width: 3; stroke-linejoin: miter"/>
     <path d="M 103.142201 251.020983 
L 103.045924 313.450972 
L 101.042369 315.035126 
L 98.666068 316.619281 
L 96.008302 318.120059 
L 92.88426 319.620837 
L 89.212138 321.121616 
L 87.850142 321.621875 
M 124.488324 251.020983 
L 124.584601 313.450972 
L 126.588156 315.035126 
L 128.964457 316.619281 
L 131.622223 318.120059 
L 134.746265 319.620837 
L 138.418387 321.121616 
L 139.780383 321.621875 
L 139.780383 321.621875 
" clip-path="url(#p4f825544d6)" style="fill: none; stroke: #ff7f0e; stroke-linejoin: miter"/>
     <g id="PolyCollection_2">
      <path d="M 124.488324 251.020983 
L 103.142201 251.020983 
L 103.142201 313.367595 
L 103.142201 313.367595 
L 103.045924 313.450972 
L 102.948778 313.534348 
L 102.850756 313.617725 
L 102.751851 313.701101 
L 102.652052 313.784478 
L 102.551354 313.867855 
L 102.449747 313.951231 
L 102.347224 314.034608 
L 102.243776 314.117984 
L 102.139395 314.201361 
L 102.034072 314.284737 
L 101.927799 314.368114 
L 101.820568 314.45149 
L 101.712369 314.534867 
L 101.603194 314.618244 
L 101.493034 314.70162 
L 101.381881 314.784997 
L 101.269725 314.868373 
L 101.156557 314.95175 
L 101.042369 315.035126 
L 100.92715 315.118503 
L 100.810892 315.20188 
L 100.693586 315.285256 
L 100.575221 315.368633 
L 100.455788 315.452009 
L 100.335279 315.535386 
L 100.213682 315.618762 
L 100.090988 315.702139 
L 99.967187 315.785516 
L 99.84227 315.868892 
L 99.716226 315.952269 
L 99.589045 316.035645 
L 99.460716 316.119022 
L 99.33123 316.202398 
L 99.200576 316.285775 
L 99.068744 316.369151 
L 98.935722 316.452528 
L 98.8015 316.535905 
L 98.666068 316.619281 
L 98.529414 316.702658 
L 98.391527 316.786034 
L 98.252396 316.869411 
L 98.112011 316.952787 
L 97.970358 317.036164 
L 97.827429 317.119541 
L 97.68321 317.202917 
L 97.537689 317.286294 
L 97.390857 317.36967 
L 97.242699 317.453047 
L 97.093206 317.536423 
L 96.942364 317.6198 
L 96.790161 317.703176 
L 96.636585 317.786553 
L 96.481624 317.86993 
L 96.325265 317.953306 
L 96.167495 318.036683 
L 96.008302 318.120059 
L 95.847674 318.203436 
L 95.685596 318.286812 
L 95.522057 318.370189 
L 95.357042 318.453566 
L 95.190538 318.536942 
L 95.022533 318.620319 
L 94.853012 318.703695 
L 94.681962 318.787072 
L 94.509369 318.870448 
L 94.335219 318.953825 
L 94.159498 319.037202 
L 93.982193 319.120578 
L 93.803287 319.203955 
L 93.622768 319.287331 
L 93.440621 319.370708 
L 93.25683 319.454084 
L 93.071382 319.537461 
L 92.88426 319.620837 
L 92.695451 319.704214 
L 92.504939 319.787591 
L 92.312708 319.870967 
L 92.118743 319.954344 
L 91.923028 320.03772 
L 91.725548 320.121097 
L 91.526287 320.204473 
L 91.325228 320.28785 
L 91.122355 320.371227 
L 90.917652 320.454603 
L 90.711103 320.53798 
L 90.502691 320.621356 
L 90.292399 320.704733 
L 90.080209 320.788109 
L 89.866106 320.871486 
L 89.650071 320.954862 
L 89.432088 321.038239 
L 89.212138 321.121616 
L 88.990204 321.204992 
L 88.766269 321.288369 
L 88.540313 321.371745 
L 88.312319 321.455122 
L 88.082268 321.538498 
L 87.850142 321.621875 
L 139.780383 321.621875 
L 139.780383 321.621875 
L 139.548257 321.538498 
L 139.318206 321.455122 
L 139.090212 321.371745 
L 138.864256 321.288369 
L 138.640321 321.204992 
L 138.418387 321.121616 
L 138.198437 321.038239 
L 137.980454 320.954862 
L 137.764419 320.871486 
L 137.550316 320.788109 
L 137.338126 320.704733 
L 137.127834 320.621356 
L 136.919422 320.53798 
L 136.712873 320.454603 
L 136.50817 320.371227 
L 136.305297 320.28785 
L 136.104238 320.204473 
L 135.904977 320.121097 
L 135.707497 320.03772 
L 135.511782 319.954344 
L 135.317817 319.870967 
L 135.125586 319.787591 
L 134.935074 319.704214 
L 134.746265 319.620837 
L 134.559143 319.537461 
L 134.373695 319.454084 
L 134.189904 319.370708 
L 134.007757 319.287331 
L 133.827238 319.203955 
L 133.648332 319.120578 
L 133.471027 319.037202 
L 133.295306 318.953825 
L 133.121156 318.870448 
L 132.948563 318.787072 
L 132.777513 318.703695 
L 132.607992 318.620319 
L 132.439987 318.536942 
L 132.273483 318.453566 
L 132.108468 318.370189 
L 131.944929 318.286812 
L 131.782851 318.203436 
L 131.622223 318.120059 
L 131.46303 318.036683 
L 131.30526 317.953306 
L 131.148901 317.86993 
L 130.99394 317.786553 
L 130.840364 317.703176 
L 130.688161 317.6198 
L 130.537319 317.536423 
L 130.387825 317.453047 
L 130.239668 317.36967 
L 130.092835 317.286294 
L 129.947315 317.202917 
L 129.803096 317.119541 
L 129.660166 317.036164 
L 129.518514 316.952787 
L 129.378129 316.869411 
L 129.238998 316.786034 
L 129.101111 316.702658 
L 128.964457 316.619281 
L 128.829025 316.535905 
L 128.694803 316.452528 
L 128.561781 316.369151 
L 128.429949 316.285775 
L 128.299295 316.202398 
L 128.169809 316.119022 
L 128.04148 316.035645 
L 127.914299 315.952269 
L 127.788255 315.868892 
L 127.663338 315.785516 
L 127.539537 315.702139 
L 127.416843 315.618762 
L 127.295246 315.535386 
L 127.174736 315.452009 
L 127.055304 315.368633 
L 126.936939 315.285256 
L 126.819633 315.20188 
L 126.703375 315.118503 
L 126.588156 315.035126 
L 126.473967 314.95175 
L 126.3608 314.868373 
L 126.248644 314.784997 
L 126.13749 314.70162 
L 126.027331 314.618244 
L 125.918156 314.534867 
L 125.809957 314.45149 
L 125.702726 314.368114 
L 125.596453 314.284737 
L 125.49113 314.201361 
L 125.386749 314.117984 
L 125.283301 314.034608 
L 125.180778 313.951231 
L 125.079171 313.867855 
L 124.978472 313.784478 
L 124.878674 313.701101 
L 124.779768 313.617725 
L 124.681747 313.534348 
L 124.584601 313.450972 
L 124.488324 313.367595 
L 124.488324 313.367595 
L 124.488324 251.020983 
z
" clip-path="url(#p4f825544d6)" style="fill: #ff7f0e; fill-opacity: 0.5"/>
     </g>
     <g id="patch_5">
      <path d="M 513.295091 72.964375 
L 513.295091 321.621875 
M 579.040483 72.964375 
L 579.040483 321.621875 
" clip-path="url(#p4f825544d6)" style="fill: none; stroke: #ffffff; stroke-width: 3; stroke-linejoin: miter"/>
      <path d="M 513.295091 72.964375 
L 513.295091 321.621875 
M 579.040483 72.964375 
L 579.040483 321.621875 
" clip-path="url(#p4f825544d6)" style="fill: none; stroke: #2ca02c; stroke-linejoin: miter"/>
      <g id="PolyCollection_3">
       <path d="M 579.040483 72.964375 
L 513.295091 72.964375 
L 513.295091 321.621875 
L 579.040483 321.621875 
L 579.040483 321.621875 
L 579.040483 72.964375 
z
" clip-path="url(#p4f825544d6)" style="fill: #2ca02c; fill-opacity: 0.5"/>
      </g>
      <g id="patch_6">
       <path d="M 412.337797 266.650515 
L 412.337797 276.491332 
L 420.425225 276.491332 
L 420.425225 278.592421 
L 412.337797 278.592421 
L 412.263777 308.102744 
L 410.580391 310.999701 
L 408.723852 313.758707 
L 406.69603 316.379763 
L 404.503008 318.862869 
L 402.008317 321.345974 
L 401.710758 321.621875 
M 432.939191 266.650515 
L 432.939191 276.491332 
L 424.851763 276.491332 
L 424.851763 278.592421 
L 432.939191 278.592421 
L 433.013212 308.102744 
L 434.696597 310.999701 
L 436.553136 313.758707 
L 438.580958 316.379763 
L 440.77398 318.862869 
L 443.268671 321.345974 
L 443.566231 321.621875 
L 443.566231 321.621875 
" clip-path="url(#p4f825544d6)" style="fill: none; stroke: #ffffff; stroke-width: 3; stroke-linejoin: miter"/>
       <path d="M 412.337797 266.650515 
L 412.337797 276.491332 
L 420.425225 276.491332 
L 420.425225 278.592421 
L 412.337797 278.592421 
L 412.263777 308.102744 
L 410.580391 310.999701 
L 408.723852 313.758707 
L 406.69603 316.379763 
L 404.503008 318.862869 
L 402.008317 321.345974 
L 401.710758 321.621875 
M 432.939191 266.650515 
L 432.939191 276.491332 
L 424.851763 276.491332 
L 424.851763 278.592421 
L 432.939191 278.592421 
L 433.013212 308.102744 
L 434.696597 310.999701 
L 436.553136 313.758707 
L 438.580958 316.379763 
L 440.77398 318.862869 
L 443.268671 321.345974 
L 443.566231 321.621875 
L 443.566231 321.621875 
" clip-path="url(#p4f825544d6)" style="fill: none; stroke: #d62728; stroke-linejoin: miter"/>
       <g id="PolyCollection_4">
        <path d="M 432.939191 266.650515 
L 412.337797 266.650515 
L 412.337797 276.491332 
L 420.425225 276.491332 
L 420.425225 278.592421 
L 412.337797 278.592421 
L 412.337797 307.964794 
L 412.337797 307.964794 
L 412.263777 308.102744 
L 412.189225 308.240694 
L 412.114137 308.378645 
L 412.03851 308.516595 
L 411.962339 308.654545 
L 411.885621 308.792496 
L 411.808351 308.930446 
L 411.730527 309.068396 
L 411.652143 309.206347 
L 411.573195 309.344297 
L 411.493681 309.482247 
L 411.413595 309.620198 
L 411.332934 309.758148 
L 411.251693 309.896098 
L 411.169868 310.034049 
L 411.087455 310.171999 
L 411.00445 310.309949 
L 410.920848 310.447899 
L 410.836646 310.58585 
L 410.751839 310.7238 
L 410.666422 310.86175 
L 410.580391 310.999701 
L 410.493743 311.137651 
L 410.406471 311.275601 
L 410.318573 311.413552 
L 410.230043 311.551502 
L 410.140876 311.689452 
L 410.051069 311.827403 
L 409.960617 311.965353 
L 409.869514 312.103303 
L 409.777757 312.241254 
L 409.685341 312.379204 
L 409.59226 312.517154 
L 409.498511 312.655105 
L 409.404088 312.793055 
L 409.308986 312.931005 
L 409.213201 313.068955 
L 409.116728 313.206906 
L 409.019561 313.344856 
L 408.921697 313.482806 
L 408.823128 313.620757 
L 408.723852 313.758707 
L 408.623862 313.896657 
L 408.523154 314.034608 
L 408.421722 314.172558 
L 408.319561 314.310508 
L 408.216666 314.448459 
L 408.113032 314.586409 
L 408.008653 314.724359 
L 407.903524 314.86231 
L 407.797639 315.00026 
L 407.690994 315.13821 
L 407.583582 315.276161 
L 407.475399 315.414111 
L 407.366438 315.552061 
L 407.256694 315.690011 
L 407.146161 315.827962 
L 407.034834 315.965912 
L 406.922707 316.103862 
L 406.809774 316.241813 
L 406.69603 316.379763 
L 406.581469 316.517713 
L 406.466084 316.655664 
L 406.34987 316.793614 
L 406.232821 316.931564 
L 406.114931 317.069515 
L 405.996194 317.207465 
L 405.876603 317.345415 
L 405.756153 317.483366 
L 405.634838 317.621316 
L 405.512651 317.759266 
L 405.389585 317.897216 
L 405.265636 318.035167 
L 405.140796 318.173117 
L 405.015058 318.311067 
L 404.888417 318.449018 
L 404.760866 318.586968 
L 404.632399 318.724918 
L 404.503008 318.862869 
L 404.372688 319.000819 
L 404.241431 319.138769 
L 404.109231 319.27672 
L 403.976081 319.41467 
L 403.841974 319.55262 
L 403.706903 319.690571 
L 403.570862 319.828521 
L 403.433843 319.966471 
L 403.29584 320.104422 
L 403.156845 320.242372 
L 403.016851 320.380322 
L 402.875851 320.518272 
L 402.733838 320.656223 
L 402.590804 320.794173 
L 402.446743 320.932123 
L 402.301646 321.070074 
L 402.155507 321.208024 
L 402.008317 321.345974 
L 401.86007 321.483925 
L 401.710758 321.621875 
L 443.566231 321.621875 
L 443.566231 321.621875 
L 443.416918 321.483925 
L 443.268671 321.345974 
L 443.121482 321.208024 
L 442.975342 321.070074 
L 442.830246 320.932123 
L 442.686184 320.794173 
L 442.543151 320.656223 
L 442.401138 320.518272 
L 442.260138 320.380322 
L 442.120144 320.242372 
L 441.981149 320.104422 
L 441.843145 319.966471 
L 441.706127 319.828521 
L 441.570085 319.690571 
L 441.435015 319.55262 
L 441.300908 319.41467 
L 441.167758 319.27672 
L 441.035558 319.138769 
L 440.904301 319.000819 
L 440.77398 318.862869 
L 440.64459 318.724918 
L 440.516122 318.586968 
L 440.388571 318.449018 
L 440.26193 318.311067 
L 440.136193 318.173117 
L 440.011353 318.035167 
L 439.887403 317.897216 
L 439.764338 317.759266 
L 439.642151 317.621316 
L 439.520835 317.483366 
L 439.400385 317.345415 
L 439.280795 317.207465 
L 439.162058 317.069515 
L 439.044168 316.931564 
L 438.927119 316.793614 
L 438.810905 316.655664 
L 438.69552 316.517713 
L 438.580958 316.379763 
L 438.467214 316.241813 
L 438.354282 316.103862 
L 438.242155 315.965912 
L 438.130828 315.827962 
L 438.020295 315.690011 
L 437.910551 315.552061 
L 437.80159 315.414111 
L 437.693406 315.276161 
L 437.585995 315.13821 
L 437.479349 315.00026 
L 437.373465 314.86231 
L 437.268335 314.724359 
L 437.163956 314.586409 
L 437.060322 314.448459 
L 436.957427 314.310508 
L 436.855266 314.172558 
L 436.753834 314.034608 
L 436.653126 313.896657 
L 436.553136 313.758707 
L 436.45386 313.620757 
L 436.355292 313.482806 
L 436.257427 313.344856 
L 436.160261 313.206906 
L 436.063787 313.068955 
L 435.968002 312.931005 
L 435.872901 312.793055 
L 435.778478 312.655105 
L 435.684728 312.517154 
L 435.591648 312.379204 
L 435.499231 312.241254 
L 435.407474 312.103303 
L 435.316372 311.965353 
L 435.225919 311.827403 
L 435.136112 311.689452 
L 435.046946 311.551502 
L 434.958416 311.413552 
L 434.870517 311.275601 
L 434.783246 311.137651 
L 434.696597 310.999701 
L 434.610567 310.86175 
L 434.52515 310.7238 
L 434.440342 310.58585 
L 434.35614 310.447899 
L 434.272539 310.309949 
L 434.189534 310.171999 
L 434.107121 310.034049 
L 434.025296 309.896098 
L 433.944055 309.758148 
L 433.863394 309.620198 
L 433.783308 309.482247 
L 433.703793 309.344297 
L 433.624846 309.206347 
L 433.546462 309.068396 
L 433.468637 308.930446 
L 433.391368 308.792496 
L 433.31465 308.654545 
L 433.238479 308.516595 
L 433.162851 308.378645 
L 433.087764 308.240694 
L 433.013212 308.102744 
L 432.939191 307.964794 
L 432.939191 307.964794 
L 432.939191 278.592421 
L 424.851763 278.592421 
L 424.851763 276.491332 
L 432.939191 276.491332 
L 432.939191 266.650515 
z
" clip-path="url(#p4f825544d6)" style="fill: #d62728; fill-opacity: 0.5"/>
       </g>
       <g id="matplotlib.axis_1">
        <g id="xtick_1">
         <g id="line2d_1"/>
         <g id="text_1">
          <!-- OUT -->
          <g transform="translate(103.166044 332.720312) scale(0.1 -0.1)">
           <defs>
            <path id="DejaVuSans-4f" d="M 2522 4238 
Q 1834 4238 1429 3725 
Q 1025 3213 1025 2328 
Q 1025 1447 1429 934 
Q 1834 422 2522 422 
Q 3209 422 3611 934 
Q 4013 1447 4013 2328 
Q 4013 3213 3611 3725 
Q 3209 4238 2522 4238 
z
M 2522 4750 
Q 3503 4750 4090 4092 
Q 4678 3434 4678 2328 
Q 4678 1225 4090 567 
Q 3503 -91 2522 -91 
Q 1538 -91 948 565 
Q 359 1222 359 2328 
Q 359 3434 948 4092 
Q 1538 4750 2522 4750 
z
" transform="scale(0.015625)"/>
            <path id="DejaVuSans-55" d="M 556 4666 
L 1191 4666 
L 1191 1831 
Q 1191 1081 1462 751 
Q 1734 422 2344 422 
Q 2950 422 3222 751 
Q 3494 1081 3494 1831 
L 3494 4666 
L 4128 4666 
L 4128 1753 
Q 4128 841 3676 375 
Q 3225 -91 2344 -91 
Q 1459 -91 1007 375 
Q 556 841 556 1753 
L 556 4666 
z
" transform="scale(0.015625)"/>
            <path id="DejaVuSans-54" d="M -19 4666 
L 3928 4666 
L 3928 4134 
L 2272 4134 
L 2272 0 
L 1638 0 
L 1638 4134 
L -19 4134 
L -19 4666 
z
" transform="scale(0.015625)"/>
           </defs>
           <use xlink:href="#DejaVuSans-4f"/>
           <use xlink:href="#DejaVuSans-55" x="78.710938"/>
           <use xlink:href="#DejaVuSans-54" x="151.904297"/>
          </g>
         </g>
        </g>
        <g id="xtick_2">
         <g id="line2d_2"/>
         <g id="text_2">
          <!-- SRC -->
          <g transform="translate(536.277943 332.720312) scale(0.1 -0.1)">
           <defs>
            <path id="DejaVuSans-53" d="M 3425 4513 
L 3425 3897 
Q 3066 4069 2747 4153 
Q 2428 4238 2131 4238 
Q 1616 4238 1336 4038 
Q 1056 3838 1056 3469 
Q 1056 3159 1242 3001 
Q 1428 2844 1947 2747 
L 2328 2669 
Q 3034 2534 3370 2195 
Q 3706 1856 3706 1288 
Q 3706 609 3251 259 
Q 2797 -91 1919 -91 
Q 1588 -91 1214 -16 
Q 841 59 441 206 
L 441 856 
Q 825 641 1194 531 
Q 1563 422 1919 422 
Q 2459 422 2753 634 
Q 3047 847 3047 1241 
Q 3047 1584 2836 1778 
Q 2625 1972 2144 2069 
L 1759 2144 
Q 1053 2284 737 2584 
Q 422 2884 422 3419 
Q 422 4038 858 4394 
Q 1294 4750 2059 4750 
Q 2388 4750 2728 4690 
Q 3069 4631 3425 4513 
z
" transform="scale(0.015625)"/>
            <path id="DejaVuSans-52" d="M 2841 2188 
Q 3044 2119 3236 1894 
Q 3428 1669 3622 1275 
L 4263 0 
L 3584 0 
L 2988 1197 
Q 2756 1666 2539 1819 
Q 2322 1972 1947 1972 
L 1259 1972 
L 1259 0 
L 628 0 
L 628 4666 
L 2053 4666 
Q 2853 4666 3247 4331 
Q 3641 3997 3641 3322 
Q 3641 2881 3436 2590 
Q 3231 2300 2841 2188 
z
M 1259 4147 
L 1259 2491 
L 2053 2491 
Q 2509 2491 2742 2702 
Q 2975 2913 2975 3322 
Q 2975 3731 2742 3939 
Q 2509 4147 2053 4147 
L 1259 4147 
z
" transform="scale(0.015625)"/>
            <path id="DejaVuSans-43" d="M 4122 4306 
L 4122 3641 
Q 3803 3938 3442 4084 
Q 3081 4231 2675 4231 
Q 1875 4231 1450 3742 
Q 1025 3253 1025 2328 
Q 1025 1406 1450 917 
Q 1875 428 2675 428 
Q 3081 428 3442 575 
Q 3803 722 4122 1019 
L 4122 359 
Q 3791 134 3420 21 
Q 3050 -91 2638 -91 
Q 1578 -91 968 557 
Q 359 1206 359 2328 
Q 359 3453 968 4101 
Q 1578 4750 2638 4750 
Q 3056 4750 3426 4639 
Q 3797 4528 4122 4306 
z
" transform="scale(0.015625)"/>
           </defs>
           <use xlink:href="#DejaVuSans-53"/>
           <use xlink:href="#DejaVuSans-52" x="63.476562"/>
           <use xlink:href="#DejaVuSans-43" x="127.958984"/>
          </g>
         </g>
        </g>
        <g id="xtick_3">
         <g id="line2d_3"/>
         <g id="text_3">
          <!-- TAR -->
          <g transform="translate(413.077557 332.720312) scale(0.1 -0.1)">
           <defs>
            <path id="DejaVuSans-41" d="M 2188 4044 
L 1331 1722 
L 3047 1722 
L 2188 4044 
z
M 1831 4666 
L 2547 4666 
L 4325 0 
L 3669 0 
L 3244 1197 
L 1141 1197 
L 716 0 
L 50 0 
L 1831 4666 
z
" transform="scale(0.015625)"/>
           </defs>
           <use xlink:href="#DejaVuSans-54"/>
           <use xlink:href="#DejaVuSans-41" x="53.333984"/>
           <use xlink:href="#DejaVuSans-52" x="121.742188"/>
          </g>
         </g>
        </g>
       </g>
       <g id="matplotlib.axis_2">
        <g id="ytick_1">
         <g id="line2d_4">
          <defs>
           <path id="m4d11e4ebb5" d="M 0 0 
L -3.5 0 
" style="stroke: #000000; stroke-width: 0.8"/>
          </defs>
          <g>
           <use xlink:href="#m4d11e4ebb5" x="63.290625" y="321.621875" style="stroke: #000000; stroke-width: 0.8"/>
          </g>
         </g>
         <g id="text_4">
          <!-- 0 -->
          <g transform="translate(49.928125 325.421094) scale(0.1 -0.1)">
           <defs>
            <path id="DejaVuSans-30" d="M 2034 4250 
Q 1547 4250 1301 3770 
Q 1056 3291 1056 2328 
Q 1056 1369 1301 889 
Q 1547 409 2034 409 
Q 2525 409 2770 889 
Q 3016 1369 3016 2328 
Q 3016 3291 2770 3770 
Q 2525 4250 2034 4250 
z
M 2034 4750 
Q 2819 4750 3233 4129 
Q 3647 3509 3647 2328 
Q 3647 1150 3233 529 
Q 2819 -91 2034 -91 
Q 1250 -91 836 529 
Q 422 1150 422 2328 
Q 422 3509 836 4129 
Q 1250 4750 2034 4750 
z
" transform="scale(0.015625)"/>
           </defs>
           <use xlink:href="#DejaVuSans-30"/>
          </g>
         </g>
        </g>
        <g id="ytick_2">
         <g id="line2d_5">
          <g>
           <use xlink:href="#m4d11e4ebb5" x="63.290625" y="278.742499" style="stroke: #000000; stroke-width: 0.8"/>
          </g>
         </g>
         <g id="text_5">
          <!-- 2000 -->
          <g transform="translate(30.840625 282.541718) scale(0.1 -0.1)">
           <defs>
            <path id="DejaVuSans-32" d="M 1228 531 
L 3431 531 
L 3431 0 
L 469 0 
L 469 531 
Q 828 903 1448 1529 
Q 2069 2156 2228 2338 
Q 2531 2678 2651 2914 
Q 2772 3150 2772 3378 
Q 2772 3750 2511 3984 
Q 2250 4219 1831 4219 
Q 1534 4219 1204 4116 
Q 875 4013 500 3803 
L 500 4441 
Q 881 4594 1212 4672 
Q 1544 4750 1819 4750 
Q 2544 4750 2975 4387 
Q 3406 4025 3406 3419 
Q 3406 3131 3298 2873 
Q 3191 2616 2906 2266 
Q 2828 2175 2409 1742 
Q 1991 1309 1228 531 
z
" transform="scale(0.015625)"/>
           </defs>
           <use xlink:href="#DejaVuSans-32"/>
           <use xlink:href="#DejaVuSans-30" x="63.623047"/>
           <use xlink:href="#DejaVuSans-30" x="127.246094"/>
           <use xlink:href="#DejaVuSans-30" x="190.869141"/>
          </g>
         </g>
        </g>
        <g id="ytick_3">
         <g id="line2d_6">
          <g>
           <use xlink:href="#m4d11e4ebb5" x="63.290625" y="235.863123" style="stroke: #000000; stroke-width: 0.8"/>
          </g>
         </g>
         <g id="text_6">
          <!-- 4000 -->
          <g transform="translate(30.840625 239.662342) scale(0.1 -0.1)">
           <defs>
            <path id="DejaVuSans-34" d="M 2419 4116 
L 825 1625 
L 2419 1625 
L 2419 4116 
z
M 2253 4666 
L 3047 4666 
L 3047 1625 
L 3713 1625 
L 3713 1100 
L 3047 1100 
L 3047 0 
L 2419 0 
L 2419 1100 
L 313 1100 
L 313 1709 
L 2253 4666 
z
" transform="scale(0.015625)"/>
           </defs>
           <use xlink:href="#DejaVuSans-34"/>
           <use xlink:href="#DejaVuSans-30" x="63.623047"/>
           <use xlink:href="#DejaVuSans-30" x="127.246094"/>
           <use xlink:href="#DejaVuSans-30" x="190.869141"/>
          </g>
         </g>
        </g>
        <g id="ytick_4">
         <g id="line2d_7">
          <g>
           <use xlink:href="#m4d11e4ebb5" x="63.290625" y="192.983748" style="stroke: #000000; stroke-width: 0.8"/>
          </g>
         </g>
         <g id="text_7">
          <!-- 6000 -->
          <g transform="translate(30.840625 196.782966) scale(0.1 -0.1)">
           <defs>
            <path id="DejaVuSans-36" d="M 2113 2584 
Q 1688 2584 1439 2293 
Q 1191 2003 1191 1497 
Q 1191 994 1439 701 
Q 1688 409 2113 409 
Q 2538 409 2786 701 
Q 3034 994 3034 1497 
Q 3034 2003 2786 2293 
Q 2538 2584 2113 2584 
z
M 3366 4563 
L 3366 3988 
Q 3128 4100 2886 4159 
Q 2644 4219 2406 4219 
Q 1781 4219 1451 3797 
Q 1122 3375 1075 2522 
Q 1259 2794 1537 2939 
Q 1816 3084 2150 3084 
Q 2853 3084 3261 2657 
Q 3669 2231 3669 1497 
Q 3669 778 3244 343 
Q 2819 -91 2113 -91 
Q 1303 -91 875 529 
Q 447 1150 447 2328 
Q 447 3434 972 4092 
Q 1497 4750 2381 4750 
Q 2619 4750 2861 4703 
Q 3103 4656 3366 4563 
z
" transform="scale(0.015625)"/>
           </defs>
           <use xlink:href="#DejaVuSans-36"/>
           <use xlink:href="#DejaVuSans-30" x="63.623047"/>
           <use xlink:href="#DejaVuSans-30" x="127.246094"/>
           <use xlink:href="#DejaVuSans-30" x="190.869141"/>
          </g>
         </g>
        </g>
        <g id="ytick_5">
         <g id="line2d_8">
          <g>
           <use xlink:href="#m4d11e4ebb5" x="63.290625" y="150.104372" style="stroke: #000000; stroke-width: 0.8"/>
          </g>
         </g>
         <g id="text_8">
          <!-- 8000 -->
          <g transform="translate(30.840625 153.903591) scale(0.1 -0.1)">
           <defs>
            <path id="DejaVuSans-38" d="M 2034 2216 
Q 1584 2216 1326 1975 
Q 1069 1734 1069 1313 
Q 1069 891 1326 650 
Q 1584 409 2034 409 
Q 2484 409 2743 651 
Q 3003 894 3003 1313 
Q 3003 1734 2745 1975 
Q 2488 2216 2034 2216 
z
M 1403 2484 
Q 997 2584 770 2862 
Q 544 3141 544 3541 
Q 544 4100 942 4425 
Q 1341 4750 2034 4750 
Q 2731 4750 3128 4425 
Q 3525 4100 3525 3541 
Q 3525 3141 3298 2862 
Q 3072 2584 2669 2484 
Q 3125 2378 3379 2068 
Q 3634 1759 3634 1313 
Q 3634 634 3220 271 
Q 2806 -91 2034 -91 
Q 1263 -91 848 271 
Q 434 634 434 1313 
Q 434 1759 690 2068 
Q 947 2378 1403 2484 
z
M 1172 3481 
Q 1172 3119 1398 2916 
Q 1625 2713 2034 2713 
Q 2441 2713 2670 2916 
Q 2900 3119 2900 3481 
Q 2900 3844 2670 4047 
Q 2441 4250 2034 4250 
Q 1625 4250 1398 4047 
Q 1172 3844 1172 3481 
z
" transform="scale(0.015625)"/>
           </defs>
           <use xlink:href="#DejaVuSans-38"/>
           <use xlink:href="#DejaVuSans-30" x="63.623047"/>
           <use xlink:href="#DejaVuSans-30" x="127.246094"/>
           <use xlink:href="#DejaVuSans-30" x="190.869141"/>
          </g>
         </g>
        </g>
        <g id="ytick_6">
         <g id="line2d_9">
          <g>
           <use xlink:href="#m4d11e4ebb5" x="63.290625" y="107.224996" style="stroke: #000000; stroke-width: 0.8"/>
          </g>
         </g>
         <g id="text_9">
          <!-- 10000 -->
          <g transform="translate(24.478125 111.024215) scale(0.1 -0.1)">
           <defs>
            <path id="DejaVuSans-31" d="M 794 531 
L 1825 531 
L 1825 4091 
L 703 3866 
L 703 4441 
L 1819 4666 
L 2450 4666 
L 2450 531 
L 3481 531 
L 3481 0 
L 794 0 
L 794 531 
z
" transform="scale(0.015625)"/>
           </defs>
           <use xlink:href="#DejaVuSans-31"/>
           <use xlink:href="#DejaVuSans-30" x="63.623047"/>
           <use xlink:href="#DejaVuSans-30" x="127.246094"/>
           <use xlink:href="#DejaVuSans-30" x="190.869141"/>
           <use xlink:href="#DejaVuSans-30" x="254.492188"/>
          </g>
         </g>
        </g>
        <g id="ytick_7">
         <g id="line2d_10">
          <g>
           <use xlink:href="#m4d11e4ebb5" x="63.290625" y="64.34562" style="stroke: #000000; stroke-width: 0.8"/>
          </g>
         </g>
         <g id="text_10">
          <!-- 12000 -->
          <g transform="translate(24.478125 68.144839) scale(0.1 -0.1)">
           <use xlink:href="#DejaVuSans-31"/>
           <use xlink:href="#DejaVuSans-32" x="63.623047"/>
           <use xlink:href="#DejaVuSans-30" x="127.246094"/>
           <use xlink:href="#DejaVuSans-30" x="190.869141"/>
           <use xlink:href="#DejaVuSans-30" x="254.492188"/>
          </g>
         </g>
        </g>
        <g id="ytick_8">
         <g id="line2d_11">
          <g>
           <use xlink:href="#m4d11e4ebb5" x="63.290625" y="21.466245" style="stroke: #000000; stroke-width: 0.8"/>
          </g>
         </g>
         <g id="text_11">
          <!-- 14000 -->
          <g transform="translate(24.478125 25.265463) scale(0.1 -0.1)">
           <use xlink:href="#DejaVuSans-31"/>
           <use xlink:href="#DejaVuSans-34" x="63.623047"/>
           <use xlink:href="#DejaVuSans-30" x="127.246094"/>
           <use xlink:href="#DejaVuSans-30" x="190.869141"/>
           <use xlink:href="#DejaVuSans-30" x="254.492188"/>
          </g>
         </g>
        </g>
        <g id="text_12">
         <!-- time ago (generations) -->
         <g transform="translate(18.398438 223.682031) rotate(-90) scale(0.1 -0.1)">
          <defs>
           <path id="DejaVuSans-74" d="M 1172 4494 
L 1172 3500 
L 2356 3500 
L 2356 3053 
L 1172 3053 
L 1172 1153 
Q 1172 725 1289 603 
Q 1406 481 1766 481 
L 2356 481 
L 2356 0 
L 1766 0 
Q 1100 0 847 248 
Q 594 497 594 1153 
L 594 3053 
L 172 3053 
L 172 3500 
L 594 3500 
L 594 4494 
L 1172 4494 
z
" transform="scale(0.015625)"/>
           <path id="DejaVuSans-69" d="M 603 3500 
L 1178 3500 
L 1178 0 
L 603 0 
L 603 3500 
z
M 603 4863 
L 1178 4863 
L 1178 4134 
L 603 4134 
L 603 4863 
z
" transform="scale(0.015625)"/>
           <path id="DejaVuSans-6d" d="M 3328 2828 
Q 3544 3216 3844 3400 
Q 4144 3584 4550 3584 
Q 5097 3584 5394 3201 
Q 5691 2819 5691 2113 
L 5691 0 
L 5113 0 
L 5113 2094 
Q 5113 2597 4934 2840 
Q 4756 3084 4391 3084 
Q 3944 3084 3684 2787 
Q 3425 2491 3425 1978 
L 3425 0 
L 2847 0 
L 2847 2094 
Q 2847 2600 2669 2842 
Q 2491 3084 2119 3084 
Q 1678 3084 1418 2786 
Q 1159 2488 1159 1978 
L 1159 0 
L 581 0 
L 581 3500 
L 1159 3500 
L 1159 2956 
Q 1356 3278 1631 3431 
Q 1906 3584 2284 3584 
Q 2666 3584 2933 3390 
Q 3200 3197 3328 2828 
z
" transform="scale(0.015625)"/>
           <path id="DejaVuSans-65" d="M 3597 1894 
L 3597 1613 
L 953 1613 
Q 991 1019 1311 708 
Q 1631 397 2203 397 
Q 2534 397 2845 478 
Q 3156 559 3463 722 
L 3463 178 
Q 3153 47 2828 -22 
Q 2503 -91 2169 -91 
Q 1331 -91 842 396 
Q 353 884 353 1716 
Q 353 2575 817 3079 
Q 1281 3584 2069 3584 
Q 2775 3584 3186 3129 
Q 3597 2675 3597 1894 
z
M 3022 2063 
Q 3016 2534 2758 2815 
Q 2500 3097 2075 3097 
Q 1594 3097 1305 2825 
Q 1016 2553 972 2059 
L 3022 2063 
z
" transform="scale(0.015625)"/>
           <path id="DejaVuSans-20" transform="scale(0.015625)"/>
           <path id="DejaVuSans-61" d="M 2194 1759 
Q 1497 1759 1228 1600 
Q 959 1441 959 1056 
Q 959 750 1161 570 
Q 1363 391 1709 391 
Q 2188 391 2477 730 
Q 2766 1069 2766 1631 
L 2766 1759 
L 2194 1759 
z
M 3341 1997 
L 3341 0 
L 2766 0 
L 2766 531 
Q 2569 213 2275 61 
Q 1981 -91 1556 -91 
Q 1019 -91 701 211 
Q 384 513 384 1019 
Q 384 1609 779 1909 
Q 1175 2209 1959 2209 
L 2766 2209 
L 2766 2266 
Q 2766 2663 2505 2880 
Q 2244 3097 1772 3097 
Q 1472 3097 1187 3025 
Q 903 2953 641 2809 
L 641 3341 
Q 956 3463 1253 3523 
Q 1550 3584 1831 3584 
Q 2591 3584 2966 3190 
Q 3341 2797 3341 1997 
z
" transform="scale(0.015625)"/>
           <path id="DejaVuSans-67" d="M 2906 1791 
Q 2906 2416 2648 2759 
Q 2391 3103 1925 3103 
Q 1463 3103 1205 2759 
Q 947 2416 947 1791 
Q 947 1169 1205 825 
Q 1463 481 1925 481 
Q 2391 481 2648 825 
Q 2906 1169 2906 1791 
z
M 3481 434 
Q 3481 -459 3084 -895 
Q 2688 -1331 1869 -1331 
Q 1566 -1331 1297 -1286 
Q 1028 -1241 775 -1147 
L 775 -588 
Q 1028 -725 1275 -790 
Q 1522 -856 1778 -856 
Q 2344 -856 2625 -561 
Q 2906 -266 2906 331 
L 2906 616 
Q 2728 306 2450 153 
Q 2172 0 1784 0 
Q 1141 0 747 490 
Q 353 981 353 1791 
Q 353 2603 747 3093 
Q 1141 3584 1784 3584 
Q 2172 3584 2450 3431 
Q 2728 3278 2906 2969 
L 2906 3500 
L 3481 3500 
L 3481 434 
z
" transform="scale(0.015625)"/>
           <path id="DejaVuSans-6f" d="M 1959 3097 
Q 1497 3097 1228 2736 
Q 959 2375 959 1747 
Q 959 1119 1226 758 
Q 1494 397 1959 397 
Q 2419 397 2687 759 
Q 2956 1122 2956 1747 
Q 2956 2369 2687 2733 
Q 2419 3097 1959 3097 
z
M 1959 3584 
Q 2709 3584 3137 3096 
Q 3566 2609 3566 1747 
Q 3566 888 3137 398 
Q 2709 -91 1959 -91 
Q 1206 -91 779 398 
Q 353 888 353 1747 
Q 353 2609 779 3096 
Q 1206 3584 1959 3584 
z
" transform="scale(0.015625)"/>
           <path id="DejaVuSans-28" d="M 1984 4856 
Q 1566 4138 1362 3434 
Q 1159 2731 1159 2009 
Q 1159 1288 1364 580 
Q 1569 -128 1984 -844 
L 1484 -844 
Q 1016 -109 783 600 
Q 550 1309 550 2009 
Q 550 2706 781 3412 
Q 1013 4119 1484 4856 
L 1984 4856 
z
" transform="scale(0.015625)"/>
           <path id="DejaVuSans-6e" d="M 3513 2113 
L 3513 0 
L 2938 0 
L 2938 2094 
Q 2938 2591 2744 2837 
Q 2550 3084 2163 3084 
Q 1697 3084 1428 2787 
Q 1159 2491 1159 1978 
L 1159 0 
L 581 0 
L 581 3500 
L 1159 3500 
L 1159 2956 
Q 1366 3272 1645 3428 
Q 1925 3584 2291 3584 
Q 2894 3584 3203 3211 
Q 3513 2838 3513 2113 
z
" transform="scale(0.015625)"/>
           <path id="DejaVuSans-72" d="M 2631 2963 
Q 2534 3019 2420 3045 
Q 2306 3072 2169 3072 
Q 1681 3072 1420 2755 
Q 1159 2438 1159 1844 
L 1159 0 
L 581 0 
L 581 3500 
L 1159 3500 
L 1159 2956 
Q 1341 3275 1631 3429 
Q 1922 3584 2338 3584 
Q 2397 3584 2469 3576 
Q 2541 3569 2628 3553 
L 2631 2963 
z
" transform="scale(0.015625)"/>
           <path id="DejaVuSans-73" d="M 2834 3397 
L 2834 2853 
Q 2591 2978 2328 3040 
Q 2066 3103 1784 3103 
Q 1356 3103 1142 2972 
Q 928 2841 928 2578 
Q 928 2378 1081 2264 
Q 1234 2150 1697 2047 
L 1894 2003 
Q 2506 1872 2764 1633 
Q 3022 1394 3022 966 
Q 3022 478 2636 193 
Q 2250 -91 1575 -91 
Q 1294 -91 989 -36 
Q 684 19 347 128 
L 347 722 
Q 666 556 975 473 
Q 1284 391 1588 391 
Q 1994 391 2212 530 
Q 2431 669 2431 922 
Q 2431 1156 2273 1281 
Q 2116 1406 1581 1522 
L 1381 1569 
Q 847 1681 609 1914 
Q 372 2147 372 2553 
Q 372 3047 722 3315 
Q 1072 3584 1716 3584 
Q 2034 3584 2315 3537 
Q 2597 3491 2834 3397 
z
" transform="scale(0.015625)"/>
           <path id="DejaVuSans-29" d="M 513 4856 
L 1013 4856 
Q 1481 4119 1714 3412 
Q 1947 2706 1947 2009 
Q 1947 1309 1714 600 
Q 1481 -109 1013 -844 
L 513 -844 
Q 928 -128 1133 580 
Q 1338 1288 1338 2009 
Q 1338 2731 1133 3434 
Q 928 4138 513 4856 
z
" transform="scale(0.015625)"/>
          </defs>
          <use xlink:href="#DejaVuSans-74"/>
          <use xlink:href="#DejaVuSans-69" x="39.208984"/>
          <use xlink:href="#DejaVuSans-6d" x="66.992188"/>
          <use xlink:href="#DejaVuSans-65" x="164.404297"/>
          <use xlink:href="#DejaVuSans-20" x="225.927734"/>
          <use xlink:href="#DejaVuSans-61" x="257.714844"/>
          <use xlink:href="#DejaVuSans-67" x="318.994141"/>
          <use xlink:href="#DejaVuSans-6f" x="382.470703"/>
          <use xlink:href="#DejaVuSans-20" x="443.652344"/>
          <use xlink:href="#DejaVuSans-28" x="475.439453"/>
          <use xlink:href="#DejaVuSans-67" x="514.453125"/>
          <use xlink:href="#DejaVuSans-65" x="577.929688"/>
          <use xlink:href="#DejaVuSans-6e" x="639.453125"/>
          <use xlink:href="#DejaVuSans-65" x="702.832031"/>
          <use xlink:href="#DejaVuSans-72" x="764.355469"/>
          <use xlink:href="#DejaVuSans-61" x="805.46875"/>
          <use xlink:href="#DejaVuSans-74" x="866.748047"/>
          <use xlink:href="#DejaVuSans-69" x="905.957031"/>
          <use xlink:href="#DejaVuSans-6f" x="933.740234"/>
          <use xlink:href="#DejaVuSans-6e" x="994.921875"/>
          <use xlink:href="#DejaVuSans-73" x="1058.300781"/>
          <use xlink:href="#DejaVuSans-29" x="1110.400391"/>
         </g>
        </g>
       </g>
       <g id="patch_7">
        <path d="M 224.149703 251.020983 
L 223.149703 250.989546 
L 222.149703 250.952606 
L 221.149703 250.854859 
L 220.149703 250.822338 
L 219.149703 250.748713 
L 218.149703 250.710148 
L 217.149703 250.674734 
L 216.149703 250.617095 
L 215.149703 250.546708 
L 214.149703 250.494744 
L 213.149703 250.435654 
L 212.149703 250.347333 
L 211.149703 250.301189 
L 210.149703 250.258778 
L 209.149703 250.228285 
L 208.149703 250.202241 
L 207.149703 250.18104 
L 206.149703 250.126739 
L 205.149703 250.098802 
L 204.149703 250.069078 
L 203.149703 250.043683 
L 202.149703 250.032483 
L 201.149703 250.022359 
L 200.149703 250.022563 
L 199.149703 250.032073 
L 198.149703 250.043726 
L 197.149703 250.074756 
L 196.149703 250.085924 
L 195.149703 250.116041 
L 194.149703 250.175818 
L 193.149703 250.21301 
L 192.149703 250.252106 
L 191.149703 250.294545 
L 190.149703 250.32731 
L 189.149703 250.394737 
L 188.149703 250.433863 
L 187.149703 250.476537 
L 186.149703 250.547118 
L 185.149703 250.583509 
L 184.149703 250.641912 
L 183.149703 250.752865 
L 182.149703 250.823523 
L 181.149703 250.936463 
L 180.149703 250.982236 
L 179.149703 251.043519 
L 178.149703 251.092018 
L 177.149703 251.172841 
L 176.149703 251.29136 
L 175.149703 251.36157 
L 174.149703 251.444833 
L 173.149703 251.477975 
L 172.149703 251.529212 
L 171.149703 251.59761 
L 170.149703 251.663826 
L 169.149703 251.740743 
L 168.149703 251.768058 
L 167.149703 251.794536 
L 166.149703 251.817186 
L 165.149703 251.836718 
L 164.149703 251.863112 
L 163.149703 251.912883 
L 162.149703 251.947956 
L 161.149703 251.983821 
L 160.149703 251.999189 
L 159.149703 252.014958 
L 158.149703 252.01837 
L 157.149703 252.020788 
L 156.149703 252.020302 
L 155.149703 252.018373 
L 154.149703 252.005116 
L 153.149703 251.996725 
L 152.149703 251.975188 
L 151.149703 251.952156 
L 150.149703 251.934922 
L 149.149703 251.91646 
L 148.149703 251.896007 
L 147.149703 251.879408 
L 146.149703 251.816629 
L 145.149703 251.741364 
L 144.149703 251.708725 
L 143.149703 251.641161 
L 142.149703 251.587114 
L 141.149703 251.55341 
L 140.149703 251.463284 
L 139.149703 251.434749 
L 138.149703 251.403263 
L 137.149703 251.372252 
L 136.149703 251.317444 
L 135.149703 251.252856 
L 134.149703 251.214661 
L 133.149703 251.118727 
L 132.149703 251.069469 
L 131.149703 251.025399 
L 130.149703 250.985276 
L 129.149703 250.876909 
L 127.604574 250.835281 
" clip-path="url(#p4f825544d6)" style="fill: none; stroke: #ffffff; stroke-width: 3; stroke-linecap: round"/>
        <path d="M 224.149703 251.020983 
L 223.149703 250.989546 
L 222.149703 250.952606 
L 221.149703 250.854859 
L 220.149703 250.822338 
L 219.149703 250.748713 
L 218.149703 250.710148 
L 217.149703 250.674734 
L 216.149703 250.617095 
L 215.149703 250.546708 
L 214.149703 250.494744 
L 213.149703 250.435654 
L 212.149703 250.347333 
L 211.149703 250.301189 
L 210.149703 250.258778 
L 209.149703 250.228285 
L 208.149703 250.202241 
L 207.149703 250.18104 
L 206.149703 250.126739 
L 205.149703 250.098802 
L 204.149703 250.069078 
L 203.149703 250.043683 
L 202.149703 250.032483 
L 201.149703 250.022359 
L 200.149703 250.022563 
L 199.149703 250.032073 
L 198.149703 250.043726 
L 197.149703 250.074756 
L 196.149703 250.085924 
L 195.149703 250.116041 
L 194.149703 250.175818 
L 193.149703 250.21301 
L 192.149703 250.252106 
L 191.149703 250.294545 
L 190.149703 250.32731 
L 189.149703 250.394737 
L 188.149703 250.433863 
L 187.149703 250.476537 
L 186.149703 250.547118 
L 185.149703 250.583509 
L 184.149703 250.641912 
L 183.149703 250.752865 
L 182.149703 250.823523 
L 181.149703 250.936463 
L 180.149703 250.982236 
L 179.149703 251.043519 
L 178.149703 251.092018 
L 177.149703 251.172841 
L 176.149703 251.29136 
L 175.149703 251.36157 
L 174.149703 251.444833 
L 173.149703 251.477975 
L 172.149703 251.529212 
L 171.149703 251.59761 
L 170.149703 251.663826 
L 169.149703 251.740743 
L 168.149703 251.768058 
L 167.149703 251.794536 
L 166.149703 251.817186 
L 165.149703 251.836718 
L 164.149703 251.863112 
L 163.149703 251.912883 
L 162.149703 251.947956 
L 161.149703 251.983821 
L 160.149703 251.999189 
L 159.149703 252.014958 
L 158.149703 252.01837 
L 157.149703 252.020788 
L 156.149703 252.020302 
L 155.149703 252.018373 
L 154.149703 252.005116 
L 153.149703 251.996725 
L 152.149703 251.975188 
L 151.149703 251.952156 
L 150.149703 251.934922 
L 149.149703 251.91646 
L 148.149703 251.896007 
L 147.149703 251.879408 
L 146.149703 251.816629 
L 145.149703 251.741364 
L 144.149703 251.708725 
L 143.149703 251.641161 
L 142.149703 251.587114 
L 141.149703 251.55341 
L 140.149703 251.463284 
L 139.149703 251.434749 
L 138.149703 251.403263 
L 137.149703 251.372252 
L 136.149703 251.317444 
L 135.149703 251.252856 
L 134.149703 251.214661 
L 133.149703 251.118727 
L 132.149703 251.069469 
L 131.149703 251.025399 
L 130.149703 250.985276 
L 129.149703 250.876909 
L 127.604574 250.835281 
" clip-path="url(#p4f825544d6)" style="fill: none; stroke: #1f77b4; stroke-linecap: round"/>
        <path d="M 131.604574 253.020983 
L 130.724205 252.545652 
L 129.846298 252.065398 
L 128.995585 251.530757 
L 127.693411 250.843309 
L 128.620764 250.817295 
L 129.532438 250.404575 
L 130.442702 249.989036 
L 131.785198 249.382232 
L 131.130299 250.020983 
L 131.078335 251.020983 
L 131.019245 253.020983 
z
" clip-path="url(#p4f825544d6)" style="fill: #ffffff; stroke: #ffffff; stroke-width: 3; stroke-linecap: round"/>
        <path d="M 131.604574 253.020983 
L 130.724205 252.545652 
L 129.846298 252.065398 
L 128.995585 251.530757 
L 127.693411 250.843309 
L 128.620764 250.817295 
L 129.532438 250.404575 
L 130.442702 249.989036 
L 131.785198 249.382232 
L 131.130299 250.020983 
L 131.078335 251.020983 
L 131.019245 253.020983 
z
" clip-path="url(#p4f825544d6)" style="fill: #ffffff; stroke: #1f77b4; stroke-linecap: round"/>
        <g id="patch_8">
         <path d="M 374.071705 72.964375 
L 375.071705 72.995811 
L 376.071705 73.032752 
L 377.071705 73.130498 
L 378.071705 73.16302 
L 379.071705 73.236645 
L 380.071705 73.27521 
L 381.071705 73.310623 
L 382.071705 73.368263 
L 383.071705 73.438649 
L 384.071705 73.490614 
L 385.071705 73.549703 
L 386.071705 73.638024 
L 387.071705 73.684169 
L 388.071705 73.72658 
L 389.071705 73.757072 
L 390.071705 73.783117 
L 391.071705 73.804317 
L 392.071705 73.858618 
L 393.071705 73.886556 
L 394.071705 73.91628 
L 395.071705 73.941675 
L 396.071705 73.952875 
L 397.071705 73.962999 
L 398.071705 73.962795 
L 399.071705 73.953285 
L 400.071705 73.941631 
L 401.071705 73.910602 
L 402.071705 73.899434 
L 403.071705 73.869317 
L 404.071705 73.80954 
L 405.071705 73.772348 
L 406.071705 73.733252 
L 407.071705 73.690812 
L 408.071705 73.658047 
L 409.071705 73.590621 
L 410.071705 73.551495 
L 411.071705 73.50882 
L 412.071705 73.43824 
L 413.071705 73.401849 
L 414.071705 73.343446 
L 415.071705 73.232493 
L 416.071705 73.161835 
L 417.071705 73.048895 
L 418.071705 73.003122 
L 419.071705 72.941839 
L 420.071705 72.89334 
L 421.071705 72.812517 
L 422.071705 72.693998 
L 423.071705 72.623787 
L 424.071705 72.540525 
L 425.071705 72.507383 
L 426.071705 72.456146 
L 427.071705 72.387747 
L 428.071705 72.321532 
L 429.071705 72.244615 
L 430.071705 72.217299 
L 431.071705 72.190822 
L 432.071705 72.168171 
L 433.071705 72.14864 
L 434.071705 72.122246 
L 435.071705 72.072475 
L 436.071705 72.037402 
L 437.071705 72.001536 
L 438.071705 71.986169 
L 439.071705 71.9704 
L 440.071705 71.966987 
L 441.071705 71.96457 
L 442.071705 71.965056 
L 443.071705 71.966985 
L 444.071705 71.980242 
L 445.071705 71.988633 
L 446.071705 72.010169 
L 447.071705 72.033202 
L 448.071705 72.050435 
L 449.071705 72.068898 
L 450.071705 72.08935 
L 451.071705 72.10595 
L 452.071705 72.168729 
L 453.071705 72.243994 
L 454.071705 72.276633 
L 455.071705 72.344197 
L 456.071705 72.398244 
L 457.071705 72.431948 
L 458.071705 72.522074 
L 459.071705 72.550609 
L 460.071705 72.582095 
L 461.071705 72.613106 
L 462.071705 72.667914 
L 463.071705 72.732501 
L 464.071705 72.770697 
L 465.071705 72.866631 
L 466.071705 72.915889 
L 467.071705 72.959958 
L 468.071705 73.000082 
L 469.071705 73.108449 
L 470.071705 73.150077 
L 471.071705 73.212219 
L 472.071705 73.282181 
L 473.071705 73.386685 
L 474.071705 73.423673 
L 475.071705 73.46955 
L 476.071705 73.538045 
L 477.071705 73.586791 
L 478.071705 73.664388 
L 479.071705 73.694929 
L 480.071705 73.764443 
L 481.071705 73.788416 
L 482.071705 73.817038 
L 483.071705 73.858831 
L 484.071705 73.880407 
L 485.071705 73.894355 
L 486.071705 73.921077 
L 487.071705 73.930387 
L 488.071705 73.942834 
L 489.071705 73.953889 
L 490.071705 73.959553 
L 491.071705 73.964317 
L 492.071705 73.958769 
L 493.071705 73.945481 
L 494.071705 73.937964 
L 495.071705 73.913179 
L 496.071705 73.88961 
L 497.071705 73.85343 
L 498.071705 73.827468 
L 499.071705 73.805146 
L 500.071705 73.736386 
L 501.071705 73.661851 
L 502.071705 73.567872 
L 503.071705 73.51682 
L 504.071705 73.462886 
L 505.071705 73.427635 
L 506.071705 73.321547 
L 507.071705 73.269283 
L 508.071705 73.232376 
L 509.071705 73.201345 
L 510.175891 73.14019 
" clip-path="url(#p4f825544d6)" style="fill: none; stroke: #ffffff; stroke-width: 3; stroke-linecap: round"/>
         <path d="M 374.071705 72.964375 
L 375.071705 72.995811 
L 376.071705 73.032752 
L 377.071705 73.130498 
L 378.071705 73.16302 
L 379.071705 73.236645 
L 380.071705 73.27521 
L 381.071705 73.310623 
L 382.071705 73.368263 
L 383.071705 73.438649 
L 384.071705 73.490614 
L 385.071705 73.549703 
L 386.071705 73.638024 
L 387.071705 73.684169 
L 388.071705 73.72658 
L 389.071705 73.757072 
L 390.071705 73.783117 
L 391.071705 73.804317 
L 392.071705 73.858618 
L 393.071705 73.886556 
L 394.071705 73.91628 
L 395.071705 73.941675 
L 396.071705 73.952875 
L 397.071705 73.962999 
L 398.071705 73.962795 
L 399.071705 73.953285 
L 400.071705 73.941631 
L 401.071705 73.910602 
L 402.071705 73.899434 
L 403.071705 73.869317 
L 404.071705 73.80954 
L 405.071705 73.772348 
L 406.071705 73.733252 
L 407.071705 73.690812 
L 408.071705 73.658047 
L 409.071705 73.590621 
L 410.071705 73.551495 
L 411.071705 73.50882 
L 412.071705 73.43824 
L 413.071705 73.401849 
L 414.071705 73.343446 
L 415.071705 73.232493 
L 416.071705 73.161835 
L 417.071705 73.048895 
L 418.071705 73.003122 
L 419.071705 72.941839 
L 420.071705 72.89334 
L 421.071705 72.812517 
L 422.071705 72.693998 
L 423.071705 72.623787 
L 424.071705 72.540525 
L 425.071705 72.507383 
L 426.071705 72.456146 
L 427.071705 72.387747 
L 428.071705 72.321532 
L 429.071705 72.244615 
L 430.071705 72.217299 
L 431.071705 72.190822 
L 432.071705 72.168171 
L 433.071705 72.14864 
L 434.071705 72.122246 
L 435.071705 72.072475 
L 436.071705 72.037402 
L 437.071705 72.001536 
L 438.071705 71.986169 
L 439.071705 71.9704 
L 440.071705 71.966987 
L 441.071705 71.96457 
L 442.071705 71.965056 
L 443.071705 71.966985 
L 444.071705 71.980242 
L 445.071705 71.988633 
L 446.071705 72.010169 
L 447.071705 72.033202 
L 448.071705 72.050435 
L 449.071705 72.068898 
L 450.071705 72.08935 
L 451.071705 72.10595 
L 452.071705 72.168729 
L 453.071705 72.243994 
L 454.071705 72.276633 
L 455.071705 72.344197 
L 456.071705 72.398244 
L 457.071705 72.431948 
L 458.071705 72.522074 
L 459.071705 72.550609 
L 460.071705 72.582095 
L 461.071705 72.613106 
L 462.071705 72.667914 
L 463.071705 72.732501 
L 464.071705 72.770697 
L 465.071705 72.866631 
L 466.071705 72.915889 
L 467.071705 72.959958 
L 468.071705 73.000082 
L 469.071705 73.108449 
L 470.071705 73.150077 
L 471.071705 73.212219 
L 472.071705 73.282181 
L 473.071705 73.386685 
L 474.071705 73.423673 
L 475.071705 73.46955 
L 476.071705 73.538045 
L 477.071705 73.586791 
L 478.071705 73.664388 
L 479.071705 73.694929 
L 480.071705 73.764443 
L 481.071705 73.788416 
L 482.071705 73.817038 
L 483.071705 73.858831 
L 484.071705 73.880407 
L 485.071705 73.894355 
L 486.071705 73.921077 
L 487.071705 73.930387 
L 488.071705 73.942834 
L 489.071705 73.953889 
L 490.071705 73.959553 
L 491.071705 73.964317 
L 492.071705 73.958769 
L 493.071705 73.945481 
L 494.071705 73.937964 
L 495.071705 73.913179 
L 496.071705 73.88961 
L 497.071705 73.85343 
L 498.071705 73.827468 
L 499.071705 73.805146 
L 500.071705 73.736386 
L 501.071705 73.661851 
L 502.071705 73.567872 
L 503.071705 73.51682 
L 504.071705 73.462886 
L 505.071705 73.427635 
L 506.071705 73.321547 
L 507.071705 73.269283 
L 508.071705 73.232376 
L 509.071705 73.201345 
L 510.175891 73.14019 
" clip-path="url(#p4f825544d6)" style="fill: none; stroke: #1f77b4; stroke-linecap: round"/>
         <path d="M 506.175891 70.964375 
L 507.056259 71.439706 
L 507.934166 71.91996 
L 508.78488 72.454601 
L 510.087054 73.142048 
L 509.159701 73.168063 
L 508.248027 73.580783 
L 507.337762 73.996322 
L 505.995266 74.603126 
L 506.650165 73.964375 
L 506.702129 72.964375 
L 506.761219 70.964375 
z
" clip-path="url(#p4f825544d6)" style="fill: #ffffff; stroke: #ffffff; stroke-width: 3; stroke-linecap: round"/>
         <path d="M 506.175891 70.964375 
L 507.056259 71.439706 
L 507.934166 71.91996 
L 508.78488 72.454601 
L 510.087054 73.142048 
L 509.159701 73.168063 
L 508.248027 73.580783 
L 507.337762 73.996322 
L 505.995266 74.603126 
L 506.650165 73.964375 
L 506.702129 72.964375 
L 506.761219 70.964375 
z
" clip-path="url(#p4f825544d6)" style="fill: #ffffff; stroke: #1f77b4; stroke-linecap: round"/>
         <g id="patch_9">
          <path d="M 126.486791 266.650515 
L 127.486791 266.681952 
L 128.486791 266.718892 
L 129.486791 266.816639 
L 130.486791 266.84916 
L 131.486791 266.922785 
L 132.486791 266.961351 
L 133.486791 266.996764 
L 134.486791 267.054404 
L 135.486791 267.12479 
L 136.486791 267.176754 
L 137.486791 267.235844 
L 138.486791 267.324165 
L 139.486791 267.370309 
L 140.486791 267.41272 
L 141.486791 267.443213 
L 142.486791 267.469258 
L 143.486791 267.490458 
L 144.486791 267.544759 
L 145.486791 267.572696 
L 146.486791 267.60242 
L 147.486791 267.627815 
L 148.486791 267.639016 
L 149.486791 267.649139 
L 150.486791 267.648935 
L 151.486791 267.639425 
L 152.486791 267.627772 
L 153.486791 267.596742 
L 154.486791 267.585575 
L 155.486791 267.555457 
L 156.486791 267.49568 
L 157.486791 267.458489 
L 158.486791 267.419392 
L 159.486791 267.376953 
L 160.486791 267.344188 
L 161.486791 267.276761 
L 162.486791 267.237635 
L 163.486791 267.194961 
L 164.486791 267.12438 
L 165.486791 267.087989 
L 166.486791 267.029586 
L 167.486791 266.918634 
L 168.486791 266.847975 
L 169.486791 266.735035 
L 170.486791 266.689263 
L 171.486791 266.627979 
L 172.486791 266.57948 
L 173.486791 266.498657 
L 174.486791 266.380138 
L 175.486791 266.309928 
L 176.486791 266.226665 
L 177.486791 266.193523 
L 178.486791 266.142286 
L 179.486791 266.073888 
L 180.486791 266.007672 
L 181.486791 265.930755 
L 182.486791 265.90344 
L 183.486791 265.876962 
L 184.486791 265.854312 
L 185.486791 265.83478 
L 186.486791 265.808386 
L 187.486791 265.758616 
L 188.486791 265.723542 
L 189.486791 265.687677 
L 190.486791 265.672309 
L 191.486791 265.65654 
L 192.486791 265.653128 
L 193.486791 265.65071 
L 194.486791 265.651196 
L 195.486791 265.653125 
L 196.486791 265.666382 
L 197.486791 265.674773 
L 198.486791 265.69631 
L 199.486791 265.719342 
L 200.486791 265.736576 
L 201.486791 265.755038 
L 202.486791 265.775491 
L 203.486791 265.792091 
L 204.486791 265.854869 
L 205.486791 265.930134 
L 206.486791 265.962773 
L 207.486791 266.030337 
L 208.486791 266.084384 
L 209.486791 266.118088 
L 210.486791 266.208214 
L 211.486791 266.236749 
L 212.486791 266.268235 
L 213.486791 266.299246 
L 214.486791 266.354054 
L 215.486791 266.418642 
L 216.486791 266.456837 
L 217.486791 266.552771 
L 218.486791 266.602029 
L 219.486791 266.646099 
L 220.486791 266.686222 
L 221.486791 266.794589 
L 222.486791 266.836217 
L 223.486791 266.898359 
L 224.486791 266.968321 
L 225.486791 267.072826 
L 226.486791 267.109813 
L 227.486791 267.155691 
L 228.486791 267.224185 
L 229.486791 267.272931 
L 230.486791 267.350528 
L 231.486791 267.381069 
L 232.486791 267.450584 
L 233.486791 267.474557 
L 234.486791 267.503178 
L 235.486791 267.544971 
L 236.486791 267.566547 
L 237.486791 267.580495 
L 238.486791 267.607218 
L 239.486791 267.616527 
L 240.486791 267.628974 
L 241.486791 267.640029 
L 242.486791 267.645694 
L 243.486791 267.650457 
L 244.486791 267.64491 
L 245.486791 267.631622 
L 246.486791 267.624104 
L 247.486791 267.599319 
L 248.486791 267.575751 
L 249.486791 267.53957 
L 250.486791 267.513608 
L 251.486791 267.491287 
L 252.486791 267.422527 
L 253.486791 267.347991 
L 254.486791 267.254012 
L 255.486791 267.20296 
L 256.486791 267.149026 
L 257.486791 267.113776 
L 258.486791 267.007688 
L 259.486791 266.955423 
L 260.486791 266.918517 
L 261.486791 266.887486 
L 262.486791 266.82633 
L 263.486791 266.75891 
L 264.486791 266.710004 
L 265.486791 266.644812 
L 266.486791 266.606625 
L 267.486791 266.564629 
L 268.486791 266.522611 
L 269.486791 266.463095 
L 270.486791 266.349935 
L 271.486791 266.297684 
L 272.486791 266.258267 
L 273.486791 266.211165 
L 274.486791 266.154386 
L 275.486791 266.121723 
L 276.486791 266.085545 
L 277.486791 266.053454 
L 278.486791 266.019174 
L 279.486791 265.960796 
L 280.486791 265.915611 
L 281.486791 265.885988 
L 282.486791 265.835602 
L 283.486791 265.810404 
L 284.486791 265.789353 
L 285.486791 265.754385 
L 286.486791 265.730095 
L 287.486791 265.716028 
L 288.486791 265.697087 
L 289.486791 265.681425 
L 290.486791 265.668873 
L 291.486791 265.663038 
L 292.486791 265.656155 
L 293.486791 265.650981 
L 294.486791 265.652764 
L 295.486791 265.65549 
L 296.486791 265.666643 
L 297.486791 265.694878 
L 298.486791 265.738666 
L 299.486791 265.759355 
L 300.486791 265.800329 
L 301.486791 265.840404 
L 302.486791 265.859513 
L 303.486791 265.882022 
L 304.486791 265.948674 
L 305.486791 265.998383 
L 306.486791 266.07209 
L 307.486791 266.103403 
L 308.486791 266.180025 
L 309.486791 266.218324 
L 310.486791 266.29244 
L 311.486791 266.396499 
L 312.486791 266.466329 
L 313.486791 266.571563 
L 314.486791 266.626578 
L 315.486791 266.750053 
L 316.486791 266.820612 
L 317.486791 266.936452 
L 318.486791 266.986632 
L 319.486791 267.022237 
L 320.486791 267.113643 
L 321.486791 267.167151 
L 322.486791 267.255059 
L 323.486791 267.324244 
L 324.486791 267.371009 
L 325.486791 267.443052 
L 326.486791 267.493194 
L 327.486791 267.510584 
L 328.486791 267.537587 
L 329.486791 267.557015 
L 330.486791 267.576353 
L 331.486791 267.614601 
L 332.486791 267.631035 
L 333.486791 267.639403 
L 334.486791 267.643722 
L 335.486791 267.650278 
L 336.486791 267.647731 
L 337.486791 267.642273 
L 338.486791 267.625844 
L 339.486791 267.593909 
L 340.486791 267.555929 
L 341.486791 267.521125 
L 342.486791 267.458054 
L 343.486791 267.436627 
L 344.486791 267.386009 
L 345.486791 267.361051 
L 346.486791 267.305418 
L 347.486791 267.274189 
L 348.486791 267.224045 
L 349.486791 267.191551 
L 350.486791 267.111139 
L 351.486791 267.042213 
L 352.486791 266.926516 
L 353.486791 266.851037 
L 354.486791 266.735512 
L 355.486791 266.656028 
L 356.486791 266.547587 
L 357.486791 266.508219 
L 358.486791 266.405352 
L 359.486791 266.305554 
L 360.486791 266.260057 
L 361.486791 266.225734 
L 362.486791 266.173778 
L 363.486791 266.134131 
L 364.486791 266.098617 
L 365.486791 266.030972 
L 366.486791 265.991891 
L 367.486791 265.941409 
L 368.486791 265.892103 
L 369.486791 265.841034 
L 370.486791 265.796794 
L 371.486791 265.774775 
L 372.486791 265.759218 
L 373.486791 265.716771 
L 374.486791 265.701903 
L 375.486791 265.679176 
L 376.486791 265.658859 
L 377.486791 265.653062 
L 378.486791 265.65058 
L 379.486791 265.653637 
L 380.486791 265.665233 
L 381.486791 265.682153 
L 382.486791 265.713814 
L 383.486791 265.727898 
L 384.486791 265.780569 
L 385.486791 265.829658 
L 386.486791 265.884359 
L 387.486791 265.928707 
L 388.486791 265.998699 
L 389.486791 266.049082 
L 390.486791 266.102989 
L 391.486791 266.172428 
L 392.486791 266.229816 
L 393.486791 266.279981 
L 394.486791 266.357143 
L 395.486791 266.415333 
L 396.486791 266.475972 
L 397.486791 266.513173 
L 398.486791 266.578264 
L 399.486791 266.683394 
L 400.486791 266.743696 
L 401.486791 266.840018 
L 402.486791 266.872021 
L 403.486791 266.923038 
L 404.486791 267.039831 
L 405.486791 267.075277 
L 406.486791 267.131158 
L 407.486791 267.161533 
L 409.217724 267.249919 
" clip-path="url(#p4f825544d6)" style="fill: none; stroke: #ffffff; stroke-width: 3; stroke-linecap: round"/>
          <path d="M 126.486791 266.650515 
L 127.486791 266.681952 
L 128.486791 266.718892 
L 129.486791 266.816639 
L 130.486791 266.84916 
L 131.486791 266.922785 
L 132.486791 266.961351 
L 133.486791 266.996764 
L 134.486791 267.054404 
L 135.486791 267.12479 
L 136.486791 267.176754 
L 137.486791 267.235844 
L 138.486791 267.324165 
L 139.486791 267.370309 
L 140.486791 267.41272 
L 141.486791 267.443213 
L 142.486791 267.469258 
L 143.486791 267.490458 
L 144.486791 267.544759 
L 145.486791 267.572696 
L 146.486791 267.60242 
L 147.486791 267.627815 
L 148.486791 267.639016 
L 149.486791 267.649139 
L 150.486791 267.648935 
L 151.486791 267.639425 
L 152.486791 267.627772 
L 153.486791 267.596742 
L 154.486791 267.585575 
L 155.486791 267.555457 
L 156.486791 267.49568 
L 157.486791 267.458489 
L 158.486791 267.419392 
L 159.486791 267.376953 
L 160.486791 267.344188 
L 161.486791 267.276761 
L 162.486791 267.237635 
L 163.486791 267.194961 
L 164.486791 267.12438 
L 165.486791 267.087989 
L 166.486791 267.029586 
L 167.486791 266.918634 
L 168.486791 266.847975 
L 169.486791 266.735035 
L 170.486791 266.689263 
L 171.486791 266.627979 
L 172.486791 266.57948 
L 173.486791 266.498657 
L 174.486791 266.380138 
L 175.486791 266.309928 
L 176.486791 266.226665 
L 177.486791 266.193523 
L 178.486791 266.142286 
L 179.486791 266.073888 
L 180.486791 266.007672 
L 181.486791 265.930755 
L 182.486791 265.90344 
L 183.486791 265.876962 
L 184.486791 265.854312 
L 185.486791 265.83478 
L 186.486791 265.808386 
L 187.486791 265.758616 
L 188.486791 265.723542 
L 189.486791 265.687677 
L 190.486791 265.672309 
L 191.486791 265.65654 
L 192.486791 265.653128 
L 193.486791 265.65071 
L 194.486791 265.651196 
L 195.486791 265.653125 
L 196.486791 265.666382 
L 197.486791 265.674773 
L 198.486791 265.69631 
L 199.486791 265.719342 
L 200.486791 265.736576 
L 201.486791 265.755038 
L 202.486791 265.775491 
L 203.486791 265.792091 
L 204.486791 265.854869 
L 205.486791 265.930134 
L 206.486791 265.962773 
L 207.486791 266.030337 
L 208.486791 266.084384 
L 209.486791 266.118088 
L 210.486791 266.208214 
L 211.486791 266.236749 
L 212.486791 266.268235 
L 213.486791 266.299246 
L 214.486791 266.354054 
L 215.486791 266.418642 
L 216.486791 266.456837 
L 217.486791 266.552771 
L 218.486791 266.602029 
L 219.486791 266.646099 
L 220.486791 266.686222 
L 221.486791 266.794589 
L 222.486791 266.836217 
L 223.486791 266.898359 
L 224.486791 266.968321 
L 225.486791 267.072826 
L 226.486791 267.109813 
L 227.486791 267.155691 
L 228.486791 267.224185 
L 229.486791 267.272931 
L 230.486791 267.350528 
L 231.486791 267.381069 
L 232.486791 267.450584 
L 233.486791 267.474557 
L 234.486791 267.503178 
L 235.486791 267.544971 
L 236.486791 267.566547 
L 237.486791 267.580495 
L 238.486791 267.607218 
L 239.486791 267.616527 
L 240.486791 267.628974 
L 241.486791 267.640029 
L 242.486791 267.645694 
L 243.486791 267.650457 
L 244.486791 267.64491 
L 245.486791 267.631622 
L 246.486791 267.624104 
L 247.486791 267.599319 
L 248.486791 267.575751 
L 249.486791 267.53957 
L 250.486791 267.513608 
L 251.486791 267.491287 
L 252.486791 267.422527 
L 253.486791 267.347991 
L 254.486791 267.254012 
L 255.486791 267.20296 
L 256.486791 267.149026 
L 257.486791 267.113776 
L 258.486791 267.007688 
L 259.486791 266.955423 
L 260.486791 266.918517 
L 261.486791 266.887486 
L 262.486791 266.82633 
L 263.486791 266.75891 
L 264.486791 266.710004 
L 265.486791 266.644812 
L 266.486791 266.606625 
L 267.486791 266.564629 
L 268.486791 266.522611 
L 269.486791 266.463095 
L 270.486791 266.349935 
L 271.486791 266.297684 
L 272.486791 266.258267 
L 273.486791 266.211165 
L 274.486791 266.154386 
L 275.486791 266.121723 
L 276.486791 266.085545 
L 277.486791 266.053454 
L 278.486791 266.019174 
L 279.486791 265.960796 
L 280.486791 265.915611 
L 281.486791 265.885988 
L 282.486791 265.835602 
L 283.486791 265.810404 
L 284.486791 265.789353 
L 285.486791 265.754385 
L 286.486791 265.730095 
L 287.486791 265.716028 
L 288.486791 265.697087 
L 289.486791 265.681425 
L 290.486791 265.668873 
L 291.486791 265.663038 
L 292.486791 265.656155 
L 293.486791 265.650981 
L 294.486791 265.652764 
L 295.486791 265.65549 
L 296.486791 265.666643 
L 297.486791 265.694878 
L 298.486791 265.738666 
L 299.486791 265.759355 
L 300.486791 265.800329 
L 301.486791 265.840404 
L 302.486791 265.859513 
L 303.486791 265.882022 
L 304.486791 265.948674 
L 305.486791 265.998383 
L 306.486791 266.07209 
L 307.486791 266.103403 
L 308.486791 266.180025 
L 309.486791 266.218324 
L 310.486791 266.29244 
L 311.486791 266.396499 
L 312.486791 266.466329 
L 313.486791 266.571563 
L 314.486791 266.626578 
L 315.486791 266.750053 
L 316.486791 266.820612 
L 317.486791 266.936452 
L 318.486791 266.986632 
L 319.486791 267.022237 
L 320.486791 267.113643 
L 321.486791 267.167151 
L 322.486791 267.255059 
L 323.486791 267.324244 
L 324.486791 267.371009 
L 325.486791 267.443052 
L 326.486791 267.493194 
L 327.486791 267.510584 
L 328.486791 267.537587 
L 329.486791 267.557015 
L 330.486791 267.576353 
L 331.486791 267.614601 
L 332.486791 267.631035 
L 333.486791 267.639403 
L 334.486791 267.643722 
L 335.486791 267.650278 
L 336.486791 267.647731 
L 337.486791 267.642273 
L 338.486791 267.625844 
L 339.486791 267.593909 
L 340.486791 267.555929 
L 341.486791 267.521125 
L 342.486791 267.458054 
L 343.486791 267.436627 
L 344.486791 267.386009 
L 345.486791 267.361051 
L 346.486791 267.305418 
L 347.486791 267.274189 
L 348.486791 267.224045 
L 349.486791 267.191551 
L 350.486791 267.111139 
L 351.486791 267.042213 
L 352.486791 266.926516 
L 353.486791 266.851037 
L 354.486791 266.735512 
L 355.486791 266.656028 
L 356.486791 266.547587 
L 357.486791 266.508219 
L 358.486791 266.405352 
L 359.486791 266.305554 
L 360.486791 266.260057 
L 361.486791 266.225734 
L 362.486791 266.173778 
L 363.486791 266.134131 
L 364.486791 266.098617 
L 365.486791 266.030972 
L 366.486791 265.991891 
L 367.486791 265.941409 
L 368.486791 265.892103 
L 369.486791 265.841034 
L 370.486791 265.796794 
L 371.486791 265.774775 
L 372.486791 265.759218 
L 373.486791 265.716771 
L 374.486791 265.701903 
L 375.486791 265.679176 
L 376.486791 265.658859 
L 377.486791 265.653062 
L 378.486791 265.65058 
L 379.486791 265.653637 
L 380.486791 265.665233 
L 381.486791 265.682153 
L 382.486791 265.713814 
L 383.486791 265.727898 
L 384.486791 265.780569 
L 385.486791 265.829658 
L 386.486791 265.884359 
L 387.486791 265.928707 
L 388.486791 265.998699 
L 389.486791 266.049082 
L 390.486791 266.102989 
L 391.486791 266.172428 
L 392.486791 266.229816 
L 393.486791 266.279981 
L 394.486791 266.357143 
L 395.486791 266.415333 
L 396.486791 266.475972 
L 397.486791 266.513173 
L 398.486791 266.578264 
L 399.486791 266.683394 
L 400.486791 266.743696 
L 401.486791 266.840018 
L 402.486791 266.872021 
L 403.486791 266.923038 
L 404.486791 267.039831 
L 405.486791 267.075277 
L 406.486791 267.131158 
L 407.486791 267.161533 
L 409.217724 267.249919 
" clip-path="url(#p4f825544d6)" style="fill: none; stroke: #ff7f0e; stroke-linecap: round"/>
          <path d="M 405.217724 264.650515 
L 406.098093 265.125846 
L 406.976 265.6061 
L 407.826713 266.140741 
L 409.128888 266.828189 
L 408.201535 266.854204 
L 407.28986 267.266923 
L 406.379596 267.682462 
L 405.0371 268.289267 
L 405.691999 267.650515 
L 405.743963 266.650515 
L 405.803053 264.650515 
z
" clip-path="url(#p4f825544d6)" style="fill: #ffffff; stroke: #ffffff; stroke-width: 3; stroke-linecap: round"/>
          <path d="M 405.217724 264.650515 
L 406.098093 265.125846 
L 406.976 265.6061 
L 407.826713 266.140741 
L 409.128888 266.828189 
L 408.201535 266.854204 
L 407.28986 267.266923 
L 406.379596 267.682462 
L 405.0371 268.289267 
L 405.691999 267.650515 
L 405.743963 266.650515 
L 405.803053 264.650515 
z
" clip-path="url(#p4f825544d6)" style="fill: #ffffff; stroke: #ff7f0e; stroke-linecap: round"/>
          <path d="M 438.342285 289.569542 
" clip-path="url(#p4f825544d6)" style="fill: none; stroke-dasharray: 3.7,1.6; stroke-dashoffset: 0; stroke: #2ca02c"/>
          <path d="M 437.342285 289.569542 
L 439.342285 290.569542 
L 439.342285 288.569542 
z
" clip-path="url(#p4f825544d6)" style="fill: #2ca02c; stroke: #2ca02c; stroke-linejoin: miter"/>
          <g id="patch_10">
           <path d="M 63.290625 321.621875 
L 63.290625 10.8 
" style="fill: none; stroke: #000000; stroke-width: 0.8; stroke-linejoin: miter; stroke-linecap: square"/>
          </g>
          <g id="text_13">
           <g id="patch_11">
            <path d="M 288.456858 137.749554 
L 309.761545 137.749554 
Q 311.761545 137.749554 311.761545 135.749554 
L 311.761545 126.071429 
Q 311.761545 124.071429 309.761545 124.071429 
L 288.456858 124.071429 
Q 286.456858 124.071429 286.456858 126.071429 
L 286.456858 135.749554 
Q 286.456858 137.749554 288.456858 137.749554 
z
" style="fill: #ffffff; opacity: 0.6"/>
           </g>
           <!-- ANC -->
           <g transform="translate(288.456858 133.669866) scale(0.1 -0.1)">
            <defs>
             <path id="DejaVuSans-4e" d="M 628 4666 
L 1478 4666 
L 3547 763 
L 3547 4666 
L 4159 4666 
L 4159 0 
L 3309 0 
L 1241 3903 
L 1241 0 
L 628 0 
L 628 4666 
z
" transform="scale(0.015625)"/>
            </defs>
            <use xlink:href="#DejaVuSans-41"/>
            <use xlink:href="#DejaVuSans-4e" x="68.408203"/>
            <use xlink:href="#DejaVuSans-43" x="143.212891"/>
           </g>
          </g>
         </g>
        </g>
        <defs>
         <clipPath id="p4f825544d6">
          <rect x="63.290625" y="10.8" width="540.309375" height="310.821875"/>
         </clipPath>
        </defs>
       </g>
      </g>
     </g>
    </g>
   </g>
  </g>
 </g>
</svg>
