<?xml version="1.0" encoding="utf-8" standalone="no"?>
<!DOCTYPE svg PUBLIC "-//W3C//DTD SVG 1.1//EN"
  "http://www.w3.org/Graphics/SVG/1.1/DTD/svg11.dtd">
<svg xmlns:xlink="http://www.w3.org/1999/xlink" width="614.4pt" height="345.6pt" viewBox="0 0 614.4 345.6" xmlns="http://www.w3.org/2000/svg" version="1.1">
 <metadata>
  <rdf:RDF xmlns:dc="http://purl.org/dc/elements/1.1/" xmlns:cc="http://creativecommons.org/ns#" xmlns:rdf="http://www.w3.org/1999/02/22-rdf-syntax-ns#">
   <cc:Work>
    <dc:type rdf:resource="http://purl.org/dc/dcmitype/StillImage"/>
    <dc:date>2024-04-17T19:40:07.838494</dc:date>
    <dc:format>image/svg+xml</dc:format>
    <dc:creator>
     <cc:Agent>
      <dc:title>Matplotlib v3.7.1, https://matplotlib.org/</dc:title>
     </cc:Agent>
    </dc:creator>
   </cc:Work>
  </rdf:RDF>
 </metadata>
 <defs>
  <style type="text/css">*{stroke-linejoin: round; stroke-linecap: butt}</style>
 </defs>
 <g id="figure_1">
  <g id="patch_1">
   <path d="M 0 345.6 
L 614.4 345.6 
L 614.4 0 
L 0 0 
z
" style="fill: #ffffff"/>
  </g>
  <g id="axes_1">
   <g id="patch_2">
    <path d="M 63.290625 321.621875 
L 603.6 321.621875 
L 603.6 10.8 
L 63.290625 10.8 
z
" style="fill: #ffffff"/>
   </g>
   <path d="M 521.826104 306.441528 
L 520.826104 306.410092 
L 519.826104 306.373151 
L 518.826104 306.275405 
L 517.826104 306.242883 
L 516.826104 306.169258 
L 515.826104 306.130693 
L 514.826104 306.09528 
L 513.826104 306.03764 
L 512.826104 305.967254 
L 511.826104 305.915289 
L 510.826104 305.8562 
L 509.826104 305.767879 
L 508.826104 305.721734 
L 507.826104 305.679323 
L 506.826104 305.648831 
L 505.826104 305.622786 
L 504.826104 305.601586 
L 503.826104 305.547285 
L 502.826104 305.519347 
L 501.826104 305.489623 
L 500.826104 305.464228 
L 499.826104 305.453028 
L 498.826104 305.442904 
L 497.826104 305.443108 
L 496.826104 305.452618 
L 495.826104 305.464272 
L 494.826104 305.495301 
L 493.826104 305.506469 
L 492.826104 305.536586 
L 491.826104 305.596363 
L 490.826104 305.633555 
L 489.826104 305.672651 
L 488.826104 305.715091 
L 487.826104 305.747856 
L 486.826104 305.815282 
L 485.826104 305.854408 
L 484.826104 305.897083 
L 483.826104 305.967663 
L 482.826104 306.004054 
L 481.826104 306.062457 
L 480.826104 306.17341 
L 479.826104 306.244068 
L 478.826104 306.357008 
L 477.826104 306.402781 
L 476.826104 306.464064 
L 475.826104 306.512563 
L 474.826104 306.593386 
L 473.826104 306.711905 
L 472.826104 306.782116 
L 471.826104 306.865378 
L 470.826104 306.89852 
L 469.826104 306.949757 
L 468.826104 307.018156 
L 467.826104 307.084371 
L 466.826104 307.161288 
L 465.826104 307.188604 
L 464.826104 307.215081 
L 463.826104 307.237732 
L 462.826104 307.257263 
L 461.826104 307.283657 
L 460.826104 307.333428 
L 459.826104 307.368501 
L 458.826104 307.404367 
L 457.826104 307.419734 
L 456.826104 307.435503 
L 455.826104 307.438916 
L 454.826104 307.441333 
L 453.826104 307.440847 
L 452.826104 307.438918 
L 451.826104 307.425661 
L 450.826104 307.417271 
L 449.826104 307.395734 
L 448.826104 307.372701 
L 447.826104 307.355468 
L 446.826104 307.337005 
L 445.202402 307.316553 
" clip-path="url(#pbaa578ad1b)" style="fill: none; stroke-dasharray: 3.7,1.6; stroke-dashoffset: 0; stroke: #2ca02c"/>
   <g id="patch_3">
    <path d="M 263.339391 10.8 
L 263.339391 267.343593 
M 387.952667 10.8 
L 387.952667 267.343593 
" clip-path="url(#pbaa578ad1b)" style="fill: none; stroke: #ffffff; stroke-width: 3; stroke-linejoin: miter"/>
    <path d="M 263.339391 10.8 
L 263.339391 267.343593 
M 387.952667 10.8 
L 387.952667 267.343593 
" clip-path="url(#pbaa578ad1b)" style="fill: none; stroke: #1f77b4; stroke-linejoin: miter"/>
    <g id="PolyCollection_1">
     <path d="M 387.952667 10.8 
L 263.339391 10.8 
L 263.339391 267.343593 
L 387.952667 267.343593 
L 387.952667 267.343593 
L 387.952667 10.8 
z
" clip-path="url(#pbaa578ad1b)" style="fill: #1f77b4; fill-opacity: 0.5"/>
    </g>
    <g id="patch_4">
     <path d="M 134.472967 267.343593 
L 134.472967 313.995093 
L 134.472967 313.995093 
L 130.433081 315.150666 
L 125.59925 316.306239 
L 119.815444 317.461812 
L 112.894967 318.617385 
L 104.614433 319.772958 
L 94.706556 320.928531 
L 87.850142 321.621875 
M 175.585873 267.343593 
L 175.585873 313.995093 
L 175.585873 313.995093 
L 179.62576 315.150666 
L 184.459591 316.306239 
L 190.243397 317.461812 
L 197.163874 318.617385 
L 205.444408 319.772958 
L 215.352285 320.928531 
L 222.208699 321.621875 
L 222.208699 321.621875 
" clip-path="url(#pbaa578ad1b)" style="fill: none; stroke: #ffffff; stroke-width: 3; stroke-linejoin: miter"/>
     <path d="M 134.472967 267.343593 
L 134.472967 313.995093 
L 134.472967 313.995093 
L 130.433081 315.150666 
L 125.59925 316.306239 
L 119.815444 317.461812 
L 112.894967 318.617385 
L 104.614433 319.772958 
L 94.706556 320.928531 
L 87.850142 321.621875 
M 175.585873 267.343593 
L 175.585873 313.995093 
L 175.585873 313.995093 
L 179.62576 315.150666 
L 184.459591 316.306239 
L 190.243397 317.461812 
L 197.163874 318.617385 
L 205.444408 319.772958 
L 215.352285 320.928531 
L 222.208699 321.621875 
L 222.208699 321.621875 
" clip-path="url(#pbaa578ad1b)" style="fill: none; stroke: #ff7f0e; stroke-linejoin: miter"/>
     <g id="PolyCollection_2">
      <path d="M 175.585873 267.343593 
L 134.472967 267.343593 
L 134.472967 313.995093 
L 134.472967 313.995093 
L 134.225604 314.072131 
L 133.975265 314.149169 
L 133.721913 314.226208 
L 133.465513 314.303246 
L 133.206027 314.380284 
L 132.943419 314.457322 
L 132.67765 314.53436 
L 132.408684 314.611399 
L 132.136481 314.688437 
L 131.861002 314.765475 
L 131.582209 314.842513 
L 131.300061 314.919551 
L 131.014517 314.99659 
L 130.725538 315.073628 
L 130.433081 315.150666 
L 130.137105 315.227704 
L 129.837567 315.304742 
L 129.534425 315.381781 
L 129.227635 315.458819 
L 128.917153 315.535857 
L 128.602936 315.612895 
L 128.284937 315.689933 
L 127.963111 315.766972 
L 127.637413 315.84401 
L 127.307796 315.921048 
L 126.974212 315.998086 
L 126.636614 316.075124 
L 126.294954 316.152163 
L 125.949183 316.229201 
L 125.59925 316.306239 
L 125.245107 316.383277 
L 124.886702 316.460315 
L 124.523985 316.537354 
L 124.156902 316.614392 
L 123.785403 316.69143 
L 123.409433 316.768468 
L 123.028939 316.845506 
L 122.643866 316.922545 
L 122.25416 316.999583 
L 121.859764 317.076621 
L 121.460622 317.153659 
L 121.056678 317.230697 
L 120.647872 317.307736 
L 120.234147 317.384774 
L 119.815444 317.461812 
L 119.391702 317.53885 
L 118.962861 317.615888 
L 118.52886 317.692927 
L 118.089637 317.769965 
L 117.645128 317.847003 
L 117.19527 317.924041 
L 116.739999 318.001079 
L 116.279249 318.078118 
L 115.812955 318.155156 
L 115.34105 318.232194 
L 114.863466 318.309232 
L 114.380136 318.386271 
L 113.890989 318.463309 
L 113.395956 318.540347 
L 112.894967 318.617385 
L 112.387949 318.694423 
L 111.874829 318.771462 
L 111.355536 318.8485 
L 110.829993 318.925538 
L 110.298126 319.002576 
L 109.759859 319.079614 
L 109.215115 319.156653 
L 108.663816 319.233691 
L 108.105883 319.310729 
L 107.541236 319.387767 
L 106.969795 319.464805 
L 106.391477 319.541844 
L 105.8062 319.618882 
L 105.213881 319.69592 
L 104.614433 319.772958 
L 104.007773 319.849996 
L 103.393812 319.927035 
L 102.772463 320.004073 
L 102.143637 320.081111 
L 101.507245 320.158149 
L 100.863194 320.235187 
L 100.211394 320.312226 
L 99.55175 320.389264 
L 98.884168 320.466302 
L 98.208553 320.54334 
L 97.524808 320.620378 
L 96.832836 320.697417 
L 96.132537 320.774455 
L 95.42381 320.851493 
L 94.706556 320.928531 
L 93.98067 321.005569 
L 93.24605 321.082608 
L 92.50259 321.159646 
L 91.750183 321.236684 
L 90.988723 321.313722 
L 90.218099 321.39076 
L 89.438203 321.467799 
L 88.648921 321.544837 
L 87.850142 321.621875 
L 222.208699 321.621875 
L 222.208699 321.621875 
L 221.40992 321.544837 
L 220.620638 321.467799 
L 219.840742 321.39076 
L 219.070118 321.313722 
L 218.308658 321.236684 
L 217.556251 321.159646 
L 216.812791 321.082608 
L 216.07817 321.005569 
L 215.352285 320.928531 
L 214.63503 320.851493 
L 213.926304 320.774455 
L 213.226005 320.697417 
L 212.534032 320.620378 
L 211.850288 320.54334 
L 211.174673 320.466302 
L 210.507091 320.389264 
L 209.847447 320.312226 
L 209.195647 320.235187 
L 208.551596 320.158149 
L 207.915204 320.081111 
L 207.286378 320.004073 
L 206.665029 319.927035 
L 206.051068 319.849996 
L 205.444408 319.772958 
L 204.84496 319.69592 
L 204.252641 319.618882 
L 203.667364 319.541844 
L 203.089046 319.464805 
L 202.517604 319.387767 
L 201.952958 319.310729 
L 201.395025 319.233691 
L 200.843725 319.156653 
L 200.298981 319.079614 
L 199.760715 319.002576 
L 199.228848 318.925538 
L 198.703305 318.8485 
L 198.184011 318.771462 
L 197.670892 318.694423 
L 197.163874 318.617385 
L 196.662884 318.540347 
L 196.167852 318.463309 
L 195.678705 318.386271 
L 195.195374 318.309232 
L 194.717791 318.232194 
L 194.245886 318.155156 
L 193.779592 318.078118 
L 193.318842 318.001079 
L 192.863571 317.924041 
L 192.413713 317.847003 
L 191.969204 317.769965 
L 191.52998 317.692927 
L 191.095979 317.615888 
L 190.667139 317.53885 
L 190.243397 317.461812 
L 189.824693 317.384774 
L 189.410969 317.307736 
L 189.002163 317.230697 
L 188.598218 317.153659 
L 188.199077 317.076621 
L 187.804681 316.999583 
L 187.414974 316.922545 
L 187.029902 316.845506 
L 186.649408 316.768468 
L 186.273438 316.69143 
L 185.901938 316.614392 
L 185.534856 316.537354 
L 185.172139 316.460315 
L 184.813734 316.383277 
L 184.459591 316.306239 
L 184.109658 316.229201 
L 183.763887 316.152163 
L 183.422226 316.075124 
L 183.084628 315.998086 
L 182.751045 315.921048 
L 182.421427 315.84401 
L 182.095729 315.766972 
L 181.773904 315.689933 
L 181.455905 315.612895 
L 181.141687 315.535857 
L 180.831206 315.458819 
L 180.524416 315.381781 
L 180.221274 315.304742 
L 179.921736 315.227704 
L 179.62576 315.150666 
L 179.333303 315.073628 
L 179.044323 314.99659 
L 178.75878 314.919551 
L 178.476632 314.842513 
L 178.197838 314.765475 
L 177.92236 314.688437 
L 177.650157 314.611399 
L 177.38119 314.53436 
L 177.115422 314.457322 
L 176.852814 314.380284 
L 176.593328 314.303246 
L 176.336927 314.226208 
L 176.083576 314.149169 
L 175.833236 314.072131 
L 175.585873 313.995093 
L 175.585873 313.995093 
L 175.585873 267.343593 
z
" clip-path="url(#pbaa578ad1b)" style="fill: #ff7f0e; fill-opacity: 0.5"/>
     </g>
     <g id="patch_5">
      <path d="M 527.229198 72.964375 
L 527.229198 321.621875 
M 579.040483 72.964375 
L 579.040483 321.621875 
" clip-path="url(#pbaa578ad1b)" style="fill: none; stroke: #ffffff; stroke-width: 3; stroke-linejoin: miter"/>
      <path d="M 527.229198 72.964375 
L 527.229198 321.621875 
M 579.040483 72.964375 
L 579.040483 321.621875 
" clip-path="url(#pbaa578ad1b)" style="fill: none; stroke: #2ca02c; stroke-linejoin: miter"/>
      <g id="PolyCollection_3">
       <path d="M 579.040483 72.964375 
L 527.229198 72.964375 
L 527.229198 321.621875 
L 579.040483 321.621875 
L 579.040483 321.621875 
L 579.040483 72.964375 
z
" clip-path="url(#pbaa578ad1b)" style="fill: #2ca02c; fill-opacity: 0.5"/>
      </g>
      <g id="patch_6">
       <path d="M 430.595431 275.33646 
L 430.595431 305.538517 
L 438.981561 305.538517 
L 438.981561 306.514745 
L 430.595431 306.514745 
L 430.521511 317.054557 
L 428.861462 318.985073 
L 426.994874 320.821417 
L 426.080907 321.621875 
M 448.185438 275.33646 
L 448.185438 305.538517 
L 439.799308 305.538517 
L 439.799308 306.514745 
L 448.185438 306.514745 
L 448.259358 317.054557 
L 449.919407 318.985073 
L 451.785995 320.821417 
L 452.699963 321.621875 
L 452.699963 321.621875 
" clip-path="url(#pbaa578ad1b)" style="fill: none; stroke: #ffffff; stroke-width: 3; stroke-linejoin: miter"/>
       <path d="M 430.595431 275.33646 
L 430.595431 305.538517 
L 438.981561 305.538517 
L 438.981561 306.514745 
L 430.595431 306.514745 
L 430.521511 317.054557 
L 428.861462 318.985073 
L 426.994874 320.821417 
L 426.080907 321.621875 
M 448.185438 275.33646 
L 448.185438 305.538517 
L 439.799308 305.538517 
L 439.799308 306.514745 
L 448.185438 306.514745 
L 448.259358 317.054557 
L 449.919407 318.985073 
L 451.785995 320.821417 
L 452.699963 321.621875 
L 452.699963 321.621875 
" clip-path="url(#pbaa578ad1b)" style="fill: none; stroke: #d62728; stroke-linejoin: miter"/>
       <g id="PolyCollection_4">
        <path d="M 448.185438 275.33646 
L 430.595431 275.33646 
L 430.595431 305.538517 
L 438.981561 305.538517 
L 438.981561 306.514745 
L 430.595431 306.514745 
L 430.595431 316.960386 
L 430.595431 316.960386 
L 430.558548 317.007472 
L 430.521511 317.054557 
L 430.484319 317.101643 
L 430.44697 317.148729 
L 430.409465 317.195815 
L 430.371802 317.2429 
L 430.333982 317.289986 
L 430.296003 317.337072 
L 430.257865 317.384158 
L 430.219567 317.431243 
L 430.181108 317.478329 
L 430.142488 317.525415 
L 430.103706 317.572501 
L 430.064761 317.619586 
L 430.025653 317.666672 
L 429.986381 317.713758 
L 429.946945 317.760844 
L 429.907343 317.807929 
L 429.867575 317.855015 
L 429.82764 317.902101 
L 429.787537 317.949187 
L 429.747267 317.996272 
L 429.706827 318.043358 
L 429.666218 318.090444 
L 429.625439 318.13753 
L 429.584489 318.184615 
L 429.543367 318.231701 
L 429.502072 318.278787 
L 429.460605 318.325873 
L 429.418963 318.372958 
L 429.377147 318.420044 
L 429.335156 318.46713 
L 429.292988 318.514216 
L 429.250643 318.561301 
L 429.208121 318.608387 
L 429.165421 318.655473 
L 429.122542 318.702559 
L 429.079482 318.749644 
L 429.036243 318.79673 
L 428.992821 318.843816 
L 428.949218 318.890902 
L 428.905432 318.937987 
L 428.861462 318.985073 
L 428.817308 319.032159 
L 428.772969 319.079245 
L 428.728444 319.12633 
L 428.683732 319.173416 
L 428.638833 319.220502 
L 428.593745 319.267588 
L 428.548468 319.314673 
L 428.503001 319.361759 
L 428.457344 319.408845 
L 428.411495 319.455931 
L 428.365454 319.503016 
L 428.31922 319.550102 
L 428.272792 319.597188 
L 428.226169 319.644274 
L 428.179351 319.691359 
L 428.132337 319.738445 
L 428.085125 319.785531 
L 428.037715 319.832617 
L 427.990107 319.879702 
L 427.942298 319.926788 
L 427.89429 319.973874 
L 427.84608 320.02096 
L 427.797668 320.068045 
L 427.749052 320.115131 
L 427.700233 320.162217 
L 427.651209 320.209303 
L 427.60198 320.256388 
L 427.552544 320.303474 
L 427.502901 320.35056 
L 427.45305 320.397646 
L 427.402989 320.444731 
L 427.352719 320.491817 
L 427.302238 320.538903 
L 427.251545 320.585989 
L 427.20064 320.633074 
L 427.149521 320.68016 
L 427.098188 320.727246 
L 427.046639 320.774332 
L 426.994874 320.821417 
L 426.942893 320.868503 
L 426.890693 320.915589 
L 426.838274 320.962675 
L 426.785636 321.00976 
L 426.732776 321.056846 
L 426.679696 321.103932 
L 426.626392 321.151018 
L 426.572865 321.198103 
L 426.519113 321.245189 
L 426.465137 321.292275 
L 426.410933 321.339361 
L 426.356503 321.386446 
L 426.301844 321.433532 
L 426.246956 321.480618 
L 426.191838 321.527704 
L 426.136488 321.574789 
L 426.080907 321.621875 
L 452.699963 321.621875 
L 452.699963 321.621875 
L 452.644381 321.574789 
L 452.589032 321.527704 
L 452.533913 321.480618 
L 452.479025 321.433532 
L 452.424367 321.386446 
L 452.369936 321.339361 
L 452.315733 321.292275 
L 452.261756 321.245189 
L 452.208004 321.198103 
L 452.154477 321.151018 
L 452.101174 321.103932 
L 452.048093 321.056846 
L 451.995234 321.00976 
L 451.942595 320.962675 
L 451.890176 320.915589 
L 451.837977 320.868503 
L 451.785995 320.821417 
L 451.73423 320.774332 
L 451.682682 320.727246 
L 451.631348 320.68016 
L 451.58023 320.633074 
L 451.529324 320.585989 
L 451.478631 320.538903 
L 451.42815 320.491817 
L 451.37788 320.444731 
L 451.327819 320.397646 
L 451.277968 320.35056 
L 451.228325 320.303474 
L 451.178889 320.256388 
L 451.12966 320.209303 
L 451.080636 320.162217 
L 451.031817 320.115131 
L 450.983202 320.068045 
L 450.93479 320.02096 
L 450.88658 319.973874 
L 450.838571 319.926788 
L 450.790763 319.879702 
L 450.743154 319.832617 
L 450.695744 319.785531 
L 450.648533 319.738445 
L 450.601518 319.691359 
L 450.5547 319.644274 
L 450.508077 319.597188 
L 450.461649 319.550102 
L 450.415415 319.503016 
L 450.369374 319.455931 
L 450.323525 319.408845 
L 450.277868 319.361759 
L 450.232401 319.314673 
L 450.187124 319.267588 
L 450.142037 319.220502 
L 450.097137 319.173416 
L 450.052425 319.12633 
L 450.0079 319.079245 
L 449.963561 319.032159 
L 449.919407 318.985073 
L 449.875437 318.937987 
L 449.831651 318.890902 
L 449.788048 318.843816 
L 449.744627 318.79673 
L 449.701387 318.749644 
L 449.658328 318.702559 
L 449.615448 318.655473 
L 449.572748 318.608387 
L 449.530226 318.561301 
L 449.487881 318.514216 
L 449.445714 318.46713 
L 449.403722 318.420044 
L 449.361906 318.372958 
L 449.320264 318.325873 
L 449.278797 318.278787 
L 449.237502 318.231701 
L 449.19638 318.184615 
L 449.15543 318.13753 
L 449.114651 318.090444 
L 449.074042 318.043358 
L 449.033602 317.996272 
L 448.993332 317.949187 
L 448.95323 317.902101 
L 448.913295 317.855015 
L 448.873527 317.807929 
L 448.833925 317.760844 
L 448.794488 317.713758 
L 448.755216 317.666672 
L 448.716108 317.619586 
L 448.677163 317.572501 
L 448.638381 317.525415 
L 448.599761 317.478329 
L 448.561302 317.431243 
L 448.523004 317.384158 
L 448.484866 317.337072 
L 448.446887 317.289986 
L 448.409067 317.2429 
L 448.371404 317.195815 
L 448.333899 317.148729 
L 448.296551 317.101643 
L 448.259358 317.054557 
L 448.222321 317.007472 
L 448.185438 316.960386 
L 448.185438 316.960386 
L 448.185438 306.514745 
L 439.799308 306.514745 
L 439.799308 305.538517 
L 448.185438 305.538517 
L 448.185438 275.33646 
z
" clip-path="url(#pbaa578ad1b)" style="fill: #d62728; fill-opacity: 0.5"/>
       </g>
       <g id="matplotlib.axis_1">
        <g id="xtick_1">
         <g id="line2d_1"/>
         <g id="text_1">
          <!-- OUT -->
          <g transform="translate(144.380202 332.720312) scale(0.1 -0.1)">
           <defs>
            <path id="DejaVuSans-4f" d="M 2522 4238 
Q 1834 4238 1429 3725 
Q 1025 3213 1025 2328 
Q 1025 1447 1429 934 
Q 1834 422 2522 422 
Q 3209 422 3611 934 
Q 4013 1447 4013 2328 
Q 4013 3213 3611 3725 
Q 3209 4238 2522 4238 
z
M 2522 4750 
Q 3503 4750 4090 4092 
Q 4678 3434 4678 2328 
Q 4678 1225 4090 567 
Q 3503 -91 2522 -91 
Q 1538 -91 948 565 
Q 359 1222 359 2328 
Q 359 3434 948 4092 
Q 1538 4750 2522 4750 
z
" transform="scale(0.015625)"/>
            <path id="DejaVuSans-55" d="M 556 4666 
L 1191 4666 
L 1191 1831 
Q 1191 1081 1462 751 
Q 1734 422 2344 422 
Q 2950 422 3222 751 
Q 3494 1081 3494 1831 
L 3494 4666 
L 4128 4666 
L 4128 1753 
Q 4128 841 3676 375 
Q 3225 -91 2344 -91 
Q 1459 -91 1007 375 
Q 556 841 556 1753 
L 556 4666 
z
" transform="scale(0.015625)"/>
            <path id="DejaVuSans-54" d="M -19 4666 
L 3928 4666 
L 3928 4134 
L 2272 4134 
L 2272 0 
L 1638 0 
L 1638 4134 
L -19 4134 
L -19 4666 
z
" transform="scale(0.015625)"/>
           </defs>
           <use xlink:href="#DejaVuSans-4f"/>
           <use xlink:href="#DejaVuSans-55" x="78.710938"/>
           <use xlink:href="#DejaVuSans-54" x="151.904297"/>
          </g>
         </g>
        </g>
        <g id="xtick_2">
         <g id="line2d_2"/>
         <g id="text_2">
          <!-- SRC -->
          <g transform="translate(543.244997 332.720312) scale(0.1 -0.1)">
           <defs>
            <path id="DejaVuSans-53" d="M 3425 4513 
L 3425 3897 
Q 3066 4069 2747 4153 
Q 2428 4238 2131 4238 
Q 1616 4238 1336 4038 
Q 1056 3838 1056 3469 
Q 1056 3159 1242 3001 
Q 1428 2844 1947 2747 
L 2328 2669 
Q 3034 2534 3370 2195 
Q 3706 1856 3706 1288 
Q 3706 609 3251 259 
Q 2797 -91 1919 -91 
Q 1588 -91 1214 -16 
Q 841 59 441 206 
L 441 856 
Q 825 641 1194 531 
Q 1563 422 1919 422 
Q 2459 422 2753 634 
Q 3047 847 3047 1241 
Q 3047 1584 2836 1778 
Q 2625 1972 2144 2069 
L 1759 2144 
Q 1053 2284 737 2584 
Q 422 2884 422 3419 
Q 422 4038 858 4394 
Q 1294 4750 2059 4750 
Q 2388 4750 2728 4690 
Q 3069 4631 3425 4513 
z
" transform="scale(0.015625)"/>
            <path id="DejaVuSans-52" d="M 2841 2188 
Q 3044 2119 3236 1894 
Q 3428 1669 3622 1275 
L 4263 0 
L 3584 0 
L 2988 1197 
Q 2756 1666 2539 1819 
Q 2322 1972 1947 1972 
L 1259 1972 
L 1259 0 
L 628 0 
L 628 4666 
L 2053 4666 
Q 2853 4666 3247 4331 
Q 3641 3997 3641 3322 
Q 3641 2881 3436 2590 
Q 3231 2300 2841 2188 
z
M 1259 4147 
L 1259 2491 
L 2053 2491 
Q 2509 2491 2742 2702 
Q 2975 2913 2975 3322 
Q 2975 3731 2742 3939 
Q 2509 4147 2053 4147 
L 1259 4147 
z
" transform="scale(0.015625)"/>
            <path id="DejaVuSans-43" d="M 4122 4306 
L 4122 3641 
Q 3803 3938 3442 4084 
Q 3081 4231 2675 4231 
Q 1875 4231 1450 3742 
Q 1025 3253 1025 2328 
Q 1025 1406 1450 917 
Q 1875 428 2675 428 
Q 3081 428 3442 575 
Q 3803 722 4122 1019 
L 4122 359 
Q 3791 134 3420 21 
Q 3050 -91 2638 -91 
Q 1578 -91 968 557 
Q 359 1206 359 2328 
Q 359 3453 968 4101 
Q 1578 4750 2638 4750 
Q 3056 4750 3426 4639 
Q 3797 4528 4122 4306 
z
" transform="scale(0.015625)"/>
           </defs>
           <use xlink:href="#DejaVuSans-53"/>
           <use xlink:href="#DejaVuSans-52" x="63.476562"/>
           <use xlink:href="#DejaVuSans-43" x="127.958984"/>
          </g>
         </g>
        </g>
        <g id="xtick_3">
         <g id="line2d_3"/>
         <g id="text_3">
          <!-- TAR -->
          <g transform="translate(429.829497 332.720312) scale(0.1 -0.1)">
           <defs>
            <path id="DejaVuSans-41" d="M 2188 4044 
L 1331 1722 
L 3047 1722 
L 2188 4044 
z
M 1831 4666 
L 2547 4666 
L 4325 0 
L 3669 0 
L 3244 1197 
L 1141 1197 
L 716 0 
L 50 0 
L 1831 4666 
z
" transform="scale(0.015625)"/>
           </defs>
           <use xlink:href="#DejaVuSans-54"/>
           <use xlink:href="#DejaVuSans-41" x="53.333984"/>
           <use xlink:href="#DejaVuSans-52" x="121.742188"/>
          </g>
         </g>
        </g>
       </g>
       <g id="matplotlib.axis_2">
        <g id="ytick_1">
         <g id="line2d_4">
          <defs>
           <path id="ma7e26d4642" d="M 0 0 
L -3.5 0 
" style="stroke: #000000; stroke-width: 0.8"/>
          </defs>
          <g>
           <use xlink:href="#ma7e26d4642" x="63.290625" y="321.621875" style="stroke: #000000; stroke-width: 0.8"/>
          </g>
         </g>
         <g id="text_4">
          <!-- 0 -->
          <g transform="translate(49.928125 325.421094) scale(0.1 -0.1)">
           <defs>
            <path id="DejaVuSans-30" d="M 2034 4250 
Q 1547 4250 1301 3770 
Q 1056 3291 1056 2328 
Q 1056 1369 1301 889 
Q 1547 409 2034 409 
Q 2525 409 2770 889 
Q 3016 1369 3016 2328 
Q 3016 3291 2770 3770 
Q 2525 4250 2034 4250 
z
M 2034 4750 
Q 2819 4750 3233 4129 
Q 3647 3509 3647 2328 
Q 3647 1150 3233 529 
Q 2819 -91 2034 -91 
Q 1250 -91 836 529 
Q 422 1150 422 2328 
Q 422 3509 836 4129 
Q 1250 4750 2034 4750 
z
" transform="scale(0.015625)"/>
           </defs>
           <use xlink:href="#DejaVuSans-30"/>
          </g>
         </g>
        </g>
        <g id="ytick_2">
         <g id="line2d_5">
          <g>
           <use xlink:href="#ma7e26d4642" x="63.290625" y="260.607619" style="stroke: #000000; stroke-width: 0.8"/>
          </g>
         </g>
         <g id="text_5">
          <!-- 5000 -->
          <g transform="translate(30.840625 264.406837) scale(0.1 -0.1)">
           <defs>
            <path id="DejaVuSans-35" d="M 691 4666 
L 3169 4666 
L 3169 4134 
L 1269 4134 
L 1269 2991 
Q 1406 3038 1543 3061 
Q 1681 3084 1819 3084 
Q 2600 3084 3056 2656 
Q 3513 2228 3513 1497 
Q 3513 744 3044 326 
Q 2575 -91 1722 -91 
Q 1428 -91 1123 -41 
Q 819 9 494 109 
L 494 744 
Q 775 591 1075 516 
Q 1375 441 1709 441 
Q 2250 441 2565 725 
Q 2881 1009 2881 1497 
Q 2881 1984 2565 2268 
Q 2250 2553 1709 2553 
Q 1456 2553 1204 2497 
Q 953 2441 691 2322 
L 691 4666 
z
" transform="scale(0.015625)"/>
           </defs>
           <use xlink:href="#DejaVuSans-35"/>
           <use xlink:href="#DejaVuSans-30" x="63.623047"/>
           <use xlink:href="#DejaVuSans-30" x="127.246094"/>
           <use xlink:href="#DejaVuSans-30" x="190.869141"/>
          </g>
         </g>
        </g>
        <g id="ytick_3">
         <g id="line2d_6">
          <g>
           <use xlink:href="#ma7e26d4642" x="63.290625" y="199.593362" style="stroke: #000000; stroke-width: 0.8"/>
          </g>
         </g>
         <g id="text_6">
          <!-- 10000 -->
          <g transform="translate(24.478125 203.392581) scale(0.1 -0.1)">
           <defs>
            <path id="DejaVuSans-31" d="M 794 531 
L 1825 531 
L 1825 4091 
L 703 3866 
L 703 4441 
L 1819 4666 
L 2450 4666 
L 2450 531 
L 3481 531 
L 3481 0 
L 794 0 
L 794 531 
z
" transform="scale(0.015625)"/>
           </defs>
           <use xlink:href="#DejaVuSans-31"/>
           <use xlink:href="#DejaVuSans-30" x="63.623047"/>
           <use xlink:href="#DejaVuSans-30" x="127.246094"/>
           <use xlink:href="#DejaVuSans-30" x="190.869141"/>
           <use xlink:href="#DejaVuSans-30" x="254.492188"/>
          </g>
         </g>
        </g>
        <g id="ytick_4">
         <g id="line2d_7">
          <g>
           <use xlink:href="#ma7e26d4642" x="63.290625" y="138.579106" style="stroke: #000000; stroke-width: 0.8"/>
          </g>
         </g>
         <g id="text_7">
          <!-- 15000 -->
          <g transform="translate(24.478125 142.378325) scale(0.1 -0.1)">
           <use xlink:href="#DejaVuSans-31"/>
           <use xlink:href="#DejaVuSans-35" x="63.623047"/>
           <use xlink:href="#DejaVuSans-30" x="127.246094"/>
           <use xlink:href="#DejaVuSans-30" x="190.869141"/>
           <use xlink:href="#DejaVuSans-30" x="254.492188"/>
          </g>
         </g>
        </g>
        <g id="ytick_5">
         <g id="line2d_8">
          <g>
           <use xlink:href="#ma7e26d4642" x="63.290625" y="77.56485" style="stroke: #000000; stroke-width: 0.8"/>
          </g>
         </g>
         <g id="text_8">
          <!-- 20000 -->
          <g transform="translate(24.478125 81.364069) scale(0.1 -0.1)">
           <defs>
            <path id="DejaVuSans-32" d="M 1228 531 
L 3431 531 
L 3431 0 
L 469 0 
L 469 531 
Q 828 903 1448 1529 
Q 2069 2156 2228 2338 
Q 2531 2678 2651 2914 
Q 2772 3150 2772 3378 
Q 2772 3750 2511 3984 
Q 2250 4219 1831 4219 
Q 1534 4219 1204 4116 
Q 875 4013 500 3803 
L 500 4441 
Q 881 4594 1212 4672 
Q 1544 4750 1819 4750 
Q 2544 4750 2975 4387 
Q 3406 4025 3406 3419 
Q 3406 3131 3298 2873 
Q 3191 2616 2906 2266 
Q 2828 2175 2409 1742 
Q 1991 1309 1228 531 
z
" transform="scale(0.015625)"/>
           </defs>
           <use xlink:href="#DejaVuSans-32"/>
           <use xlink:href="#DejaVuSans-30" x="63.623047"/>
           <use xlink:href="#DejaVuSans-30" x="127.246094"/>
           <use xlink:href="#DejaVuSans-30" x="190.869141"/>
           <use xlink:href="#DejaVuSans-30" x="254.492188"/>
          </g>
         </g>
        </g>
        <g id="ytick_6">
         <g id="line2d_9">
          <g>
           <use xlink:href="#ma7e26d4642" x="63.290625" y="16.550594" style="stroke: #000000; stroke-width: 0.8"/>
          </g>
         </g>
         <g id="text_9">
          <!-- 25000 -->
          <g transform="translate(24.478125 20.349812) scale(0.1 -0.1)">
           <use xlink:href="#DejaVuSans-32"/>
           <use xlink:href="#DejaVuSans-35" x="63.623047"/>
           <use xlink:href="#DejaVuSans-30" x="127.246094"/>
           <use xlink:href="#DejaVuSans-30" x="190.869141"/>
           <use xlink:href="#DejaVuSans-30" x="254.492188"/>
          </g>
         </g>
        </g>
        <g id="text_10">
         <!-- time ago (generations) -->
         <g transform="translate(18.398438 223.682031) rotate(-90) scale(0.1 -0.1)">
          <defs>
           <path id="DejaVuSans-74" d="M 1172 4494 
L 1172 3500 
L 2356 3500 
L 2356 3053 
L 1172 3053 
L 1172 1153 
Q 1172 725 1289 603 
Q 1406 481 1766 481 
L 2356 481 
L 2356 0 
L 1766 0 
Q 1100 0 847 248 
Q 594 497 594 1153 
L 594 3053 
L 172 3053 
L 172 3500 
L 594 3500 
L 594 4494 
L 1172 4494 
z
" transform="scale(0.015625)"/>
           <path id="DejaVuSans-69" d="M 603 3500 
L 1178 3500 
L 1178 0 
L 603 0 
L 603 3500 
z
M 603 4863 
L 1178 4863 
L 1178 4134 
L 603 4134 
L 603 4863 
z
" transform="scale(0.015625)"/>
           <path id="DejaVuSans-6d" d="M 3328 2828 
Q 3544 3216 3844 3400 
Q 4144 3584 4550 3584 
Q 5097 3584 5394 3201 
Q 5691 2819 5691 2113 
L 5691 0 
L 5113 0 
L 5113 2094 
Q 5113 2597 4934 2840 
Q 4756 3084 4391 3084 
Q 3944 3084 3684 2787 
Q 3425 2491 3425 1978 
L 3425 0 
L 2847 0 
L 2847 2094 
Q 2847 2600 2669 2842 
Q 2491 3084 2119 3084 
Q 1678 3084 1418 2786 
Q 1159 2488 1159 1978 
L 1159 0 
L 581 0 
L 581 3500 
L 1159 3500 
L 1159 2956 
Q 1356 3278 1631 3431 
Q 1906 3584 2284 3584 
Q 2666 3584 2933 3390 
Q 3200 3197 3328 2828 
z
" transform="scale(0.015625)"/>
           <path id="DejaVuSans-65" d="M 3597 1894 
L 3597 1613 
L 953 1613 
Q 991 1019 1311 708 
Q 1631 397 2203 397 
Q 2534 397 2845 478 
Q 3156 559 3463 722 
L 3463 178 
Q 3153 47 2828 -22 
Q 2503 -91 2169 -91 
Q 1331 -91 842 396 
Q 353 884 353 1716 
Q 353 2575 817 3079 
Q 1281 3584 2069 3584 
Q 2775 3584 3186 3129 
Q 3597 2675 3597 1894 
z
M 3022 2063 
Q 3016 2534 2758 2815 
Q 2500 3097 2075 3097 
Q 1594 3097 1305 2825 
Q 1016 2553 972 2059 
L 3022 2063 
z
" transform="scale(0.015625)"/>
           <path id="DejaVuSans-20" transform="scale(0.015625)"/>
           <path id="DejaVuSans-61" d="M 2194 1759 
Q 1497 1759 1228 1600 
Q 959 1441 959 1056 
Q 959 750 1161 570 
Q 1363 391 1709 391 
Q 2188 391 2477 730 
Q 2766 1069 2766 1631 
L 2766 1759 
L 2194 1759 
z
M 3341 1997 
L 3341 0 
L 2766 0 
L 2766 531 
Q 2569 213 2275 61 
Q 1981 -91 1556 -91 
Q 1019 -91 701 211 
Q 384 513 384 1019 
Q 384 1609 779 1909 
Q 1175 2209 1959 2209 
L 2766 2209 
L 2766 2266 
Q 2766 2663 2505 2880 
Q 2244 3097 1772 3097 
Q 1472 3097 1187 3025 
Q 903 2953 641 2809 
L 641 3341 
Q 956 3463 1253 3523 
Q 1550 3584 1831 3584 
Q 2591 3584 2966 3190 
Q 3341 2797 3341 1997 
z
" transform="scale(0.015625)"/>
           <path id="DejaVuSans-67" d="M 2906 1791 
Q 2906 2416 2648 2759 
Q 2391 3103 1925 3103 
Q 1463 3103 1205 2759 
Q 947 2416 947 1791 
Q 947 1169 1205 825 
Q 1463 481 1925 481 
Q 2391 481 2648 825 
Q 2906 1169 2906 1791 
z
M 3481 434 
Q 3481 -459 3084 -895 
Q 2688 -1331 1869 -1331 
Q 1566 -1331 1297 -1286 
Q 1028 -1241 775 -1147 
L 775 -588 
Q 1028 -725 1275 -790 
Q 1522 -856 1778 -856 
Q 2344 -856 2625 -561 
Q 2906 -266 2906 331 
L 2906 616 
Q 2728 306 2450 153 
Q 2172 0 1784 0 
Q 1141 0 747 490 
Q 353 981 353 1791 
Q 353 2603 747 3093 
Q 1141 3584 1784 3584 
Q 2172 3584 2450 3431 
Q 2728 3278 2906 2969 
L 2906 3500 
L 3481 3500 
L 3481 434 
z
" transform="scale(0.015625)"/>
           <path id="DejaVuSans-6f" d="M 1959 3097 
Q 1497 3097 1228 2736 
Q 959 2375 959 1747 
Q 959 1119 1226 758 
Q 1494 397 1959 397 
Q 2419 397 2687 759 
Q 2956 1122 2956 1747 
Q 2956 2369 2687 2733 
Q 2419 3097 1959 3097 
z
M 1959 3584 
Q 2709 3584 3137 3096 
Q 3566 2609 3566 1747 
Q 3566 888 3137 398 
Q 2709 -91 1959 -91 
Q 1206 -91 779 398 
Q 353 888 353 1747 
Q 353 2609 779 3096 
Q 1206 3584 1959 3584 
z
" transform="scale(0.015625)"/>
           <path id="DejaVuSans-28" d="M 1984 4856 
Q 1566 4138 1362 3434 
Q 1159 2731 1159 2009 
Q 1159 1288 1364 580 
Q 1569 -128 1984 -844 
L 1484 -844 
Q 1016 -109 783 600 
Q 550 1309 550 2009 
Q 550 2706 781 3412 
Q 1013 4119 1484 4856 
L 1984 4856 
z
" transform="scale(0.015625)"/>
           <path id="DejaVuSans-6e" d="M 3513 2113 
L 3513 0 
L 2938 0 
L 2938 2094 
Q 2938 2591 2744 2837 
Q 2550 3084 2163 3084 
Q 1697 3084 1428 2787 
Q 1159 2491 1159 1978 
L 1159 0 
L 581 0 
L 581 3500 
L 1159 3500 
L 1159 2956 
Q 1366 3272 1645 3428 
Q 1925 3584 2291 3584 
Q 2894 3584 3203 3211 
Q 3513 2838 3513 2113 
z
" transform="scale(0.015625)"/>
           <path id="DejaVuSans-72" d="M 2631 2963 
Q 2534 3019 2420 3045 
Q 2306 3072 2169 3072 
Q 1681 3072 1420 2755 
Q 1159 2438 1159 1844 
L 1159 0 
L 581 0 
L 581 3500 
L 1159 3500 
L 1159 2956 
Q 1341 3275 1631 3429 
Q 1922 3584 2338 3584 
Q 2397 3584 2469 3576 
Q 2541 3569 2628 3553 
L 2631 2963 
z
" transform="scale(0.015625)"/>
           <path id="DejaVuSans-73" d="M 2834 3397 
L 2834 2853 
Q 2591 2978 2328 3040 
Q 2066 3103 1784 3103 
Q 1356 3103 1142 2972 
Q 928 2841 928 2578 
Q 928 2378 1081 2264 
Q 1234 2150 1697 2047 
L 1894 2003 
Q 2506 1872 2764 1633 
Q 3022 1394 3022 966 
Q 3022 478 2636 193 
Q 2250 -91 1575 -91 
Q 1294 -91 989 -36 
Q 684 19 347 128 
L 347 722 
Q 666 556 975 473 
Q 1284 391 1588 391 
Q 1994 391 2212 530 
Q 2431 669 2431 922 
Q 2431 1156 2273 1281 
Q 2116 1406 1581 1522 
L 1381 1569 
Q 847 1681 609 1914 
Q 372 2147 372 2553 
Q 372 3047 722 3315 
Q 1072 3584 1716 3584 
Q 2034 3584 2315 3537 
Q 2597 3491 2834 3397 
z
" transform="scale(0.015625)"/>
           <path id="DejaVuSans-29" d="M 513 4856 
L 1013 4856 
Q 1481 4119 1714 3412 
Q 1947 2706 1947 2009 
Q 1947 1309 1714 600 
Q 1481 -109 1013 -844 
L 513 -844 
Q 928 -128 1133 580 
Q 1338 1288 1338 2009 
Q 1338 2731 1133 3434 
Q 928 4138 513 4856 
z
" transform="scale(0.015625)"/>
          </defs>
          <use xlink:href="#DejaVuSans-74"/>
          <use xlink:href="#DejaVuSans-69" x="39.208984"/>
          <use xlink:href="#DejaVuSans-6d" x="66.992188"/>
          <use xlink:href="#DejaVuSans-65" x="164.404297"/>
          <use xlink:href="#DejaVuSans-20" x="225.927734"/>
          <use xlink:href="#DejaVuSans-61" x="257.714844"/>
          <use xlink:href="#DejaVuSans-67" x="318.994141"/>
          <use xlink:href="#DejaVuSans-6f" x="382.470703"/>
          <use xlink:href="#DejaVuSans-20" x="443.652344"/>
          <use xlink:href="#DejaVuSans-28" x="475.439453"/>
          <use xlink:href="#DejaVuSans-67" x="514.453125"/>
          <use xlink:href="#DejaVuSans-65" x="577.929688"/>
          <use xlink:href="#DejaVuSans-6e" x="639.453125"/>
          <use xlink:href="#DejaVuSans-65" x="702.832031"/>
          <use xlink:href="#DejaVuSans-72" x="764.355469"/>
          <use xlink:href="#DejaVuSans-61" x="805.46875"/>
          <use xlink:href="#DejaVuSans-74" x="866.748047"/>
          <use xlink:href="#DejaVuSans-69" x="905.957031"/>
          <use xlink:href="#DejaVuSans-6f" x="933.740234"/>
          <use xlink:href="#DejaVuSans-6e" x="994.921875"/>
          <use xlink:href="#DejaVuSans-73" x="1058.300781"/>
          <use xlink:href="#DejaVuSans-29" x="1110.400391"/>
         </g>
        </g>
       </g>
       <g id="patch_7">
        <path d="M 261.338907 267.343593 
L 260.338907 267.312156 
L 259.338907 267.275216 
L 258.338907 267.177469 
L 257.338907 267.144948 
L 256.338907 267.071323 
L 255.338907 267.032757 
L 254.338907 266.997344 
L 253.338907 266.939704 
L 252.338907 266.869318 
L 251.338907 266.817354 
L 250.338907 266.758264 
L 249.338907 266.669943 
L 248.338907 266.623799 
L 247.338907 266.581388 
L 246.338907 266.550895 
L 245.338907 266.52485 
L 244.338907 266.50365 
L 243.338907 266.449349 
L 242.338907 266.421412 
L 241.338907 266.391688 
L 240.338907 266.366293 
L 239.338907 266.355092 
L 238.338907 266.344968 
L 237.338907 266.345173 
L 236.338907 266.354683 
L 235.338907 266.366336 
L 234.338907 266.397365 
L 233.338907 266.408533 
L 232.338907 266.438651 
L 231.338907 266.498428 
L 230.338907 266.535619 
L 229.338907 266.574715 
L 228.338907 266.617155 
L 227.338907 266.64992 
L 226.338907 266.717347 
L 225.338907 266.756473 
L 224.338907 266.799147 
L 223.338907 266.869728 
L 222.338907 266.906119 
L 221.338907 266.964522 
L 220.338907 267.075474 
L 219.338907 267.146133 
L 218.338907 267.259073 
L 217.338907 267.304845 
L 216.338907 267.366129 
L 215.338907 267.414628 
L 214.338907 267.495451 
L 213.338907 267.61397 
L 212.338907 267.68418 
L 211.338907 267.767443 
L 210.338907 267.800584 
L 209.338907 267.851822 
L 208.338907 267.92022 
L 207.338907 267.986436 
L 206.338907 268.063353 
L 205.338907 268.090668 
L 204.338907 268.117146 
L 203.338907 268.139796 
L 202.338907 268.159328 
L 201.338907 268.185722 
L 200.338907 268.235492 
L 199.338907 268.270565 
L 198.338907 268.306431 
L 197.338907 268.321798 
L 196.338907 268.337568 
L 195.338907 268.34098 
L 194.338907 268.343398 
L 193.338907 268.342912 
L 192.338907 268.340982 
L 191.338907 268.327725 
L 190.338907 268.319335 
L 189.338907 268.297798 
L 188.338907 268.274766 
L 187.338907 268.257532 
L 186.338907 268.23907 
L 185.338907 268.218617 
L 184.338907 268.202017 
L 183.338907 268.139239 
L 182.338907 268.063974 
L 181.338907 268.031334 
L 180.338907 267.963771 
L 178.705893 267.909724 
" clip-path="url(#pbaa578ad1b)" style="fill: none; stroke: #ffffff; stroke-width: 3; stroke-linecap: round"/>
        <path d="M 261.338907 267.343593 
L 260.338907 267.312156 
L 259.338907 267.275216 
L 258.338907 267.177469 
L 257.338907 267.144948 
L 256.338907 267.071323 
L 255.338907 267.032757 
L 254.338907 266.997344 
L 253.338907 266.939704 
L 252.338907 266.869318 
L 251.338907 266.817354 
L 250.338907 266.758264 
L 249.338907 266.669943 
L 248.338907 266.623799 
L 247.338907 266.581388 
L 246.338907 266.550895 
L 245.338907 266.52485 
L 244.338907 266.50365 
L 243.338907 266.449349 
L 242.338907 266.421412 
L 241.338907 266.391688 
L 240.338907 266.366293 
L 239.338907 266.355092 
L 238.338907 266.344968 
L 237.338907 266.345173 
L 236.338907 266.354683 
L 235.338907 266.366336 
L 234.338907 266.397365 
L 233.338907 266.408533 
L 232.338907 266.438651 
L 231.338907 266.498428 
L 230.338907 266.535619 
L 229.338907 266.574715 
L 228.338907 266.617155 
L 227.338907 266.64992 
L 226.338907 266.717347 
L 225.338907 266.756473 
L 224.338907 266.799147 
L 223.338907 266.869728 
L 222.338907 266.906119 
L 221.338907 266.964522 
L 220.338907 267.075474 
L 219.338907 267.146133 
L 218.338907 267.259073 
L 217.338907 267.304845 
L 216.338907 267.366129 
L 215.338907 267.414628 
L 214.338907 267.495451 
L 213.338907 267.61397 
L 212.338907 267.68418 
L 211.338907 267.767443 
L 210.338907 267.800584 
L 209.338907 267.851822 
L 208.338907 267.92022 
L 207.338907 267.986436 
L 206.338907 268.063353 
L 205.338907 268.090668 
L 204.338907 268.117146 
L 203.338907 268.139796 
L 202.338907 268.159328 
L 201.338907 268.185722 
L 200.338907 268.235492 
L 199.338907 268.270565 
L 198.338907 268.306431 
L 197.338907 268.321798 
L 196.338907 268.337568 
L 195.338907 268.34098 
L 194.338907 268.343398 
L 193.338907 268.342912 
L 192.338907 268.340982 
L 191.338907 268.327725 
L 190.338907 268.319335 
L 189.338907 268.297798 
L 188.338907 268.274766 
L 187.338907 268.257532 
L 186.338907 268.23907 
L 185.338907 268.218617 
L 184.338907 268.202017 
L 183.338907 268.139239 
L 182.338907 268.063974 
L 181.338907 268.031334 
L 180.338907 267.963771 
L 178.705893 267.909724 
" clip-path="url(#pbaa578ad1b)" style="fill: none; stroke: #1f77b4; stroke-linecap: round"/>
        <path d="M 182.705893 269.343593 
L 181.825525 268.868261 
L 180.947618 268.388007 
L 180.096904 267.853367 
L 178.79473 267.165919 
L 179.722083 267.139904 
L 180.633757 266.727185 
L 181.544022 266.311646 
L 182.886518 265.704841 
L 182.231619 266.343593 
L 182.179655 267.343593 
L 182.120565 269.343593 
z
" clip-path="url(#pbaa578ad1b)" style="fill: #ffffff; stroke: #ffffff; stroke-width: 3; stroke-linecap: round"/>
        <path d="M 182.705893 269.343593 
L 181.825525 268.868261 
L 180.947618 268.388007 
L 180.096904 267.853367 
L 178.79473 267.165919 
L 179.722083 267.139904 
L 180.633757 266.727185 
L 181.544022 266.311646 
L 182.886518 265.704841 
L 182.231619 266.343593 
L 182.179655 267.343593 
L 182.120565 269.343593 
z
" clip-path="url(#pbaa578ad1b)" style="fill: #ffffff; stroke: #1f77b4; stroke-linecap: round"/>
        <g id="patch_8">
         <path d="M 389.954597 72.964375 
L 390.954597 72.995811 
L 391.954597 73.032752 
L 392.954597 73.130498 
L 393.954597 73.16302 
L 394.954597 73.236645 
L 395.954597 73.27521 
L 396.954597 73.310623 
L 397.954597 73.368263 
L 398.954597 73.438649 
L 399.954597 73.490614 
L 400.954597 73.549703 
L 401.954597 73.638024 
L 402.954597 73.684169 
L 403.954597 73.72658 
L 404.954597 73.757072 
L 405.954597 73.783117 
L 406.954597 73.804317 
L 407.954597 73.858618 
L 408.954597 73.886556 
L 409.954597 73.91628 
L 410.954597 73.941675 
L 411.954597 73.952875 
L 412.954597 73.962999 
L 413.954597 73.962795 
L 414.954597 73.953285 
L 415.954597 73.941631 
L 416.954597 73.910602 
L 417.954597 73.899434 
L 418.954597 73.869317 
L 419.954597 73.80954 
L 420.954597 73.772348 
L 421.954597 73.733252 
L 422.954597 73.690812 
L 423.954597 73.658047 
L 424.954597 73.590621 
L 425.954597 73.551495 
L 426.954597 73.50882 
L 427.954597 73.43824 
L 428.954597 73.401849 
L 429.954597 73.343446 
L 430.954597 73.232493 
L 431.954597 73.161835 
L 432.954597 73.048895 
L 433.954597 73.003122 
L 434.954597 72.941839 
L 435.954597 72.89334 
L 436.954597 72.812517 
L 437.954597 72.693998 
L 438.954597 72.623787 
L 439.954597 72.540525 
L 440.954597 72.507383 
L 441.954597 72.456146 
L 442.954597 72.387747 
L 443.954597 72.321532 
L 444.954597 72.244615 
L 445.954597 72.217299 
L 446.954597 72.190822 
L 447.954597 72.168171 
L 448.954597 72.14864 
L 449.954597 72.122246 
L 450.954597 72.072475 
L 451.954597 72.037402 
L 452.954597 72.001536 
L 453.954597 71.986169 
L 454.954597 71.9704 
L 455.954597 71.966987 
L 456.954597 71.96457 
L 457.954597 71.965056 
L 458.954597 71.966985 
L 459.954597 71.980242 
L 460.954597 71.988633 
L 461.954597 72.010169 
L 462.954597 72.033202 
L 463.954597 72.050435 
L 464.954597 72.068898 
L 465.954597 72.08935 
L 466.954597 72.10595 
L 467.954597 72.168729 
L 468.954597 72.243994 
L 469.954597 72.276633 
L 470.954597 72.344197 
L 471.954597 72.398244 
L 472.954597 72.431948 
L 473.954597 72.522074 
L 474.954597 72.550609 
L 475.954597 72.582095 
L 476.954597 72.613106 
L 477.954597 72.667914 
L 478.954597 72.732501 
L 479.954597 72.770697 
L 480.954597 72.866631 
L 481.954597 72.915889 
L 482.954597 72.959958 
L 483.954597 73.000082 
L 484.954597 73.108449 
L 485.954597 73.150077 
L 486.954597 73.212219 
L 487.954597 73.282181 
L 488.954597 73.386685 
L 489.954597 73.423673 
L 490.954597 73.46955 
L 491.954597 73.538045 
L 492.954597 73.586791 
L 493.954597 73.664388 
L 494.954597 73.694929 
L 495.954597 73.764443 
L 496.954597 73.788416 
L 497.954597 73.817038 
L 498.954597 73.858831 
L 499.954597 73.880407 
L 500.954597 73.894355 
L 501.954597 73.921077 
L 502.954597 73.930387 
L 503.954597 73.942834 
L 504.954597 73.953889 
L 505.954597 73.959553 
L 506.954597 73.964317 
L 507.954597 73.958769 
L 508.954597 73.945481 
L 509.954597 73.937964 
L 510.954597 73.913179 
L 511.954597 73.88961 
L 512.954597 73.85343 
L 513.954597 73.827468 
L 514.954597 73.805146 
L 515.954597 73.736386 
L 516.954597 73.661851 
L 517.954597 73.567872 
L 518.954597 73.51682 
L 519.954597 73.462886 
L 520.954597 73.427635 
L 521.954597 73.321547 
L 522.954597 73.269283 
L 524.112873 73.232376 
" clip-path="url(#pbaa578ad1b)" style="fill: none; stroke: #ffffff; stroke-width: 3; stroke-linecap: round"/>
         <path d="M 389.954597 72.964375 
L 390.954597 72.995811 
L 391.954597 73.032752 
L 392.954597 73.130498 
L 393.954597 73.16302 
L 394.954597 73.236645 
L 395.954597 73.27521 
L 396.954597 73.310623 
L 397.954597 73.368263 
L 398.954597 73.438649 
L 399.954597 73.490614 
L 400.954597 73.549703 
L 401.954597 73.638024 
L 402.954597 73.684169 
L 403.954597 73.72658 
L 404.954597 73.757072 
L 405.954597 73.783117 
L 406.954597 73.804317 
L 407.954597 73.858618 
L 408.954597 73.886556 
L 409.954597 73.91628 
L 410.954597 73.941675 
L 411.954597 73.952875 
L 412.954597 73.962999 
L 413.954597 73.962795 
L 414.954597 73.953285 
L 415.954597 73.941631 
L 416.954597 73.910602 
L 417.954597 73.899434 
L 418.954597 73.869317 
L 419.954597 73.80954 
L 420.954597 73.772348 
L 421.954597 73.733252 
L 422.954597 73.690812 
L 423.954597 73.658047 
L 424.954597 73.590621 
L 425.954597 73.551495 
L 426.954597 73.50882 
L 427.954597 73.43824 
L 428.954597 73.401849 
L 429.954597 73.343446 
L 430.954597 73.232493 
L 431.954597 73.161835 
L 432.954597 73.048895 
L 433.954597 73.003122 
L 434.954597 72.941839 
L 435.954597 72.89334 
L 436.954597 72.812517 
L 437.954597 72.693998 
L 438.954597 72.623787 
L 439.954597 72.540525 
L 440.954597 72.507383 
L 441.954597 72.456146 
L 442.954597 72.387747 
L 443.954597 72.321532 
L 444.954597 72.244615 
L 445.954597 72.217299 
L 446.954597 72.190822 
L 447.954597 72.168171 
L 448.954597 72.14864 
L 449.954597 72.122246 
L 450.954597 72.072475 
L 451.954597 72.037402 
L 452.954597 72.001536 
L 453.954597 71.986169 
L 454.954597 71.9704 
L 455.954597 71.966987 
L 456.954597 71.96457 
L 457.954597 71.965056 
L 458.954597 71.966985 
L 459.954597 71.980242 
L 460.954597 71.988633 
L 461.954597 72.010169 
L 462.954597 72.033202 
L 463.954597 72.050435 
L 464.954597 72.068898 
L 465.954597 72.08935 
L 466.954597 72.10595 
L 467.954597 72.168729 
L 468.954597 72.243994 
L 469.954597 72.276633 
L 470.954597 72.344197 
L 471.954597 72.398244 
L 472.954597 72.431948 
L 473.954597 72.522074 
L 474.954597 72.550609 
L 475.954597 72.582095 
L 476.954597 72.613106 
L 477.954597 72.667914 
L 478.954597 72.732501 
L 479.954597 72.770697 
L 480.954597 72.866631 
L 481.954597 72.915889 
L 482.954597 72.959958 
L 483.954597 73.000082 
L 484.954597 73.108449 
L 485.954597 73.150077 
L 486.954597 73.212219 
L 487.954597 73.282181 
L 488.954597 73.386685 
L 489.954597 73.423673 
L 490.954597 73.46955 
L 491.954597 73.538045 
L 492.954597 73.586791 
L 493.954597 73.664388 
L 494.954597 73.694929 
L 495.954597 73.764443 
L 496.954597 73.788416 
L 497.954597 73.817038 
L 498.954597 73.858831 
L 499.954597 73.880407 
L 500.954597 73.894355 
L 501.954597 73.921077 
L 502.954597 73.930387 
L 503.954597 73.942834 
L 504.954597 73.953889 
L 505.954597 73.959553 
L 506.954597 73.964317 
L 507.954597 73.958769 
L 508.954597 73.945481 
L 509.954597 73.937964 
L 510.954597 73.913179 
L 511.954597 73.88961 
L 512.954597 73.85343 
L 513.954597 73.827468 
L 514.954597 73.805146 
L 515.954597 73.736386 
L 516.954597 73.661851 
L 517.954597 73.567872 
L 518.954597 73.51682 
L 519.954597 73.462886 
L 520.954597 73.427635 
L 521.954597 73.321547 
L 522.954597 73.269283 
L 524.112873 73.232376 
" clip-path="url(#pbaa578ad1b)" style="fill: none; stroke: #1f77b4; stroke-linecap: round"/>
         <path d="M 520.112873 70.964375 
L 520.993242 71.439706 
L 521.871149 71.91996 
L 522.721862 72.454601 
L 524.024036 73.142048 
L 523.096683 73.168063 
L 522.185009 73.580783 
L 521.274745 73.996322 
L 519.932249 74.603126 
L 520.587148 73.964375 
L 520.639112 72.964375 
L 520.698202 70.964375 
z
" clip-path="url(#pbaa578ad1b)" style="fill: #ffffff; stroke: #ffffff; stroke-width: 3; stroke-linecap: round"/>
         <path d="M 520.112873 70.964375 
L 520.993242 71.439706 
L 521.871149 71.91996 
L 522.721862 72.454601 
L 524.024036 73.142048 
L 523.096683 73.168063 
L 522.185009 73.580783 
L 521.274745 73.996322 
L 519.932249 74.603126 
L 520.587148 73.964375 
L 520.639112 72.964375 
L 520.698202 70.964375 
z
" clip-path="url(#pbaa578ad1b)" style="fill: #ffffff; stroke: #1f77b4; stroke-linecap: round"/>
         <g id="patch_9">
          <path d="M 177.582027 275.33646 
L 178.582027 275.367897 
L 179.582027 275.404837 
L 180.582027 275.502584 
L 181.582027 275.535105 
L 182.582027 275.60873 
L 183.582027 275.647295 
L 184.582027 275.682709 
L 185.582027 275.740349 
L 186.582027 275.810735 
L 187.582027 275.862699 
L 188.582027 275.921789 
L 189.582027 276.01011 
L 190.582027 276.056254 
L 191.582027 276.098665 
L 192.582027 276.129158 
L 193.582027 276.155203 
L 194.582027 276.176403 
L 195.582027 276.230704 
L 196.582027 276.258641 
L 197.582027 276.288365 
L 198.582027 276.31376 
L 199.582027 276.32496 
L 200.582027 276.335084 
L 201.582027 276.33488 
L 202.582027 276.32537 
L 203.582027 276.313717 
L 204.582027 276.282687 
L 205.582027 276.271519 
L 206.582027 276.241402 
L 207.582027 276.181625 
L 208.582027 276.144433 
L 209.582027 276.105337 
L 210.582027 276.062898 
L 211.582027 276.030133 
L 212.582027 275.962706 
L 213.582027 275.92358 
L 214.582027 275.880906 
L 215.582027 275.810325 
L 216.582027 275.773934 
L 217.582027 275.715531 
L 218.582027 275.604578 
L 219.582027 275.53392 
L 220.582027 275.42098 
L 221.582027 275.375207 
L 222.582027 275.313924 
L 223.582027 275.265425 
L 224.582027 275.184602 
L 225.582027 275.066083 
L 226.582027 274.995873 
L 227.582027 274.91261 
L 228.582027 274.879468 
L 229.582027 274.828231 
L 230.582027 274.759833 
L 231.582027 274.693617 
L 232.582027 274.6167 
L 233.582027 274.589385 
L 234.582027 274.562907 
L 235.582027 274.540257 
L 236.582027 274.520725 
L 237.582027 274.494331 
L 238.582027 274.44456 
L 239.582027 274.409487 
L 240.582027 274.373622 
L 241.582027 274.358254 
L 242.582027 274.342485 
L 243.582027 274.339073 
L 244.582027 274.336655 
L 245.582027 274.337141 
L 246.582027 274.33907 
L 247.582027 274.352327 
L 248.582027 274.360718 
L 249.582027 274.382255 
L 250.582027 274.405287 
L 251.582027 274.422521 
L 252.582027 274.440983 
L 253.582027 274.461436 
L 254.582027 274.478035 
L 255.582027 274.540814 
L 256.582027 274.616079 
L 257.582027 274.648718 
L 258.582027 274.716282 
L 259.582027 274.770329 
L 260.582027 274.804033 
L 261.582027 274.894159 
L 262.582027 274.922694 
L 263.582027 274.95418 
L 264.582027 274.985191 
L 265.582027 275.039999 
L 266.582027 275.104587 
L 267.582027 275.142782 
L 268.582027 275.238716 
L 269.582027 275.287974 
L 270.582027 275.332044 
L 271.582027 275.372167 
L 272.582027 275.480534 
L 273.582027 275.522162 
L 274.582027 275.584304 
L 275.582027 275.654266 
L 276.582027 275.758771 
L 277.582027 275.795758 
L 278.582027 275.841635 
L 279.582027 275.91013 
L 280.582027 275.958876 
L 281.582027 276.036473 
L 282.582027 276.067014 
L 283.582027 276.136529 
L 284.582027 276.160501 
L 285.582027 276.189123 
L 286.582027 276.230916 
L 287.582027 276.252492 
L 288.582027 276.26644 
L 289.582027 276.293163 
L 290.582027 276.302472 
L 291.582027 276.314919 
L 292.582027 276.325974 
L 293.582027 276.331639 
L 294.582027 276.336402 
L 295.582027 276.330855 
L 296.582027 276.317567 
L 297.582027 276.310049 
L 298.582027 276.285264 
L 299.582027 276.261696 
L 300.582027 276.225515 
L 301.582027 276.199553 
L 302.582027 276.177232 
L 303.582027 276.108471 
L 304.582027 276.033936 
L 305.582027 275.939957 
L 306.582027 275.888905 
L 307.582027 275.834971 
L 308.582027 275.79972 
L 309.582027 275.693632 
L 310.582027 275.641368 
L 311.582027 275.604462 
L 312.582027 275.573431 
L 313.582027 275.512275 
L 314.582027 275.444855 
L 315.582027 275.395949 
L 316.582027 275.330757 
L 317.582027 275.29257 
L 318.582027 275.250574 
L 319.582027 275.208556 
L 320.582027 275.14904 
L 321.582027 275.03588 
L 322.582027 274.983629 
L 323.582027 274.944212 
L 324.582027 274.89711 
L 325.582027 274.840331 
L 326.582027 274.807667 
L 327.582027 274.77149 
L 328.582027 274.739399 
L 329.582027 274.705119 
L 330.582027 274.646741 
L 331.582027 274.601556 
L 332.582027 274.571932 
L 333.582027 274.521547 
L 334.582027 274.496349 
L 335.582027 274.475298 
L 336.582027 274.44033 
L 337.582027 274.41604 
L 338.582027 274.401973 
L 339.582027 274.383031 
L 340.582027 274.36737 
L 341.582027 274.354818 
L 342.582027 274.348982 
L 343.582027 274.3421 
L 344.582027 274.336926 
L 345.582027 274.338709 
L 346.582027 274.341435 
L 347.582027 274.352588 
L 348.582027 274.380823 
L 349.582027 274.424611 
L 350.582027 274.4453 
L 351.582027 274.486274 
L 352.582027 274.526349 
L 353.582027 274.545458 
L 354.582027 274.567967 
L 355.582027 274.634619 
L 356.582027 274.684328 
L 357.582027 274.758035 
L 358.582027 274.789348 
L 359.582027 274.86597 
L 360.582027 274.904268 
L 361.582027 274.978385 
L 362.582027 275.082444 
L 363.582027 275.152274 
L 364.582027 275.257508 
L 365.582027 275.312523 
L 366.582027 275.435998 
L 367.582027 275.506557 
L 368.582027 275.622397 
L 369.582027 275.672577 
L 370.582027 275.708181 
L 371.582027 275.799588 
L 372.582027 275.853096 
L 373.582027 275.941004 
L 374.582027 276.010189 
L 375.582027 276.056954 
L 376.582027 276.128997 
L 377.582027 276.179139 
L 378.582027 276.196529 
L 379.582027 276.223532 
L 380.582027 276.24296 
L 381.582027 276.262298 
L 382.582027 276.300546 
L 383.582027 276.316979 
L 384.582027 276.325348 
L 385.582027 276.329667 
L 386.582027 276.336223 
L 387.582027 276.333676 
L 388.582027 276.328218 
L 389.582027 276.311789 
L 390.582027 276.279854 
L 391.582027 276.241874 
L 392.582027 276.20707 
L 393.582027 276.143998 
L 394.582027 276.122572 
L 395.582027 276.071954 
L 396.582027 276.046996 
L 397.582027 275.991363 
L 398.582027 275.960134 
L 399.582027 275.909989 
L 400.582027 275.877496 
L 401.582027 275.797084 
L 402.582027 275.728158 
L 403.582027 275.612461 
L 404.582027 275.536982 
L 405.582027 275.421457 
L 406.582027 275.341973 
L 407.582027 275.233532 
L 408.582027 275.194164 
L 409.582027 275.091297 
L 410.582027 274.991499 
L 411.582027 274.946001 
L 412.582027 274.911679 
L 413.582027 274.859723 
L 414.582027 274.820076 
L 415.582027 274.784562 
L 416.582027 274.716917 
L 417.582027 274.677836 
L 418.582027 274.627354 
L 419.582027 274.578048 
L 420.582027 274.526979 
L 421.582027 274.482739 
L 422.582027 274.460719 
L 423.582027 274.445163 
L 424.582027 274.402716 
L 425.582027 274.387848 
L 427.473705 274.365121 
" clip-path="url(#pbaa578ad1b)" style="fill: none; stroke: #ffffff; stroke-width: 3; stroke-linecap: round"/>
          <path d="M 177.582027 275.33646 
L 178.582027 275.367897 
L 179.582027 275.404837 
L 180.582027 275.502584 
L 181.582027 275.535105 
L 182.582027 275.60873 
L 183.582027 275.647295 
L 184.582027 275.682709 
L 185.582027 275.740349 
L 186.582027 275.810735 
L 187.582027 275.862699 
L 188.582027 275.921789 
L 189.582027 276.01011 
L 190.582027 276.056254 
L 191.582027 276.098665 
L 192.582027 276.129158 
L 193.582027 276.155203 
L 194.582027 276.176403 
L 195.582027 276.230704 
L 196.582027 276.258641 
L 197.582027 276.288365 
L 198.582027 276.31376 
L 199.582027 276.32496 
L 200.582027 276.335084 
L 201.582027 276.33488 
L 202.582027 276.32537 
L 203.582027 276.313717 
L 204.582027 276.282687 
L 205.582027 276.271519 
L 206.582027 276.241402 
L 207.582027 276.181625 
L 208.582027 276.144433 
L 209.582027 276.105337 
L 210.582027 276.062898 
L 211.582027 276.030133 
L 212.582027 275.962706 
L 213.582027 275.92358 
L 214.582027 275.880906 
L 215.582027 275.810325 
L 216.582027 275.773934 
L 217.582027 275.715531 
L 218.582027 275.604578 
L 219.582027 275.53392 
L 220.582027 275.42098 
L 221.582027 275.375207 
L 222.582027 275.313924 
L 223.582027 275.265425 
L 224.582027 275.184602 
L 225.582027 275.066083 
L 226.582027 274.995873 
L 227.582027 274.91261 
L 228.582027 274.879468 
L 229.582027 274.828231 
L 230.582027 274.759833 
L 231.582027 274.693617 
L 232.582027 274.6167 
L 233.582027 274.589385 
L 234.582027 274.562907 
L 235.582027 274.540257 
L 236.582027 274.520725 
L 237.582027 274.494331 
L 238.582027 274.44456 
L 239.582027 274.409487 
L 240.582027 274.373622 
L 241.582027 274.358254 
L 242.582027 274.342485 
L 243.582027 274.339073 
L 244.582027 274.336655 
L 245.582027 274.337141 
L 246.582027 274.33907 
L 247.582027 274.352327 
L 248.582027 274.360718 
L 249.582027 274.382255 
L 250.582027 274.405287 
L 251.582027 274.422521 
L 252.582027 274.440983 
L 253.582027 274.461436 
L 254.582027 274.478035 
L 255.582027 274.540814 
L 256.582027 274.616079 
L 257.582027 274.648718 
L 258.582027 274.716282 
L 259.582027 274.770329 
L 260.582027 274.804033 
L 261.582027 274.894159 
L 262.582027 274.922694 
L 263.582027 274.95418 
L 264.582027 274.985191 
L 265.582027 275.039999 
L 266.582027 275.104587 
L 267.582027 275.142782 
L 268.582027 275.238716 
L 269.582027 275.287974 
L 270.582027 275.332044 
L 271.582027 275.372167 
L 272.582027 275.480534 
L 273.582027 275.522162 
L 274.582027 275.584304 
L 275.582027 275.654266 
L 276.582027 275.758771 
L 277.582027 275.795758 
L 278.582027 275.841635 
L 279.582027 275.91013 
L 280.582027 275.958876 
L 281.582027 276.036473 
L 282.582027 276.067014 
L 283.582027 276.136529 
L 284.582027 276.160501 
L 285.582027 276.189123 
L 286.582027 276.230916 
L 287.582027 276.252492 
L 288.582027 276.26644 
L 289.582027 276.293163 
L 290.582027 276.302472 
L 291.582027 276.314919 
L 292.582027 276.325974 
L 293.582027 276.331639 
L 294.582027 276.336402 
L 295.582027 276.330855 
L 296.582027 276.317567 
L 297.582027 276.310049 
L 298.582027 276.285264 
L 299.582027 276.261696 
L 300.582027 276.225515 
L 301.582027 276.199553 
L 302.582027 276.177232 
L 303.582027 276.108471 
L 304.582027 276.033936 
L 305.582027 275.939957 
L 306.582027 275.888905 
L 307.582027 275.834971 
L 308.582027 275.79972 
L 309.582027 275.693632 
L 310.582027 275.641368 
L 311.582027 275.604462 
L 312.582027 275.573431 
L 313.582027 275.512275 
L 314.582027 275.444855 
L 315.582027 275.395949 
L 316.582027 275.330757 
L 317.582027 275.29257 
L 318.582027 275.250574 
L 319.582027 275.208556 
L 320.582027 275.14904 
L 321.582027 275.03588 
L 322.582027 274.983629 
L 323.582027 274.944212 
L 324.582027 274.89711 
L 325.582027 274.840331 
L 326.582027 274.807667 
L 327.582027 274.77149 
L 328.582027 274.739399 
L 329.582027 274.705119 
L 330.582027 274.646741 
L 331.582027 274.601556 
L 332.582027 274.571932 
L 333.582027 274.521547 
L 334.582027 274.496349 
L 335.582027 274.475298 
L 336.582027 274.44033 
L 337.582027 274.41604 
L 338.582027 274.401973 
L 339.582027 274.383031 
L 340.582027 274.36737 
L 341.582027 274.354818 
L 342.582027 274.348982 
L 343.582027 274.3421 
L 344.582027 274.336926 
L 345.582027 274.338709 
L 346.582027 274.341435 
L 347.582027 274.352588 
L 348.582027 274.380823 
L 349.582027 274.424611 
L 350.582027 274.4453 
L 351.582027 274.486274 
L 352.582027 274.526349 
L 353.582027 274.545458 
L 354.582027 274.567967 
L 355.582027 274.634619 
L 356.582027 274.684328 
L 357.582027 274.758035 
L 358.582027 274.789348 
L 359.582027 274.86597 
L 360.582027 274.904268 
L 361.582027 274.978385 
L 362.582027 275.082444 
L 363.582027 275.152274 
L 364.582027 275.257508 
L 365.582027 275.312523 
L 366.582027 275.435998 
L 367.582027 275.506557 
L 368.582027 275.622397 
L 369.582027 275.672577 
L 370.582027 275.708181 
L 371.582027 275.799588 
L 372.582027 275.853096 
L 373.582027 275.941004 
L 374.582027 276.010189 
L 375.582027 276.056954 
L 376.582027 276.128997 
L 377.582027 276.179139 
L 378.582027 276.196529 
L 379.582027 276.223532 
L 380.582027 276.24296 
L 381.582027 276.262298 
L 382.582027 276.300546 
L 383.582027 276.316979 
L 384.582027 276.325348 
L 385.582027 276.329667 
L 386.582027 276.336223 
L 387.582027 276.333676 
L 388.582027 276.328218 
L 389.582027 276.311789 
L 390.582027 276.279854 
L 391.582027 276.241874 
L 392.582027 276.20707 
L 393.582027 276.143998 
L 394.582027 276.122572 
L 395.582027 276.071954 
L 396.582027 276.046996 
L 397.582027 275.991363 
L 398.582027 275.960134 
L 399.582027 275.909989 
L 400.582027 275.877496 
L 401.582027 275.797084 
L 402.582027 275.728158 
L 403.582027 275.612461 
L 404.582027 275.536982 
L 405.582027 275.421457 
L 406.582027 275.341973 
L 407.582027 275.233532 
L 408.582027 275.194164 
L 409.582027 275.091297 
L 410.582027 274.991499 
L 411.582027 274.946001 
L 412.582027 274.911679 
L 413.582027 274.859723 
L 414.582027 274.820076 
L 415.582027 274.784562 
L 416.582027 274.716917 
L 417.582027 274.677836 
L 418.582027 274.627354 
L 419.582027 274.578048 
L 420.582027 274.526979 
L 421.582027 274.482739 
L 422.582027 274.460719 
L 423.582027 274.445163 
L 424.582027 274.402716 
L 425.582027 274.387848 
L 427.473705 274.365121 
" clip-path="url(#pbaa578ad1b)" style="fill: none; stroke: #ff7f0e; stroke-linecap: round"/>
          <path d="M 423.473705 273.33646 
L 424.354073 273.811791 
L 425.23198 274.292045 
L 426.082694 274.826686 
L 427.384868 275.514134 
L 426.457515 275.540148 
L 425.545841 275.952868 
L 424.635576 276.368407 
L 423.293081 276.975212 
L 423.947979 276.33646 
L 423.999944 275.33646 
L 424.059033 273.33646 
z
" clip-path="url(#pbaa578ad1b)" style="fill: #ffffff; stroke: #ffffff; stroke-width: 3; stroke-linecap: round"/>
          <path d="M 423.473705 273.33646 
L 424.354073 273.811791 
L 425.23198 274.292045 
L 426.082694 274.826686 
L 427.384868 275.514134 
L 426.457515 275.540148 
L 425.545841 275.952868 
L 424.635576 276.368407 
L 423.293081 276.975212 
L 423.947979 276.33646 
L 423.999944 275.33646 
L 424.059033 273.33646 
z
" clip-path="url(#pbaa578ad1b)" style="fill: #ffffff; stroke: #ff7f0e; stroke-linecap: round"/>
          <path d="M 445.202402 306.441528 
" clip-path="url(#pbaa578ad1b)" style="fill: none; stroke-dasharray: 3.7,1.6; stroke-dashoffset: 0; stroke: #2ca02c"/>
          <path d="M 444.202402 306.441528 
L 446.202402 307.441528 
L 446.202402 305.441528 
z
" clip-path="url(#pbaa578ad1b)" style="fill: #2ca02c; stroke: #2ca02c; stroke-linejoin: miter"/>
          <g id="patch_10">
           <path d="M 63.290625 321.621875 
L 63.290625 10.8 
" style="fill: none; stroke: #000000; stroke-width: 0.8; stroke-linejoin: miter; stroke-linecap: square"/>
          </g>
          <g id="text_11">
           <g id="patch_11">
            <path d="M 314.993685 145.910859 
L 336.298373 145.910859 
Q 338.298373 145.910859 338.298373 143.910859 
L 338.298373 134.232734 
Q 338.298373 132.232734 336.298373 132.232734 
L 314.993685 132.232734 
Q 312.993685 132.232734 312.993685 134.232734 
L 312.993685 143.910859 
Q 312.993685 145.910859 314.993685 145.910859 
z
" style="fill: #ffffff; opacity: 0.6"/>
           </g>
           <!-- ANC -->
           <g transform="translate(314.993685 141.831171) scale(0.1 -0.1)">
            <defs>
             <path id="DejaVuSans-4e" d="M 628 4666 
L 1478 4666 
L 3547 763 
L 3547 4666 
L 4159 4666 
L 4159 0 
L 3309 0 
L 1241 3903 
L 1241 0 
L 628 0 
L 628 4666 
z
" transform="scale(0.015625)"/>
            </defs>
            <use xlink:href="#DejaVuSans-41"/>
            <use xlink:href="#DejaVuSans-4e" x="68.408203"/>
            <use xlink:href="#DejaVuSans-43" x="143.212891"/>
           </g>
          </g>
         </g>
        </g>
        <defs>
         <clipPath id="pbaa578ad1b">
          <rect x="63.290625" y="10.8" width="540.309375" height="310.821875"/>
         </clipPath>
        </defs>
       </g>
      </g>
     </g>
    </g>
   </g>
  </g>
 </g>
</svg>
