<?xml version="1.0" encoding="utf-8" standalone="no"?>
<!DOCTYPE svg PUBLIC "-//W3C//DTD SVG 1.1//EN"
  "http://www.w3.org/Graphics/SVG/1.1/DTD/svg11.dtd">
<svg xmlns:xlink="http://www.w3.org/1999/xlink" width="614.4pt" height="345.6pt" viewBox="0 0 614.4 345.6" xmlns="http://www.w3.org/2000/svg" version="1.1">
 <metadata>
  <rdf:RDF xmlns:dc="http://purl.org/dc/elements/1.1/" xmlns:cc="http://creativecommons.org/ns#" xmlns:rdf="http://www.w3.org/1999/02/22-rdf-syntax-ns#">
   <cc:Work>
    <dc:type rdf:resource="http://purl.org/dc/dcmitype/StillImage"/>
    <dc:date>2024-04-17T19:40:10.825994</dc:date>
    <dc:format>image/svg+xml</dc:format>
    <dc:creator>
     <cc:Agent>
      <dc:title>Matplotlib v3.7.1, https://matplotlib.org/</dc:title>
     </cc:Agent>
    </dc:creator>
   </cc:Work>
  </rdf:RDF>
 </metadata>
 <defs>
  <style type="text/css">*{stroke-linejoin: round; stroke-linecap: butt}</style>
 </defs>
 <g id="figure_1">
  <g id="patch_1">
   <path d="M 0 345.6 
L 614.4 345.6 
L 614.4 0 
L 0 0 
z
" style="fill: #ffffff"/>
  </g>
  <g id="axes_1">
   <g id="patch_2">
    <path d="M 63.290625 321.621875 
L 603.6 321.621875 
L 603.6 10.8 
L 63.290625 10.8 
z
" style="fill: #ffffff"/>
   </g>
   <path d="M 536.189061 298.845881 
L 535.189061 298.814445 
L 534.189061 298.777504 
L 533.189061 298.679758 
L 532.189061 298.647236 
L 531.189061 298.573612 
L 530.189061 298.535046 
L 529.189061 298.499633 
L 528.189061 298.441993 
L 527.189061 298.371607 
L 526.189061 298.319643 
L 525.189061 298.260553 
L 524.189061 298.172232 
L 523.189061 298.126087 
L 522.189061 298.083677 
L 521.189061 298.053184 
L 520.189061 298.027139 
L 519.189061 298.005939 
L 518.189061 297.951638 
L 517.189061 297.9237 
L 516.189061 297.893976 
L 515.189061 297.868581 
L 514.189061 297.857381 
L 513.189061 297.847257 
L 512.189061 297.847461 
L 511.189061 297.856971 
L 510.189061 297.868625 
L 509.189061 297.899654 
L 508.189061 297.910822 
L 507.189061 297.94094 
L 506.189061 298.000716 
L 505.189061 298.037908 
L 504.189061 298.077004 
L 503.189061 298.119444 
L 502.189061 298.152209 
L 501.189061 298.219635 
L 500.189061 298.258761 
L 499.189061 298.301436 
L 498.189061 298.372016 
L 497.189061 298.408407 
L 496.189061 298.46681 
L 495.189061 298.577763 
L 494.189061 298.648421 
L 493.189061 298.761361 
L 492.189061 298.807134 
L 491.189061 298.868417 
L 490.189061 298.916917 
L 489.189061 298.997739 
L 488.189061 299.116258 
L 487.189061 299.186469 
L 486.189061 299.269731 
L 485.189061 299.302873 
L 484.189061 299.35411 
L 483.189061 299.422509 
L 482.189061 299.488724 
L 481.189061 299.565641 
L 480.189061 299.592957 
L 479.189061 299.619434 
L 478.189061 299.642085 
L 477.189061 299.661616 
L 476.189061 299.68801 
L 475.189061 299.737781 
L 474.189061 299.772854 
L 473.189061 299.80872 
L 472.189061 299.824087 
L 471.189061 299.839856 
L 470.189061 299.843269 
L 469.189061 299.845687 
L 468.189061 299.8452 
L 467.189061 299.843271 
L 466.189061 299.830014 
L 465.189061 299.821624 
L 464.189061 299.800087 
L 463.189061 299.777054 
L 462.189061 299.759821 
L 461.189061 299.741358 
L 460.189061 299.720906 
L 459.189061 299.704306 
L 458.189061 299.641527 
L 457.189061 299.566262 
L 456.189061 299.533623 
L 455.189061 299.46606 
L 454.189061 299.412012 
L 453.189061 299.378308 
L 452.189061 299.288182 
L 451.189061 299.259647 
L 450.189061 299.228161 
L 449.189061 299.19715 
L 448.189061 299.142342 
L 447.189061 299.077755 
L 446.189061 299.03956 
L 445.189061 298.943625 
L 444.189061 298.894367 
L 443.189061 298.850298 
L 442.189061 298.810174 
L 441.189061 298.701807 
L 440.189061 298.660179 
L 439.189061 298.598038 
L 438.189061 298.528075 
L 437.092223 298.423571 
" clip-path="url(#pd8207c7fbf)" style="fill: none; stroke-dasharray: 3.7,1.6; stroke-dashoffset: 0; stroke: #2ca02c"/>
   <g id="patch_3">
    <path d="M 275.729715 10.8 
L 275.729715 162.38203 
M 319.913687 10.8 
L 319.913687 162.38203 
" clip-path="url(#pd8207c7fbf)" style="fill: none; stroke: #ffffff; stroke-width: 3; stroke-linejoin: miter"/>
    <path d="M 275.729715 10.8 
L 275.729715 162.38203 
M 319.913687 10.8 
L 319.913687 162.38203 
" clip-path="url(#pd8207c7fbf)" style="fill: none; stroke: #1f77b4; stroke-linejoin: miter"/>
    <g id="PolyCollection_1">
     <path d="M 319.913687 10.8 
L 275.729715 10.8 
L 275.729715 162.38203 
L 319.913687 162.38203 
L 319.913687 162.38203 
L 319.913687 10.8 
z
" clip-path="url(#pd8207c7fbf)" style="fill: #1f77b4; fill-opacity: 0.5"/>
    </g>
    <g id="patch_4">
     <path d="M 88.096568 162.38203 
L 87.987623 321.503287 
L 87.850142 321.621875 
M 113.804908 162.38203 
L 113.913853 321.503287 
L 114.051334 321.621875 
L 114.051334 321.621875 
" clip-path="url(#pd8207c7fbf)" style="fill: none; stroke: #ffffff; stroke-width: 3; stroke-linejoin: miter"/>
     <path d="M 88.096568 162.38203 
L 87.987623 321.503287 
L 87.850142 321.621875 
M 113.804908 162.38203 
L 113.913853 321.503287 
L 114.051334 321.621875 
L 114.051334 321.621875 
" clip-path="url(#pd8207c7fbf)" style="fill: none; stroke: #ff7f0e; stroke-linejoin: miter"/>
     <g id="PolyCollection_2">
      <path d="M 113.804908 162.38203 
L 88.096568 162.38203 
L 88.096568 321.408417 
L 88.096568 321.408417 
L 88.094102 321.410573 
L 88.091636 321.412729 
L 88.089169 321.414885 
L 88.086702 321.417041 
L 88.084234 321.419197 
L 88.081766 321.421354 
L 88.079297 321.42351 
L 88.076828 321.425666 
L 88.074359 321.427822 
L 88.071888 321.429978 
L 88.069418 321.432134 
L 88.066947 321.43429 
L 88.064475 321.436447 
L 88.062003 321.438603 
L 88.059531 321.440759 
L 88.057058 321.442915 
L 88.054585 321.445071 
L 88.052111 321.447227 
L 88.049636 321.449383 
L 88.047161 321.45154 
L 88.044686 321.453696 
L 88.04221 321.455852 
L 88.039734 321.458008 
L 88.037257 321.460164 
L 88.03478 321.46232 
L 88.032303 321.464477 
L 88.029824 321.466633 
L 88.027346 321.468789 
L 88.024867 321.470945 
L 88.022387 321.473101 
L 88.019907 321.475257 
L 88.017426 321.477413 
L 88.014945 321.47957 
L 88.012464 321.481726 
L 88.009982 321.483882 
L 88.0075 321.486038 
L 88.005017 321.488194 
L 88.002533 321.49035 
L 88.000049 321.492506 
L 87.997565 321.494663 
L 87.99508 321.496819 
L 87.992595 321.498975 
L 87.990109 321.501131 
L 87.987623 321.503287 
L 87.985136 321.505443 
L 87.982649 321.507599 
L 87.980161 321.509756 
L 87.977673 321.511912 
L 87.975184 321.514068 
L 87.972695 321.516224 
L 87.970206 321.51838 
L 87.967716 321.520536 
L 87.965225 321.522692 
L 87.962734 321.524849 
L 87.960243 321.527005 
L 87.957751 321.529161 
L 87.955258 321.531317 
L 87.952765 321.533473 
L 87.950272 321.535629 
L 87.947778 321.537785 
L 87.945284 321.539942 
L 87.942789 321.542098 
L 87.940293 321.544254 
L 87.937798 321.54641 
L 87.935301 321.548566 
L 87.932805 321.550722 
L 87.930307 321.552878 
L 87.92781 321.555035 
L 87.925311 321.557191 
L 87.922813 321.559347 
L 87.920314 321.561503 
L 87.917814 321.563659 
L 87.915314 321.565815 
L 87.912813 321.567971 
L 87.910312 321.570128 
L 87.907811 321.572284 
L 87.905308 321.57444 
L 87.902806 321.576596 
L 87.900303 321.578752 
L 87.897799 321.580908 
L 87.895296 321.583064 
L 87.892791 321.585221 
L 87.890286 321.587377 
L 87.887781 321.589533 
L 87.885275 321.591689 
L 87.882769 321.593845 
L 87.880262 321.596001 
L 87.877754 321.598157 
L 87.875247 321.600314 
L 87.872738 321.60247 
L 87.87023 321.604626 
L 87.86772 321.606782 
L 87.865211 321.608938 
L 87.8627 321.611094 
L 87.86019 321.61325 
L 87.857678 321.615407 
L 87.855167 321.617563 
L 87.852655 321.619719 
L 87.850142 321.621875 
L 114.051334 321.621875 
L 114.051334 321.621875 
L 114.048822 321.619719 
L 114.04631 321.617563 
L 114.043798 321.615407 
L 114.041287 321.61325 
L 114.038776 321.611094 
L 114.036266 321.608938 
L 114.033756 321.606782 
L 114.031247 321.604626 
L 114.028738 321.60247 
L 114.02623 321.600314 
L 114.023722 321.598157 
L 114.021215 321.596001 
L 114.018708 321.593845 
L 114.016201 321.591689 
L 114.013696 321.589533 
L 114.01119 321.587377 
L 114.008685 321.585221 
L 114.006181 321.583064 
L 114.003677 321.580908 
L 114.001173 321.578752 
L 113.99867 321.576596 
L 113.996168 321.57444 
L 113.993666 321.572284 
L 113.991164 321.570128 
L 113.988663 321.567971 
L 113.986163 321.565815 
L 113.983662 321.563659 
L 113.981163 321.561503 
L 113.978664 321.559347 
L 113.976165 321.557191 
L 113.973667 321.555035 
L 113.971169 321.552878 
L 113.968672 321.550722 
L 113.966175 321.548566 
L 113.963679 321.54641 
L 113.961183 321.544254 
L 113.958688 321.542098 
L 113.956193 321.539942 
L 113.953698 321.537785 
L 113.951204 321.535629 
L 113.948711 321.533473 
L 113.946218 321.531317 
L 113.943726 321.529161 
L 113.941234 321.527005 
L 113.938742 321.524849 
L 113.936251 321.522692 
L 113.933761 321.520536 
L 113.931271 321.51838 
L 113.928781 321.516224 
L 113.926292 321.514068 
L 113.923803 321.511912 
L 113.921315 321.509756 
L 113.918827 321.507599 
L 113.91634 321.505443 
L 113.913853 321.503287 
L 113.911367 321.501131 
L 113.908881 321.498975 
L 113.906396 321.496819 
L 113.903911 321.494663 
L 113.901427 321.492506 
L 113.898943 321.49035 
L 113.89646 321.488194 
L 113.893977 321.486038 
L 113.891494 321.483882 
L 113.889012 321.481726 
L 113.886531 321.47957 
L 113.88405 321.477413 
L 113.881569 321.475257 
L 113.879089 321.473101 
L 113.87661 321.470945 
L 113.874131 321.468789 
L 113.871652 321.466633 
L 113.869174 321.464477 
L 113.866696 321.46232 
L 113.864219 321.460164 
L 113.861742 321.458008 
L 113.859266 321.455852 
L 113.85679 321.453696 
L 113.854315 321.45154 
L 113.85184 321.449383 
L 113.849366 321.447227 
L 113.846892 321.445071 
L 113.844418 321.442915 
L 113.841945 321.440759 
L 113.839473 321.438603 
L 113.837001 321.436447 
L 113.834529 321.43429 
L 113.832058 321.432134 
L 113.829588 321.429978 
L 113.827118 321.427822 
L 113.824648 321.425666 
L 113.822179 321.42351 
L 113.81971 321.421354 
L 113.817242 321.419197 
L 113.814774 321.417041 
L 113.812307 321.414885 
L 113.80984 321.412729 
L 113.807374 321.410573 
L 113.804908 321.408417 
L 113.804908 321.408417 
L 113.804908 162.38203 
z
" clip-path="url(#pd8207c7fbf)" style="fill: #ff7f0e; fill-opacity: 0.5"/>
     </g>
     <g id="patch_5">
      <path d="M 541.592155 72.964375 
L 541.592155 321.621875 
M 579.040483 72.964375 
L 579.040483 321.621875 
" clip-path="url(#pd8207c7fbf)" style="fill: none; stroke: #ffffff; stroke-width: 3; stroke-linejoin: miter"/>
      <path d="M 541.592155 72.964375 
L 541.592155 321.621875 
M 579.040483 72.964375 
L 579.040483 321.621875 
" clip-path="url(#pd8207c7fbf)" style="fill: none; stroke: #2ca02c; stroke-linejoin: miter"/>
      <g id="PolyCollection_3">
       <path d="M 579.040483 72.964375 
L 541.592155 72.964375 
L 541.592155 321.621875 
L 579.040483 321.621875 
L 579.040483 321.621875 
L 579.040483 72.964375 
z
" clip-path="url(#pd8207c7fbf)" style="fill: #2ca02c; fill-opacity: 0.5"/>
      </g>
      <g id="patch_6">
       <path d="M 426.448891 247.167642 
L 426.448891 277.286599 
L 427.413533 277.286599 
L 427.413533 278.823499 
L 426.448891 278.823499 
L 426.357693 306.217952 
L 425.379961 307.632598 
L 424.21848 308.890061 
L 422.905835 309.990342 
L 421.237961 311.090622 
L 419.11873 312.190902 
L 416.425994 313.291182 
L 413.5449 314.234279 
L 410.007261 315.177377 
L 405.663463 316.120474 
L 400.329799 317.063571 
L 393.780699 318.006669 
L 385.739187 318.949766 
L 375.865173 319.892863 
L 363.741065 320.835961 
L 351.552235 321.621875 
M 431.689129 247.167642 
L 431.689129 277.286599 
L 430.724487 277.286599 
L 430.724487 278.823499 
L 431.689129 278.823499 
L 431.780328 306.217952 
L 432.758059 307.632598 
L 433.91954 308.890061 
L 435.232186 309.990342 
L 436.900059 311.090622 
L 439.01929 312.190902 
L 441.712026 313.291182 
L 444.593121 314.234279 
L 448.13076 315.177377 
L 452.474558 316.120474 
L 457.808221 317.063571 
L 464.357322 318.006669 
L 472.398834 318.949766 
L 482.272848 319.892863 
L 494.396955 320.835961 
L 506.585785 321.621875 
L 506.585785 321.621875 
" clip-path="url(#pd8207c7fbf)" style="fill: none; stroke: #ffffff; stroke-width: 3; stroke-linejoin: miter"/>
       <path d="M 426.448891 247.167642 
L 426.448891 277.286599 
L 427.413533 277.286599 
L 427.413533 278.823499 
L 426.448891 278.823499 
L 426.357693 306.217952 
L 425.379961 307.632598 
L 424.21848 308.890061 
L 422.905835 309.990342 
L 421.237961 311.090622 
L 419.11873 312.190902 
L 416.425994 313.291182 
L 413.5449 314.234279 
L 410.007261 315.177377 
L 405.663463 316.120474 
L 400.329799 317.063571 
L 393.780699 318.006669 
L 385.739187 318.949766 
L 375.865173 319.892863 
L 363.741065 320.835961 
L 351.552235 321.621875 
M 431.689129 247.167642 
L 431.689129 277.286599 
L 430.724487 277.286599 
L 430.724487 278.823499 
L 431.689129 278.823499 
L 431.780328 306.217952 
L 432.758059 307.632598 
L 433.91954 308.890061 
L 435.232186 309.990342 
L 436.900059 311.090622 
L 439.01929 312.190902 
L 441.712026 313.291182 
L 444.593121 314.234279 
L 448.13076 315.177377 
L 452.474558 316.120474 
L 457.808221 317.063571 
L 464.357322 318.006669 
L 472.398834 318.949766 
L 482.272848 319.892863 
L 494.396955 320.835961 
L 506.585785 321.621875 
L 506.585785 321.621875 
" clip-path="url(#pd8207c7fbf)" style="fill: none; stroke: #d62728; stroke-linejoin: miter"/>
       <g id="PolyCollection_4">
        <path d="M 431.689129 247.167642 
L 426.448891 247.167642 
L 426.448891 277.286599 
L 427.413533 277.286599 
L 427.413533 278.823499 
L 426.448891 278.823499 
L 426.448891 306.06077 
L 426.448891 306.06077 
L 426.357693 306.217952 
L 426.26332 306.375135 
L 426.165662 306.532318 
L 426.064606 306.689501 
L 425.960031 306.846684 
L 425.851817 307.003867 
L 425.739837 307.16105 
L 425.623958 307.318233 
L 425.504047 307.475415 
L 425.379961 307.632598 
L 425.251556 307.789781 
L 425.118682 307.946964 
L 424.981184 308.104147 
L 424.838899 308.26133 
L 424.691661 308.418513 
L 424.539299 308.575696 
L 424.381634 308.732879 
L 424.21848 308.890061 
L 424.049648 309.047244 
L 423.87494 309.204427 
L 423.69415 309.36161 
L 423.507067 309.518793 
L 423.313473 309.675976 
L 423.11314 309.833159 
L 422.905835 309.990342 
L 422.691313 310.147525 
L 422.469325 310.304707 
L 422.23961 310.46189 
L 422.001899 310.619073 
L 421.755915 310.776256 
L 421.501368 310.933439 
L 421.237961 311.090622 
L 420.965386 311.247805 
L 420.683324 311.404988 
L 420.391444 311.56217 
L 420.089404 311.719353 
L 419.776851 311.876536 
L 419.45342 312.033719 
L 419.11873 312.190902 
L 418.772391 312.348085 
L 418.413997 312.505268 
L 418.043129 312.662451 
L 417.659351 312.819634 
L 417.262216 312.976816 
L 416.851257 313.133999 
L 416.425994 313.291182 
L 415.985929 313.448365 
L 415.530547 313.605548 
L 415.059314 313.762731 
L 414.57168 313.919914 
L 414.067072 314.077097 
L 413.5449 314.234279 
L 413.004553 314.391462 
L 412.445398 314.548645 
L 411.86678 314.705828 
L 411.268023 314.863011 
L 410.648425 315.020194 
L 410.007261 315.177377 
L 409.343779 315.33456 
L 408.657204 315.491743 
L 407.946731 315.648925 
L 407.211529 315.806108 
L 406.450736 315.963291 
L 405.663463 316.120474 
L 404.848787 316.277657 
L 404.005755 316.43484 
L 403.133379 316.592023 
L 402.230639 316.749206 
L 401.296477 316.906388 
L 400.329799 317.063571 
L 399.329475 317.220754 
L 398.294332 317.377937 
L 397.223159 317.53512 
L 396.114702 317.692303 
L 394.967663 317.849486 
L 393.780699 318.006669 
L 392.55242 318.163852 
L 391.281388 318.321034 
L 389.966116 318.478217 
L 388.605064 318.6354 
L 387.196637 318.792583 
L 385.739187 318.949766 
L 384.231008 319.106949 
L 382.670333 319.264132 
L 381.055336 319.421315 
L 379.384127 319.578498 
L 377.654747 319.73568 
L 375.865173 319.892863 
L 374.013309 320.050046 
L 372.096988 320.207229 
L 370.113965 320.364412 
L 368.061919 320.521595 
L 365.938448 320.678778 
L 363.741065 320.835961 
L 361.467198 320.993143 
L 359.114185 321.150326 
L 356.67927 321.307509 
L 354.159604 321.464692 
L 351.552235 321.621875 
L 506.585785 321.621875 
L 506.585785 321.621875 
L 503.978417 321.464692 
L 501.45875 321.307509 
L 499.023835 321.150326 
L 496.670822 320.993143 
L 494.396955 320.835961 
L 492.199572 320.678778 
L 490.076101 320.521595 
L 488.024055 320.364412 
L 486.041033 320.207229 
L 484.124711 320.050046 
L 482.272848 319.892863 
L 480.483274 319.73568 
L 478.753894 319.578498 
L 477.082684 319.421315 
L 475.467687 319.264132 
L 473.907013 319.106949 
L 472.398834 318.949766 
L 470.941384 318.792583 
L 469.532957 318.6354 
L 468.171904 318.478217 
L 466.856632 318.321034 
L 465.585601 318.163852 
L 464.357322 318.006669 
L 463.170358 317.849486 
L 462.023318 317.692303 
L 460.914861 317.53512 
L 459.843688 317.377937 
L 458.808546 317.220754 
L 457.808221 317.063571 
L 456.841544 316.906388 
L 455.907382 316.749206 
L 455.004641 316.592023 
L 454.132266 316.43484 
L 453.289233 316.277657 
L 452.474558 316.120474 
L 451.687284 315.963291 
L 450.926492 315.806108 
L 450.19129 315.648925 
L 449.480817 315.491743 
L 448.794241 315.33456 
L 448.13076 315.177377 
L 447.489595 315.020194 
L 446.869997 314.863011 
L 446.27124 314.705828 
L 445.692623 314.548645 
L 445.133468 314.391462 
L 444.593121 314.234279 
L 444.070949 314.077097 
L 443.566341 313.919914 
L 443.078706 313.762731 
L 442.607473 313.605548 
L 442.152091 313.448365 
L 441.712026 313.291182 
L 441.286763 313.133999 
L 440.875805 312.976816 
L 440.478669 312.819634 
L 440.094892 312.662451 
L 439.724023 312.505268 
L 439.365629 312.348085 
L 439.01929 312.190902 
L 438.684601 312.033719 
L 438.361169 311.876536 
L 438.048616 311.719353 
L 437.746577 311.56217 
L 437.454696 311.404988 
L 437.172634 311.247805 
L 436.900059 311.090622 
L 436.636652 310.933439 
L 436.382106 310.776256 
L 436.136121 310.619073 
L 435.898411 310.46189 
L 435.668696 310.304707 
L 435.446707 310.147525 
L 435.232186 309.990342 
L 435.02488 309.833159 
L 434.824547 309.675976 
L 434.630953 309.518793 
L 434.443871 309.36161 
L 434.263081 309.204427 
L 434.088372 309.047244 
L 433.91954 308.890061 
L 433.756387 308.732879 
L 433.598721 308.575696 
L 433.446359 308.418513 
L 433.299122 308.26133 
L 433.156837 308.104147 
L 433.019338 307.946964 
L 432.886464 307.789781 
L 432.758059 307.632598 
L 432.633974 307.475415 
L 432.514062 307.318233 
L 432.398184 307.16105 
L 432.286203 307.003867 
L 432.177989 306.846684 
L 432.073415 306.689501 
L 431.972358 306.532318 
L 431.874701 306.375135 
L 431.780328 306.217952 
L 431.689129 306.06077 
L 431.689129 306.06077 
L 431.689129 278.823499 
L 430.724487 278.823499 
L 430.724487 277.286599 
L 431.689129 277.286599 
L 431.689129 247.167642 
z
" clip-path="url(#pd8207c7fbf)" style="fill: #d62728; fill-opacity: 0.5"/>
       </g>
       <g id="matplotlib.axis_1">
        <g id="xtick_1">
         <g id="line2d_1"/>
         <g id="text_1">
          <!-- OUT -->
          <g transform="translate(90.301519 332.720312) scale(0.1 -0.1)">
           <defs>
            <path id="DejaVuSans-4f" d="M 2522 4238 
Q 1834 4238 1429 3725 
Q 1025 3213 1025 2328 
Q 1025 1447 1429 934 
Q 1834 422 2522 422 
Q 3209 422 3611 934 
Q 4013 1447 4013 2328 
Q 4013 3213 3611 3725 
Q 3209 4238 2522 4238 
z
M 2522 4750 
Q 3503 4750 4090 4092 
Q 4678 3434 4678 2328 
Q 4678 1225 4090 567 
Q 3503 -91 2522 -91 
Q 1538 -91 948 565 
Q 359 1222 359 2328 
Q 359 3434 948 4092 
Q 1538 4750 2522 4750 
z
" transform="scale(0.015625)"/>
            <path id="DejaVuSans-55" d="M 556 4666 
L 1191 4666 
L 1191 1831 
Q 1191 1081 1462 751 
Q 1734 422 2344 422 
Q 2950 422 3222 751 
Q 3494 1081 3494 1831 
L 3494 4666 
L 4128 4666 
L 4128 1753 
Q 4128 841 3676 375 
Q 3225 -91 2344 -91 
Q 1459 -91 1007 375 
Q 556 841 556 1753 
L 556 4666 
z
" transform="scale(0.015625)"/>
            <path id="DejaVuSans-54" d="M -19 4666 
L 3928 4666 
L 3928 4134 
L 2272 4134 
L 2272 0 
L 1638 0 
L 1638 4134 
L -19 4134 
L -19 4666 
z
" transform="scale(0.015625)"/>
           </defs>
           <use xlink:href="#DejaVuSans-4f"/>
           <use xlink:href="#DejaVuSans-55" x="78.710938"/>
           <use xlink:href="#DejaVuSans-54" x="151.904297"/>
          </g>
         </g>
        </g>
        <g id="xtick_2">
         <g id="line2d_2"/>
         <g id="text_2">
          <!-- SRC -->
          <g transform="translate(550.426475 332.720312) scale(0.1 -0.1)">
           <defs>
            <path id="DejaVuSans-53" d="M 3425 4513 
L 3425 3897 
Q 3066 4069 2747 4153 
Q 2428 4238 2131 4238 
Q 1616 4238 1336 4038 
Q 1056 3838 1056 3469 
Q 1056 3159 1242 3001 
Q 1428 2844 1947 2747 
L 2328 2669 
Q 3034 2534 3370 2195 
Q 3706 1856 3706 1288 
Q 3706 609 3251 259 
Q 2797 -91 1919 -91 
Q 1588 -91 1214 -16 
Q 841 59 441 206 
L 441 856 
Q 825 641 1194 531 
Q 1563 422 1919 422 
Q 2459 422 2753 634 
Q 3047 847 3047 1241 
Q 3047 1584 2836 1778 
Q 2625 1972 2144 2069 
L 1759 2144 
Q 1053 2284 737 2584 
Q 422 2884 422 3419 
Q 422 4038 858 4394 
Q 1294 4750 2059 4750 
Q 2388 4750 2728 4690 
Q 3069 4631 3425 4513 
z
" transform="scale(0.015625)"/>
            <path id="DejaVuSans-52" d="M 2841 2188 
Q 3044 2119 3236 1894 
Q 3428 1669 3622 1275 
L 4263 0 
L 3584 0 
L 2988 1197 
Q 2756 1666 2539 1819 
Q 2322 1972 1947 1972 
L 1259 1972 
L 1259 0 
L 628 0 
L 628 4666 
L 2053 4666 
Q 2853 4666 3247 4331 
Q 3641 3997 3641 3322 
Q 3641 2881 3436 2590 
Q 3231 2300 2841 2188 
z
M 1259 4147 
L 1259 2491 
L 2053 2491 
Q 2509 2491 2742 2702 
Q 2975 2913 2975 3322 
Q 2975 3731 2742 3939 
Q 2509 4147 2053 4147 
L 1259 4147 
z
" transform="scale(0.015625)"/>
            <path id="DejaVuSans-43" d="M 4122 4306 
L 4122 3641 
Q 3803 3938 3442 4084 
Q 3081 4231 2675 4231 
Q 1875 4231 1450 3742 
Q 1025 3253 1025 2328 
Q 1025 1406 1450 917 
Q 1875 428 2675 428 
Q 3081 428 3442 575 
Q 3803 722 4122 1019 
L 4122 359 
Q 3791 134 3420 21 
Q 3050 -91 2638 -91 
Q 1578 -91 968 557 
Q 359 1206 359 2328 
Q 359 3453 968 4101 
Q 1578 4750 2638 4750 
Q 3056 4750 3426 4639 
Q 3797 4528 4122 4306 
z
" transform="scale(0.015625)"/>
           </defs>
           <use xlink:href="#DejaVuSans-53"/>
           <use xlink:href="#DejaVuSans-52" x="63.476562"/>
           <use xlink:href="#DejaVuSans-43" x="127.958984"/>
          </g>
         </g>
        </g>
        <g id="xtick_3">
         <g id="line2d_3"/>
         <g id="text_3">
          <!-- TAR -->
          <g transform="translate(419.508073 332.720312) scale(0.1 -0.1)">
           <defs>
            <path id="DejaVuSans-41" d="M 2188 4044 
L 1331 1722 
L 3047 1722 
L 2188 4044 
z
M 1831 4666 
L 2547 4666 
L 4325 0 
L 3669 0 
L 3244 1197 
L 1141 1197 
L 716 0 
L 50 0 
L 1831 4666 
z
" transform="scale(0.015625)"/>
           </defs>
           <use xlink:href="#DejaVuSans-54"/>
           <use xlink:href="#DejaVuSans-41" x="53.333984"/>
           <use xlink:href="#DejaVuSans-52" x="121.742188"/>
          </g>
         </g>
        </g>
       </g>
       <g id="matplotlib.axis_2">
        <g id="ytick_1">
         <g id="line2d_4">
          <defs>
           <path id="m8a6f04066b" d="M 0 0 
L -3.5 0 
" style="stroke: #000000; stroke-width: 0.8"/>
          </defs>
          <g>
           <use xlink:href="#m8a6f04066b" x="63.290625" y="321.621875" style="stroke: #000000; stroke-width: 0.8"/>
          </g>
         </g>
         <g id="text_4">
          <!-- 0 -->
          <g transform="translate(49.928125 325.421094) scale(0.1 -0.1)">
           <defs>
            <path id="DejaVuSans-30" d="M 2034 4250 
Q 1547 4250 1301 3770 
Q 1056 3291 1056 2328 
Q 1056 1369 1301 889 
Q 1547 409 2034 409 
Q 2525 409 2770 889 
Q 3016 1369 3016 2328 
Q 3016 3291 2770 3770 
Q 2525 4250 2034 4250 
z
M 2034 4750 
Q 2819 4750 3233 4129 
Q 3647 3509 3647 2328 
Q 3647 1150 3233 529 
Q 2819 -91 2034 -91 
Q 1250 -91 836 529 
Q 422 1150 422 2328 
Q 422 3509 836 4129 
Q 1250 4750 2034 4750 
z
" transform="scale(0.015625)"/>
           </defs>
           <use xlink:href="#DejaVuSans-30"/>
          </g>
         </g>
        </g>
        <g id="ytick_2">
         <g id="line2d_5">
          <g>
           <use xlink:href="#m8a6f04066b" x="63.290625" y="278.930228" style="stroke: #000000; stroke-width: 0.8"/>
          </g>
         </g>
         <g id="text_5">
          <!-- 2000 -->
          <g transform="translate(30.840625 282.729446) scale(0.1 -0.1)">
           <defs>
            <path id="DejaVuSans-32" d="M 1228 531 
L 3431 531 
L 3431 0 
L 469 0 
L 469 531 
Q 828 903 1448 1529 
Q 2069 2156 2228 2338 
Q 2531 2678 2651 2914 
Q 2772 3150 2772 3378 
Q 2772 3750 2511 3984 
Q 2250 4219 1831 4219 
Q 1534 4219 1204 4116 
Q 875 4013 500 3803 
L 500 4441 
Q 881 4594 1212 4672 
Q 1544 4750 1819 4750 
Q 2544 4750 2975 4387 
Q 3406 4025 3406 3419 
Q 3406 3131 3298 2873 
Q 3191 2616 2906 2266 
Q 2828 2175 2409 1742 
Q 1991 1309 1228 531 
z
" transform="scale(0.015625)"/>
           </defs>
           <use xlink:href="#DejaVuSans-32"/>
           <use xlink:href="#DejaVuSans-30" x="63.623047"/>
           <use xlink:href="#DejaVuSans-30" x="127.246094"/>
           <use xlink:href="#DejaVuSans-30" x="190.869141"/>
          </g>
         </g>
        </g>
        <g id="ytick_3">
         <g id="line2d_6">
          <g>
           <use xlink:href="#m8a6f04066b" x="63.290625" y="236.23858" style="stroke: #000000; stroke-width: 0.8"/>
          </g>
         </g>
         <g id="text_6">
          <!-- 4000 -->
          <g transform="translate(30.840625 240.037799) scale(0.1 -0.1)">
           <defs>
            <path id="DejaVuSans-34" d="M 2419 4116 
L 825 1625 
L 2419 1625 
L 2419 4116 
z
M 2253 4666 
L 3047 4666 
L 3047 1625 
L 3713 1625 
L 3713 1100 
L 3047 1100 
L 3047 0 
L 2419 0 
L 2419 1100 
L 313 1100 
L 313 1709 
L 2253 4666 
z
" transform="scale(0.015625)"/>
           </defs>
           <use xlink:href="#DejaVuSans-34"/>
           <use xlink:href="#DejaVuSans-30" x="63.623047"/>
           <use xlink:href="#DejaVuSans-30" x="127.246094"/>
           <use xlink:href="#DejaVuSans-30" x="190.869141"/>
          </g>
         </g>
        </g>
        <g id="ytick_4">
         <g id="line2d_7">
          <g>
           <use xlink:href="#m8a6f04066b" x="63.290625" y="193.546933" style="stroke: #000000; stroke-width: 0.8"/>
          </g>
         </g>
         <g id="text_7">
          <!-- 6000 -->
          <g transform="translate(30.840625 197.346152) scale(0.1 -0.1)">
           <defs>
            <path id="DejaVuSans-36" d="M 2113 2584 
Q 1688 2584 1439 2293 
Q 1191 2003 1191 1497 
Q 1191 994 1439 701 
Q 1688 409 2113 409 
Q 2538 409 2786 701 
Q 3034 994 3034 1497 
Q 3034 2003 2786 2293 
Q 2538 2584 2113 2584 
z
M 3366 4563 
L 3366 3988 
Q 3128 4100 2886 4159 
Q 2644 4219 2406 4219 
Q 1781 4219 1451 3797 
Q 1122 3375 1075 2522 
Q 1259 2794 1537 2939 
Q 1816 3084 2150 3084 
Q 2853 3084 3261 2657 
Q 3669 2231 3669 1497 
Q 3669 778 3244 343 
Q 2819 -91 2113 -91 
Q 1303 -91 875 529 
Q 447 1150 447 2328 
Q 447 3434 972 4092 
Q 1497 4750 2381 4750 
Q 2619 4750 2861 4703 
Q 3103 4656 3366 4563 
z
" transform="scale(0.015625)"/>
           </defs>
           <use xlink:href="#DejaVuSans-36"/>
           <use xlink:href="#DejaVuSans-30" x="63.623047"/>
           <use xlink:href="#DejaVuSans-30" x="127.246094"/>
           <use xlink:href="#DejaVuSans-30" x="190.869141"/>
          </g>
         </g>
        </g>
        <g id="ytick_5">
         <g id="line2d_8">
          <g>
           <use xlink:href="#m8a6f04066b" x="63.290625" y="150.855286" style="stroke: #000000; stroke-width: 0.8"/>
          </g>
         </g>
         <g id="text_8">
          <!-- 8000 -->
          <g transform="translate(30.840625 154.654504) scale(0.1 -0.1)">
           <defs>
            <path id="DejaVuSans-38" d="M 2034 2216 
Q 1584 2216 1326 1975 
Q 1069 1734 1069 1313 
Q 1069 891 1326 650 
Q 1584 409 2034 409 
Q 2484 409 2743 651 
Q 3003 894 3003 1313 
Q 3003 1734 2745 1975 
Q 2488 2216 2034 2216 
z
M 1403 2484 
Q 997 2584 770 2862 
Q 544 3141 544 3541 
Q 544 4100 942 4425 
Q 1341 4750 2034 4750 
Q 2731 4750 3128 4425 
Q 3525 4100 3525 3541 
Q 3525 3141 3298 2862 
Q 3072 2584 2669 2484 
Q 3125 2378 3379 2068 
Q 3634 1759 3634 1313 
Q 3634 634 3220 271 
Q 2806 -91 2034 -91 
Q 1263 -91 848 271 
Q 434 634 434 1313 
Q 434 1759 690 2068 
Q 947 2378 1403 2484 
z
M 1172 3481 
Q 1172 3119 1398 2916 
Q 1625 2713 2034 2713 
Q 2441 2713 2670 2916 
Q 2900 3119 2900 3481 
Q 2900 3844 2670 4047 
Q 2441 4250 2034 4250 
Q 1625 4250 1398 4047 
Q 1172 3844 1172 3481 
z
" transform="scale(0.015625)"/>
           </defs>
           <use xlink:href="#DejaVuSans-38"/>
           <use xlink:href="#DejaVuSans-30" x="63.623047"/>
           <use xlink:href="#DejaVuSans-30" x="127.246094"/>
           <use xlink:href="#DejaVuSans-30" x="190.869141"/>
          </g>
         </g>
        </g>
        <g id="ytick_6">
         <g id="line2d_9">
          <g>
           <use xlink:href="#m8a6f04066b" x="63.290625" y="108.163638" style="stroke: #000000; stroke-width: 0.8"/>
          </g>
         </g>
         <g id="text_9">
          <!-- 10000 -->
          <g transform="translate(24.478125 111.962857) scale(0.1 -0.1)">
           <defs>
            <path id="DejaVuSans-31" d="M 794 531 
L 1825 531 
L 1825 4091 
L 703 3866 
L 703 4441 
L 1819 4666 
L 2450 4666 
L 2450 531 
L 3481 531 
L 3481 0 
L 794 0 
L 794 531 
z
" transform="scale(0.015625)"/>
           </defs>
           <use xlink:href="#DejaVuSans-31"/>
           <use xlink:href="#DejaVuSans-30" x="63.623047"/>
           <use xlink:href="#DejaVuSans-30" x="127.246094"/>
           <use xlink:href="#DejaVuSans-30" x="190.869141"/>
           <use xlink:href="#DejaVuSans-30" x="254.492188"/>
          </g>
         </g>
        </g>
        <g id="ytick_7">
         <g id="line2d_10">
          <g>
           <use xlink:href="#m8a6f04066b" x="63.290625" y="65.471991" style="stroke: #000000; stroke-width: 0.8"/>
          </g>
         </g>
         <g id="text_10">
          <!-- 12000 -->
          <g transform="translate(24.478125 69.27121) scale(0.1 -0.1)">
           <use xlink:href="#DejaVuSans-31"/>
           <use xlink:href="#DejaVuSans-32" x="63.623047"/>
           <use xlink:href="#DejaVuSans-30" x="127.246094"/>
           <use xlink:href="#DejaVuSans-30" x="190.869141"/>
           <use xlink:href="#DejaVuSans-30" x="254.492188"/>
          </g>
         </g>
        </g>
        <g id="ytick_8">
         <g id="line2d_11">
          <g>
           <use xlink:href="#m8a6f04066b" x="63.290625" y="22.780344" style="stroke: #000000; stroke-width: 0.8"/>
          </g>
         </g>
         <g id="text_11">
          <!-- 14000 -->
          <g transform="translate(24.478125 26.579562) scale(0.1 -0.1)">
           <use xlink:href="#DejaVuSans-31"/>
           <use xlink:href="#DejaVuSans-34" x="63.623047"/>
           <use xlink:href="#DejaVuSans-30" x="127.246094"/>
           <use xlink:href="#DejaVuSans-30" x="190.869141"/>
           <use xlink:href="#DejaVuSans-30" x="254.492188"/>
          </g>
         </g>
        </g>
        <g id="text_12">
         <!-- time ago (generations) -->
         <g transform="translate(18.398438 223.682031) rotate(-90) scale(0.1 -0.1)">
          <defs>
           <path id="DejaVuSans-74" d="M 1172 4494 
L 1172 3500 
L 2356 3500 
L 2356 3053 
L 1172 3053 
L 1172 1153 
Q 1172 725 1289 603 
Q 1406 481 1766 481 
L 2356 481 
L 2356 0 
L 1766 0 
Q 1100 0 847 248 
Q 594 497 594 1153 
L 594 3053 
L 172 3053 
L 172 3500 
L 594 3500 
L 594 4494 
L 1172 4494 
z
" transform="scale(0.015625)"/>
           <path id="DejaVuSans-69" d="M 603 3500 
L 1178 3500 
L 1178 0 
L 603 0 
L 603 3500 
z
M 603 4863 
L 1178 4863 
L 1178 4134 
L 603 4134 
L 603 4863 
z
" transform="scale(0.015625)"/>
           <path id="DejaVuSans-6d" d="M 3328 2828 
Q 3544 3216 3844 3400 
Q 4144 3584 4550 3584 
Q 5097 3584 5394 3201 
Q 5691 2819 5691 2113 
L 5691 0 
L 5113 0 
L 5113 2094 
Q 5113 2597 4934 2840 
Q 4756 3084 4391 3084 
Q 3944 3084 3684 2787 
Q 3425 2491 3425 1978 
L 3425 0 
L 2847 0 
L 2847 2094 
Q 2847 2600 2669 2842 
Q 2491 3084 2119 3084 
Q 1678 3084 1418 2786 
Q 1159 2488 1159 1978 
L 1159 0 
L 581 0 
L 581 3500 
L 1159 3500 
L 1159 2956 
Q 1356 3278 1631 3431 
Q 1906 3584 2284 3584 
Q 2666 3584 2933 3390 
Q 3200 3197 3328 2828 
z
" transform="scale(0.015625)"/>
           <path id="DejaVuSans-65" d="M 3597 1894 
L 3597 1613 
L 953 1613 
Q 991 1019 1311 708 
Q 1631 397 2203 397 
Q 2534 397 2845 478 
Q 3156 559 3463 722 
L 3463 178 
Q 3153 47 2828 -22 
Q 2503 -91 2169 -91 
Q 1331 -91 842 396 
Q 353 884 353 1716 
Q 353 2575 817 3079 
Q 1281 3584 2069 3584 
Q 2775 3584 3186 3129 
Q 3597 2675 3597 1894 
z
M 3022 2063 
Q 3016 2534 2758 2815 
Q 2500 3097 2075 3097 
Q 1594 3097 1305 2825 
Q 1016 2553 972 2059 
L 3022 2063 
z
" transform="scale(0.015625)"/>
           <path id="DejaVuSans-20" transform="scale(0.015625)"/>
           <path id="DejaVuSans-61" d="M 2194 1759 
Q 1497 1759 1228 1600 
Q 959 1441 959 1056 
Q 959 750 1161 570 
Q 1363 391 1709 391 
Q 2188 391 2477 730 
Q 2766 1069 2766 1631 
L 2766 1759 
L 2194 1759 
z
M 3341 1997 
L 3341 0 
L 2766 0 
L 2766 531 
Q 2569 213 2275 61 
Q 1981 -91 1556 -91 
Q 1019 -91 701 211 
Q 384 513 384 1019 
Q 384 1609 779 1909 
Q 1175 2209 1959 2209 
L 2766 2209 
L 2766 2266 
Q 2766 2663 2505 2880 
Q 2244 3097 1772 3097 
Q 1472 3097 1187 3025 
Q 903 2953 641 2809 
L 641 3341 
Q 956 3463 1253 3523 
Q 1550 3584 1831 3584 
Q 2591 3584 2966 3190 
Q 3341 2797 3341 1997 
z
" transform="scale(0.015625)"/>
           <path id="DejaVuSans-67" d="M 2906 1791 
Q 2906 2416 2648 2759 
Q 2391 3103 1925 3103 
Q 1463 3103 1205 2759 
Q 947 2416 947 1791 
Q 947 1169 1205 825 
Q 1463 481 1925 481 
Q 2391 481 2648 825 
Q 2906 1169 2906 1791 
z
M 3481 434 
Q 3481 -459 3084 -895 
Q 2688 -1331 1869 -1331 
Q 1566 -1331 1297 -1286 
Q 1028 -1241 775 -1147 
L 775 -588 
Q 1028 -725 1275 -790 
Q 1522 -856 1778 -856 
Q 2344 -856 2625 -561 
Q 2906 -266 2906 331 
L 2906 616 
Q 2728 306 2450 153 
Q 2172 0 1784 0 
Q 1141 0 747 490 
Q 353 981 353 1791 
Q 353 2603 747 3093 
Q 1141 3584 1784 3584 
Q 2172 3584 2450 3431 
Q 2728 3278 2906 2969 
L 2906 3500 
L 3481 3500 
L 3481 434 
z
" transform="scale(0.015625)"/>
           <path id="DejaVuSans-6f" d="M 1959 3097 
Q 1497 3097 1228 2736 
Q 959 2375 959 1747 
Q 959 1119 1226 758 
Q 1494 397 1959 397 
Q 2419 397 2687 759 
Q 2956 1122 2956 1747 
Q 2956 2369 2687 2733 
Q 2419 3097 1959 3097 
z
M 1959 3584 
Q 2709 3584 3137 3096 
Q 3566 2609 3566 1747 
Q 3566 888 3137 398 
Q 2709 -91 1959 -91 
Q 1206 -91 779 398 
Q 353 888 353 1747 
Q 353 2609 779 3096 
Q 1206 3584 1959 3584 
z
" transform="scale(0.015625)"/>
           <path id="DejaVuSans-28" d="M 1984 4856 
Q 1566 4138 1362 3434 
Q 1159 2731 1159 2009 
Q 1159 1288 1364 580 
Q 1569 -128 1984 -844 
L 1484 -844 
Q 1016 -109 783 600 
Q 550 1309 550 2009 
Q 550 2706 781 3412 
Q 1013 4119 1484 4856 
L 1984 4856 
z
" transform="scale(0.015625)"/>
           <path id="DejaVuSans-6e" d="M 3513 2113 
L 3513 0 
L 2938 0 
L 2938 2094 
Q 2938 2591 2744 2837 
Q 2550 3084 2163 3084 
Q 1697 3084 1428 2787 
Q 1159 2491 1159 1978 
L 1159 0 
L 581 0 
L 581 3500 
L 1159 3500 
L 1159 2956 
Q 1366 3272 1645 3428 
Q 1925 3584 2291 3584 
Q 2894 3584 3203 3211 
Q 3513 2838 3513 2113 
z
" transform="scale(0.015625)"/>
           <path id="DejaVuSans-72" d="M 2631 2963 
Q 2534 3019 2420 3045 
Q 2306 3072 2169 3072 
Q 1681 3072 1420 2755 
Q 1159 2438 1159 1844 
L 1159 0 
L 581 0 
L 581 3500 
L 1159 3500 
L 1159 2956 
Q 1341 3275 1631 3429 
Q 1922 3584 2338 3584 
Q 2397 3584 2469 3576 
Q 2541 3569 2628 3553 
L 2631 2963 
z
" transform="scale(0.015625)"/>
           <path id="DejaVuSans-73" d="M 2834 3397 
L 2834 2853 
Q 2591 2978 2328 3040 
Q 2066 3103 1784 3103 
Q 1356 3103 1142 2972 
Q 928 2841 928 2578 
Q 928 2378 1081 2264 
Q 1234 2150 1697 2047 
L 1894 2003 
Q 2506 1872 2764 1633 
Q 3022 1394 3022 966 
Q 3022 478 2636 193 
Q 2250 -91 1575 -91 
Q 1294 -91 989 -36 
Q 684 19 347 128 
L 347 722 
Q 666 556 975 473 
Q 1284 391 1588 391 
Q 1994 391 2212 530 
Q 2431 669 2431 922 
Q 2431 1156 2273 1281 
Q 2116 1406 1581 1522 
L 1381 1569 
Q 847 1681 609 1914 
Q 372 2147 372 2553 
Q 372 3047 722 3315 
Q 1072 3584 1716 3584 
Q 2034 3584 2315 3537 
Q 2597 3491 2834 3397 
z
" transform="scale(0.015625)"/>
           <path id="DejaVuSans-29" d="M 513 4856 
L 1013 4856 
Q 1481 4119 1714 3412 
Q 1947 2706 1947 2009 
Q 1947 1309 1714 600 
Q 1481 -109 1013 -844 
L 513 -844 
Q 928 -128 1133 580 
Q 1338 1288 1338 2009 
Q 1338 2731 1133 3434 
Q 928 4138 513 4856 
z
" transform="scale(0.015625)"/>
          </defs>
          <use xlink:href="#DejaVuSans-74"/>
          <use xlink:href="#DejaVuSans-69" x="39.208984"/>
          <use xlink:href="#DejaVuSans-6d" x="66.992188"/>
          <use xlink:href="#DejaVuSans-65" x="164.404297"/>
          <use xlink:href="#DejaVuSans-20" x="225.927734"/>
          <use xlink:href="#DejaVuSans-61" x="257.714844"/>
          <use xlink:href="#DejaVuSans-67" x="318.994141"/>
          <use xlink:href="#DejaVuSans-6f" x="382.470703"/>
          <use xlink:href="#DejaVuSans-20" x="443.652344"/>
          <use xlink:href="#DejaVuSans-28" x="475.439453"/>
          <use xlink:href="#DejaVuSans-67" x="514.453125"/>
          <use xlink:href="#DejaVuSans-65" x="577.929688"/>
          <use xlink:href="#DejaVuSans-6e" x="639.453125"/>
          <use xlink:href="#DejaVuSans-65" x="702.832031"/>
          <use xlink:href="#DejaVuSans-72" x="764.355469"/>
          <use xlink:href="#DejaVuSans-61" x="805.46875"/>
          <use xlink:href="#DejaVuSans-74" x="866.748047"/>
          <use xlink:href="#DejaVuSans-69" x="905.957031"/>
          <use xlink:href="#DejaVuSans-6f" x="933.740234"/>
          <use xlink:href="#DejaVuSans-6e" x="994.921875"/>
          <use xlink:href="#DejaVuSans-73" x="1058.300781"/>
          <use xlink:href="#DejaVuSans-29" x="1110.400391"/>
         </g>
        </g>
       </g>
       <g id="patch_7">
        <path d="M 273.728386 162.38203 
L 272.728386 162.350594 
L 271.728386 162.313654 
L 270.728386 162.215907 
L 269.728386 162.183385 
L 268.728386 162.109761 
L 267.728386 162.071195 
L 266.728386 162.035782 
L 265.728386 161.978142 
L 264.728386 161.907756 
L 263.728386 161.855792 
L 262.728386 161.796702 
L 261.728386 161.708381 
L 260.728386 161.662237 
L 259.728386 161.619826 
L 258.728386 161.589333 
L 257.728386 161.563288 
L 256.728386 161.542088 
L 255.728386 161.487787 
L 254.728386 161.459849 
L 253.728386 161.430125 
L 252.728386 161.404731 
L 251.728386 161.39353 
L 250.728386 161.383406 
L 249.728386 161.383611 
L 248.728386 161.39312 
L 247.728386 161.404774 
L 246.728386 161.435803 
L 245.728386 161.446971 
L 244.728386 161.477089 
L 243.728386 161.536866 
L 242.728386 161.574057 
L 241.728386 161.613153 
L 240.728386 161.655593 
L 239.728386 161.688358 
L 238.728386 161.755785 
L 237.728386 161.79491 
L 236.728386 161.837585 
L 235.728386 161.908166 
L 234.728386 161.944556 
L 233.728386 162.00296 
L 232.728386 162.113912 
L 231.728386 162.184571 
L 230.728386 162.29751 
L 229.728386 162.343283 
L 228.728386 162.404566 
L 227.728386 162.453066 
L 226.728386 162.533888 
L 225.728386 162.652407 
L 224.728386 162.722618 
L 223.728386 162.80588 
L 222.728386 162.839022 
L 221.728386 162.89026 
L 220.728386 162.958658 
L 219.728386 163.024873 
L 218.728386 163.10179 
L 217.728386 163.129106 
L 216.728386 163.155583 
L 215.728386 163.178234 
L 214.728386 163.197765 
L 213.728386 163.224159 
L 212.728386 163.27393 
L 211.728386 163.309003 
L 210.728386 163.344869 
L 209.728386 163.360236 
L 208.728386 163.376005 
L 207.728386 163.379418 
L 206.728386 163.381836 
L 205.728386 163.38135 
L 204.728386 163.37942 
L 203.728386 163.366163 
L 202.728386 163.357773 
L 201.728386 163.336236 
L 200.728386 163.313204 
L 199.728386 163.29597 
L 198.728386 163.277508 
L 197.728386 163.257055 
L 196.728386 163.240455 
L 195.728386 163.177677 
L 194.728386 163.102411 
L 193.728386 163.069772 
L 192.728386 163.002209 
L 191.728386 162.948162 
L 190.728386 162.914457 
L 189.728386 162.824331 
L 188.728386 162.795796 
L 187.728386 162.76431 
L 186.728386 162.733299 
L 185.728386 162.678491 
L 184.728386 162.613904 
L 183.728386 162.575709 
L 182.728386 162.479775 
L 181.728386 162.430516 
L 180.728386 162.386447 
L 179.728386 162.346323 
L 178.728386 162.237956 
L 177.728386 162.196328 
L 176.728386 162.134187 
L 175.728386 162.064224 
L 174.728386 161.95972 
L 173.728386 161.922733 
L 172.728386 161.876855 
L 171.728386 161.808361 
L 170.728386 161.759615 
L 169.728386 161.682017 
L 168.728386 161.651477 
L 167.728386 161.581962 
L 166.728386 161.557989 
L 165.728386 161.529368 
L 164.728386 161.487574 
L 163.728386 161.465999 
L 162.728386 161.452051 
L 161.728386 161.425328 
L 160.728386 161.416018 
L 159.728386 161.403572 
L 158.728386 161.392517 
L 157.728386 161.386852 
L 156.728386 161.382088 
L 155.728386 161.387636 
L 154.728386 161.400924 
L 153.728386 161.408442 
L 152.728386 161.433226 
L 151.728386 161.456795 
L 150.728386 161.492976 
L 149.728386 161.518938 
L 148.728386 161.541259 
L 147.728386 161.610019 
L 146.728386 161.684554 
L 145.728386 161.778534 
L 144.728386 161.829586 
L 143.728386 161.883519 
L 142.728386 161.91877 
L 141.728386 162.024858 
L 140.728386 162.077122 
L 139.728386 162.114029 
L 138.728386 162.14506 
L 137.728386 162.206215 
L 136.728386 162.273635 
L 135.728386 162.322541 
L 134.728386 162.387734 
L 133.728386 162.425921 
L 132.728386 162.467917 
L 131.728386 162.509934 
L 130.728386 162.569451 
L 129.728386 162.682611 
L 128.728386 162.734861 
L 127.728386 162.774279 
L 126.728386 162.821381 
L 125.728386 162.87816 
L 124.728386 162.910823 
L 123.728386 162.947001 
L 122.728386 162.979092 
L 121.728386 163.013371 
L 120.728386 163.071749 
L 119.728386 163.116934 
L 118.728386 163.146558 
L 116.919057 163.196944 
" clip-path="url(#pd8207c7fbf)" style="fill: none; stroke: #ffffff; stroke-width: 3; stroke-linecap: round"/>
        <path d="M 273.728386 162.38203 
L 272.728386 162.350594 
L 271.728386 162.313654 
L 270.728386 162.215907 
L 269.728386 162.183385 
L 268.728386 162.109761 
L 267.728386 162.071195 
L 266.728386 162.035782 
L 265.728386 161.978142 
L 264.728386 161.907756 
L 263.728386 161.855792 
L 262.728386 161.796702 
L 261.728386 161.708381 
L 260.728386 161.662237 
L 259.728386 161.619826 
L 258.728386 161.589333 
L 257.728386 161.563288 
L 256.728386 161.542088 
L 255.728386 161.487787 
L 254.728386 161.459849 
L 253.728386 161.430125 
L 252.728386 161.404731 
L 251.728386 161.39353 
L 250.728386 161.383406 
L 249.728386 161.383611 
L 248.728386 161.39312 
L 247.728386 161.404774 
L 246.728386 161.435803 
L 245.728386 161.446971 
L 244.728386 161.477089 
L 243.728386 161.536866 
L 242.728386 161.574057 
L 241.728386 161.613153 
L 240.728386 161.655593 
L 239.728386 161.688358 
L 238.728386 161.755785 
L 237.728386 161.79491 
L 236.728386 161.837585 
L 235.728386 161.908166 
L 234.728386 161.944556 
L 233.728386 162.00296 
L 232.728386 162.113912 
L 231.728386 162.184571 
L 230.728386 162.29751 
L 229.728386 162.343283 
L 228.728386 162.404566 
L 227.728386 162.453066 
L 226.728386 162.533888 
L 225.728386 162.652407 
L 224.728386 162.722618 
L 223.728386 162.80588 
L 222.728386 162.839022 
L 221.728386 162.89026 
L 220.728386 162.958658 
L 219.728386 163.024873 
L 218.728386 163.10179 
L 217.728386 163.129106 
L 216.728386 163.155583 
L 215.728386 163.178234 
L 214.728386 163.197765 
L 213.728386 163.224159 
L 212.728386 163.27393 
L 211.728386 163.309003 
L 210.728386 163.344869 
L 209.728386 163.360236 
L 208.728386 163.376005 
L 207.728386 163.379418 
L 206.728386 163.381836 
L 205.728386 163.38135 
L 204.728386 163.37942 
L 203.728386 163.366163 
L 202.728386 163.357773 
L 201.728386 163.336236 
L 200.728386 163.313204 
L 199.728386 163.29597 
L 198.728386 163.277508 
L 197.728386 163.257055 
L 196.728386 163.240455 
L 195.728386 163.177677 
L 194.728386 163.102411 
L 193.728386 163.069772 
L 192.728386 163.002209 
L 191.728386 162.948162 
L 190.728386 162.914457 
L 189.728386 162.824331 
L 188.728386 162.795796 
L 187.728386 162.76431 
L 186.728386 162.733299 
L 185.728386 162.678491 
L 184.728386 162.613904 
L 183.728386 162.575709 
L 182.728386 162.479775 
L 181.728386 162.430516 
L 180.728386 162.386447 
L 179.728386 162.346323 
L 178.728386 162.237956 
L 177.728386 162.196328 
L 176.728386 162.134187 
L 175.728386 162.064224 
L 174.728386 161.95972 
L 173.728386 161.922733 
L 172.728386 161.876855 
L 171.728386 161.808361 
L 170.728386 161.759615 
L 169.728386 161.682017 
L 168.728386 161.651477 
L 167.728386 161.581962 
L 166.728386 161.557989 
L 165.728386 161.529368 
L 164.728386 161.487574 
L 163.728386 161.465999 
L 162.728386 161.452051 
L 161.728386 161.425328 
L 160.728386 161.416018 
L 159.728386 161.403572 
L 158.728386 161.392517 
L 157.728386 161.386852 
L 156.728386 161.382088 
L 155.728386 161.387636 
L 154.728386 161.400924 
L 153.728386 161.408442 
L 152.728386 161.433226 
L 151.728386 161.456795 
L 150.728386 161.492976 
L 149.728386 161.518938 
L 148.728386 161.541259 
L 147.728386 161.610019 
L 146.728386 161.684554 
L 145.728386 161.778534 
L 144.728386 161.829586 
L 143.728386 161.883519 
L 142.728386 161.91877 
L 141.728386 162.024858 
L 140.728386 162.077122 
L 139.728386 162.114029 
L 138.728386 162.14506 
L 137.728386 162.206215 
L 136.728386 162.273635 
L 135.728386 162.322541 
L 134.728386 162.387734 
L 133.728386 162.425921 
L 132.728386 162.467917 
L 131.728386 162.509934 
L 130.728386 162.569451 
L 129.728386 162.682611 
L 128.728386 162.734861 
L 127.728386 162.774279 
L 126.728386 162.821381 
L 125.728386 162.87816 
L 124.728386 162.910823 
L 123.728386 162.947001 
L 122.728386 162.979092 
L 121.728386 163.013371 
L 120.728386 163.071749 
L 119.728386 163.116934 
L 118.728386 163.146558 
L 116.919057 163.196944 
" clip-path="url(#pd8207c7fbf)" style="fill: none; stroke: #1f77b4; stroke-linecap: round"/>
        <path d="M 120.919057 164.38203 
L 120.038689 163.906699 
L 119.160782 163.426445 
L 118.310069 162.891804 
L 117.007894 162.204357 
L 117.935247 162.178342 
L 118.846922 161.765623 
L 119.757186 161.350084 
L 121.099682 160.743279 
L 120.444783 161.38203 
L 120.392819 162.38203 
L 120.333729 164.38203 
z
" clip-path="url(#pd8207c7fbf)" style="fill: #ffffff; stroke: #ffffff; stroke-width: 3; stroke-linecap: round"/>
        <path d="M 120.919057 164.38203 
L 120.038689 163.906699 
L 119.160782 163.426445 
L 118.310069 162.891804 
L 117.007894 162.204357 
L 117.935247 162.178342 
L 118.846922 161.765623 
L 119.757186 161.350084 
L 121.099682 160.743279 
L 120.444783 161.38203 
L 120.392819 162.38203 
L 120.333729 164.38203 
z
" clip-path="url(#pd8207c7fbf)" style="fill: #ffffff; stroke: #1f77b4; stroke-linecap: round"/>
        <g id="patch_8">
         <path d="M 321.912771 72.964375 
L 322.912771 72.995811 
L 323.912771 73.032752 
L 324.912771 73.130498 
L 325.912771 73.16302 
L 326.912771 73.236645 
L 327.912771 73.27521 
L 328.912771 73.310623 
L 329.912771 73.368263 
L 330.912771 73.438649 
L 331.912771 73.490614 
L 332.912771 73.549703 
L 333.912771 73.638024 
L 334.912771 73.684169 
L 335.912771 73.72658 
L 336.912771 73.757072 
L 337.912771 73.783117 
L 338.912771 73.804317 
L 339.912771 73.858618 
L 340.912771 73.886556 
L 341.912771 73.91628 
L 342.912771 73.941675 
L 343.912771 73.952875 
L 344.912771 73.962999 
L 345.912771 73.962795 
L 346.912771 73.953285 
L 347.912771 73.941631 
L 348.912771 73.910602 
L 349.912771 73.899434 
L 350.912771 73.869317 
L 351.912771 73.80954 
L 352.912771 73.772348 
L 353.912771 73.733252 
L 354.912771 73.690812 
L 355.912771 73.658047 
L 356.912771 73.590621 
L 357.912771 73.551495 
L 358.912771 73.50882 
L 359.912771 73.43824 
L 360.912771 73.401849 
L 361.912771 73.343446 
L 362.912771 73.232493 
L 363.912771 73.161835 
L 364.912771 73.048895 
L 365.912771 73.003122 
L 366.912771 72.941839 
L 367.912771 72.89334 
L 368.912771 72.812517 
L 369.912771 72.693998 
L 370.912771 72.623787 
L 371.912771 72.540525 
L 372.912771 72.507383 
L 373.912771 72.456146 
L 374.912771 72.387747 
L 375.912771 72.321532 
L 376.912771 72.244615 
L 377.912771 72.217299 
L 378.912771 72.190822 
L 379.912771 72.168171 
L 380.912771 72.14864 
L 381.912771 72.122246 
L 382.912771 72.072475 
L 383.912771 72.037402 
L 384.912771 72.001536 
L 385.912771 71.986169 
L 386.912771 71.9704 
L 387.912771 71.966987 
L 388.912771 71.96457 
L 389.912771 71.965056 
L 390.912771 71.966985 
L 391.912771 71.980242 
L 392.912771 71.988633 
L 393.912771 72.010169 
L 394.912771 72.033202 
L 395.912771 72.050435 
L 396.912771 72.068898 
L 397.912771 72.08935 
L 398.912771 72.10595 
L 399.912771 72.168729 
L 400.912771 72.243994 
L 401.912771 72.276633 
L 402.912771 72.344197 
L 403.912771 72.398244 
L 404.912771 72.431948 
L 405.912771 72.522074 
L 406.912771 72.550609 
L 407.912771 72.582095 
L 408.912771 72.613106 
L 409.912771 72.667914 
L 410.912771 72.732501 
L 411.912771 72.770697 
L 412.912771 72.866631 
L 413.912771 72.915889 
L 414.912771 72.959958 
L 415.912771 73.000082 
L 416.912771 73.108449 
L 417.912771 73.150077 
L 418.912771 73.212219 
L 419.912771 73.282181 
L 420.912771 73.386685 
L 421.912771 73.423673 
L 422.912771 73.46955 
L 423.912771 73.538045 
L 424.912771 73.586791 
L 425.912771 73.664388 
L 426.912771 73.694929 
L 427.912771 73.764443 
L 428.912771 73.788416 
L 429.912771 73.817038 
L 430.912771 73.858831 
L 431.912771 73.880407 
L 432.912771 73.894355 
L 433.912771 73.921077 
L 434.912771 73.930387 
L 435.912771 73.942834 
L 436.912771 73.953889 
L 437.912771 73.959553 
L 438.912771 73.964317 
L 439.912771 73.958769 
L 440.912771 73.945481 
L 441.912771 73.937964 
L 442.912771 73.913179 
L 443.912771 73.88961 
L 444.912771 73.85343 
L 445.912771 73.827468 
L 446.912771 73.805146 
L 447.912771 73.736386 
L 448.912771 73.661851 
L 449.912771 73.567872 
L 450.912771 73.51682 
L 451.912771 73.462886 
L 452.912771 73.427635 
L 453.912771 73.321547 
L 454.912771 73.269283 
L 455.912771 73.232376 
L 456.912771 73.201345 
L 457.912771 73.14019 
L 458.912771 73.07277 
L 459.912771 73.023864 
L 460.912771 72.958672 
L 461.912771 72.920484 
L 462.912771 72.878488 
L 463.912771 72.836471 
L 464.912771 72.776955 
L 465.912771 72.663795 
L 466.912771 72.611544 
L 467.912771 72.572126 
L 468.912771 72.525025 
L 469.912771 72.468245 
L 470.912771 72.435582 
L 471.912771 72.399404 
L 472.912771 72.367314 
L 473.912771 72.333034 
L 474.912771 72.274656 
L 475.912771 72.229471 
L 476.912771 72.199847 
L 477.912771 72.149461 
L 478.912771 72.124264 
L 479.912771 72.103213 
L 480.912771 72.068245 
L 481.912771 72.043955 
L 482.912771 72.029888 
L 483.912771 72.010946 
L 484.912771 71.995285 
L 485.912771 71.982733 
L 486.912771 71.976897 
L 487.912771 71.970015 
L 488.912771 71.964841 
L 489.912771 71.966624 
L 490.912771 71.969349 
L 491.912771 71.980503 
L 492.912771 72.008738 
L 493.912771 72.052526 
L 494.912771 72.073215 
L 495.912771 72.114188 
L 496.912771 72.154263 
L 497.912771 72.173373 
L 498.912771 72.195882 
L 499.912771 72.262533 
L 500.912771 72.312243 
L 501.912771 72.385949 
L 502.912771 72.417263 
L 503.912771 72.493885 
L 504.912771 72.532183 
L 505.912771 72.6063 
L 506.912771 72.710358 
L 507.912771 72.780189 
L 508.912771 72.885423 
L 509.912771 72.940438 
L 510.912771 73.063913 
L 511.912771 73.134472 
L 512.912771 73.250311 
L 513.912771 73.300492 
L 514.912771 73.336096 
L 515.912771 73.427503 
L 516.912771 73.481011 
L 517.912771 73.568919 
L 518.912771 73.638104 
L 519.912771 73.684868 
L 520.912771 73.756912 
L 521.912771 73.807054 
L 522.912771 73.824444 
L 523.912771 73.851447 
L 524.912771 73.870874 
L 525.912771 73.890212 
L 526.912771 73.928461 
L 527.912771 73.944894 
L 528.912771 73.953263 
L 529.912771 73.957582 
L 530.912771 73.964137 
L 531.912771 73.961591 
L 532.912771 73.956132 
L 533.912771 73.939704 
L 534.912771 73.907769 
L 535.912771 73.869789 
L 536.912771 73.834985 
L 538.472952 73.771913 
" clip-path="url(#pd8207c7fbf)" style="fill: none; stroke: #ffffff; stroke-width: 3; stroke-linecap: round"/>
         <path d="M 321.912771 72.964375 
L 322.912771 72.995811 
L 323.912771 73.032752 
L 324.912771 73.130498 
L 325.912771 73.16302 
L 326.912771 73.236645 
L 327.912771 73.27521 
L 328.912771 73.310623 
L 329.912771 73.368263 
L 330.912771 73.438649 
L 331.912771 73.490614 
L 332.912771 73.549703 
L 333.912771 73.638024 
L 334.912771 73.684169 
L 335.912771 73.72658 
L 336.912771 73.757072 
L 337.912771 73.783117 
L 338.912771 73.804317 
L 339.912771 73.858618 
L 340.912771 73.886556 
L 341.912771 73.91628 
L 342.912771 73.941675 
L 343.912771 73.952875 
L 344.912771 73.962999 
L 345.912771 73.962795 
L 346.912771 73.953285 
L 347.912771 73.941631 
L 348.912771 73.910602 
L 349.912771 73.899434 
L 350.912771 73.869317 
L 351.912771 73.80954 
L 352.912771 73.772348 
L 353.912771 73.733252 
L 354.912771 73.690812 
L 355.912771 73.658047 
L 356.912771 73.590621 
L 357.912771 73.551495 
L 358.912771 73.50882 
L 359.912771 73.43824 
L 360.912771 73.401849 
L 361.912771 73.343446 
L 362.912771 73.232493 
L 363.912771 73.161835 
L 364.912771 73.048895 
L 365.912771 73.003122 
L 366.912771 72.941839 
L 367.912771 72.89334 
L 368.912771 72.812517 
L 369.912771 72.693998 
L 370.912771 72.623787 
L 371.912771 72.540525 
L 372.912771 72.507383 
L 373.912771 72.456146 
L 374.912771 72.387747 
L 375.912771 72.321532 
L 376.912771 72.244615 
L 377.912771 72.217299 
L 378.912771 72.190822 
L 379.912771 72.168171 
L 380.912771 72.14864 
L 381.912771 72.122246 
L 382.912771 72.072475 
L 383.912771 72.037402 
L 384.912771 72.001536 
L 385.912771 71.986169 
L 386.912771 71.9704 
L 387.912771 71.966987 
L 388.912771 71.96457 
L 389.912771 71.965056 
L 390.912771 71.966985 
L 391.912771 71.980242 
L 392.912771 71.988633 
L 393.912771 72.010169 
L 394.912771 72.033202 
L 395.912771 72.050435 
L 396.912771 72.068898 
L 397.912771 72.08935 
L 398.912771 72.10595 
L 399.912771 72.168729 
L 400.912771 72.243994 
L 401.912771 72.276633 
L 402.912771 72.344197 
L 403.912771 72.398244 
L 404.912771 72.431948 
L 405.912771 72.522074 
L 406.912771 72.550609 
L 407.912771 72.582095 
L 408.912771 72.613106 
L 409.912771 72.667914 
L 410.912771 72.732501 
L 411.912771 72.770697 
L 412.912771 72.866631 
L 413.912771 72.915889 
L 414.912771 72.959958 
L 415.912771 73.000082 
L 416.912771 73.108449 
L 417.912771 73.150077 
L 418.912771 73.212219 
L 419.912771 73.282181 
L 420.912771 73.386685 
L 421.912771 73.423673 
L 422.912771 73.46955 
L 423.912771 73.538045 
L 424.912771 73.586791 
L 425.912771 73.664388 
L 426.912771 73.694929 
L 427.912771 73.764443 
L 428.912771 73.788416 
L 429.912771 73.817038 
L 430.912771 73.858831 
L 431.912771 73.880407 
L 432.912771 73.894355 
L 433.912771 73.921077 
L 434.912771 73.930387 
L 435.912771 73.942834 
L 436.912771 73.953889 
L 437.912771 73.959553 
L 438.912771 73.964317 
L 439.912771 73.958769 
L 440.912771 73.945481 
L 441.912771 73.937964 
L 442.912771 73.913179 
L 443.912771 73.88961 
L 444.912771 73.85343 
L 445.912771 73.827468 
L 446.912771 73.805146 
L 447.912771 73.736386 
L 448.912771 73.661851 
L 449.912771 73.567872 
L 450.912771 73.51682 
L 451.912771 73.462886 
L 452.912771 73.427635 
L 453.912771 73.321547 
L 454.912771 73.269283 
L 455.912771 73.232376 
L 456.912771 73.201345 
L 457.912771 73.14019 
L 458.912771 73.07277 
L 459.912771 73.023864 
L 460.912771 72.958672 
L 461.912771 72.920484 
L 462.912771 72.878488 
L 463.912771 72.836471 
L 464.912771 72.776955 
L 465.912771 72.663795 
L 466.912771 72.611544 
L 467.912771 72.572126 
L 468.912771 72.525025 
L 469.912771 72.468245 
L 470.912771 72.435582 
L 471.912771 72.399404 
L 472.912771 72.367314 
L 473.912771 72.333034 
L 474.912771 72.274656 
L 475.912771 72.229471 
L 476.912771 72.199847 
L 477.912771 72.149461 
L 478.912771 72.124264 
L 479.912771 72.103213 
L 480.912771 72.068245 
L 481.912771 72.043955 
L 482.912771 72.029888 
L 483.912771 72.010946 
L 484.912771 71.995285 
L 485.912771 71.982733 
L 486.912771 71.976897 
L 487.912771 71.970015 
L 488.912771 71.964841 
L 489.912771 71.966624 
L 490.912771 71.969349 
L 491.912771 71.980503 
L 492.912771 72.008738 
L 493.912771 72.052526 
L 494.912771 72.073215 
L 495.912771 72.114188 
L 496.912771 72.154263 
L 497.912771 72.173373 
L 498.912771 72.195882 
L 499.912771 72.262533 
L 500.912771 72.312243 
L 501.912771 72.385949 
L 502.912771 72.417263 
L 503.912771 72.493885 
L 504.912771 72.532183 
L 505.912771 72.6063 
L 506.912771 72.710358 
L 507.912771 72.780189 
L 508.912771 72.885423 
L 509.912771 72.940438 
L 510.912771 73.063913 
L 511.912771 73.134472 
L 512.912771 73.250311 
L 513.912771 73.300492 
L 514.912771 73.336096 
L 515.912771 73.427503 
L 516.912771 73.481011 
L 517.912771 73.568919 
L 518.912771 73.638104 
L 519.912771 73.684868 
L 520.912771 73.756912 
L 521.912771 73.807054 
L 522.912771 73.824444 
L 523.912771 73.851447 
L 524.912771 73.870874 
L 525.912771 73.890212 
L 526.912771 73.928461 
L 527.912771 73.944894 
L 528.912771 73.953263 
L 529.912771 73.957582 
L 530.912771 73.964137 
L 531.912771 73.961591 
L 532.912771 73.956132 
L 533.912771 73.939704 
L 534.912771 73.907769 
L 535.912771 73.869789 
L 536.912771 73.834985 
L 538.472952 73.771913 
" clip-path="url(#pd8207c7fbf)" style="fill: none; stroke: #1f77b4; stroke-linecap: round"/>
         <path d="M 534.472952 70.964375 
L 535.353321 71.439706 
L 536.231228 71.91996 
L 537.081941 72.454601 
L 538.384116 73.142048 
L 537.456763 73.168063 
L 536.545088 73.580783 
L 535.634824 73.996322 
L 534.292328 74.603126 
L 534.947227 73.964375 
L 534.999191 72.964375 
L 535.058281 70.964375 
z
" clip-path="url(#pd8207c7fbf)" style="fill: #ffffff; stroke: #ffffff; stroke-width: 3; stroke-linecap: round"/>
         <path d="M 534.472952 70.964375 
L 535.353321 71.439706 
L 536.231228 71.91996 
L 537.081941 72.454601 
L 538.384116 73.142048 
L 537.456763 73.168063 
L 536.545088 73.580783 
L 535.634824 73.996322 
L 534.292328 74.603126 
L 534.947227 73.964375 
L 534.999191 72.964375 
L 535.058281 70.964375 
z
" clip-path="url(#pd8207c7fbf)" style="fill: #ffffff; stroke: #1f77b4; stroke-linecap: round"/>
         <g id="patch_9">
          <path d="M 115.803777 247.167642 
L 116.803777 247.199078 
L 117.803777 247.236019 
L 118.803777 247.333765 
L 119.803777 247.366287 
L 120.803777 247.439912 
L 121.803777 247.478477 
L 122.803777 247.51389 
L 123.803777 247.57153 
L 124.803777 247.641917 
L 125.803777 247.693881 
L 126.803777 247.75297 
L 127.803777 247.841291 
L 128.803777 247.887436 
L 129.803777 247.929847 
L 130.803777 247.960339 
L 131.803777 247.986384 
L 132.803777 248.007584 
L 133.803777 248.061885 
L 134.803777 248.089823 
L 135.803777 248.119547 
L 136.803777 248.144942 
L 137.803777 248.156142 
L 138.803777 248.166266 
L 139.803777 248.166062 
L 140.803777 248.156552 
L 141.803777 248.144898 
L 142.803777 248.113869 
L 143.803777 248.102701 
L 144.803777 248.072584 
L 145.803777 248.012807 
L 146.803777 247.975615 
L 147.803777 247.936519 
L 148.803777 247.894079 
L 149.803777 247.861314 
L 150.803777 247.793888 
L 151.803777 247.754762 
L 152.803777 247.712087 
L 153.803777 247.641507 
L 154.803777 247.605116 
L 155.803777 247.546713 
L 156.803777 247.43576 
L 157.803777 247.365102 
L 158.803777 247.252162 
L 159.803777 247.206389 
L 160.803777 247.145106 
L 161.803777 247.096607 
L 162.803777 247.015784 
L 163.803777 246.897265 
L 164.803777 246.827054 
L 165.803777 246.743792 
L 166.803777 246.71065 
L 167.803777 246.659413 
L 168.803777 246.591015 
L 169.803777 246.524799 
L 170.803777 246.447882 
L 171.803777 246.420567 
L 172.803777 246.394089 
L 173.803777 246.371438 
L 174.803777 246.351907 
L 175.803777 246.325513 
L 176.803777 246.275742 
L 177.803777 246.240669 
L 178.803777 246.204803 
L 179.803777 246.189436 
L 180.803777 246.173667 
L 181.803777 246.170254 
L 182.803777 246.167837 
L 183.803777 246.168323 
L 184.803777 246.170252 
L 185.803777 246.183509 
L 186.803777 246.1919 
L 187.803777 246.213436 
L 188.803777 246.236469 
L 189.803777 246.253702 
L 190.803777 246.272165 
L 191.803777 246.292617 
L 192.803777 246.309217 
L 193.803777 246.371996 
L 194.803777 246.447261 
L 195.803777 246.4799 
L 196.803777 246.547464 
L 197.803777 246.601511 
L 198.803777 246.635215 
L 199.803777 246.725341 
L 200.803777 246.753876 
L 201.803777 246.785362 
L 202.803777 246.816373 
L 203.803777 246.871181 
L 204.803777 246.935768 
L 205.803777 246.973964 
L 206.803777 247.069898 
L 207.803777 247.119156 
L 208.803777 247.163225 
L 209.803777 247.203349 
L 210.803777 247.311716 
L 211.803777 247.353344 
L 212.803777 247.415486 
L 213.803777 247.485448 
L 214.803777 247.589952 
L 215.803777 247.62694 
L 216.803777 247.672817 
L 217.803777 247.741312 
L 218.803777 247.790058 
L 219.803777 247.867655 
L 220.803777 247.898196 
L 221.803777 247.96771 
L 222.803777 247.991683 
L 223.803777 248.020305 
L 224.803777 248.062098 
L 225.803777 248.083674 
L 226.803777 248.097622 
L 227.803777 248.124344 
L 228.803777 248.133654 
L 229.803777 248.146101 
L 230.803777 248.157156 
L 231.803777 248.16282 
L 232.803777 248.167584 
L 233.803777 248.162037 
L 234.803777 248.148748 
L 235.803777 248.141231 
L 236.803777 248.116446 
L 237.803777 248.092877 
L 238.803777 248.056697 
L 239.803777 248.030735 
L 240.803777 248.008413 
L 241.803777 247.939653 
L 242.803777 247.865118 
L 243.803777 247.771139 
L 244.803777 247.720087 
L 245.803777 247.666153 
L 246.803777 247.630902 
L 247.803777 247.524814 
L 248.803777 247.47255 
L 249.803777 247.435643 
L 250.803777 247.404613 
L 251.803777 247.343457 
L 252.803777 247.276037 
L 253.803777 247.227131 
L 254.803777 247.161939 
L 255.803777 247.123751 
L 256.803777 247.081755 
L 257.803777 247.039738 
L 258.803777 246.980222 
L 259.803777 246.867062 
L 260.803777 246.814811 
L 261.803777 246.775393 
L 262.803777 246.728292 
L 263.803777 246.671513 
L 264.803777 246.638849 
L 265.803777 246.602671 
L 266.803777 246.570581 
L 267.803777 246.536301 
L 268.803777 246.477923 
L 269.803777 246.432738 
L 270.803777 246.403114 
L 271.803777 246.352728 
L 272.803777 246.327531 
L 273.803777 246.30648 
L 274.803777 246.271512 
L 275.803777 246.247222 
L 276.803777 246.233155 
L 277.803777 246.214213 
L 278.803777 246.198552 
L 279.803777 246.186 
L 280.803777 246.180164 
L 281.803777 246.173282 
L 282.803777 246.168108 
L 283.803777 246.169891 
L 284.803777 246.172616 
L 285.803777 246.18377 
L 286.803777 246.212005 
L 287.803777 246.255793 
L 288.803777 246.276482 
L 289.803777 246.317455 
L 290.803777 246.35753 
L 291.803777 246.37664 
L 292.803777 246.399149 
L 293.803777 246.4658 
L 294.803777 246.51551 
L 295.803777 246.589216 
L 296.803777 246.62053 
L 297.803777 246.697152 
L 298.803777 246.73545 
L 299.803777 246.809567 
L 300.803777 246.913625 
L 301.803777 246.983456 
L 302.803777 247.08869 
L 303.803777 247.143705 
L 304.803777 247.26718 
L 305.803777 247.337739 
L 306.803777 247.453578 
L 307.803777 247.503759 
L 308.803777 247.539363 
L 309.803777 247.63077 
L 310.803777 247.684278 
L 311.803777 247.772186 
L 312.803777 247.841371 
L 313.803777 247.888135 
L 314.803777 247.960179 
L 315.803777 248.010321 
L 316.803777 248.027711 
L 317.803777 248.054714 
L 318.803777 248.074141 
L 319.803777 248.09348 
L 320.803777 248.131728 
L 321.803777 248.148161 
L 322.803777 248.15653 
L 323.803777 248.160849 
L 324.803777 248.167404 
L 325.803777 248.164858 
L 326.803777 248.159399 
L 327.803777 248.142971 
L 328.803777 248.111036 
L 329.803777 248.073056 
L 330.803777 248.038252 
L 331.803777 247.97518 
L 332.803777 247.953753 
L 333.803777 247.903135 
L 334.803777 247.878178 
L 335.803777 247.822545 
L 336.803777 247.791315 
L 337.803777 247.741171 
L 338.803777 247.708678 
L 339.803777 247.628266 
L 340.803777 247.55934 
L 341.803777 247.443643 
L 342.803777 247.368164 
L 343.803777 247.252639 
L 344.803777 247.173155 
L 345.803777 247.064714 
L 346.803777 247.025346 
L 347.803777 246.922478 
L 348.803777 246.82268 
L 349.803777 246.777183 
L 350.803777 246.742861 
L 351.803777 246.690905 
L 352.803777 246.651258 
L 353.803777 246.615744 
L 354.803777 246.548099 
L 355.803777 246.509017 
L 356.803777 246.458536 
L 357.803777 246.40923 
L 358.803777 246.35816 
L 359.803777 246.313921 
L 360.803777 246.291901 
L 361.803777 246.276345 
L 362.803777 246.233898 
L 363.803777 246.21903 
L 364.803777 246.196302 
L 365.803777 246.175986 
L 366.803777 246.170189 
L 367.803777 246.167707 
L 368.803777 246.170764 
L 369.803777 246.18236 
L 370.803777 246.19928 
L 371.803777 246.230941 
L 372.803777 246.245024 
L 373.803777 246.297696 
L 374.803777 246.346785 
L 375.803777 246.401486 
L 376.803777 246.445834 
L 377.803777 246.515826 
L 378.803777 246.566209 
L 379.803777 246.620116 
L 380.803777 246.689555 
L 381.803777 246.746943 
L 382.803777 246.797108 
L 383.803777 246.87427 
L 384.803777 246.93246 
L 385.803777 246.993098 
L 386.803777 247.030299 
L 387.803777 247.095391 
L 388.803777 247.200521 
L 389.803777 247.260823 
L 390.803777 247.357145 
L 391.803777 247.389148 
L 392.803777 247.440165 
L 393.803777 247.556957 
L 394.803777 247.592404 
L 395.803777 247.648284 
L 396.803777 247.67866 
L 397.803777 247.767046 
L 398.803777 247.81181 
L 399.803777 247.892698 
L 400.803777 247.952844 
L 401.803777 248.01593 
L 402.803777 248.038878 
L 403.803777 248.055048 
L 404.803777 248.083977 
L 405.803777 248.114329 
L 406.803777 248.126903 
L 407.803777 248.151782 
L 408.803777 248.163866 
L 409.803777 248.167628 
L 410.803777 248.163192 
L 411.803777 248.150853 
L 412.803777 248.13644 
L 413.803777 248.120367 
L 414.803777 248.084846 
L 415.803777 248.064912 
L 416.803777 248.008323 
L 417.803777 247.941129 
L 418.803777 247.913759 
L 419.803777 247.879611 
L 420.803777 247.830931 
L 421.803777 247.782646 
L 423.335288 247.723569 
" clip-path="url(#pd8207c7fbf)" style="fill: none; stroke: #ffffff; stroke-width: 3; stroke-linecap: round"/>
          <path d="M 115.803777 247.167642 
L 116.803777 247.199078 
L 117.803777 247.236019 
L 118.803777 247.333765 
L 119.803777 247.366287 
L 120.803777 247.439912 
L 121.803777 247.478477 
L 122.803777 247.51389 
L 123.803777 247.57153 
L 124.803777 247.641917 
L 125.803777 247.693881 
L 126.803777 247.75297 
L 127.803777 247.841291 
L 128.803777 247.887436 
L 129.803777 247.929847 
L 130.803777 247.960339 
L 131.803777 247.986384 
L 132.803777 248.007584 
L 133.803777 248.061885 
L 134.803777 248.089823 
L 135.803777 248.119547 
L 136.803777 248.144942 
L 137.803777 248.156142 
L 138.803777 248.166266 
L 139.803777 248.166062 
L 140.803777 248.156552 
L 141.803777 248.144898 
L 142.803777 248.113869 
L 143.803777 248.102701 
L 144.803777 248.072584 
L 145.803777 248.012807 
L 146.803777 247.975615 
L 147.803777 247.936519 
L 148.803777 247.894079 
L 149.803777 247.861314 
L 150.803777 247.793888 
L 151.803777 247.754762 
L 152.803777 247.712087 
L 153.803777 247.641507 
L 154.803777 247.605116 
L 155.803777 247.546713 
L 156.803777 247.43576 
L 157.803777 247.365102 
L 158.803777 247.252162 
L 159.803777 247.206389 
L 160.803777 247.145106 
L 161.803777 247.096607 
L 162.803777 247.015784 
L 163.803777 246.897265 
L 164.803777 246.827054 
L 165.803777 246.743792 
L 166.803777 246.71065 
L 167.803777 246.659413 
L 168.803777 246.591015 
L 169.803777 246.524799 
L 170.803777 246.447882 
L 171.803777 246.420567 
L 172.803777 246.394089 
L 173.803777 246.371438 
L 174.803777 246.351907 
L 175.803777 246.325513 
L 176.803777 246.275742 
L 177.803777 246.240669 
L 178.803777 246.204803 
L 179.803777 246.189436 
L 180.803777 246.173667 
L 181.803777 246.170254 
L 182.803777 246.167837 
L 183.803777 246.168323 
L 184.803777 246.170252 
L 185.803777 246.183509 
L 186.803777 246.1919 
L 187.803777 246.213436 
L 188.803777 246.236469 
L 189.803777 246.253702 
L 190.803777 246.272165 
L 191.803777 246.292617 
L 192.803777 246.309217 
L 193.803777 246.371996 
L 194.803777 246.447261 
L 195.803777 246.4799 
L 196.803777 246.547464 
L 197.803777 246.601511 
L 198.803777 246.635215 
L 199.803777 246.725341 
L 200.803777 246.753876 
L 201.803777 246.785362 
L 202.803777 246.816373 
L 203.803777 246.871181 
L 204.803777 246.935768 
L 205.803777 246.973964 
L 206.803777 247.069898 
L 207.803777 247.119156 
L 208.803777 247.163225 
L 209.803777 247.203349 
L 210.803777 247.311716 
L 211.803777 247.353344 
L 212.803777 247.415486 
L 213.803777 247.485448 
L 214.803777 247.589952 
L 215.803777 247.62694 
L 216.803777 247.672817 
L 217.803777 247.741312 
L 218.803777 247.790058 
L 219.803777 247.867655 
L 220.803777 247.898196 
L 221.803777 247.96771 
L 222.803777 247.991683 
L 223.803777 248.020305 
L 224.803777 248.062098 
L 225.803777 248.083674 
L 226.803777 248.097622 
L 227.803777 248.124344 
L 228.803777 248.133654 
L 229.803777 248.146101 
L 230.803777 248.157156 
L 231.803777 248.16282 
L 232.803777 248.167584 
L 233.803777 248.162037 
L 234.803777 248.148748 
L 235.803777 248.141231 
L 236.803777 248.116446 
L 237.803777 248.092877 
L 238.803777 248.056697 
L 239.803777 248.030735 
L 240.803777 248.008413 
L 241.803777 247.939653 
L 242.803777 247.865118 
L 243.803777 247.771139 
L 244.803777 247.720087 
L 245.803777 247.666153 
L 246.803777 247.630902 
L 247.803777 247.524814 
L 248.803777 247.47255 
L 249.803777 247.435643 
L 250.803777 247.404613 
L 251.803777 247.343457 
L 252.803777 247.276037 
L 253.803777 247.227131 
L 254.803777 247.161939 
L 255.803777 247.123751 
L 256.803777 247.081755 
L 257.803777 247.039738 
L 258.803777 246.980222 
L 259.803777 246.867062 
L 260.803777 246.814811 
L 261.803777 246.775393 
L 262.803777 246.728292 
L 263.803777 246.671513 
L 264.803777 246.638849 
L 265.803777 246.602671 
L 266.803777 246.570581 
L 267.803777 246.536301 
L 268.803777 246.477923 
L 269.803777 246.432738 
L 270.803777 246.403114 
L 271.803777 246.352728 
L 272.803777 246.327531 
L 273.803777 246.30648 
L 274.803777 246.271512 
L 275.803777 246.247222 
L 276.803777 246.233155 
L 277.803777 246.214213 
L 278.803777 246.198552 
L 279.803777 246.186 
L 280.803777 246.180164 
L 281.803777 246.173282 
L 282.803777 246.168108 
L 283.803777 246.169891 
L 284.803777 246.172616 
L 285.803777 246.18377 
L 286.803777 246.212005 
L 287.803777 246.255793 
L 288.803777 246.276482 
L 289.803777 246.317455 
L 290.803777 246.35753 
L 291.803777 246.37664 
L 292.803777 246.399149 
L 293.803777 246.4658 
L 294.803777 246.51551 
L 295.803777 246.589216 
L 296.803777 246.62053 
L 297.803777 246.697152 
L 298.803777 246.73545 
L 299.803777 246.809567 
L 300.803777 246.913625 
L 301.803777 246.983456 
L 302.803777 247.08869 
L 303.803777 247.143705 
L 304.803777 247.26718 
L 305.803777 247.337739 
L 306.803777 247.453578 
L 307.803777 247.503759 
L 308.803777 247.539363 
L 309.803777 247.63077 
L 310.803777 247.684278 
L 311.803777 247.772186 
L 312.803777 247.841371 
L 313.803777 247.888135 
L 314.803777 247.960179 
L 315.803777 248.010321 
L 316.803777 248.027711 
L 317.803777 248.054714 
L 318.803777 248.074141 
L 319.803777 248.09348 
L 320.803777 248.131728 
L 321.803777 248.148161 
L 322.803777 248.15653 
L 323.803777 248.160849 
L 324.803777 248.167404 
L 325.803777 248.164858 
L 326.803777 248.159399 
L 327.803777 248.142971 
L 328.803777 248.111036 
L 329.803777 248.073056 
L 330.803777 248.038252 
L 331.803777 247.97518 
L 332.803777 247.953753 
L 333.803777 247.903135 
L 334.803777 247.878178 
L 335.803777 247.822545 
L 336.803777 247.791315 
L 337.803777 247.741171 
L 338.803777 247.708678 
L 339.803777 247.628266 
L 340.803777 247.55934 
L 341.803777 247.443643 
L 342.803777 247.368164 
L 343.803777 247.252639 
L 344.803777 247.173155 
L 345.803777 247.064714 
L 346.803777 247.025346 
L 347.803777 246.922478 
L 348.803777 246.82268 
L 349.803777 246.777183 
L 350.803777 246.742861 
L 351.803777 246.690905 
L 352.803777 246.651258 
L 353.803777 246.615744 
L 354.803777 246.548099 
L 355.803777 246.509017 
L 356.803777 246.458536 
L 357.803777 246.40923 
L 358.803777 246.35816 
L 359.803777 246.313921 
L 360.803777 246.291901 
L 361.803777 246.276345 
L 362.803777 246.233898 
L 363.803777 246.21903 
L 364.803777 246.196302 
L 365.803777 246.175986 
L 366.803777 246.170189 
L 367.803777 246.167707 
L 368.803777 246.170764 
L 369.803777 246.18236 
L 370.803777 246.19928 
L 371.803777 246.230941 
L 372.803777 246.245024 
L 373.803777 246.297696 
L 374.803777 246.346785 
L 375.803777 246.401486 
L 376.803777 246.445834 
L 377.803777 246.515826 
L 378.803777 246.566209 
L 379.803777 246.620116 
L 380.803777 246.689555 
L 381.803777 246.746943 
L 382.803777 246.797108 
L 383.803777 246.87427 
L 384.803777 246.93246 
L 385.803777 246.993098 
L 386.803777 247.030299 
L 387.803777 247.095391 
L 388.803777 247.200521 
L 389.803777 247.260823 
L 390.803777 247.357145 
L 391.803777 247.389148 
L 392.803777 247.440165 
L 393.803777 247.556957 
L 394.803777 247.592404 
L 395.803777 247.648284 
L 396.803777 247.67866 
L 397.803777 247.767046 
L 398.803777 247.81181 
L 399.803777 247.892698 
L 400.803777 247.952844 
L 401.803777 248.01593 
L 402.803777 248.038878 
L 403.803777 248.055048 
L 404.803777 248.083977 
L 405.803777 248.114329 
L 406.803777 248.126903 
L 407.803777 248.151782 
L 408.803777 248.163866 
L 409.803777 248.167628 
L 410.803777 248.163192 
L 411.803777 248.150853 
L 412.803777 248.13644 
L 413.803777 248.120367 
L 414.803777 248.084846 
L 415.803777 248.064912 
L 416.803777 248.008323 
L 417.803777 247.941129 
L 418.803777 247.913759 
L 419.803777 247.879611 
L 420.803777 247.830931 
L 421.803777 247.782646 
L 423.335288 247.723569 
" clip-path="url(#pd8207c7fbf)" style="fill: none; stroke: #ff7f0e; stroke-linecap: round"/>
          <path d="M 419.335288 245.167642 
L 420.215657 245.642973 
L 421.093564 246.123227 
L 421.944277 246.657868 
L 423.246452 247.345315 
L 422.319098 247.37133 
L 421.407424 247.78405 
L 420.49716 248.199589 
L 419.154664 248.806393 
L 419.809563 248.167642 
L 419.861527 247.167642 
L 419.920617 245.167642 
z
" clip-path="url(#pd8207c7fbf)" style="fill: #ffffff; stroke: #ffffff; stroke-width: 3; stroke-linecap: round"/>
          <path d="M 419.335288 245.167642 
L 420.215657 245.642973 
L 421.093564 246.123227 
L 421.944277 246.657868 
L 423.246452 247.345315 
L 422.319098 247.37133 
L 421.407424 247.78405 
L 420.49716 248.199589 
L 419.154664 248.806393 
L 419.809563 248.167642 
L 419.861527 247.167642 
L 419.920617 245.167642 
z
" clip-path="url(#pd8207c7fbf)" style="fill: #ffffff; stroke: #ff7f0e; stroke-linecap: round"/>
          <path d="M 437.092223 298.845881 
" clip-path="url(#pd8207c7fbf)" style="fill: none; stroke-dasharray: 3.7,1.6; stroke-dashoffset: 0; stroke: #2ca02c"/>
          <path d="M 436.092223 298.845881 
L 438.092223 299.845881 
L 438.092223 297.845881 
z
" clip-path="url(#pd8207c7fbf)" style="fill: #2ca02c; stroke: #2ca02c; stroke-linejoin: miter"/>
          <g id="patch_10">
           <path d="M 63.290625 321.621875 
L 63.290625 10.8 
" style="fill: none; stroke: #000000; stroke-width: 0.8; stroke-linejoin: miter; stroke-linecap: square"/>
          </g>
          <g id="text_13">
           <g id="patch_11">
            <path d="M 287.169358 93.430078 
L 308.474045 93.430078 
Q 310.474045 93.430078 310.474045 91.430078 
L 310.474045 81.751953 
Q 310.474045 79.751953 308.474045 79.751953 
L 287.169358 79.751953 
Q 285.169358 79.751953 285.169358 81.751953 
L 285.169358 91.430078 
Q 285.169358 93.430078 287.169358 93.430078 
z
" style="fill: #ffffff; opacity: 0.6"/>
           </g>
           <!-- ANC -->
           <g transform="translate(287.169358 89.35039) scale(0.1 -0.1)">
            <defs>
             <path id="DejaVuSans-4e" d="M 628 4666 
L 1478 4666 
L 3547 763 
L 3547 4666 
L 4159 4666 
L 4159 0 
L 3309 0 
L 1241 3903 
L 1241 0 
L 628 0 
L 628 4666 
z
" transform="scale(0.015625)"/>
            </defs>
            <use xlink:href="#DejaVuSans-41"/>
            <use xlink:href="#DejaVuSans-4e" x="68.408203"/>
            <use xlink:href="#DejaVuSans-43" x="143.212891"/>
           </g>
          </g>
         </g>
        </g>
        <defs>
         <clipPath id="pd8207c7fbf">
          <rect x="63.290625" y="10.8" width="540.309375" height="310.821875"/>
         </clipPath>
        </defs>
       </g>
      </g>
     </g>
    </g>
   </g>
  </g>
 </g>
</svg>
