<?xml version="1.0" encoding="utf-8" standalone="no"?>
<!DOCTYPE svg PUBLIC "-//W3C//DTD SVG 1.1//EN"
  "http://www.w3.org/Graphics/SVG/1.1/DTD/svg11.dtd">
<svg xmlns:xlink="http://www.w3.org/1999/xlink" width="614.4pt" height="345.6pt" viewBox="0 0 614.4 345.6" xmlns="http://www.w3.org/2000/svg" version="1.1">
 <metadata>
  <rdf:RDF xmlns:dc="http://purl.org/dc/elements/1.1/" xmlns:cc="http://creativecommons.org/ns#" xmlns:rdf="http://www.w3.org/1999/02/22-rdf-syntax-ns#">
   <cc:Work>
    <dc:type rdf:resource="http://purl.org/dc/dcmitype/StillImage"/>
    <dc:date>2024-04-17T19:40:10.038444</dc:date>
    <dc:format>image/svg+xml</dc:format>
    <dc:creator>
     <cc:Agent>
      <dc:title>Matplotlib v3.7.1, https://matplotlib.org/</dc:title>
     </cc:Agent>
    </dc:creator>
   </cc:Work>
  </rdf:RDF>
 </metadata>
 <defs>
  <style type="text/css">*{stroke-linejoin: round; stroke-linecap: butt}</style>
 </defs>
 <g id="figure_1">
  <g id="patch_1">
   <path d="M 0 345.6 
L 614.4 345.6 
L 614.4 0 
L 0 0 
z
" style="fill: #ffffff"/>
  </g>
  <g id="axes_1">
   <g id="patch_2">
    <path d="M 63.290625 321.621875 
L 603.6 321.621875 
L 603.6 10.8 
L 63.290625 10.8 
z
" style="fill: #ffffff"/>
   </g>
   <path d="M 569.461991 305.420105 
L 568.461991 305.388668 
L 567.461991 305.351728 
L 566.461991 305.253981 
L 565.461991 305.22146 
L 564.461991 305.147835 
L 563.461991 305.10927 
L 562.461991 305.073856 
L 561.461991 305.016216 
L 560.461991 304.94583 
L 559.461991 304.893866 
L 558.461991 304.834776 
L 557.461991 304.746455 
L 556.461991 304.700311 
L 555.461991 304.6579 
L 554.461991 304.627407 
L 553.461991 304.601362 
L 552.461991 304.580162 
L 551.461991 304.525861 
L 550.461991 304.497924 
L 549.461991 304.4682 
L 548.461991 304.442805 
L 547.461991 304.431605 
L 546.461991 304.421481 
L 545.461991 304.421685 
L 544.461991 304.431195 
L 543.461991 304.442848 
L 542.461991 304.473878 
L 541.461991 304.485046 
L 540.461991 304.515163 
L 539.461991 304.57494 
L 538.461991 304.612132 
L 537.461991 304.651228 
L 536.461991 304.693667 
L 535.461991 304.726432 
L 534.461991 304.793859 
L 533.461991 304.832985 
L 532.461991 304.875659 
L 531.461991 304.94624 
L 530.461991 304.982631 
L 529.461991 305.041034 
L 528.461991 305.151987 
L 527.461991 305.222645 
L 526.461991 305.335585 
L 525.461991 305.381358 
L 524.461991 305.442641 
L 523.461991 305.49114 
L 522.461991 305.571963 
L 521.461991 305.690482 
L 520.461991 305.760692 
L 519.461991 305.843955 
L 518.461991 305.877097 
L 517.461991 305.928334 
L 516.461991 305.996732 
L 515.461991 306.062948 
L 514.461991 306.139865 
L 513.461991 306.16718 
L 512.461991 306.193658 
L 511.461991 306.216308 
L 510.461991 306.23584 
L 509.461991 306.262234 
L 508.461991 306.312005 
L 507.461991 306.347078 
L 506.461991 306.382943 
L 505.461991 306.398311 
L 504.461991 306.41408 
L 503.461991 306.417492 
L 502.461991 306.41991 
L 501.461991 306.419424 
L 500.461991 306.417495 
L 499.461991 306.404238 
L 498.461991 306.395847 
L 497.461991 306.37431 
L 496.461991 306.351278 
L 495.461991 306.334044 
L 494.461991 306.315582 
L 493.461991 306.295129 
L 492.461991 306.27853 
L 491.461991 306.215751 
L 490.461991 306.140486 
L 489.461991 306.107847 
L 488.461991 306.040283 
L 487.461991 305.986236 
L 486.461991 305.952532 
L 485.461991 305.862406 
L 484.461991 305.833871 
L 483.461991 305.802385 
L 482.461991 305.771374 
L 481.461991 305.716566 
L 480.461991 305.651978 
L 479.461991 305.613783 
L 478.461991 305.517849 
L 477.461991 305.468591 
L 476.461991 305.424521 
L 475.461991 305.384398 
L 474.461991 305.276031 
L 473.461991 305.234403 
L 472.461991 305.172261 
L 471.461991 305.102299 
L 470.461991 304.997794 
L 469.461991 304.960807 
L 468.461991 304.91493 
L 467.461991 304.846435 
L 466.461991 304.797689 
L 465.461991 304.720092 
L 463.654768 304.689551 
" clip-path="url(#pe2adcbd73e)" style="fill: none; stroke-dasharray: 3.7,1.6; stroke-dashoffset: 0; stroke: #2ca02c"/>
   <g id="patch_3">
    <path d="M 329.052488 10.8 
L 329.052488 285.558219 
M 345.98355 10.8 
L 345.98355 285.558219 
" clip-path="url(#pe2adcbd73e)" style="fill: none; stroke: #ffffff; stroke-width: 3; stroke-linejoin: miter"/>
    <path d="M 329.052488 10.8 
L 329.052488 285.558219 
M 345.98355 10.8 
L 345.98355 285.558219 
" clip-path="url(#pe2adcbd73e)" style="fill: none; stroke: #1f77b4; stroke-linejoin: miter"/>
    <g id="PolyCollection_1">
     <path d="M 345.98355 10.8 
L 329.052488 10.8 
L 329.052488 285.558219 
L 345.98355 285.558219 
L 345.98355 285.558219 
L 345.98355 10.8 
z
" clip-path="url(#pe2adcbd73e)" style="fill: #1f77b4; fill-opacity: 0.5"/>
    </g>
    <g id="patch_4">
     <path d="M 156.625388 285.558219 
L 156.51531 310.311635 
L 155.810474 311.477639 
L 155.003128 312.410442 
L 153.88998 313.343245 
L 152.575061 314.159448 
L 150.833433 314.975651 
L 148.526622 315.791854 
L 145.47122 316.608057 
L 141.424298 317.42426 
L 136.064094 318.240463 
L 128.964429 319.056666 
L 119.560826 319.872869 
L 107.105624 320.689072 
L 90.608538 321.505275 
L 87.850142 321.621875 
M 159.258504 285.558219 
L 159.368582 310.311635 
L 160.073418 311.477639 
L 160.880764 312.410442 
L 161.993912 313.343245 
L 163.308831 314.159448 
L 165.050459 314.975651 
L 167.357269 315.791854 
L 170.412672 316.608057 
L 174.459594 317.42426 
L 179.819798 318.240463 
L 186.919462 319.056666 
L 196.323066 319.872869 
L 208.778268 320.689072 
L 225.275354 321.505275 
L 228.03375 321.621875 
L 228.03375 321.621875 
" clip-path="url(#pe2adcbd73e)" style="fill: none; stroke: #ffffff; stroke-width: 3; stroke-linejoin: miter"/>
     <path d="M 156.625388 285.558219 
L 156.51531 310.311635 
L 155.810474 311.477639 
L 155.003128 312.410442 
L 153.88998 313.343245 
L 152.575061 314.159448 
L 150.833433 314.975651 
L 148.526622 315.791854 
L 145.47122 316.608057 
L 141.424298 317.42426 
L 136.064094 318.240463 
L 128.964429 319.056666 
L 119.560826 319.872869 
L 107.105624 320.689072 
L 90.608538 321.505275 
L 87.850142 321.621875 
M 159.258504 285.558219 
L 159.368582 310.311635 
L 160.073418 311.477639 
L 160.880764 312.410442 
L 161.993912 313.343245 
L 163.308831 314.159448 
L 165.050459 314.975651 
L 167.357269 315.791854 
L 170.412672 316.608057 
L 174.459594 317.42426 
L 179.819798 318.240463 
L 186.919462 319.056666 
L 196.323066 319.872869 
L 208.778268 320.689072 
L 225.275354 321.505275 
L 228.03375 321.621875 
L 228.03375 321.621875 
" clip-path="url(#pe2adcbd73e)" style="fill: none; stroke: #ff7f0e; stroke-linejoin: miter"/>
     <g id="PolyCollection_2">
      <path d="M 159.258504 285.558219 
L 156.625388 285.558219 
L 156.625388 310.078434 
L 156.625388 310.078434 
L 156.571454 310.195034 
L 156.51531 310.311635 
L 156.456866 310.428235 
L 156.396028 310.544835 
L 156.332697 310.661436 
L 156.266773 310.778036 
L 156.198147 310.894637 
L 156.12671 311.011237 
L 156.052347 311.127837 
L 155.974937 311.244438 
L 155.894356 311.361038 
L 155.810474 311.477639 
L 155.723156 311.594239 
L 155.63226 311.71084 
L 155.537641 311.82744 
L 155.439146 311.94404 
L 155.336616 312.060641 
L 155.229885 312.177241 
L 155.118782 312.293842 
L 155.003128 312.410442 
L 154.882736 312.527042 
L 154.757411 312.643643 
L 154.626953 312.760243 
L 154.49115 312.876844 
L 154.349784 312.993444 
L 154.202627 313.110045 
L 154.049441 313.226645 
L 153.88998 313.343245 
L 153.723986 313.459846 
L 153.551192 313.576446 
L 153.371319 313.693047 
L 153.184078 313.809647 
L 152.989166 313.926247 
L 152.786269 314.042848 
L 152.575061 314.159448 
L 152.3552 314.276049 
L 152.126332 314.392649 
L 151.888088 314.50925 
L 151.640084 314.62585 
L 151.381921 314.74245 
L 151.113181 314.859051 
L 150.833433 314.975651 
L 150.542224 315.092252 
L 150.239085 315.208852 
L 149.923528 315.325452 
L 149.595044 315.442053 
L 149.253102 315.558653 
L 148.897153 315.675254 
L 148.526622 315.791854 
L 148.140912 315.908455 
L 147.739401 316.025055 
L 147.321441 316.141655 
L 146.886359 316.258256 
L 146.433453 316.374856 
L 145.961994 316.491457 
L 145.47122 316.608057 
L 144.960342 316.724657 
L 144.428534 316.841258 
L 143.874941 316.957858 
L 143.298669 317.074459 
L 142.698789 317.191059 
L 142.074334 317.30766 
L 141.424298 317.42426 
L 140.747632 317.54086 
L 140.043246 317.657461 
L 139.310004 317.774061 
L 138.546723 317.890662 
L 137.752174 318.007262 
L 136.925075 318.123862 
L 136.064094 318.240463 
L 135.167841 318.357063 
L 134.234871 318.473664 
L 133.263682 318.590264 
L 132.252707 318.706865 
L 131.200315 318.823465 
L 130.104812 318.940065 
L 128.964429 319.056666 
L 127.77733 319.173266 
L 126.541599 319.289867 
L 125.255245 319.406467 
L 123.916195 319.523067 
L 122.522288 319.639668 
L 121.071278 319.756268 
L 119.560826 319.872869 
L 117.988496 319.989469 
L 116.351754 320.10607 
L 114.647961 320.22267 
L 112.87437 320.33927 
L 111.028121 320.455871 
L 109.106239 320.572471 
L 107.105624 320.689072 
L 105.023052 320.805672 
L 102.855164 320.922272 
L 100.598467 321.038873 
L 98.249321 321.155473 
L 95.803939 321.272074 
L 93.258379 321.388674 
L 90.608538 321.505275 
L 87.850142 321.621875 
L 228.03375 321.621875 
L 228.03375 321.621875 
L 225.275354 321.505275 
L 222.625512 321.388674 
L 220.079953 321.272074 
L 217.634571 321.155473 
L 215.285425 321.038873 
L 213.028727 320.922272 
L 210.86084 320.805672 
L 208.778268 320.689072 
L 206.777653 320.572471 
L 204.85577 320.455871 
L 203.009522 320.33927 
L 201.235931 320.22267 
L 199.532137 320.10607 
L 197.895395 319.989469 
L 196.323066 319.872869 
L 194.812614 319.756268 
L 193.361604 319.639668 
L 191.967697 319.523067 
L 190.628646 319.406467 
L 189.342293 319.289867 
L 188.106562 319.173266 
L 186.919462 319.056666 
L 185.77908 318.940065 
L 184.683576 318.823465 
L 183.631185 318.706865 
L 182.62021 318.590264 
L 181.64902 318.473664 
L 180.716051 318.357063 
L 179.819798 318.240463 
L 178.958816 318.123862 
L 178.131717 318.007262 
L 177.337168 317.890662 
L 176.573888 317.774061 
L 175.840646 317.657461 
L 175.13626 317.54086 
L 174.459594 317.42426 
L 173.809558 317.30766 
L 173.185103 317.191059 
L 172.585223 317.074459 
L 172.008951 316.957858 
L 171.455358 316.841258 
L 170.92355 316.724657 
L 170.412672 316.608057 
L 169.921898 316.491457 
L 169.450439 316.374856 
L 168.997533 316.258256 
L 168.562451 316.141655 
L 168.144491 316.025055 
L 167.74298 315.908455 
L 167.357269 315.791854 
L 166.986738 315.675254 
L 166.630789 315.558653 
L 166.288848 315.442053 
L 165.960364 315.325452 
L 165.644807 315.208852 
L 165.341668 315.092252 
L 165.050459 314.975651 
L 164.77071 314.859051 
L 164.501971 314.74245 
L 164.243807 314.62585 
L 163.995804 314.50925 
L 163.75756 314.392649 
L 163.528692 314.276049 
L 163.308831 314.159448 
L 163.097622 314.042848 
L 162.894726 313.926247 
L 162.699814 313.809647 
L 162.512572 313.693047 
L 162.3327 313.576446 
L 162.159906 313.459846 
L 161.993912 313.343245 
L 161.834451 313.226645 
L 161.681265 313.110045 
L 161.534108 312.993444 
L 161.392742 312.876844 
L 161.256939 312.760243 
L 161.126481 312.643643 
L 161.001156 312.527042 
L 160.880764 312.410442 
L 160.76511 312.293842 
L 160.654007 312.177241 
L 160.547276 312.060641 
L 160.444746 311.94404 
L 160.346251 311.82744 
L 160.251631 311.71084 
L 160.160736 311.594239 
L 160.073418 311.477639 
L 159.989536 311.361038 
L 159.908955 311.244438 
L 159.831545 311.127837 
L 159.757182 311.011237 
L 159.685745 310.894637 
L 159.617119 310.778036 
L 159.551194 310.661436 
L 159.487864 310.544835 
L 159.427026 310.428235 
L 159.368582 310.311635 
L 159.312438 310.195034 
L 159.258504 310.078434 
L 159.258504 310.078434 
L 159.258504 285.558219 
z
" clip-path="url(#pe2adcbd73e)" style="fill: #ff7f0e; fill-opacity: 0.5"/>
     </g>
     <g id="patch_5">
      <path d="M 574.865085 72.964375 
L 574.865085 321.621875 
M 579.040483 72.964375 
L 579.040483 321.621875 
" clip-path="url(#pe2adcbd73e)" style="fill: none; stroke: #ffffff; stroke-width: 3; stroke-linejoin: miter"/>
      <path d="M 574.865085 72.964375 
L 574.865085 321.621875 
M 579.040483 72.964375 
L 579.040483 321.621875 
" clip-path="url(#pe2adcbd73e)" style="fill: none; stroke: #2ca02c; stroke-linejoin: miter"/>
      <g id="PolyCollection_3">
       <path d="M 579.040483 72.964375 
L 574.865085 72.964375 
L 574.865085 321.621875 
L 579.040483 321.621875 
L 579.040483 321.621875 
L 579.040483 72.964375 
z
" clip-path="url(#pe2adcbd73e)" style="fill: #2ca02c; fill-opacity: 0.5"/>
      </g>
      <g id="patch_6">
       <path d="M 456.219129 285.558219 
L 456.219129 292.161784 
L 456.931371 292.161784 
L 456.931371 293.1472 
L 456.219129 293.1472 
L 456.128188 308.568704 
L 455.535837 309.914392 
L 454.840858 310.990942 
L 453.861692 312.067492 
L 452.681516 313.009473 
L 451.088496 313.951455 
L 449.286258 314.758868 
L 446.955614 315.56628 
L 443.941639 316.373693 
L 440.043984 317.181105 
L 435.003558 317.988518 
L 428.485308 318.795931 
L 420.055945 319.603343 
L 409.15514 320.410756 
L 395.058281 321.218169 
L 386.528387 321.621875 
M 458.251674 285.558219 
L 458.251674 292.161784 
L 457.539432 292.161784 
L 457.539432 293.1472 
L 458.251674 293.1472 
L 458.342615 308.568704 
L 458.934966 309.914392 
L 459.629945 310.990942 
L 460.609111 312.067492 
L 461.789288 313.009473 
L 463.382307 313.951455 
L 465.184545 314.758868 
L 467.515189 315.56628 
L 470.529164 316.373693 
L 474.426819 317.181105 
L 479.467245 317.988518 
L 485.985495 318.795931 
L 494.414859 319.603343 
L 505.315664 320.410756 
L 519.412523 321.218169 
L 527.942416 321.621875 
L 527.942416 321.621875 
" clip-path="url(#pe2adcbd73e)" style="fill: none; stroke: #ffffff; stroke-width: 3; stroke-linejoin: miter"/>
       <path d="M 456.219129 285.558219 
L 456.219129 292.161784 
L 456.931371 292.161784 
L 456.931371 293.1472 
L 456.219129 293.1472 
L 456.128188 308.568704 
L 455.535837 309.914392 
L 454.840858 310.990942 
L 453.861692 312.067492 
L 452.681516 313.009473 
L 451.088496 313.951455 
L 449.286258 314.758868 
L 446.955614 315.56628 
L 443.941639 316.373693 
L 440.043984 317.181105 
L 435.003558 317.988518 
L 428.485308 318.795931 
L 420.055945 319.603343 
L 409.15514 320.410756 
L 395.058281 321.218169 
L 386.528387 321.621875 
M 458.251674 285.558219 
L 458.251674 292.161784 
L 457.539432 292.161784 
L 457.539432 293.1472 
L 458.251674 293.1472 
L 458.342615 308.568704 
L 458.934966 309.914392 
L 459.629945 310.990942 
L 460.609111 312.067492 
L 461.789288 313.009473 
L 463.382307 313.951455 
L 465.184545 314.758868 
L 467.515189 315.56628 
L 470.529164 316.373693 
L 474.426819 317.181105 
L 479.467245 317.988518 
L 485.985495 318.795931 
L 494.414859 319.603343 
L 505.315664 320.410756 
L 519.412523 321.218169 
L 527.942416 321.621875 
L 527.942416 321.621875 
" clip-path="url(#pe2adcbd73e)" style="fill: none; stroke: #d62728; stroke-linejoin: miter"/>
       <g id="PolyCollection_4">
        <path d="M 458.251674 285.558219 
L 456.219129 285.558219 
L 456.219129 292.161784 
L 456.931371 292.161784 
L 456.931371 293.1472 
L 456.219129 293.1472 
L 456.219129 308.299566 
L 456.219129 308.299566 
L 456.174633 308.434135 
L 456.128188 308.568704 
L 456.07971 308.703273 
L 456.029109 308.837841 
L 455.976293 308.97241 
L 455.921164 309.106979 
L 455.863622 309.241548 
L 455.80356 309.376117 
L 455.740868 309.510685 
L 455.675431 309.645254 
L 455.607129 309.779823 
L 455.535837 309.914392 
L 455.461424 310.04896 
L 455.383752 310.183529 
L 455.302679 310.318098 
L 455.218057 310.452667 
L 455.129729 310.587235 
L 455.037535 310.721804 
L 454.941303 310.856373 
L 454.840858 310.990942 
L 454.736016 311.125511 
L 454.626583 311.260079 
L 454.512358 311.394648 
L 454.393132 311.529217 
L 454.268687 311.663786 
L 454.138792 311.798354 
L 454.00321 311.932923 
L 453.861692 312.067492 
L 453.713977 312.202061 
L 453.559795 312.33663 
L 453.398863 312.471198 
L 453.230884 312.605767 
L 453.05555 312.740336 
L 452.872539 312.874905 
L 452.681516 313.009473 
L 452.482129 313.144042 
L 452.274011 313.278611 
L 452.056782 313.41318 
L 451.830041 313.547749 
L 451.593373 313.682317 
L 451.346342 313.816886 
L 451.088496 313.951455 
L 450.81936 314.086024 
L 450.53844 314.220592 
L 450.24522 314.355161 
L 449.939162 314.48973 
L 449.619704 314.624299 
L 449.286258 314.758868 
L 448.938213 314.893436 
L 448.574929 315.028005 
L 448.195739 315.162574 
L 447.799946 315.297143 
L 447.386824 315.431711 
L 446.955614 315.56628 
L 446.505524 315.700849 
L 446.035728 315.835418 
L 445.545361 315.969986 
L 445.033525 316.104555 
L 444.499278 316.239124 
L 443.941639 316.373693 
L 443.359586 316.508262 
L 442.752047 316.64283 
L 442.117908 316.777399 
L 441.456004 316.911968 
L 440.765119 317.046537 
L 440.043984 317.181105 
L 439.291275 317.315674 
L 438.50561 317.450243 
L 437.685545 317.584812 
L 436.829574 317.719381 
L 435.936126 317.853949 
L 435.003558 317.988518 
L 434.03016 318.123087 
L 433.014141 318.257656 
L 431.953638 318.392224 
L 430.846702 318.526793 
L 429.691299 318.661362 
L 428.485308 318.795931 
L 427.226515 318.9305 
L 425.912606 319.065068 
L 424.541169 319.199637 
L 423.109685 319.334206 
L 421.615525 319.468775 
L 420.055945 319.603343 
L 418.42808 319.737912 
L 416.728941 319.872481 
L 414.955406 320.00705 
L 413.104219 320.141618 
L 411.17198 320.276187 
L 409.15514 320.410756 
L 407.049994 320.545325 
L 404.852677 320.679894 
L 402.559152 320.814462 
L 400.165208 320.949031 
L 397.666447 321.0836 
L 395.058281 321.218169 
L 392.335918 321.352737 
L 389.49436 321.487306 
L 386.528387 321.621875 
L 527.942416 321.621875 
L 527.942416 321.621875 
L 524.976443 321.487306 
L 522.134885 321.352737 
L 519.412523 321.218169 
L 516.804356 321.0836 
L 514.305595 320.949031 
L 511.911651 320.814462 
L 509.618127 320.679894 
L 507.420809 320.545325 
L 505.315664 320.410756 
L 503.298823 320.276187 
L 501.366584 320.141618 
L 499.515397 320.00705 
L 497.741863 319.872481 
L 496.042723 319.737912 
L 494.414859 319.603343 
L 492.855278 319.468775 
L 491.361118 319.334206 
L 489.929634 319.199637 
L 488.558197 319.065068 
L 487.244289 318.9305 
L 485.985495 318.795931 
L 484.779504 318.661362 
L 483.624102 318.526793 
L 482.517165 318.392224 
L 481.456662 318.257656 
L 480.440644 318.123087 
L 479.467245 317.988518 
L 478.534678 317.853949 
L 477.641229 317.719381 
L 476.785259 317.584812 
L 475.965194 317.450243 
L 475.179528 317.315674 
L 474.426819 317.181105 
L 473.705685 317.046537 
L 473.0148 316.911968 
L 472.352895 316.777399 
L 471.718756 316.64283 
L 471.111218 316.508262 
L 470.529164 316.373693 
L 469.971526 316.239124 
L 469.437279 316.104555 
L 468.925442 315.969986 
L 468.435076 315.835418 
L 467.965279 315.700849 
L 467.515189 315.56628 
L 467.083979 315.431711 
L 466.670857 315.297143 
L 466.275064 315.162574 
L 465.895874 315.028005 
L 465.53259 314.893436 
L 465.184545 314.758868 
L 464.8511 314.624299 
L 464.531641 314.48973 
L 464.225583 314.355161 
L 463.932363 314.220592 
L 463.651443 314.086024 
L 463.382307 313.951455 
L 463.124461 313.816886 
L 462.87743 313.682317 
L 462.640762 313.547749 
L 462.414022 313.41318 
L 462.196792 313.278611 
L 461.988675 313.144042 
L 461.789288 313.009473 
L 461.598264 312.874905 
L 461.415253 312.740336 
L 461.23992 312.605767 
L 461.071941 312.471198 
L 460.911008 312.33663 
L 460.756826 312.202061 
L 460.609111 312.067492 
L 460.467593 311.932923 
L 460.332011 311.798354 
L 460.202117 311.663786 
L 460.077671 311.529217 
L 459.958445 311.394648 
L 459.844221 311.260079 
L 459.734788 311.125511 
L 459.629945 310.990942 
L 459.5295 310.856373 
L 459.433269 310.721804 
L 459.341074 310.587235 
L 459.252747 310.452667 
L 459.168124 310.318098 
L 459.087052 310.183529 
L 459.00938 310.04896 
L 458.934966 309.914392 
L 458.863674 309.779823 
L 458.795372 309.645254 
L 458.729935 309.510685 
L 458.667244 309.376117 
L 458.607182 309.241548 
L 458.549639 309.106979 
L 458.49451 308.97241 
L 458.441694 308.837841 
L 458.391093 308.703273 
L 458.342615 308.568704 
L 458.29617 308.434135 
L 458.251674 308.299566 
L 458.251674 308.299566 
L 458.251674 293.1472 
L 457.539432 293.1472 
L 457.539432 292.161784 
L 458.251674 292.161784 
L 458.251674 285.558219 
z
" clip-path="url(#pe2adcbd73e)" style="fill: #d62728; fill-opacity: 0.5"/>
       </g>
       <g id="matplotlib.axis_1">
        <g id="xtick_1">
         <g id="line2d_1"/>
         <g id="text_1">
          <!-- OUT -->
          <g transform="translate(147.292727 332.720312) scale(0.1 -0.1)">
           <defs>
            <path id="DejaVuSans-4f" d="M 2522 4238 
Q 1834 4238 1429 3725 
Q 1025 3213 1025 2328 
Q 1025 1447 1429 934 
Q 1834 422 2522 422 
Q 3209 422 3611 934 
Q 4013 1447 4013 2328 
Q 4013 3213 3611 3725 
Q 3209 4238 2522 4238 
z
M 2522 4750 
Q 3503 4750 4090 4092 
Q 4678 3434 4678 2328 
Q 4678 1225 4090 567 
Q 3503 -91 2522 -91 
Q 1538 -91 948 565 
Q 359 1222 359 2328 
Q 359 3434 948 4092 
Q 1538 4750 2522 4750 
z
" transform="scale(0.015625)"/>
            <path id="DejaVuSans-55" d="M 556 4666 
L 1191 4666 
L 1191 1831 
Q 1191 1081 1462 751 
Q 1734 422 2344 422 
Q 2950 422 3222 751 
Q 3494 1081 3494 1831 
L 3494 4666 
L 4128 4666 
L 4128 1753 
Q 4128 841 3676 375 
Q 3225 -91 2344 -91 
Q 1459 -91 1007 375 
Q 556 841 556 1753 
L 556 4666 
z
" transform="scale(0.015625)"/>
            <path id="DejaVuSans-54" d="M -19 4666 
L 3928 4666 
L 3928 4134 
L 2272 4134 
L 2272 0 
L 1638 0 
L 1638 4134 
L -19 4134 
L -19 4666 
z
" transform="scale(0.015625)"/>
           </defs>
           <use xlink:href="#DejaVuSans-4f"/>
           <use xlink:href="#DejaVuSans-55" x="78.710938"/>
           <use xlink:href="#DejaVuSans-54" x="151.904297"/>
          </g>
         </g>
        </g>
        <g id="xtick_2">
         <g id="line2d_2"/>
         <g id="text_2">
          <!-- SRC -->
          <g transform="translate(567.06294 332.720312) scale(0.1 -0.1)">
           <defs>
            <path id="DejaVuSans-53" d="M 3425 4513 
L 3425 3897 
Q 3066 4069 2747 4153 
Q 2428 4238 2131 4238 
Q 1616 4238 1336 4038 
Q 1056 3838 1056 3469 
Q 1056 3159 1242 3001 
Q 1428 2844 1947 2747 
L 2328 2669 
Q 3034 2534 3370 2195 
Q 3706 1856 3706 1288 
Q 3706 609 3251 259 
Q 2797 -91 1919 -91 
Q 1588 -91 1214 -16 
Q 841 59 441 206 
L 441 856 
Q 825 641 1194 531 
Q 1563 422 1919 422 
Q 2459 422 2753 634 
Q 3047 847 3047 1241 
Q 3047 1584 2836 1778 
Q 2625 1972 2144 2069 
L 1759 2144 
Q 1053 2284 737 2584 
Q 422 2884 422 3419 
Q 422 4038 858 4394 
Q 1294 4750 2059 4750 
Q 2388 4750 2728 4690 
Q 3069 4631 3425 4513 
z
" transform="scale(0.015625)"/>
            <path id="DejaVuSans-52" d="M 2841 2188 
Q 3044 2119 3236 1894 
Q 3428 1669 3622 1275 
L 4263 0 
L 3584 0 
L 2988 1197 
Q 2756 1666 2539 1819 
Q 2322 1972 1947 1972 
L 1259 1972 
L 1259 0 
L 628 0 
L 628 4666 
L 2053 4666 
Q 2853 4666 3247 4331 
Q 3641 3997 3641 3322 
Q 3641 2881 3436 2590 
Q 3231 2300 2841 2188 
z
M 1259 4147 
L 1259 2491 
L 2053 2491 
Q 2509 2491 2742 2702 
Q 2975 2913 2975 3322 
Q 2975 3731 2742 3939 
Q 2509 4147 2053 4147 
L 1259 4147 
z
" transform="scale(0.015625)"/>
            <path id="DejaVuSans-43" d="M 4122 4306 
L 4122 3641 
Q 3803 3938 3442 4084 
Q 3081 4231 2675 4231 
Q 1875 4231 1450 3742 
Q 1025 3253 1025 2328 
Q 1025 1406 1450 917 
Q 1875 428 2675 428 
Q 3081 428 3442 575 
Q 3803 722 4122 1019 
L 4122 359 
Q 3791 134 3420 21 
Q 3050 -91 2638 -91 
Q 1578 -91 968 557 
Q 359 1206 359 2328 
Q 359 3453 968 4101 
Q 1578 4750 2638 4750 
Q 3056 4750 3426 4639 
Q 3797 4528 4122 4306 
z
" transform="scale(0.015625)"/>
           </defs>
           <use xlink:href="#DejaVuSans-53"/>
           <use xlink:href="#DejaVuSans-52" x="63.476562"/>
           <use xlink:href="#DejaVuSans-43" x="127.958984"/>
          </g>
         </g>
        </g>
        <g id="xtick_3">
         <g id="line2d_3"/>
         <g id="text_3">
          <!-- TAR -->
          <g transform="translate(447.674464 332.720312) scale(0.1 -0.1)">
           <defs>
            <path id="DejaVuSans-41" d="M 2188 4044 
L 1331 1722 
L 3047 1722 
L 2188 4044 
z
M 1831 4666 
L 2547 4666 
L 4325 0 
L 3669 0 
L 3244 1197 
L 1141 1197 
L 716 0 
L 50 0 
L 1831 4666 
z
" transform="scale(0.015625)"/>
           </defs>
           <use xlink:href="#DejaVuSans-54"/>
           <use xlink:href="#DejaVuSans-41" x="53.333984"/>
           <use xlink:href="#DejaVuSans-52" x="121.742188"/>
          </g>
         </g>
        </g>
       </g>
       <g id="matplotlib.axis_2">
        <g id="ytick_1">
         <g id="line2d_4">
          <defs>
           <path id="mf23fe80de3" d="M 0 0 
L -3.5 0 
" style="stroke: #000000; stroke-width: 0.8"/>
          </defs>
          <g>
           <use xlink:href="#mf23fe80de3" x="63.290625" y="321.621875" style="stroke: #000000; stroke-width: 0.8"/>
          </g>
         </g>
         <g id="text_4">
          <!-- 0 -->
          <g transform="translate(49.928125 325.421094) scale(0.1 -0.1)">
           <defs>
            <path id="DejaVuSans-30" d="M 2034 4250 
Q 1547 4250 1301 3770 
Q 1056 3291 1056 2328 
Q 1056 1369 1301 889 
Q 1547 409 2034 409 
Q 2525 409 2770 889 
Q 3016 1369 3016 2328 
Q 3016 3291 2770 3770 
Q 2525 4250 2034 4250 
z
M 2034 4750 
Q 2819 4750 3233 4129 
Q 3647 3509 3647 2328 
Q 3647 1150 3233 529 
Q 2819 -91 2034 -91 
Q 1250 -91 836 529 
Q 422 1150 422 2328 
Q 422 3509 836 4129 
Q 1250 4750 2034 4750 
z
" transform="scale(0.015625)"/>
           </defs>
           <use xlink:href="#DejaVuSans-30"/>
          </g>
         </g>
        </g>
        <g id="ytick_2">
         <g id="line2d_5">
          <g>
           <use xlink:href="#mf23fe80de3" x="63.290625" y="257.633841" style="stroke: #000000; stroke-width: 0.8"/>
          </g>
         </g>
         <g id="text_5">
          <!-- 5000 -->
          <g transform="translate(30.840625 261.43306) scale(0.1 -0.1)">
           <defs>
            <path id="DejaVuSans-35" d="M 691 4666 
L 3169 4666 
L 3169 4134 
L 1269 4134 
L 1269 2991 
Q 1406 3038 1543 3061 
Q 1681 3084 1819 3084 
Q 2600 3084 3056 2656 
Q 3513 2228 3513 1497 
Q 3513 744 3044 326 
Q 2575 -91 1722 -91 
Q 1428 -91 1123 -41 
Q 819 9 494 109 
L 494 744 
Q 775 591 1075 516 
Q 1375 441 1709 441 
Q 2250 441 2565 725 
Q 2881 1009 2881 1497 
Q 2881 1984 2565 2268 
Q 2250 2553 1709 2553 
Q 1456 2553 1204 2497 
Q 953 2441 691 2322 
L 691 4666 
z
" transform="scale(0.015625)"/>
           </defs>
           <use xlink:href="#DejaVuSans-35"/>
           <use xlink:href="#DejaVuSans-30" x="63.623047"/>
           <use xlink:href="#DejaVuSans-30" x="127.246094"/>
           <use xlink:href="#DejaVuSans-30" x="190.869141"/>
          </g>
         </g>
        </g>
        <g id="ytick_3">
         <g id="line2d_6">
          <g>
           <use xlink:href="#mf23fe80de3" x="63.290625" y="193.645807" style="stroke: #000000; stroke-width: 0.8"/>
          </g>
         </g>
         <g id="text_6">
          <!-- 10000 -->
          <g transform="translate(24.478125 197.445026) scale(0.1 -0.1)">
           <defs>
            <path id="DejaVuSans-31" d="M 794 531 
L 1825 531 
L 1825 4091 
L 703 3866 
L 703 4441 
L 1819 4666 
L 2450 4666 
L 2450 531 
L 3481 531 
L 3481 0 
L 794 0 
L 794 531 
z
" transform="scale(0.015625)"/>
           </defs>
           <use xlink:href="#DejaVuSans-31"/>
           <use xlink:href="#DejaVuSans-30" x="63.623047"/>
           <use xlink:href="#DejaVuSans-30" x="127.246094"/>
           <use xlink:href="#DejaVuSans-30" x="190.869141"/>
           <use xlink:href="#DejaVuSans-30" x="254.492188"/>
          </g>
         </g>
        </g>
        <g id="ytick_4">
         <g id="line2d_7">
          <g>
           <use xlink:href="#mf23fe80de3" x="63.290625" y="129.657773" style="stroke: #000000; stroke-width: 0.8"/>
          </g>
         </g>
         <g id="text_7">
          <!-- 15000 -->
          <g transform="translate(24.478125 133.456992) scale(0.1 -0.1)">
           <use xlink:href="#DejaVuSans-31"/>
           <use xlink:href="#DejaVuSans-35" x="63.623047"/>
           <use xlink:href="#DejaVuSans-30" x="127.246094"/>
           <use xlink:href="#DejaVuSans-30" x="190.869141"/>
           <use xlink:href="#DejaVuSans-30" x="254.492188"/>
          </g>
         </g>
        </g>
        <g id="ytick_5">
         <g id="line2d_8">
          <g>
           <use xlink:href="#mf23fe80de3" x="63.290625" y="65.669739" style="stroke: #000000; stroke-width: 0.8"/>
          </g>
         </g>
         <g id="text_8">
          <!-- 20000 -->
          <g transform="translate(24.478125 69.468958) scale(0.1 -0.1)">
           <defs>
            <path id="DejaVuSans-32" d="M 1228 531 
L 3431 531 
L 3431 0 
L 469 0 
L 469 531 
Q 828 903 1448 1529 
Q 2069 2156 2228 2338 
Q 2531 2678 2651 2914 
Q 2772 3150 2772 3378 
Q 2772 3750 2511 3984 
Q 2250 4219 1831 4219 
Q 1534 4219 1204 4116 
Q 875 4013 500 3803 
L 500 4441 
Q 881 4594 1212 4672 
Q 1544 4750 1819 4750 
Q 2544 4750 2975 4387 
Q 3406 4025 3406 3419 
Q 3406 3131 3298 2873 
Q 3191 2616 2906 2266 
Q 2828 2175 2409 1742 
Q 1991 1309 1228 531 
z
" transform="scale(0.015625)"/>
           </defs>
           <use xlink:href="#DejaVuSans-32"/>
           <use xlink:href="#DejaVuSans-30" x="63.623047"/>
           <use xlink:href="#DejaVuSans-30" x="127.246094"/>
           <use xlink:href="#DejaVuSans-30" x="190.869141"/>
           <use xlink:href="#DejaVuSans-30" x="254.492188"/>
          </g>
         </g>
        </g>
        <g id="text_9">
         <!-- time ago (generations) -->
         <g transform="translate(18.398438 223.682031) rotate(-90) scale(0.1 -0.1)">
          <defs>
           <path id="DejaVuSans-74" d="M 1172 4494 
L 1172 3500 
L 2356 3500 
L 2356 3053 
L 1172 3053 
L 1172 1153 
Q 1172 725 1289 603 
Q 1406 481 1766 481 
L 2356 481 
L 2356 0 
L 1766 0 
Q 1100 0 847 248 
Q 594 497 594 1153 
L 594 3053 
L 172 3053 
L 172 3500 
L 594 3500 
L 594 4494 
L 1172 4494 
z
" transform="scale(0.015625)"/>
           <path id="DejaVuSans-69" d="M 603 3500 
L 1178 3500 
L 1178 0 
L 603 0 
L 603 3500 
z
M 603 4863 
L 1178 4863 
L 1178 4134 
L 603 4134 
L 603 4863 
z
" transform="scale(0.015625)"/>
           <path id="DejaVuSans-6d" d="M 3328 2828 
Q 3544 3216 3844 3400 
Q 4144 3584 4550 3584 
Q 5097 3584 5394 3201 
Q 5691 2819 5691 2113 
L 5691 0 
L 5113 0 
L 5113 2094 
Q 5113 2597 4934 2840 
Q 4756 3084 4391 3084 
Q 3944 3084 3684 2787 
Q 3425 2491 3425 1978 
L 3425 0 
L 2847 0 
L 2847 2094 
Q 2847 2600 2669 2842 
Q 2491 3084 2119 3084 
Q 1678 3084 1418 2786 
Q 1159 2488 1159 1978 
L 1159 0 
L 581 0 
L 581 3500 
L 1159 3500 
L 1159 2956 
Q 1356 3278 1631 3431 
Q 1906 3584 2284 3584 
Q 2666 3584 2933 3390 
Q 3200 3197 3328 2828 
z
" transform="scale(0.015625)"/>
           <path id="DejaVuSans-65" d="M 3597 1894 
L 3597 1613 
L 953 1613 
Q 991 1019 1311 708 
Q 1631 397 2203 397 
Q 2534 397 2845 478 
Q 3156 559 3463 722 
L 3463 178 
Q 3153 47 2828 -22 
Q 2503 -91 2169 -91 
Q 1331 -91 842 396 
Q 353 884 353 1716 
Q 353 2575 817 3079 
Q 1281 3584 2069 3584 
Q 2775 3584 3186 3129 
Q 3597 2675 3597 1894 
z
M 3022 2063 
Q 3016 2534 2758 2815 
Q 2500 3097 2075 3097 
Q 1594 3097 1305 2825 
Q 1016 2553 972 2059 
L 3022 2063 
z
" transform="scale(0.015625)"/>
           <path id="DejaVuSans-20" transform="scale(0.015625)"/>
           <path id="DejaVuSans-61" d="M 2194 1759 
Q 1497 1759 1228 1600 
Q 959 1441 959 1056 
Q 959 750 1161 570 
Q 1363 391 1709 391 
Q 2188 391 2477 730 
Q 2766 1069 2766 1631 
L 2766 1759 
L 2194 1759 
z
M 3341 1997 
L 3341 0 
L 2766 0 
L 2766 531 
Q 2569 213 2275 61 
Q 1981 -91 1556 -91 
Q 1019 -91 701 211 
Q 384 513 384 1019 
Q 384 1609 779 1909 
Q 1175 2209 1959 2209 
L 2766 2209 
L 2766 2266 
Q 2766 2663 2505 2880 
Q 2244 3097 1772 3097 
Q 1472 3097 1187 3025 
Q 903 2953 641 2809 
L 641 3341 
Q 956 3463 1253 3523 
Q 1550 3584 1831 3584 
Q 2591 3584 2966 3190 
Q 3341 2797 3341 1997 
z
" transform="scale(0.015625)"/>
           <path id="DejaVuSans-67" d="M 2906 1791 
Q 2906 2416 2648 2759 
Q 2391 3103 1925 3103 
Q 1463 3103 1205 2759 
Q 947 2416 947 1791 
Q 947 1169 1205 825 
Q 1463 481 1925 481 
Q 2391 481 2648 825 
Q 2906 1169 2906 1791 
z
M 3481 434 
Q 3481 -459 3084 -895 
Q 2688 -1331 1869 -1331 
Q 1566 -1331 1297 -1286 
Q 1028 -1241 775 -1147 
L 775 -588 
Q 1028 -725 1275 -790 
Q 1522 -856 1778 -856 
Q 2344 -856 2625 -561 
Q 2906 -266 2906 331 
L 2906 616 
Q 2728 306 2450 153 
Q 2172 0 1784 0 
Q 1141 0 747 490 
Q 353 981 353 1791 
Q 353 2603 747 3093 
Q 1141 3584 1784 3584 
Q 2172 3584 2450 3431 
Q 2728 3278 2906 2969 
L 2906 3500 
L 3481 3500 
L 3481 434 
z
" transform="scale(0.015625)"/>
           <path id="DejaVuSans-6f" d="M 1959 3097 
Q 1497 3097 1228 2736 
Q 959 2375 959 1747 
Q 959 1119 1226 758 
Q 1494 397 1959 397 
Q 2419 397 2687 759 
Q 2956 1122 2956 1747 
Q 2956 2369 2687 2733 
Q 2419 3097 1959 3097 
z
M 1959 3584 
Q 2709 3584 3137 3096 
Q 3566 2609 3566 1747 
Q 3566 888 3137 398 
Q 2709 -91 1959 -91 
Q 1206 -91 779 398 
Q 353 888 353 1747 
Q 353 2609 779 3096 
Q 1206 3584 1959 3584 
z
" transform="scale(0.015625)"/>
           <path id="DejaVuSans-28" d="M 1984 4856 
Q 1566 4138 1362 3434 
Q 1159 2731 1159 2009 
Q 1159 1288 1364 580 
Q 1569 -128 1984 -844 
L 1484 -844 
Q 1016 -109 783 600 
Q 550 1309 550 2009 
Q 550 2706 781 3412 
Q 1013 4119 1484 4856 
L 1984 4856 
z
" transform="scale(0.015625)"/>
           <path id="DejaVuSans-6e" d="M 3513 2113 
L 3513 0 
L 2938 0 
L 2938 2094 
Q 2938 2591 2744 2837 
Q 2550 3084 2163 3084 
Q 1697 3084 1428 2787 
Q 1159 2491 1159 1978 
L 1159 0 
L 581 0 
L 581 3500 
L 1159 3500 
L 1159 2956 
Q 1366 3272 1645 3428 
Q 1925 3584 2291 3584 
Q 2894 3584 3203 3211 
Q 3513 2838 3513 2113 
z
" transform="scale(0.015625)"/>
           <path id="DejaVuSans-72" d="M 2631 2963 
Q 2534 3019 2420 3045 
Q 2306 3072 2169 3072 
Q 1681 3072 1420 2755 
Q 1159 2438 1159 1844 
L 1159 0 
L 581 0 
L 581 3500 
L 1159 3500 
L 1159 2956 
Q 1341 3275 1631 3429 
Q 1922 3584 2338 3584 
Q 2397 3584 2469 3576 
Q 2541 3569 2628 3553 
L 2631 2963 
z
" transform="scale(0.015625)"/>
           <path id="DejaVuSans-73" d="M 2834 3397 
L 2834 2853 
Q 2591 2978 2328 3040 
Q 2066 3103 1784 3103 
Q 1356 3103 1142 2972 
Q 928 2841 928 2578 
Q 928 2378 1081 2264 
Q 1234 2150 1697 2047 
L 1894 2003 
Q 2506 1872 2764 1633 
Q 3022 1394 3022 966 
Q 3022 478 2636 193 
Q 2250 -91 1575 -91 
Q 1294 -91 989 -36 
Q 684 19 347 128 
L 347 722 
Q 666 556 975 473 
Q 1284 391 1588 391 
Q 1994 391 2212 530 
Q 2431 669 2431 922 
Q 2431 1156 2273 1281 
Q 2116 1406 1581 1522 
L 1381 1569 
Q 847 1681 609 1914 
Q 372 2147 372 2553 
Q 372 3047 722 3315 
Q 1072 3584 1716 3584 
Q 2034 3584 2315 3537 
Q 2597 3491 2834 3397 
z
" transform="scale(0.015625)"/>
           <path id="DejaVuSans-29" d="M 513 4856 
L 1013 4856 
Q 1481 4119 1714 3412 
Q 1947 2706 1947 2009 
Q 1947 1309 1714 600 
Q 1481 -109 1013 -844 
L 513 -844 
Q 928 -128 1133 580 
Q 1338 1288 1338 2009 
Q 1338 2731 1133 3434 
Q 928 4138 513 4856 
z
" transform="scale(0.015625)"/>
          </defs>
          <use xlink:href="#DejaVuSans-74"/>
          <use xlink:href="#DejaVuSans-69" x="39.208984"/>
          <use xlink:href="#DejaVuSans-6d" x="66.992188"/>
          <use xlink:href="#DejaVuSans-65" x="164.404297"/>
          <use xlink:href="#DejaVuSans-20" x="225.927734"/>
          <use xlink:href="#DejaVuSans-61" x="257.714844"/>
          <use xlink:href="#DejaVuSans-67" x="318.994141"/>
          <use xlink:href="#DejaVuSans-6f" x="382.470703"/>
          <use xlink:href="#DejaVuSans-20" x="443.652344"/>
          <use xlink:href="#DejaVuSans-28" x="475.439453"/>
          <use xlink:href="#DejaVuSans-67" x="514.453125"/>
          <use xlink:href="#DejaVuSans-65" x="577.929688"/>
          <use xlink:href="#DejaVuSans-6e" x="639.453125"/>
          <use xlink:href="#DejaVuSans-65" x="702.832031"/>
          <use xlink:href="#DejaVuSans-72" x="764.355469"/>
          <use xlink:href="#DejaVuSans-61" x="805.46875"/>
          <use xlink:href="#DejaVuSans-74" x="866.748047"/>
          <use xlink:href="#DejaVuSans-69" x="905.957031"/>
          <use xlink:href="#DejaVuSans-6f" x="933.740234"/>
          <use xlink:href="#DejaVuSans-6e" x="994.921875"/>
          <use xlink:href="#DejaVuSans-73" x="1058.300781"/>
          <use xlink:href="#DejaVuSans-29" x="1110.400391"/>
         </g>
        </g>
       </g>
       <g id="patch_7">
        <path d="M 327.054943 285.558219 
L 326.054943 285.526783 
L 325.054943 285.489842 
L 324.054943 285.392096 
L 323.054943 285.359574 
L 322.054943 285.285949 
L 321.054943 285.247384 
L 320.054943 285.211971 
L 319.054943 285.154331 
L 318.054943 285.083945 
L 317.054943 285.03198 
L 316.054943 284.972891 
L 315.054943 284.88457 
L 314.054943 284.838425 
L 313.054943 284.796014 
L 312.054943 284.765522 
L 311.054943 284.739477 
L 310.054943 284.718277 
L 309.054943 284.663976 
L 308.054943 284.636038 
L 307.054943 284.606314 
L 306.054943 284.580919 
L 305.054943 284.569719 
L 304.054943 284.559595 
L 303.054943 284.559799 
L 302.054943 284.569309 
L 301.054943 284.580963 
L 300.054943 284.611992 
L 299.054943 284.62316 
L 298.054943 284.653277 
L 297.054943 284.713054 
L 296.054943 284.750246 
L 295.054943 284.789342 
L 294.054943 284.831782 
L 293.054943 284.864547 
L 292.054943 284.931973 
L 291.054943 284.971099 
L 290.054943 285.013774 
L 289.054943 285.084354 
L 288.054943 285.120745 
L 287.054943 285.179148 
L 286.054943 285.290101 
L 285.054943 285.360759 
L 284.054943 285.473699 
L 283.054943 285.519472 
L 282.054943 285.580755 
L 281.054943 285.629254 
L 280.054943 285.710077 
L 279.054943 285.828596 
L 278.054943 285.898807 
L 277.054943 285.982069 
L 276.054943 286.015211 
L 275.054943 286.066448 
L 274.054943 286.134847 
L 273.054943 286.201062 
L 272.054943 286.277979 
L 271.054943 286.305295 
L 270.054943 286.331772 
L 269.054943 286.354423 
L 268.054943 286.373954 
L 267.054943 286.400348 
L 266.054943 286.450119 
L 265.054943 286.485192 
L 264.054943 286.521058 
L 263.054943 286.536425 
L 262.054943 286.552194 
L 261.054943 286.555607 
L 260.054943 286.558024 
L 259.054943 286.557538 
L 258.054943 286.555609 
L 257.054943 286.542352 
L 256.054943 286.533962 
L 255.054943 286.512425 
L 254.054943 286.489392 
L 253.054943 286.472159 
L 252.054943 286.453696 
L 251.054943 286.433244 
L 250.054943 286.416644 
L 249.054943 286.353865 
L 248.054943 286.2786 
L 247.054943 286.245961 
L 246.054943 286.178397 
L 245.054943 286.12435 
L 244.054943 286.090646 
L 243.054943 286.00052 
L 242.054943 285.971985 
L 241.054943 285.940499 
L 240.054943 285.909488 
L 239.054943 285.85468 
L 238.054943 285.790093 
L 237.054943 285.751897 
L 236.054943 285.655963 
L 235.054943 285.606705 
L 234.054943 285.562636 
L 233.054943 285.522512 
L 232.054943 285.414145 
L 231.054943 285.372517 
L 230.054943 285.310376 
L 229.054943 285.240413 
L 228.054943 285.135909 
L 227.054943 285.098921 
L 226.054943 285.053044 
L 225.054943 284.984549 
L 224.054943 284.935804 
L 223.054943 284.858206 
L 222.054943 284.827665 
L 221.054943 284.758151 
L 220.054943 284.734178 
L 219.054943 284.705556 
L 218.054943 284.663763 
L 217.054943 284.642187 
L 216.054943 284.628239 
L 215.054943 284.601517 
L 214.054943 284.592207 
L 213.054943 284.57976 
L 212.054943 284.568706 
L 211.054943 284.563041 
L 210.054943 284.558277 
L 209.054943 284.563825 
L 208.054943 284.577113 
L 207.054943 284.58463 
L 206.054943 284.609415 
L 205.054943 284.632984 
L 204.054943 284.669164 
L 203.054943 284.695126 
L 202.054943 284.717448 
L 201.054943 284.786208 
L 200.054943 284.860743 
L 199.054943 284.954722 
L 198.054943 285.005774 
L 197.054943 285.059708 
L 196.054943 285.094959 
L 195.054943 285.201047 
L 194.054943 285.253311 
L 193.054943 285.290218 
L 192.054943 285.321249 
L 191.054943 285.382404 
L 190.054943 285.449824 
L 189.054943 285.49873 
L 188.054943 285.563922 
L 187.054943 285.60211 
L 186.054943 285.644106 
L 185.054943 285.686123 
L 184.054943 285.74564 
L 183.054943 285.858799 
L 182.054943 285.91105 
L 181.054943 285.950468 
L 180.054943 285.997569 
L 179.054943 286.054349 
L 178.054943 286.087012 
L 177.054943 286.12319 
L 176.054943 286.15528 
L 175.054943 286.18956 
L 174.054943 286.247938 
L 173.054943 286.293123 
L 172.054943 286.322747 
L 171.054943 286.373133 
L 170.054943 286.39833 
L 169.054943 286.419381 
L 168.054943 286.454349 
L 167.054943 286.478639 
L 166.054943 286.492706 
L 165.054943 286.511648 
L 164.054943 286.52731 
L 162.376187 286.539861 
" clip-path="url(#pe2adcbd73e)" style="fill: none; stroke: #ffffff; stroke-width: 3; stroke-linecap: round"/>
        <path d="M 327.054943 285.558219 
L 326.054943 285.526783 
L 325.054943 285.489842 
L 324.054943 285.392096 
L 323.054943 285.359574 
L 322.054943 285.285949 
L 321.054943 285.247384 
L 320.054943 285.211971 
L 319.054943 285.154331 
L 318.054943 285.083945 
L 317.054943 285.03198 
L 316.054943 284.972891 
L 315.054943 284.88457 
L 314.054943 284.838425 
L 313.054943 284.796014 
L 312.054943 284.765522 
L 311.054943 284.739477 
L 310.054943 284.718277 
L 309.054943 284.663976 
L 308.054943 284.636038 
L 307.054943 284.606314 
L 306.054943 284.580919 
L 305.054943 284.569719 
L 304.054943 284.559595 
L 303.054943 284.559799 
L 302.054943 284.569309 
L 301.054943 284.580963 
L 300.054943 284.611992 
L 299.054943 284.62316 
L 298.054943 284.653277 
L 297.054943 284.713054 
L 296.054943 284.750246 
L 295.054943 284.789342 
L 294.054943 284.831782 
L 293.054943 284.864547 
L 292.054943 284.931973 
L 291.054943 284.971099 
L 290.054943 285.013774 
L 289.054943 285.084354 
L 288.054943 285.120745 
L 287.054943 285.179148 
L 286.054943 285.290101 
L 285.054943 285.360759 
L 284.054943 285.473699 
L 283.054943 285.519472 
L 282.054943 285.580755 
L 281.054943 285.629254 
L 280.054943 285.710077 
L 279.054943 285.828596 
L 278.054943 285.898807 
L 277.054943 285.982069 
L 276.054943 286.015211 
L 275.054943 286.066448 
L 274.054943 286.134847 
L 273.054943 286.201062 
L 272.054943 286.277979 
L 271.054943 286.305295 
L 270.054943 286.331772 
L 269.054943 286.354423 
L 268.054943 286.373954 
L 267.054943 286.400348 
L 266.054943 286.450119 
L 265.054943 286.485192 
L 264.054943 286.521058 
L 263.054943 286.536425 
L 262.054943 286.552194 
L 261.054943 286.555607 
L 260.054943 286.558024 
L 259.054943 286.557538 
L 258.054943 286.555609 
L 257.054943 286.542352 
L 256.054943 286.533962 
L 255.054943 286.512425 
L 254.054943 286.489392 
L 253.054943 286.472159 
L 252.054943 286.453696 
L 251.054943 286.433244 
L 250.054943 286.416644 
L 249.054943 286.353865 
L 248.054943 286.2786 
L 247.054943 286.245961 
L 246.054943 286.178397 
L 245.054943 286.12435 
L 244.054943 286.090646 
L 243.054943 286.00052 
L 242.054943 285.971985 
L 241.054943 285.940499 
L 240.054943 285.909488 
L 239.054943 285.85468 
L 238.054943 285.790093 
L 237.054943 285.751897 
L 236.054943 285.655963 
L 235.054943 285.606705 
L 234.054943 285.562636 
L 233.054943 285.522512 
L 232.054943 285.414145 
L 231.054943 285.372517 
L 230.054943 285.310376 
L 229.054943 285.240413 
L 228.054943 285.135909 
L 227.054943 285.098921 
L 226.054943 285.053044 
L 225.054943 284.984549 
L 224.054943 284.935804 
L 223.054943 284.858206 
L 222.054943 284.827665 
L 221.054943 284.758151 
L 220.054943 284.734178 
L 219.054943 284.705556 
L 218.054943 284.663763 
L 217.054943 284.642187 
L 216.054943 284.628239 
L 215.054943 284.601517 
L 214.054943 284.592207 
L 213.054943 284.57976 
L 212.054943 284.568706 
L 211.054943 284.563041 
L 210.054943 284.558277 
L 209.054943 284.563825 
L 208.054943 284.577113 
L 207.054943 284.58463 
L 206.054943 284.609415 
L 205.054943 284.632984 
L 204.054943 284.669164 
L 203.054943 284.695126 
L 202.054943 284.717448 
L 201.054943 284.786208 
L 200.054943 284.860743 
L 199.054943 284.954722 
L 198.054943 285.005774 
L 197.054943 285.059708 
L 196.054943 285.094959 
L 195.054943 285.201047 
L 194.054943 285.253311 
L 193.054943 285.290218 
L 192.054943 285.321249 
L 191.054943 285.382404 
L 190.054943 285.449824 
L 189.054943 285.49873 
L 188.054943 285.563922 
L 187.054943 285.60211 
L 186.054943 285.644106 
L 185.054943 285.686123 
L 184.054943 285.74564 
L 183.054943 285.858799 
L 182.054943 285.91105 
L 181.054943 285.950468 
L 180.054943 285.997569 
L 179.054943 286.054349 
L 178.054943 286.087012 
L 177.054943 286.12319 
L 176.054943 286.15528 
L 175.054943 286.18956 
L 174.054943 286.247938 
L 173.054943 286.293123 
L 172.054943 286.322747 
L 171.054943 286.373133 
L 170.054943 286.39833 
L 169.054943 286.419381 
L 168.054943 286.454349 
L 167.054943 286.478639 
L 166.054943 286.492706 
L 165.054943 286.511648 
L 164.054943 286.52731 
L 162.376187 286.539861 
" clip-path="url(#pe2adcbd73e)" style="fill: none; stroke: #1f77b4; stroke-linecap: round"/>
        <path d="M 166.376187 287.558219 
L 165.495819 287.082888 
L 164.617912 286.602634 
L 163.767198 286.067993 
L 162.465024 285.380546 
L 163.392377 285.354531 
L 164.304051 284.941811 
L 165.214315 284.526272 
L 166.556811 283.919468 
L 165.901912 284.558219 
L 165.849948 285.558219 
L 165.790858 287.558219 
z
" clip-path="url(#pe2adcbd73e)" style="fill: #ffffff; stroke: #ffffff; stroke-width: 3; stroke-linecap: round"/>
        <path d="M 166.376187 287.558219 
L 165.495819 287.082888 
L 164.617912 286.602634 
L 163.767198 286.067993 
L 162.465024 285.380546 
L 163.392377 285.354531 
L 164.304051 284.941811 
L 165.214315 284.526272 
L 166.556811 283.919468 
L 165.901912 284.558219 
L 165.849948 285.558219 
L 165.790858 287.558219 
z
" clip-path="url(#pe2adcbd73e)" style="fill: #ffffff; stroke: #1f77b4; stroke-linecap: round"/>
        <g id="patch_8">
         <path d="M 347.984727 72.964375 
L 348.984727 72.995811 
L 349.984727 73.032752 
L 350.984727 73.130498 
L 351.984727 73.16302 
L 352.984727 73.236645 
L 353.984727 73.27521 
L 354.984727 73.310623 
L 355.984727 73.368263 
L 356.984727 73.438649 
L 357.984727 73.490614 
L 358.984727 73.549703 
L 359.984727 73.638024 
L 360.984727 73.684169 
L 361.984727 73.72658 
L 362.984727 73.757072 
L 363.984727 73.783117 
L 364.984727 73.804317 
L 365.984727 73.858618 
L 366.984727 73.886556 
L 367.984727 73.91628 
L 368.984727 73.941675 
L 369.984727 73.952875 
L 370.984727 73.962999 
L 371.984727 73.962795 
L 372.984727 73.953285 
L 373.984727 73.941631 
L 374.984727 73.910602 
L 375.984727 73.899434 
L 376.984727 73.869317 
L 377.984727 73.80954 
L 378.984727 73.772348 
L 379.984727 73.733252 
L 380.984727 73.690812 
L 381.984727 73.658047 
L 382.984727 73.590621 
L 383.984727 73.551495 
L 384.984727 73.50882 
L 385.984727 73.43824 
L 386.984727 73.401849 
L 387.984727 73.343446 
L 388.984727 73.232493 
L 389.984727 73.161835 
L 390.984727 73.048895 
L 391.984727 73.003122 
L 392.984727 72.941839 
L 393.984727 72.89334 
L 394.984727 72.812517 
L 395.984727 72.693998 
L 396.984727 72.623787 
L 397.984727 72.540525 
L 398.984727 72.507383 
L 399.984727 72.456146 
L 400.984727 72.387747 
L 401.984727 72.321532 
L 402.984727 72.244615 
L 403.984727 72.217299 
L 404.984727 72.190822 
L 405.984727 72.168171 
L 406.984727 72.14864 
L 407.984727 72.122246 
L 408.984727 72.072475 
L 409.984727 72.037402 
L 410.984727 72.001536 
L 411.984727 71.986169 
L 412.984727 71.9704 
L 413.984727 71.966987 
L 414.984727 71.96457 
L 415.984727 71.965056 
L 416.984727 71.966985 
L 417.984727 71.980242 
L 418.984727 71.988633 
L 419.984727 72.010169 
L 420.984727 72.033202 
L 421.984727 72.050435 
L 422.984727 72.068898 
L 423.984727 72.08935 
L 424.984727 72.10595 
L 425.984727 72.168729 
L 426.984727 72.243994 
L 427.984727 72.276633 
L 428.984727 72.344197 
L 429.984727 72.398244 
L 430.984727 72.431948 
L 431.984727 72.522074 
L 432.984727 72.550609 
L 433.984727 72.582095 
L 434.984727 72.613106 
L 435.984727 72.667914 
L 436.984727 72.732501 
L 437.984727 72.770697 
L 438.984727 72.866631 
L 439.984727 72.915889 
L 440.984727 72.959958 
L 441.984727 73.000082 
L 442.984727 73.108449 
L 443.984727 73.150077 
L 444.984727 73.212219 
L 445.984727 73.282181 
L 446.984727 73.386685 
L 447.984727 73.423673 
L 448.984727 73.46955 
L 449.984727 73.538045 
L 450.984727 73.586791 
L 451.984727 73.664388 
L 452.984727 73.694929 
L 453.984727 73.764443 
L 454.984727 73.788416 
L 455.984727 73.817038 
L 456.984727 73.858831 
L 457.984727 73.880407 
L 458.984727 73.894355 
L 459.984727 73.921077 
L 460.984727 73.930387 
L 461.984727 73.942834 
L 462.984727 73.953889 
L 463.984727 73.959553 
L 464.984727 73.964317 
L 465.984727 73.958769 
L 466.984727 73.945481 
L 467.984727 73.937964 
L 468.984727 73.913179 
L 469.984727 73.88961 
L 470.984727 73.85343 
L 471.984727 73.827468 
L 472.984727 73.805146 
L 473.984727 73.736386 
L 474.984727 73.661851 
L 475.984727 73.567872 
L 476.984727 73.51682 
L 477.984727 73.462886 
L 478.984727 73.427635 
L 479.984727 73.321547 
L 480.984727 73.269283 
L 481.984727 73.232376 
L 482.984727 73.201345 
L 483.984727 73.14019 
L 484.984727 73.07277 
L 485.984727 73.023864 
L 486.984727 72.958672 
L 487.984727 72.920484 
L 488.984727 72.878488 
L 489.984727 72.836471 
L 490.984727 72.776955 
L 491.984727 72.663795 
L 492.984727 72.611544 
L 493.984727 72.572126 
L 494.984727 72.525025 
L 495.984727 72.468245 
L 496.984727 72.435582 
L 497.984727 72.399404 
L 498.984727 72.367314 
L 499.984727 72.333034 
L 500.984727 72.274656 
L 501.984727 72.229471 
L 502.984727 72.199847 
L 503.984727 72.149461 
L 504.984727 72.124264 
L 505.984727 72.103213 
L 506.984727 72.068245 
L 507.984727 72.043955 
L 508.984727 72.029888 
L 509.984727 72.010946 
L 510.984727 71.995285 
L 511.984727 71.982733 
L 512.984727 71.976897 
L 513.984727 71.970015 
L 514.984727 71.964841 
L 515.984727 71.966624 
L 516.984727 71.969349 
L 517.984727 71.980503 
L 518.984727 72.008738 
L 519.984727 72.052526 
L 520.984727 72.073215 
L 521.984727 72.114188 
L 522.984727 72.154263 
L 523.984727 72.173373 
L 524.984727 72.195882 
L 525.984727 72.262533 
L 526.984727 72.312243 
L 527.984727 72.385949 
L 528.984727 72.417263 
L 529.984727 72.493885 
L 530.984727 72.532183 
L 531.984727 72.6063 
L 532.984727 72.710358 
L 533.984727 72.780189 
L 534.984727 72.885423 
L 535.984727 72.940438 
L 536.984727 73.063913 
L 537.984727 73.134472 
L 538.984727 73.250311 
L 539.984727 73.300492 
L 540.984727 73.336096 
L 541.984727 73.427503 
L 542.984727 73.481011 
L 543.984727 73.568919 
L 544.984727 73.638104 
L 545.984727 73.684868 
L 546.984727 73.756912 
L 547.984727 73.807054 
L 548.984727 73.824444 
L 549.984727 73.851447 
L 550.984727 73.870874 
L 551.984727 73.890212 
L 552.984727 73.928461 
L 553.984727 73.944894 
L 554.984727 73.953263 
L 555.984727 73.957582 
L 556.984727 73.964137 
L 557.984727 73.961591 
L 558.984727 73.956132 
L 559.984727 73.939704 
L 560.984727 73.907769 
L 561.984727 73.869789 
L 562.984727 73.834985 
L 563.984727 73.771913 
L 564.984727 73.750486 
L 565.984727 73.699868 
L 566.984727 73.674911 
L 567.984727 73.619277 
L 568.984727 73.588048 
L 569.984727 73.537904 
L 571.749523 73.505411 
" clip-path="url(#pe2adcbd73e)" style="fill: none; stroke: #ffffff; stroke-width: 3; stroke-linecap: round"/>
         <path d="M 347.984727 72.964375 
L 348.984727 72.995811 
L 349.984727 73.032752 
L 350.984727 73.130498 
L 351.984727 73.16302 
L 352.984727 73.236645 
L 353.984727 73.27521 
L 354.984727 73.310623 
L 355.984727 73.368263 
L 356.984727 73.438649 
L 357.984727 73.490614 
L 358.984727 73.549703 
L 359.984727 73.638024 
L 360.984727 73.684169 
L 361.984727 73.72658 
L 362.984727 73.757072 
L 363.984727 73.783117 
L 364.984727 73.804317 
L 365.984727 73.858618 
L 366.984727 73.886556 
L 367.984727 73.91628 
L 368.984727 73.941675 
L 369.984727 73.952875 
L 370.984727 73.962999 
L 371.984727 73.962795 
L 372.984727 73.953285 
L 373.984727 73.941631 
L 374.984727 73.910602 
L 375.984727 73.899434 
L 376.984727 73.869317 
L 377.984727 73.80954 
L 378.984727 73.772348 
L 379.984727 73.733252 
L 380.984727 73.690812 
L 381.984727 73.658047 
L 382.984727 73.590621 
L 383.984727 73.551495 
L 384.984727 73.50882 
L 385.984727 73.43824 
L 386.984727 73.401849 
L 387.984727 73.343446 
L 388.984727 73.232493 
L 389.984727 73.161835 
L 390.984727 73.048895 
L 391.984727 73.003122 
L 392.984727 72.941839 
L 393.984727 72.89334 
L 394.984727 72.812517 
L 395.984727 72.693998 
L 396.984727 72.623787 
L 397.984727 72.540525 
L 398.984727 72.507383 
L 399.984727 72.456146 
L 400.984727 72.387747 
L 401.984727 72.321532 
L 402.984727 72.244615 
L 403.984727 72.217299 
L 404.984727 72.190822 
L 405.984727 72.168171 
L 406.984727 72.14864 
L 407.984727 72.122246 
L 408.984727 72.072475 
L 409.984727 72.037402 
L 410.984727 72.001536 
L 411.984727 71.986169 
L 412.984727 71.9704 
L 413.984727 71.966987 
L 414.984727 71.96457 
L 415.984727 71.965056 
L 416.984727 71.966985 
L 417.984727 71.980242 
L 418.984727 71.988633 
L 419.984727 72.010169 
L 420.984727 72.033202 
L 421.984727 72.050435 
L 422.984727 72.068898 
L 423.984727 72.08935 
L 424.984727 72.10595 
L 425.984727 72.168729 
L 426.984727 72.243994 
L 427.984727 72.276633 
L 428.984727 72.344197 
L 429.984727 72.398244 
L 430.984727 72.431948 
L 431.984727 72.522074 
L 432.984727 72.550609 
L 433.984727 72.582095 
L 434.984727 72.613106 
L 435.984727 72.667914 
L 436.984727 72.732501 
L 437.984727 72.770697 
L 438.984727 72.866631 
L 439.984727 72.915889 
L 440.984727 72.959958 
L 441.984727 73.000082 
L 442.984727 73.108449 
L 443.984727 73.150077 
L 444.984727 73.212219 
L 445.984727 73.282181 
L 446.984727 73.386685 
L 447.984727 73.423673 
L 448.984727 73.46955 
L 449.984727 73.538045 
L 450.984727 73.586791 
L 451.984727 73.664388 
L 452.984727 73.694929 
L 453.984727 73.764443 
L 454.984727 73.788416 
L 455.984727 73.817038 
L 456.984727 73.858831 
L 457.984727 73.880407 
L 458.984727 73.894355 
L 459.984727 73.921077 
L 460.984727 73.930387 
L 461.984727 73.942834 
L 462.984727 73.953889 
L 463.984727 73.959553 
L 464.984727 73.964317 
L 465.984727 73.958769 
L 466.984727 73.945481 
L 467.984727 73.937964 
L 468.984727 73.913179 
L 469.984727 73.88961 
L 470.984727 73.85343 
L 471.984727 73.827468 
L 472.984727 73.805146 
L 473.984727 73.736386 
L 474.984727 73.661851 
L 475.984727 73.567872 
L 476.984727 73.51682 
L 477.984727 73.462886 
L 478.984727 73.427635 
L 479.984727 73.321547 
L 480.984727 73.269283 
L 481.984727 73.232376 
L 482.984727 73.201345 
L 483.984727 73.14019 
L 484.984727 73.07277 
L 485.984727 73.023864 
L 486.984727 72.958672 
L 487.984727 72.920484 
L 488.984727 72.878488 
L 489.984727 72.836471 
L 490.984727 72.776955 
L 491.984727 72.663795 
L 492.984727 72.611544 
L 493.984727 72.572126 
L 494.984727 72.525025 
L 495.984727 72.468245 
L 496.984727 72.435582 
L 497.984727 72.399404 
L 498.984727 72.367314 
L 499.984727 72.333034 
L 500.984727 72.274656 
L 501.984727 72.229471 
L 502.984727 72.199847 
L 503.984727 72.149461 
L 504.984727 72.124264 
L 505.984727 72.103213 
L 506.984727 72.068245 
L 507.984727 72.043955 
L 508.984727 72.029888 
L 509.984727 72.010946 
L 510.984727 71.995285 
L 511.984727 71.982733 
L 512.984727 71.976897 
L 513.984727 71.970015 
L 514.984727 71.964841 
L 515.984727 71.966624 
L 516.984727 71.969349 
L 517.984727 71.980503 
L 518.984727 72.008738 
L 519.984727 72.052526 
L 520.984727 72.073215 
L 521.984727 72.114188 
L 522.984727 72.154263 
L 523.984727 72.173373 
L 524.984727 72.195882 
L 525.984727 72.262533 
L 526.984727 72.312243 
L 527.984727 72.385949 
L 528.984727 72.417263 
L 529.984727 72.493885 
L 530.984727 72.532183 
L 531.984727 72.6063 
L 532.984727 72.710358 
L 533.984727 72.780189 
L 534.984727 72.885423 
L 535.984727 72.940438 
L 536.984727 73.063913 
L 537.984727 73.134472 
L 538.984727 73.250311 
L 539.984727 73.300492 
L 540.984727 73.336096 
L 541.984727 73.427503 
L 542.984727 73.481011 
L 543.984727 73.568919 
L 544.984727 73.638104 
L 545.984727 73.684868 
L 546.984727 73.756912 
L 547.984727 73.807054 
L 548.984727 73.824444 
L 549.984727 73.851447 
L 550.984727 73.870874 
L 551.984727 73.890212 
L 552.984727 73.928461 
L 553.984727 73.944894 
L 554.984727 73.953263 
L 555.984727 73.957582 
L 556.984727 73.964137 
L 557.984727 73.961591 
L 558.984727 73.956132 
L 559.984727 73.939704 
L 560.984727 73.907769 
L 561.984727 73.869789 
L 562.984727 73.834985 
L 563.984727 73.771913 
L 564.984727 73.750486 
L 565.984727 73.699868 
L 566.984727 73.674911 
L 567.984727 73.619277 
L 568.984727 73.588048 
L 569.984727 73.537904 
L 571.749523 73.505411 
" clip-path="url(#pe2adcbd73e)" style="fill: none; stroke: #1f77b4; stroke-linecap: round"/>
         <path d="M 567.749523 70.964375 
L 568.629892 71.439706 
L 569.507799 71.91996 
L 570.358512 72.454601 
L 571.660687 73.142048 
L 570.733334 73.168063 
L 569.821659 73.580783 
L 568.911395 73.996322 
L 567.568899 74.603126 
L 568.223798 73.964375 
L 568.275762 72.964375 
L 568.334852 70.964375 
z
" clip-path="url(#pe2adcbd73e)" style="fill: #ffffff; stroke: #ffffff; stroke-width: 3; stroke-linecap: round"/>
         <path d="M 567.749523 70.964375 
L 568.629892 71.439706 
L 569.507799 71.91996 
L 570.358512 72.454601 
L 571.660687 73.142048 
L 570.733334 73.168063 
L 569.821659 73.580783 
L 568.911395 73.996322 
L 567.568899 74.603126 
L 568.223798 73.964375 
L 568.275762 72.964375 
L 568.334852 70.964375 
z
" clip-path="url(#pe2adcbd73e)" style="fill: #ffffff; stroke: #1f77b4; stroke-linecap: round"/>
         <g id="patch_9">
          <path d="M 347.985203 285.558219 
L 348.985203 285.589655 
L 349.985203 285.626596 
L 350.985203 285.724342 
L 351.985203 285.756864 
L 352.985203 285.830489 
L 353.985203 285.869054 
L 354.985203 285.904467 
L 355.985203 285.962107 
L 356.985203 286.032494 
L 357.985203 286.084458 
L 358.985203 286.143548 
L 359.985203 286.231868 
L 360.985203 286.278013 
L 361.985203 286.320424 
L 362.985203 286.350916 
L 363.985203 286.376961 
L 364.985203 286.398161 
L 365.985203 286.452463 
L 366.985203 286.4804 
L 367.985203 286.510124 
L 368.985203 286.535519 
L 369.985203 286.546719 
L 370.985203 286.556843 
L 371.985203 286.556639 
L 372.985203 286.547129 
L 373.985203 286.535475 
L 374.985203 286.504446 
L 375.985203 286.493278 
L 376.985203 286.463161 
L 377.985203 286.403384 
L 378.985203 286.366192 
L 379.985203 286.327096 
L 380.985203 286.284657 
L 381.985203 286.251891 
L 382.985203 286.184465 
L 383.985203 286.145339 
L 384.985203 286.102665 
L 385.985203 286.032084 
L 386.985203 285.995693 
L 387.985203 285.93729 
L 388.985203 285.826337 
L 389.985203 285.755679 
L 390.985203 285.642739 
L 391.985203 285.596966 
L 392.985203 285.535683 
L 393.985203 285.487184 
L 394.985203 285.406361 
L 395.985203 285.287842 
L 396.985203 285.217631 
L 397.985203 285.134369 
L 398.985203 285.101227 
L 399.985203 285.04999 
L 400.985203 284.981592 
L 401.985203 284.915376 
L 402.985203 284.838459 
L 403.985203 284.811144 
L 404.985203 284.784666 
L 405.985203 284.762015 
L 406.985203 284.742484 
L 407.985203 284.71609 
L 408.985203 284.666319 
L 409.985203 284.631246 
L 410.985203 284.595381 
L 411.985203 284.580013 
L 412.985203 284.564244 
L 413.985203 284.560831 
L 414.985203 284.558414 
L 415.985203 284.5589 
L 416.985203 284.560829 
L 417.985203 284.574086 
L 418.985203 284.582477 
L 419.985203 284.604013 
L 420.985203 284.627046 
L 421.985203 284.644279 
L 422.985203 284.662742 
L 423.985203 284.683194 
L 424.985203 284.699794 
L 425.985203 284.762573 
L 426.985203 284.837838 
L 427.985203 284.870477 
L 428.985203 284.938041 
L 429.985203 284.992088 
L 430.985203 285.025792 
L 431.985203 285.115918 
L 432.985203 285.144453 
L 433.985203 285.175939 
L 434.985203 285.20695 
L 435.985203 285.261758 
L 436.985203 285.326345 
L 437.985203 285.364541 
L 438.985203 285.460475 
L 439.985203 285.509733 
L 440.985203 285.553802 
L 441.985203 285.593926 
L 442.985203 285.702293 
L 443.985203 285.743921 
L 444.985203 285.806063 
L 445.985203 285.876025 
L 446.985203 285.980529 
L 447.985203 286.017517 
L 448.985203 286.063394 
L 449.985203 286.131889 
L 450.985203 286.180635 
L 451.985203 286.258232 
L 453.102758 286.288773 
" clip-path="url(#pe2adcbd73e)" style="fill: none; stroke: #ffffff; stroke-width: 3; stroke-linecap: round"/>
          <path d="M 347.985203 285.558219 
L 348.985203 285.589655 
L 349.985203 285.626596 
L 350.985203 285.724342 
L 351.985203 285.756864 
L 352.985203 285.830489 
L 353.985203 285.869054 
L 354.985203 285.904467 
L 355.985203 285.962107 
L 356.985203 286.032494 
L 357.985203 286.084458 
L 358.985203 286.143548 
L 359.985203 286.231868 
L 360.985203 286.278013 
L 361.985203 286.320424 
L 362.985203 286.350916 
L 363.985203 286.376961 
L 364.985203 286.398161 
L 365.985203 286.452463 
L 366.985203 286.4804 
L 367.985203 286.510124 
L 368.985203 286.535519 
L 369.985203 286.546719 
L 370.985203 286.556843 
L 371.985203 286.556639 
L 372.985203 286.547129 
L 373.985203 286.535475 
L 374.985203 286.504446 
L 375.985203 286.493278 
L 376.985203 286.463161 
L 377.985203 286.403384 
L 378.985203 286.366192 
L 379.985203 286.327096 
L 380.985203 286.284657 
L 381.985203 286.251891 
L 382.985203 286.184465 
L 383.985203 286.145339 
L 384.985203 286.102665 
L 385.985203 286.032084 
L 386.985203 285.995693 
L 387.985203 285.93729 
L 388.985203 285.826337 
L 389.985203 285.755679 
L 390.985203 285.642739 
L 391.985203 285.596966 
L 392.985203 285.535683 
L 393.985203 285.487184 
L 394.985203 285.406361 
L 395.985203 285.287842 
L 396.985203 285.217631 
L 397.985203 285.134369 
L 398.985203 285.101227 
L 399.985203 285.04999 
L 400.985203 284.981592 
L 401.985203 284.915376 
L 402.985203 284.838459 
L 403.985203 284.811144 
L 404.985203 284.784666 
L 405.985203 284.762015 
L 406.985203 284.742484 
L 407.985203 284.71609 
L 408.985203 284.666319 
L 409.985203 284.631246 
L 410.985203 284.595381 
L 411.985203 284.580013 
L 412.985203 284.564244 
L 413.985203 284.560831 
L 414.985203 284.558414 
L 415.985203 284.5589 
L 416.985203 284.560829 
L 417.985203 284.574086 
L 418.985203 284.582477 
L 419.985203 284.604013 
L 420.985203 284.627046 
L 421.985203 284.644279 
L 422.985203 284.662742 
L 423.985203 284.683194 
L 424.985203 284.699794 
L 425.985203 284.762573 
L 426.985203 284.837838 
L 427.985203 284.870477 
L 428.985203 284.938041 
L 429.985203 284.992088 
L 430.985203 285.025792 
L 431.985203 285.115918 
L 432.985203 285.144453 
L 433.985203 285.175939 
L 434.985203 285.20695 
L 435.985203 285.261758 
L 436.985203 285.326345 
L 437.985203 285.364541 
L 438.985203 285.460475 
L 439.985203 285.509733 
L 440.985203 285.553802 
L 441.985203 285.593926 
L 442.985203 285.702293 
L 443.985203 285.743921 
L 444.985203 285.806063 
L 445.985203 285.876025 
L 446.985203 285.980529 
L 447.985203 286.017517 
L 448.985203 286.063394 
L 449.985203 286.131889 
L 450.985203 286.180635 
L 451.985203 286.258232 
L 453.102758 286.288773 
" clip-path="url(#pe2adcbd73e)" style="fill: none; stroke: #1f77b4; stroke-linecap: round"/>
          <path d="M 449.102758 283.558219 
L 449.983126 284.03355 
L 450.861033 284.513804 
L 451.711747 285.048445 
L 453.013921 285.735892 
L 452.086568 285.761907 
L 451.174894 286.174627 
L 450.264629 286.590166 
L 448.922134 287.19697 
L 449.577032 286.558219 
L 449.628996 285.558219 
L 449.688086 283.558219 
z
" clip-path="url(#pe2adcbd73e)" style="fill: #ffffff; stroke: #ffffff; stroke-width: 3; stroke-linecap: round"/>
          <path d="M 449.102758 283.558219 
L 449.983126 284.03355 
L 450.861033 284.513804 
L 451.711747 285.048445 
L 453.013921 285.735892 
L 452.086568 285.761907 
L 451.174894 286.174627 
L 450.264629 286.590166 
L 448.922134 287.19697 
L 449.577032 286.558219 
L 449.628996 285.558219 
L 449.688086 283.558219 
z
" clip-path="url(#pe2adcbd73e)" style="fill: #ffffff; stroke: #1f77b4; stroke-linecap: round"/>
          <path d="M 463.654768 305.420105 
" clip-path="url(#pe2adcbd73e)" style="fill: none; stroke-dasharray: 3.7,1.6; stroke-dashoffset: 0; stroke: #2ca02c"/>
          <path d="M 462.654768 305.420105 
L 464.654768 306.420105 
L 464.654768 304.420105 
z
" clip-path="url(#pe2adcbd73e)" style="fill: #2ca02c; stroke: #2ca02c; stroke-linejoin: miter"/>
          <g id="patch_10">
           <path d="M 63.290625 321.621875 
L 63.290625 10.8 
" style="fill: none; stroke: #000000; stroke-width: 0.8; stroke-linejoin: miter; stroke-linecap: square"/>
          </g>
          <g id="text_10">
           <g id="patch_11">
            <path d="M 326.865676 155.018172 
L 348.170363 155.018172 
Q 350.170363 155.018172 350.170363 153.018172 
L 350.170363 143.340047 
Q 350.170363 141.340047 348.170363 141.340047 
L 326.865676 141.340047 
Q 324.865676 141.340047 324.865676 143.340047 
L 324.865676 153.018172 
Q 324.865676 155.018172 326.865676 155.018172 
z
" style="fill: #ffffff; opacity: 0.6"/>
           </g>
           <!-- ANC -->
           <g transform="translate(326.865676 150.938485) scale(0.1 -0.1)">
            <defs>
             <path id="DejaVuSans-4e" d="M 628 4666 
L 1478 4666 
L 3547 763 
L 3547 4666 
L 4159 4666 
L 4159 0 
L 3309 0 
L 1241 3903 
L 1241 0 
L 628 0 
L 628 4666 
z
" transform="scale(0.015625)"/>
            </defs>
            <use xlink:href="#DejaVuSans-41"/>
            <use xlink:href="#DejaVuSans-4e" x="68.408203"/>
            <use xlink:href="#DejaVuSans-43" x="143.212891"/>
           </g>
          </g>
         </g>
        </g>
        <defs>
         <clipPath id="pe2adcbd73e">
          <rect x="63.290625" y="10.8" width="540.309375" height="310.821875"/>
         </clipPath>
        </defs>
       </g>
      </g>
     </g>
    </g>
   </g>
  </g>
 </g>
</svg>
