<?xml version="1.0" encoding="utf-8" standalone="no"?>
<!DOCTYPE svg PUBLIC "-//W3C//DTD SVG 1.1//EN"
  "http://www.w3.org/Graphics/SVG/1.1/DTD/svg11.dtd">
<svg xmlns:xlink="http://www.w3.org/1999/xlink" width="614.4pt" height="345.6pt" viewBox="0 0 614.4 345.6" xmlns="http://www.w3.org/2000/svg" version="1.1">
 <metadata>
  <rdf:RDF xmlns:dc="http://purl.org/dc/elements/1.1/" xmlns:cc="http://creativecommons.org/ns#" xmlns:rdf="http://www.w3.org/1999/02/22-rdf-syntax-ns#">
   <cc:Work>
    <dc:type rdf:resource="http://purl.org/dc/dcmitype/StillImage"/>
    <dc:date>2024-04-17T19:40:24.334850</dc:date>
    <dc:format>image/svg+xml</dc:format>
    <dc:creator>
     <cc:Agent>
      <dc:title>Matplotlib v3.7.1, https://matplotlib.org/</dc:title>
     </cc:Agent>
    </dc:creator>
   </cc:Work>
  </rdf:RDF>
 </metadata>
 <defs>
  <style type="text/css">*{stroke-linejoin: round; stroke-linecap: butt}</style>
 </defs>
 <g id="figure_1">
  <g id="patch_1">
   <path d="M 0 345.6 
L 614.4 345.6 
L 614.4 0 
L 0 0 
z
" style="fill: #ffffff"/>
  </g>
  <g id="axes_1">
   <g id="patch_2">
    <path d="M 63.290625 321.621875 
L 603.6 321.621875 
L 603.6 10.8 
L 63.290625 10.8 
z
" style="fill: #ffffff"/>
   </g>
   <path d="M 571.6194 303.612285 
L 570.6194 303.580849 
L 569.6194 303.543909 
L 568.6194 303.446162 
L 567.6194 303.41364 
L 566.6194 303.340016 
L 565.6194 303.30145 
L 564.6194 303.266037 
L 563.6194 303.208397 
L 562.6194 303.138011 
L 561.6194 303.086047 
L 560.6194 303.026957 
L 559.6194 302.938636 
L 558.6194 302.892492 
L 557.6194 302.850081 
L 556.6194 302.819588 
L 555.6194 302.793543 
L 554.6194 302.772343 
L 553.6194 302.718042 
L 552.6194 302.690104 
L 551.6194 302.66038 
L 550.6194 302.634986 
L 549.6194 302.623785 
L 548.6194 302.613661 
L 547.6194 302.613866 
L 546.6194 302.623375 
L 545.6194 302.635029 
L 544.6194 302.666058 
L 543.6194 302.677226 
L 542.6194 302.707344 
L 541.6194 302.767121 
L 540.6194 302.804312 
L 539.6194 302.843408 
L 538.6194 302.885848 
L 537.6194 302.918613 
L 536.6194 302.98604 
L 535.6194 303.025165 
L 534.6194 303.06784 
L 533.6194 303.138421 
L 532.6194 303.174811 
L 531.6194 303.233215 
L 530.6194 303.344167 
L 529.6194 303.414825 
L 528.6194 303.527765 
L 527.6194 303.573538 
L 526.6194 303.634821 
L 525.6194 303.683321 
L 524.6194 303.764143 
L 523.6194 303.882662 
L 522.6194 303.952873 
L 521.6194 304.036135 
L 520.6194 304.069277 
L 519.6194 304.120515 
L 518.6194 304.188913 
L 517.6194 304.255128 
L 516.6194 304.332045 
L 515.6194 304.359361 
L 514.6194 304.385838 
L 513.6194 304.408489 
L 512.6194 304.42802 
L 511.6194 304.454414 
L 510.6194 304.504185 
L 509.6194 304.539258 
L 508.6194 304.575124 
L 507.6194 304.590491 
L 506.6194 304.60626 
L 505.6194 304.609673 
L 504.6194 304.612091 
L 503.6194 304.611605 
L 502.6194 304.609675 
L 501.6194 304.596418 
L 500.6194 304.588028 
L 499.6194 304.566491 
L 498.6194 304.543459 
L 497.6194 304.526225 
L 496.6194 304.507763 
L 495.6194 304.48731 
L 494.6194 304.47071 
L 493.6194 304.407932 
L 492.6194 304.332666 
L 491.6194 304.300027 
L 490.6194 304.232464 
L 489.6194 304.178417 
L 488.6194 304.144712 
L 487.6194 304.054586 
L 486.6194 304.026051 
L 485.6194 303.994565 
L 484.6194 303.963554 
L 483.6194 303.908746 
L 482.6194 303.844159 
L 481.6194 303.805964 
L 480.6194 303.71003 
L 479.6194 303.660771 
L 478.6194 303.616702 
L 477.6194 303.576578 
L 476.6194 303.468211 
L 475.6194 303.426583 
L 474.6194 303.364442 
L 473.6194 303.294479 
L 472.6194 303.189975 
L 471.6194 303.152988 
L 470.6194 303.10711 
L 469.6194 303.038616 
L 468.6194 302.98987 
L 467.6194 302.912272 
L 466.6194 302.881732 
L 465.6194 302.812217 
L 464.188093 302.788244 
" clip-path="url(#pf34a4639fb)" style="fill: none; stroke-dasharray: 3.7,1.6; stroke-dashoffset: 0; stroke: #2ca02c"/>
   <g id="patch_3">
    <path d="M 335.345282 10.8 
L 335.345282 200.822031 
M 341.39494 10.8 
L 341.39494 200.822031 
" clip-path="url(#pf34a4639fb)" style="fill: none; stroke: #ffffff; stroke-width: 3; stroke-linejoin: miter"/>
    <path d="M 335.345282 10.8 
L 335.345282 200.822031 
M 341.39494 10.8 
L 341.39494 200.822031 
" clip-path="url(#pf34a4639fb)" style="fill: none; stroke: #1f77b4; stroke-linejoin: miter"/>
    <g id="PolyCollection_1">
     <path d="M 341.39494 10.8 
L 335.345282 10.8 
L 335.345282 200.822031 
L 341.39494 200.822031 
L 341.39494 200.822031 
L 341.39494 10.8 
z
" clip-path="url(#pf34a4639fb)" style="fill: #1f77b4; fill-opacity: 0.5"/>
    </g>
    <g id="patch_4">
     <path d="M 156.563437 200.822031 
L 156.488496 304.516944 
L 155.678701 306.087805 
L 154.704389 307.484126 
L 153.590827 308.705907 
L 152.160909 309.927687 
L 150.615995 310.974928 
L 148.701794 312.022169 
L 146.330034 313.069409 
L 143.391345 314.11665 
L 139.750209 315.163891 
L 135.23872 316.211132 
L 129.648833 317.258372 
L 122.722775 318.305613 
L 114.141156 319.352854 
L 103.508241 320.400094 
L 90.333703 321.447335 
L 87.850142 321.621875 
M 160.684718 200.822031 
L 160.759659 304.516944 
L 161.569453 306.087805 
L 162.543766 307.484126 
L 163.657327 308.705907 
L 165.087245 309.927687 
L 166.63216 310.974928 
L 168.546361 312.022169 
L 170.91812 313.069409 
L 173.85681 314.11665 
L 177.497945 315.163891 
L 182.009435 316.211132 
L 187.599322 317.258372 
L 194.52538 318.305613 
L 203.106999 319.352854 
L 213.739913 320.400094 
L 226.914452 321.447335 
L 229.398013 321.621875 
L 229.398013 321.621875 
" clip-path="url(#pf34a4639fb)" style="fill: none; stroke: #ffffff; stroke-width: 3; stroke-linejoin: miter"/>
     <path d="M 156.563437 200.822031 
L 156.488496 304.516944 
L 155.678701 306.087805 
L 154.704389 307.484126 
L 153.590827 308.705907 
L 152.160909 309.927687 
L 150.615995 310.974928 
L 148.701794 312.022169 
L 146.330034 313.069409 
L 143.391345 314.11665 
L 139.750209 315.163891 
L 135.23872 316.211132 
L 129.648833 317.258372 
L 122.722775 318.305613 
L 114.141156 319.352854 
L 103.508241 320.400094 
L 90.333703 321.447335 
L 87.850142 321.621875 
M 160.684718 200.822031 
L 160.759659 304.516944 
L 161.569453 306.087805 
L 162.543766 307.484126 
L 163.657327 308.705907 
L 165.087245 309.927687 
L 166.63216 310.974928 
L 168.546361 312.022169 
L 170.91812 313.069409 
L 173.85681 314.11665 
L 177.497945 315.163891 
L 182.009435 316.211132 
L 187.599322 317.258372 
L 194.52538 318.305613 
L 203.106999 319.352854 
L 213.739913 320.400094 
L 226.914452 321.447335 
L 229.398013 321.621875 
L 229.398013 321.621875 
" clip-path="url(#pf34a4639fb)" style="fill: none; stroke: #ff7f0e; stroke-linejoin: miter"/>
     <g id="PolyCollection_2">
      <path d="M 160.684718 200.822031 
L 156.563437 200.822031 
L 156.563437 304.342404 
L 156.563437 304.342404 
L 156.488496 304.516944 
L 156.41083 304.691484 
L 156.330339 304.866024 
L 156.246921 305.040564 
L 156.16047 305.215104 
L 156.070874 305.389645 
L 155.97802 305.564185 
L 155.881789 305.738725 
L 155.782059 305.913265 
L 155.678701 306.087805 
L 155.571585 306.262345 
L 155.460573 306.436885 
L 155.345524 306.611425 
L 155.22629 306.785965 
L 155.102721 306.960506 
L 154.974657 307.135046 
L 154.841937 307.309586 
L 154.704389 307.484126 
L 154.561839 307.658666 
L 154.414105 307.833206 
L 154.260998 308.007746 
L 154.102323 308.182286 
L 153.937878 308.356826 
L 153.767452 308.531367 
L 153.590827 308.705907 
L 153.40778 308.880447 
L 153.218076 309.054987 
L 153.021472 309.229527 
L 152.817718 309.404067 
L 152.606555 309.578607 
L 152.387711 309.753147 
L 152.160909 309.927687 
L 151.925859 310.102228 
L 151.682261 310.276768 
L 151.429803 310.451308 
L 151.168164 310.625848 
L 150.89701 310.800388 
L 150.615995 310.974928 
L 150.32476 311.149468 
L 150.022933 311.324008 
L 149.71013 311.498548 
L 149.38595 311.673089 
L 149.049981 311.847629 
L 148.701794 312.022169 
L 148.340944 312.196709 
L 147.96697 312.371249 
L 147.579396 312.545789 
L 147.177727 312.720329 
L 146.76145 312.894869 
L 146.330034 313.069409 
L 145.882929 313.24395 
L 145.419563 313.41849 
L 144.939346 313.59303 
L 144.441665 313.76757 
L 143.925884 313.94211 
L 143.391345 314.11665 
L 142.837366 314.29119 
L 142.26324 314.46573 
L 141.668235 314.640271 
L 141.051591 314.814811 
L 140.412521 314.989351 
L 139.750209 315.163891 
L 139.063811 315.338431 
L 138.35245 315.512971 
L 137.615218 315.687511 
L 136.851176 315.862051 
L 136.059346 316.036591 
L 135.23872 316.211132 
L 134.388249 316.385672 
L 133.506849 316.560212 
L 132.593395 316.734752 
L 131.64672 316.909292 
L 130.665616 317.083832 
L 129.648833 317.258372 
L 128.595071 317.432912 
L 127.502987 317.607452 
L 126.371186 317.781993 
L 125.198224 317.956533 
L 123.982604 318.131073 
L 122.722775 318.305613 
L 121.417129 318.480153 
L 120.063999 318.654693 
L 118.66166 318.829233 
L 117.20832 319.003773 
L 115.702127 319.178313 
L 114.141156 319.352854 
L 112.523416 319.527394 
L 110.846844 319.701934 
L 109.109298 319.876474 
L 107.308561 320.051014 
L 105.442337 320.225554 
L 103.508241 320.400094 
L 101.503808 320.574634 
L 99.426478 320.749174 
L 97.2736 320.923715 
L 95.042427 321.098255 
L 92.730112 321.272795 
L 90.333703 321.447335 
L 87.850142 321.621875 
L 229.398013 321.621875 
L 229.398013 321.621875 
L 226.914452 321.447335 
L 224.518043 321.272795 
L 222.205728 321.098255 
L 219.974555 320.923715 
L 217.821677 320.749174 
L 215.744347 320.574634 
L 213.739913 320.400094 
L 211.805818 320.225554 
L 209.939593 320.051014 
L 208.138857 319.876474 
L 206.401311 319.701934 
L 204.724738 319.527394 
L 203.106999 319.352854 
L 201.546028 319.178313 
L 200.039834 319.003773 
L 198.586495 318.829233 
L 197.184155 318.654693 
L 195.831026 318.480153 
L 194.52538 318.305613 
L 193.265551 318.131073 
L 192.049931 317.956533 
L 190.876969 317.781993 
L 189.745168 317.607452 
L 188.653083 317.432912 
L 187.599322 317.258372 
L 186.582538 317.083832 
L 185.601435 316.909292 
L 184.65476 316.734752 
L 183.741305 316.560212 
L 182.859905 316.385672 
L 182.009435 316.211132 
L 181.188808 316.036591 
L 180.396979 315.862051 
L 179.632936 315.687511 
L 178.895705 315.512971 
L 178.184344 315.338431 
L 177.497945 315.163891 
L 176.835634 314.989351 
L 176.196564 314.814811 
L 175.57992 314.640271 
L 174.984914 314.46573 
L 174.410789 314.29119 
L 173.85681 314.11665 
L 173.322271 313.94211 
L 172.80649 313.76757 
L 172.308808 313.59303 
L 171.828591 313.41849 
L 171.365226 313.24395 
L 170.91812 313.069409 
L 170.486704 312.894869 
L 170.070427 312.720329 
L 169.668758 312.545789 
L 169.281184 312.371249 
L 168.907211 312.196709 
L 168.546361 312.022169 
L 168.198173 311.847629 
L 167.862204 311.673089 
L 167.538025 311.498548 
L 167.225221 311.324008 
L 166.923395 311.149468 
L 166.63216 310.974928 
L 166.351144 310.800388 
L 166.07999 310.625848 
L 165.818351 310.451308 
L 165.565894 310.276768 
L 165.322295 310.102228 
L 165.087245 309.927687 
L 164.860443 309.753147 
L 164.6416 309.578607 
L 164.430436 309.404067 
L 164.226683 309.229527 
L 164.030079 309.054987 
L 163.840375 308.880447 
L 163.657327 308.705907 
L 163.480703 308.531367 
L 163.310277 308.356826 
L 163.145831 308.182286 
L 162.987156 308.007746 
L 162.83405 307.833206 
L 162.686316 307.658666 
L 162.543766 307.484126 
L 162.406218 307.309586 
L 162.273497 307.135046 
L 162.145434 306.960506 
L 162.021864 306.785965 
L 161.902631 306.611425 
L 161.787582 306.436885 
L 161.67657 306.262345 
L 161.569453 306.087805 
L 161.466096 305.913265 
L 161.366365 305.738725 
L 161.270134 305.564185 
L 161.17728 305.389645 
L 161.087685 305.215104 
L 161.001233 305.040564 
L 160.917815 304.866024 
L 160.837325 304.691484 
L 160.759659 304.516944 
L 160.684718 304.342404 
L 160.684718 304.342404 
L 160.684718 200.822031 
z
" clip-path="url(#pf34a4639fb)" style="fill: #ff7f0e; fill-opacity: 0.5"/>
     </g>
     <g id="patch_5">
      <path d="M 577.022494 72.964375 
L 577.022494 321.621875 
M 579.040483 72.964375 
L 579.040483 321.621875 
" clip-path="url(#pf34a4639fb)" style="fill: none; stroke: #ffffff; stroke-width: 3; stroke-linejoin: miter"/>
      <path d="M 577.022494 72.964375 
L 577.022494 321.621875 
M 579.040483 72.964375 
L 579.040483 321.621875 
" clip-path="url(#pf34a4639fb)" style="fill: none; stroke: #2ca02c; stroke-linejoin: miter"/>
      <g id="PolyCollection_3">
       <path d="M 579.040483 72.964375 
L 577.022494 72.964375 
L 577.022494 321.621875 
L 579.040483 321.621875 
L 579.040483 321.621875 
L 579.040483 72.964375 
z
" clip-path="url(#pf34a4639fb)" style="fill: #2ca02c; fill-opacity: 0.5"/>
      </g>
      <g id="patch_6">
       <path d="M 457.6166 203.95111 
L 457.6166 233.121083 
L 458.045487 233.121083 
L 458.045487 234.146725 
L 457.6166 234.146725 
L 457.506039 318.592884 
L 457.16574 321.621875 
M 458.785 203.95111 
L 458.785 233.121083 
L 458.356112 233.121083 
L 458.356112 234.146725 
L 458.785 234.146725 
L 458.895561 318.592884 
L 459.235859 321.621875 
L 459.235859 321.621875 
" clip-path="url(#pf34a4639fb)" style="fill: none; stroke: #ffffff; stroke-width: 3; stroke-linejoin: miter"/>
       <path d="M 457.6166 203.95111 
L 457.6166 233.121083 
L 458.045487 233.121083 
L 458.045487 234.146725 
L 457.6166 234.146725 
L 457.506039 318.592884 
L 457.16574 321.621875 
M 458.785 203.95111 
L 458.785 233.121083 
L 458.356112 233.121083 
L 458.356112 234.146725 
L 458.785 234.146725 
L 458.895561 318.592884 
L 459.235859 321.621875 
L 459.235859 321.621875 
" clip-path="url(#pf34a4639fb)" style="fill: none; stroke: #d62728; stroke-linejoin: miter"/>
       <g id="PolyCollection_4">
        <path d="M 458.785 203.95111 
L 457.6166 203.95111 
L 457.6166 233.121083 
L 458.045487 233.121083 
L 458.045487 234.146725 
L 457.6166 234.146725 
L 457.6166 317.275932 
L 457.6166 317.275932 
L 457.613215 317.31983 
L 457.60981 317.363728 
L 457.606386 317.407627 
L 457.602942 317.451525 
L 457.599477 317.495424 
L 457.595993 317.539322 
L 457.592489 317.58322 
L 457.588964 317.627119 
L 457.585419 317.671017 
L 457.581854 317.714916 
L 457.578267 317.758814 
L 457.57466 317.802713 
L 457.571032 317.846611 
L 457.567383 317.890509 
L 457.563713 317.934408 
L 457.560022 317.978306 
L 457.556309 318.022205 
L 457.552574 318.066103 
L 457.548819 318.110002 
L 457.545041 318.1539 
L 457.541241 318.197798 
L 457.53742 318.241697 
L 457.533576 318.285595 
L 457.52971 318.329494 
L 457.525821 318.373392 
L 457.52191 318.41729 
L 457.517977 318.461189 
L 457.51402 318.505087 
L 457.510041 318.548986 
L 457.506039 318.592884 
L 457.502013 318.636783 
L 457.497964 318.680681 
L 457.493892 318.724579 
L 457.489796 318.768478 
L 457.485676 318.812376 
L 457.481533 318.856275 
L 457.477365 318.900173 
L 457.473173 318.944071 
L 457.468957 318.98797 
L 457.464717 319.031868 
L 457.460452 319.075767 
L 457.456162 319.119665 
L 457.451847 319.163564 
L 457.447508 319.207462 
L 457.443143 319.25136 
L 457.438753 319.295259 
L 457.434338 319.339157 
L 457.429897 319.383056 
L 457.42543 319.426954 
L 457.420937 319.470852 
L 457.416419 319.514751 
L 457.411874 319.558649 
L 457.407302 319.602548 
L 457.402705 319.646446 
L 457.39808 319.690345 
L 457.393429 319.734243 
L 457.388751 319.778141 
L 457.384046 319.82204 
L 457.379314 319.865938 
L 457.374554 319.909837 
L 457.369766 319.953735 
L 457.364951 319.997634 
L 457.360108 320.041532 
L 457.355237 320.08543 
L 457.350338 320.129329 
L 457.34541 320.173227 
L 457.340454 320.217126 
L 457.335469 320.261024 
L 457.330455 320.304922 
L 457.325412 320.348821 
L 457.32034 320.392719 
L 457.315238 320.436618 
L 457.310107 320.480516 
L 457.304946 320.524415 
L 457.299755 320.568313 
L 457.294534 320.612211 
L 457.289283 320.65611 
L 457.284002 320.700008 
L 457.27869 320.743907 
L 457.273347 320.787805 
L 457.267973 320.831703 
L 457.262568 320.875602 
L 457.257132 320.9195 
L 457.251664 320.963399 
L 457.246164 321.007297 
L 457.240633 321.051196 
L 457.23507 321.095094 
L 457.229474 321.138992 
L 457.223846 321.182891 
L 457.218185 321.226789 
L 457.212492 321.270688 
L 457.206765 321.314586 
L 457.201006 321.358484 
L 457.195213 321.402383 
L 457.189386 321.446281 
L 457.183526 321.49018 
L 457.177631 321.534078 
L 457.171703 321.577977 
L 457.16574 321.621875 
L 459.235859 321.621875 
L 459.235859 321.621875 
L 459.229896 321.577977 
L 459.223968 321.534078 
L 459.218073 321.49018 
L 459.212213 321.446281 
L 459.206387 321.402383 
L 459.200594 321.358484 
L 459.194834 321.314586 
L 459.189107 321.270688 
L 459.183414 321.226789 
L 459.177753 321.182891 
L 459.172125 321.138992 
L 459.16653 321.095094 
L 459.160966 321.051196 
L 459.155435 321.007297 
L 459.149935 320.963399 
L 459.144468 320.9195 
L 459.139031 320.875602 
L 459.133626 320.831703 
L 459.128252 320.787805 
L 459.12291 320.743907 
L 459.117597 320.700008 
L 459.112316 320.65611 
L 459.107065 320.612211 
L 459.101844 320.568313 
L 459.096653 320.524415 
L 459.091492 320.480516 
L 459.086361 320.436618 
L 459.08126 320.392719 
L 459.076188 320.348821 
L 459.071145 320.304922 
L 459.066131 320.261024 
L 459.061146 320.217126 
L 459.056189 320.173227 
L 459.051262 320.129329 
L 459.046362 320.08543 
L 459.041491 320.041532 
L 459.036648 319.997634 
L 459.031833 319.953735 
L 459.027045 319.909837 
L 459.022286 319.865938 
L 459.017553 319.82204 
L 459.012848 319.778141 
L 459.00817 319.734243 
L 459.003519 319.690345 
L 458.998894 319.646446 
L 458.994297 319.602548 
L 458.989726 319.558649 
L 458.985181 319.514751 
L 458.980662 319.470852 
L 458.976169 319.426954 
L 458.971703 319.383056 
L 458.967262 319.339157 
L 458.962846 319.295259 
L 458.958456 319.25136 
L 458.954091 319.207462 
L 458.949752 319.163564 
L 458.945437 319.119665 
L 458.941147 319.075767 
L 458.936882 319.031868 
L 458.932642 318.98797 
L 458.928426 318.944071 
L 458.924234 318.900173 
L 458.920067 318.856275 
L 458.915923 318.812376 
L 458.911803 318.768478 
L 458.907707 318.724579 
L 458.903635 318.680681 
L 458.899586 318.636783 
L 458.895561 318.592884 
L 458.891558 318.548986 
L 458.887579 318.505087 
L 458.883622 318.461189 
L 458.879689 318.41729 
L 458.875778 318.373392 
L 458.871889 318.329494 
L 458.868023 318.285595 
L 458.86418 318.241697 
L 458.860358 318.197798 
L 458.856558 318.1539 
L 458.852781 318.110002 
L 458.849025 318.066103 
L 458.84529 318.022205 
L 458.841578 317.978306 
L 458.837886 317.934408 
L 458.834216 317.890509 
L 458.830567 317.846611 
L 458.826939 317.802713 
L 458.823332 317.758814 
L 458.819746 317.714916 
L 458.81618 317.671017 
L 458.812635 317.627119 
L 458.80911 317.58322 
L 458.805606 317.539322 
L 458.802122 317.495424 
L 458.798658 317.451525 
L 458.795213 317.407627 
L 458.791789 317.363728 
L 458.788385 317.31983 
L 458.785 317.275932 
L 458.785 317.275932 
L 458.785 234.146725 
L 458.356112 234.146725 
L 458.356112 233.121083 
L 458.785 233.121083 
L 458.785 203.95111 
z
" clip-path="url(#pf34a4639fb)" style="fill: #d62728; fill-opacity: 0.5"/>
       </g>
       <g id="matplotlib.axis_1">
        <g id="xtick_1">
         <g id="line2d_1"/>
         <g id="text_1">
          <!-- OUT -->
          <g transform="translate(147.974859 332.720312) scale(0.1 -0.1)">
           <defs>
            <path id="DejaVuSans-4f" d="M 2522 4238 
Q 1834 4238 1429 3725 
Q 1025 3213 1025 2328 
Q 1025 1447 1429 934 
Q 1834 422 2522 422 
Q 3209 422 3611 934 
Q 4013 1447 4013 2328 
Q 4013 3213 3611 3725 
Q 3209 4238 2522 4238 
z
M 2522 4750 
Q 3503 4750 4090 4092 
Q 4678 3434 4678 2328 
Q 4678 1225 4090 567 
Q 3503 -91 2522 -91 
Q 1538 -91 948 565 
Q 359 1222 359 2328 
Q 359 3434 948 4092 
Q 1538 4750 2522 4750 
z
" transform="scale(0.015625)"/>
            <path id="DejaVuSans-55" d="M 556 4666 
L 1191 4666 
L 1191 1831 
Q 1191 1081 1462 751 
Q 1734 422 2344 422 
Q 2950 422 3222 751 
Q 3494 1081 3494 1831 
L 3494 4666 
L 4128 4666 
L 4128 1753 
Q 4128 841 3676 375 
Q 3225 -91 2344 -91 
Q 1459 -91 1007 375 
Q 556 841 556 1753 
L 556 4666 
z
" transform="scale(0.015625)"/>
            <path id="DejaVuSans-54" d="M -19 4666 
L 3928 4666 
L 3928 4134 
L 2272 4134 
L 2272 0 
L 1638 0 
L 1638 4134 
L -19 4134 
L -19 4666 
z
" transform="scale(0.015625)"/>
           </defs>
           <use xlink:href="#DejaVuSans-4f"/>
           <use xlink:href="#DejaVuSans-55" x="78.710938"/>
           <use xlink:href="#DejaVuSans-54" x="151.904297"/>
          </g>
         </g>
        </g>
        <g id="xtick_2">
         <g id="line2d_2"/>
         <g id="text_2">
          <!-- SRC -->
          <g transform="translate(568.141645 332.720312) scale(0.1 -0.1)">
           <defs>
            <path id="DejaVuSans-53" d="M 3425 4513 
L 3425 3897 
Q 3066 4069 2747 4153 
Q 2428 4238 2131 4238 
Q 1616 4238 1336 4038 
Q 1056 3838 1056 3469 
Q 1056 3159 1242 3001 
Q 1428 2844 1947 2747 
L 2328 2669 
Q 3034 2534 3370 2195 
Q 3706 1856 3706 1288 
Q 3706 609 3251 259 
Q 2797 -91 1919 -91 
Q 1588 -91 1214 -16 
Q 841 59 441 206 
L 441 856 
Q 825 641 1194 531 
Q 1563 422 1919 422 
Q 2459 422 2753 634 
Q 3047 847 3047 1241 
Q 3047 1584 2836 1778 
Q 2625 1972 2144 2069 
L 1759 2144 
Q 1053 2284 737 2584 
Q 422 2884 422 3419 
Q 422 4038 858 4394 
Q 1294 4750 2059 4750 
Q 2388 4750 2728 4690 
Q 3069 4631 3425 4513 
z
" transform="scale(0.015625)"/>
            <path id="DejaVuSans-52" d="M 2841 2188 
Q 3044 2119 3236 1894 
Q 3428 1669 3622 1275 
L 4263 0 
L 3584 0 
L 2988 1197 
Q 2756 1666 2539 1819 
Q 2322 1972 1947 1972 
L 1259 1972 
L 1259 0 
L 628 0 
L 628 4666 
L 2053 4666 
Q 2853 4666 3247 4331 
Q 3641 3997 3641 3322 
Q 3641 2881 3436 2590 
Q 3231 2300 2841 2188 
z
M 1259 4147 
L 1259 2491 
L 2053 2491 
Q 2509 2491 2742 2702 
Q 2975 2913 2975 3322 
Q 2975 3731 2742 3939 
Q 2509 4147 2053 4147 
L 1259 4147 
z
" transform="scale(0.015625)"/>
            <path id="DejaVuSans-43" d="M 4122 4306 
L 4122 3641 
Q 3803 3938 3442 4084 
Q 3081 4231 2675 4231 
Q 1875 4231 1450 3742 
Q 1025 3253 1025 2328 
Q 1025 1406 1450 917 
Q 1875 428 2675 428 
Q 3081 428 3442 575 
Q 3803 722 4122 1019 
L 4122 359 
Q 3791 134 3420 21 
Q 3050 -91 2638 -91 
Q 1578 -91 968 557 
Q 359 1206 359 2328 
Q 359 3453 968 4101 
Q 1578 4750 2638 4750 
Q 3056 4750 3426 4639 
Q 3797 4528 4122 4306 
z
" transform="scale(0.015625)"/>
           </defs>
           <use xlink:href="#DejaVuSans-53"/>
           <use xlink:href="#DejaVuSans-52" x="63.476562"/>
           <use xlink:href="#DejaVuSans-43" x="127.958984"/>
          </g>
         </g>
        </g>
        <g id="xtick_3">
         <g id="line2d_3"/>
         <g id="text_3">
          <!-- TAR -->
          <g transform="translate(448.639862 332.720312) scale(0.1 -0.1)">
           <defs>
            <path id="DejaVuSans-41" d="M 2188 4044 
L 1331 1722 
L 3047 1722 
L 2188 4044 
z
M 1831 4666 
L 2547 4666 
L 4325 0 
L 3669 0 
L 3244 1197 
L 1141 1197 
L 716 0 
L 50 0 
L 1831 4666 
z
" transform="scale(0.015625)"/>
           </defs>
           <use xlink:href="#DejaVuSans-54"/>
           <use xlink:href="#DejaVuSans-41" x="53.333984"/>
           <use xlink:href="#DejaVuSans-52" x="121.742188"/>
          </g>
         </g>
        </g>
       </g>
       <g id="matplotlib.axis_2">
        <g id="ytick_1">
         <g id="line2d_4">
          <defs>
           <path id="m890676bd27" d="M 0 0 
L -3.5 0 
" style="stroke: #000000; stroke-width: 0.8"/>
          </defs>
          <g>
           <use xlink:href="#m890676bd27" x="63.290625" y="321.621875" style="stroke: #000000; stroke-width: 0.8"/>
          </g>
         </g>
         <g id="text_4">
          <!-- 0 -->
          <g transform="translate(49.928125 325.421094) scale(0.1 -0.1)">
           <defs>
            <path id="DejaVuSans-30" d="M 2034 4250 
Q 1547 4250 1301 3770 
Q 1056 3291 1056 2328 
Q 1056 1369 1301 889 
Q 1547 409 2034 409 
Q 2525 409 2770 889 
Q 3016 1369 3016 2328 
Q 3016 3291 2770 3770 
Q 2525 4250 2034 4250 
z
M 2034 4750 
Q 2819 4750 3233 4129 
Q 3647 3509 3647 2328 
Q 3647 1150 3233 529 
Q 2819 -91 2034 -91 
Q 1250 -91 836 529 
Q 422 1150 422 2328 
Q 422 3509 836 4129 
Q 1250 4750 2034 4750 
z
" transform="scale(0.015625)"/>
           </defs>
           <use xlink:href="#DejaVuSans-30"/>
          </g>
         </g>
        </g>
        <g id="ytick_2">
         <g id="line2d_5">
          <g>
           <use xlink:href="#m890676bd27" x="63.290625" y="286.854327" style="stroke: #000000; stroke-width: 0.8"/>
          </g>
         </g>
         <g id="text_5">
          <!-- 2000 -->
          <g transform="translate(30.840625 290.653546) scale(0.1 -0.1)">
           <defs>
            <path id="DejaVuSans-32" d="M 1228 531 
L 3431 531 
L 3431 0 
L 469 0 
L 469 531 
Q 828 903 1448 1529 
Q 2069 2156 2228 2338 
Q 2531 2678 2651 2914 
Q 2772 3150 2772 3378 
Q 2772 3750 2511 3984 
Q 2250 4219 1831 4219 
Q 1534 4219 1204 4116 
Q 875 4013 500 3803 
L 500 4441 
Q 881 4594 1212 4672 
Q 1544 4750 1819 4750 
Q 2544 4750 2975 4387 
Q 3406 4025 3406 3419 
Q 3406 3131 3298 2873 
Q 3191 2616 2906 2266 
Q 2828 2175 2409 1742 
Q 1991 1309 1228 531 
z
" transform="scale(0.015625)"/>
           </defs>
           <use xlink:href="#DejaVuSans-32"/>
           <use xlink:href="#DejaVuSans-30" x="63.623047"/>
           <use xlink:href="#DejaVuSans-30" x="127.246094"/>
           <use xlink:href="#DejaVuSans-30" x="190.869141"/>
          </g>
         </g>
        </g>
        <g id="ytick_3">
         <g id="line2d_6">
          <g>
           <use xlink:href="#m890676bd27" x="63.290625" y="252.08678" style="stroke: #000000; stroke-width: 0.8"/>
          </g>
         </g>
         <g id="text_6">
          <!-- 4000 -->
          <g transform="translate(30.840625 255.885999) scale(0.1 -0.1)">
           <defs>
            <path id="DejaVuSans-34" d="M 2419 4116 
L 825 1625 
L 2419 1625 
L 2419 4116 
z
M 2253 4666 
L 3047 4666 
L 3047 1625 
L 3713 1625 
L 3713 1100 
L 3047 1100 
L 3047 0 
L 2419 0 
L 2419 1100 
L 313 1100 
L 313 1709 
L 2253 4666 
z
" transform="scale(0.015625)"/>
           </defs>
           <use xlink:href="#DejaVuSans-34"/>
           <use xlink:href="#DejaVuSans-30" x="63.623047"/>
           <use xlink:href="#DejaVuSans-30" x="127.246094"/>
           <use xlink:href="#DejaVuSans-30" x="190.869141"/>
          </g>
         </g>
        </g>
        <g id="ytick_4">
         <g id="line2d_7">
          <g>
           <use xlink:href="#m890676bd27" x="63.290625" y="217.319232" style="stroke: #000000; stroke-width: 0.8"/>
          </g>
         </g>
         <g id="text_7">
          <!-- 6000 -->
          <g transform="translate(30.840625 221.118451) scale(0.1 -0.1)">
           <defs>
            <path id="DejaVuSans-36" d="M 2113 2584 
Q 1688 2584 1439 2293 
Q 1191 2003 1191 1497 
Q 1191 994 1439 701 
Q 1688 409 2113 409 
Q 2538 409 2786 701 
Q 3034 994 3034 1497 
Q 3034 2003 2786 2293 
Q 2538 2584 2113 2584 
z
M 3366 4563 
L 3366 3988 
Q 3128 4100 2886 4159 
Q 2644 4219 2406 4219 
Q 1781 4219 1451 3797 
Q 1122 3375 1075 2522 
Q 1259 2794 1537 2939 
Q 1816 3084 2150 3084 
Q 2853 3084 3261 2657 
Q 3669 2231 3669 1497 
Q 3669 778 3244 343 
Q 2819 -91 2113 -91 
Q 1303 -91 875 529 
Q 447 1150 447 2328 
Q 447 3434 972 4092 
Q 1497 4750 2381 4750 
Q 2619 4750 2861 4703 
Q 3103 4656 3366 4563 
z
" transform="scale(0.015625)"/>
           </defs>
           <use xlink:href="#DejaVuSans-36"/>
           <use xlink:href="#DejaVuSans-30" x="63.623047"/>
           <use xlink:href="#DejaVuSans-30" x="127.246094"/>
           <use xlink:href="#DejaVuSans-30" x="190.869141"/>
          </g>
         </g>
        </g>
        <g id="ytick_5">
         <g id="line2d_8">
          <g>
           <use xlink:href="#m890676bd27" x="63.290625" y="182.551685" style="stroke: #000000; stroke-width: 0.8"/>
          </g>
         </g>
         <g id="text_8">
          <!-- 8000 -->
          <g transform="translate(30.840625 186.350904) scale(0.1 -0.1)">
           <defs>
            <path id="DejaVuSans-38" d="M 2034 2216 
Q 1584 2216 1326 1975 
Q 1069 1734 1069 1313 
Q 1069 891 1326 650 
Q 1584 409 2034 409 
Q 2484 409 2743 651 
Q 3003 894 3003 1313 
Q 3003 1734 2745 1975 
Q 2488 2216 2034 2216 
z
M 1403 2484 
Q 997 2584 770 2862 
Q 544 3141 544 3541 
Q 544 4100 942 4425 
Q 1341 4750 2034 4750 
Q 2731 4750 3128 4425 
Q 3525 4100 3525 3541 
Q 3525 3141 3298 2862 
Q 3072 2584 2669 2484 
Q 3125 2378 3379 2068 
Q 3634 1759 3634 1313 
Q 3634 634 3220 271 
Q 2806 -91 2034 -91 
Q 1263 -91 848 271 
Q 434 634 434 1313 
Q 434 1759 690 2068 
Q 947 2378 1403 2484 
z
M 1172 3481 
Q 1172 3119 1398 2916 
Q 1625 2713 2034 2713 
Q 2441 2713 2670 2916 
Q 2900 3119 2900 3481 
Q 2900 3844 2670 4047 
Q 2441 4250 2034 4250 
Q 1625 4250 1398 4047 
Q 1172 3844 1172 3481 
z
" transform="scale(0.015625)"/>
           </defs>
           <use xlink:href="#DejaVuSans-38"/>
           <use xlink:href="#DejaVuSans-30" x="63.623047"/>
           <use xlink:href="#DejaVuSans-30" x="127.246094"/>
           <use xlink:href="#DejaVuSans-30" x="190.869141"/>
          </g>
         </g>
        </g>
        <g id="ytick_6">
         <g id="line2d_9">
          <g>
           <use xlink:href="#m890676bd27" x="63.290625" y="147.784137" style="stroke: #000000; stroke-width: 0.8"/>
          </g>
         </g>
         <g id="text_9">
          <!-- 10000 -->
          <g transform="translate(24.478125 151.583356) scale(0.1 -0.1)">
           <defs>
            <path id="DejaVuSans-31" d="M 794 531 
L 1825 531 
L 1825 4091 
L 703 3866 
L 703 4441 
L 1819 4666 
L 2450 4666 
L 2450 531 
L 3481 531 
L 3481 0 
L 794 0 
L 794 531 
z
" transform="scale(0.015625)"/>
           </defs>
           <use xlink:href="#DejaVuSans-31"/>
           <use xlink:href="#DejaVuSans-30" x="63.623047"/>
           <use xlink:href="#DejaVuSans-30" x="127.246094"/>
           <use xlink:href="#DejaVuSans-30" x="190.869141"/>
           <use xlink:href="#DejaVuSans-30" x="254.492188"/>
          </g>
         </g>
        </g>
        <g id="ytick_7">
         <g id="line2d_10">
          <g>
           <use xlink:href="#m890676bd27" x="63.290625" y="113.01659" style="stroke: #000000; stroke-width: 0.8"/>
          </g>
         </g>
         <g id="text_10">
          <!-- 12000 -->
          <g transform="translate(24.478125 116.815809) scale(0.1 -0.1)">
           <use xlink:href="#DejaVuSans-31"/>
           <use xlink:href="#DejaVuSans-32" x="63.623047"/>
           <use xlink:href="#DejaVuSans-30" x="127.246094"/>
           <use xlink:href="#DejaVuSans-30" x="190.869141"/>
           <use xlink:href="#DejaVuSans-30" x="254.492188"/>
          </g>
         </g>
        </g>
        <g id="ytick_8">
         <g id="line2d_11">
          <g>
           <use xlink:href="#m890676bd27" x="63.290625" y="78.249042" style="stroke: #000000; stroke-width: 0.8"/>
          </g>
         </g>
         <g id="text_11">
          <!-- 14000 -->
          <g transform="translate(24.478125 82.048261) scale(0.1 -0.1)">
           <use xlink:href="#DejaVuSans-31"/>
           <use xlink:href="#DejaVuSans-34" x="63.623047"/>
           <use xlink:href="#DejaVuSans-30" x="127.246094"/>
           <use xlink:href="#DejaVuSans-30" x="190.869141"/>
           <use xlink:href="#DejaVuSans-30" x="254.492188"/>
          </g>
         </g>
        </g>
        <g id="ytick_9">
         <g id="line2d_12">
          <g>
           <use xlink:href="#m890676bd27" x="63.290625" y="43.481495" style="stroke: #000000; stroke-width: 0.8"/>
          </g>
         </g>
         <g id="text_12">
          <!-- 16000 -->
          <g transform="translate(24.478125 47.280713) scale(0.1 -0.1)">
           <use xlink:href="#DejaVuSans-31"/>
           <use xlink:href="#DejaVuSans-36" x="63.623047"/>
           <use xlink:href="#DejaVuSans-30" x="127.246094"/>
           <use xlink:href="#DejaVuSans-30" x="190.869141"/>
           <use xlink:href="#DejaVuSans-30" x="254.492188"/>
          </g>
         </g>
        </g>
        <g id="text_13">
         <!-- time ago (generations) -->
         <g transform="translate(18.398438 223.682031) rotate(-90) scale(0.1 -0.1)">
          <defs>
           <path id="DejaVuSans-74" d="M 1172 4494 
L 1172 3500 
L 2356 3500 
L 2356 3053 
L 1172 3053 
L 1172 1153 
Q 1172 725 1289 603 
Q 1406 481 1766 481 
L 2356 481 
L 2356 0 
L 1766 0 
Q 1100 0 847 248 
Q 594 497 594 1153 
L 594 3053 
L 172 3053 
L 172 3500 
L 594 3500 
L 594 4494 
L 1172 4494 
z
" transform="scale(0.015625)"/>
           <path id="DejaVuSans-69" d="M 603 3500 
L 1178 3500 
L 1178 0 
L 603 0 
L 603 3500 
z
M 603 4863 
L 1178 4863 
L 1178 4134 
L 603 4134 
L 603 4863 
z
" transform="scale(0.015625)"/>
           <path id="DejaVuSans-6d" d="M 3328 2828 
Q 3544 3216 3844 3400 
Q 4144 3584 4550 3584 
Q 5097 3584 5394 3201 
Q 5691 2819 5691 2113 
L 5691 0 
L 5113 0 
L 5113 2094 
Q 5113 2597 4934 2840 
Q 4756 3084 4391 3084 
Q 3944 3084 3684 2787 
Q 3425 2491 3425 1978 
L 3425 0 
L 2847 0 
L 2847 2094 
Q 2847 2600 2669 2842 
Q 2491 3084 2119 3084 
Q 1678 3084 1418 2786 
Q 1159 2488 1159 1978 
L 1159 0 
L 581 0 
L 581 3500 
L 1159 3500 
L 1159 2956 
Q 1356 3278 1631 3431 
Q 1906 3584 2284 3584 
Q 2666 3584 2933 3390 
Q 3200 3197 3328 2828 
z
" transform="scale(0.015625)"/>
           <path id="DejaVuSans-65" d="M 3597 1894 
L 3597 1613 
L 953 1613 
Q 991 1019 1311 708 
Q 1631 397 2203 397 
Q 2534 397 2845 478 
Q 3156 559 3463 722 
L 3463 178 
Q 3153 47 2828 -22 
Q 2503 -91 2169 -91 
Q 1331 -91 842 396 
Q 353 884 353 1716 
Q 353 2575 817 3079 
Q 1281 3584 2069 3584 
Q 2775 3584 3186 3129 
Q 3597 2675 3597 1894 
z
M 3022 2063 
Q 3016 2534 2758 2815 
Q 2500 3097 2075 3097 
Q 1594 3097 1305 2825 
Q 1016 2553 972 2059 
L 3022 2063 
z
" transform="scale(0.015625)"/>
           <path id="DejaVuSans-20" transform="scale(0.015625)"/>
           <path id="DejaVuSans-61" d="M 2194 1759 
Q 1497 1759 1228 1600 
Q 959 1441 959 1056 
Q 959 750 1161 570 
Q 1363 391 1709 391 
Q 2188 391 2477 730 
Q 2766 1069 2766 1631 
L 2766 1759 
L 2194 1759 
z
M 3341 1997 
L 3341 0 
L 2766 0 
L 2766 531 
Q 2569 213 2275 61 
Q 1981 -91 1556 -91 
Q 1019 -91 701 211 
Q 384 513 384 1019 
Q 384 1609 779 1909 
Q 1175 2209 1959 2209 
L 2766 2209 
L 2766 2266 
Q 2766 2663 2505 2880 
Q 2244 3097 1772 3097 
Q 1472 3097 1187 3025 
Q 903 2953 641 2809 
L 641 3341 
Q 956 3463 1253 3523 
Q 1550 3584 1831 3584 
Q 2591 3584 2966 3190 
Q 3341 2797 3341 1997 
z
" transform="scale(0.015625)"/>
           <path id="DejaVuSans-67" d="M 2906 1791 
Q 2906 2416 2648 2759 
Q 2391 3103 1925 3103 
Q 1463 3103 1205 2759 
Q 947 2416 947 1791 
Q 947 1169 1205 825 
Q 1463 481 1925 481 
Q 2391 481 2648 825 
Q 2906 1169 2906 1791 
z
M 3481 434 
Q 3481 -459 3084 -895 
Q 2688 -1331 1869 -1331 
Q 1566 -1331 1297 -1286 
Q 1028 -1241 775 -1147 
L 775 -588 
Q 1028 -725 1275 -790 
Q 1522 -856 1778 -856 
Q 2344 -856 2625 -561 
Q 2906 -266 2906 331 
L 2906 616 
Q 2728 306 2450 153 
Q 2172 0 1784 0 
Q 1141 0 747 490 
Q 353 981 353 1791 
Q 353 2603 747 3093 
Q 1141 3584 1784 3584 
Q 2172 3584 2450 3431 
Q 2728 3278 2906 2969 
L 2906 3500 
L 3481 3500 
L 3481 434 
z
" transform="scale(0.015625)"/>
           <path id="DejaVuSans-6f" d="M 1959 3097 
Q 1497 3097 1228 2736 
Q 959 2375 959 1747 
Q 959 1119 1226 758 
Q 1494 397 1959 397 
Q 2419 397 2687 759 
Q 2956 1122 2956 1747 
Q 2956 2369 2687 2733 
Q 2419 3097 1959 3097 
z
M 1959 3584 
Q 2709 3584 3137 3096 
Q 3566 2609 3566 1747 
Q 3566 888 3137 398 
Q 2709 -91 1959 -91 
Q 1206 -91 779 398 
Q 353 888 353 1747 
Q 353 2609 779 3096 
Q 1206 3584 1959 3584 
z
" transform="scale(0.015625)"/>
           <path id="DejaVuSans-28" d="M 1984 4856 
Q 1566 4138 1362 3434 
Q 1159 2731 1159 2009 
Q 1159 1288 1364 580 
Q 1569 -128 1984 -844 
L 1484 -844 
Q 1016 -109 783 600 
Q 550 1309 550 2009 
Q 550 2706 781 3412 
Q 1013 4119 1484 4856 
L 1984 4856 
z
" transform="scale(0.015625)"/>
           <path id="DejaVuSans-6e" d="M 3513 2113 
L 3513 0 
L 2938 0 
L 2938 2094 
Q 2938 2591 2744 2837 
Q 2550 3084 2163 3084 
Q 1697 3084 1428 2787 
Q 1159 2491 1159 1978 
L 1159 0 
L 581 0 
L 581 3500 
L 1159 3500 
L 1159 2956 
Q 1366 3272 1645 3428 
Q 1925 3584 2291 3584 
Q 2894 3584 3203 3211 
Q 3513 2838 3513 2113 
z
" transform="scale(0.015625)"/>
           <path id="DejaVuSans-72" d="M 2631 2963 
Q 2534 3019 2420 3045 
Q 2306 3072 2169 3072 
Q 1681 3072 1420 2755 
Q 1159 2438 1159 1844 
L 1159 0 
L 581 0 
L 581 3500 
L 1159 3500 
L 1159 2956 
Q 1341 3275 1631 3429 
Q 1922 3584 2338 3584 
Q 2397 3584 2469 3576 
Q 2541 3569 2628 3553 
L 2631 2963 
z
" transform="scale(0.015625)"/>
           <path id="DejaVuSans-73" d="M 2834 3397 
L 2834 2853 
Q 2591 2978 2328 3040 
Q 2066 3103 1784 3103 
Q 1356 3103 1142 2972 
Q 928 2841 928 2578 
Q 928 2378 1081 2264 
Q 1234 2150 1697 2047 
L 1894 2003 
Q 2506 1872 2764 1633 
Q 3022 1394 3022 966 
Q 3022 478 2636 193 
Q 2250 -91 1575 -91 
Q 1294 -91 989 -36 
Q 684 19 347 128 
L 347 722 
Q 666 556 975 473 
Q 1284 391 1588 391 
Q 1994 391 2212 530 
Q 2431 669 2431 922 
Q 2431 1156 2273 1281 
Q 2116 1406 1581 1522 
L 1381 1569 
Q 847 1681 609 1914 
Q 372 2147 372 2553 
Q 372 3047 722 3315 
Q 1072 3584 1716 3584 
Q 2034 3584 2315 3537 
Q 2597 3491 2834 3397 
z
" transform="scale(0.015625)"/>
           <path id="DejaVuSans-29" d="M 513 4856 
L 1013 4856 
Q 1481 4119 1714 3412 
Q 1947 2706 1947 2009 
Q 1947 1309 1714 600 
Q 1481 -109 1013 -844 
L 513 -844 
Q 928 -128 1133 580 
Q 1338 1288 1338 2009 
Q 1338 2731 1133 3434 
Q 928 4138 513 4856 
z
" transform="scale(0.015625)"/>
          </defs>
          <use xlink:href="#DejaVuSans-74"/>
          <use xlink:href="#DejaVuSans-69" x="39.208984"/>
          <use xlink:href="#DejaVuSans-6d" x="66.992188"/>
          <use xlink:href="#DejaVuSans-65" x="164.404297"/>
          <use xlink:href="#DejaVuSans-20" x="225.927734"/>
          <use xlink:href="#DejaVuSans-61" x="257.714844"/>
          <use xlink:href="#DejaVuSans-67" x="318.994141"/>
          <use xlink:href="#DejaVuSans-6f" x="382.470703"/>
          <use xlink:href="#DejaVuSans-20" x="443.652344"/>
          <use xlink:href="#DejaVuSans-28" x="475.439453"/>
          <use xlink:href="#DejaVuSans-67" x="514.453125"/>
          <use xlink:href="#DejaVuSans-65" x="577.929688"/>
          <use xlink:href="#DejaVuSans-6e" x="639.453125"/>
          <use xlink:href="#DejaVuSans-65" x="702.832031"/>
          <use xlink:href="#DejaVuSans-72" x="764.355469"/>
          <use xlink:href="#DejaVuSans-61" x="805.46875"/>
          <use xlink:href="#DejaVuSans-74" x="866.748047"/>
          <use xlink:href="#DejaVuSans-69" x="905.957031"/>
          <use xlink:href="#DejaVuSans-6f" x="933.740234"/>
          <use xlink:href="#DejaVuSans-6e" x="994.921875"/>
          <use xlink:href="#DejaVuSans-73" x="1058.300781"/>
          <use xlink:href="#DejaVuSans-29" x="1110.400391"/>
         </g>
        </g>
       </g>
       <g id="patch_7">
        <path d="M 333.343785 200.822031 
L 332.343785 200.790595 
L 331.343785 200.753654 
L 330.343785 200.655908 
L 329.343785 200.623386 
L 328.343785 200.549762 
L 327.343785 200.511196 
L 326.343785 200.475783 
L 325.343785 200.418143 
L 324.343785 200.347757 
L 323.343785 200.295792 
L 322.343785 200.236703 
L 321.343785 200.148382 
L 320.343785 200.102237 
L 319.343785 200.059826 
L 318.343785 200.029334 
L 317.343785 200.003289 
L 316.343785 199.982089 
L 315.343785 199.927788 
L 314.343785 199.89985 
L 313.343785 199.870126 
L 312.343785 199.844731 
L 311.343785 199.833531 
L 310.343785 199.823407 
L 309.343785 199.823611 
L 308.343785 199.833121 
L 307.343785 199.844775 
L 306.343785 199.875804 
L 305.343785 199.886972 
L 304.343785 199.917089 
L 303.343785 199.976866 
L 302.343785 200.014058 
L 301.343785 200.053154 
L 300.343785 200.095594 
L 299.343785 200.128359 
L 298.343785 200.195785 
L 297.343785 200.234911 
L 296.343785 200.277586 
L 295.343785 200.348166 
L 294.343785 200.384557 
L 293.343785 200.44296 
L 292.343785 200.553913 
L 291.343785 200.624571 
L 290.343785 200.737511 
L 289.343785 200.783284 
L 288.343785 200.844567 
L 287.343785 200.893066 
L 286.343785 200.973889 
L 285.343785 201.092408 
L 284.343785 201.162619 
L 283.343785 201.245881 
L 282.343785 201.279023 
L 281.343785 201.33026 
L 280.343785 201.398659 
L 279.343785 201.464874 
L 278.343785 201.541791 
L 277.343785 201.569107 
L 276.343785 201.595584 
L 275.343785 201.618235 
L 274.343785 201.637766 
L 273.343785 201.66416 
L 272.343785 201.713931 
L 271.343785 201.749004 
L 270.343785 201.78487 
L 269.343785 201.800237 
L 268.343785 201.816006 
L 267.343785 201.819419 
L 266.343785 201.821836 
L 265.343785 201.82135 
L 264.343785 201.819421 
L 263.343785 201.806164 
L 262.343785 201.797774 
L 261.343785 201.776237 
L 260.343785 201.753204 
L 259.343785 201.735971 
L 258.343785 201.717508 
L 257.343785 201.697056 
L 256.343785 201.680456 
L 255.343785 201.617677 
L 254.343785 201.542412 
L 253.343785 201.509773 
L 252.343785 201.44221 
L 251.343785 201.388162 
L 250.343785 201.354458 
L 249.343785 201.264332 
L 248.343785 201.235797 
L 247.343785 201.204311 
L 246.343785 201.1733 
L 245.343785 201.118492 
L 244.343785 201.053905 
L 243.343785 201.015709 
L 242.343785 200.919775 
L 241.343785 200.870517 
L 240.343785 200.826448 
L 239.343785 200.786324 
L 238.343785 200.677957 
L 237.343785 200.636329 
L 236.343785 200.574188 
L 235.343785 200.504225 
L 234.343785 200.399721 
L 233.343785 200.362733 
L 232.343785 200.316856 
L 231.343785 200.248361 
L 230.343785 200.199616 
L 229.343785 200.122018 
L 228.343785 200.091477 
L 227.343785 200.021963 
L 226.343785 199.99799 
L 225.343785 199.969368 
L 224.343785 199.927575 
L 223.343785 199.905999 
L 222.343785 199.892051 
L 221.343785 199.865329 
L 220.343785 199.856019 
L 219.343785 199.843572 
L 218.343785 199.832518 
L 217.343785 199.826853 
L 216.343785 199.822089 
L 215.343785 199.827637 
L 214.343785 199.840925 
L 213.343785 199.848442 
L 212.343785 199.873227 
L 211.343785 199.896796 
L 210.343785 199.932977 
L 209.343785 199.958938 
L 208.343785 199.98126 
L 207.343785 200.05002 
L 206.343785 200.124555 
L 205.343785 200.218534 
L 204.343785 200.269586 
L 203.343785 200.32352 
L 202.343785 200.358771 
L 201.343785 200.464859 
L 200.343785 200.517123 
L 199.343785 200.55403 
L 198.343785 200.585061 
L 197.343785 200.646216 
L 196.343785 200.713636 
L 195.343785 200.762542 
L 194.343785 200.827734 
L 193.343785 200.865922 
L 192.343785 200.907918 
L 191.343785 200.949935 
L 190.343785 201.009452 
L 189.343785 201.122611 
L 188.343785 201.174862 
L 187.343785 201.21428 
L 186.343785 201.261381 
L 185.343785 201.318161 
L 184.343785 201.350824 
L 183.343785 201.387002 
L 182.343785 201.419093 
L 181.343785 201.453372 
L 180.343785 201.51175 
L 179.343785 201.556935 
L 178.343785 201.586559 
L 177.343785 201.636945 
L 176.343785 201.662142 
L 175.343785 201.683193 
L 174.343785 201.718161 
L 173.343785 201.742451 
L 172.343785 201.756518 
L 171.343785 201.77546 
L 170.343785 201.791122 
L 169.343785 201.803673 
L 168.343785 201.809509 
L 167.343785 201.816391 
L 166.343785 201.821565 
L 165.343785 201.819783 
L 163.802389 201.817057 
" clip-path="url(#pf34a4639fb)" style="fill: none; stroke: #ffffff; stroke-width: 3; stroke-linecap: round"/>
        <path d="M 333.343785 200.822031 
L 332.343785 200.790595 
L 331.343785 200.753654 
L 330.343785 200.655908 
L 329.343785 200.623386 
L 328.343785 200.549762 
L 327.343785 200.511196 
L 326.343785 200.475783 
L 325.343785 200.418143 
L 324.343785 200.347757 
L 323.343785 200.295792 
L 322.343785 200.236703 
L 321.343785 200.148382 
L 320.343785 200.102237 
L 319.343785 200.059826 
L 318.343785 200.029334 
L 317.343785 200.003289 
L 316.343785 199.982089 
L 315.343785 199.927788 
L 314.343785 199.89985 
L 313.343785 199.870126 
L 312.343785 199.844731 
L 311.343785 199.833531 
L 310.343785 199.823407 
L 309.343785 199.823611 
L 308.343785 199.833121 
L 307.343785 199.844775 
L 306.343785 199.875804 
L 305.343785 199.886972 
L 304.343785 199.917089 
L 303.343785 199.976866 
L 302.343785 200.014058 
L 301.343785 200.053154 
L 300.343785 200.095594 
L 299.343785 200.128359 
L 298.343785 200.195785 
L 297.343785 200.234911 
L 296.343785 200.277586 
L 295.343785 200.348166 
L 294.343785 200.384557 
L 293.343785 200.44296 
L 292.343785 200.553913 
L 291.343785 200.624571 
L 290.343785 200.737511 
L 289.343785 200.783284 
L 288.343785 200.844567 
L 287.343785 200.893066 
L 286.343785 200.973889 
L 285.343785 201.092408 
L 284.343785 201.162619 
L 283.343785 201.245881 
L 282.343785 201.279023 
L 281.343785 201.33026 
L 280.343785 201.398659 
L 279.343785 201.464874 
L 278.343785 201.541791 
L 277.343785 201.569107 
L 276.343785 201.595584 
L 275.343785 201.618235 
L 274.343785 201.637766 
L 273.343785 201.66416 
L 272.343785 201.713931 
L 271.343785 201.749004 
L 270.343785 201.78487 
L 269.343785 201.800237 
L 268.343785 201.816006 
L 267.343785 201.819419 
L 266.343785 201.821836 
L 265.343785 201.82135 
L 264.343785 201.819421 
L 263.343785 201.806164 
L 262.343785 201.797774 
L 261.343785 201.776237 
L 260.343785 201.753204 
L 259.343785 201.735971 
L 258.343785 201.717508 
L 257.343785 201.697056 
L 256.343785 201.680456 
L 255.343785 201.617677 
L 254.343785 201.542412 
L 253.343785 201.509773 
L 252.343785 201.44221 
L 251.343785 201.388162 
L 250.343785 201.354458 
L 249.343785 201.264332 
L 248.343785 201.235797 
L 247.343785 201.204311 
L 246.343785 201.1733 
L 245.343785 201.118492 
L 244.343785 201.053905 
L 243.343785 201.015709 
L 242.343785 200.919775 
L 241.343785 200.870517 
L 240.343785 200.826448 
L 239.343785 200.786324 
L 238.343785 200.677957 
L 237.343785 200.636329 
L 236.343785 200.574188 
L 235.343785 200.504225 
L 234.343785 200.399721 
L 233.343785 200.362733 
L 232.343785 200.316856 
L 231.343785 200.248361 
L 230.343785 200.199616 
L 229.343785 200.122018 
L 228.343785 200.091477 
L 227.343785 200.021963 
L 226.343785 199.99799 
L 225.343785 199.969368 
L 224.343785 199.927575 
L 223.343785 199.905999 
L 222.343785 199.892051 
L 221.343785 199.865329 
L 220.343785 199.856019 
L 219.343785 199.843572 
L 218.343785 199.832518 
L 217.343785 199.826853 
L 216.343785 199.822089 
L 215.343785 199.827637 
L 214.343785 199.840925 
L 213.343785 199.848442 
L 212.343785 199.873227 
L 211.343785 199.896796 
L 210.343785 199.932977 
L 209.343785 199.958938 
L 208.343785 199.98126 
L 207.343785 200.05002 
L 206.343785 200.124555 
L 205.343785 200.218534 
L 204.343785 200.269586 
L 203.343785 200.32352 
L 202.343785 200.358771 
L 201.343785 200.464859 
L 200.343785 200.517123 
L 199.343785 200.55403 
L 198.343785 200.585061 
L 197.343785 200.646216 
L 196.343785 200.713636 
L 195.343785 200.762542 
L 194.343785 200.827734 
L 193.343785 200.865922 
L 192.343785 200.907918 
L 191.343785 200.949935 
L 190.343785 201.009452 
L 189.343785 201.122611 
L 188.343785 201.174862 
L 187.343785 201.21428 
L 186.343785 201.261381 
L 185.343785 201.318161 
L 184.343785 201.350824 
L 183.343785 201.387002 
L 182.343785 201.419093 
L 181.343785 201.453372 
L 180.343785 201.51175 
L 179.343785 201.556935 
L 178.343785 201.586559 
L 177.343785 201.636945 
L 176.343785 201.662142 
L 175.343785 201.683193 
L 174.343785 201.718161 
L 173.343785 201.742451 
L 172.343785 201.756518 
L 171.343785 201.77546 
L 170.343785 201.791122 
L 169.343785 201.803673 
L 168.343785 201.809509 
L 167.343785 201.816391 
L 166.343785 201.821565 
L 165.343785 201.819783 
L 163.802389 201.817057 
" clip-path="url(#pf34a4639fb)" style="fill: none; stroke: #1f77b4; stroke-linecap: round"/>
        <path d="M 167.802389 202.822031 
L 166.922021 202.3467 
L 166.044114 201.866446 
L 165.1934 201.331805 
L 163.891226 200.644358 
L 164.818579 200.618343 
L 165.730253 200.205623 
L 166.640518 199.790084 
L 167.983014 199.18328 
L 167.328115 199.822031 
L 167.276151 200.822031 
L 167.217061 202.822031 
z
" clip-path="url(#pf34a4639fb)" style="fill: #ffffff; stroke: #ffffff; stroke-width: 3; stroke-linecap: round"/>
        <path d="M 167.802389 202.822031 
L 166.922021 202.3467 
L 166.044114 201.866446 
L 165.1934 201.331805 
L 163.891226 200.644358 
L 164.818579 200.618343 
L 165.730253 200.205623 
L 166.640518 199.790084 
L 167.983014 199.18328 
L 167.328115 199.822031 
L 167.276151 200.822031 
L 167.217061 202.822031 
z
" clip-path="url(#pf34a4639fb)" style="fill: #ffffff; stroke: #1f77b4; stroke-linecap: round"/>
        <g id="patch_8">
         <path d="M 343.397573 72.964375 
L 344.397573 72.995811 
L 345.397573 73.032752 
L 346.397573 73.130498 
L 347.397573 73.16302 
L 348.397573 73.236645 
L 349.397573 73.27521 
L 350.397573 73.310623 
L 351.397573 73.368263 
L 352.397573 73.438649 
L 353.397573 73.490614 
L 354.397573 73.549703 
L 355.397573 73.638024 
L 356.397573 73.684169 
L 357.397573 73.72658 
L 358.397573 73.757072 
L 359.397573 73.783117 
L 360.397573 73.804317 
L 361.397573 73.858618 
L 362.397573 73.886556 
L 363.397573 73.91628 
L 364.397573 73.941675 
L 365.397573 73.952875 
L 366.397573 73.962999 
L 367.397573 73.962795 
L 368.397573 73.953285 
L 369.397573 73.941631 
L 370.397573 73.910602 
L 371.397573 73.899434 
L 372.397573 73.869317 
L 373.397573 73.80954 
L 374.397573 73.772348 
L 375.397573 73.733252 
L 376.397573 73.690812 
L 377.397573 73.658047 
L 378.397573 73.590621 
L 379.397573 73.551495 
L 380.397573 73.50882 
L 381.397573 73.43824 
L 382.397573 73.401849 
L 383.397573 73.343446 
L 384.397573 73.232493 
L 385.397573 73.161835 
L 386.397573 73.048895 
L 387.397573 73.003122 
L 388.397573 72.941839 
L 389.397573 72.89334 
L 390.397573 72.812517 
L 391.397573 72.693998 
L 392.397573 72.623787 
L 393.397573 72.540525 
L 394.397573 72.507383 
L 395.397573 72.456146 
L 396.397573 72.387747 
L 397.397573 72.321532 
L 398.397573 72.244615 
L 399.397573 72.217299 
L 400.397573 72.190822 
L 401.397573 72.168171 
L 402.397573 72.14864 
L 403.397573 72.122246 
L 404.397573 72.072475 
L 405.397573 72.037402 
L 406.397573 72.001536 
L 407.397573 71.986169 
L 408.397573 71.9704 
L 409.397573 71.966987 
L 410.397573 71.96457 
L 411.397573 71.965056 
L 412.397573 71.966985 
L 413.397573 71.980242 
L 414.397573 71.988633 
L 415.397573 72.010169 
L 416.397573 72.033202 
L 417.397573 72.050435 
L 418.397573 72.068898 
L 419.397573 72.08935 
L 420.397573 72.10595 
L 421.397573 72.168729 
L 422.397573 72.243994 
L 423.397573 72.276633 
L 424.397573 72.344197 
L 425.397573 72.398244 
L 426.397573 72.431948 
L 427.397573 72.522074 
L 428.397573 72.550609 
L 429.397573 72.582095 
L 430.397573 72.613106 
L 431.397573 72.667914 
L 432.397573 72.732501 
L 433.397573 72.770697 
L 434.397573 72.866631 
L 435.397573 72.915889 
L 436.397573 72.959958 
L 437.397573 73.000082 
L 438.397573 73.108449 
L 439.397573 73.150077 
L 440.397573 73.212219 
L 441.397573 73.282181 
L 442.397573 73.386685 
L 443.397573 73.423673 
L 444.397573 73.46955 
L 445.397573 73.538045 
L 446.397573 73.586791 
L 447.397573 73.664388 
L 448.397573 73.694929 
L 449.397573 73.764443 
L 450.397573 73.788416 
L 451.397573 73.817038 
L 452.397573 73.858831 
L 453.397573 73.880407 
L 454.397573 73.894355 
L 455.397573 73.921077 
L 456.397573 73.930387 
L 457.397573 73.942834 
L 458.397573 73.953889 
L 459.397573 73.959553 
L 460.397573 73.964317 
L 461.397573 73.958769 
L 462.397573 73.945481 
L 463.397573 73.937964 
L 464.397573 73.913179 
L 465.397573 73.88961 
L 466.397573 73.85343 
L 467.397573 73.827468 
L 468.397573 73.805146 
L 469.397573 73.736386 
L 470.397573 73.661851 
L 471.397573 73.567872 
L 472.397573 73.51682 
L 473.397573 73.462886 
L 474.397573 73.427635 
L 475.397573 73.321547 
L 476.397573 73.269283 
L 477.397573 73.232376 
L 478.397573 73.201345 
L 479.397573 73.14019 
L 480.397573 73.07277 
L 481.397573 73.023864 
L 482.397573 72.958672 
L 483.397573 72.920484 
L 484.397573 72.878488 
L 485.397573 72.836471 
L 486.397573 72.776955 
L 487.397573 72.663795 
L 488.397573 72.611544 
L 489.397573 72.572126 
L 490.397573 72.525025 
L 491.397573 72.468245 
L 492.397573 72.435582 
L 493.397573 72.399404 
L 494.397573 72.367314 
L 495.397573 72.333034 
L 496.397573 72.274656 
L 497.397573 72.229471 
L 498.397573 72.199847 
L 499.397573 72.149461 
L 500.397573 72.124264 
L 501.397573 72.103213 
L 502.397573 72.068245 
L 503.397573 72.043955 
L 504.397573 72.029888 
L 505.397573 72.010946 
L 506.397573 71.995285 
L 507.397573 71.982733 
L 508.397573 71.976897 
L 509.397573 71.970015 
L 510.397573 71.964841 
L 511.397573 71.966624 
L 512.397573 71.969349 
L 513.397573 71.980503 
L 514.397573 72.008738 
L 515.397573 72.052526 
L 516.397573 72.073215 
L 517.397573 72.114188 
L 518.397573 72.154263 
L 519.397573 72.173373 
L 520.397573 72.195882 
L 521.397573 72.262533 
L 522.397573 72.312243 
L 523.397573 72.385949 
L 524.397573 72.417263 
L 525.397573 72.493885 
L 526.397573 72.532183 
L 527.397573 72.6063 
L 528.397573 72.710358 
L 529.397573 72.780189 
L 530.397573 72.885423 
L 531.397573 72.940438 
L 532.397573 73.063913 
L 533.397573 73.134472 
L 534.397573 73.250311 
L 535.397573 73.300492 
L 536.397573 73.336096 
L 537.397573 73.427503 
L 538.397573 73.481011 
L 539.397573 73.568919 
L 540.397573 73.638104 
L 541.397573 73.684868 
L 542.397573 73.756912 
L 543.397573 73.807054 
L 544.397573 73.824444 
L 545.397573 73.851447 
L 546.397573 73.870874 
L 547.397573 73.890212 
L 548.397573 73.928461 
L 549.397573 73.944894 
L 550.397573 73.953263 
L 551.397573 73.957582 
L 552.397573 73.964137 
L 553.397573 73.961591 
L 554.397573 73.956132 
L 555.397573 73.939704 
L 556.397573 73.907769 
L 557.397573 73.869789 
L 558.397573 73.834985 
L 559.397573 73.771913 
L 560.397573 73.750486 
L 561.397573 73.699868 
L 562.397573 73.674911 
L 563.397573 73.619277 
L 564.397573 73.588048 
L 565.397573 73.537904 
L 566.397573 73.505411 
L 567.397573 73.424999 
L 568.397573 73.356073 
L 569.397573 73.240376 
L 570.397573 73.164897 
L 571.397573 73.049372 
L 572.397573 72.969888 
L 573.904589 72.861447 
" clip-path="url(#pf34a4639fb)" style="fill: none; stroke: #ffffff; stroke-width: 3; stroke-linecap: round"/>
         <path d="M 343.397573 72.964375 
L 344.397573 72.995811 
L 345.397573 73.032752 
L 346.397573 73.130498 
L 347.397573 73.16302 
L 348.397573 73.236645 
L 349.397573 73.27521 
L 350.397573 73.310623 
L 351.397573 73.368263 
L 352.397573 73.438649 
L 353.397573 73.490614 
L 354.397573 73.549703 
L 355.397573 73.638024 
L 356.397573 73.684169 
L 357.397573 73.72658 
L 358.397573 73.757072 
L 359.397573 73.783117 
L 360.397573 73.804317 
L 361.397573 73.858618 
L 362.397573 73.886556 
L 363.397573 73.91628 
L 364.397573 73.941675 
L 365.397573 73.952875 
L 366.397573 73.962999 
L 367.397573 73.962795 
L 368.397573 73.953285 
L 369.397573 73.941631 
L 370.397573 73.910602 
L 371.397573 73.899434 
L 372.397573 73.869317 
L 373.397573 73.80954 
L 374.397573 73.772348 
L 375.397573 73.733252 
L 376.397573 73.690812 
L 377.397573 73.658047 
L 378.397573 73.590621 
L 379.397573 73.551495 
L 380.397573 73.50882 
L 381.397573 73.43824 
L 382.397573 73.401849 
L 383.397573 73.343446 
L 384.397573 73.232493 
L 385.397573 73.161835 
L 386.397573 73.048895 
L 387.397573 73.003122 
L 388.397573 72.941839 
L 389.397573 72.89334 
L 390.397573 72.812517 
L 391.397573 72.693998 
L 392.397573 72.623787 
L 393.397573 72.540525 
L 394.397573 72.507383 
L 395.397573 72.456146 
L 396.397573 72.387747 
L 397.397573 72.321532 
L 398.397573 72.244615 
L 399.397573 72.217299 
L 400.397573 72.190822 
L 401.397573 72.168171 
L 402.397573 72.14864 
L 403.397573 72.122246 
L 404.397573 72.072475 
L 405.397573 72.037402 
L 406.397573 72.001536 
L 407.397573 71.986169 
L 408.397573 71.9704 
L 409.397573 71.966987 
L 410.397573 71.96457 
L 411.397573 71.965056 
L 412.397573 71.966985 
L 413.397573 71.980242 
L 414.397573 71.988633 
L 415.397573 72.010169 
L 416.397573 72.033202 
L 417.397573 72.050435 
L 418.397573 72.068898 
L 419.397573 72.08935 
L 420.397573 72.10595 
L 421.397573 72.168729 
L 422.397573 72.243994 
L 423.397573 72.276633 
L 424.397573 72.344197 
L 425.397573 72.398244 
L 426.397573 72.431948 
L 427.397573 72.522074 
L 428.397573 72.550609 
L 429.397573 72.582095 
L 430.397573 72.613106 
L 431.397573 72.667914 
L 432.397573 72.732501 
L 433.397573 72.770697 
L 434.397573 72.866631 
L 435.397573 72.915889 
L 436.397573 72.959958 
L 437.397573 73.000082 
L 438.397573 73.108449 
L 439.397573 73.150077 
L 440.397573 73.212219 
L 441.397573 73.282181 
L 442.397573 73.386685 
L 443.397573 73.423673 
L 444.397573 73.46955 
L 445.397573 73.538045 
L 446.397573 73.586791 
L 447.397573 73.664388 
L 448.397573 73.694929 
L 449.397573 73.764443 
L 450.397573 73.788416 
L 451.397573 73.817038 
L 452.397573 73.858831 
L 453.397573 73.880407 
L 454.397573 73.894355 
L 455.397573 73.921077 
L 456.397573 73.930387 
L 457.397573 73.942834 
L 458.397573 73.953889 
L 459.397573 73.959553 
L 460.397573 73.964317 
L 461.397573 73.958769 
L 462.397573 73.945481 
L 463.397573 73.937964 
L 464.397573 73.913179 
L 465.397573 73.88961 
L 466.397573 73.85343 
L 467.397573 73.827468 
L 468.397573 73.805146 
L 469.397573 73.736386 
L 470.397573 73.661851 
L 471.397573 73.567872 
L 472.397573 73.51682 
L 473.397573 73.462886 
L 474.397573 73.427635 
L 475.397573 73.321547 
L 476.397573 73.269283 
L 477.397573 73.232376 
L 478.397573 73.201345 
L 479.397573 73.14019 
L 480.397573 73.07277 
L 481.397573 73.023864 
L 482.397573 72.958672 
L 483.397573 72.920484 
L 484.397573 72.878488 
L 485.397573 72.836471 
L 486.397573 72.776955 
L 487.397573 72.663795 
L 488.397573 72.611544 
L 489.397573 72.572126 
L 490.397573 72.525025 
L 491.397573 72.468245 
L 492.397573 72.435582 
L 493.397573 72.399404 
L 494.397573 72.367314 
L 495.397573 72.333034 
L 496.397573 72.274656 
L 497.397573 72.229471 
L 498.397573 72.199847 
L 499.397573 72.149461 
L 500.397573 72.124264 
L 501.397573 72.103213 
L 502.397573 72.068245 
L 503.397573 72.043955 
L 504.397573 72.029888 
L 505.397573 72.010946 
L 506.397573 71.995285 
L 507.397573 71.982733 
L 508.397573 71.976897 
L 509.397573 71.970015 
L 510.397573 71.964841 
L 511.397573 71.966624 
L 512.397573 71.969349 
L 513.397573 71.980503 
L 514.397573 72.008738 
L 515.397573 72.052526 
L 516.397573 72.073215 
L 517.397573 72.114188 
L 518.397573 72.154263 
L 519.397573 72.173373 
L 520.397573 72.195882 
L 521.397573 72.262533 
L 522.397573 72.312243 
L 523.397573 72.385949 
L 524.397573 72.417263 
L 525.397573 72.493885 
L 526.397573 72.532183 
L 527.397573 72.6063 
L 528.397573 72.710358 
L 529.397573 72.780189 
L 530.397573 72.885423 
L 531.397573 72.940438 
L 532.397573 73.063913 
L 533.397573 73.134472 
L 534.397573 73.250311 
L 535.397573 73.300492 
L 536.397573 73.336096 
L 537.397573 73.427503 
L 538.397573 73.481011 
L 539.397573 73.568919 
L 540.397573 73.638104 
L 541.397573 73.684868 
L 542.397573 73.756912 
L 543.397573 73.807054 
L 544.397573 73.824444 
L 545.397573 73.851447 
L 546.397573 73.870874 
L 547.397573 73.890212 
L 548.397573 73.928461 
L 549.397573 73.944894 
L 550.397573 73.953263 
L 551.397573 73.957582 
L 552.397573 73.964137 
L 553.397573 73.961591 
L 554.397573 73.956132 
L 555.397573 73.939704 
L 556.397573 73.907769 
L 557.397573 73.869789 
L 558.397573 73.834985 
L 559.397573 73.771913 
L 560.397573 73.750486 
L 561.397573 73.699868 
L 562.397573 73.674911 
L 563.397573 73.619277 
L 564.397573 73.588048 
L 565.397573 73.537904 
L 566.397573 73.505411 
L 567.397573 73.424999 
L 568.397573 73.356073 
L 569.397573 73.240376 
L 570.397573 73.164897 
L 571.397573 73.049372 
L 572.397573 72.969888 
L 573.904589 72.861447 
" clip-path="url(#pf34a4639fb)" style="fill: none; stroke: #1f77b4; stroke-linecap: round"/>
         <path d="M 569.904589 70.964375 
L 570.784957 71.439706 
L 571.662864 71.91996 
L 572.513578 72.454601 
L 573.815752 73.142048 
L 572.888399 73.168063 
L 571.976724 73.580783 
L 571.06646 73.996322 
L 569.723964 74.603126 
L 570.378863 73.964375 
L 570.430827 72.964375 
L 570.489917 70.964375 
z
" clip-path="url(#pf34a4639fb)" style="fill: #ffffff; stroke: #ffffff; stroke-width: 3; stroke-linecap: round"/>
         <path d="M 569.904589 70.964375 
L 570.784957 71.439706 
L 571.662864 71.91996 
L 572.513578 72.454601 
L 573.815752 73.142048 
L 572.888399 73.168063 
L 571.976724 73.580783 
L 571.06646 73.996322 
L 569.723964 74.603126 
L 570.378863 73.964375 
L 570.430827 72.964375 
L 570.489917 70.964375 
z
" clip-path="url(#pf34a4639fb)" style="fill: #ffffff; stroke: #1f77b4; stroke-linecap: round"/>
         <g id="patch_9">
          <path d="M 162.68281 203.95111 
L 163.68281 203.982547 
L 164.68281 204.019487 
L 165.68281 204.117234 
L 166.68281 204.149755 
L 167.68281 204.22338 
L 168.68281 204.261946 
L 169.68281 204.297359 
L 170.68281 204.354999 
L 171.68281 204.425385 
L 172.68281 204.477349 
L 173.68281 204.536439 
L 174.68281 204.62476 
L 175.68281 204.670904 
L 176.68281 204.713315 
L 177.68281 204.743808 
L 178.68281 204.769853 
L 179.68281 204.791053 
L 180.68281 204.845354 
L 181.68281 204.873291 
L 182.68281 204.903015 
L 183.68281 204.92841 
L 184.68281 204.939611 
L 185.68281 204.949735 
L 186.68281 204.94953 
L 187.68281 204.94002 
L 188.68281 204.928367 
L 189.68281 204.897337 
L 190.68281 204.88617 
L 191.68281 204.856052 
L 192.68281 204.796275 
L 193.68281 204.759084 
L 194.68281 204.719987 
L 195.68281 204.677548 
L 196.68281 204.644783 
L 197.68281 204.577356 
L 198.68281 204.53823 
L 199.68281 204.495556 
L 200.68281 204.424975 
L 201.68281 204.388584 
L 202.68281 204.330181 
L 203.68281 204.219229 
L 204.68281 204.14857 
L 205.68281 204.03563 
L 206.68281 203.989858 
L 207.68281 203.928574 
L 208.68281 203.880075 
L 209.68281 203.799252 
L 210.68281 203.680733 
L 211.68281 203.610523 
L 212.68281 203.52726 
L 213.68281 203.494119 
L 214.68281 203.442881 
L 215.68281 203.374483 
L 216.68281 203.308267 
L 217.68281 203.23135 
L 218.68281 203.204035 
L 219.68281 203.177557 
L 220.68281 203.154907 
L 221.68281 203.135375 
L 222.68281 203.108981 
L 223.68281 203.059211 
L 224.68281 203.024137 
L 225.68281 202.988272 
L 226.68281 202.972905 
L 227.68281 202.957135 
L 228.68281 202.953723 
L 229.68281 202.951305 
L 230.68281 202.951791 
L 231.68281 202.953721 
L 232.68281 202.966977 
L 233.68281 202.975368 
L 234.68281 202.996905 
L 235.68281 203.019937 
L 236.68281 203.037171 
L 237.68281 203.055633 
L 238.68281 203.076086 
L 239.68281 203.092686 
L 240.68281 203.155464 
L 241.68281 203.230729 
L 242.68281 203.263368 
L 243.68281 203.330932 
L 244.68281 203.384979 
L 245.68281 203.418683 
L 246.68281 203.508809 
L 247.68281 203.537344 
L 248.68281 203.568831 
L 249.68281 203.599841 
L 250.68281 203.654649 
L 251.68281 203.719237 
L 252.68281 203.757432 
L 253.68281 203.853366 
L 254.68281 203.902624 
L 255.68281 203.946694 
L 256.68281 203.986817 
L 257.68281 204.095184 
L 258.68281 204.136813 
L 259.68281 204.198954 
L 260.68281 204.268916 
L 261.68281 204.373421 
L 262.68281 204.410408 
L 263.68281 204.456286 
L 264.68281 204.52478 
L 265.68281 204.573526 
L 266.68281 204.651123 
L 267.68281 204.681664 
L 268.68281 204.751179 
L 269.68281 204.775152 
L 270.68281 204.803773 
L 271.68281 204.845566 
L 272.68281 204.867142 
L 273.68281 204.88109 
L 274.68281 204.907813 
L 275.68281 204.917122 
L 276.68281 204.929569 
L 277.68281 204.940624 
L 278.68281 204.946289 
L 279.68281 204.951052 
L 280.68281 204.945505 
L 281.68281 204.932217 
L 282.68281 204.924699 
L 283.68281 204.899914 
L 284.68281 204.876346 
L 285.68281 204.840165 
L 286.68281 204.814203 
L 287.68281 204.791882 
L 288.68281 204.723122 
L 289.68281 204.648587 
L 290.68281 204.554607 
L 291.68281 204.503555 
L 292.68281 204.449621 
L 293.68281 204.414371 
L 294.68281 204.308283 
L 295.68281 204.256018 
L 296.68281 204.219112 
L 297.68281 204.188081 
L 298.68281 204.126925 
L 299.68281 204.059505 
L 300.68281 204.010599 
L 301.68281 203.945407 
L 302.68281 203.90722 
L 303.68281 203.865224 
L 304.68281 203.823206 
L 305.68281 203.76369 
L 306.68281 203.65053 
L 307.68281 203.598279 
L 308.68281 203.558862 
L 309.68281 203.51176 
L 310.68281 203.454981 
L 311.68281 203.422318 
L 312.68281 203.38614 
L 313.68281 203.354049 
L 314.68281 203.319769 
L 315.68281 203.261392 
L 316.68281 203.216207 
L 317.68281 203.186583 
L 318.68281 203.136197 
L 319.68281 203.110999 
L 320.68281 203.089948 
L 321.68281 203.05498 
L 322.68281 203.03069 
L 323.68281 203.016623 
L 324.68281 202.997682 
L 325.68281 202.98202 
L 326.68281 202.969468 
L 327.68281 202.963633 
L 328.68281 202.95675 
L 329.68281 202.951576 
L 330.68281 202.953359 
L 331.68281 202.956085 
L 332.68281 202.967238 
L 333.68281 202.995473 
L 334.68281 203.039261 
L 335.68281 203.05995 
L 336.68281 203.100924 
L 337.68281 203.140999 
L 338.68281 203.160109 
L 339.68281 203.182617 
L 340.68281 203.249269 
L 341.68281 203.298978 
L 342.68281 203.372685 
L 343.68281 203.403998 
L 344.68281 203.480621 
L 345.68281 203.518919 
L 346.68281 203.593035 
L 347.68281 203.697094 
L 348.68281 203.766924 
L 349.68281 203.872158 
L 350.68281 203.927173 
L 351.68281 204.050648 
L 352.68281 204.121207 
L 353.68281 204.237047 
L 354.68281 204.287227 
L 355.68281 204.322832 
L 356.68281 204.414238 
L 357.68281 204.467746 
L 358.68281 204.555654 
L 359.68281 204.624839 
L 360.68281 204.671604 
L 361.68281 204.743647 
L 362.68281 204.793789 
L 363.68281 204.811179 
L 364.68281 204.838183 
L 365.68281 204.85761 
L 366.68281 204.876948 
L 367.68281 204.915196 
L 368.68281 204.93163 
L 369.68281 204.939998 
L 370.68281 204.944317 
L 371.68281 204.950873 
L 372.68281 204.948326 
L 373.68281 204.942868 
L 374.68281 204.926439 
L 375.68281 204.894505 
L 376.68281 204.856524 
L 377.68281 204.82172 
L 378.68281 204.758649 
L 379.68281 204.737222 
L 380.68281 204.686604 
L 381.68281 204.661646 
L 382.68281 204.606013 
L 383.68281 204.574784 
L 384.68281 204.52464 
L 385.68281 204.492147 
L 386.68281 204.411734 
L 387.68281 204.342808 
L 388.68281 204.227111 
L 389.68281 204.151632 
L 390.68281 204.036107 
L 391.68281 203.956623 
L 392.68281 203.848182 
L 393.68281 203.808815 
L 394.68281 203.705947 
L 395.68281 203.606149 
L 396.68281 203.560652 
L 397.68281 203.526329 
L 398.68281 203.474374 
L 399.68281 203.434727 
L 400.68281 203.399212 
L 401.68281 203.331567 
L 402.68281 203.292486 
L 403.68281 203.242004 
L 404.68281 203.192698 
L 405.68281 203.141629 
L 406.68281 203.097389 
L 407.68281 203.07537 
L 408.68281 203.059813 
L 409.68281 203.017366 
L 410.68281 203.002498 
L 411.68281 202.979771 
L 412.68281 202.959454 
L 413.68281 202.953658 
L 414.68281 202.951175 
L 415.68281 202.954232 
L 416.68281 202.965828 
L 417.68281 202.982748 
L 418.68281 203.014409 
L 419.68281 203.028493 
L 420.68281 203.081164 
L 421.68281 203.130254 
L 422.68281 203.184954 
L 423.68281 203.229302 
L 424.68281 203.299294 
L 425.68281 203.349677 
L 426.68281 203.403584 
L 427.68281 203.473023 
L 428.68281 203.530411 
L 429.68281 203.580576 
L 430.68281 203.657738 
L 431.68281 203.715928 
L 432.68281 203.776567 
L 433.68281 203.813768 
L 434.68281 203.878859 
L 435.68281 203.983989 
L 436.68281 204.044291 
L 437.68281 204.140613 
L 438.68281 204.172616 
L 439.68281 204.223633 
L 440.68281 204.340426 
L 441.68281 204.375872 
L 442.68281 204.431753 
L 443.68281 204.462128 
L 444.68281 204.550514 
L 445.68281 204.595279 
L 446.68281 204.676166 
L 447.68281 204.736312 
L 448.68281 204.799398 
L 449.68281 204.822347 
L 450.68281 204.838517 
L 451.68281 204.867446 
L 452.68281 204.897797 
L 454.495918 204.910372 
" clip-path="url(#pf34a4639fb)" style="fill: none; stroke: #ffffff; stroke-width: 3; stroke-linecap: round"/>
          <path d="M 162.68281 203.95111 
L 163.68281 203.982547 
L 164.68281 204.019487 
L 165.68281 204.117234 
L 166.68281 204.149755 
L 167.68281 204.22338 
L 168.68281 204.261946 
L 169.68281 204.297359 
L 170.68281 204.354999 
L 171.68281 204.425385 
L 172.68281 204.477349 
L 173.68281 204.536439 
L 174.68281 204.62476 
L 175.68281 204.670904 
L 176.68281 204.713315 
L 177.68281 204.743808 
L 178.68281 204.769853 
L 179.68281 204.791053 
L 180.68281 204.845354 
L 181.68281 204.873291 
L 182.68281 204.903015 
L 183.68281 204.92841 
L 184.68281 204.939611 
L 185.68281 204.949735 
L 186.68281 204.94953 
L 187.68281 204.94002 
L 188.68281 204.928367 
L 189.68281 204.897337 
L 190.68281 204.88617 
L 191.68281 204.856052 
L 192.68281 204.796275 
L 193.68281 204.759084 
L 194.68281 204.719987 
L 195.68281 204.677548 
L 196.68281 204.644783 
L 197.68281 204.577356 
L 198.68281 204.53823 
L 199.68281 204.495556 
L 200.68281 204.424975 
L 201.68281 204.388584 
L 202.68281 204.330181 
L 203.68281 204.219229 
L 204.68281 204.14857 
L 205.68281 204.03563 
L 206.68281 203.989858 
L 207.68281 203.928574 
L 208.68281 203.880075 
L 209.68281 203.799252 
L 210.68281 203.680733 
L 211.68281 203.610523 
L 212.68281 203.52726 
L 213.68281 203.494119 
L 214.68281 203.442881 
L 215.68281 203.374483 
L 216.68281 203.308267 
L 217.68281 203.23135 
L 218.68281 203.204035 
L 219.68281 203.177557 
L 220.68281 203.154907 
L 221.68281 203.135375 
L 222.68281 203.108981 
L 223.68281 203.059211 
L 224.68281 203.024137 
L 225.68281 202.988272 
L 226.68281 202.972905 
L 227.68281 202.957135 
L 228.68281 202.953723 
L 229.68281 202.951305 
L 230.68281 202.951791 
L 231.68281 202.953721 
L 232.68281 202.966977 
L 233.68281 202.975368 
L 234.68281 202.996905 
L 235.68281 203.019937 
L 236.68281 203.037171 
L 237.68281 203.055633 
L 238.68281 203.076086 
L 239.68281 203.092686 
L 240.68281 203.155464 
L 241.68281 203.230729 
L 242.68281 203.263368 
L 243.68281 203.330932 
L 244.68281 203.384979 
L 245.68281 203.418683 
L 246.68281 203.508809 
L 247.68281 203.537344 
L 248.68281 203.568831 
L 249.68281 203.599841 
L 250.68281 203.654649 
L 251.68281 203.719237 
L 252.68281 203.757432 
L 253.68281 203.853366 
L 254.68281 203.902624 
L 255.68281 203.946694 
L 256.68281 203.986817 
L 257.68281 204.095184 
L 258.68281 204.136813 
L 259.68281 204.198954 
L 260.68281 204.268916 
L 261.68281 204.373421 
L 262.68281 204.410408 
L 263.68281 204.456286 
L 264.68281 204.52478 
L 265.68281 204.573526 
L 266.68281 204.651123 
L 267.68281 204.681664 
L 268.68281 204.751179 
L 269.68281 204.775152 
L 270.68281 204.803773 
L 271.68281 204.845566 
L 272.68281 204.867142 
L 273.68281 204.88109 
L 274.68281 204.907813 
L 275.68281 204.917122 
L 276.68281 204.929569 
L 277.68281 204.940624 
L 278.68281 204.946289 
L 279.68281 204.951052 
L 280.68281 204.945505 
L 281.68281 204.932217 
L 282.68281 204.924699 
L 283.68281 204.899914 
L 284.68281 204.876346 
L 285.68281 204.840165 
L 286.68281 204.814203 
L 287.68281 204.791882 
L 288.68281 204.723122 
L 289.68281 204.648587 
L 290.68281 204.554607 
L 291.68281 204.503555 
L 292.68281 204.449621 
L 293.68281 204.414371 
L 294.68281 204.308283 
L 295.68281 204.256018 
L 296.68281 204.219112 
L 297.68281 204.188081 
L 298.68281 204.126925 
L 299.68281 204.059505 
L 300.68281 204.010599 
L 301.68281 203.945407 
L 302.68281 203.90722 
L 303.68281 203.865224 
L 304.68281 203.823206 
L 305.68281 203.76369 
L 306.68281 203.65053 
L 307.68281 203.598279 
L 308.68281 203.558862 
L 309.68281 203.51176 
L 310.68281 203.454981 
L 311.68281 203.422318 
L 312.68281 203.38614 
L 313.68281 203.354049 
L 314.68281 203.319769 
L 315.68281 203.261392 
L 316.68281 203.216207 
L 317.68281 203.186583 
L 318.68281 203.136197 
L 319.68281 203.110999 
L 320.68281 203.089948 
L 321.68281 203.05498 
L 322.68281 203.03069 
L 323.68281 203.016623 
L 324.68281 202.997682 
L 325.68281 202.98202 
L 326.68281 202.969468 
L 327.68281 202.963633 
L 328.68281 202.95675 
L 329.68281 202.951576 
L 330.68281 202.953359 
L 331.68281 202.956085 
L 332.68281 202.967238 
L 333.68281 202.995473 
L 334.68281 203.039261 
L 335.68281 203.05995 
L 336.68281 203.100924 
L 337.68281 203.140999 
L 338.68281 203.160109 
L 339.68281 203.182617 
L 340.68281 203.249269 
L 341.68281 203.298978 
L 342.68281 203.372685 
L 343.68281 203.403998 
L 344.68281 203.480621 
L 345.68281 203.518919 
L 346.68281 203.593035 
L 347.68281 203.697094 
L 348.68281 203.766924 
L 349.68281 203.872158 
L 350.68281 203.927173 
L 351.68281 204.050648 
L 352.68281 204.121207 
L 353.68281 204.237047 
L 354.68281 204.287227 
L 355.68281 204.322832 
L 356.68281 204.414238 
L 357.68281 204.467746 
L 358.68281 204.555654 
L 359.68281 204.624839 
L 360.68281 204.671604 
L 361.68281 204.743647 
L 362.68281 204.793789 
L 363.68281 204.811179 
L 364.68281 204.838183 
L 365.68281 204.85761 
L 366.68281 204.876948 
L 367.68281 204.915196 
L 368.68281 204.93163 
L 369.68281 204.939998 
L 370.68281 204.944317 
L 371.68281 204.950873 
L 372.68281 204.948326 
L 373.68281 204.942868 
L 374.68281 204.926439 
L 375.68281 204.894505 
L 376.68281 204.856524 
L 377.68281 204.82172 
L 378.68281 204.758649 
L 379.68281 204.737222 
L 380.68281 204.686604 
L 381.68281 204.661646 
L 382.68281 204.606013 
L 383.68281 204.574784 
L 384.68281 204.52464 
L 385.68281 204.492147 
L 386.68281 204.411734 
L 387.68281 204.342808 
L 388.68281 204.227111 
L 389.68281 204.151632 
L 390.68281 204.036107 
L 391.68281 203.956623 
L 392.68281 203.848182 
L 393.68281 203.808815 
L 394.68281 203.705947 
L 395.68281 203.606149 
L 396.68281 203.560652 
L 397.68281 203.526329 
L 398.68281 203.474374 
L 399.68281 203.434727 
L 400.68281 203.399212 
L 401.68281 203.331567 
L 402.68281 203.292486 
L 403.68281 203.242004 
L 404.68281 203.192698 
L 405.68281 203.141629 
L 406.68281 203.097389 
L 407.68281 203.07537 
L 408.68281 203.059813 
L 409.68281 203.017366 
L 410.68281 203.002498 
L 411.68281 202.979771 
L 412.68281 202.959454 
L 413.68281 202.953658 
L 414.68281 202.951175 
L 415.68281 202.954232 
L 416.68281 202.965828 
L 417.68281 202.982748 
L 418.68281 203.014409 
L 419.68281 203.028493 
L 420.68281 203.081164 
L 421.68281 203.130254 
L 422.68281 203.184954 
L 423.68281 203.229302 
L 424.68281 203.299294 
L 425.68281 203.349677 
L 426.68281 203.403584 
L 427.68281 203.473023 
L 428.68281 203.530411 
L 429.68281 203.580576 
L 430.68281 203.657738 
L 431.68281 203.715928 
L 432.68281 203.776567 
L 433.68281 203.813768 
L 434.68281 203.878859 
L 435.68281 203.983989 
L 436.68281 204.044291 
L 437.68281 204.140613 
L 438.68281 204.172616 
L 439.68281 204.223633 
L 440.68281 204.340426 
L 441.68281 204.375872 
L 442.68281 204.431753 
L 443.68281 204.462128 
L 444.68281 204.550514 
L 445.68281 204.595279 
L 446.68281 204.676166 
L 447.68281 204.736312 
L 448.68281 204.799398 
L 449.68281 204.822347 
L 450.68281 204.838517 
L 451.68281 204.867446 
L 452.68281 204.897797 
L 454.495918 204.910372 
" clip-path="url(#pf34a4639fb)" style="fill: none; stroke: #ff7f0e; stroke-linecap: round"/>
          <path d="M 450.495918 201.95111 
L 451.376286 202.426442 
L 452.254193 202.906696 
L 453.104907 203.441336 
L 454.407081 204.128784 
L 453.479728 204.154799 
L 452.568054 204.567518 
L 451.657789 204.983057 
L 450.315293 205.589862 
L 450.970192 204.95111 
L 451.022156 203.95111 
L 451.081246 201.95111 
z
" clip-path="url(#pf34a4639fb)" style="fill: #ffffff; stroke: #ffffff; stroke-width: 3; stroke-linecap: round"/>
          <path d="M 450.495918 201.95111 
L 451.376286 202.426442 
L 452.254193 202.906696 
L 453.104907 203.441336 
L 454.407081 204.128784 
L 453.479728 204.154799 
L 452.568054 204.567518 
L 451.657789 204.983057 
L 450.315293 205.589862 
L 450.970192 204.95111 
L 451.022156 203.95111 
L 451.081246 201.95111 
z
" clip-path="url(#pf34a4639fb)" style="fill: #ffffff; stroke: #ff7f0e; stroke-linecap: round"/>
          <path d="M 464.188093 303.612285 
" clip-path="url(#pf34a4639fb)" style="fill: none; stroke-dasharray: 3.7,1.6; stroke-dashoffset: 0; stroke: #2ca02c"/>
          <path d="M 463.188093 303.612285 
L 465.188093 304.612285 
L 465.188093 302.612285 
z
" clip-path="url(#pf34a4639fb)" style="fill: #2ca02c; stroke: #2ca02c; stroke-linejoin: miter"/>
          <g id="patch_10">
           <path d="M 63.290625 321.621875 
L 63.290625 10.8 
" style="fill: none; stroke: #000000; stroke-width: 0.8; stroke-linejoin: miter; stroke-linecap: square"/>
          </g>
          <g id="text_14">
           <g id="patch_11">
            <path d="M 327.717767 112.650078 
L 349.022454 112.650078 
Q 351.022454 112.650078 351.022454 110.650078 
L 351.022454 100.971953 
Q 351.022454 98.971953 349.022454 98.971953 
L 327.717767 98.971953 
Q 325.717767 98.971953 325.717767 100.971953 
L 325.717767 110.650078 
Q 325.717767 112.650078 327.717767 112.650078 
z
" style="fill: #ffffff; opacity: 0.6"/>
           </g>
           <!-- ANC -->
           <g transform="translate(327.717767 108.570391) scale(0.1 -0.1)">
            <defs>
             <path id="DejaVuSans-4e" d="M 628 4666 
L 1478 4666 
L 3547 763 
L 3547 4666 
L 4159 4666 
L 4159 0 
L 3309 0 
L 1241 3903 
L 1241 0 
L 628 0 
L 628 4666 
z
" transform="scale(0.015625)"/>
            </defs>
            <use xlink:href="#DejaVuSans-41"/>
            <use xlink:href="#DejaVuSans-4e" x="68.408203"/>
            <use xlink:href="#DejaVuSans-43" x="143.212891"/>
           </g>
          </g>
         </g>
        </g>
        <defs>
         <clipPath id="pf34a4639fb">
          <rect x="63.290625" y="10.8" width="540.309375" height="310.821875"/>
         </clipPath>
        </defs>
       </g>
      </g>
     </g>
    </g>
   </g>
  </g>
 </g>
</svg>
