<?xml version="1.0" encoding="utf-8" standalone="no"?>
<!DOCTYPE svg PUBLIC "-//W3C//DTD SVG 1.1//EN"
  "http://www.w3.org/Graphics/SVG/1.1/DTD/svg11.dtd">
<svg xmlns:xlink="http://www.w3.org/1999/xlink" width="614.4pt" height="345.6pt" viewBox="0 0 614.4 345.6" xmlns="http://www.w3.org/2000/svg" version="1.1">
 <metadata>
  <rdf:RDF xmlns:dc="http://purl.org/dc/elements/1.1/" xmlns:cc="http://creativecommons.org/ns#" xmlns:rdf="http://www.w3.org/1999/02/22-rdf-syntax-ns#">
   <cc:Work>
    <dc:type rdf:resource="http://purl.org/dc/dcmitype/StillImage"/>
    <dc:date>2024-04-17T19:40:11.339244</dc:date>
    <dc:format>image/svg+xml</dc:format>
    <dc:creator>
     <cc:Agent>
      <dc:title>Matplotlib v3.7.1, https://matplotlib.org/</dc:title>
     </cc:Agent>
    </dc:creator>
   </cc:Work>
  </rdf:RDF>
 </metadata>
 <defs>
  <style type="text/css">*{stroke-linejoin: round; stroke-linecap: butt}</style>
 </defs>
 <g id="figure_1">
  <g id="patch_1">
   <path d="M 0 345.6 
L 614.4 345.6 
L 614.4 0 
L 0 0 
z
" style="fill: #ffffff"/>
  </g>
  <g id="axes_1">
   <g id="patch_2">
    <path d="M 63.290625 321.621875 
L 603.6 321.621875 
L 603.6 10.8 
L 63.290625 10.8 
z
" style="fill: #ffffff"/>
   </g>
   <path d="M 554.300917 286.579261 
L 553.300917 286.547825 
L 552.300917 286.510885 
L 551.300917 286.413138 
L 550.300917 286.380617 
L 549.300917 286.306992 
L 548.300917 286.268426 
L 547.300917 286.233013 
L 546.300917 286.175373 
L 545.300917 286.104987 
L 544.300917 286.053023 
L 543.300917 285.993933 
L 542.300917 285.905612 
L 541.300917 285.859468 
L 540.300917 285.817057 
L 539.300917 285.786564 
L 538.300917 285.760519 
L 537.300917 285.739319 
L 536.300917 285.685018 
L 535.300917 285.65708 
L 534.300917 285.627356 
L 533.300917 285.601962 
L 532.300917 285.590761 
L 531.300917 285.580637 
L 530.300917 285.580842 
L 529.300917 285.590351 
L 528.300917 285.602005 
L 527.300917 285.633034 
L 526.300917 285.644202 
L 525.300917 285.67432 
L 524.300917 285.734097 
L 523.300917 285.771288 
L 522.300917 285.810384 
L 521.300917 285.852824 
L 520.300917 285.885589 
L 519.300917 285.953016 
L 518.300917 285.992141 
L 517.300917 286.034816 
L 516.300917 286.105397 
L 515.300917 286.141787 
L 514.300917 286.200191 
L 513.300917 286.311143 
L 512.300917 286.381802 
L 511.300917 286.494741 
L 510.300917 286.540514 
L 509.300917 286.601797 
L 508.300917 286.650297 
L 507.300917 286.731119 
L 506.300917 286.849638 
L 505.300917 286.919849 
L 504.300917 287.003112 
L 503.300917 287.036253 
L 502.300917 287.087491 
L 501.300917 287.155889 
L 500.300917 287.222104 
L 499.300917 287.299021 
L 498.300917 287.326337 
L 497.300917 287.352814 
L 496.300917 287.375465 
L 495.300917 287.394996 
L 494.300917 287.42139 
L 493.300917 287.471161 
L 492.300917 287.506234 
L 491.300917 287.5421 
L 490.300917 287.557467 
L 489.300917 287.573236 
L 488.300917 287.576649 
L 487.300917 287.579067 
L 486.300917 287.578581 
L 485.300917 287.576651 
L 484.300917 287.563394 
L 483.300917 287.555004 
L 482.300917 287.533467 
L 481.300917 287.510435 
L 480.300917 287.493201 
L 479.300917 287.474739 
L 478.300917 287.454286 
L 477.300917 287.437686 
L 476.300917 287.374908 
L 475.300917 287.299643 
L 474.300917 287.267003 
L 473.300917 287.19944 
L 472.300917 287.145393 
L 471.300917 287.111688 
L 470.300917 287.021562 
L 469.300917 286.993027 
L 468.300917 286.961541 
L 467.300917 286.93053 
L 466.300917 286.875722 
L 465.300917 286.811135 
L 464.300917 286.77294 
L 463.300917 286.677006 
L 462.300917 286.627748 
L 461.300917 286.583678 
L 460.300917 286.543554 
L 459.300917 286.435187 
L 458.300917 286.393559 
L 457.300917 286.331418 
L 456.300917 286.261455 
L 455.300917 286.156951 
L 454.300917 286.119964 
L 453.300917 286.074086 
L 452.300917 286.005592 
L 451.300917 285.956846 
L 450.300917 285.879248 
L 449.300917 285.848708 
L 448.300917 285.779193 
L 447.103548 285.75522 
" clip-path="url(#pbac7a8645f)" style="fill: none; stroke-dasharray: 3.7,1.6; stroke-dashoffset: 0; stroke: #2ca02c"/>
   <g id="patch_3">
    <path d="M 292.501349 10.8 
L 292.501349 91.325483 
M 324.138709 10.8 
L 324.138709 91.325483 
" clip-path="url(#pbac7a8645f)" style="fill: none; stroke: #ffffff; stroke-width: 3; stroke-linejoin: miter"/>
    <path d="M 292.501349 10.8 
L 292.501349 91.325483 
M 324.138709 10.8 
L 324.138709 91.325483 
" clip-path="url(#pbac7a8645f)" style="fill: none; stroke: #1f77b4; stroke-linejoin: miter"/>
    <g id="PolyCollection_1">
     <path d="M 324.138709 10.8 
L 292.501349 10.8 
L 292.501349 91.325483 
L 324.138709 91.325483 
L 324.138709 91.325483 
L 324.138709 10.8 
z
" clip-path="url(#pbac7a8645f)" style="fill: #1f77b4; fill-opacity: 0.5"/>
    </g>
    <g id="patch_4">
     <path d="M 109.729688 91.325483 
L 109.667438 304.126402 
L 108.803227 306.268705 
L 107.783686 308.232483 
L 106.61672 310.017735 
L 105.323067 311.624462 
L 103.746441 313.231189 
L 101.824946 314.837916 
L 99.766801 316.266118 
L 97.31299 317.69432 
L 94.387449 319.122522 
L 90.899491 320.550724 
L 87.850142 321.621875 
M 115.332043 91.325483 
L 115.394293 304.126402 
L 116.258504 306.268705 
L 117.278045 308.232483 
L 118.44501 310.017735 
L 119.738664 311.624462 
L 121.31529 313.231189 
L 123.236785 314.837916 
L 125.29493 316.266118 
L 127.748741 317.69432 
L 130.674282 319.122522 
L 134.16224 320.550724 
L 137.211589 321.621875 
L 137.211589 321.621875 
" clip-path="url(#pbac7a8645f)" style="fill: none; stroke: #ffffff; stroke-width: 3; stroke-linejoin: miter"/>
     <path d="M 109.729688 91.325483 
L 109.667438 304.126402 
L 108.803227 306.268705 
L 107.783686 308.232483 
L 106.61672 310.017735 
L 105.323067 311.624462 
L 103.746441 313.231189 
L 101.824946 314.837916 
L 99.766801 316.266118 
L 97.31299 317.69432 
L 94.387449 319.122522 
L 90.899491 320.550724 
L 87.850142 321.621875 
M 115.332043 91.325483 
L 115.394293 304.126402 
L 116.258504 306.268705 
L 117.278045 308.232483 
L 118.44501 310.017735 
L 119.738664 311.624462 
L 121.31529 313.231189 
L 123.236785 314.837916 
L 125.29493 316.266118 
L 127.748741 317.69432 
L 130.674282 319.122522 
L 134.16224 320.550724 
L 137.211589 321.621875 
L 137.211589 321.621875 
" clip-path="url(#pbac7a8645f)" style="fill: none; stroke: #ff7f0e; stroke-linejoin: miter"/>
     <g id="PolyCollection_2">
      <path d="M 115.332043 91.325483 
L 109.729688 91.325483 
L 109.729688 303.947877 
L 109.729688 303.947877 
L 109.667438 304.126402 
L 109.603804 304.304928 
L 109.538756 304.483453 
L 109.472263 304.661978 
L 109.404291 304.840503 
L 109.33481 305.019028 
L 109.263784 305.197554 
L 109.19118 305.376079 
L 109.116962 305.554604 
L 109.041095 305.733129 
L 108.963542 305.911655 
L 108.884266 306.09018 
L 108.803227 306.268705 
L 108.720388 306.44723 
L 108.635708 306.625756 
L 108.549146 306.804281 
L 108.460661 306.982806 
L 108.370209 307.161331 
L 108.277747 307.339856 
L 108.18323 307.518382 
L 108.086612 307.696907 
L 107.987848 307.875432 
L 107.886889 308.053957 
L 107.783686 308.232483 
L 107.678189 308.411008 
L 107.570349 308.589533 
L 107.460111 308.768058 
L 107.347424 308.946584 
L 107.232233 309.125109 
L 107.114481 309.303634 
L 106.994113 309.482159 
L 106.87107 309.660684 
L 106.745293 309.83921 
L 106.61672 310.017735 
L 106.485291 310.19626 
L 106.35094 310.374785 
L 106.213604 310.553311 
L 106.073216 310.731836 
L 105.929708 310.910361 
L 105.78301 311.088886 
L 105.633053 311.267412 
L 105.479763 311.445937 
L 105.323067 311.624462 
L 105.162888 311.802987 
L 104.99915 311.981512 
L 104.831773 312.160038 
L 104.660677 312.338563 
L 104.485778 312.517088 
L 104.306992 312.695613 
L 104.124233 312.874139 
L 103.937413 313.052664 
L 103.746441 313.231189 
L 103.551225 313.409714 
L 103.351671 313.58824 
L 103.147682 313.766765 
L 102.93916 313.94529 
L 102.726004 314.123815 
L 102.508111 314.302341 
L 102.285376 314.480866 
L 102.057691 314.659391 
L 101.824946 314.837916 
L 101.587029 315.016441 
L 101.343825 315.194967 
L 101.095216 315.373492 
L 100.841082 315.552017 
L 100.5813 315.730542 
L 100.315745 315.909068 
L 100.044289 316.087593 
L 99.766801 316.266118 
L 99.483145 316.444643 
L 99.193187 316.623169 
L 98.896784 316.801694 
L 98.593794 316.980219 
L 98.284071 317.158744 
L 97.967465 317.337269 
L 97.643824 317.515795 
L 97.31299 317.69432 
L 96.974803 317.872845 
L 96.629102 318.05137 
L 96.275718 318.229896 
L 95.91448 318.408421 
L 95.545215 318.586946 
L 95.167744 318.765471 
L 94.781884 318.943997 
L 94.387449 319.122522 
L 93.984249 319.301047 
L 93.572088 319.479572 
L 93.150768 319.658097 
L 92.720085 319.836623 
L 92.279831 320.015148 
L 91.829793 320.193673 
L 91.369754 320.372198 
L 90.899491 320.550724 
L 90.418778 320.729249 
L 89.927382 320.907774 
L 89.425066 321.086299 
L 88.911587 321.264825 
L 88.386697 321.44335 
L 87.850142 321.621875 
L 137.211589 321.621875 
L 137.211589 321.621875 
L 136.675034 321.44335 
L 136.150144 321.264825 
L 135.636665 321.086299 
L 135.134349 320.907774 
L 134.642953 320.729249 
L 134.16224 320.550724 
L 133.691977 320.372198 
L 133.231938 320.193673 
L 132.7819 320.015148 
L 132.341646 319.836623 
L 131.910963 319.658097 
L 131.489643 319.479572 
L 131.077482 319.301047 
L 130.674282 319.122522 
L 130.279847 318.943997 
L 129.893987 318.765471 
L 129.516516 318.586946 
L 129.147251 318.408421 
L 128.786013 318.229896 
L 128.432629 318.05137 
L 128.086927 317.872845 
L 127.748741 317.69432 
L 127.417907 317.515795 
L 127.094265 317.337269 
L 126.77766 317.158744 
L 126.467937 316.980219 
L 126.164947 316.801694 
L 125.868544 316.623169 
L 125.578586 316.444643 
L 125.29493 316.266118 
L 125.017442 316.087593 
L 124.745986 315.909068 
L 124.480431 315.730542 
L 124.220649 315.552017 
L 123.966515 315.373492 
L 123.717906 315.194967 
L 123.474702 315.016441 
L 123.236785 314.837916 
L 123.00404 314.659391 
L 122.776355 314.480866 
L 122.55362 314.302341 
L 122.335727 314.123815 
L 122.122571 313.94529 
L 121.914048 313.766765 
L 121.71006 313.58824 
L 121.510506 313.409714 
L 121.31529 313.231189 
L 121.124318 313.052664 
L 120.937498 312.874139 
L 120.754739 312.695613 
L 120.575953 312.517088 
L 120.401054 312.338563 
L 120.229958 312.160038 
L 120.062581 311.981512 
L 119.898842 311.802987 
L 119.738664 311.624462 
L 119.581968 311.445937 
L 119.428678 311.267412 
L 119.278721 311.088886 
L 119.132023 310.910361 
L 118.988515 310.731836 
L 118.848127 310.553311 
L 118.710791 310.374785 
L 118.57644 310.19626 
L 118.44501 310.017735 
L 118.316438 309.83921 
L 118.190661 309.660684 
L 118.067618 309.482159 
L 117.94725 309.303634 
L 117.829498 309.125109 
L 117.714307 308.946584 
L 117.60162 308.768058 
L 117.491382 308.589533 
L 117.383542 308.411008 
L 117.278045 308.232483 
L 117.174842 308.053957 
L 117.073883 307.875432 
L 116.975119 307.696907 
L 116.878501 307.518382 
L 116.783984 307.339856 
L 116.691522 307.161331 
L 116.60107 306.982806 
L 116.512585 306.804281 
L 116.426023 306.625756 
L 116.341343 306.44723 
L 116.258504 306.268705 
L 116.177465 306.09018 
L 116.098189 305.911655 
L 116.020636 305.733129 
L 115.944769 305.554604 
L 115.870551 305.376079 
L 115.797947 305.197554 
L 115.726921 305.019028 
L 115.657439 304.840503 
L 115.589468 304.661978 
L 115.522975 304.483453 
L 115.457927 304.304928 
L 115.394293 304.126402 
L 115.332043 303.947877 
L 115.332043 303.947877 
L 115.332043 91.325483 
z
" clip-path="url(#pbac7a8645f)" style="fill: #ff7f0e; fill-opacity: 0.5"/>
     </g>
     <g id="patch_5">
      <path d="M 559.704011 72.964375 
L 559.704011 321.621875 
M 579.040483 72.964375 
L 579.040483 321.621875 
" clip-path="url(#pbac7a8645f)" style="fill: none; stroke: #ffffff; stroke-width: 3; stroke-linejoin: miter"/>
      <path d="M 559.704011 72.964375 
L 559.704011 321.621875 
M 579.040483 72.964375 
L 579.040483 321.621875 
" clip-path="url(#pbac7a8645f)" style="fill: none; stroke: #2ca02c; stroke-linejoin: miter"/>
      <g id="PolyCollection_3">
       <path d="M 579.040483 72.964375 
L 559.704011 72.964375 
L 559.704011 321.621875 
L 579.040483 321.621875 
L 579.040483 321.621875 
L 579.040483 72.964375 
z
" clip-path="url(#pbac7a8645f)" style="fill: #2ca02c; fill-opacity: 0.5"/>
      </g>
      <g id="patch_6">
       <path d="M 435.991822 187.330029 
L 435.991822 245.848903 
L 437.60117 245.848903 
L 437.60117 247.204037 
L 435.991822 247.204037 
L 435.895189 303.842998 
L 434.994562 305.294335 
L 433.819064 306.745672 
L 432.499664 308.015592 
L 430.833976 309.285512 
L 429.062343 310.374014 
L 426.898971 311.462517 
L 424.257237 312.55102 
L 421.03137 313.639522 
L 417.092205 314.728025 
L 412.28202 315.816528 
L 406.408216 316.90503 
L 399.23561 317.993533 
L 390.477011 319.082035 
L 379.781729 320.170538 
L 366.721528 321.259041 
L 361.755315 321.621875 
M 441.700454 187.330029 
L 441.700454 245.848903 
L 440.091105 245.848903 
L 440.091105 247.204037 
L 441.700454 247.204037 
L 441.797086 303.842998 
L 442.697714 305.294335 
L 443.873212 306.745672 
L 445.192612 308.015592 
L 446.8583 309.285512 
L 448.629933 310.374014 
L 450.793305 311.462517 
L 453.435038 312.55102 
L 456.660906 313.639522 
L 460.600071 314.728025 
L 465.410256 315.816528 
L 471.284059 316.90503 
L 478.456666 317.993533 
L 487.215265 319.082035 
L 497.910547 320.170538 
L 510.970747 321.259041 
L 515.93696 321.621875 
L 515.93696 321.621875 
" clip-path="url(#pbac7a8645f)" style="fill: none; stroke: #ffffff; stroke-width: 3; stroke-linejoin: miter"/>
       <path d="M 435.991822 187.330029 
L 435.991822 245.848903 
L 437.60117 245.848903 
L 437.60117 247.204037 
L 435.991822 247.204037 
L 435.895189 303.842998 
L 434.994562 305.294335 
L 433.819064 306.745672 
L 432.499664 308.015592 
L 430.833976 309.285512 
L 429.062343 310.374014 
L 426.898971 311.462517 
L 424.257237 312.55102 
L 421.03137 313.639522 
L 417.092205 314.728025 
L 412.28202 315.816528 
L 406.408216 316.90503 
L 399.23561 317.993533 
L 390.477011 319.082035 
L 379.781729 320.170538 
L 366.721528 321.259041 
L 361.755315 321.621875 
M 441.700454 187.330029 
L 441.700454 245.848903 
L 440.091105 245.848903 
L 440.091105 247.204037 
L 441.700454 247.204037 
L 441.797086 303.842998 
L 442.697714 305.294335 
L 443.873212 306.745672 
L 445.192612 308.015592 
L 446.8583 309.285512 
L 448.629933 310.374014 
L 450.793305 311.462517 
L 453.435038 312.55102 
L 456.660906 313.639522 
L 460.600071 314.728025 
L 465.410256 315.816528 
L 471.284059 316.90503 
L 478.456666 317.993533 
L 487.215265 319.082035 
L 497.910547 320.170538 
L 510.970747 321.259041 
L 515.93696 321.621875 
L 515.93696 321.621875 
" clip-path="url(#pbac7a8645f)" style="fill: none; stroke: #d62728; stroke-linejoin: miter"/>
       <g id="PolyCollection_4">
        <path d="M 441.700454 187.330029 
L 435.991822 187.330029 
L 435.991822 245.848903 
L 437.60117 245.848903 
L 437.60117 247.204037 
L 435.991822 247.204037 
L 435.991822 303.661581 
L 435.991822 303.661581 
L 435.895189 303.842998 
L 435.795285 304.024415 
L 435.691999 304.205833 
L 435.585216 304.38725 
L 435.474817 304.568667 
L 435.360681 304.750084 
L 435.242682 304.931501 
L 435.120687 305.112918 
L 434.994562 305.294335 
L 434.864167 305.475752 
L 434.729358 305.657169 
L 434.589984 305.838587 
L 434.445893 306.020004 
L 434.296923 306.201421 
L 434.142909 306.382838 
L 433.983682 306.564255 
L 433.819064 306.745672 
L 433.648873 306.927089 
L 433.47292 307.108506 
L 433.29101 307.289923 
L 433.102941 307.47134 
L 432.908506 307.652758 
L 432.707487 307.834175 
L 432.499664 308.015592 
L 432.284804 308.197009 
L 432.062671 308.378426 
L 431.833017 308.559843 
L 431.595589 308.74126 
L 431.350122 308.922677 
L 431.096345 309.104094 
L 430.833976 309.285512 
L 430.562725 309.466929 
L 430.28229 309.648346 
L 429.992362 309.829763 
L 429.692618 310.01118 
L 429.382726 310.192597 
L 429.062343 310.374014 
L 428.731113 310.555431 
L 428.38867 310.736848 
L 428.034633 310.918266 
L 427.66861 311.099683 
L 427.290196 311.2811 
L 426.898971 311.462517 
L 426.4945 311.643934 
L 426.076336 311.825351 
L 425.644015 312.006768 
L 425.197059 312.188185 
L 424.73497 312.369602 
L 424.257237 312.55102 
L 423.763331 312.732437 
L 423.252704 312.913854 
L 422.724789 313.095271 
L 422.179002 313.276688 
L 421.614738 313.458105 
L 421.03137 313.639522 
L 420.428252 313.820939 
L 419.804716 314.002356 
L 419.16007 314.183774 
L 418.493599 314.365191 
L 417.804566 314.546608 
L 417.092205 314.728025 
L 416.355727 314.909442 
L 415.594316 315.090859 
L 414.807127 315.272276 
L 413.993288 315.453693 
L 413.151896 315.63511 
L 412.28202 315.816528 
L 411.382693 315.997945 
L 410.45292 316.179362 
L 409.49167 316.360779 
L 408.497877 316.542196 
L 407.470438 316.723613 
L 406.408216 316.90503 
L 405.310033 317.086447 
L 404.17467 317.267864 
L 403.00087 317.449281 
L 401.787331 317.630699 
L 400.532708 317.812116 
L 399.23561 317.993533 
L 397.894598 318.17495 
L 396.508187 318.356367 
L 395.074838 318.537784 
L 393.592964 318.719201 
L 392.060921 318.900618 
L 390.477011 319.082035 
L 388.839478 319.263453 
L 387.146506 319.44487 
L 385.396219 319.626287 
L 383.586675 319.807704 
L 381.71587 319.989121 
L 379.781729 320.170538 
L 377.782108 320.351955 
L 375.714789 320.533372 
L 373.577482 320.714789 
L 371.367816 320.896207 
L 369.083343 321.077624 
L 366.721528 321.259041 
L 364.279755 321.440458 
L 361.755315 321.621875 
L 515.93696 321.621875 
L 515.93696 321.621875 
L 513.412521 321.440458 
L 510.970747 321.259041 
L 508.608933 321.077624 
L 506.324459 320.896207 
L 504.114794 320.714789 
L 501.977486 320.533372 
L 499.910168 320.351955 
L 497.910547 320.170538 
L 495.976405 319.989121 
L 494.1056 319.807704 
L 492.296057 319.626287 
L 490.54577 319.44487 
L 488.852798 319.263453 
L 487.215265 319.082035 
L 485.631354 318.900618 
L 484.099311 318.719201 
L 482.617437 318.537784 
L 481.184089 318.356367 
L 479.797678 318.17495 
L 478.456666 317.993533 
L 477.159568 317.812116 
L 475.904944 317.630699 
L 474.691405 317.449281 
L 473.517605 317.267864 
L 472.382243 317.086447 
L 471.284059 316.90503 
L 470.221837 316.723613 
L 469.194399 316.542196 
L 468.200606 316.360779 
L 467.239355 316.179362 
L 466.309582 315.997945 
L 465.410256 315.816528 
L 464.540379 315.63511 
L 463.698988 315.453693 
L 462.885149 315.272276 
L 462.09796 315.090859 
L 461.336549 314.909442 
L 460.600071 314.728025 
L 459.88771 314.546608 
L 459.198676 314.365191 
L 458.532206 314.183774 
L 457.88756 314.002356 
L 457.264024 313.820939 
L 456.660906 313.639522 
L 456.077538 313.458105 
L 455.513274 313.276688 
L 454.967486 313.095271 
L 454.439572 312.913854 
L 453.928944 312.732437 
L 453.435038 312.55102 
L 452.957306 312.369602 
L 452.495217 312.188185 
L 452.04826 312.006768 
L 451.615939 311.825351 
L 451.197776 311.643934 
L 450.793305 311.462517 
L 450.40208 311.2811 
L 450.023665 311.099683 
L 449.657643 310.918266 
L 449.303606 310.736848 
L 448.961162 310.555431 
L 448.629933 310.374014 
L 448.309549 310.192597 
L 447.999658 310.01118 
L 447.699914 309.829763 
L 447.409985 309.648346 
L 447.129551 309.466929 
L 446.8583 309.285512 
L 446.595931 309.104094 
L 446.342154 308.922677 
L 446.096687 308.74126 
L 445.859258 308.559843 
L 445.629605 308.378426 
L 445.407471 308.197009 
L 445.192612 308.015592 
L 444.984788 307.834175 
L 444.78377 307.652758 
L 444.589335 307.47134 
L 444.401266 307.289923 
L 444.219356 307.108506 
L 444.043403 306.927089 
L 443.873212 306.745672 
L 443.708594 306.564255 
L 443.549366 306.382838 
L 443.395353 306.201421 
L 443.246383 306.020004 
L 443.102291 305.838587 
L 442.962918 305.657169 
L 442.828109 305.475752 
L 442.697714 305.294335 
L 442.571589 305.112918 
L 442.449594 304.931501 
L 442.331594 304.750084 
L 442.217458 304.568667 
L 442.10706 304.38725 
L 442.000277 304.205833 
L 441.896991 304.024415 
L 441.797086 303.842998 
L 441.700454 303.661581 
L 441.700454 303.661581 
L 441.700454 247.204037 
L 440.091105 247.204037 
L 440.091105 245.848903 
L 441.700454 245.848903 
L 441.700454 187.330029 
z
" clip-path="url(#pbac7a8645f)" style="fill: #d62728; fill-opacity: 0.5"/>
       </g>
       <g id="matplotlib.axis_1">
        <g id="xtick_1">
         <g id="line2d_1"/>
         <g id="text_1">
          <!-- OUT -->
          <g transform="translate(101.881647 332.720312) scale(0.1 -0.1)">
           <defs>
            <path id="DejaVuSans-4f" d="M 2522 4238 
Q 1834 4238 1429 3725 
Q 1025 3213 1025 2328 
Q 1025 1447 1429 934 
Q 1834 422 2522 422 
Q 3209 422 3611 934 
Q 4013 1447 4013 2328 
Q 4013 3213 3611 3725 
Q 3209 4238 2522 4238 
z
M 2522 4750 
Q 3503 4750 4090 4092 
Q 4678 3434 4678 2328 
Q 4678 1225 4090 567 
Q 3503 -91 2522 -91 
Q 1538 -91 948 565 
Q 359 1222 359 2328 
Q 359 3434 948 4092 
Q 1538 4750 2522 4750 
z
" transform="scale(0.015625)"/>
            <path id="DejaVuSans-55" d="M 556 4666 
L 1191 4666 
L 1191 1831 
Q 1191 1081 1462 751 
Q 1734 422 2344 422 
Q 2950 422 3222 751 
Q 3494 1081 3494 1831 
L 3494 4666 
L 4128 4666 
L 4128 1753 
Q 4128 841 3676 375 
Q 3225 -91 2344 -91 
Q 1459 -91 1007 375 
Q 556 841 556 1753 
L 556 4666 
z
" transform="scale(0.015625)"/>
            <path id="DejaVuSans-54" d="M -19 4666 
L 3928 4666 
L 3928 4134 
L 2272 4134 
L 2272 0 
L 1638 0 
L 1638 4134 
L -19 4134 
L -19 4666 
z
" transform="scale(0.015625)"/>
           </defs>
           <use xlink:href="#DejaVuSans-4f"/>
           <use xlink:href="#DejaVuSans-55" x="78.710938"/>
           <use xlink:href="#DejaVuSans-54" x="151.904297"/>
          </g>
         </g>
        </g>
        <g id="xtick_2">
         <g id="line2d_2"/>
         <g id="text_2">
          <!-- SRC -->
          <g transform="translate(559.482403 332.720312) scale(0.1 -0.1)">
           <defs>
            <path id="DejaVuSans-53" d="M 3425 4513 
L 3425 3897 
Q 3066 4069 2747 4153 
Q 2428 4238 2131 4238 
Q 1616 4238 1336 4038 
Q 1056 3838 1056 3469 
Q 1056 3159 1242 3001 
Q 1428 2844 1947 2747 
L 2328 2669 
Q 3034 2534 3370 2195 
Q 3706 1856 3706 1288 
Q 3706 609 3251 259 
Q 2797 -91 1919 -91 
Q 1588 -91 1214 -16 
Q 841 59 441 206 
L 441 856 
Q 825 641 1194 531 
Q 1563 422 1919 422 
Q 2459 422 2753 634 
Q 3047 847 3047 1241 
Q 3047 1584 2836 1778 
Q 2625 1972 2144 2069 
L 1759 2144 
Q 1053 2284 737 2584 
Q 422 2884 422 3419 
Q 422 4038 858 4394 
Q 1294 4750 2059 4750 
Q 2388 4750 2728 4690 
Q 3069 4631 3425 4513 
z
" transform="scale(0.015625)"/>
            <path id="DejaVuSans-52" d="M 2841 2188 
Q 3044 2119 3236 1894 
Q 3428 1669 3622 1275 
L 4263 0 
L 3584 0 
L 2988 1197 
Q 2756 1666 2539 1819 
Q 2322 1972 1947 1972 
L 1259 1972 
L 1259 0 
L 628 0 
L 628 4666 
L 2053 4666 
Q 2853 4666 3247 4331 
Q 3641 3997 3641 3322 
Q 3641 2881 3436 2590 
Q 3231 2300 2841 2188 
z
M 1259 4147 
L 1259 2491 
L 2053 2491 
Q 2509 2491 2742 2702 
Q 2975 2913 2975 3322 
Q 2975 3731 2742 3939 
Q 2509 4147 2053 4147 
L 1259 4147 
z
" transform="scale(0.015625)"/>
            <path id="DejaVuSans-43" d="M 4122 4306 
L 4122 3641 
Q 3803 3938 3442 4084 
Q 3081 4231 2675 4231 
Q 1875 4231 1450 3742 
Q 1025 3253 1025 2328 
Q 1025 1406 1450 917 
Q 1875 428 2675 428 
Q 3081 428 3442 575 
Q 3803 722 4122 1019 
L 4122 359 
Q 3791 134 3420 21 
Q 3050 -91 2638 -91 
Q 1578 -91 968 557 
Q 359 1206 359 2328 
Q 359 3453 968 4101 
Q 1578 4750 2638 4750 
Q 3056 4750 3426 4639 
Q 3797 4528 4122 4306 
z
" transform="scale(0.015625)"/>
           </defs>
           <use xlink:href="#DejaVuSans-53"/>
           <use xlink:href="#DejaVuSans-52" x="63.476562"/>
           <use xlink:href="#DejaVuSans-43" x="127.958984"/>
          </g>
         </g>
        </g>
        <g id="xtick_3">
         <g id="line2d_3"/>
         <g id="text_3">
          <!-- TAR -->
          <g transform="translate(429.2852 332.720312) scale(0.1 -0.1)">
           <defs>
            <path id="DejaVuSans-41" d="M 2188 4044 
L 1331 1722 
L 3047 1722 
L 2188 4044 
z
M 1831 4666 
L 2547 4666 
L 4325 0 
L 3669 0 
L 3244 1197 
L 1141 1197 
L 716 0 
L 50 0 
L 1831 4666 
z
" transform="scale(0.015625)"/>
           </defs>
           <use xlink:href="#DejaVuSans-54"/>
           <use xlink:href="#DejaVuSans-41" x="53.333984"/>
           <use xlink:href="#DejaVuSans-52" x="121.742188"/>
          </g>
         </g>
        </g>
       </g>
       <g id="matplotlib.axis_2">
        <g id="ytick_1">
         <g id="line2d_4">
          <defs>
           <path id="mb176dbfdd2" d="M 0 0 
L -3.5 0 
" style="stroke: #000000; stroke-width: 0.8"/>
          </defs>
          <g>
           <use xlink:href="#mb176dbfdd2" x="63.290625" y="321.621875" style="stroke: #000000; stroke-width: 0.8"/>
          </g>
         </g>
         <g id="text_4">
          <!-- 0 -->
          <g transform="translate(49.928125 325.421094) scale(0.1 -0.1)">
           <defs>
            <path id="DejaVuSans-30" d="M 2034 4250 
Q 1547 4250 1301 3770 
Q 1056 3291 1056 2328 
Q 1056 1369 1301 889 
Q 1547 409 2034 409 
Q 2525 409 2770 889 
Q 3016 1369 3016 2328 
Q 3016 3291 2770 3770 
Q 2525 4250 2034 4250 
z
M 2034 4750 
Q 2819 4750 3233 4129 
Q 3647 3509 3647 2328 
Q 3647 1150 3233 529 
Q 2819 -91 2034 -91 
Q 1250 -91 836 529 
Q 422 1150 422 2328 
Q 422 3509 836 4129 
Q 1250 4750 2034 4750 
z
" transform="scale(0.015625)"/>
           </defs>
           <use xlink:href="#DejaVuSans-30"/>
          </g>
         </g>
        </g>
        <g id="ytick_2">
         <g id="line2d_5">
          <g>
           <use xlink:href="#mb176dbfdd2" x="63.290625" y="283.449093" style="stroke: #000000; stroke-width: 0.8"/>
          </g>
         </g>
         <g id="text_5">
          <!-- 2000 -->
          <g transform="translate(30.840625 287.248312) scale(0.1 -0.1)">
           <defs>
            <path id="DejaVuSans-32" d="M 1228 531 
L 3431 531 
L 3431 0 
L 469 0 
L 469 531 
Q 828 903 1448 1529 
Q 2069 2156 2228 2338 
Q 2531 2678 2651 2914 
Q 2772 3150 2772 3378 
Q 2772 3750 2511 3984 
Q 2250 4219 1831 4219 
Q 1534 4219 1204 4116 
Q 875 4013 500 3803 
L 500 4441 
Q 881 4594 1212 4672 
Q 1544 4750 1819 4750 
Q 2544 4750 2975 4387 
Q 3406 4025 3406 3419 
Q 3406 3131 3298 2873 
Q 3191 2616 2906 2266 
Q 2828 2175 2409 1742 
Q 1991 1309 1228 531 
z
" transform="scale(0.015625)"/>
           </defs>
           <use xlink:href="#DejaVuSans-32"/>
           <use xlink:href="#DejaVuSans-30" x="63.623047"/>
           <use xlink:href="#DejaVuSans-30" x="127.246094"/>
           <use xlink:href="#DejaVuSans-30" x="190.869141"/>
          </g>
         </g>
        </g>
        <g id="ytick_3">
         <g id="line2d_6">
          <g>
           <use xlink:href="#mb176dbfdd2" x="63.290625" y="245.276312" style="stroke: #000000; stroke-width: 0.8"/>
          </g>
         </g>
         <g id="text_6">
          <!-- 4000 -->
          <g transform="translate(30.840625 249.07553) scale(0.1 -0.1)">
           <defs>
            <path id="DejaVuSans-34" d="M 2419 4116 
L 825 1625 
L 2419 1625 
L 2419 4116 
z
M 2253 4666 
L 3047 4666 
L 3047 1625 
L 3713 1625 
L 3713 1100 
L 3047 1100 
L 3047 0 
L 2419 0 
L 2419 1100 
L 313 1100 
L 313 1709 
L 2253 4666 
z
" transform="scale(0.015625)"/>
           </defs>
           <use xlink:href="#DejaVuSans-34"/>
           <use xlink:href="#DejaVuSans-30" x="63.623047"/>
           <use xlink:href="#DejaVuSans-30" x="127.246094"/>
           <use xlink:href="#DejaVuSans-30" x="190.869141"/>
          </g>
         </g>
        </g>
        <g id="ytick_4">
         <g id="line2d_7">
          <g>
           <use xlink:href="#mb176dbfdd2" x="63.290625" y="207.10353" style="stroke: #000000; stroke-width: 0.8"/>
          </g>
         </g>
         <g id="text_7">
          <!-- 6000 -->
          <g transform="translate(30.840625 210.902749) scale(0.1 -0.1)">
           <defs>
            <path id="DejaVuSans-36" d="M 2113 2584 
Q 1688 2584 1439 2293 
Q 1191 2003 1191 1497 
Q 1191 994 1439 701 
Q 1688 409 2113 409 
Q 2538 409 2786 701 
Q 3034 994 3034 1497 
Q 3034 2003 2786 2293 
Q 2538 2584 2113 2584 
z
M 3366 4563 
L 3366 3988 
Q 3128 4100 2886 4159 
Q 2644 4219 2406 4219 
Q 1781 4219 1451 3797 
Q 1122 3375 1075 2522 
Q 1259 2794 1537 2939 
Q 1816 3084 2150 3084 
Q 2853 3084 3261 2657 
Q 3669 2231 3669 1497 
Q 3669 778 3244 343 
Q 2819 -91 2113 -91 
Q 1303 -91 875 529 
Q 447 1150 447 2328 
Q 447 3434 972 4092 
Q 1497 4750 2381 4750 
Q 2619 4750 2861 4703 
Q 3103 4656 3366 4563 
z
" transform="scale(0.015625)"/>
           </defs>
           <use xlink:href="#DejaVuSans-36"/>
           <use xlink:href="#DejaVuSans-30" x="63.623047"/>
           <use xlink:href="#DejaVuSans-30" x="127.246094"/>
           <use xlink:href="#DejaVuSans-30" x="190.869141"/>
          </g>
         </g>
        </g>
        <g id="ytick_5">
         <g id="line2d_8">
          <g>
           <use xlink:href="#mb176dbfdd2" x="63.290625" y="168.930748" style="stroke: #000000; stroke-width: 0.8"/>
          </g>
         </g>
         <g id="text_8">
          <!-- 8000 -->
          <g transform="translate(30.840625 172.729967) scale(0.1 -0.1)">
           <defs>
            <path id="DejaVuSans-38" d="M 2034 2216 
Q 1584 2216 1326 1975 
Q 1069 1734 1069 1313 
Q 1069 891 1326 650 
Q 1584 409 2034 409 
Q 2484 409 2743 651 
Q 3003 894 3003 1313 
Q 3003 1734 2745 1975 
Q 2488 2216 2034 2216 
z
M 1403 2484 
Q 997 2584 770 2862 
Q 544 3141 544 3541 
Q 544 4100 942 4425 
Q 1341 4750 2034 4750 
Q 2731 4750 3128 4425 
Q 3525 4100 3525 3541 
Q 3525 3141 3298 2862 
Q 3072 2584 2669 2484 
Q 3125 2378 3379 2068 
Q 3634 1759 3634 1313 
Q 3634 634 3220 271 
Q 2806 -91 2034 -91 
Q 1263 -91 848 271 
Q 434 634 434 1313 
Q 434 1759 690 2068 
Q 947 2378 1403 2484 
z
M 1172 3481 
Q 1172 3119 1398 2916 
Q 1625 2713 2034 2713 
Q 2441 2713 2670 2916 
Q 2900 3119 2900 3481 
Q 2900 3844 2670 4047 
Q 2441 4250 2034 4250 
Q 1625 4250 1398 4047 
Q 1172 3844 1172 3481 
z
" transform="scale(0.015625)"/>
           </defs>
           <use xlink:href="#DejaVuSans-38"/>
           <use xlink:href="#DejaVuSans-30" x="63.623047"/>
           <use xlink:href="#DejaVuSans-30" x="127.246094"/>
           <use xlink:href="#DejaVuSans-30" x="190.869141"/>
          </g>
         </g>
        </g>
        <g id="ytick_6">
         <g id="line2d_9">
          <g>
           <use xlink:href="#mb176dbfdd2" x="63.290625" y="130.757966" style="stroke: #000000; stroke-width: 0.8"/>
          </g>
         </g>
         <g id="text_9">
          <!-- 10000 -->
          <g transform="translate(24.478125 134.557185) scale(0.1 -0.1)">
           <defs>
            <path id="DejaVuSans-31" d="M 794 531 
L 1825 531 
L 1825 4091 
L 703 3866 
L 703 4441 
L 1819 4666 
L 2450 4666 
L 2450 531 
L 3481 531 
L 3481 0 
L 794 0 
L 794 531 
z
" transform="scale(0.015625)"/>
           </defs>
           <use xlink:href="#DejaVuSans-31"/>
           <use xlink:href="#DejaVuSans-30" x="63.623047"/>
           <use xlink:href="#DejaVuSans-30" x="127.246094"/>
           <use xlink:href="#DejaVuSans-30" x="190.869141"/>
           <use xlink:href="#DejaVuSans-30" x="254.492188"/>
          </g>
         </g>
        </g>
        <g id="ytick_7">
         <g id="line2d_10">
          <g>
           <use xlink:href="#mb176dbfdd2" x="63.290625" y="92.585185" style="stroke: #000000; stroke-width: 0.8"/>
          </g>
         </g>
         <g id="text_10">
          <!-- 12000 -->
          <g transform="translate(24.478125 96.384404) scale(0.1 -0.1)">
           <use xlink:href="#DejaVuSans-31"/>
           <use xlink:href="#DejaVuSans-32" x="63.623047"/>
           <use xlink:href="#DejaVuSans-30" x="127.246094"/>
           <use xlink:href="#DejaVuSans-30" x="190.869141"/>
           <use xlink:href="#DejaVuSans-30" x="254.492188"/>
          </g>
         </g>
        </g>
        <g id="ytick_8">
         <g id="line2d_11">
          <g>
           <use xlink:href="#mb176dbfdd2" x="63.290625" y="54.412403" style="stroke: #000000; stroke-width: 0.8"/>
          </g>
         </g>
         <g id="text_11">
          <!-- 14000 -->
          <g transform="translate(24.478125 58.211622) scale(0.1 -0.1)">
           <use xlink:href="#DejaVuSans-31"/>
           <use xlink:href="#DejaVuSans-34" x="63.623047"/>
           <use xlink:href="#DejaVuSans-30" x="127.246094"/>
           <use xlink:href="#DejaVuSans-30" x="190.869141"/>
           <use xlink:href="#DejaVuSans-30" x="254.492188"/>
          </g>
         </g>
        </g>
        <g id="ytick_9">
         <g id="line2d_12">
          <g>
           <use xlink:href="#mb176dbfdd2" x="63.290625" y="16.239621" style="stroke: #000000; stroke-width: 0.8"/>
          </g>
         </g>
         <g id="text_12">
          <!-- 16000 -->
          <g transform="translate(24.478125 20.03884) scale(0.1 -0.1)">
           <use xlink:href="#DejaVuSans-31"/>
           <use xlink:href="#DejaVuSans-36" x="63.623047"/>
           <use xlink:href="#DejaVuSans-30" x="127.246094"/>
           <use xlink:href="#DejaVuSans-30" x="190.869141"/>
           <use xlink:href="#DejaVuSans-30" x="254.492188"/>
          </g>
         </g>
        </g>
        <g id="text_13">
         <!-- time ago (generations) -->
         <g transform="translate(18.398438 223.682031) rotate(-90) scale(0.1 -0.1)">
          <defs>
           <path id="DejaVuSans-74" d="M 1172 4494 
L 1172 3500 
L 2356 3500 
L 2356 3053 
L 1172 3053 
L 1172 1153 
Q 1172 725 1289 603 
Q 1406 481 1766 481 
L 2356 481 
L 2356 0 
L 1766 0 
Q 1100 0 847 248 
Q 594 497 594 1153 
L 594 3053 
L 172 3053 
L 172 3500 
L 594 3500 
L 594 4494 
L 1172 4494 
z
" transform="scale(0.015625)"/>
           <path id="DejaVuSans-69" d="M 603 3500 
L 1178 3500 
L 1178 0 
L 603 0 
L 603 3500 
z
M 603 4863 
L 1178 4863 
L 1178 4134 
L 603 4134 
L 603 4863 
z
" transform="scale(0.015625)"/>
           <path id="DejaVuSans-6d" d="M 3328 2828 
Q 3544 3216 3844 3400 
Q 4144 3584 4550 3584 
Q 5097 3584 5394 3201 
Q 5691 2819 5691 2113 
L 5691 0 
L 5113 0 
L 5113 2094 
Q 5113 2597 4934 2840 
Q 4756 3084 4391 3084 
Q 3944 3084 3684 2787 
Q 3425 2491 3425 1978 
L 3425 0 
L 2847 0 
L 2847 2094 
Q 2847 2600 2669 2842 
Q 2491 3084 2119 3084 
Q 1678 3084 1418 2786 
Q 1159 2488 1159 1978 
L 1159 0 
L 581 0 
L 581 3500 
L 1159 3500 
L 1159 2956 
Q 1356 3278 1631 3431 
Q 1906 3584 2284 3584 
Q 2666 3584 2933 3390 
Q 3200 3197 3328 2828 
z
" transform="scale(0.015625)"/>
           <path id="DejaVuSans-65" d="M 3597 1894 
L 3597 1613 
L 953 1613 
Q 991 1019 1311 708 
Q 1631 397 2203 397 
Q 2534 397 2845 478 
Q 3156 559 3463 722 
L 3463 178 
Q 3153 47 2828 -22 
Q 2503 -91 2169 -91 
Q 1331 -91 842 396 
Q 353 884 353 1716 
Q 353 2575 817 3079 
Q 1281 3584 2069 3584 
Q 2775 3584 3186 3129 
Q 3597 2675 3597 1894 
z
M 3022 2063 
Q 3016 2534 2758 2815 
Q 2500 3097 2075 3097 
Q 1594 3097 1305 2825 
Q 1016 2553 972 2059 
L 3022 2063 
z
" transform="scale(0.015625)"/>
           <path id="DejaVuSans-20" transform="scale(0.015625)"/>
           <path id="DejaVuSans-61" d="M 2194 1759 
Q 1497 1759 1228 1600 
Q 959 1441 959 1056 
Q 959 750 1161 570 
Q 1363 391 1709 391 
Q 2188 391 2477 730 
Q 2766 1069 2766 1631 
L 2766 1759 
L 2194 1759 
z
M 3341 1997 
L 3341 0 
L 2766 0 
L 2766 531 
Q 2569 213 2275 61 
Q 1981 -91 1556 -91 
Q 1019 -91 701 211 
Q 384 513 384 1019 
Q 384 1609 779 1909 
Q 1175 2209 1959 2209 
L 2766 2209 
L 2766 2266 
Q 2766 2663 2505 2880 
Q 2244 3097 1772 3097 
Q 1472 3097 1187 3025 
Q 903 2953 641 2809 
L 641 3341 
Q 956 3463 1253 3523 
Q 1550 3584 1831 3584 
Q 2591 3584 2966 3190 
Q 3341 2797 3341 1997 
z
" transform="scale(0.015625)"/>
           <path id="DejaVuSans-67" d="M 2906 1791 
Q 2906 2416 2648 2759 
Q 2391 3103 1925 3103 
Q 1463 3103 1205 2759 
Q 947 2416 947 1791 
Q 947 1169 1205 825 
Q 1463 481 1925 481 
Q 2391 481 2648 825 
Q 2906 1169 2906 1791 
z
M 3481 434 
Q 3481 -459 3084 -895 
Q 2688 -1331 1869 -1331 
Q 1566 -1331 1297 -1286 
Q 1028 -1241 775 -1147 
L 775 -588 
Q 1028 -725 1275 -790 
Q 1522 -856 1778 -856 
Q 2344 -856 2625 -561 
Q 2906 -266 2906 331 
L 2906 616 
Q 2728 306 2450 153 
Q 2172 0 1784 0 
Q 1141 0 747 490 
Q 353 981 353 1791 
Q 353 2603 747 3093 
Q 1141 3584 1784 3584 
Q 2172 3584 2450 3431 
Q 2728 3278 2906 2969 
L 2906 3500 
L 3481 3500 
L 3481 434 
z
" transform="scale(0.015625)"/>
           <path id="DejaVuSans-6f" d="M 1959 3097 
Q 1497 3097 1228 2736 
Q 959 2375 959 1747 
Q 959 1119 1226 758 
Q 1494 397 1959 397 
Q 2419 397 2687 759 
Q 2956 1122 2956 1747 
Q 2956 2369 2687 2733 
Q 2419 3097 1959 3097 
z
M 1959 3584 
Q 2709 3584 3137 3096 
Q 3566 2609 3566 1747 
Q 3566 888 3137 398 
Q 2709 -91 1959 -91 
Q 1206 -91 779 398 
Q 353 888 353 1747 
Q 353 2609 779 3096 
Q 1206 3584 1959 3584 
z
" transform="scale(0.015625)"/>
           <path id="DejaVuSans-28" d="M 1984 4856 
Q 1566 4138 1362 3434 
Q 1159 2731 1159 2009 
Q 1159 1288 1364 580 
Q 1569 -128 1984 -844 
L 1484 -844 
Q 1016 -109 783 600 
Q 550 1309 550 2009 
Q 550 2706 781 3412 
Q 1013 4119 1484 4856 
L 1984 4856 
z
" transform="scale(0.015625)"/>
           <path id="DejaVuSans-6e" d="M 3513 2113 
L 3513 0 
L 2938 0 
L 2938 2094 
Q 2938 2591 2744 2837 
Q 2550 3084 2163 3084 
Q 1697 3084 1428 2787 
Q 1159 2491 1159 1978 
L 1159 0 
L 581 0 
L 581 3500 
L 1159 3500 
L 1159 2956 
Q 1366 3272 1645 3428 
Q 1925 3584 2291 3584 
Q 2894 3584 3203 3211 
Q 3513 2838 3513 2113 
z
" transform="scale(0.015625)"/>
           <path id="DejaVuSans-72" d="M 2631 2963 
Q 2534 3019 2420 3045 
Q 2306 3072 2169 3072 
Q 1681 3072 1420 2755 
Q 1159 2438 1159 1844 
L 1159 0 
L 581 0 
L 581 3500 
L 1159 3500 
L 1159 2956 
Q 1341 3275 1631 3429 
Q 1922 3584 2338 3584 
Q 2397 3584 2469 3576 
Q 2541 3569 2628 3553 
L 2631 2963 
z
" transform="scale(0.015625)"/>
           <path id="DejaVuSans-73" d="M 2834 3397 
L 2834 2853 
Q 2591 2978 2328 3040 
Q 2066 3103 1784 3103 
Q 1356 3103 1142 2972 
Q 928 2841 928 2578 
Q 928 2378 1081 2264 
Q 1234 2150 1697 2047 
L 1894 2003 
Q 2506 1872 2764 1633 
Q 3022 1394 3022 966 
Q 3022 478 2636 193 
Q 2250 -91 1575 -91 
Q 1294 -91 989 -36 
Q 684 19 347 128 
L 347 722 
Q 666 556 975 473 
Q 1284 391 1588 391 
Q 1994 391 2212 530 
Q 2431 669 2431 922 
Q 2431 1156 2273 1281 
Q 2116 1406 1581 1522 
L 1381 1569 
Q 847 1681 609 1914 
Q 372 2147 372 2553 
Q 372 3047 722 3315 
Q 1072 3584 1716 3584 
Q 2034 3584 2315 3537 
Q 2597 3491 2834 3397 
z
" transform="scale(0.015625)"/>
           <path id="DejaVuSans-29" d="M 513 4856 
L 1013 4856 
Q 1481 4119 1714 3412 
Q 1947 2706 1947 2009 
Q 1947 1309 1714 600 
Q 1481 -109 1013 -844 
L 513 -844 
Q 928 -128 1133 580 
Q 1338 1288 1338 2009 
Q 1338 2731 1133 3434 
Q 928 4138 513 4856 
z
" transform="scale(0.015625)"/>
          </defs>
          <use xlink:href="#DejaVuSans-74"/>
          <use xlink:href="#DejaVuSans-69" x="39.208984"/>
          <use xlink:href="#DejaVuSans-6d" x="66.992188"/>
          <use xlink:href="#DejaVuSans-65" x="164.404297"/>
          <use xlink:href="#DejaVuSans-20" x="225.927734"/>
          <use xlink:href="#DejaVuSans-61" x="257.714844"/>
          <use xlink:href="#DejaVuSans-67" x="318.994141"/>
          <use xlink:href="#DejaVuSans-6f" x="382.470703"/>
          <use xlink:href="#DejaVuSans-20" x="443.652344"/>
          <use xlink:href="#DejaVuSans-28" x="475.439453"/>
          <use xlink:href="#DejaVuSans-67" x="514.453125"/>
          <use xlink:href="#DejaVuSans-65" x="577.929688"/>
          <use xlink:href="#DejaVuSans-6e" x="639.453125"/>
          <use xlink:href="#DejaVuSans-65" x="702.832031"/>
          <use xlink:href="#DejaVuSans-72" x="764.355469"/>
          <use xlink:href="#DejaVuSans-61" x="805.46875"/>
          <use xlink:href="#DejaVuSans-74" x="866.748047"/>
          <use xlink:href="#DejaVuSans-69" x="905.957031"/>
          <use xlink:href="#DejaVuSans-6f" x="933.740234"/>
          <use xlink:href="#DejaVuSans-6e" x="994.921875"/>
          <use xlink:href="#DejaVuSans-73" x="1058.300781"/>
          <use xlink:href="#DejaVuSans-29" x="1110.400391"/>
         </g>
        </g>
       </g>
       <g id="patch_7">
        <path d="M 290.503545 91.325483 
L 289.503545 91.294047 
L 288.503545 91.257106 
L 287.503545 91.15936 
L 286.503545 91.126838 
L 285.503545 91.053213 
L 284.503545 91.014648 
L 283.503545 90.979235 
L 282.503545 90.921595 
L 281.503545 90.851209 
L 280.503545 90.799244 
L 279.503545 90.740155 
L 278.503545 90.651834 
L 277.503545 90.605689 
L 276.503545 90.563278 
L 275.503545 90.532786 
L 274.503545 90.506741 
L 273.503545 90.485541 
L 272.503545 90.43124 
L 271.503545 90.403302 
L 270.503545 90.373578 
L 269.503545 90.348183 
L 268.503545 90.336983 
L 267.503545 90.326859 
L 266.503545 90.327063 
L 265.503545 90.336573 
L 264.503545 90.348227 
L 263.503545 90.379256 
L 262.503545 90.390424 
L 261.503545 90.420541 
L 260.503545 90.480318 
L 259.503545 90.51751 
L 258.503545 90.556606 
L 257.503545 90.599046 
L 256.503545 90.631811 
L 255.503545 90.699237 
L 254.503545 90.738363 
L 253.503545 90.781038 
L 252.503545 90.851618 
L 251.503545 90.888009 
L 250.503545 90.946412 
L 249.503545 91.057365 
L 248.503545 91.128023 
L 247.503545 91.240963 
L 246.503545 91.286736 
L 245.503545 91.348019 
L 244.503545 91.396518 
L 243.503545 91.477341 
L 242.503545 91.59586 
L 241.503545 91.666071 
L 240.503545 91.749333 
L 239.503545 91.782475 
L 238.503545 91.833712 
L 237.503545 91.902111 
L 236.503545 91.968326 
L 235.503545 92.045243 
L 234.503545 92.072559 
L 233.503545 92.099036 
L 232.503545 92.121687 
L 231.503545 92.141218 
L 230.503545 92.167612 
L 229.503545 92.217383 
L 228.503545 92.252456 
L 227.503545 92.288322 
L 226.503545 92.303689 
L 225.503545 92.319458 
L 224.503545 92.322871 
L 223.503545 92.325288 
L 222.503545 92.324802 
L 221.503545 92.322873 
L 220.503545 92.309616 
L 219.503545 92.301225 
L 218.503545 92.279689 
L 217.503545 92.256656 
L 216.503545 92.239423 
L 215.503545 92.22096 
L 214.503545 92.200508 
L 213.503545 92.183908 
L 212.503545 92.121129 
L 211.503545 92.045864 
L 210.503545 92.013225 
L 209.503545 91.945661 
L 208.503545 91.891614 
L 207.503545 91.85791 
L 206.503545 91.767784 
L 205.503545 91.739249 
L 204.503545 91.707763 
L 203.503545 91.676752 
L 202.503545 91.621944 
L 201.503545 91.557357 
L 200.503545 91.519161 
L 199.503545 91.423227 
L 198.503545 91.373969 
L 197.503545 91.3299 
L 196.503545 91.289776 
L 195.503545 91.181409 
L 194.503545 91.139781 
L 193.503545 91.077639 
L 192.503545 91.007677 
L 191.503545 90.903173 
L 190.503545 90.866185 
L 189.503545 90.820308 
L 188.503545 90.751813 
L 187.503545 90.703067 
L 186.503545 90.62547 
L 185.503545 90.594929 
L 184.503545 90.525415 
L 183.503545 90.501442 
L 182.503545 90.47282 
L 181.503545 90.431027 
L 180.503545 90.409451 
L 179.503545 90.395503 
L 178.503545 90.368781 
L 177.503545 90.359471 
L 176.503545 90.347024 
L 175.503545 90.335969 
L 174.503545 90.330305 
L 173.503545 90.325541 
L 172.503545 90.331089 
L 171.503545 90.344377 
L 170.503545 90.351894 
L 169.503545 90.376679 
L 168.503545 90.400248 
L 167.503545 90.436428 
L 166.503545 90.46239 
L 165.503545 90.484712 
L 164.503545 90.553472 
L 163.503545 90.628007 
L 162.503545 90.721986 
L 161.503545 90.773038 
L 160.503545 90.826972 
L 159.503545 90.862223 
L 158.503545 90.968311 
L 157.503545 91.020575 
L 156.503545 91.057482 
L 155.503545 91.088513 
L 154.503545 91.149668 
L 153.503545 91.217088 
L 152.503545 91.265994 
L 151.503545 91.331186 
L 150.503545 91.369374 
L 149.503545 91.41137 
L 148.503545 91.453387 
L 147.503545 91.512903 
L 146.503545 91.626063 
L 145.503545 91.678314 
L 144.503545 91.717732 
L 143.503545 91.764833 
L 142.503545 91.821613 
L 141.503545 91.854276 
L 140.503545 91.890454 
L 139.503545 91.922544 
L 138.503545 91.956824 
L 137.503545 92.015202 
L 136.503545 92.060387 
L 135.503545 92.090011 
L 134.503545 92.140397 
L 133.503545 92.165594 
L 132.503545 92.186645 
L 131.503545 92.221613 
L 130.503545 92.245903 
L 129.503545 92.25997 
L 128.503545 92.278912 
L 127.503545 92.294573 
L 126.503545 92.307125 
L 125.503545 92.312961 
L 124.503545 92.319843 
L 123.503545 92.325017 
L 122.503545 92.323234 
L 121.503545 92.320509 
L 120.503545 92.309355 
L 119.503545 92.28112 
L 118.452082 92.237332 
" clip-path="url(#pbac7a8645f)" style="fill: none; stroke: #ffffff; stroke-width: 3; stroke-linecap: round"/>
        <path d="M 290.503545 91.325483 
L 289.503545 91.294047 
L 288.503545 91.257106 
L 287.503545 91.15936 
L 286.503545 91.126838 
L 285.503545 91.053213 
L 284.503545 91.014648 
L 283.503545 90.979235 
L 282.503545 90.921595 
L 281.503545 90.851209 
L 280.503545 90.799244 
L 279.503545 90.740155 
L 278.503545 90.651834 
L 277.503545 90.605689 
L 276.503545 90.563278 
L 275.503545 90.532786 
L 274.503545 90.506741 
L 273.503545 90.485541 
L 272.503545 90.43124 
L 271.503545 90.403302 
L 270.503545 90.373578 
L 269.503545 90.348183 
L 268.503545 90.336983 
L 267.503545 90.326859 
L 266.503545 90.327063 
L 265.503545 90.336573 
L 264.503545 90.348227 
L 263.503545 90.379256 
L 262.503545 90.390424 
L 261.503545 90.420541 
L 260.503545 90.480318 
L 259.503545 90.51751 
L 258.503545 90.556606 
L 257.503545 90.599046 
L 256.503545 90.631811 
L 255.503545 90.699237 
L 254.503545 90.738363 
L 253.503545 90.781038 
L 252.503545 90.851618 
L 251.503545 90.888009 
L 250.503545 90.946412 
L 249.503545 91.057365 
L 248.503545 91.128023 
L 247.503545 91.240963 
L 246.503545 91.286736 
L 245.503545 91.348019 
L 244.503545 91.396518 
L 243.503545 91.477341 
L 242.503545 91.59586 
L 241.503545 91.666071 
L 240.503545 91.749333 
L 239.503545 91.782475 
L 238.503545 91.833712 
L 237.503545 91.902111 
L 236.503545 91.968326 
L 235.503545 92.045243 
L 234.503545 92.072559 
L 233.503545 92.099036 
L 232.503545 92.121687 
L 231.503545 92.141218 
L 230.503545 92.167612 
L 229.503545 92.217383 
L 228.503545 92.252456 
L 227.503545 92.288322 
L 226.503545 92.303689 
L 225.503545 92.319458 
L 224.503545 92.322871 
L 223.503545 92.325288 
L 222.503545 92.324802 
L 221.503545 92.322873 
L 220.503545 92.309616 
L 219.503545 92.301225 
L 218.503545 92.279689 
L 217.503545 92.256656 
L 216.503545 92.239423 
L 215.503545 92.22096 
L 214.503545 92.200508 
L 213.503545 92.183908 
L 212.503545 92.121129 
L 211.503545 92.045864 
L 210.503545 92.013225 
L 209.503545 91.945661 
L 208.503545 91.891614 
L 207.503545 91.85791 
L 206.503545 91.767784 
L 205.503545 91.739249 
L 204.503545 91.707763 
L 203.503545 91.676752 
L 202.503545 91.621944 
L 201.503545 91.557357 
L 200.503545 91.519161 
L 199.503545 91.423227 
L 198.503545 91.373969 
L 197.503545 91.3299 
L 196.503545 91.289776 
L 195.503545 91.181409 
L 194.503545 91.139781 
L 193.503545 91.077639 
L 192.503545 91.007677 
L 191.503545 90.903173 
L 190.503545 90.866185 
L 189.503545 90.820308 
L 188.503545 90.751813 
L 187.503545 90.703067 
L 186.503545 90.62547 
L 185.503545 90.594929 
L 184.503545 90.525415 
L 183.503545 90.501442 
L 182.503545 90.47282 
L 181.503545 90.431027 
L 180.503545 90.409451 
L 179.503545 90.395503 
L 178.503545 90.368781 
L 177.503545 90.359471 
L 176.503545 90.347024 
L 175.503545 90.335969 
L 174.503545 90.330305 
L 173.503545 90.325541 
L 172.503545 90.331089 
L 171.503545 90.344377 
L 170.503545 90.351894 
L 169.503545 90.376679 
L 168.503545 90.400248 
L 167.503545 90.436428 
L 166.503545 90.46239 
L 165.503545 90.484712 
L 164.503545 90.553472 
L 163.503545 90.628007 
L 162.503545 90.721986 
L 161.503545 90.773038 
L 160.503545 90.826972 
L 159.503545 90.862223 
L 158.503545 90.968311 
L 157.503545 91.020575 
L 156.503545 91.057482 
L 155.503545 91.088513 
L 154.503545 91.149668 
L 153.503545 91.217088 
L 152.503545 91.265994 
L 151.503545 91.331186 
L 150.503545 91.369374 
L 149.503545 91.41137 
L 148.503545 91.453387 
L 147.503545 91.512903 
L 146.503545 91.626063 
L 145.503545 91.678314 
L 144.503545 91.717732 
L 143.503545 91.764833 
L 142.503545 91.821613 
L 141.503545 91.854276 
L 140.503545 91.890454 
L 139.503545 91.922544 
L 138.503545 91.956824 
L 137.503545 92.015202 
L 136.503545 92.060387 
L 135.503545 92.090011 
L 134.503545 92.140397 
L 133.503545 92.165594 
L 132.503545 92.186645 
L 131.503545 92.221613 
L 130.503545 92.245903 
L 129.503545 92.25997 
L 128.503545 92.278912 
L 127.503545 92.294573 
L 126.503545 92.307125 
L 125.503545 92.312961 
L 124.503545 92.319843 
L 123.503545 92.325017 
L 122.503545 92.323234 
L 121.503545 92.320509 
L 120.503545 92.309355 
L 119.503545 92.28112 
L 118.452082 92.237332 
" clip-path="url(#pbac7a8645f)" style="fill: none; stroke: #1f77b4; stroke-linecap: round"/>
        <path d="M 122.452082 93.325483 
L 121.571714 92.850152 
L 120.693807 92.369898 
L 119.843093 91.835257 
L 118.540919 91.14781 
L 119.468272 91.121795 
L 120.379947 90.709075 
L 121.290211 90.293536 
L 122.632707 89.686732 
L 121.977808 90.325483 
L 121.925844 91.325483 
L 121.866754 93.325483 
z
" clip-path="url(#pbac7a8645f)" style="fill: #ffffff; stroke: #ffffff; stroke-width: 3; stroke-linecap: round"/>
        <path d="M 122.452082 93.325483 
L 121.571714 92.850152 
L 120.693807 92.369898 
L 119.843093 91.835257 
L 118.540919 91.14781 
L 119.468272 91.121795 
L 120.379947 90.709075 
L 121.290211 90.293536 
L 122.632707 89.686732 
L 121.977808 90.325483 
L 121.925844 91.325483 
L 121.866754 93.325483 
z
" clip-path="url(#pbac7a8645f)" style="fill: #ffffff; stroke: #1f77b4; stroke-linecap: round"/>
        <g id="patch_8">
         <path d="M 326.140812 72.964375 
L 327.140812 72.995811 
L 328.140812 73.032752 
L 329.140812 73.130498 
L 330.140812 73.16302 
L 331.140812 73.236645 
L 332.140812 73.27521 
L 333.140812 73.310623 
L 334.140812 73.368263 
L 335.140812 73.438649 
L 336.140812 73.490614 
L 337.140812 73.549703 
L 338.140812 73.638024 
L 339.140812 73.684169 
L 340.140812 73.72658 
L 341.140812 73.757072 
L 342.140812 73.783117 
L 343.140812 73.804317 
L 344.140812 73.858618 
L 345.140812 73.886556 
L 346.140812 73.91628 
L 347.140812 73.941675 
L 348.140812 73.952875 
L 349.140812 73.962999 
L 350.140812 73.962795 
L 351.140812 73.953285 
L 352.140812 73.941631 
L 353.140812 73.910602 
L 354.140812 73.899434 
L 355.140812 73.869317 
L 356.140812 73.80954 
L 357.140812 73.772348 
L 358.140812 73.733252 
L 359.140812 73.690812 
L 360.140812 73.658047 
L 361.140812 73.590621 
L 362.140812 73.551495 
L 363.140812 73.50882 
L 364.140812 73.43824 
L 365.140812 73.401849 
L 366.140812 73.343446 
L 367.140812 73.232493 
L 368.140812 73.161835 
L 369.140812 73.048895 
L 370.140812 73.003122 
L 371.140812 72.941839 
L 372.140812 72.89334 
L 373.140812 72.812517 
L 374.140812 72.693998 
L 375.140812 72.623787 
L 376.140812 72.540525 
L 377.140812 72.507383 
L 378.140812 72.456146 
L 379.140812 72.387747 
L 380.140812 72.321532 
L 381.140812 72.244615 
L 382.140812 72.217299 
L 383.140812 72.190822 
L 384.140812 72.168171 
L 385.140812 72.14864 
L 386.140812 72.122246 
L 387.140812 72.072475 
L 388.140812 72.037402 
L 389.140812 72.001536 
L 390.140812 71.986169 
L 391.140812 71.9704 
L 392.140812 71.966987 
L 393.140812 71.96457 
L 394.140812 71.965056 
L 395.140812 71.966985 
L 396.140812 71.980242 
L 397.140812 71.988633 
L 398.140812 72.010169 
L 399.140812 72.033202 
L 400.140812 72.050435 
L 401.140812 72.068898 
L 402.140812 72.08935 
L 403.140812 72.10595 
L 404.140812 72.168729 
L 405.140812 72.243994 
L 406.140812 72.276633 
L 407.140812 72.344197 
L 408.140812 72.398244 
L 409.140812 72.431948 
L 410.140812 72.522074 
L 411.140812 72.550609 
L 412.140812 72.582095 
L 413.140812 72.613106 
L 414.140812 72.667914 
L 415.140812 72.732501 
L 416.140812 72.770697 
L 417.140812 72.866631 
L 418.140812 72.915889 
L 419.140812 72.959958 
L 420.140812 73.000082 
L 421.140812 73.108449 
L 422.140812 73.150077 
L 423.140812 73.212219 
L 424.140812 73.282181 
L 425.140812 73.386685 
L 426.140812 73.423673 
L 427.140812 73.46955 
L 428.140812 73.538045 
L 429.140812 73.586791 
L 430.140812 73.664388 
L 431.140812 73.694929 
L 432.140812 73.764443 
L 433.140812 73.788416 
L 434.140812 73.817038 
L 435.140812 73.858831 
L 436.140812 73.880407 
L 437.140812 73.894355 
L 438.140812 73.921077 
L 439.140812 73.930387 
L 440.140812 73.942834 
L 441.140812 73.953889 
L 442.140812 73.959553 
L 443.140812 73.964317 
L 444.140812 73.958769 
L 445.140812 73.945481 
L 446.140812 73.937964 
L 447.140812 73.913179 
L 448.140812 73.88961 
L 449.140812 73.85343 
L 450.140812 73.827468 
L 451.140812 73.805146 
L 452.140812 73.736386 
L 453.140812 73.661851 
L 454.140812 73.567872 
L 455.140812 73.51682 
L 456.140812 73.462886 
L 457.140812 73.427635 
L 458.140812 73.321547 
L 459.140812 73.269283 
L 460.140812 73.232376 
L 461.140812 73.201345 
L 462.140812 73.14019 
L 463.140812 73.07277 
L 464.140812 73.023864 
L 465.140812 72.958672 
L 466.140812 72.920484 
L 467.140812 72.878488 
L 468.140812 72.836471 
L 469.140812 72.776955 
L 470.140812 72.663795 
L 471.140812 72.611544 
L 472.140812 72.572126 
L 473.140812 72.525025 
L 474.140812 72.468245 
L 475.140812 72.435582 
L 476.140812 72.399404 
L 477.140812 72.367314 
L 478.140812 72.333034 
L 479.140812 72.274656 
L 480.140812 72.229471 
L 481.140812 72.199847 
L 482.140812 72.149461 
L 483.140812 72.124264 
L 484.140812 72.103213 
L 485.140812 72.068245 
L 486.140812 72.043955 
L 487.140812 72.029888 
L 488.140812 72.010946 
L 489.140812 71.995285 
L 490.140812 71.982733 
L 491.140812 71.976897 
L 492.140812 71.970015 
L 493.140812 71.964841 
L 494.140812 71.966624 
L 495.140812 71.969349 
L 496.140812 71.980503 
L 497.140812 72.008738 
L 498.140812 72.052526 
L 499.140812 72.073215 
L 500.140812 72.114188 
L 501.140812 72.154263 
L 502.140812 72.173373 
L 503.140812 72.195882 
L 504.140812 72.262533 
L 505.140812 72.312243 
L 506.140812 72.385949 
L 507.140812 72.417263 
L 508.140812 72.493885 
L 509.140812 72.532183 
L 510.140812 72.6063 
L 511.140812 72.710358 
L 512.140812 72.780189 
L 513.140812 72.885423 
L 514.140812 72.940438 
L 515.140812 73.063913 
L 516.140812 73.134472 
L 517.140812 73.250311 
L 518.140812 73.300492 
L 519.140812 73.336096 
L 520.140812 73.427503 
L 521.140812 73.481011 
L 522.140812 73.568919 
L 523.140812 73.638104 
L 524.140812 73.684868 
L 525.140812 73.756912 
L 526.140812 73.807054 
L 527.140812 73.824444 
L 528.140812 73.851447 
L 529.140812 73.870874 
L 530.140812 73.890212 
L 531.140812 73.928461 
L 532.140812 73.944894 
L 533.140812 73.953263 
L 534.140812 73.957582 
L 535.140812 73.964137 
L 536.140812 73.961591 
L 537.140812 73.956132 
L 538.140812 73.939704 
L 539.140812 73.907769 
L 540.140812 73.869789 
L 541.140812 73.834985 
L 542.140812 73.771913 
L 543.140812 73.750486 
L 544.140812 73.699868 
L 545.140812 73.674911 
L 546.140812 73.619277 
L 547.140812 73.588048 
L 548.140812 73.537904 
L 549.140812 73.505411 
L 550.140812 73.424999 
L 551.140812 73.356073 
L 552.140812 73.240376 
L 553.140812 73.164897 
L 554.140812 73.049372 
L 555.140812 72.969888 
L 556.586634 72.861447 
" clip-path="url(#pbac7a8645f)" style="fill: none; stroke: #ffffff; stroke-width: 3; stroke-linecap: round"/>
         <path d="M 326.140812 72.964375 
L 327.140812 72.995811 
L 328.140812 73.032752 
L 329.140812 73.130498 
L 330.140812 73.16302 
L 331.140812 73.236645 
L 332.140812 73.27521 
L 333.140812 73.310623 
L 334.140812 73.368263 
L 335.140812 73.438649 
L 336.140812 73.490614 
L 337.140812 73.549703 
L 338.140812 73.638024 
L 339.140812 73.684169 
L 340.140812 73.72658 
L 341.140812 73.757072 
L 342.140812 73.783117 
L 343.140812 73.804317 
L 344.140812 73.858618 
L 345.140812 73.886556 
L 346.140812 73.91628 
L 347.140812 73.941675 
L 348.140812 73.952875 
L 349.140812 73.962999 
L 350.140812 73.962795 
L 351.140812 73.953285 
L 352.140812 73.941631 
L 353.140812 73.910602 
L 354.140812 73.899434 
L 355.140812 73.869317 
L 356.140812 73.80954 
L 357.140812 73.772348 
L 358.140812 73.733252 
L 359.140812 73.690812 
L 360.140812 73.658047 
L 361.140812 73.590621 
L 362.140812 73.551495 
L 363.140812 73.50882 
L 364.140812 73.43824 
L 365.140812 73.401849 
L 366.140812 73.343446 
L 367.140812 73.232493 
L 368.140812 73.161835 
L 369.140812 73.048895 
L 370.140812 73.003122 
L 371.140812 72.941839 
L 372.140812 72.89334 
L 373.140812 72.812517 
L 374.140812 72.693998 
L 375.140812 72.623787 
L 376.140812 72.540525 
L 377.140812 72.507383 
L 378.140812 72.456146 
L 379.140812 72.387747 
L 380.140812 72.321532 
L 381.140812 72.244615 
L 382.140812 72.217299 
L 383.140812 72.190822 
L 384.140812 72.168171 
L 385.140812 72.14864 
L 386.140812 72.122246 
L 387.140812 72.072475 
L 388.140812 72.037402 
L 389.140812 72.001536 
L 390.140812 71.986169 
L 391.140812 71.9704 
L 392.140812 71.966987 
L 393.140812 71.96457 
L 394.140812 71.965056 
L 395.140812 71.966985 
L 396.140812 71.980242 
L 397.140812 71.988633 
L 398.140812 72.010169 
L 399.140812 72.033202 
L 400.140812 72.050435 
L 401.140812 72.068898 
L 402.140812 72.08935 
L 403.140812 72.10595 
L 404.140812 72.168729 
L 405.140812 72.243994 
L 406.140812 72.276633 
L 407.140812 72.344197 
L 408.140812 72.398244 
L 409.140812 72.431948 
L 410.140812 72.522074 
L 411.140812 72.550609 
L 412.140812 72.582095 
L 413.140812 72.613106 
L 414.140812 72.667914 
L 415.140812 72.732501 
L 416.140812 72.770697 
L 417.140812 72.866631 
L 418.140812 72.915889 
L 419.140812 72.959958 
L 420.140812 73.000082 
L 421.140812 73.108449 
L 422.140812 73.150077 
L 423.140812 73.212219 
L 424.140812 73.282181 
L 425.140812 73.386685 
L 426.140812 73.423673 
L 427.140812 73.46955 
L 428.140812 73.538045 
L 429.140812 73.586791 
L 430.140812 73.664388 
L 431.140812 73.694929 
L 432.140812 73.764443 
L 433.140812 73.788416 
L 434.140812 73.817038 
L 435.140812 73.858831 
L 436.140812 73.880407 
L 437.140812 73.894355 
L 438.140812 73.921077 
L 439.140812 73.930387 
L 440.140812 73.942834 
L 441.140812 73.953889 
L 442.140812 73.959553 
L 443.140812 73.964317 
L 444.140812 73.958769 
L 445.140812 73.945481 
L 446.140812 73.937964 
L 447.140812 73.913179 
L 448.140812 73.88961 
L 449.140812 73.85343 
L 450.140812 73.827468 
L 451.140812 73.805146 
L 452.140812 73.736386 
L 453.140812 73.661851 
L 454.140812 73.567872 
L 455.140812 73.51682 
L 456.140812 73.462886 
L 457.140812 73.427635 
L 458.140812 73.321547 
L 459.140812 73.269283 
L 460.140812 73.232376 
L 461.140812 73.201345 
L 462.140812 73.14019 
L 463.140812 73.07277 
L 464.140812 73.023864 
L 465.140812 72.958672 
L 466.140812 72.920484 
L 467.140812 72.878488 
L 468.140812 72.836471 
L 469.140812 72.776955 
L 470.140812 72.663795 
L 471.140812 72.611544 
L 472.140812 72.572126 
L 473.140812 72.525025 
L 474.140812 72.468245 
L 475.140812 72.435582 
L 476.140812 72.399404 
L 477.140812 72.367314 
L 478.140812 72.333034 
L 479.140812 72.274656 
L 480.140812 72.229471 
L 481.140812 72.199847 
L 482.140812 72.149461 
L 483.140812 72.124264 
L 484.140812 72.103213 
L 485.140812 72.068245 
L 486.140812 72.043955 
L 487.140812 72.029888 
L 488.140812 72.010946 
L 489.140812 71.995285 
L 490.140812 71.982733 
L 491.140812 71.976897 
L 492.140812 71.970015 
L 493.140812 71.964841 
L 494.140812 71.966624 
L 495.140812 71.969349 
L 496.140812 71.980503 
L 497.140812 72.008738 
L 498.140812 72.052526 
L 499.140812 72.073215 
L 500.140812 72.114188 
L 501.140812 72.154263 
L 502.140812 72.173373 
L 503.140812 72.195882 
L 504.140812 72.262533 
L 505.140812 72.312243 
L 506.140812 72.385949 
L 507.140812 72.417263 
L 508.140812 72.493885 
L 509.140812 72.532183 
L 510.140812 72.6063 
L 511.140812 72.710358 
L 512.140812 72.780189 
L 513.140812 72.885423 
L 514.140812 72.940438 
L 515.140812 73.063913 
L 516.140812 73.134472 
L 517.140812 73.250311 
L 518.140812 73.300492 
L 519.140812 73.336096 
L 520.140812 73.427503 
L 521.140812 73.481011 
L 522.140812 73.568919 
L 523.140812 73.638104 
L 524.140812 73.684868 
L 525.140812 73.756912 
L 526.140812 73.807054 
L 527.140812 73.824444 
L 528.140812 73.851447 
L 529.140812 73.870874 
L 530.140812 73.890212 
L 531.140812 73.928461 
L 532.140812 73.944894 
L 533.140812 73.953263 
L 534.140812 73.957582 
L 535.140812 73.964137 
L 536.140812 73.961591 
L 537.140812 73.956132 
L 538.140812 73.939704 
L 539.140812 73.907769 
L 540.140812 73.869789 
L 541.140812 73.834985 
L 542.140812 73.771913 
L 543.140812 73.750486 
L 544.140812 73.699868 
L 545.140812 73.674911 
L 546.140812 73.619277 
L 547.140812 73.588048 
L 548.140812 73.537904 
L 549.140812 73.505411 
L 550.140812 73.424999 
L 551.140812 73.356073 
L 552.140812 73.240376 
L 553.140812 73.164897 
L 554.140812 73.049372 
L 555.140812 72.969888 
L 556.586634 72.861447 
" clip-path="url(#pbac7a8645f)" style="fill: none; stroke: #1f77b4; stroke-linecap: round"/>
         <path d="M 552.586634 70.964375 
L 553.467002 71.439706 
L 554.344909 71.91996 
L 555.195622 72.454601 
L 556.497797 73.142048 
L 555.570444 73.168063 
L 554.658769 73.580783 
L 553.748505 73.996322 
L 552.406009 74.603126 
L 553.060908 73.964375 
L 553.112872 72.964375 
L 553.171962 70.964375 
z
" clip-path="url(#pbac7a8645f)" style="fill: #ffffff; stroke: #ffffff; stroke-width: 3; stroke-linecap: round"/>
         <path d="M 552.586634 70.964375 
L 553.467002 71.439706 
L 554.344909 71.91996 
L 555.195622 72.454601 
L 556.497797 73.142048 
L 555.570444 73.168063 
L 554.658769 73.580783 
L 553.748505 73.996322 
L 552.406009 74.603126 
L 553.060908 73.964375 
L 553.112872 72.964375 
L 553.171962 70.964375 
z
" clip-path="url(#pbac7a8645f)" style="fill: #ffffff; stroke: #1f77b4; stroke-linecap: round"/>
         <g id="patch_9">
          <path d="M 117.33323 187.330029 
L 118.33323 187.361465 
L 119.33323 187.398406 
L 120.33323 187.496152 
L 121.33323 187.528674 
L 122.33323 187.602299 
L 123.33323 187.640864 
L 124.33323 187.676277 
L 125.33323 187.733917 
L 126.33323 187.804303 
L 127.33323 187.856268 
L 128.33323 187.915357 
L 129.33323 188.003678 
L 130.33323 188.049823 
L 131.33323 188.092234 
L 132.33323 188.122726 
L 133.33323 188.148771 
L 134.33323 188.169971 
L 135.33323 188.224272 
L 136.33323 188.25221 
L 137.33323 188.281934 
L 138.33323 188.307329 
L 139.33323 188.318529 
L 140.33323 188.328653 
L 141.33323 188.328449 
L 142.33323 188.318939 
L 143.33323 188.307285 
L 144.33323 188.276256 
L 145.33323 188.265088 
L 146.33323 188.234971 
L 147.33323 188.175194 
L 148.33323 188.138002 
L 149.33323 188.098906 
L 150.33323 188.056466 
L 151.33323 188.023701 
L 152.33323 187.956275 
L 153.33323 187.917149 
L 154.33323 187.874474 
L 155.33323 187.803894 
L 156.33323 187.767503 
L 157.33323 187.7091 
L 158.33323 187.598147 
L 159.33323 187.527489 
L 160.33323 187.414549 
L 161.33323 187.368776 
L 162.33323 187.307493 
L 163.33323 187.258994 
L 164.33323 187.178171 
L 165.33323 187.059652 
L 166.33323 186.989441 
L 167.33323 186.906179 
L 168.33323 186.873037 
L 169.33323 186.8218 
L 170.33323 186.753401 
L 171.33323 186.687186 
L 172.33323 186.610269 
L 173.33323 186.582953 
L 174.33323 186.556476 
L 175.33323 186.533825 
L 176.33323 186.514294 
L 177.33323 186.4879 
L 178.33323 186.438129 
L 179.33323 186.403056 
L 180.33323 186.36719 
L 181.33323 186.351823 
L 182.33323 186.336054 
L 183.33323 186.332641 
L 184.33323 186.330224 
L 185.33323 186.33071 
L 186.33323 186.332639 
L 187.33323 186.345896 
L 188.33323 186.354286 
L 189.33323 186.375823 
L 190.33323 186.398856 
L 191.33323 186.416089 
L 192.33323 186.434552 
L 193.33323 186.455004 
L 194.33323 186.471604 
L 195.33323 186.534383 
L 196.33323 186.609648 
L 197.33323 186.642287 
L 198.33323 186.709851 
L 199.33323 186.763898 
L 200.33323 186.797602 
L 201.33323 186.887728 
L 202.33323 186.916263 
L 203.33323 186.947749 
L 204.33323 186.97876 
L 205.33323 187.033568 
L 206.33323 187.098155 
L 207.33323 187.136351 
L 208.33323 187.232285 
L 209.33323 187.281543 
L 210.33323 187.325612 
L 211.33323 187.365736 
L 212.33323 187.474103 
L 213.33323 187.515731 
L 214.33323 187.577873 
L 215.33323 187.647835 
L 216.33323 187.752339 
L 217.33323 187.789327 
L 218.33323 187.835204 
L 219.33323 187.903699 
L 220.33323 187.952444 
L 221.33323 188.030042 
L 222.33323 188.060583 
L 223.33323 188.130097 
L 224.33323 188.15407 
L 225.33323 188.182692 
L 226.33323 188.224485 
L 227.33323 188.246061 
L 228.33323 188.260009 
L 229.33323 188.286731 
L 230.33323 188.296041 
L 231.33323 188.308488 
L 232.33323 188.319543 
L 233.33323 188.325207 
L 234.33323 188.329971 
L 235.33323 188.324423 
L 236.33323 188.311135 
L 237.33323 188.303618 
L 238.33323 188.278833 
L 239.33323 188.255264 
L 240.33323 188.219084 
L 241.33323 188.193122 
L 242.33323 188.1708 
L 243.33323 188.10204 
L 244.33323 188.027505 
L 245.33323 187.933526 
L 246.33323 187.882474 
L 247.33323 187.82854 
L 248.33323 187.793289 
L 249.33323 187.687201 
L 250.33323 187.634937 
L 251.33323 187.59803 
L 252.33323 187.566999 
L 253.33323 187.505844 
L 254.33323 187.438424 
L 255.33323 187.389518 
L 256.33323 187.324326 
L 257.33323 187.286138 
L 258.33323 187.244142 
L 259.33323 187.202125 
L 260.33323 187.142609 
L 261.33323 187.029449 
L 262.33323 186.977198 
L 263.33323 186.93778 
L 264.33323 186.890679 
L 265.33323 186.833899 
L 266.33323 186.801236 
L 267.33323 186.765058 
L 268.33323 186.732968 
L 269.33323 186.698688 
L 270.33323 186.64031 
L 271.33323 186.595125 
L 272.33323 186.565501 
L 273.33323 186.515115 
L 274.33323 186.489918 
L 275.33323 186.468867 
L 276.33323 186.433899 
L 277.33323 186.409609 
L 278.33323 186.395542 
L 279.33323 186.3766 
L 280.33323 186.360939 
L 281.33323 186.348387 
L 282.33323 186.342551 
L 283.33323 186.335669 
L 284.33323 186.330495 
L 285.33323 186.332278 
L 286.33323 186.335003 
L 287.33323 186.346157 
L 288.33323 186.374392 
L 289.33323 186.41818 
L 290.33323 186.438869 
L 291.33323 186.479842 
L 292.33323 186.519917 
L 293.33323 186.539027 
L 294.33323 186.561536 
L 295.33323 186.628187 
L 296.33323 186.677896 
L 297.33323 186.751603 
L 298.33323 186.782917 
L 299.33323 186.859539 
L 300.33323 186.897837 
L 301.33323 186.971954 
L 302.33323 187.076012 
L 303.33323 187.145843 
L 304.33323 187.251076 
L 305.33323 187.306092 
L 306.33323 187.429567 
L 307.33323 187.500126 
L 308.33323 187.615965 
L 309.33323 187.666146 
L 310.33323 187.70175 
L 311.33323 187.793157 
L 312.33323 187.846665 
L 313.33323 187.934573 
L 314.33323 188.003758 
L 315.33323 188.050522 
L 316.33323 188.122566 
L 317.33323 188.172708 
L 318.33323 188.190098 
L 319.33323 188.217101 
L 320.33323 188.236528 
L 321.33323 188.255866 
L 322.33323 188.294115 
L 323.33323 188.310548 
L 324.33323 188.318917 
L 325.33323 188.323236 
L 326.33323 188.329791 
L 327.33323 188.327245 
L 328.33323 188.321786 
L 329.33323 188.305358 
L 330.33323 188.273423 
L 331.33323 188.235443 
L 332.33323 188.200639 
L 333.33323 188.137567 
L 334.33323 188.11614 
L 335.33323 188.065522 
L 336.33323 188.040565 
L 337.33323 187.984931 
L 338.33323 187.953702 
L 339.33323 187.903558 
L 340.33323 187.871065 
L 341.33323 187.790653 
L 342.33323 187.721727 
L 343.33323 187.60603 
L 344.33323 187.530551 
L 345.33323 187.415026 
L 346.33323 187.335542 
L 347.33323 187.227101 
L 348.33323 187.187733 
L 349.33323 187.084865 
L 350.33323 186.985067 
L 351.33323 186.93957 
L 352.33323 186.905248 
L 353.33323 186.853292 
L 354.33323 186.813645 
L 355.33323 186.778131 
L 356.33323 186.710486 
L 357.33323 186.671404 
L 358.33323 186.620923 
L 359.33323 186.571617 
L 360.33323 186.520547 
L 361.33323 186.476308 
L 362.33323 186.454288 
L 363.33323 186.438732 
L 364.33323 186.396285 
L 365.33323 186.381417 
L 366.33323 186.358689 
L 367.33323 186.338373 
L 368.33323 186.332576 
L 369.33323 186.330094 
L 370.33323 186.333151 
L 371.33323 186.344747 
L 372.33323 186.361667 
L 373.33323 186.393328 
L 374.33323 186.407411 
L 375.33323 186.460083 
L 376.33323 186.509172 
L 377.33323 186.563873 
L 378.33323 186.608221 
L 379.33323 186.678213 
L 380.33323 186.728596 
L 381.33323 186.782503 
L 382.33323 186.851942 
L 383.33323 186.90933 
L 384.33323 186.959495 
L 385.33323 187.036657 
L 386.33323 187.094847 
L 387.33323 187.155485 
L 388.33323 187.192686 
L 389.33323 187.257778 
L 390.33323 187.362908 
L 391.33323 187.42321 
L 392.33323 187.519532 
L 393.33323 187.551535 
L 394.33323 187.602552 
L 395.33323 187.719344 
L 396.33323 187.754791 
L 397.33323 187.810671 
L 398.33323 187.841047 
L 399.33323 187.929433 
L 400.33323 187.974197 
L 401.33323 188.055085 
L 402.33323 188.115231 
L 403.33323 188.178317 
L 404.33323 188.201265 
L 405.33323 188.217435 
L 406.33323 188.246364 
L 407.33323 188.276716 
L 408.33323 188.28929 
L 409.33323 188.314169 
L 410.33323 188.326253 
L 411.33323 188.330015 
L 412.33323 188.325579 
L 413.33323 188.31324 
L 414.33323 188.298827 
L 415.33323 188.282754 
L 416.33323 188.247233 
L 417.33323 188.227299 
L 418.33323 188.17071 
L 419.33323 188.103516 
L 420.33323 188.076145 
L 421.33323 188.041998 
L 422.33323 187.993317 
L 423.33323 187.945033 
L 424.33323 187.885956 
L 425.33323 187.790351 
L 426.33323 187.747211 
L 427.33323 187.697363 
L 428.33323 187.638829 
L 429.33323 187.591243 
L 430.33323 187.530115 
L 431.33323 187.47403 
L 432.875364 187.399859 
" clip-path="url(#pbac7a8645f)" style="fill: none; stroke: #ffffff; stroke-width: 3; stroke-linecap: round"/>
          <path d="M 117.33323 187.330029 
L 118.33323 187.361465 
L 119.33323 187.398406 
L 120.33323 187.496152 
L 121.33323 187.528674 
L 122.33323 187.602299 
L 123.33323 187.640864 
L 124.33323 187.676277 
L 125.33323 187.733917 
L 126.33323 187.804303 
L 127.33323 187.856268 
L 128.33323 187.915357 
L 129.33323 188.003678 
L 130.33323 188.049823 
L 131.33323 188.092234 
L 132.33323 188.122726 
L 133.33323 188.148771 
L 134.33323 188.169971 
L 135.33323 188.224272 
L 136.33323 188.25221 
L 137.33323 188.281934 
L 138.33323 188.307329 
L 139.33323 188.318529 
L 140.33323 188.328653 
L 141.33323 188.328449 
L 142.33323 188.318939 
L 143.33323 188.307285 
L 144.33323 188.276256 
L 145.33323 188.265088 
L 146.33323 188.234971 
L 147.33323 188.175194 
L 148.33323 188.138002 
L 149.33323 188.098906 
L 150.33323 188.056466 
L 151.33323 188.023701 
L 152.33323 187.956275 
L 153.33323 187.917149 
L 154.33323 187.874474 
L 155.33323 187.803894 
L 156.33323 187.767503 
L 157.33323 187.7091 
L 158.33323 187.598147 
L 159.33323 187.527489 
L 160.33323 187.414549 
L 161.33323 187.368776 
L 162.33323 187.307493 
L 163.33323 187.258994 
L 164.33323 187.178171 
L 165.33323 187.059652 
L 166.33323 186.989441 
L 167.33323 186.906179 
L 168.33323 186.873037 
L 169.33323 186.8218 
L 170.33323 186.753401 
L 171.33323 186.687186 
L 172.33323 186.610269 
L 173.33323 186.582953 
L 174.33323 186.556476 
L 175.33323 186.533825 
L 176.33323 186.514294 
L 177.33323 186.4879 
L 178.33323 186.438129 
L 179.33323 186.403056 
L 180.33323 186.36719 
L 181.33323 186.351823 
L 182.33323 186.336054 
L 183.33323 186.332641 
L 184.33323 186.330224 
L 185.33323 186.33071 
L 186.33323 186.332639 
L 187.33323 186.345896 
L 188.33323 186.354286 
L 189.33323 186.375823 
L 190.33323 186.398856 
L 191.33323 186.416089 
L 192.33323 186.434552 
L 193.33323 186.455004 
L 194.33323 186.471604 
L 195.33323 186.534383 
L 196.33323 186.609648 
L 197.33323 186.642287 
L 198.33323 186.709851 
L 199.33323 186.763898 
L 200.33323 186.797602 
L 201.33323 186.887728 
L 202.33323 186.916263 
L 203.33323 186.947749 
L 204.33323 186.97876 
L 205.33323 187.033568 
L 206.33323 187.098155 
L 207.33323 187.136351 
L 208.33323 187.232285 
L 209.33323 187.281543 
L 210.33323 187.325612 
L 211.33323 187.365736 
L 212.33323 187.474103 
L 213.33323 187.515731 
L 214.33323 187.577873 
L 215.33323 187.647835 
L 216.33323 187.752339 
L 217.33323 187.789327 
L 218.33323 187.835204 
L 219.33323 187.903699 
L 220.33323 187.952444 
L 221.33323 188.030042 
L 222.33323 188.060583 
L 223.33323 188.130097 
L 224.33323 188.15407 
L 225.33323 188.182692 
L 226.33323 188.224485 
L 227.33323 188.246061 
L 228.33323 188.260009 
L 229.33323 188.286731 
L 230.33323 188.296041 
L 231.33323 188.308488 
L 232.33323 188.319543 
L 233.33323 188.325207 
L 234.33323 188.329971 
L 235.33323 188.324423 
L 236.33323 188.311135 
L 237.33323 188.303618 
L 238.33323 188.278833 
L 239.33323 188.255264 
L 240.33323 188.219084 
L 241.33323 188.193122 
L 242.33323 188.1708 
L 243.33323 188.10204 
L 244.33323 188.027505 
L 245.33323 187.933526 
L 246.33323 187.882474 
L 247.33323 187.82854 
L 248.33323 187.793289 
L 249.33323 187.687201 
L 250.33323 187.634937 
L 251.33323 187.59803 
L 252.33323 187.566999 
L 253.33323 187.505844 
L 254.33323 187.438424 
L 255.33323 187.389518 
L 256.33323 187.324326 
L 257.33323 187.286138 
L 258.33323 187.244142 
L 259.33323 187.202125 
L 260.33323 187.142609 
L 261.33323 187.029449 
L 262.33323 186.977198 
L 263.33323 186.93778 
L 264.33323 186.890679 
L 265.33323 186.833899 
L 266.33323 186.801236 
L 267.33323 186.765058 
L 268.33323 186.732968 
L 269.33323 186.698688 
L 270.33323 186.64031 
L 271.33323 186.595125 
L 272.33323 186.565501 
L 273.33323 186.515115 
L 274.33323 186.489918 
L 275.33323 186.468867 
L 276.33323 186.433899 
L 277.33323 186.409609 
L 278.33323 186.395542 
L 279.33323 186.3766 
L 280.33323 186.360939 
L 281.33323 186.348387 
L 282.33323 186.342551 
L 283.33323 186.335669 
L 284.33323 186.330495 
L 285.33323 186.332278 
L 286.33323 186.335003 
L 287.33323 186.346157 
L 288.33323 186.374392 
L 289.33323 186.41818 
L 290.33323 186.438869 
L 291.33323 186.479842 
L 292.33323 186.519917 
L 293.33323 186.539027 
L 294.33323 186.561536 
L 295.33323 186.628187 
L 296.33323 186.677896 
L 297.33323 186.751603 
L 298.33323 186.782917 
L 299.33323 186.859539 
L 300.33323 186.897837 
L 301.33323 186.971954 
L 302.33323 187.076012 
L 303.33323 187.145843 
L 304.33323 187.251076 
L 305.33323 187.306092 
L 306.33323 187.429567 
L 307.33323 187.500126 
L 308.33323 187.615965 
L 309.33323 187.666146 
L 310.33323 187.70175 
L 311.33323 187.793157 
L 312.33323 187.846665 
L 313.33323 187.934573 
L 314.33323 188.003758 
L 315.33323 188.050522 
L 316.33323 188.122566 
L 317.33323 188.172708 
L 318.33323 188.190098 
L 319.33323 188.217101 
L 320.33323 188.236528 
L 321.33323 188.255866 
L 322.33323 188.294115 
L 323.33323 188.310548 
L 324.33323 188.318917 
L 325.33323 188.323236 
L 326.33323 188.329791 
L 327.33323 188.327245 
L 328.33323 188.321786 
L 329.33323 188.305358 
L 330.33323 188.273423 
L 331.33323 188.235443 
L 332.33323 188.200639 
L 333.33323 188.137567 
L 334.33323 188.11614 
L 335.33323 188.065522 
L 336.33323 188.040565 
L 337.33323 187.984931 
L 338.33323 187.953702 
L 339.33323 187.903558 
L 340.33323 187.871065 
L 341.33323 187.790653 
L 342.33323 187.721727 
L 343.33323 187.60603 
L 344.33323 187.530551 
L 345.33323 187.415026 
L 346.33323 187.335542 
L 347.33323 187.227101 
L 348.33323 187.187733 
L 349.33323 187.084865 
L 350.33323 186.985067 
L 351.33323 186.93957 
L 352.33323 186.905248 
L 353.33323 186.853292 
L 354.33323 186.813645 
L 355.33323 186.778131 
L 356.33323 186.710486 
L 357.33323 186.671404 
L 358.33323 186.620923 
L 359.33323 186.571617 
L 360.33323 186.520547 
L 361.33323 186.476308 
L 362.33323 186.454288 
L 363.33323 186.438732 
L 364.33323 186.396285 
L 365.33323 186.381417 
L 366.33323 186.358689 
L 367.33323 186.338373 
L 368.33323 186.332576 
L 369.33323 186.330094 
L 370.33323 186.333151 
L 371.33323 186.344747 
L 372.33323 186.361667 
L 373.33323 186.393328 
L 374.33323 186.407411 
L 375.33323 186.460083 
L 376.33323 186.509172 
L 377.33323 186.563873 
L 378.33323 186.608221 
L 379.33323 186.678213 
L 380.33323 186.728596 
L 381.33323 186.782503 
L 382.33323 186.851942 
L 383.33323 186.90933 
L 384.33323 186.959495 
L 385.33323 187.036657 
L 386.33323 187.094847 
L 387.33323 187.155485 
L 388.33323 187.192686 
L 389.33323 187.257778 
L 390.33323 187.362908 
L 391.33323 187.42321 
L 392.33323 187.519532 
L 393.33323 187.551535 
L 394.33323 187.602552 
L 395.33323 187.719344 
L 396.33323 187.754791 
L 397.33323 187.810671 
L 398.33323 187.841047 
L 399.33323 187.929433 
L 400.33323 187.974197 
L 401.33323 188.055085 
L 402.33323 188.115231 
L 403.33323 188.178317 
L 404.33323 188.201265 
L 405.33323 188.217435 
L 406.33323 188.246364 
L 407.33323 188.276716 
L 408.33323 188.28929 
L 409.33323 188.314169 
L 410.33323 188.326253 
L 411.33323 188.330015 
L 412.33323 188.325579 
L 413.33323 188.31324 
L 414.33323 188.298827 
L 415.33323 188.282754 
L 416.33323 188.247233 
L 417.33323 188.227299 
L 418.33323 188.17071 
L 419.33323 188.103516 
L 420.33323 188.076145 
L 421.33323 188.041998 
L 422.33323 187.993317 
L 423.33323 187.945033 
L 424.33323 187.885956 
L 425.33323 187.790351 
L 426.33323 187.747211 
L 427.33323 187.697363 
L 428.33323 187.638829 
L 429.33323 187.591243 
L 430.33323 187.530115 
L 431.33323 187.47403 
L 432.875364 187.399859 
" clip-path="url(#pbac7a8645f)" style="fill: none; stroke: #ff7f0e; stroke-linecap: round"/>
          <path d="M 428.875364 185.330029 
L 429.755733 185.80536 
L 430.63364 186.285614 
L 431.484353 186.820255 
L 432.786528 187.507702 
L 431.859175 187.533717 
L 430.9475 187.946437 
L 430.037236 188.361976 
L 428.69474 188.96878 
L 429.349639 188.330029 
L 429.401603 187.330029 
L 429.460693 185.330029 
z
" clip-path="url(#pbac7a8645f)" style="fill: #ffffff; stroke: #ffffff; stroke-width: 3; stroke-linecap: round"/>
          <path d="M 428.875364 185.330029 
L 429.755733 185.80536 
L 430.63364 186.285614 
L 431.484353 186.820255 
L 432.786528 187.507702 
L 431.859175 187.533717 
L 430.9475 187.946437 
L 430.037236 188.361976 
L 428.69474 188.96878 
L 429.349639 188.330029 
L 429.401603 187.330029 
L 429.460693 185.330029 
z
" clip-path="url(#pbac7a8645f)" style="fill: #ffffff; stroke: #ff7f0e; stroke-linecap: round"/>
          <path d="M 447.103548 286.579261 
" clip-path="url(#pbac7a8645f)" style="fill: none; stroke-dasharray: 3.7,1.6; stroke-dashoffset: 0; stroke: #2ca02c"/>
          <path d="M 446.103548 286.579261 
L 448.103548 287.579261 
L 448.103548 285.579261 
z
" clip-path="url(#pbac7a8645f)" style="fill: #2ca02c; stroke: #2ca02c; stroke-linejoin: miter"/>
          <g id="patch_10">
           <path d="M 63.290625 321.621875 
L 63.290625 10.8 
" style="fill: none; stroke: #000000; stroke-width: 0.8; stroke-linejoin: miter; stroke-linecap: square"/>
          </g>
          <g id="text_14">
           <g id="patch_11">
            <path d="M 297.667685 57.901804 
L 318.972373 57.901804 
Q 320.972373 57.901804 320.972373 55.901804 
L 320.972373 46.223679 
Q 320.972373 44.223679 318.972373 44.223679 
L 297.667685 44.223679 
Q 295.667685 44.223679 295.667685 46.223679 
L 295.667685 55.901804 
Q 295.667685 57.901804 297.667685 57.901804 
z
" style="fill: #ffffff; opacity: 0.6"/>
           </g>
           <!-- ANC -->
           <g transform="translate(297.667685 53.822116) scale(0.1 -0.1)">
            <defs>
             <path id="DejaVuSans-4e" d="M 628 4666 
L 1478 4666 
L 3547 763 
L 3547 4666 
L 4159 4666 
L 4159 0 
L 3309 0 
L 1241 3903 
L 1241 0 
L 628 0 
L 628 4666 
z
" transform="scale(0.015625)"/>
            </defs>
            <use xlink:href="#DejaVuSans-41"/>
            <use xlink:href="#DejaVuSans-4e" x="68.408203"/>
            <use xlink:href="#DejaVuSans-43" x="143.212891"/>
           </g>
          </g>
         </g>
        </g>
        <defs>
         <clipPath id="pbac7a8645f">
          <rect x="63.290625" y="10.8" width="540.309375" height="310.821875"/>
         </clipPath>
        </defs>
       </g>
      </g>
     </g>
    </g>
   </g>
  </g>
 </g>
</svg>
