<?xml version="1.0" encoding="utf-8" standalone="no"?>
<!DOCTYPE svg PUBLIC "-//W3C//DTD SVG 1.1//EN"
  "http://www.w3.org/Graphics/SVG/1.1/DTD/svg11.dtd">
<svg xmlns:xlink="http://www.w3.org/1999/xlink" width="614.4pt" height="345.6pt" viewBox="0 0 614.4 345.6" xmlns="http://www.w3.org/2000/svg" version="1.1">
 <metadata>
  <rdf:RDF xmlns:dc="http://purl.org/dc/elements/1.1/" xmlns:cc="http://creativecommons.org/ns#" xmlns:rdf="http://www.w3.org/1999/02/22-rdf-syntax-ns#">
   <cc:Work>
    <dc:type rdf:resource="http://purl.org/dc/dcmitype/StillImage"/>
    <dc:date>2024-04-17T19:40:20.655509</dc:date>
    <dc:format>image/svg+xml</dc:format>
    <dc:creator>
     <cc:Agent>
      <dc:title>Matplotlib v3.7.1, https://matplotlib.org/</dc:title>
     </cc:Agent>
    </dc:creator>
   </cc:Work>
  </rdf:RDF>
 </metadata>
 <defs>
  <style type="text/css">*{stroke-linejoin: round; stroke-linecap: butt}</style>
 </defs>
 <g id="figure_1">
  <g id="patch_1">
   <path d="M 0 345.6 
L 614.4 345.6 
L 614.4 0 
L 0 0 
z
" style="fill: #ffffff"/>
  </g>
  <g id="axes_1">
   <g id="patch_2">
    <path d="M 63.290625 321.621875 
L 603.6 321.621875 
L 603.6 10.8 
L 63.290625 10.8 
z
" style="fill: #ffffff"/>
   </g>
   <path d="M 571.822635 278.181572 
L 570.822635 278.150135 
L 569.822635 278.113195 
L 568.822635 278.015448 
L 567.822635 277.982927 
L 566.822635 277.909302 
L 565.822635 277.870737 
L 564.822635 277.835323 
L 563.822635 277.777684 
L 562.822635 277.707297 
L 561.822635 277.655333 
L 560.822635 277.596243 
L 559.822635 277.507922 
L 558.822635 277.461778 
L 557.822635 277.419367 
L 556.822635 277.388874 
L 555.822635 277.36283 
L 554.822635 277.341629 
L 553.822635 277.287328 
L 552.822635 277.259391 
L 551.822635 277.229667 
L 550.822635 277.204272 
L 549.822635 277.193072 
L 548.822635 277.182948 
L 547.822635 277.183152 
L 546.822635 277.192662 
L 545.822635 277.204315 
L 544.822635 277.235345 
L 543.822635 277.246513 
L 542.822635 277.27663 
L 541.822635 277.336407 
L 540.822635 277.373599 
L 539.822635 277.412695 
L 538.822635 277.455134 
L 537.822635 277.487899 
L 536.822635 277.555326 
L 535.822635 277.594452 
L 534.822635 277.637126 
L 533.822635 277.707707 
L 532.822635 277.744098 
L 531.822635 277.802501 
L 530.822635 277.913454 
L 529.822635 277.984112 
L 528.822635 278.097052 
L 527.822635 278.142825 
L 526.822635 278.204108 
L 525.822635 278.252607 
L 524.822635 278.33343 
L 523.822635 278.451949 
L 522.822635 278.522159 
L 521.822635 278.605422 
L 520.822635 278.638564 
L 519.822635 278.689801 
L 518.822635 278.758199 
L 517.822635 278.824415 
L 516.822635 278.901332 
L 515.822635 278.928647 
L 514.822635 278.955125 
L 513.822635 278.977775 
L 512.822635 278.997307 
L 511.822635 279.023701 
L 510.822635 279.073472 
L 509.822635 279.108545 
L 508.822635 279.14441 
L 507.822635 279.159778 
L 506.822635 279.175547 
L 505.822635 279.178959 
L 504.822635 279.181377 
L 503.822635 279.180891 
L 502.822635 279.178962 
L 501.822635 279.165705 
L 500.822635 279.157314 
L 499.822635 279.135777 
L 498.822635 279.112745 
L 497.822635 279.095511 
L 496.822635 279.077049 
L 495.822635 279.056596 
L 494.822635 279.039997 
L 493.822635 278.977218 
L 492.822635 278.901953 
L 491.822635 278.869314 
L 490.822635 278.80175 
L 489.822635 278.747703 
L 488.822635 278.713999 
L 487.822635 278.623873 
L 486.822635 278.595338 
L 485.822635 278.563852 
L 484.822635 278.532841 
L 483.822635 278.478033 
L 482.822635 278.413445 
L 481.822635 278.37525 
L 480.822635 278.279316 
L 479.822635 278.230058 
L 478.822635 278.185988 
L 477.822635 278.145865 
L 476.822635 278.037498 
L 475.822635 277.99587 
L 474.822635 277.933728 
L 473.822635 277.863766 
L 472.822635 277.759261 
L 471.822635 277.722274 
L 470.822635 277.676397 
L 469.822635 277.607902 
L 468.822635 277.559156 
L 467.822635 277.481559 
L 466.822635 277.451018 
L 465.822635 277.381504 
L 464.140809 277.357531 
" clip-path="url(#p7af5ccf0de)" style="fill: none; stroke-dasharray: 3.7,1.6; stroke-dashoffset: 0; stroke: #2ca02c"/>
   <g id="patch_3">
    <path d="M 333.524129 10.8 
L 333.524129 121.974533 
M 343.31996 10.8 
L 343.31996 121.974533 
" clip-path="url(#p7af5ccf0de)" style="fill: none; stroke: #ffffff; stroke-width: 3; stroke-linejoin: miter"/>
    <path d="M 333.524129 10.8 
L 333.524129 121.974533 
M 343.31996 10.8 
L 343.31996 121.974533 
" clip-path="url(#p7af5ccf0de)" style="fill: none; stroke: #1f77b4; stroke-linejoin: miter"/>
    <g id="PolyCollection_1">
     <path d="M 343.31996 10.8 
L 333.524129 10.8 
L 333.524129 121.974533 
L 343.31996 121.974533 
L 343.31996 121.974533 
L 343.31996 10.8 
z
" clip-path="url(#p7af5ccf0de)" style="fill: #1f77b4; fill-opacity: 0.5"/>
    </g>
    <g id="patch_4">
     <path d="M 156.626046 121.974533 
L 156.552349 302.844021 
L 155.754984 304.568518 
L 154.793682 306.101404 
L 153.693023 307.442679 
L 152.277298 308.783954 
L 150.745345 309.933619 
L 148.844471 311.083283 
L 146.485832 312.232948 
L 143.559191 313.382612 
L 139.927761 314.532277 
L 135.421817 315.681942 
L 129.830761 316.831606 
L 122.893277 317.981271 
L 114.285122 319.130935 
L 103.603968 320.2806 
L 90.350599 321.430264 
L 87.850142 321.621875 
M 160.651452 121.974533 
L 160.72515 302.844021 
L 161.522514 304.568518 
L 162.483817 306.101404 
L 163.584476 307.442679 
L 165.0002 308.783954 
L 166.532153 309.933619 
L 168.433027 311.083283 
L 170.791666 312.232948 
L 173.718308 313.382612 
L 177.349738 314.532277 
L 181.855681 315.681942 
L 187.446738 316.831606 
L 194.384221 317.981271 
L 202.992376 319.130935 
L 213.673531 320.2806 
L 226.926899 321.430264 
L 229.427356 321.621875 
L 229.427356 321.621875 
" clip-path="url(#p7af5ccf0de)" style="fill: none; stroke: #ffffff; stroke-width: 3; stroke-linejoin: miter"/>
     <path d="M 156.626046 121.974533 
L 156.552349 302.844021 
L 155.754984 304.568518 
L 154.793682 306.101404 
L 153.693023 307.442679 
L 152.277298 308.783954 
L 150.745345 309.933619 
L 148.844471 311.083283 
L 146.485832 312.232948 
L 143.559191 313.382612 
L 139.927761 314.532277 
L 135.421817 315.681942 
L 129.830761 316.831606 
L 122.893277 317.981271 
L 114.285122 319.130935 
L 103.603968 320.2806 
L 90.350599 321.430264 
L 87.850142 321.621875 
M 160.651452 121.974533 
L 160.72515 302.844021 
L 161.522514 304.568518 
L 162.483817 306.101404 
L 163.584476 307.442679 
L 165.0002 308.783954 
L 166.532153 309.933619 
L 168.433027 311.083283 
L 170.791666 312.232948 
L 173.718308 313.382612 
L 177.349738 314.532277 
L 181.855681 315.681942 
L 187.446738 316.831606 
L 194.384221 317.981271 
L 202.992376 319.130935 
L 213.673531 320.2806 
L 226.926899 321.430264 
L 229.427356 321.621875 
L 229.427356 321.621875 
" clip-path="url(#p7af5ccf0de)" style="fill: none; stroke: #ff7f0e; stroke-linejoin: miter"/>
     <g id="PolyCollection_2">
      <path d="M 160.651452 121.974533 
L 156.626046 121.974533 
L 156.626046 302.65241 
L 156.626046 302.65241 
L 156.552349 302.844021 
L 156.475952 303.035631 
L 156.396759 303.227242 
L 156.314666 303.418853 
L 156.229566 303.610464 
L 156.141351 303.802075 
L 156.049906 303.993685 
L 155.955112 304.185296 
L 155.856847 304.376907 
L 155.754984 304.568518 
L 155.649392 304.760128 
L 155.539933 304.951739 
L 155.426465 305.14335 
L 155.308844 305.334961 
L 155.186915 305.526571 
L 155.060522 305.718182 
L 154.9295 305.909793 
L 154.793682 306.101404 
L 154.65289 306.293014 
L 154.506942 306.484625 
L 154.355651 306.676236 
L 154.19882 306.867847 
L 154.036246 307.059457 
L 153.86772 307.251068 
L 153.693023 307.442679 
L 153.511929 307.63429 
L 153.324204 307.8259 
L 153.129605 308.017511 
L 152.927881 308.209122 
L 152.71877 308.400733 
L 152.502002 308.592343 
L 152.277298 308.783954 
L 152.044365 308.975565 
L 151.802903 309.167176 
L 151.5526 309.358787 
L 151.293132 309.550397 
L 151.024163 309.742008 
L 150.745345 309.933619 
L 150.456318 310.12523 
L 150.156708 310.31684 
L 149.846128 310.508451 
L 149.524175 310.700062 
L 149.190433 310.891673 
L 148.844471 311.083283 
L 148.485841 311.274894 
L 148.11408 311.466505 
L 147.728706 311.658116 
L 147.329221 311.849726 
L 146.915108 312.041337 
L 146.485832 312.232948 
L 146.040838 312.424559 
L 145.57955 312.616169 
L 145.101371 312.80778 
L 144.605682 312.999391 
L 144.091844 313.191002 
L 143.559191 313.382612 
L 143.007034 313.574223 
L 142.434659 313.765834 
L 141.841325 313.957445 
L 141.226267 314.149055 
L 140.588686 314.340666 
L 139.927761 314.532277 
L 139.242634 314.723888 
L 138.532421 314.915498 
L 137.796202 315.107109 
L 137.033026 315.29872 
L 136.241906 315.490331 
L 135.421817 315.681942 
L 134.5717 315.873552 
L 133.690454 316.065163 
L 132.776941 316.256774 
L 131.829978 316.448385 
L 130.848341 316.639995 
L 129.830761 316.831606 
L 128.77592 317.023217 
L 127.682455 317.214828 
L 126.548951 317.406438 
L 125.373942 317.598049 
L 124.155909 317.78966 
L 122.893277 317.981271 
L 121.584411 318.172881 
L 120.22762 318.364492 
L 118.821148 318.556103 
L 117.363176 318.747714 
L 115.851819 318.939324 
L 114.285122 319.130935 
L 112.661058 319.322546 
L 110.977527 319.514157 
L 109.232351 319.705767 
L 107.423273 319.897378 
L 105.547954 320.088989 
L 103.603968 320.2806 
L 101.5888 320.47221 
L 99.499844 320.663821 
L 97.334398 320.855432 
L 95.089662 321.047043 
L 92.762732 321.238653 
L 90.350599 321.430264 
L 87.850142 321.621875 
L 229.427356 321.621875 
L 229.427356 321.621875 
L 226.926899 321.430264 
L 224.514766 321.238653 
L 222.187836 321.047043 
L 219.9431 320.855432 
L 217.777654 320.663821 
L 215.688698 320.47221 
L 213.673531 320.2806 
L 211.729544 320.088989 
L 209.854225 319.897378 
L 208.045147 319.705767 
L 206.299972 319.514157 
L 204.61644 319.322546 
L 202.992376 319.130935 
L 201.425679 318.939324 
L 199.914322 318.747714 
L 198.45635 318.556103 
L 197.049878 318.364492 
L 195.693087 318.172881 
L 194.384221 317.981271 
L 193.121589 317.78966 
L 191.903556 317.598049 
L 190.728547 317.406438 
L 189.595044 317.214828 
L 188.501579 317.023217 
L 187.446738 316.831606 
L 186.429157 316.639995 
L 185.44752 316.448385 
L 184.500557 316.256774 
L 183.587044 316.065163 
L 182.705799 315.873552 
L 181.855681 315.681942 
L 181.035593 315.490331 
L 180.244472 315.29872 
L 179.481296 315.107109 
L 178.745077 314.915498 
L 178.034864 314.723888 
L 177.349738 314.532277 
L 176.688812 314.340666 
L 176.051232 314.149055 
L 175.436173 313.957445 
L 174.84284 313.765834 
L 174.270465 313.574223 
L 173.718308 313.382612 
L 173.185654 313.191002 
L 172.671816 312.999391 
L 172.176128 312.80778 
L 171.697949 312.616169 
L 171.23666 312.424559 
L 170.791666 312.232948 
L 170.36239 312.041337 
L 169.948277 311.849726 
L 169.548792 311.658116 
L 169.163418 311.466505 
L 168.791657 311.274894 
L 168.433027 311.083283 
L 168.087065 310.891673 
L 167.753323 310.700062 
L 167.43137 310.508451 
L 167.12079 310.31684 
L 166.82118 310.12523 
L 166.532153 309.933619 
L 166.253335 309.742008 
L 165.984366 309.550397 
L 165.724898 309.358787 
L 165.474595 309.167176 
L 165.233133 308.975565 
L 165.0002 308.783954 
L 164.775496 308.592343 
L 164.558728 308.400733 
L 164.349618 308.209122 
L 164.147893 308.017511 
L 163.953295 307.8259 
L 163.76557 307.63429 
L 163.584476 307.442679 
L 163.409778 307.251068 
L 163.241252 307.059457 
L 163.078678 306.867847 
L 162.921847 306.676236 
L 162.770556 306.484625 
L 162.624609 306.293014 
L 162.483817 306.101404 
L 162.347998 305.909793 
L 162.216977 305.718182 
L 162.090583 305.526571 
L 161.968655 305.334961 
L 161.851033 305.14335 
L 161.737566 304.951739 
L 161.628107 304.760128 
L 161.522514 304.568518 
L 161.420651 304.376907 
L 161.322386 304.185296 
L 161.227593 303.993685 
L 161.136147 303.802075 
L 161.047932 303.610464 
L 160.962833 303.418853 
L 160.880739 303.227242 
L 160.801546 303.035631 
L 160.72515 302.844021 
L 160.651452 302.65241 
L 160.651452 302.65241 
L 160.651452 121.974533 
z
" clip-path="url(#p7af5ccf0de)" style="fill: #ff7f0e; fill-opacity: 0.5"/>
     </g>
     <g id="patch_5">
      <path d="M 577.225728 72.964375 
L 577.225728 321.621875 
M 579.040483 72.964375 
L 579.040483 321.621875 
" clip-path="url(#p7af5ccf0de)" style="fill: none; stroke: #ffffff; stroke-width: 3; stroke-linejoin: miter"/>
      <path d="M 577.225728 72.964375 
L 577.225728 321.621875 
M 579.040483 72.964375 
L 579.040483 321.621875 
" clip-path="url(#p7af5ccf0de)" style="fill: none; stroke: #2ca02c; stroke-linejoin: miter"/>
      <g id="PolyCollection_3">
       <path d="M 579.040483 72.964375 
L 577.225728 72.964375 
L 577.225728 321.621875 
L 579.040483 321.621875 
L 579.040483 321.621875 
L 579.040483 72.964375 
z
" clip-path="url(#p7af5ccf0de)" style="fill: #2ca02c; fill-opacity: 0.5"/>
      </g>
      <g id="patch_6">
       <path d="M 457.817435 217.89474 
L 457.817435 243.68956 
L 458.082647 243.68956 
L 458.082647 245.127678 
L 457.817435 245.127678 
L 457.709773 289.630488 
L 457.296743 294.054828 
L 456.784065 297.458167 
L 456.097055 300.521173 
L 455.350798 302.90351 
L 454.510904 304.945513 
L 453.429987 306.987517 
L 452.295767 308.689186 
L 450.896167 310.390856 
L 449.169095 312.092526 
L 447.500738 313.453861 
L 445.526797 314.815197 
L 443.191298 316.176532 
L 440.428018 317.537868 
L 437.1586 318.899204 
L 433.29034 320.260539 
L 428.713548 321.621875 
M 458.737716 217.89474 
L 458.737716 243.68956 
L 458.472503 243.68956 
L 458.472503 245.127678 
L 458.737716 245.127678 
L 458.845378 289.630488 
L 459.258407 294.054828 
L 459.771085 297.458167 
L 460.458096 300.521173 
L 461.204352 302.90351 
L 462.044246 304.945513 
L 463.125164 306.987517 
L 464.259383 308.689186 
L 465.658983 310.390856 
L 467.386056 312.092526 
L 469.054412 313.453861 
L 471.028353 314.815197 
L 473.363852 316.176532 
L 476.127133 317.537868 
L 479.39655 318.899204 
L 483.264811 320.260539 
L 487.841602 321.621875 
L 487.841602 321.621875 
" clip-path="url(#p7af5ccf0de)" style="fill: none; stroke: #ffffff; stroke-width: 3; stroke-linejoin: miter"/>
       <path d="M 457.817435 217.89474 
L 457.817435 243.68956 
L 458.082647 243.68956 
L 458.082647 245.127678 
L 457.817435 245.127678 
L 457.709773 289.630488 
L 457.296743 294.054828 
L 456.784065 297.458167 
L 456.097055 300.521173 
L 455.350798 302.90351 
L 454.510904 304.945513 
L 453.429987 306.987517 
L 452.295767 308.689186 
L 450.896167 310.390856 
L 449.169095 312.092526 
L 447.500738 313.453861 
L 445.526797 314.815197 
L 443.191298 316.176532 
L 440.428018 317.537868 
L 437.1586 318.899204 
L 433.29034 320.260539 
L 428.713548 321.621875 
M 458.737716 217.89474 
L 458.737716 243.68956 
L 458.472503 243.68956 
L 458.472503 245.127678 
L 458.737716 245.127678 
L 458.845378 289.630488 
L 459.258407 294.054828 
L 459.771085 297.458167 
L 460.458096 300.521173 
L 461.204352 302.90351 
L 462.044246 304.945513 
L 463.125164 306.987517 
L 464.259383 308.689186 
L 465.658983 310.390856 
L 467.386056 312.092526 
L 469.054412 313.453861 
L 471.028353 314.815197 
L 473.363852 316.176532 
L 476.127133 317.537868 
L 479.39655 318.899204 
L 483.264811 320.260539 
L 487.841602 321.621875 
L 487.841602 321.621875 
" clip-path="url(#p7af5ccf0de)" style="fill: none; stroke: #d62728; stroke-linejoin: miter"/>
       <g id="PolyCollection_4">
        <path d="M 458.737716 217.89474 
L 457.817435 217.89474 
L 457.817435 243.68956 
L 458.082647 243.68956 
L 458.082647 245.127678 
L 457.817435 245.127678 
L 457.817435 287.928818 
L 457.817435 287.928818 
L 457.797674 288.269152 
L 457.777065 288.609486 
L 457.75557 288.94982 
L 457.733153 289.290154 
L 457.709773 289.630488 
L 457.685389 289.970821 
L 457.659957 290.311155 
L 457.633434 290.651489 
L 457.605771 290.991823 
L 457.576921 291.332157 
L 457.546831 291.672491 
L 457.51545 292.012825 
L 457.48272 292.353159 
L 457.448585 292.693493 
L 457.412984 293.033827 
L 457.375855 293.374161 
L 457.33713 293.714494 
L 457.296743 294.054828 
L 457.254621 294.395162 
L 457.210691 294.735496 
L 457.164874 295.07583 
L 457.117089 295.416164 
L 457.067252 295.756498 
L 457.015275 296.096832 
L 456.961065 296.437166 
L 456.904528 296.7775 
L 456.845563 297.117834 
L 456.784065 297.458167 
L 456.719927 297.798501 
L 456.653034 298.138835 
L 456.583268 298.479169 
L 456.510506 298.819503 
L 456.43462 299.159837 
L 456.355474 299.500171 
L 456.27293 299.840505 
L 456.186841 300.180839 
L 456.097055 300.521173 
L 456.003412 300.861507 
L 455.905749 301.20184 
L 455.803891 301.542174 
L 455.697659 301.882508 
L 455.586865 302.222842 
L 455.471313 302.563176 
L 455.350798 302.90351 
L 455.225108 303.243844 
L 455.094021 303.584178 
L 454.957303 303.924512 
L 454.814715 304.264846 
L 454.666003 304.60518 
L 454.510904 304.945513 
L 454.349145 305.285847 
L 454.180439 305.626181 
L 454.004488 305.966515 
L 453.820981 306.306849 
L 453.629593 306.647183 
L 453.429987 306.987517 
L 453.221808 307.327851 
L 453.004688 307.668185 
L 452.778245 308.008519 
L 452.542077 308.348853 
L 452.295767 308.689186 
L 452.038879 309.02952 
L 451.770959 309.369854 
L 451.491534 309.710188 
L 451.200108 310.050522 
L 450.896167 310.390856 
L 450.579174 310.73119 
L 450.248567 311.071524 
L 449.903762 311.411858 
L 449.54415 311.752192 
L 449.169095 312.092526 
L 448.777932 312.432859 
L 448.369972 312.773193 
L 447.944491 313.113527 
L 447.500738 313.453861 
L 447.037929 313.794195 
L 446.555244 314.134529 
L 446.05183 314.474863 
L 445.526797 314.815197 
L 444.979217 315.155531 
L 444.408121 315.495865 
L 443.812499 315.836199 
L 443.191298 316.176532 
L 442.54342 316.516866 
L 441.86772 316.8572 
L 441.163001 317.197534 
L 440.428018 317.537868 
L 439.661471 317.878202 
L 438.862005 318.218536 
L 438.028207 318.55887 
L 437.1586 318.899204 
L 436.251649 319.239538 
L 435.305749 319.579872 
L 434.319227 319.920205 
L 433.29034 320.260539 
L 432.217267 320.600873 
L 431.09811 320.941207 
L 429.930892 321.281541 
L 428.713548 321.621875 
L 487.841602 321.621875 
L 487.841602 321.621875 
L 486.624258 321.281541 
L 485.45704 320.941207 
L 484.337884 320.600873 
L 483.264811 320.260539 
L 482.235923 319.920205 
L 481.249401 319.579872 
L 480.303501 319.239538 
L 479.39655 318.899204 
L 478.526944 318.55887 
L 477.693145 318.218536 
L 476.893679 317.878202 
L 476.127133 317.537868 
L 475.39215 317.197534 
L 474.687431 316.8572 
L 474.01173 316.516866 
L 473.363852 316.176532 
L 472.742651 315.836199 
L 472.14703 315.495865 
L 471.575934 315.155531 
L 471.028353 314.815197 
L 470.503321 314.474863 
L 469.999907 314.134529 
L 469.517222 313.794195 
L 469.054412 313.453861 
L 468.610659 313.113527 
L 468.185179 312.773193 
L 467.777218 312.432859 
L 467.386056 312.092526 
L 467.011 311.752192 
L 466.651388 311.411858 
L 466.306583 311.071524 
L 465.975977 310.73119 
L 465.658983 310.390856 
L 465.355042 310.050522 
L 465.063617 309.710188 
L 464.784191 309.369854 
L 464.516271 309.02952 
L 464.259383 308.689186 
L 464.013073 308.348853 
L 463.776905 308.008519 
L 463.550462 307.668185 
L 463.333343 307.327851 
L 463.125164 306.987517 
L 462.925557 306.647183 
L 462.734169 306.306849 
L 462.550662 305.966515 
L 462.374711 305.626181 
L 462.206005 305.285847 
L 462.044246 304.945513 
L 461.889148 304.60518 
L 461.740436 304.264846 
L 461.597847 303.924512 
L 461.46113 303.584178 
L 461.330042 303.243844 
L 461.204352 302.90351 
L 461.083838 302.563176 
L 460.968285 302.222842 
L 460.857491 301.882508 
L 460.751259 301.542174 
L 460.649402 301.20184 
L 460.551738 300.861507 
L 460.458096 300.521173 
L 460.36831 300.180839 
L 460.28222 299.840505 
L 460.199676 299.500171 
L 460.120531 299.159837 
L 460.044644 298.819503 
L 459.971882 298.479169 
L 459.902117 298.138835 
L 459.835224 297.798501 
L 459.771085 297.458167 
L 459.709588 297.117834 
L 459.650622 296.7775 
L 459.594085 296.437166 
L 459.539876 296.096832 
L 459.487898 295.756498 
L 459.438062 295.416164 
L 459.390277 295.07583 
L 459.34446 294.735496 
L 459.300529 294.395162 
L 459.258407 294.054828 
L 459.21802 293.714494 
L 459.179296 293.374161 
L 459.142166 293.033827 
L 459.106565 292.693493 
L 459.07243 292.353159 
L 459.039701 292.012825 
L 459.008319 291.672491 
L 458.97823 291.332157 
L 458.949379 290.991823 
L 458.921717 290.651489 
L 458.895193 290.311155 
L 458.869762 289.970821 
L 458.845378 289.630488 
L 458.821997 289.290154 
L 458.79958 288.94982 
L 458.778086 288.609486 
L 458.757476 288.269152 
L 458.737716 287.928818 
L 458.737716 287.928818 
L 458.737716 245.127678 
L 458.472503 245.127678 
L 458.472503 243.68956 
L 458.737716 243.68956 
L 458.737716 217.89474 
z
" clip-path="url(#p7af5ccf0de)" style="fill: #d62728; fill-opacity: 0.5"/>
       </g>
       <g id="matplotlib.axis_1">
        <g id="xtick_1">
         <g id="line2d_1"/>
         <g id="text_1">
          <!-- OUT -->
          <g transform="translate(147.98953 332.720312) scale(0.1 -0.1)">
           <defs>
            <path id="DejaVuSans-4f" d="M 2522 4238 
Q 1834 4238 1429 3725 
Q 1025 3213 1025 2328 
Q 1025 1447 1429 934 
Q 1834 422 2522 422 
Q 3209 422 3611 934 
Q 4013 1447 4013 2328 
Q 4013 3213 3611 3725 
Q 3209 4238 2522 4238 
z
M 2522 4750 
Q 3503 4750 4090 4092 
Q 4678 3434 4678 2328 
Q 4678 1225 4090 567 
Q 3503 -91 2522 -91 
Q 1538 -91 948 565 
Q 359 1222 359 2328 
Q 359 3434 948 4092 
Q 1538 4750 2522 4750 
z
" transform="scale(0.015625)"/>
            <path id="DejaVuSans-55" d="M 556 4666 
L 1191 4666 
L 1191 1831 
Q 1191 1081 1462 751 
Q 1734 422 2344 422 
Q 2950 422 3222 751 
Q 3494 1081 3494 1831 
L 3494 4666 
L 4128 4666 
L 4128 1753 
Q 4128 841 3676 375 
Q 3225 -91 2344 -91 
Q 1459 -91 1007 375 
Q 556 841 556 1753 
L 556 4666 
z
" transform="scale(0.015625)"/>
            <path id="DejaVuSans-54" d="M -19 4666 
L 3928 4666 
L 3928 4134 
L 2272 4134 
L 2272 0 
L 1638 0 
L 1638 4134 
L -19 4134 
L -19 4666 
z
" transform="scale(0.015625)"/>
           </defs>
           <use xlink:href="#DejaVuSans-4f"/>
           <use xlink:href="#DejaVuSans-55" x="78.710938"/>
           <use xlink:href="#DejaVuSans-54" x="151.904297"/>
          </g>
         </g>
        </g>
        <g id="xtick_2">
         <g id="line2d_2"/>
         <g id="text_2">
          <!-- SRC -->
          <g transform="translate(568.243262 332.720312) scale(0.1 -0.1)">
           <defs>
            <path id="DejaVuSans-53" d="M 3425 4513 
L 3425 3897 
Q 3066 4069 2747 4153 
Q 2428 4238 2131 4238 
Q 1616 4238 1336 4038 
Q 1056 3838 1056 3469 
Q 1056 3159 1242 3001 
Q 1428 2844 1947 2747 
L 2328 2669 
Q 3034 2534 3370 2195 
Q 3706 1856 3706 1288 
Q 3706 609 3251 259 
Q 2797 -91 1919 -91 
Q 1588 -91 1214 -16 
Q 841 59 441 206 
L 441 856 
Q 825 641 1194 531 
Q 1563 422 1919 422 
Q 2459 422 2753 634 
Q 3047 847 3047 1241 
Q 3047 1584 2836 1778 
Q 2625 1972 2144 2069 
L 1759 2144 
Q 1053 2284 737 2584 
Q 422 2884 422 3419 
Q 422 4038 858 4394 
Q 1294 4750 2059 4750 
Q 2388 4750 2728 4690 
Q 3069 4631 3425 4513 
z
" transform="scale(0.015625)"/>
            <path id="DejaVuSans-52" d="M 2841 2188 
Q 3044 2119 3236 1894 
Q 3428 1669 3622 1275 
L 4263 0 
L 3584 0 
L 2988 1197 
Q 2756 1666 2539 1819 
Q 2322 1972 1947 1972 
L 1259 1972 
L 1259 0 
L 628 0 
L 628 4666 
L 2053 4666 
Q 2853 4666 3247 4331 
Q 3641 3997 3641 3322 
Q 3641 2881 3436 2590 
Q 3231 2300 2841 2188 
z
M 1259 4147 
L 1259 2491 
L 2053 2491 
Q 2509 2491 2742 2702 
Q 2975 2913 2975 3322 
Q 2975 3731 2742 3939 
Q 2509 4147 2053 4147 
L 1259 4147 
z
" transform="scale(0.015625)"/>
            <path id="DejaVuSans-43" d="M 4122 4306 
L 4122 3641 
Q 3803 3938 3442 4084 
Q 3081 4231 2675 4231 
Q 1875 4231 1450 3742 
Q 1025 3253 1025 2328 
Q 1025 1406 1450 917 
Q 1875 428 2675 428 
Q 3081 428 3442 575 
Q 3803 722 4122 1019 
L 4122 359 
Q 3791 134 3420 21 
Q 3050 -91 2638 -91 
Q 1578 -91 968 557 
Q 359 1206 359 2328 
Q 359 3453 968 4101 
Q 1578 4750 2638 4750 
Q 3056 4750 3426 4639 
Q 3797 4528 4122 4306 
z
" transform="scale(0.015625)"/>
           </defs>
           <use xlink:href="#DejaVuSans-53"/>
           <use xlink:href="#DejaVuSans-52" x="63.476562"/>
           <use xlink:href="#DejaVuSans-43" x="127.958984"/>
          </g>
         </g>
        </g>
        <g id="xtick_3">
         <g id="line2d_3"/>
         <g id="text_3">
          <!-- TAR -->
          <g transform="translate(448.716638 332.720312) scale(0.1 -0.1)">
           <defs>
            <path id="DejaVuSans-41" d="M 2188 4044 
L 1331 1722 
L 3047 1722 
L 2188 4044 
z
M 1831 4666 
L 2547 4666 
L 4325 0 
L 3669 0 
L 3244 1197 
L 1141 1197 
L 716 0 
L 50 0 
L 1831 4666 
z
" transform="scale(0.015625)"/>
           </defs>
           <use xlink:href="#DejaVuSans-54"/>
           <use xlink:href="#DejaVuSans-41" x="53.333984"/>
           <use xlink:href="#DejaVuSans-52" x="121.742188"/>
          </g>
         </g>
        </g>
       </g>
       <g id="matplotlib.axis_2">
        <g id="ytick_1">
         <g id="line2d_4">
          <defs>
           <path id="m841deb3dee" d="M 0 0 
L -3.5 0 
" style="stroke: #000000; stroke-width: 0.8"/>
          </defs>
          <g>
           <use xlink:href="#m841deb3dee" x="63.290625" y="321.621875" style="stroke: #000000; stroke-width: 0.8"/>
          </g>
         </g>
         <g id="text_4">
          <!-- 0 -->
          <g transform="translate(49.928125 325.421094) scale(0.1 -0.1)">
           <defs>
            <path id="DejaVuSans-30" d="M 2034 4250 
Q 1547 4250 1301 3770 
Q 1056 3291 1056 2328 
Q 1056 1369 1301 889 
Q 1547 409 2034 409 
Q 2525 409 2770 889 
Q 3016 1369 3016 2328 
Q 3016 3291 2770 3770 
Q 2525 4250 2034 4250 
z
M 2034 4750 
Q 2819 4750 3233 4129 
Q 3647 3509 3647 2328 
Q 3647 1150 3233 529 
Q 2819 -91 2034 -91 
Q 1250 -91 836 529 
Q 422 1150 422 2328 
Q 422 3509 836 4129 
Q 1250 4750 2034 4750 
z
" transform="scale(0.015625)"/>
           </defs>
           <use xlink:href="#DejaVuSans-30"/>
          </g>
         </g>
        </g>
        <g id="ytick_2">
         <g id="line2d_5">
          <g>
           <use xlink:href="#m841deb3dee" x="63.290625" y="275.967326" style="stroke: #000000; stroke-width: 0.8"/>
          </g>
         </g>
         <g id="text_5">
          <!-- 2000 -->
          <g transform="translate(30.840625 279.766545) scale(0.1 -0.1)">
           <defs>
            <path id="DejaVuSans-32" d="M 1228 531 
L 3431 531 
L 3431 0 
L 469 0 
L 469 531 
Q 828 903 1448 1529 
Q 2069 2156 2228 2338 
Q 2531 2678 2651 2914 
Q 2772 3150 2772 3378 
Q 2772 3750 2511 3984 
Q 2250 4219 1831 4219 
Q 1534 4219 1204 4116 
Q 875 4013 500 3803 
L 500 4441 
Q 881 4594 1212 4672 
Q 1544 4750 1819 4750 
Q 2544 4750 2975 4387 
Q 3406 4025 3406 3419 
Q 3406 3131 3298 2873 
Q 3191 2616 2906 2266 
Q 2828 2175 2409 1742 
Q 1991 1309 1228 531 
z
" transform="scale(0.015625)"/>
           </defs>
           <use xlink:href="#DejaVuSans-32"/>
           <use xlink:href="#DejaVuSans-30" x="63.623047"/>
           <use xlink:href="#DejaVuSans-30" x="127.246094"/>
           <use xlink:href="#DejaVuSans-30" x="190.869141"/>
          </g>
         </g>
        </g>
        <g id="ytick_3">
         <g id="line2d_6">
          <g>
           <use xlink:href="#m841deb3dee" x="63.290625" y="230.312777" style="stroke: #000000; stroke-width: 0.8"/>
          </g>
         </g>
         <g id="text_6">
          <!-- 4000 -->
          <g transform="translate(30.840625 234.111996) scale(0.1 -0.1)">
           <defs>
            <path id="DejaVuSans-34" d="M 2419 4116 
L 825 1625 
L 2419 1625 
L 2419 4116 
z
M 2253 4666 
L 3047 4666 
L 3047 1625 
L 3713 1625 
L 3713 1100 
L 3047 1100 
L 3047 0 
L 2419 0 
L 2419 1100 
L 313 1100 
L 313 1709 
L 2253 4666 
z
" transform="scale(0.015625)"/>
           </defs>
           <use xlink:href="#DejaVuSans-34"/>
           <use xlink:href="#DejaVuSans-30" x="63.623047"/>
           <use xlink:href="#DejaVuSans-30" x="127.246094"/>
           <use xlink:href="#DejaVuSans-30" x="190.869141"/>
          </g>
         </g>
        </g>
        <g id="ytick_4">
         <g id="line2d_7">
          <g>
           <use xlink:href="#m841deb3dee" x="63.290625" y="184.658229" style="stroke: #000000; stroke-width: 0.8"/>
          </g>
         </g>
         <g id="text_7">
          <!-- 6000 -->
          <g transform="translate(30.840625 188.457447) scale(0.1 -0.1)">
           <defs>
            <path id="DejaVuSans-36" d="M 2113 2584 
Q 1688 2584 1439 2293 
Q 1191 2003 1191 1497 
Q 1191 994 1439 701 
Q 1688 409 2113 409 
Q 2538 409 2786 701 
Q 3034 994 3034 1497 
Q 3034 2003 2786 2293 
Q 2538 2584 2113 2584 
z
M 3366 4563 
L 3366 3988 
Q 3128 4100 2886 4159 
Q 2644 4219 2406 4219 
Q 1781 4219 1451 3797 
Q 1122 3375 1075 2522 
Q 1259 2794 1537 2939 
Q 1816 3084 2150 3084 
Q 2853 3084 3261 2657 
Q 3669 2231 3669 1497 
Q 3669 778 3244 343 
Q 2819 -91 2113 -91 
Q 1303 -91 875 529 
Q 447 1150 447 2328 
Q 447 3434 972 4092 
Q 1497 4750 2381 4750 
Q 2619 4750 2861 4703 
Q 3103 4656 3366 4563 
z
" transform="scale(0.015625)"/>
           </defs>
           <use xlink:href="#DejaVuSans-36"/>
           <use xlink:href="#DejaVuSans-30" x="63.623047"/>
           <use xlink:href="#DejaVuSans-30" x="127.246094"/>
           <use xlink:href="#DejaVuSans-30" x="190.869141"/>
          </g>
         </g>
        </g>
        <g id="ytick_5">
         <g id="line2d_8">
          <g>
           <use xlink:href="#m841deb3dee" x="63.290625" y="139.00368" style="stroke: #000000; stroke-width: 0.8"/>
          </g>
         </g>
         <g id="text_8">
          <!-- 8000 -->
          <g transform="translate(30.840625 142.802899) scale(0.1 -0.1)">
           <defs>
            <path id="DejaVuSans-38" d="M 2034 2216 
Q 1584 2216 1326 1975 
Q 1069 1734 1069 1313 
Q 1069 891 1326 650 
Q 1584 409 2034 409 
Q 2484 409 2743 651 
Q 3003 894 3003 1313 
Q 3003 1734 2745 1975 
Q 2488 2216 2034 2216 
z
M 1403 2484 
Q 997 2584 770 2862 
Q 544 3141 544 3541 
Q 544 4100 942 4425 
Q 1341 4750 2034 4750 
Q 2731 4750 3128 4425 
Q 3525 4100 3525 3541 
Q 3525 3141 3298 2862 
Q 3072 2584 2669 2484 
Q 3125 2378 3379 2068 
Q 3634 1759 3634 1313 
Q 3634 634 3220 271 
Q 2806 -91 2034 -91 
Q 1263 -91 848 271 
Q 434 634 434 1313 
Q 434 1759 690 2068 
Q 947 2378 1403 2484 
z
M 1172 3481 
Q 1172 3119 1398 2916 
Q 1625 2713 2034 2713 
Q 2441 2713 2670 2916 
Q 2900 3119 2900 3481 
Q 2900 3844 2670 4047 
Q 2441 4250 2034 4250 
Q 1625 4250 1398 4047 
Q 1172 3844 1172 3481 
z
" transform="scale(0.015625)"/>
           </defs>
           <use xlink:href="#DejaVuSans-38"/>
           <use xlink:href="#DejaVuSans-30" x="63.623047"/>
           <use xlink:href="#DejaVuSans-30" x="127.246094"/>
           <use xlink:href="#DejaVuSans-30" x="190.869141"/>
          </g>
         </g>
        </g>
        <g id="ytick_6">
         <g id="line2d_9">
          <g>
           <use xlink:href="#m841deb3dee" x="63.290625" y="93.349131" style="stroke: #000000; stroke-width: 0.8"/>
          </g>
         </g>
         <g id="text_9">
          <!-- 10000 -->
          <g transform="translate(24.478125 97.14835) scale(0.1 -0.1)">
           <defs>
            <path id="DejaVuSans-31" d="M 794 531 
L 1825 531 
L 1825 4091 
L 703 3866 
L 703 4441 
L 1819 4666 
L 2450 4666 
L 2450 531 
L 3481 531 
L 3481 0 
L 794 0 
L 794 531 
z
" transform="scale(0.015625)"/>
           </defs>
           <use xlink:href="#DejaVuSans-31"/>
           <use xlink:href="#DejaVuSans-30" x="63.623047"/>
           <use xlink:href="#DejaVuSans-30" x="127.246094"/>
           <use xlink:href="#DejaVuSans-30" x="190.869141"/>
           <use xlink:href="#DejaVuSans-30" x="254.492188"/>
          </g>
         </g>
        </g>
        <g id="ytick_7">
         <g id="line2d_10">
          <g>
           <use xlink:href="#m841deb3dee" x="63.290625" y="47.694582" style="stroke: #000000; stroke-width: 0.8"/>
          </g>
         </g>
         <g id="text_10">
          <!-- 12000 -->
          <g transform="translate(24.478125 51.493801) scale(0.1 -0.1)">
           <use xlink:href="#DejaVuSans-31"/>
           <use xlink:href="#DejaVuSans-32" x="63.623047"/>
           <use xlink:href="#DejaVuSans-30" x="127.246094"/>
           <use xlink:href="#DejaVuSans-30" x="190.869141"/>
           <use xlink:href="#DejaVuSans-30" x="254.492188"/>
          </g>
         </g>
        </g>
        <g id="text_11">
         <!-- time ago (generations) -->
         <g transform="translate(18.398438 223.682031) rotate(-90) scale(0.1 -0.1)">
          <defs>
           <path id="DejaVuSans-74" d="M 1172 4494 
L 1172 3500 
L 2356 3500 
L 2356 3053 
L 1172 3053 
L 1172 1153 
Q 1172 725 1289 603 
Q 1406 481 1766 481 
L 2356 481 
L 2356 0 
L 1766 0 
Q 1100 0 847 248 
Q 594 497 594 1153 
L 594 3053 
L 172 3053 
L 172 3500 
L 594 3500 
L 594 4494 
L 1172 4494 
z
" transform="scale(0.015625)"/>
           <path id="DejaVuSans-69" d="M 603 3500 
L 1178 3500 
L 1178 0 
L 603 0 
L 603 3500 
z
M 603 4863 
L 1178 4863 
L 1178 4134 
L 603 4134 
L 603 4863 
z
" transform="scale(0.015625)"/>
           <path id="DejaVuSans-6d" d="M 3328 2828 
Q 3544 3216 3844 3400 
Q 4144 3584 4550 3584 
Q 5097 3584 5394 3201 
Q 5691 2819 5691 2113 
L 5691 0 
L 5113 0 
L 5113 2094 
Q 5113 2597 4934 2840 
Q 4756 3084 4391 3084 
Q 3944 3084 3684 2787 
Q 3425 2491 3425 1978 
L 3425 0 
L 2847 0 
L 2847 2094 
Q 2847 2600 2669 2842 
Q 2491 3084 2119 3084 
Q 1678 3084 1418 2786 
Q 1159 2488 1159 1978 
L 1159 0 
L 581 0 
L 581 3500 
L 1159 3500 
L 1159 2956 
Q 1356 3278 1631 3431 
Q 1906 3584 2284 3584 
Q 2666 3584 2933 3390 
Q 3200 3197 3328 2828 
z
" transform="scale(0.015625)"/>
           <path id="DejaVuSans-65" d="M 3597 1894 
L 3597 1613 
L 953 1613 
Q 991 1019 1311 708 
Q 1631 397 2203 397 
Q 2534 397 2845 478 
Q 3156 559 3463 722 
L 3463 178 
Q 3153 47 2828 -22 
Q 2503 -91 2169 -91 
Q 1331 -91 842 396 
Q 353 884 353 1716 
Q 353 2575 817 3079 
Q 1281 3584 2069 3584 
Q 2775 3584 3186 3129 
Q 3597 2675 3597 1894 
z
M 3022 2063 
Q 3016 2534 2758 2815 
Q 2500 3097 2075 3097 
Q 1594 3097 1305 2825 
Q 1016 2553 972 2059 
L 3022 2063 
z
" transform="scale(0.015625)"/>
           <path id="DejaVuSans-20" transform="scale(0.015625)"/>
           <path id="DejaVuSans-61" d="M 2194 1759 
Q 1497 1759 1228 1600 
Q 959 1441 959 1056 
Q 959 750 1161 570 
Q 1363 391 1709 391 
Q 2188 391 2477 730 
Q 2766 1069 2766 1631 
L 2766 1759 
L 2194 1759 
z
M 3341 1997 
L 3341 0 
L 2766 0 
L 2766 531 
Q 2569 213 2275 61 
Q 1981 -91 1556 -91 
Q 1019 -91 701 211 
Q 384 513 384 1019 
Q 384 1609 779 1909 
Q 1175 2209 1959 2209 
L 2766 2209 
L 2766 2266 
Q 2766 2663 2505 2880 
Q 2244 3097 1772 3097 
Q 1472 3097 1187 3025 
Q 903 2953 641 2809 
L 641 3341 
Q 956 3463 1253 3523 
Q 1550 3584 1831 3584 
Q 2591 3584 2966 3190 
Q 3341 2797 3341 1997 
z
" transform="scale(0.015625)"/>
           <path id="DejaVuSans-67" d="M 2906 1791 
Q 2906 2416 2648 2759 
Q 2391 3103 1925 3103 
Q 1463 3103 1205 2759 
Q 947 2416 947 1791 
Q 947 1169 1205 825 
Q 1463 481 1925 481 
Q 2391 481 2648 825 
Q 2906 1169 2906 1791 
z
M 3481 434 
Q 3481 -459 3084 -895 
Q 2688 -1331 1869 -1331 
Q 1566 -1331 1297 -1286 
Q 1028 -1241 775 -1147 
L 775 -588 
Q 1028 -725 1275 -790 
Q 1522 -856 1778 -856 
Q 2344 -856 2625 -561 
Q 2906 -266 2906 331 
L 2906 616 
Q 2728 306 2450 153 
Q 2172 0 1784 0 
Q 1141 0 747 490 
Q 353 981 353 1791 
Q 353 2603 747 3093 
Q 1141 3584 1784 3584 
Q 2172 3584 2450 3431 
Q 2728 3278 2906 2969 
L 2906 3500 
L 3481 3500 
L 3481 434 
z
" transform="scale(0.015625)"/>
           <path id="DejaVuSans-6f" d="M 1959 3097 
Q 1497 3097 1228 2736 
Q 959 2375 959 1747 
Q 959 1119 1226 758 
Q 1494 397 1959 397 
Q 2419 397 2687 759 
Q 2956 1122 2956 1747 
Q 2956 2369 2687 2733 
Q 2419 3097 1959 3097 
z
M 1959 3584 
Q 2709 3584 3137 3096 
Q 3566 2609 3566 1747 
Q 3566 888 3137 398 
Q 2709 -91 1959 -91 
Q 1206 -91 779 398 
Q 353 888 353 1747 
Q 353 2609 779 3096 
Q 1206 3584 1959 3584 
z
" transform="scale(0.015625)"/>
           <path id="DejaVuSans-28" d="M 1984 4856 
Q 1566 4138 1362 3434 
Q 1159 2731 1159 2009 
Q 1159 1288 1364 580 
Q 1569 -128 1984 -844 
L 1484 -844 
Q 1016 -109 783 600 
Q 550 1309 550 2009 
Q 550 2706 781 3412 
Q 1013 4119 1484 4856 
L 1984 4856 
z
" transform="scale(0.015625)"/>
           <path id="DejaVuSans-6e" d="M 3513 2113 
L 3513 0 
L 2938 0 
L 2938 2094 
Q 2938 2591 2744 2837 
Q 2550 3084 2163 3084 
Q 1697 3084 1428 2787 
Q 1159 2491 1159 1978 
L 1159 0 
L 581 0 
L 581 3500 
L 1159 3500 
L 1159 2956 
Q 1366 3272 1645 3428 
Q 1925 3584 2291 3584 
Q 2894 3584 3203 3211 
Q 3513 2838 3513 2113 
z
" transform="scale(0.015625)"/>
           <path id="DejaVuSans-72" d="M 2631 2963 
Q 2534 3019 2420 3045 
Q 2306 3072 2169 3072 
Q 1681 3072 1420 2755 
Q 1159 2438 1159 1844 
L 1159 0 
L 581 0 
L 581 3500 
L 1159 3500 
L 1159 2956 
Q 1341 3275 1631 3429 
Q 1922 3584 2338 3584 
Q 2397 3584 2469 3576 
Q 2541 3569 2628 3553 
L 2631 2963 
z
" transform="scale(0.015625)"/>
           <path id="DejaVuSans-73" d="M 2834 3397 
L 2834 2853 
Q 2591 2978 2328 3040 
Q 2066 3103 1784 3103 
Q 1356 3103 1142 2972 
Q 928 2841 928 2578 
Q 928 2378 1081 2264 
Q 1234 2150 1697 2047 
L 1894 2003 
Q 2506 1872 2764 1633 
Q 3022 1394 3022 966 
Q 3022 478 2636 193 
Q 2250 -91 1575 -91 
Q 1294 -91 989 -36 
Q 684 19 347 128 
L 347 722 
Q 666 556 975 473 
Q 1284 391 1588 391 
Q 1994 391 2212 530 
Q 2431 669 2431 922 
Q 2431 1156 2273 1281 
Q 2116 1406 1581 1522 
L 1381 1569 
Q 847 1681 609 1914 
Q 372 2147 372 2553 
Q 372 3047 722 3315 
Q 1072 3584 1716 3584 
Q 2034 3584 2315 3537 
Q 2597 3491 2834 3397 
z
" transform="scale(0.015625)"/>
           <path id="DejaVuSans-29" d="M 513 4856 
L 1013 4856 
Q 1481 4119 1714 3412 
Q 1947 2706 1947 2009 
Q 1947 1309 1714 600 
Q 1481 -109 1013 -844 
L 513 -844 
Q 928 -128 1133 580 
Q 1338 1288 1338 2009 
Q 1338 2731 1133 3434 
Q 928 4138 513 4856 
z
" transform="scale(0.015625)"/>
          </defs>
          <use xlink:href="#DejaVuSans-74"/>
          <use xlink:href="#DejaVuSans-69" x="39.208984"/>
          <use xlink:href="#DejaVuSans-6d" x="66.992188"/>
          <use xlink:href="#DejaVuSans-65" x="164.404297"/>
          <use xlink:href="#DejaVuSans-20" x="225.927734"/>
          <use xlink:href="#DejaVuSans-61" x="257.714844"/>
          <use xlink:href="#DejaVuSans-67" x="318.994141"/>
          <use xlink:href="#DejaVuSans-6f" x="382.470703"/>
          <use xlink:href="#DejaVuSans-20" x="443.652344"/>
          <use xlink:href="#DejaVuSans-28" x="475.439453"/>
          <use xlink:href="#DejaVuSans-67" x="514.453125"/>
          <use xlink:href="#DejaVuSans-65" x="577.929688"/>
          <use xlink:href="#DejaVuSans-6e" x="639.453125"/>
          <use xlink:href="#DejaVuSans-65" x="702.832031"/>
          <use xlink:href="#DejaVuSans-72" x="764.355469"/>
          <use xlink:href="#DejaVuSans-61" x="805.46875"/>
          <use xlink:href="#DejaVuSans-74" x="866.748047"/>
          <use xlink:href="#DejaVuSans-69" x="905.957031"/>
          <use xlink:href="#DejaVuSans-6f" x="933.740234"/>
          <use xlink:href="#DejaVuSans-6e" x="994.921875"/>
          <use xlink:href="#DejaVuSans-73" x="1058.300781"/>
          <use xlink:href="#DejaVuSans-29" x="1110.400391"/>
         </g>
        </g>
       </g>
       <g id="patch_7">
        <path d="M 331.522018 121.974533 
L 330.522018 121.943097 
L 329.522018 121.906156 
L 328.522018 121.80841 
L 327.522018 121.775888 
L 326.522018 121.702264 
L 325.522018 121.663698 
L 324.522018 121.628285 
L 323.522018 121.570645 
L 322.522018 121.500259 
L 321.522018 121.448294 
L 320.522018 121.389205 
L 319.522018 121.300884 
L 318.522018 121.254739 
L 317.522018 121.212329 
L 316.522018 121.181836 
L 315.522018 121.155791 
L 314.522018 121.134591 
L 313.522018 121.08029 
L 312.522018 121.052352 
L 311.522018 121.022628 
L 310.522018 120.997233 
L 309.522018 120.986033 
L 308.522018 120.975909 
L 307.522018 120.976113 
L 306.522018 120.985623 
L 305.522018 120.997277 
L 304.522018 121.028306 
L 303.522018 121.039474 
L 302.522018 121.069592 
L 301.522018 121.129368 
L 300.522018 121.16656 
L 299.522018 121.205656 
L 298.522018 121.248096 
L 297.522018 121.280861 
L 296.522018 121.348287 
L 295.522018 121.387413 
L 294.522018 121.430088 
L 293.522018 121.500668 
L 292.522018 121.537059 
L 291.522018 121.595462 
L 290.522018 121.706415 
L 289.522018 121.777073 
L 288.522018 121.890013 
L 287.522018 121.935786 
L 286.522018 121.997069 
L 285.522018 122.045569 
L 284.522018 122.126391 
L 283.522018 122.24491 
L 282.522018 122.315121 
L 281.522018 122.398383 
L 280.522018 122.431525 
L 279.522018 122.482762 
L 278.522018 122.551161 
L 277.522018 122.617376 
L 276.522018 122.694293 
L 275.522018 122.721609 
L 274.522018 122.748086 
L 273.522018 122.770737 
L 272.522018 122.790268 
L 271.522018 122.816662 
L 270.522018 122.866433 
L 269.522018 122.901506 
L 268.522018 122.937372 
L 267.522018 122.952739 
L 266.522018 122.968508 
L 265.522018 122.971921 
L 264.522018 122.974339 
L 263.522018 122.973852 
L 262.522018 122.971923 
L 261.522018 122.958666 
L 260.522018 122.950276 
L 259.522018 122.928739 
L 258.522018 122.905706 
L 257.522018 122.888473 
L 256.522018 122.87001 
L 255.522018 122.849558 
L 254.522018 122.832958 
L 253.522018 122.770179 
L 252.522018 122.694914 
L 251.522018 122.662275 
L 250.522018 122.594712 
L 249.522018 122.540664 
L 248.522018 122.50696 
L 247.522018 122.416834 
L 246.522018 122.388299 
L 245.522018 122.356813 
L 244.522018 122.325802 
L 243.522018 122.270994 
L 242.522018 122.206407 
L 241.522018 122.168212 
L 240.522018 122.072277 
L 239.522018 122.023019 
L 238.522018 121.97895 
L 237.522018 121.938826 
L 236.522018 121.830459 
L 235.522018 121.788831 
L 234.522018 121.72669 
L 233.522018 121.656727 
L 232.522018 121.552223 
L 231.522018 121.515235 
L 230.522018 121.469358 
L 229.522018 121.400864 
L 228.522018 121.352118 
L 227.522018 121.27452 
L 226.522018 121.243979 
L 225.522018 121.174465 
L 224.522018 121.150492 
L 223.522018 121.12187 
L 222.522018 121.080077 
L 221.522018 121.058501 
L 220.522018 121.044553 
L 219.522018 121.017831 
L 218.522018 121.008521 
L 217.522018 120.996074 
L 216.522018 120.98502 
L 215.522018 120.979355 
L 214.522018 120.974591 
L 213.522018 120.980139 
L 212.522018 120.993427 
L 211.522018 121.000944 
L 210.522018 121.025729 
L 209.522018 121.049298 
L 208.522018 121.085479 
L 207.522018 121.11144 
L 206.522018 121.133762 
L 205.522018 121.202522 
L 204.522018 121.277057 
L 203.522018 121.371036 
L 202.522018 121.422088 
L 201.522018 121.476022 
L 200.522018 121.511273 
L 199.522018 121.617361 
L 198.522018 121.669625 
L 197.522018 121.706532 
L 196.522018 121.737563 
L 195.522018 121.798718 
L 194.522018 121.866138 
L 193.522018 121.915044 
L 192.522018 121.980236 
L 191.522018 122.018424 
L 190.522018 122.06042 
L 189.522018 122.102437 
L 188.522018 122.161954 
L 187.522018 122.275113 
L 186.522018 122.327364 
L 185.522018 122.366782 
L 184.522018 122.413883 
L 183.522018 122.470663 
L 182.522018 122.503326 
L 181.522018 122.539504 
L 180.522018 122.571595 
L 179.522018 122.605874 
L 178.522018 122.664252 
L 177.522018 122.709437 
L 176.522018 122.739061 
L 175.522018 122.789447 
L 174.522018 122.814645 
L 173.522018 122.835695 
L 172.522018 122.870663 
L 171.522018 122.894953 
L 170.522018 122.90902 
L 169.522018 122.927962 
L 168.522018 122.943624 
L 167.522018 122.956175 
L 166.522018 122.962011 
L 165.522018 122.968894 
L 163.769268 122.974067 
" clip-path="url(#p7af5ccf0de)" style="fill: none; stroke: #ffffff; stroke-width: 3; stroke-linecap: round"/>
        <path d="M 331.522018 121.974533 
L 330.522018 121.943097 
L 329.522018 121.906156 
L 328.522018 121.80841 
L 327.522018 121.775888 
L 326.522018 121.702264 
L 325.522018 121.663698 
L 324.522018 121.628285 
L 323.522018 121.570645 
L 322.522018 121.500259 
L 321.522018 121.448294 
L 320.522018 121.389205 
L 319.522018 121.300884 
L 318.522018 121.254739 
L 317.522018 121.212329 
L 316.522018 121.181836 
L 315.522018 121.155791 
L 314.522018 121.134591 
L 313.522018 121.08029 
L 312.522018 121.052352 
L 311.522018 121.022628 
L 310.522018 120.997233 
L 309.522018 120.986033 
L 308.522018 120.975909 
L 307.522018 120.976113 
L 306.522018 120.985623 
L 305.522018 120.997277 
L 304.522018 121.028306 
L 303.522018 121.039474 
L 302.522018 121.069592 
L 301.522018 121.129368 
L 300.522018 121.16656 
L 299.522018 121.205656 
L 298.522018 121.248096 
L 297.522018 121.280861 
L 296.522018 121.348287 
L 295.522018 121.387413 
L 294.522018 121.430088 
L 293.522018 121.500668 
L 292.522018 121.537059 
L 291.522018 121.595462 
L 290.522018 121.706415 
L 289.522018 121.777073 
L 288.522018 121.890013 
L 287.522018 121.935786 
L 286.522018 121.997069 
L 285.522018 122.045569 
L 284.522018 122.126391 
L 283.522018 122.24491 
L 282.522018 122.315121 
L 281.522018 122.398383 
L 280.522018 122.431525 
L 279.522018 122.482762 
L 278.522018 122.551161 
L 277.522018 122.617376 
L 276.522018 122.694293 
L 275.522018 122.721609 
L 274.522018 122.748086 
L 273.522018 122.770737 
L 272.522018 122.790268 
L 271.522018 122.816662 
L 270.522018 122.866433 
L 269.522018 122.901506 
L 268.522018 122.937372 
L 267.522018 122.952739 
L 266.522018 122.968508 
L 265.522018 122.971921 
L 264.522018 122.974339 
L 263.522018 122.973852 
L 262.522018 122.971923 
L 261.522018 122.958666 
L 260.522018 122.950276 
L 259.522018 122.928739 
L 258.522018 122.905706 
L 257.522018 122.888473 
L 256.522018 122.87001 
L 255.522018 122.849558 
L 254.522018 122.832958 
L 253.522018 122.770179 
L 252.522018 122.694914 
L 251.522018 122.662275 
L 250.522018 122.594712 
L 249.522018 122.540664 
L 248.522018 122.50696 
L 247.522018 122.416834 
L 246.522018 122.388299 
L 245.522018 122.356813 
L 244.522018 122.325802 
L 243.522018 122.270994 
L 242.522018 122.206407 
L 241.522018 122.168212 
L 240.522018 122.072277 
L 239.522018 122.023019 
L 238.522018 121.97895 
L 237.522018 121.938826 
L 236.522018 121.830459 
L 235.522018 121.788831 
L 234.522018 121.72669 
L 233.522018 121.656727 
L 232.522018 121.552223 
L 231.522018 121.515235 
L 230.522018 121.469358 
L 229.522018 121.400864 
L 228.522018 121.352118 
L 227.522018 121.27452 
L 226.522018 121.243979 
L 225.522018 121.174465 
L 224.522018 121.150492 
L 223.522018 121.12187 
L 222.522018 121.080077 
L 221.522018 121.058501 
L 220.522018 121.044553 
L 219.522018 121.017831 
L 218.522018 121.008521 
L 217.522018 120.996074 
L 216.522018 120.98502 
L 215.522018 120.979355 
L 214.522018 120.974591 
L 213.522018 120.980139 
L 212.522018 120.993427 
L 211.522018 121.000944 
L 210.522018 121.025729 
L 209.522018 121.049298 
L 208.522018 121.085479 
L 207.522018 121.11144 
L 206.522018 121.133762 
L 205.522018 121.202522 
L 204.522018 121.277057 
L 203.522018 121.371036 
L 202.522018 121.422088 
L 201.522018 121.476022 
L 200.522018 121.511273 
L 199.522018 121.617361 
L 198.522018 121.669625 
L 197.522018 121.706532 
L 196.522018 121.737563 
L 195.522018 121.798718 
L 194.522018 121.866138 
L 193.522018 121.915044 
L 192.522018 121.980236 
L 191.522018 122.018424 
L 190.522018 122.06042 
L 189.522018 122.102437 
L 188.522018 122.161954 
L 187.522018 122.275113 
L 186.522018 122.327364 
L 185.522018 122.366782 
L 184.522018 122.413883 
L 183.522018 122.470663 
L 182.522018 122.503326 
L 181.522018 122.539504 
L 180.522018 122.571595 
L 179.522018 122.605874 
L 178.522018 122.664252 
L 177.522018 122.709437 
L 176.522018 122.739061 
L 175.522018 122.789447 
L 174.522018 122.814645 
L 173.522018 122.835695 
L 172.522018 122.870663 
L 171.522018 122.894953 
L 170.522018 122.90902 
L 169.522018 122.927962 
L 168.522018 122.943624 
L 167.522018 122.956175 
L 166.522018 122.962011 
L 165.522018 122.968894 
L 163.769268 122.974067 
" clip-path="url(#p7af5ccf0de)" style="fill: none; stroke: #1f77b4; stroke-linecap: round"/>
        <path d="M 167.769268 123.974533 
L 166.8889 123.499202 
L 166.010993 123.018948 
L 165.160279 122.484307 
L 163.858105 121.79686 
L 164.785458 121.770845 
L 165.697132 121.358125 
L 166.607397 120.942586 
L 167.949892 120.335782 
L 167.294994 120.974533 
L 167.243029 121.974533 
L 167.18394 123.974533 
z
" clip-path="url(#p7af5ccf0de)" style="fill: #ffffff; stroke: #ffffff; stroke-width: 3; stroke-linecap: round"/>
        <path d="M 167.769268 123.974533 
L 166.8889 123.499202 
L 166.010993 123.018948 
L 165.160279 122.484307 
L 163.858105 121.79686 
L 164.785458 121.770845 
L 165.697132 121.358125 
L 166.607397 120.942586 
L 167.949892 120.335782 
L 167.294994 120.974533 
L 167.243029 121.974533 
L 167.18394 123.974533 
z
" clip-path="url(#p7af5ccf0de)" style="fill: #ffffff; stroke: #1f77b4; stroke-linecap: round"/>
        <g id="patch_8">
         <path d="M 345.322236 72.964375 
L 346.322236 72.995811 
L 347.322236 73.032752 
L 348.322236 73.130498 
L 349.322236 73.16302 
L 350.322236 73.236645 
L 351.322236 73.27521 
L 352.322236 73.310623 
L 353.322236 73.368263 
L 354.322236 73.438649 
L 355.322236 73.490614 
L 356.322236 73.549703 
L 357.322236 73.638024 
L 358.322236 73.684169 
L 359.322236 73.72658 
L 360.322236 73.757072 
L 361.322236 73.783117 
L 362.322236 73.804317 
L 363.322236 73.858618 
L 364.322236 73.886556 
L 365.322236 73.91628 
L 366.322236 73.941675 
L 367.322236 73.952875 
L 368.322236 73.962999 
L 369.322236 73.962795 
L 370.322236 73.953285 
L 371.322236 73.941631 
L 372.322236 73.910602 
L 373.322236 73.899434 
L 374.322236 73.869317 
L 375.322236 73.80954 
L 376.322236 73.772348 
L 377.322236 73.733252 
L 378.322236 73.690812 
L 379.322236 73.658047 
L 380.322236 73.590621 
L 381.322236 73.551495 
L 382.322236 73.50882 
L 383.322236 73.43824 
L 384.322236 73.401849 
L 385.322236 73.343446 
L 386.322236 73.232493 
L 387.322236 73.161835 
L 388.322236 73.048895 
L 389.322236 73.003122 
L 390.322236 72.941839 
L 391.322236 72.89334 
L 392.322236 72.812517 
L 393.322236 72.693998 
L 394.322236 72.623787 
L 395.322236 72.540525 
L 396.322236 72.507383 
L 397.322236 72.456146 
L 398.322236 72.387747 
L 399.322236 72.321532 
L 400.322236 72.244615 
L 401.322236 72.217299 
L 402.322236 72.190822 
L 403.322236 72.168171 
L 404.322236 72.14864 
L 405.322236 72.122246 
L 406.322236 72.072475 
L 407.322236 72.037402 
L 408.322236 72.001536 
L 409.322236 71.986169 
L 410.322236 71.9704 
L 411.322236 71.966987 
L 412.322236 71.96457 
L 413.322236 71.965056 
L 414.322236 71.966985 
L 415.322236 71.980242 
L 416.322236 71.988633 
L 417.322236 72.010169 
L 418.322236 72.033202 
L 419.322236 72.050435 
L 420.322236 72.068898 
L 421.322236 72.08935 
L 422.322236 72.10595 
L 423.322236 72.168729 
L 424.322236 72.243994 
L 425.322236 72.276633 
L 426.322236 72.344197 
L 427.322236 72.398244 
L 428.322236 72.431948 
L 429.322236 72.522074 
L 430.322236 72.550609 
L 431.322236 72.582095 
L 432.322236 72.613106 
L 433.322236 72.667914 
L 434.322236 72.732501 
L 435.322236 72.770697 
L 436.322236 72.866631 
L 437.322236 72.915889 
L 438.322236 72.959958 
L 439.322236 73.000082 
L 440.322236 73.108449 
L 441.322236 73.150077 
L 442.322236 73.212219 
L 443.322236 73.282181 
L 444.322236 73.386685 
L 445.322236 73.423673 
L 446.322236 73.46955 
L 447.322236 73.538045 
L 448.322236 73.586791 
L 449.322236 73.664388 
L 450.322236 73.694929 
L 451.322236 73.764443 
L 452.322236 73.788416 
L 453.322236 73.817038 
L 454.322236 73.858831 
L 455.322236 73.880407 
L 456.322236 73.894355 
L 457.322236 73.921077 
L 458.322236 73.930387 
L 459.322236 73.942834 
L 460.322236 73.953889 
L 461.322236 73.959553 
L 462.322236 73.964317 
L 463.322236 73.958769 
L 464.322236 73.945481 
L 465.322236 73.937964 
L 466.322236 73.913179 
L 467.322236 73.88961 
L 468.322236 73.85343 
L 469.322236 73.827468 
L 470.322236 73.805146 
L 471.322236 73.736386 
L 472.322236 73.661851 
L 473.322236 73.567872 
L 474.322236 73.51682 
L 475.322236 73.462886 
L 476.322236 73.427635 
L 477.322236 73.321547 
L 478.322236 73.269283 
L 479.322236 73.232376 
L 480.322236 73.201345 
L 481.322236 73.14019 
L 482.322236 73.07277 
L 483.322236 73.023864 
L 484.322236 72.958672 
L 485.322236 72.920484 
L 486.322236 72.878488 
L 487.322236 72.836471 
L 488.322236 72.776955 
L 489.322236 72.663795 
L 490.322236 72.611544 
L 491.322236 72.572126 
L 492.322236 72.525025 
L 493.322236 72.468245 
L 494.322236 72.435582 
L 495.322236 72.399404 
L 496.322236 72.367314 
L 497.322236 72.333034 
L 498.322236 72.274656 
L 499.322236 72.229471 
L 500.322236 72.199847 
L 501.322236 72.149461 
L 502.322236 72.124264 
L 503.322236 72.103213 
L 504.322236 72.068245 
L 505.322236 72.043955 
L 506.322236 72.029888 
L 507.322236 72.010946 
L 508.322236 71.995285 
L 509.322236 71.982733 
L 510.322236 71.976897 
L 511.322236 71.970015 
L 512.322236 71.964841 
L 513.322236 71.966624 
L 514.322236 71.969349 
L 515.322236 71.980503 
L 516.322236 72.008738 
L 517.322236 72.052526 
L 518.322236 72.073215 
L 519.322236 72.114188 
L 520.322236 72.154263 
L 521.322236 72.173373 
L 522.322236 72.195882 
L 523.322236 72.262533 
L 524.322236 72.312243 
L 525.322236 72.385949 
L 526.322236 72.417263 
L 527.322236 72.493885 
L 528.322236 72.532183 
L 529.322236 72.6063 
L 530.322236 72.710358 
L 531.322236 72.780189 
L 532.322236 72.885423 
L 533.322236 72.940438 
L 534.322236 73.063913 
L 535.322236 73.134472 
L 536.322236 73.250311 
L 537.322236 73.300492 
L 538.322236 73.336096 
L 539.322236 73.427503 
L 540.322236 73.481011 
L 541.322236 73.568919 
L 542.322236 73.638104 
L 543.322236 73.684868 
L 544.322236 73.756912 
L 545.322236 73.807054 
L 546.322236 73.824444 
L 547.322236 73.851447 
L 548.322236 73.870874 
L 549.322236 73.890212 
L 550.322236 73.928461 
L 551.322236 73.944894 
L 552.322236 73.953263 
L 553.322236 73.957582 
L 554.322236 73.964137 
L 555.322236 73.961591 
L 556.322236 73.956132 
L 557.322236 73.939704 
L 558.322236 73.907769 
L 559.322236 73.869789 
L 560.322236 73.834985 
L 561.322236 73.771913 
L 562.322236 73.750486 
L 563.322236 73.699868 
L 564.322236 73.674911 
L 565.322236 73.619277 
L 566.322236 73.588048 
L 567.322236 73.537904 
L 568.322236 73.505411 
L 569.322236 73.424999 
L 570.322236 73.356073 
L 571.322236 73.240376 
L 572.322236 73.164897 
L 574.108404 73.049372 
" clip-path="url(#p7af5ccf0de)" style="fill: none; stroke: #ffffff; stroke-width: 3; stroke-linecap: round"/>
         <path d="M 345.322236 72.964375 
L 346.322236 72.995811 
L 347.322236 73.032752 
L 348.322236 73.130498 
L 349.322236 73.16302 
L 350.322236 73.236645 
L 351.322236 73.27521 
L 352.322236 73.310623 
L 353.322236 73.368263 
L 354.322236 73.438649 
L 355.322236 73.490614 
L 356.322236 73.549703 
L 357.322236 73.638024 
L 358.322236 73.684169 
L 359.322236 73.72658 
L 360.322236 73.757072 
L 361.322236 73.783117 
L 362.322236 73.804317 
L 363.322236 73.858618 
L 364.322236 73.886556 
L 365.322236 73.91628 
L 366.322236 73.941675 
L 367.322236 73.952875 
L 368.322236 73.962999 
L 369.322236 73.962795 
L 370.322236 73.953285 
L 371.322236 73.941631 
L 372.322236 73.910602 
L 373.322236 73.899434 
L 374.322236 73.869317 
L 375.322236 73.80954 
L 376.322236 73.772348 
L 377.322236 73.733252 
L 378.322236 73.690812 
L 379.322236 73.658047 
L 380.322236 73.590621 
L 381.322236 73.551495 
L 382.322236 73.50882 
L 383.322236 73.43824 
L 384.322236 73.401849 
L 385.322236 73.343446 
L 386.322236 73.232493 
L 387.322236 73.161835 
L 388.322236 73.048895 
L 389.322236 73.003122 
L 390.322236 72.941839 
L 391.322236 72.89334 
L 392.322236 72.812517 
L 393.322236 72.693998 
L 394.322236 72.623787 
L 395.322236 72.540525 
L 396.322236 72.507383 
L 397.322236 72.456146 
L 398.322236 72.387747 
L 399.322236 72.321532 
L 400.322236 72.244615 
L 401.322236 72.217299 
L 402.322236 72.190822 
L 403.322236 72.168171 
L 404.322236 72.14864 
L 405.322236 72.122246 
L 406.322236 72.072475 
L 407.322236 72.037402 
L 408.322236 72.001536 
L 409.322236 71.986169 
L 410.322236 71.9704 
L 411.322236 71.966987 
L 412.322236 71.96457 
L 413.322236 71.965056 
L 414.322236 71.966985 
L 415.322236 71.980242 
L 416.322236 71.988633 
L 417.322236 72.010169 
L 418.322236 72.033202 
L 419.322236 72.050435 
L 420.322236 72.068898 
L 421.322236 72.08935 
L 422.322236 72.10595 
L 423.322236 72.168729 
L 424.322236 72.243994 
L 425.322236 72.276633 
L 426.322236 72.344197 
L 427.322236 72.398244 
L 428.322236 72.431948 
L 429.322236 72.522074 
L 430.322236 72.550609 
L 431.322236 72.582095 
L 432.322236 72.613106 
L 433.322236 72.667914 
L 434.322236 72.732501 
L 435.322236 72.770697 
L 436.322236 72.866631 
L 437.322236 72.915889 
L 438.322236 72.959958 
L 439.322236 73.000082 
L 440.322236 73.108449 
L 441.322236 73.150077 
L 442.322236 73.212219 
L 443.322236 73.282181 
L 444.322236 73.386685 
L 445.322236 73.423673 
L 446.322236 73.46955 
L 447.322236 73.538045 
L 448.322236 73.586791 
L 449.322236 73.664388 
L 450.322236 73.694929 
L 451.322236 73.764443 
L 452.322236 73.788416 
L 453.322236 73.817038 
L 454.322236 73.858831 
L 455.322236 73.880407 
L 456.322236 73.894355 
L 457.322236 73.921077 
L 458.322236 73.930387 
L 459.322236 73.942834 
L 460.322236 73.953889 
L 461.322236 73.959553 
L 462.322236 73.964317 
L 463.322236 73.958769 
L 464.322236 73.945481 
L 465.322236 73.937964 
L 466.322236 73.913179 
L 467.322236 73.88961 
L 468.322236 73.85343 
L 469.322236 73.827468 
L 470.322236 73.805146 
L 471.322236 73.736386 
L 472.322236 73.661851 
L 473.322236 73.567872 
L 474.322236 73.51682 
L 475.322236 73.462886 
L 476.322236 73.427635 
L 477.322236 73.321547 
L 478.322236 73.269283 
L 479.322236 73.232376 
L 480.322236 73.201345 
L 481.322236 73.14019 
L 482.322236 73.07277 
L 483.322236 73.023864 
L 484.322236 72.958672 
L 485.322236 72.920484 
L 486.322236 72.878488 
L 487.322236 72.836471 
L 488.322236 72.776955 
L 489.322236 72.663795 
L 490.322236 72.611544 
L 491.322236 72.572126 
L 492.322236 72.525025 
L 493.322236 72.468245 
L 494.322236 72.435582 
L 495.322236 72.399404 
L 496.322236 72.367314 
L 497.322236 72.333034 
L 498.322236 72.274656 
L 499.322236 72.229471 
L 500.322236 72.199847 
L 501.322236 72.149461 
L 502.322236 72.124264 
L 503.322236 72.103213 
L 504.322236 72.068245 
L 505.322236 72.043955 
L 506.322236 72.029888 
L 507.322236 72.010946 
L 508.322236 71.995285 
L 509.322236 71.982733 
L 510.322236 71.976897 
L 511.322236 71.970015 
L 512.322236 71.964841 
L 513.322236 71.966624 
L 514.322236 71.969349 
L 515.322236 71.980503 
L 516.322236 72.008738 
L 517.322236 72.052526 
L 518.322236 72.073215 
L 519.322236 72.114188 
L 520.322236 72.154263 
L 521.322236 72.173373 
L 522.322236 72.195882 
L 523.322236 72.262533 
L 524.322236 72.312243 
L 525.322236 72.385949 
L 526.322236 72.417263 
L 527.322236 72.493885 
L 528.322236 72.532183 
L 529.322236 72.6063 
L 530.322236 72.710358 
L 531.322236 72.780189 
L 532.322236 72.885423 
L 533.322236 72.940438 
L 534.322236 73.063913 
L 535.322236 73.134472 
L 536.322236 73.250311 
L 537.322236 73.300492 
L 538.322236 73.336096 
L 539.322236 73.427503 
L 540.322236 73.481011 
L 541.322236 73.568919 
L 542.322236 73.638104 
L 543.322236 73.684868 
L 544.322236 73.756912 
L 545.322236 73.807054 
L 546.322236 73.824444 
L 547.322236 73.851447 
L 548.322236 73.870874 
L 549.322236 73.890212 
L 550.322236 73.928461 
L 551.322236 73.944894 
L 552.322236 73.953263 
L 553.322236 73.957582 
L 554.322236 73.964137 
L 555.322236 73.961591 
L 556.322236 73.956132 
L 557.322236 73.939704 
L 558.322236 73.907769 
L 559.322236 73.869789 
L 560.322236 73.834985 
L 561.322236 73.771913 
L 562.322236 73.750486 
L 563.322236 73.699868 
L 564.322236 73.674911 
L 565.322236 73.619277 
L 566.322236 73.588048 
L 567.322236 73.537904 
L 568.322236 73.505411 
L 569.322236 73.424999 
L 570.322236 73.356073 
L 571.322236 73.240376 
L 572.322236 73.164897 
L 574.108404 73.049372 
" clip-path="url(#p7af5ccf0de)" style="fill: none; stroke: #1f77b4; stroke-linecap: round"/>
         <path d="M 570.108404 70.964375 
L 570.988773 71.439706 
L 571.86668 71.91996 
L 572.717393 72.454601 
L 574.019568 73.142048 
L 573.092214 73.168063 
L 572.18054 73.580783 
L 571.270276 73.996322 
L 569.92778 74.603126 
L 570.582679 73.964375 
L 570.634643 72.964375 
L 570.693733 70.964375 
z
" clip-path="url(#p7af5ccf0de)" style="fill: #ffffff; stroke: #ffffff; stroke-width: 3; stroke-linecap: round"/>
         <path d="M 570.108404 70.964375 
L 570.988773 71.439706 
L 571.86668 71.91996 
L 572.717393 72.454601 
L 574.019568 73.142048 
L 573.092214 73.168063 
L 572.18054 73.580783 
L 571.270276 73.996322 
L 569.92778 74.603126 
L 570.582679 73.964375 
L 570.634643 72.964375 
L 570.693733 70.964375 
z
" clip-path="url(#p7af5ccf0de)" style="fill: #ffffff; stroke: #1f77b4; stroke-linecap: round"/>
         <g id="patch_9">
          <path d="M 162.651119 217.89474 
L 163.651119 217.926177 
L 164.651119 217.963117 
L 165.651119 218.060863 
L 166.651119 218.093385 
L 167.651119 218.16701 
L 168.651119 218.205575 
L 169.651119 218.240989 
L 170.651119 218.298628 
L 171.651119 218.369015 
L 172.651119 218.420979 
L 173.651119 218.480069 
L 174.651119 218.56839 
L 175.651119 218.614534 
L 176.651119 218.656945 
L 177.651119 218.687437 
L 178.651119 218.713482 
L 179.651119 218.734683 
L 180.651119 218.788984 
L 181.651119 218.816921 
L 182.651119 218.846645 
L 183.651119 218.87204 
L 184.651119 218.88324 
L 185.651119 218.893364 
L 186.651119 218.89316 
L 187.651119 218.88365 
L 188.651119 218.871997 
L 189.651119 218.840967 
L 190.651119 218.829799 
L 191.651119 218.799682 
L 192.651119 218.739905 
L 193.651119 218.702713 
L 194.651119 218.663617 
L 195.651119 218.621178 
L 196.651119 218.588413 
L 197.651119 218.520986 
L 198.651119 218.48186 
L 199.651119 218.439186 
L 200.651119 218.368605 
L 201.651119 218.332214 
L 202.651119 218.273811 
L 203.651119 218.162858 
L 204.651119 218.0922 
L 205.651119 217.97926 
L 206.651119 217.933487 
L 207.651119 217.872204 
L 208.651119 217.823705 
L 209.651119 217.742882 
L 210.651119 217.624363 
L 211.651119 217.554153 
L 212.651119 217.47089 
L 213.651119 217.437748 
L 214.651119 217.386511 
L 215.651119 217.318113 
L 216.651119 217.251897 
L 217.651119 217.17498 
L 218.651119 217.147665 
L 219.651119 217.121187 
L 220.651119 217.098536 
L 221.651119 217.079005 
L 222.651119 217.052611 
L 223.651119 217.00284 
L 224.651119 216.967767 
L 225.651119 216.931902 
L 226.651119 216.916534 
L 227.651119 216.900765 
L 228.651119 216.897353 
L 229.651119 216.894935 
L 230.651119 216.895421 
L 231.651119 216.89735 
L 232.651119 216.910607 
L 233.651119 216.918998 
L 234.651119 216.940535 
L 235.651119 216.963567 
L 236.651119 216.9808 
L 237.651119 216.999263 
L 238.651119 217.019715 
L 239.651119 217.036315 
L 240.651119 217.099094 
L 241.651119 217.174359 
L 242.651119 217.206998 
L 243.651119 217.274562 
L 244.651119 217.328609 
L 245.651119 217.362313 
L 246.651119 217.452439 
L 247.651119 217.480974 
L 248.651119 217.51246 
L 249.651119 217.543471 
L 250.651119 217.598279 
L 251.651119 217.662867 
L 252.651119 217.701062 
L 253.651119 217.796996 
L 254.651119 217.846254 
L 255.651119 217.890324 
L 256.651119 217.930447 
L 257.651119 218.038814 
L 258.651119 218.080442 
L 259.651119 218.142584 
L 260.651119 218.212546 
L 261.651119 218.31705 
L 262.651119 218.354038 
L 263.651119 218.399915 
L 264.651119 218.46841 
L 265.651119 218.517156 
L 266.651119 218.594753 
L 267.651119 218.625294 
L 268.651119 218.694808 
L 269.651119 218.718781 
L 270.651119 218.747403 
L 271.651119 218.789196 
L 272.651119 218.810772 
L 273.651119 218.82472 
L 274.651119 218.851443 
L 275.651119 218.860752 
L 276.651119 218.873199 
L 277.651119 218.884254 
L 278.651119 218.889918 
L 279.651119 218.894682 
L 280.651119 218.889135 
L 281.651119 218.875847 
L 282.651119 218.868329 
L 283.651119 218.843544 
L 284.651119 218.819976 
L 285.651119 218.783795 
L 286.651119 218.757833 
L 287.651119 218.735512 
L 288.651119 218.666751 
L 289.651119 218.592216 
L 290.651119 218.498237 
L 291.651119 218.447185 
L 292.651119 218.393251 
L 293.651119 218.358 
L 294.651119 218.251912 
L 295.651119 218.199648 
L 296.651119 218.162741 
L 297.651119 218.131711 
L 298.651119 218.070555 
L 299.651119 218.003135 
L 300.651119 217.954229 
L 301.651119 217.889037 
L 302.651119 217.850849 
L 303.651119 217.808854 
L 304.651119 217.766836 
L 305.651119 217.70732 
L 306.651119 217.59416 
L 307.651119 217.541909 
L 308.651119 217.502491 
L 309.651119 217.45539 
L 310.651119 217.398611 
L 311.651119 217.365947 
L 312.651119 217.32977 
L 313.651119 217.297679 
L 314.651119 217.263399 
L 315.651119 217.205021 
L 316.651119 217.159836 
L 317.651119 217.130212 
L 318.651119 217.079827 
L 319.651119 217.054629 
L 320.651119 217.033578 
L 321.651119 216.99861 
L 322.651119 216.97432 
L 323.651119 216.960253 
L 324.651119 216.941311 
L 325.651119 216.92565 
L 326.651119 216.913098 
L 327.651119 216.907262 
L 328.651119 216.90038 
L 329.651119 216.895206 
L 330.651119 216.896989 
L 331.651119 216.899714 
L 332.651119 216.910868 
L 333.651119 216.939103 
L 334.651119 216.982891 
L 335.651119 217.00358 
L 336.651119 217.044554 
L 337.651119 217.084628 
L 338.651119 217.103738 
L 339.651119 217.126247 
L 340.651119 217.192898 
L 341.651119 217.242608 
L 342.651119 217.316315 
L 343.651119 217.347628 
L 344.651119 217.42425 
L 345.651119 217.462548 
L 346.651119 217.536665 
L 347.651119 217.640723 
L 348.651119 217.710554 
L 349.651119 217.815788 
L 350.651119 217.870803 
L 351.651119 217.994278 
L 352.651119 218.064837 
L 353.651119 218.180677 
L 354.651119 218.230857 
L 355.651119 218.266461 
L 356.651119 218.357868 
L 357.651119 218.411376 
L 358.651119 218.499284 
L 359.651119 218.568469 
L 360.651119 218.615233 
L 361.651119 218.687277 
L 362.651119 218.737419 
L 363.651119 218.754809 
L 364.651119 218.781812 
L 365.651119 218.80124 
L 366.651119 218.820578 
L 367.651119 218.858826 
L 368.651119 218.875259 
L 369.651119 218.883628 
L 370.651119 218.887947 
L 371.651119 218.894502 
L 372.651119 218.891956 
L 373.651119 218.886498 
L 374.651119 218.870069 
L 375.651119 218.838134 
L 376.651119 218.800154 
L 377.651119 218.76535 
L 378.651119 218.702278 
L 379.651119 218.680852 
L 380.651119 218.630234 
L 381.651119 218.605276 
L 382.651119 218.549643 
L 383.651119 218.518414 
L 384.651119 218.468269 
L 385.651119 218.435776 
L 386.651119 218.355364 
L 387.651119 218.286438 
L 388.651119 218.170741 
L 389.651119 218.095262 
L 390.651119 217.979737 
L 391.651119 217.900253 
L 392.651119 217.791812 
L 393.651119 217.752444 
L 394.651119 217.649577 
L 395.651119 217.549779 
L 396.651119 217.504281 
L 397.651119 217.469959 
L 398.651119 217.418003 
L 399.651119 217.378356 
L 400.651119 217.342842 
L 401.651119 217.275197 
L 402.651119 217.236116 
L 403.651119 217.185634 
L 404.651119 217.136328 
L 405.651119 217.085259 
L 406.651119 217.041019 
L 407.651119 217.018999 
L 408.651119 217.003443 
L 409.651119 216.960996 
L 410.651119 216.946128 
L 411.651119 216.923401 
L 412.651119 216.903084 
L 413.651119 216.897287 
L 414.651119 216.894805 
L 415.651119 216.897862 
L 416.651119 216.909458 
L 417.651119 216.926378 
L 418.651119 216.958039 
L 419.651119 216.972123 
L 420.651119 217.024794 
L 421.651119 217.073883 
L 422.651119 217.128584 
L 423.651119 217.172932 
L 424.651119 217.242924 
L 425.651119 217.293307 
L 426.651119 217.347214 
L 427.651119 217.416653 
L 428.651119 217.474041 
L 429.651119 217.524206 
L 430.651119 217.601368 
L 431.651119 217.659558 
L 432.651119 217.720196 
L 433.651119 217.757397 
L 434.651119 217.822489 
L 435.651119 217.927619 
L 436.651119 217.987921 
L 437.651119 218.084243 
L 438.651119 218.116246 
L 439.651119 218.167263 
L 440.651119 218.284055 
L 441.651119 218.319502 
L 442.651119 218.375382 
L 443.651119 218.405758 
L 444.651119 218.494144 
L 445.651119 218.538908 
L 446.651119 218.619796 
L 447.651119 218.679942 
L 448.651119 218.743028 
L 449.651119 218.765977 
L 450.651119 218.782146 
L 451.651119 218.811075 
L 452.651119 218.841427 
L 453.651119 218.854002 
L 454.695174 218.87888 
" clip-path="url(#p7af5ccf0de)" style="fill: none; stroke: #ffffff; stroke-width: 3; stroke-linecap: round"/>
          <path d="M 162.651119 217.89474 
L 163.651119 217.926177 
L 164.651119 217.963117 
L 165.651119 218.060863 
L 166.651119 218.093385 
L 167.651119 218.16701 
L 168.651119 218.205575 
L 169.651119 218.240989 
L 170.651119 218.298628 
L 171.651119 218.369015 
L 172.651119 218.420979 
L 173.651119 218.480069 
L 174.651119 218.56839 
L 175.651119 218.614534 
L 176.651119 218.656945 
L 177.651119 218.687437 
L 178.651119 218.713482 
L 179.651119 218.734683 
L 180.651119 218.788984 
L 181.651119 218.816921 
L 182.651119 218.846645 
L 183.651119 218.87204 
L 184.651119 218.88324 
L 185.651119 218.893364 
L 186.651119 218.89316 
L 187.651119 218.88365 
L 188.651119 218.871997 
L 189.651119 218.840967 
L 190.651119 218.829799 
L 191.651119 218.799682 
L 192.651119 218.739905 
L 193.651119 218.702713 
L 194.651119 218.663617 
L 195.651119 218.621178 
L 196.651119 218.588413 
L 197.651119 218.520986 
L 198.651119 218.48186 
L 199.651119 218.439186 
L 200.651119 218.368605 
L 201.651119 218.332214 
L 202.651119 218.273811 
L 203.651119 218.162858 
L 204.651119 218.0922 
L 205.651119 217.97926 
L 206.651119 217.933487 
L 207.651119 217.872204 
L 208.651119 217.823705 
L 209.651119 217.742882 
L 210.651119 217.624363 
L 211.651119 217.554153 
L 212.651119 217.47089 
L 213.651119 217.437748 
L 214.651119 217.386511 
L 215.651119 217.318113 
L 216.651119 217.251897 
L 217.651119 217.17498 
L 218.651119 217.147665 
L 219.651119 217.121187 
L 220.651119 217.098536 
L 221.651119 217.079005 
L 222.651119 217.052611 
L 223.651119 217.00284 
L 224.651119 216.967767 
L 225.651119 216.931902 
L 226.651119 216.916534 
L 227.651119 216.900765 
L 228.651119 216.897353 
L 229.651119 216.894935 
L 230.651119 216.895421 
L 231.651119 216.89735 
L 232.651119 216.910607 
L 233.651119 216.918998 
L 234.651119 216.940535 
L 235.651119 216.963567 
L 236.651119 216.9808 
L 237.651119 216.999263 
L 238.651119 217.019715 
L 239.651119 217.036315 
L 240.651119 217.099094 
L 241.651119 217.174359 
L 242.651119 217.206998 
L 243.651119 217.274562 
L 244.651119 217.328609 
L 245.651119 217.362313 
L 246.651119 217.452439 
L 247.651119 217.480974 
L 248.651119 217.51246 
L 249.651119 217.543471 
L 250.651119 217.598279 
L 251.651119 217.662867 
L 252.651119 217.701062 
L 253.651119 217.796996 
L 254.651119 217.846254 
L 255.651119 217.890324 
L 256.651119 217.930447 
L 257.651119 218.038814 
L 258.651119 218.080442 
L 259.651119 218.142584 
L 260.651119 218.212546 
L 261.651119 218.31705 
L 262.651119 218.354038 
L 263.651119 218.399915 
L 264.651119 218.46841 
L 265.651119 218.517156 
L 266.651119 218.594753 
L 267.651119 218.625294 
L 268.651119 218.694808 
L 269.651119 218.718781 
L 270.651119 218.747403 
L 271.651119 218.789196 
L 272.651119 218.810772 
L 273.651119 218.82472 
L 274.651119 218.851443 
L 275.651119 218.860752 
L 276.651119 218.873199 
L 277.651119 218.884254 
L 278.651119 218.889918 
L 279.651119 218.894682 
L 280.651119 218.889135 
L 281.651119 218.875847 
L 282.651119 218.868329 
L 283.651119 218.843544 
L 284.651119 218.819976 
L 285.651119 218.783795 
L 286.651119 218.757833 
L 287.651119 218.735512 
L 288.651119 218.666751 
L 289.651119 218.592216 
L 290.651119 218.498237 
L 291.651119 218.447185 
L 292.651119 218.393251 
L 293.651119 218.358 
L 294.651119 218.251912 
L 295.651119 218.199648 
L 296.651119 218.162741 
L 297.651119 218.131711 
L 298.651119 218.070555 
L 299.651119 218.003135 
L 300.651119 217.954229 
L 301.651119 217.889037 
L 302.651119 217.850849 
L 303.651119 217.808854 
L 304.651119 217.766836 
L 305.651119 217.70732 
L 306.651119 217.59416 
L 307.651119 217.541909 
L 308.651119 217.502491 
L 309.651119 217.45539 
L 310.651119 217.398611 
L 311.651119 217.365947 
L 312.651119 217.32977 
L 313.651119 217.297679 
L 314.651119 217.263399 
L 315.651119 217.205021 
L 316.651119 217.159836 
L 317.651119 217.130212 
L 318.651119 217.079827 
L 319.651119 217.054629 
L 320.651119 217.033578 
L 321.651119 216.99861 
L 322.651119 216.97432 
L 323.651119 216.960253 
L 324.651119 216.941311 
L 325.651119 216.92565 
L 326.651119 216.913098 
L 327.651119 216.907262 
L 328.651119 216.90038 
L 329.651119 216.895206 
L 330.651119 216.896989 
L 331.651119 216.899714 
L 332.651119 216.910868 
L 333.651119 216.939103 
L 334.651119 216.982891 
L 335.651119 217.00358 
L 336.651119 217.044554 
L 337.651119 217.084628 
L 338.651119 217.103738 
L 339.651119 217.126247 
L 340.651119 217.192898 
L 341.651119 217.242608 
L 342.651119 217.316315 
L 343.651119 217.347628 
L 344.651119 217.42425 
L 345.651119 217.462548 
L 346.651119 217.536665 
L 347.651119 217.640723 
L 348.651119 217.710554 
L 349.651119 217.815788 
L 350.651119 217.870803 
L 351.651119 217.994278 
L 352.651119 218.064837 
L 353.651119 218.180677 
L 354.651119 218.230857 
L 355.651119 218.266461 
L 356.651119 218.357868 
L 357.651119 218.411376 
L 358.651119 218.499284 
L 359.651119 218.568469 
L 360.651119 218.615233 
L 361.651119 218.687277 
L 362.651119 218.737419 
L 363.651119 218.754809 
L 364.651119 218.781812 
L 365.651119 218.80124 
L 366.651119 218.820578 
L 367.651119 218.858826 
L 368.651119 218.875259 
L 369.651119 218.883628 
L 370.651119 218.887947 
L 371.651119 218.894502 
L 372.651119 218.891956 
L 373.651119 218.886498 
L 374.651119 218.870069 
L 375.651119 218.838134 
L 376.651119 218.800154 
L 377.651119 218.76535 
L 378.651119 218.702278 
L 379.651119 218.680852 
L 380.651119 218.630234 
L 381.651119 218.605276 
L 382.651119 218.549643 
L 383.651119 218.518414 
L 384.651119 218.468269 
L 385.651119 218.435776 
L 386.651119 218.355364 
L 387.651119 218.286438 
L 388.651119 218.170741 
L 389.651119 218.095262 
L 390.651119 217.979737 
L 391.651119 217.900253 
L 392.651119 217.791812 
L 393.651119 217.752444 
L 394.651119 217.649577 
L 395.651119 217.549779 
L 396.651119 217.504281 
L 397.651119 217.469959 
L 398.651119 217.418003 
L 399.651119 217.378356 
L 400.651119 217.342842 
L 401.651119 217.275197 
L 402.651119 217.236116 
L 403.651119 217.185634 
L 404.651119 217.136328 
L 405.651119 217.085259 
L 406.651119 217.041019 
L 407.651119 217.018999 
L 408.651119 217.003443 
L 409.651119 216.960996 
L 410.651119 216.946128 
L 411.651119 216.923401 
L 412.651119 216.903084 
L 413.651119 216.897287 
L 414.651119 216.894805 
L 415.651119 216.897862 
L 416.651119 216.909458 
L 417.651119 216.926378 
L 418.651119 216.958039 
L 419.651119 216.972123 
L 420.651119 217.024794 
L 421.651119 217.073883 
L 422.651119 217.128584 
L 423.651119 217.172932 
L 424.651119 217.242924 
L 425.651119 217.293307 
L 426.651119 217.347214 
L 427.651119 217.416653 
L 428.651119 217.474041 
L 429.651119 217.524206 
L 430.651119 217.601368 
L 431.651119 217.659558 
L 432.651119 217.720196 
L 433.651119 217.757397 
L 434.651119 217.822489 
L 435.651119 217.927619 
L 436.651119 217.987921 
L 437.651119 218.084243 
L 438.651119 218.116246 
L 439.651119 218.167263 
L 440.651119 218.284055 
L 441.651119 218.319502 
L 442.651119 218.375382 
L 443.651119 218.405758 
L 444.651119 218.494144 
L 445.651119 218.538908 
L 446.651119 218.619796 
L 447.651119 218.679942 
L 448.651119 218.743028 
L 449.651119 218.765977 
L 450.651119 218.782146 
L 451.651119 218.811075 
L 452.651119 218.841427 
L 453.651119 218.854002 
L 454.695174 218.87888 
" clip-path="url(#p7af5ccf0de)" style="fill: none; stroke: #ff7f0e; stroke-linecap: round"/>
          <path d="M 450.695174 215.89474 
L 451.575542 216.370071 
L 452.453449 216.850325 
L 453.304163 217.384966 
L 454.606337 218.072414 
L 453.678984 218.098428 
L 452.76731 218.511148 
L 451.857045 218.926687 
L 450.51455 219.533491 
L 451.169448 218.89474 
L 451.221413 217.89474 
L 451.280502 215.89474 
z
" clip-path="url(#p7af5ccf0de)" style="fill: #ffffff; stroke: #ffffff; stroke-width: 3; stroke-linecap: round"/>
          <path d="M 450.695174 215.89474 
L 451.575542 216.370071 
L 452.453449 216.850325 
L 453.304163 217.384966 
L 454.606337 218.072414 
L 453.678984 218.098428 
L 452.76731 218.511148 
L 451.857045 218.926687 
L 450.51455 219.533491 
L 451.169448 218.89474 
L 451.221413 217.89474 
L 451.280502 215.89474 
z
" clip-path="url(#p7af5ccf0de)" style="fill: #ffffff; stroke: #ff7f0e; stroke-linecap: round"/>
          <path d="M 464.140809 278.181572 
" clip-path="url(#p7af5ccf0de)" style="fill: none; stroke-dasharray: 3.7,1.6; stroke-dashoffset: 0; stroke: #2ca02c"/>
          <path d="M 463.140809 278.181572 
L 465.140809 279.181572 
L 465.140809 277.181572 
z
" clip-path="url(#p7af5ccf0de)" style="fill: #2ca02c; stroke: #2ca02c; stroke-linejoin: miter"/>
          <g id="patch_10">
           <path d="M 63.290625 321.621875 
L 63.290625 10.8 
" style="fill: none; stroke: #000000; stroke-width: 0.8; stroke-linejoin: miter; stroke-linecap: square"/>
          </g>
          <g id="text_12">
           <g id="patch_11">
            <path d="M 327.769701 73.226329 
L 349.074389 73.226329 
Q 351.074389 73.226329 351.074389 71.226329 
L 351.074389 61.548204 
Q 351.074389 59.548204 349.074389 59.548204 
L 327.769701 59.548204 
Q 325.769701 59.548204 325.769701 61.548204 
L 325.769701 71.226329 
Q 325.769701 73.226329 327.769701 73.226329 
z
" style="fill: #ffffff; opacity: 0.6"/>
           </g>
           <!-- ANC -->
           <g transform="translate(327.769701 69.146642) scale(0.1 -0.1)">
            <defs>
             <path id="DejaVuSans-4e" d="M 628 4666 
L 1478 4666 
L 3547 763 
L 3547 4666 
L 4159 4666 
L 4159 0 
L 3309 0 
L 1241 3903 
L 1241 0 
L 628 0 
L 628 4666 
z
" transform="scale(0.015625)"/>
            </defs>
            <use xlink:href="#DejaVuSans-41"/>
            <use xlink:href="#DejaVuSans-4e" x="68.408203"/>
            <use xlink:href="#DejaVuSans-43" x="143.212891"/>
           </g>
          </g>
         </g>
        </g>
        <defs>
         <clipPath id="p7af5ccf0de">
          <rect x="63.290625" y="10.8" width="540.309375" height="310.821875"/>
         </clipPath>
        </defs>
       </g>
      </g>
     </g>
    </g>
   </g>
  </g>
 </g>
</svg>
