<?xml version="1.0" encoding="utf-8" standalone="no"?>
<!DOCTYPE svg PUBLIC "-//W3C//DTD SVG 1.1//EN"
  "http://www.w3.org/Graphics/SVG/1.1/DTD/svg11.dtd">
<svg xmlns:xlink="http://www.w3.org/1999/xlink" width="614.4pt" height="345.6pt" viewBox="0 0 614.4 345.6" xmlns="http://www.w3.org/2000/svg" version="1.1">
 <metadata>
  <rdf:RDF xmlns:dc="http://purl.org/dc/elements/1.1/" xmlns:cc="http://creativecommons.org/ns#" xmlns:rdf="http://www.w3.org/1999/02/22-rdf-syntax-ns#">
   <cc:Work>
    <dc:type rdf:resource="http://purl.org/dc/dcmitype/StillImage"/>
    <dc:date>2024-04-17T19:40:21.364918</dc:date>
    <dc:format>image/svg+xml</dc:format>
    <dc:creator>
     <cc:Agent>
      <dc:title>Matplotlib v3.7.1, https://matplotlib.org/</dc:title>
     </cc:Agent>
    </dc:creator>
   </cc:Work>
  </rdf:RDF>
 </metadata>
 <defs>
  <style type="text/css">*{stroke-linejoin: round; stroke-linecap: butt}</style>
 </defs>
 <g id="figure_1">
  <g id="patch_1">
   <path d="M 0 345.6 
L 614.4 345.6 
L 614.4 0 
L 0 0 
z
" style="fill: #ffffff"/>
  </g>
  <g id="axes_1">
   <g id="patch_2">
    <path d="M 63.290625 321.621875 
L 603.6 321.621875 
L 603.6 10.8 
L 63.290625 10.8 
z
" style="fill: #ffffff"/>
   </g>
   <path d="M 545.639737 301.968446 
L 544.639737 301.93701 
L 543.639737 301.90007 
L 542.639737 301.802323 
L 541.639737 301.769801 
L 540.639737 301.696177 
L 539.639737 301.657611 
L 538.639737 301.622198 
L 537.639737 301.564558 
L 536.639737 301.494172 
L 535.639737 301.442208 
L 534.639737 301.383118 
L 533.639737 301.294797 
L 532.639737 301.248653 
L 531.639737 301.206242 
L 530.639737 301.175749 
L 529.639737 301.149704 
L 528.639737 301.128504 
L 527.639737 301.074203 
L 526.639737 301.046265 
L 525.639737 301.016541 
L 524.639737 300.991147 
L 523.639737 300.979946 
L 522.639737 300.969822 
L 521.639737 300.970027 
L 520.639737 300.979536 
L 519.639737 300.99119 
L 518.639737 301.022219 
L 517.639737 301.033387 
L 516.639737 301.063505 
L 515.639737 301.123282 
L 514.639737 301.160473 
L 513.639737 301.199569 
L 512.639737 301.242009 
L 511.639737 301.274774 
L 510.639737 301.342201 
L 509.639737 301.381326 
L 508.639737 301.424001 
L 507.639737 301.494582 
L 506.639737 301.530972 
L 505.639737 301.589376 
L 504.639737 301.700328 
L 503.639737 301.770987 
L 502.639737 301.883926 
L 501.639737 301.929699 
L 500.639737 301.990982 
L 499.639737 302.039482 
L 498.639737 302.120304 
L 497.639737 302.238823 
L 496.639737 302.309034 
L 495.639737 302.392296 
L 494.639737 302.425438 
L 493.639737 302.476676 
L 492.639737 302.545074 
L 491.639737 302.611289 
L 490.639737 302.688206 
L 489.639737 302.715522 
L 488.639737 302.741999 
L 487.639737 302.76465 
L 486.639737 302.784181 
L 485.639737 302.810575 
L 484.639737 302.860346 
L 483.639737 302.895419 
L 482.639737 302.931285 
L 481.639737 302.946652 
L 480.639737 302.962421 
L 479.639737 302.965834 
L 478.639737 302.968252 
L 477.639737 302.967766 
L 476.639737 302.965836 
L 475.639737 302.952579 
L 474.639737 302.944189 
L 473.639737 302.922652 
L 472.639737 302.89962 
L 471.639737 302.882386 
L 470.639737 302.863924 
L 469.639737 302.843471 
L 468.639737 302.826871 
L 467.639737 302.764093 
L 466.639737 302.688827 
L 465.639737 302.656188 
L 464.639737 302.588625 
L 463.639737 302.534578 
L 462.639737 302.500873 
L 461.639737 302.410747 
L 460.639737 302.382212 
L 459.639737 302.350726 
L 458.639737 302.319715 
L 457.639737 302.264907 
L 456.639737 302.20032 
L 455.639737 302.162125 
L 454.639737 302.066191 
L 453.639737 302.016932 
L 452.639737 301.972863 
L 451.639737 301.932739 
L 450.639737 301.824372 
L 449.639737 301.782744 
L 448.639737 301.720603 
L 447.639737 301.65064 
L 446.639737 301.546136 
L 445.639737 301.509149 
L 444.639737 301.463271 
L 443.639737 301.394777 
L 442.639737 301.346031 
L 441.639737 301.268433 
L 440.226979 301.237893 
" clip-path="url(#p329b6e555f)" style="fill: none; stroke-dasharray: 3.7,1.6; stroke-dashoffset: 0; stroke: #2ca02c"/>
   <g id="patch_3">
    <path d="M 266.065346 10.8 
L 266.065346 203.890521 
M 324.218691 10.8 
L 324.218691 203.890521 
" clip-path="url(#p329b6e555f)" style="fill: none; stroke: #ffffff; stroke-width: 3; stroke-linejoin: miter"/>
    <path d="M 266.065346 10.8 
L 266.065346 203.890521 
M 324.218691 10.8 
L 324.218691 203.890521 
" clip-path="url(#p329b6e555f)" style="fill: none; stroke: #1f77b4; stroke-linejoin: miter"/>
    <g id="PolyCollection_1">
     <path d="M 324.218691 10.8 
L 266.065346 10.8 
L 266.065346 203.890521 
L 324.218691 203.890521 
L 324.218691 203.890521 
L 324.218691 10.8 
z
" clip-path="url(#p329b6e555f)" style="fill: #1f77b4; fill-opacity: 0.5"/>
    </g>
    <g id="patch_4">
     <path d="M 90.729901 203.890521 
L 90.619035 311.253118 
L 89.863308 315.043847 
L 88.973362 318.388607 
L 87.98047 321.287399 
L 87.850142 321.621875 
M 94.704678 203.890521 
L 94.815544 311.253118 
L 95.571271 315.043847 
L 96.461217 318.388607 
L 97.454109 321.287399 
L 97.584437 321.621875 
L 97.584437 321.621875 
" clip-path="url(#p329b6e555f)" style="fill: none; stroke: #ffffff; stroke-width: 3; stroke-linejoin: miter"/>
     <path d="M 90.729901 203.890521 
L 90.619035 311.253118 
L 89.863308 315.043847 
L 88.973362 318.388607 
L 87.98047 321.287399 
L 87.850142 321.621875 
M 94.704678 203.890521 
L 94.815544 311.253118 
L 95.571271 315.043847 
L 96.461217 318.388607 
L 97.454109 321.287399 
L 97.584437 321.621875 
L 97.584437 321.621875 
" clip-path="url(#p329b6e555f)" style="fill: none; stroke: #ff7f0e; stroke-linejoin: miter"/>
     <g id="PolyCollection_2">
      <path d="M 94.704678 203.890521 
L 90.729901 203.890521 
L 90.729901 310.584166 
L 90.729901 310.584166 
L 90.711838 310.695658 
L 90.693612 310.80715 
L 90.67522 310.918642 
L 90.656661 311.030134 
L 90.637933 311.141626 
L 90.619035 311.253118 
L 90.599965 311.36461 
L 90.580722 311.476102 
L 90.561304 311.587594 
L 90.54171 311.699086 
L 90.521937 311.810578 
L 90.501985 311.92207 
L 90.481852 312.033562 
L 90.461535 312.145054 
L 90.441034 312.256546 
L 90.420347 312.368038 
L 90.399471 312.47953 
L 90.378406 312.591022 
L 90.357149 312.702514 
L 90.335699 312.814006 
L 90.314054 312.925499 
L 90.292213 313.036991 
L 90.270173 313.148483 
L 90.247933 313.259975 
L 90.22549 313.371467 
L 90.202844 313.482959 
L 90.179991 313.594451 
L 90.156931 313.705943 
L 90.133662 313.817435 
L 90.110181 313.928927 
L 90.086486 314.040419 
L 90.062577 314.151911 
L 90.03845 314.263403 
L 90.014103 314.374895 
L 89.989536 314.486387 
L 89.964745 314.597879 
L 89.939729 314.709371 
L 89.914485 314.820863 
L 89.889012 314.932355 
L 89.863308 315.043847 
L 89.83737 315.155339 
L 89.811196 315.266831 
L 89.784784 315.378323 
L 89.758132 315.489815 
L 89.731238 315.601307 
L 89.7041 315.712799 
L 89.676715 315.824291 
L 89.649081 315.935783 
L 89.621196 316.047275 
L 89.593057 316.158767 
L 89.564663 316.270259 
L 89.536011 316.381751 
L 89.507098 316.493243 
L 89.477923 316.604735 
L 89.448482 316.716227 
L 89.418774 316.827719 
L 89.388796 316.939211 
L 89.358545 317.050703 
L 89.328019 317.162195 
L 89.297216 317.273687 
L 89.266134 317.385179 
L 89.234768 317.496671 
L 89.203118 317.608163 
L 89.171179 317.719655 
L 89.138951 317.831147 
L 89.10643 317.942639 
L 89.073613 318.054131 
L 89.040498 318.165623 
L 89.007082 318.277115 
L 88.973362 318.388607 
L 88.939335 318.500099 
L 88.905 318.611591 
L 88.870352 318.723083 
L 88.83539 318.834575 
L 88.80011 318.946067 
L 88.764509 319.057559 
L 88.728584 319.169051 
L 88.692334 319.280543 
L 88.655753 319.392035 
L 88.61884 319.503527 
L 88.581592 319.615019 
L 88.544005 319.726511 
L 88.506077 319.838003 
L 88.467804 319.949495 
L 88.429183 320.060987 
L 88.390211 320.172479 
L 88.350885 320.283971 
L 88.311201 320.395463 
L 88.271157 320.506955 
L 88.230749 320.618447 
L 88.189973 320.729939 
L 88.148827 320.841431 
L 88.107307 320.952923 
L 88.06541 321.064415 
L 88.023132 321.175907 
L 87.98047 321.287399 
L 87.937419 321.398891 
L 87.893978 321.510383 
L 87.850142 321.621875 
L 97.584437 321.621875 
L 97.584437 321.621875 
L 97.540601 321.510383 
L 97.497159 321.398891 
L 97.454109 321.287399 
L 97.411447 321.175907 
L 97.369169 321.064415 
L 97.327272 320.952923 
L 97.285752 320.841431 
L 97.244606 320.729939 
L 97.20383 320.618447 
L 97.163422 320.506955 
L 97.123378 320.395463 
L 97.083694 320.283971 
L 97.044368 320.172479 
L 97.005396 320.060987 
L 96.966775 319.949495 
L 96.928502 319.838003 
L 96.890573 319.726511 
L 96.852987 319.615019 
L 96.815738 319.503527 
L 96.778826 319.392035 
L 96.742245 319.280543 
L 96.705994 319.169051 
L 96.67007 319.057559 
L 96.634469 318.946067 
L 96.599189 318.834575 
L 96.564226 318.723083 
L 96.529579 318.611591 
L 96.495243 318.500099 
L 96.461217 318.388607 
L 96.427497 318.277115 
L 96.394081 318.165623 
L 96.360966 318.054131 
L 96.328149 317.942639 
L 96.295628 317.831147 
L 96.263399 317.719655 
L 96.231461 317.608163 
L 96.199811 317.496671 
L 96.168445 317.385179 
L 96.137362 317.273687 
L 96.106559 317.162195 
L 96.076034 317.050703 
L 96.045783 316.939211 
L 96.015805 316.827719 
L 95.986097 316.716227 
L 95.956656 316.604735 
L 95.927481 316.493243 
L 95.898568 316.381751 
L 95.869916 316.270259 
L 95.841521 316.158767 
L 95.813383 316.047275 
L 95.785498 315.935783 
L 95.757864 315.824291 
L 95.730479 315.712799 
L 95.70334 315.601307 
L 95.676447 315.489815 
L 95.649795 315.378323 
L 95.623383 315.266831 
L 95.597209 315.155339 
L 95.571271 315.043847 
L 95.545567 314.932355 
L 95.520094 314.820863 
L 95.49485 314.709371 
L 95.469834 314.597879 
L 95.445043 314.486387 
L 95.420475 314.374895 
L 95.396129 314.263403 
L 95.372002 314.151911 
L 95.348092 314.040419 
L 95.324398 313.928927 
L 95.300917 313.817435 
L 95.277647 313.705943 
L 95.254587 313.594451 
L 95.231735 313.482959 
L 95.209089 313.371467 
L 95.186646 313.259975 
L 95.164406 313.148483 
L 95.142366 313.036991 
L 95.120524 312.925499 
L 95.09888 312.814006 
L 95.07743 312.702514 
L 95.056173 312.591022 
L 95.035108 312.47953 
L 95.014232 312.368038 
L 94.993545 312.256546 
L 94.973044 312.145054 
L 94.952727 312.033562 
L 94.932593 311.92207 
L 94.912641 311.810578 
L 94.892869 311.699086 
L 94.873274 311.587594 
L 94.853856 311.476102 
L 94.834613 311.36461 
L 94.815544 311.253118 
L 94.796646 311.141626 
L 94.777918 311.030134 
L 94.759359 310.918642 
L 94.740967 310.80715 
L 94.72274 310.695658 
L 94.704678 310.584166 
L 94.704678 310.584166 
L 94.704678 203.890521 
z
" clip-path="url(#p329b6e555f)" style="fill: #ff7f0e; fill-opacity: 0.5"/>
     </g>
     <g id="patch_5">
      <path d="M 551.042831 72.964375 
L 551.042831 321.621875 
M 579.040483 72.964375 
L 579.040483 321.621875 
" clip-path="url(#p329b6e555f)" style="fill: none; stroke: #ffffff; stroke-width: 3; stroke-linejoin: miter"/>
      <path d="M 551.042831 72.964375 
L 551.042831 321.621875 
M 579.040483 72.964375 
L 579.040483 321.621875 
" clip-path="url(#p329b6e555f)" style="fill: none; stroke: #2ca02c; stroke-linejoin: miter"/>
      <g id="PolyCollection_3">
       <path d="M 579.040483 72.964375 
L 551.042831 72.964375 
L 551.042831 321.621875 
L 579.040483 321.621875 
L 579.040483 321.621875 
L 579.040483 72.964375 
z
" clip-path="url(#p329b6e555f)" style="fill: #2ca02c; fill-opacity: 0.5"/>
      </g>
      <g id="patch_6">
       <path d="M 425.35979 234.934865 
L 425.35979 237.243323 
L 428.753283 237.243323 
L 428.753283 238.340787 
L 425.35979 238.340787 
L 425.35979 303.280357 
L 425.35979 303.280357 
L 424.146802 304.7625 
L 422.622884 306.244643 
L 420.972214 307.541518 
L 418.956738 308.838393 
L 416.495834 310.135268 
L 413.49106 311.432143 
L 409.822218 312.729018 
L 406.038542 313.840625 
L 401.548576 314.952232 
L 396.220481 316.063839 
L 389.897804 317.175446 
L 382.394889 318.287054 
L 373.491425 319.398661 
L 362.925975 320.510268 
L 350.388301 321.621875 
M 434.823885 234.934865 
L 434.823885 237.243323 
L 431.430392 237.243323 
L 431.430392 238.340787 
L 434.823885 238.340787 
L 434.823885 303.280357 
L 434.823885 303.280357 
L 436.036873 304.7625 
L 437.560791 306.244643 
L 439.211462 307.541518 
L 441.226937 308.838393 
L 443.687841 310.135268 
L 446.692615 311.432143 
L 450.361457 312.729018 
L 454.145134 313.840625 
L 458.635099 314.952232 
L 463.963195 316.063839 
L 470.285872 317.175446 
L 477.788786 318.287054 
L 486.69225 319.398661 
L 497.2577 320.510268 
L 509.795375 321.621875 
L 509.795375 321.621875 
" clip-path="url(#p329b6e555f)" style="fill: none; stroke: #ffffff; stroke-width: 3; stroke-linejoin: miter"/>
       <path d="M 425.35979 234.934865 
L 425.35979 237.243323 
L 428.753283 237.243323 
L 428.753283 238.340787 
L 425.35979 238.340787 
L 425.35979 303.280357 
L 425.35979 303.280357 
L 424.146802 304.7625 
L 422.622884 306.244643 
L 420.972214 307.541518 
L 418.956738 308.838393 
L 416.495834 310.135268 
L 413.49106 311.432143 
L 409.822218 312.729018 
L 406.038542 313.840625 
L 401.548576 314.952232 
L 396.220481 316.063839 
L 389.897804 317.175446 
L 382.394889 318.287054 
L 373.491425 319.398661 
L 362.925975 320.510268 
L 350.388301 321.621875 
M 434.823885 234.934865 
L 434.823885 237.243323 
L 431.430392 237.243323 
L 431.430392 238.340787 
L 434.823885 238.340787 
L 434.823885 303.280357 
L 434.823885 303.280357 
L 436.036873 304.7625 
L 437.560791 306.244643 
L 439.211462 307.541518 
L 441.226937 308.838393 
L 443.687841 310.135268 
L 446.692615 311.432143 
L 450.361457 312.729018 
L 454.145134 313.840625 
L 458.635099 314.952232 
L 463.963195 316.063839 
L 470.285872 317.175446 
L 477.788786 318.287054 
L 486.69225 319.398661 
L 497.2577 320.510268 
L 509.795375 321.621875 
L 509.795375 321.621875 
" clip-path="url(#p329b6e555f)" style="fill: none; stroke: #d62728; stroke-linejoin: miter"/>
       <g id="PolyCollection_4">
        <path d="M 434.823885 234.934865 
L 425.35979 234.934865 
L 425.35979 237.243323 
L 428.753283 237.243323 
L 428.753283 238.340787 
L 425.35979 238.340787 
L 425.35979 303.280357 
L 425.35979 303.280357 
L 425.222866 303.465625 
L 425.08198 303.650893 
L 424.937017 303.83616 
L 424.787859 304.021428 
L 424.634386 304.206696 
L 424.476471 304.391964 
L 424.313988 304.577232 
L 424.146802 304.7625 
L 423.97478 304.947768 
L 423.797779 305.133035 
L 423.615657 305.318303 
L 423.428266 305.503571 
L 423.235452 305.688839 
L 423.037058 305.874107 
L 422.832925 306.059375 
L 422.622884 306.244643 
L 422.406766 306.429911 
L 422.184394 306.615178 
L 421.955588 306.800446 
L 421.720161 306.985714 
L 421.477922 307.170982 
L 421.228674 307.35625 
L 420.972214 307.541518 
L 420.708333 307.726786 
L 420.436816 307.912053 
L 420.157443 308.097321 
L 419.869985 308.282589 
L 419.574211 308.467857 
L 419.269878 308.653125 
L 418.956738 308.838393 
L 418.634538 309.023661 
L 418.303015 309.208928 
L 417.961899 309.394196 
L 417.610913 309.579464 
L 417.249771 309.764732 
L 416.878179 309.95 
L 416.495834 310.135268 
L 416.102427 310.320536 
L 415.697636 310.505803 
L 415.281132 310.691071 
L 414.852576 310.876339 
L 414.41162 311.061607 
L 413.957904 311.246875 
L 413.49106 311.432143 
L 413.010708 311.617411 
L 412.516456 311.802678 
L 412.007903 311.987946 
L 411.484635 312.173214 
L 410.946225 312.358482 
L 410.392237 312.54375 
L 409.822218 312.729018 
L 409.235706 312.914286 
L 408.632222 313.099553 
L 408.011277 313.284821 
L 407.372364 313.470089 
L 406.714964 313.655357 
L 406.038542 313.840625 
L 405.342547 314.025893 
L 404.626413 314.211161 
L 403.889557 314.396428 
L 403.13138 314.581696 
L 402.351265 314.766964 
L 401.548576 314.952232 
L 400.722662 315.1375 
L 399.872849 315.322768 
L 398.998446 315.508036 
L 398.098742 315.693303 
L 397.173005 315.878571 
L 396.220481 316.063839 
L 395.240395 316.249107 
L 394.23195 316.434375 
L 393.194325 316.619643 
L 392.126675 316.804911 
L 391.028133 316.990179 
L 389.897804 317.175446 
L 388.734768 317.360714 
L 387.538079 317.545982 
L 386.306763 317.73125 
L 385.039818 317.916518 
L 383.736214 318.101786 
L 382.394889 318.287054 
L 381.014752 318.472321 
L 379.594681 318.657589 
L 378.133518 318.842857 
L 376.630076 319.028125 
L 375.083132 319.213393 
L 373.491425 319.398661 
L 371.853662 319.583929 
L 370.168509 319.769196 
L 368.434595 319.954464 
L 366.65051 320.139732 
L 364.814801 320.325 
L 362.925975 320.510268 
L 360.982495 320.695536 
L 358.982779 320.880804 
L 356.9252 321.066071 
L 354.808085 321.251339 
L 352.629709 321.436607 
L 350.388301 321.621875 
L 509.795375 321.621875 
L 509.795375 321.621875 
L 507.553967 321.436607 
L 505.375591 321.251339 
L 503.258475 321.066071 
L 501.200896 320.880804 
L 499.20118 320.695536 
L 497.2577 320.510268 
L 495.368874 320.325 
L 493.533165 320.139732 
L 491.74908 319.954464 
L 490.015166 319.769196 
L 488.330014 319.583929 
L 486.69225 319.398661 
L 485.100544 319.213393 
L 483.553599 319.028125 
L 482.050157 318.842857 
L 480.588995 318.657589 
L 479.168923 318.472321 
L 477.788786 318.287054 
L 476.447462 318.101786 
L 475.143857 317.916518 
L 473.876913 317.73125 
L 472.645597 317.545982 
L 471.448908 317.360714 
L 470.285872 317.175446 
L 469.155543 316.990179 
L 468.057 316.804911 
L 466.989351 316.619643 
L 465.951726 316.434375 
L 464.943281 316.249107 
L 463.963195 316.063839 
L 463.010671 315.878571 
L 462.084933 315.693303 
L 461.185229 315.508036 
L 460.310827 315.322768 
L 459.461014 315.1375 
L 458.635099 314.952232 
L 457.832411 314.766964 
L 457.052296 314.581696 
L 456.294119 314.396428 
L 455.557263 314.211161 
L 454.841129 314.025893 
L 454.145134 313.840625 
L 453.468711 313.655357 
L 452.811311 313.470089 
L 452.172398 313.284821 
L 451.551453 313.099553 
L 450.94797 312.914286 
L 450.361457 312.729018 
L 449.791439 312.54375 
L 449.23745 312.358482 
L 448.699041 312.173214 
L 448.175772 311.987946 
L 447.667219 311.802678 
L 447.172968 311.617411 
L 446.692615 311.432143 
L 446.225771 311.246875 
L 445.772056 311.061607 
L 445.3311 310.876339 
L 444.902544 310.691071 
L 444.48604 310.505803 
L 444.081249 310.320536 
L 443.687841 310.135268 
L 443.305497 309.95 
L 442.933905 309.764732 
L 442.572763 309.579464 
L 442.221776 309.394196 
L 441.88066 309.208928 
L 441.549137 309.023661 
L 441.226937 308.838393 
L 440.913798 308.653125 
L 440.609465 308.467857 
L 440.31369 308.282589 
L 440.026233 308.097321 
L 439.74686 307.912053 
L 439.475343 307.726786 
L 439.211462 307.541518 
L 438.955001 307.35625 
L 438.705753 307.170982 
L 438.463514 306.985714 
L 438.228087 306.800446 
L 437.999281 306.615178 
L 437.77691 306.429911 
L 437.560791 306.244643 
L 437.350751 306.059375 
L 437.146617 305.874107 
L 436.948224 305.688839 
L 436.75541 305.503571 
L 436.568018 305.318303 
L 436.385896 305.133035 
L 436.208896 304.947768 
L 436.036873 304.7625 
L 435.869688 304.577232 
L 435.707204 304.391964 
L 435.54929 304.206696 
L 435.395816 304.021428 
L 435.246659 303.83616 
L 435.101696 303.650893 
L 434.96081 303.465625 
L 434.823885 303.280357 
L 434.823885 303.280357 
L 434.823885 238.340787 
L 431.430392 238.340787 
L 431.430392 237.243323 
L 434.823885 237.243323 
L 434.823885 234.934865 
z
" clip-path="url(#p329b6e555f)" style="fill: #d62728; fill-opacity: 0.5"/>
       </g>
       <g id="matplotlib.axis_1">
        <g id="xtick_1">
         <g id="line2d_1"/>
         <g id="text_1">
          <!-- OUT -->
          <g transform="translate(82.068071 332.720312) scale(0.1 -0.1)">
           <defs>
            <path id="DejaVuSans-4f" d="M 2522 4238 
Q 1834 4238 1429 3725 
Q 1025 3213 1025 2328 
Q 1025 1447 1429 934 
Q 1834 422 2522 422 
Q 3209 422 3611 934 
Q 4013 1447 4013 2328 
Q 4013 3213 3611 3725 
Q 3209 4238 2522 4238 
z
M 2522 4750 
Q 3503 4750 4090 4092 
Q 4678 3434 4678 2328 
Q 4678 1225 4090 567 
Q 3503 -91 2522 -91 
Q 1538 -91 948 565 
Q 359 1222 359 2328 
Q 359 3434 948 4092 
Q 1538 4750 2522 4750 
z
" transform="scale(0.015625)"/>
            <path id="DejaVuSans-55" d="M 556 4666 
L 1191 4666 
L 1191 1831 
Q 1191 1081 1462 751 
Q 1734 422 2344 422 
Q 2950 422 3222 751 
Q 3494 1081 3494 1831 
L 3494 4666 
L 4128 4666 
L 4128 1753 
Q 4128 841 3676 375 
Q 3225 -91 2344 -91 
Q 1459 -91 1007 375 
Q 556 841 556 1753 
L 556 4666 
z
" transform="scale(0.015625)"/>
            <path id="DejaVuSans-54" d="M -19 4666 
L 3928 4666 
L 3928 4134 
L 2272 4134 
L 2272 0 
L 1638 0 
L 1638 4134 
L -19 4134 
L -19 4666 
z
" transform="scale(0.015625)"/>
           </defs>
           <use xlink:href="#DejaVuSans-4f"/>
           <use xlink:href="#DejaVuSans-55" x="78.710938"/>
           <use xlink:href="#DejaVuSans-54" x="151.904297"/>
          </g>
         </g>
        </g>
        <g id="xtick_2">
         <g id="line2d_2"/>
         <g id="text_2">
          <!-- SRC -->
          <g transform="translate(555.151813 332.720312) scale(0.1 -0.1)">
           <defs>
            <path id="DejaVuSans-53" d="M 3425 4513 
L 3425 3897 
Q 3066 4069 2747 4153 
Q 2428 4238 2131 4238 
Q 1616 4238 1336 4038 
Q 1056 3838 1056 3469 
Q 1056 3159 1242 3001 
Q 1428 2844 1947 2747 
L 2328 2669 
Q 3034 2534 3370 2195 
Q 3706 1856 3706 1288 
Q 3706 609 3251 259 
Q 2797 -91 1919 -91 
Q 1588 -91 1214 -16 
Q 841 59 441 206 
L 441 856 
Q 825 641 1194 531 
Q 1563 422 1919 422 
Q 2459 422 2753 634 
Q 3047 847 3047 1241 
Q 3047 1584 2836 1778 
Q 2625 1972 2144 2069 
L 1759 2144 
Q 1053 2284 737 2584 
Q 422 2884 422 3419 
Q 422 4038 858 4394 
Q 1294 4750 2059 4750 
Q 2388 4750 2728 4690 
Q 3069 4631 3425 4513 
z
" transform="scale(0.015625)"/>
            <path id="DejaVuSans-52" d="M 2841 2188 
Q 3044 2119 3236 1894 
Q 3428 1669 3622 1275 
L 4263 0 
L 3584 0 
L 2988 1197 
Q 2756 1666 2539 1819 
Q 2322 1972 1947 1972 
L 1259 1972 
L 1259 0 
L 628 0 
L 628 4666 
L 2053 4666 
Q 2853 4666 3247 4331 
Q 3641 3997 3641 3322 
Q 3641 2881 3436 2590 
Q 3231 2300 2841 2188 
z
M 1259 4147 
L 1259 2491 
L 2053 2491 
Q 2509 2491 2742 2702 
Q 2975 2913 2975 3322 
Q 2975 3731 2742 3939 
Q 2509 4147 2053 4147 
L 1259 4147 
z
" transform="scale(0.015625)"/>
            <path id="DejaVuSans-43" d="M 4122 4306 
L 4122 3641 
Q 3803 3938 3442 4084 
Q 3081 4231 2675 4231 
Q 1875 4231 1450 3742 
Q 1025 3253 1025 2328 
Q 1025 1406 1450 917 
Q 1875 428 2675 428 
Q 3081 428 3442 575 
Q 3803 722 4122 1019 
L 4122 359 
Q 3791 134 3420 21 
Q 3050 -91 2638 -91 
Q 1578 -91 968 557 
Q 359 1206 359 2328 
Q 359 3453 968 4101 
Q 1578 4750 2638 4750 
Q 3056 4750 3426 4639 
Q 3797 4528 4122 4306 
z
" transform="scale(0.015625)"/>
           </defs>
           <use xlink:href="#DejaVuSans-53"/>
           <use xlink:href="#DejaVuSans-52" x="63.476562"/>
           <use xlink:href="#DejaVuSans-43" x="127.958984"/>
          </g>
         </g>
        </g>
        <g id="xtick_3">
         <g id="line2d_3"/>
         <g id="text_3">
          <!-- TAR -->
          <g transform="translate(420.5309 332.720312) scale(0.1 -0.1)">
           <defs>
            <path id="DejaVuSans-41" d="M 2188 4044 
L 1331 1722 
L 3047 1722 
L 2188 4044 
z
M 1831 4666 
L 2547 4666 
L 4325 0 
L 3669 0 
L 3244 1197 
L 1141 1197 
L 716 0 
L 50 0 
L 1831 4666 
z
" transform="scale(0.015625)"/>
           </defs>
           <use xlink:href="#DejaVuSans-54"/>
           <use xlink:href="#DejaVuSans-41" x="53.333984"/>
           <use xlink:href="#DejaVuSans-52" x="121.742188"/>
          </g>
         </g>
        </g>
       </g>
       <g id="matplotlib.axis_2">
        <g id="ytick_1">
         <g id="line2d_4">
          <defs>
           <path id="m56e3bb788b" d="M 0 0 
L -3.5 0 
" style="stroke: #000000; stroke-width: 0.8"/>
          </defs>
          <g>
           <use xlink:href="#m56e3bb788b" x="63.290625" y="321.621875" style="stroke: #000000; stroke-width: 0.8"/>
          </g>
         </g>
         <g id="text_4">
          <!-- 0 -->
          <g transform="translate(49.928125 325.421094) scale(0.1 -0.1)">
           <defs>
            <path id="DejaVuSans-30" d="M 2034 4250 
Q 1547 4250 1301 3770 
Q 1056 3291 1056 2328 
Q 1056 1369 1301 889 
Q 1547 409 2034 409 
Q 2525 409 2770 889 
Q 3016 1369 3016 2328 
Q 3016 3291 2770 3770 
Q 2525 4250 2034 4250 
z
M 2034 4750 
Q 2819 4750 3233 4129 
Q 3647 3509 3647 2328 
Q 3647 1150 3233 529 
Q 2819 -91 2034 -91 
Q 1250 -91 836 529 
Q 422 1150 422 2328 
Q 422 3509 836 4129 
Q 1250 4750 2034 4750 
z
" transform="scale(0.015625)"/>
           </defs>
           <use xlink:href="#DejaVuSans-30"/>
          </g>
         </g>
        </g>
        <g id="ytick_2">
         <g id="line2d_5">
          <g>
           <use xlink:href="#m56e3bb788b" x="63.290625" y="258.549254" style="stroke: #000000; stroke-width: 0.8"/>
          </g>
         </g>
         <g id="text_5">
          <!-- 5000 -->
          <g transform="translate(30.840625 262.348473) scale(0.1 -0.1)">
           <defs>
            <path id="DejaVuSans-35" d="M 691 4666 
L 3169 4666 
L 3169 4134 
L 1269 4134 
L 1269 2991 
Q 1406 3038 1543 3061 
Q 1681 3084 1819 3084 
Q 2600 3084 3056 2656 
Q 3513 2228 3513 1497 
Q 3513 744 3044 326 
Q 2575 -91 1722 -91 
Q 1428 -91 1123 -41 
Q 819 9 494 109 
L 494 744 
Q 775 591 1075 516 
Q 1375 441 1709 441 
Q 2250 441 2565 725 
Q 2881 1009 2881 1497 
Q 2881 1984 2565 2268 
Q 2250 2553 1709 2553 
Q 1456 2553 1204 2497 
Q 953 2441 691 2322 
L 691 4666 
z
" transform="scale(0.015625)"/>
           </defs>
           <use xlink:href="#DejaVuSans-35"/>
           <use xlink:href="#DejaVuSans-30" x="63.623047"/>
           <use xlink:href="#DejaVuSans-30" x="127.246094"/>
           <use xlink:href="#DejaVuSans-30" x="190.869141"/>
          </g>
         </g>
        </g>
        <g id="ytick_3">
         <g id="line2d_6">
          <g>
           <use xlink:href="#m56e3bb788b" x="63.290625" y="195.476634" style="stroke: #000000; stroke-width: 0.8"/>
          </g>
         </g>
         <g id="text_6">
          <!-- 10000 -->
          <g transform="translate(24.478125 199.275852) scale(0.1 -0.1)">
           <defs>
            <path id="DejaVuSans-31" d="M 794 531 
L 1825 531 
L 1825 4091 
L 703 3866 
L 703 4441 
L 1819 4666 
L 2450 4666 
L 2450 531 
L 3481 531 
L 3481 0 
L 794 0 
L 794 531 
z
" transform="scale(0.015625)"/>
           </defs>
           <use xlink:href="#DejaVuSans-31"/>
           <use xlink:href="#DejaVuSans-30" x="63.623047"/>
           <use xlink:href="#DejaVuSans-30" x="127.246094"/>
           <use xlink:href="#DejaVuSans-30" x="190.869141"/>
           <use xlink:href="#DejaVuSans-30" x="254.492188"/>
          </g>
         </g>
        </g>
        <g id="ytick_4">
         <g id="line2d_7">
          <g>
           <use xlink:href="#m56e3bb788b" x="63.290625" y="132.404013" style="stroke: #000000; stroke-width: 0.8"/>
          </g>
         </g>
         <g id="text_7">
          <!-- 15000 -->
          <g transform="translate(24.478125 136.203232) scale(0.1 -0.1)">
           <use xlink:href="#DejaVuSans-31"/>
           <use xlink:href="#DejaVuSans-35" x="63.623047"/>
           <use xlink:href="#DejaVuSans-30" x="127.246094"/>
           <use xlink:href="#DejaVuSans-30" x="190.869141"/>
           <use xlink:href="#DejaVuSans-30" x="254.492188"/>
          </g>
         </g>
        </g>
        <g id="ytick_5">
         <g id="line2d_8">
          <g>
           <use xlink:href="#m56e3bb788b" x="63.290625" y="69.331392" style="stroke: #000000; stroke-width: 0.8"/>
          </g>
         </g>
         <g id="text_8">
          <!-- 20000 -->
          <g transform="translate(24.478125 73.130611) scale(0.1 -0.1)">
           <defs>
            <path id="DejaVuSans-32" d="M 1228 531 
L 3431 531 
L 3431 0 
L 469 0 
L 469 531 
Q 828 903 1448 1529 
Q 2069 2156 2228 2338 
Q 2531 2678 2651 2914 
Q 2772 3150 2772 3378 
Q 2772 3750 2511 3984 
Q 2250 4219 1831 4219 
Q 1534 4219 1204 4116 
Q 875 4013 500 3803 
L 500 4441 
Q 881 4594 1212 4672 
Q 1544 4750 1819 4750 
Q 2544 4750 2975 4387 
Q 3406 4025 3406 3419 
Q 3406 3131 3298 2873 
Q 3191 2616 2906 2266 
Q 2828 2175 2409 1742 
Q 1991 1309 1228 531 
z
" transform="scale(0.015625)"/>
           </defs>
           <use xlink:href="#DejaVuSans-32"/>
           <use xlink:href="#DejaVuSans-30" x="63.623047"/>
           <use xlink:href="#DejaVuSans-30" x="127.246094"/>
           <use xlink:href="#DejaVuSans-30" x="190.869141"/>
           <use xlink:href="#DejaVuSans-30" x="254.492188"/>
          </g>
         </g>
        </g>
        <g id="text_9">
         <!-- time ago (generations) -->
         <g transform="translate(18.398438 223.682031) rotate(-90) scale(0.1 -0.1)">
          <defs>
           <path id="DejaVuSans-74" d="M 1172 4494 
L 1172 3500 
L 2356 3500 
L 2356 3053 
L 1172 3053 
L 1172 1153 
Q 1172 725 1289 603 
Q 1406 481 1766 481 
L 2356 481 
L 2356 0 
L 1766 0 
Q 1100 0 847 248 
Q 594 497 594 1153 
L 594 3053 
L 172 3053 
L 172 3500 
L 594 3500 
L 594 4494 
L 1172 4494 
z
" transform="scale(0.015625)"/>
           <path id="DejaVuSans-69" d="M 603 3500 
L 1178 3500 
L 1178 0 
L 603 0 
L 603 3500 
z
M 603 4863 
L 1178 4863 
L 1178 4134 
L 603 4134 
L 603 4863 
z
" transform="scale(0.015625)"/>
           <path id="DejaVuSans-6d" d="M 3328 2828 
Q 3544 3216 3844 3400 
Q 4144 3584 4550 3584 
Q 5097 3584 5394 3201 
Q 5691 2819 5691 2113 
L 5691 0 
L 5113 0 
L 5113 2094 
Q 5113 2597 4934 2840 
Q 4756 3084 4391 3084 
Q 3944 3084 3684 2787 
Q 3425 2491 3425 1978 
L 3425 0 
L 2847 0 
L 2847 2094 
Q 2847 2600 2669 2842 
Q 2491 3084 2119 3084 
Q 1678 3084 1418 2786 
Q 1159 2488 1159 1978 
L 1159 0 
L 581 0 
L 581 3500 
L 1159 3500 
L 1159 2956 
Q 1356 3278 1631 3431 
Q 1906 3584 2284 3584 
Q 2666 3584 2933 3390 
Q 3200 3197 3328 2828 
z
" transform="scale(0.015625)"/>
           <path id="DejaVuSans-65" d="M 3597 1894 
L 3597 1613 
L 953 1613 
Q 991 1019 1311 708 
Q 1631 397 2203 397 
Q 2534 397 2845 478 
Q 3156 559 3463 722 
L 3463 178 
Q 3153 47 2828 -22 
Q 2503 -91 2169 -91 
Q 1331 -91 842 396 
Q 353 884 353 1716 
Q 353 2575 817 3079 
Q 1281 3584 2069 3584 
Q 2775 3584 3186 3129 
Q 3597 2675 3597 1894 
z
M 3022 2063 
Q 3016 2534 2758 2815 
Q 2500 3097 2075 3097 
Q 1594 3097 1305 2825 
Q 1016 2553 972 2059 
L 3022 2063 
z
" transform="scale(0.015625)"/>
           <path id="DejaVuSans-20" transform="scale(0.015625)"/>
           <path id="DejaVuSans-61" d="M 2194 1759 
Q 1497 1759 1228 1600 
Q 959 1441 959 1056 
Q 959 750 1161 570 
Q 1363 391 1709 391 
Q 2188 391 2477 730 
Q 2766 1069 2766 1631 
L 2766 1759 
L 2194 1759 
z
M 3341 1997 
L 3341 0 
L 2766 0 
L 2766 531 
Q 2569 213 2275 61 
Q 1981 -91 1556 -91 
Q 1019 -91 701 211 
Q 384 513 384 1019 
Q 384 1609 779 1909 
Q 1175 2209 1959 2209 
L 2766 2209 
L 2766 2266 
Q 2766 2663 2505 2880 
Q 2244 3097 1772 3097 
Q 1472 3097 1187 3025 
Q 903 2953 641 2809 
L 641 3341 
Q 956 3463 1253 3523 
Q 1550 3584 1831 3584 
Q 2591 3584 2966 3190 
Q 3341 2797 3341 1997 
z
" transform="scale(0.015625)"/>
           <path id="DejaVuSans-67" d="M 2906 1791 
Q 2906 2416 2648 2759 
Q 2391 3103 1925 3103 
Q 1463 3103 1205 2759 
Q 947 2416 947 1791 
Q 947 1169 1205 825 
Q 1463 481 1925 481 
Q 2391 481 2648 825 
Q 2906 1169 2906 1791 
z
M 3481 434 
Q 3481 -459 3084 -895 
Q 2688 -1331 1869 -1331 
Q 1566 -1331 1297 -1286 
Q 1028 -1241 775 -1147 
L 775 -588 
Q 1028 -725 1275 -790 
Q 1522 -856 1778 -856 
Q 2344 -856 2625 -561 
Q 2906 -266 2906 331 
L 2906 616 
Q 2728 306 2450 153 
Q 2172 0 1784 0 
Q 1141 0 747 490 
Q 353 981 353 1791 
Q 353 2603 747 3093 
Q 1141 3584 1784 3584 
Q 2172 3584 2450 3431 
Q 2728 3278 2906 2969 
L 2906 3500 
L 3481 3500 
L 3481 434 
z
" transform="scale(0.015625)"/>
           <path id="DejaVuSans-6f" d="M 1959 3097 
Q 1497 3097 1228 2736 
Q 959 2375 959 1747 
Q 959 1119 1226 758 
Q 1494 397 1959 397 
Q 2419 397 2687 759 
Q 2956 1122 2956 1747 
Q 2956 2369 2687 2733 
Q 2419 3097 1959 3097 
z
M 1959 3584 
Q 2709 3584 3137 3096 
Q 3566 2609 3566 1747 
Q 3566 888 3137 398 
Q 2709 -91 1959 -91 
Q 1206 -91 779 398 
Q 353 888 353 1747 
Q 353 2609 779 3096 
Q 1206 3584 1959 3584 
z
" transform="scale(0.015625)"/>
           <path id="DejaVuSans-28" d="M 1984 4856 
Q 1566 4138 1362 3434 
Q 1159 2731 1159 2009 
Q 1159 1288 1364 580 
Q 1569 -128 1984 -844 
L 1484 -844 
Q 1016 -109 783 600 
Q 550 1309 550 2009 
Q 550 2706 781 3412 
Q 1013 4119 1484 4856 
L 1984 4856 
z
" transform="scale(0.015625)"/>
           <path id="DejaVuSans-6e" d="M 3513 2113 
L 3513 0 
L 2938 0 
L 2938 2094 
Q 2938 2591 2744 2837 
Q 2550 3084 2163 3084 
Q 1697 3084 1428 2787 
Q 1159 2491 1159 1978 
L 1159 0 
L 581 0 
L 581 3500 
L 1159 3500 
L 1159 2956 
Q 1366 3272 1645 3428 
Q 1925 3584 2291 3584 
Q 2894 3584 3203 3211 
Q 3513 2838 3513 2113 
z
" transform="scale(0.015625)"/>
           <path id="DejaVuSans-72" d="M 2631 2963 
Q 2534 3019 2420 3045 
Q 2306 3072 2169 3072 
Q 1681 3072 1420 2755 
Q 1159 2438 1159 1844 
L 1159 0 
L 581 0 
L 581 3500 
L 1159 3500 
L 1159 2956 
Q 1341 3275 1631 3429 
Q 1922 3584 2338 3584 
Q 2397 3584 2469 3576 
Q 2541 3569 2628 3553 
L 2631 2963 
z
" transform="scale(0.015625)"/>
           <path id="DejaVuSans-73" d="M 2834 3397 
L 2834 2853 
Q 2591 2978 2328 3040 
Q 2066 3103 1784 3103 
Q 1356 3103 1142 2972 
Q 928 2841 928 2578 
Q 928 2378 1081 2264 
Q 1234 2150 1697 2047 
L 1894 2003 
Q 2506 1872 2764 1633 
Q 3022 1394 3022 966 
Q 3022 478 2636 193 
Q 2250 -91 1575 -91 
Q 1294 -91 989 -36 
Q 684 19 347 128 
L 347 722 
Q 666 556 975 473 
Q 1284 391 1588 391 
Q 1994 391 2212 530 
Q 2431 669 2431 922 
Q 2431 1156 2273 1281 
Q 2116 1406 1581 1522 
L 1381 1569 
Q 847 1681 609 1914 
Q 372 2147 372 2553 
Q 372 3047 722 3315 
Q 1072 3584 1716 3584 
Q 2034 3584 2315 3537 
Q 2597 3491 2834 3397 
z
" transform="scale(0.015625)"/>
           <path id="DejaVuSans-29" d="M 513 4856 
L 1013 4856 
Q 1481 4119 1714 3412 
Q 1947 2706 1947 2009 
Q 1947 1309 1714 600 
Q 1481 -109 1013 -844 
L 513 -844 
Q 928 -128 1133 580 
Q 1338 1288 1338 2009 
Q 1338 2731 1133 3434 
Q 928 4138 513 4856 
z
" transform="scale(0.015625)"/>
          </defs>
          <use xlink:href="#DejaVuSans-74"/>
          <use xlink:href="#DejaVuSans-69" x="39.208984"/>
          <use xlink:href="#DejaVuSans-6d" x="66.992188"/>
          <use xlink:href="#DejaVuSans-65" x="164.404297"/>
          <use xlink:href="#DejaVuSans-20" x="225.927734"/>
          <use xlink:href="#DejaVuSans-61" x="257.714844"/>
          <use xlink:href="#DejaVuSans-67" x="318.994141"/>
          <use xlink:href="#DejaVuSans-6f" x="382.470703"/>
          <use xlink:href="#DejaVuSans-20" x="443.652344"/>
          <use xlink:href="#DejaVuSans-28" x="475.439453"/>
          <use xlink:href="#DejaVuSans-67" x="514.453125"/>
          <use xlink:href="#DejaVuSans-65" x="577.929688"/>
          <use xlink:href="#DejaVuSans-6e" x="639.453125"/>
          <use xlink:href="#DejaVuSans-65" x="702.832031"/>
          <use xlink:href="#DejaVuSans-72" x="764.355469"/>
          <use xlink:href="#DejaVuSans-61" x="805.46875"/>
          <use xlink:href="#DejaVuSans-74" x="866.748047"/>
          <use xlink:href="#DejaVuSans-69" x="905.957031"/>
          <use xlink:href="#DejaVuSans-6f" x="933.740234"/>
          <use xlink:href="#DejaVuSans-6e" x="994.921875"/>
          <use xlink:href="#DejaVuSans-73" x="1058.300781"/>
          <use xlink:href="#DejaVuSans-29" x="1110.400391"/>
         </g>
        </g>
       </g>
       <g id="patch_7">
        <path d="M 264.065057 203.890521 
L 263.065057 203.859085 
L 262.065057 203.822144 
L 261.065057 203.724398 
L 260.065057 203.691876 
L 259.065057 203.618252 
L 258.065057 203.579686 
L 257.065057 203.544273 
L 256.065057 203.486633 
L 255.065057 203.416247 
L 254.065057 203.364282 
L 253.065057 203.305193 
L 252.065057 203.216872 
L 251.065057 203.170727 
L 250.065057 203.128317 
L 249.065057 203.097824 
L 248.065057 203.071779 
L 247.065057 203.050579 
L 246.065057 202.996278 
L 245.065057 202.96834 
L 244.065057 202.938616 
L 243.065057 202.913221 
L 242.065057 202.902021 
L 241.065057 202.891897 
L 240.065057 202.892101 
L 239.065057 202.901611 
L 238.065057 202.913265 
L 237.065057 202.944294 
L 236.065057 202.955462 
L 235.065057 202.98558 
L 234.065057 203.045356 
L 233.065057 203.082548 
L 232.065057 203.121644 
L 231.065057 203.164084 
L 230.065057 203.196849 
L 229.065057 203.264275 
L 228.065057 203.303401 
L 227.065057 203.346076 
L 226.065057 203.416656 
L 225.065057 203.453047 
L 224.065057 203.51145 
L 223.065057 203.622403 
L 222.065057 203.693061 
L 221.065057 203.806001 
L 220.065057 203.851774 
L 219.065057 203.913057 
L 218.065057 203.961557 
L 217.065057 204.042379 
L 216.065057 204.160898 
L 215.065057 204.231109 
L 214.065057 204.314371 
L 213.065057 204.347513 
L 212.065057 204.39875 
L 211.065057 204.467149 
L 210.065057 204.533364 
L 209.065057 204.610281 
L 208.065057 204.637597 
L 207.065057 204.664074 
L 206.065057 204.686725 
L 205.065057 204.706256 
L 204.065057 204.73265 
L 203.065057 204.782421 
L 202.065057 204.817494 
L 201.065057 204.85336 
L 200.065057 204.868727 
L 199.065057 204.884496 
L 198.065057 204.887909 
L 197.065057 204.890327 
L 196.065057 204.88984 
L 195.065057 204.887911 
L 194.065057 204.874654 
L 193.065057 204.866264 
L 192.065057 204.844727 
L 191.065057 204.821694 
L 190.065057 204.804461 
L 189.065057 204.785998 
L 188.065057 204.765546 
L 187.065057 204.748946 
L 186.065057 204.686167 
L 185.065057 204.610902 
L 184.065057 204.578263 
L 183.065057 204.5107 
L 182.065057 204.456652 
L 181.065057 204.422948 
L 180.065057 204.332822 
L 179.065057 204.304287 
L 178.065057 204.272801 
L 177.065057 204.24179 
L 176.065057 204.186982 
L 175.065057 204.122395 
L 174.065057 204.0842 
L 173.065057 203.988265 
L 172.065057 203.939007 
L 171.065057 203.894938 
L 170.065057 203.854814 
L 169.065057 203.746447 
L 168.065057 203.704819 
L 167.065057 203.642678 
L 166.065057 203.572715 
L 165.065057 203.468211 
L 164.065057 203.431223 
L 163.065057 203.385346 
L 162.065057 203.316852 
L 161.065057 203.268106 
L 160.065057 203.190508 
L 159.065057 203.159967 
L 158.065057 203.090453 
L 157.065057 203.06648 
L 156.065057 203.037858 
L 155.065057 202.996065 
L 154.065057 202.974489 
L 153.065057 202.960541 
L 152.065057 202.933819 
L 151.065057 202.924509 
L 150.065057 202.912062 
L 149.065057 202.901008 
L 148.065057 202.895343 
L 147.065057 202.890579 
L 146.065057 202.896127 
L 145.065057 202.909415 
L 144.065057 202.916932 
L 143.065057 202.941717 
L 142.065057 202.965286 
L 141.065057 203.001467 
L 140.065057 203.027428 
L 139.065057 203.04975 
L 138.065057 203.11851 
L 137.065057 203.193045 
L 136.065057 203.287024 
L 135.065057 203.338076 
L 134.065057 203.39201 
L 133.065057 203.427261 
L 132.065057 203.533349 
L 131.065057 203.585613 
L 130.065057 203.62252 
L 129.065057 203.653551 
L 128.065057 203.714706 
L 127.065057 203.782126 
L 126.065057 203.831032 
L 125.065057 203.896224 
L 124.065057 203.934412 
L 123.065057 203.976408 
L 122.065057 204.018425 
L 121.065057 204.077942 
L 120.065057 204.191101 
L 119.065057 204.243352 
L 118.065057 204.28277 
L 117.065057 204.329871 
L 116.065057 204.386651 
L 115.065057 204.419314 
L 114.065057 204.455492 
L 113.065057 204.487583 
L 112.065057 204.521862 
L 111.065057 204.58024 
L 110.065057 204.625425 
L 109.065057 204.655049 
L 108.065057 204.705435 
L 107.065057 204.730633 
L 106.065057 204.751683 
L 105.065057 204.786651 
L 104.065057 204.810941 
L 103.065057 204.825008 
L 102.065057 204.84395 
L 101.065057 204.859612 
L 100.065057 204.872163 
L 99.065057 204.877999 
L 97.820325 204.884882 
" clip-path="url(#p329b6e555f)" style="fill: none; stroke: #ffffff; stroke-width: 3; stroke-linecap: round"/>
        <path d="M 264.065057 203.890521 
L 263.065057 203.859085 
L 262.065057 203.822144 
L 261.065057 203.724398 
L 260.065057 203.691876 
L 259.065057 203.618252 
L 258.065057 203.579686 
L 257.065057 203.544273 
L 256.065057 203.486633 
L 255.065057 203.416247 
L 254.065057 203.364282 
L 253.065057 203.305193 
L 252.065057 203.216872 
L 251.065057 203.170727 
L 250.065057 203.128317 
L 249.065057 203.097824 
L 248.065057 203.071779 
L 247.065057 203.050579 
L 246.065057 202.996278 
L 245.065057 202.96834 
L 244.065057 202.938616 
L 243.065057 202.913221 
L 242.065057 202.902021 
L 241.065057 202.891897 
L 240.065057 202.892101 
L 239.065057 202.901611 
L 238.065057 202.913265 
L 237.065057 202.944294 
L 236.065057 202.955462 
L 235.065057 202.98558 
L 234.065057 203.045356 
L 233.065057 203.082548 
L 232.065057 203.121644 
L 231.065057 203.164084 
L 230.065057 203.196849 
L 229.065057 203.264275 
L 228.065057 203.303401 
L 227.065057 203.346076 
L 226.065057 203.416656 
L 225.065057 203.453047 
L 224.065057 203.51145 
L 223.065057 203.622403 
L 222.065057 203.693061 
L 221.065057 203.806001 
L 220.065057 203.851774 
L 219.065057 203.913057 
L 218.065057 203.961557 
L 217.065057 204.042379 
L 216.065057 204.160898 
L 215.065057 204.231109 
L 214.065057 204.314371 
L 213.065057 204.347513 
L 212.065057 204.39875 
L 211.065057 204.467149 
L 210.065057 204.533364 
L 209.065057 204.610281 
L 208.065057 204.637597 
L 207.065057 204.664074 
L 206.065057 204.686725 
L 205.065057 204.706256 
L 204.065057 204.73265 
L 203.065057 204.782421 
L 202.065057 204.817494 
L 201.065057 204.85336 
L 200.065057 204.868727 
L 199.065057 204.884496 
L 198.065057 204.887909 
L 197.065057 204.890327 
L 196.065057 204.88984 
L 195.065057 204.887911 
L 194.065057 204.874654 
L 193.065057 204.866264 
L 192.065057 204.844727 
L 191.065057 204.821694 
L 190.065057 204.804461 
L 189.065057 204.785998 
L 188.065057 204.765546 
L 187.065057 204.748946 
L 186.065057 204.686167 
L 185.065057 204.610902 
L 184.065057 204.578263 
L 183.065057 204.5107 
L 182.065057 204.456652 
L 181.065057 204.422948 
L 180.065057 204.332822 
L 179.065057 204.304287 
L 178.065057 204.272801 
L 177.065057 204.24179 
L 176.065057 204.186982 
L 175.065057 204.122395 
L 174.065057 204.0842 
L 173.065057 203.988265 
L 172.065057 203.939007 
L 171.065057 203.894938 
L 170.065057 203.854814 
L 169.065057 203.746447 
L 168.065057 203.704819 
L 167.065057 203.642678 
L 166.065057 203.572715 
L 165.065057 203.468211 
L 164.065057 203.431223 
L 163.065057 203.385346 
L 162.065057 203.316852 
L 161.065057 203.268106 
L 160.065057 203.190508 
L 159.065057 203.159967 
L 158.065057 203.090453 
L 157.065057 203.06648 
L 156.065057 203.037858 
L 155.065057 202.996065 
L 154.065057 202.974489 
L 153.065057 202.960541 
L 152.065057 202.933819 
L 151.065057 202.924509 
L 150.065057 202.912062 
L 149.065057 202.901008 
L 148.065057 202.895343 
L 147.065057 202.890579 
L 146.065057 202.896127 
L 145.065057 202.909415 
L 144.065057 202.916932 
L 143.065057 202.941717 
L 142.065057 202.965286 
L 141.065057 203.001467 
L 140.065057 203.027428 
L 139.065057 203.04975 
L 138.065057 203.11851 
L 137.065057 203.193045 
L 136.065057 203.287024 
L 135.065057 203.338076 
L 134.065057 203.39201 
L 133.065057 203.427261 
L 132.065057 203.533349 
L 131.065057 203.585613 
L 130.065057 203.62252 
L 129.065057 203.653551 
L 128.065057 203.714706 
L 127.065057 203.782126 
L 126.065057 203.831032 
L 125.065057 203.896224 
L 124.065057 203.934412 
L 123.065057 203.976408 
L 122.065057 204.018425 
L 121.065057 204.077942 
L 120.065057 204.191101 
L 119.065057 204.243352 
L 118.065057 204.28277 
L 117.065057 204.329871 
L 116.065057 204.386651 
L 115.065057 204.419314 
L 114.065057 204.455492 
L 113.065057 204.487583 
L 112.065057 204.521862 
L 111.065057 204.58024 
L 110.065057 204.625425 
L 109.065057 204.655049 
L 108.065057 204.705435 
L 107.065057 204.730633 
L 106.065057 204.751683 
L 105.065057 204.786651 
L 104.065057 204.810941 
L 103.065057 204.825008 
L 102.065057 204.84395 
L 101.065057 204.859612 
L 100.065057 204.872163 
L 99.065057 204.877999 
L 97.820325 204.884882 
" clip-path="url(#p329b6e555f)" style="fill: none; stroke: #1f77b4; stroke-linecap: round"/>
        <path d="M 101.820325 205.890521 
L 100.939957 205.41519 
L 100.06205 204.934936 
L 99.211336 204.400295 
L 97.909162 203.712848 
L 98.836515 203.686833 
L 99.748189 203.274113 
L 100.658454 202.858574 
L 102.00095 202.25177 
L 101.346051 202.890521 
L 101.294087 203.890521 
L 101.234997 205.890521 
z
" clip-path="url(#p329b6e555f)" style="fill: #ffffff; stroke: #ffffff; stroke-width: 3; stroke-linecap: round"/>
        <path d="M 101.820325 205.890521 
L 100.939957 205.41519 
L 100.06205 204.934936 
L 99.211336 204.400295 
L 97.909162 203.712848 
L 98.836515 203.686833 
L 99.748189 203.274113 
L 100.658454 202.858574 
L 102.00095 202.25177 
L 101.346051 202.890521 
L 101.294087 203.890521 
L 101.234997 205.890521 
z
" clip-path="url(#p329b6e555f)" style="fill: #ffffff; stroke: #1f77b4; stroke-linecap: round"/>
        <g id="patch_8">
         <path d="M 326.215723 72.964375 
L 327.215723 72.995811 
L 328.215723 73.032752 
L 329.215723 73.130498 
L 330.215723 73.16302 
L 331.215723 73.236645 
L 332.215723 73.27521 
L 333.215723 73.310623 
L 334.215723 73.368263 
L 335.215723 73.438649 
L 336.215723 73.490614 
L 337.215723 73.549703 
L 338.215723 73.638024 
L 339.215723 73.684169 
L 340.215723 73.72658 
L 341.215723 73.757072 
L 342.215723 73.783117 
L 343.215723 73.804317 
L 344.215723 73.858618 
L 345.215723 73.886556 
L 346.215723 73.91628 
L 347.215723 73.941675 
L 348.215723 73.952875 
L 349.215723 73.962999 
L 350.215723 73.962795 
L 351.215723 73.953285 
L 352.215723 73.941631 
L 353.215723 73.910602 
L 354.215723 73.899434 
L 355.215723 73.869317 
L 356.215723 73.80954 
L 357.215723 73.772348 
L 358.215723 73.733252 
L 359.215723 73.690812 
L 360.215723 73.658047 
L 361.215723 73.590621 
L 362.215723 73.551495 
L 363.215723 73.50882 
L 364.215723 73.43824 
L 365.215723 73.401849 
L 366.215723 73.343446 
L 367.215723 73.232493 
L 368.215723 73.161835 
L 369.215723 73.048895 
L 370.215723 73.003122 
L 371.215723 72.941839 
L 372.215723 72.89334 
L 373.215723 72.812517 
L 374.215723 72.693998 
L 375.215723 72.623787 
L 376.215723 72.540525 
L 377.215723 72.507383 
L 378.215723 72.456146 
L 379.215723 72.387747 
L 380.215723 72.321532 
L 381.215723 72.244615 
L 382.215723 72.217299 
L 383.215723 72.190822 
L 384.215723 72.168171 
L 385.215723 72.14864 
L 386.215723 72.122246 
L 387.215723 72.072475 
L 388.215723 72.037402 
L 389.215723 72.001536 
L 390.215723 71.986169 
L 391.215723 71.9704 
L 392.215723 71.966987 
L 393.215723 71.96457 
L 394.215723 71.965056 
L 395.215723 71.966985 
L 396.215723 71.980242 
L 397.215723 71.988633 
L 398.215723 72.010169 
L 399.215723 72.033202 
L 400.215723 72.050435 
L 401.215723 72.068898 
L 402.215723 72.08935 
L 403.215723 72.10595 
L 404.215723 72.168729 
L 405.215723 72.243994 
L 406.215723 72.276633 
L 407.215723 72.344197 
L 408.215723 72.398244 
L 409.215723 72.431948 
L 410.215723 72.522074 
L 411.215723 72.550609 
L 412.215723 72.582095 
L 413.215723 72.613106 
L 414.215723 72.667914 
L 415.215723 72.732501 
L 416.215723 72.770697 
L 417.215723 72.866631 
L 418.215723 72.915889 
L 419.215723 72.959958 
L 420.215723 73.000082 
L 421.215723 73.108449 
L 422.215723 73.150077 
L 423.215723 73.212219 
L 424.215723 73.282181 
L 425.215723 73.386685 
L 426.215723 73.423673 
L 427.215723 73.46955 
L 428.215723 73.538045 
L 429.215723 73.586791 
L 430.215723 73.664388 
L 431.215723 73.694929 
L 432.215723 73.764443 
L 433.215723 73.788416 
L 434.215723 73.817038 
L 435.215723 73.858831 
L 436.215723 73.880407 
L 437.215723 73.894355 
L 438.215723 73.921077 
L 439.215723 73.930387 
L 440.215723 73.942834 
L 441.215723 73.953889 
L 442.215723 73.959553 
L 443.215723 73.964317 
L 444.215723 73.958769 
L 445.215723 73.945481 
L 446.215723 73.937964 
L 447.215723 73.913179 
L 448.215723 73.88961 
L 449.215723 73.85343 
L 450.215723 73.827468 
L 451.215723 73.805146 
L 452.215723 73.736386 
L 453.215723 73.661851 
L 454.215723 73.567872 
L 455.215723 73.51682 
L 456.215723 73.462886 
L 457.215723 73.427635 
L 458.215723 73.321547 
L 459.215723 73.269283 
L 460.215723 73.232376 
L 461.215723 73.201345 
L 462.215723 73.14019 
L 463.215723 73.07277 
L 464.215723 73.023864 
L 465.215723 72.958672 
L 466.215723 72.920484 
L 467.215723 72.878488 
L 468.215723 72.836471 
L 469.215723 72.776955 
L 470.215723 72.663795 
L 471.215723 72.611544 
L 472.215723 72.572126 
L 473.215723 72.525025 
L 474.215723 72.468245 
L 475.215723 72.435582 
L 476.215723 72.399404 
L 477.215723 72.367314 
L 478.215723 72.333034 
L 479.215723 72.274656 
L 480.215723 72.229471 
L 481.215723 72.199847 
L 482.215723 72.149461 
L 483.215723 72.124264 
L 484.215723 72.103213 
L 485.215723 72.068245 
L 486.215723 72.043955 
L 487.215723 72.029888 
L 488.215723 72.010946 
L 489.215723 71.995285 
L 490.215723 71.982733 
L 491.215723 71.976897 
L 492.215723 71.970015 
L 493.215723 71.964841 
L 494.215723 71.966624 
L 495.215723 71.969349 
L 496.215723 71.980503 
L 497.215723 72.008738 
L 498.215723 72.052526 
L 499.215723 72.073215 
L 500.215723 72.114188 
L 501.215723 72.154263 
L 502.215723 72.173373 
L 503.215723 72.195882 
L 504.215723 72.262533 
L 505.215723 72.312243 
L 506.215723 72.385949 
L 507.215723 72.417263 
L 508.215723 72.493885 
L 509.215723 72.532183 
L 510.215723 72.6063 
L 511.215723 72.710358 
L 512.215723 72.780189 
L 513.215723 72.885423 
L 514.215723 72.940438 
L 515.215723 73.063913 
L 516.215723 73.134472 
L 517.215723 73.250311 
L 518.215723 73.300492 
L 519.215723 73.336096 
L 520.215723 73.427503 
L 521.215723 73.481011 
L 522.215723 73.568919 
L 523.215723 73.638104 
L 524.215723 73.684868 
L 525.215723 73.756912 
L 526.215723 73.807054 
L 527.215723 73.824444 
L 528.215723 73.851447 
L 529.215723 73.870874 
L 530.215723 73.890212 
L 531.215723 73.928461 
L 532.215723 73.944894 
L 533.215723 73.953263 
L 534.215723 73.957582 
L 535.215723 73.964137 
L 536.215723 73.961591 
L 537.215723 73.956132 
L 538.215723 73.939704 
L 539.215723 73.907769 
L 540.215723 73.869789 
L 541.215723 73.834985 
L 542.215723 73.771913 
L 543.215723 73.750486 
L 544.215723 73.699868 
L 545.215723 73.674911 
L 546.215723 73.619277 
L 547.924764 73.588048 
" clip-path="url(#p329b6e555f)" style="fill: none; stroke: #ffffff; stroke-width: 3; stroke-linecap: round"/>
         <path d="M 326.215723 72.964375 
L 327.215723 72.995811 
L 328.215723 73.032752 
L 329.215723 73.130498 
L 330.215723 73.16302 
L 331.215723 73.236645 
L 332.215723 73.27521 
L 333.215723 73.310623 
L 334.215723 73.368263 
L 335.215723 73.438649 
L 336.215723 73.490614 
L 337.215723 73.549703 
L 338.215723 73.638024 
L 339.215723 73.684169 
L 340.215723 73.72658 
L 341.215723 73.757072 
L 342.215723 73.783117 
L 343.215723 73.804317 
L 344.215723 73.858618 
L 345.215723 73.886556 
L 346.215723 73.91628 
L 347.215723 73.941675 
L 348.215723 73.952875 
L 349.215723 73.962999 
L 350.215723 73.962795 
L 351.215723 73.953285 
L 352.215723 73.941631 
L 353.215723 73.910602 
L 354.215723 73.899434 
L 355.215723 73.869317 
L 356.215723 73.80954 
L 357.215723 73.772348 
L 358.215723 73.733252 
L 359.215723 73.690812 
L 360.215723 73.658047 
L 361.215723 73.590621 
L 362.215723 73.551495 
L 363.215723 73.50882 
L 364.215723 73.43824 
L 365.215723 73.401849 
L 366.215723 73.343446 
L 367.215723 73.232493 
L 368.215723 73.161835 
L 369.215723 73.048895 
L 370.215723 73.003122 
L 371.215723 72.941839 
L 372.215723 72.89334 
L 373.215723 72.812517 
L 374.215723 72.693998 
L 375.215723 72.623787 
L 376.215723 72.540525 
L 377.215723 72.507383 
L 378.215723 72.456146 
L 379.215723 72.387747 
L 380.215723 72.321532 
L 381.215723 72.244615 
L 382.215723 72.217299 
L 383.215723 72.190822 
L 384.215723 72.168171 
L 385.215723 72.14864 
L 386.215723 72.122246 
L 387.215723 72.072475 
L 388.215723 72.037402 
L 389.215723 72.001536 
L 390.215723 71.986169 
L 391.215723 71.9704 
L 392.215723 71.966987 
L 393.215723 71.96457 
L 394.215723 71.965056 
L 395.215723 71.966985 
L 396.215723 71.980242 
L 397.215723 71.988633 
L 398.215723 72.010169 
L 399.215723 72.033202 
L 400.215723 72.050435 
L 401.215723 72.068898 
L 402.215723 72.08935 
L 403.215723 72.10595 
L 404.215723 72.168729 
L 405.215723 72.243994 
L 406.215723 72.276633 
L 407.215723 72.344197 
L 408.215723 72.398244 
L 409.215723 72.431948 
L 410.215723 72.522074 
L 411.215723 72.550609 
L 412.215723 72.582095 
L 413.215723 72.613106 
L 414.215723 72.667914 
L 415.215723 72.732501 
L 416.215723 72.770697 
L 417.215723 72.866631 
L 418.215723 72.915889 
L 419.215723 72.959958 
L 420.215723 73.000082 
L 421.215723 73.108449 
L 422.215723 73.150077 
L 423.215723 73.212219 
L 424.215723 73.282181 
L 425.215723 73.386685 
L 426.215723 73.423673 
L 427.215723 73.46955 
L 428.215723 73.538045 
L 429.215723 73.586791 
L 430.215723 73.664388 
L 431.215723 73.694929 
L 432.215723 73.764443 
L 433.215723 73.788416 
L 434.215723 73.817038 
L 435.215723 73.858831 
L 436.215723 73.880407 
L 437.215723 73.894355 
L 438.215723 73.921077 
L 439.215723 73.930387 
L 440.215723 73.942834 
L 441.215723 73.953889 
L 442.215723 73.959553 
L 443.215723 73.964317 
L 444.215723 73.958769 
L 445.215723 73.945481 
L 446.215723 73.937964 
L 447.215723 73.913179 
L 448.215723 73.88961 
L 449.215723 73.85343 
L 450.215723 73.827468 
L 451.215723 73.805146 
L 452.215723 73.736386 
L 453.215723 73.661851 
L 454.215723 73.567872 
L 455.215723 73.51682 
L 456.215723 73.462886 
L 457.215723 73.427635 
L 458.215723 73.321547 
L 459.215723 73.269283 
L 460.215723 73.232376 
L 461.215723 73.201345 
L 462.215723 73.14019 
L 463.215723 73.07277 
L 464.215723 73.023864 
L 465.215723 72.958672 
L 466.215723 72.920484 
L 467.215723 72.878488 
L 468.215723 72.836471 
L 469.215723 72.776955 
L 470.215723 72.663795 
L 471.215723 72.611544 
L 472.215723 72.572126 
L 473.215723 72.525025 
L 474.215723 72.468245 
L 475.215723 72.435582 
L 476.215723 72.399404 
L 477.215723 72.367314 
L 478.215723 72.333034 
L 479.215723 72.274656 
L 480.215723 72.229471 
L 481.215723 72.199847 
L 482.215723 72.149461 
L 483.215723 72.124264 
L 484.215723 72.103213 
L 485.215723 72.068245 
L 486.215723 72.043955 
L 487.215723 72.029888 
L 488.215723 72.010946 
L 489.215723 71.995285 
L 490.215723 71.982733 
L 491.215723 71.976897 
L 492.215723 71.970015 
L 493.215723 71.964841 
L 494.215723 71.966624 
L 495.215723 71.969349 
L 496.215723 71.980503 
L 497.215723 72.008738 
L 498.215723 72.052526 
L 499.215723 72.073215 
L 500.215723 72.114188 
L 501.215723 72.154263 
L 502.215723 72.173373 
L 503.215723 72.195882 
L 504.215723 72.262533 
L 505.215723 72.312243 
L 506.215723 72.385949 
L 507.215723 72.417263 
L 508.215723 72.493885 
L 509.215723 72.532183 
L 510.215723 72.6063 
L 511.215723 72.710358 
L 512.215723 72.780189 
L 513.215723 72.885423 
L 514.215723 72.940438 
L 515.215723 73.063913 
L 516.215723 73.134472 
L 517.215723 73.250311 
L 518.215723 73.300492 
L 519.215723 73.336096 
L 520.215723 73.427503 
L 521.215723 73.481011 
L 522.215723 73.568919 
L 523.215723 73.638104 
L 524.215723 73.684868 
L 525.215723 73.756912 
L 526.215723 73.807054 
L 527.215723 73.824444 
L 528.215723 73.851447 
L 529.215723 73.870874 
L 530.215723 73.890212 
L 531.215723 73.928461 
L 532.215723 73.944894 
L 533.215723 73.953263 
L 534.215723 73.957582 
L 535.215723 73.964137 
L 536.215723 73.961591 
L 537.215723 73.956132 
L 538.215723 73.939704 
L 539.215723 73.907769 
L 540.215723 73.869789 
L 541.215723 73.834985 
L 542.215723 73.771913 
L 543.215723 73.750486 
L 544.215723 73.699868 
L 545.215723 73.674911 
L 546.215723 73.619277 
L 547.924764 73.588048 
" clip-path="url(#p329b6e555f)" style="fill: none; stroke: #1f77b4; stroke-linecap: round"/>
         <path d="M 543.924764 70.964375 
L 544.805132 71.439706 
L 545.683039 71.91996 
L 546.533753 72.454601 
L 547.835927 73.142048 
L 546.908574 73.168063 
L 545.996899 73.580783 
L 545.086635 73.996322 
L 543.744139 74.603126 
L 544.399038 73.964375 
L 544.451002 72.964375 
L 544.510092 70.964375 
z
" clip-path="url(#p329b6e555f)" style="fill: #ffffff; stroke: #ffffff; stroke-width: 3; stroke-linecap: round"/>
         <path d="M 543.924764 70.964375 
L 544.805132 71.439706 
L 545.683039 71.91996 
L 546.533753 72.454601 
L 547.835927 73.142048 
L 546.908574 73.168063 
L 545.996899 73.580783 
L 545.086635 73.996322 
L 543.744139 74.603126 
L 544.399038 73.964375 
L 544.451002 72.964375 
L 544.510092 70.964375 
z
" clip-path="url(#p329b6e555f)" style="fill: #ffffff; stroke: #1f77b4; stroke-linecap: round"/>
         <g id="patch_9">
          <path d="M 96.705178 234.934865 
L 97.705178 234.966301 
L 98.705178 235.003242 
L 99.705178 235.100988 
L 100.705178 235.13351 
L 101.705178 235.207135 
L 102.705178 235.2457 
L 103.705178 235.281113 
L 104.705178 235.338753 
L 105.705178 235.40914 
L 106.705178 235.461104 
L 107.705178 235.520194 
L 108.705178 235.608514 
L 109.705178 235.654659 
L 110.705178 235.69707 
L 111.705178 235.727562 
L 112.705178 235.753607 
L 113.705178 235.774807 
L 114.705178 235.829109 
L 115.705178 235.857046 
L 116.705178 235.88677 
L 117.705178 235.912165 
L 118.705178 235.923365 
L 119.705178 235.933489 
L 120.705178 235.933285 
L 121.705178 235.923775 
L 122.705178 235.912121 
L 123.705178 235.881092 
L 124.705178 235.869924 
L 125.705178 235.839807 
L 126.705178 235.78003 
L 127.705178 235.742838 
L 128.705178 235.703742 
L 129.705178 235.661303 
L 130.705178 235.628537 
L 131.705178 235.561111 
L 132.705178 235.521985 
L 133.705178 235.479311 
L 134.705178 235.40873 
L 135.705178 235.372339 
L 136.705178 235.313936 
L 137.705178 235.202983 
L 138.705178 235.132325 
L 139.705178 235.019385 
L 140.705178 234.973612 
L 141.705178 234.912329 
L 142.705178 234.86383 
L 143.705178 234.783007 
L 144.705178 234.664488 
L 145.705178 234.594277 
L 146.705178 234.511015 
L 147.705178 234.477873 
L 148.705178 234.426636 
L 149.705178 234.358238 
L 150.705178 234.292022 
L 151.705178 234.215105 
L 152.705178 234.18779 
L 153.705178 234.161312 
L 154.705178 234.138661 
L 155.705178 234.11913 
L 156.705178 234.092736 
L 157.705178 234.042965 
L 158.705178 234.007892 
L 159.705178 233.972027 
L 160.705178 233.956659 
L 161.705178 233.94089 
L 162.705178 233.937477 
L 163.705178 233.93506 
L 164.705178 233.935546 
L 165.705178 233.937475 
L 166.705178 233.950732 
L 167.705178 233.959123 
L 168.705178 233.980659 
L 169.705178 234.003692 
L 170.705178 234.020925 
L 171.705178 234.039388 
L 172.705178 234.05984 
L 173.705178 234.07644 
L 174.705178 234.139219 
L 175.705178 234.214484 
L 176.705178 234.247123 
L 177.705178 234.314687 
L 178.705178 234.368734 
L 179.705178 234.402438 
L 180.705178 234.492564 
L 181.705178 234.521099 
L 182.705178 234.552585 
L 183.705178 234.583596 
L 184.705178 234.638404 
L 185.705178 234.702991 
L 186.705178 234.741187 
L 187.705178 234.837121 
L 188.705178 234.886379 
L 189.705178 234.930448 
L 190.705178 234.970572 
L 191.705178 235.078939 
L 192.705178 235.120567 
L 193.705178 235.182709 
L 194.705178 235.252671 
L 195.705178 235.357175 
L 196.705178 235.394163 
L 197.705178 235.44004 
L 198.705178 235.508535 
L 199.705178 235.557281 
L 200.705178 235.634878 
L 201.705178 235.665419 
L 202.705178 235.734933 
L 203.705178 235.758906 
L 204.705178 235.787528 
L 205.705178 235.829321 
L 206.705178 235.850897 
L 207.705178 235.864845 
L 208.705178 235.891567 
L 209.705178 235.900877 
L 210.705178 235.913324 
L 211.705178 235.924379 
L 212.705178 235.930043 
L 213.705178 235.934807 
L 214.705178 235.92926 
L 215.705178 235.915971 
L 216.705178 235.908454 
L 217.705178 235.883669 
L 218.705178 235.8601 
L 219.705178 235.82392 
L 220.705178 235.797958 
L 221.705178 235.775636 
L 222.705178 235.706876 
L 223.705178 235.632341 
L 224.705178 235.538362 
L 225.705178 235.48731 
L 226.705178 235.433376 
L 227.705178 235.398125 
L 228.705178 235.292037 
L 229.705178 235.239773 
L 230.705178 235.202866 
L 231.705178 235.171836 
L 232.705178 235.11068 
L 233.705178 235.04326 
L 234.705178 234.994354 
L 235.705178 234.929162 
L 236.705178 234.890974 
L 237.705178 234.848979 
L 238.705178 234.806961 
L 239.705178 234.747445 
L 240.705178 234.634285 
L 241.705178 234.582034 
L 242.705178 234.542616 
L 243.705178 234.495515 
L 244.705178 234.438736 
L 245.705178 234.406072 
L 246.705178 234.369894 
L 247.705178 234.337804 
L 248.705178 234.303524 
L 249.705178 234.245146 
L 250.705178 234.199961 
L 251.705178 234.170337 
L 252.705178 234.119952 
L 253.705178 234.094754 
L 254.705178 234.073703 
L 255.705178 234.038735 
L 256.705178 234.014445 
L 257.705178 234.000378 
L 258.705178 233.981436 
L 259.705178 233.965775 
L 260.705178 233.953223 
L 261.705178 233.947387 
L 262.705178 233.940505 
L 263.705178 233.935331 
L 264.705178 233.937114 
L 265.705178 233.939839 
L 266.705178 233.950993 
L 267.705178 233.979228 
L 268.705178 234.023016 
L 269.705178 234.043705 
L 270.705178 234.084678 
L 271.705178 234.124753 
L 272.705178 234.143863 
L 273.705178 234.166372 
L 274.705178 234.233023 
L 275.705178 234.282733 
L 276.705178 234.35644 
L 277.705178 234.387753 
L 278.705178 234.464375 
L 279.705178 234.502673 
L 280.705178 234.57679 
L 281.705178 234.680848 
L 282.705178 234.750679 
L 283.705178 234.855913 
L 284.705178 234.910928 
L 285.705178 235.034403 
L 286.705178 235.104962 
L 287.705178 235.220801 
L 288.705178 235.270982 
L 289.705178 235.306586 
L 290.705178 235.397993 
L 291.705178 235.451501 
L 292.705178 235.539409 
L 293.705178 235.608594 
L 294.705178 235.655358 
L 295.705178 235.727402 
L 296.705178 235.777544 
L 297.705178 235.794934 
L 298.705178 235.821937 
L 299.705178 235.841364 
L 300.705178 235.860703 
L 301.705178 235.898951 
L 302.705178 235.915384 
L 303.705178 235.923753 
L 304.705178 235.928072 
L 305.705178 235.934627 
L 306.705178 235.932081 
L 307.705178 235.926622 
L 308.705178 235.910194 
L 309.705178 235.878259 
L 310.705178 235.840279 
L 311.705178 235.805475 
L 312.705178 235.742403 
L 313.705178 235.720976 
L 314.705178 235.670358 
L 315.705178 235.645401 
L 316.705178 235.589768 
L 317.705178 235.558539 
L 318.705178 235.508394 
L 319.705178 235.475901 
L 320.705178 235.395489 
L 321.705178 235.326563 
L 322.705178 235.210866 
L 323.705178 235.135387 
L 324.705178 235.019862 
L 325.705178 234.940378 
L 326.705178 234.831937 
L 327.705178 234.792569 
L 328.705178 234.689701 
L 329.705178 234.589903 
L 330.705178 234.544406 
L 331.705178 234.510084 
L 332.705178 234.458128 
L 333.705178 234.418481 
L 334.705178 234.382967 
L 335.705178 234.315322 
L 336.705178 234.27624 
L 337.705178 234.225759 
L 338.705178 234.176453 
L 339.705178 234.125384 
L 340.705178 234.081144 
L 341.705178 234.059124 
L 342.705178 234.043568 
L 343.705178 234.001121 
L 344.705178 233.986253 
L 345.705178 233.963525 
L 346.705178 233.943209 
L 347.705178 233.937412 
L 348.705178 233.93493 
L 349.705178 233.937987 
L 350.705178 233.949583 
L 351.705178 233.966503 
L 352.705178 233.998164 
L 353.705178 234.012247 
L 354.705178 234.064919 
L 355.705178 234.114008 
L 356.705178 234.168709 
L 357.705178 234.213057 
L 358.705178 234.283049 
L 359.705178 234.333432 
L 360.705178 234.387339 
L 361.705178 234.456778 
L 362.705178 234.514166 
L 363.705178 234.564331 
L 364.705178 234.641493 
L 365.705178 234.699683 
L 366.705178 234.760321 
L 367.705178 234.797522 
L 368.705178 234.862614 
L 369.705178 234.967744 
L 370.705178 235.028046 
L 371.705178 235.124368 
L 372.705178 235.156371 
L 373.705178 235.207388 
L 374.705178 235.32418 
L 375.705178 235.359627 
L 376.705178 235.415507 
L 377.705178 235.445883 
L 378.705178 235.534269 
L 379.705178 235.579033 
L 380.705178 235.659921 
L 381.705178 235.720067 
L 382.705178 235.783153 
L 383.705178 235.806102 
L 384.705178 235.822271 
L 385.705178 235.8512 
L 386.705178 235.881552 
L 387.705178 235.894126 
L 388.705178 235.919005 
L 389.705178 235.93109 
L 390.705178 235.934851 
L 391.705178 235.930415 
L 392.705178 235.918076 
L 393.705178 235.903663 
L 394.705178 235.88759 
L 395.705178 235.852069 
L 396.705178 235.832135 
L 397.705178 235.775546 
L 398.705178 235.708352 
L 399.705178 235.680982 
L 400.705178 235.646834 
L 401.705178 235.598154 
L 402.705178 235.549869 
L 403.705178 235.490792 
L 404.705178 235.395187 
L 405.705178 235.352047 
L 406.705178 235.302199 
L 407.705178 235.243665 
L 408.705178 235.196079 
L 409.705178 235.134951 
L 410.705178 235.078866 
L 411.705178 235.004695 
L 412.705178 234.887457 
L 413.705178 234.831733 
L 414.705178 234.723507 
L 415.705178 234.617357 
L 416.705178 234.509785 
L 417.705178 234.475277 
L 418.705178 234.37197 
L 419.705178 234.296246 
L 420.705178 234.256811 
L 422.24333 234.217428 
" clip-path="url(#p329b6e555f)" style="fill: none; stroke: #ffffff; stroke-width: 3; stroke-linecap: round"/>
          <path d="M 96.705178 234.934865 
L 97.705178 234.966301 
L 98.705178 235.003242 
L 99.705178 235.100988 
L 100.705178 235.13351 
L 101.705178 235.207135 
L 102.705178 235.2457 
L 103.705178 235.281113 
L 104.705178 235.338753 
L 105.705178 235.40914 
L 106.705178 235.461104 
L 107.705178 235.520194 
L 108.705178 235.608514 
L 109.705178 235.654659 
L 110.705178 235.69707 
L 111.705178 235.727562 
L 112.705178 235.753607 
L 113.705178 235.774807 
L 114.705178 235.829109 
L 115.705178 235.857046 
L 116.705178 235.88677 
L 117.705178 235.912165 
L 118.705178 235.923365 
L 119.705178 235.933489 
L 120.705178 235.933285 
L 121.705178 235.923775 
L 122.705178 235.912121 
L 123.705178 235.881092 
L 124.705178 235.869924 
L 125.705178 235.839807 
L 126.705178 235.78003 
L 127.705178 235.742838 
L 128.705178 235.703742 
L 129.705178 235.661303 
L 130.705178 235.628537 
L 131.705178 235.561111 
L 132.705178 235.521985 
L 133.705178 235.479311 
L 134.705178 235.40873 
L 135.705178 235.372339 
L 136.705178 235.313936 
L 137.705178 235.202983 
L 138.705178 235.132325 
L 139.705178 235.019385 
L 140.705178 234.973612 
L 141.705178 234.912329 
L 142.705178 234.86383 
L 143.705178 234.783007 
L 144.705178 234.664488 
L 145.705178 234.594277 
L 146.705178 234.511015 
L 147.705178 234.477873 
L 148.705178 234.426636 
L 149.705178 234.358238 
L 150.705178 234.292022 
L 151.705178 234.215105 
L 152.705178 234.18779 
L 153.705178 234.161312 
L 154.705178 234.138661 
L 155.705178 234.11913 
L 156.705178 234.092736 
L 157.705178 234.042965 
L 158.705178 234.007892 
L 159.705178 233.972027 
L 160.705178 233.956659 
L 161.705178 233.94089 
L 162.705178 233.937477 
L 163.705178 233.93506 
L 164.705178 233.935546 
L 165.705178 233.937475 
L 166.705178 233.950732 
L 167.705178 233.959123 
L 168.705178 233.980659 
L 169.705178 234.003692 
L 170.705178 234.020925 
L 171.705178 234.039388 
L 172.705178 234.05984 
L 173.705178 234.07644 
L 174.705178 234.139219 
L 175.705178 234.214484 
L 176.705178 234.247123 
L 177.705178 234.314687 
L 178.705178 234.368734 
L 179.705178 234.402438 
L 180.705178 234.492564 
L 181.705178 234.521099 
L 182.705178 234.552585 
L 183.705178 234.583596 
L 184.705178 234.638404 
L 185.705178 234.702991 
L 186.705178 234.741187 
L 187.705178 234.837121 
L 188.705178 234.886379 
L 189.705178 234.930448 
L 190.705178 234.970572 
L 191.705178 235.078939 
L 192.705178 235.120567 
L 193.705178 235.182709 
L 194.705178 235.252671 
L 195.705178 235.357175 
L 196.705178 235.394163 
L 197.705178 235.44004 
L 198.705178 235.508535 
L 199.705178 235.557281 
L 200.705178 235.634878 
L 201.705178 235.665419 
L 202.705178 235.734933 
L 203.705178 235.758906 
L 204.705178 235.787528 
L 205.705178 235.829321 
L 206.705178 235.850897 
L 207.705178 235.864845 
L 208.705178 235.891567 
L 209.705178 235.900877 
L 210.705178 235.913324 
L 211.705178 235.924379 
L 212.705178 235.930043 
L 213.705178 235.934807 
L 214.705178 235.92926 
L 215.705178 235.915971 
L 216.705178 235.908454 
L 217.705178 235.883669 
L 218.705178 235.8601 
L 219.705178 235.82392 
L 220.705178 235.797958 
L 221.705178 235.775636 
L 222.705178 235.706876 
L 223.705178 235.632341 
L 224.705178 235.538362 
L 225.705178 235.48731 
L 226.705178 235.433376 
L 227.705178 235.398125 
L 228.705178 235.292037 
L 229.705178 235.239773 
L 230.705178 235.202866 
L 231.705178 235.171836 
L 232.705178 235.11068 
L 233.705178 235.04326 
L 234.705178 234.994354 
L 235.705178 234.929162 
L 236.705178 234.890974 
L 237.705178 234.848979 
L 238.705178 234.806961 
L 239.705178 234.747445 
L 240.705178 234.634285 
L 241.705178 234.582034 
L 242.705178 234.542616 
L 243.705178 234.495515 
L 244.705178 234.438736 
L 245.705178 234.406072 
L 246.705178 234.369894 
L 247.705178 234.337804 
L 248.705178 234.303524 
L 249.705178 234.245146 
L 250.705178 234.199961 
L 251.705178 234.170337 
L 252.705178 234.119952 
L 253.705178 234.094754 
L 254.705178 234.073703 
L 255.705178 234.038735 
L 256.705178 234.014445 
L 257.705178 234.000378 
L 258.705178 233.981436 
L 259.705178 233.965775 
L 260.705178 233.953223 
L 261.705178 233.947387 
L 262.705178 233.940505 
L 263.705178 233.935331 
L 264.705178 233.937114 
L 265.705178 233.939839 
L 266.705178 233.950993 
L 267.705178 233.979228 
L 268.705178 234.023016 
L 269.705178 234.043705 
L 270.705178 234.084678 
L 271.705178 234.124753 
L 272.705178 234.143863 
L 273.705178 234.166372 
L 274.705178 234.233023 
L 275.705178 234.282733 
L 276.705178 234.35644 
L 277.705178 234.387753 
L 278.705178 234.464375 
L 279.705178 234.502673 
L 280.705178 234.57679 
L 281.705178 234.680848 
L 282.705178 234.750679 
L 283.705178 234.855913 
L 284.705178 234.910928 
L 285.705178 235.034403 
L 286.705178 235.104962 
L 287.705178 235.220801 
L 288.705178 235.270982 
L 289.705178 235.306586 
L 290.705178 235.397993 
L 291.705178 235.451501 
L 292.705178 235.539409 
L 293.705178 235.608594 
L 294.705178 235.655358 
L 295.705178 235.727402 
L 296.705178 235.777544 
L 297.705178 235.794934 
L 298.705178 235.821937 
L 299.705178 235.841364 
L 300.705178 235.860703 
L 301.705178 235.898951 
L 302.705178 235.915384 
L 303.705178 235.923753 
L 304.705178 235.928072 
L 305.705178 235.934627 
L 306.705178 235.932081 
L 307.705178 235.926622 
L 308.705178 235.910194 
L 309.705178 235.878259 
L 310.705178 235.840279 
L 311.705178 235.805475 
L 312.705178 235.742403 
L 313.705178 235.720976 
L 314.705178 235.670358 
L 315.705178 235.645401 
L 316.705178 235.589768 
L 317.705178 235.558539 
L 318.705178 235.508394 
L 319.705178 235.475901 
L 320.705178 235.395489 
L 321.705178 235.326563 
L 322.705178 235.210866 
L 323.705178 235.135387 
L 324.705178 235.019862 
L 325.705178 234.940378 
L 326.705178 234.831937 
L 327.705178 234.792569 
L 328.705178 234.689701 
L 329.705178 234.589903 
L 330.705178 234.544406 
L 331.705178 234.510084 
L 332.705178 234.458128 
L 333.705178 234.418481 
L 334.705178 234.382967 
L 335.705178 234.315322 
L 336.705178 234.27624 
L 337.705178 234.225759 
L 338.705178 234.176453 
L 339.705178 234.125384 
L 340.705178 234.081144 
L 341.705178 234.059124 
L 342.705178 234.043568 
L 343.705178 234.001121 
L 344.705178 233.986253 
L 345.705178 233.963525 
L 346.705178 233.943209 
L 347.705178 233.937412 
L 348.705178 233.93493 
L 349.705178 233.937987 
L 350.705178 233.949583 
L 351.705178 233.966503 
L 352.705178 233.998164 
L 353.705178 234.012247 
L 354.705178 234.064919 
L 355.705178 234.114008 
L 356.705178 234.168709 
L 357.705178 234.213057 
L 358.705178 234.283049 
L 359.705178 234.333432 
L 360.705178 234.387339 
L 361.705178 234.456778 
L 362.705178 234.514166 
L 363.705178 234.564331 
L 364.705178 234.641493 
L 365.705178 234.699683 
L 366.705178 234.760321 
L 367.705178 234.797522 
L 368.705178 234.862614 
L 369.705178 234.967744 
L 370.705178 235.028046 
L 371.705178 235.124368 
L 372.705178 235.156371 
L 373.705178 235.207388 
L 374.705178 235.32418 
L 375.705178 235.359627 
L 376.705178 235.415507 
L 377.705178 235.445883 
L 378.705178 235.534269 
L 379.705178 235.579033 
L 380.705178 235.659921 
L 381.705178 235.720067 
L 382.705178 235.783153 
L 383.705178 235.806102 
L 384.705178 235.822271 
L 385.705178 235.8512 
L 386.705178 235.881552 
L 387.705178 235.894126 
L 388.705178 235.919005 
L 389.705178 235.93109 
L 390.705178 235.934851 
L 391.705178 235.930415 
L 392.705178 235.918076 
L 393.705178 235.903663 
L 394.705178 235.88759 
L 395.705178 235.852069 
L 396.705178 235.832135 
L 397.705178 235.775546 
L 398.705178 235.708352 
L 399.705178 235.680982 
L 400.705178 235.646834 
L 401.705178 235.598154 
L 402.705178 235.549869 
L 403.705178 235.490792 
L 404.705178 235.395187 
L 405.705178 235.352047 
L 406.705178 235.302199 
L 407.705178 235.243665 
L 408.705178 235.196079 
L 409.705178 235.134951 
L 410.705178 235.078866 
L 411.705178 235.004695 
L 412.705178 234.887457 
L 413.705178 234.831733 
L 414.705178 234.723507 
L 415.705178 234.617357 
L 416.705178 234.509785 
L 417.705178 234.475277 
L 418.705178 234.37197 
L 419.705178 234.296246 
L 420.705178 234.256811 
L 422.24333 234.217428 
" clip-path="url(#p329b6e555f)" style="fill: none; stroke: #ff7f0e; stroke-linecap: round"/>
          <path d="M 418.24333 232.934865 
L 419.123698 233.410196 
L 420.001605 233.89045 
L 420.852319 234.425091 
L 422.154493 235.112538 
L 421.22714 235.138553 
L 420.315466 235.551273 
L 419.405201 235.966812 
L 418.062706 236.573616 
L 418.717604 235.934865 
L 418.769569 234.934865 
L 418.828658 232.934865 
z
" clip-path="url(#p329b6e555f)" style="fill: #ffffff; stroke: #ffffff; stroke-width: 3; stroke-linecap: round"/>
          <path d="M 418.24333 232.934865 
L 419.123698 233.410196 
L 420.001605 233.89045 
L 420.852319 234.425091 
L 422.154493 235.112538 
L 421.22714 235.138553 
L 420.315466 235.551273 
L 419.405201 235.966812 
L 418.062706 236.573616 
L 418.717604 235.934865 
L 418.769569 234.934865 
L 418.828658 232.934865 
z
" clip-path="url(#p329b6e555f)" style="fill: #ffffff; stroke: #ff7f0e; stroke-linecap: round"/>
          <path d="M 440.226979 301.968446 
" clip-path="url(#p329b6e555f)" style="fill: none; stroke-dasharray: 3.7,1.6; stroke-dashoffset: 0; stroke: #2ca02c"/>
          <path d="M 439.226979 301.968446 
L 441.226979 302.968446 
L 441.226979 300.968446 
z
" clip-path="url(#p329b6e555f)" style="fill: #2ca02c; stroke: #2ca02c; stroke-linejoin: miter"/>
          <g id="patch_10">
           <path d="M 63.290625 321.621875 
L 63.290625 10.8 
" style="fill: none; stroke: #000000; stroke-width: 0.8; stroke-linejoin: miter; stroke-linecap: square"/>
          </g>
          <g id="text_10">
           <g id="patch_11">
            <path d="M 284.489675 114.184323 
L 305.794362 114.184323 
Q 307.794362 114.184323 307.794362 112.184323 
L 307.794362 102.506198 
Q 307.794362 100.506198 305.794362 100.506198 
L 284.489675 100.506198 
Q 282.489675 100.506198 282.489675 102.506198 
L 282.489675 112.184323 
Q 282.489675 114.184323 284.489675 114.184323 
z
" style="fill: #ffffff; opacity: 0.6"/>
           </g>
           <!-- ANC -->
           <g transform="translate(284.489675 110.104636) scale(0.1 -0.1)">
            <defs>
             <path id="DejaVuSans-4e" d="M 628 4666 
L 1478 4666 
L 3547 763 
L 3547 4666 
L 4159 4666 
L 4159 0 
L 3309 0 
L 1241 3903 
L 1241 0 
L 628 0 
L 628 4666 
z
" transform="scale(0.015625)"/>
            </defs>
            <use xlink:href="#DejaVuSans-41"/>
            <use xlink:href="#DejaVuSans-4e" x="68.408203"/>
            <use xlink:href="#DejaVuSans-43" x="143.212891"/>
           </g>
          </g>
         </g>
        </g>
        <defs>
         <clipPath id="p329b6e555f">
          <rect x="63.290625" y="10.8" width="540.309375" height="310.821875"/>
         </clipPath>
        </defs>
       </g>
      </g>
     </g>
    </g>
   </g>
  </g>
 </g>
</svg>
