<?xml version="1.0" encoding="utf-8" standalone="no"?>
<!DOCTYPE svg PUBLIC "-//W3C//DTD SVG 1.1//EN"
  "http://www.w3.org/Graphics/SVG/1.1/DTD/svg11.dtd">
<svg xmlns:xlink="http://www.w3.org/1999/xlink" width="614.4pt" height="345.6pt" viewBox="0 0 614.4 345.6" xmlns="http://www.w3.org/2000/svg" version="1.1">
 <metadata>
  <rdf:RDF xmlns:dc="http://purl.org/dc/elements/1.1/" xmlns:cc="http://creativecommons.org/ns#" xmlns:rdf="http://www.w3.org/1999/02/22-rdf-syntax-ns#">
   <cc:Work>
    <dc:type rdf:resource="http://purl.org/dc/dcmitype/StillImage"/>
    <dc:date>2024-04-17T19:40:18.365023</dc:date>
    <dc:format>image/svg+xml</dc:format>
    <dc:creator>
     <cc:Agent>
      <dc:title>Matplotlib v3.7.1, https://matplotlib.org/</dc:title>
     </cc:Agent>
    </dc:creator>
   </cc:Work>
  </rdf:RDF>
 </metadata>
 <defs>
  <style type="text/css">*{stroke-linejoin: round; stroke-linecap: butt}</style>
 </defs>
 <g id="figure_1">
  <g id="patch_1">
   <path d="M 0 345.6 
L 614.4 345.6 
L 614.4 0 
L 0 0 
z
" style="fill: #ffffff"/>
  </g>
  <g id="axes_1">
   <g id="patch_2">
    <path d="M 63.290625 321.621875 
L 603.6 321.621875 
L 603.6 10.8 
L 63.290625 10.8 
z
" style="fill: #ffffff"/>
   </g>
   <path d="M 571.942491 307.792144 
L 570.942491 307.760707 
L 569.942491 307.723767 
L 568.942491 307.62602 
L 567.942491 307.593499 
L 566.942491 307.519874 
L 565.942491 307.481309 
L 564.942491 307.445895 
L 563.942491 307.388255 
L 562.942491 307.317869 
L 561.942491 307.265905 
L 560.942491 307.206815 
L 559.942491 307.118494 
L 558.942491 307.07235 
L 557.942491 307.029939 
L 556.942491 306.999446 
L 555.942491 306.973401 
L 554.942491 306.952201 
L 553.942491 306.8979 
L 552.942491 306.869963 
L 551.942491 306.840239 
L 550.942491 306.814844 
L 549.942491 306.803644 
L 548.942491 306.79352 
L 547.942491 306.793724 
L 546.942491 306.803234 
L 545.942491 306.814887 
L 544.942491 306.845917 
L 543.942491 306.857085 
L 542.942491 306.887202 
L 541.942491 306.946979 
L 540.942491 306.984171 
L 539.942491 307.023267 
L 538.942491 307.065706 
L 537.942491 307.098471 
L 536.942491 307.165898 
L 535.942491 307.205024 
L 534.942491 307.247698 
L 533.942491 307.318279 
L 532.942491 307.35467 
L 531.942491 307.413073 
L 530.942491 307.524026 
L 529.942491 307.594684 
L 528.942491 307.707624 
L 527.942491 307.753397 
L 526.942491 307.81468 
L 525.942491 307.863179 
L 524.942491 307.944002 
L 523.942491 308.062521 
L 522.942491 308.132731 
L 521.942491 308.215994 
L 520.942491 308.249136 
L 519.942491 308.300373 
L 518.942491 308.368771 
L 517.942491 308.434987 
L 516.942491 308.511904 
L 515.942491 308.539219 
L 514.942491 308.565697 
L 513.942491 308.588347 
L 512.942491 308.607879 
L 511.942491 308.634273 
L 510.942491 308.684043 
L 509.942491 308.719117 
L 508.942491 308.754982 
L 507.942491 308.77035 
L 506.942491 308.786119 
L 505.942491 308.789531 
L 504.942491 308.791949 
L 503.942491 308.791463 
L 502.942491 308.789534 
L 501.942491 308.776277 
L 500.942491 308.767886 
L 499.942491 308.746349 
L 498.942491 308.723317 
L 497.942491 308.706083 
L 496.942491 308.687621 
L 495.942491 308.667168 
L 494.942491 308.650569 
L 493.942491 308.58779 
L 492.942491 308.512525 
L 491.942491 308.479886 
L 490.942491 308.412322 
L 489.942491 308.358275 
L 488.942491 308.324571 
L 487.942491 308.234445 
L 486.942491 308.20591 
L 485.942491 308.174424 
L 484.942491 308.143413 
L 483.942491 308.088605 
L 482.942491 308.024017 
L 481.942491 307.985822 
L 480.942491 307.889888 
L 479.942491 307.84063 
L 478.942491 307.79656 
L 477.942491 307.756437 
L 476.942491 307.64807 
L 475.942491 307.606442 
L 474.942491 307.5443 
L 473.942491 307.474338 
L 472.942491 307.369833 
L 471.942491 307.332846 
L 470.942491 307.286969 
L 469.942491 307.218474 
L 468.942491 307.169728 
L 467.942491 307.092131 
L 466.942491 307.06159 
L 465.942491 306.992075 
L 464.442535 306.968103 
" clip-path="url(#pf7a37d3414)" style="fill: none; stroke-dasharray: 3.7,1.6; stroke-dashoffset: 0; stroke: #2ca02c"/>
   <g id="patch_3">
    <path d="M 333.563543 10.8 
L 333.563543 178.849924 
M 343.341802 10.8 
L 343.341802 178.849924 
" clip-path="url(#pf7a37d3414)" style="fill: none; stroke: #ffffff; stroke-width: 3; stroke-linejoin: miter"/>
    <path d="M 333.563543 10.8 
L 333.563543 178.849924 
M 343.341802 10.8 
L 343.341802 178.849924 
" clip-path="url(#pf7a37d3414)" style="fill: none; stroke: #1f77b4; stroke-linejoin: miter"/>
    <g id="PolyCollection_1">
     <path d="M 343.341802 10.8 
L 333.563543 10.8 
L 333.563543 178.849924 
L 343.341802 178.849924 
L 343.341802 178.849924 
L 343.341802 10.8 
z
" clip-path="url(#pf7a37d3414)" style="fill: #1f77b4; fill-opacity: 0.5"/>
    </g>
    <g id="patch_4">
     <path d="M 156.948141 178.849924 
L 156.882904 311.325276 
L 156.075627 312.375949 
L 155.037599 313.321555 
L 153.767929 314.162094 
L 152.051681 315.002633 
L 150.061409 315.738104 
L 147.470569 316.473575 
L 144.097937 317.209047 
L 139.707608 317.944518 
L 133.992488 318.679989 
L 126.55282 319.415461 
L 116.868217 320.150932 
L 104.261265 320.886404 
L 87.850142 321.621875 
M 160.346662 178.849924 
L 160.411899 311.325276 
L 161.219176 312.375949 
L 162.257204 313.321555 
L 163.526874 314.162094 
L 165.243123 315.002633 
L 167.233395 315.738104 
L 169.824235 316.473575 
L 173.196866 317.209047 
L 177.587195 317.944518 
L 183.302315 318.679989 
L 190.741984 319.415461 
L 200.426587 320.150932 
L 213.033538 320.886404 
L 229.444661 321.621875 
L 229.444661 321.621875 
" clip-path="url(#pf7a37d3414)" style="fill: none; stroke: #ffffff; stroke-width: 3; stroke-linejoin: miter"/>
     <path d="M 156.948141 178.849924 
L 156.882904 311.325276 
L 156.075627 312.375949 
L 155.037599 313.321555 
L 153.767929 314.162094 
L 152.051681 315.002633 
L 150.061409 315.738104 
L 147.470569 316.473575 
L 144.097937 317.209047 
L 139.707608 317.944518 
L 133.992488 318.679989 
L 126.55282 319.415461 
L 116.868217 320.150932 
L 104.261265 320.886404 
L 87.850142 321.621875 
M 160.346662 178.849924 
L 160.411899 311.325276 
L 161.219176 312.375949 
L 162.257204 313.321555 
L 163.526874 314.162094 
L 165.243123 315.002633 
L 167.233395 315.738104 
L 169.824235 316.473575 
L 173.196866 317.209047 
L 177.587195 317.944518 
L 183.302315 318.679989 
L 190.741984 319.415461 
L 200.426587 320.150932 
L 213.033538 320.886404 
L 229.444661 321.621875 
L 229.444661 321.621875 
" clip-path="url(#pf7a37d3414)" style="fill: none; stroke: #ff7f0e; stroke-linejoin: miter"/>
     <g id="PolyCollection_2">
      <path d="M 160.346662 178.849924 
L 156.948141 178.849924 
L 156.948141 311.220208 
L 156.948141 311.220208 
L 156.882904 311.325276 
L 156.815162 311.430343 
L 156.74482 311.53541 
L 156.671776 311.640478 
L 156.595929 311.745545 
L 156.517169 311.850612 
L 156.435386 311.95568 
L 156.350463 312.060747 
L 156.26228 312.165814 
L 156.170712 312.270882 
L 156.075627 312.375949 
L 155.976893 312.481016 
L 155.874368 312.586084 
L 155.767906 312.691151 
L 155.657358 312.796218 
L 155.542565 312.901286 
L 155.423366 313.006353 
L 155.29959 313.111421 
L 155.171062 313.216488 
L 155.037599 313.321555 
L 154.899013 313.426623 
L 154.755106 313.53169 
L 154.605675 313.636757 
L 154.450506 313.741825 
L 154.289381 313.846892 
L 154.122069 313.951959 
L 153.948334 314.057027 
L 153.767929 314.162094 
L 153.580598 314.267161 
L 153.386076 314.372229 
L 153.184085 314.477296 
L 152.974339 314.582363 
L 152.756541 314.687431 
L 152.530381 314.792498 
L 152.295539 314.897565 
L 152.051681 315.002633 
L 151.79846 315.1077 
L 151.535518 315.212767 
L 151.262481 315.317835 
L 150.978962 315.422902 
L 150.684558 315.527969 
L 150.378852 315.633037 
L 150.061409 315.738104 
L 149.731779 315.843171 
L 149.389493 315.948239 
L 149.034067 316.053306 
L 148.664996 316.158373 
L 148.281755 316.263441 
L 147.883801 316.368508 
L 147.470569 316.473575 
L 147.041472 316.578643 
L 146.595901 316.68371 
L 146.133225 316.788777 
L 145.652785 316.893845 
L 145.153901 316.998912 
L 144.635863 317.103979 
L 144.097937 317.209047 
L 143.53936 317.314114 
L 142.959338 317.419181 
L 142.357047 317.524249 
L 141.731634 317.629316 
L 141.08221 317.734383 
L 140.407854 317.839451 
L 139.707608 317.944518 
L 138.980479 318.049585 
L 138.225433 318.154653 
L 137.441401 318.25972 
L 136.627268 318.364787 
L 135.781879 318.469855 
L 134.904035 318.574922 
L 133.992488 318.679989 
L 133.045946 318.785057 
L 132.063064 318.890124 
L 131.042448 318.995192 
L 129.982649 319.100259 
L 128.882163 319.205326 
L 127.739427 319.310394 
L 126.55282 319.415461 
L 125.320656 319.520528 
L 124.041188 319.625596 
L 122.7126 319.730663 
L 121.333004 319.83573 
L 119.900444 319.940798 
L 118.412885 320.045865 
L 116.868217 320.150932 
L 115.264246 320.256 
L 113.598696 320.361067 
L 111.869203 320.466134 
L 110.073311 320.571202 
L 108.208473 320.676269 
L 106.272041 320.781336 
L 104.261265 320.886404 
L 102.173293 320.991471 
L 100.00516 321.096538 
L 97.753789 321.201606 
L 95.415984 321.306673 
L 92.988428 321.41174 
L 90.467673 321.516808 
L 87.850142 321.621875 
L 229.444661 321.621875 
L 229.444661 321.621875 
L 226.827131 321.516808 
L 224.306376 321.41174 
L 221.878819 321.306673 
L 219.541014 321.201606 
L 217.289643 321.096538 
L 215.12151 320.991471 
L 213.033538 320.886404 
L 211.022763 320.781336 
L 209.08633 320.676269 
L 207.221492 320.571202 
L 205.425601 320.466134 
L 203.696108 320.361067 
L 202.030558 320.256 
L 200.426587 320.150932 
L 198.881918 320.045865 
L 197.39436 319.940798 
L 195.961799 319.83573 
L 194.582204 319.730663 
L 193.253615 319.625596 
L 191.974147 319.520528 
L 190.741984 319.415461 
L 189.555376 319.310394 
L 188.41264 319.205326 
L 187.312154 319.100259 
L 186.252355 318.995192 
L 185.231739 318.890124 
L 184.248858 318.785057 
L 183.302315 318.679989 
L 182.390769 318.574922 
L 181.512924 318.469855 
L 180.667535 318.364787 
L 179.853403 318.25972 
L 179.06937 318.154653 
L 178.314325 318.049585 
L 177.587195 317.944518 
L 176.886949 317.839451 
L 176.212593 317.734383 
L 175.563169 317.629316 
L 174.937756 317.524249 
L 174.335466 317.419181 
L 173.755444 317.314114 
L 173.196866 317.209047 
L 172.65894 317.103979 
L 172.140903 316.998912 
L 171.642018 316.893845 
L 171.161579 316.788777 
L 170.698902 316.68371 
L 170.253332 316.578643 
L 169.824235 316.473575 
L 169.411003 316.368508 
L 169.013049 316.263441 
L 168.629808 316.158373 
L 168.260736 316.053306 
L 167.90531 315.948239 
L 167.563025 315.843171 
L 167.233395 315.738104 
L 166.915951 315.633037 
L 166.610245 315.527969 
L 166.315841 315.422902 
L 166.032322 315.317835 
L 165.759285 315.212767 
L 165.496343 315.1077 
L 165.243123 315.002633 
L 164.999264 314.897565 
L 164.764422 314.792498 
L 164.538262 314.687431 
L 164.320464 314.582363 
L 164.110719 314.477296 
L 163.908728 314.372229 
L 163.714205 314.267161 
L 163.526874 314.162094 
L 163.346469 314.057027 
L 163.172734 313.951959 
L 163.005423 313.846892 
L 162.844297 313.741825 
L 162.689129 313.636757 
L 162.539697 313.53169 
L 162.39579 313.426623 
L 162.257204 313.321555 
L 162.123742 313.216488 
L 161.995214 313.111421 
L 161.871438 313.006353 
L 161.752238 312.901286 
L 161.637446 312.796218 
L 161.526897 312.691151 
L 161.420436 312.586084 
L 161.317911 312.481016 
L 161.219176 312.375949 
L 161.124092 312.270882 
L 161.032523 312.165814 
L 160.94434 312.060747 
L 160.859417 311.95568 
L 160.777634 311.850612 
L 160.698875 311.745545 
L 160.623027 311.640478 
L 160.549984 311.53541 
L 160.479641 311.430343 
L 160.411899 311.325276 
L 160.346662 311.220208 
L 160.346662 311.220208 
L 160.346662 178.849924 
z
" clip-path="url(#pf7a37d3414)" style="fill: #ff7f0e; fill-opacity: 0.5"/>
     </g>
     <g id="patch_5">
      <path d="M 577.345585 72.964375 
L 577.345585 321.621875 
M 579.040483 72.964375 
L 579.040483 321.621875 
" clip-path="url(#pf7a37d3414)" style="fill: none; stroke: #ffffff; stroke-width: 3; stroke-linejoin: miter"/>
      <path d="M 577.345585 72.964375 
L 577.345585 321.621875 
M 579.040483 72.964375 
L 579.040483 321.621875 
" clip-path="url(#pf7a37d3414)" style="fill: none; stroke: #2ca02c; stroke-linejoin: miter"/>
      <g id="PolyCollection_3">
       <path d="M 579.040483 72.964375 
L 577.345585 72.964375 
L 577.345585 321.621875 
L 579.040483 321.621875 
L 579.040483 321.621875 
L 579.040483 72.964375 
z
" clip-path="url(#pf7a37d3414)" style="fill: #2ca02c; fill-opacity: 0.5"/>
      </g>
      <g id="patch_6">
       <path d="M 457.606266 231.904831 
L 457.606266 270.168867 
L 458.290865 270.168867 
L 458.290865 270.713513 
L 457.606266 270.713513 
L 457.49817 314.872647 
L 456.993174 317.451004 
L 456.352263 319.574356 
L 455.600547 321.318539 
L 455.443174 321.621875 
M 459.039441 231.904831 
L 459.039441 270.168867 
L 458.354842 270.168867 
L 458.354842 270.713513 
L 459.039441 270.713513 
L 459.147536 314.872647 
L 459.652533 317.451004 
L 460.293444 319.574356 
L 461.04516 321.318539 
L 461.202532 321.621875 
L 461.202532 321.621875 
" clip-path="url(#pf7a37d3414)" style="fill: none; stroke: #ffffff; stroke-width: 3; stroke-linejoin: miter"/>
       <path d="M 457.606266 231.904831 
L 457.606266 270.168867 
L 458.290865 270.168867 
L 458.290865 270.713513 
L 457.606266 270.713513 
L 457.49817 314.872647 
L 456.993174 317.451004 
L 456.352263 319.574356 
L 455.600547 321.318539 
L 455.443174 321.621875 
M 459.039441 231.904831 
L 459.039441 270.168867 
L 458.354842 270.168867 
L 458.354842 270.713513 
L 459.039441 270.713513 
L 459.147536 314.872647 
L 459.652533 317.451004 
L 460.293444 319.574356 
L 461.04516 321.318539 
L 461.202532 321.621875 
L 461.202532 321.621875 
" clip-path="url(#pf7a37d3414)" style="fill: none; stroke: #d62728; stroke-linejoin: miter"/>
       <g id="PolyCollection_4">
        <path d="M 459.039441 231.904831 
L 457.606266 231.904831 
L 457.606266 270.168867 
L 458.290865 270.168867 
L 458.290865 270.713513 
L 457.606266 270.713513 
L 457.606266 314.114307 
L 457.606266 314.114307 
L 457.596127 314.190141 
L 457.585844 314.265975 
L 457.575416 314.341809 
L 457.564841 314.417643 
L 457.554116 314.493477 
L 457.543239 314.569311 
L 457.532208 314.645145 
L 457.521021 314.720979 
L 457.509676 314.796813 
L 457.49817 314.872647 
L 457.486502 314.948481 
L 457.474668 315.024315 
L 457.462667 315.100149 
L 457.450497 315.175983 
L 457.438154 315.251817 
L 457.425636 315.327651 
L 457.412941 315.403485 
L 457.400067 315.479319 
L 457.387011 315.555153 
L 457.373769 315.630987 
L 457.360341 315.706821 
L 457.346722 315.782655 
L 457.332911 315.858489 
L 457.318904 315.934323 
L 457.304699 316.010157 
L 457.290293 316.085991 
L 457.275684 316.161825 
L 457.260867 316.237659 
L 457.245841 316.313493 
L 457.230603 316.389327 
L 457.215148 316.465161 
L 457.199476 316.540995 
L 457.183581 316.616829 
L 457.167461 316.692663 
L 457.151114 316.768497 
L 457.134535 316.844331 
L 457.117721 316.920166 
L 457.10067 316.996 
L 457.083377 317.071834 
L 457.06584 317.147668 
L 457.048054 317.223502 
L 457.030017 317.299336 
L 457.011725 317.37517 
L 456.993174 317.451004 
L 456.97436 317.526838 
L 456.95528 317.602672 
L 456.93593 317.678506 
L 456.916307 317.75434 
L 456.896406 317.830174 
L 456.876223 317.906008 
L 456.855754 317.981842 
L 456.834997 318.057676 
L 456.813945 318.13351 
L 456.792595 318.209344 
L 456.770944 318.285178 
L 456.748986 318.361012 
L 456.726717 318.436846 
L 456.704133 318.51268 
L 456.68123 318.588514 
L 456.658003 318.664348 
L 456.634447 318.740182 
L 456.610558 318.816016 
L 456.58633 318.89185 
L 456.56176 318.967684 
L 456.536843 319.043518 
L 456.511572 319.119352 
L 456.485944 319.195186 
L 456.459954 319.27102 
L 456.433596 319.346854 
L 456.406865 319.422688 
L 456.379755 319.498522 
L 456.352263 319.574356 
L 456.324381 319.65019 
L 456.296104 319.726024 
L 456.267428 319.801858 
L 456.238346 319.877692 
L 456.208852 319.953526 
L 456.178941 320.02936 
L 456.148607 320.105195 
L 456.117843 320.181029 
L 456.086645 320.256863 
L 456.055005 320.332697 
L 456.022917 320.408531 
L 455.990375 320.484365 
L 455.957373 320.560199 
L 455.923904 320.636033 
L 455.889961 320.711867 
L 455.855538 320.787701 
L 455.820628 320.863535 
L 455.785224 320.939369 
L 455.749319 321.015203 
L 455.712906 321.091037 
L 455.675978 321.166871 
L 455.638527 321.242705 
L 455.600547 321.318539 
L 455.562029 321.394373 
L 455.522966 321.470207 
L 455.48335 321.546041 
L 455.443174 321.621875 
L 461.202532 321.621875 
L 461.202532 321.621875 
L 461.162356 321.546041 
L 461.122741 321.470207 
L 461.083678 321.394373 
L 461.04516 321.318539 
L 461.007179 321.242705 
L 460.969729 321.166871 
L 460.9328 321.091037 
L 460.896388 321.015203 
L 460.860483 320.939369 
L 460.825079 320.863535 
L 460.790169 320.787701 
L 460.755746 320.711867 
L 460.721803 320.636033 
L 460.688334 320.560199 
L 460.655332 320.484365 
L 460.62279 320.408531 
L 460.590702 320.332697 
L 460.559062 320.256863 
L 460.527863 320.181029 
L 460.4971 320.105195 
L 460.466766 320.02936 
L 460.436855 319.953526 
L 460.407361 319.877692 
L 460.378279 319.801858 
L 460.349602 319.726024 
L 460.321326 319.65019 
L 460.293444 319.574356 
L 460.265951 319.498522 
L 460.238842 319.422688 
L 460.212111 319.346854 
L 460.185752 319.27102 
L 460.159762 319.195186 
L 460.134134 319.119352 
L 460.108864 319.043518 
L 460.083946 318.967684 
L 460.059376 318.89185 
L 460.035149 318.816016 
L 460.01126 318.740182 
L 459.987704 318.664348 
L 459.964476 318.588514 
L 459.941573 318.51268 
L 459.918989 318.436846 
L 459.896721 318.361012 
L 459.874763 318.285178 
L 459.853111 318.209344 
L 459.831762 318.13351 
L 459.81071 318.057676 
L 459.789952 317.981842 
L 459.769484 317.906008 
L 459.749301 317.830174 
L 459.7294 317.75434 
L 459.709776 317.678506 
L 459.690426 317.602672 
L 459.671346 317.526838 
L 459.652533 317.451004 
L 459.633982 317.37517 
L 459.615689 317.299336 
L 459.597652 317.223502 
L 459.579867 317.147668 
L 459.562329 317.071834 
L 459.545037 316.996 
L 459.527985 316.920166 
L 459.511172 316.844331 
L 459.494593 316.768497 
L 459.478245 316.692663 
L 459.462126 316.616829 
L 459.446231 316.540995 
L 459.430558 316.465161 
L 459.415104 316.389327 
L 459.399865 316.313493 
L 459.384839 316.237659 
L 459.370023 316.161825 
L 459.355413 316.085991 
L 459.341007 316.010157 
L 459.326802 315.934323 
L 459.312796 315.858489 
L 459.298984 315.782655 
L 459.285366 315.706821 
L 459.271937 315.630987 
L 459.258696 315.555153 
L 459.245639 315.479319 
L 459.232765 315.403485 
L 459.22007 315.327651 
L 459.207553 315.251817 
L 459.19521 315.175983 
L 459.183039 315.100149 
L 459.171038 315.024315 
L 459.159205 314.948481 
L 459.147536 314.872647 
L 459.13603 314.796813 
L 459.124685 314.720979 
L 459.113499 314.645145 
L 459.102468 314.569311 
L 459.091591 314.493477 
L 459.080866 314.417643 
L 459.07029 314.341809 
L 459.059862 314.265975 
L 459.04958 314.190141 
L 459.039441 314.114307 
L 459.039441 314.114307 
L 459.039441 270.713513 
L 458.354842 270.713513 
L 458.354842 270.168867 
L 459.039441 270.168867 
L 459.039441 231.904831 
z
" clip-path="url(#pf7a37d3414)" style="fill: #d62728; fill-opacity: 0.5"/>
       </g>
       <g id="matplotlib.axis_1">
        <g id="xtick_1">
         <g id="line2d_1"/>
         <g id="text_1">
          <!-- OUT -->
          <g transform="translate(147.998183 332.720312) scale(0.1 -0.1)">
           <defs>
            <path id="DejaVuSans-4f" d="M 2522 4238 
Q 1834 4238 1429 3725 
Q 1025 3213 1025 2328 
Q 1025 1447 1429 934 
Q 1834 422 2522 422 
Q 3209 422 3611 934 
Q 4013 1447 4013 2328 
Q 4013 3213 3611 3725 
Q 3209 4238 2522 4238 
z
M 2522 4750 
Q 3503 4750 4090 4092 
Q 4678 3434 4678 2328 
Q 4678 1225 4090 567 
Q 3503 -91 2522 -91 
Q 1538 -91 948 565 
Q 359 1222 359 2328 
Q 359 3434 948 4092 
Q 1538 4750 2522 4750 
z
" transform="scale(0.015625)"/>
            <path id="DejaVuSans-55" d="M 556 4666 
L 1191 4666 
L 1191 1831 
Q 1191 1081 1462 751 
Q 1734 422 2344 422 
Q 2950 422 3222 751 
Q 3494 1081 3494 1831 
L 3494 4666 
L 4128 4666 
L 4128 1753 
Q 4128 841 3676 375 
Q 3225 -91 2344 -91 
Q 1459 -91 1007 375 
Q 556 841 556 1753 
L 556 4666 
z
" transform="scale(0.015625)"/>
            <path id="DejaVuSans-54" d="M -19 4666 
L 3928 4666 
L 3928 4134 
L 2272 4134 
L 2272 0 
L 1638 0 
L 1638 4134 
L -19 4134 
L -19 4666 
z
" transform="scale(0.015625)"/>
           </defs>
           <use xlink:href="#DejaVuSans-4f"/>
           <use xlink:href="#DejaVuSans-55" x="78.710938"/>
           <use xlink:href="#DejaVuSans-54" x="151.904297"/>
          </g>
         </g>
        </g>
        <g id="xtick_2">
         <g id="line2d_2"/>
         <g id="text_2">
          <!-- SRC -->
          <g transform="translate(568.30319 332.720312) scale(0.1 -0.1)">
           <defs>
            <path id="DejaVuSans-53" d="M 3425 4513 
L 3425 3897 
Q 3066 4069 2747 4153 
Q 2428 4238 2131 4238 
Q 1616 4238 1336 4038 
Q 1056 3838 1056 3469 
Q 1056 3159 1242 3001 
Q 1428 2844 1947 2747 
L 2328 2669 
Q 3034 2534 3370 2195 
Q 3706 1856 3706 1288 
Q 3706 609 3251 259 
Q 2797 -91 1919 -91 
Q 1588 -91 1214 -16 
Q 841 59 441 206 
L 441 856 
Q 825 641 1194 531 
Q 1563 422 1919 422 
Q 2459 422 2753 634 
Q 3047 847 3047 1241 
Q 3047 1584 2836 1778 
Q 2625 1972 2144 2069 
L 1759 2144 
Q 1053 2284 737 2584 
Q 422 2884 422 3419 
Q 422 4038 858 4394 
Q 1294 4750 2059 4750 
Q 2388 4750 2728 4690 
Q 3069 4631 3425 4513 
z
" transform="scale(0.015625)"/>
            <path id="DejaVuSans-52" d="M 2841 2188 
Q 3044 2119 3236 1894 
Q 3428 1669 3622 1275 
L 4263 0 
L 3584 0 
L 2988 1197 
Q 2756 1666 2539 1819 
Q 2322 1972 1947 1972 
L 1259 1972 
L 1259 0 
L 628 0 
L 628 4666 
L 2053 4666 
Q 2853 4666 3247 4331 
Q 3641 3997 3641 3322 
Q 3641 2881 3436 2590 
Q 3231 2300 2841 2188 
z
M 1259 4147 
L 1259 2491 
L 2053 2491 
Q 2509 2491 2742 2702 
Q 2975 2913 2975 3322 
Q 2975 3731 2742 3939 
Q 2509 4147 2053 4147 
L 1259 4147 
z
" transform="scale(0.015625)"/>
            <path id="DejaVuSans-43" d="M 4122 4306 
L 4122 3641 
Q 3803 3938 3442 4084 
Q 3081 4231 2675 4231 
Q 1875 4231 1450 3742 
Q 1025 3253 1025 2328 
Q 1025 1406 1450 917 
Q 1875 428 2675 428 
Q 3081 428 3442 575 
Q 3803 722 4122 1019 
L 4122 359 
Q 3791 134 3420 21 
Q 3050 -91 2638 -91 
Q 1578 -91 968 557 
Q 359 1206 359 2328 
Q 359 3453 968 4101 
Q 1578 4750 2638 4750 
Q 3056 4750 3426 4639 
Q 3797 4528 4122 4306 
z
" transform="scale(0.015625)"/>
           </defs>
           <use xlink:href="#DejaVuSans-53"/>
           <use xlink:href="#DejaVuSans-52" x="63.476562"/>
           <use xlink:href="#DejaVuSans-43" x="127.958984"/>
          </g>
         </g>
        </g>
        <g id="xtick_3">
         <g id="line2d_3"/>
         <g id="text_3">
          <!-- TAR -->
          <g transform="translate(448.761916 332.720312) scale(0.1 -0.1)">
           <defs>
            <path id="DejaVuSans-41" d="M 2188 4044 
L 1331 1722 
L 3047 1722 
L 2188 4044 
z
M 1831 4666 
L 2547 4666 
L 4325 0 
L 3669 0 
L 3244 1197 
L 1141 1197 
L 716 0 
L 50 0 
L 1831 4666 
z
" transform="scale(0.015625)"/>
           </defs>
           <use xlink:href="#DejaVuSans-54"/>
           <use xlink:href="#DejaVuSans-41" x="53.333984"/>
           <use xlink:href="#DejaVuSans-52" x="121.742188"/>
          </g>
         </g>
        </g>
       </g>
       <g id="matplotlib.axis_2">
        <g id="ytick_1">
         <g id="line2d_4">
          <defs>
           <path id="mf114b0f42c" d="M 0 0 
L -3.5 0 
" style="stroke: #000000; stroke-width: 0.8"/>
          </defs>
          <g>
           <use xlink:href="#mf114b0f42c" x="63.290625" y="321.621875" style="stroke: #000000; stroke-width: 0.8"/>
          </g>
         </g>
         <g id="text_4">
          <!-- 0 -->
          <g transform="translate(49.928125 325.421094) scale(0.1 -0.1)">
           <defs>
            <path id="DejaVuSans-30" d="M 2034 4250 
Q 1547 4250 1301 3770 
Q 1056 3291 1056 2328 
Q 1056 1369 1301 889 
Q 1547 409 2034 409 
Q 2525 409 2770 889 
Q 3016 1369 3016 2328 
Q 3016 3291 2770 3770 
Q 2525 4250 2034 4250 
z
M 2034 4750 
Q 2819 4750 3233 4129 
Q 3647 3509 3647 2328 
Q 3647 1150 3233 529 
Q 2819 -91 2034 -91 
Q 1250 -91 836 529 
Q 422 1150 422 2328 
Q 422 3509 836 4129 
Q 1250 4750 2034 4750 
z
" transform="scale(0.015625)"/>
           </defs>
           <use xlink:href="#DejaVuSans-30"/>
          </g>
         </g>
        </g>
        <g id="ytick_2">
         <g id="line2d_5">
          <g>
           <use xlink:href="#mf114b0f42c" x="63.290625" y="268.225229" style="stroke: #000000; stroke-width: 0.8"/>
          </g>
         </g>
         <g id="text_5">
          <!-- 5000 -->
          <g transform="translate(30.840625 272.024448) scale(0.1 -0.1)">
           <defs>
            <path id="DejaVuSans-35" d="M 691 4666 
L 3169 4666 
L 3169 4134 
L 1269 4134 
L 1269 2991 
Q 1406 3038 1543 3061 
Q 1681 3084 1819 3084 
Q 2600 3084 3056 2656 
Q 3513 2228 3513 1497 
Q 3513 744 3044 326 
Q 2575 -91 1722 -91 
Q 1428 -91 1123 -41 
Q 819 9 494 109 
L 494 744 
Q 775 591 1075 516 
Q 1375 441 1709 441 
Q 2250 441 2565 725 
Q 2881 1009 2881 1497 
Q 2881 1984 2565 2268 
Q 2250 2553 1709 2553 
Q 1456 2553 1204 2497 
Q 953 2441 691 2322 
L 691 4666 
z
" transform="scale(0.015625)"/>
           </defs>
           <use xlink:href="#DejaVuSans-35"/>
           <use xlink:href="#DejaVuSans-30" x="63.623047"/>
           <use xlink:href="#DejaVuSans-30" x="127.246094"/>
           <use xlink:href="#DejaVuSans-30" x="190.869141"/>
          </g>
         </g>
        </g>
        <g id="ytick_3">
         <g id="line2d_6">
          <g>
           <use xlink:href="#mf114b0f42c" x="63.290625" y="214.828583" style="stroke: #000000; stroke-width: 0.8"/>
          </g>
         </g>
         <g id="text_6">
          <!-- 10000 -->
          <g transform="translate(24.478125 218.627802) scale(0.1 -0.1)">
           <defs>
            <path id="DejaVuSans-31" d="M 794 531 
L 1825 531 
L 1825 4091 
L 703 3866 
L 703 4441 
L 1819 4666 
L 2450 4666 
L 2450 531 
L 3481 531 
L 3481 0 
L 794 0 
L 794 531 
z
" transform="scale(0.015625)"/>
           </defs>
           <use xlink:href="#DejaVuSans-31"/>
           <use xlink:href="#DejaVuSans-30" x="63.623047"/>
           <use xlink:href="#DejaVuSans-30" x="127.246094"/>
           <use xlink:href="#DejaVuSans-30" x="190.869141"/>
           <use xlink:href="#DejaVuSans-30" x="254.492188"/>
          </g>
         </g>
        </g>
        <g id="ytick_4">
         <g id="line2d_7">
          <g>
           <use xlink:href="#mf114b0f42c" x="63.290625" y="161.431938" style="stroke: #000000; stroke-width: 0.8"/>
          </g>
         </g>
         <g id="text_7">
          <!-- 15000 -->
          <g transform="translate(24.478125 165.231156) scale(0.1 -0.1)">
           <use xlink:href="#DejaVuSans-31"/>
           <use xlink:href="#DejaVuSans-35" x="63.623047"/>
           <use xlink:href="#DejaVuSans-30" x="127.246094"/>
           <use xlink:href="#DejaVuSans-30" x="190.869141"/>
           <use xlink:href="#DejaVuSans-30" x="254.492188"/>
          </g>
         </g>
        </g>
        <g id="ytick_5">
         <g id="line2d_8">
          <g>
           <use xlink:href="#mf114b0f42c" x="63.290625" y="108.035292" style="stroke: #000000; stroke-width: 0.8"/>
          </g>
         </g>
         <g id="text_8">
          <!-- 20000 -->
          <g transform="translate(24.478125 111.834511) scale(0.1 -0.1)">
           <defs>
            <path id="DejaVuSans-32" d="M 1228 531 
L 3431 531 
L 3431 0 
L 469 0 
L 469 531 
Q 828 903 1448 1529 
Q 2069 2156 2228 2338 
Q 2531 2678 2651 2914 
Q 2772 3150 2772 3378 
Q 2772 3750 2511 3984 
Q 2250 4219 1831 4219 
Q 1534 4219 1204 4116 
Q 875 4013 500 3803 
L 500 4441 
Q 881 4594 1212 4672 
Q 1544 4750 1819 4750 
Q 2544 4750 2975 4387 
Q 3406 4025 3406 3419 
Q 3406 3131 3298 2873 
Q 3191 2616 2906 2266 
Q 2828 2175 2409 1742 
Q 1991 1309 1228 531 
z
" transform="scale(0.015625)"/>
           </defs>
           <use xlink:href="#DejaVuSans-32"/>
           <use xlink:href="#DejaVuSans-30" x="63.623047"/>
           <use xlink:href="#DejaVuSans-30" x="127.246094"/>
           <use xlink:href="#DejaVuSans-30" x="190.869141"/>
           <use xlink:href="#DejaVuSans-30" x="254.492188"/>
          </g>
         </g>
        </g>
        <g id="ytick_6">
         <g id="line2d_9">
          <g>
           <use xlink:href="#mf114b0f42c" x="63.290625" y="54.638646" style="stroke: #000000; stroke-width: 0.8"/>
          </g>
         </g>
         <g id="text_9">
          <!-- 25000 -->
          <g transform="translate(24.478125 58.437865) scale(0.1 -0.1)">
           <use xlink:href="#DejaVuSans-32"/>
           <use xlink:href="#DejaVuSans-35" x="63.623047"/>
           <use xlink:href="#DejaVuSans-30" x="127.246094"/>
           <use xlink:href="#DejaVuSans-30" x="190.869141"/>
           <use xlink:href="#DejaVuSans-30" x="254.492188"/>
          </g>
         </g>
        </g>
        <g id="text_10">
         <!-- time ago (generations) -->
         <g transform="translate(18.398438 223.682031) rotate(-90) scale(0.1 -0.1)">
          <defs>
           <path id="DejaVuSans-74" d="M 1172 4494 
L 1172 3500 
L 2356 3500 
L 2356 3053 
L 1172 3053 
L 1172 1153 
Q 1172 725 1289 603 
Q 1406 481 1766 481 
L 2356 481 
L 2356 0 
L 1766 0 
Q 1100 0 847 248 
Q 594 497 594 1153 
L 594 3053 
L 172 3053 
L 172 3500 
L 594 3500 
L 594 4494 
L 1172 4494 
z
" transform="scale(0.015625)"/>
           <path id="DejaVuSans-69" d="M 603 3500 
L 1178 3500 
L 1178 0 
L 603 0 
L 603 3500 
z
M 603 4863 
L 1178 4863 
L 1178 4134 
L 603 4134 
L 603 4863 
z
" transform="scale(0.015625)"/>
           <path id="DejaVuSans-6d" d="M 3328 2828 
Q 3544 3216 3844 3400 
Q 4144 3584 4550 3584 
Q 5097 3584 5394 3201 
Q 5691 2819 5691 2113 
L 5691 0 
L 5113 0 
L 5113 2094 
Q 5113 2597 4934 2840 
Q 4756 3084 4391 3084 
Q 3944 3084 3684 2787 
Q 3425 2491 3425 1978 
L 3425 0 
L 2847 0 
L 2847 2094 
Q 2847 2600 2669 2842 
Q 2491 3084 2119 3084 
Q 1678 3084 1418 2786 
Q 1159 2488 1159 1978 
L 1159 0 
L 581 0 
L 581 3500 
L 1159 3500 
L 1159 2956 
Q 1356 3278 1631 3431 
Q 1906 3584 2284 3584 
Q 2666 3584 2933 3390 
Q 3200 3197 3328 2828 
z
" transform="scale(0.015625)"/>
           <path id="DejaVuSans-65" d="M 3597 1894 
L 3597 1613 
L 953 1613 
Q 991 1019 1311 708 
Q 1631 397 2203 397 
Q 2534 397 2845 478 
Q 3156 559 3463 722 
L 3463 178 
Q 3153 47 2828 -22 
Q 2503 -91 2169 -91 
Q 1331 -91 842 396 
Q 353 884 353 1716 
Q 353 2575 817 3079 
Q 1281 3584 2069 3584 
Q 2775 3584 3186 3129 
Q 3597 2675 3597 1894 
z
M 3022 2063 
Q 3016 2534 2758 2815 
Q 2500 3097 2075 3097 
Q 1594 3097 1305 2825 
Q 1016 2553 972 2059 
L 3022 2063 
z
" transform="scale(0.015625)"/>
           <path id="DejaVuSans-20" transform="scale(0.015625)"/>
           <path id="DejaVuSans-61" d="M 2194 1759 
Q 1497 1759 1228 1600 
Q 959 1441 959 1056 
Q 959 750 1161 570 
Q 1363 391 1709 391 
Q 2188 391 2477 730 
Q 2766 1069 2766 1631 
L 2766 1759 
L 2194 1759 
z
M 3341 1997 
L 3341 0 
L 2766 0 
L 2766 531 
Q 2569 213 2275 61 
Q 1981 -91 1556 -91 
Q 1019 -91 701 211 
Q 384 513 384 1019 
Q 384 1609 779 1909 
Q 1175 2209 1959 2209 
L 2766 2209 
L 2766 2266 
Q 2766 2663 2505 2880 
Q 2244 3097 1772 3097 
Q 1472 3097 1187 3025 
Q 903 2953 641 2809 
L 641 3341 
Q 956 3463 1253 3523 
Q 1550 3584 1831 3584 
Q 2591 3584 2966 3190 
Q 3341 2797 3341 1997 
z
" transform="scale(0.015625)"/>
           <path id="DejaVuSans-67" d="M 2906 1791 
Q 2906 2416 2648 2759 
Q 2391 3103 1925 3103 
Q 1463 3103 1205 2759 
Q 947 2416 947 1791 
Q 947 1169 1205 825 
Q 1463 481 1925 481 
Q 2391 481 2648 825 
Q 2906 1169 2906 1791 
z
M 3481 434 
Q 3481 -459 3084 -895 
Q 2688 -1331 1869 -1331 
Q 1566 -1331 1297 -1286 
Q 1028 -1241 775 -1147 
L 775 -588 
Q 1028 -725 1275 -790 
Q 1522 -856 1778 -856 
Q 2344 -856 2625 -561 
Q 2906 -266 2906 331 
L 2906 616 
Q 2728 306 2450 153 
Q 2172 0 1784 0 
Q 1141 0 747 490 
Q 353 981 353 1791 
Q 353 2603 747 3093 
Q 1141 3584 1784 3584 
Q 2172 3584 2450 3431 
Q 2728 3278 2906 2969 
L 2906 3500 
L 3481 3500 
L 3481 434 
z
" transform="scale(0.015625)"/>
           <path id="DejaVuSans-6f" d="M 1959 3097 
Q 1497 3097 1228 2736 
Q 959 2375 959 1747 
Q 959 1119 1226 758 
Q 1494 397 1959 397 
Q 2419 397 2687 759 
Q 2956 1122 2956 1747 
Q 2956 2369 2687 2733 
Q 2419 3097 1959 3097 
z
M 1959 3584 
Q 2709 3584 3137 3096 
Q 3566 2609 3566 1747 
Q 3566 888 3137 398 
Q 2709 -91 1959 -91 
Q 1206 -91 779 398 
Q 353 888 353 1747 
Q 353 2609 779 3096 
Q 1206 3584 1959 3584 
z
" transform="scale(0.015625)"/>
           <path id="DejaVuSans-28" d="M 1984 4856 
Q 1566 4138 1362 3434 
Q 1159 2731 1159 2009 
Q 1159 1288 1364 580 
Q 1569 -128 1984 -844 
L 1484 -844 
Q 1016 -109 783 600 
Q 550 1309 550 2009 
Q 550 2706 781 3412 
Q 1013 4119 1484 4856 
L 1984 4856 
z
" transform="scale(0.015625)"/>
           <path id="DejaVuSans-6e" d="M 3513 2113 
L 3513 0 
L 2938 0 
L 2938 2094 
Q 2938 2591 2744 2837 
Q 2550 3084 2163 3084 
Q 1697 3084 1428 2787 
Q 1159 2491 1159 1978 
L 1159 0 
L 581 0 
L 581 3500 
L 1159 3500 
L 1159 2956 
Q 1366 3272 1645 3428 
Q 1925 3584 2291 3584 
Q 2894 3584 3203 3211 
Q 3513 2838 3513 2113 
z
" transform="scale(0.015625)"/>
           <path id="DejaVuSans-72" d="M 2631 2963 
Q 2534 3019 2420 3045 
Q 2306 3072 2169 3072 
Q 1681 3072 1420 2755 
Q 1159 2438 1159 1844 
L 1159 0 
L 581 0 
L 581 3500 
L 1159 3500 
L 1159 2956 
Q 1341 3275 1631 3429 
Q 1922 3584 2338 3584 
Q 2397 3584 2469 3576 
Q 2541 3569 2628 3553 
L 2631 2963 
z
" transform="scale(0.015625)"/>
           <path id="DejaVuSans-73" d="M 2834 3397 
L 2834 2853 
Q 2591 2978 2328 3040 
Q 2066 3103 1784 3103 
Q 1356 3103 1142 2972 
Q 928 2841 928 2578 
Q 928 2378 1081 2264 
Q 1234 2150 1697 2047 
L 1894 2003 
Q 2506 1872 2764 1633 
Q 3022 1394 3022 966 
Q 3022 478 2636 193 
Q 2250 -91 1575 -91 
Q 1294 -91 989 -36 
Q 684 19 347 128 
L 347 722 
Q 666 556 975 473 
Q 1284 391 1588 391 
Q 1994 391 2212 530 
Q 2431 669 2431 922 
Q 2431 1156 2273 1281 
Q 2116 1406 1581 1522 
L 1381 1569 
Q 847 1681 609 1914 
Q 372 2147 372 2553 
Q 372 3047 722 3315 
Q 1072 3584 1716 3584 
Q 2034 3584 2315 3537 
Q 2597 3491 2834 3397 
z
" transform="scale(0.015625)"/>
           <path id="DejaVuSans-29" d="M 513 4856 
L 1013 4856 
Q 1481 4119 1714 3412 
Q 1947 2706 1947 2009 
Q 1947 1309 1714 600 
Q 1481 -109 1013 -844 
L 513 -844 
Q 928 -128 1133 580 
Q 1338 1288 1338 2009 
Q 1338 2731 1133 3434 
Q 928 4138 513 4856 
z
" transform="scale(0.015625)"/>
          </defs>
          <use xlink:href="#DejaVuSans-74"/>
          <use xlink:href="#DejaVuSans-69" x="39.208984"/>
          <use xlink:href="#DejaVuSans-6d" x="66.992188"/>
          <use xlink:href="#DejaVuSans-65" x="164.404297"/>
          <use xlink:href="#DejaVuSans-20" x="225.927734"/>
          <use xlink:href="#DejaVuSans-61" x="257.714844"/>
          <use xlink:href="#DejaVuSans-67" x="318.994141"/>
          <use xlink:href="#DejaVuSans-6f" x="382.470703"/>
          <use xlink:href="#DejaVuSans-20" x="443.652344"/>
          <use xlink:href="#DejaVuSans-28" x="475.439453"/>
          <use xlink:href="#DejaVuSans-67" x="514.453125"/>
          <use xlink:href="#DejaVuSans-65" x="577.929688"/>
          <use xlink:href="#DejaVuSans-6e" x="639.453125"/>
          <use xlink:href="#DejaVuSans-65" x="702.832031"/>
          <use xlink:href="#DejaVuSans-72" x="764.355469"/>
          <use xlink:href="#DejaVuSans-61" x="805.46875"/>
          <use xlink:href="#DejaVuSans-74" x="866.748047"/>
          <use xlink:href="#DejaVuSans-69" x="905.957031"/>
          <use xlink:href="#DejaVuSans-6f" x="933.740234"/>
          <use xlink:href="#DejaVuSans-6e" x="994.921875"/>
          <use xlink:href="#DejaVuSans-73" x="1058.300781"/>
          <use xlink:href="#DejaVuSans-29" x="1110.400391"/>
         </g>
        </g>
       </g>
       <g id="patch_7">
        <path d="M 331.562732 178.849924 
L 330.562732 178.818487 
L 329.562732 178.781547 
L 328.562732 178.6838 
L 327.562732 178.651279 
L 326.562732 178.577654 
L 325.562732 178.539088 
L 324.562732 178.503675 
L 323.562732 178.446035 
L 322.562732 178.375649 
L 321.562732 178.323685 
L 320.562732 178.264595 
L 319.562732 178.176274 
L 318.562732 178.13013 
L 317.562732 178.087719 
L 316.562732 178.057226 
L 315.562732 178.031181 
L 314.562732 178.009981 
L 313.562732 177.95568 
L 312.562732 177.927743 
L 311.562732 177.898019 
L 310.562732 177.872624 
L 309.562732 177.861423 
L 308.562732 177.851299 
L 307.562732 177.851504 
L 306.562732 177.861014 
L 305.562732 177.872667 
L 304.562732 177.903696 
L 303.562732 177.914864 
L 302.562732 177.944982 
L 301.562732 178.004759 
L 300.562732 178.04195 
L 299.562732 178.081046 
L 298.562732 178.123486 
L 297.562732 178.156251 
L 296.562732 178.223678 
L 295.562732 178.262804 
L 294.562732 178.305478 
L 293.562732 178.376059 
L 292.562732 178.41245 
L 291.562732 178.470853 
L 290.562732 178.581805 
L 289.562732 178.652464 
L 288.562732 178.765403 
L 287.562732 178.811176 
L 286.562732 178.87246 
L 285.562732 178.920959 
L 284.562732 179.001782 
L 283.562732 179.120301 
L 282.562732 179.190511 
L 281.562732 179.273774 
L 280.562732 179.306915 
L 279.562732 179.358153 
L 278.562732 179.426551 
L 277.562732 179.492767 
L 276.562732 179.569684 
L 275.562732 179.596999 
L 274.562732 179.623477 
L 273.562732 179.646127 
L 272.562732 179.665659 
L 271.562732 179.692052 
L 270.562732 179.741823 
L 269.562732 179.776896 
L 268.562732 179.812762 
L 267.562732 179.828129 
L 266.562732 179.843899 
L 265.562732 179.847311 
L 264.562732 179.849729 
L 263.562732 179.849243 
L 262.562732 179.847313 
L 261.562732 179.834056 
L 260.562732 179.825666 
L 259.562732 179.804129 
L 258.562732 179.781097 
L 257.562732 179.763863 
L 256.562732 179.745401 
L 255.562732 179.724948 
L 254.562732 179.708348 
L 253.562732 179.64557 
L 252.562732 179.570305 
L 251.562732 179.537665 
L 250.562732 179.470102 
L 249.562732 179.416055 
L 248.562732 179.38235 
L 247.562732 179.292224 
L 246.562732 179.26369 
L 245.562732 179.232203 
L 244.562732 179.201193 
L 243.562732 179.146385 
L 242.562732 179.081797 
L 241.562732 179.043602 
L 240.562732 178.947668 
L 239.562732 178.89841 
L 238.562732 178.85434 
L 237.562732 178.814217 
L 236.562732 178.70585 
L 235.562732 178.664221 
L 234.562732 178.60208 
L 233.562732 178.532118 
L 232.562732 178.427613 
L 231.562732 178.390626 
L 230.562732 178.344748 
L 229.562732 178.276254 
L 228.562732 178.227508 
L 227.562732 178.14991 
L 226.562732 178.11937 
L 225.562732 178.049855 
L 224.562732 178.025882 
L 223.562732 177.997261 
L 222.562732 177.955468 
L 221.562732 177.933892 
L 220.562732 177.919944 
L 219.562732 177.893221 
L 218.562732 177.883911 
L 217.562732 177.871465 
L 216.562732 177.86041 
L 215.562732 177.854745 
L 214.562732 177.849982 
L 213.562732 177.855529 
L 212.562732 177.868817 
L 211.562732 177.876335 
L 210.562732 177.90112 
L 209.562732 177.924688 
L 208.562732 177.960869 
L 207.562732 177.986831 
L 206.562732 178.009152 
L 205.562732 178.077912 
L 204.562732 178.152447 
L 203.562732 178.246427 
L 202.562732 178.297479 
L 201.562732 178.351412 
L 200.562732 178.386663 
L 199.562732 178.492751 
L 198.562732 178.545015 
L 197.562732 178.581922 
L 196.562732 178.612953 
L 195.562732 178.674109 
L 194.562732 178.741529 
L 193.562732 178.790434 
L 192.562732 178.855627 
L 191.562732 178.893814 
L 190.562732 178.93581 
L 189.562732 178.977828 
L 188.562732 179.037344 
L 187.562732 179.150504 
L 186.562732 179.202755 
L 185.562732 179.242172 
L 184.562732 179.289274 
L 183.562732 179.346053 
L 182.562732 179.378716 
L 181.562732 179.414894 
L 180.562732 179.446985 
L 179.562732 179.481265 
L 178.562732 179.539642 
L 177.562732 179.584827 
L 176.562732 179.614451 
L 175.562732 179.664837 
L 174.562732 179.690035 
L 173.562732 179.711086 
L 172.562732 179.746054 
L 171.562732 179.770344 
L 170.562732 179.784411 
L 169.562732 179.803352 
L 168.562732 179.819014 
L 167.562732 179.831566 
L 166.562732 179.837401 
L 165.562732 179.844284 
L 164.562732 179.849457 
L 163.463297 179.847675 
" clip-path="url(#pf7a37d3414)" style="fill: none; stroke: #ffffff; stroke-width: 3; stroke-linecap: round"/>
        <path d="M 331.562732 178.849924 
L 330.562732 178.818487 
L 329.562732 178.781547 
L 328.562732 178.6838 
L 327.562732 178.651279 
L 326.562732 178.577654 
L 325.562732 178.539088 
L 324.562732 178.503675 
L 323.562732 178.446035 
L 322.562732 178.375649 
L 321.562732 178.323685 
L 320.562732 178.264595 
L 319.562732 178.176274 
L 318.562732 178.13013 
L 317.562732 178.087719 
L 316.562732 178.057226 
L 315.562732 178.031181 
L 314.562732 178.009981 
L 313.562732 177.95568 
L 312.562732 177.927743 
L 311.562732 177.898019 
L 310.562732 177.872624 
L 309.562732 177.861423 
L 308.562732 177.851299 
L 307.562732 177.851504 
L 306.562732 177.861014 
L 305.562732 177.872667 
L 304.562732 177.903696 
L 303.562732 177.914864 
L 302.562732 177.944982 
L 301.562732 178.004759 
L 300.562732 178.04195 
L 299.562732 178.081046 
L 298.562732 178.123486 
L 297.562732 178.156251 
L 296.562732 178.223678 
L 295.562732 178.262804 
L 294.562732 178.305478 
L 293.562732 178.376059 
L 292.562732 178.41245 
L 291.562732 178.470853 
L 290.562732 178.581805 
L 289.562732 178.652464 
L 288.562732 178.765403 
L 287.562732 178.811176 
L 286.562732 178.87246 
L 285.562732 178.920959 
L 284.562732 179.001782 
L 283.562732 179.120301 
L 282.562732 179.190511 
L 281.562732 179.273774 
L 280.562732 179.306915 
L 279.562732 179.358153 
L 278.562732 179.426551 
L 277.562732 179.492767 
L 276.562732 179.569684 
L 275.562732 179.596999 
L 274.562732 179.623477 
L 273.562732 179.646127 
L 272.562732 179.665659 
L 271.562732 179.692052 
L 270.562732 179.741823 
L 269.562732 179.776896 
L 268.562732 179.812762 
L 267.562732 179.828129 
L 266.562732 179.843899 
L 265.562732 179.847311 
L 264.562732 179.849729 
L 263.562732 179.849243 
L 262.562732 179.847313 
L 261.562732 179.834056 
L 260.562732 179.825666 
L 259.562732 179.804129 
L 258.562732 179.781097 
L 257.562732 179.763863 
L 256.562732 179.745401 
L 255.562732 179.724948 
L 254.562732 179.708348 
L 253.562732 179.64557 
L 252.562732 179.570305 
L 251.562732 179.537665 
L 250.562732 179.470102 
L 249.562732 179.416055 
L 248.562732 179.38235 
L 247.562732 179.292224 
L 246.562732 179.26369 
L 245.562732 179.232203 
L 244.562732 179.201193 
L 243.562732 179.146385 
L 242.562732 179.081797 
L 241.562732 179.043602 
L 240.562732 178.947668 
L 239.562732 178.89841 
L 238.562732 178.85434 
L 237.562732 178.814217 
L 236.562732 178.70585 
L 235.562732 178.664221 
L 234.562732 178.60208 
L 233.562732 178.532118 
L 232.562732 178.427613 
L 231.562732 178.390626 
L 230.562732 178.344748 
L 229.562732 178.276254 
L 228.562732 178.227508 
L 227.562732 178.14991 
L 226.562732 178.11937 
L 225.562732 178.049855 
L 224.562732 178.025882 
L 223.562732 177.997261 
L 222.562732 177.955468 
L 221.562732 177.933892 
L 220.562732 177.919944 
L 219.562732 177.893221 
L 218.562732 177.883911 
L 217.562732 177.871465 
L 216.562732 177.86041 
L 215.562732 177.854745 
L 214.562732 177.849982 
L 213.562732 177.855529 
L 212.562732 177.868817 
L 211.562732 177.876335 
L 210.562732 177.90112 
L 209.562732 177.924688 
L 208.562732 177.960869 
L 207.562732 177.986831 
L 206.562732 178.009152 
L 205.562732 178.077912 
L 204.562732 178.152447 
L 203.562732 178.246427 
L 202.562732 178.297479 
L 201.562732 178.351412 
L 200.562732 178.386663 
L 199.562732 178.492751 
L 198.562732 178.545015 
L 197.562732 178.581922 
L 196.562732 178.612953 
L 195.562732 178.674109 
L 194.562732 178.741529 
L 193.562732 178.790434 
L 192.562732 178.855627 
L 191.562732 178.893814 
L 190.562732 178.93581 
L 189.562732 178.977828 
L 188.562732 179.037344 
L 187.562732 179.150504 
L 186.562732 179.202755 
L 185.562732 179.242172 
L 184.562732 179.289274 
L 183.562732 179.346053 
L 182.562732 179.378716 
L 181.562732 179.414894 
L 180.562732 179.446985 
L 179.562732 179.481265 
L 178.562732 179.539642 
L 177.562732 179.584827 
L 176.562732 179.614451 
L 175.562732 179.664837 
L 174.562732 179.690035 
L 173.562732 179.711086 
L 172.562732 179.746054 
L 171.562732 179.770344 
L 170.562732 179.784411 
L 169.562732 179.803352 
L 168.562732 179.819014 
L 167.562732 179.831566 
L 166.562732 179.837401 
L 165.562732 179.844284 
L 164.562732 179.849457 
L 163.463297 179.847675 
" clip-path="url(#pf7a37d3414)" style="fill: none; stroke: #1f77b4; stroke-linecap: round"/>
        <path d="M 167.463297 180.849924 
L 166.582928 180.374592 
L 165.705021 179.894338 
L 164.854308 179.359698 
L 163.552133 178.67225 
L 164.479486 178.646235 
L 165.391161 178.233516 
L 166.301425 177.817977 
L 167.643921 177.211172 
L 166.989022 177.849924 
L 166.937058 178.849924 
L 166.877968 180.849924 
z
" clip-path="url(#pf7a37d3414)" style="fill: #ffffff; stroke: #ffffff; stroke-width: 3; stroke-linecap: round"/>
        <path d="M 167.463297 180.849924 
L 166.582928 180.374592 
L 165.705021 179.894338 
L 164.854308 179.359698 
L 163.552133 178.67225 
L 164.479486 178.646235 
L 165.391161 178.233516 
L 166.301425 177.817977 
L 167.643921 177.211172 
L 166.989022 177.849924 
L 166.937058 178.849924 
L 166.877968 180.849924 
z
" clip-path="url(#pf7a37d3414)" style="fill: #ffffff; stroke: #1f77b4; stroke-linecap: round"/>
        <g id="patch_8">
         <path d="M 345.344917 72.964375 
L 346.344917 72.995811 
L 347.344917 73.032752 
L 348.344917 73.130498 
L 349.344917 73.16302 
L 350.344917 73.236645 
L 351.344917 73.27521 
L 352.344917 73.310623 
L 353.344917 73.368263 
L 354.344917 73.438649 
L 355.344917 73.490614 
L 356.344917 73.549703 
L 357.344917 73.638024 
L 358.344917 73.684169 
L 359.344917 73.72658 
L 360.344917 73.757072 
L 361.344917 73.783117 
L 362.344917 73.804317 
L 363.344917 73.858618 
L 364.344917 73.886556 
L 365.344917 73.91628 
L 366.344917 73.941675 
L 367.344917 73.952875 
L 368.344917 73.962999 
L 369.344917 73.962795 
L 370.344917 73.953285 
L 371.344917 73.941631 
L 372.344917 73.910602 
L 373.344917 73.899434 
L 374.344917 73.869317 
L 375.344917 73.80954 
L 376.344917 73.772348 
L 377.344917 73.733252 
L 378.344917 73.690812 
L 379.344917 73.658047 
L 380.344917 73.590621 
L 381.344917 73.551495 
L 382.344917 73.50882 
L 383.344917 73.43824 
L 384.344917 73.401849 
L 385.344917 73.343446 
L 386.344917 73.232493 
L 387.344917 73.161835 
L 388.344917 73.048895 
L 389.344917 73.003122 
L 390.344917 72.941839 
L 391.344917 72.89334 
L 392.344917 72.812517 
L 393.344917 72.693998 
L 394.344917 72.623787 
L 395.344917 72.540525 
L 396.344917 72.507383 
L 397.344917 72.456146 
L 398.344917 72.387747 
L 399.344917 72.321532 
L 400.344917 72.244615 
L 401.344917 72.217299 
L 402.344917 72.190822 
L 403.344917 72.168171 
L 404.344917 72.14864 
L 405.344917 72.122246 
L 406.344917 72.072475 
L 407.344917 72.037402 
L 408.344917 72.001536 
L 409.344917 71.986169 
L 410.344917 71.9704 
L 411.344917 71.966987 
L 412.344917 71.96457 
L 413.344917 71.965056 
L 414.344917 71.966985 
L 415.344917 71.980242 
L 416.344917 71.988633 
L 417.344917 72.010169 
L 418.344917 72.033202 
L 419.344917 72.050435 
L 420.344917 72.068898 
L 421.344917 72.08935 
L 422.344917 72.10595 
L 423.344917 72.168729 
L 424.344917 72.243994 
L 425.344917 72.276633 
L 426.344917 72.344197 
L 427.344917 72.398244 
L 428.344917 72.431948 
L 429.344917 72.522074 
L 430.344917 72.550609 
L 431.344917 72.582095 
L 432.344917 72.613106 
L 433.344917 72.667914 
L 434.344917 72.732501 
L 435.344917 72.770697 
L 436.344917 72.866631 
L 437.344917 72.915889 
L 438.344917 72.959958 
L 439.344917 73.000082 
L 440.344917 73.108449 
L 441.344917 73.150077 
L 442.344917 73.212219 
L 443.344917 73.282181 
L 444.344917 73.386685 
L 445.344917 73.423673 
L 446.344917 73.46955 
L 447.344917 73.538045 
L 448.344917 73.586791 
L 449.344917 73.664388 
L 450.344917 73.694929 
L 451.344917 73.764443 
L 452.344917 73.788416 
L 453.344917 73.817038 
L 454.344917 73.858831 
L 455.344917 73.880407 
L 456.344917 73.894355 
L 457.344917 73.921077 
L 458.344917 73.930387 
L 459.344917 73.942834 
L 460.344917 73.953889 
L 461.344917 73.959553 
L 462.344917 73.964317 
L 463.344917 73.958769 
L 464.344917 73.945481 
L 465.344917 73.937964 
L 466.344917 73.913179 
L 467.344917 73.88961 
L 468.344917 73.85343 
L 469.344917 73.827468 
L 470.344917 73.805146 
L 471.344917 73.736386 
L 472.344917 73.661851 
L 473.344917 73.567872 
L 474.344917 73.51682 
L 475.344917 73.462886 
L 476.344917 73.427635 
L 477.344917 73.321547 
L 478.344917 73.269283 
L 479.344917 73.232376 
L 480.344917 73.201345 
L 481.344917 73.14019 
L 482.344917 73.07277 
L 483.344917 73.023864 
L 484.344917 72.958672 
L 485.344917 72.920484 
L 486.344917 72.878488 
L 487.344917 72.836471 
L 488.344917 72.776955 
L 489.344917 72.663795 
L 490.344917 72.611544 
L 491.344917 72.572126 
L 492.344917 72.525025 
L 493.344917 72.468245 
L 494.344917 72.435582 
L 495.344917 72.399404 
L 496.344917 72.367314 
L 497.344917 72.333034 
L 498.344917 72.274656 
L 499.344917 72.229471 
L 500.344917 72.199847 
L 501.344917 72.149461 
L 502.344917 72.124264 
L 503.344917 72.103213 
L 504.344917 72.068245 
L 505.344917 72.043955 
L 506.344917 72.029888 
L 507.344917 72.010946 
L 508.344917 71.995285 
L 509.344917 71.982733 
L 510.344917 71.976897 
L 511.344917 71.970015 
L 512.344917 71.964841 
L 513.344917 71.966624 
L 514.344917 71.969349 
L 515.344917 71.980503 
L 516.344917 72.008738 
L 517.344917 72.052526 
L 518.344917 72.073215 
L 519.344917 72.114188 
L 520.344917 72.154263 
L 521.344917 72.173373 
L 522.344917 72.195882 
L 523.344917 72.262533 
L 524.344917 72.312243 
L 525.344917 72.385949 
L 526.344917 72.417263 
L 527.344917 72.493885 
L 528.344917 72.532183 
L 529.344917 72.6063 
L 530.344917 72.710358 
L 531.344917 72.780189 
L 532.344917 72.885423 
L 533.344917 72.940438 
L 534.344917 73.063913 
L 535.344917 73.134472 
L 536.344917 73.250311 
L 537.344917 73.300492 
L 538.344917 73.336096 
L 539.344917 73.427503 
L 540.344917 73.481011 
L 541.344917 73.568919 
L 542.344917 73.638104 
L 543.344917 73.684868 
L 544.344917 73.756912 
L 545.344917 73.807054 
L 546.344917 73.824444 
L 547.344917 73.851447 
L 548.344917 73.870874 
L 549.344917 73.890212 
L 550.344917 73.928461 
L 551.344917 73.944894 
L 552.344917 73.953263 
L 553.344917 73.957582 
L 554.344917 73.964137 
L 555.344917 73.961591 
L 556.344917 73.956132 
L 557.344917 73.939704 
L 558.344917 73.907769 
L 559.344917 73.869789 
L 560.344917 73.834985 
L 561.344917 73.771913 
L 562.344917 73.750486 
L 563.344917 73.699868 
L 564.344917 73.674911 
L 565.344917 73.619277 
L 566.344917 73.588048 
L 567.344917 73.537904 
L 568.344917 73.505411 
L 569.344917 73.424999 
L 570.344917 73.356073 
L 571.344917 73.240376 
L 572.344917 73.164897 
L 574.227423 73.049372 
" clip-path="url(#pf7a37d3414)" style="fill: none; stroke: #ffffff; stroke-width: 3; stroke-linecap: round"/>
         <path d="M 345.344917 72.964375 
L 346.344917 72.995811 
L 347.344917 73.032752 
L 348.344917 73.130498 
L 349.344917 73.16302 
L 350.344917 73.236645 
L 351.344917 73.27521 
L 352.344917 73.310623 
L 353.344917 73.368263 
L 354.344917 73.438649 
L 355.344917 73.490614 
L 356.344917 73.549703 
L 357.344917 73.638024 
L 358.344917 73.684169 
L 359.344917 73.72658 
L 360.344917 73.757072 
L 361.344917 73.783117 
L 362.344917 73.804317 
L 363.344917 73.858618 
L 364.344917 73.886556 
L 365.344917 73.91628 
L 366.344917 73.941675 
L 367.344917 73.952875 
L 368.344917 73.962999 
L 369.344917 73.962795 
L 370.344917 73.953285 
L 371.344917 73.941631 
L 372.344917 73.910602 
L 373.344917 73.899434 
L 374.344917 73.869317 
L 375.344917 73.80954 
L 376.344917 73.772348 
L 377.344917 73.733252 
L 378.344917 73.690812 
L 379.344917 73.658047 
L 380.344917 73.590621 
L 381.344917 73.551495 
L 382.344917 73.50882 
L 383.344917 73.43824 
L 384.344917 73.401849 
L 385.344917 73.343446 
L 386.344917 73.232493 
L 387.344917 73.161835 
L 388.344917 73.048895 
L 389.344917 73.003122 
L 390.344917 72.941839 
L 391.344917 72.89334 
L 392.344917 72.812517 
L 393.344917 72.693998 
L 394.344917 72.623787 
L 395.344917 72.540525 
L 396.344917 72.507383 
L 397.344917 72.456146 
L 398.344917 72.387747 
L 399.344917 72.321532 
L 400.344917 72.244615 
L 401.344917 72.217299 
L 402.344917 72.190822 
L 403.344917 72.168171 
L 404.344917 72.14864 
L 405.344917 72.122246 
L 406.344917 72.072475 
L 407.344917 72.037402 
L 408.344917 72.001536 
L 409.344917 71.986169 
L 410.344917 71.9704 
L 411.344917 71.966987 
L 412.344917 71.96457 
L 413.344917 71.965056 
L 414.344917 71.966985 
L 415.344917 71.980242 
L 416.344917 71.988633 
L 417.344917 72.010169 
L 418.344917 72.033202 
L 419.344917 72.050435 
L 420.344917 72.068898 
L 421.344917 72.08935 
L 422.344917 72.10595 
L 423.344917 72.168729 
L 424.344917 72.243994 
L 425.344917 72.276633 
L 426.344917 72.344197 
L 427.344917 72.398244 
L 428.344917 72.431948 
L 429.344917 72.522074 
L 430.344917 72.550609 
L 431.344917 72.582095 
L 432.344917 72.613106 
L 433.344917 72.667914 
L 434.344917 72.732501 
L 435.344917 72.770697 
L 436.344917 72.866631 
L 437.344917 72.915889 
L 438.344917 72.959958 
L 439.344917 73.000082 
L 440.344917 73.108449 
L 441.344917 73.150077 
L 442.344917 73.212219 
L 443.344917 73.282181 
L 444.344917 73.386685 
L 445.344917 73.423673 
L 446.344917 73.46955 
L 447.344917 73.538045 
L 448.344917 73.586791 
L 449.344917 73.664388 
L 450.344917 73.694929 
L 451.344917 73.764443 
L 452.344917 73.788416 
L 453.344917 73.817038 
L 454.344917 73.858831 
L 455.344917 73.880407 
L 456.344917 73.894355 
L 457.344917 73.921077 
L 458.344917 73.930387 
L 459.344917 73.942834 
L 460.344917 73.953889 
L 461.344917 73.959553 
L 462.344917 73.964317 
L 463.344917 73.958769 
L 464.344917 73.945481 
L 465.344917 73.937964 
L 466.344917 73.913179 
L 467.344917 73.88961 
L 468.344917 73.85343 
L 469.344917 73.827468 
L 470.344917 73.805146 
L 471.344917 73.736386 
L 472.344917 73.661851 
L 473.344917 73.567872 
L 474.344917 73.51682 
L 475.344917 73.462886 
L 476.344917 73.427635 
L 477.344917 73.321547 
L 478.344917 73.269283 
L 479.344917 73.232376 
L 480.344917 73.201345 
L 481.344917 73.14019 
L 482.344917 73.07277 
L 483.344917 73.023864 
L 484.344917 72.958672 
L 485.344917 72.920484 
L 486.344917 72.878488 
L 487.344917 72.836471 
L 488.344917 72.776955 
L 489.344917 72.663795 
L 490.344917 72.611544 
L 491.344917 72.572126 
L 492.344917 72.525025 
L 493.344917 72.468245 
L 494.344917 72.435582 
L 495.344917 72.399404 
L 496.344917 72.367314 
L 497.344917 72.333034 
L 498.344917 72.274656 
L 499.344917 72.229471 
L 500.344917 72.199847 
L 501.344917 72.149461 
L 502.344917 72.124264 
L 503.344917 72.103213 
L 504.344917 72.068245 
L 505.344917 72.043955 
L 506.344917 72.029888 
L 507.344917 72.010946 
L 508.344917 71.995285 
L 509.344917 71.982733 
L 510.344917 71.976897 
L 511.344917 71.970015 
L 512.344917 71.964841 
L 513.344917 71.966624 
L 514.344917 71.969349 
L 515.344917 71.980503 
L 516.344917 72.008738 
L 517.344917 72.052526 
L 518.344917 72.073215 
L 519.344917 72.114188 
L 520.344917 72.154263 
L 521.344917 72.173373 
L 522.344917 72.195882 
L 523.344917 72.262533 
L 524.344917 72.312243 
L 525.344917 72.385949 
L 526.344917 72.417263 
L 527.344917 72.493885 
L 528.344917 72.532183 
L 529.344917 72.6063 
L 530.344917 72.710358 
L 531.344917 72.780189 
L 532.344917 72.885423 
L 533.344917 72.940438 
L 534.344917 73.063913 
L 535.344917 73.134472 
L 536.344917 73.250311 
L 537.344917 73.300492 
L 538.344917 73.336096 
L 539.344917 73.427503 
L 540.344917 73.481011 
L 541.344917 73.568919 
L 542.344917 73.638104 
L 543.344917 73.684868 
L 544.344917 73.756912 
L 545.344917 73.807054 
L 546.344917 73.824444 
L 547.344917 73.851447 
L 548.344917 73.870874 
L 549.344917 73.890212 
L 550.344917 73.928461 
L 551.344917 73.944894 
L 552.344917 73.953263 
L 553.344917 73.957582 
L 554.344917 73.964137 
L 555.344917 73.961591 
L 556.344917 73.956132 
L 557.344917 73.939704 
L 558.344917 73.907769 
L 559.344917 73.869789 
L 560.344917 73.834985 
L 561.344917 73.771913 
L 562.344917 73.750486 
L 563.344917 73.699868 
L 564.344917 73.674911 
L 565.344917 73.619277 
L 566.344917 73.588048 
L 567.344917 73.537904 
L 568.344917 73.505411 
L 569.344917 73.424999 
L 570.344917 73.356073 
L 571.344917 73.240376 
L 572.344917 73.164897 
L 574.227423 73.049372 
" clip-path="url(#pf7a37d3414)" style="fill: none; stroke: #1f77b4; stroke-linecap: round"/>
         <path d="M 570.227423 70.964375 
L 571.107791 71.439706 
L 571.985698 71.91996 
L 572.836412 72.454601 
L 574.138586 73.142048 
L 573.211233 73.168063 
L 572.299559 73.580783 
L 571.389294 73.996322 
L 570.046799 74.603126 
L 570.701697 73.964375 
L 570.753662 72.964375 
L 570.812751 70.964375 
z
" clip-path="url(#pf7a37d3414)" style="fill: #ffffff; stroke: #ffffff; stroke-width: 3; stroke-linecap: round"/>
         <path d="M 570.227423 70.964375 
L 571.107791 71.439706 
L 571.985698 71.91996 
L 572.836412 72.454601 
L 574.138586 73.142048 
L 573.211233 73.168063 
L 572.299559 73.580783 
L 571.389294 73.996322 
L 570.046799 74.603126 
L 570.701697 73.964375 
L 570.753662 72.964375 
L 570.812751 70.964375 
z
" clip-path="url(#pf7a37d3414)" style="fill: #ffffff; stroke: #1f77b4; stroke-linecap: round"/>
         <g id="patch_9">
          <path d="M 162.346959 231.904831 
L 163.346959 231.936267 
L 164.346959 231.973208 
L 165.346959 232.070954 
L 166.346959 232.103476 
L 167.346959 232.1771 
L 168.346959 232.215666 
L 169.346959 232.251079 
L 170.346959 232.308719 
L 171.346959 232.379105 
L 172.346959 232.431069 
L 173.346959 232.490159 
L 174.346959 232.57848 
L 175.346959 232.624624 
L 176.346959 232.667035 
L 177.346959 232.697528 
L 178.346959 232.723573 
L 179.346959 232.744773 
L 180.346959 232.799074 
L 181.346959 232.827012 
L 182.346959 232.856736 
L 183.346959 232.882131 
L 184.346959 232.893331 
L 185.346959 232.903455 
L 186.346959 232.903251 
L 187.346959 232.893741 
L 188.346959 232.882087 
L 189.346959 232.851058 
L 190.346959 232.83989 
L 191.346959 232.809772 
L 192.346959 232.749995 
L 193.346959 232.712804 
L 194.346959 232.673708 
L 195.346959 232.631268 
L 196.346959 232.598503 
L 197.346959 232.531077 
L 198.346959 232.491951 
L 199.346959 232.449276 
L 200.346959 232.378696 
L 201.346959 232.342305 
L 202.346959 232.283902 
L 203.346959 232.172949 
L 204.346959 232.102291 
L 205.346959 231.989351 
L 206.346959 231.943578 
L 207.346959 231.882295 
L 208.346959 231.833795 
L 209.346959 231.752973 
L 210.346959 231.634454 
L 211.346959 231.564243 
L 212.346959 231.480981 
L 213.346959 231.447839 
L 214.346959 231.396602 
L 215.346959 231.328203 
L 216.346959 231.261988 
L 217.346959 231.185071 
L 218.346959 231.157755 
L 219.346959 231.131278 
L 220.346959 231.108627 
L 221.346959 231.089096 
L 222.346959 231.062702 
L 223.346959 231.012931 
L 224.346959 230.977858 
L 225.346959 230.941992 
L 226.346959 230.926625 
L 227.346959 230.910856 
L 228.346959 230.907443 
L 229.346959 230.905025 
L 230.346959 230.905512 
L 231.346959 230.907441 
L 232.346959 230.920698 
L 233.346959 230.929088 
L 234.346959 230.950625 
L 235.346959 230.973657 
L 236.346959 230.990891 
L 237.346959 231.009353 
L 238.346959 231.029806 
L 239.346959 231.046406 
L 240.346959 231.109185 
L 241.346959 231.18445 
L 242.346959 231.217089 
L 243.346959 231.284652 
L 244.346959 231.338699 
L 245.346959 231.372404 
L 246.346959 231.46253 
L 247.346959 231.491065 
L 248.346959 231.522551 
L 249.346959 231.553562 
L 250.346959 231.60837 
L 251.346959 231.672957 
L 252.346959 231.711152 
L 253.346959 231.807087 
L 254.346959 231.856345 
L 255.346959 231.900414 
L 256.346959 231.940538 
L 257.346959 232.048905 
L 258.346959 232.090533 
L 259.346959 232.152674 
L 260.346959 232.222637 
L 261.346959 232.327141 
L 262.346959 232.364129 
L 263.346959 232.410006 
L 264.346959 232.4785 
L 265.346959 232.527246 
L 266.346959 232.604844 
L 267.346959 232.635384 
L 268.346959 232.704899 
L 269.346959 232.728872 
L 270.346959 232.757494 
L 271.346959 232.799287 
L 272.346959 232.820863 
L 273.346959 232.83481 
L 274.346959 232.861533 
L 275.346959 232.870843 
L 276.346959 232.883289 
L 277.346959 232.894344 
L 278.346959 232.900009 
L 279.346959 232.904773 
L 280.346959 232.899225 
L 281.346959 232.885937 
L 282.346959 232.878419 
L 283.346959 232.853635 
L 284.346959 232.830066 
L 285.346959 232.793885 
L 286.346959 232.767924 
L 287.346959 232.745602 
L 288.346959 232.676842 
L 289.346959 232.602307 
L 290.346959 232.508327 
L 291.346959 232.457276 
L 292.346959 232.403342 
L 293.346959 232.368091 
L 294.346959 232.262003 
L 295.346959 232.209739 
L 296.346959 232.172832 
L 297.346959 232.141801 
L 298.346959 232.080646 
L 299.346959 232.013226 
L 300.346959 231.96432 
L 301.346959 231.899128 
L 302.346959 231.86094 
L 303.346959 231.818944 
L 304.346959 231.776927 
L 305.346959 231.71741 
L 306.346959 231.60425 
L 307.346959 231.552 
L 308.346959 231.512582 
L 309.346959 231.465481 
L 310.346959 231.408701 
L 311.346959 231.376038 
L 312.346959 231.33986 
L 313.346959 231.307769 
L 314.346959 231.27349 
L 315.346959 231.215112 
L 316.346959 231.169927 
L 317.346959 231.140303 
L 318.346959 231.089917 
L 319.346959 231.064719 
L 320.346959 231.043669 
L 321.346959 231.008701 
L 322.346959 230.984411 
L 323.346959 230.970344 
L 324.346959 230.951402 
L 325.346959 230.93574 
L 326.346959 230.923189 
L 327.346959 230.917353 
L 328.346959 230.91047 
L 329.346959 230.905297 
L 330.346959 230.907079 
L 331.346959 230.909805 
L 332.346959 230.920958 
L 333.346959 230.949194 
L 334.346959 230.992981 
L 335.346959 231.013671 
L 336.346959 231.054644 
L 337.346959 231.094719 
L 338.346959 231.113829 
L 339.346959 231.136337 
L 340.346959 231.202989 
L 341.346959 231.252698 
L 342.346959 231.326405 
L 343.346959 231.357719 
L 344.346959 231.434341 
L 345.346959 231.472639 
L 346.346959 231.546756 
L 347.346959 231.650814 
L 348.346959 231.720645 
L 349.346959 231.825878 
L 350.346959 231.880894 
L 351.346959 232.004369 
L 352.346959 232.074928 
L 353.346959 232.190767 
L 354.346959 232.240948 
L 355.346959 232.276552 
L 356.346959 232.367959 
L 357.346959 232.421466 
L 358.346959 232.509375 
L 359.346959 232.57856 
L 360.346959 232.625324 
L 361.346959 232.697368 
L 362.346959 232.74751 
L 363.346959 232.7649 
L 364.346959 232.791903 
L 365.346959 232.81133 
L 366.346959 232.830668 
L 367.346959 232.868917 
L 368.346959 232.88535 
L 369.346959 232.893719 
L 370.346959 232.898038 
L 371.346959 232.904593 
L 372.346959 232.902046 
L 373.346959 232.896588 
L 374.346959 232.88016 
L 375.346959 232.848225 
L 376.346959 232.810245 
L 377.346959 232.77544 
L 378.346959 232.712369 
L 379.346959 232.690942 
L 380.346959 232.640324 
L 381.346959 232.615366 
L 382.346959 232.559733 
L 383.346959 232.528504 
L 384.346959 232.47836 
L 385.346959 232.445867 
L 386.346959 232.365454 
L 387.346959 232.296529 
L 388.346959 232.180832 
L 389.346959 232.105353 
L 390.346959 231.989828 
L 391.346959 231.910343 
L 392.346959 231.801902 
L 393.346959 231.762535 
L 394.346959 231.659667 
L 395.346959 231.559869 
L 396.346959 231.514372 
L 397.346959 231.480049 
L 398.346959 231.428094 
L 399.346959 231.388447 
L 400.346959 231.352933 
L 401.346959 231.285287 
L 402.346959 231.246206 
L 403.346959 231.195724 
L 404.346959 231.146419 
L 405.346959 231.095349 
L 406.346959 231.05111 
L 407.346959 231.02909 
L 408.346959 231.013533 
L 409.346959 230.971087 
L 410.346959 230.956219 
L 411.346959 230.933491 
L 412.346959 230.913175 
L 413.346959 230.907378 
L 414.346959 230.904896 
L 415.346959 230.907953 
L 416.346959 230.919549 
L 417.346959 230.936469 
L 418.346959 230.96813 
L 419.346959 230.982213 
L 420.346959 231.034885 
L 421.346959 231.083974 
L 422.346959 231.138675 
L 423.346959 231.183023 
L 424.346959 231.253015 
L 425.346959 231.303397 
L 426.346959 231.357304 
L 427.346959 231.426744 
L 428.346959 231.484131 
L 429.346959 231.534297 
L 430.346959 231.611459 
L 431.346959 231.669649 
L 432.346959 231.730287 
L 433.346959 231.767488 
L 434.346959 231.83258 
L 435.346959 231.93771 
L 436.346959 231.998012 
L 437.346959 232.094333 
L 438.346959 232.126337 
L 439.346959 232.177354 
L 440.346959 232.294146 
L 441.346959 232.329592 
L 442.346959 232.385473 
L 443.346959 232.415848 
L 444.346959 232.504235 
L 445.346959 232.548999 
L 446.346959 232.629887 
L 447.346959 232.690033 
L 448.346959 232.753119 
L 449.346959 232.776067 
L 450.346959 232.792237 
L 451.346959 232.821166 
L 452.346959 232.851517 
L 453.346959 232.864092 
L 454.492384 232.888971 
" clip-path="url(#pf7a37d3414)" style="fill: none; stroke: #ffffff; stroke-width: 3; stroke-linecap: round"/>
          <path d="M 162.346959 231.904831 
L 163.346959 231.936267 
L 164.346959 231.973208 
L 165.346959 232.070954 
L 166.346959 232.103476 
L 167.346959 232.1771 
L 168.346959 232.215666 
L 169.346959 232.251079 
L 170.346959 232.308719 
L 171.346959 232.379105 
L 172.346959 232.431069 
L 173.346959 232.490159 
L 174.346959 232.57848 
L 175.346959 232.624624 
L 176.346959 232.667035 
L 177.346959 232.697528 
L 178.346959 232.723573 
L 179.346959 232.744773 
L 180.346959 232.799074 
L 181.346959 232.827012 
L 182.346959 232.856736 
L 183.346959 232.882131 
L 184.346959 232.893331 
L 185.346959 232.903455 
L 186.346959 232.903251 
L 187.346959 232.893741 
L 188.346959 232.882087 
L 189.346959 232.851058 
L 190.346959 232.83989 
L 191.346959 232.809772 
L 192.346959 232.749995 
L 193.346959 232.712804 
L 194.346959 232.673708 
L 195.346959 232.631268 
L 196.346959 232.598503 
L 197.346959 232.531077 
L 198.346959 232.491951 
L 199.346959 232.449276 
L 200.346959 232.378696 
L 201.346959 232.342305 
L 202.346959 232.283902 
L 203.346959 232.172949 
L 204.346959 232.102291 
L 205.346959 231.989351 
L 206.346959 231.943578 
L 207.346959 231.882295 
L 208.346959 231.833795 
L 209.346959 231.752973 
L 210.346959 231.634454 
L 211.346959 231.564243 
L 212.346959 231.480981 
L 213.346959 231.447839 
L 214.346959 231.396602 
L 215.346959 231.328203 
L 216.346959 231.261988 
L 217.346959 231.185071 
L 218.346959 231.157755 
L 219.346959 231.131278 
L 220.346959 231.108627 
L 221.346959 231.089096 
L 222.346959 231.062702 
L 223.346959 231.012931 
L 224.346959 230.977858 
L 225.346959 230.941992 
L 226.346959 230.926625 
L 227.346959 230.910856 
L 228.346959 230.907443 
L 229.346959 230.905025 
L 230.346959 230.905512 
L 231.346959 230.907441 
L 232.346959 230.920698 
L 233.346959 230.929088 
L 234.346959 230.950625 
L 235.346959 230.973657 
L 236.346959 230.990891 
L 237.346959 231.009353 
L 238.346959 231.029806 
L 239.346959 231.046406 
L 240.346959 231.109185 
L 241.346959 231.18445 
L 242.346959 231.217089 
L 243.346959 231.284652 
L 244.346959 231.338699 
L 245.346959 231.372404 
L 246.346959 231.46253 
L 247.346959 231.491065 
L 248.346959 231.522551 
L 249.346959 231.553562 
L 250.346959 231.60837 
L 251.346959 231.672957 
L 252.346959 231.711152 
L 253.346959 231.807087 
L 254.346959 231.856345 
L 255.346959 231.900414 
L 256.346959 231.940538 
L 257.346959 232.048905 
L 258.346959 232.090533 
L 259.346959 232.152674 
L 260.346959 232.222637 
L 261.346959 232.327141 
L 262.346959 232.364129 
L 263.346959 232.410006 
L 264.346959 232.4785 
L 265.346959 232.527246 
L 266.346959 232.604844 
L 267.346959 232.635384 
L 268.346959 232.704899 
L 269.346959 232.728872 
L 270.346959 232.757494 
L 271.346959 232.799287 
L 272.346959 232.820863 
L 273.346959 232.83481 
L 274.346959 232.861533 
L 275.346959 232.870843 
L 276.346959 232.883289 
L 277.346959 232.894344 
L 278.346959 232.900009 
L 279.346959 232.904773 
L 280.346959 232.899225 
L 281.346959 232.885937 
L 282.346959 232.878419 
L 283.346959 232.853635 
L 284.346959 232.830066 
L 285.346959 232.793885 
L 286.346959 232.767924 
L 287.346959 232.745602 
L 288.346959 232.676842 
L 289.346959 232.602307 
L 290.346959 232.508327 
L 291.346959 232.457276 
L 292.346959 232.403342 
L 293.346959 232.368091 
L 294.346959 232.262003 
L 295.346959 232.209739 
L 296.346959 232.172832 
L 297.346959 232.141801 
L 298.346959 232.080646 
L 299.346959 232.013226 
L 300.346959 231.96432 
L 301.346959 231.899128 
L 302.346959 231.86094 
L 303.346959 231.818944 
L 304.346959 231.776927 
L 305.346959 231.71741 
L 306.346959 231.60425 
L 307.346959 231.552 
L 308.346959 231.512582 
L 309.346959 231.465481 
L 310.346959 231.408701 
L 311.346959 231.376038 
L 312.346959 231.33986 
L 313.346959 231.307769 
L 314.346959 231.27349 
L 315.346959 231.215112 
L 316.346959 231.169927 
L 317.346959 231.140303 
L 318.346959 231.089917 
L 319.346959 231.064719 
L 320.346959 231.043669 
L 321.346959 231.008701 
L 322.346959 230.984411 
L 323.346959 230.970344 
L 324.346959 230.951402 
L 325.346959 230.93574 
L 326.346959 230.923189 
L 327.346959 230.917353 
L 328.346959 230.91047 
L 329.346959 230.905297 
L 330.346959 230.907079 
L 331.346959 230.909805 
L 332.346959 230.920958 
L 333.346959 230.949194 
L 334.346959 230.992981 
L 335.346959 231.013671 
L 336.346959 231.054644 
L 337.346959 231.094719 
L 338.346959 231.113829 
L 339.346959 231.136337 
L 340.346959 231.202989 
L 341.346959 231.252698 
L 342.346959 231.326405 
L 343.346959 231.357719 
L 344.346959 231.434341 
L 345.346959 231.472639 
L 346.346959 231.546756 
L 347.346959 231.650814 
L 348.346959 231.720645 
L 349.346959 231.825878 
L 350.346959 231.880894 
L 351.346959 232.004369 
L 352.346959 232.074928 
L 353.346959 232.190767 
L 354.346959 232.240948 
L 355.346959 232.276552 
L 356.346959 232.367959 
L 357.346959 232.421466 
L 358.346959 232.509375 
L 359.346959 232.57856 
L 360.346959 232.625324 
L 361.346959 232.697368 
L 362.346959 232.74751 
L 363.346959 232.7649 
L 364.346959 232.791903 
L 365.346959 232.81133 
L 366.346959 232.830668 
L 367.346959 232.868917 
L 368.346959 232.88535 
L 369.346959 232.893719 
L 370.346959 232.898038 
L 371.346959 232.904593 
L 372.346959 232.902046 
L 373.346959 232.896588 
L 374.346959 232.88016 
L 375.346959 232.848225 
L 376.346959 232.810245 
L 377.346959 232.77544 
L 378.346959 232.712369 
L 379.346959 232.690942 
L 380.346959 232.640324 
L 381.346959 232.615366 
L 382.346959 232.559733 
L 383.346959 232.528504 
L 384.346959 232.47836 
L 385.346959 232.445867 
L 386.346959 232.365454 
L 387.346959 232.296529 
L 388.346959 232.180832 
L 389.346959 232.105353 
L 390.346959 231.989828 
L 391.346959 231.910343 
L 392.346959 231.801902 
L 393.346959 231.762535 
L 394.346959 231.659667 
L 395.346959 231.559869 
L 396.346959 231.514372 
L 397.346959 231.480049 
L 398.346959 231.428094 
L 399.346959 231.388447 
L 400.346959 231.352933 
L 401.346959 231.285287 
L 402.346959 231.246206 
L 403.346959 231.195724 
L 404.346959 231.146419 
L 405.346959 231.095349 
L 406.346959 231.05111 
L 407.346959 231.02909 
L 408.346959 231.013533 
L 409.346959 230.971087 
L 410.346959 230.956219 
L 411.346959 230.933491 
L 412.346959 230.913175 
L 413.346959 230.907378 
L 414.346959 230.904896 
L 415.346959 230.907953 
L 416.346959 230.919549 
L 417.346959 230.936469 
L 418.346959 230.96813 
L 419.346959 230.982213 
L 420.346959 231.034885 
L 421.346959 231.083974 
L 422.346959 231.138675 
L 423.346959 231.183023 
L 424.346959 231.253015 
L 425.346959 231.303397 
L 426.346959 231.357304 
L 427.346959 231.426744 
L 428.346959 231.484131 
L 429.346959 231.534297 
L 430.346959 231.611459 
L 431.346959 231.669649 
L 432.346959 231.730287 
L 433.346959 231.767488 
L 434.346959 231.83258 
L 435.346959 231.93771 
L 436.346959 231.998012 
L 437.346959 232.094333 
L 438.346959 232.126337 
L 439.346959 232.177354 
L 440.346959 232.294146 
L 441.346959 232.329592 
L 442.346959 232.385473 
L 443.346959 232.415848 
L 444.346959 232.504235 
L 445.346959 232.548999 
L 446.346959 232.629887 
L 447.346959 232.690033 
L 448.346959 232.753119 
L 449.346959 232.776067 
L 450.346959 232.792237 
L 451.346959 232.821166 
L 452.346959 232.851517 
L 453.346959 232.864092 
L 454.492384 232.888971 
" clip-path="url(#pf7a37d3414)" style="fill: none; stroke: #ff7f0e; stroke-linecap: round"/>
          <path d="M 450.492384 229.904831 
L 451.372752 230.380162 
L 452.250659 230.860416 
L 453.101373 231.395057 
L 454.403547 232.082504 
L 453.476194 232.108519 
L 452.56452 232.521238 
L 451.654255 232.936778 
L 450.31176 233.543582 
L 450.966658 232.904831 
L 451.018623 231.904831 
L 451.077712 229.904831 
z
" clip-path="url(#pf7a37d3414)" style="fill: #ffffff; stroke: #ffffff; stroke-width: 3; stroke-linecap: round"/>
          <path d="M 450.492384 229.904831 
L 451.372752 230.380162 
L 452.250659 230.860416 
L 453.101373 231.395057 
L 454.403547 232.082504 
L 453.476194 232.108519 
L 452.56452 232.521238 
L 451.654255 232.936778 
L 450.31176 233.543582 
L 450.966658 232.904831 
L 451.018623 231.904831 
L 451.077712 229.904831 
z
" clip-path="url(#pf7a37d3414)" style="fill: #ffffff; stroke: #ff7f0e; stroke-linecap: round"/>
          <path d="M 464.442535 307.792144 
" clip-path="url(#pf7a37d3414)" style="fill: none; stroke-dasharray: 3.7,1.6; stroke-dashoffset: 0; stroke: #2ca02c"/>
          <path d="M 463.442535 307.792144 
L 465.442535 308.792144 
L 465.442535 306.792144 
z
" clip-path="url(#pf7a37d3414)" style="fill: #2ca02c; stroke: #2ca02c; stroke-linejoin: miter"/>
          <g id="patch_10">
           <path d="M 63.290625 321.621875 
L 63.290625 10.8 
" style="fill: none; stroke: #000000; stroke-width: 0.8; stroke-linejoin: miter; stroke-linecap: square"/>
          </g>
          <g id="text_11">
           <g id="patch_11">
            <path d="M 327.800329 101.664024 
L 349.105016 101.664024 
Q 351.105016 101.664024 351.105016 99.664024 
L 351.105016 89.985899 
Q 351.105016 87.985899 349.105016 87.985899 
L 327.800329 87.985899 
Q 325.800329 87.985899 325.800329 89.985899 
L 325.800329 99.664024 
Q 325.800329 101.664024 327.800329 101.664024 
z
" style="fill: #ffffff; opacity: 0.6"/>
           </g>
           <!-- ANC -->
           <g transform="translate(327.800329 97.584337) scale(0.1 -0.1)">
            <defs>
             <path id="DejaVuSans-4e" d="M 628 4666 
L 1478 4666 
L 3547 763 
L 3547 4666 
L 4159 4666 
L 4159 0 
L 3309 0 
L 1241 3903 
L 1241 0 
L 628 0 
L 628 4666 
z
" transform="scale(0.015625)"/>
            </defs>
            <use xlink:href="#DejaVuSans-41"/>
            <use xlink:href="#DejaVuSans-4e" x="68.408203"/>
            <use xlink:href="#DejaVuSans-43" x="143.212891"/>
           </g>
          </g>
         </g>
        </g>
        <defs>
         <clipPath id="pf7a37d3414">
          <rect x="63.290625" y="10.8" width="540.309375" height="310.821875"/>
         </clipPath>
        </defs>
       </g>
      </g>
     </g>
    </g>
   </g>
  </g>
 </g>
</svg>
