<?xml version="1.0" encoding="utf-8" standalone="no"?>
<!DOCTYPE svg PUBLIC "-//W3C//DTD SVG 1.1//EN"
  "http://www.w3.org/Graphics/SVG/1.1/DTD/svg11.dtd">
<svg xmlns:xlink="http://www.w3.org/1999/xlink" width="614.4pt" height="345.6pt" viewBox="0 0 614.4 345.6" xmlns="http://www.w3.org/2000/svg" version="1.1">
 <metadata>
  <rdf:RDF xmlns:dc="http://purl.org/dc/elements/1.1/" xmlns:cc="http://creativecommons.org/ns#" xmlns:rdf="http://www.w3.org/1999/02/22-rdf-syntax-ns#">
   <cc:Work>
    <dc:type rdf:resource="http://purl.org/dc/dcmitype/StillImage"/>
    <dc:date>2024-04-17T19:40:12.250109</dc:date>
    <dc:format>image/svg+xml</dc:format>
    <dc:creator>
     <cc:Agent>
      <dc:title>Matplotlib v3.7.1, https://matplotlib.org/</dc:title>
     </cc:Agent>
    </dc:creator>
   </cc:Work>
  </rdf:RDF>
 </metadata>
 <defs>
  <style type="text/css">*{stroke-linejoin: round; stroke-linecap: butt}</style>
 </defs>
 <g id="figure_1">
  <g id="patch_1">
   <path d="M 0 345.6 
L 614.4 345.6 
L 614.4 0 
L 0 0 
z
" style="fill: #ffffff"/>
  </g>
  <g id="axes_1">
   <g id="patch_2">
    <path d="M 63.290625 321.621875 
L 603.6 321.621875 
L 603.6 10.8 
L 63.290625 10.8 
z
" style="fill: #ffffff"/>
   </g>
   <path d="M 562.09038 302.494375 
L 561.09038 302.462939 
L 560.09038 302.425998 
L 559.09038 302.328252 
L 558.09038 302.29573 
L 557.09038 302.222105 
L 556.09038 302.18354 
L 555.09038 302.148127 
L 554.09038 302.090487 
L 553.09038 302.020101 
L 552.09038 301.968136 
L 551.09038 301.909047 
L 550.09038 301.820726 
L 549.09038 301.774581 
L 548.09038 301.73217 
L 547.09038 301.701678 
L 546.09038 301.675633 
L 545.09038 301.654433 
L 544.09038 301.600132 
L 543.09038 301.572194 
L 542.09038 301.54247 
L 541.09038 301.517075 
L 540.09038 301.505875 
L 539.09038 301.495751 
L 538.09038 301.495955 
L 537.09038 301.505465 
L 536.09038 301.517119 
L 535.09038 301.548148 
L 534.09038 301.559316 
L 533.09038 301.589433 
L 532.09038 301.64921 
L 531.09038 301.686402 
L 530.09038 301.725498 
L 529.09038 301.767938 
L 528.09038 301.800703 
L 527.09038 301.868129 
L 526.09038 301.907255 
L 525.09038 301.94993 
L 524.09038 302.02051 
L 523.09038 302.056901 
L 522.09038 302.115304 
L 521.09038 302.226257 
L 520.09038 302.296915 
L 519.09038 302.409855 
L 518.09038 302.455628 
L 517.09038 302.516911 
L 516.09038 302.56541 
L 515.09038 302.646233 
L 514.09038 302.764752 
L 513.09038 302.834963 
L 512.09038 302.918225 
L 511.09038 302.951367 
L 510.09038 303.002604 
L 509.09038 303.071003 
L 508.09038 303.137218 
L 507.09038 303.214135 
L 506.09038 303.241451 
L 505.09038 303.267928 
L 504.09038 303.290579 
L 503.09038 303.31011 
L 502.09038 303.336504 
L 501.09038 303.386275 
L 500.09038 303.421348 
L 499.09038 303.457214 
L 498.09038 303.472581 
L 497.09038 303.48835 
L 496.09038 303.491763 
L 495.09038 303.49418 
L 494.09038 303.493694 
L 493.09038 303.491765 
L 492.09038 303.478508 
L 491.09038 303.470117 
L 490.09038 303.448581 
L 489.09038 303.425548 
L 488.09038 303.408315 
L 487.09038 303.389852 
L 486.09038 303.3694 
L 485.09038 303.3528 
L 484.09038 303.290021 
L 483.09038 303.214756 
L 482.09038 303.182117 
L 481.09038 303.114553 
L 480.09038 303.060506 
L 479.09038 303.026802 
L 478.09038 302.936676 
L 477.09038 302.908141 
L 476.09038 302.876655 
L 475.09038 302.845644 
L 474.09038 302.790836 
L 473.09038 302.726249 
L 472.09038 302.688053 
L 471.09038 302.592119 
L 470.09038 302.542861 
L 469.09038 302.498792 
L 468.09038 302.458668 
L 467.09038 302.350301 
L 466.09038 302.308673 
L 465.09038 302.246531 
L 464.09038 302.176569 
L 463.09038 302.072065 
L 461.526644 302.035077 
" clip-path="url(#pcb6995641e)" style="fill: none; stroke-dasharray: 3.7,1.6; stroke-dashoffset: 0; stroke: #2ca02c"/>
   <g id="patch_3">
    <path d="M 323.815278 10.8 
L 323.815278 257.949818 
M 348.054888 10.8 
L 348.054888 257.949818 
" clip-path="url(#pcb6995641e)" style="fill: none; stroke: #ffffff; stroke-width: 3; stroke-linejoin: miter"/>
    <path d="M 323.815278 10.8 
L 323.815278 257.949818 
M 348.054888 10.8 
L 348.054888 257.949818 
" clip-path="url(#pcb6995641e)" style="fill: none; stroke: #1f77b4; stroke-linejoin: miter"/>
    <g id="PolyCollection_1">
     <path d="M 348.054888 10.8 
L 323.815278 10.8 
L 323.815278 257.949818 
L 348.054888 257.949818 
L 348.054888 257.949818 
L 348.054888 10.8 
z
" clip-path="url(#pcb6995641e)" style="fill: #1f77b4; fill-opacity: 0.5"/>
    </g>
    <g id="patch_4">
     <path d="M 149.223522 257.949818 
L 149.223522 314.452298 
L 146.718429 315.321338 
L 143.493061 316.190377 
L 139.340322 317.059417 
L 133.99357 317.928456 
L 127.109499 318.797496 
L 118.246092 319.666536 
L 106.834243 320.535575 
L 92.141212 321.404615 
L 87.850142 321.621875 
M 166.648802 257.949818 
L 166.648802 314.452298 
L 169.153896 315.321338 
L 172.379264 316.190377 
L 176.532003 317.059417 
L 181.878754 317.928456 
L 188.762825 318.797496 
L 197.626232 319.666536 
L 209.038082 320.535575 
L 223.731112 321.404615 
L 228.022182 321.621875 
L 228.022182 321.621875 
" clip-path="url(#pcb6995641e)" style="fill: none; stroke: #ffffff; stroke-width: 3; stroke-linejoin: miter"/>
     <path d="M 149.223522 257.949818 
L 149.223522 314.452298 
L 146.718429 315.321338 
L 143.493061 316.190377 
L 139.340322 317.059417 
L 133.99357 317.928456 
L 127.109499 318.797496 
L 118.246092 319.666536 
L 106.834243 320.535575 
L 92.141212 321.404615 
L 87.850142 321.621875 
M 166.648802 257.949818 
L 166.648802 314.452298 
L 169.153896 315.321338 
L 172.379264 316.190377 
L 176.532003 317.059417 
L 181.878754 317.928456 
L 188.762825 318.797496 
L 197.626232 319.666536 
L 209.038082 320.535575 
L 223.731112 321.404615 
L 228.022182 321.621875 
L 228.022182 321.621875 
" clip-path="url(#pcb6995641e)" style="fill: none; stroke: #ff7f0e; stroke-linejoin: miter"/>
     <g id="PolyCollection_2">
      <path d="M 166.648802 257.949818 
L 149.223522 257.949818 
L 149.223522 314.452298 
L 149.223522 314.452298 
L 149.038087 314.524718 
L 148.848706 314.597138 
L 148.655294 314.669558 
L 148.457765 314.741978 
L 148.256033 314.814398 
L 148.050007 314.886818 
L 147.839595 314.959238 
L 147.624706 315.031658 
L 147.405243 315.104078 
L 147.181109 315.176498 
L 146.952205 315.248918 
L 146.718429 315.321338 
L 146.479677 315.393757 
L 146.235844 315.466177 
L 145.986821 315.538597 
L 145.732498 315.611017 
L 145.472763 315.683437 
L 145.207499 315.755857 
L 144.93659 315.828277 
L 144.659914 315.900697 
L 144.37735 315.973117 
L 144.088773 316.045537 
L 143.794053 316.117957 
L 143.493061 316.190377 
L 143.185662 316.262797 
L 142.871721 316.335217 
L 142.551098 316.407637 
L 142.223652 316.480057 
L 141.889236 316.552477 
L 141.547702 316.624897 
L 141.1989 316.697317 
L 140.842674 316.769737 
L 140.478866 316.842157 
L 140.107315 316.914577 
L 139.727856 316.986997 
L 139.340322 317.059417 
L 138.944539 317.131837 
L 138.540332 317.204257 
L 138.127522 317.276677 
L 137.705927 317.349097 
L 137.275358 317.421517 
L 136.835626 317.493937 
L 136.386535 317.566357 
L 135.927885 317.638777 
L 135.459474 317.711197 
L 134.981093 317.783617 
L 134.492531 317.856037 
L 133.99357 317.928456 
L 133.48399 318.000876 
L 132.963564 318.073296 
L 132.432062 318.145716 
L 131.889248 318.218136 
L 131.334881 318.290556 
L 130.768714 318.362976 
L 130.190498 318.435396 
L 129.599976 318.507816 
L 128.996885 318.580236 
L 128.380959 318.652656 
L 127.751923 318.725076 
L 127.109499 318.797496 
L 126.453403 318.869916 
L 125.783342 318.942336 
L 125.09902 319.014756 
L 124.400134 319.087176 
L 123.686372 319.159596 
L 122.95742 319.232016 
L 122.212953 319.304436 
L 121.452641 319.376856 
L 120.676147 319.449276 
L 119.883127 319.521696 
L 119.073228 319.594116 
L 118.246092 319.666536 
L 117.401352 319.738956 
L 116.538633 319.811376 
L 115.657552 319.883796 
L 114.757719 319.956216 
L 113.838734 320.028636 
L 112.90019 320.101056 
L 111.941671 320.173476 
L 110.962751 320.245896 
L 109.962997 320.318316 
L 108.941964 320.390735 
L 107.8992 320.463155 
L 106.834243 320.535575 
L 105.746619 320.607995 
L 104.635848 320.680415 
L 103.501435 320.752835 
L 102.342878 320.825255 
L 101.159663 320.897675 
L 99.951266 320.970095 
L 98.717149 321.042515 
L 97.456766 321.114935 
L 96.169558 321.187355 
L 94.854954 321.259775 
L 93.51237 321.332195 
L 92.141212 321.404615 
L 90.740871 321.477035 
L 89.310726 321.549455 
L 87.850142 321.621875 
L 228.022182 321.621875 
L 228.022182 321.621875 
L 226.561599 321.549455 
L 225.131454 321.477035 
L 223.731112 321.404615 
L 222.359954 321.332195 
L 221.017371 321.259775 
L 219.702766 321.187355 
L 218.415558 321.114935 
L 217.155175 321.042515 
L 215.921059 320.970095 
L 214.712661 320.897675 
L 213.529446 320.825255 
L 212.370889 320.752835 
L 211.236477 320.680415 
L 210.125705 320.607995 
L 209.038082 320.535575 
L 207.973124 320.463155 
L 206.93036 320.390735 
L 205.909328 320.318316 
L 204.909573 320.245896 
L 203.930653 320.173476 
L 202.972134 320.101056 
L 202.03359 320.028636 
L 201.114605 319.956216 
L 200.214772 319.883796 
L 199.333691 319.811376 
L 198.470972 319.738956 
L 197.626232 319.666536 
L 196.799096 319.594116 
L 195.989198 319.521696 
L 195.196177 319.449276 
L 194.419683 319.376856 
L 193.659372 319.304436 
L 192.914904 319.232016 
L 192.185952 319.159596 
L 191.472191 319.087176 
L 190.773304 319.014756 
L 190.088982 318.942336 
L 189.418922 318.869916 
L 188.762825 318.797496 
L 188.120402 318.725076 
L 187.491366 318.652656 
L 186.875439 318.580236 
L 186.272348 318.507816 
L 185.681826 318.435396 
L 185.10361 318.362976 
L 184.537444 318.290556 
L 183.983077 318.218136 
L 183.440262 318.145716 
L 182.90876 318.073296 
L 182.388334 318.000876 
L 181.878754 317.928456 
L 181.379794 317.856037 
L 180.891231 317.783617 
L 180.412851 317.711197 
L 179.944439 317.638777 
L 179.48579 317.566357 
L 179.036698 317.493937 
L 178.596966 317.421517 
L 178.166397 317.349097 
L 177.744802 317.276677 
L 177.331992 317.204257 
L 176.927786 317.131837 
L 176.532003 317.059417 
L 176.144468 316.986997 
L 175.765009 316.914577 
L 175.393458 316.842157 
L 175.029651 316.769737 
L 174.673424 316.697317 
L 174.324622 316.624897 
L 173.983089 316.552477 
L 173.648673 316.480057 
L 173.321226 316.407637 
L 173.000603 316.335217 
L 172.686662 316.262797 
L 172.379264 316.190377 
L 172.078271 316.117957 
L 171.783552 316.045537 
L 171.494974 315.973117 
L 171.21241 315.900697 
L 170.935735 315.828277 
L 170.664825 315.755857 
L 170.399562 315.683437 
L 170.139826 315.611017 
L 169.885503 315.538597 
L 169.63648 315.466177 
L 169.392647 315.393757 
L 169.153896 315.321338 
L 168.92012 315.248918 
L 168.691215 315.176498 
L 168.467081 315.104078 
L 168.247618 315.031658 
L 168.032729 314.959238 
L 167.822318 314.886818 
L 167.616292 314.814398 
L 167.414559 314.741978 
L 167.21703 314.669558 
L 167.023618 314.597138 
L 166.834237 314.524718 
L 166.648802 314.452298 
L 166.648802 314.452298 
L 166.648802 257.949818 
z
" clip-path="url(#pcb6995641e)" style="fill: #ff7f0e; fill-opacity: 0.5"/>
     </g>
     <g id="patch_5">
      <path d="M 567.493473 72.964375 
L 567.493473 321.621875 
M 579.040483 72.964375 
L 579.040483 321.621875 
" clip-path="url(#pcb6995641e)" style="fill: none; stroke: #ffffff; stroke-width: 3; stroke-linejoin: miter"/>
      <path d="M 567.493473 72.964375 
L 567.493473 321.621875 
M 579.040483 72.964375 
L 579.040483 321.621875 
" clip-path="url(#pcb6995641e)" style="fill: none; stroke: #2ca02c; stroke-linejoin: miter"/>
      <g id="PolyCollection_3">
       <path d="M 579.040483 72.964375 
L 567.493473 72.964375 
L 567.493473 321.621875 
L 579.040483 321.621875 
L 579.040483 321.621875 
L 579.040483 72.964375 
z
" clip-path="url(#pcb6995641e)" style="fill: #2ca02c; fill-opacity: 0.5"/>
      </g>
      <g id="patch_6">
       <path d="M 453.078511 270.503049 
L 453.078511 273.660769 
L 453.642196 273.660769 
L 453.642196 274.644321 
L 453.078511 274.644321 
L 452.985301 303.826955 
L 452.293201 307.163502 
L 451.494806 309.943959 
L 450.582585 312.353687 
L 449.504421 314.578052 
L 448.263753 316.617054 
L 446.87561 318.470691 
L 445.368099 320.138965 
L 443.782827 321.621875 
M 456.123551 270.503049 
L 456.123551 273.660769 
L 455.559865 273.660769 
L 455.559865 274.644321 
L 456.123551 274.644321 
L 456.216761 303.826955 
L 456.90886 307.163502 
L 457.707255 309.943959 
L 458.619476 312.353687 
L 459.697641 314.578052 
L 460.938309 316.617054 
L 462.326452 318.470691 
L 463.833963 320.138965 
L 465.419235 321.621875 
L 465.419235 321.621875 
" clip-path="url(#pcb6995641e)" style="fill: none; stroke: #ffffff; stroke-width: 3; stroke-linejoin: miter"/>
       <path d="M 453.078511 270.503049 
L 453.078511 273.660769 
L 453.642196 273.660769 
L 453.642196 274.644321 
L 453.078511 274.644321 
L 452.985301 303.826955 
L 452.293201 307.163502 
L 451.494806 309.943959 
L 450.582585 312.353687 
L 449.504421 314.578052 
L 448.263753 316.617054 
L 446.87561 318.470691 
L 445.368099 320.138965 
L 443.782827 321.621875 
M 456.123551 270.503049 
L 456.123551 273.660769 
L 455.559865 273.660769 
L 455.559865 274.644321 
L 456.123551 274.644321 
L 456.216761 303.826955 
L 456.90886 307.163502 
L 457.707255 309.943959 
L 458.619476 312.353687 
L 459.697641 314.578052 
L 460.938309 316.617054 
L 462.326452 318.470691 
L 463.833963 320.138965 
L 465.419235 321.621875 
L 465.419235 321.621875 
" clip-path="url(#pcb6995641e)" style="fill: none; stroke: #d62728; stroke-linejoin: miter"/>
       <g id="PolyCollection_4">
        <path d="M 456.123551 270.503049 
L 453.078511 270.503049 
L 453.078511 273.660769 
L 453.642196 273.660769 
L 453.642196 274.644321 
L 453.078511 274.644321 
L 453.078511 303.270863 
L 453.078511 303.270863 
L 453.048054 303.456227 
L 453.016988 303.641591 
L 452.985301 303.826955 
L 452.952979 304.012319 
L 452.920012 304.197682 
L 452.886384 304.383046 
L 452.852084 304.56841 
L 452.817098 304.753774 
L 452.781412 304.939137 
L 452.745012 305.124501 
L 452.707884 305.309865 
L 452.670013 305.495229 
L 452.631385 305.680592 
L 452.591984 305.865956 
L 452.551794 306.05132 
L 452.510801 306.236684 
L 452.468988 306.422047 
L 452.426338 306.607411 
L 452.382835 306.792775 
L 452.338462 306.978139 
L 452.293201 307.163502 
L 452.247035 307.348866 
L 452.199945 307.53423 
L 452.151914 307.719594 
L 452.102921 307.904957 
L 452.052948 308.090321 
L 452.001976 308.275685 
L 451.949984 308.461049 
L 451.896952 308.646412 
L 451.84286 308.831776 
L 451.787685 309.01714 
L 451.731406 309.202504 
L 451.674002 309.387867 
L 451.615449 309.573231 
L 451.555725 309.758595 
L 451.494806 309.943959 
L 451.432669 310.129322 
L 451.369288 310.314686 
L 451.30464 310.50005 
L 451.238699 310.685414 
L 451.171438 310.870777 
L 451.102832 311.056141 
L 451.032853 311.241505 
L 450.961475 311.426869 
L 450.888669 311.612232 
L 450.814406 311.797596 
L 450.738658 311.98296 
L 450.661394 312.168324 
L 450.582585 312.353687 
L 450.502199 312.539051 
L 450.420206 312.724415 
L 450.336572 312.909779 
L 450.251265 313.095142 
L 450.164252 313.280506 
L 450.075498 313.46587 
L 449.984968 313.651234 
L 449.892628 313.836597 
L 449.79844 314.021961 
L 449.702368 314.207325 
L 449.604375 314.392689 
L 449.504421 314.578052 
L 449.402467 314.763416 
L 449.298475 314.94878 
L 449.192401 315.134144 
L 449.084206 315.319507 
L 448.973847 315.504871 
L 448.86128 315.690235 
L 448.746461 315.875599 
L 448.629345 316.060962 
L 448.509887 316.246326 
L 448.388039 316.43169 
L 448.263753 316.617054 
L 448.136981 316.802417 
L 448.007673 316.987781 
L 447.875779 317.173145 
L 447.741246 317.358509 
L 447.604021 317.543872 
L 447.464052 317.729236 
L 447.321283 317.9146 
L 447.175658 318.099964 
L 447.027119 318.285327 
L 446.87561 318.470691 
L 446.721069 318.656055 
L 446.563437 318.841419 
L 446.402652 319.026782 
L 446.23865 319.212146 
L 446.071368 319.39751 
L 445.900739 319.582874 
L 445.726697 319.768237 
L 445.549173 319.953601 
L 445.368099 320.138965 
L 445.183402 320.324329 
L 444.99501 320.509692 
L 444.80285 320.695056 
L 444.606845 320.88042 
L 444.40692 321.065784 
L 444.202995 321.251147 
L 443.994992 321.436511 
L 443.782827 321.621875 
L 465.419235 321.621875 
L 465.419235 321.621875 
L 465.20707 321.436511 
L 464.999066 321.251147 
L 464.795142 321.065784 
L 464.595216 320.88042 
L 464.399212 320.695056 
L 464.207052 320.509692 
L 464.01866 320.324329 
L 463.833963 320.138965 
L 463.652888 319.953601 
L 463.475365 319.768237 
L 463.301323 319.582874 
L 463.130694 319.39751 
L 462.963411 319.212146 
L 462.79941 319.026782 
L 462.638625 318.841419 
L 462.480993 318.656055 
L 462.326452 318.470691 
L 462.174942 318.285327 
L 462.026404 318.099964 
L 461.880779 317.9146 
L 461.73801 317.729236 
L 461.59804 317.543872 
L 461.460816 317.358509 
L 461.326283 317.173145 
L 461.194388 316.987781 
L 461.065081 316.802417 
L 460.938309 316.617054 
L 460.814023 316.43169 
L 460.692175 316.246326 
L 460.572716 316.060962 
L 460.455601 315.875599 
L 460.340782 315.690235 
L 460.228215 315.504871 
L 460.117855 315.319507 
L 460.00966 315.134144 
L 459.903587 314.94878 
L 459.799594 314.763416 
L 459.697641 314.578052 
L 459.597687 314.392689 
L 459.499693 314.207325 
L 459.403621 314.021961 
L 459.309434 313.836597 
L 459.217093 313.651234 
L 459.126564 313.46587 
L 459.03781 313.280506 
L 458.950797 313.095142 
L 458.86549 312.909779 
L 458.781856 312.724415 
L 458.699862 312.539051 
L 458.619476 312.353687 
L 458.540667 312.168324 
L 458.463404 311.98296 
L 458.387656 311.797596 
L 458.313393 311.612232 
L 458.240587 311.426869 
L 458.169208 311.241505 
L 458.09923 311.056141 
L 458.030624 310.870777 
L 457.963363 310.685414 
L 457.897422 310.50005 
L 457.832773 310.314686 
L 457.769393 310.129322 
L 457.707255 309.943959 
L 457.646337 309.758595 
L 457.586613 309.573231 
L 457.52806 309.387867 
L 457.470655 309.202504 
L 457.414377 309.01714 
L 457.359202 308.831776 
L 457.305109 308.646412 
L 457.252077 308.461049 
L 457.200085 308.275685 
L 457.149113 308.090321 
L 457.099141 307.904957 
L 457.050148 307.719594 
L 457.002116 307.53423 
L 456.955027 307.348866 
L 456.90886 307.163502 
L 456.8636 306.978139 
L 456.819226 306.792775 
L 456.775724 306.607411 
L 456.733074 306.422047 
L 456.691261 306.236684 
L 456.650267 306.05132 
L 456.610078 305.865956 
L 456.570677 305.680592 
L 456.532049 305.495229 
L 456.494178 305.309865 
L 456.45705 305.124501 
L 456.42065 304.939137 
L 456.384964 304.753774 
L 456.349977 304.56841 
L 456.315677 304.383046 
L 456.28205 304.197682 
L 456.249082 304.012319 
L 456.216761 303.826955 
L 456.185073 303.641591 
L 456.154007 303.456227 
L 456.123551 303.270863 
L 456.123551 303.270863 
L 456.123551 274.644321 
L 455.559865 274.644321 
L 455.559865 273.660769 
L 456.123551 273.660769 
L 456.123551 270.503049 
z
" clip-path="url(#pcb6995641e)" style="fill: #d62728; fill-opacity: 0.5"/>
       </g>
       <g id="matplotlib.axis_1">
        <g id="xtick_1">
         <g id="line2d_1"/>
         <g id="text_1">
          <!-- OUT -->
          <g transform="translate(147.286943 332.720312) scale(0.1 -0.1)">
           <defs>
            <path id="DejaVuSans-4f" d="M 2522 4238 
Q 1834 4238 1429 3725 
Q 1025 3213 1025 2328 
Q 1025 1447 1429 934 
Q 1834 422 2522 422 
Q 3209 422 3611 934 
Q 4013 1447 4013 2328 
Q 4013 3213 3611 3725 
Q 3209 4238 2522 4238 
z
M 2522 4750 
Q 3503 4750 4090 4092 
Q 4678 3434 4678 2328 
Q 4678 1225 4090 567 
Q 3503 -91 2522 -91 
Q 1538 -91 948 565 
Q 359 1222 359 2328 
Q 359 3434 948 4092 
Q 1538 4750 2522 4750 
z
" transform="scale(0.015625)"/>
            <path id="DejaVuSans-55" d="M 556 4666 
L 1191 4666 
L 1191 1831 
Q 1191 1081 1462 751 
Q 1734 422 2344 422 
Q 2950 422 3222 751 
Q 3494 1081 3494 1831 
L 3494 4666 
L 4128 4666 
L 4128 1753 
Q 4128 841 3676 375 
Q 3225 -91 2344 -91 
Q 1459 -91 1007 375 
Q 556 841 556 1753 
L 556 4666 
z
" transform="scale(0.015625)"/>
            <path id="DejaVuSans-54" d="M -19 4666 
L 3928 4666 
L 3928 4134 
L 2272 4134 
L 2272 0 
L 1638 0 
L 1638 4134 
L -19 4134 
L -19 4666 
z
" transform="scale(0.015625)"/>
           </defs>
           <use xlink:href="#DejaVuSans-4f"/>
           <use xlink:href="#DejaVuSans-55" x="78.710938"/>
           <use xlink:href="#DejaVuSans-54" x="151.904297"/>
          </g>
         </g>
        </g>
        <g id="xtick_2">
         <g id="line2d_2"/>
         <g id="text_2">
          <!-- SRC -->
          <g transform="translate(563.377134 332.720312) scale(0.1 -0.1)">
           <defs>
            <path id="DejaVuSans-53" d="M 3425 4513 
L 3425 3897 
Q 3066 4069 2747 4153 
Q 2428 4238 2131 4238 
Q 1616 4238 1336 4038 
Q 1056 3838 1056 3469 
Q 1056 3159 1242 3001 
Q 1428 2844 1947 2747 
L 2328 2669 
Q 3034 2534 3370 2195 
Q 3706 1856 3706 1288 
Q 3706 609 3251 259 
Q 2797 -91 1919 -91 
Q 1588 -91 1214 -16 
Q 841 59 441 206 
L 441 856 
Q 825 641 1194 531 
Q 1563 422 1919 422 
Q 2459 422 2753 634 
Q 3047 847 3047 1241 
Q 3047 1584 2836 1778 
Q 2625 1972 2144 2069 
L 1759 2144 
Q 1053 2284 737 2584 
Q 422 2884 422 3419 
Q 422 4038 858 4394 
Q 1294 4750 2059 4750 
Q 2388 4750 2728 4690 
Q 3069 4631 3425 4513 
z
" transform="scale(0.015625)"/>
            <path id="DejaVuSans-52" d="M 2841 2188 
Q 3044 2119 3236 1894 
Q 3428 1669 3622 1275 
L 4263 0 
L 3584 0 
L 2988 1197 
Q 2756 1666 2539 1819 
Q 2322 1972 1947 1972 
L 1259 1972 
L 1259 0 
L 628 0 
L 628 4666 
L 2053 4666 
Q 2853 4666 3247 4331 
Q 3641 3997 3641 3322 
Q 3641 2881 3436 2590 
Q 3231 2300 2841 2188 
z
M 1259 4147 
L 1259 2491 
L 2053 2491 
Q 2509 2491 2742 2702 
Q 2975 2913 2975 3322 
Q 2975 3731 2742 3939 
Q 2509 4147 2053 4147 
L 1259 4147 
z
" transform="scale(0.015625)"/>
            <path id="DejaVuSans-43" d="M 4122 4306 
L 4122 3641 
Q 3803 3938 3442 4084 
Q 3081 4231 2675 4231 
Q 1875 4231 1450 3742 
Q 1025 3253 1025 2328 
Q 1025 1406 1450 917 
Q 1875 428 2675 428 
Q 3081 428 3442 575 
Q 3803 722 4122 1019 
L 4122 359 
Q 3791 134 3420 21 
Q 3050 -91 2638 -91 
Q 1578 -91 968 557 
Q 359 1206 359 2328 
Q 359 3453 968 4101 
Q 1578 4750 2638 4750 
Q 3056 4750 3426 4639 
Q 3797 4528 4122 4306 
z
" transform="scale(0.015625)"/>
           </defs>
           <use xlink:href="#DejaVuSans-53"/>
           <use xlink:href="#DejaVuSans-52" x="63.476562"/>
           <use xlink:href="#DejaVuSans-43" x="127.958984"/>
          </g>
         </g>
        </g>
        <g id="xtick_3">
         <g id="line2d_3"/>
         <g id="text_3">
          <!-- TAR -->
          <g transform="translate(445.040093 332.720312) scale(0.1 -0.1)">
           <defs>
            <path id="DejaVuSans-41" d="M 2188 4044 
L 1331 1722 
L 3047 1722 
L 2188 4044 
z
M 1831 4666 
L 2547 4666 
L 4325 0 
L 3669 0 
L 3244 1197 
L 1141 1197 
L 716 0 
L 50 0 
L 1831 4666 
z
" transform="scale(0.015625)"/>
           </defs>
           <use xlink:href="#DejaVuSans-54"/>
           <use xlink:href="#DejaVuSans-41" x="53.333984"/>
           <use xlink:href="#DejaVuSans-52" x="121.742188"/>
          </g>
         </g>
        </g>
       </g>
       <g id="matplotlib.axis_2">
        <g id="ytick_1">
         <g id="line2d_4">
          <defs>
           <path id="me44a0f5f34" d="M 0 0 
L -3.5 0 
" style="stroke: #000000; stroke-width: 0.8"/>
          </defs>
          <g>
           <use xlink:href="#me44a0f5f34" x="63.290625" y="321.621875" style="stroke: #000000; stroke-width: 0.8"/>
          </g>
         </g>
         <g id="text_4">
          <!-- 0 -->
          <g transform="translate(49.928125 325.421094) scale(0.1 -0.1)">
           <defs>
            <path id="DejaVuSans-30" d="M 2034 4250 
Q 1547 4250 1301 3770 
Q 1056 3291 1056 2328 
Q 1056 1369 1301 889 
Q 1547 409 2034 409 
Q 2525 409 2770 889 
Q 3016 1369 3016 2328 
Q 3016 3291 2770 3770 
Q 2525 4250 2034 4250 
z
M 2034 4750 
Q 2819 4750 3233 4129 
Q 3647 3509 3647 2328 
Q 3647 1150 3233 529 
Q 2819 -91 2034 -91 
Q 1250 -91 836 529 
Q 422 1150 422 2328 
Q 422 3509 836 4129 
Q 1250 4750 2034 4750 
z
" transform="scale(0.015625)"/>
           </defs>
           <use xlink:href="#DejaVuSans-30"/>
          </g>
         </g>
        </g>
        <g id="ytick_2">
         <g id="line2d_5">
          <g>
           <use xlink:href="#me44a0f5f34" x="63.290625" y="256.9145" style="stroke: #000000; stroke-width: 0.8"/>
          </g>
         </g>
         <g id="text_5">
          <!-- 5000 -->
          <g transform="translate(30.840625 260.713719) scale(0.1 -0.1)">
           <defs>
            <path id="DejaVuSans-35" d="M 691 4666 
L 3169 4666 
L 3169 4134 
L 1269 4134 
L 1269 2991 
Q 1406 3038 1543 3061 
Q 1681 3084 1819 3084 
Q 2600 3084 3056 2656 
Q 3513 2228 3513 1497 
Q 3513 744 3044 326 
Q 2575 -91 1722 -91 
Q 1428 -91 1123 -41 
Q 819 9 494 109 
L 494 744 
Q 775 591 1075 516 
Q 1375 441 1709 441 
Q 2250 441 2565 725 
Q 2881 1009 2881 1497 
Q 2881 1984 2565 2268 
Q 2250 2553 1709 2553 
Q 1456 2553 1204 2497 
Q 953 2441 691 2322 
L 691 4666 
z
" transform="scale(0.015625)"/>
           </defs>
           <use xlink:href="#DejaVuSans-35"/>
           <use xlink:href="#DejaVuSans-30" x="63.623047"/>
           <use xlink:href="#DejaVuSans-30" x="127.246094"/>
           <use xlink:href="#DejaVuSans-30" x="190.869141"/>
          </g>
         </g>
        </g>
        <g id="ytick_3">
         <g id="line2d_6">
          <g>
           <use xlink:href="#me44a0f5f34" x="63.290625" y="192.207125" style="stroke: #000000; stroke-width: 0.8"/>
          </g>
         </g>
         <g id="text_6">
          <!-- 10000 -->
          <g transform="translate(24.478125 196.006344) scale(0.1 -0.1)">
           <defs>
            <path id="DejaVuSans-31" d="M 794 531 
L 1825 531 
L 1825 4091 
L 703 3866 
L 703 4441 
L 1819 4666 
L 2450 4666 
L 2450 531 
L 3481 531 
L 3481 0 
L 794 0 
L 794 531 
z
" transform="scale(0.015625)"/>
           </defs>
           <use xlink:href="#DejaVuSans-31"/>
           <use xlink:href="#DejaVuSans-30" x="63.623047"/>
           <use xlink:href="#DejaVuSans-30" x="127.246094"/>
           <use xlink:href="#DejaVuSans-30" x="190.869141"/>
           <use xlink:href="#DejaVuSans-30" x="254.492188"/>
          </g>
         </g>
        </g>
        <g id="ytick_4">
         <g id="line2d_7">
          <g>
           <use xlink:href="#me44a0f5f34" x="63.290625" y="127.499751" style="stroke: #000000; stroke-width: 0.8"/>
          </g>
         </g>
         <g id="text_7">
          <!-- 15000 -->
          <g transform="translate(24.478125 131.298969) scale(0.1 -0.1)">
           <use xlink:href="#DejaVuSans-31"/>
           <use xlink:href="#DejaVuSans-35" x="63.623047"/>
           <use xlink:href="#DejaVuSans-30" x="127.246094"/>
           <use xlink:href="#DejaVuSans-30" x="190.869141"/>
           <use xlink:href="#DejaVuSans-30" x="254.492188"/>
          </g>
         </g>
        </g>
        <g id="ytick_5">
         <g id="line2d_8">
          <g>
           <use xlink:href="#me44a0f5f34" x="63.290625" y="62.792376" style="stroke: #000000; stroke-width: 0.8"/>
          </g>
         </g>
         <g id="text_8">
          <!-- 20000 -->
          <g transform="translate(24.478125 66.591594) scale(0.1 -0.1)">
           <defs>
            <path id="DejaVuSans-32" d="M 1228 531 
L 3431 531 
L 3431 0 
L 469 0 
L 469 531 
Q 828 903 1448 1529 
Q 2069 2156 2228 2338 
Q 2531 2678 2651 2914 
Q 2772 3150 2772 3378 
Q 2772 3750 2511 3984 
Q 2250 4219 1831 4219 
Q 1534 4219 1204 4116 
Q 875 4013 500 3803 
L 500 4441 
Q 881 4594 1212 4672 
Q 1544 4750 1819 4750 
Q 2544 4750 2975 4387 
Q 3406 4025 3406 3419 
Q 3406 3131 3298 2873 
Q 3191 2616 2906 2266 
Q 2828 2175 2409 1742 
Q 1991 1309 1228 531 
z
" transform="scale(0.015625)"/>
           </defs>
           <use xlink:href="#DejaVuSans-32"/>
           <use xlink:href="#DejaVuSans-30" x="63.623047"/>
           <use xlink:href="#DejaVuSans-30" x="127.246094"/>
           <use xlink:href="#DejaVuSans-30" x="190.869141"/>
           <use xlink:href="#DejaVuSans-30" x="254.492188"/>
          </g>
         </g>
        </g>
        <g id="text_9">
         <!-- time ago (generations) -->
         <g transform="translate(18.398438 223.682031) rotate(-90) scale(0.1 -0.1)">
          <defs>
           <path id="DejaVuSans-74" d="M 1172 4494 
L 1172 3500 
L 2356 3500 
L 2356 3053 
L 1172 3053 
L 1172 1153 
Q 1172 725 1289 603 
Q 1406 481 1766 481 
L 2356 481 
L 2356 0 
L 1766 0 
Q 1100 0 847 248 
Q 594 497 594 1153 
L 594 3053 
L 172 3053 
L 172 3500 
L 594 3500 
L 594 4494 
L 1172 4494 
z
" transform="scale(0.015625)"/>
           <path id="DejaVuSans-69" d="M 603 3500 
L 1178 3500 
L 1178 0 
L 603 0 
L 603 3500 
z
M 603 4863 
L 1178 4863 
L 1178 4134 
L 603 4134 
L 603 4863 
z
" transform="scale(0.015625)"/>
           <path id="DejaVuSans-6d" d="M 3328 2828 
Q 3544 3216 3844 3400 
Q 4144 3584 4550 3584 
Q 5097 3584 5394 3201 
Q 5691 2819 5691 2113 
L 5691 0 
L 5113 0 
L 5113 2094 
Q 5113 2597 4934 2840 
Q 4756 3084 4391 3084 
Q 3944 3084 3684 2787 
Q 3425 2491 3425 1978 
L 3425 0 
L 2847 0 
L 2847 2094 
Q 2847 2600 2669 2842 
Q 2491 3084 2119 3084 
Q 1678 3084 1418 2786 
Q 1159 2488 1159 1978 
L 1159 0 
L 581 0 
L 581 3500 
L 1159 3500 
L 1159 2956 
Q 1356 3278 1631 3431 
Q 1906 3584 2284 3584 
Q 2666 3584 2933 3390 
Q 3200 3197 3328 2828 
z
" transform="scale(0.015625)"/>
           <path id="DejaVuSans-65" d="M 3597 1894 
L 3597 1613 
L 953 1613 
Q 991 1019 1311 708 
Q 1631 397 2203 397 
Q 2534 397 2845 478 
Q 3156 559 3463 722 
L 3463 178 
Q 3153 47 2828 -22 
Q 2503 -91 2169 -91 
Q 1331 -91 842 396 
Q 353 884 353 1716 
Q 353 2575 817 3079 
Q 1281 3584 2069 3584 
Q 2775 3584 3186 3129 
Q 3597 2675 3597 1894 
z
M 3022 2063 
Q 3016 2534 2758 2815 
Q 2500 3097 2075 3097 
Q 1594 3097 1305 2825 
Q 1016 2553 972 2059 
L 3022 2063 
z
" transform="scale(0.015625)"/>
           <path id="DejaVuSans-20" transform="scale(0.015625)"/>
           <path id="DejaVuSans-61" d="M 2194 1759 
Q 1497 1759 1228 1600 
Q 959 1441 959 1056 
Q 959 750 1161 570 
Q 1363 391 1709 391 
Q 2188 391 2477 730 
Q 2766 1069 2766 1631 
L 2766 1759 
L 2194 1759 
z
M 3341 1997 
L 3341 0 
L 2766 0 
L 2766 531 
Q 2569 213 2275 61 
Q 1981 -91 1556 -91 
Q 1019 -91 701 211 
Q 384 513 384 1019 
Q 384 1609 779 1909 
Q 1175 2209 1959 2209 
L 2766 2209 
L 2766 2266 
Q 2766 2663 2505 2880 
Q 2244 3097 1772 3097 
Q 1472 3097 1187 3025 
Q 903 2953 641 2809 
L 641 3341 
Q 956 3463 1253 3523 
Q 1550 3584 1831 3584 
Q 2591 3584 2966 3190 
Q 3341 2797 3341 1997 
z
" transform="scale(0.015625)"/>
           <path id="DejaVuSans-67" d="M 2906 1791 
Q 2906 2416 2648 2759 
Q 2391 3103 1925 3103 
Q 1463 3103 1205 2759 
Q 947 2416 947 1791 
Q 947 1169 1205 825 
Q 1463 481 1925 481 
Q 2391 481 2648 825 
Q 2906 1169 2906 1791 
z
M 3481 434 
Q 3481 -459 3084 -895 
Q 2688 -1331 1869 -1331 
Q 1566 -1331 1297 -1286 
Q 1028 -1241 775 -1147 
L 775 -588 
Q 1028 -725 1275 -790 
Q 1522 -856 1778 -856 
Q 2344 -856 2625 -561 
Q 2906 -266 2906 331 
L 2906 616 
Q 2728 306 2450 153 
Q 2172 0 1784 0 
Q 1141 0 747 490 
Q 353 981 353 1791 
Q 353 2603 747 3093 
Q 1141 3584 1784 3584 
Q 2172 3584 2450 3431 
Q 2728 3278 2906 2969 
L 2906 3500 
L 3481 3500 
L 3481 434 
z
" transform="scale(0.015625)"/>
           <path id="DejaVuSans-6f" d="M 1959 3097 
Q 1497 3097 1228 2736 
Q 959 2375 959 1747 
Q 959 1119 1226 758 
Q 1494 397 1959 397 
Q 2419 397 2687 759 
Q 2956 1122 2956 1747 
Q 2956 2369 2687 2733 
Q 2419 3097 1959 3097 
z
M 1959 3584 
Q 2709 3584 3137 3096 
Q 3566 2609 3566 1747 
Q 3566 888 3137 398 
Q 2709 -91 1959 -91 
Q 1206 -91 779 398 
Q 353 888 353 1747 
Q 353 2609 779 3096 
Q 1206 3584 1959 3584 
z
" transform="scale(0.015625)"/>
           <path id="DejaVuSans-28" d="M 1984 4856 
Q 1566 4138 1362 3434 
Q 1159 2731 1159 2009 
Q 1159 1288 1364 580 
Q 1569 -128 1984 -844 
L 1484 -844 
Q 1016 -109 783 600 
Q 550 1309 550 2009 
Q 550 2706 781 3412 
Q 1013 4119 1484 4856 
L 1984 4856 
z
" transform="scale(0.015625)"/>
           <path id="DejaVuSans-6e" d="M 3513 2113 
L 3513 0 
L 2938 0 
L 2938 2094 
Q 2938 2591 2744 2837 
Q 2550 3084 2163 3084 
Q 1697 3084 1428 2787 
Q 1159 2491 1159 1978 
L 1159 0 
L 581 0 
L 581 3500 
L 1159 3500 
L 1159 2956 
Q 1366 3272 1645 3428 
Q 1925 3584 2291 3584 
Q 2894 3584 3203 3211 
Q 3513 2838 3513 2113 
z
" transform="scale(0.015625)"/>
           <path id="DejaVuSans-72" d="M 2631 2963 
Q 2534 3019 2420 3045 
Q 2306 3072 2169 3072 
Q 1681 3072 1420 2755 
Q 1159 2438 1159 1844 
L 1159 0 
L 581 0 
L 581 3500 
L 1159 3500 
L 1159 2956 
Q 1341 3275 1631 3429 
Q 1922 3584 2338 3584 
Q 2397 3584 2469 3576 
Q 2541 3569 2628 3553 
L 2631 2963 
z
" transform="scale(0.015625)"/>
           <path id="DejaVuSans-73" d="M 2834 3397 
L 2834 2853 
Q 2591 2978 2328 3040 
Q 2066 3103 1784 3103 
Q 1356 3103 1142 2972 
Q 928 2841 928 2578 
Q 928 2378 1081 2264 
Q 1234 2150 1697 2047 
L 1894 2003 
Q 2506 1872 2764 1633 
Q 3022 1394 3022 966 
Q 3022 478 2636 193 
Q 2250 -91 1575 -91 
Q 1294 -91 989 -36 
Q 684 19 347 128 
L 347 722 
Q 666 556 975 473 
Q 1284 391 1588 391 
Q 1994 391 2212 530 
Q 2431 669 2431 922 
Q 2431 1156 2273 1281 
Q 2116 1406 1581 1522 
L 1381 1569 
Q 847 1681 609 1914 
Q 372 2147 372 2553 
Q 372 3047 722 3315 
Q 1072 3584 1716 3584 
Q 2034 3584 2315 3537 
Q 2597 3491 2834 3397 
z
" transform="scale(0.015625)"/>
           <path id="DejaVuSans-29" d="M 513 4856 
L 1013 4856 
Q 1481 4119 1714 3412 
Q 1947 2706 1947 2009 
Q 1947 1309 1714 600 
Q 1481 -109 1013 -844 
L 513 -844 
Q 928 -128 1133 580 
Q 1338 1288 1338 2009 
Q 1338 2731 1133 3434 
Q 928 4138 513 4856 
z
" transform="scale(0.015625)"/>
          </defs>
          <use xlink:href="#DejaVuSans-74"/>
          <use xlink:href="#DejaVuSans-69" x="39.208984"/>
          <use xlink:href="#DejaVuSans-6d" x="66.992188"/>
          <use xlink:href="#DejaVuSans-65" x="164.404297"/>
          <use xlink:href="#DejaVuSans-20" x="225.927734"/>
          <use xlink:href="#DejaVuSans-61" x="257.714844"/>
          <use xlink:href="#DejaVuSans-67" x="318.994141"/>
          <use xlink:href="#DejaVuSans-6f" x="382.470703"/>
          <use xlink:href="#DejaVuSans-20" x="443.652344"/>
          <use xlink:href="#DejaVuSans-28" x="475.439453"/>
          <use xlink:href="#DejaVuSans-67" x="514.453125"/>
          <use xlink:href="#DejaVuSans-65" x="577.929688"/>
          <use xlink:href="#DejaVuSans-6e" x="639.453125"/>
          <use xlink:href="#DejaVuSans-65" x="702.832031"/>
          <use xlink:href="#DejaVuSans-72" x="764.355469"/>
          <use xlink:href="#DejaVuSans-61" x="805.46875"/>
          <use xlink:href="#DejaVuSans-74" x="866.748047"/>
          <use xlink:href="#DejaVuSans-69" x="905.957031"/>
          <use xlink:href="#DejaVuSans-6f" x="933.740234"/>
          <use xlink:href="#DejaVuSans-6e" x="994.921875"/>
          <use xlink:href="#DejaVuSans-73" x="1058.300781"/>
          <use xlink:href="#DejaVuSans-29" x="1110.400391"/>
         </g>
        </g>
       </g>
       <g id="patch_7">
        <path d="M 321.815205 257.949818 
L 320.815205 257.918382 
L 319.815205 257.881441 
L 318.815205 257.783695 
L 317.815205 257.751173 
L 316.815205 257.677549 
L 315.815205 257.638983 
L 314.815205 257.60357 
L 313.815205 257.54593 
L 312.815205 257.475544 
L 311.815205 257.42358 
L 310.815205 257.36449 
L 309.815205 257.276169 
L 308.815205 257.230025 
L 307.815205 257.187614 
L 306.815205 257.157121 
L 305.815205 257.131076 
L 304.815205 257.109876 
L 303.815205 257.055575 
L 302.815205 257.027637 
L 301.815205 256.997913 
L 300.815205 256.972518 
L 299.815205 256.961318 
L 298.815205 256.951194 
L 297.815205 256.951398 
L 296.815205 256.960908 
L 295.815205 256.972562 
L 294.815205 257.003591 
L 293.815205 257.014759 
L 292.815205 257.044877 
L 291.815205 257.104653 
L 290.815205 257.141845 
L 289.815205 257.180941 
L 288.815205 257.223381 
L 287.815205 257.256146 
L 286.815205 257.323572 
L 285.815205 257.362698 
L 284.815205 257.405373 
L 283.815205 257.475953 
L 282.815205 257.512344 
L 281.815205 257.570747 
L 280.815205 257.6817 
L 279.815205 257.752358 
L 278.815205 257.865298 
L 277.815205 257.911071 
L 276.815205 257.972354 
L 275.815205 258.020854 
L 274.815205 258.101676 
L 273.815205 258.220195 
L 272.815205 258.290406 
L 271.815205 258.373668 
L 270.815205 258.40681 
L 269.815205 258.458047 
L 268.815205 258.526446 
L 267.815205 258.592661 
L 266.815205 258.669578 
L 265.815205 258.696894 
L 264.815205 258.723371 
L 263.815205 258.746022 
L 262.815205 258.765553 
L 261.815205 258.791947 
L 260.815205 258.841718 
L 259.815205 258.876791 
L 258.815205 258.912657 
L 257.815205 258.928024 
L 256.815205 258.943793 
L 255.815205 258.947206 
L 254.815205 258.949624 
L 253.815205 258.949137 
L 252.815205 258.947208 
L 251.815205 258.933951 
L 250.815205 258.925561 
L 249.815205 258.904024 
L 248.815205 258.880992 
L 247.815205 258.863758 
L 246.815205 258.845296 
L 245.815205 258.824843 
L 244.815205 258.808243 
L 243.815205 258.745464 
L 242.815205 258.670199 
L 241.815205 258.63756 
L 240.815205 258.569997 
L 239.815205 258.51595 
L 238.815205 258.482245 
L 237.815205 258.392119 
L 236.815205 258.363584 
L 235.815205 258.332098 
L 234.815205 258.301087 
L 233.815205 258.246279 
L 232.815205 258.181692 
L 231.815205 258.143497 
L 230.815205 258.047562 
L 229.815205 257.998304 
L 228.815205 257.954235 
L 227.815205 257.914111 
L 226.815205 257.805744 
L 225.815205 257.764116 
L 224.815205 257.701975 
L 223.815205 257.632012 
L 222.815205 257.527508 
L 221.815205 257.49052 
L 220.815205 257.444643 
L 219.815205 257.376149 
L 218.815205 257.327403 
L 217.815205 257.249805 
L 216.815205 257.219265 
L 215.815205 257.14975 
L 214.815205 257.125777 
L 213.815205 257.097155 
L 212.815205 257.055362 
L 211.815205 257.033786 
L 210.815205 257.019838 
L 209.815205 256.993116 
L 208.815205 256.983806 
L 207.815205 256.97136 
L 206.815205 256.960305 
L 205.815205 256.95464 
L 204.815205 256.949876 
L 203.815205 256.955424 
L 202.815205 256.968712 
L 201.815205 256.976229 
L 200.815205 257.001014 
L 199.815205 257.024583 
L 198.815205 257.060764 
L 197.815205 257.086725 
L 196.815205 257.109047 
L 195.815205 257.177807 
L 194.815205 257.252342 
L 193.815205 257.346321 
L 192.815205 257.397373 
L 191.815205 257.451307 
L 190.815205 257.486558 
L 189.815205 257.592646 
L 188.815205 257.64491 
L 187.815205 257.681817 
L 186.815205 257.712848 
L 185.815205 257.774003 
L 184.815205 257.841423 
L 183.815205 257.890329 
L 182.815205 257.955521 
L 181.815205 257.993709 
L 180.815205 258.035705 
L 179.815205 258.077722 
L 178.815205 258.137239 
L 177.815205 258.250398 
L 176.815205 258.302649 
L 175.815205 258.342067 
L 174.815205 258.389168 
L 173.815205 258.445948 
L 172.815205 258.478611 
L 171.815205 258.514789 
L 170.815205 258.54688 
L 169.769869 258.581159 
" clip-path="url(#pcb6995641e)" style="fill: none; stroke: #ffffff; stroke-width: 3; stroke-linecap: round"/>
        <path d="M 321.815205 257.949818 
L 320.815205 257.918382 
L 319.815205 257.881441 
L 318.815205 257.783695 
L 317.815205 257.751173 
L 316.815205 257.677549 
L 315.815205 257.638983 
L 314.815205 257.60357 
L 313.815205 257.54593 
L 312.815205 257.475544 
L 311.815205 257.42358 
L 310.815205 257.36449 
L 309.815205 257.276169 
L 308.815205 257.230025 
L 307.815205 257.187614 
L 306.815205 257.157121 
L 305.815205 257.131076 
L 304.815205 257.109876 
L 303.815205 257.055575 
L 302.815205 257.027637 
L 301.815205 256.997913 
L 300.815205 256.972518 
L 299.815205 256.961318 
L 298.815205 256.951194 
L 297.815205 256.951398 
L 296.815205 256.960908 
L 295.815205 256.972562 
L 294.815205 257.003591 
L 293.815205 257.014759 
L 292.815205 257.044877 
L 291.815205 257.104653 
L 290.815205 257.141845 
L 289.815205 257.180941 
L 288.815205 257.223381 
L 287.815205 257.256146 
L 286.815205 257.323572 
L 285.815205 257.362698 
L 284.815205 257.405373 
L 283.815205 257.475953 
L 282.815205 257.512344 
L 281.815205 257.570747 
L 280.815205 257.6817 
L 279.815205 257.752358 
L 278.815205 257.865298 
L 277.815205 257.911071 
L 276.815205 257.972354 
L 275.815205 258.020854 
L 274.815205 258.101676 
L 273.815205 258.220195 
L 272.815205 258.290406 
L 271.815205 258.373668 
L 270.815205 258.40681 
L 269.815205 258.458047 
L 268.815205 258.526446 
L 267.815205 258.592661 
L 266.815205 258.669578 
L 265.815205 258.696894 
L 264.815205 258.723371 
L 263.815205 258.746022 
L 262.815205 258.765553 
L 261.815205 258.791947 
L 260.815205 258.841718 
L 259.815205 258.876791 
L 258.815205 258.912657 
L 257.815205 258.928024 
L 256.815205 258.943793 
L 255.815205 258.947206 
L 254.815205 258.949624 
L 253.815205 258.949137 
L 252.815205 258.947208 
L 251.815205 258.933951 
L 250.815205 258.925561 
L 249.815205 258.904024 
L 248.815205 258.880992 
L 247.815205 258.863758 
L 246.815205 258.845296 
L 245.815205 258.824843 
L 244.815205 258.808243 
L 243.815205 258.745464 
L 242.815205 258.670199 
L 241.815205 258.63756 
L 240.815205 258.569997 
L 239.815205 258.51595 
L 238.815205 258.482245 
L 237.815205 258.392119 
L 236.815205 258.363584 
L 235.815205 258.332098 
L 234.815205 258.301087 
L 233.815205 258.246279 
L 232.815205 258.181692 
L 231.815205 258.143497 
L 230.815205 258.047562 
L 229.815205 257.998304 
L 228.815205 257.954235 
L 227.815205 257.914111 
L 226.815205 257.805744 
L 225.815205 257.764116 
L 224.815205 257.701975 
L 223.815205 257.632012 
L 222.815205 257.527508 
L 221.815205 257.49052 
L 220.815205 257.444643 
L 219.815205 257.376149 
L 218.815205 257.327403 
L 217.815205 257.249805 
L 216.815205 257.219265 
L 215.815205 257.14975 
L 214.815205 257.125777 
L 213.815205 257.097155 
L 212.815205 257.055362 
L 211.815205 257.033786 
L 210.815205 257.019838 
L 209.815205 256.993116 
L 208.815205 256.983806 
L 207.815205 256.97136 
L 206.815205 256.960305 
L 205.815205 256.95464 
L 204.815205 256.949876 
L 203.815205 256.955424 
L 202.815205 256.968712 
L 201.815205 256.976229 
L 200.815205 257.001014 
L 199.815205 257.024583 
L 198.815205 257.060764 
L 197.815205 257.086725 
L 196.815205 257.109047 
L 195.815205 257.177807 
L 194.815205 257.252342 
L 193.815205 257.346321 
L 192.815205 257.397373 
L 191.815205 257.451307 
L 190.815205 257.486558 
L 189.815205 257.592646 
L 188.815205 257.64491 
L 187.815205 257.681817 
L 186.815205 257.712848 
L 185.815205 257.774003 
L 184.815205 257.841423 
L 183.815205 257.890329 
L 182.815205 257.955521 
L 181.815205 257.993709 
L 180.815205 258.035705 
L 179.815205 258.077722 
L 178.815205 258.137239 
L 177.815205 258.250398 
L 176.815205 258.302649 
L 175.815205 258.342067 
L 174.815205 258.389168 
L 173.815205 258.445948 
L 172.815205 258.478611 
L 171.815205 258.514789 
L 170.815205 258.54688 
L 169.769869 258.581159 
" clip-path="url(#pcb6995641e)" style="fill: none; stroke: #1f77b4; stroke-linecap: round"/>
        <path d="M 173.769869 259.949818 
L 172.889501 259.474487 
L 172.011594 258.994233 
L 171.16088 258.459592 
L 169.858706 257.772145 
L 170.786059 257.74613 
L 171.697733 257.33341 
L 172.607998 256.917871 
L 173.950494 256.311067 
L 173.295595 256.949818 
L 173.243631 257.949818 
L 173.184541 259.949818 
z
" clip-path="url(#pcb6995641e)" style="fill: #ffffff; stroke: #ffffff; stroke-width: 3; stroke-linecap: round"/>
        <path d="M 173.769869 259.949818 
L 172.889501 259.474487 
L 172.011594 258.994233 
L 171.16088 258.459592 
L 169.858706 257.772145 
L 170.786059 257.74613 
L 171.697733 257.33341 
L 172.607998 256.917871 
L 173.950494 256.311067 
L 173.295595 256.949818 
L 173.243631 257.949818 
L 173.184541 259.949818 
z
" clip-path="url(#pcb6995641e)" style="fill: #ffffff; stroke: #1f77b4; stroke-linecap: round"/>
        <g id="patch_8">
         <path d="M 350.053863 72.964375 
L 351.053863 72.995811 
L 352.053863 73.032752 
L 353.053863 73.130498 
L 354.053863 73.16302 
L 355.053863 73.236645 
L 356.053863 73.27521 
L 357.053863 73.310623 
L 358.053863 73.368263 
L 359.053863 73.438649 
L 360.053863 73.490614 
L 361.053863 73.549703 
L 362.053863 73.638024 
L 363.053863 73.684169 
L 364.053863 73.72658 
L 365.053863 73.757072 
L 366.053863 73.783117 
L 367.053863 73.804317 
L 368.053863 73.858618 
L 369.053863 73.886556 
L 370.053863 73.91628 
L 371.053863 73.941675 
L 372.053863 73.952875 
L 373.053863 73.962999 
L 374.053863 73.962795 
L 375.053863 73.953285 
L 376.053863 73.941631 
L 377.053863 73.910602 
L 378.053863 73.899434 
L 379.053863 73.869317 
L 380.053863 73.80954 
L 381.053863 73.772348 
L 382.053863 73.733252 
L 383.053863 73.690812 
L 384.053863 73.658047 
L 385.053863 73.590621 
L 386.053863 73.551495 
L 387.053863 73.50882 
L 388.053863 73.43824 
L 389.053863 73.401849 
L 390.053863 73.343446 
L 391.053863 73.232493 
L 392.053863 73.161835 
L 393.053863 73.048895 
L 394.053863 73.003122 
L 395.053863 72.941839 
L 396.053863 72.89334 
L 397.053863 72.812517 
L 398.053863 72.693998 
L 399.053863 72.623787 
L 400.053863 72.540525 
L 401.053863 72.507383 
L 402.053863 72.456146 
L 403.053863 72.387747 
L 404.053863 72.321532 
L 405.053863 72.244615 
L 406.053863 72.217299 
L 407.053863 72.190822 
L 408.053863 72.168171 
L 409.053863 72.14864 
L 410.053863 72.122246 
L 411.053863 72.072475 
L 412.053863 72.037402 
L 413.053863 72.001536 
L 414.053863 71.986169 
L 415.053863 71.9704 
L 416.053863 71.966987 
L 417.053863 71.96457 
L 418.053863 71.965056 
L 419.053863 71.966985 
L 420.053863 71.980242 
L 421.053863 71.988633 
L 422.053863 72.010169 
L 423.053863 72.033202 
L 424.053863 72.050435 
L 425.053863 72.068898 
L 426.053863 72.08935 
L 427.053863 72.10595 
L 428.053863 72.168729 
L 429.053863 72.243994 
L 430.053863 72.276633 
L 431.053863 72.344197 
L 432.053863 72.398244 
L 433.053863 72.431948 
L 434.053863 72.522074 
L 435.053863 72.550609 
L 436.053863 72.582095 
L 437.053863 72.613106 
L 438.053863 72.667914 
L 439.053863 72.732501 
L 440.053863 72.770697 
L 441.053863 72.866631 
L 442.053863 72.915889 
L 443.053863 72.959958 
L 444.053863 73.000082 
L 445.053863 73.108449 
L 446.053863 73.150077 
L 447.053863 73.212219 
L 448.053863 73.282181 
L 449.053863 73.386685 
L 450.053863 73.423673 
L 451.053863 73.46955 
L 452.053863 73.538045 
L 453.053863 73.586791 
L 454.053863 73.664388 
L 455.053863 73.694929 
L 456.053863 73.764443 
L 457.053863 73.788416 
L 458.053863 73.817038 
L 459.053863 73.858831 
L 460.053863 73.880407 
L 461.053863 73.894355 
L 462.053863 73.921077 
L 463.053863 73.930387 
L 464.053863 73.942834 
L 465.053863 73.953889 
L 466.053863 73.959553 
L 467.053863 73.964317 
L 468.053863 73.958769 
L 469.053863 73.945481 
L 470.053863 73.937964 
L 471.053863 73.913179 
L 472.053863 73.88961 
L 473.053863 73.85343 
L 474.053863 73.827468 
L 475.053863 73.805146 
L 476.053863 73.736386 
L 477.053863 73.661851 
L 478.053863 73.567872 
L 479.053863 73.51682 
L 480.053863 73.462886 
L 481.053863 73.427635 
L 482.053863 73.321547 
L 483.053863 73.269283 
L 484.053863 73.232376 
L 485.053863 73.201345 
L 486.053863 73.14019 
L 487.053863 73.07277 
L 488.053863 73.023864 
L 489.053863 72.958672 
L 490.053863 72.920484 
L 491.053863 72.878488 
L 492.053863 72.836471 
L 493.053863 72.776955 
L 494.053863 72.663795 
L 495.053863 72.611544 
L 496.053863 72.572126 
L 497.053863 72.525025 
L 498.053863 72.468245 
L 499.053863 72.435582 
L 500.053863 72.399404 
L 501.053863 72.367314 
L 502.053863 72.333034 
L 503.053863 72.274656 
L 504.053863 72.229471 
L 505.053863 72.199847 
L 506.053863 72.149461 
L 507.053863 72.124264 
L 508.053863 72.103213 
L 509.053863 72.068245 
L 510.053863 72.043955 
L 511.053863 72.029888 
L 512.053863 72.010946 
L 513.053863 71.995285 
L 514.053863 71.982733 
L 515.053863 71.976897 
L 516.053863 71.970015 
L 517.053863 71.964841 
L 518.053863 71.966624 
L 519.053863 71.969349 
L 520.053863 71.980503 
L 521.053863 72.008738 
L 522.053863 72.052526 
L 523.053863 72.073215 
L 524.053863 72.114188 
L 525.053863 72.154263 
L 526.053863 72.173373 
L 527.053863 72.195882 
L 528.053863 72.262533 
L 529.053863 72.312243 
L 530.053863 72.385949 
L 531.053863 72.417263 
L 532.053863 72.493885 
L 533.053863 72.532183 
L 534.053863 72.6063 
L 535.053863 72.710358 
L 536.053863 72.780189 
L 537.053863 72.885423 
L 538.053863 72.940438 
L 539.053863 73.063913 
L 540.053863 73.134472 
L 541.053863 73.250311 
L 542.053863 73.300492 
L 543.053863 73.336096 
L 544.053863 73.427503 
L 545.053863 73.481011 
L 546.053863 73.568919 
L 547.053863 73.638104 
L 548.053863 73.684868 
L 549.053863 73.756912 
L 550.053863 73.807054 
L 551.053863 73.824444 
L 552.053863 73.851447 
L 553.053863 73.870874 
L 554.053863 73.890212 
L 555.053863 73.928461 
L 556.053863 73.944894 
L 557.053863 73.953263 
L 558.053863 73.957582 
L 559.053863 73.964137 
L 560.053863 73.961591 
L 561.053863 73.956132 
L 562.053863 73.939704 
L 563.053863 73.907769 
L 564.374767 73.869789 
" clip-path="url(#pcb6995641e)" style="fill: none; stroke: #ffffff; stroke-width: 3; stroke-linecap: round"/>
         <path d="M 350.053863 72.964375 
L 351.053863 72.995811 
L 352.053863 73.032752 
L 353.053863 73.130498 
L 354.053863 73.16302 
L 355.053863 73.236645 
L 356.053863 73.27521 
L 357.053863 73.310623 
L 358.053863 73.368263 
L 359.053863 73.438649 
L 360.053863 73.490614 
L 361.053863 73.549703 
L 362.053863 73.638024 
L 363.053863 73.684169 
L 364.053863 73.72658 
L 365.053863 73.757072 
L 366.053863 73.783117 
L 367.053863 73.804317 
L 368.053863 73.858618 
L 369.053863 73.886556 
L 370.053863 73.91628 
L 371.053863 73.941675 
L 372.053863 73.952875 
L 373.053863 73.962999 
L 374.053863 73.962795 
L 375.053863 73.953285 
L 376.053863 73.941631 
L 377.053863 73.910602 
L 378.053863 73.899434 
L 379.053863 73.869317 
L 380.053863 73.80954 
L 381.053863 73.772348 
L 382.053863 73.733252 
L 383.053863 73.690812 
L 384.053863 73.658047 
L 385.053863 73.590621 
L 386.053863 73.551495 
L 387.053863 73.50882 
L 388.053863 73.43824 
L 389.053863 73.401849 
L 390.053863 73.343446 
L 391.053863 73.232493 
L 392.053863 73.161835 
L 393.053863 73.048895 
L 394.053863 73.003122 
L 395.053863 72.941839 
L 396.053863 72.89334 
L 397.053863 72.812517 
L 398.053863 72.693998 
L 399.053863 72.623787 
L 400.053863 72.540525 
L 401.053863 72.507383 
L 402.053863 72.456146 
L 403.053863 72.387747 
L 404.053863 72.321532 
L 405.053863 72.244615 
L 406.053863 72.217299 
L 407.053863 72.190822 
L 408.053863 72.168171 
L 409.053863 72.14864 
L 410.053863 72.122246 
L 411.053863 72.072475 
L 412.053863 72.037402 
L 413.053863 72.001536 
L 414.053863 71.986169 
L 415.053863 71.9704 
L 416.053863 71.966987 
L 417.053863 71.96457 
L 418.053863 71.965056 
L 419.053863 71.966985 
L 420.053863 71.980242 
L 421.053863 71.988633 
L 422.053863 72.010169 
L 423.053863 72.033202 
L 424.053863 72.050435 
L 425.053863 72.068898 
L 426.053863 72.08935 
L 427.053863 72.10595 
L 428.053863 72.168729 
L 429.053863 72.243994 
L 430.053863 72.276633 
L 431.053863 72.344197 
L 432.053863 72.398244 
L 433.053863 72.431948 
L 434.053863 72.522074 
L 435.053863 72.550609 
L 436.053863 72.582095 
L 437.053863 72.613106 
L 438.053863 72.667914 
L 439.053863 72.732501 
L 440.053863 72.770697 
L 441.053863 72.866631 
L 442.053863 72.915889 
L 443.053863 72.959958 
L 444.053863 73.000082 
L 445.053863 73.108449 
L 446.053863 73.150077 
L 447.053863 73.212219 
L 448.053863 73.282181 
L 449.053863 73.386685 
L 450.053863 73.423673 
L 451.053863 73.46955 
L 452.053863 73.538045 
L 453.053863 73.586791 
L 454.053863 73.664388 
L 455.053863 73.694929 
L 456.053863 73.764443 
L 457.053863 73.788416 
L 458.053863 73.817038 
L 459.053863 73.858831 
L 460.053863 73.880407 
L 461.053863 73.894355 
L 462.053863 73.921077 
L 463.053863 73.930387 
L 464.053863 73.942834 
L 465.053863 73.953889 
L 466.053863 73.959553 
L 467.053863 73.964317 
L 468.053863 73.958769 
L 469.053863 73.945481 
L 470.053863 73.937964 
L 471.053863 73.913179 
L 472.053863 73.88961 
L 473.053863 73.85343 
L 474.053863 73.827468 
L 475.053863 73.805146 
L 476.053863 73.736386 
L 477.053863 73.661851 
L 478.053863 73.567872 
L 479.053863 73.51682 
L 480.053863 73.462886 
L 481.053863 73.427635 
L 482.053863 73.321547 
L 483.053863 73.269283 
L 484.053863 73.232376 
L 485.053863 73.201345 
L 486.053863 73.14019 
L 487.053863 73.07277 
L 488.053863 73.023864 
L 489.053863 72.958672 
L 490.053863 72.920484 
L 491.053863 72.878488 
L 492.053863 72.836471 
L 493.053863 72.776955 
L 494.053863 72.663795 
L 495.053863 72.611544 
L 496.053863 72.572126 
L 497.053863 72.525025 
L 498.053863 72.468245 
L 499.053863 72.435582 
L 500.053863 72.399404 
L 501.053863 72.367314 
L 502.053863 72.333034 
L 503.053863 72.274656 
L 504.053863 72.229471 
L 505.053863 72.199847 
L 506.053863 72.149461 
L 507.053863 72.124264 
L 508.053863 72.103213 
L 509.053863 72.068245 
L 510.053863 72.043955 
L 511.053863 72.029888 
L 512.053863 72.010946 
L 513.053863 71.995285 
L 514.053863 71.982733 
L 515.053863 71.976897 
L 516.053863 71.970015 
L 517.053863 71.964841 
L 518.053863 71.966624 
L 519.053863 71.969349 
L 520.053863 71.980503 
L 521.053863 72.008738 
L 522.053863 72.052526 
L 523.053863 72.073215 
L 524.053863 72.114188 
L 525.053863 72.154263 
L 526.053863 72.173373 
L 527.053863 72.195882 
L 528.053863 72.262533 
L 529.053863 72.312243 
L 530.053863 72.385949 
L 531.053863 72.417263 
L 532.053863 72.493885 
L 533.053863 72.532183 
L 534.053863 72.6063 
L 535.053863 72.710358 
L 536.053863 72.780189 
L 537.053863 72.885423 
L 538.053863 72.940438 
L 539.053863 73.063913 
L 540.053863 73.134472 
L 541.053863 73.250311 
L 542.053863 73.300492 
L 543.053863 73.336096 
L 544.053863 73.427503 
L 545.053863 73.481011 
L 546.053863 73.568919 
L 547.053863 73.638104 
L 548.053863 73.684868 
L 549.053863 73.756912 
L 550.053863 73.807054 
L 551.053863 73.824444 
L 552.053863 73.851447 
L 553.053863 73.870874 
L 554.053863 73.890212 
L 555.053863 73.928461 
L 556.053863 73.944894 
L 557.053863 73.953263 
L 558.053863 73.957582 
L 559.053863 73.964137 
L 560.053863 73.961591 
L 561.053863 73.956132 
L 562.053863 73.939704 
L 563.053863 73.907769 
L 564.374767 73.869789 
" clip-path="url(#pcb6995641e)" style="fill: none; stroke: #1f77b4; stroke-linecap: round"/>
         <path d="M 560.374767 70.964375 
L 561.255135 71.439706 
L 562.133042 71.91996 
L 562.983756 72.454601 
L 564.28593 73.142048 
L 563.358577 73.168063 
L 562.446903 73.580783 
L 561.536638 73.996322 
L 560.194142 74.603126 
L 560.849041 73.964375 
L 560.901005 72.964375 
L 560.960095 70.964375 
z
" clip-path="url(#pcb6995641e)" style="fill: #ffffff; stroke: #ffffff; stroke-width: 3; stroke-linecap: round"/>
         <path d="M 560.374767 70.964375 
L 561.255135 71.439706 
L 562.133042 71.91996 
L 562.983756 72.454601 
L 564.28593 73.142048 
L 563.358577 73.168063 
L 562.446903 73.580783 
L 561.536638 73.996322 
L 560.194142 74.603126 
L 560.849041 73.964375 
L 560.901005 72.964375 
L 560.960095 70.964375 
z
" clip-path="url(#pcb6995641e)" style="fill: #ffffff; stroke: #1f77b4; stroke-linecap: round"/>
         <g id="patch_9">
          <path d="M 168.646153 270.503049 
L 169.646153 270.534485 
L 170.646153 270.571426 
L 171.646153 270.669172 
L 172.646153 270.701694 
L 173.646153 270.775318 
L 174.646153 270.813884 
L 175.646153 270.849297 
L 176.646153 270.906937 
L 177.646153 270.977323 
L 178.646153 271.029288 
L 179.646153 271.088377 
L 180.646153 271.176698 
L 181.646153 271.222843 
L 182.646153 271.265253 
L 183.646153 271.295746 
L 184.646153 271.321791 
L 185.646153 271.342991 
L 186.646153 271.397292 
L 187.646153 271.42523 
L 188.646153 271.454954 
L 189.646153 271.480349 
L 190.646153 271.491549 
L 191.646153 271.501673 
L 192.646153 271.501469 
L 193.646153 271.491959 
L 194.646153 271.480305 
L 195.646153 271.449276 
L 196.646153 271.438108 
L 197.646153 271.40799 
L 198.646153 271.348214 
L 199.646153 271.311022 
L 200.646153 271.271926 
L 201.646153 271.229486 
L 202.646153 271.196721 
L 203.646153 271.129295 
L 204.646153 271.090169 
L 205.646153 271.047494 
L 206.646153 270.976914 
L 207.646153 270.940523 
L 208.646153 270.88212 
L 209.646153 270.771167 
L 210.646153 270.700509 
L 211.646153 270.587569 
L 212.646153 270.541796 
L 213.646153 270.480513 
L 214.646153 270.432013 
L 215.646153 270.351191 
L 216.646153 270.232672 
L 217.646153 270.162461 
L 218.646153 270.079199 
L 219.646153 270.046057 
L 220.646153 269.99482 
L 221.646153 269.926421 
L 222.646153 269.860206 
L 223.646153 269.783289 
L 224.646153 269.755973 
L 225.646153 269.729496 
L 226.646153 269.706845 
L 227.646153 269.687314 
L 228.646153 269.66092 
L 229.646153 269.611149 
L 230.646153 269.576076 
L 231.646153 269.54021 
L 232.646153 269.524843 
L 233.646153 269.509074 
L 234.646153 269.505661 
L 235.646153 269.503244 
L 236.646153 269.50373 
L 237.646153 269.505659 
L 238.646153 269.518916 
L 239.646153 269.527306 
L 240.646153 269.548843 
L 241.646153 269.571876 
L 242.646153 269.589109 
L 243.646153 269.607572 
L 244.646153 269.628024 
L 245.646153 269.644624 
L 246.646153 269.707403 
L 247.646153 269.782668 
L 248.646153 269.815307 
L 249.646153 269.88287 
L 250.646153 269.936918 
L 251.646153 269.970622 
L 252.646153 270.060748 
L 253.646153 270.089283 
L 254.646153 270.120769 
L 255.646153 270.15178 
L 256.646153 270.206588 
L 257.646153 270.271175 
L 258.646153 270.30937 
L 259.646153 270.405305 
L 260.646153 270.454563 
L 261.646153 270.498632 
L 262.646153 270.538756 
L 263.646153 270.647123 
L 264.646153 270.688751 
L 265.646153 270.750892 
L 266.646153 270.820855 
L 267.646153 270.925359 
L 268.646153 270.962347 
L 269.646153 271.008224 
L 270.646153 271.076718 
L 271.646153 271.125464 
L 272.646153 271.203062 
L 273.646153 271.233603 
L 274.646153 271.303117 
L 275.646153 271.32709 
L 276.646153 271.355712 
L 277.646153 271.397505 
L 278.646153 271.419081 
L 279.646153 271.433029 
L 280.646153 271.459751 
L 281.646153 271.469061 
L 282.646153 271.481508 
L 283.646153 271.492562 
L 284.646153 271.498227 
L 285.646153 271.502991 
L 286.646153 271.497443 
L 287.646153 271.484155 
L 288.646153 271.476638 
L 289.646153 271.451853 
L 290.646153 271.428284 
L 291.646153 271.392103 
L 292.646153 271.366142 
L 293.646153 271.34382 
L 294.646153 271.27506 
L 295.646153 271.200525 
L 296.646153 271.106546 
L 297.646153 271.055494 
L 298.646153 271.00156 
L 299.646153 270.966309 
L 300.646153 270.860221 
L 301.646153 270.807957 
L 302.646153 270.77105 
L 303.646153 270.740019 
L 304.646153 270.678864 
L 305.646153 270.611444 
L 306.646153 270.562538 
L 307.646153 270.497346 
L 308.646153 270.459158 
L 309.646153 270.417162 
L 310.646153 270.375145 
L 311.646153 270.315628 
L 312.646153 270.202469 
L 313.646153 270.150218 
L 314.646153 270.1108 
L 315.646153 270.063699 
L 316.646153 270.006919 
L 317.646153 269.974256 
L 318.646153 269.938078 
L 319.646153 269.905987 
L 320.646153 269.871708 
L 321.646153 269.81333 
L 322.646153 269.768145 
L 323.646153 269.738521 
L 324.646153 269.688135 
L 325.646153 269.662937 
L 326.646153 269.641887 
L 327.646153 269.606919 
L 328.646153 269.582629 
L 329.646153 269.568562 
L 330.646153 269.54962 
L 331.646153 269.533958 
L 332.646153 269.521407 
L 333.646153 269.515571 
L 334.646153 269.508688 
L 335.646153 269.503515 
L 336.646153 269.505297 
L 337.646153 269.508023 
L 338.646153 269.519176 
L 339.646153 269.547412 
L 340.646153 269.5912 
L 341.646153 269.611889 
L 342.646153 269.652862 
L 343.646153 269.692937 
L 344.646153 269.712047 
L 345.646153 269.734555 
L 346.646153 269.801207 
L 347.646153 269.850916 
L 348.646153 269.924623 
L 349.646153 269.955937 
L 350.646153 270.032559 
L 351.646153 270.070857 
L 352.646153 270.144974 
L 353.646153 270.249032 
L 354.646153 270.318863 
L 355.646153 270.424096 
L 356.646153 270.479112 
L 357.646153 270.602587 
L 358.646153 270.673146 
L 359.646153 270.788985 
L 360.646153 270.839166 
L 361.646153 270.87477 
L 362.646153 270.966177 
L 363.646153 271.019684 
L 364.646153 271.107593 
L 365.646153 271.176778 
L 366.646153 271.223542 
L 367.646153 271.295586 
L 368.646153 271.345728 
L 369.646153 271.363118 
L 370.646153 271.390121 
L 371.646153 271.409548 
L 372.646153 271.428886 
L 373.646153 271.467135 
L 374.646153 271.483568 
L 375.646153 271.491937 
L 376.646153 271.496256 
L 377.646153 271.502811 
L 378.646153 271.500264 
L 379.646153 271.494806 
L 380.646153 271.478378 
L 381.646153 271.446443 
L 382.646153 271.408463 
L 383.646153 271.373659 
L 384.646153 271.310587 
L 385.646153 271.28916 
L 386.646153 271.238542 
L 387.646153 271.213585 
L 388.646153 271.157951 
L 389.646153 271.126722 
L 390.646153 271.076578 
L 391.646153 271.044085 
L 392.646153 270.963673 
L 393.646153 270.894747 
L 394.646153 270.77905 
L 395.646153 270.703571 
L 396.646153 270.588046 
L 397.646153 270.508562 
L 398.646153 270.40012 
L 399.646153 270.360753 
L 400.646153 270.257885 
L 401.646153 270.158087 
L 402.646153 270.11259 
L 403.646153 270.078267 
L 404.646153 270.026312 
L 405.646153 269.986665 
L 406.646153 269.951151 
L 407.646153 269.883505 
L 408.646153 269.844424 
L 409.646153 269.793942 
L 410.646153 269.744637 
L 411.646153 269.693567 
L 412.646153 269.649328 
L 413.646153 269.627308 
L 414.646153 269.611752 
L 415.646153 269.569305 
L 416.646153 269.554437 
L 417.646153 269.531709 
L 418.646153 269.511393 
L 419.646153 269.505596 
L 420.646153 269.503114 
L 421.646153 269.506171 
L 422.646153 269.517767 
L 423.646153 269.534687 
L 424.646153 269.566348 
L 425.646153 269.580431 
L 426.646153 269.633103 
L 427.646153 269.682192 
L 428.646153 269.736893 
L 429.646153 269.781241 
L 430.646153 269.851233 
L 431.646153 269.901615 
L 432.646153 269.955523 
L 433.646153 270.024962 
L 434.646153 270.082349 
L 435.646153 270.132515 
L 436.646153 270.209677 
L 437.646153 270.267867 
L 438.646153 270.328505 
L 439.646153 270.365706 
L 440.646153 270.430798 
L 441.646153 270.535928 
L 442.646153 270.59623 
L 443.646153 270.692551 
L 444.646153 270.724555 
L 445.646153 270.775572 
L 446.646153 270.892364 
L 447.646153 270.92781 
L 448.646153 270.983691 
L 449.959694 271.014067 
" clip-path="url(#pcb6995641e)" style="fill: none; stroke: #ffffff; stroke-width: 3; stroke-linecap: round"/>
          <path d="M 168.646153 270.503049 
L 169.646153 270.534485 
L 170.646153 270.571426 
L 171.646153 270.669172 
L 172.646153 270.701694 
L 173.646153 270.775318 
L 174.646153 270.813884 
L 175.646153 270.849297 
L 176.646153 270.906937 
L 177.646153 270.977323 
L 178.646153 271.029288 
L 179.646153 271.088377 
L 180.646153 271.176698 
L 181.646153 271.222843 
L 182.646153 271.265253 
L 183.646153 271.295746 
L 184.646153 271.321791 
L 185.646153 271.342991 
L 186.646153 271.397292 
L 187.646153 271.42523 
L 188.646153 271.454954 
L 189.646153 271.480349 
L 190.646153 271.491549 
L 191.646153 271.501673 
L 192.646153 271.501469 
L 193.646153 271.491959 
L 194.646153 271.480305 
L 195.646153 271.449276 
L 196.646153 271.438108 
L 197.646153 271.40799 
L 198.646153 271.348214 
L 199.646153 271.311022 
L 200.646153 271.271926 
L 201.646153 271.229486 
L 202.646153 271.196721 
L 203.646153 271.129295 
L 204.646153 271.090169 
L 205.646153 271.047494 
L 206.646153 270.976914 
L 207.646153 270.940523 
L 208.646153 270.88212 
L 209.646153 270.771167 
L 210.646153 270.700509 
L 211.646153 270.587569 
L 212.646153 270.541796 
L 213.646153 270.480513 
L 214.646153 270.432013 
L 215.646153 270.351191 
L 216.646153 270.232672 
L 217.646153 270.162461 
L 218.646153 270.079199 
L 219.646153 270.046057 
L 220.646153 269.99482 
L 221.646153 269.926421 
L 222.646153 269.860206 
L 223.646153 269.783289 
L 224.646153 269.755973 
L 225.646153 269.729496 
L 226.646153 269.706845 
L 227.646153 269.687314 
L 228.646153 269.66092 
L 229.646153 269.611149 
L 230.646153 269.576076 
L 231.646153 269.54021 
L 232.646153 269.524843 
L 233.646153 269.509074 
L 234.646153 269.505661 
L 235.646153 269.503244 
L 236.646153 269.50373 
L 237.646153 269.505659 
L 238.646153 269.518916 
L 239.646153 269.527306 
L 240.646153 269.548843 
L 241.646153 269.571876 
L 242.646153 269.589109 
L 243.646153 269.607572 
L 244.646153 269.628024 
L 245.646153 269.644624 
L 246.646153 269.707403 
L 247.646153 269.782668 
L 248.646153 269.815307 
L 249.646153 269.88287 
L 250.646153 269.936918 
L 251.646153 269.970622 
L 252.646153 270.060748 
L 253.646153 270.089283 
L 254.646153 270.120769 
L 255.646153 270.15178 
L 256.646153 270.206588 
L 257.646153 270.271175 
L 258.646153 270.30937 
L 259.646153 270.405305 
L 260.646153 270.454563 
L 261.646153 270.498632 
L 262.646153 270.538756 
L 263.646153 270.647123 
L 264.646153 270.688751 
L 265.646153 270.750892 
L 266.646153 270.820855 
L 267.646153 270.925359 
L 268.646153 270.962347 
L 269.646153 271.008224 
L 270.646153 271.076718 
L 271.646153 271.125464 
L 272.646153 271.203062 
L 273.646153 271.233603 
L 274.646153 271.303117 
L 275.646153 271.32709 
L 276.646153 271.355712 
L 277.646153 271.397505 
L 278.646153 271.419081 
L 279.646153 271.433029 
L 280.646153 271.459751 
L 281.646153 271.469061 
L 282.646153 271.481508 
L 283.646153 271.492562 
L 284.646153 271.498227 
L 285.646153 271.502991 
L 286.646153 271.497443 
L 287.646153 271.484155 
L 288.646153 271.476638 
L 289.646153 271.451853 
L 290.646153 271.428284 
L 291.646153 271.392103 
L 292.646153 271.366142 
L 293.646153 271.34382 
L 294.646153 271.27506 
L 295.646153 271.200525 
L 296.646153 271.106546 
L 297.646153 271.055494 
L 298.646153 271.00156 
L 299.646153 270.966309 
L 300.646153 270.860221 
L 301.646153 270.807957 
L 302.646153 270.77105 
L 303.646153 270.740019 
L 304.646153 270.678864 
L 305.646153 270.611444 
L 306.646153 270.562538 
L 307.646153 270.497346 
L 308.646153 270.459158 
L 309.646153 270.417162 
L 310.646153 270.375145 
L 311.646153 270.315628 
L 312.646153 270.202469 
L 313.646153 270.150218 
L 314.646153 270.1108 
L 315.646153 270.063699 
L 316.646153 270.006919 
L 317.646153 269.974256 
L 318.646153 269.938078 
L 319.646153 269.905987 
L 320.646153 269.871708 
L 321.646153 269.81333 
L 322.646153 269.768145 
L 323.646153 269.738521 
L 324.646153 269.688135 
L 325.646153 269.662937 
L 326.646153 269.641887 
L 327.646153 269.606919 
L 328.646153 269.582629 
L 329.646153 269.568562 
L 330.646153 269.54962 
L 331.646153 269.533958 
L 332.646153 269.521407 
L 333.646153 269.515571 
L 334.646153 269.508688 
L 335.646153 269.503515 
L 336.646153 269.505297 
L 337.646153 269.508023 
L 338.646153 269.519176 
L 339.646153 269.547412 
L 340.646153 269.5912 
L 341.646153 269.611889 
L 342.646153 269.652862 
L 343.646153 269.692937 
L 344.646153 269.712047 
L 345.646153 269.734555 
L 346.646153 269.801207 
L 347.646153 269.850916 
L 348.646153 269.924623 
L 349.646153 269.955937 
L 350.646153 270.032559 
L 351.646153 270.070857 
L 352.646153 270.144974 
L 353.646153 270.249032 
L 354.646153 270.318863 
L 355.646153 270.424096 
L 356.646153 270.479112 
L 357.646153 270.602587 
L 358.646153 270.673146 
L 359.646153 270.788985 
L 360.646153 270.839166 
L 361.646153 270.87477 
L 362.646153 270.966177 
L 363.646153 271.019684 
L 364.646153 271.107593 
L 365.646153 271.176778 
L 366.646153 271.223542 
L 367.646153 271.295586 
L 368.646153 271.345728 
L 369.646153 271.363118 
L 370.646153 271.390121 
L 371.646153 271.409548 
L 372.646153 271.428886 
L 373.646153 271.467135 
L 374.646153 271.483568 
L 375.646153 271.491937 
L 376.646153 271.496256 
L 377.646153 271.502811 
L 378.646153 271.500264 
L 379.646153 271.494806 
L 380.646153 271.478378 
L 381.646153 271.446443 
L 382.646153 271.408463 
L 383.646153 271.373659 
L 384.646153 271.310587 
L 385.646153 271.28916 
L 386.646153 271.238542 
L 387.646153 271.213585 
L 388.646153 271.157951 
L 389.646153 271.126722 
L 390.646153 271.076578 
L 391.646153 271.044085 
L 392.646153 270.963673 
L 393.646153 270.894747 
L 394.646153 270.77905 
L 395.646153 270.703571 
L 396.646153 270.588046 
L 397.646153 270.508562 
L 398.646153 270.40012 
L 399.646153 270.360753 
L 400.646153 270.257885 
L 401.646153 270.158087 
L 402.646153 270.11259 
L 403.646153 270.078267 
L 404.646153 270.026312 
L 405.646153 269.986665 
L 406.646153 269.951151 
L 407.646153 269.883505 
L 408.646153 269.844424 
L 409.646153 269.793942 
L 410.646153 269.744637 
L 411.646153 269.693567 
L 412.646153 269.649328 
L 413.646153 269.627308 
L 414.646153 269.611752 
L 415.646153 269.569305 
L 416.646153 269.554437 
L 417.646153 269.531709 
L 418.646153 269.511393 
L 419.646153 269.505596 
L 420.646153 269.503114 
L 421.646153 269.506171 
L 422.646153 269.517767 
L 423.646153 269.534687 
L 424.646153 269.566348 
L 425.646153 269.580431 
L 426.646153 269.633103 
L 427.646153 269.682192 
L 428.646153 269.736893 
L 429.646153 269.781241 
L 430.646153 269.851233 
L 431.646153 269.901615 
L 432.646153 269.955523 
L 433.646153 270.024962 
L 434.646153 270.082349 
L 435.646153 270.132515 
L 436.646153 270.209677 
L 437.646153 270.267867 
L 438.646153 270.328505 
L 439.646153 270.365706 
L 440.646153 270.430798 
L 441.646153 270.535928 
L 442.646153 270.59623 
L 443.646153 270.692551 
L 444.646153 270.724555 
L 445.646153 270.775572 
L 446.646153 270.892364 
L 447.646153 270.92781 
L 448.646153 270.983691 
L 449.959694 271.014067 
" clip-path="url(#pcb6995641e)" style="fill: none; stroke: #ff7f0e; stroke-linecap: round"/>
          <path d="M 445.959694 268.503049 
L 446.840062 268.97838 
L 447.717969 269.458634 
L 448.568683 269.993275 
L 449.870857 270.680722 
L 448.943504 270.706737 
L 448.03183 271.119457 
L 447.121565 271.534996 
L 445.77907 272.1418 
L 446.433968 271.503049 
L 446.485933 270.503049 
L 446.545022 268.503049 
z
" clip-path="url(#pcb6995641e)" style="fill: #ffffff; stroke: #ffffff; stroke-width: 3; stroke-linecap: round"/>
          <path d="M 445.959694 268.503049 
L 446.840062 268.97838 
L 447.717969 269.458634 
L 448.568683 269.993275 
L 449.870857 270.680722 
L 448.943504 270.706737 
L 448.03183 271.119457 
L 447.121565 271.534996 
L 445.77907 272.1418 
L 446.433968 271.503049 
L 446.485933 270.503049 
L 446.545022 268.503049 
z
" clip-path="url(#pcb6995641e)" style="fill: #ffffff; stroke: #ff7f0e; stroke-linecap: round"/>
          <path d="M 461.526644 302.494375 
" clip-path="url(#pcb6995641e)" style="fill: none; stroke-dasharray: 3.7,1.6; stroke-dashoffset: 0; stroke: #2ca02c"/>
          <path d="M 460.526644 302.494375 
L 462.526644 303.494375 
L 462.526644 301.494375 
z
" clip-path="url(#pcb6995641e)" style="fill: #2ca02c; stroke: #2ca02c; stroke-linejoin: miter"/>
          <g id="patch_10">
           <path d="M 63.290625 321.621875 
L 63.290625 10.8 
" style="fill: none; stroke: #000000; stroke-width: 0.8; stroke-linejoin: miter; stroke-linecap: square"/>
          </g>
          <g id="text_10">
           <g id="patch_11">
            <path d="M 325.28274 141.213972 
L 346.587427 141.213972 
Q 348.587427 141.213972 348.587427 139.213972 
L 348.587427 129.535847 
Q 348.587427 127.535847 346.587427 127.535847 
L 325.28274 127.535847 
Q 323.28274 127.535847 323.28274 129.535847 
L 323.28274 139.213972 
Q 323.28274 141.213972 325.28274 141.213972 
z
" style="fill: #ffffff; opacity: 0.6"/>
           </g>
           <!-- ANC -->
           <g transform="translate(325.28274 137.134284) scale(0.1 -0.1)">
            <defs>
             <path id="DejaVuSans-4e" d="M 628 4666 
L 1478 4666 
L 3547 763 
L 3547 4666 
L 4159 4666 
L 4159 0 
L 3309 0 
L 1241 3903 
L 1241 0 
L 628 0 
L 628 4666 
z
" transform="scale(0.015625)"/>
            </defs>
            <use xlink:href="#DejaVuSans-41"/>
            <use xlink:href="#DejaVuSans-4e" x="68.408203"/>
            <use xlink:href="#DejaVuSans-43" x="143.212891"/>
           </g>
          </g>
         </g>
        </g>
        <defs>
         <clipPath id="pcb6995641e">
          <rect x="63.290625" y="10.8" width="540.309375" height="310.821875"/>
         </clipPath>
        </defs>
       </g>
      </g>
     </g>
    </g>
   </g>
  </g>
 </g>
</svg>
