<?xml version="1.0" encoding="utf-8" standalone="no"?>
<!DOCTYPE svg PUBLIC "-//W3C//DTD SVG 1.1//EN"
  "http://www.w3.org/Graphics/SVG/1.1/DTD/svg11.dtd">
<svg xmlns:xlink="http://www.w3.org/1999/xlink" width="614.4pt" height="345.6pt" viewBox="0 0 614.4 345.6" xmlns="http://www.w3.org/2000/svg" version="1.1">
 <metadata>
  <rdf:RDF xmlns:dc="http://purl.org/dc/elements/1.1/" xmlns:cc="http://creativecommons.org/ns#" xmlns:rdf="http://www.w3.org/1999/02/22-rdf-syntax-ns#">
   <cc:Work>
    <dc:type rdf:resource="http://purl.org/dc/dcmitype/StillImage"/>
    <dc:date>2024-04-17T19:40:06.503444</dc:date>
    <dc:format>image/svg+xml</dc:format>
    <dc:creator>
     <cc:Agent>
      <dc:title>Matplotlib v3.7.1, https://matplotlib.org/</dc:title>
     </cc:Agent>
    </dc:creator>
   </cc:Work>
  </rdf:RDF>
 </metadata>
 <defs>
  <style type="text/css">*{stroke-linejoin: round; stroke-linecap: butt}</style>
 </defs>
 <g id="figure_1">
  <g id="patch_1">
   <path d="M 0 345.6 
L 614.4 345.6 
L 614.4 0 
L 0 0 
z
" style="fill: #ffffff"/>
  </g>
  <g id="axes_1">
   <g id="patch_2">
    <path d="M 63.290625 321.621875 
L 603.6 321.621875 
L 603.6 10.8 
L 63.290625 10.8 
z
" style="fill: #ffffff"/>
   </g>
   <path d="M 551.098008 287.938712 
L 550.098008 287.907276 
L 549.098008 287.870335 
L 548.098008 287.772589 
L 547.098008 287.740067 
L 546.098008 287.666442 
L 545.098008 287.627877 
L 544.098008 287.592464 
L 543.098008 287.534824 
L 542.098008 287.464438 
L 541.098008 287.412473 
L 540.098008 287.353384 
L 539.098008 287.265063 
L 538.098008 287.218918 
L 537.098008 287.176507 
L 536.098008 287.146015 
L 535.098008 287.11997 
L 534.098008 287.09877 
L 533.098008 287.044469 
L 532.098008 287.016531 
L 531.098008 286.986807 
L 530.098008 286.961412 
L 529.098008 286.950212 
L 528.098008 286.940088 
L 527.098008 286.940292 
L 526.098008 286.949802 
L 525.098008 286.961456 
L 524.098008 286.992485 
L 523.098008 287.003653 
L 522.098008 287.03377 
L 521.098008 287.093547 
L 520.098008 287.130739 
L 519.098008 287.169835 
L 518.098008 287.212275 
L 517.098008 287.24504 
L 516.098008 287.312466 
L 515.098008 287.351592 
L 514.098008 287.394267 
L 513.098008 287.464847 
L 512.098008 287.501238 
L 511.098008 287.559641 
L 510.098008 287.670594 
L 509.098008 287.741252 
L 508.098008 287.854192 
L 507.098008 287.899965 
L 506.098008 287.961248 
L 505.098008 288.009747 
L 504.098008 288.09057 
L 503.098008 288.209089 
L 502.098008 288.2793 
L 501.098008 288.362562 
L 500.098008 288.395704 
L 499.098008 288.446941 
L 498.098008 288.51534 
L 497.098008 288.581555 
L 496.098008 288.658472 
L 495.098008 288.685788 
L 494.098008 288.712265 
L 493.098008 288.734916 
L 492.098008 288.754447 
L 491.098008 288.780841 
L 490.098008 288.830612 
L 489.098008 288.865685 
L 488.098008 288.901551 
L 487.098008 288.916918 
L 486.098008 288.932687 
L 485.098008 288.9361 
L 484.098008 288.938517 
L 483.098008 288.938031 
L 482.098008 288.936102 
L 481.098008 288.922845 
L 480.098008 288.914455 
L 479.098008 288.892918 
L 478.098008 288.869885 
L 477.098008 288.852652 
L 476.098008 288.834189 
L 475.098008 288.813737 
L 474.098008 288.797137 
L 473.098008 288.734358 
L 472.098008 288.659093 
L 471.098008 288.626454 
L 470.098008 288.55889 
L 469.098008 288.504843 
L 468.098008 288.471139 
L 467.098008 288.381013 
L 466.098008 288.352478 
L 465.098008 288.320992 
L 464.098008 288.289981 
L 463.098008 288.235173 
L 462.098008 288.170586 
L 461.098008 288.13239 
L 460.098008 288.036456 
L 459.098008 287.987198 
L 458.098008 287.943129 
L 457.098008 287.903005 
L 456.098008 287.794638 
L 455.098008 287.75301 
L 454.098008 287.690869 
L 453.098008 287.620906 
L 452.098008 287.516402 
L 451.098008 287.479414 
L 450.098008 287.433537 
L 449.098008 287.365042 
L 448.098008 287.316297 
L 447.098008 287.238699 
L 446.098008 287.208158 
L 444.299113 287.138644 
" clip-path="url(#p761c8a8390)" style="fill: none; stroke-dasharray: 3.7,1.6; stroke-dashoffset: 0; stroke: #2ca02c"/>
   <g id="patch_3">
    <path d="M 252.662019 10.8 
L 252.662019 285.866425 
M 353.081424 10.8 
L 353.081424 285.866425 
" clip-path="url(#p761c8a8390)" style="fill: none; stroke: #ffffff; stroke-width: 3; stroke-linejoin: miter"/>
    <path d="M 252.662019 10.8 
L 252.662019 285.866425 
M 353.081424 10.8 
L 353.081424 285.866425 
" clip-path="url(#p761c8a8390)" style="fill: none; stroke: #1f77b4; stroke-linejoin: miter"/>
    <g id="PolyCollection_1">
     <path d="M 353.081424 10.8 
L 252.662019 10.8 
L 252.662019 285.866425 
L 353.081424 285.866425 
L 353.081424 285.866425 
L 353.081424 10.8 
z
" clip-path="url(#p761c8a8390)" style="fill: #1f77b4; fill-opacity: 0.5"/>
    </g>
    <g id="patch_4">
     <path d="M 93.037401 285.866425 
L 92.951007 320.307093 
L 89.803295 321.174578 
L 87.850142 321.621875 
M 115.357435 285.866425 
L 115.443829 320.307093 
L 118.591541 321.174578 
L 120.544694 321.621875 
L 120.544694 321.621875 
" clip-path="url(#p761c8a8390)" style="fill: none; stroke: #ffffff; stroke-width: 3; stroke-linejoin: miter"/>
     <path d="M 93.037401 285.866425 
L 92.951007 320.307093 
L 89.803295 321.174578 
L 87.850142 321.621875 
M 115.357435 285.866425 
L 115.443829 320.307093 
L 118.591541 321.174578 
L 120.544694 321.621875 
L 120.544694 321.621875 
" clip-path="url(#p761c8a8390)" style="fill: none; stroke: #ff7f0e; stroke-linejoin: miter"/>
     <g id="PolyCollection_2">
      <path d="M 115.357435 285.866425 
L 93.037401 285.866425 
L 93.037401 320.279984 
L 93.037401 320.279984 
L 92.994287 320.293538 
L 92.951007 320.307093 
L 92.907559 320.320647 
L 92.863944 320.334202 
L 92.82016 320.347756 
L 92.776207 320.361311 
L 92.732084 320.374865 
L 92.687791 320.38842 
L 92.643326 320.401974 
L 92.59869 320.415529 
L 92.553881 320.429083 
L 92.5089 320.442637 
L 92.463744 320.456192 
L 92.418414 320.469746 
L 92.372909 320.483301 
L 92.327228 320.496855 
L 92.281371 320.51041 
L 92.235336 320.523964 
L 92.189124 320.537519 
L 92.142733 320.551073 
L 92.096163 320.564628 
L 92.049413 320.578182 
L 92.002482 320.591736 
L 91.95537 320.605291 
L 91.908076 320.618845 
L 91.860599 320.6324 
L 91.812939 320.645954 
L 91.765095 320.659509 
L 91.717066 320.673063 
L 91.668851 320.686618 
L 91.620451 320.700172 
L 91.571863 320.713727 
L 91.523087 320.727281 
L 91.474123 320.740835 
L 91.42497 320.75439 
L 91.375627 320.767944 
L 91.326094 320.781499 
L 91.276369 320.795053 
L 91.226451 320.808608 
L 91.176341 320.822162 
L 91.126038 320.835717 
L 91.07554 320.849271 
L 91.024847 320.862826 
L 90.973958 320.87638 
L 90.922873 320.889934 
L 90.87159 320.903489 
L 90.820109 320.917043 
L 90.76843 320.930598 
L 90.71655 320.944152 
L 90.66447 320.957707 
L 90.612189 320.971261 
L 90.559706 320.984816 
L 90.507021 320.99837 
L 90.454131 321.011925 
L 90.401038 321.025479 
L 90.347739 321.039033 
L 90.294234 321.052588 
L 90.240523 321.066142 
L 90.186604 321.079697 
L 90.132477 321.093251 
L 90.078141 321.106806 
L 90.023595 321.12036 
L 89.968838 321.133915 
L 89.91387 321.147469 
L 89.858689 321.161024 
L 89.803295 321.174578 
L 89.747687 321.188132 
L 89.691864 321.201687 
L 89.635826 321.215241 
L 89.579571 321.228796 
L 89.523099 321.24235 
L 89.466408 321.255905 
L 89.409499 321.269459 
L 89.352369 321.283014 
L 89.295019 321.296568 
L 89.237448 321.310123 
L 89.179654 321.323677 
L 89.121637 321.337231 
L 89.063395 321.350786 
L 89.004929 321.36434 
L 88.946237 321.377895 
L 88.887318 321.391449 
L 88.828171 321.405004 
L 88.768796 321.418558 
L 88.709192 321.432113 
L 88.649357 321.445667 
L 88.589291 321.459222 
L 88.528993 321.472776 
L 88.468462 321.48633 
L 88.407698 321.499885 
L 88.346698 321.513439 
L 88.285463 321.526994 
L 88.223991 321.540548 
L 88.162282 321.554103 
L 88.100335 321.567657 
L 88.038148 321.581212 
L 87.975721 321.594766 
L 87.913052 321.608321 
L 87.850142 321.621875 
L 120.544694 321.621875 
L 120.544694 321.621875 
L 120.481784 321.608321 
L 120.419116 321.594766 
L 120.356688 321.581212 
L 120.294502 321.567657 
L 120.232554 321.554103 
L 120.170845 321.540548 
L 120.109373 321.526994 
L 120.048138 321.513439 
L 119.987139 321.499885 
L 119.926374 321.48633 
L 119.865843 321.472776 
L 119.805545 321.459222 
L 119.745479 321.445667 
L 119.685644 321.432113 
L 119.62604 321.418558 
L 119.566665 321.405004 
L 119.507518 321.391449 
L 119.448599 321.377895 
L 119.389907 321.36434 
L 119.331441 321.350786 
L 119.273199 321.337231 
L 119.215182 321.323677 
L 119.157388 321.310123 
L 119.099817 321.296568 
L 119.042467 321.283014 
L 118.985338 321.269459 
L 118.928428 321.255905 
L 118.871738 321.24235 
L 118.815266 321.228796 
L 118.759011 321.215241 
L 118.702972 321.201687 
L 118.647149 321.188132 
L 118.591541 321.174578 
L 118.536148 321.161024 
L 118.480967 321.147469 
L 118.425998 321.133915 
L 118.371241 321.12036 
L 118.316695 321.106806 
L 118.262359 321.093251 
L 118.208232 321.079697 
L 118.154313 321.066142 
L 118.100602 321.052588 
L 118.047097 321.039033 
L 117.993799 321.025479 
L 117.940705 321.011925 
L 117.887816 320.99837 
L 117.83513 320.984816 
L 117.782647 320.971261 
L 117.730366 320.957707 
L 117.678286 320.944152 
L 117.626407 320.930598 
L 117.574727 320.917043 
L 117.523246 320.903489 
L 117.471963 320.889934 
L 117.420878 320.87638 
L 117.369989 320.862826 
L 117.319296 320.849271 
L 117.268798 320.835717 
L 117.218495 320.822162 
L 117.168385 320.808608 
L 117.118468 320.795053 
L 117.068743 320.781499 
L 117.019209 320.767944 
L 116.969866 320.75439 
L 116.920713 320.740835 
L 116.871749 320.727281 
L 116.822973 320.713727 
L 116.774386 320.700172 
L 116.725985 320.686618 
L 116.67777 320.673063 
L 116.629741 320.659509 
L 116.581897 320.645954 
L 116.534237 320.6324 
L 116.48676 320.618845 
L 116.439466 320.605291 
L 116.392354 320.591736 
L 116.345424 320.578182 
L 116.298674 320.564628 
L 116.252103 320.551073 
L 116.205713 320.537519 
L 116.1595 320.523964 
L 116.113466 320.51041 
L 116.067608 320.496855 
L 116.021927 320.483301 
L 115.976422 320.469746 
L 115.931092 320.456192 
L 115.885937 320.442637 
L 115.840955 320.429083 
L 115.796146 320.415529 
L 115.75151 320.401974 
L 115.707046 320.38842 
L 115.662752 320.374865 
L 115.618629 320.361311 
L 115.574676 320.347756 
L 115.530892 320.334202 
L 115.487277 320.320647 
L 115.443829 320.307093 
L 115.400549 320.293538 
L 115.357435 320.279984 
L 115.357435 320.279984 
L 115.357435 285.866425 
z
" clip-path="url(#p761c8a8390)" style="fill: #ff7f0e; fill-opacity: 0.5"/>
     </g>
     <g id="patch_5">
      <path d="M 556.501102 72.964375 
L 556.501102 321.621875 
M 579.040483 72.964375 
L 579.040483 321.621875 
" clip-path="url(#p761c8a8390)" style="fill: none; stroke: #ffffff; stroke-width: 3; stroke-linejoin: miter"/>
      <path d="M 556.501102 72.964375 
L 556.501102 321.621875 
M 579.040483 72.964375 
L 579.040483 321.621875 
" clip-path="url(#p761c8a8390)" style="fill: none; stroke: #2ca02c; stroke-linejoin: miter"/>
      <g id="PolyCollection_3">
       <path d="M 579.040483 72.964375 
L 556.501102 72.964375 
L 556.501102 321.621875 
L 579.040483 321.621875 
L 579.040483 321.621875 
L 579.040483 72.964375 
z
" clip-path="url(#p761c8a8390)" style="fill: #2ca02c; fill-opacity: 0.5"/>
      </g>
      <g id="patch_6">
       <path d="M 431.746494 285.866425 
L 431.746494 286.104228 
L 433.533876 286.104228 
L 433.533876 287.531049 
L 431.746494 287.531049 
L 431.746494 292.49095 
L 431.746494 292.49095 
L 430.734151 294.844964 
L 429.615754 296.904726 
L 428.224677 298.964489 
L 426.765316 300.729999 
L 425.005847 302.49551 
L 422.884556 304.261021 
L 420.787181 305.732279 
L 418.336095 307.203538 
L 415.471649 308.674797 
L 412.124131 310.146056 
L 408.212074 311.617315 
L 403.640271 313.088574 
L 398.297462 314.559833 
L 392.05362 316.031091 
L 384.75679 317.50235 
L 376.229394 318.973609 
L 366.263904 320.444868 
L 357.094428 321.621875 
M 438.896019 285.866425 
L 438.896019 286.104228 
L 437.108638 286.104228 
L 437.108638 287.531049 
L 438.896019 287.531049 
L 438.896019 292.49095 
L 438.896019 292.49095 
L 439.908363 294.844964 
L 441.02676 296.904726 
L 442.417837 298.964489 
L 443.877198 300.729999 
L 445.636667 302.49551 
L 447.757958 304.261021 
L 449.855333 305.732279 
L 452.306418 307.203538 
L 455.170865 308.674797 
L 458.518383 310.146056 
L 462.43044 311.617315 
L 467.002242 313.088574 
L 472.345052 314.559833 
L 478.588894 316.031091 
L 485.885723 317.50235 
L 494.413119 318.973609 
L 504.37861 320.444868 
L 513.548086 321.621875 
L 513.548086 321.621875 
" clip-path="url(#p761c8a8390)" style="fill: none; stroke: #ffffff; stroke-width: 3; stroke-linejoin: miter"/>
       <path d="M 431.746494 285.866425 
L 431.746494 286.104228 
L 433.533876 286.104228 
L 433.533876 287.531049 
L 431.746494 287.531049 
L 431.746494 292.49095 
L 431.746494 292.49095 
L 430.734151 294.844964 
L 429.615754 296.904726 
L 428.224677 298.964489 
L 426.765316 300.729999 
L 425.005847 302.49551 
L 422.884556 304.261021 
L 420.787181 305.732279 
L 418.336095 307.203538 
L 415.471649 308.674797 
L 412.124131 310.146056 
L 408.212074 311.617315 
L 403.640271 313.088574 
L 398.297462 314.559833 
L 392.05362 316.031091 
L 384.75679 317.50235 
L 376.229394 318.973609 
L 366.263904 320.444868 
L 357.094428 321.621875 
M 438.896019 285.866425 
L 438.896019 286.104228 
L 437.108638 286.104228 
L 437.108638 287.531049 
L 438.896019 287.531049 
L 438.896019 292.49095 
L 438.896019 292.49095 
L 439.908363 294.844964 
L 441.02676 296.904726 
L 442.417837 298.964489 
L 443.877198 300.729999 
L 445.636667 302.49551 
L 447.757958 304.261021 
L 449.855333 305.732279 
L 452.306418 307.203538 
L 455.170865 308.674797 
L 458.518383 310.146056 
L 462.43044 311.617315 
L 467.002242 313.088574 
L 472.345052 314.559833 
L 478.588894 316.031091 
L 485.885723 317.50235 
L 494.413119 318.973609 
L 504.37861 320.444868 
L 513.548086 321.621875 
L 513.548086 321.621875 
" clip-path="url(#p761c8a8390)" style="fill: none; stroke: #d62728; stroke-linejoin: miter"/>
       <g id="PolyCollection_4">
        <path d="M 438.896019 285.866425 
L 431.746494 285.866425 
L 431.746494 286.104228 
L 433.533876 286.104228 
L 433.533876 287.531049 
L 431.746494 287.531049 
L 431.746494 292.49095 
L 431.746494 292.49095 
L 431.633319 292.785202 
L 431.51656 293.079453 
L 431.396104 293.373705 
L 431.271835 293.667957 
L 431.143632 293.962209 
L 431.01137 294.256461 
L 430.87492 294.550712 
L 430.734151 294.844964 
L 430.588925 295.139216 
L 430.4391 295.433468 
L 430.284533 295.727719 
L 430.125072 296.021971 
L 429.960563 296.316223 
L 429.790845 296.610475 
L 429.615754 296.904726 
L 429.43512 297.198978 
L 429.248766 297.49323 
L 429.056513 297.787482 
L 428.858174 298.081734 
L 428.653555 298.375985 
L 428.442458 298.670237 
L 428.224677 298.964489 
L 428.000002 299.258741 
L 427.768213 299.552992 
L 427.529087 299.847244 
L 427.282389 300.141496 
L 427.027881 300.435748 
L 426.765316 300.729999 
L 426.494438 301.024251 
L 426.214983 301.318503 
L 425.926682 301.612755 
L 425.629253 301.907006 
L 425.322407 302.201258 
L 425.005847 302.49551 
L 424.679265 302.789762 
L 424.342343 303.084014 
L 423.994754 303.378265 
L 423.636161 303.672517 
L 423.266215 303.966769 
L 422.884556 304.261021 
L 422.490814 304.555272 
L 422.084607 304.849524 
L 421.665539 305.143776 
L 421.233204 305.438028 
L 420.787181 305.732279 
L 420.327037 306.026531 
L 419.852325 306.320783 
L 419.362584 306.615035 
L 418.857337 306.909287 
L 418.336095 307.203538 
L 417.798351 307.49779 
L 417.243581 307.792042 
L 416.671248 308.086294 
L 416.080795 308.380545 
L 415.471649 308.674797 
L 414.843217 308.969049 
L 414.194889 309.263301 
L 413.526036 309.557552 
L 412.836006 309.851804 
L 412.124131 310.146056 
L 411.389718 310.440308 
L 410.632053 310.73456 
L 409.850401 311.028811 
L 409.044003 311.323063 
L 408.212074 311.617315 
L 407.353806 311.911567 
L 406.468366 312.205818 
L 405.554893 312.50007 
L 404.6125 312.794322 
L 403.640271 313.088574 
L 402.637262 313.382825 
L 401.602498 313.677077 
L 400.534973 313.971329 
L 399.433651 314.265581 
L 398.297462 314.559833 
L 397.125301 314.854084 
L 395.91603 315.148336 
L 394.668474 315.442588 
L 393.381421 315.73684 
L 392.05362 316.031091 
L 390.683781 316.325343 
L 389.270573 316.619595 
L 387.812624 316.913847 
L 386.308517 317.208098 
L 384.75679 317.50235 
L 383.155936 317.796602 
L 381.5044 318.090854 
L 379.800577 318.385106 
L 378.042811 318.679357 
L 376.229394 318.973609 
L 374.358566 319.267861 
L 372.428508 319.562113 
L 370.437345 319.856364 
L 368.383142 320.150616 
L 366.263904 320.444868 
L 364.077571 320.73912 
L 361.82202 321.033371 
L 359.495059 321.327623 
L 357.094428 321.621875 
L 513.548086 321.621875 
L 513.548086 321.621875 
L 511.147454 321.327623 
L 508.820493 321.033371 
L 506.564942 320.73912 
L 504.37861 320.444868 
L 502.259372 320.150616 
L 500.205169 319.856364 
L 498.214006 319.562113 
L 496.283948 319.267861 
L 494.413119 318.973609 
L 492.599703 318.679357 
L 490.841937 318.385106 
L 489.138114 318.090854 
L 487.486577 317.796602 
L 485.885723 317.50235 
L 484.333997 317.208098 
L 482.829889 316.913847 
L 481.37194 316.619595 
L 479.958733 316.325343 
L 478.588894 316.031091 
L 477.261093 315.73684 
L 475.97404 315.442588 
L 474.726484 315.148336 
L 473.517213 314.854084 
L 472.345052 314.559833 
L 471.208862 314.265581 
L 470.10754 313.971329 
L 469.040016 313.677077 
L 468.005252 313.382825 
L 467.002242 313.088574 
L 466.030013 312.794322 
L 465.08762 312.50007 
L 464.174148 312.205818 
L 463.288708 311.911567 
L 462.43044 311.617315 
L 461.598511 311.323063 
L 460.792112 311.028811 
L 460.010461 310.73456 
L 459.252796 310.440308 
L 458.518383 310.146056 
L 457.806507 309.851804 
L 457.116478 309.557552 
L 456.447624 309.263301 
L 455.799297 308.969049 
L 455.170865 308.674797 
L 454.561718 308.380545 
L 453.971265 308.086294 
L 453.398932 307.792042 
L 452.844163 307.49779 
L 452.306418 307.203538 
L 451.785176 306.909287 
L 451.27993 306.615035 
L 450.790189 306.320783 
L 450.315477 306.026531 
L 449.855333 305.732279 
L 449.40931 305.438028 
L 448.976975 305.143776 
L 448.557907 304.849524 
L 448.151699 304.555272 
L 447.757958 304.261021 
L 447.376299 303.966769 
L 447.006353 303.672517 
L 446.64776 303.378265 
L 446.300171 303.084014 
L 445.963249 302.789762 
L 445.636667 302.49551 
L 445.320106 302.201258 
L 445.013261 301.907006 
L 444.715832 301.612755 
L 444.42753 301.318503 
L 444.148076 301.024251 
L 443.877198 300.729999 
L 443.614632 300.435748 
L 443.360125 300.141496 
L 443.113427 299.847244 
L 442.8743 299.552992 
L 442.642512 299.258741 
L 442.417837 298.964489 
L 442.200056 298.670237 
L 441.988959 298.375985 
L 441.78434 298.081734 
L 441.586 297.787482 
L 441.393747 297.49323 
L 441.207394 297.198978 
L 441.02676 296.904726 
L 440.851669 296.610475 
L 440.681951 296.316223 
L 440.517442 296.021971 
L 440.357981 295.727719 
L 440.203413 295.433468 
L 440.053589 295.139216 
L 439.908363 294.844964 
L 439.767593 294.550712 
L 439.631144 294.256461 
L 439.498882 293.962209 
L 439.370678 293.667957 
L 439.246409 293.373705 
L 439.125954 293.079453 
L 439.009195 292.785202 
L 438.896019 292.49095 
L 438.896019 292.49095 
L 438.896019 287.531049 
L 437.108638 287.531049 
L 437.108638 286.104228 
L 438.896019 286.104228 
L 438.896019 285.866425 
z
" clip-path="url(#p761c8a8390)" style="fill: #d62728; fill-opacity: 0.5"/>
       </g>
       <g id="matplotlib.axis_1">
        <g id="xtick_1">
         <g id="line2d_1"/>
         <g id="text_1">
          <!-- OUT -->
          <g transform="translate(93.548199 332.720312) scale(0.1 -0.1)">
           <defs>
            <path id="DejaVuSans-4f" d="M 2522 4238 
Q 1834 4238 1429 3725 
Q 1025 3213 1025 2328 
Q 1025 1447 1429 934 
Q 1834 422 2522 422 
Q 3209 422 3611 934 
Q 4013 1447 4013 2328 
Q 4013 3213 3611 3725 
Q 3209 4238 2522 4238 
z
M 2522 4750 
Q 3503 4750 4090 4092 
Q 4678 3434 4678 2328 
Q 4678 1225 4090 567 
Q 3503 -91 2522 -91 
Q 1538 -91 948 565 
Q 359 1222 359 2328 
Q 359 3434 948 4092 
Q 1538 4750 2522 4750 
z
" transform="scale(0.015625)"/>
            <path id="DejaVuSans-55" d="M 556 4666 
L 1191 4666 
L 1191 1831 
Q 1191 1081 1462 751 
Q 1734 422 2344 422 
Q 2950 422 3222 751 
Q 3494 1081 3494 1831 
L 3494 4666 
L 4128 4666 
L 4128 1753 
Q 4128 841 3676 375 
Q 3225 -91 2344 -91 
Q 1459 -91 1007 375 
Q 556 841 556 1753 
L 556 4666 
z
" transform="scale(0.015625)"/>
            <path id="DejaVuSans-54" d="M -19 4666 
L 3928 4666 
L 3928 4134 
L 2272 4134 
L 2272 0 
L 1638 0 
L 1638 4134 
L -19 4134 
L -19 4666 
z
" transform="scale(0.015625)"/>
           </defs>
           <use xlink:href="#DejaVuSans-4f"/>
           <use xlink:href="#DejaVuSans-55" x="78.710938"/>
           <use xlink:href="#DejaVuSans-54" x="151.904297"/>
          </g>
         </g>
        </g>
        <g id="xtick_2">
         <g id="line2d_2"/>
         <g id="text_2">
          <!-- SRC -->
          <g transform="translate(557.880949 332.720312) scale(0.1 -0.1)">
           <defs>
            <path id="DejaVuSans-53" d="M 3425 4513 
L 3425 3897 
Q 3066 4069 2747 4153 
Q 2428 4238 2131 4238 
Q 1616 4238 1336 4038 
Q 1056 3838 1056 3469 
Q 1056 3159 1242 3001 
Q 1428 2844 1947 2747 
L 2328 2669 
Q 3034 2534 3370 2195 
Q 3706 1856 3706 1288 
Q 3706 609 3251 259 
Q 2797 -91 1919 -91 
Q 1588 -91 1214 -16 
Q 841 59 441 206 
L 441 856 
Q 825 641 1194 531 
Q 1563 422 1919 422 
Q 2459 422 2753 634 
Q 3047 847 3047 1241 
Q 3047 1584 2836 1778 
Q 2625 1972 2144 2069 
L 1759 2144 
Q 1053 2284 737 2584 
Q 422 2884 422 3419 
Q 422 4038 858 4394 
Q 1294 4750 2059 4750 
Q 2388 4750 2728 4690 
Q 3069 4631 3425 4513 
z
" transform="scale(0.015625)"/>
            <path id="DejaVuSans-52" d="M 2841 2188 
Q 3044 2119 3236 1894 
Q 3428 1669 3622 1275 
L 4263 0 
L 3584 0 
L 2988 1197 
Q 2756 1666 2539 1819 
Q 2322 1972 1947 1972 
L 1259 1972 
L 1259 0 
L 628 0 
L 628 4666 
L 2053 4666 
Q 2853 4666 3247 4331 
Q 3641 3997 3641 3322 
Q 3641 2881 3436 2590 
Q 3231 2300 2841 2188 
z
M 1259 4147 
L 1259 2491 
L 2053 2491 
Q 2509 2491 2742 2702 
Q 2975 2913 2975 3322 
Q 2975 3731 2742 3939 
Q 2509 4147 2053 4147 
L 1259 4147 
z
" transform="scale(0.015625)"/>
            <path id="DejaVuSans-43" d="M 4122 4306 
L 4122 3641 
Q 3803 3938 3442 4084 
Q 3081 4231 2675 4231 
Q 1875 4231 1450 3742 
Q 1025 3253 1025 2328 
Q 1025 1406 1450 917 
Q 1875 428 2675 428 
Q 3081 428 3442 575 
Q 3803 722 4122 1019 
L 4122 359 
Q 3791 134 3420 21 
Q 3050 -91 2638 -91 
Q 1578 -91 968 557 
Q 359 1206 359 2328 
Q 359 3453 968 4101 
Q 1578 4750 2638 4750 
Q 3056 4750 3426 4639 
Q 3797 4528 4122 4306 
z
" transform="scale(0.015625)"/>
           </defs>
           <use xlink:href="#DejaVuSans-53"/>
           <use xlink:href="#DejaVuSans-52" x="63.476562"/>
           <use xlink:href="#DejaVuSans-43" x="127.958984"/>
          </g>
         </g>
        </g>
        <g id="xtick_3">
         <g id="line2d_3"/>
         <g id="text_3">
          <!-- TAR -->
          <g transform="translate(425.760319 332.720312) scale(0.1 -0.1)">
           <defs>
            <path id="DejaVuSans-41" d="M 2188 4044 
L 1331 1722 
L 3047 1722 
L 2188 4044 
z
M 1831 4666 
L 2547 4666 
L 4325 0 
L 3669 0 
L 3244 1197 
L 1141 1197 
L 716 0 
L 50 0 
L 1831 4666 
z
" transform="scale(0.015625)"/>
           </defs>
           <use xlink:href="#DejaVuSans-54"/>
           <use xlink:href="#DejaVuSans-41" x="53.333984"/>
           <use xlink:href="#DejaVuSans-52" x="121.742188"/>
          </g>
         </g>
        </g>
       </g>
       <g id="matplotlib.axis_2">
        <g id="ytick_1">
         <g id="line2d_4">
          <defs>
           <path id="m912ef6e4b1" d="M 0 0 
L -3.5 0 
" style="stroke: #000000; stroke-width: 0.8"/>
          </defs>
          <g>
           <use xlink:href="#m912ef6e4b1" x="63.290625" y="321.621875" style="stroke: #000000; stroke-width: 0.8"/>
          </g>
         </g>
         <g id="text_4">
          <!-- 0 -->
          <g transform="translate(49.928125 325.421094) scale(0.1 -0.1)">
           <defs>
            <path id="DejaVuSans-30" d="M 2034 4250 
Q 1547 4250 1301 3770 
Q 1056 3291 1056 2328 
Q 1056 1369 1301 889 
Q 1547 409 2034 409 
Q 2525 409 2770 889 
Q 3016 1369 3016 2328 
Q 3016 3291 2770 3770 
Q 2525 4250 2034 4250 
z
M 2034 4750 
Q 2819 4750 3233 4129 
Q 3647 3509 3647 2328 
Q 3647 1150 3233 529 
Q 2819 -91 2034 -91 
Q 1250 -91 836 529 
Q 422 1150 422 2328 
Q 422 3509 836 4129 
Q 1250 4750 2034 4750 
z
" transform="scale(0.015625)"/>
           </defs>
           <use xlink:href="#DejaVuSans-30"/>
          </g>
         </g>
        </g>
        <g id="ytick_2">
         <g id="line2d_5">
          <g>
           <use xlink:href="#m912ef6e4b1" x="63.290625" y="279.15697" style="stroke: #000000; stroke-width: 0.8"/>
          </g>
         </g>
         <g id="text_5">
          <!-- 2500 -->
          <g transform="translate(30.840625 282.956188) scale(0.1 -0.1)">
           <defs>
            <path id="DejaVuSans-32" d="M 1228 531 
L 3431 531 
L 3431 0 
L 469 0 
L 469 531 
Q 828 903 1448 1529 
Q 2069 2156 2228 2338 
Q 2531 2678 2651 2914 
Q 2772 3150 2772 3378 
Q 2772 3750 2511 3984 
Q 2250 4219 1831 4219 
Q 1534 4219 1204 4116 
Q 875 4013 500 3803 
L 500 4441 
Q 881 4594 1212 4672 
Q 1544 4750 1819 4750 
Q 2544 4750 2975 4387 
Q 3406 4025 3406 3419 
Q 3406 3131 3298 2873 
Q 3191 2616 2906 2266 
Q 2828 2175 2409 1742 
Q 1991 1309 1228 531 
z
" transform="scale(0.015625)"/>
            <path id="DejaVuSans-35" d="M 691 4666 
L 3169 4666 
L 3169 4134 
L 1269 4134 
L 1269 2991 
Q 1406 3038 1543 3061 
Q 1681 3084 1819 3084 
Q 2600 3084 3056 2656 
Q 3513 2228 3513 1497 
Q 3513 744 3044 326 
Q 2575 -91 1722 -91 
Q 1428 -91 1123 -41 
Q 819 9 494 109 
L 494 744 
Q 775 591 1075 516 
Q 1375 441 1709 441 
Q 2250 441 2565 725 
Q 2881 1009 2881 1497 
Q 2881 1984 2565 2268 
Q 2250 2553 1709 2553 
Q 1456 2553 1204 2497 
Q 953 2441 691 2322 
L 691 4666 
z
" transform="scale(0.015625)"/>
           </defs>
           <use xlink:href="#DejaVuSans-32"/>
           <use xlink:href="#DejaVuSans-35" x="63.623047"/>
           <use xlink:href="#DejaVuSans-30" x="127.246094"/>
           <use xlink:href="#DejaVuSans-30" x="190.869141"/>
          </g>
         </g>
        </g>
        <g id="ytick_3">
         <g id="line2d_6">
          <g>
           <use xlink:href="#m912ef6e4b1" x="63.290625" y="236.692064" style="stroke: #000000; stroke-width: 0.8"/>
          </g>
         </g>
         <g id="text_6">
          <!-- 5000 -->
          <g transform="translate(30.840625 240.491283) scale(0.1 -0.1)">
           <use xlink:href="#DejaVuSans-35"/>
           <use xlink:href="#DejaVuSans-30" x="63.623047"/>
           <use xlink:href="#DejaVuSans-30" x="127.246094"/>
           <use xlink:href="#DejaVuSans-30" x="190.869141"/>
          </g>
         </g>
        </g>
        <g id="ytick_4">
         <g id="line2d_7">
          <g>
           <use xlink:href="#m912ef6e4b1" x="63.290625" y="194.227159" style="stroke: #000000; stroke-width: 0.8"/>
          </g>
         </g>
         <g id="text_7">
          <!-- 7500 -->
          <g transform="translate(30.840625 198.026378) scale(0.1 -0.1)">
           <defs>
            <path id="DejaVuSans-37" d="M 525 4666 
L 3525 4666 
L 3525 4397 
L 1831 0 
L 1172 0 
L 2766 4134 
L 525 4134 
L 525 4666 
z
" transform="scale(0.015625)"/>
           </defs>
           <use xlink:href="#DejaVuSans-37"/>
           <use xlink:href="#DejaVuSans-35" x="63.623047"/>
           <use xlink:href="#DejaVuSans-30" x="127.246094"/>
           <use xlink:href="#DejaVuSans-30" x="190.869141"/>
          </g>
         </g>
        </g>
        <g id="ytick_5">
         <g id="line2d_8">
          <g>
           <use xlink:href="#m912ef6e4b1" x="63.290625" y="151.762253" style="stroke: #000000; stroke-width: 0.8"/>
          </g>
         </g>
         <g id="text_8">
          <!-- 10000 -->
          <g transform="translate(24.478125 155.561472) scale(0.1 -0.1)">
           <defs>
            <path id="DejaVuSans-31" d="M 794 531 
L 1825 531 
L 1825 4091 
L 703 3866 
L 703 4441 
L 1819 4666 
L 2450 4666 
L 2450 531 
L 3481 531 
L 3481 0 
L 794 0 
L 794 531 
z
" transform="scale(0.015625)"/>
           </defs>
           <use xlink:href="#DejaVuSans-31"/>
           <use xlink:href="#DejaVuSans-30" x="63.623047"/>
           <use xlink:href="#DejaVuSans-30" x="127.246094"/>
           <use xlink:href="#DejaVuSans-30" x="190.869141"/>
           <use xlink:href="#DejaVuSans-30" x="254.492188"/>
          </g>
         </g>
        </g>
        <g id="ytick_6">
         <g id="line2d_9">
          <g>
           <use xlink:href="#m912ef6e4b1" x="63.290625" y="109.297348" style="stroke: #000000; stroke-width: 0.8"/>
          </g>
         </g>
         <g id="text_9">
          <!-- 12500 -->
          <g transform="translate(24.478125 113.096567) scale(0.1 -0.1)">
           <use xlink:href="#DejaVuSans-31"/>
           <use xlink:href="#DejaVuSans-32" x="63.623047"/>
           <use xlink:href="#DejaVuSans-35" x="127.246094"/>
           <use xlink:href="#DejaVuSans-30" x="190.869141"/>
           <use xlink:href="#DejaVuSans-30" x="254.492188"/>
          </g>
         </g>
        </g>
        <g id="ytick_7">
         <g id="line2d_10">
          <g>
           <use xlink:href="#m912ef6e4b1" x="63.290625" y="66.832443" style="stroke: #000000; stroke-width: 0.8"/>
          </g>
         </g>
         <g id="text_10">
          <!-- 15000 -->
          <g transform="translate(24.478125 70.631661) scale(0.1 -0.1)">
           <use xlink:href="#DejaVuSans-31"/>
           <use xlink:href="#DejaVuSans-35" x="63.623047"/>
           <use xlink:href="#DejaVuSans-30" x="127.246094"/>
           <use xlink:href="#DejaVuSans-30" x="190.869141"/>
           <use xlink:href="#DejaVuSans-30" x="254.492188"/>
          </g>
         </g>
        </g>
        <g id="ytick_8">
         <g id="line2d_11">
          <g>
           <use xlink:href="#m912ef6e4b1" x="63.290625" y="24.367537" style="stroke: #000000; stroke-width: 0.8"/>
          </g>
         </g>
         <g id="text_11">
          <!-- 17500 -->
          <g transform="translate(24.478125 28.166756) scale(0.1 -0.1)">
           <use xlink:href="#DejaVuSans-31"/>
           <use xlink:href="#DejaVuSans-37" x="63.623047"/>
           <use xlink:href="#DejaVuSans-35" x="127.246094"/>
           <use xlink:href="#DejaVuSans-30" x="190.869141"/>
           <use xlink:href="#DejaVuSans-30" x="254.492188"/>
          </g>
         </g>
        </g>
        <g id="text_12">
         <!-- time ago (generations) -->
         <g transform="translate(18.398438 223.682031) rotate(-90) scale(0.1 -0.1)">
          <defs>
           <path id="DejaVuSans-74" d="M 1172 4494 
L 1172 3500 
L 2356 3500 
L 2356 3053 
L 1172 3053 
L 1172 1153 
Q 1172 725 1289 603 
Q 1406 481 1766 481 
L 2356 481 
L 2356 0 
L 1766 0 
Q 1100 0 847 248 
Q 594 497 594 1153 
L 594 3053 
L 172 3053 
L 172 3500 
L 594 3500 
L 594 4494 
L 1172 4494 
z
" transform="scale(0.015625)"/>
           <path id="DejaVuSans-69" d="M 603 3500 
L 1178 3500 
L 1178 0 
L 603 0 
L 603 3500 
z
M 603 4863 
L 1178 4863 
L 1178 4134 
L 603 4134 
L 603 4863 
z
" transform="scale(0.015625)"/>
           <path id="DejaVuSans-6d" d="M 3328 2828 
Q 3544 3216 3844 3400 
Q 4144 3584 4550 3584 
Q 5097 3584 5394 3201 
Q 5691 2819 5691 2113 
L 5691 0 
L 5113 0 
L 5113 2094 
Q 5113 2597 4934 2840 
Q 4756 3084 4391 3084 
Q 3944 3084 3684 2787 
Q 3425 2491 3425 1978 
L 3425 0 
L 2847 0 
L 2847 2094 
Q 2847 2600 2669 2842 
Q 2491 3084 2119 3084 
Q 1678 3084 1418 2786 
Q 1159 2488 1159 1978 
L 1159 0 
L 581 0 
L 581 3500 
L 1159 3500 
L 1159 2956 
Q 1356 3278 1631 3431 
Q 1906 3584 2284 3584 
Q 2666 3584 2933 3390 
Q 3200 3197 3328 2828 
z
" transform="scale(0.015625)"/>
           <path id="DejaVuSans-65" d="M 3597 1894 
L 3597 1613 
L 953 1613 
Q 991 1019 1311 708 
Q 1631 397 2203 397 
Q 2534 397 2845 478 
Q 3156 559 3463 722 
L 3463 178 
Q 3153 47 2828 -22 
Q 2503 -91 2169 -91 
Q 1331 -91 842 396 
Q 353 884 353 1716 
Q 353 2575 817 3079 
Q 1281 3584 2069 3584 
Q 2775 3584 3186 3129 
Q 3597 2675 3597 1894 
z
M 3022 2063 
Q 3016 2534 2758 2815 
Q 2500 3097 2075 3097 
Q 1594 3097 1305 2825 
Q 1016 2553 972 2059 
L 3022 2063 
z
" transform="scale(0.015625)"/>
           <path id="DejaVuSans-20" transform="scale(0.015625)"/>
           <path id="DejaVuSans-61" d="M 2194 1759 
Q 1497 1759 1228 1600 
Q 959 1441 959 1056 
Q 959 750 1161 570 
Q 1363 391 1709 391 
Q 2188 391 2477 730 
Q 2766 1069 2766 1631 
L 2766 1759 
L 2194 1759 
z
M 3341 1997 
L 3341 0 
L 2766 0 
L 2766 531 
Q 2569 213 2275 61 
Q 1981 -91 1556 -91 
Q 1019 -91 701 211 
Q 384 513 384 1019 
Q 384 1609 779 1909 
Q 1175 2209 1959 2209 
L 2766 2209 
L 2766 2266 
Q 2766 2663 2505 2880 
Q 2244 3097 1772 3097 
Q 1472 3097 1187 3025 
Q 903 2953 641 2809 
L 641 3341 
Q 956 3463 1253 3523 
Q 1550 3584 1831 3584 
Q 2591 3584 2966 3190 
Q 3341 2797 3341 1997 
z
" transform="scale(0.015625)"/>
           <path id="DejaVuSans-67" d="M 2906 1791 
Q 2906 2416 2648 2759 
Q 2391 3103 1925 3103 
Q 1463 3103 1205 2759 
Q 947 2416 947 1791 
Q 947 1169 1205 825 
Q 1463 481 1925 481 
Q 2391 481 2648 825 
Q 2906 1169 2906 1791 
z
M 3481 434 
Q 3481 -459 3084 -895 
Q 2688 -1331 1869 -1331 
Q 1566 -1331 1297 -1286 
Q 1028 -1241 775 -1147 
L 775 -588 
Q 1028 -725 1275 -790 
Q 1522 -856 1778 -856 
Q 2344 -856 2625 -561 
Q 2906 -266 2906 331 
L 2906 616 
Q 2728 306 2450 153 
Q 2172 0 1784 0 
Q 1141 0 747 490 
Q 353 981 353 1791 
Q 353 2603 747 3093 
Q 1141 3584 1784 3584 
Q 2172 3584 2450 3431 
Q 2728 3278 2906 2969 
L 2906 3500 
L 3481 3500 
L 3481 434 
z
" transform="scale(0.015625)"/>
           <path id="DejaVuSans-6f" d="M 1959 3097 
Q 1497 3097 1228 2736 
Q 959 2375 959 1747 
Q 959 1119 1226 758 
Q 1494 397 1959 397 
Q 2419 397 2687 759 
Q 2956 1122 2956 1747 
Q 2956 2369 2687 2733 
Q 2419 3097 1959 3097 
z
M 1959 3584 
Q 2709 3584 3137 3096 
Q 3566 2609 3566 1747 
Q 3566 888 3137 398 
Q 2709 -91 1959 -91 
Q 1206 -91 779 398 
Q 353 888 353 1747 
Q 353 2609 779 3096 
Q 1206 3584 1959 3584 
z
" transform="scale(0.015625)"/>
           <path id="DejaVuSans-28" d="M 1984 4856 
Q 1566 4138 1362 3434 
Q 1159 2731 1159 2009 
Q 1159 1288 1364 580 
Q 1569 -128 1984 -844 
L 1484 -844 
Q 1016 -109 783 600 
Q 550 1309 550 2009 
Q 550 2706 781 3412 
Q 1013 4119 1484 4856 
L 1984 4856 
z
" transform="scale(0.015625)"/>
           <path id="DejaVuSans-6e" d="M 3513 2113 
L 3513 0 
L 2938 0 
L 2938 2094 
Q 2938 2591 2744 2837 
Q 2550 3084 2163 3084 
Q 1697 3084 1428 2787 
Q 1159 2491 1159 1978 
L 1159 0 
L 581 0 
L 581 3500 
L 1159 3500 
L 1159 2956 
Q 1366 3272 1645 3428 
Q 1925 3584 2291 3584 
Q 2894 3584 3203 3211 
Q 3513 2838 3513 2113 
z
" transform="scale(0.015625)"/>
           <path id="DejaVuSans-72" d="M 2631 2963 
Q 2534 3019 2420 3045 
Q 2306 3072 2169 3072 
Q 1681 3072 1420 2755 
Q 1159 2438 1159 1844 
L 1159 0 
L 581 0 
L 581 3500 
L 1159 3500 
L 1159 2956 
Q 1341 3275 1631 3429 
Q 1922 3584 2338 3584 
Q 2397 3584 2469 3576 
Q 2541 3569 2628 3553 
L 2631 2963 
z
" transform="scale(0.015625)"/>
           <path id="DejaVuSans-73" d="M 2834 3397 
L 2834 2853 
Q 2591 2978 2328 3040 
Q 2066 3103 1784 3103 
Q 1356 3103 1142 2972 
Q 928 2841 928 2578 
Q 928 2378 1081 2264 
Q 1234 2150 1697 2047 
L 1894 2003 
Q 2506 1872 2764 1633 
Q 3022 1394 3022 966 
Q 3022 478 2636 193 
Q 2250 -91 1575 -91 
Q 1294 -91 989 -36 
Q 684 19 347 128 
L 347 722 
Q 666 556 975 473 
Q 1284 391 1588 391 
Q 1994 391 2212 530 
Q 2431 669 2431 922 
Q 2431 1156 2273 1281 
Q 2116 1406 1581 1522 
L 1381 1569 
Q 847 1681 609 1914 
Q 372 2147 372 2553 
Q 372 3047 722 3315 
Q 1072 3584 1716 3584 
Q 2034 3584 2315 3537 
Q 2597 3491 2834 3397 
z
" transform="scale(0.015625)"/>
           <path id="DejaVuSans-29" d="M 513 4856 
L 1013 4856 
Q 1481 4119 1714 3412 
Q 1947 2706 1947 2009 
Q 1947 1309 1714 600 
Q 1481 -109 1013 -844 
L 513 -844 
Q 928 -128 1133 580 
Q 1338 1288 1338 2009 
Q 1338 2731 1133 3434 
Q 928 4138 513 4856 
z
" transform="scale(0.015625)"/>
          </defs>
          <use xlink:href="#DejaVuSans-74"/>
          <use xlink:href="#DejaVuSans-69" x="39.208984"/>
          <use xlink:href="#DejaVuSans-6d" x="66.992188"/>
          <use xlink:href="#DejaVuSans-65" x="164.404297"/>
          <use xlink:href="#DejaVuSans-20" x="225.927734"/>
          <use xlink:href="#DejaVuSans-61" x="257.714844"/>
          <use xlink:href="#DejaVuSans-67" x="318.994141"/>
          <use xlink:href="#DejaVuSans-6f" x="382.470703"/>
          <use xlink:href="#DejaVuSans-20" x="443.652344"/>
          <use xlink:href="#DejaVuSans-28" x="475.439453"/>
          <use xlink:href="#DejaVuSans-67" x="514.453125"/>
          <use xlink:href="#DejaVuSans-65" x="577.929688"/>
          <use xlink:href="#DejaVuSans-6e" x="639.453125"/>
          <use xlink:href="#DejaVuSans-65" x="702.832031"/>
          <use xlink:href="#DejaVuSans-72" x="764.355469"/>
          <use xlink:href="#DejaVuSans-61" x="805.46875"/>
          <use xlink:href="#DejaVuSans-74" x="866.748047"/>
          <use xlink:href="#DejaVuSans-69" x="905.957031"/>
          <use xlink:href="#DejaVuSans-6f" x="933.740234"/>
          <use xlink:href="#DejaVuSans-6e" x="994.921875"/>
          <use xlink:href="#DejaVuSans-73" x="1058.300781"/>
          <use xlink:href="#DejaVuSans-29" x="1110.400391"/>
         </g>
        </g>
       </g>
       <g id="patch_7">
        <path d="M 250.663292 285.866425 
L 249.663292 285.834988 
L 248.663292 285.798048 
L 247.663292 285.700301 
L 246.663292 285.66778 
L 245.663292 285.594155 
L 244.663292 285.555589 
L 243.663292 285.520176 
L 242.663292 285.462536 
L 241.663292 285.39215 
L 240.663292 285.340186 
L 239.663292 285.281096 
L 238.663292 285.192775 
L 237.663292 285.146631 
L 236.663292 285.10422 
L 235.663292 285.073727 
L 234.663292 285.047682 
L 233.663292 285.026482 
L 232.663292 284.972181 
L 231.663292 284.944244 
L 230.663292 284.91452 
L 229.663292 284.889125 
L 228.663292 284.877924 
L 227.663292 284.8678 
L 226.663292 284.868005 
L 225.663292 284.877515 
L 224.663292 284.889168 
L 223.663292 284.920198 
L 222.663292 284.931365 
L 221.663292 284.961483 
L 220.663292 285.02126 
L 219.663292 285.058451 
L 218.663292 285.097548 
L 217.663292 285.139987 
L 216.663292 285.172752 
L 215.663292 285.240179 
L 214.663292 285.279305 
L 213.663292 285.321979 
L 212.663292 285.39256 
L 211.663292 285.428951 
L 210.663292 285.487354 
L 209.663292 285.598306 
L 208.663292 285.668965 
L 207.663292 285.781905 
L 206.663292 285.827677 
L 205.663292 285.888961 
L 204.663292 285.93746 
L 203.663292 286.018283 
L 202.663292 286.136802 
L 201.663292 286.207012 
L 200.663292 286.290275 
L 199.663292 286.323416 
L 198.663292 286.374654 
L 197.663292 286.443052 
L 196.663292 286.509268 
L 195.663292 286.586185 
L 194.663292 286.6135 
L 193.663292 286.639978 
L 192.663292 286.662628 
L 191.663292 286.68216 
L 190.663292 286.708554 
L 189.663292 286.758324 
L 188.663292 286.793398 
L 187.663292 286.829263 
L 186.663292 286.84463 
L 185.663292 286.8604 
L 184.663292 286.863812 
L 183.663292 286.86623 
L 182.663292 286.865744 
L 181.663292 286.863814 
L 180.663292 286.850558 
L 179.663292 286.842167 
L 178.663292 286.82063 
L 177.663292 286.797598 
L 176.663292 286.780364 
L 175.663292 286.761902 
L 174.663292 286.741449 
L 173.663292 286.724849 
L 172.663292 286.662071 
L 171.663292 286.586806 
L 170.663292 286.554167 
L 169.663292 286.486603 
L 168.663292 286.432556 
L 167.663292 286.398852 
L 166.663292 286.308726 
L 165.663292 286.280191 
L 164.663292 286.248704 
L 163.663292 286.217694 
L 162.663292 286.162886 
L 161.663292 286.098298 
L 160.663292 286.060103 
L 159.663292 285.964169 
L 158.663292 285.914911 
L 157.663292 285.870841 
L 156.663292 285.830718 
L 155.663292 285.722351 
L 154.663292 285.680722 
L 153.663292 285.618581 
L 152.663292 285.548619 
L 151.663292 285.444114 
L 150.663292 285.407127 
L 149.663292 285.361249 
L 148.663292 285.292755 
L 147.663292 285.244009 
L 146.663292 285.166412 
L 145.663292 285.135871 
L 144.663292 285.066356 
L 143.663292 285.042383 
L 142.663292 285.013762 
L 141.663292 284.971969 
L 140.663292 284.950393 
L 139.663292 284.936445 
L 138.663292 284.909722 
L 137.663292 284.900413 
L 136.663292 284.887966 
L 135.663292 284.876911 
L 134.663292 284.871246 
L 133.663292 284.866483 
L 132.663292 284.87203 
L 131.663292 284.885318 
L 130.663292 284.892836 
L 129.663292 284.917621 
L 128.663292 284.941189 
L 127.663292 284.97737 
L 126.663292 285.003332 
L 125.663292 285.025653 
L 124.663292 285.094413 
L 123.663292 285.168948 
L 122.663292 285.262928 
L 121.663292 285.31398 
L 120.663292 285.367914 
L 119.663292 285.403164 
L 118.478135 285.509252 
" clip-path="url(#p761c8a8390)" style="fill: none; stroke: #ffffff; stroke-width: 3; stroke-linecap: round"/>
        <path d="M 250.663292 285.866425 
L 249.663292 285.834988 
L 248.663292 285.798048 
L 247.663292 285.700301 
L 246.663292 285.66778 
L 245.663292 285.594155 
L 244.663292 285.555589 
L 243.663292 285.520176 
L 242.663292 285.462536 
L 241.663292 285.39215 
L 240.663292 285.340186 
L 239.663292 285.281096 
L 238.663292 285.192775 
L 237.663292 285.146631 
L 236.663292 285.10422 
L 235.663292 285.073727 
L 234.663292 285.047682 
L 233.663292 285.026482 
L 232.663292 284.972181 
L 231.663292 284.944244 
L 230.663292 284.91452 
L 229.663292 284.889125 
L 228.663292 284.877924 
L 227.663292 284.8678 
L 226.663292 284.868005 
L 225.663292 284.877515 
L 224.663292 284.889168 
L 223.663292 284.920198 
L 222.663292 284.931365 
L 221.663292 284.961483 
L 220.663292 285.02126 
L 219.663292 285.058451 
L 218.663292 285.097548 
L 217.663292 285.139987 
L 216.663292 285.172752 
L 215.663292 285.240179 
L 214.663292 285.279305 
L 213.663292 285.321979 
L 212.663292 285.39256 
L 211.663292 285.428951 
L 210.663292 285.487354 
L 209.663292 285.598306 
L 208.663292 285.668965 
L 207.663292 285.781905 
L 206.663292 285.827677 
L 205.663292 285.888961 
L 204.663292 285.93746 
L 203.663292 286.018283 
L 202.663292 286.136802 
L 201.663292 286.207012 
L 200.663292 286.290275 
L 199.663292 286.323416 
L 198.663292 286.374654 
L 197.663292 286.443052 
L 196.663292 286.509268 
L 195.663292 286.586185 
L 194.663292 286.6135 
L 193.663292 286.639978 
L 192.663292 286.662628 
L 191.663292 286.68216 
L 190.663292 286.708554 
L 189.663292 286.758324 
L 188.663292 286.793398 
L 187.663292 286.829263 
L 186.663292 286.84463 
L 185.663292 286.8604 
L 184.663292 286.863812 
L 183.663292 286.86623 
L 182.663292 286.865744 
L 181.663292 286.863814 
L 180.663292 286.850558 
L 179.663292 286.842167 
L 178.663292 286.82063 
L 177.663292 286.797598 
L 176.663292 286.780364 
L 175.663292 286.761902 
L 174.663292 286.741449 
L 173.663292 286.724849 
L 172.663292 286.662071 
L 171.663292 286.586806 
L 170.663292 286.554167 
L 169.663292 286.486603 
L 168.663292 286.432556 
L 167.663292 286.398852 
L 166.663292 286.308726 
L 165.663292 286.280191 
L 164.663292 286.248704 
L 163.663292 286.217694 
L 162.663292 286.162886 
L 161.663292 286.098298 
L 160.663292 286.060103 
L 159.663292 285.964169 
L 158.663292 285.914911 
L 157.663292 285.870841 
L 156.663292 285.830718 
L 155.663292 285.722351 
L 154.663292 285.680722 
L 153.663292 285.618581 
L 152.663292 285.548619 
L 151.663292 285.444114 
L 150.663292 285.407127 
L 149.663292 285.361249 
L 148.663292 285.292755 
L 147.663292 285.244009 
L 146.663292 285.166412 
L 145.663292 285.135871 
L 144.663292 285.066356 
L 143.663292 285.042383 
L 142.663292 285.013762 
L 141.663292 284.971969 
L 140.663292 284.950393 
L 139.663292 284.936445 
L 138.663292 284.909722 
L 137.663292 284.900413 
L 136.663292 284.887966 
L 135.663292 284.876911 
L 134.663292 284.871246 
L 133.663292 284.866483 
L 132.663292 284.87203 
L 131.663292 284.885318 
L 130.663292 284.892836 
L 129.663292 284.917621 
L 128.663292 284.941189 
L 127.663292 284.97737 
L 126.663292 285.003332 
L 125.663292 285.025653 
L 124.663292 285.094413 
L 123.663292 285.168948 
L 122.663292 285.262928 
L 121.663292 285.31398 
L 120.663292 285.367914 
L 119.663292 285.403164 
L 118.478135 285.509252 
" clip-path="url(#p761c8a8390)" style="fill: none; stroke: #1f77b4; stroke-linecap: round"/>
        <path d="M 122.478135 287.866425 
L 121.597766 287.391093 
L 120.719859 286.910839 
L 119.869146 286.376199 
L 118.566971 285.688751 
L 119.494325 285.662736 
L 120.405999 285.250017 
L 121.316263 284.834478 
L 122.658759 284.227673 
L 122.00386 284.866425 
L 121.951896 285.866425 
L 121.892806 287.866425 
z
" clip-path="url(#p761c8a8390)" style="fill: #ffffff; stroke: #ffffff; stroke-width: 3; stroke-linecap: round"/>
        <path d="M 122.478135 287.866425 
L 121.597766 287.391093 
L 120.719859 286.910839 
L 119.869146 286.376199 
L 118.566971 285.688751 
L 119.494325 285.662736 
L 120.405999 285.250017 
L 121.316263 284.834478 
L 122.658759 284.227673 
L 122.00386 284.866425 
L 121.951896 285.866425 
L 121.892806 287.866425 
z
" clip-path="url(#p761c8a8390)" style="fill: #ffffff; stroke: #1f77b4; stroke-linecap: round"/>
        <g id="patch_8">
         <path d="M 355.083464 72.964375 
L 356.083464 72.995811 
L 357.083464 73.032752 
L 358.083464 73.130498 
L 359.083464 73.16302 
L 360.083464 73.236645 
L 361.083464 73.27521 
L 362.083464 73.310623 
L 363.083464 73.368263 
L 364.083464 73.438649 
L 365.083464 73.490614 
L 366.083464 73.549703 
L 367.083464 73.638024 
L 368.083464 73.684169 
L 369.083464 73.72658 
L 370.083464 73.757072 
L 371.083464 73.783117 
L 372.083464 73.804317 
L 373.083464 73.858618 
L 374.083464 73.886556 
L 375.083464 73.91628 
L 376.083464 73.941675 
L 377.083464 73.952875 
L 378.083464 73.962999 
L 379.083464 73.962795 
L 380.083464 73.953285 
L 381.083464 73.941631 
L 382.083464 73.910602 
L 383.083464 73.899434 
L 384.083464 73.869317 
L 385.083464 73.80954 
L 386.083464 73.772348 
L 387.083464 73.733252 
L 388.083464 73.690812 
L 389.083464 73.658047 
L 390.083464 73.590621 
L 391.083464 73.551495 
L 392.083464 73.50882 
L 393.083464 73.43824 
L 394.083464 73.401849 
L 395.083464 73.343446 
L 396.083464 73.232493 
L 397.083464 73.161835 
L 398.083464 73.048895 
L 399.083464 73.003122 
L 400.083464 72.941839 
L 401.083464 72.89334 
L 402.083464 72.812517 
L 403.083464 72.693998 
L 404.083464 72.623787 
L 405.083464 72.540525 
L 406.083464 72.507383 
L 407.083464 72.456146 
L 408.083464 72.387747 
L 409.083464 72.321532 
L 410.083464 72.244615 
L 411.083464 72.217299 
L 412.083464 72.190822 
L 413.083464 72.168171 
L 414.083464 72.14864 
L 415.083464 72.122246 
L 416.083464 72.072475 
L 417.083464 72.037402 
L 418.083464 72.001536 
L 419.083464 71.986169 
L 420.083464 71.9704 
L 421.083464 71.966987 
L 422.083464 71.96457 
L 423.083464 71.965056 
L 424.083464 71.966985 
L 425.083464 71.980242 
L 426.083464 71.988633 
L 427.083464 72.010169 
L 428.083464 72.033202 
L 429.083464 72.050435 
L 430.083464 72.068898 
L 431.083464 72.08935 
L 432.083464 72.10595 
L 433.083464 72.168729 
L 434.083464 72.243994 
L 435.083464 72.276633 
L 436.083464 72.344197 
L 437.083464 72.398244 
L 438.083464 72.431948 
L 439.083464 72.522074 
L 440.083464 72.550609 
L 441.083464 72.582095 
L 442.083464 72.613106 
L 443.083464 72.667914 
L 444.083464 72.732501 
L 445.083464 72.770697 
L 446.083464 72.866631 
L 447.083464 72.915889 
L 448.083464 72.959958 
L 449.083464 73.000082 
L 450.083464 73.108449 
L 451.083464 73.150077 
L 452.083464 73.212219 
L 453.083464 73.282181 
L 454.083464 73.386685 
L 455.083464 73.423673 
L 456.083464 73.46955 
L 457.083464 73.538045 
L 458.083464 73.586791 
L 459.083464 73.664388 
L 460.083464 73.694929 
L 461.083464 73.764443 
L 462.083464 73.788416 
L 463.083464 73.817038 
L 464.083464 73.858831 
L 465.083464 73.880407 
L 466.083464 73.894355 
L 467.083464 73.921077 
L 468.083464 73.930387 
L 469.083464 73.942834 
L 470.083464 73.953889 
L 471.083464 73.959553 
L 472.083464 73.964317 
L 473.083464 73.958769 
L 474.083464 73.945481 
L 475.083464 73.937964 
L 476.083464 73.913179 
L 477.083464 73.88961 
L 478.083464 73.85343 
L 479.083464 73.827468 
L 480.083464 73.805146 
L 481.083464 73.736386 
L 482.083464 73.661851 
L 483.083464 73.567872 
L 484.083464 73.51682 
L 485.083464 73.462886 
L 486.083464 73.427635 
L 487.083464 73.321547 
L 488.083464 73.269283 
L 489.083464 73.232376 
L 490.083464 73.201345 
L 491.083464 73.14019 
L 492.083464 73.07277 
L 493.083464 73.023864 
L 494.083464 72.958672 
L 495.083464 72.920484 
L 496.083464 72.878488 
L 497.083464 72.836471 
L 498.083464 72.776955 
L 499.083464 72.663795 
L 500.083464 72.611544 
L 501.083464 72.572126 
L 502.083464 72.525025 
L 503.083464 72.468245 
L 504.083464 72.435582 
L 505.083464 72.399404 
L 506.083464 72.367314 
L 507.083464 72.333034 
L 508.083464 72.274656 
L 509.083464 72.229471 
L 510.083464 72.199847 
L 511.083464 72.149461 
L 512.083464 72.124264 
L 513.083464 72.103213 
L 514.083464 72.068245 
L 515.083464 72.043955 
L 516.083464 72.029888 
L 517.083464 72.010946 
L 518.083464 71.995285 
L 519.083464 71.982733 
L 520.083464 71.976897 
L 521.083464 71.970015 
L 522.083464 71.964841 
L 523.083464 71.966624 
L 524.083464 71.969349 
L 525.083464 71.980503 
L 526.083464 72.008738 
L 527.083464 72.052526 
L 528.083464 72.073215 
L 529.083464 72.114188 
L 530.083464 72.154263 
L 531.083464 72.173373 
L 532.083464 72.195882 
L 533.083464 72.262533 
L 534.083464 72.312243 
L 535.083464 72.385949 
L 536.083464 72.417263 
L 537.083464 72.493885 
L 538.083464 72.532183 
L 539.083464 72.6063 
L 540.083464 72.710358 
L 541.083464 72.780189 
L 542.083464 72.885423 
L 543.083464 72.940438 
L 544.083464 73.063913 
L 545.083464 73.134472 
L 546.083464 73.250311 
L 547.083464 73.300492 
L 548.083464 73.336096 
L 549.083464 73.427503 
L 550.083464 73.481011 
L 551.083464 73.568919 
L 552.083464 73.638104 
L 553.382291 73.684868 
" clip-path="url(#p761c8a8390)" style="fill: none; stroke: #ffffff; stroke-width: 3; stroke-linecap: round"/>
         <path d="M 355.083464 72.964375 
L 356.083464 72.995811 
L 357.083464 73.032752 
L 358.083464 73.130498 
L 359.083464 73.16302 
L 360.083464 73.236645 
L 361.083464 73.27521 
L 362.083464 73.310623 
L 363.083464 73.368263 
L 364.083464 73.438649 
L 365.083464 73.490614 
L 366.083464 73.549703 
L 367.083464 73.638024 
L 368.083464 73.684169 
L 369.083464 73.72658 
L 370.083464 73.757072 
L 371.083464 73.783117 
L 372.083464 73.804317 
L 373.083464 73.858618 
L 374.083464 73.886556 
L 375.083464 73.91628 
L 376.083464 73.941675 
L 377.083464 73.952875 
L 378.083464 73.962999 
L 379.083464 73.962795 
L 380.083464 73.953285 
L 381.083464 73.941631 
L 382.083464 73.910602 
L 383.083464 73.899434 
L 384.083464 73.869317 
L 385.083464 73.80954 
L 386.083464 73.772348 
L 387.083464 73.733252 
L 388.083464 73.690812 
L 389.083464 73.658047 
L 390.083464 73.590621 
L 391.083464 73.551495 
L 392.083464 73.50882 
L 393.083464 73.43824 
L 394.083464 73.401849 
L 395.083464 73.343446 
L 396.083464 73.232493 
L 397.083464 73.161835 
L 398.083464 73.048895 
L 399.083464 73.003122 
L 400.083464 72.941839 
L 401.083464 72.89334 
L 402.083464 72.812517 
L 403.083464 72.693998 
L 404.083464 72.623787 
L 405.083464 72.540525 
L 406.083464 72.507383 
L 407.083464 72.456146 
L 408.083464 72.387747 
L 409.083464 72.321532 
L 410.083464 72.244615 
L 411.083464 72.217299 
L 412.083464 72.190822 
L 413.083464 72.168171 
L 414.083464 72.14864 
L 415.083464 72.122246 
L 416.083464 72.072475 
L 417.083464 72.037402 
L 418.083464 72.001536 
L 419.083464 71.986169 
L 420.083464 71.9704 
L 421.083464 71.966987 
L 422.083464 71.96457 
L 423.083464 71.965056 
L 424.083464 71.966985 
L 425.083464 71.980242 
L 426.083464 71.988633 
L 427.083464 72.010169 
L 428.083464 72.033202 
L 429.083464 72.050435 
L 430.083464 72.068898 
L 431.083464 72.08935 
L 432.083464 72.10595 
L 433.083464 72.168729 
L 434.083464 72.243994 
L 435.083464 72.276633 
L 436.083464 72.344197 
L 437.083464 72.398244 
L 438.083464 72.431948 
L 439.083464 72.522074 
L 440.083464 72.550609 
L 441.083464 72.582095 
L 442.083464 72.613106 
L 443.083464 72.667914 
L 444.083464 72.732501 
L 445.083464 72.770697 
L 446.083464 72.866631 
L 447.083464 72.915889 
L 448.083464 72.959958 
L 449.083464 73.000082 
L 450.083464 73.108449 
L 451.083464 73.150077 
L 452.083464 73.212219 
L 453.083464 73.282181 
L 454.083464 73.386685 
L 455.083464 73.423673 
L 456.083464 73.46955 
L 457.083464 73.538045 
L 458.083464 73.586791 
L 459.083464 73.664388 
L 460.083464 73.694929 
L 461.083464 73.764443 
L 462.083464 73.788416 
L 463.083464 73.817038 
L 464.083464 73.858831 
L 465.083464 73.880407 
L 466.083464 73.894355 
L 467.083464 73.921077 
L 468.083464 73.930387 
L 469.083464 73.942834 
L 470.083464 73.953889 
L 471.083464 73.959553 
L 472.083464 73.964317 
L 473.083464 73.958769 
L 474.083464 73.945481 
L 475.083464 73.937964 
L 476.083464 73.913179 
L 477.083464 73.88961 
L 478.083464 73.85343 
L 479.083464 73.827468 
L 480.083464 73.805146 
L 481.083464 73.736386 
L 482.083464 73.661851 
L 483.083464 73.567872 
L 484.083464 73.51682 
L 485.083464 73.462886 
L 486.083464 73.427635 
L 487.083464 73.321547 
L 488.083464 73.269283 
L 489.083464 73.232376 
L 490.083464 73.201345 
L 491.083464 73.14019 
L 492.083464 73.07277 
L 493.083464 73.023864 
L 494.083464 72.958672 
L 495.083464 72.920484 
L 496.083464 72.878488 
L 497.083464 72.836471 
L 498.083464 72.776955 
L 499.083464 72.663795 
L 500.083464 72.611544 
L 501.083464 72.572126 
L 502.083464 72.525025 
L 503.083464 72.468245 
L 504.083464 72.435582 
L 505.083464 72.399404 
L 506.083464 72.367314 
L 507.083464 72.333034 
L 508.083464 72.274656 
L 509.083464 72.229471 
L 510.083464 72.199847 
L 511.083464 72.149461 
L 512.083464 72.124264 
L 513.083464 72.103213 
L 514.083464 72.068245 
L 515.083464 72.043955 
L 516.083464 72.029888 
L 517.083464 72.010946 
L 518.083464 71.995285 
L 519.083464 71.982733 
L 520.083464 71.976897 
L 521.083464 71.970015 
L 522.083464 71.964841 
L 523.083464 71.966624 
L 524.083464 71.969349 
L 525.083464 71.980503 
L 526.083464 72.008738 
L 527.083464 72.052526 
L 528.083464 72.073215 
L 529.083464 72.114188 
L 530.083464 72.154263 
L 531.083464 72.173373 
L 532.083464 72.195882 
L 533.083464 72.262533 
L 534.083464 72.312243 
L 535.083464 72.385949 
L 536.083464 72.417263 
L 537.083464 72.493885 
L 538.083464 72.532183 
L 539.083464 72.6063 
L 540.083464 72.710358 
L 541.083464 72.780189 
L 542.083464 72.885423 
L 543.083464 72.940438 
L 544.083464 73.063913 
L 545.083464 73.134472 
L 546.083464 73.250311 
L 547.083464 73.300492 
L 548.083464 73.336096 
L 549.083464 73.427503 
L 550.083464 73.481011 
L 551.083464 73.568919 
L 552.083464 73.638104 
L 553.382291 73.684868 
" clip-path="url(#p761c8a8390)" style="fill: none; stroke: #1f77b4; stroke-linecap: round"/>
         <path d="M 549.382291 70.964375 
L 550.26266 71.439706 
L 551.140567 71.91996 
L 551.99128 72.454601 
L 553.293455 73.142048 
L 552.366101 73.168063 
L 551.454427 73.580783 
L 550.544163 73.996322 
L 549.201667 74.603126 
L 549.856566 73.964375 
L 549.90853 72.964375 
L 549.96762 70.964375 
z
" clip-path="url(#p761c8a8390)" style="fill: #ffffff; stroke: #ffffff; stroke-width: 3; stroke-linecap: round"/>
         <path d="M 549.382291 70.964375 
L 550.26266 71.439706 
L 551.140567 71.91996 
L 551.99128 72.454601 
L 553.293455 73.142048 
L 552.366101 73.168063 
L 551.454427 73.580783 
L 550.544163 73.996322 
L 549.201667 74.603126 
L 549.856566 73.964375 
L 549.90853 72.964375 
L 549.96762 70.964375 
z
" clip-path="url(#p761c8a8390)" style="fill: #ffffff; stroke: #1f77b4; stroke-linecap: round"/>
         <g id="patch_9">
          <path d="M 355.083581 285.866425 
L 356.083581 285.897861 
L 357.083581 285.934801 
L 358.083581 286.032548 
L 359.083581 286.06507 
L 360.083581 286.138694 
L 361.083581 286.17726 
L 362.083581 286.212673 
L 363.083581 286.270313 
L 364.083581 286.340699 
L 365.083581 286.392663 
L 366.083581 286.451753 
L 367.083581 286.540074 
L 368.083581 286.586218 
L 369.083581 286.628629 
L 370.083581 286.659122 
L 371.083581 286.685167 
L 372.083581 286.706367 
L 373.083581 286.760668 
L 374.083581 286.788606 
L 375.083581 286.81833 
L 376.083581 286.843724 
L 377.083581 286.854925 
L 378.083581 286.865049 
L 379.083581 286.864844 
L 380.083581 286.855335 
L 381.083581 286.843681 
L 382.083581 286.812652 
L 383.083581 286.801484 
L 384.083581 286.771366 
L 385.083581 286.711589 
L 386.083581 286.674398 
L 387.083581 286.635302 
L 388.083581 286.592862 
L 389.083581 286.560097 
L 390.083581 286.492671 
L 391.083581 286.453545 
L 392.083581 286.41087 
L 393.083581 286.340289 
L 394.083581 286.303899 
L 395.083581 286.245495 
L 396.083581 286.134543 
L 397.083581 286.063885 
L 398.083581 285.950945 
L 399.083581 285.905172 
L 400.083581 285.843889 
L 401.083581 285.795389 
L 402.083581 285.714567 
L 403.083581 285.596048 
L 404.083581 285.525837 
L 405.083581 285.442575 
L 406.083581 285.409433 
L 407.083581 285.358195 
L 408.083581 285.289797 
L 409.083581 285.223582 
L 410.083581 285.146665 
L 411.083581 285.119349 
L 412.083581 285.092872 
L 413.083581 285.070221 
L 414.083581 285.05069 
L 415.083581 285.024296 
L 416.083581 284.974525 
L 417.083581 284.939452 
L 418.083581 284.903586 
L 419.083581 284.888219 
L 420.083581 284.87245 
L 421.083581 284.869037 
L 422.083581 284.866619 
L 423.083581 284.867105 
L 424.083581 284.869035 
L 425.083581 284.882292 
L 426.083581 284.890682 
L 427.083581 284.912219 
L 428.630471 284.935251 
" clip-path="url(#p761c8a8390)" style="fill: none; stroke: #ffffff; stroke-width: 3; stroke-linecap: round"/>
          <path d="M 355.083581 285.866425 
L 356.083581 285.897861 
L 357.083581 285.934801 
L 358.083581 286.032548 
L 359.083581 286.06507 
L 360.083581 286.138694 
L 361.083581 286.17726 
L 362.083581 286.212673 
L 363.083581 286.270313 
L 364.083581 286.340699 
L 365.083581 286.392663 
L 366.083581 286.451753 
L 367.083581 286.540074 
L 368.083581 286.586218 
L 369.083581 286.628629 
L 370.083581 286.659122 
L 371.083581 286.685167 
L 372.083581 286.706367 
L 373.083581 286.760668 
L 374.083581 286.788606 
L 375.083581 286.81833 
L 376.083581 286.843724 
L 377.083581 286.854925 
L 378.083581 286.865049 
L 379.083581 286.864844 
L 380.083581 286.855335 
L 381.083581 286.843681 
L 382.083581 286.812652 
L 383.083581 286.801484 
L 384.083581 286.771366 
L 385.083581 286.711589 
L 386.083581 286.674398 
L 387.083581 286.635302 
L 388.083581 286.592862 
L 389.083581 286.560097 
L 390.083581 286.492671 
L 391.083581 286.453545 
L 392.083581 286.41087 
L 393.083581 286.340289 
L 394.083581 286.303899 
L 395.083581 286.245495 
L 396.083581 286.134543 
L 397.083581 286.063885 
L 398.083581 285.950945 
L 399.083581 285.905172 
L 400.083581 285.843889 
L 401.083581 285.795389 
L 402.083581 285.714567 
L 403.083581 285.596048 
L 404.083581 285.525837 
L 405.083581 285.442575 
L 406.083581 285.409433 
L 407.083581 285.358195 
L 408.083581 285.289797 
L 409.083581 285.223582 
L 410.083581 285.146665 
L 411.083581 285.119349 
L 412.083581 285.092872 
L 413.083581 285.070221 
L 414.083581 285.05069 
L 415.083581 285.024296 
L 416.083581 284.974525 
L 417.083581 284.939452 
L 418.083581 284.903586 
L 419.083581 284.888219 
L 420.083581 284.87245 
L 421.083581 284.869037 
L 422.083581 284.866619 
L 423.083581 284.867105 
L 424.083581 284.869035 
L 425.083581 284.882292 
L 426.083581 284.890682 
L 427.083581 284.912219 
L 428.630471 284.935251 
" clip-path="url(#p761c8a8390)" style="fill: none; stroke: #1f77b4; stroke-linecap: round"/>
          <path d="M 424.630471 283.866425 
L 425.510839 284.341756 
L 426.388746 284.82201 
L 427.23946 285.356651 
L 428.541634 286.044098 
L 427.614281 286.070113 
L 426.702607 286.482832 
L 425.792342 286.898371 
L 424.449846 287.505176 
L 425.104745 286.866425 
L 425.156709 285.866425 
L 425.215799 283.866425 
z
" clip-path="url(#p761c8a8390)" style="fill: #ffffff; stroke: #ffffff; stroke-width: 3; stroke-linecap: round"/>
          <path d="M 424.630471 283.866425 
L 425.510839 284.341756 
L 426.388746 284.82201 
L 427.23946 285.356651 
L 428.541634 286.044098 
L 427.614281 286.070113 
L 426.702607 286.482832 
L 425.792342 286.898371 
L 424.449846 287.505176 
L 425.104745 286.866425 
L 425.156709 285.866425 
L 425.215799 283.866425 
z
" clip-path="url(#p761c8a8390)" style="fill: #ffffff; stroke: #1f77b4; stroke-linecap: round"/>
          <path d="M 444.299113 287.938712 
" clip-path="url(#p761c8a8390)" style="fill: none; stroke-dasharray: 3.7,1.6; stroke-dashoffset: 0; stroke: #2ca02c"/>
          <path d="M 443.299113 287.938712 
L 445.299113 288.938712 
L 445.299113 286.938712 
z
" clip-path="url(#p761c8a8390)" style="fill: #2ca02c; stroke: #2ca02c; stroke-linejoin: miter"/>
          <g id="patch_10">
           <path d="M 63.290625 321.621875 
L 63.290625 10.8 
" style="fill: none; stroke: #000000; stroke-width: 0.8; stroke-linejoin: miter; stroke-linecap: square"/>
          </g>
          <g id="text_13">
           <g id="patch_11">
            <path d="M 292.219378 155.172275 
L 313.524065 155.172275 
Q 315.524065 155.172275 315.524065 153.172275 
L 315.524065 143.49415 
Q 315.524065 141.49415 313.524065 141.49415 
L 292.219378 141.49415 
Q 290.219378 141.49415 290.219378 143.49415 
L 290.219378 153.172275 
Q 290.219378 155.172275 292.219378 155.172275 
z
" style="fill: #ffffff; opacity: 0.6"/>
           </g>
           <!-- ANC -->
           <g transform="translate(292.219378 151.092587) scale(0.1 -0.1)">
            <defs>
             <path id="DejaVuSans-4e" d="M 628 4666 
L 1478 4666 
L 3547 763 
L 3547 4666 
L 4159 4666 
L 4159 0 
L 3309 0 
L 1241 3903 
L 1241 0 
L 628 0 
L 628 4666 
z
" transform="scale(0.015625)"/>
            </defs>
            <use xlink:href="#DejaVuSans-41"/>
            <use xlink:href="#DejaVuSans-4e" x="68.408203"/>
            <use xlink:href="#DejaVuSans-43" x="143.212891"/>
           </g>
          </g>
         </g>
        </g>
        <defs>
         <clipPath id="p761c8a8390">
          <rect x="63.290625" y="10.8" width="540.309375" height="310.821875"/>
         </clipPath>
        </defs>
       </g>
      </g>
     </g>
    </g>
   </g>
  </g>
 </g>
</svg>
