<?xml version="1.0" encoding="utf-8" standalone="no"?>
<!DOCTYPE svg PUBLIC "-//W3C//DTD SVG 1.1//EN"
  "http://www.w3.org/Graphics/SVG/1.1/DTD/svg11.dtd">
<svg xmlns:xlink="http://www.w3.org/1999/xlink" width="614.4pt" height="345.6pt" viewBox="0 0 614.4 345.6" xmlns="http://www.w3.org/2000/svg" version="1.1">
 <metadata>
  <rdf:RDF xmlns:dc="http://purl.org/dc/elements/1.1/" xmlns:cc="http://creativecommons.org/ns#" xmlns:rdf="http://www.w3.org/1999/02/22-rdf-syntax-ns#">
   <cc:Work>
    <dc:type rdf:resource="http://purl.org/dc/dcmitype/StillImage"/>
    <dc:date>2024-04-17T19:40:05.062850</dc:date>
    <dc:format>image/svg+xml</dc:format>
    <dc:creator>
     <cc:Agent>
      <dc:title>Matplotlib v3.7.1, https://matplotlib.org/</dc:title>
     </cc:Agent>
    </dc:creator>
   </cc:Work>
  </rdf:RDF>
 </metadata>
 <defs>
  <style type="text/css">*{stroke-linejoin: round; stroke-linecap: butt}</style>
 </defs>
 <g id="figure_1">
  <g id="patch_1">
   <path d="M 0 345.6 
L 614.4 345.6 
L 614.4 0 
L 0 0 
z
" style="fill: #ffffff"/>
  </g>
  <g id="axes_1">
   <g id="patch_2">
    <path d="M 63.290625 321.621875 
L 603.6 321.621875 
L 603.6 10.8 
L 63.290625 10.8 
z
" style="fill: #ffffff"/>
   </g>
   <path d="M 571.604291 291.990127 
L 570.604291 291.958691 
L 569.604291 291.92175 
L 568.604291 291.824004 
L 567.604291 291.791482 
L 566.604291 291.717857 
L 565.604291 291.679292 
L 564.604291 291.643879 
L 563.604291 291.586239 
L 562.604291 291.515853 
L 561.604291 291.463888 
L 560.604291 291.404799 
L 559.604291 291.316478 
L 558.604291 291.270333 
L 557.604291 291.227922 
L 556.604291 291.19743 
L 555.604291 291.171385 
L 554.604291 291.150185 
L 553.604291 291.095884 
L 552.604291 291.067946 
L 551.604291 291.038222 
L 550.604291 291.012827 
L 549.604291 291.001627 
L 548.604291 290.991503 
L 547.604291 290.991707 
L 546.604291 291.001217 
L 545.604291 291.012871 
L 544.604291 291.0439 
L 543.604291 291.055068 
L 542.604291 291.085185 
L 541.604291 291.144962 
L 540.604291 291.182154 
L 539.604291 291.22125 
L 538.604291 291.26369 
L 537.604291 291.296455 
L 536.604291 291.363881 
L 535.604291 291.403007 
L 534.604291 291.445682 
L 533.604291 291.516262 
L 532.604291 291.552653 
L 531.604291 291.611056 
L 530.604291 291.722009 
L 529.604291 291.792667 
L 528.604291 291.905607 
L 527.604291 291.95138 
L 526.604291 292.012663 
L 525.604291 292.061162 
L 524.604291 292.141985 
L 523.604291 292.260504 
L 522.604291 292.330715 
L 521.604291 292.413977 
L 520.604291 292.447119 
L 519.604291 292.498356 
L 518.604291 292.566755 
L 517.604291 292.63297 
L 516.604291 292.709887 
L 515.604291 292.737203 
L 514.604291 292.76368 
L 513.604291 292.786331 
L 512.604291 292.805862 
L 511.604291 292.832256 
L 510.604291 292.882027 
L 509.604291 292.9171 
L 508.604291 292.952966 
L 507.604291 292.968333 
L 506.604291 292.984102 
L 505.604291 292.987515 
L 504.604291 292.989932 
L 503.604291 292.989446 
L 502.604291 292.987517 
L 501.604291 292.97426 
L 500.604291 292.96587 
L 499.604291 292.944333 
L 498.604291 292.9213 
L 497.604291 292.904067 
L 496.604291 292.885604 
L 495.604291 292.865152 
L 494.604291 292.848552 
L 493.604291 292.785773 
L 492.604291 292.710508 
L 491.604291 292.677869 
L 490.604291 292.610305 
L 489.604291 292.556258 
L 488.604291 292.522554 
L 487.604291 292.432428 
L 486.604291 292.403893 
L 485.604291 292.372407 
L 484.604291 292.341396 
L 483.604291 292.286588 
L 482.604291 292.222001 
L 481.604291 292.183805 
L 480.604291 292.087871 
L 479.604291 292.038613 
L 478.604291 291.994544 
L 477.604291 291.95442 
L 476.604291 291.846053 
L 475.604291 291.804425 
L 474.604291 291.742284 
L 473.604291 291.672321 
L 472.604291 291.567817 
L 471.604291 291.530829 
L 470.604291 291.484952 
L 469.604291 291.416457 
L 468.604291 291.367712 
L 467.604291 291.290114 
L 466.604291 291.259573 
L 465.604291 291.190059 
L 464.604291 291.166086 
L 463.604291 291.137464 
L 462.604291 291.095671 
L 461.604291 291.074095 
L 460.604291 291.060147 
L 459.604291 291.033425 
L 458.604291 291.024115 
L 457.604291 291.011668 
L 456.604291 291.000613 
L 455.604291 290.994949 
L 454.604291 290.990185 
L 453.604291 290.995733 
L 452.604291 291.009021 
L 451.604291 291.016538 
L 450.604291 291.041323 
L 449.604291 291.064892 
L 448.604291 291.101072 
L 447.604291 291.127034 
L 446.604291 291.149356 
L 445.604291 291.218116 
L 443.793705 291.292651 
" clip-path="url(#p7891e83dd2)" style="fill: none; stroke-dasharray: 3.7,1.6; stroke-dashoffset: 0; stroke: #2ca02c"/>
   <g id="patch_3">
    <path d="M 296.526145 10.8 
L 296.526145 246.401668 
M 299.837441 10.8 
L 299.837441 246.401668 
" clip-path="url(#p7891e83dd2)" style="fill: none; stroke: #ffffff; stroke-width: 3; stroke-linejoin: miter"/>
    <path d="M 296.526145 10.8 
L 296.526145 246.401668 
M 299.837441 10.8 
L 299.837441 246.401668 
" clip-path="url(#p7891e83dd2)" style="fill: none; stroke: #1f77b4; stroke-linejoin: miter"/>
    <g id="PolyCollection_1">
     <path d="M 299.837441 10.8 
L 296.526145 10.8 
L 296.526145 246.401668 
L 299.837441 246.401668 
L 299.837441 246.401668 
L 299.837441 10.8 
z
" clip-path="url(#p7891e83dd2)" style="fill: #1f77b4; fill-opacity: 0.5"/>
    </g>
    <g id="patch_4">
     <path d="M 88.180219 246.401668 
L 88.069374 316.079929 
L 87.850142 321.621875 
M 88.420155 246.401668 
L 88.531001 316.079929 
L 88.750232 321.621875 
L 88.750232 321.621875 
" clip-path="url(#p7891e83dd2)" style="fill: none; stroke: #ffffff; stroke-width: 3; stroke-linejoin: miter"/>
     <path d="M 88.180219 246.401668 
L 88.069374 316.079929 
L 87.850142 321.621875 
M 88.420155 246.401668 
L 88.531001 316.079929 
L 88.750232 321.621875 
L 88.750232 321.621875 
" clip-path="url(#p7891e83dd2)" style="fill: none; stroke: #ff7f0e; stroke-linejoin: miter"/>
     <g id="PolyCollection_2">
      <path d="M 88.420155 246.401668 
L 88.180219 246.401668 
L 88.180219 310.648821 
L 88.180219 310.648821 
L 88.178606 310.75966 
L 88.176972 310.870499 
L 88.175315 310.981338 
L 88.173636 311.092177 
L 88.171935 311.203016 
L 88.17021 311.313855 
L 88.168463 311.424694 
L 88.166692 311.535533 
L 88.164897 311.646372 
L 88.163078 311.757211 
L 88.161235 311.86805 
L 88.159367 311.978889 
L 88.157474 312.089727 
L 88.155555 312.200566 
L 88.153611 312.311405 
L 88.15164 312.422244 
L 88.149643 312.533083 
L 88.147619 312.643922 
L 88.145568 312.754761 
L 88.143489 312.8656 
L 88.141382 312.976439 
L 88.139247 313.087278 
L 88.137083 313.198117 
L 88.134891 313.308956 
L 88.132668 313.419795 
L 88.130416 313.530633 
L 88.128134 313.641472 
L 88.125821 313.752311 
L 88.123476 313.86315 
L 88.121101 313.973989 
L 88.118693 314.084828 
L 88.116253 314.195667 
L 88.11378 314.306506 
L 88.111274 314.417345 
L 88.108734 314.528184 
L 88.10616 314.639023 
L 88.103551 314.749862 
L 88.100908 314.860701 
L 88.098229 314.971539 
L 88.095513 315.082378 
L 88.092762 315.193217 
L 88.089973 315.304056 
L 88.087147 315.414895 
L 88.084283 315.525734 
L 88.08138 315.636573 
L 88.078438 315.747412 
L 88.075457 315.858251 
L 88.072436 315.96909 
L 88.069374 316.079929 
L 88.066271 316.190768 
L 88.063126 316.301607 
L 88.059939 316.412446 
L 88.056709 316.523284 
L 88.053435 316.634123 
L 88.050118 316.744962 
L 88.046756 316.855801 
L 88.043349 316.96664 
L 88.039896 317.077479 
L 88.036396 317.188318 
L 88.03285 317.299157 
L 88.029255 317.409996 
L 88.025613 317.520835 
L 88.021921 317.631674 
L 88.01818 317.742513 
L 88.014389 317.853352 
L 88.010547 317.96419 
L 88.006653 318.075029 
L 88.002706 318.185868 
L 87.998707 318.296707 
L 87.994654 318.407546 
L 87.990546 318.518385 
L 87.986383 318.629224 
L 87.982164 318.740063 
L 87.977888 318.850902 
L 87.973555 318.961741 
L 87.969164 319.07258 
L 87.964714 319.183419 
L 87.960203 319.294258 
L 87.955633 319.405096 
L 87.951 319.515935 
L 87.946306 319.626774 
L 87.941548 319.737613 
L 87.936726 319.848452 
L 87.93184 319.959291 
L 87.926888 320.07013 
L 87.921869 320.180969 
L 87.916783 320.291808 
L 87.911628 320.402647 
L 87.906404 320.513486 
L 87.90111 320.624325 
L 87.895745 320.735164 
L 87.890307 320.846003 
L 87.884797 320.956841 
L 87.879212 321.06768 
L 87.873552 321.178519 
L 87.867816 321.289358 
L 87.862003 321.400197 
L 87.856112 321.511036 
L 87.850142 321.621875 
L 88.750232 321.621875 
L 88.750232 321.621875 
L 88.744262 321.511036 
L 88.738371 321.400197 
L 88.732558 321.289358 
L 88.726822 321.178519 
L 88.721162 321.06768 
L 88.715578 320.956841 
L 88.710067 320.846003 
L 88.70463 320.735164 
L 88.699264 320.624325 
L 88.69397 320.513486 
L 88.688746 320.402647 
L 88.683592 320.291808 
L 88.678505 320.180969 
L 88.673487 320.07013 
L 88.668534 319.959291 
L 88.663648 319.848452 
L 88.658826 319.737613 
L 88.654069 319.626774 
L 88.649374 319.515935 
L 88.644742 319.405096 
L 88.640171 319.294258 
L 88.635661 319.183419 
L 88.63121 319.07258 
L 88.626819 318.961741 
L 88.622486 318.850902 
L 88.61821 318.740063 
L 88.613991 318.629224 
L 88.609828 318.518385 
L 88.605721 318.407546 
L 88.601668 318.296707 
L 88.597668 318.185868 
L 88.593722 318.075029 
L 88.589828 317.96419 
L 88.585985 317.853352 
L 88.582194 317.742513 
L 88.578453 317.631674 
L 88.574761 317.520835 
L 88.571119 317.409996 
L 88.567525 317.299157 
L 88.563978 317.188318 
L 88.560479 317.077479 
L 88.557026 316.96664 
L 88.553618 316.855801 
L 88.550256 316.744962 
L 88.546939 316.634123 
L 88.543666 316.523284 
L 88.540436 316.412446 
L 88.537249 316.301607 
L 88.534104 316.190768 
L 88.531001 316.079929 
L 88.527939 315.96909 
L 88.524917 315.858251 
L 88.521936 315.747412 
L 88.518994 315.636573 
L 88.516092 315.525734 
L 88.513227 315.414895 
L 88.510401 315.304056 
L 88.507612 315.193217 
L 88.504861 315.082378 
L 88.502146 314.971539 
L 88.499466 314.860701 
L 88.496823 314.749862 
L 88.494214 314.639023 
L 88.49164 314.528184 
L 88.4891 314.417345 
L 88.486594 314.306506 
L 88.484121 314.195667 
L 88.481681 314.084828 
L 88.479274 313.973989 
L 88.476898 313.86315 
L 88.474554 313.752311 
L 88.472241 313.641472 
L 88.469958 313.530633 
L 88.467706 313.419795 
L 88.465484 313.308956 
L 88.463291 313.198117 
L 88.461127 313.087278 
L 88.458992 312.976439 
L 88.456885 312.8656 
L 88.454807 312.754761 
L 88.452755 312.643922 
L 88.450731 312.533083 
L 88.448734 312.422244 
L 88.446764 312.311405 
L 88.444819 312.200566 
L 88.442901 312.089727 
L 88.441007 311.978889 
L 88.439139 311.86805 
L 88.437296 311.757211 
L 88.435477 311.646372 
L 88.433682 311.535533 
L 88.431911 311.424694 
L 88.430164 311.313855 
L 88.42844 311.203016 
L 88.426738 311.092177 
L 88.425059 310.981338 
L 88.423403 310.870499 
L 88.421768 310.75966 
L 88.420155 310.648821 
L 88.420155 310.648821 
L 88.420155 246.401668 
z
" clip-path="url(#p7891e83dd2)" style="fill: #ff7f0e; fill-opacity: 0.5"/>
     </g>
     <g id="patch_5">
      <path d="M 577.007385 72.964375 
L 577.007385 321.621875 
M 579.040483 72.964375 
L 579.040483 321.621875 
" clip-path="url(#p7891e83dd2)" style="fill: none; stroke: #ffffff; stroke-width: 3; stroke-linejoin: miter"/>
      <path d="M 577.007385 72.964375 
L 577.007385 321.621875 
M 579.040483 72.964375 
L 579.040483 321.621875 
" clip-path="url(#p7891e83dd2)" style="fill: none; stroke: #2ca02c; stroke-linejoin: miter"/>
      <g id="PolyCollection_3">
       <path d="M 579.040483 72.964375 
L 577.007385 72.964375 
L 577.007385 321.621875 
L 579.040483 321.621875 
L 579.040483 321.621875 
L 579.040483 72.964375 
z
" clip-path="url(#p7891e83dd2)" style="fill: #2ca02c; fill-opacity: 0.5"/>
      </g>
      <g id="patch_6">
       <path d="M 437.815115 258.455515 
L 437.815115 281.017073 
L 438.084002 281.017073 
L 438.084002 282.308021 
L 437.815115 282.308021 
L 437.719895 300.442088 
L 437.342321 303.14589 
L 436.83055 305.173742 
L 436.20439 306.750961 
L 435.427487 308.102862 
L 434.542165 309.229446 
L 433.363877 310.356031 
L 431.795676 311.482615 
L 430.175003 312.383883 
L 428.137889 313.28515 
L 425.577324 314.186418 
L 422.358805 315.087685 
L 418.313268 315.988953 
L 413.228203 316.89022 
L 406.836498 317.791488 
L 398.802403 318.692756 
L 388.703896 319.594023 
L 376.010512 320.495291 
L 360.05548 321.396558 
L 355.463225 321.621875 
M 438.390611 258.455515 
L 438.390611 281.017073 
L 438.121725 281.017073 
L 438.121725 282.308021 
L 438.390611 282.308021 
L 438.485832 300.442088 
L 438.863406 303.14589 
L 439.375177 305.173742 
L 440.001336 306.750961 
L 440.778239 308.102862 
L 441.663561 309.229446 
L 442.841849 310.356031 
L 444.410051 311.482615 
L 446.030723 312.383883 
L 448.067838 313.28515 
L 450.628403 314.186418 
L 453.846921 315.087685 
L 457.892459 315.988953 
L 462.977523 316.89022 
L 469.369228 317.791488 
L 477.403323 318.692756 
L 487.501831 319.594023 
L 500.195215 320.495291 
L 516.150247 321.396558 
L 520.742502 321.621875 
L 520.742502 321.621875 
" clip-path="url(#p7891e83dd2)" style="fill: none; stroke: #ffffff; stroke-width: 3; stroke-linejoin: miter"/>
       <path d="M 437.815115 258.455515 
L 437.815115 281.017073 
L 438.084002 281.017073 
L 438.084002 282.308021 
L 437.815115 282.308021 
L 437.719895 300.442088 
L 437.342321 303.14589 
L 436.83055 305.173742 
L 436.20439 306.750961 
L 435.427487 308.102862 
L 434.542165 309.229446 
L 433.363877 310.356031 
L 431.795676 311.482615 
L 430.175003 312.383883 
L 428.137889 313.28515 
L 425.577324 314.186418 
L 422.358805 315.087685 
L 418.313268 315.988953 
L 413.228203 316.89022 
L 406.836498 317.791488 
L 398.802403 318.692756 
L 388.703896 319.594023 
L 376.010512 320.495291 
L 360.05548 321.396558 
L 355.463225 321.621875 
M 438.390611 258.455515 
L 438.390611 281.017073 
L 438.121725 281.017073 
L 438.121725 282.308021 
L 438.390611 282.308021 
L 438.485832 300.442088 
L 438.863406 303.14589 
L 439.375177 305.173742 
L 440.001336 306.750961 
L 440.778239 308.102862 
L 441.663561 309.229446 
L 442.841849 310.356031 
L 444.410051 311.482615 
L 446.030723 312.383883 
L 448.067838 313.28515 
L 450.628403 314.186418 
L 453.846921 315.087685 
L 457.892459 315.988953 
L 462.977523 316.89022 
L 469.369228 317.791488 
L 477.403323 318.692756 
L 487.501831 319.594023 
L 500.195215 320.495291 
L 516.150247 321.396558 
L 520.742502 321.621875 
L 520.742502 321.621875 
" clip-path="url(#p7891e83dd2)" style="fill: none; stroke: #d62728; stroke-linejoin: miter"/>
       <g id="PolyCollection_4">
        <path d="M 438.390611 258.455515 
L 437.815115 258.455515 
L 437.815115 281.017073 
L 438.084002 281.017073 
L 438.084002 282.308021 
L 437.815115 282.308021 
L 437.815115 299.315503 
L 437.815115 299.315503 
L 437.798184 299.54082 
L 437.780257 299.766137 
L 437.761275 299.991454 
L 437.741176 300.216771 
L 437.719895 300.442088 
L 437.697361 300.667405 
L 437.673502 300.892722 
L 437.648239 301.118039 
L 437.621489 301.343355 
L 437.593165 301.568672 
L 437.563175 301.793989 
L 437.53142 302.019306 
L 437.497797 302.244623 
L 437.462195 302.46994 
L 437.424498 302.695257 
L 437.384584 302.920574 
L 437.342321 303.14589 
L 437.297571 303.371207 
L 437.250188 303.596524 
L 437.200017 303.821841 
L 437.146894 304.047158 
L 437.090646 304.272475 
L 437.031088 304.497792 
L 436.968025 304.723109 
L 436.901252 304.948426 
L 436.83055 305.173742 
L 436.755688 305.399059 
L 436.676421 305.624376 
L 436.59249 305.849693 
L 436.503621 306.07501 
L 436.409523 306.300327 
L 436.309888 306.525644 
L 436.20439 306.750961 
L 436.092685 306.976278 
L 435.974408 307.201594 
L 435.849171 307.426911 
L 435.716565 307.652228 
L 435.576157 307.877545 
L 435.427487 308.102862 
L 435.27007 308.328179 
L 435.10339 308.553496 
L 434.926903 308.778813 
L 434.740032 309.004129 
L 434.542165 309.229446 
L 434.332656 309.454763 
L 434.11082 309.68008 
L 433.875931 309.905397 
L 433.627221 310.130714 
L 433.363877 310.356031 
L 433.085039 310.581348 
L 432.789793 310.806665 
L 432.477176 311.031981 
L 432.146164 311.257298 
L 431.795676 311.482615 
L 431.424565 311.707932 
L 431.031619 311.933249 
L 430.615552 312.158566 
L 430.175003 312.383883 
L 429.708534 312.6092 
L 429.214617 312.834517 
L 428.691639 313.059833 
L 428.137889 313.28515 
L 427.551556 313.510467 
L 426.930725 313.735784 
L 426.273364 313.961101 
L 425.577324 314.186418 
L 424.84033 314.411735 
L 424.059971 314.637052 
L 423.233697 314.862368 
L 422.358805 315.087685 
L 421.432436 315.313002 
L 420.451559 315.538319 
L 419.412969 315.763636 
L 418.313268 315.988953 
L 417.148862 316.21427 
L 415.915942 316.439587 
L 414.610479 316.664904 
L 413.228203 316.89022 
L 411.764595 317.115537 
L 410.214869 317.340854 
L 408.573959 317.566171 
L 406.836498 317.791488 
L 404.996807 318.016805 
L 403.048869 318.242122 
L 400.986316 318.467439 
L 398.802403 318.692756 
L 396.489991 318.918072 
L 394.041518 319.143389 
L 391.448979 319.368706 
L 388.703896 319.594023 
L 385.797294 319.81934 
L 382.71967 320.044657 
L 379.460961 320.269974 
L 376.010512 320.495291 
L 372.35704 320.720607 
L 368.488601 320.945924 
L 364.392545 321.171241 
L 360.05548 321.396558 
L 355.463225 321.621875 
L 520.742502 321.621875 
L 520.742502 321.621875 
L 516.150247 321.396558 
L 511.813182 321.171241 
L 507.717126 320.945924 
L 503.848687 320.720607 
L 500.195215 320.495291 
L 496.744765 320.269974 
L 493.486056 320.044657 
L 490.408432 319.81934 
L 487.501831 319.594023 
L 484.756748 319.368706 
L 482.164208 319.143389 
L 479.715735 318.918072 
L 477.403323 318.692756 
L 475.219411 318.467439 
L 473.156858 318.242122 
L 471.20892 318.016805 
L 469.369228 317.791488 
L 467.631768 317.566171 
L 465.990857 317.340854 
L 464.441131 317.115537 
L 462.977523 316.89022 
L 461.595247 316.664904 
L 460.289784 316.439587 
L 459.056865 316.21427 
L 457.892459 315.988953 
L 456.792758 315.763636 
L 455.754167 315.538319 
L 454.773291 315.313002 
L 453.846921 315.087685 
L 452.97203 314.862368 
L 452.145755 314.637052 
L 451.365397 314.411735 
L 450.628403 314.186418 
L 449.932363 313.961101 
L 449.275002 313.735784 
L 448.65417 313.510467 
L 448.067838 313.28515 
L 447.514088 313.059833 
L 446.99111 312.834517 
L 446.497193 312.6092 
L 446.030723 312.383883 
L 445.590175 312.158566 
L 445.174108 311.933249 
L 444.781161 311.707932 
L 444.410051 311.482615 
L 444.059562 311.257298 
L 443.728551 311.031981 
L 443.415933 310.806665 
L 443.120688 310.581348 
L 442.841849 310.356031 
L 442.578506 310.130714 
L 442.329796 309.905397 
L 442.094907 309.68008 
L 441.87307 309.454763 
L 441.663561 309.229446 
L 441.465694 309.004129 
L 441.278823 308.778813 
L 441.102336 308.553496 
L 440.935657 308.328179 
L 440.778239 308.102862 
L 440.62957 307.877545 
L 440.489161 307.652228 
L 440.356556 307.426911 
L 440.231319 307.201594 
L 440.113041 306.976278 
L 440.001336 306.750961 
L 439.895839 306.525644 
L 439.796204 306.300327 
L 439.702106 306.07501 
L 439.613236 305.849693 
L 439.529305 305.624376 
L 439.450039 305.399059 
L 439.375177 305.173742 
L 439.304475 304.948426 
L 439.237701 304.723109 
L 439.174639 304.497792 
L 439.115081 304.272475 
L 439.058832 304.047158 
L 439.005709 303.821841 
L 438.955538 303.596524 
L 438.908156 303.371207 
L 438.863406 303.14589 
L 438.821143 302.920574 
L 438.781228 302.695257 
L 438.743532 302.46994 
L 438.70793 302.244623 
L 438.674307 302.019306 
L 438.642552 301.793989 
L 438.612561 301.568672 
L 438.584238 301.343355 
L 438.557488 301.118039 
L 438.532225 300.892722 
L 438.508365 300.667405 
L 438.485832 300.442088 
L 438.46455 300.216771 
L 438.444451 299.991454 
L 438.425469 299.766137 
L 438.407542 299.54082 
L 438.390611 299.315503 
L 438.390611 299.315503 
L 438.390611 282.308021 
L 438.121725 282.308021 
L 438.121725 281.017073 
L 438.390611 281.017073 
L 438.390611 258.455515 
z
" clip-path="url(#p7891e83dd2)" style="fill: #d62728; fill-opacity: 0.5"/>
       </g>
       <g id="matplotlib.axis_1">
        <g id="xtick_1">
         <g id="line2d_1"/>
         <g id="text_1">
          <!-- OUT -->
          <g transform="translate(77.650968 332.720312) scale(0.1 -0.1)">
           <defs>
            <path id="DejaVuSans-4f" d="M 2522 4238 
Q 1834 4238 1429 3725 
Q 1025 3213 1025 2328 
Q 1025 1447 1429 934 
Q 1834 422 2522 422 
Q 3209 422 3611 934 
Q 4013 1447 4013 2328 
Q 4013 3213 3611 3725 
Q 3209 4238 2522 4238 
z
M 2522 4750 
Q 3503 4750 4090 4092 
Q 4678 3434 4678 2328 
Q 4678 1225 4090 567 
Q 3503 -91 2522 -91 
Q 1538 -91 948 565 
Q 359 1222 359 2328 
Q 359 3434 948 4092 
Q 1538 4750 2522 4750 
z
" transform="scale(0.015625)"/>
            <path id="DejaVuSans-55" d="M 556 4666 
L 1191 4666 
L 1191 1831 
Q 1191 1081 1462 751 
Q 1734 422 2344 422 
Q 2950 422 3222 751 
Q 3494 1081 3494 1831 
L 3494 4666 
L 4128 4666 
L 4128 1753 
Q 4128 841 3676 375 
Q 3225 -91 2344 -91 
Q 1459 -91 1007 375 
Q 556 841 556 1753 
L 556 4666 
z
" transform="scale(0.015625)"/>
            <path id="DejaVuSans-54" d="M -19 4666 
L 3928 4666 
L 3928 4134 
L 2272 4134 
L 2272 0 
L 1638 0 
L 1638 4134 
L -19 4134 
L -19 4666 
z
" transform="scale(0.015625)"/>
           </defs>
           <use xlink:href="#DejaVuSans-4f"/>
           <use xlink:href="#DejaVuSans-55" x="78.710938"/>
           <use xlink:href="#DejaVuSans-54" x="151.904297"/>
          </g>
         </g>
        </g>
        <g id="xtick_2">
         <g id="line2d_2"/>
         <g id="text_2">
          <!-- SRC -->
          <g transform="translate(568.13409 332.720312) scale(0.1 -0.1)">
           <defs>
            <path id="DejaVuSans-53" d="M 3425 4513 
L 3425 3897 
Q 3066 4069 2747 4153 
Q 2428 4238 2131 4238 
Q 1616 4238 1336 4038 
Q 1056 3838 1056 3469 
Q 1056 3159 1242 3001 
Q 1428 2844 1947 2747 
L 2328 2669 
Q 3034 2534 3370 2195 
Q 3706 1856 3706 1288 
Q 3706 609 3251 259 
Q 2797 -91 1919 -91 
Q 1588 -91 1214 -16 
Q 841 59 441 206 
L 441 856 
Q 825 641 1194 531 
Q 1563 422 1919 422 
Q 2459 422 2753 634 
Q 3047 847 3047 1241 
Q 3047 1584 2836 1778 
Q 2625 1972 2144 2069 
L 1759 2144 
Q 1053 2284 737 2584 
Q 422 2884 422 3419 
Q 422 4038 858 4394 
Q 1294 4750 2059 4750 
Q 2388 4750 2728 4690 
Q 3069 4631 3425 4513 
z
" transform="scale(0.015625)"/>
            <path id="DejaVuSans-52" d="M 2841 2188 
Q 3044 2119 3236 1894 
Q 3428 1669 3622 1275 
L 4263 0 
L 3584 0 
L 2988 1197 
Q 2756 1666 2539 1819 
Q 2322 1972 1947 1972 
L 1259 1972 
L 1259 0 
L 628 0 
L 628 4666 
L 2053 4666 
Q 2853 4666 3247 4331 
Q 3641 3997 3641 3322 
Q 3641 2881 3436 2590 
Q 3231 2300 2841 2188 
z
M 1259 4147 
L 1259 2491 
L 2053 2491 
Q 2509 2491 2742 2702 
Q 2975 2913 2975 3322 
Q 2975 3731 2742 3939 
Q 2509 4147 2053 4147 
L 1259 4147 
z
" transform="scale(0.015625)"/>
            <path id="DejaVuSans-43" d="M 4122 4306 
L 4122 3641 
Q 3803 3938 3442 4084 
Q 3081 4231 2675 4231 
Q 1875 4231 1450 3742 
Q 1025 3253 1025 2328 
Q 1025 1406 1450 917 
Q 1875 428 2675 428 
Q 3081 428 3442 575 
Q 3803 722 4122 1019 
L 4122 359 
Q 3791 134 3420 21 
Q 3050 -91 2638 -91 
Q 1578 -91 968 557 
Q 359 1206 359 2328 
Q 359 3453 968 4101 
Q 1578 4750 2638 4750 
Q 3056 4750 3426 4639 
Q 3797 4528 4122 4306 
z
" transform="scale(0.015625)"/>
           </defs>
           <use xlink:href="#DejaVuSans-53"/>
           <use xlink:href="#DejaVuSans-52" x="63.476562"/>
           <use xlink:href="#DejaVuSans-43" x="127.958984"/>
          </g>
         </g>
        </g>
        <g id="xtick_3">
         <g id="line2d_3"/>
         <g id="text_3">
          <!-- TAR -->
          <g transform="translate(428.541926 332.720312) scale(0.1 -0.1)">
           <defs>
            <path id="DejaVuSans-41" d="M 2188 4044 
L 1331 1722 
L 3047 1722 
L 2188 4044 
z
M 1831 4666 
L 2547 4666 
L 4325 0 
L 3669 0 
L 3244 1197 
L 1141 1197 
L 716 0 
L 50 0 
L 1831 4666 
z
" transform="scale(0.015625)"/>
           </defs>
           <use xlink:href="#DejaVuSans-54"/>
           <use xlink:href="#DejaVuSans-41" x="53.333984"/>
           <use xlink:href="#DejaVuSans-52" x="121.742188"/>
          </g>
         </g>
        </g>
       </g>
       <g id="matplotlib.axis_2">
        <g id="ytick_1">
         <g id="line2d_4">
          <defs>
           <path id="m9644c9e9f5" d="M 0 0 
L -3.5 0 
" style="stroke: #000000; stroke-width: 0.8"/>
          </defs>
          <g>
           <use xlink:href="#m9644c9e9f5" x="63.290625" y="321.621875" style="stroke: #000000; stroke-width: 0.8"/>
          </g>
         </g>
         <g id="text_4">
          <!-- 0 -->
          <g transform="translate(49.928125 325.421094) scale(0.1 -0.1)">
           <defs>
            <path id="DejaVuSans-30" d="M 2034 4250 
Q 1547 4250 1301 3770 
Q 1056 3291 1056 2328 
Q 1056 1369 1301 889 
Q 1547 409 2034 409 
Q 2525 409 2770 889 
Q 3016 1369 3016 2328 
Q 3016 3291 2770 3770 
Q 2525 4250 2034 4250 
z
M 2034 4750 
Q 2819 4750 3233 4129 
Q 3647 3509 3647 2328 
Q 3647 1150 3233 529 
Q 2819 -91 2034 -91 
Q 1250 -91 836 529 
Q 422 1150 422 2328 
Q 422 3509 836 4129 
Q 1250 4750 2034 4750 
z
" transform="scale(0.015625)"/>
           </defs>
           <use xlink:href="#DejaVuSans-30"/>
          </g>
         </g>
        </g>
        <g id="ytick_2">
         <g id="line2d_5">
          <g>
           <use xlink:href="#m9644c9e9f5" x="63.290625" y="284.094332" style="stroke: #000000; stroke-width: 0.8"/>
          </g>
         </g>
         <g id="text_5">
          <!-- 2500 -->
          <g transform="translate(30.840625 287.893551) scale(0.1 -0.1)">
           <defs>
            <path id="DejaVuSans-32" d="M 1228 531 
L 3431 531 
L 3431 0 
L 469 0 
L 469 531 
Q 828 903 1448 1529 
Q 2069 2156 2228 2338 
Q 2531 2678 2651 2914 
Q 2772 3150 2772 3378 
Q 2772 3750 2511 3984 
Q 2250 4219 1831 4219 
Q 1534 4219 1204 4116 
Q 875 4013 500 3803 
L 500 4441 
Q 881 4594 1212 4672 
Q 1544 4750 1819 4750 
Q 2544 4750 2975 4387 
Q 3406 4025 3406 3419 
Q 3406 3131 3298 2873 
Q 3191 2616 2906 2266 
Q 2828 2175 2409 1742 
Q 1991 1309 1228 531 
z
" transform="scale(0.015625)"/>
            <path id="DejaVuSans-35" d="M 691 4666 
L 3169 4666 
L 3169 4134 
L 1269 4134 
L 1269 2991 
Q 1406 3038 1543 3061 
Q 1681 3084 1819 3084 
Q 2600 3084 3056 2656 
Q 3513 2228 3513 1497 
Q 3513 744 3044 326 
Q 2575 -91 1722 -91 
Q 1428 -91 1123 -41 
Q 819 9 494 109 
L 494 744 
Q 775 591 1075 516 
Q 1375 441 1709 441 
Q 2250 441 2565 725 
Q 2881 1009 2881 1497 
Q 2881 1984 2565 2268 
Q 2250 2553 1709 2553 
Q 1456 2553 1204 2497 
Q 953 2441 691 2322 
L 691 4666 
z
" transform="scale(0.015625)"/>
           </defs>
           <use xlink:href="#DejaVuSans-32"/>
           <use xlink:href="#DejaVuSans-35" x="63.623047"/>
           <use xlink:href="#DejaVuSans-30" x="127.246094"/>
           <use xlink:href="#DejaVuSans-30" x="190.869141"/>
          </g>
         </g>
        </g>
        <g id="ytick_3">
         <g id="line2d_6">
          <g>
           <use xlink:href="#m9644c9e9f5" x="63.290625" y="246.566789" style="stroke: #000000; stroke-width: 0.8"/>
          </g>
         </g>
         <g id="text_6">
          <!-- 5000 -->
          <g transform="translate(30.840625 250.366008) scale(0.1 -0.1)">
           <use xlink:href="#DejaVuSans-35"/>
           <use xlink:href="#DejaVuSans-30" x="63.623047"/>
           <use xlink:href="#DejaVuSans-30" x="127.246094"/>
           <use xlink:href="#DejaVuSans-30" x="190.869141"/>
          </g>
         </g>
        </g>
        <g id="ytick_4">
         <g id="line2d_7">
          <g>
           <use xlink:href="#m9644c9e9f5" x="63.290625" y="209.039246" style="stroke: #000000; stroke-width: 0.8"/>
          </g>
         </g>
         <g id="text_7">
          <!-- 7500 -->
          <g transform="translate(30.840625 212.838465) scale(0.1 -0.1)">
           <defs>
            <path id="DejaVuSans-37" d="M 525 4666 
L 3525 4666 
L 3525 4397 
L 1831 0 
L 1172 0 
L 2766 4134 
L 525 4134 
L 525 4666 
z
" transform="scale(0.015625)"/>
           </defs>
           <use xlink:href="#DejaVuSans-37"/>
           <use xlink:href="#DejaVuSans-35" x="63.623047"/>
           <use xlink:href="#DejaVuSans-30" x="127.246094"/>
           <use xlink:href="#DejaVuSans-30" x="190.869141"/>
          </g>
         </g>
        </g>
        <g id="ytick_5">
         <g id="line2d_8">
          <g>
           <use xlink:href="#m9644c9e9f5" x="63.290625" y="171.511703" style="stroke: #000000; stroke-width: 0.8"/>
          </g>
         </g>
         <g id="text_8">
          <!-- 10000 -->
          <g transform="translate(24.478125 175.310922) scale(0.1 -0.1)">
           <defs>
            <path id="DejaVuSans-31" d="M 794 531 
L 1825 531 
L 1825 4091 
L 703 3866 
L 703 4441 
L 1819 4666 
L 2450 4666 
L 2450 531 
L 3481 531 
L 3481 0 
L 794 0 
L 794 531 
z
" transform="scale(0.015625)"/>
           </defs>
           <use xlink:href="#DejaVuSans-31"/>
           <use xlink:href="#DejaVuSans-30" x="63.623047"/>
           <use xlink:href="#DejaVuSans-30" x="127.246094"/>
           <use xlink:href="#DejaVuSans-30" x="190.869141"/>
           <use xlink:href="#DejaVuSans-30" x="254.492188"/>
          </g>
         </g>
        </g>
        <g id="ytick_6">
         <g id="line2d_9">
          <g>
           <use xlink:href="#m9644c9e9f5" x="63.290625" y="133.98416" style="stroke: #000000; stroke-width: 0.8"/>
          </g>
         </g>
         <g id="text_9">
          <!-- 12500 -->
          <g transform="translate(24.478125 137.783379) scale(0.1 -0.1)">
           <use xlink:href="#DejaVuSans-31"/>
           <use xlink:href="#DejaVuSans-32" x="63.623047"/>
           <use xlink:href="#DejaVuSans-35" x="127.246094"/>
           <use xlink:href="#DejaVuSans-30" x="190.869141"/>
           <use xlink:href="#DejaVuSans-30" x="254.492188"/>
          </g>
         </g>
        </g>
        <g id="ytick_7">
         <g id="line2d_10">
          <g>
           <use xlink:href="#m9644c9e9f5" x="63.290625" y="96.456617" style="stroke: #000000; stroke-width: 0.8"/>
          </g>
         </g>
         <g id="text_10">
          <!-- 15000 -->
          <g transform="translate(24.478125 100.255836) scale(0.1 -0.1)">
           <use xlink:href="#DejaVuSans-31"/>
           <use xlink:href="#DejaVuSans-35" x="63.623047"/>
           <use xlink:href="#DejaVuSans-30" x="127.246094"/>
           <use xlink:href="#DejaVuSans-30" x="190.869141"/>
           <use xlink:href="#DejaVuSans-30" x="254.492188"/>
          </g>
         </g>
        </g>
        <g id="ytick_8">
         <g id="line2d_11">
          <g>
           <use xlink:href="#m9644c9e9f5" x="63.290625" y="58.929074" style="stroke: #000000; stroke-width: 0.8"/>
          </g>
         </g>
         <g id="text_11">
          <!-- 17500 -->
          <g transform="translate(24.478125 62.728293) scale(0.1 -0.1)">
           <use xlink:href="#DejaVuSans-31"/>
           <use xlink:href="#DejaVuSans-37" x="63.623047"/>
           <use xlink:href="#DejaVuSans-35" x="127.246094"/>
           <use xlink:href="#DejaVuSans-30" x="190.869141"/>
           <use xlink:href="#DejaVuSans-30" x="254.492188"/>
          </g>
         </g>
        </g>
        <g id="ytick_9">
         <g id="line2d_12">
          <g>
           <use xlink:href="#m9644c9e9f5" x="63.290625" y="21.401531" style="stroke: #000000; stroke-width: 0.8"/>
          </g>
         </g>
         <g id="text_12">
          <!-- 20000 -->
          <g transform="translate(24.478125 25.20075) scale(0.1 -0.1)">
           <use xlink:href="#DejaVuSans-32"/>
           <use xlink:href="#DejaVuSans-30" x="63.623047"/>
           <use xlink:href="#DejaVuSans-30" x="127.246094"/>
           <use xlink:href="#DejaVuSans-30" x="190.869141"/>
           <use xlink:href="#DejaVuSans-30" x="254.492188"/>
          </g>
         </g>
        </g>
        <g id="text_13">
         <!-- time ago (generations) -->
         <g transform="translate(18.398438 223.682031) rotate(-90) scale(0.1 -0.1)">
          <defs>
           <path id="DejaVuSans-74" d="M 1172 4494 
L 1172 3500 
L 2356 3500 
L 2356 3053 
L 1172 3053 
L 1172 1153 
Q 1172 725 1289 603 
Q 1406 481 1766 481 
L 2356 481 
L 2356 0 
L 1766 0 
Q 1100 0 847 248 
Q 594 497 594 1153 
L 594 3053 
L 172 3053 
L 172 3500 
L 594 3500 
L 594 4494 
L 1172 4494 
z
" transform="scale(0.015625)"/>
           <path id="DejaVuSans-69" d="M 603 3500 
L 1178 3500 
L 1178 0 
L 603 0 
L 603 3500 
z
M 603 4863 
L 1178 4863 
L 1178 4134 
L 603 4134 
L 603 4863 
z
" transform="scale(0.015625)"/>
           <path id="DejaVuSans-6d" d="M 3328 2828 
Q 3544 3216 3844 3400 
Q 4144 3584 4550 3584 
Q 5097 3584 5394 3201 
Q 5691 2819 5691 2113 
L 5691 0 
L 5113 0 
L 5113 2094 
Q 5113 2597 4934 2840 
Q 4756 3084 4391 3084 
Q 3944 3084 3684 2787 
Q 3425 2491 3425 1978 
L 3425 0 
L 2847 0 
L 2847 2094 
Q 2847 2600 2669 2842 
Q 2491 3084 2119 3084 
Q 1678 3084 1418 2786 
Q 1159 2488 1159 1978 
L 1159 0 
L 581 0 
L 581 3500 
L 1159 3500 
L 1159 2956 
Q 1356 3278 1631 3431 
Q 1906 3584 2284 3584 
Q 2666 3584 2933 3390 
Q 3200 3197 3328 2828 
z
" transform="scale(0.015625)"/>
           <path id="DejaVuSans-65" d="M 3597 1894 
L 3597 1613 
L 953 1613 
Q 991 1019 1311 708 
Q 1631 397 2203 397 
Q 2534 397 2845 478 
Q 3156 559 3463 722 
L 3463 178 
Q 3153 47 2828 -22 
Q 2503 -91 2169 -91 
Q 1331 -91 842 396 
Q 353 884 353 1716 
Q 353 2575 817 3079 
Q 1281 3584 2069 3584 
Q 2775 3584 3186 3129 
Q 3597 2675 3597 1894 
z
M 3022 2063 
Q 3016 2534 2758 2815 
Q 2500 3097 2075 3097 
Q 1594 3097 1305 2825 
Q 1016 2553 972 2059 
L 3022 2063 
z
" transform="scale(0.015625)"/>
           <path id="DejaVuSans-20" transform="scale(0.015625)"/>
           <path id="DejaVuSans-61" d="M 2194 1759 
Q 1497 1759 1228 1600 
Q 959 1441 959 1056 
Q 959 750 1161 570 
Q 1363 391 1709 391 
Q 2188 391 2477 730 
Q 2766 1069 2766 1631 
L 2766 1759 
L 2194 1759 
z
M 3341 1997 
L 3341 0 
L 2766 0 
L 2766 531 
Q 2569 213 2275 61 
Q 1981 -91 1556 -91 
Q 1019 -91 701 211 
Q 384 513 384 1019 
Q 384 1609 779 1909 
Q 1175 2209 1959 2209 
L 2766 2209 
L 2766 2266 
Q 2766 2663 2505 2880 
Q 2244 3097 1772 3097 
Q 1472 3097 1187 3025 
Q 903 2953 641 2809 
L 641 3341 
Q 956 3463 1253 3523 
Q 1550 3584 1831 3584 
Q 2591 3584 2966 3190 
Q 3341 2797 3341 1997 
z
" transform="scale(0.015625)"/>
           <path id="DejaVuSans-67" d="M 2906 1791 
Q 2906 2416 2648 2759 
Q 2391 3103 1925 3103 
Q 1463 3103 1205 2759 
Q 947 2416 947 1791 
Q 947 1169 1205 825 
Q 1463 481 1925 481 
Q 2391 481 2648 825 
Q 2906 1169 2906 1791 
z
M 3481 434 
Q 3481 -459 3084 -895 
Q 2688 -1331 1869 -1331 
Q 1566 -1331 1297 -1286 
Q 1028 -1241 775 -1147 
L 775 -588 
Q 1028 -725 1275 -790 
Q 1522 -856 1778 -856 
Q 2344 -856 2625 -561 
Q 2906 -266 2906 331 
L 2906 616 
Q 2728 306 2450 153 
Q 2172 0 1784 0 
Q 1141 0 747 490 
Q 353 981 353 1791 
Q 353 2603 747 3093 
Q 1141 3584 1784 3584 
Q 2172 3584 2450 3431 
Q 2728 3278 2906 2969 
L 2906 3500 
L 3481 3500 
L 3481 434 
z
" transform="scale(0.015625)"/>
           <path id="DejaVuSans-6f" d="M 1959 3097 
Q 1497 3097 1228 2736 
Q 959 2375 959 1747 
Q 959 1119 1226 758 
Q 1494 397 1959 397 
Q 2419 397 2687 759 
Q 2956 1122 2956 1747 
Q 2956 2369 2687 2733 
Q 2419 3097 1959 3097 
z
M 1959 3584 
Q 2709 3584 3137 3096 
Q 3566 2609 3566 1747 
Q 3566 888 3137 398 
Q 2709 -91 1959 -91 
Q 1206 -91 779 398 
Q 353 888 353 1747 
Q 353 2609 779 3096 
Q 1206 3584 1959 3584 
z
" transform="scale(0.015625)"/>
           <path id="DejaVuSans-28" d="M 1984 4856 
Q 1566 4138 1362 3434 
Q 1159 2731 1159 2009 
Q 1159 1288 1364 580 
Q 1569 -128 1984 -844 
L 1484 -844 
Q 1016 -109 783 600 
Q 550 1309 550 2009 
Q 550 2706 781 3412 
Q 1013 4119 1484 4856 
L 1984 4856 
z
" transform="scale(0.015625)"/>
           <path id="DejaVuSans-6e" d="M 3513 2113 
L 3513 0 
L 2938 0 
L 2938 2094 
Q 2938 2591 2744 2837 
Q 2550 3084 2163 3084 
Q 1697 3084 1428 2787 
Q 1159 2491 1159 1978 
L 1159 0 
L 581 0 
L 581 3500 
L 1159 3500 
L 1159 2956 
Q 1366 3272 1645 3428 
Q 1925 3584 2291 3584 
Q 2894 3584 3203 3211 
Q 3513 2838 3513 2113 
z
" transform="scale(0.015625)"/>
           <path id="DejaVuSans-72" d="M 2631 2963 
Q 2534 3019 2420 3045 
Q 2306 3072 2169 3072 
Q 1681 3072 1420 2755 
Q 1159 2438 1159 1844 
L 1159 0 
L 581 0 
L 581 3500 
L 1159 3500 
L 1159 2956 
Q 1341 3275 1631 3429 
Q 1922 3584 2338 3584 
Q 2397 3584 2469 3576 
Q 2541 3569 2628 3553 
L 2631 2963 
z
" transform="scale(0.015625)"/>
           <path id="DejaVuSans-73" d="M 2834 3397 
L 2834 2853 
Q 2591 2978 2328 3040 
Q 2066 3103 1784 3103 
Q 1356 3103 1142 2972 
Q 928 2841 928 2578 
Q 928 2378 1081 2264 
Q 1234 2150 1697 2047 
L 1894 2003 
Q 2506 1872 2764 1633 
Q 3022 1394 3022 966 
Q 3022 478 2636 193 
Q 2250 -91 1575 -91 
Q 1294 -91 989 -36 
Q 684 19 347 128 
L 347 722 
Q 666 556 975 473 
Q 1284 391 1588 391 
Q 1994 391 2212 530 
Q 2431 669 2431 922 
Q 2431 1156 2273 1281 
Q 2116 1406 1581 1522 
L 1381 1569 
Q 847 1681 609 1914 
Q 372 2147 372 2553 
Q 372 3047 722 3315 
Q 1072 3584 1716 3584 
Q 2034 3584 2315 3537 
Q 2597 3491 2834 3397 
z
" transform="scale(0.015625)"/>
           <path id="DejaVuSans-29" d="M 513 4856 
L 1013 4856 
Q 1481 4119 1714 3412 
Q 1947 2706 1947 2009 
Q 1947 1309 1714 600 
Q 1481 -109 1013 -844 
L 513 -844 
Q 928 -128 1133 580 
Q 1338 1288 1338 2009 
Q 1338 2731 1133 3434 
Q 928 4138 513 4856 
z
" transform="scale(0.015625)"/>
          </defs>
          <use xlink:href="#DejaVuSans-74"/>
          <use xlink:href="#DejaVuSans-69" x="39.208984"/>
          <use xlink:href="#DejaVuSans-6d" x="66.992188"/>
          <use xlink:href="#DejaVuSans-65" x="164.404297"/>
          <use xlink:href="#DejaVuSans-20" x="225.927734"/>
          <use xlink:href="#DejaVuSans-61" x="257.714844"/>
          <use xlink:href="#DejaVuSans-67" x="318.994141"/>
          <use xlink:href="#DejaVuSans-6f" x="382.470703"/>
          <use xlink:href="#DejaVuSans-20" x="443.652344"/>
          <use xlink:href="#DejaVuSans-28" x="475.439453"/>
          <use xlink:href="#DejaVuSans-67" x="514.453125"/>
          <use xlink:href="#DejaVuSans-65" x="577.929688"/>
          <use xlink:href="#DejaVuSans-6e" x="639.453125"/>
          <use xlink:href="#DejaVuSans-65" x="702.832031"/>
          <use xlink:href="#DejaVuSans-72" x="764.355469"/>
          <use xlink:href="#DejaVuSans-61" x="805.46875"/>
          <use xlink:href="#DejaVuSans-74" x="866.748047"/>
          <use xlink:href="#DejaVuSans-69" x="905.957031"/>
          <use xlink:href="#DejaVuSans-6f" x="933.740234"/>
          <use xlink:href="#DejaVuSans-6e" x="994.921875"/>
          <use xlink:href="#DejaVuSans-73" x="1058.300781"/>
          <use xlink:href="#DejaVuSans-29" x="1110.400391"/>
         </g>
        </g>
       </g>
       <g id="patch_7">
        <path d="M 294.528789 246.401668 
L 293.528789 246.370231 
L 292.528789 246.333291 
L 291.528789 246.235544 
L 290.528789 246.203023 
L 289.528789 246.129398 
L 288.528789 246.090833 
L 287.528789 246.055419 
L 286.528789 245.997779 
L 285.528789 245.927393 
L 284.528789 245.875429 
L 283.528789 245.816339 
L 282.528789 245.728018 
L 281.528789 245.681874 
L 280.528789 245.639463 
L 279.528789 245.60897 
L 278.528789 245.582925 
L 277.528789 245.561725 
L 276.528789 245.507424 
L 275.528789 245.479487 
L 274.528789 245.449763 
L 273.528789 245.424368 
L 272.528789 245.413168 
L 271.528789 245.403044 
L 270.528789 245.403248 
L 269.528789 245.412758 
L 268.528789 245.424411 
L 267.528789 245.455441 
L 266.528789 245.466609 
L 265.528789 245.496726 
L 264.528789 245.556503 
L 263.528789 245.593695 
L 262.528789 245.632791 
L 261.528789 245.67523 
L 260.528789 245.707995 
L 259.528789 245.775422 
L 258.528789 245.814548 
L 257.528789 245.857222 
L 256.528789 245.927803 
L 255.528789 245.964194 
L 254.528789 246.022597 
L 253.528789 246.13355 
L 252.528789 246.204208 
L 251.528789 246.317148 
L 250.528789 246.362921 
L 249.528789 246.424204 
L 248.528789 246.472703 
L 247.528789 246.553526 
L 246.528789 246.672045 
L 245.528789 246.742255 
L 244.528789 246.825518 
L 243.528789 246.85866 
L 242.528789 246.909897 
L 241.528789 246.978295 
L 240.528789 247.044511 
L 239.528789 247.121428 
L 238.528789 247.148743 
L 237.528789 247.175221 
L 236.528789 247.197871 
L 235.528789 247.217403 
L 234.528789 247.243797 
L 233.528789 247.293568 
L 232.528789 247.328641 
L 231.528789 247.364506 
L 230.528789 247.379874 
L 229.528789 247.395643 
L 228.528789 247.399055 
L 227.528789 247.401473 
L 226.528789 247.400987 
L 225.528789 247.399058 
L 224.528789 247.385801 
L 223.528789 247.37741 
L 222.528789 247.355873 
L 221.528789 247.332841 
L 220.528789 247.315607 
L 219.528789 247.297145 
L 218.528789 247.276692 
L 217.528789 247.260093 
L 216.528789 247.197314 
L 215.528789 247.122049 
L 214.528789 247.08941 
L 213.528789 247.021846 
L 212.528789 246.967799 
L 211.528789 246.934095 
L 210.528789 246.843969 
L 209.528789 246.815434 
L 208.528789 246.783948 
L 207.528789 246.752937 
L 206.528789 246.698129 
L 205.528789 246.633541 
L 204.528789 246.595346 
L 203.528789 246.499412 
L 202.528789 246.450154 
L 201.528789 246.406084 
L 200.528789 246.365961 
L 199.528789 246.257594 
L 198.528789 246.215966 
L 197.528789 246.153824 
L 196.528789 246.083862 
L 195.528789 245.979357 
L 194.528789 245.94237 
L 193.528789 245.896493 
L 192.528789 245.827998 
L 191.528789 245.779252 
L 190.528789 245.701655 
L 189.528789 245.671114 
L 188.528789 245.601599 
L 187.528789 245.577627 
L 186.528789 245.549005 
L 185.528789 245.507212 
L 184.528789 245.485636 
L 183.528789 245.471688 
L 182.528789 245.444965 
L 181.528789 245.435656 
L 180.528789 245.423209 
L 179.528789 245.412154 
L 178.528789 245.406489 
L 177.528789 245.401726 
L 176.528789 245.407273 
L 175.528789 245.420561 
L 174.528789 245.428079 
L 173.528789 245.452864 
L 172.528789 245.476432 
L 171.528789 245.512613 
L 170.528789 245.538575 
L 169.528789 245.560896 
L 168.528789 245.629657 
L 167.528789 245.704192 
L 166.528789 245.798171 
L 165.528789 245.849223 
L 164.528789 245.903157 
L 163.528789 245.938408 
L 162.528789 246.044496 
L 161.528789 246.09676 
L 160.528789 246.133666 
L 159.528789 246.164697 
L 158.528789 246.225853 
L 157.528789 246.293273 
L 156.528789 246.342179 
L 155.528789 246.407371 
L 154.528789 246.445558 
L 153.528789 246.487554 
L 152.528789 246.529572 
L 151.528789 246.589088 
L 150.528789 246.702248 
L 149.528789 246.754499 
L 148.528789 246.793916 
L 147.528789 246.841018 
L 146.528789 246.897797 
L 145.528789 246.930461 
L 144.528789 246.966638 
L 143.528789 246.998729 
L 142.528789 247.033009 
L 141.528789 247.091387 
L 140.528789 247.136572 
L 139.528789 247.166196 
L 138.528789 247.216581 
L 137.528789 247.241779 
L 136.528789 247.26283 
L 135.528789 247.297798 
L 134.528789 247.322088 
L 133.528789 247.336155 
L 132.528789 247.355097 
L 131.528789 247.370758 
L 130.528789 247.38331 
L 129.528789 247.389146 
L 128.528789 247.396028 
L 127.528789 247.401202 
L 126.528789 247.399419 
L 125.528789 247.396693 
L 124.528789 247.38554 
L 123.528789 247.357305 
L 122.528789 247.313517 
L 121.528789 247.292828 
L 120.528789 247.251854 
L 119.528789 247.211779 
L 118.528789 247.19267 
L 117.528789 247.170161 
L 116.528789 247.103509 
L 115.528789 247.0538 
L 114.528789 246.980093 
L 113.528789 246.94878 
L 112.528789 246.872158 
L 111.528789 246.83386 
L 110.528789 246.759743 
L 109.528789 246.655684 
L 108.528789 246.585854 
L 107.528789 246.48062 
L 106.528789 246.425605 
L 105.528789 246.30213 
L 104.528789 246.231571 
L 103.528789 246.115731 
L 102.528789 246.065551 
L 101.528789 246.029946 
L 100.528789 245.93854 
L 99.528789 245.885032 
L 98.528789 245.797124 
L 97.528789 245.727939 
L 96.528789 245.681174 
L 95.528789 245.609131 
L 94.528789 245.558989 
L 93.528789 245.541599 
L 91.535244 245.514596 
" clip-path="url(#p7891e83dd2)" style="fill: none; stroke: #ffffff; stroke-width: 3; stroke-linecap: round"/>
        <path d="M 294.528789 246.401668 
L 293.528789 246.370231 
L 292.528789 246.333291 
L 291.528789 246.235544 
L 290.528789 246.203023 
L 289.528789 246.129398 
L 288.528789 246.090833 
L 287.528789 246.055419 
L 286.528789 245.997779 
L 285.528789 245.927393 
L 284.528789 245.875429 
L 283.528789 245.816339 
L 282.528789 245.728018 
L 281.528789 245.681874 
L 280.528789 245.639463 
L 279.528789 245.60897 
L 278.528789 245.582925 
L 277.528789 245.561725 
L 276.528789 245.507424 
L 275.528789 245.479487 
L 274.528789 245.449763 
L 273.528789 245.424368 
L 272.528789 245.413168 
L 271.528789 245.403044 
L 270.528789 245.403248 
L 269.528789 245.412758 
L 268.528789 245.424411 
L 267.528789 245.455441 
L 266.528789 245.466609 
L 265.528789 245.496726 
L 264.528789 245.556503 
L 263.528789 245.593695 
L 262.528789 245.632791 
L 261.528789 245.67523 
L 260.528789 245.707995 
L 259.528789 245.775422 
L 258.528789 245.814548 
L 257.528789 245.857222 
L 256.528789 245.927803 
L 255.528789 245.964194 
L 254.528789 246.022597 
L 253.528789 246.13355 
L 252.528789 246.204208 
L 251.528789 246.317148 
L 250.528789 246.362921 
L 249.528789 246.424204 
L 248.528789 246.472703 
L 247.528789 246.553526 
L 246.528789 246.672045 
L 245.528789 246.742255 
L 244.528789 246.825518 
L 243.528789 246.85866 
L 242.528789 246.909897 
L 241.528789 246.978295 
L 240.528789 247.044511 
L 239.528789 247.121428 
L 238.528789 247.148743 
L 237.528789 247.175221 
L 236.528789 247.197871 
L 235.528789 247.217403 
L 234.528789 247.243797 
L 233.528789 247.293568 
L 232.528789 247.328641 
L 231.528789 247.364506 
L 230.528789 247.379874 
L 229.528789 247.395643 
L 228.528789 247.399055 
L 227.528789 247.401473 
L 226.528789 247.400987 
L 225.528789 247.399058 
L 224.528789 247.385801 
L 223.528789 247.37741 
L 222.528789 247.355873 
L 221.528789 247.332841 
L 220.528789 247.315607 
L 219.528789 247.297145 
L 218.528789 247.276692 
L 217.528789 247.260093 
L 216.528789 247.197314 
L 215.528789 247.122049 
L 214.528789 247.08941 
L 213.528789 247.021846 
L 212.528789 246.967799 
L 211.528789 246.934095 
L 210.528789 246.843969 
L 209.528789 246.815434 
L 208.528789 246.783948 
L 207.528789 246.752937 
L 206.528789 246.698129 
L 205.528789 246.633541 
L 204.528789 246.595346 
L 203.528789 246.499412 
L 202.528789 246.450154 
L 201.528789 246.406084 
L 200.528789 246.365961 
L 199.528789 246.257594 
L 198.528789 246.215966 
L 197.528789 246.153824 
L 196.528789 246.083862 
L 195.528789 245.979357 
L 194.528789 245.94237 
L 193.528789 245.896493 
L 192.528789 245.827998 
L 191.528789 245.779252 
L 190.528789 245.701655 
L 189.528789 245.671114 
L 188.528789 245.601599 
L 187.528789 245.577627 
L 186.528789 245.549005 
L 185.528789 245.507212 
L 184.528789 245.485636 
L 183.528789 245.471688 
L 182.528789 245.444965 
L 181.528789 245.435656 
L 180.528789 245.423209 
L 179.528789 245.412154 
L 178.528789 245.406489 
L 177.528789 245.401726 
L 176.528789 245.407273 
L 175.528789 245.420561 
L 174.528789 245.428079 
L 173.528789 245.452864 
L 172.528789 245.476432 
L 171.528789 245.512613 
L 170.528789 245.538575 
L 169.528789 245.560896 
L 168.528789 245.629657 
L 167.528789 245.704192 
L 166.528789 245.798171 
L 165.528789 245.849223 
L 164.528789 245.903157 
L 163.528789 245.938408 
L 162.528789 246.044496 
L 161.528789 246.09676 
L 160.528789 246.133666 
L 159.528789 246.164697 
L 158.528789 246.225853 
L 157.528789 246.293273 
L 156.528789 246.342179 
L 155.528789 246.407371 
L 154.528789 246.445558 
L 153.528789 246.487554 
L 152.528789 246.529572 
L 151.528789 246.589088 
L 150.528789 246.702248 
L 149.528789 246.754499 
L 148.528789 246.793916 
L 147.528789 246.841018 
L 146.528789 246.897797 
L 145.528789 246.930461 
L 144.528789 246.966638 
L 143.528789 246.998729 
L 142.528789 247.033009 
L 141.528789 247.091387 
L 140.528789 247.136572 
L 139.528789 247.166196 
L 138.528789 247.216581 
L 137.528789 247.241779 
L 136.528789 247.26283 
L 135.528789 247.297798 
L 134.528789 247.322088 
L 133.528789 247.336155 
L 132.528789 247.355097 
L 131.528789 247.370758 
L 130.528789 247.38331 
L 129.528789 247.389146 
L 128.528789 247.396028 
L 127.528789 247.401202 
L 126.528789 247.399419 
L 125.528789 247.396693 
L 124.528789 247.38554 
L 123.528789 247.357305 
L 122.528789 247.313517 
L 121.528789 247.292828 
L 120.528789 247.251854 
L 119.528789 247.211779 
L 118.528789 247.19267 
L 117.528789 247.170161 
L 116.528789 247.103509 
L 115.528789 247.0538 
L 114.528789 246.980093 
L 113.528789 246.94878 
L 112.528789 246.872158 
L 111.528789 246.83386 
L 110.528789 246.759743 
L 109.528789 246.655684 
L 108.528789 246.585854 
L 107.528789 246.48062 
L 106.528789 246.425605 
L 105.528789 246.30213 
L 104.528789 246.231571 
L 103.528789 246.115731 
L 102.528789 246.065551 
L 101.528789 246.029946 
L 100.528789 245.93854 
L 99.528789 245.885032 
L 98.528789 245.797124 
L 97.528789 245.727939 
L 96.528789 245.681174 
L 95.528789 245.609131 
L 94.528789 245.558989 
L 93.528789 245.541599 
L 91.535244 245.514596 
" clip-path="url(#p7891e83dd2)" style="fill: none; stroke: #1f77b4; stroke-linecap: round"/>
        <path d="M 95.535244 248.401668 
L 94.654876 247.926337 
L 93.776969 247.446083 
L 92.926255 246.911442 
L 91.624081 246.223994 
L 92.551434 246.197979 
L 93.463108 245.78526 
L 94.373373 245.369721 
L 95.715868 244.762916 
L 95.06097 245.401668 
L 95.009005 246.401668 
L 94.949916 248.401668 
z
" clip-path="url(#p7891e83dd2)" style="fill: #ffffff; stroke: #ffffff; stroke-width: 3; stroke-linecap: round"/>
        <path d="M 95.535244 248.401668 
L 94.654876 247.926337 
L 93.776969 247.446083 
L 92.926255 246.911442 
L 91.624081 246.223994 
L 92.551434 246.197979 
L 93.463108 245.78526 
L 94.373373 245.369721 
L 95.715868 244.762916 
L 95.06097 245.401668 
L 95.009005 246.401668 
L 94.949916 248.401668 
z
" clip-path="url(#p7891e83dd2)" style="fill: #ffffff; stroke: #1f77b4; stroke-linecap: round"/>
        <g id="patch_8">
         <path d="M 301.837889 72.964375 
L 302.837889 72.995811 
L 303.837889 73.032752 
L 304.837889 73.130498 
L 305.837889 73.16302 
L 306.837889 73.236645 
L 307.837889 73.27521 
L 308.837889 73.310623 
L 309.837889 73.368263 
L 310.837889 73.438649 
L 311.837889 73.490614 
L 312.837889 73.549703 
L 313.837889 73.638024 
L 314.837889 73.684169 
L 315.837889 73.72658 
L 316.837889 73.757072 
L 317.837889 73.783117 
L 318.837889 73.804317 
L 319.837889 73.858618 
L 320.837889 73.886556 
L 321.837889 73.91628 
L 322.837889 73.941675 
L 323.837889 73.952875 
L 324.837889 73.962999 
L 325.837889 73.962795 
L 326.837889 73.953285 
L 327.837889 73.941631 
L 328.837889 73.910602 
L 329.837889 73.899434 
L 330.837889 73.869317 
L 331.837889 73.80954 
L 332.837889 73.772348 
L 333.837889 73.733252 
L 334.837889 73.690812 
L 335.837889 73.658047 
L 336.837889 73.590621 
L 337.837889 73.551495 
L 338.837889 73.50882 
L 339.837889 73.43824 
L 340.837889 73.401849 
L 341.837889 73.343446 
L 342.837889 73.232493 
L 343.837889 73.161835 
L 344.837889 73.048895 
L 345.837889 73.003122 
L 346.837889 72.941839 
L 347.837889 72.89334 
L 348.837889 72.812517 
L 349.837889 72.693998 
L 350.837889 72.623787 
L 351.837889 72.540525 
L 352.837889 72.507383 
L 353.837889 72.456146 
L 354.837889 72.387747 
L 355.837889 72.321532 
L 356.837889 72.244615 
L 357.837889 72.217299 
L 358.837889 72.190822 
L 359.837889 72.168171 
L 360.837889 72.14864 
L 361.837889 72.122246 
L 362.837889 72.072475 
L 363.837889 72.037402 
L 364.837889 72.001536 
L 365.837889 71.986169 
L 366.837889 71.9704 
L 367.837889 71.966987 
L 368.837889 71.96457 
L 369.837889 71.965056 
L 370.837889 71.966985 
L 371.837889 71.980242 
L 372.837889 71.988633 
L 373.837889 72.010169 
L 374.837889 72.033202 
L 375.837889 72.050435 
L 376.837889 72.068898 
L 377.837889 72.08935 
L 378.837889 72.10595 
L 379.837889 72.168729 
L 380.837889 72.243994 
L 381.837889 72.276633 
L 382.837889 72.344197 
L 383.837889 72.398244 
L 384.837889 72.431948 
L 385.837889 72.522074 
L 386.837889 72.550609 
L 387.837889 72.582095 
L 388.837889 72.613106 
L 389.837889 72.667914 
L 390.837889 72.732501 
L 391.837889 72.770697 
L 392.837889 72.866631 
L 393.837889 72.915889 
L 394.837889 72.959958 
L 395.837889 73.000082 
L 396.837889 73.108449 
L 397.837889 73.150077 
L 398.837889 73.212219 
L 399.837889 73.282181 
L 400.837889 73.386685 
L 401.837889 73.423673 
L 402.837889 73.46955 
L 403.837889 73.538045 
L 404.837889 73.586791 
L 405.837889 73.664388 
L 406.837889 73.694929 
L 407.837889 73.764443 
L 408.837889 73.788416 
L 409.837889 73.817038 
L 410.837889 73.858831 
L 411.837889 73.880407 
L 412.837889 73.894355 
L 413.837889 73.921077 
L 414.837889 73.930387 
L 415.837889 73.942834 
L 416.837889 73.953889 
L 417.837889 73.959553 
L 418.837889 73.964317 
L 419.837889 73.958769 
L 420.837889 73.945481 
L 421.837889 73.937964 
L 422.837889 73.913179 
L 423.837889 73.88961 
L 424.837889 73.85343 
L 425.837889 73.827468 
L 426.837889 73.805146 
L 427.837889 73.736386 
L 428.837889 73.661851 
L 429.837889 73.567872 
L 430.837889 73.51682 
L 431.837889 73.462886 
L 432.837889 73.427635 
L 433.837889 73.321547 
L 434.837889 73.269283 
L 435.837889 73.232376 
L 436.837889 73.201345 
L 437.837889 73.14019 
L 438.837889 73.07277 
L 439.837889 73.023864 
L 440.837889 72.958672 
L 441.837889 72.920484 
L 442.837889 72.878488 
L 443.837889 72.836471 
L 444.837889 72.776955 
L 445.837889 72.663795 
L 446.837889 72.611544 
L 447.837889 72.572126 
L 448.837889 72.525025 
L 449.837889 72.468245 
L 450.837889 72.435582 
L 451.837889 72.399404 
L 452.837889 72.367314 
L 453.837889 72.333034 
L 454.837889 72.274656 
L 455.837889 72.229471 
L 456.837889 72.199847 
L 457.837889 72.149461 
L 458.837889 72.124264 
L 459.837889 72.103213 
L 460.837889 72.068245 
L 461.837889 72.043955 
L 462.837889 72.029888 
L 463.837889 72.010946 
L 464.837889 71.995285 
L 465.837889 71.982733 
L 466.837889 71.976897 
L 467.837889 71.970015 
L 468.837889 71.964841 
L 469.837889 71.966624 
L 470.837889 71.969349 
L 471.837889 71.980503 
L 472.837889 72.008738 
L 473.837889 72.052526 
L 474.837889 72.073215 
L 475.837889 72.114188 
L 476.837889 72.154263 
L 477.837889 72.173373 
L 478.837889 72.195882 
L 479.837889 72.262533 
L 480.837889 72.312243 
L 481.837889 72.385949 
L 482.837889 72.417263 
L 483.837889 72.493885 
L 484.837889 72.532183 
L 485.837889 72.6063 
L 486.837889 72.710358 
L 487.837889 72.780189 
L 488.837889 72.885423 
L 489.837889 72.940438 
L 490.837889 73.063913 
L 491.837889 73.134472 
L 492.837889 73.250311 
L 493.837889 73.300492 
L 494.837889 73.336096 
L 495.837889 73.427503 
L 496.837889 73.481011 
L 497.837889 73.568919 
L 498.837889 73.638104 
L 499.837889 73.684868 
L 500.837889 73.756912 
L 501.837889 73.807054 
L 502.837889 73.824444 
L 503.837889 73.851447 
L 504.837889 73.870874 
L 505.837889 73.890212 
L 506.837889 73.928461 
L 507.837889 73.944894 
L 508.837889 73.953263 
L 509.837889 73.957582 
L 510.837889 73.964137 
L 511.837889 73.961591 
L 512.837889 73.956132 
L 513.837889 73.939704 
L 514.837889 73.907769 
L 515.837889 73.869789 
L 516.837889 73.834985 
L 517.837889 73.771913 
L 518.837889 73.750486 
L 519.837889 73.699868 
L 520.837889 73.674911 
L 521.837889 73.619277 
L 522.837889 73.588048 
L 523.837889 73.537904 
L 524.837889 73.505411 
L 525.837889 73.424999 
L 526.837889 73.356073 
L 527.837889 73.240376 
L 528.837889 73.164897 
L 529.837889 73.049372 
L 530.837889 72.969888 
L 531.837889 72.861447 
L 532.837889 72.822079 
L 533.837889 72.719211 
L 534.837889 72.619413 
L 535.837889 72.573916 
L 536.837889 72.539594 
L 537.837889 72.487638 
L 538.837889 72.447991 
L 539.837889 72.412477 
L 540.837889 72.344832 
L 541.837889 72.30575 
L 542.837889 72.255269 
L 543.837889 72.205963 
L 544.837889 72.154893 
L 545.837889 72.110654 
L 546.837889 72.088634 
L 547.837889 72.073078 
L 548.837889 72.030631 
L 549.837889 72.015763 
L 550.837889 71.993035 
L 551.837889 71.972719 
L 552.837889 71.966922 
L 553.837889 71.96444 
L 554.837889 71.967497 
L 555.837889 71.979093 
L 556.837889 71.996013 
L 557.837889 72.027674 
L 558.837889 72.041757 
L 559.837889 72.094429 
L 560.837889 72.143518 
L 561.837889 72.198219 
L 562.837889 72.242567 
L 563.837889 72.312559 
L 564.837889 72.362942 
L 565.837889 72.416849 
L 566.837889 72.486288 
L 567.837889 72.543676 
L 568.837889 72.593841 
L 569.837889 72.671003 
L 570.837889 72.729193 
L 571.837889 72.789831 
L 572.837889 72.827032 
L 573.886545 72.892124 
" clip-path="url(#p7891e83dd2)" style="fill: none; stroke: #ffffff; stroke-width: 3; stroke-linecap: round"/>
         <path d="M 301.837889 72.964375 
L 302.837889 72.995811 
L 303.837889 73.032752 
L 304.837889 73.130498 
L 305.837889 73.16302 
L 306.837889 73.236645 
L 307.837889 73.27521 
L 308.837889 73.310623 
L 309.837889 73.368263 
L 310.837889 73.438649 
L 311.837889 73.490614 
L 312.837889 73.549703 
L 313.837889 73.638024 
L 314.837889 73.684169 
L 315.837889 73.72658 
L 316.837889 73.757072 
L 317.837889 73.783117 
L 318.837889 73.804317 
L 319.837889 73.858618 
L 320.837889 73.886556 
L 321.837889 73.91628 
L 322.837889 73.941675 
L 323.837889 73.952875 
L 324.837889 73.962999 
L 325.837889 73.962795 
L 326.837889 73.953285 
L 327.837889 73.941631 
L 328.837889 73.910602 
L 329.837889 73.899434 
L 330.837889 73.869317 
L 331.837889 73.80954 
L 332.837889 73.772348 
L 333.837889 73.733252 
L 334.837889 73.690812 
L 335.837889 73.658047 
L 336.837889 73.590621 
L 337.837889 73.551495 
L 338.837889 73.50882 
L 339.837889 73.43824 
L 340.837889 73.401849 
L 341.837889 73.343446 
L 342.837889 73.232493 
L 343.837889 73.161835 
L 344.837889 73.048895 
L 345.837889 73.003122 
L 346.837889 72.941839 
L 347.837889 72.89334 
L 348.837889 72.812517 
L 349.837889 72.693998 
L 350.837889 72.623787 
L 351.837889 72.540525 
L 352.837889 72.507383 
L 353.837889 72.456146 
L 354.837889 72.387747 
L 355.837889 72.321532 
L 356.837889 72.244615 
L 357.837889 72.217299 
L 358.837889 72.190822 
L 359.837889 72.168171 
L 360.837889 72.14864 
L 361.837889 72.122246 
L 362.837889 72.072475 
L 363.837889 72.037402 
L 364.837889 72.001536 
L 365.837889 71.986169 
L 366.837889 71.9704 
L 367.837889 71.966987 
L 368.837889 71.96457 
L 369.837889 71.965056 
L 370.837889 71.966985 
L 371.837889 71.980242 
L 372.837889 71.988633 
L 373.837889 72.010169 
L 374.837889 72.033202 
L 375.837889 72.050435 
L 376.837889 72.068898 
L 377.837889 72.08935 
L 378.837889 72.10595 
L 379.837889 72.168729 
L 380.837889 72.243994 
L 381.837889 72.276633 
L 382.837889 72.344197 
L 383.837889 72.398244 
L 384.837889 72.431948 
L 385.837889 72.522074 
L 386.837889 72.550609 
L 387.837889 72.582095 
L 388.837889 72.613106 
L 389.837889 72.667914 
L 390.837889 72.732501 
L 391.837889 72.770697 
L 392.837889 72.866631 
L 393.837889 72.915889 
L 394.837889 72.959958 
L 395.837889 73.000082 
L 396.837889 73.108449 
L 397.837889 73.150077 
L 398.837889 73.212219 
L 399.837889 73.282181 
L 400.837889 73.386685 
L 401.837889 73.423673 
L 402.837889 73.46955 
L 403.837889 73.538045 
L 404.837889 73.586791 
L 405.837889 73.664388 
L 406.837889 73.694929 
L 407.837889 73.764443 
L 408.837889 73.788416 
L 409.837889 73.817038 
L 410.837889 73.858831 
L 411.837889 73.880407 
L 412.837889 73.894355 
L 413.837889 73.921077 
L 414.837889 73.930387 
L 415.837889 73.942834 
L 416.837889 73.953889 
L 417.837889 73.959553 
L 418.837889 73.964317 
L 419.837889 73.958769 
L 420.837889 73.945481 
L 421.837889 73.937964 
L 422.837889 73.913179 
L 423.837889 73.88961 
L 424.837889 73.85343 
L 425.837889 73.827468 
L 426.837889 73.805146 
L 427.837889 73.736386 
L 428.837889 73.661851 
L 429.837889 73.567872 
L 430.837889 73.51682 
L 431.837889 73.462886 
L 432.837889 73.427635 
L 433.837889 73.321547 
L 434.837889 73.269283 
L 435.837889 73.232376 
L 436.837889 73.201345 
L 437.837889 73.14019 
L 438.837889 73.07277 
L 439.837889 73.023864 
L 440.837889 72.958672 
L 441.837889 72.920484 
L 442.837889 72.878488 
L 443.837889 72.836471 
L 444.837889 72.776955 
L 445.837889 72.663795 
L 446.837889 72.611544 
L 447.837889 72.572126 
L 448.837889 72.525025 
L 449.837889 72.468245 
L 450.837889 72.435582 
L 451.837889 72.399404 
L 452.837889 72.367314 
L 453.837889 72.333034 
L 454.837889 72.274656 
L 455.837889 72.229471 
L 456.837889 72.199847 
L 457.837889 72.149461 
L 458.837889 72.124264 
L 459.837889 72.103213 
L 460.837889 72.068245 
L 461.837889 72.043955 
L 462.837889 72.029888 
L 463.837889 72.010946 
L 464.837889 71.995285 
L 465.837889 71.982733 
L 466.837889 71.976897 
L 467.837889 71.970015 
L 468.837889 71.964841 
L 469.837889 71.966624 
L 470.837889 71.969349 
L 471.837889 71.980503 
L 472.837889 72.008738 
L 473.837889 72.052526 
L 474.837889 72.073215 
L 475.837889 72.114188 
L 476.837889 72.154263 
L 477.837889 72.173373 
L 478.837889 72.195882 
L 479.837889 72.262533 
L 480.837889 72.312243 
L 481.837889 72.385949 
L 482.837889 72.417263 
L 483.837889 72.493885 
L 484.837889 72.532183 
L 485.837889 72.6063 
L 486.837889 72.710358 
L 487.837889 72.780189 
L 488.837889 72.885423 
L 489.837889 72.940438 
L 490.837889 73.063913 
L 491.837889 73.134472 
L 492.837889 73.250311 
L 493.837889 73.300492 
L 494.837889 73.336096 
L 495.837889 73.427503 
L 496.837889 73.481011 
L 497.837889 73.568919 
L 498.837889 73.638104 
L 499.837889 73.684868 
L 500.837889 73.756912 
L 501.837889 73.807054 
L 502.837889 73.824444 
L 503.837889 73.851447 
L 504.837889 73.870874 
L 505.837889 73.890212 
L 506.837889 73.928461 
L 507.837889 73.944894 
L 508.837889 73.953263 
L 509.837889 73.957582 
L 510.837889 73.964137 
L 511.837889 73.961591 
L 512.837889 73.956132 
L 513.837889 73.939704 
L 514.837889 73.907769 
L 515.837889 73.869789 
L 516.837889 73.834985 
L 517.837889 73.771913 
L 518.837889 73.750486 
L 519.837889 73.699868 
L 520.837889 73.674911 
L 521.837889 73.619277 
L 522.837889 73.588048 
L 523.837889 73.537904 
L 524.837889 73.505411 
L 525.837889 73.424999 
L 526.837889 73.356073 
L 527.837889 73.240376 
L 528.837889 73.164897 
L 529.837889 73.049372 
L 530.837889 72.969888 
L 531.837889 72.861447 
L 532.837889 72.822079 
L 533.837889 72.719211 
L 534.837889 72.619413 
L 535.837889 72.573916 
L 536.837889 72.539594 
L 537.837889 72.487638 
L 538.837889 72.447991 
L 539.837889 72.412477 
L 540.837889 72.344832 
L 541.837889 72.30575 
L 542.837889 72.255269 
L 543.837889 72.205963 
L 544.837889 72.154893 
L 545.837889 72.110654 
L 546.837889 72.088634 
L 547.837889 72.073078 
L 548.837889 72.030631 
L 549.837889 72.015763 
L 550.837889 71.993035 
L 551.837889 71.972719 
L 552.837889 71.966922 
L 553.837889 71.96444 
L 554.837889 71.967497 
L 555.837889 71.979093 
L 556.837889 71.996013 
L 557.837889 72.027674 
L 558.837889 72.041757 
L 559.837889 72.094429 
L 560.837889 72.143518 
L 561.837889 72.198219 
L 562.837889 72.242567 
L 563.837889 72.312559 
L 564.837889 72.362942 
L 565.837889 72.416849 
L 566.837889 72.486288 
L 567.837889 72.543676 
L 568.837889 72.593841 
L 569.837889 72.671003 
L 570.837889 72.729193 
L 571.837889 72.789831 
L 572.837889 72.827032 
L 573.886545 72.892124 
" clip-path="url(#p7891e83dd2)" style="fill: none; stroke: #1f77b4; stroke-linecap: round"/>
         <path d="M 569.886545 70.964375 
L 570.766914 71.439706 
L 571.644821 71.91996 
L 572.495534 72.454601 
L 573.797709 73.142048 
L 572.870355 73.168063 
L 571.958681 73.580783 
L 571.048417 73.996322 
L 569.705921 74.603126 
L 570.36082 73.964375 
L 570.412784 72.964375 
L 570.471874 70.964375 
z
" clip-path="url(#p7891e83dd2)" style="fill: #ffffff; stroke: #ffffff; stroke-width: 3; stroke-linecap: round"/>
         <path d="M 569.886545 70.964375 
L 570.766914 71.439706 
L 571.644821 71.91996 
L 572.495534 72.454601 
L 573.797709 73.142048 
L 572.870355 73.168063 
L 571.958681 73.580783 
L 571.048417 73.996322 
L 569.705921 74.603126 
L 570.36082 73.964375 
L 570.412784 72.964375 
L 570.471874 70.964375 
z
" clip-path="url(#p7891e83dd2)" style="fill: #ffffff; stroke: #1f77b4; stroke-linecap: round"/>
         <g id="patch_9">
          <path d="M 90.422075 258.455515 
L 91.422075 258.486951 
L 92.422075 258.523891 
L 93.422075 258.621638 
L 94.422075 258.654159 
L 95.422075 258.727784 
L 96.422075 258.76635 
L 97.422075 258.801763 
L 98.422075 258.859403 
L 99.422075 258.929789 
L 100.422075 258.981753 
L 101.422075 259.040843 
L 102.422075 259.129164 
L 103.422075 259.175308 
L 104.422075 259.217719 
L 105.422075 259.248212 
L 106.422075 259.274257 
L 107.422075 259.295457 
L 108.422075 259.349758 
L 109.422075 259.377696 
L 110.422075 259.40742 
L 111.422075 259.432814 
L 112.422075 259.444015 
L 113.422075 259.454139 
L 114.422075 259.453934 
L 115.422075 259.444425 
L 116.422075 259.432771 
L 117.422075 259.401742 
L 118.422075 259.390574 
L 119.422075 259.360456 
L 120.422075 259.300679 
L 121.422075 259.263488 
L 122.422075 259.224392 
L 123.422075 259.181952 
L 124.422075 259.149187 
L 125.422075 259.08176 
L 126.422075 259.042635 
L 127.422075 258.99996 
L 128.422075 258.929379 
L 129.422075 258.892989 
L 130.422075 258.834585 
L 131.422075 258.723633 
L 132.422075 258.652974 
L 133.422075 258.540035 
L 134.422075 258.494262 
L 135.422075 258.432979 
L 136.422075 258.384479 
L 137.422075 258.303657 
L 138.422075 258.185138 
L 139.422075 258.114927 
L 140.422075 258.031664 
L 141.422075 257.998523 
L 142.422075 257.947285 
L 143.422075 257.878887 
L 144.422075 257.812672 
L 145.422075 257.735755 
L 146.422075 257.708439 
L 147.422075 257.681962 
L 148.422075 257.659311 
L 149.422075 257.63978 
L 150.422075 257.613386 
L 151.422075 257.563615 
L 152.422075 257.528542 
L 153.422075 257.492676 
L 154.422075 257.477309 
L 155.422075 257.46154 
L 156.422075 257.458127 
L 157.422075 257.455709 
L 158.422075 257.456195 
L 159.422075 257.458125 
L 160.422075 257.471382 
L 161.422075 257.479772 
L 162.422075 257.501309 
L 163.422075 257.524341 
L 164.422075 257.541575 
L 165.422075 257.560037 
L 166.422075 257.58049 
L 167.422075 257.59709 
L 168.422075 257.659868 
L 169.422075 257.735133 
L 170.422075 257.767773 
L 171.422075 257.835336 
L 172.422075 257.889383 
L 173.422075 257.923088 
L 174.422075 258.013214 
L 175.422075 258.041749 
L 176.422075 258.073235 
L 177.422075 258.104246 
L 178.422075 258.159054 
L 179.422075 258.223641 
L 180.422075 258.261836 
L 181.422075 258.35777 
L 182.422075 258.407028 
L 183.422075 258.451098 
L 184.422075 258.491222 
L 185.422075 258.599589 
L 186.422075 258.641217 
L 187.422075 258.703358 
L 188.422075 258.773321 
L 189.422075 258.877825 
L 190.422075 258.914812 
L 191.422075 258.96069 
L 192.422075 259.029184 
L 193.422075 259.07793 
L 194.422075 259.155528 
L 195.422075 259.186068 
L 196.422075 259.255583 
L 197.422075 259.279556 
L 198.422075 259.308177 
L 199.422075 259.349971 
L 200.422075 259.371546 
L 201.422075 259.385494 
L 202.422075 259.412217 
L 203.422075 259.421527 
L 204.422075 259.433973 
L 205.422075 259.445028 
L 206.422075 259.450693 
L 207.422075 259.455457 
L 208.422075 259.449909 
L 209.422075 259.436621 
L 210.422075 259.429103 
L 211.422075 259.404319 
L 212.422075 259.38075 
L 213.422075 259.344569 
L 214.422075 259.318607 
L 215.422075 259.296286 
L 216.422075 259.227526 
L 217.422075 259.152991 
L 218.422075 259.059011 
L 219.422075 259.007959 
L 220.422075 258.954026 
L 221.422075 258.918775 
L 222.422075 258.812687 
L 223.422075 258.760423 
L 224.422075 258.723516 
L 225.422075 258.692485 
L 226.422075 258.63133 
L 227.422075 258.56391 
L 228.422075 258.515004 
L 229.422075 258.449811 
L 230.422075 258.411624 
L 231.422075 258.369628 
L 232.422075 258.327611 
L 233.422075 258.268094 
L 234.422075 258.154934 
L 235.422075 258.102684 
L 236.422075 258.063266 
L 237.422075 258.016164 
L 238.422075 257.959385 
L 239.422075 257.926722 
L 240.422075 257.890544 
L 241.422075 257.858453 
L 242.422075 257.824174 
L 243.422075 257.765796 
L 244.422075 257.720611 
L 245.422075 257.690987 
L 246.422075 257.640601 
L 247.422075 257.615403 
L 248.422075 257.594352 
L 249.422075 257.559385 
L 250.422075 257.535095 
L 251.422075 257.521028 
L 252.422075 257.502086 
L 253.422075 257.486424 
L 254.422075 257.473872 
L 255.422075 257.468037 
L 256.422075 257.461154 
L 257.422075 257.455981 
L 258.422075 257.457763 
L 259.422075 257.460489 
L 260.422075 257.471642 
L 261.422075 257.499878 
L 262.422075 257.543665 
L 263.422075 257.564355 
L 264.422075 257.605328 
L 265.422075 257.645403 
L 266.422075 257.664513 
L 267.422075 257.687021 
L 268.422075 257.753673 
L 269.422075 257.803382 
L 270.422075 257.877089 
L 271.422075 257.908403 
L 272.422075 257.985025 
L 273.422075 258.023323 
L 274.422075 258.09744 
L 275.422075 258.201498 
L 276.422075 258.271329 
L 277.422075 258.376562 
L 278.422075 258.431578 
L 279.422075 258.555053 
L 280.422075 258.625612 
L 281.422075 258.741451 
L 282.422075 258.791632 
L 283.422075 258.827236 
L 284.422075 258.918642 
L 285.422075 258.97215 
L 286.422075 259.060059 
L 287.422075 259.129244 
L 288.422075 259.176008 
L 289.422075 259.248052 
L 290.422075 259.298194 
L 291.422075 259.315583 
L 292.422075 259.342587 
L 293.422075 259.362014 
L 294.422075 259.381352 
L 295.422075 259.4196 
L 296.422075 259.436034 
L 297.422075 259.444403 
L 298.422075 259.448722 
L 299.422075 259.455277 
L 300.422075 259.45273 
L 301.422075 259.447272 
L 302.422075 259.430843 
L 303.422075 259.398909 
L 304.422075 259.360928 
L 305.422075 259.326124 
L 306.422075 259.263053 
L 307.422075 259.241626 
L 308.422075 259.191008 
L 309.422075 259.16605 
L 310.422075 259.110417 
L 311.422075 259.079188 
L 312.422075 259.029044 
L 313.422075 258.996551 
L 314.422075 258.916138 
L 315.422075 258.847213 
L 316.422075 258.731515 
L 317.422075 258.656037 
L 318.422075 258.540512 
L 319.422075 258.461027 
L 320.422075 258.352586 
L 321.422075 258.313219 
L 322.422075 258.210351 
L 323.422075 258.110553 
L 324.422075 258.065056 
L 325.422075 258.030733 
L 326.422075 257.978778 
L 327.422075 257.939131 
L 328.422075 257.903617 
L 329.422075 257.835971 
L 330.422075 257.79689 
L 331.422075 257.746408 
L 332.422075 257.697102 
L 333.422075 257.646033 
L 334.422075 257.601794 
L 335.422075 257.579774 
L 336.422075 257.564217 
L 337.422075 257.521771 
L 338.422075 257.506903 
L 339.422075 257.484175 
L 340.422075 257.463859 
L 341.422075 257.458062 
L 342.422075 257.455579 
L 343.422075 257.458637 
L 344.422075 257.470232 
L 345.422075 257.487153 
L 346.422075 257.518814 
L 347.422075 257.532897 
L 348.422075 257.585569 
L 349.422075 257.634658 
L 350.422075 257.689359 
L 351.422075 257.733707 
L 352.422075 257.803699 
L 353.422075 257.854081 
L 354.422075 257.907988 
L 355.422075 257.977428 
L 356.422075 258.034815 
L 357.422075 258.084981 
L 358.422075 258.162142 
L 359.422075 258.220332 
L 360.422075 258.280971 
L 361.422075 258.318172 
L 362.422075 258.383263 
L 363.422075 258.488393 
L 364.422075 258.548695 
L 365.422075 258.645017 
L 366.422075 258.67702 
L 367.422075 258.728038 
L 368.422075 258.84483 
L 369.422075 258.880276 
L 370.422075 258.936157 
L 371.422075 258.966532 
L 372.422075 259.054918 
L 373.422075 259.099683 
L 374.422075 259.180571 
L 375.422075 259.240717 
L 376.422075 259.303803 
L 377.422075 259.326751 
L 378.422075 259.342921 
L 379.422075 259.37185 
L 380.422075 259.402201 
L 381.422075 259.414776 
L 382.422075 259.439655 
L 383.422075 259.451739 
L 384.422075 259.455501 
L 385.422075 259.451065 
L 386.422075 259.438726 
L 387.422075 259.424313 
L 388.422075 259.40824 
L 389.422075 259.372718 
L 390.422075 259.352784 
L 391.422075 259.296195 
L 392.422075 259.229002 
L 393.422075 259.201631 
L 394.422075 259.167484 
L 395.422075 259.118803 
L 396.422075 259.070519 
L 397.422075 259.011441 
L 398.422075 258.915837 
L 399.422075 258.872696 
L 400.422075 258.822849 
L 401.422075 258.764314 
L 402.422075 258.716728 
L 403.422075 258.655601 
L 404.422075 258.599515 
L 405.422075 258.525345 
L 406.422075 258.408107 
L 407.422075 258.352383 
L 408.422075 258.244157 
L 409.422075 258.138007 
L 410.422075 258.030434 
L 411.422075 257.995927 
L 412.422075 257.892619 
L 413.422075 257.816895 
L 414.422075 257.77746 
L 415.422075 257.738077 
L 416.422075 257.715594 
L 417.422075 257.659781 
L 418.422075 257.63373 
L 419.422075 257.603495 
L 420.422075 257.552723 
L 421.422075 257.534072 
L 422.422075 257.512364 
L 423.422075 257.499718 
L 424.422075 257.480725 
L 425.422075 257.463335 
L 426.422075 257.456296 
L 427.422075 257.457321 
L 428.422075 257.464325 
L 429.422075 257.473695 
L 430.422075 257.497092 
L 431.422075 257.522176 
L 432.422075 257.534574 
L 433.422075 257.567667 
L 434.69603 257.584035 
" clip-path="url(#p7891e83dd2)" style="fill: none; stroke: #ffffff; stroke-width: 3; stroke-linecap: round"/>
          <path d="M 90.422075 258.455515 
L 91.422075 258.486951 
L 92.422075 258.523891 
L 93.422075 258.621638 
L 94.422075 258.654159 
L 95.422075 258.727784 
L 96.422075 258.76635 
L 97.422075 258.801763 
L 98.422075 258.859403 
L 99.422075 258.929789 
L 100.422075 258.981753 
L 101.422075 259.040843 
L 102.422075 259.129164 
L 103.422075 259.175308 
L 104.422075 259.217719 
L 105.422075 259.248212 
L 106.422075 259.274257 
L 107.422075 259.295457 
L 108.422075 259.349758 
L 109.422075 259.377696 
L 110.422075 259.40742 
L 111.422075 259.432814 
L 112.422075 259.444015 
L 113.422075 259.454139 
L 114.422075 259.453934 
L 115.422075 259.444425 
L 116.422075 259.432771 
L 117.422075 259.401742 
L 118.422075 259.390574 
L 119.422075 259.360456 
L 120.422075 259.300679 
L 121.422075 259.263488 
L 122.422075 259.224392 
L 123.422075 259.181952 
L 124.422075 259.149187 
L 125.422075 259.08176 
L 126.422075 259.042635 
L 127.422075 258.99996 
L 128.422075 258.929379 
L 129.422075 258.892989 
L 130.422075 258.834585 
L 131.422075 258.723633 
L 132.422075 258.652974 
L 133.422075 258.540035 
L 134.422075 258.494262 
L 135.422075 258.432979 
L 136.422075 258.384479 
L 137.422075 258.303657 
L 138.422075 258.185138 
L 139.422075 258.114927 
L 140.422075 258.031664 
L 141.422075 257.998523 
L 142.422075 257.947285 
L 143.422075 257.878887 
L 144.422075 257.812672 
L 145.422075 257.735755 
L 146.422075 257.708439 
L 147.422075 257.681962 
L 148.422075 257.659311 
L 149.422075 257.63978 
L 150.422075 257.613386 
L 151.422075 257.563615 
L 152.422075 257.528542 
L 153.422075 257.492676 
L 154.422075 257.477309 
L 155.422075 257.46154 
L 156.422075 257.458127 
L 157.422075 257.455709 
L 158.422075 257.456195 
L 159.422075 257.458125 
L 160.422075 257.471382 
L 161.422075 257.479772 
L 162.422075 257.501309 
L 163.422075 257.524341 
L 164.422075 257.541575 
L 165.422075 257.560037 
L 166.422075 257.58049 
L 167.422075 257.59709 
L 168.422075 257.659868 
L 169.422075 257.735133 
L 170.422075 257.767773 
L 171.422075 257.835336 
L 172.422075 257.889383 
L 173.422075 257.923088 
L 174.422075 258.013214 
L 175.422075 258.041749 
L 176.422075 258.073235 
L 177.422075 258.104246 
L 178.422075 258.159054 
L 179.422075 258.223641 
L 180.422075 258.261836 
L 181.422075 258.35777 
L 182.422075 258.407028 
L 183.422075 258.451098 
L 184.422075 258.491222 
L 185.422075 258.599589 
L 186.422075 258.641217 
L 187.422075 258.703358 
L 188.422075 258.773321 
L 189.422075 258.877825 
L 190.422075 258.914812 
L 191.422075 258.96069 
L 192.422075 259.029184 
L 193.422075 259.07793 
L 194.422075 259.155528 
L 195.422075 259.186068 
L 196.422075 259.255583 
L 197.422075 259.279556 
L 198.422075 259.308177 
L 199.422075 259.349971 
L 200.422075 259.371546 
L 201.422075 259.385494 
L 202.422075 259.412217 
L 203.422075 259.421527 
L 204.422075 259.433973 
L 205.422075 259.445028 
L 206.422075 259.450693 
L 207.422075 259.455457 
L 208.422075 259.449909 
L 209.422075 259.436621 
L 210.422075 259.429103 
L 211.422075 259.404319 
L 212.422075 259.38075 
L 213.422075 259.344569 
L 214.422075 259.318607 
L 215.422075 259.296286 
L 216.422075 259.227526 
L 217.422075 259.152991 
L 218.422075 259.059011 
L 219.422075 259.007959 
L 220.422075 258.954026 
L 221.422075 258.918775 
L 222.422075 258.812687 
L 223.422075 258.760423 
L 224.422075 258.723516 
L 225.422075 258.692485 
L 226.422075 258.63133 
L 227.422075 258.56391 
L 228.422075 258.515004 
L 229.422075 258.449811 
L 230.422075 258.411624 
L 231.422075 258.369628 
L 232.422075 258.327611 
L 233.422075 258.268094 
L 234.422075 258.154934 
L 235.422075 258.102684 
L 236.422075 258.063266 
L 237.422075 258.016164 
L 238.422075 257.959385 
L 239.422075 257.926722 
L 240.422075 257.890544 
L 241.422075 257.858453 
L 242.422075 257.824174 
L 243.422075 257.765796 
L 244.422075 257.720611 
L 245.422075 257.690987 
L 246.422075 257.640601 
L 247.422075 257.615403 
L 248.422075 257.594352 
L 249.422075 257.559385 
L 250.422075 257.535095 
L 251.422075 257.521028 
L 252.422075 257.502086 
L 253.422075 257.486424 
L 254.422075 257.473872 
L 255.422075 257.468037 
L 256.422075 257.461154 
L 257.422075 257.455981 
L 258.422075 257.457763 
L 259.422075 257.460489 
L 260.422075 257.471642 
L 261.422075 257.499878 
L 262.422075 257.543665 
L 263.422075 257.564355 
L 264.422075 257.605328 
L 265.422075 257.645403 
L 266.422075 257.664513 
L 267.422075 257.687021 
L 268.422075 257.753673 
L 269.422075 257.803382 
L 270.422075 257.877089 
L 271.422075 257.908403 
L 272.422075 257.985025 
L 273.422075 258.023323 
L 274.422075 258.09744 
L 275.422075 258.201498 
L 276.422075 258.271329 
L 277.422075 258.376562 
L 278.422075 258.431578 
L 279.422075 258.555053 
L 280.422075 258.625612 
L 281.422075 258.741451 
L 282.422075 258.791632 
L 283.422075 258.827236 
L 284.422075 258.918642 
L 285.422075 258.97215 
L 286.422075 259.060059 
L 287.422075 259.129244 
L 288.422075 259.176008 
L 289.422075 259.248052 
L 290.422075 259.298194 
L 291.422075 259.315583 
L 292.422075 259.342587 
L 293.422075 259.362014 
L 294.422075 259.381352 
L 295.422075 259.4196 
L 296.422075 259.436034 
L 297.422075 259.444403 
L 298.422075 259.448722 
L 299.422075 259.455277 
L 300.422075 259.45273 
L 301.422075 259.447272 
L 302.422075 259.430843 
L 303.422075 259.398909 
L 304.422075 259.360928 
L 305.422075 259.326124 
L 306.422075 259.263053 
L 307.422075 259.241626 
L 308.422075 259.191008 
L 309.422075 259.16605 
L 310.422075 259.110417 
L 311.422075 259.079188 
L 312.422075 259.029044 
L 313.422075 258.996551 
L 314.422075 258.916138 
L 315.422075 258.847213 
L 316.422075 258.731515 
L 317.422075 258.656037 
L 318.422075 258.540512 
L 319.422075 258.461027 
L 320.422075 258.352586 
L 321.422075 258.313219 
L 322.422075 258.210351 
L 323.422075 258.110553 
L 324.422075 258.065056 
L 325.422075 258.030733 
L 326.422075 257.978778 
L 327.422075 257.939131 
L 328.422075 257.903617 
L 329.422075 257.835971 
L 330.422075 257.79689 
L 331.422075 257.746408 
L 332.422075 257.697102 
L 333.422075 257.646033 
L 334.422075 257.601794 
L 335.422075 257.579774 
L 336.422075 257.564217 
L 337.422075 257.521771 
L 338.422075 257.506903 
L 339.422075 257.484175 
L 340.422075 257.463859 
L 341.422075 257.458062 
L 342.422075 257.455579 
L 343.422075 257.458637 
L 344.422075 257.470232 
L 345.422075 257.487153 
L 346.422075 257.518814 
L 347.422075 257.532897 
L 348.422075 257.585569 
L 349.422075 257.634658 
L 350.422075 257.689359 
L 351.422075 257.733707 
L 352.422075 257.803699 
L 353.422075 257.854081 
L 354.422075 257.907988 
L 355.422075 257.977428 
L 356.422075 258.034815 
L 357.422075 258.084981 
L 358.422075 258.162142 
L 359.422075 258.220332 
L 360.422075 258.280971 
L 361.422075 258.318172 
L 362.422075 258.383263 
L 363.422075 258.488393 
L 364.422075 258.548695 
L 365.422075 258.645017 
L 366.422075 258.67702 
L 367.422075 258.728038 
L 368.422075 258.84483 
L 369.422075 258.880276 
L 370.422075 258.936157 
L 371.422075 258.966532 
L 372.422075 259.054918 
L 373.422075 259.099683 
L 374.422075 259.180571 
L 375.422075 259.240717 
L 376.422075 259.303803 
L 377.422075 259.326751 
L 378.422075 259.342921 
L 379.422075 259.37185 
L 380.422075 259.402201 
L 381.422075 259.414776 
L 382.422075 259.439655 
L 383.422075 259.451739 
L 384.422075 259.455501 
L 385.422075 259.451065 
L 386.422075 259.438726 
L 387.422075 259.424313 
L 388.422075 259.40824 
L 389.422075 259.372718 
L 390.422075 259.352784 
L 391.422075 259.296195 
L 392.422075 259.229002 
L 393.422075 259.201631 
L 394.422075 259.167484 
L 395.422075 259.118803 
L 396.422075 259.070519 
L 397.422075 259.011441 
L 398.422075 258.915837 
L 399.422075 258.872696 
L 400.422075 258.822849 
L 401.422075 258.764314 
L 402.422075 258.716728 
L 403.422075 258.655601 
L 404.422075 258.599515 
L 405.422075 258.525345 
L 406.422075 258.408107 
L 407.422075 258.352383 
L 408.422075 258.244157 
L 409.422075 258.138007 
L 410.422075 258.030434 
L 411.422075 257.995927 
L 412.422075 257.892619 
L 413.422075 257.816895 
L 414.422075 257.77746 
L 415.422075 257.738077 
L 416.422075 257.715594 
L 417.422075 257.659781 
L 418.422075 257.63373 
L 419.422075 257.603495 
L 420.422075 257.552723 
L 421.422075 257.534072 
L 422.422075 257.512364 
L 423.422075 257.499718 
L 424.422075 257.480725 
L 425.422075 257.463335 
L 426.422075 257.456296 
L 427.422075 257.457321 
L 428.422075 257.464325 
L 429.422075 257.473695 
L 430.422075 257.497092 
L 431.422075 257.522176 
L 432.422075 257.534574 
L 433.422075 257.567667 
L 434.69603 257.584035 
" clip-path="url(#p7891e83dd2)" style="fill: none; stroke: #ff7f0e; stroke-linecap: round"/>
          <path d="M 430.69603 256.455515 
L 431.576399 256.930846 
L 432.454306 257.4111 
L 433.305019 257.945741 
L 434.607194 258.633188 
L 433.67984 258.659203 
L 432.768166 259.071922 
L 431.857902 259.487461 
L 430.515406 260.094266 
L 431.170305 259.455515 
L 431.222269 258.455515 
L 431.281359 256.455515 
z
" clip-path="url(#p7891e83dd2)" style="fill: #ffffff; stroke: #ffffff; stroke-width: 3; stroke-linecap: round"/>
          <path d="M 430.69603 256.455515 
L 431.576399 256.930846 
L 432.454306 257.4111 
L 433.305019 257.945741 
L 434.607194 258.633188 
L 433.67984 258.659203 
L 432.768166 259.071922 
L 431.857902 259.487461 
L 430.515406 260.094266 
L 431.170305 259.455515 
L 431.222269 258.455515 
L 431.281359 256.455515 
z
" clip-path="url(#p7891e83dd2)" style="fill: #ffffff; stroke: #ff7f0e; stroke-linecap: round"/>
          <path d="M 443.793705 291.990127 
" clip-path="url(#p7891e83dd2)" style="fill: none; stroke-dasharray: 3.7,1.6; stroke-dashoffset: 0; stroke: #2ca02c"/>
          <path d="M 442.793705 291.990127 
L 444.793705 292.990127 
L 444.793705 290.990127 
z
" clip-path="url(#p7891e83dd2)" style="fill: #2ca02c; stroke: #2ca02c; stroke-linejoin: miter"/>
          <g id="patch_10">
           <path d="M 63.290625 321.621875 
L 63.290625 10.8 
" style="fill: none; stroke: #000000; stroke-width: 0.8; stroke-linejoin: miter; stroke-linecap: square"/>
          </g>
          <g id="text_14">
           <g id="patch_11">
            <path d="M 287.529449 135.439896 
L 308.834137 135.439896 
Q 310.834137 135.439896 310.834137 133.439896 
L 310.834137 123.761771 
Q 310.834137 121.761771 308.834137 121.761771 
L 287.529449 121.761771 
Q 285.529449 121.761771 285.529449 123.761771 
L 285.529449 133.439896 
Q 285.529449 135.439896 287.529449 135.439896 
z
" style="fill: #ffffff; opacity: 0.6"/>
           </g>
           <!-- ANC -->
           <g transform="translate(287.529449 131.360209) scale(0.1 -0.1)">
            <defs>
             <path id="DejaVuSans-4e" d="M 628 4666 
L 1478 4666 
L 3547 763 
L 3547 4666 
L 4159 4666 
L 4159 0 
L 3309 0 
L 1241 3903 
L 1241 0 
L 628 0 
L 628 4666 
z
" transform="scale(0.015625)"/>
            </defs>
            <use xlink:href="#DejaVuSans-41"/>
            <use xlink:href="#DejaVuSans-4e" x="68.408203"/>
            <use xlink:href="#DejaVuSans-43" x="143.212891"/>
           </g>
          </g>
         </g>
        </g>
        <defs>
         <clipPath id="p7891e83dd2">
          <rect x="63.290625" y="10.8" width="540.309375" height="310.821875"/>
         </clipPath>
        </defs>
       </g>
      </g>
     </g>
    </g>
   </g>
  </g>
 </g>
</svg>
