<?xml version="1.0" encoding="utf-8" standalone="no"?>
<!DOCTYPE svg PUBLIC "-//W3C//DTD SVG 1.1//EN"
  "http://www.w3.org/Graphics/SVG/1.1/DTD/svg11.dtd">
<svg xmlns:xlink="http://www.w3.org/1999/xlink" width="614.4pt" height="345.6pt" viewBox="0 0 614.4 345.6" xmlns="http://www.w3.org/2000/svg" version="1.1">
 <metadata>
  <rdf:RDF xmlns:dc="http://purl.org/dc/elements/1.1/" xmlns:cc="http://creativecommons.org/ns#" xmlns:rdf="http://www.w3.org/1999/02/22-rdf-syntax-ns#">
   <cc:Work>
    <dc:type rdf:resource="http://purl.org/dc/dcmitype/StillImage"/>
    <dc:date>2024-04-17T19:40:02.635231</dc:date>
    <dc:format>image/svg+xml</dc:format>
    <dc:creator>
     <cc:Agent>
      <dc:title>Matplotlib v3.7.1, https://matplotlib.org/</dc:title>
     </cc:Agent>
    </dc:creator>
   </cc:Work>
  </rdf:RDF>
 </metadata>
 <defs>
  <style type="text/css">*{stroke-linejoin: round; stroke-linecap: butt}</style>
 </defs>
 <g id="figure_1">
  <g id="patch_1">
   <path d="M 0 345.6 
L 614.4 345.6 
L 614.4 0 
L 0 0 
z
" style="fill: #ffffff"/>
  </g>
  <g id="axes_1">
   <g id="patch_2">
    <path d="M 63.290625 321.621875 
L 603.6 321.621875 
L 603.6 10.8 
L 63.290625 10.8 
z
" style="fill: #ffffff"/>
   </g>
   <path d="M 556.337885 301.811512 
L 555.337885 301.780075 
L 554.337885 301.743135 
L 553.337885 301.645388 
L 552.337885 301.612867 
L 551.337885 301.539242 
L 550.337885 301.500677 
L 549.337885 301.465263 
L 548.337885 301.407624 
L 547.337885 301.337237 
L 546.337885 301.285273 
L 545.337885 301.226183 
L 544.337885 301.137862 
L 543.337885 301.091718 
L 542.337885 301.049307 
L 541.337885 301.018814 
L 540.337885 300.99277 
L 539.337885 300.971569 
L 538.337885 300.917268 
L 537.337885 300.889331 
L 536.337885 300.859607 
L 535.337885 300.834212 
L 534.337885 300.823012 
L 533.337885 300.812888 
L 532.337885 300.813092 
L 531.337885 300.822602 
L 530.337885 300.834255 
L 529.337885 300.865285 
L 528.337885 300.876453 
L 527.337885 300.90657 
L 526.337885 300.966347 
L 525.337885 301.003539 
L 524.337885 301.042635 
L 523.337885 301.085074 
L 522.337885 301.117839 
L 521.337885 301.185266 
L 520.337885 301.224392 
L 519.337885 301.267066 
L 518.337885 301.337647 
L 517.337885 301.374038 
L 516.337885 301.432441 
L 515.337885 301.543394 
L 514.337885 301.614052 
L 513.337885 301.726992 
L 512.337885 301.772765 
L 511.337885 301.834048 
L 510.337885 301.882547 
L 509.337885 301.96337 
L 508.337885 302.081889 
L 507.337885 302.152099 
L 506.337885 302.235362 
L 505.337885 302.268504 
L 504.337885 302.319741 
L 503.337885 302.388139 
L 502.337885 302.454355 
L 501.337885 302.531272 
L 500.337885 302.558587 
L 499.337885 302.585065 
L 498.337885 302.607715 
L 497.337885 302.627247 
L 496.337885 302.653641 
L 495.337885 302.703412 
L 494.337885 302.738485 
L 493.337885 302.77435 
L 492.337885 302.789718 
L 491.337885 302.805487 
L 490.337885 302.808899 
L 489.337885 302.811317 
L 488.337885 302.810831 
L 487.337885 302.808902 
L 486.337885 302.795645 
L 485.337885 302.787254 
L 484.337885 302.765717 
L 483.337885 302.742685 
L 482.337885 302.725451 
L 481.337885 302.706989 
L 480.337885 302.686537 
L 479.337885 302.669937 
L 478.337885 302.607158 
L 477.337885 302.531893 
L 476.337885 302.499254 
L 475.337885 302.43169 
L 474.337885 302.377643 
L 473.337885 302.343939 
L 472.337885 302.253813 
L 471.337885 302.225278 
L 470.337885 302.193792 
L 469.337885 302.162781 
L 468.337885 302.107973 
L 467.337885 302.043385 
L 466.337885 302.00519 
L 465.337885 301.909256 
L 464.337885 301.859998 
L 463.337885 301.815928 
L 462.337885 301.775805 
L 461.337885 301.667438 
L 460.337885 301.62581 
L 459.337885 301.563668 
L 458.337885 301.493706 
L 457.337885 301.389201 
L 456.337885 301.352214 
L 455.337885 301.306337 
L 454.337885 301.237842 
L 453.337885 301.189096 
L 452.337885 301.111499 
L 451.282543 301.080958 
" clip-path="url(#p1d0811de3a)" style="fill: none; stroke-dasharray: 3.7,1.6; stroke-dashoffset: 0; stroke: #2ca02c"/>
   <g id="patch_3">
    <path d="M 264.334369 10.8 
L 264.334369 147.848909 
M 360.261737 10.8 
L 360.261737 147.848909 
" clip-path="url(#p1d0811de3a)" style="fill: none; stroke: #ffffff; stroke-width: 3; stroke-linejoin: miter"/>
    <path d="M 264.334369 10.8 
L 264.334369 147.848909 
M 360.261737 10.8 
L 360.261737 147.848909 
" clip-path="url(#p1d0811de3a)" style="fill: none; stroke: #1f77b4; stroke-linejoin: miter"/>
    <g id="PolyCollection_1">
     <path d="M 360.261737 10.8 
L 264.334369 10.8 
L 264.334369 147.848909 
L 360.261737 147.848909 
L 360.261737 147.848909 
L 360.261737 10.8 
z
" clip-path="url(#p1d0811de3a)" style="fill: #1f77b4; fill-opacity: 0.5"/>
    </g>
    <g id="patch_4">
     <path d="M 115.569768 147.848909 
L 115.496181 309.842242 
L 114.467298 311.284646 
L 113.238804 312.60685 
L 111.817152 313.808853 
L 110.027342 315.010857 
L 108.023422 316.09266 
L 105.557992 317.174463 
L 102.524763 318.256266 
L 98.792971 319.338069 
L 94.201733 320.419872 
L 88.553116 321.501675 
L 87.850142 321.621875 
M 121.887321 147.848909 
L 121.960909 309.842242 
L 122.989792 311.284646 
L 124.218285 312.60685 
L 125.639937 313.808853 
L 127.429748 315.010857 
L 129.433668 316.09266 
L 131.899098 317.174463 
L 134.932326 318.256266 
L 138.664118 319.338069 
L 143.255356 320.419872 
L 148.903974 321.501675 
L 149.606947 321.621875 
L 149.606947 321.621875 
" clip-path="url(#p1d0811de3a)" style="fill: none; stroke: #ffffff; stroke-width: 3; stroke-linejoin: miter"/>
     <path d="M 115.569768 147.848909 
L 115.496181 309.842242 
L 114.467298 311.284646 
L 113.238804 312.60685 
L 111.817152 313.808853 
L 110.027342 315.010857 
L 108.023422 316.09266 
L 105.557992 317.174463 
L 102.524763 318.256266 
L 98.792971 319.338069 
L 94.201733 320.419872 
L 88.553116 321.501675 
L 87.850142 321.621875 
M 121.887321 147.848909 
L 121.960909 309.842242 
L 122.989792 311.284646 
L 124.218285 312.60685 
L 125.639937 313.808853 
L 127.429748 315.010857 
L 129.433668 316.09266 
L 131.899098 317.174463 
L 134.932326 318.256266 
L 138.664118 319.338069 
L 143.255356 320.419872 
L 148.903974 321.501675 
L 149.606947 321.621875 
L 149.606947 321.621875 
" clip-path="url(#p1d0811de3a)" style="fill: none; stroke: #ff7f0e; stroke-linejoin: miter"/>
     <g id="PolyCollection_2">
      <path d="M 121.887321 147.848909 
L 115.569768 147.848909 
L 115.569768 309.722042 
L 115.569768 309.722042 
L 115.496181 309.842242 
L 115.420879 309.962442 
L 115.343823 310.082643 
L 115.264972 310.202843 
L 115.184283 310.323043 
L 115.101715 310.443244 
L 115.017224 310.563444 
L 114.930764 310.683644 
L 114.84229 310.803845 
L 114.751755 310.924045 
L 114.659111 311.044245 
L 114.564309 311.164446 
L 114.467298 311.284646 
L 114.368027 311.404846 
L 114.266443 311.525047 
L 114.162493 311.645247 
L 114.056121 311.765447 
L 113.947271 311.885648 
L 113.835885 312.005848 
L 113.721905 312.126048 
L 113.605269 312.246249 
L 113.485916 312.366449 
L 113.363783 312.486649 
L 113.238804 312.60685 
L 113.110914 312.72705 
L 112.980044 312.84725 
L 112.846126 312.967451 
L 112.709088 313.087651 
L 112.568857 313.207851 
L 112.425359 313.328052 
L 112.278519 313.448252 
L 112.128258 313.568452 
L 111.974496 313.688653 
L 111.817152 313.808853 
L 111.656143 313.929053 
L 111.491382 314.049254 
L 111.322784 314.169454 
L 111.150258 314.289655 
L 110.973712 314.409855 
L 110.793054 314.530055 
L 110.608187 314.650256 
L 110.419013 314.770456 
L 110.225432 314.890656 
L 110.027342 315.010857 
L 109.824637 315.131057 
L 109.617209 315.251257 
L 109.404949 315.371458 
L 109.187745 315.491658 
L 108.96548 315.611858 
L 108.738038 315.732059 
L 108.505296 315.852259 
L 108.267133 315.972459 
L 108.023422 316.09266 
L 107.774033 316.21286 
L 107.518834 316.33306 
L 107.25769 316.453261 
L 106.990462 316.573461 
L 106.717009 316.693661 
L 106.437186 316.813862 
L 106.150844 316.934062 
L 105.857831 317.054262 
L 105.557992 317.174463 
L 105.251167 317.294663 
L 104.937195 317.414863 
L 104.615909 317.535064 
L 104.287138 317.655264 
L 103.950707 317.775464 
L 103.606439 317.895665 
L 103.254151 318.015865 
L 102.893656 318.136065 
L 102.524763 318.256266 
L 102.147276 318.376466 
L 101.760995 318.496666 
L 101.365715 318.616867 
L 100.961227 318.737067 
L 100.547316 318.857267 
L 100.123761 318.977468 
L 99.69034 319.097668 
L 99.246822 319.217868 
L 98.792971 319.338069 
L 98.328548 319.458269 
L 97.853305 319.578469 
L 97.36699 319.69867 
L 96.869347 319.81887 
L 96.36011 319.93907 
L 95.83901 320.059271 
L 95.30577 320.179471 
L 94.760107 320.299671 
L 94.201733 320.419872 
L 93.630351 320.540072 
L 93.045658 320.660272 
L 92.447343 320.780473 
L 91.835091 320.900673 
L 91.208574 321.020873 
L 90.567463 321.141074 
L 89.911416 321.261274 
L 89.240086 321.381474 
L 88.553116 321.501675 
L 87.850142 321.621875 
L 149.606947 321.621875 
L 149.606947 321.621875 
L 148.903974 321.501675 
L 148.217004 321.381474 
L 147.545673 321.261274 
L 146.889626 321.141074 
L 146.248515 321.020873 
L 145.621999 320.900673 
L 145.009746 320.780473 
L 144.411432 320.660272 
L 143.826738 320.540072 
L 143.255356 320.419872 
L 142.696982 320.299671 
L 142.15132 320.179471 
L 141.61808 320.059271 
L 141.09698 319.93907 
L 140.587743 319.81887 
L 140.090099 319.69867 
L 139.603785 319.578469 
L 139.128542 319.458269 
L 138.664118 319.338069 
L 138.210268 319.217868 
L 137.766749 319.097668 
L 137.333328 318.977468 
L 136.909774 318.857267 
L 136.495862 318.737067 
L 136.091374 318.616867 
L 135.696094 318.496666 
L 135.309813 318.376466 
L 134.932326 318.256266 
L 134.563433 318.136065 
L 134.202938 318.015865 
L 133.85065 317.895665 
L 133.506382 317.775464 
L 133.169952 317.655264 
L 132.841181 317.535064 
L 132.519894 317.414863 
L 132.205922 317.294663 
L 131.899098 317.174463 
L 131.599259 317.054262 
L 131.306246 316.934062 
L 131.019903 316.813862 
L 130.74008 316.693661 
L 130.466627 316.573461 
L 130.199399 316.453261 
L 129.938255 316.33306 
L 129.683057 316.21286 
L 129.433668 316.09266 
L 129.189956 315.972459 
L 128.951793 315.852259 
L 128.719052 315.732059 
L 128.491609 315.611858 
L 128.269345 315.491658 
L 128.05214 315.371458 
L 127.83988 315.251257 
L 127.632453 315.131057 
L 127.429748 315.010857 
L 127.231657 314.890656 
L 127.038076 314.770456 
L 126.848903 314.650256 
L 126.664036 314.530055 
L 126.483377 314.409855 
L 126.306832 314.289655 
L 126.134306 314.169454 
L 125.965707 314.049254 
L 125.800947 313.929053 
L 125.639937 313.808853 
L 125.482593 313.688653 
L 125.328832 313.568452 
L 125.17857 313.448252 
L 125.03173 313.328052 
L 124.888232 313.207851 
L 124.748002 313.087651 
L 124.610964 312.967451 
L 124.477045 312.84725 
L 124.346176 312.72705 
L 124.218285 312.60685 
L 124.093307 312.486649 
L 123.971173 312.366449 
L 123.85182 312.246249 
L 123.735184 312.126048 
L 123.621204 312.005848 
L 123.509818 311.885648 
L 123.400968 311.765447 
L 123.294597 311.645247 
L 123.190646 311.525047 
L 123.089063 311.404846 
L 122.989792 311.284646 
L 122.892781 311.164446 
L 122.797978 311.044245 
L 122.705334 310.924045 
L 122.614799 310.803845 
L 122.526325 310.683644 
L 122.439865 310.563444 
L 122.355374 310.443244 
L 122.272806 310.323043 
L 122.192118 310.202843 
L 122.113267 310.082643 
L 122.03621 309.962442 
L 121.960909 309.842242 
L 121.887321 309.722042 
L 121.887321 309.722042 
L 121.887321 147.848909 
z
" clip-path="url(#p1d0811de3a)" style="fill: #ff7f0e; fill-opacity: 0.5"/>
     </g>
     <g id="patch_5">
      <path d="M 561.740979 72.964375 
L 561.740979 321.621875 
M 579.040483 72.964375 
L 579.040483 321.621875 
" clip-path="url(#p1d0811de3a)" style="fill: none; stroke: #ffffff; stroke-width: 3; stroke-linejoin: miter"/>
      <path d="M 561.740979 72.964375 
L 561.740979 321.621875 
M 579.040483 72.964375 
L 579.040483 321.621875 
" clip-path="url(#p1d0811de3a)" style="fill: none; stroke: #2ca02c; stroke-linejoin: miter"/>
      <g id="PolyCollection_3">
       <path d="M 579.040483 72.964375 
L 561.740979 72.964375 
L 561.740979 321.621875 
L 579.040483 321.621875 
L 579.040483 321.621875 
L 579.040483 72.964375 
z
" clip-path="url(#p1d0811de3a)" style="fill: #2ca02c; fill-opacity: 0.5"/>
      </g>
      <g id="patch_6">
       <path d="M 436.809335 160.034665 
L 436.809335 257.656867 
L 439.685175 257.656867 
L 439.685175 258.269559 
L 436.809335 258.269559 
L 436.809335 304.425663 
L 436.809335 304.425663 
L 435.647861 305.815256 
L 434.188921 307.204849 
L 432.608898 308.420742 
L 430.679984 309.636636 
L 428.32514 310.85253 
L 425.450316 312.068424 
L 421.940691 313.284318 
L 417.656095 314.500211 
L 412.425403 315.716105 
L 406.039705 316.931999 
L 398.243959 318.147893 
L 388.726808 319.363787 
L 377.108143 320.57968 
L 365.127545 321.621875 
M 445.879449 160.034665 
L 445.879449 257.656867 
L 443.003608 257.656867 
L 443.003608 258.269559 
L 445.879449 258.269559 
L 445.879449 304.425663 
L 445.879449 304.425663 
L 447.040923 305.815256 
L 448.499863 307.204849 
L 450.079886 308.420742 
L 452.0088 309.636636 
L 454.363644 310.85253 
L 457.238468 312.068424 
L 460.748092 313.284318 
L 465.032688 314.500211 
L 470.26338 315.716105 
L 476.649079 316.931999 
L 484.444825 318.147893 
L 493.961976 319.363787 
L 505.580641 320.57968 
L 517.561238 321.621875 
L 517.561238 321.621875 
" clip-path="url(#p1d0811de3a)" style="fill: none; stroke: #ffffff; stroke-width: 3; stroke-linejoin: miter"/>
       <path d="M 436.809335 160.034665 
L 436.809335 257.656867 
L 439.685175 257.656867 
L 439.685175 258.269559 
L 436.809335 258.269559 
L 436.809335 304.425663 
L 436.809335 304.425663 
L 435.647861 305.815256 
L 434.188921 307.204849 
L 432.608898 308.420742 
L 430.679984 309.636636 
L 428.32514 310.85253 
L 425.450316 312.068424 
L 421.940691 313.284318 
L 417.656095 314.500211 
L 412.425403 315.716105 
L 406.039705 316.931999 
L 398.243959 318.147893 
L 388.726808 319.363787 
L 377.108143 320.57968 
L 365.127545 321.621875 
M 445.879449 160.034665 
L 445.879449 257.656867 
L 443.003608 257.656867 
L 443.003608 258.269559 
L 445.879449 258.269559 
L 445.879449 304.425663 
L 445.879449 304.425663 
L 447.040923 305.815256 
L 448.499863 307.204849 
L 450.079886 308.420742 
L 452.0088 309.636636 
L 454.363644 310.85253 
L 457.238468 312.068424 
L 460.748092 313.284318 
L 465.032688 314.500211 
L 470.26338 315.716105 
L 476.649079 316.931999 
L 484.444825 318.147893 
L 493.961976 319.363787 
L 505.580641 320.57968 
L 517.561238 321.621875 
L 517.561238 321.621875 
" clip-path="url(#p1d0811de3a)" style="fill: none; stroke: #d62728; stroke-linejoin: miter"/>
       <g id="PolyCollection_4">
        <path d="M 445.879449 160.034665 
L 436.809335 160.034665 
L 436.809335 257.656867 
L 439.685175 257.656867 
L 439.685175 258.269559 
L 436.809335 258.269559 
L 436.809335 304.425663 
L 436.809335 304.425663 
L 436.678215 304.599362 
L 436.543304 304.773061 
L 436.404492 304.94676 
L 436.261667 305.120459 
L 436.114712 305.294158 
L 435.963509 305.467858 
L 435.807934 305.641557 
L 435.647861 305.815256 
L 435.483159 305.988955 
L 435.313696 306.162654 
L 435.139333 306.336353 
L 434.959929 306.510052 
L 434.775338 306.683751 
L 434.58541 306.85745 
L 434.389991 307.03115 
L 434.188921 307.204849 
L 433.982038 307.378548 
L 433.769174 307.552247 
L 433.550155 307.725946 
L 433.324803 307.899645 
L 433.092937 308.073344 
L 432.854366 308.247043 
L 432.608898 308.420742 
L 432.356332 308.594442 
L 432.096464 308.768141 
L 431.829083 308.94184 
L 431.553971 309.115539 
L 431.270905 309.289238 
L 430.979655 309.462937 
L 430.679984 309.636636 
L 430.371649 309.810335 
L 430.054398 309.984034 
L 429.727976 310.157734 
L 429.392116 310.331433 
L 429.046545 310.505132 
L 428.690983 310.678831 
L 428.32514 310.85253 
L 427.94872 311.026229 
L 427.561417 311.199928 
L 427.162916 311.373627 
L 426.752893 311.547326 
L 426.331016 311.721026 
L 425.896941 311.894725 
L 425.450316 312.068424 
L 424.990777 312.242123 
L 424.517952 312.415822 
L 424.031457 312.589521 
L 423.530896 312.76322 
L 423.015862 312.936919 
L 422.485938 313.110618 
L 421.940691 313.284318 
L 421.379681 313.458017 
L 420.80245 313.631716 
L 420.20853 313.805415 
L 419.597438 313.979114 
L 418.968678 314.152813 
L 418.321739 314.326512 
L 417.656095 314.500211 
L 416.971206 314.67391 
L 416.266515 314.84761 
L 415.54145 315.021309 
L 414.795421 315.195008 
L 414.027822 315.368707 
L 413.23803 315.542406 
L 412.425403 315.716105 
L 411.589281 315.889804 
L 410.728985 316.063503 
L 409.843816 316.237203 
L 408.933053 316.410902 
L 407.995959 316.584601 
L 407.03177 316.7583 
L 406.039705 316.931999 
L 405.018956 317.105698 
L 403.968695 317.279397 
L 402.888068 317.453096 
L 401.776197 317.626795 
L 400.63218 317.800495 
L 399.455085 317.974194 
L 398.243959 318.147893 
L 396.997815 318.321592 
L 395.715642 318.495291 
L 394.396398 318.66899 
L 393.039012 318.842689 
L 391.64238 319.016388 
L 390.205367 319.190087 
L 388.726808 319.363787 
L 387.205499 319.537486 
L 385.640205 319.711185 
L 384.029655 319.884884 
L 382.372539 320.058583 
L 380.667512 320.232282 
L 378.913188 320.405981 
L 377.108143 320.57968 
L 375.250909 320.753379 
L 373.339977 320.927079 
L 371.373796 321.100778 
L 369.350767 321.274477 
L 367.269247 321.448176 
L 365.127545 321.621875 
L 517.561238 321.621875 
L 517.561238 321.621875 
L 515.419537 321.448176 
L 513.338017 321.274477 
L 511.314988 321.100778 
L 509.348807 320.927079 
L 507.437875 320.753379 
L 505.580641 320.57968 
L 503.775595 320.405981 
L 502.021272 320.232282 
L 500.316245 320.058583 
L 498.659129 319.884884 
L 497.048579 319.711185 
L 495.483285 319.537486 
L 493.961976 319.363787 
L 492.483416 319.190087 
L 491.046404 319.016388 
L 489.649772 318.842689 
L 488.292386 318.66899 
L 486.973142 318.495291 
L 485.690969 318.321592 
L 484.444825 318.147893 
L 483.233698 317.974194 
L 482.056604 317.800495 
L 480.912587 317.626795 
L 479.800716 317.453096 
L 478.720089 317.279397 
L 477.669828 317.105698 
L 476.649079 316.931999 
L 475.657014 316.7583 
L 474.692825 316.584601 
L 473.75573 316.410902 
L 472.844968 316.237203 
L 471.959799 316.063503 
L 471.099502 315.889804 
L 470.26338 315.716105 
L 469.450754 315.542406 
L 468.660962 315.368707 
L 467.893363 315.195008 
L 467.147334 315.021309 
L 466.422269 314.84761 
L 465.717578 314.67391 
L 465.032688 314.500211 
L 464.367045 314.326512 
L 463.720106 314.152813 
L 463.091346 313.979114 
L 462.480254 313.805415 
L 461.886334 313.631716 
L 461.309103 313.458017 
L 460.748092 313.284318 
L 460.202846 313.110618 
L 459.672922 312.936919 
L 459.157888 312.76322 
L 458.657327 312.589521 
L 458.170831 312.415822 
L 457.698007 312.242123 
L 457.238468 312.068424 
L 456.791843 311.894725 
L 456.357768 311.721026 
L 455.93589 311.547326 
L 455.525868 311.373627 
L 455.127367 311.199928 
L 454.740063 311.026229 
L 454.363644 310.85253 
L 453.997801 310.678831 
L 453.642239 310.505132 
L 453.296668 310.331433 
L 452.960808 310.157734 
L 452.634385 309.984034 
L 452.317135 309.810335 
L 452.0088 309.636636 
L 451.709129 309.462937 
L 451.417879 309.289238 
L 451.134813 309.115539 
L 450.859701 308.94184 
L 450.59232 308.768141 
L 450.332452 308.594442 
L 450.079886 308.420742 
L 449.834418 308.247043 
L 449.595847 308.073344 
L 449.36398 307.899645 
L 449.138629 307.725946 
L 448.91961 307.552247 
L 448.706746 307.378548 
L 448.499863 307.204849 
L 448.298793 307.03115 
L 448.103374 306.85745 
L 447.913446 306.683751 
L 447.728855 306.510052 
L 447.54945 306.336353 
L 447.375088 306.162654 
L 447.205624 305.988955 
L 447.040923 305.815256 
L 446.88085 305.641557 
L 446.725275 305.467858 
L 446.574072 305.294158 
L 446.427117 305.120459 
L 446.284292 304.94676 
L 446.14548 304.773061 
L 446.010569 304.599362 
L 445.879449 304.425663 
L 445.879449 304.425663 
L 445.879449 258.269559 
L 443.003608 258.269559 
L 443.003608 257.656867 
L 445.879449 257.656867 
L 445.879449 160.034665 
z
" clip-path="url(#p1d0811de3a)" style="fill: #d62728; fill-opacity: 0.5"/>
       </g>
       <g id="matplotlib.axis_1">
        <g id="xtick_1">
         <g id="line2d_1"/>
         <g id="text_1">
          <!-- OUT -->
          <g transform="translate(108.079326 332.720312) scale(0.1 -0.1)">
           <defs>
            <path id="DejaVuSans-4f" d="M 2522 4238 
Q 1834 4238 1429 3725 
Q 1025 3213 1025 2328 
Q 1025 1447 1429 934 
Q 1834 422 2522 422 
Q 3209 422 3611 934 
Q 4013 1447 4013 2328 
Q 4013 3213 3611 3725 
Q 3209 4238 2522 4238 
z
M 2522 4750 
Q 3503 4750 4090 4092 
Q 4678 3434 4678 2328 
Q 4678 1225 4090 567 
Q 3503 -91 2522 -91 
Q 1538 -91 948 565 
Q 359 1222 359 2328 
Q 359 3434 948 4092 
Q 1538 4750 2522 4750 
z
" transform="scale(0.015625)"/>
            <path id="DejaVuSans-55" d="M 556 4666 
L 1191 4666 
L 1191 1831 
Q 1191 1081 1462 751 
Q 1734 422 2344 422 
Q 2950 422 3222 751 
Q 3494 1081 3494 1831 
L 3494 4666 
L 4128 4666 
L 4128 1753 
Q 4128 841 3676 375 
Q 3225 -91 2344 -91 
Q 1459 -91 1007 375 
Q 556 841 556 1753 
L 556 4666 
z
" transform="scale(0.015625)"/>
            <path id="DejaVuSans-54" d="M -19 4666 
L 3928 4666 
L 3928 4134 
L 2272 4134 
L 2272 0 
L 1638 0 
L 1638 4134 
L -19 4134 
L -19 4666 
z
" transform="scale(0.015625)"/>
           </defs>
           <use xlink:href="#DejaVuSans-4f"/>
           <use xlink:href="#DejaVuSans-55" x="78.710938"/>
           <use xlink:href="#DejaVuSans-54" x="151.904297"/>
          </g>
         </g>
        </g>
        <g id="xtick_2">
         <g id="line2d_2"/>
         <g id="text_2">
          <!-- SRC -->
          <g transform="translate(560.500887 332.720312) scale(0.1 -0.1)">
           <defs>
            <path id="DejaVuSans-53" d="M 3425 4513 
L 3425 3897 
Q 3066 4069 2747 4153 
Q 2428 4238 2131 4238 
Q 1616 4238 1336 4038 
Q 1056 3838 1056 3469 
Q 1056 3159 1242 3001 
Q 1428 2844 1947 2747 
L 2328 2669 
Q 3034 2534 3370 2195 
Q 3706 1856 3706 1288 
Q 3706 609 3251 259 
Q 2797 -91 1919 -91 
Q 1588 -91 1214 -16 
Q 841 59 441 206 
L 441 856 
Q 825 641 1194 531 
Q 1563 422 1919 422 
Q 2459 422 2753 634 
Q 3047 847 3047 1241 
Q 3047 1584 2836 1778 
Q 2625 1972 2144 2069 
L 1759 2144 
Q 1053 2284 737 2584 
Q 422 2884 422 3419 
Q 422 4038 858 4394 
Q 1294 4750 2059 4750 
Q 2388 4750 2728 4690 
Q 3069 4631 3425 4513 
z
" transform="scale(0.015625)"/>
            <path id="DejaVuSans-52" d="M 2841 2188 
Q 3044 2119 3236 1894 
Q 3428 1669 3622 1275 
L 4263 0 
L 3584 0 
L 2988 1197 
Q 2756 1666 2539 1819 
Q 2322 1972 1947 1972 
L 1259 1972 
L 1259 0 
L 628 0 
L 628 4666 
L 2053 4666 
Q 2853 4666 3247 4331 
Q 3641 3997 3641 3322 
Q 3641 2881 3436 2590 
Q 3231 2300 2841 2188 
z
M 1259 4147 
L 1259 2491 
L 2053 2491 
Q 2509 2491 2742 2702 
Q 2975 2913 2975 3322 
Q 2975 3731 2742 3939 
Q 2509 4147 2053 4147 
L 1259 4147 
z
" transform="scale(0.015625)"/>
            <path id="DejaVuSans-43" d="M 4122 4306 
L 4122 3641 
Q 3803 3938 3442 4084 
Q 3081 4231 2675 4231 
Q 1875 4231 1450 3742 
Q 1025 3253 1025 2328 
Q 1025 1406 1450 917 
Q 1875 428 2675 428 
Q 3081 428 3442 575 
Q 3803 722 4122 1019 
L 4122 359 
Q 3791 134 3420 21 
Q 3050 -91 2638 -91 
Q 1578 -91 968 557 
Q 359 1206 359 2328 
Q 359 3453 968 4101 
Q 1578 4750 2638 4750 
Q 3056 4750 3426 4639 
Q 3797 4528 4122 4306 
z
" transform="scale(0.015625)"/>
           </defs>
           <use xlink:href="#DejaVuSans-53"/>
           <use xlink:href="#DejaVuSans-52" x="63.476562"/>
           <use xlink:href="#DejaVuSans-43" x="127.958984"/>
          </g>
         </g>
        </g>
        <g id="xtick_3">
         <g id="line2d_3"/>
         <g id="text_3">
          <!-- TAR -->
          <g transform="translate(431.783454 332.720312) scale(0.1 -0.1)">
           <defs>
            <path id="DejaVuSans-41" d="M 2188 4044 
L 1331 1722 
L 3047 1722 
L 2188 4044 
z
M 1831 4666 
L 2547 4666 
L 4325 0 
L 3669 0 
L 3244 1197 
L 1141 1197 
L 716 0 
L 50 0 
L 1831 4666 
z
" transform="scale(0.015625)"/>
           </defs>
           <use xlink:href="#DejaVuSans-54"/>
           <use xlink:href="#DejaVuSans-41" x="53.333984"/>
           <use xlink:href="#DejaVuSans-52" x="121.742188"/>
          </g>
         </g>
        </g>
       </g>
       <g id="matplotlib.axis_2">
        <g id="ytick_1">
         <g id="line2d_4">
          <defs>
           <path id="macf93b90ba" d="M 0 0 
L -3.5 0 
" style="stroke: #000000; stroke-width: 0.8"/>
          </defs>
          <g>
           <use xlink:href="#macf93b90ba" x="63.290625" y="321.621875" style="stroke: #000000; stroke-width: 0.8"/>
          </g>
         </g>
         <g id="text_4">
          <!-- 0 -->
          <g transform="translate(49.928125 325.421094) scale(0.1 -0.1)">
           <defs>
            <path id="DejaVuSans-30" d="M 2034 4250 
Q 1547 4250 1301 3770 
Q 1056 3291 1056 2328 
Q 1056 1369 1301 889 
Q 1547 409 2034 409 
Q 2525 409 2770 889 
Q 3016 1369 3016 2328 
Q 3016 3291 2770 3770 
Q 2525 4250 2034 4250 
z
M 2034 4750 
Q 2819 4750 3233 4129 
Q 3647 3509 3647 2328 
Q 3647 1150 3233 529 
Q 2819 -91 2034 -91 
Q 1250 -91 836 529 
Q 422 1150 422 2328 
Q 422 3509 836 4129 
Q 1250 4750 2034 4750 
z
" transform="scale(0.015625)"/>
           </defs>
           <use xlink:href="#DejaVuSans-30"/>
          </g>
         </g>
        </g>
        <g id="ytick_2">
         <g id="line2d_5">
          <g>
           <use xlink:href="#macf93b90ba" x="63.290625" y="253.545026" style="stroke: #000000; stroke-width: 0.8"/>
          </g>
         </g>
         <g id="text_5">
          <!-- 5000 -->
          <g transform="translate(30.840625 257.344244) scale(0.1 -0.1)">
           <defs>
            <path id="DejaVuSans-35" d="M 691 4666 
L 3169 4666 
L 3169 4134 
L 1269 4134 
L 1269 2991 
Q 1406 3038 1543 3061 
Q 1681 3084 1819 3084 
Q 2600 3084 3056 2656 
Q 3513 2228 3513 1497 
Q 3513 744 3044 326 
Q 2575 -91 1722 -91 
Q 1428 -91 1123 -41 
Q 819 9 494 109 
L 494 744 
Q 775 591 1075 516 
Q 1375 441 1709 441 
Q 2250 441 2565 725 
Q 2881 1009 2881 1497 
Q 2881 1984 2565 2268 
Q 2250 2553 1709 2553 
Q 1456 2553 1204 2497 
Q 953 2441 691 2322 
L 691 4666 
z
" transform="scale(0.015625)"/>
           </defs>
           <use xlink:href="#DejaVuSans-35"/>
           <use xlink:href="#DejaVuSans-30" x="63.623047"/>
           <use xlink:href="#DejaVuSans-30" x="127.246094"/>
           <use xlink:href="#DejaVuSans-30" x="190.869141"/>
          </g>
         </g>
        </g>
        <g id="ytick_3">
         <g id="line2d_6">
          <g>
           <use xlink:href="#macf93b90ba" x="63.290625" y="185.468176" style="stroke: #000000; stroke-width: 0.8"/>
          </g>
         </g>
         <g id="text_6">
          <!-- 10000 -->
          <g transform="translate(24.478125 189.267395) scale(0.1 -0.1)">
           <defs>
            <path id="DejaVuSans-31" d="M 794 531 
L 1825 531 
L 1825 4091 
L 703 3866 
L 703 4441 
L 1819 4666 
L 2450 4666 
L 2450 531 
L 3481 531 
L 3481 0 
L 794 0 
L 794 531 
z
" transform="scale(0.015625)"/>
           </defs>
           <use xlink:href="#DejaVuSans-31"/>
           <use xlink:href="#DejaVuSans-30" x="63.623047"/>
           <use xlink:href="#DejaVuSans-30" x="127.246094"/>
           <use xlink:href="#DejaVuSans-30" x="190.869141"/>
           <use xlink:href="#DejaVuSans-30" x="254.492188"/>
          </g>
         </g>
        </g>
        <g id="ytick_4">
         <g id="line2d_7">
          <g>
           <use xlink:href="#macf93b90ba" x="63.290625" y="117.391327" style="stroke: #000000; stroke-width: 0.8"/>
          </g>
         </g>
         <g id="text_7">
          <!-- 15000 -->
          <g transform="translate(24.478125 121.190546) scale(0.1 -0.1)">
           <use xlink:href="#DejaVuSans-31"/>
           <use xlink:href="#DejaVuSans-35" x="63.623047"/>
           <use xlink:href="#DejaVuSans-30" x="127.246094"/>
           <use xlink:href="#DejaVuSans-30" x="190.869141"/>
           <use xlink:href="#DejaVuSans-30" x="254.492188"/>
          </g>
         </g>
        </g>
        <g id="ytick_5">
         <g id="line2d_8">
          <g>
           <use xlink:href="#macf93b90ba" x="63.290625" y="49.314478" style="stroke: #000000; stroke-width: 0.8"/>
          </g>
         </g>
         <g id="text_8">
          <!-- 20000 -->
          <g transform="translate(24.478125 53.113696) scale(0.1 -0.1)">
           <defs>
            <path id="DejaVuSans-32" d="M 1228 531 
L 3431 531 
L 3431 0 
L 469 0 
L 469 531 
Q 828 903 1448 1529 
Q 2069 2156 2228 2338 
Q 2531 2678 2651 2914 
Q 2772 3150 2772 3378 
Q 2772 3750 2511 3984 
Q 2250 4219 1831 4219 
Q 1534 4219 1204 4116 
Q 875 4013 500 3803 
L 500 4441 
Q 881 4594 1212 4672 
Q 1544 4750 1819 4750 
Q 2544 4750 2975 4387 
Q 3406 4025 3406 3419 
Q 3406 3131 3298 2873 
Q 3191 2616 2906 2266 
Q 2828 2175 2409 1742 
Q 1991 1309 1228 531 
z
" transform="scale(0.015625)"/>
           </defs>
           <use xlink:href="#DejaVuSans-32"/>
           <use xlink:href="#DejaVuSans-30" x="63.623047"/>
           <use xlink:href="#DejaVuSans-30" x="127.246094"/>
           <use xlink:href="#DejaVuSans-30" x="190.869141"/>
           <use xlink:href="#DejaVuSans-30" x="254.492188"/>
          </g>
         </g>
        </g>
        <g id="text_9">
         <!-- time ago (generations) -->
         <g transform="translate(18.398438 223.682031) rotate(-90) scale(0.1 -0.1)">
          <defs>
           <path id="DejaVuSans-74" d="M 1172 4494 
L 1172 3500 
L 2356 3500 
L 2356 3053 
L 1172 3053 
L 1172 1153 
Q 1172 725 1289 603 
Q 1406 481 1766 481 
L 2356 481 
L 2356 0 
L 1766 0 
Q 1100 0 847 248 
Q 594 497 594 1153 
L 594 3053 
L 172 3053 
L 172 3500 
L 594 3500 
L 594 4494 
L 1172 4494 
z
" transform="scale(0.015625)"/>
           <path id="DejaVuSans-69" d="M 603 3500 
L 1178 3500 
L 1178 0 
L 603 0 
L 603 3500 
z
M 603 4863 
L 1178 4863 
L 1178 4134 
L 603 4134 
L 603 4863 
z
" transform="scale(0.015625)"/>
           <path id="DejaVuSans-6d" d="M 3328 2828 
Q 3544 3216 3844 3400 
Q 4144 3584 4550 3584 
Q 5097 3584 5394 3201 
Q 5691 2819 5691 2113 
L 5691 0 
L 5113 0 
L 5113 2094 
Q 5113 2597 4934 2840 
Q 4756 3084 4391 3084 
Q 3944 3084 3684 2787 
Q 3425 2491 3425 1978 
L 3425 0 
L 2847 0 
L 2847 2094 
Q 2847 2600 2669 2842 
Q 2491 3084 2119 3084 
Q 1678 3084 1418 2786 
Q 1159 2488 1159 1978 
L 1159 0 
L 581 0 
L 581 3500 
L 1159 3500 
L 1159 2956 
Q 1356 3278 1631 3431 
Q 1906 3584 2284 3584 
Q 2666 3584 2933 3390 
Q 3200 3197 3328 2828 
z
" transform="scale(0.015625)"/>
           <path id="DejaVuSans-65" d="M 3597 1894 
L 3597 1613 
L 953 1613 
Q 991 1019 1311 708 
Q 1631 397 2203 397 
Q 2534 397 2845 478 
Q 3156 559 3463 722 
L 3463 178 
Q 3153 47 2828 -22 
Q 2503 -91 2169 -91 
Q 1331 -91 842 396 
Q 353 884 353 1716 
Q 353 2575 817 3079 
Q 1281 3584 2069 3584 
Q 2775 3584 3186 3129 
Q 3597 2675 3597 1894 
z
M 3022 2063 
Q 3016 2534 2758 2815 
Q 2500 3097 2075 3097 
Q 1594 3097 1305 2825 
Q 1016 2553 972 2059 
L 3022 2063 
z
" transform="scale(0.015625)"/>
           <path id="DejaVuSans-20" transform="scale(0.015625)"/>
           <path id="DejaVuSans-61" d="M 2194 1759 
Q 1497 1759 1228 1600 
Q 959 1441 959 1056 
Q 959 750 1161 570 
Q 1363 391 1709 391 
Q 2188 391 2477 730 
Q 2766 1069 2766 1631 
L 2766 1759 
L 2194 1759 
z
M 3341 1997 
L 3341 0 
L 2766 0 
L 2766 531 
Q 2569 213 2275 61 
Q 1981 -91 1556 -91 
Q 1019 -91 701 211 
Q 384 513 384 1019 
Q 384 1609 779 1909 
Q 1175 2209 1959 2209 
L 2766 2209 
L 2766 2266 
Q 2766 2663 2505 2880 
Q 2244 3097 1772 3097 
Q 1472 3097 1187 3025 
Q 903 2953 641 2809 
L 641 3341 
Q 956 3463 1253 3523 
Q 1550 3584 1831 3584 
Q 2591 3584 2966 3190 
Q 3341 2797 3341 1997 
z
" transform="scale(0.015625)"/>
           <path id="DejaVuSans-67" d="M 2906 1791 
Q 2906 2416 2648 2759 
Q 2391 3103 1925 3103 
Q 1463 3103 1205 2759 
Q 947 2416 947 1791 
Q 947 1169 1205 825 
Q 1463 481 1925 481 
Q 2391 481 2648 825 
Q 2906 1169 2906 1791 
z
M 3481 434 
Q 3481 -459 3084 -895 
Q 2688 -1331 1869 -1331 
Q 1566 -1331 1297 -1286 
Q 1028 -1241 775 -1147 
L 775 -588 
Q 1028 -725 1275 -790 
Q 1522 -856 1778 -856 
Q 2344 -856 2625 -561 
Q 2906 -266 2906 331 
L 2906 616 
Q 2728 306 2450 153 
Q 2172 0 1784 0 
Q 1141 0 747 490 
Q 353 981 353 1791 
Q 353 2603 747 3093 
Q 1141 3584 1784 3584 
Q 2172 3584 2450 3431 
Q 2728 3278 2906 2969 
L 2906 3500 
L 3481 3500 
L 3481 434 
z
" transform="scale(0.015625)"/>
           <path id="DejaVuSans-6f" d="M 1959 3097 
Q 1497 3097 1228 2736 
Q 959 2375 959 1747 
Q 959 1119 1226 758 
Q 1494 397 1959 397 
Q 2419 397 2687 759 
Q 2956 1122 2956 1747 
Q 2956 2369 2687 2733 
Q 2419 3097 1959 3097 
z
M 1959 3584 
Q 2709 3584 3137 3096 
Q 3566 2609 3566 1747 
Q 3566 888 3137 398 
Q 2709 -91 1959 -91 
Q 1206 -91 779 398 
Q 353 888 353 1747 
Q 353 2609 779 3096 
Q 1206 3584 1959 3584 
z
" transform="scale(0.015625)"/>
           <path id="DejaVuSans-28" d="M 1984 4856 
Q 1566 4138 1362 3434 
Q 1159 2731 1159 2009 
Q 1159 1288 1364 580 
Q 1569 -128 1984 -844 
L 1484 -844 
Q 1016 -109 783 600 
Q 550 1309 550 2009 
Q 550 2706 781 3412 
Q 1013 4119 1484 4856 
L 1984 4856 
z
" transform="scale(0.015625)"/>
           <path id="DejaVuSans-6e" d="M 3513 2113 
L 3513 0 
L 2938 0 
L 2938 2094 
Q 2938 2591 2744 2837 
Q 2550 3084 2163 3084 
Q 1697 3084 1428 2787 
Q 1159 2491 1159 1978 
L 1159 0 
L 581 0 
L 581 3500 
L 1159 3500 
L 1159 2956 
Q 1366 3272 1645 3428 
Q 1925 3584 2291 3584 
Q 2894 3584 3203 3211 
Q 3513 2838 3513 2113 
z
" transform="scale(0.015625)"/>
           <path id="DejaVuSans-72" d="M 2631 2963 
Q 2534 3019 2420 3045 
Q 2306 3072 2169 3072 
Q 1681 3072 1420 2755 
Q 1159 2438 1159 1844 
L 1159 0 
L 581 0 
L 581 3500 
L 1159 3500 
L 1159 2956 
Q 1341 3275 1631 3429 
Q 1922 3584 2338 3584 
Q 2397 3584 2469 3576 
Q 2541 3569 2628 3553 
L 2631 2963 
z
" transform="scale(0.015625)"/>
           <path id="DejaVuSans-73" d="M 2834 3397 
L 2834 2853 
Q 2591 2978 2328 3040 
Q 2066 3103 1784 3103 
Q 1356 3103 1142 2972 
Q 928 2841 928 2578 
Q 928 2378 1081 2264 
Q 1234 2150 1697 2047 
L 1894 2003 
Q 2506 1872 2764 1633 
Q 3022 1394 3022 966 
Q 3022 478 2636 193 
Q 2250 -91 1575 -91 
Q 1294 -91 989 -36 
Q 684 19 347 128 
L 347 722 
Q 666 556 975 473 
Q 1284 391 1588 391 
Q 1994 391 2212 530 
Q 2431 669 2431 922 
Q 2431 1156 2273 1281 
Q 2116 1406 1581 1522 
L 1381 1569 
Q 847 1681 609 1914 
Q 372 2147 372 2553 
Q 372 3047 722 3315 
Q 1072 3584 1716 3584 
Q 2034 3584 2315 3537 
Q 2597 3491 2834 3397 
z
" transform="scale(0.015625)"/>
           <path id="DejaVuSans-29" d="M 513 4856 
L 1013 4856 
Q 1481 4119 1714 3412 
Q 1947 2706 1947 2009 
Q 1947 1309 1714 600 
Q 1481 -109 1013 -844 
L 513 -844 
Q 928 -128 1133 580 
Q 1338 1288 1338 2009 
Q 1338 2731 1133 3434 
Q 928 4138 513 4856 
z
" transform="scale(0.015625)"/>
          </defs>
          <use xlink:href="#DejaVuSans-74"/>
          <use xlink:href="#DejaVuSans-69" x="39.208984"/>
          <use xlink:href="#DejaVuSans-6d" x="66.992188"/>
          <use xlink:href="#DejaVuSans-65" x="164.404297"/>
          <use xlink:href="#DejaVuSans-20" x="225.927734"/>
          <use xlink:href="#DejaVuSans-61" x="257.714844"/>
          <use xlink:href="#DejaVuSans-67" x="318.994141"/>
          <use xlink:href="#DejaVuSans-6f" x="382.470703"/>
          <use xlink:href="#DejaVuSans-20" x="443.652344"/>
          <use xlink:href="#DejaVuSans-28" x="475.439453"/>
          <use xlink:href="#DejaVuSans-67" x="514.453125"/>
          <use xlink:href="#DejaVuSans-65" x="577.929688"/>
          <use xlink:href="#DejaVuSans-6e" x="639.453125"/>
          <use xlink:href="#DejaVuSans-65" x="702.832031"/>
          <use xlink:href="#DejaVuSans-72" x="764.355469"/>
          <use xlink:href="#DejaVuSans-61" x="805.46875"/>
          <use xlink:href="#DejaVuSans-74" x="866.748047"/>
          <use xlink:href="#DejaVuSans-69" x="905.957031"/>
          <use xlink:href="#DejaVuSans-6f" x="933.740234"/>
          <use xlink:href="#DejaVuSans-6e" x="994.921875"/>
          <use xlink:href="#DejaVuSans-73" x="1058.300781"/>
          <use xlink:href="#DejaVuSans-29" x="1110.400391"/>
         </g>
        </g>
       </g>
       <g id="patch_7">
        <path d="M 262.330338 147.848909 
L 261.330338 147.817473 
L 260.330338 147.780533 
L 259.330338 147.682786 
L 258.330338 147.650264 
L 257.330338 147.57664 
L 256.330338 147.538074 
L 255.330338 147.502661 
L 254.330338 147.445021 
L 253.330338 147.374635 
L 252.330338 147.322671 
L 251.330338 147.263581 
L 250.330338 147.17526 
L 249.330338 147.129116 
L 248.330338 147.086705 
L 247.330338 147.056212 
L 246.330338 147.030167 
L 245.330338 147.008967 
L 244.330338 146.954666 
L 243.330338 146.926728 
L 242.330338 146.897004 
L 241.330338 146.87161 
L 240.330338 146.860409 
L 239.330338 146.850285 
L 238.330338 146.85049 
L 237.330338 146.859999 
L 236.330338 146.871653 
L 235.330338 146.902682 
L 234.330338 146.91385 
L 233.330338 146.943968 
L 232.330338 147.003745 
L 231.330338 147.040936 
L 230.330338 147.080032 
L 229.330338 147.122472 
L 228.330338 147.155237 
L 227.330338 147.222663 
L 226.330338 147.261789 
L 225.330338 147.304464 
L 224.330338 147.375045 
L 223.330338 147.411435 
L 222.330338 147.469839 
L 221.330338 147.580791 
L 220.330338 147.651449 
L 219.330338 147.764389 
L 218.330338 147.810162 
L 217.330338 147.871445 
L 216.330338 147.919945 
L 215.330338 148.000767 
L 214.330338 148.119286 
L 213.330338 148.189497 
L 212.330338 148.272759 
L 211.330338 148.305901 
L 210.330338 148.357139 
L 209.330338 148.425537 
L 208.330338 148.491752 
L 207.330338 148.568669 
L 206.330338 148.595985 
L 205.330338 148.622462 
L 204.330338 148.645113 
L 203.330338 148.664644 
L 202.330338 148.691038 
L 201.330338 148.740809 
L 200.330338 148.775882 
L 199.330338 148.811748 
L 198.330338 148.827115 
L 197.330338 148.842884 
L 196.330338 148.846297 
L 195.330338 148.848715 
L 194.330338 148.848229 
L 193.330338 148.846299 
L 192.330338 148.833042 
L 191.330338 148.824652 
L 190.330338 148.803115 
L 189.330338 148.780083 
L 188.330338 148.762849 
L 187.330338 148.744387 
L 186.330338 148.723934 
L 185.330338 148.707334 
L 184.330338 148.644555 
L 183.330338 148.56929 
L 182.330338 148.536651 
L 181.330338 148.469088 
L 180.330338 148.415041 
L 179.330338 148.381336 
L 178.330338 148.29121 
L 177.330338 148.262675 
L 176.330338 148.231189 
L 175.330338 148.200178 
L 174.330338 148.14537 
L 173.330338 148.080783 
L 172.330338 148.042588 
L 171.330338 147.946653 
L 170.330338 147.897395 
L 169.330338 147.853326 
L 168.330338 147.813202 
L 167.330338 147.704835 
L 166.330338 147.663207 
L 165.330338 147.601066 
L 164.330338 147.531103 
L 163.330338 147.426599 
L 162.330338 147.389611 
L 161.330338 147.343734 
L 160.330338 147.27524 
L 159.330338 147.226494 
L 158.330338 147.148896 
L 157.330338 147.118356 
L 156.330338 147.048841 
L 155.330338 147.024868 
L 154.330338 146.996247 
L 153.330338 146.954453 
L 152.330338 146.932878 
L 151.330338 146.91893 
L 150.330338 146.892207 
L 149.330338 146.882897 
L 148.330338 146.870451 
L 147.330338 146.859396 
L 146.330338 146.853731 
L 145.330338 146.848967 
L 144.330338 146.854515 
L 143.330338 146.867803 
L 142.330338 146.875321 
L 141.330338 146.900105 
L 140.330338 146.923674 
L 139.330338 146.959855 
L 138.330338 146.985817 
L 137.330338 147.008138 
L 136.330338 147.076898 
L 135.330338 147.151433 
L 134.330338 147.245413 
L 133.330338 147.296465 
L 132.330338 147.350398 
L 131.330338 147.385649 
L 130.330338 147.491737 
L 129.330338 147.544001 
L 128.330338 147.580908 
L 127.330338 147.611939 
L 126.330338 147.673094 
L 125.006908 147.740514 
" clip-path="url(#p1d0811de3a)" style="fill: none; stroke: #ffffff; stroke-width: 3; stroke-linecap: round"/>
        <path d="M 262.330338 147.848909 
L 261.330338 147.817473 
L 260.330338 147.780533 
L 259.330338 147.682786 
L 258.330338 147.650264 
L 257.330338 147.57664 
L 256.330338 147.538074 
L 255.330338 147.502661 
L 254.330338 147.445021 
L 253.330338 147.374635 
L 252.330338 147.322671 
L 251.330338 147.263581 
L 250.330338 147.17526 
L 249.330338 147.129116 
L 248.330338 147.086705 
L 247.330338 147.056212 
L 246.330338 147.030167 
L 245.330338 147.008967 
L 244.330338 146.954666 
L 243.330338 146.926728 
L 242.330338 146.897004 
L 241.330338 146.87161 
L 240.330338 146.860409 
L 239.330338 146.850285 
L 238.330338 146.85049 
L 237.330338 146.859999 
L 236.330338 146.871653 
L 235.330338 146.902682 
L 234.330338 146.91385 
L 233.330338 146.943968 
L 232.330338 147.003745 
L 231.330338 147.040936 
L 230.330338 147.080032 
L 229.330338 147.122472 
L 228.330338 147.155237 
L 227.330338 147.222663 
L 226.330338 147.261789 
L 225.330338 147.304464 
L 224.330338 147.375045 
L 223.330338 147.411435 
L 222.330338 147.469839 
L 221.330338 147.580791 
L 220.330338 147.651449 
L 219.330338 147.764389 
L 218.330338 147.810162 
L 217.330338 147.871445 
L 216.330338 147.919945 
L 215.330338 148.000767 
L 214.330338 148.119286 
L 213.330338 148.189497 
L 212.330338 148.272759 
L 211.330338 148.305901 
L 210.330338 148.357139 
L 209.330338 148.425537 
L 208.330338 148.491752 
L 207.330338 148.568669 
L 206.330338 148.595985 
L 205.330338 148.622462 
L 204.330338 148.645113 
L 203.330338 148.664644 
L 202.330338 148.691038 
L 201.330338 148.740809 
L 200.330338 148.775882 
L 199.330338 148.811748 
L 198.330338 148.827115 
L 197.330338 148.842884 
L 196.330338 148.846297 
L 195.330338 148.848715 
L 194.330338 148.848229 
L 193.330338 148.846299 
L 192.330338 148.833042 
L 191.330338 148.824652 
L 190.330338 148.803115 
L 189.330338 148.780083 
L 188.330338 148.762849 
L 187.330338 148.744387 
L 186.330338 148.723934 
L 185.330338 148.707334 
L 184.330338 148.644555 
L 183.330338 148.56929 
L 182.330338 148.536651 
L 181.330338 148.469088 
L 180.330338 148.415041 
L 179.330338 148.381336 
L 178.330338 148.29121 
L 177.330338 148.262675 
L 176.330338 148.231189 
L 175.330338 148.200178 
L 174.330338 148.14537 
L 173.330338 148.080783 
L 172.330338 148.042588 
L 171.330338 147.946653 
L 170.330338 147.897395 
L 169.330338 147.853326 
L 168.330338 147.813202 
L 167.330338 147.704835 
L 166.330338 147.663207 
L 165.330338 147.601066 
L 164.330338 147.531103 
L 163.330338 147.426599 
L 162.330338 147.389611 
L 161.330338 147.343734 
L 160.330338 147.27524 
L 159.330338 147.226494 
L 158.330338 147.148896 
L 157.330338 147.118356 
L 156.330338 147.048841 
L 155.330338 147.024868 
L 154.330338 146.996247 
L 153.330338 146.954453 
L 152.330338 146.932878 
L 151.330338 146.91893 
L 150.330338 146.892207 
L 149.330338 146.882897 
L 148.330338 146.870451 
L 147.330338 146.859396 
L 146.330338 146.853731 
L 145.330338 146.848967 
L 144.330338 146.854515 
L 143.330338 146.867803 
L 142.330338 146.875321 
L 141.330338 146.900105 
L 140.330338 146.923674 
L 139.330338 146.959855 
L 138.330338 146.985817 
L 137.330338 147.008138 
L 136.330338 147.076898 
L 135.330338 147.151433 
L 134.330338 147.245413 
L 133.330338 147.296465 
L 132.330338 147.350398 
L 131.330338 147.385649 
L 130.330338 147.491737 
L 129.330338 147.544001 
L 128.330338 147.580908 
L 127.330338 147.611939 
L 126.330338 147.673094 
L 125.006908 147.740514 
" clip-path="url(#p1d0811de3a)" style="fill: none; stroke: #1f77b4; stroke-linecap: round"/>
        <path d="M 129.006908 149.848909 
L 128.12654 149.373578 
L 127.248633 148.893324 
L 126.397919 148.358683 
L 125.095745 147.671236 
L 126.023098 147.645221 
L 126.934772 147.232502 
L 127.845037 146.816962 
L 129.187532 146.210158 
L 128.532634 146.848909 
L 128.480669 147.848909 
L 128.42158 149.848909 
z
" clip-path="url(#p1d0811de3a)" style="fill: #ffffff; stroke: #ffffff; stroke-width: 3; stroke-linecap: round"/>
        <path d="M 129.006908 149.848909 
L 128.12654 149.373578 
L 127.248633 148.893324 
L 126.397919 148.358683 
L 125.095745 147.671236 
L 126.023098 147.645221 
L 126.934772 147.232502 
L 127.845037 146.816962 
L 129.187532 146.210158 
L 128.532634 146.848909 
L 128.480669 147.848909 
L 128.42158 149.848909 
z
" clip-path="url(#p1d0811de3a)" style="fill: #ffffff; stroke: #1f77b4; stroke-linecap: round"/>
        <g id="patch_8">
         <path d="M 362.263125 72.964375 
L 363.263125 72.995811 
L 364.263125 73.032752 
L 365.263125 73.130498 
L 366.263125 73.16302 
L 367.263125 73.236645 
L 368.263125 73.27521 
L 369.263125 73.310623 
L 370.263125 73.368263 
L 371.263125 73.438649 
L 372.263125 73.490614 
L 373.263125 73.549703 
L 374.263125 73.638024 
L 375.263125 73.684169 
L 376.263125 73.72658 
L 377.263125 73.757072 
L 378.263125 73.783117 
L 379.263125 73.804317 
L 380.263125 73.858618 
L 381.263125 73.886556 
L 382.263125 73.91628 
L 383.263125 73.941675 
L 384.263125 73.952875 
L 385.263125 73.962999 
L 386.263125 73.962795 
L 387.263125 73.953285 
L 388.263125 73.941631 
L 389.263125 73.910602 
L 390.263125 73.899434 
L 391.263125 73.869317 
L 392.263125 73.80954 
L 393.263125 73.772348 
L 394.263125 73.733252 
L 395.263125 73.690812 
L 396.263125 73.658047 
L 397.263125 73.590621 
L 398.263125 73.551495 
L 399.263125 73.50882 
L 400.263125 73.43824 
L 401.263125 73.401849 
L 402.263125 73.343446 
L 403.263125 73.232493 
L 404.263125 73.161835 
L 405.263125 73.048895 
L 406.263125 73.003122 
L 407.263125 72.941839 
L 408.263125 72.89334 
L 409.263125 72.812517 
L 410.263125 72.693998 
L 411.263125 72.623787 
L 412.263125 72.540525 
L 413.263125 72.507383 
L 414.263125 72.456146 
L 415.263125 72.387747 
L 416.263125 72.321532 
L 417.263125 72.244615 
L 418.263125 72.217299 
L 419.263125 72.190822 
L 420.263125 72.168171 
L 421.263125 72.14864 
L 422.263125 72.122246 
L 423.263125 72.072475 
L 424.263125 72.037402 
L 425.263125 72.001536 
L 426.263125 71.986169 
L 427.263125 71.9704 
L 428.263125 71.966987 
L 429.263125 71.96457 
L 430.263125 71.965056 
L 431.263125 71.966985 
L 432.263125 71.980242 
L 433.263125 71.988633 
L 434.263125 72.010169 
L 435.263125 72.033202 
L 436.263125 72.050435 
L 437.263125 72.068898 
L 438.263125 72.08935 
L 439.263125 72.10595 
L 440.263125 72.168729 
L 441.263125 72.243994 
L 442.263125 72.276633 
L 443.263125 72.344197 
L 444.263125 72.398244 
L 445.263125 72.431948 
L 446.263125 72.522074 
L 447.263125 72.550609 
L 448.263125 72.582095 
L 449.263125 72.613106 
L 450.263125 72.667914 
L 451.263125 72.732501 
L 452.263125 72.770697 
L 453.263125 72.866631 
L 454.263125 72.915889 
L 455.263125 72.959958 
L 456.263125 73.000082 
L 457.263125 73.108449 
L 458.263125 73.150077 
L 459.263125 73.212219 
L 460.263125 73.282181 
L 461.263125 73.386685 
L 462.263125 73.423673 
L 463.263125 73.46955 
L 464.263125 73.538045 
L 465.263125 73.586791 
L 466.263125 73.664388 
L 467.263125 73.694929 
L 468.263125 73.764443 
L 469.263125 73.788416 
L 470.263125 73.817038 
L 471.263125 73.858831 
L 472.263125 73.880407 
L 473.263125 73.894355 
L 474.263125 73.921077 
L 475.263125 73.930387 
L 476.263125 73.942834 
L 477.263125 73.953889 
L 478.263125 73.959553 
L 479.263125 73.964317 
L 480.263125 73.958769 
L 481.263125 73.945481 
L 482.263125 73.937964 
L 483.263125 73.913179 
L 484.263125 73.88961 
L 485.263125 73.85343 
L 486.263125 73.827468 
L 487.263125 73.805146 
L 488.263125 73.736386 
L 489.263125 73.661851 
L 490.263125 73.567872 
L 491.263125 73.51682 
L 492.263125 73.462886 
L 493.263125 73.427635 
L 494.263125 73.321547 
L 495.263125 73.269283 
L 496.263125 73.232376 
L 497.263125 73.201345 
L 498.263125 73.14019 
L 499.263125 73.07277 
L 500.263125 73.023864 
L 501.263125 72.958672 
L 502.263125 72.920484 
L 503.263125 72.878488 
L 504.263125 72.836471 
L 505.263125 72.776955 
L 506.263125 72.663795 
L 507.263125 72.611544 
L 508.263125 72.572126 
L 509.263125 72.525025 
L 510.263125 72.468245 
L 511.263125 72.435582 
L 512.263125 72.399404 
L 513.263125 72.367314 
L 514.263125 72.333034 
L 515.263125 72.274656 
L 516.263125 72.229471 
L 517.263125 72.199847 
L 518.263125 72.149461 
L 519.263125 72.124264 
L 520.263125 72.103213 
L 521.263125 72.068245 
L 522.263125 72.043955 
L 523.263125 72.029888 
L 524.263125 72.010946 
L 525.263125 71.995285 
L 526.263125 71.982733 
L 527.263125 71.976897 
L 528.263125 71.970015 
L 529.263125 71.964841 
L 530.263125 71.966624 
L 531.263125 71.969349 
L 532.263125 71.980503 
L 533.263125 72.008738 
L 534.263125 72.052526 
L 535.263125 72.073215 
L 536.263125 72.114188 
L 537.263125 72.154263 
L 538.263125 72.173373 
L 539.263125 72.195882 
L 540.263125 72.262533 
L 541.263125 72.312243 
L 542.263125 72.385949 
L 543.263125 72.417263 
L 544.263125 72.493885 
L 545.263125 72.532183 
L 546.263125 72.6063 
L 547.263125 72.710358 
L 548.263125 72.780189 
L 549.263125 72.885423 
L 550.263125 72.940438 
L 551.263125 73.063913 
L 552.263125 73.134472 
L 553.263125 73.250311 
L 554.263125 73.300492 
L 555.263125 73.336096 
L 556.263125 73.427503 
L 557.263125 73.481011 
L 558.623174 73.568919 
" clip-path="url(#p1d0811de3a)" style="fill: none; stroke: #ffffff; stroke-width: 3; stroke-linecap: round"/>
         <path d="M 362.263125 72.964375 
L 363.263125 72.995811 
L 364.263125 73.032752 
L 365.263125 73.130498 
L 366.263125 73.16302 
L 367.263125 73.236645 
L 368.263125 73.27521 
L 369.263125 73.310623 
L 370.263125 73.368263 
L 371.263125 73.438649 
L 372.263125 73.490614 
L 373.263125 73.549703 
L 374.263125 73.638024 
L 375.263125 73.684169 
L 376.263125 73.72658 
L 377.263125 73.757072 
L 378.263125 73.783117 
L 379.263125 73.804317 
L 380.263125 73.858618 
L 381.263125 73.886556 
L 382.263125 73.91628 
L 383.263125 73.941675 
L 384.263125 73.952875 
L 385.263125 73.962999 
L 386.263125 73.962795 
L 387.263125 73.953285 
L 388.263125 73.941631 
L 389.263125 73.910602 
L 390.263125 73.899434 
L 391.263125 73.869317 
L 392.263125 73.80954 
L 393.263125 73.772348 
L 394.263125 73.733252 
L 395.263125 73.690812 
L 396.263125 73.658047 
L 397.263125 73.590621 
L 398.263125 73.551495 
L 399.263125 73.50882 
L 400.263125 73.43824 
L 401.263125 73.401849 
L 402.263125 73.343446 
L 403.263125 73.232493 
L 404.263125 73.161835 
L 405.263125 73.048895 
L 406.263125 73.003122 
L 407.263125 72.941839 
L 408.263125 72.89334 
L 409.263125 72.812517 
L 410.263125 72.693998 
L 411.263125 72.623787 
L 412.263125 72.540525 
L 413.263125 72.507383 
L 414.263125 72.456146 
L 415.263125 72.387747 
L 416.263125 72.321532 
L 417.263125 72.244615 
L 418.263125 72.217299 
L 419.263125 72.190822 
L 420.263125 72.168171 
L 421.263125 72.14864 
L 422.263125 72.122246 
L 423.263125 72.072475 
L 424.263125 72.037402 
L 425.263125 72.001536 
L 426.263125 71.986169 
L 427.263125 71.9704 
L 428.263125 71.966987 
L 429.263125 71.96457 
L 430.263125 71.965056 
L 431.263125 71.966985 
L 432.263125 71.980242 
L 433.263125 71.988633 
L 434.263125 72.010169 
L 435.263125 72.033202 
L 436.263125 72.050435 
L 437.263125 72.068898 
L 438.263125 72.08935 
L 439.263125 72.10595 
L 440.263125 72.168729 
L 441.263125 72.243994 
L 442.263125 72.276633 
L 443.263125 72.344197 
L 444.263125 72.398244 
L 445.263125 72.431948 
L 446.263125 72.522074 
L 447.263125 72.550609 
L 448.263125 72.582095 
L 449.263125 72.613106 
L 450.263125 72.667914 
L 451.263125 72.732501 
L 452.263125 72.770697 
L 453.263125 72.866631 
L 454.263125 72.915889 
L 455.263125 72.959958 
L 456.263125 73.000082 
L 457.263125 73.108449 
L 458.263125 73.150077 
L 459.263125 73.212219 
L 460.263125 73.282181 
L 461.263125 73.386685 
L 462.263125 73.423673 
L 463.263125 73.46955 
L 464.263125 73.538045 
L 465.263125 73.586791 
L 466.263125 73.664388 
L 467.263125 73.694929 
L 468.263125 73.764443 
L 469.263125 73.788416 
L 470.263125 73.817038 
L 471.263125 73.858831 
L 472.263125 73.880407 
L 473.263125 73.894355 
L 474.263125 73.921077 
L 475.263125 73.930387 
L 476.263125 73.942834 
L 477.263125 73.953889 
L 478.263125 73.959553 
L 479.263125 73.964317 
L 480.263125 73.958769 
L 481.263125 73.945481 
L 482.263125 73.937964 
L 483.263125 73.913179 
L 484.263125 73.88961 
L 485.263125 73.85343 
L 486.263125 73.827468 
L 487.263125 73.805146 
L 488.263125 73.736386 
L 489.263125 73.661851 
L 490.263125 73.567872 
L 491.263125 73.51682 
L 492.263125 73.462886 
L 493.263125 73.427635 
L 494.263125 73.321547 
L 495.263125 73.269283 
L 496.263125 73.232376 
L 497.263125 73.201345 
L 498.263125 73.14019 
L 499.263125 73.07277 
L 500.263125 73.023864 
L 501.263125 72.958672 
L 502.263125 72.920484 
L 503.263125 72.878488 
L 504.263125 72.836471 
L 505.263125 72.776955 
L 506.263125 72.663795 
L 507.263125 72.611544 
L 508.263125 72.572126 
L 509.263125 72.525025 
L 510.263125 72.468245 
L 511.263125 72.435582 
L 512.263125 72.399404 
L 513.263125 72.367314 
L 514.263125 72.333034 
L 515.263125 72.274656 
L 516.263125 72.229471 
L 517.263125 72.199847 
L 518.263125 72.149461 
L 519.263125 72.124264 
L 520.263125 72.103213 
L 521.263125 72.068245 
L 522.263125 72.043955 
L 523.263125 72.029888 
L 524.263125 72.010946 
L 525.263125 71.995285 
L 526.263125 71.982733 
L 527.263125 71.976897 
L 528.263125 71.970015 
L 529.263125 71.964841 
L 530.263125 71.966624 
L 531.263125 71.969349 
L 532.263125 71.980503 
L 533.263125 72.008738 
L 534.263125 72.052526 
L 535.263125 72.073215 
L 536.263125 72.114188 
L 537.263125 72.154263 
L 538.263125 72.173373 
L 539.263125 72.195882 
L 540.263125 72.262533 
L 541.263125 72.312243 
L 542.263125 72.385949 
L 543.263125 72.417263 
L 544.263125 72.493885 
L 545.263125 72.532183 
L 546.263125 72.6063 
L 547.263125 72.710358 
L 548.263125 72.780189 
L 549.263125 72.885423 
L 550.263125 72.940438 
L 551.263125 73.063913 
L 552.263125 73.134472 
L 553.263125 73.250311 
L 554.263125 73.300492 
L 555.263125 73.336096 
L 556.263125 73.427503 
L 557.263125 73.481011 
L 558.623174 73.568919 
" clip-path="url(#p1d0811de3a)" style="fill: none; stroke: #1f77b4; stroke-linecap: round"/>
         <path d="M 554.623174 70.964375 
L 555.503543 71.439706 
L 556.38145 71.91996 
L 557.232163 72.454601 
L 558.534338 73.142048 
L 557.606984 73.168063 
L 556.69531 73.580783 
L 555.785046 73.996322 
L 554.44255 74.603126 
L 555.097449 73.964375 
L 555.149413 72.964375 
L 555.208503 70.964375 
z
" clip-path="url(#p1d0811de3a)" style="fill: #ffffff; stroke: #ffffff; stroke-width: 3; stroke-linecap: round"/>
         <path d="M 554.623174 70.964375 
L 555.503543 71.439706 
L 556.38145 71.91996 
L 557.232163 72.454601 
L 558.534338 73.142048 
L 557.606984 73.168063 
L 556.69531 73.580783 
L 555.785046 73.996322 
L 554.44255 74.603126 
L 555.097449 73.964375 
L 555.149413 72.964375 
L 555.208503 70.964375 
z
" clip-path="url(#p1d0811de3a)" style="fill: #ffffff; stroke: #1f77b4; stroke-linecap: round"/>
         <g id="patch_9">
          <path d="M 123.891143 160.034665 
L 124.891143 160.066102 
L 125.891143 160.103042 
L 126.891143 160.200789 
L 127.891143 160.23331 
L 128.891143 160.306935 
L 129.891143 160.345501 
L 130.891143 160.380914 
L 131.891143 160.438554 
L 132.891143 160.50894 
L 133.891143 160.560904 
L 134.891143 160.619994 
L 135.891143 160.708315 
L 136.891143 160.754459 
L 137.891143 160.79687 
L 138.891143 160.827363 
L 139.891143 160.853408 
L 140.891143 160.874608 
L 141.891143 160.928909 
L 142.891143 160.956846 
L 143.891143 160.98657 
L 144.891143 161.011965 
L 145.891143 161.023166 
L 146.891143 161.03329 
L 147.891143 161.033085 
L 148.891143 161.023575 
L 149.891143 161.011922 
L 150.891143 160.980892 
L 151.891143 160.969725 
L 152.891143 160.939607 
L 153.891143 160.87983 
L 154.891143 160.842639 
L 155.891143 160.803542 
L 156.891143 160.761103 
L 157.891143 160.728338 
L 158.891143 160.660911 
L 159.891143 160.621785 
L 160.891143 160.579111 
L 161.891143 160.50853 
L 162.891143 160.472139 
L 163.891143 160.413736 
L 164.891143 160.302784 
L 165.891143 160.232125 
L 166.891143 160.119185 
L 167.891143 160.073413 
L 168.891143 160.012129 
L 169.891143 159.96363 
L 170.891143 159.882807 
L 171.891143 159.764288 
L 172.891143 159.694078 
L 173.891143 159.610815 
L 174.891143 159.577674 
L 175.891143 159.526436 
L 176.891143 159.458038 
L 177.891143 159.391822 
L 178.891143 159.314905 
L 179.891143 159.28759 
L 180.891143 159.261112 
L 181.891143 159.238462 
L 182.891143 159.21893 
L 183.891143 159.192536 
L 184.891143 159.142766 
L 185.891143 159.107692 
L 186.891143 159.071827 
L 187.891143 159.05646 
L 188.891143 159.04069 
L 189.891143 159.037278 
L 190.891143 159.03486 
L 191.891143 159.035346 
L 192.891143 159.037276 
L 193.891143 159.050532 
L 194.891143 159.058923 
L 195.891143 159.08046 
L 196.891143 159.103492 
L 197.891143 159.120726 
L 198.891143 159.139188 
L 199.891143 159.159641 
L 200.891143 159.176241 
L 201.891143 159.239019 
L 202.891143 159.314284 
L 203.891143 159.346923 
L 204.891143 159.414487 
L 205.891143 159.468534 
L 206.891143 159.502238 
L 207.891143 159.592364 
L 208.891143 159.620899 
L 209.891143 159.652386 
L 210.891143 159.683396 
L 211.891143 159.738204 
L 212.891143 159.802792 
L 213.891143 159.840987 
L 214.891143 159.936921 
L 215.891143 159.986179 
L 216.891143 160.030249 
L 217.891143 160.070372 
L 218.891143 160.178739 
L 219.891143 160.220368 
L 220.891143 160.282509 
L 221.891143 160.352471 
L 222.891143 160.456976 
L 223.891143 160.493963 
L 224.891143 160.539841 
L 225.891143 160.608335 
L 226.891143 160.657081 
L 227.891143 160.734678 
L 228.891143 160.765219 
L 229.891143 160.834734 
L 230.891143 160.858707 
L 231.891143 160.887328 
L 232.891143 160.929121 
L 233.891143 160.950697 
L 234.891143 160.964645 
L 235.891143 160.991368 
L 236.891143 161.000677 
L 237.891143 161.013124 
L 238.891143 161.024179 
L 239.891143 161.029844 
L 240.891143 161.034607 
L 241.891143 161.02906 
L 242.891143 161.015772 
L 243.891143 161.008254 
L 244.891143 160.983469 
L 245.891143 160.959901 
L 246.891143 160.92372 
L 247.891143 160.897758 
L 248.891143 160.875437 
L 249.891143 160.806677 
L 250.891143 160.732142 
L 251.891143 160.638162 
L 252.891143 160.58711 
L 253.891143 160.533176 
L 254.891143 160.497926 
L 255.891143 160.391838 
L 256.891143 160.339573 
L 257.891143 160.302667 
L 258.891143 160.271636 
L 259.891143 160.21048 
L 260.891143 160.14306 
L 261.891143 160.094154 
L 262.891143 160.028962 
L 263.891143 159.990775 
L 264.891143 159.948779 
L 265.891143 159.906761 
L 266.891143 159.847245 
L 267.891143 159.734085 
L 268.891143 159.681834 
L 269.891143 159.642417 
L 270.891143 159.595315 
L 271.891143 159.538536 
L 272.891143 159.505873 
L 273.891143 159.469695 
L 274.891143 159.437604 
L 275.891143 159.403324 
L 276.891143 159.344947 
L 277.891143 159.299761 
L 278.891143 159.270138 
L 279.891143 159.219752 
L 280.891143 159.194554 
L 281.891143 159.173503 
L 282.891143 159.138535 
L 283.891143 159.114245 
L 284.891143 159.100178 
L 285.891143 159.081237 
L 286.891143 159.065575 
L 287.891143 159.053023 
L 288.891143 159.047188 
L 289.891143 159.040305 
L 290.891143 159.035131 
L 291.891143 159.036914 
L 292.891143 159.03964 
L 293.891143 159.050793 
L 294.891143 159.079028 
L 295.891143 159.122816 
L 296.891143 159.143505 
L 297.891143 159.184479 
L 298.891143 159.224554 
L 299.891143 159.243664 
L 300.891143 159.266172 
L 301.891143 159.332824 
L 302.891143 159.382533 
L 303.891143 159.45624 
L 304.891143 159.487553 
L 305.891143 159.564176 
L 306.891143 159.602474 
L 307.891143 159.67659 
L 308.891143 159.780649 
L 309.891143 159.850479 
L 310.891143 159.955713 
L 311.891143 160.010728 
L 312.891143 160.134203 
L 313.891143 160.204762 
L 314.891143 160.320602 
L 315.891143 160.370782 
L 316.891143 160.406387 
L 317.891143 160.497793 
L 318.891143 160.551301 
L 319.891143 160.639209 
L 320.891143 160.708394 
L 321.891143 160.755159 
L 322.891143 160.827202 
L 323.891143 160.877344 
L 324.891143 160.894734 
L 325.891143 160.921738 
L 326.891143 160.941165 
L 327.891143 160.960503 
L 328.891143 160.998751 
L 329.891143 161.015185 
L 330.891143 161.023553 
L 331.891143 161.027872 
L 332.891143 161.034428 
L 333.891143 161.031881 
L 334.891143 161.026423 
L 335.891143 161.009994 
L 336.891143 160.97806 
L 337.891143 160.940079 
L 338.891143 160.905275 
L 339.891143 160.842204 
L 340.891143 160.820777 
L 341.891143 160.770159 
L 342.891143 160.745201 
L 343.891143 160.689568 
L 344.891143 160.658339 
L 345.891143 160.608195 
L 346.891143 160.575702 
L 347.891143 160.495289 
L 348.891143 160.426363 
L 349.891143 160.310666 
L 350.891143 160.235187 
L 351.891143 160.119662 
L 352.891143 160.040178 
L 353.891143 159.931737 
L 354.891143 159.89237 
L 355.891143 159.789502 
L 356.891143 159.689704 
L 357.891143 159.644207 
L 358.891143 159.609884 
L 359.891143 159.557929 
L 360.891143 159.518282 
L 361.891143 159.482767 
L 362.891143 159.415122 
L 363.891143 159.376041 
L 364.891143 159.325559 
L 365.891143 159.276253 
L 366.891143 159.225184 
L 367.891143 159.180944 
L 368.891143 159.158925 
L 369.891143 159.143368 
L 370.891143 159.100921 
L 371.891143 159.086053 
L 372.891143 159.063326 
L 373.891143 159.043009 
L 374.891143 159.037213 
L 375.891143 159.03473 
L 376.891143 159.037787 
L 377.891143 159.049383 
L 378.891143 159.066303 
L 379.891143 159.097964 
L 380.891143 159.112048 
L 381.891143 159.164719 
L 382.891143 159.213809 
L 383.891143 159.268509 
L 384.891143 159.312857 
L 385.891143 159.382849 
L 386.891143 159.433232 
L 387.891143 159.487139 
L 388.891143 159.556578 
L 389.891143 159.613966 
L 390.891143 159.664131 
L 391.891143 159.741293 
L 392.891143 159.799483 
L 393.891143 159.860122 
L 394.891143 159.897323 
L 395.891143 159.962414 
L 396.891143 160.067544 
L 397.891143 160.127846 
L 398.891143 160.224168 
L 399.891143 160.256171 
L 400.891143 160.307188 
L 401.891143 160.423981 
L 402.891143 160.459427 
L 403.891143 160.515308 
L 404.891143 160.545683 
L 405.891143 160.634069 
L 406.891143 160.678834 
L 407.891143 160.759721 
L 408.891143 160.819867 
L 409.891143 160.882953 
L 410.891143 160.905902 
L 411.891143 160.922072 
L 412.891143 160.951001 
L 413.891143 160.981352 
L 414.891143 160.993927 
L 415.891143 161.018806 
L 416.891143 161.03089 
L 417.891143 161.034651 
L 418.891143 161.030215 
L 419.891143 161.017876 
L 420.891143 161.003463 
L 421.891143 160.98739 
L 422.891143 160.951869 
L 423.891143 160.931935 
L 424.891143 160.875346 
L 425.891143 160.808152 
L 426.891143 160.780782 
L 427.891143 160.746635 
L 428.891143 160.697954 
L 429.891143 160.649669 
L 430.891143 160.590592 
L 431.891143 160.494988 
L 433.69068 160.451847 
" clip-path="url(#p1d0811de3a)" style="fill: none; stroke: #ffffff; stroke-width: 3; stroke-linecap: round"/>
          <path d="M 123.891143 160.034665 
L 124.891143 160.066102 
L 125.891143 160.103042 
L 126.891143 160.200789 
L 127.891143 160.23331 
L 128.891143 160.306935 
L 129.891143 160.345501 
L 130.891143 160.380914 
L 131.891143 160.438554 
L 132.891143 160.50894 
L 133.891143 160.560904 
L 134.891143 160.619994 
L 135.891143 160.708315 
L 136.891143 160.754459 
L 137.891143 160.79687 
L 138.891143 160.827363 
L 139.891143 160.853408 
L 140.891143 160.874608 
L 141.891143 160.928909 
L 142.891143 160.956846 
L 143.891143 160.98657 
L 144.891143 161.011965 
L 145.891143 161.023166 
L 146.891143 161.03329 
L 147.891143 161.033085 
L 148.891143 161.023575 
L 149.891143 161.011922 
L 150.891143 160.980892 
L 151.891143 160.969725 
L 152.891143 160.939607 
L 153.891143 160.87983 
L 154.891143 160.842639 
L 155.891143 160.803542 
L 156.891143 160.761103 
L 157.891143 160.728338 
L 158.891143 160.660911 
L 159.891143 160.621785 
L 160.891143 160.579111 
L 161.891143 160.50853 
L 162.891143 160.472139 
L 163.891143 160.413736 
L 164.891143 160.302784 
L 165.891143 160.232125 
L 166.891143 160.119185 
L 167.891143 160.073413 
L 168.891143 160.012129 
L 169.891143 159.96363 
L 170.891143 159.882807 
L 171.891143 159.764288 
L 172.891143 159.694078 
L 173.891143 159.610815 
L 174.891143 159.577674 
L 175.891143 159.526436 
L 176.891143 159.458038 
L 177.891143 159.391822 
L 178.891143 159.314905 
L 179.891143 159.28759 
L 180.891143 159.261112 
L 181.891143 159.238462 
L 182.891143 159.21893 
L 183.891143 159.192536 
L 184.891143 159.142766 
L 185.891143 159.107692 
L 186.891143 159.071827 
L 187.891143 159.05646 
L 188.891143 159.04069 
L 189.891143 159.037278 
L 190.891143 159.03486 
L 191.891143 159.035346 
L 192.891143 159.037276 
L 193.891143 159.050532 
L 194.891143 159.058923 
L 195.891143 159.08046 
L 196.891143 159.103492 
L 197.891143 159.120726 
L 198.891143 159.139188 
L 199.891143 159.159641 
L 200.891143 159.176241 
L 201.891143 159.239019 
L 202.891143 159.314284 
L 203.891143 159.346923 
L 204.891143 159.414487 
L 205.891143 159.468534 
L 206.891143 159.502238 
L 207.891143 159.592364 
L 208.891143 159.620899 
L 209.891143 159.652386 
L 210.891143 159.683396 
L 211.891143 159.738204 
L 212.891143 159.802792 
L 213.891143 159.840987 
L 214.891143 159.936921 
L 215.891143 159.986179 
L 216.891143 160.030249 
L 217.891143 160.070372 
L 218.891143 160.178739 
L 219.891143 160.220368 
L 220.891143 160.282509 
L 221.891143 160.352471 
L 222.891143 160.456976 
L 223.891143 160.493963 
L 224.891143 160.539841 
L 225.891143 160.608335 
L 226.891143 160.657081 
L 227.891143 160.734678 
L 228.891143 160.765219 
L 229.891143 160.834734 
L 230.891143 160.858707 
L 231.891143 160.887328 
L 232.891143 160.929121 
L 233.891143 160.950697 
L 234.891143 160.964645 
L 235.891143 160.991368 
L 236.891143 161.000677 
L 237.891143 161.013124 
L 238.891143 161.024179 
L 239.891143 161.029844 
L 240.891143 161.034607 
L 241.891143 161.02906 
L 242.891143 161.015772 
L 243.891143 161.008254 
L 244.891143 160.983469 
L 245.891143 160.959901 
L 246.891143 160.92372 
L 247.891143 160.897758 
L 248.891143 160.875437 
L 249.891143 160.806677 
L 250.891143 160.732142 
L 251.891143 160.638162 
L 252.891143 160.58711 
L 253.891143 160.533176 
L 254.891143 160.497926 
L 255.891143 160.391838 
L 256.891143 160.339573 
L 257.891143 160.302667 
L 258.891143 160.271636 
L 259.891143 160.21048 
L 260.891143 160.14306 
L 261.891143 160.094154 
L 262.891143 160.028962 
L 263.891143 159.990775 
L 264.891143 159.948779 
L 265.891143 159.906761 
L 266.891143 159.847245 
L 267.891143 159.734085 
L 268.891143 159.681834 
L 269.891143 159.642417 
L 270.891143 159.595315 
L 271.891143 159.538536 
L 272.891143 159.505873 
L 273.891143 159.469695 
L 274.891143 159.437604 
L 275.891143 159.403324 
L 276.891143 159.344947 
L 277.891143 159.299761 
L 278.891143 159.270138 
L 279.891143 159.219752 
L 280.891143 159.194554 
L 281.891143 159.173503 
L 282.891143 159.138535 
L 283.891143 159.114245 
L 284.891143 159.100178 
L 285.891143 159.081237 
L 286.891143 159.065575 
L 287.891143 159.053023 
L 288.891143 159.047188 
L 289.891143 159.040305 
L 290.891143 159.035131 
L 291.891143 159.036914 
L 292.891143 159.03964 
L 293.891143 159.050793 
L 294.891143 159.079028 
L 295.891143 159.122816 
L 296.891143 159.143505 
L 297.891143 159.184479 
L 298.891143 159.224554 
L 299.891143 159.243664 
L 300.891143 159.266172 
L 301.891143 159.332824 
L 302.891143 159.382533 
L 303.891143 159.45624 
L 304.891143 159.487553 
L 305.891143 159.564176 
L 306.891143 159.602474 
L 307.891143 159.67659 
L 308.891143 159.780649 
L 309.891143 159.850479 
L 310.891143 159.955713 
L 311.891143 160.010728 
L 312.891143 160.134203 
L 313.891143 160.204762 
L 314.891143 160.320602 
L 315.891143 160.370782 
L 316.891143 160.406387 
L 317.891143 160.497793 
L 318.891143 160.551301 
L 319.891143 160.639209 
L 320.891143 160.708394 
L 321.891143 160.755159 
L 322.891143 160.827202 
L 323.891143 160.877344 
L 324.891143 160.894734 
L 325.891143 160.921738 
L 326.891143 160.941165 
L 327.891143 160.960503 
L 328.891143 160.998751 
L 329.891143 161.015185 
L 330.891143 161.023553 
L 331.891143 161.027872 
L 332.891143 161.034428 
L 333.891143 161.031881 
L 334.891143 161.026423 
L 335.891143 161.009994 
L 336.891143 160.97806 
L 337.891143 160.940079 
L 338.891143 160.905275 
L 339.891143 160.842204 
L 340.891143 160.820777 
L 341.891143 160.770159 
L 342.891143 160.745201 
L 343.891143 160.689568 
L 344.891143 160.658339 
L 345.891143 160.608195 
L 346.891143 160.575702 
L 347.891143 160.495289 
L 348.891143 160.426363 
L 349.891143 160.310666 
L 350.891143 160.235187 
L 351.891143 160.119662 
L 352.891143 160.040178 
L 353.891143 159.931737 
L 354.891143 159.89237 
L 355.891143 159.789502 
L 356.891143 159.689704 
L 357.891143 159.644207 
L 358.891143 159.609884 
L 359.891143 159.557929 
L 360.891143 159.518282 
L 361.891143 159.482767 
L 362.891143 159.415122 
L 363.891143 159.376041 
L 364.891143 159.325559 
L 365.891143 159.276253 
L 366.891143 159.225184 
L 367.891143 159.180944 
L 368.891143 159.158925 
L 369.891143 159.143368 
L 370.891143 159.100921 
L 371.891143 159.086053 
L 372.891143 159.063326 
L 373.891143 159.043009 
L 374.891143 159.037213 
L 375.891143 159.03473 
L 376.891143 159.037787 
L 377.891143 159.049383 
L 378.891143 159.066303 
L 379.891143 159.097964 
L 380.891143 159.112048 
L 381.891143 159.164719 
L 382.891143 159.213809 
L 383.891143 159.268509 
L 384.891143 159.312857 
L 385.891143 159.382849 
L 386.891143 159.433232 
L 387.891143 159.487139 
L 388.891143 159.556578 
L 389.891143 159.613966 
L 390.891143 159.664131 
L 391.891143 159.741293 
L 392.891143 159.799483 
L 393.891143 159.860122 
L 394.891143 159.897323 
L 395.891143 159.962414 
L 396.891143 160.067544 
L 397.891143 160.127846 
L 398.891143 160.224168 
L 399.891143 160.256171 
L 400.891143 160.307188 
L 401.891143 160.423981 
L 402.891143 160.459427 
L 403.891143 160.515308 
L 404.891143 160.545683 
L 405.891143 160.634069 
L 406.891143 160.678834 
L 407.891143 160.759721 
L 408.891143 160.819867 
L 409.891143 160.882953 
L 410.891143 160.905902 
L 411.891143 160.922072 
L 412.891143 160.951001 
L 413.891143 160.981352 
L 414.891143 160.993927 
L 415.891143 161.018806 
L 416.891143 161.03089 
L 417.891143 161.034651 
L 418.891143 161.030215 
L 419.891143 161.017876 
L 420.891143 161.003463 
L 421.891143 160.98739 
L 422.891143 160.951869 
L 423.891143 160.931935 
L 424.891143 160.875346 
L 425.891143 160.808152 
L 426.891143 160.780782 
L 427.891143 160.746635 
L 428.891143 160.697954 
L 429.891143 160.649669 
L 430.891143 160.590592 
L 431.891143 160.494988 
L 433.69068 160.451847 
" clip-path="url(#p1d0811de3a)" style="fill: none; stroke: #ff7f0e; stroke-linecap: round"/>
          <path d="M 429.69068 158.034665 
L 430.571048 158.509997 
L 431.448955 158.990251 
L 432.299669 159.524891 
L 433.601843 160.212339 
L 432.67449 160.238354 
L 431.762815 160.651073 
L 430.852551 161.066612 
L 429.510055 161.673417 
L 430.164954 161.034665 
L 430.216918 160.034665 
L 430.276008 158.034665 
z
" clip-path="url(#p1d0811de3a)" style="fill: #ffffff; stroke: #ffffff; stroke-width: 3; stroke-linecap: round"/>
          <path d="M 429.69068 158.034665 
L 430.571048 158.509997 
L 431.448955 158.990251 
L 432.299669 159.524891 
L 433.601843 160.212339 
L 432.67449 160.238354 
L 431.762815 160.651073 
L 430.852551 161.066612 
L 429.510055 161.673417 
L 430.164954 161.034665 
L 430.216918 160.034665 
L 430.276008 158.034665 
z
" clip-path="url(#p1d0811de3a)" style="fill: #ffffff; stroke: #ff7f0e; stroke-linecap: round"/>
          <path d="M 451.282543 301.811512 
" clip-path="url(#p1d0811de3a)" style="fill: none; stroke-dasharray: 3.7,1.6; stroke-dashoffset: 0; stroke: #2ca02c"/>
          <path d="M 450.282543 301.811512 
L 452.282543 302.811512 
L 452.282543 300.811512 
z
" clip-path="url(#p1d0811de3a)" style="fill: #2ca02c; stroke: #2ca02c; stroke-linejoin: miter"/>
          <g id="patch_10">
           <path d="M 63.290625 321.621875 
L 63.290625 10.8 
" style="fill: none; stroke: #000000; stroke-width: 0.8; stroke-linejoin: miter; stroke-linecap: square"/>
          </g>
          <g id="text_10">
           <g id="patch_11">
            <path d="M 301.645709 86.163517 
L 322.950397 86.163517 
Q 324.950397 86.163517 324.950397 84.163517 
L 324.950397 74.485392 
Q 324.950397 72.485392 322.950397 72.485392 
L 301.645709 72.485392 
Q 299.645709 72.485392 299.645709 74.485392 
L 299.645709 84.163517 
Q 299.645709 86.163517 301.645709 86.163517 
z
" style="fill: #ffffff; opacity: 0.6"/>
           </g>
           <!-- ANC -->
           <g transform="translate(301.645709 82.08383) scale(0.1 -0.1)">
            <defs>
             <path id="DejaVuSans-4e" d="M 628 4666 
L 1478 4666 
L 3547 763 
L 3547 4666 
L 4159 4666 
L 4159 0 
L 3309 0 
L 1241 3903 
L 1241 0 
L 628 0 
L 628 4666 
z
" transform="scale(0.015625)"/>
            </defs>
            <use xlink:href="#DejaVuSans-41"/>
            <use xlink:href="#DejaVuSans-4e" x="68.408203"/>
            <use xlink:href="#DejaVuSans-43" x="143.212891"/>
           </g>
          </g>
         </g>
        </g>
        <defs>
         <clipPath id="p1d0811de3a">
          <rect x="63.290625" y="10.8" width="540.309375" height="310.821875"/>
         </clipPath>
        </defs>
       </g>
      </g>
     </g>
    </g>
   </g>
  </g>
 </g>
</svg>
