<?xml version="1.0" encoding="utf-8" standalone="no"?>
<!DOCTYPE svg PUBLIC "-//W3C//DTD SVG 1.1//EN"
  "http://www.w3.org/Graphics/SVG/1.1/DTD/svg11.dtd">
<svg xmlns:xlink="http://www.w3.org/1999/xlink" width="614.4pt" height="345.6pt" viewBox="0 0 614.4 345.6" xmlns="http://www.w3.org/2000/svg" version="1.1">
 <metadata>
  <rdf:RDF xmlns:dc="http://purl.org/dc/elements/1.1/" xmlns:cc="http://creativecommons.org/ns#" xmlns:rdf="http://www.w3.org/1999/02/22-rdf-syntax-ns#">
   <cc:Work>
    <dc:type rdf:resource="http://purl.org/dc/dcmitype/StillImage"/>
    <dc:date>2024-04-17T19:40:16.363035</dc:date>
    <dc:format>image/svg+xml</dc:format>
    <dc:creator>
     <cc:Agent>
      <dc:title>Matplotlib v3.7.1, https://matplotlib.org/</dc:title>
     </cc:Agent>
    </dc:creator>
   </cc:Work>
  </rdf:RDF>
 </metadata>
 <defs>
  <style type="text/css">*{stroke-linejoin: round; stroke-linecap: butt}</style>
 </defs>
 <g id="figure_1">
  <g id="patch_1">
   <path d="M 0 345.6 
L 614.4 345.6 
L 614.4 0 
L 0 0 
z
" style="fill: #ffffff"/>
  </g>
  <g id="axes_1">
   <g id="patch_2">
    <path d="M 63.290625 321.621875 
L 603.6 321.621875 
L 603.6 10.8 
L 63.290625 10.8 
z
" style="fill: #ffffff"/>
   </g>
   <path d="M 553.643899 289.084845 
L 552.643899 289.053409 
L 551.643899 289.016468 
L 550.643899 288.918722 
L 549.643899 288.8862 
L 548.643899 288.812575 
L 547.643899 288.77401 
L 546.643899 288.738597 
L 545.643899 288.680957 
L 544.643899 288.610571 
L 543.643899 288.558606 
L 542.643899 288.499517 
L 541.643899 288.411196 
L 540.643899 288.365051 
L 539.643899 288.32264 
L 538.643899 288.292148 
L 537.643899 288.266103 
L 536.643899 288.244903 
L 535.643899 288.190602 
L 534.643899 288.162664 
L 533.643899 288.13294 
L 532.643899 288.107545 
L 531.643899 288.096345 
L 530.643899 288.086221 
L 529.643899 288.086425 
L 528.643899 288.095935 
L 527.643899 288.107589 
L 526.643899 288.138618 
L 525.643899 288.149786 
L 524.643899 288.179903 
L 523.643899 288.23968 
L 522.643899 288.276872 
L 521.643899 288.315968 
L 520.643899 288.358408 
L 519.643899 288.391173 
L 518.643899 288.458599 
L 517.643899 288.497725 
L 516.643899 288.5404 
L 515.643899 288.61098 
L 514.643899 288.647371 
L 513.643899 288.705774 
L 512.643899 288.816727 
L 511.643899 288.887385 
L 510.643899 289.000325 
L 509.643899 289.046098 
L 508.643899 289.107381 
L 507.643899 289.15588 
L 506.643899 289.236703 
L 505.643899 289.355222 
L 504.643899 289.425433 
L 503.643899 289.508695 
L 502.643899 289.541837 
L 501.643899 289.593074 
L 500.643899 289.661473 
L 499.643899 289.727688 
L 498.643899 289.804605 
L 497.643899 289.831921 
L 496.643899 289.858398 
L 495.643899 289.881049 
L 494.643899 289.90058 
L 493.643899 289.926974 
L 492.643899 289.976745 
L 491.643899 290.011818 
L 490.643899 290.047684 
L 489.643899 290.063051 
L 488.643899 290.07882 
L 487.643899 290.082233 
L 486.643899 290.08465 
L 485.643899 290.084164 
L 484.643899 290.082235 
L 483.643899 290.068978 
L 482.643899 290.060587 
L 481.643899 290.039051 
L 480.643899 290.016018 
L 479.643899 289.998785 
L 478.643899 289.980322 
L 477.643899 289.95987 
L 476.643899 289.94327 
L 475.643899 289.880491 
L 474.643899 289.805226 
L 473.643899 289.772587 
L 472.643899 289.705023 
L 471.643899 289.650976 
L 470.643899 289.617272 
L 469.643899 289.527146 
L 468.643899 289.498611 
L 467.643899 289.467125 
L 466.643899 289.436114 
L 465.643899 289.381306 
L 464.643899 289.316719 
L 463.643899 289.278523 
L 462.643899 289.182589 
L 461.643899 289.133331 
L 460.148047 289.089262 
" clip-path="url(#pd8029d6b8a)" style="fill: none; stroke-dasharray: 3.7,1.6; stroke-dashoffset: 0; stroke: #2ca02c"/>
   <g id="patch_3">
    <path d="M 294.152341 10.8 
L 294.152341 263.964029 
M 373.401031 10.8 
L 373.401031 263.964029 
" clip-path="url(#pd8029d6b8a)" style="fill: none; stroke: #ffffff; stroke-width: 3; stroke-linejoin: miter"/>
    <path d="M 294.152341 10.8 
L 294.152341 263.964029 
M 373.401031 10.8 
L 373.401031 263.964029 
" clip-path="url(#pd8029d6b8a)" style="fill: none; stroke: #1f77b4; stroke-linejoin: miter"/>
    <g id="PolyCollection_1">
     <path d="M 373.401031 10.8 
L 294.152341 10.8 
L 294.152341 263.964029 
L 373.401031 263.964029 
L 373.401031 263.964029 
L 373.401031 10.8 
z
" clip-path="url(#pd8029d6b8a)" style="fill: #1f77b4; fill-opacity: 0.5"/>
    </g>
    <g id="patch_4">
     <path d="M 145.901546 263.964029 
L 145.901546 311.654998 
L 145.901546 311.654998 
L 143.363997 312.762429 
L 140.262838 313.86986 
L 136.472887 314.97729 
L 131.841158 316.084721 
L 126.180686 317.192152 
L 119.262979 318.299583 
L 110.808795 319.407013 
L 100.476869 320.514444 
L 87.850142 321.621875 
M 168.751249 263.964029 
L 168.751249 311.654998 
L 168.751249 311.654998 
L 171.288798 312.762429 
L 174.389957 313.86986 
L 178.179908 314.97729 
L 182.811636 316.084721 
L 188.472108 317.192152 
L 195.389816 318.299583 
L 203.844 319.407013 
L 214.175926 320.514444 
L 226.802653 321.621875 
L 226.802653 321.621875 
" clip-path="url(#pd8029d6b8a)" style="fill: none; stroke: #ffffff; stroke-width: 3; stroke-linejoin: miter"/>
     <path d="M 145.901546 263.964029 
L 145.901546 311.654998 
L 145.901546 311.654998 
L 143.363997 312.762429 
L 140.262838 313.86986 
L 136.472887 314.97729 
L 131.841158 316.084721 
L 126.180686 317.192152 
L 119.262979 318.299583 
L 110.808795 319.407013 
L 100.476869 320.514444 
L 87.850142 321.621875 
M 168.751249 263.964029 
L 168.751249 311.654998 
L 168.751249 311.654998 
L 171.288798 312.762429 
L 174.389957 313.86986 
L 178.179908 314.97729 
L 182.811636 316.084721 
L 188.472108 317.192152 
L 195.389816 318.299583 
L 203.844 319.407013 
L 214.175926 320.514444 
L 226.802653 321.621875 
L 226.802653 321.621875 
" clip-path="url(#pd8029d6b8a)" style="fill: none; stroke: #ff7f0e; stroke-linejoin: miter"/>
     <g id="PolyCollection_2">
      <path d="M 168.751249 263.964029 
L 145.901546 263.964029 
L 145.901546 311.654998 
L 145.901546 311.654998 
L 145.691311 311.755674 
L 145.477208 311.856349 
L 145.259164 311.957025 
L 145.037109 312.0577 
L 144.810967 312.158376 
L 144.580663 312.259051 
L 144.346122 312.359727 
L 144.107265 312.460402 
L 143.864013 312.561078 
L 143.616284 312.661753 
L 143.363997 312.762429 
L 143.107067 312.863104 
L 142.845409 312.96378 
L 142.578937 313.064456 
L 142.307561 313.165131 
L 142.031191 313.265807 
L 141.749736 313.366482 
L 141.463101 313.467158 
L 141.171192 313.567833 
L 140.873911 313.668509 
L 140.57116 313.769184 
L 140.262838 313.86986 
L 139.948842 313.970535 
L 139.629068 314.071211 
L 139.30341 314.171886 
L 138.971759 314.272562 
L 138.634006 314.373237 
L 138.290037 314.473913 
L 137.939738 314.574588 
L 137.582994 314.675264 
L 137.219685 314.775939 
L 136.84969 314.876615 
L 136.472887 314.97729 
L 136.08915 315.077966 
L 135.698352 315.178642 
L 135.300363 315.279317 
L 134.89505 315.379993 
L 134.482278 315.480668 
L 134.061911 315.581344 
L 133.633809 315.682019 
L 133.197829 315.782695 
L 132.753826 315.88337 
L 132.301652 315.984046 
L 131.841158 316.084721 
L 131.372191 316.185397 
L 130.894593 316.286072 
L 130.408207 316.386748 
L 129.912871 316.487423 
L 129.40842 316.588099 
L 128.894686 316.688774 
L 128.371499 316.78945 
L 127.838684 316.890125 
L 127.296064 316.990801 
L 126.74346 317.091476 
L 126.180686 317.192152 
L 125.607557 317.292828 
L 125.023882 317.393503 
L 124.429466 317.494179 
L 123.824111 317.594854 
L 123.207617 317.69553 
L 122.579779 317.796205 
L 121.940388 317.896881 
L 121.289231 317.997556 
L 120.626091 318.098232 
L 119.950749 318.198907 
L 119.262979 318.299583 
L 118.562554 318.400258 
L 117.849239 318.500934 
L 117.122798 318.601609 
L 116.38299 318.702285 
L 115.629568 318.80296 
L 114.862282 318.903636 
L 114.080877 319.004311 
L 113.285092 319.104987 
L 112.474664 319.205662 
L 111.649323 319.306338 
L 110.808795 319.407013 
L 109.952799 319.507689 
L 109.081052 319.608365 
L 108.193263 319.70904 
L 107.289137 319.809716 
L 106.368374 319.910391 
L 105.430668 320.011067 
L 104.475707 320.111742 
L 103.503172 320.212418 
L 102.512742 320.313093 
L 101.504086 320.413769 
L 100.476869 320.514444 
L 99.43075 320.61512 
L 98.365381 320.715795 
L 97.280407 320.816471 
L 96.175468 320.917146 
L 95.050197 321.017822 
L 93.904219 321.118497 
L 92.737153 321.219173 
L 91.548611 321.319848 
L 90.338198 321.420524 
L 89.105512 321.521199 
L 87.850142 321.621875 
L 226.802653 321.621875 
L 226.802653 321.621875 
L 225.547283 321.521199 
L 224.314597 321.420524 
L 223.104184 321.319848 
L 221.915642 321.219173 
L 220.748576 321.118497 
L 219.602598 321.017822 
L 218.477327 320.917146 
L 217.372388 320.816471 
L 216.287414 320.715795 
L 215.222045 320.61512 
L 214.175926 320.514444 
L 213.148709 320.413769 
L 212.140053 320.313093 
L 211.149623 320.212418 
L 210.177088 320.111742 
L 209.222127 320.011067 
L 208.28442 319.910391 
L 207.363658 319.809716 
L 206.459532 319.70904 
L 205.571743 319.608365 
L 204.699996 319.507689 
L 203.844 319.407013 
L 203.003472 319.306338 
L 202.17813 319.205662 
L 201.367702 319.104987 
L 200.571918 319.004311 
L 199.790513 318.903636 
L 199.023227 318.80296 
L 198.269805 318.702285 
L 197.529997 318.601609 
L 196.803556 318.500934 
L 196.090241 318.400258 
L 195.389816 318.299583 
L 194.702046 318.198907 
L 194.026704 318.098232 
L 193.363564 317.997556 
L 192.712407 317.896881 
L 192.073016 317.796205 
L 191.445177 317.69553 
L 190.828684 317.594854 
L 190.223329 317.494179 
L 189.628913 317.393503 
L 189.045238 317.292828 
L 188.472108 317.192152 
L 187.909335 317.091476 
L 187.356731 316.990801 
L 186.814111 316.890125 
L 186.281296 316.78945 
L 185.758109 316.688774 
L 185.244375 316.588099 
L 184.739924 316.487423 
L 184.244588 316.386748 
L 183.758202 316.286072 
L 183.280604 316.185397 
L 182.811636 316.084721 
L 182.351142 315.984046 
L 181.898969 315.88337 
L 181.454966 315.782695 
L 181.018986 315.682019 
L 180.590884 315.581344 
L 180.170517 315.480668 
L 179.757745 315.379993 
L 179.352432 315.279317 
L 178.954443 315.178642 
L 178.563645 315.077966 
L 178.179908 314.97729 
L 177.803105 314.876615 
L 177.43311 314.775939 
L 177.069801 314.675264 
L 176.713057 314.574588 
L 176.362758 314.473913 
L 176.018789 314.373237 
L 175.681036 314.272562 
L 175.349385 314.171886 
L 175.023727 314.071211 
L 174.703953 313.970535 
L 174.389957 313.86986 
L 174.081635 313.769184 
L 173.778884 313.668509 
L 173.481603 313.567833 
L 173.189694 313.467158 
L 172.903059 313.366482 
L 172.621604 313.265807 
L 172.345234 313.165131 
L 172.073858 313.064456 
L 171.807385 312.96378 
L 171.545728 312.863104 
L 171.288798 312.762429 
L 171.036511 312.661753 
L 170.788782 312.561078 
L 170.54553 312.460402 
L 170.306673 312.359727 
L 170.072131 312.259051 
L 169.841828 312.158376 
L 169.615686 312.0577 
L 169.393631 311.957025 
L 169.175587 311.856349 
L 168.961484 311.755674 
L 168.751249 311.654998 
L 168.751249 311.654998 
L 168.751249 263.964029 
z
" clip-path="url(#pd8029d6b8a)" style="fill: #ff7f0e; fill-opacity: 0.5"/>
     </g>
     <g id="patch_5">
      <path d="M 559.046993 72.964375 
L 559.046993 321.621875 
M 579.040483 72.964375 
L 579.040483 321.621875 
" clip-path="url(#pd8029d6b8a)" style="fill: none; stroke: #ffffff; stroke-width: 3; stroke-linejoin: miter"/>
      <path d="M 559.046993 72.964375 
L 559.046993 321.621875 
M 579.040483 72.964375 
L 579.040483 321.621875 
" clip-path="url(#pd8029d6b8a)" style="fill: none; stroke: #2ca02c; stroke-linejoin: miter"/>
      <g id="PolyCollection_3">
       <path d="M 579.040483 72.964375 
L 559.046993 72.964375 
L 559.046993 321.621875 
L 579.040483 321.621875 
L 579.040483 321.621875 
L 579.040483 72.964375 
z
" clip-path="url(#pd8029d6b8a)" style="fill: #2ca02c; fill-opacity: 0.5"/>
      </g>
      <g id="patch_6">
       <path d="M 448.075472 263.964029 
L 448.075472 271.508847 
L 450.875607 271.508847 
L 450.875607 273.116408 
L 448.075472 273.116408 
L 447.96884 298.709642 
L 446.983432 302.488979 
L 445.892301 305.795899 
L 444.639618 308.866611 
L 443.23227 311.701114 
L 441.686625 314.299409 
L 440.029375 316.661495 
L 438.089669 319.02358 
L 436.06281 321.149458 
L 435.572063 321.621875 
M 454.744953 263.964029 
L 454.744953 271.508847 
L 451.944817 271.508847 
L 451.944817 273.116408 
L 454.744953 273.116408 
L 454.851584 298.709642 
L 455.836992 302.488979 
L 456.928124 305.795899 
L 458.180806 308.866611 
L 459.588154 311.701114 
L 461.133799 314.299409 
L 462.79105 316.661495 
L 464.730755 319.02358 
L 466.757614 321.149458 
L 467.248361 321.621875 
L 467.248361 321.621875 
" clip-path="url(#pd8029d6b8a)" style="fill: none; stroke: #ffffff; stroke-width: 3; stroke-linejoin: miter"/>
       <path d="M 448.075472 263.964029 
L 448.075472 271.508847 
L 450.875607 271.508847 
L 450.875607 273.116408 
L 448.075472 273.116408 
L 447.96884 298.709642 
L 446.983432 302.488979 
L 445.892301 305.795899 
L 444.639618 308.866611 
L 443.23227 311.701114 
L 441.686625 314.299409 
L 440.029375 316.661495 
L 438.089669 319.02358 
L 436.06281 321.149458 
L 435.572063 321.621875 
M 454.744953 263.964029 
L 454.744953 271.508847 
L 451.944817 271.508847 
L 451.944817 273.116408 
L 454.744953 273.116408 
L 454.851584 298.709642 
L 455.836992 302.488979 
L 456.928124 305.795899 
L 458.180806 308.866611 
L 459.588154 311.701114 
L 461.133799 314.299409 
L 462.79105 316.661495 
L 464.730755 319.02358 
L 466.757614 321.149458 
L 467.248361 321.621875 
L 467.248361 321.621875 
" clip-path="url(#pd8029d6b8a)" style="fill: none; stroke: #d62728; stroke-linejoin: miter"/>
       <g id="PolyCollection_4">
        <path d="M 454.744953 263.964029 
L 448.075472 263.964029 
L 448.075472 271.508847 
L 450.875607 271.508847 
L 450.875607 273.116408 
L 448.075472 273.116408 
L 448.075472 298.237224 
L 448.075472 298.237224 
L 448.022575 298.473433 
L 447.96884 298.709642 
L 447.914253 298.94585 
L 447.858799 299.182059 
L 447.802466 299.418267 
L 447.74524 299.654476 
L 447.687106 299.890684 
L 447.628049 300.126893 
L 447.568056 300.363102 
L 447.507111 300.59931 
L 447.4452 300.835519 
L 447.382306 301.071727 
L 447.318415 301.307936 
L 447.25351 301.544145 
L 447.187576 301.780353 
L 447.120596 302.016562 
L 447.052554 302.25277 
L 446.983432 302.488979 
L 446.913214 302.725188 
L 446.841882 302.961396 
L 446.769419 303.197605 
L 446.695806 303.433813 
L 446.621025 303.670022 
L 446.545058 303.906231 
L 446.467887 304.142439 
L 446.389491 304.378648 
L 446.309852 304.614856 
L 446.228949 304.851065 
L 446.146763 305.087274 
L 446.063274 305.323482 
L 445.97846 305.559691 
L 445.892301 305.795899 
L 445.804775 306.032108 
L 445.715861 306.268316 
L 445.625536 306.504525 
L 445.533779 306.740734 
L 445.440566 306.976942 
L 445.345875 307.213151 
L 445.249681 307.449359 
L 445.151962 307.685568 
L 445.052693 307.921777 
L 444.951849 308.157985 
L 444.849406 308.394194 
L 444.745337 308.630402 
L 444.639618 308.866611 
L 444.532222 309.10282 
L 444.423123 309.339028 
L 444.312292 309.575237 
L 444.199704 309.811445 
L 444.08533 310.047654 
L 443.969142 310.283863 
L 443.851111 310.520071 
L 443.731207 310.75628 
L 443.609402 310.992488 
L 443.485665 311.228697 
L 443.359964 311.464906 
L 443.23227 311.701114 
L 443.102551 311.937323 
L 442.970773 312.173531 
L 442.836906 312.40974 
L 442.700915 312.645948 
L 442.562767 312.882157 
L 442.422428 313.118366 
L 442.279862 313.354574 
L 442.135035 313.590783 
L 441.987911 313.826991 
L 441.838454 314.0632 
L 441.686625 314.299409 
L 441.532388 314.535617 
L 441.375705 314.771826 
L 441.216536 315.008034 
L 441.054843 315.244243 
L 440.890585 315.480452 
L 440.723721 315.71666 
L 440.55421 315.952869 
L 440.382011 316.189077 
L 440.20708 316.425286 
L 440.029375 316.661495 
L 439.84885 316.897703 
L 439.665463 317.133912 
L 439.479166 317.37012 
L 439.289914 317.606329 
L 439.09766 317.842538 
L 438.902357 318.078746 
L 438.703956 318.314955 
L 438.502407 318.551163 
L 438.297662 318.787372 
L 438.089669 319.02358 
L 437.878377 319.259789 
L 437.663733 319.495998 
L 437.445685 319.732206 
L 437.224177 319.968415 
L 436.999157 320.204623 
L 436.770567 320.440832 
L 436.538351 320.677041 
L 436.302451 320.913249 
L 436.06281 321.149458 
L 435.819367 321.385666 
L 435.572063 321.621875 
L 467.248361 321.621875 
L 467.248361 321.621875 
L 467.001057 321.385666 
L 466.757614 321.149458 
L 466.517973 320.913249 
L 466.282074 320.677041 
L 466.049858 320.440832 
L 465.821268 320.204623 
L 465.596247 319.968415 
L 465.37474 319.732206 
L 465.156691 319.495998 
L 464.942047 319.259789 
L 464.730755 319.02358 
L 464.522762 318.787372 
L 464.318017 318.551163 
L 464.116469 318.314955 
L 463.918067 318.078746 
L 463.722764 317.842538 
L 463.53051 317.606329 
L 463.341259 317.37012 
L 463.154962 317.133912 
L 462.971574 316.897703 
L 462.79105 316.661495 
L 462.613344 316.425286 
L 462.438413 316.189077 
L 462.266214 315.952869 
L 462.096703 315.71666 
L 461.92984 315.480452 
L 461.765581 315.244243 
L 461.603888 315.008034 
L 461.444719 314.771826 
L 461.288036 314.535617 
L 461.133799 314.299409 
L 460.981971 314.0632 
L 460.832513 313.826991 
L 460.685389 313.590783 
L 460.540562 313.354574 
L 460.397997 313.118366 
L 460.257657 312.882157 
L 460.119509 312.645948 
L 459.983518 312.40974 
L 459.849651 312.173531 
L 459.717874 311.937323 
L 459.588154 311.701114 
L 459.46046 311.464906 
L 459.33476 311.228697 
L 459.211022 310.992488 
L 459.089217 310.75628 
L 458.969313 310.520071 
L 458.851282 310.283863 
L 458.735094 310.047654 
L 458.62072 309.811445 
L 458.508132 309.575237 
L 458.397302 309.339028 
L 458.288202 309.10282 
L 458.180806 308.866611 
L 458.075087 308.630402 
L 457.971019 308.394194 
L 457.868575 308.157985 
L 457.767731 307.921777 
L 457.668462 307.685568 
L 457.570743 307.449359 
L 457.47455 307.213151 
L 457.379858 306.976942 
L 457.286646 306.740734 
L 457.194888 306.504525 
L 457.104564 306.268316 
L 457.01565 306.032108 
L 456.928124 305.795899 
L 456.841965 305.559691 
L 456.757151 305.323482 
L 456.673661 305.087274 
L 456.591475 304.851065 
L 456.510573 304.614856 
L 456.430933 304.378648 
L 456.352538 304.142439 
L 456.275366 303.906231 
L 456.199399 303.670022 
L 456.124619 303.433813 
L 456.051006 303.197605 
L 455.978542 302.961396 
L 455.90721 302.725188 
L 455.836992 302.488979 
L 455.76787 302.25277 
L 455.699828 302.016562 
L 455.632848 301.780353 
L 455.566914 301.544145 
L 455.502009 301.307936 
L 455.438118 301.071727 
L 455.375225 300.835519 
L 455.313313 300.59931 
L 455.252368 300.363102 
L 455.192375 300.126893 
L 455.133319 299.890684 
L 455.075184 299.654476 
L 455.017958 299.418267 
L 454.961625 299.182059 
L 454.906172 298.94585 
L 454.851584 298.709642 
L 454.797849 298.473433 
L 454.744953 298.237224 
L 454.744953 298.237224 
L 454.744953 273.116408 
L 451.944817 273.116408 
L 451.944817 271.508847 
L 454.744953 271.508847 
L 454.744953 263.964029 
z
" clip-path="url(#pd8029d6b8a)" style="fill: #d62728; fill-opacity: 0.5"/>
       </g>
       <g id="matplotlib.axis_1">
        <g id="xtick_1">
         <g id="line2d_1"/>
         <g id="text_1">
          <!-- OUT -->
          <g transform="translate(146.677179 332.720312) scale(0.1 -0.1)">
           <defs>
            <path id="DejaVuSans-4f" d="M 2522 4238 
Q 1834 4238 1429 3725 
Q 1025 3213 1025 2328 
Q 1025 1447 1429 934 
Q 1834 422 2522 422 
Q 3209 422 3611 934 
Q 4013 1447 4013 2328 
Q 4013 3213 3611 3725 
Q 3209 4238 2522 4238 
z
M 2522 4750 
Q 3503 4750 4090 4092 
Q 4678 3434 4678 2328 
Q 4678 1225 4090 567 
Q 3503 -91 2522 -91 
Q 1538 -91 948 565 
Q 359 1222 359 2328 
Q 359 3434 948 4092 
Q 1538 4750 2522 4750 
z
" transform="scale(0.015625)"/>
            <path id="DejaVuSans-55" d="M 556 4666 
L 1191 4666 
L 1191 1831 
Q 1191 1081 1462 751 
Q 1734 422 2344 422 
Q 2950 422 3222 751 
Q 3494 1081 3494 1831 
L 3494 4666 
L 4128 4666 
L 4128 1753 
Q 4128 841 3676 375 
Q 3225 -91 2344 -91 
Q 1459 -91 1007 375 
Q 556 841 556 1753 
L 556 4666 
z
" transform="scale(0.015625)"/>
            <path id="DejaVuSans-54" d="M -19 4666 
L 3928 4666 
L 3928 4134 
L 2272 4134 
L 2272 0 
L 1638 0 
L 1638 4134 
L -19 4134 
L -19 4666 
z
" transform="scale(0.015625)"/>
           </defs>
           <use xlink:href="#DejaVuSans-4f"/>
           <use xlink:href="#DejaVuSans-55" x="78.710938"/>
           <use xlink:href="#DejaVuSans-54" x="151.904297"/>
          </g>
         </g>
        </g>
        <g id="xtick_2">
         <g id="line2d_2"/>
         <g id="text_2">
          <!-- SRC -->
          <g transform="translate(559.153894 332.720312) scale(0.1 -0.1)">
           <defs>
            <path id="DejaVuSans-53" d="M 3425 4513 
L 3425 3897 
Q 3066 4069 2747 4153 
Q 2428 4238 2131 4238 
Q 1616 4238 1336 4038 
Q 1056 3838 1056 3469 
Q 1056 3159 1242 3001 
Q 1428 2844 1947 2747 
L 2328 2669 
Q 3034 2534 3370 2195 
Q 3706 1856 3706 1288 
Q 3706 609 3251 259 
Q 2797 -91 1919 -91 
Q 1588 -91 1214 -16 
Q 841 59 441 206 
L 441 856 
Q 825 641 1194 531 
Q 1563 422 1919 422 
Q 2459 422 2753 634 
Q 3047 847 3047 1241 
Q 3047 1584 2836 1778 
Q 2625 1972 2144 2069 
L 1759 2144 
Q 1053 2284 737 2584 
Q 422 2884 422 3419 
Q 422 4038 858 4394 
Q 1294 4750 2059 4750 
Q 2388 4750 2728 4690 
Q 3069 4631 3425 4513 
z
" transform="scale(0.015625)"/>
            <path id="DejaVuSans-52" d="M 2841 2188 
Q 3044 2119 3236 1894 
Q 3428 1669 3622 1275 
L 4263 0 
L 3584 0 
L 2988 1197 
Q 2756 1666 2539 1819 
Q 2322 1972 1947 1972 
L 1259 1972 
L 1259 0 
L 628 0 
L 628 4666 
L 2053 4666 
Q 2853 4666 3247 4331 
Q 3641 3997 3641 3322 
Q 3641 2881 3436 2590 
Q 3231 2300 2841 2188 
z
M 1259 4147 
L 1259 2491 
L 2053 2491 
Q 2509 2491 2742 2702 
Q 2975 2913 2975 3322 
Q 2975 3731 2742 3939 
Q 2509 4147 2053 4147 
L 1259 4147 
z
" transform="scale(0.015625)"/>
            <path id="DejaVuSans-43" d="M 4122 4306 
L 4122 3641 
Q 3803 3938 3442 4084 
Q 3081 4231 2675 4231 
Q 1875 4231 1450 3742 
Q 1025 3253 1025 2328 
Q 1025 1406 1450 917 
Q 1875 428 2675 428 
Q 3081 428 3442 575 
Q 3803 722 4122 1019 
L 4122 359 
Q 3791 134 3420 21 
Q 3050 -91 2638 -91 
Q 1578 -91 968 557 
Q 359 1206 359 2328 
Q 359 3453 968 4101 
Q 1578 4750 2638 4750 
Q 3056 4750 3426 4639 
Q 3797 4528 4122 4306 
z
" transform="scale(0.015625)"/>
           </defs>
           <use xlink:href="#DejaVuSans-53"/>
           <use xlink:href="#DejaVuSans-52" x="63.476562"/>
           <use xlink:href="#DejaVuSans-43" x="127.958984"/>
          </g>
         </g>
        </g>
        <g id="xtick_3">
         <g id="line2d_3"/>
         <g id="text_3">
          <!-- TAR -->
          <g transform="translate(441.849275 332.720312) scale(0.1 -0.1)">
           <defs>
            <path id="DejaVuSans-41" d="M 2188 4044 
L 1331 1722 
L 3047 1722 
L 2188 4044 
z
M 1831 4666 
L 2547 4666 
L 4325 0 
L 3669 0 
L 3244 1197 
L 1141 1197 
L 716 0 
L 50 0 
L 1831 4666 
z
" transform="scale(0.015625)"/>
           </defs>
           <use xlink:href="#DejaVuSans-54"/>
           <use xlink:href="#DejaVuSans-41" x="53.333984"/>
           <use xlink:href="#DejaVuSans-52" x="121.742188"/>
          </g>
         </g>
        </g>
       </g>
       <g id="matplotlib.axis_2">
        <g id="ytick_1">
         <g id="line2d_4">
          <defs>
           <path id="mcfd496eb32" d="M 0 0 
L -3.5 0 
" style="stroke: #000000; stroke-width: 0.8"/>
          </defs>
          <g>
           <use xlink:href="#mcfd496eb32" x="63.290625" y="321.621875" style="stroke: #000000; stroke-width: 0.8"/>
          </g>
         </g>
         <g id="text_4">
          <!-- 0 -->
          <g transform="translate(49.928125 325.421094) scale(0.1 -0.1)">
           <defs>
            <path id="DejaVuSans-30" d="M 2034 4250 
Q 1547 4250 1301 3770 
Q 1056 3291 1056 2328 
Q 1056 1369 1301 889 
Q 1547 409 2034 409 
Q 2525 409 2770 889 
Q 3016 1369 3016 2328 
Q 3016 3291 2770 3770 
Q 2525 4250 2034 4250 
z
M 2034 4750 
Q 2819 4750 3233 4129 
Q 3647 3509 3647 2328 
Q 3647 1150 3233 529 
Q 2819 -91 2034 -91 
Q 1250 -91 836 529 
Q 422 1150 422 2328 
Q 422 3509 836 4129 
Q 1250 4750 2034 4750 
z
" transform="scale(0.015625)"/>
           </defs>
           <use xlink:href="#DejaVuSans-30"/>
          </g>
         </g>
        </g>
        <g id="ytick_2">
         <g id="line2d_5">
          <g>
           <use xlink:href="#mcfd496eb32" x="63.290625" y="278.753588" style="stroke: #000000; stroke-width: 0.8"/>
          </g>
         </g>
         <g id="text_5">
          <!-- 2000 -->
          <g transform="translate(30.840625 282.552807) scale(0.1 -0.1)">
           <defs>
            <path id="DejaVuSans-32" d="M 1228 531 
L 3431 531 
L 3431 0 
L 469 0 
L 469 531 
Q 828 903 1448 1529 
Q 2069 2156 2228 2338 
Q 2531 2678 2651 2914 
Q 2772 3150 2772 3378 
Q 2772 3750 2511 3984 
Q 2250 4219 1831 4219 
Q 1534 4219 1204 4116 
Q 875 4013 500 3803 
L 500 4441 
Q 881 4594 1212 4672 
Q 1544 4750 1819 4750 
Q 2544 4750 2975 4387 
Q 3406 4025 3406 3419 
Q 3406 3131 3298 2873 
Q 3191 2616 2906 2266 
Q 2828 2175 2409 1742 
Q 1991 1309 1228 531 
z
" transform="scale(0.015625)"/>
           </defs>
           <use xlink:href="#DejaVuSans-32"/>
           <use xlink:href="#DejaVuSans-30" x="63.623047"/>
           <use xlink:href="#DejaVuSans-30" x="127.246094"/>
           <use xlink:href="#DejaVuSans-30" x="190.869141"/>
          </g>
         </g>
        </g>
        <g id="ytick_3">
         <g id="line2d_6">
          <g>
           <use xlink:href="#mcfd496eb32" x="63.290625" y="235.885301" style="stroke: #000000; stroke-width: 0.8"/>
          </g>
         </g>
         <g id="text_6">
          <!-- 4000 -->
          <g transform="translate(30.840625 239.684519) scale(0.1 -0.1)">
           <defs>
            <path id="DejaVuSans-34" d="M 2419 4116 
L 825 1625 
L 2419 1625 
L 2419 4116 
z
M 2253 4666 
L 3047 4666 
L 3047 1625 
L 3713 1625 
L 3713 1100 
L 3047 1100 
L 3047 0 
L 2419 0 
L 2419 1100 
L 313 1100 
L 313 1709 
L 2253 4666 
z
" transform="scale(0.015625)"/>
           </defs>
           <use xlink:href="#DejaVuSans-34"/>
           <use xlink:href="#DejaVuSans-30" x="63.623047"/>
           <use xlink:href="#DejaVuSans-30" x="127.246094"/>
           <use xlink:href="#DejaVuSans-30" x="190.869141"/>
          </g>
         </g>
        </g>
        <g id="ytick_4">
         <g id="line2d_7">
          <g>
           <use xlink:href="#mcfd496eb32" x="63.290625" y="193.017013" style="stroke: #000000; stroke-width: 0.8"/>
          </g>
         </g>
         <g id="text_7">
          <!-- 6000 -->
          <g transform="translate(30.840625 196.816232) scale(0.1 -0.1)">
           <defs>
            <path id="DejaVuSans-36" d="M 2113 2584 
Q 1688 2584 1439 2293 
Q 1191 2003 1191 1497 
Q 1191 994 1439 701 
Q 1688 409 2113 409 
Q 2538 409 2786 701 
Q 3034 994 3034 1497 
Q 3034 2003 2786 2293 
Q 2538 2584 2113 2584 
z
M 3366 4563 
L 3366 3988 
Q 3128 4100 2886 4159 
Q 2644 4219 2406 4219 
Q 1781 4219 1451 3797 
Q 1122 3375 1075 2522 
Q 1259 2794 1537 2939 
Q 1816 3084 2150 3084 
Q 2853 3084 3261 2657 
Q 3669 2231 3669 1497 
Q 3669 778 3244 343 
Q 2819 -91 2113 -91 
Q 1303 -91 875 529 
Q 447 1150 447 2328 
Q 447 3434 972 4092 
Q 1497 4750 2381 4750 
Q 2619 4750 2861 4703 
Q 3103 4656 3366 4563 
z
" transform="scale(0.015625)"/>
           </defs>
           <use xlink:href="#DejaVuSans-36"/>
           <use xlink:href="#DejaVuSans-30" x="63.623047"/>
           <use xlink:href="#DejaVuSans-30" x="127.246094"/>
           <use xlink:href="#DejaVuSans-30" x="190.869141"/>
          </g>
         </g>
        </g>
        <g id="ytick_5">
         <g id="line2d_8">
          <g>
           <use xlink:href="#mcfd496eb32" x="63.290625" y="150.148726" style="stroke: #000000; stroke-width: 0.8"/>
          </g>
         </g>
         <g id="text_8">
          <!-- 8000 -->
          <g transform="translate(30.840625 153.947945) scale(0.1 -0.1)">
           <defs>
            <path id="DejaVuSans-38" d="M 2034 2216 
Q 1584 2216 1326 1975 
Q 1069 1734 1069 1313 
Q 1069 891 1326 650 
Q 1584 409 2034 409 
Q 2484 409 2743 651 
Q 3003 894 3003 1313 
Q 3003 1734 2745 1975 
Q 2488 2216 2034 2216 
z
M 1403 2484 
Q 997 2584 770 2862 
Q 544 3141 544 3541 
Q 544 4100 942 4425 
Q 1341 4750 2034 4750 
Q 2731 4750 3128 4425 
Q 3525 4100 3525 3541 
Q 3525 3141 3298 2862 
Q 3072 2584 2669 2484 
Q 3125 2378 3379 2068 
Q 3634 1759 3634 1313 
Q 3634 634 3220 271 
Q 2806 -91 2034 -91 
Q 1263 -91 848 271 
Q 434 634 434 1313 
Q 434 1759 690 2068 
Q 947 2378 1403 2484 
z
M 1172 3481 
Q 1172 3119 1398 2916 
Q 1625 2713 2034 2713 
Q 2441 2713 2670 2916 
Q 2900 3119 2900 3481 
Q 2900 3844 2670 4047 
Q 2441 4250 2034 4250 
Q 1625 4250 1398 4047 
Q 1172 3844 1172 3481 
z
" transform="scale(0.015625)"/>
           </defs>
           <use xlink:href="#DejaVuSans-38"/>
           <use xlink:href="#DejaVuSans-30" x="63.623047"/>
           <use xlink:href="#DejaVuSans-30" x="127.246094"/>
           <use xlink:href="#DejaVuSans-30" x="190.869141"/>
          </g>
         </g>
        </g>
        <g id="ytick_6">
         <g id="line2d_9">
          <g>
           <use xlink:href="#mcfd496eb32" x="63.290625" y="107.280439" style="stroke: #000000; stroke-width: 0.8"/>
          </g>
         </g>
         <g id="text_9">
          <!-- 10000 -->
          <g transform="translate(24.478125 111.079658) scale(0.1 -0.1)">
           <defs>
            <path id="DejaVuSans-31" d="M 794 531 
L 1825 531 
L 1825 4091 
L 703 3866 
L 703 4441 
L 1819 4666 
L 2450 4666 
L 2450 531 
L 3481 531 
L 3481 0 
L 794 0 
L 794 531 
z
" transform="scale(0.015625)"/>
           </defs>
           <use xlink:href="#DejaVuSans-31"/>
           <use xlink:href="#DejaVuSans-30" x="63.623047"/>
           <use xlink:href="#DejaVuSans-30" x="127.246094"/>
           <use xlink:href="#DejaVuSans-30" x="190.869141"/>
           <use xlink:href="#DejaVuSans-30" x="254.492188"/>
          </g>
         </g>
        </g>
        <g id="ytick_7">
         <g id="line2d_10">
          <g>
           <use xlink:href="#mcfd496eb32" x="63.290625" y="64.412152" style="stroke: #000000; stroke-width: 0.8"/>
          </g>
         </g>
         <g id="text_10">
          <!-- 12000 -->
          <g transform="translate(24.478125 68.21137) scale(0.1 -0.1)">
           <use xlink:href="#DejaVuSans-31"/>
           <use xlink:href="#DejaVuSans-32" x="63.623047"/>
           <use xlink:href="#DejaVuSans-30" x="127.246094"/>
           <use xlink:href="#DejaVuSans-30" x="190.869141"/>
           <use xlink:href="#DejaVuSans-30" x="254.492188"/>
          </g>
         </g>
        </g>
        <g id="ytick_8">
         <g id="line2d_11">
          <g>
           <use xlink:href="#mcfd496eb32" x="63.290625" y="21.543864" style="stroke: #000000; stroke-width: 0.8"/>
          </g>
         </g>
         <g id="text_11">
          <!-- 14000 -->
          <g transform="translate(24.478125 25.343083) scale(0.1 -0.1)">
           <use xlink:href="#DejaVuSans-31"/>
           <use xlink:href="#DejaVuSans-34" x="63.623047"/>
           <use xlink:href="#DejaVuSans-30" x="127.246094"/>
           <use xlink:href="#DejaVuSans-30" x="190.869141"/>
           <use xlink:href="#DejaVuSans-30" x="254.492188"/>
          </g>
         </g>
        </g>
        <g id="text_12">
         <!-- time ago (generations) -->
         <g transform="translate(18.398438 223.682031) rotate(-90) scale(0.1 -0.1)">
          <defs>
           <path id="DejaVuSans-74" d="M 1172 4494 
L 1172 3500 
L 2356 3500 
L 2356 3053 
L 1172 3053 
L 1172 1153 
Q 1172 725 1289 603 
Q 1406 481 1766 481 
L 2356 481 
L 2356 0 
L 1766 0 
Q 1100 0 847 248 
Q 594 497 594 1153 
L 594 3053 
L 172 3053 
L 172 3500 
L 594 3500 
L 594 4494 
L 1172 4494 
z
" transform="scale(0.015625)"/>
           <path id="DejaVuSans-69" d="M 603 3500 
L 1178 3500 
L 1178 0 
L 603 0 
L 603 3500 
z
M 603 4863 
L 1178 4863 
L 1178 4134 
L 603 4134 
L 603 4863 
z
" transform="scale(0.015625)"/>
           <path id="DejaVuSans-6d" d="M 3328 2828 
Q 3544 3216 3844 3400 
Q 4144 3584 4550 3584 
Q 5097 3584 5394 3201 
Q 5691 2819 5691 2113 
L 5691 0 
L 5113 0 
L 5113 2094 
Q 5113 2597 4934 2840 
Q 4756 3084 4391 3084 
Q 3944 3084 3684 2787 
Q 3425 2491 3425 1978 
L 3425 0 
L 2847 0 
L 2847 2094 
Q 2847 2600 2669 2842 
Q 2491 3084 2119 3084 
Q 1678 3084 1418 2786 
Q 1159 2488 1159 1978 
L 1159 0 
L 581 0 
L 581 3500 
L 1159 3500 
L 1159 2956 
Q 1356 3278 1631 3431 
Q 1906 3584 2284 3584 
Q 2666 3584 2933 3390 
Q 3200 3197 3328 2828 
z
" transform="scale(0.015625)"/>
           <path id="DejaVuSans-65" d="M 3597 1894 
L 3597 1613 
L 953 1613 
Q 991 1019 1311 708 
Q 1631 397 2203 397 
Q 2534 397 2845 478 
Q 3156 559 3463 722 
L 3463 178 
Q 3153 47 2828 -22 
Q 2503 -91 2169 -91 
Q 1331 -91 842 396 
Q 353 884 353 1716 
Q 353 2575 817 3079 
Q 1281 3584 2069 3584 
Q 2775 3584 3186 3129 
Q 3597 2675 3597 1894 
z
M 3022 2063 
Q 3016 2534 2758 2815 
Q 2500 3097 2075 3097 
Q 1594 3097 1305 2825 
Q 1016 2553 972 2059 
L 3022 2063 
z
" transform="scale(0.015625)"/>
           <path id="DejaVuSans-20" transform="scale(0.015625)"/>
           <path id="DejaVuSans-61" d="M 2194 1759 
Q 1497 1759 1228 1600 
Q 959 1441 959 1056 
Q 959 750 1161 570 
Q 1363 391 1709 391 
Q 2188 391 2477 730 
Q 2766 1069 2766 1631 
L 2766 1759 
L 2194 1759 
z
M 3341 1997 
L 3341 0 
L 2766 0 
L 2766 531 
Q 2569 213 2275 61 
Q 1981 -91 1556 -91 
Q 1019 -91 701 211 
Q 384 513 384 1019 
Q 384 1609 779 1909 
Q 1175 2209 1959 2209 
L 2766 2209 
L 2766 2266 
Q 2766 2663 2505 2880 
Q 2244 3097 1772 3097 
Q 1472 3097 1187 3025 
Q 903 2953 641 2809 
L 641 3341 
Q 956 3463 1253 3523 
Q 1550 3584 1831 3584 
Q 2591 3584 2966 3190 
Q 3341 2797 3341 1997 
z
" transform="scale(0.015625)"/>
           <path id="DejaVuSans-67" d="M 2906 1791 
Q 2906 2416 2648 2759 
Q 2391 3103 1925 3103 
Q 1463 3103 1205 2759 
Q 947 2416 947 1791 
Q 947 1169 1205 825 
Q 1463 481 1925 481 
Q 2391 481 2648 825 
Q 2906 1169 2906 1791 
z
M 3481 434 
Q 3481 -459 3084 -895 
Q 2688 -1331 1869 -1331 
Q 1566 -1331 1297 -1286 
Q 1028 -1241 775 -1147 
L 775 -588 
Q 1028 -725 1275 -790 
Q 1522 -856 1778 -856 
Q 2344 -856 2625 -561 
Q 2906 -266 2906 331 
L 2906 616 
Q 2728 306 2450 153 
Q 2172 0 1784 0 
Q 1141 0 747 490 
Q 353 981 353 1791 
Q 353 2603 747 3093 
Q 1141 3584 1784 3584 
Q 2172 3584 2450 3431 
Q 2728 3278 2906 2969 
L 2906 3500 
L 3481 3500 
L 3481 434 
z
" transform="scale(0.015625)"/>
           <path id="DejaVuSans-6f" d="M 1959 3097 
Q 1497 3097 1228 2736 
Q 959 2375 959 1747 
Q 959 1119 1226 758 
Q 1494 397 1959 397 
Q 2419 397 2687 759 
Q 2956 1122 2956 1747 
Q 2956 2369 2687 2733 
Q 2419 3097 1959 3097 
z
M 1959 3584 
Q 2709 3584 3137 3096 
Q 3566 2609 3566 1747 
Q 3566 888 3137 398 
Q 2709 -91 1959 -91 
Q 1206 -91 779 398 
Q 353 888 353 1747 
Q 353 2609 779 3096 
Q 1206 3584 1959 3584 
z
" transform="scale(0.015625)"/>
           <path id="DejaVuSans-28" d="M 1984 4856 
Q 1566 4138 1362 3434 
Q 1159 2731 1159 2009 
Q 1159 1288 1364 580 
Q 1569 -128 1984 -844 
L 1484 -844 
Q 1016 -109 783 600 
Q 550 1309 550 2009 
Q 550 2706 781 3412 
Q 1013 4119 1484 4856 
L 1984 4856 
z
" transform="scale(0.015625)"/>
           <path id="DejaVuSans-6e" d="M 3513 2113 
L 3513 0 
L 2938 0 
L 2938 2094 
Q 2938 2591 2744 2837 
Q 2550 3084 2163 3084 
Q 1697 3084 1428 2787 
Q 1159 2491 1159 1978 
L 1159 0 
L 581 0 
L 581 3500 
L 1159 3500 
L 1159 2956 
Q 1366 3272 1645 3428 
Q 1925 3584 2291 3584 
Q 2894 3584 3203 3211 
Q 3513 2838 3513 2113 
z
" transform="scale(0.015625)"/>
           <path id="DejaVuSans-72" d="M 2631 2963 
Q 2534 3019 2420 3045 
Q 2306 3072 2169 3072 
Q 1681 3072 1420 2755 
Q 1159 2438 1159 1844 
L 1159 0 
L 581 0 
L 581 3500 
L 1159 3500 
L 1159 2956 
Q 1341 3275 1631 3429 
Q 1922 3584 2338 3584 
Q 2397 3584 2469 3576 
Q 2541 3569 2628 3553 
L 2631 2963 
z
" transform="scale(0.015625)"/>
           <path id="DejaVuSans-73" d="M 2834 3397 
L 2834 2853 
Q 2591 2978 2328 3040 
Q 2066 3103 1784 3103 
Q 1356 3103 1142 2972 
Q 928 2841 928 2578 
Q 928 2378 1081 2264 
Q 1234 2150 1697 2047 
L 1894 2003 
Q 2506 1872 2764 1633 
Q 3022 1394 3022 966 
Q 3022 478 2636 193 
Q 2250 -91 1575 -91 
Q 1294 -91 989 -36 
Q 684 19 347 128 
L 347 722 
Q 666 556 975 473 
Q 1284 391 1588 391 
Q 1994 391 2212 530 
Q 2431 669 2431 922 
Q 2431 1156 2273 1281 
Q 2116 1406 1581 1522 
L 1381 1569 
Q 847 1681 609 1914 
Q 372 2147 372 2553 
Q 372 3047 722 3315 
Q 1072 3584 1716 3584 
Q 2034 3584 2315 3537 
Q 2597 3491 2834 3397 
z
" transform="scale(0.015625)"/>
           <path id="DejaVuSans-29" d="M 513 4856 
L 1013 4856 
Q 1481 4119 1714 3412 
Q 1947 2706 1947 2009 
Q 1947 1309 1714 600 
Q 1481 -109 1013 -844 
L 513 -844 
Q 928 -128 1133 580 
Q 1338 1288 1338 2009 
Q 1338 2731 1133 3434 
Q 928 4138 513 4856 
z
" transform="scale(0.015625)"/>
          </defs>
          <use xlink:href="#DejaVuSans-74"/>
          <use xlink:href="#DejaVuSans-69" x="39.208984"/>
          <use xlink:href="#DejaVuSans-6d" x="66.992188"/>
          <use xlink:href="#DejaVuSans-65" x="164.404297"/>
          <use xlink:href="#DejaVuSans-20" x="225.927734"/>
          <use xlink:href="#DejaVuSans-61" x="257.714844"/>
          <use xlink:href="#DejaVuSans-67" x="318.994141"/>
          <use xlink:href="#DejaVuSans-6f" x="382.470703"/>
          <use xlink:href="#DejaVuSans-20" x="443.652344"/>
          <use xlink:href="#DejaVuSans-28" x="475.439453"/>
          <use xlink:href="#DejaVuSans-67" x="514.453125"/>
          <use xlink:href="#DejaVuSans-65" x="577.929688"/>
          <use xlink:href="#DejaVuSans-6e" x="639.453125"/>
          <use xlink:href="#DejaVuSans-65" x="702.832031"/>
          <use xlink:href="#DejaVuSans-72" x="764.355469"/>
          <use xlink:href="#DejaVuSans-61" x="805.46875"/>
          <use xlink:href="#DejaVuSans-74" x="866.748047"/>
          <use xlink:href="#DejaVuSans-69" x="905.957031"/>
          <use xlink:href="#DejaVuSans-6f" x="933.740234"/>
          <use xlink:href="#DejaVuSans-6e" x="994.921875"/>
          <use xlink:href="#DejaVuSans-73" x="1058.300781"/>
          <use xlink:href="#DejaVuSans-29" x="1110.400391"/>
         </g>
        </g>
       </g>
       <g id="patch_7">
        <path d="M 292.150853 263.964029 
L 291.150853 263.932592 
L 290.150853 263.895652 
L 289.150853 263.797905 
L 288.150853 263.765384 
L 287.150853 263.691759 
L 286.150853 263.653193 
L 285.150853 263.61778 
L 284.150853 263.56014 
L 283.150853 263.489754 
L 282.150853 263.43779 
L 281.150853 263.3787 
L 280.150853 263.290379 
L 279.150853 263.244235 
L 278.150853 263.201824 
L 277.150853 263.171331 
L 276.150853 263.145286 
L 275.150853 263.124086 
L 274.150853 263.069785 
L 273.150853 263.041848 
L 272.150853 263.012124 
L 271.150853 262.986729 
L 270.150853 262.975528 
L 269.150853 262.965404 
L 268.150853 262.965609 
L 267.150853 262.975119 
L 266.150853 262.986772 
L 265.150853 263.017802 
L 264.150853 263.028969 
L 263.150853 263.059087 
L 262.150853 263.118864 
L 261.150853 263.156055 
L 260.150853 263.195152 
L 259.150853 263.237591 
L 258.150853 263.270356 
L 257.150853 263.337783 
L 256.150853 263.376909 
L 255.150853 263.419583 
L 254.150853 263.490164 
L 253.150853 263.526555 
L 252.150853 263.584958 
L 251.150853 263.69591 
L 250.150853 263.766569 
L 249.150853 263.879509 
L 248.150853 263.925281 
L 247.150853 263.986565 
L 246.150853 264.035064 
L 245.150853 264.115887 
L 244.150853 264.234406 
L 243.150853 264.304616 
L 242.150853 264.387879 
L 241.150853 264.421021 
L 240.150853 264.472258 
L 239.150853 264.540656 
L 238.150853 264.606872 
L 237.150853 264.683789 
L 236.150853 264.711104 
L 235.150853 264.737582 
L 234.150853 264.760232 
L 233.150853 264.779764 
L 232.150853 264.806158 
L 231.150853 264.855928 
L 230.150853 264.891002 
L 229.150853 264.926867 
L 228.150853 264.942235 
L 227.150853 264.958004 
L 226.150853 264.961416 
L 225.150853 264.963834 
L 224.150853 264.963348 
L 223.150853 264.961419 
L 222.150853 264.948162 
L 221.150853 264.939771 
L 220.150853 264.918234 
L 219.150853 264.895202 
L 218.150853 264.877968 
L 217.150853 264.859506 
L 216.150853 264.839053 
L 215.150853 264.822453 
L 214.150853 264.759675 
L 213.150853 264.68441 
L 212.150853 264.651771 
L 211.150853 264.584207 
L 210.150853 264.53016 
L 209.150853 264.496456 
L 208.150853 264.40633 
L 207.150853 264.377795 
L 206.150853 264.346308 
L 205.150853 264.315298 
L 204.150853 264.26049 
L 203.150853 264.195902 
L 202.150853 264.157707 
L 201.150853 264.061773 
L 200.150853 264.012515 
L 199.150853 263.968445 
L 198.150853 263.928322 
L 197.150853 263.819955 
L 196.150853 263.778327 
L 195.150853 263.716185 
L 194.150853 263.646223 
L 193.150853 263.541718 
L 192.150853 263.504731 
L 191.150853 263.458853 
L 190.150853 263.390359 
L 189.150853 263.341613 
L 188.150853 263.264016 
L 187.150853 263.233475 
L 186.150853 263.16396 
L 185.150853 263.139987 
L 184.150853 263.111366 
L 183.150853 263.069573 
L 182.150853 263.047997 
L 181.150853 263.034049 
L 180.150853 263.007326 
L 179.150853 262.998017 
L 178.150853 262.98557 
L 177.150853 262.974515 
L 176.150853 262.96885 
L 175.150853 262.964087 
L 174.150853 262.969634 
L 173.150853 262.982922 
L 171.868953 262.99044 
" clip-path="url(#pd8029d6b8a)" style="fill: none; stroke: #ffffff; stroke-width: 3; stroke-linecap: round"/>
        <path d="M 292.150853 263.964029 
L 291.150853 263.932592 
L 290.150853 263.895652 
L 289.150853 263.797905 
L 288.150853 263.765384 
L 287.150853 263.691759 
L 286.150853 263.653193 
L 285.150853 263.61778 
L 284.150853 263.56014 
L 283.150853 263.489754 
L 282.150853 263.43779 
L 281.150853 263.3787 
L 280.150853 263.290379 
L 279.150853 263.244235 
L 278.150853 263.201824 
L 277.150853 263.171331 
L 276.150853 263.145286 
L 275.150853 263.124086 
L 274.150853 263.069785 
L 273.150853 263.041848 
L 272.150853 263.012124 
L 271.150853 262.986729 
L 270.150853 262.975528 
L 269.150853 262.965404 
L 268.150853 262.965609 
L 267.150853 262.975119 
L 266.150853 262.986772 
L 265.150853 263.017802 
L 264.150853 263.028969 
L 263.150853 263.059087 
L 262.150853 263.118864 
L 261.150853 263.156055 
L 260.150853 263.195152 
L 259.150853 263.237591 
L 258.150853 263.270356 
L 257.150853 263.337783 
L 256.150853 263.376909 
L 255.150853 263.419583 
L 254.150853 263.490164 
L 253.150853 263.526555 
L 252.150853 263.584958 
L 251.150853 263.69591 
L 250.150853 263.766569 
L 249.150853 263.879509 
L 248.150853 263.925281 
L 247.150853 263.986565 
L 246.150853 264.035064 
L 245.150853 264.115887 
L 244.150853 264.234406 
L 243.150853 264.304616 
L 242.150853 264.387879 
L 241.150853 264.421021 
L 240.150853 264.472258 
L 239.150853 264.540656 
L 238.150853 264.606872 
L 237.150853 264.683789 
L 236.150853 264.711104 
L 235.150853 264.737582 
L 234.150853 264.760232 
L 233.150853 264.779764 
L 232.150853 264.806158 
L 231.150853 264.855928 
L 230.150853 264.891002 
L 229.150853 264.926867 
L 228.150853 264.942235 
L 227.150853 264.958004 
L 226.150853 264.961416 
L 225.150853 264.963834 
L 224.150853 264.963348 
L 223.150853 264.961419 
L 222.150853 264.948162 
L 221.150853 264.939771 
L 220.150853 264.918234 
L 219.150853 264.895202 
L 218.150853 264.877968 
L 217.150853 264.859506 
L 216.150853 264.839053 
L 215.150853 264.822453 
L 214.150853 264.759675 
L 213.150853 264.68441 
L 212.150853 264.651771 
L 211.150853 264.584207 
L 210.150853 264.53016 
L 209.150853 264.496456 
L 208.150853 264.40633 
L 207.150853 264.377795 
L 206.150853 264.346308 
L 205.150853 264.315298 
L 204.150853 264.26049 
L 203.150853 264.195902 
L 202.150853 264.157707 
L 201.150853 264.061773 
L 200.150853 264.012515 
L 199.150853 263.968445 
L 198.150853 263.928322 
L 197.150853 263.819955 
L 196.150853 263.778327 
L 195.150853 263.716185 
L 194.150853 263.646223 
L 193.150853 263.541718 
L 192.150853 263.504731 
L 191.150853 263.458853 
L 190.150853 263.390359 
L 189.150853 263.341613 
L 188.150853 263.264016 
L 187.150853 263.233475 
L 186.150853 263.16396 
L 185.150853 263.139987 
L 184.150853 263.111366 
L 183.150853 263.069573 
L 182.150853 263.047997 
L 181.150853 263.034049 
L 180.150853 263.007326 
L 179.150853 262.998017 
L 178.150853 262.98557 
L 177.150853 262.974515 
L 176.150853 262.96885 
L 175.150853 262.964087 
L 174.150853 262.969634 
L 173.150853 262.982922 
L 171.868953 262.99044 
" clip-path="url(#pd8029d6b8a)" style="fill: none; stroke: #1f77b4; stroke-linecap: round"/>
        <path d="M 175.868953 265.964029 
L 174.988584 265.488698 
L 174.110677 265.008443 
L 173.259964 264.473803 
L 171.957789 263.786355 
L 172.885143 263.76034 
L 173.796817 263.347621 
L 174.707081 262.932082 
L 176.049577 262.325277 
L 175.394678 262.964029 
L 175.342714 263.964029 
L 175.283624 265.964029 
z
" clip-path="url(#pd8029d6b8a)" style="fill: #ffffff; stroke: #ffffff; stroke-width: 3; stroke-linecap: round"/>
        <path d="M 175.868953 265.964029 
L 174.988584 265.488698 
L 174.110677 265.008443 
L 173.259964 264.473803 
L 171.957789 263.786355 
L 172.885143 263.76034 
L 173.796817 263.347621 
L 174.707081 262.932082 
L 176.049577 262.325277 
L 175.394678 262.964029 
L 175.342714 263.964029 
L 175.283624 265.964029 
z
" clip-path="url(#pd8029d6b8a)" style="fill: #ffffff; stroke: #1f77b4; stroke-linecap: round"/>
        <g id="patch_8">
         <path d="M 375.403773 72.964375 
L 376.403773 72.995811 
L 377.403773 73.032752 
L 378.403773 73.130498 
L 379.403773 73.16302 
L 380.403773 73.236645 
L 381.403773 73.27521 
L 382.403773 73.310623 
L 383.403773 73.368263 
L 384.403773 73.438649 
L 385.403773 73.490614 
L 386.403773 73.549703 
L 387.403773 73.638024 
L 388.403773 73.684169 
L 389.403773 73.72658 
L 390.403773 73.757072 
L 391.403773 73.783117 
L 392.403773 73.804317 
L 393.403773 73.858618 
L 394.403773 73.886556 
L 395.403773 73.91628 
L 396.403773 73.941675 
L 397.403773 73.952875 
L 398.403773 73.962999 
L 399.403773 73.962795 
L 400.403773 73.953285 
L 401.403773 73.941631 
L 402.403773 73.910602 
L 403.403773 73.899434 
L 404.403773 73.869317 
L 405.403773 73.80954 
L 406.403773 73.772348 
L 407.403773 73.733252 
L 408.403773 73.690812 
L 409.403773 73.658047 
L 410.403773 73.590621 
L 411.403773 73.551495 
L 412.403773 73.50882 
L 413.403773 73.43824 
L 414.403773 73.401849 
L 415.403773 73.343446 
L 416.403773 73.232493 
L 417.403773 73.161835 
L 418.403773 73.048895 
L 419.403773 73.003122 
L 420.403773 72.941839 
L 421.403773 72.89334 
L 422.403773 72.812517 
L 423.403773 72.693998 
L 424.403773 72.623787 
L 425.403773 72.540525 
L 426.403773 72.507383 
L 427.403773 72.456146 
L 428.403773 72.387747 
L 429.403773 72.321532 
L 430.403773 72.244615 
L 431.403773 72.217299 
L 432.403773 72.190822 
L 433.403773 72.168171 
L 434.403773 72.14864 
L 435.403773 72.122246 
L 436.403773 72.072475 
L 437.403773 72.037402 
L 438.403773 72.001536 
L 439.403773 71.986169 
L 440.403773 71.9704 
L 441.403773 71.966987 
L 442.403773 71.96457 
L 443.403773 71.965056 
L 444.403773 71.966985 
L 445.403773 71.980242 
L 446.403773 71.988633 
L 447.403773 72.010169 
L 448.403773 72.033202 
L 449.403773 72.050435 
L 450.403773 72.068898 
L 451.403773 72.08935 
L 452.403773 72.10595 
L 453.403773 72.168729 
L 454.403773 72.243994 
L 455.403773 72.276633 
L 456.403773 72.344197 
L 457.403773 72.398244 
L 458.403773 72.431948 
L 459.403773 72.522074 
L 460.403773 72.550609 
L 461.403773 72.582095 
L 462.403773 72.613106 
L 463.403773 72.667914 
L 464.403773 72.732501 
L 465.403773 72.770697 
L 466.403773 72.866631 
L 467.403773 72.915889 
L 468.403773 72.959958 
L 469.403773 73.000082 
L 470.403773 73.108449 
L 471.403773 73.150077 
L 472.403773 73.212219 
L 473.403773 73.282181 
L 474.403773 73.386685 
L 475.403773 73.423673 
L 476.403773 73.46955 
L 477.403773 73.538045 
L 478.403773 73.586791 
L 479.403773 73.664388 
L 480.403773 73.694929 
L 481.403773 73.764443 
L 482.403773 73.788416 
L 483.403773 73.817038 
L 484.403773 73.858831 
L 485.403773 73.880407 
L 486.403773 73.894355 
L 487.403773 73.921077 
L 488.403773 73.930387 
L 489.403773 73.942834 
L 490.403773 73.953889 
L 491.403773 73.959553 
L 492.403773 73.964317 
L 493.403773 73.958769 
L 494.403773 73.945481 
L 495.403773 73.937964 
L 496.403773 73.913179 
L 497.403773 73.88961 
L 498.403773 73.85343 
L 499.403773 73.827468 
L 500.403773 73.805146 
L 501.403773 73.736386 
L 502.403773 73.661851 
L 503.403773 73.567872 
L 504.403773 73.51682 
L 505.403773 73.462886 
L 506.403773 73.427635 
L 507.403773 73.321547 
L 508.403773 73.269283 
L 509.403773 73.232376 
L 510.403773 73.201345 
L 511.403773 73.14019 
L 512.403773 73.07277 
L 513.403773 73.023864 
L 514.403773 72.958672 
L 515.403773 72.920484 
L 516.403773 72.878488 
L 517.403773 72.836471 
L 518.403773 72.776955 
L 519.403773 72.663795 
L 520.403773 72.611544 
L 521.403773 72.572126 
L 522.403773 72.525025 
L 523.403773 72.468245 
L 524.403773 72.435582 
L 525.403773 72.399404 
L 526.403773 72.367314 
L 527.403773 72.333034 
L 528.403773 72.274656 
L 529.403773 72.229471 
L 530.403773 72.199847 
L 531.403773 72.149461 
L 532.403773 72.124264 
L 533.403773 72.103213 
L 534.403773 72.068245 
L 535.403773 72.043955 
L 536.403773 72.029888 
L 537.403773 72.010946 
L 538.403773 71.995285 
L 539.403773 71.982733 
L 540.403773 71.976897 
L 541.403773 71.970015 
L 542.403773 71.964841 
L 543.403773 71.966624 
L 544.403773 71.969349 
L 545.403773 71.980503 
L 546.403773 72.008738 
L 547.403773 72.052526 
L 548.403773 72.073215 
L 549.403773 72.114188 
L 550.403773 72.154263 
L 551.403773 72.173373 
L 552.403773 72.195882 
L 553.403773 72.262533 
L 554.403773 72.312243 
L 555.93101 72.385949 
" clip-path="url(#pd8029d6b8a)" style="fill: none; stroke: #ffffff; stroke-width: 3; stroke-linecap: round"/>
         <path d="M 375.403773 72.964375 
L 376.403773 72.995811 
L 377.403773 73.032752 
L 378.403773 73.130498 
L 379.403773 73.16302 
L 380.403773 73.236645 
L 381.403773 73.27521 
L 382.403773 73.310623 
L 383.403773 73.368263 
L 384.403773 73.438649 
L 385.403773 73.490614 
L 386.403773 73.549703 
L 387.403773 73.638024 
L 388.403773 73.684169 
L 389.403773 73.72658 
L 390.403773 73.757072 
L 391.403773 73.783117 
L 392.403773 73.804317 
L 393.403773 73.858618 
L 394.403773 73.886556 
L 395.403773 73.91628 
L 396.403773 73.941675 
L 397.403773 73.952875 
L 398.403773 73.962999 
L 399.403773 73.962795 
L 400.403773 73.953285 
L 401.403773 73.941631 
L 402.403773 73.910602 
L 403.403773 73.899434 
L 404.403773 73.869317 
L 405.403773 73.80954 
L 406.403773 73.772348 
L 407.403773 73.733252 
L 408.403773 73.690812 
L 409.403773 73.658047 
L 410.403773 73.590621 
L 411.403773 73.551495 
L 412.403773 73.50882 
L 413.403773 73.43824 
L 414.403773 73.401849 
L 415.403773 73.343446 
L 416.403773 73.232493 
L 417.403773 73.161835 
L 418.403773 73.048895 
L 419.403773 73.003122 
L 420.403773 72.941839 
L 421.403773 72.89334 
L 422.403773 72.812517 
L 423.403773 72.693998 
L 424.403773 72.623787 
L 425.403773 72.540525 
L 426.403773 72.507383 
L 427.403773 72.456146 
L 428.403773 72.387747 
L 429.403773 72.321532 
L 430.403773 72.244615 
L 431.403773 72.217299 
L 432.403773 72.190822 
L 433.403773 72.168171 
L 434.403773 72.14864 
L 435.403773 72.122246 
L 436.403773 72.072475 
L 437.403773 72.037402 
L 438.403773 72.001536 
L 439.403773 71.986169 
L 440.403773 71.9704 
L 441.403773 71.966987 
L 442.403773 71.96457 
L 443.403773 71.965056 
L 444.403773 71.966985 
L 445.403773 71.980242 
L 446.403773 71.988633 
L 447.403773 72.010169 
L 448.403773 72.033202 
L 449.403773 72.050435 
L 450.403773 72.068898 
L 451.403773 72.08935 
L 452.403773 72.10595 
L 453.403773 72.168729 
L 454.403773 72.243994 
L 455.403773 72.276633 
L 456.403773 72.344197 
L 457.403773 72.398244 
L 458.403773 72.431948 
L 459.403773 72.522074 
L 460.403773 72.550609 
L 461.403773 72.582095 
L 462.403773 72.613106 
L 463.403773 72.667914 
L 464.403773 72.732501 
L 465.403773 72.770697 
L 466.403773 72.866631 
L 467.403773 72.915889 
L 468.403773 72.959958 
L 469.403773 73.000082 
L 470.403773 73.108449 
L 471.403773 73.150077 
L 472.403773 73.212219 
L 473.403773 73.282181 
L 474.403773 73.386685 
L 475.403773 73.423673 
L 476.403773 73.46955 
L 477.403773 73.538045 
L 478.403773 73.586791 
L 479.403773 73.664388 
L 480.403773 73.694929 
L 481.403773 73.764443 
L 482.403773 73.788416 
L 483.403773 73.817038 
L 484.403773 73.858831 
L 485.403773 73.880407 
L 486.403773 73.894355 
L 487.403773 73.921077 
L 488.403773 73.930387 
L 489.403773 73.942834 
L 490.403773 73.953889 
L 491.403773 73.959553 
L 492.403773 73.964317 
L 493.403773 73.958769 
L 494.403773 73.945481 
L 495.403773 73.937964 
L 496.403773 73.913179 
L 497.403773 73.88961 
L 498.403773 73.85343 
L 499.403773 73.827468 
L 500.403773 73.805146 
L 501.403773 73.736386 
L 502.403773 73.661851 
L 503.403773 73.567872 
L 504.403773 73.51682 
L 505.403773 73.462886 
L 506.403773 73.427635 
L 507.403773 73.321547 
L 508.403773 73.269283 
L 509.403773 73.232376 
L 510.403773 73.201345 
L 511.403773 73.14019 
L 512.403773 73.07277 
L 513.403773 73.023864 
L 514.403773 72.958672 
L 515.403773 72.920484 
L 516.403773 72.878488 
L 517.403773 72.836471 
L 518.403773 72.776955 
L 519.403773 72.663795 
L 520.403773 72.611544 
L 521.403773 72.572126 
L 522.403773 72.525025 
L 523.403773 72.468245 
L 524.403773 72.435582 
L 525.403773 72.399404 
L 526.403773 72.367314 
L 527.403773 72.333034 
L 528.403773 72.274656 
L 529.403773 72.229471 
L 530.403773 72.199847 
L 531.403773 72.149461 
L 532.403773 72.124264 
L 533.403773 72.103213 
L 534.403773 72.068245 
L 535.403773 72.043955 
L 536.403773 72.029888 
L 537.403773 72.010946 
L 538.403773 71.995285 
L 539.403773 71.982733 
L 540.403773 71.976897 
L 541.403773 71.970015 
L 542.403773 71.964841 
L 543.403773 71.966624 
L 544.403773 71.969349 
L 545.403773 71.980503 
L 546.403773 72.008738 
L 547.403773 72.052526 
L 548.403773 72.073215 
L 549.403773 72.114188 
L 550.403773 72.154263 
L 551.403773 72.173373 
L 552.403773 72.195882 
L 553.403773 72.262533 
L 554.403773 72.312243 
L 555.93101 72.385949 
" clip-path="url(#pd8029d6b8a)" style="fill: none; stroke: #1f77b4; stroke-linecap: round"/>
         <path d="M 551.93101 70.964375 
L 552.811378 71.439706 
L 553.689285 71.91996 
L 554.539999 72.454601 
L 555.842173 73.142048 
L 554.91482 73.168063 
L 554.003146 73.580783 
L 553.092881 73.996322 
L 551.750385 74.603126 
L 552.405284 73.964375 
L 552.457248 72.964375 
L 552.516338 70.964375 
z
" clip-path="url(#pd8029d6b8a)" style="fill: #ffffff; stroke: #ffffff; stroke-width: 3; stroke-linecap: round"/>
         <path d="M 551.93101 70.964375 
L 552.811378 71.439706 
L 553.689285 71.91996 
L 554.539999 72.454601 
L 555.842173 73.142048 
L 554.91482 73.168063 
L 554.003146 73.580783 
L 553.092881 73.996322 
L 551.750385 74.603126 
L 552.405284 73.964375 
L 552.457248 72.964375 
L 552.516338 70.964375 
z
" clip-path="url(#pd8029d6b8a)" style="fill: #ffffff; stroke: #1f77b4; stroke-linecap: round"/>
         <g id="patch_9">
          <path d="M 375.401891 263.964029 
L 376.401891 263.995465 
L 377.401891 264.032405 
L 378.401891 264.130152 
L 379.401891 264.162674 
L 380.401891 264.236298 
L 381.401891 264.274864 
L 382.401891 264.310277 
L 383.401891 264.367917 
L 384.401891 264.438303 
L 385.401891 264.490267 
L 386.401891 264.549357 
L 387.401891 264.637678 
L 388.401891 264.683822 
L 389.401891 264.726233 
L 390.401891 264.756726 
L 391.401891 264.782771 
L 392.401891 264.803971 
L 393.401891 264.858272 
L 394.401891 264.88621 
L 395.401891 264.915934 
L 396.401891 264.941328 
L 397.401891 264.952529 
L 398.401891 264.962653 
L 399.401891 264.962448 
L 400.401891 264.952939 
L 401.401891 264.941285 
L 402.401891 264.910256 
L 403.401891 264.899088 
L 404.401891 264.86897 
L 405.401891 264.809193 
L 406.401891 264.772002 
L 407.401891 264.732906 
L 408.401891 264.690466 
L 409.401891 264.657701 
L 410.401891 264.590275 
L 411.401891 264.551149 
L 412.401891 264.508474 
L 413.401891 264.437893 
L 414.401891 264.401503 
L 415.401891 264.343099 
L 416.401891 264.232147 
L 417.401891 264.161489 
L 418.401891 264.048549 
L 419.401891 264.002776 
L 420.401891 263.941493 
L 421.401891 263.892993 
L 422.401891 263.812171 
L 423.401891 263.693652 
L 424.401891 263.623441 
L 425.401891 263.540179 
L 426.401891 263.507037 
L 427.401891 263.455799 
L 428.401891 263.387401 
L 429.401891 263.321186 
L 430.401891 263.244269 
L 431.401891 263.216953 
L 432.401891 263.190476 
L 433.401891 263.167825 
L 434.401891 263.148294 
L 435.401891 263.1219 
L 436.401891 263.072129 
L 437.401891 263.037056 
L 438.401891 263.00119 
L 439.401891 262.985823 
L 440.401891 262.970054 
L 441.401891 262.966641 
L 442.401891 262.964223 
L 443.401891 262.964709 
L 444.956962 262.966639 
" clip-path="url(#pd8029d6b8a)" style="fill: none; stroke: #ffffff; stroke-width: 3; stroke-linecap: round"/>
          <path d="M 375.401891 263.964029 
L 376.401891 263.995465 
L 377.401891 264.032405 
L 378.401891 264.130152 
L 379.401891 264.162674 
L 380.401891 264.236298 
L 381.401891 264.274864 
L 382.401891 264.310277 
L 383.401891 264.367917 
L 384.401891 264.438303 
L 385.401891 264.490267 
L 386.401891 264.549357 
L 387.401891 264.637678 
L 388.401891 264.683822 
L 389.401891 264.726233 
L 390.401891 264.756726 
L 391.401891 264.782771 
L 392.401891 264.803971 
L 393.401891 264.858272 
L 394.401891 264.88621 
L 395.401891 264.915934 
L 396.401891 264.941328 
L 397.401891 264.952529 
L 398.401891 264.962653 
L 399.401891 264.962448 
L 400.401891 264.952939 
L 401.401891 264.941285 
L 402.401891 264.910256 
L 403.401891 264.899088 
L 404.401891 264.86897 
L 405.401891 264.809193 
L 406.401891 264.772002 
L 407.401891 264.732906 
L 408.401891 264.690466 
L 409.401891 264.657701 
L 410.401891 264.590275 
L 411.401891 264.551149 
L 412.401891 264.508474 
L 413.401891 264.437893 
L 414.401891 264.401503 
L 415.401891 264.343099 
L 416.401891 264.232147 
L 417.401891 264.161489 
L 418.401891 264.048549 
L 419.401891 264.002776 
L 420.401891 263.941493 
L 421.401891 263.892993 
L 422.401891 263.812171 
L 423.401891 263.693652 
L 424.401891 263.623441 
L 425.401891 263.540179 
L 426.401891 263.507037 
L 427.401891 263.455799 
L 428.401891 263.387401 
L 429.401891 263.321186 
L 430.401891 263.244269 
L 431.401891 263.216953 
L 432.401891 263.190476 
L 433.401891 263.167825 
L 434.401891 263.148294 
L 435.401891 263.1219 
L 436.401891 263.072129 
L 437.401891 263.037056 
L 438.401891 263.00119 
L 439.401891 262.985823 
L 440.401891 262.970054 
L 441.401891 262.966641 
L 442.401891 262.964223 
L 443.401891 262.964709 
L 444.956962 262.966639 
" clip-path="url(#pd8029d6b8a)" style="fill: none; stroke: #1f77b4; stroke-linecap: round"/>
          <path d="M 440.956962 261.964029 
L 441.837331 262.43936 
L 442.715238 262.919614 
L 443.565951 263.454255 
L 444.868126 264.141702 
L 443.940773 264.167717 
L 443.029098 264.580436 
L 442.118834 264.995976 
L 440.776338 265.60278 
L 441.431237 264.964029 
L 441.483201 263.964029 
L 441.542291 261.964029 
z
" clip-path="url(#pd8029d6b8a)" style="fill: #ffffff; stroke: #ffffff; stroke-width: 3; stroke-linecap: round"/>
          <path d="M 440.956962 261.964029 
L 441.837331 262.43936 
L 442.715238 262.919614 
L 443.565951 263.454255 
L 444.868126 264.141702 
L 443.940773 264.167717 
L 443.029098 264.580436 
L 442.118834 264.995976 
L 440.776338 265.60278 
L 441.431237 264.964029 
L 441.483201 263.964029 
L 441.542291 261.964029 
z
" clip-path="url(#pd8029d6b8a)" style="fill: #ffffff; stroke: #1f77b4; stroke-linecap: round"/>
          <path d="M 460.148047 289.084845 
" clip-path="url(#pd8029d6b8a)" style="fill: none; stroke-dasharray: 3.7,1.6; stroke-dashoffset: 0; stroke: #2ca02c"/>
          <path d="M 459.148047 289.084845 
L 461.148047 290.084845 
L 461.148047 288.084845 
z
" clip-path="url(#pd8029d6b8a)" style="fill: #2ca02c; stroke: #2ca02c; stroke-linejoin: miter"/>
          <g id="patch_10">
           <path d="M 63.290625 321.621875 
L 63.290625 10.8 
" style="fill: none; stroke: #000000; stroke-width: 0.8; stroke-linejoin: miter; stroke-linecap: square"/>
          </g>
          <g id="text_13">
           <g id="patch_11">
            <path d="M 323.124343 144.221077 
L 344.42903 144.221077 
Q 346.42903 144.221077 346.42903 142.221077 
L 346.42903 132.542952 
Q 346.42903 130.542952 344.42903 130.542952 
L 323.124343 130.542952 
Q 321.124343 130.542952 321.124343 132.542952 
L 321.124343 142.221077 
Q 321.124343 144.221077 323.124343 144.221077 
z
" style="fill: #ffffff; opacity: 0.6"/>
           </g>
           <!-- ANC -->
           <g transform="translate(323.124343 140.141389) scale(0.1 -0.1)">
            <defs>
             <path id="DejaVuSans-4e" d="M 628 4666 
L 1478 4666 
L 3547 763 
L 3547 4666 
L 4159 4666 
L 4159 0 
L 3309 0 
L 1241 3903 
L 1241 0 
L 628 0 
L 628 4666 
z
" transform="scale(0.015625)"/>
            </defs>
            <use xlink:href="#DejaVuSans-41"/>
            <use xlink:href="#DejaVuSans-4e" x="68.408203"/>
            <use xlink:href="#DejaVuSans-43" x="143.212891"/>
           </g>
          </g>
         </g>
        </g>
        <defs>
         <clipPath id="pd8029d6b8a">
          <rect x="63.290625" y="10.8" width="540.309375" height="310.821875"/>
         </clipPath>
        </defs>
       </g>
      </g>
     </g>
    </g>
   </g>
  </g>
 </g>
</svg>
