<?xml version="1.0" encoding="utf-8" standalone="no"?>
<!DOCTYPE svg PUBLIC "-//W3C//DTD SVG 1.1//EN"
  "http://www.w3.org/Graphics/SVG/1.1/DTD/svg11.dtd">
<svg xmlns:xlink="http://www.w3.org/1999/xlink" width="614.4pt" height="345.6pt" viewBox="0 0 614.4 345.6" xmlns="http://www.w3.org/2000/svg" version="1.1">
 <metadata>
  <rdf:RDF xmlns:dc="http://purl.org/dc/elements/1.1/" xmlns:cc="http://creativecommons.org/ns#" xmlns:rdf="http://www.w3.org/1999/02/22-rdf-syntax-ns#">
   <cc:Work>
    <dc:type rdf:resource="http://purl.org/dc/dcmitype/StillImage"/>
    <dc:date>2024-04-17T19:40:12.543170</dc:date>
    <dc:format>image/svg+xml</dc:format>
    <dc:creator>
     <cc:Agent>
      <dc:title>Matplotlib v3.7.1, https://matplotlib.org/</dc:title>
     </cc:Agent>
    </dc:creator>
   </cc:Work>
  </rdf:RDF>
 </metadata>
 <defs>
  <style type="text/css">*{stroke-linejoin: round; stroke-linecap: butt}</style>
 </defs>
 <g id="figure_1">
  <g id="patch_1">
   <path d="M 0 345.6 
L 614.4 345.6 
L 614.4 0 
L 0 0 
z
" style="fill: #ffffff"/>
  </g>
  <g id="axes_1">
   <g id="patch_2">
    <path d="M 63.290625 321.621875 
L 603.6 321.621875 
L 603.6 10.8 
L 63.290625 10.8 
z
" style="fill: #ffffff"/>
   </g>
   <path d="M 548.340396 302.695143 
L 547.340396 302.663707 
L 546.340396 302.626767 
L 545.340396 302.52902 
L 544.340396 302.496498 
L 543.340396 302.422874 
L 542.340396 302.384308 
L 541.340396 302.348895 
L 540.340396 302.291255 
L 539.340396 302.220869 
L 538.340396 302.168905 
L 537.340396 302.109815 
L 536.340396 302.021494 
L 535.340396 301.97535 
L 534.340396 301.932939 
L 533.340396 301.902446 
L 532.340396 301.876401 
L 531.340396 301.855201 
L 530.340396 301.8009 
L 529.340396 301.772962 
L 528.340396 301.743238 
L 527.340396 301.717844 
L 526.340396 301.706643 
L 525.340396 301.696519 
L 524.340396 301.696724 
L 523.340396 301.706233 
L 522.340396 301.717887 
L 521.340396 301.748916 
L 520.340396 301.760084 
L 519.340396 301.790202 
L 518.340396 301.849979 
L 517.340396 301.88717 
L 516.340396 301.926266 
L 515.340396 301.968706 
L 514.340396 302.001471 
L 513.340396 302.068897 
L 512.340396 302.108023 
L 511.340396 302.150698 
L 510.340396 302.221278 
L 509.340396 302.257669 
L 508.340396 302.316073 
L 507.340396 302.427025 
L 506.340396 302.497683 
L 505.340396 302.610623 
L 504.340396 302.656396 
L 503.340396 302.717679 
L 502.340396 302.766179 
L 501.340396 302.847001 
L 500.340396 302.96552 
L 499.340396 303.035731 
L 498.340396 303.118993 
L 497.340396 303.152135 
L 496.340396 303.203372 
L 495.340396 303.271771 
L 494.340396 303.337986 
L 493.340396 303.414903 
L 492.340396 303.442219 
L 491.340396 303.468696 
L 490.340396 303.491347 
L 489.340396 303.510878 
L 488.340396 303.537272 
L 487.340396 303.587043 
L 486.340396 303.622116 
L 485.340396 303.657982 
L 484.340396 303.673349 
L 483.340396 303.689118 
L 482.340396 303.692531 
L 481.340396 303.694949 
L 480.340396 303.694462 
L 479.340396 303.692533 
L 478.340396 303.679276 
L 477.340396 303.670886 
L 476.340396 303.649349 
L 475.340396 303.626317 
L 474.340396 303.609083 
L 473.340396 303.590621 
L 472.340396 303.570168 
L 471.340396 303.553568 
L 470.340396 303.490789 
L 469.340396 303.415524 
L 468.340396 303.382885 
L 467.340396 303.315322 
L 466.340396 303.261275 
L 465.340396 303.22757 
L 464.340396 303.137444 
L 463.340396 303.108909 
L 462.340396 303.077423 
L 461.340396 303.046412 
L 460.340396 302.991604 
L 459.340396 302.927017 
L 458.340396 302.888822 
L 457.340396 302.792887 
L 456.340396 302.743629 
L 455.340396 302.69956 
L 454.340396 302.659436 
L 453.340396 302.551069 
L 452.340396 302.509441 
L 451.340396 302.4473 
L 450.340396 302.377337 
L 448.37296 302.272833 
" clip-path="url(#p2e10d66d6b)" style="fill: none; stroke-dasharray: 3.7,1.6; stroke-dashoffset: 0; stroke: #2ca02c"/>
   <g id="patch_3">
    <path d="M 285.664012 10.8 
L 285.664012 185.297553 
M 337.005605 10.8 
L 337.005605 185.297553 
" clip-path="url(#p2e10d66d6b)" style="fill: none; stroke: #ffffff; stroke-width: 3; stroke-linejoin: miter"/>
    <path d="M 285.664012 10.8 
L 285.664012 185.297553 
M 337.005605 10.8 
L 337.005605 185.297553 
" clip-path="url(#p2e10d66d6b)" style="fill: none; stroke: #1f77b4; stroke-linejoin: miter"/>
    <g id="PolyCollection_1">
     <path d="M 337.005605 10.8 
L 285.664012 10.8 
L 285.664012 185.297553 
L 337.005605 185.297553 
L 337.005605 185.297553 
L 337.005605 10.8 
z
" clip-path="url(#p2e10d66d6b)" style="fill: #1f77b4; fill-opacity: 0.5"/>
    </g>
    <g id="patch_4">
     <path d="M 104.190168 185.297553 
L 104.190168 318.043945 
L 104.190168 318.043945 
L 100.534396 319.092025 
L 96.03552 320.140106 
L 90.499103 321.188187 
L 87.850142 321.621875 
M 135.893683 185.297553 
L 135.893683 318.043945 
L 135.893683 318.043945 
L 139.549455 319.092025 
L 144.048331 320.140106 
L 149.584749 321.188187 
L 152.233709 321.621875 
L 152.233709 321.621875 
" clip-path="url(#p2e10d66d6b)" style="fill: none; stroke: #ffffff; stroke-width: 3; stroke-linejoin: miter"/>
     <path d="M 104.190168 185.297553 
L 104.190168 318.043945 
L 104.190168 318.043945 
L 100.534396 319.092025 
L 96.03552 320.140106 
L 90.499103 321.188187 
L 87.850142 321.621875 
M 135.893683 185.297553 
L 135.893683 318.043945 
L 135.893683 318.043945 
L 139.549455 319.092025 
L 144.048331 320.140106 
L 149.584749 321.188187 
L 152.233709 321.621875 
L 152.233709 321.621875 
" clip-path="url(#p2e10d66d6b)" style="fill: none; stroke: #ff7f0e; stroke-linejoin: miter"/>
     <g id="PolyCollection_2">
      <path d="M 135.893683 185.297553 
L 104.190168 185.297553 
L 104.190168 318.043945 
L 104.190168 318.043945 
L 104.076328 318.080086 
L 103.961671 318.116226 
L 103.84619 318.152367 
L 103.72988 318.188508 
L 103.612735 318.224648 
L 103.494748 318.260789 
L 103.375914 318.29693 
L 103.256226 318.333071 
L 103.135679 318.369211 
L 103.014266 318.405352 
L 102.891982 318.441493 
L 102.768819 318.477633 
L 102.644771 318.513774 
L 102.519833 318.549915 
L 102.393998 318.586056 
L 102.267259 318.622196 
L 102.139609 318.658337 
L 102.011043 318.694478 
L 101.881554 318.730618 
L 101.751135 318.766759 
L 101.619779 318.8029 
L 101.487479 318.83904 
L 101.35423 318.875181 
L 101.220024 318.911322 
L 101.084854 318.947463 
L 100.948713 318.983603 
L 100.811594 319.019744 
L 100.673491 319.055885 
L 100.534396 319.092025 
L 100.394302 319.128166 
L 100.253202 319.164307 
L 100.111089 319.200448 
L 99.967955 319.236588 
L 99.823793 319.272729 
L 99.678596 319.30887 
L 99.532356 319.34501 
L 99.385066 319.381151 
L 99.236718 319.417292 
L 99.087305 319.453433 
L 98.936818 319.489573 
L 98.785251 319.525714 
L 98.632596 319.561855 
L 98.478844 319.597995 
L 98.323988 319.634136 
L 98.16802 319.670277 
L 98.010932 319.706417 
L 97.852716 319.742558 
L 97.693363 319.778699 
L 97.532866 319.81484 
L 97.371217 319.85098 
L 97.208406 319.887121 
L 97.044427 319.923262 
L 96.879269 319.959402 
L 96.712926 319.995543 
L 96.545388 320.031684 
L 96.376647 320.067825 
L 96.206694 320.103965 
L 96.03552 320.140106 
L 95.863118 320.176247 
L 95.689477 320.212387 
L 95.514589 320.248528 
L 95.338445 320.284669 
L 95.161036 320.32081 
L 94.982353 320.35695 
L 94.802387 320.393091 
L 94.621129 320.429232 
L 94.438568 320.465372 
L 94.254697 320.501513 
L 94.069505 320.537654 
L 93.882983 320.573794 
L 93.695122 320.609935 
L 93.505912 320.646076 
L 93.315342 320.682217 
L 93.123405 320.718357 
L 92.930088 320.754498 
L 92.735384 320.790639 
L 92.539281 320.826779 
L 92.34177 320.86292 
L 92.14284 320.899061 
L 91.942482 320.935202 
L 91.740685 320.971342 
L 91.537439 321.007483 
L 91.332733 321.043624 
L 91.126557 321.079764 
L 90.9189 321.115905 
L 90.709752 321.152046 
L 90.499103 321.188187 
L 90.28694 321.224327 
L 90.073253 321.260468 
L 89.858032 321.296609 
L 89.641266 321.332749 
L 89.422943 321.36889 
L 89.203051 321.405031 
L 88.981581 321.441171 
L 88.75852 321.477312 
L 88.533857 321.513453 
L 88.307581 321.549594 
L 88.07968 321.585734 
L 87.850142 321.621875 
L 152.233709 321.621875 
L 152.233709 321.621875 
L 152.004171 321.585734 
L 151.77627 321.549594 
L 151.549994 321.513453 
L 151.325331 321.477312 
L 151.10227 321.441171 
L 150.8808 321.405031 
L 150.660909 321.36889 
L 150.442585 321.332749 
L 150.225819 321.296609 
L 150.010598 321.260468 
L 149.796911 321.224327 
L 149.584749 321.188187 
L 149.374099 321.152046 
L 149.164951 321.115905 
L 148.957294 321.079764 
L 148.751118 321.043624 
L 148.546412 321.007483 
L 148.343166 320.971342 
L 148.141369 320.935202 
L 147.941011 320.899061 
L 147.742081 320.86292 
L 147.54457 320.826779 
L 147.348467 320.790639 
L 147.153763 320.754498 
L 146.960446 320.718357 
L 146.768509 320.682217 
L 146.577939 320.646076 
L 146.388729 320.609935 
L 146.200868 320.573794 
L 146.014346 320.537654 
L 145.829154 320.501513 
L 145.645283 320.465372 
L 145.462723 320.429232 
L 145.281464 320.393091 
L 145.101498 320.35695 
L 144.922815 320.32081 
L 144.745406 320.284669 
L 144.569262 320.248528 
L 144.394374 320.212387 
L 144.220734 320.176247 
L 144.048331 320.140106 
L 143.877157 320.103965 
L 143.707204 320.067825 
L 143.538463 320.031684 
L 143.370925 319.995543 
L 143.204582 319.959402 
L 143.039425 319.923262 
L 142.875445 319.887121 
L 142.712635 319.85098 
L 142.550985 319.81484 
L 142.390488 319.778699 
L 142.231136 319.742558 
L 142.072919 319.706417 
L 141.915831 319.670277 
L 141.759863 319.634136 
L 141.605007 319.597995 
L 141.451255 319.561855 
L 141.2986 319.525714 
L 141.147033 319.489573 
L 140.996547 319.453433 
L 140.847133 319.417292 
L 140.698785 319.381151 
L 140.551495 319.34501 
L 140.405255 319.30887 
L 140.260058 319.272729 
L 140.115896 319.236588 
L 139.972762 319.200448 
L 139.830649 319.164307 
L 139.689549 319.128166 
L 139.549455 319.092025 
L 139.41036 319.055885 
L 139.272257 319.019744 
L 139.135138 318.983603 
L 138.998997 318.947463 
L 138.863827 318.911322 
L 138.729621 318.875181 
L 138.596372 318.83904 
L 138.464072 318.8029 
L 138.332717 318.766759 
L 138.202297 318.730618 
L 138.072808 318.694478 
L 137.944242 318.658337 
L 137.816593 318.622196 
L 137.689853 318.586056 
L 137.564018 318.549915 
L 137.43908 318.513774 
L 137.315032 318.477633 
L 137.191869 318.441493 
L 137.069585 318.405352 
L 136.948172 318.369211 
L 136.827625 318.333071 
L 136.707937 318.29693 
L 136.589103 318.260789 
L 136.471117 318.224648 
L 136.353971 318.188508 
L 136.237661 318.152367 
L 136.12218 318.116226 
L 136.007523 318.080086 
L 135.893683 318.043945 
L 135.893683 318.043945 
L 135.893683 185.297553 
z
" clip-path="url(#p2e10d66d6b)" style="fill: #ff7f0e; fill-opacity: 0.5"/>
     </g>
     <g id="patch_5">
      <path d="M 553.743489 72.964375 
L 553.743489 321.621875 
M 579.040483 72.964375 
L 579.040483 321.621875 
" clip-path="url(#p2e10d66d6b)" style="fill: none; stroke: #ffffff; stroke-width: 3; stroke-linejoin: miter"/>
      <path d="M 553.743489 72.964375 
L 553.743489 321.621875 
M 579.040483 72.964375 
L 579.040483 321.621875 
" clip-path="url(#p2e10d66d6b)" style="fill: none; stroke: #2ca02c; stroke-linejoin: miter"/>
      <g id="PolyCollection_3">
       <path d="M 579.040483 72.964375 
L 553.743489 72.964375 
L 553.743489 321.621875 
L 579.040483 321.621875 
L 579.040483 321.621875 
L 579.040483 72.964375 
z
" clip-path="url(#p2e10d66d6b)" style="fill: #2ca02c; fill-opacity: 0.5"/>
      </g>
      <g id="patch_6">
       <path d="M 434.756928 264.54784 
L 434.756928 265.481213 
L 438.223103 265.481213 
L 438.223103 266.535579 
L 434.756928 266.535579 
L 434.756928 310.8708 
L 434.756928 310.8708 
L 433.513726 311.84817 
L 431.894153 312.825541 
L 429.784267 313.802911 
L 427.378139 314.671685 
L 424.334345 315.540459 
L 420.483893 316.409233 
L 415.613004 317.278006 
L 409.451245 318.14678 
L 401.656512 319.015554 
L 391.796039 319.884328 
L 379.322369 320.753101 
L 363.542959 321.621875 
M 442.969866 264.54784 
L 442.969866 265.481213 
L 439.503692 265.481213 
L 439.503692 266.535579 
L 442.969866 266.535579 
L 442.969866 310.8708 
L 442.969866 310.8708 
L 444.213069 311.84817 
L 445.832642 312.825541 
L 447.942528 313.802911 
L 450.348656 314.671685 
L 453.39245 315.540459 
L 457.242902 316.409233 
L 462.11379 317.278006 
L 468.27555 318.14678 
L 476.070283 319.015554 
L 485.930756 319.884328 
L 498.404426 320.753101 
L 514.183836 321.621875 
L 514.183836 321.621875 
" clip-path="url(#p2e10d66d6b)" style="fill: none; stroke: #ffffff; stroke-width: 3; stroke-linejoin: miter"/>
       <path d="M 434.756928 264.54784 
L 434.756928 265.481213 
L 438.223103 265.481213 
L 438.223103 266.535579 
L 434.756928 266.535579 
L 434.756928 310.8708 
L 434.756928 310.8708 
L 433.513726 311.84817 
L 431.894153 312.825541 
L 429.784267 313.802911 
L 427.378139 314.671685 
L 424.334345 315.540459 
L 420.483893 316.409233 
L 415.613004 317.278006 
L 409.451245 318.14678 
L 401.656512 319.015554 
L 391.796039 319.884328 
L 379.322369 320.753101 
L 363.542959 321.621875 
M 442.969866 264.54784 
L 442.969866 265.481213 
L 439.503692 265.481213 
L 439.503692 266.535579 
L 442.969866 266.535579 
L 442.969866 310.8708 
L 442.969866 310.8708 
L 444.213069 311.84817 
L 445.832642 312.825541 
L 447.942528 313.802911 
L 450.348656 314.671685 
L 453.39245 315.540459 
L 457.242902 316.409233 
L 462.11379 317.278006 
L 468.27555 318.14678 
L 476.070283 319.015554 
L 485.930756 319.884328 
L 498.404426 320.753101 
L 514.183836 321.621875 
L 514.183836 321.621875 
" clip-path="url(#p2e10d66d6b)" style="fill: none; stroke: #d62728; stroke-linejoin: miter"/>
       <g id="PolyCollection_4">
        <path d="M 442.969866 264.54784 
L 434.756928 264.54784 
L 434.756928 265.481213 
L 438.223103 265.481213 
L 438.223103 266.535579 
L 434.756928 266.535579 
L 434.756928 310.8708 
L 434.756928 310.8708 
L 434.634466 310.979397 
L 434.508352 311.087993 
L 434.378477 311.19659 
L 434.244729 311.305187 
L 434.106992 311.413784 
L 433.965148 311.52238 
L 433.819073 311.630977 
L 433.668643 311.739574 
L 433.513726 311.84817 
L 433.354189 311.956767 
L 433.189895 312.065364 
L 433.020701 312.173961 
L 432.846462 312.282557 
L 432.667026 312.391154 
L 432.482239 312.499751 
L 432.291942 312.608347 
L 432.09597 312.716944 
L 431.894153 312.825541 
L 431.686318 312.934138 
L 431.472285 313.042734 
L 431.251869 313.151331 
L 431.02488 313.259928 
L 430.791121 313.368524 
L 430.550392 313.477121 
L 430.302483 313.585718 
L 430.047182 313.694315 
L 429.784267 313.802911 
L 429.513511 313.911508 
L 429.234681 314.020105 
L 428.947536 314.128702 
L 428.651827 314.237298 
L 428.347301 314.345895 
L 428.033692 314.454492 
L 427.710731 314.563088 
L 427.378139 314.671685 
L 427.035628 314.780282 
L 426.682904 314.888879 
L 426.31966 314.997475 
L 425.945583 315.106072 
L 425.560352 315.214669 
L 425.163631 315.323265 
L 424.75508 315.431862 
L 424.334345 315.540459 
L 423.901063 315.649056 
L 423.45486 315.757652 
L 422.995351 315.866249 
L 422.522138 315.974846 
L 422.034813 316.083442 
L 421.532955 316.192039 
L 421.01613 316.300636 
L 420.483893 316.409233 
L 419.935784 316.517829 
L 419.37133 316.626426 
L 418.790042 316.735023 
L 418.191419 316.843619 
L 417.574944 316.952216 
L 416.940085 317.060813 
L 416.286293 317.16941 
L 415.613004 317.278006 
L 414.919637 317.386603 
L 414.205592 317.4952 
L 413.470253 317.603796 
L 412.712984 317.712393 
L 411.933133 317.82099 
L 411.130025 317.929587 
L 410.302967 318.038183 
L 409.451245 318.14678 
L 408.574123 318.255377 
L 407.670844 318.363973 
L 406.740627 318.47257 
L 405.782669 318.581167 
L 404.796144 318.689764 
L 403.780198 318.79836 
L 402.733956 318.906957 
L 401.656512 319.015554 
L 400.546937 319.124151 
L 399.404273 319.232747 
L 398.227533 319.341344 
L 397.0157 319.449941 
L 395.767728 319.558537 
L 394.482539 319.667134 
L 393.159024 319.775731 
L 391.796039 319.884328 
L 390.392408 319.992924 
L 388.946918 320.101521 
L 387.45832 320.210118 
L 385.925331 320.318714 
L 384.346624 320.427311 
L 382.720838 320.535908 
L 381.046568 320.644505 
L 379.322369 320.753101 
L 377.546751 320.861698 
L 375.71818 320.970295 
L 373.835079 321.078891 
L 371.89582 321.187488 
L 369.898729 321.296085 
L 367.842082 321.404682 
L 365.724101 321.513278 
L 363.542959 321.621875 
L 514.183836 321.621875 
L 514.183836 321.621875 
L 512.002694 321.513278 
L 509.884713 321.404682 
L 507.828066 321.296085 
L 505.830975 321.187488 
L 503.891716 321.078891 
L 502.008614 320.970295 
L 500.180044 320.861698 
L 498.404426 320.753101 
L 496.680227 320.644505 
L 495.005957 320.535908 
L 493.380171 320.427311 
L 491.801464 320.318714 
L 490.268475 320.210118 
L 488.779877 320.101521 
L 487.334387 319.992924 
L 485.930756 319.884328 
L 484.567771 319.775731 
L 483.244256 319.667134 
L 481.959067 319.558537 
L 480.711095 319.449941 
L 479.499262 319.341344 
L 478.322522 319.232747 
L 477.179858 319.124151 
L 476.070283 319.015554 
L 474.992839 318.906957 
L 473.946597 318.79836 
L 472.930651 318.689764 
L 471.944126 318.581167 
L 470.986168 318.47257 
L 470.055951 318.363973 
L 469.152672 318.255377 
L 468.27555 318.14678 
L 467.423828 318.038183 
L 466.59677 317.929587 
L 465.793662 317.82099 
L 465.01381 317.712393 
L 464.256542 317.603796 
L 463.521203 317.4952 
L 462.807158 317.386603 
L 462.11379 317.278006 
L 461.440501 317.16941 
L 460.78671 317.060813 
L 460.151851 316.952216 
L 459.535376 316.843619 
L 458.936753 316.735023 
L 458.355465 316.626426 
L 457.791011 316.517829 
L 457.242902 316.409233 
L 456.710665 316.300636 
L 456.19384 316.192039 
L 455.691982 316.083442 
L 455.204657 315.974846 
L 454.731444 315.866249 
L 454.271935 315.757652 
L 453.825731 315.649056 
L 453.39245 315.540459 
L 452.971715 315.431862 
L 452.563164 315.323265 
L 452.166443 315.214669 
L 451.781211 315.106072 
L 451.407135 314.997475 
L 451.043891 314.888879 
L 450.691166 314.780282 
L 450.348656 314.671685 
L 450.016064 314.563088 
L 449.693103 314.454492 
L 449.379494 314.345895 
L 449.074967 314.237298 
L 448.779259 314.128702 
L 448.492114 314.020105 
L 448.213284 313.911508 
L 447.942528 313.802911 
L 447.679613 313.694315 
L 447.424311 313.585718 
L 447.176403 313.477121 
L 446.935674 313.368524 
L 446.701915 313.259928 
L 446.474926 313.151331 
L 446.25451 313.042734 
L 446.040477 312.934138 
L 445.832642 312.825541 
L 445.630825 312.716944 
L 445.434853 312.608347 
L 445.244555 312.499751 
L 445.059769 312.391154 
L 444.880333 312.282557 
L 444.706094 312.173961 
L 444.5369 312.065364 
L 444.372606 311.956767 
L 444.213069 311.84817 
L 444.058152 311.739574 
L 443.907722 311.630977 
L 443.761647 311.52238 
L 443.619803 311.413784 
L 443.482066 311.305187 
L 443.348318 311.19659 
L 443.218443 311.087993 
L 443.092329 310.979397 
L 442.969866 310.8708 
L 442.969866 310.8708 
L 442.969866 266.535579 
L 439.503692 266.535579 
L 439.503692 265.481213 
L 442.969866 265.481213 
L 442.969866 264.54784 
z
" clip-path="url(#p2e10d66d6b)" style="fill: #d62728; fill-opacity: 0.5"/>
       </g>
       <g id="matplotlib.axis_1">
        <g id="xtick_1">
         <g id="line2d_1"/>
         <g id="text_1">
          <!-- OUT -->
          <g transform="translate(109.392707 332.720312) scale(0.1 -0.1)">
           <defs>
            <path id="DejaVuSans-4f" d="M 2522 4238 
Q 1834 4238 1429 3725 
Q 1025 3213 1025 2328 
Q 1025 1447 1429 934 
Q 1834 422 2522 422 
Q 3209 422 3611 934 
Q 4013 1447 4013 2328 
Q 4013 3213 3611 3725 
Q 3209 4238 2522 4238 
z
M 2522 4750 
Q 3503 4750 4090 4092 
Q 4678 3434 4678 2328 
Q 4678 1225 4090 567 
Q 3503 -91 2522 -91 
Q 1538 -91 948 565 
Q 359 1222 359 2328 
Q 359 3434 948 4092 
Q 1538 4750 2522 4750 
z
" transform="scale(0.015625)"/>
            <path id="DejaVuSans-55" d="M 556 4666 
L 1191 4666 
L 1191 1831 
Q 1191 1081 1462 751 
Q 1734 422 2344 422 
Q 2950 422 3222 751 
Q 3494 1081 3494 1831 
L 3494 4666 
L 4128 4666 
L 4128 1753 
Q 4128 841 3676 375 
Q 3225 -91 2344 -91 
Q 1459 -91 1007 375 
Q 556 841 556 1753 
L 556 4666 
z
" transform="scale(0.015625)"/>
            <path id="DejaVuSans-54" d="M -19 4666 
L 3928 4666 
L 3928 4134 
L 2272 4134 
L 2272 0 
L 1638 0 
L 1638 4134 
L -19 4134 
L -19 4666 
z
" transform="scale(0.015625)"/>
           </defs>
           <use xlink:href="#DejaVuSans-4f"/>
           <use xlink:href="#DejaVuSans-55" x="78.710938"/>
           <use xlink:href="#DejaVuSans-54" x="151.904297"/>
          </g>
         </g>
        </g>
        <g id="xtick_2">
         <g id="line2d_2"/>
         <g id="text_2">
          <!-- SRC -->
          <g transform="translate(556.502142 332.720312) scale(0.1 -0.1)">
           <defs>
            <path id="DejaVuSans-53" d="M 3425 4513 
L 3425 3897 
Q 3066 4069 2747 4153 
Q 2428 4238 2131 4238 
Q 1616 4238 1336 4038 
Q 1056 3838 1056 3469 
Q 1056 3159 1242 3001 
Q 1428 2844 1947 2747 
L 2328 2669 
Q 3034 2534 3370 2195 
Q 3706 1856 3706 1288 
Q 3706 609 3251 259 
Q 2797 -91 1919 -91 
Q 1588 -91 1214 -16 
Q 841 59 441 206 
L 441 856 
Q 825 641 1194 531 
Q 1563 422 1919 422 
Q 2459 422 2753 634 
Q 3047 847 3047 1241 
Q 3047 1584 2836 1778 
Q 2625 1972 2144 2069 
L 1759 2144 
Q 1053 2284 737 2584 
Q 422 2884 422 3419 
Q 422 4038 858 4394 
Q 1294 4750 2059 4750 
Q 2388 4750 2728 4690 
Q 3069 4631 3425 4513 
z
" transform="scale(0.015625)"/>
            <path id="DejaVuSans-52" d="M 2841 2188 
Q 3044 2119 3236 1894 
Q 3428 1669 3622 1275 
L 4263 0 
L 3584 0 
L 2988 1197 
Q 2756 1666 2539 1819 
Q 2322 1972 1947 1972 
L 1259 1972 
L 1259 0 
L 628 0 
L 628 4666 
L 2053 4666 
Q 2853 4666 3247 4331 
Q 3641 3997 3641 3322 
Q 3641 2881 3436 2590 
Q 3231 2300 2841 2188 
z
M 1259 4147 
L 1259 2491 
L 2053 2491 
Q 2509 2491 2742 2702 
Q 2975 2913 2975 3322 
Q 2975 3731 2742 3939 
Q 2509 4147 2053 4147 
L 1259 4147 
z
" transform="scale(0.015625)"/>
            <path id="DejaVuSans-43" d="M 4122 4306 
L 4122 3641 
Q 3803 3938 3442 4084 
Q 3081 4231 2675 4231 
Q 1875 4231 1450 3742 
Q 1025 3253 1025 2328 
Q 1025 1406 1450 917 
Q 1875 428 2675 428 
Q 3081 428 3442 575 
Q 3803 722 4122 1019 
L 4122 359 
Q 3791 134 3420 21 
Q 3050 -91 2638 -91 
Q 1578 -91 968 557 
Q 359 1206 359 2328 
Q 359 3453 968 4101 
Q 1578 4750 2638 4750 
Q 3056 4750 3426 4639 
Q 3797 4528 4122 4306 
z
" transform="scale(0.015625)"/>
           </defs>
           <use xlink:href="#DejaVuSans-53"/>
           <use xlink:href="#DejaVuSans-52" x="63.476562"/>
           <use xlink:href="#DejaVuSans-43" x="127.958984"/>
          </g>
         </g>
        </g>
        <g id="xtick_3">
         <g id="line2d_3"/>
         <g id="text_3">
          <!-- TAR -->
          <g transform="translate(429.30246 332.720312) scale(0.1 -0.1)">
           <defs>
            <path id="DejaVuSans-41" d="M 2188 4044 
L 1331 1722 
L 3047 1722 
L 2188 4044 
z
M 1831 4666 
L 2547 4666 
L 4325 0 
L 3669 0 
L 3244 1197 
L 1141 1197 
L 716 0 
L 50 0 
L 1831 4666 
z
" transform="scale(0.015625)"/>
           </defs>
           <use xlink:href="#DejaVuSans-54"/>
           <use xlink:href="#DejaVuSans-41" x="53.333984"/>
           <use xlink:href="#DejaVuSans-52" x="121.742188"/>
          </g>
         </g>
        </g>
       </g>
       <g id="matplotlib.axis_2">
        <g id="ytick_1">
         <g id="line2d_4">
          <defs>
           <path id="m03b6d8502c" d="M 0 0 
L -3.5 0 
" style="stroke: #000000; stroke-width: 0.8"/>
          </defs>
          <g>
           <use xlink:href="#m03b6d8502c" x="63.290625" y="321.621875" style="stroke: #000000; stroke-width: 0.8"/>
          </g>
         </g>
         <g id="text_4">
          <!-- 0 -->
          <g transform="translate(49.928125 325.421094) scale(0.1 -0.1)">
           <defs>
            <path id="DejaVuSans-30" d="M 2034 4250 
Q 1547 4250 1301 3770 
Q 1056 3291 1056 2328 
Q 1056 1369 1301 889 
Q 1547 409 2034 409 
Q 2525 409 2770 889 
Q 3016 1369 3016 2328 
Q 3016 3291 2770 3770 
Q 2525 4250 2034 4250 
z
M 2034 4750 
Q 2819 4750 3233 4129 
Q 3647 3509 3647 2328 
Q 3647 1150 3233 529 
Q 2819 -91 2034 -91 
Q 1250 -91 836 529 
Q 422 1150 422 2328 
Q 422 3509 836 4129 
Q 1250 4750 2034 4750 
z
" transform="scale(0.015625)"/>
           </defs>
           <use xlink:href="#DejaVuSans-30"/>
          </g>
         </g>
        </g>
        <g id="ytick_2">
         <g id="line2d_5">
          <g>
           <use xlink:href="#m03b6d8502c" x="63.290625" y="287.052502" style="stroke: #000000; stroke-width: 0.8"/>
          </g>
         </g>
         <g id="text_5">
          <!-- 2000 -->
          <g transform="translate(30.840625 290.851721) scale(0.1 -0.1)">
           <defs>
            <path id="DejaVuSans-32" d="M 1228 531 
L 3431 531 
L 3431 0 
L 469 0 
L 469 531 
Q 828 903 1448 1529 
Q 2069 2156 2228 2338 
Q 2531 2678 2651 2914 
Q 2772 3150 2772 3378 
Q 2772 3750 2511 3984 
Q 2250 4219 1831 4219 
Q 1534 4219 1204 4116 
Q 875 4013 500 3803 
L 500 4441 
Q 881 4594 1212 4672 
Q 1544 4750 1819 4750 
Q 2544 4750 2975 4387 
Q 3406 4025 3406 3419 
Q 3406 3131 3298 2873 
Q 3191 2616 2906 2266 
Q 2828 2175 2409 1742 
Q 1991 1309 1228 531 
z
" transform="scale(0.015625)"/>
           </defs>
           <use xlink:href="#DejaVuSans-32"/>
           <use xlink:href="#DejaVuSans-30" x="63.623047"/>
           <use xlink:href="#DejaVuSans-30" x="127.246094"/>
           <use xlink:href="#DejaVuSans-30" x="190.869141"/>
          </g>
         </g>
        </g>
        <g id="ytick_3">
         <g id="line2d_6">
          <g>
           <use xlink:href="#m03b6d8502c" x="63.290625" y="252.483129" style="stroke: #000000; stroke-width: 0.8"/>
          </g>
         </g>
         <g id="text_6">
          <!-- 4000 -->
          <g transform="translate(30.840625 256.282348) scale(0.1 -0.1)">
           <defs>
            <path id="DejaVuSans-34" d="M 2419 4116 
L 825 1625 
L 2419 1625 
L 2419 4116 
z
M 2253 4666 
L 3047 4666 
L 3047 1625 
L 3713 1625 
L 3713 1100 
L 3047 1100 
L 3047 0 
L 2419 0 
L 2419 1100 
L 313 1100 
L 313 1709 
L 2253 4666 
z
" transform="scale(0.015625)"/>
           </defs>
           <use xlink:href="#DejaVuSans-34"/>
           <use xlink:href="#DejaVuSans-30" x="63.623047"/>
           <use xlink:href="#DejaVuSans-30" x="127.246094"/>
           <use xlink:href="#DejaVuSans-30" x="190.869141"/>
          </g>
         </g>
        </g>
        <g id="ytick_4">
         <g id="line2d_7">
          <g>
           <use xlink:href="#m03b6d8502c" x="63.290625" y="217.913756" style="stroke: #000000; stroke-width: 0.8"/>
          </g>
         </g>
         <g id="text_7">
          <!-- 6000 -->
          <g transform="translate(30.840625 221.712975) scale(0.1 -0.1)">
           <defs>
            <path id="DejaVuSans-36" d="M 2113 2584 
Q 1688 2584 1439 2293 
Q 1191 2003 1191 1497 
Q 1191 994 1439 701 
Q 1688 409 2113 409 
Q 2538 409 2786 701 
Q 3034 994 3034 1497 
Q 3034 2003 2786 2293 
Q 2538 2584 2113 2584 
z
M 3366 4563 
L 3366 3988 
Q 3128 4100 2886 4159 
Q 2644 4219 2406 4219 
Q 1781 4219 1451 3797 
Q 1122 3375 1075 2522 
Q 1259 2794 1537 2939 
Q 1816 3084 2150 3084 
Q 2853 3084 3261 2657 
Q 3669 2231 3669 1497 
Q 3669 778 3244 343 
Q 2819 -91 2113 -91 
Q 1303 -91 875 529 
Q 447 1150 447 2328 
Q 447 3434 972 4092 
Q 1497 4750 2381 4750 
Q 2619 4750 2861 4703 
Q 3103 4656 3366 4563 
z
" transform="scale(0.015625)"/>
           </defs>
           <use xlink:href="#DejaVuSans-36"/>
           <use xlink:href="#DejaVuSans-30" x="63.623047"/>
           <use xlink:href="#DejaVuSans-30" x="127.246094"/>
           <use xlink:href="#DejaVuSans-30" x="190.869141"/>
          </g>
         </g>
        </g>
        <g id="ytick_5">
         <g id="line2d_8">
          <g>
           <use xlink:href="#m03b6d8502c" x="63.290625" y="183.344383" style="stroke: #000000; stroke-width: 0.8"/>
          </g>
         </g>
         <g id="text_8">
          <!-- 8000 -->
          <g transform="translate(30.840625 187.143602) scale(0.1 -0.1)">
           <defs>
            <path id="DejaVuSans-38" d="M 2034 2216 
Q 1584 2216 1326 1975 
Q 1069 1734 1069 1313 
Q 1069 891 1326 650 
Q 1584 409 2034 409 
Q 2484 409 2743 651 
Q 3003 894 3003 1313 
Q 3003 1734 2745 1975 
Q 2488 2216 2034 2216 
z
M 1403 2484 
Q 997 2584 770 2862 
Q 544 3141 544 3541 
Q 544 4100 942 4425 
Q 1341 4750 2034 4750 
Q 2731 4750 3128 4425 
Q 3525 4100 3525 3541 
Q 3525 3141 3298 2862 
Q 3072 2584 2669 2484 
Q 3125 2378 3379 2068 
Q 3634 1759 3634 1313 
Q 3634 634 3220 271 
Q 2806 -91 2034 -91 
Q 1263 -91 848 271 
Q 434 634 434 1313 
Q 434 1759 690 2068 
Q 947 2378 1403 2484 
z
M 1172 3481 
Q 1172 3119 1398 2916 
Q 1625 2713 2034 2713 
Q 2441 2713 2670 2916 
Q 2900 3119 2900 3481 
Q 2900 3844 2670 4047 
Q 2441 4250 2034 4250 
Q 1625 4250 1398 4047 
Q 1172 3844 1172 3481 
z
" transform="scale(0.015625)"/>
           </defs>
           <use xlink:href="#DejaVuSans-38"/>
           <use xlink:href="#DejaVuSans-30" x="63.623047"/>
           <use xlink:href="#DejaVuSans-30" x="127.246094"/>
           <use xlink:href="#DejaVuSans-30" x="190.869141"/>
          </g>
         </g>
        </g>
        <g id="ytick_6">
         <g id="line2d_9">
          <g>
           <use xlink:href="#m03b6d8502c" x="63.290625" y="148.77501" style="stroke: #000000; stroke-width: 0.8"/>
          </g>
         </g>
         <g id="text_9">
          <!-- 10000 -->
          <g transform="translate(24.478125 152.574229) scale(0.1 -0.1)">
           <defs>
            <path id="DejaVuSans-31" d="M 794 531 
L 1825 531 
L 1825 4091 
L 703 3866 
L 703 4441 
L 1819 4666 
L 2450 4666 
L 2450 531 
L 3481 531 
L 3481 0 
L 794 0 
L 794 531 
z
" transform="scale(0.015625)"/>
           </defs>
           <use xlink:href="#DejaVuSans-31"/>
           <use xlink:href="#DejaVuSans-30" x="63.623047"/>
           <use xlink:href="#DejaVuSans-30" x="127.246094"/>
           <use xlink:href="#DejaVuSans-30" x="190.869141"/>
           <use xlink:href="#DejaVuSans-30" x="254.492188"/>
          </g>
         </g>
        </g>
        <g id="ytick_7">
         <g id="line2d_10">
          <g>
           <use xlink:href="#m03b6d8502c" x="63.290625" y="114.205637" style="stroke: #000000; stroke-width: 0.8"/>
          </g>
         </g>
         <g id="text_10">
          <!-- 12000 -->
          <g transform="translate(24.478125 118.004856) scale(0.1 -0.1)">
           <use xlink:href="#DejaVuSans-31"/>
           <use xlink:href="#DejaVuSans-32" x="63.623047"/>
           <use xlink:href="#DejaVuSans-30" x="127.246094"/>
           <use xlink:href="#DejaVuSans-30" x="190.869141"/>
           <use xlink:href="#DejaVuSans-30" x="254.492188"/>
          </g>
         </g>
        </g>
        <g id="ytick_8">
         <g id="line2d_11">
          <g>
           <use xlink:href="#m03b6d8502c" x="63.290625" y="79.636264" style="stroke: #000000; stroke-width: 0.8"/>
          </g>
         </g>
         <g id="text_11">
          <!-- 14000 -->
          <g transform="translate(24.478125 83.435483) scale(0.1 -0.1)">
           <use xlink:href="#DejaVuSans-31"/>
           <use xlink:href="#DejaVuSans-34" x="63.623047"/>
           <use xlink:href="#DejaVuSans-30" x="127.246094"/>
           <use xlink:href="#DejaVuSans-30" x="190.869141"/>
           <use xlink:href="#DejaVuSans-30" x="254.492188"/>
          </g>
         </g>
        </g>
        <g id="ytick_9">
         <g id="line2d_12">
          <g>
           <use xlink:href="#m03b6d8502c" x="63.290625" y="45.066891" style="stroke: #000000; stroke-width: 0.8"/>
          </g>
         </g>
         <g id="text_12">
          <!-- 16000 -->
          <g transform="translate(24.478125 48.86611) scale(0.1 -0.1)">
           <use xlink:href="#DejaVuSans-31"/>
           <use xlink:href="#DejaVuSans-36" x="63.623047"/>
           <use xlink:href="#DejaVuSans-30" x="127.246094"/>
           <use xlink:href="#DejaVuSans-30" x="190.869141"/>
           <use xlink:href="#DejaVuSans-30" x="254.492188"/>
          </g>
         </g>
        </g>
        <g id="text_13">
         <!-- time ago (generations) -->
         <g transform="translate(18.398438 223.682031) rotate(-90) scale(0.1 -0.1)">
          <defs>
           <path id="DejaVuSans-74" d="M 1172 4494 
L 1172 3500 
L 2356 3500 
L 2356 3053 
L 1172 3053 
L 1172 1153 
Q 1172 725 1289 603 
Q 1406 481 1766 481 
L 2356 481 
L 2356 0 
L 1766 0 
Q 1100 0 847 248 
Q 594 497 594 1153 
L 594 3053 
L 172 3053 
L 172 3500 
L 594 3500 
L 594 4494 
L 1172 4494 
z
" transform="scale(0.015625)"/>
           <path id="DejaVuSans-69" d="M 603 3500 
L 1178 3500 
L 1178 0 
L 603 0 
L 603 3500 
z
M 603 4863 
L 1178 4863 
L 1178 4134 
L 603 4134 
L 603 4863 
z
" transform="scale(0.015625)"/>
           <path id="DejaVuSans-6d" d="M 3328 2828 
Q 3544 3216 3844 3400 
Q 4144 3584 4550 3584 
Q 5097 3584 5394 3201 
Q 5691 2819 5691 2113 
L 5691 0 
L 5113 0 
L 5113 2094 
Q 5113 2597 4934 2840 
Q 4756 3084 4391 3084 
Q 3944 3084 3684 2787 
Q 3425 2491 3425 1978 
L 3425 0 
L 2847 0 
L 2847 2094 
Q 2847 2600 2669 2842 
Q 2491 3084 2119 3084 
Q 1678 3084 1418 2786 
Q 1159 2488 1159 1978 
L 1159 0 
L 581 0 
L 581 3500 
L 1159 3500 
L 1159 2956 
Q 1356 3278 1631 3431 
Q 1906 3584 2284 3584 
Q 2666 3584 2933 3390 
Q 3200 3197 3328 2828 
z
" transform="scale(0.015625)"/>
           <path id="DejaVuSans-65" d="M 3597 1894 
L 3597 1613 
L 953 1613 
Q 991 1019 1311 708 
Q 1631 397 2203 397 
Q 2534 397 2845 478 
Q 3156 559 3463 722 
L 3463 178 
Q 3153 47 2828 -22 
Q 2503 -91 2169 -91 
Q 1331 -91 842 396 
Q 353 884 353 1716 
Q 353 2575 817 3079 
Q 1281 3584 2069 3584 
Q 2775 3584 3186 3129 
Q 3597 2675 3597 1894 
z
M 3022 2063 
Q 3016 2534 2758 2815 
Q 2500 3097 2075 3097 
Q 1594 3097 1305 2825 
Q 1016 2553 972 2059 
L 3022 2063 
z
" transform="scale(0.015625)"/>
           <path id="DejaVuSans-20" transform="scale(0.015625)"/>
           <path id="DejaVuSans-61" d="M 2194 1759 
Q 1497 1759 1228 1600 
Q 959 1441 959 1056 
Q 959 750 1161 570 
Q 1363 391 1709 391 
Q 2188 391 2477 730 
Q 2766 1069 2766 1631 
L 2766 1759 
L 2194 1759 
z
M 3341 1997 
L 3341 0 
L 2766 0 
L 2766 531 
Q 2569 213 2275 61 
Q 1981 -91 1556 -91 
Q 1019 -91 701 211 
Q 384 513 384 1019 
Q 384 1609 779 1909 
Q 1175 2209 1959 2209 
L 2766 2209 
L 2766 2266 
Q 2766 2663 2505 2880 
Q 2244 3097 1772 3097 
Q 1472 3097 1187 3025 
Q 903 2953 641 2809 
L 641 3341 
Q 956 3463 1253 3523 
Q 1550 3584 1831 3584 
Q 2591 3584 2966 3190 
Q 3341 2797 3341 1997 
z
" transform="scale(0.015625)"/>
           <path id="DejaVuSans-67" d="M 2906 1791 
Q 2906 2416 2648 2759 
Q 2391 3103 1925 3103 
Q 1463 3103 1205 2759 
Q 947 2416 947 1791 
Q 947 1169 1205 825 
Q 1463 481 1925 481 
Q 2391 481 2648 825 
Q 2906 1169 2906 1791 
z
M 3481 434 
Q 3481 -459 3084 -895 
Q 2688 -1331 1869 -1331 
Q 1566 -1331 1297 -1286 
Q 1028 -1241 775 -1147 
L 775 -588 
Q 1028 -725 1275 -790 
Q 1522 -856 1778 -856 
Q 2344 -856 2625 -561 
Q 2906 -266 2906 331 
L 2906 616 
Q 2728 306 2450 153 
Q 2172 0 1784 0 
Q 1141 0 747 490 
Q 353 981 353 1791 
Q 353 2603 747 3093 
Q 1141 3584 1784 3584 
Q 2172 3584 2450 3431 
Q 2728 3278 2906 2969 
L 2906 3500 
L 3481 3500 
L 3481 434 
z
" transform="scale(0.015625)"/>
           <path id="DejaVuSans-6f" d="M 1959 3097 
Q 1497 3097 1228 2736 
Q 959 2375 959 1747 
Q 959 1119 1226 758 
Q 1494 397 1959 397 
Q 2419 397 2687 759 
Q 2956 1122 2956 1747 
Q 2956 2369 2687 2733 
Q 2419 3097 1959 3097 
z
M 1959 3584 
Q 2709 3584 3137 3096 
Q 3566 2609 3566 1747 
Q 3566 888 3137 398 
Q 2709 -91 1959 -91 
Q 1206 -91 779 398 
Q 353 888 353 1747 
Q 353 2609 779 3096 
Q 1206 3584 1959 3584 
z
" transform="scale(0.015625)"/>
           <path id="DejaVuSans-28" d="M 1984 4856 
Q 1566 4138 1362 3434 
Q 1159 2731 1159 2009 
Q 1159 1288 1364 580 
Q 1569 -128 1984 -844 
L 1484 -844 
Q 1016 -109 783 600 
Q 550 1309 550 2009 
Q 550 2706 781 3412 
Q 1013 4119 1484 4856 
L 1984 4856 
z
" transform="scale(0.015625)"/>
           <path id="DejaVuSans-6e" d="M 3513 2113 
L 3513 0 
L 2938 0 
L 2938 2094 
Q 2938 2591 2744 2837 
Q 2550 3084 2163 3084 
Q 1697 3084 1428 2787 
Q 1159 2491 1159 1978 
L 1159 0 
L 581 0 
L 581 3500 
L 1159 3500 
L 1159 2956 
Q 1366 3272 1645 3428 
Q 1925 3584 2291 3584 
Q 2894 3584 3203 3211 
Q 3513 2838 3513 2113 
z
" transform="scale(0.015625)"/>
           <path id="DejaVuSans-72" d="M 2631 2963 
Q 2534 3019 2420 3045 
Q 2306 3072 2169 3072 
Q 1681 3072 1420 2755 
Q 1159 2438 1159 1844 
L 1159 0 
L 581 0 
L 581 3500 
L 1159 3500 
L 1159 2956 
Q 1341 3275 1631 3429 
Q 1922 3584 2338 3584 
Q 2397 3584 2469 3576 
Q 2541 3569 2628 3553 
L 2631 2963 
z
" transform="scale(0.015625)"/>
           <path id="DejaVuSans-73" d="M 2834 3397 
L 2834 2853 
Q 2591 2978 2328 3040 
Q 2066 3103 1784 3103 
Q 1356 3103 1142 2972 
Q 928 2841 928 2578 
Q 928 2378 1081 2264 
Q 1234 2150 1697 2047 
L 1894 2003 
Q 2506 1872 2764 1633 
Q 3022 1394 3022 966 
Q 3022 478 2636 193 
Q 2250 -91 1575 -91 
Q 1294 -91 989 -36 
Q 684 19 347 128 
L 347 722 
Q 666 556 975 473 
Q 1284 391 1588 391 
Q 1994 391 2212 530 
Q 2431 669 2431 922 
Q 2431 1156 2273 1281 
Q 2116 1406 1581 1522 
L 1381 1569 
Q 847 1681 609 1914 
Q 372 2147 372 2553 
Q 372 3047 722 3315 
Q 1072 3584 1716 3584 
Q 2034 3584 2315 3537 
Q 2597 3491 2834 3397 
z
" transform="scale(0.015625)"/>
           <path id="DejaVuSans-29" d="M 513 4856 
L 1013 4856 
Q 1481 4119 1714 3412 
Q 1947 2706 1947 2009 
Q 1947 1309 1714 600 
Q 1481 -109 1013 -844 
L 513 -844 
Q 928 -128 1133 580 
Q 1338 1288 1338 2009 
Q 1338 2731 1133 3434 
Q 928 4138 513 4856 
z
" transform="scale(0.015625)"/>
          </defs>
          <use xlink:href="#DejaVuSans-74"/>
          <use xlink:href="#DejaVuSans-69" x="39.208984"/>
          <use xlink:href="#DejaVuSans-6d" x="66.992188"/>
          <use xlink:href="#DejaVuSans-65" x="164.404297"/>
          <use xlink:href="#DejaVuSans-20" x="225.927734"/>
          <use xlink:href="#DejaVuSans-61" x="257.714844"/>
          <use xlink:href="#DejaVuSans-67" x="318.994141"/>
          <use xlink:href="#DejaVuSans-6f" x="382.470703"/>
          <use xlink:href="#DejaVuSans-20" x="443.652344"/>
          <use xlink:href="#DejaVuSans-28" x="475.439453"/>
          <use xlink:href="#DejaVuSans-67" x="514.453125"/>
          <use xlink:href="#DejaVuSans-65" x="577.929688"/>
          <use xlink:href="#DejaVuSans-6e" x="639.453125"/>
          <use xlink:href="#DejaVuSans-65" x="702.832031"/>
          <use xlink:href="#DejaVuSans-72" x="764.355469"/>
          <use xlink:href="#DejaVuSans-61" x="805.46875"/>
          <use xlink:href="#DejaVuSans-74" x="866.748047"/>
          <use xlink:href="#DejaVuSans-69" x="905.957031"/>
          <use xlink:href="#DejaVuSans-6f" x="933.740234"/>
          <use xlink:href="#DejaVuSans-6e" x="994.921875"/>
          <use xlink:href="#DejaVuSans-73" x="1058.300781"/>
          <use xlink:href="#DejaVuSans-29" x="1110.400391"/>
         </g>
        </g>
       </g>
       <g id="patch_7">
        <path d="M 283.666648 185.297553 
L 282.666648 185.266116 
L 281.666648 185.229176 
L 280.666648 185.131429 
L 279.666648 185.098908 
L 278.666648 185.025283 
L 277.666648 184.986717 
L 276.666648 184.951304 
L 275.666648 184.893664 
L 274.666648 184.823278 
L 273.666648 184.771314 
L 272.666648 184.712224 
L 271.666648 184.623903 
L 270.666648 184.577759 
L 269.666648 184.535348 
L 268.666648 184.504855 
L 267.666648 184.47881 
L 266.666648 184.45761 
L 265.666648 184.403309 
L 264.666648 184.375372 
L 263.666648 184.345648 
L 262.666648 184.320253 
L 261.666648 184.309052 
L 260.666648 184.298928 
L 259.666648 184.299133 
L 258.666648 184.308643 
L 257.666648 184.320296 
L 256.666648 184.351325 
L 255.666648 184.362493 
L 254.666648 184.392611 
L 253.666648 184.452388 
L 252.666648 184.489579 
L 251.666648 184.528675 
L 250.666648 184.571115 
L 249.666648 184.60388 
L 248.666648 184.671307 
L 247.666648 184.710433 
L 246.666648 184.753107 
L 245.666648 184.823688 
L 244.666648 184.860079 
L 243.666648 184.918482 
L 242.666648 185.029434 
L 241.666648 185.100093 
L 240.666648 185.213033 
L 239.666648 185.258805 
L 238.666648 185.320089 
L 237.666648 185.368588 
L 236.666648 185.449411 
L 235.666648 185.56793 
L 234.666648 185.63814 
L 233.666648 185.721403 
L 232.666648 185.754544 
L 231.666648 185.805782 
L 230.666648 185.87418 
L 229.666648 185.940396 
L 228.666648 186.017313 
L 227.666648 186.044628 
L 226.666648 186.071106 
L 225.666648 186.093756 
L 224.666648 186.113288 
L 223.666648 186.139681 
L 222.666648 186.189452 
L 221.666648 186.224525 
L 220.666648 186.260391 
L 219.666648 186.275758 
L 218.666648 186.291528 
L 217.666648 186.29494 
L 216.666648 186.297358 
L 215.666648 186.296872 
L 214.666648 186.294942 
L 213.666648 186.281685 
L 212.666648 186.273295 
L 211.666648 186.251758 
L 210.666648 186.228726 
L 209.666648 186.211492 
L 208.666648 186.19303 
L 207.666648 186.172577 
L 206.666648 186.155977 
L 205.666648 186.093199 
L 204.666648 186.017934 
L 203.666648 185.985294 
L 202.666648 185.917731 
L 201.666648 185.863684 
L 200.666648 185.829979 
L 199.666648 185.739853 
L 198.666648 185.711319 
L 197.666648 185.679832 
L 196.666648 185.648822 
L 195.666648 185.594014 
L 194.666648 185.529426 
L 193.666648 185.491231 
L 192.666648 185.395297 
L 191.666648 185.346039 
L 190.666648 185.301969 
L 189.666648 185.261846 
L 188.666648 185.153479 
L 187.666648 185.11185 
L 186.666648 185.049709 
L 185.666648 184.979747 
L 184.666648 184.875242 
L 183.666648 184.838255 
L 182.666648 184.792377 
L 181.666648 184.723883 
L 180.666648 184.675137 
L 179.666648 184.597539 
L 178.666648 184.566999 
L 177.666648 184.497484 
L 176.666648 184.473511 
L 175.666648 184.44489 
L 174.666648 184.403097 
L 173.666648 184.381521 
L 172.666648 184.367573 
L 171.666648 184.34085 
L 170.666648 184.33154 
L 169.666648 184.319094 
L 168.666648 184.308039 
L 167.666648 184.302374 
L 166.666648 184.297611 
L 165.666648 184.303158 
L 164.666648 184.316446 
L 163.666648 184.323964 
L 162.666648 184.348749 
L 161.666648 184.372317 
L 160.666648 184.408498 
L 159.666648 184.43446 
L 158.666648 184.456781 
L 157.666648 184.525541 
L 156.666648 184.600076 
L 155.666648 184.694056 
L 154.666648 184.745108 
L 153.666648 184.799042 
L 152.666648 184.834292 
L 151.666648 184.94038 
L 150.666648 184.992645 
L 149.666648 185.029551 
L 148.666648 185.060582 
L 147.666648 185.121738 
L 146.666648 185.189158 
L 145.666648 185.238063 
L 144.666648 185.303256 
L 143.666648 185.341443 
L 142.666648 185.383439 
L 141.666648 185.425457 
L 140.666648 185.484973 
L 139.009502 185.598133 
" clip-path="url(#p2e10d66d6b)" style="fill: none; stroke: #ffffff; stroke-width: 3; stroke-linecap: round"/>
        <path d="M 283.666648 185.297553 
L 282.666648 185.266116 
L 281.666648 185.229176 
L 280.666648 185.131429 
L 279.666648 185.098908 
L 278.666648 185.025283 
L 277.666648 184.986717 
L 276.666648 184.951304 
L 275.666648 184.893664 
L 274.666648 184.823278 
L 273.666648 184.771314 
L 272.666648 184.712224 
L 271.666648 184.623903 
L 270.666648 184.577759 
L 269.666648 184.535348 
L 268.666648 184.504855 
L 267.666648 184.47881 
L 266.666648 184.45761 
L 265.666648 184.403309 
L 264.666648 184.375372 
L 263.666648 184.345648 
L 262.666648 184.320253 
L 261.666648 184.309052 
L 260.666648 184.298928 
L 259.666648 184.299133 
L 258.666648 184.308643 
L 257.666648 184.320296 
L 256.666648 184.351325 
L 255.666648 184.362493 
L 254.666648 184.392611 
L 253.666648 184.452388 
L 252.666648 184.489579 
L 251.666648 184.528675 
L 250.666648 184.571115 
L 249.666648 184.60388 
L 248.666648 184.671307 
L 247.666648 184.710433 
L 246.666648 184.753107 
L 245.666648 184.823688 
L 244.666648 184.860079 
L 243.666648 184.918482 
L 242.666648 185.029434 
L 241.666648 185.100093 
L 240.666648 185.213033 
L 239.666648 185.258805 
L 238.666648 185.320089 
L 237.666648 185.368588 
L 236.666648 185.449411 
L 235.666648 185.56793 
L 234.666648 185.63814 
L 233.666648 185.721403 
L 232.666648 185.754544 
L 231.666648 185.805782 
L 230.666648 185.87418 
L 229.666648 185.940396 
L 228.666648 186.017313 
L 227.666648 186.044628 
L 226.666648 186.071106 
L 225.666648 186.093756 
L 224.666648 186.113288 
L 223.666648 186.139681 
L 222.666648 186.189452 
L 221.666648 186.224525 
L 220.666648 186.260391 
L 219.666648 186.275758 
L 218.666648 186.291528 
L 217.666648 186.29494 
L 216.666648 186.297358 
L 215.666648 186.296872 
L 214.666648 186.294942 
L 213.666648 186.281685 
L 212.666648 186.273295 
L 211.666648 186.251758 
L 210.666648 186.228726 
L 209.666648 186.211492 
L 208.666648 186.19303 
L 207.666648 186.172577 
L 206.666648 186.155977 
L 205.666648 186.093199 
L 204.666648 186.017934 
L 203.666648 185.985294 
L 202.666648 185.917731 
L 201.666648 185.863684 
L 200.666648 185.829979 
L 199.666648 185.739853 
L 198.666648 185.711319 
L 197.666648 185.679832 
L 196.666648 185.648822 
L 195.666648 185.594014 
L 194.666648 185.529426 
L 193.666648 185.491231 
L 192.666648 185.395297 
L 191.666648 185.346039 
L 190.666648 185.301969 
L 189.666648 185.261846 
L 188.666648 185.153479 
L 187.666648 185.11185 
L 186.666648 185.049709 
L 185.666648 184.979747 
L 184.666648 184.875242 
L 183.666648 184.838255 
L 182.666648 184.792377 
L 181.666648 184.723883 
L 180.666648 184.675137 
L 179.666648 184.597539 
L 178.666648 184.566999 
L 177.666648 184.497484 
L 176.666648 184.473511 
L 175.666648 184.44489 
L 174.666648 184.403097 
L 173.666648 184.381521 
L 172.666648 184.367573 
L 171.666648 184.34085 
L 170.666648 184.33154 
L 169.666648 184.319094 
L 168.666648 184.308039 
L 167.666648 184.302374 
L 166.666648 184.297611 
L 165.666648 184.303158 
L 164.666648 184.316446 
L 163.666648 184.323964 
L 162.666648 184.348749 
L 161.666648 184.372317 
L 160.666648 184.408498 
L 159.666648 184.43446 
L 158.666648 184.456781 
L 157.666648 184.525541 
L 156.666648 184.600076 
L 155.666648 184.694056 
L 154.666648 184.745108 
L 153.666648 184.799042 
L 152.666648 184.834292 
L 151.666648 184.94038 
L 150.666648 184.992645 
L 149.666648 185.029551 
L 148.666648 185.060582 
L 147.666648 185.121738 
L 146.666648 185.189158 
L 145.666648 185.238063 
L 144.666648 185.303256 
L 143.666648 185.341443 
L 142.666648 185.383439 
L 141.666648 185.425457 
L 140.666648 185.484973 
L 139.009502 185.598133 
" clip-path="url(#p2e10d66d6b)" style="fill: none; stroke: #1f77b4; stroke-linecap: round"/>
        <path d="M 143.009502 187.297553 
L 142.129133 186.822221 
L 141.251227 186.341967 
L 140.400513 185.807327 
L 139.098339 185.119879 
L 140.025692 185.093864 
L 140.937366 184.681145 
L 141.84763 184.265606 
L 143.190126 183.658801 
L 142.535227 184.297553 
L 142.483263 185.297553 
L 142.424173 187.297553 
z
" clip-path="url(#p2e10d66d6b)" style="fill: #ffffff; stroke: #ffffff; stroke-width: 3; stroke-linecap: round"/>
        <path d="M 143.009502 187.297553 
L 142.129133 186.822221 
L 141.251227 186.341967 
L 140.400513 185.807327 
L 139.098339 185.119879 
L 140.025692 185.093864 
L 140.937366 184.681145 
L 141.84763 184.265606 
L 143.190126 183.658801 
L 142.535227 184.297553 
L 142.483263 185.297553 
L 142.424173 187.297553 
z
" clip-path="url(#p2e10d66d6b)" style="fill: #ffffff; stroke: #1f77b4; stroke-linecap: round"/>
        <g id="patch_8">
         <path d="M 339.006436 72.964375 
L 340.006436 72.995811 
L 341.006436 73.032752 
L 342.006436 73.130498 
L 343.006436 73.16302 
L 344.006436 73.236645 
L 345.006436 73.27521 
L 346.006436 73.310623 
L 347.006436 73.368263 
L 348.006436 73.438649 
L 349.006436 73.490614 
L 350.006436 73.549703 
L 351.006436 73.638024 
L 352.006436 73.684169 
L 353.006436 73.72658 
L 354.006436 73.757072 
L 355.006436 73.783117 
L 356.006436 73.804317 
L 357.006436 73.858618 
L 358.006436 73.886556 
L 359.006436 73.91628 
L 360.006436 73.941675 
L 361.006436 73.952875 
L 362.006436 73.962999 
L 363.006436 73.962795 
L 364.006436 73.953285 
L 365.006436 73.941631 
L 366.006436 73.910602 
L 367.006436 73.899434 
L 368.006436 73.869317 
L 369.006436 73.80954 
L 370.006436 73.772348 
L 371.006436 73.733252 
L 372.006436 73.690812 
L 373.006436 73.658047 
L 374.006436 73.590621 
L 375.006436 73.551495 
L 376.006436 73.50882 
L 377.006436 73.43824 
L 378.006436 73.401849 
L 379.006436 73.343446 
L 380.006436 73.232493 
L 381.006436 73.161835 
L 382.006436 73.048895 
L 383.006436 73.003122 
L 384.006436 72.941839 
L 385.006436 72.89334 
L 386.006436 72.812517 
L 387.006436 72.693998 
L 388.006436 72.623787 
L 389.006436 72.540525 
L 390.006436 72.507383 
L 391.006436 72.456146 
L 392.006436 72.387747 
L 393.006436 72.321532 
L 394.006436 72.244615 
L 395.006436 72.217299 
L 396.006436 72.190822 
L 397.006436 72.168171 
L 398.006436 72.14864 
L 399.006436 72.122246 
L 400.006436 72.072475 
L 401.006436 72.037402 
L 402.006436 72.001536 
L 403.006436 71.986169 
L 404.006436 71.9704 
L 405.006436 71.966987 
L 406.006436 71.96457 
L 407.006436 71.965056 
L 408.006436 71.966985 
L 409.006436 71.980242 
L 410.006436 71.988633 
L 411.006436 72.010169 
L 412.006436 72.033202 
L 413.006436 72.050435 
L 414.006436 72.068898 
L 415.006436 72.08935 
L 416.006436 72.10595 
L 417.006436 72.168729 
L 418.006436 72.243994 
L 419.006436 72.276633 
L 420.006436 72.344197 
L 421.006436 72.398244 
L 422.006436 72.431948 
L 423.006436 72.522074 
L 424.006436 72.550609 
L 425.006436 72.582095 
L 426.006436 72.613106 
L 427.006436 72.667914 
L 428.006436 72.732501 
L 429.006436 72.770697 
L 430.006436 72.866631 
L 431.006436 72.915889 
L 432.006436 72.959958 
L 433.006436 73.000082 
L 434.006436 73.108449 
L 435.006436 73.150077 
L 436.006436 73.212219 
L 437.006436 73.282181 
L 438.006436 73.386685 
L 439.006436 73.423673 
L 440.006436 73.46955 
L 441.006436 73.538045 
L 442.006436 73.586791 
L 443.006436 73.664388 
L 444.006436 73.694929 
L 445.006436 73.764443 
L 446.006436 73.788416 
L 447.006436 73.817038 
L 448.006436 73.858831 
L 449.006436 73.880407 
L 450.006436 73.894355 
L 451.006436 73.921077 
L 452.006436 73.930387 
L 453.006436 73.942834 
L 454.006436 73.953889 
L 455.006436 73.959553 
L 456.006436 73.964317 
L 457.006436 73.958769 
L 458.006436 73.945481 
L 459.006436 73.937964 
L 460.006436 73.913179 
L 461.006436 73.88961 
L 462.006436 73.85343 
L 463.006436 73.827468 
L 464.006436 73.805146 
L 465.006436 73.736386 
L 466.006436 73.661851 
L 467.006436 73.567872 
L 468.006436 73.51682 
L 469.006436 73.462886 
L 470.006436 73.427635 
L 471.006436 73.321547 
L 472.006436 73.269283 
L 473.006436 73.232376 
L 474.006436 73.201345 
L 475.006436 73.14019 
L 476.006436 73.07277 
L 477.006436 73.023864 
L 478.006436 72.958672 
L 479.006436 72.920484 
L 480.006436 72.878488 
L 481.006436 72.836471 
L 482.006436 72.776955 
L 483.006436 72.663795 
L 484.006436 72.611544 
L 485.006436 72.572126 
L 486.006436 72.525025 
L 487.006436 72.468245 
L 488.006436 72.435582 
L 489.006436 72.399404 
L 490.006436 72.367314 
L 491.006436 72.333034 
L 492.006436 72.274656 
L 493.006436 72.229471 
L 494.006436 72.199847 
L 495.006436 72.149461 
L 496.006436 72.124264 
L 497.006436 72.103213 
L 498.006436 72.068245 
L 499.006436 72.043955 
L 500.006436 72.029888 
L 501.006436 72.010946 
L 502.006436 71.995285 
L 503.006436 71.982733 
L 504.006436 71.976897 
L 505.006436 71.970015 
L 506.006436 71.964841 
L 507.006436 71.966624 
L 508.006436 71.969349 
L 509.006436 71.980503 
L 510.006436 72.008738 
L 511.006436 72.052526 
L 512.006436 72.073215 
L 513.006436 72.114188 
L 514.006436 72.154263 
L 515.006436 72.173373 
L 516.006436 72.195882 
L 517.006436 72.262533 
L 518.006436 72.312243 
L 519.006436 72.385949 
L 520.006436 72.417263 
L 521.006436 72.493885 
L 522.006436 72.532183 
L 523.006436 72.6063 
L 524.006436 72.710358 
L 525.006436 72.780189 
L 526.006436 72.885423 
L 527.006436 72.940438 
L 528.006436 73.063913 
L 529.006436 73.134472 
L 530.006436 73.250311 
L 531.006436 73.300492 
L 532.006436 73.336096 
L 533.006436 73.427503 
L 534.006436 73.481011 
L 535.006436 73.568919 
L 536.006436 73.638104 
L 537.006436 73.684868 
L 538.006436 73.756912 
L 539.006436 73.807054 
L 540.006436 73.824444 
L 541.006436 73.851447 
L 542.006436 73.870874 
L 543.006436 73.890212 
L 544.006436 73.928461 
L 545.006436 73.944894 
L 546.006436 73.953263 
L 547.006436 73.957582 
L 548.006436 73.964137 
L 549.006436 73.961591 
L 550.623436 73.956132 
" clip-path="url(#p2e10d66d6b)" style="fill: none; stroke: #ffffff; stroke-width: 3; stroke-linecap: round"/>
         <path d="M 339.006436 72.964375 
L 340.006436 72.995811 
L 341.006436 73.032752 
L 342.006436 73.130498 
L 343.006436 73.16302 
L 344.006436 73.236645 
L 345.006436 73.27521 
L 346.006436 73.310623 
L 347.006436 73.368263 
L 348.006436 73.438649 
L 349.006436 73.490614 
L 350.006436 73.549703 
L 351.006436 73.638024 
L 352.006436 73.684169 
L 353.006436 73.72658 
L 354.006436 73.757072 
L 355.006436 73.783117 
L 356.006436 73.804317 
L 357.006436 73.858618 
L 358.006436 73.886556 
L 359.006436 73.91628 
L 360.006436 73.941675 
L 361.006436 73.952875 
L 362.006436 73.962999 
L 363.006436 73.962795 
L 364.006436 73.953285 
L 365.006436 73.941631 
L 366.006436 73.910602 
L 367.006436 73.899434 
L 368.006436 73.869317 
L 369.006436 73.80954 
L 370.006436 73.772348 
L 371.006436 73.733252 
L 372.006436 73.690812 
L 373.006436 73.658047 
L 374.006436 73.590621 
L 375.006436 73.551495 
L 376.006436 73.50882 
L 377.006436 73.43824 
L 378.006436 73.401849 
L 379.006436 73.343446 
L 380.006436 73.232493 
L 381.006436 73.161835 
L 382.006436 73.048895 
L 383.006436 73.003122 
L 384.006436 72.941839 
L 385.006436 72.89334 
L 386.006436 72.812517 
L 387.006436 72.693998 
L 388.006436 72.623787 
L 389.006436 72.540525 
L 390.006436 72.507383 
L 391.006436 72.456146 
L 392.006436 72.387747 
L 393.006436 72.321532 
L 394.006436 72.244615 
L 395.006436 72.217299 
L 396.006436 72.190822 
L 397.006436 72.168171 
L 398.006436 72.14864 
L 399.006436 72.122246 
L 400.006436 72.072475 
L 401.006436 72.037402 
L 402.006436 72.001536 
L 403.006436 71.986169 
L 404.006436 71.9704 
L 405.006436 71.966987 
L 406.006436 71.96457 
L 407.006436 71.965056 
L 408.006436 71.966985 
L 409.006436 71.980242 
L 410.006436 71.988633 
L 411.006436 72.010169 
L 412.006436 72.033202 
L 413.006436 72.050435 
L 414.006436 72.068898 
L 415.006436 72.08935 
L 416.006436 72.10595 
L 417.006436 72.168729 
L 418.006436 72.243994 
L 419.006436 72.276633 
L 420.006436 72.344197 
L 421.006436 72.398244 
L 422.006436 72.431948 
L 423.006436 72.522074 
L 424.006436 72.550609 
L 425.006436 72.582095 
L 426.006436 72.613106 
L 427.006436 72.667914 
L 428.006436 72.732501 
L 429.006436 72.770697 
L 430.006436 72.866631 
L 431.006436 72.915889 
L 432.006436 72.959958 
L 433.006436 73.000082 
L 434.006436 73.108449 
L 435.006436 73.150077 
L 436.006436 73.212219 
L 437.006436 73.282181 
L 438.006436 73.386685 
L 439.006436 73.423673 
L 440.006436 73.46955 
L 441.006436 73.538045 
L 442.006436 73.586791 
L 443.006436 73.664388 
L 444.006436 73.694929 
L 445.006436 73.764443 
L 446.006436 73.788416 
L 447.006436 73.817038 
L 448.006436 73.858831 
L 449.006436 73.880407 
L 450.006436 73.894355 
L 451.006436 73.921077 
L 452.006436 73.930387 
L 453.006436 73.942834 
L 454.006436 73.953889 
L 455.006436 73.959553 
L 456.006436 73.964317 
L 457.006436 73.958769 
L 458.006436 73.945481 
L 459.006436 73.937964 
L 460.006436 73.913179 
L 461.006436 73.88961 
L 462.006436 73.85343 
L 463.006436 73.827468 
L 464.006436 73.805146 
L 465.006436 73.736386 
L 466.006436 73.661851 
L 467.006436 73.567872 
L 468.006436 73.51682 
L 469.006436 73.462886 
L 470.006436 73.427635 
L 471.006436 73.321547 
L 472.006436 73.269283 
L 473.006436 73.232376 
L 474.006436 73.201345 
L 475.006436 73.14019 
L 476.006436 73.07277 
L 477.006436 73.023864 
L 478.006436 72.958672 
L 479.006436 72.920484 
L 480.006436 72.878488 
L 481.006436 72.836471 
L 482.006436 72.776955 
L 483.006436 72.663795 
L 484.006436 72.611544 
L 485.006436 72.572126 
L 486.006436 72.525025 
L 487.006436 72.468245 
L 488.006436 72.435582 
L 489.006436 72.399404 
L 490.006436 72.367314 
L 491.006436 72.333034 
L 492.006436 72.274656 
L 493.006436 72.229471 
L 494.006436 72.199847 
L 495.006436 72.149461 
L 496.006436 72.124264 
L 497.006436 72.103213 
L 498.006436 72.068245 
L 499.006436 72.043955 
L 500.006436 72.029888 
L 501.006436 72.010946 
L 502.006436 71.995285 
L 503.006436 71.982733 
L 504.006436 71.976897 
L 505.006436 71.970015 
L 506.006436 71.964841 
L 507.006436 71.966624 
L 508.006436 71.969349 
L 509.006436 71.980503 
L 510.006436 72.008738 
L 511.006436 72.052526 
L 512.006436 72.073215 
L 513.006436 72.114188 
L 514.006436 72.154263 
L 515.006436 72.173373 
L 516.006436 72.195882 
L 517.006436 72.262533 
L 518.006436 72.312243 
L 519.006436 72.385949 
L 520.006436 72.417263 
L 521.006436 72.493885 
L 522.006436 72.532183 
L 523.006436 72.6063 
L 524.006436 72.710358 
L 525.006436 72.780189 
L 526.006436 72.885423 
L 527.006436 72.940438 
L 528.006436 73.063913 
L 529.006436 73.134472 
L 530.006436 73.250311 
L 531.006436 73.300492 
L 532.006436 73.336096 
L 533.006436 73.427503 
L 534.006436 73.481011 
L 535.006436 73.568919 
L 536.006436 73.638104 
L 537.006436 73.684868 
L 538.006436 73.756912 
L 539.006436 73.807054 
L 540.006436 73.824444 
L 541.006436 73.851447 
L 542.006436 73.870874 
L 543.006436 73.890212 
L 544.006436 73.928461 
L 545.006436 73.944894 
L 546.006436 73.953263 
L 547.006436 73.957582 
L 548.006436 73.964137 
L 549.006436 73.961591 
L 550.623436 73.956132 
" clip-path="url(#p2e10d66d6b)" style="fill: none; stroke: #1f77b4; stroke-linecap: round"/>
         <path d="M 546.623436 70.964375 
L 547.503805 71.439706 
L 548.381711 71.91996 
L 549.232425 72.454601 
L 550.534599 73.142048 
L 549.607246 73.168063 
L 548.695572 73.580783 
L 547.785308 73.996322 
L 546.442812 74.603126 
L 547.097711 73.964375 
L 547.149675 72.964375 
L 547.208765 70.964375 
z
" clip-path="url(#p2e10d66d6b)" style="fill: #ffffff; stroke: #ffffff; stroke-width: 3; stroke-linecap: round"/>
         <path d="M 546.623436 70.964375 
L 547.503805 71.439706 
L 548.381711 71.91996 
L 549.232425 72.454601 
L 550.534599 73.142048 
L 549.607246 73.168063 
L 548.695572 73.580783 
L 547.785308 73.996322 
L 546.442812 74.603126 
L 547.097711 73.964375 
L 547.149675 72.964375 
L 547.208765 70.964375 
z
" clip-path="url(#p2e10d66d6b)" style="fill: #ffffff; stroke: #1f77b4; stroke-linecap: round"/>
         <g id="patch_9">
          <path d="M 137.895651 264.54784 
L 138.895651 264.579277 
L 139.895651 264.616217 
L 140.895651 264.713964 
L 141.895651 264.746485 
L 142.895651 264.82011 
L 143.895651 264.858675 
L 144.895651 264.894089 
L 145.895651 264.951728 
L 146.895651 265.022115 
L 147.895651 265.074079 
L 148.895651 265.133169 
L 149.895651 265.22149 
L 150.895651 265.267634 
L 151.895651 265.310045 
L 152.895651 265.340538 
L 153.895651 265.366582 
L 154.895651 265.387783 
L 155.895651 265.442084 
L 156.895651 265.470021 
L 157.895651 265.499745 
L 158.895651 265.52514 
L 159.895651 265.53634 
L 160.895651 265.546464 
L 161.895651 265.54626 
L 162.895651 265.53675 
L 163.895651 265.525097 
L 164.895651 265.494067 
L 165.895651 265.482899 
L 166.895651 265.452782 
L 167.895651 265.393005 
L 168.895651 265.355813 
L 169.895651 265.316717 
L 170.895651 265.274278 
L 171.895651 265.241513 
L 172.895651 265.174086 
L 173.895651 265.13496 
L 174.895651 265.092286 
L 175.895651 265.021705 
L 176.895651 264.985314 
L 177.895651 264.926911 
L 178.895651 264.815958 
L 179.895651 264.7453 
L 180.895651 264.63236 
L 181.895651 264.586587 
L 182.895651 264.525304 
L 183.895651 264.476805 
L 184.895651 264.395982 
L 185.895651 264.277463 
L 186.895651 264.207253 
L 187.895651 264.12399 
L 188.895651 264.090848 
L 189.895651 264.039611 
L 190.895651 263.971213 
L 191.895651 263.904997 
L 192.895651 263.82808 
L 193.895651 263.800765 
L 194.895651 263.774287 
L 195.895651 263.751637 
L 196.895651 263.732105 
L 197.895651 263.705711 
L 198.895651 263.65594 
L 199.895651 263.620867 
L 200.895651 263.585002 
L 201.895651 263.569634 
L 202.895651 263.553865 
L 203.895651 263.550453 
L 204.895651 263.548035 
L 205.895651 263.548521 
L 206.895651 263.55045 
L 207.895651 263.563707 
L 208.895651 263.572098 
L 209.895651 263.593635 
L 210.895651 263.616667 
L 211.895651 263.633901 
L 212.895651 263.652363 
L 213.895651 263.672816 
L 214.895651 263.689415 
L 215.895651 263.752194 
L 216.895651 263.827459 
L 217.895651 263.860098 
L 218.895651 263.927662 
L 219.895651 263.981709 
L 220.895651 264.015413 
L 221.895651 264.105539 
L 222.895651 264.134074 
L 223.895651 264.16556 
L 224.895651 264.196571 
L 225.895651 264.251379 
L 226.895651 264.315967 
L 227.895651 264.354162 
L 228.895651 264.450096 
L 229.895651 264.499354 
L 230.895651 264.543424 
L 231.895651 264.583547 
L 232.895651 264.691914 
L 233.895651 264.733542 
L 234.895651 264.795684 
L 235.895651 264.865646 
L 236.895651 264.970151 
L 237.895651 265.007138 
L 238.895651 265.053015 
L 239.895651 265.12151 
L 240.895651 265.170256 
L 241.895651 265.247853 
L 242.895651 265.278394 
L 243.895651 265.347908 
L 244.895651 265.371881 
L 245.895651 265.400503 
L 246.895651 265.442296 
L 247.895651 265.463872 
L 248.895651 265.47782 
L 249.895651 265.504543 
L 250.895651 265.513852 
L 251.895651 265.526299 
L 252.895651 265.537354 
L 253.895651 265.543018 
L 254.895651 265.547782 
L 255.895651 265.542235 
L 256.895651 265.528947 
L 257.895651 265.521429 
L 258.895651 265.496644 
L 259.895651 265.473076 
L 260.895651 265.436895 
L 261.895651 265.410933 
L 262.895651 265.388612 
L 263.895651 265.319851 
L 264.895651 265.245316 
L 265.895651 265.151337 
L 266.895651 265.100285 
L 267.895651 265.046351 
L 268.895651 265.0111 
L 269.895651 264.905012 
L 270.895651 264.852748 
L 271.895651 264.815841 
L 272.895651 264.784811 
L 273.895651 264.723655 
L 274.895651 264.656235 
L 275.895651 264.607329 
L 276.895651 264.542137 
L 277.895651 264.503949 
L 278.895651 264.461954 
L 279.895651 264.419936 
L 280.895651 264.36042 
L 281.895651 264.24726 
L 282.895651 264.195009 
L 283.895651 264.155591 
L 284.895651 264.10849 
L 285.895651 264.051711 
L 286.895651 264.019047 
L 287.895651 263.98287 
L 288.895651 263.950779 
L 289.895651 263.916499 
L 290.895651 263.858121 
L 291.895651 263.812936 
L 292.895651 263.783312 
L 293.895651 263.732927 
L 294.895651 263.707729 
L 295.895651 263.686678 
L 296.895651 263.65171 
L 297.895651 263.62742 
L 298.895651 263.613353 
L 299.895651 263.594411 
L 300.895651 263.57875 
L 301.895651 263.566198 
L 302.895651 263.560362 
L 303.895651 263.55348 
L 304.895651 263.548306 
L 305.895651 263.550089 
L 306.895651 263.552815 
L 307.895651 263.563968 
L 308.895651 263.592203 
L 309.895651 263.635991 
L 310.895651 263.65668 
L 311.895651 263.697654 
L 312.895651 263.737728 
L 313.895651 263.756838 
L 314.895651 263.779347 
L 315.895651 263.845999 
L 316.895651 263.895708 
L 317.895651 263.969415 
L 318.895651 264.000728 
L 319.895651 264.07735 
L 320.895651 264.115648 
L 321.895651 264.189765 
L 322.895651 264.293823 
L 323.895651 264.363654 
L 324.895651 264.468888 
L 325.895651 264.523903 
L 326.895651 264.647378 
L 327.895651 264.717937 
L 328.895651 264.833777 
L 329.895651 264.883957 
L 330.895651 264.919561 
L 331.895651 265.010968 
L 332.895651 265.064476 
L 333.895651 265.152384 
L 334.895651 265.221569 
L 335.895651 265.268333 
L 336.895651 265.340377 
L 337.895651 265.390519 
L 338.895651 265.407909 
L 339.895651 265.434912 
L 340.895651 265.45434 
L 341.895651 265.473678 
L 342.895651 265.511926 
L 343.895651 265.528359 
L 344.895651 265.536728 
L 345.895651 265.541047 
L 346.895651 265.547602 
L 347.895651 265.545056 
L 348.895651 265.539598 
L 349.895651 265.523169 
L 350.895651 265.491234 
L 351.895651 265.453254 
L 352.895651 265.41845 
L 353.895651 265.355378 
L 354.895651 265.333952 
L 355.895651 265.283334 
L 356.895651 265.258376 
L 357.895651 265.202743 
L 358.895651 265.171514 
L 359.895651 265.121369 
L 360.895651 265.088876 
L 361.895651 265.008464 
L 362.895651 264.939538 
L 363.895651 264.823841 
L 364.895651 264.748362 
L 365.895651 264.632837 
L 366.895651 264.553353 
L 367.895651 264.444912 
L 368.895651 264.405544 
L 369.895651 264.302677 
L 370.895651 264.202879 
L 371.895651 264.157381 
L 372.895651 264.123059 
L 373.895651 264.071103 
L 374.895651 264.031456 
L 375.895651 263.995942 
L 376.895651 263.928297 
L 377.895651 263.889216 
L 378.895651 263.838734 
L 379.895651 263.789428 
L 380.895651 263.738359 
L 381.895651 263.694119 
L 382.895651 263.672099 
L 383.895651 263.656543 
L 384.895651 263.614096 
L 385.895651 263.599228 
L 386.895651 263.576501 
L 387.895651 263.556184 
L 388.895651 263.550387 
L 389.895651 263.547905 
L 390.895651 263.550962 
L 391.895651 263.562558 
L 392.895651 263.579478 
L 393.895651 263.611139 
L 394.895651 263.625223 
L 395.895651 263.677894 
L 396.895651 263.726983 
L 397.895651 263.781684 
L 398.895651 263.826032 
L 399.895651 263.896024 
L 400.895651 263.946407 
L 401.895651 264.000314 
L 402.895651 264.069753 
L 403.895651 264.127141 
L 404.895651 264.177306 
L 405.895651 264.254468 
L 406.895651 264.312658 
L 407.895651 264.373296 
L 408.895651 264.410498 
L 409.895651 264.475589 
L 410.895651 264.580719 
L 411.895651 264.641021 
L 412.895651 264.737343 
L 413.895651 264.769346 
L 414.895651 264.820363 
L 415.895651 264.937155 
L 416.895651 264.972602 
L 417.895651 265.028483 
L 418.895651 265.058858 
L 419.895651 265.147244 
L 420.895651 265.192008 
L 421.895651 265.272896 
L 422.895651 265.333042 
L 423.895651 265.396128 
L 424.895651 265.419077 
L 425.895651 265.435246 
L 426.895651 265.464175 
L 427.895651 265.494527 
L 428.895651 265.507102 
L 429.895651 265.53198 
L 431.641278 265.544065 
" clip-path="url(#p2e10d66d6b)" style="fill: none; stroke: #ffffff; stroke-width: 3; stroke-linecap: round"/>
          <path d="M 137.895651 264.54784 
L 138.895651 264.579277 
L 139.895651 264.616217 
L 140.895651 264.713964 
L 141.895651 264.746485 
L 142.895651 264.82011 
L 143.895651 264.858675 
L 144.895651 264.894089 
L 145.895651 264.951728 
L 146.895651 265.022115 
L 147.895651 265.074079 
L 148.895651 265.133169 
L 149.895651 265.22149 
L 150.895651 265.267634 
L 151.895651 265.310045 
L 152.895651 265.340538 
L 153.895651 265.366582 
L 154.895651 265.387783 
L 155.895651 265.442084 
L 156.895651 265.470021 
L 157.895651 265.499745 
L 158.895651 265.52514 
L 159.895651 265.53634 
L 160.895651 265.546464 
L 161.895651 265.54626 
L 162.895651 265.53675 
L 163.895651 265.525097 
L 164.895651 265.494067 
L 165.895651 265.482899 
L 166.895651 265.452782 
L 167.895651 265.393005 
L 168.895651 265.355813 
L 169.895651 265.316717 
L 170.895651 265.274278 
L 171.895651 265.241513 
L 172.895651 265.174086 
L 173.895651 265.13496 
L 174.895651 265.092286 
L 175.895651 265.021705 
L 176.895651 264.985314 
L 177.895651 264.926911 
L 178.895651 264.815958 
L 179.895651 264.7453 
L 180.895651 264.63236 
L 181.895651 264.586587 
L 182.895651 264.525304 
L 183.895651 264.476805 
L 184.895651 264.395982 
L 185.895651 264.277463 
L 186.895651 264.207253 
L 187.895651 264.12399 
L 188.895651 264.090848 
L 189.895651 264.039611 
L 190.895651 263.971213 
L 191.895651 263.904997 
L 192.895651 263.82808 
L 193.895651 263.800765 
L 194.895651 263.774287 
L 195.895651 263.751637 
L 196.895651 263.732105 
L 197.895651 263.705711 
L 198.895651 263.65594 
L 199.895651 263.620867 
L 200.895651 263.585002 
L 201.895651 263.569634 
L 202.895651 263.553865 
L 203.895651 263.550453 
L 204.895651 263.548035 
L 205.895651 263.548521 
L 206.895651 263.55045 
L 207.895651 263.563707 
L 208.895651 263.572098 
L 209.895651 263.593635 
L 210.895651 263.616667 
L 211.895651 263.633901 
L 212.895651 263.652363 
L 213.895651 263.672816 
L 214.895651 263.689415 
L 215.895651 263.752194 
L 216.895651 263.827459 
L 217.895651 263.860098 
L 218.895651 263.927662 
L 219.895651 263.981709 
L 220.895651 264.015413 
L 221.895651 264.105539 
L 222.895651 264.134074 
L 223.895651 264.16556 
L 224.895651 264.196571 
L 225.895651 264.251379 
L 226.895651 264.315967 
L 227.895651 264.354162 
L 228.895651 264.450096 
L 229.895651 264.499354 
L 230.895651 264.543424 
L 231.895651 264.583547 
L 232.895651 264.691914 
L 233.895651 264.733542 
L 234.895651 264.795684 
L 235.895651 264.865646 
L 236.895651 264.970151 
L 237.895651 265.007138 
L 238.895651 265.053015 
L 239.895651 265.12151 
L 240.895651 265.170256 
L 241.895651 265.247853 
L 242.895651 265.278394 
L 243.895651 265.347908 
L 244.895651 265.371881 
L 245.895651 265.400503 
L 246.895651 265.442296 
L 247.895651 265.463872 
L 248.895651 265.47782 
L 249.895651 265.504543 
L 250.895651 265.513852 
L 251.895651 265.526299 
L 252.895651 265.537354 
L 253.895651 265.543018 
L 254.895651 265.547782 
L 255.895651 265.542235 
L 256.895651 265.528947 
L 257.895651 265.521429 
L 258.895651 265.496644 
L 259.895651 265.473076 
L 260.895651 265.436895 
L 261.895651 265.410933 
L 262.895651 265.388612 
L 263.895651 265.319851 
L 264.895651 265.245316 
L 265.895651 265.151337 
L 266.895651 265.100285 
L 267.895651 265.046351 
L 268.895651 265.0111 
L 269.895651 264.905012 
L 270.895651 264.852748 
L 271.895651 264.815841 
L 272.895651 264.784811 
L 273.895651 264.723655 
L 274.895651 264.656235 
L 275.895651 264.607329 
L 276.895651 264.542137 
L 277.895651 264.503949 
L 278.895651 264.461954 
L 279.895651 264.419936 
L 280.895651 264.36042 
L 281.895651 264.24726 
L 282.895651 264.195009 
L 283.895651 264.155591 
L 284.895651 264.10849 
L 285.895651 264.051711 
L 286.895651 264.019047 
L 287.895651 263.98287 
L 288.895651 263.950779 
L 289.895651 263.916499 
L 290.895651 263.858121 
L 291.895651 263.812936 
L 292.895651 263.783312 
L 293.895651 263.732927 
L 294.895651 263.707729 
L 295.895651 263.686678 
L 296.895651 263.65171 
L 297.895651 263.62742 
L 298.895651 263.613353 
L 299.895651 263.594411 
L 300.895651 263.57875 
L 301.895651 263.566198 
L 302.895651 263.560362 
L 303.895651 263.55348 
L 304.895651 263.548306 
L 305.895651 263.550089 
L 306.895651 263.552815 
L 307.895651 263.563968 
L 308.895651 263.592203 
L 309.895651 263.635991 
L 310.895651 263.65668 
L 311.895651 263.697654 
L 312.895651 263.737728 
L 313.895651 263.756838 
L 314.895651 263.779347 
L 315.895651 263.845999 
L 316.895651 263.895708 
L 317.895651 263.969415 
L 318.895651 264.000728 
L 319.895651 264.07735 
L 320.895651 264.115648 
L 321.895651 264.189765 
L 322.895651 264.293823 
L 323.895651 264.363654 
L 324.895651 264.468888 
L 325.895651 264.523903 
L 326.895651 264.647378 
L 327.895651 264.717937 
L 328.895651 264.833777 
L 329.895651 264.883957 
L 330.895651 264.919561 
L 331.895651 265.010968 
L 332.895651 265.064476 
L 333.895651 265.152384 
L 334.895651 265.221569 
L 335.895651 265.268333 
L 336.895651 265.340377 
L 337.895651 265.390519 
L 338.895651 265.407909 
L 339.895651 265.434912 
L 340.895651 265.45434 
L 341.895651 265.473678 
L 342.895651 265.511926 
L 343.895651 265.528359 
L 344.895651 265.536728 
L 345.895651 265.541047 
L 346.895651 265.547602 
L 347.895651 265.545056 
L 348.895651 265.539598 
L 349.895651 265.523169 
L 350.895651 265.491234 
L 351.895651 265.453254 
L 352.895651 265.41845 
L 353.895651 265.355378 
L 354.895651 265.333952 
L 355.895651 265.283334 
L 356.895651 265.258376 
L 357.895651 265.202743 
L 358.895651 265.171514 
L 359.895651 265.121369 
L 360.895651 265.088876 
L 361.895651 265.008464 
L 362.895651 264.939538 
L 363.895651 264.823841 
L 364.895651 264.748362 
L 365.895651 264.632837 
L 366.895651 264.553353 
L 367.895651 264.444912 
L 368.895651 264.405544 
L 369.895651 264.302677 
L 370.895651 264.202879 
L 371.895651 264.157381 
L 372.895651 264.123059 
L 373.895651 264.071103 
L 374.895651 264.031456 
L 375.895651 263.995942 
L 376.895651 263.928297 
L 377.895651 263.889216 
L 378.895651 263.838734 
L 379.895651 263.789428 
L 380.895651 263.738359 
L 381.895651 263.694119 
L 382.895651 263.672099 
L 383.895651 263.656543 
L 384.895651 263.614096 
L 385.895651 263.599228 
L 386.895651 263.576501 
L 387.895651 263.556184 
L 388.895651 263.550387 
L 389.895651 263.547905 
L 390.895651 263.550962 
L 391.895651 263.562558 
L 392.895651 263.579478 
L 393.895651 263.611139 
L 394.895651 263.625223 
L 395.895651 263.677894 
L 396.895651 263.726983 
L 397.895651 263.781684 
L 398.895651 263.826032 
L 399.895651 263.896024 
L 400.895651 263.946407 
L 401.895651 264.000314 
L 402.895651 264.069753 
L 403.895651 264.127141 
L 404.895651 264.177306 
L 405.895651 264.254468 
L 406.895651 264.312658 
L 407.895651 264.373296 
L 408.895651 264.410498 
L 409.895651 264.475589 
L 410.895651 264.580719 
L 411.895651 264.641021 
L 412.895651 264.737343 
L 413.895651 264.769346 
L 414.895651 264.820363 
L 415.895651 264.937155 
L 416.895651 264.972602 
L 417.895651 265.028483 
L 418.895651 265.058858 
L 419.895651 265.147244 
L 420.895651 265.192008 
L 421.895651 265.272896 
L 422.895651 265.333042 
L 423.895651 265.396128 
L 424.895651 265.419077 
L 425.895651 265.435246 
L 426.895651 265.464175 
L 427.895651 265.494527 
L 428.895651 265.507102 
L 429.895651 265.53198 
L 431.641278 265.544065 
" clip-path="url(#p2e10d66d6b)" style="fill: none; stroke: #ff7f0e; stroke-linecap: round"/>
          <path d="M 427.641278 262.54784 
L 428.521646 263.023171 
L 429.399553 263.503425 
L 430.250267 264.038066 
L 431.552441 264.725514 
L 430.625088 264.751528 
L 429.713413 265.164248 
L 428.803149 265.579787 
L 427.460653 266.186591 
L 428.115552 265.54784 
L 428.167516 264.54784 
L 428.226606 262.54784 
z
" clip-path="url(#p2e10d66d6b)" style="fill: #ffffff; stroke: #ffffff; stroke-width: 3; stroke-linecap: round"/>
          <path d="M 427.641278 262.54784 
L 428.521646 263.023171 
L 429.399553 263.503425 
L 430.250267 264.038066 
L 431.552441 264.725514 
L 430.625088 264.751528 
L 429.713413 265.164248 
L 428.803149 265.579787 
L 427.460653 266.186591 
L 428.115552 265.54784 
L 428.167516 264.54784 
L 428.226606 262.54784 
z
" clip-path="url(#p2e10d66d6b)" style="fill: #ffffff; stroke: #ff7f0e; stroke-linecap: round"/>
          <path d="M 448.37296 302.695143 
" clip-path="url(#p2e10d66d6b)" style="fill: none; stroke-dasharray: 3.7,1.6; stroke-dashoffset: 0; stroke: #2ca02c"/>
          <path d="M 447.37296 302.695143 
L 449.37296 303.695143 
L 449.37296 301.695143 
z
" clip-path="url(#p2e10d66d6b)" style="fill: #2ca02c; stroke: #2ca02c; stroke-linejoin: miter"/>
          <g id="patch_10">
           <path d="M 63.290625 321.621875 
L 63.290625 10.8 
" style="fill: none; stroke: #000000; stroke-width: 0.8; stroke-linejoin: miter; stroke-linecap: square"/>
          </g>
          <g id="text_14">
           <g id="patch_11">
            <path d="M 300.682465 104.887839 
L 321.987152 104.887839 
Q 323.987152 104.887839 323.987152 102.887839 
L 323.987152 93.209714 
Q 323.987152 91.209714 321.987152 91.209714 
L 300.682465 91.209714 
Q 298.682465 91.209714 298.682465 93.209714 
L 298.682465 102.887839 
Q 298.682465 104.887839 300.682465 104.887839 
z
" style="fill: #ffffff; opacity: 0.6"/>
           </g>
           <!-- ANC -->
           <g transform="translate(300.682465 100.808151) scale(0.1 -0.1)">
            <defs>
             <path id="DejaVuSans-4e" d="M 628 4666 
L 1478 4666 
L 3547 763 
L 3547 4666 
L 4159 4666 
L 4159 0 
L 3309 0 
L 1241 3903 
L 1241 0 
L 628 0 
L 628 4666 
z
" transform="scale(0.015625)"/>
            </defs>
            <use xlink:href="#DejaVuSans-41"/>
            <use xlink:href="#DejaVuSans-4e" x="68.408203"/>
            <use xlink:href="#DejaVuSans-43" x="143.212891"/>
           </g>
          </g>
         </g>
        </g>
        <defs>
         <clipPath id="p2e10d66d6b">
          <rect x="63.290625" y="10.8" width="540.309375" height="310.821875"/>
         </clipPath>
        </defs>
       </g>
      </g>
     </g>
    </g>
   </g>
  </g>
 </g>
</svg>
