<?xml version="1.0" encoding="utf-8" standalone="no"?>
<!DOCTYPE svg PUBLIC "-//W3C//DTD SVG 1.1//EN"
  "http://www.w3.org/Graphics/SVG/1.1/DTD/svg11.dtd">
<svg xmlns:xlink="http://www.w3.org/1999/xlink" width="614.4pt" height="345.6pt" viewBox="0 0 614.4 345.6" xmlns="http://www.w3.org/2000/svg" version="1.1">
 <metadata>
  <rdf:RDF xmlns:dc="http://purl.org/dc/elements/1.1/" xmlns:cc="http://creativecommons.org/ns#" xmlns:rdf="http://www.w3.org/1999/02/22-rdf-syntax-ns#">
   <cc:Work>
    <dc:type rdf:resource="http://purl.org/dc/dcmitype/StillImage"/>
    <dc:date>2024-04-17T19:40:10.679494</dc:date>
    <dc:format>image/svg+xml</dc:format>
    <dc:creator>
     <cc:Agent>
      <dc:title>Matplotlib v3.7.1, https://matplotlib.org/</dc:title>
     </cc:Agent>
    </dc:creator>
   </cc:Work>
  </rdf:RDF>
 </metadata>
 <defs>
  <style type="text/css">*{stroke-linejoin: round; stroke-linecap: butt}</style>
 </defs>
 <g id="figure_1">
  <g id="patch_1">
   <path d="M 0 345.6 
L 614.4 345.6 
L 614.4 0 
L 0 0 
z
" style="fill: #ffffff"/>
  </g>
  <g id="axes_1">
   <g id="patch_2">
    <path d="M 63.290625 321.621875 
L 603.6 321.621875 
L 603.6 10.8 
L 63.290625 10.8 
z
" style="fill: #ffffff"/>
   </g>
   <path d="M 567.798785 299.600547 
L 566.798785 299.56911 
L 565.798785 299.53217 
L 564.798785 299.434423 
L 563.798785 299.401902 
L 562.798785 299.328277 
L 561.798785 299.289711 
L 560.798785 299.254298 
L 559.798785 299.196658 
L 558.798785 299.126272 
L 557.798785 299.074308 
L 556.798785 299.015218 
L 555.798785 298.926897 
L 554.798785 298.880753 
L 553.798785 298.838342 
L 552.798785 298.807849 
L 551.798785 298.781804 
L 550.798785 298.760604 
L 549.798785 298.706303 
L 548.798785 298.678366 
L 547.798785 298.648642 
L 546.798785 298.623247 
L 545.798785 298.612046 
L 544.798785 298.601922 
L 543.798785 298.602127 
L 542.798785 298.611637 
L 541.798785 298.62329 
L 540.798785 298.654319 
L 539.798785 298.665487 
L 538.798785 298.695605 
L 537.798785 298.755382 
L 536.798785 298.792573 
L 535.798785 298.831669 
L 534.798785 298.874109 
L 533.798785 298.906874 
L 532.798785 298.974301 
L 531.798785 299.013427 
L 530.798785 299.056101 
L 529.798785 299.126682 
L 528.798785 299.163073 
L 527.798785 299.221476 
L 526.798785 299.332428 
L 525.798785 299.403087 
L 524.798785 299.516027 
L 523.798785 299.561799 
L 522.798785 299.623083 
L 521.798785 299.671582 
L 520.798785 299.752405 
L 519.798785 299.870924 
L 518.798785 299.941134 
L 517.798785 300.024397 
L 516.798785 300.057538 
L 515.798785 300.108776 
L 514.798785 300.177174 
L 513.798785 300.24339 
L 512.798785 300.320307 
L 511.798785 300.347622 
L 510.798785 300.3741 
L 509.798785 300.39675 
L 508.798785 300.416282 
L 507.798785 300.442675 
L 506.798785 300.492446 
L 505.798785 300.527519 
L 504.798785 300.563385 
L 503.798785 300.578752 
L 502.798785 300.594522 
L 501.798785 300.597934 
L 500.798785 300.600352 
L 499.798785 300.599866 
L 498.798785 300.597936 
L 497.798785 300.584679 
L 496.798785 300.576289 
L 495.798785 300.554752 
L 494.798785 300.53172 
L 493.798785 300.514486 
L 492.798785 300.496024 
L 491.798785 300.475571 
L 490.798785 300.458971 
L 489.798785 300.396193 
L 488.798785 300.320928 
L 487.798785 300.288288 
L 486.798785 300.220725 
L 485.798785 300.166678 
L 484.798785 300.132973 
L 483.798785 300.042848 
L 482.798785 300.014313 
L 481.798785 299.982826 
L 480.798785 299.951816 
L 479.798785 299.897008 
L 478.798785 299.83242 
L 477.798785 299.794225 
L 476.798785 299.698291 
L 475.798785 299.649033 
L 474.798785 299.604963 
L 473.798785 299.56484 
L 472.798785 299.456473 
L 471.798785 299.414844 
L 470.798785 299.352703 
L 469.798785 299.282741 
L 468.798785 299.178236 
L 467.798785 299.141249 
L 466.798785 299.095371 
L 465.798785 299.026877 
L 464.798785 298.978131 
L 463.798785 298.900533 
L 462.798785 298.869993 
L 461.798785 298.800478 
L 460.798785 298.776505 
L 459.798785 298.747884 
L 458.798785 298.706091 
L 457.798785 298.684515 
L 456.798785 298.670567 
L 455.798785 298.643844 
L 454.798785 298.634535 
L 453.798785 298.622088 
L 452.798785 298.611033 
L 451.798785 298.605368 
L 450.798785 298.600605 
L 449.798785 298.606152 
L 448.798785 298.61944 
L 447.798785 298.626958 
L 446.540794 298.651743 
" clip-path="url(#p1fd844376b)" style="fill: none; stroke-dasharray: 3.7,1.6; stroke-dashoffset: 0; stroke: #2ca02c"/>
   <g id="patch_3">
    <path d="M 298.083786 10.8 
L 298.083786 149.421439 
M 311.029972 10.8 
L 311.029972 149.421439 
" clip-path="url(#p1fd844376b)" style="fill: none; stroke: #ffffff; stroke-width: 3; stroke-linejoin: miter"/>
    <path d="M 298.083786 10.8 
L 298.083786 149.421439 
M 311.029972 10.8 
L 311.029972 149.421439 
" clip-path="url(#p1fd844376b)" style="fill: none; stroke: #1f77b4; stroke-linejoin: miter"/>
    <g id="PolyCollection_1">
     <path d="M 311.029972 10.8 
L 298.083786 10.8 
L 298.083786 149.421439 
L 311.029972 149.421439 
L 311.029972 149.421439 
L 311.029972 10.8 
z
" clip-path="url(#p1fd844376b)" style="fill: #1f77b4; fill-opacity: 0.5"/>
    </g>
    <g id="patch_4">
     <path d="M 99.621544 149.421439 
L 99.529015 312.621705 
L 98.908066 314.121733 
L 98.13522 315.434258 
L 97.149157 316.653031 
L 95.927591 317.778052 
L 94.459743 318.809322 
L 92.751227 319.74684 
L 90.588311 320.684357 
L 87.850142 321.621875 
M 102.145762 149.421439 
L 102.238291 312.621705 
L 102.85924 314.121733 
L 103.632086 315.434258 
L 104.618149 316.653031 
L 105.839715 317.778052 
L 107.307563 318.809322 
L 109.016079 319.74684 
L 111.178995 320.684357 
L 113.917164 321.621875 
L 113.917164 321.621875 
" clip-path="url(#p1fd844376b)" style="fill: none; stroke: #ffffff; stroke-width: 3; stroke-linejoin: miter"/>
     <path d="M 99.621544 149.421439 
L 99.529015 312.621705 
L 98.908066 314.121733 
L 98.13522 315.434258 
L 97.149157 316.653031 
L 95.927591 317.778052 
L 94.459743 318.809322 
L 92.751227 319.74684 
L 90.588311 320.684357 
L 87.850142 321.621875 
M 102.145762 149.421439 
L 102.238291 312.621705 
L 102.85924 314.121733 
L 103.632086 315.434258 
L 104.618149 316.653031 
L 105.839715 317.778052 
L 107.307563 318.809322 
L 109.016079 319.74684 
L 111.178995 320.684357 
L 113.917164 321.621875 
L 113.917164 321.621875 
" clip-path="url(#p1fd844376b)" style="fill: none; stroke: #ff7f0e; stroke-linejoin: miter"/>
     <g id="PolyCollection_2">
      <path d="M 102.145762 149.421439 
L 99.621544 149.421439 
L 99.621544 312.34045 
L 99.621544 312.34045 
L 99.591425 312.434201 
L 99.560588 312.527953 
L 99.529015 312.621705 
L 99.496689 312.715457 
L 99.463591 312.809209 
L 99.429703 312.90296 
L 99.395007 312.996712 
L 99.359483 313.090464 
L 99.323111 313.184216 
L 99.28587 313.277967 
L 99.247742 313.371719 
L 99.208703 313.465471 
L 99.168733 313.559223 
L 99.127809 313.652975 
L 99.085908 313.746726 
L 99.043008 313.840478 
L 98.999084 313.93423 
L 98.954111 314.027982 
L 98.908066 314.121733 
L 98.860921 314.215485 
L 98.812652 314.309237 
L 98.76323 314.402989 
L 98.71263 314.49674 
L 98.660821 314.590492 
L 98.607777 314.684244 
L 98.553466 314.777996 
L 98.49786 314.871748 
L 98.440927 314.965499 
L 98.382635 315.059251 
L 98.322952 315.153003 
L 98.261844 315.246755 
L 98.199279 315.340506 
L 98.13522 315.434258 
L 98.069633 315.52801 
L 98.00248 315.621762 
L 97.933726 315.715513 
L 97.86333 315.809265 
L 97.791254 315.903017 
L 97.717459 315.996769 
L 97.641902 316.090521 
L 97.564543 316.184272 
L 97.485337 316.278024 
L 97.404242 316.371776 
L 97.321211 316.465528 
L 97.236198 316.559279 
L 97.149157 316.653031 
L 97.060039 316.746783 
L 96.968794 316.840535 
L 96.875372 316.934286 
L 96.77972 317.028038 
L 96.681786 317.12179 
L 96.581515 317.215542 
L 96.478851 317.309294 
L 96.373737 317.403045 
L 96.266114 317.496797 
L 96.155923 317.590549 
L 96.043103 317.684301 
L 95.927591 317.778052 
L 95.809322 317.871804 
L 95.68823 317.965556 
L 95.564249 318.059308 
L 95.43731 318.153059 
L 95.307341 318.246811 
L 95.17427 318.340563 
L 95.038024 318.434315 
L 94.898527 318.528067 
L 94.755701 318.621818 
L 94.609467 318.71557 
L 94.459743 318.809322 
L 94.306446 318.903074 
L 94.14949 318.996825 
L 93.98879 319.090577 
L 93.824254 319.184329 
L 93.655792 319.278081 
L 93.48331 319.371833 
L 93.306712 319.465584 
L 93.125899 319.559336 
L 92.940772 319.653088 
L 92.751227 319.74684 
L 92.557159 319.840591 
L 92.358459 319.934343 
L 92.155018 320.028095 
L 91.946722 320.121847 
L 91.733456 320.215598 
L 91.5151 320.30935 
L 91.291534 320.403102 
L 91.062632 320.496854 
L 90.828268 320.590606 
L 90.588311 320.684357 
L 90.342628 320.778109 
L 90.091082 320.871861 
L 89.833534 320.965613 
L 89.569839 321.059364 
L 89.299852 321.153116 
L 89.023422 321.246868 
L 88.740395 321.34062 
L 88.450614 321.434371 
L 88.153918 321.528123 
L 87.850142 321.621875 
L 113.917164 321.621875 
L 113.917164 321.621875 
L 113.613388 321.528123 
L 113.316692 321.434371 
L 113.026911 321.34062 
L 112.743884 321.246868 
L 112.467454 321.153116 
L 112.197467 321.059364 
L 111.933772 320.965613 
L 111.676223 320.871861 
L 111.424678 320.778109 
L 111.178995 320.684357 
L 110.939038 320.590606 
L 110.704674 320.496854 
L 110.475772 320.403102 
L 110.252206 320.30935 
L 110.03385 320.215598 
L 109.820583 320.121847 
L 109.612287 320.028095 
L 109.408846 319.934343 
L 109.210147 319.840591 
L 109.016079 319.74684 
L 108.826534 319.653088 
L 108.641406 319.559336 
L 108.460594 319.465584 
L 108.283996 319.371833 
L 108.111514 319.278081 
L 107.943052 319.184329 
L 107.778516 319.090577 
L 107.617815 318.996825 
L 107.46086 318.903074 
L 107.307563 318.809322 
L 107.157839 318.71557 
L 107.011605 318.621818 
L 106.868778 318.528067 
L 106.729281 318.434315 
L 106.593035 318.340563 
L 106.459965 318.246811 
L 106.329996 318.153059 
L 106.203056 318.059308 
L 106.079075 317.965556 
L 105.957984 317.871804 
L 105.839715 317.778052 
L 105.724203 317.684301 
L 105.611382 317.590549 
L 105.501192 317.496797 
L 105.393569 317.403045 
L 105.288455 317.309294 
L 105.185791 317.215542 
L 105.08552 317.12179 
L 104.987586 317.028038 
L 104.891934 316.934286 
L 104.798512 316.840535 
L 104.707267 316.746783 
L 104.618149 316.653031 
L 104.531107 316.559279 
L 104.446095 316.465528 
L 104.363064 316.371776 
L 104.281968 316.278024 
L 104.202763 316.184272 
L 104.125403 316.090521 
L 104.049847 315.996769 
L 103.976051 315.903017 
L 103.903976 315.809265 
L 103.83358 315.715513 
L 103.764825 315.621762 
L 103.697673 315.52801 
L 103.632086 315.434258 
L 103.568027 315.340506 
L 103.505461 315.246755 
L 103.444354 315.153003 
L 103.384671 315.059251 
L 103.326379 314.965499 
L 103.269446 314.871748 
L 103.213839 314.777996 
L 103.159529 314.684244 
L 103.106484 314.590492 
L 103.054676 314.49674 
L 103.004075 314.402989 
L 102.954654 314.309237 
L 102.906385 314.215485 
L 102.85924 314.121733 
L 102.813194 314.027982 
L 102.768222 313.93423 
L 102.724298 313.840478 
L 102.681397 313.746726 
L 102.639497 313.652975 
L 102.598573 313.559223 
L 102.558602 313.465471 
L 102.519564 313.371719 
L 102.481435 313.277967 
L 102.444195 313.184216 
L 102.407823 313.090464 
L 102.372299 312.996712 
L 102.337602 312.90296 
L 102.303715 312.809209 
L 102.270617 312.715457 
L 102.238291 312.621705 
L 102.206718 312.527953 
L 102.175881 312.434201 
L 102.145762 312.34045 
L 102.145762 312.34045 
L 102.145762 149.421439 
z
" clip-path="url(#p1fd844376b)" style="fill: #ff7f0e; fill-opacity: 0.5"/>
     </g>
     <g id="patch_5">
      <path d="M 573.201878 72.964375 
L 573.201878 321.621875 
M 579.040483 72.964375 
L 579.040483 321.621875 
" clip-path="url(#p1fd844376b)" style="fill: none; stroke: #ffffff; stroke-width: 3; stroke-linejoin: miter"/>
      <path d="M 573.201878 72.964375 
L 573.201878 321.621875 
M 579.040483 72.964375 
L 579.040483 321.621875 
" clip-path="url(#p1fd844376b)" style="fill: none; stroke: #2ca02c; stroke-linejoin: miter"/>
      <g id="PolyCollection_3">
       <path d="M 579.040483 72.964375 
L 573.201878 72.964375 
L 573.201878 321.621875 
L 579.040483 321.621875 
L 579.040483 321.621875 
L 579.040483 72.964375 
z
" clip-path="url(#p1fd844376b)" style="fill: #2ca02c; fill-opacity: 0.5"/>
      </g>
      <g id="patch_6">
       <path d="M 439.540359 175.095344 
L 439.540359 244.070803 
L 440.122519 244.070803 
L 440.122519 245.147166 
L 439.540359 245.147166 
L 439.462417 304.33305 
L 438.942636 306.115403 
L 438.312431 307.541286 
L 437.531607 308.788933 
L 436.62686 309.858345 
L 435.43054 310.927757 
L 433.848683 311.997169 
L 432.147445 312.888345 
L 430.000283 313.779522 
L 427.290309 314.670698 
L 423.870003 315.561875 
L 419.553173 316.453051 
L 414.104823 317.344228 
L 407.228361 318.235404 
L 398.549455 319.126581 
L 387.595649 320.017757 
L 373.770653 320.908934 
L 360.143904 321.621875 
M 441.137701 175.095344 
L 441.137701 244.070803 
L 440.555541 244.070803 
L 440.555541 245.147166 
L 441.137701 245.147166 
L 441.215643 304.33305 
L 441.735423 306.115403 
L 442.365629 307.541286 
L 443.146453 308.788933 
L 444.0512 309.858345 
L 445.24752 310.927757 
L 446.829377 311.997169 
L 448.530614 312.888345 
L 450.677777 313.779522 
L 453.38775 314.670698 
L 456.808056 315.561875 
L 461.124887 316.453051 
L 466.573237 317.344228 
L 473.449698 318.235404 
L 482.128605 319.126581 
L 493.08241 320.017757 
L 506.907407 320.908934 
L 520.534155 321.621875 
L 520.534155 321.621875 
" clip-path="url(#p1fd844376b)" style="fill: none; stroke: #ffffff; stroke-width: 3; stroke-linejoin: miter"/>
       <path d="M 439.540359 175.095344 
L 439.540359 244.070803 
L 440.122519 244.070803 
L 440.122519 245.147166 
L 439.540359 245.147166 
L 439.462417 304.33305 
L 438.942636 306.115403 
L 438.312431 307.541286 
L 437.531607 308.788933 
L 436.62686 309.858345 
L 435.43054 310.927757 
L 433.848683 311.997169 
L 432.147445 312.888345 
L 430.000283 313.779522 
L 427.290309 314.670698 
L 423.870003 315.561875 
L 419.553173 316.453051 
L 414.104823 317.344228 
L 407.228361 318.235404 
L 398.549455 319.126581 
L 387.595649 320.017757 
L 373.770653 320.908934 
L 360.143904 321.621875 
M 441.137701 175.095344 
L 441.137701 244.070803 
L 440.555541 244.070803 
L 440.555541 245.147166 
L 441.137701 245.147166 
L 441.215643 304.33305 
L 441.735423 306.115403 
L 442.365629 307.541286 
L 443.146453 308.788933 
L 444.0512 309.858345 
L 445.24752 310.927757 
L 446.829377 311.997169 
L 448.530614 312.888345 
L 450.677777 313.779522 
L 453.38775 314.670698 
L 456.808056 315.561875 
L 461.124887 316.453051 
L 466.573237 317.344228 
L 473.449698 318.235404 
L 482.128605 319.126581 
L 493.08241 320.017757 
L 506.907407 320.908934 
L 520.534155 321.621875 
L 520.534155 321.621875 
" clip-path="url(#p1fd844376b)" style="fill: none; stroke: #d62728; stroke-linejoin: miter"/>
       <g id="PolyCollection_4">
        <path d="M 441.137701 175.095344 
L 439.540359 175.095344 
L 439.540359 244.070803 
L 440.122519 244.070803 
L 440.122519 245.147166 
L 439.540359 245.147166 
L 439.540359 303.97658 
L 439.540359 303.97658 
L 439.502295 304.154815 
L 439.462417 304.33305 
L 439.420638 304.511286 
L 439.376869 304.689521 
L 439.331013 304.867756 
L 439.282972 305.045992 
L 439.232641 305.224227 
L 439.179911 305.402462 
L 439.124669 305.580698 
L 439.066793 305.758933 
L 439.00616 305.937168 
L 438.942636 306.115403 
L 438.876085 306.293639 
L 438.806363 306.471874 
L 438.733317 306.650109 
L 438.65679 306.828345 
L 438.576616 307.00658 
L 438.492621 307.184815 
L 438.404623 307.363051 
L 438.312431 307.541286 
L 438.215845 307.719521 
L 438.114655 307.897757 
L 438.008644 308.075992 
L 437.89758 308.254227 
L 437.781222 308.432462 
L 437.659319 308.610698 
L 437.531607 308.788933 
L 437.397807 308.967168 
L 437.257631 309.145404 
L 437.110774 309.323639 
L 436.956919 309.501874 
L 436.79573 309.68011 
L 436.62686 309.858345 
L 436.449941 310.03658 
L 436.26459 310.214815 
L 436.070406 310.393051 
L 435.866967 310.571286 
L 435.653832 310.749521 
L 435.43054 310.927757 
L 435.196606 311.105992 
L 434.951522 311.284227 
L 434.694758 311.462463 
L 434.425757 311.640698 
L 434.143936 311.818933 
L 433.848683 311.997169 
L 433.539359 312.175404 
L 433.215292 312.353639 
L 432.875781 312.531874 
L 432.520089 312.71011 
L 432.147445 312.888345 
L 431.757042 313.06658 
L 431.348032 313.244816 
L 430.919528 313.423051 
L 430.470603 313.601286 
L 430.000283 313.779522 
L 429.507547 313.957757 
L 428.991328 314.135992 
L 428.450506 314.314227 
L 427.88391 314.492463 
L 427.290309 314.670698 
L 426.668419 314.848933 
L 426.016889 315.027169 
L 425.334309 315.205404 
L 424.619197 315.383639 
L 423.870003 315.561875 
L 423.085104 315.74011 
L 422.262797 315.918345 
L 421.401299 316.096581 
L 420.498743 316.274816 
L 419.553173 316.453051 
L 418.562537 316.631286 
L 417.524688 316.809522 
L 416.437377 316.987757 
L 415.298245 317.165992 
L 414.104823 317.344228 
L 412.854523 317.522463 
L 411.544636 317.700698 
L 410.17232 317.878934 
L 408.734601 318.057169 
L 407.228361 318.235404 
L 405.650336 318.41364 
L 403.997103 318.591875 
L 402.265078 318.77011 
L 400.450507 318.948345 
L 398.549455 319.126581 
L 396.5578 319.304816 
L 394.471225 319.483051 
L 392.285205 319.661287 
L 389.995002 319.839522 
L 387.595649 320.017757 
L 385.081946 320.195993 
L 382.448441 320.374228 
L 379.689427 320.552463 
L 376.798919 320.730698 
L 373.770653 320.908934 
L 370.598062 321.087169 
L 367.274269 321.265404 
L 363.792066 321.44364 
L 360.143904 321.621875 
L 520.534155 321.621875 
L 520.534155 321.621875 
L 516.885994 321.44364 
L 513.403791 321.265404 
L 510.079997 321.087169 
L 506.907407 320.908934 
L 503.87914 320.730698 
L 500.988633 320.552463 
L 498.229618 320.374228 
L 495.596114 320.195993 
L 493.08241 320.017757 
L 490.683058 319.839522 
L 488.392854 319.661287 
L 486.206835 319.483051 
L 484.12026 319.304816 
L 482.128605 319.126581 
L 480.227553 318.948345 
L 478.412981 318.77011 
L 476.680957 318.591875 
L 475.027724 318.41364 
L 473.449698 318.235404 
L 471.943459 318.057169 
L 470.50574 317.878934 
L 469.133424 317.700698 
L 467.823536 317.522463 
L 466.573237 317.344228 
L 465.379815 317.165992 
L 464.240683 316.987757 
L 463.153371 316.809522 
L 462.115523 316.631286 
L 461.124887 316.453051 
L 460.179316 316.274816 
L 459.27676 316.096581 
L 458.415263 315.918345 
L 457.592956 315.74011 
L 456.808056 315.561875 
L 456.058863 315.383639 
L 455.343751 315.205404 
L 454.66117 315.027169 
L 454.009641 314.848933 
L 453.38775 314.670698 
L 452.79415 314.492463 
L 452.227553 314.314227 
L 451.686732 314.135992 
L 451.170513 313.957757 
L 450.677777 313.779522 
L 450.207456 313.601286 
L 449.758531 313.423051 
L 449.330028 313.244816 
L 448.921018 313.06658 
L 448.530614 312.888345 
L 448.15797 312.71011 
L 447.802278 312.531874 
L 447.462767 312.353639 
L 447.138701 312.175404 
L 446.829377 311.997169 
L 446.534124 311.818933 
L 446.252302 311.640698 
L 445.983301 311.462463 
L 445.726537 311.284227 
L 445.481454 311.105992 
L 445.24752 310.927757 
L 445.024227 310.749521 
L 444.811093 310.571286 
L 444.607654 310.393051 
L 444.41347 310.214815 
L 444.228119 310.03658 
L 444.0512 309.858345 
L 443.88233 309.68011 
L 443.721141 309.501874 
L 443.567285 309.323639 
L 443.420428 309.145404 
L 443.280252 308.967168 
L 443.146453 308.788933 
L 443.01874 308.610698 
L 442.896837 308.432462 
L 442.78048 308.254227 
L 442.669416 308.075992 
L 442.563404 307.897757 
L 442.462215 307.719521 
L 442.365629 307.541286 
L 442.273437 307.363051 
L 442.185439 307.184815 
L 442.101444 307.00658 
L 442.02127 306.828345 
L 441.944743 306.650109 
L 441.871697 306.471874 
L 441.801974 306.293639 
L 441.735423 306.115403 
L 441.6719 305.937168 
L 441.611266 305.758933 
L 441.553391 305.580698 
L 441.498148 305.402462 
L 441.445419 305.224227 
L 441.395088 305.045992 
L 441.347047 304.867756 
L 441.301191 304.689521 
L 441.257421 304.511286 
L 441.215643 304.33305 
L 441.175765 304.154815 
L 441.137701 303.97658 
L 441.137701 303.97658 
L 441.137701 245.147166 
L 440.555541 245.147166 
L 440.555541 244.070803 
L 441.137701 244.070803 
L 441.137701 175.095344 
z
" clip-path="url(#p1fd844376b)" style="fill: #d62728; fill-opacity: 0.5"/>
       </g>
       <g id="matplotlib.axis_1">
        <g id="xtick_1">
         <g id="line2d_1"/>
         <g id="text_1">
          <!-- OUT -->
          <g transform="translate(90.234434 332.720312) scale(0.1 -0.1)">
           <defs>
            <path id="DejaVuSans-4f" d="M 2522 4238 
Q 1834 4238 1429 3725 
Q 1025 3213 1025 2328 
Q 1025 1447 1429 934 
Q 1834 422 2522 422 
Q 3209 422 3611 934 
Q 4013 1447 4013 2328 
Q 4013 3213 3611 3725 
Q 3209 4238 2522 4238 
z
M 2522 4750 
Q 3503 4750 4090 4092 
Q 4678 3434 4678 2328 
Q 4678 1225 4090 567 
Q 3503 -91 2522 -91 
Q 1538 -91 948 565 
Q 359 1222 359 2328 
Q 359 3434 948 4092 
Q 1538 4750 2522 4750 
z
" transform="scale(0.015625)"/>
            <path id="DejaVuSans-55" d="M 556 4666 
L 1191 4666 
L 1191 1831 
Q 1191 1081 1462 751 
Q 1734 422 2344 422 
Q 2950 422 3222 751 
Q 3494 1081 3494 1831 
L 3494 4666 
L 4128 4666 
L 4128 1753 
Q 4128 841 3676 375 
Q 3225 -91 2344 -91 
Q 1459 -91 1007 375 
Q 556 841 556 1753 
L 556 4666 
z
" transform="scale(0.015625)"/>
            <path id="DejaVuSans-54" d="M -19 4666 
L 3928 4666 
L 3928 4134 
L 2272 4134 
L 2272 0 
L 1638 0 
L 1638 4134 
L -19 4134 
L -19 4666 
z
" transform="scale(0.015625)"/>
           </defs>
           <use xlink:href="#DejaVuSans-4f"/>
           <use xlink:href="#DejaVuSans-55" x="78.710938"/>
           <use xlink:href="#DejaVuSans-54" x="151.904297"/>
          </g>
         </g>
        </g>
        <g id="xtick_2">
         <g id="line2d_2"/>
         <g id="text_2">
          <!-- SRC -->
          <g transform="translate(566.231337 332.720312) scale(0.1 -0.1)">
           <defs>
            <path id="DejaVuSans-53" d="M 3425 4513 
L 3425 3897 
Q 3066 4069 2747 4153 
Q 2428 4238 2131 4238 
Q 1616 4238 1336 4038 
Q 1056 3838 1056 3469 
Q 1056 3159 1242 3001 
Q 1428 2844 1947 2747 
L 2328 2669 
Q 3034 2534 3370 2195 
Q 3706 1856 3706 1288 
Q 3706 609 3251 259 
Q 2797 -91 1919 -91 
Q 1588 -91 1214 -16 
Q 841 59 441 206 
L 441 856 
Q 825 641 1194 531 
Q 1563 422 1919 422 
Q 2459 422 2753 634 
Q 3047 847 3047 1241 
Q 3047 1584 2836 1778 
Q 2625 1972 2144 2069 
L 1759 2144 
Q 1053 2284 737 2584 
Q 422 2884 422 3419 
Q 422 4038 858 4394 
Q 1294 4750 2059 4750 
Q 2388 4750 2728 4690 
Q 3069 4631 3425 4513 
z
" transform="scale(0.015625)"/>
            <path id="DejaVuSans-52" d="M 2841 2188 
Q 3044 2119 3236 1894 
Q 3428 1669 3622 1275 
L 4263 0 
L 3584 0 
L 2988 1197 
Q 2756 1666 2539 1819 
Q 2322 1972 1947 1972 
L 1259 1972 
L 1259 0 
L 628 0 
L 628 4666 
L 2053 4666 
Q 2853 4666 3247 4331 
Q 3641 3997 3641 3322 
Q 3641 2881 3436 2590 
Q 3231 2300 2841 2188 
z
M 1259 4147 
L 1259 2491 
L 2053 2491 
Q 2509 2491 2742 2702 
Q 2975 2913 2975 3322 
Q 2975 3731 2742 3939 
Q 2509 4147 2053 4147 
L 1259 4147 
z
" transform="scale(0.015625)"/>
            <path id="DejaVuSans-43" d="M 4122 4306 
L 4122 3641 
Q 3803 3938 3442 4084 
Q 3081 4231 2675 4231 
Q 1875 4231 1450 3742 
Q 1025 3253 1025 2328 
Q 1025 1406 1450 917 
Q 1875 428 2675 428 
Q 3081 428 3442 575 
Q 3803 722 4122 1019 
L 4122 359 
Q 3791 134 3420 21 
Q 3050 -91 2638 -91 
Q 1578 -91 968 557 
Q 359 1206 359 2328 
Q 359 3453 968 4101 
Q 1578 4750 2638 4750 
Q 3056 4750 3426 4639 
Q 3797 4528 4122 4306 
z
" transform="scale(0.015625)"/>
           </defs>
           <use xlink:href="#DejaVuSans-53"/>
           <use xlink:href="#DejaVuSans-52" x="63.476562"/>
           <use xlink:href="#DejaVuSans-43" x="127.958984"/>
          </g>
         </g>
        </g>
        <g id="xtick_3">
         <g id="line2d_3"/>
         <g id="text_3">
          <!-- TAR -->
          <g transform="translate(430.778092 332.720312) scale(0.1 -0.1)">
           <defs>
            <path id="DejaVuSans-41" d="M 2188 4044 
L 1331 1722 
L 3047 1722 
L 2188 4044 
z
M 1831 4666 
L 2547 4666 
L 4325 0 
L 3669 0 
L 3244 1197 
L 1141 1197 
L 716 0 
L 50 0 
L 1831 4666 
z
" transform="scale(0.015625)"/>
           </defs>
           <use xlink:href="#DejaVuSans-54"/>
           <use xlink:href="#DejaVuSans-41" x="53.333984"/>
           <use xlink:href="#DejaVuSans-52" x="121.742188"/>
          </g>
         </g>
        </g>
       </g>
       <g id="matplotlib.axis_2">
        <g id="ytick_1">
         <g id="line2d_4">
          <defs>
           <path id="m14a0f2af69" d="M 0 0 
L -3.5 0 
" style="stroke: #000000; stroke-width: 0.8"/>
          </defs>
          <g>
           <use xlink:href="#m14a0f2af69" x="63.290625" y="321.621875" style="stroke: #000000; stroke-width: 0.8"/>
          </g>
         </g>
         <g id="text_4">
          <!-- 0 -->
          <g transform="translate(49.928125 325.421094) scale(0.1 -0.1)">
           <defs>
            <path id="DejaVuSans-30" d="M 2034 4250 
Q 1547 4250 1301 3770 
Q 1056 3291 1056 2328 
Q 1056 1369 1301 889 
Q 1547 409 2034 409 
Q 2525 409 2770 889 
Q 3016 1369 3016 2328 
Q 3016 3291 2770 3770 
Q 2525 4250 2034 4250 
z
M 2034 4750 
Q 2819 4750 3233 4129 
Q 3647 3509 3647 2328 
Q 3647 1150 3233 529 
Q 2819 -91 2034 -91 
Q 1250 -91 836 529 
Q 422 1150 422 2328 
Q 422 3509 836 4129 
Q 1250 4750 2034 4750 
z
" transform="scale(0.015625)"/>
           </defs>
           <use xlink:href="#DejaVuSans-30"/>
          </g>
         </g>
        </g>
        <g id="ytick_2">
         <g id="line2d_5">
          <g>
           <use xlink:href="#m14a0f2af69" x="63.290625" y="286.331285" style="stroke: #000000; stroke-width: 0.8"/>
          </g>
         </g>
         <g id="text_5">
          <!-- 2000 -->
          <g transform="translate(30.840625 290.130503) scale(0.1 -0.1)">
           <defs>
            <path id="DejaVuSans-32" d="M 1228 531 
L 3431 531 
L 3431 0 
L 469 0 
L 469 531 
Q 828 903 1448 1529 
Q 2069 2156 2228 2338 
Q 2531 2678 2651 2914 
Q 2772 3150 2772 3378 
Q 2772 3750 2511 3984 
Q 2250 4219 1831 4219 
Q 1534 4219 1204 4116 
Q 875 4013 500 3803 
L 500 4441 
Q 881 4594 1212 4672 
Q 1544 4750 1819 4750 
Q 2544 4750 2975 4387 
Q 3406 4025 3406 3419 
Q 3406 3131 3298 2873 
Q 3191 2616 2906 2266 
Q 2828 2175 2409 1742 
Q 1991 1309 1228 531 
z
" transform="scale(0.015625)"/>
           </defs>
           <use xlink:href="#DejaVuSans-32"/>
           <use xlink:href="#DejaVuSans-30" x="63.623047"/>
           <use xlink:href="#DejaVuSans-30" x="127.246094"/>
           <use xlink:href="#DejaVuSans-30" x="190.869141"/>
          </g>
         </g>
        </g>
        <g id="ytick_3">
         <g id="line2d_6">
          <g>
           <use xlink:href="#m14a0f2af69" x="63.290625" y="251.040694" style="stroke: #000000; stroke-width: 0.8"/>
          </g>
         </g>
         <g id="text_6">
          <!-- 4000 -->
          <g transform="translate(30.840625 254.839913) scale(0.1 -0.1)">
           <defs>
            <path id="DejaVuSans-34" d="M 2419 4116 
L 825 1625 
L 2419 1625 
L 2419 4116 
z
M 2253 4666 
L 3047 4666 
L 3047 1625 
L 3713 1625 
L 3713 1100 
L 3047 1100 
L 3047 0 
L 2419 0 
L 2419 1100 
L 313 1100 
L 313 1709 
L 2253 4666 
z
" transform="scale(0.015625)"/>
           </defs>
           <use xlink:href="#DejaVuSans-34"/>
           <use xlink:href="#DejaVuSans-30" x="63.623047"/>
           <use xlink:href="#DejaVuSans-30" x="127.246094"/>
           <use xlink:href="#DejaVuSans-30" x="190.869141"/>
          </g>
         </g>
        </g>
        <g id="ytick_4">
         <g id="line2d_7">
          <g>
           <use xlink:href="#m14a0f2af69" x="63.290625" y="215.750104" style="stroke: #000000; stroke-width: 0.8"/>
          </g>
         </g>
         <g id="text_7">
          <!-- 6000 -->
          <g transform="translate(30.840625 219.549323) scale(0.1 -0.1)">
           <defs>
            <path id="DejaVuSans-36" d="M 2113 2584 
Q 1688 2584 1439 2293 
Q 1191 2003 1191 1497 
Q 1191 994 1439 701 
Q 1688 409 2113 409 
Q 2538 409 2786 701 
Q 3034 994 3034 1497 
Q 3034 2003 2786 2293 
Q 2538 2584 2113 2584 
z
M 3366 4563 
L 3366 3988 
Q 3128 4100 2886 4159 
Q 2644 4219 2406 4219 
Q 1781 4219 1451 3797 
Q 1122 3375 1075 2522 
Q 1259 2794 1537 2939 
Q 1816 3084 2150 3084 
Q 2853 3084 3261 2657 
Q 3669 2231 3669 1497 
Q 3669 778 3244 343 
Q 2819 -91 2113 -91 
Q 1303 -91 875 529 
Q 447 1150 447 2328 
Q 447 3434 972 4092 
Q 1497 4750 2381 4750 
Q 2619 4750 2861 4703 
Q 3103 4656 3366 4563 
z
" transform="scale(0.015625)"/>
           </defs>
           <use xlink:href="#DejaVuSans-36"/>
           <use xlink:href="#DejaVuSans-30" x="63.623047"/>
           <use xlink:href="#DejaVuSans-30" x="127.246094"/>
           <use xlink:href="#DejaVuSans-30" x="190.869141"/>
          </g>
         </g>
        </g>
        <g id="ytick_5">
         <g id="line2d_8">
          <g>
           <use xlink:href="#m14a0f2af69" x="63.290625" y="180.459513" style="stroke: #000000; stroke-width: 0.8"/>
          </g>
         </g>
         <g id="text_8">
          <!-- 8000 -->
          <g transform="translate(30.840625 184.258732) scale(0.1 -0.1)">
           <defs>
            <path id="DejaVuSans-38" d="M 2034 2216 
Q 1584 2216 1326 1975 
Q 1069 1734 1069 1313 
Q 1069 891 1326 650 
Q 1584 409 2034 409 
Q 2484 409 2743 651 
Q 3003 894 3003 1313 
Q 3003 1734 2745 1975 
Q 2488 2216 2034 2216 
z
M 1403 2484 
Q 997 2584 770 2862 
Q 544 3141 544 3541 
Q 544 4100 942 4425 
Q 1341 4750 2034 4750 
Q 2731 4750 3128 4425 
Q 3525 4100 3525 3541 
Q 3525 3141 3298 2862 
Q 3072 2584 2669 2484 
Q 3125 2378 3379 2068 
Q 3634 1759 3634 1313 
Q 3634 634 3220 271 
Q 2806 -91 2034 -91 
Q 1263 -91 848 271 
Q 434 634 434 1313 
Q 434 1759 690 2068 
Q 947 2378 1403 2484 
z
M 1172 3481 
Q 1172 3119 1398 2916 
Q 1625 2713 2034 2713 
Q 2441 2713 2670 2916 
Q 2900 3119 2900 3481 
Q 2900 3844 2670 4047 
Q 2441 4250 2034 4250 
Q 1625 4250 1398 4047 
Q 1172 3844 1172 3481 
z
" transform="scale(0.015625)"/>
           </defs>
           <use xlink:href="#DejaVuSans-38"/>
           <use xlink:href="#DejaVuSans-30" x="63.623047"/>
           <use xlink:href="#DejaVuSans-30" x="127.246094"/>
           <use xlink:href="#DejaVuSans-30" x="190.869141"/>
          </g>
         </g>
        </g>
        <g id="ytick_6">
         <g id="line2d_9">
          <g>
           <use xlink:href="#m14a0f2af69" x="63.290625" y="145.168923" style="stroke: #000000; stroke-width: 0.8"/>
          </g>
         </g>
         <g id="text_9">
          <!-- 10000 -->
          <g transform="translate(24.478125 148.968142) scale(0.1 -0.1)">
           <defs>
            <path id="DejaVuSans-31" d="M 794 531 
L 1825 531 
L 1825 4091 
L 703 3866 
L 703 4441 
L 1819 4666 
L 2450 4666 
L 2450 531 
L 3481 531 
L 3481 0 
L 794 0 
L 794 531 
z
" transform="scale(0.015625)"/>
           </defs>
           <use xlink:href="#DejaVuSans-31"/>
           <use xlink:href="#DejaVuSans-30" x="63.623047"/>
           <use xlink:href="#DejaVuSans-30" x="127.246094"/>
           <use xlink:href="#DejaVuSans-30" x="190.869141"/>
           <use xlink:href="#DejaVuSans-30" x="254.492188"/>
          </g>
         </g>
        </g>
        <g id="ytick_7">
         <g id="line2d_10">
          <g>
           <use xlink:href="#m14a0f2af69" x="63.290625" y="109.878333" style="stroke: #000000; stroke-width: 0.8"/>
          </g>
         </g>
         <g id="text_10">
          <!-- 12000 -->
          <g transform="translate(24.478125 113.677551) scale(0.1 -0.1)">
           <use xlink:href="#DejaVuSans-31"/>
           <use xlink:href="#DejaVuSans-32" x="63.623047"/>
           <use xlink:href="#DejaVuSans-30" x="127.246094"/>
           <use xlink:href="#DejaVuSans-30" x="190.869141"/>
           <use xlink:href="#DejaVuSans-30" x="254.492188"/>
          </g>
         </g>
        </g>
        <g id="ytick_8">
         <g id="line2d_11">
          <g>
           <use xlink:href="#m14a0f2af69" x="63.290625" y="74.587742" style="stroke: #000000; stroke-width: 0.8"/>
          </g>
         </g>
         <g id="text_11">
          <!-- 14000 -->
          <g transform="translate(24.478125 78.386961) scale(0.1 -0.1)">
           <use xlink:href="#DejaVuSans-31"/>
           <use xlink:href="#DejaVuSans-34" x="63.623047"/>
           <use xlink:href="#DejaVuSans-30" x="127.246094"/>
           <use xlink:href="#DejaVuSans-30" x="190.869141"/>
           <use xlink:href="#DejaVuSans-30" x="254.492188"/>
          </g>
         </g>
        </g>
        <g id="ytick_9">
         <g id="line2d_12">
          <g>
           <use xlink:href="#m14a0f2af69" x="63.290625" y="39.297152" style="stroke: #000000; stroke-width: 0.8"/>
          </g>
         </g>
         <g id="text_12">
          <!-- 16000 -->
          <g transform="translate(24.478125 43.096371) scale(0.1 -0.1)">
           <use xlink:href="#DejaVuSans-31"/>
           <use xlink:href="#DejaVuSans-36" x="63.623047"/>
           <use xlink:href="#DejaVuSans-30" x="127.246094"/>
           <use xlink:href="#DejaVuSans-30" x="190.869141"/>
           <use xlink:href="#DejaVuSans-30" x="254.492188"/>
          </g>
         </g>
        </g>
        <g id="text_13">
         <!-- time ago (generations) -->
         <g transform="translate(18.398438 223.682031) rotate(-90) scale(0.1 -0.1)">
          <defs>
           <path id="DejaVuSans-74" d="M 1172 4494 
L 1172 3500 
L 2356 3500 
L 2356 3053 
L 1172 3053 
L 1172 1153 
Q 1172 725 1289 603 
Q 1406 481 1766 481 
L 2356 481 
L 2356 0 
L 1766 0 
Q 1100 0 847 248 
Q 594 497 594 1153 
L 594 3053 
L 172 3053 
L 172 3500 
L 594 3500 
L 594 4494 
L 1172 4494 
z
" transform="scale(0.015625)"/>
           <path id="DejaVuSans-69" d="M 603 3500 
L 1178 3500 
L 1178 0 
L 603 0 
L 603 3500 
z
M 603 4863 
L 1178 4863 
L 1178 4134 
L 603 4134 
L 603 4863 
z
" transform="scale(0.015625)"/>
           <path id="DejaVuSans-6d" d="M 3328 2828 
Q 3544 3216 3844 3400 
Q 4144 3584 4550 3584 
Q 5097 3584 5394 3201 
Q 5691 2819 5691 2113 
L 5691 0 
L 5113 0 
L 5113 2094 
Q 5113 2597 4934 2840 
Q 4756 3084 4391 3084 
Q 3944 3084 3684 2787 
Q 3425 2491 3425 1978 
L 3425 0 
L 2847 0 
L 2847 2094 
Q 2847 2600 2669 2842 
Q 2491 3084 2119 3084 
Q 1678 3084 1418 2786 
Q 1159 2488 1159 1978 
L 1159 0 
L 581 0 
L 581 3500 
L 1159 3500 
L 1159 2956 
Q 1356 3278 1631 3431 
Q 1906 3584 2284 3584 
Q 2666 3584 2933 3390 
Q 3200 3197 3328 2828 
z
" transform="scale(0.015625)"/>
           <path id="DejaVuSans-65" d="M 3597 1894 
L 3597 1613 
L 953 1613 
Q 991 1019 1311 708 
Q 1631 397 2203 397 
Q 2534 397 2845 478 
Q 3156 559 3463 722 
L 3463 178 
Q 3153 47 2828 -22 
Q 2503 -91 2169 -91 
Q 1331 -91 842 396 
Q 353 884 353 1716 
Q 353 2575 817 3079 
Q 1281 3584 2069 3584 
Q 2775 3584 3186 3129 
Q 3597 2675 3597 1894 
z
M 3022 2063 
Q 3016 2534 2758 2815 
Q 2500 3097 2075 3097 
Q 1594 3097 1305 2825 
Q 1016 2553 972 2059 
L 3022 2063 
z
" transform="scale(0.015625)"/>
           <path id="DejaVuSans-20" transform="scale(0.015625)"/>
           <path id="DejaVuSans-61" d="M 2194 1759 
Q 1497 1759 1228 1600 
Q 959 1441 959 1056 
Q 959 750 1161 570 
Q 1363 391 1709 391 
Q 2188 391 2477 730 
Q 2766 1069 2766 1631 
L 2766 1759 
L 2194 1759 
z
M 3341 1997 
L 3341 0 
L 2766 0 
L 2766 531 
Q 2569 213 2275 61 
Q 1981 -91 1556 -91 
Q 1019 -91 701 211 
Q 384 513 384 1019 
Q 384 1609 779 1909 
Q 1175 2209 1959 2209 
L 2766 2209 
L 2766 2266 
Q 2766 2663 2505 2880 
Q 2244 3097 1772 3097 
Q 1472 3097 1187 3025 
Q 903 2953 641 2809 
L 641 3341 
Q 956 3463 1253 3523 
Q 1550 3584 1831 3584 
Q 2591 3584 2966 3190 
Q 3341 2797 3341 1997 
z
" transform="scale(0.015625)"/>
           <path id="DejaVuSans-67" d="M 2906 1791 
Q 2906 2416 2648 2759 
Q 2391 3103 1925 3103 
Q 1463 3103 1205 2759 
Q 947 2416 947 1791 
Q 947 1169 1205 825 
Q 1463 481 1925 481 
Q 2391 481 2648 825 
Q 2906 1169 2906 1791 
z
M 3481 434 
Q 3481 -459 3084 -895 
Q 2688 -1331 1869 -1331 
Q 1566 -1331 1297 -1286 
Q 1028 -1241 775 -1147 
L 775 -588 
Q 1028 -725 1275 -790 
Q 1522 -856 1778 -856 
Q 2344 -856 2625 -561 
Q 2906 -266 2906 331 
L 2906 616 
Q 2728 306 2450 153 
Q 2172 0 1784 0 
Q 1141 0 747 490 
Q 353 981 353 1791 
Q 353 2603 747 3093 
Q 1141 3584 1784 3584 
Q 2172 3584 2450 3431 
Q 2728 3278 2906 2969 
L 2906 3500 
L 3481 3500 
L 3481 434 
z
" transform="scale(0.015625)"/>
           <path id="DejaVuSans-6f" d="M 1959 3097 
Q 1497 3097 1228 2736 
Q 959 2375 959 1747 
Q 959 1119 1226 758 
Q 1494 397 1959 397 
Q 2419 397 2687 759 
Q 2956 1122 2956 1747 
Q 2956 2369 2687 2733 
Q 2419 3097 1959 3097 
z
M 1959 3584 
Q 2709 3584 3137 3096 
Q 3566 2609 3566 1747 
Q 3566 888 3137 398 
Q 2709 -91 1959 -91 
Q 1206 -91 779 398 
Q 353 888 353 1747 
Q 353 2609 779 3096 
Q 1206 3584 1959 3584 
z
" transform="scale(0.015625)"/>
           <path id="DejaVuSans-28" d="M 1984 4856 
Q 1566 4138 1362 3434 
Q 1159 2731 1159 2009 
Q 1159 1288 1364 580 
Q 1569 -128 1984 -844 
L 1484 -844 
Q 1016 -109 783 600 
Q 550 1309 550 2009 
Q 550 2706 781 3412 
Q 1013 4119 1484 4856 
L 1984 4856 
z
" transform="scale(0.015625)"/>
           <path id="DejaVuSans-6e" d="M 3513 2113 
L 3513 0 
L 2938 0 
L 2938 2094 
Q 2938 2591 2744 2837 
Q 2550 3084 2163 3084 
Q 1697 3084 1428 2787 
Q 1159 2491 1159 1978 
L 1159 0 
L 581 0 
L 581 3500 
L 1159 3500 
L 1159 2956 
Q 1366 3272 1645 3428 
Q 1925 3584 2291 3584 
Q 2894 3584 3203 3211 
Q 3513 2838 3513 2113 
z
" transform="scale(0.015625)"/>
           <path id="DejaVuSans-72" d="M 2631 2963 
Q 2534 3019 2420 3045 
Q 2306 3072 2169 3072 
Q 1681 3072 1420 2755 
Q 1159 2438 1159 1844 
L 1159 0 
L 581 0 
L 581 3500 
L 1159 3500 
L 1159 2956 
Q 1341 3275 1631 3429 
Q 1922 3584 2338 3584 
Q 2397 3584 2469 3576 
Q 2541 3569 2628 3553 
L 2631 2963 
z
" transform="scale(0.015625)"/>
           <path id="DejaVuSans-73" d="M 2834 3397 
L 2834 2853 
Q 2591 2978 2328 3040 
Q 2066 3103 1784 3103 
Q 1356 3103 1142 2972 
Q 928 2841 928 2578 
Q 928 2378 1081 2264 
Q 1234 2150 1697 2047 
L 1894 2003 
Q 2506 1872 2764 1633 
Q 3022 1394 3022 966 
Q 3022 478 2636 193 
Q 2250 -91 1575 -91 
Q 1294 -91 989 -36 
Q 684 19 347 128 
L 347 722 
Q 666 556 975 473 
Q 1284 391 1588 391 
Q 1994 391 2212 530 
Q 2431 669 2431 922 
Q 2431 1156 2273 1281 
Q 2116 1406 1581 1522 
L 1381 1569 
Q 847 1681 609 1914 
Q 372 2147 372 2553 
Q 372 3047 722 3315 
Q 1072 3584 1716 3584 
Q 2034 3584 2315 3537 
Q 2597 3491 2834 3397 
z
" transform="scale(0.015625)"/>
           <path id="DejaVuSans-29" d="M 513 4856 
L 1013 4856 
Q 1481 4119 1714 3412 
Q 1947 2706 1947 2009 
Q 1947 1309 1714 600 
Q 1481 -109 1013 -844 
L 513 -844 
Q 928 -128 1133 580 
Q 1338 1288 1338 2009 
Q 1338 2731 1133 3434 
Q 928 4138 513 4856 
z
" transform="scale(0.015625)"/>
          </defs>
          <use xlink:href="#DejaVuSans-74"/>
          <use xlink:href="#DejaVuSans-69" x="39.208984"/>
          <use xlink:href="#DejaVuSans-6d" x="66.992188"/>
          <use xlink:href="#DejaVuSans-65" x="164.404297"/>
          <use xlink:href="#DejaVuSans-20" x="225.927734"/>
          <use xlink:href="#DejaVuSans-61" x="257.714844"/>
          <use xlink:href="#DejaVuSans-67" x="318.994141"/>
          <use xlink:href="#DejaVuSans-6f" x="382.470703"/>
          <use xlink:href="#DejaVuSans-20" x="443.652344"/>
          <use xlink:href="#DejaVuSans-28" x="475.439453"/>
          <use xlink:href="#DejaVuSans-67" x="514.453125"/>
          <use xlink:href="#DejaVuSans-65" x="577.929688"/>
          <use xlink:href="#DejaVuSans-6e" x="639.453125"/>
          <use xlink:href="#DejaVuSans-65" x="702.832031"/>
          <use xlink:href="#DejaVuSans-72" x="764.355469"/>
          <use xlink:href="#DejaVuSans-61" x="805.46875"/>
          <use xlink:href="#DejaVuSans-74" x="866.748047"/>
          <use xlink:href="#DejaVuSans-69" x="905.957031"/>
          <use xlink:href="#DejaVuSans-6f" x="933.740234"/>
          <use xlink:href="#DejaVuSans-6e" x="994.921875"/>
          <use xlink:href="#DejaVuSans-73" x="1058.300781"/>
          <use xlink:href="#DejaVuSans-29" x="1110.400391"/>
         </g>
        </g>
       </g>
       <g id="patch_7">
        <path d="M 296.083625 149.421439 
L 295.083625 149.390003 
L 294.083625 149.353062 
L 293.083625 149.255316 
L 292.083625 149.222794 
L 291.083625 149.14917 
L 290.083625 149.110604 
L 289.083625 149.075191 
L 288.083625 149.017551 
L 287.083625 148.947165 
L 286.083625 148.8952 
L 285.083625 148.836111 
L 284.083625 148.74779 
L 283.083625 148.701645 
L 282.083625 148.659235 
L 281.083625 148.628742 
L 280.083625 148.602697 
L 279.083625 148.581497 
L 278.083625 148.527196 
L 277.083625 148.499258 
L 276.083625 148.469534 
L 275.083625 148.444139 
L 274.083625 148.432939 
L 273.083625 148.422815 
L 272.083625 148.423019 
L 271.083625 148.432529 
L 270.083625 148.444183 
L 269.083625 148.475212 
L 268.083625 148.48638 
L 267.083625 148.516498 
L 266.083625 148.576274 
L 265.083625 148.613466 
L 264.083625 148.652562 
L 263.083625 148.695002 
L 262.083625 148.727767 
L 261.083625 148.795193 
L 260.083625 148.834319 
L 259.083625 148.876994 
L 258.083625 148.947574 
L 257.083625 148.983965 
L 256.083625 149.042368 
L 255.083625 149.153321 
L 254.083625 149.223979 
L 253.083625 149.336919 
L 252.083625 149.382692 
L 251.083625 149.443975 
L 250.083625 149.492475 
L 249.083625 149.573297 
L 248.083625 149.691816 
L 247.083625 149.762027 
L 246.083625 149.845289 
L 245.083625 149.878431 
L 244.083625 149.929668 
L 243.083625 149.998067 
L 242.083625 150.064282 
L 241.083625 150.141199 
L 240.083625 150.168515 
L 239.083625 150.194992 
L 238.083625 150.217643 
L 237.083625 150.237174 
L 236.083625 150.263568 
L 235.083625 150.313339 
L 234.083625 150.348412 
L 233.083625 150.384278 
L 232.083625 150.399645 
L 231.083625 150.415414 
L 230.083625 150.418827 
L 229.083625 150.421244 
L 228.083625 150.420758 
L 227.083625 150.418829 
L 226.083625 150.405572 
L 225.083625 150.397182 
L 224.083625 150.375645 
L 223.083625 150.352612 
L 222.083625 150.335379 
L 221.083625 150.316916 
L 220.083625 150.296464 
L 219.083625 150.279864 
L 218.083625 150.217085 
L 217.083625 150.14182 
L 216.083625 150.109181 
L 215.083625 150.041618 
L 214.083625 149.98757 
L 213.083625 149.953866 
L 212.083625 149.86374 
L 211.083625 149.835205 
L 210.083625 149.803719 
L 209.083625 149.772708 
L 208.083625 149.7179 
L 207.083625 149.653313 
L 206.083625 149.615118 
L 205.083625 149.519183 
L 204.083625 149.469925 
L 203.083625 149.425856 
L 202.083625 149.385732 
L 201.083625 149.277365 
L 200.083625 149.235737 
L 199.083625 149.173596 
L 198.083625 149.103633 
L 197.083625 148.999129 
L 196.083625 148.962141 
L 195.083625 148.916264 
L 194.083625 148.84777 
L 193.083625 148.799024 
L 192.083625 148.721426 
L 191.083625 148.690885 
L 190.083625 148.621371 
L 189.083625 148.597398 
L 188.083625 148.568776 
L 187.083625 148.526983 
L 186.083625 148.505407 
L 185.083625 148.491459 
L 184.083625 148.464737 
L 183.083625 148.455427 
L 182.083625 148.44298 
L 181.083625 148.431926 
L 180.083625 148.426261 
L 179.083625 148.421497 
L 178.083625 148.427045 
L 177.083625 148.440333 
L 176.083625 148.44785 
L 175.083625 148.472635 
L 174.083625 148.496204 
L 173.083625 148.532385 
L 172.083625 148.558346 
L 171.083625 148.580668 
L 170.083625 148.649428 
L 169.083625 148.723963 
L 168.083625 148.817942 
L 167.083625 148.868994 
L 166.083625 148.922928 
L 165.083625 148.958179 
L 164.083625 149.064267 
L 163.083625 149.116531 
L 162.083625 149.153438 
L 161.083625 149.184469 
L 160.083625 149.245624 
L 159.083625 149.313044 
L 158.083625 149.36195 
L 157.083625 149.427142 
L 156.083625 149.46533 
L 155.083625 149.507326 
L 154.083625 149.549343 
L 153.083625 149.60886 
L 152.083625 149.722019 
L 151.083625 149.77427 
L 150.083625 149.813688 
L 149.083625 149.860789 
L 148.083625 149.917569 
L 147.083625 149.950232 
L 146.083625 149.98641 
L 145.083625 150.018501 
L 144.083625 150.05278 
L 143.083625 150.111158 
L 142.083625 150.156343 
L 141.083625 150.185967 
L 140.083625 150.236353 
L 139.083625 150.261551 
L 138.083625 150.282601 
L 137.083625 150.317569 
L 136.083625 150.341859 
L 135.083625 150.355926 
L 134.083625 150.374868 
L 133.083625 150.39053 
L 132.083625 150.403081 
L 131.083625 150.408917 
L 130.083625 150.4158 
L 129.083625 150.420973 
L 128.083625 150.419191 
L 127.083625 150.416465 
L 126.083625 150.405312 
L 125.083625 150.377076 
L 124.083625 150.333288 
L 123.083625 150.312599 
L 122.083625 150.271626 
L 121.083625 150.231551 
L 120.083625 150.212441 
L 119.083625 150.189933 
L 118.083625 150.123281 
L 117.083625 150.073572 
L 116.083625 149.999865 
L 115.083625 149.968551 
L 114.083625 149.891929 
L 113.083625 149.853631 
L 112.083625 149.779514 
L 111.083625 149.675456 
L 110.083625 149.605625 
L 109.083625 149.500392 
L 108.083625 149.445376 
L 107.083625 149.321901 
L 105.261295 149.251342 
" clip-path="url(#p1fd844376b)" style="fill: none; stroke: #ffffff; stroke-width: 3; stroke-linecap: round"/>
        <path d="M 296.083625 149.421439 
L 295.083625 149.390003 
L 294.083625 149.353062 
L 293.083625 149.255316 
L 292.083625 149.222794 
L 291.083625 149.14917 
L 290.083625 149.110604 
L 289.083625 149.075191 
L 288.083625 149.017551 
L 287.083625 148.947165 
L 286.083625 148.8952 
L 285.083625 148.836111 
L 284.083625 148.74779 
L 283.083625 148.701645 
L 282.083625 148.659235 
L 281.083625 148.628742 
L 280.083625 148.602697 
L 279.083625 148.581497 
L 278.083625 148.527196 
L 277.083625 148.499258 
L 276.083625 148.469534 
L 275.083625 148.444139 
L 274.083625 148.432939 
L 273.083625 148.422815 
L 272.083625 148.423019 
L 271.083625 148.432529 
L 270.083625 148.444183 
L 269.083625 148.475212 
L 268.083625 148.48638 
L 267.083625 148.516498 
L 266.083625 148.576274 
L 265.083625 148.613466 
L 264.083625 148.652562 
L 263.083625 148.695002 
L 262.083625 148.727767 
L 261.083625 148.795193 
L 260.083625 148.834319 
L 259.083625 148.876994 
L 258.083625 148.947574 
L 257.083625 148.983965 
L 256.083625 149.042368 
L 255.083625 149.153321 
L 254.083625 149.223979 
L 253.083625 149.336919 
L 252.083625 149.382692 
L 251.083625 149.443975 
L 250.083625 149.492475 
L 249.083625 149.573297 
L 248.083625 149.691816 
L 247.083625 149.762027 
L 246.083625 149.845289 
L 245.083625 149.878431 
L 244.083625 149.929668 
L 243.083625 149.998067 
L 242.083625 150.064282 
L 241.083625 150.141199 
L 240.083625 150.168515 
L 239.083625 150.194992 
L 238.083625 150.217643 
L 237.083625 150.237174 
L 236.083625 150.263568 
L 235.083625 150.313339 
L 234.083625 150.348412 
L 233.083625 150.384278 
L 232.083625 150.399645 
L 231.083625 150.415414 
L 230.083625 150.418827 
L 229.083625 150.421244 
L 228.083625 150.420758 
L 227.083625 150.418829 
L 226.083625 150.405572 
L 225.083625 150.397182 
L 224.083625 150.375645 
L 223.083625 150.352612 
L 222.083625 150.335379 
L 221.083625 150.316916 
L 220.083625 150.296464 
L 219.083625 150.279864 
L 218.083625 150.217085 
L 217.083625 150.14182 
L 216.083625 150.109181 
L 215.083625 150.041618 
L 214.083625 149.98757 
L 213.083625 149.953866 
L 212.083625 149.86374 
L 211.083625 149.835205 
L 210.083625 149.803719 
L 209.083625 149.772708 
L 208.083625 149.7179 
L 207.083625 149.653313 
L 206.083625 149.615118 
L 205.083625 149.519183 
L 204.083625 149.469925 
L 203.083625 149.425856 
L 202.083625 149.385732 
L 201.083625 149.277365 
L 200.083625 149.235737 
L 199.083625 149.173596 
L 198.083625 149.103633 
L 197.083625 148.999129 
L 196.083625 148.962141 
L 195.083625 148.916264 
L 194.083625 148.84777 
L 193.083625 148.799024 
L 192.083625 148.721426 
L 191.083625 148.690885 
L 190.083625 148.621371 
L 189.083625 148.597398 
L 188.083625 148.568776 
L 187.083625 148.526983 
L 186.083625 148.505407 
L 185.083625 148.491459 
L 184.083625 148.464737 
L 183.083625 148.455427 
L 182.083625 148.44298 
L 181.083625 148.431926 
L 180.083625 148.426261 
L 179.083625 148.421497 
L 178.083625 148.427045 
L 177.083625 148.440333 
L 176.083625 148.44785 
L 175.083625 148.472635 
L 174.083625 148.496204 
L 173.083625 148.532385 
L 172.083625 148.558346 
L 171.083625 148.580668 
L 170.083625 148.649428 
L 169.083625 148.723963 
L 168.083625 148.817942 
L 167.083625 148.868994 
L 166.083625 148.922928 
L 165.083625 148.958179 
L 164.083625 149.064267 
L 163.083625 149.116531 
L 162.083625 149.153438 
L 161.083625 149.184469 
L 160.083625 149.245624 
L 159.083625 149.313044 
L 158.083625 149.36195 
L 157.083625 149.427142 
L 156.083625 149.46533 
L 155.083625 149.507326 
L 154.083625 149.549343 
L 153.083625 149.60886 
L 152.083625 149.722019 
L 151.083625 149.77427 
L 150.083625 149.813688 
L 149.083625 149.860789 
L 148.083625 149.917569 
L 147.083625 149.950232 
L 146.083625 149.98641 
L 145.083625 150.018501 
L 144.083625 150.05278 
L 143.083625 150.111158 
L 142.083625 150.156343 
L 141.083625 150.185967 
L 140.083625 150.236353 
L 139.083625 150.261551 
L 138.083625 150.282601 
L 137.083625 150.317569 
L 136.083625 150.341859 
L 135.083625 150.355926 
L 134.083625 150.374868 
L 133.083625 150.39053 
L 132.083625 150.403081 
L 131.083625 150.408917 
L 130.083625 150.4158 
L 129.083625 150.420973 
L 128.083625 150.419191 
L 127.083625 150.416465 
L 126.083625 150.405312 
L 125.083625 150.377076 
L 124.083625 150.333288 
L 123.083625 150.312599 
L 122.083625 150.271626 
L 121.083625 150.231551 
L 120.083625 150.212441 
L 119.083625 150.189933 
L 118.083625 150.123281 
L 117.083625 150.073572 
L 116.083625 149.999865 
L 115.083625 149.968551 
L 114.083625 149.891929 
L 113.083625 149.853631 
L 112.083625 149.779514 
L 111.083625 149.675456 
L 110.083625 149.605625 
L 109.083625 149.500392 
L 108.083625 149.445376 
L 107.083625 149.321901 
L 105.261295 149.251342 
" clip-path="url(#p1fd844376b)" style="fill: none; stroke: #1f77b4; stroke-linecap: round"/>
        <path d="M 109.261295 151.421439 
L 108.380926 150.946108 
L 107.503019 150.465854 
L 106.652306 149.931213 
L 105.350131 149.243766 
L 106.277484 149.217751 
L 107.189159 148.805031 
L 108.099423 148.389492 
L 109.441919 147.782688 
L 108.78702 148.421439 
L 108.735056 149.421439 
L 108.675966 151.421439 
z
" clip-path="url(#p1fd844376b)" style="fill: #ffffff; stroke: #ffffff; stroke-width: 3; stroke-linecap: round"/>
        <path d="M 109.261295 151.421439 
L 108.380926 150.946108 
L 107.503019 150.465854 
L 106.652306 149.931213 
L 105.350131 149.243766 
L 106.277484 149.217751 
L 107.189159 148.805031 
L 108.099423 148.389492 
L 109.441919 147.782688 
L 108.78702 148.421439 
L 108.735056 149.421439 
L 108.675966 151.421439 
z
" clip-path="url(#p1fd844376b)" style="fill: #ffffff; stroke: #1f77b4; stroke-linecap: round"/>
        <g id="patch_8">
         <path d="M 313.026185 72.964375 
L 314.026185 72.995811 
L 315.026185 73.032752 
L 316.026185 73.130498 
L 317.026185 73.16302 
L 318.026185 73.236645 
L 319.026185 73.27521 
L 320.026185 73.310623 
L 321.026185 73.368263 
L 322.026185 73.438649 
L 323.026185 73.490614 
L 324.026185 73.549703 
L 325.026185 73.638024 
L 326.026185 73.684169 
L 327.026185 73.72658 
L 328.026185 73.757072 
L 329.026185 73.783117 
L 330.026185 73.804317 
L 331.026185 73.858618 
L 332.026185 73.886556 
L 333.026185 73.91628 
L 334.026185 73.941675 
L 335.026185 73.952875 
L 336.026185 73.962999 
L 337.026185 73.962795 
L 338.026185 73.953285 
L 339.026185 73.941631 
L 340.026185 73.910602 
L 341.026185 73.899434 
L 342.026185 73.869317 
L 343.026185 73.80954 
L 344.026185 73.772348 
L 345.026185 73.733252 
L 346.026185 73.690812 
L 347.026185 73.658047 
L 348.026185 73.590621 
L 349.026185 73.551495 
L 350.026185 73.50882 
L 351.026185 73.43824 
L 352.026185 73.401849 
L 353.026185 73.343446 
L 354.026185 73.232493 
L 355.026185 73.161835 
L 356.026185 73.048895 
L 357.026185 73.003122 
L 358.026185 72.941839 
L 359.026185 72.89334 
L 360.026185 72.812517 
L 361.026185 72.693998 
L 362.026185 72.623787 
L 363.026185 72.540525 
L 364.026185 72.507383 
L 365.026185 72.456146 
L 366.026185 72.387747 
L 367.026185 72.321532 
L 368.026185 72.244615 
L 369.026185 72.217299 
L 370.026185 72.190822 
L 371.026185 72.168171 
L 372.026185 72.14864 
L 373.026185 72.122246 
L 374.026185 72.072475 
L 375.026185 72.037402 
L 376.026185 72.001536 
L 377.026185 71.986169 
L 378.026185 71.9704 
L 379.026185 71.966987 
L 380.026185 71.96457 
L 381.026185 71.965056 
L 382.026185 71.966985 
L 383.026185 71.980242 
L 384.026185 71.988633 
L 385.026185 72.010169 
L 386.026185 72.033202 
L 387.026185 72.050435 
L 388.026185 72.068898 
L 389.026185 72.08935 
L 390.026185 72.10595 
L 391.026185 72.168729 
L 392.026185 72.243994 
L 393.026185 72.276633 
L 394.026185 72.344197 
L 395.026185 72.398244 
L 396.026185 72.431948 
L 397.026185 72.522074 
L 398.026185 72.550609 
L 399.026185 72.582095 
L 400.026185 72.613106 
L 401.026185 72.667914 
L 402.026185 72.732501 
L 403.026185 72.770697 
L 404.026185 72.866631 
L 405.026185 72.915889 
L 406.026185 72.959958 
L 407.026185 73.000082 
L 408.026185 73.108449 
L 409.026185 73.150077 
L 410.026185 73.212219 
L 411.026185 73.282181 
L 412.026185 73.386685 
L 413.026185 73.423673 
L 414.026185 73.46955 
L 415.026185 73.538045 
L 416.026185 73.586791 
L 417.026185 73.664388 
L 418.026185 73.694929 
L 419.026185 73.764443 
L 420.026185 73.788416 
L 421.026185 73.817038 
L 422.026185 73.858831 
L 423.026185 73.880407 
L 424.026185 73.894355 
L 425.026185 73.921077 
L 426.026185 73.930387 
L 427.026185 73.942834 
L 428.026185 73.953889 
L 429.026185 73.959553 
L 430.026185 73.964317 
L 431.026185 73.958769 
L 432.026185 73.945481 
L 433.026185 73.937964 
L 434.026185 73.913179 
L 435.026185 73.88961 
L 436.026185 73.85343 
L 437.026185 73.827468 
L 438.026185 73.805146 
L 439.026185 73.736386 
L 440.026185 73.661851 
L 441.026185 73.567872 
L 442.026185 73.51682 
L 443.026185 73.462886 
L 444.026185 73.427635 
L 445.026185 73.321547 
L 446.026185 73.269283 
L 447.026185 73.232376 
L 448.026185 73.201345 
L 449.026185 73.14019 
L 450.026185 73.07277 
L 451.026185 73.023864 
L 452.026185 72.958672 
L 453.026185 72.920484 
L 454.026185 72.878488 
L 455.026185 72.836471 
L 456.026185 72.776955 
L 457.026185 72.663795 
L 458.026185 72.611544 
L 459.026185 72.572126 
L 460.026185 72.525025 
L 461.026185 72.468245 
L 462.026185 72.435582 
L 463.026185 72.399404 
L 464.026185 72.367314 
L 465.026185 72.333034 
L 466.026185 72.274656 
L 467.026185 72.229471 
L 468.026185 72.199847 
L 469.026185 72.149461 
L 470.026185 72.124264 
L 471.026185 72.103213 
L 472.026185 72.068245 
L 473.026185 72.043955 
L 474.026185 72.029888 
L 475.026185 72.010946 
L 476.026185 71.995285 
L 477.026185 71.982733 
L 478.026185 71.976897 
L 479.026185 71.970015 
L 480.026185 71.964841 
L 481.026185 71.966624 
L 482.026185 71.969349 
L 483.026185 71.980503 
L 484.026185 72.008738 
L 485.026185 72.052526 
L 486.026185 72.073215 
L 487.026185 72.114188 
L 488.026185 72.154263 
L 489.026185 72.173373 
L 490.026185 72.195882 
L 491.026185 72.262533 
L 492.026185 72.312243 
L 493.026185 72.385949 
L 494.026185 72.417263 
L 495.026185 72.493885 
L 496.026185 72.532183 
L 497.026185 72.6063 
L 498.026185 72.710358 
L 499.026185 72.780189 
L 500.026185 72.885423 
L 501.026185 72.940438 
L 502.026185 73.063913 
L 503.026185 73.134472 
L 504.026185 73.250311 
L 505.026185 73.300492 
L 506.026185 73.336096 
L 507.026185 73.427503 
L 508.026185 73.481011 
L 509.026185 73.568919 
L 510.026185 73.638104 
L 511.026185 73.684868 
L 512.026185 73.756912 
L 513.026185 73.807054 
L 514.026185 73.824444 
L 515.026185 73.851447 
L 516.026185 73.870874 
L 517.026185 73.890212 
L 518.026185 73.928461 
L 519.026185 73.944894 
L 520.026185 73.953263 
L 521.026185 73.957582 
L 522.026185 73.964137 
L 523.026185 73.961591 
L 524.026185 73.956132 
L 525.026185 73.939704 
L 526.026185 73.907769 
L 527.026185 73.869789 
L 528.026185 73.834985 
L 529.026185 73.771913 
L 530.026185 73.750486 
L 531.026185 73.699868 
L 532.026185 73.674911 
L 533.026185 73.619277 
L 534.026185 73.588048 
L 535.026185 73.537904 
L 536.026185 73.505411 
L 537.026185 73.424999 
L 538.026185 73.356073 
L 539.026185 73.240376 
L 540.026185 73.164897 
L 541.026185 73.049372 
L 542.026185 72.969888 
L 543.026185 72.861447 
L 544.026185 72.822079 
L 545.026185 72.719211 
L 546.026185 72.619413 
L 547.026185 72.573916 
L 548.026185 72.539594 
L 549.026185 72.487638 
L 550.026185 72.447991 
L 551.026185 72.412477 
L 552.026185 72.344832 
L 553.026185 72.30575 
L 554.026185 72.255269 
L 555.026185 72.205963 
L 556.026185 72.154893 
L 557.026185 72.110654 
L 558.026185 72.088634 
L 559.026185 72.073078 
L 560.026185 72.030631 
L 561.026185 72.015763 
L 562.026185 71.993035 
L 563.026185 71.972719 
L 564.026185 71.966922 
L 565.026185 71.96444 
L 566.026185 71.967497 
L 567.026185 71.979093 
L 568.026185 71.996013 
L 569.026185 72.027674 
L 570.086951 72.041757 
" clip-path="url(#p1fd844376b)" style="fill: none; stroke: #ffffff; stroke-width: 3; stroke-linecap: round"/>
         <path d="M 313.026185 72.964375 
L 314.026185 72.995811 
L 315.026185 73.032752 
L 316.026185 73.130498 
L 317.026185 73.16302 
L 318.026185 73.236645 
L 319.026185 73.27521 
L 320.026185 73.310623 
L 321.026185 73.368263 
L 322.026185 73.438649 
L 323.026185 73.490614 
L 324.026185 73.549703 
L 325.026185 73.638024 
L 326.026185 73.684169 
L 327.026185 73.72658 
L 328.026185 73.757072 
L 329.026185 73.783117 
L 330.026185 73.804317 
L 331.026185 73.858618 
L 332.026185 73.886556 
L 333.026185 73.91628 
L 334.026185 73.941675 
L 335.026185 73.952875 
L 336.026185 73.962999 
L 337.026185 73.962795 
L 338.026185 73.953285 
L 339.026185 73.941631 
L 340.026185 73.910602 
L 341.026185 73.899434 
L 342.026185 73.869317 
L 343.026185 73.80954 
L 344.026185 73.772348 
L 345.026185 73.733252 
L 346.026185 73.690812 
L 347.026185 73.658047 
L 348.026185 73.590621 
L 349.026185 73.551495 
L 350.026185 73.50882 
L 351.026185 73.43824 
L 352.026185 73.401849 
L 353.026185 73.343446 
L 354.026185 73.232493 
L 355.026185 73.161835 
L 356.026185 73.048895 
L 357.026185 73.003122 
L 358.026185 72.941839 
L 359.026185 72.89334 
L 360.026185 72.812517 
L 361.026185 72.693998 
L 362.026185 72.623787 
L 363.026185 72.540525 
L 364.026185 72.507383 
L 365.026185 72.456146 
L 366.026185 72.387747 
L 367.026185 72.321532 
L 368.026185 72.244615 
L 369.026185 72.217299 
L 370.026185 72.190822 
L 371.026185 72.168171 
L 372.026185 72.14864 
L 373.026185 72.122246 
L 374.026185 72.072475 
L 375.026185 72.037402 
L 376.026185 72.001536 
L 377.026185 71.986169 
L 378.026185 71.9704 
L 379.026185 71.966987 
L 380.026185 71.96457 
L 381.026185 71.965056 
L 382.026185 71.966985 
L 383.026185 71.980242 
L 384.026185 71.988633 
L 385.026185 72.010169 
L 386.026185 72.033202 
L 387.026185 72.050435 
L 388.026185 72.068898 
L 389.026185 72.08935 
L 390.026185 72.10595 
L 391.026185 72.168729 
L 392.026185 72.243994 
L 393.026185 72.276633 
L 394.026185 72.344197 
L 395.026185 72.398244 
L 396.026185 72.431948 
L 397.026185 72.522074 
L 398.026185 72.550609 
L 399.026185 72.582095 
L 400.026185 72.613106 
L 401.026185 72.667914 
L 402.026185 72.732501 
L 403.026185 72.770697 
L 404.026185 72.866631 
L 405.026185 72.915889 
L 406.026185 72.959958 
L 407.026185 73.000082 
L 408.026185 73.108449 
L 409.026185 73.150077 
L 410.026185 73.212219 
L 411.026185 73.282181 
L 412.026185 73.386685 
L 413.026185 73.423673 
L 414.026185 73.46955 
L 415.026185 73.538045 
L 416.026185 73.586791 
L 417.026185 73.664388 
L 418.026185 73.694929 
L 419.026185 73.764443 
L 420.026185 73.788416 
L 421.026185 73.817038 
L 422.026185 73.858831 
L 423.026185 73.880407 
L 424.026185 73.894355 
L 425.026185 73.921077 
L 426.026185 73.930387 
L 427.026185 73.942834 
L 428.026185 73.953889 
L 429.026185 73.959553 
L 430.026185 73.964317 
L 431.026185 73.958769 
L 432.026185 73.945481 
L 433.026185 73.937964 
L 434.026185 73.913179 
L 435.026185 73.88961 
L 436.026185 73.85343 
L 437.026185 73.827468 
L 438.026185 73.805146 
L 439.026185 73.736386 
L 440.026185 73.661851 
L 441.026185 73.567872 
L 442.026185 73.51682 
L 443.026185 73.462886 
L 444.026185 73.427635 
L 445.026185 73.321547 
L 446.026185 73.269283 
L 447.026185 73.232376 
L 448.026185 73.201345 
L 449.026185 73.14019 
L 450.026185 73.07277 
L 451.026185 73.023864 
L 452.026185 72.958672 
L 453.026185 72.920484 
L 454.026185 72.878488 
L 455.026185 72.836471 
L 456.026185 72.776955 
L 457.026185 72.663795 
L 458.026185 72.611544 
L 459.026185 72.572126 
L 460.026185 72.525025 
L 461.026185 72.468245 
L 462.026185 72.435582 
L 463.026185 72.399404 
L 464.026185 72.367314 
L 465.026185 72.333034 
L 466.026185 72.274656 
L 467.026185 72.229471 
L 468.026185 72.199847 
L 469.026185 72.149461 
L 470.026185 72.124264 
L 471.026185 72.103213 
L 472.026185 72.068245 
L 473.026185 72.043955 
L 474.026185 72.029888 
L 475.026185 72.010946 
L 476.026185 71.995285 
L 477.026185 71.982733 
L 478.026185 71.976897 
L 479.026185 71.970015 
L 480.026185 71.964841 
L 481.026185 71.966624 
L 482.026185 71.969349 
L 483.026185 71.980503 
L 484.026185 72.008738 
L 485.026185 72.052526 
L 486.026185 72.073215 
L 487.026185 72.114188 
L 488.026185 72.154263 
L 489.026185 72.173373 
L 490.026185 72.195882 
L 491.026185 72.262533 
L 492.026185 72.312243 
L 493.026185 72.385949 
L 494.026185 72.417263 
L 495.026185 72.493885 
L 496.026185 72.532183 
L 497.026185 72.6063 
L 498.026185 72.710358 
L 499.026185 72.780189 
L 500.026185 72.885423 
L 501.026185 72.940438 
L 502.026185 73.063913 
L 503.026185 73.134472 
L 504.026185 73.250311 
L 505.026185 73.300492 
L 506.026185 73.336096 
L 507.026185 73.427503 
L 508.026185 73.481011 
L 509.026185 73.568919 
L 510.026185 73.638104 
L 511.026185 73.684868 
L 512.026185 73.756912 
L 513.026185 73.807054 
L 514.026185 73.824444 
L 515.026185 73.851447 
L 516.026185 73.870874 
L 517.026185 73.890212 
L 518.026185 73.928461 
L 519.026185 73.944894 
L 520.026185 73.953263 
L 521.026185 73.957582 
L 522.026185 73.964137 
L 523.026185 73.961591 
L 524.026185 73.956132 
L 525.026185 73.939704 
L 526.026185 73.907769 
L 527.026185 73.869789 
L 528.026185 73.834985 
L 529.026185 73.771913 
L 530.026185 73.750486 
L 531.026185 73.699868 
L 532.026185 73.674911 
L 533.026185 73.619277 
L 534.026185 73.588048 
L 535.026185 73.537904 
L 536.026185 73.505411 
L 537.026185 73.424999 
L 538.026185 73.356073 
L 539.026185 73.240376 
L 540.026185 73.164897 
L 541.026185 73.049372 
L 542.026185 72.969888 
L 543.026185 72.861447 
L 544.026185 72.822079 
L 545.026185 72.719211 
L 546.026185 72.619413 
L 547.026185 72.573916 
L 548.026185 72.539594 
L 549.026185 72.487638 
L 550.026185 72.447991 
L 551.026185 72.412477 
L 552.026185 72.344832 
L 553.026185 72.30575 
L 554.026185 72.255269 
L 555.026185 72.205963 
L 556.026185 72.154893 
L 557.026185 72.110654 
L 558.026185 72.088634 
L 559.026185 72.073078 
L 560.026185 72.030631 
L 561.026185 72.015763 
L 562.026185 71.993035 
L 563.026185 71.972719 
L 564.026185 71.966922 
L 565.026185 71.96444 
L 566.026185 71.967497 
L 567.026185 71.979093 
L 568.026185 71.996013 
L 569.026185 72.027674 
L 570.086951 72.041757 
" clip-path="url(#p1fd844376b)" style="fill: none; stroke: #1f77b4; stroke-linecap: round"/>
         <path d="M 566.086951 70.964375 
L 566.96732 71.439706 
L 567.845227 71.91996 
L 568.69594 72.454601 
L 569.998115 73.142048 
L 569.070762 73.168063 
L 568.159087 73.580783 
L 567.248823 73.996322 
L 565.906327 74.603126 
L 566.561226 73.964375 
L 566.61319 72.964375 
L 566.67228 70.964375 
z
" clip-path="url(#p1fd844376b)" style="fill: #ffffff; stroke: #ffffff; stroke-width: 3; stroke-linecap: round"/>
         <path d="M 566.086951 70.964375 
L 566.96732 71.439706 
L 567.845227 71.91996 
L 568.69594 72.454601 
L 569.998115 73.142048 
L 569.070762 73.168063 
L 568.159087 73.580783 
L 567.248823 73.996322 
L 565.906327 74.603126 
L 566.561226 73.964375 
L 566.61319 72.964375 
L 566.67228 70.964375 
z
" clip-path="url(#p1fd844376b)" style="fill: #ffffff; stroke: #1f77b4; stroke-linecap: round"/>
         <g id="patch_9">
          <path d="M 104.145851 175.095344 
L 105.145851 175.12678 
L 106.145851 175.16372 
L 107.145851 175.261467 
L 108.145851 175.293989 
L 109.145851 175.367613 
L 110.145851 175.406179 
L 111.145851 175.441592 
L 112.145851 175.499232 
L 113.145851 175.569618 
L 114.145851 175.621582 
L 115.145851 175.680672 
L 116.145851 175.768993 
L 117.145851 175.815137 
L 118.145851 175.857548 
L 119.145851 175.888041 
L 120.145851 175.914086 
L 121.145851 175.935286 
L 122.145851 175.989587 
L 123.145851 176.017525 
L 124.145851 176.047249 
L 125.145851 176.072643 
L 126.145851 176.083844 
L 127.145851 176.093968 
L 128.145851 176.093763 
L 129.145851 176.084254 
L 130.145851 176.0726 
L 131.145851 176.041571 
L 132.145851 176.030403 
L 133.145851 176.000285 
L 134.145851 175.940508 
L 135.145851 175.903317 
L 136.145851 175.864221 
L 137.145851 175.821781 
L 138.145851 175.789016 
L 139.145851 175.72159 
L 140.145851 175.682464 
L 141.145851 175.639789 
L 142.145851 175.569208 
L 143.145851 175.532818 
L 144.145851 175.474414 
L 145.145851 175.363462 
L 146.145851 175.292804 
L 147.145851 175.179864 
L 148.145851 175.134091 
L 149.145851 175.072808 
L 150.145851 175.024308 
L 151.145851 174.943486 
L 152.145851 174.824967 
L 153.145851 174.754756 
L 154.145851 174.671494 
L 155.145851 174.638352 
L 156.145851 174.587114 
L 157.145851 174.518716 
L 158.145851 174.452501 
L 159.145851 174.375584 
L 160.145851 174.348268 
L 161.145851 174.321791 
L 162.145851 174.29914 
L 163.145851 174.279609 
L 164.145851 174.253215 
L 165.145851 174.203444 
L 166.145851 174.168371 
L 167.145851 174.132505 
L 168.145851 174.117138 
L 169.145851 174.101369 
L 170.145851 174.097956 
L 171.145851 174.095538 
L 172.145851 174.096024 
L 173.145851 174.097954 
L 174.145851 174.111211 
L 175.145851 174.119601 
L 176.145851 174.141138 
L 177.145851 174.16417 
L 178.145851 174.181404 
L 179.145851 174.199866 
L 180.145851 174.220319 
L 181.145851 174.236919 
L 182.145851 174.299697 
L 183.145851 174.374963 
L 184.145851 174.407602 
L 185.145851 174.475165 
L 186.145851 174.529212 
L 187.145851 174.562917 
L 188.145851 174.653043 
L 189.145851 174.681578 
L 190.145851 174.713064 
L 191.145851 174.744075 
L 192.145851 174.798883 
L 193.145851 174.86347 
L 194.145851 174.901665 
L 195.145851 174.997599 
L 196.145851 175.046858 
L 197.145851 175.090927 
L 198.145851 175.131051 
L 199.145851 175.239418 
L 200.145851 175.281046 
L 201.145851 175.343187 
L 202.145851 175.41315 
L 203.145851 175.517654 
L 204.145851 175.554641 
L 205.145851 175.600519 
L 206.145851 175.669013 
L 207.145851 175.717759 
L 208.145851 175.795357 
L 209.145851 175.825897 
L 210.145851 175.895412 
L 211.145851 175.919385 
L 212.145851 175.948006 
L 213.145851 175.9898 
L 214.145851 176.011375 
L 215.145851 176.025323 
L 216.145851 176.052046 
L 217.145851 176.061356 
L 218.145851 176.073802 
L 219.145851 176.084857 
L 220.145851 176.090522 
L 221.145851 176.095286 
L 222.145851 176.089738 
L 223.145851 176.07645 
L 224.145851 176.068932 
L 225.145851 176.044148 
L 226.145851 176.020579 
L 227.145851 175.984398 
L 228.145851 175.958436 
L 229.145851 175.936115 
L 230.145851 175.867355 
L 231.145851 175.79282 
L 232.145851 175.69884 
L 233.145851 175.647788 
L 234.145851 175.593855 
L 235.145851 175.558604 
L 236.145851 175.452516 
L 237.145851 175.400252 
L 238.145851 175.363345 
L 239.145851 175.332314 
L 240.145851 175.271159 
L 241.145851 175.203739 
L 242.145851 175.154833 
L 243.145851 175.08964 
L 244.145851 175.051453 
L 245.145851 175.009457 
L 246.145851 174.96744 
L 247.145851 174.907923 
L 248.145851 174.794763 
L 249.145851 174.742513 
L 250.145851 174.703095 
L 251.145851 174.655993 
L 252.145851 174.599214 
L 253.145851 174.566551 
L 254.145851 174.530373 
L 255.145851 174.498282 
L 256.145851 174.464003 
L 257.145851 174.405625 
L 258.145851 174.36044 
L 259.145851 174.330816 
L 260.145851 174.28043 
L 261.145851 174.255232 
L 262.145851 174.234182 
L 263.145851 174.199214 
L 264.145851 174.174924 
L 265.145851 174.160857 
L 266.145851 174.141915 
L 267.145851 174.126253 
L 268.145851 174.113702 
L 269.145851 174.107866 
L 270.145851 174.100983 
L 271.145851 174.09581 
L 272.145851 174.097592 
L 273.145851 174.100318 
L 274.145851 174.111471 
L 275.145851 174.139707 
L 276.145851 174.183494 
L 277.145851 174.204184 
L 278.145851 174.245157 
L 279.145851 174.285232 
L 280.145851 174.304342 
L 281.145851 174.32685 
L 282.145851 174.393502 
L 283.145851 174.443211 
L 284.145851 174.516918 
L 285.145851 174.548232 
L 286.145851 174.624854 
L 287.145851 174.663152 
L 288.145851 174.737269 
L 289.145851 174.841327 
L 290.145851 174.911158 
L 291.145851 175.016391 
L 292.145851 175.071407 
L 293.145851 175.194882 
L 294.145851 175.265441 
L 295.145851 175.38128 
L 296.145851 175.431461 
L 297.145851 175.467065 
L 298.145851 175.558471 
L 299.145851 175.611979 
L 300.145851 175.699888 
L 301.145851 175.769073 
L 302.145851 175.815837 
L 303.145851 175.887881 
L 304.145851 175.938023 
L 305.145851 175.955412 
L 306.145851 175.982416 
L 307.145851 176.001843 
L 308.145851 176.021181 
L 309.145851 176.059429 
L 310.145851 176.075863 
L 311.145851 176.084232 
L 312.145851 176.088551 
L 313.145851 176.095106 
L 314.145851 176.092559 
L 315.145851 176.087101 
L 316.145851 176.070672 
L 317.145851 176.038738 
L 318.145851 176.000757 
L 319.145851 175.965953 
L 320.145851 175.902882 
L 321.145851 175.881455 
L 322.145851 175.830837 
L 323.145851 175.805879 
L 324.145851 175.750246 
L 325.145851 175.719017 
L 326.145851 175.668873 
L 327.145851 175.63638 
L 328.145851 175.555967 
L 329.145851 175.487042 
L 330.145851 175.371344 
L 331.145851 175.295866 
L 332.145851 175.180341 
L 333.145851 175.100856 
L 334.145851 174.992415 
L 335.145851 174.953048 
L 336.145851 174.85018 
L 337.145851 174.750382 
L 338.145851 174.704885 
L 339.145851 174.670562 
L 340.145851 174.618607 
L 341.145851 174.57896 
L 342.145851 174.543446 
L 343.145851 174.4758 
L 344.145851 174.436719 
L 345.145851 174.386237 
L 346.145851 174.336931 
L 347.145851 174.285862 
L 348.145851 174.241623 
L 349.145851 174.219603 
L 350.145851 174.204046 
L 351.145851 174.1616 
L 352.145851 174.146732 
L 353.145851 174.124004 
L 354.145851 174.103688 
L 355.145851 174.097891 
L 356.145851 174.095408 
L 357.145851 174.098466 
L 358.145851 174.110062 
L 359.145851 174.126982 
L 360.145851 174.158643 
L 361.145851 174.172726 
L 362.145851 174.225398 
L 363.145851 174.274487 
L 364.145851 174.329188 
L 365.145851 174.373536 
L 366.145851 174.443528 
L 367.145851 174.49391 
L 368.145851 174.547817 
L 369.145851 174.617257 
L 370.145851 174.674644 
L 371.145851 174.72481 
L 372.145851 174.801972 
L 373.145851 174.860162 
L 374.145851 174.9208 
L 375.145851 174.958001 
L 376.145851 175.023092 
L 377.145851 175.128223 
L 378.145851 175.188524 
L 379.145851 175.284846 
L 380.145851 175.316849 
L 381.145851 175.367867 
L 382.145851 175.484659 
L 383.145851 175.520105 
L 384.145851 175.575986 
L 385.145851 175.606361 
L 386.145851 175.694748 
L 387.145851 175.739512 
L 388.145851 175.8204 
L 389.145851 175.880546 
L 390.145851 175.943632 
L 391.145851 175.96658 
L 392.145851 175.98275 
L 393.145851 176.011679 
L 394.145851 176.04203 
L 395.145851 176.054605 
L 396.145851 176.079484 
L 397.145851 176.091568 
L 398.145851 176.09533 
L 399.145851 176.090894 
L 400.145851 176.078555 
L 401.145851 176.064142 
L 402.145851 176.048069 
L 403.145851 176.012547 
L 404.145851 175.992614 
L 405.145851 175.936024 
L 406.145851 175.868831 
L 407.145851 175.84146 
L 408.145851 175.807313 
L 409.145851 175.758632 
L 410.145851 175.710348 
L 411.145851 175.65127 
L 412.145851 175.555666 
L 413.145851 175.512526 
L 414.145851 175.462678 
L 415.145851 175.404143 
L 416.145851 175.356558 
L 417.145851 175.29543 
L 418.145851 175.239344 
L 419.145851 175.165174 
L 420.145851 175.047936 
L 421.145851 174.992212 
L 422.145851 174.883986 
L 423.145851 174.777836 
L 424.145851 174.670263 
L 425.145851 174.635756 
L 426.145851 174.532448 
L 427.145851 174.456724 
L 428.145851 174.417289 
L 429.145851 174.377906 
L 430.145851 174.355423 
L 431.145851 174.29961 
L 432.145851 174.273559 
L 433.145851 174.243324 
L 434.145851 174.192552 
L 435.145851 174.173901 
L 436.423858 174.152193 
" clip-path="url(#p1fd844376b)" style="fill: none; stroke: #ffffff; stroke-width: 3; stroke-linecap: round"/>
          <path d="M 104.145851 175.095344 
L 105.145851 175.12678 
L 106.145851 175.16372 
L 107.145851 175.261467 
L 108.145851 175.293989 
L 109.145851 175.367613 
L 110.145851 175.406179 
L 111.145851 175.441592 
L 112.145851 175.499232 
L 113.145851 175.569618 
L 114.145851 175.621582 
L 115.145851 175.680672 
L 116.145851 175.768993 
L 117.145851 175.815137 
L 118.145851 175.857548 
L 119.145851 175.888041 
L 120.145851 175.914086 
L 121.145851 175.935286 
L 122.145851 175.989587 
L 123.145851 176.017525 
L 124.145851 176.047249 
L 125.145851 176.072643 
L 126.145851 176.083844 
L 127.145851 176.093968 
L 128.145851 176.093763 
L 129.145851 176.084254 
L 130.145851 176.0726 
L 131.145851 176.041571 
L 132.145851 176.030403 
L 133.145851 176.000285 
L 134.145851 175.940508 
L 135.145851 175.903317 
L 136.145851 175.864221 
L 137.145851 175.821781 
L 138.145851 175.789016 
L 139.145851 175.72159 
L 140.145851 175.682464 
L 141.145851 175.639789 
L 142.145851 175.569208 
L 143.145851 175.532818 
L 144.145851 175.474414 
L 145.145851 175.363462 
L 146.145851 175.292804 
L 147.145851 175.179864 
L 148.145851 175.134091 
L 149.145851 175.072808 
L 150.145851 175.024308 
L 151.145851 174.943486 
L 152.145851 174.824967 
L 153.145851 174.754756 
L 154.145851 174.671494 
L 155.145851 174.638352 
L 156.145851 174.587114 
L 157.145851 174.518716 
L 158.145851 174.452501 
L 159.145851 174.375584 
L 160.145851 174.348268 
L 161.145851 174.321791 
L 162.145851 174.29914 
L 163.145851 174.279609 
L 164.145851 174.253215 
L 165.145851 174.203444 
L 166.145851 174.168371 
L 167.145851 174.132505 
L 168.145851 174.117138 
L 169.145851 174.101369 
L 170.145851 174.097956 
L 171.145851 174.095538 
L 172.145851 174.096024 
L 173.145851 174.097954 
L 174.145851 174.111211 
L 175.145851 174.119601 
L 176.145851 174.141138 
L 177.145851 174.16417 
L 178.145851 174.181404 
L 179.145851 174.199866 
L 180.145851 174.220319 
L 181.145851 174.236919 
L 182.145851 174.299697 
L 183.145851 174.374963 
L 184.145851 174.407602 
L 185.145851 174.475165 
L 186.145851 174.529212 
L 187.145851 174.562917 
L 188.145851 174.653043 
L 189.145851 174.681578 
L 190.145851 174.713064 
L 191.145851 174.744075 
L 192.145851 174.798883 
L 193.145851 174.86347 
L 194.145851 174.901665 
L 195.145851 174.997599 
L 196.145851 175.046858 
L 197.145851 175.090927 
L 198.145851 175.131051 
L 199.145851 175.239418 
L 200.145851 175.281046 
L 201.145851 175.343187 
L 202.145851 175.41315 
L 203.145851 175.517654 
L 204.145851 175.554641 
L 205.145851 175.600519 
L 206.145851 175.669013 
L 207.145851 175.717759 
L 208.145851 175.795357 
L 209.145851 175.825897 
L 210.145851 175.895412 
L 211.145851 175.919385 
L 212.145851 175.948006 
L 213.145851 175.9898 
L 214.145851 176.011375 
L 215.145851 176.025323 
L 216.145851 176.052046 
L 217.145851 176.061356 
L 218.145851 176.073802 
L 219.145851 176.084857 
L 220.145851 176.090522 
L 221.145851 176.095286 
L 222.145851 176.089738 
L 223.145851 176.07645 
L 224.145851 176.068932 
L 225.145851 176.044148 
L 226.145851 176.020579 
L 227.145851 175.984398 
L 228.145851 175.958436 
L 229.145851 175.936115 
L 230.145851 175.867355 
L 231.145851 175.79282 
L 232.145851 175.69884 
L 233.145851 175.647788 
L 234.145851 175.593855 
L 235.145851 175.558604 
L 236.145851 175.452516 
L 237.145851 175.400252 
L 238.145851 175.363345 
L 239.145851 175.332314 
L 240.145851 175.271159 
L 241.145851 175.203739 
L 242.145851 175.154833 
L 243.145851 175.08964 
L 244.145851 175.051453 
L 245.145851 175.009457 
L 246.145851 174.96744 
L 247.145851 174.907923 
L 248.145851 174.794763 
L 249.145851 174.742513 
L 250.145851 174.703095 
L 251.145851 174.655993 
L 252.145851 174.599214 
L 253.145851 174.566551 
L 254.145851 174.530373 
L 255.145851 174.498282 
L 256.145851 174.464003 
L 257.145851 174.405625 
L 258.145851 174.36044 
L 259.145851 174.330816 
L 260.145851 174.28043 
L 261.145851 174.255232 
L 262.145851 174.234182 
L 263.145851 174.199214 
L 264.145851 174.174924 
L 265.145851 174.160857 
L 266.145851 174.141915 
L 267.145851 174.126253 
L 268.145851 174.113702 
L 269.145851 174.107866 
L 270.145851 174.100983 
L 271.145851 174.09581 
L 272.145851 174.097592 
L 273.145851 174.100318 
L 274.145851 174.111471 
L 275.145851 174.139707 
L 276.145851 174.183494 
L 277.145851 174.204184 
L 278.145851 174.245157 
L 279.145851 174.285232 
L 280.145851 174.304342 
L 281.145851 174.32685 
L 282.145851 174.393502 
L 283.145851 174.443211 
L 284.145851 174.516918 
L 285.145851 174.548232 
L 286.145851 174.624854 
L 287.145851 174.663152 
L 288.145851 174.737269 
L 289.145851 174.841327 
L 290.145851 174.911158 
L 291.145851 175.016391 
L 292.145851 175.071407 
L 293.145851 175.194882 
L 294.145851 175.265441 
L 295.145851 175.38128 
L 296.145851 175.431461 
L 297.145851 175.467065 
L 298.145851 175.558471 
L 299.145851 175.611979 
L 300.145851 175.699888 
L 301.145851 175.769073 
L 302.145851 175.815837 
L 303.145851 175.887881 
L 304.145851 175.938023 
L 305.145851 175.955412 
L 306.145851 175.982416 
L 307.145851 176.001843 
L 308.145851 176.021181 
L 309.145851 176.059429 
L 310.145851 176.075863 
L 311.145851 176.084232 
L 312.145851 176.088551 
L 313.145851 176.095106 
L 314.145851 176.092559 
L 315.145851 176.087101 
L 316.145851 176.070672 
L 317.145851 176.038738 
L 318.145851 176.000757 
L 319.145851 175.965953 
L 320.145851 175.902882 
L 321.145851 175.881455 
L 322.145851 175.830837 
L 323.145851 175.805879 
L 324.145851 175.750246 
L 325.145851 175.719017 
L 326.145851 175.668873 
L 327.145851 175.63638 
L 328.145851 175.555967 
L 329.145851 175.487042 
L 330.145851 175.371344 
L 331.145851 175.295866 
L 332.145851 175.180341 
L 333.145851 175.100856 
L 334.145851 174.992415 
L 335.145851 174.953048 
L 336.145851 174.85018 
L 337.145851 174.750382 
L 338.145851 174.704885 
L 339.145851 174.670562 
L 340.145851 174.618607 
L 341.145851 174.57896 
L 342.145851 174.543446 
L 343.145851 174.4758 
L 344.145851 174.436719 
L 345.145851 174.386237 
L 346.145851 174.336931 
L 347.145851 174.285862 
L 348.145851 174.241623 
L 349.145851 174.219603 
L 350.145851 174.204046 
L 351.145851 174.1616 
L 352.145851 174.146732 
L 353.145851 174.124004 
L 354.145851 174.103688 
L 355.145851 174.097891 
L 356.145851 174.095408 
L 357.145851 174.098466 
L 358.145851 174.110062 
L 359.145851 174.126982 
L 360.145851 174.158643 
L 361.145851 174.172726 
L 362.145851 174.225398 
L 363.145851 174.274487 
L 364.145851 174.329188 
L 365.145851 174.373536 
L 366.145851 174.443528 
L 367.145851 174.49391 
L 368.145851 174.547817 
L 369.145851 174.617257 
L 370.145851 174.674644 
L 371.145851 174.72481 
L 372.145851 174.801972 
L 373.145851 174.860162 
L 374.145851 174.9208 
L 375.145851 174.958001 
L 376.145851 175.023092 
L 377.145851 175.128223 
L 378.145851 175.188524 
L 379.145851 175.284846 
L 380.145851 175.316849 
L 381.145851 175.367867 
L 382.145851 175.484659 
L 383.145851 175.520105 
L 384.145851 175.575986 
L 385.145851 175.606361 
L 386.145851 175.694748 
L 387.145851 175.739512 
L 388.145851 175.8204 
L 389.145851 175.880546 
L 390.145851 175.943632 
L 391.145851 175.96658 
L 392.145851 175.98275 
L 393.145851 176.011679 
L 394.145851 176.04203 
L 395.145851 176.054605 
L 396.145851 176.079484 
L 397.145851 176.091568 
L 398.145851 176.09533 
L 399.145851 176.090894 
L 400.145851 176.078555 
L 401.145851 176.064142 
L 402.145851 176.048069 
L 403.145851 176.012547 
L 404.145851 175.992614 
L 405.145851 175.936024 
L 406.145851 175.868831 
L 407.145851 175.84146 
L 408.145851 175.807313 
L 409.145851 175.758632 
L 410.145851 175.710348 
L 411.145851 175.65127 
L 412.145851 175.555666 
L 413.145851 175.512526 
L 414.145851 175.462678 
L 415.145851 175.404143 
L 416.145851 175.356558 
L 417.145851 175.29543 
L 418.145851 175.239344 
L 419.145851 175.165174 
L 420.145851 175.047936 
L 421.145851 174.992212 
L 422.145851 174.883986 
L 423.145851 174.777836 
L 424.145851 174.670263 
L 425.145851 174.635756 
L 426.145851 174.532448 
L 427.145851 174.456724 
L 428.145851 174.417289 
L 429.145851 174.377906 
L 430.145851 174.355423 
L 431.145851 174.29961 
L 432.145851 174.273559 
L 433.145851 174.243324 
L 434.145851 174.192552 
L 435.145851 174.173901 
L 436.423858 174.152193 
" clip-path="url(#p1fd844376b)" style="fill: none; stroke: #ff7f0e; stroke-linecap: round"/>
          <path d="M 432.423858 173.095344 
L 433.304226 173.570675 
L 434.182133 174.050929 
L 435.032847 174.58557 
L 436.335021 175.273017 
L 435.407668 175.299032 
L 434.495993 175.711751 
L 433.585729 176.12729 
L 432.243233 176.734095 
L 432.898132 176.095344 
L 432.950096 175.095344 
L 433.009186 173.095344 
z
" clip-path="url(#p1fd844376b)" style="fill: #ffffff; stroke: #ffffff; stroke-width: 3; stroke-linecap: round"/>
          <path d="M 432.423858 173.095344 
L 433.304226 173.570675 
L 434.182133 174.050929 
L 435.032847 174.58557 
L 436.335021 175.273017 
L 435.407668 175.299032 
L 434.495993 175.711751 
L 433.585729 176.12729 
L 432.243233 176.734095 
L 432.898132 176.095344 
L 432.950096 175.095344 
L 433.009186 173.095344 
z
" clip-path="url(#p1fd844376b)" style="fill: #ffffff; stroke: #ff7f0e; stroke-linecap: round"/>
          <path d="M 446.540794 299.600547 
" clip-path="url(#p1fd844376b)" style="fill: none; stroke-dasharray: 3.7,1.6; stroke-dashoffset: 0; stroke: #2ca02c"/>
          <path d="M 445.540794 299.600547 
L 447.540794 300.600547 
L 447.540794 298.600547 
z
" clip-path="url(#p1fd844376b)" style="fill: #2ca02c; stroke: #2ca02c; stroke-linejoin: miter"/>
          <g id="patch_10">
           <path d="M 63.290625 321.621875 
L 63.290625 10.8 
" style="fill: none; stroke: #000000; stroke-width: 0.8; stroke-linejoin: miter; stroke-linecap: square"/>
          </g>
          <g id="text_14">
           <g id="patch_11">
            <path d="M 293.904535 86.949782 
L 315.209223 86.949782 
Q 317.209223 86.949782 317.209223 84.949782 
L 317.209223 75.271657 
Q 317.209223 73.271657 315.209223 73.271657 
L 293.904535 73.271657 
Q 291.904535 73.271657 291.904535 75.271657 
L 291.904535 84.949782 
Q 291.904535 86.949782 293.904535 86.949782 
z
" style="fill: #ffffff; opacity: 0.6"/>
           </g>
           <!-- ANC -->
           <g transform="translate(293.904535 82.870095) scale(0.1 -0.1)">
            <defs>
             <path id="DejaVuSans-4e" d="M 628 4666 
L 1478 4666 
L 3547 763 
L 3547 4666 
L 4159 4666 
L 4159 0 
L 3309 0 
L 1241 3903 
L 1241 0 
L 628 0 
L 628 4666 
z
" transform="scale(0.015625)"/>
            </defs>
            <use xlink:href="#DejaVuSans-41"/>
            <use xlink:href="#DejaVuSans-4e" x="68.408203"/>
            <use xlink:href="#DejaVuSans-43" x="143.212891"/>
           </g>
          </g>
         </g>
        </g>
        <defs>
         <clipPath id="p1fd844376b">
          <rect x="63.290625" y="10.8" width="540.309375" height="310.821875"/>
         </clipPath>
        </defs>
       </g>
      </g>
     </g>
    </g>
   </g>
  </g>
 </g>
</svg>
