<?xml version="1.0" encoding="utf-8" standalone="no"?>
<!DOCTYPE svg PUBLIC "-//W3C//DTD SVG 1.1//EN"
  "http://www.w3.org/Graphics/SVG/1.1/DTD/svg11.dtd">
<svg xmlns:xlink="http://www.w3.org/1999/xlink" width="614.4pt" height="345.6pt" viewBox="0 0 614.4 345.6" xmlns="http://www.w3.org/2000/svg" version="1.1">
 <metadata>
  <rdf:RDF xmlns:dc="http://purl.org/dc/elements/1.1/" xmlns:cc="http://creativecommons.org/ns#" xmlns:rdf="http://www.w3.org/1999/02/22-rdf-syntax-ns#">
   <cc:Work>
    <dc:type rdf:resource="http://purl.org/dc/dcmitype/StillImage"/>
    <dc:date>2024-04-17T19:40:12.737223</dc:date>
    <dc:format>image/svg+xml</dc:format>
    <dc:creator>
     <cc:Agent>
      <dc:title>Matplotlib v3.7.1, https://matplotlib.org/</dc:title>
     </cc:Agent>
    </dc:creator>
   </cc:Work>
  </rdf:RDF>
 </metadata>
 <defs>
  <style type="text/css">*{stroke-linejoin: round; stroke-linecap: butt}</style>
 </defs>
 <g id="figure_1">
  <g id="patch_1">
   <path d="M 0 345.6 
L 614.4 345.6 
L 614.4 0 
L 0 0 
z
" style="fill: #ffffff"/>
  </g>
  <g id="axes_1">
   <g id="patch_2">
    <path d="M 63.290625 321.621875 
L 603.6 321.621875 
L 603.6 10.8 
L 63.290625 10.8 
z
" style="fill: #ffffff"/>
   </g>
   <path d="M 538.606343 303.185228 
L 537.606343 303.153791 
L 536.606343 303.116851 
L 535.606343 303.019105 
L 534.606343 302.986583 
L 533.606343 302.912958 
L 532.606343 302.874393 
L 531.606343 302.838979 
L 530.606343 302.78134 
L 529.606343 302.710953 
L 528.606343 302.658989 
L 527.606343 302.599899 
L 526.606343 302.511578 
L 525.606343 302.465434 
L 524.606343 302.423023 
L 523.606343 302.392531 
L 522.606343 302.366486 
L 521.606343 302.345285 
L 520.606343 302.290984 
L 519.606343 302.263047 
L 518.606343 302.233323 
L 517.606343 302.207928 
L 516.606343 302.196728 
L 515.606343 302.186604 
L 514.606343 302.186808 
L 513.606343 302.196318 
L 512.606343 302.207971 
L 511.606343 302.239001 
L 510.606343 302.250169 
L 509.606343 302.280286 
L 508.606343 302.340063 
L 507.606343 302.377255 
L 506.606343 302.416351 
L 505.606343 302.45879 
L 504.606343 302.491555 
L 503.606343 302.558982 
L 502.606343 302.598108 
L 501.606343 302.640782 
L 500.606343 302.711363 
L 499.606343 302.747754 
L 498.606343 302.806157 
L 497.606343 302.91711 
L 496.606343 302.987768 
L 495.606343 303.100708 
L 494.606343 303.146481 
L 493.606343 303.207764 
L 492.606343 303.256263 
L 491.606343 303.337086 
L 490.606343 303.455605 
L 489.606343 303.525815 
L 488.606343 303.609078 
L 487.606343 303.64222 
L 486.606343 303.693457 
L 485.606343 303.761855 
L 484.606343 303.828071 
L 483.606343 303.904988 
L 482.606343 303.932303 
L 481.606343 303.958781 
L 480.606343 303.981432 
L 479.606343 304.000963 
L 478.606343 304.027357 
L 477.606343 304.077128 
L 476.606343 304.112201 
L 475.606343 304.148066 
L 474.606343 304.163434 
L 473.606343 304.179203 
L 472.606343 304.182615 
L 471.606343 304.185033 
L 470.606343 304.184547 
L 469.606343 304.182618 
L 468.606343 304.169361 
L 467.606343 304.16097 
L 466.606343 304.139433 
L 465.606343 304.116401 
L 464.606343 304.099168 
L 463.606343 304.080705 
L 462.606343 304.060253 
L 461.606343 304.043653 
L 460.606343 303.980874 
L 459.606343 303.905609 
L 458.606343 303.87297 
L 457.606343 303.805406 
L 455.944495 303.751359 
" clip-path="url(#p722482dcc9)" style="fill: none; stroke-dasharray: 3.7,1.6; stroke-dashoffset: 0; stroke: #2ca02c"/>
   <g id="patch_3">
    <path d="M 305.595212 10.8 
L 305.595212 184.380694 
M 354.272825 10.8 
L 354.272825 184.380694 
" clip-path="url(#p722482dcc9)" style="fill: none; stroke: #ffffff; stroke-width: 3; stroke-linejoin: miter"/>
    <path d="M 305.595212 10.8 
L 305.595212 184.380694 
M 354.272825 10.8 
L 354.272825 184.380694 
" clip-path="url(#p722482dcc9)" style="fill: none; stroke: #1f77b4; stroke-linejoin: miter"/>
    <g id="PolyCollection_1">
     <path d="M 354.272825 10.8 
L 305.595212 10.8 
L 305.595212 184.380694 
L 354.272825 184.380694 
L 354.272825 184.380694 
L 354.272825 10.8 
z
" clip-path="url(#p722482dcc9)" style="fill: #1f77b4; fill-opacity: 0.5"/>
    </g>
    <g id="patch_4">
     <path d="M 149.943642 184.380694 
L 149.943642 306.015118 
L 149.943642 306.015118 
L 148.418885 307.433914 
L 146.756215 308.695066 
L 144.740117 309.956218 
L 142.295468 311.21737 
L 139.33117 312.478522 
L 135.736766 313.739674 
L 131.378315 315.000826 
L 126.093409 316.261979 
L 119.685115 317.523131 
L 112.969796 318.626639 
L 105.020867 319.730147 
L 95.611711 320.833655 
L 87.850142 321.621875 
M 162.537983 184.380694 
L 162.537983 306.015118 
L 162.537983 306.015118 
L 164.062739 307.433914 
L 165.72541 308.695066 
L 167.741507 309.956218 
L 170.186157 311.21737 
L 173.150455 312.478522 
L 176.744859 313.739674 
L 181.10331 315.000826 
L 186.388216 316.261979 
L 192.79651 317.523131 
L 199.511829 318.626639 
L 207.460758 319.730147 
L 216.869914 320.833655 
L 224.631483 321.621875 
L 224.631483 321.621875 
" clip-path="url(#p722482dcc9)" style="fill: none; stroke: #ffffff; stroke-width: 3; stroke-linejoin: miter"/>
     <path d="M 149.943642 184.380694 
L 149.943642 306.015118 
L 149.943642 306.015118 
L 148.418885 307.433914 
L 146.756215 308.695066 
L 144.740117 309.956218 
L 142.295468 311.21737 
L 139.33117 312.478522 
L 135.736766 313.739674 
L 131.378315 315.000826 
L 126.093409 316.261979 
L 119.685115 317.523131 
L 112.969796 318.626639 
L 105.020867 319.730147 
L 95.611711 320.833655 
L 87.850142 321.621875 
M 162.537983 184.380694 
L 162.537983 306.015118 
L 162.537983 306.015118 
L 164.062739 307.433914 
L 165.72541 308.695066 
L 167.741507 309.956218 
L 170.186157 311.21737 
L 173.150455 312.478522 
L 176.744859 313.739674 
L 181.10331 315.000826 
L 186.388216 316.261979 
L 192.79651 317.523131 
L 199.511829 318.626639 
L 207.460758 319.730147 
L 216.869914 320.833655 
L 224.631483 321.621875 
L 224.631483 321.621875 
" clip-path="url(#p722482dcc9)" style="fill: none; stroke: #ff7f0e; stroke-linejoin: miter"/>
     <g id="PolyCollection_2">
      <path d="M 162.537983 184.380694 
L 149.943642 184.380694 
L 149.943642 306.015118 
L 149.943642 306.015118 
L 149.790086 306.172762 
L 149.632787 306.330406 
L 149.471651 306.48805 
L 149.306586 306.645694 
L 149.137496 306.803338 
L 148.964282 306.960982 
L 148.786845 307.118626 
L 148.605082 307.27627 
L 148.418885 307.433914 
L 148.228149 307.591558 
L 148.032761 307.749202 
L 147.832609 307.906846 
L 147.627577 308.06449 
L 147.417544 308.222134 
L 147.20239 308.379778 
L 146.98199 308.537422 
L 146.756215 308.695066 
L 146.524934 308.85271 
L 146.288014 309.010354 
L 146.045316 309.167998 
L 145.796701 309.325642 
L 145.542023 309.483286 
L 145.281134 309.64093 
L 145.013884 309.798574 
L 144.740117 309.956218 
L 144.459675 310.113862 
L 144.172393 310.271506 
L 143.878107 310.42915 
L 143.576644 310.586794 
L 143.26783 310.744438 
L 142.951486 310.902082 
L 142.627428 311.059726 
L 142.295468 311.21737 
L 141.955413 311.375014 
L 141.607065 311.532658 
L 141.250224 311.690302 
L 140.884681 311.847946 
L 140.510224 312.00559 
L 140.126636 312.163234 
L 139.733694 312.320878 
L 139.33117 312.478522 
L 138.918831 312.636166 
L 138.496437 312.79381 
L 138.063744 312.951454 
L 137.620498 313.109098 
L 137.166445 313.266742 
L 136.701319 313.424386 
L 136.224852 313.58203 
L 135.736766 313.739674 
L 135.236778 313.897318 
L 134.724598 314.054962 
L 134.199928 314.212606 
L 133.662464 314.37025 
L 133.111895 314.527894 
L 132.5479 314.685538 
L 131.970152 314.843182 
L 131.378315 315.000826 
L 130.772047 315.15847 
L 130.150995 315.316114 
L 129.514799 315.473758 
L 128.863089 315.631402 
L 128.195488 315.789046 
L 127.511607 315.946691 
L 126.811049 316.104335 
L 126.093409 316.261979 
L 125.358269 316.419623 
L 124.605203 316.577267 
L 123.833774 316.734911 
L 123.043533 316.892555 
L 122.234022 317.050199 
L 121.404772 317.207843 
L 120.555301 317.365487 
L 119.685115 317.523131 
L 118.79371 317.680775 
L 117.880568 317.838419 
L 116.945159 317.996063 
L 115.986941 318.153707 
L 115.005356 318.311351 
L 113.999836 318.468995 
L 112.969796 318.626639 
L 111.914639 318.784283 
L 110.833752 318.941927 
L 109.726508 319.099571 
L 108.592264 319.257215 
L 107.430361 319.414859 
L 106.240126 319.572503 
L 105.020867 319.730147 
L 103.771876 319.887791 
L 102.492429 320.045435 
L 101.181783 320.203079 
L 99.839177 320.360723 
L 98.463832 320.518367 
L 97.054949 320.676011 
L 95.611711 320.833655 
L 94.133279 320.991299 
L 92.618797 321.148943 
L 91.067384 321.306587 
L 89.47814 321.464231 
L 87.850142 321.621875 
L 224.631483 321.621875 
L 224.631483 321.621875 
L 223.003485 321.464231 
L 221.414241 321.306587 
L 219.862828 321.148943 
L 218.348345 320.991299 
L 216.869914 320.833655 
L 215.426676 320.676011 
L 214.017793 320.518367 
L 212.642448 320.360723 
L 211.299842 320.203079 
L 209.989196 320.045435 
L 208.709749 319.887791 
L 207.460758 319.730147 
L 206.241499 319.572503 
L 205.051264 319.414859 
L 203.889361 319.257215 
L 202.755117 319.099571 
L 201.647873 318.941927 
L 200.566986 318.784283 
L 199.511829 318.626639 
L 198.481789 318.468995 
L 197.476269 318.311351 
L 196.494684 318.153707 
L 195.536466 317.996063 
L 194.601057 317.838419 
L 193.687915 317.680775 
L 192.79651 317.523131 
L 191.926324 317.365487 
L 191.076853 317.207843 
L 190.247602 317.050199 
L 189.438092 316.892555 
L 188.647851 316.734911 
L 187.876422 316.577267 
L 187.123356 316.419623 
L 186.388216 316.261979 
L 185.670575 316.104335 
L 184.970018 315.946691 
L 184.286137 315.789046 
L 183.618536 315.631402 
L 182.966826 315.473758 
L 182.33063 315.316114 
L 181.709578 315.15847 
L 181.10331 315.000826 
L 180.511473 314.843182 
L 179.933725 314.685538 
L 179.36973 314.527894 
L 178.819161 314.37025 
L 178.281697 314.212606 
L 177.757027 314.054962 
L 177.244847 313.897318 
L 176.744859 313.739674 
L 176.256773 313.58203 
L 175.780305 313.424386 
L 175.31518 313.266742 
L 174.861126 313.109098 
L 174.417881 312.951454 
L 173.985187 312.79381 
L 173.562794 312.636166 
L 173.150455 312.478522 
L 172.747931 312.320878 
L 172.354989 312.163234 
L 171.971401 312.00559 
L 171.596944 311.847946 
L 171.231401 311.690302 
L 170.874559 311.532658 
L 170.526212 311.375014 
L 170.186157 311.21737 
L 169.854197 311.059726 
L 169.530139 310.902082 
L 169.213794 310.744438 
L 168.904981 310.586794 
L 168.603518 310.42915 
L 168.309231 310.271506 
L 168.02195 310.113862 
L 167.741507 309.956218 
L 167.467741 309.798574 
L 167.20049 309.64093 
L 166.939602 309.483286 
L 166.684924 309.325642 
L 166.436308 309.167998 
L 166.193611 309.010354 
L 165.956691 308.85271 
L 165.72541 308.695066 
L 165.499635 308.537422 
L 165.279235 308.379778 
L 165.064081 308.222134 
L 164.854048 308.06449 
L 164.649016 307.906846 
L 164.448863 307.749202 
L 164.253476 307.591558 
L 164.062739 307.433914 
L 163.876543 307.27627 
L 163.694779 307.118626 
L 163.517342 306.960982 
L 163.344129 306.803338 
L 163.175039 306.645694 
L 163.009974 306.48805 
L 162.848838 306.330406 
L 162.691538 306.172762 
L 162.537983 306.015118 
L 162.537983 306.015118 
L 162.537983 184.380694 
z
" clip-path="url(#p722482dcc9)" style="fill: #ff7f0e; fill-opacity: 0.5"/>
     </g>
     <g id="patch_5">
      <path d="M 544.009437 72.964375 
L 544.009437 321.621875 
M 579.040483 72.964375 
L 579.040483 321.621875 
" clip-path="url(#p722482dcc9)" style="fill: none; stroke: #ffffff; stroke-width: 3; stroke-linejoin: miter"/>
      <path d="M 544.009437 72.964375 
L 544.009437 321.621875 
M 579.040483 72.964375 
L 579.040483 321.621875 
" clip-path="url(#p722482dcc9)" style="fill: none; stroke: #2ca02c; stroke-linejoin: miter"/>
      <g id="PolyCollection_3">
       <path d="M 579.040483 72.964375 
L 544.009437 72.964375 
L 544.009437 321.621875 
L 579.040483 321.621875 
L 579.040483 321.621875 
L 579.040483 72.964375 
z
" clip-path="url(#p722482dcc9)" style="fill: #2ca02c; fill-opacity: 0.5"/>
      </g>
      <g id="patch_6">
       <path d="M 440.917577 281.596727 
L 440.917577 285.206108 
L 444.582158 285.206108 
L 444.582158 286.832871 
L 440.917577 286.832871 
L 440.829109 309.041164 
L 439.631669 310.581659 
L 438.141626 312.122154 
L 436.45794 313.534275 
L 434.400658 314.946396 
L 432.136786 316.230142 
L 429.420518 317.513888 
L 426.161451 318.797634 
L 422.251115 320.08138 
L 417.559366 321.365126 
L 416.514018 321.621875 
M 450.541402 281.596727 
L 450.541402 285.206108 
L 446.876821 285.206108 
L 446.876821 286.832871 
L 450.541402 286.832871 
L 450.62987 309.041164 
L 451.82731 310.581659 
L 453.317353 312.122154 
L 455.001039 313.534275 
L 457.058321 314.946396 
L 459.322193 316.230142 
L 462.038461 317.513888 
L 465.297528 318.797634 
L 469.207864 320.08138 
L 473.899613 321.365126 
L 474.944961 321.621875 
L 474.944961 321.621875 
" clip-path="url(#p722482dcc9)" style="fill: none; stroke: #ffffff; stroke-width: 3; stroke-linejoin: miter"/>
       <path d="M 440.917577 281.596727 
L 440.917577 285.206108 
L 444.582158 285.206108 
L 444.582158 286.832871 
L 440.917577 286.832871 
L 440.829109 309.041164 
L 439.631669 310.581659 
L 438.141626 312.122154 
L 436.45794 313.534275 
L 434.400658 314.946396 
L 432.136786 316.230142 
L 429.420518 317.513888 
L 426.161451 318.797634 
L 422.251115 320.08138 
L 417.559366 321.365126 
L 416.514018 321.621875 
M 450.541402 281.596727 
L 450.541402 285.206108 
L 446.876821 285.206108 
L 446.876821 286.832871 
L 450.541402 286.832871 
L 450.62987 309.041164 
L 451.82731 310.581659 
L 453.317353 312.122154 
L 455.001039 313.534275 
L 457.058321 314.946396 
L 459.322193 316.230142 
L 462.038461 317.513888 
L 465.297528 318.797634 
L 469.207864 320.08138 
L 473.899613 321.365126 
L 474.944961 321.621875 
L 474.944961 321.621875 
" clip-path="url(#p722482dcc9)" style="fill: none; stroke: #d62728; stroke-linejoin: miter"/>
       <g id="PolyCollection_4">
        <path d="M 450.541402 281.596727 
L 440.917577 281.596727 
L 440.917577 285.206108 
L 444.582158 285.206108 
L 444.582158 286.832871 
L 440.917577 286.832871 
L 440.917577 308.912789 
L 440.917577 308.912789 
L 440.829109 309.041164 
L 440.739015 309.169538 
L 440.647264 309.297913 
L 440.553826 309.426288 
L 440.458671 309.554662 
L 440.361766 309.683037 
L 440.263079 309.811411 
L 440.162578 309.939786 
L 440.060229 310.068161 
L 439.955999 310.196535 
L 439.849852 310.32491 
L 439.741754 310.453284 
L 439.631669 310.581659 
L 439.519559 310.710034 
L 439.405388 310.838408 
L 439.289119 310.966783 
L 439.170711 311.095157 
L 439.050127 311.223532 
L 438.927325 311.351907 
L 438.802266 311.480281 
L 438.674908 311.608656 
L 438.545208 311.73703 
L 438.413124 311.865405 
L 438.278611 311.99378 
L 438.141626 312.122154 
L 438.002121 312.250529 
L 437.860052 312.378904 
L 437.715371 312.507278 
L 437.56803 312.635653 
L 437.41798 312.764027 
L 437.265172 312.892402 
L 437.109553 313.020777 
L 436.951074 313.149151 
L 436.789682 313.277526 
L 436.625322 313.4059 
L 436.45794 313.534275 
L 436.287481 313.66265 
L 436.113888 313.791024 
L 435.937103 313.919399 
L 435.757068 314.047773 
L 435.573723 314.176148 
L 435.387008 314.304523 
L 435.196859 314.432897 
L 435.003215 314.561272 
L 434.80601 314.689646 
L 434.60518 314.818021 
L 434.400658 314.946396 
L 434.192375 315.07477 
L 433.980263 315.203145 
L 433.764251 315.331519 
L 433.544268 315.459894 
L 433.320241 315.588269 
L 433.092094 315.716643 
L 432.859754 315.845018 
L 432.623141 315.973392 
L 432.382178 316.101767 
L 432.136786 316.230142 
L 431.886881 316.358516 
L 431.632382 316.486891 
L 431.373205 316.615265 
L 431.109262 316.74364 
L 430.840466 316.872015 
L 430.566729 317.000389 
L 430.287958 317.128764 
L 430.004063 317.257138 
L 429.714948 317.385513 
L 429.420518 317.513888 
L 429.120674 317.642262 
L 428.815318 317.770637 
L 428.504348 317.899011 
L 428.187661 318.027386 
L 427.865151 318.155761 
L 427.536712 318.284135 
L 427.202234 318.41251 
L 426.861607 318.540885 
L 426.514718 318.669259 
L 426.161451 318.797634 
L 425.801689 318.926008 
L 425.435312 319.054383 
L 425.0622 319.182758 
L 424.682228 319.311132 
L 424.29527 319.439507 
L 423.901198 319.567881 
L 423.499881 319.696256 
L 423.091186 319.824631 
L 422.674976 319.953005 
L 422.251115 320.08138 
L 421.819461 320.209754 
L 421.37987 320.338129 
L 420.932198 320.466504 
L 420.476295 320.594878 
L 420.012011 320.723253 
L 419.53919 320.851627 
L 419.057677 320.980002 
L 418.56731 321.108377 
L 418.067929 321.236751 
L 417.559366 321.365126 
L 417.041453 321.4935 
L 416.514018 321.621875 
L 474.944961 321.621875 
L 474.944961 321.621875 
L 474.417526 321.4935 
L 473.899613 321.365126 
L 473.39105 321.236751 
L 472.891668 321.108377 
L 472.401302 320.980002 
L 471.919789 320.851627 
L 471.446968 320.723253 
L 470.982683 320.594878 
L 470.526781 320.466504 
L 470.079108 320.338129 
L 469.639518 320.209754 
L 469.207864 320.08138 
L 468.784002 319.953005 
L 468.367793 319.824631 
L 467.959097 319.696256 
L 467.55778 319.567881 
L 467.163708 319.439507 
L 466.77675 319.311132 
L 466.396779 319.182758 
L 466.023666 319.054383 
L 465.65729 318.926008 
L 465.297528 318.797634 
L 464.944261 318.669259 
L 464.597371 318.540885 
L 464.256744 318.41251 
L 463.922267 318.284135 
L 463.593828 318.155761 
L 463.271318 318.027386 
L 462.954631 317.899011 
L 462.64366 317.770637 
L 462.338304 317.642262 
L 462.038461 317.513888 
L 461.744031 317.385513 
L 461.454916 317.257138 
L 461.17102 317.128764 
L 460.89225 317.000389 
L 460.618513 316.872015 
L 460.349717 316.74364 
L 460.085774 316.615265 
L 459.826596 316.486891 
L 459.572097 316.358516 
L 459.322193 316.230142 
L 459.0768 316.101767 
L 458.835838 315.973392 
L 458.599225 315.845018 
L 458.366884 315.716643 
L 458.138738 315.588269 
L 457.91471 315.459894 
L 457.694727 315.331519 
L 457.478716 315.203145 
L 457.266604 315.07477 
L 457.058321 314.946396 
L 456.853798 314.818021 
L 456.652968 314.689646 
L 456.455764 314.561272 
L 456.262119 314.432897 
L 456.071971 314.304523 
L 455.885255 314.176148 
L 455.701911 314.047773 
L 455.521876 313.919399 
L 455.345091 313.791024 
L 455.171498 313.66265 
L 455.001039 313.534275 
L 454.833657 313.4059 
L 454.669297 313.277526 
L 454.507904 313.149151 
L 454.349425 313.020777 
L 454.193807 312.892402 
L 454.040998 312.764027 
L 453.890949 312.635653 
L 453.743607 312.507278 
L 453.598926 312.378904 
L 453.456857 312.250529 
L 453.317353 312.122154 
L 453.180367 311.99378 
L 453.045855 311.865405 
L 452.91377 311.73703 
L 452.78407 311.608656 
L 452.656712 311.480281 
L 452.531653 311.351907 
L 452.408852 311.223532 
L 452.288267 311.095157 
L 452.16986 310.966783 
L 452.05359 310.838408 
L 451.93942 310.710034 
L 451.82731 310.581659 
L 451.717224 310.453284 
L 451.609126 310.32491 
L 451.50298 310.196535 
L 451.398749 310.068161 
L 451.2964 309.939786 
L 451.1959 309.811411 
L 451.097213 309.683037 
L 451.000308 309.554662 
L 450.905152 309.426288 
L 450.811715 309.297913 
L 450.719964 309.169538 
L 450.62987 309.041164 
L 450.541402 308.912789 
L 450.541402 308.912789 
L 450.541402 286.832871 
L 446.876821 286.832871 
L 446.876821 285.206108 
L 450.541402 285.206108 
L 450.541402 281.596727 
z
" clip-path="url(#p722482dcc9)" style="fill: #d62728; fill-opacity: 0.5"/>
       </g>
       <g id="matplotlib.axis_1">
        <g id="xtick_1">
         <g id="line2d_1"/>
         <g id="text_1">
          <!-- OUT -->
          <g transform="translate(145.591594 332.720312) scale(0.1 -0.1)">
           <defs>
            <path id="DejaVuSans-4f" d="M 2522 4238 
Q 1834 4238 1429 3725 
Q 1025 3213 1025 2328 
Q 1025 1447 1429 934 
Q 1834 422 2522 422 
Q 3209 422 3611 934 
Q 4013 1447 4013 2328 
Q 4013 3213 3611 3725 
Q 3209 4238 2522 4238 
z
M 2522 4750 
Q 3503 4750 4090 4092 
Q 4678 3434 4678 2328 
Q 4678 1225 4090 567 
Q 3503 -91 2522 -91 
Q 1538 -91 948 565 
Q 359 1222 359 2328 
Q 359 3434 948 4092 
Q 1538 4750 2522 4750 
z
" transform="scale(0.015625)"/>
            <path id="DejaVuSans-55" d="M 556 4666 
L 1191 4666 
L 1191 1831 
Q 1191 1081 1462 751 
Q 1734 422 2344 422 
Q 2950 422 3222 751 
Q 3494 1081 3494 1831 
L 3494 4666 
L 4128 4666 
L 4128 1753 
Q 4128 841 3676 375 
Q 3225 -91 2344 -91 
Q 1459 -91 1007 375 
Q 556 841 556 1753 
L 556 4666 
z
" transform="scale(0.015625)"/>
            <path id="DejaVuSans-54" d="M -19 4666 
L 3928 4666 
L 3928 4134 
L 2272 4134 
L 2272 0 
L 1638 0 
L 1638 4134 
L -19 4134 
L -19 4666 
z
" transform="scale(0.015625)"/>
           </defs>
           <use xlink:href="#DejaVuSans-4f"/>
           <use xlink:href="#DejaVuSans-55" x="78.710938"/>
           <use xlink:href="#DejaVuSans-54" x="151.904297"/>
          </g>
         </g>
        </g>
        <g id="xtick_2">
         <g id="line2d_2"/>
         <g id="text_2">
          <!-- SRC -->
          <g transform="translate(551.635116 332.720312) scale(0.1 -0.1)">
           <defs>
            <path id="DejaVuSans-53" d="M 3425 4513 
L 3425 3897 
Q 3066 4069 2747 4153 
Q 2428 4238 2131 4238 
Q 1616 4238 1336 4038 
Q 1056 3838 1056 3469 
Q 1056 3159 1242 3001 
Q 1428 2844 1947 2747 
L 2328 2669 
Q 3034 2534 3370 2195 
Q 3706 1856 3706 1288 
Q 3706 609 3251 259 
Q 2797 -91 1919 -91 
Q 1588 -91 1214 -16 
Q 841 59 441 206 
L 441 856 
Q 825 641 1194 531 
Q 1563 422 1919 422 
Q 2459 422 2753 634 
Q 3047 847 3047 1241 
Q 3047 1584 2836 1778 
Q 2625 1972 2144 2069 
L 1759 2144 
Q 1053 2284 737 2584 
Q 422 2884 422 3419 
Q 422 4038 858 4394 
Q 1294 4750 2059 4750 
Q 2388 4750 2728 4690 
Q 3069 4631 3425 4513 
z
" transform="scale(0.015625)"/>
            <path id="DejaVuSans-52" d="M 2841 2188 
Q 3044 2119 3236 1894 
Q 3428 1669 3622 1275 
L 4263 0 
L 3584 0 
L 2988 1197 
Q 2756 1666 2539 1819 
Q 2322 1972 1947 1972 
L 1259 1972 
L 1259 0 
L 628 0 
L 628 4666 
L 2053 4666 
Q 2853 4666 3247 4331 
Q 3641 3997 3641 3322 
Q 3641 2881 3436 2590 
Q 3231 2300 2841 2188 
z
M 1259 4147 
L 1259 2491 
L 2053 2491 
Q 2509 2491 2742 2702 
Q 2975 2913 2975 3322 
Q 2975 3731 2742 3939 
Q 2509 4147 2053 4147 
L 1259 4147 
z
" transform="scale(0.015625)"/>
            <path id="DejaVuSans-43" d="M 4122 4306 
L 4122 3641 
Q 3803 3938 3442 4084 
Q 3081 4231 2675 4231 
Q 1875 4231 1450 3742 
Q 1025 3253 1025 2328 
Q 1025 1406 1450 917 
Q 1875 428 2675 428 
Q 3081 428 3442 575 
Q 3803 722 4122 1019 
L 4122 359 
Q 3791 134 3420 21 
Q 3050 -91 2638 -91 
Q 1578 -91 968 557 
Q 359 1206 359 2328 
Q 359 3453 968 4101 
Q 1578 4750 2638 4750 
Q 3056 4750 3426 4639 
Q 3797 4528 4122 4306 
z
" transform="scale(0.015625)"/>
           </defs>
           <use xlink:href="#DejaVuSans-53"/>
           <use xlink:href="#DejaVuSans-52" x="63.476562"/>
           <use xlink:href="#DejaVuSans-43" x="127.958984"/>
          </g>
         </g>
        </g>
        <g id="xtick_3">
         <g id="line2d_3"/>
         <g id="text_3">
          <!-- TAR -->
          <g transform="translate(436.168552 332.720312) scale(0.1 -0.1)">
           <defs>
            <path id="DejaVuSans-41" d="M 2188 4044 
L 1331 1722 
L 3047 1722 
L 2188 4044 
z
M 1831 4666 
L 2547 4666 
L 4325 0 
L 3669 0 
L 3244 1197 
L 1141 1197 
L 716 0 
L 50 0 
L 1831 4666 
z
" transform="scale(0.015625)"/>
           </defs>
           <use xlink:href="#DejaVuSans-54"/>
           <use xlink:href="#DejaVuSans-41" x="53.333984"/>
           <use xlink:href="#DejaVuSans-52" x="121.742188"/>
          </g>
         </g>
        </g>
       </g>
       <g id="matplotlib.axis_2">
        <g id="ytick_1">
         <g id="line2d_4">
          <defs>
           <path id="m137c448c51" d="M 0 0 
L -3.5 0 
" style="stroke: #000000; stroke-width: 0.8"/>
          </defs>
          <g>
           <use xlink:href="#m137c448c51" x="63.290625" y="321.621875" style="stroke: #000000; stroke-width: 0.8"/>
          </g>
         </g>
         <g id="text_4">
          <!-- 0 -->
          <g transform="translate(49.928125 325.421094) scale(0.1 -0.1)">
           <defs>
            <path id="DejaVuSans-30" d="M 2034 4250 
Q 1547 4250 1301 3770 
Q 1056 3291 1056 2328 
Q 1056 1369 1301 889 
Q 1547 409 2034 409 
Q 2525 409 2770 889 
Q 3016 1369 3016 2328 
Q 3016 3291 2770 3770 
Q 2525 4250 2034 4250 
z
M 2034 4750 
Q 2819 4750 3233 4129 
Q 3647 3509 3647 2328 
Q 3647 1150 3233 529 
Q 2819 -91 2034 -91 
Q 1250 -91 836 529 
Q 422 1150 422 2328 
Q 422 3509 836 4129 
Q 1250 4750 2034 4750 
z
" transform="scale(0.015625)"/>
           </defs>
           <use xlink:href="#DejaVuSans-30"/>
          </g>
         </g>
        </g>
        <g id="ytick_2">
         <g id="line2d_5">
          <g>
           <use xlink:href="#m137c448c51" x="63.290625" y="279.258256" style="stroke: #000000; stroke-width: 0.8"/>
          </g>
         </g>
         <g id="text_5">
          <!-- 2500 -->
          <g transform="translate(30.840625 283.057474) scale(0.1 -0.1)">
           <defs>
            <path id="DejaVuSans-32" d="M 1228 531 
L 3431 531 
L 3431 0 
L 469 0 
L 469 531 
Q 828 903 1448 1529 
Q 2069 2156 2228 2338 
Q 2531 2678 2651 2914 
Q 2772 3150 2772 3378 
Q 2772 3750 2511 3984 
Q 2250 4219 1831 4219 
Q 1534 4219 1204 4116 
Q 875 4013 500 3803 
L 500 4441 
Q 881 4594 1212 4672 
Q 1544 4750 1819 4750 
Q 2544 4750 2975 4387 
Q 3406 4025 3406 3419 
Q 3406 3131 3298 2873 
Q 3191 2616 2906 2266 
Q 2828 2175 2409 1742 
Q 1991 1309 1228 531 
z
" transform="scale(0.015625)"/>
            <path id="DejaVuSans-35" d="M 691 4666 
L 3169 4666 
L 3169 4134 
L 1269 4134 
L 1269 2991 
Q 1406 3038 1543 3061 
Q 1681 3084 1819 3084 
Q 2600 3084 3056 2656 
Q 3513 2228 3513 1497 
Q 3513 744 3044 326 
Q 2575 -91 1722 -91 
Q 1428 -91 1123 -41 
Q 819 9 494 109 
L 494 744 
Q 775 591 1075 516 
Q 1375 441 1709 441 
Q 2250 441 2565 725 
Q 2881 1009 2881 1497 
Q 2881 1984 2565 2268 
Q 2250 2553 1709 2553 
Q 1456 2553 1204 2497 
Q 953 2441 691 2322 
L 691 4666 
z
" transform="scale(0.015625)"/>
           </defs>
           <use xlink:href="#DejaVuSans-32"/>
           <use xlink:href="#DejaVuSans-35" x="63.623047"/>
           <use xlink:href="#DejaVuSans-30" x="127.246094"/>
           <use xlink:href="#DejaVuSans-30" x="190.869141"/>
          </g>
         </g>
        </g>
        <g id="ytick_3">
         <g id="line2d_6">
          <g>
           <use xlink:href="#m137c448c51" x="63.290625" y="236.894636" style="stroke: #000000; stroke-width: 0.8"/>
          </g>
         </g>
         <g id="text_6">
          <!-- 5000 -->
          <g transform="translate(30.840625 240.693855) scale(0.1 -0.1)">
           <use xlink:href="#DejaVuSans-35"/>
           <use xlink:href="#DejaVuSans-30" x="63.623047"/>
           <use xlink:href="#DejaVuSans-30" x="127.246094"/>
           <use xlink:href="#DejaVuSans-30" x="190.869141"/>
          </g>
         </g>
        </g>
        <g id="ytick_4">
         <g id="line2d_7">
          <g>
           <use xlink:href="#m137c448c51" x="63.290625" y="194.531017" style="stroke: #000000; stroke-width: 0.8"/>
          </g>
         </g>
         <g id="text_7">
          <!-- 7500 -->
          <g transform="translate(30.840625 198.330236) scale(0.1 -0.1)">
           <defs>
            <path id="DejaVuSans-37" d="M 525 4666 
L 3525 4666 
L 3525 4397 
L 1831 0 
L 1172 0 
L 2766 4134 
L 525 4134 
L 525 4666 
z
" transform="scale(0.015625)"/>
           </defs>
           <use xlink:href="#DejaVuSans-37"/>
           <use xlink:href="#DejaVuSans-35" x="63.623047"/>
           <use xlink:href="#DejaVuSans-30" x="127.246094"/>
           <use xlink:href="#DejaVuSans-30" x="190.869141"/>
          </g>
         </g>
        </g>
        <g id="ytick_5">
         <g id="line2d_8">
          <g>
           <use xlink:href="#m137c448c51" x="63.290625" y="152.167398" style="stroke: #000000; stroke-width: 0.8"/>
          </g>
         </g>
         <g id="text_8">
          <!-- 10000 -->
          <g transform="translate(24.478125 155.966616) scale(0.1 -0.1)">
           <defs>
            <path id="DejaVuSans-31" d="M 794 531 
L 1825 531 
L 1825 4091 
L 703 3866 
L 703 4441 
L 1819 4666 
L 2450 4666 
L 2450 531 
L 3481 531 
L 3481 0 
L 794 0 
L 794 531 
z
" transform="scale(0.015625)"/>
           </defs>
           <use xlink:href="#DejaVuSans-31"/>
           <use xlink:href="#DejaVuSans-30" x="63.623047"/>
           <use xlink:href="#DejaVuSans-30" x="127.246094"/>
           <use xlink:href="#DejaVuSans-30" x="190.869141"/>
           <use xlink:href="#DejaVuSans-30" x="254.492188"/>
          </g>
         </g>
        </g>
        <g id="ytick_6">
         <g id="line2d_9">
          <g>
           <use xlink:href="#m137c448c51" x="63.290625" y="109.803778" style="stroke: #000000; stroke-width: 0.8"/>
          </g>
         </g>
         <g id="text_9">
          <!-- 12500 -->
          <g transform="translate(24.478125 113.602997) scale(0.1 -0.1)">
           <use xlink:href="#DejaVuSans-31"/>
           <use xlink:href="#DejaVuSans-32" x="63.623047"/>
           <use xlink:href="#DejaVuSans-35" x="127.246094"/>
           <use xlink:href="#DejaVuSans-30" x="190.869141"/>
           <use xlink:href="#DejaVuSans-30" x="254.492188"/>
          </g>
         </g>
        </g>
        <g id="ytick_7">
         <g id="line2d_10">
          <g>
           <use xlink:href="#m137c448c51" x="63.290625" y="67.440159" style="stroke: #000000; stroke-width: 0.8"/>
          </g>
         </g>
         <g id="text_10">
          <!-- 15000 -->
          <g transform="translate(24.478125 71.239378) scale(0.1 -0.1)">
           <use xlink:href="#DejaVuSans-31"/>
           <use xlink:href="#DejaVuSans-35" x="63.623047"/>
           <use xlink:href="#DejaVuSans-30" x="127.246094"/>
           <use xlink:href="#DejaVuSans-30" x="190.869141"/>
           <use xlink:href="#DejaVuSans-30" x="254.492188"/>
          </g>
         </g>
        </g>
        <g id="ytick_8">
         <g id="line2d_11">
          <g>
           <use xlink:href="#m137c448c51" x="63.290625" y="25.07654" style="stroke: #000000; stroke-width: 0.8"/>
          </g>
         </g>
         <g id="text_11">
          <!-- 17500 -->
          <g transform="translate(24.478125 28.875758) scale(0.1 -0.1)">
           <use xlink:href="#DejaVuSans-31"/>
           <use xlink:href="#DejaVuSans-37" x="63.623047"/>
           <use xlink:href="#DejaVuSans-35" x="127.246094"/>
           <use xlink:href="#DejaVuSans-30" x="190.869141"/>
           <use xlink:href="#DejaVuSans-30" x="254.492188"/>
          </g>
         </g>
        </g>
        <g id="text_12">
         <!-- time ago (generations) -->
         <g transform="translate(18.398438 223.682031) rotate(-90) scale(0.1 -0.1)">
          <defs>
           <path id="DejaVuSans-74" d="M 1172 4494 
L 1172 3500 
L 2356 3500 
L 2356 3053 
L 1172 3053 
L 1172 1153 
Q 1172 725 1289 603 
Q 1406 481 1766 481 
L 2356 481 
L 2356 0 
L 1766 0 
Q 1100 0 847 248 
Q 594 497 594 1153 
L 594 3053 
L 172 3053 
L 172 3500 
L 594 3500 
L 594 4494 
L 1172 4494 
z
" transform="scale(0.015625)"/>
           <path id="DejaVuSans-69" d="M 603 3500 
L 1178 3500 
L 1178 0 
L 603 0 
L 603 3500 
z
M 603 4863 
L 1178 4863 
L 1178 4134 
L 603 4134 
L 603 4863 
z
" transform="scale(0.015625)"/>
           <path id="DejaVuSans-6d" d="M 3328 2828 
Q 3544 3216 3844 3400 
Q 4144 3584 4550 3584 
Q 5097 3584 5394 3201 
Q 5691 2819 5691 2113 
L 5691 0 
L 5113 0 
L 5113 2094 
Q 5113 2597 4934 2840 
Q 4756 3084 4391 3084 
Q 3944 3084 3684 2787 
Q 3425 2491 3425 1978 
L 3425 0 
L 2847 0 
L 2847 2094 
Q 2847 2600 2669 2842 
Q 2491 3084 2119 3084 
Q 1678 3084 1418 2786 
Q 1159 2488 1159 1978 
L 1159 0 
L 581 0 
L 581 3500 
L 1159 3500 
L 1159 2956 
Q 1356 3278 1631 3431 
Q 1906 3584 2284 3584 
Q 2666 3584 2933 3390 
Q 3200 3197 3328 2828 
z
" transform="scale(0.015625)"/>
           <path id="DejaVuSans-65" d="M 3597 1894 
L 3597 1613 
L 953 1613 
Q 991 1019 1311 708 
Q 1631 397 2203 397 
Q 2534 397 2845 478 
Q 3156 559 3463 722 
L 3463 178 
Q 3153 47 2828 -22 
Q 2503 -91 2169 -91 
Q 1331 -91 842 396 
Q 353 884 353 1716 
Q 353 2575 817 3079 
Q 1281 3584 2069 3584 
Q 2775 3584 3186 3129 
Q 3597 2675 3597 1894 
z
M 3022 2063 
Q 3016 2534 2758 2815 
Q 2500 3097 2075 3097 
Q 1594 3097 1305 2825 
Q 1016 2553 972 2059 
L 3022 2063 
z
" transform="scale(0.015625)"/>
           <path id="DejaVuSans-20" transform="scale(0.015625)"/>
           <path id="DejaVuSans-61" d="M 2194 1759 
Q 1497 1759 1228 1600 
Q 959 1441 959 1056 
Q 959 750 1161 570 
Q 1363 391 1709 391 
Q 2188 391 2477 730 
Q 2766 1069 2766 1631 
L 2766 1759 
L 2194 1759 
z
M 3341 1997 
L 3341 0 
L 2766 0 
L 2766 531 
Q 2569 213 2275 61 
Q 1981 -91 1556 -91 
Q 1019 -91 701 211 
Q 384 513 384 1019 
Q 384 1609 779 1909 
Q 1175 2209 1959 2209 
L 2766 2209 
L 2766 2266 
Q 2766 2663 2505 2880 
Q 2244 3097 1772 3097 
Q 1472 3097 1187 3025 
Q 903 2953 641 2809 
L 641 3341 
Q 956 3463 1253 3523 
Q 1550 3584 1831 3584 
Q 2591 3584 2966 3190 
Q 3341 2797 3341 1997 
z
" transform="scale(0.015625)"/>
           <path id="DejaVuSans-67" d="M 2906 1791 
Q 2906 2416 2648 2759 
Q 2391 3103 1925 3103 
Q 1463 3103 1205 2759 
Q 947 2416 947 1791 
Q 947 1169 1205 825 
Q 1463 481 1925 481 
Q 2391 481 2648 825 
Q 2906 1169 2906 1791 
z
M 3481 434 
Q 3481 -459 3084 -895 
Q 2688 -1331 1869 -1331 
Q 1566 -1331 1297 -1286 
Q 1028 -1241 775 -1147 
L 775 -588 
Q 1028 -725 1275 -790 
Q 1522 -856 1778 -856 
Q 2344 -856 2625 -561 
Q 2906 -266 2906 331 
L 2906 616 
Q 2728 306 2450 153 
Q 2172 0 1784 0 
Q 1141 0 747 490 
Q 353 981 353 1791 
Q 353 2603 747 3093 
Q 1141 3584 1784 3584 
Q 2172 3584 2450 3431 
Q 2728 3278 2906 2969 
L 2906 3500 
L 3481 3500 
L 3481 434 
z
" transform="scale(0.015625)"/>
           <path id="DejaVuSans-6f" d="M 1959 3097 
Q 1497 3097 1228 2736 
Q 959 2375 959 1747 
Q 959 1119 1226 758 
Q 1494 397 1959 397 
Q 2419 397 2687 759 
Q 2956 1122 2956 1747 
Q 2956 2369 2687 2733 
Q 2419 3097 1959 3097 
z
M 1959 3584 
Q 2709 3584 3137 3096 
Q 3566 2609 3566 1747 
Q 3566 888 3137 398 
Q 2709 -91 1959 -91 
Q 1206 -91 779 398 
Q 353 888 353 1747 
Q 353 2609 779 3096 
Q 1206 3584 1959 3584 
z
" transform="scale(0.015625)"/>
           <path id="DejaVuSans-28" d="M 1984 4856 
Q 1566 4138 1362 3434 
Q 1159 2731 1159 2009 
Q 1159 1288 1364 580 
Q 1569 -128 1984 -844 
L 1484 -844 
Q 1016 -109 783 600 
Q 550 1309 550 2009 
Q 550 2706 781 3412 
Q 1013 4119 1484 4856 
L 1984 4856 
z
" transform="scale(0.015625)"/>
           <path id="DejaVuSans-6e" d="M 3513 2113 
L 3513 0 
L 2938 0 
L 2938 2094 
Q 2938 2591 2744 2837 
Q 2550 3084 2163 3084 
Q 1697 3084 1428 2787 
Q 1159 2491 1159 1978 
L 1159 0 
L 581 0 
L 581 3500 
L 1159 3500 
L 1159 2956 
Q 1366 3272 1645 3428 
Q 1925 3584 2291 3584 
Q 2894 3584 3203 3211 
Q 3513 2838 3513 2113 
z
" transform="scale(0.015625)"/>
           <path id="DejaVuSans-72" d="M 2631 2963 
Q 2534 3019 2420 3045 
Q 2306 3072 2169 3072 
Q 1681 3072 1420 2755 
Q 1159 2438 1159 1844 
L 1159 0 
L 581 0 
L 581 3500 
L 1159 3500 
L 1159 2956 
Q 1341 3275 1631 3429 
Q 1922 3584 2338 3584 
Q 2397 3584 2469 3576 
Q 2541 3569 2628 3553 
L 2631 2963 
z
" transform="scale(0.015625)"/>
           <path id="DejaVuSans-73" d="M 2834 3397 
L 2834 2853 
Q 2591 2978 2328 3040 
Q 2066 3103 1784 3103 
Q 1356 3103 1142 2972 
Q 928 2841 928 2578 
Q 928 2378 1081 2264 
Q 1234 2150 1697 2047 
L 1894 2003 
Q 2506 1872 2764 1633 
Q 3022 1394 3022 966 
Q 3022 478 2636 193 
Q 2250 -91 1575 -91 
Q 1294 -91 989 -36 
Q 684 19 347 128 
L 347 722 
Q 666 556 975 473 
Q 1284 391 1588 391 
Q 1994 391 2212 530 
Q 2431 669 2431 922 
Q 2431 1156 2273 1281 
Q 2116 1406 1581 1522 
L 1381 1569 
Q 847 1681 609 1914 
Q 372 2147 372 2553 
Q 372 3047 722 3315 
Q 1072 3584 1716 3584 
Q 2034 3584 2315 3537 
Q 2597 3491 2834 3397 
z
" transform="scale(0.015625)"/>
           <path id="DejaVuSans-29" d="M 513 4856 
L 1013 4856 
Q 1481 4119 1714 3412 
Q 1947 2706 1947 2009 
Q 1947 1309 1714 600 
Q 1481 -109 1013 -844 
L 513 -844 
Q 928 -128 1133 580 
Q 1338 1288 1338 2009 
Q 1338 2731 1133 3434 
Q 928 4138 513 4856 
z
" transform="scale(0.015625)"/>
          </defs>
          <use xlink:href="#DejaVuSans-74"/>
          <use xlink:href="#DejaVuSans-69" x="39.208984"/>
          <use xlink:href="#DejaVuSans-6d" x="66.992188"/>
          <use xlink:href="#DejaVuSans-65" x="164.404297"/>
          <use xlink:href="#DejaVuSans-20" x="225.927734"/>
          <use xlink:href="#DejaVuSans-61" x="257.714844"/>
          <use xlink:href="#DejaVuSans-67" x="318.994141"/>
          <use xlink:href="#DejaVuSans-6f" x="382.470703"/>
          <use xlink:href="#DejaVuSans-20" x="443.652344"/>
          <use xlink:href="#DejaVuSans-28" x="475.439453"/>
          <use xlink:href="#DejaVuSans-67" x="514.453125"/>
          <use xlink:href="#DejaVuSans-65" x="577.929688"/>
          <use xlink:href="#DejaVuSans-6e" x="639.453125"/>
          <use xlink:href="#DejaVuSans-65" x="702.832031"/>
          <use xlink:href="#DejaVuSans-72" x="764.355469"/>
          <use xlink:href="#DejaVuSans-61" x="805.46875"/>
          <use xlink:href="#DejaVuSans-74" x="866.748047"/>
          <use xlink:href="#DejaVuSans-69" x="905.957031"/>
          <use xlink:href="#DejaVuSans-6f" x="933.740234"/>
          <use xlink:href="#DejaVuSans-6e" x="994.921875"/>
          <use xlink:href="#DejaVuSans-73" x="1058.300781"/>
          <use xlink:href="#DejaVuSans-29" x="1110.400391"/>
         </g>
        </g>
       </g>
       <g id="patch_7">
        <path d="M 303.591328 184.380694 
L 302.591328 184.349257 
L 301.591328 184.312317 
L 300.591328 184.21457 
L 299.591328 184.182049 
L 298.591328 184.108424 
L 297.591328 184.069859 
L 296.591328 184.034445 
L 295.591328 183.976806 
L 294.591328 183.906419 
L 293.591328 183.854455 
L 292.591328 183.795365 
L 291.591328 183.707044 
L 290.591328 183.6609 
L 289.591328 183.618489 
L 288.591328 183.587996 
L 287.591328 183.561952 
L 286.591328 183.540751 
L 285.591328 183.48645 
L 284.591328 183.458513 
L 283.591328 183.428789 
L 282.591328 183.403394 
L 281.591328 183.392194 
L 280.591328 183.38207 
L 279.591328 183.382274 
L 278.591328 183.391784 
L 277.591328 183.403437 
L 276.591328 183.434467 
L 275.591328 183.445635 
L 274.591328 183.475752 
L 273.591328 183.535529 
L 272.591328 183.572721 
L 271.591328 183.611817 
L 270.591328 183.654256 
L 269.591328 183.687021 
L 268.591328 183.754448 
L 267.591328 183.793574 
L 266.591328 183.836248 
L 265.591328 183.906829 
L 264.591328 183.94322 
L 263.591328 184.001623 
L 262.591328 184.112576 
L 261.591328 184.183234 
L 260.591328 184.296174 
L 259.591328 184.341947 
L 258.591328 184.40323 
L 257.591328 184.451729 
L 256.591328 184.532552 
L 255.591328 184.651071 
L 254.591328 184.721281 
L 253.591328 184.804544 
L 252.591328 184.837686 
L 251.591328 184.888923 
L 250.591328 184.957321 
L 249.591328 185.023537 
L 248.591328 185.100454 
L 247.591328 185.127769 
L 246.591328 185.154247 
L 245.591328 185.176897 
L 244.591328 185.196429 
L 243.591328 185.222823 
L 242.591328 185.272594 
L 241.591328 185.307667 
L 240.591328 185.343532 
L 239.591328 185.3589 
L 238.591328 185.374669 
L 237.591328 185.378081 
L 236.591328 185.380499 
L 235.591328 185.380013 
L 234.591328 185.378084 
L 233.591328 185.364827 
L 232.591328 185.356436 
L 231.591328 185.334899 
L 230.591328 185.311867 
L 229.591328 185.294633 
L 228.591328 185.276171 
L 227.591328 185.255718 
L 226.591328 185.239119 
L 225.591328 185.17634 
L 224.591328 185.101075 
L 223.591328 185.068436 
L 222.591328 185.000872 
L 221.591328 184.946825 
L 220.591328 184.913121 
L 219.591328 184.822995 
L 218.591328 184.79446 
L 217.591328 184.762974 
L 216.591328 184.731963 
L 215.591328 184.677155 
L 214.591328 184.612567 
L 213.591328 184.574372 
L 212.591328 184.478438 
L 211.591328 184.42918 
L 210.591328 184.38511 
L 209.591328 184.344987 
L 208.591328 184.23662 
L 207.591328 184.194992 
L 206.591328 184.13285 
L 205.591328 184.062888 
L 204.591328 183.958383 
L 203.591328 183.921396 
L 202.591328 183.875519 
L 201.591328 183.807024 
L 200.591328 183.758278 
L 199.591328 183.680681 
L 198.591328 183.65014 
L 197.591328 183.580626 
L 196.591328 183.556653 
L 195.591328 183.528031 
L 194.591328 183.486238 
L 193.591328 183.464662 
L 192.591328 183.450714 
L 191.591328 183.423991 
L 190.591328 183.414682 
L 189.591328 183.402235 
L 188.591328 183.39118 
L 187.591328 183.385516 
L 186.591328 183.380752 
L 185.591328 183.386299 
L 184.591328 183.399587 
L 183.591328 183.407105 
L 182.591328 183.43189 
L 181.591328 183.455458 
L 180.591328 183.491639 
L 179.591328 183.517601 
L 178.591328 183.539922 
L 177.591328 183.608683 
L 176.591328 183.683218 
L 175.591328 183.777197 
L 174.591328 183.828249 
L 173.591328 183.882183 
L 172.591328 183.917434 
L 171.591328 184.023522 
L 170.591328 184.075786 
L 169.591328 184.112693 
L 168.591328 184.143723 
L 167.591328 184.204879 
L 165.657659 184.272299 
" clip-path="url(#p722482dcc9)" style="fill: none; stroke: #ffffff; stroke-width: 3; stroke-linecap: round"/>
        <path d="M 303.591328 184.380694 
L 302.591328 184.349257 
L 301.591328 184.312317 
L 300.591328 184.21457 
L 299.591328 184.182049 
L 298.591328 184.108424 
L 297.591328 184.069859 
L 296.591328 184.034445 
L 295.591328 183.976806 
L 294.591328 183.906419 
L 293.591328 183.854455 
L 292.591328 183.795365 
L 291.591328 183.707044 
L 290.591328 183.6609 
L 289.591328 183.618489 
L 288.591328 183.587996 
L 287.591328 183.561952 
L 286.591328 183.540751 
L 285.591328 183.48645 
L 284.591328 183.458513 
L 283.591328 183.428789 
L 282.591328 183.403394 
L 281.591328 183.392194 
L 280.591328 183.38207 
L 279.591328 183.382274 
L 278.591328 183.391784 
L 277.591328 183.403437 
L 276.591328 183.434467 
L 275.591328 183.445635 
L 274.591328 183.475752 
L 273.591328 183.535529 
L 272.591328 183.572721 
L 271.591328 183.611817 
L 270.591328 183.654256 
L 269.591328 183.687021 
L 268.591328 183.754448 
L 267.591328 183.793574 
L 266.591328 183.836248 
L 265.591328 183.906829 
L 264.591328 183.94322 
L 263.591328 184.001623 
L 262.591328 184.112576 
L 261.591328 184.183234 
L 260.591328 184.296174 
L 259.591328 184.341947 
L 258.591328 184.40323 
L 257.591328 184.451729 
L 256.591328 184.532552 
L 255.591328 184.651071 
L 254.591328 184.721281 
L 253.591328 184.804544 
L 252.591328 184.837686 
L 251.591328 184.888923 
L 250.591328 184.957321 
L 249.591328 185.023537 
L 248.591328 185.100454 
L 247.591328 185.127769 
L 246.591328 185.154247 
L 245.591328 185.176897 
L 244.591328 185.196429 
L 243.591328 185.222823 
L 242.591328 185.272594 
L 241.591328 185.307667 
L 240.591328 185.343532 
L 239.591328 185.3589 
L 238.591328 185.374669 
L 237.591328 185.378081 
L 236.591328 185.380499 
L 235.591328 185.380013 
L 234.591328 185.378084 
L 233.591328 185.364827 
L 232.591328 185.356436 
L 231.591328 185.334899 
L 230.591328 185.311867 
L 229.591328 185.294633 
L 228.591328 185.276171 
L 227.591328 185.255718 
L 226.591328 185.239119 
L 225.591328 185.17634 
L 224.591328 185.101075 
L 223.591328 185.068436 
L 222.591328 185.000872 
L 221.591328 184.946825 
L 220.591328 184.913121 
L 219.591328 184.822995 
L 218.591328 184.79446 
L 217.591328 184.762974 
L 216.591328 184.731963 
L 215.591328 184.677155 
L 214.591328 184.612567 
L 213.591328 184.574372 
L 212.591328 184.478438 
L 211.591328 184.42918 
L 210.591328 184.38511 
L 209.591328 184.344987 
L 208.591328 184.23662 
L 207.591328 184.194992 
L 206.591328 184.13285 
L 205.591328 184.062888 
L 204.591328 183.958383 
L 203.591328 183.921396 
L 202.591328 183.875519 
L 201.591328 183.807024 
L 200.591328 183.758278 
L 199.591328 183.680681 
L 198.591328 183.65014 
L 197.591328 183.580626 
L 196.591328 183.556653 
L 195.591328 183.528031 
L 194.591328 183.486238 
L 193.591328 183.464662 
L 192.591328 183.450714 
L 191.591328 183.423991 
L 190.591328 183.414682 
L 189.591328 183.402235 
L 188.591328 183.39118 
L 187.591328 183.385516 
L 186.591328 183.380752 
L 185.591328 183.386299 
L 184.591328 183.399587 
L 183.591328 183.407105 
L 182.591328 183.43189 
L 181.591328 183.455458 
L 180.591328 183.491639 
L 179.591328 183.517601 
L 178.591328 183.539922 
L 177.591328 183.608683 
L 176.591328 183.683218 
L 175.591328 183.777197 
L 174.591328 183.828249 
L 173.591328 183.882183 
L 172.591328 183.917434 
L 171.591328 184.023522 
L 170.591328 184.075786 
L 169.591328 184.112693 
L 168.591328 184.143723 
L 167.591328 184.204879 
L 165.657659 184.272299 
" clip-path="url(#p722482dcc9)" style="fill: none; stroke: #1f77b4; stroke-linecap: round"/>
        <path d="M 169.657659 186.380694 
L 168.77729 185.905363 
L 167.899384 185.425109 
L 167.04867 184.890468 
L 165.746496 184.20302 
L 166.673849 184.177006 
L 167.585523 183.764286 
L 168.495787 183.348747 
L 169.838283 182.741943 
L 169.183384 183.380694 
L 169.13142 184.380694 
L 169.07233 186.380694 
z
" clip-path="url(#p722482dcc9)" style="fill: #ffffff; stroke: #ffffff; stroke-width: 3; stroke-linecap: round"/>
        <path d="M 169.657659 186.380694 
L 168.77729 185.905363 
L 167.899384 185.425109 
L 167.04867 184.890468 
L 165.746496 184.20302 
L 166.673849 184.177006 
L 167.585523 183.764286 
L 168.495787 183.348747 
L 169.838283 182.741943 
L 169.183384 183.380694 
L 169.13142 184.380694 
L 169.07233 186.380694 
z
" clip-path="url(#p722482dcc9)" style="fill: #ffffff; stroke: #1f77b4; stroke-linecap: round"/>
        <g id="patch_8">
         <path d="M 356.273374 72.964375 
L 357.273374 72.995811 
L 358.273374 73.032752 
L 359.273374 73.130498 
L 360.273374 73.16302 
L 361.273374 73.236645 
L 362.273374 73.27521 
L 363.273374 73.310623 
L 364.273374 73.368263 
L 365.273374 73.438649 
L 366.273374 73.490614 
L 367.273374 73.549703 
L 368.273374 73.638024 
L 369.273374 73.684169 
L 370.273374 73.72658 
L 371.273374 73.757072 
L 372.273374 73.783117 
L 373.273374 73.804317 
L 374.273374 73.858618 
L 375.273374 73.886556 
L 376.273374 73.91628 
L 377.273374 73.941675 
L 378.273374 73.952875 
L 379.273374 73.962999 
L 380.273374 73.962795 
L 381.273374 73.953285 
L 382.273374 73.941631 
L 383.273374 73.910602 
L 384.273374 73.899434 
L 385.273374 73.869317 
L 386.273374 73.80954 
L 387.273374 73.772348 
L 388.273374 73.733252 
L 389.273374 73.690812 
L 390.273374 73.658047 
L 391.273374 73.590621 
L 392.273374 73.551495 
L 393.273374 73.50882 
L 394.273374 73.43824 
L 395.273374 73.401849 
L 396.273374 73.343446 
L 397.273374 73.232493 
L 398.273374 73.161835 
L 399.273374 73.048895 
L 400.273374 73.003122 
L 401.273374 72.941839 
L 402.273374 72.89334 
L 403.273374 72.812517 
L 404.273374 72.693998 
L 405.273374 72.623787 
L 406.273374 72.540525 
L 407.273374 72.507383 
L 408.273374 72.456146 
L 409.273374 72.387747 
L 410.273374 72.321532 
L 411.273374 72.244615 
L 412.273374 72.217299 
L 413.273374 72.190822 
L 414.273374 72.168171 
L 415.273374 72.14864 
L 416.273374 72.122246 
L 417.273374 72.072475 
L 418.273374 72.037402 
L 419.273374 72.001536 
L 420.273374 71.986169 
L 421.273374 71.9704 
L 422.273374 71.966987 
L 423.273374 71.96457 
L 424.273374 71.965056 
L 425.273374 71.966985 
L 426.273374 71.980242 
L 427.273374 71.988633 
L 428.273374 72.010169 
L 429.273374 72.033202 
L 430.273374 72.050435 
L 431.273374 72.068898 
L 432.273374 72.08935 
L 433.273374 72.10595 
L 434.273374 72.168729 
L 435.273374 72.243994 
L 436.273374 72.276633 
L 437.273374 72.344197 
L 438.273374 72.398244 
L 439.273374 72.431948 
L 440.273374 72.522074 
L 441.273374 72.550609 
L 442.273374 72.582095 
L 443.273374 72.613106 
L 444.273374 72.667914 
L 445.273374 72.732501 
L 446.273374 72.770697 
L 447.273374 72.866631 
L 448.273374 72.915889 
L 449.273374 72.959958 
L 450.273374 73.000082 
L 451.273374 73.108449 
L 452.273374 73.150077 
L 453.273374 73.212219 
L 454.273374 73.282181 
L 455.273374 73.386685 
L 456.273374 73.423673 
L 457.273374 73.46955 
L 458.273374 73.538045 
L 459.273374 73.586791 
L 460.273374 73.664388 
L 461.273374 73.694929 
L 462.273374 73.764443 
L 463.273374 73.788416 
L 464.273374 73.817038 
L 465.273374 73.858831 
L 466.273374 73.880407 
L 467.273374 73.894355 
L 468.273374 73.921077 
L 469.273374 73.930387 
L 470.273374 73.942834 
L 471.273374 73.953889 
L 472.273374 73.959553 
L 473.273374 73.964317 
L 474.273374 73.958769 
L 475.273374 73.945481 
L 476.273374 73.937964 
L 477.273374 73.913179 
L 478.273374 73.88961 
L 479.273374 73.85343 
L 480.273374 73.827468 
L 481.273374 73.805146 
L 482.273374 73.736386 
L 483.273374 73.661851 
L 484.273374 73.567872 
L 485.273374 73.51682 
L 486.273374 73.462886 
L 487.273374 73.427635 
L 488.273374 73.321547 
L 489.273374 73.269283 
L 490.273374 73.232376 
L 491.273374 73.201345 
L 492.273374 73.14019 
L 493.273374 73.07277 
L 494.273374 73.023864 
L 495.273374 72.958672 
L 496.273374 72.920484 
L 497.273374 72.878488 
L 498.273374 72.836471 
L 499.273374 72.776955 
L 500.273374 72.663795 
L 501.273374 72.611544 
L 502.273374 72.572126 
L 503.273374 72.525025 
L 504.273374 72.468245 
L 505.273374 72.435582 
L 506.273374 72.399404 
L 507.273374 72.367314 
L 508.273374 72.333034 
L 509.273374 72.274656 
L 510.273374 72.229471 
L 511.273374 72.199847 
L 512.273374 72.149461 
L 513.273374 72.124264 
L 514.273374 72.103213 
L 515.273374 72.068245 
L 516.273374 72.043955 
L 517.273374 72.029888 
L 518.273374 72.010946 
L 519.273374 71.995285 
L 520.273374 71.982733 
L 521.273374 71.976897 
L 522.273374 71.970015 
L 523.273374 71.964841 
L 524.273374 71.966624 
L 525.273374 71.969349 
L 526.273374 71.980503 
L 527.273374 72.008738 
L 528.273374 72.052526 
L 529.273374 72.073215 
L 530.273374 72.114188 
L 531.273374 72.154263 
L 532.273374 72.173373 
L 533.273374 72.195882 
L 534.273374 72.262533 
L 535.273374 72.312243 
L 536.273374 72.385949 
L 537.273374 72.417263 
L 538.273374 72.493885 
L 539.273374 72.532183 
L 540.88903 72.6063 
" clip-path="url(#p722482dcc9)" style="fill: none; stroke: #ffffff; stroke-width: 3; stroke-linecap: round"/>
         <path d="M 356.273374 72.964375 
L 357.273374 72.995811 
L 358.273374 73.032752 
L 359.273374 73.130498 
L 360.273374 73.16302 
L 361.273374 73.236645 
L 362.273374 73.27521 
L 363.273374 73.310623 
L 364.273374 73.368263 
L 365.273374 73.438649 
L 366.273374 73.490614 
L 367.273374 73.549703 
L 368.273374 73.638024 
L 369.273374 73.684169 
L 370.273374 73.72658 
L 371.273374 73.757072 
L 372.273374 73.783117 
L 373.273374 73.804317 
L 374.273374 73.858618 
L 375.273374 73.886556 
L 376.273374 73.91628 
L 377.273374 73.941675 
L 378.273374 73.952875 
L 379.273374 73.962999 
L 380.273374 73.962795 
L 381.273374 73.953285 
L 382.273374 73.941631 
L 383.273374 73.910602 
L 384.273374 73.899434 
L 385.273374 73.869317 
L 386.273374 73.80954 
L 387.273374 73.772348 
L 388.273374 73.733252 
L 389.273374 73.690812 
L 390.273374 73.658047 
L 391.273374 73.590621 
L 392.273374 73.551495 
L 393.273374 73.50882 
L 394.273374 73.43824 
L 395.273374 73.401849 
L 396.273374 73.343446 
L 397.273374 73.232493 
L 398.273374 73.161835 
L 399.273374 73.048895 
L 400.273374 73.003122 
L 401.273374 72.941839 
L 402.273374 72.89334 
L 403.273374 72.812517 
L 404.273374 72.693998 
L 405.273374 72.623787 
L 406.273374 72.540525 
L 407.273374 72.507383 
L 408.273374 72.456146 
L 409.273374 72.387747 
L 410.273374 72.321532 
L 411.273374 72.244615 
L 412.273374 72.217299 
L 413.273374 72.190822 
L 414.273374 72.168171 
L 415.273374 72.14864 
L 416.273374 72.122246 
L 417.273374 72.072475 
L 418.273374 72.037402 
L 419.273374 72.001536 
L 420.273374 71.986169 
L 421.273374 71.9704 
L 422.273374 71.966987 
L 423.273374 71.96457 
L 424.273374 71.965056 
L 425.273374 71.966985 
L 426.273374 71.980242 
L 427.273374 71.988633 
L 428.273374 72.010169 
L 429.273374 72.033202 
L 430.273374 72.050435 
L 431.273374 72.068898 
L 432.273374 72.08935 
L 433.273374 72.10595 
L 434.273374 72.168729 
L 435.273374 72.243994 
L 436.273374 72.276633 
L 437.273374 72.344197 
L 438.273374 72.398244 
L 439.273374 72.431948 
L 440.273374 72.522074 
L 441.273374 72.550609 
L 442.273374 72.582095 
L 443.273374 72.613106 
L 444.273374 72.667914 
L 445.273374 72.732501 
L 446.273374 72.770697 
L 447.273374 72.866631 
L 448.273374 72.915889 
L 449.273374 72.959958 
L 450.273374 73.000082 
L 451.273374 73.108449 
L 452.273374 73.150077 
L 453.273374 73.212219 
L 454.273374 73.282181 
L 455.273374 73.386685 
L 456.273374 73.423673 
L 457.273374 73.46955 
L 458.273374 73.538045 
L 459.273374 73.586791 
L 460.273374 73.664388 
L 461.273374 73.694929 
L 462.273374 73.764443 
L 463.273374 73.788416 
L 464.273374 73.817038 
L 465.273374 73.858831 
L 466.273374 73.880407 
L 467.273374 73.894355 
L 468.273374 73.921077 
L 469.273374 73.930387 
L 470.273374 73.942834 
L 471.273374 73.953889 
L 472.273374 73.959553 
L 473.273374 73.964317 
L 474.273374 73.958769 
L 475.273374 73.945481 
L 476.273374 73.937964 
L 477.273374 73.913179 
L 478.273374 73.88961 
L 479.273374 73.85343 
L 480.273374 73.827468 
L 481.273374 73.805146 
L 482.273374 73.736386 
L 483.273374 73.661851 
L 484.273374 73.567872 
L 485.273374 73.51682 
L 486.273374 73.462886 
L 487.273374 73.427635 
L 488.273374 73.321547 
L 489.273374 73.269283 
L 490.273374 73.232376 
L 491.273374 73.201345 
L 492.273374 73.14019 
L 493.273374 73.07277 
L 494.273374 73.023864 
L 495.273374 72.958672 
L 496.273374 72.920484 
L 497.273374 72.878488 
L 498.273374 72.836471 
L 499.273374 72.776955 
L 500.273374 72.663795 
L 501.273374 72.611544 
L 502.273374 72.572126 
L 503.273374 72.525025 
L 504.273374 72.468245 
L 505.273374 72.435582 
L 506.273374 72.399404 
L 507.273374 72.367314 
L 508.273374 72.333034 
L 509.273374 72.274656 
L 510.273374 72.229471 
L 511.273374 72.199847 
L 512.273374 72.149461 
L 513.273374 72.124264 
L 514.273374 72.103213 
L 515.273374 72.068245 
L 516.273374 72.043955 
L 517.273374 72.029888 
L 518.273374 72.010946 
L 519.273374 71.995285 
L 520.273374 71.982733 
L 521.273374 71.976897 
L 522.273374 71.970015 
L 523.273374 71.964841 
L 524.273374 71.966624 
L 525.273374 71.969349 
L 526.273374 71.980503 
L 527.273374 72.008738 
L 528.273374 72.052526 
L 529.273374 72.073215 
L 530.273374 72.114188 
L 531.273374 72.154263 
L 532.273374 72.173373 
L 533.273374 72.195882 
L 534.273374 72.262533 
L 535.273374 72.312243 
L 536.273374 72.385949 
L 537.273374 72.417263 
L 538.273374 72.493885 
L 539.273374 72.532183 
L 540.88903 72.6063 
" clip-path="url(#p722482dcc9)" style="fill: none; stroke: #1f77b4; stroke-linecap: round"/>
         <path d="M 536.88903 70.964375 
L 537.769399 71.439706 
L 538.647306 71.91996 
L 539.498019 72.454601 
L 540.800194 73.142048 
L 539.87284 73.168063 
L 538.961166 73.580783 
L 538.050902 73.996322 
L 536.708406 74.603126 
L 537.363305 73.964375 
L 537.415269 72.964375 
L 537.474359 70.964375 
z
" clip-path="url(#p722482dcc9)" style="fill: #ffffff; stroke: #ffffff; stroke-width: 3; stroke-linecap: round"/>
         <path d="M 536.88903 70.964375 
L 537.769399 71.439706 
L 538.647306 71.91996 
L 539.498019 72.454601 
L 540.800194 73.142048 
L 539.87284 73.168063 
L 538.961166 73.580783 
L 538.050902 73.996322 
L 536.708406 74.603126 
L 537.363305 73.964375 
L 537.415269 72.964375 
L 537.474359 70.964375 
z
" clip-path="url(#p722482dcc9)" style="fill: #ffffff; stroke: #1f77b4; stroke-linecap: round"/>
         <g id="patch_9">
          <path d="M 164.538666 281.596727 
L 165.538666 281.628164 
L 166.538666 281.665104 
L 167.538666 281.762851 
L 168.538666 281.795372 
L 169.538666 281.868997 
L 170.538666 281.907563 
L 171.538666 281.942976 
L 172.538666 282.000616 
L 173.538666 282.071002 
L 174.538666 282.122966 
L 175.538666 282.182056 
L 176.538666 282.270377 
L 177.538666 282.316521 
L 178.538666 282.358932 
L 179.538666 282.389425 
L 180.538666 282.41547 
L 181.538666 282.43667 
L 182.538666 282.490971 
L 183.538666 282.518908 
L 184.538666 282.548632 
L 185.538666 282.574027 
L 186.538666 282.585228 
L 187.538666 282.595352 
L 188.538666 282.595147 
L 189.538666 282.585637 
L 190.538666 282.573984 
L 191.538666 282.542955 
L 192.538666 282.531787 
L 193.538666 282.501669 
L 194.538666 282.441892 
L 195.538666 282.404701 
L 196.538666 282.365605 
L 197.538666 282.323165 
L 198.538666 282.2904 
L 199.538666 282.222973 
L 200.538666 282.183847 
L 201.538666 282.141173 
L 202.538666 282.070592 
L 203.538666 282.034201 
L 204.538666 281.975798 
L 205.538666 281.864846 
L 206.538666 281.794187 
L 207.538666 281.681248 
L 208.538666 281.635475 
L 209.538666 281.574191 
L 210.538666 281.525692 
L 211.538666 281.444869 
L 212.538666 281.32635 
L 213.538666 281.25614 
L 214.538666 281.172877 
L 215.538666 281.139736 
L 216.538666 281.088498 
L 217.538666 281.0201 
L 218.538666 280.953884 
L 219.538666 280.876967 
L 220.538666 280.849652 
L 221.538666 280.823174 
L 222.538666 280.800524 
L 223.538666 280.780993 
L 224.538666 280.754599 
L 225.538666 280.704828 
L 226.538666 280.669755 
L 227.538666 280.633889 
L 228.538666 280.618522 
L 229.538666 280.602752 
L 230.538666 280.59934 
L 231.538666 280.596922 
L 232.538666 280.597408 
L 233.538666 280.599338 
L 234.538666 280.612595 
L 235.538666 280.620985 
L 236.538666 280.642522 
L 237.538666 280.665554 
L 238.538666 280.682788 
L 239.538666 280.70125 
L 240.538666 280.721703 
L 241.538666 280.738303 
L 242.538666 280.801081 
L 243.538666 280.876346 
L 244.538666 280.908986 
L 245.538666 280.976549 
L 246.538666 281.030596 
L 247.538666 281.064301 
L 248.538666 281.154427 
L 249.538666 281.182961 
L 250.538666 281.214448 
L 251.538666 281.245458 
L 252.538666 281.300266 
L 253.538666 281.364854 
L 254.538666 281.403049 
L 255.538666 281.498983 
L 256.538666 281.548241 
L 257.538666 281.592311 
L 258.538666 281.632434 
L 259.538666 281.740801 
L 260.538666 281.78243 
L 261.538666 281.844571 
L 262.538666 281.914533 
L 263.538666 282.019038 
L 264.538666 282.056025 
L 265.538666 282.101903 
L 266.538666 282.170397 
L 267.538666 282.219143 
L 268.538666 282.296741 
L 269.538666 282.327281 
L 270.538666 282.396796 
L 271.538666 282.420769 
L 272.538666 282.44939 
L 273.538666 282.491183 
L 274.538666 282.512759 
L 275.538666 282.526707 
L 276.538666 282.55343 
L 277.538666 282.56274 
L 278.538666 282.575186 
L 279.538666 282.586241 
L 280.538666 282.591906 
L 281.538666 282.596669 
L 282.538666 282.591122 
L 283.538666 282.577834 
L 284.538666 282.570316 
L 285.538666 282.545531 
L 286.538666 282.521963 
L 287.538666 282.485782 
L 288.538666 282.45982 
L 289.538666 282.437499 
L 290.538666 282.368739 
L 291.538666 282.294204 
L 292.538666 282.200224 
L 293.538666 282.149172 
L 294.538666 282.095239 
L 295.538666 282.059988 
L 296.538666 281.9539 
L 297.538666 281.901636 
L 298.538666 281.864729 
L 299.538666 281.833698 
L 300.538666 281.772542 
L 301.538666 281.705122 
L 302.538666 281.656217 
L 303.538666 281.591024 
L 304.538666 281.552837 
L 305.538666 281.510841 
L 306.538666 281.468823 
L 307.538666 281.409307 
L 308.538666 281.296147 
L 309.538666 281.243896 
L 310.538666 281.204479 
L 311.538666 281.157377 
L 312.538666 281.100598 
L 313.538666 281.067935 
L 314.538666 281.031757 
L 315.538666 280.999666 
L 316.538666 280.965387 
L 317.538666 280.907009 
L 318.538666 280.861824 
L 319.538666 280.8322 
L 320.538666 280.781814 
L 321.538666 280.756616 
L 322.538666 280.735565 
L 323.538666 280.700597 
L 324.538666 280.676307 
L 325.538666 280.662241 
L 326.538666 280.643299 
L 327.538666 280.627637 
L 328.538666 280.615085 
L 329.538666 280.60925 
L 330.538666 280.602367 
L 331.538666 280.597194 
L 332.538666 280.598976 
L 333.538666 280.601702 
L 334.538666 280.612855 
L 335.538666 280.641091 
L 336.538666 280.684878 
L 337.538666 280.705567 
L 338.538666 280.746541 
L 339.538666 280.786616 
L 340.538666 280.805726 
L 341.538666 280.828234 
L 342.538666 280.894886 
L 343.538666 280.944595 
L 344.538666 281.018302 
L 345.538666 281.049616 
L 346.538666 281.126238 
L 347.538666 281.164536 
L 348.538666 281.238652 
L 349.538666 281.342711 
L 350.538666 281.412541 
L 351.538666 281.517775 
L 352.538666 281.57279 
L 353.538666 281.696265 
L 354.538666 281.766825 
L 355.538666 281.882664 
L 356.538666 281.932844 
L 357.538666 281.968449 
L 358.538666 282.059855 
L 359.538666 282.113363 
L 360.538666 282.201271 
L 361.538666 282.270456 
L 362.538666 282.317221 
L 363.538666 282.389265 
L 364.538666 282.439406 
L 365.538666 282.456796 
L 366.538666 282.4838 
L 367.538666 282.503227 
L 368.538666 282.522565 
L 369.538666 282.560813 
L 370.538666 282.577247 
L 371.538666 282.585616 
L 372.538666 282.589934 
L 373.538666 282.59649 
L 374.538666 282.593943 
L 375.538666 282.588485 
L 376.538666 282.572056 
L 377.538666 282.540122 
L 378.538666 282.502141 
L 379.538666 282.467337 
L 380.538666 282.404266 
L 381.538666 282.382839 
L 382.538666 282.332221 
L 383.538666 282.307263 
L 384.538666 282.25163 
L 385.538666 282.220401 
L 386.538666 282.170257 
L 387.538666 282.137764 
L 388.538666 282.057351 
L 389.538666 281.988426 
L 390.538666 281.872728 
L 391.538666 281.797249 
L 392.538666 281.681725 
L 393.538666 281.60224 
L 394.538666 281.493799 
L 395.538666 281.454432 
L 396.538666 281.351564 
L 397.538666 281.251766 
L 398.538666 281.206269 
L 399.538666 281.171946 
L 400.538666 281.119991 
L 401.538666 281.080344 
L 402.538666 281.044829 
L 403.538666 280.977184 
L 404.538666 280.938103 
L 405.538666 280.887621 
L 406.538666 280.838315 
L 407.538666 280.787246 
L 408.538666 280.743006 
L 409.538666 280.720987 
L 410.538666 280.70543 
L 411.538666 280.662984 
L 412.538666 280.648115 
L 413.538666 280.625388 
L 414.538666 280.605071 
L 415.538666 280.599275 
L 416.538666 280.596792 
L 417.538666 280.599849 
L 418.538666 280.611445 
L 419.538666 280.628365 
L 420.538666 280.660026 
L 421.538666 280.67411 
L 422.538666 280.726782 
L 423.538666 280.775871 
L 424.538666 280.830572 
L 425.538666 280.874919 
L 426.538666 280.944912 
L 427.538666 280.995294 
L 428.538666 281.049201 
L 429.538666 281.11864 
L 430.538666 281.176028 
L 431.538666 281.226193 
L 432.538666 281.303355 
L 433.538666 281.361545 
L 434.538666 281.422184 
L 435.538666 281.459385 
L 436.538666 281.524476 
L 437.796369 281.629606 
" clip-path="url(#p722482dcc9)" style="fill: none; stroke: #ffffff; stroke-width: 3; stroke-linecap: round"/>
          <path d="M 164.538666 281.596727 
L 165.538666 281.628164 
L 166.538666 281.665104 
L 167.538666 281.762851 
L 168.538666 281.795372 
L 169.538666 281.868997 
L 170.538666 281.907563 
L 171.538666 281.942976 
L 172.538666 282.000616 
L 173.538666 282.071002 
L 174.538666 282.122966 
L 175.538666 282.182056 
L 176.538666 282.270377 
L 177.538666 282.316521 
L 178.538666 282.358932 
L 179.538666 282.389425 
L 180.538666 282.41547 
L 181.538666 282.43667 
L 182.538666 282.490971 
L 183.538666 282.518908 
L 184.538666 282.548632 
L 185.538666 282.574027 
L 186.538666 282.585228 
L 187.538666 282.595352 
L 188.538666 282.595147 
L 189.538666 282.585637 
L 190.538666 282.573984 
L 191.538666 282.542955 
L 192.538666 282.531787 
L 193.538666 282.501669 
L 194.538666 282.441892 
L 195.538666 282.404701 
L 196.538666 282.365605 
L 197.538666 282.323165 
L 198.538666 282.2904 
L 199.538666 282.222973 
L 200.538666 282.183847 
L 201.538666 282.141173 
L 202.538666 282.070592 
L 203.538666 282.034201 
L 204.538666 281.975798 
L 205.538666 281.864846 
L 206.538666 281.794187 
L 207.538666 281.681248 
L 208.538666 281.635475 
L 209.538666 281.574191 
L 210.538666 281.525692 
L 211.538666 281.444869 
L 212.538666 281.32635 
L 213.538666 281.25614 
L 214.538666 281.172877 
L 215.538666 281.139736 
L 216.538666 281.088498 
L 217.538666 281.0201 
L 218.538666 280.953884 
L 219.538666 280.876967 
L 220.538666 280.849652 
L 221.538666 280.823174 
L 222.538666 280.800524 
L 223.538666 280.780993 
L 224.538666 280.754599 
L 225.538666 280.704828 
L 226.538666 280.669755 
L 227.538666 280.633889 
L 228.538666 280.618522 
L 229.538666 280.602752 
L 230.538666 280.59934 
L 231.538666 280.596922 
L 232.538666 280.597408 
L 233.538666 280.599338 
L 234.538666 280.612595 
L 235.538666 280.620985 
L 236.538666 280.642522 
L 237.538666 280.665554 
L 238.538666 280.682788 
L 239.538666 280.70125 
L 240.538666 280.721703 
L 241.538666 280.738303 
L 242.538666 280.801081 
L 243.538666 280.876346 
L 244.538666 280.908986 
L 245.538666 280.976549 
L 246.538666 281.030596 
L 247.538666 281.064301 
L 248.538666 281.154427 
L 249.538666 281.182961 
L 250.538666 281.214448 
L 251.538666 281.245458 
L 252.538666 281.300266 
L 253.538666 281.364854 
L 254.538666 281.403049 
L 255.538666 281.498983 
L 256.538666 281.548241 
L 257.538666 281.592311 
L 258.538666 281.632434 
L 259.538666 281.740801 
L 260.538666 281.78243 
L 261.538666 281.844571 
L 262.538666 281.914533 
L 263.538666 282.019038 
L 264.538666 282.056025 
L 265.538666 282.101903 
L 266.538666 282.170397 
L 267.538666 282.219143 
L 268.538666 282.296741 
L 269.538666 282.327281 
L 270.538666 282.396796 
L 271.538666 282.420769 
L 272.538666 282.44939 
L 273.538666 282.491183 
L 274.538666 282.512759 
L 275.538666 282.526707 
L 276.538666 282.55343 
L 277.538666 282.56274 
L 278.538666 282.575186 
L 279.538666 282.586241 
L 280.538666 282.591906 
L 281.538666 282.596669 
L 282.538666 282.591122 
L 283.538666 282.577834 
L 284.538666 282.570316 
L 285.538666 282.545531 
L 286.538666 282.521963 
L 287.538666 282.485782 
L 288.538666 282.45982 
L 289.538666 282.437499 
L 290.538666 282.368739 
L 291.538666 282.294204 
L 292.538666 282.200224 
L 293.538666 282.149172 
L 294.538666 282.095239 
L 295.538666 282.059988 
L 296.538666 281.9539 
L 297.538666 281.901636 
L 298.538666 281.864729 
L 299.538666 281.833698 
L 300.538666 281.772542 
L 301.538666 281.705122 
L 302.538666 281.656217 
L 303.538666 281.591024 
L 304.538666 281.552837 
L 305.538666 281.510841 
L 306.538666 281.468823 
L 307.538666 281.409307 
L 308.538666 281.296147 
L 309.538666 281.243896 
L 310.538666 281.204479 
L 311.538666 281.157377 
L 312.538666 281.100598 
L 313.538666 281.067935 
L 314.538666 281.031757 
L 315.538666 280.999666 
L 316.538666 280.965387 
L 317.538666 280.907009 
L 318.538666 280.861824 
L 319.538666 280.8322 
L 320.538666 280.781814 
L 321.538666 280.756616 
L 322.538666 280.735565 
L 323.538666 280.700597 
L 324.538666 280.676307 
L 325.538666 280.662241 
L 326.538666 280.643299 
L 327.538666 280.627637 
L 328.538666 280.615085 
L 329.538666 280.60925 
L 330.538666 280.602367 
L 331.538666 280.597194 
L 332.538666 280.598976 
L 333.538666 280.601702 
L 334.538666 280.612855 
L 335.538666 280.641091 
L 336.538666 280.684878 
L 337.538666 280.705567 
L 338.538666 280.746541 
L 339.538666 280.786616 
L 340.538666 280.805726 
L 341.538666 280.828234 
L 342.538666 280.894886 
L 343.538666 280.944595 
L 344.538666 281.018302 
L 345.538666 281.049616 
L 346.538666 281.126238 
L 347.538666 281.164536 
L 348.538666 281.238652 
L 349.538666 281.342711 
L 350.538666 281.412541 
L 351.538666 281.517775 
L 352.538666 281.57279 
L 353.538666 281.696265 
L 354.538666 281.766825 
L 355.538666 281.882664 
L 356.538666 281.932844 
L 357.538666 281.968449 
L 358.538666 282.059855 
L 359.538666 282.113363 
L 360.538666 282.201271 
L 361.538666 282.270456 
L 362.538666 282.317221 
L 363.538666 282.389265 
L 364.538666 282.439406 
L 365.538666 282.456796 
L 366.538666 282.4838 
L 367.538666 282.503227 
L 368.538666 282.522565 
L 369.538666 282.560813 
L 370.538666 282.577247 
L 371.538666 282.585616 
L 372.538666 282.589934 
L 373.538666 282.59649 
L 374.538666 282.593943 
L 375.538666 282.588485 
L 376.538666 282.572056 
L 377.538666 282.540122 
L 378.538666 282.502141 
L 379.538666 282.467337 
L 380.538666 282.404266 
L 381.538666 282.382839 
L 382.538666 282.332221 
L 383.538666 282.307263 
L 384.538666 282.25163 
L 385.538666 282.220401 
L 386.538666 282.170257 
L 387.538666 282.137764 
L 388.538666 282.057351 
L 389.538666 281.988426 
L 390.538666 281.872728 
L 391.538666 281.797249 
L 392.538666 281.681725 
L 393.538666 281.60224 
L 394.538666 281.493799 
L 395.538666 281.454432 
L 396.538666 281.351564 
L 397.538666 281.251766 
L 398.538666 281.206269 
L 399.538666 281.171946 
L 400.538666 281.119991 
L 401.538666 281.080344 
L 402.538666 281.044829 
L 403.538666 280.977184 
L 404.538666 280.938103 
L 405.538666 280.887621 
L 406.538666 280.838315 
L 407.538666 280.787246 
L 408.538666 280.743006 
L 409.538666 280.720987 
L 410.538666 280.70543 
L 411.538666 280.662984 
L 412.538666 280.648115 
L 413.538666 280.625388 
L 414.538666 280.605071 
L 415.538666 280.599275 
L 416.538666 280.596792 
L 417.538666 280.599849 
L 418.538666 280.611445 
L 419.538666 280.628365 
L 420.538666 280.660026 
L 421.538666 280.67411 
L 422.538666 280.726782 
L 423.538666 280.775871 
L 424.538666 280.830572 
L 425.538666 280.874919 
L 426.538666 280.944912 
L 427.538666 280.995294 
L 428.538666 281.049201 
L 429.538666 281.11864 
L 430.538666 281.176028 
L 431.538666 281.226193 
L 432.538666 281.303355 
L 433.538666 281.361545 
L 434.538666 281.422184 
L 435.538666 281.459385 
L 436.538666 281.524476 
L 437.796369 281.629606 
" clip-path="url(#p722482dcc9)" style="fill: none; stroke: #ff7f0e; stroke-linecap: round"/>
          <path d="M 433.796369 279.596727 
L 434.676738 280.072059 
L 435.554645 280.552313 
L 436.405358 281.086953 
L 437.707533 281.774401 
L 436.78018 281.800416 
L 435.868505 282.213135 
L 434.958241 282.628674 
L 433.615745 283.235479 
L 434.270644 282.596727 
L 434.322608 281.596727 
L 434.381698 279.596727 
z
" clip-path="url(#p722482dcc9)" style="fill: #ffffff; stroke: #ffffff; stroke-width: 3; stroke-linecap: round"/>
          <path d="M 433.796369 279.596727 
L 434.676738 280.072059 
L 435.554645 280.552313 
L 436.405358 281.086953 
L 437.707533 281.774401 
L 436.78018 281.800416 
L 435.868505 282.213135 
L 434.958241 282.628674 
L 433.615745 283.235479 
L 434.270644 282.596727 
L 434.322608 281.596727 
L 434.381698 279.596727 
z
" clip-path="url(#p722482dcc9)" style="fill: #ffffff; stroke: #ff7f0e; stroke-linecap: round"/>
          <path d="M 455.944495 303.185228 
" clip-path="url(#p722482dcc9)" style="fill: none; stroke-dasharray: 3.7,1.6; stroke-dashoffset: 0; stroke: #2ca02c"/>
          <path d="M 454.944495 303.185228 
L 456.944495 304.185228 
L 456.944495 302.185228 
z
" clip-path="url(#p722482dcc9)" style="fill: #2ca02c; stroke: #2ca02c; stroke-linejoin: miter"/>
          <g id="patch_10">
           <path d="M 63.290625 321.621875 
L 63.290625 10.8 
" style="fill: none; stroke: #000000; stroke-width: 0.8; stroke-linejoin: miter; stroke-linecap: square"/>
          </g>
          <g id="text_13">
           <g id="patch_11">
            <path d="M 319.281675 104.429409 
L 340.586362 104.429409 
Q 342.586362 104.429409 342.586362 102.429409 
L 342.586362 92.751284 
Q 342.586362 90.751284 340.586362 90.751284 
L 319.281675 90.751284 
Q 317.281675 90.751284 317.281675 92.751284 
L 317.281675 102.429409 
Q 317.281675 104.429409 319.281675 104.429409 
z
" style="fill: #ffffff; opacity: 0.6"/>
           </g>
           <!-- ANC -->
           <g transform="translate(319.281675 100.349722) scale(0.1 -0.1)">
            <defs>
             <path id="DejaVuSans-4e" d="M 628 4666 
L 1478 4666 
L 3547 763 
L 3547 4666 
L 4159 4666 
L 4159 0 
L 3309 0 
L 1241 3903 
L 1241 0 
L 628 0 
L 628 4666 
z
" transform="scale(0.015625)"/>
            </defs>
            <use xlink:href="#DejaVuSans-41"/>
            <use xlink:href="#DejaVuSans-4e" x="68.408203"/>
            <use xlink:href="#DejaVuSans-43" x="143.212891"/>
           </g>
          </g>
         </g>
        </g>
        <defs>
         <clipPath id="p722482dcc9">
          <rect x="63.290625" y="10.8" width="540.309375" height="310.821875"/>
         </clipPath>
        </defs>
       </g>
      </g>
     </g>
    </g>
   </g>
  </g>
 </g>
</svg>
