<?xml version="1.0" encoding="utf-8" standalone="no"?>
<!DOCTYPE svg PUBLIC "-//W3C//DTD SVG 1.1//EN"
  "http://www.w3.org/Graphics/SVG/1.1/DTD/svg11.dtd">
<svg xmlns:xlink="http://www.w3.org/1999/xlink" width="614.4pt" height="345.6pt" viewBox="0 0 614.4 345.6" xmlns="http://www.w3.org/2000/svg" version="1.1">
 <metadata>
  <rdf:RDF xmlns:dc="http://purl.org/dc/elements/1.1/" xmlns:cc="http://creativecommons.org/ns#" xmlns:rdf="http://www.w3.org/1999/02/22-rdf-syntax-ns#">
   <cc:Work>
    <dc:type rdf:resource="http://purl.org/dc/dcmitype/StillImage"/>
    <dc:date>2024-04-17T19:40:19.472175</dc:date>
    <dc:format>image/svg+xml</dc:format>
    <dc:creator>
     <cc:Agent>
      <dc:title>Matplotlib v3.7.1, https://matplotlib.org/</dc:title>
     </cc:Agent>
    </dc:creator>
   </cc:Work>
  </rdf:RDF>
 </metadata>
 <defs>
  <style type="text/css">*{stroke-linejoin: round; stroke-linecap: butt}</style>
 </defs>
 <g id="figure_1">
  <g id="patch_1">
   <path d="M 0 345.6 
L 614.4 345.6 
L 614.4 0 
L 0 0 
z
" style="fill: #ffffff"/>
  </g>
  <g id="axes_1">
   <g id="patch_2">
    <path d="M 63.290625 321.621875 
L 603.6 321.621875 
L 603.6 10.8 
L 63.290625 10.8 
z
" style="fill: #ffffff"/>
   </g>
   <path d="M 558.345838 302.516445 
L 557.345838 302.485008 
L 556.345838 302.448068 
L 555.345838 302.350321 
L 554.345838 302.3178 
L 553.345838 302.244175 
L 552.345838 302.20561 
L 551.345838 302.170196 
L 550.345838 302.112556 
L 549.345838 302.04217 
L 548.345838 301.990206 
L 547.345838 301.931116 
L 546.345838 301.842795 
L 545.345838 301.796651 
L 544.345838 301.75424 
L 543.345838 301.723747 
L 542.345838 301.697702 
L 541.345838 301.676502 
L 540.345838 301.622201 
L 539.345838 301.594264 
L 538.345838 301.56454 
L 537.345838 301.539145 
L 536.345838 301.527945 
L 535.345838 301.517821 
L 534.345838 301.518025 
L 533.345838 301.527535 
L 532.345838 301.539188 
L 531.345838 301.570218 
L 530.345838 301.581386 
L 529.345838 301.611503 
L 528.345838 301.67128 
L 527.345838 301.708472 
L 526.345838 301.747568 
L 525.345838 301.790007 
L 524.345838 301.822772 
L 523.345838 301.890199 
L 522.345838 301.929325 
L 521.345838 301.971999 
L 520.345838 302.04258 
L 519.345838 302.078971 
L 518.345838 302.137374 
L 517.345838 302.248327 
L 516.345838 302.318985 
L 515.345838 302.431925 
L 514.345838 302.477698 
L 513.345838 302.538981 
L 512.345838 302.58748 
L 511.345838 302.668303 
L 510.345838 302.786822 
L 509.345838 302.857032 
L 508.345838 302.940295 
L 507.345838 302.973437 
L 506.345838 303.024674 
L 505.345838 303.093072 
L 504.345838 303.159288 
L 503.345838 303.236205 
L 502.345838 303.26352 
L 501.345838 303.289998 
L 500.345838 303.312648 
L 499.345838 303.33218 
L 498.345838 303.358574 
L 497.345838 303.408345 
L 496.345838 303.443418 
L 495.345838 303.479283 
L 494.345838 303.494651 
L 493.345838 303.51042 
L 492.345838 303.513832 
L 491.345838 303.51625 
L 490.345838 303.515764 
L 489.345838 303.513835 
L 488.345838 303.500578 
L 487.345838 303.492187 
L 486.345838 303.47065 
L 485.345838 303.447618 
L 484.345838 303.430384 
L 483.345838 303.411922 
L 482.345838 303.391469 
L 481.345838 303.37487 
L 480.345838 303.312091 
L 479.345838 303.236826 
L 478.345838 303.204187 
L 477.345838 303.136623 
L 476.345838 303.082576 
L 475.345838 303.048872 
L 474.345838 302.958746 
L 473.345838 302.930211 
L 472.345838 302.898725 
L 471.345838 302.867714 
L 470.345838 302.812906 
L 469.345838 302.748318 
L 468.345838 302.710123 
L 467.345838 302.614189 
L 466.345838 302.564931 
L 465.345838 302.520861 
L 464.345838 302.480738 
L 463.345838 302.372371 
L 462.345838 302.330743 
L 461.345838 302.268601 
L 460.345838 302.198639 
L 459.345838 302.094134 
L 458.345838 302.057147 
L 457.345838 302.01127 
L 456.345838 301.942775 
L 455.345838 301.894029 
L 454.345838 301.816432 
L 453.345838 301.785891 
L 452.345838 301.716376 
L 451.319751 301.692404 
" clip-path="url(#p74a1592740)" style="fill: none; stroke-dasharray: 3.7,1.6; stroke-dashoffset: 0; stroke: #2ca02c"/>
   <g id="patch_3">
    <path d="M 295.934609 10.8 
L 295.934609 171.86921 
M 342.681104 10.8 
L 342.681104 171.86921 
" clip-path="url(#p74a1592740)" style="fill: none; stroke: #ffffff; stroke-width: 3; stroke-linejoin: miter"/>
    <path d="M 295.934609 10.8 
L 295.934609 171.86921 
M 342.681104 10.8 
L 342.681104 171.86921 
" clip-path="url(#p74a1592740)" style="fill: none; stroke: #1f77b4; stroke-linejoin: miter"/>
    <g id="PolyCollection_1">
     <path d="M 342.681104 10.8 
L 295.934609 10.8 
L 295.934609 171.86921 
L 342.681104 171.86921 
L 342.681104 171.86921 
L 342.681104 10.8 
z
" clip-path="url(#p74a1592740)" style="fill: #1f77b4; fill-opacity: 0.5"/>
    </g>
    <g id="patch_4">
     <path d="M 117.985436 171.86921 
L 117.985436 317.631253 
L 117.985436 317.631253 
L 114.493392 318.437439 
L 110.006479 319.243625 
L 104.241266 320.049812 
L 96.83357 320.855998 
L 87.850142 321.621875 
M 142.500002 171.86921 
L 142.500002 317.631253 
L 142.500002 317.631253 
L 145.992046 318.437439 
L 150.478958 319.243625 
L 156.244171 320.049812 
L 163.651867 320.855998 
L 172.635295 321.621875 
L 172.635295 321.621875 
" clip-path="url(#p74a1592740)" style="fill: none; stroke: #ffffff; stroke-width: 3; stroke-linejoin: miter"/>
     <path d="M 117.985436 171.86921 
L 117.985436 317.631253 
L 117.985436 317.631253 
L 114.493392 318.437439 
L 110.006479 319.243625 
L 104.241266 320.049812 
L 96.83357 320.855998 
L 87.850142 321.621875 
M 142.500002 171.86921 
L 142.500002 317.631253 
L 142.500002 317.631253 
L 145.992046 318.437439 
L 150.478958 319.243625 
L 156.244171 320.049812 
L 163.651867 320.855998 
L 172.635295 321.621875 
L 172.635295 321.621875 
" clip-path="url(#p74a1592740)" style="fill: none; stroke: #ff7f0e; stroke-linejoin: miter"/>
     <g id="PolyCollection_2">
      <path d="M 142.500002 171.86921 
L 117.985436 171.86921 
L 117.985436 317.631253 
L 117.985436 317.631253 
L 117.830838 317.671562 
L 117.67429 317.711871 
L 117.515768 317.752181 
L 117.355246 317.79249 
L 117.192699 317.832799 
L 117.028103 317.873109 
L 116.86143 317.913418 
L 116.692655 317.953727 
L 116.521752 317.994037 
L 116.348693 318.034346 
L 116.173451 318.074655 
L 115.995999 318.114965 
L 115.816309 318.155274 
L 115.634352 318.195583 
L 115.4501 318.235892 
L 115.263525 318.276202 
L 115.074596 318.316511 
L 114.883284 318.35682 
L 114.68956 318.39713 
L 114.493392 318.437439 
L 114.294749 318.477748 
L 114.093602 318.518058 
L 113.889917 318.558367 
L 113.683663 318.598676 
L 113.474808 318.638986 
L 113.263319 318.679295 
L 113.049162 318.719604 
L 112.832304 318.759914 
L 112.61271 318.800223 
L 112.390348 318.840532 
L 112.16518 318.880842 
L 111.937173 318.921151 
L 111.70629 318.96146 
L 111.472494 319.001769 
L 111.23575 319.042079 
L 110.99602 319.082388 
L 110.753266 319.122697 
L 110.507451 319.163007 
L 110.258535 319.203316 
L 110.006479 319.243625 
L 109.751245 319.283935 
L 109.492791 319.324244 
L 109.231078 319.364553 
L 108.966063 319.404863 
L 108.697706 319.445172 
L 108.425964 319.485481 
L 108.150795 319.525791 
L 107.872155 319.5661 
L 107.590001 319.606409 
L 107.304288 319.646719 
L 107.014971 319.687028 
L 106.722006 319.727337 
L 106.425345 319.767646 
L 106.124942 319.807956 
L 105.820751 319.848265 
L 105.512723 319.888574 
L 105.20081 319.928884 
L 104.884962 319.969193 
L 104.565131 320.009502 
L 104.241266 320.049812 
L 103.913317 320.090121 
L 103.581231 320.13043 
L 103.244956 320.17074 
L 102.90444 320.211049 
L 102.559629 320.251358 
L 102.21047 320.291668 
L 101.856906 320.331977 
L 101.498883 320.372286 
L 101.136344 320.412596 
L 100.769233 320.452905 
L 100.397491 320.493214 
L 100.021061 320.533523 
L 99.639883 320.573833 
L 99.253897 320.614142 
L 98.863043 320.654451 
L 98.467259 320.694761 
L 98.066483 320.73507 
L 97.660652 320.775379 
L 97.249703 320.815689 
L 96.83357 320.855998 
L 96.412189 320.896307 
L 95.985493 320.936617 
L 95.553416 320.976926 
L 95.115888 321.017235 
L 94.672842 321.057545 
L 94.224209 321.097854 
L 93.769916 321.138163 
L 93.309894 321.178473 
L 92.84407 321.218782 
L 92.37237 321.259091 
L 91.894721 321.2994 
L 91.411047 321.33971 
L 90.921273 321.380019 
L 90.425322 321.420328 
L 89.923115 321.460638 
L 89.414574 321.500947 
L 88.899619 321.541256 
L 88.378169 321.581566 
L 87.850142 321.621875 
L 172.635295 321.621875 
L 172.635295 321.621875 
L 172.107268 321.581566 
L 171.585818 321.541256 
L 171.070863 321.500947 
L 170.562322 321.460638 
L 170.060116 321.420328 
L 169.564164 321.380019 
L 169.07439 321.33971 
L 168.590717 321.2994 
L 168.113067 321.259091 
L 167.641368 321.218782 
L 167.175543 321.178473 
L 166.715521 321.138163 
L 166.261229 321.097854 
L 165.812595 321.057545 
L 165.369549 321.017235 
L 164.932022 320.976926 
L 164.499944 320.936617 
L 164.073248 320.896307 
L 163.651867 320.855998 
L 163.235735 320.815689 
L 162.824785 320.775379 
L 162.418954 320.73507 
L 162.018179 320.694761 
L 161.622395 320.654451 
L 161.231541 320.614142 
L 160.845555 320.573833 
L 160.464377 320.533523 
L 160.087946 320.493214 
L 159.716205 320.452905 
L 159.349093 320.412596 
L 158.986555 320.372286 
L 158.628532 320.331977 
L 158.274968 320.291668 
L 157.925808 320.251358 
L 157.580997 320.211049 
L 157.240481 320.17074 
L 156.904207 320.13043 
L 156.572121 320.090121 
L 156.244171 320.049812 
L 155.920306 320.009502 
L 155.600475 319.969193 
L 155.284628 319.928884 
L 154.972715 319.888574 
L 154.664687 319.848265 
L 154.360495 319.807956 
L 154.060093 319.767646 
L 153.763432 319.727337 
L 153.470466 319.687028 
L 153.18115 319.646719 
L 152.895437 319.606409 
L 152.613282 319.5661 
L 152.334642 319.525791 
L 152.059473 319.485481 
L 151.787731 319.445172 
L 151.519374 319.404863 
L 151.25436 319.364553 
L 150.992646 319.324244 
L 150.734193 319.283935 
L 150.478958 319.243625 
L 150.226903 319.203316 
L 149.977987 319.163007 
L 149.732171 319.122697 
L 149.489417 319.082388 
L 149.249687 319.042079 
L 149.012943 319.001769 
L 148.779148 318.96146 
L 148.548265 318.921151 
L 148.320257 318.880842 
L 148.09509 318.840532 
L 147.872727 318.800223 
L 147.653134 318.759914 
L 147.436276 318.719604 
L 147.222119 318.679295 
L 147.01063 318.638986 
L 146.801774 318.598676 
L 146.595521 318.558367 
L 146.391836 318.518058 
L 146.190688 318.477748 
L 145.992046 318.437439 
L 145.795878 318.39713 
L 145.602153 318.35682 
L 145.410842 318.316511 
L 145.221913 318.276202 
L 145.035337 318.235892 
L 144.851086 318.195583 
L 144.669129 318.155274 
L 144.489439 318.114965 
L 144.311987 318.074655 
L 144.136745 318.034346 
L 143.963686 317.994037 
L 143.792782 317.953727 
L 143.624007 317.913418 
L 143.457335 317.873109 
L 143.292738 317.832799 
L 143.130192 317.79249 
L 142.96967 317.752181 
L 142.811147 317.711871 
L 142.6546 317.671562 
L 142.500002 317.631253 
L 142.500002 317.631253 
L 142.500002 171.86921 
z
" clip-path="url(#p74a1592740)" style="fill: #ff7f0e; fill-opacity: 0.5"/>
     </g>
     <g id="patch_5">
      <path d="M 563.748932 72.964375 
L 563.748932 321.621875 
M 579.040483 72.964375 
L 579.040483 321.621875 
" clip-path="url(#p74a1592740)" style="fill: none; stroke: #ffffff; stroke-width: 3; stroke-linejoin: miter"/>
      <path d="M 563.748932 72.964375 
L 563.748932 321.621875 
M 579.040483 72.964375 
L 579.040483 321.621875 
" clip-path="url(#p74a1592740)" style="fill: none; stroke: #2ca02c; stroke-linejoin: miter"/>
      <g id="PolyCollection_3">
       <path d="M 579.040483 72.964375 
L 563.748932 72.964375 
L 563.748932 321.621875 
L 579.040483 321.621875 
L 579.040483 321.621875 
L 579.040483 72.964375 
z
" clip-path="url(#p74a1592740)" style="fill: #2ca02c; fill-opacity: 0.5"/>
      </g>
      <g id="patch_6">
       <path d="M 441.067375 261.775582 
L 441.067375 301.8383 
L 444.785907 301.8383 
L 444.785907 303.025054 
L 441.067375 303.025054 
L 441.067375 309.454389 
L 441.067375 309.454389 
L 439.797793 310.560524 
L 438.151955 311.66666 
L 436.283674 312.649891 
L 433.930559 313.633122 
L 430.966793 314.616353 
L 427.233906 315.599584 
L 422.532307 316.582815 
L 416.610606 317.566046 
L 409.152177 318.549278 
L 399.758228 319.532509 
L 387.926477 320.51574 
L 373.024294 321.498971 
L 370.908005 321.621875 
M 449.635188 261.775582 
L 449.635188 301.8383 
L 445.916657 301.8383 
L 445.916657 303.025054 
L 449.635188 303.025054 
L 449.635188 309.454389 
L 449.635188 309.454389 
L 450.904771 310.560524 
L 452.550609 311.66666 
L 454.41889 312.649891 
L 456.772005 313.633122 
L 459.735771 314.616353 
L 463.468657 315.599584 
L 468.170257 316.582815 
L 474.091958 317.566046 
L 481.550387 318.549278 
L 490.944336 319.532509 
L 502.776087 320.51574 
L 517.67827 321.498971 
L 519.794559 321.621875 
L 519.794559 321.621875 
" clip-path="url(#p74a1592740)" style="fill: none; stroke: #ffffff; stroke-width: 3; stroke-linejoin: miter"/>
       <path d="M 441.067375 261.775582 
L 441.067375 301.8383 
L 444.785907 301.8383 
L 444.785907 303.025054 
L 441.067375 303.025054 
L 441.067375 309.454389 
L 441.067375 309.454389 
L 439.797793 310.560524 
L 438.151955 311.66666 
L 436.283674 312.649891 
L 433.930559 313.633122 
L 430.966793 314.616353 
L 427.233906 315.599584 
L 422.532307 316.582815 
L 416.610606 317.566046 
L 409.152177 318.549278 
L 399.758228 319.532509 
L 387.926477 320.51574 
L 373.024294 321.498971 
L 370.908005 321.621875 
M 449.635188 261.775582 
L 449.635188 301.8383 
L 445.916657 301.8383 
L 445.916657 303.025054 
L 449.635188 303.025054 
L 449.635188 309.454389 
L 449.635188 309.454389 
L 450.904771 310.560524 
L 452.550609 311.66666 
L 454.41889 312.649891 
L 456.772005 313.633122 
L 459.735771 314.616353 
L 463.468657 315.599584 
L 468.170257 316.582815 
L 474.091958 317.566046 
L 481.550387 318.549278 
L 490.944336 319.532509 
L 502.776087 320.51574 
L 517.67827 321.498971 
L 519.794559 321.621875 
L 519.794559 321.621875 
" clip-path="url(#p74a1592740)" style="fill: none; stroke: #d62728; stroke-linejoin: miter"/>
       <g id="PolyCollection_4">
        <path d="M 449.635188 261.775582 
L 441.067375 261.775582 
L 441.067375 301.8383 
L 444.785907 301.8383 
L 444.785907 303.025054 
L 441.067375 303.025054 
L 441.067375 309.454389 
L 441.067375 309.454389 
L 440.942028 309.577293 
L 440.813013 309.700197 
L 440.680224 309.823101 
L 440.543548 309.946005 
L 440.402874 310.068909 
L 440.258083 310.191813 
L 440.109056 310.314717 
L 439.955669 310.437621 
L 439.797793 310.560524 
L 439.635297 310.683428 
L 439.468048 310.806332 
L 439.295904 310.929236 
L 439.118724 311.05214 
L 438.936359 311.175044 
L 438.748658 311.297948 
L 438.555465 311.420852 
L 438.356619 311.543756 
L 438.151955 311.66666 
L 437.941303 311.789563 
L 437.724486 311.912467 
L 437.501326 312.035371 
L 437.271636 312.158275 
L 437.035226 312.281179 
L 436.791898 312.404083 
L 436.54145 312.526987 
L 436.283674 312.649891 
L 436.018355 312.772795 
L 435.745274 312.895698 
L 435.464202 313.018602 
L 435.174906 313.141506 
L 434.877144 313.26441 
L 434.570671 313.387314 
L 434.25523 313.510218 
L 433.930559 313.633122 
L 433.596389 313.756026 
L 433.25244 313.87893 
L 432.898428 314.001834 
L 432.534057 314.124737 
L 432.159025 314.247641 
L 431.773019 314.370545 
L 431.375718 314.493449 
L 430.966793 314.616353 
L 430.545903 314.739257 
L 430.112697 314.862161 
L 429.666815 314.985065 
L 429.207887 315.107969 
L 428.735531 315.230872 
L 428.249354 315.353776 
L 427.748951 315.47668 
L 427.233906 315.599584 
L 426.703792 315.722488 
L 426.158166 315.845392 
L 425.596574 315.968296 
L 425.018551 316.0912 
L 424.423615 316.214104 
L 423.811271 316.337008 
L 423.18101 316.459911 
L 422.532307 316.582815 
L 421.864623 316.705719 
L 421.177403 316.828623 
L 420.470074 316.951527 
L 419.74205 317.074431 
L 418.992723 317.197335 
L 418.221471 317.320239 
L 417.427652 317.443143 
L 416.610606 317.566046 
L 415.769653 317.68895 
L 414.904093 317.811854 
L 414.013208 317.934758 
L 413.096255 318.057662 
L 412.152472 318.180566 
L 411.181074 318.30347 
L 410.181253 318.426374 
L 409.152177 318.549278 
L 408.09299 318.672182 
L 407.002812 318.795085 
L 405.880734 318.917989 
L 404.725825 319.040893 
L 403.537123 319.163797 
L 402.31364 319.286701 
L 401.054357 319.409605 
L 399.758228 319.532509 
L 398.424174 319.655413 
L 397.051086 319.778317 
L 395.637821 319.90122 
L 394.183204 320.024124 
L 392.686024 320.147028 
L 391.145038 320.269932 
L 389.558962 320.392836 
L 387.926477 320.51574 
L 386.246226 320.638644 
L 384.51681 320.761548 
L 382.736792 320.884452 
L 380.90469 321.007356 
L 379.018981 321.130259 
L 377.078096 321.253163 
L 375.080421 321.376067 
L 373.024294 321.498971 
L 370.908005 321.621875 
L 519.794559 321.621875 
L 519.794559 321.621875 
L 517.67827 321.498971 
L 515.622143 321.376067 
L 513.624467 321.253163 
L 511.683583 321.130259 
L 509.797874 321.007356 
L 507.965772 320.884452 
L 506.185754 320.761548 
L 504.456338 320.638644 
L 502.776087 320.51574 
L 501.143602 320.392836 
L 499.557526 320.269932 
L 498.016539 320.147028 
L 496.51936 320.024124 
L 495.064743 319.90122 
L 493.651478 319.778317 
L 492.27839 319.655413 
L 490.944336 319.532509 
L 489.648207 319.409605 
L 488.388924 319.286701 
L 487.165441 319.163797 
L 485.976739 319.040893 
L 484.821829 318.917989 
L 483.699752 318.795085 
L 482.609574 318.672182 
L 481.550387 318.549278 
L 480.521311 318.426374 
L 479.52149 318.30347 
L 478.550092 318.180566 
L 477.606309 318.057662 
L 476.689356 317.934758 
L 475.79847 317.811854 
L 474.932911 317.68895 
L 474.091958 317.566046 
L 473.274912 317.443143 
L 472.481093 317.320239 
L 471.709841 317.197335 
L 470.960514 317.074431 
L 470.232489 316.951527 
L 469.525161 316.828623 
L 468.837941 316.705719 
L 468.170257 316.582815 
L 467.521554 316.459911 
L 466.891293 316.337008 
L 466.278949 316.214104 
L 465.684013 316.0912 
L 465.105989 315.968296 
L 464.544398 315.845392 
L 463.998772 315.722488 
L 463.468657 315.599584 
L 462.953613 315.47668 
L 462.45321 315.353776 
L 461.967033 315.230872 
L 461.494677 315.107969 
L 461.035749 314.985065 
L 460.589867 314.862161 
L 460.156661 314.739257 
L 459.735771 314.616353 
L 459.326846 314.493449 
L 458.929545 314.370545 
L 458.543539 314.247641 
L 458.168507 314.124737 
L 457.804136 314.001834 
L 457.450124 313.87893 
L 457.106175 313.756026 
L 456.772005 313.633122 
L 456.447334 313.510218 
L 456.131893 313.387314 
L 455.825419 313.26441 
L 455.527658 313.141506 
L 455.238362 313.018602 
L 454.95729 312.895698 
L 454.684208 312.772795 
L 454.41889 312.649891 
L 454.161114 312.526987 
L 453.910666 312.404083 
L 453.667338 312.281179 
L 453.430928 312.158275 
L 453.201238 312.035371 
L 452.978077 311.912467 
L 452.761261 311.789563 
L 452.550609 311.66666 
L 452.345945 311.543756 
L 452.147099 311.420852 
L 451.953906 311.297948 
L 451.766205 311.175044 
L 451.58384 311.05214 
L 451.40666 310.929236 
L 451.234516 310.806332 
L 451.067266 310.683428 
L 450.904771 310.560524 
L 450.746895 310.437621 
L 450.593508 310.314717 
L 450.444481 310.191813 
L 450.29969 310.068909 
L 450.159016 309.946005 
L 450.02234 309.823101 
L 449.889551 309.700197 
L 449.760536 309.577293 
L 449.635188 309.454389 
L 449.635188 309.454389 
L 449.635188 303.025054 
L 445.916657 303.025054 
L 445.916657 301.8383 
L 449.635188 301.8383 
L 449.635188 261.775582 
z
" clip-path="url(#p74a1592740)" style="fill: #d62728; fill-opacity: 0.5"/>
       </g>
       <g id="matplotlib.axis_1">
        <g id="xtick_1">
         <g id="line2d_1"/>
         <g id="text_1">
          <!-- OUT -->
          <g transform="translate(119.5935 332.720312) scale(0.1 -0.1)">
           <defs>
            <path id="DejaVuSans-4f" d="M 2522 4238 
Q 1834 4238 1429 3725 
Q 1025 3213 1025 2328 
Q 1025 1447 1429 934 
Q 1834 422 2522 422 
Q 3209 422 3611 934 
Q 4013 1447 4013 2328 
Q 4013 3213 3611 3725 
Q 3209 4238 2522 4238 
z
M 2522 4750 
Q 3503 4750 4090 4092 
Q 4678 3434 4678 2328 
Q 4678 1225 4090 567 
Q 3503 -91 2522 -91 
Q 1538 -91 948 565 
Q 359 1222 359 2328 
Q 359 3434 948 4092 
Q 1538 4750 2522 4750 
z
" transform="scale(0.015625)"/>
            <path id="DejaVuSans-55" d="M 556 4666 
L 1191 4666 
L 1191 1831 
Q 1191 1081 1462 751 
Q 1734 422 2344 422 
Q 2950 422 3222 751 
Q 3494 1081 3494 1831 
L 3494 4666 
L 4128 4666 
L 4128 1753 
Q 4128 841 3676 375 
Q 3225 -91 2344 -91 
Q 1459 -91 1007 375 
Q 556 841 556 1753 
L 556 4666 
z
" transform="scale(0.015625)"/>
            <path id="DejaVuSans-54" d="M -19 4666 
L 3928 4666 
L 3928 4134 
L 2272 4134 
L 2272 0 
L 1638 0 
L 1638 4134 
L -19 4134 
L -19 4666 
z
" transform="scale(0.015625)"/>
           </defs>
           <use xlink:href="#DejaVuSans-4f"/>
           <use xlink:href="#DejaVuSans-55" x="78.710938"/>
           <use xlink:href="#DejaVuSans-54" x="151.904297"/>
          </g>
         </g>
        </g>
        <g id="xtick_2">
         <g id="line2d_2"/>
         <g id="text_2">
          <!-- SRC -->
          <g transform="translate(561.504864 332.720312) scale(0.1 -0.1)">
           <defs>
            <path id="DejaVuSans-53" d="M 3425 4513 
L 3425 3897 
Q 3066 4069 2747 4153 
Q 2428 4238 2131 4238 
Q 1616 4238 1336 4038 
Q 1056 3838 1056 3469 
Q 1056 3159 1242 3001 
Q 1428 2844 1947 2747 
L 2328 2669 
Q 3034 2534 3370 2195 
Q 3706 1856 3706 1288 
Q 3706 609 3251 259 
Q 2797 -91 1919 -91 
Q 1588 -91 1214 -16 
Q 841 59 441 206 
L 441 856 
Q 825 641 1194 531 
Q 1563 422 1919 422 
Q 2459 422 2753 634 
Q 3047 847 3047 1241 
Q 3047 1584 2836 1778 
Q 2625 1972 2144 2069 
L 1759 2144 
Q 1053 2284 737 2584 
Q 422 2884 422 3419 
Q 422 4038 858 4394 
Q 1294 4750 2059 4750 
Q 2388 4750 2728 4690 
Q 3069 4631 3425 4513 
z
" transform="scale(0.015625)"/>
            <path id="DejaVuSans-52" d="M 2841 2188 
Q 3044 2119 3236 1894 
Q 3428 1669 3622 1275 
L 4263 0 
L 3584 0 
L 2988 1197 
Q 2756 1666 2539 1819 
Q 2322 1972 1947 1972 
L 1259 1972 
L 1259 0 
L 628 0 
L 628 4666 
L 2053 4666 
Q 2853 4666 3247 4331 
Q 3641 3997 3641 3322 
Q 3641 2881 3436 2590 
Q 3231 2300 2841 2188 
z
M 1259 4147 
L 1259 2491 
L 2053 2491 
Q 2509 2491 2742 2702 
Q 2975 2913 2975 3322 
Q 2975 3731 2742 3939 
Q 2509 4147 2053 4147 
L 1259 4147 
z
" transform="scale(0.015625)"/>
            <path id="DejaVuSans-43" d="M 4122 4306 
L 4122 3641 
Q 3803 3938 3442 4084 
Q 3081 4231 2675 4231 
Q 1875 4231 1450 3742 
Q 1025 3253 1025 2328 
Q 1025 1406 1450 917 
Q 1875 428 2675 428 
Q 3081 428 3442 575 
Q 3803 722 4122 1019 
L 4122 359 
Q 3791 134 3420 21 
Q 3050 -91 2638 -91 
Q 1578 -91 968 557 
Q 359 1206 359 2328 
Q 359 3453 968 4101 
Q 1578 4750 2638 4750 
Q 3056 4750 3426 4639 
Q 3797 4528 4122 4306 
z
" transform="scale(0.015625)"/>
           </defs>
           <use xlink:href="#DejaVuSans-53"/>
           <use xlink:href="#DejaVuSans-52" x="63.476562"/>
           <use xlink:href="#DejaVuSans-43" x="127.958984"/>
          </g>
         </g>
        </g>
        <g id="xtick_3">
         <g id="line2d_3"/>
         <g id="text_3">
          <!-- TAR -->
          <g transform="translate(435.790344 332.720312) scale(0.1 -0.1)">
           <defs>
            <path id="DejaVuSans-41" d="M 2188 4044 
L 1331 1722 
L 3047 1722 
L 2188 4044 
z
M 1831 4666 
L 2547 4666 
L 4325 0 
L 3669 0 
L 3244 1197 
L 1141 1197 
L 716 0 
L 50 0 
L 1831 4666 
z
" transform="scale(0.015625)"/>
           </defs>
           <use xlink:href="#DejaVuSans-54"/>
           <use xlink:href="#DejaVuSans-41" x="53.333984"/>
           <use xlink:href="#DejaVuSans-52" x="121.742188"/>
          </g>
         </g>
        </g>
       </g>
       <g id="matplotlib.axis_2">
        <g id="ytick_1">
         <g id="line2d_4">
          <defs>
           <path id="m579e8e8467" d="M 0 0 
L -3.5 0 
" style="stroke: #000000; stroke-width: 0.8"/>
          </defs>
          <g>
           <use xlink:href="#m579e8e8467" x="63.290625" y="321.621875" style="stroke: #000000; stroke-width: 0.8"/>
          </g>
         </g>
         <g id="text_4">
          <!-- 0 -->
          <g transform="translate(49.928125 325.421094) scale(0.1 -0.1)">
           <defs>
            <path id="DejaVuSans-30" d="M 2034 4250 
Q 1547 4250 1301 3770 
Q 1056 3291 1056 2328 
Q 1056 1369 1301 889 
Q 1547 409 2034 409 
Q 2525 409 2770 889 
Q 3016 1369 3016 2328 
Q 3016 3291 2770 3770 
Q 2525 4250 2034 4250 
z
M 2034 4750 
Q 2819 4750 3233 4129 
Q 3647 3509 3647 2328 
Q 3647 1150 3233 529 
Q 2819 -91 2034 -91 
Q 1250 -91 836 529 
Q 422 1150 422 2328 
Q 422 3509 836 4129 
Q 1250 4750 2034 4750 
z
" transform="scale(0.015625)"/>
           </defs>
           <use xlink:href="#DejaVuSans-30"/>
          </g>
         </g>
        </g>
        <g id="ytick_2">
         <g id="line2d_5">
          <g>
           <use xlink:href="#m579e8e8467" x="63.290625" y="256.415629" style="stroke: #000000; stroke-width: 0.8"/>
          </g>
         </g>
         <g id="text_5">
          <!-- 5000 -->
          <g transform="translate(30.840625 260.214847) scale(0.1 -0.1)">
           <defs>
            <path id="DejaVuSans-35" d="M 691 4666 
L 3169 4666 
L 3169 4134 
L 1269 4134 
L 1269 2991 
Q 1406 3038 1543 3061 
Q 1681 3084 1819 3084 
Q 2600 3084 3056 2656 
Q 3513 2228 3513 1497 
Q 3513 744 3044 326 
Q 2575 -91 1722 -91 
Q 1428 -91 1123 -41 
Q 819 9 494 109 
L 494 744 
Q 775 591 1075 516 
Q 1375 441 1709 441 
Q 2250 441 2565 725 
Q 2881 1009 2881 1497 
Q 2881 1984 2565 2268 
Q 2250 2553 1709 2553 
Q 1456 2553 1204 2497 
Q 953 2441 691 2322 
L 691 4666 
z
" transform="scale(0.015625)"/>
           </defs>
           <use xlink:href="#DejaVuSans-35"/>
           <use xlink:href="#DejaVuSans-30" x="63.623047"/>
           <use xlink:href="#DejaVuSans-30" x="127.246094"/>
           <use xlink:href="#DejaVuSans-30" x="190.869141"/>
          </g>
         </g>
        </g>
        <g id="ytick_3">
         <g id="line2d_6">
          <g>
           <use xlink:href="#m579e8e8467" x="63.290625" y="191.209382" style="stroke: #000000; stroke-width: 0.8"/>
          </g>
         </g>
         <g id="text_6">
          <!-- 10000 -->
          <g transform="translate(24.478125 195.008601) scale(0.1 -0.1)">
           <defs>
            <path id="DejaVuSans-31" d="M 794 531 
L 1825 531 
L 1825 4091 
L 703 3866 
L 703 4441 
L 1819 4666 
L 2450 4666 
L 2450 531 
L 3481 531 
L 3481 0 
L 794 0 
L 794 531 
z
" transform="scale(0.015625)"/>
           </defs>
           <use xlink:href="#DejaVuSans-31"/>
           <use xlink:href="#DejaVuSans-30" x="63.623047"/>
           <use xlink:href="#DejaVuSans-30" x="127.246094"/>
           <use xlink:href="#DejaVuSans-30" x="190.869141"/>
           <use xlink:href="#DejaVuSans-30" x="254.492188"/>
          </g>
         </g>
        </g>
        <g id="ytick_4">
         <g id="line2d_7">
          <g>
           <use xlink:href="#m579e8e8467" x="63.290625" y="126.003136" style="stroke: #000000; stroke-width: 0.8"/>
          </g>
         </g>
         <g id="text_7">
          <!-- 15000 -->
          <g transform="translate(24.478125 129.802355) scale(0.1 -0.1)">
           <use xlink:href="#DejaVuSans-31"/>
           <use xlink:href="#DejaVuSans-35" x="63.623047"/>
           <use xlink:href="#DejaVuSans-30" x="127.246094"/>
           <use xlink:href="#DejaVuSans-30" x="190.869141"/>
           <use xlink:href="#DejaVuSans-30" x="254.492188"/>
          </g>
         </g>
        </g>
        <g id="ytick_5">
         <g id="line2d_8">
          <g>
           <use xlink:href="#m579e8e8467" x="63.290625" y="60.796889" style="stroke: #000000; stroke-width: 0.8"/>
          </g>
         </g>
         <g id="text_8">
          <!-- 20000 -->
          <g transform="translate(24.478125 64.596108) scale(0.1 -0.1)">
           <defs>
            <path id="DejaVuSans-32" d="M 1228 531 
L 3431 531 
L 3431 0 
L 469 0 
L 469 531 
Q 828 903 1448 1529 
Q 2069 2156 2228 2338 
Q 2531 2678 2651 2914 
Q 2772 3150 2772 3378 
Q 2772 3750 2511 3984 
Q 2250 4219 1831 4219 
Q 1534 4219 1204 4116 
Q 875 4013 500 3803 
L 500 4441 
Q 881 4594 1212 4672 
Q 1544 4750 1819 4750 
Q 2544 4750 2975 4387 
Q 3406 4025 3406 3419 
Q 3406 3131 3298 2873 
Q 3191 2616 2906 2266 
Q 2828 2175 2409 1742 
Q 1991 1309 1228 531 
z
" transform="scale(0.015625)"/>
           </defs>
           <use xlink:href="#DejaVuSans-32"/>
           <use xlink:href="#DejaVuSans-30" x="63.623047"/>
           <use xlink:href="#DejaVuSans-30" x="127.246094"/>
           <use xlink:href="#DejaVuSans-30" x="190.869141"/>
           <use xlink:href="#DejaVuSans-30" x="254.492188"/>
          </g>
         </g>
        </g>
        <g id="text_9">
         <!-- time ago (generations) -->
         <g transform="translate(18.398438 223.682031) rotate(-90) scale(0.1 -0.1)">
          <defs>
           <path id="DejaVuSans-74" d="M 1172 4494 
L 1172 3500 
L 2356 3500 
L 2356 3053 
L 1172 3053 
L 1172 1153 
Q 1172 725 1289 603 
Q 1406 481 1766 481 
L 2356 481 
L 2356 0 
L 1766 0 
Q 1100 0 847 248 
Q 594 497 594 1153 
L 594 3053 
L 172 3053 
L 172 3500 
L 594 3500 
L 594 4494 
L 1172 4494 
z
" transform="scale(0.015625)"/>
           <path id="DejaVuSans-69" d="M 603 3500 
L 1178 3500 
L 1178 0 
L 603 0 
L 603 3500 
z
M 603 4863 
L 1178 4863 
L 1178 4134 
L 603 4134 
L 603 4863 
z
" transform="scale(0.015625)"/>
           <path id="DejaVuSans-6d" d="M 3328 2828 
Q 3544 3216 3844 3400 
Q 4144 3584 4550 3584 
Q 5097 3584 5394 3201 
Q 5691 2819 5691 2113 
L 5691 0 
L 5113 0 
L 5113 2094 
Q 5113 2597 4934 2840 
Q 4756 3084 4391 3084 
Q 3944 3084 3684 2787 
Q 3425 2491 3425 1978 
L 3425 0 
L 2847 0 
L 2847 2094 
Q 2847 2600 2669 2842 
Q 2491 3084 2119 3084 
Q 1678 3084 1418 2786 
Q 1159 2488 1159 1978 
L 1159 0 
L 581 0 
L 581 3500 
L 1159 3500 
L 1159 2956 
Q 1356 3278 1631 3431 
Q 1906 3584 2284 3584 
Q 2666 3584 2933 3390 
Q 3200 3197 3328 2828 
z
" transform="scale(0.015625)"/>
           <path id="DejaVuSans-65" d="M 3597 1894 
L 3597 1613 
L 953 1613 
Q 991 1019 1311 708 
Q 1631 397 2203 397 
Q 2534 397 2845 478 
Q 3156 559 3463 722 
L 3463 178 
Q 3153 47 2828 -22 
Q 2503 -91 2169 -91 
Q 1331 -91 842 396 
Q 353 884 353 1716 
Q 353 2575 817 3079 
Q 1281 3584 2069 3584 
Q 2775 3584 3186 3129 
Q 3597 2675 3597 1894 
z
M 3022 2063 
Q 3016 2534 2758 2815 
Q 2500 3097 2075 3097 
Q 1594 3097 1305 2825 
Q 1016 2553 972 2059 
L 3022 2063 
z
" transform="scale(0.015625)"/>
           <path id="DejaVuSans-20" transform="scale(0.015625)"/>
           <path id="DejaVuSans-61" d="M 2194 1759 
Q 1497 1759 1228 1600 
Q 959 1441 959 1056 
Q 959 750 1161 570 
Q 1363 391 1709 391 
Q 2188 391 2477 730 
Q 2766 1069 2766 1631 
L 2766 1759 
L 2194 1759 
z
M 3341 1997 
L 3341 0 
L 2766 0 
L 2766 531 
Q 2569 213 2275 61 
Q 1981 -91 1556 -91 
Q 1019 -91 701 211 
Q 384 513 384 1019 
Q 384 1609 779 1909 
Q 1175 2209 1959 2209 
L 2766 2209 
L 2766 2266 
Q 2766 2663 2505 2880 
Q 2244 3097 1772 3097 
Q 1472 3097 1187 3025 
Q 903 2953 641 2809 
L 641 3341 
Q 956 3463 1253 3523 
Q 1550 3584 1831 3584 
Q 2591 3584 2966 3190 
Q 3341 2797 3341 1997 
z
" transform="scale(0.015625)"/>
           <path id="DejaVuSans-67" d="M 2906 1791 
Q 2906 2416 2648 2759 
Q 2391 3103 1925 3103 
Q 1463 3103 1205 2759 
Q 947 2416 947 1791 
Q 947 1169 1205 825 
Q 1463 481 1925 481 
Q 2391 481 2648 825 
Q 2906 1169 2906 1791 
z
M 3481 434 
Q 3481 -459 3084 -895 
Q 2688 -1331 1869 -1331 
Q 1566 -1331 1297 -1286 
Q 1028 -1241 775 -1147 
L 775 -588 
Q 1028 -725 1275 -790 
Q 1522 -856 1778 -856 
Q 2344 -856 2625 -561 
Q 2906 -266 2906 331 
L 2906 616 
Q 2728 306 2450 153 
Q 2172 0 1784 0 
Q 1141 0 747 490 
Q 353 981 353 1791 
Q 353 2603 747 3093 
Q 1141 3584 1784 3584 
Q 2172 3584 2450 3431 
Q 2728 3278 2906 2969 
L 2906 3500 
L 3481 3500 
L 3481 434 
z
" transform="scale(0.015625)"/>
           <path id="DejaVuSans-6f" d="M 1959 3097 
Q 1497 3097 1228 2736 
Q 959 2375 959 1747 
Q 959 1119 1226 758 
Q 1494 397 1959 397 
Q 2419 397 2687 759 
Q 2956 1122 2956 1747 
Q 2956 2369 2687 2733 
Q 2419 3097 1959 3097 
z
M 1959 3584 
Q 2709 3584 3137 3096 
Q 3566 2609 3566 1747 
Q 3566 888 3137 398 
Q 2709 -91 1959 -91 
Q 1206 -91 779 398 
Q 353 888 353 1747 
Q 353 2609 779 3096 
Q 1206 3584 1959 3584 
z
" transform="scale(0.015625)"/>
           <path id="DejaVuSans-28" d="M 1984 4856 
Q 1566 4138 1362 3434 
Q 1159 2731 1159 2009 
Q 1159 1288 1364 580 
Q 1569 -128 1984 -844 
L 1484 -844 
Q 1016 -109 783 600 
Q 550 1309 550 2009 
Q 550 2706 781 3412 
Q 1013 4119 1484 4856 
L 1984 4856 
z
" transform="scale(0.015625)"/>
           <path id="DejaVuSans-6e" d="M 3513 2113 
L 3513 0 
L 2938 0 
L 2938 2094 
Q 2938 2591 2744 2837 
Q 2550 3084 2163 3084 
Q 1697 3084 1428 2787 
Q 1159 2491 1159 1978 
L 1159 0 
L 581 0 
L 581 3500 
L 1159 3500 
L 1159 2956 
Q 1366 3272 1645 3428 
Q 1925 3584 2291 3584 
Q 2894 3584 3203 3211 
Q 3513 2838 3513 2113 
z
" transform="scale(0.015625)"/>
           <path id="DejaVuSans-72" d="M 2631 2963 
Q 2534 3019 2420 3045 
Q 2306 3072 2169 3072 
Q 1681 3072 1420 2755 
Q 1159 2438 1159 1844 
L 1159 0 
L 581 0 
L 581 3500 
L 1159 3500 
L 1159 2956 
Q 1341 3275 1631 3429 
Q 1922 3584 2338 3584 
Q 2397 3584 2469 3576 
Q 2541 3569 2628 3553 
L 2631 2963 
z
" transform="scale(0.015625)"/>
           <path id="DejaVuSans-73" d="M 2834 3397 
L 2834 2853 
Q 2591 2978 2328 3040 
Q 2066 3103 1784 3103 
Q 1356 3103 1142 2972 
Q 928 2841 928 2578 
Q 928 2378 1081 2264 
Q 1234 2150 1697 2047 
L 1894 2003 
Q 2506 1872 2764 1633 
Q 3022 1394 3022 966 
Q 3022 478 2636 193 
Q 2250 -91 1575 -91 
Q 1294 -91 989 -36 
Q 684 19 347 128 
L 347 722 
Q 666 556 975 473 
Q 1284 391 1588 391 
Q 1994 391 2212 530 
Q 2431 669 2431 922 
Q 2431 1156 2273 1281 
Q 2116 1406 1581 1522 
L 1381 1569 
Q 847 1681 609 1914 
Q 372 2147 372 2553 
Q 372 3047 722 3315 
Q 1072 3584 1716 3584 
Q 2034 3584 2315 3537 
Q 2597 3491 2834 3397 
z
" transform="scale(0.015625)"/>
           <path id="DejaVuSans-29" d="M 513 4856 
L 1013 4856 
Q 1481 4119 1714 3412 
Q 1947 2706 1947 2009 
Q 1947 1309 1714 600 
Q 1481 -109 1013 -844 
L 513 -844 
Q 928 -128 1133 580 
Q 1338 1288 1338 2009 
Q 1338 2731 1133 3434 
Q 928 4138 513 4856 
z
" transform="scale(0.015625)"/>
          </defs>
          <use xlink:href="#DejaVuSans-74"/>
          <use xlink:href="#DejaVuSans-69" x="39.208984"/>
          <use xlink:href="#DejaVuSans-6d" x="66.992188"/>
          <use xlink:href="#DejaVuSans-65" x="164.404297"/>
          <use xlink:href="#DejaVuSans-20" x="225.927734"/>
          <use xlink:href="#DejaVuSans-61" x="257.714844"/>
          <use xlink:href="#DejaVuSans-67" x="318.994141"/>
          <use xlink:href="#DejaVuSans-6f" x="382.470703"/>
          <use xlink:href="#DejaVuSans-20" x="443.652344"/>
          <use xlink:href="#DejaVuSans-28" x="475.439453"/>
          <use xlink:href="#DejaVuSans-67" x="514.453125"/>
          <use xlink:href="#DejaVuSans-65" x="577.929688"/>
          <use xlink:href="#DejaVuSans-6e" x="639.453125"/>
          <use xlink:href="#DejaVuSans-65" x="702.832031"/>
          <use xlink:href="#DejaVuSans-72" x="764.355469"/>
          <use xlink:href="#DejaVuSans-61" x="805.46875"/>
          <use xlink:href="#DejaVuSans-74" x="866.748047"/>
          <use xlink:href="#DejaVuSans-69" x="905.957031"/>
          <use xlink:href="#DejaVuSans-6f" x="933.740234"/>
          <use xlink:href="#DejaVuSans-6e" x="994.921875"/>
          <use xlink:href="#DejaVuSans-73" x="1058.300781"/>
          <use xlink:href="#DejaVuSans-29" x="1110.400391"/>
         </g>
        </g>
       </g>
       <g id="patch_7">
        <path d="M 293.935202 171.86921 
L 292.935202 171.837773 
L 291.935202 171.800833 
L 290.935202 171.703086 
L 289.935202 171.670565 
L 288.935202 171.59694 
L 287.935202 171.558374 
L 286.935202 171.522961 
L 285.935202 171.465321 
L 284.935202 171.394935 
L 283.935202 171.342971 
L 282.935202 171.283881 
L 281.935202 171.19556 
L 280.935202 171.149416 
L 279.935202 171.107005 
L 278.935202 171.076512 
L 277.935202 171.050467 
L 276.935202 171.029267 
L 275.935202 170.974966 
L 274.935202 170.947029 
L 273.935202 170.917305 
L 272.935202 170.89191 
L 271.935202 170.880709 
L 270.935202 170.870585 
L 269.935202 170.87079 
L 268.935202 170.8803 
L 267.935202 170.891953 
L 266.935202 170.922982 
L 265.935202 170.93415 
L 264.935202 170.964268 
L 263.935202 171.024045 
L 262.935202 171.061236 
L 261.935202 171.100332 
L 260.935202 171.142772 
L 259.935202 171.175537 
L 258.935202 171.242964 
L 257.935202 171.28209 
L 256.935202 171.324764 
L 255.935202 171.395345 
L 254.935202 171.431736 
L 253.935202 171.490139 
L 252.935202 171.601091 
L 251.935202 171.67175 
L 250.935202 171.784689 
L 249.935202 171.830462 
L 248.935202 171.891746 
L 247.935202 171.940245 
L 246.935202 172.021068 
L 245.935202 172.139587 
L 244.935202 172.209797 
L 243.935202 172.29306 
L 242.935202 172.326201 
L 241.935202 172.377439 
L 240.935202 172.445837 
L 239.935202 172.512053 
L 238.935202 172.58897 
L 237.935202 172.616285 
L 236.935202 172.642763 
L 235.935202 172.665413 
L 234.935202 172.684944 
L 233.935202 172.711338 
L 232.935202 172.761109 
L 231.935202 172.796182 
L 230.935202 172.832048 
L 229.935202 172.847415 
L 228.935202 172.863185 
L 227.935202 172.866597 
L 226.935202 172.869015 
L 225.935202 172.868529 
L 224.935202 172.866599 
L 223.935202 172.853342 
L 222.935202 172.844952 
L 221.935202 172.823415 
L 220.935202 172.800383 
L 219.935202 172.783149 
L 218.935202 172.764687 
L 217.935202 172.744234 
L 216.935202 172.727634 
L 215.935202 172.664856 
L 214.935202 172.589591 
L 213.935202 172.556951 
L 212.935202 172.489388 
L 211.935202 172.435341 
L 210.935202 172.401636 
L 209.935202 172.31151 
L 208.935202 172.282976 
L 207.935202 172.251489 
L 206.935202 172.220479 
L 205.935202 172.165671 
L 204.935202 172.101083 
L 203.935202 172.062888 
L 202.935202 171.966954 
L 201.935202 171.917696 
L 200.935202 171.873626 
L 199.935202 171.833502 
L 198.935202 171.725135 
L 197.935202 171.683507 
L 196.935202 171.621366 
L 195.935202 171.551404 
L 194.935202 171.446899 
L 193.935202 171.409912 
L 192.935202 171.364034 
L 191.935202 171.29554 
L 190.935202 171.246794 
L 189.935202 171.169196 
L 188.935202 171.138656 
L 187.935202 171.069141 
L 186.935202 171.045168 
L 185.935202 171.016547 
L 184.935202 170.974754 
L 183.935202 170.953178 
L 182.935202 170.93923 
L 181.935202 170.912507 
L 180.935202 170.903197 
L 179.935202 170.890751 
L 178.935202 170.879696 
L 177.935202 170.874031 
L 176.935202 170.869268 
L 175.935202 170.874815 
L 174.935202 170.888103 
L 173.935202 170.895621 
L 172.935202 170.920406 
L 171.935202 170.943974 
L 170.935202 170.980155 
L 169.935202 171.006117 
L 168.935202 171.028438 
L 167.935202 171.097198 
L 166.935202 171.171733 
L 165.935202 171.265713 
L 164.935202 171.316765 
L 163.935202 171.370698 
L 162.935202 171.405949 
L 161.935202 171.512037 
L 160.935202 171.564301 
L 159.935202 171.601208 
L 158.935202 171.632239 
L 157.935202 171.693395 
L 156.935202 171.760815 
L 155.935202 171.80972 
L 154.935202 171.874913 
L 153.935202 171.9131 
L 152.935202 171.955096 
L 151.935202 171.997114 
L 150.935202 172.05663 
L 149.935202 172.16979 
L 148.935202 172.222041 
L 147.935202 172.261458 
L 146.935202 172.30856 
L 145.619117 172.365339 
" clip-path="url(#p74a1592740)" style="fill: none; stroke: #ffffff; stroke-width: 3; stroke-linecap: round"/>
        <path d="M 293.935202 171.86921 
L 292.935202 171.837773 
L 291.935202 171.800833 
L 290.935202 171.703086 
L 289.935202 171.670565 
L 288.935202 171.59694 
L 287.935202 171.558374 
L 286.935202 171.522961 
L 285.935202 171.465321 
L 284.935202 171.394935 
L 283.935202 171.342971 
L 282.935202 171.283881 
L 281.935202 171.19556 
L 280.935202 171.149416 
L 279.935202 171.107005 
L 278.935202 171.076512 
L 277.935202 171.050467 
L 276.935202 171.029267 
L 275.935202 170.974966 
L 274.935202 170.947029 
L 273.935202 170.917305 
L 272.935202 170.89191 
L 271.935202 170.880709 
L 270.935202 170.870585 
L 269.935202 170.87079 
L 268.935202 170.8803 
L 267.935202 170.891953 
L 266.935202 170.922982 
L 265.935202 170.93415 
L 264.935202 170.964268 
L 263.935202 171.024045 
L 262.935202 171.061236 
L 261.935202 171.100332 
L 260.935202 171.142772 
L 259.935202 171.175537 
L 258.935202 171.242964 
L 257.935202 171.28209 
L 256.935202 171.324764 
L 255.935202 171.395345 
L 254.935202 171.431736 
L 253.935202 171.490139 
L 252.935202 171.601091 
L 251.935202 171.67175 
L 250.935202 171.784689 
L 249.935202 171.830462 
L 248.935202 171.891746 
L 247.935202 171.940245 
L 246.935202 172.021068 
L 245.935202 172.139587 
L 244.935202 172.209797 
L 243.935202 172.29306 
L 242.935202 172.326201 
L 241.935202 172.377439 
L 240.935202 172.445837 
L 239.935202 172.512053 
L 238.935202 172.58897 
L 237.935202 172.616285 
L 236.935202 172.642763 
L 235.935202 172.665413 
L 234.935202 172.684944 
L 233.935202 172.711338 
L 232.935202 172.761109 
L 231.935202 172.796182 
L 230.935202 172.832048 
L 229.935202 172.847415 
L 228.935202 172.863185 
L 227.935202 172.866597 
L 226.935202 172.869015 
L 225.935202 172.868529 
L 224.935202 172.866599 
L 223.935202 172.853342 
L 222.935202 172.844952 
L 221.935202 172.823415 
L 220.935202 172.800383 
L 219.935202 172.783149 
L 218.935202 172.764687 
L 217.935202 172.744234 
L 216.935202 172.727634 
L 215.935202 172.664856 
L 214.935202 172.589591 
L 213.935202 172.556951 
L 212.935202 172.489388 
L 211.935202 172.435341 
L 210.935202 172.401636 
L 209.935202 172.31151 
L 208.935202 172.282976 
L 207.935202 172.251489 
L 206.935202 172.220479 
L 205.935202 172.165671 
L 204.935202 172.101083 
L 203.935202 172.062888 
L 202.935202 171.966954 
L 201.935202 171.917696 
L 200.935202 171.873626 
L 199.935202 171.833502 
L 198.935202 171.725135 
L 197.935202 171.683507 
L 196.935202 171.621366 
L 195.935202 171.551404 
L 194.935202 171.446899 
L 193.935202 171.409912 
L 192.935202 171.364034 
L 191.935202 171.29554 
L 190.935202 171.246794 
L 189.935202 171.169196 
L 188.935202 171.138656 
L 187.935202 171.069141 
L 186.935202 171.045168 
L 185.935202 171.016547 
L 184.935202 170.974754 
L 183.935202 170.953178 
L 182.935202 170.93923 
L 181.935202 170.912507 
L 180.935202 170.903197 
L 179.935202 170.890751 
L 178.935202 170.879696 
L 177.935202 170.874031 
L 176.935202 170.869268 
L 175.935202 170.874815 
L 174.935202 170.888103 
L 173.935202 170.895621 
L 172.935202 170.920406 
L 171.935202 170.943974 
L 170.935202 170.980155 
L 169.935202 171.006117 
L 168.935202 171.028438 
L 167.935202 171.097198 
L 166.935202 171.171733 
L 165.935202 171.265713 
L 164.935202 171.316765 
L 163.935202 171.370698 
L 162.935202 171.405949 
L 161.935202 171.512037 
L 160.935202 171.564301 
L 159.935202 171.601208 
L 158.935202 171.632239 
L 157.935202 171.693395 
L 156.935202 171.760815 
L 155.935202 171.80972 
L 154.935202 171.874913 
L 153.935202 171.9131 
L 152.935202 171.955096 
L 151.935202 171.997114 
L 150.935202 172.05663 
L 149.935202 172.16979 
L 148.935202 172.222041 
L 147.935202 172.261458 
L 146.935202 172.30856 
L 145.619117 172.365339 
" clip-path="url(#p74a1592740)" style="fill: none; stroke: #1f77b4; stroke-linecap: round"/>
        <path d="M 149.619117 173.86921 
L 148.738749 173.393878 
L 147.860842 172.913624 
L 147.010128 172.378984 
L 145.707954 171.691536 
L 146.635307 171.665521 
L 147.546981 171.252802 
L 148.457246 170.837263 
L 149.799741 170.230458 
L 149.144843 170.86921 
L 149.092878 171.86921 
L 149.033789 173.86921 
z
" clip-path="url(#p74a1592740)" style="fill: #ffffff; stroke: #ffffff; stroke-width: 3; stroke-linecap: round"/>
        <path d="M 149.619117 173.86921 
L 148.738749 173.393878 
L 147.860842 172.913624 
L 147.010128 172.378984 
L 145.707954 171.691536 
L 146.635307 171.665521 
L 147.546981 171.252802 
L 148.457246 170.837263 
L 149.799741 170.230458 
L 149.144843 170.86921 
L 149.092878 171.86921 
L 149.033789 173.86921 
z
" clip-path="url(#p74a1592740)" style="fill: #ffffff; stroke: #1f77b4; stroke-linecap: round"/>
        <g id="patch_8">
         <path d="M 344.681428 72.964375 
L 345.681428 72.995811 
L 346.681428 73.032752 
L 347.681428 73.130498 
L 348.681428 73.16302 
L 349.681428 73.236645 
L 350.681428 73.27521 
L 351.681428 73.310623 
L 352.681428 73.368263 
L 353.681428 73.438649 
L 354.681428 73.490614 
L 355.681428 73.549703 
L 356.681428 73.638024 
L 357.681428 73.684169 
L 358.681428 73.72658 
L 359.681428 73.757072 
L 360.681428 73.783117 
L 361.681428 73.804317 
L 362.681428 73.858618 
L 363.681428 73.886556 
L 364.681428 73.91628 
L 365.681428 73.941675 
L 366.681428 73.952875 
L 367.681428 73.962999 
L 368.681428 73.962795 
L 369.681428 73.953285 
L 370.681428 73.941631 
L 371.681428 73.910602 
L 372.681428 73.899434 
L 373.681428 73.869317 
L 374.681428 73.80954 
L 375.681428 73.772348 
L 376.681428 73.733252 
L 377.681428 73.690812 
L 378.681428 73.658047 
L 379.681428 73.590621 
L 380.681428 73.551495 
L 381.681428 73.50882 
L 382.681428 73.43824 
L 383.681428 73.401849 
L 384.681428 73.343446 
L 385.681428 73.232493 
L 386.681428 73.161835 
L 387.681428 73.048895 
L 388.681428 73.003122 
L 389.681428 72.941839 
L 390.681428 72.89334 
L 391.681428 72.812517 
L 392.681428 72.693998 
L 393.681428 72.623787 
L 394.681428 72.540525 
L 395.681428 72.507383 
L 396.681428 72.456146 
L 397.681428 72.387747 
L 398.681428 72.321532 
L 399.681428 72.244615 
L 400.681428 72.217299 
L 401.681428 72.190822 
L 402.681428 72.168171 
L 403.681428 72.14864 
L 404.681428 72.122246 
L 405.681428 72.072475 
L 406.681428 72.037402 
L 407.681428 72.001536 
L 408.681428 71.986169 
L 409.681428 71.9704 
L 410.681428 71.966987 
L 411.681428 71.96457 
L 412.681428 71.965056 
L 413.681428 71.966985 
L 414.681428 71.980242 
L 415.681428 71.988633 
L 416.681428 72.010169 
L 417.681428 72.033202 
L 418.681428 72.050435 
L 419.681428 72.068898 
L 420.681428 72.08935 
L 421.681428 72.10595 
L 422.681428 72.168729 
L 423.681428 72.243994 
L 424.681428 72.276633 
L 425.681428 72.344197 
L 426.681428 72.398244 
L 427.681428 72.431948 
L 428.681428 72.522074 
L 429.681428 72.550609 
L 430.681428 72.582095 
L 431.681428 72.613106 
L 432.681428 72.667914 
L 433.681428 72.732501 
L 434.681428 72.770697 
L 435.681428 72.866631 
L 436.681428 72.915889 
L 437.681428 72.959958 
L 438.681428 73.000082 
L 439.681428 73.108449 
L 440.681428 73.150077 
L 441.681428 73.212219 
L 442.681428 73.282181 
L 443.681428 73.386685 
L 444.681428 73.423673 
L 445.681428 73.46955 
L 446.681428 73.538045 
L 447.681428 73.586791 
L 448.681428 73.664388 
L 449.681428 73.694929 
L 450.681428 73.764443 
L 451.681428 73.788416 
L 452.681428 73.817038 
L 453.681428 73.858831 
L 454.681428 73.880407 
L 455.681428 73.894355 
L 456.681428 73.921077 
L 457.681428 73.930387 
L 458.681428 73.942834 
L 459.681428 73.953889 
L 460.681428 73.959553 
L 461.681428 73.964317 
L 462.681428 73.958769 
L 463.681428 73.945481 
L 464.681428 73.937964 
L 465.681428 73.913179 
L 466.681428 73.88961 
L 467.681428 73.85343 
L 468.681428 73.827468 
L 469.681428 73.805146 
L 470.681428 73.736386 
L 471.681428 73.661851 
L 472.681428 73.567872 
L 473.681428 73.51682 
L 474.681428 73.462886 
L 475.681428 73.427635 
L 476.681428 73.321547 
L 477.681428 73.269283 
L 478.681428 73.232376 
L 479.681428 73.201345 
L 480.681428 73.14019 
L 481.681428 73.07277 
L 482.681428 73.023864 
L 483.681428 72.958672 
L 484.681428 72.920484 
L 485.681428 72.878488 
L 486.681428 72.836471 
L 487.681428 72.776955 
L 488.681428 72.663795 
L 489.681428 72.611544 
L 490.681428 72.572126 
L 491.681428 72.525025 
L 492.681428 72.468245 
L 493.681428 72.435582 
L 494.681428 72.399404 
L 495.681428 72.367314 
L 496.681428 72.333034 
L 497.681428 72.274656 
L 498.681428 72.229471 
L 499.681428 72.199847 
L 500.681428 72.149461 
L 501.681428 72.124264 
L 502.681428 72.103213 
L 503.681428 72.068245 
L 504.681428 72.043955 
L 505.681428 72.029888 
L 506.681428 72.010946 
L 507.681428 71.995285 
L 508.681428 71.982733 
L 509.681428 71.976897 
L 510.681428 71.970015 
L 511.681428 71.964841 
L 512.681428 71.966624 
L 513.681428 71.969349 
L 514.681428 71.980503 
L 515.681428 72.008738 
L 516.681428 72.052526 
L 517.681428 72.073215 
L 518.681428 72.114188 
L 519.681428 72.154263 
L 520.681428 72.173373 
L 521.681428 72.195882 
L 522.681428 72.262533 
L 523.681428 72.312243 
L 524.681428 72.385949 
L 525.681428 72.417263 
L 526.681428 72.493885 
L 527.681428 72.532183 
L 528.681428 72.6063 
L 529.681428 72.710358 
L 530.681428 72.780189 
L 531.681428 72.885423 
L 532.681428 72.940438 
L 533.681428 73.063913 
L 534.681428 73.134472 
L 535.681428 73.250311 
L 536.681428 73.300492 
L 537.681428 73.336096 
L 538.681428 73.427503 
L 539.681428 73.481011 
L 540.681428 73.568919 
L 541.681428 73.638104 
L 542.681428 73.684868 
L 543.681428 73.756912 
L 544.681428 73.807054 
L 545.681428 73.824444 
L 546.681428 73.851447 
L 547.681428 73.870874 
L 548.681428 73.890212 
L 549.681428 73.928461 
L 550.681428 73.944894 
L 551.681428 73.953263 
L 552.681428 73.957582 
L 553.681428 73.964137 
L 554.681428 73.961591 
L 555.681428 73.956132 
L 556.681428 73.939704 
L 557.681428 73.907769 
L 558.681428 73.869789 
L 560.628617 73.834985 
" clip-path="url(#p74a1592740)" style="fill: none; stroke: #ffffff; stroke-width: 3; stroke-linecap: round"/>
         <path d="M 344.681428 72.964375 
L 345.681428 72.995811 
L 346.681428 73.032752 
L 347.681428 73.130498 
L 348.681428 73.16302 
L 349.681428 73.236645 
L 350.681428 73.27521 
L 351.681428 73.310623 
L 352.681428 73.368263 
L 353.681428 73.438649 
L 354.681428 73.490614 
L 355.681428 73.549703 
L 356.681428 73.638024 
L 357.681428 73.684169 
L 358.681428 73.72658 
L 359.681428 73.757072 
L 360.681428 73.783117 
L 361.681428 73.804317 
L 362.681428 73.858618 
L 363.681428 73.886556 
L 364.681428 73.91628 
L 365.681428 73.941675 
L 366.681428 73.952875 
L 367.681428 73.962999 
L 368.681428 73.962795 
L 369.681428 73.953285 
L 370.681428 73.941631 
L 371.681428 73.910602 
L 372.681428 73.899434 
L 373.681428 73.869317 
L 374.681428 73.80954 
L 375.681428 73.772348 
L 376.681428 73.733252 
L 377.681428 73.690812 
L 378.681428 73.658047 
L 379.681428 73.590621 
L 380.681428 73.551495 
L 381.681428 73.50882 
L 382.681428 73.43824 
L 383.681428 73.401849 
L 384.681428 73.343446 
L 385.681428 73.232493 
L 386.681428 73.161835 
L 387.681428 73.048895 
L 388.681428 73.003122 
L 389.681428 72.941839 
L 390.681428 72.89334 
L 391.681428 72.812517 
L 392.681428 72.693998 
L 393.681428 72.623787 
L 394.681428 72.540525 
L 395.681428 72.507383 
L 396.681428 72.456146 
L 397.681428 72.387747 
L 398.681428 72.321532 
L 399.681428 72.244615 
L 400.681428 72.217299 
L 401.681428 72.190822 
L 402.681428 72.168171 
L 403.681428 72.14864 
L 404.681428 72.122246 
L 405.681428 72.072475 
L 406.681428 72.037402 
L 407.681428 72.001536 
L 408.681428 71.986169 
L 409.681428 71.9704 
L 410.681428 71.966987 
L 411.681428 71.96457 
L 412.681428 71.965056 
L 413.681428 71.966985 
L 414.681428 71.980242 
L 415.681428 71.988633 
L 416.681428 72.010169 
L 417.681428 72.033202 
L 418.681428 72.050435 
L 419.681428 72.068898 
L 420.681428 72.08935 
L 421.681428 72.10595 
L 422.681428 72.168729 
L 423.681428 72.243994 
L 424.681428 72.276633 
L 425.681428 72.344197 
L 426.681428 72.398244 
L 427.681428 72.431948 
L 428.681428 72.522074 
L 429.681428 72.550609 
L 430.681428 72.582095 
L 431.681428 72.613106 
L 432.681428 72.667914 
L 433.681428 72.732501 
L 434.681428 72.770697 
L 435.681428 72.866631 
L 436.681428 72.915889 
L 437.681428 72.959958 
L 438.681428 73.000082 
L 439.681428 73.108449 
L 440.681428 73.150077 
L 441.681428 73.212219 
L 442.681428 73.282181 
L 443.681428 73.386685 
L 444.681428 73.423673 
L 445.681428 73.46955 
L 446.681428 73.538045 
L 447.681428 73.586791 
L 448.681428 73.664388 
L 449.681428 73.694929 
L 450.681428 73.764443 
L 451.681428 73.788416 
L 452.681428 73.817038 
L 453.681428 73.858831 
L 454.681428 73.880407 
L 455.681428 73.894355 
L 456.681428 73.921077 
L 457.681428 73.930387 
L 458.681428 73.942834 
L 459.681428 73.953889 
L 460.681428 73.959553 
L 461.681428 73.964317 
L 462.681428 73.958769 
L 463.681428 73.945481 
L 464.681428 73.937964 
L 465.681428 73.913179 
L 466.681428 73.88961 
L 467.681428 73.85343 
L 468.681428 73.827468 
L 469.681428 73.805146 
L 470.681428 73.736386 
L 471.681428 73.661851 
L 472.681428 73.567872 
L 473.681428 73.51682 
L 474.681428 73.462886 
L 475.681428 73.427635 
L 476.681428 73.321547 
L 477.681428 73.269283 
L 478.681428 73.232376 
L 479.681428 73.201345 
L 480.681428 73.14019 
L 481.681428 73.07277 
L 482.681428 73.023864 
L 483.681428 72.958672 
L 484.681428 72.920484 
L 485.681428 72.878488 
L 486.681428 72.836471 
L 487.681428 72.776955 
L 488.681428 72.663795 
L 489.681428 72.611544 
L 490.681428 72.572126 
L 491.681428 72.525025 
L 492.681428 72.468245 
L 493.681428 72.435582 
L 494.681428 72.399404 
L 495.681428 72.367314 
L 496.681428 72.333034 
L 497.681428 72.274656 
L 498.681428 72.229471 
L 499.681428 72.199847 
L 500.681428 72.149461 
L 501.681428 72.124264 
L 502.681428 72.103213 
L 503.681428 72.068245 
L 504.681428 72.043955 
L 505.681428 72.029888 
L 506.681428 72.010946 
L 507.681428 71.995285 
L 508.681428 71.982733 
L 509.681428 71.976897 
L 510.681428 71.970015 
L 511.681428 71.964841 
L 512.681428 71.966624 
L 513.681428 71.969349 
L 514.681428 71.980503 
L 515.681428 72.008738 
L 516.681428 72.052526 
L 517.681428 72.073215 
L 518.681428 72.114188 
L 519.681428 72.154263 
L 520.681428 72.173373 
L 521.681428 72.195882 
L 522.681428 72.262533 
L 523.681428 72.312243 
L 524.681428 72.385949 
L 525.681428 72.417263 
L 526.681428 72.493885 
L 527.681428 72.532183 
L 528.681428 72.6063 
L 529.681428 72.710358 
L 530.681428 72.780189 
L 531.681428 72.885423 
L 532.681428 72.940438 
L 533.681428 73.063913 
L 534.681428 73.134472 
L 535.681428 73.250311 
L 536.681428 73.300492 
L 537.681428 73.336096 
L 538.681428 73.427503 
L 539.681428 73.481011 
L 540.681428 73.568919 
L 541.681428 73.638104 
L 542.681428 73.684868 
L 543.681428 73.756912 
L 544.681428 73.807054 
L 545.681428 73.824444 
L 546.681428 73.851447 
L 547.681428 73.870874 
L 548.681428 73.890212 
L 549.681428 73.928461 
L 550.681428 73.944894 
L 551.681428 73.953263 
L 552.681428 73.957582 
L 553.681428 73.964137 
L 554.681428 73.961591 
L 555.681428 73.956132 
L 556.681428 73.939704 
L 557.681428 73.907769 
L 558.681428 73.869789 
L 560.628617 73.834985 
" clip-path="url(#p74a1592740)" style="fill: none; stroke: #1f77b4; stroke-linecap: round"/>
         <path d="M 556.628617 70.964375 
L 557.508986 71.439706 
L 558.386893 71.91996 
L 559.237606 72.454601 
L 560.539781 73.142048 
L 559.612428 73.168063 
L 558.700753 73.580783 
L 557.790489 73.996322 
L 556.447993 74.603126 
L 557.102892 73.964375 
L 557.154856 72.964375 
L 557.213946 70.964375 
z
" clip-path="url(#p74a1592740)" style="fill: #ffffff; stroke: #ffffff; stroke-width: 3; stroke-linecap: round"/>
         <path d="M 556.628617 70.964375 
L 557.508986 71.439706 
L 558.386893 71.91996 
L 559.237606 72.454601 
L 560.539781 73.142048 
L 559.612428 73.168063 
L 558.700753 73.580783 
L 557.790489 73.996322 
L 556.447993 74.603126 
L 557.102892 73.964375 
L 557.154856 72.964375 
L 557.213946 70.964375 
z
" clip-path="url(#p74a1592740)" style="fill: #ffffff; stroke: #1f77b4; stroke-linecap: round"/>
         <g id="patch_9">
          <path d="M 144.499987 261.775582 
L 145.499987 261.807018 
L 146.499987 261.843959 
L 147.499987 261.941705 
L 148.499987 261.974227 
L 149.499987 262.047852 
L 150.499987 262.086417 
L 151.499987 262.12183 
L 152.499987 262.17947 
L 153.499987 262.249857 
L 154.499987 262.301821 
L 155.499987 262.360911 
L 156.499987 262.449231 
L 157.499987 262.495376 
L 158.499987 262.537787 
L 159.499987 262.568279 
L 160.499987 262.594324 
L 161.499987 262.615524 
L 162.499987 262.669826 
L 163.499987 262.697763 
L 164.499987 262.727487 
L 165.499987 262.752882 
L 166.499987 262.764082 
L 167.499987 262.774206 
L 168.499987 262.774002 
L 169.499987 262.764492 
L 170.499987 262.752838 
L 171.499987 262.721809 
L 172.499987 262.710641 
L 173.499987 262.680524 
L 174.499987 262.620747 
L 175.499987 262.583555 
L 176.499987 262.544459 
L 177.499987 262.50202 
L 178.499987 262.469254 
L 179.499987 262.401828 
L 180.499987 262.362702 
L 181.499987 262.320028 
L 182.499987 262.249447 
L 183.499987 262.213056 
L 184.499987 262.154653 
L 185.499987 262.0437 
L 186.499987 261.973042 
L 187.499987 261.860102 
L 188.499987 261.814329 
L 189.499987 261.753046 
L 190.499987 261.704547 
L 191.499987 261.623724 
L 192.499987 261.505205 
L 193.499987 261.434994 
L 194.499987 261.351732 
L 195.499987 261.31859 
L 196.499987 261.267353 
L 197.499987 261.198955 
L 198.499987 261.132739 
L 199.499987 261.055822 
L 200.499987 261.028507 
L 201.499987 261.002029 
L 202.499987 260.979378 
L 203.499987 260.959847 
L 204.499987 260.933453 
L 205.499987 260.883682 
L 206.499987 260.848609 
L 207.499987 260.812744 
L 208.499987 260.797376 
L 209.499987 260.781607 
L 210.499987 260.778194 
L 211.499987 260.775777 
L 212.499987 260.776263 
L 213.499987 260.778192 
L 214.499987 260.791449 
L 215.499987 260.79984 
L 216.499987 260.821376 
L 217.499987 260.844409 
L 218.499987 260.861642 
L 219.499987 260.880105 
L 220.499987 260.900557 
L 221.499987 260.917157 
L 222.499987 260.979936 
L 223.499987 261.055201 
L 224.499987 261.08784 
L 225.499987 261.155404 
L 226.499987 261.209451 
L 227.499987 261.243155 
L 228.499987 261.333281 
L 229.499987 261.361816 
L 230.499987 261.393302 
L 231.499987 261.424313 
L 232.499987 261.479121 
L 233.499987 261.543708 
L 234.499987 261.581904 
L 235.499987 261.677838 
L 236.499987 261.727096 
L 237.499987 261.771165 
L 238.499987 261.811289 
L 239.499987 261.919656 
L 240.499987 261.961284 
L 241.499987 262.023426 
L 242.499987 262.093388 
L 243.499987 262.197892 
L 244.499987 262.23488 
L 245.499987 262.280757 
L 246.499987 262.349252 
L 247.499987 262.397998 
L 248.499987 262.475595 
L 249.499987 262.506136 
L 250.499987 262.57565 
L 251.499987 262.599623 
L 252.499987 262.628245 
L 253.499987 262.670038 
L 254.499987 262.691614 
L 255.499987 262.705562 
L 256.499987 262.732284 
L 257.499987 262.741594 
L 258.499987 262.754041 
L 259.499987 262.765096 
L 260.499987 262.77076 
L 261.499987 262.775524 
L 262.499987 262.769977 
L 263.499987 262.756688 
L 264.499987 262.749171 
L 265.499987 262.724386 
L 266.499987 262.700817 
L 267.499987 262.664637 
L 268.499987 262.638675 
L 269.499987 262.616353 
L 270.499987 262.547593 
L 271.499987 262.473058 
L 272.499987 262.379079 
L 273.499987 262.328027 
L 274.499987 262.274093 
L 275.499987 262.238842 
L 276.499987 262.132754 
L 277.499987 262.08049 
L 278.499987 262.043583 
L 279.499987 262.012553 
L 280.499987 261.951397 
L 281.499987 261.883977 
L 282.499987 261.835071 
L 283.499987 261.769879 
L 284.499987 261.731691 
L 285.499987 261.689696 
L 286.499987 261.647678 
L 287.499987 261.588162 
L 288.499987 261.475002 
L 289.499987 261.422751 
L 290.499987 261.383333 
L 291.499987 261.336232 
L 292.499987 261.279453 
L 293.499987 261.246789 
L 294.499987 261.210611 
L 295.499987 261.178521 
L 296.499987 261.144241 
L 297.499987 261.085863 
L 298.499987 261.040678 
L 299.499987 261.011054 
L 300.499987 260.960669 
L 301.499987 260.935471 
L 302.499987 260.91442 
L 303.499987 260.879452 
L 304.499987 260.855162 
L 305.499987 260.841095 
L 306.499987 260.822153 
L 307.499987 260.806492 
L 308.499987 260.79394 
L 309.499987 260.788104 
L 310.499987 260.781222 
L 311.499987 260.776048 
L 312.499987 260.777831 
L 313.499987 260.780556 
L 314.499987 260.79171 
L 315.499987 260.819945 
L 316.499987 260.863733 
L 317.499987 260.884422 
L 318.499987 260.925395 
L 319.499987 260.96547 
L 320.499987 260.98458 
L 321.499987 261.007089 
L 322.499987 261.07374 
L 323.499987 261.12345 
L 324.499987 261.197157 
L 325.499987 261.22847 
L 326.499987 261.305092 
L 327.499987 261.34339 
L 328.499987 261.417507 
L 329.499987 261.521565 
L 330.499987 261.591396 
L 331.499987 261.69663 
L 332.499987 261.751645 
L 333.499987 261.87512 
L 334.499987 261.945679 
L 335.499987 262.061518 
L 336.499987 262.111699 
L 337.499987 262.147303 
L 338.499987 262.23871 
L 339.499987 262.292218 
L 340.499987 262.380126 
L 341.499987 262.449311 
L 342.499987 262.496075 
L 343.499987 262.568119 
L 344.499987 262.618261 
L 345.499987 262.635651 
L 346.499987 262.662654 
L 347.499987 262.682081 
L 348.499987 262.70142 
L 349.499987 262.739668 
L 350.499987 262.756101 
L 351.499987 262.76447 
L 352.499987 262.768789 
L 353.499987 262.775344 
L 354.499987 262.772798 
L 355.499987 262.767339 
L 356.499987 262.750911 
L 357.499987 262.718976 
L 358.499987 262.680996 
L 359.499987 262.646192 
L 360.499987 262.58312 
L 361.499987 262.561693 
L 362.499987 262.511075 
L 363.499987 262.486118 
L 364.499987 262.430485 
L 365.499987 262.399256 
L 366.499987 262.349111 
L 367.499987 262.316618 
L 368.499987 262.236206 
L 369.499987 262.16728 
L 370.499987 262.051583 
L 371.499987 261.976104 
L 372.499987 261.860579 
L 373.499987 261.781095 
L 374.499987 261.672654 
L 375.499987 261.633286 
L 376.499987 261.530418 
L 377.499987 261.43062 
L 378.499987 261.385123 
L 379.499987 261.350801 
L 380.499987 261.298845 
L 381.499987 261.259198 
L 382.499987 261.223684 
L 383.499987 261.156039 
L 384.499987 261.116957 
L 385.499987 261.066476 
L 386.499987 261.01717 
L 387.499987 260.966101 
L 388.499987 260.921861 
L 389.499987 260.899841 
L 390.499987 260.884285 
L 391.499987 260.841838 
L 392.499987 260.82697 
L 393.499987 260.804242 
L 394.499987 260.783926 
L 395.499987 260.778129 
L 396.499987 260.775647 
L 397.499987 260.778704 
L 398.499987 260.7903 
L 399.499987 260.80722 
L 400.499987 260.838881 
L 401.499987 260.852964 
L 402.499987 260.905636 
L 403.499987 260.954725 
L 404.499987 261.009426 
L 405.499987 261.053774 
L 406.499987 261.123766 
L 407.499987 261.174149 
L 408.499987 261.228056 
L 409.499987 261.297495 
L 410.499987 261.354883 
L 411.499987 261.405048 
L 412.499987 261.48221 
L 413.499987 261.5404 
L 414.499987 261.601038 
L 415.499987 261.638239 
L 416.499987 261.703331 
L 417.499987 261.808461 
L 418.499987 261.868763 
L 419.499987 261.965085 
L 420.499987 261.997088 
L 421.499987 262.048105 
L 422.499987 262.164897 
L 423.499987 262.200344 
L 424.499987 262.256224 
L 425.499987 262.2866 
L 426.499987 262.374986 
L 427.499987 262.41975 
L 428.499987 262.500638 
L 429.499987 262.560784 
L 430.499987 262.62387 
L 431.499987 262.646819 
L 432.499987 262.662988 
L 433.499987 262.691917 
L 434.499987 262.722269 
L 435.499987 262.734844 
L 436.499987 262.759722 
L 437.953702 262.771807 
" clip-path="url(#p74a1592740)" style="fill: none; stroke: #ffffff; stroke-width: 3; stroke-linecap: round"/>
          <path d="M 144.499987 261.775582 
L 145.499987 261.807018 
L 146.499987 261.843959 
L 147.499987 261.941705 
L 148.499987 261.974227 
L 149.499987 262.047852 
L 150.499987 262.086417 
L 151.499987 262.12183 
L 152.499987 262.17947 
L 153.499987 262.249857 
L 154.499987 262.301821 
L 155.499987 262.360911 
L 156.499987 262.449231 
L 157.499987 262.495376 
L 158.499987 262.537787 
L 159.499987 262.568279 
L 160.499987 262.594324 
L 161.499987 262.615524 
L 162.499987 262.669826 
L 163.499987 262.697763 
L 164.499987 262.727487 
L 165.499987 262.752882 
L 166.499987 262.764082 
L 167.499987 262.774206 
L 168.499987 262.774002 
L 169.499987 262.764492 
L 170.499987 262.752838 
L 171.499987 262.721809 
L 172.499987 262.710641 
L 173.499987 262.680524 
L 174.499987 262.620747 
L 175.499987 262.583555 
L 176.499987 262.544459 
L 177.499987 262.50202 
L 178.499987 262.469254 
L 179.499987 262.401828 
L 180.499987 262.362702 
L 181.499987 262.320028 
L 182.499987 262.249447 
L 183.499987 262.213056 
L 184.499987 262.154653 
L 185.499987 262.0437 
L 186.499987 261.973042 
L 187.499987 261.860102 
L 188.499987 261.814329 
L 189.499987 261.753046 
L 190.499987 261.704547 
L 191.499987 261.623724 
L 192.499987 261.505205 
L 193.499987 261.434994 
L 194.499987 261.351732 
L 195.499987 261.31859 
L 196.499987 261.267353 
L 197.499987 261.198955 
L 198.499987 261.132739 
L 199.499987 261.055822 
L 200.499987 261.028507 
L 201.499987 261.002029 
L 202.499987 260.979378 
L 203.499987 260.959847 
L 204.499987 260.933453 
L 205.499987 260.883682 
L 206.499987 260.848609 
L 207.499987 260.812744 
L 208.499987 260.797376 
L 209.499987 260.781607 
L 210.499987 260.778194 
L 211.499987 260.775777 
L 212.499987 260.776263 
L 213.499987 260.778192 
L 214.499987 260.791449 
L 215.499987 260.79984 
L 216.499987 260.821376 
L 217.499987 260.844409 
L 218.499987 260.861642 
L 219.499987 260.880105 
L 220.499987 260.900557 
L 221.499987 260.917157 
L 222.499987 260.979936 
L 223.499987 261.055201 
L 224.499987 261.08784 
L 225.499987 261.155404 
L 226.499987 261.209451 
L 227.499987 261.243155 
L 228.499987 261.333281 
L 229.499987 261.361816 
L 230.499987 261.393302 
L 231.499987 261.424313 
L 232.499987 261.479121 
L 233.499987 261.543708 
L 234.499987 261.581904 
L 235.499987 261.677838 
L 236.499987 261.727096 
L 237.499987 261.771165 
L 238.499987 261.811289 
L 239.499987 261.919656 
L 240.499987 261.961284 
L 241.499987 262.023426 
L 242.499987 262.093388 
L 243.499987 262.197892 
L 244.499987 262.23488 
L 245.499987 262.280757 
L 246.499987 262.349252 
L 247.499987 262.397998 
L 248.499987 262.475595 
L 249.499987 262.506136 
L 250.499987 262.57565 
L 251.499987 262.599623 
L 252.499987 262.628245 
L 253.499987 262.670038 
L 254.499987 262.691614 
L 255.499987 262.705562 
L 256.499987 262.732284 
L 257.499987 262.741594 
L 258.499987 262.754041 
L 259.499987 262.765096 
L 260.499987 262.77076 
L 261.499987 262.775524 
L 262.499987 262.769977 
L 263.499987 262.756688 
L 264.499987 262.749171 
L 265.499987 262.724386 
L 266.499987 262.700817 
L 267.499987 262.664637 
L 268.499987 262.638675 
L 269.499987 262.616353 
L 270.499987 262.547593 
L 271.499987 262.473058 
L 272.499987 262.379079 
L 273.499987 262.328027 
L 274.499987 262.274093 
L 275.499987 262.238842 
L 276.499987 262.132754 
L 277.499987 262.08049 
L 278.499987 262.043583 
L 279.499987 262.012553 
L 280.499987 261.951397 
L 281.499987 261.883977 
L 282.499987 261.835071 
L 283.499987 261.769879 
L 284.499987 261.731691 
L 285.499987 261.689696 
L 286.499987 261.647678 
L 287.499987 261.588162 
L 288.499987 261.475002 
L 289.499987 261.422751 
L 290.499987 261.383333 
L 291.499987 261.336232 
L 292.499987 261.279453 
L 293.499987 261.246789 
L 294.499987 261.210611 
L 295.499987 261.178521 
L 296.499987 261.144241 
L 297.499987 261.085863 
L 298.499987 261.040678 
L 299.499987 261.011054 
L 300.499987 260.960669 
L 301.499987 260.935471 
L 302.499987 260.91442 
L 303.499987 260.879452 
L 304.499987 260.855162 
L 305.499987 260.841095 
L 306.499987 260.822153 
L 307.499987 260.806492 
L 308.499987 260.79394 
L 309.499987 260.788104 
L 310.499987 260.781222 
L 311.499987 260.776048 
L 312.499987 260.777831 
L 313.499987 260.780556 
L 314.499987 260.79171 
L 315.499987 260.819945 
L 316.499987 260.863733 
L 317.499987 260.884422 
L 318.499987 260.925395 
L 319.499987 260.96547 
L 320.499987 260.98458 
L 321.499987 261.007089 
L 322.499987 261.07374 
L 323.499987 261.12345 
L 324.499987 261.197157 
L 325.499987 261.22847 
L 326.499987 261.305092 
L 327.499987 261.34339 
L 328.499987 261.417507 
L 329.499987 261.521565 
L 330.499987 261.591396 
L 331.499987 261.69663 
L 332.499987 261.751645 
L 333.499987 261.87512 
L 334.499987 261.945679 
L 335.499987 262.061518 
L 336.499987 262.111699 
L 337.499987 262.147303 
L 338.499987 262.23871 
L 339.499987 262.292218 
L 340.499987 262.380126 
L 341.499987 262.449311 
L 342.499987 262.496075 
L 343.499987 262.568119 
L 344.499987 262.618261 
L 345.499987 262.635651 
L 346.499987 262.662654 
L 347.499987 262.682081 
L 348.499987 262.70142 
L 349.499987 262.739668 
L 350.499987 262.756101 
L 351.499987 262.76447 
L 352.499987 262.768789 
L 353.499987 262.775344 
L 354.499987 262.772798 
L 355.499987 262.767339 
L 356.499987 262.750911 
L 357.499987 262.718976 
L 358.499987 262.680996 
L 359.499987 262.646192 
L 360.499987 262.58312 
L 361.499987 262.561693 
L 362.499987 262.511075 
L 363.499987 262.486118 
L 364.499987 262.430485 
L 365.499987 262.399256 
L 366.499987 262.349111 
L 367.499987 262.316618 
L 368.499987 262.236206 
L 369.499987 262.16728 
L 370.499987 262.051583 
L 371.499987 261.976104 
L 372.499987 261.860579 
L 373.499987 261.781095 
L 374.499987 261.672654 
L 375.499987 261.633286 
L 376.499987 261.530418 
L 377.499987 261.43062 
L 378.499987 261.385123 
L 379.499987 261.350801 
L 380.499987 261.298845 
L 381.499987 261.259198 
L 382.499987 261.223684 
L 383.499987 261.156039 
L 384.499987 261.116957 
L 385.499987 261.066476 
L 386.499987 261.01717 
L 387.499987 260.966101 
L 388.499987 260.921861 
L 389.499987 260.899841 
L 390.499987 260.884285 
L 391.499987 260.841838 
L 392.499987 260.82697 
L 393.499987 260.804242 
L 394.499987 260.783926 
L 395.499987 260.778129 
L 396.499987 260.775647 
L 397.499987 260.778704 
L 398.499987 260.7903 
L 399.499987 260.80722 
L 400.499987 260.838881 
L 401.499987 260.852964 
L 402.499987 260.905636 
L 403.499987 260.954725 
L 404.499987 261.009426 
L 405.499987 261.053774 
L 406.499987 261.123766 
L 407.499987 261.174149 
L 408.499987 261.228056 
L 409.499987 261.297495 
L 410.499987 261.354883 
L 411.499987 261.405048 
L 412.499987 261.48221 
L 413.499987 261.5404 
L 414.499987 261.601038 
L 415.499987 261.638239 
L 416.499987 261.703331 
L 417.499987 261.808461 
L 418.499987 261.868763 
L 419.499987 261.965085 
L 420.499987 261.997088 
L 421.499987 262.048105 
L 422.499987 262.164897 
L 423.499987 262.200344 
L 424.499987 262.256224 
L 425.499987 262.2866 
L 426.499987 262.374986 
L 427.499987 262.41975 
L 428.499987 262.500638 
L 429.499987 262.560784 
L 430.499987 262.62387 
L 431.499987 262.646819 
L 432.499987 262.662988 
L 433.499987 262.691917 
L 434.499987 262.722269 
L 435.499987 262.734844 
L 436.499987 262.759722 
L 437.953702 262.771807 
" clip-path="url(#p74a1592740)" style="fill: none; stroke: #ff7f0e; stroke-linecap: round"/>
          <path d="M 433.953702 259.775582 
L 434.834071 260.250913 
L 435.711978 260.731167 
L 436.562691 261.265808 
L 437.864865 261.953255 
L 436.937512 261.97927 
L 436.025838 262.39199 
L 435.115574 262.807529 
L 433.773078 263.414333 
L 434.427977 262.775582 
L 434.479941 261.775582 
L 434.539031 259.775582 
z
" clip-path="url(#p74a1592740)" style="fill: #ffffff; stroke: #ffffff; stroke-width: 3; stroke-linecap: round"/>
          <path d="M 433.953702 259.775582 
L 434.834071 260.250913 
L 435.711978 260.731167 
L 436.562691 261.265808 
L 437.864865 261.953255 
L 436.937512 261.97927 
L 436.025838 262.39199 
L 435.115574 262.807529 
L 433.773078 263.414333 
L 434.427977 262.775582 
L 434.479941 261.775582 
L 434.539031 259.775582 
z
" clip-path="url(#p74a1592740)" style="fill: #ffffff; stroke: #ff7f0e; stroke-linecap: round"/>
          <path d="M 451.319751 302.516445 
" clip-path="url(#p74a1592740)" style="fill: none; stroke-dasharray: 3.7,1.6; stroke-dashoffset: 0; stroke: #2ca02c"/>
          <path d="M 450.319751 302.516445 
L 452.319751 303.516445 
L 452.319751 301.516445 
z
" clip-path="url(#p74a1592740)" style="fill: #2ca02c; stroke: #2ca02c; stroke-linejoin: miter"/>
          <g id="patch_10">
           <path d="M 63.290625 321.621875 
L 63.290625 10.8 
" style="fill: none; stroke: #000000; stroke-width: 0.8; stroke-linejoin: miter; stroke-linecap: square"/>
          </g>
          <g id="text_10">
           <g id="patch_11">
            <path d="M 308.655513 98.173667 
L 329.9602 98.173667 
Q 331.9602 98.173667 331.9602 96.173667 
L 331.9602 86.495542 
Q 331.9602 84.495542 329.9602 84.495542 
L 308.655513 84.495542 
Q 306.655513 84.495542 306.655513 86.495542 
L 306.655513 96.173667 
Q 306.655513 98.173667 308.655513 98.173667 
z
" style="fill: #ffffff; opacity: 0.6"/>
           </g>
           <!-- ANC -->
           <g transform="translate(308.655513 94.09398) scale(0.1 -0.1)">
            <defs>
             <path id="DejaVuSans-4e" d="M 628 4666 
L 1478 4666 
L 3547 763 
L 3547 4666 
L 4159 4666 
L 4159 0 
L 3309 0 
L 1241 3903 
L 1241 0 
L 628 0 
L 628 4666 
z
" transform="scale(0.015625)"/>
            </defs>
            <use xlink:href="#DejaVuSans-41"/>
            <use xlink:href="#DejaVuSans-4e" x="68.408203"/>
            <use xlink:href="#DejaVuSans-43" x="143.212891"/>
           </g>
          </g>
         </g>
        </g>
        <defs>
         <clipPath id="p74a1592740">
          <rect x="63.290625" y="10.8" width="540.309375" height="310.821875"/>
         </clipPath>
        </defs>
       </g>
      </g>
     </g>
    </g>
   </g>
  </g>
 </g>
</svg>
