<?xml version="1.0" encoding="utf-8" standalone="no"?>
<!DOCTYPE svg PUBLIC "-//W3C//DTD SVG 1.1//EN"
  "http://www.w3.org/Graphics/SVG/1.1/DTD/svg11.dtd">
<svg xmlns:xlink="http://www.w3.org/1999/xlink" width="614.4pt" height="345.6pt" viewBox="0 0 614.4 345.6" xmlns="http://www.w3.org/2000/svg" version="1.1">
 <metadata>
  <rdf:RDF xmlns:dc="http://purl.org/dc/elements/1.1/" xmlns:cc="http://creativecommons.org/ns#" xmlns:rdf="http://www.w3.org/1999/02/22-rdf-syntax-ns#">
   <cc:Work>
    <dc:type rdf:resource="http://purl.org/dc/dcmitype/StillImage"/>
    <dc:date>2024-04-17T19:40:10.981500</dc:date>
    <dc:format>image/svg+xml</dc:format>
    <dc:creator>
     <cc:Agent>
      <dc:title>Matplotlib v3.7.1, https://matplotlib.org/</dc:title>
     </cc:Agent>
    </dc:creator>
   </cc:Work>
  </rdf:RDF>
 </metadata>
 <defs>
  <style type="text/css">*{stroke-linejoin: round; stroke-linecap: butt}</style>
 </defs>
 <g id="figure_1">
  <g id="patch_1">
   <path d="M 0 345.6 
L 614.4 345.6 
L 614.4 0 
L 0 0 
z
" style="fill: #ffffff"/>
  </g>
  <g id="axes_1">
   <g id="patch_2">
    <path d="M 63.290625 321.621875 
L 603.6 321.621875 
L 603.6 10.950973 
L 63.290625 10.950973 
z
" style="fill: #ffffff"/>
   </g>
   <path d="M 532.894493 302.820448 
L 531.894493 302.789012 
L 530.894493 302.752072 
L 529.894493 302.654325 
L 528.894493 302.621803 
L 527.894493 302.548179 
L 526.894493 302.509613 
L 525.894493 302.4742 
L 524.894493 302.41656 
L 523.894493 302.346174 
L 522.894493 302.29421 
L 521.894493 302.23512 
L 520.894493 302.146799 
L 519.894493 302.100655 
L 518.894493 302.058244 
L 517.894493 302.027751 
L 516.894493 302.001706 
L 515.894493 301.980506 
L 514.894493 301.926205 
L 513.894493 301.898267 
L 512.894493 301.868543 
L 511.894493 301.843149 
L 510.894493 301.831948 
L 509.894493 301.821824 
L 508.894493 301.822028 
L 507.894493 301.831538 
L 506.894493 301.843192 
L 505.894493 301.874221 
L 504.894493 301.885389 
L 503.894493 301.915507 
L 502.894493 301.975284 
L 501.894493 302.012475 
L 500.894493 302.051571 
L 499.894493 302.094011 
L 498.894493 302.126776 
L 497.894493 302.194202 
L 496.894493 302.233328 
L 495.894493 302.276003 
L 494.894493 302.346583 
L 493.894493 302.382974 
L 492.894493 302.441378 
L 491.894493 302.55233 
L 490.894493 302.622988 
L 489.894493 302.735928 
L 488.894493 302.781701 
L 487.894493 302.842984 
L 486.894493 302.891484 
L 485.894493 302.972306 
L 484.894493 303.090825 
L 483.894493 303.161036 
L 482.894493 303.244298 
L 481.894493 303.27744 
L 480.894493 303.328677 
L 479.894493 303.397076 
L 478.894493 303.463291 
L 477.894493 303.540208 
L 476.894493 303.567524 
L 475.894493 303.594001 
L 474.894493 303.616652 
L 473.894493 303.636183 
L 472.894493 303.662577 
L 471.894493 303.712348 
L 470.894493 303.747421 
L 469.894493 303.783287 
L 468.894493 303.798654 
L 467.894493 303.814423 
L 466.894493 303.817836 
L 465.894493 303.820254 
L 464.894493 303.819767 
L 463.894493 303.817838 
L 462.894493 303.804581 
L 461.894493 303.796191 
L 460.894493 303.774654 
L 459.894493 303.751622 
L 458.894493 303.734388 
L 457.894493 303.715926 
L 456.894493 303.695473 
L 455.894493 303.678873 
L 454.894493 303.616094 
L 453.894493 303.540829 
L 452.894493 303.50819 
L 451.894493 303.440627 
L 450.894493 303.38658 
L 449.894493 303.352875 
L 448.894493 303.262749 
L 447.894493 303.234214 
L 446.894493 303.202728 
L 445.894493 303.171717 
L 444.894493 303.116909 
L 443.894493 303.052322 
L 442.894493 303.014127 
L 441.894493 302.918192 
L 440.894493 302.868934 
L 439.20069 302.824865 
" clip-path="url(#pc1b9f00940)" style="fill: none; stroke-dasharray: 3.7,1.6; stroke-dashoffset: 0; stroke: #2ca02c"/>
   <g id="patch_3">
    <path d="M 234.405018 10.950973 
L 234.405018 288.799045 
M 369.205119 10.950973 
L 369.205119 288.799045 
" clip-path="url(#pc1b9f00940)" style="fill: none; stroke: #ffffff; stroke-width: 3; stroke-linejoin: miter"/>
    <path d="M 234.405018 10.950973 
L 234.405018 288.799045 
M 369.205119 10.950973 
L 369.205119 288.799045 
" clip-path="url(#pc1b9f00940)" style="fill: none; stroke: #1f77b4; stroke-linejoin: miter"/>
    <g id="PolyCollection_1">
     <path d="M 369.205119 10.950973 
L 234.405018 10.950973 
L 234.405018 288.799045 
L 369.205119 288.799045 
L 369.205119 288.799045 
L 369.205119 10.950973 
z
" clip-path="url(#pc1b9f00940)" style="fill: #1f77b4; fill-opacity: 0.5"/>
    </g>
    <g id="patch_4">
     <path d="M 94.148364 288.799045 
L 94.041743 320.601121 
L 89.4463 321.390364 
L 87.850142 321.621875 
M 124.165823 288.799045 
L 124.272444 320.601121 
L 128.867887 321.390364 
L 130.464045 321.621875 
L 130.464045 321.621875 
" clip-path="url(#pc1b9f00940)" style="fill: none; stroke: #ffffff; stroke-width: 3; stroke-linejoin: miter"/>
     <path d="M 94.148364 288.799045 
L 94.041743 320.601121 
L 89.4463 321.390364 
L 87.850142 321.621875 
M 124.165823 288.799045 
L 124.272444 320.601121 
L 128.867887 321.390364 
L 130.464045 321.621875 
L 130.464045 321.621875 
" clip-path="url(#pc1b9f00940)" style="fill: none; stroke: #ff7f0e; stroke-linejoin: miter"/>
     <g id="PolyCollection_2">
      <path d="M 124.165823 288.799045 
L 94.148364 288.799045 
L 94.148364 320.580075 
L 94.148364 320.580075 
L 94.095148 320.590598 
L 94.041743 320.601121 
L 93.988149 320.611645 
L 93.934365 320.622168 
L 93.88039 320.632691 
L 93.826224 320.643214 
L 93.771865 320.653738 
L 93.717314 320.664261 
L 93.66257 320.674784 
L 93.607631 320.685307 
L 93.552498 320.695831 
L 93.497169 320.706354 
L 93.441644 320.716877 
L 93.385922 320.7274 
L 93.330002 320.737923 
L 93.273885 320.748447 
L 93.217568 320.75897 
L 93.161051 320.769493 
L 93.104334 320.780016 
L 93.047417 320.79054 
L 92.990297 320.801063 
L 92.932975 320.811586 
L 92.875449 320.822109 
L 92.81772 320.832633 
L 92.759785 320.843156 
L 92.701646 320.853679 
L 92.6433 320.864202 
L 92.584747 320.874725 
L 92.525987 320.885249 
L 92.467019 320.895772 
L 92.407841 320.906295 
L 92.348453 320.916818 
L 92.288855 320.927342 
L 92.229046 320.937865 
L 92.169025 320.948388 
L 92.10879 320.958911 
L 92.048343 320.969435 
L 91.98768 320.979958 
L 91.926803 320.990481 
L 91.86571 321.001004 
L 91.8044 321.011527 
L 91.742873 321.022051 
L 91.681128 321.032574 
L 91.619164 321.043097 
L 91.55698 321.05362 
L 91.494576 321.064144 
L 91.43195 321.074667 
L 91.369102 321.08519 
L 91.306032 321.095713 
L 91.242738 321.106237 
L 91.179219 321.11676 
L 91.115475 321.127283 
L 91.051506 321.137806 
L 90.987309 321.14833 
L 90.922885 321.158853 
L 90.858232 321.169376 
L 90.79335 321.179899 
L 90.728238 321.190422 
L 90.662896 321.200946 
L 90.597321 321.211469 
L 90.531514 321.221992 
L 90.465474 321.232515 
L 90.399199 321.243039 
L 90.33269 321.253562 
L 90.265944 321.264085 
L 90.198963 321.274608 
L 90.131743 321.285132 
L 90.064285 321.295655 
L 89.996588 321.306178 
L 89.928651 321.316701 
L 89.860473 321.327224 
L 89.792054 321.337748 
L 89.723392 321.348271 
L 89.654486 321.358794 
L 89.585336 321.369317 
L 89.515941 321.379841 
L 89.4463 321.390364 
L 89.376411 321.400887 
L 89.306275 321.41141 
L 89.235891 321.421934 
L 89.165257 321.432457 
L 89.094372 321.44298 
L 89.023236 321.453503 
L 88.951848 321.464027 
L 88.880206 321.47455 
L 88.808311 321.485073 
L 88.736161 321.495596 
L 88.663755 321.506119 
L 88.591092 321.516643 
L 88.518172 321.527166 
L 88.444993 321.537689 
L 88.371554 321.548212 
L 88.297855 321.558736 
L 88.223895 321.569259 
L 88.149673 321.579782 
L 88.075187 321.590305 
L 88.000437 321.600829 
L 87.925423 321.611352 
L 87.850142 321.621875 
L 130.464045 321.621875 
L 130.464045 321.621875 
L 130.388764 321.611352 
L 130.313749 321.600829 
L 130.239 321.590305 
L 130.164514 321.579782 
L 130.090292 321.569259 
L 130.016332 321.558736 
L 129.942633 321.548212 
L 129.869194 321.537689 
L 129.796015 321.527166 
L 129.723095 321.516643 
L 129.650432 321.506119 
L 129.578026 321.495596 
L 129.505876 321.485073 
L 129.43398 321.47455 
L 129.362339 321.464027 
L 129.290951 321.453503 
L 129.219815 321.44298 
L 129.14893 321.432457 
L 129.078296 321.421934 
L 129.007911 321.41141 
L 128.937775 321.400887 
L 128.867887 321.390364 
L 128.798246 321.379841 
L 128.728851 321.369317 
L 128.659701 321.358794 
L 128.590795 321.348271 
L 128.522133 321.337748 
L 128.453713 321.327224 
L 128.385535 321.316701 
L 128.317598 321.306178 
L 128.249901 321.295655 
L 128.182444 321.285132 
L 128.115224 321.274608 
L 128.048242 321.264085 
L 127.981497 321.253562 
L 127.914988 321.243039 
L 127.848713 321.232515 
L 127.782673 321.221992 
L 127.716866 321.211469 
L 127.651291 321.200946 
L 127.585948 321.190422 
L 127.520836 321.179899 
L 127.455955 321.169376 
L 127.391302 321.158853 
L 127.326878 321.14833 
L 127.262681 321.137806 
L 127.198711 321.127283 
L 127.134968 321.11676 
L 127.071449 321.106237 
L 127.008155 321.095713 
L 126.945084 321.08519 
L 126.882237 321.074667 
L 126.819611 321.064144 
L 126.757207 321.05362 
L 126.695023 321.043097 
L 126.633059 321.032574 
L 126.571313 321.022051 
L 126.509786 321.011527 
L 126.448477 321.001004 
L 126.387384 320.990481 
L 126.326506 320.979958 
L 126.265844 320.969435 
L 126.205396 320.958911 
L 126.145162 320.948388 
L 126.085141 320.937865 
L 126.025331 320.927342 
L 125.965733 320.916818 
L 125.906346 320.906295 
L 125.847168 320.895772 
L 125.7882 320.885249 
L 125.729439 320.874725 
L 125.670887 320.864202 
L 125.612541 320.853679 
L 125.554401 320.843156 
L 125.496467 320.832633 
L 125.438738 320.822109 
L 125.381212 320.811586 
L 125.32389 320.801063 
L 125.26677 320.79054 
L 125.209852 320.780016 
L 125.153135 320.769493 
L 125.096619 320.75897 
L 125.040302 320.748447 
L 124.984184 320.737923 
L 124.928265 320.7274 
L 124.872543 320.716877 
L 124.817018 320.706354 
L 124.761689 320.695831 
L 124.706556 320.685307 
L 124.651617 320.674784 
L 124.596873 320.664261 
L 124.542321 320.653738 
L 124.487963 320.643214 
L 124.433797 320.632691 
L 124.379822 320.622168 
L 124.326038 320.611645 
L 124.272444 320.601121 
L 124.219039 320.590598 
L 124.165823 320.580075 
L 124.165823 320.580075 
L 124.165823 288.799045 
z
" clip-path="url(#pc1b9f00940)" style="fill: #ff7f0e; fill-opacity: 0.5"/>
     </g>
     <g id="patch_5">
      <path d="M 538.297587 73.085153 
L 538.297587 321.621875 
M 579.040483 73.085153 
L 579.040483 321.621875 
" clip-path="url(#pc1b9f00940)" style="fill: none; stroke: #ffffff; stroke-width: 3; stroke-linejoin: miter"/>
      <path d="M 538.297587 73.085153 
L 538.297587 321.621875 
M 579.040483 73.085153 
L 579.040483 321.621875 
" clip-path="url(#pc1b9f00940)" style="fill: none; stroke: #2ca02c; stroke-linejoin: miter"/>
      <g id="PolyCollection_3">
       <path d="M 579.040483 73.085153 
L 538.297587 73.085153 
L 538.297587 321.621875 
L 579.040483 321.621875 
L 579.040483 321.621875 
L 579.040483 73.085153 
z
" clip-path="url(#pc1b9f00940)" style="fill: #2ca02c; fill-opacity: 0.5"/>
      </g>
      <g id="patch_6">
       <path d="M 426.676507 288.799045 
L 426.676507 293.787429 
L 429.095049 293.787429 
L 429.095049 294.424766 
L 426.676507 294.424766 
L 426.676507 309.916945 
L 426.676507 309.916945 
L 425.535018 310.98103 
L 424.216501 311.926883 
L 422.528254 312.872735 
L 420.366598 313.818588 
L 417.598783 314.764441 
L 414.054833 315.710294 
L 409.51711 316.656147 
L 403.706945 317.602 
L 396.267528 318.547853 
L 386.741992 319.493706 
L 374.545362 320.439559 
L 358.928624 321.385412 
L 354.383053 321.621875 
M 433.797597 288.799045 
L 433.797597 293.787429 
L 431.379054 293.787429 
L 431.379054 294.424766 
L 433.797597 294.424766 
L 433.797597 309.916945 
L 433.797597 309.916945 
L 434.939085 310.98103 
L 436.257602 311.926883 
L 437.94585 312.872735 
L 440.107506 313.818588 
L 442.875321 314.764441 
L 446.41927 315.710294 
L 450.956994 316.656147 
L 456.767159 317.602 
L 464.206576 318.547853 
L 473.732111 319.493706 
L 485.928742 320.439559 
L 501.545479 321.385412 
L 506.09105 321.621875 
L 506.09105 321.621875 
" clip-path="url(#pc1b9f00940)" style="fill: none; stroke: #ffffff; stroke-width: 3; stroke-linejoin: miter"/>
       <path d="M 426.676507 288.799045 
L 426.676507 293.787429 
L 429.095049 293.787429 
L 429.095049 294.424766 
L 426.676507 294.424766 
L 426.676507 309.916945 
L 426.676507 309.916945 
L 425.535018 310.98103 
L 424.216501 311.926883 
L 422.528254 312.872735 
L 420.366598 313.818588 
L 417.598783 314.764441 
L 414.054833 315.710294 
L 409.51711 316.656147 
L 403.706945 317.602 
L 396.267528 318.547853 
L 386.741992 319.493706 
L 374.545362 320.439559 
L 358.928624 321.385412 
L 354.383053 321.621875 
M 433.797597 288.799045 
L 433.797597 293.787429 
L 431.379054 293.787429 
L 431.379054 294.424766 
L 433.797597 294.424766 
L 433.797597 309.916945 
L 433.797597 309.916945 
L 434.939085 310.98103 
L 436.257602 311.926883 
L 437.94585 312.872735 
L 440.107506 313.818588 
L 442.875321 314.764441 
L 446.41927 315.710294 
L 450.956994 316.656147 
L 456.767159 317.602 
L 464.206576 318.547853 
L 473.732111 319.493706 
L 485.928742 320.439559 
L 501.545479 321.385412 
L 506.09105 321.621875 
L 506.09105 321.621875 
" clip-path="url(#pc1b9f00940)" style="fill: none; stroke: #d62728; stroke-linejoin: miter"/>
       <g id="PolyCollection_4">
        <path d="M 433.797597 288.799045 
L 426.676507 288.799045 
L 426.676507 293.787429 
L 429.095049 293.787429 
L 429.095049 294.424766 
L 426.676507 294.424766 
L 426.676507 309.916945 
L 426.676507 309.916945 
L 426.564776 310.035177 
L 426.449539 310.153408 
L 426.330686 310.27164 
L 426.208103 310.389872 
L 426.081674 310.508103 
L 425.951277 310.626335 
L 425.816789 310.744566 
L 425.67808 310.862798 
L 425.535018 310.98103 
L 425.387467 311.099261 
L 425.235286 311.217493 
L 425.078329 311.335724 
L 424.916447 311.453956 
L 424.749485 311.572188 
L 424.577284 311.690419 
L 424.399679 311.808651 
L 424.216501 311.926883 
L 424.027575 312.045114 
L 423.83272 312.163346 
L 423.63175 312.281577 
L 423.424475 312.399809 
L 423.210694 312.518041 
L 422.990205 312.636272 
L 422.762798 312.754504 
L 422.528254 312.872735 
L 422.28635 312.990967 
L 422.036855 313.109199 
L 421.779531 313.22743 
L 421.514131 313.345662 
L 421.240404 313.463894 
L 420.958087 313.582125 
L 420.666911 313.700357 
L 420.366598 313.818588 
L 420.05686 313.93682 
L 419.737403 314.055052 
L 419.407922 314.173283 
L 419.068101 314.291515 
L 418.717617 314.409746 
L 418.356134 314.527978 
L 417.983308 314.64621 
L 417.598783 314.764441 
L 417.202191 314.882673 
L 416.793153 315.000905 
L 416.371281 315.119136 
L 415.936169 315.237368 
L 415.487404 315.355599 
L 415.024557 315.473831 
L 414.547185 315.592063 
L 414.054833 315.710294 
L 413.547031 315.828526 
L 413.023294 315.946757 
L 412.483122 316.064989 
L 411.926 316.183221 
L 411.351394 316.301452 
L 410.758758 316.419684 
L 410.147524 316.537916 
L 409.51711 316.656147 
L 408.866913 316.774379 
L 408.196313 316.89261 
L 407.504669 317.010842 
L 406.791321 317.129074 
L 406.055589 317.247305 
L 405.296768 317.365537 
L 404.514136 317.483768 
L 403.706945 317.602 
L 402.874424 317.720232 
L 402.015778 317.838463 
L 401.130187 317.956695 
L 400.216807 318.074927 
L 399.274764 318.193158 
L 398.30316 318.31139 
L 397.301067 318.429621 
L 396.267528 318.547853 
L 395.201556 318.666085 
L 394.102133 318.784316 
L 392.968211 318.902548 
L 391.798705 319.020779 
L 390.592501 319.139011 
L 389.348445 319.257243 
L 388.06535 319.375474 
L 386.741992 319.493706 
L 385.377107 319.611938 
L 383.969391 319.730169 
L 382.5175 319.848401 
L 381.020049 319.966632 
L 379.475607 320.084864 
L 377.882701 320.203096 
L 376.239809 320.321327 
L 374.545362 320.439559 
L 372.797743 320.55779 
L 370.995284 320.676022 
L 369.136262 320.794254 
L 367.218905 320.912485 
L 365.24138 321.030717 
L 363.2018 321.148949 
L 361.098217 321.26718 
L 358.928624 321.385412 
L 356.690948 321.503643 
L 354.383053 321.621875 
L 506.09105 321.621875 
L 506.09105 321.621875 
L 503.783155 321.503643 
L 501.545479 321.385412 
L 499.375886 321.26718 
L 497.272303 321.148949 
L 495.232723 321.030717 
L 493.255199 320.912485 
L 491.337841 320.794254 
L 489.47882 320.676022 
L 487.67636 320.55779 
L 485.928742 320.439559 
L 484.234295 320.321327 
L 482.591403 320.203096 
L 480.998496 320.084864 
L 479.454055 319.966632 
L 477.956603 319.848401 
L 476.504713 319.730169 
L 475.096997 319.611938 
L 473.732111 319.493706 
L 472.408753 319.375474 
L 471.125659 319.257243 
L 469.881603 319.139011 
L 468.675398 319.020779 
L 467.505893 318.902548 
L 466.37197 318.784316 
L 465.272548 318.666085 
L 464.206576 318.547853 
L 463.173037 318.429621 
L 462.170943 318.31139 
L 461.199339 318.193158 
L 460.257297 318.074927 
L 459.343916 317.956695 
L 458.458326 317.838463 
L 457.59968 317.720232 
L 456.767159 317.602 
L 455.959967 317.483768 
L 455.177335 317.365537 
L 454.418515 317.247305 
L 453.682782 317.129074 
L 452.969434 317.010842 
L 452.277791 316.89261 
L 451.60719 316.774379 
L 450.956994 316.656147 
L 450.326579 316.537916 
L 449.715346 316.419684 
L 449.122709 316.301452 
L 448.548104 316.183221 
L 447.990981 316.064989 
L 447.450809 315.946757 
L 446.927072 315.828526 
L 446.41927 315.710294 
L 445.926919 315.592063 
L 445.449547 315.473831 
L 444.986699 315.355599 
L 444.537934 315.237368 
L 444.102823 315.119136 
L 443.68095 315.000905 
L 443.271913 314.882673 
L 442.875321 314.764441 
L 442.490795 314.64621 
L 442.117969 314.527978 
L 441.756487 314.409746 
L 441.406002 314.291515 
L 441.066182 314.173283 
L 440.7367 314.055052 
L 440.417243 313.93682 
L 440.107506 313.818588 
L 439.807193 313.700357 
L 439.516016 313.582125 
L 439.233699 313.463894 
L 438.959972 313.345662 
L 438.694573 313.22743 
L 438.437249 313.109199 
L 438.187754 312.990967 
L 437.94585 312.872735 
L 437.711306 312.754504 
L 437.483898 312.636272 
L 437.263409 312.518041 
L 437.049629 312.399809 
L 436.842353 312.281577 
L 436.641383 312.163346 
L 436.446529 312.045114 
L 436.257602 311.926883 
L 436.074424 311.808651 
L 435.896819 311.690419 
L 435.724618 311.572188 
L 435.557656 311.453956 
L 435.395774 311.335724 
L 435.238818 311.217493 
L 435.086636 311.099261 
L 434.939085 310.98103 
L 434.796024 310.862798 
L 434.657315 310.744566 
L 434.522826 310.626335 
L 434.392429 310.508103 
L 434.266 310.389872 
L 434.143417 310.27164 
L 434.024564 310.153408 
L 433.909327 310.035177 
L 433.797597 309.916945 
L 433.797597 309.916945 
L 433.797597 294.424766 
L 431.379054 294.424766 
L 431.379054 293.787429 
L 433.797597 293.787429 
L 433.797597 288.799045 
z
" clip-path="url(#pc1b9f00940)" style="fill: #d62728; fill-opacity: 0.5"/>
       </g>
       <g id="matplotlib.axis_1">
        <g id="xtick_1">
         <g id="line2d_1"/>
         <g id="text_1">
          <!-- OUT -->
          <g transform="translate(98.507875 332.720312) scale(0.1 -0.1)">
           <defs>
            <path id="DejaVuSans-4f" d="M 2522 4238 
Q 1834 4238 1429 3725 
Q 1025 3213 1025 2328 
Q 1025 1447 1429 934 
Q 1834 422 2522 422 
Q 3209 422 3611 934 
Q 4013 1447 4013 2328 
Q 4013 3213 3611 3725 
Q 3209 4238 2522 4238 
z
M 2522 4750 
Q 3503 4750 4090 4092 
Q 4678 3434 4678 2328 
Q 4678 1225 4090 567 
Q 3503 -91 2522 -91 
Q 1538 -91 948 565 
Q 359 1222 359 2328 
Q 359 3434 948 4092 
Q 1538 4750 2522 4750 
z
" transform="scale(0.015625)"/>
            <path id="DejaVuSans-55" d="M 556 4666 
L 1191 4666 
L 1191 1831 
Q 1191 1081 1462 751 
Q 1734 422 2344 422 
Q 2950 422 3222 751 
Q 3494 1081 3494 1831 
L 3494 4666 
L 4128 4666 
L 4128 1753 
Q 4128 841 3676 375 
Q 3225 -91 2344 -91 
Q 1459 -91 1007 375 
Q 556 841 556 1753 
L 556 4666 
z
" transform="scale(0.015625)"/>
            <path id="DejaVuSans-54" d="M -19 4666 
L 3928 4666 
L 3928 4134 
L 2272 4134 
L 2272 0 
L 1638 0 
L 1638 4134 
L -19 4134 
L -19 4666 
z
" transform="scale(0.015625)"/>
           </defs>
           <use xlink:href="#DejaVuSans-4f"/>
           <use xlink:href="#DejaVuSans-55" x="78.710938"/>
           <use xlink:href="#DejaVuSans-54" x="151.904297"/>
          </g>
         </g>
        </g>
        <g id="xtick_2">
         <g id="line2d_2"/>
         <g id="text_2">
          <!-- SRC -->
          <g transform="translate(548.779191 332.720312) scale(0.1 -0.1)">
           <defs>
            <path id="DejaVuSans-53" d="M 3425 4513 
L 3425 3897 
Q 3066 4069 2747 4153 
Q 2428 4238 2131 4238 
Q 1616 4238 1336 4038 
Q 1056 3838 1056 3469 
Q 1056 3159 1242 3001 
Q 1428 2844 1947 2747 
L 2328 2669 
Q 3034 2534 3370 2195 
Q 3706 1856 3706 1288 
Q 3706 609 3251 259 
Q 2797 -91 1919 -91 
Q 1588 -91 1214 -16 
Q 841 59 441 206 
L 441 856 
Q 825 641 1194 531 
Q 1563 422 1919 422 
Q 2459 422 2753 634 
Q 3047 847 3047 1241 
Q 3047 1584 2836 1778 
Q 2625 1972 2144 2069 
L 1759 2144 
Q 1053 2284 737 2584 
Q 422 2884 422 3419 
Q 422 4038 858 4394 
Q 1294 4750 2059 4750 
Q 2388 4750 2728 4690 
Q 3069 4631 3425 4513 
z
" transform="scale(0.015625)"/>
            <path id="DejaVuSans-52" d="M 2841 2188 
Q 3044 2119 3236 1894 
Q 3428 1669 3622 1275 
L 4263 0 
L 3584 0 
L 2988 1197 
Q 2756 1666 2539 1819 
Q 2322 1972 1947 1972 
L 1259 1972 
L 1259 0 
L 628 0 
L 628 4666 
L 2053 4666 
Q 2853 4666 3247 4331 
Q 3641 3997 3641 3322 
Q 3641 2881 3436 2590 
Q 3231 2300 2841 2188 
z
M 1259 4147 
L 1259 2491 
L 2053 2491 
Q 2509 2491 2742 2702 
Q 2975 2913 2975 3322 
Q 2975 3731 2742 3939 
Q 2509 4147 2053 4147 
L 1259 4147 
z
" transform="scale(0.015625)"/>
            <path id="DejaVuSans-43" d="M 4122 4306 
L 4122 3641 
Q 3803 3938 3442 4084 
Q 3081 4231 2675 4231 
Q 1875 4231 1450 3742 
Q 1025 3253 1025 2328 
Q 1025 1406 1450 917 
Q 1875 428 2675 428 
Q 3081 428 3442 575 
Q 3803 722 4122 1019 
L 4122 359 
Q 3791 134 3420 21 
Q 3050 -91 2638 -91 
Q 1578 -91 968 557 
Q 359 1206 359 2328 
Q 359 3453 968 4101 
Q 1578 4750 2638 4750 
Q 3056 4750 3426 4639 
Q 3797 4528 4122 4306 
z
" transform="scale(0.015625)"/>
           </defs>
           <use xlink:href="#DejaVuSans-53"/>
           <use xlink:href="#DejaVuSans-52" x="63.476562"/>
           <use xlink:href="#DejaVuSans-43" x="127.958984"/>
          </g>
         </g>
        </g>
        <g id="xtick_3">
         <g id="line2d_3"/>
         <g id="text_3">
          <!-- TAR -->
          <g transform="translate(420.676114 332.720312) scale(0.1 -0.1)">
           <defs>
            <path id="DejaVuSans-41" d="M 2188 4044 
L 1331 1722 
L 3047 1722 
L 2188 4044 
z
M 1831 4666 
L 2547 4666 
L 4325 0 
L 3669 0 
L 3244 1197 
L 1141 1197 
L 716 0 
L 50 0 
L 1831 4666 
z
" transform="scale(0.015625)"/>
           </defs>
           <use xlink:href="#DejaVuSans-54"/>
           <use xlink:href="#DejaVuSans-41" x="53.333984"/>
           <use xlink:href="#DejaVuSans-52" x="121.742188"/>
          </g>
         </g>
        </g>
       </g>
       <g id="matplotlib.axis_2">
        <g id="ytick_1">
         <g id="line2d_4">
          <defs>
           <path id="m46470d3eaf" d="M 0 0 
L -3.5 0 
" style="stroke: #000000; stroke-width: 0.8"/>
          </defs>
          <g>
           <use xlink:href="#m46470d3eaf" x="63.290625" y="321.621875" style="stroke: #000000; stroke-width: 0.8"/>
          </g>
         </g>
         <g id="text_4">
          <!-- 0 -->
          <g transform="translate(49.928125 325.421094) scale(0.1 -0.1)">
           <defs>
            <path id="DejaVuSans-30" d="M 2034 4250 
Q 1547 4250 1301 3770 
Q 1056 3291 1056 2328 
Q 1056 1369 1301 889 
Q 1547 409 2034 409 
Q 2525 409 2770 889 
Q 3016 1369 3016 2328 
Q 3016 3291 2770 3770 
Q 2525 4250 2034 4250 
z
M 2034 4750 
Q 2819 4750 3233 4129 
Q 3647 3509 3647 2328 
Q 3647 1150 3233 529 
Q 2819 -91 2034 -91 
Q 1250 -91 836 529 
Q 422 1150 422 2328 
Q 422 3509 836 4129 
Q 1250 4750 2034 4750 
z
" transform="scale(0.015625)"/>
           </defs>
           <use xlink:href="#DejaVuSans-30"/>
          </g>
         </g>
        </g>
        <g id="ytick_2">
         <g id="line2d_5">
          <g>
           <use xlink:href="#m46470d3eaf" x="63.290625" y="260.339519" style="stroke: #000000; stroke-width: 0.8"/>
          </g>
         </g>
         <g id="text_5">
          <!-- 5000 -->
          <g transform="translate(30.840625 264.138738) scale(0.1 -0.1)">
           <defs>
            <path id="DejaVuSans-35" d="M 691 4666 
L 3169 4666 
L 3169 4134 
L 1269 4134 
L 1269 2991 
Q 1406 3038 1543 3061 
Q 1681 3084 1819 3084 
Q 2600 3084 3056 2656 
Q 3513 2228 3513 1497 
Q 3513 744 3044 326 
Q 2575 -91 1722 -91 
Q 1428 -91 1123 -41 
Q 819 9 494 109 
L 494 744 
Q 775 591 1075 516 
Q 1375 441 1709 441 
Q 2250 441 2565 725 
Q 2881 1009 2881 1497 
Q 2881 1984 2565 2268 
Q 2250 2553 1709 2553 
Q 1456 2553 1204 2497 
Q 953 2441 691 2322 
L 691 4666 
z
" transform="scale(0.015625)"/>
           </defs>
           <use xlink:href="#DejaVuSans-35"/>
           <use xlink:href="#DejaVuSans-30" x="63.623047"/>
           <use xlink:href="#DejaVuSans-30" x="127.246094"/>
           <use xlink:href="#DejaVuSans-30" x="190.869141"/>
          </g>
         </g>
        </g>
        <g id="ytick_3">
         <g id="line2d_6">
          <g>
           <use xlink:href="#m46470d3eaf" x="63.290625" y="199.057164" style="stroke: #000000; stroke-width: 0.8"/>
          </g>
         </g>
         <g id="text_6">
          <!-- 10000 -->
          <g transform="translate(24.478125 202.856382) scale(0.1 -0.1)">
           <defs>
            <path id="DejaVuSans-31" d="M 794 531 
L 1825 531 
L 1825 4091 
L 703 3866 
L 703 4441 
L 1819 4666 
L 2450 4666 
L 2450 531 
L 3481 531 
L 3481 0 
L 794 0 
L 794 531 
z
" transform="scale(0.015625)"/>
           </defs>
           <use xlink:href="#DejaVuSans-31"/>
           <use xlink:href="#DejaVuSans-30" x="63.623047"/>
           <use xlink:href="#DejaVuSans-30" x="127.246094"/>
           <use xlink:href="#DejaVuSans-30" x="190.869141"/>
           <use xlink:href="#DejaVuSans-30" x="254.492188"/>
          </g>
         </g>
        </g>
        <g id="ytick_4">
         <g id="line2d_7">
          <g>
           <use xlink:href="#m46470d3eaf" x="63.290625" y="137.774808" style="stroke: #000000; stroke-width: 0.8"/>
          </g>
         </g>
         <g id="text_7">
          <!-- 15000 -->
          <g transform="translate(24.478125 141.574027) scale(0.1 -0.1)">
           <use xlink:href="#DejaVuSans-31"/>
           <use xlink:href="#DejaVuSans-35" x="63.623047"/>
           <use xlink:href="#DejaVuSans-30" x="127.246094"/>
           <use xlink:href="#DejaVuSans-30" x="190.869141"/>
           <use xlink:href="#DejaVuSans-30" x="254.492188"/>
          </g>
         </g>
        </g>
        <g id="ytick_5">
         <g id="line2d_8">
          <g>
           <use xlink:href="#m46470d3eaf" x="63.290625" y="76.492452" style="stroke: #000000; stroke-width: 0.8"/>
          </g>
         </g>
         <g id="text_8">
          <!-- 20000 -->
          <g transform="translate(24.478125 80.291671) scale(0.1 -0.1)">
           <defs>
            <path id="DejaVuSans-32" d="M 1228 531 
L 3431 531 
L 3431 0 
L 469 0 
L 469 531 
Q 828 903 1448 1529 
Q 2069 2156 2228 2338 
Q 2531 2678 2651 2914 
Q 2772 3150 2772 3378 
Q 2772 3750 2511 3984 
Q 2250 4219 1831 4219 
Q 1534 4219 1204 4116 
Q 875 4013 500 3803 
L 500 4441 
Q 881 4594 1212 4672 
Q 1544 4750 1819 4750 
Q 2544 4750 2975 4387 
Q 3406 4025 3406 3419 
Q 3406 3131 3298 2873 
Q 3191 2616 2906 2266 
Q 2828 2175 2409 1742 
Q 1991 1309 1228 531 
z
" transform="scale(0.015625)"/>
           </defs>
           <use xlink:href="#DejaVuSans-32"/>
           <use xlink:href="#DejaVuSans-30" x="63.623047"/>
           <use xlink:href="#DejaVuSans-30" x="127.246094"/>
           <use xlink:href="#DejaVuSans-30" x="190.869141"/>
           <use xlink:href="#DejaVuSans-30" x="254.492188"/>
          </g>
         </g>
        </g>
        <g id="ytick_6">
         <g id="line2d_9">
          <g>
           <use xlink:href="#m46470d3eaf" x="63.290625" y="15.210096" style="stroke: #000000; stroke-width: 0.8"/>
          </g>
         </g>
         <g id="text_9">
          <!-- 25000 -->
          <g transform="translate(24.478125 19.009315) scale(0.1 -0.1)">
           <use xlink:href="#DejaVuSans-32"/>
           <use xlink:href="#DejaVuSans-35" x="63.623047"/>
           <use xlink:href="#DejaVuSans-30" x="127.246094"/>
           <use xlink:href="#DejaVuSans-30" x="190.869141"/>
           <use xlink:href="#DejaVuSans-30" x="254.492188"/>
          </g>
         </g>
        </g>
        <g id="text_10">
         <!-- time ago (generations) -->
         <g transform="translate(18.398438 223.757518) rotate(-90) scale(0.1 -0.1)">
          <defs>
           <path id="DejaVuSans-74" d="M 1172 4494 
L 1172 3500 
L 2356 3500 
L 2356 3053 
L 1172 3053 
L 1172 1153 
Q 1172 725 1289 603 
Q 1406 481 1766 481 
L 2356 481 
L 2356 0 
L 1766 0 
Q 1100 0 847 248 
Q 594 497 594 1153 
L 594 3053 
L 172 3053 
L 172 3500 
L 594 3500 
L 594 4494 
L 1172 4494 
z
" transform="scale(0.015625)"/>
           <path id="DejaVuSans-69" d="M 603 3500 
L 1178 3500 
L 1178 0 
L 603 0 
L 603 3500 
z
M 603 4863 
L 1178 4863 
L 1178 4134 
L 603 4134 
L 603 4863 
z
" transform="scale(0.015625)"/>
           <path id="DejaVuSans-6d" d="M 3328 2828 
Q 3544 3216 3844 3400 
Q 4144 3584 4550 3584 
Q 5097 3584 5394 3201 
Q 5691 2819 5691 2113 
L 5691 0 
L 5113 0 
L 5113 2094 
Q 5113 2597 4934 2840 
Q 4756 3084 4391 3084 
Q 3944 3084 3684 2787 
Q 3425 2491 3425 1978 
L 3425 0 
L 2847 0 
L 2847 2094 
Q 2847 2600 2669 2842 
Q 2491 3084 2119 3084 
Q 1678 3084 1418 2786 
Q 1159 2488 1159 1978 
L 1159 0 
L 581 0 
L 581 3500 
L 1159 3500 
L 1159 2956 
Q 1356 3278 1631 3431 
Q 1906 3584 2284 3584 
Q 2666 3584 2933 3390 
Q 3200 3197 3328 2828 
z
" transform="scale(0.015625)"/>
           <path id="DejaVuSans-65" d="M 3597 1894 
L 3597 1613 
L 953 1613 
Q 991 1019 1311 708 
Q 1631 397 2203 397 
Q 2534 397 2845 478 
Q 3156 559 3463 722 
L 3463 178 
Q 3153 47 2828 -22 
Q 2503 -91 2169 -91 
Q 1331 -91 842 396 
Q 353 884 353 1716 
Q 353 2575 817 3079 
Q 1281 3584 2069 3584 
Q 2775 3584 3186 3129 
Q 3597 2675 3597 1894 
z
M 3022 2063 
Q 3016 2534 2758 2815 
Q 2500 3097 2075 3097 
Q 1594 3097 1305 2825 
Q 1016 2553 972 2059 
L 3022 2063 
z
" transform="scale(0.015625)"/>
           <path id="DejaVuSans-20" transform="scale(0.015625)"/>
           <path id="DejaVuSans-61" d="M 2194 1759 
Q 1497 1759 1228 1600 
Q 959 1441 959 1056 
Q 959 750 1161 570 
Q 1363 391 1709 391 
Q 2188 391 2477 730 
Q 2766 1069 2766 1631 
L 2766 1759 
L 2194 1759 
z
M 3341 1997 
L 3341 0 
L 2766 0 
L 2766 531 
Q 2569 213 2275 61 
Q 1981 -91 1556 -91 
Q 1019 -91 701 211 
Q 384 513 384 1019 
Q 384 1609 779 1909 
Q 1175 2209 1959 2209 
L 2766 2209 
L 2766 2266 
Q 2766 2663 2505 2880 
Q 2244 3097 1772 3097 
Q 1472 3097 1187 3025 
Q 903 2953 641 2809 
L 641 3341 
Q 956 3463 1253 3523 
Q 1550 3584 1831 3584 
Q 2591 3584 2966 3190 
Q 3341 2797 3341 1997 
z
" transform="scale(0.015625)"/>
           <path id="DejaVuSans-67" d="M 2906 1791 
Q 2906 2416 2648 2759 
Q 2391 3103 1925 3103 
Q 1463 3103 1205 2759 
Q 947 2416 947 1791 
Q 947 1169 1205 825 
Q 1463 481 1925 481 
Q 2391 481 2648 825 
Q 2906 1169 2906 1791 
z
M 3481 434 
Q 3481 -459 3084 -895 
Q 2688 -1331 1869 -1331 
Q 1566 -1331 1297 -1286 
Q 1028 -1241 775 -1147 
L 775 -588 
Q 1028 -725 1275 -790 
Q 1522 -856 1778 -856 
Q 2344 -856 2625 -561 
Q 2906 -266 2906 331 
L 2906 616 
Q 2728 306 2450 153 
Q 2172 0 1784 0 
Q 1141 0 747 490 
Q 353 981 353 1791 
Q 353 2603 747 3093 
Q 1141 3584 1784 3584 
Q 2172 3584 2450 3431 
Q 2728 3278 2906 2969 
L 2906 3500 
L 3481 3500 
L 3481 434 
z
" transform="scale(0.015625)"/>
           <path id="DejaVuSans-6f" d="M 1959 3097 
Q 1497 3097 1228 2736 
Q 959 2375 959 1747 
Q 959 1119 1226 758 
Q 1494 397 1959 397 
Q 2419 397 2687 759 
Q 2956 1122 2956 1747 
Q 2956 2369 2687 2733 
Q 2419 3097 1959 3097 
z
M 1959 3584 
Q 2709 3584 3137 3096 
Q 3566 2609 3566 1747 
Q 3566 888 3137 398 
Q 2709 -91 1959 -91 
Q 1206 -91 779 398 
Q 353 888 353 1747 
Q 353 2609 779 3096 
Q 1206 3584 1959 3584 
z
" transform="scale(0.015625)"/>
           <path id="DejaVuSans-28" d="M 1984 4856 
Q 1566 4138 1362 3434 
Q 1159 2731 1159 2009 
Q 1159 1288 1364 580 
Q 1569 -128 1984 -844 
L 1484 -844 
Q 1016 -109 783 600 
Q 550 1309 550 2009 
Q 550 2706 781 3412 
Q 1013 4119 1484 4856 
L 1984 4856 
z
" transform="scale(0.015625)"/>
           <path id="DejaVuSans-6e" d="M 3513 2113 
L 3513 0 
L 2938 0 
L 2938 2094 
Q 2938 2591 2744 2837 
Q 2550 3084 2163 3084 
Q 1697 3084 1428 2787 
Q 1159 2491 1159 1978 
L 1159 0 
L 581 0 
L 581 3500 
L 1159 3500 
L 1159 2956 
Q 1366 3272 1645 3428 
Q 1925 3584 2291 3584 
Q 2894 3584 3203 3211 
Q 3513 2838 3513 2113 
z
" transform="scale(0.015625)"/>
           <path id="DejaVuSans-72" d="M 2631 2963 
Q 2534 3019 2420 3045 
Q 2306 3072 2169 3072 
Q 1681 3072 1420 2755 
Q 1159 2438 1159 1844 
L 1159 0 
L 581 0 
L 581 3500 
L 1159 3500 
L 1159 2956 
Q 1341 3275 1631 3429 
Q 1922 3584 2338 3584 
Q 2397 3584 2469 3576 
Q 2541 3569 2628 3553 
L 2631 2963 
z
" transform="scale(0.015625)"/>
           <path id="DejaVuSans-73" d="M 2834 3397 
L 2834 2853 
Q 2591 2978 2328 3040 
Q 2066 3103 1784 3103 
Q 1356 3103 1142 2972 
Q 928 2841 928 2578 
Q 928 2378 1081 2264 
Q 1234 2150 1697 2047 
L 1894 2003 
Q 2506 1872 2764 1633 
Q 3022 1394 3022 966 
Q 3022 478 2636 193 
Q 2250 -91 1575 -91 
Q 1294 -91 989 -36 
Q 684 19 347 128 
L 347 722 
Q 666 556 975 473 
Q 1284 391 1588 391 
Q 1994 391 2212 530 
Q 2431 669 2431 922 
Q 2431 1156 2273 1281 
Q 2116 1406 1581 1522 
L 1381 1569 
Q 847 1681 609 1914 
Q 372 2147 372 2553 
Q 372 3047 722 3315 
Q 1072 3584 1716 3584 
Q 2034 3584 2315 3537 
Q 2597 3491 2834 3397 
z
" transform="scale(0.015625)"/>
           <path id="DejaVuSans-29" d="M 513 4856 
L 1013 4856 
Q 1481 4119 1714 3412 
Q 1947 2706 1947 2009 
Q 1947 1309 1714 600 
Q 1481 -109 1013 -844 
L 513 -844 
Q 928 -128 1133 580 
Q 1338 1288 1338 2009 
Q 1338 2731 1133 3434 
Q 928 4138 513 4856 
z
" transform="scale(0.015625)"/>
          </defs>
          <use xlink:href="#DejaVuSans-74"/>
          <use xlink:href="#DejaVuSans-69" x="39.208984"/>
          <use xlink:href="#DejaVuSans-6d" x="66.992188"/>
          <use xlink:href="#DejaVuSans-65" x="164.404297"/>
          <use xlink:href="#DejaVuSans-20" x="225.927734"/>
          <use xlink:href="#DejaVuSans-61" x="257.714844"/>
          <use xlink:href="#DejaVuSans-67" x="318.994141"/>
          <use xlink:href="#DejaVuSans-6f" x="382.470703"/>
          <use xlink:href="#DejaVuSans-20" x="443.652344"/>
          <use xlink:href="#DejaVuSans-28" x="475.439453"/>
          <use xlink:href="#DejaVuSans-67" x="514.453125"/>
          <use xlink:href="#DejaVuSans-65" x="577.929688"/>
          <use xlink:href="#DejaVuSans-6e" x="639.453125"/>
          <use xlink:href="#DejaVuSans-65" x="702.832031"/>
          <use xlink:href="#DejaVuSans-72" x="764.355469"/>
          <use xlink:href="#DejaVuSans-61" x="805.46875"/>
          <use xlink:href="#DejaVuSans-74" x="866.748047"/>
          <use xlink:href="#DejaVuSans-69" x="905.957031"/>
          <use xlink:href="#DejaVuSans-6f" x="933.740234"/>
          <use xlink:href="#DejaVuSans-6e" x="994.921875"/>
          <use xlink:href="#DejaVuSans-73" x="1058.300781"/>
          <use xlink:href="#DejaVuSans-29" x="1110.400391"/>
         </g>
        </g>
       </g>
       <g id="patch_7">
        <path d="M 232.403299 288.799045 
L 231.403299 288.767609 
L 230.403299 288.730669 
L 229.403299 288.632922 
L 228.403299 288.6004 
L 227.403299 288.526776 
L 226.403299 288.48821 
L 225.403299 288.452797 
L 224.403299 288.395157 
L 223.403299 288.324771 
L 222.403299 288.272807 
L 221.403299 288.213717 
L 220.403299 288.125396 
L 219.403299 288.079252 
L 218.403299 288.036841 
L 217.403299 288.006348 
L 216.403299 287.980303 
L 215.403299 287.959103 
L 214.403299 287.904802 
L 213.403299 287.876864 
L 212.403299 287.84714 
L 211.403299 287.821746 
L 210.403299 287.810545 
L 209.403299 287.800421 
L 208.403299 287.800625 
L 207.403299 287.810135 
L 206.403299 287.821789 
L 205.403299 287.852818 
L 204.403299 287.863986 
L 203.403299 287.894104 
L 202.403299 287.953881 
L 201.403299 287.991072 
L 200.403299 288.030168 
L 199.403299 288.072608 
L 198.403299 288.105373 
L 197.403299 288.172799 
L 196.403299 288.211925 
L 195.403299 288.2546 
L 194.403299 288.32518 
L 193.403299 288.361571 
L 192.403299 288.419975 
L 191.403299 288.530927 
L 190.403299 288.601585 
L 189.403299 288.714525 
L 188.403299 288.760298 
L 187.403299 288.821581 
L 186.403299 288.870081 
L 185.403299 288.950903 
L 184.403299 289.069422 
L 183.403299 289.139633 
L 182.403299 289.222895 
L 181.403299 289.256037 
L 180.403299 289.307274 
L 179.403299 289.375673 
L 178.403299 289.441888 
L 177.403299 289.518805 
L 176.403299 289.546121 
L 175.403299 289.572598 
L 174.403299 289.595249 
L 173.403299 289.61478 
L 172.403299 289.641174 
L 171.403299 289.690945 
L 170.403299 289.726018 
L 169.403299 289.761884 
L 168.403299 289.777251 
L 167.403299 289.79302 
L 166.403299 289.796433 
L 165.403299 289.798851 
L 164.403299 289.798364 
L 163.403299 289.796435 
L 162.403299 289.783178 
L 161.403299 289.774788 
L 160.403299 289.753251 
L 159.403299 289.730219 
L 158.403299 289.712985 
L 157.403299 289.694523 
L 156.403299 289.67407 
L 155.403299 289.65747 
L 154.403299 289.594691 
L 153.403299 289.519426 
L 152.403299 289.486787 
L 151.403299 289.419224 
L 150.403299 289.365177 
L 149.403299 289.331472 
L 148.403299 289.241346 
L 147.403299 289.212811 
L 146.403299 289.181325 
L 145.403299 289.150314 
L 144.403299 289.095506 
L 143.403299 289.030919 
L 142.403299 288.992724 
L 141.403299 288.896789 
L 140.403299 288.847531 
L 139.403299 288.803462 
L 138.403299 288.763338 
L 137.403299 288.654971 
L 136.403299 288.613343 
L 135.403299 288.551202 
L 134.403299 288.481239 
L 133.403299 288.376735 
L 132.403299 288.339747 
L 131.403299 288.29387 
L 130.403299 288.225376 
L 129.403299 288.17663 
L 128.403299 288.099032 
L 127.28226 288.068492 
" clip-path="url(#pc1b9f00940)" style="fill: none; stroke: #ffffff; stroke-width: 3; stroke-linecap: round"/>
        <path d="M 232.403299 288.799045 
L 231.403299 288.767609 
L 230.403299 288.730669 
L 229.403299 288.632922 
L 228.403299 288.6004 
L 227.403299 288.526776 
L 226.403299 288.48821 
L 225.403299 288.452797 
L 224.403299 288.395157 
L 223.403299 288.324771 
L 222.403299 288.272807 
L 221.403299 288.213717 
L 220.403299 288.125396 
L 219.403299 288.079252 
L 218.403299 288.036841 
L 217.403299 288.006348 
L 216.403299 287.980303 
L 215.403299 287.959103 
L 214.403299 287.904802 
L 213.403299 287.876864 
L 212.403299 287.84714 
L 211.403299 287.821746 
L 210.403299 287.810545 
L 209.403299 287.800421 
L 208.403299 287.800625 
L 207.403299 287.810135 
L 206.403299 287.821789 
L 205.403299 287.852818 
L 204.403299 287.863986 
L 203.403299 287.894104 
L 202.403299 287.953881 
L 201.403299 287.991072 
L 200.403299 288.030168 
L 199.403299 288.072608 
L 198.403299 288.105373 
L 197.403299 288.172799 
L 196.403299 288.211925 
L 195.403299 288.2546 
L 194.403299 288.32518 
L 193.403299 288.361571 
L 192.403299 288.419975 
L 191.403299 288.530927 
L 190.403299 288.601585 
L 189.403299 288.714525 
L 188.403299 288.760298 
L 187.403299 288.821581 
L 186.403299 288.870081 
L 185.403299 288.950903 
L 184.403299 289.069422 
L 183.403299 289.139633 
L 182.403299 289.222895 
L 181.403299 289.256037 
L 180.403299 289.307274 
L 179.403299 289.375673 
L 178.403299 289.441888 
L 177.403299 289.518805 
L 176.403299 289.546121 
L 175.403299 289.572598 
L 174.403299 289.595249 
L 173.403299 289.61478 
L 172.403299 289.641174 
L 171.403299 289.690945 
L 170.403299 289.726018 
L 169.403299 289.761884 
L 168.403299 289.777251 
L 167.403299 289.79302 
L 166.403299 289.796433 
L 165.403299 289.798851 
L 164.403299 289.798364 
L 163.403299 289.796435 
L 162.403299 289.783178 
L 161.403299 289.774788 
L 160.403299 289.753251 
L 159.403299 289.730219 
L 158.403299 289.712985 
L 157.403299 289.694523 
L 156.403299 289.67407 
L 155.403299 289.65747 
L 154.403299 289.594691 
L 153.403299 289.519426 
L 152.403299 289.486787 
L 151.403299 289.419224 
L 150.403299 289.365177 
L 149.403299 289.331472 
L 148.403299 289.241346 
L 147.403299 289.212811 
L 146.403299 289.181325 
L 145.403299 289.150314 
L 144.403299 289.095506 
L 143.403299 289.030919 
L 142.403299 288.992724 
L 141.403299 288.896789 
L 140.403299 288.847531 
L 139.403299 288.803462 
L 138.403299 288.763338 
L 137.403299 288.654971 
L 136.403299 288.613343 
L 135.403299 288.551202 
L 134.403299 288.481239 
L 133.403299 288.376735 
L 132.403299 288.339747 
L 131.403299 288.29387 
L 130.403299 288.225376 
L 129.403299 288.17663 
L 128.403299 288.099032 
L 127.28226 288.068492 
" clip-path="url(#pc1b9f00940)" style="fill: none; stroke: #1f77b4; stroke-linecap: round"/>
        <path d="M 131.28226 290.799045 
L 130.401891 290.323714 
L 129.523984 289.84346 
L 128.673271 289.308819 
L 127.371096 288.621372 
L 128.298449 288.595357 
L 129.210124 288.182638 
L 130.120388 287.767098 
L 131.462884 287.160294 
L 130.807985 287.799045 
L 130.756021 288.799045 
L 130.696931 290.799045 
z
" clip-path="url(#pc1b9f00940)" style="fill: #ffffff; stroke: #ffffff; stroke-width: 3; stroke-linecap: round"/>
        <path d="M 131.28226 290.799045 
L 130.401891 290.323714 
L 129.523984 289.84346 
L 128.673271 289.308819 
L 127.371096 288.621372 
L 128.298449 288.595357 
L 129.210124 288.182638 
L 130.120388 287.767098 
L 131.462884 287.160294 
L 130.807985 287.799045 
L 130.756021 288.799045 
L 130.696931 290.799045 
z
" clip-path="url(#pc1b9f00940)" style="fill: #ffffff; stroke: #1f77b4; stroke-linecap: round"/>
        <g id="patch_8">
         <path d="M 371.204733 73.085153 
L 372.204733 73.116589 
L 373.204733 73.15353 
L 374.204733 73.251276 
L 375.204733 73.283798 
L 376.204733 73.357423 
L 377.204733 73.395988 
L 378.204733 73.431401 
L 379.204733 73.489041 
L 380.204733 73.559428 
L 381.204733 73.611392 
L 382.204733 73.670482 
L 383.204733 73.758802 
L 384.204733 73.804947 
L 385.204733 73.847358 
L 386.204733 73.87785 
L 387.204733 73.903895 
L 388.204733 73.925095 
L 389.204733 73.979397 
L 390.204733 74.007334 
L 391.204733 74.037058 
L 392.204733 74.062453 
L 393.204733 74.073653 
L 394.204733 74.083777 
L 395.204733 74.083573 
L 396.204733 74.074063 
L 397.204733 74.062409 
L 398.204733 74.03138 
L 399.204733 74.020212 
L 400.204733 73.990095 
L 401.204733 73.930318 
L 402.204733 73.893126 
L 403.204733 73.85403 
L 404.204733 73.811591 
L 405.204733 73.778825 
L 406.204733 73.711399 
L 407.204733 73.672273 
L 408.204733 73.629599 
L 409.204733 73.559018 
L 410.204733 73.522627 
L 411.204733 73.464224 
L 412.204733 73.353271 
L 413.204733 73.282613 
L 414.204733 73.169673 
L 415.204733 73.1239 
L 416.204733 73.062617 
L 417.204733 73.014118 
L 418.204733 72.933295 
L 419.204733 72.814776 
L 420.204733 72.744565 
L 421.204733 72.661303 
L 422.204733 72.628161 
L 423.204733 72.576924 
L 424.204733 72.508526 
L 425.204733 72.44231 
L 426.204733 72.365393 
L 427.204733 72.338078 
L 428.204733 72.3116 
L 429.204733 72.288949 
L 430.204733 72.269418 
L 431.204733 72.243024 
L 432.204733 72.193253 
L 433.204733 72.15818 
L 434.204733 72.122315 
L 435.204733 72.106947 
L 436.204733 72.091178 
L 437.204733 72.087765 
L 438.204733 72.085348 
L 439.204733 72.085834 
L 440.204733 72.087763 
L 441.204733 72.10102 
L 442.204733 72.109411 
L 443.204733 72.130947 
L 444.204733 72.15398 
L 445.204733 72.171213 
L 446.204733 72.189676 
L 447.204733 72.210128 
L 448.204733 72.226728 
L 449.204733 72.289507 
L 450.204733 72.364772 
L 451.204733 72.397411 
L 452.204733 72.464975 
L 453.204733 72.519022 
L 454.204733 72.552726 
L 455.204733 72.642852 
L 456.204733 72.671387 
L 457.204733 72.702873 
L 458.204733 72.733884 
L 459.204733 72.788692 
L 460.204733 72.853279 
L 461.204733 72.891475 
L 462.204733 72.987409 
L 463.204733 73.036667 
L 464.204733 73.080736 
L 465.204733 73.12086 
L 466.204733 73.229227 
L 467.204733 73.270855 
L 468.204733 73.332997 
L 469.204733 73.402959 
L 470.204733 73.507463 
L 471.204733 73.544451 
L 472.204733 73.590328 
L 473.204733 73.658823 
L 474.204733 73.707569 
L 475.204733 73.785166 
L 476.204733 73.815707 
L 477.204733 73.885221 
L 478.204733 73.909194 
L 479.204733 73.937816 
L 480.204733 73.979609 
L 481.204733 74.001185 
L 482.204733 74.015133 
L 483.204733 74.041855 
L 484.204733 74.051165 
L 485.204733 74.063612 
L 486.204733 74.074667 
L 487.204733 74.080331 
L 488.204733 74.085095 
L 489.204733 74.079548 
L 490.204733 74.066259 
L 491.204733 74.058742 
L 492.204733 74.033957 
L 493.204733 74.010388 
L 494.204733 73.974208 
L 495.204733 73.948246 
L 496.204733 73.925924 
L 497.204733 73.857164 
L 498.204733 73.782629 
L 499.204733 73.68865 
L 500.204733 73.637598 
L 501.204733 73.583664 
L 502.204733 73.548413 
L 503.204733 73.442325 
L 504.204733 73.390061 
L 505.204733 73.353154 
L 506.204733 73.322124 
L 507.204733 73.260968 
L 508.204733 73.193548 
L 509.204733 73.144642 
L 510.204733 73.07945 
L 511.204733 73.041262 
L 512.204733 72.999267 
L 513.204733 72.957249 
L 514.204733 72.897733 
L 515.204733 72.784573 
L 516.204733 72.732322 
L 517.204733 72.692904 
L 518.204733 72.645803 
L 519.204733 72.589024 
L 520.204733 72.55636 
L 521.204733 72.520182 
L 522.204733 72.488092 
L 523.204733 72.453812 
L 524.204733 72.395434 
L 525.204733 72.350249 
L 526.204733 72.320625 
L 527.204733 72.27024 
L 528.204733 72.245042 
L 529.204733 72.223991 
L 530.204733 72.189023 
L 531.204733 72.164733 
L 532.204733 72.150666 
L 533.204733 72.131724 
L 535.17809 72.116063 
" clip-path="url(#pc1b9f00940)" style="fill: none; stroke: #ffffff; stroke-width: 3; stroke-linecap: round"/>
         <path d="M 371.204733 73.085153 
L 372.204733 73.116589 
L 373.204733 73.15353 
L 374.204733 73.251276 
L 375.204733 73.283798 
L 376.204733 73.357423 
L 377.204733 73.395988 
L 378.204733 73.431401 
L 379.204733 73.489041 
L 380.204733 73.559428 
L 381.204733 73.611392 
L 382.204733 73.670482 
L 383.204733 73.758802 
L 384.204733 73.804947 
L 385.204733 73.847358 
L 386.204733 73.87785 
L 387.204733 73.903895 
L 388.204733 73.925095 
L 389.204733 73.979397 
L 390.204733 74.007334 
L 391.204733 74.037058 
L 392.204733 74.062453 
L 393.204733 74.073653 
L 394.204733 74.083777 
L 395.204733 74.083573 
L 396.204733 74.074063 
L 397.204733 74.062409 
L 398.204733 74.03138 
L 399.204733 74.020212 
L 400.204733 73.990095 
L 401.204733 73.930318 
L 402.204733 73.893126 
L 403.204733 73.85403 
L 404.204733 73.811591 
L 405.204733 73.778825 
L 406.204733 73.711399 
L 407.204733 73.672273 
L 408.204733 73.629599 
L 409.204733 73.559018 
L 410.204733 73.522627 
L 411.204733 73.464224 
L 412.204733 73.353271 
L 413.204733 73.282613 
L 414.204733 73.169673 
L 415.204733 73.1239 
L 416.204733 73.062617 
L 417.204733 73.014118 
L 418.204733 72.933295 
L 419.204733 72.814776 
L 420.204733 72.744565 
L 421.204733 72.661303 
L 422.204733 72.628161 
L 423.204733 72.576924 
L 424.204733 72.508526 
L 425.204733 72.44231 
L 426.204733 72.365393 
L 427.204733 72.338078 
L 428.204733 72.3116 
L 429.204733 72.288949 
L 430.204733 72.269418 
L 431.204733 72.243024 
L 432.204733 72.193253 
L 433.204733 72.15818 
L 434.204733 72.122315 
L 435.204733 72.106947 
L 436.204733 72.091178 
L 437.204733 72.087765 
L 438.204733 72.085348 
L 439.204733 72.085834 
L 440.204733 72.087763 
L 441.204733 72.10102 
L 442.204733 72.109411 
L 443.204733 72.130947 
L 444.204733 72.15398 
L 445.204733 72.171213 
L 446.204733 72.189676 
L 447.204733 72.210128 
L 448.204733 72.226728 
L 449.204733 72.289507 
L 450.204733 72.364772 
L 451.204733 72.397411 
L 452.204733 72.464975 
L 453.204733 72.519022 
L 454.204733 72.552726 
L 455.204733 72.642852 
L 456.204733 72.671387 
L 457.204733 72.702873 
L 458.204733 72.733884 
L 459.204733 72.788692 
L 460.204733 72.853279 
L 461.204733 72.891475 
L 462.204733 72.987409 
L 463.204733 73.036667 
L 464.204733 73.080736 
L 465.204733 73.12086 
L 466.204733 73.229227 
L 467.204733 73.270855 
L 468.204733 73.332997 
L 469.204733 73.402959 
L 470.204733 73.507463 
L 471.204733 73.544451 
L 472.204733 73.590328 
L 473.204733 73.658823 
L 474.204733 73.707569 
L 475.204733 73.785166 
L 476.204733 73.815707 
L 477.204733 73.885221 
L 478.204733 73.909194 
L 479.204733 73.937816 
L 480.204733 73.979609 
L 481.204733 74.001185 
L 482.204733 74.015133 
L 483.204733 74.041855 
L 484.204733 74.051165 
L 485.204733 74.063612 
L 486.204733 74.074667 
L 487.204733 74.080331 
L 488.204733 74.085095 
L 489.204733 74.079548 
L 490.204733 74.066259 
L 491.204733 74.058742 
L 492.204733 74.033957 
L 493.204733 74.010388 
L 494.204733 73.974208 
L 495.204733 73.948246 
L 496.204733 73.925924 
L 497.204733 73.857164 
L 498.204733 73.782629 
L 499.204733 73.68865 
L 500.204733 73.637598 
L 501.204733 73.583664 
L 502.204733 73.548413 
L 503.204733 73.442325 
L 504.204733 73.390061 
L 505.204733 73.353154 
L 506.204733 73.322124 
L 507.204733 73.260968 
L 508.204733 73.193548 
L 509.204733 73.144642 
L 510.204733 73.07945 
L 511.204733 73.041262 
L 512.204733 72.999267 
L 513.204733 72.957249 
L 514.204733 72.897733 
L 515.204733 72.784573 
L 516.204733 72.732322 
L 517.204733 72.692904 
L 518.204733 72.645803 
L 519.204733 72.589024 
L 520.204733 72.55636 
L 521.204733 72.520182 
L 522.204733 72.488092 
L 523.204733 72.453812 
L 524.204733 72.395434 
L 525.204733 72.350249 
L 526.204733 72.320625 
L 527.204733 72.27024 
L 528.204733 72.245042 
L 529.204733 72.223991 
L 530.204733 72.189023 
L 531.204733 72.164733 
L 532.204733 72.150666 
L 533.204733 72.131724 
L 535.17809 72.116063 
" clip-path="url(#pc1b9f00940)" style="fill: none; stroke: #1f77b4; stroke-linecap: round"/>
         <path d="M 531.17809 71.085153 
L 532.058458 71.560484 
L 532.936365 72.040738 
L 533.787079 72.575379 
L 535.089253 73.262826 
L 534.1619 73.288841 
L 533.250226 73.701561 
L 532.339961 74.1171 
L 530.997466 74.723904 
L 531.652364 74.085153 
L 531.704329 73.085153 
L 531.763418 71.085153 
z
" clip-path="url(#pc1b9f00940)" style="fill: #ffffff; stroke: #ffffff; stroke-width: 3; stroke-linecap: round"/>
         <path d="M 531.17809 71.085153 
L 532.058458 71.560484 
L 532.936365 72.040738 
L 533.787079 72.575379 
L 535.089253 73.262826 
L 534.1619 73.288841 
L 533.250226 73.701561 
L 532.339961 74.1171 
L 530.997466 74.723904 
L 531.652364 74.085153 
L 531.704329 73.085153 
L 531.763418 71.085153 
z
" clip-path="url(#pc1b9f00940)" style="fill: #ffffff; stroke: #1f77b4; stroke-linecap: round"/>
         <g id="patch_9">
          <path d="M 371.208059 288.799045 
L 372.208059 288.830482 
L 373.208059 288.867422 
L 374.208059 288.965169 
L 375.208059 288.99769 
L 376.208059 289.071315 
L 377.208059 289.10988 
L 378.208059 289.145294 
L 379.208059 289.202934 
L 380.208059 289.27332 
L 381.208059 289.325284 
L 382.208059 289.384374 
L 383.208059 289.472695 
L 384.208059 289.518839 
L 385.208059 289.56125 
L 386.208059 289.591743 
L 387.208059 289.617788 
L 388.208059 289.638988 
L 389.208059 289.693289 
L 390.208059 289.721226 
L 391.208059 289.75095 
L 392.208059 289.776345 
L 393.208059 289.787546 
L 394.208059 289.797669 
L 395.208059 289.797465 
L 396.208059 289.787955 
L 397.208059 289.776302 
L 398.208059 289.745272 
L 399.208059 289.734105 
L 400.208059 289.703987 
L 401.208059 289.64421 
L 402.208059 289.607019 
L 403.208059 289.567922 
L 404.208059 289.525483 
L 405.208059 289.492718 
L 406.208059 289.425291 
L 407.208059 289.386165 
L 408.208059 289.343491 
L 409.208059 289.27291 
L 410.208059 289.236519 
L 411.208059 289.178116 
L 412.208059 289.067164 
L 413.208059 288.996505 
L 414.208059 288.883565 
L 415.208059 288.837793 
L 416.208059 288.776509 
L 417.208059 288.72801 
L 418.208059 288.647187 
L 419.208059 288.528668 
L 420.208059 288.458458 
L 421.208059 288.375195 
L 422.208059 288.342053 
L 423.557627 288.290816 
" clip-path="url(#pc1b9f00940)" style="fill: none; stroke: #ffffff; stroke-width: 3; stroke-linecap: round"/>
          <path d="M 371.208059 288.799045 
L 372.208059 288.830482 
L 373.208059 288.867422 
L 374.208059 288.965169 
L 375.208059 288.99769 
L 376.208059 289.071315 
L 377.208059 289.10988 
L 378.208059 289.145294 
L 379.208059 289.202934 
L 380.208059 289.27332 
L 381.208059 289.325284 
L 382.208059 289.384374 
L 383.208059 289.472695 
L 384.208059 289.518839 
L 385.208059 289.56125 
L 386.208059 289.591743 
L 387.208059 289.617788 
L 388.208059 289.638988 
L 389.208059 289.693289 
L 390.208059 289.721226 
L 391.208059 289.75095 
L 392.208059 289.776345 
L 393.208059 289.787546 
L 394.208059 289.797669 
L 395.208059 289.797465 
L 396.208059 289.787955 
L 397.208059 289.776302 
L 398.208059 289.745272 
L 399.208059 289.734105 
L 400.208059 289.703987 
L 401.208059 289.64421 
L 402.208059 289.607019 
L 403.208059 289.567922 
L 404.208059 289.525483 
L 405.208059 289.492718 
L 406.208059 289.425291 
L 407.208059 289.386165 
L 408.208059 289.343491 
L 409.208059 289.27291 
L 410.208059 289.236519 
L 411.208059 289.178116 
L 412.208059 289.067164 
L 413.208059 288.996505 
L 414.208059 288.883565 
L 415.208059 288.837793 
L 416.208059 288.776509 
L 417.208059 288.72801 
L 418.208059 288.647187 
L 419.208059 288.528668 
L 420.208059 288.458458 
L 421.208059 288.375195 
L 422.208059 288.342053 
L 423.557627 288.290816 
" clip-path="url(#pc1b9f00940)" style="fill: none; stroke: #1f77b4; stroke-linecap: round"/>
          <path d="M 419.557627 286.799045 
L 420.437996 287.274376 
L 421.315903 287.75463 
L 422.166616 288.289271 
L 423.468791 288.976719 
L 422.541438 289.002734 
L 421.629763 289.415453 
L 420.719499 289.830992 
L 419.377003 290.437797 
L 420.031902 289.799045 
L 420.083866 288.799045 
L 420.142956 286.799045 
z
" clip-path="url(#pc1b9f00940)" style="fill: #ffffff; stroke: #ffffff; stroke-width: 3; stroke-linecap: round"/>
          <path d="M 419.557627 286.799045 
L 420.437996 287.274376 
L 421.315903 287.75463 
L 422.166616 288.289271 
L 423.468791 288.976719 
L 422.541438 289.002734 
L 421.629763 289.415453 
L 420.719499 289.830992 
L 419.377003 290.437797 
L 420.031902 289.799045 
L 420.083866 288.799045 
L 420.142956 286.799045 
z
" clip-path="url(#pc1b9f00940)" style="fill: #ffffff; stroke: #1f77b4; stroke-linecap: round"/>
          <path d="M 439.20069 302.820448 
" clip-path="url(#pc1b9f00940)" style="fill: none; stroke-dasharray: 3.7,1.6; stroke-dashoffset: 0; stroke: #2ca02c"/>
          <path d="M 438.20069 302.820448 
L 440.20069 303.820448 
L 440.20069 301.820448 
z
" clip-path="url(#pc1b9f00940)" style="fill: #2ca02c; stroke: #2ca02c; stroke-linejoin: miter"/>
          <g id="patch_10">
           <path d="M 63.290625 321.621875 
L 63.290625 10.950973 
" style="fill: none; stroke: #000000; stroke-width: 0.8; stroke-linejoin: miter; stroke-linecap: square"/>
          </g>
          <g id="text_11">
           <g id="patch_11">
            <path d="M 291.152725 156.714071 
L 312.457412 156.714071 
Q 314.457412 156.714071 314.457412 154.714071 
L 314.457412 145.035946 
Q 314.457412 143.035946 312.457412 143.035946 
L 291.152725 143.035946 
Q 289.152725 143.035946 289.152725 145.035946 
L 289.152725 154.714071 
Q 289.152725 156.714071 291.152725 156.714071 
z
" style="fill: #ffffff; opacity: 0.6"/>
           </g>
           <!-- ANC -->
           <g transform="translate(291.152725 152.634384) scale(0.1 -0.1)">
            <defs>
             <path id="DejaVuSans-4e" d="M 628 4666 
L 1478 4666 
L 3547 763 
L 3547 4666 
L 4159 4666 
L 4159 0 
L 3309 0 
L 1241 3903 
L 1241 0 
L 628 0 
L 628 4666 
z
" transform="scale(0.015625)"/>
            </defs>
            <use xlink:href="#DejaVuSans-41"/>
            <use xlink:href="#DejaVuSans-4e" x="68.408203"/>
            <use xlink:href="#DejaVuSans-43" x="143.212891"/>
           </g>
          </g>
         </g>
        </g>
        <defs>
         <clipPath id="pc1b9f00940">
          <rect x="63.290625" y="10.950973" width="540.309375" height="310.670902"/>
         </clipPath>
        </defs>
       </g>
      </g>
     </g>
    </g>
   </g>
  </g>
 </g>
</svg>
