<?xml version="1.0" encoding="utf-8" standalone="no"?>
<!DOCTYPE svg PUBLIC "-//W3C//DTD SVG 1.1//EN"
  "http://www.w3.org/Graphics/SVG/1.1/DTD/svg11.dtd">
<svg xmlns:xlink="http://www.w3.org/1999/xlink" width="614.4pt" height="345.6pt" viewBox="0 0 614.4 345.6" xmlns="http://www.w3.org/2000/svg" version="1.1">
 <metadata>
  <rdf:RDF xmlns:dc="http://purl.org/dc/elements/1.1/" xmlns:cc="http://creativecommons.org/ns#" xmlns:rdf="http://www.w3.org/1999/02/22-rdf-syntax-ns#">
   <cc:Work>
    <dc:type rdf:resource="http://purl.org/dc/dcmitype/StillImage"/>
    <dc:date>2024-04-17T19:40:03.909368</dc:date>
    <dc:format>image/svg+xml</dc:format>
    <dc:creator>
     <cc:Agent>
      <dc:title>Matplotlib v3.7.1, https://matplotlib.org/</dc:title>
     </cc:Agent>
    </dc:creator>
   </cc:Work>
  </rdf:RDF>
 </metadata>
 <defs>
  <style type="text/css">*{stroke-linejoin: round; stroke-linecap: butt}</style>
 </defs>
 <g id="figure_1">
  <g id="patch_1">
   <path d="M 0 345.6 
L 614.4 345.6 
L 614.4 0 
L 0 0 
z
" style="fill: #ffffff"/>
  </g>
  <g id="axes_1">
   <g id="patch_2">
    <path d="M 63.290625 321.621875 
L 603.6 321.621875 
L 603.6 10.8 
L 63.290625 10.8 
z
" style="fill: #ffffff"/>
   </g>
   <path d="M 573.479223 302.181655 
L 572.479223 302.150218 
L 571.479223 302.113278 
L 570.479223 302.015531 
L 569.479223 301.98301 
L 568.479223 301.909385 
L 567.479223 301.87082 
L 566.479223 301.835406 
L 565.479223 301.777766 
L 564.479223 301.70738 
L 563.479223 301.655416 
L 562.479223 301.596326 
L 561.479223 301.508005 
L 560.479223 301.461861 
L 559.479223 301.41945 
L 558.479223 301.388957 
L 557.479223 301.362912 
L 556.479223 301.341712 
L 555.479223 301.287411 
L 554.479223 301.259474 
L 553.479223 301.22975 
L 552.479223 301.204355 
L 551.479223 301.193155 
L 550.479223 301.183031 
L 549.479223 301.183235 
L 548.479223 301.192745 
L 547.479223 301.204398 
L 546.479223 301.235428 
L 545.479223 301.246596 
L 544.479223 301.276713 
L 543.479223 301.33649 
L 542.479223 301.373682 
L 541.479223 301.412778 
L 540.479223 301.455217 
L 539.479223 301.487982 
L 538.479223 301.555409 
L 537.479223 301.594535 
L 536.479223 301.637209 
L 535.479223 301.70779 
L 534.479223 301.744181 
L 533.479223 301.802584 
L 532.479223 301.913537 
L 531.479223 301.984195 
L 530.479223 302.097135 
L 529.479223 302.142908 
L 528.479223 302.204191 
L 527.479223 302.25269 
L 526.479223 302.333513 
L 525.479223 302.452032 
L 524.479223 302.522242 
L 523.479223 302.605505 
L 522.479223 302.638647 
L 521.479223 302.689884 
L 520.479223 302.758282 
L 519.479223 302.824498 
L 518.479223 302.901415 
L 517.479223 302.92873 
L 516.479223 302.955208 
L 515.479223 302.977858 
L 514.479223 302.99739 
L 513.479223 303.023784 
L 512.479223 303.073554 
L 511.479223 303.108628 
L 510.479223 303.144493 
L 509.479223 303.159861 
L 508.479223 303.17563 
L 507.479223 303.179042 
L 506.479223 303.18146 
L 505.479223 303.180974 
L 504.479223 303.179045 
L 503.479223 303.165788 
L 502.479223 303.157397 
L 501.479223 303.13586 
L 500.479223 303.112828 
L 499.479223 303.095594 
L 498.479223 303.077132 
L 497.479223 303.056679 
L 496.479223 303.04008 
L 495.479223 302.977301 
L 494.479223 302.902036 
L 493.479223 302.869397 
L 492.479223 302.801833 
L 491.479223 302.747786 
L 490.479223 302.714082 
L 489.479223 302.623956 
L 488.479223 302.595421 
L 487.479223 302.563935 
L 486.479223 302.532924 
L 485.479223 302.478116 
L 484.479223 302.413528 
L 483.479223 302.375333 
L 482.479223 302.279399 
L 481.479223 302.230141 
L 480.479223 302.186071 
L 479.479223 302.145948 
L 478.479223 302.037581 
L 477.479223 301.995953 
L 476.479223 301.933811 
L 475.479223 301.863849 
L 474.479223 301.759344 
L 473.479223 301.722357 
L 472.479223 301.67648 
L 471.479223 301.607985 
L 470.479223 301.559239 
L 469.479223 301.481642 
L 468.479223 301.451101 
L 467.479223 301.381586 
L 466.479223 301.357614 
L 465.479223 301.328992 
L 464.479223 301.287199 
L 463.479223 301.265623 
L 462.479223 301.251675 
L 461.479223 301.224952 
L 460.479223 301.215643 
L 459.479223 301.203196 
L 458.479223 301.192141 
L 457.479223 301.186476 
L 456.479223 301.181713 
L 455.479223 301.18726 
L 454.479223 301.200548 
L 453.479223 301.208066 
L 452.479223 301.232851 
L 451.479223 301.256419 
L 450.479223 301.2926 
L 449.479223 301.318562 
L 448.479223 301.340883 
L 447.479223 301.409643 
L 446.479223 301.484179 
L 445.479223 301.578158 
L 444.203307 301.62921 
" clip-path="url(#pbda49e9025)" style="fill: none; stroke-dasharray: 3.7,1.6; stroke-dashoffset: 0; stroke: #2ca02c"/>
   <g id="patch_3">
    <path d="M 298.466467 10.8 
L 298.466467 271.031891 
M 298.707675 10.8 
L 298.707675 271.031891 
" clip-path="url(#pbda49e9025)" style="fill: none; stroke: #ffffff; stroke-width: 3; stroke-linejoin: miter"/>
    <path d="M 298.466467 10.8 
L 298.466467 271.031891 
M 298.707675 10.8 
L 298.707675 271.031891 
" clip-path="url(#pbda49e9025)" style="fill: none; stroke: #1f77b4; stroke-linejoin: miter"/>
    <g id="PolyCollection_1">
     <path d="M 298.707675 10.8 
L 298.466467 10.8 
L 298.466467 271.031891 
L 298.707675 271.031891 
L 298.707675 271.031891 
L 298.707675 10.8 
z
" clip-path="url(#pbda49e9025)" style="fill: #1f77b4; fill-opacity: 0.5"/>
    </g>
    <g id="patch_4">
     <path d="M 88.264848 271.031891 
L 88.156602 317.100436 
L 87.892263 321.228706 
L 87.850142 321.621875 
M 88.347801 271.031891 
L 88.456046 317.100436 
L 88.720385 321.228706 
L 88.762506 321.621875 
L 88.762506 321.621875 
" clip-path="url(#pbda49e9025)" style="fill: none; stroke: #ffffff; stroke-width: 3; stroke-linejoin: miter"/>
     <path d="M 88.264848 271.031891 
L 88.156602 317.100436 
L 87.892263 321.228706 
L 87.850142 321.621875 
M 88.347801 271.031891 
L 88.456046 317.100436 
L 88.720385 321.228706 
L 88.762506 321.621875 
L 88.762506 321.621875 
" clip-path="url(#pbda49e9025)" style="fill: none; stroke: #ff7f0e; stroke-linejoin: miter"/>
     <g id="PolyCollection_2">
      <path d="M 88.347801 271.031891 
L 88.264848 271.031891 
L 88.264848 311.890953 
L 88.264848 311.890953 
L 88.263831 311.989245 
L 88.262789 312.087537 
L 88.261722 312.185829 
L 88.260628 312.284121 
L 88.259508 312.382413 
L 88.25836 312.480706 
L 88.257184 312.578998 
L 88.25598 312.67729 
L 88.254745 312.775582 
L 88.253481 312.873874 
L 88.252185 312.972166 
L 88.250858 313.070458 
L 88.249498 313.168751 
L 88.248105 313.267043 
L 88.246678 313.365335 
L 88.245216 313.463627 
L 88.243718 313.561919 
L 88.242183 313.660211 
L 88.24061 313.758503 
L 88.238999 313.856796 
L 88.237349 313.955088 
L 88.235658 314.05338 
L 88.233926 314.151672 
L 88.232151 314.249964 
L 88.230332 314.348256 
L 88.228469 314.446548 
L 88.226561 314.544841 
L 88.224605 314.643133 
L 88.222602 314.741425 
L 88.220549 314.839717 
L 88.218447 314.938009 
L 88.216292 315.036301 
L 88.214085 315.134593 
L 88.211824 315.232886 
L 88.209507 315.331178 
L 88.207133 315.42947 
L 88.204702 315.527762 
L 88.20221 315.626054 
L 88.199658 315.724346 
L 88.197043 315.822639 
L 88.194364 315.920931 
L 88.191619 316.019223 
L 88.188807 316.117515 
L 88.185926 316.215807 
L 88.182975 316.314099 
L 88.179951 316.412391 
L 88.176852 316.510684 
L 88.173678 316.608976 
L 88.170427 316.707268 
L 88.167095 316.80556 
L 88.163682 316.903852 
L 88.160185 317.002144 
L 88.156602 317.100436 
L 88.152932 317.198729 
L 88.149171 317.297021 
L 88.145318 317.395313 
L 88.141371 317.493605 
L 88.137327 317.591897 
L 88.133184 317.690189 
L 88.12894 317.788481 
L 88.124591 317.886774 
L 88.120136 317.985066 
L 88.115571 318.083358 
L 88.110895 318.18165 
L 88.106104 318.279942 
L 88.101195 318.378234 
L 88.096166 318.476526 
L 88.091014 318.574819 
L 88.085736 318.673111 
L 88.080328 318.771403 
L 88.074788 318.869695 
L 88.069111 318.967987 
L 88.063296 319.066279 
L 88.057338 319.164571 
L 88.051234 319.262864 
L 88.04498 319.361156 
L 88.038573 319.459448 
L 88.032009 319.55774 
L 88.025284 319.656032 
L 88.018395 319.754324 
L 88.011336 319.852616 
L 88.004104 319.950909 
L 87.996695 320.049201 
L 87.989104 320.147493 
L 87.981327 320.245785 
L 87.97336 320.344077 
L 87.965197 320.442369 
L 87.956834 320.540661 
L 87.948266 320.638954 
L 87.939489 320.737246 
L 87.930495 320.835538 
L 87.921282 320.93383 
L 87.911842 321.032122 
L 87.902171 321.130414 
L 87.892263 321.228706 
L 87.882112 321.326999 
L 87.871713 321.425291 
L 87.861058 321.523583 
L 87.850142 321.621875 
L 88.762506 321.621875 
L 88.762506 321.621875 
L 88.751591 321.523583 
L 88.740936 321.425291 
L 88.730536 321.326999 
L 88.720385 321.228706 
L 88.710477 321.130414 
L 88.700806 321.032122 
L 88.691367 320.93383 
L 88.682153 320.835538 
L 88.67316 320.737246 
L 88.664382 320.638954 
L 88.655814 320.540661 
L 88.647451 320.442369 
L 88.639288 320.344077 
L 88.631321 320.245785 
L 88.623544 320.147493 
L 88.615953 320.049201 
L 88.608544 319.950909 
L 88.601313 319.852616 
L 88.594254 319.754324 
L 88.587364 319.656032 
L 88.580639 319.55774 
L 88.574075 319.459448 
L 88.567668 319.361156 
L 88.561414 319.262864 
L 88.55531 319.164571 
L 88.549352 319.066279 
L 88.543537 318.967987 
L 88.537861 318.869695 
L 88.53232 318.771403 
L 88.526913 318.673111 
L 88.521634 318.574819 
L 88.516482 318.476526 
L 88.511453 318.378234 
L 88.506545 318.279942 
L 88.501754 318.18165 
L 88.497077 318.083358 
L 88.492513 317.985066 
L 88.488058 317.886774 
L 88.483709 317.788481 
L 88.479464 317.690189 
L 88.475321 317.591897 
L 88.471277 317.493605 
L 88.46733 317.395313 
L 88.463477 317.297021 
L 88.459717 317.198729 
L 88.456046 317.100436 
L 88.452464 317.002144 
L 88.448967 316.903852 
L 88.445554 316.80556 
L 88.442222 316.707268 
L 88.43897 316.608976 
L 88.435796 316.510684 
L 88.432698 316.412391 
L 88.429674 316.314099 
L 88.426722 316.215807 
L 88.423841 316.117515 
L 88.421029 316.019223 
L 88.418285 315.920931 
L 88.415605 315.822639 
L 88.41299 315.724346 
L 88.410438 315.626054 
L 88.407947 315.527762 
L 88.405515 315.42947 
L 88.403142 315.331178 
L 88.400825 315.232886 
L 88.398563 315.134593 
L 88.396356 315.036301 
L 88.394202 314.938009 
L 88.392099 314.839717 
L 88.390047 314.741425 
L 88.388043 314.643133 
L 88.386088 314.544841 
L 88.384179 314.446548 
L 88.382316 314.348256 
L 88.380498 314.249964 
L 88.378723 314.151672 
L 88.37699 314.05338 
L 88.3753 313.955088 
L 88.373649 313.856796 
L 88.372038 313.758503 
L 88.370466 313.660211 
L 88.368931 313.561919 
L 88.367433 313.463627 
L 88.36597 313.365335 
L 88.364543 313.267043 
L 88.36315 313.168751 
L 88.36179 313.070458 
L 88.360463 312.972166 
L 88.359168 312.873874 
L 88.357903 312.775582 
L 88.356669 312.67729 
L 88.355464 312.578998 
L 88.354288 312.480706 
L 88.353141 312.382413 
L 88.35202 312.284121 
L 88.350927 312.185829 
L 88.34986 312.087537 
L 88.348818 311.989245 
L 88.347801 311.890953 
L 88.347801 311.890953 
L 88.347801 271.031891 
z
" clip-path="url(#pbda49e9025)" style="fill: #ff7f0e; fill-opacity: 0.5"/>
     </g>
     <g id="patch_5">
      <path d="M 578.882316 72.964375 
L 578.882316 321.621875 
M 579.040483 72.964375 
L 579.040483 321.621875 
" clip-path="url(#pbda49e9025)" style="fill: none; stroke: #ffffff; stroke-width: 3; stroke-linejoin: miter"/>
      <path d="M 578.882316 72.964375 
L 578.882316 321.621875 
M 579.040483 72.964375 
L 579.040483 321.621875 
" clip-path="url(#pbda49e9025)" style="fill: none; stroke: #2ca02c; stroke-linejoin: miter"/>
      <g id="PolyCollection_3">
       <path d="M 579.040483 72.964375 
L 578.882316 72.964375 
L 578.882316 321.621875 
L 579.040483 321.621875 
L 579.040483 321.621875 
L 579.040483 72.964375 
z
" clip-path="url(#pbda49e9025)" style="fill: #2ca02c; fill-opacity: 0.5"/>
      </g>
      <g id="patch_6">
       <path d="M 438.748257 284.817365 
L 438.641689 307.65336 
L 438.39193 309.951976 
L 438.040543 311.36651 
L 437.577932 312.427409 
L 436.976271 313.311493 
L 436.072016 314.195576 
L 435.030783 314.902842 
L 433.588337 315.610109 
L 431.59008 316.317376 
L 428.821844 317.024642 
L 424.986938 317.731909 
L 419.674346 318.439175 
L 412.314679 319.146442 
L 402.119147 319.853709 
L 387.995021 320.560975 
L 368.428514 321.268242 
L 355.977438 321.621875 
M 438.800213 284.817365 
L 438.906781 307.65336 
L 439.156541 309.951976 
L 439.507927 311.36651 
L 439.970539 312.427409 
L 440.572199 313.311493 
L 441.476455 314.195576 
L 442.517688 314.902842 
L 443.960134 315.610109 
L 445.958391 316.317376 
L 448.726626 317.024642 
L 452.561533 317.731909 
L 457.874125 318.439175 
L 465.233792 319.146442 
L 475.429324 319.853709 
L 489.55345 320.560975 
L 509.119956 321.268242 
L 521.571033 321.621875 
L 521.571033 321.621875 
" clip-path="url(#pbda49e9025)" style="fill: none; stroke: #ffffff; stroke-width: 3; stroke-linejoin: miter"/>
       <path d="M 438.748257 284.817365 
L 438.641689 307.65336 
L 438.39193 309.951976 
L 438.040543 311.36651 
L 437.577932 312.427409 
L 436.976271 313.311493 
L 436.072016 314.195576 
L 435.030783 314.902842 
L 433.588337 315.610109 
L 431.59008 316.317376 
L 428.821844 317.024642 
L 424.986938 317.731909 
L 419.674346 318.439175 
L 412.314679 319.146442 
L 402.119147 319.853709 
L 387.995021 320.560975 
L 368.428514 321.268242 
L 355.977438 321.621875 
M 438.800213 284.817365 
L 438.906781 307.65336 
L 439.156541 309.951976 
L 439.507927 311.36651 
L 439.970539 312.427409 
L 440.572199 313.311493 
L 441.476455 314.195576 
L 442.517688 314.902842 
L 443.960134 315.610109 
L 445.958391 316.317376 
L 448.726626 317.024642 
L 452.561533 317.731909 
L 457.874125 318.439175 
L 465.233792 319.146442 
L 475.429324 319.853709 
L 489.55345 320.560975 
L 509.119956 321.268242 
L 521.571033 321.621875 
L 521.571033 321.621875 
" clip-path="url(#pbda49e9025)" style="fill: none; stroke: #d62728; stroke-linejoin: miter"/>
       <g id="PolyCollection_4">
        <path d="M 438.800213 284.817365 
L 438.748257 284.817365 
L 438.748257 289.293589 
L 438.765735 289.293589 
L 438.765735 290.104499 
L 438.748257 290.104499 
L 438.748257 304.117027 
L 438.748257 304.117027 
L 438.746052 304.293844 
L 438.743659 304.47066 
L 438.741063 304.647477 
L 438.738247 304.824294 
L 438.735192 305.00111 
L 438.731877 305.177927 
L 438.728281 305.354744 
L 438.72438 305.53156 
L 438.720147 305.708377 
L 438.715556 305.885194 
L 438.710574 306.06201 
L 438.705169 306.238827 
L 438.699306 306.415643 
L 438.692945 306.59246 
L 438.686044 306.769277 
L 438.678557 306.946093 
L 438.670434 307.12291 
L 438.661622 307.299727 
L 438.652061 307.476543 
L 438.641689 307.65336 
L 438.630436 307.830177 
L 438.618229 308.006993 
L 438.604984 308.18381 
L 438.590616 308.360627 
L 438.575027 308.537443 
L 438.558115 308.71426 
L 438.539768 308.891077 
L 438.519862 309.067893 
L 438.498267 309.24471 
L 438.474839 309.421526 
L 438.449421 309.598343 
L 438.421846 309.77516 
L 438.39193 309.951976 
L 438.359474 310.128793 
L 438.324263 310.30561 
L 438.286062 310.482426 
L 438.244618 310.659243 
L 438.199656 310.83606 
L 438.150877 311.012876 
L 438.097956 311.189693 
L 438.040543 311.36651 
L 437.978256 311.543326 
L 437.910681 311.720143 
L 437.837369 311.896959 
L 437.757833 312.073776 
L 437.671545 312.250593 
L 437.577932 312.427409 
L 437.476371 312.604226 
L 437.366188 312.781043 
L 437.246651 312.957859 
L 437.116966 313.134676 
L 436.976271 313.311493 
L 436.823632 313.488309 
L 436.658035 313.665126 
L 436.478379 313.841943 
L 436.283471 314.018759 
L 436.072016 314.195576 
L 435.84261 314.372393 
L 435.593728 314.549209 
L 435.323717 314.726026 
L 435.030783 314.902842 
L 434.71298 315.079659 
L 434.368198 315.256476 
L 433.994145 315.433292 
L 433.588337 315.610109 
L 433.148077 315.786926 
L 432.670441 315.963742 
L 432.152256 316.140559 
L 431.59008 316.317376 
L 430.980177 316.494192 
L 430.318496 316.671009 
L 429.600641 316.847826 
L 428.821844 317.024642 
L 427.97693 317.201459 
L 427.060287 317.378276 
L 426.065825 317.555092 
L 424.986938 317.731909 
L 423.816458 317.908725 
L 422.546609 318.085542 
L 421.168956 318.262359 
L 419.674346 318.439175 
L 418.05285 318.615992 
L 416.293697 318.792809 
L 414.385199 318.969625 
L 412.314679 319.146442 
L 410.06838 319.323259 
L 407.631381 319.500075 
L 404.987491 319.676892 
L 402.119147 319.853709 
L 399.007293 320.030525 
L 395.631257 320.207342 
L 391.96861 320.384158 
L 387.995021 320.560975 
L 383.684092 320.737792 
L 379.007184 320.914608 
L 373.933227 321.091425 
L 368.428514 321.268242 
L 362.456476 321.445058 
L 355.977438 321.621875 
L 521.571033 321.621875 
L 521.571033 321.621875 
L 515.091995 321.445058 
L 509.119956 321.268242 
L 503.615243 321.091425 
L 498.541287 320.914608 
L 493.864379 320.737792 
L 489.55345 320.560975 
L 485.57986 320.384158 
L 481.917214 320.207342 
L 478.541177 320.030525 
L 475.429324 319.853709 
L 472.560979 319.676892 
L 469.91709 319.500075 
L 467.48009 319.323259 
L 465.233792 319.146442 
L 463.163271 318.969625 
L 461.254774 318.792809 
L 459.49562 318.615992 
L 457.874125 318.439175 
L 456.379515 318.262359 
L 455.001862 318.085542 
L 453.732013 317.908725 
L 452.561533 317.731909 
L 451.482645 317.555092 
L 450.488183 317.378276 
L 449.57154 317.201459 
L 448.726626 317.024642 
L 447.947829 316.847826 
L 447.229975 316.671009 
L 446.568294 316.494192 
L 445.958391 316.317376 
L 445.396214 316.140559 
L 444.878029 315.963742 
L 444.400394 315.786926 
L 443.960134 315.610109 
L 443.554326 315.433292 
L 443.180273 315.256476 
L 442.83549 315.079659 
L 442.517688 314.902842 
L 442.224754 314.726026 
L 441.954743 314.549209 
L 441.705861 314.372393 
L 441.476455 314.195576 
L 441.265 314.018759 
L 441.070092 313.841943 
L 440.890436 313.665126 
L 440.724838 313.488309 
L 440.572199 313.311493 
L 440.431504 313.134676 
L 440.301819 312.957859 
L 440.182282 312.781043 
L 440.0721 312.604226 
L 439.970539 312.427409 
L 439.876925 312.250593 
L 439.790637 312.073776 
L 439.711101 311.896959 
L 439.63779 311.720143 
L 439.570214 311.543326 
L 439.507927 311.36651 
L 439.450514 311.189693 
L 439.397594 311.012876 
L 439.348815 310.83606 
L 439.303852 310.659243 
L 439.262409 310.482426 
L 439.224208 310.30561 
L 439.188997 310.128793 
L 439.156541 309.951976 
L 439.126624 309.77516 
L 439.099049 309.598343 
L 439.073632 309.421526 
L 439.050203 309.24471 
L 439.028608 309.067893 
L 439.008703 308.891077 
L 438.990355 308.71426 
L 438.973443 308.537443 
L 438.957855 308.360627 
L 438.943486 308.18381 
L 438.930242 308.006993 
L 438.918034 307.830177 
L 438.906781 307.65336 
L 438.896409 307.476543 
L 438.886849 307.299727 
L 438.878037 307.12291 
L 438.869914 306.946093 
L 438.862427 306.769277 
L 438.855526 306.59246 
L 438.849165 306.415643 
L 438.843301 306.238827 
L 438.837897 306.06201 
L 438.832915 305.885194 
L 438.828323 305.708377 
L 438.824091 305.53156 
L 438.820189 305.354744 
L 438.816593 305.177927 
L 438.813279 305.00111 
L 438.810224 304.824294 
L 438.807407 304.647477 
L 438.804812 304.47066 
L 438.802419 304.293844 
L 438.800213 304.117027 
L 438.800213 304.117027 
L 438.800213 290.104499 
L 438.782736 290.104499 
L 438.782736 289.293589 
L 438.800213 289.293589 
L 438.800213 284.817365 
z
" clip-path="url(#pbda49e9025)" style="fill: #d62728; fill-opacity: 0.5"/>
       </g>
       <g id="matplotlib.axis_1">
        <g id="xtick_1">
         <g id="line2d_1"/>
         <g id="text_1">
          <!-- OUT -->
          <g transform="translate(77.657105 332.720312) scale(0.1 -0.1)">
           <defs>
            <path id="DejaVuSans-4f" d="M 2522 4238 
Q 1834 4238 1429 3725 
Q 1025 3213 1025 2328 
Q 1025 1447 1429 934 
Q 1834 422 2522 422 
Q 3209 422 3611 934 
Q 4013 1447 4013 2328 
Q 4013 3213 3611 3725 
Q 3209 4238 2522 4238 
z
M 2522 4750 
Q 3503 4750 4090 4092 
Q 4678 3434 4678 2328 
Q 4678 1225 4090 567 
Q 3503 -91 2522 -91 
Q 1538 -91 948 565 
Q 359 1222 359 2328 
Q 359 3434 948 4092 
Q 1538 4750 2522 4750 
z
" transform="scale(0.015625)"/>
            <path id="DejaVuSans-55" d="M 556 4666 
L 1191 4666 
L 1191 1831 
Q 1191 1081 1462 751 
Q 1734 422 2344 422 
Q 2950 422 3222 751 
Q 3494 1081 3494 1831 
L 3494 4666 
L 4128 4666 
L 4128 1753 
Q 4128 841 3676 375 
Q 3225 -91 2344 -91 
Q 1459 -91 1007 375 
Q 556 841 556 1753 
L 556 4666 
z
" transform="scale(0.015625)"/>
            <path id="DejaVuSans-54" d="M -19 4666 
L 3928 4666 
L 3928 4134 
L 2272 4134 
L 2272 0 
L 1638 0 
L 1638 4134 
L -19 4134 
L -19 4666 
z
" transform="scale(0.015625)"/>
           </defs>
           <use xlink:href="#DejaVuSans-4f"/>
           <use xlink:href="#DejaVuSans-55" x="78.710938"/>
           <use xlink:href="#DejaVuSans-54" x="151.904297"/>
          </g>
         </g>
        </g>
        <g id="xtick_2">
         <g id="line2d_2"/>
         <g id="text_2">
          <!-- SRC -->
          <g transform="translate(569.071556 332.720312) scale(0.1 -0.1)">
           <defs>
            <path id="DejaVuSans-53" d="M 3425 4513 
L 3425 3897 
Q 3066 4069 2747 4153 
Q 2428 4238 2131 4238 
Q 1616 4238 1336 4038 
Q 1056 3838 1056 3469 
Q 1056 3159 1242 3001 
Q 1428 2844 1947 2747 
L 2328 2669 
Q 3034 2534 3370 2195 
Q 3706 1856 3706 1288 
Q 3706 609 3251 259 
Q 2797 -91 1919 -91 
Q 1588 -91 1214 -16 
Q 841 59 441 206 
L 441 856 
Q 825 641 1194 531 
Q 1563 422 1919 422 
Q 2459 422 2753 634 
Q 3047 847 3047 1241 
Q 3047 1584 2836 1778 
Q 2625 1972 2144 2069 
L 1759 2144 
Q 1053 2284 737 2584 
Q 422 2884 422 3419 
Q 422 4038 858 4394 
Q 1294 4750 2059 4750 
Q 2388 4750 2728 4690 
Q 3069 4631 3425 4513 
z
" transform="scale(0.015625)"/>
            <path id="DejaVuSans-52" d="M 2841 2188 
Q 3044 2119 3236 1894 
Q 3428 1669 3622 1275 
L 4263 0 
L 3584 0 
L 2988 1197 
Q 2756 1666 2539 1819 
Q 2322 1972 1947 1972 
L 1259 1972 
L 1259 0 
L 628 0 
L 628 4666 
L 2053 4666 
Q 2853 4666 3247 4331 
Q 3641 3997 3641 3322 
Q 3641 2881 3436 2590 
Q 3231 2300 2841 2188 
z
M 1259 4147 
L 1259 2491 
L 2053 2491 
Q 2509 2491 2742 2702 
Q 2975 2913 2975 3322 
Q 2975 3731 2742 3939 
Q 2509 4147 2053 4147 
L 1259 4147 
z
" transform="scale(0.015625)"/>
            <path id="DejaVuSans-43" d="M 4122 4306 
L 4122 3641 
Q 3803 3938 3442 4084 
Q 3081 4231 2675 4231 
Q 1875 4231 1450 3742 
Q 1025 3253 1025 2328 
Q 1025 1406 1450 917 
Q 1875 428 2675 428 
Q 3081 428 3442 575 
Q 3803 722 4122 1019 
L 4122 359 
Q 3791 134 3420 21 
Q 3050 -91 2638 -91 
Q 1578 -91 968 557 
Q 359 1206 359 2328 
Q 359 3453 968 4101 
Q 1578 4750 2638 4750 
Q 3056 4750 3426 4639 
Q 3797 4528 4122 4306 
z
" transform="scale(0.015625)"/>
           </defs>
           <use xlink:href="#DejaVuSans-53"/>
           <use xlink:href="#DejaVuSans-52" x="63.476562"/>
           <use xlink:href="#DejaVuSans-43" x="127.958984"/>
          </g>
         </g>
        </g>
        <g id="xtick_3">
         <g id="line2d_3"/>
         <g id="text_3">
          <!-- TAR -->
          <g transform="translate(429.213298 332.720312) scale(0.1 -0.1)">
           <defs>
            <path id="DejaVuSans-41" d="M 2188 4044 
L 1331 1722 
L 3047 1722 
L 2188 4044 
z
M 1831 4666 
L 2547 4666 
L 4325 0 
L 3669 0 
L 3244 1197 
L 1141 1197 
L 716 0 
L 50 0 
L 1831 4666 
z
" transform="scale(0.015625)"/>
           </defs>
           <use xlink:href="#DejaVuSans-54"/>
           <use xlink:href="#DejaVuSans-41" x="53.333984"/>
           <use xlink:href="#DejaVuSans-52" x="121.742188"/>
          </g>
         </g>
        </g>
       </g>
       <g id="matplotlib.axis_2">
        <g id="ytick_1">
         <g id="line2d_4">
          <defs>
           <path id="mf9d9564427" d="M 0 0 
L -3.5 0 
" style="stroke: #000000; stroke-width: 0.8"/>
          </defs>
          <g>
           <use xlink:href="#mf9d9564427" x="63.290625" y="321.621875" style="stroke: #000000; stroke-width: 0.8"/>
          </g>
         </g>
         <g id="text_4">
          <!-- 0 -->
          <g transform="translate(49.928125 325.421094) scale(0.1 -0.1)">
           <defs>
            <path id="DejaVuSans-30" d="M 2034 4250 
Q 1547 4250 1301 3770 
Q 1056 3291 1056 2328 
Q 1056 1369 1301 889 
Q 1547 409 2034 409 
Q 2525 409 2770 889 
Q 3016 1369 3016 2328 
Q 3016 3291 2770 3770 
Q 2525 4250 2034 4250 
z
M 2034 4750 
Q 2819 4750 3233 4129 
Q 3647 3509 3647 2328 
Q 3647 1150 3233 529 
Q 2819 -91 2034 -91 
Q 1250 -91 836 529 
Q 422 1150 422 2328 
Q 422 3509 836 4129 
Q 1250 4750 2034 4750 
z
" transform="scale(0.015625)"/>
           </defs>
           <use xlink:href="#DejaVuSans-30"/>
          </g>
         </g>
        </g>
        <g id="ytick_2">
         <g id="line2d_5">
          <g>
           <use xlink:href="#mf9d9564427" x="63.290625" y="267.561196" style="stroke: #000000; stroke-width: 0.8"/>
          </g>
         </g>
         <g id="text_5">
          <!-- 5000 -->
          <g transform="translate(30.840625 271.360415) scale(0.1 -0.1)">
           <defs>
            <path id="DejaVuSans-35" d="M 691 4666 
L 3169 4666 
L 3169 4134 
L 1269 4134 
L 1269 2991 
Q 1406 3038 1543 3061 
Q 1681 3084 1819 3084 
Q 2600 3084 3056 2656 
Q 3513 2228 3513 1497 
Q 3513 744 3044 326 
Q 2575 -91 1722 -91 
Q 1428 -91 1123 -41 
Q 819 9 494 109 
L 494 744 
Q 775 591 1075 516 
Q 1375 441 1709 441 
Q 2250 441 2565 725 
Q 2881 1009 2881 1497 
Q 2881 1984 2565 2268 
Q 2250 2553 1709 2553 
Q 1456 2553 1204 2497 
Q 953 2441 691 2322 
L 691 4666 
z
" transform="scale(0.015625)"/>
           </defs>
           <use xlink:href="#DejaVuSans-35"/>
           <use xlink:href="#DejaVuSans-30" x="63.623047"/>
           <use xlink:href="#DejaVuSans-30" x="127.246094"/>
           <use xlink:href="#DejaVuSans-30" x="190.869141"/>
          </g>
         </g>
        </g>
        <g id="ytick_3">
         <g id="line2d_6">
          <g>
           <use xlink:href="#mf9d9564427" x="63.290625" y="213.500517" style="stroke: #000000; stroke-width: 0.8"/>
          </g>
         </g>
         <g id="text_6">
          <!-- 10000 -->
          <g transform="translate(24.478125 217.299735) scale(0.1 -0.1)">
           <defs>
            <path id="DejaVuSans-31" d="M 794 531 
L 1825 531 
L 1825 4091 
L 703 3866 
L 703 4441 
L 1819 4666 
L 2450 4666 
L 2450 531 
L 3481 531 
L 3481 0 
L 794 0 
L 794 531 
z
" transform="scale(0.015625)"/>
           </defs>
           <use xlink:href="#DejaVuSans-31"/>
           <use xlink:href="#DejaVuSans-30" x="63.623047"/>
           <use xlink:href="#DejaVuSans-30" x="127.246094"/>
           <use xlink:href="#DejaVuSans-30" x="190.869141"/>
           <use xlink:href="#DejaVuSans-30" x="254.492188"/>
          </g>
         </g>
        </g>
        <g id="ytick_4">
         <g id="line2d_7">
          <g>
           <use xlink:href="#mf9d9564427" x="63.290625" y="159.439837" style="stroke: #000000; stroke-width: 0.8"/>
          </g>
         </g>
         <g id="text_7">
          <!-- 15000 -->
          <g transform="translate(24.478125 163.239056) scale(0.1 -0.1)">
           <use xlink:href="#DejaVuSans-31"/>
           <use xlink:href="#DejaVuSans-35" x="63.623047"/>
           <use xlink:href="#DejaVuSans-30" x="127.246094"/>
           <use xlink:href="#DejaVuSans-30" x="190.869141"/>
           <use xlink:href="#DejaVuSans-30" x="254.492188"/>
          </g>
         </g>
        </g>
        <g id="ytick_5">
         <g id="line2d_8">
          <g>
           <use xlink:href="#mf9d9564427" x="63.290625" y="105.379158" style="stroke: #000000; stroke-width: 0.8"/>
          </g>
         </g>
         <g id="text_8">
          <!-- 20000 -->
          <g transform="translate(24.478125 109.178377) scale(0.1 -0.1)">
           <defs>
            <path id="DejaVuSans-32" d="M 1228 531 
L 3431 531 
L 3431 0 
L 469 0 
L 469 531 
Q 828 903 1448 1529 
Q 2069 2156 2228 2338 
Q 2531 2678 2651 2914 
Q 2772 3150 2772 3378 
Q 2772 3750 2511 3984 
Q 2250 4219 1831 4219 
Q 1534 4219 1204 4116 
Q 875 4013 500 3803 
L 500 4441 
Q 881 4594 1212 4672 
Q 1544 4750 1819 4750 
Q 2544 4750 2975 4387 
Q 3406 4025 3406 3419 
Q 3406 3131 3298 2873 
Q 3191 2616 2906 2266 
Q 2828 2175 2409 1742 
Q 1991 1309 1228 531 
z
" transform="scale(0.015625)"/>
           </defs>
           <use xlink:href="#DejaVuSans-32"/>
           <use xlink:href="#DejaVuSans-30" x="63.623047"/>
           <use xlink:href="#DejaVuSans-30" x="127.246094"/>
           <use xlink:href="#DejaVuSans-30" x="190.869141"/>
           <use xlink:href="#DejaVuSans-30" x="254.492188"/>
          </g>
         </g>
        </g>
        <g id="ytick_6">
         <g id="line2d_9">
          <g>
           <use xlink:href="#mf9d9564427" x="63.290625" y="51.318479" style="stroke: #000000; stroke-width: 0.8"/>
          </g>
         </g>
         <g id="text_9">
          <!-- 25000 -->
          <g transform="translate(24.478125 55.117698) scale(0.1 -0.1)">
           <use xlink:href="#DejaVuSans-32"/>
           <use xlink:href="#DejaVuSans-35" x="63.623047"/>
           <use xlink:href="#DejaVuSans-30" x="127.246094"/>
           <use xlink:href="#DejaVuSans-30" x="190.869141"/>
           <use xlink:href="#DejaVuSans-30" x="254.492188"/>
          </g>
         </g>
        </g>
        <g id="text_10">
         <!-- time ago (generations) -->
         <g transform="translate(18.398438 223.682031) rotate(-90) scale(0.1 -0.1)">
          <defs>
           <path id="DejaVuSans-74" d="M 1172 4494 
L 1172 3500 
L 2356 3500 
L 2356 3053 
L 1172 3053 
L 1172 1153 
Q 1172 725 1289 603 
Q 1406 481 1766 481 
L 2356 481 
L 2356 0 
L 1766 0 
Q 1100 0 847 248 
Q 594 497 594 1153 
L 594 3053 
L 172 3053 
L 172 3500 
L 594 3500 
L 594 4494 
L 1172 4494 
z
" transform="scale(0.015625)"/>
           <path id="DejaVuSans-69" d="M 603 3500 
L 1178 3500 
L 1178 0 
L 603 0 
L 603 3500 
z
M 603 4863 
L 1178 4863 
L 1178 4134 
L 603 4134 
L 603 4863 
z
" transform="scale(0.015625)"/>
           <path id="DejaVuSans-6d" d="M 3328 2828 
Q 3544 3216 3844 3400 
Q 4144 3584 4550 3584 
Q 5097 3584 5394 3201 
Q 5691 2819 5691 2113 
L 5691 0 
L 5113 0 
L 5113 2094 
Q 5113 2597 4934 2840 
Q 4756 3084 4391 3084 
Q 3944 3084 3684 2787 
Q 3425 2491 3425 1978 
L 3425 0 
L 2847 0 
L 2847 2094 
Q 2847 2600 2669 2842 
Q 2491 3084 2119 3084 
Q 1678 3084 1418 2786 
Q 1159 2488 1159 1978 
L 1159 0 
L 581 0 
L 581 3500 
L 1159 3500 
L 1159 2956 
Q 1356 3278 1631 3431 
Q 1906 3584 2284 3584 
Q 2666 3584 2933 3390 
Q 3200 3197 3328 2828 
z
" transform="scale(0.015625)"/>
           <path id="DejaVuSans-65" d="M 3597 1894 
L 3597 1613 
L 953 1613 
Q 991 1019 1311 708 
Q 1631 397 2203 397 
Q 2534 397 2845 478 
Q 3156 559 3463 722 
L 3463 178 
Q 3153 47 2828 -22 
Q 2503 -91 2169 -91 
Q 1331 -91 842 396 
Q 353 884 353 1716 
Q 353 2575 817 3079 
Q 1281 3584 2069 3584 
Q 2775 3584 3186 3129 
Q 3597 2675 3597 1894 
z
M 3022 2063 
Q 3016 2534 2758 2815 
Q 2500 3097 2075 3097 
Q 1594 3097 1305 2825 
Q 1016 2553 972 2059 
L 3022 2063 
z
" transform="scale(0.015625)"/>
           <path id="DejaVuSans-20" transform="scale(0.015625)"/>
           <path id="DejaVuSans-61" d="M 2194 1759 
Q 1497 1759 1228 1600 
Q 959 1441 959 1056 
Q 959 750 1161 570 
Q 1363 391 1709 391 
Q 2188 391 2477 730 
Q 2766 1069 2766 1631 
L 2766 1759 
L 2194 1759 
z
M 3341 1997 
L 3341 0 
L 2766 0 
L 2766 531 
Q 2569 213 2275 61 
Q 1981 -91 1556 -91 
Q 1019 -91 701 211 
Q 384 513 384 1019 
Q 384 1609 779 1909 
Q 1175 2209 1959 2209 
L 2766 2209 
L 2766 2266 
Q 2766 2663 2505 2880 
Q 2244 3097 1772 3097 
Q 1472 3097 1187 3025 
Q 903 2953 641 2809 
L 641 3341 
Q 956 3463 1253 3523 
Q 1550 3584 1831 3584 
Q 2591 3584 2966 3190 
Q 3341 2797 3341 1997 
z
" transform="scale(0.015625)"/>
           <path id="DejaVuSans-67" d="M 2906 1791 
Q 2906 2416 2648 2759 
Q 2391 3103 1925 3103 
Q 1463 3103 1205 2759 
Q 947 2416 947 1791 
Q 947 1169 1205 825 
Q 1463 481 1925 481 
Q 2391 481 2648 825 
Q 2906 1169 2906 1791 
z
M 3481 434 
Q 3481 -459 3084 -895 
Q 2688 -1331 1869 -1331 
Q 1566 -1331 1297 -1286 
Q 1028 -1241 775 -1147 
L 775 -588 
Q 1028 -725 1275 -790 
Q 1522 -856 1778 -856 
Q 2344 -856 2625 -561 
Q 2906 -266 2906 331 
L 2906 616 
Q 2728 306 2450 153 
Q 2172 0 1784 0 
Q 1141 0 747 490 
Q 353 981 353 1791 
Q 353 2603 747 3093 
Q 1141 3584 1784 3584 
Q 2172 3584 2450 3431 
Q 2728 3278 2906 2969 
L 2906 3500 
L 3481 3500 
L 3481 434 
z
" transform="scale(0.015625)"/>
           <path id="DejaVuSans-6f" d="M 1959 3097 
Q 1497 3097 1228 2736 
Q 959 2375 959 1747 
Q 959 1119 1226 758 
Q 1494 397 1959 397 
Q 2419 397 2687 759 
Q 2956 1122 2956 1747 
Q 2956 2369 2687 2733 
Q 2419 3097 1959 3097 
z
M 1959 3584 
Q 2709 3584 3137 3096 
Q 3566 2609 3566 1747 
Q 3566 888 3137 398 
Q 2709 -91 1959 -91 
Q 1206 -91 779 398 
Q 353 888 353 1747 
Q 353 2609 779 3096 
Q 1206 3584 1959 3584 
z
" transform="scale(0.015625)"/>
           <path id="DejaVuSans-28" d="M 1984 4856 
Q 1566 4138 1362 3434 
Q 1159 2731 1159 2009 
Q 1159 1288 1364 580 
Q 1569 -128 1984 -844 
L 1484 -844 
Q 1016 -109 783 600 
Q 550 1309 550 2009 
Q 550 2706 781 3412 
Q 1013 4119 1484 4856 
L 1984 4856 
z
" transform="scale(0.015625)"/>
           <path id="DejaVuSans-6e" d="M 3513 2113 
L 3513 0 
L 2938 0 
L 2938 2094 
Q 2938 2591 2744 2837 
Q 2550 3084 2163 3084 
Q 1697 3084 1428 2787 
Q 1159 2491 1159 1978 
L 1159 0 
L 581 0 
L 581 3500 
L 1159 3500 
L 1159 2956 
Q 1366 3272 1645 3428 
Q 1925 3584 2291 3584 
Q 2894 3584 3203 3211 
Q 3513 2838 3513 2113 
z
" transform="scale(0.015625)"/>
           <path id="DejaVuSans-72" d="M 2631 2963 
Q 2534 3019 2420 3045 
Q 2306 3072 2169 3072 
Q 1681 3072 1420 2755 
Q 1159 2438 1159 1844 
L 1159 0 
L 581 0 
L 581 3500 
L 1159 3500 
L 1159 2956 
Q 1341 3275 1631 3429 
Q 1922 3584 2338 3584 
Q 2397 3584 2469 3576 
Q 2541 3569 2628 3553 
L 2631 2963 
z
" transform="scale(0.015625)"/>
           <path id="DejaVuSans-73" d="M 2834 3397 
L 2834 2853 
Q 2591 2978 2328 3040 
Q 2066 3103 1784 3103 
Q 1356 3103 1142 2972 
Q 928 2841 928 2578 
Q 928 2378 1081 2264 
Q 1234 2150 1697 2047 
L 1894 2003 
Q 2506 1872 2764 1633 
Q 3022 1394 3022 966 
Q 3022 478 2636 193 
Q 2250 -91 1575 -91 
Q 1294 -91 989 -36 
Q 684 19 347 128 
L 347 722 
Q 666 556 975 473 
Q 1284 391 1588 391 
Q 1994 391 2212 530 
Q 2431 669 2431 922 
Q 2431 1156 2273 1281 
Q 2116 1406 1581 1522 
L 1381 1569 
Q 847 1681 609 1914 
Q 372 2147 372 2553 
Q 372 3047 722 3315 
Q 1072 3584 1716 3584 
Q 2034 3584 2315 3537 
Q 2597 3491 2834 3397 
z
" transform="scale(0.015625)"/>
           <path id="DejaVuSans-29" d="M 513 4856 
L 1013 4856 
Q 1481 4119 1714 3412 
Q 1947 2706 1947 2009 
Q 1947 1309 1714 600 
Q 1481 -109 1013 -844 
L 513 -844 
Q 928 -128 1133 580 
Q 1338 1288 1338 2009 
Q 1338 2731 1133 3434 
Q 928 4138 513 4856 
z
" transform="scale(0.015625)"/>
          </defs>
          <use xlink:href="#DejaVuSans-74"/>
          <use xlink:href="#DejaVuSans-69" x="39.208984"/>
          <use xlink:href="#DejaVuSans-6d" x="66.992188"/>
          <use xlink:href="#DejaVuSans-65" x="164.404297"/>
          <use xlink:href="#DejaVuSans-20" x="225.927734"/>
          <use xlink:href="#DejaVuSans-61" x="257.714844"/>
          <use xlink:href="#DejaVuSans-67" x="318.994141"/>
          <use xlink:href="#DejaVuSans-6f" x="382.470703"/>
          <use xlink:href="#DejaVuSans-20" x="443.652344"/>
          <use xlink:href="#DejaVuSans-28" x="475.439453"/>
          <use xlink:href="#DejaVuSans-67" x="514.453125"/>
          <use xlink:href="#DejaVuSans-65" x="577.929688"/>
          <use xlink:href="#DejaVuSans-6e" x="639.453125"/>
          <use xlink:href="#DejaVuSans-65" x="702.832031"/>
          <use xlink:href="#DejaVuSans-72" x="764.355469"/>
          <use xlink:href="#DejaVuSans-61" x="805.46875"/>
          <use xlink:href="#DejaVuSans-74" x="866.748047"/>
          <use xlink:href="#DejaVuSans-69" x="905.957031"/>
          <use xlink:href="#DejaVuSans-6f" x="933.740234"/>
          <use xlink:href="#DejaVuSans-6e" x="994.921875"/>
          <use xlink:href="#DejaVuSans-73" x="1058.300781"/>
          <use xlink:href="#DejaVuSans-29" x="1110.400391"/>
         </g>
        </g>
       </g>
       <g id="patch_7">
        <path d="M 296.469031 271.031891 
L 295.469031 271.000455 
L 294.469031 270.963515 
L 293.469031 270.865768 
L 292.469031 270.833247 
L 291.469031 270.759622 
L 290.469031 270.721056 
L 289.469031 270.685643 
L 288.469031 270.628003 
L 287.469031 270.557617 
L 286.469031 270.505653 
L 285.469031 270.446563 
L 284.469031 270.358242 
L 283.469031 270.312098 
L 282.469031 270.269687 
L 281.469031 270.239194 
L 280.469031 270.213149 
L 279.469031 270.191949 
L 278.469031 270.137648 
L 277.469031 270.10971 
L 276.469031 270.079986 
L 275.469031 270.054592 
L 274.469031 270.043391 
L 273.469031 270.033267 
L 272.469031 270.033472 
L 271.469031 270.042981 
L 270.469031 270.054635 
L 269.469031 270.085664 
L 268.469031 270.096832 
L 267.469031 270.12695 
L 266.469031 270.186727 
L 265.469031 270.223918 
L 264.469031 270.263014 
L 263.469031 270.305454 
L 262.469031 270.338219 
L 261.469031 270.405646 
L 260.469031 270.444771 
L 259.469031 270.487446 
L 258.469031 270.558027 
L 257.469031 270.594417 
L 256.469031 270.652821 
L 255.469031 270.763773 
L 254.469031 270.834432 
L 253.469031 270.947371 
L 252.469031 270.993144 
L 251.469031 271.054427 
L 250.469031 271.102927 
L 249.469031 271.183749 
L 248.469031 271.302268 
L 247.469031 271.372479 
L 246.469031 271.455742 
L 245.469031 271.488883 
L 244.469031 271.540121 
L 243.469031 271.608519 
L 242.469031 271.674734 
L 241.469031 271.751651 
L 240.469031 271.778967 
L 239.469031 271.805444 
L 238.469031 271.828095 
L 237.469031 271.847626 
L 236.469031 271.87402 
L 235.469031 271.923791 
L 234.469031 271.958864 
L 233.469031 271.99473 
L 232.469031 272.010097 
L 231.469031 272.025867 
L 230.469031 272.029279 
L 229.469031 272.031697 
L 228.469031 272.031211 
L 227.469031 272.029281 
L 226.469031 272.016024 
L 225.469031 272.007634 
L 224.469031 271.986097 
L 223.469031 271.963065 
L 222.469031 271.945831 
L 221.469031 271.927369 
L 220.469031 271.906916 
L 219.469031 271.890316 
L 218.469031 271.827538 
L 217.469031 271.752273 
L 216.469031 271.719633 
L 215.469031 271.65207 
L 214.469031 271.598023 
L 213.469031 271.564318 
L 212.469031 271.474192 
L 211.469031 271.445657 
L 210.469031 271.414171 
L 209.469031 271.38316 
L 208.469031 271.328353 
L 207.469031 271.263765 
L 206.469031 271.22557 
L 205.469031 271.129636 
L 204.469031 271.080378 
L 203.469031 271.036308 
L 202.469031 270.996184 
L 201.469031 270.887817 
L 200.469031 270.846189 
L 199.469031 270.784048 
L 198.469031 270.714085 
L 197.469031 270.609581 
L 196.469031 270.572594 
L 195.469031 270.526716 
L 194.469031 270.458222 
L 193.469031 270.409476 
L 192.469031 270.331878 
L 191.469031 270.301338 
L 190.469031 270.231823 
L 189.469031 270.20785 
L 188.469031 270.179229 
L 187.469031 270.137435 
L 186.469031 270.11586 
L 185.469031 270.101912 
L 184.469031 270.075189 
L 183.469031 270.065879 
L 182.469031 270.053433 
L 181.469031 270.042378 
L 180.469031 270.036713 
L 179.469031 270.031949 
L 178.469031 270.037497 
L 177.469031 270.050785 
L 176.469031 270.058303 
L 175.469031 270.083087 
L 174.469031 270.106656 
L 173.469031 270.142837 
L 172.469031 270.168799 
L 171.469031 270.19112 
L 170.469031 270.25988 
L 169.469031 270.334415 
L 168.469031 270.428395 
L 167.469031 270.479447 
L 166.469031 270.53338 
L 165.469031 270.568631 
L 164.469031 270.674719 
L 163.469031 270.726983 
L 162.469031 270.76389 
L 161.469031 270.794921 
L 160.469031 270.856076 
L 159.469031 270.923496 
L 158.469031 270.972402 
L 157.469031 271.037595 
L 156.469031 271.075782 
L 155.469031 271.117778 
L 154.469031 271.159795 
L 153.469031 271.219312 
L 152.469031 271.332472 
L 151.469031 271.384722 
L 150.469031 271.42414 
L 149.469031 271.471242 
L 148.469031 271.528021 
L 147.469031 271.560684 
L 146.469031 271.596862 
L 145.469031 271.628953 
L 144.469031 271.663232 
L 143.469031 271.72161 
L 142.469031 271.766795 
L 141.469031 271.796419 
L 140.469031 271.846805 
L 139.469031 271.872003 
L 138.469031 271.893054 
L 137.469031 271.928021 
L 136.469031 271.952311 
L 135.469031 271.966378 
L 134.469031 271.98532 
L 133.469031 272.000982 
L 132.469031 272.013534 
L 131.469031 272.019369 
L 130.469031 272.026252 
L 129.469031 272.031425 
L 128.469031 272.029643 
L 127.469031 272.026917 
L 126.469031 272.015764 
L 125.469031 271.987528 
L 124.469031 271.943741 
L 123.469031 271.923051 
L 122.469031 271.882078 
L 121.469031 271.842003 
L 120.469031 271.822893 
L 119.469031 271.800385 
L 118.469031 271.733733 
L 117.469031 271.684024 
L 116.469031 271.610317 
L 115.469031 271.579003 
L 114.469031 271.502381 
L 113.469031 271.464083 
L 112.469031 271.389967 
L 111.469031 271.285908 
L 110.469031 271.216077 
L 109.469031 271.110844 
L 108.469031 271.055828 
L 107.469031 270.932353 
L 106.469031 270.861794 
L 105.469031 270.745955 
L 104.469031 270.695774 
L 103.469031 270.66017 
L 102.469031 270.568764 
L 101.469031 270.515256 
L 100.469031 270.427347 
L 99.469031 270.358162 
L 98.469031 270.311398 
L 97.469031 270.239354 
L 96.469031 270.189212 
L 95.469031 270.171823 
L 94.469031 270.144819 
L 93.469031 270.125392 
L 92.469031 270.106054 
L 91.463336 270.067806 
" clip-path="url(#pbda49e9025)" style="fill: none; stroke: #ffffff; stroke-width: 3; stroke-linecap: round"/>
        <path d="M 296.469031 271.031891 
L 295.469031 271.000455 
L 294.469031 270.963515 
L 293.469031 270.865768 
L 292.469031 270.833247 
L 291.469031 270.759622 
L 290.469031 270.721056 
L 289.469031 270.685643 
L 288.469031 270.628003 
L 287.469031 270.557617 
L 286.469031 270.505653 
L 285.469031 270.446563 
L 284.469031 270.358242 
L 283.469031 270.312098 
L 282.469031 270.269687 
L 281.469031 270.239194 
L 280.469031 270.213149 
L 279.469031 270.191949 
L 278.469031 270.137648 
L 277.469031 270.10971 
L 276.469031 270.079986 
L 275.469031 270.054592 
L 274.469031 270.043391 
L 273.469031 270.033267 
L 272.469031 270.033472 
L 271.469031 270.042981 
L 270.469031 270.054635 
L 269.469031 270.085664 
L 268.469031 270.096832 
L 267.469031 270.12695 
L 266.469031 270.186727 
L 265.469031 270.223918 
L 264.469031 270.263014 
L 263.469031 270.305454 
L 262.469031 270.338219 
L 261.469031 270.405646 
L 260.469031 270.444771 
L 259.469031 270.487446 
L 258.469031 270.558027 
L 257.469031 270.594417 
L 256.469031 270.652821 
L 255.469031 270.763773 
L 254.469031 270.834432 
L 253.469031 270.947371 
L 252.469031 270.993144 
L 251.469031 271.054427 
L 250.469031 271.102927 
L 249.469031 271.183749 
L 248.469031 271.302268 
L 247.469031 271.372479 
L 246.469031 271.455742 
L 245.469031 271.488883 
L 244.469031 271.540121 
L 243.469031 271.608519 
L 242.469031 271.674734 
L 241.469031 271.751651 
L 240.469031 271.778967 
L 239.469031 271.805444 
L 238.469031 271.828095 
L 237.469031 271.847626 
L 236.469031 271.87402 
L 235.469031 271.923791 
L 234.469031 271.958864 
L 233.469031 271.99473 
L 232.469031 272.010097 
L 231.469031 272.025867 
L 230.469031 272.029279 
L 229.469031 272.031697 
L 228.469031 272.031211 
L 227.469031 272.029281 
L 226.469031 272.016024 
L 225.469031 272.007634 
L 224.469031 271.986097 
L 223.469031 271.963065 
L 222.469031 271.945831 
L 221.469031 271.927369 
L 220.469031 271.906916 
L 219.469031 271.890316 
L 218.469031 271.827538 
L 217.469031 271.752273 
L 216.469031 271.719633 
L 215.469031 271.65207 
L 214.469031 271.598023 
L 213.469031 271.564318 
L 212.469031 271.474192 
L 211.469031 271.445657 
L 210.469031 271.414171 
L 209.469031 271.38316 
L 208.469031 271.328353 
L 207.469031 271.263765 
L 206.469031 271.22557 
L 205.469031 271.129636 
L 204.469031 271.080378 
L 203.469031 271.036308 
L 202.469031 270.996184 
L 201.469031 270.887817 
L 200.469031 270.846189 
L 199.469031 270.784048 
L 198.469031 270.714085 
L 197.469031 270.609581 
L 196.469031 270.572594 
L 195.469031 270.526716 
L 194.469031 270.458222 
L 193.469031 270.409476 
L 192.469031 270.331878 
L 191.469031 270.301338 
L 190.469031 270.231823 
L 189.469031 270.20785 
L 188.469031 270.179229 
L 187.469031 270.137435 
L 186.469031 270.11586 
L 185.469031 270.101912 
L 184.469031 270.075189 
L 183.469031 270.065879 
L 182.469031 270.053433 
L 181.469031 270.042378 
L 180.469031 270.036713 
L 179.469031 270.031949 
L 178.469031 270.037497 
L 177.469031 270.050785 
L 176.469031 270.058303 
L 175.469031 270.083087 
L 174.469031 270.106656 
L 173.469031 270.142837 
L 172.469031 270.168799 
L 171.469031 270.19112 
L 170.469031 270.25988 
L 169.469031 270.334415 
L 168.469031 270.428395 
L 167.469031 270.479447 
L 166.469031 270.53338 
L 165.469031 270.568631 
L 164.469031 270.674719 
L 163.469031 270.726983 
L 162.469031 270.76389 
L 161.469031 270.794921 
L 160.469031 270.856076 
L 159.469031 270.923496 
L 158.469031 270.972402 
L 157.469031 271.037595 
L 156.469031 271.075782 
L 155.469031 271.117778 
L 154.469031 271.159795 
L 153.469031 271.219312 
L 152.469031 271.332472 
L 151.469031 271.384722 
L 150.469031 271.42414 
L 149.469031 271.471242 
L 148.469031 271.528021 
L 147.469031 271.560684 
L 146.469031 271.596862 
L 145.469031 271.628953 
L 144.469031 271.663232 
L 143.469031 271.72161 
L 142.469031 271.766795 
L 141.469031 271.796419 
L 140.469031 271.846805 
L 139.469031 271.872003 
L 138.469031 271.893054 
L 137.469031 271.928021 
L 136.469031 271.952311 
L 135.469031 271.966378 
L 134.469031 271.98532 
L 133.469031 272.000982 
L 132.469031 272.013534 
L 131.469031 272.019369 
L 130.469031 272.026252 
L 129.469031 272.031425 
L 128.469031 272.029643 
L 127.469031 272.026917 
L 126.469031 272.015764 
L 125.469031 271.987528 
L 124.469031 271.943741 
L 123.469031 271.923051 
L 122.469031 271.882078 
L 121.469031 271.842003 
L 120.469031 271.822893 
L 119.469031 271.800385 
L 118.469031 271.733733 
L 117.469031 271.684024 
L 116.469031 271.610317 
L 115.469031 271.579003 
L 114.469031 271.502381 
L 113.469031 271.464083 
L 112.469031 271.389967 
L 111.469031 271.285908 
L 110.469031 271.216077 
L 109.469031 271.110844 
L 108.469031 271.055828 
L 107.469031 270.932353 
L 106.469031 270.861794 
L 105.469031 270.745955 
L 104.469031 270.695774 
L 103.469031 270.66017 
L 102.469031 270.568764 
L 101.469031 270.515256 
L 100.469031 270.427347 
L 99.469031 270.358162 
L 98.469031 270.311398 
L 97.469031 270.239354 
L 96.469031 270.189212 
L 95.469031 270.171823 
L 94.469031 270.144819 
L 93.469031 270.125392 
L 92.469031 270.106054 
L 91.463336 270.067806 
" clip-path="url(#pbda49e9025)" style="fill: none; stroke: #1f77b4; stroke-linecap: round"/>
        <path d="M 95.463336 273.031891 
L 94.582968 272.55656 
L 93.705061 272.076306 
L 92.854347 271.541665 
L 91.552173 270.854218 
L 92.479526 270.828203 
L 93.391201 270.415484 
L 94.301465 269.999945 
L 95.643961 269.39314 
L 94.989062 270.031891 
L 94.937098 271.031891 
L 94.878008 273.031891 
z
" clip-path="url(#pbda49e9025)" style="fill: #ffffff; stroke: #ffffff; stroke-width: 3; stroke-linecap: round"/>
        <path d="M 95.463336 273.031891 
L 94.582968 272.55656 
L 93.705061 272.076306 
L 92.854347 271.541665 
L 91.552173 270.854218 
L 92.479526 270.828203 
L 93.391201 270.415484 
L 94.301465 269.999945 
L 95.643961 269.39314 
L 94.989062 270.031891 
L 94.937098 271.031891 
L 94.878008 273.031891 
z
" clip-path="url(#pbda49e9025)" style="fill: #ffffff; stroke: #1f77b4; stroke-linecap: round"/>
        <g id="patch_8">
         <path d="M 300.704159 72.964375 
L 301.704159 72.995811 
L 302.704159 73.032752 
L 303.704159 73.130498 
L 304.704159 73.16302 
L 305.704159 73.236645 
L 306.704159 73.27521 
L 307.704159 73.310623 
L 308.704159 73.368263 
L 309.704159 73.438649 
L 310.704159 73.490614 
L 311.704159 73.549703 
L 312.704159 73.638024 
L 313.704159 73.684169 
L 314.704159 73.72658 
L 315.704159 73.757072 
L 316.704159 73.783117 
L 317.704159 73.804317 
L 318.704159 73.858618 
L 319.704159 73.886556 
L 320.704159 73.91628 
L 321.704159 73.941675 
L 322.704159 73.952875 
L 323.704159 73.962999 
L 324.704159 73.962795 
L 325.704159 73.953285 
L 326.704159 73.941631 
L 327.704159 73.910602 
L 328.704159 73.899434 
L 329.704159 73.869317 
L 330.704159 73.80954 
L 331.704159 73.772348 
L 332.704159 73.733252 
L 333.704159 73.690812 
L 334.704159 73.658047 
L 335.704159 73.590621 
L 336.704159 73.551495 
L 337.704159 73.50882 
L 338.704159 73.43824 
L 339.704159 73.401849 
L 340.704159 73.343446 
L 341.704159 73.232493 
L 342.704159 73.161835 
L 343.704159 73.048895 
L 344.704159 73.003122 
L 345.704159 72.941839 
L 346.704159 72.89334 
L 347.704159 72.812517 
L 348.704159 72.693998 
L 349.704159 72.623787 
L 350.704159 72.540525 
L 351.704159 72.507383 
L 352.704159 72.456146 
L 353.704159 72.387747 
L 354.704159 72.321532 
L 355.704159 72.244615 
L 356.704159 72.217299 
L 357.704159 72.190822 
L 358.704159 72.168171 
L 359.704159 72.14864 
L 360.704159 72.122246 
L 361.704159 72.072475 
L 362.704159 72.037402 
L 363.704159 72.001536 
L 364.704159 71.986169 
L 365.704159 71.9704 
L 366.704159 71.966987 
L 367.704159 71.96457 
L 368.704159 71.965056 
L 369.704159 71.966985 
L 370.704159 71.980242 
L 371.704159 71.988633 
L 372.704159 72.010169 
L 373.704159 72.033202 
L 374.704159 72.050435 
L 375.704159 72.068898 
L 376.704159 72.08935 
L 377.704159 72.10595 
L 378.704159 72.168729 
L 379.704159 72.243994 
L 380.704159 72.276633 
L 381.704159 72.344197 
L 382.704159 72.398244 
L 383.704159 72.431948 
L 384.704159 72.522074 
L 385.704159 72.550609 
L 386.704159 72.582095 
L 387.704159 72.613106 
L 388.704159 72.667914 
L 389.704159 72.732501 
L 390.704159 72.770697 
L 391.704159 72.866631 
L 392.704159 72.915889 
L 393.704159 72.959958 
L 394.704159 73.000082 
L 395.704159 73.108449 
L 396.704159 73.150077 
L 397.704159 73.212219 
L 398.704159 73.282181 
L 399.704159 73.386685 
L 400.704159 73.423673 
L 401.704159 73.46955 
L 402.704159 73.538045 
L 403.704159 73.586791 
L 404.704159 73.664388 
L 405.704159 73.694929 
L 406.704159 73.764443 
L 407.704159 73.788416 
L 408.704159 73.817038 
L 409.704159 73.858831 
L 410.704159 73.880407 
L 411.704159 73.894355 
L 412.704159 73.921077 
L 413.704159 73.930387 
L 414.704159 73.942834 
L 415.704159 73.953889 
L 416.704159 73.959553 
L 417.704159 73.964317 
L 418.704159 73.958769 
L 419.704159 73.945481 
L 420.704159 73.937964 
L 421.704159 73.913179 
L 422.704159 73.88961 
L 423.704159 73.85343 
L 424.704159 73.827468 
L 425.704159 73.805146 
L 426.704159 73.736386 
L 427.704159 73.661851 
L 428.704159 73.567872 
L 429.704159 73.51682 
L 430.704159 73.462886 
L 431.704159 73.427635 
L 432.704159 73.321547 
L 433.704159 73.269283 
L 434.704159 73.232376 
L 435.704159 73.201345 
L 436.704159 73.14019 
L 437.704159 73.07277 
L 438.704159 73.023864 
L 439.704159 72.958672 
L 440.704159 72.920484 
L 441.704159 72.878488 
L 442.704159 72.836471 
L 443.704159 72.776955 
L 444.704159 72.663795 
L 445.704159 72.611544 
L 446.704159 72.572126 
L 447.704159 72.525025 
L 448.704159 72.468245 
L 449.704159 72.435582 
L 450.704159 72.399404 
L 451.704159 72.367314 
L 452.704159 72.333034 
L 453.704159 72.274656 
L 454.704159 72.229471 
L 455.704159 72.199847 
L 456.704159 72.149461 
L 457.704159 72.124264 
L 458.704159 72.103213 
L 459.704159 72.068245 
L 460.704159 72.043955 
L 461.704159 72.029888 
L 462.704159 72.010946 
L 463.704159 71.995285 
L 464.704159 71.982733 
L 465.704159 71.976897 
L 466.704159 71.970015 
L 467.704159 71.964841 
L 468.704159 71.966624 
L 469.704159 71.969349 
L 470.704159 71.980503 
L 471.704159 72.008738 
L 472.704159 72.052526 
L 473.704159 72.073215 
L 474.704159 72.114188 
L 475.704159 72.154263 
L 476.704159 72.173373 
L 477.704159 72.195882 
L 478.704159 72.262533 
L 479.704159 72.312243 
L 480.704159 72.385949 
L 481.704159 72.417263 
L 482.704159 72.493885 
L 483.704159 72.532183 
L 484.704159 72.6063 
L 485.704159 72.710358 
L 486.704159 72.780189 
L 487.704159 72.885423 
L 488.704159 72.940438 
L 489.704159 73.063913 
L 490.704159 73.134472 
L 491.704159 73.250311 
L 492.704159 73.300492 
L 493.704159 73.336096 
L 494.704159 73.427503 
L 495.704159 73.481011 
L 496.704159 73.568919 
L 497.704159 73.638104 
L 498.704159 73.684868 
L 499.704159 73.756912 
L 500.704159 73.807054 
L 501.704159 73.824444 
L 502.704159 73.851447 
L 503.704159 73.870874 
L 504.704159 73.890212 
L 505.704159 73.928461 
L 506.704159 73.944894 
L 507.704159 73.953263 
L 508.704159 73.957582 
L 509.704159 73.964137 
L 510.704159 73.961591 
L 511.704159 73.956132 
L 512.704159 73.939704 
L 513.704159 73.907769 
L 514.704159 73.869789 
L 515.704159 73.834985 
L 516.704159 73.771913 
L 517.704159 73.750486 
L 518.704159 73.699868 
L 519.704159 73.674911 
L 520.704159 73.619277 
L 521.704159 73.588048 
L 522.704159 73.537904 
L 523.704159 73.505411 
L 524.704159 73.424999 
L 525.704159 73.356073 
L 526.704159 73.240376 
L 527.704159 73.164897 
L 528.704159 73.049372 
L 529.704159 72.969888 
L 530.704159 72.861447 
L 531.704159 72.822079 
L 532.704159 72.719211 
L 533.704159 72.619413 
L 534.704159 72.573916 
L 535.704159 72.539594 
L 536.704159 72.487638 
L 537.704159 72.447991 
L 538.704159 72.412477 
L 539.704159 72.344832 
L 540.704159 72.30575 
L 541.704159 72.255269 
L 542.704159 72.205963 
L 543.704159 72.154893 
L 544.704159 72.110654 
L 545.704159 72.088634 
L 546.704159 72.073078 
L 547.704159 72.030631 
L 548.704159 72.015763 
L 549.704159 71.993035 
L 550.704159 71.972719 
L 551.704159 71.966922 
L 552.704159 71.96444 
L 553.704159 71.967497 
L 554.704159 71.979093 
L 555.704159 71.996013 
L 556.704159 72.027674 
L 557.704159 72.041757 
L 558.704159 72.094429 
L 559.704159 72.143518 
L 560.704159 72.198219 
L 561.704159 72.242567 
L 562.704159 72.312559 
L 563.704159 72.362942 
L 564.704159 72.416849 
L 565.704159 72.486288 
L 566.704159 72.543676 
L 567.704159 72.593841 
L 568.704159 72.671003 
L 569.704159 72.729193 
L 570.704159 72.789831 
L 571.704159 72.827032 
L 572.704159 72.892124 
L 573.704159 72.997254 
L 574.704159 73.057556 
L 575.765047 73.153878 
" clip-path="url(#pbda49e9025)" style="fill: none; stroke: #ffffff; stroke-width: 3; stroke-linecap: round"/>
         <path d="M 300.704159 72.964375 
L 301.704159 72.995811 
L 302.704159 73.032752 
L 303.704159 73.130498 
L 304.704159 73.16302 
L 305.704159 73.236645 
L 306.704159 73.27521 
L 307.704159 73.310623 
L 308.704159 73.368263 
L 309.704159 73.438649 
L 310.704159 73.490614 
L 311.704159 73.549703 
L 312.704159 73.638024 
L 313.704159 73.684169 
L 314.704159 73.72658 
L 315.704159 73.757072 
L 316.704159 73.783117 
L 317.704159 73.804317 
L 318.704159 73.858618 
L 319.704159 73.886556 
L 320.704159 73.91628 
L 321.704159 73.941675 
L 322.704159 73.952875 
L 323.704159 73.962999 
L 324.704159 73.962795 
L 325.704159 73.953285 
L 326.704159 73.941631 
L 327.704159 73.910602 
L 328.704159 73.899434 
L 329.704159 73.869317 
L 330.704159 73.80954 
L 331.704159 73.772348 
L 332.704159 73.733252 
L 333.704159 73.690812 
L 334.704159 73.658047 
L 335.704159 73.590621 
L 336.704159 73.551495 
L 337.704159 73.50882 
L 338.704159 73.43824 
L 339.704159 73.401849 
L 340.704159 73.343446 
L 341.704159 73.232493 
L 342.704159 73.161835 
L 343.704159 73.048895 
L 344.704159 73.003122 
L 345.704159 72.941839 
L 346.704159 72.89334 
L 347.704159 72.812517 
L 348.704159 72.693998 
L 349.704159 72.623787 
L 350.704159 72.540525 
L 351.704159 72.507383 
L 352.704159 72.456146 
L 353.704159 72.387747 
L 354.704159 72.321532 
L 355.704159 72.244615 
L 356.704159 72.217299 
L 357.704159 72.190822 
L 358.704159 72.168171 
L 359.704159 72.14864 
L 360.704159 72.122246 
L 361.704159 72.072475 
L 362.704159 72.037402 
L 363.704159 72.001536 
L 364.704159 71.986169 
L 365.704159 71.9704 
L 366.704159 71.966987 
L 367.704159 71.96457 
L 368.704159 71.965056 
L 369.704159 71.966985 
L 370.704159 71.980242 
L 371.704159 71.988633 
L 372.704159 72.010169 
L 373.704159 72.033202 
L 374.704159 72.050435 
L 375.704159 72.068898 
L 376.704159 72.08935 
L 377.704159 72.10595 
L 378.704159 72.168729 
L 379.704159 72.243994 
L 380.704159 72.276633 
L 381.704159 72.344197 
L 382.704159 72.398244 
L 383.704159 72.431948 
L 384.704159 72.522074 
L 385.704159 72.550609 
L 386.704159 72.582095 
L 387.704159 72.613106 
L 388.704159 72.667914 
L 389.704159 72.732501 
L 390.704159 72.770697 
L 391.704159 72.866631 
L 392.704159 72.915889 
L 393.704159 72.959958 
L 394.704159 73.000082 
L 395.704159 73.108449 
L 396.704159 73.150077 
L 397.704159 73.212219 
L 398.704159 73.282181 
L 399.704159 73.386685 
L 400.704159 73.423673 
L 401.704159 73.46955 
L 402.704159 73.538045 
L 403.704159 73.586791 
L 404.704159 73.664388 
L 405.704159 73.694929 
L 406.704159 73.764443 
L 407.704159 73.788416 
L 408.704159 73.817038 
L 409.704159 73.858831 
L 410.704159 73.880407 
L 411.704159 73.894355 
L 412.704159 73.921077 
L 413.704159 73.930387 
L 414.704159 73.942834 
L 415.704159 73.953889 
L 416.704159 73.959553 
L 417.704159 73.964317 
L 418.704159 73.958769 
L 419.704159 73.945481 
L 420.704159 73.937964 
L 421.704159 73.913179 
L 422.704159 73.88961 
L 423.704159 73.85343 
L 424.704159 73.827468 
L 425.704159 73.805146 
L 426.704159 73.736386 
L 427.704159 73.661851 
L 428.704159 73.567872 
L 429.704159 73.51682 
L 430.704159 73.462886 
L 431.704159 73.427635 
L 432.704159 73.321547 
L 433.704159 73.269283 
L 434.704159 73.232376 
L 435.704159 73.201345 
L 436.704159 73.14019 
L 437.704159 73.07277 
L 438.704159 73.023864 
L 439.704159 72.958672 
L 440.704159 72.920484 
L 441.704159 72.878488 
L 442.704159 72.836471 
L 443.704159 72.776955 
L 444.704159 72.663795 
L 445.704159 72.611544 
L 446.704159 72.572126 
L 447.704159 72.525025 
L 448.704159 72.468245 
L 449.704159 72.435582 
L 450.704159 72.399404 
L 451.704159 72.367314 
L 452.704159 72.333034 
L 453.704159 72.274656 
L 454.704159 72.229471 
L 455.704159 72.199847 
L 456.704159 72.149461 
L 457.704159 72.124264 
L 458.704159 72.103213 
L 459.704159 72.068245 
L 460.704159 72.043955 
L 461.704159 72.029888 
L 462.704159 72.010946 
L 463.704159 71.995285 
L 464.704159 71.982733 
L 465.704159 71.976897 
L 466.704159 71.970015 
L 467.704159 71.964841 
L 468.704159 71.966624 
L 469.704159 71.969349 
L 470.704159 71.980503 
L 471.704159 72.008738 
L 472.704159 72.052526 
L 473.704159 72.073215 
L 474.704159 72.114188 
L 475.704159 72.154263 
L 476.704159 72.173373 
L 477.704159 72.195882 
L 478.704159 72.262533 
L 479.704159 72.312243 
L 480.704159 72.385949 
L 481.704159 72.417263 
L 482.704159 72.493885 
L 483.704159 72.532183 
L 484.704159 72.6063 
L 485.704159 72.710358 
L 486.704159 72.780189 
L 487.704159 72.885423 
L 488.704159 72.940438 
L 489.704159 73.063913 
L 490.704159 73.134472 
L 491.704159 73.250311 
L 492.704159 73.300492 
L 493.704159 73.336096 
L 494.704159 73.427503 
L 495.704159 73.481011 
L 496.704159 73.568919 
L 497.704159 73.638104 
L 498.704159 73.684868 
L 499.704159 73.756912 
L 500.704159 73.807054 
L 501.704159 73.824444 
L 502.704159 73.851447 
L 503.704159 73.870874 
L 504.704159 73.890212 
L 505.704159 73.928461 
L 506.704159 73.944894 
L 507.704159 73.953263 
L 508.704159 73.957582 
L 509.704159 73.964137 
L 510.704159 73.961591 
L 511.704159 73.956132 
L 512.704159 73.939704 
L 513.704159 73.907769 
L 514.704159 73.869789 
L 515.704159 73.834985 
L 516.704159 73.771913 
L 517.704159 73.750486 
L 518.704159 73.699868 
L 519.704159 73.674911 
L 520.704159 73.619277 
L 521.704159 73.588048 
L 522.704159 73.537904 
L 523.704159 73.505411 
L 524.704159 73.424999 
L 525.704159 73.356073 
L 526.704159 73.240376 
L 527.704159 73.164897 
L 528.704159 73.049372 
L 529.704159 72.969888 
L 530.704159 72.861447 
L 531.704159 72.822079 
L 532.704159 72.719211 
L 533.704159 72.619413 
L 534.704159 72.573916 
L 535.704159 72.539594 
L 536.704159 72.487638 
L 537.704159 72.447991 
L 538.704159 72.412477 
L 539.704159 72.344832 
L 540.704159 72.30575 
L 541.704159 72.255269 
L 542.704159 72.205963 
L 543.704159 72.154893 
L 544.704159 72.110654 
L 545.704159 72.088634 
L 546.704159 72.073078 
L 547.704159 72.030631 
L 548.704159 72.015763 
L 549.704159 71.993035 
L 550.704159 71.972719 
L 551.704159 71.966922 
L 552.704159 71.96444 
L 553.704159 71.967497 
L 554.704159 71.979093 
L 555.704159 71.996013 
L 556.704159 72.027674 
L 557.704159 72.041757 
L 558.704159 72.094429 
L 559.704159 72.143518 
L 560.704159 72.198219 
L 561.704159 72.242567 
L 562.704159 72.312559 
L 563.704159 72.362942 
L 564.704159 72.416849 
L 565.704159 72.486288 
L 566.704159 72.543676 
L 567.704159 72.593841 
L 568.704159 72.671003 
L 569.704159 72.729193 
L 570.704159 72.789831 
L 571.704159 72.827032 
L 572.704159 72.892124 
L 573.704159 72.997254 
L 574.704159 73.057556 
L 575.765047 73.153878 
" clip-path="url(#pbda49e9025)" style="fill: none; stroke: #1f77b4; stroke-linecap: round"/>
         <path d="M 571.765047 70.964375 
L 572.645415 71.439706 
L 573.523322 71.91996 
L 574.374036 72.454601 
L 575.67621 73.142048 
L 574.748857 73.168063 
L 573.837183 73.580783 
L 572.926918 73.996322 
L 571.584422 74.603126 
L 572.239321 73.964375 
L 572.291285 72.964375 
L 572.350375 70.964375 
z
" clip-path="url(#pbda49e9025)" style="fill: #ffffff; stroke: #ffffff; stroke-width: 3; stroke-linecap: round"/>
         <path d="M 571.765047 70.964375 
L 572.645415 71.439706 
L 573.523322 71.91996 
L 574.374036 72.454601 
L 575.67621 73.142048 
L 574.748857 73.168063 
L 573.837183 73.580783 
L 572.926918 73.996322 
L 571.584422 74.603126 
L 572.239321 73.964375 
L 572.291285 72.964375 
L 572.350375 70.964375 
z
" clip-path="url(#pbda49e9025)" style="fill: #ffffff; stroke: #1f77b4; stroke-linecap: round"/>
         <g id="patch_9">
          <path d="M 90.350135 284.817365 
L 91.350135 284.848801 
L 92.350135 284.885741 
L 93.350135 284.983488 
L 94.350135 285.016009 
L 95.350135 285.089634 
L 96.350135 285.1282 
L 97.350135 285.163613 
L 98.350135 285.221253 
L 99.350135 285.291639 
L 100.350135 285.343603 
L 101.350135 285.402693 
L 102.350135 285.491014 
L 103.350135 285.537158 
L 104.350135 285.579569 
L 105.350135 285.610062 
L 106.350135 285.636107 
L 107.350135 285.657307 
L 108.350135 285.711608 
L 109.350135 285.739546 
L 110.350135 285.76927 
L 111.350135 285.794664 
L 112.350135 285.805865 
L 113.350135 285.815989 
L 114.350135 285.815784 
L 115.350135 285.806275 
L 116.350135 285.794621 
L 117.350135 285.763592 
L 118.350135 285.752424 
L 119.350135 285.722306 
L 120.350135 285.662529 
L 121.350135 285.625338 
L 122.350135 285.586242 
L 123.350135 285.543802 
L 124.350135 285.511037 
L 125.350135 285.44361 
L 126.350135 285.404485 
L 127.350135 285.36181 
L 128.350135 285.291229 
L 129.350135 285.254839 
L 130.350135 285.196435 
L 131.350135 285.085483 
L 132.350135 285.014824 
L 133.350135 284.901885 
L 134.350135 284.856112 
L 135.350135 284.794829 
L 136.350135 284.746329 
L 137.350135 284.665507 
L 138.350135 284.546988 
L 139.350135 284.476777 
L 140.350135 284.393514 
L 141.350135 284.360373 
L 142.350135 284.309135 
L 143.350135 284.240737 
L 144.350135 284.174522 
L 145.350135 284.097605 
L 146.350135 284.070289 
L 147.350135 284.043812 
L 148.350135 284.021161 
L 149.350135 284.00163 
L 150.350135 283.975236 
L 151.350135 283.925465 
L 152.350135 283.890392 
L 153.350135 283.854526 
L 154.350135 283.839159 
L 155.350135 283.82339 
L 156.350135 283.819977 
L 157.350135 283.817559 
L 158.350135 283.818045 
L 159.350135 283.819975 
L 160.350135 283.833232 
L 161.350135 283.841622 
L 162.350135 283.863159 
L 163.350135 283.886191 
L 164.350135 283.903425 
L 165.350135 283.921887 
L 166.350135 283.94234 
L 167.350135 283.95894 
L 168.350135 284.021718 
L 169.350135 284.096983 
L 170.350135 284.129623 
L 171.350135 284.197186 
L 172.350135 284.251233 
L 173.350135 284.284938 
L 174.350135 284.375064 
L 175.350135 284.403599 
L 176.350135 284.435085 
L 177.350135 284.466096 
L 178.350135 284.520904 
L 179.350135 284.585491 
L 180.350135 284.623686 
L 181.350135 284.71962 
L 182.350135 284.768878 
L 183.350135 284.812948 
L 184.350135 284.853072 
L 185.350135 284.961439 
L 186.350135 285.003067 
L 187.350135 285.065208 
L 188.350135 285.135171 
L 189.350135 285.239675 
L 190.350135 285.276662 
L 191.350135 285.32254 
L 192.350135 285.391034 
L 193.350135 285.43978 
L 194.350135 285.517378 
L 195.350135 285.547918 
L 196.350135 285.617433 
L 197.350135 285.641406 
L 198.350135 285.670027 
L 199.350135 285.711821 
L 200.350135 285.733396 
L 201.350135 285.747344 
L 202.350135 285.774067 
L 203.350135 285.783377 
L 204.350135 285.795823 
L 205.350135 285.806878 
L 206.350135 285.812543 
L 207.350135 285.817307 
L 208.350135 285.811759 
L 209.350135 285.798471 
L 210.350135 285.790953 
L 211.350135 285.766169 
L 212.350135 285.7426 
L 213.350135 285.706419 
L 214.350135 285.680457 
L 215.350135 285.658136 
L 216.350135 285.589376 
L 217.350135 285.514841 
L 218.350135 285.420861 
L 219.350135 285.369809 
L 220.350135 285.315876 
L 221.350135 285.280625 
L 222.350135 285.174537 
L 223.350135 285.122273 
L 224.350135 285.085366 
L 225.350135 285.054335 
L 226.350135 284.99318 
L 227.350135 284.92576 
L 228.350135 284.876854 
L 229.350135 284.811661 
L 230.350135 284.773474 
L 231.350135 284.731478 
L 232.350135 284.689461 
L 233.350135 284.629944 
L 234.350135 284.516784 
L 235.350135 284.464534 
L 236.350135 284.425116 
L 237.350135 284.378014 
L 238.350135 284.321235 
L 239.350135 284.288572 
L 240.350135 284.252394 
L 241.350135 284.220303 
L 242.350135 284.186024 
L 243.350135 284.127646 
L 244.350135 284.082461 
L 245.350135 284.052837 
L 246.350135 284.002451 
L 247.350135 283.977253 
L 248.350135 283.956202 
L 249.350135 283.921235 
L 250.350135 283.896945 
L 251.350135 283.882878 
L 252.350135 283.863936 
L 253.350135 283.848274 
L 254.350135 283.835723 
L 255.350135 283.829887 
L 256.350135 283.823004 
L 257.350135 283.817831 
L 258.350135 283.819613 
L 259.350135 283.822339 
L 260.350135 283.833492 
L 261.350135 283.861728 
L 262.350135 283.905515 
L 263.350135 283.926205 
L 264.350135 283.967178 
L 265.350135 284.007253 
L 266.350135 284.026363 
L 267.350135 284.048871 
L 268.350135 284.115523 
L 269.350135 284.165232 
L 270.350135 284.238939 
L 271.350135 284.270253 
L 272.350135 284.346875 
L 273.350135 284.385173 
L 274.350135 284.45929 
L 275.350135 284.563348 
L 276.350135 284.633179 
L 277.350135 284.738412 
L 278.350135 284.793428 
L 279.350135 284.916903 
L 280.350135 284.987462 
L 281.350135 285.103301 
L 282.350135 285.153482 
L 283.350135 285.189086 
L 284.350135 285.280492 
L 285.350135 285.334 
L 286.350135 285.421909 
L 287.350135 285.491094 
L 288.350135 285.537858 
L 289.350135 285.609902 
L 290.350135 285.660044 
L 291.350135 285.677433 
L 292.350135 285.704437 
L 293.350135 285.723864 
L 294.350135 285.743202 
L 295.350135 285.78145 
L 296.350135 285.797884 
L 297.350135 285.806253 
L 298.350135 285.810572 
L 299.350135 285.817127 
L 300.350135 285.81458 
L 301.350135 285.809122 
L 302.350135 285.792693 
L 303.350135 285.760759 
L 304.350135 285.722778 
L 305.350135 285.687974 
L 306.350135 285.624903 
L 307.350135 285.603476 
L 308.350135 285.552858 
L 309.350135 285.5279 
L 310.350135 285.472267 
L 311.350135 285.441038 
L 312.350135 285.390894 
L 313.350135 285.358401 
L 314.350135 285.277988 
L 315.350135 285.209063 
L 316.350135 285.093365 
L 317.350135 285.017887 
L 318.350135 284.902362 
L 319.350135 284.822877 
L 320.350135 284.714436 
L 321.350135 284.675069 
L 322.350135 284.572201 
L 323.350135 284.472403 
L 324.350135 284.426906 
L 325.350135 284.392583 
L 326.350135 284.340628 
L 327.350135 284.300981 
L 328.350135 284.265467 
L 329.350135 284.197821 
L 330.350135 284.15874 
L 331.350135 284.108258 
L 332.350135 284.058952 
L 333.350135 284.007883 
L 334.350135 283.963644 
L 335.350135 283.941624 
L 336.350135 283.926067 
L 337.350135 283.883621 
L 338.350135 283.868753 
L 339.350135 283.846025 
L 340.350135 283.825709 
L 341.350135 283.819912 
L 342.350135 283.817429 
L 343.350135 283.820487 
L 344.350135 283.832082 
L 345.350135 283.849003 
L 346.350135 283.880664 
L 347.350135 283.894747 
L 348.350135 283.947419 
L 349.350135 283.996508 
L 350.350135 284.051209 
L 351.350135 284.095557 
L 352.350135 284.165549 
L 353.350135 284.215931 
L 354.350135 284.269838 
L 355.350135 284.339278 
L 356.350135 284.396665 
L 357.350135 284.446831 
L 358.350135 284.523993 
L 359.350135 284.582183 
L 360.350135 284.642821 
L 361.350135 284.680022 
L 362.350135 284.745113 
L 363.350135 284.850243 
L 364.350135 284.910545 
L 365.350135 285.006867 
L 366.350135 285.03887 
L 367.350135 285.089888 
L 368.350135 285.20668 
L 369.350135 285.242126 
L 370.350135 285.298007 
L 371.350135 285.328382 
L 372.350135 285.416768 
L 373.350135 285.461533 
L 374.350135 285.542421 
L 375.350135 285.602567 
L 376.350135 285.665653 
L 377.350135 285.688601 
L 378.350135 285.704771 
L 379.350135 285.7337 
L 380.350135 285.764051 
L 381.350135 285.776626 
L 382.350135 285.801505 
L 383.350135 285.813589 
L 384.350135 285.817351 
L 385.350135 285.812915 
L 386.350135 285.800576 
L 387.350135 285.786163 
L 388.350135 285.77009 
L 389.350135 285.734568 
L 390.350135 285.714634 
L 391.350135 285.658045 
L 392.350135 285.590852 
L 393.350135 285.563481 
L 394.350135 285.529334 
L 395.350135 285.480653 
L 396.350135 285.432369 
L 397.350135 285.373291 
L 398.350135 285.277687 
L 399.350135 285.234546 
L 400.350135 285.184699 
L 401.350135 285.126164 
L 402.350135 285.078578 
L 403.350135 285.017451 
L 404.350135 284.961365 
L 405.350135 284.887195 
L 406.350135 284.769957 
L 407.350135 284.714233 
L 408.350135 284.606007 
L 409.350135 284.499857 
L 410.350135 284.392284 
L 411.350135 284.357777 
L 412.350135 284.254469 
L 413.350135 284.178745 
L 414.350135 284.13931 
L 415.350135 284.099927 
L 416.350135 284.077444 
L 417.350135 284.021631 
L 418.350135 283.99558 
L 419.350135 283.965345 
L 420.350135 283.914573 
L 421.350135 283.895922 
L 422.350135 283.874214 
L 423.350135 283.861568 
L 424.350135 283.842575 
L 425.350135 283.825185 
L 426.350135 283.818146 
L 427.350135 283.819171 
L 428.350135 283.826175 
L 429.350135 283.835545 
L 430.350135 283.858942 
L 431.350135 283.884026 
L 432.350135 283.896424 
L 433.350135 283.929517 
L 434.350135 283.945885 
L 435.628699 283.96429 
" clip-path="url(#pbda49e9025)" style="fill: none; stroke: #ffffff; stroke-width: 3; stroke-linecap: round"/>
          <path d="M 90.350135 284.817365 
L 91.350135 284.848801 
L 92.350135 284.885741 
L 93.350135 284.983488 
L 94.350135 285.016009 
L 95.350135 285.089634 
L 96.350135 285.1282 
L 97.350135 285.163613 
L 98.350135 285.221253 
L 99.350135 285.291639 
L 100.350135 285.343603 
L 101.350135 285.402693 
L 102.350135 285.491014 
L 103.350135 285.537158 
L 104.350135 285.579569 
L 105.350135 285.610062 
L 106.350135 285.636107 
L 107.350135 285.657307 
L 108.350135 285.711608 
L 109.350135 285.739546 
L 110.350135 285.76927 
L 111.350135 285.794664 
L 112.350135 285.805865 
L 113.350135 285.815989 
L 114.350135 285.815784 
L 115.350135 285.806275 
L 116.350135 285.794621 
L 117.350135 285.763592 
L 118.350135 285.752424 
L 119.350135 285.722306 
L 120.350135 285.662529 
L 121.350135 285.625338 
L 122.350135 285.586242 
L 123.350135 285.543802 
L 124.350135 285.511037 
L 125.350135 285.44361 
L 126.350135 285.404485 
L 127.350135 285.36181 
L 128.350135 285.291229 
L 129.350135 285.254839 
L 130.350135 285.196435 
L 131.350135 285.085483 
L 132.350135 285.014824 
L 133.350135 284.901885 
L 134.350135 284.856112 
L 135.350135 284.794829 
L 136.350135 284.746329 
L 137.350135 284.665507 
L 138.350135 284.546988 
L 139.350135 284.476777 
L 140.350135 284.393514 
L 141.350135 284.360373 
L 142.350135 284.309135 
L 143.350135 284.240737 
L 144.350135 284.174522 
L 145.350135 284.097605 
L 146.350135 284.070289 
L 147.350135 284.043812 
L 148.350135 284.021161 
L 149.350135 284.00163 
L 150.350135 283.975236 
L 151.350135 283.925465 
L 152.350135 283.890392 
L 153.350135 283.854526 
L 154.350135 283.839159 
L 155.350135 283.82339 
L 156.350135 283.819977 
L 157.350135 283.817559 
L 158.350135 283.818045 
L 159.350135 283.819975 
L 160.350135 283.833232 
L 161.350135 283.841622 
L 162.350135 283.863159 
L 163.350135 283.886191 
L 164.350135 283.903425 
L 165.350135 283.921887 
L 166.350135 283.94234 
L 167.350135 283.95894 
L 168.350135 284.021718 
L 169.350135 284.096983 
L 170.350135 284.129623 
L 171.350135 284.197186 
L 172.350135 284.251233 
L 173.350135 284.284938 
L 174.350135 284.375064 
L 175.350135 284.403599 
L 176.350135 284.435085 
L 177.350135 284.466096 
L 178.350135 284.520904 
L 179.350135 284.585491 
L 180.350135 284.623686 
L 181.350135 284.71962 
L 182.350135 284.768878 
L 183.350135 284.812948 
L 184.350135 284.853072 
L 185.350135 284.961439 
L 186.350135 285.003067 
L 187.350135 285.065208 
L 188.350135 285.135171 
L 189.350135 285.239675 
L 190.350135 285.276662 
L 191.350135 285.32254 
L 192.350135 285.391034 
L 193.350135 285.43978 
L 194.350135 285.517378 
L 195.350135 285.547918 
L 196.350135 285.617433 
L 197.350135 285.641406 
L 198.350135 285.670027 
L 199.350135 285.711821 
L 200.350135 285.733396 
L 201.350135 285.747344 
L 202.350135 285.774067 
L 203.350135 285.783377 
L 204.350135 285.795823 
L 205.350135 285.806878 
L 206.350135 285.812543 
L 207.350135 285.817307 
L 208.350135 285.811759 
L 209.350135 285.798471 
L 210.350135 285.790953 
L 211.350135 285.766169 
L 212.350135 285.7426 
L 213.350135 285.706419 
L 214.350135 285.680457 
L 215.350135 285.658136 
L 216.350135 285.589376 
L 217.350135 285.514841 
L 218.350135 285.420861 
L 219.350135 285.369809 
L 220.350135 285.315876 
L 221.350135 285.280625 
L 222.350135 285.174537 
L 223.350135 285.122273 
L 224.350135 285.085366 
L 225.350135 285.054335 
L 226.350135 284.99318 
L 227.350135 284.92576 
L 228.350135 284.876854 
L 229.350135 284.811661 
L 230.350135 284.773474 
L 231.350135 284.731478 
L 232.350135 284.689461 
L 233.350135 284.629944 
L 234.350135 284.516784 
L 235.350135 284.464534 
L 236.350135 284.425116 
L 237.350135 284.378014 
L 238.350135 284.321235 
L 239.350135 284.288572 
L 240.350135 284.252394 
L 241.350135 284.220303 
L 242.350135 284.186024 
L 243.350135 284.127646 
L 244.350135 284.082461 
L 245.350135 284.052837 
L 246.350135 284.002451 
L 247.350135 283.977253 
L 248.350135 283.956202 
L 249.350135 283.921235 
L 250.350135 283.896945 
L 251.350135 283.882878 
L 252.350135 283.863936 
L 253.350135 283.848274 
L 254.350135 283.835723 
L 255.350135 283.829887 
L 256.350135 283.823004 
L 257.350135 283.817831 
L 258.350135 283.819613 
L 259.350135 283.822339 
L 260.350135 283.833492 
L 261.350135 283.861728 
L 262.350135 283.905515 
L 263.350135 283.926205 
L 264.350135 283.967178 
L 265.350135 284.007253 
L 266.350135 284.026363 
L 267.350135 284.048871 
L 268.350135 284.115523 
L 269.350135 284.165232 
L 270.350135 284.238939 
L 271.350135 284.270253 
L 272.350135 284.346875 
L 273.350135 284.385173 
L 274.350135 284.45929 
L 275.350135 284.563348 
L 276.350135 284.633179 
L 277.350135 284.738412 
L 278.350135 284.793428 
L 279.350135 284.916903 
L 280.350135 284.987462 
L 281.350135 285.103301 
L 282.350135 285.153482 
L 283.350135 285.189086 
L 284.350135 285.280492 
L 285.350135 285.334 
L 286.350135 285.421909 
L 287.350135 285.491094 
L 288.350135 285.537858 
L 289.350135 285.609902 
L 290.350135 285.660044 
L 291.350135 285.677433 
L 292.350135 285.704437 
L 293.350135 285.723864 
L 294.350135 285.743202 
L 295.350135 285.78145 
L 296.350135 285.797884 
L 297.350135 285.806253 
L 298.350135 285.810572 
L 299.350135 285.817127 
L 300.350135 285.81458 
L 301.350135 285.809122 
L 302.350135 285.792693 
L 303.350135 285.760759 
L 304.350135 285.722778 
L 305.350135 285.687974 
L 306.350135 285.624903 
L 307.350135 285.603476 
L 308.350135 285.552858 
L 309.350135 285.5279 
L 310.350135 285.472267 
L 311.350135 285.441038 
L 312.350135 285.390894 
L 313.350135 285.358401 
L 314.350135 285.277988 
L 315.350135 285.209063 
L 316.350135 285.093365 
L 317.350135 285.017887 
L 318.350135 284.902362 
L 319.350135 284.822877 
L 320.350135 284.714436 
L 321.350135 284.675069 
L 322.350135 284.572201 
L 323.350135 284.472403 
L 324.350135 284.426906 
L 325.350135 284.392583 
L 326.350135 284.340628 
L 327.350135 284.300981 
L 328.350135 284.265467 
L 329.350135 284.197821 
L 330.350135 284.15874 
L 331.350135 284.108258 
L 332.350135 284.058952 
L 333.350135 284.007883 
L 334.350135 283.963644 
L 335.350135 283.941624 
L 336.350135 283.926067 
L 337.350135 283.883621 
L 338.350135 283.868753 
L 339.350135 283.846025 
L 340.350135 283.825709 
L 341.350135 283.819912 
L 342.350135 283.817429 
L 343.350135 283.820487 
L 344.350135 283.832082 
L 345.350135 283.849003 
L 346.350135 283.880664 
L 347.350135 283.894747 
L 348.350135 283.947419 
L 349.350135 283.996508 
L 350.350135 284.051209 
L 351.350135 284.095557 
L 352.350135 284.165549 
L 353.350135 284.215931 
L 354.350135 284.269838 
L 355.350135 284.339278 
L 356.350135 284.396665 
L 357.350135 284.446831 
L 358.350135 284.523993 
L 359.350135 284.582183 
L 360.350135 284.642821 
L 361.350135 284.680022 
L 362.350135 284.745113 
L 363.350135 284.850243 
L 364.350135 284.910545 
L 365.350135 285.006867 
L 366.350135 285.03887 
L 367.350135 285.089888 
L 368.350135 285.20668 
L 369.350135 285.242126 
L 370.350135 285.298007 
L 371.350135 285.328382 
L 372.350135 285.416768 
L 373.350135 285.461533 
L 374.350135 285.542421 
L 375.350135 285.602567 
L 376.350135 285.665653 
L 377.350135 285.688601 
L 378.350135 285.704771 
L 379.350135 285.7337 
L 380.350135 285.764051 
L 381.350135 285.776626 
L 382.350135 285.801505 
L 383.350135 285.813589 
L 384.350135 285.817351 
L 385.350135 285.812915 
L 386.350135 285.800576 
L 387.350135 285.786163 
L 388.350135 285.77009 
L 389.350135 285.734568 
L 390.350135 285.714634 
L 391.350135 285.658045 
L 392.350135 285.590852 
L 393.350135 285.563481 
L 394.350135 285.529334 
L 395.350135 285.480653 
L 396.350135 285.432369 
L 397.350135 285.373291 
L 398.350135 285.277687 
L 399.350135 285.234546 
L 400.350135 285.184699 
L 401.350135 285.126164 
L 402.350135 285.078578 
L 403.350135 285.017451 
L 404.350135 284.961365 
L 405.350135 284.887195 
L 406.350135 284.769957 
L 407.350135 284.714233 
L 408.350135 284.606007 
L 409.350135 284.499857 
L 410.350135 284.392284 
L 411.350135 284.357777 
L 412.350135 284.254469 
L 413.350135 284.178745 
L 414.350135 284.13931 
L 415.350135 284.099927 
L 416.350135 284.077444 
L 417.350135 284.021631 
L 418.350135 283.99558 
L 419.350135 283.965345 
L 420.350135 283.914573 
L 421.350135 283.895922 
L 422.350135 283.874214 
L 423.350135 283.861568 
L 424.350135 283.842575 
L 425.350135 283.825185 
L 426.350135 283.818146 
L 427.350135 283.819171 
L 428.350135 283.826175 
L 429.350135 283.835545 
L 430.350135 283.858942 
L 431.350135 283.884026 
L 432.350135 283.896424 
L 433.350135 283.929517 
L 434.350135 283.945885 
L 435.628699 283.96429 
" clip-path="url(#pbda49e9025)" style="fill: none; stroke: #ff7f0e; stroke-linecap: round"/>
          <path d="M 431.628699 282.817365 
L 432.509067 283.292696 
L 433.386974 283.77295 
L 434.237688 284.307591 
L 435.539862 284.995038 
L 434.612509 285.021053 
L 433.700835 285.433772 
L 432.79057 285.849311 
L 431.448075 286.456116 
L 432.102973 285.817365 
L 432.154938 284.817365 
L 432.214027 282.817365 
z
" clip-path="url(#pbda49e9025)" style="fill: #ffffff; stroke: #ffffff; stroke-width: 3; stroke-linecap: round"/>
          <path d="M 431.628699 282.817365 
L 432.509067 283.292696 
L 433.386974 283.77295 
L 434.237688 284.307591 
L 435.539862 284.995038 
L 434.612509 285.021053 
L 433.700835 285.433772 
L 432.79057 285.849311 
L 431.448075 286.456116 
L 432.102973 285.817365 
L 432.154938 284.817365 
L 432.214027 282.817365 
z
" clip-path="url(#pbda49e9025)" style="fill: #ffffff; stroke: #ff7f0e; stroke-linecap: round"/>
          <path d="M 444.203307 302.181655 
" clip-path="url(#pbda49e9025)" style="fill: none; stroke-dasharray: 3.7,1.6; stroke-dashoffset: 0; stroke: #2ca02c"/>
          <path d="M 443.203307 302.181655 
L 445.203307 303.181655 
L 445.203307 301.181655 
z
" clip-path="url(#pbda49e9025)" style="fill: #2ca02c; stroke: #2ca02c; stroke-linejoin: miter"/>
          <g id="patch_10">
           <path d="M 63.290625 321.621875 
L 63.290625 10.8 
" style="fill: none; stroke: #000000; stroke-width: 0.8; stroke-linejoin: miter; stroke-linecap: square"/>
          </g>
          <g id="text_11">
           <g id="patch_11">
            <path d="M 287.934727 147.755008 
L 309.239415 147.755008 
Q 311.239415 147.755008 311.239415 145.755008 
L 311.239415 136.076883 
Q 311.239415 134.076883 309.239415 134.076883 
L 287.934727 134.076883 
Q 285.934727 134.076883 285.934727 136.076883 
L 285.934727 145.755008 
Q 285.934727 147.755008 287.934727 147.755008 
z
" style="fill: #ffffff; opacity: 0.6"/>
           </g>
           <!-- ANC -->
           <g transform="translate(287.934727 143.675321) scale(0.1 -0.1)">
            <defs>
             <path id="DejaVuSans-4e" d="M 628 4666 
L 1478 4666 
L 3547 763 
L 3547 4666 
L 4159 4666 
L 4159 0 
L 3309 0 
L 1241 3903 
L 1241 0 
L 628 0 
L 628 4666 
z
" transform="scale(0.015625)"/>
            </defs>
            <use xlink:href="#DejaVuSans-41"/>
            <use xlink:href="#DejaVuSans-4e" x="68.408203"/>
            <use xlink:href="#DejaVuSans-43" x="143.212891"/>
           </g>
          </g>
         </g>
        </g>
        <defs>
         <clipPath id="pbda49e9025">
          <rect x="63.290625" y="10.8" width="540.309375" height="310.821875"/>
         </clipPath>
        </defs>
       </g>
      </g>
     </g>
    </g>
   </g>
  </g>
 </g>
</svg>
