<?xml version="1.0" encoding="utf-8" standalone="no"?>
<!DOCTYPE svg PUBLIC "-//W3C//DTD SVG 1.1//EN"
  "http://www.w3.org/Graphics/SVG/1.1/DTD/svg11.dtd">
<svg xmlns:xlink="http://www.w3.org/1999/xlink" width="614.4pt" height="345.6pt" viewBox="0 0 614.4 345.6" xmlns="http://www.w3.org/2000/svg" version="1.1">
 <metadata>
  <rdf:RDF xmlns:dc="http://purl.org/dc/elements/1.1/" xmlns:cc="http://creativecommons.org/ns#" xmlns:rdf="http://www.w3.org/1999/02/22-rdf-syntax-ns#">
   <cc:Work>
    <dc:type rdf:resource="http://purl.org/dc/dcmitype/StillImage"/>
    <dc:date>2024-04-17T19:40:17.913683</dc:date>
    <dc:format>image/svg+xml</dc:format>
    <dc:creator>
     <cc:Agent>
      <dc:title>Matplotlib v3.7.1, https://matplotlib.org/</dc:title>
     </cc:Agent>
    </dc:creator>
   </cc:Work>
  </rdf:RDF>
 </metadata>
 <defs>
  <style type="text/css">*{stroke-linejoin: round; stroke-linecap: butt}</style>
 </defs>
 <g id="figure_1">
  <g id="patch_1">
   <path d="M 0 345.6 
L 614.4 345.6 
L 614.4 0 
L 0 0 
z
" style="fill: #ffffff"/>
  </g>
  <g id="axes_1">
   <g id="patch_2">
    <path d="M 63.290625 321.621875 
L 603.6 321.621875 
L 603.6 10.8 
L 63.290625 10.8 
z
" style="fill: #ffffff"/>
   </g>
   <path d="M 572.661969 306.684892 
L 571.661969 306.653455 
L 570.661969 306.616515 
L 569.661969 306.518768 
L 568.661969 306.486247 
L 567.661969 306.412622 
L 566.661969 306.374057 
L 565.661969 306.338643 
L 564.661969 306.281003 
L 563.661969 306.210617 
L 562.661969 306.158653 
L 561.661969 306.099563 
L 560.661969 306.011242 
L 559.661969 305.965098 
L 558.661969 305.922687 
L 557.661969 305.892194 
L 556.661969 305.866149 
L 555.661969 305.844949 
L 554.661969 305.790648 
L 553.661969 305.762711 
L 552.661969 305.732987 
L 551.661969 305.707592 
L 550.661969 305.696392 
L 549.661969 305.686268 
L 548.661969 305.686472 
L 547.661969 305.695982 
L 546.661969 305.707635 
L 545.661969 305.738665 
L 544.661969 305.749833 
L 543.661969 305.77995 
L 542.661969 305.839727 
L 541.661969 305.876919 
L 540.661969 305.916015 
L 539.661969 305.958454 
L 538.661969 305.991219 
L 537.661969 306.058646 
L 536.661969 306.097772 
L 535.661969 306.140446 
L 534.661969 306.211027 
L 533.661969 306.247418 
L 532.661969 306.305821 
L 531.661969 306.416773 
L 530.661969 306.487432 
L 529.661969 306.600372 
L 528.661969 306.646145 
L 527.661969 306.707428 
L 526.661969 306.755927 
L 525.661969 306.83675 
L 524.661969 306.955269 
L 523.661969 307.025479 
L 522.661969 307.108742 
L 521.661969 307.141884 
L 520.661969 307.193121 
L 519.661969 307.261519 
L 518.661969 307.327735 
L 517.661969 307.404652 
L 516.661969 307.431967 
L 515.661969 307.458445 
L 514.661969 307.481095 
L 513.661969 307.500627 
L 512.661969 307.527021 
L 511.661969 307.576791 
L 510.661969 307.611865 
L 509.661969 307.64773 
L 508.661969 307.663098 
L 507.661969 307.678867 
L 506.661969 307.682279 
L 505.661969 307.684697 
L 504.661969 307.684211 
L 503.661969 307.682282 
L 502.661969 307.669025 
L 501.661969 307.660634 
L 500.661969 307.639097 
L 499.661969 307.616065 
L 498.661969 307.598831 
L 497.661969 307.580369 
L 496.661969 307.559916 
L 495.661969 307.543317 
L 494.661969 307.480538 
L 493.661969 307.405273 
L 492.661969 307.372634 
L 491.661969 307.30507 
L 490.661969 307.251023 
L 489.661969 307.217319 
L 488.661969 307.127193 
L 487.661969 307.098658 
L 486.661969 307.067172 
L 485.661969 307.036161 
L 484.661969 306.981353 
L 483.661969 306.916765 
L 482.661969 306.87857 
L 481.661969 306.782636 
L 480.661969 306.733378 
L 479.661969 306.689308 
L 478.661969 306.649185 
L 477.661969 306.540818 
L 476.661969 306.49919 
L 475.661969 306.437048 
L 474.661969 306.367086 
L 473.661969 306.262581 
L 472.661969 306.225594 
L 471.661969 306.179717 
L 470.661969 306.111222 
L 469.661969 306.062476 
L 468.661969 305.984879 
L 467.661969 305.954338 
L 466.661969 305.884823 
L 465.661969 305.860851 
L 464.661969 305.832229 
L 463.661969 305.790436 
L 462.661969 305.76886 
L 461.661969 305.754912 
L 460.661969 305.728189 
L 459.661969 305.71888 
L 458.661969 305.706433 
L 457.661969 305.695378 
L 456.661969 305.689713 
L 455.661969 305.68495 
L 454.661969 305.690497 
L 453.661969 305.703785 
L 452.661969 305.711303 
L 451.661969 305.736088 
L 450.661969 305.759656 
L 449.661969 305.795837 
L 448.661969 305.821799 
L 447.661969 305.84412 
L 446.255714 305.91288 
" clip-path="url(#p5f3cce0873)" style="fill: none; stroke-dasharray: 3.7,1.6; stroke-dashoffset: 0; stroke: #2ca02c"/>
   <g id="patch_3">
    <path d="M 299.671444 10.8 
L 299.671444 200.338966 
M 304.785485 10.8 
L 304.785485 200.338966 
" clip-path="url(#p5f3cce0873)" style="fill: none; stroke: #ffffff; stroke-width: 3; stroke-linejoin: miter"/>
    <path d="M 299.671444 10.8 
L 299.671444 200.338966 
M 304.785485 10.8 
L 304.785485 200.338966 
" clip-path="url(#p5f3cce0873)" style="fill: none; stroke: #1f77b4; stroke-linejoin: miter"/>
    <g id="PolyCollection_1">
     <path d="M 304.785485 10.8 
L 299.671444 10.8 
L 299.671444 200.338966 
L 304.785485 200.338966 
L 304.785485 200.338966 
L 304.785485 10.8 
z
" clip-path="url(#p5f3cce0873)" style="fill: #1f77b4; fill-opacity: 0.5"/>
    </g>
    <g id="patch_4">
     <path d="M 94.265996 200.338966 
L 94.158686 314.790786 
L 93.64045 316.33329 
L 92.991013 317.581984 
L 92.1619 318.683772 
L 91.169137 319.638656 
L 89.945465 320.520086 
L 88.329411 321.401517 
L 87.850142 321.621875 
M 95.70447 200.338966 
L 95.811781 314.790786 
L 96.330017 316.33329 
L 96.979454 317.581984 
L 97.808567 318.683772 
L 98.80133 319.638656 
L 100.025001 320.520086 
L 101.641056 321.401517 
L 102.120325 321.621875 
L 102.120325 321.621875 
" clip-path="url(#p5f3cce0873)" style="fill: none; stroke: #ffffff; stroke-width: 3; stroke-linejoin: miter"/>
     <path d="M 94.265996 200.338966 
L 94.158686 314.790786 
L 93.64045 316.33329 
L 92.991013 317.581984 
L 92.1619 318.683772 
L 91.169137 319.638656 
L 89.945465 320.520086 
L 88.329411 321.401517 
L 87.850142 321.621875 
M 95.70447 200.338966 
L 95.811781 314.790786 
L 96.330017 316.33329 
L 96.979454 317.581984 
L 97.808567 318.683772 
L 98.80133 319.638656 
L 100.025001 320.520086 
L 101.641056 321.401517 
L 102.120325 321.621875 
L 102.120325 321.621875 
" clip-path="url(#p5f3cce0873)" style="fill: none; stroke: #ff7f0e; stroke-linejoin: miter"/>
     <g id="PolyCollection_2">
      <path d="M 95.70447 200.338966 
L 94.265996 200.338966 
L 94.265996 314.350071 
L 94.265996 314.350071 
L 94.249131 314.423523 
L 94.231871 314.496976 
L 94.214206 314.570428 
L 94.196126 314.643881 
L 94.177623 314.717333 
L 94.158686 314.790786 
L 94.139305 314.864239 
L 94.119469 314.937691 
L 94.099168 315.011144 
L 94.078392 315.084596 
L 94.057128 315.158049 
L 94.035365 315.231501 
L 94.013092 315.304954 
L 93.990297 315.378406 
L 93.966968 315.451859 
L 93.943091 315.525312 
L 93.918654 315.598764 
L 93.893645 315.672217 
L 93.868049 315.745669 
L 93.841853 315.819122 
L 93.815042 315.892574 
L 93.787603 315.966027 
L 93.759521 316.03948 
L 93.73078 316.112932 
L 93.701365 316.186385 
L 93.67126 316.259837 
L 93.64045 316.33329 
L 93.608917 316.406742 
L 93.576645 316.480195 
L 93.543616 316.553648 
L 93.509812 316.6271 
L 93.475216 316.700553 
L 93.439808 316.774005 
L 93.403571 316.847458 
L 93.366483 316.92091 
L 93.328526 316.994363 
L 93.289679 317.067816 
L 93.249921 317.141268 
L 93.209231 317.214721 
L 93.167587 317.288173 
L 93.124966 317.361626 
L 93.081346 317.435078 
L 93.036703 317.508531 
L 92.991013 317.581984 
L 92.944252 317.655436 
L 92.896394 317.728889 
L 92.847414 317.802341 
L 92.797286 317.875794 
L 92.745982 317.949246 
L 92.693475 318.022699 
L 92.639737 318.096152 
L 92.584739 318.169604 
L 92.528451 318.243057 
L 92.470844 318.316509 
L 92.411886 318.389962 
L 92.351545 318.463414 
L 92.289789 318.536867 
L 92.226585 318.61032 
L 92.1619 318.683772 
L 92.095697 318.757225 
L 92.027942 318.830677 
L 91.958599 318.90413 
L 91.887629 318.977582 
L 91.814995 319.051035 
L 91.740658 319.124488 
L 91.664579 319.19794 
L 91.586715 319.271393 
L 91.507025 319.344845 
L 91.425467 319.418298 
L 91.341996 319.49175 
L 91.256568 319.565203 
L 91.169137 319.638656 
L 91.079656 319.712108 
L 90.988076 319.785561 
L 90.89435 319.859013 
L 90.798425 319.932466 
L 90.700251 320.005918 
L 90.599776 320.079371 
L 90.496944 320.152824 
L 90.391701 320.226276 
L 90.28399 320.299729 
L 90.173754 320.373181 
L 90.060932 320.446634 
L 89.945465 320.520086 
L 89.827291 320.593539 
L 89.706346 320.666992 
L 89.582565 320.740444 
L 89.455881 320.813897 
L 89.326227 320.887349 
L 89.193532 320.960802 
L 89.057726 321.034254 
L 88.918736 321.107707 
L 88.776487 321.18116 
L 88.630902 321.254612 
L 88.481903 321.328065 
L 88.329411 321.401517 
L 88.173343 321.47497 
L 88.013615 321.548422 
L 87.850142 321.621875 
L 102.120325 321.621875 
L 102.120325 321.621875 
L 101.956852 321.548422 
L 101.797124 321.47497 
L 101.641056 321.401517 
L 101.488563 321.328065 
L 101.339565 321.254612 
L 101.19398 321.18116 
L 101.05173 321.107707 
L 100.91274 321.034254 
L 100.776934 320.960802 
L 100.64424 320.887349 
L 100.514586 320.813897 
L 100.387902 320.740444 
L 100.264121 320.666992 
L 100.143175 320.593539 
L 100.025001 320.520086 
L 99.909534 320.446634 
L 99.796713 320.373181 
L 99.686477 320.299729 
L 99.578766 320.226276 
L 99.473523 320.152824 
L 99.370691 320.079371 
L 99.270215 320.005918 
L 99.172041 319.932466 
L 99.076117 319.859013 
L 98.98239 319.785561 
L 98.890811 319.712108 
L 98.80133 319.638656 
L 98.713899 319.565203 
L 98.628471 319.49175 
L 98.545 319.418298 
L 98.463442 319.344845 
L 98.383752 319.271393 
L 98.305888 319.19794 
L 98.229808 319.124488 
L 98.155471 319.051035 
L 98.082838 318.977582 
L 98.011868 318.90413 
L 97.942524 318.830677 
L 97.874769 318.757225 
L 97.808567 318.683772 
L 97.743881 318.61032 
L 97.680677 318.536867 
L 97.618922 318.463414 
L 97.558581 318.389962 
L 97.499623 318.316509 
L 97.442015 318.243057 
L 97.385728 318.169604 
L 97.330729 318.096152 
L 97.276992 318.022699 
L 97.224485 317.949246 
L 97.173181 317.875794 
L 97.123053 317.802341 
L 97.074073 317.728889 
L 97.026215 317.655436 
L 96.979454 317.581984 
L 96.933764 317.508531 
L 96.889121 317.435078 
L 96.845501 317.361626 
L 96.80288 317.288173 
L 96.761236 317.214721 
L 96.720545 317.141268 
L 96.680787 317.067816 
L 96.64194 316.994363 
L 96.603983 316.92091 
L 96.566896 316.847458 
L 96.530658 316.774005 
L 96.495251 316.700553 
L 96.460655 316.6271 
L 96.426851 316.553648 
L 96.393822 316.480195 
L 96.36155 316.406742 
L 96.330017 316.33329 
L 96.299206 316.259837 
L 96.269102 316.186385 
L 96.239687 316.112932 
L 96.210946 316.03948 
L 96.182863 315.966027 
L 96.155424 315.892574 
L 96.128614 315.819122 
L 96.102418 315.745669 
L 96.076822 315.672217 
L 96.051812 315.598764 
L 96.027376 315.525312 
L 96.003499 315.451859 
L 95.980169 315.378406 
L 95.957374 315.304954 
L 95.935101 315.231501 
L 95.913339 315.158049 
L 95.892075 315.084596 
L 95.871298 315.011144 
L 95.850997 314.937691 
L 95.831162 314.864239 
L 95.811781 314.790786 
L 95.792843 314.717333 
L 95.77434 314.643881 
L 95.756261 314.570428 
L 95.738596 314.496976 
L 95.721335 314.423523 
L 95.70447 314.350071 
L 95.70447 314.350071 
L 95.70447 200.338966 
z
" clip-path="url(#p5f3cce0873)" style="fill: #ff7f0e; fill-opacity: 0.5"/>
     </g>
     <g id="patch_5">
      <path d="M 578.065063 72.964375 
L 578.065063 321.621875 
M 579.040483 72.964375 
L 579.040483 321.621875 
" clip-path="url(#p5f3cce0873)" style="fill: none; stroke: #ffffff; stroke-width: 3; stroke-linejoin: miter"/>
      <path d="M 578.065063 72.964375 
L 578.065063 321.621875 
M 579.040483 72.964375 
L 579.040483 321.621875 
" clip-path="url(#p5f3cce0873)" style="fill: none; stroke: #2ca02c; stroke-linejoin: miter"/>
      <g id="PolyCollection_3">
       <path d="M 579.040483 72.964375 
L 578.065063 72.964375 
L 578.065063 321.621875 
L 579.040483 321.621875 
L 579.040483 321.621875 
L 579.040483 72.964375 
z
" clip-path="url(#p5f3cce0873)" style="fill: #2ca02c; fill-opacity: 0.5"/>
      </g>
      <g id="patch_6">
       <path d="M 439.928617 221.210281 
L 439.928617 249.274726 
L 440.310336 249.274726 
L 440.310336 250.364935 
L 439.928617 250.364935 
L 439.821198 308.474773 
L 439.378793 309.997069 
L 438.771111 311.242584 
L 438.055734 312.211318 
L 437.195769 313.041661 
L 436.01907 313.872004 
L 434.40898 314.702348 
L 432.205875 315.532691 
L 429.761616 316.224644 
L 426.587414 316.916596 
L 422.46528 317.608549 
L 417.11213 318.300502 
L 410.160337 318.992455 
L 401.132488 319.684407 
L 389.408599 320.37636 
L 374.183536 321.068313 
L 358.789825 321.621875 
M 440.85262 221.210281 
L 440.85262 249.274726 
L 440.470901 249.274726 
L 440.470901 250.364935 
L 440.85262 250.364935 
L 440.96004 308.474773 
L 441.402444 309.997069 
L 442.010127 311.242584 
L 442.725504 312.211318 
L 443.585468 313.041661 
L 444.762167 313.872004 
L 446.372258 314.702348 
L 448.575363 315.532691 
L 451.019622 316.224644 
L 454.193824 316.916596 
L 458.315957 317.608549 
L 463.669107 318.300502 
L 470.6209 318.992455 
L 479.648749 319.684407 
L 491.372638 320.37636 
L 506.597701 321.068313 
L 521.991413 321.621875 
L 521.991413 321.621875 
" clip-path="url(#p5f3cce0873)" style="fill: none; stroke: #ffffff; stroke-width: 3; stroke-linejoin: miter"/>
       <path d="M 439.928617 221.210281 
L 439.928617 249.274726 
L 440.310336 249.274726 
L 440.310336 250.364935 
L 439.928617 250.364935 
L 439.821198 308.474773 
L 439.378793 309.997069 
L 438.771111 311.242584 
L 438.055734 312.211318 
L 437.195769 313.041661 
L 436.01907 313.872004 
L 434.40898 314.702348 
L 432.205875 315.532691 
L 429.761616 316.224644 
L 426.587414 316.916596 
L 422.46528 317.608549 
L 417.11213 318.300502 
L 410.160337 318.992455 
L 401.132488 319.684407 
L 389.408599 320.37636 
L 374.183536 321.068313 
L 358.789825 321.621875 
M 440.85262 221.210281 
L 440.85262 249.274726 
L 440.470901 249.274726 
L 440.470901 250.364935 
L 440.85262 250.364935 
L 440.96004 308.474773 
L 441.402444 309.997069 
L 442.010127 311.242584 
L 442.725504 312.211318 
L 443.585468 313.041661 
L 444.762167 313.872004 
L 446.372258 314.702348 
L 448.575363 315.532691 
L 451.019622 316.224644 
L 454.193824 316.916596 
L 458.315957 317.608549 
L 463.669107 318.300502 
L 470.6209 318.992455 
L 479.648749 319.684407 
L 491.372638 320.37636 
L 506.597701 321.068313 
L 521.991413 321.621875 
L 521.991413 321.621875 
" clip-path="url(#p5f3cce0873)" style="fill: none; stroke: #d62728; stroke-linejoin: miter"/>
       <g id="PolyCollection_4">
        <path d="M 440.85262 221.210281 
L 439.928617 221.210281 
L 439.928617 249.274726 
L 440.310336 249.274726 
L 440.310336 250.364935 
L 439.928617 250.364935 
L 439.928617 307.921211 
L 439.928617 307.921211 
L 439.903829 308.059601 
L 439.877712 308.197992 
L 439.850193 308.336383 
L 439.821198 308.474773 
L 439.790647 308.613164 
L 439.758457 308.751554 
L 439.724539 308.889945 
L 439.688802 309.028335 
L 439.651148 309.166726 
L 439.611474 309.305116 
L 439.56967 309.443507 
L 439.525624 309.581897 
L 439.479215 309.720288 
L 439.430316 309.858679 
L 439.378793 309.997069 
L 439.324506 310.13546 
L 439.267306 310.27385 
L 439.207037 310.412241 
L 439.143535 310.550631 
L 439.076625 310.689022 
L 439.006126 310.827412 
L 438.931844 310.965803 
L 438.853577 311.104193 
L 438.771111 311.242584 
L 438.68422 311.380975 
L 438.592667 311.519365 
L 438.496202 311.657756 
L 438.394561 311.796146 
L 438.287467 311.934537 
L 438.174628 312.072927 
L 438.055734 312.211318 
L 437.930461 312.349708 
L 437.798467 312.488099 
L 437.659391 312.626489 
L 437.512853 312.76488 
L 437.358453 312.903271 
L 437.195769 313.041661 
L 437.024357 313.180052 
L 436.843748 313.318442 
L 436.653449 313.456833 
L 436.452939 313.595223 
L 436.241672 313.733614 
L 436.01907 313.872004 
L 435.784525 314.010395 
L 435.537395 314.148785 
L 435.277007 314.287176 
L 435.002648 314.425567 
L 434.713569 314.563957 
L 434.40898 314.702348 
L 434.088049 314.840738 
L 433.749899 314.979129 
L 433.393606 315.117519 
L 433.018197 315.25591 
L 432.622647 315.3943 
L 432.205875 315.532691 
L 431.766741 315.671082 
L 431.304047 315.809472 
L 430.816528 315.947863 
L 430.302852 316.086253 
L 429.761616 316.224644 
L 429.191341 316.363034 
L 428.59047 316.501425 
L 427.95736 316.639815 
L 427.290282 316.778206 
L 426.587414 316.916596 
L 425.846834 317.054987 
L 425.066521 317.193378 
L 424.244342 317.331768 
L 423.378051 317.470159 
L 422.46528 317.608549 
L 421.503538 317.74694 
L 420.490195 317.88533 
L 419.422483 318.023721 
L 418.297486 318.162111 
L 417.11213 318.300502 
L 415.863176 318.438892 
L 414.547213 318.577283 
L 413.160645 318.715674 
L 411.699683 318.854064 
L 410.160337 318.992455 
L 408.538401 319.130845 
L 406.829443 319.269236 
L 405.028796 319.407626 
L 403.131538 319.546017 
L 401.132488 319.684407 
L 399.026184 319.822798 
L 396.80687 319.961188 
L 394.468484 320.099579 
L 392.004638 320.23797 
L 389.408599 320.37636 
L 386.673277 320.514751 
L 383.791196 320.653141 
L 380.754485 320.791532 
L 377.554845 320.929922 
L 374.183536 321.068313 
L 370.631348 321.206703 
L 366.888575 321.345094 
L 362.944992 321.483484 
L 358.789825 321.621875 
L 521.991413 321.621875 
L 521.991413 321.621875 
L 517.836246 321.483484 
L 513.892663 321.345094 
L 510.14989 321.206703 
L 506.597701 321.068313 
L 503.226392 320.929922 
L 500.026753 320.791532 
L 496.990041 320.653141 
L 494.107961 320.514751 
L 491.372638 320.37636 
L 488.776599 320.23797 
L 486.312753 320.099579 
L 483.974367 319.961188 
L 481.755054 319.822798 
L 479.648749 319.684407 
L 477.649699 319.546017 
L 475.752442 319.407626 
L 473.951794 319.269236 
L 472.242837 319.130845 
L 470.6209 318.992455 
L 469.081554 318.854064 
L 467.620593 318.715674 
L 466.234024 318.577283 
L 464.918061 318.438892 
L 463.669107 318.300502 
L 462.483751 318.162111 
L 461.358754 318.023721 
L 460.291043 317.88533 
L 459.2777 317.74694 
L 458.315957 317.608549 
L 457.403187 317.470159 
L 456.536895 317.331768 
L 455.714716 317.193378 
L 454.934403 317.054987 
L 454.193824 316.916596 
L 453.490955 316.778206 
L 452.823878 316.639815 
L 452.190768 316.501425 
L 451.589896 316.363034 
L 451.019622 316.224644 
L 450.478386 316.086253 
L 449.96471 315.947863 
L 449.477191 315.809472 
L 449.014496 315.671082 
L 448.575363 315.532691 
L 448.15859 315.3943 
L 447.76304 315.25591 
L 447.387631 315.117519 
L 447.031339 314.979129 
L 446.693189 314.840738 
L 446.372258 314.702348 
L 446.067669 314.563957 
L 445.77859 314.425567 
L 445.50423 314.287176 
L 445.243842 314.148785 
L 444.996713 314.010395 
L 444.762167 313.872004 
L 444.539565 313.733614 
L 444.328298 313.595223 
L 444.127789 313.456833 
L 443.937489 313.318442 
L 443.75688 313.180052 
L 443.585468 313.041661 
L 443.422784 312.903271 
L 443.268384 312.76488 
L 443.121847 312.626489 
L 442.982771 312.488099 
L 442.850777 312.349708 
L 442.725504 312.211318 
L 442.60661 312.072927 
L 442.49377 311.934537 
L 442.386676 311.796146 
L 442.285036 311.657756 
L 442.188571 311.519365 
L 442.097018 311.380975 
L 442.010127 311.242584 
L 441.92766 311.104193 
L 441.849393 310.965803 
L 441.775111 310.827412 
L 441.704612 310.689022 
L 441.637703 310.550631 
L 441.5742 310.412241 
L 441.513932 310.27385 
L 441.456732 310.13546 
L 441.402444 309.997069 
L 441.350922 309.858679 
L 441.302022 309.720288 
L 441.255613 309.581897 
L 441.211567 309.443507 
L 441.169764 309.305116 
L 441.130089 309.166726 
L 441.092435 309.028335 
L 441.056698 308.889945 
L 441.022781 308.751554 
L 440.990591 308.613164 
L 440.96004 308.474773 
L 440.931044 308.336383 
L 440.903525 308.197992 
L 440.877408 308.059601 
L 440.85262 307.921211 
L 440.85262 307.921211 
L 440.85262 250.364935 
L 440.470901 250.364935 
L 440.470901 249.274726 
L 440.85262 249.274726 
L 440.85262 221.210281 
z
" clip-path="url(#p5f3cce0873)" style="fill: #d62728; fill-opacity: 0.5"/>
       </g>
       <g id="matplotlib.axis_1">
        <g id="xtick_1">
         <g id="line2d_1"/>
         <g id="text_1">
          <!-- OUT -->
          <g transform="translate(84.336015 332.720312) scale(0.1 -0.1)">
           <defs>
            <path id="DejaVuSans-4f" d="M 2522 4238 
Q 1834 4238 1429 3725 
Q 1025 3213 1025 2328 
Q 1025 1447 1429 934 
Q 1834 422 2522 422 
Q 3209 422 3611 934 
Q 4013 1447 4013 2328 
Q 4013 3213 3611 3725 
Q 3209 4238 2522 4238 
z
M 2522 4750 
Q 3503 4750 4090 4092 
Q 4678 3434 4678 2328 
Q 4678 1225 4090 567 
Q 3503 -91 2522 -91 
Q 1538 -91 948 565 
Q 359 1222 359 2328 
Q 359 3434 948 4092 
Q 1538 4750 2522 4750 
z
" transform="scale(0.015625)"/>
            <path id="DejaVuSans-55" d="M 556 4666 
L 1191 4666 
L 1191 1831 
Q 1191 1081 1462 751 
Q 1734 422 2344 422 
Q 2950 422 3222 751 
Q 3494 1081 3494 1831 
L 3494 4666 
L 4128 4666 
L 4128 1753 
Q 4128 841 3676 375 
Q 3225 -91 2344 -91 
Q 1459 -91 1007 375 
Q 556 841 556 1753 
L 556 4666 
z
" transform="scale(0.015625)"/>
            <path id="DejaVuSans-54" d="M -19 4666 
L 3928 4666 
L 3928 4134 
L 2272 4134 
L 2272 0 
L 1638 0 
L 1638 4134 
L -19 4134 
L -19 4666 
z
" transform="scale(0.015625)"/>
           </defs>
           <use xlink:href="#DejaVuSans-4f"/>
           <use xlink:href="#DejaVuSans-55" x="78.710938"/>
           <use xlink:href="#DejaVuSans-54" x="151.904297"/>
          </g>
         </g>
        </g>
        <g id="xtick_2">
         <g id="line2d_2"/>
         <g id="text_2">
          <!-- SRC -->
          <g transform="translate(568.662929 332.720312) scale(0.1 -0.1)">
           <defs>
            <path id="DejaVuSans-53" d="M 3425 4513 
L 3425 3897 
Q 3066 4069 2747 4153 
Q 2428 4238 2131 4238 
Q 1616 4238 1336 4038 
Q 1056 3838 1056 3469 
Q 1056 3159 1242 3001 
Q 1428 2844 1947 2747 
L 2328 2669 
Q 3034 2534 3370 2195 
Q 3706 1856 3706 1288 
Q 3706 609 3251 259 
Q 2797 -91 1919 -91 
Q 1588 -91 1214 -16 
Q 841 59 441 206 
L 441 856 
Q 825 641 1194 531 
Q 1563 422 1919 422 
Q 2459 422 2753 634 
Q 3047 847 3047 1241 
Q 3047 1584 2836 1778 
Q 2625 1972 2144 2069 
L 1759 2144 
Q 1053 2284 737 2584 
Q 422 2884 422 3419 
Q 422 4038 858 4394 
Q 1294 4750 2059 4750 
Q 2388 4750 2728 4690 
Q 3069 4631 3425 4513 
z
" transform="scale(0.015625)"/>
            <path id="DejaVuSans-52" d="M 2841 2188 
Q 3044 2119 3236 1894 
Q 3428 1669 3622 1275 
L 4263 0 
L 3584 0 
L 2988 1197 
Q 2756 1666 2539 1819 
Q 2322 1972 1947 1972 
L 1259 1972 
L 1259 0 
L 628 0 
L 628 4666 
L 2053 4666 
Q 2853 4666 3247 4331 
Q 3641 3997 3641 3322 
Q 3641 2881 3436 2590 
Q 3231 2300 2841 2188 
z
M 1259 4147 
L 1259 2491 
L 2053 2491 
Q 2509 2491 2742 2702 
Q 2975 2913 2975 3322 
Q 2975 3731 2742 3939 
Q 2509 4147 2053 4147 
L 1259 4147 
z
" transform="scale(0.015625)"/>
            <path id="DejaVuSans-43" d="M 4122 4306 
L 4122 3641 
Q 3803 3938 3442 4084 
Q 3081 4231 2675 4231 
Q 1875 4231 1450 3742 
Q 1025 3253 1025 2328 
Q 1025 1406 1450 917 
Q 1875 428 2675 428 
Q 3081 428 3442 575 
Q 3803 722 4122 1019 
L 4122 359 
Q 3791 134 3420 21 
Q 3050 -91 2638 -91 
Q 1578 -91 968 557 
Q 359 1206 359 2328 
Q 359 3453 968 4101 
Q 1578 4750 2638 4750 
Q 3056 4750 3426 4639 
Q 3797 4528 4122 4306 
z
" transform="scale(0.015625)"/>
           </defs>
           <use xlink:href="#DejaVuSans-53"/>
           <use xlink:href="#DejaVuSans-52" x="63.476562"/>
           <use xlink:href="#DejaVuSans-43" x="127.958984"/>
          </g>
         </g>
        </g>
        <g id="xtick_3">
         <g id="line2d_3"/>
         <g id="text_3">
          <!-- TAR -->
          <g transform="translate(430.829681 332.720312) scale(0.1 -0.1)">
           <defs>
            <path id="DejaVuSans-41" d="M 2188 4044 
L 1331 1722 
L 3047 1722 
L 2188 4044 
z
M 1831 4666 
L 2547 4666 
L 4325 0 
L 3669 0 
L 3244 1197 
L 1141 1197 
L 716 0 
L 50 0 
L 1831 4666 
z
" transform="scale(0.015625)"/>
           </defs>
           <use xlink:href="#DejaVuSans-54"/>
           <use xlink:href="#DejaVuSans-41" x="53.333984"/>
           <use xlink:href="#DejaVuSans-52" x="121.742188"/>
          </g>
         </g>
        </g>
       </g>
       <g id="matplotlib.axis_2">
        <g id="ytick_1">
         <g id="line2d_4">
          <defs>
           <path id="m8a8891e667" d="M 0 0 
L -3.5 0 
" style="stroke: #000000; stroke-width: 0.8"/>
          </defs>
          <g>
           <use xlink:href="#m8a8891e667" x="63.290625" y="321.621875" style="stroke: #000000; stroke-width: 0.8"/>
          </g>
         </g>
         <g id="text_4">
          <!-- 0 -->
          <g transform="translate(49.928125 325.421094) scale(0.1 -0.1)">
           <defs>
            <path id="DejaVuSans-30" d="M 2034 4250 
Q 1547 4250 1301 3770 
Q 1056 3291 1056 2328 
Q 1056 1369 1301 889 
Q 1547 409 2034 409 
Q 2525 409 2770 889 
Q 3016 1369 3016 2328 
Q 3016 3291 2770 3770 
Q 2525 4250 2034 4250 
z
M 2034 4750 
Q 2819 4750 3233 4129 
Q 3647 3509 3647 2328 
Q 3647 1150 3233 529 
Q 2819 -91 2034 -91 
Q 1250 -91 836 529 
Q 422 1150 422 2328 
Q 422 3509 836 4129 
Q 1250 4750 2034 4750 
z
" transform="scale(0.015625)"/>
           </defs>
           <use xlink:href="#DejaVuSans-30"/>
          </g>
         </g>
        </g>
        <g id="ytick_2">
         <g id="line2d_5">
          <g>
           <use xlink:href="#m8a8891e667" x="63.290625" y="265.42555" style="stroke: #000000; stroke-width: 0.8"/>
          </g>
         </g>
         <g id="text_5">
          <!-- 5000 -->
          <g transform="translate(30.840625 269.224768) scale(0.1 -0.1)">
           <defs>
            <path id="DejaVuSans-35" d="M 691 4666 
L 3169 4666 
L 3169 4134 
L 1269 4134 
L 1269 2991 
Q 1406 3038 1543 3061 
Q 1681 3084 1819 3084 
Q 2600 3084 3056 2656 
Q 3513 2228 3513 1497 
Q 3513 744 3044 326 
Q 2575 -91 1722 -91 
Q 1428 -91 1123 -41 
Q 819 9 494 109 
L 494 744 
Q 775 591 1075 516 
Q 1375 441 1709 441 
Q 2250 441 2565 725 
Q 2881 1009 2881 1497 
Q 2881 1984 2565 2268 
Q 2250 2553 1709 2553 
Q 1456 2553 1204 2497 
Q 953 2441 691 2322 
L 691 4666 
z
" transform="scale(0.015625)"/>
           </defs>
           <use xlink:href="#DejaVuSans-35"/>
           <use xlink:href="#DejaVuSans-30" x="63.623047"/>
           <use xlink:href="#DejaVuSans-30" x="127.246094"/>
           <use xlink:href="#DejaVuSans-30" x="190.869141"/>
          </g>
         </g>
        </g>
        <g id="ytick_3">
         <g id="line2d_6">
          <g>
           <use xlink:href="#m8a8891e667" x="63.290625" y="209.229224" style="stroke: #000000; stroke-width: 0.8"/>
          </g>
         </g>
         <g id="text_6">
          <!-- 10000 -->
          <g transform="translate(24.478125 213.028443) scale(0.1 -0.1)">
           <defs>
            <path id="DejaVuSans-31" d="M 794 531 
L 1825 531 
L 1825 4091 
L 703 3866 
L 703 4441 
L 1819 4666 
L 2450 4666 
L 2450 531 
L 3481 531 
L 3481 0 
L 794 0 
L 794 531 
z
" transform="scale(0.015625)"/>
           </defs>
           <use xlink:href="#DejaVuSans-31"/>
           <use xlink:href="#DejaVuSans-30" x="63.623047"/>
           <use xlink:href="#DejaVuSans-30" x="127.246094"/>
           <use xlink:href="#DejaVuSans-30" x="190.869141"/>
           <use xlink:href="#DejaVuSans-30" x="254.492188"/>
          </g>
         </g>
        </g>
        <g id="ytick_4">
         <g id="line2d_7">
          <g>
           <use xlink:href="#m8a8891e667" x="63.290625" y="153.032899" style="stroke: #000000; stroke-width: 0.8"/>
          </g>
         </g>
         <g id="text_7">
          <!-- 15000 -->
          <g transform="translate(24.478125 156.832118) scale(0.1 -0.1)">
           <use xlink:href="#DejaVuSans-31"/>
           <use xlink:href="#DejaVuSans-35" x="63.623047"/>
           <use xlink:href="#DejaVuSans-30" x="127.246094"/>
           <use xlink:href="#DejaVuSans-30" x="190.869141"/>
           <use xlink:href="#DejaVuSans-30" x="254.492188"/>
          </g>
         </g>
        </g>
        <g id="ytick_5">
         <g id="line2d_8">
          <g>
           <use xlink:href="#m8a8891e667" x="63.290625" y="96.836574" style="stroke: #000000; stroke-width: 0.8"/>
          </g>
         </g>
         <g id="text_8">
          <!-- 20000 -->
          <g transform="translate(24.478125 100.635793) scale(0.1 -0.1)">
           <defs>
            <path id="DejaVuSans-32" d="M 1228 531 
L 3431 531 
L 3431 0 
L 469 0 
L 469 531 
Q 828 903 1448 1529 
Q 2069 2156 2228 2338 
Q 2531 2678 2651 2914 
Q 2772 3150 2772 3378 
Q 2772 3750 2511 3984 
Q 2250 4219 1831 4219 
Q 1534 4219 1204 4116 
Q 875 4013 500 3803 
L 500 4441 
Q 881 4594 1212 4672 
Q 1544 4750 1819 4750 
Q 2544 4750 2975 4387 
Q 3406 4025 3406 3419 
Q 3406 3131 3298 2873 
Q 3191 2616 2906 2266 
Q 2828 2175 2409 1742 
Q 1991 1309 1228 531 
z
" transform="scale(0.015625)"/>
           </defs>
           <use xlink:href="#DejaVuSans-32"/>
           <use xlink:href="#DejaVuSans-30" x="63.623047"/>
           <use xlink:href="#DejaVuSans-30" x="127.246094"/>
           <use xlink:href="#DejaVuSans-30" x="190.869141"/>
           <use xlink:href="#DejaVuSans-30" x="254.492188"/>
          </g>
         </g>
        </g>
        <g id="ytick_6">
         <g id="line2d_9">
          <g>
           <use xlink:href="#m8a8891e667" x="63.290625" y="40.640249" style="stroke: #000000; stroke-width: 0.8"/>
          </g>
         </g>
         <g id="text_9">
          <!-- 25000 -->
          <g transform="translate(24.478125 44.439467) scale(0.1 -0.1)">
           <use xlink:href="#DejaVuSans-32"/>
           <use xlink:href="#DejaVuSans-35" x="63.623047"/>
           <use xlink:href="#DejaVuSans-30" x="127.246094"/>
           <use xlink:href="#DejaVuSans-30" x="190.869141"/>
           <use xlink:href="#DejaVuSans-30" x="254.492188"/>
          </g>
         </g>
        </g>
        <g id="text_10">
         <!-- time ago (generations) -->
         <g transform="translate(18.398438 223.682031) rotate(-90) scale(0.1 -0.1)">
          <defs>
           <path id="DejaVuSans-74" d="M 1172 4494 
L 1172 3500 
L 2356 3500 
L 2356 3053 
L 1172 3053 
L 1172 1153 
Q 1172 725 1289 603 
Q 1406 481 1766 481 
L 2356 481 
L 2356 0 
L 1766 0 
Q 1100 0 847 248 
Q 594 497 594 1153 
L 594 3053 
L 172 3053 
L 172 3500 
L 594 3500 
L 594 4494 
L 1172 4494 
z
" transform="scale(0.015625)"/>
           <path id="DejaVuSans-69" d="M 603 3500 
L 1178 3500 
L 1178 0 
L 603 0 
L 603 3500 
z
M 603 4863 
L 1178 4863 
L 1178 4134 
L 603 4134 
L 603 4863 
z
" transform="scale(0.015625)"/>
           <path id="DejaVuSans-6d" d="M 3328 2828 
Q 3544 3216 3844 3400 
Q 4144 3584 4550 3584 
Q 5097 3584 5394 3201 
Q 5691 2819 5691 2113 
L 5691 0 
L 5113 0 
L 5113 2094 
Q 5113 2597 4934 2840 
Q 4756 3084 4391 3084 
Q 3944 3084 3684 2787 
Q 3425 2491 3425 1978 
L 3425 0 
L 2847 0 
L 2847 2094 
Q 2847 2600 2669 2842 
Q 2491 3084 2119 3084 
Q 1678 3084 1418 2786 
Q 1159 2488 1159 1978 
L 1159 0 
L 581 0 
L 581 3500 
L 1159 3500 
L 1159 2956 
Q 1356 3278 1631 3431 
Q 1906 3584 2284 3584 
Q 2666 3584 2933 3390 
Q 3200 3197 3328 2828 
z
" transform="scale(0.015625)"/>
           <path id="DejaVuSans-65" d="M 3597 1894 
L 3597 1613 
L 953 1613 
Q 991 1019 1311 708 
Q 1631 397 2203 397 
Q 2534 397 2845 478 
Q 3156 559 3463 722 
L 3463 178 
Q 3153 47 2828 -22 
Q 2503 -91 2169 -91 
Q 1331 -91 842 396 
Q 353 884 353 1716 
Q 353 2575 817 3079 
Q 1281 3584 2069 3584 
Q 2775 3584 3186 3129 
Q 3597 2675 3597 1894 
z
M 3022 2063 
Q 3016 2534 2758 2815 
Q 2500 3097 2075 3097 
Q 1594 3097 1305 2825 
Q 1016 2553 972 2059 
L 3022 2063 
z
" transform="scale(0.015625)"/>
           <path id="DejaVuSans-20" transform="scale(0.015625)"/>
           <path id="DejaVuSans-61" d="M 2194 1759 
Q 1497 1759 1228 1600 
Q 959 1441 959 1056 
Q 959 750 1161 570 
Q 1363 391 1709 391 
Q 2188 391 2477 730 
Q 2766 1069 2766 1631 
L 2766 1759 
L 2194 1759 
z
M 3341 1997 
L 3341 0 
L 2766 0 
L 2766 531 
Q 2569 213 2275 61 
Q 1981 -91 1556 -91 
Q 1019 -91 701 211 
Q 384 513 384 1019 
Q 384 1609 779 1909 
Q 1175 2209 1959 2209 
L 2766 2209 
L 2766 2266 
Q 2766 2663 2505 2880 
Q 2244 3097 1772 3097 
Q 1472 3097 1187 3025 
Q 903 2953 641 2809 
L 641 3341 
Q 956 3463 1253 3523 
Q 1550 3584 1831 3584 
Q 2591 3584 2966 3190 
Q 3341 2797 3341 1997 
z
" transform="scale(0.015625)"/>
           <path id="DejaVuSans-67" d="M 2906 1791 
Q 2906 2416 2648 2759 
Q 2391 3103 1925 3103 
Q 1463 3103 1205 2759 
Q 947 2416 947 1791 
Q 947 1169 1205 825 
Q 1463 481 1925 481 
Q 2391 481 2648 825 
Q 2906 1169 2906 1791 
z
M 3481 434 
Q 3481 -459 3084 -895 
Q 2688 -1331 1869 -1331 
Q 1566 -1331 1297 -1286 
Q 1028 -1241 775 -1147 
L 775 -588 
Q 1028 -725 1275 -790 
Q 1522 -856 1778 -856 
Q 2344 -856 2625 -561 
Q 2906 -266 2906 331 
L 2906 616 
Q 2728 306 2450 153 
Q 2172 0 1784 0 
Q 1141 0 747 490 
Q 353 981 353 1791 
Q 353 2603 747 3093 
Q 1141 3584 1784 3584 
Q 2172 3584 2450 3431 
Q 2728 3278 2906 2969 
L 2906 3500 
L 3481 3500 
L 3481 434 
z
" transform="scale(0.015625)"/>
           <path id="DejaVuSans-6f" d="M 1959 3097 
Q 1497 3097 1228 2736 
Q 959 2375 959 1747 
Q 959 1119 1226 758 
Q 1494 397 1959 397 
Q 2419 397 2687 759 
Q 2956 1122 2956 1747 
Q 2956 2369 2687 2733 
Q 2419 3097 1959 3097 
z
M 1959 3584 
Q 2709 3584 3137 3096 
Q 3566 2609 3566 1747 
Q 3566 888 3137 398 
Q 2709 -91 1959 -91 
Q 1206 -91 779 398 
Q 353 888 353 1747 
Q 353 2609 779 3096 
Q 1206 3584 1959 3584 
z
" transform="scale(0.015625)"/>
           <path id="DejaVuSans-28" d="M 1984 4856 
Q 1566 4138 1362 3434 
Q 1159 2731 1159 2009 
Q 1159 1288 1364 580 
Q 1569 -128 1984 -844 
L 1484 -844 
Q 1016 -109 783 600 
Q 550 1309 550 2009 
Q 550 2706 781 3412 
Q 1013 4119 1484 4856 
L 1984 4856 
z
" transform="scale(0.015625)"/>
           <path id="DejaVuSans-6e" d="M 3513 2113 
L 3513 0 
L 2938 0 
L 2938 2094 
Q 2938 2591 2744 2837 
Q 2550 3084 2163 3084 
Q 1697 3084 1428 2787 
Q 1159 2491 1159 1978 
L 1159 0 
L 581 0 
L 581 3500 
L 1159 3500 
L 1159 2956 
Q 1366 3272 1645 3428 
Q 1925 3584 2291 3584 
Q 2894 3584 3203 3211 
Q 3513 2838 3513 2113 
z
" transform="scale(0.015625)"/>
           <path id="DejaVuSans-72" d="M 2631 2963 
Q 2534 3019 2420 3045 
Q 2306 3072 2169 3072 
Q 1681 3072 1420 2755 
Q 1159 2438 1159 1844 
L 1159 0 
L 581 0 
L 581 3500 
L 1159 3500 
L 1159 2956 
Q 1341 3275 1631 3429 
Q 1922 3584 2338 3584 
Q 2397 3584 2469 3576 
Q 2541 3569 2628 3553 
L 2631 2963 
z
" transform="scale(0.015625)"/>
           <path id="DejaVuSans-73" d="M 2834 3397 
L 2834 2853 
Q 2591 2978 2328 3040 
Q 2066 3103 1784 3103 
Q 1356 3103 1142 2972 
Q 928 2841 928 2578 
Q 928 2378 1081 2264 
Q 1234 2150 1697 2047 
L 1894 2003 
Q 2506 1872 2764 1633 
Q 3022 1394 3022 966 
Q 3022 478 2636 193 
Q 2250 -91 1575 -91 
Q 1294 -91 989 -36 
Q 684 19 347 128 
L 347 722 
Q 666 556 975 473 
Q 1284 391 1588 391 
Q 1994 391 2212 530 
Q 2431 669 2431 922 
Q 2431 1156 2273 1281 
Q 2116 1406 1581 1522 
L 1381 1569 
Q 847 1681 609 1914 
Q 372 2147 372 2553 
Q 372 3047 722 3315 
Q 1072 3584 1716 3584 
Q 2034 3584 2315 3537 
Q 2597 3491 2834 3397 
z
" transform="scale(0.015625)"/>
           <path id="DejaVuSans-29" d="M 513 4856 
L 1013 4856 
Q 1481 4119 1714 3412 
Q 1947 2706 1947 2009 
Q 1947 1309 1714 600 
Q 1481 -109 1013 -844 
L 513 -844 
Q 928 -128 1133 580 
Q 1338 1288 1338 2009 
Q 1338 2731 1133 3434 
Q 928 4138 513 4856 
z
" transform="scale(0.015625)"/>
          </defs>
          <use xlink:href="#DejaVuSans-74"/>
          <use xlink:href="#DejaVuSans-69" x="39.208984"/>
          <use xlink:href="#DejaVuSans-6d" x="66.992188"/>
          <use xlink:href="#DejaVuSans-65" x="164.404297"/>
          <use xlink:href="#DejaVuSans-20" x="225.927734"/>
          <use xlink:href="#DejaVuSans-61" x="257.714844"/>
          <use xlink:href="#DejaVuSans-67" x="318.994141"/>
          <use xlink:href="#DejaVuSans-6f" x="382.470703"/>
          <use xlink:href="#DejaVuSans-20" x="443.652344"/>
          <use xlink:href="#DejaVuSans-28" x="475.439453"/>
          <use xlink:href="#DejaVuSans-67" x="514.453125"/>
          <use xlink:href="#DejaVuSans-65" x="577.929688"/>
          <use xlink:href="#DejaVuSans-6e" x="639.453125"/>
          <use xlink:href="#DejaVuSans-65" x="702.832031"/>
          <use xlink:href="#DejaVuSans-72" x="764.355469"/>
          <use xlink:href="#DejaVuSans-61" x="805.46875"/>
          <use xlink:href="#DejaVuSans-74" x="866.748047"/>
          <use xlink:href="#DejaVuSans-69" x="905.957031"/>
          <use xlink:href="#DejaVuSans-6f" x="933.740234"/>
          <use xlink:href="#DejaVuSans-6e" x="994.921875"/>
          <use xlink:href="#DejaVuSans-73" x="1058.300781"/>
          <use xlink:href="#DejaVuSans-29" x="1110.400391"/>
         </g>
        </g>
       </g>
       <g id="patch_7">
        <path d="M 297.670242 200.338966 
L 296.670242 200.307529 
L 295.670242 200.270589 
L 294.670242 200.172842 
L 293.670242 200.140321 
L 292.670242 200.066696 
L 291.670242 200.028131 
L 290.670242 199.992717 
L 289.670242 199.935078 
L 288.670242 199.864691 
L 287.670242 199.812727 
L 286.670242 199.753637 
L 285.670242 199.665316 
L 284.670242 199.619172 
L 283.670242 199.576761 
L 282.670242 199.546268 
L 281.670242 199.520224 
L 280.670242 199.499023 
L 279.670242 199.444722 
L 278.670242 199.416785 
L 277.670242 199.387061 
L 276.670242 199.361666 
L 275.670242 199.350466 
L 274.670242 199.340342 
L 273.670242 199.340546 
L 272.670242 199.350056 
L 271.670242 199.361709 
L 270.670242 199.392739 
L 269.670242 199.403907 
L 268.670242 199.434024 
L 267.670242 199.493801 
L 266.670242 199.530993 
L 265.670242 199.570089 
L 264.670242 199.612528 
L 263.670242 199.645293 
L 262.670242 199.71272 
L 261.670242 199.751846 
L 260.670242 199.79452 
L 259.670242 199.865101 
L 258.670242 199.901492 
L 257.670242 199.959895 
L 256.670242 200.070848 
L 255.670242 200.141506 
L 254.670242 200.254446 
L 253.670242 200.300219 
L 252.670242 200.361502 
L 251.670242 200.410001 
L 250.670242 200.490824 
L 249.670242 200.609343 
L 248.670242 200.679553 
L 247.670242 200.762816 
L 246.670242 200.795958 
L 245.670242 200.847195 
L 244.670242 200.915593 
L 243.670242 200.981809 
L 242.670242 201.058726 
L 241.670242 201.086041 
L 240.670242 201.112519 
L 239.670242 201.135169 
L 238.670242 201.154701 
L 237.670242 201.181095 
L 236.670242 201.230866 
L 235.670242 201.265939 
L 234.670242 201.301804 
L 233.670242 201.317172 
L 232.670242 201.332941 
L 231.670242 201.336353 
L 230.670242 201.338771 
L 229.670242 201.338285 
L 228.670242 201.336356 
L 227.670242 201.323099 
L 226.670242 201.314708 
L 225.670242 201.293171 
L 224.670242 201.270139 
L 223.670242 201.252905 
L 222.670242 201.234443 
L 221.670242 201.21399 
L 220.670242 201.197391 
L 219.670242 201.134612 
L 218.670242 201.059347 
L 217.670242 201.026708 
L 216.670242 200.959144 
L 215.670242 200.905097 
L 214.670242 200.871393 
L 213.670242 200.781267 
L 212.670242 200.752732 
L 211.670242 200.721246 
L 210.670242 200.690235 
L 209.670242 200.635427 
L 208.670242 200.570839 
L 207.670242 200.532644 
L 206.670242 200.43671 
L 205.670242 200.387452 
L 204.670242 200.343382 
L 203.670242 200.303259 
L 202.670242 200.194892 
L 201.670242 200.153264 
L 200.670242 200.091122 
L 199.670242 200.02116 
L 198.670242 199.916655 
L 197.670242 199.879668 
L 196.670242 199.833791 
L 195.670242 199.765296 
L 194.670242 199.71655 
L 193.670242 199.638953 
L 192.670242 199.608412 
L 191.670242 199.538898 
L 190.670242 199.514925 
L 189.670242 199.486303 
L 188.670242 199.44451 
L 187.670242 199.422934 
L 186.670242 199.408986 
L 185.670242 199.382263 
L 184.670242 199.372954 
L 183.670242 199.360507 
L 182.670242 199.349452 
L 181.670242 199.343788 
L 180.670242 199.339024 
L 179.670242 199.344571 
L 178.670242 199.357859 
L 177.670242 199.365377 
L 176.670242 199.390162 
L 175.670242 199.41373 
L 174.670242 199.449911 
L 173.670242 199.475873 
L 172.670242 199.498194 
L 171.670242 199.566955 
L 170.670242 199.64149 
L 169.670242 199.735469 
L 168.670242 199.786521 
L 167.670242 199.840455 
L 166.670242 199.875706 
L 165.670242 199.981794 
L 164.670242 200.034058 
L 163.670242 200.070965 
L 162.670242 200.101995 
L 161.670242 200.163151 
L 160.670242 200.230571 
L 159.670242 200.279477 
L 158.670242 200.344669 
L 157.670242 200.382857 
L 156.670242 200.424852 
L 155.670242 200.46687 
L 154.670242 200.526386 
L 153.670242 200.639546 
L 152.670242 200.691797 
L 151.670242 200.731215 
L 150.670242 200.778316 
L 149.670242 200.835095 
L 148.670242 200.867759 
L 147.670242 200.903936 
L 146.670242 200.936027 
L 145.670242 200.970307 
L 144.670242 201.028685 
L 143.670242 201.07387 
L 142.670242 201.103494 
L 141.670242 201.153879 
L 140.670242 201.179077 
L 139.670242 201.200128 
L 138.670242 201.235096 
L 137.670242 201.259386 
L 136.670242 201.273453 
L 135.670242 201.292395 
L 134.670242 201.308056 
L 133.670242 201.320608 
L 132.670242 201.326444 
L 131.670242 201.333326 
L 130.670242 201.3385 
L 129.670242 201.336717 
L 128.670242 201.333991 
L 127.670242 201.322838 
L 126.670242 201.294603 
L 125.670242 201.250815 
L 124.670242 201.230126 
L 123.670242 201.189152 
L 122.670242 201.149078 
L 121.670242 201.129968 
L 120.670242 201.107459 
L 119.670242 201.040807 
L 118.670242 200.991098 
L 117.670242 200.917391 
L 116.670242 200.886078 
L 115.670242 200.809456 
L 114.670242 200.771158 
L 113.670242 200.697041 
L 112.670242 200.592983 
L 111.670242 200.523152 
L 110.670242 200.417918 
L 109.670242 200.362903 
L 108.670242 200.239428 
L 107.670242 200.168869 
L 106.670242 200.053029 
L 105.670242 200.002849 
L 104.670242 199.967245 
L 103.670242 199.875838 
L 102.670242 199.82233 
L 101.670242 199.734422 
L 100.670242 199.665237 
L 98.822562 199.618473 
" clip-path="url(#p5f3cce0873)" style="fill: none; stroke: #ffffff; stroke-width: 3; stroke-linecap: round"/>
        <path d="M 297.670242 200.338966 
L 296.670242 200.307529 
L 295.670242 200.270589 
L 294.670242 200.172842 
L 293.670242 200.140321 
L 292.670242 200.066696 
L 291.670242 200.028131 
L 290.670242 199.992717 
L 289.670242 199.935078 
L 288.670242 199.864691 
L 287.670242 199.812727 
L 286.670242 199.753637 
L 285.670242 199.665316 
L 284.670242 199.619172 
L 283.670242 199.576761 
L 282.670242 199.546268 
L 281.670242 199.520224 
L 280.670242 199.499023 
L 279.670242 199.444722 
L 278.670242 199.416785 
L 277.670242 199.387061 
L 276.670242 199.361666 
L 275.670242 199.350466 
L 274.670242 199.340342 
L 273.670242 199.340546 
L 272.670242 199.350056 
L 271.670242 199.361709 
L 270.670242 199.392739 
L 269.670242 199.403907 
L 268.670242 199.434024 
L 267.670242 199.493801 
L 266.670242 199.530993 
L 265.670242 199.570089 
L 264.670242 199.612528 
L 263.670242 199.645293 
L 262.670242 199.71272 
L 261.670242 199.751846 
L 260.670242 199.79452 
L 259.670242 199.865101 
L 258.670242 199.901492 
L 257.670242 199.959895 
L 256.670242 200.070848 
L 255.670242 200.141506 
L 254.670242 200.254446 
L 253.670242 200.300219 
L 252.670242 200.361502 
L 251.670242 200.410001 
L 250.670242 200.490824 
L 249.670242 200.609343 
L 248.670242 200.679553 
L 247.670242 200.762816 
L 246.670242 200.795958 
L 245.670242 200.847195 
L 244.670242 200.915593 
L 243.670242 200.981809 
L 242.670242 201.058726 
L 241.670242 201.086041 
L 240.670242 201.112519 
L 239.670242 201.135169 
L 238.670242 201.154701 
L 237.670242 201.181095 
L 236.670242 201.230866 
L 235.670242 201.265939 
L 234.670242 201.301804 
L 233.670242 201.317172 
L 232.670242 201.332941 
L 231.670242 201.336353 
L 230.670242 201.338771 
L 229.670242 201.338285 
L 228.670242 201.336356 
L 227.670242 201.323099 
L 226.670242 201.314708 
L 225.670242 201.293171 
L 224.670242 201.270139 
L 223.670242 201.252905 
L 222.670242 201.234443 
L 221.670242 201.21399 
L 220.670242 201.197391 
L 219.670242 201.134612 
L 218.670242 201.059347 
L 217.670242 201.026708 
L 216.670242 200.959144 
L 215.670242 200.905097 
L 214.670242 200.871393 
L 213.670242 200.781267 
L 212.670242 200.752732 
L 211.670242 200.721246 
L 210.670242 200.690235 
L 209.670242 200.635427 
L 208.670242 200.570839 
L 207.670242 200.532644 
L 206.670242 200.43671 
L 205.670242 200.387452 
L 204.670242 200.343382 
L 203.670242 200.303259 
L 202.670242 200.194892 
L 201.670242 200.153264 
L 200.670242 200.091122 
L 199.670242 200.02116 
L 198.670242 199.916655 
L 197.670242 199.879668 
L 196.670242 199.833791 
L 195.670242 199.765296 
L 194.670242 199.71655 
L 193.670242 199.638953 
L 192.670242 199.608412 
L 191.670242 199.538898 
L 190.670242 199.514925 
L 189.670242 199.486303 
L 188.670242 199.44451 
L 187.670242 199.422934 
L 186.670242 199.408986 
L 185.670242 199.382263 
L 184.670242 199.372954 
L 183.670242 199.360507 
L 182.670242 199.349452 
L 181.670242 199.343788 
L 180.670242 199.339024 
L 179.670242 199.344571 
L 178.670242 199.357859 
L 177.670242 199.365377 
L 176.670242 199.390162 
L 175.670242 199.41373 
L 174.670242 199.449911 
L 173.670242 199.475873 
L 172.670242 199.498194 
L 171.670242 199.566955 
L 170.670242 199.64149 
L 169.670242 199.735469 
L 168.670242 199.786521 
L 167.670242 199.840455 
L 166.670242 199.875706 
L 165.670242 199.981794 
L 164.670242 200.034058 
L 163.670242 200.070965 
L 162.670242 200.101995 
L 161.670242 200.163151 
L 160.670242 200.230571 
L 159.670242 200.279477 
L 158.670242 200.344669 
L 157.670242 200.382857 
L 156.670242 200.424852 
L 155.670242 200.46687 
L 154.670242 200.526386 
L 153.670242 200.639546 
L 152.670242 200.691797 
L 151.670242 200.731215 
L 150.670242 200.778316 
L 149.670242 200.835095 
L 148.670242 200.867759 
L 147.670242 200.903936 
L 146.670242 200.936027 
L 145.670242 200.970307 
L 144.670242 201.028685 
L 143.670242 201.07387 
L 142.670242 201.103494 
L 141.670242 201.153879 
L 140.670242 201.179077 
L 139.670242 201.200128 
L 138.670242 201.235096 
L 137.670242 201.259386 
L 136.670242 201.273453 
L 135.670242 201.292395 
L 134.670242 201.308056 
L 133.670242 201.320608 
L 132.670242 201.326444 
L 131.670242 201.333326 
L 130.670242 201.3385 
L 129.670242 201.336717 
L 128.670242 201.333991 
L 127.670242 201.322838 
L 126.670242 201.294603 
L 125.670242 201.250815 
L 124.670242 201.230126 
L 123.670242 201.189152 
L 122.670242 201.149078 
L 121.670242 201.129968 
L 120.670242 201.107459 
L 119.670242 201.040807 
L 118.670242 200.991098 
L 117.670242 200.917391 
L 116.670242 200.886078 
L 115.670242 200.809456 
L 114.670242 200.771158 
L 113.670242 200.697041 
L 112.670242 200.592983 
L 111.670242 200.523152 
L 110.670242 200.417918 
L 109.670242 200.362903 
L 108.670242 200.239428 
L 107.670242 200.168869 
L 106.670242 200.053029 
L 105.670242 200.002849 
L 104.670242 199.967245 
L 103.670242 199.875838 
L 102.670242 199.82233 
L 101.670242 199.734422 
L 100.670242 199.665237 
L 98.822562 199.618473 
" clip-path="url(#p5f3cce0873)" style="fill: none; stroke: #1f77b4; stroke-linecap: round"/>
        <path d="M 102.822562 202.338966 
L 101.942194 201.863635 
L 101.064287 201.383381 
L 100.213573 200.84874 
L 98.911399 200.161292 
L 99.838752 200.135278 
L 100.750426 199.722558 
L 101.660691 199.307019 
L 103.003187 198.700215 
L 102.348288 199.338966 
L 102.296324 200.338966 
L 102.237234 202.338966 
z
" clip-path="url(#p5f3cce0873)" style="fill: #ffffff; stroke: #ffffff; stroke-width: 3; stroke-linecap: round"/>
        <path d="M 102.822562 202.338966 
L 101.942194 201.863635 
L 101.064287 201.383381 
L 100.213573 200.84874 
L 98.911399 200.161292 
L 99.838752 200.135278 
L 100.750426 199.722558 
L 101.660691 199.307019 
L 103.003187 198.700215 
L 102.348288 199.338966 
L 102.296324 200.338966 
L 102.237234 202.338966 
z
" clip-path="url(#p5f3cce0873)" style="fill: #ffffff; stroke: #1f77b4; stroke-linecap: round"/>
        <g id="patch_8">
         <path d="M 306.782874 72.964375 
L 307.782874 72.995811 
L 308.782874 73.032752 
L 309.782874 73.130498 
L 310.782874 73.16302 
L 311.782874 73.236645 
L 312.782874 73.27521 
L 313.782874 73.310623 
L 314.782874 73.368263 
L 315.782874 73.438649 
L 316.782874 73.490614 
L 317.782874 73.549703 
L 318.782874 73.638024 
L 319.782874 73.684169 
L 320.782874 73.72658 
L 321.782874 73.757072 
L 322.782874 73.783117 
L 323.782874 73.804317 
L 324.782874 73.858618 
L 325.782874 73.886556 
L 326.782874 73.91628 
L 327.782874 73.941675 
L 328.782874 73.952875 
L 329.782874 73.962999 
L 330.782874 73.962795 
L 331.782874 73.953285 
L 332.782874 73.941631 
L 333.782874 73.910602 
L 334.782874 73.899434 
L 335.782874 73.869317 
L 336.782874 73.80954 
L 337.782874 73.772348 
L 338.782874 73.733252 
L 339.782874 73.690812 
L 340.782874 73.658047 
L 341.782874 73.590621 
L 342.782874 73.551495 
L 343.782874 73.50882 
L 344.782874 73.43824 
L 345.782874 73.401849 
L 346.782874 73.343446 
L 347.782874 73.232493 
L 348.782874 73.161835 
L 349.782874 73.048895 
L 350.782874 73.003122 
L 351.782874 72.941839 
L 352.782874 72.89334 
L 353.782874 72.812517 
L 354.782874 72.693998 
L 355.782874 72.623787 
L 356.782874 72.540525 
L 357.782874 72.507383 
L 358.782874 72.456146 
L 359.782874 72.387747 
L 360.782874 72.321532 
L 361.782874 72.244615 
L 362.782874 72.217299 
L 363.782874 72.190822 
L 364.782874 72.168171 
L 365.782874 72.14864 
L 366.782874 72.122246 
L 367.782874 72.072475 
L 368.782874 72.037402 
L 369.782874 72.001536 
L 370.782874 71.986169 
L 371.782874 71.9704 
L 372.782874 71.966987 
L 373.782874 71.96457 
L 374.782874 71.965056 
L 375.782874 71.966985 
L 376.782874 71.980242 
L 377.782874 71.988633 
L 378.782874 72.010169 
L 379.782874 72.033202 
L 380.782874 72.050435 
L 381.782874 72.068898 
L 382.782874 72.08935 
L 383.782874 72.10595 
L 384.782874 72.168729 
L 385.782874 72.243994 
L 386.782874 72.276633 
L 387.782874 72.344197 
L 388.782874 72.398244 
L 389.782874 72.431948 
L 390.782874 72.522074 
L 391.782874 72.550609 
L 392.782874 72.582095 
L 393.782874 72.613106 
L 394.782874 72.667914 
L 395.782874 72.732501 
L 396.782874 72.770697 
L 397.782874 72.866631 
L 398.782874 72.915889 
L 399.782874 72.959958 
L 400.782874 73.000082 
L 401.782874 73.108449 
L 402.782874 73.150077 
L 403.782874 73.212219 
L 404.782874 73.282181 
L 405.782874 73.386685 
L 406.782874 73.423673 
L 407.782874 73.46955 
L 408.782874 73.538045 
L 409.782874 73.586791 
L 410.782874 73.664388 
L 411.782874 73.694929 
L 412.782874 73.764443 
L 413.782874 73.788416 
L 414.782874 73.817038 
L 415.782874 73.858831 
L 416.782874 73.880407 
L 417.782874 73.894355 
L 418.782874 73.921077 
L 419.782874 73.930387 
L 420.782874 73.942834 
L 421.782874 73.953889 
L 422.782874 73.959553 
L 423.782874 73.964317 
L 424.782874 73.958769 
L 425.782874 73.945481 
L 426.782874 73.937964 
L 427.782874 73.913179 
L 428.782874 73.88961 
L 429.782874 73.85343 
L 430.782874 73.827468 
L 431.782874 73.805146 
L 432.782874 73.736386 
L 433.782874 73.661851 
L 434.782874 73.567872 
L 435.782874 73.51682 
L 436.782874 73.462886 
L 437.782874 73.427635 
L 438.782874 73.321547 
L 439.782874 73.269283 
L 440.782874 73.232376 
L 441.782874 73.201345 
L 442.782874 73.14019 
L 443.782874 73.07277 
L 444.782874 73.023864 
L 445.782874 72.958672 
L 446.782874 72.920484 
L 447.782874 72.878488 
L 448.782874 72.836471 
L 449.782874 72.776955 
L 450.782874 72.663795 
L 451.782874 72.611544 
L 452.782874 72.572126 
L 453.782874 72.525025 
L 454.782874 72.468245 
L 455.782874 72.435582 
L 456.782874 72.399404 
L 457.782874 72.367314 
L 458.782874 72.333034 
L 459.782874 72.274656 
L 460.782874 72.229471 
L 461.782874 72.199847 
L 462.782874 72.149461 
L 463.782874 72.124264 
L 464.782874 72.103213 
L 465.782874 72.068245 
L 466.782874 72.043955 
L 467.782874 72.029888 
L 468.782874 72.010946 
L 469.782874 71.995285 
L 470.782874 71.982733 
L 471.782874 71.976897 
L 472.782874 71.970015 
L 473.782874 71.964841 
L 474.782874 71.966624 
L 475.782874 71.969349 
L 476.782874 71.980503 
L 477.782874 72.008738 
L 478.782874 72.052526 
L 479.782874 72.073215 
L 480.782874 72.114188 
L 481.782874 72.154263 
L 482.782874 72.173373 
L 483.782874 72.195882 
L 484.782874 72.262533 
L 485.782874 72.312243 
L 486.782874 72.385949 
L 487.782874 72.417263 
L 488.782874 72.493885 
L 489.782874 72.532183 
L 490.782874 72.6063 
L 491.782874 72.710358 
L 492.782874 72.780189 
L 493.782874 72.885423 
L 494.782874 72.940438 
L 495.782874 73.063913 
L 496.782874 73.134472 
L 497.782874 73.250311 
L 498.782874 73.300492 
L 499.782874 73.336096 
L 500.782874 73.427503 
L 501.782874 73.481011 
L 502.782874 73.568919 
L 503.782874 73.638104 
L 504.782874 73.684868 
L 505.782874 73.756912 
L 506.782874 73.807054 
L 507.782874 73.824444 
L 508.782874 73.851447 
L 509.782874 73.870874 
L 510.782874 73.890212 
L 511.782874 73.928461 
L 512.782874 73.944894 
L 513.782874 73.953263 
L 514.782874 73.957582 
L 515.782874 73.964137 
L 516.782874 73.961591 
L 517.782874 73.956132 
L 518.782874 73.939704 
L 519.782874 73.907769 
L 520.782874 73.869789 
L 521.782874 73.834985 
L 522.782874 73.771913 
L 523.782874 73.750486 
L 524.782874 73.699868 
L 525.782874 73.674911 
L 526.782874 73.619277 
L 527.782874 73.588048 
L 528.782874 73.537904 
L 529.782874 73.505411 
L 530.782874 73.424999 
L 531.782874 73.356073 
L 532.782874 73.240376 
L 533.782874 73.164897 
L 534.782874 73.049372 
L 535.782874 72.969888 
L 536.782874 72.861447 
L 537.782874 72.822079 
L 538.782874 72.719211 
L 539.782874 72.619413 
L 540.782874 72.573916 
L 541.782874 72.539594 
L 542.782874 72.487638 
L 543.782874 72.447991 
L 544.782874 72.412477 
L 545.782874 72.344832 
L 546.782874 72.30575 
L 547.782874 72.255269 
L 548.782874 72.205963 
L 549.782874 72.154893 
L 550.782874 72.110654 
L 551.782874 72.088634 
L 552.782874 72.073078 
L 553.782874 72.030631 
L 554.782874 72.015763 
L 555.782874 71.993035 
L 556.782874 71.972719 
L 557.782874 71.966922 
L 558.782874 71.96444 
L 559.782874 71.967497 
L 560.782874 71.979093 
L 561.782874 71.996013 
L 562.782874 72.027674 
L 563.782874 72.041757 
L 564.782874 72.094429 
L 565.782874 72.143518 
L 566.782874 72.198219 
L 567.782874 72.242567 
L 568.782874 72.312559 
L 569.782874 72.362942 
L 570.782874 72.416849 
L 571.782874 72.486288 
L 572.782874 72.543676 
L 573.782874 72.593841 
L 574.94768 72.671003 
" clip-path="url(#p5f3cce0873)" style="fill: none; stroke: #ffffff; stroke-width: 3; stroke-linecap: round"/>
         <path d="M 306.782874 72.964375 
L 307.782874 72.995811 
L 308.782874 73.032752 
L 309.782874 73.130498 
L 310.782874 73.16302 
L 311.782874 73.236645 
L 312.782874 73.27521 
L 313.782874 73.310623 
L 314.782874 73.368263 
L 315.782874 73.438649 
L 316.782874 73.490614 
L 317.782874 73.549703 
L 318.782874 73.638024 
L 319.782874 73.684169 
L 320.782874 73.72658 
L 321.782874 73.757072 
L 322.782874 73.783117 
L 323.782874 73.804317 
L 324.782874 73.858618 
L 325.782874 73.886556 
L 326.782874 73.91628 
L 327.782874 73.941675 
L 328.782874 73.952875 
L 329.782874 73.962999 
L 330.782874 73.962795 
L 331.782874 73.953285 
L 332.782874 73.941631 
L 333.782874 73.910602 
L 334.782874 73.899434 
L 335.782874 73.869317 
L 336.782874 73.80954 
L 337.782874 73.772348 
L 338.782874 73.733252 
L 339.782874 73.690812 
L 340.782874 73.658047 
L 341.782874 73.590621 
L 342.782874 73.551495 
L 343.782874 73.50882 
L 344.782874 73.43824 
L 345.782874 73.401849 
L 346.782874 73.343446 
L 347.782874 73.232493 
L 348.782874 73.161835 
L 349.782874 73.048895 
L 350.782874 73.003122 
L 351.782874 72.941839 
L 352.782874 72.89334 
L 353.782874 72.812517 
L 354.782874 72.693998 
L 355.782874 72.623787 
L 356.782874 72.540525 
L 357.782874 72.507383 
L 358.782874 72.456146 
L 359.782874 72.387747 
L 360.782874 72.321532 
L 361.782874 72.244615 
L 362.782874 72.217299 
L 363.782874 72.190822 
L 364.782874 72.168171 
L 365.782874 72.14864 
L 366.782874 72.122246 
L 367.782874 72.072475 
L 368.782874 72.037402 
L 369.782874 72.001536 
L 370.782874 71.986169 
L 371.782874 71.9704 
L 372.782874 71.966987 
L 373.782874 71.96457 
L 374.782874 71.965056 
L 375.782874 71.966985 
L 376.782874 71.980242 
L 377.782874 71.988633 
L 378.782874 72.010169 
L 379.782874 72.033202 
L 380.782874 72.050435 
L 381.782874 72.068898 
L 382.782874 72.08935 
L 383.782874 72.10595 
L 384.782874 72.168729 
L 385.782874 72.243994 
L 386.782874 72.276633 
L 387.782874 72.344197 
L 388.782874 72.398244 
L 389.782874 72.431948 
L 390.782874 72.522074 
L 391.782874 72.550609 
L 392.782874 72.582095 
L 393.782874 72.613106 
L 394.782874 72.667914 
L 395.782874 72.732501 
L 396.782874 72.770697 
L 397.782874 72.866631 
L 398.782874 72.915889 
L 399.782874 72.959958 
L 400.782874 73.000082 
L 401.782874 73.108449 
L 402.782874 73.150077 
L 403.782874 73.212219 
L 404.782874 73.282181 
L 405.782874 73.386685 
L 406.782874 73.423673 
L 407.782874 73.46955 
L 408.782874 73.538045 
L 409.782874 73.586791 
L 410.782874 73.664388 
L 411.782874 73.694929 
L 412.782874 73.764443 
L 413.782874 73.788416 
L 414.782874 73.817038 
L 415.782874 73.858831 
L 416.782874 73.880407 
L 417.782874 73.894355 
L 418.782874 73.921077 
L 419.782874 73.930387 
L 420.782874 73.942834 
L 421.782874 73.953889 
L 422.782874 73.959553 
L 423.782874 73.964317 
L 424.782874 73.958769 
L 425.782874 73.945481 
L 426.782874 73.937964 
L 427.782874 73.913179 
L 428.782874 73.88961 
L 429.782874 73.85343 
L 430.782874 73.827468 
L 431.782874 73.805146 
L 432.782874 73.736386 
L 433.782874 73.661851 
L 434.782874 73.567872 
L 435.782874 73.51682 
L 436.782874 73.462886 
L 437.782874 73.427635 
L 438.782874 73.321547 
L 439.782874 73.269283 
L 440.782874 73.232376 
L 441.782874 73.201345 
L 442.782874 73.14019 
L 443.782874 73.07277 
L 444.782874 73.023864 
L 445.782874 72.958672 
L 446.782874 72.920484 
L 447.782874 72.878488 
L 448.782874 72.836471 
L 449.782874 72.776955 
L 450.782874 72.663795 
L 451.782874 72.611544 
L 452.782874 72.572126 
L 453.782874 72.525025 
L 454.782874 72.468245 
L 455.782874 72.435582 
L 456.782874 72.399404 
L 457.782874 72.367314 
L 458.782874 72.333034 
L 459.782874 72.274656 
L 460.782874 72.229471 
L 461.782874 72.199847 
L 462.782874 72.149461 
L 463.782874 72.124264 
L 464.782874 72.103213 
L 465.782874 72.068245 
L 466.782874 72.043955 
L 467.782874 72.029888 
L 468.782874 72.010946 
L 469.782874 71.995285 
L 470.782874 71.982733 
L 471.782874 71.976897 
L 472.782874 71.970015 
L 473.782874 71.964841 
L 474.782874 71.966624 
L 475.782874 71.969349 
L 476.782874 71.980503 
L 477.782874 72.008738 
L 478.782874 72.052526 
L 479.782874 72.073215 
L 480.782874 72.114188 
L 481.782874 72.154263 
L 482.782874 72.173373 
L 483.782874 72.195882 
L 484.782874 72.262533 
L 485.782874 72.312243 
L 486.782874 72.385949 
L 487.782874 72.417263 
L 488.782874 72.493885 
L 489.782874 72.532183 
L 490.782874 72.6063 
L 491.782874 72.710358 
L 492.782874 72.780189 
L 493.782874 72.885423 
L 494.782874 72.940438 
L 495.782874 73.063913 
L 496.782874 73.134472 
L 497.782874 73.250311 
L 498.782874 73.300492 
L 499.782874 73.336096 
L 500.782874 73.427503 
L 501.782874 73.481011 
L 502.782874 73.568919 
L 503.782874 73.638104 
L 504.782874 73.684868 
L 505.782874 73.756912 
L 506.782874 73.807054 
L 507.782874 73.824444 
L 508.782874 73.851447 
L 509.782874 73.870874 
L 510.782874 73.890212 
L 511.782874 73.928461 
L 512.782874 73.944894 
L 513.782874 73.953263 
L 514.782874 73.957582 
L 515.782874 73.964137 
L 516.782874 73.961591 
L 517.782874 73.956132 
L 518.782874 73.939704 
L 519.782874 73.907769 
L 520.782874 73.869789 
L 521.782874 73.834985 
L 522.782874 73.771913 
L 523.782874 73.750486 
L 524.782874 73.699868 
L 525.782874 73.674911 
L 526.782874 73.619277 
L 527.782874 73.588048 
L 528.782874 73.537904 
L 529.782874 73.505411 
L 530.782874 73.424999 
L 531.782874 73.356073 
L 532.782874 73.240376 
L 533.782874 73.164897 
L 534.782874 73.049372 
L 535.782874 72.969888 
L 536.782874 72.861447 
L 537.782874 72.822079 
L 538.782874 72.719211 
L 539.782874 72.619413 
L 540.782874 72.573916 
L 541.782874 72.539594 
L 542.782874 72.487638 
L 543.782874 72.447991 
L 544.782874 72.412477 
L 545.782874 72.344832 
L 546.782874 72.30575 
L 547.782874 72.255269 
L 548.782874 72.205963 
L 549.782874 72.154893 
L 550.782874 72.110654 
L 551.782874 72.088634 
L 552.782874 72.073078 
L 553.782874 72.030631 
L 554.782874 72.015763 
L 555.782874 71.993035 
L 556.782874 71.972719 
L 557.782874 71.966922 
L 558.782874 71.96444 
L 559.782874 71.967497 
L 560.782874 71.979093 
L 561.782874 71.996013 
L 562.782874 72.027674 
L 563.782874 72.041757 
L 564.782874 72.094429 
L 565.782874 72.143518 
L 566.782874 72.198219 
L 567.782874 72.242567 
L 568.782874 72.312559 
L 569.782874 72.362942 
L 570.782874 72.416849 
L 571.782874 72.486288 
L 572.782874 72.543676 
L 573.782874 72.593841 
L 574.94768 72.671003 
" clip-path="url(#p5f3cce0873)" style="fill: none; stroke: #1f77b4; stroke-linecap: round"/>
         <path d="M 570.94768 70.964375 
L 571.828049 71.439706 
L 572.705956 71.91996 
L 573.556669 72.454601 
L 574.858844 73.142048 
L 573.93149 73.168063 
L 573.019816 73.580783 
L 572.109552 73.996322 
L 570.767056 74.603126 
L 571.421955 73.964375 
L 571.473919 72.964375 
L 571.533009 70.964375 
z
" clip-path="url(#p5f3cce0873)" style="fill: #ffffff; stroke: #ffffff; stroke-width: 3; stroke-linecap: round"/>
         <path d="M 570.94768 70.964375 
L 571.828049 71.439706 
L 572.705956 71.91996 
L 573.556669 72.454601 
L 574.858844 73.142048 
L 573.93149 73.168063 
L 573.019816 73.580783 
L 572.109552 73.996322 
L 570.767056 74.603126 
L 571.421955 73.964375 
L 571.473919 72.964375 
L 571.533009 70.964375 
z
" clip-path="url(#p5f3cce0873)" style="fill: #ffffff; stroke: #1f77b4; stroke-linecap: round"/>
         <g id="patch_9">
          <path d="M 97.703025 221.210281 
L 98.703025 221.241717 
L 99.703025 221.278658 
L 100.703025 221.376404 
L 101.703025 221.408926 
L 102.703025 221.482551 
L 103.703025 221.521116 
L 104.703025 221.556529 
L 105.703025 221.614169 
L 106.703025 221.684556 
L 107.703025 221.73652 
L 108.703025 221.79561 
L 109.703025 221.88393 
L 110.703025 221.930075 
L 111.703025 221.972486 
L 112.703025 222.002978 
L 113.703025 222.029023 
L 114.703025 222.050223 
L 115.703025 222.104525 
L 116.703025 222.132462 
L 117.703025 222.162186 
L 118.703025 222.187581 
L 119.703025 222.198781 
L 120.703025 222.208905 
L 121.703025 222.208701 
L 122.703025 222.199191 
L 123.703025 222.187537 
L 124.703025 222.156508 
L 125.703025 222.14534 
L 126.703025 222.115223 
L 127.703025 222.055446 
L 128.703025 222.018254 
L 129.703025 221.979158 
L 130.703025 221.936718 
L 131.703025 221.903953 
L 132.703025 221.836527 
L 133.703025 221.797401 
L 134.703025 221.754727 
L 135.703025 221.684146 
L 136.703025 221.647755 
L 137.703025 221.589352 
L 138.703025 221.478399 
L 139.703025 221.407741 
L 140.703025 221.294801 
L 141.703025 221.249028 
L 142.703025 221.187745 
L 143.703025 221.139246 
L 144.703025 221.058423 
L 145.703025 220.939904 
L 146.703025 220.869693 
L 147.703025 220.786431 
L 148.703025 220.753289 
L 149.703025 220.702052 
L 150.703025 220.633654 
L 151.703025 220.567438 
L 152.703025 220.490521 
L 153.703025 220.463206 
L 154.703025 220.436728 
L 155.703025 220.414077 
L 156.703025 220.394546 
L 157.703025 220.368152 
L 158.703025 220.318381 
L 159.703025 220.283308 
L 160.703025 220.247442 
L 161.703025 220.232075 
L 162.703025 220.216306 
L 163.703025 220.212893 
L 164.703025 220.210476 
L 165.703025 220.210962 
L 166.703025 220.212891 
L 167.703025 220.226148 
L 168.703025 220.234539 
L 169.703025 220.256075 
L 170.703025 220.279108 
L 171.703025 220.296341 
L 172.703025 220.314804 
L 173.703025 220.335256 
L 174.703025 220.351856 
L 175.703025 220.414635 
L 176.703025 220.4899 
L 177.703025 220.522539 
L 178.703025 220.590103 
L 179.703025 220.64415 
L 180.703025 220.677854 
L 181.703025 220.76798 
L 182.703025 220.796515 
L 183.703025 220.828001 
L 184.703025 220.859012 
L 185.703025 220.91382 
L 186.703025 220.978407 
L 187.703025 221.016603 
L 188.703025 221.112537 
L 189.703025 221.161795 
L 190.703025 221.205864 
L 191.703025 221.245988 
L 192.703025 221.354355 
L 193.703025 221.395983 
L 194.703025 221.458125 
L 195.703025 221.528087 
L 196.703025 221.632591 
L 197.703025 221.669579 
L 198.703025 221.715456 
L 199.703025 221.783951 
L 200.703025 221.832697 
L 201.703025 221.910294 
L 202.703025 221.940835 
L 203.703025 222.010349 
L 204.703025 222.034322 
L 205.703025 222.062944 
L 206.703025 222.104737 
L 207.703025 222.126313 
L 208.703025 222.140261 
L 209.703025 222.166983 
L 210.703025 222.176293 
L 211.703025 222.18874 
L 212.703025 222.199795 
L 213.703025 222.205459 
L 214.703025 222.210223 
L 215.703025 222.204676 
L 216.703025 222.191387 
L 217.703025 222.18387 
L 218.703025 222.159085 
L 219.703025 222.135516 
L 220.703025 222.099336 
L 221.703025 222.073374 
L 222.703025 222.051052 
L 223.703025 221.982292 
L 224.703025 221.907757 
L 225.703025 221.813778 
L 226.703025 221.762726 
L 227.703025 221.708792 
L 228.703025 221.673541 
L 229.703025 221.567453 
L 230.703025 221.515189 
L 231.703025 221.478282 
L 232.703025 221.447252 
L 233.703025 221.386096 
L 234.703025 221.318676 
L 235.703025 221.26977 
L 236.703025 221.204578 
L 237.703025 221.16639 
L 238.703025 221.124395 
L 239.703025 221.082377 
L 240.703025 221.022861 
L 241.703025 220.909701 
L 242.703025 220.85745 
L 243.703025 220.818032 
L 244.703025 220.770931 
L 245.703025 220.714152 
L 246.703025 220.681488 
L 247.703025 220.64531 
L 248.703025 220.61322 
L 249.703025 220.57894 
L 250.703025 220.520562 
L 251.703025 220.475377 
L 252.703025 220.445753 
L 253.703025 220.395367 
L 254.703025 220.37017 
L 255.703025 220.349119 
L 256.703025 220.314151 
L 257.703025 220.289861 
L 258.703025 220.275794 
L 259.703025 220.256852 
L 260.703025 220.241191 
L 261.703025 220.228639 
L 262.703025 220.222803 
L 263.703025 220.215921 
L 264.703025 220.210747 
L 265.703025 220.21253 
L 266.703025 220.215255 
L 267.703025 220.226409 
L 268.703025 220.254644 
L 269.703025 220.298432 
L 270.703025 220.319121 
L 271.703025 220.360094 
L 272.703025 220.400169 
L 273.703025 220.419279 
L 274.703025 220.441788 
L 275.703025 220.508439 
L 276.703025 220.558149 
L 277.703025 220.631855 
L 278.703025 220.663169 
L 279.703025 220.739791 
L 280.703025 220.778089 
L 281.703025 220.852206 
L 282.703025 220.956264 
L 283.703025 221.026095 
L 284.703025 221.131329 
L 285.703025 221.186344 
L 286.703025 221.309819 
L 287.703025 221.380378 
L 288.703025 221.496217 
L 289.703025 221.546398 
L 290.703025 221.582002 
L 291.703025 221.673409 
L 292.703025 221.726917 
L 293.703025 221.814825 
L 294.703025 221.88401 
L 295.703025 221.930774 
L 296.703025 222.002818 
L 297.703025 222.05296 
L 298.703025 222.07035 
L 299.703025 222.097353 
L 300.703025 222.11678 
L 301.703025 222.136119 
L 302.703025 222.174367 
L 303.703025 222.1908 
L 304.703025 222.199169 
L 305.703025 222.203488 
L 306.703025 222.210043 
L 307.703025 222.207497 
L 308.703025 222.202038 
L 309.703025 222.18561 
L 310.703025 222.153675 
L 311.703025 222.115695 
L 312.703025 222.080891 
L 313.703025 222.017819 
L 314.703025 221.996392 
L 315.703025 221.945774 
L 316.703025 221.920817 
L 317.703025 221.865184 
L 318.703025 221.833955 
L 319.703025 221.78381 
L 320.703025 221.751317 
L 321.703025 221.670905 
L 322.703025 221.601979 
L 323.703025 221.486282 
L 324.703025 221.410803 
L 325.703025 221.295278 
L 326.703025 221.215794 
L 327.703025 221.107353 
L 328.703025 221.067985 
L 329.703025 220.965117 
L 330.703025 220.865319 
L 331.703025 220.819822 
L 332.703025 220.7855 
L 333.703025 220.733544 
L 334.703025 220.693897 
L 335.703025 220.658383 
L 336.703025 220.590738 
L 337.703025 220.551656 
L 338.703025 220.501175 
L 339.703025 220.451869 
L 340.703025 220.4008 
L 341.703025 220.35656 
L 342.703025 220.33454 
L 343.703025 220.318984 
L 344.703025 220.276537 
L 345.703025 220.261669 
L 346.703025 220.238941 
L 347.703025 220.218625 
L 348.703025 220.212828 
L 349.703025 220.210346 
L 350.703025 220.213403 
L 351.703025 220.224999 
L 352.703025 220.241919 
L 353.703025 220.27358 
L 354.703025 220.287663 
L 355.703025 220.340335 
L 356.703025 220.389424 
L 357.703025 220.444125 
L 358.703025 220.488473 
L 359.703025 220.558465 
L 360.703025 220.608848 
L 361.703025 220.662755 
L 362.703025 220.732194 
L 363.703025 220.789582 
L 364.703025 220.839747 
L 365.703025 220.916909 
L 366.703025 220.975099 
L 367.703025 221.035737 
L 368.703025 221.072938 
L 369.703025 221.13803 
L 370.703025 221.24316 
L 371.703025 221.303462 
L 372.703025 221.399784 
L 373.703025 221.431787 
L 374.703025 221.482804 
L 375.703025 221.599596 
L 376.703025 221.635043 
L 377.703025 221.690923 
L 378.703025 221.721299 
L 379.703025 221.809685 
L 380.703025 221.854449 
L 381.703025 221.935337 
L 382.703025 221.995483 
L 383.703025 222.058569 
L 384.703025 222.081517 
L 385.703025 222.097687 
L 386.703025 222.126616 
L 387.703025 222.156968 
L 388.703025 222.169542 
L 389.703025 222.194421 
L 390.703025 222.206505 
L 391.703025 222.210267 
L 392.703025 222.205831 
L 393.703025 222.193492 
L 394.703025 222.179079 
L 395.703025 222.163006 
L 396.703025 222.127485 
L 397.703025 222.107551 
L 398.703025 222.050962 
L 399.703025 221.983768 
L 400.703025 221.956398 
L 401.703025 221.92225 
L 402.703025 221.87357 
L 403.703025 221.825285 
L 404.703025 221.766208 
L 405.703025 221.670603 
L 406.703025 221.627463 
L 407.703025 221.577615 
L 408.703025 221.519081 
L 409.703025 221.471495 
L 410.703025 221.410367 
L 411.703025 221.354282 
L 412.703025 221.280111 
L 413.703025 221.162873 
L 414.703025 221.107149 
L 415.703025 220.998923 
L 416.703025 220.892773 
L 417.703025 220.785201 
L 418.703025 220.750693 
L 419.703025 220.647386 
L 420.703025 220.571662 
L 421.703025 220.532227 
L 422.703025 220.492843 
L 423.703025 220.470361 
L 424.703025 220.414548 
L 425.703025 220.388496 
L 426.703025 220.358261 
L 427.703025 220.30749 
L 428.703025 220.288839 
L 429.703025 220.26713 
L 430.703025 220.254484 
L 431.703025 220.235491 
L 432.703025 220.218101 
L 433.703025 220.211063 
L 434.703025 220.212088 
L 435.703025 220.219091 
L 436.813188 220.228461 
" clip-path="url(#p5f3cce0873)" style="fill: none; stroke: #ffffff; stroke-width: 3; stroke-linecap: round"/>
          <path d="M 97.703025 221.210281 
L 98.703025 221.241717 
L 99.703025 221.278658 
L 100.703025 221.376404 
L 101.703025 221.408926 
L 102.703025 221.482551 
L 103.703025 221.521116 
L 104.703025 221.556529 
L 105.703025 221.614169 
L 106.703025 221.684556 
L 107.703025 221.73652 
L 108.703025 221.79561 
L 109.703025 221.88393 
L 110.703025 221.930075 
L 111.703025 221.972486 
L 112.703025 222.002978 
L 113.703025 222.029023 
L 114.703025 222.050223 
L 115.703025 222.104525 
L 116.703025 222.132462 
L 117.703025 222.162186 
L 118.703025 222.187581 
L 119.703025 222.198781 
L 120.703025 222.208905 
L 121.703025 222.208701 
L 122.703025 222.199191 
L 123.703025 222.187537 
L 124.703025 222.156508 
L 125.703025 222.14534 
L 126.703025 222.115223 
L 127.703025 222.055446 
L 128.703025 222.018254 
L 129.703025 221.979158 
L 130.703025 221.936718 
L 131.703025 221.903953 
L 132.703025 221.836527 
L 133.703025 221.797401 
L 134.703025 221.754727 
L 135.703025 221.684146 
L 136.703025 221.647755 
L 137.703025 221.589352 
L 138.703025 221.478399 
L 139.703025 221.407741 
L 140.703025 221.294801 
L 141.703025 221.249028 
L 142.703025 221.187745 
L 143.703025 221.139246 
L 144.703025 221.058423 
L 145.703025 220.939904 
L 146.703025 220.869693 
L 147.703025 220.786431 
L 148.703025 220.753289 
L 149.703025 220.702052 
L 150.703025 220.633654 
L 151.703025 220.567438 
L 152.703025 220.490521 
L 153.703025 220.463206 
L 154.703025 220.436728 
L 155.703025 220.414077 
L 156.703025 220.394546 
L 157.703025 220.368152 
L 158.703025 220.318381 
L 159.703025 220.283308 
L 160.703025 220.247442 
L 161.703025 220.232075 
L 162.703025 220.216306 
L 163.703025 220.212893 
L 164.703025 220.210476 
L 165.703025 220.210962 
L 166.703025 220.212891 
L 167.703025 220.226148 
L 168.703025 220.234539 
L 169.703025 220.256075 
L 170.703025 220.279108 
L 171.703025 220.296341 
L 172.703025 220.314804 
L 173.703025 220.335256 
L 174.703025 220.351856 
L 175.703025 220.414635 
L 176.703025 220.4899 
L 177.703025 220.522539 
L 178.703025 220.590103 
L 179.703025 220.64415 
L 180.703025 220.677854 
L 181.703025 220.76798 
L 182.703025 220.796515 
L 183.703025 220.828001 
L 184.703025 220.859012 
L 185.703025 220.91382 
L 186.703025 220.978407 
L 187.703025 221.016603 
L 188.703025 221.112537 
L 189.703025 221.161795 
L 190.703025 221.205864 
L 191.703025 221.245988 
L 192.703025 221.354355 
L 193.703025 221.395983 
L 194.703025 221.458125 
L 195.703025 221.528087 
L 196.703025 221.632591 
L 197.703025 221.669579 
L 198.703025 221.715456 
L 199.703025 221.783951 
L 200.703025 221.832697 
L 201.703025 221.910294 
L 202.703025 221.940835 
L 203.703025 222.010349 
L 204.703025 222.034322 
L 205.703025 222.062944 
L 206.703025 222.104737 
L 207.703025 222.126313 
L 208.703025 222.140261 
L 209.703025 222.166983 
L 210.703025 222.176293 
L 211.703025 222.18874 
L 212.703025 222.199795 
L 213.703025 222.205459 
L 214.703025 222.210223 
L 215.703025 222.204676 
L 216.703025 222.191387 
L 217.703025 222.18387 
L 218.703025 222.159085 
L 219.703025 222.135516 
L 220.703025 222.099336 
L 221.703025 222.073374 
L 222.703025 222.051052 
L 223.703025 221.982292 
L 224.703025 221.907757 
L 225.703025 221.813778 
L 226.703025 221.762726 
L 227.703025 221.708792 
L 228.703025 221.673541 
L 229.703025 221.567453 
L 230.703025 221.515189 
L 231.703025 221.478282 
L 232.703025 221.447252 
L 233.703025 221.386096 
L 234.703025 221.318676 
L 235.703025 221.26977 
L 236.703025 221.204578 
L 237.703025 221.16639 
L 238.703025 221.124395 
L 239.703025 221.082377 
L 240.703025 221.022861 
L 241.703025 220.909701 
L 242.703025 220.85745 
L 243.703025 220.818032 
L 244.703025 220.770931 
L 245.703025 220.714152 
L 246.703025 220.681488 
L 247.703025 220.64531 
L 248.703025 220.61322 
L 249.703025 220.57894 
L 250.703025 220.520562 
L 251.703025 220.475377 
L 252.703025 220.445753 
L 253.703025 220.395367 
L 254.703025 220.37017 
L 255.703025 220.349119 
L 256.703025 220.314151 
L 257.703025 220.289861 
L 258.703025 220.275794 
L 259.703025 220.256852 
L 260.703025 220.241191 
L 261.703025 220.228639 
L 262.703025 220.222803 
L 263.703025 220.215921 
L 264.703025 220.210747 
L 265.703025 220.21253 
L 266.703025 220.215255 
L 267.703025 220.226409 
L 268.703025 220.254644 
L 269.703025 220.298432 
L 270.703025 220.319121 
L 271.703025 220.360094 
L 272.703025 220.400169 
L 273.703025 220.419279 
L 274.703025 220.441788 
L 275.703025 220.508439 
L 276.703025 220.558149 
L 277.703025 220.631855 
L 278.703025 220.663169 
L 279.703025 220.739791 
L 280.703025 220.778089 
L 281.703025 220.852206 
L 282.703025 220.956264 
L 283.703025 221.026095 
L 284.703025 221.131329 
L 285.703025 221.186344 
L 286.703025 221.309819 
L 287.703025 221.380378 
L 288.703025 221.496217 
L 289.703025 221.546398 
L 290.703025 221.582002 
L 291.703025 221.673409 
L 292.703025 221.726917 
L 293.703025 221.814825 
L 294.703025 221.88401 
L 295.703025 221.930774 
L 296.703025 222.002818 
L 297.703025 222.05296 
L 298.703025 222.07035 
L 299.703025 222.097353 
L 300.703025 222.11678 
L 301.703025 222.136119 
L 302.703025 222.174367 
L 303.703025 222.1908 
L 304.703025 222.199169 
L 305.703025 222.203488 
L 306.703025 222.210043 
L 307.703025 222.207497 
L 308.703025 222.202038 
L 309.703025 222.18561 
L 310.703025 222.153675 
L 311.703025 222.115695 
L 312.703025 222.080891 
L 313.703025 222.017819 
L 314.703025 221.996392 
L 315.703025 221.945774 
L 316.703025 221.920817 
L 317.703025 221.865184 
L 318.703025 221.833955 
L 319.703025 221.78381 
L 320.703025 221.751317 
L 321.703025 221.670905 
L 322.703025 221.601979 
L 323.703025 221.486282 
L 324.703025 221.410803 
L 325.703025 221.295278 
L 326.703025 221.215794 
L 327.703025 221.107353 
L 328.703025 221.067985 
L 329.703025 220.965117 
L 330.703025 220.865319 
L 331.703025 220.819822 
L 332.703025 220.7855 
L 333.703025 220.733544 
L 334.703025 220.693897 
L 335.703025 220.658383 
L 336.703025 220.590738 
L 337.703025 220.551656 
L 338.703025 220.501175 
L 339.703025 220.451869 
L 340.703025 220.4008 
L 341.703025 220.35656 
L 342.703025 220.33454 
L 343.703025 220.318984 
L 344.703025 220.276537 
L 345.703025 220.261669 
L 346.703025 220.238941 
L 347.703025 220.218625 
L 348.703025 220.212828 
L 349.703025 220.210346 
L 350.703025 220.213403 
L 351.703025 220.224999 
L 352.703025 220.241919 
L 353.703025 220.27358 
L 354.703025 220.287663 
L 355.703025 220.340335 
L 356.703025 220.389424 
L 357.703025 220.444125 
L 358.703025 220.488473 
L 359.703025 220.558465 
L 360.703025 220.608848 
L 361.703025 220.662755 
L 362.703025 220.732194 
L 363.703025 220.789582 
L 364.703025 220.839747 
L 365.703025 220.916909 
L 366.703025 220.975099 
L 367.703025 221.035737 
L 368.703025 221.072938 
L 369.703025 221.13803 
L 370.703025 221.24316 
L 371.703025 221.303462 
L 372.703025 221.399784 
L 373.703025 221.431787 
L 374.703025 221.482804 
L 375.703025 221.599596 
L 376.703025 221.635043 
L 377.703025 221.690923 
L 378.703025 221.721299 
L 379.703025 221.809685 
L 380.703025 221.854449 
L 381.703025 221.935337 
L 382.703025 221.995483 
L 383.703025 222.058569 
L 384.703025 222.081517 
L 385.703025 222.097687 
L 386.703025 222.126616 
L 387.703025 222.156968 
L 388.703025 222.169542 
L 389.703025 222.194421 
L 390.703025 222.206505 
L 391.703025 222.210267 
L 392.703025 222.205831 
L 393.703025 222.193492 
L 394.703025 222.179079 
L 395.703025 222.163006 
L 396.703025 222.127485 
L 397.703025 222.107551 
L 398.703025 222.050962 
L 399.703025 221.983768 
L 400.703025 221.956398 
L 401.703025 221.92225 
L 402.703025 221.87357 
L 403.703025 221.825285 
L 404.703025 221.766208 
L 405.703025 221.670603 
L 406.703025 221.627463 
L 407.703025 221.577615 
L 408.703025 221.519081 
L 409.703025 221.471495 
L 410.703025 221.410367 
L 411.703025 221.354282 
L 412.703025 221.280111 
L 413.703025 221.162873 
L 414.703025 221.107149 
L 415.703025 220.998923 
L 416.703025 220.892773 
L 417.703025 220.785201 
L 418.703025 220.750693 
L 419.703025 220.647386 
L 420.703025 220.571662 
L 421.703025 220.532227 
L 422.703025 220.492843 
L 423.703025 220.470361 
L 424.703025 220.414548 
L 425.703025 220.388496 
L 426.703025 220.358261 
L 427.703025 220.30749 
L 428.703025 220.288839 
L 429.703025 220.26713 
L 430.703025 220.254484 
L 431.703025 220.235491 
L 432.703025 220.218101 
L 433.703025 220.211063 
L 434.703025 220.212088 
L 435.703025 220.219091 
L 436.813188 220.228461 
" clip-path="url(#p5f3cce0873)" style="fill: none; stroke: #ff7f0e; stroke-linecap: round"/>
          <path d="M 432.813188 219.210281 
L 433.693556 219.685612 
L 434.571463 220.165866 
L 435.422177 220.700507 
L 436.724351 221.387954 
L 435.796998 221.413969 
L 434.885324 221.826689 
L 433.975059 222.242228 
L 432.632564 222.849032 
L 433.287462 222.210281 
L 433.339427 221.210281 
L 433.398516 219.210281 
z
" clip-path="url(#p5f3cce0873)" style="fill: #ffffff; stroke: #ffffff; stroke-width: 3; stroke-linecap: round"/>
          <path d="M 432.813188 219.210281 
L 433.693556 219.685612 
L 434.571463 220.165866 
L 435.422177 220.700507 
L 436.724351 221.387954 
L 435.796998 221.413969 
L 434.885324 221.826689 
L 433.975059 222.242228 
L 432.632564 222.849032 
L 433.287462 222.210281 
L 433.339427 221.210281 
L 433.398516 219.210281 
z
" clip-path="url(#p5f3cce0873)" style="fill: #ffffff; stroke: #ff7f0e; stroke-linecap: round"/>
          <path d="M 446.255714 306.684892 
" clip-path="url(#p5f3cce0873)" style="fill: none; stroke-dasharray: 3.7,1.6; stroke-dashoffset: 0; stroke: #2ca02c"/>
          <path d="M 445.255714 306.684892 
L 447.255714 307.684892 
L 447.255714 305.684892 
z
" clip-path="url(#p5f3cce0873)" style="fill: #2ca02c; stroke: #2ca02c; stroke-linejoin: miter"/>
          <g id="patch_10">
           <path d="M 63.290625 321.621875 
L 63.290625 10.8 
" style="fill: none; stroke: #000000; stroke-width: 0.8; stroke-linejoin: miter; stroke-linecap: square"/>
          </g>
          <g id="text_11">
           <g id="patch_11">
            <path d="M 291.576121 112.408545 
L 312.880808 112.408545 
Q 314.880808 112.408545 314.880808 110.408545 
L 314.880808 100.73042 
Q 314.880808 98.73042 312.880808 98.73042 
L 291.576121 98.73042 
Q 289.576121 98.73042 289.576121 100.73042 
L 289.576121 110.408545 
Q 289.576121 112.408545 291.576121 112.408545 
z
" style="fill: #ffffff; opacity: 0.6"/>
           </g>
           <!-- ANC -->
           <g transform="translate(291.576121 108.328858) scale(0.1 -0.1)">
            <defs>
             <path id="DejaVuSans-4e" d="M 628 4666 
L 1478 4666 
L 3547 763 
L 3547 4666 
L 4159 4666 
L 4159 0 
L 3309 0 
L 1241 3903 
L 1241 0 
L 628 0 
L 628 4666 
z
" transform="scale(0.015625)"/>
            </defs>
            <use xlink:href="#DejaVuSans-41"/>
            <use xlink:href="#DejaVuSans-4e" x="68.408203"/>
            <use xlink:href="#DejaVuSans-43" x="143.212891"/>
           </g>
          </g>
         </g>
        </g>
        <defs>
         <clipPath id="p5f3cce0873">
          <rect x="63.290625" y="10.8" width="540.309375" height="310.821875"/>
         </clipPath>
        </defs>
       </g>
      </g>
     </g>
    </g>
   </g>
  </g>
 </g>
</svg>
