<?xml version="1.0" encoding="utf-8" standalone="no"?>
<!DOCTYPE svg PUBLIC "-//W3C//DTD SVG 1.1//EN"
  "http://www.w3.org/Graphics/SVG/1.1/DTD/svg11.dtd">
<svg xmlns:xlink="http://www.w3.org/1999/xlink" width="614.4pt" height="345.6pt" viewBox="0 0 614.4 345.6" xmlns="http://www.w3.org/2000/svg" version="1.1">
 <metadata>
  <rdf:RDF xmlns:dc="http://purl.org/dc/elements/1.1/" xmlns:cc="http://creativecommons.org/ns#" xmlns:rdf="http://www.w3.org/1999/02/22-rdf-syntax-ns#">
   <cc:Work>
    <dc:type rdf:resource="http://purl.org/dc/dcmitype/StillImage"/>
    <dc:date>2024-04-17T19:39:58.279637</dc:date>
    <dc:format>image/svg+xml</dc:format>
    <dc:creator>
     <cc:Agent>
      <dc:title>Matplotlib v3.7.1, https://matplotlib.org/</dc:title>
     </cc:Agent>
    </dc:creator>
   </cc:Work>
  </rdf:RDF>
 </metadata>
 <defs>
  <style type="text/css">*{stroke-linejoin: round; stroke-linecap: butt}</style>
 </defs>
 <g id="figure_1">
  <g id="patch_1">
   <path d="M 0 345.6 
L 614.4 345.6 
L 614.4 0 
L 0 0 
z
" style="fill: #ffffff"/>
  </g>
  <g id="axes_1">
   <g id="patch_2">
    <path d="M 63.290625 321.621875 
L 603.6 321.621875 
L 603.6 10.8 
L 63.290625 10.8 
z
" style="fill: #ffffff"/>
   </g>
   <path d="M 542.788236 298.322481 
L 541.788236 298.291045 
L 540.788236 298.254105 
L 539.788236 298.156358 
L 538.788236 298.123837 
L 537.788236 298.050212 
L 536.788236 298.011646 
L 535.788236 297.976233 
L 534.788236 297.918593 
L 533.788236 297.848207 
L 532.788236 297.796243 
L 531.788236 297.737153 
L 530.788236 297.648832 
L 529.788236 297.602688 
L 528.788236 297.560277 
L 527.788236 297.529784 
L 526.788236 297.503739 
L 525.788236 297.482539 
L 524.788236 297.428238 
L 523.788236 297.4003 
L 522.788236 297.370576 
L 521.788236 297.345182 
L 520.788236 297.333981 
L 519.788236 297.323857 
L 518.788236 297.324062 
L 517.788236 297.333571 
L 516.788236 297.345225 
L 515.788236 297.376254 
L 514.788236 297.387422 
L 513.788236 297.41754 
L 512.788236 297.477317 
L 511.788236 297.514508 
L 510.788236 297.553604 
L 509.788236 297.596044 
L 508.788236 297.628809 
L 507.788236 297.696236 
L 506.788236 297.735361 
L 505.788236 297.778036 
L 504.788236 297.848617 
L 503.788236 297.885007 
L 502.788236 297.943411 
L 501.788236 298.054363 
L 500.788236 298.125022 
L 499.788236 298.237961 
L 498.788236 298.283734 
L 497.788236 298.345017 
L 496.788236 298.393517 
L 495.788236 298.474339 
L 494.788236 298.592858 
L 493.788236 298.663069 
L 492.788236 298.746332 
L 491.788236 298.779473 
L 490.788236 298.830711 
L 489.788236 298.899109 
L 488.788236 298.965324 
L 487.788236 299.042241 
L 486.788236 299.069557 
L 485.788236 299.096034 
L 484.788236 299.118685 
L 483.788236 299.138216 
L 482.788236 299.16461 
L 481.788236 299.214381 
L 480.788236 299.249454 
L 479.788236 299.28532 
L 478.788236 299.300687 
L 477.788236 299.316457 
L 476.788236 299.319869 
L 475.788236 299.322287 
L 474.788236 299.321801 
L 473.788236 299.319871 
L 472.788236 299.306614 
L 471.788236 299.298224 
L 470.788236 299.276687 
L 469.788236 299.253655 
L 468.788236 299.236421 
L 467.788236 299.217959 
L 466.788236 299.197506 
L 465.788236 299.180906 
L 464.788236 299.118128 
L 463.788236 299.042863 
L 462.788236 299.010223 
L 461.788236 298.94266 
L 460.788236 298.888613 
L 459.788236 298.854908 
L 458.788236 298.764782 
L 457.788236 298.736247 
L 456.788236 298.704761 
L 455.788236 298.67375 
L 454.788236 298.618943 
L 453.788236 298.554355 
L 452.788236 298.51616 
L 451.788236 298.420226 
L 450.788236 298.370968 
L 449.788236 298.326898 
L 448.788236 298.286774 
L 447.788236 298.178407 
L 446.420547 298.136779 
" clip-path="url(#p472c79280e)" style="fill: none; stroke-dasharray: 3.7,1.6; stroke-dashoffset: 0; stroke: #2ca02c"/>
   <g id="patch_3">
    <path d="M 285.43654 10.8 
L 285.43654 283.480654 
M 339.688654 10.8 
L 339.688654 283.480654 
" clip-path="url(#p472c79280e)" style="fill: none; stroke: #ffffff; stroke-width: 3; stroke-linejoin: miter"/>
    <path d="M 285.43654 10.8 
L 285.43654 283.480654 
M 339.688654 10.8 
L 339.688654 283.480654 
" clip-path="url(#p472c79280e)" style="fill: none; stroke: #1f77b4; stroke-linejoin: miter"/>
    <g id="PolyCollection_1">
     <path d="M 339.688654 10.8 
L 285.43654 10.8 
L 285.43654 283.480654 
L 339.688654 283.480654 
L 339.688654 283.480654 
L 339.688654 10.8 
z
" clip-path="url(#p472c79280e)" style="fill: #1f77b4; fill-opacity: 0.5"/>
    </g>
    <g id="patch_4">
     <path d="M 111.986853 283.480654 
L 111.986853 311.584046 
L 111.986853 311.584046 
L 109.787821 313.104929 
L 107.195185 314.625812 
L 104.138492 316.146696 
L 100.793833 317.566187 
L 96.893562 318.985678 
L 92.345383 320.405168 
L 87.850142 321.621875 
M 136.558377 283.480654 
L 136.558377 311.584046 
L 136.558377 311.584046 
L 138.757408 313.104929 
L 141.350045 314.625812 
L 144.406737 316.146696 
L 147.751397 317.566187 
L 151.651667 318.985678 
L 156.199847 320.405168 
L 160.695088 321.621875 
L 160.695088 321.621875 
" clip-path="url(#p472c79280e)" style="fill: none; stroke: #ffffff; stroke-width: 3; stroke-linejoin: miter"/>
     <path d="M 111.986853 283.480654 
L 111.986853 311.584046 
L 111.986853 311.584046 
L 109.787821 313.104929 
L 107.195185 314.625812 
L 104.138492 316.146696 
L 100.793833 317.566187 
L 96.893562 318.985678 
L 92.345383 320.405168 
L 87.850142 321.621875 
M 136.558377 283.480654 
L 136.558377 311.584046 
L 136.558377 311.584046 
L 138.757408 313.104929 
L 141.350045 314.625812 
L 144.406737 316.146696 
L 147.751397 317.566187 
L 151.651667 318.985678 
L 156.199847 320.405168 
L 160.695088 321.621875 
L 160.695088 321.621875 
" clip-path="url(#p472c79280e)" style="fill: none; stroke: #ff7f0e; stroke-linejoin: miter"/>
     <g id="PolyCollection_2">
      <path d="M 136.558377 283.480654 
L 111.986853 283.480654 
L 111.986853 311.584046 
L 111.986853 311.584046 
L 111.851246 311.685438 
L 111.714143 311.786831 
L 111.575526 311.888223 
L 111.43538 311.989615 
L 111.293686 312.091007 
L 111.150429 312.192399 
L 111.00559 312.293792 
L 110.859153 312.395184 
L 110.711099 312.496576 
L 110.561411 312.597968 
L 110.410071 312.69936 
L 110.257061 312.800753 
L 110.102361 312.902145 
L 109.945955 313.003537 
L 109.787821 313.104929 
L 109.627943 313.206322 
L 109.466299 313.307714 
L 109.302872 313.409106 
L 109.13764 313.510498 
L 108.970585 313.61189 
L 108.801686 313.713283 
L 108.630923 313.814675 
L 108.458274 313.916067 
L 108.283721 314.017459 
L 108.10724 314.118851 
L 107.928812 314.220244 
L 107.748414 314.321636 
L 107.566025 314.423028 
L 107.381623 314.52442 
L 107.195185 314.625812 
L 107.00669 314.727205 
L 106.816114 314.828597 
L 106.623434 314.929989 
L 106.428628 315.031381 
L 106.231672 315.132774 
L 106.032541 315.234166 
L 105.831213 315.335558 
L 105.627662 315.43695 
L 105.421865 315.538342 
L 105.213796 315.639735 
L 105.003431 315.741127 
L 104.790744 315.842519 
L 104.575709 315.943911 
L 104.3583 316.045303 
L 104.138492 316.146696 
L 103.916258 316.248088 
L 103.691571 316.34948 
L 103.464404 316.450872 
L 103.234729 316.552264 
L 103.002519 316.653657 
L 102.767746 316.755049 
L 102.530382 316.856441 
L 102.290398 316.957833 
L 102.047765 317.059226 
L 101.802454 317.160618 
L 101.554436 317.26201 
L 101.303679 317.363402 
L 101.050155 317.464794 
L 100.793833 317.566187 
L 100.534681 317.667579 
L 100.272669 317.768971 
L 100.007765 317.870363 
L 99.739937 317.971755 
L 99.469153 318.073148 
L 99.19538 318.17454 
L 98.918586 318.275932 
L 98.638736 318.377324 
L 98.355797 318.478716 
L 98.069735 318.580109 
L 97.780516 318.681501 
L 97.488104 318.782893 
L 97.192465 318.884285 
L 96.893562 318.985678 
L 96.591361 319.08707 
L 96.285824 319.188462 
L 95.976914 319.289854 
L 95.664595 319.391246 
L 95.348828 319.492639 
L 95.029576 319.594031 
L 94.706801 319.695423 
L 94.380462 319.796815 
L 94.050522 319.898207 
L 93.71694 319.9996 
L 93.379676 320.100992 
L 93.038689 320.202384 
L 92.693939 320.303776 
L 92.345383 320.405168 
L 91.99298 320.506561 
L 91.636687 320.607953 
L 91.276462 320.709345 
L 90.912261 320.810737 
L 90.544039 320.91213 
L 90.171754 321.013522 
L 89.795359 321.114914 
L 89.414809 321.216306 
L 89.03006 321.317698 
L 88.641063 321.419091 
L 88.247773 321.520483 
L 87.850142 321.621875 
L 160.695088 321.621875 
L 160.695088 321.621875 
L 160.297456 321.520483 
L 159.904166 321.419091 
L 159.51517 321.317698 
L 159.13042 321.216306 
L 158.749871 321.114914 
L 158.373476 321.013522 
L 158.00119 320.91213 
L 157.632969 320.810737 
L 157.268768 320.709345 
L 156.908542 320.607953 
L 156.55225 320.506561 
L 156.199847 320.405168 
L 155.851291 320.303776 
L 155.506541 320.202384 
L 155.165554 320.100992 
L 154.82829 319.9996 
L 154.494708 319.898207 
L 154.164767 319.796815 
L 153.838429 319.695423 
L 153.515653 319.594031 
L 153.196401 319.492639 
L 152.880635 319.391246 
L 152.568316 319.289854 
L 152.259406 319.188462 
L 151.953869 319.08707 
L 151.651667 318.985678 
L 151.352765 318.884285 
L 151.057126 318.782893 
L 150.764714 318.681501 
L 150.475495 318.580109 
L 150.189433 318.478716 
L 149.906494 318.377324 
L 149.626644 318.275932 
L 149.349849 318.17454 
L 149.076076 318.073148 
L 148.805292 317.971755 
L 148.537464 317.870363 
L 148.27256 317.768971 
L 148.010548 317.667579 
L 147.751397 317.566187 
L 147.495074 317.464794 
L 147.24155 317.363402 
L 146.990794 317.26201 
L 146.742775 317.160618 
L 146.497464 317.059226 
L 146.254831 316.957833 
L 146.014847 316.856441 
L 145.777483 316.755049 
L 145.54271 316.653657 
L 145.310501 316.552264 
L 145.080826 316.450872 
L 144.853659 316.34948 
L 144.628972 316.248088 
L 144.406737 316.146696 
L 144.186929 316.045303 
L 143.969521 315.943911 
L 143.754486 315.842519 
L 143.541799 315.741127 
L 143.331433 315.639735 
L 143.123365 315.538342 
L 142.917567 315.43695 
L 142.714017 315.335558 
L 142.512688 315.234166 
L 142.313558 315.132774 
L 142.116602 315.031381 
L 141.921795 314.929989 
L 141.729116 314.828597 
L 141.53854 314.727205 
L 141.350045 314.625812 
L 141.163607 314.52442 
L 140.979205 314.423028 
L 140.796816 314.321636 
L 140.616418 314.220244 
L 140.437989 314.118851 
L 140.261509 314.017459 
L 140.086955 313.916067 
L 139.914307 313.814675 
L 139.743544 313.713283 
L 139.574645 313.61189 
L 139.407589 313.510498 
L 139.242358 313.409106 
L 139.07893 313.307714 
L 138.917287 313.206322 
L 138.757408 313.104929 
L 138.599275 313.003537 
L 138.442868 312.902145 
L 138.288169 312.800753 
L 138.135158 312.69936 
L 137.983818 312.597968 
L 137.83413 312.496576 
L 137.686077 312.395184 
L 137.539639 312.293792 
L 137.394801 312.192399 
L 137.251543 312.091007 
L 137.10985 311.989615 
L 136.969703 311.888223 
L 136.831087 311.786831 
L 136.693984 311.685438 
L 136.558377 311.584046 
L 136.558377 311.584046 
L 136.558377 283.480654 
z
" clip-path="url(#p472c79280e)" style="fill: #ff7f0e; fill-opacity: 0.5"/>
     </g>
     <g id="patch_5">
      <path d="M 548.19133 72.964375 
L 548.19133 321.621875 
M 579.040483 72.964375 
L 579.040483 321.621875 
" clip-path="url(#p472c79280e)" style="fill: none; stroke: #ffffff; stroke-width: 3; stroke-linejoin: miter"/>
      <path d="M 548.19133 72.964375 
L 548.19133 321.621875 
M 579.040483 72.964375 
L 579.040483 321.621875 
" clip-path="url(#p472c79280e)" style="fill: none; stroke: #2ca02c; stroke-linejoin: miter"/>
      <g id="PolyCollection_3">
       <path d="M 579.040483 72.964375 
L 548.19133 72.964375 
L 548.19133 321.621875 
L 579.040483 321.621875 
L 579.040483 321.621875 
L 579.040483 72.964375 
z
" clip-path="url(#p472c79280e)" style="fill: #2ca02c; fill-opacity: 0.5"/>
      </g>
      <g id="patch_6">
       <path d="M 435.161051 286.641179 
L 435.161051 287.4882 
L 436.947865 287.4882 
L 436.947865 288.474284 
L 435.161051 288.474284 
L 435.063892 301.68643 
L 434.161117 303.313813 
L 432.988952 304.941196 
L 431.679682 306.365157 
L 430.034317 307.789117 
L 428.291668 309.009655 
L 426.172003 310.230192 
L 423.593759 311.450729 
L 420.457723 312.671267 
L 416.643219 313.891804 
L 412.003464 315.112342 
L 406.359918 316.332879 
L 399.495416 317.553417 
L 391.14581 318.773954 
L 380.989802 319.994492 
L 368.636587 321.215029 
L 363.951187 321.621875 
M 441.017453 286.641179 
L 441.017453 287.4882 
L 439.230639 287.4882 
L 439.230639 288.474284 
L 441.017453 288.474284 
L 441.114612 301.68643 
L 442.017387 303.313813 
L 443.189552 304.941196 
L 444.498821 306.365157 
L 446.144186 307.789117 
L 447.886836 309.009655 
L 450.0065 310.230192 
L 452.584745 311.450729 
L 455.720781 312.671267 
L 459.535285 313.891804 
L 464.17504 315.112342 
L 469.818585 316.332879 
L 476.683087 317.553417 
L 485.032694 318.773954 
L 495.188701 319.994492 
L 507.541917 321.215029 
L 512.227316 321.621875 
L 512.227316 321.621875 
" clip-path="url(#p472c79280e)" style="fill: none; stroke: #ffffff; stroke-width: 3; stroke-linejoin: miter"/>
       <path d="M 435.161051 286.641179 
L 435.161051 287.4882 
L 436.947865 287.4882 
L 436.947865 288.474284 
L 435.161051 288.474284 
L 435.063892 301.68643 
L 434.161117 303.313813 
L 432.988952 304.941196 
L 431.679682 306.365157 
L 430.034317 307.789117 
L 428.291668 309.009655 
L 426.172003 310.230192 
L 423.593759 311.450729 
L 420.457723 312.671267 
L 416.643219 313.891804 
L 412.003464 315.112342 
L 406.359918 316.332879 
L 399.495416 317.553417 
L 391.14581 318.773954 
L 380.989802 319.994492 
L 368.636587 321.215029 
L 363.951187 321.621875 
M 441.017453 286.641179 
L 441.017453 287.4882 
L 439.230639 287.4882 
L 439.230639 288.474284 
L 441.017453 288.474284 
L 441.114612 301.68643 
L 442.017387 303.313813 
L 443.189552 304.941196 
L 444.498821 306.365157 
L 446.144186 307.789117 
L 447.886836 309.009655 
L 450.0065 310.230192 
L 452.584745 311.450729 
L 455.720781 312.671267 
L 459.535285 313.891804 
L 464.17504 315.112342 
L 469.818585 316.332879 
L 476.683087 317.553417 
L 485.032694 318.773954 
L 495.188701 319.994492 
L 507.541917 321.215029 
L 512.227316 321.621875 
L 512.227316 321.621875 
" clip-path="url(#p472c79280e)" style="fill: none; stroke: #d62728; stroke-linejoin: miter"/>
       <g id="PolyCollection_4">
        <path d="M 441.017453 286.641179 
L 435.161051 286.641179 
L 435.161051 287.4882 
L 436.947865 287.4882 
L 436.947865 288.474284 
L 435.161051 288.474284 
L 435.161051 301.483007 
L 435.161051 301.483007 
L 435.063892 301.68643 
L 434.963509 301.889853 
L 434.859796 302.093276 
L 434.752641 302.296698 
L 434.641931 302.500121 
L 434.527547 302.703544 
L 434.409368 302.906967 
L 434.287268 303.11039 
L 434.161117 303.313813 
L 434.03078 303.517236 
L 433.896118 303.720659 
L 433.756988 303.924082 
L 433.613242 304.127505 
L 433.464726 304.330928 
L 433.311282 304.534351 
L 433.152747 304.737773 
L 432.988952 304.941196 
L 432.819722 305.144619 
L 432.644877 305.348042 
L 432.46423 305.551465 
L 432.27759 305.754888 
L 432.084756 305.958311 
L 431.885525 306.161734 
L 431.679682 306.365157 
L 431.46701 306.56858 
L 431.247281 306.772003 
L 431.020262 306.975425 
L 430.78571 307.178848 
L 430.543375 307.382271 
L 430.293 307.585694 
L 430.034317 307.789117 
L 429.767051 307.99254 
L 429.490917 308.195963 
L 429.205621 308.399386 
L 428.910858 308.602809 
L 428.606315 308.806232 
L 428.291668 309.009655 
L 427.96658 309.213077 
L 427.630705 309.4165 
L 427.283686 309.619923 
L 426.925153 309.823346 
L 426.554724 310.026769 
L 426.172003 310.230192 
L 425.776584 310.433615 
L 425.368045 310.637038 
L 424.94595 310.840461 
L 424.50985 311.043884 
L 424.059279 311.247307 
L 423.593759 311.450729 
L 423.112793 311.654152 
L 422.615867 311.857575 
L 422.102454 312.060998 
L 421.572005 312.264421 
L 421.023956 312.467844 
L 420.457723 312.671267 
L 419.872701 312.87469 
L 419.268269 313.078113 
L 418.643781 313.281536 
L 417.998572 313.484959 
L 417.331955 313.688381 
L 416.643219 313.891804 
L 415.931631 314.095227 
L 415.196432 314.29865 
L 414.436838 314.502073 
L 413.652041 314.705496 
L 412.841205 314.908919 
L 412.003464 315.112342 
L 411.137927 315.315765 
L 410.243671 315.519188 
L 409.319743 315.722611 
L 408.365158 315.926034 
L 407.378901 316.129456 
L 406.359918 316.332879 
L 405.307126 316.536302 
L 404.219401 316.739725 
L 403.095586 316.943148 
L 401.934481 317.146571 
L 400.734851 317.349994 
L 399.495416 317.553417 
L 398.214857 317.75684 
L 396.891808 317.960263 
L 395.52486 318.163686 
L 394.112555 318.367108 
L 392.65339 318.570531 
L 391.14581 318.773954 
L 389.588207 318.977377 
L 387.978922 319.1808 
L 386.31624 319.384223 
L 384.59839 319.587646 
L 382.823541 319.791069 
L 380.989802 319.994492 
L 379.095219 320.197915 
L 377.137772 320.401338 
L 375.115377 320.60476 
L 373.025877 320.808183 
L 370.867048 321.011606 
L 368.636587 321.215029 
L 366.332119 321.418452 
L 363.951187 321.621875 
L 512.227316 321.621875 
L 512.227316 321.621875 
L 509.846385 321.418452 
L 507.541917 321.215029 
L 505.311456 321.011606 
L 503.152626 320.808183 
L 501.063127 320.60476 
L 499.040731 320.401338 
L 497.083285 320.197915 
L 495.188701 319.994492 
L 493.354962 319.791069 
L 491.580113 319.587646 
L 489.862263 319.384223 
L 488.199582 319.1808 
L 486.590297 318.977377 
L 485.032694 318.773954 
L 483.525113 318.570531 
L 482.065948 318.367108 
L 480.653644 318.163686 
L 479.286696 317.960263 
L 477.963647 317.75684 
L 476.683087 317.553417 
L 475.443653 317.349994 
L 474.244022 317.146571 
L 473.082918 316.943148 
L 471.959102 316.739725 
L 470.871378 316.536302 
L 469.818585 316.332879 
L 468.799603 316.129456 
L 467.813345 315.926034 
L 466.858761 315.722611 
L 465.934833 315.519188 
L 465.040577 315.315765 
L 464.17504 315.112342 
L 463.337299 314.908919 
L 462.526462 314.705496 
L 461.741665 314.502073 
L 460.982072 314.29865 
L 460.246873 314.095227 
L 459.535285 313.891804 
L 458.846549 313.688381 
L 458.179932 313.484959 
L 457.534723 313.281536 
L 456.910235 313.078113 
L 456.305802 312.87469 
L 455.720781 312.671267 
L 455.154547 312.467844 
L 454.606498 312.264421 
L 454.076049 312.060998 
L 453.562636 311.857575 
L 453.065711 311.654152 
L 452.584745 311.450729 
L 452.119224 311.247307 
L 451.668654 311.043884 
L 451.232554 310.840461 
L 450.810459 310.637038 
L 450.401919 310.433615 
L 450.0065 310.230192 
L 449.62378 310.026769 
L 449.25335 309.823346 
L 448.894817 309.619923 
L 448.547798 309.4165 
L 448.211924 309.213077 
L 447.886836 309.009655 
L 447.572188 308.806232 
L 447.267645 308.602809 
L 446.972883 308.399386 
L 446.687586 308.195963 
L 446.411452 307.99254 
L 446.144186 307.789117 
L 445.885503 307.585694 
L 445.635128 307.382271 
L 445.392794 307.178848 
L 445.158242 306.975425 
L 444.931222 306.772003 
L 444.711493 306.56858 
L 444.498821 306.365157 
L 444.292979 306.161734 
L 444.093747 305.958311 
L 443.900914 305.754888 
L 443.714273 305.551465 
L 443.533627 305.348042 
L 443.358782 305.144619 
L 443.189552 304.941196 
L 443.025756 304.737773 
L 442.867221 304.534351 
L 442.713778 304.330928 
L 442.565262 304.127505 
L 442.421515 303.924082 
L 442.282385 303.720659 
L 442.147724 303.517236 
L 442.017387 303.313813 
L 441.891235 303.11039 
L 441.769135 302.906967 
L 441.650956 302.703544 
L 441.536573 302.500121 
L 441.425863 302.296698 
L 441.318708 302.093276 
L 441.214994 301.889853 
L 441.114612 301.68643 
L 441.017453 301.483007 
L 441.017453 301.483007 
L 441.017453 288.474284 
L 439.230639 288.474284 
L 439.230639 287.4882 
L 441.017453 287.4882 
L 441.017453 286.641179 
z
" clip-path="url(#p472c79280e)" style="fill: #d62728; fill-opacity: 0.5"/>
       </g>
       <g id="matplotlib.axis_1">
        <g id="xtick_1">
         <g id="line2d_1"/>
         <g id="text_1">
          <!-- OUT -->
          <g transform="translate(113.623396 332.720312) scale(0.1 -0.1)">
           <defs>
            <path id="DejaVuSans-4f" d="M 2522 4238 
Q 1834 4238 1429 3725 
Q 1025 3213 1025 2328 
Q 1025 1447 1429 934 
Q 1834 422 2522 422 
Q 3209 422 3611 934 
Q 4013 1447 4013 2328 
Q 4013 3213 3611 3725 
Q 3209 4238 2522 4238 
z
M 2522 4750 
Q 3503 4750 4090 4092 
Q 4678 3434 4678 2328 
Q 4678 1225 4090 567 
Q 3503 -91 2522 -91 
Q 1538 -91 948 565 
Q 359 1222 359 2328 
Q 359 3434 948 4092 
Q 1538 4750 2522 4750 
z
" transform="scale(0.015625)"/>
            <path id="DejaVuSans-55" d="M 556 4666 
L 1191 4666 
L 1191 1831 
Q 1191 1081 1462 751 
Q 1734 422 2344 422 
Q 2950 422 3222 751 
Q 3494 1081 3494 1831 
L 3494 4666 
L 4128 4666 
L 4128 1753 
Q 4128 841 3676 375 
Q 3225 -91 2344 -91 
Q 1459 -91 1007 375 
Q 556 841 556 1753 
L 556 4666 
z
" transform="scale(0.015625)"/>
            <path id="DejaVuSans-54" d="M -19 4666 
L 3928 4666 
L 3928 4134 
L 2272 4134 
L 2272 0 
L 1638 0 
L 1638 4134 
L -19 4134 
L -19 4666 
z
" transform="scale(0.015625)"/>
           </defs>
           <use xlink:href="#DejaVuSans-4f"/>
           <use xlink:href="#DejaVuSans-55" x="78.710938"/>
           <use xlink:href="#DejaVuSans-54" x="151.904297"/>
          </g>
         </g>
        </g>
        <g id="xtick_2">
         <g id="line2d_2"/>
         <g id="text_2">
          <!-- SRC -->
          <g transform="translate(553.726063 332.720312) scale(0.1 -0.1)">
           <defs>
            <path id="DejaVuSans-53" d="M 3425 4513 
L 3425 3897 
Q 3066 4069 2747 4153 
Q 2428 4238 2131 4238 
Q 1616 4238 1336 4038 
Q 1056 3838 1056 3469 
Q 1056 3159 1242 3001 
Q 1428 2844 1947 2747 
L 2328 2669 
Q 3034 2534 3370 2195 
Q 3706 1856 3706 1288 
Q 3706 609 3251 259 
Q 2797 -91 1919 -91 
Q 1588 -91 1214 -16 
Q 841 59 441 206 
L 441 856 
Q 825 641 1194 531 
Q 1563 422 1919 422 
Q 2459 422 2753 634 
Q 3047 847 3047 1241 
Q 3047 1584 2836 1778 
Q 2625 1972 2144 2069 
L 1759 2144 
Q 1053 2284 737 2584 
Q 422 2884 422 3419 
Q 422 4038 858 4394 
Q 1294 4750 2059 4750 
Q 2388 4750 2728 4690 
Q 3069 4631 3425 4513 
z
" transform="scale(0.015625)"/>
            <path id="DejaVuSans-52" d="M 2841 2188 
Q 3044 2119 3236 1894 
Q 3428 1669 3622 1275 
L 4263 0 
L 3584 0 
L 2988 1197 
Q 2756 1666 2539 1819 
Q 2322 1972 1947 1972 
L 1259 1972 
L 1259 0 
L 628 0 
L 628 4666 
L 2053 4666 
Q 2853 4666 3247 4331 
Q 3641 3997 3641 3322 
Q 3641 2881 3436 2590 
Q 3231 2300 2841 2188 
z
M 1259 4147 
L 1259 2491 
L 2053 2491 
Q 2509 2491 2742 2702 
Q 2975 2913 2975 3322 
Q 2975 3731 2742 3939 
Q 2509 4147 2053 4147 
L 1259 4147 
z
" transform="scale(0.015625)"/>
            <path id="DejaVuSans-43" d="M 4122 4306 
L 4122 3641 
Q 3803 3938 3442 4084 
Q 3081 4231 2675 4231 
Q 1875 4231 1450 3742 
Q 1025 3253 1025 2328 
Q 1025 1406 1450 917 
Q 1875 428 2675 428 
Q 3081 428 3442 575 
Q 3803 722 4122 1019 
L 4122 359 
Q 3791 134 3420 21 
Q 3050 -91 2638 -91 
Q 1578 -91 968 557 
Q 359 1206 359 2328 
Q 359 3453 968 4101 
Q 1578 4750 2638 4750 
Q 3056 4750 3426 4639 
Q 3797 4528 4122 4306 
z
" transform="scale(0.015625)"/>
           </defs>
           <use xlink:href="#DejaVuSans-53"/>
           <use xlink:href="#DejaVuSans-52" x="63.476562"/>
           <use xlink:href="#DejaVuSans-43" x="127.958984"/>
          </g>
         </g>
        </g>
        <g id="xtick_3">
         <g id="line2d_3"/>
         <g id="text_3">
          <!-- TAR -->
          <g transform="translate(428.528314 332.720312) scale(0.1 -0.1)">
           <defs>
            <path id="DejaVuSans-41" d="M 2188 4044 
L 1331 1722 
L 3047 1722 
L 2188 4044 
z
M 1831 4666 
L 2547 4666 
L 4325 0 
L 3669 0 
L 3244 1197 
L 1141 1197 
L 716 0 
L 50 0 
L 1831 4666 
z
" transform="scale(0.015625)"/>
           </defs>
           <use xlink:href="#DejaVuSans-54"/>
           <use xlink:href="#DejaVuSans-41" x="53.333984"/>
           <use xlink:href="#DejaVuSans-52" x="121.742188"/>
          </g>
         </g>
        </g>
       </g>
       <g id="matplotlib.axis_2">
        <g id="ytick_1">
         <g id="line2d_4">
          <defs>
           <path id="mab8acfa3c6" d="M 0 0 
L -3.5 0 
" style="stroke: #000000; stroke-width: 0.8"/>
          </defs>
          <g>
           <use xlink:href="#mab8acfa3c6" x="63.290625" y="321.621875" style="stroke: #000000; stroke-width: 0.8"/>
          </g>
         </g>
         <g id="text_4">
          <!-- 0 -->
          <g transform="translate(49.928125 325.421094) scale(0.1 -0.1)">
           <defs>
            <path id="DejaVuSans-30" d="M 2034 4250 
Q 1547 4250 1301 3770 
Q 1056 3291 1056 2328 
Q 1056 1369 1301 889 
Q 1547 409 2034 409 
Q 2525 409 2770 889 
Q 3016 1369 3016 2328 
Q 3016 3291 2770 3770 
Q 2525 4250 2034 4250 
z
M 2034 4750 
Q 2819 4750 3233 4129 
Q 3647 3509 3647 2328 
Q 3647 1150 3233 529 
Q 2819 -91 2034 -91 
Q 1250 -91 836 529 
Q 422 1150 422 2328 
Q 422 3509 836 4129 
Q 1250 4750 2034 4750 
z
" transform="scale(0.015625)"/>
           </defs>
           <use xlink:href="#DejaVuSans-30"/>
          </g>
         </g>
        </g>
        <g id="ytick_2">
         <g id="line2d_5">
          <g>
           <use xlink:href="#mab8acfa3c6" x="63.290625" y="258.411366" style="stroke: #000000; stroke-width: 0.8"/>
          </g>
         </g>
         <g id="text_5">
          <!-- 5000 -->
          <g transform="translate(30.840625 262.210585) scale(0.1 -0.1)">
           <defs>
            <path id="DejaVuSans-35" d="M 691 4666 
L 3169 4666 
L 3169 4134 
L 1269 4134 
L 1269 2991 
Q 1406 3038 1543 3061 
Q 1681 3084 1819 3084 
Q 2600 3084 3056 2656 
Q 3513 2228 3513 1497 
Q 3513 744 3044 326 
Q 2575 -91 1722 -91 
Q 1428 -91 1123 -41 
Q 819 9 494 109 
L 494 744 
Q 775 591 1075 516 
Q 1375 441 1709 441 
Q 2250 441 2565 725 
Q 2881 1009 2881 1497 
Q 2881 1984 2565 2268 
Q 2250 2553 1709 2553 
Q 1456 2553 1204 2497 
Q 953 2441 691 2322 
L 691 4666 
z
" transform="scale(0.015625)"/>
           </defs>
           <use xlink:href="#DejaVuSans-35"/>
           <use xlink:href="#DejaVuSans-30" x="63.623047"/>
           <use xlink:href="#DejaVuSans-30" x="127.246094"/>
           <use xlink:href="#DejaVuSans-30" x="190.869141"/>
          </g>
         </g>
        </g>
        <g id="ytick_3">
         <g id="line2d_6">
          <g>
           <use xlink:href="#mab8acfa3c6" x="63.290625" y="195.200857" style="stroke: #000000; stroke-width: 0.8"/>
          </g>
         </g>
         <g id="text_6">
          <!-- 10000 -->
          <g transform="translate(24.478125 199.000076) scale(0.1 -0.1)">
           <defs>
            <path id="DejaVuSans-31" d="M 794 531 
L 1825 531 
L 1825 4091 
L 703 3866 
L 703 4441 
L 1819 4666 
L 2450 4666 
L 2450 531 
L 3481 531 
L 3481 0 
L 794 0 
L 794 531 
z
" transform="scale(0.015625)"/>
           </defs>
           <use xlink:href="#DejaVuSans-31"/>
           <use xlink:href="#DejaVuSans-30" x="63.623047"/>
           <use xlink:href="#DejaVuSans-30" x="127.246094"/>
           <use xlink:href="#DejaVuSans-30" x="190.869141"/>
           <use xlink:href="#DejaVuSans-30" x="254.492188"/>
          </g>
         </g>
        </g>
        <g id="ytick_4">
         <g id="line2d_7">
          <g>
           <use xlink:href="#mab8acfa3c6" x="63.290625" y="131.990348" style="stroke: #000000; stroke-width: 0.8"/>
          </g>
         </g>
         <g id="text_7">
          <!-- 15000 -->
          <g transform="translate(24.478125 135.789567) scale(0.1 -0.1)">
           <use xlink:href="#DejaVuSans-31"/>
           <use xlink:href="#DejaVuSans-35" x="63.623047"/>
           <use xlink:href="#DejaVuSans-30" x="127.246094"/>
           <use xlink:href="#DejaVuSans-30" x="190.869141"/>
           <use xlink:href="#DejaVuSans-30" x="254.492188"/>
          </g>
         </g>
        </g>
        <g id="ytick_5">
         <g id="line2d_8">
          <g>
           <use xlink:href="#mab8acfa3c6" x="63.290625" y="68.779839" style="stroke: #000000; stroke-width: 0.8"/>
          </g>
         </g>
         <g id="text_8">
          <!-- 20000 -->
          <g transform="translate(24.478125 72.579058) scale(0.1 -0.1)">
           <defs>
            <path id="DejaVuSans-32" d="M 1228 531 
L 3431 531 
L 3431 0 
L 469 0 
L 469 531 
Q 828 903 1448 1529 
Q 2069 2156 2228 2338 
Q 2531 2678 2651 2914 
Q 2772 3150 2772 3378 
Q 2772 3750 2511 3984 
Q 2250 4219 1831 4219 
Q 1534 4219 1204 4116 
Q 875 4013 500 3803 
L 500 4441 
Q 881 4594 1212 4672 
Q 1544 4750 1819 4750 
Q 2544 4750 2975 4387 
Q 3406 4025 3406 3419 
Q 3406 3131 3298 2873 
Q 3191 2616 2906 2266 
Q 2828 2175 2409 1742 
Q 1991 1309 1228 531 
z
" transform="scale(0.015625)"/>
           </defs>
           <use xlink:href="#DejaVuSans-32"/>
           <use xlink:href="#DejaVuSans-30" x="63.623047"/>
           <use xlink:href="#DejaVuSans-30" x="127.246094"/>
           <use xlink:href="#DejaVuSans-30" x="190.869141"/>
           <use xlink:href="#DejaVuSans-30" x="254.492188"/>
          </g>
         </g>
        </g>
        <g id="text_9">
         <!-- time ago (generations) -->
         <g transform="translate(18.398438 223.682031) rotate(-90) scale(0.1 -0.1)">
          <defs>
           <path id="DejaVuSans-74" d="M 1172 4494 
L 1172 3500 
L 2356 3500 
L 2356 3053 
L 1172 3053 
L 1172 1153 
Q 1172 725 1289 603 
Q 1406 481 1766 481 
L 2356 481 
L 2356 0 
L 1766 0 
Q 1100 0 847 248 
Q 594 497 594 1153 
L 594 3053 
L 172 3053 
L 172 3500 
L 594 3500 
L 594 4494 
L 1172 4494 
z
" transform="scale(0.015625)"/>
           <path id="DejaVuSans-69" d="M 603 3500 
L 1178 3500 
L 1178 0 
L 603 0 
L 603 3500 
z
M 603 4863 
L 1178 4863 
L 1178 4134 
L 603 4134 
L 603 4863 
z
" transform="scale(0.015625)"/>
           <path id="DejaVuSans-6d" d="M 3328 2828 
Q 3544 3216 3844 3400 
Q 4144 3584 4550 3584 
Q 5097 3584 5394 3201 
Q 5691 2819 5691 2113 
L 5691 0 
L 5113 0 
L 5113 2094 
Q 5113 2597 4934 2840 
Q 4756 3084 4391 3084 
Q 3944 3084 3684 2787 
Q 3425 2491 3425 1978 
L 3425 0 
L 2847 0 
L 2847 2094 
Q 2847 2600 2669 2842 
Q 2491 3084 2119 3084 
Q 1678 3084 1418 2786 
Q 1159 2488 1159 1978 
L 1159 0 
L 581 0 
L 581 3500 
L 1159 3500 
L 1159 2956 
Q 1356 3278 1631 3431 
Q 1906 3584 2284 3584 
Q 2666 3584 2933 3390 
Q 3200 3197 3328 2828 
z
" transform="scale(0.015625)"/>
           <path id="DejaVuSans-65" d="M 3597 1894 
L 3597 1613 
L 953 1613 
Q 991 1019 1311 708 
Q 1631 397 2203 397 
Q 2534 397 2845 478 
Q 3156 559 3463 722 
L 3463 178 
Q 3153 47 2828 -22 
Q 2503 -91 2169 -91 
Q 1331 -91 842 396 
Q 353 884 353 1716 
Q 353 2575 817 3079 
Q 1281 3584 2069 3584 
Q 2775 3584 3186 3129 
Q 3597 2675 3597 1894 
z
M 3022 2063 
Q 3016 2534 2758 2815 
Q 2500 3097 2075 3097 
Q 1594 3097 1305 2825 
Q 1016 2553 972 2059 
L 3022 2063 
z
" transform="scale(0.015625)"/>
           <path id="DejaVuSans-20" transform="scale(0.015625)"/>
           <path id="DejaVuSans-61" d="M 2194 1759 
Q 1497 1759 1228 1600 
Q 959 1441 959 1056 
Q 959 750 1161 570 
Q 1363 391 1709 391 
Q 2188 391 2477 730 
Q 2766 1069 2766 1631 
L 2766 1759 
L 2194 1759 
z
M 3341 1997 
L 3341 0 
L 2766 0 
L 2766 531 
Q 2569 213 2275 61 
Q 1981 -91 1556 -91 
Q 1019 -91 701 211 
Q 384 513 384 1019 
Q 384 1609 779 1909 
Q 1175 2209 1959 2209 
L 2766 2209 
L 2766 2266 
Q 2766 2663 2505 2880 
Q 2244 3097 1772 3097 
Q 1472 3097 1187 3025 
Q 903 2953 641 2809 
L 641 3341 
Q 956 3463 1253 3523 
Q 1550 3584 1831 3584 
Q 2591 3584 2966 3190 
Q 3341 2797 3341 1997 
z
" transform="scale(0.015625)"/>
           <path id="DejaVuSans-67" d="M 2906 1791 
Q 2906 2416 2648 2759 
Q 2391 3103 1925 3103 
Q 1463 3103 1205 2759 
Q 947 2416 947 1791 
Q 947 1169 1205 825 
Q 1463 481 1925 481 
Q 2391 481 2648 825 
Q 2906 1169 2906 1791 
z
M 3481 434 
Q 3481 -459 3084 -895 
Q 2688 -1331 1869 -1331 
Q 1566 -1331 1297 -1286 
Q 1028 -1241 775 -1147 
L 775 -588 
Q 1028 -725 1275 -790 
Q 1522 -856 1778 -856 
Q 2344 -856 2625 -561 
Q 2906 -266 2906 331 
L 2906 616 
Q 2728 306 2450 153 
Q 2172 0 1784 0 
Q 1141 0 747 490 
Q 353 981 353 1791 
Q 353 2603 747 3093 
Q 1141 3584 1784 3584 
Q 2172 3584 2450 3431 
Q 2728 3278 2906 2969 
L 2906 3500 
L 3481 3500 
L 3481 434 
z
" transform="scale(0.015625)"/>
           <path id="DejaVuSans-6f" d="M 1959 3097 
Q 1497 3097 1228 2736 
Q 959 2375 959 1747 
Q 959 1119 1226 758 
Q 1494 397 1959 397 
Q 2419 397 2687 759 
Q 2956 1122 2956 1747 
Q 2956 2369 2687 2733 
Q 2419 3097 1959 3097 
z
M 1959 3584 
Q 2709 3584 3137 3096 
Q 3566 2609 3566 1747 
Q 3566 888 3137 398 
Q 2709 -91 1959 -91 
Q 1206 -91 779 398 
Q 353 888 353 1747 
Q 353 2609 779 3096 
Q 1206 3584 1959 3584 
z
" transform="scale(0.015625)"/>
           <path id="DejaVuSans-28" d="M 1984 4856 
Q 1566 4138 1362 3434 
Q 1159 2731 1159 2009 
Q 1159 1288 1364 580 
Q 1569 -128 1984 -844 
L 1484 -844 
Q 1016 -109 783 600 
Q 550 1309 550 2009 
Q 550 2706 781 3412 
Q 1013 4119 1484 4856 
L 1984 4856 
z
" transform="scale(0.015625)"/>
           <path id="DejaVuSans-6e" d="M 3513 2113 
L 3513 0 
L 2938 0 
L 2938 2094 
Q 2938 2591 2744 2837 
Q 2550 3084 2163 3084 
Q 1697 3084 1428 2787 
Q 1159 2491 1159 1978 
L 1159 0 
L 581 0 
L 581 3500 
L 1159 3500 
L 1159 2956 
Q 1366 3272 1645 3428 
Q 1925 3584 2291 3584 
Q 2894 3584 3203 3211 
Q 3513 2838 3513 2113 
z
" transform="scale(0.015625)"/>
           <path id="DejaVuSans-72" d="M 2631 2963 
Q 2534 3019 2420 3045 
Q 2306 3072 2169 3072 
Q 1681 3072 1420 2755 
Q 1159 2438 1159 1844 
L 1159 0 
L 581 0 
L 581 3500 
L 1159 3500 
L 1159 2956 
Q 1341 3275 1631 3429 
Q 1922 3584 2338 3584 
Q 2397 3584 2469 3576 
Q 2541 3569 2628 3553 
L 2631 2963 
z
" transform="scale(0.015625)"/>
           <path id="DejaVuSans-73" d="M 2834 3397 
L 2834 2853 
Q 2591 2978 2328 3040 
Q 2066 3103 1784 3103 
Q 1356 3103 1142 2972 
Q 928 2841 928 2578 
Q 928 2378 1081 2264 
Q 1234 2150 1697 2047 
L 1894 2003 
Q 2506 1872 2764 1633 
Q 3022 1394 3022 966 
Q 3022 478 2636 193 
Q 2250 -91 1575 -91 
Q 1294 -91 989 -36 
Q 684 19 347 128 
L 347 722 
Q 666 556 975 473 
Q 1284 391 1588 391 
Q 1994 391 2212 530 
Q 2431 669 2431 922 
Q 2431 1156 2273 1281 
Q 2116 1406 1581 1522 
L 1381 1569 
Q 847 1681 609 1914 
Q 372 2147 372 2553 
Q 372 3047 722 3315 
Q 1072 3584 1716 3584 
Q 2034 3584 2315 3537 
Q 2597 3491 2834 3397 
z
" transform="scale(0.015625)"/>
           <path id="DejaVuSans-29" d="M 513 4856 
L 1013 4856 
Q 1481 4119 1714 3412 
Q 1947 2706 1947 2009 
Q 1947 1309 1714 600 
Q 1481 -109 1013 -844 
L 513 -844 
Q 928 -128 1133 580 
Q 1338 1288 1338 2009 
Q 1338 2731 1133 3434 
Q 928 4138 513 4856 
z
" transform="scale(0.015625)"/>
          </defs>
          <use xlink:href="#DejaVuSans-74"/>
          <use xlink:href="#DejaVuSans-69" x="39.208984"/>
          <use xlink:href="#DejaVuSans-6d" x="66.992188"/>
          <use xlink:href="#DejaVuSans-65" x="164.404297"/>
          <use xlink:href="#DejaVuSans-20" x="225.927734"/>
          <use xlink:href="#DejaVuSans-61" x="257.714844"/>
          <use xlink:href="#DejaVuSans-67" x="318.994141"/>
          <use xlink:href="#DejaVuSans-6f" x="382.470703"/>
          <use xlink:href="#DejaVuSans-20" x="443.652344"/>
          <use xlink:href="#DejaVuSans-28" x="475.439453"/>
          <use xlink:href="#DejaVuSans-67" x="514.453125"/>
          <use xlink:href="#DejaVuSans-65" x="577.929688"/>
          <use xlink:href="#DejaVuSans-6e" x="639.453125"/>
          <use xlink:href="#DejaVuSans-65" x="702.832031"/>
          <use xlink:href="#DejaVuSans-72" x="764.355469"/>
          <use xlink:href="#DejaVuSans-61" x="805.46875"/>
          <use xlink:href="#DejaVuSans-74" x="866.748047"/>
          <use xlink:href="#DejaVuSans-69" x="905.957031"/>
          <use xlink:href="#DejaVuSans-6f" x="933.740234"/>
          <use xlink:href="#DejaVuSans-6e" x="994.921875"/>
          <use xlink:href="#DejaVuSans-73" x="1058.300781"/>
          <use xlink:href="#DejaVuSans-29" x="1110.400391"/>
         </g>
        </g>
       </g>
       <g id="patch_7">
        <path d="M 283.4329 283.480654 
L 282.4329 283.449217 
L 281.4329 283.412277 
L 280.4329 283.314531 
L 279.4329 283.282009 
L 278.4329 283.208384 
L 277.4329 283.169819 
L 276.4329 283.134406 
L 275.4329 283.076766 
L 274.4329 283.006379 
L 273.4329 282.954415 
L 272.4329 282.895325 
L 271.4329 282.807004 
L 270.4329 282.76086 
L 269.4329 282.718449 
L 268.4329 282.687957 
L 267.4329 282.661912 
L 266.4329 282.640712 
L 265.4329 282.58641 
L 264.4329 282.558473 
L 263.4329 282.528749 
L 262.4329 282.503354 
L 261.4329 282.492154 
L 260.4329 282.48203 
L 259.4329 282.482234 
L 258.4329 282.491744 
L 257.4329 282.503398 
L 256.4329 282.534427 
L 255.4329 282.545595 
L 254.4329 282.575712 
L 253.4329 282.635489 
L 252.4329 282.672681 
L 251.4329 282.711777 
L 250.4329 282.754216 
L 249.4329 282.786982 
L 248.4329 282.854408 
L 247.4329 282.893534 
L 246.4329 282.936208 
L 245.4329 283.006789 
L 244.4329 283.04318 
L 243.4329 283.101583 
L 242.4329 283.212536 
L 241.4329 283.283194 
L 240.4329 283.396134 
L 239.4329 283.441907 
L 238.4329 283.50319 
L 237.4329 283.551689 
L 236.4329 283.632512 
L 235.4329 283.751031 
L 234.4329 283.821242 
L 233.4329 283.904504 
L 232.4329 283.937646 
L 231.4329 283.988883 
L 230.4329 284.057281 
L 229.4329 284.123497 
L 228.4329 284.200414 
L 227.4329 284.227729 
L 226.4329 284.254207 
L 225.4329 284.276858 
L 224.4329 284.296389 
L 223.4329 284.322783 
L 222.4329 284.372554 
L 221.4329 284.407627 
L 220.4329 284.443492 
L 219.4329 284.45886 
L 218.4329 284.474629 
L 217.4329 284.478041 
L 216.4329 284.480459 
L 215.4329 284.479973 
L 214.4329 284.478044 
L 213.4329 284.464787 
L 212.4329 284.456396 
L 211.4329 284.43486 
L 210.4329 284.411827 
L 209.4329 284.394594 
L 208.4329 284.376131 
L 207.4329 284.355679 
L 206.4329 284.339079 
L 205.4329 284.2763 
L 204.4329 284.201035 
L 203.4329 284.168396 
L 202.4329 284.100832 
L 201.4329 284.046785 
L 200.4329 284.013081 
L 199.4329 283.922955 
L 198.4329 283.89442 
L 197.4329 283.862934 
L 196.4329 283.831923 
L 195.4329 283.777115 
L 194.4329 283.712527 
L 193.4329 283.674332 
L 192.4329 283.578398 
L 191.4329 283.52914 
L 190.4329 283.485071 
L 189.4329 283.444947 
L 188.4329 283.33658 
L 187.4329 283.294952 
L 186.4329 283.23281 
L 185.4329 283.162848 
L 184.4329 283.058344 
L 183.4329 283.021356 
L 182.4329 282.975479 
L 181.4329 282.906984 
L 180.4329 282.858238 
L 179.4329 282.780641 
L 178.4329 282.7501 
L 177.4329 282.680586 
L 176.4329 282.656613 
L 175.4329 282.627991 
L 174.4329 282.586198 
L 173.4329 282.564622 
L 172.4329 282.550674 
L 171.4329 282.523952 
L 170.4329 282.514642 
L 169.4329 282.502195 
L 168.4329 282.49114 
L 167.4329 282.485476 
L 166.4329 282.480712 
L 165.4329 282.486259 
L 164.4329 282.499548 
L 163.4329 282.507065 
L 162.4329 282.53185 
L 161.4329 282.555419 
L 160.4329 282.591599 
L 159.4329 282.617561 
L 158.4329 282.639883 
L 157.4329 282.708643 
L 156.4329 282.783178 
L 155.4329 282.877157 
L 154.4329 282.928209 
L 153.4329 282.982143 
L 152.4329 283.017394 
L 151.4329 283.123482 
L 150.4329 283.175746 
L 149.4329 283.212653 
L 148.4329 283.243683 
L 147.4329 283.304839 
L 146.4329 283.372259 
L 145.4329 283.421165 
L 144.4329 283.486357 
L 143.4329 283.524545 
L 142.4329 283.56654 
L 141.4329 283.608558 
L 139.679979 283.668074 
" clip-path="url(#p472c79280e)" style="fill: none; stroke: #ffffff; stroke-width: 3; stroke-linecap: round"/>
        <path d="M 283.4329 283.480654 
L 282.4329 283.449217 
L 281.4329 283.412277 
L 280.4329 283.314531 
L 279.4329 283.282009 
L 278.4329 283.208384 
L 277.4329 283.169819 
L 276.4329 283.134406 
L 275.4329 283.076766 
L 274.4329 283.006379 
L 273.4329 282.954415 
L 272.4329 282.895325 
L 271.4329 282.807004 
L 270.4329 282.76086 
L 269.4329 282.718449 
L 268.4329 282.687957 
L 267.4329 282.661912 
L 266.4329 282.640712 
L 265.4329 282.58641 
L 264.4329 282.558473 
L 263.4329 282.528749 
L 262.4329 282.503354 
L 261.4329 282.492154 
L 260.4329 282.48203 
L 259.4329 282.482234 
L 258.4329 282.491744 
L 257.4329 282.503398 
L 256.4329 282.534427 
L 255.4329 282.545595 
L 254.4329 282.575712 
L 253.4329 282.635489 
L 252.4329 282.672681 
L 251.4329 282.711777 
L 250.4329 282.754216 
L 249.4329 282.786982 
L 248.4329 282.854408 
L 247.4329 282.893534 
L 246.4329 282.936208 
L 245.4329 283.006789 
L 244.4329 283.04318 
L 243.4329 283.101583 
L 242.4329 283.212536 
L 241.4329 283.283194 
L 240.4329 283.396134 
L 239.4329 283.441907 
L 238.4329 283.50319 
L 237.4329 283.551689 
L 236.4329 283.632512 
L 235.4329 283.751031 
L 234.4329 283.821242 
L 233.4329 283.904504 
L 232.4329 283.937646 
L 231.4329 283.988883 
L 230.4329 284.057281 
L 229.4329 284.123497 
L 228.4329 284.200414 
L 227.4329 284.227729 
L 226.4329 284.254207 
L 225.4329 284.276858 
L 224.4329 284.296389 
L 223.4329 284.322783 
L 222.4329 284.372554 
L 221.4329 284.407627 
L 220.4329 284.443492 
L 219.4329 284.45886 
L 218.4329 284.474629 
L 217.4329 284.478041 
L 216.4329 284.480459 
L 215.4329 284.479973 
L 214.4329 284.478044 
L 213.4329 284.464787 
L 212.4329 284.456396 
L 211.4329 284.43486 
L 210.4329 284.411827 
L 209.4329 284.394594 
L 208.4329 284.376131 
L 207.4329 284.355679 
L 206.4329 284.339079 
L 205.4329 284.2763 
L 204.4329 284.201035 
L 203.4329 284.168396 
L 202.4329 284.100832 
L 201.4329 284.046785 
L 200.4329 284.013081 
L 199.4329 283.922955 
L 198.4329 283.89442 
L 197.4329 283.862934 
L 196.4329 283.831923 
L 195.4329 283.777115 
L 194.4329 283.712527 
L 193.4329 283.674332 
L 192.4329 283.578398 
L 191.4329 283.52914 
L 190.4329 283.485071 
L 189.4329 283.444947 
L 188.4329 283.33658 
L 187.4329 283.294952 
L 186.4329 283.23281 
L 185.4329 283.162848 
L 184.4329 283.058344 
L 183.4329 283.021356 
L 182.4329 282.975479 
L 181.4329 282.906984 
L 180.4329 282.858238 
L 179.4329 282.780641 
L 178.4329 282.7501 
L 177.4329 282.680586 
L 176.4329 282.656613 
L 175.4329 282.627991 
L 174.4329 282.586198 
L 173.4329 282.564622 
L 172.4329 282.550674 
L 171.4329 282.523952 
L 170.4329 282.514642 
L 169.4329 282.502195 
L 168.4329 282.49114 
L 167.4329 282.485476 
L 166.4329 282.480712 
L 165.4329 282.486259 
L 164.4329 282.499548 
L 163.4329 282.507065 
L 162.4329 282.53185 
L 161.4329 282.555419 
L 160.4329 282.591599 
L 159.4329 282.617561 
L 158.4329 282.639883 
L 157.4329 282.708643 
L 156.4329 282.783178 
L 155.4329 282.877157 
L 154.4329 282.928209 
L 153.4329 282.982143 
L 152.4329 283.017394 
L 151.4329 283.123482 
L 150.4329 283.175746 
L 149.4329 283.212653 
L 148.4329 283.243683 
L 147.4329 283.304839 
L 146.4329 283.372259 
L 145.4329 283.421165 
L 144.4329 283.486357 
L 143.4329 283.524545 
L 142.4329 283.56654 
L 141.4329 283.608558 
L 139.679979 283.668074 
" clip-path="url(#p472c79280e)" style="fill: none; stroke: #1f77b4; stroke-linecap: round"/>
        <path d="M 143.679979 285.480654 
L 142.799611 285.005323 
L 141.921704 284.525069 
L 141.07099 283.990428 
L 139.768816 283.302981 
L 140.696169 283.276966 
L 141.607843 282.864246 
L 142.518107 282.448707 
L 143.860603 281.841903 
L 143.205704 282.480654 
L 143.15374 283.480654 
L 143.09465 285.480654 
z
" clip-path="url(#p472c79280e)" style="fill: #ffffff; stroke: #ffffff; stroke-width: 3; stroke-linecap: round"/>
        <path d="M 143.679979 285.480654 
L 142.799611 285.005323 
L 141.921704 284.525069 
L 141.07099 283.990428 
L 139.768816 283.302981 
L 140.696169 283.276966 
L 141.607843 282.864246 
L 142.518107 282.448707 
L 143.860603 281.841903 
L 143.205704 282.480654 
L 143.15374 283.480654 
L 143.09465 285.480654 
z
" clip-path="url(#p472c79280e)" style="fill: #ffffff; stroke: #1f77b4; stroke-linecap: round"/>
        <g id="patch_8">
         <path d="M 341.689817 72.964375 
L 342.689817 72.995811 
L 343.689817 73.032752 
L 344.689817 73.130498 
L 345.689817 73.16302 
L 346.689817 73.236645 
L 347.689817 73.27521 
L 348.689817 73.310623 
L 349.689817 73.368263 
L 350.689817 73.438649 
L 351.689817 73.490614 
L 352.689817 73.549703 
L 353.689817 73.638024 
L 354.689817 73.684169 
L 355.689817 73.72658 
L 356.689817 73.757072 
L 357.689817 73.783117 
L 358.689817 73.804317 
L 359.689817 73.858618 
L 360.689817 73.886556 
L 361.689817 73.91628 
L 362.689817 73.941675 
L 363.689817 73.952875 
L 364.689817 73.962999 
L 365.689817 73.962795 
L 366.689817 73.953285 
L 367.689817 73.941631 
L 368.689817 73.910602 
L 369.689817 73.899434 
L 370.689817 73.869317 
L 371.689817 73.80954 
L 372.689817 73.772348 
L 373.689817 73.733252 
L 374.689817 73.690812 
L 375.689817 73.658047 
L 376.689817 73.590621 
L 377.689817 73.551495 
L 378.689817 73.50882 
L 379.689817 73.43824 
L 380.689817 73.401849 
L 381.689817 73.343446 
L 382.689817 73.232493 
L 383.689817 73.161835 
L 384.689817 73.048895 
L 385.689817 73.003122 
L 386.689817 72.941839 
L 387.689817 72.89334 
L 388.689817 72.812517 
L 389.689817 72.693998 
L 390.689817 72.623787 
L 391.689817 72.540525 
L 392.689817 72.507383 
L 393.689817 72.456146 
L 394.689817 72.387747 
L 395.689817 72.321532 
L 396.689817 72.244615 
L 397.689817 72.217299 
L 398.689817 72.190822 
L 399.689817 72.168171 
L 400.689817 72.14864 
L 401.689817 72.122246 
L 402.689817 72.072475 
L 403.689817 72.037402 
L 404.689817 72.001536 
L 405.689817 71.986169 
L 406.689817 71.9704 
L 407.689817 71.966987 
L 408.689817 71.96457 
L 409.689817 71.965056 
L 410.689817 71.966985 
L 411.689817 71.980242 
L 412.689817 71.988633 
L 413.689817 72.010169 
L 414.689817 72.033202 
L 415.689817 72.050435 
L 416.689817 72.068898 
L 417.689817 72.08935 
L 418.689817 72.10595 
L 419.689817 72.168729 
L 420.689817 72.243994 
L 421.689817 72.276633 
L 422.689817 72.344197 
L 423.689817 72.398244 
L 424.689817 72.431948 
L 425.689817 72.522074 
L 426.689817 72.550609 
L 427.689817 72.582095 
L 428.689817 72.613106 
L 429.689817 72.667914 
L 430.689817 72.732501 
L 431.689817 72.770697 
L 432.689817 72.866631 
L 433.689817 72.915889 
L 434.689817 72.959958 
L 435.689817 73.000082 
L 436.689817 73.108449 
L 437.689817 73.150077 
L 438.689817 73.212219 
L 439.689817 73.282181 
L 440.689817 73.386685 
L 441.689817 73.423673 
L 442.689817 73.46955 
L 443.689817 73.538045 
L 444.689817 73.586791 
L 445.689817 73.664388 
L 446.689817 73.694929 
L 447.689817 73.764443 
L 448.689817 73.788416 
L 449.689817 73.817038 
L 450.689817 73.858831 
L 451.689817 73.880407 
L 452.689817 73.894355 
L 453.689817 73.921077 
L 454.689817 73.930387 
L 455.689817 73.942834 
L 456.689817 73.953889 
L 457.689817 73.959553 
L 458.689817 73.964317 
L 459.689817 73.958769 
L 460.689817 73.945481 
L 461.689817 73.937964 
L 462.689817 73.913179 
L 463.689817 73.88961 
L 464.689817 73.85343 
L 465.689817 73.827468 
L 466.689817 73.805146 
L 467.689817 73.736386 
L 468.689817 73.661851 
L 469.689817 73.567872 
L 470.689817 73.51682 
L 471.689817 73.462886 
L 472.689817 73.427635 
L 473.689817 73.321547 
L 474.689817 73.269283 
L 475.689817 73.232376 
L 476.689817 73.201345 
L 477.689817 73.14019 
L 478.689817 73.07277 
L 479.689817 73.023864 
L 480.689817 72.958672 
L 481.689817 72.920484 
L 482.689817 72.878488 
L 483.689817 72.836471 
L 484.689817 72.776955 
L 485.689817 72.663795 
L 486.689817 72.611544 
L 487.689817 72.572126 
L 488.689817 72.525025 
L 489.689817 72.468245 
L 490.689817 72.435582 
L 491.689817 72.399404 
L 492.689817 72.367314 
L 493.689817 72.333034 
L 494.689817 72.274656 
L 495.689817 72.229471 
L 496.689817 72.199847 
L 497.689817 72.149461 
L 498.689817 72.124264 
L 499.689817 72.103213 
L 500.689817 72.068245 
L 501.689817 72.043955 
L 502.689817 72.029888 
L 503.689817 72.010946 
L 504.689817 71.995285 
L 505.689817 71.982733 
L 506.689817 71.976897 
L 507.689817 71.970015 
L 508.689817 71.964841 
L 509.689817 71.966624 
L 510.689817 71.969349 
L 511.689817 71.980503 
L 512.689817 72.008738 
L 513.689817 72.052526 
L 514.689817 72.073215 
L 515.689817 72.114188 
L 516.689817 72.154263 
L 517.689817 72.173373 
L 518.689817 72.195882 
L 519.689817 72.262533 
L 520.689817 72.312243 
L 521.689817 72.385949 
L 522.689817 72.417263 
L 523.689817 72.493885 
L 524.689817 72.532183 
L 525.689817 72.6063 
L 526.689817 72.710358 
L 527.689817 72.780189 
L 528.689817 72.885423 
L 529.689817 72.940438 
L 530.689817 73.063913 
L 531.689817 73.134472 
L 532.689817 73.250311 
L 533.689817 73.300492 
L 534.689817 73.336096 
L 535.689817 73.427503 
L 536.689817 73.481011 
L 537.689817 73.568919 
L 538.689817 73.638104 
L 539.689817 73.684868 
L 540.689817 73.756912 
L 541.689817 73.807054 
L 542.689817 73.824444 
L 543.689817 73.851447 
L 545.072435 73.870874 
" clip-path="url(#p472c79280e)" style="fill: none; stroke: #ffffff; stroke-width: 3; stroke-linecap: round"/>
         <path d="M 341.689817 72.964375 
L 342.689817 72.995811 
L 343.689817 73.032752 
L 344.689817 73.130498 
L 345.689817 73.16302 
L 346.689817 73.236645 
L 347.689817 73.27521 
L 348.689817 73.310623 
L 349.689817 73.368263 
L 350.689817 73.438649 
L 351.689817 73.490614 
L 352.689817 73.549703 
L 353.689817 73.638024 
L 354.689817 73.684169 
L 355.689817 73.72658 
L 356.689817 73.757072 
L 357.689817 73.783117 
L 358.689817 73.804317 
L 359.689817 73.858618 
L 360.689817 73.886556 
L 361.689817 73.91628 
L 362.689817 73.941675 
L 363.689817 73.952875 
L 364.689817 73.962999 
L 365.689817 73.962795 
L 366.689817 73.953285 
L 367.689817 73.941631 
L 368.689817 73.910602 
L 369.689817 73.899434 
L 370.689817 73.869317 
L 371.689817 73.80954 
L 372.689817 73.772348 
L 373.689817 73.733252 
L 374.689817 73.690812 
L 375.689817 73.658047 
L 376.689817 73.590621 
L 377.689817 73.551495 
L 378.689817 73.50882 
L 379.689817 73.43824 
L 380.689817 73.401849 
L 381.689817 73.343446 
L 382.689817 73.232493 
L 383.689817 73.161835 
L 384.689817 73.048895 
L 385.689817 73.003122 
L 386.689817 72.941839 
L 387.689817 72.89334 
L 388.689817 72.812517 
L 389.689817 72.693998 
L 390.689817 72.623787 
L 391.689817 72.540525 
L 392.689817 72.507383 
L 393.689817 72.456146 
L 394.689817 72.387747 
L 395.689817 72.321532 
L 396.689817 72.244615 
L 397.689817 72.217299 
L 398.689817 72.190822 
L 399.689817 72.168171 
L 400.689817 72.14864 
L 401.689817 72.122246 
L 402.689817 72.072475 
L 403.689817 72.037402 
L 404.689817 72.001536 
L 405.689817 71.986169 
L 406.689817 71.9704 
L 407.689817 71.966987 
L 408.689817 71.96457 
L 409.689817 71.965056 
L 410.689817 71.966985 
L 411.689817 71.980242 
L 412.689817 71.988633 
L 413.689817 72.010169 
L 414.689817 72.033202 
L 415.689817 72.050435 
L 416.689817 72.068898 
L 417.689817 72.08935 
L 418.689817 72.10595 
L 419.689817 72.168729 
L 420.689817 72.243994 
L 421.689817 72.276633 
L 422.689817 72.344197 
L 423.689817 72.398244 
L 424.689817 72.431948 
L 425.689817 72.522074 
L 426.689817 72.550609 
L 427.689817 72.582095 
L 428.689817 72.613106 
L 429.689817 72.667914 
L 430.689817 72.732501 
L 431.689817 72.770697 
L 432.689817 72.866631 
L 433.689817 72.915889 
L 434.689817 72.959958 
L 435.689817 73.000082 
L 436.689817 73.108449 
L 437.689817 73.150077 
L 438.689817 73.212219 
L 439.689817 73.282181 
L 440.689817 73.386685 
L 441.689817 73.423673 
L 442.689817 73.46955 
L 443.689817 73.538045 
L 444.689817 73.586791 
L 445.689817 73.664388 
L 446.689817 73.694929 
L 447.689817 73.764443 
L 448.689817 73.788416 
L 449.689817 73.817038 
L 450.689817 73.858831 
L 451.689817 73.880407 
L 452.689817 73.894355 
L 453.689817 73.921077 
L 454.689817 73.930387 
L 455.689817 73.942834 
L 456.689817 73.953889 
L 457.689817 73.959553 
L 458.689817 73.964317 
L 459.689817 73.958769 
L 460.689817 73.945481 
L 461.689817 73.937964 
L 462.689817 73.913179 
L 463.689817 73.88961 
L 464.689817 73.85343 
L 465.689817 73.827468 
L 466.689817 73.805146 
L 467.689817 73.736386 
L 468.689817 73.661851 
L 469.689817 73.567872 
L 470.689817 73.51682 
L 471.689817 73.462886 
L 472.689817 73.427635 
L 473.689817 73.321547 
L 474.689817 73.269283 
L 475.689817 73.232376 
L 476.689817 73.201345 
L 477.689817 73.14019 
L 478.689817 73.07277 
L 479.689817 73.023864 
L 480.689817 72.958672 
L 481.689817 72.920484 
L 482.689817 72.878488 
L 483.689817 72.836471 
L 484.689817 72.776955 
L 485.689817 72.663795 
L 486.689817 72.611544 
L 487.689817 72.572126 
L 488.689817 72.525025 
L 489.689817 72.468245 
L 490.689817 72.435582 
L 491.689817 72.399404 
L 492.689817 72.367314 
L 493.689817 72.333034 
L 494.689817 72.274656 
L 495.689817 72.229471 
L 496.689817 72.199847 
L 497.689817 72.149461 
L 498.689817 72.124264 
L 499.689817 72.103213 
L 500.689817 72.068245 
L 501.689817 72.043955 
L 502.689817 72.029888 
L 503.689817 72.010946 
L 504.689817 71.995285 
L 505.689817 71.982733 
L 506.689817 71.976897 
L 507.689817 71.970015 
L 508.689817 71.964841 
L 509.689817 71.966624 
L 510.689817 71.969349 
L 511.689817 71.980503 
L 512.689817 72.008738 
L 513.689817 72.052526 
L 514.689817 72.073215 
L 515.689817 72.114188 
L 516.689817 72.154263 
L 517.689817 72.173373 
L 518.689817 72.195882 
L 519.689817 72.262533 
L 520.689817 72.312243 
L 521.689817 72.385949 
L 522.689817 72.417263 
L 523.689817 72.493885 
L 524.689817 72.532183 
L 525.689817 72.6063 
L 526.689817 72.710358 
L 527.689817 72.780189 
L 528.689817 72.885423 
L 529.689817 72.940438 
L 530.689817 73.063913 
L 531.689817 73.134472 
L 532.689817 73.250311 
L 533.689817 73.300492 
L 534.689817 73.336096 
L 535.689817 73.427503 
L 536.689817 73.481011 
L 537.689817 73.568919 
L 538.689817 73.638104 
L 539.689817 73.684868 
L 540.689817 73.756912 
L 541.689817 73.807054 
L 542.689817 73.824444 
L 543.689817 73.851447 
L 545.072435 73.870874 
" clip-path="url(#p472c79280e)" style="fill: none; stroke: #1f77b4; stroke-linecap: round"/>
         <path d="M 541.072435 70.964375 
L 541.952803 71.439706 
L 542.83071 71.91996 
L 543.681424 72.454601 
L 544.983598 73.142048 
L 544.056245 73.168063 
L 543.144571 73.580783 
L 542.234306 73.996322 
L 540.89181 74.603126 
L 541.546709 73.964375 
L 541.598673 72.964375 
L 541.657763 70.964375 
z
" clip-path="url(#p472c79280e)" style="fill: #ffffff; stroke: #ffffff; stroke-width: 3; stroke-linecap: round"/>
         <path d="M 541.072435 70.964375 
L 541.952803 71.439706 
L 542.83071 71.91996 
L 543.681424 72.454601 
L 544.983598 73.142048 
L 544.056245 73.168063 
L 543.144571 73.580783 
L 542.234306 73.996322 
L 540.89181 74.603126 
L 541.546709 73.964375 
L 541.598673 72.964375 
L 541.657763 70.964375 
z
" clip-path="url(#p472c79280e)" style="fill: #ffffff; stroke: #1f77b4; stroke-linecap: round"/>
         <g id="patch_9">
          <path d="M 138.558599 286.641179 
L 139.558599 286.672616 
L 140.558599 286.709556 
L 141.558599 286.807303 
L 142.558599 286.839824 
L 143.558599 286.913449 
L 144.558599 286.952015 
L 145.558599 286.987428 
L 146.558599 287.045068 
L 147.558599 287.115454 
L 148.558599 287.167418 
L 149.558599 287.226508 
L 150.558599 287.314829 
L 151.558599 287.360973 
L 152.558599 287.403384 
L 153.558599 287.433877 
L 154.558599 287.459922 
L 155.558599 287.481122 
L 156.558599 287.535423 
L 157.558599 287.56336 
L 158.558599 287.593084 
L 159.558599 287.618479 
L 160.558599 287.62968 
L 161.558599 287.639804 
L 162.558599 287.639599 
L 163.558599 287.630089 
L 164.558599 287.618436 
L 165.558599 287.587406 
L 166.558599 287.576239 
L 167.558599 287.546121 
L 168.558599 287.486344 
L 169.558599 287.449153 
L 170.558599 287.410056 
L 171.558599 287.367617 
L 172.558599 287.334852 
L 173.558599 287.267425 
L 174.558599 287.228299 
L 175.558599 287.185625 
L 176.558599 287.115044 
L 177.558599 287.078653 
L 178.558599 287.02025 
L 179.558599 286.909298 
L 180.558599 286.838639 
L 181.558599 286.725699 
L 182.558599 286.679927 
L 183.558599 286.618643 
L 184.558599 286.570144 
L 185.558599 286.489321 
L 186.558599 286.370802 
L 187.558599 286.300592 
L 188.558599 286.217329 
L 189.558599 286.184188 
L 190.558599 286.13295 
L 191.558599 286.064552 
L 192.558599 285.998336 
L 193.558599 285.921419 
L 194.558599 285.894104 
L 195.558599 285.867626 
L 196.558599 285.844976 
L 197.558599 285.825444 
L 198.558599 285.79905 
L 199.558599 285.74928 
L 200.558599 285.714206 
L 201.558599 285.678341 
L 202.558599 285.662974 
L 203.558599 285.647204 
L 204.558599 285.643792 
L 205.558599 285.641374 
L 206.558599 285.64186 
L 207.558599 285.64379 
L 208.558599 285.657046 
L 209.558599 285.665437 
L 210.558599 285.686974 
L 211.558599 285.710006 
L 212.558599 285.72724 
L 213.558599 285.745702 
L 214.558599 285.766155 
L 215.558599 285.782755 
L 216.558599 285.845533 
L 217.558599 285.920798 
L 218.558599 285.953438 
L 219.558599 286.021001 
L 220.558599 286.075048 
L 221.558599 286.108752 
L 222.558599 286.198878 
L 223.558599 286.227413 
L 224.558599 286.2589 
L 225.558599 286.28991 
L 226.558599 286.344718 
L 227.558599 286.409306 
L 228.558599 286.447501 
L 229.558599 286.543435 
L 230.558599 286.592693 
L 231.558599 286.636763 
L 232.558599 286.676886 
L 233.558599 286.785253 
L 234.558599 286.826882 
L 235.558599 286.889023 
L 236.558599 286.958985 
L 237.558599 287.06349 
L 238.558599 287.100477 
L 239.558599 287.146355 
L 240.558599 287.214849 
L 241.558599 287.263595 
L 242.558599 287.341193 
L 243.558599 287.371733 
L 244.558599 287.441248 
L 245.558599 287.465221 
L 246.558599 287.493842 
L 247.558599 287.535635 
L 248.558599 287.557211 
L 249.558599 287.571159 
L 250.558599 287.597882 
L 251.558599 287.607191 
L 252.558599 287.619638 
L 253.558599 287.630693 
L 254.558599 287.636358 
L 255.558599 287.641121 
L 256.558599 287.635574 
L 257.558599 287.622286 
L 258.558599 287.614768 
L 259.558599 287.589983 
L 260.558599 287.566415 
L 261.558599 287.530234 
L 262.558599 287.504272 
L 263.558599 287.481951 
L 264.558599 287.413191 
L 265.558599 287.338656 
L 266.558599 287.244676 
L 267.558599 287.193624 
L 268.558599 287.13969 
L 269.558599 287.10444 
L 270.558599 286.998352 
L 271.558599 286.946087 
L 272.558599 286.909181 
L 273.558599 286.87815 
L 274.558599 286.816994 
L 275.558599 286.749574 
L 276.558599 286.700668 
L 277.558599 286.635476 
L 278.558599 286.597289 
L 279.558599 286.555293 
L 280.558599 286.513275 
L 281.558599 286.453759 
L 282.558599 286.340599 
L 283.558599 286.288348 
L 284.558599 286.248931 
L 285.558599 286.201829 
L 286.558599 286.14505 
L 287.558599 286.112387 
L 288.558599 286.076209 
L 289.558599 286.044118 
L 290.558599 286.009838 
L 291.558599 285.951461 
L 292.558599 285.906276 
L 293.558599 285.876652 
L 294.558599 285.826266 
L 295.558599 285.801068 
L 296.558599 285.780017 
L 297.558599 285.745049 
L 298.558599 285.720759 
L 299.558599 285.706692 
L 300.558599 285.687751 
L 301.558599 285.672089 
L 302.558599 285.659537 
L 303.558599 285.653702 
L 304.558599 285.646819 
L 305.558599 285.641645 
L 306.558599 285.643428 
L 307.558599 285.646154 
L 308.558599 285.657307 
L 309.558599 285.685542 
L 310.558599 285.72933 
L 311.558599 285.750019 
L 312.558599 285.790993 
L 313.558599 285.831068 
L 314.558599 285.850178 
L 315.558599 285.872686 
L 316.558599 285.939338 
L 317.558599 285.989047 
L 318.558599 286.062754 
L 319.558599 286.094067 
L 320.558599 286.17069 
L 321.558599 286.208988 
L 322.558599 286.283104 
L 323.558599 286.387163 
L 324.558599 286.456993 
L 325.558599 286.562227 
L 326.558599 286.617242 
L 327.558599 286.740717 
L 328.558599 286.811276 
L 329.558599 286.927116 
L 330.558599 286.977296 
L 331.558599 287.012901 
L 332.558599 287.104307 
L 333.558599 287.157815 
L 334.558599 287.245723 
L 335.558599 287.314908 
L 336.558599 287.361673 
L 337.558599 287.433716 
L 338.558599 287.483858 
L 339.558599 287.501248 
L 340.558599 287.528252 
L 341.558599 287.547679 
L 342.558599 287.567017 
L 343.558599 287.605265 
L 344.558599 287.621699 
L 345.558599 287.630067 
L 346.558599 287.634386 
L 347.558599 287.640942 
L 348.558599 287.638395 
L 349.558599 287.632937 
L 350.558599 287.616508 
L 351.558599 287.584574 
L 352.558599 287.546593 
L 353.558599 287.511789 
L 354.558599 287.448718 
L 355.558599 287.427291 
L 356.558599 287.376673 
L 357.558599 287.351715 
L 358.558599 287.296082 
L 359.558599 287.264853 
L 360.558599 287.214709 
L 361.558599 287.182216 
L 362.558599 287.101803 
L 363.558599 287.032877 
L 364.558599 286.91718 
L 365.558599 286.841701 
L 366.558599 286.726177 
L 367.558599 286.646692 
L 368.558599 286.538251 
L 369.558599 286.498884 
L 370.558599 286.396016 
L 371.558599 286.296218 
L 372.558599 286.250721 
L 373.558599 286.216398 
L 374.558599 286.164443 
L 375.558599 286.124796 
L 376.558599 286.089281 
L 377.558599 286.021636 
L 378.558599 285.982555 
L 379.558599 285.932073 
L 380.558599 285.882767 
L 381.558599 285.831698 
L 382.558599 285.787458 
L 383.558599 285.765439 
L 384.558599 285.749882 
L 385.558599 285.707435 
L 386.558599 285.692567 
L 387.558599 285.66984 
L 388.558599 285.649523 
L 389.558599 285.643727 
L 390.558599 285.641244 
L 391.558599 285.644301 
L 392.558599 285.655897 
L 393.558599 285.672817 
L 394.558599 285.704478 
L 395.558599 285.718562 
L 396.558599 285.771233 
L 397.558599 285.820323 
L 398.558599 285.875024 
L 399.558599 285.919371 
L 400.558599 285.989363 
L 401.558599 286.039746 
L 402.558599 286.093653 
L 403.558599 286.163092 
L 404.558599 286.22048 
L 405.558599 286.270645 
L 406.558599 286.347807 
L 407.558599 286.405997 
L 408.558599 286.466636 
L 409.558599 286.503837 
L 410.558599 286.568928 
L 411.558599 286.674058 
L 412.558599 286.73436 
L 413.558599 286.830682 
L 414.558599 286.862685 
L 415.558599 286.913702 
L 416.558599 287.030495 
L 417.558599 287.065941 
L 418.558599 287.121822 
L 419.558599 287.152197 
L 420.558599 287.240583 
L 421.558599 287.285348 
L 422.558599 287.366235 
L 423.558599 287.426381 
L 424.558599 287.489467 
L 425.558599 287.512416 
L 426.558599 287.528586 
L 427.558599 287.557515 
L 428.558599 287.587866 
L 429.558599 287.600441 
L 430.558599 287.62532 
L 432.047141 287.637404 
" clip-path="url(#p472c79280e)" style="fill: none; stroke: #ffffff; stroke-width: 3; stroke-linecap: round"/>
          <path d="M 138.558599 286.641179 
L 139.558599 286.672616 
L 140.558599 286.709556 
L 141.558599 286.807303 
L 142.558599 286.839824 
L 143.558599 286.913449 
L 144.558599 286.952015 
L 145.558599 286.987428 
L 146.558599 287.045068 
L 147.558599 287.115454 
L 148.558599 287.167418 
L 149.558599 287.226508 
L 150.558599 287.314829 
L 151.558599 287.360973 
L 152.558599 287.403384 
L 153.558599 287.433877 
L 154.558599 287.459922 
L 155.558599 287.481122 
L 156.558599 287.535423 
L 157.558599 287.56336 
L 158.558599 287.593084 
L 159.558599 287.618479 
L 160.558599 287.62968 
L 161.558599 287.639804 
L 162.558599 287.639599 
L 163.558599 287.630089 
L 164.558599 287.618436 
L 165.558599 287.587406 
L 166.558599 287.576239 
L 167.558599 287.546121 
L 168.558599 287.486344 
L 169.558599 287.449153 
L 170.558599 287.410056 
L 171.558599 287.367617 
L 172.558599 287.334852 
L 173.558599 287.267425 
L 174.558599 287.228299 
L 175.558599 287.185625 
L 176.558599 287.115044 
L 177.558599 287.078653 
L 178.558599 287.02025 
L 179.558599 286.909298 
L 180.558599 286.838639 
L 181.558599 286.725699 
L 182.558599 286.679927 
L 183.558599 286.618643 
L 184.558599 286.570144 
L 185.558599 286.489321 
L 186.558599 286.370802 
L 187.558599 286.300592 
L 188.558599 286.217329 
L 189.558599 286.184188 
L 190.558599 286.13295 
L 191.558599 286.064552 
L 192.558599 285.998336 
L 193.558599 285.921419 
L 194.558599 285.894104 
L 195.558599 285.867626 
L 196.558599 285.844976 
L 197.558599 285.825444 
L 198.558599 285.79905 
L 199.558599 285.74928 
L 200.558599 285.714206 
L 201.558599 285.678341 
L 202.558599 285.662974 
L 203.558599 285.647204 
L 204.558599 285.643792 
L 205.558599 285.641374 
L 206.558599 285.64186 
L 207.558599 285.64379 
L 208.558599 285.657046 
L 209.558599 285.665437 
L 210.558599 285.686974 
L 211.558599 285.710006 
L 212.558599 285.72724 
L 213.558599 285.745702 
L 214.558599 285.766155 
L 215.558599 285.782755 
L 216.558599 285.845533 
L 217.558599 285.920798 
L 218.558599 285.953438 
L 219.558599 286.021001 
L 220.558599 286.075048 
L 221.558599 286.108752 
L 222.558599 286.198878 
L 223.558599 286.227413 
L 224.558599 286.2589 
L 225.558599 286.28991 
L 226.558599 286.344718 
L 227.558599 286.409306 
L 228.558599 286.447501 
L 229.558599 286.543435 
L 230.558599 286.592693 
L 231.558599 286.636763 
L 232.558599 286.676886 
L 233.558599 286.785253 
L 234.558599 286.826882 
L 235.558599 286.889023 
L 236.558599 286.958985 
L 237.558599 287.06349 
L 238.558599 287.100477 
L 239.558599 287.146355 
L 240.558599 287.214849 
L 241.558599 287.263595 
L 242.558599 287.341193 
L 243.558599 287.371733 
L 244.558599 287.441248 
L 245.558599 287.465221 
L 246.558599 287.493842 
L 247.558599 287.535635 
L 248.558599 287.557211 
L 249.558599 287.571159 
L 250.558599 287.597882 
L 251.558599 287.607191 
L 252.558599 287.619638 
L 253.558599 287.630693 
L 254.558599 287.636358 
L 255.558599 287.641121 
L 256.558599 287.635574 
L 257.558599 287.622286 
L 258.558599 287.614768 
L 259.558599 287.589983 
L 260.558599 287.566415 
L 261.558599 287.530234 
L 262.558599 287.504272 
L 263.558599 287.481951 
L 264.558599 287.413191 
L 265.558599 287.338656 
L 266.558599 287.244676 
L 267.558599 287.193624 
L 268.558599 287.13969 
L 269.558599 287.10444 
L 270.558599 286.998352 
L 271.558599 286.946087 
L 272.558599 286.909181 
L 273.558599 286.87815 
L 274.558599 286.816994 
L 275.558599 286.749574 
L 276.558599 286.700668 
L 277.558599 286.635476 
L 278.558599 286.597289 
L 279.558599 286.555293 
L 280.558599 286.513275 
L 281.558599 286.453759 
L 282.558599 286.340599 
L 283.558599 286.288348 
L 284.558599 286.248931 
L 285.558599 286.201829 
L 286.558599 286.14505 
L 287.558599 286.112387 
L 288.558599 286.076209 
L 289.558599 286.044118 
L 290.558599 286.009838 
L 291.558599 285.951461 
L 292.558599 285.906276 
L 293.558599 285.876652 
L 294.558599 285.826266 
L 295.558599 285.801068 
L 296.558599 285.780017 
L 297.558599 285.745049 
L 298.558599 285.720759 
L 299.558599 285.706692 
L 300.558599 285.687751 
L 301.558599 285.672089 
L 302.558599 285.659537 
L 303.558599 285.653702 
L 304.558599 285.646819 
L 305.558599 285.641645 
L 306.558599 285.643428 
L 307.558599 285.646154 
L 308.558599 285.657307 
L 309.558599 285.685542 
L 310.558599 285.72933 
L 311.558599 285.750019 
L 312.558599 285.790993 
L 313.558599 285.831068 
L 314.558599 285.850178 
L 315.558599 285.872686 
L 316.558599 285.939338 
L 317.558599 285.989047 
L 318.558599 286.062754 
L 319.558599 286.094067 
L 320.558599 286.17069 
L 321.558599 286.208988 
L 322.558599 286.283104 
L 323.558599 286.387163 
L 324.558599 286.456993 
L 325.558599 286.562227 
L 326.558599 286.617242 
L 327.558599 286.740717 
L 328.558599 286.811276 
L 329.558599 286.927116 
L 330.558599 286.977296 
L 331.558599 287.012901 
L 332.558599 287.104307 
L 333.558599 287.157815 
L 334.558599 287.245723 
L 335.558599 287.314908 
L 336.558599 287.361673 
L 337.558599 287.433716 
L 338.558599 287.483858 
L 339.558599 287.501248 
L 340.558599 287.528252 
L 341.558599 287.547679 
L 342.558599 287.567017 
L 343.558599 287.605265 
L 344.558599 287.621699 
L 345.558599 287.630067 
L 346.558599 287.634386 
L 347.558599 287.640942 
L 348.558599 287.638395 
L 349.558599 287.632937 
L 350.558599 287.616508 
L 351.558599 287.584574 
L 352.558599 287.546593 
L 353.558599 287.511789 
L 354.558599 287.448718 
L 355.558599 287.427291 
L 356.558599 287.376673 
L 357.558599 287.351715 
L 358.558599 287.296082 
L 359.558599 287.264853 
L 360.558599 287.214709 
L 361.558599 287.182216 
L 362.558599 287.101803 
L 363.558599 287.032877 
L 364.558599 286.91718 
L 365.558599 286.841701 
L 366.558599 286.726177 
L 367.558599 286.646692 
L 368.558599 286.538251 
L 369.558599 286.498884 
L 370.558599 286.396016 
L 371.558599 286.296218 
L 372.558599 286.250721 
L 373.558599 286.216398 
L 374.558599 286.164443 
L 375.558599 286.124796 
L 376.558599 286.089281 
L 377.558599 286.021636 
L 378.558599 285.982555 
L 379.558599 285.932073 
L 380.558599 285.882767 
L 381.558599 285.831698 
L 382.558599 285.787458 
L 383.558599 285.765439 
L 384.558599 285.749882 
L 385.558599 285.707435 
L 386.558599 285.692567 
L 387.558599 285.66984 
L 388.558599 285.649523 
L 389.558599 285.643727 
L 390.558599 285.641244 
L 391.558599 285.644301 
L 392.558599 285.655897 
L 393.558599 285.672817 
L 394.558599 285.704478 
L 395.558599 285.718562 
L 396.558599 285.771233 
L 397.558599 285.820323 
L 398.558599 285.875024 
L 399.558599 285.919371 
L 400.558599 285.989363 
L 401.558599 286.039746 
L 402.558599 286.093653 
L 403.558599 286.163092 
L 404.558599 286.22048 
L 405.558599 286.270645 
L 406.558599 286.347807 
L 407.558599 286.405997 
L 408.558599 286.466636 
L 409.558599 286.503837 
L 410.558599 286.568928 
L 411.558599 286.674058 
L 412.558599 286.73436 
L 413.558599 286.830682 
L 414.558599 286.862685 
L 415.558599 286.913702 
L 416.558599 287.030495 
L 417.558599 287.065941 
L 418.558599 287.121822 
L 419.558599 287.152197 
L 420.558599 287.240583 
L 421.558599 287.285348 
L 422.558599 287.366235 
L 423.558599 287.426381 
L 424.558599 287.489467 
L 425.558599 287.512416 
L 426.558599 287.528586 
L 427.558599 287.557515 
L 428.558599 287.587866 
L 429.558599 287.600441 
L 430.558599 287.62532 
L 432.047141 287.637404 
" clip-path="url(#p472c79280e)" style="fill: none; stroke: #ff7f0e; stroke-linecap: round"/>
          <path d="M 428.047141 284.641179 
L 428.92751 285.116511 
L 429.805417 285.596765 
L 430.65613 286.131405 
L 431.958305 286.818853 
L 431.030952 286.844868 
L 430.119277 287.257587 
L 429.209013 287.673126 
L 427.866517 288.279931 
L 428.521416 287.641179 
L 428.57338 286.641179 
L 428.63247 284.641179 
z
" clip-path="url(#p472c79280e)" style="fill: #ffffff; stroke: #ffffff; stroke-width: 3; stroke-linecap: round"/>
          <path d="M 428.047141 284.641179 
L 428.92751 285.116511 
L 429.805417 285.596765 
L 430.65613 286.131405 
L 431.958305 286.818853 
L 431.030952 286.844868 
L 430.119277 287.257587 
L 429.209013 287.673126 
L 427.866517 288.279931 
L 428.521416 287.641179 
L 428.57338 286.641179 
L 428.63247 284.641179 
z
" clip-path="url(#p472c79280e)" style="fill: #ffffff; stroke: #ff7f0e; stroke-linecap: round"/>
          <path d="M 446.420547 298.322481 
" clip-path="url(#p472c79280e)" style="fill: none; stroke-dasharray: 3.7,1.6; stroke-dashoffset: 0; stroke: #2ca02c"/>
          <path d="M 445.420547 298.322481 
L 447.420547 299.322481 
L 447.420547 297.322481 
z
" clip-path="url(#p472c79280e)" style="fill: #2ca02c; stroke: #2ca02c; stroke-linejoin: miter"/>
          <g id="patch_10">
           <path d="M 63.290625 321.621875 
L 63.290625 10.8 
" style="fill: none; stroke: #000000; stroke-width: 0.8; stroke-linejoin: miter; stroke-linecap: square"/>
          </g>
          <g id="text_10">
           <g id="patch_11">
            <path d="M 301.910253 153.979389 
L 323.214941 153.979389 
Q 325.214941 153.979389 325.214941 151.979389 
L 325.214941 142.301264 
Q 325.214941 140.301264 323.214941 140.301264 
L 301.910253 140.301264 
Q 299.910253 140.301264 299.910253 142.301264 
L 299.910253 151.979389 
Q 299.910253 153.979389 301.910253 153.979389 
z
" style="fill: #ffffff; opacity: 0.6"/>
           </g>
           <!-- ANC -->
           <g transform="translate(301.910253 149.899702) scale(0.1 -0.1)">
            <defs>
             <path id="DejaVuSans-4e" d="M 628 4666 
L 1478 4666 
L 3547 763 
L 3547 4666 
L 4159 4666 
L 4159 0 
L 3309 0 
L 1241 3903 
L 1241 0 
L 628 0 
L 628 4666 
z
" transform="scale(0.015625)"/>
            </defs>
            <use xlink:href="#DejaVuSans-41"/>
            <use xlink:href="#DejaVuSans-4e" x="68.408203"/>
            <use xlink:href="#DejaVuSans-43" x="143.212891"/>
           </g>
          </g>
         </g>
        </g>
        <defs>
         <clipPath id="p472c79280e">
          <rect x="63.290625" y="10.8" width="540.309375" height="310.821875"/>
         </clipPath>
        </defs>
       </g>
      </g>
     </g>
    </g>
   </g>
  </g>
 </g>
</svg>
