<?xml version="1.0" encoding="utf-8" standalone="no"?>
<!DOCTYPE svg PUBLIC "-//W3C//DTD SVG 1.1//EN"
  "http://www.w3.org/Graphics/SVG/1.1/DTD/svg11.dtd">
<svg xmlns:xlink="http://www.w3.org/1999/xlink" width="614.4pt" height="345.6pt" viewBox="0 0 614.4 345.6" xmlns="http://www.w3.org/2000/svg" version="1.1">
 <metadata>
  <rdf:RDF xmlns:dc="http://purl.org/dc/elements/1.1/" xmlns:cc="http://creativecommons.org/ns#" xmlns:rdf="http://www.w3.org/1999/02/22-rdf-syntax-ns#">
   <cc:Work>
    <dc:type rdf:resource="http://purl.org/dc/dcmitype/StillImage"/>
    <dc:date>2024-04-17T19:40:23.712735</dc:date>
    <dc:format>image/svg+xml</dc:format>
    <dc:creator>
     <cc:Agent>
      <dc:title>Matplotlib v3.7.1, https://matplotlib.org/</dc:title>
     </cc:Agent>
    </dc:creator>
   </cc:Work>
  </rdf:RDF>
 </metadata>
 <defs>
  <style type="text/css">*{stroke-linejoin: round; stroke-linecap: butt}</style>
 </defs>
 <g id="figure_1">
  <g id="patch_1">
   <path d="M 0 345.6 
L 614.4 345.6 
L 614.4 0 
L 0 0 
z
" style="fill: #ffffff"/>
  </g>
  <g id="axes_1">
   <g id="patch_2">
    <path d="M 63.290625 321.621875 
L 603.6 321.621875 
L 603.6 10.8 
L 63.290625 10.8 
z
" style="fill: #ffffff"/>
   </g>
   <path d="M 559.698435 291.377299 
L 558.698435 291.345863 
L 557.698435 291.308923 
L 556.698435 291.211176 
L 555.698435 291.178654 
L 554.698435 291.10503 
L 553.698435 291.066464 
L 552.698435 291.031051 
L 551.698435 290.973411 
L 550.698435 290.903025 
L 549.698435 290.851061 
L 548.698435 290.791971 
L 547.698435 290.70365 
L 546.698435 290.657506 
L 545.698435 290.615095 
L 544.698435 290.584602 
L 543.698435 290.558557 
L 542.698435 290.537357 
L 541.698435 290.483056 
L 540.698435 290.455118 
L 539.698435 290.425394 
L 538.698435 290.4 
L 537.698435 290.388799 
L 536.698435 290.378675 
L 535.698435 290.378879 
L 534.698435 290.388389 
L 533.698435 290.400043 
L 532.698435 290.431072 
L 531.698435 290.44224 
L 530.698435 290.472358 
L 529.698435 290.532135 
L 528.698435 290.569326 
L 527.698435 290.608422 
L 526.698435 290.650862 
L 525.698435 290.683627 
L 524.698435 290.751053 
L 523.698435 290.790179 
L 522.698435 290.832854 
L 521.698435 290.903434 
L 520.698435 290.939825 
L 519.698435 290.998228 
L 518.698435 291.109181 
L 517.698435 291.179839 
L 516.698435 291.292779 
L 515.698435 291.338552 
L 514.698435 291.399835 
L 513.698435 291.448335 
L 512.698435 291.529157 
L 511.698435 291.647676 
L 510.698435 291.717887 
L 509.698435 291.801149 
L 508.698435 291.834291 
L 507.698435 291.885528 
L 506.698435 291.953927 
L 505.698435 292.020142 
L 504.698435 292.097059 
L 503.698435 292.124375 
L 502.698435 292.150852 
L 501.698435 292.173503 
L 500.698435 292.193034 
L 499.698435 292.219428 
L 498.698435 292.269199 
L 497.698435 292.304272 
L 496.698435 292.340138 
L 495.698435 292.355505 
L 494.698435 292.371274 
L 493.698435 292.374687 
L 492.698435 292.377105 
L 491.698435 292.376618 
L 490.698435 292.374689 
L 489.698435 292.361432 
L 488.698435 292.353042 
L 487.698435 292.331505 
L 486.698435 292.308473 
L 485.698435 292.291239 
L 484.698435 292.272777 
L 483.698435 292.252324 
L 482.698435 292.235724 
L 481.698435 292.172945 
L 480.698435 292.09768 
L 479.698435 292.065041 
L 478.698435 291.997478 
L 477.698435 291.943431 
L 476.698435 291.909726 
L 475.698435 291.8196 
L 474.698435 291.791065 
L 473.698435 291.759579 
L 472.698435 291.728568 
L 471.698435 291.67376 
L 470.698435 291.609173 
L 469.698435 291.570978 
L 468.698435 291.475043 
L 467.698435 291.425785 
L 465.842415 291.381716 
" clip-path="url(#p6ffeffa443)" style="fill: none; stroke-dasharray: 3.7,1.6; stroke-dashoffset: 0; stroke: #2ca02c"/>
   <g id="patch_3">
    <path d="M 297.389435 10.8 
L 297.389435 281.289737 
M 373.258266 10.8 
L 373.258266 281.289737 
" clip-path="url(#p6ffeffa443)" style="fill: none; stroke: #ffffff; stroke-width: 3; stroke-linejoin: miter"/>
    <path d="M 297.389435 10.8 
L 297.389435 281.289737 
M 373.258266 10.8 
L 373.258266 281.289737 
" clip-path="url(#p6ffeffa443)" style="fill: none; stroke: #1f77b4; stroke-linejoin: miter"/>
    <g id="PolyCollection_1">
     <path d="M 373.258266 10.8 
L 297.389435 10.8 
L 297.389435 281.289737 
L 373.258266 281.289737 
L 373.258266 281.289737 
L 373.258266 10.8 
z
" clip-path="url(#p6ffeffa443)" style="fill: #1f77b4; fill-opacity: 0.5"/>
    </g>
    <g id="patch_4">
     <path d="M 141.343639 281.289737 
L 141.343639 310.864224 
L 141.343639 310.864224 
L 138.19151 312.168181 
L 134.434265 313.472139 
L 129.955738 314.776097 
L 124.617466 316.080055 
L 118.254402 317.384012 
L 110.669817 318.68797 
L 101.629213 319.991928 
L 90.853078 321.295886 
L 87.850142 321.621875 
M 174.183329 281.289737 
L 174.183329 310.864224 
L 174.183329 310.864224 
L 177.335458 312.168181 
L 181.092703 313.472139 
L 185.571229 314.776097 
L 190.909502 316.080055 
L 197.272566 317.384012 
L 204.857151 318.68797 
L 213.897755 319.991928 
L 224.67389 321.295886 
L 227.676826 321.621875 
L 227.676826 321.621875 
" clip-path="url(#p6ffeffa443)" style="fill: none; stroke: #ffffff; stroke-width: 3; stroke-linejoin: miter"/>
     <path d="M 141.343639 281.289737 
L 141.343639 310.864224 
L 141.343639 310.864224 
L 138.19151 312.168181 
L 134.434265 313.472139 
L 129.955738 314.776097 
L 124.617466 316.080055 
L 118.254402 317.384012 
L 110.669817 318.68797 
L 101.629213 319.991928 
L 90.853078 321.295886 
L 87.850142 321.621875 
M 174.183329 281.289737 
L 174.183329 310.864224 
L 174.183329 310.864224 
L 177.335458 312.168181 
L 181.092703 313.472139 
L 185.571229 314.776097 
L 190.909502 316.080055 
L 197.272566 317.384012 
L 204.857151 318.68797 
L 213.897755 319.991928 
L 224.67389 321.295886 
L 227.676826 321.621875 
L 227.676826 321.621875 
" clip-path="url(#p6ffeffa443)" style="fill: none; stroke: #ff7f0e; stroke-linejoin: miter"/>
     <g id="PolyCollection_2">
      <path d="M 174.183329 281.289737 
L 141.343639 281.289737 
L 141.343639 310.864224 
L 141.343639 310.864224 
L 141.101584 310.972887 
L 140.855961 311.08155 
L 140.606717 311.190213 
L 140.353799 311.298876 
L 140.097153 311.407539 
L 139.836723 311.516202 
L 139.572454 311.624866 
L 139.304289 311.733529 
L 139.032171 311.842192 
L 138.756041 311.950855 
L 138.475841 312.059518 
L 138.19151 312.168181 
L 137.902988 312.276844 
L 137.610213 312.385508 
L 137.313121 312.494171 
L 137.01165 312.602834 
L 136.705735 312.711497 
L 136.39531 312.82016 
L 136.080309 312.928823 
L 135.760664 313.037486 
L 135.436307 313.14615 
L 135.107169 313.254813 
L 134.773179 313.363476 
L 134.434265 313.472139 
L 134.090355 313.580802 
L 133.741375 313.689465 
L 133.387251 313.798128 
L 133.027906 313.906792 
L 132.663264 314.015455 
L 132.293247 314.124118 
L 131.917775 314.232781 
L 131.536768 314.341444 
L 131.150144 314.450107 
L 130.757821 314.55877 
L 130.359714 314.667434 
L 129.955738 314.776097 
L 129.545808 314.88476 
L 129.129834 314.993423 
L 128.707728 315.102086 
L 128.2794 315.210749 
L 127.844757 315.319413 
L 127.403708 315.428076 
L 126.956156 315.536739 
L 126.502007 315.645402 
L 126.041162 315.754065 
L 125.573525 315.862728 
L 125.098993 315.971391 
L 124.617466 316.080055 
L 124.128841 316.188718 
L 123.633013 316.297381 
L 123.129875 316.406044 
L 122.61932 316.514707 
L 122.101239 316.62337 
L 121.57552 316.732033 
L 121.042052 316.840697 
L 120.500719 316.94936 
L 119.951406 317.058023 
L 119.393996 317.166686 
L 118.828368 317.275349 
L 118.254402 317.384012 
L 117.671975 317.492675 
L 117.080962 317.601339 
L 116.481237 317.710002 
L 115.87267 317.818665 
L 115.255133 317.927328 
L 114.628492 318.035991 
L 113.992613 318.144654 
L 113.34736 318.253317 
L 112.692596 318.361981 
L 112.028179 318.470644 
L 111.353967 318.579307 
L 110.669817 318.68797 
L 109.975581 318.796633 
L 109.27111 318.905296 
L 108.556255 319.013959 
L 107.830862 319.122623 
L 107.094775 319.231286 
L 106.347837 319.339949 
L 105.589889 319.448612 
L 104.820766 319.557275 
L 104.040306 319.665938 
L 103.24834 319.774602 
L 102.4447 319.883265 
L 101.629213 319.991928 
L 100.801704 320.100591 
L 99.961996 320.209254 
L 99.109909 320.317917 
L 98.245262 320.42658 
L 97.367868 320.535244 
L 96.47754 320.643907 
L 95.574087 320.75257 
L 94.657316 320.861233 
L 93.72703 320.969896 
L 92.78303 321.078559 
L 91.825115 321.187222 
L 90.853078 321.295886 
L 89.866711 321.404549 
L 88.865804 321.513212 
L 87.850142 321.621875 
L 227.676826 321.621875 
L 227.676826 321.621875 
L 226.661164 321.513212 
L 225.660257 321.404549 
L 224.67389 321.295886 
L 223.701853 321.187222 
L 222.743937 321.078559 
L 221.799938 320.969896 
L 220.869652 320.861233 
L 219.952881 320.75257 
L 219.049428 320.643907 
L 218.1591 320.535244 
L 217.281706 320.42658 
L 216.417058 320.317917 
L 215.564972 320.209254 
L 214.725264 320.100591 
L 213.897755 319.991928 
L 213.082268 319.883265 
L 212.278628 319.774602 
L 211.486662 319.665938 
L 210.706202 319.557275 
L 209.937079 319.448612 
L 209.17913 319.339949 
L 208.432193 319.231286 
L 207.696106 319.122623 
L 206.970713 319.013959 
L 206.255857 318.905296 
L 205.551387 318.796633 
L 204.857151 318.68797 
L 204.173001 318.579307 
L 203.498789 318.470644 
L 202.834372 318.361981 
L 202.179608 318.253317 
L 201.534355 318.144654 
L 200.898476 318.035991 
L 200.271835 317.927328 
L 199.654297 317.818665 
L 199.045731 317.710002 
L 198.446006 317.601339 
L 197.854993 317.492675 
L 197.272566 317.384012 
L 196.6986 317.275349 
L 196.132972 317.166686 
L 195.575561 317.058023 
L 195.026249 316.94936 
L 194.484916 316.840697 
L 193.951448 316.732033 
L 193.425729 316.62337 
L 192.907648 316.514707 
L 192.397093 316.406044 
L 191.893955 316.297381 
L 191.398127 316.188718 
L 190.909502 316.080055 
L 190.427975 315.971391 
L 189.953443 315.862728 
L 189.485805 315.754065 
L 189.024961 315.645402 
L 188.570812 315.536739 
L 188.12326 315.428076 
L 187.68221 315.319413 
L 187.247568 315.210749 
L 186.81924 315.102086 
L 186.397134 314.993423 
L 185.98116 314.88476 
L 185.571229 314.776097 
L 185.167254 314.667434 
L 184.769147 314.55877 
L 184.376824 314.450107 
L 183.9902 314.341444 
L 183.609193 314.232781 
L 183.233721 314.124118 
L 182.863704 314.015455 
L 182.499062 313.906792 
L 182.139717 313.798128 
L 181.785593 313.689465 
L 181.436613 313.580802 
L 181.092703 313.472139 
L 180.753789 313.363476 
L 180.419799 313.254813 
L 180.09066 313.14615 
L 179.766304 313.037486 
L 179.446659 312.928823 
L 179.131658 312.82016 
L 178.821233 312.711497 
L 178.515318 312.602834 
L 178.213847 312.494171 
L 177.916755 312.385508 
L 177.62398 312.276844 
L 177.335458 312.168181 
L 177.051127 312.059518 
L 176.770927 311.950855 
L 176.494797 311.842192 
L 176.222679 311.733529 
L 175.954514 311.624866 
L 175.690245 311.516202 
L 175.429815 311.407539 
L 175.173169 311.298876 
L 174.92025 311.190213 
L 174.671006 311.08155 
L 174.425383 310.972887 
L 174.183329 310.864224 
L 174.183329 310.864224 
L 174.183329 281.289737 
z
" clip-path="url(#p6ffeffa443)" style="fill: #ff7f0e; fill-opacity: 0.5"/>
     </g>
     <g id="patch_5">
      <path d="M 565.101529 72.964375 
L 565.101529 321.621875 
M 579.040483 72.964375 
L 579.040483 321.621875 
" clip-path="url(#p6ffeffa443)" style="fill: none; stroke: #ffffff; stroke-width: 3; stroke-linejoin: miter"/>
      <path d="M 565.101529 72.964375 
L 565.101529 321.621875 
M 579.040483 72.964375 
L 579.040483 321.621875 
" clip-path="url(#p6ffeffa443)" style="fill: none; stroke: #2ca02c; stroke-linejoin: miter"/>
      <g id="PolyCollection_3">
       <path d="M 579.040483 72.964375 
L 565.101529 72.964375 
L 565.101529 321.621875 
L 579.040483 321.621875 
L 579.040483 321.621875 
L 579.040483 72.964375 
z
" clip-path="url(#p6ffeffa443)" style="fill: #2ca02c; fill-opacity: 0.5"/>
      </g>
      <g id="patch_6">
       <path d="M 446.955535 281.289737 
L 446.955535 284.006316 
L 452.658654 284.006316 
L 452.658654 284.748847 
L 446.955535 284.748847 
L 446.955535 308.799624 
L 446.955535 308.799624 
L 445.417014 310.224318 
L 443.527399 311.649013 
L 441.437811 312.94419 
L 438.918885 314.239367 
L 435.882408 315.534544 
L 432.22204 316.82972 
L 427.809594 318.124897 
L 423.068277 319.290557 
L 417.458597 320.456216 
L 410.821511 321.621875 
M 460.439321 281.289737 
L 460.439321 284.006316 
L 454.736202 284.006316 
L 454.736202 284.748847 
L 460.439321 284.748847 
L 460.439321 308.799624 
L 460.439321 308.799624 
L 461.977842 310.224318 
L 463.867458 311.649013 
L 465.957045 312.94419 
L 468.475971 314.239367 
L 471.512448 315.534544 
L 475.172816 316.82972 
L 479.585263 318.124897 
L 484.326579 319.290557 
L 489.93626 320.456216 
L 496.573345 321.621875 
L 496.573345 321.621875 
" clip-path="url(#p6ffeffa443)" style="fill: none; stroke: #ffffff; stroke-width: 3; stroke-linejoin: miter"/>
       <path d="M 446.955535 281.289737 
L 446.955535 284.006316 
L 452.658654 284.006316 
L 452.658654 284.748847 
L 446.955535 284.748847 
L 446.955535 308.799624 
L 446.955535 308.799624 
L 445.417014 310.224318 
L 443.527399 311.649013 
L 441.437811 312.94419 
L 438.918885 314.239367 
L 435.882408 315.534544 
L 432.22204 316.82972 
L 427.809594 318.124897 
L 423.068277 319.290557 
L 417.458597 320.456216 
L 410.821511 321.621875 
M 460.439321 281.289737 
L 460.439321 284.006316 
L 454.736202 284.006316 
L 454.736202 284.748847 
L 460.439321 284.748847 
L 460.439321 308.799624 
L 460.439321 308.799624 
L 461.977842 310.224318 
L 463.867458 311.649013 
L 465.957045 312.94419 
L 468.475971 314.239367 
L 471.512448 315.534544 
L 475.172816 316.82972 
L 479.585263 318.124897 
L 484.326579 319.290557 
L 489.93626 320.456216 
L 496.573345 321.621875 
L 496.573345 321.621875 
" clip-path="url(#p6ffeffa443)" style="fill: none; stroke: #d62728; stroke-linejoin: miter"/>
       <g id="PolyCollection_4">
        <path d="M 460.439321 281.289737 
L 446.955535 281.289737 
L 446.955535 284.006316 
L 452.658654 284.006316 
L 452.658654 284.748847 
L 446.955535 284.748847 
L 446.955535 308.799624 
L 446.955535 308.799624 
L 446.828368 308.929141 
L 446.698802 309.058659 
L 446.566792 309.188177 
L 446.432292 309.317694 
L 446.295255 309.447212 
L 446.155634 309.57673 
L 446.013379 309.706248 
L 445.86844 309.835765 
L 445.720768 309.965283 
L 445.57031 310.094801 
L 445.417014 310.224318 
L 445.260827 310.353836 
L 445.101694 310.483354 
L 444.939559 310.612871 
L 444.774366 310.742389 
L 444.606057 310.871907 
L 444.434573 311.001424 
L 444.259855 311.130942 
L 444.081841 311.26046 
L 443.90047 311.389978 
L 443.715677 311.519495 
L 443.527399 311.649013 
L 443.335569 311.778531 
L 443.140121 311.908048 
L 442.940987 312.037566 
L 442.738096 312.167084 
L 442.531378 312.296601 
L 442.320762 312.426119 
L 442.106172 312.555637 
L 441.887535 312.685154 
L 441.664774 312.814672 
L 441.437811 312.94419 
L 441.206567 313.073707 
L 440.970961 313.203225 
L 440.730911 313.332743 
L 440.486334 313.462261 
L 440.237143 313.591778 
L 439.983252 313.721296 
L 439.724571 313.850814 
L 439.461012 313.980331 
L 439.192481 314.109849 
L 438.918885 314.239367 
L 438.640129 314.368884 
L 438.356114 314.498402 
L 438.066743 314.62792 
L 437.771913 314.757437 
L 437.471522 314.886955 
L 437.165465 315.016473 
L 436.853635 315.145991 
L 436.535923 315.275508 
L 436.212218 315.405026 
L 435.882408 315.534544 
L 435.546377 315.664061 
L 435.204007 315.793579 
L 434.85518 315.923097 
L 434.499772 316.052614 
L 434.137662 316.182132 
L 433.76872 316.31165 
L 433.39282 316.441167 
L 433.00983 316.570685 
L 432.619615 316.700203 
L 432.22204 316.82972 
L 431.816966 316.959238 
L 431.404251 317.088756 
L 430.983752 317.218274 
L 430.555321 317.347791 
L 430.118809 317.477309 
L 429.674063 317.606827 
L 429.220928 317.736344 
L 428.759247 317.865862 
L 428.288856 317.99538 
L 427.809594 318.124897 
L 427.321291 318.254415 
L 426.823778 318.383933 
L 426.31688 318.51345 
L 425.800422 318.642968 
L 425.274221 318.772486 
L 424.738096 318.902004 
L 424.191858 319.031521 
L 423.635316 319.161039 
L 423.068277 319.290557 
L 422.490543 319.420074 
L 421.901911 319.549592 
L 421.302176 319.67911 
L 420.691129 319.808627 
L 420.068556 319.938145 
L 419.43424 320.067663 
L 418.787959 320.19718 
L 418.129488 320.326698 
L 417.458597 320.456216 
L 416.775051 320.585733 
L 416.078612 320.715251 
L 415.369036 320.844769 
L 414.646077 320.974287 
L 413.90948 321.103804 
L 413.15899 321.233322 
L 412.394344 321.36284 
L 411.615275 321.492357 
L 410.821511 321.621875 
L 496.573345 321.621875 
L 496.573345 321.621875 
L 495.779581 321.492357 
L 495.000512 321.36284 
L 494.235866 321.233322 
L 493.485376 321.103804 
L 492.74878 320.974287 
L 492.02582 320.844769 
L 491.316245 320.715251 
L 490.619806 320.585733 
L 489.93626 320.456216 
L 489.265368 320.326698 
L 488.606897 320.19718 
L 487.960617 320.067663 
L 487.326301 319.938145 
L 486.703728 319.808627 
L 486.09268 319.67911 
L 485.492945 319.549592 
L 484.904313 319.420074 
L 484.326579 319.290557 
L 483.75954 319.161039 
L 483.202999 319.031521 
L 482.65676 318.902004 
L 482.120635 318.772486 
L 481.594435 318.642968 
L 481.077976 318.51345 
L 480.571079 318.383933 
L 480.073565 318.254415 
L 479.585263 318.124897 
L 479.106 317.99538 
L 478.63561 317.865862 
L 478.173928 317.736344 
L 477.720793 317.606827 
L 477.276048 317.477309 
L 476.839535 317.347791 
L 476.411104 317.218274 
L 475.990605 317.088756 
L 475.57789 316.959238 
L 475.172816 316.82972 
L 474.775241 316.700203 
L 474.385027 316.570685 
L 474.002036 316.441167 
L 473.626136 316.31165 
L 473.257195 316.182132 
L 472.895084 316.052614 
L 472.539677 315.923097 
L 472.190849 315.793579 
L 471.84848 315.664061 
L 471.512448 315.534544 
L 471.182638 315.405026 
L 470.858933 315.275508 
L 470.541222 315.145991 
L 470.229392 315.016473 
L 469.923335 314.886955 
L 469.622944 314.757437 
L 469.328114 314.62792 
L 469.038742 314.498402 
L 468.754728 314.368884 
L 468.475971 314.239367 
L 468.202375 314.109849 
L 467.933844 313.980331 
L 467.670285 313.850814 
L 467.411605 313.721296 
L 467.157713 313.591778 
L 466.908522 313.462261 
L 466.663945 313.332743 
L 466.423895 313.203225 
L 466.188289 313.073707 
L 465.957045 312.94419 
L 465.730083 312.814672 
L 465.507321 312.685154 
L 465.288684 312.555637 
L 465.074095 312.426119 
L 464.863478 312.296601 
L 464.65676 312.167084 
L 464.45387 312.037566 
L 464.254735 311.908048 
L 464.059287 311.778531 
L 463.867458 311.649013 
L 463.679179 311.519495 
L 463.494387 311.389978 
L 463.313015 311.26046 
L 463.135001 311.130942 
L 462.960283 311.001424 
L 462.788799 310.871907 
L 462.62049 310.742389 
L 462.455297 310.612871 
L 462.293162 310.483354 
L 462.134029 310.353836 
L 461.977842 310.224318 
L 461.824546 310.094801 
L 461.674088 309.965283 
L 461.526416 309.835765 
L 461.381478 309.706248 
L 461.239223 309.57673 
L 461.099601 309.447212 
L 460.962564 309.317694 
L 460.828064 309.188177 
L 460.696054 309.058659 
L 460.566489 308.929141 
L 460.439321 308.799624 
L 460.439321 308.799624 
L 460.439321 284.748847 
L 454.736202 284.748847 
L 454.736202 284.006316 
L 460.439321 284.006316 
L 460.439321 281.289737 
z
" clip-path="url(#p6ffeffa443)" style="fill: #d62728; fill-opacity: 0.5"/>
       </g>
       <g id="matplotlib.axis_1">
        <g id="xtick_1">
         <g id="line2d_1"/>
         <g id="text_1">
          <!-- OUT -->
          <g transform="translate(147.114265 332.720312) scale(0.1 -0.1)">
           <defs>
            <path id="DejaVuSans-4f" d="M 2522 4238 
Q 1834 4238 1429 3725 
Q 1025 3213 1025 2328 
Q 1025 1447 1429 934 
Q 1834 422 2522 422 
Q 3209 422 3611 934 
Q 4013 1447 4013 2328 
Q 4013 3213 3611 3725 
Q 3209 4238 2522 4238 
z
M 2522 4750 
Q 3503 4750 4090 4092 
Q 4678 3434 4678 2328 
Q 4678 1225 4090 567 
Q 3503 -91 2522 -91 
Q 1538 -91 948 565 
Q 359 1222 359 2328 
Q 359 3434 948 4092 
Q 1538 4750 2522 4750 
z
" transform="scale(0.015625)"/>
            <path id="DejaVuSans-55" d="M 556 4666 
L 1191 4666 
L 1191 1831 
Q 1191 1081 1462 751 
Q 1734 422 2344 422 
Q 2950 422 3222 751 
Q 3494 1081 3494 1831 
L 3494 4666 
L 4128 4666 
L 4128 1753 
Q 4128 841 3676 375 
Q 3225 -91 2344 -91 
Q 1459 -91 1007 375 
Q 556 841 556 1753 
L 556 4666 
z
" transform="scale(0.015625)"/>
            <path id="DejaVuSans-54" d="M -19 4666 
L 3928 4666 
L 3928 4134 
L 2272 4134 
L 2272 0 
L 1638 0 
L 1638 4134 
L -19 4134 
L -19 4666 
z
" transform="scale(0.015625)"/>
           </defs>
           <use xlink:href="#DejaVuSans-4f"/>
           <use xlink:href="#DejaVuSans-55" x="78.710938"/>
           <use xlink:href="#DejaVuSans-54" x="151.904297"/>
          </g>
         </g>
        </g>
        <g id="xtick_2">
         <g id="line2d_2"/>
         <g id="text_2">
          <!-- SRC -->
          <g transform="translate(562.181162 332.720312) scale(0.1 -0.1)">
           <defs>
            <path id="DejaVuSans-53" d="M 3425 4513 
L 3425 3897 
Q 3066 4069 2747 4153 
Q 2428 4238 2131 4238 
Q 1616 4238 1336 4038 
Q 1056 3838 1056 3469 
Q 1056 3159 1242 3001 
Q 1428 2844 1947 2747 
L 2328 2669 
Q 3034 2534 3370 2195 
Q 3706 1856 3706 1288 
Q 3706 609 3251 259 
Q 2797 -91 1919 -91 
Q 1588 -91 1214 -16 
Q 841 59 441 206 
L 441 856 
Q 825 641 1194 531 
Q 1563 422 1919 422 
Q 2459 422 2753 634 
Q 3047 847 3047 1241 
Q 3047 1584 2836 1778 
Q 2625 1972 2144 2069 
L 1759 2144 
Q 1053 2284 737 2584 
Q 422 2884 422 3419 
Q 422 4038 858 4394 
Q 1294 4750 2059 4750 
Q 2388 4750 2728 4690 
Q 3069 4631 3425 4513 
z
" transform="scale(0.015625)"/>
            <path id="DejaVuSans-52" d="M 2841 2188 
Q 3044 2119 3236 1894 
Q 3428 1669 3622 1275 
L 4263 0 
L 3584 0 
L 2988 1197 
Q 2756 1666 2539 1819 
Q 2322 1972 1947 1972 
L 1259 1972 
L 1259 0 
L 628 0 
L 628 4666 
L 2053 4666 
Q 2853 4666 3247 4331 
Q 3641 3997 3641 3322 
Q 3641 2881 3436 2590 
Q 3231 2300 2841 2188 
z
M 1259 4147 
L 1259 2491 
L 2053 2491 
Q 2509 2491 2742 2702 
Q 2975 2913 2975 3322 
Q 2975 3731 2742 3939 
Q 2509 4147 2053 4147 
L 1259 4147 
z
" transform="scale(0.015625)"/>
            <path id="DejaVuSans-43" d="M 4122 4306 
L 4122 3641 
Q 3803 3938 3442 4084 
Q 3081 4231 2675 4231 
Q 1875 4231 1450 3742 
Q 1025 3253 1025 2328 
Q 1025 1406 1450 917 
Q 1875 428 2675 428 
Q 3081 428 3442 575 
Q 3803 722 4122 1019 
L 4122 359 
Q 3791 134 3420 21 
Q 3050 -91 2638 -91 
Q 1578 -91 968 557 
Q 359 1206 359 2328 
Q 359 3453 968 4101 
Q 1578 4750 2638 4750 
Q 3056 4750 3426 4639 
Q 3797 4528 4122 4306 
z
" transform="scale(0.015625)"/>
           </defs>
           <use xlink:href="#DejaVuSans-53"/>
           <use xlink:href="#DejaVuSans-52" x="63.476562"/>
           <use xlink:href="#DejaVuSans-43" x="127.958984"/>
          </g>
         </g>
        </g>
        <g id="xtick_3">
         <g id="line2d_3"/>
         <g id="text_3">
          <!-- TAR -->
          <g transform="translate(444.136491 332.720312) scale(0.1 -0.1)">
           <defs>
            <path id="DejaVuSans-41" d="M 2188 4044 
L 1331 1722 
L 3047 1722 
L 2188 4044 
z
M 1831 4666 
L 2547 4666 
L 4325 0 
L 3669 0 
L 3244 1197 
L 1141 1197 
L 716 0 
L 50 0 
L 1831 4666 
z
" transform="scale(0.015625)"/>
           </defs>
           <use xlink:href="#DejaVuSans-54"/>
           <use xlink:href="#DejaVuSans-41" x="53.333984"/>
           <use xlink:href="#DejaVuSans-52" x="121.742188"/>
          </g>
         </g>
        </g>
       </g>
       <g id="matplotlib.axis_2">
        <g id="ytick_1">
         <g id="line2d_4">
          <defs>
           <path id="m3240fcfd9a" d="M 0 0 
L -3.5 0 
" style="stroke: #000000; stroke-width: 0.8"/>
          </defs>
          <g>
           <use xlink:href="#m3240fcfd9a" x="63.290625" y="321.621875" style="stroke: #000000; stroke-width: 0.8"/>
          </g>
         </g>
         <g id="text_4">
          <!-- 0 -->
          <g transform="translate(49.928125 325.421094) scale(0.1 -0.1)">
           <defs>
            <path id="DejaVuSans-30" d="M 2034 4250 
Q 1547 4250 1301 3770 
Q 1056 3291 1056 2328 
Q 1056 1369 1301 889 
Q 1547 409 2034 409 
Q 2525 409 2770 889 
Q 3016 1369 3016 2328 
Q 3016 3291 2770 3770 
Q 2525 4250 2034 4250 
z
M 2034 4750 
Q 2819 4750 3233 4129 
Q 3647 3509 3647 2328 
Q 3647 1150 3233 529 
Q 2819 -91 2034 -91 
Q 1250 -91 836 529 
Q 422 1150 422 2328 
Q 422 3509 836 4129 
Q 1250 4750 2034 4750 
z
" transform="scale(0.015625)"/>
           </defs>
           <use xlink:href="#DejaVuSans-30"/>
          </g>
         </g>
        </g>
        <g id="ytick_2">
         <g id="line2d_5">
          <g>
           <use xlink:href="#m3240fcfd9a" x="63.290625" y="285.400826" style="stroke: #000000; stroke-width: 0.8"/>
          </g>
         </g>
         <g id="text_5">
          <!-- 2000 -->
          <g transform="translate(30.840625 289.200045) scale(0.1 -0.1)">
           <defs>
            <path id="DejaVuSans-32" d="M 1228 531 
L 3431 531 
L 3431 0 
L 469 0 
L 469 531 
Q 828 903 1448 1529 
Q 2069 2156 2228 2338 
Q 2531 2678 2651 2914 
Q 2772 3150 2772 3378 
Q 2772 3750 2511 3984 
Q 2250 4219 1831 4219 
Q 1534 4219 1204 4116 
Q 875 4013 500 3803 
L 500 4441 
Q 881 4594 1212 4672 
Q 1544 4750 1819 4750 
Q 2544 4750 2975 4387 
Q 3406 4025 3406 3419 
Q 3406 3131 3298 2873 
Q 3191 2616 2906 2266 
Q 2828 2175 2409 1742 
Q 1991 1309 1228 531 
z
" transform="scale(0.015625)"/>
           </defs>
           <use xlink:href="#DejaVuSans-32"/>
           <use xlink:href="#DejaVuSans-30" x="63.623047"/>
           <use xlink:href="#DejaVuSans-30" x="127.246094"/>
           <use xlink:href="#DejaVuSans-30" x="190.869141"/>
          </g>
         </g>
        </g>
        <g id="ytick_3">
         <g id="line2d_6">
          <g>
           <use xlink:href="#m3240fcfd9a" x="63.290625" y="249.179777" style="stroke: #000000; stroke-width: 0.8"/>
          </g>
         </g>
         <g id="text_6">
          <!-- 4000 -->
          <g transform="translate(30.840625 252.978996) scale(0.1 -0.1)">
           <defs>
            <path id="DejaVuSans-34" d="M 2419 4116 
L 825 1625 
L 2419 1625 
L 2419 4116 
z
M 2253 4666 
L 3047 4666 
L 3047 1625 
L 3713 1625 
L 3713 1100 
L 3047 1100 
L 3047 0 
L 2419 0 
L 2419 1100 
L 313 1100 
L 313 1709 
L 2253 4666 
z
" transform="scale(0.015625)"/>
           </defs>
           <use xlink:href="#DejaVuSans-34"/>
           <use xlink:href="#DejaVuSans-30" x="63.623047"/>
           <use xlink:href="#DejaVuSans-30" x="127.246094"/>
           <use xlink:href="#DejaVuSans-30" x="190.869141"/>
          </g>
         </g>
        </g>
        <g id="ytick_4">
         <g id="line2d_7">
          <g>
           <use xlink:href="#m3240fcfd9a" x="63.290625" y="212.958729" style="stroke: #000000; stroke-width: 0.8"/>
          </g>
         </g>
         <g id="text_7">
          <!-- 6000 -->
          <g transform="translate(30.840625 216.757947) scale(0.1 -0.1)">
           <defs>
            <path id="DejaVuSans-36" d="M 2113 2584 
Q 1688 2584 1439 2293 
Q 1191 2003 1191 1497 
Q 1191 994 1439 701 
Q 1688 409 2113 409 
Q 2538 409 2786 701 
Q 3034 994 3034 1497 
Q 3034 2003 2786 2293 
Q 2538 2584 2113 2584 
z
M 3366 4563 
L 3366 3988 
Q 3128 4100 2886 4159 
Q 2644 4219 2406 4219 
Q 1781 4219 1451 3797 
Q 1122 3375 1075 2522 
Q 1259 2794 1537 2939 
Q 1816 3084 2150 3084 
Q 2853 3084 3261 2657 
Q 3669 2231 3669 1497 
Q 3669 778 3244 343 
Q 2819 -91 2113 -91 
Q 1303 -91 875 529 
Q 447 1150 447 2328 
Q 447 3434 972 4092 
Q 1497 4750 2381 4750 
Q 2619 4750 2861 4703 
Q 3103 4656 3366 4563 
z
" transform="scale(0.015625)"/>
           </defs>
           <use xlink:href="#DejaVuSans-36"/>
           <use xlink:href="#DejaVuSans-30" x="63.623047"/>
           <use xlink:href="#DejaVuSans-30" x="127.246094"/>
           <use xlink:href="#DejaVuSans-30" x="190.869141"/>
          </g>
         </g>
        </g>
        <g id="ytick_5">
         <g id="line2d_8">
          <g>
           <use xlink:href="#m3240fcfd9a" x="63.290625" y="176.73768" style="stroke: #000000; stroke-width: 0.8"/>
          </g>
         </g>
         <g id="text_8">
          <!-- 8000 -->
          <g transform="translate(30.840625 180.536899) scale(0.1 -0.1)">
           <defs>
            <path id="DejaVuSans-38" d="M 2034 2216 
Q 1584 2216 1326 1975 
Q 1069 1734 1069 1313 
Q 1069 891 1326 650 
Q 1584 409 2034 409 
Q 2484 409 2743 651 
Q 3003 894 3003 1313 
Q 3003 1734 2745 1975 
Q 2488 2216 2034 2216 
z
M 1403 2484 
Q 997 2584 770 2862 
Q 544 3141 544 3541 
Q 544 4100 942 4425 
Q 1341 4750 2034 4750 
Q 2731 4750 3128 4425 
Q 3525 4100 3525 3541 
Q 3525 3141 3298 2862 
Q 3072 2584 2669 2484 
Q 3125 2378 3379 2068 
Q 3634 1759 3634 1313 
Q 3634 634 3220 271 
Q 2806 -91 2034 -91 
Q 1263 -91 848 271 
Q 434 634 434 1313 
Q 434 1759 690 2068 
Q 947 2378 1403 2484 
z
M 1172 3481 
Q 1172 3119 1398 2916 
Q 1625 2713 2034 2713 
Q 2441 2713 2670 2916 
Q 2900 3119 2900 3481 
Q 2900 3844 2670 4047 
Q 2441 4250 2034 4250 
Q 1625 4250 1398 4047 
Q 1172 3844 1172 3481 
z
" transform="scale(0.015625)"/>
           </defs>
           <use xlink:href="#DejaVuSans-38"/>
           <use xlink:href="#DejaVuSans-30" x="63.623047"/>
           <use xlink:href="#DejaVuSans-30" x="127.246094"/>
           <use xlink:href="#DejaVuSans-30" x="190.869141"/>
          </g>
         </g>
        </g>
        <g id="ytick_6">
         <g id="line2d_9">
          <g>
           <use xlink:href="#m3240fcfd9a" x="63.290625" y="140.516631" style="stroke: #000000; stroke-width: 0.8"/>
          </g>
         </g>
         <g id="text_9">
          <!-- 10000 -->
          <g transform="translate(24.478125 144.31585) scale(0.1 -0.1)">
           <defs>
            <path id="DejaVuSans-31" d="M 794 531 
L 1825 531 
L 1825 4091 
L 703 3866 
L 703 4441 
L 1819 4666 
L 2450 4666 
L 2450 531 
L 3481 531 
L 3481 0 
L 794 0 
L 794 531 
z
" transform="scale(0.015625)"/>
           </defs>
           <use xlink:href="#DejaVuSans-31"/>
           <use xlink:href="#DejaVuSans-30" x="63.623047"/>
           <use xlink:href="#DejaVuSans-30" x="127.246094"/>
           <use xlink:href="#DejaVuSans-30" x="190.869141"/>
           <use xlink:href="#DejaVuSans-30" x="254.492188"/>
          </g>
         </g>
        </g>
        <g id="ytick_7">
         <g id="line2d_10">
          <g>
           <use xlink:href="#m3240fcfd9a" x="63.290625" y="104.295582" style="stroke: #000000; stroke-width: 0.8"/>
          </g>
         </g>
         <g id="text_10">
          <!-- 12000 -->
          <g transform="translate(24.478125 108.094801) scale(0.1 -0.1)">
           <use xlink:href="#DejaVuSans-31"/>
           <use xlink:href="#DejaVuSans-32" x="63.623047"/>
           <use xlink:href="#DejaVuSans-30" x="127.246094"/>
           <use xlink:href="#DejaVuSans-30" x="190.869141"/>
           <use xlink:href="#DejaVuSans-30" x="254.492188"/>
          </g>
         </g>
        </g>
        <g id="ytick_8">
         <g id="line2d_11">
          <g>
           <use xlink:href="#m3240fcfd9a" x="63.290625" y="68.074533" style="stroke: #000000; stroke-width: 0.8"/>
          </g>
         </g>
         <g id="text_11">
          <!-- 14000 -->
          <g transform="translate(24.478125 71.873752) scale(0.1 -0.1)">
           <use xlink:href="#DejaVuSans-31"/>
           <use xlink:href="#DejaVuSans-34" x="63.623047"/>
           <use xlink:href="#DejaVuSans-30" x="127.246094"/>
           <use xlink:href="#DejaVuSans-30" x="190.869141"/>
           <use xlink:href="#DejaVuSans-30" x="254.492188"/>
          </g>
         </g>
        </g>
        <g id="ytick_9">
         <g id="line2d_12">
          <g>
           <use xlink:href="#m3240fcfd9a" x="63.290625" y="31.853485" style="stroke: #000000; stroke-width: 0.8"/>
          </g>
         </g>
         <g id="text_12">
          <!-- 16000 -->
          <g transform="translate(24.478125 35.652703) scale(0.1 -0.1)">
           <use xlink:href="#DejaVuSans-31"/>
           <use xlink:href="#DejaVuSans-36" x="63.623047"/>
           <use xlink:href="#DejaVuSans-30" x="127.246094"/>
           <use xlink:href="#DejaVuSans-30" x="190.869141"/>
           <use xlink:href="#DejaVuSans-30" x="254.492188"/>
          </g>
         </g>
        </g>
        <g id="text_13">
         <!-- time ago (generations) -->
         <g transform="translate(18.398438 223.682031) rotate(-90) scale(0.1 -0.1)">
          <defs>
           <path id="DejaVuSans-74" d="M 1172 4494 
L 1172 3500 
L 2356 3500 
L 2356 3053 
L 1172 3053 
L 1172 1153 
Q 1172 725 1289 603 
Q 1406 481 1766 481 
L 2356 481 
L 2356 0 
L 1766 0 
Q 1100 0 847 248 
Q 594 497 594 1153 
L 594 3053 
L 172 3053 
L 172 3500 
L 594 3500 
L 594 4494 
L 1172 4494 
z
" transform="scale(0.015625)"/>
           <path id="DejaVuSans-69" d="M 603 3500 
L 1178 3500 
L 1178 0 
L 603 0 
L 603 3500 
z
M 603 4863 
L 1178 4863 
L 1178 4134 
L 603 4134 
L 603 4863 
z
" transform="scale(0.015625)"/>
           <path id="DejaVuSans-6d" d="M 3328 2828 
Q 3544 3216 3844 3400 
Q 4144 3584 4550 3584 
Q 5097 3584 5394 3201 
Q 5691 2819 5691 2113 
L 5691 0 
L 5113 0 
L 5113 2094 
Q 5113 2597 4934 2840 
Q 4756 3084 4391 3084 
Q 3944 3084 3684 2787 
Q 3425 2491 3425 1978 
L 3425 0 
L 2847 0 
L 2847 2094 
Q 2847 2600 2669 2842 
Q 2491 3084 2119 3084 
Q 1678 3084 1418 2786 
Q 1159 2488 1159 1978 
L 1159 0 
L 581 0 
L 581 3500 
L 1159 3500 
L 1159 2956 
Q 1356 3278 1631 3431 
Q 1906 3584 2284 3584 
Q 2666 3584 2933 3390 
Q 3200 3197 3328 2828 
z
" transform="scale(0.015625)"/>
           <path id="DejaVuSans-65" d="M 3597 1894 
L 3597 1613 
L 953 1613 
Q 991 1019 1311 708 
Q 1631 397 2203 397 
Q 2534 397 2845 478 
Q 3156 559 3463 722 
L 3463 178 
Q 3153 47 2828 -22 
Q 2503 -91 2169 -91 
Q 1331 -91 842 396 
Q 353 884 353 1716 
Q 353 2575 817 3079 
Q 1281 3584 2069 3584 
Q 2775 3584 3186 3129 
Q 3597 2675 3597 1894 
z
M 3022 2063 
Q 3016 2534 2758 2815 
Q 2500 3097 2075 3097 
Q 1594 3097 1305 2825 
Q 1016 2553 972 2059 
L 3022 2063 
z
" transform="scale(0.015625)"/>
           <path id="DejaVuSans-20" transform="scale(0.015625)"/>
           <path id="DejaVuSans-61" d="M 2194 1759 
Q 1497 1759 1228 1600 
Q 959 1441 959 1056 
Q 959 750 1161 570 
Q 1363 391 1709 391 
Q 2188 391 2477 730 
Q 2766 1069 2766 1631 
L 2766 1759 
L 2194 1759 
z
M 3341 1997 
L 3341 0 
L 2766 0 
L 2766 531 
Q 2569 213 2275 61 
Q 1981 -91 1556 -91 
Q 1019 -91 701 211 
Q 384 513 384 1019 
Q 384 1609 779 1909 
Q 1175 2209 1959 2209 
L 2766 2209 
L 2766 2266 
Q 2766 2663 2505 2880 
Q 2244 3097 1772 3097 
Q 1472 3097 1187 3025 
Q 903 2953 641 2809 
L 641 3341 
Q 956 3463 1253 3523 
Q 1550 3584 1831 3584 
Q 2591 3584 2966 3190 
Q 3341 2797 3341 1997 
z
" transform="scale(0.015625)"/>
           <path id="DejaVuSans-67" d="M 2906 1791 
Q 2906 2416 2648 2759 
Q 2391 3103 1925 3103 
Q 1463 3103 1205 2759 
Q 947 2416 947 1791 
Q 947 1169 1205 825 
Q 1463 481 1925 481 
Q 2391 481 2648 825 
Q 2906 1169 2906 1791 
z
M 3481 434 
Q 3481 -459 3084 -895 
Q 2688 -1331 1869 -1331 
Q 1566 -1331 1297 -1286 
Q 1028 -1241 775 -1147 
L 775 -588 
Q 1028 -725 1275 -790 
Q 1522 -856 1778 -856 
Q 2344 -856 2625 -561 
Q 2906 -266 2906 331 
L 2906 616 
Q 2728 306 2450 153 
Q 2172 0 1784 0 
Q 1141 0 747 490 
Q 353 981 353 1791 
Q 353 2603 747 3093 
Q 1141 3584 1784 3584 
Q 2172 3584 2450 3431 
Q 2728 3278 2906 2969 
L 2906 3500 
L 3481 3500 
L 3481 434 
z
" transform="scale(0.015625)"/>
           <path id="DejaVuSans-6f" d="M 1959 3097 
Q 1497 3097 1228 2736 
Q 959 2375 959 1747 
Q 959 1119 1226 758 
Q 1494 397 1959 397 
Q 2419 397 2687 759 
Q 2956 1122 2956 1747 
Q 2956 2369 2687 2733 
Q 2419 3097 1959 3097 
z
M 1959 3584 
Q 2709 3584 3137 3096 
Q 3566 2609 3566 1747 
Q 3566 888 3137 398 
Q 2709 -91 1959 -91 
Q 1206 -91 779 398 
Q 353 888 353 1747 
Q 353 2609 779 3096 
Q 1206 3584 1959 3584 
z
" transform="scale(0.015625)"/>
           <path id="DejaVuSans-28" d="M 1984 4856 
Q 1566 4138 1362 3434 
Q 1159 2731 1159 2009 
Q 1159 1288 1364 580 
Q 1569 -128 1984 -844 
L 1484 -844 
Q 1016 -109 783 600 
Q 550 1309 550 2009 
Q 550 2706 781 3412 
Q 1013 4119 1484 4856 
L 1984 4856 
z
" transform="scale(0.015625)"/>
           <path id="DejaVuSans-6e" d="M 3513 2113 
L 3513 0 
L 2938 0 
L 2938 2094 
Q 2938 2591 2744 2837 
Q 2550 3084 2163 3084 
Q 1697 3084 1428 2787 
Q 1159 2491 1159 1978 
L 1159 0 
L 581 0 
L 581 3500 
L 1159 3500 
L 1159 2956 
Q 1366 3272 1645 3428 
Q 1925 3584 2291 3584 
Q 2894 3584 3203 3211 
Q 3513 2838 3513 2113 
z
" transform="scale(0.015625)"/>
           <path id="DejaVuSans-72" d="M 2631 2963 
Q 2534 3019 2420 3045 
Q 2306 3072 2169 3072 
Q 1681 3072 1420 2755 
Q 1159 2438 1159 1844 
L 1159 0 
L 581 0 
L 581 3500 
L 1159 3500 
L 1159 2956 
Q 1341 3275 1631 3429 
Q 1922 3584 2338 3584 
Q 2397 3584 2469 3576 
Q 2541 3569 2628 3553 
L 2631 2963 
z
" transform="scale(0.015625)"/>
           <path id="DejaVuSans-73" d="M 2834 3397 
L 2834 2853 
Q 2591 2978 2328 3040 
Q 2066 3103 1784 3103 
Q 1356 3103 1142 2972 
Q 928 2841 928 2578 
Q 928 2378 1081 2264 
Q 1234 2150 1697 2047 
L 1894 2003 
Q 2506 1872 2764 1633 
Q 3022 1394 3022 966 
Q 3022 478 2636 193 
Q 2250 -91 1575 -91 
Q 1294 -91 989 -36 
Q 684 19 347 128 
L 347 722 
Q 666 556 975 473 
Q 1284 391 1588 391 
Q 1994 391 2212 530 
Q 2431 669 2431 922 
Q 2431 1156 2273 1281 
Q 2116 1406 1581 1522 
L 1381 1569 
Q 847 1681 609 1914 
Q 372 2147 372 2553 
Q 372 3047 722 3315 
Q 1072 3584 1716 3584 
Q 2034 3584 2315 3537 
Q 2597 3491 2834 3397 
z
" transform="scale(0.015625)"/>
           <path id="DejaVuSans-29" d="M 513 4856 
L 1013 4856 
Q 1481 4119 1714 3412 
Q 1947 2706 1947 2009 
Q 1947 1309 1714 600 
Q 1481 -109 1013 -844 
L 513 -844 
Q 928 -128 1133 580 
Q 1338 1288 1338 2009 
Q 1338 2731 1133 3434 
Q 928 4138 513 4856 
z
" transform="scale(0.015625)"/>
          </defs>
          <use xlink:href="#DejaVuSans-74"/>
          <use xlink:href="#DejaVuSans-69" x="39.208984"/>
          <use xlink:href="#DejaVuSans-6d" x="66.992188"/>
          <use xlink:href="#DejaVuSans-65" x="164.404297"/>
          <use xlink:href="#DejaVuSans-20" x="225.927734"/>
          <use xlink:href="#DejaVuSans-61" x="257.714844"/>
          <use xlink:href="#DejaVuSans-67" x="318.994141"/>
          <use xlink:href="#DejaVuSans-6f" x="382.470703"/>
          <use xlink:href="#DejaVuSans-20" x="443.652344"/>
          <use xlink:href="#DejaVuSans-28" x="475.439453"/>
          <use xlink:href="#DejaVuSans-67" x="514.453125"/>
          <use xlink:href="#DejaVuSans-65" x="577.929688"/>
          <use xlink:href="#DejaVuSans-6e" x="639.453125"/>
          <use xlink:href="#DejaVuSans-65" x="702.832031"/>
          <use xlink:href="#DejaVuSans-72" x="764.355469"/>
          <use xlink:href="#DejaVuSans-61" x="805.46875"/>
          <use xlink:href="#DejaVuSans-74" x="866.748047"/>
          <use xlink:href="#DejaVuSans-69" x="905.957031"/>
          <use xlink:href="#DejaVuSans-6f" x="933.740234"/>
          <use xlink:href="#DejaVuSans-6e" x="994.921875"/>
          <use xlink:href="#DejaVuSans-73" x="1058.300781"/>
          <use xlink:href="#DejaVuSans-29" x="1110.400391"/>
         </g>
        </g>
       </g>
       <g id="patch_7">
        <path d="M 295.3929 281.289737 
L 294.3929 281.258301 
L 293.3929 281.22136 
L 292.3929 281.123614 
L 291.3929 281.091092 
L 290.3929 281.017468 
L 289.3929 280.978902 
L 288.3929 280.943489 
L 287.3929 280.885849 
L 286.3929 280.815463 
L 285.3929 280.763499 
L 284.3929 280.704409 
L 283.3929 280.616088 
L 282.3929 280.569943 
L 281.3929 280.527533 
L 280.3929 280.49704 
L 279.3929 280.470995 
L 278.3929 280.449795 
L 277.3929 280.395494 
L 276.3929 280.367556 
L 275.3929 280.337832 
L 274.3929 280.312437 
L 273.3929 280.301237 
L 272.3929 280.291113 
L 271.3929 280.291317 
L 270.3929 280.300827 
L 269.3929 280.312481 
L 268.3929 280.34351 
L 267.3929 280.354678 
L 266.3929 280.384796 
L 265.3929 280.444572 
L 264.3929 280.481764 
L 263.3929 280.52086 
L 262.3929 280.5633 
L 261.3929 280.596065 
L 260.3929 280.663491 
L 259.3929 280.702617 
L 258.3929 280.745292 
L 257.3929 280.815872 
L 256.3929 280.852263 
L 255.3929 280.910666 
L 254.3929 281.021619 
L 253.3929 281.092277 
L 252.3929 281.205217 
L 251.3929 281.25099 
L 250.3929 281.312273 
L 249.3929 281.360773 
L 248.3929 281.441595 
L 247.3929 281.560114 
L 246.3929 281.630325 
L 245.3929 281.713587 
L 244.3929 281.746729 
L 243.3929 281.797966 
L 242.3929 281.866365 
L 241.3929 281.93258 
L 240.3929 282.009497 
L 239.3929 282.036813 
L 238.3929 282.06329 
L 237.3929 282.085941 
L 236.3929 282.105472 
L 235.3929 282.131866 
L 234.3929 282.181637 
L 233.3929 282.21671 
L 232.3929 282.252576 
L 231.3929 282.267943 
L 230.3929 282.283712 
L 229.3929 282.287125 
L 228.3929 282.289543 
L 227.3929 282.289056 
L 226.3929 282.287127 
L 225.3929 282.27387 
L 224.3929 282.26548 
L 223.3929 282.243943 
L 222.3929 282.220911 
L 221.3929 282.203677 
L 220.3929 282.185215 
L 219.3929 282.164762 
L 218.3929 282.148162 
L 217.3929 282.085383 
L 216.3929 282.010118 
L 215.3929 281.977479 
L 214.3929 281.909916 
L 213.3929 281.855868 
L 212.3929 281.822164 
L 211.3929 281.732038 
L 210.3929 281.703503 
L 209.3929 281.672017 
L 208.3929 281.641006 
L 207.3929 281.586198 
L 206.3929 281.521611 
L 205.3929 281.483416 
L 204.3929 281.387481 
L 203.3929 281.338223 
L 202.3929 281.294154 
L 201.3929 281.25403 
L 200.3929 281.145663 
L 199.3929 281.104035 
L 198.3929 281.041894 
L 197.3929 280.971931 
L 196.3929 280.867427 
L 195.3929 280.830439 
L 194.3929 280.784562 
L 193.3929 280.716068 
L 192.3929 280.667322 
L 191.3929 280.589724 
L 190.3929 280.559184 
L 189.3929 280.489669 
L 188.3929 280.465696 
L 187.3929 280.437074 
L 186.3929 280.395281 
L 185.3929 280.373705 
L 184.3929 280.359757 
L 183.3929 280.333035 
L 182.3929 280.323725 
L 181.3929 280.311279 
L 180.3929 280.300224 
L 179.3929 280.294559 
L 178.3929 280.289795 
L 177.302534 280.295343 
" clip-path="url(#p6ffeffa443)" style="fill: none; stroke: #ffffff; stroke-width: 3; stroke-linecap: round"/>
        <path d="M 295.3929 281.289737 
L 294.3929 281.258301 
L 293.3929 281.22136 
L 292.3929 281.123614 
L 291.3929 281.091092 
L 290.3929 281.017468 
L 289.3929 280.978902 
L 288.3929 280.943489 
L 287.3929 280.885849 
L 286.3929 280.815463 
L 285.3929 280.763499 
L 284.3929 280.704409 
L 283.3929 280.616088 
L 282.3929 280.569943 
L 281.3929 280.527533 
L 280.3929 280.49704 
L 279.3929 280.470995 
L 278.3929 280.449795 
L 277.3929 280.395494 
L 276.3929 280.367556 
L 275.3929 280.337832 
L 274.3929 280.312437 
L 273.3929 280.301237 
L 272.3929 280.291113 
L 271.3929 280.291317 
L 270.3929 280.300827 
L 269.3929 280.312481 
L 268.3929 280.34351 
L 267.3929 280.354678 
L 266.3929 280.384796 
L 265.3929 280.444572 
L 264.3929 280.481764 
L 263.3929 280.52086 
L 262.3929 280.5633 
L 261.3929 280.596065 
L 260.3929 280.663491 
L 259.3929 280.702617 
L 258.3929 280.745292 
L 257.3929 280.815872 
L 256.3929 280.852263 
L 255.3929 280.910666 
L 254.3929 281.021619 
L 253.3929 281.092277 
L 252.3929 281.205217 
L 251.3929 281.25099 
L 250.3929 281.312273 
L 249.3929 281.360773 
L 248.3929 281.441595 
L 247.3929 281.560114 
L 246.3929 281.630325 
L 245.3929 281.713587 
L 244.3929 281.746729 
L 243.3929 281.797966 
L 242.3929 281.866365 
L 241.3929 281.93258 
L 240.3929 282.009497 
L 239.3929 282.036813 
L 238.3929 282.06329 
L 237.3929 282.085941 
L 236.3929 282.105472 
L 235.3929 282.131866 
L 234.3929 282.181637 
L 233.3929 282.21671 
L 232.3929 282.252576 
L 231.3929 282.267943 
L 230.3929 282.283712 
L 229.3929 282.287125 
L 228.3929 282.289543 
L 227.3929 282.289056 
L 226.3929 282.287127 
L 225.3929 282.27387 
L 224.3929 282.26548 
L 223.3929 282.243943 
L 222.3929 282.220911 
L 221.3929 282.203677 
L 220.3929 282.185215 
L 219.3929 282.164762 
L 218.3929 282.148162 
L 217.3929 282.085383 
L 216.3929 282.010118 
L 215.3929 281.977479 
L 214.3929 281.909916 
L 213.3929 281.855868 
L 212.3929 281.822164 
L 211.3929 281.732038 
L 210.3929 281.703503 
L 209.3929 281.672017 
L 208.3929 281.641006 
L 207.3929 281.586198 
L 206.3929 281.521611 
L 205.3929 281.483416 
L 204.3929 281.387481 
L 203.3929 281.338223 
L 202.3929 281.294154 
L 201.3929 281.25403 
L 200.3929 281.145663 
L 199.3929 281.104035 
L 198.3929 281.041894 
L 197.3929 280.971931 
L 196.3929 280.867427 
L 195.3929 280.830439 
L 194.3929 280.784562 
L 193.3929 280.716068 
L 192.3929 280.667322 
L 191.3929 280.589724 
L 190.3929 280.559184 
L 189.3929 280.489669 
L 188.3929 280.465696 
L 187.3929 280.437074 
L 186.3929 280.395281 
L 185.3929 280.373705 
L 184.3929 280.359757 
L 183.3929 280.333035 
L 182.3929 280.323725 
L 181.3929 280.311279 
L 180.3929 280.300224 
L 179.3929 280.294559 
L 178.3929 280.289795 
L 177.302534 280.295343 
" clip-path="url(#p6ffeffa443)" style="fill: none; stroke: #1f77b4; stroke-linecap: round"/>
        <path d="M 181.302534 283.289737 
L 180.422165 282.814406 
L 179.544258 282.334152 
L 178.693545 281.799511 
L 177.391371 281.112064 
L 178.318724 281.086049 
L 179.230398 280.673329 
L 180.140662 280.25779 
L 181.483158 279.650986 
L 180.828259 280.289737 
L 180.776295 281.289737 
L 180.717205 283.289737 
z
" clip-path="url(#p6ffeffa443)" style="fill: #ffffff; stroke: #ffffff; stroke-width: 3; stroke-linecap: round"/>
        <path d="M 181.302534 283.289737 
L 180.422165 282.814406 
L 179.544258 282.334152 
L 178.693545 281.799511 
L 177.391371 281.112064 
L 178.318724 281.086049 
L 179.230398 280.673329 
L 180.140662 280.25779 
L 181.483158 279.650986 
L 180.828259 280.289737 
L 180.776295 281.289737 
L 180.717205 283.289737 
z
" clip-path="url(#p6ffeffa443)" style="fill: #ffffff; stroke: #1f77b4; stroke-linecap: round"/>
        <g id="patch_8">
         <path d="M 375.257609 72.964375 
L 376.257609 72.995811 
L 377.257609 73.032752 
L 378.257609 73.130498 
L 379.257609 73.16302 
L 380.257609 73.236645 
L 381.257609 73.27521 
L 382.257609 73.310623 
L 383.257609 73.368263 
L 384.257609 73.438649 
L 385.257609 73.490614 
L 386.257609 73.549703 
L 387.257609 73.638024 
L 388.257609 73.684169 
L 389.257609 73.72658 
L 390.257609 73.757072 
L 391.257609 73.783117 
L 392.257609 73.804317 
L 393.257609 73.858618 
L 394.257609 73.886556 
L 395.257609 73.91628 
L 396.257609 73.941675 
L 397.257609 73.952875 
L 398.257609 73.962999 
L 399.257609 73.962795 
L 400.257609 73.953285 
L 401.257609 73.941631 
L 402.257609 73.910602 
L 403.257609 73.899434 
L 404.257609 73.869317 
L 405.257609 73.80954 
L 406.257609 73.772348 
L 407.257609 73.733252 
L 408.257609 73.690812 
L 409.257609 73.658047 
L 410.257609 73.590621 
L 411.257609 73.551495 
L 412.257609 73.50882 
L 413.257609 73.43824 
L 414.257609 73.401849 
L 415.257609 73.343446 
L 416.257609 73.232493 
L 417.257609 73.161835 
L 418.257609 73.048895 
L 419.257609 73.003122 
L 420.257609 72.941839 
L 421.257609 72.89334 
L 422.257609 72.812517 
L 423.257609 72.693998 
L 424.257609 72.623787 
L 425.257609 72.540525 
L 426.257609 72.507383 
L 427.257609 72.456146 
L 428.257609 72.387747 
L 429.257609 72.321532 
L 430.257609 72.244615 
L 431.257609 72.217299 
L 432.257609 72.190822 
L 433.257609 72.168171 
L 434.257609 72.14864 
L 435.257609 72.122246 
L 436.257609 72.072475 
L 437.257609 72.037402 
L 438.257609 72.001536 
L 439.257609 71.986169 
L 440.257609 71.9704 
L 441.257609 71.966987 
L 442.257609 71.96457 
L 443.257609 71.965056 
L 444.257609 71.966985 
L 445.257609 71.980242 
L 446.257609 71.988633 
L 447.257609 72.010169 
L 448.257609 72.033202 
L 449.257609 72.050435 
L 450.257609 72.068898 
L 451.257609 72.08935 
L 452.257609 72.10595 
L 453.257609 72.168729 
L 454.257609 72.243994 
L 455.257609 72.276633 
L 456.257609 72.344197 
L 457.257609 72.398244 
L 458.257609 72.431948 
L 459.257609 72.522074 
L 460.257609 72.550609 
L 461.257609 72.582095 
L 462.257609 72.613106 
L 463.257609 72.667914 
L 464.257609 72.732501 
L 465.257609 72.770697 
L 466.257609 72.866631 
L 467.257609 72.915889 
L 468.257609 72.959958 
L 469.257609 73.000082 
L 470.257609 73.108449 
L 471.257609 73.150077 
L 472.257609 73.212219 
L 473.257609 73.282181 
L 474.257609 73.386685 
L 475.257609 73.423673 
L 476.257609 73.46955 
L 477.257609 73.538045 
L 478.257609 73.586791 
L 479.257609 73.664388 
L 480.257609 73.694929 
L 481.257609 73.764443 
L 482.257609 73.788416 
L 483.257609 73.817038 
L 484.257609 73.858831 
L 485.257609 73.880407 
L 486.257609 73.894355 
L 487.257609 73.921077 
L 488.257609 73.930387 
L 489.257609 73.942834 
L 490.257609 73.953889 
L 491.257609 73.959553 
L 492.257609 73.964317 
L 493.257609 73.958769 
L 494.257609 73.945481 
L 495.257609 73.937964 
L 496.257609 73.913179 
L 497.257609 73.88961 
L 498.257609 73.85343 
L 499.257609 73.827468 
L 500.257609 73.805146 
L 501.257609 73.736386 
L 502.257609 73.661851 
L 503.257609 73.567872 
L 504.257609 73.51682 
L 505.257609 73.462886 
L 506.257609 73.427635 
L 507.257609 73.321547 
L 508.257609 73.269283 
L 509.257609 73.232376 
L 510.257609 73.201345 
L 511.257609 73.14019 
L 512.257609 73.07277 
L 513.257609 73.023864 
L 514.257609 72.958672 
L 515.257609 72.920484 
L 516.257609 72.878488 
L 517.257609 72.836471 
L 518.257609 72.776955 
L 519.257609 72.663795 
L 520.257609 72.611544 
L 521.257609 72.572126 
L 522.257609 72.525025 
L 523.257609 72.468245 
L 524.257609 72.435582 
L 525.257609 72.399404 
L 526.257609 72.367314 
L 527.257609 72.333034 
L 528.257609 72.274656 
L 529.257609 72.229471 
L 530.257609 72.199847 
L 531.257609 72.149461 
L 532.257609 72.124264 
L 533.257609 72.103213 
L 534.257609 72.068245 
L 535.257609 72.043955 
L 536.257609 72.029888 
L 537.257609 72.010946 
L 538.257609 71.995285 
L 539.257609 71.982733 
L 540.257609 71.976897 
L 541.257609 71.970015 
L 542.257609 71.964841 
L 543.257609 71.966624 
L 544.257609 71.969349 
L 545.257609 71.980503 
L 546.257609 72.008738 
L 547.257609 72.052526 
L 548.257609 72.073215 
L 549.257609 72.114188 
L 550.257609 72.154263 
L 551.257609 72.173373 
L 552.257609 72.195882 
L 553.257609 72.262533 
L 554.257609 72.312243 
L 555.257609 72.385949 
L 556.257609 72.417263 
L 557.257609 72.493885 
L 558.257609 72.532183 
L 559.257609 72.6063 
L 560.257609 72.710358 
L 561.981814 72.780189 
" clip-path="url(#p6ffeffa443)" style="fill: none; stroke: #ffffff; stroke-width: 3; stroke-linecap: round"/>
         <path d="M 375.257609 72.964375 
L 376.257609 72.995811 
L 377.257609 73.032752 
L 378.257609 73.130498 
L 379.257609 73.16302 
L 380.257609 73.236645 
L 381.257609 73.27521 
L 382.257609 73.310623 
L 383.257609 73.368263 
L 384.257609 73.438649 
L 385.257609 73.490614 
L 386.257609 73.549703 
L 387.257609 73.638024 
L 388.257609 73.684169 
L 389.257609 73.72658 
L 390.257609 73.757072 
L 391.257609 73.783117 
L 392.257609 73.804317 
L 393.257609 73.858618 
L 394.257609 73.886556 
L 395.257609 73.91628 
L 396.257609 73.941675 
L 397.257609 73.952875 
L 398.257609 73.962999 
L 399.257609 73.962795 
L 400.257609 73.953285 
L 401.257609 73.941631 
L 402.257609 73.910602 
L 403.257609 73.899434 
L 404.257609 73.869317 
L 405.257609 73.80954 
L 406.257609 73.772348 
L 407.257609 73.733252 
L 408.257609 73.690812 
L 409.257609 73.658047 
L 410.257609 73.590621 
L 411.257609 73.551495 
L 412.257609 73.50882 
L 413.257609 73.43824 
L 414.257609 73.401849 
L 415.257609 73.343446 
L 416.257609 73.232493 
L 417.257609 73.161835 
L 418.257609 73.048895 
L 419.257609 73.003122 
L 420.257609 72.941839 
L 421.257609 72.89334 
L 422.257609 72.812517 
L 423.257609 72.693998 
L 424.257609 72.623787 
L 425.257609 72.540525 
L 426.257609 72.507383 
L 427.257609 72.456146 
L 428.257609 72.387747 
L 429.257609 72.321532 
L 430.257609 72.244615 
L 431.257609 72.217299 
L 432.257609 72.190822 
L 433.257609 72.168171 
L 434.257609 72.14864 
L 435.257609 72.122246 
L 436.257609 72.072475 
L 437.257609 72.037402 
L 438.257609 72.001536 
L 439.257609 71.986169 
L 440.257609 71.9704 
L 441.257609 71.966987 
L 442.257609 71.96457 
L 443.257609 71.965056 
L 444.257609 71.966985 
L 445.257609 71.980242 
L 446.257609 71.988633 
L 447.257609 72.010169 
L 448.257609 72.033202 
L 449.257609 72.050435 
L 450.257609 72.068898 
L 451.257609 72.08935 
L 452.257609 72.10595 
L 453.257609 72.168729 
L 454.257609 72.243994 
L 455.257609 72.276633 
L 456.257609 72.344197 
L 457.257609 72.398244 
L 458.257609 72.431948 
L 459.257609 72.522074 
L 460.257609 72.550609 
L 461.257609 72.582095 
L 462.257609 72.613106 
L 463.257609 72.667914 
L 464.257609 72.732501 
L 465.257609 72.770697 
L 466.257609 72.866631 
L 467.257609 72.915889 
L 468.257609 72.959958 
L 469.257609 73.000082 
L 470.257609 73.108449 
L 471.257609 73.150077 
L 472.257609 73.212219 
L 473.257609 73.282181 
L 474.257609 73.386685 
L 475.257609 73.423673 
L 476.257609 73.46955 
L 477.257609 73.538045 
L 478.257609 73.586791 
L 479.257609 73.664388 
L 480.257609 73.694929 
L 481.257609 73.764443 
L 482.257609 73.788416 
L 483.257609 73.817038 
L 484.257609 73.858831 
L 485.257609 73.880407 
L 486.257609 73.894355 
L 487.257609 73.921077 
L 488.257609 73.930387 
L 489.257609 73.942834 
L 490.257609 73.953889 
L 491.257609 73.959553 
L 492.257609 73.964317 
L 493.257609 73.958769 
L 494.257609 73.945481 
L 495.257609 73.937964 
L 496.257609 73.913179 
L 497.257609 73.88961 
L 498.257609 73.85343 
L 499.257609 73.827468 
L 500.257609 73.805146 
L 501.257609 73.736386 
L 502.257609 73.661851 
L 503.257609 73.567872 
L 504.257609 73.51682 
L 505.257609 73.462886 
L 506.257609 73.427635 
L 507.257609 73.321547 
L 508.257609 73.269283 
L 509.257609 73.232376 
L 510.257609 73.201345 
L 511.257609 73.14019 
L 512.257609 73.07277 
L 513.257609 73.023864 
L 514.257609 72.958672 
L 515.257609 72.920484 
L 516.257609 72.878488 
L 517.257609 72.836471 
L 518.257609 72.776955 
L 519.257609 72.663795 
L 520.257609 72.611544 
L 521.257609 72.572126 
L 522.257609 72.525025 
L 523.257609 72.468245 
L 524.257609 72.435582 
L 525.257609 72.399404 
L 526.257609 72.367314 
L 527.257609 72.333034 
L 528.257609 72.274656 
L 529.257609 72.229471 
L 530.257609 72.199847 
L 531.257609 72.149461 
L 532.257609 72.124264 
L 533.257609 72.103213 
L 534.257609 72.068245 
L 535.257609 72.043955 
L 536.257609 72.029888 
L 537.257609 72.010946 
L 538.257609 71.995285 
L 539.257609 71.982733 
L 540.257609 71.976897 
L 541.257609 71.970015 
L 542.257609 71.964841 
L 543.257609 71.966624 
L 544.257609 71.969349 
L 545.257609 71.980503 
L 546.257609 72.008738 
L 547.257609 72.052526 
L 548.257609 72.073215 
L 549.257609 72.114188 
L 550.257609 72.154263 
L 551.257609 72.173373 
L 552.257609 72.195882 
L 553.257609 72.262533 
L 554.257609 72.312243 
L 555.257609 72.385949 
L 556.257609 72.417263 
L 557.257609 72.493885 
L 558.257609 72.532183 
L 559.257609 72.6063 
L 560.257609 72.710358 
L 561.981814 72.780189 
" clip-path="url(#p6ffeffa443)" style="fill: none; stroke: #1f77b4; stroke-linecap: round"/>
         <path d="M 557.981814 70.964375 
L 558.862182 71.439706 
L 559.740089 71.91996 
L 560.590803 72.454601 
L 561.892977 73.142048 
L 560.965624 73.168063 
L 560.05395 73.580783 
L 559.143685 73.996322 
L 557.80119 74.603126 
L 558.456088 73.964375 
L 558.508053 72.964375 
L 558.567142 70.964375 
z
" clip-path="url(#p6ffeffa443)" style="fill: #ffffff; stroke: #ffffff; stroke-width: 3; stroke-linecap: round"/>
         <path d="M 557.981814 70.964375 
L 558.862182 71.439706 
L 559.740089 71.91996 
L 560.590803 72.454601 
L 561.892977 73.142048 
L 560.965624 73.168063 
L 560.05395 73.580783 
L 559.143685 73.996322 
L 557.80119 74.603126 
L 558.456088 73.964375 
L 558.508053 72.964375 
L 558.567142 70.964375 
z
" clip-path="url(#p6ffeffa443)" style="fill: #ffffff; stroke: #1f77b4; stroke-linecap: round"/>
         <g id="patch_9">
          <path d="M 375.259931 281.289737 
L 376.259931 281.321174 
L 377.259931 281.358114 
L 378.259931 281.455861 
L 379.259931 281.488382 
L 380.259931 281.562007 
L 381.259931 281.600572 
L 382.259931 281.635986 
L 383.259931 281.693625 
L 384.259931 281.764012 
L 385.259931 281.815976 
L 386.259931 281.875066 
L 387.259931 281.963387 
L 388.259931 282.009531 
L 389.259931 282.051942 
L 390.259931 282.082435 
L 391.259931 282.108479 
L 392.259931 282.12968 
L 393.259931 282.183981 
L 394.259931 282.211918 
L 395.259931 282.241642 
L 396.259931 282.267037 
L 397.259931 282.278237 
L 398.259931 282.288361 
L 399.259931 282.288157 
L 400.259931 282.278647 
L 401.259931 282.266994 
L 402.259931 282.235964 
L 403.259931 282.224796 
L 404.259931 282.194679 
L 405.259931 282.134902 
L 406.259931 282.09771 
L 407.259931 282.058614 
L 408.259931 282.016175 
L 409.259931 281.98341 
L 410.259931 281.915983 
L 411.259931 281.876857 
L 412.259931 281.834183 
L 413.259931 281.763602 
L 414.259931 281.727211 
L 415.259931 281.668808 
L 416.259931 281.557855 
L 417.259931 281.487197 
L 418.259931 281.374257 
L 419.259931 281.328484 
L 420.259931 281.267201 
L 421.259931 281.218702 
L 422.259931 281.137879 
L 423.259931 281.01936 
L 424.259931 280.94915 
L 425.259931 280.865887 
L 426.259931 280.832745 
L 427.259931 280.781508 
L 428.259931 280.71311 
L 429.259931 280.646894 
L 430.259931 280.569977 
L 431.259931 280.542662 
L 432.259931 280.516184 
L 433.259931 280.493534 
L 434.259931 280.474002 
L 435.259931 280.447608 
L 436.259931 280.397837 
L 437.259931 280.362764 
L 438.259931 280.326899 
L 439.259931 280.311531 
L 440.259931 280.295762 
L 441.259931 280.29235 
L 442.259931 280.289932 
L 443.837691 280.290418 
" clip-path="url(#p6ffeffa443)" style="fill: none; stroke: #ffffff; stroke-width: 3; stroke-linecap: round"/>
          <path d="M 375.259931 281.289737 
L 376.259931 281.321174 
L 377.259931 281.358114 
L 378.259931 281.455861 
L 379.259931 281.488382 
L 380.259931 281.562007 
L 381.259931 281.600572 
L 382.259931 281.635986 
L 383.259931 281.693625 
L 384.259931 281.764012 
L 385.259931 281.815976 
L 386.259931 281.875066 
L 387.259931 281.963387 
L 388.259931 282.009531 
L 389.259931 282.051942 
L 390.259931 282.082435 
L 391.259931 282.108479 
L 392.259931 282.12968 
L 393.259931 282.183981 
L 394.259931 282.211918 
L 395.259931 282.241642 
L 396.259931 282.267037 
L 397.259931 282.278237 
L 398.259931 282.288361 
L 399.259931 282.288157 
L 400.259931 282.278647 
L 401.259931 282.266994 
L 402.259931 282.235964 
L 403.259931 282.224796 
L 404.259931 282.194679 
L 405.259931 282.134902 
L 406.259931 282.09771 
L 407.259931 282.058614 
L 408.259931 282.016175 
L 409.259931 281.98341 
L 410.259931 281.915983 
L 411.259931 281.876857 
L 412.259931 281.834183 
L 413.259931 281.763602 
L 414.259931 281.727211 
L 415.259931 281.668808 
L 416.259931 281.557855 
L 417.259931 281.487197 
L 418.259931 281.374257 
L 419.259931 281.328484 
L 420.259931 281.267201 
L 421.259931 281.218702 
L 422.259931 281.137879 
L 423.259931 281.01936 
L 424.259931 280.94915 
L 425.259931 280.865887 
L 426.259931 280.832745 
L 427.259931 280.781508 
L 428.259931 280.71311 
L 429.259931 280.646894 
L 430.259931 280.569977 
L 431.259931 280.542662 
L 432.259931 280.516184 
L 433.259931 280.493534 
L 434.259931 280.474002 
L 435.259931 280.447608 
L 436.259931 280.397837 
L 437.259931 280.362764 
L 438.259931 280.326899 
L 439.259931 280.311531 
L 440.259931 280.295762 
L 441.259931 280.29235 
L 442.259931 280.289932 
L 443.837691 280.290418 
" clip-path="url(#p6ffeffa443)" style="fill: none; stroke: #1f77b4; stroke-linecap: round"/>
          <path d="M 439.837691 279.289737 
L 440.718059 279.765068 
L 441.595966 280.245322 
L 442.44668 280.779963 
L 443.748854 281.467411 
L 442.821501 281.493425 
L 441.909827 281.906145 
L 440.999562 282.321684 
L 439.657066 282.928488 
L 440.311965 282.289737 
L 440.363929 281.289737 
L 440.423019 279.289737 
z
" clip-path="url(#p6ffeffa443)" style="fill: #ffffff; stroke: #ffffff; stroke-width: 3; stroke-linecap: round"/>
          <path d="M 439.837691 279.289737 
L 440.718059 279.765068 
L 441.595966 280.245322 
L 442.44668 280.779963 
L 443.748854 281.467411 
L 442.821501 281.493425 
L 441.909827 281.906145 
L 440.999562 282.321684 
L 439.657066 282.928488 
L 440.311965 282.289737 
L 440.363929 281.289737 
L 440.423019 279.289737 
z
" clip-path="url(#p6ffeffa443)" style="fill: #ffffff; stroke: #1f77b4; stroke-linecap: round"/>
          <path d="M 465.842415 291.377299 
" clip-path="url(#p6ffeffa443)" style="fill: none; stroke-dasharray: 3.7,1.6; stroke-dashoffset: 0; stroke: #2ca02c"/>
          <path d="M 464.842415 291.377299 
L 466.842415 292.377299 
L 466.842415 290.377299 
z
" clip-path="url(#p6ffeffa443)" style="fill: #2ca02c; stroke: #2ca02c; stroke-linejoin: miter"/>
          <g id="patch_10">
           <path d="M 63.290625 321.621875 
L 63.290625 10.8 
" style="fill: none; stroke: #000000; stroke-width: 0.8; stroke-linejoin: miter; stroke-linecap: square"/>
          </g>
          <g id="text_14">
           <g id="patch_11">
            <path d="M 324.671507 152.883931 
L 345.976194 152.883931 
Q 347.976194 152.883931 347.976194 150.883931 
L 347.976194 141.205806 
Q 347.976194 139.205806 345.976194 139.205806 
L 324.671507 139.205806 
Q 322.671507 139.205806 322.671507 141.205806 
L 322.671507 150.883931 
Q 322.671507 152.883931 324.671507 152.883931 
z
" style="fill: #ffffff; opacity: 0.6"/>
           </g>
           <!-- ANC -->
           <g transform="translate(324.671507 148.804244) scale(0.1 -0.1)">
            <defs>
             <path id="DejaVuSans-4e" d="M 628 4666 
L 1478 4666 
L 3547 763 
L 3547 4666 
L 4159 4666 
L 4159 0 
L 3309 0 
L 1241 3903 
L 1241 0 
L 628 0 
L 628 4666 
z
" transform="scale(0.015625)"/>
            </defs>
            <use xlink:href="#DejaVuSans-41"/>
            <use xlink:href="#DejaVuSans-4e" x="68.408203"/>
            <use xlink:href="#DejaVuSans-43" x="143.212891"/>
           </g>
          </g>
         </g>
        </g>
        <defs>
         <clipPath id="p6ffeffa443">
          <rect x="63.290625" y="10.8" width="540.309375" height="310.821875"/>
         </clipPath>
        </defs>
       </g>
      </g>
     </g>
    </g>
   </g>
  </g>
 </g>
</svg>
