<?xml version="1.0" encoding="utf-8" standalone="no"?>
<!DOCTYPE svg PUBLIC "-//W3C//DTD SVG 1.1//EN"
  "http://www.w3.org/Graphics/SVG/1.1/DTD/svg11.dtd">
<svg xmlns:xlink="http://www.w3.org/1999/xlink" width="614.4pt" height="345.6pt" viewBox="0 0 614.4 345.6" xmlns="http://www.w3.org/2000/svg" version="1.1">
 <metadata>
  <rdf:RDF xmlns:dc="http://purl.org/dc/elements/1.1/" xmlns:cc="http://creativecommons.org/ns#" xmlns:rdf="http://www.w3.org/1999/02/22-rdf-syntax-ns#">
   <cc:Work>
    <dc:type rdf:resource="http://purl.org/dc/dcmitype/StillImage"/>
    <dc:date>2024-04-17T19:40:08.173085</dc:date>
    <dc:format>image/svg+xml</dc:format>
    <dc:creator>
     <cc:Agent>
      <dc:title>Matplotlib v3.7.1, https://matplotlib.org/</dc:title>
     </cc:Agent>
    </dc:creator>
   </cc:Work>
  </rdf:RDF>
 </metadata>
 <defs>
  <style type="text/css">*{stroke-linejoin: round; stroke-linecap: butt}</style>
 </defs>
 <g id="figure_1">
  <g id="patch_1">
   <path d="M 0 345.6 
L 614.4 345.6 
L 614.4 0 
L 0 0 
z
" style="fill: #ffffff"/>
  </g>
  <g id="axes_1">
   <g id="patch_2">
    <path d="M 63.290625 321.621875 
L 603.6 321.621875 
L 603.6 10.8 
L 63.290625 10.8 
z
" style="fill: #ffffff"/>
   </g>
   <path d="M 560.122358 309.117564 
L 559.122358 309.086128 
L 558.122358 309.049187 
L 557.122358 308.951441 
L 556.122358 308.918919 
L 555.122358 308.845295 
L 554.122358 308.806729 
L 553.122358 308.771316 
L 552.122358 308.713676 
L 551.122358 308.64329 
L 550.122358 308.591326 
L 549.122358 308.532236 
L 548.122358 308.443915 
L 547.122358 308.397771 
L 546.122358 308.35536 
L 545.122358 308.324867 
L 544.122358 308.298822 
L 543.122358 308.277622 
L 542.122358 308.223321 
L 541.122358 308.195383 
L 540.122358 308.165659 
L 539.122358 308.140264 
L 538.122358 308.129064 
L 537.122358 308.11894 
L 536.122358 308.119144 
L 535.122358 308.128654 
L 534.122358 308.140308 
L 533.122358 308.171337 
L 532.122358 308.182505 
L 531.122358 308.212623 
L 530.122358 308.2724 
L 529.122358 308.309591 
L 528.122358 308.348687 
L 527.122358 308.391127 
L 526.122358 308.423892 
L 525.122358 308.491318 
L 524.122358 308.530444 
L 523.122358 308.573119 
L 522.122358 308.643699 
L 521.122358 308.68009 
L 520.122358 308.738493 
L 519.122358 308.849446 
L 518.122358 308.920104 
L 517.122358 309.033044 
L 516.122358 309.078817 
L 515.122358 309.1401 
L 514.122358 309.1886 
L 513.122358 309.269422 
L 512.122358 309.387941 
L 511.122358 309.458152 
L 510.122358 309.541414 
L 509.122358 309.574556 
L 508.122358 309.625793 
L 507.122358 309.694192 
L 506.122358 309.760407 
L 505.122358 309.837324 
L 504.122358 309.86464 
L 503.122358 309.891117 
L 502.122358 309.913768 
L 501.122358 309.933299 
L 500.122358 309.959693 
L 499.122358 310.009464 
L 498.122358 310.044537 
L 497.122358 310.080403 
L 496.122358 310.09577 
L 495.122358 310.111539 
L 494.122358 310.114952 
L 493.122358 310.11737 
L 492.122358 310.116883 
L 491.122358 310.114954 
L 490.122358 310.101697 
L 489.122358 310.093307 
L 488.122358 310.07177 
L 487.122358 310.048738 
L 486.122358 310.031504 
L 485.122358 310.013042 
L 484.122358 309.992589 
L 483.122358 309.975989 
L 482.122358 309.91321 
L 481.122358 309.837945 
L 480.122358 309.805306 
L 479.122358 309.737743 
L 478.122358 309.683696 
L 477.122358 309.649991 
L 476.122358 309.559865 
L 475.122358 309.53133 
L 474.122358 309.499844 
L 473.122358 309.468833 
L 472.122358 309.414025 
L 471.122358 309.349438 
L 470.122358 309.311243 
L 469.122358 309.215308 
L 468.122358 309.16605 
L 467.122358 309.121981 
L 466.122358 309.081857 
L 465.122358 308.97349 
L 464.122358 308.931862 
L 463.122358 308.869721 
L 462.122358 308.799758 
L 461.122358 308.695254 
L 460.122358 308.658266 
L 459.122358 308.612389 
L 458.122358 308.543895 
L 457.122358 308.495149 
L 456.122358 308.417551 
L 455.122358 308.387011 
L 454.122358 308.317496 
L 453.122358 308.293523 
L 451.997934 308.264901 
" clip-path="url(#pb8f5121dca)" style="fill: none; stroke-dasharray: 3.7,1.6; stroke-dashoffset: 0; stroke: #2ca02c"/>
   <g id="patch_3">
    <path d="M 307.112537 10.8 
L 307.112537 271.909913 
M 325.650712 10.8 
L 325.650712 271.909913 
" clip-path="url(#pb8f5121dca)" style="fill: none; stroke: #ffffff; stroke-width: 3; stroke-linejoin: miter"/>
    <path d="M 307.112537 10.8 
L 307.112537 271.909913 
M 325.650712 10.8 
L 325.650712 271.909913 
" clip-path="url(#pb8f5121dca)" style="fill: none; stroke: #1f77b4; stroke-linejoin: miter"/>
    <g id="PolyCollection_1">
     <path d="M 325.650712 10.8 
L 307.112537 10.8 
L 307.112537 271.909913 
L 325.650712 271.909913 
L 325.650712 271.909913 
L 325.650712 10.8 
z
" clip-path="url(#pb8f5121dca)" style="fill: #1f77b4; fill-opacity: 0.5"/>
    </g>
    <g id="patch_4">
     <path d="M 117.332275 271.909913 
L 117.332275 312.268064 
L 117.332275 312.268064 
L 115.624221 313.496343 
L 113.506606 314.724621 
L 111.103811 315.858416 
L 108.173715 316.992211 
L 104.6006 318.126006 
L 100.243354 319.259802 
L 94.929897 320.393597 
L 88.450384 321.527392 
L 87.850142 321.621875 
M 131.578961 271.909913 
L 131.578961 312.268064 
L 131.578961 312.268064 
L 133.287014 313.496343 
L 135.40463 314.724621 
L 137.807425 315.858416 
L 140.737521 316.992211 
L 144.310635 318.126006 
L 148.667881 319.259802 
L 153.981339 320.393597 
L 160.460851 321.527392 
L 161.061093 321.621875 
L 161.061093 321.621875 
" clip-path="url(#pb8f5121dca)" style="fill: none; stroke: #ffffff; stroke-width: 3; stroke-linejoin: miter"/>
     <path d="M 117.332275 271.909913 
L 117.332275 312.268064 
L 117.332275 312.268064 
L 115.624221 313.496343 
L 113.506606 314.724621 
L 111.103811 315.858416 
L 108.173715 316.992211 
L 104.6006 318.126006 
L 100.243354 319.259802 
L 94.929897 320.393597 
L 88.450384 321.527392 
L 87.850142 321.621875 
M 131.578961 271.909913 
L 131.578961 312.268064 
L 131.578961 312.268064 
L 133.287014 313.496343 
L 135.40463 314.724621 
L 137.807425 315.858416 
L 140.737521 316.992211 
L 144.310635 318.126006 
L 148.667881 319.259802 
L 153.981339 320.393597 
L 160.460851 321.527392 
L 161.061093 321.621875 
L 161.061093 321.621875 
" clip-path="url(#pb8f5121dca)" style="fill: none; stroke: #ff7f0e; stroke-linejoin: miter"/>
     <g id="PolyCollection_2">
      <path d="M 131.578961 271.909913 
L 117.332275 271.909913 
L 117.332275 312.268064 
L 117.332275 312.268064 
L 117.213522 312.362547 
L 117.092789 312.45703 
L 116.970043 312.551513 
L 116.845252 312.645996 
L 116.718379 312.740479 
L 116.589392 312.834962 
L 116.458254 312.929445 
L 116.32493 313.023928 
L 116.189384 313.118411 
L 116.051578 313.212894 
L 115.911474 313.307377 
L 115.769035 313.40186 
L 115.624221 313.496343 
L 115.476993 313.590826 
L 115.327311 313.685308 
L 115.175133 313.779791 
L 115.020418 313.874274 
L 114.863124 313.968757 
L 114.703208 314.06324 
L 114.540626 314.157723 
L 114.375333 314.252206 
L 114.207285 314.346689 
L 114.036435 314.441172 
L 113.862737 314.535655 
L 113.686143 314.630138 
L 113.506606 314.724621 
L 113.324075 314.819104 
L 113.138501 314.913587 
L 112.949834 315.00807 
L 112.758021 315.102552 
L 112.563011 315.197035 
L 112.364749 315.291518 
L 112.163183 315.386001 
L 111.958256 315.480484 
L 111.749913 315.574967 
L 111.538096 315.66945 
L 111.322748 315.763933 
L 111.103811 315.858416 
L 110.881223 315.952899 
L 110.654925 316.047382 
L 110.424853 316.141865 
L 110.190947 316.236348 
L 109.953141 316.330831 
L 109.71137 316.425314 
L 109.465569 316.519796 
L 109.215671 316.614279 
L 108.961606 316.708762 
L 108.703305 316.803245 
L 108.440699 316.897728 
L 108.173715 316.992211 
L 107.902279 317.086694 
L 107.626319 317.181177 
L 107.345758 317.27566 
L 107.06052 317.370143 
L 106.770527 317.464626 
L 106.475699 317.559109 
L 106.175956 317.653592 
L 105.871216 317.748075 
L 105.561396 317.842558 
L 105.246411 317.937041 
L 104.926175 318.031523 
L 104.6006 318.126006 
L 104.269597 318.220489 
L 103.933077 318.314972 
L 103.590946 318.409455 
L 103.243111 318.503938 
L 102.889478 318.598421 
L 102.529949 318.692904 
L 102.164427 318.787387 
L 101.792811 318.88187 
L 101.415 318.976353 
L 101.03089 319.070836 
L 100.640377 319.165319 
L 100.243354 319.259802 
L 99.839712 319.354285 
L 99.429341 319.448767 
L 99.012128 319.54325 
L 98.58796 319.637733 
L 98.156721 319.732216 
L 97.718293 319.826699 
L 97.272555 319.921182 
L 96.819387 320.015665 
L 96.358664 320.110148 
L 95.89026 320.204631 
L 95.414048 320.299114 
L 94.929897 320.393597 
L 94.437674 320.48808 
L 93.937246 320.582563 
L 93.428474 320.677046 
L 92.911222 320.771529 
L 92.385346 320.866012 
L 91.850703 320.960494 
L 91.307147 321.054977 
L 90.75453 321.14946 
L 90.1927 321.243943 
L 89.621503 321.338426 
L 89.040784 321.432909 
L 88.450384 321.527392 
L 87.850142 321.621875 
L 161.061093 321.621875 
L 161.061093 321.621875 
L 160.460851 321.527392 
L 159.870451 321.432909 
L 159.289732 321.338426 
L 158.718536 321.243943 
L 158.156706 321.14946 
L 157.604088 321.054977 
L 157.060533 320.960494 
L 156.52589 320.866012 
L 156.000014 320.771529 
L 155.482761 320.677046 
L 154.97399 320.582563 
L 154.473561 320.48808 
L 153.981339 320.393597 
L 153.497187 320.299114 
L 153.020975 320.204631 
L 152.552571 320.110148 
L 152.091848 320.015665 
L 151.63868 319.921182 
L 151.192943 319.826699 
L 150.754514 319.732216 
L 150.323275 319.637733 
L 149.899107 319.54325 
L 149.481895 319.448767 
L 149.071524 319.354285 
L 148.667881 319.259802 
L 148.270858 319.165319 
L 147.880345 319.070836 
L 147.496235 318.976353 
L 147.118424 318.88187 
L 146.746808 318.787387 
L 146.381286 318.692904 
L 146.021757 318.598421 
L 145.668124 318.503938 
L 145.32029 318.409455 
L 144.978159 318.314972 
L 144.641638 318.220489 
L 144.310635 318.126006 
L 143.985061 318.031523 
L 143.664824 317.937041 
L 143.349839 317.842558 
L 143.040019 317.748075 
L 142.735279 317.653592 
L 142.435536 317.559109 
L 142.140709 317.464626 
L 141.850715 317.370143 
L 141.565477 317.27566 
L 141.284916 317.181177 
L 141.008956 317.086694 
L 140.737521 316.992211 
L 140.470536 316.897728 
L 140.20793 316.803245 
L 139.94963 316.708762 
L 139.695565 316.614279 
L 139.445666 316.519796 
L 139.199865 316.425314 
L 138.958095 316.330831 
L 138.720289 316.236348 
L 138.486382 316.141865 
L 138.256311 316.047382 
L 138.030012 315.952899 
L 137.807425 315.858416 
L 137.588487 315.763933 
L 137.373139 315.66945 
L 137.161323 315.574967 
L 136.95298 315.480484 
L 136.748053 315.386001 
L 136.546486 315.291518 
L 136.348225 315.197035 
L 136.153214 315.102552 
L 135.961402 315.00807 
L 135.772734 314.913587 
L 135.58716 314.819104 
L 135.40463 314.724621 
L 135.225092 314.630138 
L 135.048498 314.535655 
L 134.8748 314.441172 
L 134.703951 314.346689 
L 134.535902 314.252206 
L 134.37061 314.157723 
L 134.208028 314.06324 
L 134.048111 313.968757 
L 133.890817 313.874274 
L 133.736103 313.779791 
L 133.583925 313.685308 
L 133.434242 313.590826 
L 133.287014 313.496343 
L 133.142201 313.40186 
L 132.999761 313.307377 
L 132.859658 313.212894 
L 132.721852 313.118411 
L 132.586305 313.023928 
L 132.452981 312.929445 
L 132.321843 312.834962 
L 132.192856 312.740479 
L 132.065984 312.645996 
L 131.941192 312.551513 
L 131.818446 312.45703 
L 131.697714 312.362547 
L 131.578961 312.268064 
L 131.578961 312.268064 
L 131.578961 271.909913 
z
" clip-path="url(#pb8f5121dca)" style="fill: #ff7f0e; fill-opacity: 0.5"/>
     </g>
     <g id="patch_5">
      <path d="M 565.525451 72.964375 
L 565.525451 321.621875 
M 579.040483 72.964375 
L 579.040483 321.621875 
" clip-path="url(#pb8f5121dca)" style="fill: none; stroke: #ffffff; stroke-width: 3; stroke-linejoin: miter"/>
      <path d="M 565.525451 72.964375 
L 565.525451 321.621875 
M 579.040483 72.964375 
L 579.040483 321.621875 
" clip-path="url(#pb8f5121dca)" style="fill: none; stroke: #2ca02c; stroke-linejoin: miter"/>
      <g id="PolyCollection_3">
       <path d="M 579.040483 72.964375 
L 565.525451 72.964375 
L 565.525451 321.621875 
L 579.040483 321.621875 
L 579.040483 321.621875 
L 579.040483 72.964375 
z
" clip-path="url(#pb8f5121dca)" style="fill: #2ca02c; fill-opacity: 0.5"/>
      </g>
      <g id="patch_6">
       <path d="M 442.069751 292.6446 
L 442.069751 300.166725 
L 444.147913 300.166725 
L 444.147913 301.216891 
L 442.069751 301.216891 
L 441.988129 311.238373 
L 441.107432 312.19196 
L 439.89586 313.145547 
L 438.441614 313.99318 
L 436.510672 314.840813 
L 433.946775 315.688445 
L 430.542443 316.536078 
L 426.659731 317.277757 
L 421.683791 318.019436 
L 415.306811 318.761114 
L 407.134309 319.502793 
L 396.660734 320.244472 
L 383.238188 320.98615 
L 368.762568 321.621875 
M 446.594841 292.6446 
L 446.594841 300.166725 
L 444.516679 300.166725 
L 444.516679 301.216891 
L 446.594841 301.216891 
L 446.676463 311.238373 
L 447.55716 312.19196 
L 448.768731 313.145547 
L 450.222977 313.99318 
L 452.153919 314.840813 
L 454.717817 315.688445 
L 458.122149 316.536078 
L 462.004861 317.277757 
L 466.980801 318.019436 
L 473.357781 318.761114 
L 481.530283 319.502793 
L 492.003858 320.244472 
L 505.426404 320.98615 
L 519.902023 321.621875 
L 519.902023 321.621875 
" clip-path="url(#pb8f5121dca)" style="fill: none; stroke: #ffffff; stroke-width: 3; stroke-linejoin: miter"/>
       <path d="M 442.069751 292.6446 
L 442.069751 300.166725 
L 444.147913 300.166725 
L 444.147913 301.216891 
L 442.069751 301.216891 
L 441.988129 311.238373 
L 441.107432 312.19196 
L 439.89586 313.145547 
L 438.441614 313.99318 
L 436.510672 314.840813 
L 433.946775 315.688445 
L 430.542443 316.536078 
L 426.659731 317.277757 
L 421.683791 318.019436 
L 415.306811 318.761114 
L 407.134309 319.502793 
L 396.660734 320.244472 
L 383.238188 320.98615 
L 368.762568 321.621875 
M 446.594841 292.6446 
L 446.594841 300.166725 
L 444.516679 300.166725 
L 444.516679 301.216891 
L 446.594841 301.216891 
L 446.676463 311.238373 
L 447.55716 312.19196 
L 448.768731 313.145547 
L 450.222977 313.99318 
L 452.153919 314.840813 
L 454.717817 315.688445 
L 458.122149 316.536078 
L 462.004861 317.277757 
L 466.980801 318.019436 
L 473.357781 318.761114 
L 481.530283 319.502793 
L 492.003858 320.244472 
L 505.426404 320.98615 
L 519.902023 321.621875 
L 519.902023 321.621875 
" clip-path="url(#pb8f5121dca)" style="fill: none; stroke: #d62728; stroke-linejoin: miter"/>
       <g id="PolyCollection_4">
        <path d="M 446.594841 292.6446 
L 442.069751 292.6446 
L 442.069751 300.166725 
L 444.147913 300.166725 
L 444.147913 301.216891 
L 442.069751 301.216891 
L 442.069751 311.132419 
L 442.069751 311.132419 
L 441.988129 311.238373 
L 441.903562 311.344327 
L 441.815944 311.450281 
L 441.725165 311.556235 
L 441.631111 311.66219 
L 441.533665 311.768144 
L 441.432702 311.874098 
L 441.328098 311.980052 
L 441.21972 312.086006 
L 441.107432 312.19196 
L 440.991093 312.297914 
L 440.870558 312.403868 
L 440.745674 312.509822 
L 440.616284 312.615776 
L 440.482227 312.721731 
L 440.343334 312.827685 
L 440.19943 312.933639 
L 440.050334 313.039593 
L 439.89586 313.145547 
L 439.735814 313.251501 
L 439.569993 313.357455 
L 439.39819 313.463409 
L 439.22019 313.569363 
L 439.035768 313.675317 
L 438.844693 313.781272 
L 438.646724 313.887226 
L 438.441614 313.99318 
L 438.229105 314.099134 
L 438.008929 314.205088 
L 437.78081 314.311042 
L 437.544462 314.416996 
L 437.299587 314.52295 
L 437.045878 314.628904 
L 436.783017 314.734858 
L 436.510672 314.840813 
L 436.228503 314.946767 
L 435.936154 315.052721 
L 435.633259 315.158675 
L 435.319437 315.264629 
L 434.994293 315.370583 
L 434.657419 315.476537 
L 434.308393 315.582491 
L 433.946775 315.688445 
L 433.572112 315.794399 
L 433.183932 315.900354 
L 432.781749 316.006308 
L 432.365057 316.112262 
L 431.933332 316.218216 
L 431.486033 316.32417 
L 431.022597 316.430124 
L 430.542443 316.536078 
L 430.044966 316.642032 
L 429.529543 316.747986 
L 428.995526 316.85394 
L 428.442243 316.959895 
L 427.869001 317.065849 
L 427.275079 317.171803 
L 426.659731 317.277757 
L 426.022183 317.383711 
L 425.361636 317.489665 
L 424.677259 317.595619 
L 423.968193 317.701573 
L 423.233547 317.807527 
L 422.472399 317.913481 
L 421.683791 318.019436 
L 420.866734 318.12539 
L 420.020201 318.231344 
L 419.143129 318.337298 
L 418.234416 318.443252 
L 417.292921 318.549206 
L 416.317461 318.65516 
L 415.306811 318.761114 
L 414.259701 318.867068 
L 413.174816 318.973022 
L 412.050793 319.078977 
L 410.88622 319.184931 
L 409.679635 319.290885 
L 408.429521 319.396839 
L 407.134309 319.502793 
L 405.792372 319.608747 
L 404.402023 319.714701 
L 402.961517 319.820655 
L 401.469044 319.926609 
L 399.922729 320.032563 
L 398.32063 320.138518 
L 396.660734 320.244472 
L 394.940956 320.350426 
L 393.159137 320.45638 
L 391.313038 320.562334 
L 389.400339 320.668288 
L 387.418639 320.774242 
L 385.365448 320.880196 
L 383.238188 320.98615 
L 381.034185 321.092104 
L 378.750671 321.198059 
L 376.384778 321.304013 
L 373.933535 321.409967 
L 371.393862 321.515921 
L 368.762568 321.621875 
L 519.902023 321.621875 
L 519.902023 321.621875 
L 517.27073 321.515921 
L 514.731057 321.409967 
L 512.279813 321.304013 
L 509.913921 321.198059 
L 507.630407 321.092104 
L 505.426404 320.98615 
L 503.299143 320.880196 
L 501.245952 320.774242 
L 499.264252 320.668288 
L 497.351554 320.562334 
L 495.505455 320.45638 
L 493.723635 320.350426 
L 492.003858 320.244472 
L 490.343962 320.138518 
L 488.741863 320.032563 
L 487.195548 319.926609 
L 485.703075 319.820655 
L 484.262569 319.714701 
L 482.87222 319.608747 
L 481.530283 319.502793 
L 480.235071 319.396839 
L 478.984957 319.290885 
L 477.778372 319.184931 
L 476.613799 319.078977 
L 475.489776 318.973022 
L 474.404891 318.867068 
L 473.357781 318.761114 
L 472.347131 318.65516 
L 471.371671 318.549206 
L 470.430176 318.443252 
L 469.521463 318.337298 
L 468.644391 318.231344 
L 467.797858 318.12539 
L 466.980801 318.019436 
L 466.192193 317.913481 
L 465.431044 317.807527 
L 464.696398 317.701573 
L 463.987332 317.595619 
L 463.302956 317.489665 
L 462.642408 317.383711 
L 462.004861 317.277757 
L 461.389513 317.171803 
L 460.79559 317.065849 
L 460.222348 316.959895 
L 459.669066 316.85394 
L 459.135049 316.747986 
L 458.619626 316.642032 
L 458.122149 316.536078 
L 457.641995 316.430124 
L 457.178559 316.32417 
L 456.731259 316.218216 
L 456.299535 316.112262 
L 455.882843 316.006308 
L 455.480659 315.900354 
L 455.09248 315.794399 
L 454.717817 315.688445 
L 454.356199 315.582491 
L 454.007172 315.476537 
L 453.670299 315.370583 
L 453.345155 315.264629 
L 453.031333 315.158675 
L 452.728437 315.052721 
L 452.436089 314.946767 
L 452.153919 314.840813 
L 451.881575 314.734858 
L 451.618714 314.628904 
L 451.365005 314.52295 
L 451.12013 314.416996 
L 450.883782 314.311042 
L 450.655663 314.205088 
L 450.435487 314.099134 
L 450.222977 313.99318 
L 450.017867 313.887226 
L 449.819899 313.781272 
L 449.628824 313.675317 
L 449.444402 313.569363 
L 449.266401 313.463409 
L 449.094599 313.357455 
L 448.928778 313.251501 
L 448.768731 313.145547 
L 448.614257 313.039593 
L 448.465162 312.933639 
L 448.321258 312.827685 
L 448.182365 312.721731 
L 448.048307 312.615776 
L 447.918918 312.509822 
L 447.794034 312.403868 
L 447.673498 312.297914 
L 447.55716 312.19196 
L 447.444872 312.086006 
L 447.336494 311.980052 
L 447.231889 311.874098 
L 447.130927 311.768144 
L 447.033481 311.66219 
L 446.939427 311.556235 
L 446.848648 311.450281 
L 446.76103 311.344327 
L 446.676463 311.238373 
L 446.594841 311.132419 
L 446.594841 311.132419 
L 446.594841 301.216891 
L 444.516679 301.216891 
L 444.516679 300.166725 
L 446.594841 300.166725 
L 446.594841 292.6446 
z
" clip-path="url(#pb8f5121dca)" style="fill: #d62728; fill-opacity: 0.5"/>
       </g>
       <g id="matplotlib.axis_1">
        <g id="xtick_1">
         <g id="line2d_1"/>
         <g id="text_1">
          <!-- OUT -->
          <g transform="translate(113.806399 332.720312) scale(0.1 -0.1)">
           <defs>
            <path id="DejaVuSans-4f" d="M 2522 4238 
Q 1834 4238 1429 3725 
Q 1025 3213 1025 2328 
Q 1025 1447 1429 934 
Q 1834 422 2522 422 
Q 3209 422 3611 934 
Q 4013 1447 4013 2328 
Q 4013 3213 3611 3725 
Q 3209 4238 2522 4238 
z
M 2522 4750 
Q 3503 4750 4090 4092 
Q 4678 3434 4678 2328 
Q 4678 1225 4090 567 
Q 3503 -91 2522 -91 
Q 1538 -91 948 565 
Q 359 1222 359 2328 
Q 359 3434 948 4092 
Q 1538 4750 2522 4750 
z
" transform="scale(0.015625)"/>
            <path id="DejaVuSans-55" d="M 556 4666 
L 1191 4666 
L 1191 1831 
Q 1191 1081 1462 751 
Q 1734 422 2344 422 
Q 2950 422 3222 751 
Q 3494 1081 3494 1831 
L 3494 4666 
L 4128 4666 
L 4128 1753 
Q 4128 841 3676 375 
Q 3225 -91 2344 -91 
Q 1459 -91 1007 375 
Q 556 841 556 1753 
L 556 4666 
z
" transform="scale(0.015625)"/>
            <path id="DejaVuSans-54" d="M -19 4666 
L 3928 4666 
L 3928 4134 
L 2272 4134 
L 2272 0 
L 1638 0 
L 1638 4134 
L -19 4134 
L -19 4666 
z
" transform="scale(0.015625)"/>
           </defs>
           <use xlink:href="#DejaVuSans-4f"/>
           <use xlink:href="#DejaVuSans-55" x="78.710938"/>
           <use xlink:href="#DejaVuSans-54" x="151.904297"/>
          </g>
         </g>
        </g>
        <g id="xtick_2">
         <g id="line2d_2"/>
         <g id="text_2">
          <!-- SRC -->
          <g transform="translate(562.393123 332.720312) scale(0.1 -0.1)">
           <defs>
            <path id="DejaVuSans-53" d="M 3425 4513 
L 3425 3897 
Q 3066 4069 2747 4153 
Q 2428 4238 2131 4238 
Q 1616 4238 1336 4038 
Q 1056 3838 1056 3469 
Q 1056 3159 1242 3001 
Q 1428 2844 1947 2747 
L 2328 2669 
Q 3034 2534 3370 2195 
Q 3706 1856 3706 1288 
Q 3706 609 3251 259 
Q 2797 -91 1919 -91 
Q 1588 -91 1214 -16 
Q 841 59 441 206 
L 441 856 
Q 825 641 1194 531 
Q 1563 422 1919 422 
Q 2459 422 2753 634 
Q 3047 847 3047 1241 
Q 3047 1584 2836 1778 
Q 2625 1972 2144 2069 
L 1759 2144 
Q 1053 2284 737 2584 
Q 422 2884 422 3419 
Q 422 4038 858 4394 
Q 1294 4750 2059 4750 
Q 2388 4750 2728 4690 
Q 3069 4631 3425 4513 
z
" transform="scale(0.015625)"/>
            <path id="DejaVuSans-52" d="M 2841 2188 
Q 3044 2119 3236 1894 
Q 3428 1669 3622 1275 
L 4263 0 
L 3584 0 
L 2988 1197 
Q 2756 1666 2539 1819 
Q 2322 1972 1947 1972 
L 1259 1972 
L 1259 0 
L 628 0 
L 628 4666 
L 2053 4666 
Q 2853 4666 3247 4331 
Q 3641 3997 3641 3322 
Q 3641 2881 3436 2590 
Q 3231 2300 2841 2188 
z
M 1259 4147 
L 1259 2491 
L 2053 2491 
Q 2509 2491 2742 2702 
Q 2975 2913 2975 3322 
Q 2975 3731 2742 3939 
Q 2509 4147 2053 4147 
L 1259 4147 
z
" transform="scale(0.015625)"/>
            <path id="DejaVuSans-43" d="M 4122 4306 
L 4122 3641 
Q 3803 3938 3442 4084 
Q 3081 4231 2675 4231 
Q 1875 4231 1450 3742 
Q 1025 3253 1025 2328 
Q 1025 1406 1450 917 
Q 1875 428 2675 428 
Q 3081 428 3442 575 
Q 3803 722 4122 1019 
L 4122 359 
Q 3791 134 3420 21 
Q 3050 -91 2638 -91 
Q 1578 -91 968 557 
Q 359 1206 359 2328 
Q 359 3453 968 4101 
Q 1578 4750 2638 4750 
Q 3056 4750 3426 4639 
Q 3797 4528 4122 4306 
z
" transform="scale(0.015625)"/>
           </defs>
           <use xlink:href="#DejaVuSans-53"/>
           <use xlink:href="#DejaVuSans-52" x="63.476562"/>
           <use xlink:href="#DejaVuSans-43" x="127.958984"/>
          </g>
         </g>
        </g>
        <g id="xtick_3">
         <g id="line2d_3"/>
         <g id="text_3">
          <!-- TAR -->
          <g transform="translate(434.771358 332.720312) scale(0.1 -0.1)">
           <defs>
            <path id="DejaVuSans-41" d="M 2188 4044 
L 1331 1722 
L 3047 1722 
L 2188 4044 
z
M 1831 4666 
L 2547 4666 
L 4325 0 
L 3669 0 
L 3244 1197 
L 1141 1197 
L 716 0 
L 50 0 
L 1831 4666 
z
" transform="scale(0.015625)"/>
           </defs>
           <use xlink:href="#DejaVuSans-54"/>
           <use xlink:href="#DejaVuSans-41" x="53.333984"/>
           <use xlink:href="#DejaVuSans-52" x="121.742188"/>
          </g>
         </g>
        </g>
       </g>
       <g id="matplotlib.axis_2">
        <g id="ytick_1">
         <g id="line2d_4">
          <defs>
           <path id="m49fd635c67" d="M 0 0 
L -3.5 0 
" style="stroke: #000000; stroke-width: 0.8"/>
          </defs>
          <g>
           <use xlink:href="#m49fd635c67" x="63.290625" y="321.621875" style="stroke: #000000; stroke-width: 0.8"/>
          </g>
         </g>
         <g id="text_4">
          <!-- 0 -->
          <g transform="translate(49.928125 325.421094) scale(0.1 -0.1)">
           <defs>
            <path id="DejaVuSans-30" d="M 2034 4250 
Q 1547 4250 1301 3770 
Q 1056 3291 1056 2328 
Q 1056 1369 1301 889 
Q 1547 409 2034 409 
Q 2525 409 2770 889 
Q 3016 1369 3016 2328 
Q 3016 3291 2770 3770 
Q 2525 4250 2034 4250 
z
M 2034 4750 
Q 2819 4750 3233 4129 
Q 3647 3509 3647 2328 
Q 3647 1150 3233 529 
Q 2819 -91 2034 -91 
Q 1250 -91 836 529 
Q 422 1150 422 2328 
Q 422 3509 836 4129 
Q 1250 4750 2034 4750 
z
" transform="scale(0.015625)"/>
           </defs>
           <use xlink:href="#DejaVuSans-30"/>
          </g>
         </g>
        </g>
        <g id="ytick_2">
         <g id="line2d_5">
          <g>
           <use xlink:href="#m49fd635c67" x="63.290625" y="260.56567" style="stroke: #000000; stroke-width: 0.8"/>
          </g>
         </g>
         <g id="text_5">
          <!-- 5000 -->
          <g transform="translate(30.840625 264.364889) scale(0.1 -0.1)">
           <defs>
            <path id="DejaVuSans-35" d="M 691 4666 
L 3169 4666 
L 3169 4134 
L 1269 4134 
L 1269 2991 
Q 1406 3038 1543 3061 
Q 1681 3084 1819 3084 
Q 2600 3084 3056 2656 
Q 3513 2228 3513 1497 
Q 3513 744 3044 326 
Q 2575 -91 1722 -91 
Q 1428 -91 1123 -41 
Q 819 9 494 109 
L 494 744 
Q 775 591 1075 516 
Q 1375 441 1709 441 
Q 2250 441 2565 725 
Q 2881 1009 2881 1497 
Q 2881 1984 2565 2268 
Q 2250 2553 1709 2553 
Q 1456 2553 1204 2497 
Q 953 2441 691 2322 
L 691 4666 
z
" transform="scale(0.015625)"/>
           </defs>
           <use xlink:href="#DejaVuSans-35"/>
           <use xlink:href="#DejaVuSans-30" x="63.623047"/>
           <use xlink:href="#DejaVuSans-30" x="127.246094"/>
           <use xlink:href="#DejaVuSans-30" x="190.869141"/>
          </g>
         </g>
        </g>
        <g id="ytick_3">
         <g id="line2d_6">
          <g>
           <use xlink:href="#m49fd635c67" x="63.290625" y="199.509465" style="stroke: #000000; stroke-width: 0.8"/>
          </g>
         </g>
         <g id="text_6">
          <!-- 10000 -->
          <g transform="translate(24.478125 203.308684) scale(0.1 -0.1)">
           <defs>
            <path id="DejaVuSans-31" d="M 794 531 
L 1825 531 
L 1825 4091 
L 703 3866 
L 703 4441 
L 1819 4666 
L 2450 4666 
L 2450 531 
L 3481 531 
L 3481 0 
L 794 0 
L 794 531 
z
" transform="scale(0.015625)"/>
           </defs>
           <use xlink:href="#DejaVuSans-31"/>
           <use xlink:href="#DejaVuSans-30" x="63.623047"/>
           <use xlink:href="#DejaVuSans-30" x="127.246094"/>
           <use xlink:href="#DejaVuSans-30" x="190.869141"/>
           <use xlink:href="#DejaVuSans-30" x="254.492188"/>
          </g>
         </g>
        </g>
        <g id="ytick_4">
         <g id="line2d_7">
          <g>
           <use xlink:href="#m49fd635c67" x="63.290625" y="138.45326" style="stroke: #000000; stroke-width: 0.8"/>
          </g>
         </g>
         <g id="text_7">
          <!-- 15000 -->
          <g transform="translate(24.478125 142.252479) scale(0.1 -0.1)">
           <use xlink:href="#DejaVuSans-31"/>
           <use xlink:href="#DejaVuSans-35" x="63.623047"/>
           <use xlink:href="#DejaVuSans-30" x="127.246094"/>
           <use xlink:href="#DejaVuSans-30" x="190.869141"/>
           <use xlink:href="#DejaVuSans-30" x="254.492188"/>
          </g>
         </g>
        </g>
        <g id="ytick_5">
         <g id="line2d_8">
          <g>
           <use xlink:href="#m49fd635c67" x="63.290625" y="77.397055" style="stroke: #000000; stroke-width: 0.8"/>
          </g>
         </g>
         <g id="text_8">
          <!-- 20000 -->
          <g transform="translate(24.478125 81.196274) scale(0.1 -0.1)">
           <defs>
            <path id="DejaVuSans-32" d="M 1228 531 
L 3431 531 
L 3431 0 
L 469 0 
L 469 531 
Q 828 903 1448 1529 
Q 2069 2156 2228 2338 
Q 2531 2678 2651 2914 
Q 2772 3150 2772 3378 
Q 2772 3750 2511 3984 
Q 2250 4219 1831 4219 
Q 1534 4219 1204 4116 
Q 875 4013 500 3803 
L 500 4441 
Q 881 4594 1212 4672 
Q 1544 4750 1819 4750 
Q 2544 4750 2975 4387 
Q 3406 4025 3406 3419 
Q 3406 3131 3298 2873 
Q 3191 2616 2906 2266 
Q 2828 2175 2409 1742 
Q 1991 1309 1228 531 
z
" transform="scale(0.015625)"/>
           </defs>
           <use xlink:href="#DejaVuSans-32"/>
           <use xlink:href="#DejaVuSans-30" x="63.623047"/>
           <use xlink:href="#DejaVuSans-30" x="127.246094"/>
           <use xlink:href="#DejaVuSans-30" x="190.869141"/>
           <use xlink:href="#DejaVuSans-30" x="254.492188"/>
          </g>
         </g>
        </g>
        <g id="ytick_6">
         <g id="line2d_9">
          <g>
           <use xlink:href="#m49fd635c67" x="63.290625" y="16.340851" style="stroke: #000000; stroke-width: 0.8"/>
          </g>
         </g>
         <g id="text_9">
          <!-- 25000 -->
          <g transform="translate(24.478125 20.140069) scale(0.1 -0.1)">
           <use xlink:href="#DejaVuSans-32"/>
           <use xlink:href="#DejaVuSans-35" x="63.623047"/>
           <use xlink:href="#DejaVuSans-30" x="127.246094"/>
           <use xlink:href="#DejaVuSans-30" x="190.869141"/>
           <use xlink:href="#DejaVuSans-30" x="254.492188"/>
          </g>
         </g>
        </g>
        <g id="text_10">
         <!-- time ago (generations) -->
         <g transform="translate(18.398438 223.682031) rotate(-90) scale(0.1 -0.1)">
          <defs>
           <path id="DejaVuSans-74" d="M 1172 4494 
L 1172 3500 
L 2356 3500 
L 2356 3053 
L 1172 3053 
L 1172 1153 
Q 1172 725 1289 603 
Q 1406 481 1766 481 
L 2356 481 
L 2356 0 
L 1766 0 
Q 1100 0 847 248 
Q 594 497 594 1153 
L 594 3053 
L 172 3053 
L 172 3500 
L 594 3500 
L 594 4494 
L 1172 4494 
z
" transform="scale(0.015625)"/>
           <path id="DejaVuSans-69" d="M 603 3500 
L 1178 3500 
L 1178 0 
L 603 0 
L 603 3500 
z
M 603 4863 
L 1178 4863 
L 1178 4134 
L 603 4134 
L 603 4863 
z
" transform="scale(0.015625)"/>
           <path id="DejaVuSans-6d" d="M 3328 2828 
Q 3544 3216 3844 3400 
Q 4144 3584 4550 3584 
Q 5097 3584 5394 3201 
Q 5691 2819 5691 2113 
L 5691 0 
L 5113 0 
L 5113 2094 
Q 5113 2597 4934 2840 
Q 4756 3084 4391 3084 
Q 3944 3084 3684 2787 
Q 3425 2491 3425 1978 
L 3425 0 
L 2847 0 
L 2847 2094 
Q 2847 2600 2669 2842 
Q 2491 3084 2119 3084 
Q 1678 3084 1418 2786 
Q 1159 2488 1159 1978 
L 1159 0 
L 581 0 
L 581 3500 
L 1159 3500 
L 1159 2956 
Q 1356 3278 1631 3431 
Q 1906 3584 2284 3584 
Q 2666 3584 2933 3390 
Q 3200 3197 3328 2828 
z
" transform="scale(0.015625)"/>
           <path id="DejaVuSans-65" d="M 3597 1894 
L 3597 1613 
L 953 1613 
Q 991 1019 1311 708 
Q 1631 397 2203 397 
Q 2534 397 2845 478 
Q 3156 559 3463 722 
L 3463 178 
Q 3153 47 2828 -22 
Q 2503 -91 2169 -91 
Q 1331 -91 842 396 
Q 353 884 353 1716 
Q 353 2575 817 3079 
Q 1281 3584 2069 3584 
Q 2775 3584 3186 3129 
Q 3597 2675 3597 1894 
z
M 3022 2063 
Q 3016 2534 2758 2815 
Q 2500 3097 2075 3097 
Q 1594 3097 1305 2825 
Q 1016 2553 972 2059 
L 3022 2063 
z
" transform="scale(0.015625)"/>
           <path id="DejaVuSans-20" transform="scale(0.015625)"/>
           <path id="DejaVuSans-61" d="M 2194 1759 
Q 1497 1759 1228 1600 
Q 959 1441 959 1056 
Q 959 750 1161 570 
Q 1363 391 1709 391 
Q 2188 391 2477 730 
Q 2766 1069 2766 1631 
L 2766 1759 
L 2194 1759 
z
M 3341 1997 
L 3341 0 
L 2766 0 
L 2766 531 
Q 2569 213 2275 61 
Q 1981 -91 1556 -91 
Q 1019 -91 701 211 
Q 384 513 384 1019 
Q 384 1609 779 1909 
Q 1175 2209 1959 2209 
L 2766 2209 
L 2766 2266 
Q 2766 2663 2505 2880 
Q 2244 3097 1772 3097 
Q 1472 3097 1187 3025 
Q 903 2953 641 2809 
L 641 3341 
Q 956 3463 1253 3523 
Q 1550 3584 1831 3584 
Q 2591 3584 2966 3190 
Q 3341 2797 3341 1997 
z
" transform="scale(0.015625)"/>
           <path id="DejaVuSans-67" d="M 2906 1791 
Q 2906 2416 2648 2759 
Q 2391 3103 1925 3103 
Q 1463 3103 1205 2759 
Q 947 2416 947 1791 
Q 947 1169 1205 825 
Q 1463 481 1925 481 
Q 2391 481 2648 825 
Q 2906 1169 2906 1791 
z
M 3481 434 
Q 3481 -459 3084 -895 
Q 2688 -1331 1869 -1331 
Q 1566 -1331 1297 -1286 
Q 1028 -1241 775 -1147 
L 775 -588 
Q 1028 -725 1275 -790 
Q 1522 -856 1778 -856 
Q 2344 -856 2625 -561 
Q 2906 -266 2906 331 
L 2906 616 
Q 2728 306 2450 153 
Q 2172 0 1784 0 
Q 1141 0 747 490 
Q 353 981 353 1791 
Q 353 2603 747 3093 
Q 1141 3584 1784 3584 
Q 2172 3584 2450 3431 
Q 2728 3278 2906 2969 
L 2906 3500 
L 3481 3500 
L 3481 434 
z
" transform="scale(0.015625)"/>
           <path id="DejaVuSans-6f" d="M 1959 3097 
Q 1497 3097 1228 2736 
Q 959 2375 959 1747 
Q 959 1119 1226 758 
Q 1494 397 1959 397 
Q 2419 397 2687 759 
Q 2956 1122 2956 1747 
Q 2956 2369 2687 2733 
Q 2419 3097 1959 3097 
z
M 1959 3584 
Q 2709 3584 3137 3096 
Q 3566 2609 3566 1747 
Q 3566 888 3137 398 
Q 2709 -91 1959 -91 
Q 1206 -91 779 398 
Q 353 888 353 1747 
Q 353 2609 779 3096 
Q 1206 3584 1959 3584 
z
" transform="scale(0.015625)"/>
           <path id="DejaVuSans-28" d="M 1984 4856 
Q 1566 4138 1362 3434 
Q 1159 2731 1159 2009 
Q 1159 1288 1364 580 
Q 1569 -128 1984 -844 
L 1484 -844 
Q 1016 -109 783 600 
Q 550 1309 550 2009 
Q 550 2706 781 3412 
Q 1013 4119 1484 4856 
L 1984 4856 
z
" transform="scale(0.015625)"/>
           <path id="DejaVuSans-6e" d="M 3513 2113 
L 3513 0 
L 2938 0 
L 2938 2094 
Q 2938 2591 2744 2837 
Q 2550 3084 2163 3084 
Q 1697 3084 1428 2787 
Q 1159 2491 1159 1978 
L 1159 0 
L 581 0 
L 581 3500 
L 1159 3500 
L 1159 2956 
Q 1366 3272 1645 3428 
Q 1925 3584 2291 3584 
Q 2894 3584 3203 3211 
Q 3513 2838 3513 2113 
z
" transform="scale(0.015625)"/>
           <path id="DejaVuSans-72" d="M 2631 2963 
Q 2534 3019 2420 3045 
Q 2306 3072 2169 3072 
Q 1681 3072 1420 2755 
Q 1159 2438 1159 1844 
L 1159 0 
L 581 0 
L 581 3500 
L 1159 3500 
L 1159 2956 
Q 1341 3275 1631 3429 
Q 1922 3584 2338 3584 
Q 2397 3584 2469 3576 
Q 2541 3569 2628 3553 
L 2631 2963 
z
" transform="scale(0.015625)"/>
           <path id="DejaVuSans-73" d="M 2834 3397 
L 2834 2853 
Q 2591 2978 2328 3040 
Q 2066 3103 1784 3103 
Q 1356 3103 1142 2972 
Q 928 2841 928 2578 
Q 928 2378 1081 2264 
Q 1234 2150 1697 2047 
L 1894 2003 
Q 2506 1872 2764 1633 
Q 3022 1394 3022 966 
Q 3022 478 2636 193 
Q 2250 -91 1575 -91 
Q 1294 -91 989 -36 
Q 684 19 347 128 
L 347 722 
Q 666 556 975 473 
Q 1284 391 1588 391 
Q 1994 391 2212 530 
Q 2431 669 2431 922 
Q 2431 1156 2273 1281 
Q 2116 1406 1581 1522 
L 1381 1569 
Q 847 1681 609 1914 
Q 372 2147 372 2553 
Q 372 3047 722 3315 
Q 1072 3584 1716 3584 
Q 2034 3584 2315 3537 
Q 2597 3491 2834 3397 
z
" transform="scale(0.015625)"/>
           <path id="DejaVuSans-29" d="M 513 4856 
L 1013 4856 
Q 1481 4119 1714 3412 
Q 1947 2706 1947 2009 
Q 1947 1309 1714 600 
Q 1481 -109 1013 -844 
L 513 -844 
Q 928 -128 1133 580 
Q 1338 1288 1338 2009 
Q 1338 2731 1133 3434 
Q 928 4138 513 4856 
z
" transform="scale(0.015625)"/>
          </defs>
          <use xlink:href="#DejaVuSans-74"/>
          <use xlink:href="#DejaVuSans-69" x="39.208984"/>
          <use xlink:href="#DejaVuSans-6d" x="66.992188"/>
          <use xlink:href="#DejaVuSans-65" x="164.404297"/>
          <use xlink:href="#DejaVuSans-20" x="225.927734"/>
          <use xlink:href="#DejaVuSans-61" x="257.714844"/>
          <use xlink:href="#DejaVuSans-67" x="318.994141"/>
          <use xlink:href="#DejaVuSans-6f" x="382.470703"/>
          <use xlink:href="#DejaVuSans-20" x="443.652344"/>
          <use xlink:href="#DejaVuSans-28" x="475.439453"/>
          <use xlink:href="#DejaVuSans-67" x="514.453125"/>
          <use xlink:href="#DejaVuSans-65" x="577.929688"/>
          <use xlink:href="#DejaVuSans-6e" x="639.453125"/>
          <use xlink:href="#DejaVuSans-65" x="702.832031"/>
          <use xlink:href="#DejaVuSans-72" x="764.355469"/>
          <use xlink:href="#DejaVuSans-61" x="805.46875"/>
          <use xlink:href="#DejaVuSans-74" x="866.748047"/>
          <use xlink:href="#DejaVuSans-69" x="905.957031"/>
          <use xlink:href="#DejaVuSans-6f" x="933.740234"/>
          <use xlink:href="#DejaVuSans-6e" x="994.921875"/>
          <use xlink:href="#DejaVuSans-73" x="1058.300781"/>
          <use xlink:href="#DejaVuSans-29" x="1110.400391"/>
         </g>
        </g>
       </g>
       <g id="patch_7">
        <path d="M 305.11175 271.909913 
L 304.11175 271.878477 
L 303.11175 271.841536 
L 302.11175 271.74379 
L 301.11175 271.711268 
L 300.11175 271.637643 
L 299.11175 271.599078 
L 298.11175 271.563665 
L 297.11175 271.506025 
L 296.11175 271.435639 
L 295.11175 271.383674 
L 294.11175 271.324585 
L 293.11175 271.236264 
L 292.11175 271.190119 
L 291.11175 271.147708 
L 290.11175 271.117216 
L 289.11175 271.091171 
L 288.11175 271.069971 
L 287.11175 271.01567 
L 286.11175 270.987732 
L 285.11175 270.958008 
L 284.11175 270.932613 
L 283.11175 270.921413 
L 282.11175 270.911289 
L 281.11175 270.911493 
L 280.11175 270.921003 
L 279.11175 270.932657 
L 278.11175 270.963686 
L 277.11175 270.974854 
L 276.11175 271.004971 
L 275.11175 271.064748 
L 274.11175 271.10194 
L 273.11175 271.141036 
L 272.11175 271.183476 
L 271.11175 271.216241 
L 270.11175 271.283667 
L 269.11175 271.322793 
L 268.11175 271.365468 
L 267.11175 271.436048 
L 266.11175 271.472439 
L 265.11175 271.530842 
L 264.11175 271.641795 
L 263.11175 271.712453 
L 262.11175 271.825393 
L 261.11175 271.871166 
L 260.11175 271.932449 
L 259.11175 271.980948 
L 258.11175 272.061771 
L 257.11175 272.18029 
L 256.11175 272.250501 
L 255.11175 272.333763 
L 254.11175 272.366905 
L 253.11175 272.418142 
L 252.11175 272.486541 
L 251.11175 272.552756 
L 250.11175 272.629673 
L 249.11175 272.656988 
L 248.11175 272.683466 
L 247.11175 272.706117 
L 246.11175 272.725648 
L 245.11175 272.752042 
L 244.11175 272.801813 
L 243.11175 272.836886 
L 242.11175 272.872752 
L 241.11175 272.888119 
L 240.11175 272.903888 
L 239.11175 272.907301 
L 238.11175 272.909718 
L 237.11175 272.909232 
L 236.11175 272.907303 
L 235.11175 272.894046 
L 234.11175 272.885655 
L 233.11175 272.864119 
L 232.11175 272.841086 
L 231.11175 272.823853 
L 230.11175 272.80539 
L 229.11175 272.784938 
L 228.11175 272.768338 
L 227.11175 272.705559 
L 226.11175 272.630294 
L 225.11175 272.597655 
L 224.11175 272.530091 
L 223.11175 272.476044 
L 222.11175 272.44234 
L 221.11175 272.352214 
L 220.11175 272.323679 
L 219.11175 272.292193 
L 218.11175 272.261182 
L 217.11175 272.206374 
L 216.11175 272.141787 
L 215.11175 272.103591 
L 214.11175 272.007657 
L 213.11175 271.958399 
L 212.11175 271.91433 
L 211.11175 271.874206 
L 210.11175 271.765839 
L 209.11175 271.724211 
L 208.11175 271.662069 
L 207.11175 271.592107 
L 206.11175 271.487603 
L 205.11175 271.450615 
L 204.11175 271.404738 
L 203.11175 271.336243 
L 202.11175 271.287497 
L 201.11175 271.2099 
L 200.11175 271.179359 
L 199.11175 271.109845 
L 198.11175 271.085872 
L 197.11175 271.05725 
L 196.11175 271.015457 
L 195.11175 270.993881 
L 194.11175 270.979933 
L 193.11175 270.953211 
L 192.11175 270.943901 
L 191.11175 270.931454 
L 190.11175 270.920399 
L 189.11175 270.914735 
L 188.11175 270.909971 
L 187.11175 270.915518 
L 186.11175 270.928807 
L 185.11175 270.936324 
L 184.11175 270.961109 
L 183.11175 270.984678 
L 182.11175 271.020858 
L 181.11175 271.04682 
L 180.11175 271.069142 
L 179.11175 271.137902 
L 178.11175 271.212437 
L 177.11175 271.306416 
L 176.11175 271.357468 
L 175.11175 271.411402 
L 174.11175 271.446653 
L 173.11175 271.552741 
L 172.11175 271.605005 
L 171.11175 271.641912 
L 170.11175 271.672942 
L 169.11175 271.734098 
L 168.11175 271.801518 
L 167.11175 271.850424 
L 166.11175 271.915616 
L 165.11175 271.953804 
L 164.11175 271.9958 
L 163.11175 272.037817 
L 162.11175 272.097333 
L 161.11175 272.210493 
L 160.11175 272.262744 
L 159.11175 272.302162 
L 158.11175 272.349263 
L 157.11175 272.406042 
L 156.11175 272.438706 
L 155.11175 272.474884 
L 154.11175 272.506974 
L 153.11175 272.541254 
L 152.11175 272.599632 
L 151.11175 272.644817 
L 150.11175 272.674441 
L 149.11175 272.724827 
L 148.11175 272.750024 
L 147.11175 272.771075 
L 146.11175 272.806043 
L 145.11175 272.830333 
L 144.11175 272.8444 
L 143.11175 272.863342 
L 142.11175 272.879003 
L 141.11175 272.891555 
L 140.11175 272.897391 
L 139.11175 272.904273 
L 138.11175 272.909447 
L 137.11175 272.907664 
L 136.11175 272.904939 
L 134.696159 272.893785 
" clip-path="url(#pb8f5121dca)" style="fill: none; stroke: #ffffff; stroke-width: 3; stroke-linecap: round"/>
        <path d="M 305.11175 271.909913 
L 304.11175 271.878477 
L 303.11175 271.841536 
L 302.11175 271.74379 
L 301.11175 271.711268 
L 300.11175 271.637643 
L 299.11175 271.599078 
L 298.11175 271.563665 
L 297.11175 271.506025 
L 296.11175 271.435639 
L 295.11175 271.383674 
L 294.11175 271.324585 
L 293.11175 271.236264 
L 292.11175 271.190119 
L 291.11175 271.147708 
L 290.11175 271.117216 
L 289.11175 271.091171 
L 288.11175 271.069971 
L 287.11175 271.01567 
L 286.11175 270.987732 
L 285.11175 270.958008 
L 284.11175 270.932613 
L 283.11175 270.921413 
L 282.11175 270.911289 
L 281.11175 270.911493 
L 280.11175 270.921003 
L 279.11175 270.932657 
L 278.11175 270.963686 
L 277.11175 270.974854 
L 276.11175 271.004971 
L 275.11175 271.064748 
L 274.11175 271.10194 
L 273.11175 271.141036 
L 272.11175 271.183476 
L 271.11175 271.216241 
L 270.11175 271.283667 
L 269.11175 271.322793 
L 268.11175 271.365468 
L 267.11175 271.436048 
L 266.11175 271.472439 
L 265.11175 271.530842 
L 264.11175 271.641795 
L 263.11175 271.712453 
L 262.11175 271.825393 
L 261.11175 271.871166 
L 260.11175 271.932449 
L 259.11175 271.980948 
L 258.11175 272.061771 
L 257.11175 272.18029 
L 256.11175 272.250501 
L 255.11175 272.333763 
L 254.11175 272.366905 
L 253.11175 272.418142 
L 252.11175 272.486541 
L 251.11175 272.552756 
L 250.11175 272.629673 
L 249.11175 272.656988 
L 248.11175 272.683466 
L 247.11175 272.706117 
L 246.11175 272.725648 
L 245.11175 272.752042 
L 244.11175 272.801813 
L 243.11175 272.836886 
L 242.11175 272.872752 
L 241.11175 272.888119 
L 240.11175 272.903888 
L 239.11175 272.907301 
L 238.11175 272.909718 
L 237.11175 272.909232 
L 236.11175 272.907303 
L 235.11175 272.894046 
L 234.11175 272.885655 
L 233.11175 272.864119 
L 232.11175 272.841086 
L 231.11175 272.823853 
L 230.11175 272.80539 
L 229.11175 272.784938 
L 228.11175 272.768338 
L 227.11175 272.705559 
L 226.11175 272.630294 
L 225.11175 272.597655 
L 224.11175 272.530091 
L 223.11175 272.476044 
L 222.11175 272.44234 
L 221.11175 272.352214 
L 220.11175 272.323679 
L 219.11175 272.292193 
L 218.11175 272.261182 
L 217.11175 272.206374 
L 216.11175 272.141787 
L 215.11175 272.103591 
L 214.11175 272.007657 
L 213.11175 271.958399 
L 212.11175 271.91433 
L 211.11175 271.874206 
L 210.11175 271.765839 
L 209.11175 271.724211 
L 208.11175 271.662069 
L 207.11175 271.592107 
L 206.11175 271.487603 
L 205.11175 271.450615 
L 204.11175 271.404738 
L 203.11175 271.336243 
L 202.11175 271.287497 
L 201.11175 271.2099 
L 200.11175 271.179359 
L 199.11175 271.109845 
L 198.11175 271.085872 
L 197.11175 271.05725 
L 196.11175 271.015457 
L 195.11175 270.993881 
L 194.11175 270.979933 
L 193.11175 270.953211 
L 192.11175 270.943901 
L 191.11175 270.931454 
L 190.11175 270.920399 
L 189.11175 270.914735 
L 188.11175 270.909971 
L 187.11175 270.915518 
L 186.11175 270.928807 
L 185.11175 270.936324 
L 184.11175 270.961109 
L 183.11175 270.984678 
L 182.11175 271.020858 
L 181.11175 271.04682 
L 180.11175 271.069142 
L 179.11175 271.137902 
L 178.11175 271.212437 
L 177.11175 271.306416 
L 176.11175 271.357468 
L 175.11175 271.411402 
L 174.11175 271.446653 
L 173.11175 271.552741 
L 172.11175 271.605005 
L 171.11175 271.641912 
L 170.11175 271.672942 
L 169.11175 271.734098 
L 168.11175 271.801518 
L 167.11175 271.850424 
L 166.11175 271.915616 
L 165.11175 271.953804 
L 164.11175 271.9958 
L 163.11175 272.037817 
L 162.11175 272.097333 
L 161.11175 272.210493 
L 160.11175 272.262744 
L 159.11175 272.302162 
L 158.11175 272.349263 
L 157.11175 272.406042 
L 156.11175 272.438706 
L 155.11175 272.474884 
L 154.11175 272.506974 
L 153.11175 272.541254 
L 152.11175 272.599632 
L 151.11175 272.644817 
L 150.11175 272.674441 
L 149.11175 272.724827 
L 148.11175 272.750024 
L 147.11175 272.771075 
L 146.11175 272.806043 
L 145.11175 272.830333 
L 144.11175 272.8444 
L 143.11175 272.863342 
L 142.11175 272.879003 
L 141.11175 272.891555 
L 140.11175 272.897391 
L 139.11175 272.904273 
L 138.11175 272.909447 
L 137.11175 272.907664 
L 136.11175 272.904939 
L 134.696159 272.893785 
" clip-path="url(#pb8f5121dca)" style="fill: none; stroke: #1f77b4; stroke-linecap: round"/>
        <path d="M 138.696159 273.909913 
L 137.815791 273.434582 
L 136.937884 272.954328 
L 136.08717 272.419687 
L 134.784996 271.73224 
L 135.712349 271.706225 
L 136.624023 271.293505 
L 137.534288 270.877966 
L 138.876784 270.271162 
L 138.221885 270.909913 
L 138.169921 271.909913 
L 138.110831 273.909913 
z
" clip-path="url(#pb8f5121dca)" style="fill: #ffffff; stroke: #ffffff; stroke-width: 3; stroke-linecap: round"/>
        <path d="M 138.696159 273.909913 
L 137.815791 273.434582 
L 136.937884 272.954328 
L 136.08717 272.419687 
L 134.784996 271.73224 
L 135.712349 271.706225 
L 136.624023 271.293505 
L 137.534288 270.877966 
L 138.876784 270.271162 
L 138.221885 270.909913 
L 138.169921 271.909913 
L 138.110831 273.909913 
z
" clip-path="url(#pb8f5121dca)" style="fill: #ffffff; stroke: #1f77b4; stroke-linecap: round"/>
        <g id="patch_8">
         <path d="M 327.65284 72.964375 
L 328.65284 72.995811 
L 329.65284 73.032752 
L 330.65284 73.130498 
L 331.65284 73.16302 
L 332.65284 73.236645 
L 333.65284 73.27521 
L 334.65284 73.310623 
L 335.65284 73.368263 
L 336.65284 73.438649 
L 337.65284 73.490614 
L 338.65284 73.549703 
L 339.65284 73.638024 
L 340.65284 73.684169 
L 341.65284 73.72658 
L 342.65284 73.757072 
L 343.65284 73.783117 
L 344.65284 73.804317 
L 345.65284 73.858618 
L 346.65284 73.886556 
L 347.65284 73.91628 
L 348.65284 73.941675 
L 349.65284 73.952875 
L 350.65284 73.962999 
L 351.65284 73.962795 
L 352.65284 73.953285 
L 353.65284 73.941631 
L 354.65284 73.910602 
L 355.65284 73.899434 
L 356.65284 73.869317 
L 357.65284 73.80954 
L 358.65284 73.772348 
L 359.65284 73.733252 
L 360.65284 73.690812 
L 361.65284 73.658047 
L 362.65284 73.590621 
L 363.65284 73.551495 
L 364.65284 73.50882 
L 365.65284 73.43824 
L 366.65284 73.401849 
L 367.65284 73.343446 
L 368.65284 73.232493 
L 369.65284 73.161835 
L 370.65284 73.048895 
L 371.65284 73.003122 
L 372.65284 72.941839 
L 373.65284 72.89334 
L 374.65284 72.812517 
L 375.65284 72.693998 
L 376.65284 72.623787 
L 377.65284 72.540525 
L 378.65284 72.507383 
L 379.65284 72.456146 
L 380.65284 72.387747 
L 381.65284 72.321532 
L 382.65284 72.244615 
L 383.65284 72.217299 
L 384.65284 72.190822 
L 385.65284 72.168171 
L 386.65284 72.14864 
L 387.65284 72.122246 
L 388.65284 72.072475 
L 389.65284 72.037402 
L 390.65284 72.001536 
L 391.65284 71.986169 
L 392.65284 71.9704 
L 393.65284 71.966987 
L 394.65284 71.96457 
L 395.65284 71.965056 
L 396.65284 71.966985 
L 397.65284 71.980242 
L 398.65284 71.988633 
L 399.65284 72.010169 
L 400.65284 72.033202 
L 401.65284 72.050435 
L 402.65284 72.068898 
L 403.65284 72.08935 
L 404.65284 72.10595 
L 405.65284 72.168729 
L 406.65284 72.243994 
L 407.65284 72.276633 
L 408.65284 72.344197 
L 409.65284 72.398244 
L 410.65284 72.431948 
L 411.65284 72.522074 
L 412.65284 72.550609 
L 413.65284 72.582095 
L 414.65284 72.613106 
L 415.65284 72.667914 
L 416.65284 72.732501 
L 417.65284 72.770697 
L 418.65284 72.866631 
L 419.65284 72.915889 
L 420.65284 72.959958 
L 421.65284 73.000082 
L 422.65284 73.108449 
L 423.65284 73.150077 
L 424.65284 73.212219 
L 425.65284 73.282181 
L 426.65284 73.386685 
L 427.65284 73.423673 
L 428.65284 73.46955 
L 429.65284 73.538045 
L 430.65284 73.586791 
L 431.65284 73.664388 
L 432.65284 73.694929 
L 433.65284 73.764443 
L 434.65284 73.788416 
L 435.65284 73.817038 
L 436.65284 73.858831 
L 437.65284 73.880407 
L 438.65284 73.894355 
L 439.65284 73.921077 
L 440.65284 73.930387 
L 441.65284 73.942834 
L 442.65284 73.953889 
L 443.65284 73.959553 
L 444.65284 73.964317 
L 445.65284 73.958769 
L 446.65284 73.945481 
L 447.65284 73.937964 
L 448.65284 73.913179 
L 449.65284 73.88961 
L 450.65284 73.85343 
L 451.65284 73.827468 
L 452.65284 73.805146 
L 453.65284 73.736386 
L 454.65284 73.661851 
L 455.65284 73.567872 
L 456.65284 73.51682 
L 457.65284 73.462886 
L 458.65284 73.427635 
L 459.65284 73.321547 
L 460.65284 73.269283 
L 461.65284 73.232376 
L 462.65284 73.201345 
L 463.65284 73.14019 
L 464.65284 73.07277 
L 465.65284 73.023864 
L 466.65284 72.958672 
L 467.65284 72.920484 
L 468.65284 72.878488 
L 469.65284 72.836471 
L 470.65284 72.776955 
L 471.65284 72.663795 
L 472.65284 72.611544 
L 473.65284 72.572126 
L 474.65284 72.525025 
L 475.65284 72.468245 
L 476.65284 72.435582 
L 477.65284 72.399404 
L 478.65284 72.367314 
L 479.65284 72.333034 
L 480.65284 72.274656 
L 481.65284 72.229471 
L 482.65284 72.199847 
L 483.65284 72.149461 
L 484.65284 72.124264 
L 485.65284 72.103213 
L 486.65284 72.068245 
L 487.65284 72.043955 
L 488.65284 72.029888 
L 489.65284 72.010946 
L 490.65284 71.995285 
L 491.65284 71.982733 
L 492.65284 71.976897 
L 493.65284 71.970015 
L 494.65284 71.964841 
L 495.65284 71.966624 
L 496.65284 71.969349 
L 497.65284 71.980503 
L 498.65284 72.008738 
L 499.65284 72.052526 
L 500.65284 72.073215 
L 501.65284 72.114188 
L 502.65284 72.154263 
L 503.65284 72.173373 
L 504.65284 72.195882 
L 505.65284 72.262533 
L 506.65284 72.312243 
L 507.65284 72.385949 
L 508.65284 72.417263 
L 509.65284 72.493885 
L 510.65284 72.532183 
L 511.65284 72.6063 
L 512.65284 72.710358 
L 513.65284 72.780189 
L 514.65284 72.885423 
L 515.65284 72.940438 
L 516.65284 73.063913 
L 517.65284 73.134472 
L 518.65284 73.250311 
L 519.65284 73.300492 
L 520.65284 73.336096 
L 521.65284 73.427503 
L 522.65284 73.481011 
L 523.65284 73.568919 
L 524.65284 73.638104 
L 525.65284 73.684868 
L 526.65284 73.756912 
L 527.65284 73.807054 
L 528.65284 73.824444 
L 529.65284 73.851447 
L 530.65284 73.870874 
L 531.65284 73.890212 
L 532.65284 73.928461 
L 533.65284 73.944894 
L 534.65284 73.953263 
L 535.65284 73.957582 
L 536.65284 73.964137 
L 537.65284 73.961591 
L 538.65284 73.956132 
L 539.65284 73.939704 
L 540.65284 73.907769 
L 541.65284 73.869789 
L 542.65284 73.834985 
L 543.65284 73.771913 
L 544.65284 73.750486 
L 545.65284 73.699868 
L 546.65284 73.674911 
L 547.65284 73.619277 
L 548.65284 73.588048 
L 549.65284 73.537904 
L 550.65284 73.505411 
L 551.65284 73.424999 
L 552.65284 73.356073 
L 553.65284 73.240376 
L 554.65284 73.164897 
L 555.65284 73.049372 
L 556.65284 72.969888 
L 557.65284 72.861447 
L 558.65284 72.822079 
L 559.65284 72.719211 
L 560.65284 72.619413 
L 562.407481 72.573916 
" clip-path="url(#pb8f5121dca)" style="fill: none; stroke: #ffffff; stroke-width: 3; stroke-linecap: round"/>
         <path d="M 327.65284 72.964375 
L 328.65284 72.995811 
L 329.65284 73.032752 
L 330.65284 73.130498 
L 331.65284 73.16302 
L 332.65284 73.236645 
L 333.65284 73.27521 
L 334.65284 73.310623 
L 335.65284 73.368263 
L 336.65284 73.438649 
L 337.65284 73.490614 
L 338.65284 73.549703 
L 339.65284 73.638024 
L 340.65284 73.684169 
L 341.65284 73.72658 
L 342.65284 73.757072 
L 343.65284 73.783117 
L 344.65284 73.804317 
L 345.65284 73.858618 
L 346.65284 73.886556 
L 347.65284 73.91628 
L 348.65284 73.941675 
L 349.65284 73.952875 
L 350.65284 73.962999 
L 351.65284 73.962795 
L 352.65284 73.953285 
L 353.65284 73.941631 
L 354.65284 73.910602 
L 355.65284 73.899434 
L 356.65284 73.869317 
L 357.65284 73.80954 
L 358.65284 73.772348 
L 359.65284 73.733252 
L 360.65284 73.690812 
L 361.65284 73.658047 
L 362.65284 73.590621 
L 363.65284 73.551495 
L 364.65284 73.50882 
L 365.65284 73.43824 
L 366.65284 73.401849 
L 367.65284 73.343446 
L 368.65284 73.232493 
L 369.65284 73.161835 
L 370.65284 73.048895 
L 371.65284 73.003122 
L 372.65284 72.941839 
L 373.65284 72.89334 
L 374.65284 72.812517 
L 375.65284 72.693998 
L 376.65284 72.623787 
L 377.65284 72.540525 
L 378.65284 72.507383 
L 379.65284 72.456146 
L 380.65284 72.387747 
L 381.65284 72.321532 
L 382.65284 72.244615 
L 383.65284 72.217299 
L 384.65284 72.190822 
L 385.65284 72.168171 
L 386.65284 72.14864 
L 387.65284 72.122246 
L 388.65284 72.072475 
L 389.65284 72.037402 
L 390.65284 72.001536 
L 391.65284 71.986169 
L 392.65284 71.9704 
L 393.65284 71.966987 
L 394.65284 71.96457 
L 395.65284 71.965056 
L 396.65284 71.966985 
L 397.65284 71.980242 
L 398.65284 71.988633 
L 399.65284 72.010169 
L 400.65284 72.033202 
L 401.65284 72.050435 
L 402.65284 72.068898 
L 403.65284 72.08935 
L 404.65284 72.10595 
L 405.65284 72.168729 
L 406.65284 72.243994 
L 407.65284 72.276633 
L 408.65284 72.344197 
L 409.65284 72.398244 
L 410.65284 72.431948 
L 411.65284 72.522074 
L 412.65284 72.550609 
L 413.65284 72.582095 
L 414.65284 72.613106 
L 415.65284 72.667914 
L 416.65284 72.732501 
L 417.65284 72.770697 
L 418.65284 72.866631 
L 419.65284 72.915889 
L 420.65284 72.959958 
L 421.65284 73.000082 
L 422.65284 73.108449 
L 423.65284 73.150077 
L 424.65284 73.212219 
L 425.65284 73.282181 
L 426.65284 73.386685 
L 427.65284 73.423673 
L 428.65284 73.46955 
L 429.65284 73.538045 
L 430.65284 73.586791 
L 431.65284 73.664388 
L 432.65284 73.694929 
L 433.65284 73.764443 
L 434.65284 73.788416 
L 435.65284 73.817038 
L 436.65284 73.858831 
L 437.65284 73.880407 
L 438.65284 73.894355 
L 439.65284 73.921077 
L 440.65284 73.930387 
L 441.65284 73.942834 
L 442.65284 73.953889 
L 443.65284 73.959553 
L 444.65284 73.964317 
L 445.65284 73.958769 
L 446.65284 73.945481 
L 447.65284 73.937964 
L 448.65284 73.913179 
L 449.65284 73.88961 
L 450.65284 73.85343 
L 451.65284 73.827468 
L 452.65284 73.805146 
L 453.65284 73.736386 
L 454.65284 73.661851 
L 455.65284 73.567872 
L 456.65284 73.51682 
L 457.65284 73.462886 
L 458.65284 73.427635 
L 459.65284 73.321547 
L 460.65284 73.269283 
L 461.65284 73.232376 
L 462.65284 73.201345 
L 463.65284 73.14019 
L 464.65284 73.07277 
L 465.65284 73.023864 
L 466.65284 72.958672 
L 467.65284 72.920484 
L 468.65284 72.878488 
L 469.65284 72.836471 
L 470.65284 72.776955 
L 471.65284 72.663795 
L 472.65284 72.611544 
L 473.65284 72.572126 
L 474.65284 72.525025 
L 475.65284 72.468245 
L 476.65284 72.435582 
L 477.65284 72.399404 
L 478.65284 72.367314 
L 479.65284 72.333034 
L 480.65284 72.274656 
L 481.65284 72.229471 
L 482.65284 72.199847 
L 483.65284 72.149461 
L 484.65284 72.124264 
L 485.65284 72.103213 
L 486.65284 72.068245 
L 487.65284 72.043955 
L 488.65284 72.029888 
L 489.65284 72.010946 
L 490.65284 71.995285 
L 491.65284 71.982733 
L 492.65284 71.976897 
L 493.65284 71.970015 
L 494.65284 71.964841 
L 495.65284 71.966624 
L 496.65284 71.969349 
L 497.65284 71.980503 
L 498.65284 72.008738 
L 499.65284 72.052526 
L 500.65284 72.073215 
L 501.65284 72.114188 
L 502.65284 72.154263 
L 503.65284 72.173373 
L 504.65284 72.195882 
L 505.65284 72.262533 
L 506.65284 72.312243 
L 507.65284 72.385949 
L 508.65284 72.417263 
L 509.65284 72.493885 
L 510.65284 72.532183 
L 511.65284 72.6063 
L 512.65284 72.710358 
L 513.65284 72.780189 
L 514.65284 72.885423 
L 515.65284 72.940438 
L 516.65284 73.063913 
L 517.65284 73.134472 
L 518.65284 73.250311 
L 519.65284 73.300492 
L 520.65284 73.336096 
L 521.65284 73.427503 
L 522.65284 73.481011 
L 523.65284 73.568919 
L 524.65284 73.638104 
L 525.65284 73.684868 
L 526.65284 73.756912 
L 527.65284 73.807054 
L 528.65284 73.824444 
L 529.65284 73.851447 
L 530.65284 73.870874 
L 531.65284 73.890212 
L 532.65284 73.928461 
L 533.65284 73.944894 
L 534.65284 73.953263 
L 535.65284 73.957582 
L 536.65284 73.964137 
L 537.65284 73.961591 
L 538.65284 73.956132 
L 539.65284 73.939704 
L 540.65284 73.907769 
L 541.65284 73.869789 
L 542.65284 73.834985 
L 543.65284 73.771913 
L 544.65284 73.750486 
L 545.65284 73.699868 
L 546.65284 73.674911 
L 547.65284 73.619277 
L 548.65284 73.588048 
L 549.65284 73.537904 
L 550.65284 73.505411 
L 551.65284 73.424999 
L 552.65284 73.356073 
L 553.65284 73.240376 
L 554.65284 73.164897 
L 555.65284 73.049372 
L 556.65284 72.969888 
L 557.65284 72.861447 
L 558.65284 72.822079 
L 559.65284 72.719211 
L 560.65284 72.619413 
L 562.407481 72.573916 
" clip-path="url(#pb8f5121dca)" style="fill: none; stroke: #1f77b4; stroke-linecap: round"/>
         <path d="M 558.407481 70.964375 
L 559.28785 71.439706 
L 560.165757 71.91996 
L 561.01647 72.454601 
L 562.318645 73.142048 
L 561.391291 73.168063 
L 560.479617 73.580783 
L 559.569353 73.996322 
L 558.226857 74.603126 
L 558.881756 73.964375 
L 558.93372 72.964375 
L 558.99281 70.964375 
z
" clip-path="url(#pb8f5121dca)" style="fill: #ffffff; stroke: #ffffff; stroke-width: 3; stroke-linecap: round"/>
         <path d="M 558.407481 70.964375 
L 559.28785 71.439706 
L 560.165757 71.91996 
L 561.01647 72.454601 
L 562.318645 73.142048 
L 561.391291 73.168063 
L 560.479617 73.580783 
L 559.569353 73.996322 
L 558.226857 74.603126 
L 558.881756 73.964375 
L 558.93372 72.964375 
L 558.99281 70.964375 
z
" clip-path="url(#pb8f5121dca)" style="fill: #ffffff; stroke: #1f77b4; stroke-linecap: round"/>
         <g id="patch_9">
          <path d="M 133.583013 292.6446 
L 134.583013 292.676037 
L 135.583013 292.712977 
L 136.583013 292.810724 
L 137.583013 292.843245 
L 138.583013 292.91687 
L 139.583013 292.955435 
L 140.583013 292.990849 
L 141.583013 293.048488 
L 142.583013 293.118875 
L 143.583013 293.170839 
L 144.583013 293.229929 
L 145.583013 293.31825 
L 146.583013 293.364394 
L 147.583013 293.406805 
L 148.583013 293.437298 
L 149.583013 293.463342 
L 150.583013 293.484543 
L 151.583013 293.538844 
L 152.583013 293.566781 
L 153.583013 293.596505 
L 154.583013 293.6219 
L 155.583013 293.6331 
L 156.583013 293.643224 
L 157.583013 293.64302 
L 158.583013 293.63351 
L 159.583013 293.621857 
L 160.583013 293.590827 
L 161.583013 293.579659 
L 162.583013 293.549542 
L 163.583013 293.489765 
L 164.583013 293.452573 
L 165.583013 293.413477 
L 166.583013 293.371038 
L 167.583013 293.338273 
L 168.583013 293.270846 
L 169.583013 293.23172 
L 170.583013 293.189046 
L 171.583013 293.118465 
L 172.583013 293.082074 
L 173.583013 293.023671 
L 174.583013 292.912718 
L 175.583013 292.84206 
L 176.583013 292.72912 
L 177.583013 292.683347 
L 178.583013 292.622064 
L 179.583013 292.573565 
L 180.583013 292.492742 
L 181.583013 292.374223 
L 182.583013 292.304013 
L 183.583013 292.22075 
L 184.583013 292.187608 
L 185.583013 292.136371 
L 186.583013 292.067973 
L 187.583013 292.001757 
L 188.583013 291.92484 
L 189.583013 291.897525 
L 190.583013 291.871047 
L 191.583013 291.848397 
L 192.583013 291.828865 
L 193.583013 291.802471 
L 194.583013 291.7527 
L 195.583013 291.717627 
L 196.583013 291.681762 
L 197.583013 291.666394 
L 198.583013 291.650625 
L 199.583013 291.647213 
L 200.583013 291.644795 
L 201.583013 291.645281 
L 202.583013 291.64721 
L 203.583013 291.660467 
L 204.583013 291.668858 
L 205.583013 291.690395 
L 206.583013 291.713427 
L 207.583013 291.73066 
L 208.583013 291.749123 
L 209.583013 291.769575 
L 210.583013 291.786175 
L 211.583013 291.848954 
L 212.583013 291.924219 
L 213.583013 291.956858 
L 214.583013 292.024422 
L 215.583013 292.078469 
L 216.583013 292.112173 
L 217.583013 292.202299 
L 218.583013 292.230834 
L 219.583013 292.26232 
L 220.583013 292.293331 
L 221.583013 292.348139 
L 222.583013 292.412727 
L 223.583013 292.450922 
L 224.583013 292.546856 
L 225.583013 292.596114 
L 226.583013 292.640184 
L 227.583013 292.680307 
L 228.583013 292.788674 
L 229.583013 292.830302 
L 230.583013 292.892444 
L 231.583013 292.962406 
L 232.583013 293.06691 
L 233.583013 293.103898 
L 234.583013 293.149775 
L 235.583013 293.21827 
L 236.583013 293.267016 
L 237.583013 293.344613 
L 238.583013 293.375154 
L 239.583013 293.444668 
L 240.583013 293.468641 
L 241.583013 293.497263 
L 242.583013 293.539056 
L 243.583013 293.560632 
L 244.583013 293.57458 
L 245.583013 293.601303 
L 246.583013 293.610612 
L 247.583013 293.623059 
L 248.583013 293.634114 
L 249.583013 293.639778 
L 250.583013 293.644542 
L 251.583013 293.638995 
L 252.583013 293.625707 
L 253.583013 293.618189 
L 254.583013 293.593404 
L 255.583013 293.569836 
L 256.583013 293.533655 
L 257.583013 293.507693 
L 258.583013 293.485372 
L 259.583013 293.416611 
L 260.583013 293.342076 
L 261.583013 293.248097 
L 262.583013 293.197045 
L 263.583013 293.143111 
L 264.583013 293.10786 
L 265.583013 293.001772 
L 266.583013 292.949508 
L 267.583013 292.912601 
L 268.583013 292.881571 
L 269.583013 292.820415 
L 270.583013 292.752995 
L 271.583013 292.704089 
L 272.583013 292.638897 
L 273.583013 292.600709 
L 274.583013 292.558714 
L 275.583013 292.516696 
L 276.583013 292.45718 
L 277.583013 292.34402 
L 278.583013 292.291769 
L 279.583013 292.252351 
L 280.583013 292.20525 
L 281.583013 292.148471 
L 282.583013 292.115807 
L 283.583013 292.07963 
L 284.583013 292.047539 
L 285.583013 292.013259 
L 286.583013 291.954881 
L 287.583013 291.909696 
L 288.583013 291.880072 
L 289.583013 291.829687 
L 290.583013 291.804489 
L 291.583013 291.783438 
L 292.583013 291.74847 
L 293.583013 291.72418 
L 294.583013 291.710113 
L 295.583013 291.691171 
L 296.583013 291.67551 
L 297.583013 291.662958 
L 298.583013 291.657122 
L 299.583013 291.65024 
L 300.583013 291.645066 
L 301.583013 291.646849 
L 302.583013 291.649575 
L 303.583013 291.660728 
L 304.583013 291.688963 
L 305.583013 291.732751 
L 306.583013 291.75344 
L 307.583013 291.794414 
L 308.583013 291.834488 
L 309.583013 291.853598 
L 310.583013 291.876107 
L 311.583013 291.942759 
L 312.583013 291.992468 
L 313.583013 292.066175 
L 314.583013 292.097488 
L 315.583013 292.17411 
L 316.583013 292.212408 
L 317.583013 292.286525 
L 318.583013 292.390583 
L 319.583013 292.460414 
L 320.583013 292.565648 
L 321.583013 292.620663 
L 322.583013 292.744138 
L 323.583013 292.814697 
L 324.583013 292.930537 
L 325.583013 292.980717 
L 326.583013 293.016321 
L 327.583013 293.107728 
L 328.583013 293.161236 
L 329.583013 293.249144 
L 330.583013 293.318329 
L 331.583013 293.365093 
L 332.583013 293.437137 
L 333.583013 293.487279 
L 334.583013 293.504669 
L 335.583013 293.531672 
L 336.583013 293.5511 
L 337.583013 293.570438 
L 338.583013 293.608686 
L 339.583013 293.625119 
L 340.583013 293.633488 
L 341.583013 293.637807 
L 342.583013 293.644362 
L 343.583013 293.641816 
L 344.583013 293.636358 
L 345.583013 293.619929 
L 346.583013 293.587994 
L 347.583013 293.550014 
L 348.583013 293.51521 
L 349.583013 293.452138 
L 350.583013 293.430712 
L 351.583013 293.380094 
L 352.583013 293.355136 
L 353.583013 293.299503 
L 354.583013 293.268274 
L 355.583013 293.218129 
L 356.583013 293.185636 
L 357.583013 293.105224 
L 358.583013 293.036298 
L 359.583013 292.920601 
L 360.583013 292.845122 
L 361.583013 292.729597 
L 362.583013 292.650113 
L 363.583013 292.541672 
L 364.583013 292.502304 
L 365.583013 292.399437 
L 366.583013 292.299639 
L 367.583013 292.254141 
L 368.583013 292.219819 
L 369.583013 292.167863 
L 370.583013 292.128216 
L 371.583013 292.092702 
L 372.583013 292.025057 
L 373.583013 291.985976 
L 374.583013 291.935494 
L 375.583013 291.886188 
L 376.583013 291.835119 
L 377.583013 291.790879 
L 378.583013 291.768859 
L 379.583013 291.753303 
L 380.583013 291.710856 
L 381.583013 291.695988 
L 382.583013 291.673261 
L 383.583013 291.652944 
L 384.583013 291.647147 
L 385.583013 291.644665 
L 386.583013 291.647722 
L 387.583013 291.659318 
L 388.583013 291.676238 
L 389.583013 291.707899 
L 390.583013 291.721983 
L 391.583013 291.774654 
L 392.583013 291.823743 
L 393.583013 291.878444 
L 394.583013 291.922792 
L 395.583013 291.992784 
L 396.583013 292.043167 
L 397.583013 292.097074 
L 398.583013 292.166513 
L 399.583013 292.223901 
L 400.583013 292.274066 
L 401.583013 292.351228 
L 402.583013 292.409418 
L 403.583013 292.470056 
L 404.583013 292.507257 
L 405.583013 292.572349 
L 406.583013 292.677479 
L 407.583013 292.737781 
L 408.583013 292.834103 
L 409.583013 292.866106 
L 410.583013 292.917123 
L 411.583013 293.033915 
L 412.583013 293.069362 
L 413.583013 293.125243 
L 414.583013 293.155618 
L 415.583013 293.244004 
L 416.583013 293.288768 
L 417.583013 293.369656 
L 418.583013 293.429802 
L 419.583013 293.492888 
L 420.583013 293.515837 
L 421.583013 293.532006 
L 422.583013 293.560935 
L 423.583013 293.591287 
L 424.583013 293.603862 
L 425.583013 293.62874 
L 426.583013 293.640825 
L 427.583013 293.644586 
L 428.583013 293.64015 
L 429.583013 293.627811 
L 430.583013 293.613398 
L 431.583013 293.597325 
L 432.583013 293.561804 
L 433.583013 293.54187 
L 434.583013 293.485281 
L 435.583013 293.418087 
L 436.583013 293.390717 
L 437.583013 293.35657 
L 438.951185 293.307889 
" clip-path="url(#pb8f5121dca)" style="fill: none; stroke: #ffffff; stroke-width: 3; stroke-linecap: round"/>
          <path d="M 133.583013 292.6446 
L 134.583013 292.676037 
L 135.583013 292.712977 
L 136.583013 292.810724 
L 137.583013 292.843245 
L 138.583013 292.91687 
L 139.583013 292.955435 
L 140.583013 292.990849 
L 141.583013 293.048488 
L 142.583013 293.118875 
L 143.583013 293.170839 
L 144.583013 293.229929 
L 145.583013 293.31825 
L 146.583013 293.364394 
L 147.583013 293.406805 
L 148.583013 293.437298 
L 149.583013 293.463342 
L 150.583013 293.484543 
L 151.583013 293.538844 
L 152.583013 293.566781 
L 153.583013 293.596505 
L 154.583013 293.6219 
L 155.583013 293.6331 
L 156.583013 293.643224 
L 157.583013 293.64302 
L 158.583013 293.63351 
L 159.583013 293.621857 
L 160.583013 293.590827 
L 161.583013 293.579659 
L 162.583013 293.549542 
L 163.583013 293.489765 
L 164.583013 293.452573 
L 165.583013 293.413477 
L 166.583013 293.371038 
L 167.583013 293.338273 
L 168.583013 293.270846 
L 169.583013 293.23172 
L 170.583013 293.189046 
L 171.583013 293.118465 
L 172.583013 293.082074 
L 173.583013 293.023671 
L 174.583013 292.912718 
L 175.583013 292.84206 
L 176.583013 292.72912 
L 177.583013 292.683347 
L 178.583013 292.622064 
L 179.583013 292.573565 
L 180.583013 292.492742 
L 181.583013 292.374223 
L 182.583013 292.304013 
L 183.583013 292.22075 
L 184.583013 292.187608 
L 185.583013 292.136371 
L 186.583013 292.067973 
L 187.583013 292.001757 
L 188.583013 291.92484 
L 189.583013 291.897525 
L 190.583013 291.871047 
L 191.583013 291.848397 
L 192.583013 291.828865 
L 193.583013 291.802471 
L 194.583013 291.7527 
L 195.583013 291.717627 
L 196.583013 291.681762 
L 197.583013 291.666394 
L 198.583013 291.650625 
L 199.583013 291.647213 
L 200.583013 291.644795 
L 201.583013 291.645281 
L 202.583013 291.64721 
L 203.583013 291.660467 
L 204.583013 291.668858 
L 205.583013 291.690395 
L 206.583013 291.713427 
L 207.583013 291.73066 
L 208.583013 291.749123 
L 209.583013 291.769575 
L 210.583013 291.786175 
L 211.583013 291.848954 
L 212.583013 291.924219 
L 213.583013 291.956858 
L 214.583013 292.024422 
L 215.583013 292.078469 
L 216.583013 292.112173 
L 217.583013 292.202299 
L 218.583013 292.230834 
L 219.583013 292.26232 
L 220.583013 292.293331 
L 221.583013 292.348139 
L 222.583013 292.412727 
L 223.583013 292.450922 
L 224.583013 292.546856 
L 225.583013 292.596114 
L 226.583013 292.640184 
L 227.583013 292.680307 
L 228.583013 292.788674 
L 229.583013 292.830302 
L 230.583013 292.892444 
L 231.583013 292.962406 
L 232.583013 293.06691 
L 233.583013 293.103898 
L 234.583013 293.149775 
L 235.583013 293.21827 
L 236.583013 293.267016 
L 237.583013 293.344613 
L 238.583013 293.375154 
L 239.583013 293.444668 
L 240.583013 293.468641 
L 241.583013 293.497263 
L 242.583013 293.539056 
L 243.583013 293.560632 
L 244.583013 293.57458 
L 245.583013 293.601303 
L 246.583013 293.610612 
L 247.583013 293.623059 
L 248.583013 293.634114 
L 249.583013 293.639778 
L 250.583013 293.644542 
L 251.583013 293.638995 
L 252.583013 293.625707 
L 253.583013 293.618189 
L 254.583013 293.593404 
L 255.583013 293.569836 
L 256.583013 293.533655 
L 257.583013 293.507693 
L 258.583013 293.485372 
L 259.583013 293.416611 
L 260.583013 293.342076 
L 261.583013 293.248097 
L 262.583013 293.197045 
L 263.583013 293.143111 
L 264.583013 293.10786 
L 265.583013 293.001772 
L 266.583013 292.949508 
L 267.583013 292.912601 
L 268.583013 292.881571 
L 269.583013 292.820415 
L 270.583013 292.752995 
L 271.583013 292.704089 
L 272.583013 292.638897 
L 273.583013 292.600709 
L 274.583013 292.558714 
L 275.583013 292.516696 
L 276.583013 292.45718 
L 277.583013 292.34402 
L 278.583013 292.291769 
L 279.583013 292.252351 
L 280.583013 292.20525 
L 281.583013 292.148471 
L 282.583013 292.115807 
L 283.583013 292.07963 
L 284.583013 292.047539 
L 285.583013 292.013259 
L 286.583013 291.954881 
L 287.583013 291.909696 
L 288.583013 291.880072 
L 289.583013 291.829687 
L 290.583013 291.804489 
L 291.583013 291.783438 
L 292.583013 291.74847 
L 293.583013 291.72418 
L 294.583013 291.710113 
L 295.583013 291.691171 
L 296.583013 291.67551 
L 297.583013 291.662958 
L 298.583013 291.657122 
L 299.583013 291.65024 
L 300.583013 291.645066 
L 301.583013 291.646849 
L 302.583013 291.649575 
L 303.583013 291.660728 
L 304.583013 291.688963 
L 305.583013 291.732751 
L 306.583013 291.75344 
L 307.583013 291.794414 
L 308.583013 291.834488 
L 309.583013 291.853598 
L 310.583013 291.876107 
L 311.583013 291.942759 
L 312.583013 291.992468 
L 313.583013 292.066175 
L 314.583013 292.097488 
L 315.583013 292.17411 
L 316.583013 292.212408 
L 317.583013 292.286525 
L 318.583013 292.390583 
L 319.583013 292.460414 
L 320.583013 292.565648 
L 321.583013 292.620663 
L 322.583013 292.744138 
L 323.583013 292.814697 
L 324.583013 292.930537 
L 325.583013 292.980717 
L 326.583013 293.016321 
L 327.583013 293.107728 
L 328.583013 293.161236 
L 329.583013 293.249144 
L 330.583013 293.318329 
L 331.583013 293.365093 
L 332.583013 293.437137 
L 333.583013 293.487279 
L 334.583013 293.504669 
L 335.583013 293.531672 
L 336.583013 293.5511 
L 337.583013 293.570438 
L 338.583013 293.608686 
L 339.583013 293.625119 
L 340.583013 293.633488 
L 341.583013 293.637807 
L 342.583013 293.644362 
L 343.583013 293.641816 
L 344.583013 293.636358 
L 345.583013 293.619929 
L 346.583013 293.587994 
L 347.583013 293.550014 
L 348.583013 293.51521 
L 349.583013 293.452138 
L 350.583013 293.430712 
L 351.583013 293.380094 
L 352.583013 293.355136 
L 353.583013 293.299503 
L 354.583013 293.268274 
L 355.583013 293.218129 
L 356.583013 293.185636 
L 357.583013 293.105224 
L 358.583013 293.036298 
L 359.583013 292.920601 
L 360.583013 292.845122 
L 361.583013 292.729597 
L 362.583013 292.650113 
L 363.583013 292.541672 
L 364.583013 292.502304 
L 365.583013 292.399437 
L 366.583013 292.299639 
L 367.583013 292.254141 
L 368.583013 292.219819 
L 369.583013 292.167863 
L 370.583013 292.128216 
L 371.583013 292.092702 
L 372.583013 292.025057 
L 373.583013 291.985976 
L 374.583013 291.935494 
L 375.583013 291.886188 
L 376.583013 291.835119 
L 377.583013 291.790879 
L 378.583013 291.768859 
L 379.583013 291.753303 
L 380.583013 291.710856 
L 381.583013 291.695988 
L 382.583013 291.673261 
L 383.583013 291.652944 
L 384.583013 291.647147 
L 385.583013 291.644665 
L 386.583013 291.647722 
L 387.583013 291.659318 
L 388.583013 291.676238 
L 389.583013 291.707899 
L 390.583013 291.721983 
L 391.583013 291.774654 
L 392.583013 291.823743 
L 393.583013 291.878444 
L 394.583013 291.922792 
L 395.583013 291.992784 
L 396.583013 292.043167 
L 397.583013 292.097074 
L 398.583013 292.166513 
L 399.583013 292.223901 
L 400.583013 292.274066 
L 401.583013 292.351228 
L 402.583013 292.409418 
L 403.583013 292.470056 
L 404.583013 292.507257 
L 405.583013 292.572349 
L 406.583013 292.677479 
L 407.583013 292.737781 
L 408.583013 292.834103 
L 409.583013 292.866106 
L 410.583013 292.917123 
L 411.583013 293.033915 
L 412.583013 293.069362 
L 413.583013 293.125243 
L 414.583013 293.155618 
L 415.583013 293.244004 
L 416.583013 293.288768 
L 417.583013 293.369656 
L 418.583013 293.429802 
L 419.583013 293.492888 
L 420.583013 293.515837 
L 421.583013 293.532006 
L 422.583013 293.560935 
L 423.583013 293.591287 
L 424.583013 293.603862 
L 425.583013 293.62874 
L 426.583013 293.640825 
L 427.583013 293.644586 
L 428.583013 293.64015 
L 429.583013 293.627811 
L 430.583013 293.613398 
L 431.583013 293.597325 
L 432.583013 293.561804 
L 433.583013 293.54187 
L 434.583013 293.485281 
L 435.583013 293.418087 
L 436.583013 293.390717 
L 437.583013 293.35657 
L 438.951185 293.307889 
" clip-path="url(#pb8f5121dca)" style="fill: none; stroke: #ff7f0e; stroke-linecap: round"/>
          <path d="M 434.951185 290.6446 
L 435.831554 291.119931 
L 436.709461 291.600185 
L 437.560174 292.134826 
L 438.862349 292.822274 
L 437.934995 292.848288 
L 437.023321 293.261008 
L 436.113057 293.676547 
L 434.770561 294.283351 
L 435.42546 293.6446 
L 435.477424 292.6446 
L 435.536514 290.6446 
z
" clip-path="url(#pb8f5121dca)" style="fill: #ffffff; stroke: #ffffff; stroke-width: 3; stroke-linecap: round"/>
          <path d="M 434.951185 290.6446 
L 435.831554 291.119931 
L 436.709461 291.600185 
L 437.560174 292.134826 
L 438.862349 292.822274 
L 437.934995 292.848288 
L 437.023321 293.261008 
L 436.113057 293.676547 
L 434.770561 294.283351 
L 435.42546 293.6446 
L 435.477424 292.6446 
L 435.536514 290.6446 
z
" clip-path="url(#pb8f5121dca)" style="fill: #ffffff; stroke: #ff7f0e; stroke-linecap: round"/>
          <path d="M 451.997934 309.117564 
" clip-path="url(#pb8f5121dca)" style="fill: none; stroke-dasharray: 3.7,1.6; stroke-dashoffset: 0; stroke: #2ca02c"/>
          <path d="M 450.997934 309.117564 
L 452.997934 310.117564 
L 452.997934 308.117564 
z
" clip-path="url(#pb8f5121dca)" style="fill: #2ca02c; stroke: #2ca02c; stroke-linejoin: miter"/>
          <g id="patch_10">
           <path d="M 63.290625 321.621875 
L 63.290625 10.8 
" style="fill: none; stroke: #000000; stroke-width: 0.8; stroke-linejoin: miter; stroke-linecap: square"/>
          </g>
          <g id="text_11">
           <g id="patch_11">
            <path d="M 305.729281 148.194019 
L 327.033968 148.194019 
Q 329.033968 148.194019 329.033968 146.194019 
L 329.033968 136.515894 
Q 329.033968 134.515894 327.033968 134.515894 
L 305.729281 134.515894 
Q 303.729281 134.515894 303.729281 136.515894 
L 303.729281 146.194019 
Q 303.729281 148.194019 305.729281 148.194019 
z
" style="fill: #ffffff; opacity: 0.6"/>
           </g>
           <!-- ANC -->
           <g transform="translate(305.729281 144.114331) scale(0.1 -0.1)">
            <defs>
             <path id="DejaVuSans-4e" d="M 628 4666 
L 1478 4666 
L 3547 763 
L 3547 4666 
L 4159 4666 
L 4159 0 
L 3309 0 
L 1241 3903 
L 1241 0 
L 628 0 
L 628 4666 
z
" transform="scale(0.015625)"/>
            </defs>
            <use xlink:href="#DejaVuSans-41"/>
            <use xlink:href="#DejaVuSans-4e" x="68.408203"/>
            <use xlink:href="#DejaVuSans-43" x="143.212891"/>
           </g>
          </g>
         </g>
        </g>
        <defs>
         <clipPath id="pb8f5121dca">
          <rect x="63.290625" y="10.8" width="540.309375" height="310.821875"/>
         </clipPath>
        </defs>
       </g>
      </g>
     </g>
    </g>
   </g>
  </g>
 </g>
</svg>
