<?xml version="1.0" encoding="utf-8" standalone="no"?>
<!DOCTYPE svg PUBLIC "-//W3C//DTD SVG 1.1//EN"
  "http://www.w3.org/Graphics/SVG/1.1/DTD/svg11.dtd">
<svg xmlns:xlink="http://www.w3.org/1999/xlink" width="614.4pt" height="345.6pt" viewBox="0 0 614.4 345.6" xmlns="http://www.w3.org/2000/svg" version="1.1">
 <metadata>
  <rdf:RDF xmlns:dc="http://purl.org/dc/elements/1.1/" xmlns:cc="http://creativecommons.org/ns#" xmlns:rdf="http://www.w3.org/1999/02/22-rdf-syntax-ns#">
   <cc:Work>
    <dc:type rdf:resource="http://purl.org/dc/dcmitype/StillImage"/>
    <dc:date>2024-04-17T19:40:02.304139</dc:date>
    <dc:format>image/svg+xml</dc:format>
    <dc:creator>
     <cc:Agent>
      <dc:title>Matplotlib v3.7.1, https://matplotlib.org/</dc:title>
     </cc:Agent>
    </dc:creator>
   </cc:Work>
  </rdf:RDF>
 </metadata>
 <defs>
  <style type="text/css">*{stroke-linejoin: round; stroke-linecap: butt}</style>
 </defs>
 <g id="figure_1">
  <g id="patch_1">
   <path d="M 0 345.6 
L 614.4 345.6 
L 614.4 0 
L 0 0 
z
" style="fill: #ffffff"/>
  </g>
  <g id="axes_1">
   <g id="patch_2">
    <path d="M 63.290625 321.621875 
L 603.6 321.621875 
L 603.6 10.8 
L 63.290625 10.8 
z
" style="fill: #ffffff"/>
   </g>
   <path d="M 556.327468 293.090608 
L 555.327468 293.059172 
L 554.327468 293.022231 
L 553.327468 292.924485 
L 552.327468 292.891963 
L 551.327468 292.818338 
L 550.327468 292.779773 
L 549.327468 292.74436 
L 548.327468 292.68672 
L 547.327468 292.616334 
L 546.327468 292.564369 
L 545.327468 292.50528 
L 544.327468 292.416959 
L 543.327468 292.370814 
L 542.327468 292.328403 
L 541.327468 292.297911 
L 540.327468 292.271866 
L 539.327468 292.250666 
L 538.327468 292.196365 
L 537.327468 292.168427 
L 536.327468 292.138703 
L 535.327468 292.113308 
L 534.327468 292.102108 
L 533.327468 292.091984 
L 532.327468 292.092188 
L 531.327468 292.101698 
L 530.327468 292.113352 
L 529.327468 292.144381 
L 528.327468 292.155549 
L 527.327468 292.185666 
L 526.327468 292.245443 
L 525.327468 292.282635 
L 524.327468 292.321731 
L 523.327468 292.364171 
L 522.327468 292.396936 
L 521.327468 292.464362 
L 520.327468 292.503488 
L 519.327468 292.546163 
L 518.327468 292.616743 
L 517.327468 292.653134 
L 516.327468 292.711537 
L 515.327468 292.82249 
L 514.327468 292.893148 
L 513.327468 293.006088 
L 512.327468 293.051861 
L 511.327468 293.113144 
L 510.327468 293.161643 
L 509.327468 293.242466 
L 508.327468 293.360985 
L 507.327468 293.431196 
L 506.327468 293.514458 
L 505.327468 293.5476 
L 504.327468 293.598837 
L 503.327468 293.667236 
L 502.327468 293.733451 
L 501.327468 293.810368 
L 500.327468 293.837684 
L 499.327468 293.864161 
L 498.327468 293.886812 
L 497.327468 293.906343 
L 496.327468 293.932737 
L 495.327468 293.982508 
L 494.327468 294.017581 
L 493.327468 294.053447 
L 492.327468 294.068814 
L 491.327468 294.084583 
L 490.327468 294.087996 
L 489.327468 294.090413 
L 488.327468 294.089927 
L 487.327468 294.087998 
L 486.327468 294.074741 
L 485.327468 294.066351 
L 484.327468 294.044814 
L 483.327468 294.021781 
L 482.327468 294.004548 
L 481.327468 293.986085 
L 480.327468 293.965633 
L 479.327468 293.949033 
L 478.327468 293.886254 
L 477.327468 293.810989 
L 476.327468 293.77835 
L 475.327468 293.710786 
L 474.327468 293.656739 
L 473.327468 293.623035 
L 472.327468 293.532909 
L 471.327468 293.504374 
L 470.327468 293.472888 
L 469.327468 293.441877 
L 468.327468 293.387069 
L 467.327468 293.322482 
L 466.327468 293.284286 
L 465.327468 293.188352 
L 464.327468 293.139094 
L 463.327468 293.095025 
L 462.327468 293.054901 
L 461.327468 292.946534 
L 460.327468 292.904906 
L 459.327468 292.842764 
L 458.327468 292.772802 
L 457.327468 292.668298 
L 456.327468 292.63131 
L 455.327468 292.585433 
L 454.327468 292.516938 
L 453.327468 292.468192 
L 452.327468 292.390595 
L 451.327468 292.360054 
L 450.327468 292.29054 
L 448.670746 292.266567 
" clip-path="url(#pcad51b5177)" style="fill: none; stroke-dasharray: 3.7,1.6; stroke-dashoffset: 0; stroke: #2ca02c"/>
   <g id="patch_3">
    <path d="M 275.133187 10.8 
L 275.133187 282.083546 
M 339.198725 10.8 
L 339.198725 282.083546 
" clip-path="url(#pcad51b5177)" style="fill: none; stroke: #ffffff; stroke-width: 3; stroke-linejoin: miter"/>
    <path d="M 275.133187 10.8 
L 275.133187 282.083546 
M 339.198725 10.8 
L 339.198725 282.083546 
" clip-path="url(#pcad51b5177)" style="fill: none; stroke: #1f77b4; stroke-linejoin: miter"/>
    <g id="PolyCollection_1">
     <path d="M 339.198725 10.8 
L 275.133187 10.8 
L 275.133187 282.083546 
L 339.198725 282.083546 
L 339.198725 282.083546 
L 339.198725 10.8 
z
" clip-path="url(#pcad51b5177)" style="fill: #1f77b4; fill-opacity: 0.5"/>
    </g>
    <g id="patch_4">
     <path d="M 98.749125 282.083546 
L 98.672349 313.371925 
L 96.750784 315.308138 
L 94.601654 317.160167 
L 92.219589 318.928014 
L 89.462978 320.69586 
L 87.850142 321.621875 
M 120.753437 282.083546 
L 120.830213 313.371925 
L 122.751778 315.308138 
L 124.900908 317.160167 
L 127.282972 318.928014 
L 130.039583 320.69586 
L 131.652419 321.621875 
L 131.652419 321.621875 
" clip-path="url(#pcad51b5177)" style="fill: none; stroke: #ffffff; stroke-width: 3; stroke-linejoin: miter"/>
     <path d="M 98.749125 282.083546 
L 98.672349 313.371925 
L 96.750784 315.308138 
L 94.601654 317.160167 
L 92.219589 318.928014 
L 89.462978 320.69586 
L 87.850142 321.621875 
M 120.753437 282.083546 
L 120.830213 313.371925 
L 122.751778 315.308138 
L 124.900908 317.160167 
L 127.282972 318.928014 
L 130.039583 320.69586 
L 131.652419 321.621875 
L 131.652419 321.621875 
" clip-path="url(#pcad51b5177)" style="fill: none; stroke: #ff7f0e; stroke-linejoin: miter"/>
     <g id="PolyCollection_2">
      <path d="M 120.753437 282.083546 
L 98.749125 282.083546 
L 98.749125 313.287742 
L 98.749125 313.287742 
L 98.672349 313.371925 
L 98.595037 313.456108 
L 98.517186 313.540291 
L 98.438792 313.624474 
L 98.359851 313.708658 
L 98.280358 313.792841 
L 98.200311 313.877024 
L 98.119706 313.961207 
L 98.038538 314.04539 
L 97.956803 314.129573 
L 97.874499 314.213757 
L 97.791619 314.29794 
L 97.708162 314.382123 
L 97.624122 314.466306 
L 97.539496 314.550489 
L 97.454279 314.634672 
L 97.368467 314.718856 
L 97.282057 314.803039 
L 97.195044 314.887222 
L 97.107423 314.971405 
L 97.019191 315.055588 
L 96.930343 315.139771 
L 96.840876 315.223955 
L 96.750784 315.308138 
L 96.660063 315.392321 
L 96.568709 315.476504 
L 96.476718 315.560687 
L 96.384085 315.64487 
L 96.290805 315.729054 
L 96.196875 315.813237 
L 96.102289 315.89742 
L 96.007042 315.981603 
L 95.911132 316.065786 
L 95.814552 316.149969 
L 95.717298 316.234152 
L 95.619365 316.318336 
L 95.520749 316.402519 
L 95.421445 316.486702 
L 95.321448 316.570885 
L 95.220753 316.655068 
L 95.119355 316.739251 
L 95.01725 316.823435 
L 94.914432 316.907618 
L 94.810897 316.991801 
L 94.706639 317.075984 
L 94.601654 317.160167 
L 94.495936 317.24435 
L 94.389481 317.328534 
L 94.282282 317.412717 
L 94.174336 317.4969 
L 94.065636 317.581083 
L 93.956177 317.665266 
L 93.845955 317.749449 
L 93.734964 317.833633 
L 93.623198 317.917816 
L 93.510652 318.001999 
L 93.397321 318.086182 
L 93.283199 318.170365 
L 93.168281 318.254548 
L 93.05256 318.338732 
L 92.936033 318.422915 
L 92.818692 318.507098 
L 92.700532 318.591281 
L 92.581547 318.675464 
L 92.461733 318.759647 
L 92.341082 318.843831 
L 92.219589 318.928014 
L 92.097249 319.012197 
L 91.974054 319.09638 
L 91.850001 319.180563 
L 91.725081 319.264746 
L 91.59929 319.34893 
L 91.472621 319.433113 
L 91.345067 319.517296 
L 91.216624 319.601479 
L 91.087285 319.685662 
L 90.957043 319.769845 
L 90.825892 319.854029 
L 90.693826 319.938212 
L 90.560838 320.022395 
L 90.426923 320.106578 
L 90.292072 320.190761 
L 90.156281 320.274944 
L 90.019542 320.359128 
L 89.881849 320.443311 
L 89.743196 320.527494 
L 89.603574 320.611677 
L 89.462978 320.69586 
L 89.321402 320.780043 
L 89.178837 320.864227 
L 89.035277 320.94841 
L 88.890716 321.032593 
L 88.745146 321.116776 
L 88.598559 321.200959 
L 88.450951 321.285142 
L 88.302312 321.369326 
L 88.152635 321.453509 
L 88.001915 321.537692 
L 87.850142 321.621875 
L 131.652419 321.621875 
L 131.652419 321.621875 
L 131.500647 321.537692 
L 131.349926 321.453509 
L 131.20025 321.369326 
L 131.051611 321.285142 
L 130.904002 321.200959 
L 130.757416 321.116776 
L 130.611846 321.032593 
L 130.467284 320.94841 
L 130.323725 320.864227 
L 130.18116 320.780043 
L 130.039583 320.69586 
L 129.898987 320.611677 
L 129.759366 320.527494 
L 129.620712 320.443311 
L 129.483019 320.359128 
L 129.34628 320.274944 
L 129.210489 320.190761 
L 129.075639 320.106578 
L 128.941723 320.022395 
L 128.808736 319.938212 
L 128.67667 319.854029 
L 128.545519 319.769845 
L 128.415277 319.685662 
L 128.285937 319.601479 
L 128.157494 319.517296 
L 128.029941 319.433113 
L 127.903272 319.34893 
L 127.777481 319.264746 
L 127.652561 319.180563 
L 127.528507 319.09638 
L 127.405313 319.012197 
L 127.282972 318.928014 
L 127.16148 318.843831 
L 127.040829 318.759647 
L 126.921014 318.675464 
L 126.80203 318.591281 
L 126.68387 318.507098 
L 126.566529 318.422915 
L 126.450001 318.338732 
L 126.334281 318.254548 
L 126.219362 318.170365 
L 126.10524 318.086182 
L 125.991909 318.001999 
L 125.879364 317.917816 
L 125.767598 317.833633 
L 125.656606 317.749449 
L 125.546384 317.665266 
L 125.436926 317.581083 
L 125.328226 317.4969 
L 125.220279 317.412717 
L 125.113081 317.328534 
L 125.006625 317.24435 
L 124.900908 317.160167 
L 124.795922 317.075984 
L 124.691665 316.991801 
L 124.588129 316.907618 
L 124.485312 316.823435 
L 124.383206 316.739251 
L 124.281809 316.655068 
L 124.181114 316.570885 
L 124.081117 316.486702 
L 123.981812 316.402519 
L 123.883196 316.318336 
L 123.785264 316.234152 
L 123.68801 316.149969 
L 123.59143 316.065786 
L 123.495519 315.981603 
L 123.400273 315.89742 
L 123.305687 315.813237 
L 123.211756 315.729054 
L 123.118477 315.64487 
L 123.025844 315.560687 
L 122.933852 315.476504 
L 122.842499 315.392321 
L 122.751778 315.308138 
L 122.661686 315.223955 
L 122.572218 315.139771 
L 122.48337 315.055588 
L 122.395138 314.971405 
L 122.307518 314.887222 
L 122.220505 314.803039 
L 122.134094 314.718856 
L 122.048283 314.634672 
L 121.963066 314.550489 
L 121.878439 314.466306 
L 121.7944 314.382123 
L 121.710942 314.29794 
L 121.628063 314.213757 
L 121.545758 314.129573 
L 121.464024 314.04539 
L 121.382856 313.961207 
L 121.30225 313.877024 
L 121.222203 313.792841 
L 121.142711 313.708658 
L 121.06377 313.624474 
L 120.985375 313.540291 
L 120.907524 313.456108 
L 120.830213 313.371925 
L 120.753437 313.287742 
L 120.753437 313.287742 
L 120.753437 282.083546 
z
" clip-path="url(#pcad51b5177)" style="fill: #ff7f0e; fill-opacity: 0.5"/>
     </g>
     <g id="patch_5">
      <path d="M 561.730562 72.964375 
L 561.730562 321.621875 
M 579.040483 72.964375 
L 579.040483 321.621875 
" clip-path="url(#pcad51b5177)" style="fill: none; stroke: #ffffff; stroke-width: 3; stroke-linejoin: miter"/>
      <path d="M 561.730562 72.964375 
L 561.730562 321.621875 
M 579.040483 72.964375 
L 579.040483 321.621875 
" clip-path="url(#pcad51b5177)" style="fill: none; stroke: #2ca02c; stroke-linejoin: miter"/>
      <g id="PolyCollection_3">
       <path d="M 579.040483 72.964375 
L 561.730562 72.964375 
L 561.730562 321.621875 
L 579.040483 321.621875 
L 579.040483 321.621875 
L 579.040483 72.964375 
z
" clip-path="url(#pcad51b5177)" style="fill: #2ca02c; fill-opacity: 0.5"/>
      </g>
      <g id="patch_6">
       <path d="M 434.283826 282.083546 
L 434.283826 283.359944 
L 438.646772 283.359944 
L 438.646772 284.230899 
L 434.283826 284.230899 
L 434.283826 308.016966 
L 434.283826 308.016966 
L 432.95482 309.253776 
L 431.446734 310.353162 
L 429.547931 311.452549 
L 427.157186 312.551935 
L 424.147045 313.651322 
L 420.879888 314.613285 
L 416.883046 315.575249 
L 411.993554 316.537212 
L 406.012048 317.499175 
L 398.694639 318.461138 
L 389.742966 319.423102 
L 378.792037 320.385065 
L 365.395337 321.347028 
L 361.044881 321.621875 
M 443.267652 282.083546 
L 443.267652 283.359944 
L 438.904706 283.359944 
L 438.904706 284.230899 
L 443.267652 284.230899 
L 443.267652 308.016966 
L 443.267652 308.016966 
L 444.596658 309.253776 
L 446.104744 310.353162 
L 448.003547 311.452549 
L 450.394292 312.551935 
L 453.404433 313.651322 
L 456.67159 314.613285 
L 460.668432 315.575249 
L 465.557924 316.537212 
L 471.53943 317.499175 
L 478.856839 318.461138 
L 487.808512 319.423102 
L 498.759441 320.385065 
L 512.156141 321.347028 
L 516.506597 321.621875 
L 516.506597 321.621875 
" clip-path="url(#pcad51b5177)" style="fill: none; stroke: #ffffff; stroke-width: 3; stroke-linejoin: miter"/>
       <path d="M 434.283826 282.083546 
L 434.283826 283.359944 
L 438.646772 283.359944 
L 438.646772 284.230899 
L 434.283826 284.230899 
L 434.283826 308.016966 
L 434.283826 308.016966 
L 432.95482 309.253776 
L 431.446734 310.353162 
L 429.547931 311.452549 
L 427.157186 312.551935 
L 424.147045 313.651322 
L 420.879888 314.613285 
L 416.883046 315.575249 
L 411.993554 316.537212 
L 406.012048 317.499175 
L 398.694639 318.461138 
L 389.742966 319.423102 
L 378.792037 320.385065 
L 365.395337 321.347028 
L 361.044881 321.621875 
M 443.267652 282.083546 
L 443.267652 283.359944 
L 438.904706 283.359944 
L 438.904706 284.230899 
L 443.267652 284.230899 
L 443.267652 308.016966 
L 443.267652 308.016966 
L 444.596658 309.253776 
L 446.104744 310.353162 
L 448.003547 311.452549 
L 450.394292 312.551935 
L 453.404433 313.651322 
L 456.67159 314.613285 
L 460.668432 315.575249 
L 465.557924 316.537212 
L 471.53943 317.499175 
L 478.856839 318.461138 
L 487.808512 319.423102 
L 498.759441 320.385065 
L 512.156141 321.347028 
L 516.506597 321.621875 
L 516.506597 321.621875 
" clip-path="url(#pcad51b5177)" style="fill: none; stroke: #d62728; stroke-linejoin: miter"/>
       <g id="PolyCollection_4">
        <path d="M 443.267652 282.083546 
L 434.283826 282.083546 
L 434.283826 283.359944 
L 438.646772 283.359944 
L 438.646772 284.230899 
L 434.283826 284.230899 
L 434.283826 308.016966 
L 434.283826 308.016966 
L 434.152589 308.154389 
L 434.017517 308.291812 
L 433.878499 308.429236 
L 433.735419 308.566659 
L 433.588159 308.704082 
L 433.436597 308.841506 
L 433.280607 308.978929 
L 433.120059 309.116352 
L 432.95482 309.253776 
L 432.784754 309.391199 
L 432.609719 309.528622 
L 432.429571 309.666046 
L 432.244159 309.803469 
L 432.053329 309.940892 
L 431.856925 310.078315 
L 431.654782 310.215739 
L 431.446734 310.353162 
L 431.232607 310.490585 
L 431.012224 310.628009 
L 430.785402 310.765432 
L 430.551953 310.902855 
L 430.311684 311.040279 
L 430.064395 311.177702 
L 429.809881 311.315125 
L 429.547931 311.452549 
L 429.278328 311.589972 
L 429.000848 311.727395 
L 428.715261 311.864819 
L 428.421331 312.002242 
L 428.118812 312.139665 
L 427.807456 312.277089 
L 427.487002 312.414512 
L 427.157186 312.551935 
L 426.817734 312.689359 
L 426.468364 312.826782 
L 426.108787 312.964205 
L 425.738705 313.101629 
L 425.35781 313.239052 
L 424.965787 313.376475 
L 424.56231 313.513899 
L 424.147045 313.651322 
L 423.719648 313.788745 
L 423.279763 313.926169 
L 422.827027 314.063592 
L 422.361064 314.201015 
L 421.881486 314.338439 
L 421.387897 314.475862 
L 420.879888 314.613285 
L 420.357036 314.750709 
L 419.818908 314.888132 
L 419.265058 315.025555 
L 418.695026 315.162979 
L 418.108341 315.300402 
L 417.504514 315.437825 
L 416.883046 315.575249 
L 416.243421 315.712672 
L 415.585108 315.850095 
L 414.907562 315.987519 
L 414.21022 316.124942 
L 413.492505 316.262365 
L 412.753821 316.399789 
L 411.993554 316.537212 
L 411.211076 316.674635 
L 410.405736 316.812059 
L 409.576868 316.949482 
L 408.723782 317.086905 
L 407.845773 317.224329 
L 406.942112 317.361752 
L 406.012048 317.499175 
L 405.054812 317.636599 
L 404.069609 317.774022 
L 403.055621 317.911445 
L 402.012009 318.048868 
L 400.937906 318.186292 
L 399.832421 318.323715 
L 398.694639 318.461138 
L 397.523614 318.598562 
L 396.318377 318.735985 
L 395.077926 318.873408 
L 393.801235 319.010832 
L 392.487242 319.148255 
L 391.13486 319.285678 
L 389.742966 319.423102 
L 388.310406 319.560525 
L 386.835992 319.697948 
L 385.318501 319.835372 
L 383.756674 319.972795 
L 382.149216 320.110218 
L 380.494795 320.247642 
L 378.792037 320.385065 
L 377.03953 320.522488 
L 375.235822 320.659912 
L 373.379416 320.797335 
L 371.468772 320.934758 
L 369.502306 321.072182 
L 367.478387 321.209605 
L 365.395337 321.347028 
L 363.251428 321.484452 
L 361.044881 321.621875 
L 516.506597 321.621875 
L 516.506597 321.621875 
L 514.30005 321.484452 
L 512.156141 321.347028 
L 510.073091 321.209605 
L 508.049172 321.072182 
L 506.082706 320.934758 
L 504.172062 320.797335 
L 502.315656 320.659912 
L 500.511948 320.522488 
L 498.759441 320.385065 
L 497.056683 320.247642 
L 495.402262 320.110218 
L 493.794804 319.972795 
L 492.232977 319.835372 
L 490.715486 319.697948 
L 489.241072 319.560525 
L 487.808512 319.423102 
L 486.416618 319.285678 
L 485.064236 319.148255 
L 483.750243 319.010832 
L 482.473552 318.873408 
L 481.233101 318.735985 
L 480.027864 318.598562 
L 478.856839 318.461138 
L 477.719057 318.323715 
L 476.613572 318.186292 
L 475.539469 318.048868 
L 474.495857 317.911445 
L 473.481869 317.774022 
L 472.496666 317.636599 
L 471.53943 317.499175 
L 470.609366 317.361752 
L 469.705705 317.224329 
L 468.827696 317.086905 
L 467.97461 316.949482 
L 467.145742 316.812059 
L 466.340402 316.674635 
L 465.557924 316.537212 
L 464.797657 316.399789 
L 464.058973 316.262365 
L 463.341258 316.124942 
L 462.643916 315.987519 
L 461.96637 315.850095 
L 461.308057 315.712672 
L 460.668432 315.575249 
L 460.046964 315.437825 
L 459.443137 315.300402 
L 458.856452 315.162979 
L 458.28642 315.025555 
L 457.73257 314.888132 
L 457.194442 314.750709 
L 456.67159 314.613285 
L 456.163581 314.475862 
L 455.669992 314.338439 
L 455.190414 314.201015 
L 454.724451 314.063592 
L 454.271715 313.926169 
L 453.83183 313.788745 
L 453.404433 313.651322 
L 452.989168 313.513899 
L 452.585691 313.376475 
L 452.193668 313.239052 
L 451.812773 313.101629 
L 451.442691 312.964205 
L 451.083114 312.826782 
L 450.733744 312.689359 
L 450.394292 312.551935 
L 450.064476 312.414512 
L 449.744022 312.277089 
L 449.432666 312.139665 
L 449.130147 312.002242 
L 448.836217 311.864819 
L 448.55063 311.727395 
L 448.27315 311.589972 
L 448.003547 311.452549 
L 447.741597 311.315125 
L 447.487083 311.177702 
L 447.239794 311.040279 
L 446.999525 310.902855 
L 446.766076 310.765432 
L 446.539254 310.628009 
L 446.318871 310.490585 
L 446.104744 310.353162 
L 445.896696 310.215739 
L 445.694553 310.078315 
L 445.498149 309.940892 
L 445.307319 309.803469 
L 445.121907 309.666046 
L 444.941759 309.528622 
L 444.766724 309.391199 
L 444.596658 309.253776 
L 444.431419 309.116352 
L 444.270871 308.978929 
L 444.114881 308.841506 
L 443.963319 308.704082 
L 443.816059 308.566659 
L 443.672979 308.429236 
L 443.533961 308.291812 
L 443.398889 308.154389 
L 443.267652 308.016966 
L 443.267652 308.016966 
L 443.267652 284.230899 
L 438.904706 284.230899 
L 438.904706 283.359944 
L 443.267652 283.359944 
L 443.267652 282.083546 
z
" clip-path="url(#pcad51b5177)" style="fill: #d62728; fill-opacity: 0.5"/>
       </g>
       <g id="matplotlib.axis_1">
        <g id="xtick_1">
         <g id="line2d_1"/>
         <g id="text_1">
          <!-- OUT -->
          <g transform="translate(99.102062 332.720312) scale(0.1 -0.1)">
           <defs>
            <path id="DejaVuSans-4f" d="M 2522 4238 
Q 1834 4238 1429 3725 
Q 1025 3213 1025 2328 
Q 1025 1447 1429 934 
Q 1834 422 2522 422 
Q 3209 422 3611 934 
Q 4013 1447 4013 2328 
Q 4013 3213 3611 3725 
Q 3209 4238 2522 4238 
z
M 2522 4750 
Q 3503 4750 4090 4092 
Q 4678 3434 4678 2328 
Q 4678 1225 4090 567 
Q 3503 -91 2522 -91 
Q 1538 -91 948 565 
Q 359 1222 359 2328 
Q 359 3434 948 4092 
Q 1538 4750 2522 4750 
z
" transform="scale(0.015625)"/>
            <path id="DejaVuSans-55" d="M 556 4666 
L 1191 4666 
L 1191 1831 
Q 1191 1081 1462 751 
Q 1734 422 2344 422 
Q 2950 422 3222 751 
Q 3494 1081 3494 1831 
L 3494 4666 
L 4128 4666 
L 4128 1753 
Q 4128 841 3676 375 
Q 3225 -91 2344 -91 
Q 1459 -91 1007 375 
Q 556 841 556 1753 
L 556 4666 
z
" transform="scale(0.015625)"/>
            <path id="DejaVuSans-54" d="M -19 4666 
L 3928 4666 
L 3928 4134 
L 2272 4134 
L 2272 0 
L 1638 0 
L 1638 4134 
L -19 4134 
L -19 4666 
z
" transform="scale(0.015625)"/>
           </defs>
           <use xlink:href="#DejaVuSans-4f"/>
           <use xlink:href="#DejaVuSans-55" x="78.710938"/>
           <use xlink:href="#DejaVuSans-54" x="151.904297"/>
          </g>
         </g>
        </g>
        <g id="xtick_2">
         <g id="line2d_2"/>
         <g id="text_2">
          <!-- SRC -->
          <g transform="translate(560.495679 332.720312) scale(0.1 -0.1)">
           <defs>
            <path id="DejaVuSans-53" d="M 3425 4513 
L 3425 3897 
Q 3066 4069 2747 4153 
Q 2428 4238 2131 4238 
Q 1616 4238 1336 4038 
Q 1056 3838 1056 3469 
Q 1056 3159 1242 3001 
Q 1428 2844 1947 2747 
L 2328 2669 
Q 3034 2534 3370 2195 
Q 3706 1856 3706 1288 
Q 3706 609 3251 259 
Q 2797 -91 1919 -91 
Q 1588 -91 1214 -16 
Q 841 59 441 206 
L 441 856 
Q 825 641 1194 531 
Q 1563 422 1919 422 
Q 2459 422 2753 634 
Q 3047 847 3047 1241 
Q 3047 1584 2836 1778 
Q 2625 1972 2144 2069 
L 1759 2144 
Q 1053 2284 737 2584 
Q 422 2884 422 3419 
Q 422 4038 858 4394 
Q 1294 4750 2059 4750 
Q 2388 4750 2728 4690 
Q 3069 4631 3425 4513 
z
" transform="scale(0.015625)"/>
            <path id="DejaVuSans-52" d="M 2841 2188 
Q 3044 2119 3236 1894 
Q 3428 1669 3622 1275 
L 4263 0 
L 3584 0 
L 2988 1197 
Q 2756 1666 2539 1819 
Q 2322 1972 1947 1972 
L 1259 1972 
L 1259 0 
L 628 0 
L 628 4666 
L 2053 4666 
Q 2853 4666 3247 4331 
Q 3641 3997 3641 3322 
Q 3641 2881 3436 2590 
Q 3231 2300 2841 2188 
z
M 1259 4147 
L 1259 2491 
L 2053 2491 
Q 2509 2491 2742 2702 
Q 2975 2913 2975 3322 
Q 2975 3731 2742 3939 
Q 2509 4147 2053 4147 
L 1259 4147 
z
" transform="scale(0.015625)"/>
            <path id="DejaVuSans-43" d="M 4122 4306 
L 4122 3641 
Q 3803 3938 3442 4084 
Q 3081 4231 2675 4231 
Q 1875 4231 1450 3742 
Q 1025 3253 1025 2328 
Q 1025 1406 1450 917 
Q 1875 428 2675 428 
Q 3081 428 3442 575 
Q 3803 722 4122 1019 
L 4122 359 
Q 3791 134 3420 21 
Q 3050 -91 2638 -91 
Q 1578 -91 968 557 
Q 359 1206 359 2328 
Q 359 3453 968 4101 
Q 1578 4750 2638 4750 
Q 3056 4750 3426 4639 
Q 3797 4528 4122 4306 
z
" transform="scale(0.015625)"/>
           </defs>
           <use xlink:href="#DejaVuSans-53"/>
           <use xlink:href="#DejaVuSans-52" x="63.476562"/>
           <use xlink:href="#DejaVuSans-43" x="127.958984"/>
          </g>
         </g>
        </g>
        <g id="xtick_3">
         <g id="line2d_3"/>
         <g id="text_3">
          <!-- TAR -->
          <g transform="translate(429.214801 332.720312) scale(0.1 -0.1)">
           <defs>
            <path id="DejaVuSans-41" d="M 2188 4044 
L 1331 1722 
L 3047 1722 
L 2188 4044 
z
M 1831 4666 
L 2547 4666 
L 4325 0 
L 3669 0 
L 3244 1197 
L 1141 1197 
L 716 0 
L 50 0 
L 1831 4666 
z
" transform="scale(0.015625)"/>
           </defs>
           <use xlink:href="#DejaVuSans-54"/>
           <use xlink:href="#DejaVuSans-41" x="53.333984"/>
           <use xlink:href="#DejaVuSans-52" x="121.742188"/>
          </g>
         </g>
        </g>
       </g>
       <g id="matplotlib.axis_2">
        <g id="ytick_1">
         <g id="line2d_4">
          <defs>
           <path id="m494b86c40e" d="M 0 0 
L -3.5 0 
" style="stroke: #000000; stroke-width: 0.8"/>
          </defs>
          <g>
           <use xlink:href="#m494b86c40e" x="63.290625" y="321.621875" style="stroke: #000000; stroke-width: 0.8"/>
          </g>
         </g>
         <g id="text_4">
          <!-- 0 -->
          <g transform="translate(49.928125 325.421094) scale(0.1 -0.1)">
           <defs>
            <path id="DejaVuSans-30" d="M 2034 4250 
Q 1547 4250 1301 3770 
Q 1056 3291 1056 2328 
Q 1056 1369 1301 889 
Q 1547 409 2034 409 
Q 2525 409 2770 889 
Q 3016 1369 3016 2328 
Q 3016 3291 2770 3770 
Q 2525 4250 2034 4250 
z
M 2034 4750 
Q 2819 4750 3233 4129 
Q 3647 3509 3647 2328 
Q 3647 1150 3233 529 
Q 2819 -91 2034 -91 
Q 1250 -91 836 529 
Q 422 1150 422 2328 
Q 422 3509 836 4129 
Q 1250 4750 2034 4750 
z
" transform="scale(0.015625)"/>
           </defs>
           <use xlink:href="#DejaVuSans-30"/>
          </g>
         </g>
        </g>
        <g id="ytick_2">
         <g id="line2d_5">
          <g>
           <use xlink:href="#m494b86c40e" x="63.290625" y="284.080734" style="stroke: #000000; stroke-width: 0.8"/>
          </g>
         </g>
         <g id="text_5">
          <!-- 2500 -->
          <g transform="translate(30.840625 287.879953) scale(0.1 -0.1)">
           <defs>
            <path id="DejaVuSans-32" d="M 1228 531 
L 3431 531 
L 3431 0 
L 469 0 
L 469 531 
Q 828 903 1448 1529 
Q 2069 2156 2228 2338 
Q 2531 2678 2651 2914 
Q 2772 3150 2772 3378 
Q 2772 3750 2511 3984 
Q 2250 4219 1831 4219 
Q 1534 4219 1204 4116 
Q 875 4013 500 3803 
L 500 4441 
Q 881 4594 1212 4672 
Q 1544 4750 1819 4750 
Q 2544 4750 2975 4387 
Q 3406 4025 3406 3419 
Q 3406 3131 3298 2873 
Q 3191 2616 2906 2266 
Q 2828 2175 2409 1742 
Q 1991 1309 1228 531 
z
" transform="scale(0.015625)"/>
            <path id="DejaVuSans-35" d="M 691 4666 
L 3169 4666 
L 3169 4134 
L 1269 4134 
L 1269 2991 
Q 1406 3038 1543 3061 
Q 1681 3084 1819 3084 
Q 2600 3084 3056 2656 
Q 3513 2228 3513 1497 
Q 3513 744 3044 326 
Q 2575 -91 1722 -91 
Q 1428 -91 1123 -41 
Q 819 9 494 109 
L 494 744 
Q 775 591 1075 516 
Q 1375 441 1709 441 
Q 2250 441 2565 725 
Q 2881 1009 2881 1497 
Q 2881 1984 2565 2268 
Q 2250 2553 1709 2553 
Q 1456 2553 1204 2497 
Q 953 2441 691 2322 
L 691 4666 
z
" transform="scale(0.015625)"/>
           </defs>
           <use xlink:href="#DejaVuSans-32"/>
           <use xlink:href="#DejaVuSans-35" x="63.623047"/>
           <use xlink:href="#DejaVuSans-30" x="127.246094"/>
           <use xlink:href="#DejaVuSans-30" x="190.869141"/>
          </g>
         </g>
        </g>
        <g id="ytick_3">
         <g id="line2d_6">
          <g>
           <use xlink:href="#m494b86c40e" x="63.290625" y="246.539593" style="stroke: #000000; stroke-width: 0.8"/>
          </g>
         </g>
         <g id="text_6">
          <!-- 5000 -->
          <g transform="translate(30.840625 250.338812) scale(0.1 -0.1)">
           <use xlink:href="#DejaVuSans-35"/>
           <use xlink:href="#DejaVuSans-30" x="63.623047"/>
           <use xlink:href="#DejaVuSans-30" x="127.246094"/>
           <use xlink:href="#DejaVuSans-30" x="190.869141"/>
          </g>
         </g>
        </g>
        <g id="ytick_4">
         <g id="line2d_7">
          <g>
           <use xlink:href="#m494b86c40e" x="63.290625" y="208.998453" style="stroke: #000000; stroke-width: 0.8"/>
          </g>
         </g>
         <g id="text_7">
          <!-- 7500 -->
          <g transform="translate(30.840625 212.797671) scale(0.1 -0.1)">
           <defs>
            <path id="DejaVuSans-37" d="M 525 4666 
L 3525 4666 
L 3525 4397 
L 1831 0 
L 1172 0 
L 2766 4134 
L 525 4134 
L 525 4666 
z
" transform="scale(0.015625)"/>
           </defs>
           <use xlink:href="#DejaVuSans-37"/>
           <use xlink:href="#DejaVuSans-35" x="63.623047"/>
           <use xlink:href="#DejaVuSans-30" x="127.246094"/>
           <use xlink:href="#DejaVuSans-30" x="190.869141"/>
          </g>
         </g>
        </g>
        <g id="ytick_5">
         <g id="line2d_8">
          <g>
           <use xlink:href="#m494b86c40e" x="63.290625" y="171.457312" style="stroke: #000000; stroke-width: 0.8"/>
          </g>
         </g>
         <g id="text_8">
          <!-- 10000 -->
          <g transform="translate(24.478125 175.256531) scale(0.1 -0.1)">
           <defs>
            <path id="DejaVuSans-31" d="M 794 531 
L 1825 531 
L 1825 4091 
L 703 3866 
L 703 4441 
L 1819 4666 
L 2450 4666 
L 2450 531 
L 3481 531 
L 3481 0 
L 794 0 
L 794 531 
z
" transform="scale(0.015625)"/>
           </defs>
           <use xlink:href="#DejaVuSans-31"/>
           <use xlink:href="#DejaVuSans-30" x="63.623047"/>
           <use xlink:href="#DejaVuSans-30" x="127.246094"/>
           <use xlink:href="#DejaVuSans-30" x="190.869141"/>
           <use xlink:href="#DejaVuSans-30" x="254.492188"/>
          </g>
         </g>
        </g>
        <g id="ytick_6">
         <g id="line2d_9">
          <g>
           <use xlink:href="#m494b86c40e" x="63.290625" y="133.916171" style="stroke: #000000; stroke-width: 0.8"/>
          </g>
         </g>
         <g id="text_9">
          <!-- 12500 -->
          <g transform="translate(24.478125 137.71539) scale(0.1 -0.1)">
           <use xlink:href="#DejaVuSans-31"/>
           <use xlink:href="#DejaVuSans-32" x="63.623047"/>
           <use xlink:href="#DejaVuSans-35" x="127.246094"/>
           <use xlink:href="#DejaVuSans-30" x="190.869141"/>
           <use xlink:href="#DejaVuSans-30" x="254.492188"/>
          </g>
         </g>
        </g>
        <g id="ytick_7">
         <g id="line2d_10">
          <g>
           <use xlink:href="#m494b86c40e" x="63.290625" y="96.37503" style="stroke: #000000; stroke-width: 0.8"/>
          </g>
         </g>
         <g id="text_10">
          <!-- 15000 -->
          <g transform="translate(24.478125 100.174249) scale(0.1 -0.1)">
           <use xlink:href="#DejaVuSans-31"/>
           <use xlink:href="#DejaVuSans-35" x="63.623047"/>
           <use xlink:href="#DejaVuSans-30" x="127.246094"/>
           <use xlink:href="#DejaVuSans-30" x="190.869141"/>
           <use xlink:href="#DejaVuSans-30" x="254.492188"/>
          </g>
         </g>
        </g>
        <g id="ytick_8">
         <g id="line2d_11">
          <g>
           <use xlink:href="#m494b86c40e" x="63.290625" y="58.83389" style="stroke: #000000; stroke-width: 0.8"/>
          </g>
         </g>
         <g id="text_11">
          <!-- 17500 -->
          <g transform="translate(24.478125 62.633108) scale(0.1 -0.1)">
           <use xlink:href="#DejaVuSans-31"/>
           <use xlink:href="#DejaVuSans-37" x="63.623047"/>
           <use xlink:href="#DejaVuSans-35" x="127.246094"/>
           <use xlink:href="#DejaVuSans-30" x="190.869141"/>
           <use xlink:href="#DejaVuSans-30" x="254.492188"/>
          </g>
         </g>
        </g>
        <g id="ytick_9">
         <g id="line2d_12">
          <g>
           <use xlink:href="#m494b86c40e" x="63.290625" y="21.292749" style="stroke: #000000; stroke-width: 0.8"/>
          </g>
         </g>
         <g id="text_12">
          <!-- 20000 -->
          <g transform="translate(24.478125 25.091968) scale(0.1 -0.1)">
           <use xlink:href="#DejaVuSans-32"/>
           <use xlink:href="#DejaVuSans-30" x="63.623047"/>
           <use xlink:href="#DejaVuSans-30" x="127.246094"/>
           <use xlink:href="#DejaVuSans-30" x="190.869141"/>
           <use xlink:href="#DejaVuSans-30" x="254.492188"/>
          </g>
         </g>
        </g>
        <g id="text_13">
         <!-- time ago (generations) -->
         <g transform="translate(18.398438 223.682031) rotate(-90) scale(0.1 -0.1)">
          <defs>
           <path id="DejaVuSans-74" d="M 1172 4494 
L 1172 3500 
L 2356 3500 
L 2356 3053 
L 1172 3053 
L 1172 1153 
Q 1172 725 1289 603 
Q 1406 481 1766 481 
L 2356 481 
L 2356 0 
L 1766 0 
Q 1100 0 847 248 
Q 594 497 594 1153 
L 594 3053 
L 172 3053 
L 172 3500 
L 594 3500 
L 594 4494 
L 1172 4494 
z
" transform="scale(0.015625)"/>
           <path id="DejaVuSans-69" d="M 603 3500 
L 1178 3500 
L 1178 0 
L 603 0 
L 603 3500 
z
M 603 4863 
L 1178 4863 
L 1178 4134 
L 603 4134 
L 603 4863 
z
" transform="scale(0.015625)"/>
           <path id="DejaVuSans-6d" d="M 3328 2828 
Q 3544 3216 3844 3400 
Q 4144 3584 4550 3584 
Q 5097 3584 5394 3201 
Q 5691 2819 5691 2113 
L 5691 0 
L 5113 0 
L 5113 2094 
Q 5113 2597 4934 2840 
Q 4756 3084 4391 3084 
Q 3944 3084 3684 2787 
Q 3425 2491 3425 1978 
L 3425 0 
L 2847 0 
L 2847 2094 
Q 2847 2600 2669 2842 
Q 2491 3084 2119 3084 
Q 1678 3084 1418 2786 
Q 1159 2488 1159 1978 
L 1159 0 
L 581 0 
L 581 3500 
L 1159 3500 
L 1159 2956 
Q 1356 3278 1631 3431 
Q 1906 3584 2284 3584 
Q 2666 3584 2933 3390 
Q 3200 3197 3328 2828 
z
" transform="scale(0.015625)"/>
           <path id="DejaVuSans-65" d="M 3597 1894 
L 3597 1613 
L 953 1613 
Q 991 1019 1311 708 
Q 1631 397 2203 397 
Q 2534 397 2845 478 
Q 3156 559 3463 722 
L 3463 178 
Q 3153 47 2828 -22 
Q 2503 -91 2169 -91 
Q 1331 -91 842 396 
Q 353 884 353 1716 
Q 353 2575 817 3079 
Q 1281 3584 2069 3584 
Q 2775 3584 3186 3129 
Q 3597 2675 3597 1894 
z
M 3022 2063 
Q 3016 2534 2758 2815 
Q 2500 3097 2075 3097 
Q 1594 3097 1305 2825 
Q 1016 2553 972 2059 
L 3022 2063 
z
" transform="scale(0.015625)"/>
           <path id="DejaVuSans-20" transform="scale(0.015625)"/>
           <path id="DejaVuSans-61" d="M 2194 1759 
Q 1497 1759 1228 1600 
Q 959 1441 959 1056 
Q 959 750 1161 570 
Q 1363 391 1709 391 
Q 2188 391 2477 730 
Q 2766 1069 2766 1631 
L 2766 1759 
L 2194 1759 
z
M 3341 1997 
L 3341 0 
L 2766 0 
L 2766 531 
Q 2569 213 2275 61 
Q 1981 -91 1556 -91 
Q 1019 -91 701 211 
Q 384 513 384 1019 
Q 384 1609 779 1909 
Q 1175 2209 1959 2209 
L 2766 2209 
L 2766 2266 
Q 2766 2663 2505 2880 
Q 2244 3097 1772 3097 
Q 1472 3097 1187 3025 
Q 903 2953 641 2809 
L 641 3341 
Q 956 3463 1253 3523 
Q 1550 3584 1831 3584 
Q 2591 3584 2966 3190 
Q 3341 2797 3341 1997 
z
" transform="scale(0.015625)"/>
           <path id="DejaVuSans-67" d="M 2906 1791 
Q 2906 2416 2648 2759 
Q 2391 3103 1925 3103 
Q 1463 3103 1205 2759 
Q 947 2416 947 1791 
Q 947 1169 1205 825 
Q 1463 481 1925 481 
Q 2391 481 2648 825 
Q 2906 1169 2906 1791 
z
M 3481 434 
Q 3481 -459 3084 -895 
Q 2688 -1331 1869 -1331 
Q 1566 -1331 1297 -1286 
Q 1028 -1241 775 -1147 
L 775 -588 
Q 1028 -725 1275 -790 
Q 1522 -856 1778 -856 
Q 2344 -856 2625 -561 
Q 2906 -266 2906 331 
L 2906 616 
Q 2728 306 2450 153 
Q 2172 0 1784 0 
Q 1141 0 747 490 
Q 353 981 353 1791 
Q 353 2603 747 3093 
Q 1141 3584 1784 3584 
Q 2172 3584 2450 3431 
Q 2728 3278 2906 2969 
L 2906 3500 
L 3481 3500 
L 3481 434 
z
" transform="scale(0.015625)"/>
           <path id="DejaVuSans-6f" d="M 1959 3097 
Q 1497 3097 1228 2736 
Q 959 2375 959 1747 
Q 959 1119 1226 758 
Q 1494 397 1959 397 
Q 2419 397 2687 759 
Q 2956 1122 2956 1747 
Q 2956 2369 2687 2733 
Q 2419 3097 1959 3097 
z
M 1959 3584 
Q 2709 3584 3137 3096 
Q 3566 2609 3566 1747 
Q 3566 888 3137 398 
Q 2709 -91 1959 -91 
Q 1206 -91 779 398 
Q 353 888 353 1747 
Q 353 2609 779 3096 
Q 1206 3584 1959 3584 
z
" transform="scale(0.015625)"/>
           <path id="DejaVuSans-28" d="M 1984 4856 
Q 1566 4138 1362 3434 
Q 1159 2731 1159 2009 
Q 1159 1288 1364 580 
Q 1569 -128 1984 -844 
L 1484 -844 
Q 1016 -109 783 600 
Q 550 1309 550 2009 
Q 550 2706 781 3412 
Q 1013 4119 1484 4856 
L 1984 4856 
z
" transform="scale(0.015625)"/>
           <path id="DejaVuSans-6e" d="M 3513 2113 
L 3513 0 
L 2938 0 
L 2938 2094 
Q 2938 2591 2744 2837 
Q 2550 3084 2163 3084 
Q 1697 3084 1428 2787 
Q 1159 2491 1159 1978 
L 1159 0 
L 581 0 
L 581 3500 
L 1159 3500 
L 1159 2956 
Q 1366 3272 1645 3428 
Q 1925 3584 2291 3584 
Q 2894 3584 3203 3211 
Q 3513 2838 3513 2113 
z
" transform="scale(0.015625)"/>
           <path id="DejaVuSans-72" d="M 2631 2963 
Q 2534 3019 2420 3045 
Q 2306 3072 2169 3072 
Q 1681 3072 1420 2755 
Q 1159 2438 1159 1844 
L 1159 0 
L 581 0 
L 581 3500 
L 1159 3500 
L 1159 2956 
Q 1341 3275 1631 3429 
Q 1922 3584 2338 3584 
Q 2397 3584 2469 3576 
Q 2541 3569 2628 3553 
L 2631 2963 
z
" transform="scale(0.015625)"/>
           <path id="DejaVuSans-73" d="M 2834 3397 
L 2834 2853 
Q 2591 2978 2328 3040 
Q 2066 3103 1784 3103 
Q 1356 3103 1142 2972 
Q 928 2841 928 2578 
Q 928 2378 1081 2264 
Q 1234 2150 1697 2047 
L 1894 2003 
Q 2506 1872 2764 1633 
Q 3022 1394 3022 966 
Q 3022 478 2636 193 
Q 2250 -91 1575 -91 
Q 1294 -91 989 -36 
Q 684 19 347 128 
L 347 722 
Q 666 556 975 473 
Q 1284 391 1588 391 
Q 1994 391 2212 530 
Q 2431 669 2431 922 
Q 2431 1156 2273 1281 
Q 2116 1406 1581 1522 
L 1381 1569 
Q 847 1681 609 1914 
Q 372 2147 372 2553 
Q 372 3047 722 3315 
Q 1072 3584 1716 3584 
Q 2034 3584 2315 3537 
Q 2597 3491 2834 3397 
z
" transform="scale(0.015625)"/>
           <path id="DejaVuSans-29" d="M 513 4856 
L 1013 4856 
Q 1481 4119 1714 3412 
Q 1947 2706 1947 2009 
Q 1947 1309 1714 600 
Q 1481 -109 1013 -844 
L 513 -844 
Q 928 -128 1133 580 
Q 1338 1288 1338 2009 
Q 1338 2731 1133 3434 
Q 928 4138 513 4856 
z
" transform="scale(0.015625)"/>
          </defs>
          <use xlink:href="#DejaVuSans-74"/>
          <use xlink:href="#DejaVuSans-69" x="39.208984"/>
          <use xlink:href="#DejaVuSans-6d" x="66.992188"/>
          <use xlink:href="#DejaVuSans-65" x="164.404297"/>
          <use xlink:href="#DejaVuSans-20" x="225.927734"/>
          <use xlink:href="#DejaVuSans-61" x="257.714844"/>
          <use xlink:href="#DejaVuSans-67" x="318.994141"/>
          <use xlink:href="#DejaVuSans-6f" x="382.470703"/>
          <use xlink:href="#DejaVuSans-20" x="443.652344"/>
          <use xlink:href="#DejaVuSans-28" x="475.439453"/>
          <use xlink:href="#DejaVuSans-67" x="514.453125"/>
          <use xlink:href="#DejaVuSans-65" x="577.929688"/>
          <use xlink:href="#DejaVuSans-6e" x="639.453125"/>
          <use xlink:href="#DejaVuSans-65" x="702.832031"/>
          <use xlink:href="#DejaVuSans-72" x="764.355469"/>
          <use xlink:href="#DejaVuSans-61" x="805.46875"/>
          <use xlink:href="#DejaVuSans-74" x="866.748047"/>
          <use xlink:href="#DejaVuSans-69" x="905.957031"/>
          <use xlink:href="#DejaVuSans-6f" x="933.740234"/>
          <use xlink:href="#DejaVuSans-6e" x="994.921875"/>
          <use xlink:href="#DejaVuSans-73" x="1058.300781"/>
          <use xlink:href="#DejaVuSans-29" x="1110.400391"/>
         </g>
        </g>
       </g>
       <g id="patch_7">
        <path d="M 273.130886 282.083546 
L 272.130886 282.052109 
L 271.130886 282.015169 
L 270.130886 281.917422 
L 269.130886 281.884901 
L 268.130886 281.811276 
L 267.130886 281.77271 
L 266.130886 281.737297 
L 265.130886 281.679657 
L 264.130886 281.609271 
L 263.130886 281.557307 
L 262.130886 281.498217 
L 261.130886 281.409896 
L 260.130886 281.363752 
L 259.130886 281.321341 
L 258.130886 281.290848 
L 257.130886 281.264803 
L 256.130886 281.243603 
L 255.130886 281.189302 
L 254.130886 281.161365 
L 253.130886 281.131641 
L 252.130886 281.106246 
L 251.130886 281.095045 
L 250.130886 281.084921 
L 249.130886 281.085126 
L 248.130886 281.094636 
L 247.130886 281.106289 
L 246.130886 281.137318 
L 245.130886 281.148486 
L 244.130886 281.178604 
L 243.130886 281.238381 
L 242.130886 281.275572 
L 241.130886 281.314668 
L 240.130886 281.357108 
L 239.130886 281.389873 
L 238.130886 281.4573 
L 237.130886 281.496426 
L 236.130886 281.5391 
L 235.130886 281.609681 
L 234.130886 281.646072 
L 233.130886 281.704475 
L 232.130886 281.815427 
L 231.130886 281.886086 
L 230.130886 281.999025 
L 229.130886 282.044798 
L 228.130886 282.106082 
L 227.130886 282.154581 
L 226.130886 282.235404 
L 225.130886 282.353923 
L 224.130886 282.424133 
L 223.130886 282.507396 
L 222.130886 282.540537 
L 221.130886 282.591775 
L 220.130886 282.660173 
L 219.130886 282.726389 
L 218.130886 282.803306 
L 217.130886 282.830621 
L 216.130886 282.857099 
L 215.130886 282.879749 
L 214.130886 282.89928 
L 213.130886 282.925674 
L 212.130886 282.975445 
L 211.130886 283.010518 
L 210.130886 283.046384 
L 209.130886 283.061751 
L 208.130886 283.077521 
L 207.130886 283.080933 
L 206.130886 283.083351 
L 205.130886 283.082865 
L 204.130886 283.080935 
L 203.130886 283.067678 
L 202.130886 283.059288 
L 201.130886 283.037751 
L 200.130886 283.014719 
L 199.130886 282.997485 
L 198.130886 282.979023 
L 197.130886 282.95857 
L 196.130886 282.94197 
L 195.130886 282.879192 
L 194.130886 282.803927 
L 193.130886 282.771287 
L 192.130886 282.703724 
L 191.130886 282.649677 
L 190.130886 282.615972 
L 189.130886 282.525846 
L 188.130886 282.497312 
L 187.130886 282.465825 
L 186.130886 282.434815 
L 185.130886 282.380007 
L 184.130886 282.315419 
L 183.130886 282.277224 
L 182.130886 282.18129 
L 181.130886 282.132032 
L 180.130886 282.087962 
L 179.130886 282.047839 
L 178.130886 281.939472 
L 177.130886 281.897843 
L 176.130886 281.835702 
L 175.130886 281.76574 
L 174.130886 281.661235 
L 173.130886 281.624248 
L 172.130886 281.57837 
L 171.130886 281.509876 
L 170.130886 281.46113 
L 169.130886 281.383532 
L 168.130886 281.352992 
L 167.130886 281.283477 
L 166.130886 281.259504 
L 165.130886 281.230883 
L 164.130886 281.18909 
L 163.130886 281.167514 
L 162.130886 281.153566 
L 161.130886 281.126843 
L 160.130886 281.117533 
L 159.130886 281.105087 
L 158.130886 281.094032 
L 157.130886 281.088367 
L 156.130886 281.083604 
L 155.130886 281.089151 
L 154.130886 281.102439 
L 153.130886 281.109957 
L 152.130886 281.134742 
L 151.130886 281.15831 
L 150.130886 281.194491 
L 149.130886 281.220453 
L 148.130886 281.242774 
L 147.130886 281.311534 
L 146.130886 281.386069 
L 145.130886 281.480049 
L 144.130886 281.531101 
L 143.130886 281.585034 
L 142.130886 281.620285 
L 141.130886 281.726373 
L 140.130886 281.778637 
L 139.130886 281.815544 
L 138.130886 281.846575 
L 137.130886 281.907731 
L 136.130886 281.975151 
L 135.130886 282.024056 
L 134.130886 282.089249 
L 133.130886 282.127436 
L 132.130886 282.169432 
L 131.130886 282.21145 
L 130.130886 282.270966 
L 129.130886 282.384126 
L 128.130886 282.436377 
L 127.130886 282.475794 
L 126.130886 282.522896 
L 125.130886 282.579675 
L 123.875703 282.612338 
" clip-path="url(#pcad51b5177)" style="fill: none; stroke: #ffffff; stroke-width: 3; stroke-linecap: round"/>
        <path d="M 273.130886 282.083546 
L 272.130886 282.052109 
L 271.130886 282.015169 
L 270.130886 281.917422 
L 269.130886 281.884901 
L 268.130886 281.811276 
L 267.130886 281.77271 
L 266.130886 281.737297 
L 265.130886 281.679657 
L 264.130886 281.609271 
L 263.130886 281.557307 
L 262.130886 281.498217 
L 261.130886 281.409896 
L 260.130886 281.363752 
L 259.130886 281.321341 
L 258.130886 281.290848 
L 257.130886 281.264803 
L 256.130886 281.243603 
L 255.130886 281.189302 
L 254.130886 281.161365 
L 253.130886 281.131641 
L 252.130886 281.106246 
L 251.130886 281.095045 
L 250.130886 281.084921 
L 249.130886 281.085126 
L 248.130886 281.094636 
L 247.130886 281.106289 
L 246.130886 281.137318 
L 245.130886 281.148486 
L 244.130886 281.178604 
L 243.130886 281.238381 
L 242.130886 281.275572 
L 241.130886 281.314668 
L 240.130886 281.357108 
L 239.130886 281.389873 
L 238.130886 281.4573 
L 237.130886 281.496426 
L 236.130886 281.5391 
L 235.130886 281.609681 
L 234.130886 281.646072 
L 233.130886 281.704475 
L 232.130886 281.815427 
L 231.130886 281.886086 
L 230.130886 281.999025 
L 229.130886 282.044798 
L 228.130886 282.106082 
L 227.130886 282.154581 
L 226.130886 282.235404 
L 225.130886 282.353923 
L 224.130886 282.424133 
L 223.130886 282.507396 
L 222.130886 282.540537 
L 221.130886 282.591775 
L 220.130886 282.660173 
L 219.130886 282.726389 
L 218.130886 282.803306 
L 217.130886 282.830621 
L 216.130886 282.857099 
L 215.130886 282.879749 
L 214.130886 282.89928 
L 213.130886 282.925674 
L 212.130886 282.975445 
L 211.130886 283.010518 
L 210.130886 283.046384 
L 209.130886 283.061751 
L 208.130886 283.077521 
L 207.130886 283.080933 
L 206.130886 283.083351 
L 205.130886 283.082865 
L 204.130886 283.080935 
L 203.130886 283.067678 
L 202.130886 283.059288 
L 201.130886 283.037751 
L 200.130886 283.014719 
L 199.130886 282.997485 
L 198.130886 282.979023 
L 197.130886 282.95857 
L 196.130886 282.94197 
L 195.130886 282.879192 
L 194.130886 282.803927 
L 193.130886 282.771287 
L 192.130886 282.703724 
L 191.130886 282.649677 
L 190.130886 282.615972 
L 189.130886 282.525846 
L 188.130886 282.497312 
L 187.130886 282.465825 
L 186.130886 282.434815 
L 185.130886 282.380007 
L 184.130886 282.315419 
L 183.130886 282.277224 
L 182.130886 282.18129 
L 181.130886 282.132032 
L 180.130886 282.087962 
L 179.130886 282.047839 
L 178.130886 281.939472 
L 177.130886 281.897843 
L 176.130886 281.835702 
L 175.130886 281.76574 
L 174.130886 281.661235 
L 173.130886 281.624248 
L 172.130886 281.57837 
L 171.130886 281.509876 
L 170.130886 281.46113 
L 169.130886 281.383532 
L 168.130886 281.352992 
L 167.130886 281.283477 
L 166.130886 281.259504 
L 165.130886 281.230883 
L 164.130886 281.18909 
L 163.130886 281.167514 
L 162.130886 281.153566 
L 161.130886 281.126843 
L 160.130886 281.117533 
L 159.130886 281.105087 
L 158.130886 281.094032 
L 157.130886 281.088367 
L 156.130886 281.083604 
L 155.130886 281.089151 
L 154.130886 281.102439 
L 153.130886 281.109957 
L 152.130886 281.134742 
L 151.130886 281.15831 
L 150.130886 281.194491 
L 149.130886 281.220453 
L 148.130886 281.242774 
L 147.130886 281.311534 
L 146.130886 281.386069 
L 145.130886 281.480049 
L 144.130886 281.531101 
L 143.130886 281.585034 
L 142.130886 281.620285 
L 141.130886 281.726373 
L 140.130886 281.778637 
L 139.130886 281.815544 
L 138.130886 281.846575 
L 137.130886 281.907731 
L 136.130886 281.975151 
L 135.130886 282.024056 
L 134.130886 282.089249 
L 133.130886 282.127436 
L 132.130886 282.169432 
L 131.130886 282.21145 
L 130.130886 282.270966 
L 129.130886 282.384126 
L 128.130886 282.436377 
L 127.130886 282.475794 
L 126.130886 282.522896 
L 125.130886 282.579675 
L 123.875703 282.612338 
" clip-path="url(#pcad51b5177)" style="fill: none; stroke: #1f77b4; stroke-linecap: round"/>
        <path d="M 127.875703 284.083546 
L 126.995335 283.608214 
L 126.117428 283.12796 
L 125.266714 282.59332 
L 123.96454 281.905872 
L 124.891893 281.879857 
L 125.803567 281.467138 
L 126.713832 281.051599 
L 128.056327 280.444794 
L 127.401429 281.083546 
L 127.349464 282.083546 
L 127.290375 284.083546 
z
" clip-path="url(#pcad51b5177)" style="fill: #ffffff; stroke: #ffffff; stroke-width: 3; stroke-linecap: round"/>
        <path d="M 127.875703 284.083546 
L 126.995335 283.608214 
L 126.117428 283.12796 
L 125.266714 282.59332 
L 123.96454 281.905872 
L 124.891893 281.879857 
L 125.803567 281.467138 
L 126.713832 281.051599 
L 128.056327 280.444794 
L 127.401429 281.083546 
L 127.349464 282.083546 
L 127.290375 284.083546 
z
" clip-path="url(#pcad51b5177)" style="fill: #ffffff; stroke: #1f77b4; stroke-linecap: round"/>
        <g id="patch_8">
         <path d="M 341.198713 72.964375 
L 342.198713 72.995811 
L 343.198713 73.032752 
L 344.198713 73.130498 
L 345.198713 73.16302 
L 346.198713 73.236645 
L 347.198713 73.27521 
L 348.198713 73.310623 
L 349.198713 73.368263 
L 350.198713 73.438649 
L 351.198713 73.490614 
L 352.198713 73.549703 
L 353.198713 73.638024 
L 354.198713 73.684169 
L 355.198713 73.72658 
L 356.198713 73.757072 
L 357.198713 73.783117 
L 358.198713 73.804317 
L 359.198713 73.858618 
L 360.198713 73.886556 
L 361.198713 73.91628 
L 362.198713 73.941675 
L 363.198713 73.952875 
L 364.198713 73.962999 
L 365.198713 73.962795 
L 366.198713 73.953285 
L 367.198713 73.941631 
L 368.198713 73.910602 
L 369.198713 73.899434 
L 370.198713 73.869317 
L 371.198713 73.80954 
L 372.198713 73.772348 
L 373.198713 73.733252 
L 374.198713 73.690812 
L 375.198713 73.658047 
L 376.198713 73.590621 
L 377.198713 73.551495 
L 378.198713 73.50882 
L 379.198713 73.43824 
L 380.198713 73.401849 
L 381.198713 73.343446 
L 382.198713 73.232493 
L 383.198713 73.161835 
L 384.198713 73.048895 
L 385.198713 73.003122 
L 386.198713 72.941839 
L 387.198713 72.89334 
L 388.198713 72.812517 
L 389.198713 72.693998 
L 390.198713 72.623787 
L 391.198713 72.540525 
L 392.198713 72.507383 
L 393.198713 72.456146 
L 394.198713 72.387747 
L 395.198713 72.321532 
L 396.198713 72.244615 
L 397.198713 72.217299 
L 398.198713 72.190822 
L 399.198713 72.168171 
L 400.198713 72.14864 
L 401.198713 72.122246 
L 402.198713 72.072475 
L 403.198713 72.037402 
L 404.198713 72.001536 
L 405.198713 71.986169 
L 406.198713 71.9704 
L 407.198713 71.966987 
L 408.198713 71.96457 
L 409.198713 71.965056 
L 410.198713 71.966985 
L 411.198713 71.980242 
L 412.198713 71.988633 
L 413.198713 72.010169 
L 414.198713 72.033202 
L 415.198713 72.050435 
L 416.198713 72.068898 
L 417.198713 72.08935 
L 418.198713 72.10595 
L 419.198713 72.168729 
L 420.198713 72.243994 
L 421.198713 72.276633 
L 422.198713 72.344197 
L 423.198713 72.398244 
L 424.198713 72.431948 
L 425.198713 72.522074 
L 426.198713 72.550609 
L 427.198713 72.582095 
L 428.198713 72.613106 
L 429.198713 72.667914 
L 430.198713 72.732501 
L 431.198713 72.770697 
L 432.198713 72.866631 
L 433.198713 72.915889 
L 434.198713 72.959958 
L 435.198713 73.000082 
L 436.198713 73.108449 
L 437.198713 73.150077 
L 438.198713 73.212219 
L 439.198713 73.282181 
L 440.198713 73.386685 
L 441.198713 73.423673 
L 442.198713 73.46955 
L 443.198713 73.538045 
L 444.198713 73.586791 
L 445.198713 73.664388 
L 446.198713 73.694929 
L 447.198713 73.764443 
L 448.198713 73.788416 
L 449.198713 73.817038 
L 450.198713 73.858831 
L 451.198713 73.880407 
L 452.198713 73.894355 
L 453.198713 73.921077 
L 454.198713 73.930387 
L 455.198713 73.942834 
L 456.198713 73.953889 
L 457.198713 73.959553 
L 458.198713 73.964317 
L 459.198713 73.958769 
L 460.198713 73.945481 
L 461.198713 73.937964 
L 462.198713 73.913179 
L 463.198713 73.88961 
L 464.198713 73.85343 
L 465.198713 73.827468 
L 466.198713 73.805146 
L 467.198713 73.736386 
L 468.198713 73.661851 
L 469.198713 73.567872 
L 470.198713 73.51682 
L 471.198713 73.462886 
L 472.198713 73.427635 
L 473.198713 73.321547 
L 474.198713 73.269283 
L 475.198713 73.232376 
L 476.198713 73.201345 
L 477.198713 73.14019 
L 478.198713 73.07277 
L 479.198713 73.023864 
L 480.198713 72.958672 
L 481.198713 72.920484 
L 482.198713 72.878488 
L 483.198713 72.836471 
L 484.198713 72.776955 
L 485.198713 72.663795 
L 486.198713 72.611544 
L 487.198713 72.572126 
L 488.198713 72.525025 
L 489.198713 72.468245 
L 490.198713 72.435582 
L 491.198713 72.399404 
L 492.198713 72.367314 
L 493.198713 72.333034 
L 494.198713 72.274656 
L 495.198713 72.229471 
L 496.198713 72.199847 
L 497.198713 72.149461 
L 498.198713 72.124264 
L 499.198713 72.103213 
L 500.198713 72.068245 
L 501.198713 72.043955 
L 502.198713 72.029888 
L 503.198713 72.010946 
L 504.198713 71.995285 
L 505.198713 71.982733 
L 506.198713 71.976897 
L 507.198713 71.970015 
L 508.198713 71.964841 
L 509.198713 71.966624 
L 510.198713 71.969349 
L 511.198713 71.980503 
L 512.198713 72.008738 
L 513.198713 72.052526 
L 514.198713 72.073215 
L 515.198713 72.114188 
L 516.198713 72.154263 
L 517.198713 72.173373 
L 518.198713 72.195882 
L 519.198713 72.262533 
L 520.198713 72.312243 
L 521.198713 72.385949 
L 522.198713 72.417263 
L 523.198713 72.493885 
L 524.198713 72.532183 
L 525.198713 72.6063 
L 526.198713 72.710358 
L 527.198713 72.780189 
L 528.198713 72.885423 
L 529.198713 72.940438 
L 530.198713 73.063913 
L 531.198713 73.134472 
L 532.198713 73.250311 
L 533.198713 73.300492 
L 534.198713 73.336096 
L 535.198713 73.427503 
L 536.198713 73.481011 
L 537.198713 73.568919 
L 538.198713 73.638104 
L 539.198713 73.684868 
L 540.198713 73.756912 
L 541.198713 73.807054 
L 542.198713 73.824444 
L 543.198713 73.851447 
L 544.198713 73.870874 
L 545.198713 73.890212 
L 546.198713 73.928461 
L 547.198713 73.944894 
L 548.198713 73.953263 
L 549.198713 73.957582 
L 550.198713 73.964137 
L 551.198713 73.961591 
L 552.198713 73.956132 
L 553.198713 73.939704 
L 554.198713 73.907769 
L 555.198713 73.869789 
L 556.198713 73.834985 
L 557.198713 73.771913 
L 558.610324 73.750486 
" clip-path="url(#pcad51b5177)" style="fill: none; stroke: #ffffff; stroke-width: 3; stroke-linecap: round"/>
         <path d="M 341.198713 72.964375 
L 342.198713 72.995811 
L 343.198713 73.032752 
L 344.198713 73.130498 
L 345.198713 73.16302 
L 346.198713 73.236645 
L 347.198713 73.27521 
L 348.198713 73.310623 
L 349.198713 73.368263 
L 350.198713 73.438649 
L 351.198713 73.490614 
L 352.198713 73.549703 
L 353.198713 73.638024 
L 354.198713 73.684169 
L 355.198713 73.72658 
L 356.198713 73.757072 
L 357.198713 73.783117 
L 358.198713 73.804317 
L 359.198713 73.858618 
L 360.198713 73.886556 
L 361.198713 73.91628 
L 362.198713 73.941675 
L 363.198713 73.952875 
L 364.198713 73.962999 
L 365.198713 73.962795 
L 366.198713 73.953285 
L 367.198713 73.941631 
L 368.198713 73.910602 
L 369.198713 73.899434 
L 370.198713 73.869317 
L 371.198713 73.80954 
L 372.198713 73.772348 
L 373.198713 73.733252 
L 374.198713 73.690812 
L 375.198713 73.658047 
L 376.198713 73.590621 
L 377.198713 73.551495 
L 378.198713 73.50882 
L 379.198713 73.43824 
L 380.198713 73.401849 
L 381.198713 73.343446 
L 382.198713 73.232493 
L 383.198713 73.161835 
L 384.198713 73.048895 
L 385.198713 73.003122 
L 386.198713 72.941839 
L 387.198713 72.89334 
L 388.198713 72.812517 
L 389.198713 72.693998 
L 390.198713 72.623787 
L 391.198713 72.540525 
L 392.198713 72.507383 
L 393.198713 72.456146 
L 394.198713 72.387747 
L 395.198713 72.321532 
L 396.198713 72.244615 
L 397.198713 72.217299 
L 398.198713 72.190822 
L 399.198713 72.168171 
L 400.198713 72.14864 
L 401.198713 72.122246 
L 402.198713 72.072475 
L 403.198713 72.037402 
L 404.198713 72.001536 
L 405.198713 71.986169 
L 406.198713 71.9704 
L 407.198713 71.966987 
L 408.198713 71.96457 
L 409.198713 71.965056 
L 410.198713 71.966985 
L 411.198713 71.980242 
L 412.198713 71.988633 
L 413.198713 72.010169 
L 414.198713 72.033202 
L 415.198713 72.050435 
L 416.198713 72.068898 
L 417.198713 72.08935 
L 418.198713 72.10595 
L 419.198713 72.168729 
L 420.198713 72.243994 
L 421.198713 72.276633 
L 422.198713 72.344197 
L 423.198713 72.398244 
L 424.198713 72.431948 
L 425.198713 72.522074 
L 426.198713 72.550609 
L 427.198713 72.582095 
L 428.198713 72.613106 
L 429.198713 72.667914 
L 430.198713 72.732501 
L 431.198713 72.770697 
L 432.198713 72.866631 
L 433.198713 72.915889 
L 434.198713 72.959958 
L 435.198713 73.000082 
L 436.198713 73.108449 
L 437.198713 73.150077 
L 438.198713 73.212219 
L 439.198713 73.282181 
L 440.198713 73.386685 
L 441.198713 73.423673 
L 442.198713 73.46955 
L 443.198713 73.538045 
L 444.198713 73.586791 
L 445.198713 73.664388 
L 446.198713 73.694929 
L 447.198713 73.764443 
L 448.198713 73.788416 
L 449.198713 73.817038 
L 450.198713 73.858831 
L 451.198713 73.880407 
L 452.198713 73.894355 
L 453.198713 73.921077 
L 454.198713 73.930387 
L 455.198713 73.942834 
L 456.198713 73.953889 
L 457.198713 73.959553 
L 458.198713 73.964317 
L 459.198713 73.958769 
L 460.198713 73.945481 
L 461.198713 73.937964 
L 462.198713 73.913179 
L 463.198713 73.88961 
L 464.198713 73.85343 
L 465.198713 73.827468 
L 466.198713 73.805146 
L 467.198713 73.736386 
L 468.198713 73.661851 
L 469.198713 73.567872 
L 470.198713 73.51682 
L 471.198713 73.462886 
L 472.198713 73.427635 
L 473.198713 73.321547 
L 474.198713 73.269283 
L 475.198713 73.232376 
L 476.198713 73.201345 
L 477.198713 73.14019 
L 478.198713 73.07277 
L 479.198713 73.023864 
L 480.198713 72.958672 
L 481.198713 72.920484 
L 482.198713 72.878488 
L 483.198713 72.836471 
L 484.198713 72.776955 
L 485.198713 72.663795 
L 486.198713 72.611544 
L 487.198713 72.572126 
L 488.198713 72.525025 
L 489.198713 72.468245 
L 490.198713 72.435582 
L 491.198713 72.399404 
L 492.198713 72.367314 
L 493.198713 72.333034 
L 494.198713 72.274656 
L 495.198713 72.229471 
L 496.198713 72.199847 
L 497.198713 72.149461 
L 498.198713 72.124264 
L 499.198713 72.103213 
L 500.198713 72.068245 
L 501.198713 72.043955 
L 502.198713 72.029888 
L 503.198713 72.010946 
L 504.198713 71.995285 
L 505.198713 71.982733 
L 506.198713 71.976897 
L 507.198713 71.970015 
L 508.198713 71.964841 
L 509.198713 71.966624 
L 510.198713 71.969349 
L 511.198713 71.980503 
L 512.198713 72.008738 
L 513.198713 72.052526 
L 514.198713 72.073215 
L 515.198713 72.114188 
L 516.198713 72.154263 
L 517.198713 72.173373 
L 518.198713 72.195882 
L 519.198713 72.262533 
L 520.198713 72.312243 
L 521.198713 72.385949 
L 522.198713 72.417263 
L 523.198713 72.493885 
L 524.198713 72.532183 
L 525.198713 72.6063 
L 526.198713 72.710358 
L 527.198713 72.780189 
L 528.198713 72.885423 
L 529.198713 72.940438 
L 530.198713 73.063913 
L 531.198713 73.134472 
L 532.198713 73.250311 
L 533.198713 73.300492 
L 534.198713 73.336096 
L 535.198713 73.427503 
L 536.198713 73.481011 
L 537.198713 73.568919 
L 538.198713 73.638104 
L 539.198713 73.684868 
L 540.198713 73.756912 
L 541.198713 73.807054 
L 542.198713 73.824444 
L 543.198713 73.851447 
L 544.198713 73.870874 
L 545.198713 73.890212 
L 546.198713 73.928461 
L 547.198713 73.944894 
L 548.198713 73.953263 
L 549.198713 73.957582 
L 550.198713 73.964137 
L 551.198713 73.961591 
L 552.198713 73.956132 
L 553.198713 73.939704 
L 554.198713 73.907769 
L 555.198713 73.869789 
L 556.198713 73.834985 
L 557.198713 73.771913 
L 558.610324 73.750486 
" clip-path="url(#pcad51b5177)" style="fill: none; stroke: #1f77b4; stroke-linecap: round"/>
         <path d="M 554.610324 70.964375 
L 555.490692 71.439706 
L 556.368599 71.91996 
L 557.219312 72.454601 
L 558.521487 73.142048 
L 557.594134 73.168063 
L 556.682459 73.580783 
L 555.772195 73.996322 
L 554.429699 74.603126 
L 555.084598 73.964375 
L 555.136562 72.964375 
L 555.195652 70.964375 
z
" clip-path="url(#pcad51b5177)" style="fill: #ffffff; stroke: #ffffff; stroke-width: 3; stroke-linecap: round"/>
         <path d="M 554.610324 70.964375 
L 555.490692 71.439706 
L 556.368599 71.91996 
L 557.219312 72.454601 
L 558.521487 73.142048 
L 557.594134 73.168063 
L 556.682459 73.580783 
L 555.772195 73.996322 
L 554.429699 74.603126 
L 555.084598 73.964375 
L 555.136562 72.964375 
L 555.195652 70.964375 
z
" clip-path="url(#pcad51b5177)" style="fill: #ffffff; stroke: #1f77b4; stroke-linecap: round"/>
         <g id="patch_9">
          <path d="M 341.198042 282.083546 
L 342.198042 282.114982 
L 343.198042 282.151922 
L 344.198042 282.249669 
L 345.198042 282.28219 
L 346.198042 282.355815 
L 347.198042 282.394381 
L 348.198042 282.429794 
L 349.198042 282.487434 
L 350.198042 282.55782 
L 351.198042 282.609784 
L 352.198042 282.668874 
L 353.198042 282.757195 
L 354.198042 282.803339 
L 355.198042 282.84575 
L 356.198042 282.876243 
L 357.198042 282.902288 
L 358.198042 282.923488 
L 359.198042 282.977789 
L 360.198042 283.005727 
L 361.198042 283.035451 
L 362.198042 283.060845 
L 363.198042 283.072046 
L 364.198042 283.08217 
L 365.198042 283.081965 
L 366.198042 283.072455 
L 367.198042 283.060802 
L 368.198042 283.029773 
L 369.198042 283.018605 
L 370.198042 282.988487 
L 371.198042 282.92871 
L 372.198042 282.891519 
L 373.198042 282.852423 
L 374.198042 282.809983 
L 375.198042 282.777218 
L 376.198042 282.709791 
L 377.198042 282.670665 
L 378.198042 282.627991 
L 379.198042 282.55741 
L 380.198042 282.521019 
L 381.198042 282.462616 
L 382.198042 282.351664 
L 383.198042 282.281005 
L 384.198042 282.168066 
L 385.198042 282.122293 
L 386.198042 282.061009 
L 387.198042 282.01251 
L 388.198042 281.931687 
L 389.198042 281.813169 
L 390.198042 281.742958 
L 391.198042 281.659695 
L 392.198042 281.626554 
L 393.198042 281.575316 
L 394.198042 281.506918 
L 395.198042 281.440703 
L 396.198042 281.363785 
L 397.198042 281.33647 
L 398.198042 281.309993 
L 399.198042 281.287342 
L 400.198042 281.267811 
L 401.198042 281.241417 
L 402.198042 281.191646 
L 403.198042 281.156573 
L 404.198042 281.120707 
L 405.198042 281.10534 
L 406.198042 281.08957 
L 407.198042 281.086158 
L 408.198042 281.08374 
L 409.198042 281.084226 
L 410.198042 281.086156 
L 411.198042 281.099413 
L 412.198042 281.107803 
L 413.198042 281.12934 
L 414.198042 281.152372 
L 415.198042 281.169606 
L 416.198042 281.188068 
L 417.198042 281.208521 
L 418.198042 281.225121 
L 419.198042 281.287899 
L 420.198042 281.363164 
L 421.198042 281.395804 
L 422.198042 281.463367 
L 423.198042 281.517414 
L 424.198042 281.551119 
L 425.198042 281.641245 
L 426.198042 281.66978 
L 427.198042 281.701266 
L 428.198042 281.732277 
L 429.198042 281.787084 
L 431.163061 281.851672 
" clip-path="url(#pcad51b5177)" style="fill: none; stroke: #ffffff; stroke-width: 3; stroke-linecap: round"/>
          <path d="M 341.198042 282.083546 
L 342.198042 282.114982 
L 343.198042 282.151922 
L 344.198042 282.249669 
L 345.198042 282.28219 
L 346.198042 282.355815 
L 347.198042 282.394381 
L 348.198042 282.429794 
L 349.198042 282.487434 
L 350.198042 282.55782 
L 351.198042 282.609784 
L 352.198042 282.668874 
L 353.198042 282.757195 
L 354.198042 282.803339 
L 355.198042 282.84575 
L 356.198042 282.876243 
L 357.198042 282.902288 
L 358.198042 282.923488 
L 359.198042 282.977789 
L 360.198042 283.005727 
L 361.198042 283.035451 
L 362.198042 283.060845 
L 363.198042 283.072046 
L 364.198042 283.08217 
L 365.198042 283.081965 
L 366.198042 283.072455 
L 367.198042 283.060802 
L 368.198042 283.029773 
L 369.198042 283.018605 
L 370.198042 282.988487 
L 371.198042 282.92871 
L 372.198042 282.891519 
L 373.198042 282.852423 
L 374.198042 282.809983 
L 375.198042 282.777218 
L 376.198042 282.709791 
L 377.198042 282.670665 
L 378.198042 282.627991 
L 379.198042 282.55741 
L 380.198042 282.521019 
L 381.198042 282.462616 
L 382.198042 282.351664 
L 383.198042 282.281005 
L 384.198042 282.168066 
L 385.198042 282.122293 
L 386.198042 282.061009 
L 387.198042 282.01251 
L 388.198042 281.931687 
L 389.198042 281.813169 
L 390.198042 281.742958 
L 391.198042 281.659695 
L 392.198042 281.626554 
L 393.198042 281.575316 
L 394.198042 281.506918 
L 395.198042 281.440703 
L 396.198042 281.363785 
L 397.198042 281.33647 
L 398.198042 281.309993 
L 399.198042 281.287342 
L 400.198042 281.267811 
L 401.198042 281.241417 
L 402.198042 281.191646 
L 403.198042 281.156573 
L 404.198042 281.120707 
L 405.198042 281.10534 
L 406.198042 281.08957 
L 407.198042 281.086158 
L 408.198042 281.08374 
L 409.198042 281.084226 
L 410.198042 281.086156 
L 411.198042 281.099413 
L 412.198042 281.107803 
L 413.198042 281.12934 
L 414.198042 281.152372 
L 415.198042 281.169606 
L 416.198042 281.188068 
L 417.198042 281.208521 
L 418.198042 281.225121 
L 419.198042 281.287899 
L 420.198042 281.363164 
L 421.198042 281.395804 
L 422.198042 281.463367 
L 423.198042 281.517414 
L 424.198042 281.551119 
L 425.198042 281.641245 
L 426.198042 281.66978 
L 427.198042 281.701266 
L 428.198042 281.732277 
L 429.198042 281.787084 
L 431.163061 281.851672 
" clip-path="url(#pcad51b5177)" style="fill: none; stroke: #1f77b4; stroke-linecap: round"/>
          <path d="M 427.163061 280.083546 
L 428.04343 280.558877 
L 428.921337 281.039131 
L 429.77205 281.573772 
L 431.074225 282.261219 
L 430.146872 282.287234 
L 429.235197 282.699953 
L 428.324933 283.115492 
L 426.982437 283.722297 
L 427.637336 283.083546 
L 427.6893 282.083546 
L 427.74839 280.083546 
z
" clip-path="url(#pcad51b5177)" style="fill: #ffffff; stroke: #ffffff; stroke-width: 3; stroke-linecap: round"/>
          <path d="M 427.163061 280.083546 
L 428.04343 280.558877 
L 428.921337 281.039131 
L 429.77205 281.573772 
L 431.074225 282.261219 
L 430.146872 282.287234 
L 429.235197 282.699953 
L 428.324933 283.115492 
L 426.982437 283.722297 
L 427.637336 283.083546 
L 427.6893 282.083546 
L 427.74839 280.083546 
z
" clip-path="url(#pcad51b5177)" style="fill: #ffffff; stroke: #1f77b4; stroke-linecap: round"/>
          <path d="M 448.670746 293.090608 
" clip-path="url(#pcad51b5177)" style="fill: none; stroke-dasharray: 3.7,1.6; stroke-dashoffset: 0; stroke: #2ca02c"/>
          <path d="M 447.670746 293.090608 
L 449.670746 294.090608 
L 449.670746 292.090608 
z
" clip-path="url(#pcad51b5177)" style="fill: #2ca02c; stroke: #2ca02c; stroke-linejoin: miter"/>
          <g id="patch_10">
           <path d="M 63.290625 321.621875 
L 63.290625 10.8 
" style="fill: none; stroke: #000000; stroke-width: 0.8; stroke-linejoin: miter; stroke-linecap: square"/>
          </g>
          <g id="text_14">
           <g id="patch_11">
            <path d="M 296.513612 153.280835 
L 317.818299 153.280835 
Q 319.818299 153.280835 319.818299 151.280835 
L 319.818299 141.60271 
Q 319.818299 139.60271 317.818299 139.60271 
L 296.513612 139.60271 
Q 294.513612 139.60271 294.513612 141.60271 
L 294.513612 151.280835 
Q 294.513612 153.280835 296.513612 153.280835 
z
" style="fill: #ffffff; opacity: 0.6"/>
           </g>
           <!-- ANC -->
           <g transform="translate(296.513612 149.201148) scale(0.1 -0.1)">
            <defs>
             <path id="DejaVuSans-4e" d="M 628 4666 
L 1478 4666 
L 3547 763 
L 3547 4666 
L 4159 4666 
L 4159 0 
L 3309 0 
L 1241 3903 
L 1241 0 
L 628 0 
L 628 4666 
z
" transform="scale(0.015625)"/>
            </defs>
            <use xlink:href="#DejaVuSans-41"/>
            <use xlink:href="#DejaVuSans-4e" x="68.408203"/>
            <use xlink:href="#DejaVuSans-43" x="143.212891"/>
           </g>
          </g>
         </g>
        </g>
        <defs>
         <clipPath id="pcad51b5177">
          <rect x="63.290625" y="10.8" width="540.309375" height="310.821875"/>
         </clipPath>
        </defs>
       </g>
      </g>
     </g>
    </g>
   </g>
  </g>
 </g>
</svg>
