<?xml version="1.0" encoding="utf-8" standalone="no"?>
<!DOCTYPE svg PUBLIC "-//W3C//DTD SVG 1.1//EN"
  "http://www.w3.org/Graphics/SVG/1.1/DTD/svg11.dtd">
<svg xmlns:xlink="http://www.w3.org/1999/xlink" width="614.4pt" height="345.6pt" viewBox="0 0 614.4 345.6" xmlns="http://www.w3.org/2000/svg" version="1.1">
 <metadata>
  <rdf:RDF xmlns:dc="http://purl.org/dc/elements/1.1/" xmlns:cc="http://creativecommons.org/ns#" xmlns:rdf="http://www.w3.org/1999/02/22-rdf-syntax-ns#">
   <cc:Work>
    <dc:type rdf:resource="http://purl.org/dc/dcmitype/StillImage"/>
    <dc:date>2024-04-17T19:40:05.858294</dc:date>
    <dc:format>image/svg+xml</dc:format>
    <dc:creator>
     <cc:Agent>
      <dc:title>Matplotlib v3.7.1, https://matplotlib.org/</dc:title>
     </cc:Agent>
    </dc:creator>
   </cc:Work>
  </rdf:RDF>
 </metadata>
 <defs>
  <style type="text/css">*{stroke-linejoin: round; stroke-linecap: butt}</style>
 </defs>
 <g id="figure_1">
  <g id="patch_1">
   <path d="M 0 345.6 
L 614.4 345.6 
L 614.4 0 
L 0 0 
z
" style="fill: #ffffff"/>
  </g>
  <g id="axes_1">
   <g id="patch_2">
    <path d="M 63.290625 321.621875 
L 603.6 321.621875 
L 603.6 10.8 
L 63.290625 10.8 
z
" style="fill: #ffffff"/>
   </g>
   <path d="M 568.334533 302.928942 
L 567.334533 302.897506 
L 566.334533 302.860565 
L 565.334533 302.762819 
L 564.334533 302.730297 
L 563.334533 302.656673 
L 562.334533 302.618107 
L 561.334533 302.582694 
L 560.334533 302.525054 
L 559.334533 302.454668 
L 558.334533 302.402703 
L 557.334533 302.343614 
L 556.334533 302.255293 
L 555.334533 302.209148 
L 554.334533 302.166738 
L 553.334533 302.136245 
L 552.334533 302.1102 
L 551.334533 302.089 
L 550.334533 302.034699 
L 549.334533 302.006761 
L 548.334533 301.977037 
L 547.334533 301.951642 
L 546.334533 301.940442 
L 545.334533 301.930318 
L 544.334533 301.930522 
L 543.334533 301.940032 
L 542.334533 301.951686 
L 541.334533 301.982715 
L 540.334533 301.993883 
L 539.334533 302.024001 
L 538.334533 302.083777 
L 537.334533 302.120969 
L 536.334533 302.160065 
L 535.334533 302.202505 
L 534.334533 302.23527 
L 533.334533 302.302696 
L 532.334533 302.341822 
L 531.334533 302.384497 
L 530.334533 302.455077 
L 529.334533 302.491468 
L 528.334533 302.549871 
L 527.334533 302.660824 
L 526.334533 302.731482 
L 525.334533 302.844422 
L 524.334533 302.890195 
L 523.334533 302.951478 
L 522.334533 302.999978 
L 521.334533 303.0808 
L 520.334533 303.199319 
L 519.334533 303.26953 
L 518.334533 303.352792 
L 517.334533 303.385934 
L 516.334533 303.437171 
L 515.334533 303.50557 
L 514.334533 303.571785 
L 513.334533 303.648702 
L 512.334533 303.676018 
L 511.334533 303.702495 
L 510.334533 303.725146 
L 509.334533 303.744677 
L 508.334533 303.771071 
L 507.334533 303.820842 
L 506.334533 303.855915 
L 505.334533 303.891781 
L 504.334533 303.907148 
L 503.334533 303.922917 
L 502.334533 303.92633 
L 501.334533 303.928747 
L 500.334533 303.928261 
L 499.334533 303.926332 
L 498.334533 303.913075 
L 497.334533 303.904685 
L 496.334533 303.883148 
L 495.334533 303.860115 
L 494.334533 303.842882 
L 493.334533 303.824419 
L 492.334533 303.803967 
L 491.334533 303.787367 
L 490.334533 303.724588 
L 489.334533 303.649323 
L 488.334533 303.616684 
L 487.334533 303.549121 
L 486.334533 303.495073 
L 485.334533 303.461369 
L 484.334533 303.371243 
L 483.334533 303.342708 
L 482.334533 303.311222 
L 481.334533 303.280211 
L 480.334533 303.225403 
L 479.334533 303.160816 
L 478.334533 303.122621 
L 477.334533 303.026686 
L 476.334533 302.977428 
L 475.334533 302.933359 
L 474.334533 302.893235 
L 473.334533 302.784868 
L 472.334533 302.74324 
L 471.334533 302.681099 
L 470.334533 302.611136 
L 469.334533 302.506632 
L 468.334533 302.469644 
L 467.334533 302.423767 
L 466.334533 302.355273 
L 465.334533 302.306527 
L 464.334533 302.228929 
L 463.334533 302.198388 
L 462.334533 302.128874 
L 461.334533 302.104901 
L 460.334533 302.076279 
L 459.334533 302.034486 
L 458.334533 302.01291 
L 457.334533 301.998962 
L 456.334533 301.97224 
L 455.334533 301.96293 
L 454.334533 301.950483 
L 453.334533 301.939429 
L 451.395656 301.933764 
" clip-path="url(#pa591bdfe59)" style="fill: none; stroke-dasharray: 3.7,1.6; stroke-dashoffset: 0; stroke: #2ca02c"/>
   <g id="patch_3">
    <path d="M 307.658841 10.8 
L 307.658841 212.20917 
M 319.929403 10.8 
L 319.929403 212.20917 
" clip-path="url(#pa591bdfe59)" style="fill: none; stroke: #ffffff; stroke-width: 3; stroke-linejoin: miter"/>
    <path d="M 307.658841 10.8 
L 307.658841 212.20917 
M 319.929403 10.8 
L 319.929403 212.20917 
" clip-path="url(#pa591bdfe59)" style="fill: none; stroke: #1f77b4; stroke-linejoin: miter"/>
    <g id="PolyCollection_1">
     <path d="M 319.929403 10.8 
L 307.658841 10.8 
L 307.658841 212.20917 
L 319.929403 212.20917 
L 319.929403 212.20917 
L 319.929403 10.8 
z
" clip-path="url(#pa591bdfe59)" style="fill: #1f77b4; fill-opacity: 0.5"/>
    </g>
    <g id="patch_4">
     <path d="M 115.158473 212.20917 
L 115.058607 314.846153 
L 114.248908 315.754239 
L 113.179667 316.592473 
L 111.817094 317.360854 
L 109.948393 318.129235 
L 107.653414 318.827763 
L 104.595059 319.526291 
L 100.519409 320.224819 
L 95.088082 320.923347 
L 87.850142 321.621875 
M 118.537371 212.20917 
L 118.637238 314.846153 
L 119.446937 315.754239 
L 120.516178 316.592473 
L 121.878751 317.360854 
L 123.747452 318.129235 
L 126.042431 318.827763 
L 129.100786 319.526291 
L 133.176436 320.224819 
L 138.607762 320.923347 
L 145.845703 321.621875 
L 145.845703 321.621875 
" clip-path="url(#pa591bdfe59)" style="fill: none; stroke: #ffffff; stroke-width: 3; stroke-linejoin: miter"/>
     <path d="M 115.158473 212.20917 
L 115.058607 314.846153 
L 114.248908 315.754239 
L 113.179667 316.592473 
L 111.817094 317.360854 
L 109.948393 318.129235 
L 107.653414 318.827763 
L 104.595059 319.526291 
L 100.519409 320.224819 
L 95.088082 320.923347 
L 87.850142 321.621875 
M 118.537371 212.20917 
L 118.637238 314.846153 
L 119.446937 315.754239 
L 120.516178 316.592473 
L 121.878751 317.360854 
L 123.747452 318.129235 
L 126.042431 318.827763 
L 129.100786 319.526291 
L 133.176436 320.224819 
L 138.607762 320.923347 
L 145.845703 321.621875 
L 145.845703 321.621875 
" clip-path="url(#pa591bdfe59)" style="fill: none; stroke: #ff7f0e; stroke-linejoin: miter"/>
     <g id="PolyCollection_2">
      <path d="M 118.537371 212.20917 
L 115.158473 212.20917 
L 115.158473 314.706447 
L 115.158473 314.706447 
L 115.109257 314.7763 
L 115.058607 314.846153 
L 115.006481 314.916006 
L 114.952837 314.985859 
L 114.897631 315.055711 
L 114.840815 315.125564 
L 114.782345 315.195417 
L 114.722172 315.26527 
L 114.660245 315.335123 
L 114.596515 315.404975 
L 114.530928 315.474828 
L 114.46343 315.544681 
L 114.393966 315.614534 
L 114.322478 315.684387 
L 114.248908 315.754239 
L 114.173195 315.824092 
L 114.095276 315.893945 
L 114.015087 315.963798 
L 113.932562 316.033651 
L 113.847633 316.103503 
L 113.760229 316.173356 
L 113.67028 316.243209 
L 113.57771 316.313062 
L 113.482444 316.382915 
L 113.384402 316.452767 
L 113.283504 316.52262 
L 113.179667 316.592473 
L 113.072805 316.662326 
L 112.96283 316.732179 
L 112.849651 316.802031 
L 112.733175 316.871884 
L 112.613306 316.941737 
L 112.489945 317.01159 
L 112.36299 317.081443 
L 112.232337 317.151296 
L 112.097878 317.221148 
L 111.959501 317.291001 
L 111.817094 317.360854 
L 111.670538 317.430707 
L 111.519713 317.50056 
L 111.364493 317.570412 
L 111.204752 317.640265 
L 111.040358 317.710118 
L 110.871174 317.779971 
L 110.697062 317.849824 
L 110.517878 317.919676 
L 110.333474 317.989529 
L 110.143698 318.059382 
L 109.948393 318.129235 
L 109.747399 318.199088 
L 109.540549 318.26894 
L 109.327674 318.338793 
L 109.108597 318.408646 
L 108.883138 318.478499 
L 108.651112 318.548352 
L 108.412326 318.618204 
L 108.166583 318.688057 
L 107.913682 318.75791 
L 107.653414 318.827763 
L 107.385563 318.897616 
L 107.10991 318.967468 
L 106.826226 319.037321 
L 106.534278 319.107174 
L 106.233825 319.177027 
L 105.92462 319.24688 
L 105.606407 319.316732 
L 105.278924 319.386585 
L 104.9419 319.456438 
L 104.595059 319.526291 
L 104.238114 319.596144 
L 103.87077 319.665996 
L 103.492725 319.735849 
L 103.103667 319.805702 
L 102.703275 319.875555 
L 102.291219 319.945408 
L 101.86716 320.01526 
L 101.430746 320.085113 
L 100.98162 320.154966 
L 100.519409 320.224819 
L 100.043734 320.294672 
L 99.554201 320.364525 
L 99.050408 320.434377 
L 98.531938 320.50423 
L 97.998364 320.574083 
L 97.449247 320.643936 
L 96.884133 320.713789 
L 96.302556 320.783641 
L 95.704037 320.853494 
L 95.088082 320.923347 
L 94.454184 320.9932 
L 93.801819 321.063053 
L 93.130449 321.132905 
L 92.439522 321.202758 
L 91.728467 321.272611 
L 90.996697 321.342464 
L 90.24361 321.412317 
L 89.468584 321.482169 
L 88.670981 321.552022 
L 87.850142 321.621875 
L 145.845703 321.621875 
L 145.845703 321.621875 
L 145.024864 321.552022 
L 144.227261 321.482169 
L 143.452235 321.412317 
L 142.699148 321.342464 
L 141.967378 321.272611 
L 141.256323 321.202758 
L 140.565395 321.132905 
L 139.894026 321.063053 
L 139.241661 320.9932 
L 138.607762 320.923347 
L 137.991808 320.853494 
L 137.393289 320.783641 
L 136.811712 320.713789 
L 136.246598 320.643936 
L 135.69748 320.574083 
L 135.163907 320.50423 
L 134.645437 320.434377 
L 134.141644 320.364525 
L 133.652111 320.294672 
L 133.176436 320.224819 
L 132.714225 320.154966 
L 132.265098 320.085113 
L 131.828685 320.01526 
L 131.404625 319.945408 
L 130.992569 319.875555 
L 130.592178 319.805702 
L 130.20312 319.735849 
L 129.825075 319.665996 
L 129.457731 319.596144 
L 129.100786 319.526291 
L 128.753944 319.456438 
L 128.416921 319.386585 
L 128.089438 319.316732 
L 127.771225 319.24688 
L 127.46202 319.177027 
L 127.161567 319.107174 
L 126.869619 319.037321 
L 126.585935 318.967468 
L 126.310282 318.897616 
L 126.042431 318.827763 
L 125.782163 318.75791 
L 125.529261 318.688057 
L 125.283519 318.618204 
L 125.044733 318.548352 
L 124.812706 318.478499 
L 124.587248 318.408646 
L 124.368171 318.338793 
L 124.155296 318.26894 
L 123.948446 318.199088 
L 123.747452 318.129235 
L 123.552147 318.059382 
L 123.362371 317.989529 
L 123.177967 317.919676 
L 122.998783 317.849824 
L 122.82467 317.779971 
L 122.655487 317.710118 
L 122.491092 317.640265 
L 122.331351 317.570412 
L 122.176132 317.50056 
L 122.025307 317.430707 
L 121.878751 317.360854 
L 121.736343 317.291001 
L 121.597967 317.221148 
L 121.463508 317.151296 
L 121.332855 317.081443 
L 121.2059 317.01159 
L 121.082539 316.941737 
L 120.96267 316.871884 
L 120.846194 316.802031 
L 120.733015 316.732179 
L 120.62304 316.662326 
L 120.516178 316.592473 
L 120.412341 316.52262 
L 120.311443 316.452767 
L 120.213401 316.382915 
L 120.118135 316.313062 
L 120.025565 316.243209 
L 119.935615 316.173356 
L 119.848212 316.103503 
L 119.763283 316.033651 
L 119.680758 315.963798 
L 119.600569 315.893945 
L 119.52265 315.824092 
L 119.446937 315.754239 
L 119.373367 315.684387 
L 119.301879 315.614534 
L 119.232415 315.544681 
L 119.164917 315.474828 
L 119.09933 315.404975 
L 119.0356 315.335123 
L 118.973673 315.26527 
L 118.9135 315.195417 
L 118.855029 315.125564 
L 118.798214 315.055711 
L 118.743008 314.985859 
L 118.689363 314.916006 
L 118.637238 314.846153 
L 118.586588 314.7763 
L 118.537371 314.706447 
L 118.537371 314.706447 
L 118.537371 212.20917 
z
" clip-path="url(#pa591bdfe59)" style="fill: #ff7f0e; fill-opacity: 0.5"/>
     </g>
     <g id="patch_5">
      <path d="M 573.737627 72.964375 
L 573.737627 321.621875 
M 579.040483 72.964375 
L 579.040483 321.621875 
" clip-path="url(#pa591bdfe59)" style="fill: none; stroke: #ffffff; stroke-width: 3; stroke-linejoin: miter"/>
      <path d="M 573.737627 72.964375 
L 573.737627 321.621875 
M 579.040483 72.964375 
L 579.040483 321.621875 
" clip-path="url(#pa591bdfe59)" style="fill: none; stroke: #2ca02c; stroke-linejoin: miter"/>
      <g id="PolyCollection_3">
       <path d="M 579.040483 72.964375 
L 573.737627 72.964375 
L 573.737627 321.621875 
L 579.040483 321.621875 
L 579.040483 321.621875 
L 579.040483 72.964375 
z
" clip-path="url(#pa591bdfe59)" style="fill: #2ca02c; fill-opacity: 0.5"/>
      </g>
      <g id="patch_6">
       <path d="M 444.190615 234.849217 
L 444.190615 262.021528 
L 444.937108 262.021528 
L 444.937108 262.904575 
L 444.190615 262.904575 
L 444.105763 307.173951 
L 443.545482 308.663427 
L 442.875481 309.855009 
L 442.054913 310.897643 
L 440.93051 311.940276 
L 439.640672 312.833962 
L 437.951014 313.727648 
L 435.737602 314.621334 
L 432.838083 315.51502 
L 429.039781 316.408706 
L 424.064093 317.302392 
L 417.546057 318.196079 
L 409.007581 319.089765 
L 397.822376 319.983451 
L 383.170018 320.877137 
L 367.54519 321.621875 
M 445.992562 234.849217 
L 445.992562 262.021528 
L 445.246069 262.021528 
L 445.246069 262.904575 
L 445.992562 262.904575 
L 446.077414 307.173951 
L 446.637695 308.663427 
L 447.307696 309.855009 
L 448.128264 310.897643 
L 449.252667 311.940276 
L 450.542505 312.833962 
L 452.232163 313.727648 
L 454.445575 314.621334 
L 457.345094 315.51502 
L 461.143396 316.408706 
L 466.119084 317.302392 
L 472.63712 318.196079 
L 481.175596 319.089765 
L 492.360801 319.983451 
L 507.013159 320.877137 
L 522.637987 321.621875 
L 522.637987 321.621875 
" clip-path="url(#pa591bdfe59)" style="fill: none; stroke: #ffffff; stroke-width: 3; stroke-linejoin: miter"/>
       <path d="M 444.190615 234.849217 
L 444.190615 262.021528 
L 444.937108 262.021528 
L 444.937108 262.904575 
L 444.190615 262.904575 
L 444.105763 307.173951 
L 443.545482 308.663427 
L 442.875481 309.855009 
L 442.054913 310.897643 
L 440.93051 311.940276 
L 439.640672 312.833962 
L 437.951014 313.727648 
L 435.737602 314.621334 
L 432.838083 315.51502 
L 429.039781 316.408706 
L 424.064093 317.302392 
L 417.546057 318.196079 
L 409.007581 319.089765 
L 397.822376 319.983451 
L 383.170018 320.877137 
L 367.54519 321.621875 
M 445.992562 234.849217 
L 445.992562 262.021528 
L 445.246069 262.021528 
L 445.246069 262.904575 
L 445.992562 262.904575 
L 446.077414 307.173951 
L 446.637695 308.663427 
L 447.307696 309.855009 
L 448.128264 310.897643 
L 449.252667 311.940276 
L 450.542505 312.833962 
L 452.232163 313.727648 
L 454.445575 314.621334 
L 457.345094 315.51502 
L 461.143396 316.408706 
L 466.119084 317.302392 
L 472.63712 318.196079 
L 481.175596 319.089765 
L 492.360801 319.983451 
L 507.013159 320.877137 
L 522.637987 321.621875 
L 522.637987 321.621875 
" clip-path="url(#pa591bdfe59)" style="fill: none; stroke: #d62728; stroke-linejoin: miter"/>
       <g id="PolyCollection_4">
        <path d="M 445.992562 234.849217 
L 444.190615 234.849217 
L 444.190615 262.021528 
L 444.937108 262.021528 
L 444.937108 262.904575 
L 444.190615 262.904575 
L 444.190615 306.876055 
L 444.190615 306.876055 
L 444.149143 307.025003 
L 444.105763 307.173951 
L 444.060386 307.322898 
L 444.01292 307.471846 
L 443.96327 307.620794 
L 443.911334 307.769741 
L 443.857007 307.918689 
L 443.80018 308.067637 
L 443.740737 308.216584 
L 443.678558 308.365532 
L 443.613517 308.51448 
L 443.545482 308.663427 
L 443.474315 308.812375 
L 443.399873 308.961323 
L 443.322004 309.110271 
L 443.240551 309.259218 
L 443.155349 309.408166 
L 443.066225 309.557114 
L 442.972998 309.706061 
L 442.875481 309.855009 
L 442.773474 310.003957 
L 442.666773 310.152904 
L 442.55516 310.301852 
L 442.438409 310.4508 
L 442.316285 310.599747 
L 442.188539 310.748695 
L 442.054913 310.897643 
L 441.915136 311.04659 
L 441.768926 311.195538 
L 441.615985 311.344486 
L 441.456005 311.493433 
L 441.288661 311.642381 
L 441.113614 311.791329 
L 440.93051 311.940276 
L 440.738977 312.089224 
L 440.538629 312.238172 
L 440.329058 312.387119 
L 440.109841 312.536067 
L 439.880534 312.685015 
L 439.640672 312.833962 
L 439.389769 312.98291 
L 439.127317 313.131858 
L 438.852784 313.280805 
L 438.565615 313.429753 
L 438.265228 313.578701 
L 437.951014 313.727648 
L 437.622337 313.876596 
L 437.278531 314.025544 
L 436.9189 314.174491 
L 436.542715 314.323439 
L 436.149215 314.472387 
L 435.737602 314.621334 
L 435.307042 314.770282 
L 434.856665 314.91923 
L 434.385556 315.068177 
L 433.892763 315.217125 
L 433.377286 315.366073 
L 432.838083 315.51502 
L 432.27406 315.663968 
L 431.684076 315.812916 
L 431.066935 315.961863 
L 430.421387 316.110811 
L 429.746125 316.259759 
L 429.039781 316.408706 
L 428.300924 316.557654 
L 427.528058 316.706602 
L 426.719617 316.855549 
L 425.873965 317.004497 
L 424.989387 317.153445 
L 424.064093 317.302392 
L 423.096207 317.45134 
L 422.083771 317.600288 
L 421.024733 317.749236 
L 419.916947 317.898183 
L 418.758171 318.047131 
L 417.546057 318.196079 
L 416.27815 318.345026 
L 414.951881 318.493974 
L 413.564566 318.642922 
L 412.113393 318.791869 
L 410.595423 318.940817 
L 409.007581 319.089765 
L 407.346652 319.238712 
L 405.609272 319.38766 
L 403.79192 319.536608 
L 401.890917 319.685555 
L 399.902412 319.834503 
L 397.822376 319.983451 
L 395.646598 320.132398 
L 393.37067 320.281346 
L 390.989982 320.430294 
L 388.499712 320.579241 
L 385.894816 320.728189 
L 383.170018 320.877137 
L 380.319798 321.026084 
L 377.338385 321.175032 
L 374.219739 321.32398 
L 370.957543 321.472927 
L 367.54519 321.621875 
L 522.637987 321.621875 
L 522.637987 321.621875 
L 519.225634 321.472927 
L 515.963438 321.32398 
L 512.844792 321.175032 
L 509.863379 321.026084 
L 507.013159 320.877137 
L 504.288361 320.728189 
L 501.683465 320.579241 
L 499.193195 320.430294 
L 496.812507 320.281346 
L 494.536579 320.132398 
L 492.360801 319.983451 
L 490.280765 319.834503 
L 488.29226 319.685555 
L 486.391257 319.536608 
L 484.573905 319.38766 
L 482.836525 319.238712 
L 481.175596 319.089765 
L 479.587754 318.940817 
L 478.069784 318.791869 
L 476.618611 318.642922 
L 475.231296 318.493974 
L 473.905027 318.345026 
L 472.63712 318.196079 
L 471.425006 318.047131 
L 470.26623 317.898183 
L 469.158444 317.749236 
L 468.099406 317.600288 
L 467.08697 317.45134 
L 466.119084 317.302392 
L 465.19379 317.153445 
L 464.309212 317.004497 
L 463.46356 316.855549 
L 462.655119 316.706602 
L 461.882253 316.557654 
L 461.143396 316.408706 
L 460.437052 316.259759 
L 459.76179 316.110811 
L 459.116242 315.961863 
L 458.499101 315.812916 
L 457.909117 315.663968 
L 457.345094 315.51502 
L 456.805891 315.366073 
L 456.290414 315.217125 
L 455.797621 315.068177 
L 455.326512 314.91923 
L 454.876135 314.770282 
L 454.445575 314.621334 
L 454.033962 314.472387 
L 453.640462 314.323439 
L 453.264277 314.174491 
L 452.904646 314.025544 
L 452.56084 313.876596 
L 452.232163 313.727648 
L 451.917949 313.578701 
L 451.617562 313.429753 
L 451.330393 313.280805 
L 451.05586 313.131858 
L 450.793408 312.98291 
L 450.542505 312.833962 
L 450.302643 312.685015 
L 450.073336 312.536067 
L 449.854119 312.387119 
L 449.644548 312.238172 
L 449.4442 312.089224 
L 449.252667 311.940276 
L 449.069563 311.791329 
L 448.894516 311.642381 
L 448.727172 311.493433 
L 448.567192 311.344486 
L 448.414251 311.195538 
L 448.268041 311.04659 
L 448.128264 310.897643 
L 447.994638 310.748695 
L 447.866892 310.599747 
L 447.744768 310.4508 
L 447.628017 310.301852 
L 447.516404 310.152904 
L 447.409703 310.003957 
L 447.307696 309.855009 
L 447.210179 309.706061 
L 447.116952 309.557114 
L 447.027828 309.408166 
L 446.942626 309.259218 
L 446.861173 309.110271 
L 446.783304 308.961323 
L 446.708861 308.812375 
L 446.637695 308.663427 
L 446.56966 308.51448 
L 446.504619 308.365532 
L 446.44244 308.216584 
L 446.382997 308.067637 
L 446.32617 307.918689 
L 446.271843 307.769741 
L 446.219907 307.620794 
L 446.170257 307.471846 
L 446.122791 307.322898 
L 446.077414 307.173951 
L 446.034034 307.025003 
L 445.992562 306.876055 
L 445.992562 306.876055 
L 445.992562 262.904575 
L 445.246069 262.904575 
L 445.246069 262.021528 
L 445.992562 262.021528 
L 445.992562 234.849217 
z
" clip-path="url(#pa591bdfe59)" style="fill: #d62728; fill-opacity: 0.5"/>
       </g>
       <g id="matplotlib.axis_1">
        <g id="xtick_1">
         <g id="line2d_1"/>
         <g id="text_1">
          <!-- OUT -->
          <g transform="translate(106.198704 332.720312) scale(0.1 -0.1)">
           <defs>
            <path id="DejaVuSans-4f" d="M 2522 4238 
Q 1834 4238 1429 3725 
Q 1025 3213 1025 2328 
Q 1025 1447 1429 934 
Q 1834 422 2522 422 
Q 3209 422 3611 934 
Q 4013 1447 4013 2328 
Q 4013 3213 3611 3725 
Q 3209 4238 2522 4238 
z
M 2522 4750 
Q 3503 4750 4090 4092 
Q 4678 3434 4678 2328 
Q 4678 1225 4090 567 
Q 3503 -91 2522 -91 
Q 1538 -91 948 565 
Q 359 1222 359 2328 
Q 359 3434 948 4092 
Q 1538 4750 2522 4750 
z
" transform="scale(0.015625)"/>
            <path id="DejaVuSans-55" d="M 556 4666 
L 1191 4666 
L 1191 1831 
Q 1191 1081 1462 751 
Q 1734 422 2344 422 
Q 2950 422 3222 751 
Q 3494 1081 3494 1831 
L 3494 4666 
L 4128 4666 
L 4128 1753 
Q 4128 841 3676 375 
Q 3225 -91 2344 -91 
Q 1459 -91 1007 375 
Q 556 841 556 1753 
L 556 4666 
z
" transform="scale(0.015625)"/>
            <path id="DejaVuSans-54" d="M -19 4666 
L 3928 4666 
L 3928 4134 
L 2272 4134 
L 2272 0 
L 1638 0 
L 1638 4134 
L -19 4134 
L -19 4666 
z
" transform="scale(0.015625)"/>
           </defs>
           <use xlink:href="#DejaVuSans-4f"/>
           <use xlink:href="#DejaVuSans-55" x="78.710938"/>
           <use xlink:href="#DejaVuSans-54" x="151.904297"/>
          </g>
         </g>
        </g>
        <g id="xtick_2">
         <g id="line2d_2"/>
         <g id="text_2">
          <!-- SRC -->
          <g transform="translate(566.499211 332.720312) scale(0.1 -0.1)">
           <defs>
            <path id="DejaVuSans-53" d="M 3425 4513 
L 3425 3897 
Q 3066 4069 2747 4153 
Q 2428 4238 2131 4238 
Q 1616 4238 1336 4038 
Q 1056 3838 1056 3469 
Q 1056 3159 1242 3001 
Q 1428 2844 1947 2747 
L 2328 2669 
Q 3034 2534 3370 2195 
Q 3706 1856 3706 1288 
Q 3706 609 3251 259 
Q 2797 -91 1919 -91 
Q 1588 -91 1214 -16 
Q 841 59 441 206 
L 441 856 
Q 825 641 1194 531 
Q 1563 422 1919 422 
Q 2459 422 2753 634 
Q 3047 847 3047 1241 
Q 3047 1584 2836 1778 
Q 2625 1972 2144 2069 
L 1759 2144 
Q 1053 2284 737 2584 
Q 422 2884 422 3419 
Q 422 4038 858 4394 
Q 1294 4750 2059 4750 
Q 2388 4750 2728 4690 
Q 3069 4631 3425 4513 
z
" transform="scale(0.015625)"/>
            <path id="DejaVuSans-52" d="M 2841 2188 
Q 3044 2119 3236 1894 
Q 3428 1669 3622 1275 
L 4263 0 
L 3584 0 
L 2988 1197 
Q 2756 1666 2539 1819 
Q 2322 1972 1947 1972 
L 1259 1972 
L 1259 0 
L 628 0 
L 628 4666 
L 2053 4666 
Q 2853 4666 3247 4331 
Q 3641 3997 3641 3322 
Q 3641 2881 3436 2590 
Q 3231 2300 2841 2188 
z
M 1259 4147 
L 1259 2491 
L 2053 2491 
Q 2509 2491 2742 2702 
Q 2975 2913 2975 3322 
Q 2975 3731 2742 3939 
Q 2509 4147 2053 4147 
L 1259 4147 
z
" transform="scale(0.015625)"/>
            <path id="DejaVuSans-43" d="M 4122 4306 
L 4122 3641 
Q 3803 3938 3442 4084 
Q 3081 4231 2675 4231 
Q 1875 4231 1450 3742 
Q 1025 3253 1025 2328 
Q 1025 1406 1450 917 
Q 1875 428 2675 428 
Q 3081 428 3442 575 
Q 3803 722 4122 1019 
L 4122 359 
Q 3791 134 3420 21 
Q 3050 -91 2638 -91 
Q 1578 -91 968 557 
Q 359 1206 359 2328 
Q 359 3453 968 4101 
Q 1578 4750 2638 4750 
Q 3056 4750 3426 4639 
Q 3797 4528 4122 4306 
z
" transform="scale(0.015625)"/>
           </defs>
           <use xlink:href="#DejaVuSans-53"/>
           <use xlink:href="#DejaVuSans-52" x="63.476562"/>
           <use xlink:href="#DejaVuSans-43" x="127.958984"/>
          </g>
         </g>
        </g>
        <g id="xtick_3">
         <g id="line2d_3"/>
         <g id="text_3">
          <!-- TAR -->
          <g transform="translate(435.530651 332.720312) scale(0.1 -0.1)">
           <defs>
            <path id="DejaVuSans-41" d="M 2188 4044 
L 1331 1722 
L 3047 1722 
L 2188 4044 
z
M 1831 4666 
L 2547 4666 
L 4325 0 
L 3669 0 
L 3244 1197 
L 1141 1197 
L 716 0 
L 50 0 
L 1831 4666 
z
" transform="scale(0.015625)"/>
           </defs>
           <use xlink:href="#DejaVuSans-54"/>
           <use xlink:href="#DejaVuSans-41" x="53.333984"/>
           <use xlink:href="#DejaVuSans-52" x="121.742188"/>
          </g>
         </g>
        </g>
       </g>
       <g id="matplotlib.axis_2">
        <g id="ytick_1">
         <g id="line2d_4">
          <defs>
           <path id="m484024d804" d="M 0 0 
L -3.5 0 
" style="stroke: #000000; stroke-width: 0.8"/>
          </defs>
          <g>
           <use xlink:href="#m484024d804" x="63.290625" y="321.621875" style="stroke: #000000; stroke-width: 0.8"/>
          </g>
         </g>
         <g id="text_4">
          <!-- 0 -->
          <g transform="translate(49.928125 325.421094) scale(0.1 -0.1)">
           <defs>
            <path id="DejaVuSans-30" d="M 2034 4250 
Q 1547 4250 1301 3770 
Q 1056 3291 1056 2328 
Q 1056 1369 1301 889 
Q 1547 409 2034 409 
Q 2525 409 2770 889 
Q 3016 1369 3016 2328 
Q 3016 3291 2770 3770 
Q 2525 4250 2034 4250 
z
M 2034 4750 
Q 2819 4750 3233 4129 
Q 3647 3509 3647 2328 
Q 3647 1150 3233 529 
Q 2819 -91 2034 -91 
Q 1250 -91 836 529 
Q 422 1150 422 2328 
Q 422 3509 836 4129 
Q 1250 4750 2034 4750 
z
" transform="scale(0.015625)"/>
           </defs>
           <use xlink:href="#DejaVuSans-30"/>
          </g>
         </g>
        </g>
        <g id="ytick_2">
         <g id="line2d_5">
          <g>
           <use xlink:href="#m484024d804" x="63.290625" y="268.426278" style="stroke: #000000; stroke-width: 0.8"/>
          </g>
         </g>
         <g id="text_5">
          <!-- 5000 -->
          <g transform="translate(30.840625 272.225496) scale(0.1 -0.1)">
           <defs>
            <path id="DejaVuSans-35" d="M 691 4666 
L 3169 4666 
L 3169 4134 
L 1269 4134 
L 1269 2991 
Q 1406 3038 1543 3061 
Q 1681 3084 1819 3084 
Q 2600 3084 3056 2656 
Q 3513 2228 3513 1497 
Q 3513 744 3044 326 
Q 2575 -91 1722 -91 
Q 1428 -91 1123 -41 
Q 819 9 494 109 
L 494 744 
Q 775 591 1075 516 
Q 1375 441 1709 441 
Q 2250 441 2565 725 
Q 2881 1009 2881 1497 
Q 2881 1984 2565 2268 
Q 2250 2553 1709 2553 
Q 1456 2553 1204 2497 
Q 953 2441 691 2322 
L 691 4666 
z
" transform="scale(0.015625)"/>
           </defs>
           <use xlink:href="#DejaVuSans-35"/>
           <use xlink:href="#DejaVuSans-30" x="63.623047"/>
           <use xlink:href="#DejaVuSans-30" x="127.246094"/>
           <use xlink:href="#DejaVuSans-30" x="190.869141"/>
          </g>
         </g>
        </g>
        <g id="ytick_3">
         <g id="line2d_6">
          <g>
           <use xlink:href="#m484024d804" x="63.290625" y="215.23068" style="stroke: #000000; stroke-width: 0.8"/>
          </g>
         </g>
         <g id="text_6">
          <!-- 10000 -->
          <g transform="translate(24.478125 219.029899) scale(0.1 -0.1)">
           <defs>
            <path id="DejaVuSans-31" d="M 794 531 
L 1825 531 
L 1825 4091 
L 703 3866 
L 703 4441 
L 1819 4666 
L 2450 4666 
L 2450 531 
L 3481 531 
L 3481 0 
L 794 0 
L 794 531 
z
" transform="scale(0.015625)"/>
           </defs>
           <use xlink:href="#DejaVuSans-31"/>
           <use xlink:href="#DejaVuSans-30" x="63.623047"/>
           <use xlink:href="#DejaVuSans-30" x="127.246094"/>
           <use xlink:href="#DejaVuSans-30" x="190.869141"/>
           <use xlink:href="#DejaVuSans-30" x="254.492188"/>
          </g>
         </g>
        </g>
        <g id="ytick_4">
         <g id="line2d_7">
          <g>
           <use xlink:href="#m484024d804" x="63.290625" y="162.035083" style="stroke: #000000; stroke-width: 0.8"/>
          </g>
         </g>
         <g id="text_7">
          <!-- 15000 -->
          <g transform="translate(24.478125 165.834302) scale(0.1 -0.1)">
           <use xlink:href="#DejaVuSans-31"/>
           <use xlink:href="#DejaVuSans-35" x="63.623047"/>
           <use xlink:href="#DejaVuSans-30" x="127.246094"/>
           <use xlink:href="#DejaVuSans-30" x="190.869141"/>
           <use xlink:href="#DejaVuSans-30" x="254.492188"/>
          </g>
         </g>
        </g>
        <g id="ytick_5">
         <g id="line2d_8">
          <g>
           <use xlink:href="#m484024d804" x="63.290625" y="108.839486" style="stroke: #000000; stroke-width: 0.8"/>
          </g>
         </g>
         <g id="text_8">
          <!-- 20000 -->
          <g transform="translate(24.478125 112.638705) scale(0.1 -0.1)">
           <defs>
            <path id="DejaVuSans-32" d="M 1228 531 
L 3431 531 
L 3431 0 
L 469 0 
L 469 531 
Q 828 903 1448 1529 
Q 2069 2156 2228 2338 
Q 2531 2678 2651 2914 
Q 2772 3150 2772 3378 
Q 2772 3750 2511 3984 
Q 2250 4219 1831 4219 
Q 1534 4219 1204 4116 
Q 875 4013 500 3803 
L 500 4441 
Q 881 4594 1212 4672 
Q 1544 4750 1819 4750 
Q 2544 4750 2975 4387 
Q 3406 4025 3406 3419 
Q 3406 3131 3298 2873 
Q 3191 2616 2906 2266 
Q 2828 2175 2409 1742 
Q 1991 1309 1228 531 
z
" transform="scale(0.015625)"/>
           </defs>
           <use xlink:href="#DejaVuSans-32"/>
           <use xlink:href="#DejaVuSans-30" x="63.623047"/>
           <use xlink:href="#DejaVuSans-30" x="127.246094"/>
           <use xlink:href="#DejaVuSans-30" x="190.869141"/>
           <use xlink:href="#DejaVuSans-30" x="254.492188"/>
          </g>
         </g>
        </g>
        <g id="ytick_6">
         <g id="line2d_9">
          <g>
           <use xlink:href="#m484024d804" x="63.290625" y="55.643889" style="stroke: #000000; stroke-width: 0.8"/>
          </g>
         </g>
         <g id="text_9">
          <!-- 25000 -->
          <g transform="translate(24.478125 59.443107) scale(0.1 -0.1)">
           <use xlink:href="#DejaVuSans-32"/>
           <use xlink:href="#DejaVuSans-35" x="63.623047"/>
           <use xlink:href="#DejaVuSans-30" x="127.246094"/>
           <use xlink:href="#DejaVuSans-30" x="190.869141"/>
           <use xlink:href="#DejaVuSans-30" x="254.492188"/>
          </g>
         </g>
        </g>
        <g id="text_10">
         <!-- time ago (generations) -->
         <g transform="translate(18.398438 223.682031) rotate(-90) scale(0.1 -0.1)">
          <defs>
           <path id="DejaVuSans-74" d="M 1172 4494 
L 1172 3500 
L 2356 3500 
L 2356 3053 
L 1172 3053 
L 1172 1153 
Q 1172 725 1289 603 
Q 1406 481 1766 481 
L 2356 481 
L 2356 0 
L 1766 0 
Q 1100 0 847 248 
Q 594 497 594 1153 
L 594 3053 
L 172 3053 
L 172 3500 
L 594 3500 
L 594 4494 
L 1172 4494 
z
" transform="scale(0.015625)"/>
           <path id="DejaVuSans-69" d="M 603 3500 
L 1178 3500 
L 1178 0 
L 603 0 
L 603 3500 
z
M 603 4863 
L 1178 4863 
L 1178 4134 
L 603 4134 
L 603 4863 
z
" transform="scale(0.015625)"/>
           <path id="DejaVuSans-6d" d="M 3328 2828 
Q 3544 3216 3844 3400 
Q 4144 3584 4550 3584 
Q 5097 3584 5394 3201 
Q 5691 2819 5691 2113 
L 5691 0 
L 5113 0 
L 5113 2094 
Q 5113 2597 4934 2840 
Q 4756 3084 4391 3084 
Q 3944 3084 3684 2787 
Q 3425 2491 3425 1978 
L 3425 0 
L 2847 0 
L 2847 2094 
Q 2847 2600 2669 2842 
Q 2491 3084 2119 3084 
Q 1678 3084 1418 2786 
Q 1159 2488 1159 1978 
L 1159 0 
L 581 0 
L 581 3500 
L 1159 3500 
L 1159 2956 
Q 1356 3278 1631 3431 
Q 1906 3584 2284 3584 
Q 2666 3584 2933 3390 
Q 3200 3197 3328 2828 
z
" transform="scale(0.015625)"/>
           <path id="DejaVuSans-65" d="M 3597 1894 
L 3597 1613 
L 953 1613 
Q 991 1019 1311 708 
Q 1631 397 2203 397 
Q 2534 397 2845 478 
Q 3156 559 3463 722 
L 3463 178 
Q 3153 47 2828 -22 
Q 2503 -91 2169 -91 
Q 1331 -91 842 396 
Q 353 884 353 1716 
Q 353 2575 817 3079 
Q 1281 3584 2069 3584 
Q 2775 3584 3186 3129 
Q 3597 2675 3597 1894 
z
M 3022 2063 
Q 3016 2534 2758 2815 
Q 2500 3097 2075 3097 
Q 1594 3097 1305 2825 
Q 1016 2553 972 2059 
L 3022 2063 
z
" transform="scale(0.015625)"/>
           <path id="DejaVuSans-20" transform="scale(0.015625)"/>
           <path id="DejaVuSans-61" d="M 2194 1759 
Q 1497 1759 1228 1600 
Q 959 1441 959 1056 
Q 959 750 1161 570 
Q 1363 391 1709 391 
Q 2188 391 2477 730 
Q 2766 1069 2766 1631 
L 2766 1759 
L 2194 1759 
z
M 3341 1997 
L 3341 0 
L 2766 0 
L 2766 531 
Q 2569 213 2275 61 
Q 1981 -91 1556 -91 
Q 1019 -91 701 211 
Q 384 513 384 1019 
Q 384 1609 779 1909 
Q 1175 2209 1959 2209 
L 2766 2209 
L 2766 2266 
Q 2766 2663 2505 2880 
Q 2244 3097 1772 3097 
Q 1472 3097 1187 3025 
Q 903 2953 641 2809 
L 641 3341 
Q 956 3463 1253 3523 
Q 1550 3584 1831 3584 
Q 2591 3584 2966 3190 
Q 3341 2797 3341 1997 
z
" transform="scale(0.015625)"/>
           <path id="DejaVuSans-67" d="M 2906 1791 
Q 2906 2416 2648 2759 
Q 2391 3103 1925 3103 
Q 1463 3103 1205 2759 
Q 947 2416 947 1791 
Q 947 1169 1205 825 
Q 1463 481 1925 481 
Q 2391 481 2648 825 
Q 2906 1169 2906 1791 
z
M 3481 434 
Q 3481 -459 3084 -895 
Q 2688 -1331 1869 -1331 
Q 1566 -1331 1297 -1286 
Q 1028 -1241 775 -1147 
L 775 -588 
Q 1028 -725 1275 -790 
Q 1522 -856 1778 -856 
Q 2344 -856 2625 -561 
Q 2906 -266 2906 331 
L 2906 616 
Q 2728 306 2450 153 
Q 2172 0 1784 0 
Q 1141 0 747 490 
Q 353 981 353 1791 
Q 353 2603 747 3093 
Q 1141 3584 1784 3584 
Q 2172 3584 2450 3431 
Q 2728 3278 2906 2969 
L 2906 3500 
L 3481 3500 
L 3481 434 
z
" transform="scale(0.015625)"/>
           <path id="DejaVuSans-6f" d="M 1959 3097 
Q 1497 3097 1228 2736 
Q 959 2375 959 1747 
Q 959 1119 1226 758 
Q 1494 397 1959 397 
Q 2419 397 2687 759 
Q 2956 1122 2956 1747 
Q 2956 2369 2687 2733 
Q 2419 3097 1959 3097 
z
M 1959 3584 
Q 2709 3584 3137 3096 
Q 3566 2609 3566 1747 
Q 3566 888 3137 398 
Q 2709 -91 1959 -91 
Q 1206 -91 779 398 
Q 353 888 353 1747 
Q 353 2609 779 3096 
Q 1206 3584 1959 3584 
z
" transform="scale(0.015625)"/>
           <path id="DejaVuSans-28" d="M 1984 4856 
Q 1566 4138 1362 3434 
Q 1159 2731 1159 2009 
Q 1159 1288 1364 580 
Q 1569 -128 1984 -844 
L 1484 -844 
Q 1016 -109 783 600 
Q 550 1309 550 2009 
Q 550 2706 781 3412 
Q 1013 4119 1484 4856 
L 1984 4856 
z
" transform="scale(0.015625)"/>
           <path id="DejaVuSans-6e" d="M 3513 2113 
L 3513 0 
L 2938 0 
L 2938 2094 
Q 2938 2591 2744 2837 
Q 2550 3084 2163 3084 
Q 1697 3084 1428 2787 
Q 1159 2491 1159 1978 
L 1159 0 
L 581 0 
L 581 3500 
L 1159 3500 
L 1159 2956 
Q 1366 3272 1645 3428 
Q 1925 3584 2291 3584 
Q 2894 3584 3203 3211 
Q 3513 2838 3513 2113 
z
" transform="scale(0.015625)"/>
           <path id="DejaVuSans-72" d="M 2631 2963 
Q 2534 3019 2420 3045 
Q 2306 3072 2169 3072 
Q 1681 3072 1420 2755 
Q 1159 2438 1159 1844 
L 1159 0 
L 581 0 
L 581 3500 
L 1159 3500 
L 1159 2956 
Q 1341 3275 1631 3429 
Q 1922 3584 2338 3584 
Q 2397 3584 2469 3576 
Q 2541 3569 2628 3553 
L 2631 2963 
z
" transform="scale(0.015625)"/>
           <path id="DejaVuSans-73" d="M 2834 3397 
L 2834 2853 
Q 2591 2978 2328 3040 
Q 2066 3103 1784 3103 
Q 1356 3103 1142 2972 
Q 928 2841 928 2578 
Q 928 2378 1081 2264 
Q 1234 2150 1697 2047 
L 1894 2003 
Q 2506 1872 2764 1633 
Q 3022 1394 3022 966 
Q 3022 478 2636 193 
Q 2250 -91 1575 -91 
Q 1294 -91 989 -36 
Q 684 19 347 128 
L 347 722 
Q 666 556 975 473 
Q 1284 391 1588 391 
Q 1994 391 2212 530 
Q 2431 669 2431 922 
Q 2431 1156 2273 1281 
Q 2116 1406 1581 1522 
L 1381 1569 
Q 847 1681 609 1914 
Q 372 2147 372 2553 
Q 372 3047 722 3315 
Q 1072 3584 1716 3584 
Q 2034 3584 2315 3537 
Q 2597 3491 2834 3397 
z
" transform="scale(0.015625)"/>
           <path id="DejaVuSans-29" d="M 513 4856 
L 1013 4856 
Q 1481 4119 1714 3412 
Q 1947 2706 1947 2009 
Q 1947 1309 1714 600 
Q 1481 -109 1013 -844 
L 513 -844 
Q 928 -128 1133 580 
Q 1338 1288 1338 2009 
Q 1338 2731 1133 3434 
Q 928 4138 513 4856 
z
" transform="scale(0.015625)"/>
          </defs>
          <use xlink:href="#DejaVuSans-74"/>
          <use xlink:href="#DejaVuSans-69" x="39.208984"/>
          <use xlink:href="#DejaVuSans-6d" x="66.992188"/>
          <use xlink:href="#DejaVuSans-65" x="164.404297"/>
          <use xlink:href="#DejaVuSans-20" x="225.927734"/>
          <use xlink:href="#DejaVuSans-61" x="257.714844"/>
          <use xlink:href="#DejaVuSans-67" x="318.994141"/>
          <use xlink:href="#DejaVuSans-6f" x="382.470703"/>
          <use xlink:href="#DejaVuSans-20" x="443.652344"/>
          <use xlink:href="#DejaVuSans-28" x="475.439453"/>
          <use xlink:href="#DejaVuSans-67" x="514.453125"/>
          <use xlink:href="#DejaVuSans-65" x="577.929688"/>
          <use xlink:href="#DejaVuSans-6e" x="639.453125"/>
          <use xlink:href="#DejaVuSans-65" x="702.832031"/>
          <use xlink:href="#DejaVuSans-72" x="764.355469"/>
          <use xlink:href="#DejaVuSans-61" x="805.46875"/>
          <use xlink:href="#DejaVuSans-74" x="866.748047"/>
          <use xlink:href="#DejaVuSans-69" x="905.957031"/>
          <use xlink:href="#DejaVuSans-6f" x="933.740234"/>
          <use xlink:href="#DejaVuSans-6e" x="994.921875"/>
          <use xlink:href="#DejaVuSans-73" x="1058.300781"/>
          <use xlink:href="#DejaVuSans-29" x="1110.400391"/>
         </g>
        </g>
       </g>
       <g id="patch_7">
        <path d="M 305.659006 212.20917 
L 304.659006 212.177734 
L 303.659006 212.140794 
L 302.659006 212.043047 
L 301.659006 212.010526 
L 300.659006 211.936901 
L 299.659006 211.898335 
L 298.659006 211.862922 
L 297.659006 211.805282 
L 296.659006 211.734896 
L 295.659006 211.682932 
L 294.659006 211.623842 
L 293.659006 211.535521 
L 292.659006 211.489377 
L 291.659006 211.446966 
L 290.659006 211.416473 
L 289.659006 211.390428 
L 288.659006 211.369228 
L 287.659006 211.314927 
L 286.659006 211.286989 
L 285.659006 211.257265 
L 284.659006 211.231871 
L 283.659006 211.22067 
L 282.659006 211.210546 
L 281.659006 211.210751 
L 280.659006 211.220261 
L 279.659006 211.231914 
L 278.659006 211.262943 
L 277.659006 211.274111 
L 276.659006 211.304229 
L 275.659006 211.364006 
L 274.659006 211.401197 
L 273.659006 211.440293 
L 272.659006 211.482733 
L 271.659006 211.515498 
L 270.659006 211.582925 
L 269.659006 211.622051 
L 268.659006 211.664725 
L 267.659006 211.735306 
L 266.659006 211.771697 
L 265.659006 211.8301 
L 264.659006 211.941052 
L 263.659006 212.011711 
L 262.659006 212.12465 
L 261.659006 212.170423 
L 260.659006 212.231707 
L 259.659006 212.280206 
L 258.659006 212.361029 
L 257.659006 212.479547 
L 256.659006 212.549758 
L 255.659006 212.633021 
L 254.659006 212.666162 
L 253.659006 212.7174 
L 252.659006 212.785798 
L 251.659006 212.852013 
L 250.659006 212.928931 
L 249.659006 212.956246 
L 248.659006 212.982724 
L 247.659006 213.005374 
L 246.659006 213.024905 
L 245.659006 213.051299 
L 244.659006 213.10107 
L 243.659006 213.136143 
L 242.659006 213.172009 
L 241.659006 213.187376 
L 240.659006 213.203146 
L 239.659006 213.206558 
L 238.659006 213.208976 
L 237.659006 213.20849 
L 236.659006 213.20656 
L 235.659006 213.193303 
L 234.659006 213.184913 
L 233.659006 213.163376 
L 232.659006 213.140344 
L 231.659006 213.12311 
L 230.659006 213.104648 
L 229.659006 213.084195 
L 228.659006 213.067595 
L 227.659006 213.004817 
L 226.659006 212.929552 
L 225.659006 212.896912 
L 224.659006 212.829349 
L 223.659006 212.775302 
L 222.659006 212.741597 
L 221.659006 212.651471 
L 220.659006 212.622936 
L 219.659006 212.59145 
L 218.659006 212.56044 
L 217.659006 212.505632 
L 216.659006 212.441044 
L 215.659006 212.402849 
L 214.659006 212.306915 
L 213.659006 212.257657 
L 212.659006 212.213587 
L 211.659006 212.173463 
L 210.659006 212.065096 
L 209.659006 212.023468 
L 208.659006 211.961327 
L 207.659006 211.891365 
L 206.659006 211.78686 
L 205.659006 211.749873 
L 204.659006 211.703995 
L 203.659006 211.635501 
L 202.659006 211.586755 
L 201.659006 211.509157 
L 200.659006 211.478617 
L 199.659006 211.409102 
L 198.659006 211.385129 
L 197.659006 211.356508 
L 196.659006 211.314715 
L 195.659006 211.293139 
L 194.659006 211.279191 
L 193.659006 211.252468 
L 192.659006 211.243158 
L 191.659006 211.230712 
L 190.659006 211.219657 
L 189.659006 211.213992 
L 188.659006 211.209229 
L 187.659006 211.214776 
L 186.659006 211.228064 
L 185.659006 211.235582 
L 184.659006 211.260367 
L 183.659006 211.283935 
L 182.659006 211.320116 
L 181.659006 211.346078 
L 180.659006 211.368399 
L 179.659006 211.437159 
L 178.659006 211.511694 
L 177.659006 211.605674 
L 176.659006 211.656726 
L 175.659006 211.710659 
L 174.659006 211.74591 
L 173.659006 211.851998 
L 172.659006 211.904262 
L 171.659006 211.941169 
L 170.659006 211.9722 
L 169.659006 212.033356 
L 168.659006 212.100776 
L 167.659006 212.149681 
L 166.659006 212.214874 
L 165.659006 212.253061 
L 164.659006 212.295057 
L 163.659006 212.337074 
L 162.659006 212.396591 
L 161.659006 212.509751 
L 160.659006 212.562001 
L 159.659006 212.601419 
L 158.659006 212.648521 
L 157.659006 212.7053 
L 156.659006 212.737963 
L 155.659006 212.774141 
L 154.659006 212.806232 
L 153.659006 212.840511 
L 152.659006 212.898889 
L 151.659006 212.944074 
L 150.659006 212.973698 
L 149.659006 213.024084 
L 148.659006 213.049282 
L 147.659006 213.070333 
L 146.659006 213.105301 
L 145.659006 213.12959 
L 144.659006 213.143657 
L 143.659006 213.162599 
L 142.659006 213.178261 
L 141.659006 213.190813 
L 140.659006 213.196648 
L 139.659006 213.203531 
L 138.659006 213.208704 
L 137.659006 213.206922 
L 136.659006 213.204196 
L 135.659006 213.193043 
L 134.659006 213.164807 
L 133.659006 213.12102 
L 132.659006 213.10033 
L 131.659006 213.059357 
L 130.659006 213.019282 
L 129.659006 213.000172 
L 128.659006 212.977664 
L 127.659006 212.911012 
L 126.659006 212.861303 
L 125.659006 212.787596 
L 124.659006 212.756282 
L 123.659006 212.67966 
L 122.659006 212.641362 
L 121.656935 212.567246 
" clip-path="url(#pa591bdfe59)" style="fill: none; stroke: #ffffff; stroke-width: 3; stroke-linecap: round"/>
        <path d="M 305.659006 212.20917 
L 304.659006 212.177734 
L 303.659006 212.140794 
L 302.659006 212.043047 
L 301.659006 212.010526 
L 300.659006 211.936901 
L 299.659006 211.898335 
L 298.659006 211.862922 
L 297.659006 211.805282 
L 296.659006 211.734896 
L 295.659006 211.682932 
L 294.659006 211.623842 
L 293.659006 211.535521 
L 292.659006 211.489377 
L 291.659006 211.446966 
L 290.659006 211.416473 
L 289.659006 211.390428 
L 288.659006 211.369228 
L 287.659006 211.314927 
L 286.659006 211.286989 
L 285.659006 211.257265 
L 284.659006 211.231871 
L 283.659006 211.22067 
L 282.659006 211.210546 
L 281.659006 211.210751 
L 280.659006 211.220261 
L 279.659006 211.231914 
L 278.659006 211.262943 
L 277.659006 211.274111 
L 276.659006 211.304229 
L 275.659006 211.364006 
L 274.659006 211.401197 
L 273.659006 211.440293 
L 272.659006 211.482733 
L 271.659006 211.515498 
L 270.659006 211.582925 
L 269.659006 211.622051 
L 268.659006 211.664725 
L 267.659006 211.735306 
L 266.659006 211.771697 
L 265.659006 211.8301 
L 264.659006 211.941052 
L 263.659006 212.011711 
L 262.659006 212.12465 
L 261.659006 212.170423 
L 260.659006 212.231707 
L 259.659006 212.280206 
L 258.659006 212.361029 
L 257.659006 212.479547 
L 256.659006 212.549758 
L 255.659006 212.633021 
L 254.659006 212.666162 
L 253.659006 212.7174 
L 252.659006 212.785798 
L 251.659006 212.852013 
L 250.659006 212.928931 
L 249.659006 212.956246 
L 248.659006 212.982724 
L 247.659006 213.005374 
L 246.659006 213.024905 
L 245.659006 213.051299 
L 244.659006 213.10107 
L 243.659006 213.136143 
L 242.659006 213.172009 
L 241.659006 213.187376 
L 240.659006 213.203146 
L 239.659006 213.206558 
L 238.659006 213.208976 
L 237.659006 213.20849 
L 236.659006 213.20656 
L 235.659006 213.193303 
L 234.659006 213.184913 
L 233.659006 213.163376 
L 232.659006 213.140344 
L 231.659006 213.12311 
L 230.659006 213.104648 
L 229.659006 213.084195 
L 228.659006 213.067595 
L 227.659006 213.004817 
L 226.659006 212.929552 
L 225.659006 212.896912 
L 224.659006 212.829349 
L 223.659006 212.775302 
L 222.659006 212.741597 
L 221.659006 212.651471 
L 220.659006 212.622936 
L 219.659006 212.59145 
L 218.659006 212.56044 
L 217.659006 212.505632 
L 216.659006 212.441044 
L 215.659006 212.402849 
L 214.659006 212.306915 
L 213.659006 212.257657 
L 212.659006 212.213587 
L 211.659006 212.173463 
L 210.659006 212.065096 
L 209.659006 212.023468 
L 208.659006 211.961327 
L 207.659006 211.891365 
L 206.659006 211.78686 
L 205.659006 211.749873 
L 204.659006 211.703995 
L 203.659006 211.635501 
L 202.659006 211.586755 
L 201.659006 211.509157 
L 200.659006 211.478617 
L 199.659006 211.409102 
L 198.659006 211.385129 
L 197.659006 211.356508 
L 196.659006 211.314715 
L 195.659006 211.293139 
L 194.659006 211.279191 
L 193.659006 211.252468 
L 192.659006 211.243158 
L 191.659006 211.230712 
L 190.659006 211.219657 
L 189.659006 211.213992 
L 188.659006 211.209229 
L 187.659006 211.214776 
L 186.659006 211.228064 
L 185.659006 211.235582 
L 184.659006 211.260367 
L 183.659006 211.283935 
L 182.659006 211.320116 
L 181.659006 211.346078 
L 180.659006 211.368399 
L 179.659006 211.437159 
L 178.659006 211.511694 
L 177.659006 211.605674 
L 176.659006 211.656726 
L 175.659006 211.710659 
L 174.659006 211.74591 
L 173.659006 211.851998 
L 172.659006 211.904262 
L 171.659006 211.941169 
L 170.659006 211.9722 
L 169.659006 212.033356 
L 168.659006 212.100776 
L 167.659006 212.149681 
L 166.659006 212.214874 
L 165.659006 212.253061 
L 164.659006 212.295057 
L 163.659006 212.337074 
L 162.659006 212.396591 
L 161.659006 212.509751 
L 160.659006 212.562001 
L 159.659006 212.601419 
L 158.659006 212.648521 
L 157.659006 212.7053 
L 156.659006 212.737963 
L 155.659006 212.774141 
L 154.659006 212.806232 
L 153.659006 212.840511 
L 152.659006 212.898889 
L 151.659006 212.944074 
L 150.659006 212.973698 
L 149.659006 213.024084 
L 148.659006 213.049282 
L 147.659006 213.070333 
L 146.659006 213.105301 
L 145.659006 213.12959 
L 144.659006 213.143657 
L 143.659006 213.162599 
L 142.659006 213.178261 
L 141.659006 213.190813 
L 140.659006 213.196648 
L 139.659006 213.203531 
L 138.659006 213.208704 
L 137.659006 213.206922 
L 136.659006 213.204196 
L 135.659006 213.193043 
L 134.659006 213.164807 
L 133.659006 213.12102 
L 132.659006 213.10033 
L 131.659006 213.059357 
L 130.659006 213.019282 
L 129.659006 213.000172 
L 128.659006 212.977664 
L 127.659006 212.911012 
L 126.659006 212.861303 
L 125.659006 212.787596 
L 124.659006 212.756282 
L 123.659006 212.67966 
L 122.659006 212.641362 
L 121.656935 212.567246 
" clip-path="url(#pa591bdfe59)" style="fill: none; stroke: #1f77b4; stroke-linecap: round"/>
        <path d="M 125.656935 214.20917 
L 124.776567 213.733839 
L 123.89866 213.253585 
L 123.047946 212.718944 
L 121.745772 212.031497 
L 122.673125 212.005482 
L 123.584799 211.592763 
L 124.495064 211.177224 
L 125.83756 210.570419 
L 125.182661 211.20917 
L 125.130697 212.20917 
L 125.071607 214.20917 
z
" clip-path="url(#pa591bdfe59)" style="fill: #ffffff; stroke: #ffffff; stroke-width: 3; stroke-linecap: round"/>
        <path d="M 125.656935 214.20917 
L 124.776567 213.733839 
L 123.89866 213.253585 
L 123.047946 212.718944 
L 121.745772 212.031497 
L 122.673125 212.005482 
L 123.584799 211.592763 
L 124.495064 211.177224 
L 125.83756 210.570419 
L 125.182661 211.20917 
L 125.130697 212.20917 
L 125.071607 214.20917 
z
" clip-path="url(#pa591bdfe59)" style="fill: #ffffff; stroke: #1f77b4; stroke-linecap: round"/>
        <g id="patch_8">
         <path d="M 321.931644 72.964375 
L 322.931644 72.995811 
L 323.931644 73.032752 
L 324.931644 73.130498 
L 325.931644 73.16302 
L 326.931644 73.236645 
L 327.931644 73.27521 
L 328.931644 73.310623 
L 329.931644 73.368263 
L 330.931644 73.438649 
L 331.931644 73.490614 
L 332.931644 73.549703 
L 333.931644 73.638024 
L 334.931644 73.684169 
L 335.931644 73.72658 
L 336.931644 73.757072 
L 337.931644 73.783117 
L 338.931644 73.804317 
L 339.931644 73.858618 
L 340.931644 73.886556 
L 341.931644 73.91628 
L 342.931644 73.941675 
L 343.931644 73.952875 
L 344.931644 73.962999 
L 345.931644 73.962795 
L 346.931644 73.953285 
L 347.931644 73.941631 
L 348.931644 73.910602 
L 349.931644 73.899434 
L 350.931644 73.869317 
L 351.931644 73.80954 
L 352.931644 73.772348 
L 353.931644 73.733252 
L 354.931644 73.690812 
L 355.931644 73.658047 
L 356.931644 73.590621 
L 357.931644 73.551495 
L 358.931644 73.50882 
L 359.931644 73.43824 
L 360.931644 73.401849 
L 361.931644 73.343446 
L 362.931644 73.232493 
L 363.931644 73.161835 
L 364.931644 73.048895 
L 365.931644 73.003122 
L 366.931644 72.941839 
L 367.931644 72.89334 
L 368.931644 72.812517 
L 369.931644 72.693998 
L 370.931644 72.623787 
L 371.931644 72.540525 
L 372.931644 72.507383 
L 373.931644 72.456146 
L 374.931644 72.387747 
L 375.931644 72.321532 
L 376.931644 72.244615 
L 377.931644 72.217299 
L 378.931644 72.190822 
L 379.931644 72.168171 
L 380.931644 72.14864 
L 381.931644 72.122246 
L 382.931644 72.072475 
L 383.931644 72.037402 
L 384.931644 72.001536 
L 385.931644 71.986169 
L 386.931644 71.9704 
L 387.931644 71.966987 
L 388.931644 71.96457 
L 389.931644 71.965056 
L 390.931644 71.966985 
L 391.931644 71.980242 
L 392.931644 71.988633 
L 393.931644 72.010169 
L 394.931644 72.033202 
L 395.931644 72.050435 
L 396.931644 72.068898 
L 397.931644 72.08935 
L 398.931644 72.10595 
L 399.931644 72.168729 
L 400.931644 72.243994 
L 401.931644 72.276633 
L 402.931644 72.344197 
L 403.931644 72.398244 
L 404.931644 72.431948 
L 405.931644 72.522074 
L 406.931644 72.550609 
L 407.931644 72.582095 
L 408.931644 72.613106 
L 409.931644 72.667914 
L 410.931644 72.732501 
L 411.931644 72.770697 
L 412.931644 72.866631 
L 413.931644 72.915889 
L 414.931644 72.959958 
L 415.931644 73.000082 
L 416.931644 73.108449 
L 417.931644 73.150077 
L 418.931644 73.212219 
L 419.931644 73.282181 
L 420.931644 73.386685 
L 421.931644 73.423673 
L 422.931644 73.46955 
L 423.931644 73.538045 
L 424.931644 73.586791 
L 425.931644 73.664388 
L 426.931644 73.694929 
L 427.931644 73.764443 
L 428.931644 73.788416 
L 429.931644 73.817038 
L 430.931644 73.858831 
L 431.931644 73.880407 
L 432.931644 73.894355 
L 433.931644 73.921077 
L 434.931644 73.930387 
L 435.931644 73.942834 
L 436.931644 73.953889 
L 437.931644 73.959553 
L 438.931644 73.964317 
L 439.931644 73.958769 
L 440.931644 73.945481 
L 441.931644 73.937964 
L 442.931644 73.913179 
L 443.931644 73.88961 
L 444.931644 73.85343 
L 445.931644 73.827468 
L 446.931644 73.805146 
L 447.931644 73.736386 
L 448.931644 73.661851 
L 449.931644 73.567872 
L 450.931644 73.51682 
L 451.931644 73.462886 
L 452.931644 73.427635 
L 453.931644 73.321547 
L 454.931644 73.269283 
L 455.931644 73.232376 
L 456.931644 73.201345 
L 457.931644 73.14019 
L 458.931644 73.07277 
L 459.931644 73.023864 
L 460.931644 72.958672 
L 461.931644 72.920484 
L 462.931644 72.878488 
L 463.931644 72.836471 
L 464.931644 72.776955 
L 465.931644 72.663795 
L 466.931644 72.611544 
L 467.931644 72.572126 
L 468.931644 72.525025 
L 469.931644 72.468245 
L 470.931644 72.435582 
L 471.931644 72.399404 
L 472.931644 72.367314 
L 473.931644 72.333034 
L 474.931644 72.274656 
L 475.931644 72.229471 
L 476.931644 72.199847 
L 477.931644 72.149461 
L 478.931644 72.124264 
L 479.931644 72.103213 
L 480.931644 72.068245 
L 481.931644 72.043955 
L 482.931644 72.029888 
L 483.931644 72.010946 
L 484.931644 71.995285 
L 485.931644 71.982733 
L 486.931644 71.976897 
L 487.931644 71.970015 
L 488.931644 71.964841 
L 489.931644 71.966624 
L 490.931644 71.969349 
L 491.931644 71.980503 
L 492.931644 72.008738 
L 493.931644 72.052526 
L 494.931644 72.073215 
L 495.931644 72.114188 
L 496.931644 72.154263 
L 497.931644 72.173373 
L 498.931644 72.195882 
L 499.931644 72.262533 
L 500.931644 72.312243 
L 501.931644 72.385949 
L 502.931644 72.417263 
L 503.931644 72.493885 
L 504.931644 72.532183 
L 505.931644 72.6063 
L 506.931644 72.710358 
L 507.931644 72.780189 
L 508.931644 72.885423 
L 509.931644 72.940438 
L 510.931644 73.063913 
L 511.931644 73.134472 
L 512.931644 73.250311 
L 513.931644 73.300492 
L 514.931644 73.336096 
L 515.931644 73.427503 
L 516.931644 73.481011 
L 517.931644 73.568919 
L 518.931644 73.638104 
L 519.931644 73.684868 
L 520.931644 73.756912 
L 521.931644 73.807054 
L 522.931644 73.824444 
L 523.931644 73.851447 
L 524.931644 73.870874 
L 525.931644 73.890212 
L 526.931644 73.928461 
L 527.931644 73.944894 
L 528.931644 73.953263 
L 529.931644 73.957582 
L 530.931644 73.964137 
L 531.931644 73.961591 
L 532.931644 73.956132 
L 533.931644 73.939704 
L 534.931644 73.907769 
L 535.931644 73.869789 
L 536.931644 73.834985 
L 537.931644 73.771913 
L 538.931644 73.750486 
L 539.931644 73.699868 
L 540.931644 73.674911 
L 541.931644 73.619277 
L 542.931644 73.588048 
L 543.931644 73.537904 
L 544.931644 73.505411 
L 545.931644 73.424999 
L 546.931644 73.356073 
L 547.931644 73.240376 
L 548.931644 73.164897 
L 549.931644 73.049372 
L 550.931644 72.969888 
L 551.931644 72.861447 
L 552.931644 72.822079 
L 553.931644 72.719211 
L 554.931644 72.619413 
L 555.931644 72.573916 
L 556.931644 72.539594 
L 557.931644 72.487638 
L 558.931644 72.447991 
L 559.931644 72.412477 
L 560.931644 72.344832 
L 561.931644 72.30575 
L 562.931644 72.255269 
L 563.931644 72.205963 
L 564.931644 72.154893 
L 565.931644 72.110654 
L 566.931644 72.088634 
L 567.931644 72.073078 
L 568.931644 72.030631 
L 570.617778 72.015763 
" clip-path="url(#pa591bdfe59)" style="fill: none; stroke: #ffffff; stroke-width: 3; stroke-linecap: round"/>
         <path d="M 321.931644 72.964375 
L 322.931644 72.995811 
L 323.931644 73.032752 
L 324.931644 73.130498 
L 325.931644 73.16302 
L 326.931644 73.236645 
L 327.931644 73.27521 
L 328.931644 73.310623 
L 329.931644 73.368263 
L 330.931644 73.438649 
L 331.931644 73.490614 
L 332.931644 73.549703 
L 333.931644 73.638024 
L 334.931644 73.684169 
L 335.931644 73.72658 
L 336.931644 73.757072 
L 337.931644 73.783117 
L 338.931644 73.804317 
L 339.931644 73.858618 
L 340.931644 73.886556 
L 341.931644 73.91628 
L 342.931644 73.941675 
L 343.931644 73.952875 
L 344.931644 73.962999 
L 345.931644 73.962795 
L 346.931644 73.953285 
L 347.931644 73.941631 
L 348.931644 73.910602 
L 349.931644 73.899434 
L 350.931644 73.869317 
L 351.931644 73.80954 
L 352.931644 73.772348 
L 353.931644 73.733252 
L 354.931644 73.690812 
L 355.931644 73.658047 
L 356.931644 73.590621 
L 357.931644 73.551495 
L 358.931644 73.50882 
L 359.931644 73.43824 
L 360.931644 73.401849 
L 361.931644 73.343446 
L 362.931644 73.232493 
L 363.931644 73.161835 
L 364.931644 73.048895 
L 365.931644 73.003122 
L 366.931644 72.941839 
L 367.931644 72.89334 
L 368.931644 72.812517 
L 369.931644 72.693998 
L 370.931644 72.623787 
L 371.931644 72.540525 
L 372.931644 72.507383 
L 373.931644 72.456146 
L 374.931644 72.387747 
L 375.931644 72.321532 
L 376.931644 72.244615 
L 377.931644 72.217299 
L 378.931644 72.190822 
L 379.931644 72.168171 
L 380.931644 72.14864 
L 381.931644 72.122246 
L 382.931644 72.072475 
L 383.931644 72.037402 
L 384.931644 72.001536 
L 385.931644 71.986169 
L 386.931644 71.9704 
L 387.931644 71.966987 
L 388.931644 71.96457 
L 389.931644 71.965056 
L 390.931644 71.966985 
L 391.931644 71.980242 
L 392.931644 71.988633 
L 393.931644 72.010169 
L 394.931644 72.033202 
L 395.931644 72.050435 
L 396.931644 72.068898 
L 397.931644 72.08935 
L 398.931644 72.10595 
L 399.931644 72.168729 
L 400.931644 72.243994 
L 401.931644 72.276633 
L 402.931644 72.344197 
L 403.931644 72.398244 
L 404.931644 72.431948 
L 405.931644 72.522074 
L 406.931644 72.550609 
L 407.931644 72.582095 
L 408.931644 72.613106 
L 409.931644 72.667914 
L 410.931644 72.732501 
L 411.931644 72.770697 
L 412.931644 72.866631 
L 413.931644 72.915889 
L 414.931644 72.959958 
L 415.931644 73.000082 
L 416.931644 73.108449 
L 417.931644 73.150077 
L 418.931644 73.212219 
L 419.931644 73.282181 
L 420.931644 73.386685 
L 421.931644 73.423673 
L 422.931644 73.46955 
L 423.931644 73.538045 
L 424.931644 73.586791 
L 425.931644 73.664388 
L 426.931644 73.694929 
L 427.931644 73.764443 
L 428.931644 73.788416 
L 429.931644 73.817038 
L 430.931644 73.858831 
L 431.931644 73.880407 
L 432.931644 73.894355 
L 433.931644 73.921077 
L 434.931644 73.930387 
L 435.931644 73.942834 
L 436.931644 73.953889 
L 437.931644 73.959553 
L 438.931644 73.964317 
L 439.931644 73.958769 
L 440.931644 73.945481 
L 441.931644 73.937964 
L 442.931644 73.913179 
L 443.931644 73.88961 
L 444.931644 73.85343 
L 445.931644 73.827468 
L 446.931644 73.805146 
L 447.931644 73.736386 
L 448.931644 73.661851 
L 449.931644 73.567872 
L 450.931644 73.51682 
L 451.931644 73.462886 
L 452.931644 73.427635 
L 453.931644 73.321547 
L 454.931644 73.269283 
L 455.931644 73.232376 
L 456.931644 73.201345 
L 457.931644 73.14019 
L 458.931644 73.07277 
L 459.931644 73.023864 
L 460.931644 72.958672 
L 461.931644 72.920484 
L 462.931644 72.878488 
L 463.931644 72.836471 
L 464.931644 72.776955 
L 465.931644 72.663795 
L 466.931644 72.611544 
L 467.931644 72.572126 
L 468.931644 72.525025 
L 469.931644 72.468245 
L 470.931644 72.435582 
L 471.931644 72.399404 
L 472.931644 72.367314 
L 473.931644 72.333034 
L 474.931644 72.274656 
L 475.931644 72.229471 
L 476.931644 72.199847 
L 477.931644 72.149461 
L 478.931644 72.124264 
L 479.931644 72.103213 
L 480.931644 72.068245 
L 481.931644 72.043955 
L 482.931644 72.029888 
L 483.931644 72.010946 
L 484.931644 71.995285 
L 485.931644 71.982733 
L 486.931644 71.976897 
L 487.931644 71.970015 
L 488.931644 71.964841 
L 489.931644 71.966624 
L 490.931644 71.969349 
L 491.931644 71.980503 
L 492.931644 72.008738 
L 493.931644 72.052526 
L 494.931644 72.073215 
L 495.931644 72.114188 
L 496.931644 72.154263 
L 497.931644 72.173373 
L 498.931644 72.195882 
L 499.931644 72.262533 
L 500.931644 72.312243 
L 501.931644 72.385949 
L 502.931644 72.417263 
L 503.931644 72.493885 
L 504.931644 72.532183 
L 505.931644 72.6063 
L 506.931644 72.710358 
L 507.931644 72.780189 
L 508.931644 72.885423 
L 509.931644 72.940438 
L 510.931644 73.063913 
L 511.931644 73.134472 
L 512.931644 73.250311 
L 513.931644 73.300492 
L 514.931644 73.336096 
L 515.931644 73.427503 
L 516.931644 73.481011 
L 517.931644 73.568919 
L 518.931644 73.638104 
L 519.931644 73.684868 
L 520.931644 73.756912 
L 521.931644 73.807054 
L 522.931644 73.824444 
L 523.931644 73.851447 
L 524.931644 73.870874 
L 525.931644 73.890212 
L 526.931644 73.928461 
L 527.931644 73.944894 
L 528.931644 73.953263 
L 529.931644 73.957582 
L 530.931644 73.964137 
L 531.931644 73.961591 
L 532.931644 73.956132 
L 533.931644 73.939704 
L 534.931644 73.907769 
L 535.931644 73.869789 
L 536.931644 73.834985 
L 537.931644 73.771913 
L 538.931644 73.750486 
L 539.931644 73.699868 
L 540.931644 73.674911 
L 541.931644 73.619277 
L 542.931644 73.588048 
L 543.931644 73.537904 
L 544.931644 73.505411 
L 545.931644 73.424999 
L 546.931644 73.356073 
L 547.931644 73.240376 
L 548.931644 73.164897 
L 549.931644 73.049372 
L 550.931644 72.969888 
L 551.931644 72.861447 
L 552.931644 72.822079 
L 553.931644 72.719211 
L 554.931644 72.619413 
L 555.931644 72.573916 
L 556.931644 72.539594 
L 557.931644 72.487638 
L 558.931644 72.447991 
L 559.931644 72.412477 
L 560.931644 72.344832 
L 561.931644 72.30575 
L 562.931644 72.255269 
L 563.931644 72.205963 
L 564.931644 72.154893 
L 565.931644 72.110654 
L 566.931644 72.088634 
L 567.931644 72.073078 
L 568.931644 72.030631 
L 570.617778 72.015763 
" clip-path="url(#pa591bdfe59)" style="fill: none; stroke: #1f77b4; stroke-linecap: round"/>
         <path d="M 566.617778 70.964375 
L 567.498147 71.439706 
L 568.376054 71.91996 
L 569.226767 72.454601 
L 570.528942 73.142048 
L 569.601588 73.168063 
L 568.689914 73.580783 
L 567.77965 73.996322 
L 566.437154 74.603126 
L 567.092053 73.964375 
L 567.144017 72.964375 
L 567.203107 70.964375 
z
" clip-path="url(#pa591bdfe59)" style="fill: #ffffff; stroke: #ffffff; stroke-width: 3; stroke-linecap: round"/>
         <path d="M 566.617778 70.964375 
L 567.498147 71.439706 
L 568.376054 71.91996 
L 569.226767 72.454601 
L 570.528942 73.142048 
L 569.601588 73.168063 
L 568.689914 73.580783 
L 567.77965 73.996322 
L 566.437154 74.603126 
L 567.092053 73.964375 
L 567.144017 72.964375 
L 567.203107 70.964375 
z
" clip-path="url(#pa591bdfe59)" style="fill: #ffffff; stroke: #1f77b4; stroke-linecap: round"/>
         <g id="patch_9">
          <path d="M 120.539908 234.849217 
L 121.539908 234.880653 
L 122.539908 234.917593 
L 123.539908 235.01534 
L 124.539908 235.047862 
L 125.539908 235.121486 
L 126.539908 235.160052 
L 127.539908 235.195465 
L 128.539908 235.253105 
L 129.539908 235.323491 
L 130.539908 235.375455 
L 131.539908 235.434545 
L 132.539908 235.522866 
L 133.539908 235.56901 
L 134.539908 235.611421 
L 135.539908 235.641914 
L 136.539908 235.667959 
L 137.539908 235.689159 
L 138.539908 235.74346 
L 139.539908 235.771398 
L 140.539908 235.801122 
L 141.539908 235.826516 
L 142.539908 235.837717 
L 143.539908 235.847841 
L 144.539908 235.847636 
L 145.539908 235.838127 
L 146.539908 235.826473 
L 147.539908 235.795444 
L 148.539908 235.784276 
L 149.539908 235.754158 
L 150.539908 235.694381 
L 151.539908 235.65719 
L 152.539908 235.618094 
L 153.539908 235.575654 
L 154.539908 235.542889 
L 155.539908 235.475463 
L 156.539908 235.436337 
L 157.539908 235.393662 
L 158.539908 235.323081 
L 159.539908 235.286691 
L 160.539908 235.228287 
L 161.539908 235.117335 
L 162.539908 235.046677 
L 163.539908 234.933737 
L 164.539908 234.887964 
L 165.539908 234.826681 
L 166.539908 234.778181 
L 167.539908 234.697359 
L 168.539908 234.57884 
L 169.539908 234.508629 
L 170.539908 234.425367 
L 171.539908 234.392225 
L 172.539908 234.340987 
L 173.539908 234.272589 
L 174.539908 234.206374 
L 175.539908 234.129457 
L 176.539908 234.102141 
L 177.539908 234.075664 
L 178.539908 234.053013 
L 179.539908 234.033482 
L 180.539908 234.007088 
L 181.539908 233.957317 
L 182.539908 233.922244 
L 183.539908 233.886378 
L 184.539908 233.871011 
L 185.539908 233.855242 
L 186.539908 233.851829 
L 187.539908 233.849411 
L 188.539908 233.849897 
L 189.539908 233.851827 
L 190.539908 233.865084 
L 191.539908 233.873474 
L 192.539908 233.895011 
L 193.539908 233.918043 
L 194.539908 233.935277 
L 195.539908 233.953739 
L 196.539908 233.974192 
L 197.539908 233.990792 
L 198.539908 234.053571 
L 199.539908 234.128836 
L 200.539908 234.161475 
L 201.539908 234.229038 
L 202.539908 234.283085 
L 203.539908 234.31679 
L 204.539908 234.406916 
L 205.539908 234.435451 
L 206.539908 234.466937 
L 207.539908 234.497948 
L 208.539908 234.552756 
L 209.539908 234.617343 
L 210.539908 234.655538 
L 211.539908 234.751473 
L 212.539908 234.800731 
L 213.539908 234.8448 
L 214.539908 234.884924 
L 215.539908 234.993291 
L 216.539908 235.034919 
L 217.539908 235.09706 
L 218.539908 235.167023 
L 219.539908 235.271527 
L 220.539908 235.308515 
L 221.539908 235.354392 
L 222.539908 235.422886 
L 223.539908 235.471632 
L 224.539908 235.54923 
L 225.539908 235.57977 
L 226.539908 235.649285 
L 227.539908 235.673258 
L 228.539908 235.701879 
L 229.539908 235.743673 
L 230.539908 235.765248 
L 231.539908 235.779196 
L 232.539908 235.805919 
L 233.539908 235.815229 
L 234.539908 235.827675 
L 235.539908 235.83873 
L 236.539908 235.844395 
L 237.539908 235.849159 
L 238.539908 235.843611 
L 239.539908 235.830323 
L 240.539908 235.822805 
L 241.539908 235.798021 
L 242.539908 235.774452 
L 243.539908 235.738271 
L 244.539908 235.712309 
L 245.539908 235.689988 
L 246.539908 235.621228 
L 247.539908 235.546693 
L 248.539908 235.452713 
L 249.539908 235.401661 
L 250.539908 235.347728 
L 251.539908 235.312477 
L 252.539908 235.206389 
L 253.539908 235.154125 
L 254.539908 235.117218 
L 255.539908 235.086187 
L 256.539908 235.025032 
L 257.539908 234.957612 
L 258.539908 234.908706 
L 259.539908 234.843513 
L 260.539908 234.805326 
L 261.539908 234.76333 
L 262.539908 234.721313 
L 263.539908 234.661796 
L 264.539908 234.548636 
L 265.539908 234.496386 
L 266.539908 234.456968 
L 267.539908 234.409866 
L 268.539908 234.353087 
L 269.539908 234.320424 
L 270.539908 234.284246 
L 271.539908 234.252155 
L 272.539908 234.217876 
L 273.539908 234.159498 
L 274.539908 234.114313 
L 275.539908 234.084689 
L 276.539908 234.034303 
L 277.539908 234.009105 
L 278.539908 233.988055 
L 279.539908 233.953087 
L 280.539908 233.928797 
L 281.539908 233.91473 
L 282.539908 233.895788 
L 283.539908 233.880126 
L 284.539908 233.867575 
L 285.539908 233.861739 
L 286.539908 233.854856 
L 287.539908 233.849683 
L 288.539908 233.851465 
L 289.539908 233.854191 
L 290.539908 233.865344 
L 291.539908 233.89358 
L 292.539908 233.937367 
L 293.539908 233.958057 
L 294.539908 233.99903 
L 295.539908 234.039105 
L 296.539908 234.058215 
L 297.539908 234.080723 
L 298.539908 234.147375 
L 299.539908 234.197084 
L 300.539908 234.270791 
L 301.539908 234.302105 
L 302.539908 234.378727 
L 303.539908 234.417025 
L 304.539908 234.491142 
L 305.539908 234.5952 
L 306.539908 234.665031 
L 307.539908 234.770264 
L 308.539908 234.82528 
L 309.539908 234.948755 
L 310.539908 235.019314 
L 311.539908 235.135153 
L 312.539908 235.185334 
L 313.539908 235.220938 
L 314.539908 235.312345 
L 315.539908 235.365852 
L 316.539908 235.453761 
L 317.539908 235.522946 
L 318.539908 235.56971 
L 319.539908 235.641754 
L 320.539908 235.691896 
L 321.539908 235.709285 
L 322.539908 235.736289 
L 323.539908 235.755716 
L 324.539908 235.775054 
L 325.539908 235.813302 
L 326.539908 235.829736 
L 327.539908 235.838105 
L 328.539908 235.842424 
L 329.539908 235.848979 
L 330.539908 235.846432 
L 331.539908 235.840974 
L 332.539908 235.824546 
L 333.539908 235.792611 
L 334.539908 235.754631 
L 335.539908 235.719826 
L 336.539908 235.656755 
L 337.539908 235.635328 
L 338.539908 235.58471 
L 339.539908 235.559752 
L 340.539908 235.504119 
L 341.539908 235.47289 
L 342.539908 235.422746 
L 343.539908 235.390253 
L 344.539908 235.30984 
L 345.539908 235.240915 
L 346.539908 235.125217 
L 347.539908 235.049739 
L 348.539908 234.934214 
L 349.539908 234.854729 
L 350.539908 234.746288 
L 351.539908 234.706921 
L 352.539908 234.604053 
L 353.539908 234.504255 
L 354.539908 234.458758 
L 355.539908 234.424435 
L 356.539908 234.37248 
L 357.539908 234.332833 
L 358.539908 234.297319 
L 359.539908 234.229673 
L 360.539908 234.190592 
L 361.539908 234.14011 
L 362.539908 234.090805 
L 363.539908 234.039735 
L 364.539908 233.995496 
L 365.539908 233.973476 
L 366.539908 233.957919 
L 367.539908 233.915473 
L 368.539908 233.900605 
L 369.539908 233.877877 
L 370.539908 233.857561 
L 371.539908 233.851764 
L 372.539908 233.849281 
L 373.539908 233.852339 
L 374.539908 233.863935 
L 375.539908 233.880855 
L 376.539908 233.912516 
L 377.539908 233.926599 
L 378.539908 233.979271 
L 379.539908 234.02836 
L 380.539908 234.083061 
L 381.539908 234.127409 
L 382.539908 234.197401 
L 383.539908 234.247783 
L 384.539908 234.30169 
L 385.539908 234.37113 
L 386.539908 234.428517 
L 387.539908 234.478683 
L 388.539908 234.555845 
L 389.539908 234.614035 
L 390.539908 234.674673 
L 391.539908 234.711874 
L 392.539908 234.776966 
L 393.539908 234.882096 
L 394.539908 234.942397 
L 395.539908 235.038719 
L 396.539908 235.070722 
L 397.539908 235.12174 
L 398.539908 235.238532 
L 399.539908 235.273978 
L 400.539908 235.329859 
L 401.539908 235.360234 
L 402.539908 235.448621 
L 403.539908 235.493385 
L 404.539908 235.574273 
L 405.539908 235.634419 
L 406.539908 235.697505 
L 407.539908 235.720453 
L 408.539908 235.736623 
L 409.539908 235.765552 
L 410.539908 235.795903 
L 411.539908 235.808478 
L 412.539908 235.833357 
L 413.539908 235.845441 
L 414.539908 235.849203 
L 415.539908 235.844767 
L 416.539908 235.832428 
L 417.539908 235.818015 
L 418.539908 235.801942 
L 419.539908 235.766421 
L 420.539908 235.746487 
L 421.539908 235.689897 
L 422.539908 235.622704 
L 423.539908 235.595333 
L 424.539908 235.561186 
L 425.539908 235.512505 
L 426.539908 235.464221 
L 427.539908 235.405143 
L 428.539908 235.309539 
L 429.539908 235.266399 
L 430.539908 235.216551 
L 431.539908 235.158016 
L 432.539908 235.110431 
L 433.539908 235.049303 
L 434.539908 234.993217 
L 435.539908 234.919047 
L 436.539908 234.801809 
L 437.539908 234.746085 
L 438.539908 234.637859 
L 439.539908 234.531709 
L 441.072481 234.424136 
" clip-path="url(#pa591bdfe59)" style="fill: none; stroke: #ffffff; stroke-width: 3; stroke-linecap: round"/>
          <path d="M 120.539908 234.849217 
L 121.539908 234.880653 
L 122.539908 234.917593 
L 123.539908 235.01534 
L 124.539908 235.047862 
L 125.539908 235.121486 
L 126.539908 235.160052 
L 127.539908 235.195465 
L 128.539908 235.253105 
L 129.539908 235.323491 
L 130.539908 235.375455 
L 131.539908 235.434545 
L 132.539908 235.522866 
L 133.539908 235.56901 
L 134.539908 235.611421 
L 135.539908 235.641914 
L 136.539908 235.667959 
L 137.539908 235.689159 
L 138.539908 235.74346 
L 139.539908 235.771398 
L 140.539908 235.801122 
L 141.539908 235.826516 
L 142.539908 235.837717 
L 143.539908 235.847841 
L 144.539908 235.847636 
L 145.539908 235.838127 
L 146.539908 235.826473 
L 147.539908 235.795444 
L 148.539908 235.784276 
L 149.539908 235.754158 
L 150.539908 235.694381 
L 151.539908 235.65719 
L 152.539908 235.618094 
L 153.539908 235.575654 
L 154.539908 235.542889 
L 155.539908 235.475463 
L 156.539908 235.436337 
L 157.539908 235.393662 
L 158.539908 235.323081 
L 159.539908 235.286691 
L 160.539908 235.228287 
L 161.539908 235.117335 
L 162.539908 235.046677 
L 163.539908 234.933737 
L 164.539908 234.887964 
L 165.539908 234.826681 
L 166.539908 234.778181 
L 167.539908 234.697359 
L 168.539908 234.57884 
L 169.539908 234.508629 
L 170.539908 234.425367 
L 171.539908 234.392225 
L 172.539908 234.340987 
L 173.539908 234.272589 
L 174.539908 234.206374 
L 175.539908 234.129457 
L 176.539908 234.102141 
L 177.539908 234.075664 
L 178.539908 234.053013 
L 179.539908 234.033482 
L 180.539908 234.007088 
L 181.539908 233.957317 
L 182.539908 233.922244 
L 183.539908 233.886378 
L 184.539908 233.871011 
L 185.539908 233.855242 
L 186.539908 233.851829 
L 187.539908 233.849411 
L 188.539908 233.849897 
L 189.539908 233.851827 
L 190.539908 233.865084 
L 191.539908 233.873474 
L 192.539908 233.895011 
L 193.539908 233.918043 
L 194.539908 233.935277 
L 195.539908 233.953739 
L 196.539908 233.974192 
L 197.539908 233.990792 
L 198.539908 234.053571 
L 199.539908 234.128836 
L 200.539908 234.161475 
L 201.539908 234.229038 
L 202.539908 234.283085 
L 203.539908 234.31679 
L 204.539908 234.406916 
L 205.539908 234.435451 
L 206.539908 234.466937 
L 207.539908 234.497948 
L 208.539908 234.552756 
L 209.539908 234.617343 
L 210.539908 234.655538 
L 211.539908 234.751473 
L 212.539908 234.800731 
L 213.539908 234.8448 
L 214.539908 234.884924 
L 215.539908 234.993291 
L 216.539908 235.034919 
L 217.539908 235.09706 
L 218.539908 235.167023 
L 219.539908 235.271527 
L 220.539908 235.308515 
L 221.539908 235.354392 
L 222.539908 235.422886 
L 223.539908 235.471632 
L 224.539908 235.54923 
L 225.539908 235.57977 
L 226.539908 235.649285 
L 227.539908 235.673258 
L 228.539908 235.701879 
L 229.539908 235.743673 
L 230.539908 235.765248 
L 231.539908 235.779196 
L 232.539908 235.805919 
L 233.539908 235.815229 
L 234.539908 235.827675 
L 235.539908 235.83873 
L 236.539908 235.844395 
L 237.539908 235.849159 
L 238.539908 235.843611 
L 239.539908 235.830323 
L 240.539908 235.822805 
L 241.539908 235.798021 
L 242.539908 235.774452 
L 243.539908 235.738271 
L 244.539908 235.712309 
L 245.539908 235.689988 
L 246.539908 235.621228 
L 247.539908 235.546693 
L 248.539908 235.452713 
L 249.539908 235.401661 
L 250.539908 235.347728 
L 251.539908 235.312477 
L 252.539908 235.206389 
L 253.539908 235.154125 
L 254.539908 235.117218 
L 255.539908 235.086187 
L 256.539908 235.025032 
L 257.539908 234.957612 
L 258.539908 234.908706 
L 259.539908 234.843513 
L 260.539908 234.805326 
L 261.539908 234.76333 
L 262.539908 234.721313 
L 263.539908 234.661796 
L 264.539908 234.548636 
L 265.539908 234.496386 
L 266.539908 234.456968 
L 267.539908 234.409866 
L 268.539908 234.353087 
L 269.539908 234.320424 
L 270.539908 234.284246 
L 271.539908 234.252155 
L 272.539908 234.217876 
L 273.539908 234.159498 
L 274.539908 234.114313 
L 275.539908 234.084689 
L 276.539908 234.034303 
L 277.539908 234.009105 
L 278.539908 233.988055 
L 279.539908 233.953087 
L 280.539908 233.928797 
L 281.539908 233.91473 
L 282.539908 233.895788 
L 283.539908 233.880126 
L 284.539908 233.867575 
L 285.539908 233.861739 
L 286.539908 233.854856 
L 287.539908 233.849683 
L 288.539908 233.851465 
L 289.539908 233.854191 
L 290.539908 233.865344 
L 291.539908 233.89358 
L 292.539908 233.937367 
L 293.539908 233.958057 
L 294.539908 233.99903 
L 295.539908 234.039105 
L 296.539908 234.058215 
L 297.539908 234.080723 
L 298.539908 234.147375 
L 299.539908 234.197084 
L 300.539908 234.270791 
L 301.539908 234.302105 
L 302.539908 234.378727 
L 303.539908 234.417025 
L 304.539908 234.491142 
L 305.539908 234.5952 
L 306.539908 234.665031 
L 307.539908 234.770264 
L 308.539908 234.82528 
L 309.539908 234.948755 
L 310.539908 235.019314 
L 311.539908 235.135153 
L 312.539908 235.185334 
L 313.539908 235.220938 
L 314.539908 235.312345 
L 315.539908 235.365852 
L 316.539908 235.453761 
L 317.539908 235.522946 
L 318.539908 235.56971 
L 319.539908 235.641754 
L 320.539908 235.691896 
L 321.539908 235.709285 
L 322.539908 235.736289 
L 323.539908 235.755716 
L 324.539908 235.775054 
L 325.539908 235.813302 
L 326.539908 235.829736 
L 327.539908 235.838105 
L 328.539908 235.842424 
L 329.539908 235.848979 
L 330.539908 235.846432 
L 331.539908 235.840974 
L 332.539908 235.824546 
L 333.539908 235.792611 
L 334.539908 235.754631 
L 335.539908 235.719826 
L 336.539908 235.656755 
L 337.539908 235.635328 
L 338.539908 235.58471 
L 339.539908 235.559752 
L 340.539908 235.504119 
L 341.539908 235.47289 
L 342.539908 235.422746 
L 343.539908 235.390253 
L 344.539908 235.30984 
L 345.539908 235.240915 
L 346.539908 235.125217 
L 347.539908 235.049739 
L 348.539908 234.934214 
L 349.539908 234.854729 
L 350.539908 234.746288 
L 351.539908 234.706921 
L 352.539908 234.604053 
L 353.539908 234.504255 
L 354.539908 234.458758 
L 355.539908 234.424435 
L 356.539908 234.37248 
L 357.539908 234.332833 
L 358.539908 234.297319 
L 359.539908 234.229673 
L 360.539908 234.190592 
L 361.539908 234.14011 
L 362.539908 234.090805 
L 363.539908 234.039735 
L 364.539908 233.995496 
L 365.539908 233.973476 
L 366.539908 233.957919 
L 367.539908 233.915473 
L 368.539908 233.900605 
L 369.539908 233.877877 
L 370.539908 233.857561 
L 371.539908 233.851764 
L 372.539908 233.849281 
L 373.539908 233.852339 
L 374.539908 233.863935 
L 375.539908 233.880855 
L 376.539908 233.912516 
L 377.539908 233.926599 
L 378.539908 233.979271 
L 379.539908 234.02836 
L 380.539908 234.083061 
L 381.539908 234.127409 
L 382.539908 234.197401 
L 383.539908 234.247783 
L 384.539908 234.30169 
L 385.539908 234.37113 
L 386.539908 234.428517 
L 387.539908 234.478683 
L 388.539908 234.555845 
L 389.539908 234.614035 
L 390.539908 234.674673 
L 391.539908 234.711874 
L 392.539908 234.776966 
L 393.539908 234.882096 
L 394.539908 234.942397 
L 395.539908 235.038719 
L 396.539908 235.070722 
L 397.539908 235.12174 
L 398.539908 235.238532 
L 399.539908 235.273978 
L 400.539908 235.329859 
L 401.539908 235.360234 
L 402.539908 235.448621 
L 403.539908 235.493385 
L 404.539908 235.574273 
L 405.539908 235.634419 
L 406.539908 235.697505 
L 407.539908 235.720453 
L 408.539908 235.736623 
L 409.539908 235.765552 
L 410.539908 235.795903 
L 411.539908 235.808478 
L 412.539908 235.833357 
L 413.539908 235.845441 
L 414.539908 235.849203 
L 415.539908 235.844767 
L 416.539908 235.832428 
L 417.539908 235.818015 
L 418.539908 235.801942 
L 419.539908 235.766421 
L 420.539908 235.746487 
L 421.539908 235.689897 
L 422.539908 235.622704 
L 423.539908 235.595333 
L 424.539908 235.561186 
L 425.539908 235.512505 
L 426.539908 235.464221 
L 427.539908 235.405143 
L 428.539908 235.309539 
L 429.539908 235.266399 
L 430.539908 235.216551 
L 431.539908 235.158016 
L 432.539908 235.110431 
L 433.539908 235.049303 
L 434.539908 234.993217 
L 435.539908 234.919047 
L 436.539908 234.801809 
L 437.539908 234.746085 
L 438.539908 234.637859 
L 439.539908 234.531709 
L 441.072481 234.424136 
" clip-path="url(#pa591bdfe59)" style="fill: none; stroke: #ff7f0e; stroke-linecap: round"/>
          <path d="M 437.072481 232.849217 
L 437.952849 233.324548 
L 438.830756 233.804802 
L 439.68147 234.339443 
L 440.983644 235.02689 
L 440.056291 235.052905 
L 439.144617 235.465624 
L 438.234352 235.881164 
L 436.891857 236.487968 
L 437.546755 235.849217 
L 437.59872 234.849217 
L 437.657809 232.849217 
z
" clip-path="url(#pa591bdfe59)" style="fill: #ffffff; stroke: #ffffff; stroke-width: 3; stroke-linecap: round"/>
          <path d="M 437.072481 232.849217 
L 437.952849 233.324548 
L 438.830756 233.804802 
L 439.68147 234.339443 
L 440.983644 235.02689 
L 440.056291 235.052905 
L 439.144617 235.465624 
L 438.234352 235.881164 
L 436.891857 236.487968 
L 437.546755 235.849217 
L 437.59872 234.849217 
L 437.657809 232.849217 
z
" clip-path="url(#pa591bdfe59)" style="fill: #ffffff; stroke: #ff7f0e; stroke-linecap: round"/>
          <path d="M 451.395656 302.928942 
" clip-path="url(#pa591bdfe59)" style="fill: none; stroke-dasharray: 3.7,1.6; stroke-dashoffset: 0; stroke: #2ca02c"/>
          <path d="M 450.395656 302.928942 
L 452.395656 303.928942 
L 452.395656 301.928942 
z
" clip-path="url(#pa591bdfe59)" style="fill: #2ca02c; stroke: #2ca02c; stroke-linejoin: miter"/>
          <g id="patch_10">
           <path d="M 63.290625 321.621875 
L 63.290625 10.8 
" style="fill: none; stroke: #000000; stroke-width: 0.8; stroke-linejoin: miter; stroke-linecap: square"/>
          </g>
          <g id="text_11">
           <g id="patch_11">
            <path d="M 303.141778 118.343648 
L 324.446466 118.343648 
Q 326.446466 118.343648 326.446466 116.343648 
L 326.446466 106.665523 
Q 326.446466 104.665523 324.446466 104.665523 
L 303.141778 104.665523 
Q 301.141778 104.665523 301.141778 106.665523 
L 301.141778 116.343648 
Q 301.141778 118.343648 303.141778 118.343648 
z
" style="fill: #ffffff; opacity: 0.6"/>
           </g>
           <!-- ANC -->
           <g transform="translate(303.141778 114.26396) scale(0.1 -0.1)">
            <defs>
             <path id="DejaVuSans-4e" d="M 628 4666 
L 1478 4666 
L 3547 763 
L 3547 4666 
L 4159 4666 
L 4159 0 
L 3309 0 
L 1241 3903 
L 1241 0 
L 628 0 
L 628 4666 
z
" transform="scale(0.015625)"/>
            </defs>
            <use xlink:href="#DejaVuSans-41"/>
            <use xlink:href="#DejaVuSans-4e" x="68.408203"/>
            <use xlink:href="#DejaVuSans-43" x="143.212891"/>
           </g>
          </g>
         </g>
        </g>
        <defs>
         <clipPath id="pa591bdfe59">
          <rect x="63.290625" y="10.8" width="540.309375" height="310.821875"/>
         </clipPath>
        </defs>
       </g>
      </g>
     </g>
    </g>
   </g>
  </g>
 </g>
</svg>
