<?xml version="1.0" encoding="utf-8" standalone="no"?>
<!DOCTYPE svg PUBLIC "-//W3C//DTD SVG 1.1//EN"
  "http://www.w3.org/Graphics/SVG/1.1/DTD/svg11.dtd">
<svg xmlns:xlink="http://www.w3.org/1999/xlink" width="614.4pt" height="345.6pt" viewBox="0 0 614.4 345.6" xmlns="http://www.w3.org/2000/svg" version="1.1">
 <metadata>
  <rdf:RDF xmlns:dc="http://purl.org/dc/elements/1.1/" xmlns:cc="http://creativecommons.org/ns#" xmlns:rdf="http://www.w3.org/1999/02/22-rdf-syntax-ns#">
   <cc:Work>
    <dc:type rdf:resource="http://purl.org/dc/dcmitype/StillImage"/>
    <dc:date>2024-04-17T19:40:18.528355</dc:date>
    <dc:format>image/svg+xml</dc:format>
    <dc:creator>
     <cc:Agent>
      <dc:title>Matplotlib v3.7.1, https://matplotlib.org/</dc:title>
     </cc:Agent>
    </dc:creator>
   </cc:Work>
  </rdf:RDF>
 </metadata>
 <defs>
  <style type="text/css">*{stroke-linejoin: round; stroke-linecap: butt}</style>
 </defs>
 <g id="figure_1">
  <g id="patch_1">
   <path d="M 0 345.6 
L 614.4 345.6 
L 614.4 0 
L 0 0 
z
" style="fill: #ffffff"/>
  </g>
  <g id="axes_1">
   <g id="patch_2">
    <path d="M 63.290625 321.621875 
L 603.6 321.621875 
L 603.6 10.8 
L 63.290625 10.8 
z
" style="fill: #ffffff"/>
   </g>
   <path d="M 565.937588 286.631428 
L 564.937588 286.599991 
L 563.937588 286.563051 
L 562.937588 286.465304 
L 561.937588 286.432783 
L 560.937588 286.359158 
L 559.937588 286.320592 
L 558.937588 286.285179 
L 557.937588 286.227539 
L 556.937588 286.157153 
L 555.937588 286.105189 
L 554.937588 286.046099 
L 553.937588 285.957778 
L 552.937588 285.911634 
L 551.937588 285.869223 
L 550.937588 285.83873 
L 549.937588 285.812685 
L 548.937588 285.791485 
L 547.937588 285.737184 
L 546.937588 285.709247 
L 545.937588 285.679523 
L 544.937588 285.654128 
L 543.937588 285.642927 
L 542.937588 285.632804 
L 541.937588 285.633008 
L 540.937588 285.642518 
L 539.937588 285.654171 
L 538.937588 285.685201 
L 537.937588 285.696368 
L 536.937588 285.726486 
L 535.937588 285.786263 
L 534.937588 285.823454 
L 533.937588 285.862551 
L 532.937588 285.90499 
L 531.937588 285.937755 
L 530.937588 286.005182 
L 529.937588 286.044308 
L 528.937588 286.086982 
L 527.937588 286.157563 
L 526.937588 286.193954 
L 525.937588 286.252357 
L 524.937588 286.363309 
L 523.937588 286.433968 
L 522.937588 286.546908 
L 521.937588 286.59268 
L 520.937588 286.653964 
L 519.937588 286.702463 
L 518.937588 286.783286 
L 517.937588 286.901805 
L 516.937588 286.972015 
L 515.937588 287.055278 
L 514.937588 287.08842 
L 513.937588 287.139657 
L 512.937588 287.208055 
L 511.937588 287.274271 
L 510.937588 287.351188 
L 509.937588 287.378503 
L 508.937588 287.404981 
L 507.937588 287.427631 
L 506.937588 287.447163 
L 505.937588 287.473557 
L 504.937588 287.523327 
L 503.937588 287.558401 
L 502.937588 287.594266 
L 501.937588 287.609634 
L 500.937588 287.625403 
L 499.937588 287.628815 
L 498.937588 287.631233 
L 497.937588 287.630747 
L 496.937588 287.628818 
L 495.937588 287.615561 
L 494.937588 287.60717 
L 493.937588 287.585633 
L 492.937588 287.562601 
L 491.937588 287.545367 
L 490.937588 287.526905 
L 489.937588 287.506452 
L 488.937588 287.489852 
L 487.937588 287.427074 
L 486.937588 287.351809 
L 485.937588 287.31917 
L 484.937588 287.251606 
L 483.937588 287.197559 
L 482.937588 287.163855 
L 481.937588 287.073729 
L 480.937588 287.045194 
L 479.937588 287.013708 
L 478.937588 286.982697 
L 477.937588 286.927889 
L 476.937588 286.863301 
L 475.937588 286.825106 
L 474.937588 286.729172 
L 473.937588 286.679914 
L 472.937588 286.635844 
L 471.937588 286.595721 
L 470.937588 286.487354 
L 469.937588 286.445726 
L 468.937588 286.383584 
L 467.937588 286.313622 
L 466.937588 286.209117 
L 465.937588 286.17213 
L 464.937588 286.126252 
L 463.937588 286.057758 
L 462.937588 286.009012 
L 461.937588 285.931415 
L 460.937588 285.900874 
L 459.937588 285.831359 
L 458.937588 285.807386 
L 457.937588 285.778765 
L 456.937588 285.736972 
L 455.81668 285.715396 
" clip-path="url(#p546d46b1d1)" style="fill: none; stroke-dasharray: 3.7,1.6; stroke-dashoffset: 0; stroke: #2ca02c"/>
   <g id="patch_3">
    <path d="M 311.856384 10.8 
L 311.856384 202.982099 
M 335.41501 10.8 
L 335.41501 202.982099 
" clip-path="url(#p546d46b1d1)" style="fill: none; stroke: #ffffff; stroke-width: 3; stroke-linejoin: miter"/>
    <path d="M 311.856384 10.8 
L 311.856384 202.982099 
M 335.41501 10.8 
L 335.41501 202.982099 
" clip-path="url(#p546d46b1d1)" style="fill: none; stroke: #1f77b4; stroke-linejoin: miter"/>
    <g id="PolyCollection_1">
     <path d="M 335.41501 10.8 
L 311.856384 10.8 
L 311.856384 202.982099 
L 335.41501 202.982099 
L 335.41501 202.982099 
L 335.41501 10.8 
z
" clip-path="url(#p546d46b1d1)" style="fill: #1f77b4; fill-opacity: 0.5"/>
    </g>
    <g id="patch_4">
     <path d="M 128.437038 202.982099 
L 128.437038 308.102415 
L 128.437038 308.102415 
L 126.994032 309.468017 
L 125.232272 310.833619 
L 123.081346 312.199221 
L 120.742098 313.428263 
L 117.942556 314.657305 
L 114.592145 315.886347 
L 110.582471 317.115388 
L 105.783811 318.34443 
L 100.040915 319.573472 
L 93.167985 320.802514 
L 87.850142 321.621875 
M 141.502028 202.982099 
L 141.502028 308.102415 
L 141.502028 308.102415 
L 142.945033 309.468017 
L 144.706793 310.833619 
L 146.857719 312.199221 
L 149.196967 313.428263 
L 151.996509 314.657305 
L 155.34692 315.886347 
L 159.356594 317.115388 
L 164.155254 318.34443 
L 169.89815 319.573472 
L 176.77108 320.802514 
L 182.088923 321.621875 
L 182.088923 321.621875 
" clip-path="url(#p546d46b1d1)" style="fill: none; stroke: #ffffff; stroke-width: 3; stroke-linejoin: miter"/>
     <path d="M 128.437038 202.982099 
L 128.437038 308.102415 
L 128.437038 308.102415 
L 126.994032 309.468017 
L 125.232272 310.833619 
L 123.081346 312.199221 
L 120.742098 313.428263 
L 117.942556 314.657305 
L 114.592145 315.886347 
L 110.582471 317.115388 
L 105.783811 318.34443 
L 100.040915 319.573472 
L 93.167985 320.802514 
L 87.850142 321.621875 
M 141.502028 202.982099 
L 141.502028 308.102415 
L 141.502028 308.102415 
L 142.945033 309.468017 
L 144.706793 310.833619 
L 146.857719 312.199221 
L 149.196967 313.428263 
L 151.996509 314.657305 
L 155.34692 315.886347 
L 159.356594 317.115388 
L 164.155254 318.34443 
L 169.89815 319.573472 
L 176.77108 320.802514 
L 182.088923 321.621875 
L 182.088923 321.621875 
" clip-path="url(#p546d46b1d1)" style="fill: none; stroke: #ff7f0e; stroke-linejoin: miter"/>
     <g id="PolyCollection_2">
      <path d="M 141.502028 202.982099 
L 128.437038 202.982099 
L 128.437038 308.102415 
L 128.437038 308.102415 
L 128.305349 308.238976 
L 128.171005 308.375536 
L 128.033953 308.512096 
L 127.894139 308.648656 
L 127.751505 308.785216 
L 127.605997 308.921777 
L 127.457555 309.058337 
L 127.306121 309.194897 
L 127.151634 309.331457 
L 126.994032 309.468017 
L 126.833254 309.604578 
L 126.669234 309.741138 
L 126.501908 309.877698 
L 126.331209 310.014258 
L 126.157069 310.150818 
L 125.979418 310.287379 
L 125.798186 310.423939 
L 125.6133 310.560499 
L 125.424687 310.697059 
L 125.232272 310.833619 
L 125.035978 310.97018 
L 124.835727 311.10674 
L 124.63144 311.2433 
L 124.423034 311.37986 
L 124.210426 311.51642 
L 123.993533 311.65298 
L 123.772267 311.789541 
L 123.546541 311.926101 
L 123.316264 312.062661 
L 123.081346 312.199221 
L 122.841691 312.335781 
L 122.597205 312.472342 
L 122.347791 312.608902 
L 122.093349 312.745462 
L 121.833777 312.882022 
L 121.568973 313.018582 
L 121.298831 313.155143 
L 121.023242 313.291703 
L 120.742098 313.428263 
L 120.455287 313.564823 
L 120.162694 313.701383 
L 119.864202 313.837944 
L 119.559693 313.974504 
L 119.249045 314.111064 
L 118.932135 314.247624 
L 118.608836 314.384184 
L 118.27902 314.520745 
L 117.942556 314.657305 
L 117.599308 314.793865 
L 117.249141 314.930425 
L 116.891915 315.066985 
L 116.527487 315.203546 
L 116.155713 315.340106 
L 115.776444 315.476666 
L 115.38953 315.613226 
L 114.994816 315.749786 
L 114.592145 315.886347 
L 114.181356 316.022907 
L 113.762286 316.159467 
L 113.334768 316.296027 
L 112.898632 316.432587 
L 112.453704 316.569148 
L 111.999806 316.705708 
L 111.536759 316.842268 
L 111.064376 316.978828 
L 110.582471 317.115388 
L 110.090851 317.251949 
L 109.589321 317.388509 
L 109.07768 317.525069 
L 108.555725 317.661629 
L 108.023248 317.798189 
L 107.480036 317.93475 
L 106.925874 318.07131 
L 106.360541 318.20787 
L 105.783811 318.34443 
L 105.195455 318.48099 
L 104.595238 318.617551 
L 103.982921 318.754111 
L 103.358261 318.890671 
L 102.721007 319.027231 
L 102.070908 319.163791 
L 101.407703 319.300352 
L 100.731129 319.436912 
L 100.040915 319.573472 
L 99.336788 319.710032 
L 98.618465 319.846592 
L 97.885663 319.983153 
L 97.138087 320.119713 
L 96.375441 320.256273 
L 95.597421 320.392833 
L 94.803717 320.529393 
L 93.994013 320.665954 
L 93.167985 320.802514 
L 92.325306 320.939074 
L 91.465639 321.075634 
L 90.588642 321.212194 
L 89.693966 321.348755 
L 88.781254 321.485315 
L 87.850142 321.621875 
L 182.088923 321.621875 
L 182.088923 321.621875 
L 181.157811 321.485315 
L 180.245099 321.348755 
L 179.350423 321.212194 
L 178.473426 321.075634 
L 177.613759 320.939074 
L 176.77108 320.802514 
L 175.945052 320.665954 
L 175.135348 320.529393 
L 174.341644 320.392833 
L 173.563624 320.256273 
L 172.800978 320.119713 
L 172.053402 319.983153 
L 171.3206 319.846592 
L 170.602277 319.710032 
L 169.89815 319.573472 
L 169.207936 319.436912 
L 168.531362 319.300352 
L 167.868157 319.163791 
L 167.218058 319.027231 
L 166.580805 318.890671 
L 165.956144 318.754111 
L 165.343827 318.617551 
L 164.74361 318.48099 
L 164.155254 318.34443 
L 163.578524 318.20787 
L 163.013191 318.07131 
L 162.459029 317.93475 
L 161.915817 317.798189 
L 161.38334 317.661629 
L 160.861385 317.525069 
L 160.349744 317.388509 
L 159.848214 317.251949 
L 159.356594 317.115388 
L 158.874689 316.978828 
L 158.402306 316.842268 
L 157.939259 316.705708 
L 157.485361 316.569148 
L 157.040433 316.432587 
L 156.604297 316.296027 
L 156.176779 316.159467 
L 155.757709 316.022907 
L 155.34692 315.886347 
L 154.944249 315.749786 
L 154.549535 315.613226 
L 154.162621 315.476666 
L 153.783352 315.340106 
L 153.411578 315.203546 
L 153.04715 315.066985 
L 152.689924 314.930425 
L 152.339757 314.793865 
L 151.996509 314.657305 
L 151.660045 314.520745 
L 151.330229 314.384184 
L 151.00693 314.247624 
L 150.69002 314.111064 
L 150.379372 313.974504 
L 150.074863 313.837944 
L 149.776372 313.701383 
L 149.483778 313.564823 
L 149.196967 313.428263 
L 148.915823 313.291703 
L 148.640235 313.155143 
L 148.370092 313.018582 
L 148.105288 312.882022 
L 147.845716 312.745462 
L 147.591274 312.608902 
L 147.34186 312.472342 
L 147.097374 312.335781 
L 146.857719 312.199221 
L 146.622801 312.062661 
L 146.392524 311.926101 
L 146.166798 311.789541 
L 145.945532 311.65298 
L 145.728639 311.51642 
L 145.516032 311.37986 
L 145.307625 311.2433 
L 145.103338 311.10674 
L 144.903087 310.97018 
L 144.706793 310.833619 
L 144.514378 310.697059 
L 144.325765 310.560499 
L 144.14088 310.423939 
L 143.959647 310.287379 
L 143.781997 310.150818 
L 143.607856 310.014258 
L 143.437157 309.877698 
L 143.269831 309.741138 
L 143.105811 309.604578 
L 142.945033 309.468017 
L 142.787431 309.331457 
L 142.632944 309.194897 
L 142.48151 309.058337 
L 142.333068 308.921777 
L 142.18756 308.785216 
L 142.044926 308.648656 
L 141.905112 308.512096 
L 141.76806 308.375536 
L 141.633716 308.238976 
L 141.502028 308.102415 
L 141.502028 308.102415 
L 141.502028 202.982099 
z
" clip-path="url(#p546d46b1d1)" style="fill: #ff7f0e; fill-opacity: 0.5"/>
     </g>
     <g id="patch_5">
      <path d="M 571.340682 72.964375 
L 571.340682 321.621875 
M 579.040483 72.964375 
L 579.040483 321.621875 
" clip-path="url(#p546d46b1d1)" style="fill: none; stroke: #ffffff; stroke-width: 3; stroke-linejoin: miter"/>
      <path d="M 571.340682 72.964375 
L 571.340682 321.621875 
M 579.040483 72.964375 
L 579.040483 321.621875 
" clip-path="url(#p546d46b1d1)" style="fill: none; stroke: #2ca02c; stroke-linejoin: miter"/>
      <g id="PolyCollection_3">
       <path d="M 579.040483 72.964375 
L 571.340682 72.964375 
L 571.340682 321.621875 
L 579.040483 321.621875 
L 579.040483 321.621875 
L 579.040483 72.964375 
z
" clip-path="url(#p546d46b1d1)" style="fill: #2ca02c; fill-opacity: 0.5"/>
      </g>
      <g id="patch_6">
       <path d="M 448.412693 274.210657 
L 448.412693 283.856773 
L 448.804172 283.856773 
L 448.804172 285.34652 
L 448.412693 285.34652 
L 448.321734 301.369208 
L 447.726792 303.457111 
L 447.024691 305.127434 
L 446.174306 306.588967 
L 445.208147 307.841709 
L 443.953778 309.094452 
L 442.627006 310.138404 
L 440.977793 311.182356 
L 438.927778 312.226308 
L 436.379553 313.27026 
L 433.212041 314.314211 
L 429.274739 315.358163 
L 424.380567 316.402115 
L 418.29698 317.446067 
L 410.734917 318.490019 
L 401.33507 319.533971 
L 389.650808 320.577923 
L 375.126956 321.621875 
M 450.413586 274.210657 
L 450.413586 283.856773 
L 450.022107 283.856773 
L 450.022107 285.34652 
L 450.413586 285.34652 
L 450.504545 301.369208 
L 451.099487 303.457111 
L 451.801588 305.127434 
L 452.651973 306.588967 
L 453.618132 307.841709 
L 454.872501 309.094452 
L 456.199273 310.138404 
L 457.848486 311.182356 
L 459.898501 312.226308 
L 462.446726 313.27026 
L 465.614238 314.314211 
L 469.55154 315.358163 
L 474.445712 316.402115 
L 480.529299 317.446067 
L 488.091362 318.490019 
L 497.491209 319.533971 
L 509.175471 320.577923 
L 523.699323 321.621875 
L 523.699323 321.621875 
" clip-path="url(#p546d46b1d1)" style="fill: none; stroke: #ffffff; stroke-width: 3; stroke-linejoin: miter"/>
       <path d="M 448.412693 274.210657 
L 448.412693 283.856773 
L 448.804172 283.856773 
L 448.804172 285.34652 
L 448.412693 285.34652 
L 448.321734 301.369208 
L 447.726792 303.457111 
L 447.024691 305.127434 
L 446.174306 306.588967 
L 445.208147 307.841709 
L 443.953778 309.094452 
L 442.627006 310.138404 
L 440.977793 311.182356 
L 438.927778 312.226308 
L 436.379553 313.27026 
L 433.212041 314.314211 
L 429.274739 315.358163 
L 424.380567 316.402115 
L 418.29698 317.446067 
L 410.734917 318.490019 
L 401.33507 319.533971 
L 389.650808 320.577923 
L 375.126956 321.621875 
M 450.413586 274.210657 
L 450.413586 283.856773 
L 450.022107 283.856773 
L 450.022107 285.34652 
L 450.413586 285.34652 
L 450.504545 301.369208 
L 451.099487 303.457111 
L 451.801588 305.127434 
L 452.651973 306.588967 
L 453.618132 307.841709 
L 454.872501 309.094452 
L 456.199273 310.138404 
L 457.848486 311.182356 
L 459.898501 312.226308 
L 462.446726 313.27026 
L 465.614238 314.314211 
L 469.55154 315.358163 
L 474.445712 316.402115 
L 480.529299 317.446067 
L 488.091362 318.490019 
L 497.491209 319.533971 
L 509.175471 320.577923 
L 523.699323 321.621875 
L 523.699323 321.621875 
" clip-path="url(#p546d46b1d1)" style="fill: none; stroke: #d62728; stroke-linejoin: miter"/>
       <g id="PolyCollection_4">
        <path d="M 450.413586 274.210657 
L 448.412693 274.210657 
L 448.412693 283.856773 
L 448.804172 283.856773 
L 448.804172 285.34652 
L 448.412693 285.34652 
L 448.412693 300.951627 
L 448.412693 300.951627 
L 448.368203 301.160417 
L 448.321734 301.369208 
L 448.273199 301.577998 
L 448.222505 301.786788 
L 448.169558 301.995579 
L 448.114255 302.204369 
L 448.056493 302.413159 
L 447.996163 302.62195 
L 447.933149 302.83074 
L 447.867334 303.039531 
L 447.798591 303.248321 
L 447.726792 303.457111 
L 447.651799 303.665902 
L 447.573472 303.874692 
L 447.491661 304.083483 
L 447.406213 304.292273 
L 447.316964 304.501063 
L 447.223746 304.709854 
L 447.126383 304.918644 
L 447.024691 305.127434 
L 446.918476 305.336225 
L 446.807537 305.545015 
L 446.691665 305.753806 
L 446.57064 305.962596 
L 446.444234 306.171386 
L 446.312205 306.380177 
L 446.174306 306.588967 
L 446.030274 306.797758 
L 445.879837 307.006548 
L 445.72271 307.215338 
L 445.558595 307.424129 
L 445.387182 307.632919 
L 445.208147 307.841709 
L 445.021149 308.0505 
L 444.825836 308.25929 
L 444.621837 308.468081 
L 444.408766 308.676871 
L 444.18622 308.885661 
L 443.953778 309.094452 
L 443.710998 309.303242 
L 443.457422 309.512033 
L 443.192569 309.720823 
L 442.915939 309.929613 
L 442.627006 310.138404 
L 442.325225 310.347194 
L 442.010023 310.555985 
L 441.680804 310.764775 
L 441.336944 310.973565 
L 440.977793 311.182356 
L 440.602671 311.391146 
L 440.210866 311.599936 
L 439.801638 311.808727 
L 439.374212 312.017517 
L 438.927778 312.226308 
L 438.46149 312.435098 
L 437.974467 312.643888 
L 437.465785 312.852679 
L 436.934483 313.061469 
L 436.379553 313.27026 
L 435.799945 313.47905 
L 435.194562 313.68784 
L 434.562258 313.896631 
L 433.901834 314.105421 
L 433.212041 314.314211 
L 432.491573 314.523002 
L 431.739066 314.731792 
L 430.953094 314.940583 
L 430.13217 315.149373 
L 429.274739 315.358163 
L 428.379178 315.566954 
L 427.443791 315.775744 
L 426.466807 315.984535 
L 425.446377 316.193325 
L 424.380567 316.402115 
L 423.267361 316.610906 
L 422.10465 316.819696 
L 420.890232 317.028486 
L 419.62181 317.237277 
L 418.29698 317.446067 
L 416.913234 317.654858 
L 415.467953 317.863648 
L 413.9584 318.072438 
L 412.381716 318.281229 
L 410.734917 318.490019 
L 409.014884 318.69881 
L 407.218361 318.9076 
L 405.341946 319.11639 
L 403.382086 319.325181 
L 401.33507 319.533971 
L 399.197023 319.742762 
L 396.963896 319.951552 
L 394.631462 320.160342 
L 392.195303 320.369133 
L 389.650808 320.577923 
L 386.993158 320.786713 
L 384.217321 320.995504 
L 381.318042 321.204294 
L 378.289832 321.413085 
L 375.126956 321.621875 
L 523.699323 321.621875 
L 523.699323 321.621875 
L 520.536447 321.413085 
L 517.508237 321.204294 
L 514.608958 320.995504 
L 511.833121 320.786713 
L 509.175471 320.577923 
L 506.630976 320.369133 
L 504.194817 320.160342 
L 501.862383 319.951552 
L 499.629256 319.742762 
L 497.491209 319.533971 
L 495.444193 319.325181 
L 493.484333 319.11639 
L 491.607918 318.9076 
L 489.811395 318.69881 
L 488.091362 318.490019 
L 486.444563 318.281229 
L 484.867879 318.072438 
L 483.358326 317.863648 
L 481.913045 317.654858 
L 480.529299 317.446067 
L 479.204469 317.237277 
L 477.936047 317.028486 
L 476.721629 316.819696 
L 475.558918 316.610906 
L 474.445712 316.402115 
L 473.379902 316.193325 
L 472.359472 315.984535 
L 471.382488 315.775744 
L 470.447101 315.566954 
L 469.55154 315.358163 
L 468.694109 315.149373 
L 467.873185 314.940583 
L 467.087213 314.731792 
L 466.334706 314.523002 
L 465.614238 314.314211 
L 464.924445 314.105421 
L 464.264021 313.896631 
L 463.631717 313.68784 
L 463.026334 313.47905 
L 462.446726 313.27026 
L 461.891796 313.061469 
L 461.360493 312.852679 
L 460.851812 312.643888 
L 460.364789 312.435098 
L 459.898501 312.226308 
L 459.452067 312.017517 
L 459.024641 311.808727 
L 458.615413 311.599936 
L 458.223608 311.391146 
L 457.848486 311.182356 
L 457.489335 310.973565 
L 457.145475 310.764775 
L 456.816256 310.555985 
L 456.501054 310.347194 
L 456.199273 310.138404 
L 455.91034 309.929613 
L 455.63371 309.720823 
L 455.368857 309.512033 
L 455.115281 309.303242 
L 454.872501 309.094452 
L 454.640059 308.885661 
L 454.417513 308.676871 
L 454.204442 308.468081 
L 454.000443 308.25929 
L 453.80513 308.0505 
L 453.618132 307.841709 
L 453.439097 307.632919 
L 453.267684 307.424129 
L 453.103569 307.215338 
L 452.946442 307.006548 
L 452.796005 306.797758 
L 452.651973 306.588967 
L 452.514074 306.380177 
L 452.382045 306.171386 
L 452.255639 305.962596 
L 452.134614 305.753806 
L 452.018742 305.545015 
L 451.907803 305.336225 
L 451.801588 305.127434 
L 451.699895 304.918644 
L 451.602532 304.709854 
L 451.509315 304.501063 
L 451.420066 304.292273 
L 451.334617 304.083483 
L 451.252807 303.874692 
L 451.17448 303.665902 
L 451.099487 303.457111 
L 451.027688 303.248321 
L 450.958945 303.039531 
L 450.89313 302.83074 
L 450.830116 302.62195 
L 450.769786 302.413159 
L 450.712024 302.204369 
L 450.656721 301.995579 
L 450.603773 301.786788 
L 450.55308 301.577998 
L 450.504545 301.369208 
L 450.458076 301.160417 
L 450.413586 300.951627 
L 450.413586 300.951627 
L 450.413586 285.34652 
L 450.022107 285.34652 
L 450.022107 283.856773 
L 450.413586 283.856773 
L 450.413586 274.210657 
z
" clip-path="url(#p546d46b1d1)" style="fill: #d62728; fill-opacity: 0.5"/>
       </g>
       <g id="matplotlib.axis_1">
        <g id="xtick_1">
         <g id="line2d_1"/>
         <g id="text_1">
          <!-- OUT -->
          <g transform="translate(124.320314 332.720312) scale(0.1 -0.1)">
           <defs>
            <path id="DejaVuSans-4f" d="M 2522 4238 
Q 1834 4238 1429 3725 
Q 1025 3213 1025 2328 
Q 1025 1447 1429 934 
Q 1834 422 2522 422 
Q 3209 422 3611 934 
Q 4013 1447 4013 2328 
Q 4013 3213 3611 3725 
Q 3209 4238 2522 4238 
z
M 2522 4750 
Q 3503 4750 4090 4092 
Q 4678 3434 4678 2328 
Q 4678 1225 4090 567 
Q 3503 -91 2522 -91 
Q 1538 -91 948 565 
Q 359 1222 359 2328 
Q 359 3434 948 4092 
Q 1538 4750 2522 4750 
z
" transform="scale(0.015625)"/>
            <path id="DejaVuSans-55" d="M 556 4666 
L 1191 4666 
L 1191 1831 
Q 1191 1081 1462 751 
Q 1734 422 2344 422 
Q 2950 422 3222 751 
Q 3494 1081 3494 1831 
L 3494 4666 
L 4128 4666 
L 4128 1753 
Q 4128 841 3676 375 
Q 3225 -91 2344 -91 
Q 1459 -91 1007 375 
Q 556 841 556 1753 
L 556 4666 
z
" transform="scale(0.015625)"/>
            <path id="DejaVuSans-54" d="M -19 4666 
L 3928 4666 
L 3928 4134 
L 2272 4134 
L 2272 0 
L 1638 0 
L 1638 4134 
L -19 4134 
L -19 4666 
z
" transform="scale(0.015625)"/>
           </defs>
           <use xlink:href="#DejaVuSans-4f"/>
           <use xlink:href="#DejaVuSans-55" x="78.710938"/>
           <use xlink:href="#DejaVuSans-54" x="151.904297"/>
          </g>
         </g>
        </g>
        <g id="xtick_2">
         <g id="line2d_2"/>
         <g id="text_2">
          <!-- SRC -->
          <g transform="translate(565.300738 332.720312) scale(0.1 -0.1)">
           <defs>
            <path id="DejaVuSans-53" d="M 3425 4513 
L 3425 3897 
Q 3066 4069 2747 4153 
Q 2428 4238 2131 4238 
Q 1616 4238 1336 4038 
Q 1056 3838 1056 3469 
Q 1056 3159 1242 3001 
Q 1428 2844 1947 2747 
L 2328 2669 
Q 3034 2534 3370 2195 
Q 3706 1856 3706 1288 
Q 3706 609 3251 259 
Q 2797 -91 1919 -91 
Q 1588 -91 1214 -16 
Q 841 59 441 206 
L 441 856 
Q 825 641 1194 531 
Q 1563 422 1919 422 
Q 2459 422 2753 634 
Q 3047 847 3047 1241 
Q 3047 1584 2836 1778 
Q 2625 1972 2144 2069 
L 1759 2144 
Q 1053 2284 737 2584 
Q 422 2884 422 3419 
Q 422 4038 858 4394 
Q 1294 4750 2059 4750 
Q 2388 4750 2728 4690 
Q 3069 4631 3425 4513 
z
" transform="scale(0.015625)"/>
            <path id="DejaVuSans-52" d="M 2841 2188 
Q 3044 2119 3236 1894 
Q 3428 1669 3622 1275 
L 4263 0 
L 3584 0 
L 2988 1197 
Q 2756 1666 2539 1819 
Q 2322 1972 1947 1972 
L 1259 1972 
L 1259 0 
L 628 0 
L 628 4666 
L 2053 4666 
Q 2853 4666 3247 4331 
Q 3641 3997 3641 3322 
Q 3641 2881 3436 2590 
Q 3231 2300 2841 2188 
z
M 1259 4147 
L 1259 2491 
L 2053 2491 
Q 2509 2491 2742 2702 
Q 2975 2913 2975 3322 
Q 2975 3731 2742 3939 
Q 2509 4147 2053 4147 
L 1259 4147 
z
" transform="scale(0.015625)"/>
            <path id="DejaVuSans-43" d="M 4122 4306 
L 4122 3641 
Q 3803 3938 3442 4084 
Q 3081 4231 2675 4231 
Q 1875 4231 1450 3742 
Q 1025 3253 1025 2328 
Q 1025 1406 1450 917 
Q 1875 428 2675 428 
Q 3081 428 3442 575 
Q 3803 722 4122 1019 
L 4122 359 
Q 3791 134 3420 21 
Q 3050 -91 2638 -91 
Q 1578 -91 968 557 
Q 359 1206 359 2328 
Q 359 3453 968 4101 
Q 1578 4750 2638 4750 
Q 3056 4750 3426 4639 
Q 3797 4528 4122 4306 
z
" transform="scale(0.015625)"/>
           </defs>
           <use xlink:href="#DejaVuSans-53"/>
           <use xlink:href="#DejaVuSans-52" x="63.476562"/>
           <use xlink:href="#DejaVuSans-43" x="127.958984"/>
          </g>
         </g>
        </g>
        <g id="xtick_3">
         <g id="line2d_3"/>
         <g id="text_3">
          <!-- TAR -->
          <g transform="translate(439.852202 332.720312) scale(0.1 -0.1)">
           <defs>
            <path id="DejaVuSans-41" d="M 2188 4044 
L 1331 1722 
L 3047 1722 
L 2188 4044 
z
M 1831 4666 
L 2547 4666 
L 4325 0 
L 3669 0 
L 3244 1197 
L 1141 1197 
L 716 0 
L 50 0 
L 1831 4666 
z
" transform="scale(0.015625)"/>
           </defs>
           <use xlink:href="#DejaVuSans-54"/>
           <use xlink:href="#DejaVuSans-41" x="53.333984"/>
           <use xlink:href="#DejaVuSans-52" x="121.742188"/>
          </g>
         </g>
        </g>
       </g>
       <g id="matplotlib.axis_2">
        <g id="ytick_1">
         <g id="line2d_4">
          <defs>
           <path id="m035efd6faf" d="M 0 0 
L -3.5 0 
" style="stroke: #000000; stroke-width: 0.8"/>
          </defs>
          <g>
           <use xlink:href="#m035efd6faf" x="63.290625" y="321.621875" style="stroke: #000000; stroke-width: 0.8"/>
          </g>
         </g>
         <g id="text_4">
          <!-- 0 -->
          <g transform="translate(49.928125 325.421094) scale(0.1 -0.1)">
           <defs>
            <path id="DejaVuSans-30" d="M 2034 4250 
Q 1547 4250 1301 3770 
Q 1056 3291 1056 2328 
Q 1056 1369 1301 889 
Q 1547 409 2034 409 
Q 2525 409 2770 889 
Q 3016 1369 3016 2328 
Q 3016 3291 2770 3770 
Q 2525 4250 2034 4250 
z
M 2034 4750 
Q 2819 4750 3233 4129 
Q 3647 3509 3647 2328 
Q 3647 1150 3233 529 
Q 2819 -91 2034 -91 
Q 1250 -91 836 529 
Q 422 1150 422 2328 
Q 422 3509 836 4129 
Q 1250 4750 2034 4750 
z
" transform="scale(0.015625)"/>
           </defs>
           <use xlink:href="#DejaVuSans-30"/>
          </g>
         </g>
        </g>
        <g id="ytick_2">
         <g id="line2d_5">
          <g>
           <use xlink:href="#m035efd6faf" x="63.290625" y="284.378184" style="stroke: #000000; stroke-width: 0.8"/>
          </g>
         </g>
         <g id="text_5">
          <!-- 2000 -->
          <g transform="translate(30.840625 288.177403) scale(0.1 -0.1)">
           <defs>
            <path id="DejaVuSans-32" d="M 1228 531 
L 3431 531 
L 3431 0 
L 469 0 
L 469 531 
Q 828 903 1448 1529 
Q 2069 2156 2228 2338 
Q 2531 2678 2651 2914 
Q 2772 3150 2772 3378 
Q 2772 3750 2511 3984 
Q 2250 4219 1831 4219 
Q 1534 4219 1204 4116 
Q 875 4013 500 3803 
L 500 4441 
Q 881 4594 1212 4672 
Q 1544 4750 1819 4750 
Q 2544 4750 2975 4387 
Q 3406 4025 3406 3419 
Q 3406 3131 3298 2873 
Q 3191 2616 2906 2266 
Q 2828 2175 2409 1742 
Q 1991 1309 1228 531 
z
" transform="scale(0.015625)"/>
           </defs>
           <use xlink:href="#DejaVuSans-32"/>
           <use xlink:href="#DejaVuSans-30" x="63.623047"/>
           <use xlink:href="#DejaVuSans-30" x="127.246094"/>
           <use xlink:href="#DejaVuSans-30" x="190.869141"/>
          </g>
         </g>
        </g>
        <g id="ytick_3">
         <g id="line2d_6">
          <g>
           <use xlink:href="#m035efd6faf" x="63.290625" y="247.134494" style="stroke: #000000; stroke-width: 0.8"/>
          </g>
         </g>
         <g id="text_6">
          <!-- 4000 -->
          <g transform="translate(30.840625 250.933713) scale(0.1 -0.1)">
           <defs>
            <path id="DejaVuSans-34" d="M 2419 4116 
L 825 1625 
L 2419 1625 
L 2419 4116 
z
M 2253 4666 
L 3047 4666 
L 3047 1625 
L 3713 1625 
L 3713 1100 
L 3047 1100 
L 3047 0 
L 2419 0 
L 2419 1100 
L 313 1100 
L 313 1709 
L 2253 4666 
z
" transform="scale(0.015625)"/>
           </defs>
           <use xlink:href="#DejaVuSans-34"/>
           <use xlink:href="#DejaVuSans-30" x="63.623047"/>
           <use xlink:href="#DejaVuSans-30" x="127.246094"/>
           <use xlink:href="#DejaVuSans-30" x="190.869141"/>
          </g>
         </g>
        </g>
        <g id="ytick_4">
         <g id="line2d_7">
          <g>
           <use xlink:href="#m035efd6faf" x="63.290625" y="209.890803" style="stroke: #000000; stroke-width: 0.8"/>
          </g>
         </g>
         <g id="text_7">
          <!-- 6000 -->
          <g transform="translate(30.840625 213.690022) scale(0.1 -0.1)">
           <defs>
            <path id="DejaVuSans-36" d="M 2113 2584 
Q 1688 2584 1439 2293 
Q 1191 2003 1191 1497 
Q 1191 994 1439 701 
Q 1688 409 2113 409 
Q 2538 409 2786 701 
Q 3034 994 3034 1497 
Q 3034 2003 2786 2293 
Q 2538 2584 2113 2584 
z
M 3366 4563 
L 3366 3988 
Q 3128 4100 2886 4159 
Q 2644 4219 2406 4219 
Q 1781 4219 1451 3797 
Q 1122 3375 1075 2522 
Q 1259 2794 1537 2939 
Q 1816 3084 2150 3084 
Q 2853 3084 3261 2657 
Q 3669 2231 3669 1497 
Q 3669 778 3244 343 
Q 2819 -91 2113 -91 
Q 1303 -91 875 529 
Q 447 1150 447 2328 
Q 447 3434 972 4092 
Q 1497 4750 2381 4750 
Q 2619 4750 2861 4703 
Q 3103 4656 3366 4563 
z
" transform="scale(0.015625)"/>
           </defs>
           <use xlink:href="#DejaVuSans-36"/>
           <use xlink:href="#DejaVuSans-30" x="63.623047"/>
           <use xlink:href="#DejaVuSans-30" x="127.246094"/>
           <use xlink:href="#DejaVuSans-30" x="190.869141"/>
          </g>
         </g>
        </g>
        <g id="ytick_5">
         <g id="line2d_8">
          <g>
           <use xlink:href="#m035efd6faf" x="63.290625" y="172.647113" style="stroke: #000000; stroke-width: 0.8"/>
          </g>
         </g>
         <g id="text_8">
          <!-- 8000 -->
          <g transform="translate(30.840625 176.446332) scale(0.1 -0.1)">
           <defs>
            <path id="DejaVuSans-38" d="M 2034 2216 
Q 1584 2216 1326 1975 
Q 1069 1734 1069 1313 
Q 1069 891 1326 650 
Q 1584 409 2034 409 
Q 2484 409 2743 651 
Q 3003 894 3003 1313 
Q 3003 1734 2745 1975 
Q 2488 2216 2034 2216 
z
M 1403 2484 
Q 997 2584 770 2862 
Q 544 3141 544 3541 
Q 544 4100 942 4425 
Q 1341 4750 2034 4750 
Q 2731 4750 3128 4425 
Q 3525 4100 3525 3541 
Q 3525 3141 3298 2862 
Q 3072 2584 2669 2484 
Q 3125 2378 3379 2068 
Q 3634 1759 3634 1313 
Q 3634 634 3220 271 
Q 2806 -91 2034 -91 
Q 1263 -91 848 271 
Q 434 634 434 1313 
Q 434 1759 690 2068 
Q 947 2378 1403 2484 
z
M 1172 3481 
Q 1172 3119 1398 2916 
Q 1625 2713 2034 2713 
Q 2441 2713 2670 2916 
Q 2900 3119 2900 3481 
Q 2900 3844 2670 4047 
Q 2441 4250 2034 4250 
Q 1625 4250 1398 4047 
Q 1172 3844 1172 3481 
z
" transform="scale(0.015625)"/>
           </defs>
           <use xlink:href="#DejaVuSans-38"/>
           <use xlink:href="#DejaVuSans-30" x="63.623047"/>
           <use xlink:href="#DejaVuSans-30" x="127.246094"/>
           <use xlink:href="#DejaVuSans-30" x="190.869141"/>
          </g>
         </g>
        </g>
        <g id="ytick_6">
         <g id="line2d_9">
          <g>
           <use xlink:href="#m035efd6faf" x="63.290625" y="135.403422" style="stroke: #000000; stroke-width: 0.8"/>
          </g>
         </g>
         <g id="text_9">
          <!-- 10000 -->
          <g transform="translate(24.478125 139.202641) scale(0.1 -0.1)">
           <defs>
            <path id="DejaVuSans-31" d="M 794 531 
L 1825 531 
L 1825 4091 
L 703 3866 
L 703 4441 
L 1819 4666 
L 2450 4666 
L 2450 531 
L 3481 531 
L 3481 0 
L 794 0 
L 794 531 
z
" transform="scale(0.015625)"/>
           </defs>
           <use xlink:href="#DejaVuSans-31"/>
           <use xlink:href="#DejaVuSans-30" x="63.623047"/>
           <use xlink:href="#DejaVuSans-30" x="127.246094"/>
           <use xlink:href="#DejaVuSans-30" x="190.869141"/>
           <use xlink:href="#DejaVuSans-30" x="254.492188"/>
          </g>
         </g>
        </g>
        <g id="ytick_7">
         <g id="line2d_10">
          <g>
           <use xlink:href="#m035efd6faf" x="63.290625" y="98.159732" style="stroke: #000000; stroke-width: 0.8"/>
          </g>
         </g>
         <g id="text_10">
          <!-- 12000 -->
          <g transform="translate(24.478125 101.95895) scale(0.1 -0.1)">
           <use xlink:href="#DejaVuSans-31"/>
           <use xlink:href="#DejaVuSans-32" x="63.623047"/>
           <use xlink:href="#DejaVuSans-30" x="127.246094"/>
           <use xlink:href="#DejaVuSans-30" x="190.869141"/>
           <use xlink:href="#DejaVuSans-30" x="254.492188"/>
          </g>
         </g>
        </g>
        <g id="ytick_8">
         <g id="line2d_11">
          <g>
           <use xlink:href="#m035efd6faf" x="63.290625" y="60.916041" style="stroke: #000000; stroke-width: 0.8"/>
          </g>
         </g>
         <g id="text_11">
          <!-- 14000 -->
          <g transform="translate(24.478125 64.71526) scale(0.1 -0.1)">
           <use xlink:href="#DejaVuSans-31"/>
           <use xlink:href="#DejaVuSans-34" x="63.623047"/>
           <use xlink:href="#DejaVuSans-30" x="127.246094"/>
           <use xlink:href="#DejaVuSans-30" x="190.869141"/>
           <use xlink:href="#DejaVuSans-30" x="254.492188"/>
          </g>
         </g>
        </g>
        <g id="ytick_9">
         <g id="line2d_12">
          <g>
           <use xlink:href="#m035efd6faf" x="63.290625" y="23.672351" style="stroke: #000000; stroke-width: 0.8"/>
          </g>
         </g>
         <g id="text_12">
          <!-- 16000 -->
          <g transform="translate(24.478125 27.471569) scale(0.1 -0.1)">
           <use xlink:href="#DejaVuSans-31"/>
           <use xlink:href="#DejaVuSans-36" x="63.623047"/>
           <use xlink:href="#DejaVuSans-30" x="127.246094"/>
           <use xlink:href="#DejaVuSans-30" x="190.869141"/>
           <use xlink:href="#DejaVuSans-30" x="254.492188"/>
          </g>
         </g>
        </g>
        <g id="text_13">
         <!-- time ago (generations) -->
         <g transform="translate(18.398438 223.682031) rotate(-90) scale(0.1 -0.1)">
          <defs>
           <path id="DejaVuSans-74" d="M 1172 4494 
L 1172 3500 
L 2356 3500 
L 2356 3053 
L 1172 3053 
L 1172 1153 
Q 1172 725 1289 603 
Q 1406 481 1766 481 
L 2356 481 
L 2356 0 
L 1766 0 
Q 1100 0 847 248 
Q 594 497 594 1153 
L 594 3053 
L 172 3053 
L 172 3500 
L 594 3500 
L 594 4494 
L 1172 4494 
z
" transform="scale(0.015625)"/>
           <path id="DejaVuSans-69" d="M 603 3500 
L 1178 3500 
L 1178 0 
L 603 0 
L 603 3500 
z
M 603 4863 
L 1178 4863 
L 1178 4134 
L 603 4134 
L 603 4863 
z
" transform="scale(0.015625)"/>
           <path id="DejaVuSans-6d" d="M 3328 2828 
Q 3544 3216 3844 3400 
Q 4144 3584 4550 3584 
Q 5097 3584 5394 3201 
Q 5691 2819 5691 2113 
L 5691 0 
L 5113 0 
L 5113 2094 
Q 5113 2597 4934 2840 
Q 4756 3084 4391 3084 
Q 3944 3084 3684 2787 
Q 3425 2491 3425 1978 
L 3425 0 
L 2847 0 
L 2847 2094 
Q 2847 2600 2669 2842 
Q 2491 3084 2119 3084 
Q 1678 3084 1418 2786 
Q 1159 2488 1159 1978 
L 1159 0 
L 581 0 
L 581 3500 
L 1159 3500 
L 1159 2956 
Q 1356 3278 1631 3431 
Q 1906 3584 2284 3584 
Q 2666 3584 2933 3390 
Q 3200 3197 3328 2828 
z
" transform="scale(0.015625)"/>
           <path id="DejaVuSans-65" d="M 3597 1894 
L 3597 1613 
L 953 1613 
Q 991 1019 1311 708 
Q 1631 397 2203 397 
Q 2534 397 2845 478 
Q 3156 559 3463 722 
L 3463 178 
Q 3153 47 2828 -22 
Q 2503 -91 2169 -91 
Q 1331 -91 842 396 
Q 353 884 353 1716 
Q 353 2575 817 3079 
Q 1281 3584 2069 3584 
Q 2775 3584 3186 3129 
Q 3597 2675 3597 1894 
z
M 3022 2063 
Q 3016 2534 2758 2815 
Q 2500 3097 2075 3097 
Q 1594 3097 1305 2825 
Q 1016 2553 972 2059 
L 3022 2063 
z
" transform="scale(0.015625)"/>
           <path id="DejaVuSans-20" transform="scale(0.015625)"/>
           <path id="DejaVuSans-61" d="M 2194 1759 
Q 1497 1759 1228 1600 
Q 959 1441 959 1056 
Q 959 750 1161 570 
Q 1363 391 1709 391 
Q 2188 391 2477 730 
Q 2766 1069 2766 1631 
L 2766 1759 
L 2194 1759 
z
M 3341 1997 
L 3341 0 
L 2766 0 
L 2766 531 
Q 2569 213 2275 61 
Q 1981 -91 1556 -91 
Q 1019 -91 701 211 
Q 384 513 384 1019 
Q 384 1609 779 1909 
Q 1175 2209 1959 2209 
L 2766 2209 
L 2766 2266 
Q 2766 2663 2505 2880 
Q 2244 3097 1772 3097 
Q 1472 3097 1187 3025 
Q 903 2953 641 2809 
L 641 3341 
Q 956 3463 1253 3523 
Q 1550 3584 1831 3584 
Q 2591 3584 2966 3190 
Q 3341 2797 3341 1997 
z
" transform="scale(0.015625)"/>
           <path id="DejaVuSans-67" d="M 2906 1791 
Q 2906 2416 2648 2759 
Q 2391 3103 1925 3103 
Q 1463 3103 1205 2759 
Q 947 2416 947 1791 
Q 947 1169 1205 825 
Q 1463 481 1925 481 
Q 2391 481 2648 825 
Q 2906 1169 2906 1791 
z
M 3481 434 
Q 3481 -459 3084 -895 
Q 2688 -1331 1869 -1331 
Q 1566 -1331 1297 -1286 
Q 1028 -1241 775 -1147 
L 775 -588 
Q 1028 -725 1275 -790 
Q 1522 -856 1778 -856 
Q 2344 -856 2625 -561 
Q 2906 -266 2906 331 
L 2906 616 
Q 2728 306 2450 153 
Q 2172 0 1784 0 
Q 1141 0 747 490 
Q 353 981 353 1791 
Q 353 2603 747 3093 
Q 1141 3584 1784 3584 
Q 2172 3584 2450 3431 
Q 2728 3278 2906 2969 
L 2906 3500 
L 3481 3500 
L 3481 434 
z
" transform="scale(0.015625)"/>
           <path id="DejaVuSans-6f" d="M 1959 3097 
Q 1497 3097 1228 2736 
Q 959 2375 959 1747 
Q 959 1119 1226 758 
Q 1494 397 1959 397 
Q 2419 397 2687 759 
Q 2956 1122 2956 1747 
Q 2956 2369 2687 2733 
Q 2419 3097 1959 3097 
z
M 1959 3584 
Q 2709 3584 3137 3096 
Q 3566 2609 3566 1747 
Q 3566 888 3137 398 
Q 2709 -91 1959 -91 
Q 1206 -91 779 398 
Q 353 888 353 1747 
Q 353 2609 779 3096 
Q 1206 3584 1959 3584 
z
" transform="scale(0.015625)"/>
           <path id="DejaVuSans-28" d="M 1984 4856 
Q 1566 4138 1362 3434 
Q 1159 2731 1159 2009 
Q 1159 1288 1364 580 
Q 1569 -128 1984 -844 
L 1484 -844 
Q 1016 -109 783 600 
Q 550 1309 550 2009 
Q 550 2706 781 3412 
Q 1013 4119 1484 4856 
L 1984 4856 
z
" transform="scale(0.015625)"/>
           <path id="DejaVuSans-6e" d="M 3513 2113 
L 3513 0 
L 2938 0 
L 2938 2094 
Q 2938 2591 2744 2837 
Q 2550 3084 2163 3084 
Q 1697 3084 1428 2787 
Q 1159 2491 1159 1978 
L 1159 0 
L 581 0 
L 581 3500 
L 1159 3500 
L 1159 2956 
Q 1366 3272 1645 3428 
Q 1925 3584 2291 3584 
Q 2894 3584 3203 3211 
Q 3513 2838 3513 2113 
z
" transform="scale(0.015625)"/>
           <path id="DejaVuSans-72" d="M 2631 2963 
Q 2534 3019 2420 3045 
Q 2306 3072 2169 3072 
Q 1681 3072 1420 2755 
Q 1159 2438 1159 1844 
L 1159 0 
L 581 0 
L 581 3500 
L 1159 3500 
L 1159 2956 
Q 1341 3275 1631 3429 
Q 1922 3584 2338 3584 
Q 2397 3584 2469 3576 
Q 2541 3569 2628 3553 
L 2631 2963 
z
" transform="scale(0.015625)"/>
           <path id="DejaVuSans-73" d="M 2834 3397 
L 2834 2853 
Q 2591 2978 2328 3040 
Q 2066 3103 1784 3103 
Q 1356 3103 1142 2972 
Q 928 2841 928 2578 
Q 928 2378 1081 2264 
Q 1234 2150 1697 2047 
L 1894 2003 
Q 2506 1872 2764 1633 
Q 3022 1394 3022 966 
Q 3022 478 2636 193 
Q 2250 -91 1575 -91 
Q 1294 -91 989 -36 
Q 684 19 347 128 
L 347 722 
Q 666 556 975 473 
Q 1284 391 1588 391 
Q 1994 391 2212 530 
Q 2431 669 2431 922 
Q 2431 1156 2273 1281 
Q 2116 1406 1581 1522 
L 1381 1569 
Q 847 1681 609 1914 
Q 372 2147 372 2553 
Q 372 3047 722 3315 
Q 1072 3584 1716 3584 
Q 2034 3584 2315 3537 
Q 2597 3491 2834 3397 
z
" transform="scale(0.015625)"/>
           <path id="DejaVuSans-29" d="M 513 4856 
L 1013 4856 
Q 1481 4119 1714 3412 
Q 1947 2706 1947 2009 
Q 1947 1309 1714 600 
Q 1481 -109 1013 -844 
L 513 -844 
Q 928 -128 1133 580 
Q 1338 1288 1338 2009 
Q 1338 2731 1133 3434 
Q 928 4138 513 4856 
z
" transform="scale(0.015625)"/>
          </defs>
          <use xlink:href="#DejaVuSans-74"/>
          <use xlink:href="#DejaVuSans-69" x="39.208984"/>
          <use xlink:href="#DejaVuSans-6d" x="66.992188"/>
          <use xlink:href="#DejaVuSans-65" x="164.404297"/>
          <use xlink:href="#DejaVuSans-20" x="225.927734"/>
          <use xlink:href="#DejaVuSans-61" x="257.714844"/>
          <use xlink:href="#DejaVuSans-67" x="318.994141"/>
          <use xlink:href="#DejaVuSans-6f" x="382.470703"/>
          <use xlink:href="#DejaVuSans-20" x="443.652344"/>
          <use xlink:href="#DejaVuSans-28" x="475.439453"/>
          <use xlink:href="#DejaVuSans-67" x="514.453125"/>
          <use xlink:href="#DejaVuSans-65" x="577.929688"/>
          <use xlink:href="#DejaVuSans-6e" x="639.453125"/>
          <use xlink:href="#DejaVuSans-65" x="702.832031"/>
          <use xlink:href="#DejaVuSans-72" x="764.355469"/>
          <use xlink:href="#DejaVuSans-61" x="805.46875"/>
          <use xlink:href="#DejaVuSans-74" x="866.748047"/>
          <use xlink:href="#DejaVuSans-69" x="905.957031"/>
          <use xlink:href="#DejaVuSans-6f" x="933.740234"/>
          <use xlink:href="#DejaVuSans-6e" x="994.921875"/>
          <use xlink:href="#DejaVuSans-73" x="1058.300781"/>
          <use xlink:href="#DejaVuSans-29" x="1110.400391"/>
         </g>
        </g>
       </g>
       <g id="patch_7">
        <path d="M 309.857444 202.982099 
L 308.857444 202.950662 
L 307.857444 202.913722 
L 306.857444 202.815975 
L 305.857444 202.783454 
L 304.857444 202.709829 
L 303.857444 202.671264 
L 302.857444 202.63585 
L 301.857444 202.57821 
L 300.857444 202.507824 
L 299.857444 202.45586 
L 298.857444 202.39677 
L 297.857444 202.308449 
L 296.857444 202.262305 
L 295.857444 202.219894 
L 294.857444 202.189401 
L 293.857444 202.163356 
L 292.857444 202.142156 
L 291.857444 202.087855 
L 290.857444 202.059918 
L 289.857444 202.030194 
L 288.857444 202.004799 
L 287.857444 201.993598 
L 286.857444 201.983475 
L 285.857444 201.983679 
L 284.857444 201.993189 
L 283.857444 202.004842 
L 282.857444 202.035872 
L 281.857444 202.047039 
L 280.857444 202.077157 
L 279.857444 202.136934 
L 278.857444 202.174125 
L 277.857444 202.213222 
L 276.857444 202.255661 
L 275.857444 202.288426 
L 274.857444 202.355853 
L 273.857444 202.394979 
L 272.857444 202.437653 
L 271.857444 202.508234 
L 270.857444 202.544625 
L 269.857444 202.603028 
L 268.857444 202.71398 
L 267.857444 202.784639 
L 266.857444 202.897579 
L 265.857444 202.943351 
L 264.857444 203.004635 
L 263.857444 203.053134 
L 262.857444 203.133957 
L 261.857444 203.252476 
L 260.857444 203.322686 
L 259.857444 203.405949 
L 258.857444 203.439091 
L 257.857444 203.490328 
L 256.857444 203.558726 
L 255.857444 203.624942 
L 254.857444 203.701859 
L 253.857444 203.729174 
L 252.857444 203.755652 
L 251.857444 203.778302 
L 250.857444 203.797834 
L 249.857444 203.824228 
L 248.857444 203.873998 
L 247.857444 203.909072 
L 246.857444 203.944937 
L 245.857444 203.960305 
L 244.857444 203.976074 
L 243.857444 203.979486 
L 242.857444 203.981904 
L 241.857444 203.981418 
L 240.857444 203.979489 
L 239.857444 203.966232 
L 238.857444 203.957841 
L 237.857444 203.936304 
L 236.857444 203.913272 
L 235.857444 203.896038 
L 234.857444 203.877576 
L 233.857444 203.857123 
L 232.857444 203.840523 
L 231.857444 203.777745 
L 230.857444 203.70248 
L 229.857444 203.669841 
L 228.857444 203.602277 
L 227.857444 203.54823 
L 226.857444 203.514526 
L 225.857444 203.4244 
L 224.857444 203.395865 
L 223.857444 203.364379 
L 222.857444 203.333368 
L 221.857444 203.27856 
L 220.857444 203.213972 
L 219.857444 203.175777 
L 218.857444 203.079843 
L 217.857444 203.030585 
L 216.857444 202.986515 
L 215.857444 202.946392 
L 214.857444 202.838025 
L 213.857444 202.796397 
L 212.857444 202.734255 
L 211.857444 202.664293 
L 210.857444 202.559788 
L 209.857444 202.522801 
L 208.857444 202.476923 
L 207.857444 202.408429 
L 206.857444 202.359683 
L 205.857444 202.282086 
L 204.857444 202.251545 
L 203.857444 202.18203 
L 202.857444 202.158057 
L 201.857444 202.129436 
L 200.857444 202.087643 
L 199.857444 202.066067 
L 198.857444 202.052119 
L 197.857444 202.025396 
L 196.857444 202.016087 
L 195.857444 202.00364 
L 194.857444 201.992585 
L 193.857444 201.98692 
L 192.857444 201.982157 
L 191.857444 201.987704 
L 190.857444 202.000992 
L 189.857444 202.00851 
L 188.857444 202.033295 
L 187.857444 202.056863 
L 186.857444 202.093044 
L 185.857444 202.119006 
L 184.857444 202.141327 
L 183.857444 202.210087 
L 182.857444 202.284623 
L 181.857444 202.378602 
L 180.857444 202.429654 
L 179.857444 202.483588 
L 178.857444 202.518838 
L 177.857444 202.624926 
L 176.857444 202.677191 
L 175.857444 202.714097 
L 174.857444 202.745128 
L 173.857444 202.806284 
L 172.857444 202.873704 
L 171.857444 202.92261 
L 170.857444 202.987802 
L 169.857444 203.025989 
L 168.857444 203.067985 
L 167.857444 203.110003 
L 166.857444 203.169519 
L 165.857444 203.282679 
L 164.857444 203.33493 
L 163.857444 203.374347 
L 162.857444 203.421449 
L 161.857444 203.478228 
L 160.857444 203.510891 
L 159.857444 203.547069 
L 158.857444 203.57916 
L 157.857444 203.61344 
L 156.857444 203.671818 
L 155.857444 203.717003 
L 154.857444 203.746626 
L 153.857444 203.797012 
L 152.857444 203.82221 
L 151.857444 203.843261 
L 150.857444 203.878229 
L 149.857444 203.902519 
L 148.857444 203.916586 
L 147.857444 203.935527 
L 146.857444 203.951189 
L 145.857444 203.963741 
L 144.621234 203.969576 
" clip-path="url(#p546d46b1d1)" style="fill: none; stroke: #ffffff; stroke-width: 3; stroke-linecap: round"/>
        <path d="M 309.857444 202.982099 
L 308.857444 202.950662 
L 307.857444 202.913722 
L 306.857444 202.815975 
L 305.857444 202.783454 
L 304.857444 202.709829 
L 303.857444 202.671264 
L 302.857444 202.63585 
L 301.857444 202.57821 
L 300.857444 202.507824 
L 299.857444 202.45586 
L 298.857444 202.39677 
L 297.857444 202.308449 
L 296.857444 202.262305 
L 295.857444 202.219894 
L 294.857444 202.189401 
L 293.857444 202.163356 
L 292.857444 202.142156 
L 291.857444 202.087855 
L 290.857444 202.059918 
L 289.857444 202.030194 
L 288.857444 202.004799 
L 287.857444 201.993598 
L 286.857444 201.983475 
L 285.857444 201.983679 
L 284.857444 201.993189 
L 283.857444 202.004842 
L 282.857444 202.035872 
L 281.857444 202.047039 
L 280.857444 202.077157 
L 279.857444 202.136934 
L 278.857444 202.174125 
L 277.857444 202.213222 
L 276.857444 202.255661 
L 275.857444 202.288426 
L 274.857444 202.355853 
L 273.857444 202.394979 
L 272.857444 202.437653 
L 271.857444 202.508234 
L 270.857444 202.544625 
L 269.857444 202.603028 
L 268.857444 202.71398 
L 267.857444 202.784639 
L 266.857444 202.897579 
L 265.857444 202.943351 
L 264.857444 203.004635 
L 263.857444 203.053134 
L 262.857444 203.133957 
L 261.857444 203.252476 
L 260.857444 203.322686 
L 259.857444 203.405949 
L 258.857444 203.439091 
L 257.857444 203.490328 
L 256.857444 203.558726 
L 255.857444 203.624942 
L 254.857444 203.701859 
L 253.857444 203.729174 
L 252.857444 203.755652 
L 251.857444 203.778302 
L 250.857444 203.797834 
L 249.857444 203.824228 
L 248.857444 203.873998 
L 247.857444 203.909072 
L 246.857444 203.944937 
L 245.857444 203.960305 
L 244.857444 203.976074 
L 243.857444 203.979486 
L 242.857444 203.981904 
L 241.857444 203.981418 
L 240.857444 203.979489 
L 239.857444 203.966232 
L 238.857444 203.957841 
L 237.857444 203.936304 
L 236.857444 203.913272 
L 235.857444 203.896038 
L 234.857444 203.877576 
L 233.857444 203.857123 
L 232.857444 203.840523 
L 231.857444 203.777745 
L 230.857444 203.70248 
L 229.857444 203.669841 
L 228.857444 203.602277 
L 227.857444 203.54823 
L 226.857444 203.514526 
L 225.857444 203.4244 
L 224.857444 203.395865 
L 223.857444 203.364379 
L 222.857444 203.333368 
L 221.857444 203.27856 
L 220.857444 203.213972 
L 219.857444 203.175777 
L 218.857444 203.079843 
L 217.857444 203.030585 
L 216.857444 202.986515 
L 215.857444 202.946392 
L 214.857444 202.838025 
L 213.857444 202.796397 
L 212.857444 202.734255 
L 211.857444 202.664293 
L 210.857444 202.559788 
L 209.857444 202.522801 
L 208.857444 202.476923 
L 207.857444 202.408429 
L 206.857444 202.359683 
L 205.857444 202.282086 
L 204.857444 202.251545 
L 203.857444 202.18203 
L 202.857444 202.158057 
L 201.857444 202.129436 
L 200.857444 202.087643 
L 199.857444 202.066067 
L 198.857444 202.052119 
L 197.857444 202.025396 
L 196.857444 202.016087 
L 195.857444 202.00364 
L 194.857444 201.992585 
L 193.857444 201.98692 
L 192.857444 201.982157 
L 191.857444 201.987704 
L 190.857444 202.000992 
L 189.857444 202.00851 
L 188.857444 202.033295 
L 187.857444 202.056863 
L 186.857444 202.093044 
L 185.857444 202.119006 
L 184.857444 202.141327 
L 183.857444 202.210087 
L 182.857444 202.284623 
L 181.857444 202.378602 
L 180.857444 202.429654 
L 179.857444 202.483588 
L 178.857444 202.518838 
L 177.857444 202.624926 
L 176.857444 202.677191 
L 175.857444 202.714097 
L 174.857444 202.745128 
L 173.857444 202.806284 
L 172.857444 202.873704 
L 171.857444 202.92261 
L 170.857444 202.987802 
L 169.857444 203.025989 
L 168.857444 203.067985 
L 167.857444 203.110003 
L 166.857444 203.169519 
L 165.857444 203.282679 
L 164.857444 203.33493 
L 163.857444 203.374347 
L 162.857444 203.421449 
L 161.857444 203.478228 
L 160.857444 203.510891 
L 159.857444 203.547069 
L 158.857444 203.57916 
L 157.857444 203.61344 
L 156.857444 203.671818 
L 155.857444 203.717003 
L 154.857444 203.746626 
L 153.857444 203.797012 
L 152.857444 203.82221 
L 151.857444 203.843261 
L 150.857444 203.878229 
L 149.857444 203.902519 
L 148.857444 203.916586 
L 147.857444 203.935527 
L 146.857444 203.951189 
L 145.857444 203.963741 
L 144.621234 203.969576 
" clip-path="url(#p546d46b1d1)" style="fill: none; stroke: #1f77b4; stroke-linecap: round"/>
        <path d="M 148.621234 204.982099 
L 147.740866 204.506768 
L 146.862959 204.026514 
L 146.012246 203.491873 
L 144.710071 202.804425 
L 145.637424 202.77841 
L 146.549099 202.365691 
L 147.459363 201.950152 
L 148.801859 201.343347 
L 148.14696 201.982099 
L 148.094996 202.982099 
L 148.035906 204.982099 
z
" clip-path="url(#p546d46b1d1)" style="fill: #ffffff; stroke: #ffffff; stroke-width: 3; stroke-linecap: round"/>
        <path d="M 148.621234 204.982099 
L 147.740866 204.506768 
L 146.862959 204.026514 
L 146.012246 203.491873 
L 144.710071 202.804425 
L 145.637424 202.77841 
L 146.549099 202.365691 
L 147.459363 201.950152 
L 148.801859 201.343347 
L 148.14696 201.982099 
L 148.094996 202.982099 
L 148.035906 204.982099 
z
" clip-path="url(#p546d46b1d1)" style="fill: #ffffff; stroke: #1f77b4; stroke-linecap: round"/>
        <g id="patch_8">
         <path d="M 337.412976 72.964375 
L 338.412976 72.995811 
L 339.412976 73.032752 
L 340.412976 73.130498 
L 341.412976 73.16302 
L 342.412976 73.236645 
L 343.412976 73.27521 
L 344.412976 73.310623 
L 345.412976 73.368263 
L 346.412976 73.438649 
L 347.412976 73.490614 
L 348.412976 73.549703 
L 349.412976 73.638024 
L 350.412976 73.684169 
L 351.412976 73.72658 
L 352.412976 73.757072 
L 353.412976 73.783117 
L 354.412976 73.804317 
L 355.412976 73.858618 
L 356.412976 73.886556 
L 357.412976 73.91628 
L 358.412976 73.941675 
L 359.412976 73.952875 
L 360.412976 73.962999 
L 361.412976 73.962795 
L 362.412976 73.953285 
L 363.412976 73.941631 
L 364.412976 73.910602 
L 365.412976 73.899434 
L 366.412976 73.869317 
L 367.412976 73.80954 
L 368.412976 73.772348 
L 369.412976 73.733252 
L 370.412976 73.690812 
L 371.412976 73.658047 
L 372.412976 73.590621 
L 373.412976 73.551495 
L 374.412976 73.50882 
L 375.412976 73.43824 
L 376.412976 73.401849 
L 377.412976 73.343446 
L 378.412976 73.232493 
L 379.412976 73.161835 
L 380.412976 73.048895 
L 381.412976 73.003122 
L 382.412976 72.941839 
L 383.412976 72.89334 
L 384.412976 72.812517 
L 385.412976 72.693998 
L 386.412976 72.623787 
L 387.412976 72.540525 
L 388.412976 72.507383 
L 389.412976 72.456146 
L 390.412976 72.387747 
L 391.412976 72.321532 
L 392.412976 72.244615 
L 393.412976 72.217299 
L 394.412976 72.190822 
L 395.412976 72.168171 
L 396.412976 72.14864 
L 397.412976 72.122246 
L 398.412976 72.072475 
L 399.412976 72.037402 
L 400.412976 72.001536 
L 401.412976 71.986169 
L 402.412976 71.9704 
L 403.412976 71.966987 
L 404.412976 71.96457 
L 405.412976 71.965056 
L 406.412976 71.966985 
L 407.412976 71.980242 
L 408.412976 71.988633 
L 409.412976 72.010169 
L 410.412976 72.033202 
L 411.412976 72.050435 
L 412.412976 72.068898 
L 413.412976 72.08935 
L 414.412976 72.10595 
L 415.412976 72.168729 
L 416.412976 72.243994 
L 417.412976 72.276633 
L 418.412976 72.344197 
L 419.412976 72.398244 
L 420.412976 72.431948 
L 421.412976 72.522074 
L 422.412976 72.550609 
L 423.412976 72.582095 
L 424.412976 72.613106 
L 425.412976 72.667914 
L 426.412976 72.732501 
L 427.412976 72.770697 
L 428.412976 72.866631 
L 429.412976 72.915889 
L 430.412976 72.959958 
L 431.412976 73.000082 
L 432.412976 73.108449 
L 433.412976 73.150077 
L 434.412976 73.212219 
L 435.412976 73.282181 
L 436.412976 73.386685 
L 437.412976 73.423673 
L 438.412976 73.46955 
L 439.412976 73.538045 
L 440.412976 73.586791 
L 441.412976 73.664388 
L 442.412976 73.694929 
L 443.412976 73.764443 
L 444.412976 73.788416 
L 445.412976 73.817038 
L 446.412976 73.858831 
L 447.412976 73.880407 
L 448.412976 73.894355 
L 449.412976 73.921077 
L 450.412976 73.930387 
L 451.412976 73.942834 
L 452.412976 73.953889 
L 453.412976 73.959553 
L 454.412976 73.964317 
L 455.412976 73.958769 
L 456.412976 73.945481 
L 457.412976 73.937964 
L 458.412976 73.913179 
L 459.412976 73.88961 
L 460.412976 73.85343 
L 461.412976 73.827468 
L 462.412976 73.805146 
L 463.412976 73.736386 
L 464.412976 73.661851 
L 465.412976 73.567872 
L 466.412976 73.51682 
L 467.412976 73.462886 
L 468.412976 73.427635 
L 469.412976 73.321547 
L 470.412976 73.269283 
L 471.412976 73.232376 
L 472.412976 73.201345 
L 473.412976 73.14019 
L 474.412976 73.07277 
L 475.412976 73.023864 
L 476.412976 72.958672 
L 477.412976 72.920484 
L 478.412976 72.878488 
L 479.412976 72.836471 
L 480.412976 72.776955 
L 481.412976 72.663795 
L 482.412976 72.611544 
L 483.412976 72.572126 
L 484.412976 72.525025 
L 485.412976 72.468245 
L 486.412976 72.435582 
L 487.412976 72.399404 
L 488.412976 72.367314 
L 489.412976 72.333034 
L 490.412976 72.274656 
L 491.412976 72.229471 
L 492.412976 72.199847 
L 493.412976 72.149461 
L 494.412976 72.124264 
L 495.412976 72.103213 
L 496.412976 72.068245 
L 497.412976 72.043955 
L 498.412976 72.029888 
L 499.412976 72.010946 
L 500.412976 71.995285 
L 501.412976 71.982733 
L 502.412976 71.976897 
L 503.412976 71.970015 
L 504.412976 71.964841 
L 505.412976 71.966624 
L 506.412976 71.969349 
L 507.412976 71.980503 
L 508.412976 72.008738 
L 509.412976 72.052526 
L 510.412976 72.073215 
L 511.412976 72.114188 
L 512.412976 72.154263 
L 513.412976 72.173373 
L 514.412976 72.195882 
L 515.412976 72.262533 
L 516.412976 72.312243 
L 517.412976 72.385949 
L 518.412976 72.417263 
L 519.412976 72.493885 
L 520.412976 72.532183 
L 521.412976 72.6063 
L 522.412976 72.710358 
L 523.412976 72.780189 
L 524.412976 72.885423 
L 525.412976 72.940438 
L 526.412976 73.063913 
L 527.412976 73.134472 
L 528.412976 73.250311 
L 529.412976 73.300492 
L 530.412976 73.336096 
L 531.412976 73.427503 
L 532.412976 73.481011 
L 533.412976 73.568919 
L 534.412976 73.638104 
L 535.412976 73.684868 
L 536.412976 73.756912 
L 537.412976 73.807054 
L 538.412976 73.824444 
L 539.412976 73.851447 
L 540.412976 73.870874 
L 541.412976 73.890212 
L 542.412976 73.928461 
L 543.412976 73.944894 
L 544.412976 73.953263 
L 545.412976 73.957582 
L 546.412976 73.964137 
L 547.412976 73.961591 
L 548.412976 73.956132 
L 549.412976 73.939704 
L 550.412976 73.907769 
L 551.412976 73.869789 
L 552.412976 73.834985 
L 553.412976 73.771913 
L 554.412976 73.750486 
L 555.412976 73.699868 
L 556.412976 73.674911 
L 557.412976 73.619277 
L 558.412976 73.588048 
L 559.412976 73.537904 
L 560.412976 73.505411 
L 561.412976 73.424999 
L 562.412976 73.356073 
L 563.412976 73.240376 
L 564.412976 73.164897 
L 565.412976 73.049372 
L 566.412976 72.969888 
L 568.220184 72.861447 
" clip-path="url(#p546d46b1d1)" style="fill: none; stroke: #ffffff; stroke-width: 3; stroke-linecap: round"/>
         <path d="M 337.412976 72.964375 
L 338.412976 72.995811 
L 339.412976 73.032752 
L 340.412976 73.130498 
L 341.412976 73.16302 
L 342.412976 73.236645 
L 343.412976 73.27521 
L 344.412976 73.310623 
L 345.412976 73.368263 
L 346.412976 73.438649 
L 347.412976 73.490614 
L 348.412976 73.549703 
L 349.412976 73.638024 
L 350.412976 73.684169 
L 351.412976 73.72658 
L 352.412976 73.757072 
L 353.412976 73.783117 
L 354.412976 73.804317 
L 355.412976 73.858618 
L 356.412976 73.886556 
L 357.412976 73.91628 
L 358.412976 73.941675 
L 359.412976 73.952875 
L 360.412976 73.962999 
L 361.412976 73.962795 
L 362.412976 73.953285 
L 363.412976 73.941631 
L 364.412976 73.910602 
L 365.412976 73.899434 
L 366.412976 73.869317 
L 367.412976 73.80954 
L 368.412976 73.772348 
L 369.412976 73.733252 
L 370.412976 73.690812 
L 371.412976 73.658047 
L 372.412976 73.590621 
L 373.412976 73.551495 
L 374.412976 73.50882 
L 375.412976 73.43824 
L 376.412976 73.401849 
L 377.412976 73.343446 
L 378.412976 73.232493 
L 379.412976 73.161835 
L 380.412976 73.048895 
L 381.412976 73.003122 
L 382.412976 72.941839 
L 383.412976 72.89334 
L 384.412976 72.812517 
L 385.412976 72.693998 
L 386.412976 72.623787 
L 387.412976 72.540525 
L 388.412976 72.507383 
L 389.412976 72.456146 
L 390.412976 72.387747 
L 391.412976 72.321532 
L 392.412976 72.244615 
L 393.412976 72.217299 
L 394.412976 72.190822 
L 395.412976 72.168171 
L 396.412976 72.14864 
L 397.412976 72.122246 
L 398.412976 72.072475 
L 399.412976 72.037402 
L 400.412976 72.001536 
L 401.412976 71.986169 
L 402.412976 71.9704 
L 403.412976 71.966987 
L 404.412976 71.96457 
L 405.412976 71.965056 
L 406.412976 71.966985 
L 407.412976 71.980242 
L 408.412976 71.988633 
L 409.412976 72.010169 
L 410.412976 72.033202 
L 411.412976 72.050435 
L 412.412976 72.068898 
L 413.412976 72.08935 
L 414.412976 72.10595 
L 415.412976 72.168729 
L 416.412976 72.243994 
L 417.412976 72.276633 
L 418.412976 72.344197 
L 419.412976 72.398244 
L 420.412976 72.431948 
L 421.412976 72.522074 
L 422.412976 72.550609 
L 423.412976 72.582095 
L 424.412976 72.613106 
L 425.412976 72.667914 
L 426.412976 72.732501 
L 427.412976 72.770697 
L 428.412976 72.866631 
L 429.412976 72.915889 
L 430.412976 72.959958 
L 431.412976 73.000082 
L 432.412976 73.108449 
L 433.412976 73.150077 
L 434.412976 73.212219 
L 435.412976 73.282181 
L 436.412976 73.386685 
L 437.412976 73.423673 
L 438.412976 73.46955 
L 439.412976 73.538045 
L 440.412976 73.586791 
L 441.412976 73.664388 
L 442.412976 73.694929 
L 443.412976 73.764443 
L 444.412976 73.788416 
L 445.412976 73.817038 
L 446.412976 73.858831 
L 447.412976 73.880407 
L 448.412976 73.894355 
L 449.412976 73.921077 
L 450.412976 73.930387 
L 451.412976 73.942834 
L 452.412976 73.953889 
L 453.412976 73.959553 
L 454.412976 73.964317 
L 455.412976 73.958769 
L 456.412976 73.945481 
L 457.412976 73.937964 
L 458.412976 73.913179 
L 459.412976 73.88961 
L 460.412976 73.85343 
L 461.412976 73.827468 
L 462.412976 73.805146 
L 463.412976 73.736386 
L 464.412976 73.661851 
L 465.412976 73.567872 
L 466.412976 73.51682 
L 467.412976 73.462886 
L 468.412976 73.427635 
L 469.412976 73.321547 
L 470.412976 73.269283 
L 471.412976 73.232376 
L 472.412976 73.201345 
L 473.412976 73.14019 
L 474.412976 73.07277 
L 475.412976 73.023864 
L 476.412976 72.958672 
L 477.412976 72.920484 
L 478.412976 72.878488 
L 479.412976 72.836471 
L 480.412976 72.776955 
L 481.412976 72.663795 
L 482.412976 72.611544 
L 483.412976 72.572126 
L 484.412976 72.525025 
L 485.412976 72.468245 
L 486.412976 72.435582 
L 487.412976 72.399404 
L 488.412976 72.367314 
L 489.412976 72.333034 
L 490.412976 72.274656 
L 491.412976 72.229471 
L 492.412976 72.199847 
L 493.412976 72.149461 
L 494.412976 72.124264 
L 495.412976 72.103213 
L 496.412976 72.068245 
L 497.412976 72.043955 
L 498.412976 72.029888 
L 499.412976 72.010946 
L 500.412976 71.995285 
L 501.412976 71.982733 
L 502.412976 71.976897 
L 503.412976 71.970015 
L 504.412976 71.964841 
L 505.412976 71.966624 
L 506.412976 71.969349 
L 507.412976 71.980503 
L 508.412976 72.008738 
L 509.412976 72.052526 
L 510.412976 72.073215 
L 511.412976 72.114188 
L 512.412976 72.154263 
L 513.412976 72.173373 
L 514.412976 72.195882 
L 515.412976 72.262533 
L 516.412976 72.312243 
L 517.412976 72.385949 
L 518.412976 72.417263 
L 519.412976 72.493885 
L 520.412976 72.532183 
L 521.412976 72.6063 
L 522.412976 72.710358 
L 523.412976 72.780189 
L 524.412976 72.885423 
L 525.412976 72.940438 
L 526.412976 73.063913 
L 527.412976 73.134472 
L 528.412976 73.250311 
L 529.412976 73.300492 
L 530.412976 73.336096 
L 531.412976 73.427503 
L 532.412976 73.481011 
L 533.412976 73.568919 
L 534.412976 73.638104 
L 535.412976 73.684868 
L 536.412976 73.756912 
L 537.412976 73.807054 
L 538.412976 73.824444 
L 539.412976 73.851447 
L 540.412976 73.870874 
L 541.412976 73.890212 
L 542.412976 73.928461 
L 543.412976 73.944894 
L 544.412976 73.953263 
L 545.412976 73.957582 
L 546.412976 73.964137 
L 547.412976 73.961591 
L 548.412976 73.956132 
L 549.412976 73.939704 
L 550.412976 73.907769 
L 551.412976 73.869789 
L 552.412976 73.834985 
L 553.412976 73.771913 
L 554.412976 73.750486 
L 555.412976 73.699868 
L 556.412976 73.674911 
L 557.412976 73.619277 
L 558.412976 73.588048 
L 559.412976 73.537904 
L 560.412976 73.505411 
L 561.412976 73.424999 
L 562.412976 73.356073 
L 563.412976 73.240376 
L 564.412976 73.164897 
L 565.412976 73.049372 
L 566.412976 72.969888 
L 568.220184 72.861447 
" clip-path="url(#p546d46b1d1)" style="fill: none; stroke: #1f77b4; stroke-linecap: round"/>
         <path d="M 564.220184 70.964375 
L 565.100553 71.439706 
L 565.978459 71.91996 
L 566.829173 72.454601 
L 568.131347 73.142048 
L 567.203994 73.168063 
L 566.29232 73.580783 
L 565.382056 73.996322 
L 564.03956 74.603126 
L 564.694459 73.964375 
L 564.746423 72.964375 
L 564.805513 70.964375 
z
" clip-path="url(#p546d46b1d1)" style="fill: #ffffff; stroke: #ffffff; stroke-width: 3; stroke-linecap: round"/>
         <path d="M 564.220184 70.964375 
L 565.100553 71.439706 
L 565.978459 71.91996 
L 566.829173 72.454601 
L 568.131347 73.142048 
L 567.203994 73.168063 
L 566.29232 73.580783 
L 565.382056 73.996322 
L 564.03956 74.603126 
L 564.694459 73.964375 
L 564.746423 72.964375 
L 564.805513 70.964375 
z
" clip-path="url(#p546d46b1d1)" style="fill: #ffffff; stroke: #1f77b4; stroke-linecap: round"/>
         <g id="patch_9">
          <path d="M 143.501705 274.210657 
L 144.501705 274.242093 
L 145.501705 274.279034 
L 146.501705 274.37678 
L 147.501705 274.409302 
L 148.501705 274.482926 
L 149.501705 274.521492 
L 150.501705 274.556905 
L 151.501705 274.614545 
L 152.501705 274.684931 
L 153.501705 274.736896 
L 154.501705 274.795985 
L 155.501705 274.884306 
L 156.501705 274.930451 
L 157.501705 274.972862 
L 158.501705 275.003354 
L 159.501705 275.029399 
L 160.501705 275.050599 
L 161.501705 275.1049 
L 162.501705 275.132838 
L 163.501705 275.162562 
L 164.501705 275.187957 
L 165.501705 275.199157 
L 166.501705 275.209281 
L 167.501705 275.209077 
L 168.501705 275.199567 
L 169.501705 275.187913 
L 170.501705 275.156884 
L 171.501705 275.145716 
L 172.501705 275.115599 
L 173.501705 275.055822 
L 174.501705 275.01863 
L 175.501705 274.979534 
L 176.501705 274.937094 
L 177.501705 274.904329 
L 178.501705 274.836903 
L 179.501705 274.797777 
L 180.501705 274.755102 
L 181.501705 274.684522 
L 182.501705 274.648131 
L 183.501705 274.589728 
L 184.501705 274.478775 
L 185.501705 274.408117 
L 186.501705 274.295177 
L 187.501705 274.249404 
L 188.501705 274.188121 
L 189.501705 274.139621 
L 190.501705 274.058799 
L 191.501705 273.94028 
L 192.501705 273.870069 
L 193.501705 273.786807 
L 194.501705 273.753665 
L 195.501705 273.702428 
L 196.501705 273.634029 
L 197.501705 273.567814 
L 198.501705 273.490897 
L 199.501705 273.463581 
L 200.501705 273.437104 
L 201.501705 273.414453 
L 202.501705 273.394922 
L 203.501705 273.368528 
L 204.501705 273.318757 
L 205.501705 273.283684 
L 206.501705 273.247818 
L 207.501705 273.232451 
L 208.501705 273.216682 
L 209.501705 273.213269 
L 210.501705 273.210852 
L 211.501705 273.211338 
L 212.501705 273.213267 
L 213.501705 273.226524 
L 214.501705 273.234914 
L 215.501705 273.256451 
L 216.501705 273.279484 
L 217.501705 273.296717 
L 218.501705 273.31518 
L 219.501705 273.335632 
L 220.501705 273.352232 
L 221.501705 273.415011 
L 222.501705 273.490276 
L 223.501705 273.522915 
L 224.501705 273.590478 
L 225.501705 273.644526 
L 226.501705 273.67823 
L 227.501705 273.768356 
L 228.501705 273.796891 
L 229.501705 273.828377 
L 230.501705 273.859388 
L 231.501705 273.914196 
L 232.501705 273.978783 
L 233.501705 274.016979 
L 234.501705 274.112913 
L 235.501705 274.162171 
L 236.501705 274.20624 
L 237.501705 274.246364 
L 238.501705 274.354731 
L 239.501705 274.396359 
L 240.501705 274.4585 
L 241.501705 274.528463 
L 242.501705 274.632967 
L 243.501705 274.669955 
L 244.501705 274.715832 
L 245.501705 274.784327 
L 246.501705 274.833072 
L 247.501705 274.91067 
L 248.501705 274.941211 
L 249.501705 275.010725 
L 250.501705 275.034698 
L 251.501705 275.06332 
L 252.501705 275.105113 
L 253.501705 275.126689 
L 254.501705 275.140637 
L 255.501705 275.167359 
L 256.501705 275.176669 
L 257.501705 275.189116 
L 258.501705 275.20017 
L 259.501705 275.205835 
L 260.501705 275.210599 
L 261.501705 275.205051 
L 262.501705 275.191763 
L 263.501705 275.184246 
L 264.501705 275.159461 
L 265.501705 275.135892 
L 266.501705 275.099711 
L 267.501705 275.07375 
L 268.501705 275.051428 
L 269.501705 274.982668 
L 270.501705 274.908133 
L 271.501705 274.814154 
L 272.501705 274.763102 
L 273.501705 274.709168 
L 274.501705 274.673917 
L 275.501705 274.567829 
L 276.501705 274.515565 
L 277.501705 274.478658 
L 278.501705 274.447627 
L 279.501705 274.386472 
L 280.501705 274.319052 
L 281.501705 274.270146 
L 282.501705 274.204954 
L 283.501705 274.166766 
L 284.501705 274.12477 
L 285.501705 274.082753 
L 286.501705 274.023236 
L 287.501705 273.910077 
L 288.501705 273.857826 
L 289.501705 273.818408 
L 290.501705 273.771307 
L 291.501705 273.714527 
L 292.501705 273.681864 
L 293.501705 273.645686 
L 294.501705 273.613595 
L 295.501705 273.579316 
L 296.501705 273.520938 
L 297.501705 273.475753 
L 298.501705 273.446129 
L 299.501705 273.395743 
L 300.501705 273.370546 
L 301.501705 273.349495 
L 302.501705 273.314527 
L 303.501705 273.290237 
L 304.501705 273.27617 
L 305.501705 273.257228 
L 306.501705 273.241566 
L 307.501705 273.229015 
L 308.501705 273.223179 
L 309.501705 273.216297 
L 310.501705 273.211123 
L 311.501705 273.212905 
L 312.501705 273.215631 
L 313.501705 273.226785 
L 314.501705 273.25502 
L 315.501705 273.298808 
L 316.501705 273.319497 
L 317.501705 273.36047 
L 318.501705 273.400545 
L 319.501705 273.419655 
L 320.501705 273.442164 
L 321.501705 273.508815 
L 322.501705 273.558524 
L 323.501705 273.632231 
L 324.501705 273.663545 
L 325.501705 273.740167 
L 326.501705 273.778465 
L 327.501705 273.852582 
L 328.501705 273.95664 
L 329.501705 274.026471 
L 330.501705 274.131704 
L 331.501705 274.18672 
L 332.501705 274.310195 
L 333.501705 274.380754 
L 334.501705 274.496593 
L 335.501705 274.546774 
L 336.501705 274.582378 
L 337.501705 274.673785 
L 338.501705 274.727292 
L 339.501705 274.815201 
L 340.501705 274.884386 
L 341.501705 274.93115 
L 342.501705 275.003194 
L 343.501705 275.053336 
L 344.501705 275.070726 
L 345.501705 275.097729 
L 346.501705 275.117156 
L 347.501705 275.136494 
L 348.501705 275.174743 
L 349.501705 275.191176 
L 350.501705 275.199545 
L 351.501705 275.203864 
L 352.501705 275.210419 
L 353.501705 275.207873 
L 354.501705 275.202414 
L 355.501705 275.185986 
L 356.501705 275.154051 
L 357.501705 275.116071 
L 358.501705 275.081267 
L 359.501705 275.018195 
L 360.501705 274.996768 
L 361.501705 274.94615 
L 362.501705 274.921193 
L 363.501705 274.865559 
L 364.501705 274.83433 
L 365.501705 274.784186 
L 366.501705 274.751693 
L 367.501705 274.671281 
L 368.501705 274.602355 
L 369.501705 274.486658 
L 370.501705 274.411179 
L 371.501705 274.295654 
L 372.501705 274.21617 
L 373.501705 274.107728 
L 374.501705 274.068361 
L 375.501705 273.965493 
L 376.501705 273.865695 
L 377.501705 273.820198 
L 378.501705 273.785875 
L 379.501705 273.73392 
L 380.501705 273.694273 
L 381.501705 273.658759 
L 382.501705 273.591113 
L 383.501705 273.552032 
L 384.501705 273.501551 
L 385.501705 273.452245 
L 386.501705 273.401175 
L 387.501705 273.356936 
L 388.501705 273.334916 
L 389.501705 273.31936 
L 390.501705 273.276913 
L 391.501705 273.262045 
L 392.501705 273.239317 
L 393.501705 273.219001 
L 394.501705 273.213204 
L 395.501705 273.210722 
L 396.501705 273.213779 
L 397.501705 273.225375 
L 398.501705 273.242295 
L 399.501705 273.273956 
L 400.501705 273.288039 
L 401.501705 273.340711 
L 402.501705 273.3898 
L 403.501705 273.444501 
L 404.501705 273.488849 
L 405.501705 273.558841 
L 406.501705 273.609223 
L 407.501705 273.663131 
L 408.501705 273.73257 
L 409.501705 273.789957 
L 410.501705 273.840123 
L 411.501705 273.917285 
L 412.501705 273.975475 
L 413.501705 274.036113 
L 414.501705 274.073314 
L 415.501705 274.138406 
L 416.501705 274.243536 
L 417.501705 274.303838 
L 418.501705 274.40016 
L 419.501705 274.432163 
L 420.501705 274.48318 
L 421.501705 274.599972 
L 422.501705 274.635418 
L 423.501705 274.691299 
L 424.501705 274.721675 
L 425.501705 274.810061 
L 426.501705 274.854825 
L 427.501705 274.935713 
L 428.501705 274.995859 
L 429.501705 275.058945 
L 430.501705 275.081893 
L 431.501705 275.098063 
L 432.501705 275.126992 
L 433.501705 275.157343 
L 434.501705 275.169918 
L 435.501705 275.194797 
L 436.501705 275.206881 
L 437.501705 275.210643 
L 438.501705 275.206207 
L 439.501705 275.193868 
L 440.501705 275.179455 
L 441.501705 275.163382 
L 442.501705 275.127861 
L 443.501705 275.107927 
L 445.298705 275.051338 
" clip-path="url(#p546d46b1d1)" style="fill: none; stroke: #ffffff; stroke-width: 3; stroke-linecap: round"/>
          <path d="M 143.501705 274.210657 
L 144.501705 274.242093 
L 145.501705 274.279034 
L 146.501705 274.37678 
L 147.501705 274.409302 
L 148.501705 274.482926 
L 149.501705 274.521492 
L 150.501705 274.556905 
L 151.501705 274.614545 
L 152.501705 274.684931 
L 153.501705 274.736896 
L 154.501705 274.795985 
L 155.501705 274.884306 
L 156.501705 274.930451 
L 157.501705 274.972862 
L 158.501705 275.003354 
L 159.501705 275.029399 
L 160.501705 275.050599 
L 161.501705 275.1049 
L 162.501705 275.132838 
L 163.501705 275.162562 
L 164.501705 275.187957 
L 165.501705 275.199157 
L 166.501705 275.209281 
L 167.501705 275.209077 
L 168.501705 275.199567 
L 169.501705 275.187913 
L 170.501705 275.156884 
L 171.501705 275.145716 
L 172.501705 275.115599 
L 173.501705 275.055822 
L 174.501705 275.01863 
L 175.501705 274.979534 
L 176.501705 274.937094 
L 177.501705 274.904329 
L 178.501705 274.836903 
L 179.501705 274.797777 
L 180.501705 274.755102 
L 181.501705 274.684522 
L 182.501705 274.648131 
L 183.501705 274.589728 
L 184.501705 274.478775 
L 185.501705 274.408117 
L 186.501705 274.295177 
L 187.501705 274.249404 
L 188.501705 274.188121 
L 189.501705 274.139621 
L 190.501705 274.058799 
L 191.501705 273.94028 
L 192.501705 273.870069 
L 193.501705 273.786807 
L 194.501705 273.753665 
L 195.501705 273.702428 
L 196.501705 273.634029 
L 197.501705 273.567814 
L 198.501705 273.490897 
L 199.501705 273.463581 
L 200.501705 273.437104 
L 201.501705 273.414453 
L 202.501705 273.394922 
L 203.501705 273.368528 
L 204.501705 273.318757 
L 205.501705 273.283684 
L 206.501705 273.247818 
L 207.501705 273.232451 
L 208.501705 273.216682 
L 209.501705 273.213269 
L 210.501705 273.210852 
L 211.501705 273.211338 
L 212.501705 273.213267 
L 213.501705 273.226524 
L 214.501705 273.234914 
L 215.501705 273.256451 
L 216.501705 273.279484 
L 217.501705 273.296717 
L 218.501705 273.31518 
L 219.501705 273.335632 
L 220.501705 273.352232 
L 221.501705 273.415011 
L 222.501705 273.490276 
L 223.501705 273.522915 
L 224.501705 273.590478 
L 225.501705 273.644526 
L 226.501705 273.67823 
L 227.501705 273.768356 
L 228.501705 273.796891 
L 229.501705 273.828377 
L 230.501705 273.859388 
L 231.501705 273.914196 
L 232.501705 273.978783 
L 233.501705 274.016979 
L 234.501705 274.112913 
L 235.501705 274.162171 
L 236.501705 274.20624 
L 237.501705 274.246364 
L 238.501705 274.354731 
L 239.501705 274.396359 
L 240.501705 274.4585 
L 241.501705 274.528463 
L 242.501705 274.632967 
L 243.501705 274.669955 
L 244.501705 274.715832 
L 245.501705 274.784327 
L 246.501705 274.833072 
L 247.501705 274.91067 
L 248.501705 274.941211 
L 249.501705 275.010725 
L 250.501705 275.034698 
L 251.501705 275.06332 
L 252.501705 275.105113 
L 253.501705 275.126689 
L 254.501705 275.140637 
L 255.501705 275.167359 
L 256.501705 275.176669 
L 257.501705 275.189116 
L 258.501705 275.20017 
L 259.501705 275.205835 
L 260.501705 275.210599 
L 261.501705 275.205051 
L 262.501705 275.191763 
L 263.501705 275.184246 
L 264.501705 275.159461 
L 265.501705 275.135892 
L 266.501705 275.099711 
L 267.501705 275.07375 
L 268.501705 275.051428 
L 269.501705 274.982668 
L 270.501705 274.908133 
L 271.501705 274.814154 
L 272.501705 274.763102 
L 273.501705 274.709168 
L 274.501705 274.673917 
L 275.501705 274.567829 
L 276.501705 274.515565 
L 277.501705 274.478658 
L 278.501705 274.447627 
L 279.501705 274.386472 
L 280.501705 274.319052 
L 281.501705 274.270146 
L 282.501705 274.204954 
L 283.501705 274.166766 
L 284.501705 274.12477 
L 285.501705 274.082753 
L 286.501705 274.023236 
L 287.501705 273.910077 
L 288.501705 273.857826 
L 289.501705 273.818408 
L 290.501705 273.771307 
L 291.501705 273.714527 
L 292.501705 273.681864 
L 293.501705 273.645686 
L 294.501705 273.613595 
L 295.501705 273.579316 
L 296.501705 273.520938 
L 297.501705 273.475753 
L 298.501705 273.446129 
L 299.501705 273.395743 
L 300.501705 273.370546 
L 301.501705 273.349495 
L 302.501705 273.314527 
L 303.501705 273.290237 
L 304.501705 273.27617 
L 305.501705 273.257228 
L 306.501705 273.241566 
L 307.501705 273.229015 
L 308.501705 273.223179 
L 309.501705 273.216297 
L 310.501705 273.211123 
L 311.501705 273.212905 
L 312.501705 273.215631 
L 313.501705 273.226785 
L 314.501705 273.25502 
L 315.501705 273.298808 
L 316.501705 273.319497 
L 317.501705 273.36047 
L 318.501705 273.400545 
L 319.501705 273.419655 
L 320.501705 273.442164 
L 321.501705 273.508815 
L 322.501705 273.558524 
L 323.501705 273.632231 
L 324.501705 273.663545 
L 325.501705 273.740167 
L 326.501705 273.778465 
L 327.501705 273.852582 
L 328.501705 273.95664 
L 329.501705 274.026471 
L 330.501705 274.131704 
L 331.501705 274.18672 
L 332.501705 274.310195 
L 333.501705 274.380754 
L 334.501705 274.496593 
L 335.501705 274.546774 
L 336.501705 274.582378 
L 337.501705 274.673785 
L 338.501705 274.727292 
L 339.501705 274.815201 
L 340.501705 274.884386 
L 341.501705 274.93115 
L 342.501705 275.003194 
L 343.501705 275.053336 
L 344.501705 275.070726 
L 345.501705 275.097729 
L 346.501705 275.117156 
L 347.501705 275.136494 
L 348.501705 275.174743 
L 349.501705 275.191176 
L 350.501705 275.199545 
L 351.501705 275.203864 
L 352.501705 275.210419 
L 353.501705 275.207873 
L 354.501705 275.202414 
L 355.501705 275.185986 
L 356.501705 275.154051 
L 357.501705 275.116071 
L 358.501705 275.081267 
L 359.501705 275.018195 
L 360.501705 274.996768 
L 361.501705 274.94615 
L 362.501705 274.921193 
L 363.501705 274.865559 
L 364.501705 274.83433 
L 365.501705 274.784186 
L 366.501705 274.751693 
L 367.501705 274.671281 
L 368.501705 274.602355 
L 369.501705 274.486658 
L 370.501705 274.411179 
L 371.501705 274.295654 
L 372.501705 274.21617 
L 373.501705 274.107728 
L 374.501705 274.068361 
L 375.501705 273.965493 
L 376.501705 273.865695 
L 377.501705 273.820198 
L 378.501705 273.785875 
L 379.501705 273.73392 
L 380.501705 273.694273 
L 381.501705 273.658759 
L 382.501705 273.591113 
L 383.501705 273.552032 
L 384.501705 273.501551 
L 385.501705 273.452245 
L 386.501705 273.401175 
L 387.501705 273.356936 
L 388.501705 273.334916 
L 389.501705 273.31936 
L 390.501705 273.276913 
L 391.501705 273.262045 
L 392.501705 273.239317 
L 393.501705 273.219001 
L 394.501705 273.213204 
L 395.501705 273.210722 
L 396.501705 273.213779 
L 397.501705 273.225375 
L 398.501705 273.242295 
L 399.501705 273.273956 
L 400.501705 273.288039 
L 401.501705 273.340711 
L 402.501705 273.3898 
L 403.501705 273.444501 
L 404.501705 273.488849 
L 405.501705 273.558841 
L 406.501705 273.609223 
L 407.501705 273.663131 
L 408.501705 273.73257 
L 409.501705 273.789957 
L 410.501705 273.840123 
L 411.501705 273.917285 
L 412.501705 273.975475 
L 413.501705 274.036113 
L 414.501705 274.073314 
L 415.501705 274.138406 
L 416.501705 274.243536 
L 417.501705 274.303838 
L 418.501705 274.40016 
L 419.501705 274.432163 
L 420.501705 274.48318 
L 421.501705 274.599972 
L 422.501705 274.635418 
L 423.501705 274.691299 
L 424.501705 274.721675 
L 425.501705 274.810061 
L 426.501705 274.854825 
L 427.501705 274.935713 
L 428.501705 274.995859 
L 429.501705 275.058945 
L 430.501705 275.081893 
L 431.501705 275.098063 
L 432.501705 275.126992 
L 433.501705 275.157343 
L 434.501705 275.169918 
L 435.501705 275.194797 
L 436.501705 275.206881 
L 437.501705 275.210643 
L 438.501705 275.206207 
L 439.501705 275.193868 
L 440.501705 275.179455 
L 441.501705 275.163382 
L 442.501705 275.127861 
L 443.501705 275.107927 
L 445.298705 275.051338 
" clip-path="url(#p546d46b1d1)" style="fill: none; stroke: #ff7f0e; stroke-linecap: round"/>
          <path d="M 441.298705 272.210657 
L 442.179074 272.685988 
L 443.056981 273.166242 
L 443.907694 273.700883 
L 445.209869 274.38833 
L 444.282516 274.414345 
L 443.370841 274.827065 
L 442.460577 275.242604 
L 441.118081 275.849408 
L 441.77298 275.210657 
L 441.824944 274.210657 
L 441.884034 272.210657 
z
" clip-path="url(#p546d46b1d1)" style="fill: #ffffff; stroke: #ffffff; stroke-width: 3; stroke-linecap: round"/>
          <path d="M 441.298705 272.210657 
L 442.179074 272.685988 
L 443.056981 273.166242 
L 443.907694 273.700883 
L 445.209869 274.38833 
L 444.282516 274.414345 
L 443.370841 274.827065 
L 442.460577 275.242604 
L 441.118081 275.849408 
L 441.77298 275.210657 
L 441.824944 274.210657 
L 441.884034 272.210657 
z
" clip-path="url(#p546d46b1d1)" style="fill: #ffffff; stroke: #ff7f0e; stroke-linecap: round"/>
          <path d="M 455.81668 286.631428 
" clip-path="url(#p546d46b1d1)" style="fill: none; stroke-dasharray: 3.7,1.6; stroke-dashoffset: 0; stroke: #2ca02c"/>
          <path d="M 454.81668 286.631428 
L 456.81668 287.631428 
L 456.81668 285.631428 
z
" clip-path="url(#p546d46b1d1)" style="fill: #2ca02c; stroke: #2ca02c; stroke-linejoin: miter"/>
          <g id="patch_10">
           <path d="M 63.290625 321.621875 
L 63.290625 10.8 
" style="fill: none; stroke: #000000; stroke-width: 0.8; stroke-linejoin: miter; stroke-linecap: square"/>
          </g>
          <g id="text_14">
           <g id="patch_11">
            <path d="M 312.983353 113.730112 
L 334.28804 113.730112 
Q 336.28804 113.730112 336.28804 111.730112 
L 336.28804 102.051987 
Q 336.28804 100.051987 334.28804 100.051987 
L 312.983353 100.051987 
Q 310.983353 100.051987 310.983353 102.051987 
L 310.983353 111.730112 
Q 310.983353 113.730112 312.983353 113.730112 
z
" style="fill: #ffffff; opacity: 0.6"/>
           </g>
           <!-- ANC -->
           <g transform="translate(312.983353 109.650424) scale(0.1 -0.1)">
            <defs>
             <path id="DejaVuSans-4e" d="M 628 4666 
L 1478 4666 
L 3547 763 
L 3547 4666 
L 4159 4666 
L 4159 0 
L 3309 0 
L 1241 3903 
L 1241 0 
L 628 0 
L 628 4666 
z
" transform="scale(0.015625)"/>
            </defs>
            <use xlink:href="#DejaVuSans-41"/>
            <use xlink:href="#DejaVuSans-4e" x="68.408203"/>
            <use xlink:href="#DejaVuSans-43" x="143.212891"/>
           </g>
          </g>
         </g>
        </g>
        <defs>
         <clipPath id="p546d46b1d1">
          <rect x="63.290625" y="10.8" width="540.309375" height="310.821875"/>
         </clipPath>
        </defs>
       </g>
      </g>
     </g>
    </g>
   </g>
  </g>
 </g>
</svg>
