<?xml version="1.0" encoding="utf-8" standalone="no"?>
<!DOCTYPE svg PUBLIC "-//W3C//DTD SVG 1.1//EN"
  "http://www.w3.org/Graphics/SVG/1.1/DTD/svg11.dtd">
<svg xmlns:xlink="http://www.w3.org/1999/xlink" width="614.4pt" height="345.6pt" viewBox="0 0 614.4 345.6" xmlns="http://www.w3.org/2000/svg" version="1.1">
 <metadata>
  <rdf:RDF xmlns:dc="http://purl.org/dc/elements/1.1/" xmlns:cc="http://creativecommons.org/ns#" xmlns:rdf="http://www.w3.org/1999/02/22-rdf-syntax-ns#">
   <cc:Work>
    <dc:type rdf:resource="http://purl.org/dc/dcmitype/StillImage"/>
    <dc:date>2024-04-17T19:48:55.760408</dc:date>
    <dc:format>image/svg+xml</dc:format>
    <dc:creator>
     <cc:Agent>
      <dc:title>Matplotlib v3.7.1, https://matplotlib.org/</dc:title>
     </cc:Agent>
    </dc:creator>
   </cc:Work>
  </rdf:RDF>
 </metadata>
 <defs>
  <style type="text/css">*{stroke-linejoin: round; stroke-linecap: butt}</style>
 </defs>
 <g id="figure_1">
  <g id="patch_1">
   <path d="M 0 345.6 
L 614.4 345.6 
L 614.4 0 
L 0 0 
z
" style="fill: #ffffff"/>
  </g>
  <g id="axes_1">
   <g id="patch_2">
    <path d="M 63.290625 321.621875 
L 603.6 321.621875 
L 603.6 10.8 
L 63.290625 10.8 
z
" style="fill: #ffffff"/>
   </g>
   <path d="M 528.903727 296.477309 
L 527.903727 296.445873 
L 526.903727 296.408933 
L 525.903727 296.311186 
L 524.903727 296.278664 
L 523.903727 296.20504 
L 522.903727 296.166474 
L 521.903727 296.131061 
L 520.903727 296.073421 
L 519.903727 296.003035 
L 518.903727 295.951071 
L 517.903727 295.891981 
L 516.903727 295.80366 
L 515.903727 295.757516 
L 514.903727 295.715105 
L 513.903727 295.684612 
L 512.903727 295.658567 
L 511.903727 295.637367 
L 510.903727 295.583066 
L 509.903727 295.555128 
L 508.903727 295.525404 
L 507.903727 295.50001 
L 506.903727 295.488809 
L 505.903727 295.478685 
L 504.903727 295.47889 
L 503.903727 295.488399 
L 502.903727 295.500053 
L 501.903727 295.531082 
L 500.903727 295.54225 
L 499.903727 295.572368 
L 498.903727 295.632145 
L 497.903727 295.669336 
L 496.903727 295.708432 
L 495.903727 295.750872 
L 494.903727 295.783637 
L 493.903727 295.851063 
L 492.903727 295.890189 
L 491.903727 295.932864 
L 490.903727 296.003445 
L 489.903727 296.039835 
L 488.903727 296.098239 
L 487.903727 296.209191 
L 486.903727 296.279849 
L 485.903727 296.392789 
L 484.903727 296.438562 
L 483.903727 296.499845 
L 482.903727 296.548345 
L 481.903727 296.629167 
L 480.903727 296.747686 
L 479.903727 296.817897 
L 478.903727 296.901159 
L 477.903727 296.934301 
L 476.903727 296.985539 
L 475.903727 297.053937 
L 474.903727 297.120152 
L 473.903727 297.197069 
L 472.903727 297.224385 
L 471.903727 297.250862 
L 470.903727 297.273513 
L 469.903727 297.293044 
L 468.903727 297.319438 
L 467.903727 297.369209 
L 466.903727 297.404282 
L 465.903727 297.440148 
L 464.903727 297.455515 
L 463.903727 297.471284 
L 462.903727 297.474697 
L 461.903727 297.477115 
L 460.903727 297.476629 
L 459.858703 297.474699 
" clip-path="url(#p58318f4461)" style="fill: none; stroke-dasharray: 3.7,1.6; stroke-dashoffset: 0; stroke: #2ca02c"/>
   <g id="patch_3">
    <path d="M 261.612227 10.8 
L 261.612227 178.198091 
M 393.297035 10.8 
L 393.297035 178.198091 
" clip-path="url(#p58318f4461)" style="fill: none; stroke: #ffffff; stroke-width: 3; stroke-linejoin: miter"/>
    <path d="M 261.612227 10.8 
L 261.612227 178.198091 
M 393.297035 10.8 
L 393.297035 178.198091 
" clip-path="url(#p58318f4461)" style="fill: none; stroke: #1f77b4; stroke-linejoin: miter"/>
    <g id="PolyCollection_1">
     <path d="M 393.297035 10.8 
L 261.612227 10.8 
L 261.612227 178.198091 
L 393.297035 178.198091 
L 393.297035 178.198091 
L 393.297035 10.8 
z
" clip-path="url(#p58318f4461)" style="fill: #1f77b4; fill-opacity: 0.5"/>
    </g>
    <g id="patch_4">
     <path d="M 87.850142 178.198091 
L 87.850142 321.621875 
M 223.230588 178.198091 
L 223.230588 321.621875 
" clip-path="url(#p58318f4461)" style="fill: none; stroke: #ffffff; stroke-width: 3; stroke-linejoin: miter"/>
     <path d="M 87.850142 178.198091 
L 87.850142 321.621875 
M 223.230588 178.198091 
L 223.230588 321.621875 
" clip-path="url(#p58318f4461)" style="fill: none; stroke: #ff7f0e; stroke-linejoin: miter"/>
     <g id="PolyCollection_2">
      <path d="M 223.230588 178.198091 
L 87.850142 178.198091 
L 87.850142 321.621875 
L 223.230588 321.621875 
L 223.230588 321.621875 
L 223.230588 178.198091 
z
" clip-path="url(#p58318f4461)" style="fill: #ff7f0e; fill-opacity: 0.5"/>
     </g>
     <g id="patch_5">
      <path d="M 534.306821 72.964375 
L 534.306821 321.621875 
M 579.040483 72.964375 
L 579.040483 321.621875 
" clip-path="url(#p58318f4461)" style="fill: none; stroke: #ffffff; stroke-width: 3; stroke-linejoin: miter"/>
      <path d="M 534.306821 72.964375 
L 534.306821 321.621875 
M 579.040483 72.964375 
L 579.040483 321.621875 
" clip-path="url(#p58318f4461)" style="fill: none; stroke: #2ca02c; stroke-linejoin: miter"/>
      <g id="PolyCollection_3">
       <path d="M 579.040483 72.964375 
L 534.306821 72.964375 
L 534.306821 321.621875 
L 579.040483 321.621875 
L 579.040483 321.621875 
L 579.040483 72.964375 
z
" clip-path="url(#p58318f4461)" style="fill: #2ca02c; fill-opacity: 0.5"/>
      </g>
      <g id="patch_6">
       <path d="M 429.672674 286.744342 
L 429.672674 321.621875 
M 454.455609 286.744342 
L 454.455609 321.621875 
" clip-path="url(#p58318f4461)" style="fill: none; stroke: #ffffff; stroke-width: 3; stroke-linejoin: miter"/>
       <path d="M 429.672674 286.744342 
L 429.672674 321.621875 
M 454.455609 286.744342 
L 454.455609 321.621875 
" clip-path="url(#p58318f4461)" style="fill: none; stroke: #d62728; stroke-linejoin: miter"/>
       <g id="PolyCollection_4">
        <path d="M 454.455609 286.744342 
L 429.672674 286.744342 
L 429.672674 321.621875 
L 454.455609 321.621875 
L 454.455609 321.621875 
L 454.455609 286.744342 
z
" clip-path="url(#p58318f4461)" style="fill: #d62728; fill-opacity: 0.5"/>
       </g>
       <g id="matplotlib.axis_1">
        <g id="xtick_1">
         <g id="line2d_1"/>
         <g id="text_1">
          <!-- OUT -->
          <g transform="translate(144.891146 332.720312) scale(0.1 -0.1)">
           <defs>
            <path id="DejaVuSans-4f" d="M 2522 4238 
Q 1834 4238 1429 3725 
Q 1025 3213 1025 2328 
Q 1025 1447 1429 934 
Q 1834 422 2522 422 
Q 3209 422 3611 934 
Q 4013 1447 4013 2328 
Q 4013 3213 3611 3725 
Q 3209 4238 2522 4238 
z
M 2522 4750 
Q 3503 4750 4090 4092 
Q 4678 3434 4678 2328 
Q 4678 1225 4090 567 
Q 3503 -91 2522 -91 
Q 1538 -91 948 565 
Q 359 1222 359 2328 
Q 359 3434 948 4092 
Q 1538 4750 2522 4750 
z
" transform="scale(0.015625)"/>
            <path id="DejaVuSans-55" d="M 556 4666 
L 1191 4666 
L 1191 1831 
Q 1191 1081 1462 751 
Q 1734 422 2344 422 
Q 2950 422 3222 751 
Q 3494 1081 3494 1831 
L 3494 4666 
L 4128 4666 
L 4128 1753 
Q 4128 841 3676 375 
Q 3225 -91 2344 -91 
Q 1459 -91 1007 375 
Q 556 841 556 1753 
L 556 4666 
z
" transform="scale(0.015625)"/>
            <path id="DejaVuSans-54" d="M -19 4666 
L 3928 4666 
L 3928 4134 
L 2272 4134 
L 2272 0 
L 1638 0 
L 1638 4134 
L -19 4134 
L -19 4666 
z
" transform="scale(0.015625)"/>
           </defs>
           <use xlink:href="#DejaVuSans-4f"/>
           <use xlink:href="#DejaVuSans-55" x="78.710938"/>
           <use xlink:href="#DejaVuSans-54" x="151.904297"/>
          </g>
         </g>
        </g>
        <g id="xtick_2">
         <g id="line2d_2"/>
         <g id="text_2">
          <!-- SRC -->
          <g transform="translate(546.783808 332.720312) scale(0.1 -0.1)">
           <defs>
            <path id="DejaVuSans-53" d="M 3425 4513 
L 3425 3897 
Q 3066 4069 2747 4153 
Q 2428 4238 2131 4238 
Q 1616 4238 1336 4038 
Q 1056 3838 1056 3469 
Q 1056 3159 1242 3001 
Q 1428 2844 1947 2747 
L 2328 2669 
Q 3034 2534 3370 2195 
Q 3706 1856 3706 1288 
Q 3706 609 3251 259 
Q 2797 -91 1919 -91 
Q 1588 -91 1214 -16 
Q 841 59 441 206 
L 441 856 
Q 825 641 1194 531 
Q 1563 422 1919 422 
Q 2459 422 2753 634 
Q 3047 847 3047 1241 
Q 3047 1584 2836 1778 
Q 2625 1972 2144 2069 
L 1759 2144 
Q 1053 2284 737 2584 
Q 422 2884 422 3419 
Q 422 4038 858 4394 
Q 1294 4750 2059 4750 
Q 2388 4750 2728 4690 
Q 3069 4631 3425 4513 
z
" transform="scale(0.015625)"/>
            <path id="DejaVuSans-52" d="M 2841 2188 
Q 3044 2119 3236 1894 
Q 3428 1669 3622 1275 
L 4263 0 
L 3584 0 
L 2988 1197 
Q 2756 1666 2539 1819 
Q 2322 1972 1947 1972 
L 1259 1972 
L 1259 0 
L 628 0 
L 628 4666 
L 2053 4666 
Q 2853 4666 3247 4331 
Q 3641 3997 3641 3322 
Q 3641 2881 3436 2590 
Q 3231 2300 2841 2188 
z
M 1259 4147 
L 1259 2491 
L 2053 2491 
Q 2509 2491 2742 2702 
Q 2975 2913 2975 3322 
Q 2975 3731 2742 3939 
Q 2509 4147 2053 4147 
L 1259 4147 
z
" transform="scale(0.015625)"/>
            <path id="DejaVuSans-43" d="M 4122 4306 
L 4122 3641 
Q 3803 3938 3442 4084 
Q 3081 4231 2675 4231 
Q 1875 4231 1450 3742 
Q 1025 3253 1025 2328 
Q 1025 1406 1450 917 
Q 1875 428 2675 428 
Q 3081 428 3442 575 
Q 3803 722 4122 1019 
L 4122 359 
Q 3791 134 3420 21 
Q 3050 -91 2638 -91 
Q 1578 -91 968 557 
Q 359 1206 359 2328 
Q 359 3453 968 4101 
Q 1578 4750 2638 4750 
Q 3056 4750 3426 4639 
Q 3797 4528 4122 4306 
z
" transform="scale(0.015625)"/>
           </defs>
           <use xlink:href="#DejaVuSans-53"/>
           <use xlink:href="#DejaVuSans-52" x="63.476562"/>
           <use xlink:href="#DejaVuSans-43" x="127.958984"/>
          </g>
         </g>
        </g>
        <g id="xtick_3">
         <g id="line2d_3"/>
         <g id="text_3">
          <!-- TAR -->
          <g transform="translate(432.503204 332.720312) scale(0.1 -0.1)">
           <defs>
            <path id="DejaVuSans-41" d="M 2188 4044 
L 1331 1722 
L 3047 1722 
L 2188 4044 
z
M 1831 4666 
L 2547 4666 
L 4325 0 
L 3669 0 
L 3244 1197 
L 1141 1197 
L 716 0 
L 50 0 
L 1831 4666 
z
" transform="scale(0.015625)"/>
           </defs>
           <use xlink:href="#DejaVuSans-54"/>
           <use xlink:href="#DejaVuSans-41" x="53.333984"/>
           <use xlink:href="#DejaVuSans-52" x="121.742188"/>
          </g>
         </g>
        </g>
       </g>
       <g id="matplotlib.axis_2">
        <g id="ytick_1">
         <g id="line2d_4">
          <defs>
           <path id="m1df8d7a77c" d="M 0 0 
L -3.5 0 
" style="stroke: #000000; stroke-width: 0.8"/>
          </defs>
          <g>
           <use xlink:href="#m1df8d7a77c" x="63.290625" y="321.621875" style="stroke: #000000; stroke-width: 0.8"/>
          </g>
         </g>
         <g id="text_4">
          <!-- 0 -->
          <g transform="translate(49.928125 325.421094) scale(0.1 -0.1)">
           <defs>
            <path id="DejaVuSans-30" d="M 2034 4250 
Q 1547 4250 1301 3770 
Q 1056 3291 1056 2328 
Q 1056 1369 1301 889 
Q 1547 409 2034 409 
Q 2525 409 2770 889 
Q 3016 1369 3016 2328 
Q 3016 3291 2770 3770 
Q 2525 4250 2034 4250 
z
M 2034 4750 
Q 2819 4750 3233 4129 
Q 3647 3509 3647 2328 
Q 3647 1150 3233 529 
Q 2819 -91 2034 -91 
Q 1250 -91 836 529 
Q 422 1150 422 2328 
Q 422 3509 836 4129 
Q 1250 4750 2034 4750 
z
" transform="scale(0.015625)"/>
           </defs>
           <use xlink:href="#DejaVuSans-30"/>
          </g>
         </g>
        </g>
        <g id="ytick_2">
         <g id="line2d_5">
          <g>
           <use xlink:href="#m1df8d7a77c" x="63.290625" y="257.673336" style="stroke: #000000; stroke-width: 0.8"/>
          </g>
         </g>
         <g id="text_5">
          <!-- 5000 -->
          <g transform="translate(30.840625 261.472555) scale(0.1 -0.1)">
           <defs>
            <path id="DejaVuSans-35" d="M 691 4666 
L 3169 4666 
L 3169 4134 
L 1269 4134 
L 1269 2991 
Q 1406 3038 1543 3061 
Q 1681 3084 1819 3084 
Q 2600 3084 3056 2656 
Q 3513 2228 3513 1497 
Q 3513 744 3044 326 
Q 2575 -91 1722 -91 
Q 1428 -91 1123 -41 
Q 819 9 494 109 
L 494 744 
Q 775 591 1075 516 
Q 1375 441 1709 441 
Q 2250 441 2565 725 
Q 2881 1009 2881 1497 
Q 2881 1984 2565 2268 
Q 2250 2553 1709 2553 
Q 1456 2553 1204 2497 
Q 953 2441 691 2322 
L 691 4666 
z
" transform="scale(0.015625)"/>
           </defs>
           <use xlink:href="#DejaVuSans-35"/>
           <use xlink:href="#DejaVuSans-30" x="63.623047"/>
           <use xlink:href="#DejaVuSans-30" x="127.246094"/>
           <use xlink:href="#DejaVuSans-30" x="190.869141"/>
          </g>
         </g>
        </g>
        <g id="ytick_3">
         <g id="line2d_6">
          <g>
           <use xlink:href="#m1df8d7a77c" x="63.290625" y="193.724797" style="stroke: #000000; stroke-width: 0.8"/>
          </g>
         </g>
         <g id="text_6">
          <!-- 10000 -->
          <g transform="translate(24.478125 197.524015) scale(0.1 -0.1)">
           <defs>
            <path id="DejaVuSans-31" d="M 794 531 
L 1825 531 
L 1825 4091 
L 703 3866 
L 703 4441 
L 1819 4666 
L 2450 4666 
L 2450 531 
L 3481 531 
L 3481 0 
L 794 0 
L 794 531 
z
" transform="scale(0.015625)"/>
           </defs>
           <use xlink:href="#DejaVuSans-31"/>
           <use xlink:href="#DejaVuSans-30" x="63.623047"/>
           <use xlink:href="#DejaVuSans-30" x="127.246094"/>
           <use xlink:href="#DejaVuSans-30" x="190.869141"/>
           <use xlink:href="#DejaVuSans-30" x="254.492188"/>
          </g>
         </g>
        </g>
        <g id="ytick_4">
         <g id="line2d_7">
          <g>
           <use xlink:href="#m1df8d7a77c" x="63.290625" y="129.776257" style="stroke: #000000; stroke-width: 0.8"/>
          </g>
         </g>
         <g id="text_7">
          <!-- 15000 -->
          <g transform="translate(24.478125 133.575476) scale(0.1 -0.1)">
           <use xlink:href="#DejaVuSans-31"/>
           <use xlink:href="#DejaVuSans-35" x="63.623047"/>
           <use xlink:href="#DejaVuSans-30" x="127.246094"/>
           <use xlink:href="#DejaVuSans-30" x="190.869141"/>
           <use xlink:href="#DejaVuSans-30" x="254.492188"/>
          </g>
         </g>
        </g>
        <g id="ytick_5">
         <g id="line2d_8">
          <g>
           <use xlink:href="#m1df8d7a77c" x="63.290625" y="65.827718" style="stroke: #000000; stroke-width: 0.8"/>
          </g>
         </g>
         <g id="text_8">
          <!-- 20000 -->
          <g transform="translate(24.478125 69.626937) scale(0.1 -0.1)">
           <defs>
            <path id="DejaVuSans-32" d="M 1228 531 
L 3431 531 
L 3431 0 
L 469 0 
L 469 531 
Q 828 903 1448 1529 
Q 2069 2156 2228 2338 
Q 2531 2678 2651 2914 
Q 2772 3150 2772 3378 
Q 2772 3750 2511 3984 
Q 2250 4219 1831 4219 
Q 1534 4219 1204 4116 
Q 875 4013 500 3803 
L 500 4441 
Q 881 4594 1212 4672 
Q 1544 4750 1819 4750 
Q 2544 4750 2975 4387 
Q 3406 4025 3406 3419 
Q 3406 3131 3298 2873 
Q 3191 2616 2906 2266 
Q 2828 2175 2409 1742 
Q 1991 1309 1228 531 
z
" transform="scale(0.015625)"/>
           </defs>
           <use xlink:href="#DejaVuSans-32"/>
           <use xlink:href="#DejaVuSans-30" x="63.623047"/>
           <use xlink:href="#DejaVuSans-30" x="127.246094"/>
           <use xlink:href="#DejaVuSans-30" x="190.869141"/>
           <use xlink:href="#DejaVuSans-30" x="254.492188"/>
          </g>
         </g>
        </g>
        <g id="text_9">
         <!-- time ago (generations) -->
         <g transform="translate(18.398438 223.682031) rotate(-90) scale(0.1 -0.1)">
          <defs>
           <path id="DejaVuSans-74" d="M 1172 4494 
L 1172 3500 
L 2356 3500 
L 2356 3053 
L 1172 3053 
L 1172 1153 
Q 1172 725 1289 603 
Q 1406 481 1766 481 
L 2356 481 
L 2356 0 
L 1766 0 
Q 1100 0 847 248 
Q 594 497 594 1153 
L 594 3053 
L 172 3053 
L 172 3500 
L 594 3500 
L 594 4494 
L 1172 4494 
z
" transform="scale(0.015625)"/>
           <path id="DejaVuSans-69" d="M 603 3500 
L 1178 3500 
L 1178 0 
L 603 0 
L 603 3500 
z
M 603 4863 
L 1178 4863 
L 1178 4134 
L 603 4134 
L 603 4863 
z
" transform="scale(0.015625)"/>
           <path id="DejaVuSans-6d" d="M 3328 2828 
Q 3544 3216 3844 3400 
Q 4144 3584 4550 3584 
Q 5097 3584 5394 3201 
Q 5691 2819 5691 2113 
L 5691 0 
L 5113 0 
L 5113 2094 
Q 5113 2597 4934 2840 
Q 4756 3084 4391 3084 
Q 3944 3084 3684 2787 
Q 3425 2491 3425 1978 
L 3425 0 
L 2847 0 
L 2847 2094 
Q 2847 2600 2669 2842 
Q 2491 3084 2119 3084 
Q 1678 3084 1418 2786 
Q 1159 2488 1159 1978 
L 1159 0 
L 581 0 
L 581 3500 
L 1159 3500 
L 1159 2956 
Q 1356 3278 1631 3431 
Q 1906 3584 2284 3584 
Q 2666 3584 2933 3390 
Q 3200 3197 3328 2828 
z
" transform="scale(0.015625)"/>
           <path id="DejaVuSans-65" d="M 3597 1894 
L 3597 1613 
L 953 1613 
Q 991 1019 1311 708 
Q 1631 397 2203 397 
Q 2534 397 2845 478 
Q 3156 559 3463 722 
L 3463 178 
Q 3153 47 2828 -22 
Q 2503 -91 2169 -91 
Q 1331 -91 842 396 
Q 353 884 353 1716 
Q 353 2575 817 3079 
Q 1281 3584 2069 3584 
Q 2775 3584 3186 3129 
Q 3597 2675 3597 1894 
z
M 3022 2063 
Q 3016 2534 2758 2815 
Q 2500 3097 2075 3097 
Q 1594 3097 1305 2825 
Q 1016 2553 972 2059 
L 3022 2063 
z
" transform="scale(0.015625)"/>
           <path id="DejaVuSans-20" transform="scale(0.015625)"/>
           <path id="DejaVuSans-61" d="M 2194 1759 
Q 1497 1759 1228 1600 
Q 959 1441 959 1056 
Q 959 750 1161 570 
Q 1363 391 1709 391 
Q 2188 391 2477 730 
Q 2766 1069 2766 1631 
L 2766 1759 
L 2194 1759 
z
M 3341 1997 
L 3341 0 
L 2766 0 
L 2766 531 
Q 2569 213 2275 61 
Q 1981 -91 1556 -91 
Q 1019 -91 701 211 
Q 384 513 384 1019 
Q 384 1609 779 1909 
Q 1175 2209 1959 2209 
L 2766 2209 
L 2766 2266 
Q 2766 2663 2505 2880 
Q 2244 3097 1772 3097 
Q 1472 3097 1187 3025 
Q 903 2953 641 2809 
L 641 3341 
Q 956 3463 1253 3523 
Q 1550 3584 1831 3584 
Q 2591 3584 2966 3190 
Q 3341 2797 3341 1997 
z
" transform="scale(0.015625)"/>
           <path id="DejaVuSans-67" d="M 2906 1791 
Q 2906 2416 2648 2759 
Q 2391 3103 1925 3103 
Q 1463 3103 1205 2759 
Q 947 2416 947 1791 
Q 947 1169 1205 825 
Q 1463 481 1925 481 
Q 2391 481 2648 825 
Q 2906 1169 2906 1791 
z
M 3481 434 
Q 3481 -459 3084 -895 
Q 2688 -1331 1869 -1331 
Q 1566 -1331 1297 -1286 
Q 1028 -1241 775 -1147 
L 775 -588 
Q 1028 -725 1275 -790 
Q 1522 -856 1778 -856 
Q 2344 -856 2625 -561 
Q 2906 -266 2906 331 
L 2906 616 
Q 2728 306 2450 153 
Q 2172 0 1784 0 
Q 1141 0 747 490 
Q 353 981 353 1791 
Q 353 2603 747 3093 
Q 1141 3584 1784 3584 
Q 2172 3584 2450 3431 
Q 2728 3278 2906 2969 
L 2906 3500 
L 3481 3500 
L 3481 434 
z
" transform="scale(0.015625)"/>
           <path id="DejaVuSans-6f" d="M 1959 3097 
Q 1497 3097 1228 2736 
Q 959 2375 959 1747 
Q 959 1119 1226 758 
Q 1494 397 1959 397 
Q 2419 397 2687 759 
Q 2956 1122 2956 1747 
Q 2956 2369 2687 2733 
Q 2419 3097 1959 3097 
z
M 1959 3584 
Q 2709 3584 3137 3096 
Q 3566 2609 3566 1747 
Q 3566 888 3137 398 
Q 2709 -91 1959 -91 
Q 1206 -91 779 398 
Q 353 888 353 1747 
Q 353 2609 779 3096 
Q 1206 3584 1959 3584 
z
" transform="scale(0.015625)"/>
           <path id="DejaVuSans-28" d="M 1984 4856 
Q 1566 4138 1362 3434 
Q 1159 2731 1159 2009 
Q 1159 1288 1364 580 
Q 1569 -128 1984 -844 
L 1484 -844 
Q 1016 -109 783 600 
Q 550 1309 550 2009 
Q 550 2706 781 3412 
Q 1013 4119 1484 4856 
L 1984 4856 
z
" transform="scale(0.015625)"/>
           <path id="DejaVuSans-6e" d="M 3513 2113 
L 3513 0 
L 2938 0 
L 2938 2094 
Q 2938 2591 2744 2837 
Q 2550 3084 2163 3084 
Q 1697 3084 1428 2787 
Q 1159 2491 1159 1978 
L 1159 0 
L 581 0 
L 581 3500 
L 1159 3500 
L 1159 2956 
Q 1366 3272 1645 3428 
Q 1925 3584 2291 3584 
Q 2894 3584 3203 3211 
Q 3513 2838 3513 2113 
z
" transform="scale(0.015625)"/>
           <path id="DejaVuSans-72" d="M 2631 2963 
Q 2534 3019 2420 3045 
Q 2306 3072 2169 3072 
Q 1681 3072 1420 2755 
Q 1159 2438 1159 1844 
L 1159 0 
L 581 0 
L 581 3500 
L 1159 3500 
L 1159 2956 
Q 1341 3275 1631 3429 
Q 1922 3584 2338 3584 
Q 2397 3584 2469 3576 
Q 2541 3569 2628 3553 
L 2631 2963 
z
" transform="scale(0.015625)"/>
           <path id="DejaVuSans-73" d="M 2834 3397 
L 2834 2853 
Q 2591 2978 2328 3040 
Q 2066 3103 1784 3103 
Q 1356 3103 1142 2972 
Q 928 2841 928 2578 
Q 928 2378 1081 2264 
Q 1234 2150 1697 2047 
L 1894 2003 
Q 2506 1872 2764 1633 
Q 3022 1394 3022 966 
Q 3022 478 2636 193 
Q 2250 -91 1575 -91 
Q 1294 -91 989 -36 
Q 684 19 347 128 
L 347 722 
Q 666 556 975 473 
Q 1284 391 1588 391 
Q 1994 391 2212 530 
Q 2431 669 2431 922 
Q 2431 1156 2273 1281 
Q 2116 1406 1581 1522 
L 1381 1569 
Q 847 1681 609 1914 
Q 372 2147 372 2553 
Q 372 3047 722 3315 
Q 1072 3584 1716 3584 
Q 2034 3584 2315 3537 
Q 2597 3491 2834 3397 
z
" transform="scale(0.015625)"/>
           <path id="DejaVuSans-29" d="M 513 4856 
L 1013 4856 
Q 1481 4119 1714 3412 
Q 1947 2706 1947 2009 
Q 1947 1309 1714 600 
Q 1481 -109 1013 -844 
L 513 -844 
Q 928 -128 1133 580 
Q 1338 1288 1338 2009 
Q 1338 2731 1133 3434 
Q 928 4138 513 4856 
z
" transform="scale(0.015625)"/>
          </defs>
          <use xlink:href="#DejaVuSans-74"/>
          <use xlink:href="#DejaVuSans-69" x="39.208984"/>
          <use xlink:href="#DejaVuSans-6d" x="66.992188"/>
          <use xlink:href="#DejaVuSans-65" x="164.404297"/>
          <use xlink:href="#DejaVuSans-20" x="225.927734"/>
          <use xlink:href="#DejaVuSans-61" x="257.714844"/>
          <use xlink:href="#DejaVuSans-67" x="318.994141"/>
          <use xlink:href="#DejaVuSans-6f" x="382.470703"/>
          <use xlink:href="#DejaVuSans-20" x="443.652344"/>
          <use xlink:href="#DejaVuSans-28" x="475.439453"/>
          <use xlink:href="#DejaVuSans-67" x="514.453125"/>
          <use xlink:href="#DejaVuSans-65" x="577.929688"/>
          <use xlink:href="#DejaVuSans-6e" x="639.453125"/>
          <use xlink:href="#DejaVuSans-65" x="702.832031"/>
          <use xlink:href="#DejaVuSans-72" x="764.355469"/>
          <use xlink:href="#DejaVuSans-61" x="805.46875"/>
          <use xlink:href="#DejaVuSans-74" x="866.748047"/>
          <use xlink:href="#DejaVuSans-69" x="905.957031"/>
          <use xlink:href="#DejaVuSans-6f" x="933.740234"/>
          <use xlink:href="#DejaVuSans-6e" x="994.921875"/>
          <use xlink:href="#DejaVuSans-73" x="1058.300781"/>
          <use xlink:href="#DejaVuSans-29" x="1110.400391"/>
         </g>
        </g>
       </g>
       <g id="patch_7">
        <path d="M 259.611621 178.198091 
L 258.611621 178.166655 
L 257.611621 178.129714 
L 256.611621 178.031968 
L 255.611621 177.999446 
L 254.611621 177.925822 
L 253.611621 177.887256 
L 252.611621 177.851843 
L 251.611621 177.794203 
L 250.611621 177.723817 
L 249.611621 177.671853 
L 248.611621 177.612763 
L 247.611621 177.524442 
L 246.611621 177.478298 
L 245.611621 177.435887 
L 244.611621 177.405394 
L 243.611621 177.379349 
L 242.611621 177.358149 
L 241.611621 177.303848 
L 240.611621 177.27591 
L 239.611621 177.246186 
L 238.611621 177.220791 
L 237.611621 177.209591 
L 236.611621 177.199467 
L 235.611621 177.199671 
L 234.611621 177.209181 
L 233.611621 177.220835 
L 232.611621 177.251864 
L 231.611621 177.263032 
L 230.611621 177.29315 
L 229.611621 177.352926 
L 228.611621 177.390118 
L 227.611621 177.429214 
L 226.351533 177.471654 
" clip-path="url(#p58318f4461)" style="fill: none; stroke: #ffffff; stroke-width: 3; stroke-linecap: round"/>
        <path d="M 259.611621 178.198091 
L 258.611621 178.166655 
L 257.611621 178.129714 
L 256.611621 178.031968 
L 255.611621 177.999446 
L 254.611621 177.925822 
L 253.611621 177.887256 
L 252.611621 177.851843 
L 251.611621 177.794203 
L 250.611621 177.723817 
L 249.611621 177.671853 
L 248.611621 177.612763 
L 247.611621 177.524442 
L 246.611621 177.478298 
L 245.611621 177.435887 
L 244.611621 177.405394 
L 243.611621 177.379349 
L 242.611621 177.358149 
L 241.611621 177.303848 
L 240.611621 177.27591 
L 239.611621 177.246186 
L 238.611621 177.220791 
L 237.611621 177.209591 
L 236.611621 177.199467 
L 235.611621 177.199671 
L 234.611621 177.209181 
L 233.611621 177.220835 
L 232.611621 177.251864 
L 231.611621 177.263032 
L 230.611621 177.29315 
L 229.611621 177.352926 
L 228.611621 177.390118 
L 227.611621 177.429214 
L 226.351533 177.471654 
" clip-path="url(#p58318f4461)" style="fill: none; stroke: #1f77b4; stroke-linecap: round"/>
        <path d="M 230.351533 180.198091 
L 229.471165 179.72276 
L 228.593258 179.242506 
L 227.742544 178.707865 
L 226.44037 178.020418 
L 227.367723 177.994403 
L 228.279397 177.581683 
L 229.189662 177.166144 
L 230.532158 176.55934 
L 229.877259 177.198091 
L 229.825295 178.198091 
L 229.766205 180.198091 
z
" clip-path="url(#p58318f4461)" style="fill: #ffffff; stroke: #ffffff; stroke-width: 3; stroke-linecap: round"/>
        <path d="M 230.351533 180.198091 
L 229.471165 179.72276 
L 228.593258 179.242506 
L 227.742544 178.707865 
L 226.44037 178.020418 
L 227.367723 177.994403 
L 228.279397 177.581683 
L 229.189662 177.166144 
L 230.532158 176.55934 
L 229.877259 177.198091 
L 229.825295 178.198091 
L 229.766205 180.198091 
z
" clip-path="url(#p58318f4461)" style="fill: #ffffff; stroke: #1f77b4; stroke-linecap: round"/>
        <g id="patch_8">
         <path d="M 395.298059 72.964375 
L 396.298059 72.995811 
L 397.298059 73.032752 
L 398.298059 73.130498 
L 399.298059 73.16302 
L 400.298059 73.236645 
L 401.298059 73.27521 
L 402.298059 73.310623 
L 403.298059 73.368263 
L 404.298059 73.438649 
L 405.298059 73.490614 
L 406.298059 73.549703 
L 407.298059 73.638024 
L 408.298059 73.684169 
L 409.298059 73.72658 
L 410.298059 73.757072 
L 411.298059 73.783117 
L 412.298059 73.804317 
L 413.298059 73.858618 
L 414.298059 73.886556 
L 415.298059 73.91628 
L 416.298059 73.941675 
L 417.298059 73.952875 
L 418.298059 73.962999 
L 419.298059 73.962795 
L 420.298059 73.953285 
L 421.298059 73.941631 
L 422.298059 73.910602 
L 423.298059 73.899434 
L 424.298059 73.869317 
L 425.298059 73.80954 
L 426.298059 73.772348 
L 427.298059 73.733252 
L 428.298059 73.690812 
L 429.298059 73.658047 
L 430.298059 73.590621 
L 431.298059 73.551495 
L 432.298059 73.50882 
L 433.298059 73.43824 
L 434.298059 73.401849 
L 435.298059 73.343446 
L 436.298059 73.232493 
L 437.298059 73.161835 
L 438.298059 73.048895 
L 439.298059 73.003122 
L 440.298059 72.941839 
L 441.298059 72.89334 
L 442.298059 72.812517 
L 443.298059 72.693998 
L 444.298059 72.623787 
L 445.298059 72.540525 
L 446.298059 72.507383 
L 447.298059 72.456146 
L 448.298059 72.387747 
L 449.298059 72.321532 
L 450.298059 72.244615 
L 451.298059 72.217299 
L 452.298059 72.190822 
L 453.298059 72.168171 
L 454.298059 72.14864 
L 455.298059 72.122246 
L 456.298059 72.072475 
L 457.298059 72.037402 
L 458.298059 72.001536 
L 459.298059 71.986169 
L 460.298059 71.9704 
L 461.298059 71.966987 
L 462.298059 71.96457 
L 463.298059 71.965056 
L 464.298059 71.966985 
L 465.298059 71.980242 
L 466.298059 71.988633 
L 467.298059 72.010169 
L 468.298059 72.033202 
L 469.298059 72.050435 
L 470.298059 72.068898 
L 471.298059 72.08935 
L 472.298059 72.10595 
L 473.298059 72.168729 
L 474.298059 72.243994 
L 475.298059 72.276633 
L 476.298059 72.344197 
L 477.298059 72.398244 
L 478.298059 72.431948 
L 479.298059 72.522074 
L 480.298059 72.550609 
L 481.298059 72.582095 
L 482.298059 72.613106 
L 483.298059 72.667914 
L 484.298059 72.732501 
L 485.298059 72.770697 
L 486.298059 72.866631 
L 487.298059 72.915889 
L 488.298059 72.959958 
L 489.298059 73.000082 
L 490.298059 73.108449 
L 491.298059 73.150077 
L 492.298059 73.212219 
L 493.298059 73.282181 
L 494.298059 73.386685 
L 495.298059 73.423673 
L 496.298059 73.46955 
L 497.298059 73.538045 
L 498.298059 73.586791 
L 499.298059 73.664388 
L 500.298059 73.694929 
L 501.298059 73.764443 
L 502.298059 73.788416 
L 503.298059 73.817038 
L 504.298059 73.858831 
L 505.298059 73.880407 
L 506.298059 73.894355 
L 507.298059 73.921077 
L 508.298059 73.930387 
L 509.298059 73.942834 
L 510.298059 73.953889 
L 511.298059 73.959553 
L 512.298059 73.964317 
L 513.298059 73.958769 
L 514.298059 73.945481 
L 515.298059 73.937964 
L 516.298059 73.913179 
L 517.298059 73.88961 
L 518.298059 73.85343 
L 519.298059 73.827468 
L 520.298059 73.805146 
L 521.298059 73.736386 
L 522.298059 73.661851 
L 523.298059 73.567872 
L 524.298059 73.51682 
L 525.298059 73.462886 
L 526.298059 73.427635 
L 527.298059 73.321547 
L 528.298059 73.269283 
L 529.298059 73.232376 
L 531.190705 73.201345 
" clip-path="url(#p58318f4461)" style="fill: none; stroke: #ffffff; stroke-width: 3; stroke-linecap: round"/>
         <path d="M 395.298059 72.964375 
L 396.298059 72.995811 
L 397.298059 73.032752 
L 398.298059 73.130498 
L 399.298059 73.16302 
L 400.298059 73.236645 
L 401.298059 73.27521 
L 402.298059 73.310623 
L 403.298059 73.368263 
L 404.298059 73.438649 
L 405.298059 73.490614 
L 406.298059 73.549703 
L 407.298059 73.638024 
L 408.298059 73.684169 
L 409.298059 73.72658 
L 410.298059 73.757072 
L 411.298059 73.783117 
L 412.298059 73.804317 
L 413.298059 73.858618 
L 414.298059 73.886556 
L 415.298059 73.91628 
L 416.298059 73.941675 
L 417.298059 73.952875 
L 418.298059 73.962999 
L 419.298059 73.962795 
L 420.298059 73.953285 
L 421.298059 73.941631 
L 422.298059 73.910602 
L 423.298059 73.899434 
L 424.298059 73.869317 
L 425.298059 73.80954 
L 426.298059 73.772348 
L 427.298059 73.733252 
L 428.298059 73.690812 
L 429.298059 73.658047 
L 430.298059 73.590621 
L 431.298059 73.551495 
L 432.298059 73.50882 
L 433.298059 73.43824 
L 434.298059 73.401849 
L 435.298059 73.343446 
L 436.298059 73.232493 
L 437.298059 73.161835 
L 438.298059 73.048895 
L 439.298059 73.003122 
L 440.298059 72.941839 
L 441.298059 72.89334 
L 442.298059 72.812517 
L 443.298059 72.693998 
L 444.298059 72.623787 
L 445.298059 72.540525 
L 446.298059 72.507383 
L 447.298059 72.456146 
L 448.298059 72.387747 
L 449.298059 72.321532 
L 450.298059 72.244615 
L 451.298059 72.217299 
L 452.298059 72.190822 
L 453.298059 72.168171 
L 454.298059 72.14864 
L 455.298059 72.122246 
L 456.298059 72.072475 
L 457.298059 72.037402 
L 458.298059 72.001536 
L 459.298059 71.986169 
L 460.298059 71.9704 
L 461.298059 71.966987 
L 462.298059 71.96457 
L 463.298059 71.965056 
L 464.298059 71.966985 
L 465.298059 71.980242 
L 466.298059 71.988633 
L 467.298059 72.010169 
L 468.298059 72.033202 
L 469.298059 72.050435 
L 470.298059 72.068898 
L 471.298059 72.08935 
L 472.298059 72.10595 
L 473.298059 72.168729 
L 474.298059 72.243994 
L 475.298059 72.276633 
L 476.298059 72.344197 
L 477.298059 72.398244 
L 478.298059 72.431948 
L 479.298059 72.522074 
L 480.298059 72.550609 
L 481.298059 72.582095 
L 482.298059 72.613106 
L 483.298059 72.667914 
L 484.298059 72.732501 
L 485.298059 72.770697 
L 486.298059 72.866631 
L 487.298059 72.915889 
L 488.298059 72.959958 
L 489.298059 73.000082 
L 490.298059 73.108449 
L 491.298059 73.150077 
L 492.298059 73.212219 
L 493.298059 73.282181 
L 494.298059 73.386685 
L 495.298059 73.423673 
L 496.298059 73.46955 
L 497.298059 73.538045 
L 498.298059 73.586791 
L 499.298059 73.664388 
L 500.298059 73.694929 
L 501.298059 73.764443 
L 502.298059 73.788416 
L 503.298059 73.817038 
L 504.298059 73.858831 
L 505.298059 73.880407 
L 506.298059 73.894355 
L 507.298059 73.921077 
L 508.298059 73.930387 
L 509.298059 73.942834 
L 510.298059 73.953889 
L 511.298059 73.959553 
L 512.298059 73.964317 
L 513.298059 73.958769 
L 514.298059 73.945481 
L 515.298059 73.937964 
L 516.298059 73.913179 
L 517.298059 73.88961 
L 518.298059 73.85343 
L 519.298059 73.827468 
L 520.298059 73.805146 
L 521.298059 73.736386 
L 522.298059 73.661851 
L 523.298059 73.567872 
L 524.298059 73.51682 
L 525.298059 73.462886 
L 526.298059 73.427635 
L 527.298059 73.321547 
L 528.298059 73.269283 
L 529.298059 73.232376 
L 531.190705 73.201345 
" clip-path="url(#p58318f4461)" style="fill: none; stroke: #1f77b4; stroke-linecap: round"/>
         <path d="M 527.190705 70.964375 
L 528.071074 71.439706 
L 528.948981 71.91996 
L 529.799694 72.454601 
L 531.101869 73.142048 
L 530.174515 73.168063 
L 529.262841 73.580783 
L 528.352577 73.996322 
L 527.010081 74.603126 
L 527.66498 73.964375 
L 527.716944 72.964375 
L 527.776034 70.964375 
z
" clip-path="url(#p58318f4461)" style="fill: #ffffff; stroke: #ffffff; stroke-width: 3; stroke-linecap: round"/>
         <path d="M 527.190705 70.964375 
L 528.071074 71.439706 
L 528.948981 71.91996 
L 529.799694 72.454601 
L 531.101869 73.142048 
L 530.174515 73.168063 
L 529.262841 73.580783 
L 528.352577 73.996322 
L 527.010081 74.603126 
L 527.66498 73.964375 
L 527.716944 72.964375 
L 527.776034 70.964375 
z
" clip-path="url(#p58318f4461)" style="fill: #ffffff; stroke: #1f77b4; stroke-linecap: round"/>
         <g id="patch_9">
          <path d="M 225.230874 286.744342 
L 226.230874 286.775778 
L 227.230874 286.812718 
L 228.230874 286.910465 
L 229.230874 286.942987 
L 230.230874 287.016611 
L 231.230874 287.055177 
L 232.230874 287.09059 
L 233.230874 287.14823 
L 234.230874 287.218616 
L 235.230874 287.27058 
L 236.230874 287.32967 
L 237.230874 287.417991 
L 238.230874 287.464135 
L 239.230874 287.506546 
L 240.230874 287.537039 
L 241.230874 287.563084 
L 242.230874 287.584284 
L 243.230874 287.638585 
L 244.230874 287.666523 
L 245.230874 287.696247 
L 246.230874 287.721641 
L 247.230874 287.732842 
L 248.230874 287.742966 
L 249.230874 287.742761 
L 250.230874 287.733252 
L 251.230874 287.721598 
L 252.230874 287.690569 
L 253.230874 287.679401 
L 254.230874 287.649283 
L 255.230874 287.589506 
L 256.230874 287.552315 
L 257.230874 287.513219 
L 258.230874 287.470779 
L 259.230874 287.438014 
L 260.230874 287.370588 
L 261.230874 287.331462 
L 262.230874 287.288787 
L 263.230874 287.218206 
L 264.230874 287.181816 
L 265.230874 287.123412 
L 266.230874 287.01246 
L 267.230874 286.941802 
L 268.230874 286.828862 
L 269.230874 286.783089 
L 270.230874 286.721806 
L 271.230874 286.673306 
L 272.230874 286.592484 
L 273.230874 286.473965 
L 274.230874 286.403754 
L 275.230874 286.320492 
L 276.230874 286.28735 
L 277.230874 286.236112 
L 278.230874 286.167714 
L 279.230874 286.101499 
L 280.230874 286.024582 
L 281.230874 285.997266 
L 282.230874 285.970789 
L 283.230874 285.948138 
L 284.230874 285.928607 
L 285.230874 285.902213 
L 286.230874 285.852442 
L 287.230874 285.817369 
L 288.230874 285.781503 
L 289.230874 285.766136 
L 290.230874 285.750367 
L 291.230874 285.746954 
L 292.230874 285.744536 
L 293.230874 285.745022 
L 294.230874 285.746952 
L 295.230874 285.760209 
L 296.230874 285.768599 
L 297.230874 285.790136 
L 298.230874 285.813168 
L 299.230874 285.830402 
L 300.230874 285.848864 
L 301.230874 285.869317 
L 302.230874 285.885917 
L 303.230874 285.948696 
L 304.230874 286.023961 
L 305.230874 286.0566 
L 306.230874 286.124163 
L 307.230874 286.17821 
L 308.230874 286.211915 
L 309.230874 286.302041 
L 310.230874 286.330576 
L 311.230874 286.362062 
L 312.230874 286.393073 
L 313.230874 286.447881 
L 314.230874 286.512468 
L 315.230874 286.550663 
L 316.230874 286.646598 
L 317.230874 286.695856 
L 318.230874 286.739925 
L 319.230874 286.780049 
L 320.230874 286.888416 
L 321.230874 286.930044 
L 322.230874 286.992185 
L 323.230874 287.062148 
L 324.230874 287.166652 
L 325.230874 287.20364 
L 326.230874 287.249517 
L 327.230874 287.318011 
L 328.230874 287.366757 
L 329.230874 287.444355 
L 330.230874 287.474895 
L 331.230874 287.54441 
L 332.230874 287.568383 
L 333.230874 287.597004 
L 334.230874 287.638798 
L 335.230874 287.660373 
L 336.230874 287.674321 
L 337.230874 287.701044 
L 338.230874 287.710354 
L 339.230874 287.7228 
L 340.230874 287.733855 
L 341.230874 287.73952 
L 342.230874 287.744284 
L 343.230874 287.738736 
L 344.230874 287.725448 
L 345.230874 287.71793 
L 346.230874 287.693146 
L 347.230874 287.669577 
L 348.230874 287.633396 
L 349.230874 287.607434 
L 350.230874 287.585113 
L 351.230874 287.516353 
L 352.230874 287.441818 
L 353.230874 287.347838 
L 354.230874 287.296786 
L 355.230874 287.242853 
L 356.230874 287.207602 
L 357.230874 287.101514 
L 358.230874 287.04925 
L 359.230874 287.012343 
L 360.230874 286.981312 
L 361.230874 286.920157 
L 362.230874 286.852737 
L 363.230874 286.803831 
L 364.230874 286.738638 
L 365.230874 286.700451 
L 366.230874 286.658455 
L 367.230874 286.616438 
L 368.230874 286.556921 
L 369.230874 286.443761 
L 370.230874 286.391511 
L 371.230874 286.352093 
L 372.230874 286.304991 
L 373.230874 286.248212 
L 374.230874 286.215549 
L 375.230874 286.179371 
L 376.230874 286.14728 
L 377.230874 286.113001 
L 378.230874 286.054623 
L 379.230874 286.009438 
L 380.230874 285.979814 
L 381.230874 285.929428 
L 382.230874 285.90423 
L 383.230874 285.88318 
L 384.230874 285.848212 
L 385.230874 285.823922 
L 386.230874 285.809855 
L 387.230874 285.790913 
L 388.230874 285.775251 
L 389.230874 285.7627 
L 390.230874 285.756864 
L 391.230874 285.749981 
L 392.230874 285.744808 
L 393.230874 285.74659 
L 394.230874 285.749316 
L 395.230874 285.760469 
L 396.230874 285.788705 
L 397.230874 285.832492 
L 398.230874 285.853182 
L 399.230874 285.894155 
L 400.230874 285.93423 
L 401.230874 285.95334 
L 402.230874 285.975848 
L 403.230874 286.0425 
L 404.230874 286.092209 
L 405.230874 286.165916 
L 406.230874 286.19723 
L 407.230874 286.273852 
L 408.230874 286.31215 
L 409.230874 286.386267 
L 410.230874 286.490325 
L 411.230874 286.560156 
L 412.230874 286.665389 
L 413.230874 286.720405 
L 414.230874 286.84388 
L 415.230874 286.914439 
L 416.230874 287.030278 
L 417.230874 287.080459 
L 418.230874 287.116063 
L 419.230874 287.20747 
L 420.230874 287.260977 
L 421.230874 287.348886 
L 422.230874 287.418071 
L 423.230874 287.464835 
L 424.230874 287.536879 
L 425.230874 287.587021 
L 426.555018 287.60441 
" clip-path="url(#p58318f4461)" style="fill: none; stroke: #ffffff; stroke-width: 3; stroke-linecap: round"/>
          <path d="M 225.230874 286.744342 
L 226.230874 286.775778 
L 227.230874 286.812718 
L 228.230874 286.910465 
L 229.230874 286.942987 
L 230.230874 287.016611 
L 231.230874 287.055177 
L 232.230874 287.09059 
L 233.230874 287.14823 
L 234.230874 287.218616 
L 235.230874 287.27058 
L 236.230874 287.32967 
L 237.230874 287.417991 
L 238.230874 287.464135 
L 239.230874 287.506546 
L 240.230874 287.537039 
L 241.230874 287.563084 
L 242.230874 287.584284 
L 243.230874 287.638585 
L 244.230874 287.666523 
L 245.230874 287.696247 
L 246.230874 287.721641 
L 247.230874 287.732842 
L 248.230874 287.742966 
L 249.230874 287.742761 
L 250.230874 287.733252 
L 251.230874 287.721598 
L 252.230874 287.690569 
L 253.230874 287.679401 
L 254.230874 287.649283 
L 255.230874 287.589506 
L 256.230874 287.552315 
L 257.230874 287.513219 
L 258.230874 287.470779 
L 259.230874 287.438014 
L 260.230874 287.370588 
L 261.230874 287.331462 
L 262.230874 287.288787 
L 263.230874 287.218206 
L 264.230874 287.181816 
L 265.230874 287.123412 
L 266.230874 287.01246 
L 267.230874 286.941802 
L 268.230874 286.828862 
L 269.230874 286.783089 
L 270.230874 286.721806 
L 271.230874 286.673306 
L 272.230874 286.592484 
L 273.230874 286.473965 
L 274.230874 286.403754 
L 275.230874 286.320492 
L 276.230874 286.28735 
L 277.230874 286.236112 
L 278.230874 286.167714 
L 279.230874 286.101499 
L 280.230874 286.024582 
L 281.230874 285.997266 
L 282.230874 285.970789 
L 283.230874 285.948138 
L 284.230874 285.928607 
L 285.230874 285.902213 
L 286.230874 285.852442 
L 287.230874 285.817369 
L 288.230874 285.781503 
L 289.230874 285.766136 
L 290.230874 285.750367 
L 291.230874 285.746954 
L 292.230874 285.744536 
L 293.230874 285.745022 
L 294.230874 285.746952 
L 295.230874 285.760209 
L 296.230874 285.768599 
L 297.230874 285.790136 
L 298.230874 285.813168 
L 299.230874 285.830402 
L 300.230874 285.848864 
L 301.230874 285.869317 
L 302.230874 285.885917 
L 303.230874 285.948696 
L 304.230874 286.023961 
L 305.230874 286.0566 
L 306.230874 286.124163 
L 307.230874 286.17821 
L 308.230874 286.211915 
L 309.230874 286.302041 
L 310.230874 286.330576 
L 311.230874 286.362062 
L 312.230874 286.393073 
L 313.230874 286.447881 
L 314.230874 286.512468 
L 315.230874 286.550663 
L 316.230874 286.646598 
L 317.230874 286.695856 
L 318.230874 286.739925 
L 319.230874 286.780049 
L 320.230874 286.888416 
L 321.230874 286.930044 
L 322.230874 286.992185 
L 323.230874 287.062148 
L 324.230874 287.166652 
L 325.230874 287.20364 
L 326.230874 287.249517 
L 327.230874 287.318011 
L 328.230874 287.366757 
L 329.230874 287.444355 
L 330.230874 287.474895 
L 331.230874 287.54441 
L 332.230874 287.568383 
L 333.230874 287.597004 
L 334.230874 287.638798 
L 335.230874 287.660373 
L 336.230874 287.674321 
L 337.230874 287.701044 
L 338.230874 287.710354 
L 339.230874 287.7228 
L 340.230874 287.733855 
L 341.230874 287.73952 
L 342.230874 287.744284 
L 343.230874 287.738736 
L 344.230874 287.725448 
L 345.230874 287.71793 
L 346.230874 287.693146 
L 347.230874 287.669577 
L 348.230874 287.633396 
L 349.230874 287.607434 
L 350.230874 287.585113 
L 351.230874 287.516353 
L 352.230874 287.441818 
L 353.230874 287.347838 
L 354.230874 287.296786 
L 355.230874 287.242853 
L 356.230874 287.207602 
L 357.230874 287.101514 
L 358.230874 287.04925 
L 359.230874 287.012343 
L 360.230874 286.981312 
L 361.230874 286.920157 
L 362.230874 286.852737 
L 363.230874 286.803831 
L 364.230874 286.738638 
L 365.230874 286.700451 
L 366.230874 286.658455 
L 367.230874 286.616438 
L 368.230874 286.556921 
L 369.230874 286.443761 
L 370.230874 286.391511 
L 371.230874 286.352093 
L 372.230874 286.304991 
L 373.230874 286.248212 
L 374.230874 286.215549 
L 375.230874 286.179371 
L 376.230874 286.14728 
L 377.230874 286.113001 
L 378.230874 286.054623 
L 379.230874 286.009438 
L 380.230874 285.979814 
L 381.230874 285.929428 
L 382.230874 285.90423 
L 383.230874 285.88318 
L 384.230874 285.848212 
L 385.230874 285.823922 
L 386.230874 285.809855 
L 387.230874 285.790913 
L 388.230874 285.775251 
L 389.230874 285.7627 
L 390.230874 285.756864 
L 391.230874 285.749981 
L 392.230874 285.744808 
L 393.230874 285.74659 
L 394.230874 285.749316 
L 395.230874 285.760469 
L 396.230874 285.788705 
L 397.230874 285.832492 
L 398.230874 285.853182 
L 399.230874 285.894155 
L 400.230874 285.93423 
L 401.230874 285.95334 
L 402.230874 285.975848 
L 403.230874 286.0425 
L 404.230874 286.092209 
L 405.230874 286.165916 
L 406.230874 286.19723 
L 407.230874 286.273852 
L 408.230874 286.31215 
L 409.230874 286.386267 
L 410.230874 286.490325 
L 411.230874 286.560156 
L 412.230874 286.665389 
L 413.230874 286.720405 
L 414.230874 286.84388 
L 415.230874 286.914439 
L 416.230874 287.030278 
L 417.230874 287.080459 
L 418.230874 287.116063 
L 419.230874 287.20747 
L 420.230874 287.260977 
L 421.230874 287.348886 
L 422.230874 287.418071 
L 423.230874 287.464835 
L 424.230874 287.536879 
L 425.230874 287.587021 
L 426.555018 287.60441 
" clip-path="url(#p58318f4461)" style="fill: none; stroke: #ff7f0e; stroke-linecap: round"/>
          <path d="M 422.555018 284.744342 
L 423.435387 285.219673 
L 424.313294 285.699927 
L 425.164007 286.234568 
L 426.466182 286.922015 
L 425.538828 286.94803 
L 424.627154 287.360749 
L 423.71689 287.776289 
L 422.374394 288.383093 
L 423.029293 287.744342 
L 423.081257 286.744342 
L 423.140347 284.744342 
z
" clip-path="url(#p58318f4461)" style="fill: #ffffff; stroke: #ffffff; stroke-width: 3; stroke-linecap: round"/>
          <path d="M 422.555018 284.744342 
L 423.435387 285.219673 
L 424.313294 285.699927 
L 425.164007 286.234568 
L 426.466182 286.922015 
L 425.538828 286.94803 
L 424.627154 287.360749 
L 423.71689 287.776289 
L 422.374394 288.383093 
L 423.029293 287.744342 
L 423.081257 286.744342 
L 423.140347 284.744342 
z
" clip-path="url(#p58318f4461)" style="fill: #ffffff; stroke: #ff7f0e; stroke-linecap: round"/>
          <path d="M 459.858703 296.477309 
" clip-path="url(#p58318f4461)" style="fill: none; stroke-dasharray: 3.7,1.6; stroke-dashoffset: 0; stroke: #2ca02c"/>
          <path d="M 458.858703 296.477309 
L 460.858703 297.477309 
L 460.858703 295.477309 
z
" clip-path="url(#p58318f4461)" style="fill: #2ca02c; stroke: #2ca02c; stroke-linejoin: miter"/>
          <g id="patch_10">
           <path d="M 63.290625 321.621875 
L 63.290625 10.8 
" style="fill: none; stroke: #000000; stroke-width: 0.8; stroke-linejoin: miter; stroke-linecap: square"/>
          </g>
          <g id="text_10">
           <g id="patch_11">
            <path d="M 316.802287 101.338108 
L 338.106975 101.338108 
Q 340.106975 101.338108 340.106975 99.338108 
L 340.106975 89.659983 
Q 340.106975 87.659983 338.106975 87.659983 
L 316.802287 87.659983 
Q 314.802287 87.659983 314.802287 89.659983 
L 314.802287 99.338108 
Q 314.802287 101.338108 316.802287 101.338108 
z
" style="fill: #ffffff; opacity: 0.6"/>
           </g>
           <!-- ANC -->
           <g transform="translate(316.802287 97.258421) scale(0.1 -0.1)">
            <defs>
             <path id="DejaVuSans-4e" d="M 628 4666 
L 1478 4666 
L 3547 763 
L 3547 4666 
L 4159 4666 
L 4159 0 
L 3309 0 
L 1241 3903 
L 1241 0 
L 628 0 
L 628 4666 
z
" transform="scale(0.015625)"/>
            </defs>
            <use xlink:href="#DejaVuSans-41"/>
            <use xlink:href="#DejaVuSans-4e" x="68.408203"/>
            <use xlink:href="#DejaVuSans-43" x="143.212891"/>
           </g>
          </g>
         </g>
        </g>
        <defs>
         <clipPath id="p58318f4461">
          <rect x="63.290625" y="10.8" width="540.309375" height="310.821875"/>
         </clipPath>
        </defs>
       </g>
      </g>
     </g>
    </g>
   </g>
  </g>
 </g>
</svg>
