<?xml version="1.0" encoding="utf-8" standalone="no"?>
<!DOCTYPE svg PUBLIC "-//W3C//DTD SVG 1.1//EN"
  "http://www.w3.org/Graphics/SVG/1.1/DTD/svg11.dtd">
<svg xmlns:xlink="http://www.w3.org/1999/xlink" width="614.4pt" height="345.6pt" viewBox="0 0 614.4 345.6" xmlns="http://www.w3.org/2000/svg" version="1.1">
 <metadata>
  <rdf:RDF xmlns:dc="http://purl.org/dc/elements/1.1/" xmlns:cc="http://creativecommons.org/ns#" xmlns:rdf="http://www.w3.org/1999/02/22-rdf-syntax-ns#">
   <cc:Work>
    <dc:type rdf:resource="http://purl.org/dc/dcmitype/StillImage"/>
    <dc:date>2024-04-17T19:48:45.765245</dc:date>
    <dc:format>image/svg+xml</dc:format>
    <dc:creator>
     <cc:Agent>
      <dc:title>Matplotlib v3.7.1, https://matplotlib.org/</dc:title>
     </cc:Agent>
    </dc:creator>
   </cc:Work>
  </rdf:RDF>
 </metadata>
 <defs>
  <style type="text/css">*{stroke-linejoin: round; stroke-linecap: butt}</style>
 </defs>
 <g id="figure_1">
  <g id="patch_1">
   <path d="M 0 345.6 
L 614.4 345.6 
L 614.4 0 
L 0 0 
z
" style="fill: #ffffff"/>
  </g>
  <g id="axes_1">
   <g id="patch_2">
    <path d="M 63.290625 321.621875 
L 603.6 321.621875 
L 603.6 10.8 
L 63.290625 10.8 
z
" style="fill: #ffffff"/>
   </g>
   <path d="M 525.031423 298.730352 
L 524.031423 298.698915 
L 523.031423 298.661975 
L 522.031423 298.564228 
L 521.031423 298.531707 
L 520.031423 298.458082 
L 519.031423 298.419517 
L 518.031423 298.384103 
L 517.031423 298.326463 
L 516.031423 298.256077 
L 515.031423 298.204113 
L 514.031423 298.145023 
L 513.031423 298.056702 
L 512.031423 298.010558 
L 511.031423 297.968147 
L 510.031423 297.937654 
L 509.031423 297.911609 
L 508.031423 297.890409 
L 507.031423 297.836108 
L 506.031423 297.808171 
L 505.031423 297.778447 
L 504.031423 297.753052 
L 503.031423 297.741852 
L 502.031423 297.731728 
L 501.031423 297.731932 
L 500.031423 297.741442 
L 499.031423 297.753095 
L 498.031423 297.784125 
L 497.031423 297.795293 
L 496.031423 297.82541 
L 495.031423 297.885187 
L 494.031423 297.922379 
L 493.031423 297.961475 
L 492.031423 298.003914 
L 491.031423 298.036679 
L 490.031423 298.104106 
L 489.031423 298.143232 
L 488.031423 298.185906 
L 487.031423 298.256487 
L 486.031423 298.292878 
L 485.031423 298.351281 
L 484.031423 298.462234 
L 483.031423 298.532892 
L 482.031423 298.645832 
L 481.031423 298.691605 
L 480.031423 298.752888 
L 479.031423 298.801387 
L 478.031423 298.88221 
L 477.031423 299.000729 
L 476.031423 299.070939 
L 475.031423 299.154202 
L 474.031423 299.187344 
L 473.031423 299.238581 
L 472.031423 299.306979 
L 471.031423 299.373195 
L 469.567947 299.450112 
" clip-path="url(#pa9af4ba3db)" style="fill: none; stroke-dasharray: 3.7,1.6; stroke-dashoffset: 0; stroke: #2ca02c"/>
   <g id="patch_3">
    <path d="M 288.177312 10.8 
L 288.177312 114.840562 
M 364.752908 10.8 
L 364.752908 114.840562 
" clip-path="url(#pa9af4ba3db)" style="fill: none; stroke: #ffffff; stroke-width: 3; stroke-linejoin: miter"/>
    <path d="M 288.177312 10.8 
L 288.177312 114.840562 
M 364.752908 10.8 
L 364.752908 114.840562 
" clip-path="url(#pa9af4ba3db)" style="fill: none; stroke: #1f77b4; stroke-linejoin: miter"/>
    <g id="PolyCollection_1">
     <path d="M 364.752908 10.8 
L 288.177312 10.8 
L 288.177312 114.840562 
L 364.752908 114.840562 
L 364.752908 114.840562 
L 364.752908 10.8 
z
" clip-path="url(#pa9af4ba3db)" style="fill: #1f77b4; fill-opacity: 0.5"/>
    </g>
    <g id="patch_4">
     <path d="M 87.850142 114.840562 
L 87.850142 321.621875 
M 222.671493 114.840562 
L 222.671493 321.621875 
" clip-path="url(#pa9af4ba3db)" style="fill: none; stroke: #ffffff; stroke-width: 3; stroke-linejoin: miter"/>
     <path d="M 87.850142 114.840562 
L 87.850142 321.621875 
M 222.671493 114.840562 
L 222.671493 321.621875 
" clip-path="url(#pa9af4ba3db)" style="fill: none; stroke: #ff7f0e; stroke-linejoin: miter"/>
     <g id="PolyCollection_2">
      <path d="M 222.671493 114.840562 
L 87.850142 114.840562 
L 87.850142 321.621875 
L 222.671493 321.621875 
L 222.671493 321.621875 
L 222.671493 114.840562 
z
" clip-path="url(#pa9af4ba3db)" style="fill: #ff7f0e; fill-opacity: 0.5"/>
     </g>
     <g id="patch_5">
      <path d="M 530.434516 72.964375 
L 530.434516 321.621875 
M 579.040483 72.964375 
L 579.040483 321.621875 
" clip-path="url(#pa9af4ba3db)" style="fill: none; stroke: #ffffff; stroke-width: 3; stroke-linejoin: miter"/>
      <path d="M 530.434516 72.964375 
L 530.434516 321.621875 
M 579.040483 72.964375 
L 579.040483 321.621875 
" clip-path="url(#pa9af4ba3db)" style="fill: none; stroke: #2ca02c; stroke-linejoin: miter"/>
      <g id="PolyCollection_3">
       <path d="M 579.040483 72.964375 
L 530.434516 72.964375 
L 530.434516 321.621875 
L 579.040483 321.621875 
L 579.040483 321.621875 
L 579.040483 72.964375 
z
" clip-path="url(#pa9af4ba3db)" style="fill: #2ca02c; fill-opacity: 0.5"/>
      </g>
      <g id="patch_6">
       <path d="M 417.037756 279.092069 
L 417.037756 321.621875 
M 464.164853 279.092069 
L 464.164853 321.621875 
" clip-path="url(#pa9af4ba3db)" style="fill: none; stroke: #ffffff; stroke-width: 3; stroke-linejoin: miter"/>
       <path d="M 417.037756 279.092069 
L 417.037756 321.621875 
M 464.164853 279.092069 
L 464.164853 321.621875 
" clip-path="url(#pa9af4ba3db)" style="fill: none; stroke: #d62728; stroke-linejoin: miter"/>
       <g id="PolyCollection_4">
        <path d="M 464.164853 279.092069 
L 417.037756 279.092069 
L 417.037756 321.621875 
L 464.164853 321.621875 
L 464.164853 321.621875 
L 464.164853 279.092069 
z
" clip-path="url(#pa9af4ba3db)" style="fill: #d62728; fill-opacity: 0.5"/>
       </g>
       <g id="matplotlib.axis_1">
        <g id="xtick_1">
         <g id="line2d_1"/>
         <g id="text_1">
          <!-- OUT -->
          <g transform="translate(144.611599 332.720312) scale(0.1 -0.1)">
           <defs>
            <path id="DejaVuSans-4f" d="M 2522 4238 
Q 1834 4238 1429 3725 
Q 1025 3213 1025 2328 
Q 1025 1447 1429 934 
Q 1834 422 2522 422 
Q 3209 422 3611 934 
Q 4013 1447 4013 2328 
Q 4013 3213 3611 3725 
Q 3209 4238 2522 4238 
z
M 2522 4750 
Q 3503 4750 4090 4092 
Q 4678 3434 4678 2328 
Q 4678 1225 4090 567 
Q 3503 -91 2522 -91 
Q 1538 -91 948 565 
Q 359 1222 359 2328 
Q 359 3434 948 4092 
Q 1538 4750 2522 4750 
z
" transform="scale(0.015625)"/>
            <path id="DejaVuSans-55" d="M 556 4666 
L 1191 4666 
L 1191 1831 
Q 1191 1081 1462 751 
Q 1734 422 2344 422 
Q 2950 422 3222 751 
Q 3494 1081 3494 1831 
L 3494 4666 
L 4128 4666 
L 4128 1753 
Q 4128 841 3676 375 
Q 3225 -91 2344 -91 
Q 1459 -91 1007 375 
Q 556 841 556 1753 
L 556 4666 
z
" transform="scale(0.015625)"/>
            <path id="DejaVuSans-54" d="M -19 4666 
L 3928 4666 
L 3928 4134 
L 2272 4134 
L 2272 0 
L 1638 0 
L 1638 4134 
L -19 4134 
L -19 4666 
z
" transform="scale(0.015625)"/>
           </defs>
           <use xlink:href="#DejaVuSans-4f"/>
           <use xlink:href="#DejaVuSans-55" x="78.710938"/>
           <use xlink:href="#DejaVuSans-54" x="151.904297"/>
          </g>
         </g>
        </g>
        <g id="xtick_2">
         <g id="line2d_2"/>
         <g id="text_2">
          <!-- SRC -->
          <g transform="translate(544.847656 332.720312) scale(0.1 -0.1)">
           <defs>
            <path id="DejaVuSans-53" d="M 3425 4513 
L 3425 3897 
Q 3066 4069 2747 4153 
Q 2428 4238 2131 4238 
Q 1616 4238 1336 4038 
Q 1056 3838 1056 3469 
Q 1056 3159 1242 3001 
Q 1428 2844 1947 2747 
L 2328 2669 
Q 3034 2534 3370 2195 
Q 3706 1856 3706 1288 
Q 3706 609 3251 259 
Q 2797 -91 1919 -91 
Q 1588 -91 1214 -16 
Q 841 59 441 206 
L 441 856 
Q 825 641 1194 531 
Q 1563 422 1919 422 
Q 2459 422 2753 634 
Q 3047 847 3047 1241 
Q 3047 1584 2836 1778 
Q 2625 1972 2144 2069 
L 1759 2144 
Q 1053 2284 737 2584 
Q 422 2884 422 3419 
Q 422 4038 858 4394 
Q 1294 4750 2059 4750 
Q 2388 4750 2728 4690 
Q 3069 4631 3425 4513 
z
" transform="scale(0.015625)"/>
            <path id="DejaVuSans-52" d="M 2841 2188 
Q 3044 2119 3236 1894 
Q 3428 1669 3622 1275 
L 4263 0 
L 3584 0 
L 2988 1197 
Q 2756 1666 2539 1819 
Q 2322 1972 1947 1972 
L 1259 1972 
L 1259 0 
L 628 0 
L 628 4666 
L 2053 4666 
Q 2853 4666 3247 4331 
Q 3641 3997 3641 3322 
Q 3641 2881 3436 2590 
Q 3231 2300 2841 2188 
z
M 1259 4147 
L 1259 2491 
L 2053 2491 
Q 2509 2491 2742 2702 
Q 2975 2913 2975 3322 
Q 2975 3731 2742 3939 
Q 2509 4147 2053 4147 
L 1259 4147 
z
" transform="scale(0.015625)"/>
            <path id="DejaVuSans-43" d="M 4122 4306 
L 4122 3641 
Q 3803 3938 3442 4084 
Q 3081 4231 2675 4231 
Q 1875 4231 1450 3742 
Q 1025 3253 1025 2328 
Q 1025 1406 1450 917 
Q 1875 428 2675 428 
Q 3081 428 3442 575 
Q 3803 722 4122 1019 
L 4122 359 
Q 3791 134 3420 21 
Q 3050 -91 2638 -91 
Q 1578 -91 968 557 
Q 359 1206 359 2328 
Q 359 3453 968 4101 
Q 1578 4750 2638 4750 
Q 3056 4750 3426 4639 
Q 3797 4528 4122 4306 
z
" transform="scale(0.015625)"/>
           </defs>
           <use xlink:href="#DejaVuSans-53"/>
           <use xlink:href="#DejaVuSans-52" x="63.476562"/>
           <use xlink:href="#DejaVuSans-43" x="127.958984"/>
          </g>
         </g>
        </g>
        <g id="xtick_3">
         <g id="line2d_3"/>
         <g id="text_3">
          <!-- TAR -->
          <g transform="translate(431.040367 332.720312) scale(0.1 -0.1)">
           <defs>
            <path id="DejaVuSans-41" d="M 2188 4044 
L 1331 1722 
L 3047 1722 
L 2188 4044 
z
M 1831 4666 
L 2547 4666 
L 4325 0 
L 3669 0 
L 3244 1197 
L 1141 1197 
L 716 0 
L 50 0 
L 1831 4666 
z
" transform="scale(0.015625)"/>
           </defs>
           <use xlink:href="#DejaVuSans-54"/>
           <use xlink:href="#DejaVuSans-41" x="53.333984"/>
           <use xlink:href="#DejaVuSans-52" x="121.742188"/>
          </g>
         </g>
        </g>
       </g>
       <g id="matplotlib.axis_2">
        <g id="ytick_1">
         <g id="line2d_4">
          <defs>
           <path id="m5558f27e27" d="M 0 0 
L -3.5 0 
" style="stroke: #000000; stroke-width: 0.8"/>
          </defs>
          <g>
           <use xlink:href="#m5558f27e27" x="63.290625" y="321.621875" style="stroke: #000000; stroke-width: 0.8"/>
          </g>
         </g>
         <g id="text_4">
          <!-- 0 -->
          <g transform="translate(49.928125 325.421094) scale(0.1 -0.1)">
           <defs>
            <path id="DejaVuSans-30" d="M 2034 4250 
Q 1547 4250 1301 3770 
Q 1056 3291 1056 2328 
Q 1056 1369 1301 889 
Q 1547 409 2034 409 
Q 2525 409 2770 889 
Q 3016 1369 3016 2328 
Q 3016 3291 2770 3770 
Q 2525 4250 2034 4250 
z
M 2034 4750 
Q 2819 4750 3233 4129 
Q 3647 3509 3647 2328 
Q 3647 1150 3233 529 
Q 2819 -91 2034 -91 
Q 1250 -91 836 529 
Q 422 1150 422 2328 
Q 422 3509 836 4129 
Q 1250 4750 2034 4750 
z
" transform="scale(0.015625)"/>
           </defs>
           <use xlink:href="#DejaVuSans-30"/>
          </g>
         </g>
        </g>
        <g id="ytick_2">
         <g id="line2d_5">
          <g>
           <use xlink:href="#m5558f27e27" x="63.290625" y="284.484427" style="stroke: #000000; stroke-width: 0.8"/>
          </g>
         </g>
         <g id="text_5">
          <!-- 2500 -->
          <g transform="translate(30.840625 288.283645) scale(0.1 -0.1)">
           <defs>
            <path id="DejaVuSans-32" d="M 1228 531 
L 3431 531 
L 3431 0 
L 469 0 
L 469 531 
Q 828 903 1448 1529 
Q 2069 2156 2228 2338 
Q 2531 2678 2651 2914 
Q 2772 3150 2772 3378 
Q 2772 3750 2511 3984 
Q 2250 4219 1831 4219 
Q 1534 4219 1204 4116 
Q 875 4013 500 3803 
L 500 4441 
Q 881 4594 1212 4672 
Q 1544 4750 1819 4750 
Q 2544 4750 2975 4387 
Q 3406 4025 3406 3419 
Q 3406 3131 3298 2873 
Q 3191 2616 2906 2266 
Q 2828 2175 2409 1742 
Q 1991 1309 1228 531 
z
" transform="scale(0.015625)"/>
            <path id="DejaVuSans-35" d="M 691 4666 
L 3169 4666 
L 3169 4134 
L 1269 4134 
L 1269 2991 
Q 1406 3038 1543 3061 
Q 1681 3084 1819 3084 
Q 2600 3084 3056 2656 
Q 3513 2228 3513 1497 
Q 3513 744 3044 326 
Q 2575 -91 1722 -91 
Q 1428 -91 1123 -41 
Q 819 9 494 109 
L 494 744 
Q 775 591 1075 516 
Q 1375 441 1709 441 
Q 2250 441 2565 725 
Q 2881 1009 2881 1497 
Q 2881 1984 2565 2268 
Q 2250 2553 1709 2553 
Q 1456 2553 1204 2497 
Q 953 2441 691 2322 
L 691 4666 
z
" transform="scale(0.015625)"/>
           </defs>
           <use xlink:href="#DejaVuSans-32"/>
           <use xlink:href="#DejaVuSans-35" x="63.623047"/>
           <use xlink:href="#DejaVuSans-30" x="127.246094"/>
           <use xlink:href="#DejaVuSans-30" x="190.869141"/>
          </g>
         </g>
        </g>
        <g id="ytick_3">
         <g id="line2d_6">
          <g>
           <use xlink:href="#m5558f27e27" x="63.290625" y="247.346978" style="stroke: #000000; stroke-width: 0.8"/>
          </g>
         </g>
         <g id="text_6">
          <!-- 5000 -->
          <g transform="translate(30.840625 251.146197) scale(0.1 -0.1)">
           <use xlink:href="#DejaVuSans-35"/>
           <use xlink:href="#DejaVuSans-30" x="63.623047"/>
           <use xlink:href="#DejaVuSans-30" x="127.246094"/>
           <use xlink:href="#DejaVuSans-30" x="190.869141"/>
          </g>
         </g>
        </g>
        <g id="ytick_4">
         <g id="line2d_7">
          <g>
           <use xlink:href="#m5558f27e27" x="63.290625" y="210.20953" style="stroke: #000000; stroke-width: 0.8"/>
          </g>
         </g>
         <g id="text_7">
          <!-- 7500 -->
          <g transform="translate(30.840625 214.008748) scale(0.1 -0.1)">
           <defs>
            <path id="DejaVuSans-37" d="M 525 4666 
L 3525 4666 
L 3525 4397 
L 1831 0 
L 1172 0 
L 2766 4134 
L 525 4134 
L 525 4666 
z
" transform="scale(0.015625)"/>
           </defs>
           <use xlink:href="#DejaVuSans-37"/>
           <use xlink:href="#DejaVuSans-35" x="63.623047"/>
           <use xlink:href="#DejaVuSans-30" x="127.246094"/>
           <use xlink:href="#DejaVuSans-30" x="190.869141"/>
          </g>
         </g>
        </g>
        <g id="ytick_5">
         <g id="line2d_8">
          <g>
           <use xlink:href="#m5558f27e27" x="63.290625" y="173.072081" style="stroke: #000000; stroke-width: 0.8"/>
          </g>
         </g>
         <g id="text_8">
          <!-- 10000 -->
          <g transform="translate(24.478125 176.8713) scale(0.1 -0.1)">
           <defs>
            <path id="DejaVuSans-31" d="M 794 531 
L 1825 531 
L 1825 4091 
L 703 3866 
L 703 4441 
L 1819 4666 
L 2450 4666 
L 2450 531 
L 3481 531 
L 3481 0 
L 794 0 
L 794 531 
z
" transform="scale(0.015625)"/>
           </defs>
           <use xlink:href="#DejaVuSans-31"/>
           <use xlink:href="#DejaVuSans-30" x="63.623047"/>
           <use xlink:href="#DejaVuSans-30" x="127.246094"/>
           <use xlink:href="#DejaVuSans-30" x="190.869141"/>
           <use xlink:href="#DejaVuSans-30" x="254.492188"/>
          </g>
         </g>
        </g>
        <g id="ytick_6">
         <g id="line2d_9">
          <g>
           <use xlink:href="#m5558f27e27" x="63.290625" y="135.934633" style="stroke: #000000; stroke-width: 0.8"/>
          </g>
         </g>
         <g id="text_9">
          <!-- 12500 -->
          <g transform="translate(24.478125 139.733851) scale(0.1 -0.1)">
           <use xlink:href="#DejaVuSans-31"/>
           <use xlink:href="#DejaVuSans-32" x="63.623047"/>
           <use xlink:href="#DejaVuSans-35" x="127.246094"/>
           <use xlink:href="#DejaVuSans-30" x="190.869141"/>
           <use xlink:href="#DejaVuSans-30" x="254.492188"/>
          </g>
         </g>
        </g>
        <g id="ytick_7">
         <g id="line2d_10">
          <g>
           <use xlink:href="#m5558f27e27" x="63.290625" y="98.797184" style="stroke: #000000; stroke-width: 0.8"/>
          </g>
         </g>
         <g id="text_10">
          <!-- 15000 -->
          <g transform="translate(24.478125 102.596403) scale(0.1 -0.1)">
           <use xlink:href="#DejaVuSans-31"/>
           <use xlink:href="#DejaVuSans-35" x="63.623047"/>
           <use xlink:href="#DejaVuSans-30" x="127.246094"/>
           <use xlink:href="#DejaVuSans-30" x="190.869141"/>
           <use xlink:href="#DejaVuSans-30" x="254.492188"/>
          </g>
         </g>
        </g>
        <g id="ytick_8">
         <g id="line2d_11">
          <g>
           <use xlink:href="#m5558f27e27" x="63.290625" y="61.659736" style="stroke: #000000; stroke-width: 0.8"/>
          </g>
         </g>
         <g id="text_11">
          <!-- 17500 -->
          <g transform="translate(24.478125 65.458954) scale(0.1 -0.1)">
           <use xlink:href="#DejaVuSans-31"/>
           <use xlink:href="#DejaVuSans-37" x="63.623047"/>
           <use xlink:href="#DejaVuSans-35" x="127.246094"/>
           <use xlink:href="#DejaVuSans-30" x="190.869141"/>
           <use xlink:href="#DejaVuSans-30" x="254.492188"/>
          </g>
         </g>
        </g>
        <g id="ytick_9">
         <g id="line2d_12">
          <g>
           <use xlink:href="#m5558f27e27" x="63.290625" y="24.522287" style="stroke: #000000; stroke-width: 0.8"/>
          </g>
         </g>
         <g id="text_12">
          <!-- 20000 -->
          <g transform="translate(24.478125 28.321506) scale(0.1 -0.1)">
           <use xlink:href="#DejaVuSans-32"/>
           <use xlink:href="#DejaVuSans-30" x="63.623047"/>
           <use xlink:href="#DejaVuSans-30" x="127.246094"/>
           <use xlink:href="#DejaVuSans-30" x="190.869141"/>
           <use xlink:href="#DejaVuSans-30" x="254.492188"/>
          </g>
         </g>
        </g>
        <g id="text_13">
         <!-- time ago (generations) -->
         <g transform="translate(18.398438 223.682031) rotate(-90) scale(0.1 -0.1)">
          <defs>
           <path id="DejaVuSans-74" d="M 1172 4494 
L 1172 3500 
L 2356 3500 
L 2356 3053 
L 1172 3053 
L 1172 1153 
Q 1172 725 1289 603 
Q 1406 481 1766 481 
L 2356 481 
L 2356 0 
L 1766 0 
Q 1100 0 847 248 
Q 594 497 594 1153 
L 594 3053 
L 172 3053 
L 172 3500 
L 594 3500 
L 594 4494 
L 1172 4494 
z
" transform="scale(0.015625)"/>
           <path id="DejaVuSans-69" d="M 603 3500 
L 1178 3500 
L 1178 0 
L 603 0 
L 603 3500 
z
M 603 4863 
L 1178 4863 
L 1178 4134 
L 603 4134 
L 603 4863 
z
" transform="scale(0.015625)"/>
           <path id="DejaVuSans-6d" d="M 3328 2828 
Q 3544 3216 3844 3400 
Q 4144 3584 4550 3584 
Q 5097 3584 5394 3201 
Q 5691 2819 5691 2113 
L 5691 0 
L 5113 0 
L 5113 2094 
Q 5113 2597 4934 2840 
Q 4756 3084 4391 3084 
Q 3944 3084 3684 2787 
Q 3425 2491 3425 1978 
L 3425 0 
L 2847 0 
L 2847 2094 
Q 2847 2600 2669 2842 
Q 2491 3084 2119 3084 
Q 1678 3084 1418 2786 
Q 1159 2488 1159 1978 
L 1159 0 
L 581 0 
L 581 3500 
L 1159 3500 
L 1159 2956 
Q 1356 3278 1631 3431 
Q 1906 3584 2284 3584 
Q 2666 3584 2933 3390 
Q 3200 3197 3328 2828 
z
" transform="scale(0.015625)"/>
           <path id="DejaVuSans-65" d="M 3597 1894 
L 3597 1613 
L 953 1613 
Q 991 1019 1311 708 
Q 1631 397 2203 397 
Q 2534 397 2845 478 
Q 3156 559 3463 722 
L 3463 178 
Q 3153 47 2828 -22 
Q 2503 -91 2169 -91 
Q 1331 -91 842 396 
Q 353 884 353 1716 
Q 353 2575 817 3079 
Q 1281 3584 2069 3584 
Q 2775 3584 3186 3129 
Q 3597 2675 3597 1894 
z
M 3022 2063 
Q 3016 2534 2758 2815 
Q 2500 3097 2075 3097 
Q 1594 3097 1305 2825 
Q 1016 2553 972 2059 
L 3022 2063 
z
" transform="scale(0.015625)"/>
           <path id="DejaVuSans-20" transform="scale(0.015625)"/>
           <path id="DejaVuSans-61" d="M 2194 1759 
Q 1497 1759 1228 1600 
Q 959 1441 959 1056 
Q 959 750 1161 570 
Q 1363 391 1709 391 
Q 2188 391 2477 730 
Q 2766 1069 2766 1631 
L 2766 1759 
L 2194 1759 
z
M 3341 1997 
L 3341 0 
L 2766 0 
L 2766 531 
Q 2569 213 2275 61 
Q 1981 -91 1556 -91 
Q 1019 -91 701 211 
Q 384 513 384 1019 
Q 384 1609 779 1909 
Q 1175 2209 1959 2209 
L 2766 2209 
L 2766 2266 
Q 2766 2663 2505 2880 
Q 2244 3097 1772 3097 
Q 1472 3097 1187 3025 
Q 903 2953 641 2809 
L 641 3341 
Q 956 3463 1253 3523 
Q 1550 3584 1831 3584 
Q 2591 3584 2966 3190 
Q 3341 2797 3341 1997 
z
" transform="scale(0.015625)"/>
           <path id="DejaVuSans-67" d="M 2906 1791 
Q 2906 2416 2648 2759 
Q 2391 3103 1925 3103 
Q 1463 3103 1205 2759 
Q 947 2416 947 1791 
Q 947 1169 1205 825 
Q 1463 481 1925 481 
Q 2391 481 2648 825 
Q 2906 1169 2906 1791 
z
M 3481 434 
Q 3481 -459 3084 -895 
Q 2688 -1331 1869 -1331 
Q 1566 -1331 1297 -1286 
Q 1028 -1241 775 -1147 
L 775 -588 
Q 1028 -725 1275 -790 
Q 1522 -856 1778 -856 
Q 2344 -856 2625 -561 
Q 2906 -266 2906 331 
L 2906 616 
Q 2728 306 2450 153 
Q 2172 0 1784 0 
Q 1141 0 747 490 
Q 353 981 353 1791 
Q 353 2603 747 3093 
Q 1141 3584 1784 3584 
Q 2172 3584 2450 3431 
Q 2728 3278 2906 2969 
L 2906 3500 
L 3481 3500 
L 3481 434 
z
" transform="scale(0.015625)"/>
           <path id="DejaVuSans-6f" d="M 1959 3097 
Q 1497 3097 1228 2736 
Q 959 2375 959 1747 
Q 959 1119 1226 758 
Q 1494 397 1959 397 
Q 2419 397 2687 759 
Q 2956 1122 2956 1747 
Q 2956 2369 2687 2733 
Q 2419 3097 1959 3097 
z
M 1959 3584 
Q 2709 3584 3137 3096 
Q 3566 2609 3566 1747 
Q 3566 888 3137 398 
Q 2709 -91 1959 -91 
Q 1206 -91 779 398 
Q 353 888 353 1747 
Q 353 2609 779 3096 
Q 1206 3584 1959 3584 
z
" transform="scale(0.015625)"/>
           <path id="DejaVuSans-28" d="M 1984 4856 
Q 1566 4138 1362 3434 
Q 1159 2731 1159 2009 
Q 1159 1288 1364 580 
Q 1569 -128 1984 -844 
L 1484 -844 
Q 1016 -109 783 600 
Q 550 1309 550 2009 
Q 550 2706 781 3412 
Q 1013 4119 1484 4856 
L 1984 4856 
z
" transform="scale(0.015625)"/>
           <path id="DejaVuSans-6e" d="M 3513 2113 
L 3513 0 
L 2938 0 
L 2938 2094 
Q 2938 2591 2744 2837 
Q 2550 3084 2163 3084 
Q 1697 3084 1428 2787 
Q 1159 2491 1159 1978 
L 1159 0 
L 581 0 
L 581 3500 
L 1159 3500 
L 1159 2956 
Q 1366 3272 1645 3428 
Q 1925 3584 2291 3584 
Q 2894 3584 3203 3211 
Q 3513 2838 3513 2113 
z
" transform="scale(0.015625)"/>
           <path id="DejaVuSans-72" d="M 2631 2963 
Q 2534 3019 2420 3045 
Q 2306 3072 2169 3072 
Q 1681 3072 1420 2755 
Q 1159 2438 1159 1844 
L 1159 0 
L 581 0 
L 581 3500 
L 1159 3500 
L 1159 2956 
Q 1341 3275 1631 3429 
Q 1922 3584 2338 3584 
Q 2397 3584 2469 3576 
Q 2541 3569 2628 3553 
L 2631 2963 
z
" transform="scale(0.015625)"/>
           <path id="DejaVuSans-73" d="M 2834 3397 
L 2834 2853 
Q 2591 2978 2328 3040 
Q 2066 3103 1784 3103 
Q 1356 3103 1142 2972 
Q 928 2841 928 2578 
Q 928 2378 1081 2264 
Q 1234 2150 1697 2047 
L 1894 2003 
Q 2506 1872 2764 1633 
Q 3022 1394 3022 966 
Q 3022 478 2636 193 
Q 2250 -91 1575 -91 
Q 1294 -91 989 -36 
Q 684 19 347 128 
L 347 722 
Q 666 556 975 473 
Q 1284 391 1588 391 
Q 1994 391 2212 530 
Q 2431 669 2431 922 
Q 2431 1156 2273 1281 
Q 2116 1406 1581 1522 
L 1381 1569 
Q 847 1681 609 1914 
Q 372 2147 372 2553 
Q 372 3047 722 3315 
Q 1072 3584 1716 3584 
Q 2034 3584 2315 3537 
Q 2597 3491 2834 3397 
z
" transform="scale(0.015625)"/>
           <path id="DejaVuSans-29" d="M 513 4856 
L 1013 4856 
Q 1481 4119 1714 3412 
Q 1947 2706 1947 2009 
Q 1947 1309 1714 600 
Q 1481 -109 1013 -844 
L 513 -844 
Q 928 -128 1133 580 
Q 1338 1288 1338 2009 
Q 1338 2731 1133 3434 
Q 928 4138 513 4856 
z
" transform="scale(0.015625)"/>
          </defs>
          <use xlink:href="#DejaVuSans-74"/>
          <use xlink:href="#DejaVuSans-69" x="39.208984"/>
          <use xlink:href="#DejaVuSans-6d" x="66.992188"/>
          <use xlink:href="#DejaVuSans-65" x="164.404297"/>
          <use xlink:href="#DejaVuSans-20" x="225.927734"/>
          <use xlink:href="#DejaVuSans-61" x="257.714844"/>
          <use xlink:href="#DejaVuSans-67" x="318.994141"/>
          <use xlink:href="#DejaVuSans-6f" x="382.470703"/>
          <use xlink:href="#DejaVuSans-20" x="443.652344"/>
          <use xlink:href="#DejaVuSans-28" x="475.439453"/>
          <use xlink:href="#DejaVuSans-67" x="514.453125"/>
          <use xlink:href="#DejaVuSans-65" x="577.929688"/>
          <use xlink:href="#DejaVuSans-6e" x="639.453125"/>
          <use xlink:href="#DejaVuSans-65" x="702.832031"/>
          <use xlink:href="#DejaVuSans-72" x="764.355469"/>
          <use xlink:href="#DejaVuSans-61" x="805.46875"/>
          <use xlink:href="#DejaVuSans-74" x="866.748047"/>
          <use xlink:href="#DejaVuSans-69" x="905.957031"/>
          <use xlink:href="#DejaVuSans-6f" x="933.740234"/>
          <use xlink:href="#DejaVuSans-6e" x="994.921875"/>
          <use xlink:href="#DejaVuSans-73" x="1058.300781"/>
          <use xlink:href="#DejaVuSans-29" x="1110.400391"/>
         </g>
        </g>
       </g>
       <g id="patch_7">
        <path d="M 286.174234 114.840562 
L 285.174234 114.809125 
L 284.174234 114.772185 
L 283.174234 114.674439 
L 282.174234 114.641917 
L 281.174234 114.568292 
L 280.174234 114.529727 
L 279.174234 114.494314 
L 278.174234 114.436674 
L 277.174234 114.366287 
L 276.174234 114.314323 
L 275.174234 114.255233 
L 274.174234 114.166912 
L 273.174234 114.120768 
L 272.174234 114.078357 
L 271.174234 114.047865 
L 270.174234 114.02182 
L 269.174234 114.00062 
L 268.174234 113.946318 
L 267.174234 113.918381 
L 266.174234 113.888657 
L 265.174234 113.863262 
L 264.174234 113.852062 
L 263.174234 113.841938 
L 262.174234 113.842142 
L 261.174234 113.851652 
L 260.174234 113.863305 
L 259.174234 113.894335 
L 258.174234 113.905503 
L 257.174234 113.93562 
L 256.174234 113.995397 
L 255.174234 114.032589 
L 254.174234 114.071685 
L 253.174234 114.114124 
L 252.174234 114.14689 
L 251.174234 114.214316 
L 250.174234 114.253442 
L 249.174234 114.296116 
L 248.174234 114.366697 
L 247.174234 114.403088 
L 246.174234 114.461491 
L 245.174234 114.572444 
L 244.174234 114.643102 
L 243.174234 114.756042 
L 242.174234 114.801815 
L 241.174234 114.863098 
L 240.174234 114.911597 
L 239.174234 114.99242 
L 238.174234 115.110939 
L 237.174234 115.181149 
L 236.174234 115.264412 
L 235.174234 115.297554 
L 234.174234 115.348791 
L 233.174234 115.417189 
L 232.174234 115.483405 
L 231.174234 115.560322 
L 230.174234 115.587637 
L 229.174234 115.614115 
L 228.174234 115.636766 
L 227.174234 115.656297 
L 225.793367 115.682691 
" clip-path="url(#pa9af4ba3db)" style="fill: none; stroke: #ffffff; stroke-width: 3; stroke-linecap: round"/>
        <path d="M 286.174234 114.840562 
L 285.174234 114.809125 
L 284.174234 114.772185 
L 283.174234 114.674439 
L 282.174234 114.641917 
L 281.174234 114.568292 
L 280.174234 114.529727 
L 279.174234 114.494314 
L 278.174234 114.436674 
L 277.174234 114.366287 
L 276.174234 114.314323 
L 275.174234 114.255233 
L 274.174234 114.166912 
L 273.174234 114.120768 
L 272.174234 114.078357 
L 271.174234 114.047865 
L 270.174234 114.02182 
L 269.174234 114.00062 
L 268.174234 113.946318 
L 267.174234 113.918381 
L 266.174234 113.888657 
L 265.174234 113.863262 
L 264.174234 113.852062 
L 263.174234 113.841938 
L 262.174234 113.842142 
L 261.174234 113.851652 
L 260.174234 113.863305 
L 259.174234 113.894335 
L 258.174234 113.905503 
L 257.174234 113.93562 
L 256.174234 113.995397 
L 255.174234 114.032589 
L 254.174234 114.071685 
L 253.174234 114.114124 
L 252.174234 114.14689 
L 251.174234 114.214316 
L 250.174234 114.253442 
L 249.174234 114.296116 
L 248.174234 114.366697 
L 247.174234 114.403088 
L 246.174234 114.461491 
L 245.174234 114.572444 
L 244.174234 114.643102 
L 243.174234 114.756042 
L 242.174234 114.801815 
L 241.174234 114.863098 
L 240.174234 114.911597 
L 239.174234 114.99242 
L 238.174234 115.110939 
L 237.174234 115.181149 
L 236.174234 115.264412 
L 235.174234 115.297554 
L 234.174234 115.348791 
L 233.174234 115.417189 
L 232.174234 115.483405 
L 231.174234 115.560322 
L 230.174234 115.587637 
L 229.174234 115.614115 
L 228.174234 115.636766 
L 227.174234 115.656297 
L 225.793367 115.682691 
" clip-path="url(#pa9af4ba3db)" style="fill: none; stroke: #1f77b4; stroke-linecap: round"/>
        <path d="M 229.793367 116.840562 
L 228.912999 116.365231 
L 228.035092 115.884977 
L 227.184378 115.350336 
L 225.882204 114.662889 
L 226.809557 114.636874 
L 227.721231 114.224154 
L 228.631496 113.808615 
L 229.973991 113.201811 
L 229.319092 113.840562 
L 229.267128 114.840562 
L 229.208038 116.840562 
z
" clip-path="url(#pa9af4ba3db)" style="fill: #ffffff; stroke: #ffffff; stroke-width: 3; stroke-linecap: round"/>
        <path d="M 229.793367 116.840562 
L 228.912999 116.365231 
L 228.035092 115.884977 
L 227.184378 115.350336 
L 225.882204 114.662889 
L 226.809557 114.636874 
L 227.721231 114.224154 
L 228.631496 113.808615 
L 229.973991 113.201811 
L 229.319092 113.840562 
L 229.267128 114.840562 
L 229.208038 116.840562 
z
" clip-path="url(#pa9af4ba3db)" style="fill: #ffffff; stroke: #1f77b4; stroke-linecap: round"/>
        <g id="patch_8">
         <path d="M 366.752636 72.964375 
L 367.752636 72.995811 
L 368.752636 73.032752 
L 369.752636 73.130498 
L 370.752636 73.16302 
L 371.752636 73.236645 
L 372.752636 73.27521 
L 373.752636 73.310623 
L 374.752636 73.368263 
L 375.752636 73.438649 
L 376.752636 73.490614 
L 377.752636 73.549703 
L 378.752636 73.638024 
L 379.752636 73.684169 
L 380.752636 73.72658 
L 381.752636 73.757072 
L 382.752636 73.783117 
L 383.752636 73.804317 
L 384.752636 73.858618 
L 385.752636 73.886556 
L 386.752636 73.91628 
L 387.752636 73.941675 
L 388.752636 73.952875 
L 389.752636 73.962999 
L 390.752636 73.962795 
L 391.752636 73.953285 
L 392.752636 73.941631 
L 393.752636 73.910602 
L 394.752636 73.899434 
L 395.752636 73.869317 
L 396.752636 73.80954 
L 397.752636 73.772348 
L 398.752636 73.733252 
L 399.752636 73.690812 
L 400.752636 73.658047 
L 401.752636 73.590621 
L 402.752636 73.551495 
L 403.752636 73.50882 
L 404.752636 73.43824 
L 405.752636 73.401849 
L 406.752636 73.343446 
L 407.752636 73.232493 
L 408.752636 73.161835 
L 409.752636 73.048895 
L 410.752636 73.003122 
L 411.752636 72.941839 
L 412.752636 72.89334 
L 413.752636 72.812517 
L 414.752636 72.693998 
L 415.752636 72.623787 
L 416.752636 72.540525 
L 417.752636 72.507383 
L 418.752636 72.456146 
L 419.752636 72.387747 
L 420.752636 72.321532 
L 421.752636 72.244615 
L 422.752636 72.217299 
L 423.752636 72.190822 
L 424.752636 72.168171 
L 425.752636 72.14864 
L 426.752636 72.122246 
L 427.752636 72.072475 
L 428.752636 72.037402 
L 429.752636 72.001536 
L 430.752636 71.986169 
L 431.752636 71.9704 
L 432.752636 71.966987 
L 433.752636 71.96457 
L 434.752636 71.965056 
L 435.752636 71.966985 
L 436.752636 71.980242 
L 437.752636 71.988633 
L 438.752636 72.010169 
L 439.752636 72.033202 
L 440.752636 72.050435 
L 441.752636 72.068898 
L 442.752636 72.08935 
L 443.752636 72.10595 
L 444.752636 72.168729 
L 445.752636 72.243994 
L 446.752636 72.276633 
L 447.752636 72.344197 
L 448.752636 72.398244 
L 449.752636 72.431948 
L 450.752636 72.522074 
L 451.752636 72.550609 
L 452.752636 72.582095 
L 453.752636 72.613106 
L 454.752636 72.667914 
L 455.752636 72.732501 
L 456.752636 72.770697 
L 457.752636 72.866631 
L 458.752636 72.915889 
L 459.752636 72.959958 
L 460.752636 73.000082 
L 461.752636 73.108449 
L 462.752636 73.150077 
L 463.752636 73.212219 
L 464.752636 73.282181 
L 465.752636 73.386685 
L 466.752636 73.423673 
L 467.752636 73.46955 
L 468.752636 73.538045 
L 469.752636 73.586791 
L 470.752636 73.664388 
L 471.752636 73.694929 
L 472.752636 73.764443 
L 473.752636 73.788416 
L 474.752636 73.817038 
L 475.752636 73.858831 
L 476.752636 73.880407 
L 477.752636 73.894355 
L 478.752636 73.921077 
L 479.752636 73.930387 
L 480.752636 73.942834 
L 481.752636 73.953889 
L 482.752636 73.959553 
L 483.752636 73.964317 
L 484.752636 73.958769 
L 485.752636 73.945481 
L 486.752636 73.937964 
L 487.752636 73.913179 
L 488.752636 73.88961 
L 489.752636 73.85343 
L 490.752636 73.827468 
L 491.752636 73.805146 
L 492.752636 73.736386 
L 493.752636 73.661851 
L 494.752636 73.567872 
L 495.752636 73.51682 
L 496.752636 73.462886 
L 497.752636 73.427635 
L 498.752636 73.321547 
L 499.752636 73.269283 
L 500.752636 73.232376 
L 501.752636 73.201345 
L 502.752636 73.14019 
L 503.752636 73.07277 
L 504.752636 73.023864 
L 505.752636 72.958672 
L 506.752636 72.920484 
L 507.752636 72.878488 
L 508.752636 72.836471 
L 509.752636 72.776955 
L 510.752636 72.663795 
L 511.752636 72.611544 
L 512.752636 72.572126 
L 513.752636 72.525025 
L 514.752636 72.468245 
L 515.752636 72.435582 
L 516.752636 72.399404 
L 517.752636 72.367314 
L 518.752636 72.333034 
L 519.752636 72.274656 
L 520.752636 72.229471 
L 521.752636 72.199847 
L 522.752636 72.149461 
L 523.752636 72.124264 
L 524.752636 72.103213 
L 525.752636 72.068245 
L 527.313417 72.043955 
" clip-path="url(#pa9af4ba3db)" style="fill: none; stroke: #ffffff; stroke-width: 3; stroke-linecap: round"/>
         <path d="M 366.752636 72.964375 
L 367.752636 72.995811 
L 368.752636 73.032752 
L 369.752636 73.130498 
L 370.752636 73.16302 
L 371.752636 73.236645 
L 372.752636 73.27521 
L 373.752636 73.310623 
L 374.752636 73.368263 
L 375.752636 73.438649 
L 376.752636 73.490614 
L 377.752636 73.549703 
L 378.752636 73.638024 
L 379.752636 73.684169 
L 380.752636 73.72658 
L 381.752636 73.757072 
L 382.752636 73.783117 
L 383.752636 73.804317 
L 384.752636 73.858618 
L 385.752636 73.886556 
L 386.752636 73.91628 
L 387.752636 73.941675 
L 388.752636 73.952875 
L 389.752636 73.962999 
L 390.752636 73.962795 
L 391.752636 73.953285 
L 392.752636 73.941631 
L 393.752636 73.910602 
L 394.752636 73.899434 
L 395.752636 73.869317 
L 396.752636 73.80954 
L 397.752636 73.772348 
L 398.752636 73.733252 
L 399.752636 73.690812 
L 400.752636 73.658047 
L 401.752636 73.590621 
L 402.752636 73.551495 
L 403.752636 73.50882 
L 404.752636 73.43824 
L 405.752636 73.401849 
L 406.752636 73.343446 
L 407.752636 73.232493 
L 408.752636 73.161835 
L 409.752636 73.048895 
L 410.752636 73.003122 
L 411.752636 72.941839 
L 412.752636 72.89334 
L 413.752636 72.812517 
L 414.752636 72.693998 
L 415.752636 72.623787 
L 416.752636 72.540525 
L 417.752636 72.507383 
L 418.752636 72.456146 
L 419.752636 72.387747 
L 420.752636 72.321532 
L 421.752636 72.244615 
L 422.752636 72.217299 
L 423.752636 72.190822 
L 424.752636 72.168171 
L 425.752636 72.14864 
L 426.752636 72.122246 
L 427.752636 72.072475 
L 428.752636 72.037402 
L 429.752636 72.001536 
L 430.752636 71.986169 
L 431.752636 71.9704 
L 432.752636 71.966987 
L 433.752636 71.96457 
L 434.752636 71.965056 
L 435.752636 71.966985 
L 436.752636 71.980242 
L 437.752636 71.988633 
L 438.752636 72.010169 
L 439.752636 72.033202 
L 440.752636 72.050435 
L 441.752636 72.068898 
L 442.752636 72.08935 
L 443.752636 72.10595 
L 444.752636 72.168729 
L 445.752636 72.243994 
L 446.752636 72.276633 
L 447.752636 72.344197 
L 448.752636 72.398244 
L 449.752636 72.431948 
L 450.752636 72.522074 
L 451.752636 72.550609 
L 452.752636 72.582095 
L 453.752636 72.613106 
L 454.752636 72.667914 
L 455.752636 72.732501 
L 456.752636 72.770697 
L 457.752636 72.866631 
L 458.752636 72.915889 
L 459.752636 72.959958 
L 460.752636 73.000082 
L 461.752636 73.108449 
L 462.752636 73.150077 
L 463.752636 73.212219 
L 464.752636 73.282181 
L 465.752636 73.386685 
L 466.752636 73.423673 
L 467.752636 73.46955 
L 468.752636 73.538045 
L 469.752636 73.586791 
L 470.752636 73.664388 
L 471.752636 73.694929 
L 472.752636 73.764443 
L 473.752636 73.788416 
L 474.752636 73.817038 
L 475.752636 73.858831 
L 476.752636 73.880407 
L 477.752636 73.894355 
L 478.752636 73.921077 
L 479.752636 73.930387 
L 480.752636 73.942834 
L 481.752636 73.953889 
L 482.752636 73.959553 
L 483.752636 73.964317 
L 484.752636 73.958769 
L 485.752636 73.945481 
L 486.752636 73.937964 
L 487.752636 73.913179 
L 488.752636 73.88961 
L 489.752636 73.85343 
L 490.752636 73.827468 
L 491.752636 73.805146 
L 492.752636 73.736386 
L 493.752636 73.661851 
L 494.752636 73.567872 
L 495.752636 73.51682 
L 496.752636 73.462886 
L 497.752636 73.427635 
L 498.752636 73.321547 
L 499.752636 73.269283 
L 500.752636 73.232376 
L 501.752636 73.201345 
L 502.752636 73.14019 
L 503.752636 73.07277 
L 504.752636 73.023864 
L 505.752636 72.958672 
L 506.752636 72.920484 
L 507.752636 72.878488 
L 508.752636 72.836471 
L 509.752636 72.776955 
L 510.752636 72.663795 
L 511.752636 72.611544 
L 512.752636 72.572126 
L 513.752636 72.525025 
L 514.752636 72.468245 
L 515.752636 72.435582 
L 516.752636 72.399404 
L 517.752636 72.367314 
L 518.752636 72.333034 
L 519.752636 72.274656 
L 520.752636 72.229471 
L 521.752636 72.199847 
L 522.752636 72.149461 
L 523.752636 72.124264 
L 524.752636 72.103213 
L 525.752636 72.068245 
L 527.313417 72.043955 
" clip-path="url(#pa9af4ba3db)" style="fill: none; stroke: #1f77b4; stroke-linecap: round"/>
         <path d="M 523.313417 70.964375 
L 524.193786 71.439706 
L 525.071693 71.91996 
L 525.922406 72.454601 
L 527.224581 73.142048 
L 526.297228 73.168063 
L 525.385553 73.580783 
L 524.475289 73.996322 
L 523.132793 74.603126 
L 523.787692 73.964375 
L 523.839656 72.964375 
L 523.898746 70.964375 
z
" clip-path="url(#pa9af4ba3db)" style="fill: #ffffff; stroke: #ffffff; stroke-width: 3; stroke-linecap: round"/>
         <path d="M 523.313417 70.964375 
L 524.193786 71.439706 
L 525.071693 71.91996 
L 525.922406 72.454601 
L 527.224581 73.142048 
L 526.297228 73.168063 
L 525.385553 73.580783 
L 524.475289 73.996322 
L 523.132793 74.603126 
L 523.787692 73.964375 
L 523.839656 72.964375 
L 523.898746 70.964375 
z
" clip-path="url(#pa9af4ba3db)" style="fill: #ffffff; stroke: #1f77b4; stroke-linecap: round"/>
         <g id="patch_9">
          <path d="M 224.673404 279.092069 
L 225.673404 279.123505 
L 226.673404 279.160446 
L 227.673404 279.258192 
L 228.673404 279.290714 
L 229.673404 279.364339 
L 230.673404 279.402904 
L 231.673404 279.438317 
L 232.673404 279.495957 
L 233.673404 279.566343 
L 234.673404 279.618308 
L 235.673404 279.677397 
L 236.673404 279.765718 
L 237.673404 279.811863 
L 238.673404 279.854274 
L 239.673404 279.884766 
L 240.673404 279.910811 
L 241.673404 279.932011 
L 242.673404 279.986312 
L 243.673404 280.01425 
L 244.673404 280.043974 
L 245.673404 280.069369 
L 246.673404 280.080569 
L 247.673404 280.090693 
L 248.673404 280.090489 
L 249.673404 280.080979 
L 250.673404 280.069325 
L 251.673404 280.038296 
L 252.673404 280.027128 
L 253.673404 279.997011 
L 254.673404 279.937234 
L 255.673404 279.900042 
L 256.673404 279.860946 
L 257.673404 279.818506 
L 258.673404 279.785741 
L 259.673404 279.718315 
L 260.673404 279.679189 
L 261.673404 279.636514 
L 262.673404 279.565934 
L 263.673404 279.529543 
L 264.673404 279.47114 
L 265.673404 279.360187 
L 266.673404 279.289529 
L 267.673404 279.176589 
L 268.673404 279.130816 
L 269.673404 279.069533 
L 270.673404 279.021034 
L 271.673404 278.940211 
L 272.673404 278.821692 
L 273.673404 278.751481 
L 274.673404 278.668219 
L 275.673404 278.635077 
L 276.673404 278.58384 
L 277.673404 278.515441 
L 278.673404 278.449226 
L 279.673404 278.372309 
L 280.673404 278.344993 
L 281.673404 278.318516 
L 282.673404 278.295865 
L 283.673404 278.276334 
L 284.673404 278.24994 
L 285.673404 278.200169 
L 286.673404 278.165096 
L 287.673404 278.12923 
L 288.673404 278.113863 
L 289.673404 278.098094 
L 290.673404 278.094681 
L 291.673404 278.092264 
L 292.673404 278.09275 
L 293.673404 278.094679 
L 294.673404 278.107936 
L 295.673404 278.116327 
L 296.673404 278.137863 
L 297.673404 278.160896 
L 298.673404 278.178129 
L 299.673404 278.196592 
L 300.673404 278.217044 
L 301.673404 278.233644 
L 302.673404 278.296423 
L 303.673404 278.371688 
L 304.673404 278.404327 
L 305.673404 278.471891 
L 306.673404 278.525938 
L 307.673404 278.559642 
L 308.673404 278.649768 
L 309.673404 278.678303 
L 310.673404 278.709789 
L 311.673404 278.7408 
L 312.673404 278.795608 
L 313.673404 278.860195 
L 314.673404 278.898391 
L 315.673404 278.994325 
L 316.673404 279.043583 
L 317.673404 279.087652 
L 318.673404 279.127776 
L 319.673404 279.236143 
L 320.673404 279.277771 
L 321.673404 279.339913 
L 322.673404 279.409875 
L 323.673404 279.514379 
L 324.673404 279.551367 
L 325.673404 279.597244 
L 326.673404 279.665739 
L 327.673404 279.714485 
L 328.673404 279.792082 
L 329.673404 279.822623 
L 330.673404 279.892137 
L 331.673404 279.91611 
L 332.673404 279.944732 
L 333.673404 279.986525 
L 334.673404 280.008101 
L 335.673404 280.022049 
L 336.673404 280.048771 
L 337.673404 280.058081 
L 338.673404 280.070528 
L 339.673404 280.081583 
L 340.673404 280.087247 
L 341.673404 280.092011 
L 342.673404 280.086464 
L 343.673404 280.073175 
L 344.673404 280.065658 
L 345.673404 280.040873 
L 346.673404 280.017304 
L 347.673404 279.981124 
L 348.673404 279.955162 
L 349.673404 279.93284 
L 350.673404 279.86408 
L 351.673404 279.789545 
L 352.673404 279.695566 
L 353.673404 279.644514 
L 354.673404 279.59058 
L 355.673404 279.555329 
L 356.673404 279.449241 
L 357.673404 279.396977 
L 358.673404 279.36007 
L 359.673404 279.329039 
L 360.673404 279.267884 
L 361.673404 279.200464 
L 362.673404 279.151558 
L 363.673404 279.086366 
L 364.673404 279.048178 
L 365.673404 279.006182 
L 366.673404 278.964165 
L 367.673404 278.904649 
L 368.673404 278.791489 
L 369.673404 278.739238 
L 370.673404 278.69982 
L 371.673404 278.652719 
L 372.673404 278.59594 
L 373.673404 278.563276 
L 374.673404 278.527098 
L 375.673404 278.495008 
L 376.673404 278.460728 
L 377.673404 278.40235 
L 378.673404 278.357165 
L 379.673404 278.327541 
L 380.673404 278.277155 
L 381.673404 278.251958 
L 382.673404 278.230907 
L 383.673404 278.195939 
L 384.673404 278.171649 
L 385.673404 278.157582 
L 386.673404 278.13864 
L 387.673404 278.122979 
L 388.673404 278.110427 
L 389.673404 278.104591 
L 390.673404 278.097709 
L 391.673404 278.092535 
L 392.673404 278.094318 
L 393.673404 278.097043 
L 394.673404 278.108197 
L 395.673404 278.136432 
L 396.673404 278.18022 
L 397.673404 278.200909 
L 398.673404 278.241882 
L 399.673404 278.281957 
L 400.673404 278.301067 
L 401.673404 278.323576 
L 402.673404 278.390227 
L 403.673404 278.439937 
L 404.673404 278.513643 
L 405.673404 278.544957 
L 406.673404 278.621579 
L 407.673404 278.659877 
L 408.673404 278.733994 
L 409.673404 278.838052 
L 410.673404 278.907883 
L 411.673404 279.013117 
L 412.673404 279.068132 
L 413.920819 279.191607 
" clip-path="url(#pa9af4ba3db)" style="fill: none; stroke: #ffffff; stroke-width: 3; stroke-linecap: round"/>
          <path d="M 224.673404 279.092069 
L 225.673404 279.123505 
L 226.673404 279.160446 
L 227.673404 279.258192 
L 228.673404 279.290714 
L 229.673404 279.364339 
L 230.673404 279.402904 
L 231.673404 279.438317 
L 232.673404 279.495957 
L 233.673404 279.566343 
L 234.673404 279.618308 
L 235.673404 279.677397 
L 236.673404 279.765718 
L 237.673404 279.811863 
L 238.673404 279.854274 
L 239.673404 279.884766 
L 240.673404 279.910811 
L 241.673404 279.932011 
L 242.673404 279.986312 
L 243.673404 280.01425 
L 244.673404 280.043974 
L 245.673404 280.069369 
L 246.673404 280.080569 
L 247.673404 280.090693 
L 248.673404 280.090489 
L 249.673404 280.080979 
L 250.673404 280.069325 
L 251.673404 280.038296 
L 252.673404 280.027128 
L 253.673404 279.997011 
L 254.673404 279.937234 
L 255.673404 279.900042 
L 256.673404 279.860946 
L 257.673404 279.818506 
L 258.673404 279.785741 
L 259.673404 279.718315 
L 260.673404 279.679189 
L 261.673404 279.636514 
L 262.673404 279.565934 
L 263.673404 279.529543 
L 264.673404 279.47114 
L 265.673404 279.360187 
L 266.673404 279.289529 
L 267.673404 279.176589 
L 268.673404 279.130816 
L 269.673404 279.069533 
L 270.673404 279.021034 
L 271.673404 278.940211 
L 272.673404 278.821692 
L 273.673404 278.751481 
L 274.673404 278.668219 
L 275.673404 278.635077 
L 276.673404 278.58384 
L 277.673404 278.515441 
L 278.673404 278.449226 
L 279.673404 278.372309 
L 280.673404 278.344993 
L 281.673404 278.318516 
L 282.673404 278.295865 
L 283.673404 278.276334 
L 284.673404 278.24994 
L 285.673404 278.200169 
L 286.673404 278.165096 
L 287.673404 278.12923 
L 288.673404 278.113863 
L 289.673404 278.098094 
L 290.673404 278.094681 
L 291.673404 278.092264 
L 292.673404 278.09275 
L 293.673404 278.094679 
L 294.673404 278.107936 
L 295.673404 278.116327 
L 296.673404 278.137863 
L 297.673404 278.160896 
L 298.673404 278.178129 
L 299.673404 278.196592 
L 300.673404 278.217044 
L 301.673404 278.233644 
L 302.673404 278.296423 
L 303.673404 278.371688 
L 304.673404 278.404327 
L 305.673404 278.471891 
L 306.673404 278.525938 
L 307.673404 278.559642 
L 308.673404 278.649768 
L 309.673404 278.678303 
L 310.673404 278.709789 
L 311.673404 278.7408 
L 312.673404 278.795608 
L 313.673404 278.860195 
L 314.673404 278.898391 
L 315.673404 278.994325 
L 316.673404 279.043583 
L 317.673404 279.087652 
L 318.673404 279.127776 
L 319.673404 279.236143 
L 320.673404 279.277771 
L 321.673404 279.339913 
L 322.673404 279.409875 
L 323.673404 279.514379 
L 324.673404 279.551367 
L 325.673404 279.597244 
L 326.673404 279.665739 
L 327.673404 279.714485 
L 328.673404 279.792082 
L 329.673404 279.822623 
L 330.673404 279.892137 
L 331.673404 279.91611 
L 332.673404 279.944732 
L 333.673404 279.986525 
L 334.673404 280.008101 
L 335.673404 280.022049 
L 336.673404 280.048771 
L 337.673404 280.058081 
L 338.673404 280.070528 
L 339.673404 280.081583 
L 340.673404 280.087247 
L 341.673404 280.092011 
L 342.673404 280.086464 
L 343.673404 280.073175 
L 344.673404 280.065658 
L 345.673404 280.040873 
L 346.673404 280.017304 
L 347.673404 279.981124 
L 348.673404 279.955162 
L 349.673404 279.93284 
L 350.673404 279.86408 
L 351.673404 279.789545 
L 352.673404 279.695566 
L 353.673404 279.644514 
L 354.673404 279.59058 
L 355.673404 279.555329 
L 356.673404 279.449241 
L 357.673404 279.396977 
L 358.673404 279.36007 
L 359.673404 279.329039 
L 360.673404 279.267884 
L 361.673404 279.200464 
L 362.673404 279.151558 
L 363.673404 279.086366 
L 364.673404 279.048178 
L 365.673404 279.006182 
L 366.673404 278.964165 
L 367.673404 278.904649 
L 368.673404 278.791489 
L 369.673404 278.739238 
L 370.673404 278.69982 
L 371.673404 278.652719 
L 372.673404 278.59594 
L 373.673404 278.563276 
L 374.673404 278.527098 
L 375.673404 278.495008 
L 376.673404 278.460728 
L 377.673404 278.40235 
L 378.673404 278.357165 
L 379.673404 278.327541 
L 380.673404 278.277155 
L 381.673404 278.251958 
L 382.673404 278.230907 
L 383.673404 278.195939 
L 384.673404 278.171649 
L 385.673404 278.157582 
L 386.673404 278.13864 
L 387.673404 278.122979 
L 388.673404 278.110427 
L 389.673404 278.104591 
L 390.673404 278.097709 
L 391.673404 278.092535 
L 392.673404 278.094318 
L 393.673404 278.097043 
L 394.673404 278.108197 
L 395.673404 278.136432 
L 396.673404 278.18022 
L 397.673404 278.200909 
L 398.673404 278.241882 
L 399.673404 278.281957 
L 400.673404 278.301067 
L 401.673404 278.323576 
L 402.673404 278.390227 
L 403.673404 278.439937 
L 404.673404 278.513643 
L 405.673404 278.544957 
L 406.673404 278.621579 
L 407.673404 278.659877 
L 408.673404 278.733994 
L 409.673404 278.838052 
L 410.673404 278.907883 
L 411.673404 279.013117 
L 412.673404 279.068132 
L 413.920819 279.191607 
" clip-path="url(#pa9af4ba3db)" style="fill: none; stroke: #ff7f0e; stroke-linecap: round"/>
          <path d="M 409.920819 277.092069 
L 410.801187 277.5674 
L 411.679094 278.047654 
L 412.529808 278.582295 
L 413.831982 279.269742 
L 412.904629 279.295757 
L 411.992955 279.708477 
L 411.082691 280.124016 
L 409.740195 280.73082 
L 410.395094 280.092069 
L 410.447058 279.092069 
L 410.506148 277.092069 
z
" clip-path="url(#pa9af4ba3db)" style="fill: #ffffff; stroke: #ffffff; stroke-width: 3; stroke-linecap: round"/>
          <path d="M 409.920819 277.092069 
L 410.801187 277.5674 
L 411.679094 278.047654 
L 412.529808 278.582295 
L 413.831982 279.269742 
L 412.904629 279.295757 
L 411.992955 279.708477 
L 411.082691 280.124016 
L 409.740195 280.73082 
L 410.395094 280.092069 
L 410.447058 279.092069 
L 410.506148 277.092069 
z
" clip-path="url(#pa9af4ba3db)" style="fill: #ffffff; stroke: #ff7f0e; stroke-linecap: round"/>
          <path d="M 469.567947 298.730352 
" clip-path="url(#pa9af4ba3db)" style="fill: none; stroke-dasharray: 3.7,1.6; stroke-dashoffset: 0; stroke: #2ca02c"/>
          <path d="M 468.567947 298.730352 
L 470.567947 299.730352 
L 470.567947 297.730352 
z
" clip-path="url(#pa9af4ba3db)" style="fill: #2ca02c; stroke: #2ca02c; stroke-linejoin: miter"/>
          <g id="patch_10">
           <path d="M 63.290625 321.621875 
L 63.290625 10.8 
" style="fill: none; stroke: #000000; stroke-width: 0.8; stroke-linejoin: miter; stroke-linecap: square"/>
          </g>
          <g id="text_14">
           <g id="patch_11">
            <path d="M 315.812766 69.659343 
L 337.117454 69.659343 
Q 339.117454 69.659343 339.117454 67.659343 
L 339.117454 57.981218 
Q 339.117454 55.981218 337.117454 55.981218 
L 315.812766 55.981218 
Q 313.812766 55.981218 313.812766 57.981218 
L 313.812766 67.659343 
Q 313.812766 69.659343 315.812766 69.659343 
z
" style="fill: #ffffff; opacity: 0.6"/>
           </g>
           <!-- ANC -->
           <g transform="translate(315.812766 65.579656) scale(0.1 -0.1)">
            <defs>
             <path id="DejaVuSans-4e" d="M 628 4666 
L 1478 4666 
L 3547 763 
L 3547 4666 
L 4159 4666 
L 4159 0 
L 3309 0 
L 1241 3903 
L 1241 0 
L 628 0 
L 628 4666 
z
" transform="scale(0.015625)"/>
            </defs>
            <use xlink:href="#DejaVuSans-41"/>
            <use xlink:href="#DejaVuSans-4e" x="68.408203"/>
            <use xlink:href="#DejaVuSans-43" x="143.212891"/>
           </g>
          </g>
         </g>
        </g>
        <defs>
         <clipPath id="pa9af4ba3db">
          <rect x="63.290625" y="10.8" width="540.309375" height="310.821875"/>
         </clipPath>
        </defs>
       </g>
      </g>
     </g>
    </g>
   </g>
  </g>
 </g>
</svg>
