<?xml version="1.0" encoding="utf-8" standalone="no"?>
<!DOCTYPE svg PUBLIC "-//W3C//DTD SVG 1.1//EN"
  "http://www.w3.org/Graphics/SVG/1.1/DTD/svg11.dtd">
<svg xmlns:xlink="http://www.w3.org/1999/xlink" width="614.4pt" height="345.6pt" viewBox="0 0 614.4 345.6" xmlns="http://www.w3.org/2000/svg" version="1.1">
 <metadata>
  <rdf:RDF xmlns:dc="http://purl.org/dc/elements/1.1/" xmlns:cc="http://creativecommons.org/ns#" xmlns:rdf="http://www.w3.org/1999/02/22-rdf-syntax-ns#">
   <cc:Work>
    <dc:type rdf:resource="http://purl.org/dc/dcmitype/StillImage"/>
    <dc:date>2024-04-17T19:48:50.240613</dc:date>
    <dc:format>image/svg+xml</dc:format>
    <dc:creator>
     <cc:Agent>
      <dc:title>Matplotlib v3.7.1, https://matplotlib.org/</dc:title>
     </cc:Agent>
    </dc:creator>
   </cc:Work>
  </rdf:RDF>
 </metadata>
 <defs>
  <style type="text/css">*{stroke-linejoin: round; stroke-linecap: butt}</style>
 </defs>
 <g id="figure_1">
  <g id="patch_1">
   <path d="M 0 345.6 
L 614.4 345.6 
L 614.4 0 
L 0 0 
z
" style="fill: #ffffff"/>
  </g>
  <g id="axes_1">
   <g id="patch_2">
    <path d="M 63.290625 321.621875 
L 603.6 321.621875 
L 603.6 10.8 
L 63.290625 10.8 
z
" style="fill: #ffffff"/>
   </g>
   <path d="M 532.406429 304.402687 
L 531.406429 304.371251 
L 530.406429 304.33431 
L 529.406429 304.236564 
L 528.406429 304.204042 
L 527.406429 304.130417 
L 526.406429 304.091852 
L 525.406429 304.056439 
L 524.406429 303.998799 
L 523.406429 303.928413 
L 522.406429 303.876448 
L 521.406429 303.817359 
L 520.406429 303.729038 
L 519.406429 303.682893 
L 518.406429 303.640482 
L 517.406429 303.60999 
L 516.406429 303.583945 
L 515.406429 303.562745 
L 514.406429 303.508444 
L 513.406429 303.480506 
L 512.406429 303.450782 
L 511.406429 303.425387 
L 510.406429 303.414187 
L 509.406429 303.404063 
L 508.406429 303.404267 
L 507.406429 303.413777 
L 506.406429 303.425431 
L 505.406429 303.45646 
L 504.406429 303.467628 
L 503.406429 303.497745 
L 502.406429 303.557522 
L 501.406429 303.594714 
L 500.406429 303.63381 
L 499.406429 303.67625 
L 498.406429 303.709015 
L 497.406429 303.776441 
L 496.406429 303.815567 
L 495.406429 303.858242 
L 494.406429 303.928822 
L 493.406429 303.965213 
L 492.406429 304.023616 
L 491.406429 304.134569 
L 490.406429 304.205227 
L 489.406429 304.318167 
L 488.406429 304.36394 
L 487.406429 304.425223 
L 486.406429 304.473722 
L 485.406429 304.554545 
L 484.406429 304.673064 
L 483.406429 304.743275 
L 482.406429 304.826537 
L 481.406429 304.859679 
L 480.406429 304.910916 
L 479.406429 304.979315 
L 478.406429 305.04553 
L 477.406429 305.122447 
L 476.406429 305.149763 
L 475.406429 305.17624 
L 474.406429 305.198891 
L 472.596118 305.218422 
" clip-path="url(#pbf7ac669d2)" style="fill: none; stroke-dasharray: 3.7,1.6; stroke-dashoffset: 0; stroke: #2ca02c"/>
   <g id="patch_3">
    <path d="M 238.473875 10.8 
L 238.473875 248.185145 
M 384.360631 10.8 
L 384.360631 248.185145 
" clip-path="url(#pbf7ac669d2)" style="fill: none; stroke: #ffffff; stroke-width: 3; stroke-linejoin: miter"/>
    <path d="M 238.473875 10.8 
L 238.473875 248.185145 
M 384.360631 10.8 
L 384.360631 248.185145 
" clip-path="url(#pbf7ac669d2)" style="fill: none; stroke: #1f77b4; stroke-linejoin: miter"/>
    <g id="PolyCollection_1">
     <path d="M 384.360631 10.8 
L 238.473875 10.8 
L 238.473875 248.185145 
L 384.360631 248.185145 
L 384.360631 248.185145 
L 384.360631 10.8 
z
" clip-path="url(#pbf7ac669d2)" style="fill: #1f77b4; fill-opacity: 0.5"/>
    </g>
    <g id="patch_4">
     <path d="M 87.850142 248.185145 
L 87.850142 321.621875 
M 164.472739 248.185145 
L 164.472739 321.621875 
" clip-path="url(#pbf7ac669d2)" style="fill: none; stroke: #ffffff; stroke-width: 3; stroke-linejoin: miter"/>
     <path d="M 87.850142 248.185145 
L 87.850142 321.621875 
M 164.472739 248.185145 
L 164.472739 321.621875 
" clip-path="url(#pbf7ac669d2)" style="fill: none; stroke: #ff7f0e; stroke-linejoin: miter"/>
     <g id="PolyCollection_2">
      <path d="M 164.472739 248.185145 
L 87.850142 248.185145 
L 87.850142 321.621875 
L 164.472739 321.621875 
L 164.472739 321.621875 
L 164.472739 248.185145 
z
" clip-path="url(#pbf7ac669d2)" style="fill: #ff7f0e; fill-opacity: 0.5"/>
     </g>
     <g id="patch_5">
      <path d="M 537.809523 72.964375 
L 537.809523 321.621875 
M 579.040483 72.964375 
L 579.040483 321.621875 
" clip-path="url(#pbf7ac669d2)" style="fill: none; stroke: #ffffff; stroke-width: 3; stroke-linejoin: miter"/>
      <path d="M 537.809523 72.964375 
L 537.809523 321.621875 
M 579.040483 72.964375 
L 579.040483 321.621875 
" clip-path="url(#pbf7ac669d2)" style="fill: none; stroke: #2ca02c; stroke-linejoin: miter"/>
      <g id="PolyCollection_3">
       <path d="M 579.040483 72.964375 
L 537.809523 72.964375 
L 537.809523 321.621875 
L 579.040483 321.621875 
L 579.040483 321.621875 
L 579.040483 72.964375 
z
" clip-path="url(#pbf7ac669d2)" style="fill: #2ca02c; fill-opacity: 0.5"/>
      </g>
      <g id="patch_6">
       <path d="M 402.649232 290.334433 
L 402.649232 321.621875 
M 467.193024 290.334433 
L 467.193024 321.621875 
" clip-path="url(#pbf7ac669d2)" style="fill: none; stroke: #ffffff; stroke-width: 3; stroke-linejoin: miter"/>
       <path d="M 402.649232 290.334433 
L 402.649232 321.621875 
M 467.193024 290.334433 
L 467.193024 321.621875 
" clip-path="url(#pbf7ac669d2)" style="fill: none; stroke: #d62728; stroke-linejoin: miter"/>
       <g id="PolyCollection_4">
        <path d="M 467.193024 290.334433 
L 402.649232 290.334433 
L 402.649232 321.621875 
L 467.193024 321.621875 
L 467.193024 321.621875 
L 467.193024 290.334433 
z
" clip-path="url(#pbf7ac669d2)" style="fill: #d62728; fill-opacity: 0.5"/>
       </g>
       <g id="matplotlib.axis_1">
        <g id="xtick_1">
         <g id="line2d_1"/>
         <g id="text_1">
          <!-- OUT -->
          <g transform="translate(115.512222 332.720312) scale(0.1 -0.1)">
           <defs>
            <path id="DejaVuSans-4f" d="M 2522 4238 
Q 1834 4238 1429 3725 
Q 1025 3213 1025 2328 
Q 1025 1447 1429 934 
Q 1834 422 2522 422 
Q 3209 422 3611 934 
Q 4013 1447 4013 2328 
Q 4013 3213 3611 3725 
Q 3209 4238 2522 4238 
z
M 2522 4750 
Q 3503 4750 4090 4092 
Q 4678 3434 4678 2328 
Q 4678 1225 4090 567 
Q 3503 -91 2522 -91 
Q 1538 -91 948 565 
Q 359 1222 359 2328 
Q 359 3434 948 4092 
Q 1538 4750 2522 4750 
z
" transform="scale(0.015625)"/>
            <path id="DejaVuSans-55" d="M 556 4666 
L 1191 4666 
L 1191 1831 
Q 1191 1081 1462 751 
Q 1734 422 2344 422 
Q 2950 422 3222 751 
Q 3494 1081 3494 1831 
L 3494 4666 
L 4128 4666 
L 4128 1753 
Q 4128 841 3676 375 
Q 3225 -91 2344 -91 
Q 1459 -91 1007 375 
Q 556 841 556 1753 
L 556 4666 
z
" transform="scale(0.015625)"/>
            <path id="DejaVuSans-54" d="M -19 4666 
L 3928 4666 
L 3928 4134 
L 2272 4134 
L 2272 0 
L 1638 0 
L 1638 4134 
L -19 4134 
L -19 4666 
z
" transform="scale(0.015625)"/>
           </defs>
           <use xlink:href="#DejaVuSans-4f"/>
           <use xlink:href="#DejaVuSans-55" x="78.710938"/>
           <use xlink:href="#DejaVuSans-54" x="151.904297"/>
          </g>
         </g>
        </g>
        <g id="xtick_2">
         <g id="line2d_2"/>
         <g id="text_2">
          <!-- SRC -->
          <g transform="translate(548.535159 332.720312) scale(0.1 -0.1)">
           <defs>
            <path id="DejaVuSans-53" d="M 3425 4513 
L 3425 3897 
Q 3066 4069 2747 4153 
Q 2428 4238 2131 4238 
Q 1616 4238 1336 4038 
Q 1056 3838 1056 3469 
Q 1056 3159 1242 3001 
Q 1428 2844 1947 2747 
L 2328 2669 
Q 3034 2534 3370 2195 
Q 3706 1856 3706 1288 
Q 3706 609 3251 259 
Q 2797 -91 1919 -91 
Q 1588 -91 1214 -16 
Q 841 59 441 206 
L 441 856 
Q 825 641 1194 531 
Q 1563 422 1919 422 
Q 2459 422 2753 634 
Q 3047 847 3047 1241 
Q 3047 1584 2836 1778 
Q 2625 1972 2144 2069 
L 1759 2144 
Q 1053 2284 737 2584 
Q 422 2884 422 3419 
Q 422 4038 858 4394 
Q 1294 4750 2059 4750 
Q 2388 4750 2728 4690 
Q 3069 4631 3425 4513 
z
" transform="scale(0.015625)"/>
            <path id="DejaVuSans-52" d="M 2841 2188 
Q 3044 2119 3236 1894 
Q 3428 1669 3622 1275 
L 4263 0 
L 3584 0 
L 2988 1197 
Q 2756 1666 2539 1819 
Q 2322 1972 1947 1972 
L 1259 1972 
L 1259 0 
L 628 0 
L 628 4666 
L 2053 4666 
Q 2853 4666 3247 4331 
Q 3641 3997 3641 3322 
Q 3641 2881 3436 2590 
Q 3231 2300 2841 2188 
z
M 1259 4147 
L 1259 2491 
L 2053 2491 
Q 2509 2491 2742 2702 
Q 2975 2913 2975 3322 
Q 2975 3731 2742 3939 
Q 2509 4147 2053 4147 
L 1259 4147 
z
" transform="scale(0.015625)"/>
            <path id="DejaVuSans-43" d="M 4122 4306 
L 4122 3641 
Q 3803 3938 3442 4084 
Q 3081 4231 2675 4231 
Q 1875 4231 1450 3742 
Q 1025 3253 1025 2328 
Q 1025 1406 1450 917 
Q 1875 428 2675 428 
Q 3081 428 3442 575 
Q 3803 722 4122 1019 
L 4122 359 
Q 3791 134 3420 21 
Q 3050 -91 2638 -91 
Q 1578 -91 968 557 
Q 359 1206 359 2328 
Q 359 3453 968 4101 
Q 1578 4750 2638 4750 
Q 3056 4750 3426 4639 
Q 3797 4528 4122 4306 
z
" transform="scale(0.015625)"/>
           </defs>
           <use xlink:href="#DejaVuSans-53"/>
           <use xlink:href="#DejaVuSans-52" x="63.476562"/>
           <use xlink:href="#DejaVuSans-43" x="127.958984"/>
          </g>
         </g>
        </g>
        <g id="xtick_3">
         <g id="line2d_3"/>
         <g id="text_3">
          <!-- TAR -->
          <g transform="translate(425.36019 332.720312) scale(0.1 -0.1)">
           <defs>
            <path id="DejaVuSans-41" d="M 2188 4044 
L 1331 1722 
L 3047 1722 
L 2188 4044 
z
M 1831 4666 
L 2547 4666 
L 4325 0 
L 3669 0 
L 3244 1197 
L 1141 1197 
L 716 0 
L 50 0 
L 1831 4666 
z
" transform="scale(0.015625)"/>
           </defs>
           <use xlink:href="#DejaVuSans-54"/>
           <use xlink:href="#DejaVuSans-41" x="53.333984"/>
           <use xlink:href="#DejaVuSans-52" x="121.742188"/>
          </g>
         </g>
        </g>
       </g>
       <g id="matplotlib.axis_2">
        <g id="ytick_1">
         <g id="line2d_4">
          <defs>
           <path id="mf07f6b0589" d="M 0 0 
L -3.5 0 
" style="stroke: #000000; stroke-width: 0.8"/>
          </defs>
          <g>
           <use xlink:href="#mf07f6b0589" x="63.290625" y="321.621875" style="stroke: #000000; stroke-width: 0.8"/>
          </g>
         </g>
         <g id="text_4">
          <!-- 0 -->
          <g transform="translate(49.928125 325.421094) scale(0.1 -0.1)">
           <defs>
            <path id="DejaVuSans-30" d="M 2034 4250 
Q 1547 4250 1301 3770 
Q 1056 3291 1056 2328 
Q 1056 1369 1301 889 
Q 1547 409 2034 409 
Q 2525 409 2770 889 
Q 3016 1369 3016 2328 
Q 3016 3291 2770 3770 
Q 2525 4250 2034 4250 
z
M 2034 4750 
Q 2819 4750 3233 4129 
Q 3647 3509 3647 2328 
Q 3647 1150 3233 529 
Q 2819 -91 2034 -91 
Q 1250 -91 836 529 
Q 422 1150 422 2328 
Q 422 3509 836 4129 
Q 1250 4750 2034 4750 
z
" transform="scale(0.015625)"/>
           </defs>
           <use xlink:href="#DejaVuSans-30"/>
          </g>
         </g>
        </g>
        <g id="ytick_2">
         <g id="line2d_5">
          <g>
           <use xlink:href="#mf07f6b0589" x="63.290625" y="266.147687" style="stroke: #000000; stroke-width: 0.8"/>
          </g>
         </g>
         <g id="text_5">
          <!-- 5000 -->
          <g transform="translate(30.840625 269.946906) scale(0.1 -0.1)">
           <defs>
            <path id="DejaVuSans-35" d="M 691 4666 
L 3169 4666 
L 3169 4134 
L 1269 4134 
L 1269 2991 
Q 1406 3038 1543 3061 
Q 1681 3084 1819 3084 
Q 2600 3084 3056 2656 
Q 3513 2228 3513 1497 
Q 3513 744 3044 326 
Q 2575 -91 1722 -91 
Q 1428 -91 1123 -41 
Q 819 9 494 109 
L 494 744 
Q 775 591 1075 516 
Q 1375 441 1709 441 
Q 2250 441 2565 725 
Q 2881 1009 2881 1497 
Q 2881 1984 2565 2268 
Q 2250 2553 1709 2553 
Q 1456 2553 1204 2497 
Q 953 2441 691 2322 
L 691 4666 
z
" transform="scale(0.015625)"/>
           </defs>
           <use xlink:href="#DejaVuSans-35"/>
           <use xlink:href="#DejaVuSans-30" x="63.623047"/>
           <use xlink:href="#DejaVuSans-30" x="127.246094"/>
           <use xlink:href="#DejaVuSans-30" x="190.869141"/>
          </g>
         </g>
        </g>
        <g id="ytick_3">
         <g id="line2d_6">
          <g>
           <use xlink:href="#mf07f6b0589" x="63.290625" y="210.673499" style="stroke: #000000; stroke-width: 0.8"/>
          </g>
         </g>
         <g id="text_6">
          <!-- 10000 -->
          <g transform="translate(24.478125 214.472718) scale(0.1 -0.1)">
           <defs>
            <path id="DejaVuSans-31" d="M 794 531 
L 1825 531 
L 1825 4091 
L 703 3866 
L 703 4441 
L 1819 4666 
L 2450 4666 
L 2450 531 
L 3481 531 
L 3481 0 
L 794 0 
L 794 531 
z
" transform="scale(0.015625)"/>
           </defs>
           <use xlink:href="#DejaVuSans-31"/>
           <use xlink:href="#DejaVuSans-30" x="63.623047"/>
           <use xlink:href="#DejaVuSans-30" x="127.246094"/>
           <use xlink:href="#DejaVuSans-30" x="190.869141"/>
           <use xlink:href="#DejaVuSans-30" x="254.492188"/>
          </g>
         </g>
        </g>
        <g id="ytick_4">
         <g id="line2d_7">
          <g>
           <use xlink:href="#mf07f6b0589" x="63.290625" y="155.199311" style="stroke: #000000; stroke-width: 0.8"/>
          </g>
         </g>
         <g id="text_7">
          <!-- 15000 -->
          <g transform="translate(24.478125 158.99853) scale(0.1 -0.1)">
           <use xlink:href="#DejaVuSans-31"/>
           <use xlink:href="#DejaVuSans-35" x="63.623047"/>
           <use xlink:href="#DejaVuSans-30" x="127.246094"/>
           <use xlink:href="#DejaVuSans-30" x="190.869141"/>
           <use xlink:href="#DejaVuSans-30" x="254.492188"/>
          </g>
         </g>
        </g>
        <g id="ytick_5">
         <g id="line2d_8">
          <g>
           <use xlink:href="#mf07f6b0589" x="63.290625" y="99.725123" style="stroke: #000000; stroke-width: 0.8"/>
          </g>
         </g>
         <g id="text_8">
          <!-- 20000 -->
          <g transform="translate(24.478125 103.524342) scale(0.1 -0.1)">
           <defs>
            <path id="DejaVuSans-32" d="M 1228 531 
L 3431 531 
L 3431 0 
L 469 0 
L 469 531 
Q 828 903 1448 1529 
Q 2069 2156 2228 2338 
Q 2531 2678 2651 2914 
Q 2772 3150 2772 3378 
Q 2772 3750 2511 3984 
Q 2250 4219 1831 4219 
Q 1534 4219 1204 4116 
Q 875 4013 500 3803 
L 500 4441 
Q 881 4594 1212 4672 
Q 1544 4750 1819 4750 
Q 2544 4750 2975 4387 
Q 3406 4025 3406 3419 
Q 3406 3131 3298 2873 
Q 3191 2616 2906 2266 
Q 2828 2175 2409 1742 
Q 1991 1309 1228 531 
z
" transform="scale(0.015625)"/>
           </defs>
           <use xlink:href="#DejaVuSans-32"/>
           <use xlink:href="#DejaVuSans-30" x="63.623047"/>
           <use xlink:href="#DejaVuSans-30" x="127.246094"/>
           <use xlink:href="#DejaVuSans-30" x="190.869141"/>
           <use xlink:href="#DejaVuSans-30" x="254.492188"/>
          </g>
         </g>
        </g>
        <g id="ytick_6">
         <g id="line2d_9">
          <g>
           <use xlink:href="#mf07f6b0589" x="63.290625" y="44.250935" style="stroke: #000000; stroke-width: 0.8"/>
          </g>
         </g>
         <g id="text_9">
          <!-- 25000 -->
          <g transform="translate(24.478125 48.050154) scale(0.1 -0.1)">
           <use xlink:href="#DejaVuSans-32"/>
           <use xlink:href="#DejaVuSans-35" x="63.623047"/>
           <use xlink:href="#DejaVuSans-30" x="127.246094"/>
           <use xlink:href="#DejaVuSans-30" x="190.869141"/>
           <use xlink:href="#DejaVuSans-30" x="254.492188"/>
          </g>
         </g>
        </g>
        <g id="text_10">
         <!-- time ago (generations) -->
         <g transform="translate(18.398438 223.682031) rotate(-90) scale(0.1 -0.1)">
          <defs>
           <path id="DejaVuSans-74" d="M 1172 4494 
L 1172 3500 
L 2356 3500 
L 2356 3053 
L 1172 3053 
L 1172 1153 
Q 1172 725 1289 603 
Q 1406 481 1766 481 
L 2356 481 
L 2356 0 
L 1766 0 
Q 1100 0 847 248 
Q 594 497 594 1153 
L 594 3053 
L 172 3053 
L 172 3500 
L 594 3500 
L 594 4494 
L 1172 4494 
z
" transform="scale(0.015625)"/>
           <path id="DejaVuSans-69" d="M 603 3500 
L 1178 3500 
L 1178 0 
L 603 0 
L 603 3500 
z
M 603 4863 
L 1178 4863 
L 1178 4134 
L 603 4134 
L 603 4863 
z
" transform="scale(0.015625)"/>
           <path id="DejaVuSans-6d" d="M 3328 2828 
Q 3544 3216 3844 3400 
Q 4144 3584 4550 3584 
Q 5097 3584 5394 3201 
Q 5691 2819 5691 2113 
L 5691 0 
L 5113 0 
L 5113 2094 
Q 5113 2597 4934 2840 
Q 4756 3084 4391 3084 
Q 3944 3084 3684 2787 
Q 3425 2491 3425 1978 
L 3425 0 
L 2847 0 
L 2847 2094 
Q 2847 2600 2669 2842 
Q 2491 3084 2119 3084 
Q 1678 3084 1418 2786 
Q 1159 2488 1159 1978 
L 1159 0 
L 581 0 
L 581 3500 
L 1159 3500 
L 1159 2956 
Q 1356 3278 1631 3431 
Q 1906 3584 2284 3584 
Q 2666 3584 2933 3390 
Q 3200 3197 3328 2828 
z
" transform="scale(0.015625)"/>
           <path id="DejaVuSans-65" d="M 3597 1894 
L 3597 1613 
L 953 1613 
Q 991 1019 1311 708 
Q 1631 397 2203 397 
Q 2534 397 2845 478 
Q 3156 559 3463 722 
L 3463 178 
Q 3153 47 2828 -22 
Q 2503 -91 2169 -91 
Q 1331 -91 842 396 
Q 353 884 353 1716 
Q 353 2575 817 3079 
Q 1281 3584 2069 3584 
Q 2775 3584 3186 3129 
Q 3597 2675 3597 1894 
z
M 3022 2063 
Q 3016 2534 2758 2815 
Q 2500 3097 2075 3097 
Q 1594 3097 1305 2825 
Q 1016 2553 972 2059 
L 3022 2063 
z
" transform="scale(0.015625)"/>
           <path id="DejaVuSans-20" transform="scale(0.015625)"/>
           <path id="DejaVuSans-61" d="M 2194 1759 
Q 1497 1759 1228 1600 
Q 959 1441 959 1056 
Q 959 750 1161 570 
Q 1363 391 1709 391 
Q 2188 391 2477 730 
Q 2766 1069 2766 1631 
L 2766 1759 
L 2194 1759 
z
M 3341 1997 
L 3341 0 
L 2766 0 
L 2766 531 
Q 2569 213 2275 61 
Q 1981 -91 1556 -91 
Q 1019 -91 701 211 
Q 384 513 384 1019 
Q 384 1609 779 1909 
Q 1175 2209 1959 2209 
L 2766 2209 
L 2766 2266 
Q 2766 2663 2505 2880 
Q 2244 3097 1772 3097 
Q 1472 3097 1187 3025 
Q 903 2953 641 2809 
L 641 3341 
Q 956 3463 1253 3523 
Q 1550 3584 1831 3584 
Q 2591 3584 2966 3190 
Q 3341 2797 3341 1997 
z
" transform="scale(0.015625)"/>
           <path id="DejaVuSans-67" d="M 2906 1791 
Q 2906 2416 2648 2759 
Q 2391 3103 1925 3103 
Q 1463 3103 1205 2759 
Q 947 2416 947 1791 
Q 947 1169 1205 825 
Q 1463 481 1925 481 
Q 2391 481 2648 825 
Q 2906 1169 2906 1791 
z
M 3481 434 
Q 3481 -459 3084 -895 
Q 2688 -1331 1869 -1331 
Q 1566 -1331 1297 -1286 
Q 1028 -1241 775 -1147 
L 775 -588 
Q 1028 -725 1275 -790 
Q 1522 -856 1778 -856 
Q 2344 -856 2625 -561 
Q 2906 -266 2906 331 
L 2906 616 
Q 2728 306 2450 153 
Q 2172 0 1784 0 
Q 1141 0 747 490 
Q 353 981 353 1791 
Q 353 2603 747 3093 
Q 1141 3584 1784 3584 
Q 2172 3584 2450 3431 
Q 2728 3278 2906 2969 
L 2906 3500 
L 3481 3500 
L 3481 434 
z
" transform="scale(0.015625)"/>
           <path id="DejaVuSans-6f" d="M 1959 3097 
Q 1497 3097 1228 2736 
Q 959 2375 959 1747 
Q 959 1119 1226 758 
Q 1494 397 1959 397 
Q 2419 397 2687 759 
Q 2956 1122 2956 1747 
Q 2956 2369 2687 2733 
Q 2419 3097 1959 3097 
z
M 1959 3584 
Q 2709 3584 3137 3096 
Q 3566 2609 3566 1747 
Q 3566 888 3137 398 
Q 2709 -91 1959 -91 
Q 1206 -91 779 398 
Q 353 888 353 1747 
Q 353 2609 779 3096 
Q 1206 3584 1959 3584 
z
" transform="scale(0.015625)"/>
           <path id="DejaVuSans-28" d="M 1984 4856 
Q 1566 4138 1362 3434 
Q 1159 2731 1159 2009 
Q 1159 1288 1364 580 
Q 1569 -128 1984 -844 
L 1484 -844 
Q 1016 -109 783 600 
Q 550 1309 550 2009 
Q 550 2706 781 3412 
Q 1013 4119 1484 4856 
L 1984 4856 
z
" transform="scale(0.015625)"/>
           <path id="DejaVuSans-6e" d="M 3513 2113 
L 3513 0 
L 2938 0 
L 2938 2094 
Q 2938 2591 2744 2837 
Q 2550 3084 2163 3084 
Q 1697 3084 1428 2787 
Q 1159 2491 1159 1978 
L 1159 0 
L 581 0 
L 581 3500 
L 1159 3500 
L 1159 2956 
Q 1366 3272 1645 3428 
Q 1925 3584 2291 3584 
Q 2894 3584 3203 3211 
Q 3513 2838 3513 2113 
z
" transform="scale(0.015625)"/>
           <path id="DejaVuSans-72" d="M 2631 2963 
Q 2534 3019 2420 3045 
Q 2306 3072 2169 3072 
Q 1681 3072 1420 2755 
Q 1159 2438 1159 1844 
L 1159 0 
L 581 0 
L 581 3500 
L 1159 3500 
L 1159 2956 
Q 1341 3275 1631 3429 
Q 1922 3584 2338 3584 
Q 2397 3584 2469 3576 
Q 2541 3569 2628 3553 
L 2631 2963 
z
" transform="scale(0.015625)"/>
           <path id="DejaVuSans-73" d="M 2834 3397 
L 2834 2853 
Q 2591 2978 2328 3040 
Q 2066 3103 1784 3103 
Q 1356 3103 1142 2972 
Q 928 2841 928 2578 
Q 928 2378 1081 2264 
Q 1234 2150 1697 2047 
L 1894 2003 
Q 2506 1872 2764 1633 
Q 3022 1394 3022 966 
Q 3022 478 2636 193 
Q 2250 -91 1575 -91 
Q 1294 -91 989 -36 
Q 684 19 347 128 
L 347 722 
Q 666 556 975 473 
Q 1284 391 1588 391 
Q 1994 391 2212 530 
Q 2431 669 2431 922 
Q 2431 1156 2273 1281 
Q 2116 1406 1581 1522 
L 1381 1569 
Q 847 1681 609 1914 
Q 372 2147 372 2553 
Q 372 3047 722 3315 
Q 1072 3584 1716 3584 
Q 2034 3584 2315 3537 
Q 2597 3491 2834 3397 
z
" transform="scale(0.015625)"/>
           <path id="DejaVuSans-29" d="M 513 4856 
L 1013 4856 
Q 1481 4119 1714 3412 
Q 1947 2706 1947 2009 
Q 1947 1309 1714 600 
Q 1481 -109 1013 -844 
L 513 -844 
Q 928 -128 1133 580 
Q 1338 1288 1338 2009 
Q 1338 2731 1133 3434 
Q 928 4138 513 4856 
z
" transform="scale(0.015625)"/>
          </defs>
          <use xlink:href="#DejaVuSans-74"/>
          <use xlink:href="#DejaVuSans-69" x="39.208984"/>
          <use xlink:href="#DejaVuSans-6d" x="66.992188"/>
          <use xlink:href="#DejaVuSans-65" x="164.404297"/>
          <use xlink:href="#DejaVuSans-20" x="225.927734"/>
          <use xlink:href="#DejaVuSans-61" x="257.714844"/>
          <use xlink:href="#DejaVuSans-67" x="318.994141"/>
          <use xlink:href="#DejaVuSans-6f" x="382.470703"/>
          <use xlink:href="#DejaVuSans-20" x="443.652344"/>
          <use xlink:href="#DejaVuSans-28" x="475.439453"/>
          <use xlink:href="#DejaVuSans-67" x="514.453125"/>
          <use xlink:href="#DejaVuSans-65" x="577.929688"/>
          <use xlink:href="#DejaVuSans-6e" x="639.453125"/>
          <use xlink:href="#DejaVuSans-65" x="702.832031"/>
          <use xlink:href="#DejaVuSans-72" x="764.355469"/>
          <use xlink:href="#DejaVuSans-61" x="805.46875"/>
          <use xlink:href="#DejaVuSans-74" x="866.748047"/>
          <use xlink:href="#DejaVuSans-69" x="905.957031"/>
          <use xlink:href="#DejaVuSans-6f" x="933.740234"/>
          <use xlink:href="#DejaVuSans-6e" x="994.921875"/>
          <use xlink:href="#DejaVuSans-73" x="1058.300781"/>
          <use xlink:href="#DejaVuSans-29" x="1110.400391"/>
         </g>
        </g>
       </g>
       <g id="patch_7">
        <path d="M 236.47299 248.185145 
L 235.47299 248.153709 
L 234.47299 248.116768 
L 233.47299 248.019022 
L 232.47299 247.9865 
L 231.47299 247.912875 
L 230.47299 247.87431 
L 229.47299 247.838897 
L 228.47299 247.781257 
L 227.47299 247.710871 
L 226.47299 247.658906 
L 225.47299 247.599817 
L 224.47299 247.511496 
L 223.47299 247.465351 
L 222.47299 247.42294 
L 221.47299 247.392448 
L 220.47299 247.366403 
L 219.47299 247.345203 
L 218.47299 247.290902 
L 217.47299 247.262964 
L 216.47299 247.23324 
L 215.47299 247.207845 
L 214.47299 247.196645 
L 213.47299 247.186521 
L 212.47299 247.186725 
L 211.47299 247.196235 
L 210.47299 247.207889 
L 209.47299 247.238918 
L 208.47299 247.250086 
L 207.47299 247.280203 
L 206.47299 247.33998 
L 205.47299 247.377172 
L 204.47299 247.416268 
L 203.47299 247.458708 
L 202.47299 247.491473 
L 201.47299 247.558899 
L 200.47299 247.598025 
L 199.47299 247.6407 
L 198.47299 247.71128 
L 197.47299 247.747671 
L 196.47299 247.806074 
L 195.47299 247.917027 
L 194.47299 247.987685 
L 193.47299 248.100625 
L 192.47299 248.146398 
L 191.47299 248.207681 
L 190.47299 248.25618 
L 189.47299 248.337003 
L 188.47299 248.455522 
L 187.47299 248.525733 
L 186.47299 248.608995 
L 185.47299 248.642137 
L 184.47299 248.693374 
L 183.47299 248.761773 
L 182.47299 248.827988 
L 181.47299 248.904905 
L 180.47299 248.932221 
L 179.47299 248.958698 
L 178.47299 248.981349 
L 177.47299 249.00088 
L 176.47299 249.027274 
L 175.47299 249.077045 
L 174.47299 249.112118 
L 173.47299 249.147984 
L 172.47299 249.163351 
L 171.47299 249.17912 
L 170.47299 249.182533 
L 169.47299 249.18495 
L 167.590291 249.184464 
" clip-path="url(#pbf7ac669d2)" style="fill: none; stroke: #ffffff; stroke-width: 3; stroke-linecap: round"/>
        <path d="M 236.47299 248.185145 
L 235.47299 248.153709 
L 234.47299 248.116768 
L 233.47299 248.019022 
L 232.47299 247.9865 
L 231.47299 247.912875 
L 230.47299 247.87431 
L 229.47299 247.838897 
L 228.47299 247.781257 
L 227.47299 247.710871 
L 226.47299 247.658906 
L 225.47299 247.599817 
L 224.47299 247.511496 
L 223.47299 247.465351 
L 222.47299 247.42294 
L 221.47299 247.392448 
L 220.47299 247.366403 
L 219.47299 247.345203 
L 218.47299 247.290902 
L 217.47299 247.262964 
L 216.47299 247.23324 
L 215.47299 247.207845 
L 214.47299 247.196645 
L 213.47299 247.186521 
L 212.47299 247.186725 
L 211.47299 247.196235 
L 210.47299 247.207889 
L 209.47299 247.238918 
L 208.47299 247.250086 
L 207.47299 247.280203 
L 206.47299 247.33998 
L 205.47299 247.377172 
L 204.47299 247.416268 
L 203.47299 247.458708 
L 202.47299 247.491473 
L 201.47299 247.558899 
L 200.47299 247.598025 
L 199.47299 247.6407 
L 198.47299 247.71128 
L 197.47299 247.747671 
L 196.47299 247.806074 
L 195.47299 247.917027 
L 194.47299 247.987685 
L 193.47299 248.100625 
L 192.47299 248.146398 
L 191.47299 248.207681 
L 190.47299 248.25618 
L 189.47299 248.337003 
L 188.47299 248.455522 
L 187.47299 248.525733 
L 186.47299 248.608995 
L 185.47299 248.642137 
L 184.47299 248.693374 
L 183.47299 248.761773 
L 182.47299 248.827988 
L 181.47299 248.904905 
L 180.47299 248.932221 
L 179.47299 248.958698 
L 178.47299 248.981349 
L 177.47299 249.00088 
L 176.47299 249.027274 
L 175.47299 249.077045 
L 174.47299 249.112118 
L 173.47299 249.147984 
L 172.47299 249.163351 
L 171.47299 249.17912 
L 170.47299 249.182533 
L 169.47299 249.18495 
L 167.590291 249.184464 
" clip-path="url(#pbf7ac669d2)" style="fill: none; stroke: #1f77b4; stroke-linecap: round"/>
        <path d="M 171.590291 250.185145 
L 170.709923 249.709814 
L 169.832016 249.22956 
L 168.981302 248.694919 
L 167.679128 248.007472 
L 168.606481 247.981457 
L 169.518155 247.568737 
L 170.42842 247.153198 
L 171.770916 246.546394 
L 171.116017 247.185145 
L 171.064053 248.185145 
L 171.004963 250.185145 
z
" clip-path="url(#pbf7ac669d2)" style="fill: #ffffff; stroke: #ffffff; stroke-width: 3; stroke-linecap: round"/>
        <path d="M 171.590291 250.185145 
L 170.709923 249.709814 
L 169.832016 249.22956 
L 168.981302 248.694919 
L 167.679128 248.007472 
L 168.606481 247.981457 
L 169.518155 247.568737 
L 170.42842 247.153198 
L 171.770916 246.546394 
L 171.116017 247.185145 
L 171.064053 248.185145 
L 171.004963 250.185145 
z
" clip-path="url(#pbf7ac669d2)" style="fill: #ffffff; stroke: #1f77b4; stroke-linecap: round"/>
        <g id="patch_8">
         <path d="M 386.360224 72.964375 
L 387.360224 72.995811 
L 388.360224 73.032752 
L 389.360224 73.130498 
L 390.360224 73.16302 
L 391.360224 73.236645 
L 392.360224 73.27521 
L 393.360224 73.310623 
L 394.360224 73.368263 
L 395.360224 73.438649 
L 396.360224 73.490614 
L 397.360224 73.549703 
L 398.360224 73.638024 
L 399.360224 73.684169 
L 400.360224 73.72658 
L 401.360224 73.757072 
L 402.360224 73.783117 
L 403.360224 73.804317 
L 404.360224 73.858618 
L 405.360224 73.886556 
L 406.360224 73.91628 
L 407.360224 73.941675 
L 408.360224 73.952875 
L 409.360224 73.962999 
L 410.360224 73.962795 
L 411.360224 73.953285 
L 412.360224 73.941631 
L 413.360224 73.910602 
L 414.360224 73.899434 
L 415.360224 73.869317 
L 416.360224 73.80954 
L 417.360224 73.772348 
L 418.360224 73.733252 
L 419.360224 73.690812 
L 420.360224 73.658047 
L 421.360224 73.590621 
L 422.360224 73.551495 
L 423.360224 73.50882 
L 424.360224 73.43824 
L 425.360224 73.401849 
L 426.360224 73.343446 
L 427.360224 73.232493 
L 428.360224 73.161835 
L 429.360224 73.048895 
L 430.360224 73.003122 
L 431.360224 72.941839 
L 432.360224 72.89334 
L 433.360224 72.812517 
L 434.360224 72.693998 
L 435.360224 72.623787 
L 436.360224 72.540525 
L 437.360224 72.507383 
L 438.360224 72.456146 
L 439.360224 72.387747 
L 440.360224 72.321532 
L 441.360224 72.244615 
L 442.360224 72.217299 
L 443.360224 72.190822 
L 444.360224 72.168171 
L 445.360224 72.14864 
L 446.360224 72.122246 
L 447.360224 72.072475 
L 448.360224 72.037402 
L 449.360224 72.001536 
L 450.360224 71.986169 
L 451.360224 71.9704 
L 452.360224 71.966987 
L 453.360224 71.96457 
L 454.360224 71.965056 
L 455.360224 71.966985 
L 456.360224 71.980242 
L 457.360224 71.988633 
L 458.360224 72.010169 
L 459.360224 72.033202 
L 460.360224 72.050435 
L 461.360224 72.068898 
L 462.360224 72.08935 
L 463.360224 72.10595 
L 464.360224 72.168729 
L 465.360224 72.243994 
L 466.360224 72.276633 
L 467.360224 72.344197 
L 468.360224 72.398244 
L 469.360224 72.431948 
L 470.360224 72.522074 
L 471.360224 72.550609 
L 472.360224 72.582095 
L 473.360224 72.613106 
L 474.360224 72.667914 
L 475.360224 72.732501 
L 476.360224 72.770697 
L 477.360224 72.866631 
L 478.360224 72.915889 
L 479.360224 72.959958 
L 480.360224 73.000082 
L 481.360224 73.108449 
L 482.360224 73.150077 
L 483.360224 73.212219 
L 484.360224 73.282181 
L 485.360224 73.386685 
L 486.360224 73.423673 
L 487.360224 73.46955 
L 488.360224 73.538045 
L 489.360224 73.586791 
L 490.360224 73.664388 
L 491.360224 73.694929 
L 492.360224 73.764443 
L 493.360224 73.788416 
L 494.360224 73.817038 
L 495.360224 73.858831 
L 496.360224 73.880407 
L 497.360224 73.894355 
L 498.360224 73.921077 
L 499.360224 73.930387 
L 500.360224 73.942834 
L 501.360224 73.953889 
L 502.360224 73.959553 
L 503.360224 73.964317 
L 504.360224 73.958769 
L 505.360224 73.945481 
L 506.360224 73.937964 
L 507.360224 73.913179 
L 508.360224 73.88961 
L 509.360224 73.85343 
L 510.360224 73.827468 
L 511.360224 73.805146 
L 512.360224 73.736386 
L 513.360224 73.661851 
L 514.360224 73.567872 
L 515.360224 73.51682 
L 516.360224 73.462886 
L 517.360224 73.427635 
L 518.360224 73.321547 
L 519.360224 73.269283 
L 520.360224 73.232376 
L 521.360224 73.201345 
L 522.360224 73.14019 
L 523.360224 73.07277 
L 524.360224 73.023864 
L 525.360224 72.958672 
L 526.360224 72.920484 
L 527.360224 72.878488 
L 528.360224 72.836471 
L 529.360224 72.776955 
L 530.360224 72.663795 
L 531.360224 72.611544 
L 532.360224 72.572126 
L 533.360224 72.525025 
L 534.690221 72.468245 
" clip-path="url(#pbf7ac669d2)" style="fill: none; stroke: #ffffff; stroke-width: 3; stroke-linecap: round"/>
         <path d="M 386.360224 72.964375 
L 387.360224 72.995811 
L 388.360224 73.032752 
L 389.360224 73.130498 
L 390.360224 73.16302 
L 391.360224 73.236645 
L 392.360224 73.27521 
L 393.360224 73.310623 
L 394.360224 73.368263 
L 395.360224 73.438649 
L 396.360224 73.490614 
L 397.360224 73.549703 
L 398.360224 73.638024 
L 399.360224 73.684169 
L 400.360224 73.72658 
L 401.360224 73.757072 
L 402.360224 73.783117 
L 403.360224 73.804317 
L 404.360224 73.858618 
L 405.360224 73.886556 
L 406.360224 73.91628 
L 407.360224 73.941675 
L 408.360224 73.952875 
L 409.360224 73.962999 
L 410.360224 73.962795 
L 411.360224 73.953285 
L 412.360224 73.941631 
L 413.360224 73.910602 
L 414.360224 73.899434 
L 415.360224 73.869317 
L 416.360224 73.80954 
L 417.360224 73.772348 
L 418.360224 73.733252 
L 419.360224 73.690812 
L 420.360224 73.658047 
L 421.360224 73.590621 
L 422.360224 73.551495 
L 423.360224 73.50882 
L 424.360224 73.43824 
L 425.360224 73.401849 
L 426.360224 73.343446 
L 427.360224 73.232493 
L 428.360224 73.161835 
L 429.360224 73.048895 
L 430.360224 73.003122 
L 431.360224 72.941839 
L 432.360224 72.89334 
L 433.360224 72.812517 
L 434.360224 72.693998 
L 435.360224 72.623787 
L 436.360224 72.540525 
L 437.360224 72.507383 
L 438.360224 72.456146 
L 439.360224 72.387747 
L 440.360224 72.321532 
L 441.360224 72.244615 
L 442.360224 72.217299 
L 443.360224 72.190822 
L 444.360224 72.168171 
L 445.360224 72.14864 
L 446.360224 72.122246 
L 447.360224 72.072475 
L 448.360224 72.037402 
L 449.360224 72.001536 
L 450.360224 71.986169 
L 451.360224 71.9704 
L 452.360224 71.966987 
L 453.360224 71.96457 
L 454.360224 71.965056 
L 455.360224 71.966985 
L 456.360224 71.980242 
L 457.360224 71.988633 
L 458.360224 72.010169 
L 459.360224 72.033202 
L 460.360224 72.050435 
L 461.360224 72.068898 
L 462.360224 72.08935 
L 463.360224 72.10595 
L 464.360224 72.168729 
L 465.360224 72.243994 
L 466.360224 72.276633 
L 467.360224 72.344197 
L 468.360224 72.398244 
L 469.360224 72.431948 
L 470.360224 72.522074 
L 471.360224 72.550609 
L 472.360224 72.582095 
L 473.360224 72.613106 
L 474.360224 72.667914 
L 475.360224 72.732501 
L 476.360224 72.770697 
L 477.360224 72.866631 
L 478.360224 72.915889 
L 479.360224 72.959958 
L 480.360224 73.000082 
L 481.360224 73.108449 
L 482.360224 73.150077 
L 483.360224 73.212219 
L 484.360224 73.282181 
L 485.360224 73.386685 
L 486.360224 73.423673 
L 487.360224 73.46955 
L 488.360224 73.538045 
L 489.360224 73.586791 
L 490.360224 73.664388 
L 491.360224 73.694929 
L 492.360224 73.764443 
L 493.360224 73.788416 
L 494.360224 73.817038 
L 495.360224 73.858831 
L 496.360224 73.880407 
L 497.360224 73.894355 
L 498.360224 73.921077 
L 499.360224 73.930387 
L 500.360224 73.942834 
L 501.360224 73.953889 
L 502.360224 73.959553 
L 503.360224 73.964317 
L 504.360224 73.958769 
L 505.360224 73.945481 
L 506.360224 73.937964 
L 507.360224 73.913179 
L 508.360224 73.88961 
L 509.360224 73.85343 
L 510.360224 73.827468 
L 511.360224 73.805146 
L 512.360224 73.736386 
L 513.360224 73.661851 
L 514.360224 73.567872 
L 515.360224 73.51682 
L 516.360224 73.462886 
L 517.360224 73.427635 
L 518.360224 73.321547 
L 519.360224 73.269283 
L 520.360224 73.232376 
L 521.360224 73.201345 
L 522.360224 73.14019 
L 523.360224 73.07277 
L 524.360224 73.023864 
L 525.360224 72.958672 
L 526.360224 72.920484 
L 527.360224 72.878488 
L 528.360224 72.836471 
L 529.360224 72.776955 
L 530.360224 72.663795 
L 531.360224 72.611544 
L 532.360224 72.572126 
L 533.360224 72.525025 
L 534.690221 72.468245 
" clip-path="url(#pbf7ac669d2)" style="fill: none; stroke: #1f77b4; stroke-linecap: round"/>
         <path d="M 530.690221 70.964375 
L 531.570589 71.439706 
L 532.448496 71.91996 
L 533.29921 72.454601 
L 534.601384 73.142048 
L 533.674031 73.168063 
L 532.762357 73.580783 
L 531.852092 73.996322 
L 530.509597 74.603126 
L 531.164495 73.964375 
L 531.21646 72.964375 
L 531.275549 70.964375 
z
" clip-path="url(#pbf7ac669d2)" style="fill: #ffffff; stroke: #ffffff; stroke-width: 3; stroke-linecap: round"/>
         <path d="M 530.690221 70.964375 
L 531.570589 71.439706 
L 532.448496 71.91996 
L 533.29921 72.454601 
L 534.601384 73.142048 
L 533.674031 73.168063 
L 532.762357 73.580783 
L 531.852092 73.996322 
L 530.509597 74.603126 
L 531.164495 73.964375 
L 531.21646 72.964375 
L 531.275549 70.964375 
z
" clip-path="url(#pbf7ac669d2)" style="fill: #ffffff; stroke: #1f77b4; stroke-linecap: round"/>
         <g id="patch_9">
          <path d="M 166.47523 290.334433 
L 167.47523 290.365869 
L 168.47523 290.40281 
L 169.47523 290.500556 
L 170.47523 290.533078 
L 171.47523 290.606703 
L 172.47523 290.645268 
L 173.47523 290.680681 
L 174.47523 290.738321 
L 175.47523 290.808707 
L 176.47523 290.860672 
L 177.47523 290.919761 
L 178.47523 291.008082 
L 179.47523 291.054227 
L 180.47523 291.096638 
L 181.47523 291.12713 
L 182.47523 291.153175 
L 183.47523 291.174375 
L 184.47523 291.228676 
L 185.47523 291.256614 
L 186.47523 291.286338 
L 187.47523 291.311733 
L 188.47523 291.322933 
L 189.47523 291.333057 
L 190.47523 291.332853 
L 191.47523 291.323343 
L 192.47523 291.311689 
L 193.47523 291.28066 
L 194.47523 291.269492 
L 195.47523 291.239375 
L 196.47523 291.179598 
L 197.47523 291.142406 
L 198.47523 291.10331 
L 199.47523 291.06087 
L 200.47523 291.028105 
L 201.47523 290.960679 
L 202.47523 290.921553 
L 203.47523 290.878878 
L 204.47523 290.808298 
L 205.47523 290.771907 
L 206.47523 290.713504 
L 207.47523 290.602551 
L 208.47523 290.531893 
L 209.47523 290.418953 
L 210.47523 290.37318 
L 211.47523 290.311897 
L 212.47523 290.263398 
L 213.47523 290.182575 
L 214.47523 290.064056 
L 215.47523 289.993845 
L 216.47523 289.910583 
L 217.47523 289.877441 
L 218.47523 289.826204 
L 219.47523 289.757805 
L 220.47523 289.69159 
L 221.47523 289.614673 
L 222.47523 289.587357 
L 223.47523 289.56088 
L 224.47523 289.538229 
L 225.47523 289.518698 
L 226.47523 289.492304 
L 227.47523 289.442533 
L 228.47523 289.40746 
L 229.47523 289.371594 
L 230.47523 289.356227 
L 231.47523 289.340458 
L 232.47523 289.337045 
L 233.47523 289.334628 
L 234.47523 289.335114 
L 235.47523 289.337043 
L 236.47523 289.3503 
L 237.47523 289.358691 
L 238.47523 289.380227 
L 239.47523 289.40326 
L 240.47523 289.420493 
L 241.47523 289.438956 
L 242.47523 289.459408 
L 243.47523 289.476008 
L 244.47523 289.538787 
L 245.47523 289.614052 
L 246.47523 289.646691 
L 247.47523 289.714255 
L 248.47523 289.768302 
L 249.47523 289.802006 
L 250.47523 289.892132 
L 251.47523 289.920667 
L 252.47523 289.952153 
L 253.47523 289.983164 
L 254.47523 290.037972 
L 255.47523 290.102559 
L 256.47523 290.140755 
L 257.47523 290.236689 
L 258.47523 290.285947 
L 259.47523 290.330016 
L 260.47523 290.37014 
L 261.47523 290.478507 
L 262.47523 290.520135 
L 263.47523 290.582277 
L 264.47523 290.652239 
L 265.47523 290.756743 
L 266.47523 290.793731 
L 267.47523 290.839608 
L 268.47523 290.908103 
L 269.47523 290.956849 
L 270.47523 291.034446 
L 271.47523 291.064987 
L 272.47523 291.134501 
L 273.47523 291.158474 
L 274.47523 291.187096 
L 275.47523 291.228889 
L 276.47523 291.250465 
L 277.47523 291.264413 
L 278.47523 291.291135 
L 279.47523 291.300445 
L 280.47523 291.312892 
L 281.47523 291.323947 
L 282.47523 291.329611 
L 283.47523 291.334375 
L 284.47523 291.328827 
L 285.47523 291.315539 
L 286.47523 291.308022 
L 287.47523 291.283237 
L 288.47523 291.259668 
L 289.47523 291.223488 
L 290.47523 291.197526 
L 291.47523 291.175204 
L 292.47523 291.106444 
L 293.47523 291.031909 
L 294.47523 290.93793 
L 295.47523 290.886878 
L 296.47523 290.832944 
L 297.47523 290.797693 
L 298.47523 290.691605 
L 299.47523 290.639341 
L 300.47523 290.602434 
L 301.47523 290.571403 
L 302.47523 290.510248 
L 303.47523 290.442828 
L 304.47523 290.393922 
L 305.47523 290.32873 
L 306.47523 290.290542 
L 307.47523 290.248546 
L 308.47523 290.206529 
L 309.47523 290.147013 
L 310.47523 290.033853 
L 311.47523 289.981602 
L 312.47523 289.942184 
L 313.47523 289.895083 
L 314.47523 289.838303 
L 315.47523 289.80564 
L 316.47523 289.769462 
L 317.47523 289.737372 
L 318.47523 289.703092 
L 319.47523 289.644714 
L 320.47523 289.599529 
L 321.47523 289.569905 
L 322.47523 289.519519 
L 323.47523 289.494322 
L 324.47523 289.473271 
L 325.47523 289.438303 
L 326.47523 289.414013 
L 327.47523 289.399946 
L 328.47523 289.381004 
L 329.47523 289.365343 
L 330.47523 289.352791 
L 331.47523 289.346955 
L 332.47523 289.340073 
L 333.47523 289.334899 
L 334.47523 289.336682 
L 335.47523 289.339407 
L 336.47523 289.350561 
L 337.47523 289.378796 
L 338.47523 289.422584 
L 339.47523 289.443273 
L 340.47523 289.484246 
L 341.47523 289.524321 
L 342.47523 289.543431 
L 343.47523 289.56594 
L 344.47523 289.632591 
L 345.47523 289.682301 
L 346.47523 289.756007 
L 347.47523 289.787321 
L 348.47523 289.863943 
L 349.47523 289.902241 
L 350.47523 289.976358 
L 351.47523 290.080416 
L 352.47523 290.150247 
L 353.47523 290.255481 
L 354.47523 290.310496 
L 355.47523 290.433971 
L 356.47523 290.50453 
L 357.47523 290.620369 
L 358.47523 290.67055 
L 359.47523 290.706154 
L 360.47523 290.797561 
L 361.47523 290.851069 
L 362.47523 290.938977 
L 363.47523 291.008162 
L 364.47523 291.054926 
L 365.47523 291.12697 
L 366.47523 291.177112 
L 367.47523 291.194502 
L 368.47523 291.221505 
L 369.47523 291.240932 
L 370.47523 291.26027 
L 371.47523 291.298519 
L 372.47523 291.314952 
L 373.47523 291.323321 
L 374.47523 291.32764 
L 375.47523 291.334195 
L 376.47523 291.331649 
L 377.47523 291.32619 
L 378.47523 291.309762 
L 379.47523 291.277827 
L 380.47523 291.239847 
L 381.47523 291.205043 
L 382.47523 291.141971 
L 383.47523 291.120544 
L 384.47523 291.069926 
L 385.47523 291.044969 
L 386.47523 290.989335 
L 387.47523 290.958106 
L 388.47523 290.907962 
L 389.47523 290.875469 
L 390.47523 290.795057 
L 391.47523 290.726131 
L 392.47523 290.610434 
L 393.47523 290.534955 
L 394.47523 290.41943 
L 395.47523 290.339946 
L 396.47523 290.231505 
L 397.47523 290.192137 
L 398.47523 290.089269 
L 399.531128 289.989471 
" clip-path="url(#pbf7ac669d2)" style="fill: none; stroke: #ffffff; stroke-width: 3; stroke-linecap: round"/>
          <path d="M 166.47523 290.334433 
L 167.47523 290.365869 
L 168.47523 290.40281 
L 169.47523 290.500556 
L 170.47523 290.533078 
L 171.47523 290.606703 
L 172.47523 290.645268 
L 173.47523 290.680681 
L 174.47523 290.738321 
L 175.47523 290.808707 
L 176.47523 290.860672 
L 177.47523 290.919761 
L 178.47523 291.008082 
L 179.47523 291.054227 
L 180.47523 291.096638 
L 181.47523 291.12713 
L 182.47523 291.153175 
L 183.47523 291.174375 
L 184.47523 291.228676 
L 185.47523 291.256614 
L 186.47523 291.286338 
L 187.47523 291.311733 
L 188.47523 291.322933 
L 189.47523 291.333057 
L 190.47523 291.332853 
L 191.47523 291.323343 
L 192.47523 291.311689 
L 193.47523 291.28066 
L 194.47523 291.269492 
L 195.47523 291.239375 
L 196.47523 291.179598 
L 197.47523 291.142406 
L 198.47523 291.10331 
L 199.47523 291.06087 
L 200.47523 291.028105 
L 201.47523 290.960679 
L 202.47523 290.921553 
L 203.47523 290.878878 
L 204.47523 290.808298 
L 205.47523 290.771907 
L 206.47523 290.713504 
L 207.47523 290.602551 
L 208.47523 290.531893 
L 209.47523 290.418953 
L 210.47523 290.37318 
L 211.47523 290.311897 
L 212.47523 290.263398 
L 213.47523 290.182575 
L 214.47523 290.064056 
L 215.47523 289.993845 
L 216.47523 289.910583 
L 217.47523 289.877441 
L 218.47523 289.826204 
L 219.47523 289.757805 
L 220.47523 289.69159 
L 221.47523 289.614673 
L 222.47523 289.587357 
L 223.47523 289.56088 
L 224.47523 289.538229 
L 225.47523 289.518698 
L 226.47523 289.492304 
L 227.47523 289.442533 
L 228.47523 289.40746 
L 229.47523 289.371594 
L 230.47523 289.356227 
L 231.47523 289.340458 
L 232.47523 289.337045 
L 233.47523 289.334628 
L 234.47523 289.335114 
L 235.47523 289.337043 
L 236.47523 289.3503 
L 237.47523 289.358691 
L 238.47523 289.380227 
L 239.47523 289.40326 
L 240.47523 289.420493 
L 241.47523 289.438956 
L 242.47523 289.459408 
L 243.47523 289.476008 
L 244.47523 289.538787 
L 245.47523 289.614052 
L 246.47523 289.646691 
L 247.47523 289.714255 
L 248.47523 289.768302 
L 249.47523 289.802006 
L 250.47523 289.892132 
L 251.47523 289.920667 
L 252.47523 289.952153 
L 253.47523 289.983164 
L 254.47523 290.037972 
L 255.47523 290.102559 
L 256.47523 290.140755 
L 257.47523 290.236689 
L 258.47523 290.285947 
L 259.47523 290.330016 
L 260.47523 290.37014 
L 261.47523 290.478507 
L 262.47523 290.520135 
L 263.47523 290.582277 
L 264.47523 290.652239 
L 265.47523 290.756743 
L 266.47523 290.793731 
L 267.47523 290.839608 
L 268.47523 290.908103 
L 269.47523 290.956849 
L 270.47523 291.034446 
L 271.47523 291.064987 
L 272.47523 291.134501 
L 273.47523 291.158474 
L 274.47523 291.187096 
L 275.47523 291.228889 
L 276.47523 291.250465 
L 277.47523 291.264413 
L 278.47523 291.291135 
L 279.47523 291.300445 
L 280.47523 291.312892 
L 281.47523 291.323947 
L 282.47523 291.329611 
L 283.47523 291.334375 
L 284.47523 291.328827 
L 285.47523 291.315539 
L 286.47523 291.308022 
L 287.47523 291.283237 
L 288.47523 291.259668 
L 289.47523 291.223488 
L 290.47523 291.197526 
L 291.47523 291.175204 
L 292.47523 291.106444 
L 293.47523 291.031909 
L 294.47523 290.93793 
L 295.47523 290.886878 
L 296.47523 290.832944 
L 297.47523 290.797693 
L 298.47523 290.691605 
L 299.47523 290.639341 
L 300.47523 290.602434 
L 301.47523 290.571403 
L 302.47523 290.510248 
L 303.47523 290.442828 
L 304.47523 290.393922 
L 305.47523 290.32873 
L 306.47523 290.290542 
L 307.47523 290.248546 
L 308.47523 290.206529 
L 309.47523 290.147013 
L 310.47523 290.033853 
L 311.47523 289.981602 
L 312.47523 289.942184 
L 313.47523 289.895083 
L 314.47523 289.838303 
L 315.47523 289.80564 
L 316.47523 289.769462 
L 317.47523 289.737372 
L 318.47523 289.703092 
L 319.47523 289.644714 
L 320.47523 289.599529 
L 321.47523 289.569905 
L 322.47523 289.519519 
L 323.47523 289.494322 
L 324.47523 289.473271 
L 325.47523 289.438303 
L 326.47523 289.414013 
L 327.47523 289.399946 
L 328.47523 289.381004 
L 329.47523 289.365343 
L 330.47523 289.352791 
L 331.47523 289.346955 
L 332.47523 289.340073 
L 333.47523 289.334899 
L 334.47523 289.336682 
L 335.47523 289.339407 
L 336.47523 289.350561 
L 337.47523 289.378796 
L 338.47523 289.422584 
L 339.47523 289.443273 
L 340.47523 289.484246 
L 341.47523 289.524321 
L 342.47523 289.543431 
L 343.47523 289.56594 
L 344.47523 289.632591 
L 345.47523 289.682301 
L 346.47523 289.756007 
L 347.47523 289.787321 
L 348.47523 289.863943 
L 349.47523 289.902241 
L 350.47523 289.976358 
L 351.47523 290.080416 
L 352.47523 290.150247 
L 353.47523 290.255481 
L 354.47523 290.310496 
L 355.47523 290.433971 
L 356.47523 290.50453 
L 357.47523 290.620369 
L 358.47523 290.67055 
L 359.47523 290.706154 
L 360.47523 290.797561 
L 361.47523 290.851069 
L 362.47523 290.938977 
L 363.47523 291.008162 
L 364.47523 291.054926 
L 365.47523 291.12697 
L 366.47523 291.177112 
L 367.47523 291.194502 
L 368.47523 291.221505 
L 369.47523 291.240932 
L 370.47523 291.26027 
L 371.47523 291.298519 
L 372.47523 291.314952 
L 373.47523 291.323321 
L 374.47523 291.32764 
L 375.47523 291.334195 
L 376.47523 291.331649 
L 377.47523 291.32619 
L 378.47523 291.309762 
L 379.47523 291.277827 
L 380.47523 291.239847 
L 381.47523 291.205043 
L 382.47523 291.141971 
L 383.47523 291.120544 
L 384.47523 291.069926 
L 385.47523 291.044969 
L 386.47523 290.989335 
L 387.47523 290.958106 
L 388.47523 290.907962 
L 389.47523 290.875469 
L 390.47523 290.795057 
L 391.47523 290.726131 
L 392.47523 290.610434 
L 393.47523 290.534955 
L 394.47523 290.41943 
L 395.47523 290.339946 
L 396.47523 290.231505 
L 397.47523 290.192137 
L 398.47523 290.089269 
L 399.531128 289.989471 
" clip-path="url(#pbf7ac669d2)" style="fill: none; stroke: #ff7f0e; stroke-linecap: round"/>
          <path d="M 395.531128 288.334433 
L 396.411496 288.809764 
L 397.289403 289.290018 
L 398.140117 289.824659 
L 399.442291 290.512106 
L 398.514938 290.538121 
L 397.603264 290.950841 
L 396.692999 291.36638 
L 395.350503 291.973184 
L 396.005402 291.334433 
L 396.057366 290.334433 
L 396.116456 288.334433 
z
" clip-path="url(#pbf7ac669d2)" style="fill: #ffffff; stroke: #ffffff; stroke-width: 3; stroke-linecap: round"/>
          <path d="M 395.531128 288.334433 
L 396.411496 288.809764 
L 397.289403 289.290018 
L 398.140117 289.824659 
L 399.442291 290.512106 
L 398.514938 290.538121 
L 397.603264 290.950841 
L 396.692999 291.36638 
L 395.350503 291.973184 
L 396.005402 291.334433 
L 396.057366 290.334433 
L 396.116456 288.334433 
z
" clip-path="url(#pbf7ac669d2)" style="fill: #ffffff; stroke: #ff7f0e; stroke-linecap: round"/>
          <path d="M 472.596118 304.402687 
" clip-path="url(#pbf7ac669d2)" style="fill: none; stroke-dasharray: 3.7,1.6; stroke-dashoffset: 0; stroke: #2ca02c"/>
          <path d="M 471.596118 304.402687 
L 473.596118 305.402687 
L 473.596118 303.402687 
z
" clip-path="url(#pbf7ac669d2)" style="fill: #2ca02c; stroke: #2ca02c; stroke-linejoin: miter"/>
          <g id="patch_10">
           <path d="M 63.290625 321.621875 
L 63.290625 10.8 
" style="fill: none; stroke: #000000; stroke-width: 0.8; stroke-linejoin: miter; stroke-linecap: square"/>
          </g>
          <g id="text_11">
           <g id="patch_11">
            <path d="M 300.764909 136.331635 
L 322.069597 136.331635 
Q 324.069597 136.331635 324.069597 134.331635 
L 324.069597 124.65351 
Q 324.069597 122.65351 322.069597 122.65351 
L 300.764909 122.65351 
Q 298.764909 122.65351 298.764909 124.65351 
L 298.764909 134.331635 
Q 298.764909 136.331635 300.764909 136.331635 
z
" style="fill: #ffffff; opacity: 0.6"/>
           </g>
           <!-- ANC -->
           <g transform="translate(300.764909 132.251948) scale(0.1 -0.1)">
            <defs>
             <path id="DejaVuSans-4e" d="M 628 4666 
L 1478 4666 
L 3547 763 
L 3547 4666 
L 4159 4666 
L 4159 0 
L 3309 0 
L 1241 3903 
L 1241 0 
L 628 0 
L 628 4666 
z
" transform="scale(0.015625)"/>
            </defs>
            <use xlink:href="#DejaVuSans-41"/>
            <use xlink:href="#DejaVuSans-4e" x="68.408203"/>
            <use xlink:href="#DejaVuSans-43" x="143.212891"/>
           </g>
          </g>
         </g>
        </g>
        <defs>
         <clipPath id="pbf7ac669d2">
          <rect x="63.290625" y="10.8" width="540.309375" height="310.821875"/>
         </clipPath>
        </defs>
       </g>
      </g>
     </g>
    </g>
   </g>
  </g>
 </g>
</svg>
