<?xml version="1.0" encoding="utf-8" standalone="no"?>
<!DOCTYPE svg PUBLIC "-//W3C//DTD SVG 1.1//EN"
  "http://www.w3.org/Graphics/SVG/1.1/DTD/svg11.dtd">
<svg xmlns:xlink="http://www.w3.org/1999/xlink" width="614.4pt" height="345.6pt" viewBox="0 0 614.4 345.6" xmlns="http://www.w3.org/2000/svg" version="1.1">
 <metadata>
  <rdf:RDF xmlns:dc="http://purl.org/dc/elements/1.1/" xmlns:cc="http://creativecommons.org/ns#" xmlns:rdf="http://www.w3.org/1999/02/22-rdf-syntax-ns#">
   <cc:Work>
    <dc:type rdf:resource="http://purl.org/dc/dcmitype/StillImage"/>
    <dc:date>2024-04-17T19:48:47.459136</dc:date>
    <dc:format>image/svg+xml</dc:format>
    <dc:creator>
     <cc:Agent>
      <dc:title>Matplotlib v3.7.1, https://matplotlib.org/</dc:title>
     </cc:Agent>
    </dc:creator>
   </cc:Work>
  </rdf:RDF>
 </metadata>
 <defs>
  <style type="text/css">*{stroke-linejoin: round; stroke-linecap: butt}</style>
 </defs>
 <g id="figure_1">
  <g id="patch_1">
   <path d="M 0 345.6 
L 614.4 345.6 
L 614.4 0 
L 0 0 
z
" style="fill: #ffffff"/>
  </g>
  <g id="axes_1">
   <g id="patch_2">
    <path d="M 63.290625 321.621875 
L 603.6 321.621875 
L 603.6 13.262106 
L 63.290625 13.262106 
z
" style="fill: #ffffff"/>
   </g>
   <path d="M 550.335222 303.802328 
L 549.335222 303.770892 
L 548.335222 303.733952 
L 547.335222 303.636205 
L 546.335222 303.603683 
L 545.335222 303.530059 
L 544.335222 303.491493 
L 543.335222 303.45608 
L 542.335222 303.39844 
L 541.335222 303.328054 
L 540.335222 303.27609 
L 539.335222 303.217 
L 538.335222 303.128679 
L 537.335222 303.082535 
L 536.335222 303.040124 
L 535.335222 303.009631 
L 534.335222 302.983586 
L 533.335222 302.962386 
L 532.335222 302.908085 
L 531.335222 302.880147 
L 530.335222 302.850423 
L 529.335222 302.825029 
L 528.335222 302.813828 
L 527.335222 302.803704 
L 526.335222 302.803909 
L 525.335222 302.813418 
L 524.335222 302.825072 
L 523.335222 302.856101 
L 522.335222 302.867269 
L 521.335222 302.897387 
L 520.335222 302.957164 
L 519.335222 302.994355 
L 518.335222 303.033451 
L 517.335222 303.075891 
L 516.335222 303.108656 
L 515.335222 303.176082 
L 514.335222 303.215208 
L 513.335222 303.257883 
L 512.335222 303.328463 
L 511.335222 303.364854 
L 510.335222 303.423258 
L 509.335222 303.53421 
L 508.335222 303.604868 
L 507.335222 303.717808 
L 506.335222 303.763581 
L 505.335222 303.824864 
L 504.335222 303.873364 
L 503.335222 303.954186 
L 502.335222 304.072705 
L 501.335222 304.142916 
L 500.335222 304.226178 
L 499.335222 304.25932 
L 498.335222 304.310558 
L 497.335222 304.378956 
L 496.335222 304.445171 
L 495.335222 304.522088 
L 494.335222 304.549404 
L 493.335222 304.575881 
L 492.335222 304.598532 
L 491.335222 304.618063 
L 490.335222 304.644457 
L 489.335222 304.694228 
L 488.335222 304.729301 
L 487.335222 304.765167 
L 486.335222 304.780534 
L 485.335222 304.796303 
L 484.335222 304.799716 
L 483.335222 304.802134 
L 482.335222 304.801647 
L 481.335222 304.799718 
L 480.335222 304.786461 
L 479.335222 304.778071 
L 478.335222 304.756534 
L 477.335222 304.733502 
L 476.335222 304.716268 
L 475.335222 304.697806 
L 474.335222 304.677353 
L 473.335222 304.660753 
L 472.335222 304.597974 
L 471.335222 304.522709 
L 470.335222 304.49007 
L 469.335222 304.422507 
L 468.335222 304.36846 
L 467.335222 304.334755 
L 466.335222 304.244629 
L 465.335222 304.216094 
L 464.335222 304.184608 
L 463.335222 304.153597 
L 462.335222 304.098789 
L 461.335222 304.034202 
L 460.335222 303.996007 
L 459.22405 303.900072 
" clip-path="url(#p0dfd67cc6c)" style="fill: none; stroke-dasharray: 3.7,1.6; stroke-dashoffset: 0; stroke: #2ca02c"/>
   <g id="patch_3">
    <path d="M 285.55956 13.262106 
L 285.55956 284.816902 
M 380.302827 13.262106 
L 380.302827 284.816902 
" clip-path="url(#p0dfd67cc6c)" style="fill: none; stroke: #ffffff; stroke-width: 3; stroke-linejoin: miter"/>
    <path d="M 285.55956 13.262106 
L 285.55956 284.816902 
M 380.302827 13.262106 
L 380.302827 284.816902 
" clip-path="url(#p0dfd67cc6c)" style="fill: none; stroke: #1f77b4; stroke-linejoin: miter"/>
    <g id="PolyCollection_1">
     <path d="M 380.302827 13.262106 
L 285.55956 13.262106 
L 285.55956 284.816902 
L 380.302827 284.816902 
L 380.302827 284.816902 
L 380.302827 13.262106 
z
" clip-path="url(#p0dfd67cc6c)" style="fill: #1f77b4; fill-opacity: 0.5"/>
    </g>
    <g id="patch_4">
     <path d="M 87.850142 284.816902 
L 87.850142 321.621875 
M 226.324936 284.816902 
L 226.324936 321.621875 
" clip-path="url(#p0dfd67cc6c)" style="fill: none; stroke: #ffffff; stroke-width: 3; stroke-linejoin: miter"/>
     <path d="M 87.850142 284.816902 
L 87.850142 321.621875 
M 226.324936 284.816902 
L 226.324936 321.621875 
" clip-path="url(#p0dfd67cc6c)" style="fill: none; stroke: #ff7f0e; stroke-linejoin: miter"/>
     <g id="PolyCollection_2">
      <path d="M 226.324936 284.816902 
L 87.850142 284.816902 
L 87.850142 321.621875 
L 226.324936 321.621875 
L 226.324936 321.621875 
L 226.324936 284.816902 
z
" clip-path="url(#p0dfd67cc6c)" style="fill: #ff7f0e; fill-opacity: 0.5"/>
     </g>
     <g id="patch_5">
      <path d="M 555.738316 74.934059 
L 555.738316 321.621875 
M 579.040483 74.934059 
L 579.040483 321.621875 
" clip-path="url(#p0dfd67cc6c)" style="fill: none; stroke: #ffffff; stroke-width: 3; stroke-linejoin: miter"/>
      <path d="M 555.738316 74.934059 
L 555.738316 321.621875 
M 579.040483 74.934059 
L 579.040483 321.621875 
" clip-path="url(#p0dfd67cc6c)" style="fill: none; stroke: #2ca02c; stroke-linejoin: miter"/>
      <g id="PolyCollection_3">
       <path d="M 579.040483 74.934059 
L 555.738316 74.934059 
L 555.738316 321.621875 
L 579.040483 321.621875 
L 579.040483 321.621875 
L 579.040483 74.934059 
z
" clip-path="url(#p0dfd67cc6c)" style="fill: #2ca02c; fill-opacity: 0.5"/>
      </g>
      <g id="patch_6">
       <path d="M 446.499637 284.816902 
L 446.499637 321.621875 
M 453.820956 284.816902 
L 453.820956 321.621875 
" clip-path="url(#p0dfd67cc6c)" style="fill: none; stroke: #ffffff; stroke-width: 3; stroke-linejoin: miter"/>
       <path d="M 446.499637 284.816902 
L 446.499637 321.621875 
M 453.820956 284.816902 
L 453.820956 321.621875 
" clip-path="url(#p0dfd67cc6c)" style="fill: none; stroke: #d62728; stroke-linejoin: miter"/>
       <g id="PolyCollection_4">
        <path d="M 453.820956 284.816902 
L 446.499637 284.816902 
L 446.499637 321.621875 
L 453.820956 321.621875 
L 453.820956 321.621875 
L 453.820956 284.816902 
z
" clip-path="url(#p0dfd67cc6c)" style="fill: #d62728; fill-opacity: 0.5"/>
       </g>
       <g id="matplotlib.axis_1">
        <g id="xtick_1">
         <g id="line2d_1"/>
         <g id="text_1">
          <!-- OUT -->
          <g transform="translate(146.43832 332.720312) scale(0.1 -0.1)">
           <defs>
            <path id="DejaVuSans-4f" d="M 2522 4238 
Q 1834 4238 1429 3725 
Q 1025 3213 1025 2328 
Q 1025 1447 1429 934 
Q 1834 422 2522 422 
Q 3209 422 3611 934 
Q 4013 1447 4013 2328 
Q 4013 3213 3611 3725 
Q 3209 4238 2522 4238 
z
M 2522 4750 
Q 3503 4750 4090 4092 
Q 4678 3434 4678 2328 
Q 4678 1225 4090 567 
Q 3503 -91 2522 -91 
Q 1538 -91 948 565 
Q 359 1222 359 2328 
Q 359 3434 948 4092 
Q 1538 4750 2522 4750 
z
" transform="scale(0.015625)"/>
            <path id="DejaVuSans-55" d="M 556 4666 
L 1191 4666 
L 1191 1831 
Q 1191 1081 1462 751 
Q 1734 422 2344 422 
Q 2950 422 3222 751 
Q 3494 1081 3494 1831 
L 3494 4666 
L 4128 4666 
L 4128 1753 
Q 4128 841 3676 375 
Q 3225 -91 2344 -91 
Q 1459 -91 1007 375 
Q 556 841 556 1753 
L 556 4666 
z
" transform="scale(0.015625)"/>
            <path id="DejaVuSans-54" d="M -19 4666 
L 3928 4666 
L 3928 4134 
L 2272 4134 
L 2272 0 
L 1638 0 
L 1638 4134 
L -19 4134 
L -19 4666 
z
" transform="scale(0.015625)"/>
           </defs>
           <use xlink:href="#DejaVuSans-4f"/>
           <use xlink:href="#DejaVuSans-55" x="78.710938"/>
           <use xlink:href="#DejaVuSans-54" x="151.904297"/>
          </g>
         </g>
        </g>
        <g id="xtick_2">
         <g id="line2d_2"/>
         <g id="text_2">
          <!-- SRC -->
          <g transform="translate(557.499556 332.720312) scale(0.1 -0.1)">
           <defs>
            <path id="DejaVuSans-53" d="M 3425 4513 
L 3425 3897 
Q 3066 4069 2747 4153 
Q 2428 4238 2131 4238 
Q 1616 4238 1336 4038 
Q 1056 3838 1056 3469 
Q 1056 3159 1242 3001 
Q 1428 2844 1947 2747 
L 2328 2669 
Q 3034 2534 3370 2195 
Q 3706 1856 3706 1288 
Q 3706 609 3251 259 
Q 2797 -91 1919 -91 
Q 1588 -91 1214 -16 
Q 841 59 441 206 
L 441 856 
Q 825 641 1194 531 
Q 1563 422 1919 422 
Q 2459 422 2753 634 
Q 3047 847 3047 1241 
Q 3047 1584 2836 1778 
Q 2625 1972 2144 2069 
L 1759 2144 
Q 1053 2284 737 2584 
Q 422 2884 422 3419 
Q 422 4038 858 4394 
Q 1294 4750 2059 4750 
Q 2388 4750 2728 4690 
Q 3069 4631 3425 4513 
z
" transform="scale(0.015625)"/>
            <path id="DejaVuSans-52" d="M 2841 2188 
Q 3044 2119 3236 1894 
Q 3428 1669 3622 1275 
L 4263 0 
L 3584 0 
L 2988 1197 
Q 2756 1666 2539 1819 
Q 2322 1972 1947 1972 
L 1259 1972 
L 1259 0 
L 628 0 
L 628 4666 
L 2053 4666 
Q 2853 4666 3247 4331 
Q 3641 3997 3641 3322 
Q 3641 2881 3436 2590 
Q 3231 2300 2841 2188 
z
M 1259 4147 
L 1259 2491 
L 2053 2491 
Q 2509 2491 2742 2702 
Q 2975 2913 2975 3322 
Q 2975 3731 2742 3939 
Q 2509 4147 2053 4147 
L 1259 4147 
z
" transform="scale(0.015625)"/>
            <path id="DejaVuSans-43" d="M 4122 4306 
L 4122 3641 
Q 3803 3938 3442 4084 
Q 3081 4231 2675 4231 
Q 1875 4231 1450 3742 
Q 1025 3253 1025 2328 
Q 1025 1406 1450 917 
Q 1875 428 2675 428 
Q 3081 428 3442 575 
Q 3803 722 4122 1019 
L 4122 359 
Q 3791 134 3420 21 
Q 3050 -91 2638 -91 
Q 1578 -91 968 557 
Q 359 1206 359 2328 
Q 359 3453 968 4101 
Q 1578 4750 2638 4750 
Q 3056 4750 3426 4639 
Q 3797 4528 4122 4306 
z
" transform="scale(0.015625)"/>
           </defs>
           <use xlink:href="#DejaVuSans-53"/>
           <use xlink:href="#DejaVuSans-52" x="63.476562"/>
           <use xlink:href="#DejaVuSans-43" x="127.958984"/>
          </g>
         </g>
        </g>
        <g id="xtick_3">
         <g id="line2d_3"/>
         <g id="text_3">
          <!-- TAR -->
          <g transform="translate(440.599359 332.720312) scale(0.1 -0.1)">
           <defs>
            <path id="DejaVuSans-41" d="M 2188 4044 
L 1331 1722 
L 3047 1722 
L 2188 4044 
z
M 1831 4666 
L 2547 4666 
L 4325 0 
L 3669 0 
L 3244 1197 
L 1141 1197 
L 716 0 
L 50 0 
L 1831 4666 
z
" transform="scale(0.015625)"/>
           </defs>
           <use xlink:href="#DejaVuSans-54"/>
           <use xlink:href="#DejaVuSans-41" x="53.333984"/>
           <use xlink:href="#DejaVuSans-52" x="121.742188"/>
          </g>
         </g>
        </g>
       </g>
       <g id="matplotlib.axis_2">
        <g id="ytick_1">
         <g id="line2d_4">
          <defs>
           <path id="mc6306ad8e7" d="M 0 0 
L -3.5 0 
" style="stroke: #000000; stroke-width: 0.8"/>
          </defs>
          <g>
           <use xlink:href="#mc6306ad8e7" x="63.290625" y="321.621875" style="stroke: #000000; stroke-width: 0.8"/>
          </g>
         </g>
         <g id="text_4">
          <!-- 0 -->
          <g transform="translate(49.928125 325.421094) scale(0.1 -0.1)">
           <defs>
            <path id="DejaVuSans-30" d="M 2034 4250 
Q 1547 4250 1301 3770 
Q 1056 3291 1056 2328 
Q 1056 1369 1301 889 
Q 1547 409 2034 409 
Q 2525 409 2770 889 
Q 3016 1369 3016 2328 
Q 3016 3291 2770 3770 
Q 2525 4250 2034 4250 
z
M 2034 4750 
Q 2819 4750 3233 4129 
Q 3647 3509 3647 2328 
Q 3647 1150 3233 529 
Q 2819 -91 2034 -91 
Q 1250 -91 836 529 
Q 422 1150 422 2328 
Q 422 3509 836 4129 
Q 1250 4750 2034 4750 
z
" transform="scale(0.015625)"/>
           </defs>
           <use xlink:href="#DejaVuSans-30"/>
          </g>
         </g>
        </g>
        <g id="ytick_2">
         <g id="line2d_5">
          <g>
           <use xlink:href="#mc6306ad8e7" x="63.290625" y="260.2598" style="stroke: #000000; stroke-width: 0.8"/>
          </g>
         </g>
         <g id="text_5">
          <!-- 5000 -->
          <g transform="translate(30.840625 264.059018) scale(0.1 -0.1)">
           <defs>
            <path id="DejaVuSans-35" d="M 691 4666 
L 3169 4666 
L 3169 4134 
L 1269 4134 
L 1269 2991 
Q 1406 3038 1543 3061 
Q 1681 3084 1819 3084 
Q 2600 3084 3056 2656 
Q 3513 2228 3513 1497 
Q 3513 744 3044 326 
Q 2575 -91 1722 -91 
Q 1428 -91 1123 -41 
Q 819 9 494 109 
L 494 744 
Q 775 591 1075 516 
Q 1375 441 1709 441 
Q 2250 441 2565 725 
Q 2881 1009 2881 1497 
Q 2881 1984 2565 2268 
Q 2250 2553 1709 2553 
Q 1456 2553 1204 2497 
Q 953 2441 691 2322 
L 691 4666 
z
" transform="scale(0.015625)"/>
           </defs>
           <use xlink:href="#DejaVuSans-35"/>
           <use xlink:href="#DejaVuSans-30" x="63.623047"/>
           <use xlink:href="#DejaVuSans-30" x="127.246094"/>
           <use xlink:href="#DejaVuSans-30" x="190.869141"/>
          </g>
         </g>
        </g>
        <g id="ytick_3">
         <g id="line2d_6">
          <g>
           <use xlink:href="#mc6306ad8e7" x="63.290625" y="198.897724" style="stroke: #000000; stroke-width: 0.8"/>
          </g>
         </g>
         <g id="text_6">
          <!-- 10000 -->
          <g transform="translate(24.478125 202.696943) scale(0.1 -0.1)">
           <defs>
            <path id="DejaVuSans-31" d="M 794 531 
L 1825 531 
L 1825 4091 
L 703 3866 
L 703 4441 
L 1819 4666 
L 2450 4666 
L 2450 531 
L 3481 531 
L 3481 0 
L 794 0 
L 794 531 
z
" transform="scale(0.015625)"/>
           </defs>
           <use xlink:href="#DejaVuSans-31"/>
           <use xlink:href="#DejaVuSans-30" x="63.623047"/>
           <use xlink:href="#DejaVuSans-30" x="127.246094"/>
           <use xlink:href="#DejaVuSans-30" x="190.869141"/>
           <use xlink:href="#DejaVuSans-30" x="254.492188"/>
          </g>
         </g>
        </g>
        <g id="ytick_4">
         <g id="line2d_7">
          <g>
           <use xlink:href="#mc6306ad8e7" x="63.290625" y="137.535649" style="stroke: #000000; stroke-width: 0.8"/>
          </g>
         </g>
         <g id="text_7">
          <!-- 15000 -->
          <g transform="translate(24.478125 141.334868) scale(0.1 -0.1)">
           <use xlink:href="#DejaVuSans-31"/>
           <use xlink:href="#DejaVuSans-35" x="63.623047"/>
           <use xlink:href="#DejaVuSans-30" x="127.246094"/>
           <use xlink:href="#DejaVuSans-30" x="190.869141"/>
           <use xlink:href="#DejaVuSans-30" x="254.492188"/>
          </g>
         </g>
        </g>
        <g id="ytick_5">
         <g id="line2d_8">
          <g>
           <use xlink:href="#mc6306ad8e7" x="63.290625" y="76.173573" style="stroke: #000000; stroke-width: 0.8"/>
          </g>
         </g>
         <g id="text_8">
          <!-- 20000 -->
          <g transform="translate(24.478125 79.972792) scale(0.1 -0.1)">
           <defs>
            <path id="DejaVuSans-32" d="M 1228 531 
L 3431 531 
L 3431 0 
L 469 0 
L 469 531 
Q 828 903 1448 1529 
Q 2069 2156 2228 2338 
Q 2531 2678 2651 2914 
Q 2772 3150 2772 3378 
Q 2772 3750 2511 3984 
Q 2250 4219 1831 4219 
Q 1534 4219 1204 4116 
Q 875 4013 500 3803 
L 500 4441 
Q 881 4594 1212 4672 
Q 1544 4750 1819 4750 
Q 2544 4750 2975 4387 
Q 3406 4025 3406 3419 
Q 3406 3131 3298 2873 
Q 3191 2616 2906 2266 
Q 2828 2175 2409 1742 
Q 1991 1309 1228 531 
z
" transform="scale(0.015625)"/>
           </defs>
           <use xlink:href="#DejaVuSans-32"/>
           <use xlink:href="#DejaVuSans-30" x="63.623047"/>
           <use xlink:href="#DejaVuSans-30" x="127.246094"/>
           <use xlink:href="#DejaVuSans-30" x="190.869141"/>
           <use xlink:href="#DejaVuSans-30" x="254.492188"/>
          </g>
         </g>
        </g>
        <g id="ytick_6">
         <g id="line2d_9">
          <g>
           <use xlink:href="#mc6306ad8e7" x="63.290625" y="14.811498" style="stroke: #000000; stroke-width: 0.8"/>
          </g>
         </g>
         <g id="text_9">
          <!-- 25000 -->
          <g transform="translate(24.478125 18.610717) scale(0.1 -0.1)">
           <use xlink:href="#DejaVuSans-32"/>
           <use xlink:href="#DejaVuSans-35" x="63.623047"/>
           <use xlink:href="#DejaVuSans-30" x="127.246094"/>
           <use xlink:href="#DejaVuSans-30" x="190.869141"/>
           <use xlink:href="#DejaVuSans-30" x="254.492188"/>
          </g>
         </g>
        </g>
        <g id="text_10">
         <!-- time ago (generations) -->
         <g transform="translate(18.398438 224.913084) rotate(-90) scale(0.1 -0.1)">
          <defs>
           <path id="DejaVuSans-74" d="M 1172 4494 
L 1172 3500 
L 2356 3500 
L 2356 3053 
L 1172 3053 
L 1172 1153 
Q 1172 725 1289 603 
Q 1406 481 1766 481 
L 2356 481 
L 2356 0 
L 1766 0 
Q 1100 0 847 248 
Q 594 497 594 1153 
L 594 3053 
L 172 3053 
L 172 3500 
L 594 3500 
L 594 4494 
L 1172 4494 
z
" transform="scale(0.015625)"/>
           <path id="DejaVuSans-69" d="M 603 3500 
L 1178 3500 
L 1178 0 
L 603 0 
L 603 3500 
z
M 603 4863 
L 1178 4863 
L 1178 4134 
L 603 4134 
L 603 4863 
z
" transform="scale(0.015625)"/>
           <path id="DejaVuSans-6d" d="M 3328 2828 
Q 3544 3216 3844 3400 
Q 4144 3584 4550 3584 
Q 5097 3584 5394 3201 
Q 5691 2819 5691 2113 
L 5691 0 
L 5113 0 
L 5113 2094 
Q 5113 2597 4934 2840 
Q 4756 3084 4391 3084 
Q 3944 3084 3684 2787 
Q 3425 2491 3425 1978 
L 3425 0 
L 2847 0 
L 2847 2094 
Q 2847 2600 2669 2842 
Q 2491 3084 2119 3084 
Q 1678 3084 1418 2786 
Q 1159 2488 1159 1978 
L 1159 0 
L 581 0 
L 581 3500 
L 1159 3500 
L 1159 2956 
Q 1356 3278 1631 3431 
Q 1906 3584 2284 3584 
Q 2666 3584 2933 3390 
Q 3200 3197 3328 2828 
z
" transform="scale(0.015625)"/>
           <path id="DejaVuSans-65" d="M 3597 1894 
L 3597 1613 
L 953 1613 
Q 991 1019 1311 708 
Q 1631 397 2203 397 
Q 2534 397 2845 478 
Q 3156 559 3463 722 
L 3463 178 
Q 3153 47 2828 -22 
Q 2503 -91 2169 -91 
Q 1331 -91 842 396 
Q 353 884 353 1716 
Q 353 2575 817 3079 
Q 1281 3584 2069 3584 
Q 2775 3584 3186 3129 
Q 3597 2675 3597 1894 
z
M 3022 2063 
Q 3016 2534 2758 2815 
Q 2500 3097 2075 3097 
Q 1594 3097 1305 2825 
Q 1016 2553 972 2059 
L 3022 2063 
z
" transform="scale(0.015625)"/>
           <path id="DejaVuSans-20" transform="scale(0.015625)"/>
           <path id="DejaVuSans-61" d="M 2194 1759 
Q 1497 1759 1228 1600 
Q 959 1441 959 1056 
Q 959 750 1161 570 
Q 1363 391 1709 391 
Q 2188 391 2477 730 
Q 2766 1069 2766 1631 
L 2766 1759 
L 2194 1759 
z
M 3341 1997 
L 3341 0 
L 2766 0 
L 2766 531 
Q 2569 213 2275 61 
Q 1981 -91 1556 -91 
Q 1019 -91 701 211 
Q 384 513 384 1019 
Q 384 1609 779 1909 
Q 1175 2209 1959 2209 
L 2766 2209 
L 2766 2266 
Q 2766 2663 2505 2880 
Q 2244 3097 1772 3097 
Q 1472 3097 1187 3025 
Q 903 2953 641 2809 
L 641 3341 
Q 956 3463 1253 3523 
Q 1550 3584 1831 3584 
Q 2591 3584 2966 3190 
Q 3341 2797 3341 1997 
z
" transform="scale(0.015625)"/>
           <path id="DejaVuSans-67" d="M 2906 1791 
Q 2906 2416 2648 2759 
Q 2391 3103 1925 3103 
Q 1463 3103 1205 2759 
Q 947 2416 947 1791 
Q 947 1169 1205 825 
Q 1463 481 1925 481 
Q 2391 481 2648 825 
Q 2906 1169 2906 1791 
z
M 3481 434 
Q 3481 -459 3084 -895 
Q 2688 -1331 1869 -1331 
Q 1566 -1331 1297 -1286 
Q 1028 -1241 775 -1147 
L 775 -588 
Q 1028 -725 1275 -790 
Q 1522 -856 1778 -856 
Q 2344 -856 2625 -561 
Q 2906 -266 2906 331 
L 2906 616 
Q 2728 306 2450 153 
Q 2172 0 1784 0 
Q 1141 0 747 490 
Q 353 981 353 1791 
Q 353 2603 747 3093 
Q 1141 3584 1784 3584 
Q 2172 3584 2450 3431 
Q 2728 3278 2906 2969 
L 2906 3500 
L 3481 3500 
L 3481 434 
z
" transform="scale(0.015625)"/>
           <path id="DejaVuSans-6f" d="M 1959 3097 
Q 1497 3097 1228 2736 
Q 959 2375 959 1747 
Q 959 1119 1226 758 
Q 1494 397 1959 397 
Q 2419 397 2687 759 
Q 2956 1122 2956 1747 
Q 2956 2369 2687 2733 
Q 2419 3097 1959 3097 
z
M 1959 3584 
Q 2709 3584 3137 3096 
Q 3566 2609 3566 1747 
Q 3566 888 3137 398 
Q 2709 -91 1959 -91 
Q 1206 -91 779 398 
Q 353 888 353 1747 
Q 353 2609 779 3096 
Q 1206 3584 1959 3584 
z
" transform="scale(0.015625)"/>
           <path id="DejaVuSans-28" d="M 1984 4856 
Q 1566 4138 1362 3434 
Q 1159 2731 1159 2009 
Q 1159 1288 1364 580 
Q 1569 -128 1984 -844 
L 1484 -844 
Q 1016 -109 783 600 
Q 550 1309 550 2009 
Q 550 2706 781 3412 
Q 1013 4119 1484 4856 
L 1984 4856 
z
" transform="scale(0.015625)"/>
           <path id="DejaVuSans-6e" d="M 3513 2113 
L 3513 0 
L 2938 0 
L 2938 2094 
Q 2938 2591 2744 2837 
Q 2550 3084 2163 3084 
Q 1697 3084 1428 2787 
Q 1159 2491 1159 1978 
L 1159 0 
L 581 0 
L 581 3500 
L 1159 3500 
L 1159 2956 
Q 1366 3272 1645 3428 
Q 1925 3584 2291 3584 
Q 2894 3584 3203 3211 
Q 3513 2838 3513 2113 
z
" transform="scale(0.015625)"/>
           <path id="DejaVuSans-72" d="M 2631 2963 
Q 2534 3019 2420 3045 
Q 2306 3072 2169 3072 
Q 1681 3072 1420 2755 
Q 1159 2438 1159 1844 
L 1159 0 
L 581 0 
L 581 3500 
L 1159 3500 
L 1159 2956 
Q 1341 3275 1631 3429 
Q 1922 3584 2338 3584 
Q 2397 3584 2469 3576 
Q 2541 3569 2628 3553 
L 2631 2963 
z
" transform="scale(0.015625)"/>
           <path id="DejaVuSans-73" d="M 2834 3397 
L 2834 2853 
Q 2591 2978 2328 3040 
Q 2066 3103 1784 3103 
Q 1356 3103 1142 2972 
Q 928 2841 928 2578 
Q 928 2378 1081 2264 
Q 1234 2150 1697 2047 
L 1894 2003 
Q 2506 1872 2764 1633 
Q 3022 1394 3022 966 
Q 3022 478 2636 193 
Q 2250 -91 1575 -91 
Q 1294 -91 989 -36 
Q 684 19 347 128 
L 347 722 
Q 666 556 975 473 
Q 1284 391 1588 391 
Q 1994 391 2212 530 
Q 2431 669 2431 922 
Q 2431 1156 2273 1281 
Q 2116 1406 1581 1522 
L 1381 1569 
Q 847 1681 609 1914 
Q 372 2147 372 2553 
Q 372 3047 722 3315 
Q 1072 3584 1716 3584 
Q 2034 3584 2315 3537 
Q 2597 3491 2834 3397 
z
" transform="scale(0.015625)"/>
           <path id="DejaVuSans-29" d="M 513 4856 
L 1013 4856 
Q 1481 4119 1714 3412 
Q 1947 2706 1947 2009 
Q 1947 1309 1714 600 
Q 1481 -109 1013 -844 
L 513 -844 
Q 928 -128 1133 580 
Q 1338 1288 1338 2009 
Q 1338 2731 1133 3434 
Q 928 4138 513 4856 
z
" transform="scale(0.015625)"/>
          </defs>
          <use xlink:href="#DejaVuSans-74"/>
          <use xlink:href="#DejaVuSans-69" x="39.208984"/>
          <use xlink:href="#DejaVuSans-6d" x="66.992188"/>
          <use xlink:href="#DejaVuSans-65" x="164.404297"/>
          <use xlink:href="#DejaVuSans-20" x="225.927734"/>
          <use xlink:href="#DejaVuSans-61" x="257.714844"/>
          <use xlink:href="#DejaVuSans-67" x="318.994141"/>
          <use xlink:href="#DejaVuSans-6f" x="382.470703"/>
          <use xlink:href="#DejaVuSans-20" x="443.652344"/>
          <use xlink:href="#DejaVuSans-28" x="475.439453"/>
          <use xlink:href="#DejaVuSans-67" x="514.453125"/>
          <use xlink:href="#DejaVuSans-65" x="577.929688"/>
          <use xlink:href="#DejaVuSans-6e" x="639.453125"/>
          <use xlink:href="#DejaVuSans-65" x="702.832031"/>
          <use xlink:href="#DejaVuSans-72" x="764.355469"/>
          <use xlink:href="#DejaVuSans-61" x="805.46875"/>
          <use xlink:href="#DejaVuSans-74" x="866.748047"/>
          <use xlink:href="#DejaVuSans-69" x="905.957031"/>
          <use xlink:href="#DejaVuSans-6f" x="933.740234"/>
          <use xlink:href="#DejaVuSans-6e" x="994.921875"/>
          <use xlink:href="#DejaVuSans-73" x="1058.300781"/>
          <use xlink:href="#DejaVuSans-29" x="1110.400391"/>
         </g>
        </g>
       </g>
       <g id="patch_7">
        <path d="M 283.560247 284.816902 
L 282.560247 284.785466 
L 281.560247 284.748525 
L 280.560247 284.650779 
L 279.560247 284.618257 
L 278.560247 284.544633 
L 277.560247 284.506067 
L 276.560247 284.470654 
L 275.560247 284.413014 
L 274.560247 284.342628 
L 273.560247 284.290664 
L 272.560247 284.231574 
L 271.560247 284.143253 
L 270.560247 284.097109 
L 269.560247 284.054698 
L 268.560247 284.024205 
L 267.560247 283.99816 
L 266.560247 283.97696 
L 265.560247 283.922659 
L 264.560247 283.894721 
L 263.560247 283.864997 
L 262.560247 283.839602 
L 261.560247 283.828402 
L 260.560247 283.818278 
L 259.560247 283.818482 
L 258.560247 283.827992 
L 257.560247 283.839646 
L 256.560247 283.870675 
L 255.560247 283.881843 
L 254.560247 283.911961 
L 253.560247 283.971737 
L 252.560247 284.008929 
L 251.560247 284.048025 
L 250.560247 284.090465 
L 249.560247 284.12323 
L 248.560247 284.190656 
L 247.560247 284.229782 
L 246.560247 284.272457 
L 245.560247 284.343037 
L 244.560247 284.379428 
L 243.560247 284.437831 
L 242.560247 284.548784 
L 241.560247 284.619442 
L 240.560247 284.732382 
L 239.560247 284.778155 
L 238.560247 284.839438 
L 237.560247 284.887938 
L 236.560247 284.96876 
L 235.560247 285.087279 
L 234.560247 285.15749 
L 233.560247 285.240752 
L 232.560247 285.273894 
L 231.560247 285.325131 
L 230.560247 285.39353 
L 229.444668 285.459745 
" clip-path="url(#p0dfd67cc6c)" style="fill: none; stroke: #ffffff; stroke-width: 3; stroke-linecap: round"/>
        <path d="M 283.560247 284.816902 
L 282.560247 284.785466 
L 281.560247 284.748525 
L 280.560247 284.650779 
L 279.560247 284.618257 
L 278.560247 284.544633 
L 277.560247 284.506067 
L 276.560247 284.470654 
L 275.560247 284.413014 
L 274.560247 284.342628 
L 273.560247 284.290664 
L 272.560247 284.231574 
L 271.560247 284.143253 
L 270.560247 284.097109 
L 269.560247 284.054698 
L 268.560247 284.024205 
L 267.560247 283.99816 
L 266.560247 283.97696 
L 265.560247 283.922659 
L 264.560247 283.894721 
L 263.560247 283.864997 
L 262.560247 283.839602 
L 261.560247 283.828402 
L 260.560247 283.818278 
L 259.560247 283.818482 
L 258.560247 283.827992 
L 257.560247 283.839646 
L 256.560247 283.870675 
L 255.560247 283.881843 
L 254.560247 283.911961 
L 253.560247 283.971737 
L 252.560247 284.008929 
L 251.560247 284.048025 
L 250.560247 284.090465 
L 249.560247 284.12323 
L 248.560247 284.190656 
L 247.560247 284.229782 
L 246.560247 284.272457 
L 245.560247 284.343037 
L 244.560247 284.379428 
L 243.560247 284.437831 
L 242.560247 284.548784 
L 241.560247 284.619442 
L 240.560247 284.732382 
L 239.560247 284.778155 
L 238.560247 284.839438 
L 237.560247 284.887938 
L 236.560247 284.96876 
L 235.560247 285.087279 
L 234.560247 285.15749 
L 233.560247 285.240752 
L 232.560247 285.273894 
L 231.560247 285.325131 
L 230.560247 285.39353 
L 229.444668 285.459745 
" clip-path="url(#p0dfd67cc6c)" style="fill: none; stroke: #1f77b4; stroke-linecap: round"/>
        <path d="M 233.444668 286.816902 
L 232.5643 286.341571 
L 231.686393 285.861317 
L 230.835679 285.326676 
L 229.533505 284.639229 
L 230.460858 284.613214 
L 231.372532 284.200494 
L 232.282797 283.784955 
L 233.625293 283.178151 
L 232.970394 283.816902 
L 232.91843 284.816902 
L 232.85934 286.816902 
z
" clip-path="url(#p0dfd67cc6c)" style="fill: #ffffff; stroke: #ffffff; stroke-width: 3; stroke-linecap: round"/>
        <path d="M 233.444668 286.816902 
L 232.5643 286.341571 
L 231.686393 285.861317 
L 230.835679 285.326676 
L 229.533505 284.639229 
L 230.460858 284.613214 
L 231.372532 284.200494 
L 232.282797 283.784955 
L 233.625293 283.178151 
L 232.970394 283.816902 
L 232.91843 284.816902 
L 232.85934 286.816902 
z
" clip-path="url(#p0dfd67cc6c)" style="fill: #ffffff; stroke: #1f77b4; stroke-linecap: round"/>
        <g id="patch_8">
         <path d="M 382.302496 74.934059 
L 383.302496 74.965496 
L 384.302496 75.002436 
L 385.302496 75.100183 
L 386.302496 75.132704 
L 387.302496 75.206329 
L 388.302496 75.244895 
L 389.302496 75.280308 
L 390.302496 75.337948 
L 391.302496 75.408334 
L 392.302496 75.460298 
L 393.302496 75.519388 
L 394.302496 75.607709 
L 395.302496 75.653853 
L 396.302496 75.696264 
L 397.302496 75.726757 
L 398.302496 75.752802 
L 399.302496 75.774002 
L 400.302496 75.828303 
L 401.302496 75.85624 
L 402.302496 75.885964 
L 403.302496 75.911359 
L 404.302496 75.92256 
L 405.302496 75.932684 
L 406.302496 75.932479 
L 407.302496 75.922969 
L 408.302496 75.911316 
L 409.302496 75.880287 
L 410.302496 75.869119 
L 411.302496 75.839001 
L 412.302496 75.779224 
L 413.302496 75.742033 
L 414.302496 75.702937 
L 415.302496 75.660497 
L 416.302496 75.627732 
L 417.302496 75.560305 
L 418.302496 75.521179 
L 419.302496 75.478505 
L 420.302496 75.407924 
L 421.302496 75.371533 
L 422.302496 75.31313 
L 423.302496 75.202178 
L 424.302496 75.131519 
L 425.302496 75.01858 
L 426.302496 74.972807 
L 427.302496 74.911523 
L 428.302496 74.863024 
L 429.302496 74.782201 
L 430.302496 74.663682 
L 431.302496 74.593472 
L 432.302496 74.510209 
L 433.302496 74.477068 
L 434.302496 74.42583 
L 435.302496 74.357432 
L 436.302496 74.291216 
L 437.302496 74.214299 
L 438.302496 74.186984 
L 439.302496 74.160506 
L 440.302496 74.137856 
L 441.302496 74.118325 
L 442.302496 74.091931 
L 443.302496 74.04216 
L 444.302496 74.007087 
L 445.302496 73.971221 
L 446.302496 73.955854 
L 447.302496 73.940084 
L 448.302496 73.936672 
L 449.302496 73.934254 
L 450.302496 73.93474 
L 451.302496 73.93667 
L 452.302496 73.949927 
L 453.302496 73.958317 
L 454.302496 73.979854 
L 455.302496 74.002886 
L 456.302496 74.02012 
L 457.302496 74.038582 
L 458.302496 74.059035 
L 459.302496 74.075635 
L 460.302496 74.138413 
L 461.302496 74.213678 
L 462.302496 74.246318 
L 463.302496 74.313881 
L 464.302496 74.367928 
L 465.302496 74.401633 
L 466.302496 74.491759 
L 467.302496 74.520293 
L 468.302496 74.55178 
L 469.302496 74.58279 
L 470.302496 74.637598 
L 471.302496 74.702186 
L 472.302496 74.740381 
L 473.302496 74.836315 
L 474.302496 74.885573 
L 475.302496 74.929643 
L 476.302496 74.969766 
L 477.302496 75.078133 
L 478.302496 75.119762 
L 479.302496 75.181903 
L 480.302496 75.251865 
L 481.302496 75.35637 
L 482.302496 75.393357 
L 483.302496 75.439235 
L 484.302496 75.507729 
L 485.302496 75.556475 
L 486.302496 75.634073 
L 487.302496 75.664613 
L 488.302496 75.734128 
L 489.302496 75.758101 
L 490.302496 75.786722 
L 491.302496 75.828515 
L 492.302496 75.850091 
L 493.302496 75.864039 
L 494.302496 75.890762 
L 495.302496 75.900072 
L 496.302496 75.912518 
L 497.302496 75.923573 
L 498.302496 75.929238 
L 499.302496 75.934001 
L 500.302496 75.928454 
L 501.302496 75.915166 
L 502.302496 75.907648 
L 503.302496 75.882863 
L 504.302496 75.859295 
L 505.302496 75.823114 
L 506.302496 75.797152 
L 507.302496 75.774831 
L 508.302496 75.706071 
L 509.302496 75.631536 
L 510.302496 75.537556 
L 511.302496 75.486504 
L 512.302496 75.432571 
L 513.302496 75.39732 
L 514.302496 75.291232 
L 515.302496 75.238968 
L 516.302496 75.202061 
L 517.302496 75.17103 
L 518.302496 75.109874 
L 519.302496 75.042454 
L 520.302496 74.993549 
L 521.302496 74.928356 
L 522.302496 74.890169 
L 523.302496 74.848173 
L 524.302496 74.806155 
L 525.302496 74.746639 
L 526.302496 74.633479 
L 527.302496 74.581228 
L 528.302496 74.541811 
L 529.302496 74.494709 
L 530.302496 74.43793 
L 531.302496 74.405267 
L 532.302496 74.369089 
L 533.302496 74.336998 
L 534.302496 74.302719 
L 535.302496 74.244341 
L 536.302496 74.199156 
L 537.302496 74.169532 
L 538.302496 74.119146 
L 539.302496 74.093948 
L 540.302496 74.072897 
L 541.302496 74.037929 
L 542.302496 74.013639 
L 543.302496 73.999572 
L 544.302496 73.980631 
L 545.302496 73.964969 
L 546.302496 73.952417 
L 547.302496 73.946582 
L 548.302496 73.939699 
L 549.302496 73.934526 
L 550.302496 73.936308 
L 551.302496 73.939034 
L 552.622235 73.950187 
" clip-path="url(#p0dfd67cc6c)" style="fill: none; stroke: #ffffff; stroke-width: 3; stroke-linecap: round"/>
         <path d="M 382.302496 74.934059 
L 383.302496 74.965496 
L 384.302496 75.002436 
L 385.302496 75.100183 
L 386.302496 75.132704 
L 387.302496 75.206329 
L 388.302496 75.244895 
L 389.302496 75.280308 
L 390.302496 75.337948 
L 391.302496 75.408334 
L 392.302496 75.460298 
L 393.302496 75.519388 
L 394.302496 75.607709 
L 395.302496 75.653853 
L 396.302496 75.696264 
L 397.302496 75.726757 
L 398.302496 75.752802 
L 399.302496 75.774002 
L 400.302496 75.828303 
L 401.302496 75.85624 
L 402.302496 75.885964 
L 403.302496 75.911359 
L 404.302496 75.92256 
L 405.302496 75.932684 
L 406.302496 75.932479 
L 407.302496 75.922969 
L 408.302496 75.911316 
L 409.302496 75.880287 
L 410.302496 75.869119 
L 411.302496 75.839001 
L 412.302496 75.779224 
L 413.302496 75.742033 
L 414.302496 75.702937 
L 415.302496 75.660497 
L 416.302496 75.627732 
L 417.302496 75.560305 
L 418.302496 75.521179 
L 419.302496 75.478505 
L 420.302496 75.407924 
L 421.302496 75.371533 
L 422.302496 75.31313 
L 423.302496 75.202178 
L 424.302496 75.131519 
L 425.302496 75.01858 
L 426.302496 74.972807 
L 427.302496 74.911523 
L 428.302496 74.863024 
L 429.302496 74.782201 
L 430.302496 74.663682 
L 431.302496 74.593472 
L 432.302496 74.510209 
L 433.302496 74.477068 
L 434.302496 74.42583 
L 435.302496 74.357432 
L 436.302496 74.291216 
L 437.302496 74.214299 
L 438.302496 74.186984 
L 439.302496 74.160506 
L 440.302496 74.137856 
L 441.302496 74.118325 
L 442.302496 74.091931 
L 443.302496 74.04216 
L 444.302496 74.007087 
L 445.302496 73.971221 
L 446.302496 73.955854 
L 447.302496 73.940084 
L 448.302496 73.936672 
L 449.302496 73.934254 
L 450.302496 73.93474 
L 451.302496 73.93667 
L 452.302496 73.949927 
L 453.302496 73.958317 
L 454.302496 73.979854 
L 455.302496 74.002886 
L 456.302496 74.02012 
L 457.302496 74.038582 
L 458.302496 74.059035 
L 459.302496 74.075635 
L 460.302496 74.138413 
L 461.302496 74.213678 
L 462.302496 74.246318 
L 463.302496 74.313881 
L 464.302496 74.367928 
L 465.302496 74.401633 
L 466.302496 74.491759 
L 467.302496 74.520293 
L 468.302496 74.55178 
L 469.302496 74.58279 
L 470.302496 74.637598 
L 471.302496 74.702186 
L 472.302496 74.740381 
L 473.302496 74.836315 
L 474.302496 74.885573 
L 475.302496 74.929643 
L 476.302496 74.969766 
L 477.302496 75.078133 
L 478.302496 75.119762 
L 479.302496 75.181903 
L 480.302496 75.251865 
L 481.302496 75.35637 
L 482.302496 75.393357 
L 483.302496 75.439235 
L 484.302496 75.507729 
L 485.302496 75.556475 
L 486.302496 75.634073 
L 487.302496 75.664613 
L 488.302496 75.734128 
L 489.302496 75.758101 
L 490.302496 75.786722 
L 491.302496 75.828515 
L 492.302496 75.850091 
L 493.302496 75.864039 
L 494.302496 75.890762 
L 495.302496 75.900072 
L 496.302496 75.912518 
L 497.302496 75.923573 
L 498.302496 75.929238 
L 499.302496 75.934001 
L 500.302496 75.928454 
L 501.302496 75.915166 
L 502.302496 75.907648 
L 503.302496 75.882863 
L 504.302496 75.859295 
L 505.302496 75.823114 
L 506.302496 75.797152 
L 507.302496 75.774831 
L 508.302496 75.706071 
L 509.302496 75.631536 
L 510.302496 75.537556 
L 511.302496 75.486504 
L 512.302496 75.432571 
L 513.302496 75.39732 
L 514.302496 75.291232 
L 515.302496 75.238968 
L 516.302496 75.202061 
L 517.302496 75.17103 
L 518.302496 75.109874 
L 519.302496 75.042454 
L 520.302496 74.993549 
L 521.302496 74.928356 
L 522.302496 74.890169 
L 523.302496 74.848173 
L 524.302496 74.806155 
L 525.302496 74.746639 
L 526.302496 74.633479 
L 527.302496 74.581228 
L 528.302496 74.541811 
L 529.302496 74.494709 
L 530.302496 74.43793 
L 531.302496 74.405267 
L 532.302496 74.369089 
L 533.302496 74.336998 
L 534.302496 74.302719 
L 535.302496 74.244341 
L 536.302496 74.199156 
L 537.302496 74.169532 
L 538.302496 74.119146 
L 539.302496 74.093948 
L 540.302496 74.072897 
L 541.302496 74.037929 
L 542.302496 74.013639 
L 543.302496 73.999572 
L 544.302496 73.980631 
L 545.302496 73.964969 
L 546.302496 73.952417 
L 547.302496 73.946582 
L 548.302496 73.939699 
L 549.302496 73.934526 
L 550.302496 73.936308 
L 551.302496 73.939034 
L 552.622235 73.950187 
" clip-path="url(#p0dfd67cc6c)" style="fill: none; stroke: #1f77b4; stroke-linecap: round"/>
         <path d="M 548.622235 72.934059 
L 549.502603 73.409391 
L 550.38051 73.889645 
L 551.231224 74.424285 
L 552.533398 75.111733 
L 551.606045 75.137748 
L 550.69437 75.550467 
L 549.784106 75.966006 
L 548.44161 76.572811 
L 549.096509 75.934059 
L 549.148473 74.934059 
L 549.207563 72.934059 
z
" clip-path="url(#p0dfd67cc6c)" style="fill: #ffffff; stroke: #ffffff; stroke-width: 3; stroke-linecap: round"/>
         <path d="M 548.622235 72.934059 
L 549.502603 73.409391 
L 550.38051 73.889645 
L 551.231224 74.424285 
L 552.533398 75.111733 
L 551.606045 75.137748 
L 550.69437 75.550467 
L 549.784106 75.966006 
L 548.44161 76.572811 
L 549.096509 75.934059 
L 549.148473 74.934059 
L 549.207563 72.934059 
z
" clip-path="url(#p0dfd67cc6c)" style="fill: #ffffff; stroke: #1f77b4; stroke-linecap: round"/>
         <g id="patch_9">
          <path d="M 382.302792 284.816902 
L 383.302792 284.848339 
L 384.302792 284.885279 
L 385.302792 284.983026 
L 386.302792 285.015547 
L 387.302792 285.089172 
L 388.302792 285.127737 
L 389.302792 285.163151 
L 390.302792 285.22079 
L 391.302792 285.291177 
L 392.302792 285.343141 
L 393.302792 285.402231 
L 394.302792 285.490552 
L 395.302792 285.536696 
L 396.302792 285.579107 
L 397.302792 285.6096 
L 398.302792 285.635644 
L 399.302792 285.656845 
L 400.302792 285.711146 
L 401.302792 285.739083 
L 402.302792 285.768807 
L 403.302792 285.794202 
L 404.302792 285.805402 
L 405.302792 285.815526 
L 406.302792 285.815322 
L 407.302792 285.805812 
L 408.302792 285.794159 
L 409.302792 285.763129 
L 410.302792 285.751961 
L 411.302792 285.721844 
L 412.302792 285.662067 
L 413.302792 285.624875 
L 414.302792 285.585779 
L 415.302792 285.54334 
L 416.302792 285.510575 
L 417.302792 285.443148 
L 418.302792 285.404022 
L 419.302792 285.361348 
L 420.302792 285.290767 
L 421.302792 285.254376 
L 422.302792 285.195973 
L 423.302792 285.08502 
L 424.302792 285.014362 
L 425.302792 284.901422 
L 426.302792 284.855649 
L 427.302792 284.794366 
L 428.302792 284.745867 
L 429.302792 284.665044 
L 430.302792 284.546525 
L 431.302792 284.476315 
L 432.302792 284.393052 
L 433.302792 284.35991 
L 434.302792 284.308673 
L 435.302792 284.240275 
L 436.302792 284.174059 
L 437.302792 284.097142 
L 438.302792 284.069827 
L 439.302792 284.043349 
L 440.302792 284.020699 
L 441.302792 284.001167 
L 442.302792 283.974773 
L 443.379369 283.925002 
" clip-path="url(#p0dfd67cc6c)" style="fill: none; stroke: #ffffff; stroke-width: 3; stroke-linecap: round"/>
          <path d="M 382.302792 284.816902 
L 383.302792 284.848339 
L 384.302792 284.885279 
L 385.302792 284.983026 
L 386.302792 285.015547 
L 387.302792 285.089172 
L 388.302792 285.127737 
L 389.302792 285.163151 
L 390.302792 285.22079 
L 391.302792 285.291177 
L 392.302792 285.343141 
L 393.302792 285.402231 
L 394.302792 285.490552 
L 395.302792 285.536696 
L 396.302792 285.579107 
L 397.302792 285.6096 
L 398.302792 285.635644 
L 399.302792 285.656845 
L 400.302792 285.711146 
L 401.302792 285.739083 
L 402.302792 285.768807 
L 403.302792 285.794202 
L 404.302792 285.805402 
L 405.302792 285.815526 
L 406.302792 285.815322 
L 407.302792 285.805812 
L 408.302792 285.794159 
L 409.302792 285.763129 
L 410.302792 285.751961 
L 411.302792 285.721844 
L 412.302792 285.662067 
L 413.302792 285.624875 
L 414.302792 285.585779 
L 415.302792 285.54334 
L 416.302792 285.510575 
L 417.302792 285.443148 
L 418.302792 285.404022 
L 419.302792 285.361348 
L 420.302792 285.290767 
L 421.302792 285.254376 
L 422.302792 285.195973 
L 423.302792 285.08502 
L 424.302792 285.014362 
L 425.302792 284.901422 
L 426.302792 284.855649 
L 427.302792 284.794366 
L 428.302792 284.745867 
L 429.302792 284.665044 
L 430.302792 284.546525 
L 431.302792 284.476315 
L 432.302792 284.393052 
L 433.302792 284.35991 
L 434.302792 284.308673 
L 435.302792 284.240275 
L 436.302792 284.174059 
L 437.302792 284.097142 
L 438.302792 284.069827 
L 439.302792 284.043349 
L 440.302792 284.020699 
L 441.302792 284.001167 
L 442.302792 283.974773 
L 443.379369 283.925002 
" clip-path="url(#p0dfd67cc6c)" style="fill: none; stroke: #1f77b4; stroke-linecap: round"/>
          <path d="M 439.379369 282.816902 
L 440.259738 283.292233 
L 441.137645 283.772487 
L 441.988358 284.307128 
L 443.290533 284.994576 
L 442.36318 285.02059 
L 441.451505 285.43331 
L 440.541241 285.848849 
L 439.198745 286.455653 
L 439.853644 285.816902 
L 439.905608 284.816902 
L 439.964698 282.816902 
z
" clip-path="url(#p0dfd67cc6c)" style="fill: #ffffff; stroke: #ffffff; stroke-width: 3; stroke-linecap: round"/>
          <path d="M 439.379369 282.816902 
L 440.259738 283.292233 
L 441.137645 283.772487 
L 441.988358 284.307128 
L 443.290533 284.994576 
L 442.36318 285.02059 
L 441.451505 285.43331 
L 440.541241 285.848849 
L 439.198745 286.455653 
L 439.853644 285.816902 
L 439.905608 284.816902 
L 439.964698 282.816902 
z
" clip-path="url(#p0dfd67cc6c)" style="fill: #ffffff; stroke: #1f77b4; stroke-linecap: round"/>
          <path d="M 459.22405 303.802328 
" clip-path="url(#p0dfd67cc6c)" style="fill: none; stroke-dasharray: 3.7,1.6; stroke-dashoffset: 0; stroke: #2ca02c"/>
          <path d="M 458.22405 303.802328 
L 460.22405 304.802328 
L 460.22405 302.802328 
z
" clip-path="url(#p0dfd67cc6c)" style="fill: #2ca02c; stroke: #2ca02c; stroke-linejoin: miter"/>
          <g id="patch_10">
           <path d="M 63.290625 321.621875 
L 63.290625 13.262106 
" style="fill: none; stroke: #000000; stroke-width: 0.8; stroke-linejoin: miter; stroke-linecap: square"/>
          </g>
          <g id="text_11">
           <g id="patch_11">
            <path d="M 322.27885 155.878566 
L 343.583537 155.878566 
Q 345.583537 155.878566 345.583537 153.878566 
L 345.583537 144.200441 
Q 345.583537 142.200441 343.583537 142.200441 
L 322.27885 142.200441 
Q 320.27885 142.200441 320.27885 144.200441 
L 320.27885 153.878566 
Q 320.27885 155.878566 322.27885 155.878566 
z
" style="fill: #ffffff; opacity: 0.6"/>
           </g>
           <!-- ANC -->
           <g transform="translate(322.27885 151.798879) scale(0.1 -0.1)">
            <defs>
             <path id="DejaVuSans-4e" d="M 628 4666 
L 1478 4666 
L 3547 763 
L 3547 4666 
L 4159 4666 
L 4159 0 
L 3309 0 
L 1241 3903 
L 1241 0 
L 628 0 
L 628 4666 
z
" transform="scale(0.015625)"/>
            </defs>
            <use xlink:href="#DejaVuSans-41"/>
            <use xlink:href="#DejaVuSans-4e" x="68.408203"/>
            <use xlink:href="#DejaVuSans-43" x="143.212891"/>
           </g>
          </g>
         </g>
        </g>
        <defs>
         <clipPath id="p0dfd67cc6c">
          <rect x="63.290625" y="13.262106" width="540.309375" height="308.359769"/>
         </clipPath>
        </defs>
       </g>
      </g>
     </g>
    </g>
   </g>
  </g>
 </g>
</svg>
