<?xml version="1.0" encoding="utf-8" standalone="no"?>
<!DOCTYPE svg PUBLIC "-//W3C//DTD SVG 1.1//EN"
  "http://www.w3.org/Graphics/SVG/1.1/DTD/svg11.dtd">
<svg xmlns:xlink="http://www.w3.org/1999/xlink" width="614.4pt" height="345.6pt" viewBox="0 0 614.4 345.6" xmlns="http://www.w3.org/2000/svg" version="1.1">
 <metadata>
  <rdf:RDF xmlns:dc="http://purl.org/dc/elements/1.1/" xmlns:cc="http://creativecommons.org/ns#" xmlns:rdf="http://www.w3.org/1999/02/22-rdf-syntax-ns#">
   <cc:Work>
    <dc:type rdf:resource="http://purl.org/dc/dcmitype/StillImage"/>
    <dc:date>2024-04-17T19:48:38.074012</dc:date>
    <dc:format>image/svg+xml</dc:format>
    <dc:creator>
     <cc:Agent>
      <dc:title>Matplotlib v3.7.1, https://matplotlib.org/</dc:title>
     </cc:Agent>
    </dc:creator>
   </cc:Work>
  </rdf:RDF>
 </metadata>
 <defs>
  <style type="text/css">*{stroke-linejoin: round; stroke-linecap: butt}</style>
 </defs>
 <g id="figure_1">
  <g id="patch_1">
   <path d="M 0 345.6 
L 614.4 345.6 
L 614.4 0 
L 0 0 
z
" style="fill: #ffffff"/>
  </g>
  <g id="axes_1">
   <g id="patch_2">
    <path d="M 63.290625 321.621875 
L 603.6 321.621875 
L 603.6 12.062309 
L 63.290625 12.062309 
z
" style="fill: #ffffff"/>
   </g>
   <path d="M 547.801887 293.260592 
L 546.801887 293.229156 
L 545.801887 293.192216 
L 544.801887 293.094469 
L 543.801887 293.061948 
L 542.801887 292.988323 
L 541.801887 292.949757 
L 540.801887 292.914344 
L 539.801887 292.856704 
L 538.801887 292.786318 
L 537.801887 292.734354 
L 536.801887 292.675264 
L 535.801887 292.586943 
L 534.801887 292.540799 
L 533.801887 292.498388 
L 532.801887 292.467895 
L 531.801887 292.44185 
L 530.801887 292.42065 
L 529.801887 292.366349 
L 528.801887 292.338411 
L 527.801887 292.308687 
L 526.801887 292.283293 
L 525.801887 292.272092 
L 524.801887 292.261968 
L 523.801887 292.262173 
L 522.801887 292.271683 
L 521.801887 292.283336 
L 520.801887 292.314365 
L 519.801887 292.325533 
L 518.801887 292.355651 
L 517.801887 292.415428 
L 516.801887 292.452619 
L 515.801887 292.491715 
L 514.801887 292.534155 
L 513.801887 292.56692 
L 512.801887 292.634347 
L 511.801887 292.673472 
L 510.801887 292.716147 
L 509.801887 292.786728 
L 508.801887 292.823118 
L 507.801887 292.881522 
L 506.801887 292.992474 
L 505.801887 293.063133 
L 504.801887 293.176072 
L 503.801887 293.221845 
L 502.801887 293.283129 
L 501.801887 293.331628 
L 500.801887 293.412451 
L 499.801887 293.530969 
L 498.801887 293.60118 
L 497.801887 293.684443 
L 496.801887 293.717584 
L 495.801887 293.768822 
L 494.801887 293.83722 
L 493.801887 293.903435 
L 492.801887 293.980352 
L 491.801887 294.007668 
L 490.585001 294.034145 
" clip-path="url(#p6d27bc6fb4)" style="fill: none; stroke-dasharray: 3.7,1.6; stroke-dashoffset: 0; stroke: #2ca02c"/>
   <g id="patch_3">
    <path d="M 264.806975 12.062309 
L 264.806975 191.895836 
M 399.760684 12.062309 
L 399.760684 191.895836 
" clip-path="url(#p6d27bc6fb4)" style="fill: none; stroke: #ffffff; stroke-width: 3; stroke-linejoin: miter"/>
    <path d="M 264.806975 12.062309 
L 264.806975 191.895836 
M 399.760684 12.062309 
L 399.760684 191.895836 
" clip-path="url(#p6d27bc6fb4)" style="fill: none; stroke: #1f77b4; stroke-linejoin: miter"/>
    <g id="PolyCollection_1">
     <path d="M 399.760684 12.062309 
L 264.806975 12.062309 
L 264.806975 191.895836 
L 399.760684 191.895836 
L 399.760684 191.895836 
L 399.760684 12.062309 
z
" clip-path="url(#p6d27bc6fb4)" style="fill: #1f77b4; fill-opacity: 0.5"/>
    </g>
    <g id="patch_4">
     <path d="M 87.850142 191.895836 
L 87.850142 321.621875 
M 225.959165 191.895836 
L 225.959165 321.621875 
" clip-path="url(#p6d27bc6fb4)" style="fill: none; stroke: #ffffff; stroke-width: 3; stroke-linejoin: miter"/>
     <path d="M 87.850142 191.895836 
L 87.850142 321.621875 
M 225.959165 191.895836 
L 225.959165 321.621875 
" clip-path="url(#p6d27bc6fb4)" style="fill: none; stroke: #ff7f0e; stroke-linejoin: miter"/>
     <g id="PolyCollection_2">
      <path d="M 225.959165 191.895836 
L 87.850142 191.895836 
L 87.850142 321.621875 
L 225.959165 321.621875 
L 225.959165 321.621875 
L 225.959165 191.895836 
z
" clip-path="url(#p6d27bc6fb4)" style="fill: #ff7f0e; fill-opacity: 0.5"/>
     </g>
     <g id="patch_5">
      <path d="M 553.204981 73.974222 
L 553.204981 321.621875 
M 579.040483 73.974222 
L 579.040483 321.621875 
" clip-path="url(#p6d27bc6fb4)" style="fill: none; stroke: #ffffff; stroke-width: 3; stroke-linejoin: miter"/>
      <path d="M 553.204981 73.974222 
L 553.204981 321.621875 
M 579.040483 73.974222 
L 579.040483 321.621875 
" clip-path="url(#p6d27bc6fb4)" style="fill: none; stroke: #2ca02c; stroke-linejoin: miter"/>
      <g id="PolyCollection_3">
       <path d="M 579.040483 73.974222 
L 553.204981 73.974222 
L 553.204981 321.621875 
L 579.040483 321.621875 
L 579.040483 321.621875 
L 579.040483 73.974222 
z
" clip-path="url(#p6d27bc6fb4)" style="fill: #2ca02c; fill-opacity: 0.5"/>
      </g>
      <g id="patch_6">
       <path d="M 413.224654 235.664193 
L 413.224654 321.621875 
M 485.181908 235.664193 
L 485.181908 321.621875 
" clip-path="url(#p6d27bc6fb4)" style="fill: none; stroke: #ffffff; stroke-width: 3; stroke-linejoin: miter"/>
       <path d="M 413.224654 235.664193 
L 413.224654 321.621875 
M 485.181908 235.664193 
L 485.181908 321.621875 
" clip-path="url(#p6d27bc6fb4)" style="fill: none; stroke: #d62728; stroke-linejoin: miter"/>
       <g id="PolyCollection_4">
        <path d="M 485.181908 235.664193 
L 413.224654 235.664193 
L 413.224654 321.621875 
L 485.181908 321.621875 
L 485.181908 321.621875 
L 485.181908 235.664193 
z
" clip-path="url(#p6d27bc6fb4)" style="fill: #d62728; fill-opacity: 0.5"/>
       </g>
       <g id="matplotlib.axis_1">
        <g id="xtick_1">
         <g id="line2d_1"/>
         <g id="text_1">
          <!-- OUT -->
          <g transform="translate(146.255435 332.720312) scale(0.1 -0.1)">
           <defs>
            <path id="DejaVuSans-4f" d="M 2522 4238 
Q 1834 4238 1429 3725 
Q 1025 3213 1025 2328 
Q 1025 1447 1429 934 
Q 1834 422 2522 422 
Q 3209 422 3611 934 
Q 4013 1447 4013 2328 
Q 4013 3213 3611 3725 
Q 3209 4238 2522 4238 
z
M 2522 4750 
Q 3503 4750 4090 4092 
Q 4678 3434 4678 2328 
Q 4678 1225 4090 567 
Q 3503 -91 2522 -91 
Q 1538 -91 948 565 
Q 359 1222 359 2328 
Q 359 3434 948 4092 
Q 1538 4750 2522 4750 
z
" transform="scale(0.015625)"/>
            <path id="DejaVuSans-55" d="M 556 4666 
L 1191 4666 
L 1191 1831 
Q 1191 1081 1462 751 
Q 1734 422 2344 422 
Q 2950 422 3222 751 
Q 3494 1081 3494 1831 
L 3494 4666 
L 4128 4666 
L 4128 1753 
Q 4128 841 3676 375 
Q 3225 -91 2344 -91 
Q 1459 -91 1007 375 
Q 556 841 556 1753 
L 556 4666 
z
" transform="scale(0.015625)"/>
            <path id="DejaVuSans-54" d="M -19 4666 
L 3928 4666 
L 3928 4134 
L 2272 4134 
L 2272 0 
L 1638 0 
L 1638 4134 
L -19 4134 
L -19 4666 
z
" transform="scale(0.015625)"/>
           </defs>
           <use xlink:href="#DejaVuSans-4f"/>
           <use xlink:href="#DejaVuSans-55" x="78.710938"/>
           <use xlink:href="#DejaVuSans-54" x="151.904297"/>
          </g>
         </g>
        </g>
        <g id="xtick_2">
         <g id="line2d_2"/>
         <g id="text_2">
          <!-- SRC -->
          <g transform="translate(556.232888 332.720312) scale(0.1 -0.1)">
           <defs>
            <path id="DejaVuSans-53" d="M 3425 4513 
L 3425 3897 
Q 3066 4069 2747 4153 
Q 2428 4238 2131 4238 
Q 1616 4238 1336 4038 
Q 1056 3838 1056 3469 
Q 1056 3159 1242 3001 
Q 1428 2844 1947 2747 
L 2328 2669 
Q 3034 2534 3370 2195 
Q 3706 1856 3706 1288 
Q 3706 609 3251 259 
Q 2797 -91 1919 -91 
Q 1588 -91 1214 -16 
Q 841 59 441 206 
L 441 856 
Q 825 641 1194 531 
Q 1563 422 1919 422 
Q 2459 422 2753 634 
Q 3047 847 3047 1241 
Q 3047 1584 2836 1778 
Q 2625 1972 2144 2069 
L 1759 2144 
Q 1053 2284 737 2584 
Q 422 2884 422 3419 
Q 422 4038 858 4394 
Q 1294 4750 2059 4750 
Q 2388 4750 2728 4690 
Q 3069 4631 3425 4513 
z
" transform="scale(0.015625)"/>
            <path id="DejaVuSans-52" d="M 2841 2188 
Q 3044 2119 3236 1894 
Q 3428 1669 3622 1275 
L 4263 0 
L 3584 0 
L 2988 1197 
Q 2756 1666 2539 1819 
Q 2322 1972 1947 1972 
L 1259 1972 
L 1259 0 
L 628 0 
L 628 4666 
L 2053 4666 
Q 2853 4666 3247 4331 
Q 3641 3997 3641 3322 
Q 3641 2881 3436 2590 
Q 3231 2300 2841 2188 
z
M 1259 4147 
L 1259 2491 
L 2053 2491 
Q 2509 2491 2742 2702 
Q 2975 2913 2975 3322 
Q 2975 3731 2742 3939 
Q 2509 4147 2053 4147 
L 1259 4147 
z
" transform="scale(0.015625)"/>
            <path id="DejaVuSans-43" d="M 4122 4306 
L 4122 3641 
Q 3803 3938 3442 4084 
Q 3081 4231 2675 4231 
Q 1875 4231 1450 3742 
Q 1025 3253 1025 2328 
Q 1025 1406 1450 917 
Q 1875 428 2675 428 
Q 3081 428 3442 575 
Q 3803 722 4122 1019 
L 4122 359 
Q 3791 134 3420 21 
Q 3050 -91 2638 -91 
Q 1578 -91 968 557 
Q 359 1206 359 2328 
Q 359 3453 968 4101 
Q 1578 4750 2638 4750 
Q 3056 4750 3426 4639 
Q 3797 4528 4122 4306 
z
" transform="scale(0.015625)"/>
           </defs>
           <use xlink:href="#DejaVuSans-53"/>
           <use xlink:href="#DejaVuSans-52" x="63.476562"/>
           <use xlink:href="#DejaVuSans-43" x="127.958984"/>
          </g>
         </g>
        </g>
        <g id="xtick_3">
         <g id="line2d_3"/>
         <g id="text_3">
          <!-- TAR -->
          <g transform="translate(439.642344 332.720312) scale(0.1 -0.1)">
           <defs>
            <path id="DejaVuSans-41" d="M 2188 4044 
L 1331 1722 
L 3047 1722 
L 2188 4044 
z
M 1831 4666 
L 2547 4666 
L 4325 0 
L 3669 0 
L 3244 1197 
L 1141 1197 
L 716 0 
L 50 0 
L 1831 4666 
z
" transform="scale(0.015625)"/>
           </defs>
           <use xlink:href="#DejaVuSans-54"/>
           <use xlink:href="#DejaVuSans-41" x="53.333984"/>
           <use xlink:href="#DejaVuSans-52" x="121.742188"/>
          </g>
         </g>
        </g>
       </g>
       <g id="matplotlib.axis_2">
        <g id="ytick_1">
         <g id="line2d_4">
          <defs>
           <path id="m79d0b5e283" d="M 0 0 
L -3.5 0 
" style="stroke: #000000; stroke-width: 0.8"/>
          </defs>
          <g>
           <use xlink:href="#m79d0b5e283" x="63.290625" y="321.621875" style="stroke: #000000; stroke-width: 0.8"/>
          </g>
         </g>
         <g id="text_4">
          <!-- 0 -->
          <g transform="translate(49.928125 325.421094) scale(0.1 -0.1)">
           <defs>
            <path id="DejaVuSans-30" d="M 2034 4250 
Q 1547 4250 1301 3770 
Q 1056 3291 1056 2328 
Q 1056 1369 1301 889 
Q 1547 409 2034 409 
Q 2525 409 2770 889 
Q 3016 1369 3016 2328 
Q 3016 3291 2770 3770 
Q 2525 4250 2034 4250 
z
M 2034 4750 
Q 2819 4750 3233 4129 
Q 3647 3509 3647 2328 
Q 3647 1150 3233 529 
Q 2819 -91 2034 -91 
Q 1250 -91 836 529 
Q 422 1150 422 2328 
Q 422 3509 836 4129 
Q 1250 4750 2034 4750 
z
" transform="scale(0.015625)"/>
           </defs>
           <use xlink:href="#DejaVuSans-30"/>
          </g>
         </g>
        </g>
        <g id="ytick_2">
         <g id="line2d_5">
          <g>
           <use xlink:href="#m79d0b5e283" x="63.290625" y="283.295817" style="stroke: #000000; stroke-width: 0.8"/>
          </g>
         </g>
         <g id="text_5">
          <!-- 2500 -->
          <g transform="translate(30.840625 287.095036) scale(0.1 -0.1)">
           <defs>
            <path id="DejaVuSans-32" d="M 1228 531 
L 3431 531 
L 3431 0 
L 469 0 
L 469 531 
Q 828 903 1448 1529 
Q 2069 2156 2228 2338 
Q 2531 2678 2651 2914 
Q 2772 3150 2772 3378 
Q 2772 3750 2511 3984 
Q 2250 4219 1831 4219 
Q 1534 4219 1204 4116 
Q 875 4013 500 3803 
L 500 4441 
Q 881 4594 1212 4672 
Q 1544 4750 1819 4750 
Q 2544 4750 2975 4387 
Q 3406 4025 3406 3419 
Q 3406 3131 3298 2873 
Q 3191 2616 2906 2266 
Q 2828 2175 2409 1742 
Q 1991 1309 1228 531 
z
" transform="scale(0.015625)"/>
            <path id="DejaVuSans-35" d="M 691 4666 
L 3169 4666 
L 3169 4134 
L 1269 4134 
L 1269 2991 
Q 1406 3038 1543 3061 
Q 1681 3084 1819 3084 
Q 2600 3084 3056 2656 
Q 3513 2228 3513 1497 
Q 3513 744 3044 326 
Q 2575 -91 1722 -91 
Q 1428 -91 1123 -41 
Q 819 9 494 109 
L 494 744 
Q 775 591 1075 516 
Q 1375 441 1709 441 
Q 2250 441 2565 725 
Q 2881 1009 2881 1497 
Q 2881 1984 2565 2268 
Q 2250 2553 1709 2553 
Q 1456 2553 1204 2497 
Q 953 2441 691 2322 
L 691 4666 
z
" transform="scale(0.015625)"/>
           </defs>
           <use xlink:href="#DejaVuSans-32"/>
           <use xlink:href="#DejaVuSans-35" x="63.623047"/>
           <use xlink:href="#DejaVuSans-30" x="127.246094"/>
           <use xlink:href="#DejaVuSans-30" x="190.869141"/>
          </g>
         </g>
        </g>
        <g id="ytick_3">
         <g id="line2d_6">
          <g>
           <use xlink:href="#m79d0b5e283" x="63.290625" y="244.96976" style="stroke: #000000; stroke-width: 0.8"/>
          </g>
         </g>
         <g id="text_6">
          <!-- 5000 -->
          <g transform="translate(30.840625 248.768979) scale(0.1 -0.1)">
           <use xlink:href="#DejaVuSans-35"/>
           <use xlink:href="#DejaVuSans-30" x="63.623047"/>
           <use xlink:href="#DejaVuSans-30" x="127.246094"/>
           <use xlink:href="#DejaVuSans-30" x="190.869141"/>
          </g>
         </g>
        </g>
        <g id="ytick_4">
         <g id="line2d_7">
          <g>
           <use xlink:href="#m79d0b5e283" x="63.290625" y="206.643702" style="stroke: #000000; stroke-width: 0.8"/>
          </g>
         </g>
         <g id="text_7">
          <!-- 7500 -->
          <g transform="translate(30.840625 210.442921) scale(0.1 -0.1)">
           <defs>
            <path id="DejaVuSans-37" d="M 525 4666 
L 3525 4666 
L 3525 4397 
L 1831 0 
L 1172 0 
L 2766 4134 
L 525 4134 
L 525 4666 
z
" transform="scale(0.015625)"/>
           </defs>
           <use xlink:href="#DejaVuSans-37"/>
           <use xlink:href="#DejaVuSans-35" x="63.623047"/>
           <use xlink:href="#DejaVuSans-30" x="127.246094"/>
           <use xlink:href="#DejaVuSans-30" x="190.869141"/>
          </g>
         </g>
        </g>
        <g id="ytick_5">
         <g id="line2d_8">
          <g>
           <use xlink:href="#m79d0b5e283" x="63.290625" y="168.317645" style="stroke: #000000; stroke-width: 0.8"/>
          </g>
         </g>
         <g id="text_8">
          <!-- 10000 -->
          <g transform="translate(24.478125 172.116864) scale(0.1 -0.1)">
           <defs>
            <path id="DejaVuSans-31" d="M 794 531 
L 1825 531 
L 1825 4091 
L 703 3866 
L 703 4441 
L 1819 4666 
L 2450 4666 
L 2450 531 
L 3481 531 
L 3481 0 
L 794 0 
L 794 531 
z
" transform="scale(0.015625)"/>
           </defs>
           <use xlink:href="#DejaVuSans-31"/>
           <use xlink:href="#DejaVuSans-30" x="63.623047"/>
           <use xlink:href="#DejaVuSans-30" x="127.246094"/>
           <use xlink:href="#DejaVuSans-30" x="190.869141"/>
           <use xlink:href="#DejaVuSans-30" x="254.492188"/>
          </g>
         </g>
        </g>
        <g id="ytick_6">
         <g id="line2d_9">
          <g>
           <use xlink:href="#m79d0b5e283" x="63.290625" y="129.991587" style="stroke: #000000; stroke-width: 0.8"/>
          </g>
         </g>
         <g id="text_9">
          <!-- 12500 -->
          <g transform="translate(24.478125 133.790806) scale(0.1 -0.1)">
           <use xlink:href="#DejaVuSans-31"/>
           <use xlink:href="#DejaVuSans-32" x="63.623047"/>
           <use xlink:href="#DejaVuSans-35" x="127.246094"/>
           <use xlink:href="#DejaVuSans-30" x="190.869141"/>
           <use xlink:href="#DejaVuSans-30" x="254.492188"/>
          </g>
         </g>
        </g>
        <g id="ytick_7">
         <g id="line2d_10">
          <g>
           <use xlink:href="#m79d0b5e283" x="63.290625" y="91.66553" style="stroke: #000000; stroke-width: 0.8"/>
          </g>
         </g>
         <g id="text_10">
          <!-- 15000 -->
          <g transform="translate(24.478125 95.464749) scale(0.1 -0.1)">
           <use xlink:href="#DejaVuSans-31"/>
           <use xlink:href="#DejaVuSans-35" x="63.623047"/>
           <use xlink:href="#DejaVuSans-30" x="127.246094"/>
           <use xlink:href="#DejaVuSans-30" x="190.869141"/>
           <use xlink:href="#DejaVuSans-30" x="254.492188"/>
          </g>
         </g>
        </g>
        <g id="ytick_8">
         <g id="line2d_11">
          <g>
           <use xlink:href="#m79d0b5e283" x="63.290625" y="53.339472" style="stroke: #000000; stroke-width: 0.8"/>
          </g>
         </g>
         <g id="text_11">
          <!-- 17500 -->
          <g transform="translate(24.478125 57.138691) scale(0.1 -0.1)">
           <use xlink:href="#DejaVuSans-31"/>
           <use xlink:href="#DejaVuSans-37" x="63.623047"/>
           <use xlink:href="#DejaVuSans-35" x="127.246094"/>
           <use xlink:href="#DejaVuSans-30" x="190.869141"/>
           <use xlink:href="#DejaVuSans-30" x="254.492188"/>
          </g>
         </g>
        </g>
        <g id="ytick_9">
         <g id="line2d_12">
          <g>
           <use xlink:href="#m79d0b5e283" x="63.290625" y="15.013415" style="stroke: #000000; stroke-width: 0.8"/>
          </g>
         </g>
         <g id="text_12">
          <!-- 20000 -->
          <g transform="translate(24.478125 18.812634) scale(0.1 -0.1)">
           <use xlink:href="#DejaVuSans-32"/>
           <use xlink:href="#DejaVuSans-30" x="63.623047"/>
           <use xlink:href="#DejaVuSans-30" x="127.246094"/>
           <use xlink:href="#DejaVuSans-30" x="190.869141"/>
           <use xlink:href="#DejaVuSans-30" x="254.492188"/>
          </g>
         </g>
        </g>
        <g id="text_13">
         <!-- time ago (generations) -->
         <g transform="translate(18.398438 224.313186) rotate(-90) scale(0.1 -0.1)">
          <defs>
           <path id="DejaVuSans-74" d="M 1172 4494 
L 1172 3500 
L 2356 3500 
L 2356 3053 
L 1172 3053 
L 1172 1153 
Q 1172 725 1289 603 
Q 1406 481 1766 481 
L 2356 481 
L 2356 0 
L 1766 0 
Q 1100 0 847 248 
Q 594 497 594 1153 
L 594 3053 
L 172 3053 
L 172 3500 
L 594 3500 
L 594 4494 
L 1172 4494 
z
" transform="scale(0.015625)"/>
           <path id="DejaVuSans-69" d="M 603 3500 
L 1178 3500 
L 1178 0 
L 603 0 
L 603 3500 
z
M 603 4863 
L 1178 4863 
L 1178 4134 
L 603 4134 
L 603 4863 
z
" transform="scale(0.015625)"/>
           <path id="DejaVuSans-6d" d="M 3328 2828 
Q 3544 3216 3844 3400 
Q 4144 3584 4550 3584 
Q 5097 3584 5394 3201 
Q 5691 2819 5691 2113 
L 5691 0 
L 5113 0 
L 5113 2094 
Q 5113 2597 4934 2840 
Q 4756 3084 4391 3084 
Q 3944 3084 3684 2787 
Q 3425 2491 3425 1978 
L 3425 0 
L 2847 0 
L 2847 2094 
Q 2847 2600 2669 2842 
Q 2491 3084 2119 3084 
Q 1678 3084 1418 2786 
Q 1159 2488 1159 1978 
L 1159 0 
L 581 0 
L 581 3500 
L 1159 3500 
L 1159 2956 
Q 1356 3278 1631 3431 
Q 1906 3584 2284 3584 
Q 2666 3584 2933 3390 
Q 3200 3197 3328 2828 
z
" transform="scale(0.015625)"/>
           <path id="DejaVuSans-65" d="M 3597 1894 
L 3597 1613 
L 953 1613 
Q 991 1019 1311 708 
Q 1631 397 2203 397 
Q 2534 397 2845 478 
Q 3156 559 3463 722 
L 3463 178 
Q 3153 47 2828 -22 
Q 2503 -91 2169 -91 
Q 1331 -91 842 396 
Q 353 884 353 1716 
Q 353 2575 817 3079 
Q 1281 3584 2069 3584 
Q 2775 3584 3186 3129 
Q 3597 2675 3597 1894 
z
M 3022 2063 
Q 3016 2534 2758 2815 
Q 2500 3097 2075 3097 
Q 1594 3097 1305 2825 
Q 1016 2553 972 2059 
L 3022 2063 
z
" transform="scale(0.015625)"/>
           <path id="DejaVuSans-20" transform="scale(0.015625)"/>
           <path id="DejaVuSans-61" d="M 2194 1759 
Q 1497 1759 1228 1600 
Q 959 1441 959 1056 
Q 959 750 1161 570 
Q 1363 391 1709 391 
Q 2188 391 2477 730 
Q 2766 1069 2766 1631 
L 2766 1759 
L 2194 1759 
z
M 3341 1997 
L 3341 0 
L 2766 0 
L 2766 531 
Q 2569 213 2275 61 
Q 1981 -91 1556 -91 
Q 1019 -91 701 211 
Q 384 513 384 1019 
Q 384 1609 779 1909 
Q 1175 2209 1959 2209 
L 2766 2209 
L 2766 2266 
Q 2766 2663 2505 2880 
Q 2244 3097 1772 3097 
Q 1472 3097 1187 3025 
Q 903 2953 641 2809 
L 641 3341 
Q 956 3463 1253 3523 
Q 1550 3584 1831 3584 
Q 2591 3584 2966 3190 
Q 3341 2797 3341 1997 
z
" transform="scale(0.015625)"/>
           <path id="DejaVuSans-67" d="M 2906 1791 
Q 2906 2416 2648 2759 
Q 2391 3103 1925 3103 
Q 1463 3103 1205 2759 
Q 947 2416 947 1791 
Q 947 1169 1205 825 
Q 1463 481 1925 481 
Q 2391 481 2648 825 
Q 2906 1169 2906 1791 
z
M 3481 434 
Q 3481 -459 3084 -895 
Q 2688 -1331 1869 -1331 
Q 1566 -1331 1297 -1286 
Q 1028 -1241 775 -1147 
L 775 -588 
Q 1028 -725 1275 -790 
Q 1522 -856 1778 -856 
Q 2344 -856 2625 -561 
Q 2906 -266 2906 331 
L 2906 616 
Q 2728 306 2450 153 
Q 2172 0 1784 0 
Q 1141 0 747 490 
Q 353 981 353 1791 
Q 353 2603 747 3093 
Q 1141 3584 1784 3584 
Q 2172 3584 2450 3431 
Q 2728 3278 2906 2969 
L 2906 3500 
L 3481 3500 
L 3481 434 
z
" transform="scale(0.015625)"/>
           <path id="DejaVuSans-6f" d="M 1959 3097 
Q 1497 3097 1228 2736 
Q 959 2375 959 1747 
Q 959 1119 1226 758 
Q 1494 397 1959 397 
Q 2419 397 2687 759 
Q 2956 1122 2956 1747 
Q 2956 2369 2687 2733 
Q 2419 3097 1959 3097 
z
M 1959 3584 
Q 2709 3584 3137 3096 
Q 3566 2609 3566 1747 
Q 3566 888 3137 398 
Q 2709 -91 1959 -91 
Q 1206 -91 779 398 
Q 353 888 353 1747 
Q 353 2609 779 3096 
Q 1206 3584 1959 3584 
z
" transform="scale(0.015625)"/>
           <path id="DejaVuSans-28" d="M 1984 4856 
Q 1566 4138 1362 3434 
Q 1159 2731 1159 2009 
Q 1159 1288 1364 580 
Q 1569 -128 1984 -844 
L 1484 -844 
Q 1016 -109 783 600 
Q 550 1309 550 2009 
Q 550 2706 781 3412 
Q 1013 4119 1484 4856 
L 1984 4856 
z
" transform="scale(0.015625)"/>
           <path id="DejaVuSans-6e" d="M 3513 2113 
L 3513 0 
L 2938 0 
L 2938 2094 
Q 2938 2591 2744 2837 
Q 2550 3084 2163 3084 
Q 1697 3084 1428 2787 
Q 1159 2491 1159 1978 
L 1159 0 
L 581 0 
L 581 3500 
L 1159 3500 
L 1159 2956 
Q 1366 3272 1645 3428 
Q 1925 3584 2291 3584 
Q 2894 3584 3203 3211 
Q 3513 2838 3513 2113 
z
" transform="scale(0.015625)"/>
           <path id="DejaVuSans-72" d="M 2631 2963 
Q 2534 3019 2420 3045 
Q 2306 3072 2169 3072 
Q 1681 3072 1420 2755 
Q 1159 2438 1159 1844 
L 1159 0 
L 581 0 
L 581 3500 
L 1159 3500 
L 1159 2956 
Q 1341 3275 1631 3429 
Q 1922 3584 2338 3584 
Q 2397 3584 2469 3576 
Q 2541 3569 2628 3553 
L 2631 2963 
z
" transform="scale(0.015625)"/>
           <path id="DejaVuSans-73" d="M 2834 3397 
L 2834 2853 
Q 2591 2978 2328 3040 
Q 2066 3103 1784 3103 
Q 1356 3103 1142 2972 
Q 928 2841 928 2578 
Q 928 2378 1081 2264 
Q 1234 2150 1697 2047 
L 1894 2003 
Q 2506 1872 2764 1633 
Q 3022 1394 3022 966 
Q 3022 478 2636 193 
Q 2250 -91 1575 -91 
Q 1294 -91 989 -36 
Q 684 19 347 128 
L 347 722 
Q 666 556 975 473 
Q 1284 391 1588 391 
Q 1994 391 2212 530 
Q 2431 669 2431 922 
Q 2431 1156 2273 1281 
Q 2116 1406 1581 1522 
L 1381 1569 
Q 847 1681 609 1914 
Q 372 2147 372 2553 
Q 372 3047 722 3315 
Q 1072 3584 1716 3584 
Q 2034 3584 2315 3537 
Q 2597 3491 2834 3397 
z
" transform="scale(0.015625)"/>
           <path id="DejaVuSans-29" d="M 513 4856 
L 1013 4856 
Q 1481 4119 1714 3412 
Q 1947 2706 1947 2009 
Q 1947 1309 1714 600 
Q 1481 -109 1013 -844 
L 513 -844 
Q 928 -128 1133 580 
Q 1338 1288 1338 2009 
Q 1338 2731 1133 3434 
Q 928 4138 513 4856 
z
" transform="scale(0.015625)"/>
          </defs>
          <use xlink:href="#DejaVuSans-74"/>
          <use xlink:href="#DejaVuSans-69" x="39.208984"/>
          <use xlink:href="#DejaVuSans-6d" x="66.992188"/>
          <use xlink:href="#DejaVuSans-65" x="164.404297"/>
          <use xlink:href="#DejaVuSans-20" x="225.927734"/>
          <use xlink:href="#DejaVuSans-61" x="257.714844"/>
          <use xlink:href="#DejaVuSans-67" x="318.994141"/>
          <use xlink:href="#DejaVuSans-6f" x="382.470703"/>
          <use xlink:href="#DejaVuSans-20" x="443.652344"/>
          <use xlink:href="#DejaVuSans-28" x="475.439453"/>
          <use xlink:href="#DejaVuSans-67" x="514.453125"/>
          <use xlink:href="#DejaVuSans-65" x="577.929688"/>
          <use xlink:href="#DejaVuSans-6e" x="639.453125"/>
          <use xlink:href="#DejaVuSans-65" x="702.832031"/>
          <use xlink:href="#DejaVuSans-72" x="764.355469"/>
          <use xlink:href="#DejaVuSans-61" x="805.46875"/>
          <use xlink:href="#DejaVuSans-74" x="866.748047"/>
          <use xlink:href="#DejaVuSans-69" x="905.957031"/>
          <use xlink:href="#DejaVuSans-6f" x="933.740234"/>
          <use xlink:href="#DejaVuSans-6e" x="994.921875"/>
          <use xlink:href="#DejaVuSans-73" x="1058.300781"/>
          <use xlink:href="#DejaVuSans-29" x="1110.400391"/>
         </g>
        </g>
       </g>
       <g id="patch_7">
        <path d="M 262.810524 191.895836 
L 261.810524 191.864399 
L 260.810524 191.827459 
L 259.810524 191.729712 
L 258.810524 191.697191 
L 257.810524 191.623566 
L 256.810524 191.585 
L 255.810524 191.549587 
L 254.810524 191.491947 
L 253.810524 191.421561 
L 252.810524 191.369597 
L 251.810524 191.310507 
L 250.810524 191.222186 
L 249.810524 191.176042 
L 248.810524 191.133631 
L 247.810524 191.103138 
L 246.810524 191.077093 
L 245.810524 191.055893 
L 244.810524 191.001592 
L 243.810524 190.973655 
L 242.810524 190.943931 
L 241.810524 190.918536 
L 240.810524 190.907335 
L 239.810524 190.897211 
L 238.810524 190.897416 
L 237.810524 190.906926 
L 236.810524 190.918579 
L 235.810524 190.949608 
L 234.810524 190.960776 
L 233.810524 190.990894 
L 232.810524 191.050671 
L 231.810524 191.087862 
L 230.810524 191.126958 
L 229.079012 191.169398 
" clip-path="url(#p6d27bc6fb4)" style="fill: none; stroke: #ffffff; stroke-width: 3; stroke-linecap: round"/>
        <path d="M 262.810524 191.895836 
L 261.810524 191.864399 
L 260.810524 191.827459 
L 259.810524 191.729712 
L 258.810524 191.697191 
L 257.810524 191.623566 
L 256.810524 191.585 
L 255.810524 191.549587 
L 254.810524 191.491947 
L 253.810524 191.421561 
L 252.810524 191.369597 
L 251.810524 191.310507 
L 250.810524 191.222186 
L 249.810524 191.176042 
L 248.810524 191.133631 
L 247.810524 191.103138 
L 246.810524 191.077093 
L 245.810524 191.055893 
L 244.810524 191.001592 
L 243.810524 190.973655 
L 242.810524 190.943931 
L 241.810524 190.918536 
L 240.810524 190.907335 
L 239.810524 190.897211 
L 238.810524 190.897416 
L 237.810524 190.906926 
L 236.810524 190.918579 
L 235.810524 190.949608 
L 234.810524 190.960776 
L 233.810524 190.990894 
L 232.810524 191.050671 
L 231.810524 191.087862 
L 230.810524 191.126958 
L 229.079012 191.169398 
" clip-path="url(#p6d27bc6fb4)" style="fill: none; stroke: #1f77b4; stroke-linecap: round"/>
        <path d="M 233.079012 193.895836 
L 232.198644 193.420504 
L 231.320737 192.94025 
L 230.470023 192.40561 
L 229.167849 191.718162 
L 230.095202 191.692147 
L 231.006876 191.279428 
L 231.91714 190.863889 
L 233.259636 190.257084 
L 232.604737 190.895836 
L 232.552773 191.895836 
L 232.493683 193.895836 
z
" clip-path="url(#p6d27bc6fb4)" style="fill: #ffffff; stroke: #ffffff; stroke-width: 3; stroke-linecap: round"/>
        <path d="M 233.079012 193.895836 
L 232.198644 193.420504 
L 231.320737 192.94025 
L 230.470023 192.40561 
L 229.167849 191.718162 
L 230.095202 191.692147 
L 231.006876 191.279428 
L 231.91714 190.863889 
L 233.259636 190.257084 
L 232.604737 190.895836 
L 232.552773 191.895836 
L 232.493683 193.895836 
z
" clip-path="url(#p6d27bc6fb4)" style="fill: #ffffff; stroke: #1f77b4; stroke-linecap: round"/>
        <g id="patch_8">
         <path d="M 401.760218 73.974222 
L 402.760218 74.005658 
L 403.760218 74.042599 
L 404.760218 74.140345 
L 405.760218 74.172867 
L 406.760218 74.246491 
L 407.760218 74.285057 
L 408.760218 74.32047 
L 409.760218 74.37811 
L 410.760218 74.448496 
L 411.760218 74.50046 
L 412.760218 74.55955 
L 413.760218 74.647871 
L 414.760218 74.694015 
L 415.760218 74.736426 
L 416.760218 74.766919 
L 417.760218 74.792964 
L 418.760218 74.814164 
L 419.760218 74.868465 
L 420.760218 74.896403 
L 421.760218 74.926127 
L 422.760218 74.951522 
L 423.760218 74.962722 
L 424.760218 74.972846 
L 425.760218 74.972642 
L 426.760218 74.963132 
L 427.760218 74.951478 
L 428.760218 74.920449 
L 429.760218 74.909281 
L 430.760218 74.879163 
L 431.760218 74.819386 
L 432.760218 74.782195 
L 433.760218 74.743099 
L 434.760218 74.700659 
L 435.760218 74.667894 
L 436.760218 74.600468 
L 437.760218 74.561342 
L 438.760218 74.518667 
L 439.760218 74.448087 
L 440.760218 74.411696 
L 441.760218 74.353293 
L 442.760218 74.24234 
L 443.760218 74.171682 
L 444.760218 74.058742 
L 445.760218 74.012969 
L 446.760218 73.951686 
L 447.760218 73.903186 
L 448.760218 73.822364 
L 449.760218 73.703845 
L 450.760218 73.633634 
L 451.760218 73.550372 
L 452.760218 73.51723 
L 453.760218 73.465993 
L 454.760218 73.397594 
L 455.760218 73.331379 
L 456.760218 73.254462 
L 457.760218 73.227146 
L 458.760218 73.200669 
L 459.760218 73.178018 
L 460.760218 73.158487 
L 461.760218 73.132093 
L 462.760218 73.082322 
L 463.760218 73.047249 
L 464.760218 73.011383 
L 465.760218 72.996016 
L 466.760218 72.980247 
L 467.760218 72.976834 
L 468.760218 72.974416 
L 469.760218 72.974903 
L 470.760218 72.976832 
L 471.760218 72.990089 
L 472.760218 72.998479 
L 473.760218 73.020016 
L 474.760218 73.043048 
L 475.760218 73.060282 
L 476.760218 73.078744 
L 477.760218 73.099197 
L 478.760218 73.115797 
L 479.760218 73.178576 
L 480.760218 73.253841 
L 481.760218 73.28648 
L 482.760218 73.354043 
L 483.760218 73.40809 
L 484.760218 73.441795 
L 485.760218 73.531921 
L 486.760218 73.560456 
L 487.760218 73.591942 
L 488.760218 73.622953 
L 489.760218 73.677761 
L 490.760218 73.742348 
L 491.760218 73.780543 
L 492.760218 73.876478 
L 493.760218 73.925736 
L 494.760218 73.969805 
L 495.760218 74.009929 
L 496.760218 74.118296 
L 497.760218 74.159924 
L 498.760218 74.222065 
L 499.760218 74.292028 
L 500.760218 74.396532 
L 501.760218 74.43352 
L 502.760218 74.479397 
L 503.760218 74.547891 
L 504.760218 74.596637 
L 505.760218 74.674235 
L 506.760218 74.704775 
L 507.760218 74.77429 
L 508.760218 74.798263 
L 509.760218 74.826885 
L 510.760218 74.868678 
L 511.760218 74.890254 
L 512.760218 74.904201 
L 513.760218 74.930924 
L 514.760218 74.940234 
L 515.760218 74.95268 
L 516.760218 74.963735 
L 517.760218 74.9694 
L 518.760218 74.974164 
L 519.760218 74.968616 
L 520.760218 74.955328 
L 521.760218 74.94781 
L 522.760218 74.923026 
L 523.760218 74.899457 
L 524.760218 74.863276 
L 525.760218 74.837315 
L 526.760218 74.814993 
L 527.760218 74.746233 
L 528.760218 74.671698 
L 529.760218 74.577719 
L 530.760218 74.526667 
L 531.760218 74.472733 
L 532.760218 74.437482 
L 533.760218 74.331394 
L 534.760218 74.27913 
L 535.760218 74.242223 
L 536.760218 74.211192 
L 537.760218 74.150037 
L 538.760218 74.082617 
L 539.760218 74.033711 
L 540.760218 73.968519 
L 541.760218 73.930331 
L 542.760218 73.888335 
L 543.760218 73.846318 
L 544.760218 73.786801 
L 545.760218 73.673642 
L 546.760218 73.621391 
L 547.760218 73.581973 
L 548.760218 73.534872 
L 550.085739 73.478092 
" clip-path="url(#p6d27bc6fb4)" style="fill: none; stroke: #ffffff; stroke-width: 3; stroke-linecap: round"/>
         <path d="M 401.760218 73.974222 
L 402.760218 74.005658 
L 403.760218 74.042599 
L 404.760218 74.140345 
L 405.760218 74.172867 
L 406.760218 74.246491 
L 407.760218 74.285057 
L 408.760218 74.32047 
L 409.760218 74.37811 
L 410.760218 74.448496 
L 411.760218 74.50046 
L 412.760218 74.55955 
L 413.760218 74.647871 
L 414.760218 74.694015 
L 415.760218 74.736426 
L 416.760218 74.766919 
L 417.760218 74.792964 
L 418.760218 74.814164 
L 419.760218 74.868465 
L 420.760218 74.896403 
L 421.760218 74.926127 
L 422.760218 74.951522 
L 423.760218 74.962722 
L 424.760218 74.972846 
L 425.760218 74.972642 
L 426.760218 74.963132 
L 427.760218 74.951478 
L 428.760218 74.920449 
L 429.760218 74.909281 
L 430.760218 74.879163 
L 431.760218 74.819386 
L 432.760218 74.782195 
L 433.760218 74.743099 
L 434.760218 74.700659 
L 435.760218 74.667894 
L 436.760218 74.600468 
L 437.760218 74.561342 
L 438.760218 74.518667 
L 439.760218 74.448087 
L 440.760218 74.411696 
L 441.760218 74.353293 
L 442.760218 74.24234 
L 443.760218 74.171682 
L 444.760218 74.058742 
L 445.760218 74.012969 
L 446.760218 73.951686 
L 447.760218 73.903186 
L 448.760218 73.822364 
L 449.760218 73.703845 
L 450.760218 73.633634 
L 451.760218 73.550372 
L 452.760218 73.51723 
L 453.760218 73.465993 
L 454.760218 73.397594 
L 455.760218 73.331379 
L 456.760218 73.254462 
L 457.760218 73.227146 
L 458.760218 73.200669 
L 459.760218 73.178018 
L 460.760218 73.158487 
L 461.760218 73.132093 
L 462.760218 73.082322 
L 463.760218 73.047249 
L 464.760218 73.011383 
L 465.760218 72.996016 
L 466.760218 72.980247 
L 467.760218 72.976834 
L 468.760218 72.974416 
L 469.760218 72.974903 
L 470.760218 72.976832 
L 471.760218 72.990089 
L 472.760218 72.998479 
L 473.760218 73.020016 
L 474.760218 73.043048 
L 475.760218 73.060282 
L 476.760218 73.078744 
L 477.760218 73.099197 
L 478.760218 73.115797 
L 479.760218 73.178576 
L 480.760218 73.253841 
L 481.760218 73.28648 
L 482.760218 73.354043 
L 483.760218 73.40809 
L 484.760218 73.441795 
L 485.760218 73.531921 
L 486.760218 73.560456 
L 487.760218 73.591942 
L 488.760218 73.622953 
L 489.760218 73.677761 
L 490.760218 73.742348 
L 491.760218 73.780543 
L 492.760218 73.876478 
L 493.760218 73.925736 
L 494.760218 73.969805 
L 495.760218 74.009929 
L 496.760218 74.118296 
L 497.760218 74.159924 
L 498.760218 74.222065 
L 499.760218 74.292028 
L 500.760218 74.396532 
L 501.760218 74.43352 
L 502.760218 74.479397 
L 503.760218 74.547891 
L 504.760218 74.596637 
L 505.760218 74.674235 
L 506.760218 74.704775 
L 507.760218 74.77429 
L 508.760218 74.798263 
L 509.760218 74.826885 
L 510.760218 74.868678 
L 511.760218 74.890254 
L 512.760218 74.904201 
L 513.760218 74.930924 
L 514.760218 74.940234 
L 515.760218 74.95268 
L 516.760218 74.963735 
L 517.760218 74.9694 
L 518.760218 74.974164 
L 519.760218 74.968616 
L 520.760218 74.955328 
L 521.760218 74.94781 
L 522.760218 74.923026 
L 523.760218 74.899457 
L 524.760218 74.863276 
L 525.760218 74.837315 
L 526.760218 74.814993 
L 527.760218 74.746233 
L 528.760218 74.671698 
L 529.760218 74.577719 
L 530.760218 74.526667 
L 531.760218 74.472733 
L 532.760218 74.437482 
L 533.760218 74.331394 
L 534.760218 74.27913 
L 535.760218 74.242223 
L 536.760218 74.211192 
L 537.760218 74.150037 
L 538.760218 74.082617 
L 539.760218 74.033711 
L 540.760218 73.968519 
L 541.760218 73.930331 
L 542.760218 73.888335 
L 543.760218 73.846318 
L 544.760218 73.786801 
L 545.760218 73.673642 
L 546.760218 73.621391 
L 547.760218 73.581973 
L 548.760218 73.534872 
L 550.085739 73.478092 
" clip-path="url(#p6d27bc6fb4)" style="fill: none; stroke: #1f77b4; stroke-linecap: round"/>
         <path d="M 546.085739 71.974222 
L 546.966108 72.449553 
L 547.844015 72.929807 
L 548.694728 73.464448 
L 549.996903 74.151895 
L 549.069549 74.17791 
L 548.157875 74.59063 
L 547.247611 75.006169 
L 545.905115 75.612973 
L 546.560014 74.974222 
L 546.611978 73.974222 
L 546.671068 71.974222 
z
" clip-path="url(#p6d27bc6fb4)" style="fill: #ffffff; stroke: #ffffff; stroke-width: 3; stroke-linecap: round"/>
         <path d="M 546.085739 71.974222 
L 546.966108 72.449553 
L 547.844015 72.929807 
L 548.694728 73.464448 
L 549.996903 74.151895 
L 549.069549 74.17791 
L 548.157875 74.59063 
L 547.247611 75.006169 
L 545.905115 75.612973 
L 546.560014 74.974222 
L 546.611978 73.974222 
L 546.671068 71.974222 
z
" clip-path="url(#p6d27bc6fb4)" style="fill: #ffffff; stroke: #1f77b4; stroke-linecap: round"/>
         <g id="patch_9">
          <path d="M 227.956518 235.664193 
L 228.956518 235.69563 
L 229.956518 235.73257 
L 230.956518 235.830317 
L 231.956518 235.862838 
L 232.956518 235.936463 
L 233.956518 235.975028 
L 234.956518 236.010442 
L 235.956518 236.068082 
L 236.956518 236.138468 
L 237.956518 236.190432 
L 238.956518 236.249522 
L 239.956518 236.337843 
L 240.956518 236.383987 
L 241.956518 236.426398 
L 242.956518 236.456891 
L 243.956518 236.482936 
L 244.956518 236.504136 
L 245.956518 236.558437 
L 246.956518 236.586374 
L 247.956518 236.616098 
L 248.956518 236.641493 
L 249.956518 236.652693 
L 250.956518 236.662817 
L 251.956518 236.662613 
L 252.956518 236.653103 
L 253.956518 236.64145 
L 254.956518 236.61042 
L 255.956518 236.599252 
L 256.956518 236.569135 
L 257.956518 236.509358 
L 258.956518 236.472166 
L 259.956518 236.43307 
L 260.956518 236.390631 
L 261.956518 236.357866 
L 262.956518 236.290439 
L 263.956518 236.251313 
L 264.956518 236.208639 
L 265.956518 236.138058 
L 266.956518 236.101667 
L 267.956518 236.043264 
L 268.956518 235.932311 
L 269.956518 235.861653 
L 270.956518 235.748713 
L 271.956518 235.70294 
L 272.956518 235.641657 
L 273.956518 235.593158 
L 274.956518 235.512335 
L 275.956518 235.393816 
L 276.956518 235.323606 
L 277.956518 235.240343 
L 278.956518 235.207201 
L 279.956518 235.155964 
L 280.956518 235.087566 
L 281.956518 235.02135 
L 282.956518 234.944433 
L 283.956518 234.917118 
L 284.956518 234.89064 
L 285.956518 234.86799 
L 286.956518 234.848458 
L 287.956518 234.822064 
L 288.956518 234.772293 
L 289.956518 234.73722 
L 290.956518 234.701355 
L 291.956518 234.685987 
L 292.956518 234.670218 
L 293.956518 234.666806 
L 294.956518 234.664388 
L 295.956518 234.664874 
L 296.956518 234.666803 
L 297.956518 234.68006 
L 298.956518 234.688451 
L 299.956518 234.709988 
L 300.956518 234.73302 
L 301.956518 234.750254 
L 302.956518 234.768716 
L 303.956518 234.789169 
L 304.956518 234.805768 
L 305.956518 234.868547 
L 306.956518 234.943812 
L 307.956518 234.976451 
L 308.956518 235.044015 
L 309.956518 235.098062 
L 310.956518 235.131766 
L 311.956518 235.221892 
L 312.956518 235.250427 
L 313.956518 235.281913 
L 314.956518 235.312924 
L 315.956518 235.367732 
L 316.956518 235.43232 
L 317.956518 235.470515 
L 318.956518 235.566449 
L 319.956518 235.615707 
L 320.956518 235.659777 
L 321.956518 235.6999 
L 322.956518 235.808267 
L 323.956518 235.849895 
L 324.956518 235.912037 
L 325.956518 235.981999 
L 326.956518 236.086504 
L 327.956518 236.123491 
L 328.956518 236.169368 
L 329.956518 236.237863 
L 330.956518 236.286609 
L 331.956518 236.364206 
L 332.956518 236.394747 
L 333.956518 236.464262 
L 334.956518 236.488234 
L 335.956518 236.516856 
L 336.956518 236.558649 
L 337.956518 236.580225 
L 338.956518 236.594173 
L 339.956518 236.620896 
L 340.956518 236.630205 
L 341.956518 236.642652 
L 342.956518 236.653707 
L 343.956518 236.659372 
L 344.956518 236.664135 
L 345.956518 236.658588 
L 346.956518 236.6453 
L 347.956518 236.637782 
L 348.956518 236.612997 
L 349.956518 236.589429 
L 350.956518 236.553248 
L 351.956518 236.527286 
L 352.956518 236.504965 
L 353.956518 236.436204 
L 354.956518 236.361669 
L 355.956518 236.26769 
L 356.956518 236.216638 
L 357.956518 236.162704 
L 358.956518 236.127453 
L 359.956518 236.021365 
L 360.956518 235.969101 
L 361.956518 235.932195 
L 362.956518 235.901164 
L 363.956518 235.840008 
L 364.956518 235.772588 
L 365.956518 235.723682 
L 366.956518 235.65849 
L 367.956518 235.620303 
L 368.956518 235.578307 
L 369.956518 235.536289 
L 370.956518 235.476773 
L 371.956518 235.363613 
L 372.956518 235.311362 
L 373.956518 235.271945 
L 374.956518 235.224843 
L 375.956518 235.168064 
L 376.956518 235.135401 
L 377.956518 235.099223 
L 378.956518 235.067132 
L 379.956518 235.032852 
L 380.956518 234.974474 
L 381.956518 234.929289 
L 382.956518 234.899665 
L 383.956518 234.84928 
L 384.956518 234.824082 
L 385.956518 234.803031 
L 386.956518 234.768063 
L 387.956518 234.743773 
L 388.956518 234.729706 
L 389.956518 234.710764 
L 390.956518 234.695103 
L 391.956518 234.682551 
L 392.956518 234.676715 
L 393.956518 234.669833 
L 394.956518 234.664659 
L 395.956518 234.666442 
L 396.956518 234.669168 
L 397.956518 234.680321 
L 398.956518 234.708556 
L 399.956518 234.752344 
L 400.956518 234.773033 
L 401.956518 234.814007 
L 402.956518 234.854082 
L 403.956518 234.873191 
L 404.956518 234.8957 
L 405.956518 234.962352 
L 406.956518 235.012061 
L 407.956518 235.085768 
L 408.956518 235.117081 
L 410.107954 235.193703 
" clip-path="url(#p6d27bc6fb4)" style="fill: none; stroke: #ffffff; stroke-width: 3; stroke-linecap: round"/>
          <path d="M 227.956518 235.664193 
L 228.956518 235.69563 
L 229.956518 235.73257 
L 230.956518 235.830317 
L 231.956518 235.862838 
L 232.956518 235.936463 
L 233.956518 235.975028 
L 234.956518 236.010442 
L 235.956518 236.068082 
L 236.956518 236.138468 
L 237.956518 236.190432 
L 238.956518 236.249522 
L 239.956518 236.337843 
L 240.956518 236.383987 
L 241.956518 236.426398 
L 242.956518 236.456891 
L 243.956518 236.482936 
L 244.956518 236.504136 
L 245.956518 236.558437 
L 246.956518 236.586374 
L 247.956518 236.616098 
L 248.956518 236.641493 
L 249.956518 236.652693 
L 250.956518 236.662817 
L 251.956518 236.662613 
L 252.956518 236.653103 
L 253.956518 236.64145 
L 254.956518 236.61042 
L 255.956518 236.599252 
L 256.956518 236.569135 
L 257.956518 236.509358 
L 258.956518 236.472166 
L 259.956518 236.43307 
L 260.956518 236.390631 
L 261.956518 236.357866 
L 262.956518 236.290439 
L 263.956518 236.251313 
L 264.956518 236.208639 
L 265.956518 236.138058 
L 266.956518 236.101667 
L 267.956518 236.043264 
L 268.956518 235.932311 
L 269.956518 235.861653 
L 270.956518 235.748713 
L 271.956518 235.70294 
L 272.956518 235.641657 
L 273.956518 235.593158 
L 274.956518 235.512335 
L 275.956518 235.393816 
L 276.956518 235.323606 
L 277.956518 235.240343 
L 278.956518 235.207201 
L 279.956518 235.155964 
L 280.956518 235.087566 
L 281.956518 235.02135 
L 282.956518 234.944433 
L 283.956518 234.917118 
L 284.956518 234.89064 
L 285.956518 234.86799 
L 286.956518 234.848458 
L 287.956518 234.822064 
L 288.956518 234.772293 
L 289.956518 234.73722 
L 290.956518 234.701355 
L 291.956518 234.685987 
L 292.956518 234.670218 
L 293.956518 234.666806 
L 294.956518 234.664388 
L 295.956518 234.664874 
L 296.956518 234.666803 
L 297.956518 234.68006 
L 298.956518 234.688451 
L 299.956518 234.709988 
L 300.956518 234.73302 
L 301.956518 234.750254 
L 302.956518 234.768716 
L 303.956518 234.789169 
L 304.956518 234.805768 
L 305.956518 234.868547 
L 306.956518 234.943812 
L 307.956518 234.976451 
L 308.956518 235.044015 
L 309.956518 235.098062 
L 310.956518 235.131766 
L 311.956518 235.221892 
L 312.956518 235.250427 
L 313.956518 235.281913 
L 314.956518 235.312924 
L 315.956518 235.367732 
L 316.956518 235.43232 
L 317.956518 235.470515 
L 318.956518 235.566449 
L 319.956518 235.615707 
L 320.956518 235.659777 
L 321.956518 235.6999 
L 322.956518 235.808267 
L 323.956518 235.849895 
L 324.956518 235.912037 
L 325.956518 235.981999 
L 326.956518 236.086504 
L 327.956518 236.123491 
L 328.956518 236.169368 
L 329.956518 236.237863 
L 330.956518 236.286609 
L 331.956518 236.364206 
L 332.956518 236.394747 
L 333.956518 236.464262 
L 334.956518 236.488234 
L 335.956518 236.516856 
L 336.956518 236.558649 
L 337.956518 236.580225 
L 338.956518 236.594173 
L 339.956518 236.620896 
L 340.956518 236.630205 
L 341.956518 236.642652 
L 342.956518 236.653707 
L 343.956518 236.659372 
L 344.956518 236.664135 
L 345.956518 236.658588 
L 346.956518 236.6453 
L 347.956518 236.637782 
L 348.956518 236.612997 
L 349.956518 236.589429 
L 350.956518 236.553248 
L 351.956518 236.527286 
L 352.956518 236.504965 
L 353.956518 236.436204 
L 354.956518 236.361669 
L 355.956518 236.26769 
L 356.956518 236.216638 
L 357.956518 236.162704 
L 358.956518 236.127453 
L 359.956518 236.021365 
L 360.956518 235.969101 
L 361.956518 235.932195 
L 362.956518 235.901164 
L 363.956518 235.840008 
L 364.956518 235.772588 
L 365.956518 235.723682 
L 366.956518 235.65849 
L 367.956518 235.620303 
L 368.956518 235.578307 
L 369.956518 235.536289 
L 370.956518 235.476773 
L 371.956518 235.363613 
L 372.956518 235.311362 
L 373.956518 235.271945 
L 374.956518 235.224843 
L 375.956518 235.168064 
L 376.956518 235.135401 
L 377.956518 235.099223 
L 378.956518 235.067132 
L 379.956518 235.032852 
L 380.956518 234.974474 
L 381.956518 234.929289 
L 382.956518 234.899665 
L 383.956518 234.84928 
L 384.956518 234.824082 
L 385.956518 234.803031 
L 386.956518 234.768063 
L 387.956518 234.743773 
L 388.956518 234.729706 
L 389.956518 234.710764 
L 390.956518 234.695103 
L 391.956518 234.682551 
L 392.956518 234.676715 
L 393.956518 234.669833 
L 394.956518 234.664659 
L 395.956518 234.666442 
L 396.956518 234.669168 
L 397.956518 234.680321 
L 398.956518 234.708556 
L 399.956518 234.752344 
L 400.956518 234.773033 
L 401.956518 234.814007 
L 402.956518 234.854082 
L 403.956518 234.873191 
L 404.956518 234.8957 
L 405.956518 234.962352 
L 406.956518 235.012061 
L 407.956518 235.085768 
L 408.956518 235.117081 
L 410.107954 235.193703 
" clip-path="url(#p6d27bc6fb4)" style="fill: none; stroke: #ff7f0e; stroke-linecap: round"/>
          <path d="M 406.107954 233.664193 
L 406.988323 234.139524 
L 407.86623 234.619778 
L 408.716943 235.154419 
L 410.019118 235.841867 
L 409.091765 235.867882 
L 408.18009 236.280601 
L 407.269826 236.69614 
L 405.92733 237.302945 
L 406.582229 236.664193 
L 406.634193 235.664193 
L 406.693283 233.664193 
z
" clip-path="url(#p6d27bc6fb4)" style="fill: #ffffff; stroke: #ffffff; stroke-width: 3; stroke-linecap: round"/>
          <path d="M 406.107954 233.664193 
L 406.988323 234.139524 
L 407.86623 234.619778 
L 408.716943 235.154419 
L 410.019118 235.841867 
L 409.091765 235.867882 
L 408.18009 236.280601 
L 407.269826 236.69614 
L 405.92733 237.302945 
L 406.582229 236.664193 
L 406.634193 235.664193 
L 406.693283 233.664193 
z
" clip-path="url(#p6d27bc6fb4)" style="fill: #ffffff; stroke: #ff7f0e; stroke-linecap: round"/>
          <path d="M 490.585001 293.260592 
" clip-path="url(#p6d27bc6fb4)" style="fill: none; stroke-dasharray: 3.7,1.6; stroke-dashoffset: 0; stroke: #2ca02c"/>
          <path d="M 489.585001 293.260592 
L 491.585001 294.260592 
L 491.585001 292.260592 
z
" clip-path="url(#p6d27bc6fb4)" style="fill: #2ca02c; stroke: #2ca02c; stroke-linejoin: miter"/>
          <g id="patch_10">
           <path d="M 63.290625 321.621875 
L 63.290625 12.062309 
" style="fill: none; stroke: #000000; stroke-width: 0.8; stroke-linejoin: miter; stroke-linecap: square"/>
          </g>
          <g id="text_14">
           <g id="patch_11">
            <path d="M 321.631486 108.818135 
L 342.936174 108.818135 
Q 344.936174 108.818135 344.936174 106.818135 
L 344.936174 97.14001 
Q 344.936174 95.14001 342.936174 95.14001 
L 321.631486 95.14001 
Q 319.631486 95.14001 319.631486 97.14001 
L 319.631486 106.818135 
Q 319.631486 108.818135 321.631486 108.818135 
z
" style="fill: #ffffff; opacity: 0.6"/>
           </g>
           <!-- ANC -->
           <g transform="translate(321.631486 104.738447) scale(0.1 -0.1)">
            <defs>
             <path id="DejaVuSans-4e" d="M 628 4666 
L 1478 4666 
L 3547 763 
L 3547 4666 
L 4159 4666 
L 4159 0 
L 3309 0 
L 1241 3903 
L 1241 0 
L 628 0 
L 628 4666 
z
" transform="scale(0.015625)"/>
            </defs>
            <use xlink:href="#DejaVuSans-41"/>
            <use xlink:href="#DejaVuSans-4e" x="68.408203"/>
            <use xlink:href="#DejaVuSans-43" x="143.212891"/>
           </g>
          </g>
         </g>
        </g>
        <defs>
         <clipPath id="p6d27bc6fb4">
          <rect x="63.290625" y="12.062309" width="540.309375" height="309.559566"/>
         </clipPath>
        </defs>
       </g>
      </g>
     </g>
    </g>
   </g>
  </g>
 </g>
</svg>
