<?xml version="1.0" encoding="utf-8" standalone="no"?>
<!DOCTYPE svg PUBLIC "-//W3C//DTD SVG 1.1//EN"
  "http://www.w3.org/Graphics/SVG/1.1/DTD/svg11.dtd">
<svg xmlns:xlink="http://www.w3.org/1999/xlink" width="614.4pt" height="345.6pt" viewBox="0 0 614.4 345.6" xmlns="http://www.w3.org/2000/svg" version="1.1">
 <metadata>
  <rdf:RDF xmlns:dc="http://purl.org/dc/elements/1.1/" xmlns:cc="http://creativecommons.org/ns#" xmlns:rdf="http://www.w3.org/1999/02/22-rdf-syntax-ns#">
   <cc:Work>
    <dc:type rdf:resource="http://purl.org/dc/dcmitype/StillImage"/>
    <dc:date>2024-04-17T19:48:55.304928</dc:date>
    <dc:format>image/svg+xml</dc:format>
    <dc:creator>
     <cc:Agent>
      <dc:title>Matplotlib v3.7.1, https://matplotlib.org/</dc:title>
     </cc:Agent>
    </dc:creator>
   </cc:Work>
  </rdf:RDF>
 </metadata>
 <defs>
  <style type="text/css">*{stroke-linejoin: round; stroke-linecap: butt}</style>
 </defs>
 <g id="figure_1">
  <g id="patch_1">
   <path d="M 0 345.6 
L 614.4 345.6 
L 614.4 0 
L 0 0 
z
" style="fill: #ffffff"/>
  </g>
  <g id="axes_1">
   <g id="patch_2">
    <path d="M 63.290625 321.621875 
L 603.6 321.621875 
L 603.6 10.8 
L 63.290625 10.8 
z
" style="fill: #ffffff"/>
   </g>
   <path d="M 535.446329 294.484246 
L 534.446329 294.45281 
L 533.446329 294.41587 
L 532.446329 294.318123 
L 531.446329 294.285602 
L 530.446329 294.211977 
L 529.446329 294.173411 
L 528.446329 294.137998 
L 527.446329 294.080358 
L 526.446329 294.009972 
L 525.446329 293.958008 
L 524.446329 293.898918 
L 523.446329 293.810597 
L 522.446329 293.764453 
L 521.446329 293.722042 
L 520.446329 293.691549 
L 519.446329 293.665504 
L 518.446329 293.644304 
L 517.446329 293.590003 
L 516.446329 293.562065 
L 515.446329 293.532341 
L 514.446329 293.506947 
L 513.446329 293.495746 
L 512.446329 293.485622 
L 511.446329 293.485827 
L 510.446329 293.495337 
L 509.446329 293.50699 
L 508.446329 293.538019 
L 507.446329 293.549187 
L 506.446329 293.579305 
L 505.446329 293.639082 
L 504.446329 293.676273 
L 503.446329 293.715369 
L 502.446329 293.757809 
L 501.446329 293.790574 
L 500.446329 293.858001 
L 499.446329 293.897126 
L 498.446329 293.939801 
L 497.446329 294.010382 
L 496.446329 294.046772 
L 495.446329 294.105176 
L 494.446329 294.216128 
L 493.446329 294.286787 
L 492.446329 294.399726 
L 491.446329 294.445499 
L 490.446329 294.506783 
L 489.446329 294.555282 
L 488.446329 294.636105 
L 487.446329 294.754623 
L 486.446329 294.824834 
L 485.446329 294.908097 
L 484.446329 294.941238 
L 483.446329 294.992476 
L 482.446329 295.060874 
L 481.446329 295.127089 
L 480.446329 295.204006 
L 479.446329 295.231322 
L 478.446329 295.257799 
L 477.446329 295.28045 
L 476.446329 295.299981 
L 475.446329 295.326375 
L 474.446329 295.376146 
L 473.446329 295.411219 
L 472.446329 295.447085 
L 471.446329 295.462452 
L 470.446329 295.478222 
L 469.446329 295.481634 
L 468.446329 295.484052 
L 467.446329 295.483566 
L 466.446329 295.481636 
L 465.446329 295.468379 
L 464.446329 295.459989 
L 462.546458 295.438452 
" clip-path="url(#pc341ad720f)" style="fill: none; stroke-dasharray: 3.7,1.6; stroke-dashoffset: 0; stroke: #2ca02c"/>
   <g id="patch_3">
    <path d="M 288.707179 10.8 
L 288.707179 281.540004 
M 369.54585 10.8 
L 369.54585 281.540004 
" clip-path="url(#pc341ad720f)" style="fill: none; stroke: #ffffff; stroke-width: 3; stroke-linejoin: miter"/>
    <path d="M 288.707179 10.8 
L 288.707179 281.540004 
M 369.54585 10.8 
L 369.54585 281.540004 
" clip-path="url(#pc341ad720f)" style="fill: none; stroke: #1f77b4; stroke-linejoin: miter"/>
    <g id="PolyCollection_1">
     <path d="M 369.54585 10.8 
L 288.707179 10.8 
L 288.707179 281.540004 
L 369.54585 281.540004 
L 369.54585 281.540004 
L 369.54585 10.8 
z
" clip-path="url(#pc341ad720f)" style="fill: #1f77b4; fill-opacity: 0.5"/>
    </g>
    <g id="patch_4">
     <path d="M 87.850142 281.540004 
L 87.850142 321.621875 
M 224.17523 281.540004 
L 224.17523 321.621875 
" clip-path="url(#pc341ad720f)" style="fill: none; stroke: #ffffff; stroke-width: 3; stroke-linejoin: miter"/>
     <path d="M 87.850142 281.540004 
L 87.850142 321.621875 
M 224.17523 281.540004 
L 224.17523 321.621875 
" clip-path="url(#pc341ad720f)" style="fill: none; stroke: #ff7f0e; stroke-linejoin: miter"/>
     <g id="PolyCollection_2">
      <path d="M 224.17523 281.540004 
L 87.850142 281.540004 
L 87.850142 321.621875 
L 224.17523 321.621875 
L 224.17523 321.621875 
L 224.17523 281.540004 
z
" clip-path="url(#pc341ad720f)" style="fill: #ff7f0e; fill-opacity: 0.5"/>
     </g>
     <g id="patch_5">
      <path d="M 540.849423 72.964375 
L 540.849423 321.621875 
M 579.040483 72.964375 
L 579.040483 321.621875 
" clip-path="url(#pc341ad720f)" style="fill: none; stroke: #ffffff; stroke-width: 3; stroke-linejoin: miter"/>
      <path d="M 540.849423 72.964375 
L 540.849423 321.621875 
M 579.040483 72.964375 
L 579.040483 321.621875 
" clip-path="url(#pc341ad720f)" style="fill: none; stroke: #2ca02c; stroke-linejoin: miter"/>
      <g id="PolyCollection_3">
       <path d="M 579.040483 72.964375 
L 540.849423 72.964375 
L 540.849423 321.621875 
L 579.040483 321.621875 
L 579.040483 321.621875 
L 579.040483 72.964375 
z
" clip-path="url(#pc341ad720f)" style="fill: #2ca02c; fill-opacity: 0.5"/>
      </g>
      <g id="patch_6">
       <path d="M 431.928103 281.540004 
L 431.928103 321.621875 
M 457.143364 281.540004 
L 457.143364 321.621875 
" clip-path="url(#pc341ad720f)" style="fill: none; stroke: #ffffff; stroke-width: 3; stroke-linejoin: miter"/>
       <path d="M 431.928103 281.540004 
L 431.928103 321.621875 
M 457.143364 281.540004 
L 457.143364 321.621875 
" clip-path="url(#pc341ad720f)" style="fill: none; stroke: #d62728; stroke-linejoin: miter"/>
       <g id="PolyCollection_4">
        <path d="M 457.143364 281.540004 
L 431.928103 281.540004 
L 431.928103 321.621875 
L 457.143364 321.621875 
L 457.143364 321.621875 
L 457.143364 281.540004 
z
" clip-path="url(#pc341ad720f)" style="fill: #d62728; fill-opacity: 0.5"/>
       </g>
       <g id="matplotlib.axis_1">
        <g id="xtick_1">
         <g id="line2d_1"/>
         <g id="text_1">
          <!-- OUT -->
          <g transform="translate(145.363467 332.720312) scale(0.1 -0.1)">
           <defs>
            <path id="DejaVuSans-4f" d="M 2522 4238 
Q 1834 4238 1429 3725 
Q 1025 3213 1025 2328 
Q 1025 1447 1429 934 
Q 1834 422 2522 422 
Q 3209 422 3611 934 
Q 4013 1447 4013 2328 
Q 4013 3213 3611 3725 
Q 3209 4238 2522 4238 
z
M 2522 4750 
Q 3503 4750 4090 4092 
Q 4678 3434 4678 2328 
Q 4678 1225 4090 567 
Q 3503 -91 2522 -91 
Q 1538 -91 948 565 
Q 359 1222 359 2328 
Q 359 3434 948 4092 
Q 1538 4750 2522 4750 
z
" transform="scale(0.015625)"/>
            <path id="DejaVuSans-55" d="M 556 4666 
L 1191 4666 
L 1191 1831 
Q 1191 1081 1462 751 
Q 1734 422 2344 422 
Q 2950 422 3222 751 
Q 3494 1081 3494 1831 
L 3494 4666 
L 4128 4666 
L 4128 1753 
Q 4128 841 3676 375 
Q 3225 -91 2344 -91 
Q 1459 -91 1007 375 
Q 556 841 556 1753 
L 556 4666 
z
" transform="scale(0.015625)"/>
            <path id="DejaVuSans-54" d="M -19 4666 
L 3928 4666 
L 3928 4134 
L 2272 4134 
L 2272 0 
L 1638 0 
L 1638 4134 
L -19 4134 
L -19 4666 
z
" transform="scale(0.015625)"/>
           </defs>
           <use xlink:href="#DejaVuSans-4f"/>
           <use xlink:href="#DejaVuSans-55" x="78.710938"/>
           <use xlink:href="#DejaVuSans-54" x="151.904297"/>
          </g>
         </g>
        </g>
        <g id="xtick_2">
         <g id="line2d_2"/>
         <g id="text_2">
          <!-- SRC -->
          <g transform="translate(550.055109 332.720312) scale(0.1 -0.1)">
           <defs>
            <path id="DejaVuSans-53" d="M 3425 4513 
L 3425 3897 
Q 3066 4069 2747 4153 
Q 2428 4238 2131 4238 
Q 1616 4238 1336 4038 
Q 1056 3838 1056 3469 
Q 1056 3159 1242 3001 
Q 1428 2844 1947 2747 
L 2328 2669 
Q 3034 2534 3370 2195 
Q 3706 1856 3706 1288 
Q 3706 609 3251 259 
Q 2797 -91 1919 -91 
Q 1588 -91 1214 -16 
Q 841 59 441 206 
L 441 856 
Q 825 641 1194 531 
Q 1563 422 1919 422 
Q 2459 422 2753 634 
Q 3047 847 3047 1241 
Q 3047 1584 2836 1778 
Q 2625 1972 2144 2069 
L 1759 2144 
Q 1053 2284 737 2584 
Q 422 2884 422 3419 
Q 422 4038 858 4394 
Q 1294 4750 2059 4750 
Q 2388 4750 2728 4690 
Q 3069 4631 3425 4513 
z
" transform="scale(0.015625)"/>
            <path id="DejaVuSans-52" d="M 2841 2188 
Q 3044 2119 3236 1894 
Q 3428 1669 3622 1275 
L 4263 0 
L 3584 0 
L 2988 1197 
Q 2756 1666 2539 1819 
Q 2322 1972 1947 1972 
L 1259 1972 
L 1259 0 
L 628 0 
L 628 4666 
L 2053 4666 
Q 2853 4666 3247 4331 
Q 3641 3997 3641 3322 
Q 3641 2881 3436 2590 
Q 3231 2300 2841 2188 
z
M 1259 4147 
L 1259 2491 
L 2053 2491 
Q 2509 2491 2742 2702 
Q 2975 2913 2975 3322 
Q 2975 3731 2742 3939 
Q 2509 4147 2053 4147 
L 1259 4147 
z
" transform="scale(0.015625)"/>
            <path id="DejaVuSans-43" d="M 4122 4306 
L 4122 3641 
Q 3803 3938 3442 4084 
Q 3081 4231 2675 4231 
Q 1875 4231 1450 3742 
Q 1025 3253 1025 2328 
Q 1025 1406 1450 917 
Q 1875 428 2675 428 
Q 3081 428 3442 575 
Q 3803 722 4122 1019 
L 4122 359 
Q 3791 134 3420 21 
Q 3050 -91 2638 -91 
Q 1578 -91 968 557 
Q 359 1206 359 2328 
Q 359 3453 968 4101 
Q 1578 4750 2638 4750 
Q 3056 4750 3426 4639 
Q 3797 4528 4122 4306 
z
" transform="scale(0.015625)"/>
           </defs>
           <use xlink:href="#DejaVuSans-53"/>
           <use xlink:href="#DejaVuSans-52" x="63.476562"/>
           <use xlink:href="#DejaVuSans-43" x="127.958984"/>
          </g>
         </g>
        </g>
        <g id="xtick_3">
         <g id="line2d_3"/>
         <g id="text_3">
          <!-- TAR -->
          <g transform="translate(434.974796 332.720312) scale(0.1 -0.1)">
           <defs>
            <path id="DejaVuSans-41" d="M 2188 4044 
L 1331 1722 
L 3047 1722 
L 2188 4044 
z
M 1831 4666 
L 2547 4666 
L 4325 0 
L 3669 0 
L 3244 1197 
L 1141 1197 
L 716 0 
L 50 0 
L 1831 4666 
z
" transform="scale(0.015625)"/>
           </defs>
           <use xlink:href="#DejaVuSans-54"/>
           <use xlink:href="#DejaVuSans-41" x="53.333984"/>
           <use xlink:href="#DejaVuSans-52" x="121.742188"/>
          </g>
         </g>
        </g>
       </g>
       <g id="matplotlib.axis_2">
        <g id="ytick_1">
         <g id="line2d_4">
          <defs>
           <path id="mc83ff034f3" d="M 0 0 
L -3.5 0 
" style="stroke: #000000; stroke-width: 0.8"/>
          </defs>
          <g>
           <use xlink:href="#mc83ff034f3" x="63.290625" y="321.621875" style="stroke: #000000; stroke-width: 0.8"/>
          </g>
         </g>
         <g id="text_4">
          <!-- 0 -->
          <g transform="translate(49.928125 325.421094) scale(0.1 -0.1)">
           <defs>
            <path id="DejaVuSans-30" d="M 2034 4250 
Q 1547 4250 1301 3770 
Q 1056 3291 1056 2328 
Q 1056 1369 1301 889 
Q 1547 409 2034 409 
Q 2525 409 2770 889 
Q 3016 1369 3016 2328 
Q 3016 3291 2770 3770 
Q 2525 4250 2034 4250 
z
M 2034 4750 
Q 2819 4750 3233 4129 
Q 3647 3509 3647 2328 
Q 3647 1150 3233 529 
Q 2819 -91 2034 -91 
Q 1250 -91 836 529 
Q 422 1150 422 2328 
Q 422 3509 836 4129 
Q 1250 4750 2034 4750 
z
" transform="scale(0.015625)"/>
           </defs>
           <use xlink:href="#DejaVuSans-30"/>
          </g>
         </g>
        </g>
        <g id="ytick_2">
         <g id="line2d_5">
          <g>
           <use xlink:href="#mc83ff034f3" x="63.290625" y="282.586161" style="stroke: #000000; stroke-width: 0.8"/>
          </g>
         </g>
         <g id="text_5">
          <!-- 2500 -->
          <g transform="translate(30.840625 286.385379) scale(0.1 -0.1)">
           <defs>
            <path id="DejaVuSans-32" d="M 1228 531 
L 3431 531 
L 3431 0 
L 469 0 
L 469 531 
Q 828 903 1448 1529 
Q 2069 2156 2228 2338 
Q 2531 2678 2651 2914 
Q 2772 3150 2772 3378 
Q 2772 3750 2511 3984 
Q 2250 4219 1831 4219 
Q 1534 4219 1204 4116 
Q 875 4013 500 3803 
L 500 4441 
Q 881 4594 1212 4672 
Q 1544 4750 1819 4750 
Q 2544 4750 2975 4387 
Q 3406 4025 3406 3419 
Q 3406 3131 3298 2873 
Q 3191 2616 2906 2266 
Q 2828 2175 2409 1742 
Q 1991 1309 1228 531 
z
" transform="scale(0.015625)"/>
            <path id="DejaVuSans-35" d="M 691 4666 
L 3169 4666 
L 3169 4134 
L 1269 4134 
L 1269 2991 
Q 1406 3038 1543 3061 
Q 1681 3084 1819 3084 
Q 2600 3084 3056 2656 
Q 3513 2228 3513 1497 
Q 3513 744 3044 326 
Q 2575 -91 1722 -91 
Q 1428 -91 1123 -41 
Q 819 9 494 109 
L 494 744 
Q 775 591 1075 516 
Q 1375 441 1709 441 
Q 2250 441 2565 725 
Q 2881 1009 2881 1497 
Q 2881 1984 2565 2268 
Q 2250 2553 1709 2553 
Q 1456 2553 1204 2497 
Q 953 2441 691 2322 
L 691 4666 
z
" transform="scale(0.015625)"/>
           </defs>
           <use xlink:href="#DejaVuSans-32"/>
           <use xlink:href="#DejaVuSans-35" x="63.623047"/>
           <use xlink:href="#DejaVuSans-30" x="127.246094"/>
           <use xlink:href="#DejaVuSans-30" x="190.869141"/>
          </g>
         </g>
        </g>
        <g id="ytick_3">
         <g id="line2d_6">
          <g>
           <use xlink:href="#mc83ff034f3" x="63.290625" y="243.550446" style="stroke: #000000; stroke-width: 0.8"/>
          </g>
         </g>
         <g id="text_6">
          <!-- 5000 -->
          <g transform="translate(30.840625 247.349665) scale(0.1 -0.1)">
           <use xlink:href="#DejaVuSans-35"/>
           <use xlink:href="#DejaVuSans-30" x="63.623047"/>
           <use xlink:href="#DejaVuSans-30" x="127.246094"/>
           <use xlink:href="#DejaVuSans-30" x="190.869141"/>
          </g>
         </g>
        </g>
        <g id="ytick_4">
         <g id="line2d_7">
          <g>
           <use xlink:href="#mc83ff034f3" x="63.290625" y="204.514732" style="stroke: #000000; stroke-width: 0.8"/>
          </g>
         </g>
         <g id="text_7">
          <!-- 7500 -->
          <g transform="translate(30.840625 208.313951) scale(0.1 -0.1)">
           <defs>
            <path id="DejaVuSans-37" d="M 525 4666 
L 3525 4666 
L 3525 4397 
L 1831 0 
L 1172 0 
L 2766 4134 
L 525 4134 
L 525 4666 
z
" transform="scale(0.015625)"/>
           </defs>
           <use xlink:href="#DejaVuSans-37"/>
           <use xlink:href="#DejaVuSans-35" x="63.623047"/>
           <use xlink:href="#DejaVuSans-30" x="127.246094"/>
           <use xlink:href="#DejaVuSans-30" x="190.869141"/>
          </g>
         </g>
        </g>
        <g id="ytick_5">
         <g id="line2d_8">
          <g>
           <use xlink:href="#mc83ff034f3" x="63.290625" y="165.479018" style="stroke: #000000; stroke-width: 0.8"/>
          </g>
         </g>
         <g id="text_8">
          <!-- 10000 -->
          <g transform="translate(24.478125 169.278237) scale(0.1 -0.1)">
           <defs>
            <path id="DejaVuSans-31" d="M 794 531 
L 1825 531 
L 1825 4091 
L 703 3866 
L 703 4441 
L 1819 4666 
L 2450 4666 
L 2450 531 
L 3481 531 
L 3481 0 
L 794 0 
L 794 531 
z
" transform="scale(0.015625)"/>
           </defs>
           <use xlink:href="#DejaVuSans-31"/>
           <use xlink:href="#DejaVuSans-30" x="63.623047"/>
           <use xlink:href="#DejaVuSans-30" x="127.246094"/>
           <use xlink:href="#DejaVuSans-30" x="190.869141"/>
           <use xlink:href="#DejaVuSans-30" x="254.492188"/>
          </g>
         </g>
        </g>
        <g id="ytick_6">
         <g id="line2d_9">
          <g>
           <use xlink:href="#mc83ff034f3" x="63.290625" y="126.443304" style="stroke: #000000; stroke-width: 0.8"/>
          </g>
         </g>
         <g id="text_9">
          <!-- 12500 -->
          <g transform="translate(24.478125 130.242522) scale(0.1 -0.1)">
           <use xlink:href="#DejaVuSans-31"/>
           <use xlink:href="#DejaVuSans-32" x="63.623047"/>
           <use xlink:href="#DejaVuSans-35" x="127.246094"/>
           <use xlink:href="#DejaVuSans-30" x="190.869141"/>
           <use xlink:href="#DejaVuSans-30" x="254.492188"/>
          </g>
         </g>
        </g>
        <g id="ytick_7">
         <g id="line2d_10">
          <g>
           <use xlink:href="#mc83ff034f3" x="63.290625" y="87.407589" style="stroke: #000000; stroke-width: 0.8"/>
          </g>
         </g>
         <g id="text_10">
          <!-- 15000 -->
          <g transform="translate(24.478125 91.206808) scale(0.1 -0.1)">
           <use xlink:href="#DejaVuSans-31"/>
           <use xlink:href="#DejaVuSans-35" x="63.623047"/>
           <use xlink:href="#DejaVuSans-30" x="127.246094"/>
           <use xlink:href="#DejaVuSans-30" x="190.869141"/>
           <use xlink:href="#DejaVuSans-30" x="254.492188"/>
          </g>
         </g>
        </g>
        <g id="ytick_8">
         <g id="line2d_11">
          <g>
           <use xlink:href="#mc83ff034f3" x="63.290625" y="48.371875" style="stroke: #000000; stroke-width: 0.8"/>
          </g>
         </g>
         <g id="text_11">
          <!-- 17500 -->
          <g transform="translate(24.478125 52.171094) scale(0.1 -0.1)">
           <use xlink:href="#DejaVuSans-31"/>
           <use xlink:href="#DejaVuSans-37" x="63.623047"/>
           <use xlink:href="#DejaVuSans-35" x="127.246094"/>
           <use xlink:href="#DejaVuSans-30" x="190.869141"/>
           <use xlink:href="#DejaVuSans-30" x="254.492188"/>
          </g>
         </g>
        </g>
        <g id="text_12">
         <!-- time ago (generations) -->
         <g transform="translate(18.398438 223.682031) rotate(-90) scale(0.1 -0.1)">
          <defs>
           <path id="DejaVuSans-74" d="M 1172 4494 
L 1172 3500 
L 2356 3500 
L 2356 3053 
L 1172 3053 
L 1172 1153 
Q 1172 725 1289 603 
Q 1406 481 1766 481 
L 2356 481 
L 2356 0 
L 1766 0 
Q 1100 0 847 248 
Q 594 497 594 1153 
L 594 3053 
L 172 3053 
L 172 3500 
L 594 3500 
L 594 4494 
L 1172 4494 
z
" transform="scale(0.015625)"/>
           <path id="DejaVuSans-69" d="M 603 3500 
L 1178 3500 
L 1178 0 
L 603 0 
L 603 3500 
z
M 603 4863 
L 1178 4863 
L 1178 4134 
L 603 4134 
L 603 4863 
z
" transform="scale(0.015625)"/>
           <path id="DejaVuSans-6d" d="M 3328 2828 
Q 3544 3216 3844 3400 
Q 4144 3584 4550 3584 
Q 5097 3584 5394 3201 
Q 5691 2819 5691 2113 
L 5691 0 
L 5113 0 
L 5113 2094 
Q 5113 2597 4934 2840 
Q 4756 3084 4391 3084 
Q 3944 3084 3684 2787 
Q 3425 2491 3425 1978 
L 3425 0 
L 2847 0 
L 2847 2094 
Q 2847 2600 2669 2842 
Q 2491 3084 2119 3084 
Q 1678 3084 1418 2786 
Q 1159 2488 1159 1978 
L 1159 0 
L 581 0 
L 581 3500 
L 1159 3500 
L 1159 2956 
Q 1356 3278 1631 3431 
Q 1906 3584 2284 3584 
Q 2666 3584 2933 3390 
Q 3200 3197 3328 2828 
z
" transform="scale(0.015625)"/>
           <path id="DejaVuSans-65" d="M 3597 1894 
L 3597 1613 
L 953 1613 
Q 991 1019 1311 708 
Q 1631 397 2203 397 
Q 2534 397 2845 478 
Q 3156 559 3463 722 
L 3463 178 
Q 3153 47 2828 -22 
Q 2503 -91 2169 -91 
Q 1331 -91 842 396 
Q 353 884 353 1716 
Q 353 2575 817 3079 
Q 1281 3584 2069 3584 
Q 2775 3584 3186 3129 
Q 3597 2675 3597 1894 
z
M 3022 2063 
Q 3016 2534 2758 2815 
Q 2500 3097 2075 3097 
Q 1594 3097 1305 2825 
Q 1016 2553 972 2059 
L 3022 2063 
z
" transform="scale(0.015625)"/>
           <path id="DejaVuSans-20" transform="scale(0.015625)"/>
           <path id="DejaVuSans-61" d="M 2194 1759 
Q 1497 1759 1228 1600 
Q 959 1441 959 1056 
Q 959 750 1161 570 
Q 1363 391 1709 391 
Q 2188 391 2477 730 
Q 2766 1069 2766 1631 
L 2766 1759 
L 2194 1759 
z
M 3341 1997 
L 3341 0 
L 2766 0 
L 2766 531 
Q 2569 213 2275 61 
Q 1981 -91 1556 -91 
Q 1019 -91 701 211 
Q 384 513 384 1019 
Q 384 1609 779 1909 
Q 1175 2209 1959 2209 
L 2766 2209 
L 2766 2266 
Q 2766 2663 2505 2880 
Q 2244 3097 1772 3097 
Q 1472 3097 1187 3025 
Q 903 2953 641 2809 
L 641 3341 
Q 956 3463 1253 3523 
Q 1550 3584 1831 3584 
Q 2591 3584 2966 3190 
Q 3341 2797 3341 1997 
z
" transform="scale(0.015625)"/>
           <path id="DejaVuSans-67" d="M 2906 1791 
Q 2906 2416 2648 2759 
Q 2391 3103 1925 3103 
Q 1463 3103 1205 2759 
Q 947 2416 947 1791 
Q 947 1169 1205 825 
Q 1463 481 1925 481 
Q 2391 481 2648 825 
Q 2906 1169 2906 1791 
z
M 3481 434 
Q 3481 -459 3084 -895 
Q 2688 -1331 1869 -1331 
Q 1566 -1331 1297 -1286 
Q 1028 -1241 775 -1147 
L 775 -588 
Q 1028 -725 1275 -790 
Q 1522 -856 1778 -856 
Q 2344 -856 2625 -561 
Q 2906 -266 2906 331 
L 2906 616 
Q 2728 306 2450 153 
Q 2172 0 1784 0 
Q 1141 0 747 490 
Q 353 981 353 1791 
Q 353 2603 747 3093 
Q 1141 3584 1784 3584 
Q 2172 3584 2450 3431 
Q 2728 3278 2906 2969 
L 2906 3500 
L 3481 3500 
L 3481 434 
z
" transform="scale(0.015625)"/>
           <path id="DejaVuSans-6f" d="M 1959 3097 
Q 1497 3097 1228 2736 
Q 959 2375 959 1747 
Q 959 1119 1226 758 
Q 1494 397 1959 397 
Q 2419 397 2687 759 
Q 2956 1122 2956 1747 
Q 2956 2369 2687 2733 
Q 2419 3097 1959 3097 
z
M 1959 3584 
Q 2709 3584 3137 3096 
Q 3566 2609 3566 1747 
Q 3566 888 3137 398 
Q 2709 -91 1959 -91 
Q 1206 -91 779 398 
Q 353 888 353 1747 
Q 353 2609 779 3096 
Q 1206 3584 1959 3584 
z
" transform="scale(0.015625)"/>
           <path id="DejaVuSans-28" d="M 1984 4856 
Q 1566 4138 1362 3434 
Q 1159 2731 1159 2009 
Q 1159 1288 1364 580 
Q 1569 -128 1984 -844 
L 1484 -844 
Q 1016 -109 783 600 
Q 550 1309 550 2009 
Q 550 2706 781 3412 
Q 1013 4119 1484 4856 
L 1984 4856 
z
" transform="scale(0.015625)"/>
           <path id="DejaVuSans-6e" d="M 3513 2113 
L 3513 0 
L 2938 0 
L 2938 2094 
Q 2938 2591 2744 2837 
Q 2550 3084 2163 3084 
Q 1697 3084 1428 2787 
Q 1159 2491 1159 1978 
L 1159 0 
L 581 0 
L 581 3500 
L 1159 3500 
L 1159 2956 
Q 1366 3272 1645 3428 
Q 1925 3584 2291 3584 
Q 2894 3584 3203 3211 
Q 3513 2838 3513 2113 
z
" transform="scale(0.015625)"/>
           <path id="DejaVuSans-72" d="M 2631 2963 
Q 2534 3019 2420 3045 
Q 2306 3072 2169 3072 
Q 1681 3072 1420 2755 
Q 1159 2438 1159 1844 
L 1159 0 
L 581 0 
L 581 3500 
L 1159 3500 
L 1159 2956 
Q 1341 3275 1631 3429 
Q 1922 3584 2338 3584 
Q 2397 3584 2469 3576 
Q 2541 3569 2628 3553 
L 2631 2963 
z
" transform="scale(0.015625)"/>
           <path id="DejaVuSans-73" d="M 2834 3397 
L 2834 2853 
Q 2591 2978 2328 3040 
Q 2066 3103 1784 3103 
Q 1356 3103 1142 2972 
Q 928 2841 928 2578 
Q 928 2378 1081 2264 
Q 1234 2150 1697 2047 
L 1894 2003 
Q 2506 1872 2764 1633 
Q 3022 1394 3022 966 
Q 3022 478 2636 193 
Q 2250 -91 1575 -91 
Q 1294 -91 989 -36 
Q 684 19 347 128 
L 347 722 
Q 666 556 975 473 
Q 1284 391 1588 391 
Q 1994 391 2212 530 
Q 2431 669 2431 922 
Q 2431 1156 2273 1281 
Q 2116 1406 1581 1522 
L 1381 1569 
Q 847 1681 609 1914 
Q 372 2147 372 2553 
Q 372 3047 722 3315 
Q 1072 3584 1716 3584 
Q 2034 3584 2315 3537 
Q 2597 3491 2834 3397 
z
" transform="scale(0.015625)"/>
           <path id="DejaVuSans-29" d="M 513 4856 
L 1013 4856 
Q 1481 4119 1714 3412 
Q 1947 2706 1947 2009 
Q 1947 1309 1714 600 
Q 1481 -109 1013 -844 
L 513 -844 
Q 928 -128 1133 580 
Q 1338 1288 1338 2009 
Q 1338 2731 1133 3434 
Q 928 4138 513 4856 
z
" transform="scale(0.015625)"/>
          </defs>
          <use xlink:href="#DejaVuSans-74"/>
          <use xlink:href="#DejaVuSans-69" x="39.208984"/>
          <use xlink:href="#DejaVuSans-6d" x="66.992188"/>
          <use xlink:href="#DejaVuSans-65" x="164.404297"/>
          <use xlink:href="#DejaVuSans-20" x="225.927734"/>
          <use xlink:href="#DejaVuSans-61" x="257.714844"/>
          <use xlink:href="#DejaVuSans-67" x="318.994141"/>
          <use xlink:href="#DejaVuSans-6f" x="382.470703"/>
          <use xlink:href="#DejaVuSans-20" x="443.652344"/>
          <use xlink:href="#DejaVuSans-28" x="475.439453"/>
          <use xlink:href="#DejaVuSans-67" x="514.453125"/>
          <use xlink:href="#DejaVuSans-65" x="577.929688"/>
          <use xlink:href="#DejaVuSans-6e" x="639.453125"/>
          <use xlink:href="#DejaVuSans-65" x="702.832031"/>
          <use xlink:href="#DejaVuSans-72" x="764.355469"/>
          <use xlink:href="#DejaVuSans-61" x="805.46875"/>
          <use xlink:href="#DejaVuSans-74" x="866.748047"/>
          <use xlink:href="#DejaVuSans-69" x="905.957031"/>
          <use xlink:href="#DejaVuSans-6f" x="933.740234"/>
          <use xlink:href="#DejaVuSans-6e" x="994.921875"/>
          <use xlink:href="#DejaVuSans-73" x="1058.300781"/>
          <use xlink:href="#DejaVuSans-29" x="1110.400391"/>
         </g>
        </g>
       </g>
       <g id="patch_7">
        <path d="M 286.710249 281.540004 
L 285.710249 281.508567 
L 284.710249 281.471627 
L 283.710249 281.37388 
L 282.710249 281.341359 
L 281.710249 281.267734 
L 280.710249 281.229168 
L 279.710249 281.193755 
L 278.710249 281.136115 
L 277.710249 281.065729 
L 276.710249 281.013765 
L 275.710249 280.954675 
L 274.710249 280.866354 
L 273.710249 280.82021 
L 272.710249 280.777799 
L 271.710249 280.747306 
L 270.710249 280.721261 
L 269.710249 280.700061 
L 268.710249 280.64576 
L 267.710249 280.617823 
L 266.710249 280.588099 
L 265.710249 280.562704 
L 264.710249 280.551503 
L 263.710249 280.541379 
L 262.710249 280.541584 
L 261.710249 280.551094 
L 260.710249 280.562747 
L 259.710249 280.593776 
L 258.710249 280.604944 
L 257.710249 280.635062 
L 256.710249 280.694839 
L 255.710249 280.73203 
L 254.710249 280.771126 
L 253.710249 280.813566 
L 252.710249 280.846331 
L 251.710249 280.913758 
L 250.710249 280.952884 
L 249.710249 280.995558 
L 248.710249 281.066139 
L 247.710249 281.10253 
L 246.710249 281.160933 
L 245.710249 281.271885 
L 244.710249 281.342544 
L 243.710249 281.455484 
L 242.710249 281.501256 
L 241.710249 281.56254 
L 240.710249 281.611039 
L 239.710249 281.691862 
L 238.710249 281.810381 
L 237.710249 281.880591 
L 236.710249 281.963854 
L 235.710249 281.996995 
L 234.710249 282.048233 
L 233.710249 282.116631 
L 232.710249 282.182847 
L 231.710249 282.259764 
L 230.710249 282.287079 
L 229.710249 282.313557 
L 228.710249 282.336207 
L 227.289469 282.355739 
" clip-path="url(#pc341ad720f)" style="fill: none; stroke: #ffffff; stroke-width: 3; stroke-linecap: round"/>
        <path d="M 286.710249 281.540004 
L 285.710249 281.508567 
L 284.710249 281.471627 
L 283.710249 281.37388 
L 282.710249 281.341359 
L 281.710249 281.267734 
L 280.710249 281.229168 
L 279.710249 281.193755 
L 278.710249 281.136115 
L 277.710249 281.065729 
L 276.710249 281.013765 
L 275.710249 280.954675 
L 274.710249 280.866354 
L 273.710249 280.82021 
L 272.710249 280.777799 
L 271.710249 280.747306 
L 270.710249 280.721261 
L 269.710249 280.700061 
L 268.710249 280.64576 
L 267.710249 280.617823 
L 266.710249 280.588099 
L 265.710249 280.562704 
L 264.710249 280.551503 
L 263.710249 280.541379 
L 262.710249 280.541584 
L 261.710249 280.551094 
L 260.710249 280.562747 
L 259.710249 280.593776 
L 258.710249 280.604944 
L 257.710249 280.635062 
L 256.710249 280.694839 
L 255.710249 280.73203 
L 254.710249 280.771126 
L 253.710249 280.813566 
L 252.710249 280.846331 
L 251.710249 280.913758 
L 250.710249 280.952884 
L 249.710249 280.995558 
L 248.710249 281.066139 
L 247.710249 281.10253 
L 246.710249 281.160933 
L 245.710249 281.271885 
L 244.710249 281.342544 
L 243.710249 281.455484 
L 242.710249 281.501256 
L 241.710249 281.56254 
L 240.710249 281.611039 
L 239.710249 281.691862 
L 238.710249 281.810381 
L 237.710249 281.880591 
L 236.710249 281.963854 
L 235.710249 281.996995 
L 234.710249 282.048233 
L 233.710249 282.116631 
L 232.710249 282.182847 
L 231.710249 282.259764 
L 230.710249 282.287079 
L 229.710249 282.313557 
L 228.710249 282.336207 
L 227.289469 282.355739 
" clip-path="url(#pc341ad720f)" style="fill: none; stroke: #1f77b4; stroke-linecap: round"/>
        <path d="M 231.289469 283.540004 
L 230.4091 283.064672 
L 229.531193 282.584418 
L 228.68048 282.049778 
L 227.378305 281.36233 
L 228.305658 281.336315 
L 229.217333 280.923596 
L 230.127597 280.508057 
L 231.470093 279.901252 
L 230.815194 280.540004 
L 230.76323 281.540004 
L 230.70414 283.540004 
z
" clip-path="url(#pc341ad720f)" style="fill: #ffffff; stroke: #ffffff; stroke-width: 3; stroke-linecap: round"/>
        <path d="M 231.289469 283.540004 
L 230.4091 283.064672 
L 229.531193 282.584418 
L 228.68048 282.049778 
L 227.378305 281.36233 
L 228.305658 281.336315 
L 229.217333 280.923596 
L 230.127597 280.508057 
L 231.470093 279.901252 
L 230.815194 280.540004 
L 230.76323 281.540004 
L 230.70414 283.540004 
z
" clip-path="url(#pc341ad720f)" style="fill: #ffffff; stroke: #1f77b4; stroke-linecap: round"/>
        <g id="patch_8">
         <path d="M 371.545472 72.964375 
L 372.545472 72.995811 
L 373.545472 73.032752 
L 374.545472 73.130498 
L 375.545472 73.16302 
L 376.545472 73.236645 
L 377.545472 73.27521 
L 378.545472 73.310623 
L 379.545472 73.368263 
L 380.545472 73.438649 
L 381.545472 73.490614 
L 382.545472 73.549703 
L 383.545472 73.638024 
L 384.545472 73.684169 
L 385.545472 73.72658 
L 386.545472 73.757072 
L 387.545472 73.783117 
L 388.545472 73.804317 
L 389.545472 73.858618 
L 390.545472 73.886556 
L 391.545472 73.91628 
L 392.545472 73.941675 
L 393.545472 73.952875 
L 394.545472 73.962999 
L 395.545472 73.962795 
L 396.545472 73.953285 
L 397.545472 73.941631 
L 398.545472 73.910602 
L 399.545472 73.899434 
L 400.545472 73.869317 
L 401.545472 73.80954 
L 402.545472 73.772348 
L 403.545472 73.733252 
L 404.545472 73.690812 
L 405.545472 73.658047 
L 406.545472 73.590621 
L 407.545472 73.551495 
L 408.545472 73.50882 
L 409.545472 73.43824 
L 410.545472 73.401849 
L 411.545472 73.343446 
L 412.545472 73.232493 
L 413.545472 73.161835 
L 414.545472 73.048895 
L 415.545472 73.003122 
L 416.545472 72.941839 
L 417.545472 72.89334 
L 418.545472 72.812517 
L 419.545472 72.693998 
L 420.545472 72.623787 
L 421.545472 72.540525 
L 422.545472 72.507383 
L 423.545472 72.456146 
L 424.545472 72.387747 
L 425.545472 72.321532 
L 426.545472 72.244615 
L 427.545472 72.217299 
L 428.545472 72.190822 
L 429.545472 72.168171 
L 430.545472 72.14864 
L 431.545472 72.122246 
L 432.545472 72.072475 
L 433.545472 72.037402 
L 434.545472 72.001536 
L 435.545472 71.986169 
L 436.545472 71.9704 
L 437.545472 71.966987 
L 438.545472 71.96457 
L 439.545472 71.965056 
L 440.545472 71.966985 
L 441.545472 71.980242 
L 442.545472 71.988633 
L 443.545472 72.010169 
L 444.545472 72.033202 
L 445.545472 72.050435 
L 446.545472 72.068898 
L 447.545472 72.08935 
L 448.545472 72.10595 
L 449.545472 72.168729 
L 450.545472 72.243994 
L 451.545472 72.276633 
L 452.545472 72.344197 
L 453.545472 72.398244 
L 454.545472 72.431948 
L 455.545472 72.522074 
L 456.545472 72.550609 
L 457.545472 72.582095 
L 458.545472 72.613106 
L 459.545472 72.667914 
L 460.545472 72.732501 
L 461.545472 72.770697 
L 462.545472 72.866631 
L 463.545472 72.915889 
L 464.545472 72.959958 
L 465.545472 73.000082 
L 466.545472 73.108449 
L 467.545472 73.150077 
L 468.545472 73.212219 
L 469.545472 73.282181 
L 470.545472 73.386685 
L 471.545472 73.423673 
L 472.545472 73.46955 
L 473.545472 73.538045 
L 474.545472 73.586791 
L 475.545472 73.664388 
L 476.545472 73.694929 
L 477.545472 73.764443 
L 478.545472 73.788416 
L 479.545472 73.817038 
L 480.545472 73.858831 
L 481.545472 73.880407 
L 482.545472 73.894355 
L 483.545472 73.921077 
L 484.545472 73.930387 
L 485.545472 73.942834 
L 486.545472 73.953889 
L 487.545472 73.959553 
L 488.545472 73.964317 
L 489.545472 73.958769 
L 490.545472 73.945481 
L 491.545472 73.937964 
L 492.545472 73.913179 
L 493.545472 73.88961 
L 494.545472 73.85343 
L 495.545472 73.827468 
L 496.545472 73.805146 
L 497.545472 73.736386 
L 498.545472 73.661851 
L 499.545472 73.567872 
L 500.545472 73.51682 
L 501.545472 73.462886 
L 502.545472 73.427635 
L 503.545472 73.321547 
L 504.545472 73.269283 
L 505.545472 73.232376 
L 506.545472 73.201345 
L 507.545472 73.14019 
L 508.545472 73.07277 
L 509.545472 73.023864 
L 510.545472 72.958672 
L 511.545472 72.920484 
L 512.545472 72.878488 
L 513.545472 72.836471 
L 514.545472 72.776955 
L 515.545472 72.663795 
L 516.545472 72.611544 
L 517.545472 72.572126 
L 518.545472 72.525025 
L 519.545472 72.468245 
L 520.545472 72.435582 
L 521.545472 72.399404 
L 522.545472 72.367314 
L 523.545472 72.333034 
L 524.545472 72.274656 
L 525.545472 72.229471 
L 526.545472 72.199847 
L 527.545472 72.149461 
L 528.545472 72.124264 
L 529.545472 72.103213 
L 530.545472 72.068245 
L 531.545472 72.043955 
L 532.545472 72.029888 
L 533.545472 72.010946 
L 534.545472 71.995285 
L 535.545472 71.982733 
L 536.545472 71.976897 
L 537.729275 71.970015 
" clip-path="url(#pc341ad720f)" style="fill: none; stroke: #ffffff; stroke-width: 3; stroke-linecap: round"/>
         <path d="M 371.545472 72.964375 
L 372.545472 72.995811 
L 373.545472 73.032752 
L 374.545472 73.130498 
L 375.545472 73.16302 
L 376.545472 73.236645 
L 377.545472 73.27521 
L 378.545472 73.310623 
L 379.545472 73.368263 
L 380.545472 73.438649 
L 381.545472 73.490614 
L 382.545472 73.549703 
L 383.545472 73.638024 
L 384.545472 73.684169 
L 385.545472 73.72658 
L 386.545472 73.757072 
L 387.545472 73.783117 
L 388.545472 73.804317 
L 389.545472 73.858618 
L 390.545472 73.886556 
L 391.545472 73.91628 
L 392.545472 73.941675 
L 393.545472 73.952875 
L 394.545472 73.962999 
L 395.545472 73.962795 
L 396.545472 73.953285 
L 397.545472 73.941631 
L 398.545472 73.910602 
L 399.545472 73.899434 
L 400.545472 73.869317 
L 401.545472 73.80954 
L 402.545472 73.772348 
L 403.545472 73.733252 
L 404.545472 73.690812 
L 405.545472 73.658047 
L 406.545472 73.590621 
L 407.545472 73.551495 
L 408.545472 73.50882 
L 409.545472 73.43824 
L 410.545472 73.401849 
L 411.545472 73.343446 
L 412.545472 73.232493 
L 413.545472 73.161835 
L 414.545472 73.048895 
L 415.545472 73.003122 
L 416.545472 72.941839 
L 417.545472 72.89334 
L 418.545472 72.812517 
L 419.545472 72.693998 
L 420.545472 72.623787 
L 421.545472 72.540525 
L 422.545472 72.507383 
L 423.545472 72.456146 
L 424.545472 72.387747 
L 425.545472 72.321532 
L 426.545472 72.244615 
L 427.545472 72.217299 
L 428.545472 72.190822 
L 429.545472 72.168171 
L 430.545472 72.14864 
L 431.545472 72.122246 
L 432.545472 72.072475 
L 433.545472 72.037402 
L 434.545472 72.001536 
L 435.545472 71.986169 
L 436.545472 71.9704 
L 437.545472 71.966987 
L 438.545472 71.96457 
L 439.545472 71.965056 
L 440.545472 71.966985 
L 441.545472 71.980242 
L 442.545472 71.988633 
L 443.545472 72.010169 
L 444.545472 72.033202 
L 445.545472 72.050435 
L 446.545472 72.068898 
L 447.545472 72.08935 
L 448.545472 72.10595 
L 449.545472 72.168729 
L 450.545472 72.243994 
L 451.545472 72.276633 
L 452.545472 72.344197 
L 453.545472 72.398244 
L 454.545472 72.431948 
L 455.545472 72.522074 
L 456.545472 72.550609 
L 457.545472 72.582095 
L 458.545472 72.613106 
L 459.545472 72.667914 
L 460.545472 72.732501 
L 461.545472 72.770697 
L 462.545472 72.866631 
L 463.545472 72.915889 
L 464.545472 72.959958 
L 465.545472 73.000082 
L 466.545472 73.108449 
L 467.545472 73.150077 
L 468.545472 73.212219 
L 469.545472 73.282181 
L 470.545472 73.386685 
L 471.545472 73.423673 
L 472.545472 73.46955 
L 473.545472 73.538045 
L 474.545472 73.586791 
L 475.545472 73.664388 
L 476.545472 73.694929 
L 477.545472 73.764443 
L 478.545472 73.788416 
L 479.545472 73.817038 
L 480.545472 73.858831 
L 481.545472 73.880407 
L 482.545472 73.894355 
L 483.545472 73.921077 
L 484.545472 73.930387 
L 485.545472 73.942834 
L 486.545472 73.953889 
L 487.545472 73.959553 
L 488.545472 73.964317 
L 489.545472 73.958769 
L 490.545472 73.945481 
L 491.545472 73.937964 
L 492.545472 73.913179 
L 493.545472 73.88961 
L 494.545472 73.85343 
L 495.545472 73.827468 
L 496.545472 73.805146 
L 497.545472 73.736386 
L 498.545472 73.661851 
L 499.545472 73.567872 
L 500.545472 73.51682 
L 501.545472 73.462886 
L 502.545472 73.427635 
L 503.545472 73.321547 
L 504.545472 73.269283 
L 505.545472 73.232376 
L 506.545472 73.201345 
L 507.545472 73.14019 
L 508.545472 73.07277 
L 509.545472 73.023864 
L 510.545472 72.958672 
L 511.545472 72.920484 
L 512.545472 72.878488 
L 513.545472 72.836471 
L 514.545472 72.776955 
L 515.545472 72.663795 
L 516.545472 72.611544 
L 517.545472 72.572126 
L 518.545472 72.525025 
L 519.545472 72.468245 
L 520.545472 72.435582 
L 521.545472 72.399404 
L 522.545472 72.367314 
L 523.545472 72.333034 
L 524.545472 72.274656 
L 525.545472 72.229471 
L 526.545472 72.199847 
L 527.545472 72.149461 
L 528.545472 72.124264 
L 529.545472 72.103213 
L 530.545472 72.068245 
L 531.545472 72.043955 
L 532.545472 72.029888 
L 533.545472 72.010946 
L 534.545472 71.995285 
L 535.545472 71.982733 
L 536.545472 71.976897 
L 537.729275 71.970015 
" clip-path="url(#pc341ad720f)" style="fill: none; stroke: #1f77b4; stroke-linecap: round"/>
         <path d="M 533.729275 70.964375 
L 534.609643 71.439706 
L 535.48755 71.91996 
L 536.338264 72.454601 
L 537.640438 73.142048 
L 536.713085 73.168063 
L 535.801411 73.580783 
L 534.891146 73.996322 
L 533.54865 74.603126 
L 534.203549 73.964375 
L 534.255513 72.964375 
L 534.314603 70.964375 
z
" clip-path="url(#pc341ad720f)" style="fill: #ffffff; stroke: #ffffff; stroke-width: 3; stroke-linecap: round"/>
         <path d="M 533.729275 70.964375 
L 534.609643 71.439706 
L 535.48755 71.91996 
L 536.338264 72.454601 
L 537.640438 73.142048 
L 536.713085 73.168063 
L 535.801411 73.580783 
L 534.891146 73.996322 
L 533.54865 74.603126 
L 534.203549 73.964375 
L 534.255513 72.964375 
L 534.314603 70.964375 
z
" clip-path="url(#pc341ad720f)" style="fill: #ffffff; stroke: #1f77b4; stroke-linecap: round"/>
         <g id="patch_9">
          <path d="M 371.544793 281.540004 
L 372.544793 281.57144 
L 373.544793 281.60838 
L 374.544793 281.706127 
L 375.544793 281.738648 
L 376.544793 281.812273 
L 377.544793 281.850839 
L 378.544793 281.886252 
L 379.544793 281.943892 
L 380.544793 282.014278 
L 381.544793 282.066242 
L 382.544793 282.125332 
L 383.544793 282.213653 
L 384.544793 282.259797 
L 385.544793 282.302208 
L 386.544793 282.332701 
L 387.544793 282.358746 
L 388.544793 282.379946 
L 389.544793 282.434247 
L 390.544793 282.462185 
L 391.544793 282.491909 
L 392.544793 282.517303 
L 393.544793 282.528504 
L 394.544793 282.538628 
L 395.544793 282.538423 
L 396.544793 282.528913 
L 397.544793 282.51726 
L 398.544793 282.486231 
L 399.544793 282.475063 
L 400.544793 282.444945 
L 401.544793 282.385168 
L 402.544793 282.347977 
L 403.544793 282.308881 
L 404.544793 282.266441 
L 405.544793 282.233676 
L 406.544793 282.166249 
L 407.544793 282.127124 
L 408.544793 282.084449 
L 409.544793 282.013868 
L 410.544793 281.977478 
L 411.544793 281.919074 
L 412.544793 281.808122 
L 413.544793 281.737463 
L 414.544793 281.624524 
L 415.544793 281.578751 
L 416.544793 281.517467 
L 417.544793 281.468968 
L 418.544793 281.388145 
L 419.544793 281.269627 
L 420.544793 281.199416 
L 421.544793 281.116153 
L 422.544793 281.083012 
L 423.544793 281.031774 
L 424.544793 280.963376 
L 425.544793 280.897161 
L 426.544793 280.820244 
L 427.544793 280.792928 
L 428.80884 280.766451 
" clip-path="url(#pc341ad720f)" style="fill: none; stroke: #ffffff; stroke-width: 3; stroke-linecap: round"/>
          <path d="M 371.544793 281.540004 
L 372.544793 281.57144 
L 373.544793 281.60838 
L 374.544793 281.706127 
L 375.544793 281.738648 
L 376.544793 281.812273 
L 377.544793 281.850839 
L 378.544793 281.886252 
L 379.544793 281.943892 
L 380.544793 282.014278 
L 381.544793 282.066242 
L 382.544793 282.125332 
L 383.544793 282.213653 
L 384.544793 282.259797 
L 385.544793 282.302208 
L 386.544793 282.332701 
L 387.544793 282.358746 
L 388.544793 282.379946 
L 389.544793 282.434247 
L 390.544793 282.462185 
L 391.544793 282.491909 
L 392.544793 282.517303 
L 393.544793 282.528504 
L 394.544793 282.538628 
L 395.544793 282.538423 
L 396.544793 282.528913 
L 397.544793 282.51726 
L 398.544793 282.486231 
L 399.544793 282.475063 
L 400.544793 282.444945 
L 401.544793 282.385168 
L 402.544793 282.347977 
L 403.544793 282.308881 
L 404.544793 282.266441 
L 405.544793 282.233676 
L 406.544793 282.166249 
L 407.544793 282.127124 
L 408.544793 282.084449 
L 409.544793 282.013868 
L 410.544793 281.977478 
L 411.544793 281.919074 
L 412.544793 281.808122 
L 413.544793 281.737463 
L 414.544793 281.624524 
L 415.544793 281.578751 
L 416.544793 281.517467 
L 417.544793 281.468968 
L 418.544793 281.388145 
L 419.544793 281.269627 
L 420.544793 281.199416 
L 421.544793 281.116153 
L 422.544793 281.083012 
L 423.544793 281.031774 
L 424.544793 280.963376 
L 425.544793 280.897161 
L 426.544793 280.820244 
L 427.544793 280.792928 
L 428.80884 280.766451 
" clip-path="url(#pc341ad720f)" style="fill: none; stroke: #1f77b4; stroke-linecap: round"/>
          <path d="M 424.80884 279.540004 
L 425.689209 280.015335 
L 426.567116 280.495589 
L 427.417829 281.03023 
L 428.720004 281.717677 
L 427.792651 281.743692 
L 426.880976 282.156411 
L 425.970712 282.57195 
L 424.628216 283.178755 
L 425.283115 282.540004 
L 425.335079 281.540004 
L 425.394169 279.540004 
z
" clip-path="url(#pc341ad720f)" style="fill: #ffffff; stroke: #ffffff; stroke-width: 3; stroke-linecap: round"/>
          <path d="M 424.80884 279.540004 
L 425.689209 280.015335 
L 426.567116 280.495589 
L 427.417829 281.03023 
L 428.720004 281.717677 
L 427.792651 281.743692 
L 426.880976 282.156411 
L 425.970712 282.57195 
L 424.628216 283.178755 
L 425.283115 282.540004 
L 425.335079 281.540004 
L 425.394169 279.540004 
z
" clip-path="url(#pc341ad720f)" style="fill: #ffffff; stroke: #1f77b4; stroke-linecap: round"/>
          <path d="M 462.546458 294.484246 
" clip-path="url(#pc341ad720f)" style="fill: none; stroke-dasharray: 3.7,1.6; stroke-dashoffset: 0; stroke: #2ca02c"/>
          <path d="M 461.546458 294.484246 
L 463.546458 295.484246 
L 463.546458 293.484246 
z
" clip-path="url(#pc341ad720f)" style="fill: #2ca02c; stroke: #2ca02c; stroke-linejoin: miter"/>
          <g id="patch_10">
           <path d="M 63.290625 321.621875 
L 63.290625 10.8 
" style="fill: none; stroke: #000000; stroke-width: 0.8; stroke-linejoin: miter; stroke-linecap: square"/>
          </g>
          <g id="text_13">
           <g id="patch_11">
            <path d="M 318.474171 153.009064 
L 339.778858 153.009064 
Q 341.778858 153.009064 341.778858 151.009064 
L 341.778858 141.330939 
Q 341.778858 139.330939 339.778858 139.330939 
L 318.474171 139.330939 
Q 316.474171 139.330939 316.474171 141.330939 
L 316.474171 151.009064 
Q 316.474171 153.009064 318.474171 153.009064 
z
" style="fill: #ffffff; opacity: 0.6"/>
           </g>
           <!-- ANC -->
           <g transform="translate(318.474171 148.929377) scale(0.1 -0.1)">
            <defs>
             <path id="DejaVuSans-4e" d="M 628 4666 
L 1478 4666 
L 3547 763 
L 3547 4666 
L 4159 4666 
L 4159 0 
L 3309 0 
L 1241 3903 
L 1241 0 
L 628 0 
L 628 4666 
z
" transform="scale(0.015625)"/>
            </defs>
            <use xlink:href="#DejaVuSans-41"/>
            <use xlink:href="#DejaVuSans-4e" x="68.408203"/>
            <use xlink:href="#DejaVuSans-43" x="143.212891"/>
           </g>
          </g>
         </g>
        </g>
        <defs>
         <clipPath id="pc341ad720f">
          <rect x="63.290625" y="10.8" width="540.309375" height="310.821875"/>
         </clipPath>
        </defs>
       </g>
      </g>
     </g>
    </g>
   </g>
  </g>
 </g>
</svg>
