<?xml version="1.0" encoding="utf-8" standalone="no"?>
<!DOCTYPE svg PUBLIC "-//W3C//DTD SVG 1.1//EN"
  "http://www.w3.org/Graphics/SVG/1.1/DTD/svg11.dtd">
<svg xmlns:xlink="http://www.w3.org/1999/xlink" width="614.4pt" height="345.6pt" viewBox="0 0 614.4 345.6" xmlns="http://www.w3.org/2000/svg" version="1.1">
 <metadata>
  <rdf:RDF xmlns:dc="http://purl.org/dc/elements/1.1/" xmlns:cc="http://creativecommons.org/ns#" xmlns:rdf="http://www.w3.org/1999/02/22-rdf-syntax-ns#">
   <cc:Work>
    <dc:type rdf:resource="http://purl.org/dc/dcmitype/StillImage"/>
    <dc:date>2024-04-17T19:48:50.751918</dc:date>
    <dc:format>image/svg+xml</dc:format>
    <dc:creator>
     <cc:Agent>
      <dc:title>Matplotlib v3.7.1, https://matplotlib.org/</dc:title>
     </cc:Agent>
    </dc:creator>
   </cc:Work>
  </rdf:RDF>
 </metadata>
 <defs>
  <style type="text/css">*{stroke-linejoin: round; stroke-linecap: butt}</style>
 </defs>
 <g id="figure_1">
  <g id="patch_1">
   <path d="M 0 345.6 
L 614.4 345.6 
L 614.4 0 
L 0 0 
z
" style="fill: #ffffff"/>
  </g>
  <g id="axes_1">
   <g id="patch_2">
    <path d="M 63.290625 321.621875 
L 603.6 321.621875 
L 603.6 10.8 
L 63.290625 10.8 
z
" style="fill: #ffffff"/>
   </g>
   <path d="M 492.562943 288.626667 
L 491.562943 288.595231 
L 490.562943 288.558291 
L 489.562943 288.460544 
L 488.562943 288.428023 
L 487.562943 288.354398 
L 486.562943 288.315832 
L 485.562943 288.280419 
L 484.562943 288.222779 
L 483.562943 288.152393 
L 482.562943 288.100429 
L 481.562943 288.041339 
L 480.562943 287.953018 
L 479.562943 287.906874 
L 478.562943 287.864463 
L 477.562943 287.83397 
L 476.562943 287.807925 
L 475.562943 287.786725 
L 474.562943 287.732424 
L 473.562943 287.704486 
L 472.562943 287.674762 
L 471.562943 287.649368 
L 470.562943 287.638167 
L 469.562943 287.628043 
L 468.562943 287.628248 
L 467.562943 287.637758 
L 466.562943 287.649411 
L 465.562943 287.68044 
L 464.562943 287.691608 
L 463.562943 287.721726 
L 462.562943 287.781503 
L 461.562943 287.818694 
L 460.562943 287.85779 
L 459.562943 287.90023 
L 458.558889 287.932995 
" clip-path="url(#p8d5c8df3f3)" style="fill: none; stroke-dasharray: 3.7,1.6; stroke-dashoffset: 0; stroke: #2ca02c"/>
   <g id="patch_3">
    <path d="M 251.4772 10.8 
L 251.4772 173.775264 
M 382.351253 10.8 
L 382.351253 173.775264 
" clip-path="url(#p8d5c8df3f3)" style="fill: none; stroke: #ffffff; stroke-width: 3; stroke-linejoin: miter"/>
    <path d="M 251.4772 10.8 
L 251.4772 173.775264 
M 382.351253 10.8 
L 382.351253 173.775264 
" clip-path="url(#p8d5c8df3f3)" style="fill: none; stroke: #1f77b4; stroke-linejoin: miter"/>
    <g id="PolyCollection_1">
     <path d="M 382.351253 10.8 
L 251.4772 10.8 
L 251.4772 173.775264 
L 382.351253 173.775264 
L 382.351253 173.775264 
L 382.351253 10.8 
z
" clip-path="url(#p8d5c8df3f3)" style="fill: #1f77b4; fill-opacity: 0.5"/>
    </g>
    <g id="patch_4">
     <path d="M 87.850142 173.775264 
L 87.850142 321.621875 
M 213.594762 173.775264 
L 213.594762 321.621875 
" clip-path="url(#p8d5c8df3f3)" style="fill: none; stroke: #ffffff; stroke-width: 3; stroke-linejoin: miter"/>
     <path d="M 87.850142 173.775264 
L 87.850142 321.621875 
M 213.594762 173.775264 
L 213.594762 321.621875 
" clip-path="url(#p8d5c8df3f3)" style="fill: none; stroke: #ff7f0e; stroke-linejoin: miter"/>
     <g id="PolyCollection_2">
      <path d="M 213.594762 173.775264 
L 87.850142 173.775264 
L 87.850142 321.621875 
L 213.594762 321.621875 
L 213.594762 321.621875 
L 213.594762 173.775264 
z
" clip-path="url(#p8d5c8df3f3)" style="fill: #ff7f0e; fill-opacity: 0.5"/>
     </g>
     <g id="patch_5">
      <path d="M 497.966037 72.964375 
L 497.966037 321.621875 
M 579.040483 72.964375 
L 579.040483 321.621875 
" clip-path="url(#p8d5c8df3f3)" style="fill: none; stroke: #ffffff; stroke-width: 3; stroke-linejoin: miter"/>
      <path d="M 497.966037 72.964375 
L 497.966037 321.621875 
M 579.040483 72.964375 
L 579.040483 321.621875 
" clip-path="url(#p8d5c8df3f3)" style="fill: none; stroke: #2ca02c; stroke-linejoin: miter"/>
      <g id="PolyCollection_3">
       <path d="M 579.040483 72.964375 
L 497.966037 72.964375 
L 497.966037 321.621875 
L 579.040483 321.621875 
L 579.040483 321.621875 
L 579.040483 72.964375 
z
" clip-path="url(#p8d5c8df3f3)" style="fill: #2ca02c; fill-opacity: 0.5"/>
      </g>
      <g id="patch_6">
       <path d="M 402.261692 202.031798 
L 402.261692 321.621875 
M 453.155795 202.031798 
L 453.155795 321.621875 
" clip-path="url(#p8d5c8df3f3)" style="fill: none; stroke: #ffffff; stroke-width: 3; stroke-linejoin: miter"/>
       <path d="M 402.261692 202.031798 
L 402.261692 321.621875 
M 453.155795 202.031798 
L 453.155795 321.621875 
" clip-path="url(#p8d5c8df3f3)" style="fill: none; stroke: #d62728; stroke-linejoin: miter"/>
       <g id="PolyCollection_4">
        <path d="M 453.155795 202.031798 
L 402.261692 202.031798 
L 402.261692 321.621875 
L 453.155795 321.621875 
L 453.155795 321.621875 
L 453.155795 202.031798 
z
" clip-path="url(#p8d5c8df3f3)" style="fill: #d62728; fill-opacity: 0.5"/>
       </g>
       <g id="matplotlib.axis_1">
        <g id="xtick_1">
         <g id="line2d_1"/>
         <g id="text_1">
          <!-- OUT -->
          <g transform="translate(140.073233 332.720312) scale(0.1 -0.1)">
           <defs>
            <path id="DejaVuSans-4f" d="M 2522 4238 
Q 1834 4238 1429 3725 
Q 1025 3213 1025 2328 
Q 1025 1447 1429 934 
Q 1834 422 2522 422 
Q 3209 422 3611 934 
Q 4013 1447 4013 2328 
Q 4013 3213 3611 3725 
Q 3209 4238 2522 4238 
z
M 2522 4750 
Q 3503 4750 4090 4092 
Q 4678 3434 4678 2328 
Q 4678 1225 4090 567 
Q 3503 -91 2522 -91 
Q 1538 -91 948 565 
Q 359 1222 359 2328 
Q 359 3434 948 4092 
Q 1538 4750 2522 4750 
z
" transform="scale(0.015625)"/>
            <path id="DejaVuSans-55" d="M 556 4666 
L 1191 4666 
L 1191 1831 
Q 1191 1081 1462 751 
Q 1734 422 2344 422 
Q 2950 422 3222 751 
Q 3494 1081 3494 1831 
L 3494 4666 
L 4128 4666 
L 4128 1753 
Q 4128 841 3676 375 
Q 3225 -91 2344 -91 
Q 1459 -91 1007 375 
Q 556 841 556 1753 
L 556 4666 
z
" transform="scale(0.015625)"/>
            <path id="DejaVuSans-54" d="M -19 4666 
L 3928 4666 
L 3928 4134 
L 2272 4134 
L 2272 0 
L 1638 0 
L 1638 4134 
L -19 4134 
L -19 4666 
z
" transform="scale(0.015625)"/>
           </defs>
           <use xlink:href="#DejaVuSans-4f"/>
           <use xlink:href="#DejaVuSans-55" x="78.710938"/>
           <use xlink:href="#DejaVuSans-54" x="151.904297"/>
          </g>
         </g>
        </g>
        <g id="xtick_2">
         <g id="line2d_2"/>
         <g id="text_2">
          <!-- SRC -->
          <g transform="translate(528.613416 332.720312) scale(0.1 -0.1)">
           <defs>
            <path id="DejaVuSans-53" d="M 3425 4513 
L 3425 3897 
Q 3066 4069 2747 4153 
Q 2428 4238 2131 4238 
Q 1616 4238 1336 4038 
Q 1056 3838 1056 3469 
Q 1056 3159 1242 3001 
Q 1428 2844 1947 2747 
L 2328 2669 
Q 3034 2534 3370 2195 
Q 3706 1856 3706 1288 
Q 3706 609 3251 259 
Q 2797 -91 1919 -91 
Q 1588 -91 1214 -16 
Q 841 59 441 206 
L 441 856 
Q 825 641 1194 531 
Q 1563 422 1919 422 
Q 2459 422 2753 634 
Q 3047 847 3047 1241 
Q 3047 1584 2836 1778 
Q 2625 1972 2144 2069 
L 1759 2144 
Q 1053 2284 737 2584 
Q 422 2884 422 3419 
Q 422 4038 858 4394 
Q 1294 4750 2059 4750 
Q 2388 4750 2728 4690 
Q 3069 4631 3425 4513 
z
" transform="scale(0.015625)"/>
            <path id="DejaVuSans-52" d="M 2841 2188 
Q 3044 2119 3236 1894 
Q 3428 1669 3622 1275 
L 4263 0 
L 3584 0 
L 2988 1197 
Q 2756 1666 2539 1819 
Q 2322 1972 1947 1972 
L 1259 1972 
L 1259 0 
L 628 0 
L 628 4666 
L 2053 4666 
Q 2853 4666 3247 4331 
Q 3641 3997 3641 3322 
Q 3641 2881 3436 2590 
Q 3231 2300 2841 2188 
z
M 1259 4147 
L 1259 2491 
L 2053 2491 
Q 2509 2491 2742 2702 
Q 2975 2913 2975 3322 
Q 2975 3731 2742 3939 
Q 2509 4147 2053 4147 
L 1259 4147 
z
" transform="scale(0.015625)"/>
            <path id="DejaVuSans-43" d="M 4122 4306 
L 4122 3641 
Q 3803 3938 3442 4084 
Q 3081 4231 2675 4231 
Q 1875 4231 1450 3742 
Q 1025 3253 1025 2328 
Q 1025 1406 1450 917 
Q 1875 428 2675 428 
Q 3081 428 3442 575 
Q 3803 722 4122 1019 
L 4122 359 
Q 3791 134 3420 21 
Q 3050 -91 2638 -91 
Q 1578 -91 968 557 
Q 359 1206 359 2328 
Q 359 3453 968 4101 
Q 1578 4750 2638 4750 
Q 3056 4750 3426 4639 
Q 3797 4528 4122 4306 
z
" transform="scale(0.015625)"/>
           </defs>
           <use xlink:href="#DejaVuSans-53"/>
           <use xlink:href="#DejaVuSans-52" x="63.476562"/>
           <use xlink:href="#DejaVuSans-43" x="127.958984"/>
          </g>
         </g>
        </g>
        <g id="xtick_3">
         <g id="line2d_3"/>
         <g id="text_3">
          <!-- TAR -->
          <g transform="translate(418.147806 332.720312) scale(0.1 -0.1)">
           <defs>
            <path id="DejaVuSans-41" d="M 2188 4044 
L 1331 1722 
L 3047 1722 
L 2188 4044 
z
M 1831 4666 
L 2547 4666 
L 4325 0 
L 3669 0 
L 3244 1197 
L 1141 1197 
L 716 0 
L 50 0 
L 1831 4666 
z
" transform="scale(0.015625)"/>
           </defs>
           <use xlink:href="#DejaVuSans-54"/>
           <use xlink:href="#DejaVuSans-41" x="53.333984"/>
           <use xlink:href="#DejaVuSans-52" x="121.742188"/>
          </g>
         </g>
        </g>
       </g>
       <g id="matplotlib.axis_2">
        <g id="ytick_1">
         <g id="line2d_4">
          <defs>
           <path id="m86410fe5cc" d="M 0 0 
L -3.5 0 
" style="stroke: #000000; stroke-width: 0.8"/>
          </defs>
          <g>
           <use xlink:href="#m86410fe5cc" x="63.290625" y="321.621875" style="stroke: #000000; stroke-width: 0.8"/>
          </g>
         </g>
         <g id="text_4">
          <!-- 0 -->
          <g transform="translate(49.928125 325.421094) scale(0.1 -0.1)">
           <defs>
            <path id="DejaVuSans-30" d="M 2034 4250 
Q 1547 4250 1301 3770 
Q 1056 3291 1056 2328 
Q 1056 1369 1301 889 
Q 1547 409 2034 409 
Q 2525 409 2770 889 
Q 3016 1369 3016 2328 
Q 3016 3291 2770 3770 
Q 2525 4250 2034 4250 
z
M 2034 4750 
Q 2819 4750 3233 4129 
Q 3647 3509 3647 2328 
Q 3647 1150 3233 529 
Q 2819 -91 2034 -91 
Q 1250 -91 836 529 
Q 422 1150 422 2328 
Q 422 3509 836 4129 
Q 1250 4750 2034 4750 
z
" transform="scale(0.015625)"/>
           </defs>
           <use xlink:href="#DejaVuSans-30"/>
          </g>
         </g>
        </g>
        <g id="ytick_2">
         <g id="line2d_5">
          <g>
           <use xlink:href="#m86410fe5cc" x="63.290625" y="286.52059" style="stroke: #000000; stroke-width: 0.8"/>
          </g>
         </g>
         <g id="text_5">
          <!-- 2000 -->
          <g transform="translate(30.840625 290.319809) scale(0.1 -0.1)">
           <defs>
            <path id="DejaVuSans-32" d="M 1228 531 
L 3431 531 
L 3431 0 
L 469 0 
L 469 531 
Q 828 903 1448 1529 
Q 2069 2156 2228 2338 
Q 2531 2678 2651 2914 
Q 2772 3150 2772 3378 
Q 2772 3750 2511 3984 
Q 2250 4219 1831 4219 
Q 1534 4219 1204 4116 
Q 875 4013 500 3803 
L 500 4441 
Q 881 4594 1212 4672 
Q 1544 4750 1819 4750 
Q 2544 4750 2975 4387 
Q 3406 4025 3406 3419 
Q 3406 3131 3298 2873 
Q 3191 2616 2906 2266 
Q 2828 2175 2409 1742 
Q 1991 1309 1228 531 
z
" transform="scale(0.015625)"/>
           </defs>
           <use xlink:href="#DejaVuSans-32"/>
           <use xlink:href="#DejaVuSans-30" x="63.623047"/>
           <use xlink:href="#DejaVuSans-30" x="127.246094"/>
           <use xlink:href="#DejaVuSans-30" x="190.869141"/>
          </g>
         </g>
        </g>
        <g id="ytick_3">
         <g id="line2d_6">
          <g>
           <use xlink:href="#m86410fe5cc" x="63.290625" y="251.419306" style="stroke: #000000; stroke-width: 0.8"/>
          </g>
         </g>
         <g id="text_6">
          <!-- 4000 -->
          <g transform="translate(30.840625 255.218525) scale(0.1 -0.1)">
           <defs>
            <path id="DejaVuSans-34" d="M 2419 4116 
L 825 1625 
L 2419 1625 
L 2419 4116 
z
M 2253 4666 
L 3047 4666 
L 3047 1625 
L 3713 1625 
L 3713 1100 
L 3047 1100 
L 3047 0 
L 2419 0 
L 2419 1100 
L 313 1100 
L 313 1709 
L 2253 4666 
z
" transform="scale(0.015625)"/>
           </defs>
           <use xlink:href="#DejaVuSans-34"/>
           <use xlink:href="#DejaVuSans-30" x="63.623047"/>
           <use xlink:href="#DejaVuSans-30" x="127.246094"/>
           <use xlink:href="#DejaVuSans-30" x="190.869141"/>
          </g>
         </g>
        </g>
        <g id="ytick_4">
         <g id="line2d_7">
          <g>
           <use xlink:href="#m86410fe5cc" x="63.290625" y="216.318021" style="stroke: #000000; stroke-width: 0.8"/>
          </g>
         </g>
         <g id="text_7">
          <!-- 6000 -->
          <g transform="translate(30.840625 220.11724) scale(0.1 -0.1)">
           <defs>
            <path id="DejaVuSans-36" d="M 2113 2584 
Q 1688 2584 1439 2293 
Q 1191 2003 1191 1497 
Q 1191 994 1439 701 
Q 1688 409 2113 409 
Q 2538 409 2786 701 
Q 3034 994 3034 1497 
Q 3034 2003 2786 2293 
Q 2538 2584 2113 2584 
z
M 3366 4563 
L 3366 3988 
Q 3128 4100 2886 4159 
Q 2644 4219 2406 4219 
Q 1781 4219 1451 3797 
Q 1122 3375 1075 2522 
Q 1259 2794 1537 2939 
Q 1816 3084 2150 3084 
Q 2853 3084 3261 2657 
Q 3669 2231 3669 1497 
Q 3669 778 3244 343 
Q 2819 -91 2113 -91 
Q 1303 -91 875 529 
Q 447 1150 447 2328 
Q 447 3434 972 4092 
Q 1497 4750 2381 4750 
Q 2619 4750 2861 4703 
Q 3103 4656 3366 4563 
z
" transform="scale(0.015625)"/>
           </defs>
           <use xlink:href="#DejaVuSans-36"/>
           <use xlink:href="#DejaVuSans-30" x="63.623047"/>
           <use xlink:href="#DejaVuSans-30" x="127.246094"/>
           <use xlink:href="#DejaVuSans-30" x="190.869141"/>
          </g>
         </g>
        </g>
        <g id="ytick_5">
         <g id="line2d_8">
          <g>
           <use xlink:href="#m86410fe5cc" x="63.290625" y="181.216737" style="stroke: #000000; stroke-width: 0.8"/>
          </g>
         </g>
         <g id="text_8">
          <!-- 8000 -->
          <g transform="translate(30.840625 185.015955) scale(0.1 -0.1)">
           <defs>
            <path id="DejaVuSans-38" d="M 2034 2216 
Q 1584 2216 1326 1975 
Q 1069 1734 1069 1313 
Q 1069 891 1326 650 
Q 1584 409 2034 409 
Q 2484 409 2743 651 
Q 3003 894 3003 1313 
Q 3003 1734 2745 1975 
Q 2488 2216 2034 2216 
z
M 1403 2484 
Q 997 2584 770 2862 
Q 544 3141 544 3541 
Q 544 4100 942 4425 
Q 1341 4750 2034 4750 
Q 2731 4750 3128 4425 
Q 3525 4100 3525 3541 
Q 3525 3141 3298 2862 
Q 3072 2584 2669 2484 
Q 3125 2378 3379 2068 
Q 3634 1759 3634 1313 
Q 3634 634 3220 271 
Q 2806 -91 2034 -91 
Q 1263 -91 848 271 
Q 434 634 434 1313 
Q 434 1759 690 2068 
Q 947 2378 1403 2484 
z
M 1172 3481 
Q 1172 3119 1398 2916 
Q 1625 2713 2034 2713 
Q 2441 2713 2670 2916 
Q 2900 3119 2900 3481 
Q 2900 3844 2670 4047 
Q 2441 4250 2034 4250 
Q 1625 4250 1398 4047 
Q 1172 3844 1172 3481 
z
" transform="scale(0.015625)"/>
           </defs>
           <use xlink:href="#DejaVuSans-38"/>
           <use xlink:href="#DejaVuSans-30" x="63.623047"/>
           <use xlink:href="#DejaVuSans-30" x="127.246094"/>
           <use xlink:href="#DejaVuSans-30" x="190.869141"/>
          </g>
         </g>
        </g>
        <g id="ytick_6">
         <g id="line2d_9">
          <g>
           <use xlink:href="#m86410fe5cc" x="63.290625" y="146.115452" style="stroke: #000000; stroke-width: 0.8"/>
          </g>
         </g>
         <g id="text_9">
          <!-- 10000 -->
          <g transform="translate(24.478125 149.914671) scale(0.1 -0.1)">
           <defs>
            <path id="DejaVuSans-31" d="M 794 531 
L 1825 531 
L 1825 4091 
L 703 3866 
L 703 4441 
L 1819 4666 
L 2450 4666 
L 2450 531 
L 3481 531 
L 3481 0 
L 794 0 
L 794 531 
z
" transform="scale(0.015625)"/>
           </defs>
           <use xlink:href="#DejaVuSans-31"/>
           <use xlink:href="#DejaVuSans-30" x="63.623047"/>
           <use xlink:href="#DejaVuSans-30" x="127.246094"/>
           <use xlink:href="#DejaVuSans-30" x="190.869141"/>
           <use xlink:href="#DejaVuSans-30" x="254.492188"/>
          </g>
         </g>
        </g>
        <g id="ytick_7">
         <g id="line2d_10">
          <g>
           <use xlink:href="#m86410fe5cc" x="63.290625" y="111.014167" style="stroke: #000000; stroke-width: 0.8"/>
          </g>
         </g>
         <g id="text_10">
          <!-- 12000 -->
          <g transform="translate(24.478125 114.813386) scale(0.1 -0.1)">
           <use xlink:href="#DejaVuSans-31"/>
           <use xlink:href="#DejaVuSans-32" x="63.623047"/>
           <use xlink:href="#DejaVuSans-30" x="127.246094"/>
           <use xlink:href="#DejaVuSans-30" x="190.869141"/>
           <use xlink:href="#DejaVuSans-30" x="254.492188"/>
          </g>
         </g>
        </g>
        <g id="ytick_8">
         <g id="line2d_11">
          <g>
           <use xlink:href="#m86410fe5cc" x="63.290625" y="75.912883" style="stroke: #000000; stroke-width: 0.8"/>
          </g>
         </g>
         <g id="text_11">
          <!-- 14000 -->
          <g transform="translate(24.478125 79.712102) scale(0.1 -0.1)">
           <use xlink:href="#DejaVuSans-31"/>
           <use xlink:href="#DejaVuSans-34" x="63.623047"/>
           <use xlink:href="#DejaVuSans-30" x="127.246094"/>
           <use xlink:href="#DejaVuSans-30" x="190.869141"/>
           <use xlink:href="#DejaVuSans-30" x="254.492188"/>
          </g>
         </g>
        </g>
        <g id="ytick_9">
         <g id="line2d_12">
          <g>
           <use xlink:href="#m86410fe5cc" x="63.290625" y="40.811598" style="stroke: #000000; stroke-width: 0.8"/>
          </g>
         </g>
         <g id="text_12">
          <!-- 16000 -->
          <g transform="translate(24.478125 44.610817) scale(0.1 -0.1)">
           <use xlink:href="#DejaVuSans-31"/>
           <use xlink:href="#DejaVuSans-36" x="63.623047"/>
           <use xlink:href="#DejaVuSans-30" x="127.246094"/>
           <use xlink:href="#DejaVuSans-30" x="190.869141"/>
           <use xlink:href="#DejaVuSans-30" x="254.492188"/>
          </g>
         </g>
        </g>
        <g id="text_13">
         <!-- time ago (generations) -->
         <g transform="translate(18.398438 223.682031) rotate(-90) scale(0.1 -0.1)">
          <defs>
           <path id="DejaVuSans-74" d="M 1172 4494 
L 1172 3500 
L 2356 3500 
L 2356 3053 
L 1172 3053 
L 1172 1153 
Q 1172 725 1289 603 
Q 1406 481 1766 481 
L 2356 481 
L 2356 0 
L 1766 0 
Q 1100 0 847 248 
Q 594 497 594 1153 
L 594 3053 
L 172 3053 
L 172 3500 
L 594 3500 
L 594 4494 
L 1172 4494 
z
" transform="scale(0.015625)"/>
           <path id="DejaVuSans-69" d="M 603 3500 
L 1178 3500 
L 1178 0 
L 603 0 
L 603 3500 
z
M 603 4863 
L 1178 4863 
L 1178 4134 
L 603 4134 
L 603 4863 
z
" transform="scale(0.015625)"/>
           <path id="DejaVuSans-6d" d="M 3328 2828 
Q 3544 3216 3844 3400 
Q 4144 3584 4550 3584 
Q 5097 3584 5394 3201 
Q 5691 2819 5691 2113 
L 5691 0 
L 5113 0 
L 5113 2094 
Q 5113 2597 4934 2840 
Q 4756 3084 4391 3084 
Q 3944 3084 3684 2787 
Q 3425 2491 3425 1978 
L 3425 0 
L 2847 0 
L 2847 2094 
Q 2847 2600 2669 2842 
Q 2491 3084 2119 3084 
Q 1678 3084 1418 2786 
Q 1159 2488 1159 1978 
L 1159 0 
L 581 0 
L 581 3500 
L 1159 3500 
L 1159 2956 
Q 1356 3278 1631 3431 
Q 1906 3584 2284 3584 
Q 2666 3584 2933 3390 
Q 3200 3197 3328 2828 
z
" transform="scale(0.015625)"/>
           <path id="DejaVuSans-65" d="M 3597 1894 
L 3597 1613 
L 953 1613 
Q 991 1019 1311 708 
Q 1631 397 2203 397 
Q 2534 397 2845 478 
Q 3156 559 3463 722 
L 3463 178 
Q 3153 47 2828 -22 
Q 2503 -91 2169 -91 
Q 1331 -91 842 396 
Q 353 884 353 1716 
Q 353 2575 817 3079 
Q 1281 3584 2069 3584 
Q 2775 3584 3186 3129 
Q 3597 2675 3597 1894 
z
M 3022 2063 
Q 3016 2534 2758 2815 
Q 2500 3097 2075 3097 
Q 1594 3097 1305 2825 
Q 1016 2553 972 2059 
L 3022 2063 
z
" transform="scale(0.015625)"/>
           <path id="DejaVuSans-20" transform="scale(0.015625)"/>
           <path id="DejaVuSans-61" d="M 2194 1759 
Q 1497 1759 1228 1600 
Q 959 1441 959 1056 
Q 959 750 1161 570 
Q 1363 391 1709 391 
Q 2188 391 2477 730 
Q 2766 1069 2766 1631 
L 2766 1759 
L 2194 1759 
z
M 3341 1997 
L 3341 0 
L 2766 0 
L 2766 531 
Q 2569 213 2275 61 
Q 1981 -91 1556 -91 
Q 1019 -91 701 211 
Q 384 513 384 1019 
Q 384 1609 779 1909 
Q 1175 2209 1959 2209 
L 2766 2209 
L 2766 2266 
Q 2766 2663 2505 2880 
Q 2244 3097 1772 3097 
Q 1472 3097 1187 3025 
Q 903 2953 641 2809 
L 641 3341 
Q 956 3463 1253 3523 
Q 1550 3584 1831 3584 
Q 2591 3584 2966 3190 
Q 3341 2797 3341 1997 
z
" transform="scale(0.015625)"/>
           <path id="DejaVuSans-67" d="M 2906 1791 
Q 2906 2416 2648 2759 
Q 2391 3103 1925 3103 
Q 1463 3103 1205 2759 
Q 947 2416 947 1791 
Q 947 1169 1205 825 
Q 1463 481 1925 481 
Q 2391 481 2648 825 
Q 2906 1169 2906 1791 
z
M 3481 434 
Q 3481 -459 3084 -895 
Q 2688 -1331 1869 -1331 
Q 1566 -1331 1297 -1286 
Q 1028 -1241 775 -1147 
L 775 -588 
Q 1028 -725 1275 -790 
Q 1522 -856 1778 -856 
Q 2344 -856 2625 -561 
Q 2906 -266 2906 331 
L 2906 616 
Q 2728 306 2450 153 
Q 2172 0 1784 0 
Q 1141 0 747 490 
Q 353 981 353 1791 
Q 353 2603 747 3093 
Q 1141 3584 1784 3584 
Q 2172 3584 2450 3431 
Q 2728 3278 2906 2969 
L 2906 3500 
L 3481 3500 
L 3481 434 
z
" transform="scale(0.015625)"/>
           <path id="DejaVuSans-6f" d="M 1959 3097 
Q 1497 3097 1228 2736 
Q 959 2375 959 1747 
Q 959 1119 1226 758 
Q 1494 397 1959 397 
Q 2419 397 2687 759 
Q 2956 1122 2956 1747 
Q 2956 2369 2687 2733 
Q 2419 3097 1959 3097 
z
M 1959 3584 
Q 2709 3584 3137 3096 
Q 3566 2609 3566 1747 
Q 3566 888 3137 398 
Q 2709 -91 1959 -91 
Q 1206 -91 779 398 
Q 353 888 353 1747 
Q 353 2609 779 3096 
Q 1206 3584 1959 3584 
z
" transform="scale(0.015625)"/>
           <path id="DejaVuSans-28" d="M 1984 4856 
Q 1566 4138 1362 3434 
Q 1159 2731 1159 2009 
Q 1159 1288 1364 580 
Q 1569 -128 1984 -844 
L 1484 -844 
Q 1016 -109 783 600 
Q 550 1309 550 2009 
Q 550 2706 781 3412 
Q 1013 4119 1484 4856 
L 1984 4856 
z
" transform="scale(0.015625)"/>
           <path id="DejaVuSans-6e" d="M 3513 2113 
L 3513 0 
L 2938 0 
L 2938 2094 
Q 2938 2591 2744 2837 
Q 2550 3084 2163 3084 
Q 1697 3084 1428 2787 
Q 1159 2491 1159 1978 
L 1159 0 
L 581 0 
L 581 3500 
L 1159 3500 
L 1159 2956 
Q 1366 3272 1645 3428 
Q 1925 3584 2291 3584 
Q 2894 3584 3203 3211 
Q 3513 2838 3513 2113 
z
" transform="scale(0.015625)"/>
           <path id="DejaVuSans-72" d="M 2631 2963 
Q 2534 3019 2420 3045 
Q 2306 3072 2169 3072 
Q 1681 3072 1420 2755 
Q 1159 2438 1159 1844 
L 1159 0 
L 581 0 
L 581 3500 
L 1159 3500 
L 1159 2956 
Q 1341 3275 1631 3429 
Q 1922 3584 2338 3584 
Q 2397 3584 2469 3576 
Q 2541 3569 2628 3553 
L 2631 2963 
z
" transform="scale(0.015625)"/>
           <path id="DejaVuSans-73" d="M 2834 3397 
L 2834 2853 
Q 2591 2978 2328 3040 
Q 2066 3103 1784 3103 
Q 1356 3103 1142 2972 
Q 928 2841 928 2578 
Q 928 2378 1081 2264 
Q 1234 2150 1697 2047 
L 1894 2003 
Q 2506 1872 2764 1633 
Q 3022 1394 3022 966 
Q 3022 478 2636 193 
Q 2250 -91 1575 -91 
Q 1294 -91 989 -36 
Q 684 19 347 128 
L 347 722 
Q 666 556 975 473 
Q 1284 391 1588 391 
Q 1994 391 2212 530 
Q 2431 669 2431 922 
Q 2431 1156 2273 1281 
Q 2116 1406 1581 1522 
L 1381 1569 
Q 847 1681 609 1914 
Q 372 2147 372 2553 
Q 372 3047 722 3315 
Q 1072 3584 1716 3584 
Q 2034 3584 2315 3537 
Q 2597 3491 2834 3397 
z
" transform="scale(0.015625)"/>
           <path id="DejaVuSans-29" d="M 513 4856 
L 1013 4856 
Q 1481 4119 1714 3412 
Q 1947 2706 1947 2009 
Q 1947 1309 1714 600 
Q 1481 -109 1013 -844 
L 513 -844 
Q 928 -128 1133 580 
Q 1338 1288 1338 2009 
Q 1338 2731 1133 3434 
Q 928 4138 513 4856 
z
" transform="scale(0.015625)"/>
          </defs>
          <use xlink:href="#DejaVuSans-74"/>
          <use xlink:href="#DejaVuSans-69" x="39.208984"/>
          <use xlink:href="#DejaVuSans-6d" x="66.992188"/>
          <use xlink:href="#DejaVuSans-65" x="164.404297"/>
          <use xlink:href="#DejaVuSans-20" x="225.927734"/>
          <use xlink:href="#DejaVuSans-61" x="257.714844"/>
          <use xlink:href="#DejaVuSans-67" x="318.994141"/>
          <use xlink:href="#DejaVuSans-6f" x="382.470703"/>
          <use xlink:href="#DejaVuSans-20" x="443.652344"/>
          <use xlink:href="#DejaVuSans-28" x="475.439453"/>
          <use xlink:href="#DejaVuSans-67" x="514.453125"/>
          <use xlink:href="#DejaVuSans-65" x="577.929688"/>
          <use xlink:href="#DejaVuSans-6e" x="639.453125"/>
          <use xlink:href="#DejaVuSans-65" x="702.832031"/>
          <use xlink:href="#DejaVuSans-72" x="764.355469"/>
          <use xlink:href="#DejaVuSans-61" x="805.46875"/>
          <use xlink:href="#DejaVuSans-74" x="866.748047"/>
          <use xlink:href="#DejaVuSans-69" x="905.957031"/>
          <use xlink:href="#DejaVuSans-6f" x="933.740234"/>
          <use xlink:href="#DejaVuSans-6e" x="994.921875"/>
          <use xlink:href="#DejaVuSans-73" x="1058.300781"/>
          <use xlink:href="#DejaVuSans-29" x="1110.400391"/>
         </g>
        </g>
       </g>
       <g id="patch_7">
        <path d="M 249.474869 173.775264 
L 248.474869 173.743828 
L 247.474869 173.706888 
L 246.474869 173.609141 
L 245.474869 173.576619 
L 244.474869 173.502995 
L 243.474869 173.464429 
L 242.474869 173.429016 
L 241.474869 173.371376 
L 240.474869 173.30099 
L 239.474869 173.249026 
L 238.474869 173.189936 
L 237.474869 173.101615 
L 236.474869 173.055471 
L 235.474869 173.01306 
L 234.474869 172.982567 
L 233.474869 172.956522 
L 232.474869 172.935322 
L 231.474869 172.881021 
L 230.474869 172.853083 
L 229.474869 172.823359 
L 228.474869 172.797965 
L 227.474869 172.786764 
L 226.474869 172.77664 
L 225.474869 172.776845 
L 224.474869 172.786354 
L 223.474869 172.798008 
L 222.474869 172.829037 
L 221.474869 172.840205 
L 220.474869 172.870323 
L 219.474869 172.9301 
L 218.474869 172.967291 
L 216.714408 173.006387 
" clip-path="url(#p8d5c8df3f3)" style="fill: none; stroke: #ffffff; stroke-width: 3; stroke-linecap: round"/>
        <path d="M 249.474869 173.775264 
L 248.474869 173.743828 
L 247.474869 173.706888 
L 246.474869 173.609141 
L 245.474869 173.576619 
L 244.474869 173.502995 
L 243.474869 173.464429 
L 242.474869 173.429016 
L 241.474869 173.371376 
L 240.474869 173.30099 
L 239.474869 173.249026 
L 238.474869 173.189936 
L 237.474869 173.101615 
L 236.474869 173.055471 
L 235.474869 173.01306 
L 234.474869 172.982567 
L 233.474869 172.956522 
L 232.474869 172.935322 
L 231.474869 172.881021 
L 230.474869 172.853083 
L 229.474869 172.823359 
L 228.474869 172.797965 
L 227.474869 172.786764 
L 226.474869 172.77664 
L 225.474869 172.776845 
L 224.474869 172.786354 
L 223.474869 172.798008 
L 222.474869 172.829037 
L 221.474869 172.840205 
L 220.474869 172.870323 
L 219.474869 172.9301 
L 218.474869 172.967291 
L 216.714408 173.006387 
" clip-path="url(#p8d5c8df3f3)" style="fill: none; stroke: #1f77b4; stroke-linecap: round"/>
        <path d="M 220.714408 175.775264 
L 219.83404 175.299933 
L 218.956133 174.819679 
L 218.105419 174.285038 
L 216.803245 173.597591 
L 217.730598 173.571576 
L 218.642272 173.158857 
L 219.552537 172.743318 
L 220.895032 172.136513 
L 220.240134 172.775264 
L 220.188169 173.775264 
L 220.12908 175.775264 
z
" clip-path="url(#p8d5c8df3f3)" style="fill: #ffffff; stroke: #ffffff; stroke-width: 3; stroke-linecap: round"/>
        <path d="M 220.714408 175.775264 
L 219.83404 175.299933 
L 218.956133 174.819679 
L 218.105419 174.285038 
L 216.803245 173.597591 
L 217.730598 173.571576 
L 218.642272 173.158857 
L 219.552537 172.743318 
L 220.895032 172.136513 
L 220.240134 172.775264 
L 220.188169 173.775264 
L 220.12908 175.775264 
z
" clip-path="url(#p8d5c8df3f3)" style="fill: #ffffff; stroke: #1f77b4; stroke-linecap: round"/>
        <g id="patch_8">
         <path d="M 384.35179 72.964375 
L 385.35179 72.995811 
L 386.35179 73.032752 
L 387.35179 73.130498 
L 388.35179 73.16302 
L 389.35179 73.236645 
L 390.35179 73.27521 
L 391.35179 73.310623 
L 392.35179 73.368263 
L 393.35179 73.438649 
L 394.35179 73.490614 
L 395.35179 73.549703 
L 396.35179 73.638024 
L 397.35179 73.684169 
L 398.35179 73.72658 
L 399.35179 73.757072 
L 400.35179 73.783117 
L 401.35179 73.804317 
L 402.35179 73.858618 
L 403.35179 73.886556 
L 404.35179 73.91628 
L 405.35179 73.941675 
L 406.35179 73.952875 
L 407.35179 73.962999 
L 408.35179 73.962795 
L 409.35179 73.953285 
L 410.35179 73.941631 
L 411.35179 73.910602 
L 412.35179 73.899434 
L 413.35179 73.869317 
L 414.35179 73.80954 
L 415.35179 73.772348 
L 416.35179 73.733252 
L 417.35179 73.690812 
L 418.35179 73.658047 
L 419.35179 73.590621 
L 420.35179 73.551495 
L 421.35179 73.50882 
L 422.35179 73.43824 
L 423.35179 73.401849 
L 424.35179 73.343446 
L 425.35179 73.232493 
L 426.35179 73.161835 
L 427.35179 73.048895 
L 428.35179 73.003122 
L 429.35179 72.941839 
L 430.35179 72.89334 
L 431.35179 72.812517 
L 432.35179 72.693998 
L 433.35179 72.623787 
L 434.35179 72.540525 
L 435.35179 72.507383 
L 436.35179 72.456146 
L 437.35179 72.387747 
L 438.35179 72.321532 
L 439.35179 72.244615 
L 440.35179 72.217299 
L 441.35179 72.190822 
L 442.35179 72.168171 
L 443.35179 72.14864 
L 444.35179 72.122246 
L 445.35179 72.072475 
L 446.35179 72.037402 
L 447.35179 72.001536 
L 448.35179 71.986169 
L 449.35179 71.9704 
L 450.35179 71.966987 
L 451.35179 71.96457 
L 452.35179 71.965056 
L 453.35179 71.966985 
L 454.35179 71.980242 
L 455.35179 71.988633 
L 456.35179 72.010169 
L 457.35179 72.033202 
L 458.35179 72.050435 
L 459.35179 72.068898 
L 460.35179 72.08935 
L 461.35179 72.10595 
L 462.35179 72.168729 
L 463.35179 72.243994 
L 464.35179 72.276633 
L 465.35179 72.344197 
L 466.35179 72.398244 
L 467.35179 72.431948 
L 468.35179 72.522074 
L 469.35179 72.550609 
L 470.35179 72.582095 
L 471.35179 72.613106 
L 472.35179 72.667914 
L 473.35179 72.732501 
L 474.35179 72.770697 
L 475.35179 72.866631 
L 476.35179 72.915889 
L 477.35179 72.959958 
L 478.35179 73.000082 
L 479.35179 73.108449 
L 480.35179 73.150077 
L 481.35179 73.212219 
L 482.35179 73.282181 
L 483.35179 73.386685 
L 484.35179 73.423673 
L 485.35179 73.46955 
L 486.35179 73.538045 
L 487.35179 73.586791 
L 488.35179 73.664388 
L 489.35179 73.694929 
L 490.35179 73.764443 
L 491.35179 73.788416 
L 492.35179 73.817038 
L 493.35179 73.858831 
L 494.84741 73.880407 
" clip-path="url(#p8d5c8df3f3)" style="fill: none; stroke: #ffffff; stroke-width: 3; stroke-linecap: round"/>
         <path d="M 384.35179 72.964375 
L 385.35179 72.995811 
L 386.35179 73.032752 
L 387.35179 73.130498 
L 388.35179 73.16302 
L 389.35179 73.236645 
L 390.35179 73.27521 
L 391.35179 73.310623 
L 392.35179 73.368263 
L 393.35179 73.438649 
L 394.35179 73.490614 
L 395.35179 73.549703 
L 396.35179 73.638024 
L 397.35179 73.684169 
L 398.35179 73.72658 
L 399.35179 73.757072 
L 400.35179 73.783117 
L 401.35179 73.804317 
L 402.35179 73.858618 
L 403.35179 73.886556 
L 404.35179 73.91628 
L 405.35179 73.941675 
L 406.35179 73.952875 
L 407.35179 73.962999 
L 408.35179 73.962795 
L 409.35179 73.953285 
L 410.35179 73.941631 
L 411.35179 73.910602 
L 412.35179 73.899434 
L 413.35179 73.869317 
L 414.35179 73.80954 
L 415.35179 73.772348 
L 416.35179 73.733252 
L 417.35179 73.690812 
L 418.35179 73.658047 
L 419.35179 73.590621 
L 420.35179 73.551495 
L 421.35179 73.50882 
L 422.35179 73.43824 
L 423.35179 73.401849 
L 424.35179 73.343446 
L 425.35179 73.232493 
L 426.35179 73.161835 
L 427.35179 73.048895 
L 428.35179 73.003122 
L 429.35179 72.941839 
L 430.35179 72.89334 
L 431.35179 72.812517 
L 432.35179 72.693998 
L 433.35179 72.623787 
L 434.35179 72.540525 
L 435.35179 72.507383 
L 436.35179 72.456146 
L 437.35179 72.387747 
L 438.35179 72.321532 
L 439.35179 72.244615 
L 440.35179 72.217299 
L 441.35179 72.190822 
L 442.35179 72.168171 
L 443.35179 72.14864 
L 444.35179 72.122246 
L 445.35179 72.072475 
L 446.35179 72.037402 
L 447.35179 72.001536 
L 448.35179 71.986169 
L 449.35179 71.9704 
L 450.35179 71.966987 
L 451.35179 71.96457 
L 452.35179 71.965056 
L 453.35179 71.966985 
L 454.35179 71.980242 
L 455.35179 71.988633 
L 456.35179 72.010169 
L 457.35179 72.033202 
L 458.35179 72.050435 
L 459.35179 72.068898 
L 460.35179 72.08935 
L 461.35179 72.10595 
L 462.35179 72.168729 
L 463.35179 72.243994 
L 464.35179 72.276633 
L 465.35179 72.344197 
L 466.35179 72.398244 
L 467.35179 72.431948 
L 468.35179 72.522074 
L 469.35179 72.550609 
L 470.35179 72.582095 
L 471.35179 72.613106 
L 472.35179 72.667914 
L 473.35179 72.732501 
L 474.35179 72.770697 
L 475.35179 72.866631 
L 476.35179 72.915889 
L 477.35179 72.959958 
L 478.35179 73.000082 
L 479.35179 73.108449 
L 480.35179 73.150077 
L 481.35179 73.212219 
L 482.35179 73.282181 
L 483.35179 73.386685 
L 484.35179 73.423673 
L 485.35179 73.46955 
L 486.35179 73.538045 
L 487.35179 73.586791 
L 488.35179 73.664388 
L 489.35179 73.694929 
L 490.35179 73.764443 
L 491.35179 73.788416 
L 492.35179 73.817038 
L 493.35179 73.858831 
L 494.84741 73.880407 
" clip-path="url(#p8d5c8df3f3)" style="fill: none; stroke: #1f77b4; stroke-linecap: round"/>
         <path d="M 490.84741 70.964375 
L 491.727779 71.439706 
L 492.605686 71.91996 
L 493.456399 72.454601 
L 494.758574 73.142048 
L 493.831221 73.168063 
L 492.919546 73.580783 
L 492.009282 73.996322 
L 490.666786 74.603126 
L 491.321685 73.964375 
L 491.373649 72.964375 
L 491.432739 70.964375 
z
" clip-path="url(#p8d5c8df3f3)" style="fill: #ffffff; stroke: #ffffff; stroke-width: 3; stroke-linecap: round"/>
         <path d="M 490.84741 70.964375 
L 491.727779 71.439706 
L 492.605686 71.91996 
L 493.456399 72.454601 
L 494.758574 73.142048 
L 493.831221 73.168063 
L 492.919546 73.580783 
L 492.009282 73.996322 
L 490.666786 74.603126 
L 491.321685 73.964375 
L 491.373649 72.964375 
L 491.432739 70.964375 
z
" clip-path="url(#p8d5c8df3f3)" style="fill: #ffffff; stroke: #1f77b4; stroke-linecap: round"/>
         <g id="patch_9">
          <path d="M 215.595548 202.031798 
L 216.595548 202.063235 
L 217.595548 202.100175 
L 218.595548 202.197922 
L 219.595548 202.230443 
L 220.595548 202.304068 
L 221.595548 202.342634 
L 222.595548 202.378047 
L 223.595548 202.435687 
L 224.595548 202.506073 
L 225.595548 202.558037 
L 226.595548 202.617127 
L 227.595548 202.705448 
L 228.595548 202.751592 
L 229.595548 202.794003 
L 230.595548 202.824496 
L 231.595548 202.850541 
L 232.595548 202.871741 
L 233.595548 202.926042 
L 234.595548 202.953979 
L 235.595548 202.983703 
L 236.595548 203.009098 
L 237.595548 203.020299 
L 238.595548 203.030423 
L 239.595548 203.030218 
L 240.595548 203.020708 
L 241.595548 203.009055 
L 242.595548 202.978026 
L 243.595548 202.966858 
L 244.595548 202.93674 
L 245.595548 202.876963 
L 246.595548 202.839772 
L 247.595548 202.800676 
L 248.595548 202.758236 
L 249.595548 202.725471 
L 250.595548 202.658044 
L 251.595548 202.618918 
L 252.595548 202.576244 
L 253.595548 202.505663 
L 254.595548 202.469272 
L 255.595548 202.410869 
L 256.595548 202.299917 
L 257.595548 202.229258 
L 258.595548 202.116318 
L 259.595548 202.070546 
L 260.595548 202.009262 
L 261.595548 201.960763 
L 262.595548 201.87994 
L 263.595548 201.761421 
L 264.595548 201.691211 
L 265.595548 201.607948 
L 266.595548 201.574807 
L 267.595548 201.523569 
L 268.595548 201.455171 
L 269.595548 201.388955 
L 270.595548 201.312038 
L 271.595548 201.284723 
L 272.595548 201.258245 
L 273.595548 201.235595 
L 274.595548 201.216063 
L 275.595548 201.18967 
L 276.595548 201.139899 
L 277.595548 201.104826 
L 278.595548 201.06896 
L 279.595548 201.053593 
L 280.595548 201.037823 
L 281.595548 201.034411 
L 282.595548 201.031993 
L 283.595548 201.032479 
L 284.595548 201.034409 
L 285.595548 201.047666 
L 286.595548 201.056056 
L 287.595548 201.077593 
L 288.595548 201.100625 
L 289.595548 201.117859 
L 290.595548 201.136321 
L 291.595548 201.156774 
L 292.595548 201.173374 
L 293.595548 201.236152 
L 294.595548 201.311417 
L 295.595548 201.344057 
L 296.595548 201.41162 
L 297.595548 201.465667 
L 298.595548 201.499372 
L 299.595548 201.589497 
L 300.595548 201.618032 
L 301.595548 201.649519 
L 302.595548 201.680529 
L 303.595548 201.735337 
L 304.595548 201.799925 
L 305.595548 201.83812 
L 306.595548 201.934054 
L 307.595548 201.983312 
L 308.595548 202.027382 
L 309.595548 202.067505 
L 310.595548 202.175872 
L 311.595548 202.217501 
L 312.595548 202.279642 
L 313.595548 202.349604 
L 314.595548 202.454109 
L 315.595548 202.491096 
L 316.595548 202.536974 
L 317.595548 202.605468 
L 318.595548 202.654214 
L 319.595548 202.731812 
L 320.595548 202.762352 
L 321.595548 202.831867 
L 322.595548 202.85584 
L 323.595548 202.884461 
L 324.595548 202.926254 
L 325.595548 202.94783 
L 326.595548 202.961778 
L 327.595548 202.988501 
L 328.595548 202.997811 
L 329.595548 203.010257 
L 330.595548 203.021312 
L 331.595548 203.026977 
L 332.595548 203.03174 
L 333.595548 203.026193 
L 334.595548 203.012905 
L 335.595548 203.005387 
L 336.595548 202.980602 
L 337.595548 202.957034 
L 338.595548 202.920853 
L 339.595548 202.894891 
L 340.595548 202.87257 
L 341.595548 202.80381 
L 342.595548 202.729275 
L 343.595548 202.635295 
L 344.595548 202.584243 
L 345.595548 202.530309 
L 346.595548 202.495059 
L 347.595548 202.388971 
L 348.595548 202.336706 
L 349.595548 202.2998 
L 350.595548 202.268769 
L 351.595548 202.207613 
L 352.595548 202.140193 
L 353.595548 202.091288 
L 354.595548 202.026095 
L 355.595548 201.987908 
L 356.595548 201.945912 
L 357.595548 201.903894 
L 358.595548 201.844378 
L 359.595548 201.731218 
L 360.595548 201.678967 
L 361.595548 201.63955 
L 362.595548 201.592448 
L 363.595548 201.535669 
L 364.595548 201.503006 
L 365.595548 201.466828 
L 366.595548 201.434737 
L 367.595548 201.400457 
L 368.595548 201.34208 
L 369.595548 201.296895 
L 370.595548 201.267271 
L 371.595548 201.216885 
L 372.595548 201.191687 
L 373.595548 201.170636 
L 374.595548 201.135668 
L 375.595548 201.111378 
L 376.595548 201.097311 
L 377.595548 201.07837 
L 378.595548 201.062708 
L 379.595548 201.050156 
L 380.595548 201.044321 
L 381.595548 201.037438 
L 382.595548 201.032264 
L 383.595548 201.034047 
L 384.595548 201.036773 
L 385.595548 201.047926 
L 386.595548 201.076162 
L 387.595548 201.119949 
L 388.595548 201.140638 
L 389.595548 201.181612 
L 390.595548 201.221687 
L 391.595548 201.240797 
L 392.595548 201.263305 
L 393.595548 201.329957 
L 394.595548 201.379666 
L 395.595548 201.453373 
L 396.595548 201.484687 
L 397.595548 201.561309 
L 399.141303 201.599607 
" clip-path="url(#p8d5c8df3f3)" style="fill: none; stroke: #ffffff; stroke-width: 3; stroke-linecap: round"/>
          <path d="M 215.595548 202.031798 
L 216.595548 202.063235 
L 217.595548 202.100175 
L 218.595548 202.197922 
L 219.595548 202.230443 
L 220.595548 202.304068 
L 221.595548 202.342634 
L 222.595548 202.378047 
L 223.595548 202.435687 
L 224.595548 202.506073 
L 225.595548 202.558037 
L 226.595548 202.617127 
L 227.595548 202.705448 
L 228.595548 202.751592 
L 229.595548 202.794003 
L 230.595548 202.824496 
L 231.595548 202.850541 
L 232.595548 202.871741 
L 233.595548 202.926042 
L 234.595548 202.953979 
L 235.595548 202.983703 
L 236.595548 203.009098 
L 237.595548 203.020299 
L 238.595548 203.030423 
L 239.595548 203.030218 
L 240.595548 203.020708 
L 241.595548 203.009055 
L 242.595548 202.978026 
L 243.595548 202.966858 
L 244.595548 202.93674 
L 245.595548 202.876963 
L 246.595548 202.839772 
L 247.595548 202.800676 
L 248.595548 202.758236 
L 249.595548 202.725471 
L 250.595548 202.658044 
L 251.595548 202.618918 
L 252.595548 202.576244 
L 253.595548 202.505663 
L 254.595548 202.469272 
L 255.595548 202.410869 
L 256.595548 202.299917 
L 257.595548 202.229258 
L 258.595548 202.116318 
L 259.595548 202.070546 
L 260.595548 202.009262 
L 261.595548 201.960763 
L 262.595548 201.87994 
L 263.595548 201.761421 
L 264.595548 201.691211 
L 265.595548 201.607948 
L 266.595548 201.574807 
L 267.595548 201.523569 
L 268.595548 201.455171 
L 269.595548 201.388955 
L 270.595548 201.312038 
L 271.595548 201.284723 
L 272.595548 201.258245 
L 273.595548 201.235595 
L 274.595548 201.216063 
L 275.595548 201.18967 
L 276.595548 201.139899 
L 277.595548 201.104826 
L 278.595548 201.06896 
L 279.595548 201.053593 
L 280.595548 201.037823 
L 281.595548 201.034411 
L 282.595548 201.031993 
L 283.595548 201.032479 
L 284.595548 201.034409 
L 285.595548 201.047666 
L 286.595548 201.056056 
L 287.595548 201.077593 
L 288.595548 201.100625 
L 289.595548 201.117859 
L 290.595548 201.136321 
L 291.595548 201.156774 
L 292.595548 201.173374 
L 293.595548 201.236152 
L 294.595548 201.311417 
L 295.595548 201.344057 
L 296.595548 201.41162 
L 297.595548 201.465667 
L 298.595548 201.499372 
L 299.595548 201.589497 
L 300.595548 201.618032 
L 301.595548 201.649519 
L 302.595548 201.680529 
L 303.595548 201.735337 
L 304.595548 201.799925 
L 305.595548 201.83812 
L 306.595548 201.934054 
L 307.595548 201.983312 
L 308.595548 202.027382 
L 309.595548 202.067505 
L 310.595548 202.175872 
L 311.595548 202.217501 
L 312.595548 202.279642 
L 313.595548 202.349604 
L 314.595548 202.454109 
L 315.595548 202.491096 
L 316.595548 202.536974 
L 317.595548 202.605468 
L 318.595548 202.654214 
L 319.595548 202.731812 
L 320.595548 202.762352 
L 321.595548 202.831867 
L 322.595548 202.85584 
L 323.595548 202.884461 
L 324.595548 202.926254 
L 325.595548 202.94783 
L 326.595548 202.961778 
L 327.595548 202.988501 
L 328.595548 202.997811 
L 329.595548 203.010257 
L 330.595548 203.021312 
L 331.595548 203.026977 
L 332.595548 203.03174 
L 333.595548 203.026193 
L 334.595548 203.012905 
L 335.595548 203.005387 
L 336.595548 202.980602 
L 337.595548 202.957034 
L 338.595548 202.920853 
L 339.595548 202.894891 
L 340.595548 202.87257 
L 341.595548 202.80381 
L 342.595548 202.729275 
L 343.595548 202.635295 
L 344.595548 202.584243 
L 345.595548 202.530309 
L 346.595548 202.495059 
L 347.595548 202.388971 
L 348.595548 202.336706 
L 349.595548 202.2998 
L 350.595548 202.268769 
L 351.595548 202.207613 
L 352.595548 202.140193 
L 353.595548 202.091288 
L 354.595548 202.026095 
L 355.595548 201.987908 
L 356.595548 201.945912 
L 357.595548 201.903894 
L 358.595548 201.844378 
L 359.595548 201.731218 
L 360.595548 201.678967 
L 361.595548 201.63955 
L 362.595548 201.592448 
L 363.595548 201.535669 
L 364.595548 201.503006 
L 365.595548 201.466828 
L 366.595548 201.434737 
L 367.595548 201.400457 
L 368.595548 201.34208 
L 369.595548 201.296895 
L 370.595548 201.267271 
L 371.595548 201.216885 
L 372.595548 201.191687 
L 373.595548 201.170636 
L 374.595548 201.135668 
L 375.595548 201.111378 
L 376.595548 201.097311 
L 377.595548 201.07837 
L 378.595548 201.062708 
L 379.595548 201.050156 
L 380.595548 201.044321 
L 381.595548 201.037438 
L 382.595548 201.032264 
L 383.595548 201.034047 
L 384.595548 201.036773 
L 385.595548 201.047926 
L 386.595548 201.076162 
L 387.595548 201.119949 
L 388.595548 201.140638 
L 389.595548 201.181612 
L 390.595548 201.221687 
L 391.595548 201.240797 
L 392.595548 201.263305 
L 393.595548 201.329957 
L 394.595548 201.379666 
L 395.595548 201.453373 
L 396.595548 201.484687 
L 397.595548 201.561309 
L 399.141303 201.599607 
" clip-path="url(#p8d5c8df3f3)" style="fill: none; stroke: #ff7f0e; stroke-linecap: round"/>
          <path d="M 395.141303 200.031798 
L 396.021672 200.50713 
L 396.899579 200.987384 
L 397.750292 201.522024 
L 399.052466 202.209472 
L 398.125113 202.235487 
L 397.213439 202.648206 
L 396.303175 203.063745 
L 394.960679 203.67055 
L 395.615578 203.031798 
L 395.667542 202.031798 
L 395.726632 200.031798 
z
" clip-path="url(#p8d5c8df3f3)" style="fill: #ffffff; stroke: #ffffff; stroke-width: 3; stroke-linecap: round"/>
          <path d="M 395.141303 200.031798 
L 396.021672 200.50713 
L 396.899579 200.987384 
L 397.750292 201.522024 
L 399.052466 202.209472 
L 398.125113 202.235487 
L 397.213439 202.648206 
L 396.303175 203.063745 
L 394.960679 203.67055 
L 395.615578 203.031798 
L 395.667542 202.031798 
L 395.726632 200.031798 
z
" clip-path="url(#p8d5c8df3f3)" style="fill: #ffffff; stroke: #ff7f0e; stroke-linecap: round"/>
          <path d="M 458.558889 288.626667 
" clip-path="url(#p8d5c8df3f3)" style="fill: none; stroke-dasharray: 3.7,1.6; stroke-dashoffset: 0; stroke: #2ca02c"/>
          <path d="M 457.558889 288.626667 
L 459.558889 289.626667 
L 459.558889 287.626667 
z
" clip-path="url(#p8d5c8df3f3)" style="fill: #2ca02c; stroke: #2ca02c; stroke-linejoin: miter"/>
          <g id="patch_10">
           <path d="M 63.290625 321.621875 
L 63.290625 10.8 
" style="fill: none; stroke: #000000; stroke-width: 0.8; stroke-linejoin: miter; stroke-linecap: square"/>
          </g>
          <g id="text_14">
           <g id="patch_11">
            <path d="M 306.261883 99.126695 
L 327.566571 99.126695 
Q 329.566571 99.126695 329.566571 97.126695 
L 329.566571 87.44857 
Q 329.566571 85.44857 327.566571 85.44857 
L 306.261883 85.44857 
Q 304.261883 85.44857 304.261883 87.44857 
L 304.261883 97.126695 
Q 304.261883 99.126695 306.261883 99.126695 
z
" style="fill: #ffffff; opacity: 0.6"/>
           </g>
           <!-- ANC -->
           <g transform="translate(306.261883 95.047007) scale(0.1 -0.1)">
            <defs>
             <path id="DejaVuSans-4e" d="M 628 4666 
L 1478 4666 
L 3547 763 
L 3547 4666 
L 4159 4666 
L 4159 0 
L 3309 0 
L 1241 3903 
L 1241 0 
L 628 0 
L 628 4666 
z
" transform="scale(0.015625)"/>
            </defs>
            <use xlink:href="#DejaVuSans-41"/>
            <use xlink:href="#DejaVuSans-4e" x="68.408203"/>
            <use xlink:href="#DejaVuSans-43" x="143.212891"/>
           </g>
          </g>
         </g>
        </g>
        <defs>
         <clipPath id="p8d5c8df3f3">
          <rect x="63.290625" y="10.8" width="540.309375" height="310.821875"/>
         </clipPath>
        </defs>
       </g>
      </g>
     </g>
    </g>
   </g>
  </g>
 </g>
</svg>
