<?xml version="1.0" encoding="utf-8" standalone="no"?>
<!DOCTYPE svg PUBLIC "-//W3C//DTD SVG 1.1//EN"
  "http://www.w3.org/Graphics/SVG/1.1/DTD/svg11.dtd">
<svg xmlns:xlink="http://www.w3.org/1999/xlink" width="614.4pt" height="345.6pt" viewBox="0 0 614.4 345.6" xmlns="http://www.w3.org/2000/svg" version="1.1">
 <metadata>
  <rdf:RDF xmlns:dc="http://purl.org/dc/elements/1.1/" xmlns:cc="http://creativecommons.org/ns#" xmlns:rdf="http://www.w3.org/1999/02/22-rdf-syntax-ns#">
   <cc:Work>
    <dc:type rdf:resource="http://purl.org/dc/dcmitype/StillImage"/>
    <dc:date>2024-04-17T19:48:54.053671</dc:date>
    <dc:format>image/svg+xml</dc:format>
    <dc:creator>
     <cc:Agent>
      <dc:title>Matplotlib v3.7.1, https://matplotlib.org/</dc:title>
     </cc:Agent>
    </dc:creator>
   </cc:Work>
  </rdf:RDF>
 </metadata>
 <defs>
  <style type="text/css">*{stroke-linejoin: round; stroke-linecap: butt}</style>
 </defs>
 <g id="figure_1">
  <g id="patch_1">
   <path d="M 0 345.6 
L 614.4 345.6 
L 614.4 0 
L 0 0 
z
" style="fill: #ffffff"/>
  </g>
  <g id="axes_1">
   <g id="patch_2">
    <path d="M 63.290625 321.621875 
L 603.6 321.621875 
L 603.6 10.8 
L 63.290625 10.8 
z
" style="fill: #ffffff"/>
   </g>
   <path d="M 526.339653 300.090323 
L 525.339653 300.058887 
L 524.339653 300.021947 
L 523.339653 299.9242 
L 522.339653 299.891679 
L 521.339653 299.818054 
L 520.339653 299.779488 
L 519.339653 299.744075 
L 518.339653 299.686435 
L 517.339653 299.616049 
L 516.339653 299.564085 
L 515.339653 299.504995 
L 514.339653 299.416674 
L 513.339653 299.37053 
L 512.339653 299.328119 
L 511.339653 299.297626 
L 510.339653 299.271581 
L 509.339653 299.250381 
L 508.339653 299.19608 
L 507.339653 299.168142 
L 506.339653 299.138418 
L 505.339653 299.113024 
L 504.339653 299.101823 
L 503.339653 299.091699 
L 502.339653 299.091904 
L 501.339653 299.101414 
L 500.339653 299.113067 
L 499.339653 299.144096 
L 498.339653 299.155264 
L 497.339653 299.185382 
L 496.339653 299.245159 
L 495.339653 299.28235 
L 494.339653 299.321446 
L 493.339653 299.363886 
L 492.339653 299.396651 
L 491.339653 299.464078 
L 490.339653 299.503204 
L 489.339653 299.545878 
L 488.339653 299.616459 
L 487.339653 299.65285 
L 486.339653 299.711253 
L 485.339653 299.822205 
L 484.339653 299.892864 
L 483.339653 300.005803 
L 482.339653 300.051576 
L 481.339653 300.11286 
L 480.339653 300.161359 
L 479.339653 300.242182 
L 478.339653 300.3607 
L 477.339653 300.430911 
L 476.339653 300.514174 
L 475.339653 300.547315 
L 474.339653 300.598553 
L 473.339653 300.666951 
L 472.339653 300.733166 
L 471.339653 300.810084 
L 470.339653 300.837399 
L 469.339653 300.863877 
L 468.339653 300.886527 
L 467.339653 300.906058 
L 466.339653 300.932452 
L 465.339653 300.982223 
L 464.339653 301.017296 
L 463.339653 301.053162 
L 462.339653 301.068529 
L 461.339653 301.084299 
L 460.339653 301.087711 
L 459.339653 301.090129 
L 458.339653 301.089643 
L 457.339653 301.087713 
L 455.626026 301.074456 
" clip-path="url(#p99746b2969)" style="fill: none; stroke-dasharray: 3.7,1.6; stroke-dashoffset: 0; stroke: #2ca02c"/>
   <g id="patch_3">
    <path d="M 293.419701 10.8 
L 293.419701 175.181208 
M 360.179124 10.8 
L 360.179124 175.181208 
" clip-path="url(#p99746b2969)" style="fill: none; stroke: #ffffff; stroke-width: 3; stroke-linejoin: miter"/>
    <path d="M 293.419701 10.8 
L 293.419701 175.181208 
M 360.179124 10.8 
L 360.179124 175.181208 
" clip-path="url(#p99746b2969)" style="fill: none; stroke: #1f77b4; stroke-linejoin: miter"/>
    <g id="PolyCollection_1">
     <path d="M 360.179124 10.8 
L 293.419701 10.8 
L 293.419701 175.181208 
L 360.179124 175.181208 
L 360.179124 175.181208 
L 360.179124 10.8 
z
" clip-path="url(#p99746b2969)" style="fill: #1f77b4; fill-opacity: 0.5"/>
    </g>
    <g id="patch_4">
     <path d="M 87.850142 175.181208 
L 87.850142 321.621875 
M 222.860379 175.181208 
L 222.860379 321.621875 
" clip-path="url(#p99746b2969)" style="fill: none; stroke: #ffffff; stroke-width: 3; stroke-linejoin: miter"/>
     <path d="M 87.850142 175.181208 
L 87.850142 321.621875 
M 222.860379 175.181208 
L 222.860379 321.621875 
" clip-path="url(#p99746b2969)" style="fill: none; stroke: #ff7f0e; stroke-linejoin: miter"/>
     <g id="PolyCollection_2">
      <path d="M 222.860379 175.181208 
L 87.850142 175.181208 
L 87.850142 321.621875 
L 222.860379 321.621875 
L 222.860379 321.621875 
L 222.860379 175.181208 
z
" clip-path="url(#p99746b2969)" style="fill: #ff7f0e; fill-opacity: 0.5"/>
     </g>
     <g id="patch_5">
      <path d="M 531.742747 72.964375 
L 531.742747 321.621875 
M 579.040483 72.964375 
L 579.040483 321.621875 
" clip-path="url(#p99746b2969)" style="fill: none; stroke: #ffffff; stroke-width: 3; stroke-linejoin: miter"/>
      <path d="M 531.742747 72.964375 
L 531.742747 321.621875 
M 579.040483 72.964375 
L 579.040483 321.621875 
" clip-path="url(#p99746b2969)" style="fill: none; stroke: #2ca02c; stroke-linejoin: miter"/>
      <g id="PolyCollection_3">
       <path d="M 579.040483 72.964375 
L 531.742747 72.964375 
L 531.742747 321.621875 
L 579.040483 321.621875 
L 579.040483 321.621875 
L 579.040483 72.964375 
z
" clip-path="url(#p99746b2969)" style="fill: #2ca02c; fill-opacity: 0.5"/>
      </g>
      <g id="patch_6">
       <path d="M 431.968096 275.831055 
L 431.968096 321.621875 
M 450.222932 275.831055 
L 450.222932 321.621875 
" clip-path="url(#p99746b2969)" style="fill: none; stroke: #ffffff; stroke-width: 3; stroke-linejoin: miter"/>
       <path d="M 431.968096 275.831055 
L 431.968096 321.621875 
M 450.222932 275.831055 
L 450.222932 321.621875 
" clip-path="url(#p99746b2969)" style="fill: none; stroke: #d62728; stroke-linejoin: miter"/>
       <g id="PolyCollection_4">
        <path d="M 450.222932 275.831055 
L 431.968096 275.831055 
L 431.968096 321.621875 
L 450.222932 321.621875 
L 450.222932 321.621875 
L 450.222932 275.831055 
z
" clip-path="url(#p99746b2969)" style="fill: #d62728; fill-opacity: 0.5"/>
       </g>
       <g id="matplotlib.axis_1">
        <g id="xtick_1">
         <g id="line2d_1"/>
         <g id="text_1">
          <!-- OUT -->
          <g transform="translate(144.706042 332.720312) scale(0.1 -0.1)">
           <defs>
            <path id="DejaVuSans-4f" d="M 2522 4238 
Q 1834 4238 1429 3725 
Q 1025 3213 1025 2328 
Q 1025 1447 1429 934 
Q 1834 422 2522 422 
Q 3209 422 3611 934 
Q 4013 1447 4013 2328 
Q 4013 3213 3611 3725 
Q 3209 4238 2522 4238 
z
M 2522 4750 
Q 3503 4750 4090 4092 
Q 4678 3434 4678 2328 
Q 4678 1225 4090 567 
Q 3503 -91 2522 -91 
Q 1538 -91 948 565 
Q 359 1222 359 2328 
Q 359 3434 948 4092 
Q 1538 4750 2522 4750 
z
" transform="scale(0.015625)"/>
            <path id="DejaVuSans-55" d="M 556 4666 
L 1191 4666 
L 1191 1831 
Q 1191 1081 1462 751 
Q 1734 422 2344 422 
Q 2950 422 3222 751 
Q 3494 1081 3494 1831 
L 3494 4666 
L 4128 4666 
L 4128 1753 
Q 4128 841 3676 375 
Q 3225 -91 2344 -91 
Q 1459 -91 1007 375 
Q 556 841 556 1753 
L 556 4666 
z
" transform="scale(0.015625)"/>
            <path id="DejaVuSans-54" d="M -19 4666 
L 3928 4666 
L 3928 4134 
L 2272 4134 
L 2272 0 
L 1638 0 
L 1638 4134 
L -19 4134 
L -19 4666 
z
" transform="scale(0.015625)"/>
           </defs>
           <use xlink:href="#DejaVuSans-4f"/>
           <use xlink:href="#DejaVuSans-55" x="78.710938"/>
           <use xlink:href="#DejaVuSans-54" x="151.904297"/>
          </g>
         </g>
        </g>
        <g id="xtick_2">
         <g id="line2d_2"/>
         <g id="text_2">
          <!-- SRC -->
          <g transform="translate(545.501771 332.720312) scale(0.1 -0.1)">
           <defs>
            <path id="DejaVuSans-53" d="M 3425 4513 
L 3425 3897 
Q 3066 4069 2747 4153 
Q 2428 4238 2131 4238 
Q 1616 4238 1336 4038 
Q 1056 3838 1056 3469 
Q 1056 3159 1242 3001 
Q 1428 2844 1947 2747 
L 2328 2669 
Q 3034 2534 3370 2195 
Q 3706 1856 3706 1288 
Q 3706 609 3251 259 
Q 2797 -91 1919 -91 
Q 1588 -91 1214 -16 
Q 841 59 441 206 
L 441 856 
Q 825 641 1194 531 
Q 1563 422 1919 422 
Q 2459 422 2753 634 
Q 3047 847 3047 1241 
Q 3047 1584 2836 1778 
Q 2625 1972 2144 2069 
L 1759 2144 
Q 1053 2284 737 2584 
Q 422 2884 422 3419 
Q 422 4038 858 4394 
Q 1294 4750 2059 4750 
Q 2388 4750 2728 4690 
Q 3069 4631 3425 4513 
z
" transform="scale(0.015625)"/>
            <path id="DejaVuSans-52" d="M 2841 2188 
Q 3044 2119 3236 1894 
Q 3428 1669 3622 1275 
L 4263 0 
L 3584 0 
L 2988 1197 
Q 2756 1666 2539 1819 
Q 2322 1972 1947 1972 
L 1259 1972 
L 1259 0 
L 628 0 
L 628 4666 
L 2053 4666 
Q 2853 4666 3247 4331 
Q 3641 3997 3641 3322 
Q 3641 2881 3436 2590 
Q 3231 2300 2841 2188 
z
M 1259 4147 
L 1259 2491 
L 2053 2491 
Q 2509 2491 2742 2702 
Q 2975 2913 2975 3322 
Q 2975 3731 2742 3939 
Q 2509 4147 2053 4147 
L 1259 4147 
z
" transform="scale(0.015625)"/>
            <path id="DejaVuSans-43" d="M 4122 4306 
L 4122 3641 
Q 3803 3938 3442 4084 
Q 3081 4231 2675 4231 
Q 1875 4231 1450 3742 
Q 1025 3253 1025 2328 
Q 1025 1406 1450 917 
Q 1875 428 2675 428 
Q 3081 428 3442 575 
Q 3803 722 4122 1019 
L 4122 359 
Q 3791 134 3420 21 
Q 3050 -91 2638 -91 
Q 1578 -91 968 557 
Q 359 1206 359 2328 
Q 359 3453 968 4101 
Q 1578 4750 2638 4750 
Q 3056 4750 3426 4639 
Q 3797 4528 4122 4306 
z
" transform="scale(0.015625)"/>
           </defs>
           <use xlink:href="#DejaVuSans-53"/>
           <use xlink:href="#DejaVuSans-52" x="63.476562"/>
           <use xlink:href="#DejaVuSans-43" x="127.958984"/>
          </g>
         </g>
        </g>
        <g id="xtick_3">
         <g id="line2d_3"/>
         <g id="text_3">
          <!-- TAR -->
          <g transform="translate(431.534576 332.720312) scale(0.1 -0.1)">
           <defs>
            <path id="DejaVuSans-41" d="M 2188 4044 
L 1331 1722 
L 3047 1722 
L 2188 4044 
z
M 1831 4666 
L 2547 4666 
L 4325 0 
L 3669 0 
L 3244 1197 
L 1141 1197 
L 716 0 
L 50 0 
L 1831 4666 
z
" transform="scale(0.015625)"/>
           </defs>
           <use xlink:href="#DejaVuSans-54"/>
           <use xlink:href="#DejaVuSans-41" x="53.333984"/>
           <use xlink:href="#DejaVuSans-52" x="121.742188"/>
          </g>
         </g>
        </g>
       </g>
       <g id="matplotlib.axis_2">
        <g id="ytick_1">
         <g id="line2d_4">
          <defs>
           <path id="mf3f28d71c3" d="M 0 0 
L -3.5 0 
" style="stroke: #000000; stroke-width: 0.8"/>
          </defs>
          <g>
           <use xlink:href="#mf3f28d71c3" x="63.290625" y="321.621875" style="stroke: #000000; stroke-width: 0.8"/>
          </g>
         </g>
         <g id="text_4">
          <!-- 0 -->
          <g transform="translate(49.928125 325.421094) scale(0.1 -0.1)">
           <defs>
            <path id="DejaVuSans-30" d="M 2034 4250 
Q 1547 4250 1301 3770 
Q 1056 3291 1056 2328 
Q 1056 1369 1301 889 
Q 1547 409 2034 409 
Q 2525 409 2770 889 
Q 3016 1369 3016 2328 
Q 3016 3291 2770 3770 
Q 2525 4250 2034 4250 
z
M 2034 4750 
Q 2819 4750 3233 4129 
Q 3647 3509 3647 2328 
Q 3647 1150 3233 529 
Q 2819 -91 2034 -91 
Q 1250 -91 836 529 
Q 422 1150 422 2328 
Q 422 3509 836 4129 
Q 1250 4750 2034 4750 
z
" transform="scale(0.015625)"/>
           </defs>
           <use xlink:href="#DejaVuSans-30"/>
          </g>
         </g>
        </g>
        <g id="ytick_2">
         <g id="line2d_5">
          <g>
           <use xlink:href="#mf3f28d71c3" x="63.290625" y="285.349046" style="stroke: #000000; stroke-width: 0.8"/>
          </g>
         </g>
         <g id="text_5">
          <!-- 2500 -->
          <g transform="translate(30.840625 289.148264) scale(0.1 -0.1)">
           <defs>
            <path id="DejaVuSans-32" d="M 1228 531 
L 3431 531 
L 3431 0 
L 469 0 
L 469 531 
Q 828 903 1448 1529 
Q 2069 2156 2228 2338 
Q 2531 2678 2651 2914 
Q 2772 3150 2772 3378 
Q 2772 3750 2511 3984 
Q 2250 4219 1831 4219 
Q 1534 4219 1204 4116 
Q 875 4013 500 3803 
L 500 4441 
Q 881 4594 1212 4672 
Q 1544 4750 1819 4750 
Q 2544 4750 2975 4387 
Q 3406 4025 3406 3419 
Q 3406 3131 3298 2873 
Q 3191 2616 2906 2266 
Q 2828 2175 2409 1742 
Q 1991 1309 1228 531 
z
" transform="scale(0.015625)"/>
            <path id="DejaVuSans-35" d="M 691 4666 
L 3169 4666 
L 3169 4134 
L 1269 4134 
L 1269 2991 
Q 1406 3038 1543 3061 
Q 1681 3084 1819 3084 
Q 2600 3084 3056 2656 
Q 3513 2228 3513 1497 
Q 3513 744 3044 326 
Q 2575 -91 1722 -91 
Q 1428 -91 1123 -41 
Q 819 9 494 109 
L 494 744 
Q 775 591 1075 516 
Q 1375 441 1709 441 
Q 2250 441 2565 725 
Q 2881 1009 2881 1497 
Q 2881 1984 2565 2268 
Q 2250 2553 1709 2553 
Q 1456 2553 1204 2497 
Q 953 2441 691 2322 
L 691 4666 
z
" transform="scale(0.015625)"/>
           </defs>
           <use xlink:href="#DejaVuSans-32"/>
           <use xlink:href="#DejaVuSans-35" x="63.623047"/>
           <use xlink:href="#DejaVuSans-30" x="127.246094"/>
           <use xlink:href="#DejaVuSans-30" x="190.869141"/>
          </g>
         </g>
        </g>
        <g id="ytick_3">
         <g id="line2d_6">
          <g>
           <use xlink:href="#mf3f28d71c3" x="63.290625" y="249.076216" style="stroke: #000000; stroke-width: 0.8"/>
          </g>
         </g>
         <g id="text_6">
          <!-- 5000 -->
          <g transform="translate(30.840625 252.875435) scale(0.1 -0.1)">
           <use xlink:href="#DejaVuSans-35"/>
           <use xlink:href="#DejaVuSans-30" x="63.623047"/>
           <use xlink:href="#DejaVuSans-30" x="127.246094"/>
           <use xlink:href="#DejaVuSans-30" x="190.869141"/>
          </g>
         </g>
        </g>
        <g id="ytick_4">
         <g id="line2d_7">
          <g>
           <use xlink:href="#mf3f28d71c3" x="63.290625" y="212.803387" style="stroke: #000000; stroke-width: 0.8"/>
          </g>
         </g>
         <g id="text_7">
          <!-- 7500 -->
          <g transform="translate(30.840625 216.602606) scale(0.1 -0.1)">
           <defs>
            <path id="DejaVuSans-37" d="M 525 4666 
L 3525 4666 
L 3525 4397 
L 1831 0 
L 1172 0 
L 2766 4134 
L 525 4134 
L 525 4666 
z
" transform="scale(0.015625)"/>
           </defs>
           <use xlink:href="#DejaVuSans-37"/>
           <use xlink:href="#DejaVuSans-35" x="63.623047"/>
           <use xlink:href="#DejaVuSans-30" x="127.246094"/>
           <use xlink:href="#DejaVuSans-30" x="190.869141"/>
          </g>
         </g>
        </g>
        <g id="ytick_5">
         <g id="line2d_8">
          <g>
           <use xlink:href="#mf3f28d71c3" x="63.290625" y="176.530557" style="stroke: #000000; stroke-width: 0.8"/>
          </g>
         </g>
         <g id="text_8">
          <!-- 10000 -->
          <g transform="translate(24.478125 180.329776) scale(0.1 -0.1)">
           <defs>
            <path id="DejaVuSans-31" d="M 794 531 
L 1825 531 
L 1825 4091 
L 703 3866 
L 703 4441 
L 1819 4666 
L 2450 4666 
L 2450 531 
L 3481 531 
L 3481 0 
L 794 0 
L 794 531 
z
" transform="scale(0.015625)"/>
           </defs>
           <use xlink:href="#DejaVuSans-31"/>
           <use xlink:href="#DejaVuSans-30" x="63.623047"/>
           <use xlink:href="#DejaVuSans-30" x="127.246094"/>
           <use xlink:href="#DejaVuSans-30" x="190.869141"/>
           <use xlink:href="#DejaVuSans-30" x="254.492188"/>
          </g>
         </g>
        </g>
        <g id="ytick_6">
         <g id="line2d_9">
          <g>
           <use xlink:href="#mf3f28d71c3" x="63.290625" y="140.257728" style="stroke: #000000; stroke-width: 0.8"/>
          </g>
         </g>
         <g id="text_9">
          <!-- 12500 -->
          <g transform="translate(24.478125 144.056947) scale(0.1 -0.1)">
           <use xlink:href="#DejaVuSans-31"/>
           <use xlink:href="#DejaVuSans-32" x="63.623047"/>
           <use xlink:href="#DejaVuSans-35" x="127.246094"/>
           <use xlink:href="#DejaVuSans-30" x="190.869141"/>
           <use xlink:href="#DejaVuSans-30" x="254.492188"/>
          </g>
         </g>
        </g>
        <g id="ytick_7">
         <g id="line2d_10">
          <g>
           <use xlink:href="#mf3f28d71c3" x="63.290625" y="103.984899" style="stroke: #000000; stroke-width: 0.8"/>
          </g>
         </g>
         <g id="text_10">
          <!-- 15000 -->
          <g transform="translate(24.478125 107.784117) scale(0.1 -0.1)">
           <use xlink:href="#DejaVuSans-31"/>
           <use xlink:href="#DejaVuSans-35" x="63.623047"/>
           <use xlink:href="#DejaVuSans-30" x="127.246094"/>
           <use xlink:href="#DejaVuSans-30" x="190.869141"/>
           <use xlink:href="#DejaVuSans-30" x="254.492188"/>
          </g>
         </g>
        </g>
        <g id="ytick_8">
         <g id="line2d_11">
          <g>
           <use xlink:href="#mf3f28d71c3" x="63.290625" y="67.712069" style="stroke: #000000; stroke-width: 0.8"/>
          </g>
         </g>
         <g id="text_11">
          <!-- 17500 -->
          <g transform="translate(24.478125 71.511288) scale(0.1 -0.1)">
           <use xlink:href="#DejaVuSans-31"/>
           <use xlink:href="#DejaVuSans-37" x="63.623047"/>
           <use xlink:href="#DejaVuSans-35" x="127.246094"/>
           <use xlink:href="#DejaVuSans-30" x="190.869141"/>
           <use xlink:href="#DejaVuSans-30" x="254.492188"/>
          </g>
         </g>
        </g>
        <g id="ytick_9">
         <g id="line2d_12">
          <g>
           <use xlink:href="#mf3f28d71c3" x="63.290625" y="31.43924" style="stroke: #000000; stroke-width: 0.8"/>
          </g>
         </g>
         <g id="text_12">
          <!-- 20000 -->
          <g transform="translate(24.478125 35.238459) scale(0.1 -0.1)">
           <use xlink:href="#DejaVuSans-32"/>
           <use xlink:href="#DejaVuSans-30" x="63.623047"/>
           <use xlink:href="#DejaVuSans-30" x="127.246094"/>
           <use xlink:href="#DejaVuSans-30" x="190.869141"/>
           <use xlink:href="#DejaVuSans-30" x="254.492188"/>
          </g>
         </g>
        </g>
        <g id="text_13">
         <!-- time ago (generations) -->
         <g transform="translate(18.398438 223.682031) rotate(-90) scale(0.1 -0.1)">
          <defs>
           <path id="DejaVuSans-74" d="M 1172 4494 
L 1172 3500 
L 2356 3500 
L 2356 3053 
L 1172 3053 
L 1172 1153 
Q 1172 725 1289 603 
Q 1406 481 1766 481 
L 2356 481 
L 2356 0 
L 1766 0 
Q 1100 0 847 248 
Q 594 497 594 1153 
L 594 3053 
L 172 3053 
L 172 3500 
L 594 3500 
L 594 4494 
L 1172 4494 
z
" transform="scale(0.015625)"/>
           <path id="DejaVuSans-69" d="M 603 3500 
L 1178 3500 
L 1178 0 
L 603 0 
L 603 3500 
z
M 603 4863 
L 1178 4863 
L 1178 4134 
L 603 4134 
L 603 4863 
z
" transform="scale(0.015625)"/>
           <path id="DejaVuSans-6d" d="M 3328 2828 
Q 3544 3216 3844 3400 
Q 4144 3584 4550 3584 
Q 5097 3584 5394 3201 
Q 5691 2819 5691 2113 
L 5691 0 
L 5113 0 
L 5113 2094 
Q 5113 2597 4934 2840 
Q 4756 3084 4391 3084 
Q 3944 3084 3684 2787 
Q 3425 2491 3425 1978 
L 3425 0 
L 2847 0 
L 2847 2094 
Q 2847 2600 2669 2842 
Q 2491 3084 2119 3084 
Q 1678 3084 1418 2786 
Q 1159 2488 1159 1978 
L 1159 0 
L 581 0 
L 581 3500 
L 1159 3500 
L 1159 2956 
Q 1356 3278 1631 3431 
Q 1906 3584 2284 3584 
Q 2666 3584 2933 3390 
Q 3200 3197 3328 2828 
z
" transform="scale(0.015625)"/>
           <path id="DejaVuSans-65" d="M 3597 1894 
L 3597 1613 
L 953 1613 
Q 991 1019 1311 708 
Q 1631 397 2203 397 
Q 2534 397 2845 478 
Q 3156 559 3463 722 
L 3463 178 
Q 3153 47 2828 -22 
Q 2503 -91 2169 -91 
Q 1331 -91 842 396 
Q 353 884 353 1716 
Q 353 2575 817 3079 
Q 1281 3584 2069 3584 
Q 2775 3584 3186 3129 
Q 3597 2675 3597 1894 
z
M 3022 2063 
Q 3016 2534 2758 2815 
Q 2500 3097 2075 3097 
Q 1594 3097 1305 2825 
Q 1016 2553 972 2059 
L 3022 2063 
z
" transform="scale(0.015625)"/>
           <path id="DejaVuSans-20" transform="scale(0.015625)"/>
           <path id="DejaVuSans-61" d="M 2194 1759 
Q 1497 1759 1228 1600 
Q 959 1441 959 1056 
Q 959 750 1161 570 
Q 1363 391 1709 391 
Q 2188 391 2477 730 
Q 2766 1069 2766 1631 
L 2766 1759 
L 2194 1759 
z
M 3341 1997 
L 3341 0 
L 2766 0 
L 2766 531 
Q 2569 213 2275 61 
Q 1981 -91 1556 -91 
Q 1019 -91 701 211 
Q 384 513 384 1019 
Q 384 1609 779 1909 
Q 1175 2209 1959 2209 
L 2766 2209 
L 2766 2266 
Q 2766 2663 2505 2880 
Q 2244 3097 1772 3097 
Q 1472 3097 1187 3025 
Q 903 2953 641 2809 
L 641 3341 
Q 956 3463 1253 3523 
Q 1550 3584 1831 3584 
Q 2591 3584 2966 3190 
Q 3341 2797 3341 1997 
z
" transform="scale(0.015625)"/>
           <path id="DejaVuSans-67" d="M 2906 1791 
Q 2906 2416 2648 2759 
Q 2391 3103 1925 3103 
Q 1463 3103 1205 2759 
Q 947 2416 947 1791 
Q 947 1169 1205 825 
Q 1463 481 1925 481 
Q 2391 481 2648 825 
Q 2906 1169 2906 1791 
z
M 3481 434 
Q 3481 -459 3084 -895 
Q 2688 -1331 1869 -1331 
Q 1566 -1331 1297 -1286 
Q 1028 -1241 775 -1147 
L 775 -588 
Q 1028 -725 1275 -790 
Q 1522 -856 1778 -856 
Q 2344 -856 2625 -561 
Q 2906 -266 2906 331 
L 2906 616 
Q 2728 306 2450 153 
Q 2172 0 1784 0 
Q 1141 0 747 490 
Q 353 981 353 1791 
Q 353 2603 747 3093 
Q 1141 3584 1784 3584 
Q 2172 3584 2450 3431 
Q 2728 3278 2906 2969 
L 2906 3500 
L 3481 3500 
L 3481 434 
z
" transform="scale(0.015625)"/>
           <path id="DejaVuSans-6f" d="M 1959 3097 
Q 1497 3097 1228 2736 
Q 959 2375 959 1747 
Q 959 1119 1226 758 
Q 1494 397 1959 397 
Q 2419 397 2687 759 
Q 2956 1122 2956 1747 
Q 2956 2369 2687 2733 
Q 2419 3097 1959 3097 
z
M 1959 3584 
Q 2709 3584 3137 3096 
Q 3566 2609 3566 1747 
Q 3566 888 3137 398 
Q 2709 -91 1959 -91 
Q 1206 -91 779 398 
Q 353 888 353 1747 
Q 353 2609 779 3096 
Q 1206 3584 1959 3584 
z
" transform="scale(0.015625)"/>
           <path id="DejaVuSans-28" d="M 1984 4856 
Q 1566 4138 1362 3434 
Q 1159 2731 1159 2009 
Q 1159 1288 1364 580 
Q 1569 -128 1984 -844 
L 1484 -844 
Q 1016 -109 783 600 
Q 550 1309 550 2009 
Q 550 2706 781 3412 
Q 1013 4119 1484 4856 
L 1984 4856 
z
" transform="scale(0.015625)"/>
           <path id="DejaVuSans-6e" d="M 3513 2113 
L 3513 0 
L 2938 0 
L 2938 2094 
Q 2938 2591 2744 2837 
Q 2550 3084 2163 3084 
Q 1697 3084 1428 2787 
Q 1159 2491 1159 1978 
L 1159 0 
L 581 0 
L 581 3500 
L 1159 3500 
L 1159 2956 
Q 1366 3272 1645 3428 
Q 1925 3584 2291 3584 
Q 2894 3584 3203 3211 
Q 3513 2838 3513 2113 
z
" transform="scale(0.015625)"/>
           <path id="DejaVuSans-72" d="M 2631 2963 
Q 2534 3019 2420 3045 
Q 2306 3072 2169 3072 
Q 1681 3072 1420 2755 
Q 1159 2438 1159 1844 
L 1159 0 
L 581 0 
L 581 3500 
L 1159 3500 
L 1159 2956 
Q 1341 3275 1631 3429 
Q 1922 3584 2338 3584 
Q 2397 3584 2469 3576 
Q 2541 3569 2628 3553 
L 2631 2963 
z
" transform="scale(0.015625)"/>
           <path id="DejaVuSans-73" d="M 2834 3397 
L 2834 2853 
Q 2591 2978 2328 3040 
Q 2066 3103 1784 3103 
Q 1356 3103 1142 2972 
Q 928 2841 928 2578 
Q 928 2378 1081 2264 
Q 1234 2150 1697 2047 
L 1894 2003 
Q 2506 1872 2764 1633 
Q 3022 1394 3022 966 
Q 3022 478 2636 193 
Q 2250 -91 1575 -91 
Q 1294 -91 989 -36 
Q 684 19 347 128 
L 347 722 
Q 666 556 975 473 
Q 1284 391 1588 391 
Q 1994 391 2212 530 
Q 2431 669 2431 922 
Q 2431 1156 2273 1281 
Q 2116 1406 1581 1522 
L 1381 1569 
Q 847 1681 609 1914 
Q 372 2147 372 2553 
Q 372 3047 722 3315 
Q 1072 3584 1716 3584 
Q 2034 3584 2315 3537 
Q 2597 3491 2834 3397 
z
" transform="scale(0.015625)"/>
           <path id="DejaVuSans-29" d="M 513 4856 
L 1013 4856 
Q 1481 4119 1714 3412 
Q 1947 2706 1947 2009 
Q 1947 1309 1714 600 
Q 1481 -109 1013 -844 
L 513 -844 
Q 928 -128 1133 580 
Q 1338 1288 1338 2009 
Q 1338 2731 1133 3434 
Q 928 4138 513 4856 
z
" transform="scale(0.015625)"/>
          </defs>
          <use xlink:href="#DejaVuSans-74"/>
          <use xlink:href="#DejaVuSans-69" x="39.208984"/>
          <use xlink:href="#DejaVuSans-6d" x="66.992188"/>
          <use xlink:href="#DejaVuSans-65" x="164.404297"/>
          <use xlink:href="#DejaVuSans-20" x="225.927734"/>
          <use xlink:href="#DejaVuSans-61" x="257.714844"/>
          <use xlink:href="#DejaVuSans-67" x="318.994141"/>
          <use xlink:href="#DejaVuSans-6f" x="382.470703"/>
          <use xlink:href="#DejaVuSans-20" x="443.652344"/>
          <use xlink:href="#DejaVuSans-28" x="475.439453"/>
          <use xlink:href="#DejaVuSans-67" x="514.453125"/>
          <use xlink:href="#DejaVuSans-65" x="577.929688"/>
          <use xlink:href="#DejaVuSans-6e" x="639.453125"/>
          <use xlink:href="#DejaVuSans-65" x="702.832031"/>
          <use xlink:href="#DejaVuSans-72" x="764.355469"/>
          <use xlink:href="#DejaVuSans-61" x="805.46875"/>
          <use xlink:href="#DejaVuSans-74" x="866.748047"/>
          <use xlink:href="#DejaVuSans-69" x="905.957031"/>
          <use xlink:href="#DejaVuSans-6f" x="933.740234"/>
          <use xlink:href="#DejaVuSans-6e" x="994.921875"/>
          <use xlink:href="#DejaVuSans-73" x="1058.300781"/>
          <use xlink:href="#DejaVuSans-29" x="1110.400391"/>
         </g>
        </g>
       </g>
       <g id="patch_7">
        <path d="M 291.417133 175.181208 
L 290.417133 175.149772 
L 289.417133 175.112831 
L 288.417133 175.015085 
L 287.417133 174.982563 
L 286.417133 174.908939 
L 285.417133 174.870373 
L 284.417133 174.83496 
L 283.417133 174.77732 
L 282.417133 174.706934 
L 281.417133 174.65497 
L 280.417133 174.59588 
L 279.417133 174.507559 
L 278.417133 174.461415 
L 277.417133 174.419004 
L 276.417133 174.388511 
L 275.417133 174.362466 
L 274.417133 174.341266 
L 273.417133 174.286965 
L 272.417133 174.259027 
L 271.417133 174.229303 
L 270.417133 174.203908 
L 269.417133 174.192708 
L 268.417133 174.182584 
L 267.417133 174.182788 
L 266.417133 174.192298 
L 265.417133 174.203952 
L 264.417133 174.234981 
L 263.417133 174.246149 
L 262.417133 174.276267 
L 261.417133 174.336044 
L 260.417133 174.373235 
L 259.417133 174.412331 
L 258.417133 174.454771 
L 257.417133 174.487536 
L 256.417133 174.554962 
L 255.417133 174.594088 
L 254.417133 174.636763 
L 253.417133 174.707343 
L 252.417133 174.743734 
L 251.417133 174.802137 
L 250.417133 174.91309 
L 249.417133 174.983748 
L 248.417133 175.096688 
L 247.417133 175.142461 
L 246.417133 175.203744 
L 245.417133 175.252244 
L 244.417133 175.333066 
L 243.417133 175.451585 
L 242.417133 175.521796 
L 241.417133 175.605058 
L 240.417133 175.6382 
L 239.417133 175.689437 
L 238.417133 175.757836 
L 237.417133 175.824051 
L 236.417133 175.900968 
L 235.417133 175.928284 
L 234.417133 175.954761 
L 233.417133 175.977412 
L 232.417133 175.996943 
L 231.417133 176.023337 
L 230.417133 176.073108 
L 229.417133 176.108181 
L 228.417133 176.144047 
L 227.417133 176.159414 
L 225.974359 176.175183 
" clip-path="url(#p99746b2969)" style="fill: none; stroke: #ffffff; stroke-width: 3; stroke-linecap: round"/>
        <path d="M 291.417133 175.181208 
L 290.417133 175.149772 
L 289.417133 175.112831 
L 288.417133 175.015085 
L 287.417133 174.982563 
L 286.417133 174.908939 
L 285.417133 174.870373 
L 284.417133 174.83496 
L 283.417133 174.77732 
L 282.417133 174.706934 
L 281.417133 174.65497 
L 280.417133 174.59588 
L 279.417133 174.507559 
L 278.417133 174.461415 
L 277.417133 174.419004 
L 276.417133 174.388511 
L 275.417133 174.362466 
L 274.417133 174.341266 
L 273.417133 174.286965 
L 272.417133 174.259027 
L 271.417133 174.229303 
L 270.417133 174.203908 
L 269.417133 174.192708 
L 268.417133 174.182584 
L 267.417133 174.182788 
L 266.417133 174.192298 
L 265.417133 174.203952 
L 264.417133 174.234981 
L 263.417133 174.246149 
L 262.417133 174.276267 
L 261.417133 174.336044 
L 260.417133 174.373235 
L 259.417133 174.412331 
L 258.417133 174.454771 
L 257.417133 174.487536 
L 256.417133 174.554962 
L 255.417133 174.594088 
L 254.417133 174.636763 
L 253.417133 174.707343 
L 252.417133 174.743734 
L 251.417133 174.802137 
L 250.417133 174.91309 
L 249.417133 174.983748 
L 248.417133 175.096688 
L 247.417133 175.142461 
L 246.417133 175.203744 
L 245.417133 175.252244 
L 244.417133 175.333066 
L 243.417133 175.451585 
L 242.417133 175.521796 
L 241.417133 175.605058 
L 240.417133 175.6382 
L 239.417133 175.689437 
L 238.417133 175.757836 
L 237.417133 175.824051 
L 236.417133 175.900968 
L 235.417133 175.928284 
L 234.417133 175.954761 
L 233.417133 175.977412 
L 232.417133 175.996943 
L 231.417133 176.023337 
L 230.417133 176.073108 
L 229.417133 176.108181 
L 228.417133 176.144047 
L 227.417133 176.159414 
L 225.974359 176.175183 
" clip-path="url(#p99746b2969)" style="fill: none; stroke: #1f77b4; stroke-linecap: round"/>
        <path d="M 229.974359 177.181208 
L 229.09399 176.705877 
L 228.216083 176.225623 
L 227.36537 175.690982 
L 226.063195 175.003535 
L 226.990549 174.97752 
L 227.902223 174.5648 
L 228.812487 174.149261 
L 230.154983 173.542457 
L 229.500084 174.181208 
L 229.44812 175.181208 
L 229.38903 177.181208 
z
" clip-path="url(#p99746b2969)" style="fill: #ffffff; stroke: #ffffff; stroke-width: 3; stroke-linecap: round"/>
        <path d="M 229.974359 177.181208 
L 229.09399 176.705877 
L 228.216083 176.225623 
L 227.36537 175.690982 
L 226.063195 175.003535 
L 226.990549 174.97752 
L 227.902223 174.5648 
L 228.812487 174.149261 
L 230.154983 173.542457 
L 229.500084 174.181208 
L 229.44812 175.181208 
L 229.38903 177.181208 
z
" clip-path="url(#p99746b2969)" style="fill: #ffffff; stroke: #1f77b4; stroke-linecap: round"/>
        <g id="patch_8">
         <path d="M 362.176546 72.964375 
L 363.176546 72.995811 
L 364.176546 73.032752 
L 365.176546 73.130498 
L 366.176546 73.16302 
L 367.176546 73.236645 
L 368.176546 73.27521 
L 369.176546 73.310623 
L 370.176546 73.368263 
L 371.176546 73.438649 
L 372.176546 73.490614 
L 373.176546 73.549703 
L 374.176546 73.638024 
L 375.176546 73.684169 
L 376.176546 73.72658 
L 377.176546 73.757072 
L 378.176546 73.783117 
L 379.176546 73.804317 
L 380.176546 73.858618 
L 381.176546 73.886556 
L 382.176546 73.91628 
L 383.176546 73.941675 
L 384.176546 73.952875 
L 385.176546 73.962999 
L 386.176546 73.962795 
L 387.176546 73.953285 
L 388.176546 73.941631 
L 389.176546 73.910602 
L 390.176546 73.899434 
L 391.176546 73.869317 
L 392.176546 73.80954 
L 393.176546 73.772348 
L 394.176546 73.733252 
L 395.176546 73.690812 
L 396.176546 73.658047 
L 397.176546 73.590621 
L 398.176546 73.551495 
L 399.176546 73.50882 
L 400.176546 73.43824 
L 401.176546 73.401849 
L 402.176546 73.343446 
L 403.176546 73.232493 
L 404.176546 73.161835 
L 405.176546 73.048895 
L 406.176546 73.003122 
L 407.176546 72.941839 
L 408.176546 72.89334 
L 409.176546 72.812517 
L 410.176546 72.693998 
L 411.176546 72.623787 
L 412.176546 72.540525 
L 413.176546 72.507383 
L 414.176546 72.456146 
L 415.176546 72.387747 
L 416.176546 72.321532 
L 417.176546 72.244615 
L 418.176546 72.217299 
L 419.176546 72.190822 
L 420.176546 72.168171 
L 421.176546 72.14864 
L 422.176546 72.122246 
L 423.176546 72.072475 
L 424.176546 72.037402 
L 425.176546 72.001536 
L 426.176546 71.986169 
L 427.176546 71.9704 
L 428.176546 71.966987 
L 429.176546 71.96457 
L 430.176546 71.965056 
L 431.176546 71.966985 
L 432.176546 71.980242 
L 433.176546 71.988633 
L 434.176546 72.010169 
L 435.176546 72.033202 
L 436.176546 72.050435 
L 437.176546 72.068898 
L 438.176546 72.08935 
L 439.176546 72.10595 
L 440.176546 72.168729 
L 441.176546 72.243994 
L 442.176546 72.276633 
L 443.176546 72.344197 
L 444.176546 72.398244 
L 445.176546 72.431948 
L 446.176546 72.522074 
L 447.176546 72.550609 
L 448.176546 72.582095 
L 449.176546 72.613106 
L 450.176546 72.667914 
L 451.176546 72.732501 
L 452.176546 72.770697 
L 453.176546 72.866631 
L 454.176546 72.915889 
L 455.176546 72.959958 
L 456.176546 73.000082 
L 457.176546 73.108449 
L 458.176546 73.150077 
L 459.176546 73.212219 
L 460.176546 73.282181 
L 461.176546 73.386685 
L 462.176546 73.423673 
L 463.176546 73.46955 
L 464.176546 73.538045 
L 465.176546 73.586791 
L 466.176546 73.664388 
L 467.176546 73.694929 
L 468.176546 73.764443 
L 469.176546 73.788416 
L 470.176546 73.817038 
L 471.176546 73.858831 
L 472.176546 73.880407 
L 473.176546 73.894355 
L 474.176546 73.921077 
L 475.176546 73.930387 
L 476.176546 73.942834 
L 477.176546 73.953889 
L 478.176546 73.959553 
L 479.176546 73.964317 
L 480.176546 73.958769 
L 481.176546 73.945481 
L 482.176546 73.937964 
L 483.176546 73.913179 
L 484.176546 73.88961 
L 485.176546 73.85343 
L 486.176546 73.827468 
L 487.176546 73.805146 
L 488.176546 73.736386 
L 489.176546 73.661851 
L 490.176546 73.567872 
L 491.176546 73.51682 
L 492.176546 73.462886 
L 493.176546 73.427635 
L 494.176546 73.321547 
L 495.176546 73.269283 
L 496.176546 73.232376 
L 497.176546 73.201345 
L 498.176546 73.14019 
L 499.176546 73.07277 
L 500.176546 73.023864 
L 501.176546 72.958672 
L 502.176546 72.920484 
L 503.176546 72.878488 
L 504.176546 72.836471 
L 505.176546 72.776955 
L 506.176546 72.663795 
L 507.176546 72.611544 
L 508.176546 72.572126 
L 509.176546 72.525025 
L 510.176546 72.468245 
L 511.176546 72.435582 
L 512.176546 72.399404 
L 513.176546 72.367314 
L 514.176546 72.333034 
L 515.176546 72.274656 
L 516.176546 72.229471 
L 517.176546 72.199847 
L 518.176546 72.149461 
L 519.176546 72.124264 
L 520.176546 72.103213 
L 521.176546 72.068245 
L 522.176546 72.043955 
L 523.176546 72.029888 
L 524.176546 72.010946 
L 525.176546 71.995285 
L 526.176546 71.982733 
L 527.176546 71.976897 
L 528.624672 71.970015 
" clip-path="url(#p99746b2969)" style="fill: none; stroke: #ffffff; stroke-width: 3; stroke-linecap: round"/>
         <path d="M 362.176546 72.964375 
L 363.176546 72.995811 
L 364.176546 73.032752 
L 365.176546 73.130498 
L 366.176546 73.16302 
L 367.176546 73.236645 
L 368.176546 73.27521 
L 369.176546 73.310623 
L 370.176546 73.368263 
L 371.176546 73.438649 
L 372.176546 73.490614 
L 373.176546 73.549703 
L 374.176546 73.638024 
L 375.176546 73.684169 
L 376.176546 73.72658 
L 377.176546 73.757072 
L 378.176546 73.783117 
L 379.176546 73.804317 
L 380.176546 73.858618 
L 381.176546 73.886556 
L 382.176546 73.91628 
L 383.176546 73.941675 
L 384.176546 73.952875 
L 385.176546 73.962999 
L 386.176546 73.962795 
L 387.176546 73.953285 
L 388.176546 73.941631 
L 389.176546 73.910602 
L 390.176546 73.899434 
L 391.176546 73.869317 
L 392.176546 73.80954 
L 393.176546 73.772348 
L 394.176546 73.733252 
L 395.176546 73.690812 
L 396.176546 73.658047 
L 397.176546 73.590621 
L 398.176546 73.551495 
L 399.176546 73.50882 
L 400.176546 73.43824 
L 401.176546 73.401849 
L 402.176546 73.343446 
L 403.176546 73.232493 
L 404.176546 73.161835 
L 405.176546 73.048895 
L 406.176546 73.003122 
L 407.176546 72.941839 
L 408.176546 72.89334 
L 409.176546 72.812517 
L 410.176546 72.693998 
L 411.176546 72.623787 
L 412.176546 72.540525 
L 413.176546 72.507383 
L 414.176546 72.456146 
L 415.176546 72.387747 
L 416.176546 72.321532 
L 417.176546 72.244615 
L 418.176546 72.217299 
L 419.176546 72.190822 
L 420.176546 72.168171 
L 421.176546 72.14864 
L 422.176546 72.122246 
L 423.176546 72.072475 
L 424.176546 72.037402 
L 425.176546 72.001536 
L 426.176546 71.986169 
L 427.176546 71.9704 
L 428.176546 71.966987 
L 429.176546 71.96457 
L 430.176546 71.965056 
L 431.176546 71.966985 
L 432.176546 71.980242 
L 433.176546 71.988633 
L 434.176546 72.010169 
L 435.176546 72.033202 
L 436.176546 72.050435 
L 437.176546 72.068898 
L 438.176546 72.08935 
L 439.176546 72.10595 
L 440.176546 72.168729 
L 441.176546 72.243994 
L 442.176546 72.276633 
L 443.176546 72.344197 
L 444.176546 72.398244 
L 445.176546 72.431948 
L 446.176546 72.522074 
L 447.176546 72.550609 
L 448.176546 72.582095 
L 449.176546 72.613106 
L 450.176546 72.667914 
L 451.176546 72.732501 
L 452.176546 72.770697 
L 453.176546 72.866631 
L 454.176546 72.915889 
L 455.176546 72.959958 
L 456.176546 73.000082 
L 457.176546 73.108449 
L 458.176546 73.150077 
L 459.176546 73.212219 
L 460.176546 73.282181 
L 461.176546 73.386685 
L 462.176546 73.423673 
L 463.176546 73.46955 
L 464.176546 73.538045 
L 465.176546 73.586791 
L 466.176546 73.664388 
L 467.176546 73.694929 
L 468.176546 73.764443 
L 469.176546 73.788416 
L 470.176546 73.817038 
L 471.176546 73.858831 
L 472.176546 73.880407 
L 473.176546 73.894355 
L 474.176546 73.921077 
L 475.176546 73.930387 
L 476.176546 73.942834 
L 477.176546 73.953889 
L 478.176546 73.959553 
L 479.176546 73.964317 
L 480.176546 73.958769 
L 481.176546 73.945481 
L 482.176546 73.937964 
L 483.176546 73.913179 
L 484.176546 73.88961 
L 485.176546 73.85343 
L 486.176546 73.827468 
L 487.176546 73.805146 
L 488.176546 73.736386 
L 489.176546 73.661851 
L 490.176546 73.567872 
L 491.176546 73.51682 
L 492.176546 73.462886 
L 493.176546 73.427635 
L 494.176546 73.321547 
L 495.176546 73.269283 
L 496.176546 73.232376 
L 497.176546 73.201345 
L 498.176546 73.14019 
L 499.176546 73.07277 
L 500.176546 73.023864 
L 501.176546 72.958672 
L 502.176546 72.920484 
L 503.176546 72.878488 
L 504.176546 72.836471 
L 505.176546 72.776955 
L 506.176546 72.663795 
L 507.176546 72.611544 
L 508.176546 72.572126 
L 509.176546 72.525025 
L 510.176546 72.468245 
L 511.176546 72.435582 
L 512.176546 72.399404 
L 513.176546 72.367314 
L 514.176546 72.333034 
L 515.176546 72.274656 
L 516.176546 72.229471 
L 517.176546 72.199847 
L 518.176546 72.149461 
L 519.176546 72.124264 
L 520.176546 72.103213 
L 521.176546 72.068245 
L 522.176546 72.043955 
L 523.176546 72.029888 
L 524.176546 72.010946 
L 525.176546 71.995285 
L 526.176546 71.982733 
L 527.176546 71.976897 
L 528.624672 71.970015 
" clip-path="url(#p99746b2969)" style="fill: none; stroke: #1f77b4; stroke-linecap: round"/>
         <path d="M 524.624672 70.964375 
L 525.50504 71.439706 
L 526.382947 71.91996 
L 527.233661 72.454601 
L 528.535835 73.142048 
L 527.608482 73.168063 
L 526.696808 73.580783 
L 525.786544 73.996322 
L 524.444048 74.603126 
L 525.098947 73.964375 
L 525.150911 72.964375 
L 525.210001 70.964375 
z
" clip-path="url(#p99746b2969)" style="fill: #ffffff; stroke: #ffffff; stroke-width: 3; stroke-linecap: round"/>
         <path d="M 524.624672 70.964375 
L 525.50504 71.439706 
L 526.382947 71.91996 
L 527.233661 72.454601 
L 528.535835 73.142048 
L 527.608482 73.168063 
L 526.696808 73.580783 
L 525.786544 73.996322 
L 524.444048 74.603126 
L 525.098947 73.964375 
L 525.150911 72.964375 
L 525.210001 70.964375 
z
" clip-path="url(#p99746b2969)" style="fill: #ffffff; stroke: #1f77b4; stroke-linecap: round"/>
         <g id="patch_9">
          <path d="M 224.860967 275.831055 
L 225.860967 275.862492 
L 226.860967 275.899432 
L 227.860967 275.997179 
L 228.860967 276.0297 
L 229.860967 276.103325 
L 230.860967 276.14189 
L 231.860967 276.177304 
L 232.860967 276.234944 
L 233.860967 276.30533 
L 234.860967 276.357294 
L 235.860967 276.416384 
L 236.860967 276.504705 
L 237.860967 276.550849 
L 238.860967 276.59326 
L 239.860967 276.623753 
L 240.860967 276.649797 
L 241.860967 276.670998 
L 242.860967 276.725299 
L 243.860967 276.753236 
L 244.860967 276.78296 
L 245.860967 276.808355 
L 246.860967 276.819555 
L 247.860967 276.829679 
L 248.860967 276.829475 
L 249.860967 276.819965 
L 250.860967 276.808312 
L 251.860967 276.777282 
L 252.860967 276.766114 
L 253.860967 276.735997 
L 254.860967 276.67622 
L 255.860967 276.639028 
L 256.860967 276.599932 
L 257.860967 276.557493 
L 258.860967 276.524728 
L 259.860967 276.457301 
L 260.860967 276.418175 
L 261.860967 276.375501 
L 262.860967 276.30492 
L 263.860967 276.268529 
L 264.860967 276.210126 
L 265.860967 276.099173 
L 266.860967 276.028515 
L 267.860967 275.915575 
L 268.860967 275.869802 
L 269.860967 275.808519 
L 270.860967 275.76002 
L 271.860967 275.679197 
L 272.860967 275.560678 
L 273.860967 275.490468 
L 274.860967 275.407205 
L 275.860967 275.374063 
L 276.860967 275.322826 
L 277.860967 275.254428 
L 278.860967 275.188212 
L 279.860967 275.111295 
L 280.860967 275.08398 
L 281.860967 275.057502 
L 282.860967 275.034852 
L 283.860967 275.01532 
L 284.860967 274.988926 
L 285.860967 274.939155 
L 286.860967 274.904082 
L 287.860967 274.868217 
L 288.860967 274.852849 
L 289.860967 274.83708 
L 290.860967 274.833668 
L 291.860967 274.83125 
L 292.860967 274.831736 
L 293.860967 274.833665 
L 294.860967 274.846922 
L 295.860967 274.855313 
L 296.860967 274.87685 
L 297.860967 274.899882 
L 298.860967 274.917116 
L 299.860967 274.935578 
L 300.860967 274.956031 
L 301.860967 274.97263 
L 302.860967 275.035409 
L 303.860967 275.110674 
L 304.860967 275.143313 
L 305.860967 275.210877 
L 306.860967 275.264924 
L 307.860967 275.298628 
L 308.860967 275.388754 
L 309.860967 275.417289 
L 310.860967 275.448775 
L 311.860967 275.479786 
L 312.860967 275.534594 
L 313.860967 275.599182 
L 314.860967 275.637377 
L 315.860967 275.733311 
L 316.860967 275.782569 
L 317.860967 275.826639 
L 318.860967 275.866762 
L 319.860967 275.975129 
L 320.860967 276.016757 
L 321.860967 276.078899 
L 322.860967 276.148861 
L 323.860967 276.253366 
L 324.860967 276.290353 
L 325.860967 276.33623 
L 326.860967 276.404725 
L 327.860967 276.453471 
L 328.860967 276.531068 
L 329.860967 276.561609 
L 330.860967 276.631123 
L 331.860967 276.655096 
L 332.860967 276.683718 
L 333.860967 276.725511 
L 334.860967 276.747087 
L 335.860967 276.761035 
L 336.860967 276.787758 
L 337.860967 276.797067 
L 338.860967 276.809514 
L 339.860967 276.820569 
L 340.860967 276.826234 
L 341.860967 276.830997 
L 342.860967 276.82545 
L 343.860967 276.812162 
L 344.860967 276.804644 
L 345.860967 276.779859 
L 346.860967 276.756291 
L 347.860967 276.72011 
L 348.860967 276.694148 
L 349.860967 276.671827 
L 350.860967 276.603066 
L 351.860967 276.528531 
L 352.860967 276.434552 
L 353.860967 276.3835 
L 354.860967 276.329566 
L 355.860967 276.294315 
L 356.860967 276.188227 
L 357.860967 276.135963 
L 358.860967 276.099057 
L 359.860967 276.068026 
L 360.860967 276.00687 
L 361.860967 275.93945 
L 362.860967 275.890544 
L 363.860967 275.825352 
L 364.860967 275.787164 
L 365.860967 275.745169 
L 366.860967 275.703151 
L 367.860967 275.643635 
L 368.860967 275.530475 
L 369.860967 275.478224 
L 370.860967 275.438807 
L 371.860967 275.391705 
L 372.860967 275.334926 
L 373.860967 275.302262 
L 374.860967 275.266085 
L 375.860967 275.233994 
L 376.860967 275.199714 
L 377.860967 275.141336 
L 378.860967 275.096151 
L 379.860967 275.066527 
L 380.860967 275.016142 
L 381.860967 274.990944 
L 382.860967 274.969893 
L 383.860967 274.934925 
L 384.860967 274.910635 
L 385.860967 274.896568 
L 386.860967 274.877626 
L 387.860967 274.861965 
L 388.860967 274.849413 
L 389.860967 274.843577 
L 390.860967 274.836695 
L 391.860967 274.831521 
L 392.860967 274.833304 
L 393.860967 274.83603 
L 394.860967 274.847183 
L 395.860967 274.875418 
L 396.860967 274.919206 
L 397.860967 274.939895 
L 398.860967 274.980869 
L 399.860967 275.020944 
L 400.860967 275.040053 
L 401.860967 275.062562 
L 402.860967 275.129214 
L 403.860967 275.178923 
L 404.860967 275.25263 
L 405.860967 275.283943 
L 406.860967 275.360565 
L 407.860967 275.398863 
L 408.860967 275.47298 
L 409.860967 275.577039 
L 410.860967 275.646869 
L 411.860967 275.752103 
L 412.860967 275.807118 
L 413.860967 275.930593 
L 414.860967 276.001152 
L 415.860967 276.116992 
L 416.860967 276.167172 
L 417.860967 276.202776 
L 418.860967 276.294183 
L 419.860967 276.347691 
L 420.860967 276.435599 
L 421.860967 276.504784 
L 422.860967 276.551548 
L 423.860967 276.623592 
L 424.860967 276.673734 
L 425.860967 276.691124 
L 426.860967 276.718127 
L 428.849652 276.737555 
" clip-path="url(#p99746b2969)" style="fill: none; stroke: #ffffff; stroke-width: 3; stroke-linecap: round"/>
          <path d="M 224.860967 275.831055 
L 225.860967 275.862492 
L 226.860967 275.899432 
L 227.860967 275.997179 
L 228.860967 276.0297 
L 229.860967 276.103325 
L 230.860967 276.14189 
L 231.860967 276.177304 
L 232.860967 276.234944 
L 233.860967 276.30533 
L 234.860967 276.357294 
L 235.860967 276.416384 
L 236.860967 276.504705 
L 237.860967 276.550849 
L 238.860967 276.59326 
L 239.860967 276.623753 
L 240.860967 276.649797 
L 241.860967 276.670998 
L 242.860967 276.725299 
L 243.860967 276.753236 
L 244.860967 276.78296 
L 245.860967 276.808355 
L 246.860967 276.819555 
L 247.860967 276.829679 
L 248.860967 276.829475 
L 249.860967 276.819965 
L 250.860967 276.808312 
L 251.860967 276.777282 
L 252.860967 276.766114 
L 253.860967 276.735997 
L 254.860967 276.67622 
L 255.860967 276.639028 
L 256.860967 276.599932 
L 257.860967 276.557493 
L 258.860967 276.524728 
L 259.860967 276.457301 
L 260.860967 276.418175 
L 261.860967 276.375501 
L 262.860967 276.30492 
L 263.860967 276.268529 
L 264.860967 276.210126 
L 265.860967 276.099173 
L 266.860967 276.028515 
L 267.860967 275.915575 
L 268.860967 275.869802 
L 269.860967 275.808519 
L 270.860967 275.76002 
L 271.860967 275.679197 
L 272.860967 275.560678 
L 273.860967 275.490468 
L 274.860967 275.407205 
L 275.860967 275.374063 
L 276.860967 275.322826 
L 277.860967 275.254428 
L 278.860967 275.188212 
L 279.860967 275.111295 
L 280.860967 275.08398 
L 281.860967 275.057502 
L 282.860967 275.034852 
L 283.860967 275.01532 
L 284.860967 274.988926 
L 285.860967 274.939155 
L 286.860967 274.904082 
L 287.860967 274.868217 
L 288.860967 274.852849 
L 289.860967 274.83708 
L 290.860967 274.833668 
L 291.860967 274.83125 
L 292.860967 274.831736 
L 293.860967 274.833665 
L 294.860967 274.846922 
L 295.860967 274.855313 
L 296.860967 274.87685 
L 297.860967 274.899882 
L 298.860967 274.917116 
L 299.860967 274.935578 
L 300.860967 274.956031 
L 301.860967 274.97263 
L 302.860967 275.035409 
L 303.860967 275.110674 
L 304.860967 275.143313 
L 305.860967 275.210877 
L 306.860967 275.264924 
L 307.860967 275.298628 
L 308.860967 275.388754 
L 309.860967 275.417289 
L 310.860967 275.448775 
L 311.860967 275.479786 
L 312.860967 275.534594 
L 313.860967 275.599182 
L 314.860967 275.637377 
L 315.860967 275.733311 
L 316.860967 275.782569 
L 317.860967 275.826639 
L 318.860967 275.866762 
L 319.860967 275.975129 
L 320.860967 276.016757 
L 321.860967 276.078899 
L 322.860967 276.148861 
L 323.860967 276.253366 
L 324.860967 276.290353 
L 325.860967 276.33623 
L 326.860967 276.404725 
L 327.860967 276.453471 
L 328.860967 276.531068 
L 329.860967 276.561609 
L 330.860967 276.631123 
L 331.860967 276.655096 
L 332.860967 276.683718 
L 333.860967 276.725511 
L 334.860967 276.747087 
L 335.860967 276.761035 
L 336.860967 276.787758 
L 337.860967 276.797067 
L 338.860967 276.809514 
L 339.860967 276.820569 
L 340.860967 276.826234 
L 341.860967 276.830997 
L 342.860967 276.82545 
L 343.860967 276.812162 
L 344.860967 276.804644 
L 345.860967 276.779859 
L 346.860967 276.756291 
L 347.860967 276.72011 
L 348.860967 276.694148 
L 349.860967 276.671827 
L 350.860967 276.603066 
L 351.860967 276.528531 
L 352.860967 276.434552 
L 353.860967 276.3835 
L 354.860967 276.329566 
L 355.860967 276.294315 
L 356.860967 276.188227 
L 357.860967 276.135963 
L 358.860967 276.099057 
L 359.860967 276.068026 
L 360.860967 276.00687 
L 361.860967 275.93945 
L 362.860967 275.890544 
L 363.860967 275.825352 
L 364.860967 275.787164 
L 365.860967 275.745169 
L 366.860967 275.703151 
L 367.860967 275.643635 
L 368.860967 275.530475 
L 369.860967 275.478224 
L 370.860967 275.438807 
L 371.860967 275.391705 
L 372.860967 275.334926 
L 373.860967 275.302262 
L 374.860967 275.266085 
L 375.860967 275.233994 
L 376.860967 275.199714 
L 377.860967 275.141336 
L 378.860967 275.096151 
L 379.860967 275.066527 
L 380.860967 275.016142 
L 381.860967 274.990944 
L 382.860967 274.969893 
L 383.860967 274.934925 
L 384.860967 274.910635 
L 385.860967 274.896568 
L 386.860967 274.877626 
L 387.860967 274.861965 
L 388.860967 274.849413 
L 389.860967 274.843577 
L 390.860967 274.836695 
L 391.860967 274.831521 
L 392.860967 274.833304 
L 393.860967 274.83603 
L 394.860967 274.847183 
L 395.860967 274.875418 
L 396.860967 274.919206 
L 397.860967 274.939895 
L 398.860967 274.980869 
L 399.860967 275.020944 
L 400.860967 275.040053 
L 401.860967 275.062562 
L 402.860967 275.129214 
L 403.860967 275.178923 
L 404.860967 275.25263 
L 405.860967 275.283943 
L 406.860967 275.360565 
L 407.860967 275.398863 
L 408.860967 275.47298 
L 409.860967 275.577039 
L 410.860967 275.646869 
L 411.860967 275.752103 
L 412.860967 275.807118 
L 413.860967 275.930593 
L 414.860967 276.001152 
L 415.860967 276.116992 
L 416.860967 276.167172 
L 417.860967 276.202776 
L 418.860967 276.294183 
L 419.860967 276.347691 
L 420.860967 276.435599 
L 421.860967 276.504784 
L 422.860967 276.551548 
L 423.860967 276.623592 
L 424.860967 276.673734 
L 425.860967 276.691124 
L 426.860967 276.718127 
L 428.849652 276.737555 
" clip-path="url(#p99746b2969)" style="fill: none; stroke: #ff7f0e; stroke-linecap: round"/>
          <path d="M 424.849652 273.831055 
L 425.730021 274.306386 
L 426.607928 274.78664 
L 427.458641 275.321281 
L 428.760816 276.008729 
L 427.833463 276.034743 
L 426.921788 276.447463 
L 426.011524 276.863002 
L 424.669028 277.469806 
L 425.323927 276.831055 
L 425.375891 275.831055 
L 425.434981 273.831055 
z
" clip-path="url(#p99746b2969)" style="fill: #ffffff; stroke: #ffffff; stroke-width: 3; stroke-linecap: round"/>
          <path d="M 424.849652 273.831055 
L 425.730021 274.306386 
L 426.607928 274.78664 
L 427.458641 275.321281 
L 428.760816 276.008729 
L 427.833463 276.034743 
L 426.921788 276.447463 
L 426.011524 276.863002 
L 424.669028 277.469806 
L 425.323927 276.831055 
L 425.375891 275.831055 
L 425.434981 273.831055 
z
" clip-path="url(#p99746b2969)" style="fill: #ffffff; stroke: #ff7f0e; stroke-linecap: round"/>
          <path d="M 455.626026 300.090323 
" clip-path="url(#p99746b2969)" style="fill: none; stroke-dasharray: 3.7,1.6; stroke-dashoffset: 0; stroke: #2ca02c"/>
          <path d="M 454.626026 300.090323 
L 456.626026 301.090323 
L 456.626026 299.090323 
z
" clip-path="url(#p99746b2969)" style="fill: #2ca02c; stroke: #2ca02c; stroke-linejoin: miter"/>
          <g id="patch_10">
           <path d="M 63.290625 321.621875 
L 63.290625 10.8 
" style="fill: none; stroke: #000000; stroke-width: 0.8; stroke-linejoin: miter; stroke-linecap: square"/>
          </g>
          <g id="text_14">
           <g id="patch_11">
            <path d="M 316.147069 99.829667 
L 337.451756 99.829667 
Q 339.451756 99.829667 339.451756 97.829667 
L 339.451756 88.151542 
Q 339.451756 86.151542 337.451756 86.151542 
L 316.147069 86.151542 
Q 314.147069 86.151542 314.147069 88.151542 
L 314.147069 97.829667 
Q 314.147069 99.829667 316.147069 99.829667 
z
" style="fill: #ffffff; opacity: 0.6"/>
           </g>
           <!-- ANC -->
           <g transform="translate(316.147069 95.749979) scale(0.1 -0.1)">
            <defs>
             <path id="DejaVuSans-4e" d="M 628 4666 
L 1478 4666 
L 3547 763 
L 3547 4666 
L 4159 4666 
L 4159 0 
L 3309 0 
L 1241 3903 
L 1241 0 
L 628 0 
L 628 4666 
z
" transform="scale(0.015625)"/>
            </defs>
            <use xlink:href="#DejaVuSans-41"/>
            <use xlink:href="#DejaVuSans-4e" x="68.408203"/>
            <use xlink:href="#DejaVuSans-43" x="143.212891"/>
           </g>
          </g>
         </g>
        </g>
        <defs>
         <clipPath id="p99746b2969">
          <rect x="63.290625" y="10.8" width="540.309375" height="310.821875"/>
         </clipPath>
        </defs>
       </g>
      </g>
     </g>
    </g>
   </g>
  </g>
 </g>
</svg>
