<?xml version="1.0" encoding="utf-8" standalone="no"?>
<!DOCTYPE svg PUBLIC "-//W3C//DTD SVG 1.1//EN"
  "http://www.w3.org/Graphics/SVG/1.1/DTD/svg11.dtd">
<svg xmlns:xlink="http://www.w3.org/1999/xlink" width="614.4pt" height="345.6pt" viewBox="0 0 614.4 345.6" xmlns="http://www.w3.org/2000/svg" version="1.1">
 <metadata>
  <rdf:RDF xmlns:dc="http://purl.org/dc/elements/1.1/" xmlns:cc="http://creativecommons.org/ns#" xmlns:rdf="http://www.w3.org/1999/02/22-rdf-syntax-ns#">
   <cc:Work>
    <dc:type rdf:resource="http://purl.org/dc/dcmitype/StillImage"/>
    <dc:date>2024-04-17T19:48:50.071707</dc:date>
    <dc:format>image/svg+xml</dc:format>
    <dc:creator>
     <cc:Agent>
      <dc:title>Matplotlib v3.7.1, https://matplotlib.org/</dc:title>
     </cc:Agent>
    </dc:creator>
   </cc:Work>
  </rdf:RDF>
 </metadata>
 <defs>
  <style type="text/css">*{stroke-linejoin: round; stroke-linecap: butt}</style>
 </defs>
 <g id="figure_1">
  <g id="patch_1">
   <path d="M 0 345.6 
L 614.4 345.6 
L 614.4 0 
L 0 0 
z
" style="fill: #ffffff"/>
  </g>
  <g id="axes_1">
   <g id="patch_2">
    <path d="M 63.290625 321.621875 
L 603.6 321.621875 
L 603.6 10.8 
L 63.290625 10.8 
z
" style="fill: #ffffff"/>
   </g>
   <path d="M 518.177063 292.619443 
L 517.177063 292.588007 
L 516.177063 292.551066 
L 515.177063 292.45332 
L 514.177063 292.420798 
L 513.177063 292.347174 
L 512.177063 292.308608 
L 511.177063 292.273195 
L 510.177063 292.215555 
L 509.177063 292.145169 
L 508.177063 292.093204 
L 507.177063 292.034115 
L 506.177063 291.945794 
L 505.177063 291.899649 
L 504.177063 291.857239 
L 503.177063 291.826746 
L 502.177063 291.800701 
L 501.177063 291.779501 
L 500.177063 291.7252 
L 499.177063 291.697262 
L 498.177063 291.667538 
L 497.177063 291.642143 
L 496.177063 291.630943 
L 495.177063 291.620819 
L 494.177063 291.621023 
L 493.177063 291.630533 
L 492.177063 291.642187 
L 491.177063 291.673216 
L 490.177063 291.684384 
L 489.177063 291.714502 
L 488.177063 291.774278 
L 487.177063 291.81147 
L 486.177063 291.850566 
L 485.177063 291.893006 
L 484.177063 291.925771 
L 483.177063 291.993197 
L 482.177063 292.032323 
L 481.177063 292.074998 
L 480.177063 292.145578 
L 479.177063 292.181969 
L 478.177063 292.240372 
L 477.177063 292.351325 
L 476.177063 292.421983 
L 475.177063 292.534923 
L 474.177063 292.580696 
L 473.177063 292.641979 
L 472.177063 292.690479 
L 471.177063 292.771301 
L 470.177063 292.88982 
L 469.177063 292.960031 
L 468.177063 293.043293 
L 467.177063 293.076435 
L 466.177063 293.127672 
L 465.177063 293.196071 
L 464.177063 293.262286 
L 463.177063 293.339203 
L 462.177063 293.366519 
L 461.177063 293.392996 
L 460.177063 293.415647 
L 459.177063 293.435178 
L 458.177063 293.461572 
L 457.177063 293.511343 
L 455.894773 293.546416 
" clip-path="url(#p5d3f15fd2f)" style="fill: none; stroke-dasharray: 3.7,1.6; stroke-dashoffset: 0; stroke: #2ca02c"/>
   <g id="patch_3">
    <path d="M 252.312307 10.8 
L 252.312307 120.723417 
M 388.64516 10.8 
L 388.64516 120.723417 
" clip-path="url(#p5d3f15fd2f)" style="fill: none; stroke: #ffffff; stroke-width: 3; stroke-linejoin: miter"/>
    <path d="M 252.312307 10.8 
L 252.312307 120.723417 
M 388.64516 10.8 
L 388.64516 120.723417 
" clip-path="url(#p5d3f15fd2f)" style="fill: none; stroke: #1f77b4; stroke-linejoin: miter"/>
    <g id="PolyCollection_1">
     <path d="M 388.64516 10.8 
L 252.312307 10.8 
L 252.312307 120.723417 
L 388.64516 120.723417 
L 388.64516 120.723417 
L 388.64516 10.8 
z
" clip-path="url(#p5d3f15fd2f)" style="fill: #1f77b4; fill-opacity: 0.5"/>
    </g>
    <g id="patch_4">
     <path d="M 87.850142 120.723417 
L 87.850142 321.621875 
M 206.859945 120.723417 
L 206.859945 321.621875 
" clip-path="url(#p5d3f15fd2f)" style="fill: none; stroke: #ffffff; stroke-width: 3; stroke-linejoin: miter"/>
     <path d="M 87.850142 120.723417 
L 87.850142 321.621875 
M 206.859945 120.723417 
L 206.859945 321.621875 
" clip-path="url(#p5d3f15fd2f)" style="fill: none; stroke: #ff7f0e; stroke-linejoin: miter"/>
     <g id="PolyCollection_2">
      <path d="M 206.859945 120.723417 
L 87.850142 120.723417 
L 87.850142 321.621875 
L 206.859945 321.621875 
L 206.859945 321.621875 
L 206.859945 120.723417 
z
" clip-path="url(#p5d3f15fd2f)" style="fill: #ff7f0e; fill-opacity: 0.5"/>
     </g>
     <g id="patch_5">
      <path d="M 523.580157 72.964375 
L 523.580157 321.621875 
M 579.040483 72.964375 
L 579.040483 321.621875 
" clip-path="url(#p5d3f15fd2f)" style="fill: none; stroke: #ffffff; stroke-width: 3; stroke-linejoin: miter"/>
      <path d="M 523.580157 72.964375 
L 523.580157 321.621875 
M 579.040483 72.964375 
L 579.040483 321.621875 
" clip-path="url(#p5d3f15fd2f)" style="fill: none; stroke: #2ca02c; stroke-linejoin: miter"/>
      <g id="PolyCollection_3">
       <path d="M 579.040483 72.964375 
L 523.580157 72.964375 
L 523.580157 321.621875 
L 579.040483 321.621875 
L 579.040483 321.621875 
L 579.040483 72.964375 
z
" clip-path="url(#p5d3f15fd2f)" style="fill: #2ca02c; fill-opacity: 0.5"/>
      </g>
      <g id="patch_6">
       <path d="M 421.297374 237.116678 
L 421.297374 321.621875 
M 450.491679 237.116678 
L 450.491679 321.621875 
" clip-path="url(#p5d3f15fd2f)" style="fill: none; stroke: #ffffff; stroke-width: 3; stroke-linejoin: miter"/>
       <path d="M 421.297374 237.116678 
L 421.297374 321.621875 
M 450.491679 237.116678 
L 450.491679 321.621875 
" clip-path="url(#p5d3f15fd2f)" style="fill: none; stroke: #d62728; stroke-linejoin: miter"/>
       <g id="PolyCollection_4">
        <path d="M 450.491679 237.116678 
L 421.297374 237.116678 
L 421.297374 321.621875 
L 450.491679 321.621875 
L 450.491679 321.621875 
L 450.491679 237.116678 
z
" clip-path="url(#p5d3f15fd2f)" style="fill: #d62728; fill-opacity: 0.5"/>
       </g>
       <g id="matplotlib.axis_1">
        <g id="xtick_1">
         <g id="line2d_1"/>
         <g id="text_1">
          <!-- OUT -->
          <g transform="translate(136.705825 332.720312) scale(0.1 -0.1)">
           <defs>
            <path id="DejaVuSans-4f" d="M 2522 4238 
Q 1834 4238 1429 3725 
Q 1025 3213 1025 2328 
Q 1025 1447 1429 934 
Q 1834 422 2522 422 
Q 3209 422 3611 934 
Q 4013 1447 4013 2328 
Q 4013 3213 3611 3725 
Q 3209 4238 2522 4238 
z
M 2522 4750 
Q 3503 4750 4090 4092 
Q 4678 3434 4678 2328 
Q 4678 1225 4090 567 
Q 3503 -91 2522 -91 
Q 1538 -91 948 565 
Q 359 1222 359 2328 
Q 359 3434 948 4092 
Q 1538 4750 2522 4750 
z
" transform="scale(0.015625)"/>
            <path id="DejaVuSans-55" d="M 556 4666 
L 1191 4666 
L 1191 1831 
Q 1191 1081 1462 751 
Q 1734 422 2344 422 
Q 2950 422 3222 751 
Q 3494 1081 3494 1831 
L 3494 4666 
L 4128 4666 
L 4128 1753 
Q 4128 841 3676 375 
Q 3225 -91 2344 -91 
Q 1459 -91 1007 375 
Q 556 841 556 1753 
L 556 4666 
z
" transform="scale(0.015625)"/>
            <path id="DejaVuSans-54" d="M -19 4666 
L 3928 4666 
L 3928 4134 
L 2272 4134 
L 2272 0 
L 1638 0 
L 1638 4134 
L -19 4134 
L -19 4666 
z
" transform="scale(0.015625)"/>
           </defs>
           <use xlink:href="#DejaVuSans-4f"/>
           <use xlink:href="#DejaVuSans-55" x="78.710938"/>
           <use xlink:href="#DejaVuSans-54" x="151.904297"/>
          </g>
         </g>
        </g>
        <g id="xtick_2">
         <g id="line2d_2"/>
         <g id="text_2">
          <!-- SRC -->
          <g transform="translate(541.420476 332.720312) scale(0.1 -0.1)">
           <defs>
            <path id="DejaVuSans-53" d="M 3425 4513 
L 3425 3897 
Q 3066 4069 2747 4153 
Q 2428 4238 2131 4238 
Q 1616 4238 1336 4038 
Q 1056 3838 1056 3469 
Q 1056 3159 1242 3001 
Q 1428 2844 1947 2747 
L 2328 2669 
Q 3034 2534 3370 2195 
Q 3706 1856 3706 1288 
Q 3706 609 3251 259 
Q 2797 -91 1919 -91 
Q 1588 -91 1214 -16 
Q 841 59 441 206 
L 441 856 
Q 825 641 1194 531 
Q 1563 422 1919 422 
Q 2459 422 2753 634 
Q 3047 847 3047 1241 
Q 3047 1584 2836 1778 
Q 2625 1972 2144 2069 
L 1759 2144 
Q 1053 2284 737 2584 
Q 422 2884 422 3419 
Q 422 4038 858 4394 
Q 1294 4750 2059 4750 
Q 2388 4750 2728 4690 
Q 3069 4631 3425 4513 
z
" transform="scale(0.015625)"/>
            <path id="DejaVuSans-52" d="M 2841 2188 
Q 3044 2119 3236 1894 
Q 3428 1669 3622 1275 
L 4263 0 
L 3584 0 
L 2988 1197 
Q 2756 1666 2539 1819 
Q 2322 1972 1947 1972 
L 1259 1972 
L 1259 0 
L 628 0 
L 628 4666 
L 2053 4666 
Q 2853 4666 3247 4331 
Q 3641 3997 3641 3322 
Q 3641 2881 3436 2590 
Q 3231 2300 2841 2188 
z
M 1259 4147 
L 1259 2491 
L 2053 2491 
Q 2509 2491 2742 2702 
Q 2975 2913 2975 3322 
Q 2975 3731 2742 3939 
Q 2509 4147 2053 4147 
L 1259 4147 
z
" transform="scale(0.015625)"/>
            <path id="DejaVuSans-43" d="M 4122 4306 
L 4122 3641 
Q 3803 3938 3442 4084 
Q 3081 4231 2675 4231 
Q 1875 4231 1450 3742 
Q 1025 3253 1025 2328 
Q 1025 1406 1450 917 
Q 1875 428 2675 428 
Q 3081 428 3442 575 
Q 3803 722 4122 1019 
L 4122 359 
Q 3791 134 3420 21 
Q 3050 -91 2638 -91 
Q 1578 -91 968 557 
Q 359 1206 359 2328 
Q 359 3453 968 4101 
Q 1578 4750 2638 4750 
Q 3056 4750 3426 4639 
Q 3797 4528 4122 4306 
z
" transform="scale(0.015625)"/>
           </defs>
           <use xlink:href="#DejaVuSans-53"/>
           <use xlink:href="#DejaVuSans-52" x="63.476562"/>
           <use xlink:href="#DejaVuSans-43" x="127.958984"/>
          </g>
         </g>
        </g>
        <g id="xtick_3">
         <g id="line2d_3"/>
         <g id="text_3">
          <!-- TAR -->
          <g transform="translate(426.333589 332.720312) scale(0.1 -0.1)">
           <defs>
            <path id="DejaVuSans-41" d="M 2188 4044 
L 1331 1722 
L 3047 1722 
L 2188 4044 
z
M 1831 4666 
L 2547 4666 
L 4325 0 
L 3669 0 
L 3244 1197 
L 1141 1197 
L 716 0 
L 50 0 
L 1831 4666 
z
" transform="scale(0.015625)"/>
           </defs>
           <use xlink:href="#DejaVuSans-54"/>
           <use xlink:href="#DejaVuSans-41" x="53.333984"/>
           <use xlink:href="#DejaVuSans-52" x="121.742188"/>
          </g>
         </g>
        </g>
       </g>
       <g id="matplotlib.axis_2">
        <g id="ytick_1">
         <g id="line2d_4">
          <defs>
           <path id="m1a106cf291" d="M 0 0 
L -3.5 0 
" style="stroke: #000000; stroke-width: 0.8"/>
          </defs>
          <g>
           <use xlink:href="#m1a106cf291" x="63.290625" y="321.621875" style="stroke: #000000; stroke-width: 0.8"/>
          </g>
         </g>
         <g id="text_4">
          <!-- 0 -->
          <g transform="translate(49.928125 325.421094) scale(0.1 -0.1)">
           <defs>
            <path id="DejaVuSans-30" d="M 2034 4250 
Q 1547 4250 1301 3770 
Q 1056 3291 1056 2328 
Q 1056 1369 1301 889 
Q 1547 409 2034 409 
Q 2525 409 2770 889 
Q 3016 1369 3016 2328 
Q 3016 3291 2770 3770 
Q 2525 4250 2034 4250 
z
M 2034 4750 
Q 2819 4750 3233 4129 
Q 3647 3509 3647 2328 
Q 3647 1150 3233 529 
Q 2819 -91 2034 -91 
Q 1250 -91 836 529 
Q 422 1150 422 2328 
Q 422 3509 836 4129 
Q 1250 4750 2034 4750 
z
" transform="scale(0.015625)"/>
           </defs>
           <use xlink:href="#DejaVuSans-30"/>
          </g>
         </g>
        </g>
        <g id="ytick_2">
         <g id="line2d_5">
          <g>
           <use xlink:href="#m1a106cf291" x="63.290625" y="285.094883" style="stroke: #000000; stroke-width: 0.8"/>
          </g>
         </g>
         <g id="text_5">
          <!-- 2000 -->
          <g transform="translate(30.840625 288.894101) scale(0.1 -0.1)">
           <defs>
            <path id="DejaVuSans-32" d="M 1228 531 
L 3431 531 
L 3431 0 
L 469 0 
L 469 531 
Q 828 903 1448 1529 
Q 2069 2156 2228 2338 
Q 2531 2678 2651 2914 
Q 2772 3150 2772 3378 
Q 2772 3750 2511 3984 
Q 2250 4219 1831 4219 
Q 1534 4219 1204 4116 
Q 875 4013 500 3803 
L 500 4441 
Q 881 4594 1212 4672 
Q 1544 4750 1819 4750 
Q 2544 4750 2975 4387 
Q 3406 4025 3406 3419 
Q 3406 3131 3298 2873 
Q 3191 2616 2906 2266 
Q 2828 2175 2409 1742 
Q 1991 1309 1228 531 
z
" transform="scale(0.015625)"/>
           </defs>
           <use xlink:href="#DejaVuSans-32"/>
           <use xlink:href="#DejaVuSans-30" x="63.623047"/>
           <use xlink:href="#DejaVuSans-30" x="127.246094"/>
           <use xlink:href="#DejaVuSans-30" x="190.869141"/>
          </g>
         </g>
        </g>
        <g id="ytick_3">
         <g id="line2d_6">
          <g>
           <use xlink:href="#m1a106cf291" x="63.290625" y="248.56789" style="stroke: #000000; stroke-width: 0.8"/>
          </g>
         </g>
         <g id="text_6">
          <!-- 4000 -->
          <g transform="translate(30.840625 252.367109) scale(0.1 -0.1)">
           <defs>
            <path id="DejaVuSans-34" d="M 2419 4116 
L 825 1625 
L 2419 1625 
L 2419 4116 
z
M 2253 4666 
L 3047 4666 
L 3047 1625 
L 3713 1625 
L 3713 1100 
L 3047 1100 
L 3047 0 
L 2419 0 
L 2419 1100 
L 313 1100 
L 313 1709 
L 2253 4666 
z
" transform="scale(0.015625)"/>
           </defs>
           <use xlink:href="#DejaVuSans-34"/>
           <use xlink:href="#DejaVuSans-30" x="63.623047"/>
           <use xlink:href="#DejaVuSans-30" x="127.246094"/>
           <use xlink:href="#DejaVuSans-30" x="190.869141"/>
          </g>
         </g>
        </g>
        <g id="ytick_4">
         <g id="line2d_7">
          <g>
           <use xlink:href="#m1a106cf291" x="63.290625" y="212.040898" style="stroke: #000000; stroke-width: 0.8"/>
          </g>
         </g>
         <g id="text_7">
          <!-- 6000 -->
          <g transform="translate(30.840625 215.840117) scale(0.1 -0.1)">
           <defs>
            <path id="DejaVuSans-36" d="M 2113 2584 
Q 1688 2584 1439 2293 
Q 1191 2003 1191 1497 
Q 1191 994 1439 701 
Q 1688 409 2113 409 
Q 2538 409 2786 701 
Q 3034 994 3034 1497 
Q 3034 2003 2786 2293 
Q 2538 2584 2113 2584 
z
M 3366 4563 
L 3366 3988 
Q 3128 4100 2886 4159 
Q 2644 4219 2406 4219 
Q 1781 4219 1451 3797 
Q 1122 3375 1075 2522 
Q 1259 2794 1537 2939 
Q 1816 3084 2150 3084 
Q 2853 3084 3261 2657 
Q 3669 2231 3669 1497 
Q 3669 778 3244 343 
Q 2819 -91 2113 -91 
Q 1303 -91 875 529 
Q 447 1150 447 2328 
Q 447 3434 972 4092 
Q 1497 4750 2381 4750 
Q 2619 4750 2861 4703 
Q 3103 4656 3366 4563 
z
" transform="scale(0.015625)"/>
           </defs>
           <use xlink:href="#DejaVuSans-36"/>
           <use xlink:href="#DejaVuSans-30" x="63.623047"/>
           <use xlink:href="#DejaVuSans-30" x="127.246094"/>
           <use xlink:href="#DejaVuSans-30" x="190.869141"/>
          </g>
         </g>
        </g>
        <g id="ytick_5">
         <g id="line2d_8">
          <g>
           <use xlink:href="#m1a106cf291" x="63.290625" y="175.513906" style="stroke: #000000; stroke-width: 0.8"/>
          </g>
         </g>
         <g id="text_8">
          <!-- 8000 -->
          <g transform="translate(30.840625 179.313125) scale(0.1 -0.1)">
           <defs>
            <path id="DejaVuSans-38" d="M 2034 2216 
Q 1584 2216 1326 1975 
Q 1069 1734 1069 1313 
Q 1069 891 1326 650 
Q 1584 409 2034 409 
Q 2484 409 2743 651 
Q 3003 894 3003 1313 
Q 3003 1734 2745 1975 
Q 2488 2216 2034 2216 
z
M 1403 2484 
Q 997 2584 770 2862 
Q 544 3141 544 3541 
Q 544 4100 942 4425 
Q 1341 4750 2034 4750 
Q 2731 4750 3128 4425 
Q 3525 4100 3525 3541 
Q 3525 3141 3298 2862 
Q 3072 2584 2669 2484 
Q 3125 2378 3379 2068 
Q 3634 1759 3634 1313 
Q 3634 634 3220 271 
Q 2806 -91 2034 -91 
Q 1263 -91 848 271 
Q 434 634 434 1313 
Q 434 1759 690 2068 
Q 947 2378 1403 2484 
z
M 1172 3481 
Q 1172 3119 1398 2916 
Q 1625 2713 2034 2713 
Q 2441 2713 2670 2916 
Q 2900 3119 2900 3481 
Q 2900 3844 2670 4047 
Q 2441 4250 2034 4250 
Q 1625 4250 1398 4047 
Q 1172 3844 1172 3481 
z
" transform="scale(0.015625)"/>
           </defs>
           <use xlink:href="#DejaVuSans-38"/>
           <use xlink:href="#DejaVuSans-30" x="63.623047"/>
           <use xlink:href="#DejaVuSans-30" x="127.246094"/>
           <use xlink:href="#DejaVuSans-30" x="190.869141"/>
          </g>
         </g>
        </g>
        <g id="ytick_6">
         <g id="line2d_9">
          <g>
           <use xlink:href="#m1a106cf291" x="63.290625" y="138.986914" style="stroke: #000000; stroke-width: 0.8"/>
          </g>
         </g>
         <g id="text_9">
          <!-- 10000 -->
          <g transform="translate(24.478125 142.786132) scale(0.1 -0.1)">
           <defs>
            <path id="DejaVuSans-31" d="M 794 531 
L 1825 531 
L 1825 4091 
L 703 3866 
L 703 4441 
L 1819 4666 
L 2450 4666 
L 2450 531 
L 3481 531 
L 3481 0 
L 794 0 
L 794 531 
z
" transform="scale(0.015625)"/>
           </defs>
           <use xlink:href="#DejaVuSans-31"/>
           <use xlink:href="#DejaVuSans-30" x="63.623047"/>
           <use xlink:href="#DejaVuSans-30" x="127.246094"/>
           <use xlink:href="#DejaVuSans-30" x="190.869141"/>
           <use xlink:href="#DejaVuSans-30" x="254.492188"/>
          </g>
         </g>
        </g>
        <g id="ytick_7">
         <g id="line2d_10">
          <g>
           <use xlink:href="#m1a106cf291" x="63.290625" y="102.459921" style="stroke: #000000; stroke-width: 0.8"/>
          </g>
         </g>
         <g id="text_10">
          <!-- 12000 -->
          <g transform="translate(24.478125 106.25914) scale(0.1 -0.1)">
           <use xlink:href="#DejaVuSans-31"/>
           <use xlink:href="#DejaVuSans-32" x="63.623047"/>
           <use xlink:href="#DejaVuSans-30" x="127.246094"/>
           <use xlink:href="#DejaVuSans-30" x="190.869141"/>
           <use xlink:href="#DejaVuSans-30" x="254.492188"/>
          </g>
         </g>
        </g>
        <g id="ytick_8">
         <g id="line2d_11">
          <g>
           <use xlink:href="#m1a106cf291" x="63.290625" y="65.932929" style="stroke: #000000; stroke-width: 0.8"/>
          </g>
         </g>
         <g id="text_11">
          <!-- 14000 -->
          <g transform="translate(24.478125 69.732148) scale(0.1 -0.1)">
           <use xlink:href="#DejaVuSans-31"/>
           <use xlink:href="#DejaVuSans-34" x="63.623047"/>
           <use xlink:href="#DejaVuSans-30" x="127.246094"/>
           <use xlink:href="#DejaVuSans-30" x="190.869141"/>
           <use xlink:href="#DejaVuSans-30" x="254.492188"/>
          </g>
         </g>
        </g>
        <g id="ytick_9">
         <g id="line2d_12">
          <g>
           <use xlink:href="#m1a106cf291" x="63.290625" y="29.405937" style="stroke: #000000; stroke-width: 0.8"/>
          </g>
         </g>
         <g id="text_12">
          <!-- 16000 -->
          <g transform="translate(24.478125 33.205155) scale(0.1 -0.1)">
           <use xlink:href="#DejaVuSans-31"/>
           <use xlink:href="#DejaVuSans-36" x="63.623047"/>
           <use xlink:href="#DejaVuSans-30" x="127.246094"/>
           <use xlink:href="#DejaVuSans-30" x="190.869141"/>
           <use xlink:href="#DejaVuSans-30" x="254.492188"/>
          </g>
         </g>
        </g>
        <g id="text_13">
         <!-- time ago (generations) -->
         <g transform="translate(18.398438 223.682031) rotate(-90) scale(0.1 -0.1)">
          <defs>
           <path id="DejaVuSans-74" d="M 1172 4494 
L 1172 3500 
L 2356 3500 
L 2356 3053 
L 1172 3053 
L 1172 1153 
Q 1172 725 1289 603 
Q 1406 481 1766 481 
L 2356 481 
L 2356 0 
L 1766 0 
Q 1100 0 847 248 
Q 594 497 594 1153 
L 594 3053 
L 172 3053 
L 172 3500 
L 594 3500 
L 594 4494 
L 1172 4494 
z
" transform="scale(0.015625)"/>
           <path id="DejaVuSans-69" d="M 603 3500 
L 1178 3500 
L 1178 0 
L 603 0 
L 603 3500 
z
M 603 4863 
L 1178 4863 
L 1178 4134 
L 603 4134 
L 603 4863 
z
" transform="scale(0.015625)"/>
           <path id="DejaVuSans-6d" d="M 3328 2828 
Q 3544 3216 3844 3400 
Q 4144 3584 4550 3584 
Q 5097 3584 5394 3201 
Q 5691 2819 5691 2113 
L 5691 0 
L 5113 0 
L 5113 2094 
Q 5113 2597 4934 2840 
Q 4756 3084 4391 3084 
Q 3944 3084 3684 2787 
Q 3425 2491 3425 1978 
L 3425 0 
L 2847 0 
L 2847 2094 
Q 2847 2600 2669 2842 
Q 2491 3084 2119 3084 
Q 1678 3084 1418 2786 
Q 1159 2488 1159 1978 
L 1159 0 
L 581 0 
L 581 3500 
L 1159 3500 
L 1159 2956 
Q 1356 3278 1631 3431 
Q 1906 3584 2284 3584 
Q 2666 3584 2933 3390 
Q 3200 3197 3328 2828 
z
" transform="scale(0.015625)"/>
           <path id="DejaVuSans-65" d="M 3597 1894 
L 3597 1613 
L 953 1613 
Q 991 1019 1311 708 
Q 1631 397 2203 397 
Q 2534 397 2845 478 
Q 3156 559 3463 722 
L 3463 178 
Q 3153 47 2828 -22 
Q 2503 -91 2169 -91 
Q 1331 -91 842 396 
Q 353 884 353 1716 
Q 353 2575 817 3079 
Q 1281 3584 2069 3584 
Q 2775 3584 3186 3129 
Q 3597 2675 3597 1894 
z
M 3022 2063 
Q 3016 2534 2758 2815 
Q 2500 3097 2075 3097 
Q 1594 3097 1305 2825 
Q 1016 2553 972 2059 
L 3022 2063 
z
" transform="scale(0.015625)"/>
           <path id="DejaVuSans-20" transform="scale(0.015625)"/>
           <path id="DejaVuSans-61" d="M 2194 1759 
Q 1497 1759 1228 1600 
Q 959 1441 959 1056 
Q 959 750 1161 570 
Q 1363 391 1709 391 
Q 2188 391 2477 730 
Q 2766 1069 2766 1631 
L 2766 1759 
L 2194 1759 
z
M 3341 1997 
L 3341 0 
L 2766 0 
L 2766 531 
Q 2569 213 2275 61 
Q 1981 -91 1556 -91 
Q 1019 -91 701 211 
Q 384 513 384 1019 
Q 384 1609 779 1909 
Q 1175 2209 1959 2209 
L 2766 2209 
L 2766 2266 
Q 2766 2663 2505 2880 
Q 2244 3097 1772 3097 
Q 1472 3097 1187 3025 
Q 903 2953 641 2809 
L 641 3341 
Q 956 3463 1253 3523 
Q 1550 3584 1831 3584 
Q 2591 3584 2966 3190 
Q 3341 2797 3341 1997 
z
" transform="scale(0.015625)"/>
           <path id="DejaVuSans-67" d="M 2906 1791 
Q 2906 2416 2648 2759 
Q 2391 3103 1925 3103 
Q 1463 3103 1205 2759 
Q 947 2416 947 1791 
Q 947 1169 1205 825 
Q 1463 481 1925 481 
Q 2391 481 2648 825 
Q 2906 1169 2906 1791 
z
M 3481 434 
Q 3481 -459 3084 -895 
Q 2688 -1331 1869 -1331 
Q 1566 -1331 1297 -1286 
Q 1028 -1241 775 -1147 
L 775 -588 
Q 1028 -725 1275 -790 
Q 1522 -856 1778 -856 
Q 2344 -856 2625 -561 
Q 2906 -266 2906 331 
L 2906 616 
Q 2728 306 2450 153 
Q 2172 0 1784 0 
Q 1141 0 747 490 
Q 353 981 353 1791 
Q 353 2603 747 3093 
Q 1141 3584 1784 3584 
Q 2172 3584 2450 3431 
Q 2728 3278 2906 2969 
L 2906 3500 
L 3481 3500 
L 3481 434 
z
" transform="scale(0.015625)"/>
           <path id="DejaVuSans-6f" d="M 1959 3097 
Q 1497 3097 1228 2736 
Q 959 2375 959 1747 
Q 959 1119 1226 758 
Q 1494 397 1959 397 
Q 2419 397 2687 759 
Q 2956 1122 2956 1747 
Q 2956 2369 2687 2733 
Q 2419 3097 1959 3097 
z
M 1959 3584 
Q 2709 3584 3137 3096 
Q 3566 2609 3566 1747 
Q 3566 888 3137 398 
Q 2709 -91 1959 -91 
Q 1206 -91 779 398 
Q 353 888 353 1747 
Q 353 2609 779 3096 
Q 1206 3584 1959 3584 
z
" transform="scale(0.015625)"/>
           <path id="DejaVuSans-28" d="M 1984 4856 
Q 1566 4138 1362 3434 
Q 1159 2731 1159 2009 
Q 1159 1288 1364 580 
Q 1569 -128 1984 -844 
L 1484 -844 
Q 1016 -109 783 600 
Q 550 1309 550 2009 
Q 550 2706 781 3412 
Q 1013 4119 1484 4856 
L 1984 4856 
z
" transform="scale(0.015625)"/>
           <path id="DejaVuSans-6e" d="M 3513 2113 
L 3513 0 
L 2938 0 
L 2938 2094 
Q 2938 2591 2744 2837 
Q 2550 3084 2163 3084 
Q 1697 3084 1428 2787 
Q 1159 2491 1159 1978 
L 1159 0 
L 581 0 
L 581 3500 
L 1159 3500 
L 1159 2956 
Q 1366 3272 1645 3428 
Q 1925 3584 2291 3584 
Q 2894 3584 3203 3211 
Q 3513 2838 3513 2113 
z
" transform="scale(0.015625)"/>
           <path id="DejaVuSans-72" d="M 2631 2963 
Q 2534 3019 2420 3045 
Q 2306 3072 2169 3072 
Q 1681 3072 1420 2755 
Q 1159 2438 1159 1844 
L 1159 0 
L 581 0 
L 581 3500 
L 1159 3500 
L 1159 2956 
Q 1341 3275 1631 3429 
Q 1922 3584 2338 3584 
Q 2397 3584 2469 3576 
Q 2541 3569 2628 3553 
L 2631 2963 
z
" transform="scale(0.015625)"/>
           <path id="DejaVuSans-73" d="M 2834 3397 
L 2834 2853 
Q 2591 2978 2328 3040 
Q 2066 3103 1784 3103 
Q 1356 3103 1142 2972 
Q 928 2841 928 2578 
Q 928 2378 1081 2264 
Q 1234 2150 1697 2047 
L 1894 2003 
Q 2506 1872 2764 1633 
Q 3022 1394 3022 966 
Q 3022 478 2636 193 
Q 2250 -91 1575 -91 
Q 1294 -91 989 -36 
Q 684 19 347 128 
L 347 722 
Q 666 556 975 473 
Q 1284 391 1588 391 
Q 1994 391 2212 530 
Q 2431 669 2431 922 
Q 2431 1156 2273 1281 
Q 2116 1406 1581 1522 
L 1381 1569 
Q 847 1681 609 1914 
Q 372 2147 372 2553 
Q 372 3047 722 3315 
Q 1072 3584 1716 3584 
Q 2034 3584 2315 3537 
Q 2597 3491 2834 3397 
z
" transform="scale(0.015625)"/>
           <path id="DejaVuSans-29" d="M 513 4856 
L 1013 4856 
Q 1481 4119 1714 3412 
Q 1947 2706 1947 2009 
Q 1947 1309 1714 600 
Q 1481 -109 1013 -844 
L 513 -844 
Q 928 -128 1133 580 
Q 1338 1288 1338 2009 
Q 1338 2731 1133 3434 
Q 928 4138 513 4856 
z
" transform="scale(0.015625)"/>
          </defs>
          <use xlink:href="#DejaVuSans-74"/>
          <use xlink:href="#DejaVuSans-69" x="39.208984"/>
          <use xlink:href="#DejaVuSans-6d" x="66.992188"/>
          <use xlink:href="#DejaVuSans-65" x="164.404297"/>
          <use xlink:href="#DejaVuSans-20" x="225.927734"/>
          <use xlink:href="#DejaVuSans-61" x="257.714844"/>
          <use xlink:href="#DejaVuSans-67" x="318.994141"/>
          <use xlink:href="#DejaVuSans-6f" x="382.470703"/>
          <use xlink:href="#DejaVuSans-20" x="443.652344"/>
          <use xlink:href="#DejaVuSans-28" x="475.439453"/>
          <use xlink:href="#DejaVuSans-67" x="514.453125"/>
          <use xlink:href="#DejaVuSans-65" x="577.929688"/>
          <use xlink:href="#DejaVuSans-6e" x="639.453125"/>
          <use xlink:href="#DejaVuSans-65" x="702.832031"/>
          <use xlink:href="#DejaVuSans-72" x="764.355469"/>
          <use xlink:href="#DejaVuSans-61" x="805.46875"/>
          <use xlink:href="#DejaVuSans-74" x="866.748047"/>
          <use xlink:href="#DejaVuSans-69" x="905.957031"/>
          <use xlink:href="#DejaVuSans-6f" x="933.740234"/>
          <use xlink:href="#DejaVuSans-6e" x="994.921875"/>
          <use xlink:href="#DejaVuSans-73" x="1058.300781"/>
          <use xlink:href="#DejaVuSans-29" x="1110.400391"/>
         </g>
        </g>
       </g>
       <g id="patch_7">
        <path d="M 250.312114 120.723417 
L 249.312114 120.691981 
L 248.312114 120.655041 
L 247.312114 120.557294 
L 246.312114 120.524773 
L 245.312114 120.451148 
L 244.312114 120.412582 
L 243.312114 120.377169 
L 242.312114 120.319529 
L 241.312114 120.249143 
L 240.312114 120.197179 
L 239.312114 120.138089 
L 238.312114 120.049768 
L 237.312114 120.003624 
L 236.312114 119.961213 
L 235.312114 119.93072 
L 234.312114 119.904675 
L 233.312114 119.883475 
L 232.312114 119.829174 
L 231.312114 119.801236 
L 230.312114 119.771512 
L 229.312114 119.746118 
L 228.312114 119.734917 
L 227.312114 119.724793 
L 226.312114 119.724998 
L 225.312114 119.734507 
L 224.312114 119.746161 
L 223.312114 119.77719 
L 222.312114 119.788358 
L 221.312114 119.818476 
L 220.312114 119.878253 
L 219.312114 119.915444 
L 218.312114 119.95454 
L 217.312114 119.99698 
L 216.312114 120.029745 
L 215.312114 120.097172 
L 214.312114 120.136297 
L 213.312114 120.178972 
L 212.312114 120.249553 
L 211.312114 120.285943 
L 209.980322 120.344347 
" clip-path="url(#p5d3f15fd2f)" style="fill: none; stroke: #ffffff; stroke-width: 3; stroke-linecap: round"/>
        <path d="M 250.312114 120.723417 
L 249.312114 120.691981 
L 248.312114 120.655041 
L 247.312114 120.557294 
L 246.312114 120.524773 
L 245.312114 120.451148 
L 244.312114 120.412582 
L 243.312114 120.377169 
L 242.312114 120.319529 
L 241.312114 120.249143 
L 240.312114 120.197179 
L 239.312114 120.138089 
L 238.312114 120.049768 
L 237.312114 120.003624 
L 236.312114 119.961213 
L 235.312114 119.93072 
L 234.312114 119.904675 
L 233.312114 119.883475 
L 232.312114 119.829174 
L 231.312114 119.801236 
L 230.312114 119.771512 
L 229.312114 119.746118 
L 228.312114 119.734917 
L 227.312114 119.724793 
L 226.312114 119.724998 
L 225.312114 119.734507 
L 224.312114 119.746161 
L 223.312114 119.77719 
L 222.312114 119.788358 
L 221.312114 119.818476 
L 220.312114 119.878253 
L 219.312114 119.915444 
L 218.312114 119.95454 
L 217.312114 119.99698 
L 216.312114 120.029745 
L 215.312114 120.097172 
L 214.312114 120.136297 
L 213.312114 120.178972 
L 212.312114 120.249553 
L 211.312114 120.285943 
L 209.980322 120.344347 
" clip-path="url(#p5d3f15fd2f)" style="fill: none; stroke: #1f77b4; stroke-linecap: round"/>
        <path d="M 213.980322 122.723417 
L 213.099953 122.248086 
L 212.222046 121.767832 
L 211.371333 121.233191 
L 210.069158 120.545744 
L 210.996511 120.519729 
L 211.908186 120.10701 
L 212.81845 119.691471 
L 214.160946 119.084666 
L 213.506047 119.723417 
L 213.454083 120.723417 
L 213.394993 122.723417 
z
" clip-path="url(#p5d3f15fd2f)" style="fill: #ffffff; stroke: #ffffff; stroke-width: 3; stroke-linecap: round"/>
        <path d="M 213.980322 122.723417 
L 213.099953 122.248086 
L 212.222046 121.767832 
L 211.371333 121.233191 
L 210.069158 120.545744 
L 210.996511 120.519729 
L 211.908186 120.10701 
L 212.81845 119.691471 
L 214.160946 119.084666 
L 213.506047 119.723417 
L 213.454083 120.723417 
L 213.394993 122.723417 
z
" clip-path="url(#p5d3f15fd2f)" style="fill: #ffffff; stroke: #1f77b4; stroke-linecap: round"/>
        <g id="patch_8">
         <path d="M 390.642336 72.964375 
L 391.642336 72.995811 
L 392.642336 73.032752 
L 393.642336 73.130498 
L 394.642336 73.16302 
L 395.642336 73.236645 
L 396.642336 73.27521 
L 397.642336 73.310623 
L 398.642336 73.368263 
L 399.642336 73.438649 
L 400.642336 73.490614 
L 401.642336 73.549703 
L 402.642336 73.638024 
L 403.642336 73.684169 
L 404.642336 73.72658 
L 405.642336 73.757072 
L 406.642336 73.783117 
L 407.642336 73.804317 
L 408.642336 73.858618 
L 409.642336 73.886556 
L 410.642336 73.91628 
L 411.642336 73.941675 
L 412.642336 73.952875 
L 413.642336 73.962999 
L 414.642336 73.962795 
L 415.642336 73.953285 
L 416.642336 73.941631 
L 417.642336 73.910602 
L 418.642336 73.899434 
L 419.642336 73.869317 
L 420.642336 73.80954 
L 421.642336 73.772348 
L 422.642336 73.733252 
L 423.642336 73.690812 
L 424.642336 73.658047 
L 425.642336 73.590621 
L 426.642336 73.551495 
L 427.642336 73.50882 
L 428.642336 73.43824 
L 429.642336 73.401849 
L 430.642336 73.343446 
L 431.642336 73.232493 
L 432.642336 73.161835 
L 433.642336 73.048895 
L 434.642336 73.003122 
L 435.642336 72.941839 
L 436.642336 72.89334 
L 437.642336 72.812517 
L 438.642336 72.693998 
L 439.642336 72.623787 
L 440.642336 72.540525 
L 441.642336 72.507383 
L 442.642336 72.456146 
L 443.642336 72.387747 
L 444.642336 72.321532 
L 445.642336 72.244615 
L 446.642336 72.217299 
L 447.642336 72.190822 
L 448.642336 72.168171 
L 449.642336 72.14864 
L 450.642336 72.122246 
L 451.642336 72.072475 
L 452.642336 72.037402 
L 453.642336 72.001536 
L 454.642336 71.986169 
L 455.642336 71.9704 
L 456.642336 71.966987 
L 457.642336 71.96457 
L 458.642336 71.965056 
L 459.642336 71.966985 
L 460.642336 71.980242 
L 461.642336 71.988633 
L 462.642336 72.010169 
L 463.642336 72.033202 
L 464.642336 72.050435 
L 465.642336 72.068898 
L 466.642336 72.08935 
L 467.642336 72.10595 
L 468.642336 72.168729 
L 469.642336 72.243994 
L 470.642336 72.276633 
L 471.642336 72.344197 
L 472.642336 72.398244 
L 473.642336 72.431948 
L 474.642336 72.522074 
L 475.642336 72.550609 
L 476.642336 72.582095 
L 477.642336 72.613106 
L 478.642336 72.667914 
L 479.642336 72.732501 
L 480.642336 72.770697 
L 481.642336 72.866631 
L 482.642336 72.915889 
L 483.642336 72.959958 
L 484.642336 73.000082 
L 485.642336 73.108449 
L 486.642336 73.150077 
L 487.642336 73.212219 
L 488.642336 73.282181 
L 489.642336 73.386685 
L 490.642336 73.423673 
L 491.642336 73.46955 
L 492.642336 73.538045 
L 493.642336 73.586791 
L 494.642336 73.664388 
L 495.642336 73.694929 
L 496.642336 73.764443 
L 497.642336 73.788416 
L 498.642336 73.817038 
L 499.642336 73.858831 
L 500.642336 73.880407 
L 501.642336 73.894355 
L 502.642336 73.921077 
L 503.642336 73.930387 
L 504.642336 73.942834 
L 505.642336 73.953889 
L 506.642336 73.959553 
L 507.642336 73.964317 
L 508.642336 73.958769 
L 509.642336 73.945481 
L 510.642336 73.937964 
L 511.642336 73.913179 
L 512.642336 73.88961 
L 513.642336 73.85343 
L 514.642336 73.827468 
L 515.642336 73.805146 
L 516.642336 73.736386 
L 517.642336 73.661851 
L 518.642336 73.567872 
L 520.462051 73.51682 
" clip-path="url(#p5d3f15fd2f)" style="fill: none; stroke: #ffffff; stroke-width: 3; stroke-linecap: round"/>
         <path d="M 390.642336 72.964375 
L 391.642336 72.995811 
L 392.642336 73.032752 
L 393.642336 73.130498 
L 394.642336 73.16302 
L 395.642336 73.236645 
L 396.642336 73.27521 
L 397.642336 73.310623 
L 398.642336 73.368263 
L 399.642336 73.438649 
L 400.642336 73.490614 
L 401.642336 73.549703 
L 402.642336 73.638024 
L 403.642336 73.684169 
L 404.642336 73.72658 
L 405.642336 73.757072 
L 406.642336 73.783117 
L 407.642336 73.804317 
L 408.642336 73.858618 
L 409.642336 73.886556 
L 410.642336 73.91628 
L 411.642336 73.941675 
L 412.642336 73.952875 
L 413.642336 73.962999 
L 414.642336 73.962795 
L 415.642336 73.953285 
L 416.642336 73.941631 
L 417.642336 73.910602 
L 418.642336 73.899434 
L 419.642336 73.869317 
L 420.642336 73.80954 
L 421.642336 73.772348 
L 422.642336 73.733252 
L 423.642336 73.690812 
L 424.642336 73.658047 
L 425.642336 73.590621 
L 426.642336 73.551495 
L 427.642336 73.50882 
L 428.642336 73.43824 
L 429.642336 73.401849 
L 430.642336 73.343446 
L 431.642336 73.232493 
L 432.642336 73.161835 
L 433.642336 73.048895 
L 434.642336 73.003122 
L 435.642336 72.941839 
L 436.642336 72.89334 
L 437.642336 72.812517 
L 438.642336 72.693998 
L 439.642336 72.623787 
L 440.642336 72.540525 
L 441.642336 72.507383 
L 442.642336 72.456146 
L 443.642336 72.387747 
L 444.642336 72.321532 
L 445.642336 72.244615 
L 446.642336 72.217299 
L 447.642336 72.190822 
L 448.642336 72.168171 
L 449.642336 72.14864 
L 450.642336 72.122246 
L 451.642336 72.072475 
L 452.642336 72.037402 
L 453.642336 72.001536 
L 454.642336 71.986169 
L 455.642336 71.9704 
L 456.642336 71.966987 
L 457.642336 71.96457 
L 458.642336 71.965056 
L 459.642336 71.966985 
L 460.642336 71.980242 
L 461.642336 71.988633 
L 462.642336 72.010169 
L 463.642336 72.033202 
L 464.642336 72.050435 
L 465.642336 72.068898 
L 466.642336 72.08935 
L 467.642336 72.10595 
L 468.642336 72.168729 
L 469.642336 72.243994 
L 470.642336 72.276633 
L 471.642336 72.344197 
L 472.642336 72.398244 
L 473.642336 72.431948 
L 474.642336 72.522074 
L 475.642336 72.550609 
L 476.642336 72.582095 
L 477.642336 72.613106 
L 478.642336 72.667914 
L 479.642336 72.732501 
L 480.642336 72.770697 
L 481.642336 72.866631 
L 482.642336 72.915889 
L 483.642336 72.959958 
L 484.642336 73.000082 
L 485.642336 73.108449 
L 486.642336 73.150077 
L 487.642336 73.212219 
L 488.642336 73.282181 
L 489.642336 73.386685 
L 490.642336 73.423673 
L 491.642336 73.46955 
L 492.642336 73.538045 
L 493.642336 73.586791 
L 494.642336 73.664388 
L 495.642336 73.694929 
L 496.642336 73.764443 
L 497.642336 73.788416 
L 498.642336 73.817038 
L 499.642336 73.858831 
L 500.642336 73.880407 
L 501.642336 73.894355 
L 502.642336 73.921077 
L 503.642336 73.930387 
L 504.642336 73.942834 
L 505.642336 73.953889 
L 506.642336 73.959553 
L 507.642336 73.964317 
L 508.642336 73.958769 
L 509.642336 73.945481 
L 510.642336 73.937964 
L 511.642336 73.913179 
L 512.642336 73.88961 
L 513.642336 73.85343 
L 514.642336 73.827468 
L 515.642336 73.805146 
L 516.642336 73.736386 
L 517.642336 73.661851 
L 518.642336 73.567872 
L 520.462051 73.51682 
" clip-path="url(#p5d3f15fd2f)" style="fill: none; stroke: #1f77b4; stroke-linecap: round"/>
         <path d="M 516.462051 70.964375 
L 517.34242 71.439706 
L 518.220327 71.91996 
L 519.07104 72.454601 
L 520.373214 73.142048 
L 519.445861 73.168063 
L 518.534187 73.580783 
L 517.623923 73.996322 
L 516.281427 74.603126 
L 516.936326 73.964375 
L 516.98829 72.964375 
L 517.04738 70.964375 
z
" clip-path="url(#p5d3f15fd2f)" style="fill: #ffffff; stroke: #ffffff; stroke-width: 3; stroke-linecap: round"/>
         <path d="M 516.462051 70.964375 
L 517.34242 71.439706 
L 518.220327 71.91996 
L 519.07104 72.454601 
L 520.373214 73.142048 
L 519.445861 73.168063 
L 518.534187 73.580783 
L 517.623923 73.996322 
L 516.281427 74.603126 
L 516.936326 73.964375 
L 516.98829 72.964375 
L 517.04738 70.964375 
z
" clip-path="url(#p5d3f15fd2f)" style="fill: #ffffff; stroke: #1f77b4; stroke-linecap: round"/>
         <g id="patch_9">
          <path d="M 208.859171 237.116678 
L 209.859171 237.148115 
L 210.859171 237.185055 
L 211.859171 237.282802 
L 212.859171 237.315323 
L 213.859171 237.388948 
L 214.859171 237.427514 
L 215.859171 237.462927 
L 216.859171 237.520567 
L 217.859171 237.590953 
L 218.859171 237.642917 
L 219.859171 237.702007 
L 220.859171 237.790328 
L 221.859171 237.836472 
L 222.859171 237.878883 
L 223.859171 237.909376 
L 224.859171 237.935421 
L 225.859171 237.956621 
L 226.859171 238.010922 
L 227.859171 238.038859 
L 228.859171 238.068583 
L 229.859171 238.093978 
L 230.859171 238.105179 
L 231.859171 238.115303 
L 232.859171 238.115098 
L 233.859171 238.105588 
L 234.859171 238.093935 
L 235.859171 238.062905 
L 236.859171 238.051738 
L 237.859171 238.02162 
L 238.859171 237.961843 
L 239.859171 237.924652 
L 240.859171 237.885555 
L 241.859171 237.843116 
L 242.859171 237.810351 
L 243.859171 237.742924 
L 244.859171 237.703798 
L 245.859171 237.661124 
L 246.859171 237.590543 
L 247.859171 237.554152 
L 248.859171 237.495749 
L 249.859171 237.384797 
L 250.859171 237.314138 
L 251.859171 237.201198 
L 252.859171 237.155426 
L 253.859171 237.094142 
L 254.859171 237.045643 
L 255.859171 236.96482 
L 256.859171 236.846301 
L 257.859171 236.776091 
L 258.859171 236.692828 
L 259.859171 236.659687 
L 260.859171 236.608449 
L 261.859171 236.540051 
L 262.859171 236.473835 
L 263.859171 236.396918 
L 264.859171 236.369603 
L 265.859171 236.343125 
L 266.859171 236.320475 
L 267.859171 236.300943 
L 268.859171 236.274549 
L 269.859171 236.224779 
L 270.859171 236.189705 
L 271.859171 236.15384 
L 272.859171 236.138473 
L 273.859171 236.122703 
L 274.859171 236.119291 
L 275.859171 236.116873 
L 276.859171 236.117359 
L 277.859171 236.119289 
L 278.859171 236.132545 
L 279.859171 236.140936 
L 280.859171 236.162473 
L 281.859171 236.185505 
L 282.859171 236.202739 
L 283.859171 236.221201 
L 284.859171 236.241654 
L 285.859171 236.258254 
L 286.859171 236.321032 
L 287.859171 236.396297 
L 288.859171 236.428936 
L 289.859171 236.4965 
L 290.859171 236.550547 
L 291.859171 236.584251 
L 292.859171 236.674377 
L 293.859171 236.702912 
L 294.859171 236.734399 
L 295.859171 236.765409 
L 296.859171 236.820217 
L 297.859171 236.884805 
L 298.859171 236.923 
L 299.859171 237.018934 
L 300.859171 237.068192 
L 301.859171 237.112262 
L 302.859171 237.152385 
L 303.859171 237.260752 
L 304.859171 237.302381 
L 305.859171 237.364522 
L 306.859171 237.434484 
L 307.859171 237.538989 
L 308.859171 237.575976 
L 309.859171 237.621854 
L 310.859171 237.690348 
L 311.859171 237.739094 
L 312.859171 237.816691 
L 313.859171 237.847232 
L 314.859171 237.916747 
L 315.859171 237.94072 
L 316.859171 237.969341 
L 317.859171 238.011134 
L 318.859171 238.03271 
L 319.859171 238.046658 
L 320.859171 238.073381 
L 321.859171 238.08269 
L 322.859171 238.095137 
L 323.859171 238.106192 
L 324.859171 238.111857 
L 325.859171 238.11662 
L 326.859171 238.111073 
L 327.859171 238.097785 
L 328.859171 238.090267 
L 329.859171 238.065482 
L 330.859171 238.041914 
L 331.859171 238.005733 
L 332.859171 237.979771 
L 333.859171 237.95745 
L 334.859171 237.88869 
L 335.859171 237.814155 
L 336.859171 237.720175 
L 337.859171 237.669123 
L 338.859171 237.615189 
L 339.859171 237.579939 
L 340.859171 237.473851 
L 341.859171 237.421586 
L 342.859171 237.38468 
L 343.859171 237.353649 
L 344.859171 237.292493 
L 345.859171 237.225073 
L 346.859171 237.176167 
L 347.859171 237.110975 
L 348.859171 237.072788 
L 349.859171 237.030792 
L 350.859171 236.988774 
L 351.859171 236.929258 
L 352.859171 236.816098 
L 353.859171 236.763847 
L 354.859171 236.72443 
L 355.859171 236.677328 
L 356.859171 236.620549 
L 357.859171 236.587886 
L 358.859171 236.551708 
L 359.859171 236.519617 
L 360.859171 236.485337 
L 361.859171 236.42696 
L 362.859171 236.381774 
L 363.859171 236.352151 
L 364.859171 236.301765 
L 365.859171 236.276567 
L 366.859171 236.255516 
L 367.859171 236.220548 
L 368.859171 236.196258 
L 369.859171 236.182191 
L 370.859171 236.16325 
L 371.859171 236.147588 
L 372.859171 236.135036 
L 373.859171 236.129201 
L 374.859171 236.122318 
L 375.859171 236.117144 
L 376.859171 236.118927 
L 377.859171 236.121653 
L 378.859171 236.132806 
L 379.859171 236.161041 
L 380.859171 236.204829 
L 381.859171 236.225518 
L 382.859171 236.266492 
L 383.859171 236.306567 
L 384.859171 236.325677 
L 385.859171 236.348185 
L 386.859171 236.414837 
L 387.859171 236.464546 
L 388.859171 236.538253 
L 389.859171 236.569566 
L 390.859171 236.646189 
L 391.859171 236.684487 
L 392.859171 236.758603 
L 393.859171 236.862662 
L 394.859171 236.932492 
L 395.859171 237.037726 
L 396.859171 237.092741 
L 397.859171 237.216216 
L 398.859171 237.286775 
L 399.859171 237.402615 
L 400.859171 237.452795 
L 401.859171 237.4884 
L 402.859171 237.579806 
L 403.859171 237.633314 
L 404.859171 237.721222 
L 405.859171 237.790407 
L 406.859171 237.837172 
L 407.859171 237.909215 
L 408.859171 237.959357 
L 409.859171 237.976747 
L 410.859171 238.003751 
L 411.859171 238.023178 
L 412.859171 238.042516 
L 413.859171 238.080764 
L 414.859171 238.097198 
L 415.859171 238.105566 
L 416.859171 238.109885 
L 418.179304 238.116441 
" clip-path="url(#p5d3f15fd2f)" style="fill: none; stroke: #ffffff; stroke-width: 3; stroke-linecap: round"/>
          <path d="M 208.859171 237.116678 
L 209.859171 237.148115 
L 210.859171 237.185055 
L 211.859171 237.282802 
L 212.859171 237.315323 
L 213.859171 237.388948 
L 214.859171 237.427514 
L 215.859171 237.462927 
L 216.859171 237.520567 
L 217.859171 237.590953 
L 218.859171 237.642917 
L 219.859171 237.702007 
L 220.859171 237.790328 
L 221.859171 237.836472 
L 222.859171 237.878883 
L 223.859171 237.909376 
L 224.859171 237.935421 
L 225.859171 237.956621 
L 226.859171 238.010922 
L 227.859171 238.038859 
L 228.859171 238.068583 
L 229.859171 238.093978 
L 230.859171 238.105179 
L 231.859171 238.115303 
L 232.859171 238.115098 
L 233.859171 238.105588 
L 234.859171 238.093935 
L 235.859171 238.062905 
L 236.859171 238.051738 
L 237.859171 238.02162 
L 238.859171 237.961843 
L 239.859171 237.924652 
L 240.859171 237.885555 
L 241.859171 237.843116 
L 242.859171 237.810351 
L 243.859171 237.742924 
L 244.859171 237.703798 
L 245.859171 237.661124 
L 246.859171 237.590543 
L 247.859171 237.554152 
L 248.859171 237.495749 
L 249.859171 237.384797 
L 250.859171 237.314138 
L 251.859171 237.201198 
L 252.859171 237.155426 
L 253.859171 237.094142 
L 254.859171 237.045643 
L 255.859171 236.96482 
L 256.859171 236.846301 
L 257.859171 236.776091 
L 258.859171 236.692828 
L 259.859171 236.659687 
L 260.859171 236.608449 
L 261.859171 236.540051 
L 262.859171 236.473835 
L 263.859171 236.396918 
L 264.859171 236.369603 
L 265.859171 236.343125 
L 266.859171 236.320475 
L 267.859171 236.300943 
L 268.859171 236.274549 
L 269.859171 236.224779 
L 270.859171 236.189705 
L 271.859171 236.15384 
L 272.859171 236.138473 
L 273.859171 236.122703 
L 274.859171 236.119291 
L 275.859171 236.116873 
L 276.859171 236.117359 
L 277.859171 236.119289 
L 278.859171 236.132545 
L 279.859171 236.140936 
L 280.859171 236.162473 
L 281.859171 236.185505 
L 282.859171 236.202739 
L 283.859171 236.221201 
L 284.859171 236.241654 
L 285.859171 236.258254 
L 286.859171 236.321032 
L 287.859171 236.396297 
L 288.859171 236.428936 
L 289.859171 236.4965 
L 290.859171 236.550547 
L 291.859171 236.584251 
L 292.859171 236.674377 
L 293.859171 236.702912 
L 294.859171 236.734399 
L 295.859171 236.765409 
L 296.859171 236.820217 
L 297.859171 236.884805 
L 298.859171 236.923 
L 299.859171 237.018934 
L 300.859171 237.068192 
L 301.859171 237.112262 
L 302.859171 237.152385 
L 303.859171 237.260752 
L 304.859171 237.302381 
L 305.859171 237.364522 
L 306.859171 237.434484 
L 307.859171 237.538989 
L 308.859171 237.575976 
L 309.859171 237.621854 
L 310.859171 237.690348 
L 311.859171 237.739094 
L 312.859171 237.816691 
L 313.859171 237.847232 
L 314.859171 237.916747 
L 315.859171 237.94072 
L 316.859171 237.969341 
L 317.859171 238.011134 
L 318.859171 238.03271 
L 319.859171 238.046658 
L 320.859171 238.073381 
L 321.859171 238.08269 
L 322.859171 238.095137 
L 323.859171 238.106192 
L 324.859171 238.111857 
L 325.859171 238.11662 
L 326.859171 238.111073 
L 327.859171 238.097785 
L 328.859171 238.090267 
L 329.859171 238.065482 
L 330.859171 238.041914 
L 331.859171 238.005733 
L 332.859171 237.979771 
L 333.859171 237.95745 
L 334.859171 237.88869 
L 335.859171 237.814155 
L 336.859171 237.720175 
L 337.859171 237.669123 
L 338.859171 237.615189 
L 339.859171 237.579939 
L 340.859171 237.473851 
L 341.859171 237.421586 
L 342.859171 237.38468 
L 343.859171 237.353649 
L 344.859171 237.292493 
L 345.859171 237.225073 
L 346.859171 237.176167 
L 347.859171 237.110975 
L 348.859171 237.072788 
L 349.859171 237.030792 
L 350.859171 236.988774 
L 351.859171 236.929258 
L 352.859171 236.816098 
L 353.859171 236.763847 
L 354.859171 236.72443 
L 355.859171 236.677328 
L 356.859171 236.620549 
L 357.859171 236.587886 
L 358.859171 236.551708 
L 359.859171 236.519617 
L 360.859171 236.485337 
L 361.859171 236.42696 
L 362.859171 236.381774 
L 363.859171 236.352151 
L 364.859171 236.301765 
L 365.859171 236.276567 
L 366.859171 236.255516 
L 367.859171 236.220548 
L 368.859171 236.196258 
L 369.859171 236.182191 
L 370.859171 236.16325 
L 371.859171 236.147588 
L 372.859171 236.135036 
L 373.859171 236.129201 
L 374.859171 236.122318 
L 375.859171 236.117144 
L 376.859171 236.118927 
L 377.859171 236.121653 
L 378.859171 236.132806 
L 379.859171 236.161041 
L 380.859171 236.204829 
L 381.859171 236.225518 
L 382.859171 236.266492 
L 383.859171 236.306567 
L 384.859171 236.325677 
L 385.859171 236.348185 
L 386.859171 236.414837 
L 387.859171 236.464546 
L 388.859171 236.538253 
L 389.859171 236.569566 
L 390.859171 236.646189 
L 391.859171 236.684487 
L 392.859171 236.758603 
L 393.859171 236.862662 
L 394.859171 236.932492 
L 395.859171 237.037726 
L 396.859171 237.092741 
L 397.859171 237.216216 
L 398.859171 237.286775 
L 399.859171 237.402615 
L 400.859171 237.452795 
L 401.859171 237.4884 
L 402.859171 237.579806 
L 403.859171 237.633314 
L 404.859171 237.721222 
L 405.859171 237.790407 
L 406.859171 237.837172 
L 407.859171 237.909215 
L 408.859171 237.959357 
L 409.859171 237.976747 
L 410.859171 238.003751 
L 411.859171 238.023178 
L 412.859171 238.042516 
L 413.859171 238.080764 
L 414.859171 238.097198 
L 415.859171 238.105566 
L 416.859171 238.109885 
L 418.179304 238.116441 
" clip-path="url(#p5d3f15fd2f)" style="fill: none; stroke: #ff7f0e; stroke-linecap: round"/>
          <path d="M 414.179304 235.116678 
L 415.059672 235.59201 
L 415.937579 236.072264 
L 416.788293 236.606904 
L 418.090467 237.294352 
L 417.163114 237.320367 
L 416.251439 237.733086 
L 415.341175 238.148625 
L 413.998679 238.75543 
L 414.653578 238.116678 
L 414.705542 237.116678 
L 414.764632 235.116678 
z
" clip-path="url(#p5d3f15fd2f)" style="fill: #ffffff; stroke: #ffffff; stroke-width: 3; stroke-linecap: round"/>
          <path d="M 414.179304 235.116678 
L 415.059672 235.59201 
L 415.937579 236.072264 
L 416.788293 236.606904 
L 418.090467 237.294352 
L 417.163114 237.320367 
L 416.251439 237.733086 
L 415.341175 238.148625 
L 413.998679 238.75543 
L 414.653578 238.116678 
L 414.705542 237.116678 
L 414.764632 235.116678 
z
" clip-path="url(#p5d3f15fd2f)" style="fill: #ffffff; stroke: #ff7f0e; stroke-linecap: round"/>
          <path d="M 455.894773 292.619443 
" clip-path="url(#p5d3f15fd2f)" style="fill: none; stroke-dasharray: 3.7,1.6; stroke-dashoffset: 0; stroke: #2ca02c"/>
          <path d="M 454.894773 292.619443 
L 456.894773 293.619443 
L 456.894773 291.619443 
z
" clip-path="url(#p5d3f15fd2f)" style="fill: #2ca02c; stroke: #2ca02c; stroke-linejoin: miter"/>
          <g id="patch_10">
           <path d="M 63.290625 321.621875 
L 63.290625 10.8 
" style="fill: none; stroke: #000000; stroke-width: 0.8; stroke-linejoin: miter; stroke-linecap: square"/>
          </g>
          <g id="text_14">
           <g id="patch_11">
            <path d="M 309.82639 72.600771 
L 331.131077 72.600771 
Q 333.131077 72.600771 333.131077 70.600771 
L 333.131077 60.922646 
Q 333.131077 58.922646 331.131077 58.922646 
L 309.82639 58.922646 
Q 307.82639 58.922646 307.82639 60.922646 
L 307.82639 70.600771 
Q 307.82639 72.600771 309.82639 72.600771 
z
" style="fill: #ffffff; opacity: 0.6"/>
           </g>
           <!-- ANC -->
           <g transform="translate(309.82639 68.521084) scale(0.1 -0.1)">
            <defs>
             <path id="DejaVuSans-4e" d="M 628 4666 
L 1478 4666 
L 3547 763 
L 3547 4666 
L 4159 4666 
L 4159 0 
L 3309 0 
L 1241 3903 
L 1241 0 
L 628 0 
L 628 4666 
z
" transform="scale(0.015625)"/>
            </defs>
            <use xlink:href="#DejaVuSans-41"/>
            <use xlink:href="#DejaVuSans-4e" x="68.408203"/>
            <use xlink:href="#DejaVuSans-43" x="143.212891"/>
           </g>
          </g>
         </g>
        </g>
        <defs>
         <clipPath id="p5d3f15fd2f">
          <rect x="63.290625" y="10.8" width="540.309375" height="310.821875"/>
         </clipPath>
        </defs>
       </g>
      </g>
     </g>
    </g>
   </g>
  </g>
 </g>
</svg>
