<?xml version="1.0" encoding="utf-8" standalone="no"?>
<!DOCTYPE svg PUBLIC "-//W3C//DTD SVG 1.1//EN"
  "http://www.w3.org/Graphics/SVG/1.1/DTD/svg11.dtd">
<svg xmlns:xlink="http://www.w3.org/1999/xlink" width="614.4pt" height="345.6pt" viewBox="0 0 614.4 345.6" xmlns="http://www.w3.org/2000/svg" version="1.1">
 <metadata>
  <rdf:RDF xmlns:dc="http://purl.org/dc/elements/1.1/" xmlns:cc="http://creativecommons.org/ns#" xmlns:rdf="http://www.w3.org/1999/02/22-rdf-syntax-ns#">
   <cc:Work>
    <dc:type rdf:resource="http://purl.org/dc/dcmitype/StillImage"/>
    <dc:date>2024-04-17T19:48:37.383343</dc:date>
    <dc:format>image/svg+xml</dc:format>
    <dc:creator>
     <cc:Agent>
      <dc:title>Matplotlib v3.7.1, https://matplotlib.org/</dc:title>
     </cc:Agent>
    </dc:creator>
   </cc:Work>
  </rdf:RDF>
 </metadata>
 <defs>
  <style type="text/css">*{stroke-linejoin: round; stroke-linecap: butt}</style>
 </defs>
 <g id="figure_1">
  <g id="patch_1">
   <path d="M 0 345.6 
L 614.4 345.6 
L 614.4 0 
L 0 0 
z
" style="fill: #ffffff"/>
  </g>
  <g id="axes_1">
   <g id="patch_2">
    <path d="M 63.290625 321.621875 
L 603.6 321.621875 
L 603.6 10.8 
L 63.290625 10.8 
z
" style="fill: #ffffff"/>
   </g>
   <path d="M 552.953793 297.711804 
L 551.953793 297.680367 
L 550.953793 297.643427 
L 549.953793 297.545681 
L 548.953793 297.513159 
L 547.953793 297.439534 
L 546.953793 297.400969 
L 545.953793 297.365555 
L 544.953793 297.307916 
L 543.953793 297.237529 
L 542.953793 297.185565 
L 541.953793 297.126475 
L 540.953793 297.038154 
L 539.953793 296.99201 
L 538.953793 296.949599 
L 537.953793 296.919106 
L 536.953793 296.893062 
L 535.953793 296.871861 
L 534.953793 296.81756 
L 533.953793 296.789623 
L 532.953793 296.759899 
L 531.953793 296.734504 
L 530.953793 296.723304 
L 529.953793 296.71318 
L 528.953793 296.713384 
L 527.953793 296.722894 
L 526.953793 296.734547 
L 525.953793 296.765577 
L 524.953793 296.776745 
L 523.953793 296.806862 
L 522.953793 296.866639 
L 521.953793 296.903831 
L 520.953793 296.942927 
L 519.953793 296.985366 
L 518.953793 297.018131 
L 517.953793 297.085558 
L 516.953793 297.124684 
L 515.953793 297.167358 
L 514.953793 297.237939 
L 513.953793 297.27433 
L 512.953793 297.332733 
L 511.953793 297.443686 
L 510.953793 297.514344 
L 509.953793 297.627284 
L 508.953793 297.673057 
L 507.953793 297.73434 
L 506.953793 297.782839 
L 505.953793 297.863662 
L 504.953793 297.982181 
L 503.953793 298.052391 
L 502.953793 298.135654 
L 501.953793 298.168796 
L 500.953793 298.220033 
L 499.953793 298.288431 
L 498.953793 298.354647 
L 497.953793 298.431564 
L 496.953793 298.458879 
L 495.953793 298.485357 
L 494.953793 298.508007 
L 493.953793 298.527539 
L 492.953793 298.553933 
L 491.953793 298.603704 
L 490.953793 298.638777 
L 489.953793 298.674642 
L 488.953793 298.69001 
L 487.953793 298.705779 
L 486.953793 298.709191 
L 485.953793 298.711609 
L 484.953793 298.711123 
L 483.953793 298.709194 
L 482.953793 298.695937 
L 481.953793 298.687546 
L 480.953793 298.666009 
L 479.953793 298.642977 
L 478.953793 298.625744 
L 477.953793 298.607281 
L 476.953793 298.586829 
L 475.953793 298.570229 
L 474.953793 298.50745 
L 473.953793 298.432185 
L 472.953793 298.399546 
L 471.953793 298.331982 
L 470.953793 298.277935 
L 469.953793 298.244231 
L 468.953793 298.154105 
L 467.953793 298.12557 
L 466.953793 298.094084 
L 465.953793 298.063073 
L 464.439434 298.008265 
" clip-path="url(#p3d70bd55f6)" style="fill: none; stroke-dasharray: 3.7,1.6; stroke-dashoffset: 0; stroke: #2ca02c"/>
   <g id="patch_3">
    <path d="M 298.212702 10.8 
L 298.212702 278.833527 
M 368.987974 10.8 
L 368.987974 278.833527 
" clip-path="url(#p3d70bd55f6)" style="fill: none; stroke: #ffffff; stroke-width: 3; stroke-linejoin: miter"/>
    <path d="M 298.212702 10.8 
L 298.212702 278.833527 
M 368.987974 10.8 
L 368.987974 278.833527 
" clip-path="url(#p3d70bd55f6)" style="fill: none; stroke: #1f77b4; stroke-linejoin: miter"/>
    <g id="PolyCollection_1">
     <path d="M 368.987974 10.8 
L 298.212702 10.8 
L 298.212702 278.833527 
L 368.987974 278.833527 
L 368.987974 278.833527 
L 368.987974 10.8 
z
" clip-path="url(#p3d70bd55f6)" style="fill: #1f77b4; fill-opacity: 0.5"/>
    </g>
    <g id="patch_4">
     <path d="M 87.850142 278.833527 
L 87.850142 321.621875 
M 226.703013 278.833527 
L 226.703013 321.621875 
" clip-path="url(#p3d70bd55f6)" style="fill: none; stroke: #ffffff; stroke-width: 3; stroke-linejoin: miter"/>
     <path d="M 87.850142 278.833527 
L 87.850142 321.621875 
M 226.703013 278.833527 
L 226.703013 321.621875 
" clip-path="url(#p3d70bd55f6)" style="fill: none; stroke: #ff7f0e; stroke-linejoin: miter"/>
     <g id="PolyCollection_2">
      <path d="M 226.703013 278.833527 
L 87.850142 278.833527 
L 87.850142 321.621875 
L 226.703013 321.621875 
L 226.703013 321.621875 
L 226.703013 278.833527 
z
" clip-path="url(#p3d70bd55f6)" style="fill: #ff7f0e; fill-opacity: 0.5"/>
     </g>
     <g id="patch_5">
      <path d="M 558.356886 72.964375 
L 558.356886 321.621875 
M 579.040483 72.964375 
L 579.040483 321.621875 
" clip-path="url(#p3d70bd55f6)" style="fill: none; stroke: #ffffff; stroke-width: 3; stroke-linejoin: miter"/>
      <path d="M 558.356886 72.964375 
L 558.356886 321.621875 
M 579.040483 72.964375 
L 579.040483 321.621875 
" clip-path="url(#p3d70bd55f6)" style="fill: none; stroke: #2ca02c; stroke-linejoin: miter"/>
      <g id="PolyCollection_3">
       <path d="M 579.040483 72.964375 
L 558.356886 72.964375 
L 558.356886 321.621875 
L 579.040483 321.621875 
L 579.040483 321.621875 
L 579.040483 72.964375 
z
" clip-path="url(#p3d70bd55f6)" style="fill: #2ca02c; fill-opacity: 0.5"/>
      </g>
      <g id="patch_6">
       <path d="M 443.262682 278.833527 
L 443.262682 321.621875 
M 459.036341 278.833527 
L 459.036341 321.621875 
" clip-path="url(#p3d70bd55f6)" style="fill: none; stroke: #ffffff; stroke-width: 3; stroke-linejoin: miter"/>
       <path d="M 443.262682 278.833527 
L 443.262682 321.621875 
M 459.036341 278.833527 
L 459.036341 321.621875 
" clip-path="url(#p3d70bd55f6)" style="fill: none; stroke: #d62728; stroke-linejoin: miter"/>
       <g id="PolyCollection_4">
        <path d="M 459.036341 278.833527 
L 443.262682 278.833527 
L 443.262682 321.621875 
L 459.036341 321.621875 
L 459.036341 321.621875 
L 459.036341 278.833527 
z
" clip-path="url(#p3d70bd55f6)" style="fill: #d62728; fill-opacity: 0.5"/>
       </g>
       <g id="matplotlib.axis_1">
        <g id="xtick_1">
         <g id="line2d_1"/>
         <g id="text_1">
          <!-- OUT -->
          <g transform="translate(146.627359 332.720312) scale(0.1 -0.1)">
           <defs>
            <path id="DejaVuSans-4f" d="M 2522 4238 
Q 1834 4238 1429 3725 
Q 1025 3213 1025 2328 
Q 1025 1447 1429 934 
Q 1834 422 2522 422 
Q 3209 422 3611 934 
Q 4013 1447 4013 2328 
Q 4013 3213 3611 3725 
Q 3209 4238 2522 4238 
z
M 2522 4750 
Q 3503 4750 4090 4092 
Q 4678 3434 4678 2328 
Q 4678 1225 4090 567 
Q 3503 -91 2522 -91 
Q 1538 -91 948 565 
Q 359 1222 359 2328 
Q 359 3434 948 4092 
Q 1538 4750 2522 4750 
z
" transform="scale(0.015625)"/>
            <path id="DejaVuSans-55" d="M 556 4666 
L 1191 4666 
L 1191 1831 
Q 1191 1081 1462 751 
Q 1734 422 2344 422 
Q 2950 422 3222 751 
Q 3494 1081 3494 1831 
L 3494 4666 
L 4128 4666 
L 4128 1753 
Q 4128 841 3676 375 
Q 3225 -91 2344 -91 
Q 1459 -91 1007 375 
Q 556 841 556 1753 
L 556 4666 
z
" transform="scale(0.015625)"/>
            <path id="DejaVuSans-54" d="M -19 4666 
L 3928 4666 
L 3928 4134 
L 2272 4134 
L 2272 0 
L 1638 0 
L 1638 4134 
L -19 4134 
L -19 4666 
z
" transform="scale(0.015625)"/>
           </defs>
           <use xlink:href="#DejaVuSans-4f"/>
           <use xlink:href="#DejaVuSans-55" x="78.710938"/>
           <use xlink:href="#DejaVuSans-54" x="151.904297"/>
          </g>
         </g>
        </g>
        <g id="xtick_2">
         <g id="line2d_2"/>
         <g id="text_2">
          <!-- SRC -->
          <g transform="translate(558.808841 332.720312) scale(0.1 -0.1)">
           <defs>
            <path id="DejaVuSans-53" d="M 3425 4513 
L 3425 3897 
Q 3066 4069 2747 4153 
Q 2428 4238 2131 4238 
Q 1616 4238 1336 4038 
Q 1056 3838 1056 3469 
Q 1056 3159 1242 3001 
Q 1428 2844 1947 2747 
L 2328 2669 
Q 3034 2534 3370 2195 
Q 3706 1856 3706 1288 
Q 3706 609 3251 259 
Q 2797 -91 1919 -91 
Q 1588 -91 1214 -16 
Q 841 59 441 206 
L 441 856 
Q 825 641 1194 531 
Q 1563 422 1919 422 
Q 2459 422 2753 634 
Q 3047 847 3047 1241 
Q 3047 1584 2836 1778 
Q 2625 1972 2144 2069 
L 1759 2144 
Q 1053 2284 737 2584 
Q 422 2884 422 3419 
Q 422 4038 858 4394 
Q 1294 4750 2059 4750 
Q 2388 4750 2728 4690 
Q 3069 4631 3425 4513 
z
" transform="scale(0.015625)"/>
            <path id="DejaVuSans-52" d="M 2841 2188 
Q 3044 2119 3236 1894 
Q 3428 1669 3622 1275 
L 4263 0 
L 3584 0 
L 2988 1197 
Q 2756 1666 2539 1819 
Q 2322 1972 1947 1972 
L 1259 1972 
L 1259 0 
L 628 0 
L 628 4666 
L 2053 4666 
Q 2853 4666 3247 4331 
Q 3641 3997 3641 3322 
Q 3641 2881 3436 2590 
Q 3231 2300 2841 2188 
z
M 1259 4147 
L 1259 2491 
L 2053 2491 
Q 2509 2491 2742 2702 
Q 2975 2913 2975 3322 
Q 2975 3731 2742 3939 
Q 2509 4147 2053 4147 
L 1259 4147 
z
" transform="scale(0.015625)"/>
            <path id="DejaVuSans-43" d="M 4122 4306 
L 4122 3641 
Q 3803 3938 3442 4084 
Q 3081 4231 2675 4231 
Q 1875 4231 1450 3742 
Q 1025 3253 1025 2328 
Q 1025 1406 1450 917 
Q 1875 428 2675 428 
Q 3081 428 3442 575 
Q 3803 722 4122 1019 
L 4122 359 
Q 3791 134 3420 21 
Q 3050 -91 2638 -91 
Q 1578 -91 968 557 
Q 359 1206 359 2328 
Q 359 3453 968 4101 
Q 1578 4750 2638 4750 
Q 3056 4750 3426 4639 
Q 3797 4528 4122 4306 
z
" transform="scale(0.015625)"/>
           </defs>
           <use xlink:href="#DejaVuSans-53"/>
           <use xlink:href="#DejaVuSans-52" x="63.476562"/>
           <use xlink:href="#DejaVuSans-43" x="127.958984"/>
          </g>
         </g>
        </g>
        <g id="xtick_3">
         <g id="line2d_3"/>
         <g id="text_3">
          <!-- TAR -->
          <g transform="translate(441.588574 332.720312) scale(0.1 -0.1)">
           <defs>
            <path id="DejaVuSans-41" d="M 2188 4044 
L 1331 1722 
L 3047 1722 
L 2188 4044 
z
M 1831 4666 
L 2547 4666 
L 4325 0 
L 3669 0 
L 3244 1197 
L 1141 1197 
L 716 0 
L 50 0 
L 1831 4666 
z
" transform="scale(0.015625)"/>
           </defs>
           <use xlink:href="#DejaVuSans-54"/>
           <use xlink:href="#DejaVuSans-41" x="53.333984"/>
           <use xlink:href="#DejaVuSans-52" x="121.742188"/>
          </g>
         </g>
        </g>
       </g>
       <g id="matplotlib.axis_2">
        <g id="ytick_1">
         <g id="line2d_4">
          <defs>
           <path id="m368d98febe" d="M 0 0 
L -3.5 0 
" style="stroke: #000000; stroke-width: 0.8"/>
          </defs>
          <g>
           <use xlink:href="#m368d98febe" x="63.290625" y="321.621875" style="stroke: #000000; stroke-width: 0.8"/>
          </g>
         </g>
         <g id="text_4">
          <!-- 0 -->
          <g transform="translate(49.928125 325.421094) scale(0.1 -0.1)">
           <defs>
            <path id="DejaVuSans-30" d="M 2034 4250 
Q 1547 4250 1301 3770 
Q 1056 3291 1056 2328 
Q 1056 1369 1301 889 
Q 1547 409 2034 409 
Q 2525 409 2770 889 
Q 3016 1369 3016 2328 
Q 3016 3291 2770 3770 
Q 2525 4250 2034 4250 
z
M 2034 4750 
Q 2819 4750 3233 4129 
Q 3647 3509 3647 2328 
Q 3647 1150 3233 529 
Q 2819 -91 2034 -91 
Q 1250 -91 836 529 
Q 422 1150 422 2328 
Q 422 3509 836 4129 
Q 1250 4750 2034 4750 
z
" transform="scale(0.015625)"/>
           </defs>
           <use xlink:href="#DejaVuSans-30"/>
          </g>
         </g>
        </g>
        <g id="ytick_2">
         <g id="line2d_5">
          <g>
           <use xlink:href="#m368d98febe" x="63.290625" y="285.421919" style="stroke: #000000; stroke-width: 0.8"/>
          </g>
         </g>
         <g id="text_5">
          <!-- 2000 -->
          <g transform="translate(30.840625 289.221137) scale(0.1 -0.1)">
           <defs>
            <path id="DejaVuSans-32" d="M 1228 531 
L 3431 531 
L 3431 0 
L 469 0 
L 469 531 
Q 828 903 1448 1529 
Q 2069 2156 2228 2338 
Q 2531 2678 2651 2914 
Q 2772 3150 2772 3378 
Q 2772 3750 2511 3984 
Q 2250 4219 1831 4219 
Q 1534 4219 1204 4116 
Q 875 4013 500 3803 
L 500 4441 
Q 881 4594 1212 4672 
Q 1544 4750 1819 4750 
Q 2544 4750 2975 4387 
Q 3406 4025 3406 3419 
Q 3406 3131 3298 2873 
Q 3191 2616 2906 2266 
Q 2828 2175 2409 1742 
Q 1991 1309 1228 531 
z
" transform="scale(0.015625)"/>
           </defs>
           <use xlink:href="#DejaVuSans-32"/>
           <use xlink:href="#DejaVuSans-30" x="63.623047"/>
           <use xlink:href="#DejaVuSans-30" x="127.246094"/>
           <use xlink:href="#DejaVuSans-30" x="190.869141"/>
          </g>
         </g>
        </g>
        <g id="ytick_3">
         <g id="line2d_6">
          <g>
           <use xlink:href="#m368d98febe" x="63.290625" y="249.221962" style="stroke: #000000; stroke-width: 0.8"/>
          </g>
         </g>
         <g id="text_6">
          <!-- 4000 -->
          <g transform="translate(30.840625 253.021181) scale(0.1 -0.1)">
           <defs>
            <path id="DejaVuSans-34" d="M 2419 4116 
L 825 1625 
L 2419 1625 
L 2419 4116 
z
M 2253 4666 
L 3047 4666 
L 3047 1625 
L 3713 1625 
L 3713 1100 
L 3047 1100 
L 3047 0 
L 2419 0 
L 2419 1100 
L 313 1100 
L 313 1709 
L 2253 4666 
z
" transform="scale(0.015625)"/>
           </defs>
           <use xlink:href="#DejaVuSans-34"/>
           <use xlink:href="#DejaVuSans-30" x="63.623047"/>
           <use xlink:href="#DejaVuSans-30" x="127.246094"/>
           <use xlink:href="#DejaVuSans-30" x="190.869141"/>
          </g>
         </g>
        </g>
        <g id="ytick_4">
         <g id="line2d_7">
          <g>
           <use xlink:href="#m368d98febe" x="63.290625" y="213.022006" style="stroke: #000000; stroke-width: 0.8"/>
          </g>
         </g>
         <g id="text_7">
          <!-- 6000 -->
          <g transform="translate(30.840625 216.821225) scale(0.1 -0.1)">
           <defs>
            <path id="DejaVuSans-36" d="M 2113 2584 
Q 1688 2584 1439 2293 
Q 1191 2003 1191 1497 
Q 1191 994 1439 701 
Q 1688 409 2113 409 
Q 2538 409 2786 701 
Q 3034 994 3034 1497 
Q 3034 2003 2786 2293 
Q 2538 2584 2113 2584 
z
M 3366 4563 
L 3366 3988 
Q 3128 4100 2886 4159 
Q 2644 4219 2406 4219 
Q 1781 4219 1451 3797 
Q 1122 3375 1075 2522 
Q 1259 2794 1537 2939 
Q 1816 3084 2150 3084 
Q 2853 3084 3261 2657 
Q 3669 2231 3669 1497 
Q 3669 778 3244 343 
Q 2819 -91 2113 -91 
Q 1303 -91 875 529 
Q 447 1150 447 2328 
Q 447 3434 972 4092 
Q 1497 4750 2381 4750 
Q 2619 4750 2861 4703 
Q 3103 4656 3366 4563 
z
" transform="scale(0.015625)"/>
           </defs>
           <use xlink:href="#DejaVuSans-36"/>
           <use xlink:href="#DejaVuSans-30" x="63.623047"/>
           <use xlink:href="#DejaVuSans-30" x="127.246094"/>
           <use xlink:href="#DejaVuSans-30" x="190.869141"/>
          </g>
         </g>
        </g>
        <g id="ytick_5">
         <g id="line2d_8">
          <g>
           <use xlink:href="#m368d98febe" x="63.290625" y="176.82205" style="stroke: #000000; stroke-width: 0.8"/>
          </g>
         </g>
         <g id="text_8">
          <!-- 8000 -->
          <g transform="translate(30.840625 180.621268) scale(0.1 -0.1)">
           <defs>
            <path id="DejaVuSans-38" d="M 2034 2216 
Q 1584 2216 1326 1975 
Q 1069 1734 1069 1313 
Q 1069 891 1326 650 
Q 1584 409 2034 409 
Q 2484 409 2743 651 
Q 3003 894 3003 1313 
Q 3003 1734 2745 1975 
Q 2488 2216 2034 2216 
z
M 1403 2484 
Q 997 2584 770 2862 
Q 544 3141 544 3541 
Q 544 4100 942 4425 
Q 1341 4750 2034 4750 
Q 2731 4750 3128 4425 
Q 3525 4100 3525 3541 
Q 3525 3141 3298 2862 
Q 3072 2584 2669 2484 
Q 3125 2378 3379 2068 
Q 3634 1759 3634 1313 
Q 3634 634 3220 271 
Q 2806 -91 2034 -91 
Q 1263 -91 848 271 
Q 434 634 434 1313 
Q 434 1759 690 2068 
Q 947 2378 1403 2484 
z
M 1172 3481 
Q 1172 3119 1398 2916 
Q 1625 2713 2034 2713 
Q 2441 2713 2670 2916 
Q 2900 3119 2900 3481 
Q 2900 3844 2670 4047 
Q 2441 4250 2034 4250 
Q 1625 4250 1398 4047 
Q 1172 3844 1172 3481 
z
" transform="scale(0.015625)"/>
           </defs>
           <use xlink:href="#DejaVuSans-38"/>
           <use xlink:href="#DejaVuSans-30" x="63.623047"/>
           <use xlink:href="#DejaVuSans-30" x="127.246094"/>
           <use xlink:href="#DejaVuSans-30" x="190.869141"/>
          </g>
         </g>
        </g>
        <g id="ytick_6">
         <g id="line2d_9">
          <g>
           <use xlink:href="#m368d98febe" x="63.290625" y="140.622093" style="stroke: #000000; stroke-width: 0.8"/>
          </g>
         </g>
         <g id="text_9">
          <!-- 10000 -->
          <g transform="translate(24.478125 144.421312) scale(0.1 -0.1)">
           <defs>
            <path id="DejaVuSans-31" d="M 794 531 
L 1825 531 
L 1825 4091 
L 703 3866 
L 703 4441 
L 1819 4666 
L 2450 4666 
L 2450 531 
L 3481 531 
L 3481 0 
L 794 0 
L 794 531 
z
" transform="scale(0.015625)"/>
           </defs>
           <use xlink:href="#DejaVuSans-31"/>
           <use xlink:href="#DejaVuSans-30" x="63.623047"/>
           <use xlink:href="#DejaVuSans-30" x="127.246094"/>
           <use xlink:href="#DejaVuSans-30" x="190.869141"/>
           <use xlink:href="#DejaVuSans-30" x="254.492188"/>
          </g>
         </g>
        </g>
        <g id="ytick_7">
         <g id="line2d_10">
          <g>
           <use xlink:href="#m368d98febe" x="63.290625" y="104.422137" style="stroke: #000000; stroke-width: 0.8"/>
          </g>
         </g>
         <g id="text_10">
          <!-- 12000 -->
          <g transform="translate(24.478125 108.221356) scale(0.1 -0.1)">
           <use xlink:href="#DejaVuSans-31"/>
           <use xlink:href="#DejaVuSans-32" x="63.623047"/>
           <use xlink:href="#DejaVuSans-30" x="127.246094"/>
           <use xlink:href="#DejaVuSans-30" x="190.869141"/>
           <use xlink:href="#DejaVuSans-30" x="254.492188"/>
          </g>
         </g>
        </g>
        <g id="ytick_8">
         <g id="line2d_11">
          <g>
           <use xlink:href="#m368d98febe" x="63.290625" y="68.222181" style="stroke: #000000; stroke-width: 0.8"/>
          </g>
         </g>
         <g id="text_11">
          <!-- 14000 -->
          <g transform="translate(24.478125 72.021399) scale(0.1 -0.1)">
           <use xlink:href="#DejaVuSans-31"/>
           <use xlink:href="#DejaVuSans-34" x="63.623047"/>
           <use xlink:href="#DejaVuSans-30" x="127.246094"/>
           <use xlink:href="#DejaVuSans-30" x="190.869141"/>
           <use xlink:href="#DejaVuSans-30" x="254.492188"/>
          </g>
         </g>
        </g>
        <g id="ytick_9">
         <g id="line2d_12">
          <g>
           <use xlink:href="#m368d98febe" x="63.290625" y="32.022224" style="stroke: #000000; stroke-width: 0.8"/>
          </g>
         </g>
         <g id="text_12">
          <!-- 16000 -->
          <g transform="translate(24.478125 35.821443) scale(0.1 -0.1)">
           <use xlink:href="#DejaVuSans-31"/>
           <use xlink:href="#DejaVuSans-36" x="63.623047"/>
           <use xlink:href="#DejaVuSans-30" x="127.246094"/>
           <use xlink:href="#DejaVuSans-30" x="190.869141"/>
           <use xlink:href="#DejaVuSans-30" x="254.492188"/>
          </g>
         </g>
        </g>
        <g id="text_13">
         <!-- time ago (generations) -->
         <g transform="translate(18.398438 223.682031) rotate(-90) scale(0.1 -0.1)">
          <defs>
           <path id="DejaVuSans-74" d="M 1172 4494 
L 1172 3500 
L 2356 3500 
L 2356 3053 
L 1172 3053 
L 1172 1153 
Q 1172 725 1289 603 
Q 1406 481 1766 481 
L 2356 481 
L 2356 0 
L 1766 0 
Q 1100 0 847 248 
Q 594 497 594 1153 
L 594 3053 
L 172 3053 
L 172 3500 
L 594 3500 
L 594 4494 
L 1172 4494 
z
" transform="scale(0.015625)"/>
           <path id="DejaVuSans-69" d="M 603 3500 
L 1178 3500 
L 1178 0 
L 603 0 
L 603 3500 
z
M 603 4863 
L 1178 4863 
L 1178 4134 
L 603 4134 
L 603 4863 
z
" transform="scale(0.015625)"/>
           <path id="DejaVuSans-6d" d="M 3328 2828 
Q 3544 3216 3844 3400 
Q 4144 3584 4550 3584 
Q 5097 3584 5394 3201 
Q 5691 2819 5691 2113 
L 5691 0 
L 5113 0 
L 5113 2094 
Q 5113 2597 4934 2840 
Q 4756 3084 4391 3084 
Q 3944 3084 3684 2787 
Q 3425 2491 3425 1978 
L 3425 0 
L 2847 0 
L 2847 2094 
Q 2847 2600 2669 2842 
Q 2491 3084 2119 3084 
Q 1678 3084 1418 2786 
Q 1159 2488 1159 1978 
L 1159 0 
L 581 0 
L 581 3500 
L 1159 3500 
L 1159 2956 
Q 1356 3278 1631 3431 
Q 1906 3584 2284 3584 
Q 2666 3584 2933 3390 
Q 3200 3197 3328 2828 
z
" transform="scale(0.015625)"/>
           <path id="DejaVuSans-65" d="M 3597 1894 
L 3597 1613 
L 953 1613 
Q 991 1019 1311 708 
Q 1631 397 2203 397 
Q 2534 397 2845 478 
Q 3156 559 3463 722 
L 3463 178 
Q 3153 47 2828 -22 
Q 2503 -91 2169 -91 
Q 1331 -91 842 396 
Q 353 884 353 1716 
Q 353 2575 817 3079 
Q 1281 3584 2069 3584 
Q 2775 3584 3186 3129 
Q 3597 2675 3597 1894 
z
M 3022 2063 
Q 3016 2534 2758 2815 
Q 2500 3097 2075 3097 
Q 1594 3097 1305 2825 
Q 1016 2553 972 2059 
L 3022 2063 
z
" transform="scale(0.015625)"/>
           <path id="DejaVuSans-20" transform="scale(0.015625)"/>
           <path id="DejaVuSans-61" d="M 2194 1759 
Q 1497 1759 1228 1600 
Q 959 1441 959 1056 
Q 959 750 1161 570 
Q 1363 391 1709 391 
Q 2188 391 2477 730 
Q 2766 1069 2766 1631 
L 2766 1759 
L 2194 1759 
z
M 3341 1997 
L 3341 0 
L 2766 0 
L 2766 531 
Q 2569 213 2275 61 
Q 1981 -91 1556 -91 
Q 1019 -91 701 211 
Q 384 513 384 1019 
Q 384 1609 779 1909 
Q 1175 2209 1959 2209 
L 2766 2209 
L 2766 2266 
Q 2766 2663 2505 2880 
Q 2244 3097 1772 3097 
Q 1472 3097 1187 3025 
Q 903 2953 641 2809 
L 641 3341 
Q 956 3463 1253 3523 
Q 1550 3584 1831 3584 
Q 2591 3584 2966 3190 
Q 3341 2797 3341 1997 
z
" transform="scale(0.015625)"/>
           <path id="DejaVuSans-67" d="M 2906 1791 
Q 2906 2416 2648 2759 
Q 2391 3103 1925 3103 
Q 1463 3103 1205 2759 
Q 947 2416 947 1791 
Q 947 1169 1205 825 
Q 1463 481 1925 481 
Q 2391 481 2648 825 
Q 2906 1169 2906 1791 
z
M 3481 434 
Q 3481 -459 3084 -895 
Q 2688 -1331 1869 -1331 
Q 1566 -1331 1297 -1286 
Q 1028 -1241 775 -1147 
L 775 -588 
Q 1028 -725 1275 -790 
Q 1522 -856 1778 -856 
Q 2344 -856 2625 -561 
Q 2906 -266 2906 331 
L 2906 616 
Q 2728 306 2450 153 
Q 2172 0 1784 0 
Q 1141 0 747 490 
Q 353 981 353 1791 
Q 353 2603 747 3093 
Q 1141 3584 1784 3584 
Q 2172 3584 2450 3431 
Q 2728 3278 2906 2969 
L 2906 3500 
L 3481 3500 
L 3481 434 
z
" transform="scale(0.015625)"/>
           <path id="DejaVuSans-6f" d="M 1959 3097 
Q 1497 3097 1228 2736 
Q 959 2375 959 1747 
Q 959 1119 1226 758 
Q 1494 397 1959 397 
Q 2419 397 2687 759 
Q 2956 1122 2956 1747 
Q 2956 2369 2687 2733 
Q 2419 3097 1959 3097 
z
M 1959 3584 
Q 2709 3584 3137 3096 
Q 3566 2609 3566 1747 
Q 3566 888 3137 398 
Q 2709 -91 1959 -91 
Q 1206 -91 779 398 
Q 353 888 353 1747 
Q 353 2609 779 3096 
Q 1206 3584 1959 3584 
z
" transform="scale(0.015625)"/>
           <path id="DejaVuSans-28" d="M 1984 4856 
Q 1566 4138 1362 3434 
Q 1159 2731 1159 2009 
Q 1159 1288 1364 580 
Q 1569 -128 1984 -844 
L 1484 -844 
Q 1016 -109 783 600 
Q 550 1309 550 2009 
Q 550 2706 781 3412 
Q 1013 4119 1484 4856 
L 1984 4856 
z
" transform="scale(0.015625)"/>
           <path id="DejaVuSans-6e" d="M 3513 2113 
L 3513 0 
L 2938 0 
L 2938 2094 
Q 2938 2591 2744 2837 
Q 2550 3084 2163 3084 
Q 1697 3084 1428 2787 
Q 1159 2491 1159 1978 
L 1159 0 
L 581 0 
L 581 3500 
L 1159 3500 
L 1159 2956 
Q 1366 3272 1645 3428 
Q 1925 3584 2291 3584 
Q 2894 3584 3203 3211 
Q 3513 2838 3513 2113 
z
" transform="scale(0.015625)"/>
           <path id="DejaVuSans-72" d="M 2631 2963 
Q 2534 3019 2420 3045 
Q 2306 3072 2169 3072 
Q 1681 3072 1420 2755 
Q 1159 2438 1159 1844 
L 1159 0 
L 581 0 
L 581 3500 
L 1159 3500 
L 1159 2956 
Q 1341 3275 1631 3429 
Q 1922 3584 2338 3584 
Q 2397 3584 2469 3576 
Q 2541 3569 2628 3553 
L 2631 2963 
z
" transform="scale(0.015625)"/>
           <path id="DejaVuSans-73" d="M 2834 3397 
L 2834 2853 
Q 2591 2978 2328 3040 
Q 2066 3103 1784 3103 
Q 1356 3103 1142 2972 
Q 928 2841 928 2578 
Q 928 2378 1081 2264 
Q 1234 2150 1697 2047 
L 1894 2003 
Q 2506 1872 2764 1633 
Q 3022 1394 3022 966 
Q 3022 478 2636 193 
Q 2250 -91 1575 -91 
Q 1294 -91 989 -36 
Q 684 19 347 128 
L 347 722 
Q 666 556 975 473 
Q 1284 391 1588 391 
Q 1994 391 2212 530 
Q 2431 669 2431 922 
Q 2431 1156 2273 1281 
Q 2116 1406 1581 1522 
L 1381 1569 
Q 847 1681 609 1914 
Q 372 2147 372 2553 
Q 372 3047 722 3315 
Q 1072 3584 1716 3584 
Q 2034 3584 2315 3537 
Q 2597 3491 2834 3397 
z
" transform="scale(0.015625)"/>
           <path id="DejaVuSans-29" d="M 513 4856 
L 1013 4856 
Q 1481 4119 1714 3412 
Q 1947 2706 1947 2009 
Q 1947 1309 1714 600 
Q 1481 -109 1013 -844 
L 513 -844 
Q 928 -128 1133 580 
Q 1338 1288 1338 2009 
Q 1338 2731 1133 3434 
Q 928 4138 513 4856 
z
" transform="scale(0.015625)"/>
          </defs>
          <use xlink:href="#DejaVuSans-74"/>
          <use xlink:href="#DejaVuSans-69" x="39.208984"/>
          <use xlink:href="#DejaVuSans-6d" x="66.992188"/>
          <use xlink:href="#DejaVuSans-65" x="164.404297"/>
          <use xlink:href="#DejaVuSans-20" x="225.927734"/>
          <use xlink:href="#DejaVuSans-61" x="257.714844"/>
          <use xlink:href="#DejaVuSans-67" x="318.994141"/>
          <use xlink:href="#DejaVuSans-6f" x="382.470703"/>
          <use xlink:href="#DejaVuSans-20" x="443.652344"/>
          <use xlink:href="#DejaVuSans-28" x="475.439453"/>
          <use xlink:href="#DejaVuSans-67" x="514.453125"/>
          <use xlink:href="#DejaVuSans-65" x="577.929688"/>
          <use xlink:href="#DejaVuSans-6e" x="639.453125"/>
          <use xlink:href="#DejaVuSans-65" x="702.832031"/>
          <use xlink:href="#DejaVuSans-72" x="764.355469"/>
          <use xlink:href="#DejaVuSans-61" x="805.46875"/>
          <use xlink:href="#DejaVuSans-74" x="866.748047"/>
          <use xlink:href="#DejaVuSans-69" x="905.957031"/>
          <use xlink:href="#DejaVuSans-6f" x="933.740234"/>
          <use xlink:href="#DejaVuSans-6e" x="994.921875"/>
          <use xlink:href="#DejaVuSans-73" x="1058.300781"/>
          <use xlink:href="#DejaVuSans-29" x="1110.400391"/>
         </g>
        </g>
       </g>
       <g id="patch_7">
        <path d="M 296.209348 278.833527 
L 295.209348 278.80209 
L 294.209348 278.76515 
L 293.209348 278.667403 
L 292.209348 278.634882 
L 291.209348 278.561257 
L 290.209348 278.522691 
L 289.209348 278.487278 
L 288.209348 278.429638 
L 287.209348 278.359252 
L 286.209348 278.307288 
L 285.209348 278.248198 
L 284.209348 278.159877 
L 283.209348 278.113733 
L 282.209348 278.071322 
L 281.209348 278.040829 
L 280.209348 278.014784 
L 279.209348 277.993584 
L 278.209348 277.939283 
L 277.209348 277.911346 
L 276.209348 277.881622 
L 275.209348 277.856227 
L 274.209348 277.845026 
L 273.209348 277.834902 
L 272.209348 277.835107 
L 271.209348 277.844617 
L 270.209348 277.85627 
L 269.209348 277.887299 
L 268.209348 277.898467 
L 267.209348 277.928585 
L 266.209348 277.988362 
L 265.209348 278.025553 
L 264.209348 278.064649 
L 263.209348 278.107089 
L 262.209348 278.139854 
L 261.209348 278.207281 
L 260.209348 278.246407 
L 259.209348 278.289081 
L 258.209348 278.359662 
L 257.209348 278.396053 
L 256.209348 278.454456 
L 255.209348 278.565408 
L 254.209348 278.636067 
L 253.209348 278.749007 
L 252.209348 278.794779 
L 251.209348 278.856063 
L 250.209348 278.904562 
L 249.209348 278.985385 
L 248.209348 279.103904 
L 247.209348 279.174114 
L 246.209348 279.257377 
L 245.209348 279.290518 
L 244.209348 279.341756 
L 243.209348 279.410154 
L 242.209348 279.47637 
L 241.209348 279.553287 
L 240.209348 279.580602 
L 239.209348 279.60708 
L 238.209348 279.62973 
L 237.209348 279.649262 
L 236.209348 279.675656 
L 235.209348 279.725426 
L 234.209348 279.760499 
L 233.209348 279.796365 
L 232.209348 279.811732 
L 231.209348 279.827502 
L 229.819184 279.830914 
" clip-path="url(#p3d70bd55f6)" style="fill: none; stroke: #ffffff; stroke-width: 3; stroke-linecap: round"/>
        <path d="M 296.209348 278.833527 
L 295.209348 278.80209 
L 294.209348 278.76515 
L 293.209348 278.667403 
L 292.209348 278.634882 
L 291.209348 278.561257 
L 290.209348 278.522691 
L 289.209348 278.487278 
L 288.209348 278.429638 
L 287.209348 278.359252 
L 286.209348 278.307288 
L 285.209348 278.248198 
L 284.209348 278.159877 
L 283.209348 278.113733 
L 282.209348 278.071322 
L 281.209348 278.040829 
L 280.209348 278.014784 
L 279.209348 277.993584 
L 278.209348 277.939283 
L 277.209348 277.911346 
L 276.209348 277.881622 
L 275.209348 277.856227 
L 274.209348 277.845026 
L 273.209348 277.834902 
L 272.209348 277.835107 
L 271.209348 277.844617 
L 270.209348 277.85627 
L 269.209348 277.887299 
L 268.209348 277.898467 
L 267.209348 277.928585 
L 266.209348 277.988362 
L 265.209348 278.025553 
L 264.209348 278.064649 
L 263.209348 278.107089 
L 262.209348 278.139854 
L 261.209348 278.207281 
L 260.209348 278.246407 
L 259.209348 278.289081 
L 258.209348 278.359662 
L 257.209348 278.396053 
L 256.209348 278.454456 
L 255.209348 278.565408 
L 254.209348 278.636067 
L 253.209348 278.749007 
L 252.209348 278.794779 
L 251.209348 278.856063 
L 250.209348 278.904562 
L 249.209348 278.985385 
L 248.209348 279.103904 
L 247.209348 279.174114 
L 246.209348 279.257377 
L 245.209348 279.290518 
L 244.209348 279.341756 
L 243.209348 279.410154 
L 242.209348 279.47637 
L 241.209348 279.553287 
L 240.209348 279.580602 
L 239.209348 279.60708 
L 238.209348 279.62973 
L 237.209348 279.649262 
L 236.209348 279.675656 
L 235.209348 279.725426 
L 234.209348 279.760499 
L 233.209348 279.796365 
L 232.209348 279.811732 
L 231.209348 279.827502 
L 229.819184 279.830914 
" clip-path="url(#p3d70bd55f6)" style="fill: none; stroke: #1f77b4; stroke-linecap: round"/>
        <path d="M 233.819184 280.833527 
L 232.938816 280.358195 
L 232.060909 279.877941 
L 231.210195 279.343301 
L 229.908021 278.655853 
L 230.835374 278.629838 
L 231.747049 278.217119 
L 232.657313 277.80158 
L 233.999809 277.194775 
L 233.34491 277.833527 
L 233.292946 278.833527 
L 233.233856 280.833527 
z
" clip-path="url(#p3d70bd55f6)" style="fill: #ffffff; stroke: #ffffff; stroke-width: 3; stroke-linecap: round"/>
        <path d="M 233.819184 280.833527 
L 232.938816 280.358195 
L 232.060909 279.877941 
L 231.210195 279.343301 
L 229.908021 278.655853 
L 230.835374 278.629838 
L 231.747049 278.217119 
L 232.657313 277.80158 
L 233.999809 277.194775 
L 233.34491 277.833527 
L 233.292946 278.833527 
L 233.233856 280.833527 
z
" clip-path="url(#p3d70bd55f6)" style="fill: #ffffff; stroke: #1f77b4; stroke-linecap: round"/>
        <g id="patch_8">
         <path d="M 370.990425 72.964375 
L 371.990425 72.995811 
L 372.990425 73.032752 
L 373.990425 73.130498 
L 374.990425 73.16302 
L 375.990425 73.236645 
L 376.990425 73.27521 
L 377.990425 73.310623 
L 378.990425 73.368263 
L 379.990425 73.438649 
L 380.990425 73.490614 
L 381.990425 73.549703 
L 382.990425 73.638024 
L 383.990425 73.684169 
L 384.990425 73.72658 
L 385.990425 73.757072 
L 386.990425 73.783117 
L 387.990425 73.804317 
L 388.990425 73.858618 
L 389.990425 73.886556 
L 390.990425 73.91628 
L 391.990425 73.941675 
L 392.990425 73.952875 
L 393.990425 73.962999 
L 394.990425 73.962795 
L 395.990425 73.953285 
L 396.990425 73.941631 
L 397.990425 73.910602 
L 398.990425 73.899434 
L 399.990425 73.869317 
L 400.990425 73.80954 
L 401.990425 73.772348 
L 402.990425 73.733252 
L 403.990425 73.690812 
L 404.990425 73.658047 
L 405.990425 73.590621 
L 406.990425 73.551495 
L 407.990425 73.50882 
L 408.990425 73.43824 
L 409.990425 73.401849 
L 410.990425 73.343446 
L 411.990425 73.232493 
L 412.990425 73.161835 
L 413.990425 73.048895 
L 414.990425 73.003122 
L 415.990425 72.941839 
L 416.990425 72.89334 
L 417.990425 72.812517 
L 418.990425 72.693998 
L 419.990425 72.623787 
L 420.990425 72.540525 
L 421.990425 72.507383 
L 422.990425 72.456146 
L 423.990425 72.387747 
L 424.990425 72.321532 
L 425.990425 72.244615 
L 426.990425 72.217299 
L 427.990425 72.190822 
L 428.990425 72.168171 
L 429.990425 72.14864 
L 430.990425 72.122246 
L 431.990425 72.072475 
L 432.990425 72.037402 
L 433.990425 72.001536 
L 434.990425 71.986169 
L 435.990425 71.9704 
L 436.990425 71.966987 
L 437.990425 71.96457 
L 438.990425 71.965056 
L 439.990425 71.966985 
L 440.990425 71.980242 
L 441.990425 71.988633 
L 442.990425 72.010169 
L 443.990425 72.033202 
L 444.990425 72.050435 
L 445.990425 72.068898 
L 446.990425 72.08935 
L 447.990425 72.10595 
L 448.990425 72.168729 
L 449.990425 72.243994 
L 450.990425 72.276633 
L 451.990425 72.344197 
L 452.990425 72.398244 
L 453.990425 72.431948 
L 454.990425 72.522074 
L 455.990425 72.550609 
L 456.990425 72.582095 
L 457.990425 72.613106 
L 458.990425 72.667914 
L 459.990425 72.732501 
L 460.990425 72.770697 
L 461.990425 72.866631 
L 462.990425 72.915889 
L 463.990425 72.959958 
L 464.990425 73.000082 
L 465.990425 73.108449 
L 466.990425 73.150077 
L 467.990425 73.212219 
L 468.990425 73.282181 
L 469.990425 73.386685 
L 470.990425 73.423673 
L 471.990425 73.46955 
L 472.990425 73.538045 
L 473.990425 73.586791 
L 474.990425 73.664388 
L 475.990425 73.694929 
L 476.990425 73.764443 
L 477.990425 73.788416 
L 478.990425 73.817038 
L 479.990425 73.858831 
L 480.990425 73.880407 
L 481.990425 73.894355 
L 482.990425 73.921077 
L 483.990425 73.930387 
L 484.990425 73.942834 
L 485.990425 73.953889 
L 486.990425 73.959553 
L 487.990425 73.964317 
L 488.990425 73.958769 
L 489.990425 73.945481 
L 490.990425 73.937964 
L 491.990425 73.913179 
L 492.990425 73.88961 
L 493.990425 73.85343 
L 494.990425 73.827468 
L 495.990425 73.805146 
L 496.990425 73.736386 
L 497.990425 73.661851 
L 498.990425 73.567872 
L 499.990425 73.51682 
L 500.990425 73.462886 
L 501.990425 73.427635 
L 502.990425 73.321547 
L 503.990425 73.269283 
L 504.990425 73.232376 
L 505.990425 73.201345 
L 506.990425 73.14019 
L 507.990425 73.07277 
L 508.990425 73.023864 
L 509.990425 72.958672 
L 510.990425 72.920484 
L 511.990425 72.878488 
L 512.990425 72.836471 
L 513.990425 72.776955 
L 514.990425 72.663795 
L 515.990425 72.611544 
L 516.990425 72.572126 
L 517.990425 72.525025 
L 518.990425 72.468245 
L 519.990425 72.435582 
L 520.990425 72.399404 
L 521.990425 72.367314 
L 522.990425 72.333034 
L 523.990425 72.274656 
L 524.990425 72.229471 
L 525.990425 72.199847 
L 526.990425 72.149461 
L 527.990425 72.124264 
L 528.990425 72.103213 
L 529.990425 72.068245 
L 530.990425 72.043955 
L 531.990425 72.029888 
L 532.990425 72.010946 
L 533.990425 71.995285 
L 534.990425 71.982733 
L 535.990425 71.976897 
L 536.990425 71.970015 
L 537.990425 71.964841 
L 538.990425 71.966624 
L 539.990425 71.969349 
L 540.990425 71.980503 
L 541.990425 72.008738 
L 542.990425 72.052526 
L 543.990425 72.073215 
L 544.990425 72.114188 
L 545.990425 72.154263 
L 546.990425 72.173373 
L 547.990425 72.195882 
L 548.990425 72.262533 
L 549.990425 72.312243 
L 550.990425 72.385949 
L 551.990425 72.417263 
L 552.990425 72.493885 
L 553.990425 72.532183 
L 555.240422 72.6063 
" clip-path="url(#p3d70bd55f6)" style="fill: none; stroke: #ffffff; stroke-width: 3; stroke-linecap: round"/>
         <path d="M 370.990425 72.964375 
L 371.990425 72.995811 
L 372.990425 73.032752 
L 373.990425 73.130498 
L 374.990425 73.16302 
L 375.990425 73.236645 
L 376.990425 73.27521 
L 377.990425 73.310623 
L 378.990425 73.368263 
L 379.990425 73.438649 
L 380.990425 73.490614 
L 381.990425 73.549703 
L 382.990425 73.638024 
L 383.990425 73.684169 
L 384.990425 73.72658 
L 385.990425 73.757072 
L 386.990425 73.783117 
L 387.990425 73.804317 
L 388.990425 73.858618 
L 389.990425 73.886556 
L 390.990425 73.91628 
L 391.990425 73.941675 
L 392.990425 73.952875 
L 393.990425 73.962999 
L 394.990425 73.962795 
L 395.990425 73.953285 
L 396.990425 73.941631 
L 397.990425 73.910602 
L 398.990425 73.899434 
L 399.990425 73.869317 
L 400.990425 73.80954 
L 401.990425 73.772348 
L 402.990425 73.733252 
L 403.990425 73.690812 
L 404.990425 73.658047 
L 405.990425 73.590621 
L 406.990425 73.551495 
L 407.990425 73.50882 
L 408.990425 73.43824 
L 409.990425 73.401849 
L 410.990425 73.343446 
L 411.990425 73.232493 
L 412.990425 73.161835 
L 413.990425 73.048895 
L 414.990425 73.003122 
L 415.990425 72.941839 
L 416.990425 72.89334 
L 417.990425 72.812517 
L 418.990425 72.693998 
L 419.990425 72.623787 
L 420.990425 72.540525 
L 421.990425 72.507383 
L 422.990425 72.456146 
L 423.990425 72.387747 
L 424.990425 72.321532 
L 425.990425 72.244615 
L 426.990425 72.217299 
L 427.990425 72.190822 
L 428.990425 72.168171 
L 429.990425 72.14864 
L 430.990425 72.122246 
L 431.990425 72.072475 
L 432.990425 72.037402 
L 433.990425 72.001536 
L 434.990425 71.986169 
L 435.990425 71.9704 
L 436.990425 71.966987 
L 437.990425 71.96457 
L 438.990425 71.965056 
L 439.990425 71.966985 
L 440.990425 71.980242 
L 441.990425 71.988633 
L 442.990425 72.010169 
L 443.990425 72.033202 
L 444.990425 72.050435 
L 445.990425 72.068898 
L 446.990425 72.08935 
L 447.990425 72.10595 
L 448.990425 72.168729 
L 449.990425 72.243994 
L 450.990425 72.276633 
L 451.990425 72.344197 
L 452.990425 72.398244 
L 453.990425 72.431948 
L 454.990425 72.522074 
L 455.990425 72.550609 
L 456.990425 72.582095 
L 457.990425 72.613106 
L 458.990425 72.667914 
L 459.990425 72.732501 
L 460.990425 72.770697 
L 461.990425 72.866631 
L 462.990425 72.915889 
L 463.990425 72.959958 
L 464.990425 73.000082 
L 465.990425 73.108449 
L 466.990425 73.150077 
L 467.990425 73.212219 
L 468.990425 73.282181 
L 469.990425 73.386685 
L 470.990425 73.423673 
L 471.990425 73.46955 
L 472.990425 73.538045 
L 473.990425 73.586791 
L 474.990425 73.664388 
L 475.990425 73.694929 
L 476.990425 73.764443 
L 477.990425 73.788416 
L 478.990425 73.817038 
L 479.990425 73.858831 
L 480.990425 73.880407 
L 481.990425 73.894355 
L 482.990425 73.921077 
L 483.990425 73.930387 
L 484.990425 73.942834 
L 485.990425 73.953889 
L 486.990425 73.959553 
L 487.990425 73.964317 
L 488.990425 73.958769 
L 489.990425 73.945481 
L 490.990425 73.937964 
L 491.990425 73.913179 
L 492.990425 73.88961 
L 493.990425 73.85343 
L 494.990425 73.827468 
L 495.990425 73.805146 
L 496.990425 73.736386 
L 497.990425 73.661851 
L 498.990425 73.567872 
L 499.990425 73.51682 
L 500.990425 73.462886 
L 501.990425 73.427635 
L 502.990425 73.321547 
L 503.990425 73.269283 
L 504.990425 73.232376 
L 505.990425 73.201345 
L 506.990425 73.14019 
L 507.990425 73.07277 
L 508.990425 73.023864 
L 509.990425 72.958672 
L 510.990425 72.920484 
L 511.990425 72.878488 
L 512.990425 72.836471 
L 513.990425 72.776955 
L 514.990425 72.663795 
L 515.990425 72.611544 
L 516.990425 72.572126 
L 517.990425 72.525025 
L 518.990425 72.468245 
L 519.990425 72.435582 
L 520.990425 72.399404 
L 521.990425 72.367314 
L 522.990425 72.333034 
L 523.990425 72.274656 
L 524.990425 72.229471 
L 525.990425 72.199847 
L 526.990425 72.149461 
L 527.990425 72.124264 
L 528.990425 72.103213 
L 529.990425 72.068245 
L 530.990425 72.043955 
L 531.990425 72.029888 
L 532.990425 72.010946 
L 533.990425 71.995285 
L 534.990425 71.982733 
L 535.990425 71.976897 
L 536.990425 71.970015 
L 537.990425 71.964841 
L 538.990425 71.966624 
L 539.990425 71.969349 
L 540.990425 71.980503 
L 541.990425 72.008738 
L 542.990425 72.052526 
L 543.990425 72.073215 
L 544.990425 72.114188 
L 545.990425 72.154263 
L 546.990425 72.173373 
L 547.990425 72.195882 
L 548.990425 72.262533 
L 549.990425 72.312243 
L 550.990425 72.385949 
L 551.990425 72.417263 
L 552.990425 72.493885 
L 553.990425 72.532183 
L 555.240422 72.6063 
" clip-path="url(#p3d70bd55f6)" style="fill: none; stroke: #1f77b4; stroke-linecap: round"/>
         <path d="M 551.240422 70.964375 
L 552.12079 71.439706 
L 552.998697 71.91996 
L 553.849411 72.454601 
L 555.151585 73.142048 
L 554.224232 73.168063 
L 553.312558 73.580783 
L 552.402293 73.996322 
L 551.059797 74.603126 
L 551.714696 73.964375 
L 551.76666 72.964375 
L 551.82575 70.964375 
z
" clip-path="url(#p3d70bd55f6)" style="fill: #ffffff; stroke: #ffffff; stroke-width: 3; stroke-linecap: round"/>
         <path d="M 551.240422 70.964375 
L 552.12079 71.439706 
L 552.998697 71.91996 
L 553.849411 72.454601 
L 555.151585 73.142048 
L 554.224232 73.168063 
L 553.312558 73.580783 
L 552.402293 73.996322 
L 551.059797 74.603126 
L 551.714696 73.964375 
L 551.76666 72.964375 
L 551.82575 70.964375 
z
" clip-path="url(#p3d70bd55f6)" style="fill: #ffffff; stroke: #1f77b4; stroke-linecap: round"/>
         <g id="patch_9">
          <path d="M 370.987189 278.833527 
L 371.987189 278.864963 
L 372.987189 278.901903 
L 373.987189 278.99965 
L 374.987189 279.032172 
L 375.987189 279.105796 
L 376.987189 279.144362 
L 377.987189 279.179775 
L 378.987189 279.237415 
L 379.987189 279.307801 
L 380.987189 279.359765 
L 381.987189 279.418855 
L 382.987189 279.507176 
L 383.987189 279.55332 
L 384.987189 279.595731 
L 385.987189 279.626224 
L 386.987189 279.652269 
L 387.987189 279.673469 
L 388.987189 279.72777 
L 389.987189 279.755708 
L 390.987189 279.785432 
L 391.987189 279.810826 
L 392.987189 279.822027 
L 393.987189 279.832151 
L 394.987189 279.831946 
L 395.987189 279.822437 
L 396.987189 279.810783 
L 397.987189 279.779754 
L 398.987189 279.768586 
L 399.987189 279.738468 
L 400.987189 279.678691 
L 401.987189 279.6415 
L 402.987189 279.602404 
L 403.987189 279.559964 
L 404.987189 279.527199 
L 405.987189 279.459772 
L 406.987189 279.420647 
L 407.987189 279.377972 
L 408.987189 279.307391 
L 409.987189 279.271001 
L 410.987189 279.212597 
L 411.987189 279.101645 
L 412.987189 279.030987 
L 413.987189 278.918047 
L 414.987189 278.872274 
L 415.987189 278.810991 
L 416.987189 278.762491 
L 417.987189 278.681669 
L 418.987189 278.56315 
L 419.987189 278.492939 
L 420.987189 278.409677 
L 421.987189 278.376535 
L 422.987189 278.325297 
L 423.987189 278.256899 
L 424.987189 278.190684 
L 425.987189 278.113767 
L 426.987189 278.086451 
L 427.987189 278.059974 
L 428.987189 278.037323 
L 429.987189 278.017792 
L 430.987189 277.991398 
L 431.987189 277.941627 
L 432.987189 277.906554 
L 433.987189 277.870688 
L 434.987189 277.855321 
L 435.987189 277.839552 
L 436.987189 277.836139 
L 437.987189 277.833721 
L 438.987189 277.834207 
L 440.146308 277.836137 
" clip-path="url(#p3d70bd55f6)" style="fill: none; stroke: #ffffff; stroke-width: 3; stroke-linecap: round"/>
          <path d="M 370.987189 278.833527 
L 371.987189 278.864963 
L 372.987189 278.901903 
L 373.987189 278.99965 
L 374.987189 279.032172 
L 375.987189 279.105796 
L 376.987189 279.144362 
L 377.987189 279.179775 
L 378.987189 279.237415 
L 379.987189 279.307801 
L 380.987189 279.359765 
L 381.987189 279.418855 
L 382.987189 279.507176 
L 383.987189 279.55332 
L 384.987189 279.595731 
L 385.987189 279.626224 
L 386.987189 279.652269 
L 387.987189 279.673469 
L 388.987189 279.72777 
L 389.987189 279.755708 
L 390.987189 279.785432 
L 391.987189 279.810826 
L 392.987189 279.822027 
L 393.987189 279.832151 
L 394.987189 279.831946 
L 395.987189 279.822437 
L 396.987189 279.810783 
L 397.987189 279.779754 
L 398.987189 279.768586 
L 399.987189 279.738468 
L 400.987189 279.678691 
L 401.987189 279.6415 
L 402.987189 279.602404 
L 403.987189 279.559964 
L 404.987189 279.527199 
L 405.987189 279.459772 
L 406.987189 279.420647 
L 407.987189 279.377972 
L 408.987189 279.307391 
L 409.987189 279.271001 
L 410.987189 279.212597 
L 411.987189 279.101645 
L 412.987189 279.030987 
L 413.987189 278.918047 
L 414.987189 278.872274 
L 415.987189 278.810991 
L 416.987189 278.762491 
L 417.987189 278.681669 
L 418.987189 278.56315 
L 419.987189 278.492939 
L 420.987189 278.409677 
L 421.987189 278.376535 
L 422.987189 278.325297 
L 423.987189 278.256899 
L 424.987189 278.190684 
L 425.987189 278.113767 
L 426.987189 278.086451 
L 427.987189 278.059974 
L 428.987189 278.037323 
L 429.987189 278.017792 
L 430.987189 277.991398 
L 431.987189 277.941627 
L 432.987189 277.906554 
L 433.987189 277.870688 
L 434.987189 277.855321 
L 435.987189 277.839552 
L 436.987189 277.836139 
L 437.987189 277.833721 
L 438.987189 277.834207 
L 440.146308 277.836137 
" clip-path="url(#p3d70bd55f6)" style="fill: none; stroke: #1f77b4; stroke-linecap: round"/>
          <path d="M 436.146308 276.833527 
L 437.026677 277.308858 
L 437.904584 277.789112 
L 438.755297 278.323753 
L 440.057471 279.0112 
L 439.130118 279.037215 
L 438.218444 279.449934 
L 437.30818 279.865473 
L 435.965684 280.472278 
L 436.620583 279.833527 
L 436.672547 278.833527 
L 436.731637 276.833527 
z
" clip-path="url(#p3d70bd55f6)" style="fill: #ffffff; stroke: #ffffff; stroke-width: 3; stroke-linecap: round"/>
          <path d="M 436.146308 276.833527 
L 437.026677 277.308858 
L 437.904584 277.789112 
L 438.755297 278.323753 
L 440.057471 279.0112 
L 439.130118 279.037215 
L 438.218444 279.449934 
L 437.30818 279.865473 
L 435.965684 280.472278 
L 436.620583 279.833527 
L 436.672547 278.833527 
L 436.731637 276.833527 
z
" clip-path="url(#p3d70bd55f6)" style="fill: #ffffff; stroke: #1f77b4; stroke-linecap: round"/>
          <path d="M 464.439434 297.711804 
" clip-path="url(#p3d70bd55f6)" style="fill: none; stroke-dasharray: 3.7,1.6; stroke-dashoffset: 0; stroke: #2ca02c"/>
          <path d="M 463.439434 297.711804 
L 465.439434 298.711804 
L 465.439434 296.711804 
z
" clip-path="url(#p3d70bd55f6)" style="fill: #2ca02c; stroke: #2ca02c; stroke-linejoin: miter"/>
          <g id="patch_10">
           <path d="M 63.290625 321.621875 
L 63.290625 10.8 
" style="fill: none; stroke: #000000; stroke-width: 0.8; stroke-linejoin: miter; stroke-linecap: square"/>
          </g>
          <g id="text_14">
           <g id="patch_11">
            <path d="M 322.947994 151.655826 
L 344.252681 151.655826 
Q 346.252681 151.655826 346.252681 149.655826 
L 346.252681 139.977701 
Q 346.252681 137.977701 344.252681 137.977701 
L 322.947994 137.977701 
Q 320.947994 137.977701 320.947994 139.977701 
L 320.947994 149.655826 
Q 320.947994 151.655826 322.947994 151.655826 
z
" style="fill: #ffffff; opacity: 0.6"/>
           </g>
           <!-- ANC -->
           <g transform="translate(322.947994 147.576138) scale(0.1 -0.1)">
            <defs>
             <path id="DejaVuSans-4e" d="M 628 4666 
L 1478 4666 
L 3547 763 
L 3547 4666 
L 4159 4666 
L 4159 0 
L 3309 0 
L 1241 3903 
L 1241 0 
L 628 0 
L 628 4666 
z
" transform="scale(0.015625)"/>
            </defs>
            <use xlink:href="#DejaVuSans-41"/>
            <use xlink:href="#DejaVuSans-4e" x="68.408203"/>
            <use xlink:href="#DejaVuSans-43" x="143.212891"/>
           </g>
          </g>
         </g>
        </g>
        <defs>
         <clipPath id="p3d70bd55f6">
          <rect x="63.290625" y="10.8" width="540.309375" height="310.821875"/>
         </clipPath>
        </defs>
       </g>
      </g>
     </g>
    </g>
   </g>
  </g>
 </g>
</svg>
