<?xml version="1.0" encoding="utf-8" standalone="no"?>
<!DOCTYPE svg PUBLIC "-//W3C//DTD SVG 1.1//EN"
  "http://www.w3.org/Graphics/SVG/1.1/DTD/svg11.dtd">
<svg xmlns:xlink="http://www.w3.org/1999/xlink" width="614.4pt" height="345.6pt" viewBox="0 0 614.4 345.6" xmlns="http://www.w3.org/2000/svg" version="1.1">
 <metadata>
  <rdf:RDF xmlns:dc="http://purl.org/dc/elements/1.1/" xmlns:cc="http://creativecommons.org/ns#" xmlns:rdf="http://www.w3.org/1999/02/22-rdf-syntax-ns#">
   <cc:Work>
    <dc:type rdf:resource="http://purl.org/dc/dcmitype/StillImage"/>
    <dc:date>2024-04-17T19:48:49.443929</dc:date>
    <dc:format>image/svg+xml</dc:format>
    <dc:creator>
     <cc:Agent>
      <dc:title>Matplotlib v3.7.1, https://matplotlib.org/</dc:title>
     </cc:Agent>
    </dc:creator>
   </cc:Work>
  </rdf:RDF>
 </metadata>
 <defs>
  <style type="text/css">*{stroke-linejoin: round; stroke-linecap: butt}</style>
 </defs>
 <g id="figure_1">
  <g id="patch_1">
   <path d="M 0 345.6 
L 614.4 345.6 
L 614.4 0 
L 0 0 
z
" style="fill: #ffffff"/>
  </g>
  <g id="axes_1">
   <g id="patch_2">
    <path d="M 63.290625 321.621875 
L 603.6 321.621875 
L 603.6 10.8 
L 63.290625 10.8 
z
" style="fill: #ffffff"/>
   </g>
   <path d="M 524.882006 290.548164 
L 523.882006 290.516727 
L 522.882006 290.479787 
L 521.882006 290.38204 
L 520.882006 290.349519 
L 519.882006 290.275894 
L 518.882006 290.237328 
L 517.882006 290.201915 
L 516.882006 290.144275 
L 515.882006 290.073889 
L 514.882006 290.021925 
L 513.882006 289.962835 
L 512.882006 289.874514 
L 511.882006 289.82837 
L 510.882006 289.785959 
L 509.882006 289.755466 
L 508.882006 289.729421 
L 507.882006 289.708221 
L 506.882006 289.65392 
L 505.882006 289.625983 
L 504.882006 289.596259 
L 503.882006 289.570864 
L 502.882006 289.559663 
L 501.882006 289.549539 
L 500.882006 289.549744 
L 499.882006 289.559254 
L 498.882006 289.570907 
L 497.882006 289.601937 
L 496.882006 289.613104 
L 495.882006 289.643222 
L 494.882006 289.702999 
L 493.882006 289.74019 
L 492.882006 289.779287 
L 491.882006 289.821726 
L 490.882006 289.854491 
L 489.882006 289.921918 
L 488.882006 289.961044 
L 487.882006 290.003718 
L 486.882006 290.074299 
L 485.882006 290.11069 
L 484.882006 290.169093 
L 483.882006 290.280045 
L 482.882006 290.350704 
L 481.882006 290.463644 
L 480.882006 290.509416 
L 479.882006 290.5707 
L 478.882006 290.619199 
L 477.882006 290.700022 
L 476.882006 290.818541 
L 475.882006 290.888751 
L 474.882006 290.972014 
L 473.882006 291.005156 
L 472.882006 291.056393 
L 471.882006 291.124791 
L 470.882006 291.191007 
L 469.882006 291.267924 
L 468.882006 291.295239 
L 467.882006 291.321717 
L 466.882006 291.344367 
L 465.882006 291.363899 
L 464.882006 291.390293 
L 463.882006 291.440063 
L 462.882006 291.475137 
L 461.882006 291.511002 
L 460.882006 291.52637 
L 459.882006 291.542139 
L 458.882006 291.545551 
L 457.882006 291.547969 
L 456.882006 291.547483 
L 455.882006 291.545554 
L 454.882006 291.532297 
L 453.882006 291.523906 
L 452.882006 291.502369 
L 450.890215 291.479337 
" clip-path="url(#p6bc7e66b98)" style="fill: none; stroke-dasharray: 3.7,1.6; stroke-dashoffset: 0; stroke: #2ca02c"/>
   <g id="patch_3">
    <path d="M 253.870381 10.8 
L 253.870381 229.112741 
M 391.021418 10.8 
L 391.021418 229.112741 
" clip-path="url(#p6bc7e66b98)" style="fill: none; stroke: #ffffff; stroke-width: 3; stroke-linejoin: miter"/>
    <path d="M 253.870381 10.8 
L 253.870381 229.112741 
M 391.021418 10.8 
L 391.021418 229.112741 
" clip-path="url(#p6bc7e66b98)" style="fill: none; stroke: #1f77b4; stroke-linejoin: miter"/>
    <g id="PolyCollection_1">
     <path d="M 391.021418 10.8 
L 253.870381 10.8 
L 253.870381 229.112741 
L 391.021418 229.112741 
L 391.021418 229.112741 
L 391.021418 10.8 
z
" clip-path="url(#p6bc7e66b98)" style="fill: #1f77b4; fill-opacity: 0.5"/>
    </g>
    <g id="patch_4">
     <path d="M 87.850142 229.112741 
L 87.850142 321.621875 
M 208.716319 229.112741 
L 208.716319 321.621875 
" clip-path="url(#p6bc7e66b98)" style="fill: none; stroke: #ffffff; stroke-width: 3; stroke-linejoin: miter"/>
     <path d="M 87.850142 229.112741 
L 87.850142 321.621875 
M 208.716319 229.112741 
L 208.716319 321.621875 
" clip-path="url(#p6bc7e66b98)" style="fill: none; stroke: #ff7f0e; stroke-linejoin: miter"/>
     <g id="PolyCollection_2">
      <path d="M 208.716319 229.112741 
L 87.850142 229.112741 
L 87.850142 321.621875 
L 208.716319 321.621875 
L 208.716319 321.621875 
L 208.716319 229.112741 
z
" clip-path="url(#p6bc7e66b98)" style="fill: #ff7f0e; fill-opacity: 0.5"/>
     </g>
     <g id="patch_5">
      <path d="M 530.2851 72.964375 
L 530.2851 321.621875 
M 579.040483 72.964375 
L 579.040483 321.621875 
" clip-path="url(#p6bc7e66b98)" style="fill: none; stroke: #ffffff; stroke-width: 3; stroke-linejoin: miter"/>
      <path d="M 530.2851 72.964375 
L 530.2851 321.621875 
M 579.040483 72.964375 
L 579.040483 321.621875 
" clip-path="url(#p6bc7e66b98)" style="fill: none; stroke: #2ca02c; stroke-linejoin: miter"/>
      <g id="PolyCollection_3">
       <path d="M 579.040483 72.964375 
L 530.2851 72.964375 
L 530.2851 321.621875 
L 579.040483 321.621875 
L 579.040483 321.621875 
L 579.040483 72.964375 
z
" clip-path="url(#p6bc7e66b98)" style="fill: #2ca02c; fill-opacity: 0.5"/>
      </g>
      <g id="patch_6">
       <path d="M 431.621569 267.984547 
L 431.621569 321.621875 
M 445.487122 267.984547 
L 445.487122 321.621875 
" clip-path="url(#p6bc7e66b98)" style="fill: none; stroke: #ffffff; stroke-width: 3; stroke-linejoin: miter"/>
       <path d="M 431.621569 267.984547 
L 431.621569 321.621875 
M 445.487122 267.984547 
L 445.487122 321.621875 
" clip-path="url(#p6bc7e66b98)" style="fill: none; stroke: #d62728; stroke-linejoin: miter"/>
       <g id="PolyCollection_4">
        <path d="M 445.487122 267.984547 
L 431.621569 267.984547 
L 431.621569 321.621875 
L 445.487122 321.621875 
L 445.487122 321.621875 
L 445.487122 267.984547 
z
" clip-path="url(#p6bc7e66b98)" style="fill: #d62728; fill-opacity: 0.5"/>
       </g>
       <g id="matplotlib.axis_1">
        <g id="xtick_1">
         <g id="line2d_1"/>
         <g id="text_1">
          <!-- OUT -->
          <g transform="translate(137.634012 332.720312) scale(0.1 -0.1)">
           <defs>
            <path id="DejaVuSans-4f" d="M 2522 4238 
Q 1834 4238 1429 3725 
Q 1025 3213 1025 2328 
Q 1025 1447 1429 934 
Q 1834 422 2522 422 
Q 3209 422 3611 934 
Q 4013 1447 4013 2328 
Q 4013 3213 3611 3725 
Q 3209 4238 2522 4238 
z
M 2522 4750 
Q 3503 4750 4090 4092 
Q 4678 3434 4678 2328 
Q 4678 1225 4090 567 
Q 3503 -91 2522 -91 
Q 1538 -91 948 565 
Q 359 1222 359 2328 
Q 359 3434 948 4092 
Q 1538 4750 2522 4750 
z
" transform="scale(0.015625)"/>
            <path id="DejaVuSans-55" d="M 556 4666 
L 1191 4666 
L 1191 1831 
Q 1191 1081 1462 751 
Q 1734 422 2344 422 
Q 2950 422 3222 751 
Q 3494 1081 3494 1831 
L 3494 4666 
L 4128 4666 
L 4128 1753 
Q 4128 841 3676 375 
Q 3225 -91 2344 -91 
Q 1459 -91 1007 375 
Q 556 841 556 1753 
L 556 4666 
z
" transform="scale(0.015625)"/>
            <path id="DejaVuSans-54" d="M -19 4666 
L 3928 4666 
L 3928 4134 
L 2272 4134 
L 2272 0 
L 1638 0 
L 1638 4134 
L -19 4134 
L -19 4666 
z
" transform="scale(0.015625)"/>
           </defs>
           <use xlink:href="#DejaVuSans-4f"/>
           <use xlink:href="#DejaVuSans-55" x="78.710938"/>
           <use xlink:href="#DejaVuSans-54" x="151.904297"/>
          </g>
         </g>
        </g>
        <g id="xtick_2">
         <g id="line2d_2"/>
         <g id="text_2">
          <!-- SRC -->
          <g transform="translate(544.772948 332.720312) scale(0.1 -0.1)">
           <defs>
            <path id="DejaVuSans-53" d="M 3425 4513 
L 3425 3897 
Q 3066 4069 2747 4153 
Q 2428 4238 2131 4238 
Q 1616 4238 1336 4038 
Q 1056 3838 1056 3469 
Q 1056 3159 1242 3001 
Q 1428 2844 1947 2747 
L 2328 2669 
Q 3034 2534 3370 2195 
Q 3706 1856 3706 1288 
Q 3706 609 3251 259 
Q 2797 -91 1919 -91 
Q 1588 -91 1214 -16 
Q 841 59 441 206 
L 441 856 
Q 825 641 1194 531 
Q 1563 422 1919 422 
Q 2459 422 2753 634 
Q 3047 847 3047 1241 
Q 3047 1584 2836 1778 
Q 2625 1972 2144 2069 
L 1759 2144 
Q 1053 2284 737 2584 
Q 422 2884 422 3419 
Q 422 4038 858 4394 
Q 1294 4750 2059 4750 
Q 2388 4750 2728 4690 
Q 3069 4631 3425 4513 
z
" transform="scale(0.015625)"/>
            <path id="DejaVuSans-52" d="M 2841 2188 
Q 3044 2119 3236 1894 
Q 3428 1669 3622 1275 
L 4263 0 
L 3584 0 
L 2988 1197 
Q 2756 1666 2539 1819 
Q 2322 1972 1947 1972 
L 1259 1972 
L 1259 0 
L 628 0 
L 628 4666 
L 2053 4666 
Q 2853 4666 3247 4331 
Q 3641 3997 3641 3322 
Q 3641 2881 3436 2590 
Q 3231 2300 2841 2188 
z
M 1259 4147 
L 1259 2491 
L 2053 2491 
Q 2509 2491 2742 2702 
Q 2975 2913 2975 3322 
Q 2975 3731 2742 3939 
Q 2509 4147 2053 4147 
L 1259 4147 
z
" transform="scale(0.015625)"/>
            <path id="DejaVuSans-43" d="M 4122 4306 
L 4122 3641 
Q 3803 3938 3442 4084 
Q 3081 4231 2675 4231 
Q 1875 4231 1450 3742 
Q 1025 3253 1025 2328 
Q 1025 1406 1450 917 
Q 1875 428 2675 428 
Q 3081 428 3442 575 
Q 3803 722 4122 1019 
L 4122 359 
Q 3791 134 3420 21 
Q 3050 -91 2638 -91 
Q 1578 -91 968 557 
Q 359 1206 359 2328 
Q 359 3453 968 4101 
Q 1578 4750 2638 4750 
Q 3056 4750 3426 4639 
Q 3797 4528 4122 4306 
z
" transform="scale(0.015625)"/>
           </defs>
           <use xlink:href="#DejaVuSans-53"/>
           <use xlink:href="#DejaVuSans-52" x="63.476562"/>
           <use xlink:href="#DejaVuSans-43" x="127.958984"/>
          </g>
         </g>
        </g>
        <g id="xtick_3">
         <g id="line2d_3"/>
         <g id="text_3">
          <!-- TAR -->
          <g transform="translate(428.993408 332.720312) scale(0.1 -0.1)">
           <defs>
            <path id="DejaVuSans-41" d="M 2188 4044 
L 1331 1722 
L 3047 1722 
L 2188 4044 
z
M 1831 4666 
L 2547 4666 
L 4325 0 
L 3669 0 
L 3244 1197 
L 1141 1197 
L 716 0 
L 50 0 
L 1831 4666 
z
" transform="scale(0.015625)"/>
           </defs>
           <use xlink:href="#DejaVuSans-54"/>
           <use xlink:href="#DejaVuSans-41" x="53.333984"/>
           <use xlink:href="#DejaVuSans-52" x="121.742188"/>
          </g>
         </g>
        </g>
       </g>
       <g id="matplotlib.axis_2">
        <g id="ytick_1">
         <g id="line2d_4">
          <defs>
           <path id="m9cef7da5eb" d="M 0 0 
L -3.5 0 
" style="stroke: #000000; stroke-width: 0.8"/>
          </defs>
          <g>
           <use xlink:href="#m9cef7da5eb" x="63.290625" y="321.621875" style="stroke: #000000; stroke-width: 0.8"/>
          </g>
         </g>
         <g id="text_4">
          <!-- 0 -->
          <g transform="translate(49.928125 325.421094) scale(0.1 -0.1)">
           <defs>
            <path id="DejaVuSans-30" d="M 2034 4250 
Q 1547 4250 1301 3770 
Q 1056 3291 1056 2328 
Q 1056 1369 1301 889 
Q 1547 409 2034 409 
Q 2525 409 2770 889 
Q 3016 1369 3016 2328 
Q 3016 3291 2770 3770 
Q 2525 4250 2034 4250 
z
M 2034 4750 
Q 2819 4750 3233 4129 
Q 3647 3509 3647 2328 
Q 3647 1150 3233 529 
Q 2819 -91 2034 -91 
Q 1250 -91 836 529 
Q 422 1150 422 2328 
Q 422 3509 836 4129 
Q 1250 4750 2034 4750 
z
" transform="scale(0.015625)"/>
           </defs>
           <use xlink:href="#DejaVuSans-30"/>
          </g>
         </g>
        </g>
        <g id="ytick_2">
         <g id="line2d_5">
          <g>
           <use xlink:href="#m9cef7da5eb" x="63.290625" y="279.240927" style="stroke: #000000; stroke-width: 0.8"/>
          </g>
         </g>
         <g id="text_5">
          <!-- 2500 -->
          <g transform="translate(30.840625 283.040145) scale(0.1 -0.1)">
           <defs>
            <path id="DejaVuSans-32" d="M 1228 531 
L 3431 531 
L 3431 0 
L 469 0 
L 469 531 
Q 828 903 1448 1529 
Q 2069 2156 2228 2338 
Q 2531 2678 2651 2914 
Q 2772 3150 2772 3378 
Q 2772 3750 2511 3984 
Q 2250 4219 1831 4219 
Q 1534 4219 1204 4116 
Q 875 4013 500 3803 
L 500 4441 
Q 881 4594 1212 4672 
Q 1544 4750 1819 4750 
Q 2544 4750 2975 4387 
Q 3406 4025 3406 3419 
Q 3406 3131 3298 2873 
Q 3191 2616 2906 2266 
Q 2828 2175 2409 1742 
Q 1991 1309 1228 531 
z
" transform="scale(0.015625)"/>
            <path id="DejaVuSans-35" d="M 691 4666 
L 3169 4666 
L 3169 4134 
L 1269 4134 
L 1269 2991 
Q 1406 3038 1543 3061 
Q 1681 3084 1819 3084 
Q 2600 3084 3056 2656 
Q 3513 2228 3513 1497 
Q 3513 744 3044 326 
Q 2575 -91 1722 -91 
Q 1428 -91 1123 -41 
Q 819 9 494 109 
L 494 744 
Q 775 591 1075 516 
Q 1375 441 1709 441 
Q 2250 441 2565 725 
Q 2881 1009 2881 1497 
Q 2881 1984 2565 2268 
Q 2250 2553 1709 2553 
Q 1456 2553 1204 2497 
Q 953 2441 691 2322 
L 691 4666 
z
" transform="scale(0.015625)"/>
           </defs>
           <use xlink:href="#DejaVuSans-32"/>
           <use xlink:href="#DejaVuSans-35" x="63.623047"/>
           <use xlink:href="#DejaVuSans-30" x="127.246094"/>
           <use xlink:href="#DejaVuSans-30" x="190.869141"/>
          </g>
         </g>
        </g>
        <g id="ytick_3">
         <g id="line2d_6">
          <g>
           <use xlink:href="#m9cef7da5eb" x="63.290625" y="236.859978" style="stroke: #000000; stroke-width: 0.8"/>
          </g>
         </g>
         <g id="text_6">
          <!-- 5000 -->
          <g transform="translate(30.840625 240.659197) scale(0.1 -0.1)">
           <use xlink:href="#DejaVuSans-35"/>
           <use xlink:href="#DejaVuSans-30" x="63.623047"/>
           <use xlink:href="#DejaVuSans-30" x="127.246094"/>
           <use xlink:href="#DejaVuSans-30" x="190.869141"/>
          </g>
         </g>
        </g>
        <g id="ytick_4">
         <g id="line2d_7">
          <g>
           <use xlink:href="#m9cef7da5eb" x="63.290625" y="194.47903" style="stroke: #000000; stroke-width: 0.8"/>
          </g>
         </g>
         <g id="text_7">
          <!-- 7500 -->
          <g transform="translate(30.840625 198.278249) scale(0.1 -0.1)">
           <defs>
            <path id="DejaVuSans-37" d="M 525 4666 
L 3525 4666 
L 3525 4397 
L 1831 0 
L 1172 0 
L 2766 4134 
L 525 4134 
L 525 4666 
z
" transform="scale(0.015625)"/>
           </defs>
           <use xlink:href="#DejaVuSans-37"/>
           <use xlink:href="#DejaVuSans-35" x="63.623047"/>
           <use xlink:href="#DejaVuSans-30" x="127.246094"/>
           <use xlink:href="#DejaVuSans-30" x="190.869141"/>
          </g>
         </g>
        </g>
        <g id="ytick_5">
         <g id="line2d_8">
          <g>
           <use xlink:href="#m9cef7da5eb" x="63.290625" y="152.098082" style="stroke: #000000; stroke-width: 0.8"/>
          </g>
         </g>
         <g id="text_8">
          <!-- 10000 -->
          <g transform="translate(24.478125 155.8973) scale(0.1 -0.1)">
           <defs>
            <path id="DejaVuSans-31" d="M 794 531 
L 1825 531 
L 1825 4091 
L 703 3866 
L 703 4441 
L 1819 4666 
L 2450 4666 
L 2450 531 
L 3481 531 
L 3481 0 
L 794 0 
L 794 531 
z
" transform="scale(0.015625)"/>
           </defs>
           <use xlink:href="#DejaVuSans-31"/>
           <use xlink:href="#DejaVuSans-30" x="63.623047"/>
           <use xlink:href="#DejaVuSans-30" x="127.246094"/>
           <use xlink:href="#DejaVuSans-30" x="190.869141"/>
           <use xlink:href="#DejaVuSans-30" x="254.492188"/>
          </g>
         </g>
        </g>
        <g id="ytick_6">
         <g id="line2d_9">
          <g>
           <use xlink:href="#m9cef7da5eb" x="63.290625" y="109.717133" style="stroke: #000000; stroke-width: 0.8"/>
          </g>
         </g>
         <g id="text_9">
          <!-- 12500 -->
          <g transform="translate(24.478125 113.516352) scale(0.1 -0.1)">
           <use xlink:href="#DejaVuSans-31"/>
           <use xlink:href="#DejaVuSans-32" x="63.623047"/>
           <use xlink:href="#DejaVuSans-35" x="127.246094"/>
           <use xlink:href="#DejaVuSans-30" x="190.869141"/>
           <use xlink:href="#DejaVuSans-30" x="254.492188"/>
          </g>
         </g>
        </g>
        <g id="ytick_7">
         <g id="line2d_10">
          <g>
           <use xlink:href="#m9cef7da5eb" x="63.290625" y="67.336185" style="stroke: #000000; stroke-width: 0.8"/>
          </g>
         </g>
         <g id="text_10">
          <!-- 15000 -->
          <g transform="translate(24.478125 71.135404) scale(0.1 -0.1)">
           <use xlink:href="#DejaVuSans-31"/>
           <use xlink:href="#DejaVuSans-35" x="63.623047"/>
           <use xlink:href="#DejaVuSans-30" x="127.246094"/>
           <use xlink:href="#DejaVuSans-30" x="190.869141"/>
           <use xlink:href="#DejaVuSans-30" x="254.492188"/>
          </g>
         </g>
        </g>
        <g id="ytick_8">
         <g id="line2d_11">
          <g>
           <use xlink:href="#m9cef7da5eb" x="63.290625" y="24.955237" style="stroke: #000000; stroke-width: 0.8"/>
          </g>
         </g>
         <g id="text_11">
          <!-- 17500 -->
          <g transform="translate(24.478125 28.754455) scale(0.1 -0.1)">
           <use xlink:href="#DejaVuSans-31"/>
           <use xlink:href="#DejaVuSans-37" x="63.623047"/>
           <use xlink:href="#DejaVuSans-35" x="127.246094"/>
           <use xlink:href="#DejaVuSans-30" x="190.869141"/>
           <use xlink:href="#DejaVuSans-30" x="254.492188"/>
          </g>
         </g>
        </g>
        <g id="text_12">
         <!-- time ago (generations) -->
         <g transform="translate(18.398438 223.682031) rotate(-90) scale(0.1 -0.1)">
          <defs>
           <path id="DejaVuSans-74" d="M 1172 4494 
L 1172 3500 
L 2356 3500 
L 2356 3053 
L 1172 3053 
L 1172 1153 
Q 1172 725 1289 603 
Q 1406 481 1766 481 
L 2356 481 
L 2356 0 
L 1766 0 
Q 1100 0 847 248 
Q 594 497 594 1153 
L 594 3053 
L 172 3053 
L 172 3500 
L 594 3500 
L 594 4494 
L 1172 4494 
z
" transform="scale(0.015625)"/>
           <path id="DejaVuSans-69" d="M 603 3500 
L 1178 3500 
L 1178 0 
L 603 0 
L 603 3500 
z
M 603 4863 
L 1178 4863 
L 1178 4134 
L 603 4134 
L 603 4863 
z
" transform="scale(0.015625)"/>
           <path id="DejaVuSans-6d" d="M 3328 2828 
Q 3544 3216 3844 3400 
Q 4144 3584 4550 3584 
Q 5097 3584 5394 3201 
Q 5691 2819 5691 2113 
L 5691 0 
L 5113 0 
L 5113 2094 
Q 5113 2597 4934 2840 
Q 4756 3084 4391 3084 
Q 3944 3084 3684 2787 
Q 3425 2491 3425 1978 
L 3425 0 
L 2847 0 
L 2847 2094 
Q 2847 2600 2669 2842 
Q 2491 3084 2119 3084 
Q 1678 3084 1418 2786 
Q 1159 2488 1159 1978 
L 1159 0 
L 581 0 
L 581 3500 
L 1159 3500 
L 1159 2956 
Q 1356 3278 1631 3431 
Q 1906 3584 2284 3584 
Q 2666 3584 2933 3390 
Q 3200 3197 3328 2828 
z
" transform="scale(0.015625)"/>
           <path id="DejaVuSans-65" d="M 3597 1894 
L 3597 1613 
L 953 1613 
Q 991 1019 1311 708 
Q 1631 397 2203 397 
Q 2534 397 2845 478 
Q 3156 559 3463 722 
L 3463 178 
Q 3153 47 2828 -22 
Q 2503 -91 2169 -91 
Q 1331 -91 842 396 
Q 353 884 353 1716 
Q 353 2575 817 3079 
Q 1281 3584 2069 3584 
Q 2775 3584 3186 3129 
Q 3597 2675 3597 1894 
z
M 3022 2063 
Q 3016 2534 2758 2815 
Q 2500 3097 2075 3097 
Q 1594 3097 1305 2825 
Q 1016 2553 972 2059 
L 3022 2063 
z
" transform="scale(0.015625)"/>
           <path id="DejaVuSans-20" transform="scale(0.015625)"/>
           <path id="DejaVuSans-61" d="M 2194 1759 
Q 1497 1759 1228 1600 
Q 959 1441 959 1056 
Q 959 750 1161 570 
Q 1363 391 1709 391 
Q 2188 391 2477 730 
Q 2766 1069 2766 1631 
L 2766 1759 
L 2194 1759 
z
M 3341 1997 
L 3341 0 
L 2766 0 
L 2766 531 
Q 2569 213 2275 61 
Q 1981 -91 1556 -91 
Q 1019 -91 701 211 
Q 384 513 384 1019 
Q 384 1609 779 1909 
Q 1175 2209 1959 2209 
L 2766 2209 
L 2766 2266 
Q 2766 2663 2505 2880 
Q 2244 3097 1772 3097 
Q 1472 3097 1187 3025 
Q 903 2953 641 2809 
L 641 3341 
Q 956 3463 1253 3523 
Q 1550 3584 1831 3584 
Q 2591 3584 2966 3190 
Q 3341 2797 3341 1997 
z
" transform="scale(0.015625)"/>
           <path id="DejaVuSans-67" d="M 2906 1791 
Q 2906 2416 2648 2759 
Q 2391 3103 1925 3103 
Q 1463 3103 1205 2759 
Q 947 2416 947 1791 
Q 947 1169 1205 825 
Q 1463 481 1925 481 
Q 2391 481 2648 825 
Q 2906 1169 2906 1791 
z
M 3481 434 
Q 3481 -459 3084 -895 
Q 2688 -1331 1869 -1331 
Q 1566 -1331 1297 -1286 
Q 1028 -1241 775 -1147 
L 775 -588 
Q 1028 -725 1275 -790 
Q 1522 -856 1778 -856 
Q 2344 -856 2625 -561 
Q 2906 -266 2906 331 
L 2906 616 
Q 2728 306 2450 153 
Q 2172 0 1784 0 
Q 1141 0 747 490 
Q 353 981 353 1791 
Q 353 2603 747 3093 
Q 1141 3584 1784 3584 
Q 2172 3584 2450 3431 
Q 2728 3278 2906 2969 
L 2906 3500 
L 3481 3500 
L 3481 434 
z
" transform="scale(0.015625)"/>
           <path id="DejaVuSans-6f" d="M 1959 3097 
Q 1497 3097 1228 2736 
Q 959 2375 959 1747 
Q 959 1119 1226 758 
Q 1494 397 1959 397 
Q 2419 397 2687 759 
Q 2956 1122 2956 1747 
Q 2956 2369 2687 2733 
Q 2419 3097 1959 3097 
z
M 1959 3584 
Q 2709 3584 3137 3096 
Q 3566 2609 3566 1747 
Q 3566 888 3137 398 
Q 2709 -91 1959 -91 
Q 1206 -91 779 398 
Q 353 888 353 1747 
Q 353 2609 779 3096 
Q 1206 3584 1959 3584 
z
" transform="scale(0.015625)"/>
           <path id="DejaVuSans-28" d="M 1984 4856 
Q 1566 4138 1362 3434 
Q 1159 2731 1159 2009 
Q 1159 1288 1364 580 
Q 1569 -128 1984 -844 
L 1484 -844 
Q 1016 -109 783 600 
Q 550 1309 550 2009 
Q 550 2706 781 3412 
Q 1013 4119 1484 4856 
L 1984 4856 
z
" transform="scale(0.015625)"/>
           <path id="DejaVuSans-6e" d="M 3513 2113 
L 3513 0 
L 2938 0 
L 2938 2094 
Q 2938 2591 2744 2837 
Q 2550 3084 2163 3084 
Q 1697 3084 1428 2787 
Q 1159 2491 1159 1978 
L 1159 0 
L 581 0 
L 581 3500 
L 1159 3500 
L 1159 2956 
Q 1366 3272 1645 3428 
Q 1925 3584 2291 3584 
Q 2894 3584 3203 3211 
Q 3513 2838 3513 2113 
z
" transform="scale(0.015625)"/>
           <path id="DejaVuSans-72" d="M 2631 2963 
Q 2534 3019 2420 3045 
Q 2306 3072 2169 3072 
Q 1681 3072 1420 2755 
Q 1159 2438 1159 1844 
L 1159 0 
L 581 0 
L 581 3500 
L 1159 3500 
L 1159 2956 
Q 1341 3275 1631 3429 
Q 1922 3584 2338 3584 
Q 2397 3584 2469 3576 
Q 2541 3569 2628 3553 
L 2631 2963 
z
" transform="scale(0.015625)"/>
           <path id="DejaVuSans-73" d="M 2834 3397 
L 2834 2853 
Q 2591 2978 2328 3040 
Q 2066 3103 1784 3103 
Q 1356 3103 1142 2972 
Q 928 2841 928 2578 
Q 928 2378 1081 2264 
Q 1234 2150 1697 2047 
L 1894 2003 
Q 2506 1872 2764 1633 
Q 3022 1394 3022 966 
Q 3022 478 2636 193 
Q 2250 -91 1575 -91 
Q 1294 -91 989 -36 
Q 684 19 347 128 
L 347 722 
Q 666 556 975 473 
Q 1284 391 1588 391 
Q 1994 391 2212 530 
Q 2431 669 2431 922 
Q 2431 1156 2273 1281 
Q 2116 1406 1581 1522 
L 1381 1569 
Q 847 1681 609 1914 
Q 372 2147 372 2553 
Q 372 3047 722 3315 
Q 1072 3584 1716 3584 
Q 2034 3584 2315 3537 
Q 2597 3491 2834 3397 
z
" transform="scale(0.015625)"/>
           <path id="DejaVuSans-29" d="M 513 4856 
L 1013 4856 
Q 1481 4119 1714 3412 
Q 1947 2706 1947 2009 
Q 1947 1309 1714 600 
Q 1481 -109 1013 -844 
L 513 -844 
Q 928 -128 1133 580 
Q 1338 1288 1338 2009 
Q 1338 2731 1133 3434 
Q 928 4138 513 4856 
z
" transform="scale(0.015625)"/>
          </defs>
          <use xlink:href="#DejaVuSans-74"/>
          <use xlink:href="#DejaVuSans-69" x="39.208984"/>
          <use xlink:href="#DejaVuSans-6d" x="66.992188"/>
          <use xlink:href="#DejaVuSans-65" x="164.404297"/>
          <use xlink:href="#DejaVuSans-20" x="225.927734"/>
          <use xlink:href="#DejaVuSans-61" x="257.714844"/>
          <use xlink:href="#DejaVuSans-67" x="318.994141"/>
          <use xlink:href="#DejaVuSans-6f" x="382.470703"/>
          <use xlink:href="#DejaVuSans-20" x="443.652344"/>
          <use xlink:href="#DejaVuSans-28" x="475.439453"/>
          <use xlink:href="#DejaVuSans-67" x="514.453125"/>
          <use xlink:href="#DejaVuSans-65" x="577.929688"/>
          <use xlink:href="#DejaVuSans-6e" x="639.453125"/>
          <use xlink:href="#DejaVuSans-65" x="702.832031"/>
          <use xlink:href="#DejaVuSans-72" x="764.355469"/>
          <use xlink:href="#DejaVuSans-61" x="805.46875"/>
          <use xlink:href="#DejaVuSans-74" x="866.748047"/>
          <use xlink:href="#DejaVuSans-69" x="905.957031"/>
          <use xlink:href="#DejaVuSans-6f" x="933.740234"/>
          <use xlink:href="#DejaVuSans-6e" x="994.921875"/>
          <use xlink:href="#DejaVuSans-73" x="1058.300781"/>
          <use xlink:href="#DejaVuSans-29" x="1110.400391"/>
         </g>
        </g>
       </g>
       <g id="patch_7">
        <path d="M 251.872292 229.112741 
L 250.872292 229.081305 
L 249.872292 229.044364 
L 248.872292 228.946618 
L 247.872292 228.914096 
L 246.872292 228.840471 
L 245.872292 228.801906 
L 244.872292 228.766493 
L 243.872292 228.708853 
L 242.872292 228.638467 
L 241.872292 228.586502 
L 240.872292 228.527413 
L 239.872292 228.439092 
L 238.872292 228.392947 
L 237.872292 228.350536 
L 236.872292 228.320044 
L 235.872292 228.293999 
L 234.872292 228.272799 
L 233.872292 228.218498 
L 232.872292 228.19056 
L 231.872292 228.160836 
L 230.872292 228.135441 
L 229.872292 228.124241 
L 228.872292 228.114117 
L 227.872292 228.114321 
L 226.872292 228.123831 
L 225.872292 228.135485 
L 224.872292 228.166514 
L 223.872292 228.177682 
L 222.872292 228.207799 
L 221.872292 228.267576 
L 220.872292 228.304768 
L 219.872292 228.343864 
L 218.872292 228.386304 
L 217.872292 228.419069 
L 216.872292 228.486495 
L 215.872292 228.525621 
L 214.872292 228.568296 
L 213.872292 228.638876 
L 212.872292 228.675267 
L 211.833583 228.73367 
" clip-path="url(#p6bc7e66b98)" style="fill: none; stroke: #ffffff; stroke-width: 3; stroke-linecap: round"/>
        <path d="M 251.872292 229.112741 
L 250.872292 229.081305 
L 249.872292 229.044364 
L 248.872292 228.946618 
L 247.872292 228.914096 
L 246.872292 228.840471 
L 245.872292 228.801906 
L 244.872292 228.766493 
L 243.872292 228.708853 
L 242.872292 228.638467 
L 241.872292 228.586502 
L 240.872292 228.527413 
L 239.872292 228.439092 
L 238.872292 228.392947 
L 237.872292 228.350536 
L 236.872292 228.320044 
L 235.872292 228.293999 
L 234.872292 228.272799 
L 233.872292 228.218498 
L 232.872292 228.19056 
L 231.872292 228.160836 
L 230.872292 228.135441 
L 229.872292 228.124241 
L 228.872292 228.114117 
L 227.872292 228.114321 
L 226.872292 228.123831 
L 225.872292 228.135485 
L 224.872292 228.166514 
L 223.872292 228.177682 
L 222.872292 228.207799 
L 221.872292 228.267576 
L 220.872292 228.304768 
L 219.872292 228.343864 
L 218.872292 228.386304 
L 217.872292 228.419069 
L 216.872292 228.486495 
L 215.872292 228.525621 
L 214.872292 228.568296 
L 213.872292 228.638876 
L 212.872292 228.675267 
L 211.833583 228.73367 
" clip-path="url(#p6bc7e66b98)" style="fill: none; stroke: #1f77b4; stroke-linecap: round"/>
        <path d="M 215.833583 231.112741 
L 214.953215 230.63741 
L 214.075308 230.157156 
L 213.224594 229.622515 
L 211.92242 228.935068 
L 212.849773 228.909053 
L 213.761447 228.496333 
L 214.671712 228.080794 
L 216.014207 227.47399 
L 215.359308 228.112741 
L 215.307344 229.112741 
L 215.248254 231.112741 
z
" clip-path="url(#p6bc7e66b98)" style="fill: #ffffff; stroke: #ffffff; stroke-width: 3; stroke-linecap: round"/>
        <path d="M 215.833583 231.112741 
L 214.953215 230.63741 
L 214.075308 230.157156 
L 213.224594 229.622515 
L 211.92242 228.935068 
L 212.849773 228.909053 
L 213.761447 228.496333 
L 214.671712 228.080794 
L 216.014207 227.47399 
L 215.359308 228.112741 
L 215.307344 229.112741 
L 215.248254 231.112741 
z
" clip-path="url(#p6bc7e66b98)" style="fill: #ffffff; stroke: #1f77b4; stroke-linecap: round"/>
        <g id="patch_8">
         <path d="M 393.023163 72.964375 
L 394.023163 72.995811 
L 395.023163 73.032752 
L 396.023163 73.130498 
L 397.023163 73.16302 
L 398.023163 73.236645 
L 399.023163 73.27521 
L 400.023163 73.310623 
L 401.023163 73.368263 
L 402.023163 73.438649 
L 403.023163 73.490614 
L 404.023163 73.549703 
L 405.023163 73.638024 
L 406.023163 73.684169 
L 407.023163 73.72658 
L 408.023163 73.757072 
L 409.023163 73.783117 
L 410.023163 73.804317 
L 411.023163 73.858618 
L 412.023163 73.886556 
L 413.023163 73.91628 
L 414.023163 73.941675 
L 415.023163 73.952875 
L 416.023163 73.962999 
L 417.023163 73.962795 
L 418.023163 73.953285 
L 419.023163 73.941631 
L 420.023163 73.910602 
L 421.023163 73.899434 
L 422.023163 73.869317 
L 423.023163 73.80954 
L 424.023163 73.772348 
L 425.023163 73.733252 
L 426.023163 73.690812 
L 427.023163 73.658047 
L 428.023163 73.590621 
L 429.023163 73.551495 
L 430.023163 73.50882 
L 431.023163 73.43824 
L 432.023163 73.401849 
L 433.023163 73.343446 
L 434.023163 73.232493 
L 435.023163 73.161835 
L 436.023163 73.048895 
L 437.023163 73.003122 
L 438.023163 72.941839 
L 439.023163 72.89334 
L 440.023163 72.812517 
L 441.023163 72.693998 
L 442.023163 72.623787 
L 443.023163 72.540525 
L 444.023163 72.507383 
L 445.023163 72.456146 
L 446.023163 72.387747 
L 447.023163 72.321532 
L 448.023163 72.244615 
L 449.023163 72.217299 
L 450.023163 72.190822 
L 451.023163 72.168171 
L 452.023163 72.14864 
L 453.023163 72.122246 
L 454.023163 72.072475 
L 455.023163 72.037402 
L 456.023163 72.001536 
L 457.023163 71.986169 
L 458.023163 71.9704 
L 459.023163 71.966987 
L 460.023163 71.96457 
L 461.023163 71.965056 
L 462.023163 71.966985 
L 463.023163 71.980242 
L 464.023163 71.988633 
L 465.023163 72.010169 
L 466.023163 72.033202 
L 467.023163 72.050435 
L 468.023163 72.068898 
L 469.023163 72.08935 
L 470.023163 72.10595 
L 471.023163 72.168729 
L 472.023163 72.243994 
L 473.023163 72.276633 
L 474.023163 72.344197 
L 475.023163 72.398244 
L 476.023163 72.431948 
L 477.023163 72.522074 
L 478.023163 72.550609 
L 479.023163 72.582095 
L 480.023163 72.613106 
L 481.023163 72.667914 
L 482.023163 72.732501 
L 483.023163 72.770697 
L 484.023163 72.866631 
L 485.023163 72.915889 
L 486.023163 72.959958 
L 487.023163 73.000082 
L 488.023163 73.108449 
L 489.023163 73.150077 
L 490.023163 73.212219 
L 491.023163 73.282181 
L 492.023163 73.386685 
L 493.023163 73.423673 
L 494.023163 73.46955 
L 495.023163 73.538045 
L 496.023163 73.586791 
L 497.023163 73.664388 
L 498.023163 73.694929 
L 499.023163 73.764443 
L 500.023163 73.788416 
L 501.023163 73.817038 
L 502.023163 73.858831 
L 503.023163 73.880407 
L 504.023163 73.894355 
L 505.023163 73.921077 
L 506.023163 73.930387 
L 507.023163 73.942834 
L 508.023163 73.953889 
L 509.023163 73.959553 
L 510.023163 73.964317 
L 511.023163 73.958769 
L 512.023163 73.945481 
L 513.023163 73.937964 
L 514.023163 73.913179 
L 515.023163 73.88961 
L 516.023163 73.85343 
L 517.023163 73.827468 
L 518.023163 73.805146 
L 519.023163 73.736386 
L 520.023163 73.661851 
L 521.023163 73.567872 
L 522.023163 73.51682 
L 523.023163 73.462886 
L 524.023163 73.427635 
L 525.023163 73.321547 
L 526.023163 73.269283 
L 527.168959 73.232376 
" clip-path="url(#p6bc7e66b98)" style="fill: none; stroke: #ffffff; stroke-width: 3; stroke-linecap: round"/>
         <path d="M 393.023163 72.964375 
L 394.023163 72.995811 
L 395.023163 73.032752 
L 396.023163 73.130498 
L 397.023163 73.16302 
L 398.023163 73.236645 
L 399.023163 73.27521 
L 400.023163 73.310623 
L 401.023163 73.368263 
L 402.023163 73.438649 
L 403.023163 73.490614 
L 404.023163 73.549703 
L 405.023163 73.638024 
L 406.023163 73.684169 
L 407.023163 73.72658 
L 408.023163 73.757072 
L 409.023163 73.783117 
L 410.023163 73.804317 
L 411.023163 73.858618 
L 412.023163 73.886556 
L 413.023163 73.91628 
L 414.023163 73.941675 
L 415.023163 73.952875 
L 416.023163 73.962999 
L 417.023163 73.962795 
L 418.023163 73.953285 
L 419.023163 73.941631 
L 420.023163 73.910602 
L 421.023163 73.899434 
L 422.023163 73.869317 
L 423.023163 73.80954 
L 424.023163 73.772348 
L 425.023163 73.733252 
L 426.023163 73.690812 
L 427.023163 73.658047 
L 428.023163 73.590621 
L 429.023163 73.551495 
L 430.023163 73.50882 
L 431.023163 73.43824 
L 432.023163 73.401849 
L 433.023163 73.343446 
L 434.023163 73.232493 
L 435.023163 73.161835 
L 436.023163 73.048895 
L 437.023163 73.003122 
L 438.023163 72.941839 
L 439.023163 72.89334 
L 440.023163 72.812517 
L 441.023163 72.693998 
L 442.023163 72.623787 
L 443.023163 72.540525 
L 444.023163 72.507383 
L 445.023163 72.456146 
L 446.023163 72.387747 
L 447.023163 72.321532 
L 448.023163 72.244615 
L 449.023163 72.217299 
L 450.023163 72.190822 
L 451.023163 72.168171 
L 452.023163 72.14864 
L 453.023163 72.122246 
L 454.023163 72.072475 
L 455.023163 72.037402 
L 456.023163 72.001536 
L 457.023163 71.986169 
L 458.023163 71.9704 
L 459.023163 71.966987 
L 460.023163 71.96457 
L 461.023163 71.965056 
L 462.023163 71.966985 
L 463.023163 71.980242 
L 464.023163 71.988633 
L 465.023163 72.010169 
L 466.023163 72.033202 
L 467.023163 72.050435 
L 468.023163 72.068898 
L 469.023163 72.08935 
L 470.023163 72.10595 
L 471.023163 72.168729 
L 472.023163 72.243994 
L 473.023163 72.276633 
L 474.023163 72.344197 
L 475.023163 72.398244 
L 476.023163 72.431948 
L 477.023163 72.522074 
L 478.023163 72.550609 
L 479.023163 72.582095 
L 480.023163 72.613106 
L 481.023163 72.667914 
L 482.023163 72.732501 
L 483.023163 72.770697 
L 484.023163 72.866631 
L 485.023163 72.915889 
L 486.023163 72.959958 
L 487.023163 73.000082 
L 488.023163 73.108449 
L 489.023163 73.150077 
L 490.023163 73.212219 
L 491.023163 73.282181 
L 492.023163 73.386685 
L 493.023163 73.423673 
L 494.023163 73.46955 
L 495.023163 73.538045 
L 496.023163 73.586791 
L 497.023163 73.664388 
L 498.023163 73.694929 
L 499.023163 73.764443 
L 500.023163 73.788416 
L 501.023163 73.817038 
L 502.023163 73.858831 
L 503.023163 73.880407 
L 504.023163 73.894355 
L 505.023163 73.921077 
L 506.023163 73.930387 
L 507.023163 73.942834 
L 508.023163 73.953889 
L 509.023163 73.959553 
L 510.023163 73.964317 
L 511.023163 73.958769 
L 512.023163 73.945481 
L 513.023163 73.937964 
L 514.023163 73.913179 
L 515.023163 73.88961 
L 516.023163 73.85343 
L 517.023163 73.827468 
L 518.023163 73.805146 
L 519.023163 73.736386 
L 520.023163 73.661851 
L 521.023163 73.567872 
L 522.023163 73.51682 
L 523.023163 73.462886 
L 524.023163 73.427635 
L 525.023163 73.321547 
L 526.023163 73.269283 
L 527.168959 73.232376 
" clip-path="url(#p6bc7e66b98)" style="fill: none; stroke: #1f77b4; stroke-linecap: round"/>
         <path d="M 523.168959 70.964375 
L 524.049328 71.439706 
L 524.927235 71.91996 
L 525.777948 72.454601 
L 527.080123 73.142048 
L 526.15277 73.168063 
L 525.241095 73.580783 
L 524.330831 73.996322 
L 522.988335 74.603126 
L 523.643234 73.964375 
L 523.695198 72.964375 
L 523.754288 70.964375 
z
" clip-path="url(#p6bc7e66b98)" style="fill: #ffffff; stroke: #ffffff; stroke-width: 3; stroke-linecap: round"/>
         <path d="M 523.168959 70.964375 
L 524.049328 71.439706 
L 524.927235 71.91996 
L 525.777948 72.454601 
L 527.080123 73.142048 
L 526.15277 73.168063 
L 525.241095 73.580783 
L 524.330831 73.996322 
L 522.988335 74.603126 
L 523.643234 73.964375 
L 523.695198 72.964375 
L 523.754288 70.964375 
z
" clip-path="url(#p6bc7e66b98)" style="fill: #ffffff; stroke: #1f77b4; stroke-linecap: round"/>
         <g id="patch_9">
          <path d="M 210.719664 267.984547 
L 211.719664 268.015983 
L 212.719664 268.052924 
L 213.719664 268.15067 
L 214.719664 268.183192 
L 215.719664 268.256816 
L 216.719664 268.295382 
L 217.719664 268.330795 
L 218.719664 268.388435 
L 219.719664 268.458821 
L 220.719664 268.510785 
L 221.719664 268.569875 
L 222.719664 268.658196 
L 223.719664 268.70434 
L 224.719664 268.746751 
L 225.719664 268.777244 
L 226.719664 268.803289 
L 227.719664 268.824489 
L 228.719664 268.87879 
L 229.719664 268.906728 
L 230.719664 268.936452 
L 231.719664 268.961847 
L 232.719664 268.973047 
L 233.719664 268.983171 
L 234.719664 268.982967 
L 235.719664 268.973457 
L 236.719664 268.961803 
L 237.719664 268.930774 
L 238.719664 268.919606 
L 239.719664 268.889488 
L 240.719664 268.829711 
L 241.719664 268.79252 
L 242.719664 268.753424 
L 243.719664 268.710984 
L 244.719664 268.678219 
L 245.719664 268.610793 
L 246.719664 268.571667 
L 247.719664 268.528992 
L 248.719664 268.458412 
L 249.719664 268.422021 
L 250.719664 268.363618 
L 251.719664 268.252665 
L 252.719664 268.182007 
L 253.719664 268.069067 
L 254.719664 268.023294 
L 255.719664 267.962011 
L 256.719664 267.913511 
L 257.719664 267.832689 
L 258.719664 267.71417 
L 259.719664 267.643959 
L 260.719664 267.560697 
L 261.719664 267.527555 
L 262.719664 267.476318 
L 263.719664 267.407919 
L 264.719664 267.341704 
L 265.719664 267.264787 
L 266.719664 267.237471 
L 267.719664 267.210994 
L 268.719664 267.188343 
L 269.719664 267.168812 
L 270.719664 267.142418 
L 271.719664 267.092647 
L 272.719664 267.057574 
L 273.719664 267.021708 
L 274.719664 267.006341 
L 275.719664 266.990572 
L 276.719664 266.987159 
L 277.719664 266.984741 
L 278.719664 266.985228 
L 279.719664 266.987157 
L 280.719664 267.000414 
L 281.719664 267.008804 
L 282.719664 267.030341 
L 283.719664 267.053373 
L 284.719664 267.070607 
L 285.719664 267.089069 
L 286.719664 267.109522 
L 287.719664 267.126122 
L 288.719664 267.188901 
L 289.719664 267.264166 
L 290.719664 267.296805 
L 291.719664 267.364368 
L 292.719664 267.418415 
L 293.719664 267.45212 
L 294.719664 267.542246 
L 295.719664 267.570781 
L 296.719664 267.602267 
L 297.719664 267.633278 
L 298.719664 267.688086 
L 299.719664 267.752673 
L 300.719664 267.790868 
L 301.719664 267.886803 
L 302.719664 267.936061 
L 303.719664 267.98013 
L 304.719664 268.020254 
L 305.719664 268.128621 
L 306.719664 268.170249 
L 307.719664 268.23239 
L 308.719664 268.302353 
L 309.719664 268.406857 
L 310.719664 268.443845 
L 311.719664 268.489722 
L 312.719664 268.558216 
L 313.719664 268.606962 
L 314.719664 268.68456 
L 315.719664 268.7151 
L 316.719664 268.784615 
L 317.719664 268.808588 
L 318.719664 268.83721 
L 319.719664 268.879003 
L 320.719664 268.900579 
L 321.719664 268.914526 
L 322.719664 268.941249 
L 323.719664 268.950559 
L 324.719664 268.963005 
L 325.719664 268.97406 
L 326.719664 268.979725 
L 327.719664 268.984489 
L 328.719664 268.978941 
L 329.719664 268.965653 
L 330.719664 268.958135 
L 331.719664 268.933351 
L 332.719664 268.909782 
L 333.719664 268.873601 
L 334.719664 268.84764 
L 335.719664 268.825318 
L 336.719664 268.756558 
L 337.719664 268.682023 
L 338.719664 268.588044 
L 339.719664 268.536992 
L 340.719664 268.483058 
L 341.719664 268.447807 
L 342.719664 268.341719 
L 343.719664 268.289455 
L 344.719664 268.252548 
L 345.719664 268.221517 
L 346.719664 268.160362 
L 347.719664 268.092942 
L 348.719664 268.044036 
L 349.719664 267.978844 
L 350.719664 267.940656 
L 351.719664 267.89866 
L 352.719664 267.856643 
L 353.719664 267.797126 
L 354.719664 267.683966 
L 355.719664 267.631716 
L 356.719664 267.592298 
L 357.719664 267.545197 
L 358.719664 267.488417 
L 359.719664 267.455754 
L 360.719664 267.419576 
L 361.719664 267.387485 
L 362.719664 267.353206 
L 363.719664 267.294828 
L 364.719664 267.249643 
L 365.719664 267.220019 
L 366.719664 267.169633 
L 367.719664 267.144435 
L 368.719664 267.123385 
L 369.719664 267.088417 
L 370.719664 267.064127 
L 371.719664 267.05006 
L 372.719664 267.031118 
L 373.719664 267.015456 
L 374.719664 267.002905 
L 375.719664 266.997069 
L 376.719664 266.990186 
L 377.719664 266.985013 
L 378.719664 266.986795 
L 379.719664 266.989521 
L 380.719664 267.000674 
L 381.719664 267.02891 
L 382.719664 267.072698 
L 383.719664 267.093387 
L 384.719664 267.13436 
L 385.719664 267.174435 
L 386.719664 267.193545 
L 387.719664 267.216053 
L 388.719664 267.282705 
L 389.719664 267.332414 
L 390.719664 267.406121 
L 391.719664 267.437435 
L 392.719664 267.514057 
L 393.719664 267.552355 
L 394.719664 267.626472 
L 395.719664 267.73053 
L 396.719664 267.800361 
L 397.719664 267.905594 
L 398.719664 267.96061 
L 399.719664 268.084085 
L 400.719664 268.154644 
L 401.719664 268.270483 
L 402.719664 268.320664 
L 403.719664 268.356268 
L 404.719664 268.447675 
L 405.719664 268.501182 
L 406.719664 268.589091 
L 407.719664 268.658276 
L 408.719664 268.70504 
L 409.719664 268.777084 
L 410.719664 268.827226 
L 411.719664 268.844616 
L 412.719664 268.871619 
L 413.719664 268.891046 
L 414.719664 268.910384 
L 415.719664 268.948633 
L 416.719664 268.965066 
L 417.719664 268.973435 
L 418.719664 268.977754 
L 419.719664 268.984309 
L 420.719664 268.981762 
L 421.719664 268.976304 
L 422.719664 268.959876 
L 423.719664 268.927941 
L 424.719664 268.889961 
L 425.719664 268.855156 
L 426.719664 268.792085 
L 428.504713 268.770658 
" clip-path="url(#p6bc7e66b98)" style="fill: none; stroke: #ffffff; stroke-width: 3; stroke-linecap: round"/>
          <path d="M 210.719664 267.984547 
L 211.719664 268.015983 
L 212.719664 268.052924 
L 213.719664 268.15067 
L 214.719664 268.183192 
L 215.719664 268.256816 
L 216.719664 268.295382 
L 217.719664 268.330795 
L 218.719664 268.388435 
L 219.719664 268.458821 
L 220.719664 268.510785 
L 221.719664 268.569875 
L 222.719664 268.658196 
L 223.719664 268.70434 
L 224.719664 268.746751 
L 225.719664 268.777244 
L 226.719664 268.803289 
L 227.719664 268.824489 
L 228.719664 268.87879 
L 229.719664 268.906728 
L 230.719664 268.936452 
L 231.719664 268.961847 
L 232.719664 268.973047 
L 233.719664 268.983171 
L 234.719664 268.982967 
L 235.719664 268.973457 
L 236.719664 268.961803 
L 237.719664 268.930774 
L 238.719664 268.919606 
L 239.719664 268.889488 
L 240.719664 268.829711 
L 241.719664 268.79252 
L 242.719664 268.753424 
L 243.719664 268.710984 
L 244.719664 268.678219 
L 245.719664 268.610793 
L 246.719664 268.571667 
L 247.719664 268.528992 
L 248.719664 268.458412 
L 249.719664 268.422021 
L 250.719664 268.363618 
L 251.719664 268.252665 
L 252.719664 268.182007 
L 253.719664 268.069067 
L 254.719664 268.023294 
L 255.719664 267.962011 
L 256.719664 267.913511 
L 257.719664 267.832689 
L 258.719664 267.71417 
L 259.719664 267.643959 
L 260.719664 267.560697 
L 261.719664 267.527555 
L 262.719664 267.476318 
L 263.719664 267.407919 
L 264.719664 267.341704 
L 265.719664 267.264787 
L 266.719664 267.237471 
L 267.719664 267.210994 
L 268.719664 267.188343 
L 269.719664 267.168812 
L 270.719664 267.142418 
L 271.719664 267.092647 
L 272.719664 267.057574 
L 273.719664 267.021708 
L 274.719664 267.006341 
L 275.719664 266.990572 
L 276.719664 266.987159 
L 277.719664 266.984741 
L 278.719664 266.985228 
L 279.719664 266.987157 
L 280.719664 267.000414 
L 281.719664 267.008804 
L 282.719664 267.030341 
L 283.719664 267.053373 
L 284.719664 267.070607 
L 285.719664 267.089069 
L 286.719664 267.109522 
L 287.719664 267.126122 
L 288.719664 267.188901 
L 289.719664 267.264166 
L 290.719664 267.296805 
L 291.719664 267.364368 
L 292.719664 267.418415 
L 293.719664 267.45212 
L 294.719664 267.542246 
L 295.719664 267.570781 
L 296.719664 267.602267 
L 297.719664 267.633278 
L 298.719664 267.688086 
L 299.719664 267.752673 
L 300.719664 267.790868 
L 301.719664 267.886803 
L 302.719664 267.936061 
L 303.719664 267.98013 
L 304.719664 268.020254 
L 305.719664 268.128621 
L 306.719664 268.170249 
L 307.719664 268.23239 
L 308.719664 268.302353 
L 309.719664 268.406857 
L 310.719664 268.443845 
L 311.719664 268.489722 
L 312.719664 268.558216 
L 313.719664 268.606962 
L 314.719664 268.68456 
L 315.719664 268.7151 
L 316.719664 268.784615 
L 317.719664 268.808588 
L 318.719664 268.83721 
L 319.719664 268.879003 
L 320.719664 268.900579 
L 321.719664 268.914526 
L 322.719664 268.941249 
L 323.719664 268.950559 
L 324.719664 268.963005 
L 325.719664 268.97406 
L 326.719664 268.979725 
L 327.719664 268.984489 
L 328.719664 268.978941 
L 329.719664 268.965653 
L 330.719664 268.958135 
L 331.719664 268.933351 
L 332.719664 268.909782 
L 333.719664 268.873601 
L 334.719664 268.84764 
L 335.719664 268.825318 
L 336.719664 268.756558 
L 337.719664 268.682023 
L 338.719664 268.588044 
L 339.719664 268.536992 
L 340.719664 268.483058 
L 341.719664 268.447807 
L 342.719664 268.341719 
L 343.719664 268.289455 
L 344.719664 268.252548 
L 345.719664 268.221517 
L 346.719664 268.160362 
L 347.719664 268.092942 
L 348.719664 268.044036 
L 349.719664 267.978844 
L 350.719664 267.940656 
L 351.719664 267.89866 
L 352.719664 267.856643 
L 353.719664 267.797126 
L 354.719664 267.683966 
L 355.719664 267.631716 
L 356.719664 267.592298 
L 357.719664 267.545197 
L 358.719664 267.488417 
L 359.719664 267.455754 
L 360.719664 267.419576 
L 361.719664 267.387485 
L 362.719664 267.353206 
L 363.719664 267.294828 
L 364.719664 267.249643 
L 365.719664 267.220019 
L 366.719664 267.169633 
L 367.719664 267.144435 
L 368.719664 267.123385 
L 369.719664 267.088417 
L 370.719664 267.064127 
L 371.719664 267.05006 
L 372.719664 267.031118 
L 373.719664 267.015456 
L 374.719664 267.002905 
L 375.719664 266.997069 
L 376.719664 266.990186 
L 377.719664 266.985013 
L 378.719664 266.986795 
L 379.719664 266.989521 
L 380.719664 267.000674 
L 381.719664 267.02891 
L 382.719664 267.072698 
L 383.719664 267.093387 
L 384.719664 267.13436 
L 385.719664 267.174435 
L 386.719664 267.193545 
L 387.719664 267.216053 
L 388.719664 267.282705 
L 389.719664 267.332414 
L 390.719664 267.406121 
L 391.719664 267.437435 
L 392.719664 267.514057 
L 393.719664 267.552355 
L 394.719664 267.626472 
L 395.719664 267.73053 
L 396.719664 267.800361 
L 397.719664 267.905594 
L 398.719664 267.96061 
L 399.719664 268.084085 
L 400.719664 268.154644 
L 401.719664 268.270483 
L 402.719664 268.320664 
L 403.719664 268.356268 
L 404.719664 268.447675 
L 405.719664 268.501182 
L 406.719664 268.589091 
L 407.719664 268.658276 
L 408.719664 268.70504 
L 409.719664 268.777084 
L 410.719664 268.827226 
L 411.719664 268.844616 
L 412.719664 268.871619 
L 413.719664 268.891046 
L 414.719664 268.910384 
L 415.719664 268.948633 
L 416.719664 268.965066 
L 417.719664 268.973435 
L 418.719664 268.977754 
L 419.719664 268.984309 
L 420.719664 268.981762 
L 421.719664 268.976304 
L 422.719664 268.959876 
L 423.719664 268.927941 
L 424.719664 268.889961 
L 425.719664 268.855156 
L 426.719664 268.792085 
L 428.504713 268.770658 
" clip-path="url(#p6bc7e66b98)" style="fill: none; stroke: #ff7f0e; stroke-linecap: round"/>
          <path d="M 424.504713 265.984547 
L 425.385081 266.459878 
L 426.262988 266.940132 
L 427.113702 267.474773 
L 428.415876 268.16222 
L 427.488523 268.188235 
L 426.576848 268.600955 
L 425.666584 269.016494 
L 424.324088 269.623298 
L 424.978987 268.984547 
L 425.030951 267.984547 
L 425.090041 265.984547 
z
" clip-path="url(#p6bc7e66b98)" style="fill: #ffffff; stroke: #ffffff; stroke-width: 3; stroke-linecap: round"/>
          <path d="M 424.504713 265.984547 
L 425.385081 266.459878 
L 426.262988 266.940132 
L 427.113702 267.474773 
L 428.415876 268.16222 
L 427.488523 268.188235 
L 426.576848 268.600955 
L 425.666584 269.016494 
L 424.324088 269.623298 
L 424.978987 268.984547 
L 425.030951 267.984547 
L 425.090041 265.984547 
z
" clip-path="url(#p6bc7e66b98)" style="fill: #ffffff; stroke: #ff7f0e; stroke-linecap: round"/>
          <path d="M 450.890215 290.548164 
" clip-path="url(#p6bc7e66b98)" style="fill: none; stroke-dasharray: 3.7,1.6; stroke-dashoffset: 0; stroke: #2ca02c"/>
          <path d="M 449.890215 290.548164 
L 451.890215 291.548164 
L 451.890215 289.548164 
z
" clip-path="url(#p6bc7e66b98)" style="fill: #2ca02c; stroke: #2ca02c; stroke-linejoin: miter"/>
          <g id="patch_10">
           <path d="M 63.290625 321.621875 
L 63.290625 10.8 
" style="fill: none; stroke: #000000; stroke-width: 0.8; stroke-linejoin: miter; stroke-linecap: square"/>
          </g>
          <g id="text_13">
           <g id="patch_11">
            <path d="M 311.793556 126.795433 
L 333.098243 126.795433 
Q 335.098243 126.795433 335.098243 124.795433 
L 335.098243 115.117308 
Q 335.098243 113.117308 333.098243 113.117308 
L 311.793556 113.117308 
Q 309.793556 113.117308 309.793556 115.117308 
L 309.793556 124.795433 
Q 309.793556 126.795433 311.793556 126.795433 
z
" style="fill: #ffffff; opacity: 0.6"/>
           </g>
           <!-- ANC -->
           <g transform="translate(311.793556 122.715746) scale(0.1 -0.1)">
            <defs>
             <path id="DejaVuSans-4e" d="M 628 4666 
L 1478 4666 
L 3547 763 
L 3547 4666 
L 4159 4666 
L 4159 0 
L 3309 0 
L 1241 3903 
L 1241 0 
L 628 0 
L 628 4666 
z
" transform="scale(0.015625)"/>
            </defs>
            <use xlink:href="#DejaVuSans-41"/>
            <use xlink:href="#DejaVuSans-4e" x="68.408203"/>
            <use xlink:href="#DejaVuSans-43" x="143.212891"/>
           </g>
          </g>
         </g>
        </g>
        <defs>
         <clipPath id="p6bc7e66b98">
          <rect x="63.290625" y="10.8" width="540.309375" height="310.821875"/>
         </clipPath>
        </defs>
       </g>
      </g>
     </g>
    </g>
   </g>
  </g>
 </g>
</svg>
