<?xml version="1.0" encoding="utf-8" standalone="no"?>
<!DOCTYPE svg PUBLIC "-//W3C//DTD SVG 1.1//EN"
  "http://www.w3.org/Graphics/SVG/1.1/DTD/svg11.dtd">
<svg xmlns:xlink="http://www.w3.org/1999/xlink" width="614.4pt" height="345.6pt" viewBox="0 0 614.4 345.6" xmlns="http://www.w3.org/2000/svg" version="1.1">
 <metadata>
  <rdf:RDF xmlns:dc="http://purl.org/dc/elements/1.1/" xmlns:cc="http://creativecommons.org/ns#" xmlns:rdf="http://www.w3.org/1999/02/22-rdf-syntax-ns#">
   <cc:Work>
    <dc:type rdf:resource="http://purl.org/dc/dcmitype/StillImage"/>
    <dc:date>2024-04-17T19:48:36.590092</dc:date>
    <dc:format>image/svg+xml</dc:format>
    <dc:creator>
     <cc:Agent>
      <dc:title>Matplotlib v3.7.1, https://matplotlib.org/</dc:title>
     </cc:Agent>
    </dc:creator>
   </cc:Work>
  </rdf:RDF>
 </metadata>
 <defs>
  <style type="text/css">*{stroke-linejoin: round; stroke-linecap: butt}</style>
 </defs>
 <g id="figure_1">
  <g id="patch_1">
   <path d="M 0 345.6 
L 614.4 345.6 
L 614.4 0 
L 0 0 
z
" style="fill: #ffffff"/>
  </g>
  <g id="axes_1">
   <g id="patch_2">
    <path d="M 63.290625 321.621875 
L 603.6 321.621875 
L 603.6 10.8 
L 63.290625 10.8 
z
" style="fill: #ffffff"/>
   </g>
   <path d="M 513.423039 304.463661 
L 512.423039 304.432224 
L 511.423039 304.395284 
L 510.423039 304.297537 
L 509.423039 304.265016 
L 508.423039 304.191391 
L 507.423039 304.152825 
L 506.423039 304.117412 
L 505.423039 304.059772 
L 504.423039 303.989386 
L 503.423039 303.937422 
L 502.423039 303.878332 
L 501.423039 303.790011 
L 500.423039 303.743867 
L 499.423039 303.701456 
L 498.423039 303.670963 
L 497.423039 303.644918 
L 496.423039 303.623718 
L 495.423039 303.569417 
L 494.423039 303.541479 
L 493.423039 303.511756 
L 492.423039 303.486361 
L 491.423039 303.47516 
L 490.423039 303.465036 
L 489.423039 303.465241 
L 488.423039 303.474751 
L 487.423039 303.486404 
L 486.423039 303.517433 
L 485.423039 303.528601 
L 484.423039 303.558719 
L 483.423039 303.618496 
L 482.423039 303.655687 
L 481.423039 303.694783 
L 480.423039 303.737223 
L 479.423039 303.769988 
L 478.423039 303.837415 
L 477.423039 303.876541 
L 476.423039 303.919215 
L 475.423039 303.989796 
L 474.423039 304.026187 
L 473.423039 304.08459 
L 472.423039 304.195542 
L 471.423039 304.266201 
L 470.423039 304.37914 
L 469.423039 304.424913 
L 468.423039 304.486197 
L 467.423039 304.534696 
L 466.423039 304.615519 
L 465.423039 304.734038 
L 464.423039 304.804248 
L 463.423039 304.887511 
L 462.423039 304.920652 
L 461.423039 304.97189 
L 460.423039 305.040288 
L 459.423039 305.106503 
L 458.423039 305.183421 
L 457.423039 305.210736 
L 456.423039 305.237214 
L 455.423039 305.259864 
L 454.423039 305.279395 
L 453.423039 305.305789 
L 452.423039 305.35556 
L 451.423039 305.390633 
L 450.423039 305.426499 
L 449.423039 305.441866 
L 448.423039 305.457636 
L 447.423039 305.461048 
L 446.423039 305.463466 
L 445.423039 305.46298 
L 444.423039 305.46105 
L 443.21896 305.447793 
" clip-path="url(#pb3c668ae3e)" style="fill: none; stroke-dasharray: 3.7,1.6; stroke-dashoffset: 0; stroke: #2ca02c"/>
   <g id="patch_3">
    <path d="M 239.683796 10.8 
L 239.683796 203.768438 
M 380.690982 10.8 
L 380.690982 203.768438 
" clip-path="url(#pb3c668ae3e)" style="fill: none; stroke: #ffffff; stroke-width: 3; stroke-linejoin: miter"/>
    <path d="M 239.683796 10.8 
L 239.683796 203.768438 
M 380.690982 10.8 
L 380.690982 203.768438 
" clip-path="url(#pb3c668ae3e)" style="fill: none; stroke: #1f77b4; stroke-linejoin: miter"/>
    <g id="PolyCollection_1">
     <path d="M 380.690982 10.8 
L 239.683796 10.8 
L 239.683796 203.768438 
L 380.690982 203.768438 
L 380.690982 203.768438 
L 380.690982 10.8 
z
" clip-path="url(#pb3c668ae3e)" style="fill: #1f77b4; fill-opacity: 0.5"/>
    </g>
    <g id="patch_4">
     <path d="M 87.850142 203.768438 
L 87.850142 321.621875 
M 174.405758 203.768438 
L 174.405758 321.621875 
" clip-path="url(#pb3c668ae3e)" style="fill: none; stroke: #ffffff; stroke-width: 3; stroke-linejoin: miter"/>
     <path d="M 87.850142 203.768438 
L 87.850142 321.621875 
M 174.405758 203.768438 
L 174.405758 321.621875 
" clip-path="url(#pb3c668ae3e)" style="fill: none; stroke: #ff7f0e; stroke-linejoin: miter"/>
     <g id="PolyCollection_2">
      <path d="M 174.405758 203.768438 
L 87.850142 203.768438 
L 87.850142 321.621875 
L 174.405758 321.621875 
L 174.405758 321.621875 
L 174.405758 203.768438 
z
" clip-path="url(#pb3c668ae3e)" style="fill: #ff7f0e; fill-opacity: 0.5"/>
     </g>
     <g id="patch_5">
      <path d="M 518.826133 72.964375 
L 518.826133 321.621875 
M 579.040483 72.964375 
L 579.040483 321.621875 
" clip-path="url(#pb3c668ae3e)" style="fill: none; stroke: #ffffff; stroke-width: 3; stroke-linejoin: miter"/>
      <path d="M 518.826133 72.964375 
L 518.826133 321.621875 
M 579.040483 72.964375 
L 579.040483 321.621875 
" clip-path="url(#pb3c668ae3e)" style="fill: none; stroke: #2ca02c; stroke-linejoin: miter"/>
      <g id="PolyCollection_3">
       <path d="M 579.040483 72.964375 
L 518.826133 72.964375 
L 518.826133 321.621875 
L 579.040483 321.621875 
L 579.040483 321.621875 
L 579.040483 72.964375 
z
" clip-path="url(#pb3c668ae3e)" style="fill: #2ca02c; fill-opacity: 0.5"/>
      </g>
      <g id="patch_6">
       <path d="M 421.304831 253.521796 
L 421.304831 321.621875 
M 437.815866 253.521796 
L 437.815866 321.621875 
" clip-path="url(#pb3c668ae3e)" style="fill: none; stroke: #ffffff; stroke-width: 3; stroke-linejoin: miter"/>
       <path d="M 421.304831 253.521796 
L 421.304831 321.621875 
M 437.815866 253.521796 
L 437.815866 321.621875 
" clip-path="url(#pb3c668ae3e)" style="fill: none; stroke: #d62728; stroke-linejoin: miter"/>
       <g id="PolyCollection_4">
        <path d="M 437.815866 253.521796 
L 421.304831 253.521796 
L 421.304831 321.621875 
L 437.815866 321.621875 
L 437.815866 321.621875 
L 437.815866 253.521796 
z
" clip-path="url(#pb3c668ae3e)" style="fill: #d62728; fill-opacity: 0.5"/>
       </g>
       <g id="matplotlib.axis_1">
        <g id="xtick_1">
         <g id="line2d_1"/>
         <g id="text_1">
          <!-- OUT -->
          <g transform="translate(120.478731 332.720312) scale(0.1 -0.1)">
           <defs>
            <path id="DejaVuSans-4f" d="M 2522 4238 
Q 1834 4238 1429 3725 
Q 1025 3213 1025 2328 
Q 1025 1447 1429 934 
Q 1834 422 2522 422 
Q 3209 422 3611 934 
Q 4013 1447 4013 2328 
Q 4013 3213 3611 3725 
Q 3209 4238 2522 4238 
z
M 2522 4750 
Q 3503 4750 4090 4092 
Q 4678 3434 4678 2328 
Q 4678 1225 4090 567 
Q 3503 -91 2522 -91 
Q 1538 -91 948 565 
Q 359 1222 359 2328 
Q 359 3434 948 4092 
Q 1538 4750 2522 4750 
z
" transform="scale(0.015625)"/>
            <path id="DejaVuSans-55" d="M 556 4666 
L 1191 4666 
L 1191 1831 
Q 1191 1081 1462 751 
Q 1734 422 2344 422 
Q 2950 422 3222 751 
Q 3494 1081 3494 1831 
L 3494 4666 
L 4128 4666 
L 4128 1753 
Q 4128 841 3676 375 
Q 3225 -91 2344 -91 
Q 1459 -91 1007 375 
Q 556 841 556 1753 
L 556 4666 
z
" transform="scale(0.015625)"/>
            <path id="DejaVuSans-54" d="M -19 4666 
L 3928 4666 
L 3928 4134 
L 2272 4134 
L 2272 0 
L 1638 0 
L 1638 4134 
L -19 4134 
L -19 4666 
z
" transform="scale(0.015625)"/>
           </defs>
           <use xlink:href="#DejaVuSans-4f"/>
           <use xlink:href="#DejaVuSans-55" x="78.710938"/>
           <use xlink:href="#DejaVuSans-54" x="151.904297"/>
          </g>
         </g>
        </g>
        <g id="xtick_2">
         <g id="line2d_2"/>
         <g id="text_2">
          <!-- SRC -->
          <g transform="translate(539.043464 332.720312) scale(0.1 -0.1)">
           <defs>
            <path id="DejaVuSans-53" d="M 3425 4513 
L 3425 3897 
Q 3066 4069 2747 4153 
Q 2428 4238 2131 4238 
Q 1616 4238 1336 4038 
Q 1056 3838 1056 3469 
Q 1056 3159 1242 3001 
Q 1428 2844 1947 2747 
L 2328 2669 
Q 3034 2534 3370 2195 
Q 3706 1856 3706 1288 
Q 3706 609 3251 259 
Q 2797 -91 1919 -91 
Q 1588 -91 1214 -16 
Q 841 59 441 206 
L 441 856 
Q 825 641 1194 531 
Q 1563 422 1919 422 
Q 2459 422 2753 634 
Q 3047 847 3047 1241 
Q 3047 1584 2836 1778 
Q 2625 1972 2144 2069 
L 1759 2144 
Q 1053 2284 737 2584 
Q 422 2884 422 3419 
Q 422 4038 858 4394 
Q 1294 4750 2059 4750 
Q 2388 4750 2728 4690 
Q 3069 4631 3425 4513 
z
" transform="scale(0.015625)"/>
            <path id="DejaVuSans-52" d="M 2841 2188 
Q 3044 2119 3236 1894 
Q 3428 1669 3622 1275 
L 4263 0 
L 3584 0 
L 2988 1197 
Q 2756 1666 2539 1819 
Q 2322 1972 1947 1972 
L 1259 1972 
L 1259 0 
L 628 0 
L 628 4666 
L 2053 4666 
Q 2853 4666 3247 4331 
Q 3641 3997 3641 3322 
Q 3641 2881 3436 2590 
Q 3231 2300 2841 2188 
z
M 1259 4147 
L 1259 2491 
L 2053 2491 
Q 2509 2491 2742 2702 
Q 2975 2913 2975 3322 
Q 2975 3731 2742 3939 
Q 2509 4147 2053 4147 
L 1259 4147 
z
" transform="scale(0.015625)"/>
            <path id="DejaVuSans-43" d="M 4122 4306 
L 4122 3641 
Q 3803 3938 3442 4084 
Q 3081 4231 2675 4231 
Q 1875 4231 1450 3742 
Q 1025 3253 1025 2328 
Q 1025 1406 1450 917 
Q 1875 428 2675 428 
Q 3081 428 3442 575 
Q 3803 722 4122 1019 
L 4122 359 
Q 3791 134 3420 21 
Q 3050 -91 2638 -91 
Q 1578 -91 968 557 
Q 359 1206 359 2328 
Q 359 3453 968 4101 
Q 1578 4750 2638 4750 
Q 3056 4750 3426 4639 
Q 3797 4528 4122 4306 
z
" transform="scale(0.015625)"/>
           </defs>
           <use xlink:href="#DejaVuSans-53"/>
           <use xlink:href="#DejaVuSans-52" x="63.476562"/>
           <use xlink:href="#DejaVuSans-43" x="127.958984"/>
          </g>
         </g>
        </g>
        <g id="xtick_3">
         <g id="line2d_3"/>
         <g id="text_3">
          <!-- TAR -->
          <g transform="translate(419.999411 332.720312) scale(0.1 -0.1)">
           <defs>
            <path id="DejaVuSans-41" d="M 2188 4044 
L 1331 1722 
L 3047 1722 
L 2188 4044 
z
M 1831 4666 
L 2547 4666 
L 4325 0 
L 3669 0 
L 3244 1197 
L 1141 1197 
L 716 0 
L 50 0 
L 1831 4666 
z
" transform="scale(0.015625)"/>
           </defs>
           <use xlink:href="#DejaVuSans-54"/>
           <use xlink:href="#DejaVuSans-41" x="53.333984"/>
           <use xlink:href="#DejaVuSans-52" x="121.742188"/>
          </g>
         </g>
        </g>
       </g>
       <g id="matplotlib.axis_2">
        <g id="ytick_1">
         <g id="line2d_4">
          <defs>
           <path id="mdd44dc2c77" d="M 0 0 
L -3.5 0 
" style="stroke: #000000; stroke-width: 0.8"/>
          </defs>
          <g>
           <use xlink:href="#mdd44dc2c77" x="63.290625" y="321.621875" style="stroke: #000000; stroke-width: 0.8"/>
          </g>
         </g>
         <g id="text_4">
          <!-- 0 -->
          <g transform="translate(49.928125 325.421094) scale(0.1 -0.1)">
           <defs>
            <path id="DejaVuSans-30" d="M 2034 4250 
Q 1547 4250 1301 3770 
Q 1056 3291 1056 2328 
Q 1056 1369 1301 889 
Q 1547 409 2034 409 
Q 2525 409 2770 889 
Q 3016 1369 3016 2328 
Q 3016 3291 2770 3770 
Q 2525 4250 2034 4250 
z
M 2034 4750 
Q 2819 4750 3233 4129 
Q 3647 3509 3647 2328 
Q 3647 1150 3233 529 
Q 2819 -91 2034 -91 
Q 1250 -91 836 529 
Q 422 1150 422 2328 
Q 422 3509 836 4129 
Q 1250 4750 2034 4750 
z
" transform="scale(0.015625)"/>
           </defs>
           <use xlink:href="#DejaVuSans-30"/>
          </g>
         </g>
        </g>
        <g id="ytick_2">
         <g id="line2d_5">
          <g>
           <use xlink:href="#mdd44dc2c77" x="63.290625" y="253.316881" style="stroke: #000000; stroke-width: 0.8"/>
          </g>
         </g>
         <g id="text_5">
          <!-- 5000 -->
          <g transform="translate(30.840625 257.1161) scale(0.1 -0.1)">
           <defs>
            <path id="DejaVuSans-35" d="M 691 4666 
L 3169 4666 
L 3169 4134 
L 1269 4134 
L 1269 2991 
Q 1406 3038 1543 3061 
Q 1681 3084 1819 3084 
Q 2600 3084 3056 2656 
Q 3513 2228 3513 1497 
Q 3513 744 3044 326 
Q 2575 -91 1722 -91 
Q 1428 -91 1123 -41 
Q 819 9 494 109 
L 494 744 
Q 775 591 1075 516 
Q 1375 441 1709 441 
Q 2250 441 2565 725 
Q 2881 1009 2881 1497 
Q 2881 1984 2565 2268 
Q 2250 2553 1709 2553 
Q 1456 2553 1204 2497 
Q 953 2441 691 2322 
L 691 4666 
z
" transform="scale(0.015625)"/>
           </defs>
           <use xlink:href="#DejaVuSans-35"/>
           <use xlink:href="#DejaVuSans-30" x="63.623047"/>
           <use xlink:href="#DejaVuSans-30" x="127.246094"/>
           <use xlink:href="#DejaVuSans-30" x="190.869141"/>
          </g>
         </g>
        </g>
        <g id="ytick_3">
         <g id="line2d_6">
          <g>
           <use xlink:href="#mdd44dc2c77" x="63.290625" y="185.011887" style="stroke: #000000; stroke-width: 0.8"/>
          </g>
         </g>
         <g id="text_6">
          <!-- 10000 -->
          <g transform="translate(24.478125 188.811106) scale(0.1 -0.1)">
           <defs>
            <path id="DejaVuSans-31" d="M 794 531 
L 1825 531 
L 1825 4091 
L 703 3866 
L 703 4441 
L 1819 4666 
L 2450 4666 
L 2450 531 
L 3481 531 
L 3481 0 
L 794 0 
L 794 531 
z
" transform="scale(0.015625)"/>
           </defs>
           <use xlink:href="#DejaVuSans-31"/>
           <use xlink:href="#DejaVuSans-30" x="63.623047"/>
           <use xlink:href="#DejaVuSans-30" x="127.246094"/>
           <use xlink:href="#DejaVuSans-30" x="190.869141"/>
           <use xlink:href="#DejaVuSans-30" x="254.492188"/>
          </g>
         </g>
        </g>
        <g id="ytick_4">
         <g id="line2d_7">
          <g>
           <use xlink:href="#mdd44dc2c77" x="63.290625" y="116.706893" style="stroke: #000000; stroke-width: 0.8"/>
          </g>
         </g>
         <g id="text_7">
          <!-- 15000 -->
          <g transform="translate(24.478125 120.506112) scale(0.1 -0.1)">
           <use xlink:href="#DejaVuSans-31"/>
           <use xlink:href="#DejaVuSans-35" x="63.623047"/>
           <use xlink:href="#DejaVuSans-30" x="127.246094"/>
           <use xlink:href="#DejaVuSans-30" x="190.869141"/>
           <use xlink:href="#DejaVuSans-30" x="254.492188"/>
          </g>
         </g>
        </g>
        <g id="ytick_5">
         <g id="line2d_8">
          <g>
           <use xlink:href="#mdd44dc2c77" x="63.290625" y="48.401899" style="stroke: #000000; stroke-width: 0.8"/>
          </g>
         </g>
         <g id="text_8">
          <!-- 20000 -->
          <g transform="translate(24.478125 52.201118) scale(0.1 -0.1)">
           <defs>
            <path id="DejaVuSans-32" d="M 1228 531 
L 3431 531 
L 3431 0 
L 469 0 
L 469 531 
Q 828 903 1448 1529 
Q 2069 2156 2228 2338 
Q 2531 2678 2651 2914 
Q 2772 3150 2772 3378 
Q 2772 3750 2511 3984 
Q 2250 4219 1831 4219 
Q 1534 4219 1204 4116 
Q 875 4013 500 3803 
L 500 4441 
Q 881 4594 1212 4672 
Q 1544 4750 1819 4750 
Q 2544 4750 2975 4387 
Q 3406 4025 3406 3419 
Q 3406 3131 3298 2873 
Q 3191 2616 2906 2266 
Q 2828 2175 2409 1742 
Q 1991 1309 1228 531 
z
" transform="scale(0.015625)"/>
           </defs>
           <use xlink:href="#DejaVuSans-32"/>
           <use xlink:href="#DejaVuSans-30" x="63.623047"/>
           <use xlink:href="#DejaVuSans-30" x="127.246094"/>
           <use xlink:href="#DejaVuSans-30" x="190.869141"/>
           <use xlink:href="#DejaVuSans-30" x="254.492188"/>
          </g>
         </g>
        </g>
        <g id="text_9">
         <!-- time ago (generations) -->
         <g transform="translate(18.398438 223.682031) rotate(-90) scale(0.1 -0.1)">
          <defs>
           <path id="DejaVuSans-74" d="M 1172 4494 
L 1172 3500 
L 2356 3500 
L 2356 3053 
L 1172 3053 
L 1172 1153 
Q 1172 725 1289 603 
Q 1406 481 1766 481 
L 2356 481 
L 2356 0 
L 1766 0 
Q 1100 0 847 248 
Q 594 497 594 1153 
L 594 3053 
L 172 3053 
L 172 3500 
L 594 3500 
L 594 4494 
L 1172 4494 
z
" transform="scale(0.015625)"/>
           <path id="DejaVuSans-69" d="M 603 3500 
L 1178 3500 
L 1178 0 
L 603 0 
L 603 3500 
z
M 603 4863 
L 1178 4863 
L 1178 4134 
L 603 4134 
L 603 4863 
z
" transform="scale(0.015625)"/>
           <path id="DejaVuSans-6d" d="M 3328 2828 
Q 3544 3216 3844 3400 
Q 4144 3584 4550 3584 
Q 5097 3584 5394 3201 
Q 5691 2819 5691 2113 
L 5691 0 
L 5113 0 
L 5113 2094 
Q 5113 2597 4934 2840 
Q 4756 3084 4391 3084 
Q 3944 3084 3684 2787 
Q 3425 2491 3425 1978 
L 3425 0 
L 2847 0 
L 2847 2094 
Q 2847 2600 2669 2842 
Q 2491 3084 2119 3084 
Q 1678 3084 1418 2786 
Q 1159 2488 1159 1978 
L 1159 0 
L 581 0 
L 581 3500 
L 1159 3500 
L 1159 2956 
Q 1356 3278 1631 3431 
Q 1906 3584 2284 3584 
Q 2666 3584 2933 3390 
Q 3200 3197 3328 2828 
z
" transform="scale(0.015625)"/>
           <path id="DejaVuSans-65" d="M 3597 1894 
L 3597 1613 
L 953 1613 
Q 991 1019 1311 708 
Q 1631 397 2203 397 
Q 2534 397 2845 478 
Q 3156 559 3463 722 
L 3463 178 
Q 3153 47 2828 -22 
Q 2503 -91 2169 -91 
Q 1331 -91 842 396 
Q 353 884 353 1716 
Q 353 2575 817 3079 
Q 1281 3584 2069 3584 
Q 2775 3584 3186 3129 
Q 3597 2675 3597 1894 
z
M 3022 2063 
Q 3016 2534 2758 2815 
Q 2500 3097 2075 3097 
Q 1594 3097 1305 2825 
Q 1016 2553 972 2059 
L 3022 2063 
z
" transform="scale(0.015625)"/>
           <path id="DejaVuSans-20" transform="scale(0.015625)"/>
           <path id="DejaVuSans-61" d="M 2194 1759 
Q 1497 1759 1228 1600 
Q 959 1441 959 1056 
Q 959 750 1161 570 
Q 1363 391 1709 391 
Q 2188 391 2477 730 
Q 2766 1069 2766 1631 
L 2766 1759 
L 2194 1759 
z
M 3341 1997 
L 3341 0 
L 2766 0 
L 2766 531 
Q 2569 213 2275 61 
Q 1981 -91 1556 -91 
Q 1019 -91 701 211 
Q 384 513 384 1019 
Q 384 1609 779 1909 
Q 1175 2209 1959 2209 
L 2766 2209 
L 2766 2266 
Q 2766 2663 2505 2880 
Q 2244 3097 1772 3097 
Q 1472 3097 1187 3025 
Q 903 2953 641 2809 
L 641 3341 
Q 956 3463 1253 3523 
Q 1550 3584 1831 3584 
Q 2591 3584 2966 3190 
Q 3341 2797 3341 1997 
z
" transform="scale(0.015625)"/>
           <path id="DejaVuSans-67" d="M 2906 1791 
Q 2906 2416 2648 2759 
Q 2391 3103 1925 3103 
Q 1463 3103 1205 2759 
Q 947 2416 947 1791 
Q 947 1169 1205 825 
Q 1463 481 1925 481 
Q 2391 481 2648 825 
Q 2906 1169 2906 1791 
z
M 3481 434 
Q 3481 -459 3084 -895 
Q 2688 -1331 1869 -1331 
Q 1566 -1331 1297 -1286 
Q 1028 -1241 775 -1147 
L 775 -588 
Q 1028 -725 1275 -790 
Q 1522 -856 1778 -856 
Q 2344 -856 2625 -561 
Q 2906 -266 2906 331 
L 2906 616 
Q 2728 306 2450 153 
Q 2172 0 1784 0 
Q 1141 0 747 490 
Q 353 981 353 1791 
Q 353 2603 747 3093 
Q 1141 3584 1784 3584 
Q 2172 3584 2450 3431 
Q 2728 3278 2906 2969 
L 2906 3500 
L 3481 3500 
L 3481 434 
z
" transform="scale(0.015625)"/>
           <path id="DejaVuSans-6f" d="M 1959 3097 
Q 1497 3097 1228 2736 
Q 959 2375 959 1747 
Q 959 1119 1226 758 
Q 1494 397 1959 397 
Q 2419 397 2687 759 
Q 2956 1122 2956 1747 
Q 2956 2369 2687 2733 
Q 2419 3097 1959 3097 
z
M 1959 3584 
Q 2709 3584 3137 3096 
Q 3566 2609 3566 1747 
Q 3566 888 3137 398 
Q 2709 -91 1959 -91 
Q 1206 -91 779 398 
Q 353 888 353 1747 
Q 353 2609 779 3096 
Q 1206 3584 1959 3584 
z
" transform="scale(0.015625)"/>
           <path id="DejaVuSans-28" d="M 1984 4856 
Q 1566 4138 1362 3434 
Q 1159 2731 1159 2009 
Q 1159 1288 1364 580 
Q 1569 -128 1984 -844 
L 1484 -844 
Q 1016 -109 783 600 
Q 550 1309 550 2009 
Q 550 2706 781 3412 
Q 1013 4119 1484 4856 
L 1984 4856 
z
" transform="scale(0.015625)"/>
           <path id="DejaVuSans-6e" d="M 3513 2113 
L 3513 0 
L 2938 0 
L 2938 2094 
Q 2938 2591 2744 2837 
Q 2550 3084 2163 3084 
Q 1697 3084 1428 2787 
Q 1159 2491 1159 1978 
L 1159 0 
L 581 0 
L 581 3500 
L 1159 3500 
L 1159 2956 
Q 1366 3272 1645 3428 
Q 1925 3584 2291 3584 
Q 2894 3584 3203 3211 
Q 3513 2838 3513 2113 
z
" transform="scale(0.015625)"/>
           <path id="DejaVuSans-72" d="M 2631 2963 
Q 2534 3019 2420 3045 
Q 2306 3072 2169 3072 
Q 1681 3072 1420 2755 
Q 1159 2438 1159 1844 
L 1159 0 
L 581 0 
L 581 3500 
L 1159 3500 
L 1159 2956 
Q 1341 3275 1631 3429 
Q 1922 3584 2338 3584 
Q 2397 3584 2469 3576 
Q 2541 3569 2628 3553 
L 2631 2963 
z
" transform="scale(0.015625)"/>
           <path id="DejaVuSans-73" d="M 2834 3397 
L 2834 2853 
Q 2591 2978 2328 3040 
Q 2066 3103 1784 3103 
Q 1356 3103 1142 2972 
Q 928 2841 928 2578 
Q 928 2378 1081 2264 
Q 1234 2150 1697 2047 
L 1894 2003 
Q 2506 1872 2764 1633 
Q 3022 1394 3022 966 
Q 3022 478 2636 193 
Q 2250 -91 1575 -91 
Q 1294 -91 989 -36 
Q 684 19 347 128 
L 347 722 
Q 666 556 975 473 
Q 1284 391 1588 391 
Q 1994 391 2212 530 
Q 2431 669 2431 922 
Q 2431 1156 2273 1281 
Q 2116 1406 1581 1522 
L 1381 1569 
Q 847 1681 609 1914 
Q 372 2147 372 2553 
Q 372 3047 722 3315 
Q 1072 3584 1716 3584 
Q 2034 3584 2315 3537 
Q 2597 3491 2834 3397 
z
" transform="scale(0.015625)"/>
           <path id="DejaVuSans-29" d="M 513 4856 
L 1013 4856 
Q 1481 4119 1714 3412 
Q 1947 2706 1947 2009 
Q 1947 1309 1714 600 
Q 1481 -109 1013 -844 
L 513 -844 
Q 928 -128 1133 580 
Q 1338 1288 1338 2009 
Q 1338 2731 1133 3434 
Q 928 4138 513 4856 
z
" transform="scale(0.015625)"/>
          </defs>
          <use xlink:href="#DejaVuSans-74"/>
          <use xlink:href="#DejaVuSans-69" x="39.208984"/>
          <use xlink:href="#DejaVuSans-6d" x="66.992188"/>
          <use xlink:href="#DejaVuSans-65" x="164.404297"/>
          <use xlink:href="#DejaVuSans-20" x="225.927734"/>
          <use xlink:href="#DejaVuSans-61" x="257.714844"/>
          <use xlink:href="#DejaVuSans-67" x="318.994141"/>
          <use xlink:href="#DejaVuSans-6f" x="382.470703"/>
          <use xlink:href="#DejaVuSans-20" x="443.652344"/>
          <use xlink:href="#DejaVuSans-28" x="475.439453"/>
          <use xlink:href="#DejaVuSans-67" x="514.453125"/>
          <use xlink:href="#DejaVuSans-65" x="577.929688"/>
          <use xlink:href="#DejaVuSans-6e" x="639.453125"/>
          <use xlink:href="#DejaVuSans-65" x="702.832031"/>
          <use xlink:href="#DejaVuSans-72" x="764.355469"/>
          <use xlink:href="#DejaVuSans-61" x="805.46875"/>
          <use xlink:href="#DejaVuSans-74" x="866.748047"/>
          <use xlink:href="#DejaVuSans-69" x="905.957031"/>
          <use xlink:href="#DejaVuSans-6f" x="933.740234"/>
          <use xlink:href="#DejaVuSans-6e" x="994.921875"/>
          <use xlink:href="#DejaVuSans-73" x="1058.300781"/>
          <use xlink:href="#DejaVuSans-29" x="1110.400391"/>
         </g>
        </g>
       </g>
       <g id="patch_7">
        <path d="M 237.687684 203.768438 
L 236.687684 203.737002 
L 235.687684 203.700062 
L 234.687684 203.602315 
L 233.687684 203.569794 
L 232.687684 203.496169 
L 231.687684 203.457603 
L 230.687684 203.42219 
L 229.687684 203.36455 
L 228.687684 203.294164 
L 227.687684 203.2422 
L 226.687684 203.18311 
L 225.687684 203.094789 
L 224.687684 203.048645 
L 223.687684 203.006234 
L 222.687684 202.975741 
L 221.687684 202.949696 
L 220.687684 202.928496 
L 219.687684 202.874195 
L 218.687684 202.846257 
L 217.687684 202.816533 
L 216.687684 202.791139 
L 215.687684 202.779938 
L 214.687684 202.769814 
L 213.687684 202.770019 
L 212.687684 202.779529 
L 211.687684 202.791182 
L 210.687684 202.822211 
L 209.687684 202.833379 
L 208.687684 202.863497 
L 207.687684 202.923274 
L 206.687684 202.960465 
L 205.687684 202.999561 
L 204.687684 203.042001 
L 203.687684 203.074766 
L 202.687684 203.142193 
L 201.687684 203.181318 
L 200.687684 203.223993 
L 199.687684 203.294574 
L 198.687684 203.330964 
L 197.687684 203.389368 
L 196.687684 203.50032 
L 195.687684 203.570979 
L 194.687684 203.683918 
L 193.687684 203.729691 
L 192.687684 203.790975 
L 191.687684 203.839474 
L 190.687684 203.920297 
L 189.687684 204.038815 
L 188.687684 204.109026 
L 187.687684 204.192289 
L 186.687684 204.22543 
L 185.687684 204.276668 
L 184.687684 204.345066 
L 183.687684 204.411281 
L 182.687684 204.488198 
L 181.687684 204.515514 
L 180.687684 204.541991 
L 179.687684 204.564642 
L 178.687684 204.584173 
L 177.520664 204.610567 
" clip-path="url(#pb3c668ae3e)" style="fill: none; stroke: #ffffff; stroke-width: 3; stroke-linecap: round"/>
        <path d="M 237.687684 203.768438 
L 236.687684 203.737002 
L 235.687684 203.700062 
L 234.687684 203.602315 
L 233.687684 203.569794 
L 232.687684 203.496169 
L 231.687684 203.457603 
L 230.687684 203.42219 
L 229.687684 203.36455 
L 228.687684 203.294164 
L 227.687684 203.2422 
L 226.687684 203.18311 
L 225.687684 203.094789 
L 224.687684 203.048645 
L 223.687684 203.006234 
L 222.687684 202.975741 
L 221.687684 202.949696 
L 220.687684 202.928496 
L 219.687684 202.874195 
L 218.687684 202.846257 
L 217.687684 202.816533 
L 216.687684 202.791139 
L 215.687684 202.779938 
L 214.687684 202.769814 
L 213.687684 202.770019 
L 212.687684 202.779529 
L 211.687684 202.791182 
L 210.687684 202.822211 
L 209.687684 202.833379 
L 208.687684 202.863497 
L 207.687684 202.923274 
L 206.687684 202.960465 
L 205.687684 202.999561 
L 204.687684 203.042001 
L 203.687684 203.074766 
L 202.687684 203.142193 
L 201.687684 203.181318 
L 200.687684 203.223993 
L 199.687684 203.294574 
L 198.687684 203.330964 
L 197.687684 203.389368 
L 196.687684 203.50032 
L 195.687684 203.570979 
L 194.687684 203.683918 
L 193.687684 203.729691 
L 192.687684 203.790975 
L 191.687684 203.839474 
L 190.687684 203.920297 
L 189.687684 204.038815 
L 188.687684 204.109026 
L 187.687684 204.192289 
L 186.687684 204.22543 
L 185.687684 204.276668 
L 184.687684 204.345066 
L 183.687684 204.411281 
L 182.687684 204.488198 
L 181.687684 204.515514 
L 180.687684 204.541991 
L 179.687684 204.564642 
L 178.687684 204.584173 
L 177.520664 204.610567 
" clip-path="url(#pb3c668ae3e)" style="fill: none; stroke: #1f77b4; stroke-linecap: round"/>
        <path d="M 181.520664 205.768438 
L 180.640295 205.293107 
L 179.762389 204.812853 
L 178.911675 204.278212 
L 177.609501 203.590765 
L 178.536854 203.56475 
L 179.448528 203.152031 
L 180.358792 202.736492 
L 181.701288 202.129687 
L 181.046389 202.768438 
L 180.994425 203.768438 
L 180.935335 205.768438 
z
" clip-path="url(#pb3c668ae3e)" style="fill: #ffffff; stroke: #ffffff; stroke-width: 3; stroke-linecap: round"/>
        <path d="M 181.520664 205.768438 
L 180.640295 205.293107 
L 179.762389 204.812853 
L 178.911675 204.278212 
L 177.609501 203.590765 
L 178.536854 203.56475 
L 179.448528 203.152031 
L 180.358792 202.736492 
L 181.701288 202.129687 
L 181.046389 202.768438 
L 180.994425 203.768438 
L 180.935335 205.768438 
z
" clip-path="url(#pb3c668ae3e)" style="fill: #ffffff; stroke: #1f77b4; stroke-linecap: round"/>
        <g id="patch_8">
         <path d="M 382.693368 72.964375 
L 383.693368 72.995811 
L 384.693368 73.032752 
L 385.693368 73.130498 
L 386.693368 73.16302 
L 387.693368 73.236645 
L 388.693368 73.27521 
L 389.693368 73.310623 
L 390.693368 73.368263 
L 391.693368 73.438649 
L 392.693368 73.490614 
L 393.693368 73.549703 
L 394.693368 73.638024 
L 395.693368 73.684169 
L 396.693368 73.72658 
L 397.693368 73.757072 
L 398.693368 73.783117 
L 399.693368 73.804317 
L 400.693368 73.858618 
L 401.693368 73.886556 
L 402.693368 73.91628 
L 403.693368 73.941675 
L 404.693368 73.952875 
L 405.693368 73.962999 
L 406.693368 73.962795 
L 407.693368 73.953285 
L 408.693368 73.941631 
L 409.693368 73.910602 
L 410.693368 73.899434 
L 411.693368 73.869317 
L 412.693368 73.80954 
L 413.693368 73.772348 
L 414.693368 73.733252 
L 415.693368 73.690812 
L 416.693368 73.658047 
L 417.693368 73.590621 
L 418.693368 73.551495 
L 419.693368 73.50882 
L 420.693368 73.43824 
L 421.693368 73.401849 
L 422.693368 73.343446 
L 423.693368 73.232493 
L 424.693368 73.161835 
L 425.693368 73.048895 
L 426.693368 73.003122 
L 427.693368 72.941839 
L 428.693368 72.89334 
L 429.693368 72.812517 
L 430.693368 72.693998 
L 431.693368 72.623787 
L 432.693368 72.540525 
L 433.693368 72.507383 
L 434.693368 72.456146 
L 435.693368 72.387747 
L 436.693368 72.321532 
L 437.693368 72.244615 
L 438.693368 72.217299 
L 439.693368 72.190822 
L 440.693368 72.168171 
L 441.693368 72.14864 
L 442.693368 72.122246 
L 443.693368 72.072475 
L 444.693368 72.037402 
L 445.693368 72.001536 
L 446.693368 71.986169 
L 447.693368 71.9704 
L 448.693368 71.966987 
L 449.693368 71.96457 
L 450.693368 71.965056 
L 451.693368 71.966985 
L 452.693368 71.980242 
L 453.693368 71.988633 
L 454.693368 72.010169 
L 455.693368 72.033202 
L 456.693368 72.050435 
L 457.693368 72.068898 
L 458.693368 72.08935 
L 459.693368 72.10595 
L 460.693368 72.168729 
L 461.693368 72.243994 
L 462.693368 72.276633 
L 463.693368 72.344197 
L 464.693368 72.398244 
L 465.693368 72.431948 
L 466.693368 72.522074 
L 467.693368 72.550609 
L 468.693368 72.582095 
L 469.693368 72.613106 
L 470.693368 72.667914 
L 471.693368 72.732501 
L 472.693368 72.770697 
L 473.693368 72.866631 
L 474.693368 72.915889 
L 475.693368 72.959958 
L 476.693368 73.000082 
L 477.693368 73.108449 
L 478.693368 73.150077 
L 479.693368 73.212219 
L 480.693368 73.282181 
L 481.693368 73.386685 
L 482.693368 73.423673 
L 483.693368 73.46955 
L 484.693368 73.538045 
L 485.693368 73.586791 
L 486.693368 73.664388 
L 487.693368 73.694929 
L 488.693368 73.764443 
L 489.693368 73.788416 
L 490.693368 73.817038 
L 491.693368 73.858831 
L 492.693368 73.880407 
L 493.693368 73.894355 
L 494.693368 73.921077 
L 495.693368 73.930387 
L 496.693368 73.942834 
L 497.693368 73.953889 
L 498.693368 73.959553 
L 499.693368 73.964317 
L 500.693368 73.958769 
L 501.693368 73.945481 
L 502.693368 73.937964 
L 503.693368 73.913179 
L 504.693368 73.88961 
L 505.693368 73.85343 
L 506.693368 73.827468 
L 507.693368 73.805146 
L 508.693368 73.736386 
L 509.693368 73.661851 
L 510.693368 73.567872 
L 511.693368 73.51682 
L 512.693368 73.462886 
L 513.693368 73.427635 
L 514.693368 73.321547 
L 515.709812 73.269283 
" clip-path="url(#pb3c668ae3e)" style="fill: none; stroke: #ffffff; stroke-width: 3; stroke-linecap: round"/>
         <path d="M 382.693368 72.964375 
L 383.693368 72.995811 
L 384.693368 73.032752 
L 385.693368 73.130498 
L 386.693368 73.16302 
L 387.693368 73.236645 
L 388.693368 73.27521 
L 389.693368 73.310623 
L 390.693368 73.368263 
L 391.693368 73.438649 
L 392.693368 73.490614 
L 393.693368 73.549703 
L 394.693368 73.638024 
L 395.693368 73.684169 
L 396.693368 73.72658 
L 397.693368 73.757072 
L 398.693368 73.783117 
L 399.693368 73.804317 
L 400.693368 73.858618 
L 401.693368 73.886556 
L 402.693368 73.91628 
L 403.693368 73.941675 
L 404.693368 73.952875 
L 405.693368 73.962999 
L 406.693368 73.962795 
L 407.693368 73.953285 
L 408.693368 73.941631 
L 409.693368 73.910602 
L 410.693368 73.899434 
L 411.693368 73.869317 
L 412.693368 73.80954 
L 413.693368 73.772348 
L 414.693368 73.733252 
L 415.693368 73.690812 
L 416.693368 73.658047 
L 417.693368 73.590621 
L 418.693368 73.551495 
L 419.693368 73.50882 
L 420.693368 73.43824 
L 421.693368 73.401849 
L 422.693368 73.343446 
L 423.693368 73.232493 
L 424.693368 73.161835 
L 425.693368 73.048895 
L 426.693368 73.003122 
L 427.693368 72.941839 
L 428.693368 72.89334 
L 429.693368 72.812517 
L 430.693368 72.693998 
L 431.693368 72.623787 
L 432.693368 72.540525 
L 433.693368 72.507383 
L 434.693368 72.456146 
L 435.693368 72.387747 
L 436.693368 72.321532 
L 437.693368 72.244615 
L 438.693368 72.217299 
L 439.693368 72.190822 
L 440.693368 72.168171 
L 441.693368 72.14864 
L 442.693368 72.122246 
L 443.693368 72.072475 
L 444.693368 72.037402 
L 445.693368 72.001536 
L 446.693368 71.986169 
L 447.693368 71.9704 
L 448.693368 71.966987 
L 449.693368 71.96457 
L 450.693368 71.965056 
L 451.693368 71.966985 
L 452.693368 71.980242 
L 453.693368 71.988633 
L 454.693368 72.010169 
L 455.693368 72.033202 
L 456.693368 72.050435 
L 457.693368 72.068898 
L 458.693368 72.08935 
L 459.693368 72.10595 
L 460.693368 72.168729 
L 461.693368 72.243994 
L 462.693368 72.276633 
L 463.693368 72.344197 
L 464.693368 72.398244 
L 465.693368 72.431948 
L 466.693368 72.522074 
L 467.693368 72.550609 
L 468.693368 72.582095 
L 469.693368 72.613106 
L 470.693368 72.667914 
L 471.693368 72.732501 
L 472.693368 72.770697 
L 473.693368 72.866631 
L 474.693368 72.915889 
L 475.693368 72.959958 
L 476.693368 73.000082 
L 477.693368 73.108449 
L 478.693368 73.150077 
L 479.693368 73.212219 
L 480.693368 73.282181 
L 481.693368 73.386685 
L 482.693368 73.423673 
L 483.693368 73.46955 
L 484.693368 73.538045 
L 485.693368 73.586791 
L 486.693368 73.664388 
L 487.693368 73.694929 
L 488.693368 73.764443 
L 489.693368 73.788416 
L 490.693368 73.817038 
L 491.693368 73.858831 
L 492.693368 73.880407 
L 493.693368 73.894355 
L 494.693368 73.921077 
L 495.693368 73.930387 
L 496.693368 73.942834 
L 497.693368 73.953889 
L 498.693368 73.959553 
L 499.693368 73.964317 
L 500.693368 73.958769 
L 501.693368 73.945481 
L 502.693368 73.937964 
L 503.693368 73.913179 
L 504.693368 73.88961 
L 505.693368 73.85343 
L 506.693368 73.827468 
L 507.693368 73.805146 
L 508.693368 73.736386 
L 509.693368 73.661851 
L 510.693368 73.567872 
L 511.693368 73.51682 
L 512.693368 73.462886 
L 513.693368 73.427635 
L 514.693368 73.321547 
L 515.709812 73.269283 
" clip-path="url(#pb3c668ae3e)" style="fill: none; stroke: #1f77b4; stroke-linecap: round"/>
         <path d="M 511.709812 70.964375 
L 512.59018 71.439706 
L 513.468087 71.91996 
L 514.318801 72.454601 
L 515.620975 73.142048 
L 514.693622 73.168063 
L 513.781948 73.580783 
L 512.871684 73.996322 
L 511.529188 74.603126 
L 512.184087 73.964375 
L 512.236051 72.964375 
L 512.295141 70.964375 
z
" clip-path="url(#pb3c668ae3e)" style="fill: #ffffff; stroke: #ffffff; stroke-width: 3; stroke-linecap: round"/>
         <path d="M 511.709812 70.964375 
L 512.59018 71.439706 
L 513.468087 71.91996 
L 514.318801 72.454601 
L 515.620975 73.142048 
L 514.693622 73.168063 
L 513.781948 73.580783 
L 512.871684 73.996322 
L 511.529188 74.603126 
L 512.184087 73.964375 
L 512.236051 72.964375 
L 512.295141 70.964375 
z
" clip-path="url(#pb3c668ae3e)" style="fill: #ffffff; stroke: #1f77b4; stroke-linecap: round"/>
         <g id="patch_9">
          <path d="M 176.406237 253.521796 
L 177.406237 253.553232 
L 178.406237 253.590173 
L 179.406237 253.687919 
L 180.406237 253.720441 
L 181.406237 253.794066 
L 182.406237 253.832631 
L 183.406237 253.868044 
L 184.406237 253.925684 
L 185.406237 253.996071 
L 186.406237 254.048035 
L 187.406237 254.107124 
L 188.406237 254.195445 
L 189.406237 254.24159 
L 190.406237 254.284001 
L 191.406237 254.314493 
L 192.406237 254.340538 
L 193.406237 254.361738 
L 194.406237 254.41604 
L 195.406237 254.443977 
L 196.406237 254.473701 
L 197.406237 254.499096 
L 198.406237 254.510296 
L 199.406237 254.52042 
L 200.406237 254.520216 
L 201.406237 254.510706 
L 202.406237 254.499052 
L 203.406237 254.468023 
L 204.406237 254.456855 
L 205.406237 254.426738 
L 206.406237 254.366961 
L 207.406237 254.329769 
L 208.406237 254.290673 
L 209.406237 254.248233 
L 210.406237 254.215468 
L 211.406237 254.148042 
L 212.406237 254.108916 
L 213.406237 254.066241 
L 214.406237 253.995661 
L 215.406237 253.95927 
L 216.406237 253.900867 
L 217.406237 253.789914 
L 218.406237 253.719256 
L 219.406237 253.606316 
L 220.406237 253.560543 
L 221.406237 253.49926 
L 222.406237 253.450761 
L 223.406237 253.369938 
L 224.406237 253.251419 
L 225.406237 253.181208 
L 226.406237 253.097946 
L 227.406237 253.064804 
L 228.406237 253.013567 
L 229.406237 252.945169 
L 230.406237 252.878953 
L 231.406237 252.802036 
L 232.406237 252.774721 
L 233.406237 252.748243 
L 234.406237 252.725592 
L 235.406237 252.706061 
L 236.406237 252.679667 
L 237.406237 252.629896 
L 238.406237 252.594823 
L 239.406237 252.558957 
L 240.406237 252.54359 
L 241.406237 252.527821 
L 242.406237 252.524408 
L 243.406237 252.521991 
L 244.406237 252.522477 
L 245.406237 252.524406 
L 246.406237 252.537663 
L 247.406237 252.546054 
L 248.406237 252.56759 
L 249.406237 252.590623 
L 250.406237 252.607856 
L 251.406237 252.626319 
L 252.406237 252.646771 
L 253.406237 252.663371 
L 254.406237 252.72615 
L 255.406237 252.801415 
L 256.406237 252.834054 
L 257.406237 252.901618 
L 258.406237 252.955665 
L 259.406237 252.989369 
L 260.406237 253.079495 
L 261.406237 253.10803 
L 262.406237 253.139516 
L 263.406237 253.170527 
L 264.406237 253.225335 
L 265.406237 253.289922 
L 266.406237 253.328118 
L 267.406237 253.424052 
L 268.406237 253.47331 
L 269.406237 253.517379 
L 270.406237 253.557503 
L 271.406237 253.66587 
L 272.406237 253.707498 
L 273.406237 253.76964 
L 274.406237 253.839602 
L 275.406237 253.944106 
L 276.406237 253.981094 
L 277.406237 254.026971 
L 278.406237 254.095466 
L 279.406237 254.144212 
L 280.406237 254.221809 
L 281.406237 254.25235 
L 282.406237 254.321864 
L 283.406237 254.345837 
L 284.406237 254.374459 
L 285.406237 254.416252 
L 286.406237 254.437828 
L 287.406237 254.451776 
L 288.406237 254.478498 
L 289.406237 254.487808 
L 290.406237 254.500255 
L 291.406237 254.51131 
L 292.406237 254.516974 
L 293.406237 254.521738 
L 294.406237 254.516191 
L 295.406237 254.502902 
L 296.406237 254.495385 
L 297.406237 254.4706 
L 298.406237 254.447031 
L 299.406237 254.410851 
L 300.406237 254.384889 
L 301.406237 254.362567 
L 302.406237 254.293807 
L 303.406237 254.219272 
L 304.406237 254.125293 
L 305.406237 254.074241 
L 306.406237 254.020307 
L 307.406237 253.985056 
L 308.406237 253.878968 
L 309.406237 253.826704 
L 310.406237 253.789797 
L 311.406237 253.758767 
L 312.406237 253.697611 
L 313.406237 253.630191 
L 314.406237 253.581285 
L 315.406237 253.516093 
L 316.406237 253.477905 
L 317.406237 253.43591 
L 318.406237 253.393892 
L 319.406237 253.334376 
L 320.406237 253.221216 
L 321.406237 253.168965 
L 322.406237 253.129547 
L 323.406237 253.082446 
L 324.406237 253.025667 
L 325.406237 252.993003 
L 326.406237 252.956825 
L 327.406237 252.924735 
L 328.406237 252.890455 
L 329.406237 252.832077 
L 330.406237 252.786892 
L 331.406237 252.757268 
L 332.406237 252.706882 
L 333.406237 252.681685 
L 334.406237 252.660634 
L 335.406237 252.625666 
L 336.406237 252.601376 
L 337.406237 252.587309 
L 338.406237 252.568367 
L 339.406237 252.552706 
L 340.406237 252.540154 
L 341.406237 252.534318 
L 342.406237 252.527436 
L 343.406237 252.522262 
L 344.406237 252.524045 
L 345.406237 252.52677 
L 346.406237 252.537924 
L 347.406237 252.566159 
L 348.406237 252.609947 
L 349.406237 252.630636 
L 350.406237 252.671609 
L 351.406237 252.711684 
L 352.406237 252.730794 
L 353.406237 252.753303 
L 354.406237 252.819954 
L 355.406237 252.869664 
L 356.406237 252.94337 
L 357.406237 252.974684 
L 358.406237 253.051306 
L 359.406237 253.089604 
L 360.406237 253.163721 
L 361.406237 253.267779 
L 362.406237 253.33761 
L 363.406237 253.442844 
L 364.406237 253.497859 
L 365.406237 253.621334 
L 366.406237 253.691893 
L 367.406237 253.807732 
L 368.406237 253.857913 
L 369.406237 253.893517 
L 370.406237 253.984924 
L 371.406237 254.038432 
L 372.406237 254.12634 
L 373.406237 254.195525 
L 374.406237 254.242289 
L 375.406237 254.314333 
L 376.406237 254.364475 
L 377.406237 254.381865 
L 378.406237 254.408868 
L 379.406237 254.428295 
L 380.406237 254.447634 
L 381.406237 254.485882 
L 382.406237 254.502315 
L 383.406237 254.510684 
L 384.406237 254.515003 
L 385.406237 254.521558 
L 386.406237 254.519012 
L 387.406237 254.513553 
L 388.406237 254.497125 
L 389.406237 254.46519 
L 390.406237 254.42721 
L 391.406237 254.392406 
L 392.406237 254.329334 
L 393.406237 254.307907 
L 394.406237 254.257289 
L 395.406237 254.232332 
L 396.406237 254.176699 
L 397.406237 254.145469 
L 398.406237 254.095325 
L 399.406237 254.062832 
L 400.406237 253.98242 
L 401.406237 253.913494 
L 402.406237 253.797797 
L 403.406237 253.722318 
L 404.406237 253.606793 
L 405.406237 253.527309 
L 406.406237 253.418868 
L 407.406237 253.3795 
L 408.406237 253.276632 
L 409.406237 253.176834 
L 410.406237 253.131337 
L 411.406237 253.097015 
L 412.406237 253.045059 
L 413.406237 253.005412 
L 414.406237 252.969898 
L 415.406237 252.902253 
L 416.406237 252.863171 
L 418.187579 252.81269 
" clip-path="url(#pb3c668ae3e)" style="fill: none; stroke: #ffffff; stroke-width: 3; stroke-linecap: round"/>
          <path d="M 176.406237 253.521796 
L 177.406237 253.553232 
L 178.406237 253.590173 
L 179.406237 253.687919 
L 180.406237 253.720441 
L 181.406237 253.794066 
L 182.406237 253.832631 
L 183.406237 253.868044 
L 184.406237 253.925684 
L 185.406237 253.996071 
L 186.406237 254.048035 
L 187.406237 254.107124 
L 188.406237 254.195445 
L 189.406237 254.24159 
L 190.406237 254.284001 
L 191.406237 254.314493 
L 192.406237 254.340538 
L 193.406237 254.361738 
L 194.406237 254.41604 
L 195.406237 254.443977 
L 196.406237 254.473701 
L 197.406237 254.499096 
L 198.406237 254.510296 
L 199.406237 254.52042 
L 200.406237 254.520216 
L 201.406237 254.510706 
L 202.406237 254.499052 
L 203.406237 254.468023 
L 204.406237 254.456855 
L 205.406237 254.426738 
L 206.406237 254.366961 
L 207.406237 254.329769 
L 208.406237 254.290673 
L 209.406237 254.248233 
L 210.406237 254.215468 
L 211.406237 254.148042 
L 212.406237 254.108916 
L 213.406237 254.066241 
L 214.406237 253.995661 
L 215.406237 253.95927 
L 216.406237 253.900867 
L 217.406237 253.789914 
L 218.406237 253.719256 
L 219.406237 253.606316 
L 220.406237 253.560543 
L 221.406237 253.49926 
L 222.406237 253.450761 
L 223.406237 253.369938 
L 224.406237 253.251419 
L 225.406237 253.181208 
L 226.406237 253.097946 
L 227.406237 253.064804 
L 228.406237 253.013567 
L 229.406237 252.945169 
L 230.406237 252.878953 
L 231.406237 252.802036 
L 232.406237 252.774721 
L 233.406237 252.748243 
L 234.406237 252.725592 
L 235.406237 252.706061 
L 236.406237 252.679667 
L 237.406237 252.629896 
L 238.406237 252.594823 
L 239.406237 252.558957 
L 240.406237 252.54359 
L 241.406237 252.527821 
L 242.406237 252.524408 
L 243.406237 252.521991 
L 244.406237 252.522477 
L 245.406237 252.524406 
L 246.406237 252.537663 
L 247.406237 252.546054 
L 248.406237 252.56759 
L 249.406237 252.590623 
L 250.406237 252.607856 
L 251.406237 252.626319 
L 252.406237 252.646771 
L 253.406237 252.663371 
L 254.406237 252.72615 
L 255.406237 252.801415 
L 256.406237 252.834054 
L 257.406237 252.901618 
L 258.406237 252.955665 
L 259.406237 252.989369 
L 260.406237 253.079495 
L 261.406237 253.10803 
L 262.406237 253.139516 
L 263.406237 253.170527 
L 264.406237 253.225335 
L 265.406237 253.289922 
L 266.406237 253.328118 
L 267.406237 253.424052 
L 268.406237 253.47331 
L 269.406237 253.517379 
L 270.406237 253.557503 
L 271.406237 253.66587 
L 272.406237 253.707498 
L 273.406237 253.76964 
L 274.406237 253.839602 
L 275.406237 253.944106 
L 276.406237 253.981094 
L 277.406237 254.026971 
L 278.406237 254.095466 
L 279.406237 254.144212 
L 280.406237 254.221809 
L 281.406237 254.25235 
L 282.406237 254.321864 
L 283.406237 254.345837 
L 284.406237 254.374459 
L 285.406237 254.416252 
L 286.406237 254.437828 
L 287.406237 254.451776 
L 288.406237 254.478498 
L 289.406237 254.487808 
L 290.406237 254.500255 
L 291.406237 254.51131 
L 292.406237 254.516974 
L 293.406237 254.521738 
L 294.406237 254.516191 
L 295.406237 254.502902 
L 296.406237 254.495385 
L 297.406237 254.4706 
L 298.406237 254.447031 
L 299.406237 254.410851 
L 300.406237 254.384889 
L 301.406237 254.362567 
L 302.406237 254.293807 
L 303.406237 254.219272 
L 304.406237 254.125293 
L 305.406237 254.074241 
L 306.406237 254.020307 
L 307.406237 253.985056 
L 308.406237 253.878968 
L 309.406237 253.826704 
L 310.406237 253.789797 
L 311.406237 253.758767 
L 312.406237 253.697611 
L 313.406237 253.630191 
L 314.406237 253.581285 
L 315.406237 253.516093 
L 316.406237 253.477905 
L 317.406237 253.43591 
L 318.406237 253.393892 
L 319.406237 253.334376 
L 320.406237 253.221216 
L 321.406237 253.168965 
L 322.406237 253.129547 
L 323.406237 253.082446 
L 324.406237 253.025667 
L 325.406237 252.993003 
L 326.406237 252.956825 
L 327.406237 252.924735 
L 328.406237 252.890455 
L 329.406237 252.832077 
L 330.406237 252.786892 
L 331.406237 252.757268 
L 332.406237 252.706882 
L 333.406237 252.681685 
L 334.406237 252.660634 
L 335.406237 252.625666 
L 336.406237 252.601376 
L 337.406237 252.587309 
L 338.406237 252.568367 
L 339.406237 252.552706 
L 340.406237 252.540154 
L 341.406237 252.534318 
L 342.406237 252.527436 
L 343.406237 252.522262 
L 344.406237 252.524045 
L 345.406237 252.52677 
L 346.406237 252.537924 
L 347.406237 252.566159 
L 348.406237 252.609947 
L 349.406237 252.630636 
L 350.406237 252.671609 
L 351.406237 252.711684 
L 352.406237 252.730794 
L 353.406237 252.753303 
L 354.406237 252.819954 
L 355.406237 252.869664 
L 356.406237 252.94337 
L 357.406237 252.974684 
L 358.406237 253.051306 
L 359.406237 253.089604 
L 360.406237 253.163721 
L 361.406237 253.267779 
L 362.406237 253.33761 
L 363.406237 253.442844 
L 364.406237 253.497859 
L 365.406237 253.621334 
L 366.406237 253.691893 
L 367.406237 253.807732 
L 368.406237 253.857913 
L 369.406237 253.893517 
L 370.406237 253.984924 
L 371.406237 254.038432 
L 372.406237 254.12634 
L 373.406237 254.195525 
L 374.406237 254.242289 
L 375.406237 254.314333 
L 376.406237 254.364475 
L 377.406237 254.381865 
L 378.406237 254.408868 
L 379.406237 254.428295 
L 380.406237 254.447634 
L 381.406237 254.485882 
L 382.406237 254.502315 
L 383.406237 254.510684 
L 384.406237 254.515003 
L 385.406237 254.521558 
L 386.406237 254.519012 
L 387.406237 254.513553 
L 388.406237 254.497125 
L 389.406237 254.46519 
L 390.406237 254.42721 
L 391.406237 254.392406 
L 392.406237 254.329334 
L 393.406237 254.307907 
L 394.406237 254.257289 
L 395.406237 254.232332 
L 396.406237 254.176699 
L 397.406237 254.145469 
L 398.406237 254.095325 
L 399.406237 254.062832 
L 400.406237 253.98242 
L 401.406237 253.913494 
L 402.406237 253.797797 
L 403.406237 253.722318 
L 404.406237 253.606793 
L 405.406237 253.527309 
L 406.406237 253.418868 
L 407.406237 253.3795 
L 408.406237 253.276632 
L 409.406237 253.176834 
L 410.406237 253.131337 
L 411.406237 253.097015 
L 412.406237 253.045059 
L 413.406237 253.005412 
L 414.406237 252.969898 
L 415.406237 252.902253 
L 416.406237 252.863171 
L 418.187579 252.81269 
" clip-path="url(#pb3c668ae3e)" style="fill: none; stroke: #ff7f0e; stroke-linecap: round"/>
          <path d="M 414.187579 251.521796 
L 415.067947 251.997127 
L 415.945854 252.477381 
L 416.796568 253.012022 
L 418.098742 253.699469 
L 417.171389 253.725484 
L 416.259715 254.138204 
L 415.349451 254.553743 
L 414.006955 255.160547 
L 414.661854 254.521796 
L 414.713818 253.521796 
L 414.772908 251.521796 
z
" clip-path="url(#pb3c668ae3e)" style="fill: #ffffff; stroke: #ffffff; stroke-width: 3; stroke-linecap: round"/>
          <path d="M 414.187579 251.521796 
L 415.067947 251.997127 
L 415.945854 252.477381 
L 416.796568 253.012022 
L 418.098742 253.699469 
L 417.171389 253.725484 
L 416.259715 254.138204 
L 415.349451 254.553743 
L 414.006955 255.160547 
L 414.661854 254.521796 
L 414.713818 253.521796 
L 414.772908 251.521796 
z
" clip-path="url(#pb3c668ae3e)" style="fill: #ffffff; stroke: #ff7f0e; stroke-linecap: round"/>
          <path d="M 443.21896 304.463661 
" clip-path="url(#pb3c668ae3e)" style="fill: none; stroke-dasharray: 3.7,1.6; stroke-dashoffset: 0; stroke: #2ca02c"/>
          <path d="M 442.21896 304.463661 
L 444.21896 305.463661 
L 444.21896 303.463661 
z
" clip-path="url(#pb3c668ae3e)" style="fill: #2ca02c; stroke: #2ca02c; stroke-linejoin: miter"/>
          <g id="patch_10">
           <path d="M 63.290625 321.621875 
L 63.290625 10.8 
" style="fill: none; stroke: #000000; stroke-width: 0.8; stroke-linejoin: miter; stroke-linecap: square"/>
          </g>
          <g id="text_10">
           <g id="patch_11">
            <path d="M 299.535045 114.123282 
L 320.839733 114.123282 
Q 322.839733 114.123282 322.839733 112.123282 
L 322.839733 102.445157 
Q 322.839733 100.445157 320.839733 100.445157 
L 299.535045 100.445157 
Q 297.535045 100.445157 297.535045 102.445157 
L 297.535045 112.123282 
Q 297.535045 114.123282 299.535045 114.123282 
z
" style="fill: #ffffff; opacity: 0.6"/>
           </g>
           <!-- ANC -->
           <g transform="translate(299.535045 110.043594) scale(0.1 -0.1)">
            <defs>
             <path id="DejaVuSans-4e" d="M 628 4666 
L 1478 4666 
L 3547 763 
L 3547 4666 
L 4159 4666 
L 4159 0 
L 3309 0 
L 1241 3903 
L 1241 0 
L 628 0 
L 628 4666 
z
" transform="scale(0.015625)"/>
            </defs>
            <use xlink:href="#DejaVuSans-41"/>
            <use xlink:href="#DejaVuSans-4e" x="68.408203"/>
            <use xlink:href="#DejaVuSans-43" x="143.212891"/>
           </g>
          </g>
         </g>
        </g>
        <defs>
         <clipPath id="pb3c668ae3e">
          <rect x="63.290625" y="10.8" width="540.309375" height="310.821875"/>
         </clipPath>
        </defs>
       </g>
      </g>
     </g>
    </g>
   </g>
  </g>
 </g>
</svg>
