<?xml version="1.0" encoding="utf-8" standalone="no"?>
<!DOCTYPE svg PUBLIC "-//W3C//DTD SVG 1.1//EN"
  "http://www.w3.org/Graphics/SVG/1.1/DTD/svg11.dtd">
<svg xmlns:xlink="http://www.w3.org/1999/xlink" width="614.4pt" height="345.6pt" viewBox="0 0 614.4 345.6" xmlns="http://www.w3.org/2000/svg" version="1.1">
 <metadata>
  <rdf:RDF xmlns:dc="http://purl.org/dc/elements/1.1/" xmlns:cc="http://creativecommons.org/ns#" xmlns:rdf="http://www.w3.org/1999/02/22-rdf-syntax-ns#">
   <cc:Work>
    <dc:type rdf:resource="http://purl.org/dc/dcmitype/StillImage"/>
    <dc:date>2024-04-17T19:48:44.804249</dc:date>
    <dc:format>image/svg+xml</dc:format>
    <dc:creator>
     <cc:Agent>
      <dc:title>Matplotlib v3.7.1, https://matplotlib.org/</dc:title>
     </cc:Agent>
    </dc:creator>
   </cc:Work>
  </rdf:RDF>
 </metadata>
 <defs>
  <style type="text/css">*{stroke-linejoin: round; stroke-linecap: butt}</style>
 </defs>
 <g id="figure_1">
  <g id="patch_1">
   <path d="M 0 345.6 
L 614.4 345.6 
L 614.4 0 
L 0 0 
z
" style="fill: #ffffff"/>
  </g>
  <g id="axes_1">
   <g id="patch_2">
    <path d="M 63.290625 321.621875 
L 603.6 321.621875 
L 603.6 10.8 
L 63.290625 10.8 
z
" style="fill: #ffffff"/>
   </g>
   <path d="M 515.414494 304.044449 
L 514.414494 304.013013 
L 513.414494 303.976072 
L 512.414494 303.878326 
L 511.414494 303.845804 
L 510.414494 303.77218 
L 509.414494 303.733614 
L 508.414494 303.698201 
L 507.414494 303.640561 
L 506.414494 303.570175 
L 505.414494 303.51821 
L 504.414494 303.459121 
L 503.414494 303.3708 
L 502.414494 303.324655 
L 501.414494 303.282244 
L 500.414494 303.251752 
L 499.414494 303.225707 
L 498.414494 303.204507 
L 497.414494 303.150206 
L 496.414494 303.122268 
L 495.414494 303.092544 
L 494.414494 303.067149 
L 493.414494 303.055949 
L 492.414494 303.045825 
L 491.414494 303.046029 
L 490.414494 303.055539 
L 489.414494 303.067193 
L 488.414494 303.098222 
L 487.414494 303.10939 
L 486.414494 303.139507 
L 485.414494 303.199284 
L 484.414494 303.236476 
L 483.414494 303.275572 
L 482.414494 303.318012 
L 481.414494 303.350777 
L 480.414494 303.418203 
L 479.414494 303.457329 
L 478.414494 303.500004 
L 477.414494 303.570584 
L 476.414494 303.606975 
L 475.414494 303.665378 
L 474.414494 303.776331 
L 473.414494 303.846989 
L 472.414494 303.959929 
L 471.414494 304.005702 
L 470.414494 304.066985 
L 469.414494 304.115484 
L 468.414494 304.196307 
L 467.414494 304.314826 
L 466.414494 304.385037 
L 465.414494 304.468299 
L 464.414494 304.501441 
L 463.414494 304.552678 
L 462.414494 304.621077 
L 461.414494 304.687292 
L 460.414494 304.764209 
L 459.414494 304.791525 
L 458.414494 304.818002 
L 457.414494 304.840653 
L 456.414494 304.860184 
L 455.414494 304.886578 
L 454.414494 304.936349 
L 453.414494 304.971422 
L 452.414494 305.007288 
L 451.414494 305.022655 
L 450.414494 305.038424 
L 448.623188 305.041837 
" clip-path="url(#p9a0079b3d3)" style="fill: none; stroke-dasharray: 3.7,1.6; stroke-dashoffset: 0; stroke: #2ca02c"/>
   <g id="patch_3">
    <path d="M 239.54967 10.8 
L 239.54967 252.371863 
M 381.07203 10.8 
L 381.07203 252.371863 
" clip-path="url(#p9a0079b3d3)" style="fill: none; stroke: #ffffff; stroke-width: 3; stroke-linejoin: miter"/>
    <path d="M 239.54967 10.8 
L 239.54967 252.371863 
M 381.07203 10.8 
L 381.07203 252.371863 
" clip-path="url(#p9a0079b3d3)" style="fill: none; stroke: #1f77b4; stroke-linejoin: miter"/>
    <g id="PolyCollection_1">
     <path d="M 381.07203 10.8 
L 239.54967 10.8 
L 239.54967 252.371863 
L 381.07203 252.371863 
L 381.07203 252.371863 
L 381.07203 10.8 
z
" clip-path="url(#p9a0079b3d3)" style="fill: #1f77b4; fill-opacity: 0.5"/>
    </g>
    <g id="patch_4">
     <path d="M 87.850142 252.371863 
L 87.850142 321.621875 
M 173.344279 252.371863 
L 173.344279 321.621875 
" clip-path="url(#p9a0079b3d3)" style="fill: none; stroke: #ffffff; stroke-width: 3; stroke-linejoin: miter"/>
     <path d="M 87.850142 252.371863 
L 87.850142 321.621875 
M 173.344279 252.371863 
L 173.344279 321.621875 
" clip-path="url(#p9a0079b3d3)" style="fill: none; stroke: #ff7f0e; stroke-linejoin: miter"/>
     <g id="PolyCollection_2">
      <path d="M 173.344279 252.371863 
L 87.850142 252.371863 
L 87.850142 321.621875 
L 173.344279 321.621875 
L 173.344279 321.621875 
L 173.344279 252.371863 
z
" clip-path="url(#p9a0079b3d3)" style="fill: #ff7f0e; fill-opacity: 0.5"/>
     </g>
     <g id="patch_5">
      <path d="M 520.817588 72.964375 
L 520.817588 321.621875 
M 579.040483 72.964375 
L 579.040483 321.621875 
" clip-path="url(#p9a0079b3d3)" style="fill: none; stroke: #ffffff; stroke-width: 3; stroke-linejoin: miter"/>
      <path d="M 520.817588 72.964375 
L 520.817588 321.621875 
M 579.040483 72.964375 
L 579.040483 321.621875 
" clip-path="url(#p9a0079b3d3)" style="fill: none; stroke: #2ca02c; stroke-linejoin: miter"/>
      <g id="PolyCollection_3">
       <path d="M 579.040483 72.964375 
L 520.817588 72.964375 
L 520.817588 321.621875 
L 579.040483 321.621875 
L 579.040483 321.621875 
L 579.040483 72.964375 
z
" clip-path="url(#p9a0079b3d3)" style="fill: #2ca02c; fill-opacity: 0.5"/>
      </g>
      <g id="patch_6">
       <path d="M 417.019791 255.046323 
L 417.019791 321.621875 
M 443.220094 255.046323 
L 443.220094 321.621875 
" clip-path="url(#p9a0079b3d3)" style="fill: none; stroke: #ffffff; stroke-width: 3; stroke-linejoin: miter"/>
       <path d="M 417.019791 255.046323 
L 417.019791 321.621875 
M 443.220094 255.046323 
L 443.220094 321.621875 
" clip-path="url(#p9a0079b3d3)" style="fill: none; stroke: #d62728; stroke-linejoin: miter"/>
       <g id="PolyCollection_4">
        <path d="M 443.220094 255.046323 
L 417.019791 255.046323 
L 417.019791 321.621875 
L 443.220094 321.621875 
L 443.220094 321.621875 
L 443.220094 255.046323 
z
" clip-path="url(#p9a0079b3d3)" style="fill: #d62728; fill-opacity: 0.5"/>
       </g>
       <g id="matplotlib.axis_1">
        <g id="xtick_1">
         <g id="line2d_1"/>
         <g id="text_1">
          <!-- OUT -->
          <g transform="translate(119.947992 332.720312) scale(0.1 -0.1)">
           <defs>
            <path id="DejaVuSans-4f" d="M 2522 4238 
Q 1834 4238 1429 3725 
Q 1025 3213 1025 2328 
Q 1025 1447 1429 934 
Q 1834 422 2522 422 
Q 3209 422 3611 934 
Q 4013 1447 4013 2328 
Q 4013 3213 3611 3725 
Q 3209 4238 2522 4238 
z
M 2522 4750 
Q 3503 4750 4090 4092 
Q 4678 3434 4678 2328 
Q 4678 1225 4090 567 
Q 3503 -91 2522 -91 
Q 1538 -91 948 565 
Q 359 1222 359 2328 
Q 359 3434 948 4092 
Q 1538 4750 2522 4750 
z
" transform="scale(0.015625)"/>
            <path id="DejaVuSans-55" d="M 556 4666 
L 1191 4666 
L 1191 1831 
Q 1191 1081 1462 751 
Q 1734 422 2344 422 
Q 2950 422 3222 751 
Q 3494 1081 3494 1831 
L 3494 4666 
L 4128 4666 
L 4128 1753 
Q 4128 841 3676 375 
Q 3225 -91 2344 -91 
Q 1459 -91 1007 375 
Q 556 841 556 1753 
L 556 4666 
z
" transform="scale(0.015625)"/>
            <path id="DejaVuSans-54" d="M -19 4666 
L 3928 4666 
L 3928 4134 
L 2272 4134 
L 2272 0 
L 1638 0 
L 1638 4134 
L -19 4134 
L -19 4666 
z
" transform="scale(0.015625)"/>
           </defs>
           <use xlink:href="#DejaVuSans-4f"/>
           <use xlink:href="#DejaVuSans-55" x="78.710938"/>
           <use xlink:href="#DejaVuSans-54" x="151.904297"/>
          </g>
         </g>
        </g>
        <g id="xtick_2">
         <g id="line2d_2"/>
         <g id="text_2">
          <!-- SRC -->
          <g transform="translate(540.039192 332.720312) scale(0.1 -0.1)">
           <defs>
            <path id="DejaVuSans-53" d="M 3425 4513 
L 3425 3897 
Q 3066 4069 2747 4153 
Q 2428 4238 2131 4238 
Q 1616 4238 1336 4038 
Q 1056 3838 1056 3469 
Q 1056 3159 1242 3001 
Q 1428 2844 1947 2747 
L 2328 2669 
Q 3034 2534 3370 2195 
Q 3706 1856 3706 1288 
Q 3706 609 3251 259 
Q 2797 -91 1919 -91 
Q 1588 -91 1214 -16 
Q 841 59 441 206 
L 441 856 
Q 825 641 1194 531 
Q 1563 422 1919 422 
Q 2459 422 2753 634 
Q 3047 847 3047 1241 
Q 3047 1584 2836 1778 
Q 2625 1972 2144 2069 
L 1759 2144 
Q 1053 2284 737 2584 
Q 422 2884 422 3419 
Q 422 4038 858 4394 
Q 1294 4750 2059 4750 
Q 2388 4750 2728 4690 
Q 3069 4631 3425 4513 
z
" transform="scale(0.015625)"/>
            <path id="DejaVuSans-52" d="M 2841 2188 
Q 3044 2119 3236 1894 
Q 3428 1669 3622 1275 
L 4263 0 
L 3584 0 
L 2988 1197 
Q 2756 1666 2539 1819 
Q 2322 1972 1947 1972 
L 1259 1972 
L 1259 0 
L 628 0 
L 628 4666 
L 2053 4666 
Q 2853 4666 3247 4331 
Q 3641 3997 3641 3322 
Q 3641 2881 3436 2590 
Q 3231 2300 2841 2188 
z
M 1259 4147 
L 1259 2491 
L 2053 2491 
Q 2509 2491 2742 2702 
Q 2975 2913 2975 3322 
Q 2975 3731 2742 3939 
Q 2509 4147 2053 4147 
L 1259 4147 
z
" transform="scale(0.015625)"/>
            <path id="DejaVuSans-43" d="M 4122 4306 
L 4122 3641 
Q 3803 3938 3442 4084 
Q 3081 4231 2675 4231 
Q 1875 4231 1450 3742 
Q 1025 3253 1025 2328 
Q 1025 1406 1450 917 
Q 1875 428 2675 428 
Q 3081 428 3442 575 
Q 3803 722 4122 1019 
L 4122 359 
Q 3791 134 3420 21 
Q 3050 -91 2638 -91 
Q 1578 -91 968 557 
Q 359 1206 359 2328 
Q 359 3453 968 4101 
Q 1578 4750 2638 4750 
Q 3056 4750 3426 4639 
Q 3797 4528 4122 4306 
z
" transform="scale(0.015625)"/>
           </defs>
           <use xlink:href="#DejaVuSans-53"/>
           <use xlink:href="#DejaVuSans-52" x="63.476562"/>
           <use xlink:href="#DejaVuSans-43" x="127.958984"/>
          </g>
         </g>
        </g>
        <g id="xtick_3">
         <g id="line2d_3"/>
         <g id="text_3">
          <!-- TAR -->
          <g transform="translate(420.559005 332.720312) scale(0.1 -0.1)">
           <defs>
            <path id="DejaVuSans-41" d="M 2188 4044 
L 1331 1722 
L 3047 1722 
L 2188 4044 
z
M 1831 4666 
L 2547 4666 
L 4325 0 
L 3669 0 
L 3244 1197 
L 1141 1197 
L 716 0 
L 50 0 
L 1831 4666 
z
" transform="scale(0.015625)"/>
           </defs>
           <use xlink:href="#DejaVuSans-54"/>
           <use xlink:href="#DejaVuSans-41" x="53.333984"/>
           <use xlink:href="#DejaVuSans-52" x="121.742188"/>
          </g>
         </g>
        </g>
       </g>
       <g id="matplotlib.axis_2">
        <g id="ytick_1">
         <g id="line2d_4">
          <defs>
           <path id="m56d76e16f0" d="M 0 0 
L -3.5 0 
" style="stroke: #000000; stroke-width: 0.8"/>
          </defs>
          <g>
           <use xlink:href="#m56d76e16f0" x="63.290625" y="321.621875" style="stroke: #000000; stroke-width: 0.8"/>
          </g>
         </g>
         <g id="text_4">
          <!-- 0 -->
          <g transform="translate(49.928125 325.421094) scale(0.1 -0.1)">
           <defs>
            <path id="DejaVuSans-30" d="M 2034 4250 
Q 1547 4250 1301 3770 
Q 1056 3291 1056 2328 
Q 1056 1369 1301 889 
Q 1547 409 2034 409 
Q 2525 409 2770 889 
Q 3016 1369 3016 2328 
Q 3016 3291 2770 3770 
Q 2525 4250 2034 4250 
z
M 2034 4750 
Q 2819 4750 3233 4129 
Q 3647 3509 3647 2328 
Q 3647 1150 3233 529 
Q 2819 -91 2034 -91 
Q 1250 -91 836 529 
Q 422 1150 422 2328 
Q 422 3509 836 4129 
Q 1250 4750 2034 4750 
z
" transform="scale(0.015625)"/>
           </defs>
           <use xlink:href="#DejaVuSans-30"/>
          </g>
         </g>
        </g>
        <g id="ytick_2">
         <g id="line2d_5">
          <g>
           <use xlink:href="#m56d76e16f0" x="63.290625" y="279.570617" style="stroke: #000000; stroke-width: 0.8"/>
          </g>
         </g>
         <g id="text_5">
          <!-- 2500 -->
          <g transform="translate(30.840625 283.369836) scale(0.1 -0.1)">
           <defs>
            <path id="DejaVuSans-32" d="M 1228 531 
L 3431 531 
L 3431 0 
L 469 0 
L 469 531 
Q 828 903 1448 1529 
Q 2069 2156 2228 2338 
Q 2531 2678 2651 2914 
Q 2772 3150 2772 3378 
Q 2772 3750 2511 3984 
Q 2250 4219 1831 4219 
Q 1534 4219 1204 4116 
Q 875 4013 500 3803 
L 500 4441 
Q 881 4594 1212 4672 
Q 1544 4750 1819 4750 
Q 2544 4750 2975 4387 
Q 3406 4025 3406 3419 
Q 3406 3131 3298 2873 
Q 3191 2616 2906 2266 
Q 2828 2175 2409 1742 
Q 1991 1309 1228 531 
z
" transform="scale(0.015625)"/>
            <path id="DejaVuSans-35" d="M 691 4666 
L 3169 4666 
L 3169 4134 
L 1269 4134 
L 1269 2991 
Q 1406 3038 1543 3061 
Q 1681 3084 1819 3084 
Q 2600 3084 3056 2656 
Q 3513 2228 3513 1497 
Q 3513 744 3044 326 
Q 2575 -91 1722 -91 
Q 1428 -91 1123 -41 
Q 819 9 494 109 
L 494 744 
Q 775 591 1075 516 
Q 1375 441 1709 441 
Q 2250 441 2565 725 
Q 2881 1009 2881 1497 
Q 2881 1984 2565 2268 
Q 2250 2553 1709 2553 
Q 1456 2553 1204 2497 
Q 953 2441 691 2322 
L 691 4666 
z
" transform="scale(0.015625)"/>
           </defs>
           <use xlink:href="#DejaVuSans-32"/>
           <use xlink:href="#DejaVuSans-35" x="63.623047"/>
           <use xlink:href="#DejaVuSans-30" x="127.246094"/>
           <use xlink:href="#DejaVuSans-30" x="190.869141"/>
          </g>
         </g>
        </g>
        <g id="ytick_3">
         <g id="line2d_6">
          <g>
           <use xlink:href="#m56d76e16f0" x="63.290625" y="237.519359" style="stroke: #000000; stroke-width: 0.8"/>
          </g>
         </g>
         <g id="text_6">
          <!-- 5000 -->
          <g transform="translate(30.840625 241.318577) scale(0.1 -0.1)">
           <use xlink:href="#DejaVuSans-35"/>
           <use xlink:href="#DejaVuSans-30" x="63.623047"/>
           <use xlink:href="#DejaVuSans-30" x="127.246094"/>
           <use xlink:href="#DejaVuSans-30" x="190.869141"/>
          </g>
         </g>
        </g>
        <g id="ytick_4">
         <g id="line2d_7">
          <g>
           <use xlink:href="#m56d76e16f0" x="63.290625" y="195.4681" style="stroke: #000000; stroke-width: 0.8"/>
          </g>
         </g>
         <g id="text_7">
          <!-- 7500 -->
          <g transform="translate(30.840625 199.267319) scale(0.1 -0.1)">
           <defs>
            <path id="DejaVuSans-37" d="M 525 4666 
L 3525 4666 
L 3525 4397 
L 1831 0 
L 1172 0 
L 2766 4134 
L 525 4134 
L 525 4666 
z
" transform="scale(0.015625)"/>
           </defs>
           <use xlink:href="#DejaVuSans-37"/>
           <use xlink:href="#DejaVuSans-35" x="63.623047"/>
           <use xlink:href="#DejaVuSans-30" x="127.246094"/>
           <use xlink:href="#DejaVuSans-30" x="190.869141"/>
          </g>
         </g>
        </g>
        <g id="ytick_5">
         <g id="line2d_8">
          <g>
           <use xlink:href="#m56d76e16f0" x="63.290625" y="153.416842" style="stroke: #000000; stroke-width: 0.8"/>
          </g>
         </g>
         <g id="text_8">
          <!-- 10000 -->
          <g transform="translate(24.478125 157.216061) scale(0.1 -0.1)">
           <defs>
            <path id="DejaVuSans-31" d="M 794 531 
L 1825 531 
L 1825 4091 
L 703 3866 
L 703 4441 
L 1819 4666 
L 2450 4666 
L 2450 531 
L 3481 531 
L 3481 0 
L 794 0 
L 794 531 
z
" transform="scale(0.015625)"/>
           </defs>
           <use xlink:href="#DejaVuSans-31"/>
           <use xlink:href="#DejaVuSans-30" x="63.623047"/>
           <use xlink:href="#DejaVuSans-30" x="127.246094"/>
           <use xlink:href="#DejaVuSans-30" x="190.869141"/>
           <use xlink:href="#DejaVuSans-30" x="254.492188"/>
          </g>
         </g>
        </g>
        <g id="ytick_6">
         <g id="line2d_9">
          <g>
           <use xlink:href="#m56d76e16f0" x="63.290625" y="111.365584" style="stroke: #000000; stroke-width: 0.8"/>
          </g>
         </g>
         <g id="text_9">
          <!-- 12500 -->
          <g transform="translate(24.478125 115.164803) scale(0.1 -0.1)">
           <use xlink:href="#DejaVuSans-31"/>
           <use xlink:href="#DejaVuSans-32" x="63.623047"/>
           <use xlink:href="#DejaVuSans-35" x="127.246094"/>
           <use xlink:href="#DejaVuSans-30" x="190.869141"/>
           <use xlink:href="#DejaVuSans-30" x="254.492188"/>
          </g>
         </g>
        </g>
        <g id="ytick_7">
         <g id="line2d_10">
          <g>
           <use xlink:href="#m56d76e16f0" x="63.290625" y="69.314326" style="stroke: #000000; stroke-width: 0.8"/>
          </g>
         </g>
         <g id="text_10">
          <!-- 15000 -->
          <g transform="translate(24.478125 73.113545) scale(0.1 -0.1)">
           <use xlink:href="#DejaVuSans-31"/>
           <use xlink:href="#DejaVuSans-35" x="63.623047"/>
           <use xlink:href="#DejaVuSans-30" x="127.246094"/>
           <use xlink:href="#DejaVuSans-30" x="190.869141"/>
           <use xlink:href="#DejaVuSans-30" x="254.492188"/>
          </g>
         </g>
        </g>
        <g id="ytick_8">
         <g id="line2d_11">
          <g>
           <use xlink:href="#m56d76e16f0" x="63.290625" y="27.263068" style="stroke: #000000; stroke-width: 0.8"/>
          </g>
         </g>
         <g id="text_11">
          <!-- 17500 -->
          <g transform="translate(24.478125 31.062286) scale(0.1 -0.1)">
           <use xlink:href="#DejaVuSans-31"/>
           <use xlink:href="#DejaVuSans-37" x="63.623047"/>
           <use xlink:href="#DejaVuSans-35" x="127.246094"/>
           <use xlink:href="#DejaVuSans-30" x="190.869141"/>
           <use xlink:href="#DejaVuSans-30" x="254.492188"/>
          </g>
         </g>
        </g>
        <g id="text_12">
         <!-- time ago (generations) -->
         <g transform="translate(18.398438 223.682031) rotate(-90) scale(0.1 -0.1)">
          <defs>
           <path id="DejaVuSans-74" d="M 1172 4494 
L 1172 3500 
L 2356 3500 
L 2356 3053 
L 1172 3053 
L 1172 1153 
Q 1172 725 1289 603 
Q 1406 481 1766 481 
L 2356 481 
L 2356 0 
L 1766 0 
Q 1100 0 847 248 
Q 594 497 594 1153 
L 594 3053 
L 172 3053 
L 172 3500 
L 594 3500 
L 594 4494 
L 1172 4494 
z
" transform="scale(0.015625)"/>
           <path id="DejaVuSans-69" d="M 603 3500 
L 1178 3500 
L 1178 0 
L 603 0 
L 603 3500 
z
M 603 4863 
L 1178 4863 
L 1178 4134 
L 603 4134 
L 603 4863 
z
" transform="scale(0.015625)"/>
           <path id="DejaVuSans-6d" d="M 3328 2828 
Q 3544 3216 3844 3400 
Q 4144 3584 4550 3584 
Q 5097 3584 5394 3201 
Q 5691 2819 5691 2113 
L 5691 0 
L 5113 0 
L 5113 2094 
Q 5113 2597 4934 2840 
Q 4756 3084 4391 3084 
Q 3944 3084 3684 2787 
Q 3425 2491 3425 1978 
L 3425 0 
L 2847 0 
L 2847 2094 
Q 2847 2600 2669 2842 
Q 2491 3084 2119 3084 
Q 1678 3084 1418 2786 
Q 1159 2488 1159 1978 
L 1159 0 
L 581 0 
L 581 3500 
L 1159 3500 
L 1159 2956 
Q 1356 3278 1631 3431 
Q 1906 3584 2284 3584 
Q 2666 3584 2933 3390 
Q 3200 3197 3328 2828 
z
" transform="scale(0.015625)"/>
           <path id="DejaVuSans-65" d="M 3597 1894 
L 3597 1613 
L 953 1613 
Q 991 1019 1311 708 
Q 1631 397 2203 397 
Q 2534 397 2845 478 
Q 3156 559 3463 722 
L 3463 178 
Q 3153 47 2828 -22 
Q 2503 -91 2169 -91 
Q 1331 -91 842 396 
Q 353 884 353 1716 
Q 353 2575 817 3079 
Q 1281 3584 2069 3584 
Q 2775 3584 3186 3129 
Q 3597 2675 3597 1894 
z
M 3022 2063 
Q 3016 2534 2758 2815 
Q 2500 3097 2075 3097 
Q 1594 3097 1305 2825 
Q 1016 2553 972 2059 
L 3022 2063 
z
" transform="scale(0.015625)"/>
           <path id="DejaVuSans-20" transform="scale(0.015625)"/>
           <path id="DejaVuSans-61" d="M 2194 1759 
Q 1497 1759 1228 1600 
Q 959 1441 959 1056 
Q 959 750 1161 570 
Q 1363 391 1709 391 
Q 2188 391 2477 730 
Q 2766 1069 2766 1631 
L 2766 1759 
L 2194 1759 
z
M 3341 1997 
L 3341 0 
L 2766 0 
L 2766 531 
Q 2569 213 2275 61 
Q 1981 -91 1556 -91 
Q 1019 -91 701 211 
Q 384 513 384 1019 
Q 384 1609 779 1909 
Q 1175 2209 1959 2209 
L 2766 2209 
L 2766 2266 
Q 2766 2663 2505 2880 
Q 2244 3097 1772 3097 
Q 1472 3097 1187 3025 
Q 903 2953 641 2809 
L 641 3341 
Q 956 3463 1253 3523 
Q 1550 3584 1831 3584 
Q 2591 3584 2966 3190 
Q 3341 2797 3341 1997 
z
" transform="scale(0.015625)"/>
           <path id="DejaVuSans-67" d="M 2906 1791 
Q 2906 2416 2648 2759 
Q 2391 3103 1925 3103 
Q 1463 3103 1205 2759 
Q 947 2416 947 1791 
Q 947 1169 1205 825 
Q 1463 481 1925 481 
Q 2391 481 2648 825 
Q 2906 1169 2906 1791 
z
M 3481 434 
Q 3481 -459 3084 -895 
Q 2688 -1331 1869 -1331 
Q 1566 -1331 1297 -1286 
Q 1028 -1241 775 -1147 
L 775 -588 
Q 1028 -725 1275 -790 
Q 1522 -856 1778 -856 
Q 2344 -856 2625 -561 
Q 2906 -266 2906 331 
L 2906 616 
Q 2728 306 2450 153 
Q 2172 0 1784 0 
Q 1141 0 747 490 
Q 353 981 353 1791 
Q 353 2603 747 3093 
Q 1141 3584 1784 3584 
Q 2172 3584 2450 3431 
Q 2728 3278 2906 2969 
L 2906 3500 
L 3481 3500 
L 3481 434 
z
" transform="scale(0.015625)"/>
           <path id="DejaVuSans-6f" d="M 1959 3097 
Q 1497 3097 1228 2736 
Q 959 2375 959 1747 
Q 959 1119 1226 758 
Q 1494 397 1959 397 
Q 2419 397 2687 759 
Q 2956 1122 2956 1747 
Q 2956 2369 2687 2733 
Q 2419 3097 1959 3097 
z
M 1959 3584 
Q 2709 3584 3137 3096 
Q 3566 2609 3566 1747 
Q 3566 888 3137 398 
Q 2709 -91 1959 -91 
Q 1206 -91 779 398 
Q 353 888 353 1747 
Q 353 2609 779 3096 
Q 1206 3584 1959 3584 
z
" transform="scale(0.015625)"/>
           <path id="DejaVuSans-28" d="M 1984 4856 
Q 1566 4138 1362 3434 
Q 1159 2731 1159 2009 
Q 1159 1288 1364 580 
Q 1569 -128 1984 -844 
L 1484 -844 
Q 1016 -109 783 600 
Q 550 1309 550 2009 
Q 550 2706 781 3412 
Q 1013 4119 1484 4856 
L 1984 4856 
z
" transform="scale(0.015625)"/>
           <path id="DejaVuSans-6e" d="M 3513 2113 
L 3513 0 
L 2938 0 
L 2938 2094 
Q 2938 2591 2744 2837 
Q 2550 3084 2163 3084 
Q 1697 3084 1428 2787 
Q 1159 2491 1159 1978 
L 1159 0 
L 581 0 
L 581 3500 
L 1159 3500 
L 1159 2956 
Q 1366 3272 1645 3428 
Q 1925 3584 2291 3584 
Q 2894 3584 3203 3211 
Q 3513 2838 3513 2113 
z
" transform="scale(0.015625)"/>
           <path id="DejaVuSans-72" d="M 2631 2963 
Q 2534 3019 2420 3045 
Q 2306 3072 2169 3072 
Q 1681 3072 1420 2755 
Q 1159 2438 1159 1844 
L 1159 0 
L 581 0 
L 581 3500 
L 1159 3500 
L 1159 2956 
Q 1341 3275 1631 3429 
Q 1922 3584 2338 3584 
Q 2397 3584 2469 3576 
Q 2541 3569 2628 3553 
L 2631 2963 
z
" transform="scale(0.015625)"/>
           <path id="DejaVuSans-73" d="M 2834 3397 
L 2834 2853 
Q 2591 2978 2328 3040 
Q 2066 3103 1784 3103 
Q 1356 3103 1142 2972 
Q 928 2841 928 2578 
Q 928 2378 1081 2264 
Q 1234 2150 1697 2047 
L 1894 2003 
Q 2506 1872 2764 1633 
Q 3022 1394 3022 966 
Q 3022 478 2636 193 
Q 2250 -91 1575 -91 
Q 1294 -91 989 -36 
Q 684 19 347 128 
L 347 722 
Q 666 556 975 473 
Q 1284 391 1588 391 
Q 1994 391 2212 530 
Q 2431 669 2431 922 
Q 2431 1156 2273 1281 
Q 2116 1406 1581 1522 
L 1381 1569 
Q 847 1681 609 1914 
Q 372 2147 372 2553 
Q 372 3047 722 3315 
Q 1072 3584 1716 3584 
Q 2034 3584 2315 3537 
Q 2597 3491 2834 3397 
z
" transform="scale(0.015625)"/>
           <path id="DejaVuSans-29" d="M 513 4856 
L 1013 4856 
Q 1481 4119 1714 3412 
Q 1947 2706 1947 2009 
Q 1947 1309 1714 600 
Q 1481 -109 1013 -844 
L 513 -844 
Q 928 -128 1133 580 
Q 1338 1288 1338 2009 
Q 1338 2731 1133 3434 
Q 928 4138 513 4856 
z
" transform="scale(0.015625)"/>
          </defs>
          <use xlink:href="#DejaVuSans-74"/>
          <use xlink:href="#DejaVuSans-69" x="39.208984"/>
          <use xlink:href="#DejaVuSans-6d" x="66.992188"/>
          <use xlink:href="#DejaVuSans-65" x="164.404297"/>
          <use xlink:href="#DejaVuSans-20" x="225.927734"/>
          <use xlink:href="#DejaVuSans-61" x="257.714844"/>
          <use xlink:href="#DejaVuSans-67" x="318.994141"/>
          <use xlink:href="#DejaVuSans-6f" x="382.470703"/>
          <use xlink:href="#DejaVuSans-20" x="443.652344"/>
          <use xlink:href="#DejaVuSans-28" x="475.439453"/>
          <use xlink:href="#DejaVuSans-67" x="514.453125"/>
          <use xlink:href="#DejaVuSans-65" x="577.929688"/>
          <use xlink:href="#DejaVuSans-6e" x="639.453125"/>
          <use xlink:href="#DejaVuSans-65" x="702.832031"/>
          <use xlink:href="#DejaVuSans-72" x="764.355469"/>
          <use xlink:href="#DejaVuSans-61" x="805.46875"/>
          <use xlink:href="#DejaVuSans-74" x="866.748047"/>
          <use xlink:href="#DejaVuSans-69" x="905.957031"/>
          <use xlink:href="#DejaVuSans-6f" x="933.740234"/>
          <use xlink:href="#DejaVuSans-6e" x="994.921875"/>
          <use xlink:href="#DejaVuSans-73" x="1058.300781"/>
          <use xlink:href="#DejaVuSans-29" x="1110.400391"/>
         </g>
        </g>
       </g>
       <g id="patch_7">
        <path d="M 237.549446 252.371863 
L 236.549446 252.340427 
L 235.549446 252.303486 
L 234.549446 252.20574 
L 233.549446 252.173218 
L 232.549446 252.099593 
L 231.549446 252.061028 
L 230.549446 252.025615 
L 229.549446 251.967975 
L 228.549446 251.897589 
L 227.549446 251.845624 
L 226.549446 251.786535 
L 225.549446 251.698214 
L 224.549446 251.652069 
L 223.549446 251.609658 
L 222.549446 251.579166 
L 221.549446 251.553121 
L 220.549446 251.531921 
L 219.549446 251.47762 
L 218.549446 251.449682 
L 217.549446 251.419958 
L 216.549446 251.394563 
L 215.549446 251.383363 
L 214.549446 251.373239 
L 213.549446 251.373443 
L 212.549446 251.382953 
L 211.549446 251.394607 
L 210.549446 251.425636 
L 209.549446 251.436804 
L 208.549446 251.466921 
L 207.549446 251.526698 
L 206.549446 251.56389 
L 205.549446 251.602986 
L 204.549446 251.645426 
L 203.549446 251.678191 
L 202.549446 251.745617 
L 201.549446 251.784743 
L 200.549446 251.827418 
L 199.549446 251.897998 
L 198.549446 251.934389 
L 197.549446 251.992792 
L 196.549446 252.103745 
L 195.549446 252.174403 
L 194.549446 252.287343 
L 193.549446 252.333116 
L 192.549446 252.394399 
L 191.549446 252.442898 
L 190.549446 252.523721 
L 189.549446 252.64224 
L 188.549446 252.712451 
L 187.549446 252.795713 
L 186.549446 252.828855 
L 185.549446 252.880092 
L 184.549446 252.948491 
L 183.549446 253.014706 
L 182.549446 253.091623 
L 181.549446 253.118939 
L 180.549446 253.145416 
L 179.549446 253.168067 
L 178.549446 253.187598 
L 177.549446 253.213992 
L 176.464806 253.263763 
" clip-path="url(#p9a0079b3d3)" style="fill: none; stroke: #ffffff; stroke-width: 3; stroke-linecap: round"/>
        <path d="M 237.549446 252.371863 
L 236.549446 252.340427 
L 235.549446 252.303486 
L 234.549446 252.20574 
L 233.549446 252.173218 
L 232.549446 252.099593 
L 231.549446 252.061028 
L 230.549446 252.025615 
L 229.549446 251.967975 
L 228.549446 251.897589 
L 227.549446 251.845624 
L 226.549446 251.786535 
L 225.549446 251.698214 
L 224.549446 251.652069 
L 223.549446 251.609658 
L 222.549446 251.579166 
L 221.549446 251.553121 
L 220.549446 251.531921 
L 219.549446 251.47762 
L 218.549446 251.449682 
L 217.549446 251.419958 
L 216.549446 251.394563 
L 215.549446 251.383363 
L 214.549446 251.373239 
L 213.549446 251.373443 
L 212.549446 251.382953 
L 211.549446 251.394607 
L 210.549446 251.425636 
L 209.549446 251.436804 
L 208.549446 251.466921 
L 207.549446 251.526698 
L 206.549446 251.56389 
L 205.549446 251.602986 
L 204.549446 251.645426 
L 203.549446 251.678191 
L 202.549446 251.745617 
L 201.549446 251.784743 
L 200.549446 251.827418 
L 199.549446 251.897998 
L 198.549446 251.934389 
L 197.549446 251.992792 
L 196.549446 252.103745 
L 195.549446 252.174403 
L 194.549446 252.287343 
L 193.549446 252.333116 
L 192.549446 252.394399 
L 191.549446 252.442898 
L 190.549446 252.523721 
L 189.549446 252.64224 
L 188.549446 252.712451 
L 187.549446 252.795713 
L 186.549446 252.828855 
L 185.549446 252.880092 
L 184.549446 252.948491 
L 183.549446 253.014706 
L 182.549446 253.091623 
L 181.549446 253.118939 
L 180.549446 253.145416 
L 179.549446 253.168067 
L 178.549446 253.187598 
L 177.549446 253.213992 
L 176.464806 253.263763 
" clip-path="url(#p9a0079b3d3)" style="fill: none; stroke: #1f77b4; stroke-linecap: round"/>
        <path d="M 180.464806 254.371863 
L 179.584437 253.896532 
L 178.70653 253.416278 
L 177.855817 252.881637 
L 176.553642 252.19419 
L 177.480995 252.168175 
L 178.39267 251.755455 
L 179.302934 251.339916 
L 180.64543 250.733112 
L 179.990531 251.371863 
L 179.938567 252.371863 
L 179.879477 254.371863 
z
" clip-path="url(#p9a0079b3d3)" style="fill: #ffffff; stroke: #ffffff; stroke-width: 3; stroke-linecap: round"/>
        <path d="M 180.464806 254.371863 
L 179.584437 253.896532 
L 178.70653 253.416278 
L 177.855817 252.881637 
L 176.553642 252.19419 
L 177.480995 252.168175 
L 178.39267 251.755455 
L 179.302934 251.339916 
L 180.64543 250.733112 
L 179.990531 251.371863 
L 179.938567 252.371863 
L 179.879477 254.371863 
z
" clip-path="url(#p9a0079b3d3)" style="fill: #ffffff; stroke: #1f77b4; stroke-linecap: round"/>
        <g id="patch_8">
         <path d="M 383.072172 72.964375 
L 384.072172 72.995811 
L 385.072172 73.032752 
L 386.072172 73.130498 
L 387.072172 73.16302 
L 388.072172 73.236645 
L 389.072172 73.27521 
L 390.072172 73.310623 
L 391.072172 73.368263 
L 392.072172 73.438649 
L 393.072172 73.490614 
L 394.072172 73.549703 
L 395.072172 73.638024 
L 396.072172 73.684169 
L 397.072172 73.72658 
L 398.072172 73.757072 
L 399.072172 73.783117 
L 400.072172 73.804317 
L 401.072172 73.858618 
L 402.072172 73.886556 
L 403.072172 73.91628 
L 404.072172 73.941675 
L 405.072172 73.952875 
L 406.072172 73.962999 
L 407.072172 73.962795 
L 408.072172 73.953285 
L 409.072172 73.941631 
L 410.072172 73.910602 
L 411.072172 73.899434 
L 412.072172 73.869317 
L 413.072172 73.80954 
L 414.072172 73.772348 
L 415.072172 73.733252 
L 416.072172 73.690812 
L 417.072172 73.658047 
L 418.072172 73.590621 
L 419.072172 73.551495 
L 420.072172 73.50882 
L 421.072172 73.43824 
L 422.072172 73.401849 
L 423.072172 73.343446 
L 424.072172 73.232493 
L 425.072172 73.161835 
L 426.072172 73.048895 
L 427.072172 73.003122 
L 428.072172 72.941839 
L 429.072172 72.89334 
L 430.072172 72.812517 
L 431.072172 72.693998 
L 432.072172 72.623787 
L 433.072172 72.540525 
L 434.072172 72.507383 
L 435.072172 72.456146 
L 436.072172 72.387747 
L 437.072172 72.321532 
L 438.072172 72.244615 
L 439.072172 72.217299 
L 440.072172 72.190822 
L 441.072172 72.168171 
L 442.072172 72.14864 
L 443.072172 72.122246 
L 444.072172 72.072475 
L 445.072172 72.037402 
L 446.072172 72.001536 
L 447.072172 71.986169 
L 448.072172 71.9704 
L 449.072172 71.966987 
L 450.072172 71.96457 
L 451.072172 71.965056 
L 452.072172 71.966985 
L 453.072172 71.980242 
L 454.072172 71.988633 
L 455.072172 72.010169 
L 456.072172 72.033202 
L 457.072172 72.050435 
L 458.072172 72.068898 
L 459.072172 72.08935 
L 460.072172 72.10595 
L 461.072172 72.168729 
L 462.072172 72.243994 
L 463.072172 72.276633 
L 464.072172 72.344197 
L 465.072172 72.398244 
L 466.072172 72.431948 
L 467.072172 72.522074 
L 468.072172 72.550609 
L 469.072172 72.582095 
L 470.072172 72.613106 
L 471.072172 72.667914 
L 472.072172 72.732501 
L 473.072172 72.770697 
L 474.072172 72.866631 
L 475.072172 72.915889 
L 476.072172 72.959958 
L 477.072172 73.000082 
L 478.072172 73.108449 
L 479.072172 73.150077 
L 480.072172 73.212219 
L 481.072172 73.282181 
L 482.072172 73.386685 
L 483.072172 73.423673 
L 484.072172 73.46955 
L 485.072172 73.538045 
L 486.072172 73.586791 
L 487.072172 73.664388 
L 488.072172 73.694929 
L 489.072172 73.764443 
L 490.072172 73.788416 
L 491.072172 73.817038 
L 492.072172 73.858831 
L 493.072172 73.880407 
L 494.072172 73.894355 
L 495.072172 73.921077 
L 496.072172 73.930387 
L 497.072172 73.942834 
L 498.072172 73.953889 
L 499.072172 73.959553 
L 500.072172 73.964317 
L 501.072172 73.958769 
L 502.072172 73.945481 
L 503.072172 73.937964 
L 504.072172 73.913179 
L 505.072172 73.88961 
L 506.072172 73.85343 
L 507.072172 73.827468 
L 508.072172 73.805146 
L 509.072172 73.736386 
L 510.072172 73.661851 
L 511.072172 73.567872 
L 512.072172 73.51682 
L 513.072172 73.462886 
L 514.072172 73.427635 
L 515.072172 73.321547 
L 516.072172 73.269283 
L 517.702817 73.232376 
" clip-path="url(#p9a0079b3d3)" style="fill: none; stroke: #ffffff; stroke-width: 3; stroke-linecap: round"/>
         <path d="M 383.072172 72.964375 
L 384.072172 72.995811 
L 385.072172 73.032752 
L 386.072172 73.130498 
L 387.072172 73.16302 
L 388.072172 73.236645 
L 389.072172 73.27521 
L 390.072172 73.310623 
L 391.072172 73.368263 
L 392.072172 73.438649 
L 393.072172 73.490614 
L 394.072172 73.549703 
L 395.072172 73.638024 
L 396.072172 73.684169 
L 397.072172 73.72658 
L 398.072172 73.757072 
L 399.072172 73.783117 
L 400.072172 73.804317 
L 401.072172 73.858618 
L 402.072172 73.886556 
L 403.072172 73.91628 
L 404.072172 73.941675 
L 405.072172 73.952875 
L 406.072172 73.962999 
L 407.072172 73.962795 
L 408.072172 73.953285 
L 409.072172 73.941631 
L 410.072172 73.910602 
L 411.072172 73.899434 
L 412.072172 73.869317 
L 413.072172 73.80954 
L 414.072172 73.772348 
L 415.072172 73.733252 
L 416.072172 73.690812 
L 417.072172 73.658047 
L 418.072172 73.590621 
L 419.072172 73.551495 
L 420.072172 73.50882 
L 421.072172 73.43824 
L 422.072172 73.401849 
L 423.072172 73.343446 
L 424.072172 73.232493 
L 425.072172 73.161835 
L 426.072172 73.048895 
L 427.072172 73.003122 
L 428.072172 72.941839 
L 429.072172 72.89334 
L 430.072172 72.812517 
L 431.072172 72.693998 
L 432.072172 72.623787 
L 433.072172 72.540525 
L 434.072172 72.507383 
L 435.072172 72.456146 
L 436.072172 72.387747 
L 437.072172 72.321532 
L 438.072172 72.244615 
L 439.072172 72.217299 
L 440.072172 72.190822 
L 441.072172 72.168171 
L 442.072172 72.14864 
L 443.072172 72.122246 
L 444.072172 72.072475 
L 445.072172 72.037402 
L 446.072172 72.001536 
L 447.072172 71.986169 
L 448.072172 71.9704 
L 449.072172 71.966987 
L 450.072172 71.96457 
L 451.072172 71.965056 
L 452.072172 71.966985 
L 453.072172 71.980242 
L 454.072172 71.988633 
L 455.072172 72.010169 
L 456.072172 72.033202 
L 457.072172 72.050435 
L 458.072172 72.068898 
L 459.072172 72.08935 
L 460.072172 72.10595 
L 461.072172 72.168729 
L 462.072172 72.243994 
L 463.072172 72.276633 
L 464.072172 72.344197 
L 465.072172 72.398244 
L 466.072172 72.431948 
L 467.072172 72.522074 
L 468.072172 72.550609 
L 469.072172 72.582095 
L 470.072172 72.613106 
L 471.072172 72.667914 
L 472.072172 72.732501 
L 473.072172 72.770697 
L 474.072172 72.866631 
L 475.072172 72.915889 
L 476.072172 72.959958 
L 477.072172 73.000082 
L 478.072172 73.108449 
L 479.072172 73.150077 
L 480.072172 73.212219 
L 481.072172 73.282181 
L 482.072172 73.386685 
L 483.072172 73.423673 
L 484.072172 73.46955 
L 485.072172 73.538045 
L 486.072172 73.586791 
L 487.072172 73.664388 
L 488.072172 73.694929 
L 489.072172 73.764443 
L 490.072172 73.788416 
L 491.072172 73.817038 
L 492.072172 73.858831 
L 493.072172 73.880407 
L 494.072172 73.894355 
L 495.072172 73.921077 
L 496.072172 73.930387 
L 497.072172 73.942834 
L 498.072172 73.953889 
L 499.072172 73.959553 
L 500.072172 73.964317 
L 501.072172 73.958769 
L 502.072172 73.945481 
L 503.072172 73.937964 
L 504.072172 73.913179 
L 505.072172 73.88961 
L 506.072172 73.85343 
L 507.072172 73.827468 
L 508.072172 73.805146 
L 509.072172 73.736386 
L 510.072172 73.661851 
L 511.072172 73.567872 
L 512.072172 73.51682 
L 513.072172 73.462886 
L 514.072172 73.427635 
L 515.072172 73.321547 
L 516.072172 73.269283 
L 517.702817 73.232376 
" clip-path="url(#p9a0079b3d3)" style="fill: none; stroke: #1f77b4; stroke-linecap: round"/>
         <path d="M 513.702817 70.964375 
L 514.583186 71.439706 
L 515.461093 71.91996 
L 516.311806 72.454601 
L 517.613981 73.142048 
L 516.686627 73.168063 
L 515.774953 73.580783 
L 514.864689 73.996322 
L 513.522193 74.603126 
L 514.177092 73.964375 
L 514.229056 72.964375 
L 514.288146 70.964375 
z
" clip-path="url(#p9a0079b3d3)" style="fill: #ffffff; stroke: #ffffff; stroke-width: 3; stroke-linecap: round"/>
         <path d="M 513.702817 70.964375 
L 514.583186 71.439706 
L 515.461093 71.91996 
L 516.311806 72.454601 
L 517.613981 73.142048 
L 516.686627 73.168063 
L 515.774953 73.580783 
L 514.864689 73.996322 
L 513.522193 74.603126 
L 514.177092 73.964375 
L 514.229056 72.964375 
L 514.288146 70.964375 
z
" clip-path="url(#p9a0079b3d3)" style="fill: #ffffff; stroke: #1f77b4; stroke-linecap: round"/>
         <g id="patch_9">
          <path d="M 175.340949 255.046323 
L 176.340949 255.077759 
L 177.340949 255.1147 
L 178.340949 255.212446 
L 179.340949 255.244968 
L 180.340949 255.318593 
L 181.340949 255.357158 
L 182.340949 255.392571 
L 183.340949 255.450211 
L 184.340949 255.520597 
L 185.340949 255.572562 
L 186.340949 255.631651 
L 187.340949 255.719972 
L 188.340949 255.766117 
L 189.340949 255.808528 
L 190.340949 255.83902 
L 191.340949 255.865065 
L 192.340949 255.886265 
L 193.340949 255.940566 
L 194.340949 255.968504 
L 195.340949 255.998228 
L 196.340949 256.023623 
L 197.340949 256.034823 
L 198.340949 256.044947 
L 199.340949 256.044743 
L 200.340949 256.035233 
L 201.340949 256.023579 
L 202.340949 255.99255 
L 203.340949 255.981382 
L 204.340949 255.951265 
L 205.340949 255.891488 
L 206.340949 255.854296 
L 207.340949 255.8152 
L 208.340949 255.77276 
L 209.340949 255.739995 
L 210.340949 255.672569 
L 211.340949 255.633443 
L 212.340949 255.590768 
L 213.340949 255.520188 
L 214.340949 255.483797 
L 215.340949 255.425394 
L 216.340949 255.314441 
L 217.340949 255.243783 
L 218.340949 255.130843 
L 219.340949 255.08507 
L 220.340949 255.023787 
L 221.340949 254.975288 
L 222.340949 254.894465 
L 223.340949 254.775946 
L 224.340949 254.705735 
L 225.340949 254.622473 
L 226.340949 254.589331 
L 227.340949 254.538094 
L 228.340949 254.469695 
L 229.340949 254.40348 
L 230.340949 254.326563 
L 231.340949 254.299248 
L 232.340949 254.27277 
L 233.340949 254.250119 
L 234.340949 254.230588 
L 235.340949 254.204194 
L 236.340949 254.154423 
L 237.340949 254.11935 
L 238.340949 254.083484 
L 239.340949 254.068117 
L 240.340949 254.052348 
L 241.340949 254.048935 
L 242.340949 254.046518 
L 243.340949 254.047004 
L 244.340949 254.048933 
L 245.340949 254.06219 
L 246.340949 254.070581 
L 247.340949 254.092117 
L 248.340949 254.11515 
L 249.340949 254.132383 
L 250.340949 254.150846 
L 251.340949 254.171298 
L 252.340949 254.187898 
L 253.340949 254.250677 
L 254.340949 254.325942 
L 255.340949 254.358581 
L 256.340949 254.426145 
L 257.340949 254.480192 
L 258.340949 254.513896 
L 259.340949 254.604022 
L 260.340949 254.632557 
L 261.340949 254.664043 
L 262.340949 254.695054 
L 263.340949 254.749862 
L 264.340949 254.814449 
L 265.340949 254.852645 
L 266.340949 254.948579 
L 267.340949 254.997837 
L 268.340949 255.041906 
L 269.340949 255.08203 
L 270.340949 255.190397 
L 271.340949 255.232025 
L 272.340949 255.294167 
L 273.340949 255.364129 
L 274.340949 255.468633 
L 275.340949 255.505621 
L 276.340949 255.551498 
L 277.340949 255.619993 
L 278.340949 255.668739 
L 279.340949 255.746336 
L 280.340949 255.776877 
L 281.340949 255.846391 
L 282.340949 255.870364 
L 283.340949 255.898986 
L 284.340949 255.940779 
L 285.340949 255.962355 
L 286.340949 255.976303 
L 287.340949 256.003025 
L 288.340949 256.012335 
L 289.340949 256.024782 
L 290.340949 256.035837 
L 291.340949 256.041501 
L 292.340949 256.046265 
L 293.340949 256.040718 
L 294.340949 256.027429 
L 295.340949 256.019912 
L 296.340949 255.995127 
L 297.340949 255.971558 
L 298.340949 255.935378 
L 299.340949 255.909416 
L 300.340949 255.887094 
L 301.340949 255.818334 
L 302.340949 255.743799 
L 303.340949 255.64982 
L 304.340949 255.598768 
L 305.340949 255.544834 
L 306.340949 255.509583 
L 307.340949 255.403495 
L 308.340949 255.351231 
L 309.340949 255.314324 
L 310.340949 255.283294 
L 311.340949 255.222138 
L 312.340949 255.154718 
L 313.340949 255.105812 
L 314.340949 255.04062 
L 315.340949 255.002432 
L 316.340949 254.960436 
L 317.340949 254.918419 
L 318.340949 254.858903 
L 319.340949 254.745743 
L 320.340949 254.693492 
L 321.340949 254.654074 
L 322.340949 254.606973 
L 323.340949 254.550194 
L 324.340949 254.51753 
L 325.340949 254.481352 
L 326.340949 254.449262 
L 327.340949 254.414982 
L 328.340949 254.356604 
L 329.340949 254.311419 
L 330.340949 254.281795 
L 331.340949 254.231409 
L 332.340949 254.206212 
L 333.340949 254.185161 
L 334.340949 254.150193 
L 335.340949 254.125903 
L 336.340949 254.111836 
L 337.340949 254.092894 
L 338.340949 254.077233 
L 339.340949 254.064681 
L 340.340949 254.058845 
L 341.340949 254.051963 
L 342.340949 254.046789 
L 343.340949 254.048572 
L 344.340949 254.051297 
L 345.340949 254.062451 
L 346.340949 254.090686 
L 347.340949 254.134474 
L 348.340949 254.155163 
L 349.340949 254.196136 
L 350.340949 254.236211 
L 351.340949 254.255321 
L 352.340949 254.27783 
L 353.340949 254.344481 
L 354.340949 254.394191 
L 355.340949 254.467897 
L 356.340949 254.499211 
L 357.340949 254.575833 
L 358.340949 254.614131 
L 359.340949 254.688248 
L 360.340949 254.792306 
L 361.340949 254.862137 
L 362.340949 254.967371 
L 363.340949 255.022386 
L 364.340949 255.145861 
L 365.340949 255.21642 
L 366.340949 255.332259 
L 367.340949 255.38244 
L 368.340949 255.418044 
L 369.340949 255.509451 
L 370.340949 255.562959 
L 371.340949 255.650867 
L 372.340949 255.720052 
L 373.340949 255.766816 
L 374.340949 255.83886 
L 375.340949 255.889002 
L 376.340949 255.906392 
L 377.340949 255.933395 
L 378.340949 255.952822 
L 379.340949 255.972161 
L 380.340949 256.010409 
L 381.340949 256.026842 
L 382.340949 256.035211 
L 383.340949 256.03953 
L 384.340949 256.046085 
L 385.340949 256.043539 
L 386.340949 256.03808 
L 387.340949 256.021652 
L 388.340949 255.989717 
L 389.340949 255.951737 
L 390.340949 255.916933 
L 391.340949 255.853861 
L 392.340949 255.832434 
L 393.340949 255.781816 
L 394.340949 255.756859 
L 395.340949 255.701226 
L 396.340949 255.669996 
L 397.340949 255.619852 
L 398.340949 255.587359 
L 399.340949 255.506947 
L 400.340949 255.438021 
L 401.340949 255.322324 
L 402.340949 255.246845 
L 403.340949 255.13132 
L 404.340949 255.051836 
L 405.340949 254.943395 
L 406.340949 254.904027 
L 407.340949 254.801159 
L 408.340949 254.701361 
L 409.340949 254.655864 
L 410.340949 254.621542 
L 411.340949 254.569586 
L 412.340949 254.529939 
L 413.899322 254.494425 
" clip-path="url(#p9a0079b3d3)" style="fill: none; stroke: #ffffff; stroke-width: 3; stroke-linecap: round"/>
          <path d="M 175.340949 255.046323 
L 176.340949 255.077759 
L 177.340949 255.1147 
L 178.340949 255.212446 
L 179.340949 255.244968 
L 180.340949 255.318593 
L 181.340949 255.357158 
L 182.340949 255.392571 
L 183.340949 255.450211 
L 184.340949 255.520597 
L 185.340949 255.572562 
L 186.340949 255.631651 
L 187.340949 255.719972 
L 188.340949 255.766117 
L 189.340949 255.808528 
L 190.340949 255.83902 
L 191.340949 255.865065 
L 192.340949 255.886265 
L 193.340949 255.940566 
L 194.340949 255.968504 
L 195.340949 255.998228 
L 196.340949 256.023623 
L 197.340949 256.034823 
L 198.340949 256.044947 
L 199.340949 256.044743 
L 200.340949 256.035233 
L 201.340949 256.023579 
L 202.340949 255.99255 
L 203.340949 255.981382 
L 204.340949 255.951265 
L 205.340949 255.891488 
L 206.340949 255.854296 
L 207.340949 255.8152 
L 208.340949 255.77276 
L 209.340949 255.739995 
L 210.340949 255.672569 
L 211.340949 255.633443 
L 212.340949 255.590768 
L 213.340949 255.520188 
L 214.340949 255.483797 
L 215.340949 255.425394 
L 216.340949 255.314441 
L 217.340949 255.243783 
L 218.340949 255.130843 
L 219.340949 255.08507 
L 220.340949 255.023787 
L 221.340949 254.975288 
L 222.340949 254.894465 
L 223.340949 254.775946 
L 224.340949 254.705735 
L 225.340949 254.622473 
L 226.340949 254.589331 
L 227.340949 254.538094 
L 228.340949 254.469695 
L 229.340949 254.40348 
L 230.340949 254.326563 
L 231.340949 254.299248 
L 232.340949 254.27277 
L 233.340949 254.250119 
L 234.340949 254.230588 
L 235.340949 254.204194 
L 236.340949 254.154423 
L 237.340949 254.11935 
L 238.340949 254.083484 
L 239.340949 254.068117 
L 240.340949 254.052348 
L 241.340949 254.048935 
L 242.340949 254.046518 
L 243.340949 254.047004 
L 244.340949 254.048933 
L 245.340949 254.06219 
L 246.340949 254.070581 
L 247.340949 254.092117 
L 248.340949 254.11515 
L 249.340949 254.132383 
L 250.340949 254.150846 
L 251.340949 254.171298 
L 252.340949 254.187898 
L 253.340949 254.250677 
L 254.340949 254.325942 
L 255.340949 254.358581 
L 256.340949 254.426145 
L 257.340949 254.480192 
L 258.340949 254.513896 
L 259.340949 254.604022 
L 260.340949 254.632557 
L 261.340949 254.664043 
L 262.340949 254.695054 
L 263.340949 254.749862 
L 264.340949 254.814449 
L 265.340949 254.852645 
L 266.340949 254.948579 
L 267.340949 254.997837 
L 268.340949 255.041906 
L 269.340949 255.08203 
L 270.340949 255.190397 
L 271.340949 255.232025 
L 272.340949 255.294167 
L 273.340949 255.364129 
L 274.340949 255.468633 
L 275.340949 255.505621 
L 276.340949 255.551498 
L 277.340949 255.619993 
L 278.340949 255.668739 
L 279.340949 255.746336 
L 280.340949 255.776877 
L 281.340949 255.846391 
L 282.340949 255.870364 
L 283.340949 255.898986 
L 284.340949 255.940779 
L 285.340949 255.962355 
L 286.340949 255.976303 
L 287.340949 256.003025 
L 288.340949 256.012335 
L 289.340949 256.024782 
L 290.340949 256.035837 
L 291.340949 256.041501 
L 292.340949 256.046265 
L 293.340949 256.040718 
L 294.340949 256.027429 
L 295.340949 256.019912 
L 296.340949 255.995127 
L 297.340949 255.971558 
L 298.340949 255.935378 
L 299.340949 255.909416 
L 300.340949 255.887094 
L 301.340949 255.818334 
L 302.340949 255.743799 
L 303.340949 255.64982 
L 304.340949 255.598768 
L 305.340949 255.544834 
L 306.340949 255.509583 
L 307.340949 255.403495 
L 308.340949 255.351231 
L 309.340949 255.314324 
L 310.340949 255.283294 
L 311.340949 255.222138 
L 312.340949 255.154718 
L 313.340949 255.105812 
L 314.340949 255.04062 
L 315.340949 255.002432 
L 316.340949 254.960436 
L 317.340949 254.918419 
L 318.340949 254.858903 
L 319.340949 254.745743 
L 320.340949 254.693492 
L 321.340949 254.654074 
L 322.340949 254.606973 
L 323.340949 254.550194 
L 324.340949 254.51753 
L 325.340949 254.481352 
L 326.340949 254.449262 
L 327.340949 254.414982 
L 328.340949 254.356604 
L 329.340949 254.311419 
L 330.340949 254.281795 
L 331.340949 254.231409 
L 332.340949 254.206212 
L 333.340949 254.185161 
L 334.340949 254.150193 
L 335.340949 254.125903 
L 336.340949 254.111836 
L 337.340949 254.092894 
L 338.340949 254.077233 
L 339.340949 254.064681 
L 340.340949 254.058845 
L 341.340949 254.051963 
L 342.340949 254.046789 
L 343.340949 254.048572 
L 344.340949 254.051297 
L 345.340949 254.062451 
L 346.340949 254.090686 
L 347.340949 254.134474 
L 348.340949 254.155163 
L 349.340949 254.196136 
L 350.340949 254.236211 
L 351.340949 254.255321 
L 352.340949 254.27783 
L 353.340949 254.344481 
L 354.340949 254.394191 
L 355.340949 254.467897 
L 356.340949 254.499211 
L 357.340949 254.575833 
L 358.340949 254.614131 
L 359.340949 254.688248 
L 360.340949 254.792306 
L 361.340949 254.862137 
L 362.340949 254.967371 
L 363.340949 255.022386 
L 364.340949 255.145861 
L 365.340949 255.21642 
L 366.340949 255.332259 
L 367.340949 255.38244 
L 368.340949 255.418044 
L 369.340949 255.509451 
L 370.340949 255.562959 
L 371.340949 255.650867 
L 372.340949 255.720052 
L 373.340949 255.766816 
L 374.340949 255.83886 
L 375.340949 255.889002 
L 376.340949 255.906392 
L 377.340949 255.933395 
L 378.340949 255.952822 
L 379.340949 255.972161 
L 380.340949 256.010409 
L 381.340949 256.026842 
L 382.340949 256.035211 
L 383.340949 256.03953 
L 384.340949 256.046085 
L 385.340949 256.043539 
L 386.340949 256.03808 
L 387.340949 256.021652 
L 388.340949 255.989717 
L 389.340949 255.951737 
L 390.340949 255.916933 
L 391.340949 255.853861 
L 392.340949 255.832434 
L 393.340949 255.781816 
L 394.340949 255.756859 
L 395.340949 255.701226 
L 396.340949 255.669996 
L 397.340949 255.619852 
L 398.340949 255.587359 
L 399.340949 255.506947 
L 400.340949 255.438021 
L 401.340949 255.322324 
L 402.340949 255.246845 
L 403.340949 255.13132 
L 404.340949 255.051836 
L 405.340949 254.943395 
L 406.340949 254.904027 
L 407.340949 254.801159 
L 408.340949 254.701361 
L 409.340949 254.655864 
L 410.340949 254.621542 
L 411.340949 254.569586 
L 412.340949 254.529939 
L 413.899322 254.494425 
" clip-path="url(#p9a0079b3d3)" style="fill: none; stroke: #ff7f0e; stroke-linecap: round"/>
          <path d="M 409.899322 253.046323 
L 410.77969 253.521654 
L 411.657597 254.001908 
L 412.508311 254.536549 
L 413.810485 255.223996 
L 412.883132 255.250011 
L 411.971458 255.662731 
L 411.061193 256.07827 
L 409.718697 256.685074 
L 410.373596 256.046323 
L 410.42556 255.046323 
L 410.48465 253.046323 
z
" clip-path="url(#p9a0079b3d3)" style="fill: #ffffff; stroke: #ffffff; stroke-width: 3; stroke-linecap: round"/>
          <path d="M 409.899322 253.046323 
L 410.77969 253.521654 
L 411.657597 254.001908 
L 412.508311 254.536549 
L 413.810485 255.223996 
L 412.883132 255.250011 
L 411.971458 255.662731 
L 411.061193 256.07827 
L 409.718697 256.685074 
L 410.373596 256.046323 
L 410.42556 255.046323 
L 410.48465 253.046323 
z
" clip-path="url(#p9a0079b3d3)" style="fill: #ffffff; stroke: #ff7f0e; stroke-linecap: round"/>
          <path d="M 448.623188 304.044449 
" clip-path="url(#p9a0079b3d3)" style="fill: none; stroke-dasharray: 3.7,1.6; stroke-dashoffset: 0; stroke: #2ca02c"/>
          <path d="M 447.623188 304.044449 
L 449.623188 305.044449 
L 449.623188 303.044449 
z
" clip-path="url(#p9a0079b3d3)" style="fill: #2ca02c; stroke: #2ca02c; stroke-linejoin: miter"/>
          <g id="patch_10">
           <path d="M 63.290625 321.621875 
L 63.290625 10.8 
" style="fill: none; stroke: #000000; stroke-width: 0.8; stroke-linejoin: miter; stroke-linecap: square"/>
          </g>
          <g id="text_13">
           <g id="patch_11">
            <path d="M 299.658506 138.424994 
L 320.963194 138.424994 
Q 322.963194 138.424994 322.963194 136.424994 
L 322.963194 126.746869 
Q 322.963194 124.746869 320.963194 124.746869 
L 299.658506 124.746869 
Q 297.658506 124.746869 297.658506 126.746869 
L 297.658506 136.424994 
Q 297.658506 138.424994 299.658506 138.424994 
z
" style="fill: #ffffff; opacity: 0.6"/>
           </g>
           <!-- ANC -->
           <g transform="translate(299.658506 134.345306) scale(0.1 -0.1)">
            <defs>
             <path id="DejaVuSans-4e" d="M 628 4666 
L 1478 4666 
L 3547 763 
L 3547 4666 
L 4159 4666 
L 4159 0 
L 3309 0 
L 1241 3903 
L 1241 0 
L 628 0 
L 628 4666 
z
" transform="scale(0.015625)"/>
            </defs>
            <use xlink:href="#DejaVuSans-41"/>
            <use xlink:href="#DejaVuSans-4e" x="68.408203"/>
            <use xlink:href="#DejaVuSans-43" x="143.212891"/>
           </g>
          </g>
         </g>
        </g>
        <defs>
         <clipPath id="p9a0079b3d3">
          <rect x="63.290625" y="10.8" width="540.309375" height="310.821875"/>
         </clipPath>
        </defs>
       </g>
      </g>
     </g>
    </g>
   </g>
  </g>
 </g>
</svg>
