<?xml version="1.0" encoding="utf-8" standalone="no"?>
<!DOCTYPE svg PUBLIC "-//W3C//DTD SVG 1.1//EN"
  "http://www.w3.org/Graphics/SVG/1.1/DTD/svg11.dtd">
<svg xmlns:xlink="http://www.w3.org/1999/xlink" width="614.4pt" height="345.6pt" viewBox="0 0 614.4 345.6" xmlns="http://www.w3.org/2000/svg" version="1.1">
 <metadata>
  <rdf:RDF xmlns:dc="http://purl.org/dc/elements/1.1/" xmlns:cc="http://creativecommons.org/ns#" xmlns:rdf="http://www.w3.org/1999/02/22-rdf-syntax-ns#">
   <cc:Work>
    <dc:type rdf:resource="http://purl.org/dc/dcmitype/StillImage"/>
    <dc:date>2024-04-17T19:48:51.547843</dc:date>
    <dc:format>image/svg+xml</dc:format>
    <dc:creator>
     <cc:Agent>
      <dc:title>Matplotlib v3.7.1, https://matplotlib.org/</dc:title>
     </cc:Agent>
    </dc:creator>
   </cc:Work>
  </rdf:RDF>
 </metadata>
 <defs>
  <style type="text/css">*{stroke-linejoin: round; stroke-linecap: butt}</style>
 </defs>
 <g id="figure_1">
  <g id="patch_1">
   <path d="M 0 345.6 
L 614.4 345.6 
L 614.4 0 
L 0 0 
z
" style="fill: #ffffff"/>
  </g>
  <g id="axes_1">
   <g id="patch_2">
    <path d="M 63.290625 321.621875 
L 603.6 321.621875 
L 603.6 10.8 
L 63.290625 10.8 
z
" style="fill: #ffffff"/>
   </g>
   <path d="M 540.937436 299.147225 
L 539.937436 299.115789 
L 538.937436 299.078848 
L 537.937436 298.981102 
L 536.937436 298.94858 
L 535.937436 298.874955 
L 534.937436 298.83639 
L 533.937436 298.800977 
L 532.937436 298.743337 
L 531.937436 298.67295 
L 530.937436 298.620986 
L 529.937436 298.561897 
L 528.937436 298.473576 
L 527.937436 298.427431 
L 526.937436 298.38502 
L 525.937436 298.354528 
L 524.937436 298.328483 
L 523.937436 298.307283 
L 522.937436 298.252982 
L 521.937436 298.225044 
L 520.937436 298.19532 
L 519.937436 298.169925 
L 518.937436 298.158725 
L 517.937436 298.148601 
L 516.937436 298.148805 
L 515.937436 298.158315 
L 514.937436 298.169969 
L 513.937436 298.200998 
L 512.937436 298.212166 
L 511.937436 298.242283 
L 510.937436 298.30206 
L 509.937436 298.339252 
L 508.937436 298.378348 
L 507.937436 298.420788 
L 506.937436 298.453553 
L 505.937436 298.520979 
L 504.937436 298.560105 
L 503.937436 298.60278 
L 502.937436 298.67336 
L 501.937436 298.709751 
L 500.937436 298.768154 
L 499.937436 298.879107 
L 498.937436 298.949765 
L 497.937436 299.062705 
L 496.937436 299.108478 
L 495.937436 299.169761 
L 494.937436 299.21826 
L 493.937436 299.299083 
L 492.937436 299.417602 
L 491.937436 299.487813 
L 490.937436 299.571075 
L 489.937436 299.604217 
L 488.937436 299.655454 
L 487.937436 299.723852 
L 486.937436 299.790068 
L 485.937436 299.866985 
L 484.937436 299.8943 
L 483.937436 299.920778 
L 482.937436 299.943429 
L 481.937436 299.96296 
L 480.937436 299.989354 
L 479.937436 300.039125 
L 478.937436 300.074198 
L 477.937436 300.110064 
L 476.937436 300.125431 
L 475.937436 300.1412 
L 474.937436 300.144613 
L 473.937436 300.14703 
L 472.937436 300.146544 
L 471.937436 300.144615 
L 470.937436 300.131358 
L 469.937436 300.122967 
L 468.937436 300.101431 
L 467.937436 300.078398 
L 466.937436 300.061165 
L 465.937436 300.042702 
L 464.937436 300.02225 
L 463.854105 300.00565 
" clip-path="url(#p8d5a425278)" style="fill: none; stroke-dasharray: 3.7,1.6; stroke-dashoffset: 0; stroke: #2ca02c"/>
   <g id="patch_3">
    <path d="M 270.588786 10.8 
L 270.588786 171.32899 
M 390.470616 10.8 
L 390.470616 171.32899 
" clip-path="url(#p8d5a425278)" style="fill: none; stroke: #ffffff; stroke-width: 3; stroke-linejoin: miter"/>
    <path d="M 270.588786 10.8 
L 270.588786 171.32899 
M 390.470616 10.8 
L 390.470616 171.32899 
" clip-path="url(#p8d5a425278)" style="fill: none; stroke: #1f77b4; stroke-linejoin: miter"/>
    <g id="PolyCollection_1">
     <path d="M 390.470616 10.8 
L 270.588786 10.8 
L 270.588786 171.32899 
L 390.470616 171.32899 
L 390.470616 171.32899 
L 390.470616 10.8 
z
" clip-path="url(#p8d5a425278)" style="fill: #1f77b4; fill-opacity: 0.5"/>
    </g>
    <g id="patch_4">
     <path d="M 87.850142 171.32899 
L 87.850142 321.621875 
M 224.968053 171.32899 
L 224.968053 321.621875 
" clip-path="url(#p8d5a425278)" style="fill: none; stroke: #ffffff; stroke-width: 3; stroke-linejoin: miter"/>
     <path d="M 87.850142 171.32899 
L 87.850142 321.621875 
M 224.968053 171.32899 
L 224.968053 321.621875 
" clip-path="url(#p8d5a425278)" style="fill: none; stroke: #ff7f0e; stroke-linejoin: miter"/>
     <g id="PolyCollection_2">
      <path d="M 224.968053 171.32899 
L 87.850142 171.32899 
L 87.850142 321.621875 
L 224.968053 321.621875 
L 224.968053 321.621875 
L 224.968053 171.32899 
z
" clip-path="url(#p8d5a425278)" style="fill: #ff7f0e; fill-opacity: 0.5"/>
     </g>
     <g id="patch_5">
      <path d="M 546.340529 72.964375 
L 546.340529 321.621875 
M 579.040483 72.964375 
L 579.040483 321.621875 
" clip-path="url(#p8d5a425278)" style="fill: none; stroke: #ffffff; stroke-width: 3; stroke-linejoin: miter"/>
      <path d="M 546.340529 72.964375 
L 546.340529 321.621875 
M 579.040483 72.964375 
L 579.040483 321.621875 
" clip-path="url(#p8d5a425278)" style="fill: none; stroke: #2ca02c; stroke-linejoin: miter"/>
      <g id="PolyCollection_3">
       <path d="M 579.040483 72.964375 
L 546.340529 72.964375 
L 546.340529 321.621875 
L 579.040483 321.621875 
L 579.040483 321.621875 
L 579.040483 72.964375 
z
" clip-path="url(#p8d5a425278)" style="fill: #2ca02c; fill-opacity: 0.5"/>
      </g>
      <g id="patch_6">
       <path d="M 434.769196 273.935061 
L 434.769196 321.621875 
M 458.451012 273.935061 
L 458.451012 321.621875 
" clip-path="url(#p8d5a425278)" style="fill: none; stroke: #ffffff; stroke-width: 3; stroke-linejoin: miter"/>
       <path d="M 434.769196 273.935061 
L 434.769196 321.621875 
M 458.451012 273.935061 
L 458.451012 321.621875 
" clip-path="url(#p8d5a425278)" style="fill: none; stroke: #d62728; stroke-linejoin: miter"/>
       <g id="PolyCollection_4">
        <path d="M 458.451012 273.935061 
L 434.769196 273.935061 
L 434.769196 321.621875 
L 458.451012 321.621875 
L 458.451012 321.621875 
L 458.451012 273.935061 
z
" clip-path="url(#p8d5a425278)" style="fill: #d62728; fill-opacity: 0.5"/>
       </g>
       <g id="matplotlib.axis_1">
        <g id="xtick_1">
         <g id="line2d_1"/>
         <g id="text_1">
          <!-- OUT -->
          <g transform="translate(145.759879 332.720312) scale(0.1 -0.1)">
           <defs>
            <path id="DejaVuSans-4f" d="M 2522 4238 
Q 1834 4238 1429 3725 
Q 1025 3213 1025 2328 
Q 1025 1447 1429 934 
Q 1834 422 2522 422 
Q 3209 422 3611 934 
Q 4013 1447 4013 2328 
Q 4013 3213 3611 3725 
Q 3209 4238 2522 4238 
z
M 2522 4750 
Q 3503 4750 4090 4092 
Q 4678 3434 4678 2328 
Q 4678 1225 4090 567 
Q 3503 -91 2522 -91 
Q 1538 -91 948 565 
Q 359 1222 359 2328 
Q 359 3434 948 4092 
Q 1538 4750 2522 4750 
z
" transform="scale(0.015625)"/>
            <path id="DejaVuSans-55" d="M 556 4666 
L 1191 4666 
L 1191 1831 
Q 1191 1081 1462 751 
Q 1734 422 2344 422 
Q 2950 422 3222 751 
Q 3494 1081 3494 1831 
L 3494 4666 
L 4128 4666 
L 4128 1753 
Q 4128 841 3676 375 
Q 3225 -91 2344 -91 
Q 1459 -91 1007 375 
Q 556 841 556 1753 
L 556 4666 
z
" transform="scale(0.015625)"/>
            <path id="DejaVuSans-54" d="M -19 4666 
L 3928 4666 
L 3928 4134 
L 2272 4134 
L 2272 0 
L 1638 0 
L 1638 4134 
L -19 4134 
L -19 4666 
z
" transform="scale(0.015625)"/>
           </defs>
           <use xlink:href="#DejaVuSans-4f"/>
           <use xlink:href="#DejaVuSans-55" x="78.710938"/>
           <use xlink:href="#DejaVuSans-54" x="151.904297"/>
          </g>
         </g>
        </g>
        <g id="xtick_2">
         <g id="line2d_2"/>
         <g id="text_2">
          <!-- SRC -->
          <g transform="translate(552.800662 332.720312) scale(0.1 -0.1)">
           <defs>
            <path id="DejaVuSans-53" d="M 3425 4513 
L 3425 3897 
Q 3066 4069 2747 4153 
Q 2428 4238 2131 4238 
Q 1616 4238 1336 4038 
Q 1056 3838 1056 3469 
Q 1056 3159 1242 3001 
Q 1428 2844 1947 2747 
L 2328 2669 
Q 3034 2534 3370 2195 
Q 3706 1856 3706 1288 
Q 3706 609 3251 259 
Q 2797 -91 1919 -91 
Q 1588 -91 1214 -16 
Q 841 59 441 206 
L 441 856 
Q 825 641 1194 531 
Q 1563 422 1919 422 
Q 2459 422 2753 634 
Q 3047 847 3047 1241 
Q 3047 1584 2836 1778 
Q 2625 1972 2144 2069 
L 1759 2144 
Q 1053 2284 737 2584 
Q 422 2884 422 3419 
Q 422 4038 858 4394 
Q 1294 4750 2059 4750 
Q 2388 4750 2728 4690 
Q 3069 4631 3425 4513 
z
" transform="scale(0.015625)"/>
            <path id="DejaVuSans-52" d="M 2841 2188 
Q 3044 2119 3236 1894 
Q 3428 1669 3622 1275 
L 4263 0 
L 3584 0 
L 2988 1197 
Q 2756 1666 2539 1819 
Q 2322 1972 1947 1972 
L 1259 1972 
L 1259 0 
L 628 0 
L 628 4666 
L 2053 4666 
Q 2853 4666 3247 4331 
Q 3641 3997 3641 3322 
Q 3641 2881 3436 2590 
Q 3231 2300 2841 2188 
z
M 1259 4147 
L 1259 2491 
L 2053 2491 
Q 2509 2491 2742 2702 
Q 2975 2913 2975 3322 
Q 2975 3731 2742 3939 
Q 2509 4147 2053 4147 
L 1259 4147 
z
" transform="scale(0.015625)"/>
            <path id="DejaVuSans-43" d="M 4122 4306 
L 4122 3641 
Q 3803 3938 3442 4084 
Q 3081 4231 2675 4231 
Q 1875 4231 1450 3742 
Q 1025 3253 1025 2328 
Q 1025 1406 1450 917 
Q 1875 428 2675 428 
Q 3081 428 3442 575 
Q 3803 722 4122 1019 
L 4122 359 
Q 3791 134 3420 21 
Q 3050 -91 2638 -91 
Q 1578 -91 968 557 
Q 359 1206 359 2328 
Q 359 3453 968 4101 
Q 1578 4750 2638 4750 
Q 3056 4750 3426 4639 
Q 3797 4528 4122 4306 
z
" transform="scale(0.015625)"/>
           </defs>
           <use xlink:href="#DejaVuSans-53"/>
           <use xlink:href="#DejaVuSans-52" x="63.476562"/>
           <use xlink:href="#DejaVuSans-43" x="127.958984"/>
          </g>
         </g>
        </g>
        <g id="xtick_3">
         <g id="line2d_3"/>
         <g id="text_3">
          <!-- TAR -->
          <g transform="translate(437.049166 332.720312) scale(0.1 -0.1)">
           <defs>
            <path id="DejaVuSans-41" d="M 2188 4044 
L 1331 1722 
L 3047 1722 
L 2188 4044 
z
M 1831 4666 
L 2547 4666 
L 4325 0 
L 3669 0 
L 3244 1197 
L 1141 1197 
L 716 0 
L 50 0 
L 1831 4666 
z
" transform="scale(0.015625)"/>
           </defs>
           <use xlink:href="#DejaVuSans-54"/>
           <use xlink:href="#DejaVuSans-41" x="53.333984"/>
           <use xlink:href="#DejaVuSans-52" x="121.742188"/>
          </g>
         </g>
        </g>
       </g>
       <g id="matplotlib.axis_2">
        <g id="ytick_1">
         <g id="line2d_4">
          <defs>
           <path id="m1fac9e9ac2" d="M 0 0 
L -3.5 0 
" style="stroke: #000000; stroke-width: 0.8"/>
          </defs>
          <g>
           <use xlink:href="#m1fac9e9ac2" x="63.290625" y="321.621875" style="stroke: #000000; stroke-width: 0.8"/>
          </g>
         </g>
         <g id="text_4">
          <!-- 0 -->
          <g transform="translate(49.928125 325.421094) scale(0.1 -0.1)">
           <defs>
            <path id="DejaVuSans-30" d="M 2034 4250 
Q 1547 4250 1301 3770 
Q 1056 3291 1056 2328 
Q 1056 1369 1301 889 
Q 1547 409 2034 409 
Q 2525 409 2770 889 
Q 3016 1369 3016 2328 
Q 3016 3291 2770 3770 
Q 2525 4250 2034 4250 
z
M 2034 4750 
Q 2819 4750 3233 4129 
Q 3647 3509 3647 2328 
Q 3647 1150 3233 529 
Q 2819 -91 2034 -91 
Q 1250 -91 836 529 
Q 422 1150 422 2328 
Q 422 3509 836 4129 
Q 1250 4750 2034 4750 
z
" transform="scale(0.015625)"/>
           </defs>
           <use xlink:href="#DejaVuSans-30"/>
          </g>
         </g>
        </g>
        <g id="ytick_2">
         <g id="line2d_5">
          <g>
           <use xlink:href="#m1fac9e9ac2" x="63.290625" y="279.376292" style="stroke: #000000; stroke-width: 0.8"/>
          </g>
         </g>
         <g id="text_5">
          <!-- 2500 -->
          <g transform="translate(30.840625 283.175511) scale(0.1 -0.1)">
           <defs>
            <path id="DejaVuSans-32" d="M 1228 531 
L 3431 531 
L 3431 0 
L 469 0 
L 469 531 
Q 828 903 1448 1529 
Q 2069 2156 2228 2338 
Q 2531 2678 2651 2914 
Q 2772 3150 2772 3378 
Q 2772 3750 2511 3984 
Q 2250 4219 1831 4219 
Q 1534 4219 1204 4116 
Q 875 4013 500 3803 
L 500 4441 
Q 881 4594 1212 4672 
Q 1544 4750 1819 4750 
Q 2544 4750 2975 4387 
Q 3406 4025 3406 3419 
Q 3406 3131 3298 2873 
Q 3191 2616 2906 2266 
Q 2828 2175 2409 1742 
Q 1991 1309 1228 531 
z
" transform="scale(0.015625)"/>
            <path id="DejaVuSans-35" d="M 691 4666 
L 3169 4666 
L 3169 4134 
L 1269 4134 
L 1269 2991 
Q 1406 3038 1543 3061 
Q 1681 3084 1819 3084 
Q 2600 3084 3056 2656 
Q 3513 2228 3513 1497 
Q 3513 744 3044 326 
Q 2575 -91 1722 -91 
Q 1428 -91 1123 -41 
Q 819 9 494 109 
L 494 744 
Q 775 591 1075 516 
Q 1375 441 1709 441 
Q 2250 441 2565 725 
Q 2881 1009 2881 1497 
Q 2881 1984 2565 2268 
Q 2250 2553 1709 2553 
Q 1456 2553 1204 2497 
Q 953 2441 691 2322 
L 691 4666 
z
" transform="scale(0.015625)"/>
           </defs>
           <use xlink:href="#DejaVuSans-32"/>
           <use xlink:href="#DejaVuSans-35" x="63.623047"/>
           <use xlink:href="#DejaVuSans-30" x="127.246094"/>
           <use xlink:href="#DejaVuSans-30" x="190.869141"/>
          </g>
         </g>
        </g>
        <g id="ytick_3">
         <g id="line2d_6">
          <g>
           <use xlink:href="#m1fac9e9ac2" x="63.290625" y="237.13071" style="stroke: #000000; stroke-width: 0.8"/>
          </g>
         </g>
         <g id="text_6">
          <!-- 5000 -->
          <g transform="translate(30.840625 240.929928) scale(0.1 -0.1)">
           <use xlink:href="#DejaVuSans-35"/>
           <use xlink:href="#DejaVuSans-30" x="63.623047"/>
           <use xlink:href="#DejaVuSans-30" x="127.246094"/>
           <use xlink:href="#DejaVuSans-30" x="190.869141"/>
          </g>
         </g>
        </g>
        <g id="ytick_4">
         <g id="line2d_7">
          <g>
           <use xlink:href="#m1fac9e9ac2" x="63.290625" y="194.885127" style="stroke: #000000; stroke-width: 0.8"/>
          </g>
         </g>
         <g id="text_7">
          <!-- 7500 -->
          <g transform="translate(30.840625 198.684346) scale(0.1 -0.1)">
           <defs>
            <path id="DejaVuSans-37" d="M 525 4666 
L 3525 4666 
L 3525 4397 
L 1831 0 
L 1172 0 
L 2766 4134 
L 525 4134 
L 525 4666 
z
" transform="scale(0.015625)"/>
           </defs>
           <use xlink:href="#DejaVuSans-37"/>
           <use xlink:href="#DejaVuSans-35" x="63.623047"/>
           <use xlink:href="#DejaVuSans-30" x="127.246094"/>
           <use xlink:href="#DejaVuSans-30" x="190.869141"/>
          </g>
         </g>
        </g>
        <g id="ytick_5">
         <g id="line2d_8">
          <g>
           <use xlink:href="#m1fac9e9ac2" x="63.290625" y="152.639544" style="stroke: #000000; stroke-width: 0.8"/>
          </g>
         </g>
         <g id="text_8">
          <!-- 10000 -->
          <g transform="translate(24.478125 156.438763) scale(0.1 -0.1)">
           <defs>
            <path id="DejaVuSans-31" d="M 794 531 
L 1825 531 
L 1825 4091 
L 703 3866 
L 703 4441 
L 1819 4666 
L 2450 4666 
L 2450 531 
L 3481 531 
L 3481 0 
L 794 0 
L 794 531 
z
" transform="scale(0.015625)"/>
           </defs>
           <use xlink:href="#DejaVuSans-31"/>
           <use xlink:href="#DejaVuSans-30" x="63.623047"/>
           <use xlink:href="#DejaVuSans-30" x="127.246094"/>
           <use xlink:href="#DejaVuSans-30" x="190.869141"/>
           <use xlink:href="#DejaVuSans-30" x="254.492188"/>
          </g>
         </g>
        </g>
        <g id="ytick_6">
         <g id="line2d_9">
          <g>
           <use xlink:href="#m1fac9e9ac2" x="63.290625" y="110.393961" style="stroke: #000000; stroke-width: 0.8"/>
          </g>
         </g>
         <g id="text_9">
          <!-- 12500 -->
          <g transform="translate(24.478125 114.19318) scale(0.1 -0.1)">
           <use xlink:href="#DejaVuSans-31"/>
           <use xlink:href="#DejaVuSans-32" x="63.623047"/>
           <use xlink:href="#DejaVuSans-35" x="127.246094"/>
           <use xlink:href="#DejaVuSans-30" x="190.869141"/>
           <use xlink:href="#DejaVuSans-30" x="254.492188"/>
          </g>
         </g>
        </g>
        <g id="ytick_7">
         <g id="line2d_10">
          <g>
           <use xlink:href="#m1fac9e9ac2" x="63.290625" y="68.148379" style="stroke: #000000; stroke-width: 0.8"/>
          </g>
         </g>
         <g id="text_10">
          <!-- 15000 -->
          <g transform="translate(24.478125 71.947597) scale(0.1 -0.1)">
           <use xlink:href="#DejaVuSans-31"/>
           <use xlink:href="#DejaVuSans-35" x="63.623047"/>
           <use xlink:href="#DejaVuSans-30" x="127.246094"/>
           <use xlink:href="#DejaVuSans-30" x="190.869141"/>
           <use xlink:href="#DejaVuSans-30" x="254.492188"/>
          </g>
         </g>
        </g>
        <g id="ytick_8">
         <g id="line2d_11">
          <g>
           <use xlink:href="#m1fac9e9ac2" x="63.290625" y="25.902796" style="stroke: #000000; stroke-width: 0.8"/>
          </g>
         </g>
         <g id="text_11">
          <!-- 17500 -->
          <g transform="translate(24.478125 29.702015) scale(0.1 -0.1)">
           <use xlink:href="#DejaVuSans-31"/>
           <use xlink:href="#DejaVuSans-37" x="63.623047"/>
           <use xlink:href="#DejaVuSans-35" x="127.246094"/>
           <use xlink:href="#DejaVuSans-30" x="190.869141"/>
           <use xlink:href="#DejaVuSans-30" x="254.492188"/>
          </g>
         </g>
        </g>
        <g id="text_12">
         <!-- time ago (generations) -->
         <g transform="translate(18.398438 223.682031) rotate(-90) scale(0.1 -0.1)">
          <defs>
           <path id="DejaVuSans-74" d="M 1172 4494 
L 1172 3500 
L 2356 3500 
L 2356 3053 
L 1172 3053 
L 1172 1153 
Q 1172 725 1289 603 
Q 1406 481 1766 481 
L 2356 481 
L 2356 0 
L 1766 0 
Q 1100 0 847 248 
Q 594 497 594 1153 
L 594 3053 
L 172 3053 
L 172 3500 
L 594 3500 
L 594 4494 
L 1172 4494 
z
" transform="scale(0.015625)"/>
           <path id="DejaVuSans-69" d="M 603 3500 
L 1178 3500 
L 1178 0 
L 603 0 
L 603 3500 
z
M 603 4863 
L 1178 4863 
L 1178 4134 
L 603 4134 
L 603 4863 
z
" transform="scale(0.015625)"/>
           <path id="DejaVuSans-6d" d="M 3328 2828 
Q 3544 3216 3844 3400 
Q 4144 3584 4550 3584 
Q 5097 3584 5394 3201 
Q 5691 2819 5691 2113 
L 5691 0 
L 5113 0 
L 5113 2094 
Q 5113 2597 4934 2840 
Q 4756 3084 4391 3084 
Q 3944 3084 3684 2787 
Q 3425 2491 3425 1978 
L 3425 0 
L 2847 0 
L 2847 2094 
Q 2847 2600 2669 2842 
Q 2491 3084 2119 3084 
Q 1678 3084 1418 2786 
Q 1159 2488 1159 1978 
L 1159 0 
L 581 0 
L 581 3500 
L 1159 3500 
L 1159 2956 
Q 1356 3278 1631 3431 
Q 1906 3584 2284 3584 
Q 2666 3584 2933 3390 
Q 3200 3197 3328 2828 
z
" transform="scale(0.015625)"/>
           <path id="DejaVuSans-65" d="M 3597 1894 
L 3597 1613 
L 953 1613 
Q 991 1019 1311 708 
Q 1631 397 2203 397 
Q 2534 397 2845 478 
Q 3156 559 3463 722 
L 3463 178 
Q 3153 47 2828 -22 
Q 2503 -91 2169 -91 
Q 1331 -91 842 396 
Q 353 884 353 1716 
Q 353 2575 817 3079 
Q 1281 3584 2069 3584 
Q 2775 3584 3186 3129 
Q 3597 2675 3597 1894 
z
M 3022 2063 
Q 3016 2534 2758 2815 
Q 2500 3097 2075 3097 
Q 1594 3097 1305 2825 
Q 1016 2553 972 2059 
L 3022 2063 
z
" transform="scale(0.015625)"/>
           <path id="DejaVuSans-20" transform="scale(0.015625)"/>
           <path id="DejaVuSans-61" d="M 2194 1759 
Q 1497 1759 1228 1600 
Q 959 1441 959 1056 
Q 959 750 1161 570 
Q 1363 391 1709 391 
Q 2188 391 2477 730 
Q 2766 1069 2766 1631 
L 2766 1759 
L 2194 1759 
z
M 3341 1997 
L 3341 0 
L 2766 0 
L 2766 531 
Q 2569 213 2275 61 
Q 1981 -91 1556 -91 
Q 1019 -91 701 211 
Q 384 513 384 1019 
Q 384 1609 779 1909 
Q 1175 2209 1959 2209 
L 2766 2209 
L 2766 2266 
Q 2766 2663 2505 2880 
Q 2244 3097 1772 3097 
Q 1472 3097 1187 3025 
Q 903 2953 641 2809 
L 641 3341 
Q 956 3463 1253 3523 
Q 1550 3584 1831 3584 
Q 2591 3584 2966 3190 
Q 3341 2797 3341 1997 
z
" transform="scale(0.015625)"/>
           <path id="DejaVuSans-67" d="M 2906 1791 
Q 2906 2416 2648 2759 
Q 2391 3103 1925 3103 
Q 1463 3103 1205 2759 
Q 947 2416 947 1791 
Q 947 1169 1205 825 
Q 1463 481 1925 481 
Q 2391 481 2648 825 
Q 2906 1169 2906 1791 
z
M 3481 434 
Q 3481 -459 3084 -895 
Q 2688 -1331 1869 -1331 
Q 1566 -1331 1297 -1286 
Q 1028 -1241 775 -1147 
L 775 -588 
Q 1028 -725 1275 -790 
Q 1522 -856 1778 -856 
Q 2344 -856 2625 -561 
Q 2906 -266 2906 331 
L 2906 616 
Q 2728 306 2450 153 
Q 2172 0 1784 0 
Q 1141 0 747 490 
Q 353 981 353 1791 
Q 353 2603 747 3093 
Q 1141 3584 1784 3584 
Q 2172 3584 2450 3431 
Q 2728 3278 2906 2969 
L 2906 3500 
L 3481 3500 
L 3481 434 
z
" transform="scale(0.015625)"/>
           <path id="DejaVuSans-6f" d="M 1959 3097 
Q 1497 3097 1228 2736 
Q 959 2375 959 1747 
Q 959 1119 1226 758 
Q 1494 397 1959 397 
Q 2419 397 2687 759 
Q 2956 1122 2956 1747 
Q 2956 2369 2687 2733 
Q 2419 3097 1959 3097 
z
M 1959 3584 
Q 2709 3584 3137 3096 
Q 3566 2609 3566 1747 
Q 3566 888 3137 398 
Q 2709 -91 1959 -91 
Q 1206 -91 779 398 
Q 353 888 353 1747 
Q 353 2609 779 3096 
Q 1206 3584 1959 3584 
z
" transform="scale(0.015625)"/>
           <path id="DejaVuSans-28" d="M 1984 4856 
Q 1566 4138 1362 3434 
Q 1159 2731 1159 2009 
Q 1159 1288 1364 580 
Q 1569 -128 1984 -844 
L 1484 -844 
Q 1016 -109 783 600 
Q 550 1309 550 2009 
Q 550 2706 781 3412 
Q 1013 4119 1484 4856 
L 1984 4856 
z
" transform="scale(0.015625)"/>
           <path id="DejaVuSans-6e" d="M 3513 2113 
L 3513 0 
L 2938 0 
L 2938 2094 
Q 2938 2591 2744 2837 
Q 2550 3084 2163 3084 
Q 1697 3084 1428 2787 
Q 1159 2491 1159 1978 
L 1159 0 
L 581 0 
L 581 3500 
L 1159 3500 
L 1159 2956 
Q 1366 3272 1645 3428 
Q 1925 3584 2291 3584 
Q 2894 3584 3203 3211 
Q 3513 2838 3513 2113 
z
" transform="scale(0.015625)"/>
           <path id="DejaVuSans-72" d="M 2631 2963 
Q 2534 3019 2420 3045 
Q 2306 3072 2169 3072 
Q 1681 3072 1420 2755 
Q 1159 2438 1159 1844 
L 1159 0 
L 581 0 
L 581 3500 
L 1159 3500 
L 1159 2956 
Q 1341 3275 1631 3429 
Q 1922 3584 2338 3584 
Q 2397 3584 2469 3576 
Q 2541 3569 2628 3553 
L 2631 2963 
z
" transform="scale(0.015625)"/>
           <path id="DejaVuSans-73" d="M 2834 3397 
L 2834 2853 
Q 2591 2978 2328 3040 
Q 2066 3103 1784 3103 
Q 1356 3103 1142 2972 
Q 928 2841 928 2578 
Q 928 2378 1081 2264 
Q 1234 2150 1697 2047 
L 1894 2003 
Q 2506 1872 2764 1633 
Q 3022 1394 3022 966 
Q 3022 478 2636 193 
Q 2250 -91 1575 -91 
Q 1294 -91 989 -36 
Q 684 19 347 128 
L 347 722 
Q 666 556 975 473 
Q 1284 391 1588 391 
Q 1994 391 2212 530 
Q 2431 669 2431 922 
Q 2431 1156 2273 1281 
Q 2116 1406 1581 1522 
L 1381 1569 
Q 847 1681 609 1914 
Q 372 2147 372 2553 
Q 372 3047 722 3315 
Q 1072 3584 1716 3584 
Q 2034 3584 2315 3537 
Q 2597 3491 2834 3397 
z
" transform="scale(0.015625)"/>
           <path id="DejaVuSans-29" d="M 513 4856 
L 1013 4856 
Q 1481 4119 1714 3412 
Q 1947 2706 1947 2009 
Q 1947 1309 1714 600 
Q 1481 -109 1013 -844 
L 513 -844 
Q 928 -128 1133 580 
Q 1338 1288 1338 2009 
Q 1338 2731 1133 3434 
Q 928 4138 513 4856 
z
" transform="scale(0.015625)"/>
          </defs>
          <use xlink:href="#DejaVuSans-74"/>
          <use xlink:href="#DejaVuSans-69" x="39.208984"/>
          <use xlink:href="#DejaVuSans-6d" x="66.992188"/>
          <use xlink:href="#DejaVuSans-65" x="164.404297"/>
          <use xlink:href="#DejaVuSans-20" x="225.927734"/>
          <use xlink:href="#DejaVuSans-61" x="257.714844"/>
          <use xlink:href="#DejaVuSans-67" x="318.994141"/>
          <use xlink:href="#DejaVuSans-6f" x="382.470703"/>
          <use xlink:href="#DejaVuSans-20" x="443.652344"/>
          <use xlink:href="#DejaVuSans-28" x="475.439453"/>
          <use xlink:href="#DejaVuSans-67" x="514.453125"/>
          <use xlink:href="#DejaVuSans-65" x="577.929688"/>
          <use xlink:href="#DejaVuSans-6e" x="639.453125"/>
          <use xlink:href="#DejaVuSans-65" x="702.832031"/>
          <use xlink:href="#DejaVuSans-72" x="764.355469"/>
          <use xlink:href="#DejaVuSans-61" x="805.46875"/>
          <use xlink:href="#DejaVuSans-74" x="866.748047"/>
          <use xlink:href="#DejaVuSans-69" x="905.957031"/>
          <use xlink:href="#DejaVuSans-6f" x="933.740234"/>
          <use xlink:href="#DejaVuSans-6e" x="994.921875"/>
          <use xlink:href="#DejaVuSans-73" x="1058.300781"/>
          <use xlink:href="#DejaVuSans-29" x="1110.400391"/>
         </g>
        </g>
       </g>
       <g id="patch_7">
        <path d="M 268.586753 171.32899 
L 267.586753 171.297553 
L 266.586753 171.260613 
L 265.586753 171.162867 
L 264.586753 171.130345 
L 263.586753 171.05672 
L 262.586753 171.018155 
L 261.586753 170.982741 
L 260.586753 170.925102 
L 259.586753 170.854715 
L 258.586753 170.802751 
L 257.586753 170.743661 
L 256.586753 170.65534 
L 255.586753 170.609196 
L 254.586753 170.566785 
L 253.586753 170.536292 
L 252.586753 170.510248 
L 251.586753 170.489047 
L 250.586753 170.434746 
L 249.586753 170.406809 
L 248.586753 170.377085 
L 247.586753 170.35169 
L 246.586753 170.34049 
L 245.586753 170.330366 
L 244.586753 170.33057 
L 243.586753 170.34008 
L 242.586753 170.351733 
L 241.586753 170.382763 
L 240.586753 170.393931 
L 239.586753 170.424048 
L 238.586753 170.483825 
L 237.586753 170.521017 
L 236.586753 170.560113 
L 235.586753 170.602552 
L 234.586753 170.635317 
L 233.586753 170.702744 
L 232.586753 170.74187 
L 231.586753 170.784544 
L 230.586753 170.855125 
L 229.586753 170.891516 
L 228.085455 170.949919 
" clip-path="url(#p8d5a425278)" style="fill: none; stroke: #ffffff; stroke-width: 3; stroke-linecap: round"/>
        <path d="M 268.586753 171.32899 
L 267.586753 171.297553 
L 266.586753 171.260613 
L 265.586753 171.162867 
L 264.586753 171.130345 
L 263.586753 171.05672 
L 262.586753 171.018155 
L 261.586753 170.982741 
L 260.586753 170.925102 
L 259.586753 170.854715 
L 258.586753 170.802751 
L 257.586753 170.743661 
L 256.586753 170.65534 
L 255.586753 170.609196 
L 254.586753 170.566785 
L 253.586753 170.536292 
L 252.586753 170.510248 
L 251.586753 170.489047 
L 250.586753 170.434746 
L 249.586753 170.406809 
L 248.586753 170.377085 
L 247.586753 170.35169 
L 246.586753 170.34049 
L 245.586753 170.330366 
L 244.586753 170.33057 
L 243.586753 170.34008 
L 242.586753 170.351733 
L 241.586753 170.382763 
L 240.586753 170.393931 
L 239.586753 170.424048 
L 238.586753 170.483825 
L 237.586753 170.521017 
L 236.586753 170.560113 
L 235.586753 170.602552 
L 234.586753 170.635317 
L 233.586753 170.702744 
L 232.586753 170.74187 
L 231.586753 170.784544 
L 230.586753 170.855125 
L 229.586753 170.891516 
L 228.085455 170.949919 
" clip-path="url(#p8d5a425278)" style="fill: none; stroke: #1f77b4; stroke-linecap: round"/>
        <path d="M 232.085455 173.32899 
L 231.205087 172.853659 
L 230.32718 172.373405 
L 229.476466 171.838764 
L 228.174292 171.151316 
L 229.101645 171.125302 
L 230.013319 170.712582 
L 230.923584 170.297043 
L 232.26608 169.690239 
L 231.611181 170.32899 
L 231.559217 171.32899 
L 231.500127 173.32899 
z
" clip-path="url(#p8d5a425278)" style="fill: #ffffff; stroke: #ffffff; stroke-width: 3; stroke-linecap: round"/>
        <path d="M 232.085455 173.32899 
L 231.205087 172.853659 
L 230.32718 172.373405 
L 229.476466 171.838764 
L 228.174292 171.151316 
L 229.101645 171.125302 
L 230.013319 170.712582 
L 230.923584 170.297043 
L 232.26608 169.690239 
L 231.611181 170.32899 
L 231.559217 171.32899 
L 231.500127 173.32899 
z
" clip-path="url(#p8d5a425278)" style="fill: #ffffff; stroke: #1f77b4; stroke-linecap: round"/>
        <g id="patch_8">
         <path d="M 392.473217 72.964375 
L 393.473217 72.995811 
L 394.473217 73.032752 
L 395.473217 73.130498 
L 396.473217 73.16302 
L 397.473217 73.236645 
L 398.473217 73.27521 
L 399.473217 73.310623 
L 400.473217 73.368263 
L 401.473217 73.438649 
L 402.473217 73.490614 
L 403.473217 73.549703 
L 404.473217 73.638024 
L 405.473217 73.684169 
L 406.473217 73.72658 
L 407.473217 73.757072 
L 408.473217 73.783117 
L 409.473217 73.804317 
L 410.473217 73.858618 
L 411.473217 73.886556 
L 412.473217 73.91628 
L 413.473217 73.941675 
L 414.473217 73.952875 
L 415.473217 73.962999 
L 416.473217 73.962795 
L 417.473217 73.953285 
L 418.473217 73.941631 
L 419.473217 73.910602 
L 420.473217 73.899434 
L 421.473217 73.869317 
L 422.473217 73.80954 
L 423.473217 73.772348 
L 424.473217 73.733252 
L 425.473217 73.690812 
L 426.473217 73.658047 
L 427.473217 73.590621 
L 428.473217 73.551495 
L 429.473217 73.50882 
L 430.473217 73.43824 
L 431.473217 73.401849 
L 432.473217 73.343446 
L 433.473217 73.232493 
L 434.473217 73.161835 
L 435.473217 73.048895 
L 436.473217 73.003122 
L 437.473217 72.941839 
L 438.473217 72.89334 
L 439.473217 72.812517 
L 440.473217 72.693998 
L 441.473217 72.623787 
L 442.473217 72.540525 
L 443.473217 72.507383 
L 444.473217 72.456146 
L 445.473217 72.387747 
L 446.473217 72.321532 
L 447.473217 72.244615 
L 448.473217 72.217299 
L 449.473217 72.190822 
L 450.473217 72.168171 
L 451.473217 72.14864 
L 452.473217 72.122246 
L 453.473217 72.072475 
L 454.473217 72.037402 
L 455.473217 72.001536 
L 456.473217 71.986169 
L 457.473217 71.9704 
L 458.473217 71.966987 
L 459.473217 71.96457 
L 460.473217 71.965056 
L 461.473217 71.966985 
L 462.473217 71.980242 
L 463.473217 71.988633 
L 464.473217 72.010169 
L 465.473217 72.033202 
L 466.473217 72.050435 
L 467.473217 72.068898 
L 468.473217 72.08935 
L 469.473217 72.10595 
L 470.473217 72.168729 
L 471.473217 72.243994 
L 472.473217 72.276633 
L 473.473217 72.344197 
L 474.473217 72.398244 
L 475.473217 72.431948 
L 476.473217 72.522074 
L 477.473217 72.550609 
L 478.473217 72.582095 
L 479.473217 72.613106 
L 480.473217 72.667914 
L 481.473217 72.732501 
L 482.473217 72.770697 
L 483.473217 72.866631 
L 484.473217 72.915889 
L 485.473217 72.959958 
L 486.473217 73.000082 
L 487.473217 73.108449 
L 488.473217 73.150077 
L 489.473217 73.212219 
L 490.473217 73.282181 
L 491.473217 73.386685 
L 492.473217 73.423673 
L 493.473217 73.46955 
L 494.473217 73.538045 
L 495.473217 73.586791 
L 496.473217 73.664388 
L 497.473217 73.694929 
L 498.473217 73.764443 
L 499.473217 73.788416 
L 500.473217 73.817038 
L 501.473217 73.858831 
L 502.473217 73.880407 
L 503.473217 73.894355 
L 504.473217 73.921077 
L 505.473217 73.930387 
L 506.473217 73.942834 
L 507.473217 73.953889 
L 508.473217 73.959553 
L 509.473217 73.964317 
L 510.473217 73.958769 
L 511.473217 73.945481 
L 512.473217 73.937964 
L 513.473217 73.913179 
L 514.473217 73.88961 
L 515.473217 73.85343 
L 516.473217 73.827468 
L 517.473217 73.805146 
L 518.473217 73.736386 
L 519.473217 73.661851 
L 520.473217 73.567872 
L 521.473217 73.51682 
L 522.473217 73.462886 
L 523.473217 73.427635 
L 524.473217 73.321547 
L 525.473217 73.269283 
L 526.473217 73.232376 
L 527.473217 73.201345 
L 528.473217 73.14019 
L 529.473217 73.07277 
L 530.473217 73.023864 
L 531.473217 72.958672 
L 532.473217 72.920484 
L 533.473217 72.878488 
L 534.473217 72.836471 
L 535.473217 72.776955 
L 536.473217 72.663795 
L 537.473217 72.611544 
L 538.473217 72.572126 
L 539.473217 72.525025 
L 540.473217 72.468245 
L 541.473217 72.435582 
L 543.226841 72.399404 
" clip-path="url(#p8d5a425278)" style="fill: none; stroke: #ffffff; stroke-width: 3; stroke-linecap: round"/>
         <path d="M 392.473217 72.964375 
L 393.473217 72.995811 
L 394.473217 73.032752 
L 395.473217 73.130498 
L 396.473217 73.16302 
L 397.473217 73.236645 
L 398.473217 73.27521 
L 399.473217 73.310623 
L 400.473217 73.368263 
L 401.473217 73.438649 
L 402.473217 73.490614 
L 403.473217 73.549703 
L 404.473217 73.638024 
L 405.473217 73.684169 
L 406.473217 73.72658 
L 407.473217 73.757072 
L 408.473217 73.783117 
L 409.473217 73.804317 
L 410.473217 73.858618 
L 411.473217 73.886556 
L 412.473217 73.91628 
L 413.473217 73.941675 
L 414.473217 73.952875 
L 415.473217 73.962999 
L 416.473217 73.962795 
L 417.473217 73.953285 
L 418.473217 73.941631 
L 419.473217 73.910602 
L 420.473217 73.899434 
L 421.473217 73.869317 
L 422.473217 73.80954 
L 423.473217 73.772348 
L 424.473217 73.733252 
L 425.473217 73.690812 
L 426.473217 73.658047 
L 427.473217 73.590621 
L 428.473217 73.551495 
L 429.473217 73.50882 
L 430.473217 73.43824 
L 431.473217 73.401849 
L 432.473217 73.343446 
L 433.473217 73.232493 
L 434.473217 73.161835 
L 435.473217 73.048895 
L 436.473217 73.003122 
L 437.473217 72.941839 
L 438.473217 72.89334 
L 439.473217 72.812517 
L 440.473217 72.693998 
L 441.473217 72.623787 
L 442.473217 72.540525 
L 443.473217 72.507383 
L 444.473217 72.456146 
L 445.473217 72.387747 
L 446.473217 72.321532 
L 447.473217 72.244615 
L 448.473217 72.217299 
L 449.473217 72.190822 
L 450.473217 72.168171 
L 451.473217 72.14864 
L 452.473217 72.122246 
L 453.473217 72.072475 
L 454.473217 72.037402 
L 455.473217 72.001536 
L 456.473217 71.986169 
L 457.473217 71.9704 
L 458.473217 71.966987 
L 459.473217 71.96457 
L 460.473217 71.965056 
L 461.473217 71.966985 
L 462.473217 71.980242 
L 463.473217 71.988633 
L 464.473217 72.010169 
L 465.473217 72.033202 
L 466.473217 72.050435 
L 467.473217 72.068898 
L 468.473217 72.08935 
L 469.473217 72.10595 
L 470.473217 72.168729 
L 471.473217 72.243994 
L 472.473217 72.276633 
L 473.473217 72.344197 
L 474.473217 72.398244 
L 475.473217 72.431948 
L 476.473217 72.522074 
L 477.473217 72.550609 
L 478.473217 72.582095 
L 479.473217 72.613106 
L 480.473217 72.667914 
L 481.473217 72.732501 
L 482.473217 72.770697 
L 483.473217 72.866631 
L 484.473217 72.915889 
L 485.473217 72.959958 
L 486.473217 73.000082 
L 487.473217 73.108449 
L 488.473217 73.150077 
L 489.473217 73.212219 
L 490.473217 73.282181 
L 491.473217 73.386685 
L 492.473217 73.423673 
L 493.473217 73.46955 
L 494.473217 73.538045 
L 495.473217 73.586791 
L 496.473217 73.664388 
L 497.473217 73.694929 
L 498.473217 73.764443 
L 499.473217 73.788416 
L 500.473217 73.817038 
L 501.473217 73.858831 
L 502.473217 73.880407 
L 503.473217 73.894355 
L 504.473217 73.921077 
L 505.473217 73.930387 
L 506.473217 73.942834 
L 507.473217 73.953889 
L 508.473217 73.959553 
L 509.473217 73.964317 
L 510.473217 73.958769 
L 511.473217 73.945481 
L 512.473217 73.937964 
L 513.473217 73.913179 
L 514.473217 73.88961 
L 515.473217 73.85343 
L 516.473217 73.827468 
L 517.473217 73.805146 
L 518.473217 73.736386 
L 519.473217 73.661851 
L 520.473217 73.567872 
L 521.473217 73.51682 
L 522.473217 73.462886 
L 523.473217 73.427635 
L 524.473217 73.321547 
L 525.473217 73.269283 
L 526.473217 73.232376 
L 527.473217 73.201345 
L 528.473217 73.14019 
L 529.473217 73.07277 
L 530.473217 73.023864 
L 531.473217 72.958672 
L 532.473217 72.920484 
L 533.473217 72.878488 
L 534.473217 72.836471 
L 535.473217 72.776955 
L 536.473217 72.663795 
L 537.473217 72.611544 
L 538.473217 72.572126 
L 539.473217 72.525025 
L 540.473217 72.468245 
L 541.473217 72.435582 
L 543.226841 72.399404 
" clip-path="url(#p8d5a425278)" style="fill: none; stroke: #1f77b4; stroke-linecap: round"/>
         <path d="M 539.226841 70.964375 
L 540.107209 71.439706 
L 540.985116 71.91996 
L 541.83583 72.454601 
L 543.138004 73.142048 
L 542.210651 73.168063 
L 541.298977 73.580783 
L 540.388712 73.996322 
L 539.046216 74.603126 
L 539.701115 73.964375 
L 539.753079 72.964375 
L 539.812169 70.964375 
z
" clip-path="url(#p8d5a425278)" style="fill: #ffffff; stroke: #ffffff; stroke-width: 3; stroke-linecap: round"/>
         <path d="M 539.226841 70.964375 
L 540.107209 71.439706 
L 540.985116 71.91996 
L 541.83583 72.454601 
L 543.138004 73.142048 
L 542.210651 73.168063 
L 541.298977 73.580783 
L 540.388712 73.996322 
L 539.046216 74.603126 
L 539.701115 73.964375 
L 539.753079 72.964375 
L 539.812169 70.964375 
z
" clip-path="url(#p8d5a425278)" style="fill: #ffffff; stroke: #1f77b4; stroke-linecap: round"/>
         <g id="patch_9">
          <path d="M 226.968873 273.935061 
L 227.968873 273.966498 
L 228.968873 274.003438 
L 229.968873 274.101185 
L 230.968873 274.133706 
L 231.968873 274.207331 
L 232.968873 274.245896 
L 233.968873 274.28131 
L 234.968873 274.33895 
L 235.968873 274.409336 
L 236.968873 274.4613 
L 237.968873 274.52039 
L 238.968873 274.608711 
L 239.968873 274.654855 
L 240.968873 274.697266 
L 241.968873 274.727759 
L 242.968873 274.753804 
L 243.968873 274.775004 
L 244.968873 274.829305 
L 245.968873 274.857242 
L 246.968873 274.886966 
L 247.968873 274.912361 
L 248.968873 274.923561 
L 249.968873 274.933685 
L 250.968873 274.933481 
L 251.968873 274.923971 
L 252.968873 274.912318 
L 253.968873 274.881288 
L 254.968873 274.87012 
L 255.968873 274.840003 
L 256.968873 274.780226 
L 257.968873 274.743034 
L 258.968873 274.703938 
L 259.968873 274.661499 
L 260.968873 274.628734 
L 261.968873 274.561307 
L 262.968873 274.522181 
L 263.968873 274.479507 
L 264.968873 274.408926 
L 265.968873 274.372535 
L 266.968873 274.314132 
L 267.968873 274.203179 
L 268.968873 274.132521 
L 269.968873 274.019581 
L 270.968873 273.973808 
L 271.968873 273.912525 
L 272.968873 273.864026 
L 273.968873 273.783203 
L 274.968873 273.664684 
L 275.968873 273.594474 
L 276.968873 273.511211 
L 277.968873 273.478069 
L 278.968873 273.426832 
L 279.968873 273.358434 
L 280.968873 273.292218 
L 281.968873 273.215301 
L 282.968873 273.187986 
L 283.968873 273.161508 
L 284.968873 273.138858 
L 285.968873 273.119326 
L 286.968873 273.092932 
L 287.968873 273.043161 
L 288.968873 273.008088 
L 289.968873 272.972223 
L 290.968873 272.956855 
L 291.968873 272.941086 
L 292.968873 272.937674 
L 293.968873 272.935256 
L 294.968873 272.935742 
L 295.968873 272.937671 
L 296.968873 272.950928 
L 297.968873 272.959319 
L 298.968873 272.980856 
L 299.968873 273.003888 
L 300.968873 273.021122 
L 301.968873 273.039584 
L 302.968873 273.060037 
L 303.968873 273.076636 
L 304.968873 273.139415 
L 305.968873 273.21468 
L 306.968873 273.247319 
L 307.968873 273.314883 
L 308.968873 273.36893 
L 309.968873 273.402634 
L 310.968873 273.49276 
L 311.968873 273.521295 
L 312.968873 273.552781 
L 313.968873 273.583792 
L 314.968873 273.6386 
L 315.968873 273.703188 
L 316.968873 273.741383 
L 317.968873 273.837317 
L 318.968873 273.886575 
L 319.968873 273.930645 
L 320.968873 273.970768 
L 321.968873 274.079135 
L 322.968873 274.120763 
L 323.968873 274.182905 
L 324.968873 274.252867 
L 325.968873 274.357372 
L 326.968873 274.394359 
L 327.968873 274.440236 
L 328.968873 274.508731 
L 329.968873 274.557477 
L 330.968873 274.635074 
L 331.968873 274.665615 
L 332.968873 274.73513 
L 333.968873 274.759102 
L 334.968873 274.787724 
L 335.968873 274.829517 
L 336.968873 274.851093 
L 337.968873 274.865041 
L 338.968873 274.891764 
L 339.968873 274.901073 
L 340.968873 274.91352 
L 341.968873 274.924575 
L 342.968873 274.93024 
L 343.968873 274.935003 
L 344.968873 274.929456 
L 345.968873 274.916168 
L 346.968873 274.90865 
L 347.968873 274.883865 
L 348.968873 274.860297 
L 349.968873 274.824116 
L 350.968873 274.798154 
L 351.968873 274.775833 
L 352.968873 274.707072 
L 353.968873 274.632537 
L 354.968873 274.538558 
L 355.968873 274.487506 
L 356.968873 274.433572 
L 357.968873 274.398321 
L 358.968873 274.292233 
L 359.968873 274.239969 
L 360.968873 274.203063 
L 361.968873 274.172032 
L 362.968873 274.110876 
L 363.968873 274.043456 
L 364.968873 273.99455 
L 365.968873 273.929358 
L 366.968873 273.891171 
L 367.968873 273.849175 
L 368.968873 273.807157 
L 369.968873 273.747641 
L 370.968873 273.634481 
L 371.968873 273.58223 
L 372.968873 273.542813 
L 373.968873 273.495711 
L 374.968873 273.438932 
L 375.968873 273.406268 
L 376.968873 273.370091 
L 377.968873 273.338 
L 378.968873 273.30372 
L 379.968873 273.245342 
L 380.968873 273.200157 
L 381.968873 273.170533 
L 382.968873 273.120148 
L 383.968873 273.09495 
L 384.968873 273.073899 
L 385.968873 273.038931 
L 386.968873 273.014641 
L 387.968873 273.000574 
L 388.968873 272.981632 
L 389.968873 272.965971 
L 390.968873 272.953419 
L 391.968873 272.947583 
L 392.968873 272.940701 
L 393.968873 272.935527 
L 394.968873 272.93731 
L 395.968873 272.940036 
L 396.968873 272.951189 
L 397.968873 272.979424 
L 398.968873 273.023212 
L 399.968873 273.043901 
L 400.968873 273.084875 
L 401.968873 273.12495 
L 402.968873 273.144059 
L 403.968873 273.166568 
L 404.968873 273.23322 
L 405.968873 273.282929 
L 406.968873 273.356636 
L 407.968873 273.387949 
L 408.968873 273.464571 
L 409.968873 273.502869 
L 410.968873 273.576986 
L 411.968873 273.681045 
L 412.968873 273.750875 
L 413.968873 273.856109 
L 414.968873 273.911124 
L 415.968873 274.034599 
L 416.968873 274.105158 
L 417.968873 274.220998 
L 418.968873 274.271178 
L 419.968873 274.306782 
L 420.968873 274.398189 
L 421.968873 274.451697 
L 422.968873 274.539605 
L 423.968873 274.60879 
L 424.968873 274.655555 
L 425.968873 274.727598 
L 426.968873 274.77774 
L 427.968873 274.79513 
L 428.968873 274.822133 
L 429.968873 274.841561 
L 431.650399 274.860899 
" clip-path="url(#p8d5a425278)" style="fill: none; stroke: #ffffff; stroke-width: 3; stroke-linecap: round"/>
          <path d="M 226.968873 273.935061 
L 227.968873 273.966498 
L 228.968873 274.003438 
L 229.968873 274.101185 
L 230.968873 274.133706 
L 231.968873 274.207331 
L 232.968873 274.245896 
L 233.968873 274.28131 
L 234.968873 274.33895 
L 235.968873 274.409336 
L 236.968873 274.4613 
L 237.968873 274.52039 
L 238.968873 274.608711 
L 239.968873 274.654855 
L 240.968873 274.697266 
L 241.968873 274.727759 
L 242.968873 274.753804 
L 243.968873 274.775004 
L 244.968873 274.829305 
L 245.968873 274.857242 
L 246.968873 274.886966 
L 247.968873 274.912361 
L 248.968873 274.923561 
L 249.968873 274.933685 
L 250.968873 274.933481 
L 251.968873 274.923971 
L 252.968873 274.912318 
L 253.968873 274.881288 
L 254.968873 274.87012 
L 255.968873 274.840003 
L 256.968873 274.780226 
L 257.968873 274.743034 
L 258.968873 274.703938 
L 259.968873 274.661499 
L 260.968873 274.628734 
L 261.968873 274.561307 
L 262.968873 274.522181 
L 263.968873 274.479507 
L 264.968873 274.408926 
L 265.968873 274.372535 
L 266.968873 274.314132 
L 267.968873 274.203179 
L 268.968873 274.132521 
L 269.968873 274.019581 
L 270.968873 273.973808 
L 271.968873 273.912525 
L 272.968873 273.864026 
L 273.968873 273.783203 
L 274.968873 273.664684 
L 275.968873 273.594474 
L 276.968873 273.511211 
L 277.968873 273.478069 
L 278.968873 273.426832 
L 279.968873 273.358434 
L 280.968873 273.292218 
L 281.968873 273.215301 
L 282.968873 273.187986 
L 283.968873 273.161508 
L 284.968873 273.138858 
L 285.968873 273.119326 
L 286.968873 273.092932 
L 287.968873 273.043161 
L 288.968873 273.008088 
L 289.968873 272.972223 
L 290.968873 272.956855 
L 291.968873 272.941086 
L 292.968873 272.937674 
L 293.968873 272.935256 
L 294.968873 272.935742 
L 295.968873 272.937671 
L 296.968873 272.950928 
L 297.968873 272.959319 
L 298.968873 272.980856 
L 299.968873 273.003888 
L 300.968873 273.021122 
L 301.968873 273.039584 
L 302.968873 273.060037 
L 303.968873 273.076636 
L 304.968873 273.139415 
L 305.968873 273.21468 
L 306.968873 273.247319 
L 307.968873 273.314883 
L 308.968873 273.36893 
L 309.968873 273.402634 
L 310.968873 273.49276 
L 311.968873 273.521295 
L 312.968873 273.552781 
L 313.968873 273.583792 
L 314.968873 273.6386 
L 315.968873 273.703188 
L 316.968873 273.741383 
L 317.968873 273.837317 
L 318.968873 273.886575 
L 319.968873 273.930645 
L 320.968873 273.970768 
L 321.968873 274.079135 
L 322.968873 274.120763 
L 323.968873 274.182905 
L 324.968873 274.252867 
L 325.968873 274.357372 
L 326.968873 274.394359 
L 327.968873 274.440236 
L 328.968873 274.508731 
L 329.968873 274.557477 
L 330.968873 274.635074 
L 331.968873 274.665615 
L 332.968873 274.73513 
L 333.968873 274.759102 
L 334.968873 274.787724 
L 335.968873 274.829517 
L 336.968873 274.851093 
L 337.968873 274.865041 
L 338.968873 274.891764 
L 339.968873 274.901073 
L 340.968873 274.91352 
L 341.968873 274.924575 
L 342.968873 274.93024 
L 343.968873 274.935003 
L 344.968873 274.929456 
L 345.968873 274.916168 
L 346.968873 274.90865 
L 347.968873 274.883865 
L 348.968873 274.860297 
L 349.968873 274.824116 
L 350.968873 274.798154 
L 351.968873 274.775833 
L 352.968873 274.707072 
L 353.968873 274.632537 
L 354.968873 274.538558 
L 355.968873 274.487506 
L 356.968873 274.433572 
L 357.968873 274.398321 
L 358.968873 274.292233 
L 359.968873 274.239969 
L 360.968873 274.203063 
L 361.968873 274.172032 
L 362.968873 274.110876 
L 363.968873 274.043456 
L 364.968873 273.99455 
L 365.968873 273.929358 
L 366.968873 273.891171 
L 367.968873 273.849175 
L 368.968873 273.807157 
L 369.968873 273.747641 
L 370.968873 273.634481 
L 371.968873 273.58223 
L 372.968873 273.542813 
L 373.968873 273.495711 
L 374.968873 273.438932 
L 375.968873 273.406268 
L 376.968873 273.370091 
L 377.968873 273.338 
L 378.968873 273.30372 
L 379.968873 273.245342 
L 380.968873 273.200157 
L 381.968873 273.170533 
L 382.968873 273.120148 
L 383.968873 273.09495 
L 384.968873 273.073899 
L 385.968873 273.038931 
L 386.968873 273.014641 
L 387.968873 273.000574 
L 388.968873 272.981632 
L 389.968873 272.965971 
L 390.968873 272.953419 
L 391.968873 272.947583 
L 392.968873 272.940701 
L 393.968873 272.935527 
L 394.968873 272.93731 
L 395.968873 272.940036 
L 396.968873 272.951189 
L 397.968873 272.979424 
L 398.968873 273.023212 
L 399.968873 273.043901 
L 400.968873 273.084875 
L 401.968873 273.12495 
L 402.968873 273.144059 
L 403.968873 273.166568 
L 404.968873 273.23322 
L 405.968873 273.282929 
L 406.968873 273.356636 
L 407.968873 273.387949 
L 408.968873 273.464571 
L 409.968873 273.502869 
L 410.968873 273.576986 
L 411.968873 273.681045 
L 412.968873 273.750875 
L 413.968873 273.856109 
L 414.968873 273.911124 
L 415.968873 274.034599 
L 416.968873 274.105158 
L 417.968873 274.220998 
L 418.968873 274.271178 
L 419.968873 274.306782 
L 420.968873 274.398189 
L 421.968873 274.451697 
L 422.968873 274.539605 
L 423.968873 274.60879 
L 424.968873 274.655555 
L 425.968873 274.727598 
L 426.968873 274.77774 
L 427.968873 274.79513 
L 428.968873 274.822133 
L 429.968873 274.841561 
L 431.650399 274.860899 
" clip-path="url(#p8d5a425278)" style="fill: none; stroke: #ff7f0e; stroke-linecap: round"/>
          <path d="M 427.650399 271.935061 
L 428.530767 272.410392 
L 429.408674 272.890646 
L 430.259388 273.425287 
L 431.561562 274.112735 
L 430.634209 274.138749 
L 429.722535 274.551469 
L 428.81227 274.967008 
L 427.469774 275.573813 
L 428.124673 274.935061 
L 428.176637 273.935061 
L 428.235727 271.935061 
z
" clip-path="url(#p8d5a425278)" style="fill: #ffffff; stroke: #ffffff; stroke-width: 3; stroke-linecap: round"/>
          <path d="M 427.650399 271.935061 
L 428.530767 272.410392 
L 429.408674 272.890646 
L 430.259388 273.425287 
L 431.561562 274.112735 
L 430.634209 274.138749 
L 429.722535 274.551469 
L 428.81227 274.967008 
L 427.469774 275.573813 
L 428.124673 274.935061 
L 428.176637 273.935061 
L 428.235727 271.935061 
z
" clip-path="url(#p8d5a425278)" style="fill: #ffffff; stroke: #ff7f0e; stroke-linecap: round"/>
          <path d="M 463.854105 299.147225 
" clip-path="url(#p8d5a425278)" style="fill: none; stroke-dasharray: 3.7,1.6; stroke-dashoffset: 0; stroke: #2ca02c"/>
          <path d="M 462.854105 299.147225 
L 464.854105 300.147225 
L 464.854105 298.147225 
z
" clip-path="url(#p8d5a425278)" style="fill: #2ca02c; stroke: #2ca02c; stroke-linejoin: miter"/>
          <g id="patch_10">
           <path d="M 63.290625 321.621875 
L 63.290625 10.8 
" style="fill: none; stroke: #000000; stroke-width: 0.8; stroke-linejoin: miter; stroke-linecap: square"/>
          </g>
          <g id="text_13">
           <g id="patch_11">
            <path d="M 319.877358 97.903557 
L 341.182045 97.903557 
Q 343.182045 97.903557 343.182045 95.903557 
L 343.182045 86.225432 
Q 343.182045 84.225432 341.182045 84.225432 
L 319.877358 84.225432 
Q 317.877358 84.225432 317.877358 86.225432 
L 317.877358 95.903557 
Q 317.877358 97.903557 319.877358 97.903557 
z
" style="fill: #ffffff; opacity: 0.6"/>
           </g>
           <!-- ANC -->
           <g transform="translate(319.877358 93.82387) scale(0.1 -0.1)">
            <defs>
             <path id="DejaVuSans-4e" d="M 628 4666 
L 1478 4666 
L 3547 763 
L 3547 4666 
L 4159 4666 
L 4159 0 
L 3309 0 
L 1241 3903 
L 1241 0 
L 628 0 
L 628 4666 
z
" transform="scale(0.015625)"/>
            </defs>
            <use xlink:href="#DejaVuSans-41"/>
            <use xlink:href="#DejaVuSans-4e" x="68.408203"/>
            <use xlink:href="#DejaVuSans-43" x="143.212891"/>
           </g>
          </g>
         </g>
        </g>
        <defs>
         <clipPath id="p8d5a425278">
          <rect x="63.290625" y="10.8" width="540.309375" height="310.821875"/>
         </clipPath>
        </defs>
       </g>
      </g>
     </g>
    </g>
   </g>
  </g>
 </g>
</svg>
