<?xml version="1.0" encoding="utf-8" standalone="no"?>
<!DOCTYPE svg PUBLIC "-//W3C//DTD SVG 1.1//EN"
  "http://www.w3.org/Graphics/SVG/1.1/DTD/svg11.dtd">
<svg xmlns:xlink="http://www.w3.org/1999/xlink" width="614.4pt" height="345.6pt" viewBox="0 0 614.4 345.6" xmlns="http://www.w3.org/2000/svg" version="1.1">
 <metadata>
  <rdf:RDF xmlns:dc="http://purl.org/dc/elements/1.1/" xmlns:cc="http://creativecommons.org/ns#" xmlns:rdf="http://www.w3.org/1999/02/22-rdf-syntax-ns#">
   <cc:Work>
    <dc:type rdf:resource="http://purl.org/dc/dcmitype/StillImage"/>
    <dc:date>2024-04-17T19:48:54.840376</dc:date>
    <dc:format>image/svg+xml</dc:format>
    <dc:creator>
     <cc:Agent>
      <dc:title>Matplotlib v3.7.1, https://matplotlib.org/</dc:title>
     </cc:Agent>
    </dc:creator>
   </cc:Work>
  </rdf:RDF>
 </metadata>
 <defs>
  <style type="text/css">*{stroke-linejoin: round; stroke-linecap: butt}</style>
 </defs>
 <g id="figure_1">
  <g id="patch_1">
   <path d="M 0 345.6 
L 614.4 345.6 
L 614.4 0 
L 0 0 
z
" style="fill: #ffffff"/>
  </g>
  <g id="axes_1">
   <g id="patch_2">
    <path d="M 63.290625 321.621875 
L 603.6 321.621875 
L 603.6 10.8 
L 63.290625 10.8 
z
" style="fill: #ffffff"/>
   </g>
   <path d="M 544.762613 303.750175 
L 543.762613 303.718738 
L 542.762613 303.681798 
L 541.762613 303.584051 
L 540.762613 303.55153 
L 539.762613 303.477905 
L 538.762613 303.43934 
L 537.762613 303.403926 
L 536.762613 303.346286 
L 535.762613 303.2759 
L 534.762613 303.223936 
L 533.762613 303.164846 
L 532.762613 303.076525 
L 531.762613 303.030381 
L 530.762613 302.98797 
L 529.762613 302.957477 
L 528.762613 302.931432 
L 527.762613 302.910232 
L 526.762613 302.855931 
L 525.762613 302.827994 
L 524.762613 302.79827 
L 523.762613 302.772875 
L 522.762613 302.761675 
L 521.762613 302.751551 
L 520.762613 302.751755 
L 519.762613 302.761265 
L 518.762613 302.772918 
L 517.762613 302.803948 
L 516.762613 302.815116 
L 515.762613 302.845233 
L 514.762613 302.90501 
L 513.762613 302.942202 
L 512.762613 302.981298 
L 511.762613 303.023737 
L 510.762613 303.056502 
L 509.762613 303.123929 
L 508.762613 303.163055 
L 507.762613 303.205729 
L 506.762613 303.27631 
L 505.762613 303.312701 
L 504.762613 303.371104 
L 503.762613 303.482057 
L 502.762613 303.552715 
L 501.762613 303.665655 
L 500.762613 303.711428 
L 499.762613 303.772711 
L 498.762613 303.82121 
L 497.762613 303.902033 
L 496.762613 304.020552 
L 495.762613 304.090762 
L 494.762613 304.174025 
L 493.762613 304.207167 
L 492.762613 304.258404 
L 491.762613 304.326802 
L 490.762613 304.393018 
L 489.762613 304.469935 
L 488.762613 304.49725 
L 487.762613 304.523728 
L 486.762613 304.546378 
L 485.762613 304.56591 
L 484.762613 304.592304 
L 483.762613 304.642074 
L 482.762613 304.677148 
L 481.762613 304.713013 
L 480.762613 304.728381 
L 479.762613 304.74415 
L 478.762613 304.747562 
L 477.762613 304.74998 
L 476.762613 304.749494 
L 475.762613 304.747565 
L 474.409329 304.734308 
" clip-path="url(#p4f19f2d132)" style="fill: none; stroke-dasharray: 3.7,1.6; stroke-dashoffset: 0; stroke: #2ca02c"/>
   <g id="patch_3">
    <path d="M 277.789121 10.8 
L 277.789121 184.506384 
M 385.225238 10.8 
L 385.225238 184.506384 
" clip-path="url(#p4f19f2d132)" style="fill: none; stroke: #ffffff; stroke-width: 3; stroke-linejoin: miter"/>
    <path d="M 277.789121 10.8 
L 277.789121 184.506384 
M 385.225238 10.8 
L 385.225238 184.506384 
" clip-path="url(#p4f19f2d132)" style="fill: none; stroke: #1f77b4; stroke-linejoin: miter"/>
    <g id="PolyCollection_1">
     <path d="M 385.225238 10.8 
L 277.789121 10.8 
L 277.789121 184.506384 
L 385.225238 184.506384 
L 385.225238 184.506384 
L 385.225238 10.8 
z
" clip-path="url(#p4f19f2d132)" style="fill: #1f77b4; fill-opacity: 0.5"/>
    </g>
    <g id="patch_4">
     <path d="M 87.850142 184.506384 
L 87.850142 321.621875 
M 225.520345 184.506384 
L 225.520345 321.621875 
" clip-path="url(#p4f19f2d132)" style="fill: none; stroke: #ffffff; stroke-width: 3; stroke-linejoin: miter"/>
     <path d="M 87.850142 184.506384 
L 87.850142 321.621875 
M 225.520345 184.506384 
L 225.520345 321.621875 
" clip-path="url(#p4f19f2d132)" style="fill: none; stroke: #ff7f0e; stroke-linejoin: miter"/>
     <g id="PolyCollection_2">
      <path d="M 225.520345 184.506384 
L 87.850142 184.506384 
L 87.850142 321.621875 
L 225.520345 321.621875 
L 225.520345 321.621875 
L 225.520345 184.506384 
z
" clip-path="url(#p4f19f2d132)" style="fill: #ff7f0e; fill-opacity: 0.5"/>
     </g>
     <g id="patch_5">
      <path d="M 550.165707 72.964375 
L 550.165707 321.621875 
M 579.040483 72.964375 
L 579.040483 321.621875 
" clip-path="url(#p4f19f2d132)" style="fill: none; stroke: #ffffff; stroke-width: 3; stroke-linejoin: miter"/>
      <path d="M 550.165707 72.964375 
L 550.165707 321.621875 
M 579.040483 72.964375 
L 579.040483 321.621875 
" clip-path="url(#p4f19f2d132)" style="fill: none; stroke: #2ca02c; stroke-linejoin: miter"/>
      <g id="PolyCollection_3">
       <path d="M 579.040483 72.964375 
L 550.165707 72.964375 
L 550.165707 321.621875 
L 579.040483 321.621875 
L 579.040483 321.621875 
L 579.040483 72.964375 
z
" clip-path="url(#p4f19f2d132)" style="fill: #2ca02c; fill-opacity: 0.5"/>
      </g>
      <g id="patch_6">
       <path d="M 427.104039 221.69201 
L 427.104039 321.621875 
M 469.006236 221.69201 
L 469.006236 321.621875 
" clip-path="url(#p4f19f2d132)" style="fill: none; stroke: #ffffff; stroke-width: 3; stroke-linejoin: miter"/>
       <path d="M 427.104039 221.69201 
L 427.104039 321.621875 
M 469.006236 221.69201 
L 469.006236 321.621875 
" clip-path="url(#p4f19f2d132)" style="fill: none; stroke: #d62728; stroke-linejoin: miter"/>
       <g id="PolyCollection_4">
        <path d="M 469.006236 221.69201 
L 427.104039 221.69201 
L 427.104039 321.621875 
L 469.006236 321.621875 
L 469.006236 321.621875 
L 469.006236 221.69201 
z
" clip-path="url(#p4f19f2d132)" style="fill: #d62728; fill-opacity: 0.5"/>
       </g>
       <g id="matplotlib.axis_1">
        <g id="xtick_1">
         <g id="line2d_1"/>
         <g id="text_1">
          <!-- OUT -->
          <g transform="translate(146.036025 332.720312) scale(0.1 -0.1)">
           <defs>
            <path id="DejaVuSans-4f" d="M 2522 4238 
Q 1834 4238 1429 3725 
Q 1025 3213 1025 2328 
Q 1025 1447 1429 934 
Q 1834 422 2522 422 
Q 3209 422 3611 934 
Q 4013 1447 4013 2328 
Q 4013 3213 3611 3725 
Q 3209 4238 2522 4238 
z
M 2522 4750 
Q 3503 4750 4090 4092 
Q 4678 3434 4678 2328 
Q 4678 1225 4090 567 
Q 3503 -91 2522 -91 
Q 1538 -91 948 565 
Q 359 1222 359 2328 
Q 359 3434 948 4092 
Q 1538 4750 2522 4750 
z
" transform="scale(0.015625)"/>
            <path id="DejaVuSans-55" d="M 556 4666 
L 1191 4666 
L 1191 1831 
Q 1191 1081 1462 751 
Q 1734 422 2344 422 
Q 2950 422 3222 751 
Q 3494 1081 3494 1831 
L 3494 4666 
L 4128 4666 
L 4128 1753 
Q 4128 841 3676 375 
Q 3225 -91 2344 -91 
Q 1459 -91 1007 375 
Q 556 841 556 1753 
L 556 4666 
z
" transform="scale(0.015625)"/>
            <path id="DejaVuSans-54" d="M -19 4666 
L 3928 4666 
L 3928 4134 
L 2272 4134 
L 2272 0 
L 1638 0 
L 1638 4134 
L -19 4134 
L -19 4666 
z
" transform="scale(0.015625)"/>
           </defs>
           <use xlink:href="#DejaVuSans-4f"/>
           <use xlink:href="#DejaVuSans-55" x="78.710938"/>
           <use xlink:href="#DejaVuSans-54" x="151.904297"/>
          </g>
         </g>
        </g>
        <g id="xtick_2">
         <g id="line2d_2"/>
         <g id="text_2">
          <!-- SRC -->
          <g transform="translate(554.713251 332.720312) scale(0.1 -0.1)">
           <defs>
            <path id="DejaVuSans-53" d="M 3425 4513 
L 3425 3897 
Q 3066 4069 2747 4153 
Q 2428 4238 2131 4238 
Q 1616 4238 1336 4038 
Q 1056 3838 1056 3469 
Q 1056 3159 1242 3001 
Q 1428 2844 1947 2747 
L 2328 2669 
Q 3034 2534 3370 2195 
Q 3706 1856 3706 1288 
Q 3706 609 3251 259 
Q 2797 -91 1919 -91 
Q 1588 -91 1214 -16 
Q 841 59 441 206 
L 441 856 
Q 825 641 1194 531 
Q 1563 422 1919 422 
Q 2459 422 2753 634 
Q 3047 847 3047 1241 
Q 3047 1584 2836 1778 
Q 2625 1972 2144 2069 
L 1759 2144 
Q 1053 2284 737 2584 
Q 422 2884 422 3419 
Q 422 4038 858 4394 
Q 1294 4750 2059 4750 
Q 2388 4750 2728 4690 
Q 3069 4631 3425 4513 
z
" transform="scale(0.015625)"/>
            <path id="DejaVuSans-52" d="M 2841 2188 
Q 3044 2119 3236 1894 
Q 3428 1669 3622 1275 
L 4263 0 
L 3584 0 
L 2988 1197 
Q 2756 1666 2539 1819 
Q 2322 1972 1947 1972 
L 1259 1972 
L 1259 0 
L 628 0 
L 628 4666 
L 2053 4666 
Q 2853 4666 3247 4331 
Q 3641 3997 3641 3322 
Q 3641 2881 3436 2590 
Q 3231 2300 2841 2188 
z
M 1259 4147 
L 1259 2491 
L 2053 2491 
Q 2509 2491 2742 2702 
Q 2975 2913 2975 3322 
Q 2975 3731 2742 3939 
Q 2509 4147 2053 4147 
L 1259 4147 
z
" transform="scale(0.015625)"/>
            <path id="DejaVuSans-43" d="M 4122 4306 
L 4122 3641 
Q 3803 3938 3442 4084 
Q 3081 4231 2675 4231 
Q 1875 4231 1450 3742 
Q 1025 3253 1025 2328 
Q 1025 1406 1450 917 
Q 1875 428 2675 428 
Q 3081 428 3442 575 
Q 3803 722 4122 1019 
L 4122 359 
Q 3791 134 3420 21 
Q 3050 -91 2638 -91 
Q 1578 -91 968 557 
Q 359 1206 359 2328 
Q 359 3453 968 4101 
Q 1578 4750 2638 4750 
Q 3056 4750 3426 4639 
Q 3797 4528 4122 4306 
z
" transform="scale(0.015625)"/>
           </defs>
           <use xlink:href="#DejaVuSans-53"/>
           <use xlink:href="#DejaVuSans-52" x="63.476562"/>
           <use xlink:href="#DejaVuSans-43" x="127.958984"/>
          </g>
         </g>
        </g>
        <g id="xtick_3">
         <g id="line2d_3"/>
         <g id="text_3">
          <!-- TAR -->
          <g transform="translate(438.4942 332.720312) scale(0.1 -0.1)">
           <defs>
            <path id="DejaVuSans-41" d="M 2188 4044 
L 1331 1722 
L 3047 1722 
L 2188 4044 
z
M 1831 4666 
L 2547 4666 
L 4325 0 
L 3669 0 
L 3244 1197 
L 1141 1197 
L 716 0 
L 50 0 
L 1831 4666 
z
" transform="scale(0.015625)"/>
           </defs>
           <use xlink:href="#DejaVuSans-54"/>
           <use xlink:href="#DejaVuSans-41" x="53.333984"/>
           <use xlink:href="#DejaVuSans-52" x="121.742188"/>
          </g>
         </g>
        </g>
       </g>
       <g id="matplotlib.axis_2">
        <g id="ytick_1">
         <g id="line2d_4">
          <defs>
           <path id="mbdff1c774b" d="M 0 0 
L -3.5 0 
" style="stroke: #000000; stroke-width: 0.8"/>
          </defs>
          <g>
           <use xlink:href="#mbdff1c774b" x="63.290625" y="321.621875" style="stroke: #000000; stroke-width: 0.8"/>
          </g>
         </g>
         <g id="text_4">
          <!-- 0 -->
          <g transform="translate(49.928125 325.421094) scale(0.1 -0.1)">
           <defs>
            <path id="DejaVuSans-30" d="M 2034 4250 
Q 1547 4250 1301 3770 
Q 1056 3291 1056 2328 
Q 1056 1369 1301 889 
Q 1547 409 2034 409 
Q 2525 409 2770 889 
Q 3016 1369 3016 2328 
Q 3016 3291 2770 3770 
Q 2525 4250 2034 4250 
z
M 2034 4750 
Q 2819 4750 3233 4129 
Q 3647 3509 3647 2328 
Q 3647 1150 3233 529 
Q 2819 -91 2034 -91 
Q 1250 -91 836 529 
Q 422 1150 422 2328 
Q 422 3509 836 4129 
Q 1250 4750 2034 4750 
z
" transform="scale(0.015625)"/>
           </defs>
           <use xlink:href="#DejaVuSans-30"/>
          </g>
         </g>
        </g>
        <g id="ytick_2">
         <g id="line2d_5">
          <g>
           <use xlink:href="#mbdff1c774b" x="63.290625" y="284.451117" style="stroke: #000000; stroke-width: 0.8"/>
          </g>
         </g>
         <g id="text_5">
          <!-- 2500 -->
          <g transform="translate(30.840625 288.250336) scale(0.1 -0.1)">
           <defs>
            <path id="DejaVuSans-32" d="M 1228 531 
L 3431 531 
L 3431 0 
L 469 0 
L 469 531 
Q 828 903 1448 1529 
Q 2069 2156 2228 2338 
Q 2531 2678 2651 2914 
Q 2772 3150 2772 3378 
Q 2772 3750 2511 3984 
Q 2250 4219 1831 4219 
Q 1534 4219 1204 4116 
Q 875 4013 500 3803 
L 500 4441 
Q 881 4594 1212 4672 
Q 1544 4750 1819 4750 
Q 2544 4750 2975 4387 
Q 3406 4025 3406 3419 
Q 3406 3131 3298 2873 
Q 3191 2616 2906 2266 
Q 2828 2175 2409 1742 
Q 1991 1309 1228 531 
z
" transform="scale(0.015625)"/>
            <path id="DejaVuSans-35" d="M 691 4666 
L 3169 4666 
L 3169 4134 
L 1269 4134 
L 1269 2991 
Q 1406 3038 1543 3061 
Q 1681 3084 1819 3084 
Q 2600 3084 3056 2656 
Q 3513 2228 3513 1497 
Q 3513 744 3044 326 
Q 2575 -91 1722 -91 
Q 1428 -91 1123 -41 
Q 819 9 494 109 
L 494 744 
Q 775 591 1075 516 
Q 1375 441 1709 441 
Q 2250 441 2565 725 
Q 2881 1009 2881 1497 
Q 2881 1984 2565 2268 
Q 2250 2553 1709 2553 
Q 1456 2553 1204 2497 
Q 953 2441 691 2322 
L 691 4666 
z
" transform="scale(0.015625)"/>
           </defs>
           <use xlink:href="#DejaVuSans-32"/>
           <use xlink:href="#DejaVuSans-35" x="63.623047"/>
           <use xlink:href="#DejaVuSans-30" x="127.246094"/>
           <use xlink:href="#DejaVuSans-30" x="190.869141"/>
          </g>
         </g>
        </g>
        <g id="ytick_3">
         <g id="line2d_6">
          <g>
           <use xlink:href="#mbdff1c774b" x="63.290625" y="247.28036" style="stroke: #000000; stroke-width: 0.8"/>
          </g>
         </g>
         <g id="text_6">
          <!-- 5000 -->
          <g transform="translate(30.840625 251.079579) scale(0.1 -0.1)">
           <use xlink:href="#DejaVuSans-35"/>
           <use xlink:href="#DejaVuSans-30" x="63.623047"/>
           <use xlink:href="#DejaVuSans-30" x="127.246094"/>
           <use xlink:href="#DejaVuSans-30" x="190.869141"/>
          </g>
         </g>
        </g>
        <g id="ytick_4">
         <g id="line2d_7">
          <g>
           <use xlink:href="#mbdff1c774b" x="63.290625" y="210.109602" style="stroke: #000000; stroke-width: 0.8"/>
          </g>
         </g>
         <g id="text_7">
          <!-- 7500 -->
          <g transform="translate(30.840625 213.908821) scale(0.1 -0.1)">
           <defs>
            <path id="DejaVuSans-37" d="M 525 4666 
L 3525 4666 
L 3525 4397 
L 1831 0 
L 1172 0 
L 2766 4134 
L 525 4134 
L 525 4666 
z
" transform="scale(0.015625)"/>
           </defs>
           <use xlink:href="#DejaVuSans-37"/>
           <use xlink:href="#DejaVuSans-35" x="63.623047"/>
           <use xlink:href="#DejaVuSans-30" x="127.246094"/>
           <use xlink:href="#DejaVuSans-30" x="190.869141"/>
          </g>
         </g>
        </g>
        <g id="ytick_5">
         <g id="line2d_8">
          <g>
           <use xlink:href="#mbdff1c774b" x="63.290625" y="172.938845" style="stroke: #000000; stroke-width: 0.8"/>
          </g>
         </g>
         <g id="text_8">
          <!-- 10000 -->
          <g transform="translate(24.478125 176.738063) scale(0.1 -0.1)">
           <defs>
            <path id="DejaVuSans-31" d="M 794 531 
L 1825 531 
L 1825 4091 
L 703 3866 
L 703 4441 
L 1819 4666 
L 2450 4666 
L 2450 531 
L 3481 531 
L 3481 0 
L 794 0 
L 794 531 
z
" transform="scale(0.015625)"/>
           </defs>
           <use xlink:href="#DejaVuSans-31"/>
           <use xlink:href="#DejaVuSans-30" x="63.623047"/>
           <use xlink:href="#DejaVuSans-30" x="127.246094"/>
           <use xlink:href="#DejaVuSans-30" x="190.869141"/>
           <use xlink:href="#DejaVuSans-30" x="254.492188"/>
          </g>
         </g>
        </g>
        <g id="ytick_6">
         <g id="line2d_9">
          <g>
           <use xlink:href="#mbdff1c774b" x="63.290625" y="135.768087" style="stroke: #000000; stroke-width: 0.8"/>
          </g>
         </g>
         <g id="text_9">
          <!-- 12500 -->
          <g transform="translate(24.478125 139.567306) scale(0.1 -0.1)">
           <use xlink:href="#DejaVuSans-31"/>
           <use xlink:href="#DejaVuSans-32" x="63.623047"/>
           <use xlink:href="#DejaVuSans-35" x="127.246094"/>
           <use xlink:href="#DejaVuSans-30" x="190.869141"/>
           <use xlink:href="#DejaVuSans-30" x="254.492188"/>
          </g>
         </g>
        </g>
        <g id="ytick_7">
         <g id="line2d_10">
          <g>
           <use xlink:href="#mbdff1c774b" x="63.290625" y="98.597329" style="stroke: #000000; stroke-width: 0.8"/>
          </g>
         </g>
         <g id="text_10">
          <!-- 15000 -->
          <g transform="translate(24.478125 102.396548) scale(0.1 -0.1)">
           <use xlink:href="#DejaVuSans-31"/>
           <use xlink:href="#DejaVuSans-35" x="63.623047"/>
           <use xlink:href="#DejaVuSans-30" x="127.246094"/>
           <use xlink:href="#DejaVuSans-30" x="190.869141"/>
           <use xlink:href="#DejaVuSans-30" x="254.492188"/>
          </g>
         </g>
        </g>
        <g id="ytick_8">
         <g id="line2d_11">
          <g>
           <use xlink:href="#mbdff1c774b" x="63.290625" y="61.426572" style="stroke: #000000; stroke-width: 0.8"/>
          </g>
         </g>
         <g id="text_11">
          <!-- 17500 -->
          <g transform="translate(24.478125 65.225791) scale(0.1 -0.1)">
           <use xlink:href="#DejaVuSans-31"/>
           <use xlink:href="#DejaVuSans-37" x="63.623047"/>
           <use xlink:href="#DejaVuSans-35" x="127.246094"/>
           <use xlink:href="#DejaVuSans-30" x="190.869141"/>
           <use xlink:href="#DejaVuSans-30" x="254.492188"/>
          </g>
         </g>
        </g>
        <g id="ytick_9">
         <g id="line2d_12">
          <g>
           <use xlink:href="#mbdff1c774b" x="63.290625" y="24.255814" style="stroke: #000000; stroke-width: 0.8"/>
          </g>
         </g>
         <g id="text_12">
          <!-- 20000 -->
          <g transform="translate(24.478125 28.055033) scale(0.1 -0.1)">
           <use xlink:href="#DejaVuSans-32"/>
           <use xlink:href="#DejaVuSans-30" x="63.623047"/>
           <use xlink:href="#DejaVuSans-30" x="127.246094"/>
           <use xlink:href="#DejaVuSans-30" x="190.869141"/>
           <use xlink:href="#DejaVuSans-30" x="254.492188"/>
          </g>
         </g>
        </g>
        <g id="text_13">
         <!-- time ago (generations) -->
         <g transform="translate(18.398438 223.682031) rotate(-90) scale(0.1 -0.1)">
          <defs>
           <path id="DejaVuSans-74" d="M 1172 4494 
L 1172 3500 
L 2356 3500 
L 2356 3053 
L 1172 3053 
L 1172 1153 
Q 1172 725 1289 603 
Q 1406 481 1766 481 
L 2356 481 
L 2356 0 
L 1766 0 
Q 1100 0 847 248 
Q 594 497 594 1153 
L 594 3053 
L 172 3053 
L 172 3500 
L 594 3500 
L 594 4494 
L 1172 4494 
z
" transform="scale(0.015625)"/>
           <path id="DejaVuSans-69" d="M 603 3500 
L 1178 3500 
L 1178 0 
L 603 0 
L 603 3500 
z
M 603 4863 
L 1178 4863 
L 1178 4134 
L 603 4134 
L 603 4863 
z
" transform="scale(0.015625)"/>
           <path id="DejaVuSans-6d" d="M 3328 2828 
Q 3544 3216 3844 3400 
Q 4144 3584 4550 3584 
Q 5097 3584 5394 3201 
Q 5691 2819 5691 2113 
L 5691 0 
L 5113 0 
L 5113 2094 
Q 5113 2597 4934 2840 
Q 4756 3084 4391 3084 
Q 3944 3084 3684 2787 
Q 3425 2491 3425 1978 
L 3425 0 
L 2847 0 
L 2847 2094 
Q 2847 2600 2669 2842 
Q 2491 3084 2119 3084 
Q 1678 3084 1418 2786 
Q 1159 2488 1159 1978 
L 1159 0 
L 581 0 
L 581 3500 
L 1159 3500 
L 1159 2956 
Q 1356 3278 1631 3431 
Q 1906 3584 2284 3584 
Q 2666 3584 2933 3390 
Q 3200 3197 3328 2828 
z
" transform="scale(0.015625)"/>
           <path id="DejaVuSans-65" d="M 3597 1894 
L 3597 1613 
L 953 1613 
Q 991 1019 1311 708 
Q 1631 397 2203 397 
Q 2534 397 2845 478 
Q 3156 559 3463 722 
L 3463 178 
Q 3153 47 2828 -22 
Q 2503 -91 2169 -91 
Q 1331 -91 842 396 
Q 353 884 353 1716 
Q 353 2575 817 3079 
Q 1281 3584 2069 3584 
Q 2775 3584 3186 3129 
Q 3597 2675 3597 1894 
z
M 3022 2063 
Q 3016 2534 2758 2815 
Q 2500 3097 2075 3097 
Q 1594 3097 1305 2825 
Q 1016 2553 972 2059 
L 3022 2063 
z
" transform="scale(0.015625)"/>
           <path id="DejaVuSans-20" transform="scale(0.015625)"/>
           <path id="DejaVuSans-61" d="M 2194 1759 
Q 1497 1759 1228 1600 
Q 959 1441 959 1056 
Q 959 750 1161 570 
Q 1363 391 1709 391 
Q 2188 391 2477 730 
Q 2766 1069 2766 1631 
L 2766 1759 
L 2194 1759 
z
M 3341 1997 
L 3341 0 
L 2766 0 
L 2766 531 
Q 2569 213 2275 61 
Q 1981 -91 1556 -91 
Q 1019 -91 701 211 
Q 384 513 384 1019 
Q 384 1609 779 1909 
Q 1175 2209 1959 2209 
L 2766 2209 
L 2766 2266 
Q 2766 2663 2505 2880 
Q 2244 3097 1772 3097 
Q 1472 3097 1187 3025 
Q 903 2953 641 2809 
L 641 3341 
Q 956 3463 1253 3523 
Q 1550 3584 1831 3584 
Q 2591 3584 2966 3190 
Q 3341 2797 3341 1997 
z
" transform="scale(0.015625)"/>
           <path id="DejaVuSans-67" d="M 2906 1791 
Q 2906 2416 2648 2759 
Q 2391 3103 1925 3103 
Q 1463 3103 1205 2759 
Q 947 2416 947 1791 
Q 947 1169 1205 825 
Q 1463 481 1925 481 
Q 2391 481 2648 825 
Q 2906 1169 2906 1791 
z
M 3481 434 
Q 3481 -459 3084 -895 
Q 2688 -1331 1869 -1331 
Q 1566 -1331 1297 -1286 
Q 1028 -1241 775 -1147 
L 775 -588 
Q 1028 -725 1275 -790 
Q 1522 -856 1778 -856 
Q 2344 -856 2625 -561 
Q 2906 -266 2906 331 
L 2906 616 
Q 2728 306 2450 153 
Q 2172 0 1784 0 
Q 1141 0 747 490 
Q 353 981 353 1791 
Q 353 2603 747 3093 
Q 1141 3584 1784 3584 
Q 2172 3584 2450 3431 
Q 2728 3278 2906 2969 
L 2906 3500 
L 3481 3500 
L 3481 434 
z
" transform="scale(0.015625)"/>
           <path id="DejaVuSans-6f" d="M 1959 3097 
Q 1497 3097 1228 2736 
Q 959 2375 959 1747 
Q 959 1119 1226 758 
Q 1494 397 1959 397 
Q 2419 397 2687 759 
Q 2956 1122 2956 1747 
Q 2956 2369 2687 2733 
Q 2419 3097 1959 3097 
z
M 1959 3584 
Q 2709 3584 3137 3096 
Q 3566 2609 3566 1747 
Q 3566 888 3137 398 
Q 2709 -91 1959 -91 
Q 1206 -91 779 398 
Q 353 888 353 1747 
Q 353 2609 779 3096 
Q 1206 3584 1959 3584 
z
" transform="scale(0.015625)"/>
           <path id="DejaVuSans-28" d="M 1984 4856 
Q 1566 4138 1362 3434 
Q 1159 2731 1159 2009 
Q 1159 1288 1364 580 
Q 1569 -128 1984 -844 
L 1484 -844 
Q 1016 -109 783 600 
Q 550 1309 550 2009 
Q 550 2706 781 3412 
Q 1013 4119 1484 4856 
L 1984 4856 
z
" transform="scale(0.015625)"/>
           <path id="DejaVuSans-6e" d="M 3513 2113 
L 3513 0 
L 2938 0 
L 2938 2094 
Q 2938 2591 2744 2837 
Q 2550 3084 2163 3084 
Q 1697 3084 1428 2787 
Q 1159 2491 1159 1978 
L 1159 0 
L 581 0 
L 581 3500 
L 1159 3500 
L 1159 2956 
Q 1366 3272 1645 3428 
Q 1925 3584 2291 3584 
Q 2894 3584 3203 3211 
Q 3513 2838 3513 2113 
z
" transform="scale(0.015625)"/>
           <path id="DejaVuSans-72" d="M 2631 2963 
Q 2534 3019 2420 3045 
Q 2306 3072 2169 3072 
Q 1681 3072 1420 2755 
Q 1159 2438 1159 1844 
L 1159 0 
L 581 0 
L 581 3500 
L 1159 3500 
L 1159 2956 
Q 1341 3275 1631 3429 
Q 1922 3584 2338 3584 
Q 2397 3584 2469 3576 
Q 2541 3569 2628 3553 
L 2631 2963 
z
" transform="scale(0.015625)"/>
           <path id="DejaVuSans-73" d="M 2834 3397 
L 2834 2853 
Q 2591 2978 2328 3040 
Q 2066 3103 1784 3103 
Q 1356 3103 1142 2972 
Q 928 2841 928 2578 
Q 928 2378 1081 2264 
Q 1234 2150 1697 2047 
L 1894 2003 
Q 2506 1872 2764 1633 
Q 3022 1394 3022 966 
Q 3022 478 2636 193 
Q 2250 -91 1575 -91 
Q 1294 -91 989 -36 
Q 684 19 347 128 
L 347 722 
Q 666 556 975 473 
Q 1284 391 1588 391 
Q 1994 391 2212 530 
Q 2431 669 2431 922 
Q 2431 1156 2273 1281 
Q 2116 1406 1581 1522 
L 1381 1569 
Q 847 1681 609 1914 
Q 372 2147 372 2553 
Q 372 3047 722 3315 
Q 1072 3584 1716 3584 
Q 2034 3584 2315 3537 
Q 2597 3491 2834 3397 
z
" transform="scale(0.015625)"/>
           <path id="DejaVuSans-29" d="M 513 4856 
L 1013 4856 
Q 1481 4119 1714 3412 
Q 1947 2706 1947 2009 
Q 1947 1309 1714 600 
Q 1481 -109 1013 -844 
L 513 -844 
Q 928 -128 1133 580 
Q 1338 1288 1338 2009 
Q 1338 2731 1133 3434 
Q 928 4138 513 4856 
z
" transform="scale(0.015625)"/>
          </defs>
          <use xlink:href="#DejaVuSans-74"/>
          <use xlink:href="#DejaVuSans-69" x="39.208984"/>
          <use xlink:href="#DejaVuSans-6d" x="66.992188"/>
          <use xlink:href="#DejaVuSans-65" x="164.404297"/>
          <use xlink:href="#DejaVuSans-20" x="225.927734"/>
          <use xlink:href="#DejaVuSans-61" x="257.714844"/>
          <use xlink:href="#DejaVuSans-67" x="318.994141"/>
          <use xlink:href="#DejaVuSans-6f" x="382.470703"/>
          <use xlink:href="#DejaVuSans-20" x="443.652344"/>
          <use xlink:href="#DejaVuSans-28" x="475.439453"/>
          <use xlink:href="#DejaVuSans-67" x="514.453125"/>
          <use xlink:href="#DejaVuSans-65" x="577.929688"/>
          <use xlink:href="#DejaVuSans-6e" x="639.453125"/>
          <use xlink:href="#DejaVuSans-65" x="702.832031"/>
          <use xlink:href="#DejaVuSans-72" x="764.355469"/>
          <use xlink:href="#DejaVuSans-61" x="805.46875"/>
          <use xlink:href="#DejaVuSans-74" x="866.748047"/>
          <use xlink:href="#DejaVuSans-69" x="905.957031"/>
          <use xlink:href="#DejaVuSans-6f" x="933.740234"/>
          <use xlink:href="#DejaVuSans-6e" x="994.921875"/>
          <use xlink:href="#DejaVuSans-73" x="1058.300781"/>
          <use xlink:href="#DejaVuSans-29" x="1110.400391"/>
         </g>
        </g>
       </g>
       <g id="patch_7">
        <path d="M 275.788845 184.506384 
L 274.788845 184.474948 
L 273.788845 184.438008 
L 272.788845 184.340261 
L 271.788845 184.307739 
L 270.788845 184.234115 
L 269.788845 184.195549 
L 268.788845 184.160136 
L 267.788845 184.102496 
L 266.788845 184.03211 
L 265.788845 183.980146 
L 264.788845 183.921056 
L 263.788845 183.832735 
L 262.788845 183.786591 
L 261.788845 183.74418 
L 260.788845 183.713687 
L 259.788845 183.687642 
L 258.788845 183.666442 
L 257.788845 183.612141 
L 256.788845 183.584203 
L 255.788845 183.554479 
L 254.788845 183.529085 
L 253.788845 183.517884 
L 252.788845 183.50776 
L 251.788845 183.507965 
L 250.788845 183.517474 
L 249.788845 183.529128 
L 248.788845 183.560157 
L 247.788845 183.571325 
L 246.788845 183.601443 
L 245.788845 183.66122 
L 244.788845 183.698411 
L 243.788845 183.737507 
L 242.788845 183.779947 
L 241.788845 183.812712 
L 240.788845 183.880139 
L 239.788845 183.919264 
L 238.788845 183.961939 
L 237.788845 184.03252 
L 236.788845 184.06891 
L 235.788845 184.127314 
L 234.788845 184.238266 
L 233.788845 184.308925 
L 232.788845 184.421864 
L 231.788845 184.467637 
L 230.788845 184.52892 
L 229.788845 184.57742 
L 228.635741 184.658242 
" clip-path="url(#p4f19f2d132)" style="fill: none; stroke: #ffffff; stroke-width: 3; stroke-linecap: round"/>
        <path d="M 275.788845 184.506384 
L 274.788845 184.474948 
L 273.788845 184.438008 
L 272.788845 184.340261 
L 271.788845 184.307739 
L 270.788845 184.234115 
L 269.788845 184.195549 
L 268.788845 184.160136 
L 267.788845 184.102496 
L 266.788845 184.03211 
L 265.788845 183.980146 
L 264.788845 183.921056 
L 263.788845 183.832735 
L 262.788845 183.786591 
L 261.788845 183.74418 
L 260.788845 183.713687 
L 259.788845 183.687642 
L 258.788845 183.666442 
L 257.788845 183.612141 
L 256.788845 183.584203 
L 255.788845 183.554479 
L 254.788845 183.529085 
L 253.788845 183.517884 
L 252.788845 183.50776 
L 251.788845 183.507965 
L 250.788845 183.517474 
L 249.788845 183.529128 
L 248.788845 183.560157 
L 247.788845 183.571325 
L 246.788845 183.601443 
L 245.788845 183.66122 
L 244.788845 183.698411 
L 243.788845 183.737507 
L 242.788845 183.779947 
L 241.788845 183.812712 
L 240.788845 183.880139 
L 239.788845 183.919264 
L 238.788845 183.961939 
L 237.788845 184.03252 
L 236.788845 184.06891 
L 235.788845 184.127314 
L 234.788845 184.238266 
L 233.788845 184.308925 
L 232.788845 184.421864 
L 231.788845 184.467637 
L 230.788845 184.52892 
L 229.788845 184.57742 
L 228.635741 184.658242 
" clip-path="url(#p4f19f2d132)" style="fill: none; stroke: #1f77b4; stroke-linecap: round"/>
        <path d="M 232.635741 186.506384 
L 231.755373 186.031053 
L 230.877466 185.550799 
L 230.026753 185.016158 
L 228.724578 184.328711 
L 229.651931 184.302696 
L 230.563606 183.889977 
L 231.47387 183.474438 
L 232.816366 182.867633 
L 232.161467 183.506384 
L 232.109503 184.506384 
L 232.050413 186.506384 
z
" clip-path="url(#p4f19f2d132)" style="fill: #ffffff; stroke: #ffffff; stroke-width: 3; stroke-linecap: round"/>
        <path d="M 232.635741 186.506384 
L 231.755373 186.031053 
L 230.877466 185.550799 
L 230.026753 185.016158 
L 228.724578 184.328711 
L 229.651931 184.302696 
L 230.563606 183.889977 
L 231.47387 183.474438 
L 232.816366 182.867633 
L 232.161467 183.506384 
L 232.109503 184.506384 
L 232.050413 186.506384 
z
" clip-path="url(#p4f19f2d132)" style="fill: #ffffff; stroke: #1f77b4; stroke-linecap: round"/>
        <g id="patch_8">
         <path d="M 387.226088 72.964375 
L 388.226088 72.995811 
L 389.226088 73.032752 
L 390.226088 73.130498 
L 391.226088 73.16302 
L 392.226088 73.236645 
L 393.226088 73.27521 
L 394.226088 73.310623 
L 395.226088 73.368263 
L 396.226088 73.438649 
L 397.226088 73.490614 
L 398.226088 73.549703 
L 399.226088 73.638024 
L 400.226088 73.684169 
L 401.226088 73.72658 
L 402.226088 73.757072 
L 403.226088 73.783117 
L 404.226088 73.804317 
L 405.226088 73.858618 
L 406.226088 73.886556 
L 407.226088 73.91628 
L 408.226088 73.941675 
L 409.226088 73.952875 
L 410.226088 73.962999 
L 411.226088 73.962795 
L 412.226088 73.953285 
L 413.226088 73.941631 
L 414.226088 73.910602 
L 415.226088 73.899434 
L 416.226088 73.869317 
L 417.226088 73.80954 
L 418.226088 73.772348 
L 419.226088 73.733252 
L 420.226088 73.690812 
L 421.226088 73.658047 
L 422.226088 73.590621 
L 423.226088 73.551495 
L 424.226088 73.50882 
L 425.226088 73.43824 
L 426.226088 73.401849 
L 427.226088 73.343446 
L 428.226088 73.232493 
L 429.226088 73.161835 
L 430.226088 73.048895 
L 431.226088 73.003122 
L 432.226088 72.941839 
L 433.226088 72.89334 
L 434.226088 72.812517 
L 435.226088 72.693998 
L 436.226088 72.623787 
L 437.226088 72.540525 
L 438.226088 72.507383 
L 439.226088 72.456146 
L 440.226088 72.387747 
L 441.226088 72.321532 
L 442.226088 72.244615 
L 443.226088 72.217299 
L 444.226088 72.190822 
L 445.226088 72.168171 
L 446.226088 72.14864 
L 447.226088 72.122246 
L 448.226088 72.072475 
L 449.226088 72.037402 
L 450.226088 72.001536 
L 451.226088 71.986169 
L 452.226088 71.9704 
L 453.226088 71.966987 
L 454.226088 71.96457 
L 455.226088 71.965056 
L 456.226088 71.966985 
L 457.226088 71.980242 
L 458.226088 71.988633 
L 459.226088 72.010169 
L 460.226088 72.033202 
L 461.226088 72.050435 
L 462.226088 72.068898 
L 463.226088 72.08935 
L 464.226088 72.10595 
L 465.226088 72.168729 
L 466.226088 72.243994 
L 467.226088 72.276633 
L 468.226088 72.344197 
L 469.226088 72.398244 
L 470.226088 72.431948 
L 471.226088 72.522074 
L 472.226088 72.550609 
L 473.226088 72.582095 
L 474.226088 72.613106 
L 475.226088 72.667914 
L 476.226088 72.732501 
L 477.226088 72.770697 
L 478.226088 72.866631 
L 479.226088 72.915889 
L 480.226088 72.959958 
L 481.226088 73.000082 
L 482.226088 73.108449 
L 483.226088 73.150077 
L 484.226088 73.212219 
L 485.226088 73.282181 
L 486.226088 73.386685 
L 487.226088 73.423673 
L 488.226088 73.46955 
L 489.226088 73.538045 
L 490.226088 73.586791 
L 491.226088 73.664388 
L 492.226088 73.694929 
L 493.226088 73.764443 
L 494.226088 73.788416 
L 495.226088 73.817038 
L 496.226088 73.858831 
L 497.226088 73.880407 
L 498.226088 73.894355 
L 499.226088 73.921077 
L 500.226088 73.930387 
L 501.226088 73.942834 
L 502.226088 73.953889 
L 503.226088 73.959553 
L 504.226088 73.964317 
L 505.226088 73.958769 
L 506.226088 73.945481 
L 507.226088 73.937964 
L 508.226088 73.913179 
L 509.226088 73.88961 
L 510.226088 73.85343 
L 511.226088 73.827468 
L 512.226088 73.805146 
L 513.226088 73.736386 
L 514.226088 73.661851 
L 515.226088 73.567872 
L 516.226088 73.51682 
L 517.226088 73.462886 
L 518.226088 73.427635 
L 519.226088 73.321547 
L 520.226088 73.269283 
L 521.226088 73.232376 
L 522.226088 73.201345 
L 523.226088 73.14019 
L 524.226088 73.07277 
L 525.226088 73.023864 
L 526.226088 72.958672 
L 527.226088 72.920484 
L 528.226088 72.878488 
L 529.226088 72.836471 
L 530.226088 72.776955 
L 531.226088 72.663795 
L 532.226088 72.611544 
L 533.226088 72.572126 
L 534.226088 72.525025 
L 535.226088 72.468245 
L 536.226088 72.435582 
L 537.226088 72.399404 
L 538.226088 72.367314 
L 539.226088 72.333034 
L 540.226088 72.274656 
L 541.226088 72.229471 
L 542.226088 72.199847 
L 543.226088 72.149461 
L 544.226088 72.124264 
L 545.226088 72.103213 
L 547.043747 72.068245 
" clip-path="url(#p4f19f2d132)" style="fill: none; stroke: #ffffff; stroke-width: 3; stroke-linecap: round"/>
         <path d="M 387.226088 72.964375 
L 388.226088 72.995811 
L 389.226088 73.032752 
L 390.226088 73.130498 
L 391.226088 73.16302 
L 392.226088 73.236645 
L 393.226088 73.27521 
L 394.226088 73.310623 
L 395.226088 73.368263 
L 396.226088 73.438649 
L 397.226088 73.490614 
L 398.226088 73.549703 
L 399.226088 73.638024 
L 400.226088 73.684169 
L 401.226088 73.72658 
L 402.226088 73.757072 
L 403.226088 73.783117 
L 404.226088 73.804317 
L 405.226088 73.858618 
L 406.226088 73.886556 
L 407.226088 73.91628 
L 408.226088 73.941675 
L 409.226088 73.952875 
L 410.226088 73.962999 
L 411.226088 73.962795 
L 412.226088 73.953285 
L 413.226088 73.941631 
L 414.226088 73.910602 
L 415.226088 73.899434 
L 416.226088 73.869317 
L 417.226088 73.80954 
L 418.226088 73.772348 
L 419.226088 73.733252 
L 420.226088 73.690812 
L 421.226088 73.658047 
L 422.226088 73.590621 
L 423.226088 73.551495 
L 424.226088 73.50882 
L 425.226088 73.43824 
L 426.226088 73.401849 
L 427.226088 73.343446 
L 428.226088 73.232493 
L 429.226088 73.161835 
L 430.226088 73.048895 
L 431.226088 73.003122 
L 432.226088 72.941839 
L 433.226088 72.89334 
L 434.226088 72.812517 
L 435.226088 72.693998 
L 436.226088 72.623787 
L 437.226088 72.540525 
L 438.226088 72.507383 
L 439.226088 72.456146 
L 440.226088 72.387747 
L 441.226088 72.321532 
L 442.226088 72.244615 
L 443.226088 72.217299 
L 444.226088 72.190822 
L 445.226088 72.168171 
L 446.226088 72.14864 
L 447.226088 72.122246 
L 448.226088 72.072475 
L 449.226088 72.037402 
L 450.226088 72.001536 
L 451.226088 71.986169 
L 452.226088 71.9704 
L 453.226088 71.966987 
L 454.226088 71.96457 
L 455.226088 71.965056 
L 456.226088 71.966985 
L 457.226088 71.980242 
L 458.226088 71.988633 
L 459.226088 72.010169 
L 460.226088 72.033202 
L 461.226088 72.050435 
L 462.226088 72.068898 
L 463.226088 72.08935 
L 464.226088 72.10595 
L 465.226088 72.168729 
L 466.226088 72.243994 
L 467.226088 72.276633 
L 468.226088 72.344197 
L 469.226088 72.398244 
L 470.226088 72.431948 
L 471.226088 72.522074 
L 472.226088 72.550609 
L 473.226088 72.582095 
L 474.226088 72.613106 
L 475.226088 72.667914 
L 476.226088 72.732501 
L 477.226088 72.770697 
L 478.226088 72.866631 
L 479.226088 72.915889 
L 480.226088 72.959958 
L 481.226088 73.000082 
L 482.226088 73.108449 
L 483.226088 73.150077 
L 484.226088 73.212219 
L 485.226088 73.282181 
L 486.226088 73.386685 
L 487.226088 73.423673 
L 488.226088 73.46955 
L 489.226088 73.538045 
L 490.226088 73.586791 
L 491.226088 73.664388 
L 492.226088 73.694929 
L 493.226088 73.764443 
L 494.226088 73.788416 
L 495.226088 73.817038 
L 496.226088 73.858831 
L 497.226088 73.880407 
L 498.226088 73.894355 
L 499.226088 73.921077 
L 500.226088 73.930387 
L 501.226088 73.942834 
L 502.226088 73.953889 
L 503.226088 73.959553 
L 504.226088 73.964317 
L 505.226088 73.958769 
L 506.226088 73.945481 
L 507.226088 73.937964 
L 508.226088 73.913179 
L 509.226088 73.88961 
L 510.226088 73.85343 
L 511.226088 73.827468 
L 512.226088 73.805146 
L 513.226088 73.736386 
L 514.226088 73.661851 
L 515.226088 73.567872 
L 516.226088 73.51682 
L 517.226088 73.462886 
L 518.226088 73.427635 
L 519.226088 73.321547 
L 520.226088 73.269283 
L 521.226088 73.232376 
L 522.226088 73.201345 
L 523.226088 73.14019 
L 524.226088 73.07277 
L 525.226088 73.023864 
L 526.226088 72.958672 
L 527.226088 72.920484 
L 528.226088 72.878488 
L 529.226088 72.836471 
L 530.226088 72.776955 
L 531.226088 72.663795 
L 532.226088 72.611544 
L 533.226088 72.572126 
L 534.226088 72.525025 
L 535.226088 72.468245 
L 536.226088 72.435582 
L 537.226088 72.399404 
L 538.226088 72.367314 
L 539.226088 72.333034 
L 540.226088 72.274656 
L 541.226088 72.229471 
L 542.226088 72.199847 
L 543.226088 72.149461 
L 544.226088 72.124264 
L 545.226088 72.103213 
L 547.043747 72.068245 
" clip-path="url(#p4f19f2d132)" style="fill: none; stroke: #1f77b4; stroke-linecap: round"/>
         <path d="M 543.043747 70.964375 
L 543.924115 71.439706 
L 544.802022 71.91996 
L 545.652736 72.454601 
L 546.95491 73.142048 
L 546.027557 73.168063 
L 545.115883 73.580783 
L 544.205618 73.996322 
L 542.863122 74.603126 
L 543.518021 73.964375 
L 543.569985 72.964375 
L 543.629075 70.964375 
z
" clip-path="url(#p4f19f2d132)" style="fill: #ffffff; stroke: #ffffff; stroke-width: 3; stroke-linecap: round"/>
         <path d="M 543.043747 70.964375 
L 543.924115 71.439706 
L 544.802022 71.91996 
L 545.652736 72.454601 
L 546.95491 73.142048 
L 546.027557 73.168063 
L 545.115883 73.580783 
L 544.205618 73.996322 
L 542.863122 74.603126 
L 543.518021 73.964375 
L 543.569985 72.964375 
L 543.629075 70.964375 
z
" clip-path="url(#p4f19f2d132)" style="fill: #ffffff; stroke: #1f77b4; stroke-linecap: round"/>
         <g id="patch_9">
          <path d="M 227.522771 221.69201 
L 228.522771 221.723447 
L 229.522771 221.760387 
L 230.522771 221.858134 
L 231.522771 221.890655 
L 232.522771 221.96428 
L 233.522771 222.002846 
L 234.522771 222.038259 
L 235.522771 222.095899 
L 236.522771 222.166285 
L 237.522771 222.218249 
L 238.522771 222.277339 
L 239.522771 222.36566 
L 240.522771 222.411804 
L 241.522771 222.454215 
L 242.522771 222.484708 
L 243.522771 222.510753 
L 244.522771 222.531953 
L 245.522771 222.586254 
L 246.522771 222.614191 
L 247.522771 222.643915 
L 248.522771 222.66931 
L 249.522771 222.680511 
L 250.522771 222.690634 
L 251.522771 222.69043 
L 252.522771 222.68092 
L 253.522771 222.669267 
L 254.522771 222.638237 
L 255.522771 222.62707 
L 256.522771 222.596952 
L 257.522771 222.537175 
L 258.522771 222.499984 
L 259.522771 222.460887 
L 260.522771 222.418448 
L 261.522771 222.385683 
L 262.522771 222.318256 
L 263.522771 222.27913 
L 264.522771 222.236456 
L 265.522771 222.165875 
L 266.522771 222.129484 
L 267.522771 222.071081 
L 268.522771 221.960129 
L 269.522771 221.88947 
L 270.522771 221.77653 
L 271.522771 221.730758 
L 272.522771 221.669474 
L 273.522771 221.620975 
L 274.522771 221.540152 
L 275.522771 221.421633 
L 276.522771 221.351423 
L 277.522771 221.26816 
L 278.522771 221.235018 
L 279.522771 221.183781 
L 280.522771 221.115383 
L 281.522771 221.049167 
L 282.522771 220.97225 
L 283.522771 220.944935 
L 284.522771 220.918457 
L 285.522771 220.895807 
L 286.522771 220.876275 
L 287.522771 220.849881 
L 288.522771 220.800111 
L 289.522771 220.765037 
L 290.522771 220.729172 
L 291.522771 220.713804 
L 292.522771 220.698035 
L 293.522771 220.694623 
L 294.522771 220.692205 
L 295.522771 220.692691 
L 296.522771 220.69462 
L 297.522771 220.707877 
L 298.522771 220.716268 
L 299.522771 220.737805 
L 300.522771 220.760837 
L 301.522771 220.778071 
L 302.522771 220.796533 
L 303.522771 220.816986 
L 304.522771 220.833586 
L 305.522771 220.896364 
L 306.522771 220.971629 
L 307.522771 221.004268 
L 308.522771 221.071832 
L 309.522771 221.125879 
L 310.522771 221.159583 
L 311.522771 221.249709 
L 312.522771 221.278244 
L 313.522771 221.30973 
L 314.522771 221.340741 
L 315.522771 221.395549 
L 316.522771 221.460137 
L 317.522771 221.498332 
L 318.522771 221.594266 
L 319.522771 221.643524 
L 320.522771 221.687594 
L 321.522771 221.727717 
L 322.522771 221.836084 
L 323.522771 221.877712 
L 324.522771 221.939854 
L 325.522771 222.009816 
L 326.522771 222.114321 
L 327.522771 222.151308 
L 328.522771 222.197186 
L 329.522771 222.26568 
L 330.522771 222.314426 
L 331.522771 222.392023 
L 332.522771 222.422564 
L 333.522771 222.492079 
L 334.522771 222.516052 
L 335.522771 222.544673 
L 336.522771 222.586466 
L 337.522771 222.608042 
L 338.522771 222.62199 
L 339.522771 222.648713 
L 340.522771 222.658022 
L 341.522771 222.670469 
L 342.522771 222.681524 
L 343.522771 222.687189 
L 344.522771 222.691952 
L 345.522771 222.686405 
L 346.522771 222.673117 
L 347.522771 222.665599 
L 348.522771 222.640814 
L 349.522771 222.617246 
L 350.522771 222.581065 
L 351.522771 222.555103 
L 352.522771 222.532782 
L 353.522771 222.464022 
L 354.522771 222.389486 
L 355.522771 222.295507 
L 356.522771 222.244455 
L 357.522771 222.190521 
L 358.522771 222.155271 
L 359.522771 222.049183 
L 360.522771 221.996918 
L 361.522771 221.960012 
L 362.522771 221.928981 
L 363.522771 221.867825 
L 364.522771 221.800405 
L 365.522771 221.751499 
L 366.522771 221.686307 
L 367.522771 221.64812 
L 368.522771 221.606124 
L 369.522771 221.564106 
L 370.522771 221.50459 
L 371.522771 221.39143 
L 372.522771 221.339179 
L 373.522771 221.299762 
L 374.522771 221.25266 
L 375.522771 221.195881 
L 376.522771 221.163218 
L 377.522771 221.12704 
L 378.522771 221.094949 
L 379.522771 221.060669 
L 380.522771 221.002291 
L 381.522771 220.957106 
L 382.522771 220.927483 
L 383.522771 220.877097 
L 384.522771 220.851899 
L 385.522771 220.830848 
L 386.522771 220.79588 
L 387.522771 220.77159 
L 388.522771 220.757523 
L 389.522771 220.738582 
L 390.522771 220.72292 
L 391.522771 220.710368 
L 392.522771 220.704533 
L 393.522771 220.69765 
L 394.522771 220.692476 
L 395.522771 220.694259 
L 396.522771 220.696985 
L 397.522771 220.708138 
L 398.522771 220.736373 
L 399.522771 220.780161 
L 400.522771 220.80085 
L 401.522771 220.841824 
L 402.522771 220.881899 
L 403.522771 220.901008 
L 404.522771 220.923517 
L 405.522771 220.990169 
L 406.522771 221.039878 
L 407.522771 221.113585 
L 408.522771 221.144898 
L 409.522771 221.22152 
L 410.522771 221.259819 
L 411.522771 221.333935 
L 412.522771 221.437994 
L 413.522771 221.507824 
L 414.522771 221.613058 
L 415.522771 221.668073 
L 416.522771 221.791548 
L 417.522771 221.862107 
L 418.522771 221.977947 
L 419.522771 222.028127 
L 420.522771 222.063732 
L 421.522771 222.155138 
L 422.522771 222.208646 
L 423.985198 222.296554 
" clip-path="url(#p4f19f2d132)" style="fill: none; stroke: #ffffff; stroke-width: 3; stroke-linecap: round"/>
          <path d="M 227.522771 221.69201 
L 228.522771 221.723447 
L 229.522771 221.760387 
L 230.522771 221.858134 
L 231.522771 221.890655 
L 232.522771 221.96428 
L 233.522771 222.002846 
L 234.522771 222.038259 
L 235.522771 222.095899 
L 236.522771 222.166285 
L 237.522771 222.218249 
L 238.522771 222.277339 
L 239.522771 222.36566 
L 240.522771 222.411804 
L 241.522771 222.454215 
L 242.522771 222.484708 
L 243.522771 222.510753 
L 244.522771 222.531953 
L 245.522771 222.586254 
L 246.522771 222.614191 
L 247.522771 222.643915 
L 248.522771 222.66931 
L 249.522771 222.680511 
L 250.522771 222.690634 
L 251.522771 222.69043 
L 252.522771 222.68092 
L 253.522771 222.669267 
L 254.522771 222.638237 
L 255.522771 222.62707 
L 256.522771 222.596952 
L 257.522771 222.537175 
L 258.522771 222.499984 
L 259.522771 222.460887 
L 260.522771 222.418448 
L 261.522771 222.385683 
L 262.522771 222.318256 
L 263.522771 222.27913 
L 264.522771 222.236456 
L 265.522771 222.165875 
L 266.522771 222.129484 
L 267.522771 222.071081 
L 268.522771 221.960129 
L 269.522771 221.88947 
L 270.522771 221.77653 
L 271.522771 221.730758 
L 272.522771 221.669474 
L 273.522771 221.620975 
L 274.522771 221.540152 
L 275.522771 221.421633 
L 276.522771 221.351423 
L 277.522771 221.26816 
L 278.522771 221.235018 
L 279.522771 221.183781 
L 280.522771 221.115383 
L 281.522771 221.049167 
L 282.522771 220.97225 
L 283.522771 220.944935 
L 284.522771 220.918457 
L 285.522771 220.895807 
L 286.522771 220.876275 
L 287.522771 220.849881 
L 288.522771 220.800111 
L 289.522771 220.765037 
L 290.522771 220.729172 
L 291.522771 220.713804 
L 292.522771 220.698035 
L 293.522771 220.694623 
L 294.522771 220.692205 
L 295.522771 220.692691 
L 296.522771 220.69462 
L 297.522771 220.707877 
L 298.522771 220.716268 
L 299.522771 220.737805 
L 300.522771 220.760837 
L 301.522771 220.778071 
L 302.522771 220.796533 
L 303.522771 220.816986 
L 304.522771 220.833586 
L 305.522771 220.896364 
L 306.522771 220.971629 
L 307.522771 221.004268 
L 308.522771 221.071832 
L 309.522771 221.125879 
L 310.522771 221.159583 
L 311.522771 221.249709 
L 312.522771 221.278244 
L 313.522771 221.30973 
L 314.522771 221.340741 
L 315.522771 221.395549 
L 316.522771 221.460137 
L 317.522771 221.498332 
L 318.522771 221.594266 
L 319.522771 221.643524 
L 320.522771 221.687594 
L 321.522771 221.727717 
L 322.522771 221.836084 
L 323.522771 221.877712 
L 324.522771 221.939854 
L 325.522771 222.009816 
L 326.522771 222.114321 
L 327.522771 222.151308 
L 328.522771 222.197186 
L 329.522771 222.26568 
L 330.522771 222.314426 
L 331.522771 222.392023 
L 332.522771 222.422564 
L 333.522771 222.492079 
L 334.522771 222.516052 
L 335.522771 222.544673 
L 336.522771 222.586466 
L 337.522771 222.608042 
L 338.522771 222.62199 
L 339.522771 222.648713 
L 340.522771 222.658022 
L 341.522771 222.670469 
L 342.522771 222.681524 
L 343.522771 222.687189 
L 344.522771 222.691952 
L 345.522771 222.686405 
L 346.522771 222.673117 
L 347.522771 222.665599 
L 348.522771 222.640814 
L 349.522771 222.617246 
L 350.522771 222.581065 
L 351.522771 222.555103 
L 352.522771 222.532782 
L 353.522771 222.464022 
L 354.522771 222.389486 
L 355.522771 222.295507 
L 356.522771 222.244455 
L 357.522771 222.190521 
L 358.522771 222.155271 
L 359.522771 222.049183 
L 360.522771 221.996918 
L 361.522771 221.960012 
L 362.522771 221.928981 
L 363.522771 221.867825 
L 364.522771 221.800405 
L 365.522771 221.751499 
L 366.522771 221.686307 
L 367.522771 221.64812 
L 368.522771 221.606124 
L 369.522771 221.564106 
L 370.522771 221.50459 
L 371.522771 221.39143 
L 372.522771 221.339179 
L 373.522771 221.299762 
L 374.522771 221.25266 
L 375.522771 221.195881 
L 376.522771 221.163218 
L 377.522771 221.12704 
L 378.522771 221.094949 
L 379.522771 221.060669 
L 380.522771 221.002291 
L 381.522771 220.957106 
L 382.522771 220.927483 
L 383.522771 220.877097 
L 384.522771 220.851899 
L 385.522771 220.830848 
L 386.522771 220.79588 
L 387.522771 220.77159 
L 388.522771 220.757523 
L 389.522771 220.738582 
L 390.522771 220.72292 
L 391.522771 220.710368 
L 392.522771 220.704533 
L 393.522771 220.69765 
L 394.522771 220.692476 
L 395.522771 220.694259 
L 396.522771 220.696985 
L 397.522771 220.708138 
L 398.522771 220.736373 
L 399.522771 220.780161 
L 400.522771 220.80085 
L 401.522771 220.841824 
L 402.522771 220.881899 
L 403.522771 220.901008 
L 404.522771 220.923517 
L 405.522771 220.990169 
L 406.522771 221.039878 
L 407.522771 221.113585 
L 408.522771 221.144898 
L 409.522771 221.22152 
L 410.522771 221.259819 
L 411.522771 221.333935 
L 412.522771 221.437994 
L 413.522771 221.507824 
L 414.522771 221.613058 
L 415.522771 221.668073 
L 416.522771 221.791548 
L 417.522771 221.862107 
L 418.522771 221.977947 
L 419.522771 222.028127 
L 420.522771 222.063732 
L 421.522771 222.155138 
L 422.522771 222.208646 
L 423.985198 222.296554 
" clip-path="url(#p4f19f2d132)" style="fill: none; stroke: #ff7f0e; stroke-linecap: round"/>
          <path d="M 419.985198 219.69201 
L 420.865567 220.167341 
L 421.743474 220.647595 
L 422.594187 221.182236 
L 423.896361 221.869684 
L 422.969008 221.895699 
L 422.057334 222.308418 
L 421.14707 222.723957 
L 419.804574 223.330762 
L 420.459473 222.69201 
L 420.511437 221.69201 
L 420.570527 219.69201 
z
" clip-path="url(#p4f19f2d132)" style="fill: #ffffff; stroke: #ffffff; stroke-width: 3; stroke-linecap: round"/>
          <path d="M 419.985198 219.69201 
L 420.865567 220.167341 
L 421.743474 220.647595 
L 422.594187 221.182236 
L 423.896361 221.869684 
L 422.969008 221.895699 
L 422.057334 222.308418 
L 421.14707 222.723957 
L 419.804574 223.330762 
L 420.459473 222.69201 
L 420.511437 221.69201 
L 420.570527 219.69201 
z
" clip-path="url(#p4f19f2d132)" style="fill: #ffffff; stroke: #ff7f0e; stroke-linecap: round"/>
          <path d="M 474.409329 303.750175 
" clip-path="url(#p4f19f2d132)" style="fill: none; stroke-dasharray: 3.7,1.6; stroke-dashoffset: 0; stroke: #2ca02c"/>
          <path d="M 473.409329 303.750175 
L 475.409329 304.750175 
L 475.409329 302.750175 
z
" clip-path="url(#p4f19f2d132)" style="fill: #2ca02c; stroke: #2ca02c; stroke-linejoin: miter"/>
          <g id="patch_10">
           <path d="M 63.290625 321.621875 
L 63.290625 10.8 
" style="fill: none; stroke: #000000; stroke-width: 0.8; stroke-linejoin: miter; stroke-linecap: square"/>
          </g>
          <g id="text_14">
           <g id="patch_11">
            <path d="M 320.854836 104.492255 
L 342.159524 104.492255 
Q 344.159524 104.492255 344.159524 102.492255 
L 344.159524 92.81413 
Q 344.159524 90.81413 342.159524 90.81413 
L 320.854836 90.81413 
Q 318.854836 90.81413 318.854836 92.81413 
L 318.854836 102.492255 
Q 318.854836 104.492255 320.854836 104.492255 
z
" style="fill: #ffffff; opacity: 0.6"/>
           </g>
           <!-- ANC -->
           <g transform="translate(320.854836 100.412567) scale(0.1 -0.1)">
            <defs>
             <path id="DejaVuSans-4e" d="M 628 4666 
L 1478 4666 
L 3547 763 
L 3547 4666 
L 4159 4666 
L 4159 0 
L 3309 0 
L 1241 3903 
L 1241 0 
L 628 0 
L 628 4666 
z
" transform="scale(0.015625)"/>
            </defs>
            <use xlink:href="#DejaVuSans-41"/>
            <use xlink:href="#DejaVuSans-4e" x="68.408203"/>
            <use xlink:href="#DejaVuSans-43" x="143.212891"/>
           </g>
          </g>
         </g>
        </g>
        <defs>
         <clipPath id="p4f19f2d132">
          <rect x="63.290625" y="10.8" width="540.309375" height="310.821875"/>
         </clipPath>
        </defs>
       </g>
      </g>
     </g>
    </g>
   </g>
  </g>
 </g>
</svg>
