<?xml version="1.0" encoding="utf-8" standalone="no"?>
<!DOCTYPE svg PUBLIC "-//W3C//DTD SVG 1.1//EN"
  "http://www.w3.org/Graphics/SVG/1.1/DTD/svg11.dtd">
<svg xmlns:xlink="http://www.w3.org/1999/xlink" width="614.4pt" height="345.6pt" viewBox="0 0 614.4 345.6" xmlns="http://www.w3.org/2000/svg" version="1.1">
 <metadata>
  <rdf:RDF xmlns:dc="http://purl.org/dc/elements/1.1/" xmlns:cc="http://creativecommons.org/ns#" xmlns:rdf="http://www.w3.org/1999/02/22-rdf-syntax-ns#">
   <cc:Work>
    <dc:type rdf:resource="http://purl.org/dc/dcmitype/StillImage"/>
    <dc:date>2024-04-17T19:48:38.385974</dc:date>
    <dc:format>image/svg+xml</dc:format>
    <dc:creator>
     <cc:Agent>
      <dc:title>Matplotlib v3.7.1, https://matplotlib.org/</dc:title>
     </cc:Agent>
    </dc:creator>
   </cc:Work>
  </rdf:RDF>
 </metadata>
 <defs>
  <style type="text/css">*{stroke-linejoin: round; stroke-linecap: butt}</style>
 </defs>
 <g id="figure_1">
  <g id="patch_1">
   <path d="M 0 345.6 
L 614.4 345.6 
L 614.4 0 
L 0 0 
z
" style="fill: #ffffff"/>
  </g>
  <g id="axes_1">
   <g id="patch_2">
    <path d="M 63.290625 321.621875 
L 603.6 321.621875 
L 603.6 10.8 
L 63.290625 10.8 
z
" style="fill: #ffffff"/>
   </g>
   <path d="M 530.596465 290.210226 
L 529.596465 290.17879 
L 528.596465 290.141849 
L 527.596465 290.044103 
L 526.596465 290.011581 
L 525.596465 289.937957 
L 524.596465 289.899391 
L 523.596465 289.863978 
L 522.596465 289.806338 
L 521.596465 289.735952 
L 520.596465 289.683988 
L 519.596465 289.624898 
L 518.596465 289.536577 
L 517.596465 289.490433 
L 516.596465 289.448022 
L 515.596465 289.417529 
L 514.596465 289.391484 
L 513.596465 289.370284 
L 512.596465 289.315983 
L 511.596465 289.288045 
L 510.596465 289.258321 
L 509.596465 289.232926 
L 508.596465 289.221726 
L 507.596465 289.211602 
L 506.596465 289.211806 
L 505.596465 289.221316 
L 504.596465 289.23297 
L 503.596465 289.263999 
L 502.596465 289.275167 
L 501.596465 289.305285 
L 500.596465 289.365062 
L 499.596465 289.402253 
L 498.596465 289.441349 
L 497.596465 289.483789 
L 496.596465 289.516554 
L 495.596465 289.58398 
L 494.596465 289.623106 
L 493.596465 289.665781 
L 492.596465 289.736361 
L 491.596465 289.772752 
L 490.596465 289.831155 
L 489.596465 289.942108 
L 488.596465 290.012766 
L 487.596465 290.125706 
L 486.596465 290.171479 
L 485.596465 290.232762 
L 484.596465 290.281262 
L 483.596465 290.362084 
L 482.596465 290.480603 
L 481.596465 290.550814 
L 480.596465 290.634076 
L 479.596465 290.667218 
L 478.596465 290.718455 
L 477.596465 290.786854 
L 476.596465 290.853069 
L 475.596465 290.929986 
L 474.596465 290.957302 
L 473.596465 290.983779 
L 472.596465 291.00643 
L 471.596465 291.025961 
L 470.596465 291.052355 
L 469.596465 291.102126 
L 468.596465 291.137199 
L 467.596465 291.173065 
L 466.596465 291.188432 
L 465.596465 291.204201 
L 464.596465 291.207614 
L 463.596465 291.210032 
L 462.596465 291.209545 
L 461.596465 291.207616 
L 460.596465 291.194359 
L 459.596465 291.185969 
L 458.596465 291.164432 
L 457.596465 291.1414 
L 456.596465 291.124166 
L 455.596465 291.105704 
L 454.100462 291.085251 
" clip-path="url(#p274bc01dea)" style="fill: none; stroke-dasharray: 3.7,1.6; stroke-dashoffset: 0; stroke: #2ca02c"/>
   <g id="patch_3">
    <path d="M 296.44508 10.8 
L 296.44508 127.59176 
M 359.3293 10.8 
L 359.3293 127.59176 
" clip-path="url(#p274bc01dea)" style="fill: none; stroke: #ffffff; stroke-width: 3; stroke-linejoin: miter"/>
    <path d="M 296.44508 10.8 
L 296.44508 127.59176 
M 359.3293 10.8 
L 359.3293 127.59176 
" clip-path="url(#p274bc01dea)" style="fill: none; stroke: #1f77b4; stroke-linejoin: miter"/>
    <g id="PolyCollection_1">
     <path d="M 359.3293 10.8 
L 296.44508 10.8 
L 296.44508 127.59176 
L 359.3293 127.59176 
L 359.3293 127.59176 
L 359.3293 10.8 
z
" clip-path="url(#p274bc01dea)" style="fill: #1f77b4; fill-opacity: 0.5"/>
    </g>
    <g id="patch_4">
     <path d="M 87.850142 127.59176 
L 87.850142 321.621875 
M 223.474991 127.59176 
L 223.474991 321.621875 
" clip-path="url(#p274bc01dea)" style="fill: none; stroke: #ffffff; stroke-width: 3; stroke-linejoin: miter"/>
     <path d="M 87.850142 127.59176 
L 87.850142 321.621875 
M 223.474991 127.59176 
L 223.474991 321.621875 
" clip-path="url(#p274bc01dea)" style="fill: none; stroke: #ff7f0e; stroke-linejoin: miter"/>
     <g id="PolyCollection_2">
      <path d="M 223.474991 127.59176 
L 87.850142 127.59176 
L 87.850142 321.621875 
L 223.474991 321.621875 
L 223.474991 321.621875 
L 223.474991 127.59176 
z
" clip-path="url(#p274bc01dea)" style="fill: #ff7f0e; fill-opacity: 0.5"/>
     </g>
     <g id="patch_5">
      <path d="M 535.999559 72.964375 
L 535.999559 321.621875 
M 579.040483 72.964375 
L 579.040483 321.621875 
" clip-path="url(#p274bc01dea)" style="fill: none; stroke: #ffffff; stroke-width: 3; stroke-linejoin: miter"/>
      <path d="M 535.999559 72.964375 
L 535.999559 321.621875 
M 579.040483 72.964375 
L 579.040483 321.621875 
" clip-path="url(#p274bc01dea)" style="fill: none; stroke: #2ca02c; stroke-linejoin: miter"/>
      <g id="PolyCollection_3">
       <path d="M 579.040483 72.964375 
L 535.999559 72.964375 
L 535.999559 321.621875 
L 579.040483 321.621875 
L 579.040483 321.621875 
L 579.040483 72.964375 
z
" clip-path="url(#p274bc01dea)" style="fill: #2ca02c; fill-opacity: 0.5"/>
      </g>
      <g id="patch_6">
       <path d="M 436.709843 249.537557 
L 436.709843 321.621875 
M 448.697368 249.537557 
L 448.697368 321.621875 
" clip-path="url(#p274bc01dea)" style="fill: none; stroke: #ffffff; stroke-width: 3; stroke-linejoin: miter"/>
       <path d="M 436.709843 249.537557 
L 436.709843 321.621875 
M 448.697368 249.537557 
L 448.697368 321.621875 
" clip-path="url(#p274bc01dea)" style="fill: none; stroke: #d62728; stroke-linejoin: miter"/>
       <g id="PolyCollection_4">
        <path d="M 448.697368 249.537557 
L 436.709843 249.537557 
L 436.709843 321.621875 
L 448.697368 321.621875 
L 448.697368 321.621875 
L 448.697368 249.537557 
z
" clip-path="url(#p274bc01dea)" style="fill: #d62728; fill-opacity: 0.5"/>
       </g>
       <g id="matplotlib.axis_1">
        <g id="xtick_1">
         <g id="line2d_1"/>
         <g id="text_1">
          <!-- OUT -->
          <g transform="translate(145.013348 332.720312) scale(0.1 -0.1)">
           <defs>
            <path id="DejaVuSans-4f" d="M 2522 4238 
Q 1834 4238 1429 3725 
Q 1025 3213 1025 2328 
Q 1025 1447 1429 934 
Q 1834 422 2522 422 
Q 3209 422 3611 934 
Q 4013 1447 4013 2328 
Q 4013 3213 3611 3725 
Q 3209 4238 2522 4238 
z
M 2522 4750 
Q 3503 4750 4090 4092 
Q 4678 3434 4678 2328 
Q 4678 1225 4090 567 
Q 3503 -91 2522 -91 
Q 1538 -91 948 565 
Q 359 1222 359 2328 
Q 359 3434 948 4092 
Q 1538 4750 2522 4750 
z
" transform="scale(0.015625)"/>
            <path id="DejaVuSans-55" d="M 556 4666 
L 1191 4666 
L 1191 1831 
Q 1191 1081 1462 751 
Q 1734 422 2344 422 
Q 2950 422 3222 751 
Q 3494 1081 3494 1831 
L 3494 4666 
L 4128 4666 
L 4128 1753 
Q 4128 841 3676 375 
Q 3225 -91 2344 -91 
Q 1459 -91 1007 375 
Q 556 841 556 1753 
L 556 4666 
z
" transform="scale(0.015625)"/>
            <path id="DejaVuSans-54" d="M -19 4666 
L 3928 4666 
L 3928 4134 
L 2272 4134 
L 2272 0 
L 1638 0 
L 1638 4134 
L -19 4134 
L -19 4666 
z
" transform="scale(0.015625)"/>
           </defs>
           <use xlink:href="#DejaVuSans-4f"/>
           <use xlink:href="#DejaVuSans-55" x="78.710938"/>
           <use xlink:href="#DejaVuSans-54" x="151.904297"/>
          </g>
         </g>
        </g>
        <g id="xtick_2">
         <g id="line2d_2"/>
         <g id="text_2">
          <!-- SRC -->
          <g transform="translate(547.630177 332.720312) scale(0.1 -0.1)">
           <defs>
            <path id="DejaVuSans-53" d="M 3425 4513 
L 3425 3897 
Q 3066 4069 2747 4153 
Q 2428 4238 2131 4238 
Q 1616 4238 1336 4038 
Q 1056 3838 1056 3469 
Q 1056 3159 1242 3001 
Q 1428 2844 1947 2747 
L 2328 2669 
Q 3034 2534 3370 2195 
Q 3706 1856 3706 1288 
Q 3706 609 3251 259 
Q 2797 -91 1919 -91 
Q 1588 -91 1214 -16 
Q 841 59 441 206 
L 441 856 
Q 825 641 1194 531 
Q 1563 422 1919 422 
Q 2459 422 2753 634 
Q 3047 847 3047 1241 
Q 3047 1584 2836 1778 
Q 2625 1972 2144 2069 
L 1759 2144 
Q 1053 2284 737 2584 
Q 422 2884 422 3419 
Q 422 4038 858 4394 
Q 1294 4750 2059 4750 
Q 2388 4750 2728 4690 
Q 3069 4631 3425 4513 
z
" transform="scale(0.015625)"/>
            <path id="DejaVuSans-52" d="M 2841 2188 
Q 3044 2119 3236 1894 
Q 3428 1669 3622 1275 
L 4263 0 
L 3584 0 
L 2988 1197 
Q 2756 1666 2539 1819 
Q 2322 1972 1947 1972 
L 1259 1972 
L 1259 0 
L 628 0 
L 628 4666 
L 2053 4666 
Q 2853 4666 3247 4331 
Q 3641 3997 3641 3322 
Q 3641 2881 3436 2590 
Q 3231 2300 2841 2188 
z
M 1259 4147 
L 1259 2491 
L 2053 2491 
Q 2509 2491 2742 2702 
Q 2975 2913 2975 3322 
Q 2975 3731 2742 3939 
Q 2509 4147 2053 4147 
L 1259 4147 
z
" transform="scale(0.015625)"/>
            <path id="DejaVuSans-43" d="M 4122 4306 
L 4122 3641 
Q 3803 3938 3442 4084 
Q 3081 4231 2675 4231 
Q 1875 4231 1450 3742 
Q 1025 3253 1025 2328 
Q 1025 1406 1450 917 
Q 1875 428 2675 428 
Q 3081 428 3442 575 
Q 3803 722 4122 1019 
L 4122 359 
Q 3791 134 3420 21 
Q 3050 -91 2638 -91 
Q 1578 -91 968 557 
Q 359 1206 359 2328 
Q 359 3453 968 4101 
Q 1578 4750 2638 4750 
Q 3056 4750 3426 4639 
Q 3797 4528 4122 4306 
z
" transform="scale(0.015625)"/>
           </defs>
           <use xlink:href="#DejaVuSans-53"/>
           <use xlink:href="#DejaVuSans-52" x="63.476562"/>
           <use xlink:href="#DejaVuSans-43" x="127.958984"/>
          </g>
         </g>
        </g>
        <g id="xtick_3">
         <g id="line2d_3"/>
         <g id="text_3">
          <!-- TAR -->
          <g transform="translate(433.142668 332.720312) scale(0.1 -0.1)">
           <defs>
            <path id="DejaVuSans-41" d="M 2188 4044 
L 1331 1722 
L 3047 1722 
L 2188 4044 
z
M 1831 4666 
L 2547 4666 
L 4325 0 
L 3669 0 
L 3244 1197 
L 1141 1197 
L 716 0 
L 50 0 
L 1831 4666 
z
" transform="scale(0.015625)"/>
           </defs>
           <use xlink:href="#DejaVuSans-54"/>
           <use xlink:href="#DejaVuSans-41" x="53.333984"/>
           <use xlink:href="#DejaVuSans-52" x="121.742188"/>
          </g>
         </g>
        </g>
       </g>
       <g id="matplotlib.axis_2">
        <g id="ytick_1">
         <g id="line2d_4">
          <defs>
           <path id="m933ae67a81" d="M 0 0 
L -3.5 0 
" style="stroke: #000000; stroke-width: 0.8"/>
          </defs>
          <g>
           <use xlink:href="#m933ae67a81" x="63.290625" y="321.621875" style="stroke: #000000; stroke-width: 0.8"/>
          </g>
         </g>
         <g id="text_4">
          <!-- 0 -->
          <g transform="translate(49.928125 325.421094) scale(0.1 -0.1)">
           <defs>
            <path id="DejaVuSans-30" d="M 2034 4250 
Q 1547 4250 1301 3770 
Q 1056 3291 1056 2328 
Q 1056 1369 1301 889 
Q 1547 409 2034 409 
Q 2525 409 2770 889 
Q 3016 1369 3016 2328 
Q 3016 3291 2770 3770 
Q 2525 4250 2034 4250 
z
M 2034 4750 
Q 2819 4750 3233 4129 
Q 3647 3509 3647 2328 
Q 3647 1150 3233 529 
Q 2819 -91 2034 -91 
Q 1250 -91 836 529 
Q 422 1150 422 2328 
Q 422 3509 836 4129 
Q 1250 4750 2034 4750 
z
" transform="scale(0.015625)"/>
           </defs>
           <use xlink:href="#DejaVuSans-30"/>
          </g>
         </g>
        </g>
        <g id="ytick_2">
         <g id="line2d_5">
          <g>
           <use xlink:href="#m933ae67a81" x="63.290625" y="285.516532" style="stroke: #000000; stroke-width: 0.8"/>
          </g>
         </g>
         <g id="text_5">
          <!-- 2000 -->
          <g transform="translate(30.840625 289.31575) scale(0.1 -0.1)">
           <defs>
            <path id="DejaVuSans-32" d="M 1228 531 
L 3431 531 
L 3431 0 
L 469 0 
L 469 531 
Q 828 903 1448 1529 
Q 2069 2156 2228 2338 
Q 2531 2678 2651 2914 
Q 2772 3150 2772 3378 
Q 2772 3750 2511 3984 
Q 2250 4219 1831 4219 
Q 1534 4219 1204 4116 
Q 875 4013 500 3803 
L 500 4441 
Q 881 4594 1212 4672 
Q 1544 4750 1819 4750 
Q 2544 4750 2975 4387 
Q 3406 4025 3406 3419 
Q 3406 3131 3298 2873 
Q 3191 2616 2906 2266 
Q 2828 2175 2409 1742 
Q 1991 1309 1228 531 
z
" transform="scale(0.015625)"/>
           </defs>
           <use xlink:href="#DejaVuSans-32"/>
           <use xlink:href="#DejaVuSans-30" x="63.623047"/>
           <use xlink:href="#DejaVuSans-30" x="127.246094"/>
           <use xlink:href="#DejaVuSans-30" x="190.869141"/>
          </g>
         </g>
        </g>
        <g id="ytick_3">
         <g id="line2d_6">
          <g>
           <use xlink:href="#m933ae67a81" x="63.290625" y="249.411188" style="stroke: #000000; stroke-width: 0.8"/>
          </g>
         </g>
         <g id="text_6">
          <!-- 4000 -->
          <g transform="translate(30.840625 253.210407) scale(0.1 -0.1)">
           <defs>
            <path id="DejaVuSans-34" d="M 2419 4116 
L 825 1625 
L 2419 1625 
L 2419 4116 
z
M 2253 4666 
L 3047 4666 
L 3047 1625 
L 3713 1625 
L 3713 1100 
L 3047 1100 
L 3047 0 
L 2419 0 
L 2419 1100 
L 313 1100 
L 313 1709 
L 2253 4666 
z
" transform="scale(0.015625)"/>
           </defs>
           <use xlink:href="#DejaVuSans-34"/>
           <use xlink:href="#DejaVuSans-30" x="63.623047"/>
           <use xlink:href="#DejaVuSans-30" x="127.246094"/>
           <use xlink:href="#DejaVuSans-30" x="190.869141"/>
          </g>
         </g>
        </g>
        <g id="ytick_4">
         <g id="line2d_7">
          <g>
           <use xlink:href="#m933ae67a81" x="63.290625" y="213.305845" style="stroke: #000000; stroke-width: 0.8"/>
          </g>
         </g>
         <g id="text_7">
          <!-- 6000 -->
          <g transform="translate(30.840625 217.105064) scale(0.1 -0.1)">
           <defs>
            <path id="DejaVuSans-36" d="M 2113 2584 
Q 1688 2584 1439 2293 
Q 1191 2003 1191 1497 
Q 1191 994 1439 701 
Q 1688 409 2113 409 
Q 2538 409 2786 701 
Q 3034 994 3034 1497 
Q 3034 2003 2786 2293 
Q 2538 2584 2113 2584 
z
M 3366 4563 
L 3366 3988 
Q 3128 4100 2886 4159 
Q 2644 4219 2406 4219 
Q 1781 4219 1451 3797 
Q 1122 3375 1075 2522 
Q 1259 2794 1537 2939 
Q 1816 3084 2150 3084 
Q 2853 3084 3261 2657 
Q 3669 2231 3669 1497 
Q 3669 778 3244 343 
Q 2819 -91 2113 -91 
Q 1303 -91 875 529 
Q 447 1150 447 2328 
Q 447 3434 972 4092 
Q 1497 4750 2381 4750 
Q 2619 4750 2861 4703 
Q 3103 4656 3366 4563 
z
" transform="scale(0.015625)"/>
           </defs>
           <use xlink:href="#DejaVuSans-36"/>
           <use xlink:href="#DejaVuSans-30" x="63.623047"/>
           <use xlink:href="#DejaVuSans-30" x="127.246094"/>
           <use xlink:href="#DejaVuSans-30" x="190.869141"/>
          </g>
         </g>
        </g>
        <g id="ytick_5">
         <g id="line2d_8">
          <g>
           <use xlink:href="#m933ae67a81" x="63.290625" y="177.200501" style="stroke: #000000; stroke-width: 0.8"/>
          </g>
         </g>
         <g id="text_8">
          <!-- 8000 -->
          <g transform="translate(30.840625 180.99972) scale(0.1 -0.1)">
           <defs>
            <path id="DejaVuSans-38" d="M 2034 2216 
Q 1584 2216 1326 1975 
Q 1069 1734 1069 1313 
Q 1069 891 1326 650 
Q 1584 409 2034 409 
Q 2484 409 2743 651 
Q 3003 894 3003 1313 
Q 3003 1734 2745 1975 
Q 2488 2216 2034 2216 
z
M 1403 2484 
Q 997 2584 770 2862 
Q 544 3141 544 3541 
Q 544 4100 942 4425 
Q 1341 4750 2034 4750 
Q 2731 4750 3128 4425 
Q 3525 4100 3525 3541 
Q 3525 3141 3298 2862 
Q 3072 2584 2669 2484 
Q 3125 2378 3379 2068 
Q 3634 1759 3634 1313 
Q 3634 634 3220 271 
Q 2806 -91 2034 -91 
Q 1263 -91 848 271 
Q 434 634 434 1313 
Q 434 1759 690 2068 
Q 947 2378 1403 2484 
z
M 1172 3481 
Q 1172 3119 1398 2916 
Q 1625 2713 2034 2713 
Q 2441 2713 2670 2916 
Q 2900 3119 2900 3481 
Q 2900 3844 2670 4047 
Q 2441 4250 2034 4250 
Q 1625 4250 1398 4047 
Q 1172 3844 1172 3481 
z
" transform="scale(0.015625)"/>
           </defs>
           <use xlink:href="#DejaVuSans-38"/>
           <use xlink:href="#DejaVuSans-30" x="63.623047"/>
           <use xlink:href="#DejaVuSans-30" x="127.246094"/>
           <use xlink:href="#DejaVuSans-30" x="190.869141"/>
          </g>
         </g>
        </g>
        <g id="ytick_6">
         <g id="line2d_9">
          <g>
           <use xlink:href="#m933ae67a81" x="63.290625" y="141.095158" style="stroke: #000000; stroke-width: 0.8"/>
          </g>
         </g>
         <g id="text_9">
          <!-- 10000 -->
          <g transform="translate(24.478125 144.894377) scale(0.1 -0.1)">
           <defs>
            <path id="DejaVuSans-31" d="M 794 531 
L 1825 531 
L 1825 4091 
L 703 3866 
L 703 4441 
L 1819 4666 
L 2450 4666 
L 2450 531 
L 3481 531 
L 3481 0 
L 794 0 
L 794 531 
z
" transform="scale(0.015625)"/>
           </defs>
           <use xlink:href="#DejaVuSans-31"/>
           <use xlink:href="#DejaVuSans-30" x="63.623047"/>
           <use xlink:href="#DejaVuSans-30" x="127.246094"/>
           <use xlink:href="#DejaVuSans-30" x="190.869141"/>
           <use xlink:href="#DejaVuSans-30" x="254.492188"/>
          </g>
         </g>
        </g>
        <g id="ytick_7">
         <g id="line2d_10">
          <g>
           <use xlink:href="#m933ae67a81" x="63.290625" y="104.989815" style="stroke: #000000; stroke-width: 0.8"/>
          </g>
         </g>
         <g id="text_10">
          <!-- 12000 -->
          <g transform="translate(24.478125 108.789033) scale(0.1 -0.1)">
           <use xlink:href="#DejaVuSans-31"/>
           <use xlink:href="#DejaVuSans-32" x="63.623047"/>
           <use xlink:href="#DejaVuSans-30" x="127.246094"/>
           <use xlink:href="#DejaVuSans-30" x="190.869141"/>
           <use xlink:href="#DejaVuSans-30" x="254.492188"/>
          </g>
         </g>
        </g>
        <g id="ytick_8">
         <g id="line2d_11">
          <g>
           <use xlink:href="#m933ae67a81" x="63.290625" y="68.884471" style="stroke: #000000; stroke-width: 0.8"/>
          </g>
         </g>
         <g id="text_11">
          <!-- 14000 -->
          <g transform="translate(24.478125 72.68369) scale(0.1 -0.1)">
           <use xlink:href="#DejaVuSans-31"/>
           <use xlink:href="#DejaVuSans-34" x="63.623047"/>
           <use xlink:href="#DejaVuSans-30" x="127.246094"/>
           <use xlink:href="#DejaVuSans-30" x="190.869141"/>
           <use xlink:href="#DejaVuSans-30" x="254.492188"/>
          </g>
         </g>
        </g>
        <g id="ytick_9">
         <g id="line2d_12">
          <g>
           <use xlink:href="#m933ae67a81" x="63.290625" y="32.779128" style="stroke: #000000; stroke-width: 0.8"/>
          </g>
         </g>
         <g id="text_12">
          <!-- 16000 -->
          <g transform="translate(24.478125 36.578347) scale(0.1 -0.1)">
           <use xlink:href="#DejaVuSans-31"/>
           <use xlink:href="#DejaVuSans-36" x="63.623047"/>
           <use xlink:href="#DejaVuSans-30" x="127.246094"/>
           <use xlink:href="#DejaVuSans-30" x="190.869141"/>
           <use xlink:href="#DejaVuSans-30" x="254.492188"/>
          </g>
         </g>
        </g>
        <g id="text_13">
         <!-- time ago (generations) -->
         <g transform="translate(18.398438 223.682031) rotate(-90) scale(0.1 -0.1)">
          <defs>
           <path id="DejaVuSans-74" d="M 1172 4494 
L 1172 3500 
L 2356 3500 
L 2356 3053 
L 1172 3053 
L 1172 1153 
Q 1172 725 1289 603 
Q 1406 481 1766 481 
L 2356 481 
L 2356 0 
L 1766 0 
Q 1100 0 847 248 
Q 594 497 594 1153 
L 594 3053 
L 172 3053 
L 172 3500 
L 594 3500 
L 594 4494 
L 1172 4494 
z
" transform="scale(0.015625)"/>
           <path id="DejaVuSans-69" d="M 603 3500 
L 1178 3500 
L 1178 0 
L 603 0 
L 603 3500 
z
M 603 4863 
L 1178 4863 
L 1178 4134 
L 603 4134 
L 603 4863 
z
" transform="scale(0.015625)"/>
           <path id="DejaVuSans-6d" d="M 3328 2828 
Q 3544 3216 3844 3400 
Q 4144 3584 4550 3584 
Q 5097 3584 5394 3201 
Q 5691 2819 5691 2113 
L 5691 0 
L 5113 0 
L 5113 2094 
Q 5113 2597 4934 2840 
Q 4756 3084 4391 3084 
Q 3944 3084 3684 2787 
Q 3425 2491 3425 1978 
L 3425 0 
L 2847 0 
L 2847 2094 
Q 2847 2600 2669 2842 
Q 2491 3084 2119 3084 
Q 1678 3084 1418 2786 
Q 1159 2488 1159 1978 
L 1159 0 
L 581 0 
L 581 3500 
L 1159 3500 
L 1159 2956 
Q 1356 3278 1631 3431 
Q 1906 3584 2284 3584 
Q 2666 3584 2933 3390 
Q 3200 3197 3328 2828 
z
" transform="scale(0.015625)"/>
           <path id="DejaVuSans-65" d="M 3597 1894 
L 3597 1613 
L 953 1613 
Q 991 1019 1311 708 
Q 1631 397 2203 397 
Q 2534 397 2845 478 
Q 3156 559 3463 722 
L 3463 178 
Q 3153 47 2828 -22 
Q 2503 -91 2169 -91 
Q 1331 -91 842 396 
Q 353 884 353 1716 
Q 353 2575 817 3079 
Q 1281 3584 2069 3584 
Q 2775 3584 3186 3129 
Q 3597 2675 3597 1894 
z
M 3022 2063 
Q 3016 2534 2758 2815 
Q 2500 3097 2075 3097 
Q 1594 3097 1305 2825 
Q 1016 2553 972 2059 
L 3022 2063 
z
" transform="scale(0.015625)"/>
           <path id="DejaVuSans-20" transform="scale(0.015625)"/>
           <path id="DejaVuSans-61" d="M 2194 1759 
Q 1497 1759 1228 1600 
Q 959 1441 959 1056 
Q 959 750 1161 570 
Q 1363 391 1709 391 
Q 2188 391 2477 730 
Q 2766 1069 2766 1631 
L 2766 1759 
L 2194 1759 
z
M 3341 1997 
L 3341 0 
L 2766 0 
L 2766 531 
Q 2569 213 2275 61 
Q 1981 -91 1556 -91 
Q 1019 -91 701 211 
Q 384 513 384 1019 
Q 384 1609 779 1909 
Q 1175 2209 1959 2209 
L 2766 2209 
L 2766 2266 
Q 2766 2663 2505 2880 
Q 2244 3097 1772 3097 
Q 1472 3097 1187 3025 
Q 903 2953 641 2809 
L 641 3341 
Q 956 3463 1253 3523 
Q 1550 3584 1831 3584 
Q 2591 3584 2966 3190 
Q 3341 2797 3341 1997 
z
" transform="scale(0.015625)"/>
           <path id="DejaVuSans-67" d="M 2906 1791 
Q 2906 2416 2648 2759 
Q 2391 3103 1925 3103 
Q 1463 3103 1205 2759 
Q 947 2416 947 1791 
Q 947 1169 1205 825 
Q 1463 481 1925 481 
Q 2391 481 2648 825 
Q 2906 1169 2906 1791 
z
M 3481 434 
Q 3481 -459 3084 -895 
Q 2688 -1331 1869 -1331 
Q 1566 -1331 1297 -1286 
Q 1028 -1241 775 -1147 
L 775 -588 
Q 1028 -725 1275 -790 
Q 1522 -856 1778 -856 
Q 2344 -856 2625 -561 
Q 2906 -266 2906 331 
L 2906 616 
Q 2728 306 2450 153 
Q 2172 0 1784 0 
Q 1141 0 747 490 
Q 353 981 353 1791 
Q 353 2603 747 3093 
Q 1141 3584 1784 3584 
Q 2172 3584 2450 3431 
Q 2728 3278 2906 2969 
L 2906 3500 
L 3481 3500 
L 3481 434 
z
" transform="scale(0.015625)"/>
           <path id="DejaVuSans-6f" d="M 1959 3097 
Q 1497 3097 1228 2736 
Q 959 2375 959 1747 
Q 959 1119 1226 758 
Q 1494 397 1959 397 
Q 2419 397 2687 759 
Q 2956 1122 2956 1747 
Q 2956 2369 2687 2733 
Q 2419 3097 1959 3097 
z
M 1959 3584 
Q 2709 3584 3137 3096 
Q 3566 2609 3566 1747 
Q 3566 888 3137 398 
Q 2709 -91 1959 -91 
Q 1206 -91 779 398 
Q 353 888 353 1747 
Q 353 2609 779 3096 
Q 1206 3584 1959 3584 
z
" transform="scale(0.015625)"/>
           <path id="DejaVuSans-28" d="M 1984 4856 
Q 1566 4138 1362 3434 
Q 1159 2731 1159 2009 
Q 1159 1288 1364 580 
Q 1569 -128 1984 -844 
L 1484 -844 
Q 1016 -109 783 600 
Q 550 1309 550 2009 
Q 550 2706 781 3412 
Q 1013 4119 1484 4856 
L 1984 4856 
z
" transform="scale(0.015625)"/>
           <path id="DejaVuSans-6e" d="M 3513 2113 
L 3513 0 
L 2938 0 
L 2938 2094 
Q 2938 2591 2744 2837 
Q 2550 3084 2163 3084 
Q 1697 3084 1428 2787 
Q 1159 2491 1159 1978 
L 1159 0 
L 581 0 
L 581 3500 
L 1159 3500 
L 1159 2956 
Q 1366 3272 1645 3428 
Q 1925 3584 2291 3584 
Q 2894 3584 3203 3211 
Q 3513 2838 3513 2113 
z
" transform="scale(0.015625)"/>
           <path id="DejaVuSans-72" d="M 2631 2963 
Q 2534 3019 2420 3045 
Q 2306 3072 2169 3072 
Q 1681 3072 1420 2755 
Q 1159 2438 1159 1844 
L 1159 0 
L 581 0 
L 581 3500 
L 1159 3500 
L 1159 2956 
Q 1341 3275 1631 3429 
Q 1922 3584 2338 3584 
Q 2397 3584 2469 3576 
Q 2541 3569 2628 3553 
L 2631 2963 
z
" transform="scale(0.015625)"/>
           <path id="DejaVuSans-73" d="M 2834 3397 
L 2834 2853 
Q 2591 2978 2328 3040 
Q 2066 3103 1784 3103 
Q 1356 3103 1142 2972 
Q 928 2841 928 2578 
Q 928 2378 1081 2264 
Q 1234 2150 1697 2047 
L 1894 2003 
Q 2506 1872 2764 1633 
Q 3022 1394 3022 966 
Q 3022 478 2636 193 
Q 2250 -91 1575 -91 
Q 1294 -91 989 -36 
Q 684 19 347 128 
L 347 722 
Q 666 556 975 473 
Q 1284 391 1588 391 
Q 1994 391 2212 530 
Q 2431 669 2431 922 
Q 2431 1156 2273 1281 
Q 2116 1406 1581 1522 
L 1381 1569 
Q 847 1681 609 1914 
Q 372 2147 372 2553 
Q 372 3047 722 3315 
Q 1072 3584 1716 3584 
Q 2034 3584 2315 3537 
Q 2597 3491 2834 3397 
z
" transform="scale(0.015625)"/>
           <path id="DejaVuSans-29" d="M 513 4856 
L 1013 4856 
Q 1481 4119 1714 3412 
Q 1947 2706 1947 2009 
Q 1947 1309 1714 600 
Q 1481 -109 1013 -844 
L 513 -844 
Q 928 -128 1133 580 
Q 1338 1288 1338 2009 
Q 1338 2731 1133 3434 
Q 928 4138 513 4856 
z
" transform="scale(0.015625)"/>
          </defs>
          <use xlink:href="#DejaVuSans-74"/>
          <use xlink:href="#DejaVuSans-69" x="39.208984"/>
          <use xlink:href="#DejaVuSans-6d" x="66.992188"/>
          <use xlink:href="#DejaVuSans-65" x="164.404297"/>
          <use xlink:href="#DejaVuSans-20" x="225.927734"/>
          <use xlink:href="#DejaVuSans-61" x="257.714844"/>
          <use xlink:href="#DejaVuSans-67" x="318.994141"/>
          <use xlink:href="#DejaVuSans-6f" x="382.470703"/>
          <use xlink:href="#DejaVuSans-20" x="443.652344"/>
          <use xlink:href="#DejaVuSans-28" x="475.439453"/>
          <use xlink:href="#DejaVuSans-67" x="514.453125"/>
          <use xlink:href="#DejaVuSans-65" x="577.929688"/>
          <use xlink:href="#DejaVuSans-6e" x="639.453125"/>
          <use xlink:href="#DejaVuSans-65" x="702.832031"/>
          <use xlink:href="#DejaVuSans-72" x="764.355469"/>
          <use xlink:href="#DejaVuSans-61" x="805.46875"/>
          <use xlink:href="#DejaVuSans-74" x="866.748047"/>
          <use xlink:href="#DejaVuSans-69" x="905.957031"/>
          <use xlink:href="#DejaVuSans-6f" x="933.740234"/>
          <use xlink:href="#DejaVuSans-6e" x="994.921875"/>
          <use xlink:href="#DejaVuSans-73" x="1058.300781"/>
          <use xlink:href="#DejaVuSans-29" x="1110.400391"/>
         </g>
        </g>
       </g>
       <g id="patch_7">
        <path d="M 294.44535 127.59176 
L 293.44535 127.560323 
L 292.44535 127.523383 
L 291.44535 127.425636 
L 290.44535 127.393115 
L 289.44535 127.31949 
L 288.44535 127.280924 
L 287.44535 127.245511 
L 286.44535 127.187871 
L 285.44535 127.117485 
L 284.44535 127.065521 
L 283.44535 127.006431 
L 282.44535 126.91811 
L 281.44535 126.871966 
L 280.44535 126.829555 
L 279.44535 126.799062 
L 278.44535 126.773017 
L 277.44535 126.751817 
L 276.44535 126.697516 
L 275.44535 126.669579 
L 274.44535 126.639855 
L 273.44535 126.61446 
L 272.44535 126.603259 
L 271.44535 126.593135 
L 270.44535 126.59334 
L 269.44535 126.60285 
L 268.44535 126.614503 
L 267.44535 126.645532 
L 266.44535 126.6567 
L 265.44535 126.686818 
L 264.44535 126.746595 
L 263.44535 126.783786 
L 262.44535 126.822882 
L 261.44535 126.865322 
L 260.44535 126.898087 
L 259.44535 126.965514 
L 258.44535 127.00464 
L 257.44535 127.047314 
L 256.44535 127.117895 
L 255.44535 127.154286 
L 254.44535 127.212689 
L 253.44535 127.323641 
L 252.44535 127.3943 
L 251.44535 127.50724 
L 250.44535 127.553012 
L 249.44535 127.614296 
L 248.44535 127.662795 
L 247.44535 127.743618 
L 246.44535 127.862137 
L 245.44535 127.932347 
L 244.44535 128.01561 
L 243.44535 128.048751 
L 242.44535 128.099989 
L 241.44535 128.168387 
L 240.44535 128.234603 
L 239.44535 128.31152 
L 238.44535 128.338835 
L 237.44535 128.365313 
L 236.44535 128.387963 
L 235.44535 128.407495 
L 234.44535 128.433888 
L 233.44535 128.483659 
L 232.44535 128.518732 
L 231.44535 128.554598 
L 230.44535 128.569965 
L 229.44535 128.585735 
L 228.44535 128.589147 
L 226.589933 128.591565 
" clip-path="url(#p274bc01dea)" style="fill: none; stroke: #ffffff; stroke-width: 3; stroke-linecap: round"/>
        <path d="M 294.44535 127.59176 
L 293.44535 127.560323 
L 292.44535 127.523383 
L 291.44535 127.425636 
L 290.44535 127.393115 
L 289.44535 127.31949 
L 288.44535 127.280924 
L 287.44535 127.245511 
L 286.44535 127.187871 
L 285.44535 127.117485 
L 284.44535 127.065521 
L 283.44535 127.006431 
L 282.44535 126.91811 
L 281.44535 126.871966 
L 280.44535 126.829555 
L 279.44535 126.799062 
L 278.44535 126.773017 
L 277.44535 126.751817 
L 276.44535 126.697516 
L 275.44535 126.669579 
L 274.44535 126.639855 
L 273.44535 126.61446 
L 272.44535 126.603259 
L 271.44535 126.593135 
L 270.44535 126.59334 
L 269.44535 126.60285 
L 268.44535 126.614503 
L 267.44535 126.645532 
L 266.44535 126.6567 
L 265.44535 126.686818 
L 264.44535 126.746595 
L 263.44535 126.783786 
L 262.44535 126.822882 
L 261.44535 126.865322 
L 260.44535 126.898087 
L 259.44535 126.965514 
L 258.44535 127.00464 
L 257.44535 127.047314 
L 256.44535 127.117895 
L 255.44535 127.154286 
L 254.44535 127.212689 
L 253.44535 127.323641 
L 252.44535 127.3943 
L 251.44535 127.50724 
L 250.44535 127.553012 
L 249.44535 127.614296 
L 248.44535 127.662795 
L 247.44535 127.743618 
L 246.44535 127.862137 
L 245.44535 127.932347 
L 244.44535 128.01561 
L 243.44535 128.048751 
L 242.44535 128.099989 
L 241.44535 128.168387 
L 240.44535 128.234603 
L 239.44535 128.31152 
L 238.44535 128.338835 
L 237.44535 128.365313 
L 236.44535 128.387963 
L 235.44535 128.407495 
L 234.44535 128.433888 
L 233.44535 128.483659 
L 232.44535 128.518732 
L 231.44535 128.554598 
L 230.44535 128.569965 
L 229.44535 128.585735 
L 228.44535 128.589147 
L 226.589933 128.591565 
" clip-path="url(#p274bc01dea)" style="fill: none; stroke: #1f77b4; stroke-linecap: round"/>
        <path d="M 230.589933 129.59176 
L 229.709565 129.116428 
L 228.831658 128.636174 
L 227.980944 128.101534 
L 226.67877 127.414086 
L 227.606123 127.388071 
L 228.517797 126.975352 
L 229.428061 126.559813 
L 230.770557 125.953008 
L 230.115658 126.59176 
L 230.063694 127.59176 
L 230.004604 129.59176 
z
" clip-path="url(#p274bc01dea)" style="fill: #ffffff; stroke: #ffffff; stroke-width: 3; stroke-linecap: round"/>
        <path d="M 230.589933 129.59176 
L 229.709565 129.116428 
L 228.831658 128.636174 
L 227.980944 128.101534 
L 226.67877 127.414086 
L 227.606123 127.388071 
L 228.517797 126.975352 
L 229.428061 126.559813 
L 230.770557 125.953008 
L 230.115658 126.59176 
L 230.063694 127.59176 
L 230.004604 129.59176 
z
" clip-path="url(#p274bc01dea)" style="fill: #ffffff; stroke: #1f77b4; stroke-linecap: round"/>
        <g id="patch_8">
         <path d="M 361.326869 72.964375 
L 362.326869 72.995811 
L 363.326869 73.032752 
L 364.326869 73.130498 
L 365.326869 73.16302 
L 366.326869 73.236645 
L 367.326869 73.27521 
L 368.326869 73.310623 
L 369.326869 73.368263 
L 370.326869 73.438649 
L 371.326869 73.490614 
L 372.326869 73.549703 
L 373.326869 73.638024 
L 374.326869 73.684169 
L 375.326869 73.72658 
L 376.326869 73.757072 
L 377.326869 73.783117 
L 378.326869 73.804317 
L 379.326869 73.858618 
L 380.326869 73.886556 
L 381.326869 73.91628 
L 382.326869 73.941675 
L 383.326869 73.952875 
L 384.326869 73.962999 
L 385.326869 73.962795 
L 386.326869 73.953285 
L 387.326869 73.941631 
L 388.326869 73.910602 
L 389.326869 73.899434 
L 390.326869 73.869317 
L 391.326869 73.80954 
L 392.326869 73.772348 
L 393.326869 73.733252 
L 394.326869 73.690812 
L 395.326869 73.658047 
L 396.326869 73.590621 
L 397.326869 73.551495 
L 398.326869 73.50882 
L 399.326869 73.43824 
L 400.326869 73.401849 
L 401.326869 73.343446 
L 402.326869 73.232493 
L 403.326869 73.161835 
L 404.326869 73.048895 
L 405.326869 73.003122 
L 406.326869 72.941839 
L 407.326869 72.89334 
L 408.326869 72.812517 
L 409.326869 72.693998 
L 410.326869 72.623787 
L 411.326869 72.540525 
L 412.326869 72.507383 
L 413.326869 72.456146 
L 414.326869 72.387747 
L 415.326869 72.321532 
L 416.326869 72.244615 
L 417.326869 72.217299 
L 418.326869 72.190822 
L 419.326869 72.168171 
L 420.326869 72.14864 
L 421.326869 72.122246 
L 422.326869 72.072475 
L 423.326869 72.037402 
L 424.326869 72.001536 
L 425.326869 71.986169 
L 426.326869 71.9704 
L 427.326869 71.966987 
L 428.326869 71.96457 
L 429.326869 71.965056 
L 430.326869 71.966985 
L 431.326869 71.980242 
L 432.326869 71.988633 
L 433.326869 72.010169 
L 434.326869 72.033202 
L 435.326869 72.050435 
L 436.326869 72.068898 
L 437.326869 72.08935 
L 438.326869 72.10595 
L 439.326869 72.168729 
L 440.326869 72.243994 
L 441.326869 72.276633 
L 442.326869 72.344197 
L 443.326869 72.398244 
L 444.326869 72.431948 
L 445.326869 72.522074 
L 446.326869 72.550609 
L 447.326869 72.582095 
L 448.326869 72.613106 
L 449.326869 72.667914 
L 450.326869 72.732501 
L 451.326869 72.770697 
L 452.326869 72.866631 
L 453.326869 72.915889 
L 454.326869 72.959958 
L 455.326869 73.000082 
L 456.326869 73.108449 
L 457.326869 73.150077 
L 458.326869 73.212219 
L 459.326869 73.282181 
L 460.326869 73.386685 
L 461.326869 73.423673 
L 462.326869 73.46955 
L 463.326869 73.538045 
L 464.326869 73.586791 
L 465.326869 73.664388 
L 466.326869 73.694929 
L 467.326869 73.764443 
L 468.326869 73.788416 
L 469.326869 73.817038 
L 470.326869 73.858831 
L 471.326869 73.880407 
L 472.326869 73.894355 
L 473.326869 73.921077 
L 474.326869 73.930387 
L 475.326869 73.942834 
L 476.326869 73.953889 
L 477.326869 73.959553 
L 478.326869 73.964317 
L 479.326869 73.958769 
L 480.326869 73.945481 
L 481.326869 73.937964 
L 482.326869 73.913179 
L 483.326869 73.88961 
L 484.326869 73.85343 
L 485.326869 73.827468 
L 486.326869 73.805146 
L 487.326869 73.736386 
L 488.326869 73.661851 
L 489.326869 73.567872 
L 490.326869 73.51682 
L 491.326869 73.462886 
L 492.326869 73.427635 
L 493.326869 73.321547 
L 494.326869 73.269283 
L 495.326869 73.232376 
L 496.326869 73.201345 
L 497.326869 73.14019 
L 498.326869 73.07277 
L 499.326869 73.023864 
L 500.326869 72.958672 
L 501.326869 72.920484 
L 502.326869 72.878488 
L 503.326869 72.836471 
L 504.326869 72.776955 
L 505.326869 72.663795 
L 506.326869 72.611544 
L 507.326869 72.572126 
L 508.326869 72.525025 
L 509.326869 72.468245 
L 510.326869 72.435582 
L 511.326869 72.399404 
L 512.326869 72.367314 
L 513.326869 72.333034 
L 514.326869 72.274656 
L 515.326869 72.229471 
L 516.326869 72.199847 
L 517.326869 72.149461 
L 518.326869 72.124264 
L 519.326869 72.103213 
L 520.326869 72.068245 
L 521.326869 72.043955 
L 522.326869 72.029888 
L 523.326869 72.010946 
L 524.326869 71.995285 
L 525.326869 71.982733 
L 526.326869 71.976897 
L 527.326869 71.970015 
L 528.326869 71.964841 
L 529.326869 71.966624 
L 530.326869 71.969349 
L 531.326869 71.980503 
L 532.879889 72.008738 
" clip-path="url(#p274bc01dea)" style="fill: none; stroke: #ffffff; stroke-width: 3; stroke-linecap: round"/>
         <path d="M 361.326869 72.964375 
L 362.326869 72.995811 
L 363.326869 73.032752 
L 364.326869 73.130498 
L 365.326869 73.16302 
L 366.326869 73.236645 
L 367.326869 73.27521 
L 368.326869 73.310623 
L 369.326869 73.368263 
L 370.326869 73.438649 
L 371.326869 73.490614 
L 372.326869 73.549703 
L 373.326869 73.638024 
L 374.326869 73.684169 
L 375.326869 73.72658 
L 376.326869 73.757072 
L 377.326869 73.783117 
L 378.326869 73.804317 
L 379.326869 73.858618 
L 380.326869 73.886556 
L 381.326869 73.91628 
L 382.326869 73.941675 
L 383.326869 73.952875 
L 384.326869 73.962999 
L 385.326869 73.962795 
L 386.326869 73.953285 
L 387.326869 73.941631 
L 388.326869 73.910602 
L 389.326869 73.899434 
L 390.326869 73.869317 
L 391.326869 73.80954 
L 392.326869 73.772348 
L 393.326869 73.733252 
L 394.326869 73.690812 
L 395.326869 73.658047 
L 396.326869 73.590621 
L 397.326869 73.551495 
L 398.326869 73.50882 
L 399.326869 73.43824 
L 400.326869 73.401849 
L 401.326869 73.343446 
L 402.326869 73.232493 
L 403.326869 73.161835 
L 404.326869 73.048895 
L 405.326869 73.003122 
L 406.326869 72.941839 
L 407.326869 72.89334 
L 408.326869 72.812517 
L 409.326869 72.693998 
L 410.326869 72.623787 
L 411.326869 72.540525 
L 412.326869 72.507383 
L 413.326869 72.456146 
L 414.326869 72.387747 
L 415.326869 72.321532 
L 416.326869 72.244615 
L 417.326869 72.217299 
L 418.326869 72.190822 
L 419.326869 72.168171 
L 420.326869 72.14864 
L 421.326869 72.122246 
L 422.326869 72.072475 
L 423.326869 72.037402 
L 424.326869 72.001536 
L 425.326869 71.986169 
L 426.326869 71.9704 
L 427.326869 71.966987 
L 428.326869 71.96457 
L 429.326869 71.965056 
L 430.326869 71.966985 
L 431.326869 71.980242 
L 432.326869 71.988633 
L 433.326869 72.010169 
L 434.326869 72.033202 
L 435.326869 72.050435 
L 436.326869 72.068898 
L 437.326869 72.08935 
L 438.326869 72.10595 
L 439.326869 72.168729 
L 440.326869 72.243994 
L 441.326869 72.276633 
L 442.326869 72.344197 
L 443.326869 72.398244 
L 444.326869 72.431948 
L 445.326869 72.522074 
L 446.326869 72.550609 
L 447.326869 72.582095 
L 448.326869 72.613106 
L 449.326869 72.667914 
L 450.326869 72.732501 
L 451.326869 72.770697 
L 452.326869 72.866631 
L 453.326869 72.915889 
L 454.326869 72.959958 
L 455.326869 73.000082 
L 456.326869 73.108449 
L 457.326869 73.150077 
L 458.326869 73.212219 
L 459.326869 73.282181 
L 460.326869 73.386685 
L 461.326869 73.423673 
L 462.326869 73.46955 
L 463.326869 73.538045 
L 464.326869 73.586791 
L 465.326869 73.664388 
L 466.326869 73.694929 
L 467.326869 73.764443 
L 468.326869 73.788416 
L 469.326869 73.817038 
L 470.326869 73.858831 
L 471.326869 73.880407 
L 472.326869 73.894355 
L 473.326869 73.921077 
L 474.326869 73.930387 
L 475.326869 73.942834 
L 476.326869 73.953889 
L 477.326869 73.959553 
L 478.326869 73.964317 
L 479.326869 73.958769 
L 480.326869 73.945481 
L 481.326869 73.937964 
L 482.326869 73.913179 
L 483.326869 73.88961 
L 484.326869 73.85343 
L 485.326869 73.827468 
L 486.326869 73.805146 
L 487.326869 73.736386 
L 488.326869 73.661851 
L 489.326869 73.567872 
L 490.326869 73.51682 
L 491.326869 73.462886 
L 492.326869 73.427635 
L 493.326869 73.321547 
L 494.326869 73.269283 
L 495.326869 73.232376 
L 496.326869 73.201345 
L 497.326869 73.14019 
L 498.326869 73.07277 
L 499.326869 73.023864 
L 500.326869 72.958672 
L 501.326869 72.920484 
L 502.326869 72.878488 
L 503.326869 72.836471 
L 504.326869 72.776955 
L 505.326869 72.663795 
L 506.326869 72.611544 
L 507.326869 72.572126 
L 508.326869 72.525025 
L 509.326869 72.468245 
L 510.326869 72.435582 
L 511.326869 72.399404 
L 512.326869 72.367314 
L 513.326869 72.333034 
L 514.326869 72.274656 
L 515.326869 72.229471 
L 516.326869 72.199847 
L 517.326869 72.149461 
L 518.326869 72.124264 
L 519.326869 72.103213 
L 520.326869 72.068245 
L 521.326869 72.043955 
L 522.326869 72.029888 
L 523.326869 72.010946 
L 524.326869 71.995285 
L 525.326869 71.982733 
L 526.326869 71.976897 
L 527.326869 71.970015 
L 528.326869 71.964841 
L 529.326869 71.966624 
L 530.326869 71.969349 
L 531.326869 71.980503 
L 532.879889 72.008738 
" clip-path="url(#p274bc01dea)" style="fill: none; stroke: #1f77b4; stroke-linecap: round"/>
         <path d="M 528.879889 70.964375 
L 529.760258 71.439706 
L 530.638165 71.91996 
L 531.488878 72.454601 
L 532.791053 73.142048 
L 531.8637 73.168063 
L 530.952025 73.580783 
L 530.041761 73.996322 
L 528.699265 74.603126 
L 529.354164 73.964375 
L 529.406128 72.964375 
L 529.465218 70.964375 
z
" clip-path="url(#p274bc01dea)" style="fill: #ffffff; stroke: #ffffff; stroke-width: 3; stroke-linecap: round"/>
         <path d="M 528.879889 70.964375 
L 529.760258 71.439706 
L 530.638165 71.91996 
L 531.488878 72.454601 
L 532.791053 73.142048 
L 531.8637 73.168063 
L 530.952025 73.580783 
L 530.041761 73.996322 
L 528.699265 74.603126 
L 529.354164 73.964375 
L 529.406128 72.964375 
L 529.465218 70.964375 
z
" clip-path="url(#p274bc01dea)" style="fill: #ffffff; stroke: #1f77b4; stroke-linecap: round"/>
         <g id="patch_9">
          <path d="M 225.47602 249.537557 
L 226.47602 249.568993 
L 227.47602 249.605934 
L 228.47602 249.70368 
L 229.47602 249.736202 
L 230.47602 249.809826 
L 231.47602 249.848392 
L 232.47602 249.883805 
L 233.47602 249.941445 
L 234.47602 250.011831 
L 235.47602 250.063796 
L 236.47602 250.122885 
L 237.47602 250.211206 
L 238.47602 250.257351 
L 239.47602 250.299761 
L 240.47602 250.330254 
L 241.47602 250.356299 
L 242.47602 250.377499 
L 243.47602 250.4318 
L 244.47602 250.459738 
L 245.47602 250.489462 
L 246.47602 250.514857 
L 247.47602 250.526057 
L 248.47602 250.536181 
L 249.47602 250.535977 
L 250.47602 250.526467 
L 251.47602 250.514813 
L 252.47602 250.483784 
L 253.47602 250.472616 
L 254.47602 250.442499 
L 255.47602 250.382722 
L 256.47602 250.34553 
L 257.47602 250.306434 
L 258.47602 250.263994 
L 259.47602 250.231229 
L 260.47602 250.163803 
L 261.47602 250.124677 
L 262.47602 250.082002 
L 263.47602 250.011422 
L 264.47602 249.975031 
L 265.47602 249.916628 
L 266.47602 249.805675 
L 267.47602 249.735017 
L 268.47602 249.622077 
L 269.47602 249.576304 
L 270.47602 249.515021 
L 271.47602 249.466521 
L 272.47602 249.385699 
L 273.47602 249.26718 
L 274.47602 249.196969 
L 275.47602 249.113707 
L 276.47602 249.080565 
L 277.47602 249.029328 
L 278.47602 248.960929 
L 279.47602 248.894714 
L 280.47602 248.817797 
L 281.47602 248.790481 
L 282.47602 248.764004 
L 283.47602 248.741353 
L 284.47602 248.721822 
L 285.47602 248.695428 
L 286.47602 248.645657 
L 287.47602 248.610584 
L 288.47602 248.574718 
L 289.47602 248.559351 
L 290.47602 248.543582 
L 291.47602 248.540169 
L 292.47602 248.537752 
L 293.47602 248.538238 
L 294.47602 248.540167 
L 295.47602 248.553424 
L 296.47602 248.561814 
L 297.47602 248.583351 
L 298.47602 248.606384 
L 299.47602 248.623617 
L 300.47602 248.64208 
L 301.47602 248.662532 
L 302.47602 248.679132 
L 303.47602 248.741911 
L 304.47602 248.817176 
L 305.47602 248.849815 
L 306.47602 248.917378 
L 307.47602 248.971426 
L 308.47602 249.00513 
L 309.47602 249.095256 
L 310.47602 249.123791 
L 311.47602 249.155277 
L 312.47602 249.186288 
L 313.47602 249.241096 
L 314.47602 249.305683 
L 315.47602 249.343878 
L 316.47602 249.439813 
L 317.47602 249.489071 
L 318.47602 249.53314 
L 319.47602 249.573264 
L 320.47602 249.681631 
L 321.47602 249.723259 
L 322.47602 249.7854 
L 323.47602 249.855363 
L 324.47602 249.959867 
L 325.47602 249.996855 
L 326.47602 250.042732 
L 327.47602 250.111227 
L 328.47602 250.159972 
L 329.47602 250.23757 
L 330.47602 250.268111 
L 331.47602 250.337625 
L 332.47602 250.361598 
L 333.47602 250.39022 
L 334.47602 250.432013 
L 335.47602 250.453589 
L 336.47602 250.467537 
L 337.47602 250.494259 
L 338.47602 250.503569 
L 339.47602 250.516016 
L 340.47602 250.52707 
L 341.47602 250.532735 
L 342.47602 250.537499 
L 343.47602 250.531951 
L 344.47602 250.518663 
L 345.47602 250.511146 
L 346.47602 250.486361 
L 347.47602 250.462792 
L 348.47602 250.426611 
L 349.47602 250.40065 
L 350.47602 250.378328 
L 351.47602 250.309568 
L 352.47602 250.235033 
L 353.47602 250.141054 
L 354.47602 250.090002 
L 355.47602 250.036068 
L 356.47602 250.000817 
L 357.47602 249.894729 
L 358.47602 249.842465 
L 359.47602 249.805558 
L 360.47602 249.774527 
L 361.47602 249.713372 
L 362.47602 249.645952 
L 363.47602 249.597046 
L 364.47602 249.531854 
L 365.47602 249.493666 
L 366.47602 249.45167 
L 367.47602 249.409653 
L 368.47602 249.350136 
L 369.47602 249.236977 
L 370.47602 249.184726 
L 371.47602 249.145308 
L 372.47602 249.098207 
L 373.47602 249.041427 
L 374.47602 249.008764 
L 375.47602 248.972586 
L 376.47602 248.940495 
L 377.47602 248.906216 
L 378.47602 248.847838 
L 379.47602 248.802653 
L 380.47602 248.773029 
L 381.47602 248.722643 
L 382.47602 248.697446 
L 383.47602 248.676395 
L 384.47602 248.641427 
L 385.47602 248.617137 
L 386.47602 248.60307 
L 387.47602 248.584128 
L 388.47602 248.568466 
L 389.47602 248.555915 
L 390.47602 248.550079 
L 391.47602 248.543196 
L 392.47602 248.538023 
L 393.47602 248.539805 
L 394.47602 248.542531 
L 395.47602 248.553684 
L 396.47602 248.58192 
L 397.47602 248.625708 
L 398.47602 248.646397 
L 399.47602 248.68737 
L 400.47602 248.727445 
L 401.47602 248.746555 
L 402.47602 248.769064 
L 403.47602 248.835715 
L 404.47602 248.885424 
L 405.47602 248.959131 
L 406.47602 248.990445 
L 407.47602 249.067067 
L 408.47602 249.105365 
L 409.47602 249.179482 
L 410.47602 249.28354 
L 411.47602 249.353371 
L 412.47602 249.458604 
L 413.47602 249.51362 
L 414.47602 249.637095 
L 415.47602 249.707654 
L 416.47602 249.823493 
L 417.47602 249.873674 
L 418.47602 249.909278 
L 419.47602 250.000685 
L 420.47602 250.054192 
L 421.47602 250.142101 
L 422.47602 250.211286 
L 423.47602 250.25805 
L 424.47602 250.330094 
L 425.47602 250.380236 
L 426.47602 250.397626 
L 427.47602 250.424629 
L 428.47602 250.444056 
L 429.47602 250.463394 
L 430.47602 250.501643 
L 431.47602 250.518076 
L 432.47602 250.526445 
L 433.590219 250.530764 
" clip-path="url(#p274bc01dea)" style="fill: none; stroke: #ffffff; stroke-width: 3; stroke-linecap: round"/>
          <path d="M 225.47602 249.537557 
L 226.47602 249.568993 
L 227.47602 249.605934 
L 228.47602 249.70368 
L 229.47602 249.736202 
L 230.47602 249.809826 
L 231.47602 249.848392 
L 232.47602 249.883805 
L 233.47602 249.941445 
L 234.47602 250.011831 
L 235.47602 250.063796 
L 236.47602 250.122885 
L 237.47602 250.211206 
L 238.47602 250.257351 
L 239.47602 250.299761 
L 240.47602 250.330254 
L 241.47602 250.356299 
L 242.47602 250.377499 
L 243.47602 250.4318 
L 244.47602 250.459738 
L 245.47602 250.489462 
L 246.47602 250.514857 
L 247.47602 250.526057 
L 248.47602 250.536181 
L 249.47602 250.535977 
L 250.47602 250.526467 
L 251.47602 250.514813 
L 252.47602 250.483784 
L 253.47602 250.472616 
L 254.47602 250.442499 
L 255.47602 250.382722 
L 256.47602 250.34553 
L 257.47602 250.306434 
L 258.47602 250.263994 
L 259.47602 250.231229 
L 260.47602 250.163803 
L 261.47602 250.124677 
L 262.47602 250.082002 
L 263.47602 250.011422 
L 264.47602 249.975031 
L 265.47602 249.916628 
L 266.47602 249.805675 
L 267.47602 249.735017 
L 268.47602 249.622077 
L 269.47602 249.576304 
L 270.47602 249.515021 
L 271.47602 249.466521 
L 272.47602 249.385699 
L 273.47602 249.26718 
L 274.47602 249.196969 
L 275.47602 249.113707 
L 276.47602 249.080565 
L 277.47602 249.029328 
L 278.47602 248.960929 
L 279.47602 248.894714 
L 280.47602 248.817797 
L 281.47602 248.790481 
L 282.47602 248.764004 
L 283.47602 248.741353 
L 284.47602 248.721822 
L 285.47602 248.695428 
L 286.47602 248.645657 
L 287.47602 248.610584 
L 288.47602 248.574718 
L 289.47602 248.559351 
L 290.47602 248.543582 
L 291.47602 248.540169 
L 292.47602 248.537752 
L 293.47602 248.538238 
L 294.47602 248.540167 
L 295.47602 248.553424 
L 296.47602 248.561814 
L 297.47602 248.583351 
L 298.47602 248.606384 
L 299.47602 248.623617 
L 300.47602 248.64208 
L 301.47602 248.662532 
L 302.47602 248.679132 
L 303.47602 248.741911 
L 304.47602 248.817176 
L 305.47602 248.849815 
L 306.47602 248.917378 
L 307.47602 248.971426 
L 308.47602 249.00513 
L 309.47602 249.095256 
L 310.47602 249.123791 
L 311.47602 249.155277 
L 312.47602 249.186288 
L 313.47602 249.241096 
L 314.47602 249.305683 
L 315.47602 249.343878 
L 316.47602 249.439813 
L 317.47602 249.489071 
L 318.47602 249.53314 
L 319.47602 249.573264 
L 320.47602 249.681631 
L 321.47602 249.723259 
L 322.47602 249.7854 
L 323.47602 249.855363 
L 324.47602 249.959867 
L 325.47602 249.996855 
L 326.47602 250.042732 
L 327.47602 250.111227 
L 328.47602 250.159972 
L 329.47602 250.23757 
L 330.47602 250.268111 
L 331.47602 250.337625 
L 332.47602 250.361598 
L 333.47602 250.39022 
L 334.47602 250.432013 
L 335.47602 250.453589 
L 336.47602 250.467537 
L 337.47602 250.494259 
L 338.47602 250.503569 
L 339.47602 250.516016 
L 340.47602 250.52707 
L 341.47602 250.532735 
L 342.47602 250.537499 
L 343.47602 250.531951 
L 344.47602 250.518663 
L 345.47602 250.511146 
L 346.47602 250.486361 
L 347.47602 250.462792 
L 348.47602 250.426611 
L 349.47602 250.40065 
L 350.47602 250.378328 
L 351.47602 250.309568 
L 352.47602 250.235033 
L 353.47602 250.141054 
L 354.47602 250.090002 
L 355.47602 250.036068 
L 356.47602 250.000817 
L 357.47602 249.894729 
L 358.47602 249.842465 
L 359.47602 249.805558 
L 360.47602 249.774527 
L 361.47602 249.713372 
L 362.47602 249.645952 
L 363.47602 249.597046 
L 364.47602 249.531854 
L 365.47602 249.493666 
L 366.47602 249.45167 
L 367.47602 249.409653 
L 368.47602 249.350136 
L 369.47602 249.236977 
L 370.47602 249.184726 
L 371.47602 249.145308 
L 372.47602 249.098207 
L 373.47602 249.041427 
L 374.47602 249.008764 
L 375.47602 248.972586 
L 376.47602 248.940495 
L 377.47602 248.906216 
L 378.47602 248.847838 
L 379.47602 248.802653 
L 380.47602 248.773029 
L 381.47602 248.722643 
L 382.47602 248.697446 
L 383.47602 248.676395 
L 384.47602 248.641427 
L 385.47602 248.617137 
L 386.47602 248.60307 
L 387.47602 248.584128 
L 388.47602 248.568466 
L 389.47602 248.555915 
L 390.47602 248.550079 
L 391.47602 248.543196 
L 392.47602 248.538023 
L 393.47602 248.539805 
L 394.47602 248.542531 
L 395.47602 248.553684 
L 396.47602 248.58192 
L 397.47602 248.625708 
L 398.47602 248.646397 
L 399.47602 248.68737 
L 400.47602 248.727445 
L 401.47602 248.746555 
L 402.47602 248.769064 
L 403.47602 248.835715 
L 404.47602 248.885424 
L 405.47602 248.959131 
L 406.47602 248.990445 
L 407.47602 249.067067 
L 408.47602 249.105365 
L 409.47602 249.179482 
L 410.47602 249.28354 
L 411.47602 249.353371 
L 412.47602 249.458604 
L 413.47602 249.51362 
L 414.47602 249.637095 
L 415.47602 249.707654 
L 416.47602 249.823493 
L 417.47602 249.873674 
L 418.47602 249.909278 
L 419.47602 250.000685 
L 420.47602 250.054192 
L 421.47602 250.142101 
L 422.47602 250.211286 
L 423.47602 250.25805 
L 424.47602 250.330094 
L 425.47602 250.380236 
L 426.47602 250.397626 
L 427.47602 250.424629 
L 428.47602 250.444056 
L 429.47602 250.463394 
L 430.47602 250.501643 
L 431.47602 250.518076 
L 432.47602 250.526445 
L 433.590219 250.530764 
" clip-path="url(#p274bc01dea)" style="fill: none; stroke: #ff7f0e; stroke-linecap: round"/>
          <path d="M 429.590219 247.537557 
L 430.470587 248.012888 
L 431.348494 248.493142 
L 432.199208 249.027783 
L 433.501382 249.71523 
L 432.574029 249.741245 
L 431.662355 250.153965 
L 430.75209 250.569504 
L 429.409594 251.176308 
L 430.064493 250.537557 
L 430.116457 249.537557 
L 430.175547 247.537557 
z
" clip-path="url(#p274bc01dea)" style="fill: #ffffff; stroke: #ffffff; stroke-width: 3; stroke-linecap: round"/>
          <path d="M 429.590219 247.537557 
L 430.470587 248.012888 
L 431.348494 248.493142 
L 432.199208 249.027783 
L 433.501382 249.71523 
L 432.574029 249.741245 
L 431.662355 250.153965 
L 430.75209 250.569504 
L 429.409594 251.176308 
L 430.064493 250.537557 
L 430.116457 249.537557 
L 430.175547 247.537557 
z
" clip-path="url(#p274bc01dea)" style="fill: #ffffff; stroke: #ff7f0e; stroke-linecap: round"/>
          <path d="M 454.100462 290.210226 
" clip-path="url(#p274bc01dea)" style="fill: none; stroke-dasharray: 3.7,1.6; stroke-dashoffset: 0; stroke: #2ca02c"/>
          <path d="M 453.100462 290.210226 
L 455.100462 291.210226 
L 455.100462 289.210226 
z
" clip-path="url(#p274bc01dea)" style="fill: #2ca02c; stroke: #2ca02c; stroke-linejoin: miter"/>
          <g id="patch_10">
           <path d="M 63.290625 321.621875 
L 63.290625 10.8 
" style="fill: none; stroke: #000000; stroke-width: 0.8; stroke-linejoin: miter; stroke-linecap: square"/>
          </g>
          <g id="text_14">
           <g id="patch_11">
            <path d="M 317.234846 76.034942 
L 338.539534 76.034942 
Q 340.539534 76.034942 340.539534 74.034942 
L 340.539534 64.356817 
Q 340.539534 62.356817 338.539534 62.356817 
L 317.234846 62.356817 
Q 315.234846 62.356817 315.234846 64.356817 
L 315.234846 74.034942 
Q 315.234846 76.034942 317.234846 76.034942 
z
" style="fill: #ffffff; opacity: 0.6"/>
           </g>
           <!-- ANC -->
           <g transform="translate(317.234846 71.955255) scale(0.1 -0.1)">
            <defs>
             <path id="DejaVuSans-4e" d="M 628 4666 
L 1478 4666 
L 3547 763 
L 3547 4666 
L 4159 4666 
L 4159 0 
L 3309 0 
L 1241 3903 
L 1241 0 
L 628 0 
L 628 4666 
z
" transform="scale(0.015625)"/>
            </defs>
            <use xlink:href="#DejaVuSans-41"/>
            <use xlink:href="#DejaVuSans-4e" x="68.408203"/>
            <use xlink:href="#DejaVuSans-43" x="143.212891"/>
           </g>
          </g>
         </g>
        </g>
        <defs>
         <clipPath id="p274bc01dea">
          <rect x="63.290625" y="10.8" width="540.309375" height="310.821875"/>
         </clipPath>
        </defs>
       </g>
      </g>
     </g>
    </g>
   </g>
  </g>
 </g>
</svg>
