<?xml version="1.0" encoding="utf-8" standalone="no"?>
<!DOCTYPE svg PUBLIC "-//W3C//DTD SVG 1.1//EN"
  "http://www.w3.org/Graphics/SVG/1.1/DTD/svg11.dtd">
<svg xmlns:xlink="http://www.w3.org/1999/xlink" width="614.4pt" height="345.6pt" viewBox="0 0 614.4 345.6" xmlns="http://www.w3.org/2000/svg" version="1.1">
 <metadata>
  <rdf:RDF xmlns:dc="http://purl.org/dc/elements/1.1/" xmlns:cc="http://creativecommons.org/ns#" xmlns:rdf="http://www.w3.org/1999/02/22-rdf-syntax-ns#">
   <cc:Work>
    <dc:type rdf:resource="http://purl.org/dc/dcmitype/StillImage"/>
    <dc:date>2024-04-17T19:48:41.232660</dc:date>
    <dc:format>image/svg+xml</dc:format>
    <dc:creator>
     <cc:Agent>
      <dc:title>Matplotlib v3.7.1, https://matplotlib.org/</dc:title>
     </cc:Agent>
    </dc:creator>
   </cc:Work>
  </rdf:RDF>
 </metadata>
 <defs>
  <style type="text/css">*{stroke-linejoin: round; stroke-linecap: butt}</style>
 </defs>
 <g id="figure_1">
  <g id="patch_1">
   <path d="M 0 345.6 
L 614.4 345.6 
L 614.4 0 
L 0 0 
z
" style="fill: #ffffff"/>
  </g>
  <g id="axes_1">
   <g id="patch_2">
    <path d="M 63.290625 321.621875 
L 603.6 321.621875 
L 603.6 10.8 
L 63.290625 10.8 
z
" style="fill: #ffffff"/>
   </g>
   <path d="M 538.13301 306.406934 
L 537.13301 306.375497 
L 536.13301 306.338557 
L 535.13301 306.24081 
L 534.13301 306.208289 
L 533.13301 306.134664 
L 532.13301 306.096098 
L 531.13301 306.060685 
L 530.13301 306.003045 
L 529.13301 305.932659 
L 528.13301 305.880695 
L 527.13301 305.821605 
L 526.13301 305.733284 
L 525.13301 305.68714 
L 524.13301 305.644729 
L 523.13301 305.614236 
L 522.13301 305.588191 
L 521.13301 305.566991 
L 520.13301 305.51269 
L 519.13301 305.484753 
L 518.13301 305.455029 
L 517.13301 305.429634 
L 516.13301 305.418433 
L 515.13301 305.408309 
L 514.13301 305.408514 
L 513.13301 305.418024 
L 512.13301 305.429677 
L 511.13301 305.460707 
L 510.13301 305.471874 
L 509.13301 305.501992 
L 508.13301 305.561769 
L 507.13301 305.59896 
L 506.13301 305.638057 
L 505.13301 305.680496 
L 504.13301 305.713261 
L 503.13301 305.780688 
L 502.13301 305.819814 
L 501.13301 305.862488 
L 500.13301 305.933069 
L 499.13301 305.96946 
L 498.13301 306.027863 
L 497.13301 306.138815 
L 496.13301 306.209474 
L 495.13301 306.322414 
L 494.13301 306.368186 
L 493.13301 306.42947 
L 492.13301 306.477969 
L 491.13301 306.558792 
L 490.13301 306.677311 
L 489.13301 306.747521 
L 488.13301 306.830784 
L 487.13301 306.863925 
L 486.13301 306.915163 
L 485.13301 306.983561 
L 484.13301 307.049777 
L 483.13301 307.126694 
L 482.13301 307.154009 
L 481.13301 307.180487 
L 480.13301 307.203137 
L 479.13301 307.222669 
L 478.13301 307.249063 
L 477.13301 307.298833 
L 476.13301 307.333907 
L 475.13301 307.369772 
L 474.13301 307.385139 
L 473.13301 307.400909 
L 472.13301 307.404321 
L 471.13301 307.406739 
L 470.13301 307.406253 
L 469.13301 307.404323 
L 468.13301 307.391067 
L 467.13301 307.382676 
L 466.13301 307.361139 
L 465.13301 307.338107 
L 464.13301 307.320873 
L 463.13301 307.302411 
L 462.13301 307.281958 
L 461.13301 307.265358 
L 460.13301 307.20258 
L 459.13301 307.127315 
L 458.13301 307.094676 
L 457.13301 307.027112 
L 456.13301 306.973065 
L 455.13301 306.939361 
L 454.13301 306.849235 
L 452.231597 306.8207 
" clip-path="url(#p028df5afbe)" style="fill: none; stroke-dasharray: 3.7,1.6; stroke-dashoffset: 0; stroke: #2ca02c"/>
   <g id="patch_3">
    <path d="M 255.536736 10.8 
L 255.536736 226.445921 
M 394.948974 10.8 
L 394.948974 226.445921 
" clip-path="url(#p028df5afbe)" style="fill: none; stroke: #ffffff; stroke-width: 3; stroke-linejoin: miter"/>
    <path d="M 255.536736 10.8 
L 255.536736 226.445921 
M 394.948974 10.8 
L 394.948974 226.445921 
" clip-path="url(#p028df5afbe)" style="fill: none; stroke: #1f77b4; stroke-linejoin: miter"/>
    <g id="PolyCollection_1">
     <path d="M 394.948974 10.8 
L 255.536736 10.8 
L 255.536736 226.445921 
L 394.948974 226.445921 
L 394.948974 226.445921 
L 394.948974 10.8 
z
" clip-path="url(#p028df5afbe)" style="fill: #1f77b4; fill-opacity: 0.5"/>
    </g>
    <g id="patch_4">
     <path d="M 87.850142 226.445921 
L 87.850142 321.621875 
M 208.567412 226.445921 
L 208.567412 321.621875 
" clip-path="url(#p028df5afbe)" style="fill: none; stroke: #ffffff; stroke-width: 3; stroke-linejoin: miter"/>
     <path d="M 87.850142 226.445921 
L 87.850142 321.621875 
M 208.567412 226.445921 
L 208.567412 321.621875 
" clip-path="url(#p028df5afbe)" style="fill: none; stroke: #ff7f0e; stroke-linejoin: miter"/>
     <g id="PolyCollection_2">
      <path d="M 208.567412 226.445921 
L 87.850142 226.445921 
L 87.850142 321.621875 
L 208.567412 321.621875 
L 208.567412 321.621875 
L 208.567412 226.445921 
z
" clip-path="url(#p028df5afbe)" style="fill: #ff7f0e; fill-opacity: 0.5"/>
     </g>
     <g id="patch_5">
      <path d="M 543.536103 72.964375 
L 543.536103 321.621875 
M 579.040483 72.964375 
L 579.040483 321.621875 
" clip-path="url(#p028df5afbe)" style="fill: none; stroke: #ffffff; stroke-width: 3; stroke-linejoin: miter"/>
      <path d="M 543.536103 72.964375 
L 543.536103 321.621875 
M 579.040483 72.964375 
L 579.040483 321.621875 
" clip-path="url(#p028df5afbe)" style="fill: none; stroke: #2ca02c; stroke-linejoin: miter"/>
      <g id="PolyCollection_3">
       <path d="M 579.040483 72.964375 
L 543.536103 72.964375 
L 543.536103 321.621875 
L 579.040483 321.621875 
L 579.040483 321.621875 
L 579.040483 72.964375 
z
" clip-path="url(#p028df5afbe)" style="fill: #2ca02c; fill-opacity: 0.5"/>
      </g>
      <g id="patch_6">
       <path d="M 439.702645 285.268954 
L 439.702645 321.621875 
M 446.828503 285.268954 
L 446.828503 321.621875 
" clip-path="url(#p028df5afbe)" style="fill: none; stroke: #ffffff; stroke-width: 3; stroke-linejoin: miter"/>
       <path d="M 439.702645 285.268954 
L 439.702645 321.621875 
M 446.828503 285.268954 
L 446.828503 321.621875 
" clip-path="url(#p028df5afbe)" style="fill: none; stroke: #d62728; stroke-linejoin: miter"/>
       <g id="PolyCollection_4">
        <path d="M 446.828503 285.268954 
L 439.702645 285.268954 
L 439.702645 321.621875 
L 446.828503 321.621875 
L 446.828503 321.621875 
L 446.828503 285.268954 
z
" clip-path="url(#p028df5afbe)" style="fill: #d62728; fill-opacity: 0.5"/>
       </g>
       <g id="matplotlib.axis_1">
        <g id="xtick_1">
         <g id="line2d_1"/>
         <g id="text_1">
          <!-- OUT -->
          <g transform="translate(137.559558 332.720312) scale(0.1 -0.1)">
           <defs>
            <path id="DejaVuSans-4f" d="M 2522 4238 
Q 1834 4238 1429 3725 
Q 1025 3213 1025 2328 
Q 1025 1447 1429 934 
Q 1834 422 2522 422 
Q 3209 422 3611 934 
Q 4013 1447 4013 2328 
Q 4013 3213 3611 3725 
Q 3209 4238 2522 4238 
z
M 2522 4750 
Q 3503 4750 4090 4092 
Q 4678 3434 4678 2328 
Q 4678 1225 4090 567 
Q 3503 -91 2522 -91 
Q 1538 -91 948 565 
Q 359 1222 359 2328 
Q 359 3434 948 4092 
Q 1538 4750 2522 4750 
z
" transform="scale(0.015625)"/>
            <path id="DejaVuSans-55" d="M 556 4666 
L 1191 4666 
L 1191 1831 
Q 1191 1081 1462 751 
Q 1734 422 2344 422 
Q 2950 422 3222 751 
Q 3494 1081 3494 1831 
L 3494 4666 
L 4128 4666 
L 4128 1753 
Q 4128 841 3676 375 
Q 3225 -91 2344 -91 
Q 1459 -91 1007 375 
Q 556 841 556 1753 
L 556 4666 
z
" transform="scale(0.015625)"/>
            <path id="DejaVuSans-54" d="M -19 4666 
L 3928 4666 
L 3928 4134 
L 2272 4134 
L 2272 0 
L 1638 0 
L 1638 4134 
L -19 4134 
L -19 4666 
z
" transform="scale(0.015625)"/>
           </defs>
           <use xlink:href="#DejaVuSans-4f"/>
           <use xlink:href="#DejaVuSans-55" x="78.710938"/>
           <use xlink:href="#DejaVuSans-54" x="151.904297"/>
          </g>
         </g>
        </g>
        <g id="xtick_2">
         <g id="line2d_2"/>
         <g id="text_2">
          <!-- SRC -->
          <g transform="translate(551.398449 332.720312) scale(0.1 -0.1)">
           <defs>
            <path id="DejaVuSans-53" d="M 3425 4513 
L 3425 3897 
Q 3066 4069 2747 4153 
Q 2428 4238 2131 4238 
Q 1616 4238 1336 4038 
Q 1056 3838 1056 3469 
Q 1056 3159 1242 3001 
Q 1428 2844 1947 2747 
L 2328 2669 
Q 3034 2534 3370 2195 
Q 3706 1856 3706 1288 
Q 3706 609 3251 259 
Q 2797 -91 1919 -91 
Q 1588 -91 1214 -16 
Q 841 59 441 206 
L 441 856 
Q 825 641 1194 531 
Q 1563 422 1919 422 
Q 2459 422 2753 634 
Q 3047 847 3047 1241 
Q 3047 1584 2836 1778 
Q 2625 1972 2144 2069 
L 1759 2144 
Q 1053 2284 737 2584 
Q 422 2884 422 3419 
Q 422 4038 858 4394 
Q 1294 4750 2059 4750 
Q 2388 4750 2728 4690 
Q 3069 4631 3425 4513 
z
" transform="scale(0.015625)"/>
            <path id="DejaVuSans-52" d="M 2841 2188 
Q 3044 2119 3236 1894 
Q 3428 1669 3622 1275 
L 4263 0 
L 3584 0 
L 2988 1197 
Q 2756 1666 2539 1819 
Q 2322 1972 1947 1972 
L 1259 1972 
L 1259 0 
L 628 0 
L 628 4666 
L 2053 4666 
Q 2853 4666 3247 4331 
Q 3641 3997 3641 3322 
Q 3641 2881 3436 2590 
Q 3231 2300 2841 2188 
z
M 1259 4147 
L 1259 2491 
L 2053 2491 
Q 2509 2491 2742 2702 
Q 2975 2913 2975 3322 
Q 2975 3731 2742 3939 
Q 2509 4147 2053 4147 
L 1259 4147 
z
" transform="scale(0.015625)"/>
            <path id="DejaVuSans-43" d="M 4122 4306 
L 4122 3641 
Q 3803 3938 3442 4084 
Q 3081 4231 2675 4231 
Q 1875 4231 1450 3742 
Q 1025 3253 1025 2328 
Q 1025 1406 1450 917 
Q 1875 428 2675 428 
Q 3081 428 3442 575 
Q 3803 722 4122 1019 
L 4122 359 
Q 3791 134 3420 21 
Q 3050 -91 2638 -91 
Q 1578 -91 968 557 
Q 359 1206 359 2328 
Q 359 3453 968 4101 
Q 1578 4750 2638 4750 
Q 3056 4750 3426 4639 
Q 3797 4528 4122 4306 
z
" transform="scale(0.015625)"/>
           </defs>
           <use xlink:href="#DejaVuSans-53"/>
           <use xlink:href="#DejaVuSans-52" x="63.476562"/>
           <use xlink:href="#DejaVuSans-43" x="127.958984"/>
          </g>
         </g>
        </g>
        <g id="xtick_3">
         <g id="line2d_3"/>
         <g id="text_3">
          <!-- TAR -->
          <g transform="translate(433.704637 332.720312) scale(0.1 -0.1)">
           <defs>
            <path id="DejaVuSans-41" d="M 2188 4044 
L 1331 1722 
L 3047 1722 
L 2188 4044 
z
M 1831 4666 
L 2547 4666 
L 4325 0 
L 3669 0 
L 3244 1197 
L 1141 1197 
L 716 0 
L 50 0 
L 1831 4666 
z
" transform="scale(0.015625)"/>
           </defs>
           <use xlink:href="#DejaVuSans-54"/>
           <use xlink:href="#DejaVuSans-41" x="53.333984"/>
           <use xlink:href="#DejaVuSans-52" x="121.742188"/>
          </g>
         </g>
        </g>
       </g>
       <g id="matplotlib.axis_2">
        <g id="ytick_1">
         <g id="line2d_4">
          <defs>
           <path id="m53fc8b0f42" d="M 0 0 
L -3.5 0 
" style="stroke: #000000; stroke-width: 0.8"/>
          </defs>
          <g>
           <use xlink:href="#m53fc8b0f42" x="63.290625" y="321.621875" style="stroke: #000000; stroke-width: 0.8"/>
          </g>
         </g>
         <g id="text_4">
          <!-- 0 -->
          <g transform="translate(49.928125 325.421094) scale(0.1 -0.1)">
           <defs>
            <path id="DejaVuSans-30" d="M 2034 4250 
Q 1547 4250 1301 3770 
Q 1056 3291 1056 2328 
Q 1056 1369 1301 889 
Q 1547 409 2034 409 
Q 2525 409 2770 889 
Q 3016 1369 3016 2328 
Q 3016 3291 2770 3770 
Q 2525 4250 2034 4250 
z
M 2034 4750 
Q 2819 4750 3233 4129 
Q 3647 3509 3647 2328 
Q 3647 1150 3233 529 
Q 2819 -91 2034 -91 
Q 1250 -91 836 529 
Q 422 1150 422 2328 
Q 422 3509 836 4129 
Q 1250 4750 2034 4750 
z
" transform="scale(0.015625)"/>
           </defs>
           <use xlink:href="#DejaVuSans-30"/>
          </g>
         </g>
        </g>
        <g id="ytick_2">
         <g id="line2d_5">
          <g>
           <use xlink:href="#m53fc8b0f42" x="63.290625" y="266.575054" style="stroke: #000000; stroke-width: 0.8"/>
          </g>
         </g>
         <g id="text_5">
          <!-- 5000 -->
          <g transform="translate(30.840625 270.374273) scale(0.1 -0.1)">
           <defs>
            <path id="DejaVuSans-35" d="M 691 4666 
L 3169 4666 
L 3169 4134 
L 1269 4134 
L 1269 2991 
Q 1406 3038 1543 3061 
Q 1681 3084 1819 3084 
Q 2600 3084 3056 2656 
Q 3513 2228 3513 1497 
Q 3513 744 3044 326 
Q 2575 -91 1722 -91 
Q 1428 -91 1123 -41 
Q 819 9 494 109 
L 494 744 
Q 775 591 1075 516 
Q 1375 441 1709 441 
Q 2250 441 2565 725 
Q 2881 1009 2881 1497 
Q 2881 1984 2565 2268 
Q 2250 2553 1709 2553 
Q 1456 2553 1204 2497 
Q 953 2441 691 2322 
L 691 4666 
z
" transform="scale(0.015625)"/>
           </defs>
           <use xlink:href="#DejaVuSans-35"/>
           <use xlink:href="#DejaVuSans-30" x="63.623047"/>
           <use xlink:href="#DejaVuSans-30" x="127.246094"/>
           <use xlink:href="#DejaVuSans-30" x="190.869141"/>
          </g>
         </g>
        </g>
        <g id="ytick_3">
         <g id="line2d_6">
          <g>
           <use xlink:href="#m53fc8b0f42" x="63.290625" y="211.528233" style="stroke: #000000; stroke-width: 0.8"/>
          </g>
         </g>
         <g id="text_6">
          <!-- 10000 -->
          <g transform="translate(24.478125 215.327452) scale(0.1 -0.1)">
           <defs>
            <path id="DejaVuSans-31" d="M 794 531 
L 1825 531 
L 1825 4091 
L 703 3866 
L 703 4441 
L 1819 4666 
L 2450 4666 
L 2450 531 
L 3481 531 
L 3481 0 
L 794 0 
L 794 531 
z
" transform="scale(0.015625)"/>
           </defs>
           <use xlink:href="#DejaVuSans-31"/>
           <use xlink:href="#DejaVuSans-30" x="63.623047"/>
           <use xlink:href="#DejaVuSans-30" x="127.246094"/>
           <use xlink:href="#DejaVuSans-30" x="190.869141"/>
           <use xlink:href="#DejaVuSans-30" x="254.492188"/>
          </g>
         </g>
        </g>
        <g id="ytick_4">
         <g id="line2d_7">
          <g>
           <use xlink:href="#m53fc8b0f42" x="63.290625" y="156.481412" style="stroke: #000000; stroke-width: 0.8"/>
          </g>
         </g>
         <g id="text_7">
          <!-- 15000 -->
          <g transform="translate(24.478125 160.280631) scale(0.1 -0.1)">
           <use xlink:href="#DejaVuSans-31"/>
           <use xlink:href="#DejaVuSans-35" x="63.623047"/>
           <use xlink:href="#DejaVuSans-30" x="127.246094"/>
           <use xlink:href="#DejaVuSans-30" x="190.869141"/>
           <use xlink:href="#DejaVuSans-30" x="254.492188"/>
          </g>
         </g>
        </g>
        <g id="ytick_5">
         <g id="line2d_8">
          <g>
           <use xlink:href="#m53fc8b0f42" x="63.290625" y="101.434591" style="stroke: #000000; stroke-width: 0.8"/>
          </g>
         </g>
         <g id="text_8">
          <!-- 20000 -->
          <g transform="translate(24.478125 105.23381) scale(0.1 -0.1)">
           <defs>
            <path id="DejaVuSans-32" d="M 1228 531 
L 3431 531 
L 3431 0 
L 469 0 
L 469 531 
Q 828 903 1448 1529 
Q 2069 2156 2228 2338 
Q 2531 2678 2651 2914 
Q 2772 3150 2772 3378 
Q 2772 3750 2511 3984 
Q 2250 4219 1831 4219 
Q 1534 4219 1204 4116 
Q 875 4013 500 3803 
L 500 4441 
Q 881 4594 1212 4672 
Q 1544 4750 1819 4750 
Q 2544 4750 2975 4387 
Q 3406 4025 3406 3419 
Q 3406 3131 3298 2873 
Q 3191 2616 2906 2266 
Q 2828 2175 2409 1742 
Q 1991 1309 1228 531 
z
" transform="scale(0.015625)"/>
           </defs>
           <use xlink:href="#DejaVuSans-32"/>
           <use xlink:href="#DejaVuSans-30" x="63.623047"/>
           <use xlink:href="#DejaVuSans-30" x="127.246094"/>
           <use xlink:href="#DejaVuSans-30" x="190.869141"/>
           <use xlink:href="#DejaVuSans-30" x="254.492188"/>
          </g>
         </g>
        </g>
        <g id="ytick_6">
         <g id="line2d_9">
          <g>
           <use xlink:href="#m53fc8b0f42" x="63.290625" y="46.38777" style="stroke: #000000; stroke-width: 0.8"/>
          </g>
         </g>
         <g id="text_9">
          <!-- 25000 -->
          <g transform="translate(24.478125 50.186989) scale(0.1 -0.1)">
           <use xlink:href="#DejaVuSans-32"/>
           <use xlink:href="#DejaVuSans-35" x="63.623047"/>
           <use xlink:href="#DejaVuSans-30" x="127.246094"/>
           <use xlink:href="#DejaVuSans-30" x="190.869141"/>
           <use xlink:href="#DejaVuSans-30" x="254.492188"/>
          </g>
         </g>
        </g>
        <g id="text_10">
         <!-- time ago (generations) -->
         <g transform="translate(18.398438 223.682031) rotate(-90) scale(0.1 -0.1)">
          <defs>
           <path id="DejaVuSans-74" d="M 1172 4494 
L 1172 3500 
L 2356 3500 
L 2356 3053 
L 1172 3053 
L 1172 1153 
Q 1172 725 1289 603 
Q 1406 481 1766 481 
L 2356 481 
L 2356 0 
L 1766 0 
Q 1100 0 847 248 
Q 594 497 594 1153 
L 594 3053 
L 172 3053 
L 172 3500 
L 594 3500 
L 594 4494 
L 1172 4494 
z
" transform="scale(0.015625)"/>
           <path id="DejaVuSans-69" d="M 603 3500 
L 1178 3500 
L 1178 0 
L 603 0 
L 603 3500 
z
M 603 4863 
L 1178 4863 
L 1178 4134 
L 603 4134 
L 603 4863 
z
" transform="scale(0.015625)"/>
           <path id="DejaVuSans-6d" d="M 3328 2828 
Q 3544 3216 3844 3400 
Q 4144 3584 4550 3584 
Q 5097 3584 5394 3201 
Q 5691 2819 5691 2113 
L 5691 0 
L 5113 0 
L 5113 2094 
Q 5113 2597 4934 2840 
Q 4756 3084 4391 3084 
Q 3944 3084 3684 2787 
Q 3425 2491 3425 1978 
L 3425 0 
L 2847 0 
L 2847 2094 
Q 2847 2600 2669 2842 
Q 2491 3084 2119 3084 
Q 1678 3084 1418 2786 
Q 1159 2488 1159 1978 
L 1159 0 
L 581 0 
L 581 3500 
L 1159 3500 
L 1159 2956 
Q 1356 3278 1631 3431 
Q 1906 3584 2284 3584 
Q 2666 3584 2933 3390 
Q 3200 3197 3328 2828 
z
" transform="scale(0.015625)"/>
           <path id="DejaVuSans-65" d="M 3597 1894 
L 3597 1613 
L 953 1613 
Q 991 1019 1311 708 
Q 1631 397 2203 397 
Q 2534 397 2845 478 
Q 3156 559 3463 722 
L 3463 178 
Q 3153 47 2828 -22 
Q 2503 -91 2169 -91 
Q 1331 -91 842 396 
Q 353 884 353 1716 
Q 353 2575 817 3079 
Q 1281 3584 2069 3584 
Q 2775 3584 3186 3129 
Q 3597 2675 3597 1894 
z
M 3022 2063 
Q 3016 2534 2758 2815 
Q 2500 3097 2075 3097 
Q 1594 3097 1305 2825 
Q 1016 2553 972 2059 
L 3022 2063 
z
" transform="scale(0.015625)"/>
           <path id="DejaVuSans-20" transform="scale(0.015625)"/>
           <path id="DejaVuSans-61" d="M 2194 1759 
Q 1497 1759 1228 1600 
Q 959 1441 959 1056 
Q 959 750 1161 570 
Q 1363 391 1709 391 
Q 2188 391 2477 730 
Q 2766 1069 2766 1631 
L 2766 1759 
L 2194 1759 
z
M 3341 1997 
L 3341 0 
L 2766 0 
L 2766 531 
Q 2569 213 2275 61 
Q 1981 -91 1556 -91 
Q 1019 -91 701 211 
Q 384 513 384 1019 
Q 384 1609 779 1909 
Q 1175 2209 1959 2209 
L 2766 2209 
L 2766 2266 
Q 2766 2663 2505 2880 
Q 2244 3097 1772 3097 
Q 1472 3097 1187 3025 
Q 903 2953 641 2809 
L 641 3341 
Q 956 3463 1253 3523 
Q 1550 3584 1831 3584 
Q 2591 3584 2966 3190 
Q 3341 2797 3341 1997 
z
" transform="scale(0.015625)"/>
           <path id="DejaVuSans-67" d="M 2906 1791 
Q 2906 2416 2648 2759 
Q 2391 3103 1925 3103 
Q 1463 3103 1205 2759 
Q 947 2416 947 1791 
Q 947 1169 1205 825 
Q 1463 481 1925 481 
Q 2391 481 2648 825 
Q 2906 1169 2906 1791 
z
M 3481 434 
Q 3481 -459 3084 -895 
Q 2688 -1331 1869 -1331 
Q 1566 -1331 1297 -1286 
Q 1028 -1241 775 -1147 
L 775 -588 
Q 1028 -725 1275 -790 
Q 1522 -856 1778 -856 
Q 2344 -856 2625 -561 
Q 2906 -266 2906 331 
L 2906 616 
Q 2728 306 2450 153 
Q 2172 0 1784 0 
Q 1141 0 747 490 
Q 353 981 353 1791 
Q 353 2603 747 3093 
Q 1141 3584 1784 3584 
Q 2172 3584 2450 3431 
Q 2728 3278 2906 2969 
L 2906 3500 
L 3481 3500 
L 3481 434 
z
" transform="scale(0.015625)"/>
           <path id="DejaVuSans-6f" d="M 1959 3097 
Q 1497 3097 1228 2736 
Q 959 2375 959 1747 
Q 959 1119 1226 758 
Q 1494 397 1959 397 
Q 2419 397 2687 759 
Q 2956 1122 2956 1747 
Q 2956 2369 2687 2733 
Q 2419 3097 1959 3097 
z
M 1959 3584 
Q 2709 3584 3137 3096 
Q 3566 2609 3566 1747 
Q 3566 888 3137 398 
Q 2709 -91 1959 -91 
Q 1206 -91 779 398 
Q 353 888 353 1747 
Q 353 2609 779 3096 
Q 1206 3584 1959 3584 
z
" transform="scale(0.015625)"/>
           <path id="DejaVuSans-28" d="M 1984 4856 
Q 1566 4138 1362 3434 
Q 1159 2731 1159 2009 
Q 1159 1288 1364 580 
Q 1569 -128 1984 -844 
L 1484 -844 
Q 1016 -109 783 600 
Q 550 1309 550 2009 
Q 550 2706 781 3412 
Q 1013 4119 1484 4856 
L 1984 4856 
z
" transform="scale(0.015625)"/>
           <path id="DejaVuSans-6e" d="M 3513 2113 
L 3513 0 
L 2938 0 
L 2938 2094 
Q 2938 2591 2744 2837 
Q 2550 3084 2163 3084 
Q 1697 3084 1428 2787 
Q 1159 2491 1159 1978 
L 1159 0 
L 581 0 
L 581 3500 
L 1159 3500 
L 1159 2956 
Q 1366 3272 1645 3428 
Q 1925 3584 2291 3584 
Q 2894 3584 3203 3211 
Q 3513 2838 3513 2113 
z
" transform="scale(0.015625)"/>
           <path id="DejaVuSans-72" d="M 2631 2963 
Q 2534 3019 2420 3045 
Q 2306 3072 2169 3072 
Q 1681 3072 1420 2755 
Q 1159 2438 1159 1844 
L 1159 0 
L 581 0 
L 581 3500 
L 1159 3500 
L 1159 2956 
Q 1341 3275 1631 3429 
Q 1922 3584 2338 3584 
Q 2397 3584 2469 3576 
Q 2541 3569 2628 3553 
L 2631 2963 
z
" transform="scale(0.015625)"/>
           <path id="DejaVuSans-73" d="M 2834 3397 
L 2834 2853 
Q 2591 2978 2328 3040 
Q 2066 3103 1784 3103 
Q 1356 3103 1142 2972 
Q 928 2841 928 2578 
Q 928 2378 1081 2264 
Q 1234 2150 1697 2047 
L 1894 2003 
Q 2506 1872 2764 1633 
Q 3022 1394 3022 966 
Q 3022 478 2636 193 
Q 2250 -91 1575 -91 
Q 1294 -91 989 -36 
Q 684 19 347 128 
L 347 722 
Q 666 556 975 473 
Q 1284 391 1588 391 
Q 1994 391 2212 530 
Q 2431 669 2431 922 
Q 2431 1156 2273 1281 
Q 2116 1406 1581 1522 
L 1381 1569 
Q 847 1681 609 1914 
Q 372 2147 372 2553 
Q 372 3047 722 3315 
Q 1072 3584 1716 3584 
Q 2034 3584 2315 3537 
Q 2597 3491 2834 3397 
z
" transform="scale(0.015625)"/>
           <path id="DejaVuSans-29" d="M 513 4856 
L 1013 4856 
Q 1481 4119 1714 3412 
Q 1947 2706 1947 2009 
Q 1947 1309 1714 600 
Q 1481 -109 1013 -844 
L 513 -844 
Q 928 -128 1133 580 
Q 1338 1288 1338 2009 
Q 1338 2731 1133 3434 
Q 928 4138 513 4856 
z
" transform="scale(0.015625)"/>
          </defs>
          <use xlink:href="#DejaVuSans-74"/>
          <use xlink:href="#DejaVuSans-69" x="39.208984"/>
          <use xlink:href="#DejaVuSans-6d" x="66.992188"/>
          <use xlink:href="#DejaVuSans-65" x="164.404297"/>
          <use xlink:href="#DejaVuSans-20" x="225.927734"/>
          <use xlink:href="#DejaVuSans-61" x="257.714844"/>
          <use xlink:href="#DejaVuSans-67" x="318.994141"/>
          <use xlink:href="#DejaVuSans-6f" x="382.470703"/>
          <use xlink:href="#DejaVuSans-20" x="443.652344"/>
          <use xlink:href="#DejaVuSans-28" x="475.439453"/>
          <use xlink:href="#DejaVuSans-67" x="514.453125"/>
          <use xlink:href="#DejaVuSans-65" x="577.929688"/>
          <use xlink:href="#DejaVuSans-6e" x="639.453125"/>
          <use xlink:href="#DejaVuSans-65" x="702.832031"/>
          <use xlink:href="#DejaVuSans-72" x="764.355469"/>
          <use xlink:href="#DejaVuSans-61" x="805.46875"/>
          <use xlink:href="#DejaVuSans-74" x="866.748047"/>
          <use xlink:href="#DejaVuSans-69" x="905.957031"/>
          <use xlink:href="#DejaVuSans-6f" x="933.740234"/>
          <use xlink:href="#DejaVuSans-6e" x="994.921875"/>
          <use xlink:href="#DejaVuSans-73" x="1058.300781"/>
          <use xlink:href="#DejaVuSans-29" x="1110.400391"/>
         </g>
        </g>
       </g>
       <g id="patch_7">
        <path d="M 253.538591 226.445921 
L 252.538591 226.414485 
L 251.538591 226.377545 
L 250.538591 226.279798 
L 249.538591 226.247277 
L 248.538591 226.173652 
L 247.538591 226.135086 
L 246.538591 226.099673 
L 245.538591 226.042033 
L 244.538591 225.971647 
L 243.538591 225.919683 
L 242.538591 225.860593 
L 241.538591 225.772272 
L 240.538591 225.726128 
L 239.538591 225.683717 
L 238.538591 225.653224 
L 237.538591 225.627179 
L 236.538591 225.605979 
L 235.538591 225.551678 
L 234.538591 225.52374 
L 233.538591 225.494016 
L 232.538591 225.468622 
L 231.538591 225.457421 
L 230.538591 225.447297 
L 229.538591 225.447502 
L 228.538591 225.457011 
L 227.538591 225.468665 
L 226.538591 225.499694 
L 225.538591 225.510862 
L 224.538591 225.54098 
L 223.538591 225.600757 
L 222.538591 225.637948 
L 221.538591 225.677044 
L 220.538591 225.719484 
L 219.538591 225.752249 
L 218.538591 225.819676 
L 217.538591 225.858801 
L 216.538591 225.901476 
L 215.538591 225.972057 
L 214.538591 226.008447 
L 213.538591 226.066851 
L 211.686422 226.177803 
" clip-path="url(#p028df5afbe)" style="fill: none; stroke: #ffffff; stroke-width: 3; stroke-linecap: round"/>
        <path d="M 253.538591 226.445921 
L 252.538591 226.414485 
L 251.538591 226.377545 
L 250.538591 226.279798 
L 249.538591 226.247277 
L 248.538591 226.173652 
L 247.538591 226.135086 
L 246.538591 226.099673 
L 245.538591 226.042033 
L 244.538591 225.971647 
L 243.538591 225.919683 
L 242.538591 225.860593 
L 241.538591 225.772272 
L 240.538591 225.726128 
L 239.538591 225.683717 
L 238.538591 225.653224 
L 237.538591 225.627179 
L 236.538591 225.605979 
L 235.538591 225.551678 
L 234.538591 225.52374 
L 233.538591 225.494016 
L 232.538591 225.468622 
L 231.538591 225.457421 
L 230.538591 225.447297 
L 229.538591 225.447502 
L 228.538591 225.457011 
L 227.538591 225.468665 
L 226.538591 225.499694 
L 225.538591 225.510862 
L 224.538591 225.54098 
L 223.538591 225.600757 
L 222.538591 225.637948 
L 221.538591 225.677044 
L 220.538591 225.719484 
L 219.538591 225.752249 
L 218.538591 225.819676 
L 217.538591 225.858801 
L 216.538591 225.901476 
L 215.538591 225.972057 
L 214.538591 226.008447 
L 213.538591 226.066851 
L 211.686422 226.177803 
" clip-path="url(#p028df5afbe)" style="fill: none; stroke: #1f77b4; stroke-linecap: round"/>
        <path d="M 215.686422 228.445921 
L 214.806053 227.97059 
L 213.928146 227.490336 
L 213.077433 226.955695 
L 211.775259 226.268248 
L 212.702612 226.242233 
L 213.614286 225.829514 
L 214.52455 225.413975 
L 215.867046 224.80717 
L 215.212147 225.445921 
L 215.160183 226.445921 
L 215.101093 228.445921 
z
" clip-path="url(#p028df5afbe)" style="fill: #ffffff; stroke: #ffffff; stroke-width: 3; stroke-linecap: round"/>
        <path d="M 215.686422 228.445921 
L 214.806053 227.97059 
L 213.928146 227.490336 
L 213.077433 226.955695 
L 211.775259 226.268248 
L 212.702612 226.242233 
L 213.614286 225.829514 
L 214.52455 225.413975 
L 215.867046 224.80717 
L 215.212147 225.445921 
L 215.160183 226.445921 
L 215.101093 228.445921 
z
" clip-path="url(#p028df5afbe)" style="fill: #ffffff; stroke: #1f77b4; stroke-linecap: round"/>
        <g id="patch_8">
         <path d="M 396.948697 72.964375 
L 397.948697 72.995811 
L 398.948697 73.032752 
L 399.948697 73.130498 
L 400.948697 73.16302 
L 401.948697 73.236645 
L 402.948697 73.27521 
L 403.948697 73.310623 
L 404.948697 73.368263 
L 405.948697 73.438649 
L 406.948697 73.490614 
L 407.948697 73.549703 
L 408.948697 73.638024 
L 409.948697 73.684169 
L 410.948697 73.72658 
L 411.948697 73.757072 
L 412.948697 73.783117 
L 413.948697 73.804317 
L 414.948697 73.858618 
L 415.948697 73.886556 
L 416.948697 73.91628 
L 417.948697 73.941675 
L 418.948697 73.952875 
L 419.948697 73.962999 
L 420.948697 73.962795 
L 421.948697 73.953285 
L 422.948697 73.941631 
L 423.948697 73.910602 
L 424.948697 73.899434 
L 425.948697 73.869317 
L 426.948697 73.80954 
L 427.948697 73.772348 
L 428.948697 73.733252 
L 429.948697 73.690812 
L 430.948697 73.658047 
L 431.948697 73.590621 
L 432.948697 73.551495 
L 433.948697 73.50882 
L 434.948697 73.43824 
L 435.948697 73.401849 
L 436.948697 73.343446 
L 437.948697 73.232493 
L 438.948697 73.161835 
L 439.948697 73.048895 
L 440.948697 73.003122 
L 441.948697 72.941839 
L 442.948697 72.89334 
L 443.948697 72.812517 
L 444.948697 72.693998 
L 445.948697 72.623787 
L 446.948697 72.540525 
L 447.948697 72.507383 
L 448.948697 72.456146 
L 449.948697 72.387747 
L 450.948697 72.321532 
L 451.948697 72.244615 
L 452.948697 72.217299 
L 453.948697 72.190822 
L 454.948697 72.168171 
L 455.948697 72.14864 
L 456.948697 72.122246 
L 457.948697 72.072475 
L 458.948697 72.037402 
L 459.948697 72.001536 
L 460.948697 71.986169 
L 461.948697 71.9704 
L 462.948697 71.966987 
L 463.948697 71.96457 
L 464.948697 71.965056 
L 465.948697 71.966985 
L 466.948697 71.980242 
L 467.948697 71.988633 
L 468.948697 72.010169 
L 469.948697 72.033202 
L 470.948697 72.050435 
L 471.948697 72.068898 
L 472.948697 72.08935 
L 473.948697 72.10595 
L 474.948697 72.168729 
L 475.948697 72.243994 
L 476.948697 72.276633 
L 477.948697 72.344197 
L 478.948697 72.398244 
L 479.948697 72.431948 
L 480.948697 72.522074 
L 481.948697 72.550609 
L 482.948697 72.582095 
L 483.948697 72.613106 
L 484.948697 72.667914 
L 485.948697 72.732501 
L 486.948697 72.770697 
L 487.948697 72.866631 
L 488.948697 72.915889 
L 489.948697 72.959958 
L 490.948697 73.000082 
L 491.948697 73.108449 
L 492.948697 73.150077 
L 493.948697 73.212219 
L 494.948697 73.282181 
L 495.948697 73.386685 
L 496.948697 73.423673 
L 497.948697 73.46955 
L 498.948697 73.538045 
L 499.948697 73.586791 
L 500.948697 73.664388 
L 501.948697 73.694929 
L 502.948697 73.764443 
L 503.948697 73.788416 
L 504.948697 73.817038 
L 505.948697 73.858831 
L 506.948697 73.880407 
L 507.948697 73.894355 
L 508.948697 73.921077 
L 509.948697 73.930387 
L 510.948697 73.942834 
L 511.948697 73.953889 
L 512.948697 73.959553 
L 513.948697 73.964317 
L 514.948697 73.958769 
L 515.948697 73.945481 
L 516.948697 73.937964 
L 517.948697 73.913179 
L 518.948697 73.88961 
L 519.948697 73.85343 
L 520.948697 73.827468 
L 521.948697 73.805146 
L 522.948697 73.736386 
L 523.948697 73.661851 
L 524.948697 73.567872 
L 525.948697 73.51682 
L 526.948697 73.462886 
L 527.948697 73.427635 
L 528.948697 73.321547 
L 529.948697 73.269283 
L 530.948697 73.232376 
L 531.948697 73.201345 
L 532.948697 73.14019 
L 533.948697 73.07277 
L 534.948697 73.023864 
L 535.948697 72.958672 
L 536.948697 72.920484 
L 537.948697 72.878488 
L 538.948697 72.836471 
L 540.418418 72.776955 
" clip-path="url(#p028df5afbe)" style="fill: none; stroke: #ffffff; stroke-width: 3; stroke-linecap: round"/>
         <path d="M 396.948697 72.964375 
L 397.948697 72.995811 
L 398.948697 73.032752 
L 399.948697 73.130498 
L 400.948697 73.16302 
L 401.948697 73.236645 
L 402.948697 73.27521 
L 403.948697 73.310623 
L 404.948697 73.368263 
L 405.948697 73.438649 
L 406.948697 73.490614 
L 407.948697 73.549703 
L 408.948697 73.638024 
L 409.948697 73.684169 
L 410.948697 73.72658 
L 411.948697 73.757072 
L 412.948697 73.783117 
L 413.948697 73.804317 
L 414.948697 73.858618 
L 415.948697 73.886556 
L 416.948697 73.91628 
L 417.948697 73.941675 
L 418.948697 73.952875 
L 419.948697 73.962999 
L 420.948697 73.962795 
L 421.948697 73.953285 
L 422.948697 73.941631 
L 423.948697 73.910602 
L 424.948697 73.899434 
L 425.948697 73.869317 
L 426.948697 73.80954 
L 427.948697 73.772348 
L 428.948697 73.733252 
L 429.948697 73.690812 
L 430.948697 73.658047 
L 431.948697 73.590621 
L 432.948697 73.551495 
L 433.948697 73.50882 
L 434.948697 73.43824 
L 435.948697 73.401849 
L 436.948697 73.343446 
L 437.948697 73.232493 
L 438.948697 73.161835 
L 439.948697 73.048895 
L 440.948697 73.003122 
L 441.948697 72.941839 
L 442.948697 72.89334 
L 443.948697 72.812517 
L 444.948697 72.693998 
L 445.948697 72.623787 
L 446.948697 72.540525 
L 447.948697 72.507383 
L 448.948697 72.456146 
L 449.948697 72.387747 
L 450.948697 72.321532 
L 451.948697 72.244615 
L 452.948697 72.217299 
L 453.948697 72.190822 
L 454.948697 72.168171 
L 455.948697 72.14864 
L 456.948697 72.122246 
L 457.948697 72.072475 
L 458.948697 72.037402 
L 459.948697 72.001536 
L 460.948697 71.986169 
L 461.948697 71.9704 
L 462.948697 71.966987 
L 463.948697 71.96457 
L 464.948697 71.965056 
L 465.948697 71.966985 
L 466.948697 71.980242 
L 467.948697 71.988633 
L 468.948697 72.010169 
L 469.948697 72.033202 
L 470.948697 72.050435 
L 471.948697 72.068898 
L 472.948697 72.08935 
L 473.948697 72.10595 
L 474.948697 72.168729 
L 475.948697 72.243994 
L 476.948697 72.276633 
L 477.948697 72.344197 
L 478.948697 72.398244 
L 479.948697 72.431948 
L 480.948697 72.522074 
L 481.948697 72.550609 
L 482.948697 72.582095 
L 483.948697 72.613106 
L 484.948697 72.667914 
L 485.948697 72.732501 
L 486.948697 72.770697 
L 487.948697 72.866631 
L 488.948697 72.915889 
L 489.948697 72.959958 
L 490.948697 73.000082 
L 491.948697 73.108449 
L 492.948697 73.150077 
L 493.948697 73.212219 
L 494.948697 73.282181 
L 495.948697 73.386685 
L 496.948697 73.423673 
L 497.948697 73.46955 
L 498.948697 73.538045 
L 499.948697 73.586791 
L 500.948697 73.664388 
L 501.948697 73.694929 
L 502.948697 73.764443 
L 503.948697 73.788416 
L 504.948697 73.817038 
L 505.948697 73.858831 
L 506.948697 73.880407 
L 507.948697 73.894355 
L 508.948697 73.921077 
L 509.948697 73.930387 
L 510.948697 73.942834 
L 511.948697 73.953889 
L 512.948697 73.959553 
L 513.948697 73.964317 
L 514.948697 73.958769 
L 515.948697 73.945481 
L 516.948697 73.937964 
L 517.948697 73.913179 
L 518.948697 73.88961 
L 519.948697 73.85343 
L 520.948697 73.827468 
L 521.948697 73.805146 
L 522.948697 73.736386 
L 523.948697 73.661851 
L 524.948697 73.567872 
L 525.948697 73.51682 
L 526.948697 73.462886 
L 527.948697 73.427635 
L 528.948697 73.321547 
L 529.948697 73.269283 
L 530.948697 73.232376 
L 531.948697 73.201345 
L 532.948697 73.14019 
L 533.948697 73.07277 
L 534.948697 73.023864 
L 535.948697 72.958672 
L 536.948697 72.920484 
L 537.948697 72.878488 
L 538.948697 72.836471 
L 540.418418 72.776955 
" clip-path="url(#p028df5afbe)" style="fill: none; stroke: #1f77b4; stroke-linecap: round"/>
         <path d="M 536.418418 70.964375 
L 537.298787 71.439706 
L 538.176694 71.91996 
L 539.027407 72.454601 
L 540.329581 73.142048 
L 539.402228 73.168063 
L 538.490554 73.580783 
L 537.58029 73.996322 
L 536.237794 74.603126 
L 536.892693 73.964375 
L 536.944657 72.964375 
L 537.003747 70.964375 
z
" clip-path="url(#p028df5afbe)" style="fill: #ffffff; stroke: #ffffff; stroke-width: 3; stroke-linecap: round"/>
         <path d="M 536.418418 70.964375 
L 537.298787 71.439706 
L 538.176694 71.91996 
L 539.027407 72.454601 
L 540.329581 73.142048 
L 539.402228 73.168063 
L 538.490554 73.580783 
L 537.58029 73.996322 
L 536.237794 74.603126 
L 536.892693 73.964375 
L 536.944657 72.964375 
L 537.003747 70.964375 
z
" clip-path="url(#p028df5afbe)" style="fill: #ffffff; stroke: #1f77b4; stroke-linecap: round"/>
         <g id="patch_9">
          <path d="M 210.567132 285.268954 
L 211.567132 285.300391 
L 212.567132 285.337331 
L 213.567132 285.435078 
L 214.567132 285.467599 
L 215.567132 285.541224 
L 216.567132 285.57979 
L 217.567132 285.615203 
L 218.567132 285.672843 
L 219.567132 285.743229 
L 220.567132 285.795193 
L 221.567132 285.854283 
L 222.567132 285.942604 
L 223.567132 285.988748 
L 224.567132 286.031159 
L 225.567132 286.061652 
L 226.567132 286.087697 
L 227.567132 286.108897 
L 228.567132 286.163198 
L 229.567132 286.191135 
L 230.567132 286.220859 
L 231.567132 286.246254 
L 232.567132 286.257455 
L 233.567132 286.267579 
L 234.567132 286.267374 
L 235.567132 286.257864 
L 236.567132 286.246211 
L 237.567132 286.215182 
L 238.567132 286.204014 
L 239.567132 286.173896 
L 240.567132 286.114119 
L 241.567132 286.076928 
L 242.567132 286.037832 
L 243.567132 285.995392 
L 244.567132 285.962627 
L 245.567132 285.8952 
L 246.567132 285.856074 
L 247.567132 285.8134 
L 248.567132 285.742819 
L 249.567132 285.706428 
L 250.567132 285.648025 
L 251.567132 285.537073 
L 252.567132 285.466414 
L 253.567132 285.353474 
L 254.567132 285.307702 
L 255.567132 285.246418 
L 256.567132 285.197919 
L 257.567132 285.117096 
L 258.567132 284.998577 
L 259.567132 284.928367 
L 260.567132 284.845104 
L 261.567132 284.811963 
L 262.567132 284.760725 
L 263.567132 284.692327 
L 264.567132 284.626111 
L 265.567132 284.549194 
L 266.567132 284.521879 
L 267.567132 284.495401 
L 268.567132 284.472751 
L 269.567132 284.453219 
L 270.567132 284.426825 
L 271.567132 284.377055 
L 272.567132 284.341982 
L 273.567132 284.306116 
L 274.567132 284.290749 
L 275.567132 284.274979 
L 276.567132 284.271567 
L 277.567132 284.269149 
L 278.567132 284.269635 
L 279.567132 284.271565 
L 280.567132 284.284822 
L 281.567132 284.293212 
L 282.567132 284.314749 
L 283.567132 284.337781 
L 284.567132 284.355015 
L 285.567132 284.373477 
L 286.567132 284.39393 
L 287.567132 284.41053 
L 288.567132 284.473308 
L 289.567132 284.548573 
L 290.567132 284.581213 
L 291.567132 284.648776 
L 292.567132 284.702823 
L 293.567132 284.736527 
L 294.567132 284.826653 
L 295.567132 284.855188 
L 296.567132 284.886675 
L 297.567132 284.917685 
L 298.567132 284.972493 
L 299.567132 285.037081 
L 300.567132 285.075276 
L 301.567132 285.17121 
L 302.567132 285.220468 
L 303.567132 285.264538 
L 304.567132 285.304661 
L 305.567132 285.413028 
L 306.567132 285.454657 
L 307.567132 285.516798 
L 308.567132 285.58676 
L 309.567132 285.691265 
L 310.567132 285.728252 
L 311.567132 285.77413 
L 312.567132 285.842624 
L 313.567132 285.89137 
L 314.567132 285.968968 
L 315.567132 285.999508 
L 316.567132 286.069023 
L 317.567132 286.092996 
L 318.567132 286.121617 
L 319.567132 286.16341 
L 320.567132 286.184986 
L 321.567132 286.198934 
L 322.567132 286.225657 
L 323.567132 286.234966 
L 324.567132 286.247413 
L 325.567132 286.258468 
L 326.567132 286.264133 
L 327.567132 286.268896 
L 328.567132 286.263349 
L 329.567132 286.250061 
L 330.567132 286.242543 
L 331.567132 286.217758 
L 332.567132 286.19419 
L 333.567132 286.158009 
L 334.567132 286.132047 
L 335.567132 286.109726 
L 336.567132 286.040966 
L 337.567132 285.966431 
L 338.567132 285.872451 
L 339.567132 285.821399 
L 340.567132 285.767465 
L 341.567132 285.732215 
L 342.567132 285.626127 
L 343.567132 285.573862 
L 344.567132 285.536956 
L 345.567132 285.505925 
L 346.567132 285.444769 
L 347.567132 285.377349 
L 348.567132 285.328443 
L 349.567132 285.263251 
L 350.567132 285.225064 
L 351.567132 285.183068 
L 352.567132 285.14105 
L 353.567132 285.081534 
L 354.567132 284.968374 
L 355.567132 284.916123 
L 356.567132 284.876706 
L 357.567132 284.829604 
L 358.567132 284.772825 
L 359.567132 284.740162 
L 360.567132 284.703984 
L 361.567132 284.671893 
L 362.567132 284.637613 
L 363.567132 284.579236 
L 364.567132 284.534051 
L 365.567132 284.504427 
L 366.567132 284.454041 
L 367.567132 284.428843 
L 368.567132 284.407792 
L 369.567132 284.372824 
L 370.567132 284.348534 
L 371.567132 284.334467 
L 372.567132 284.315526 
L 373.567132 284.299864 
L 374.567132 284.287312 
L 375.567132 284.281477 
L 376.567132 284.274594 
L 377.567132 284.26942 
L 378.567132 284.271203 
L 379.567132 284.273929 
L 380.567132 284.285082 
L 381.567132 284.313317 
L 382.567132 284.357105 
L 383.567132 284.377794 
L 384.567132 284.418768 
L 385.567132 284.458843 
L 386.567132 284.477953 
L 387.567132 284.500461 
L 388.567132 284.567113 
L 389.567132 284.616822 
L 390.567132 284.690529 
L 391.567132 284.721842 
L 392.567132 284.798465 
L 393.567132 284.836763 
L 394.567132 284.910879 
L 395.567132 285.014938 
L 396.567132 285.084768 
L 397.567132 285.190002 
L 398.567132 285.245017 
L 399.567132 285.368492 
L 400.567132 285.439051 
L 401.567132 285.554891 
L 402.567132 285.605071 
L 403.567132 285.640676 
L 404.567132 285.732082 
L 405.567132 285.78559 
L 406.567132 285.873498 
L 407.567132 285.942683 
L 408.567132 285.989448 
L 409.567132 286.061491 
L 410.567132 286.111633 
L 411.567132 286.129023 
L 412.567132 286.156027 
L 413.567132 286.175454 
L 414.567132 286.194792 
L 415.567132 286.23304 
L 416.567132 286.249474 
L 417.567132 286.257842 
L 418.567132 286.262161 
L 419.567132 286.268717 
L 420.567132 286.26617 
L 421.567132 286.260712 
L 422.567132 286.244283 
L 423.567132 286.212349 
L 424.567132 286.174368 
L 425.567132 286.139564 
L 426.567132 286.076493 
L 427.567132 286.055066 
L 428.567132 286.004448 
L 429.567132 285.97949 
L 430.567132 285.923857 
L 431.567132 285.892628 
L 432.567132 285.842484 
L 433.567132 285.809991 
L 434.567132 285.729578 
L 435.567132 285.660652 
L 436.581214 285.544955 
" clip-path="url(#p028df5afbe)" style="fill: none; stroke: #ffffff; stroke-width: 3; stroke-linecap: round"/>
          <path d="M 210.567132 285.268954 
L 211.567132 285.300391 
L 212.567132 285.337331 
L 213.567132 285.435078 
L 214.567132 285.467599 
L 215.567132 285.541224 
L 216.567132 285.57979 
L 217.567132 285.615203 
L 218.567132 285.672843 
L 219.567132 285.743229 
L 220.567132 285.795193 
L 221.567132 285.854283 
L 222.567132 285.942604 
L 223.567132 285.988748 
L 224.567132 286.031159 
L 225.567132 286.061652 
L 226.567132 286.087697 
L 227.567132 286.108897 
L 228.567132 286.163198 
L 229.567132 286.191135 
L 230.567132 286.220859 
L 231.567132 286.246254 
L 232.567132 286.257455 
L 233.567132 286.267579 
L 234.567132 286.267374 
L 235.567132 286.257864 
L 236.567132 286.246211 
L 237.567132 286.215182 
L 238.567132 286.204014 
L 239.567132 286.173896 
L 240.567132 286.114119 
L 241.567132 286.076928 
L 242.567132 286.037832 
L 243.567132 285.995392 
L 244.567132 285.962627 
L 245.567132 285.8952 
L 246.567132 285.856074 
L 247.567132 285.8134 
L 248.567132 285.742819 
L 249.567132 285.706428 
L 250.567132 285.648025 
L 251.567132 285.537073 
L 252.567132 285.466414 
L 253.567132 285.353474 
L 254.567132 285.307702 
L 255.567132 285.246418 
L 256.567132 285.197919 
L 257.567132 285.117096 
L 258.567132 284.998577 
L 259.567132 284.928367 
L 260.567132 284.845104 
L 261.567132 284.811963 
L 262.567132 284.760725 
L 263.567132 284.692327 
L 264.567132 284.626111 
L 265.567132 284.549194 
L 266.567132 284.521879 
L 267.567132 284.495401 
L 268.567132 284.472751 
L 269.567132 284.453219 
L 270.567132 284.426825 
L 271.567132 284.377055 
L 272.567132 284.341982 
L 273.567132 284.306116 
L 274.567132 284.290749 
L 275.567132 284.274979 
L 276.567132 284.271567 
L 277.567132 284.269149 
L 278.567132 284.269635 
L 279.567132 284.271565 
L 280.567132 284.284822 
L 281.567132 284.293212 
L 282.567132 284.314749 
L 283.567132 284.337781 
L 284.567132 284.355015 
L 285.567132 284.373477 
L 286.567132 284.39393 
L 287.567132 284.41053 
L 288.567132 284.473308 
L 289.567132 284.548573 
L 290.567132 284.581213 
L 291.567132 284.648776 
L 292.567132 284.702823 
L 293.567132 284.736527 
L 294.567132 284.826653 
L 295.567132 284.855188 
L 296.567132 284.886675 
L 297.567132 284.917685 
L 298.567132 284.972493 
L 299.567132 285.037081 
L 300.567132 285.075276 
L 301.567132 285.17121 
L 302.567132 285.220468 
L 303.567132 285.264538 
L 304.567132 285.304661 
L 305.567132 285.413028 
L 306.567132 285.454657 
L 307.567132 285.516798 
L 308.567132 285.58676 
L 309.567132 285.691265 
L 310.567132 285.728252 
L 311.567132 285.77413 
L 312.567132 285.842624 
L 313.567132 285.89137 
L 314.567132 285.968968 
L 315.567132 285.999508 
L 316.567132 286.069023 
L 317.567132 286.092996 
L 318.567132 286.121617 
L 319.567132 286.16341 
L 320.567132 286.184986 
L 321.567132 286.198934 
L 322.567132 286.225657 
L 323.567132 286.234966 
L 324.567132 286.247413 
L 325.567132 286.258468 
L 326.567132 286.264133 
L 327.567132 286.268896 
L 328.567132 286.263349 
L 329.567132 286.250061 
L 330.567132 286.242543 
L 331.567132 286.217758 
L 332.567132 286.19419 
L 333.567132 286.158009 
L 334.567132 286.132047 
L 335.567132 286.109726 
L 336.567132 286.040966 
L 337.567132 285.966431 
L 338.567132 285.872451 
L 339.567132 285.821399 
L 340.567132 285.767465 
L 341.567132 285.732215 
L 342.567132 285.626127 
L 343.567132 285.573862 
L 344.567132 285.536956 
L 345.567132 285.505925 
L 346.567132 285.444769 
L 347.567132 285.377349 
L 348.567132 285.328443 
L 349.567132 285.263251 
L 350.567132 285.225064 
L 351.567132 285.183068 
L 352.567132 285.14105 
L 353.567132 285.081534 
L 354.567132 284.968374 
L 355.567132 284.916123 
L 356.567132 284.876706 
L 357.567132 284.829604 
L 358.567132 284.772825 
L 359.567132 284.740162 
L 360.567132 284.703984 
L 361.567132 284.671893 
L 362.567132 284.637613 
L 363.567132 284.579236 
L 364.567132 284.534051 
L 365.567132 284.504427 
L 366.567132 284.454041 
L 367.567132 284.428843 
L 368.567132 284.407792 
L 369.567132 284.372824 
L 370.567132 284.348534 
L 371.567132 284.334467 
L 372.567132 284.315526 
L 373.567132 284.299864 
L 374.567132 284.287312 
L 375.567132 284.281477 
L 376.567132 284.274594 
L 377.567132 284.26942 
L 378.567132 284.271203 
L 379.567132 284.273929 
L 380.567132 284.285082 
L 381.567132 284.313317 
L 382.567132 284.357105 
L 383.567132 284.377794 
L 384.567132 284.418768 
L 385.567132 284.458843 
L 386.567132 284.477953 
L 387.567132 284.500461 
L 388.567132 284.567113 
L 389.567132 284.616822 
L 390.567132 284.690529 
L 391.567132 284.721842 
L 392.567132 284.798465 
L 393.567132 284.836763 
L 394.567132 284.910879 
L 395.567132 285.014938 
L 396.567132 285.084768 
L 397.567132 285.190002 
L 398.567132 285.245017 
L 399.567132 285.368492 
L 400.567132 285.439051 
L 401.567132 285.554891 
L 402.567132 285.605071 
L 403.567132 285.640676 
L 404.567132 285.732082 
L 405.567132 285.78559 
L 406.567132 285.873498 
L 407.567132 285.942683 
L 408.567132 285.989448 
L 409.567132 286.061491 
L 410.567132 286.111633 
L 411.567132 286.129023 
L 412.567132 286.156027 
L 413.567132 286.175454 
L 414.567132 286.194792 
L 415.567132 286.23304 
L 416.567132 286.249474 
L 417.567132 286.257842 
L 418.567132 286.262161 
L 419.567132 286.268717 
L 420.567132 286.26617 
L 421.567132 286.260712 
L 422.567132 286.244283 
L 423.567132 286.212349 
L 424.567132 286.174368 
L 425.567132 286.139564 
L 426.567132 286.076493 
L 427.567132 286.055066 
L 428.567132 286.004448 
L 429.567132 285.97949 
L 430.567132 285.923857 
L 431.567132 285.892628 
L 432.567132 285.842484 
L 433.567132 285.809991 
L 434.567132 285.729578 
L 435.567132 285.660652 
L 436.581214 285.544955 
" clip-path="url(#p028df5afbe)" style="fill: none; stroke: #ff7f0e; stroke-linecap: round"/>
          <path d="M 432.581214 283.268954 
L 433.461582 283.744286 
L 434.339489 284.22454 
L 435.190203 284.75918 
L 436.492377 285.446628 
L 435.565024 285.472643 
L 434.65335 285.885362 
L 433.743085 286.300901 
L 432.40059 286.907706 
L 433.055488 286.268954 
L 433.107453 285.268954 
L 433.166542 283.268954 
z
" clip-path="url(#p028df5afbe)" style="fill: #ffffff; stroke: #ffffff; stroke-width: 3; stroke-linecap: round"/>
          <path d="M 432.581214 283.268954 
L 433.461582 283.744286 
L 434.339489 284.22454 
L 435.190203 284.75918 
L 436.492377 285.446628 
L 435.565024 285.472643 
L 434.65335 285.885362 
L 433.743085 286.300901 
L 432.40059 286.907706 
L 433.055488 286.268954 
L 433.107453 285.268954 
L 433.166542 283.268954 
z
" clip-path="url(#p028df5afbe)" style="fill: #ffffff; stroke: #ff7f0e; stroke-linecap: round"/>
          <path d="M 452.231597 306.406934 
" clip-path="url(#p028df5afbe)" style="fill: none; stroke-dasharray: 3.7,1.6; stroke-dashoffset: 0; stroke: #2ca02c"/>
          <path d="M 451.231597 306.406934 
L 453.231597 307.406934 
L 453.231597 305.406934 
z
" clip-path="url(#p028df5afbe)" style="fill: #2ca02c; stroke: #2ca02c; stroke-linejoin: miter"/>
          <g id="patch_10">
           <path d="M 63.290625 321.621875 
L 63.290625 10.8 
" style="fill: none; stroke: #000000; stroke-width: 0.8; stroke-linejoin: miter; stroke-linecap: square"/>
          </g>
          <g id="text_11">
           <g id="patch_11">
            <path d="M 314.590512 125.462023 
L 335.895199 125.462023 
Q 337.895199 125.462023 337.895199 123.462023 
L 337.895199 113.783898 
Q 337.895199 111.783898 335.895199 111.783898 
L 314.590512 111.783898 
Q 312.590512 111.783898 312.590512 113.783898 
L 312.590512 123.462023 
Q 312.590512 125.462023 314.590512 125.462023 
z
" style="fill: #ffffff; opacity: 0.6"/>
           </g>
           <!-- ANC -->
           <g transform="translate(314.590512 121.382336) scale(0.1 -0.1)">
            <defs>
             <path id="DejaVuSans-4e" d="M 628 4666 
L 1478 4666 
L 3547 763 
L 3547 4666 
L 4159 4666 
L 4159 0 
L 3309 0 
L 1241 3903 
L 1241 0 
L 628 0 
L 628 4666 
z
" transform="scale(0.015625)"/>
            </defs>
            <use xlink:href="#DejaVuSans-41"/>
            <use xlink:href="#DejaVuSans-4e" x="68.408203"/>
            <use xlink:href="#DejaVuSans-43" x="143.212891"/>
           </g>
          </g>
         </g>
        </g>
        <defs>
         <clipPath id="p028df5afbe">
          <rect x="63.290625" y="10.8" width="540.309375" height="310.821875"/>
         </clipPath>
        </defs>
       </g>
      </g>
     </g>
    </g>
   </g>
  </g>
 </g>
</svg>
