<?xml version="1.0" encoding="utf-8" standalone="no"?>
<!DOCTYPE svg PUBLIC "-//W3C//DTD SVG 1.1//EN"
  "http://www.w3.org/Graphics/SVG/1.1/DTD/svg11.dtd">
<svg xmlns:xlink="http://www.w3.org/1999/xlink" width="614.4pt" height="345.6pt" viewBox="0 0 614.4 345.6" xmlns="http://www.w3.org/2000/svg" version="1.1">
 <metadata>
  <rdf:RDF xmlns:dc="http://purl.org/dc/elements/1.1/" xmlns:cc="http://creativecommons.org/ns#" xmlns:rdf="http://www.w3.org/1999/02/22-rdf-syntax-ns#">
   <cc:Work>
    <dc:type rdf:resource="http://purl.org/dc/dcmitype/StillImage"/>
    <dc:date>2024-04-17T19:48:53.401399</dc:date>
    <dc:format>image/svg+xml</dc:format>
    <dc:creator>
     <cc:Agent>
      <dc:title>Matplotlib v3.7.1, https://matplotlib.org/</dc:title>
     </cc:Agent>
    </dc:creator>
   </cc:Work>
  </rdf:RDF>
 </metadata>
 <defs>
  <style type="text/css">*{stroke-linejoin: round; stroke-linecap: butt}</style>
 </defs>
 <g id="figure_1">
  <g id="patch_1">
   <path d="M 0 345.6 
L 614.4 345.6 
L 614.4 0 
L 0 0 
z
" style="fill: #ffffff"/>
  </g>
  <g id="axes_1">
   <g id="patch_2">
    <path d="M 63.290625 321.621875 
L 603.6 321.621875 
L 603.6 10.8 
L 63.290625 10.8 
z
" style="fill: #ffffff"/>
   </g>
   <path d="M 531.687935 308.960404 
L 530.687935 308.928968 
L 529.687935 308.892027 
L 528.687935 308.794281 
L 527.687935 308.761759 
L 526.687935 308.688135 
L 525.687935 308.649569 
L 524.687935 308.614156 
L 523.687935 308.556516 
L 522.687935 308.48613 
L 521.687935 308.434166 
L 520.687935 308.375076 
L 519.687935 308.286755 
L 518.687935 308.240611 
L 517.687935 308.1982 
L 516.687935 308.167707 
L 515.687935 308.141662 
L 514.687935 308.120462 
L 513.687935 308.066161 
L 512.687935 308.038223 
L 511.687935 308.008499 
L 510.687935 307.983104 
L 509.687935 307.971904 
L 508.687935 307.96178 
L 507.687935 307.961984 
L 506.687935 307.971494 
L 505.687935 307.983148 
L 504.687935 308.014177 
L 503.687935 308.025345 
L 502.687935 308.055463 
L 501.687935 308.11524 
L 500.687935 308.152431 
L 499.687935 308.191527 
L 498.687935 308.233967 
L 497.687935 308.266732 
L 496.687935 308.334158 
L 495.687935 308.373284 
L 494.687935 308.415959 
L 493.687935 308.486539 
L 492.687935 308.52293 
L 491.687935 308.581333 
L 490.687935 308.692286 
L 489.687935 308.762944 
L 488.687935 308.875884 
L 487.687935 308.921657 
L 486.687935 308.98294 
L 485.687935 309.03144 
L 484.687935 309.112262 
L 483.687935 309.230781 
L 482.687935 309.300992 
L 481.687935 309.384254 
L 480.687935 309.417396 
L 479.687935 309.468633 
L 478.687935 309.537032 
L 477.687935 309.603247 
L 476.687935 309.680164 
L 475.687935 309.70748 
L 474.687935 309.733957 
L 473.687935 309.756608 
L 472.687935 309.776139 
L 471.687935 309.802533 
L 470.687935 309.852304 
L 469.687935 309.887377 
L 468.687935 309.923243 
L 467.687935 309.93861 
L 466.687935 309.954379 
L 465.687935 309.957792 
L 464.687935 309.96021 
L 463.687935 309.959723 
L 462.687935 309.957794 
L 461.373544 309.944537 
" clip-path="url(#p806ef080a8)" style="fill: none; stroke-dasharray: 3.7,1.6; stroke-dashoffset: 0; stroke: #2ca02c"/>
   <g id="patch_3">
    <path d="M 278.333728 10.8 
L 278.333728 229.565177 
M 377.998476 10.8 
L 377.998476 229.565177 
" clip-path="url(#p806ef080a8)" style="fill: none; stroke: #ffffff; stroke-width: 3; stroke-linejoin: miter"/>
    <path d="M 278.333728 10.8 
L 278.333728 229.565177 
M 377.998476 10.8 
L 377.998476 229.565177 
" clip-path="url(#p806ef080a8)" style="fill: none; stroke: #1f77b4; stroke-linejoin: miter"/>
    <g id="PolyCollection_1">
     <path d="M 377.998476 10.8 
L 278.333728 10.8 
L 278.333728 229.565177 
L 377.998476 229.565177 
L 377.998476 229.565177 
L 377.998476 10.8 
z
" clip-path="url(#p806ef080a8)" style="fill: #1f77b4; fill-opacity: 0.5"/>
    </g>
    <g id="patch_4">
     <path d="M 87.850142 229.565177 
L 87.850142 321.621875 
M 223.632581 229.565177 
L 223.632581 321.621875 
" clip-path="url(#p806ef080a8)" style="fill: none; stroke: #ffffff; stroke-width: 3; stroke-linejoin: miter"/>
     <path d="M 87.850142 229.565177 
L 87.850142 321.621875 
M 223.632581 229.565177 
L 223.632581 321.621875 
" clip-path="url(#p806ef080a8)" style="fill: none; stroke: #ff7f0e; stroke-linejoin: miter"/>
     <g id="PolyCollection_2">
      <path d="M 223.632581 229.565177 
L 87.850142 229.565177 
L 87.850142 321.621875 
L 223.632581 321.621875 
L 223.632581 321.621875 
L 223.632581 229.565177 
z
" clip-path="url(#p806ef080a8)" style="fill: #ff7f0e; fill-opacity: 0.5"/>
     </g>
     <g id="patch_5">
      <path d="M 537.091029 72.964375 
L 537.091029 321.621875 
M 579.040483 72.964375 
L 579.040483 321.621875 
" clip-path="url(#p806ef080a8)" style="fill: none; stroke: #ffffff; stroke-width: 3; stroke-linejoin: miter"/>
      <path d="M 537.091029 72.964375 
L 537.091029 321.621875 
M 579.040483 72.964375 
L 579.040483 321.621875 
" clip-path="url(#p806ef080a8)" style="fill: none; stroke: #2ca02c; stroke-linejoin: miter"/>
      <g id="PolyCollection_3">
       <path d="M 579.040483 72.964375 
L 537.091029 72.964375 
L 537.091029 321.621875 
L 579.040483 321.621875 
L 579.040483 321.621875 
L 579.040483 72.964375 
z
" clip-path="url(#p806ef080a8)" style="fill: #2ca02c; fill-opacity: 0.5"/>
      </g>
      <g id="patch_6">
       <path d="M 430.261408 255.536904 
L 430.261408 321.621875 
M 455.97045 255.536904 
L 455.97045 321.621875 
" clip-path="url(#p806ef080a8)" style="fill: none; stroke: #ffffff; stroke-width: 3; stroke-linejoin: miter"/>
       <path d="M 430.261408 255.536904 
L 430.261408 321.621875 
M 455.97045 255.536904 
L 455.97045 321.621875 
" clip-path="url(#p806ef080a8)" style="fill: none; stroke: #d62728; stroke-linejoin: miter"/>
       <g id="PolyCollection_4">
        <path d="M 455.97045 255.536904 
L 430.261408 255.536904 
L 430.261408 321.621875 
L 455.97045 321.621875 
L 455.97045 321.621875 
L 455.97045 255.536904 
z
" clip-path="url(#p806ef080a8)" style="fill: #d62728; fill-opacity: 0.5"/>
       </g>
       <g id="matplotlib.axis_1">
        <g id="xtick_1">
         <g id="line2d_1"/>
         <g id="text_1">
          <!-- OUT -->
          <g transform="translate(145.092143 332.720312) scale(0.1 -0.1)">
           <defs>
            <path id="DejaVuSans-4f" d="M 2522 4238 
Q 1834 4238 1429 3725 
Q 1025 3213 1025 2328 
Q 1025 1447 1429 934 
Q 1834 422 2522 422 
Q 3209 422 3611 934 
Q 4013 1447 4013 2328 
Q 4013 3213 3611 3725 
Q 3209 4238 2522 4238 
z
M 2522 4750 
Q 3503 4750 4090 4092 
Q 4678 3434 4678 2328 
Q 4678 1225 4090 567 
Q 3503 -91 2522 -91 
Q 1538 -91 948 565 
Q 359 1222 359 2328 
Q 359 3434 948 4092 
Q 1538 4750 2522 4750 
z
" transform="scale(0.015625)"/>
            <path id="DejaVuSans-55" d="M 556 4666 
L 1191 4666 
L 1191 1831 
Q 1191 1081 1462 751 
Q 1734 422 2344 422 
Q 2950 422 3222 751 
Q 3494 1081 3494 1831 
L 3494 4666 
L 4128 4666 
L 4128 1753 
Q 4128 841 3676 375 
Q 3225 -91 2344 -91 
Q 1459 -91 1007 375 
Q 556 841 556 1753 
L 556 4666 
z
" transform="scale(0.015625)"/>
            <path id="DejaVuSans-54" d="M -19 4666 
L 3928 4666 
L 3928 4134 
L 2272 4134 
L 2272 0 
L 1638 0 
L 1638 4134 
L -19 4134 
L -19 4666 
z
" transform="scale(0.015625)"/>
           </defs>
           <use xlink:href="#DejaVuSans-4f"/>
           <use xlink:href="#DejaVuSans-55" x="78.710938"/>
           <use xlink:href="#DejaVuSans-54" x="151.904297"/>
          </g>
         </g>
        </g>
        <g id="xtick_2">
         <g id="line2d_2"/>
         <g id="text_2">
          <!-- SRC -->
          <g transform="translate(548.175912 332.720312) scale(0.1 -0.1)">
           <defs>
            <path id="DejaVuSans-53" d="M 3425 4513 
L 3425 3897 
Q 3066 4069 2747 4153 
Q 2428 4238 2131 4238 
Q 1616 4238 1336 4038 
Q 1056 3838 1056 3469 
Q 1056 3159 1242 3001 
Q 1428 2844 1947 2747 
L 2328 2669 
Q 3034 2534 3370 2195 
Q 3706 1856 3706 1288 
Q 3706 609 3251 259 
Q 2797 -91 1919 -91 
Q 1588 -91 1214 -16 
Q 841 59 441 206 
L 441 856 
Q 825 641 1194 531 
Q 1563 422 1919 422 
Q 2459 422 2753 634 
Q 3047 847 3047 1241 
Q 3047 1584 2836 1778 
Q 2625 1972 2144 2069 
L 1759 2144 
Q 1053 2284 737 2584 
Q 422 2884 422 3419 
Q 422 4038 858 4394 
Q 1294 4750 2059 4750 
Q 2388 4750 2728 4690 
Q 3069 4631 3425 4513 
z
" transform="scale(0.015625)"/>
            <path id="DejaVuSans-52" d="M 2841 2188 
Q 3044 2119 3236 1894 
Q 3428 1669 3622 1275 
L 4263 0 
L 3584 0 
L 2988 1197 
Q 2756 1666 2539 1819 
Q 2322 1972 1947 1972 
L 1259 1972 
L 1259 0 
L 628 0 
L 628 4666 
L 2053 4666 
Q 2853 4666 3247 4331 
Q 3641 3997 3641 3322 
Q 3641 2881 3436 2590 
Q 3231 2300 2841 2188 
z
M 1259 4147 
L 1259 2491 
L 2053 2491 
Q 2509 2491 2742 2702 
Q 2975 2913 2975 3322 
Q 2975 3731 2742 3939 
Q 2509 4147 2053 4147 
L 1259 4147 
z
" transform="scale(0.015625)"/>
            <path id="DejaVuSans-43" d="M 4122 4306 
L 4122 3641 
Q 3803 3938 3442 4084 
Q 3081 4231 2675 4231 
Q 1875 4231 1450 3742 
Q 1025 3253 1025 2328 
Q 1025 1406 1450 917 
Q 1875 428 2675 428 
Q 3081 428 3442 575 
Q 3803 722 4122 1019 
L 4122 359 
Q 3791 134 3420 21 
Q 3050 -91 2638 -91 
Q 1578 -91 968 557 
Q 359 1206 359 2328 
Q 359 3453 968 4101 
Q 1578 4750 2638 4750 
Q 3056 4750 3426 4639 
Q 3797 4528 4122 4306 
z
" transform="scale(0.015625)"/>
           </defs>
           <use xlink:href="#DejaVuSans-53"/>
           <use xlink:href="#DejaVuSans-52" x="63.476562"/>
           <use xlink:href="#DejaVuSans-43" x="127.958984"/>
          </g>
         </g>
        </g>
        <g id="xtick_3">
         <g id="line2d_3"/>
         <g id="text_3">
          <!-- TAR -->
          <g transform="translate(433.554991 332.720312) scale(0.1 -0.1)">
           <defs>
            <path id="DejaVuSans-41" d="M 2188 4044 
L 1331 1722 
L 3047 1722 
L 2188 4044 
z
M 1831 4666 
L 2547 4666 
L 4325 0 
L 3669 0 
L 3244 1197 
L 1141 1197 
L 716 0 
L 50 0 
L 1831 4666 
z
" transform="scale(0.015625)"/>
           </defs>
           <use xlink:href="#DejaVuSans-54"/>
           <use xlink:href="#DejaVuSans-41" x="53.333984"/>
           <use xlink:href="#DejaVuSans-52" x="121.742188"/>
          </g>
         </g>
        </g>
       </g>
       <g id="matplotlib.axis_2">
        <g id="ytick_1">
         <g id="line2d_4">
          <defs>
           <path id="mee78fb8477" d="M 0 0 
L -3.5 0 
" style="stroke: #000000; stroke-width: 0.8"/>
          </defs>
          <g>
           <use xlink:href="#mee78fb8477" x="63.290625" y="321.621875" style="stroke: #000000; stroke-width: 0.8"/>
          </g>
         </g>
         <g id="text_4">
          <!-- 0 -->
          <g transform="translate(49.928125 325.421094) scale(0.1 -0.1)">
           <defs>
            <path id="DejaVuSans-30" d="M 2034 4250 
Q 1547 4250 1301 3770 
Q 1056 3291 1056 2328 
Q 1056 1369 1301 889 
Q 1547 409 2034 409 
Q 2525 409 2770 889 
Q 3016 1369 3016 2328 
Q 3016 3291 2770 3770 
Q 2525 4250 2034 4250 
z
M 2034 4750 
Q 2819 4750 3233 4129 
Q 3647 3509 3647 2328 
Q 3647 1150 3233 529 
Q 2819 -91 2034 -91 
Q 1250 -91 836 529 
Q 422 1150 422 2328 
Q 422 3509 836 4129 
Q 1250 4750 2034 4750 
z
" transform="scale(0.015625)"/>
           </defs>
           <use xlink:href="#DejaVuSans-30"/>
          </g>
         </g>
        </g>
        <g id="ytick_2">
         <g id="line2d_5">
          <g>
           <use xlink:href="#mee78fb8477" x="63.290625" y="270.935443" style="stroke: #000000; stroke-width: 0.8"/>
          </g>
         </g>
         <g id="text_5">
          <!-- 5000 -->
          <g transform="translate(30.840625 274.734661) scale(0.1 -0.1)">
           <defs>
            <path id="DejaVuSans-35" d="M 691 4666 
L 3169 4666 
L 3169 4134 
L 1269 4134 
L 1269 2991 
Q 1406 3038 1543 3061 
Q 1681 3084 1819 3084 
Q 2600 3084 3056 2656 
Q 3513 2228 3513 1497 
Q 3513 744 3044 326 
Q 2575 -91 1722 -91 
Q 1428 -91 1123 -41 
Q 819 9 494 109 
L 494 744 
Q 775 591 1075 516 
Q 1375 441 1709 441 
Q 2250 441 2565 725 
Q 2881 1009 2881 1497 
Q 2881 1984 2565 2268 
Q 2250 2553 1709 2553 
Q 1456 2553 1204 2497 
Q 953 2441 691 2322 
L 691 4666 
z
" transform="scale(0.015625)"/>
           </defs>
           <use xlink:href="#DejaVuSans-35"/>
           <use xlink:href="#DejaVuSans-30" x="63.623047"/>
           <use xlink:href="#DejaVuSans-30" x="127.246094"/>
           <use xlink:href="#DejaVuSans-30" x="190.869141"/>
          </g>
         </g>
        </g>
        <g id="ytick_3">
         <g id="line2d_6">
          <g>
           <use xlink:href="#mee78fb8477" x="63.290625" y="220.24901" style="stroke: #000000; stroke-width: 0.8"/>
          </g>
         </g>
         <g id="text_6">
          <!-- 10000 -->
          <g transform="translate(24.478125 224.048229) scale(0.1 -0.1)">
           <defs>
            <path id="DejaVuSans-31" d="M 794 531 
L 1825 531 
L 1825 4091 
L 703 3866 
L 703 4441 
L 1819 4666 
L 2450 4666 
L 2450 531 
L 3481 531 
L 3481 0 
L 794 0 
L 794 531 
z
" transform="scale(0.015625)"/>
           </defs>
           <use xlink:href="#DejaVuSans-31"/>
           <use xlink:href="#DejaVuSans-30" x="63.623047"/>
           <use xlink:href="#DejaVuSans-30" x="127.246094"/>
           <use xlink:href="#DejaVuSans-30" x="190.869141"/>
           <use xlink:href="#DejaVuSans-30" x="254.492188"/>
          </g>
         </g>
        </g>
        <g id="ytick_4">
         <g id="line2d_7">
          <g>
           <use xlink:href="#mee78fb8477" x="63.290625" y="169.562578" style="stroke: #000000; stroke-width: 0.8"/>
          </g>
         </g>
         <g id="text_7">
          <!-- 15000 -->
          <g transform="translate(24.478125 173.361797) scale(0.1 -0.1)">
           <use xlink:href="#DejaVuSans-31"/>
           <use xlink:href="#DejaVuSans-35" x="63.623047"/>
           <use xlink:href="#DejaVuSans-30" x="127.246094"/>
           <use xlink:href="#DejaVuSans-30" x="190.869141"/>
           <use xlink:href="#DejaVuSans-30" x="254.492188"/>
          </g>
         </g>
        </g>
        <g id="ytick_5">
         <g id="line2d_8">
          <g>
           <use xlink:href="#mee78fb8477" x="63.290625" y="118.876145" style="stroke: #000000; stroke-width: 0.8"/>
          </g>
         </g>
         <g id="text_8">
          <!-- 20000 -->
          <g transform="translate(24.478125 122.675364) scale(0.1 -0.1)">
           <defs>
            <path id="DejaVuSans-32" d="M 1228 531 
L 3431 531 
L 3431 0 
L 469 0 
L 469 531 
Q 828 903 1448 1529 
Q 2069 2156 2228 2338 
Q 2531 2678 2651 2914 
Q 2772 3150 2772 3378 
Q 2772 3750 2511 3984 
Q 2250 4219 1831 4219 
Q 1534 4219 1204 4116 
Q 875 4013 500 3803 
L 500 4441 
Q 881 4594 1212 4672 
Q 1544 4750 1819 4750 
Q 2544 4750 2975 4387 
Q 3406 4025 3406 3419 
Q 3406 3131 3298 2873 
Q 3191 2616 2906 2266 
Q 2828 2175 2409 1742 
Q 1991 1309 1228 531 
z
" transform="scale(0.015625)"/>
           </defs>
           <use xlink:href="#DejaVuSans-32"/>
           <use xlink:href="#DejaVuSans-30" x="63.623047"/>
           <use xlink:href="#DejaVuSans-30" x="127.246094"/>
           <use xlink:href="#DejaVuSans-30" x="190.869141"/>
           <use xlink:href="#DejaVuSans-30" x="254.492188"/>
          </g>
         </g>
        </g>
        <g id="ytick_6">
         <g id="line2d_9">
          <g>
           <use xlink:href="#mee78fb8477" x="63.290625" y="68.189713" style="stroke: #000000; stroke-width: 0.8"/>
          </g>
         </g>
         <g id="text_9">
          <!-- 25000 -->
          <g transform="translate(24.478125 71.988932) scale(0.1 -0.1)">
           <use xlink:href="#DejaVuSans-32"/>
           <use xlink:href="#DejaVuSans-35" x="63.623047"/>
           <use xlink:href="#DejaVuSans-30" x="127.246094"/>
           <use xlink:href="#DejaVuSans-30" x="190.869141"/>
           <use xlink:href="#DejaVuSans-30" x="254.492188"/>
          </g>
         </g>
        </g>
        <g id="ytick_7">
         <g id="line2d_10">
          <g>
           <use xlink:href="#mee78fb8477" x="63.290625" y="17.503281" style="stroke: #000000; stroke-width: 0.8"/>
          </g>
         </g>
         <g id="text_10">
          <!-- 30000 -->
          <g transform="translate(24.478125 21.302499) scale(0.1 -0.1)">
           <defs>
            <path id="DejaVuSans-33" d="M 2597 2516 
Q 3050 2419 3304 2112 
Q 3559 1806 3559 1356 
Q 3559 666 3084 287 
Q 2609 -91 1734 -91 
Q 1441 -91 1130 -33 
Q 819 25 488 141 
L 488 750 
Q 750 597 1062 519 
Q 1375 441 1716 441 
Q 2309 441 2620 675 
Q 2931 909 2931 1356 
Q 2931 1769 2642 2001 
Q 2353 2234 1838 2234 
L 1294 2234 
L 1294 2753 
L 1863 2753 
Q 2328 2753 2575 2939 
Q 2822 3125 2822 3475 
Q 2822 3834 2567 4026 
Q 2313 4219 1838 4219 
Q 1578 4219 1281 4162 
Q 984 4106 628 3988 
L 628 4550 
Q 988 4650 1302 4700 
Q 1616 4750 1894 4750 
Q 2613 4750 3031 4423 
Q 3450 4097 3450 3541 
Q 3450 3153 3228 2886 
Q 3006 2619 2597 2516 
z
" transform="scale(0.015625)"/>
           </defs>
           <use xlink:href="#DejaVuSans-33"/>
           <use xlink:href="#DejaVuSans-30" x="63.623047"/>
           <use xlink:href="#DejaVuSans-30" x="127.246094"/>
           <use xlink:href="#DejaVuSans-30" x="190.869141"/>
           <use xlink:href="#DejaVuSans-30" x="254.492188"/>
          </g>
         </g>
        </g>
        <g id="text_11">
         <!-- time ago (generations) -->
         <g transform="translate(18.398438 223.682031) rotate(-90) scale(0.1 -0.1)">
          <defs>
           <path id="DejaVuSans-74" d="M 1172 4494 
L 1172 3500 
L 2356 3500 
L 2356 3053 
L 1172 3053 
L 1172 1153 
Q 1172 725 1289 603 
Q 1406 481 1766 481 
L 2356 481 
L 2356 0 
L 1766 0 
Q 1100 0 847 248 
Q 594 497 594 1153 
L 594 3053 
L 172 3053 
L 172 3500 
L 594 3500 
L 594 4494 
L 1172 4494 
z
" transform="scale(0.015625)"/>
           <path id="DejaVuSans-69" d="M 603 3500 
L 1178 3500 
L 1178 0 
L 603 0 
L 603 3500 
z
M 603 4863 
L 1178 4863 
L 1178 4134 
L 603 4134 
L 603 4863 
z
" transform="scale(0.015625)"/>
           <path id="DejaVuSans-6d" d="M 3328 2828 
Q 3544 3216 3844 3400 
Q 4144 3584 4550 3584 
Q 5097 3584 5394 3201 
Q 5691 2819 5691 2113 
L 5691 0 
L 5113 0 
L 5113 2094 
Q 5113 2597 4934 2840 
Q 4756 3084 4391 3084 
Q 3944 3084 3684 2787 
Q 3425 2491 3425 1978 
L 3425 0 
L 2847 0 
L 2847 2094 
Q 2847 2600 2669 2842 
Q 2491 3084 2119 3084 
Q 1678 3084 1418 2786 
Q 1159 2488 1159 1978 
L 1159 0 
L 581 0 
L 581 3500 
L 1159 3500 
L 1159 2956 
Q 1356 3278 1631 3431 
Q 1906 3584 2284 3584 
Q 2666 3584 2933 3390 
Q 3200 3197 3328 2828 
z
" transform="scale(0.015625)"/>
           <path id="DejaVuSans-65" d="M 3597 1894 
L 3597 1613 
L 953 1613 
Q 991 1019 1311 708 
Q 1631 397 2203 397 
Q 2534 397 2845 478 
Q 3156 559 3463 722 
L 3463 178 
Q 3153 47 2828 -22 
Q 2503 -91 2169 -91 
Q 1331 -91 842 396 
Q 353 884 353 1716 
Q 353 2575 817 3079 
Q 1281 3584 2069 3584 
Q 2775 3584 3186 3129 
Q 3597 2675 3597 1894 
z
M 3022 2063 
Q 3016 2534 2758 2815 
Q 2500 3097 2075 3097 
Q 1594 3097 1305 2825 
Q 1016 2553 972 2059 
L 3022 2063 
z
" transform="scale(0.015625)"/>
           <path id="DejaVuSans-20" transform="scale(0.015625)"/>
           <path id="DejaVuSans-61" d="M 2194 1759 
Q 1497 1759 1228 1600 
Q 959 1441 959 1056 
Q 959 750 1161 570 
Q 1363 391 1709 391 
Q 2188 391 2477 730 
Q 2766 1069 2766 1631 
L 2766 1759 
L 2194 1759 
z
M 3341 1997 
L 3341 0 
L 2766 0 
L 2766 531 
Q 2569 213 2275 61 
Q 1981 -91 1556 -91 
Q 1019 -91 701 211 
Q 384 513 384 1019 
Q 384 1609 779 1909 
Q 1175 2209 1959 2209 
L 2766 2209 
L 2766 2266 
Q 2766 2663 2505 2880 
Q 2244 3097 1772 3097 
Q 1472 3097 1187 3025 
Q 903 2953 641 2809 
L 641 3341 
Q 956 3463 1253 3523 
Q 1550 3584 1831 3584 
Q 2591 3584 2966 3190 
Q 3341 2797 3341 1997 
z
" transform="scale(0.015625)"/>
           <path id="DejaVuSans-67" d="M 2906 1791 
Q 2906 2416 2648 2759 
Q 2391 3103 1925 3103 
Q 1463 3103 1205 2759 
Q 947 2416 947 1791 
Q 947 1169 1205 825 
Q 1463 481 1925 481 
Q 2391 481 2648 825 
Q 2906 1169 2906 1791 
z
M 3481 434 
Q 3481 -459 3084 -895 
Q 2688 -1331 1869 -1331 
Q 1566 -1331 1297 -1286 
Q 1028 -1241 775 -1147 
L 775 -588 
Q 1028 -725 1275 -790 
Q 1522 -856 1778 -856 
Q 2344 -856 2625 -561 
Q 2906 -266 2906 331 
L 2906 616 
Q 2728 306 2450 153 
Q 2172 0 1784 0 
Q 1141 0 747 490 
Q 353 981 353 1791 
Q 353 2603 747 3093 
Q 1141 3584 1784 3584 
Q 2172 3584 2450 3431 
Q 2728 3278 2906 2969 
L 2906 3500 
L 3481 3500 
L 3481 434 
z
" transform="scale(0.015625)"/>
           <path id="DejaVuSans-6f" d="M 1959 3097 
Q 1497 3097 1228 2736 
Q 959 2375 959 1747 
Q 959 1119 1226 758 
Q 1494 397 1959 397 
Q 2419 397 2687 759 
Q 2956 1122 2956 1747 
Q 2956 2369 2687 2733 
Q 2419 3097 1959 3097 
z
M 1959 3584 
Q 2709 3584 3137 3096 
Q 3566 2609 3566 1747 
Q 3566 888 3137 398 
Q 2709 -91 1959 -91 
Q 1206 -91 779 398 
Q 353 888 353 1747 
Q 353 2609 779 3096 
Q 1206 3584 1959 3584 
z
" transform="scale(0.015625)"/>
           <path id="DejaVuSans-28" d="M 1984 4856 
Q 1566 4138 1362 3434 
Q 1159 2731 1159 2009 
Q 1159 1288 1364 580 
Q 1569 -128 1984 -844 
L 1484 -844 
Q 1016 -109 783 600 
Q 550 1309 550 2009 
Q 550 2706 781 3412 
Q 1013 4119 1484 4856 
L 1984 4856 
z
" transform="scale(0.015625)"/>
           <path id="DejaVuSans-6e" d="M 3513 2113 
L 3513 0 
L 2938 0 
L 2938 2094 
Q 2938 2591 2744 2837 
Q 2550 3084 2163 3084 
Q 1697 3084 1428 2787 
Q 1159 2491 1159 1978 
L 1159 0 
L 581 0 
L 581 3500 
L 1159 3500 
L 1159 2956 
Q 1366 3272 1645 3428 
Q 1925 3584 2291 3584 
Q 2894 3584 3203 3211 
Q 3513 2838 3513 2113 
z
" transform="scale(0.015625)"/>
           <path id="DejaVuSans-72" d="M 2631 2963 
Q 2534 3019 2420 3045 
Q 2306 3072 2169 3072 
Q 1681 3072 1420 2755 
Q 1159 2438 1159 1844 
L 1159 0 
L 581 0 
L 581 3500 
L 1159 3500 
L 1159 2956 
Q 1341 3275 1631 3429 
Q 1922 3584 2338 3584 
Q 2397 3584 2469 3576 
Q 2541 3569 2628 3553 
L 2631 2963 
z
" transform="scale(0.015625)"/>
           <path id="DejaVuSans-73" d="M 2834 3397 
L 2834 2853 
Q 2591 2978 2328 3040 
Q 2066 3103 1784 3103 
Q 1356 3103 1142 2972 
Q 928 2841 928 2578 
Q 928 2378 1081 2264 
Q 1234 2150 1697 2047 
L 1894 2003 
Q 2506 1872 2764 1633 
Q 3022 1394 3022 966 
Q 3022 478 2636 193 
Q 2250 -91 1575 -91 
Q 1294 -91 989 -36 
Q 684 19 347 128 
L 347 722 
Q 666 556 975 473 
Q 1284 391 1588 391 
Q 1994 391 2212 530 
Q 2431 669 2431 922 
Q 2431 1156 2273 1281 
Q 2116 1406 1581 1522 
L 1381 1569 
Q 847 1681 609 1914 
Q 372 2147 372 2553 
Q 372 3047 722 3315 
Q 1072 3584 1716 3584 
Q 2034 3584 2315 3537 
Q 2597 3491 2834 3397 
z
" transform="scale(0.015625)"/>
           <path id="DejaVuSans-29" d="M 513 4856 
L 1013 4856 
Q 1481 4119 1714 3412 
Q 1947 2706 1947 2009 
Q 1947 1309 1714 600 
Q 1481 -109 1013 -844 
L 513 -844 
Q 928 -128 1133 580 
Q 1338 1288 1338 2009 
Q 1338 2731 1133 3434 
Q 928 4138 513 4856 
z
" transform="scale(0.015625)"/>
          </defs>
          <use xlink:href="#DejaVuSans-74"/>
          <use xlink:href="#DejaVuSans-69" x="39.208984"/>
          <use xlink:href="#DejaVuSans-6d" x="66.992188"/>
          <use xlink:href="#DejaVuSans-65" x="164.404297"/>
          <use xlink:href="#DejaVuSans-20" x="225.927734"/>
          <use xlink:href="#DejaVuSans-61" x="257.714844"/>
          <use xlink:href="#DejaVuSans-67" x="318.994141"/>
          <use xlink:href="#DejaVuSans-6f" x="382.470703"/>
          <use xlink:href="#DejaVuSans-20" x="443.652344"/>
          <use xlink:href="#DejaVuSans-28" x="475.439453"/>
          <use xlink:href="#DejaVuSans-67" x="514.453125"/>
          <use xlink:href="#DejaVuSans-65" x="577.929688"/>
          <use xlink:href="#DejaVuSans-6e" x="639.453125"/>
          <use xlink:href="#DejaVuSans-65" x="702.832031"/>
          <use xlink:href="#DejaVuSans-72" x="764.355469"/>
          <use xlink:href="#DejaVuSans-61" x="805.46875"/>
          <use xlink:href="#DejaVuSans-74" x="866.748047"/>
          <use xlink:href="#DejaVuSans-69" x="905.957031"/>
          <use xlink:href="#DejaVuSans-6f" x="933.740234"/>
          <use xlink:href="#DejaVuSans-6e" x="994.921875"/>
          <use xlink:href="#DejaVuSans-73" x="1058.300781"/>
          <use xlink:href="#DejaVuSans-29" x="1110.400391"/>
         </g>
        </g>
       </g>
       <g id="patch_7">
        <path d="M 276.333851 229.565177 
L 275.333851 229.53374 
L 274.333851 229.4968 
L 273.333851 229.399053 
L 272.333851 229.366532 
L 271.333851 229.292907 
L 270.333851 229.254341 
L 269.333851 229.218928 
L 268.333851 229.161288 
L 267.333851 229.090902 
L 266.333851 229.038938 
L 265.333851 228.979848 
L 264.333851 228.891527 
L 263.333851 228.845383 
L 262.333851 228.802972 
L 261.333851 228.772479 
L 260.333851 228.746434 
L 259.333851 228.725234 
L 258.333851 228.670933 
L 257.333851 228.642995 
L 256.333851 228.613272 
L 255.333851 228.587877 
L 254.333851 228.576676 
L 253.333851 228.566552 
L 252.333851 228.566757 
L 251.333851 228.576267 
L 250.333851 228.58792 
L 249.333851 228.618949 
L 248.333851 228.630117 
L 247.333851 228.660235 
L 246.333851 228.720012 
L 245.333851 228.757203 
L 244.333851 228.796299 
L 243.333851 228.838739 
L 242.333851 228.871504 
L 241.333851 228.938931 
L 240.333851 228.978057 
L 239.333851 229.020731 
L 238.333851 229.091312 
L 237.333851 229.127703 
L 236.333851 229.186106 
L 235.333851 229.297058 
L 234.333851 229.367717 
L 233.333851 229.480656 
L 232.333851 229.526429 
L 231.333851 229.587713 
L 230.333851 229.636212 
L 229.333851 229.717035 
L 228.333851 229.835554 
L 226.748142 229.905764 
" clip-path="url(#p806ef080a8)" style="fill: none; stroke: #ffffff; stroke-width: 3; stroke-linecap: round"/>
        <path d="M 276.333851 229.565177 
L 275.333851 229.53374 
L 274.333851 229.4968 
L 273.333851 229.399053 
L 272.333851 229.366532 
L 271.333851 229.292907 
L 270.333851 229.254341 
L 269.333851 229.218928 
L 268.333851 229.161288 
L 267.333851 229.090902 
L 266.333851 229.038938 
L 265.333851 228.979848 
L 264.333851 228.891527 
L 263.333851 228.845383 
L 262.333851 228.802972 
L 261.333851 228.772479 
L 260.333851 228.746434 
L 259.333851 228.725234 
L 258.333851 228.670933 
L 257.333851 228.642995 
L 256.333851 228.613272 
L 255.333851 228.587877 
L 254.333851 228.576676 
L 253.333851 228.566552 
L 252.333851 228.566757 
L 251.333851 228.576267 
L 250.333851 228.58792 
L 249.333851 228.618949 
L 248.333851 228.630117 
L 247.333851 228.660235 
L 246.333851 228.720012 
L 245.333851 228.757203 
L 244.333851 228.796299 
L 243.333851 228.838739 
L 242.333851 228.871504 
L 241.333851 228.938931 
L 240.333851 228.978057 
L 239.333851 229.020731 
L 238.333851 229.091312 
L 237.333851 229.127703 
L 236.333851 229.186106 
L 235.333851 229.297058 
L 234.333851 229.367717 
L 233.333851 229.480656 
L 232.333851 229.526429 
L 231.333851 229.587713 
L 230.333851 229.636212 
L 229.333851 229.717035 
L 228.333851 229.835554 
L 226.748142 229.905764 
" clip-path="url(#p806ef080a8)" style="fill: none; stroke: #1f77b4; stroke-linecap: round"/>
        <path d="M 230.748142 231.565177 
L 229.867774 231.089845 
L 228.989867 230.609591 
L 228.139153 230.07495 
L 226.836979 229.387503 
L 227.764332 229.361488 
L 228.676007 228.948769 
L 229.586271 228.53323 
L 230.928767 227.926425 
L 230.273868 228.565177 
L 230.221904 229.565177 
L 230.162814 231.565177 
z
" clip-path="url(#p806ef080a8)" style="fill: #ffffff; stroke: #ffffff; stroke-width: 3; stroke-linecap: round"/>
        <path d="M 230.748142 231.565177 
L 229.867774 231.089845 
L 228.989867 230.609591 
L 228.139153 230.07495 
L 226.836979 229.387503 
L 227.764332 229.361488 
L 228.676007 228.948769 
L 229.586271 228.53323 
L 230.928767 227.926425 
L 230.273868 228.565177 
L 230.221904 229.565177 
L 230.162814 231.565177 
z
" clip-path="url(#p806ef080a8)" style="fill: #ffffff; stroke: #1f77b4; stroke-linecap: round"/>
        <g id="patch_8">
         <path d="M 379.99393 72.964375 
L 380.99393 72.995811 
L 381.99393 73.032752 
L 382.99393 73.130498 
L 383.99393 73.16302 
L 384.99393 73.236645 
L 385.99393 73.27521 
L 386.99393 73.310623 
L 387.99393 73.368263 
L 388.99393 73.438649 
L 389.99393 73.490614 
L 390.99393 73.549703 
L 391.99393 73.638024 
L 392.99393 73.684169 
L 393.99393 73.72658 
L 394.99393 73.757072 
L 395.99393 73.783117 
L 396.99393 73.804317 
L 397.99393 73.858618 
L 398.99393 73.886556 
L 399.99393 73.91628 
L 400.99393 73.941675 
L 401.99393 73.952875 
L 402.99393 73.962999 
L 403.99393 73.962795 
L 404.99393 73.953285 
L 405.99393 73.941631 
L 406.99393 73.910602 
L 407.99393 73.899434 
L 408.99393 73.869317 
L 409.99393 73.80954 
L 410.99393 73.772348 
L 411.99393 73.733252 
L 412.99393 73.690812 
L 413.99393 73.658047 
L 414.99393 73.590621 
L 415.99393 73.551495 
L 416.99393 73.50882 
L 417.99393 73.43824 
L 418.99393 73.401849 
L 419.99393 73.343446 
L 420.99393 73.232493 
L 421.99393 73.161835 
L 422.99393 73.048895 
L 423.99393 73.003122 
L 424.99393 72.941839 
L 425.99393 72.89334 
L 426.99393 72.812517 
L 427.99393 72.693998 
L 428.99393 72.623787 
L 429.99393 72.540525 
L 430.99393 72.507383 
L 431.99393 72.456146 
L 432.99393 72.387747 
L 433.99393 72.321532 
L 434.99393 72.244615 
L 435.99393 72.217299 
L 436.99393 72.190822 
L 437.99393 72.168171 
L 438.99393 72.14864 
L 439.99393 72.122246 
L 440.99393 72.072475 
L 441.99393 72.037402 
L 442.99393 72.001536 
L 443.99393 71.986169 
L 444.99393 71.9704 
L 445.99393 71.966987 
L 446.99393 71.96457 
L 447.99393 71.965056 
L 448.99393 71.966985 
L 449.99393 71.980242 
L 450.99393 71.988633 
L 451.99393 72.010169 
L 452.99393 72.033202 
L 453.99393 72.050435 
L 454.99393 72.068898 
L 455.99393 72.08935 
L 456.99393 72.10595 
L 457.99393 72.168729 
L 458.99393 72.243994 
L 459.99393 72.276633 
L 460.99393 72.344197 
L 461.99393 72.398244 
L 462.99393 72.431948 
L 463.99393 72.522074 
L 464.99393 72.550609 
L 465.99393 72.582095 
L 466.99393 72.613106 
L 467.99393 72.667914 
L 468.99393 72.732501 
L 469.99393 72.770697 
L 470.99393 72.866631 
L 471.99393 72.915889 
L 472.99393 72.959958 
L 473.99393 73.000082 
L 474.99393 73.108449 
L 475.99393 73.150077 
L 476.99393 73.212219 
L 477.99393 73.282181 
L 478.99393 73.386685 
L 479.99393 73.423673 
L 480.99393 73.46955 
L 481.99393 73.538045 
L 482.99393 73.586791 
L 483.99393 73.664388 
L 484.99393 73.694929 
L 485.99393 73.764443 
L 486.99393 73.788416 
L 487.99393 73.817038 
L 488.99393 73.858831 
L 489.99393 73.880407 
L 490.99393 73.894355 
L 491.99393 73.921077 
L 492.99393 73.930387 
L 493.99393 73.942834 
L 494.99393 73.953889 
L 495.99393 73.959553 
L 496.99393 73.964317 
L 497.99393 73.958769 
L 498.99393 73.945481 
L 499.99393 73.937964 
L 500.99393 73.913179 
L 501.99393 73.88961 
L 502.99393 73.85343 
L 503.99393 73.827468 
L 504.99393 73.805146 
L 505.99393 73.736386 
L 506.99393 73.661851 
L 507.99393 73.567872 
L 508.99393 73.51682 
L 509.99393 73.462886 
L 510.99393 73.427635 
L 511.99393 73.321547 
L 512.99393 73.269283 
L 513.99393 73.232376 
L 514.99393 73.201345 
L 515.99393 73.14019 
L 516.99393 73.07277 
L 517.99393 73.023864 
L 518.99393 72.958672 
L 519.99393 72.920484 
L 520.99393 72.878488 
L 521.99393 72.836471 
L 522.99393 72.776955 
L 523.99393 72.663795 
L 524.99393 72.611544 
L 525.99393 72.572126 
L 526.99393 72.525025 
L 527.99393 72.468245 
L 528.99393 72.435582 
L 529.99393 72.399404 
L 530.99393 72.367314 
L 531.99393 72.333034 
L 533.973804 72.274656 
" clip-path="url(#p806ef080a8)" style="fill: none; stroke: #ffffff; stroke-width: 3; stroke-linecap: round"/>
         <path d="M 379.99393 72.964375 
L 380.99393 72.995811 
L 381.99393 73.032752 
L 382.99393 73.130498 
L 383.99393 73.16302 
L 384.99393 73.236645 
L 385.99393 73.27521 
L 386.99393 73.310623 
L 387.99393 73.368263 
L 388.99393 73.438649 
L 389.99393 73.490614 
L 390.99393 73.549703 
L 391.99393 73.638024 
L 392.99393 73.684169 
L 393.99393 73.72658 
L 394.99393 73.757072 
L 395.99393 73.783117 
L 396.99393 73.804317 
L 397.99393 73.858618 
L 398.99393 73.886556 
L 399.99393 73.91628 
L 400.99393 73.941675 
L 401.99393 73.952875 
L 402.99393 73.962999 
L 403.99393 73.962795 
L 404.99393 73.953285 
L 405.99393 73.941631 
L 406.99393 73.910602 
L 407.99393 73.899434 
L 408.99393 73.869317 
L 409.99393 73.80954 
L 410.99393 73.772348 
L 411.99393 73.733252 
L 412.99393 73.690812 
L 413.99393 73.658047 
L 414.99393 73.590621 
L 415.99393 73.551495 
L 416.99393 73.50882 
L 417.99393 73.43824 
L 418.99393 73.401849 
L 419.99393 73.343446 
L 420.99393 73.232493 
L 421.99393 73.161835 
L 422.99393 73.048895 
L 423.99393 73.003122 
L 424.99393 72.941839 
L 425.99393 72.89334 
L 426.99393 72.812517 
L 427.99393 72.693998 
L 428.99393 72.623787 
L 429.99393 72.540525 
L 430.99393 72.507383 
L 431.99393 72.456146 
L 432.99393 72.387747 
L 433.99393 72.321532 
L 434.99393 72.244615 
L 435.99393 72.217299 
L 436.99393 72.190822 
L 437.99393 72.168171 
L 438.99393 72.14864 
L 439.99393 72.122246 
L 440.99393 72.072475 
L 441.99393 72.037402 
L 442.99393 72.001536 
L 443.99393 71.986169 
L 444.99393 71.9704 
L 445.99393 71.966987 
L 446.99393 71.96457 
L 447.99393 71.965056 
L 448.99393 71.966985 
L 449.99393 71.980242 
L 450.99393 71.988633 
L 451.99393 72.010169 
L 452.99393 72.033202 
L 453.99393 72.050435 
L 454.99393 72.068898 
L 455.99393 72.08935 
L 456.99393 72.10595 
L 457.99393 72.168729 
L 458.99393 72.243994 
L 459.99393 72.276633 
L 460.99393 72.344197 
L 461.99393 72.398244 
L 462.99393 72.431948 
L 463.99393 72.522074 
L 464.99393 72.550609 
L 465.99393 72.582095 
L 466.99393 72.613106 
L 467.99393 72.667914 
L 468.99393 72.732501 
L 469.99393 72.770697 
L 470.99393 72.866631 
L 471.99393 72.915889 
L 472.99393 72.959958 
L 473.99393 73.000082 
L 474.99393 73.108449 
L 475.99393 73.150077 
L 476.99393 73.212219 
L 477.99393 73.282181 
L 478.99393 73.386685 
L 479.99393 73.423673 
L 480.99393 73.46955 
L 481.99393 73.538045 
L 482.99393 73.586791 
L 483.99393 73.664388 
L 484.99393 73.694929 
L 485.99393 73.764443 
L 486.99393 73.788416 
L 487.99393 73.817038 
L 488.99393 73.858831 
L 489.99393 73.880407 
L 490.99393 73.894355 
L 491.99393 73.921077 
L 492.99393 73.930387 
L 493.99393 73.942834 
L 494.99393 73.953889 
L 495.99393 73.959553 
L 496.99393 73.964317 
L 497.99393 73.958769 
L 498.99393 73.945481 
L 499.99393 73.937964 
L 500.99393 73.913179 
L 501.99393 73.88961 
L 502.99393 73.85343 
L 503.99393 73.827468 
L 504.99393 73.805146 
L 505.99393 73.736386 
L 506.99393 73.661851 
L 507.99393 73.567872 
L 508.99393 73.51682 
L 509.99393 73.462886 
L 510.99393 73.427635 
L 511.99393 73.321547 
L 512.99393 73.269283 
L 513.99393 73.232376 
L 514.99393 73.201345 
L 515.99393 73.14019 
L 516.99393 73.07277 
L 517.99393 73.023864 
L 518.99393 72.958672 
L 519.99393 72.920484 
L 520.99393 72.878488 
L 521.99393 72.836471 
L 522.99393 72.776955 
L 523.99393 72.663795 
L 524.99393 72.611544 
L 525.99393 72.572126 
L 526.99393 72.525025 
L 527.99393 72.468245 
L 528.99393 72.435582 
L 529.99393 72.399404 
L 530.99393 72.367314 
L 531.99393 72.333034 
L 533.973804 72.274656 
" clip-path="url(#p806ef080a8)" style="fill: none; stroke: #1f77b4; stroke-linecap: round"/>
         <path d="M 529.973804 70.964375 
L 530.854172 71.439706 
L 531.732079 71.91996 
L 532.582793 72.454601 
L 533.884967 73.142048 
L 532.957614 73.168063 
L 532.04594 73.580783 
L 531.135675 73.996322 
L 529.793179 74.603126 
L 530.448078 73.964375 
L 530.500042 72.964375 
L 530.559132 70.964375 
z
" clip-path="url(#p806ef080a8)" style="fill: #ffffff; stroke: #ffffff; stroke-width: 3; stroke-linecap: round"/>
         <path d="M 529.973804 70.964375 
L 530.854172 71.439706 
L 531.732079 71.91996 
L 532.582793 72.454601 
L 533.884967 73.142048 
L 532.957614 73.168063 
L 532.04594 73.580783 
L 531.135675 73.996322 
L 529.793179 74.603126 
L 530.448078 73.964375 
L 530.500042 72.964375 
L 530.559132 70.964375 
z
" clip-path="url(#p806ef080a8)" style="fill: #ffffff; stroke: #1f77b4; stroke-linecap: round"/>
         <g id="patch_9">
          <path d="M 225.634676 255.536904 
L 226.634676 255.568341 
L 227.634676 255.605281 
L 228.634676 255.703028 
L 229.634676 255.735549 
L 230.634676 255.809174 
L 231.634676 255.84774 
L 232.634676 255.883153 
L 233.634676 255.940793 
L 234.634676 256.011179 
L 235.634676 256.063143 
L 236.634676 256.122233 
L 237.634676 256.210554 
L 238.634676 256.256698 
L 239.634676 256.299109 
L 240.634676 256.329602 
L 241.634676 256.355647 
L 242.634676 256.376847 
L 243.634676 256.431148 
L 244.634676 256.459085 
L 245.634676 256.488809 
L 246.634676 256.514204 
L 247.634676 256.525405 
L 248.634676 256.535529 
L 249.634676 256.535324 
L 250.634676 256.525814 
L 251.634676 256.514161 
L 252.634676 256.483132 
L 253.634676 256.471964 
L 254.634676 256.441846 
L 255.634676 256.382069 
L 256.634676 256.344878 
L 257.634676 256.305782 
L 258.634676 256.263342 
L 259.634676 256.230577 
L 260.634676 256.16315 
L 261.634676 256.124024 
L 262.634676 256.08135 
L 263.634676 256.010769 
L 264.634676 255.974378 
L 265.634676 255.915975 
L 266.634676 255.805023 
L 267.634676 255.734364 
L 268.634676 255.621425 
L 269.634676 255.575652 
L 270.634676 255.514368 
L 271.634676 255.465869 
L 272.634676 255.385046 
L 273.634676 255.266527 
L 274.634676 255.196317 
L 275.634676 255.113054 
L 276.634676 255.079913 
L 277.634676 255.028675 
L 278.634676 254.960277 
L 279.634676 254.894061 
L 280.634676 254.817144 
L 281.634676 254.789829 
L 282.634676 254.763351 
L 283.634676 254.740701 
L 284.634676 254.721169 
L 285.634676 254.694776 
L 286.634676 254.645005 
L 287.634676 254.609932 
L 288.634676 254.574066 
L 289.634676 254.558699 
L 290.634676 254.542929 
L 291.634676 254.539517 
L 292.634676 254.537099 
L 293.634676 254.537585 
L 294.634676 254.539515 
L 295.634676 254.552772 
L 296.634676 254.561162 
L 297.634676 254.582699 
L 298.634676 254.605731 
L 299.634676 254.622965 
L 300.634676 254.641427 
L 301.634676 254.66188 
L 302.634676 254.67848 
L 303.634676 254.741258 
L 304.634676 254.816523 
L 305.634676 254.849163 
L 306.634676 254.916726 
L 307.634676 254.970773 
L 308.634676 255.004478 
L 309.634676 255.094604 
L 310.634676 255.123138 
L 311.634676 255.154625 
L 312.634676 255.185635 
L 313.634676 255.240443 
L 314.634676 255.305031 
L 315.634676 255.343226 
L 316.634676 255.43916 
L 317.634676 255.488418 
L 318.634676 255.532488 
L 319.634676 255.572611 
L 320.634676 255.680978 
L 321.634676 255.722607 
L 322.634676 255.784748 
L 323.634676 255.85471 
L 324.634676 255.959215 
L 325.634676 255.996202 
L 326.634676 256.04208 
L 327.634676 256.110574 
L 328.634676 256.15932 
L 329.634676 256.236918 
L 330.634676 256.267458 
L 331.634676 256.336973 
L 332.634676 256.360946 
L 333.634676 256.389567 
L 334.634676 256.43136 
L 335.634676 256.452936 
L 336.634676 256.466884 
L 337.634676 256.493607 
L 338.634676 256.502917 
L 339.634676 256.515363 
L 340.634676 256.526418 
L 341.634676 256.532083 
L 342.634676 256.536846 
L 343.634676 256.531299 
L 344.634676 256.518011 
L 345.634676 256.510493 
L 346.634676 256.485708 
L 347.634676 256.46214 
L 348.634676 256.425959 
L 349.634676 256.399997 
L 350.634676 256.377676 
L 351.634676 256.308916 
L 352.634676 256.234381 
L 353.634676 256.140401 
L 354.634676 256.089349 
L 355.634676 256.035416 
L 356.634676 256.000165 
L 357.634676 255.894077 
L 358.634676 255.841813 
L 359.634676 255.804906 
L 360.634676 255.773875 
L 361.634676 255.712719 
L 362.634676 255.645299 
L 363.634676 255.596394 
L 364.634676 255.531201 
L 365.634676 255.493014 
L 366.634676 255.451018 
L 367.634676 255.409 
L 368.634676 255.349484 
L 369.634676 255.236324 
L 370.634676 255.184073 
L 371.634676 255.144656 
L 372.634676 255.097554 
L 373.634676 255.040775 
L 374.634676 255.008112 
L 375.634676 254.971934 
L 376.634676 254.939843 
L 377.634676 254.905563 
L 378.634676 254.847186 
L 379.634676 254.802001 
L 380.634676 254.772377 
L 381.634676 254.721991 
L 382.634676 254.696793 
L 383.634676 254.675742 
L 384.634676 254.640774 
L 385.634676 254.616484 
L 386.634676 254.602417 
L 387.634676 254.583476 
L 388.634676 254.567814 
L 389.634676 254.555262 
L 390.634676 254.549427 
L 391.634676 254.542544 
L 392.634676 254.537371 
L 393.634676 254.539153 
L 394.634676 254.541879 
L 395.634676 254.553032 
L 396.634676 254.581268 
L 397.634676 254.625055 
L 398.634676 254.645744 
L 399.634676 254.686718 
L 400.634676 254.726793 
L 401.634676 254.745903 
L 402.634676 254.768411 
L 403.634676 254.835063 
L 404.634676 254.884772 
L 405.634676 254.958479 
L 406.634676 254.989793 
L 407.634676 255.066415 
L 408.634676 255.104713 
L 409.634676 255.178829 
L 410.634676 255.282888 
L 411.634676 255.352718 
L 412.634676 255.457952 
L 413.634676 255.512967 
L 414.634676 255.636442 
L 415.634676 255.707002 
L 416.634676 255.822841 
L 417.634676 255.873021 
L 418.634676 255.908626 
L 419.634676 256.000032 
L 420.634676 256.05354 
L 421.634676 256.141448 
L 422.634676 256.210633 
L 423.634676 256.257398 
L 424.634676 256.329442 
L 425.634676 256.379583 
L 427.141943 256.396973 
" clip-path="url(#p806ef080a8)" style="fill: none; stroke: #ffffff; stroke-width: 3; stroke-linecap: round"/>
          <path d="M 225.634676 255.536904 
L 226.634676 255.568341 
L 227.634676 255.605281 
L 228.634676 255.703028 
L 229.634676 255.735549 
L 230.634676 255.809174 
L 231.634676 255.84774 
L 232.634676 255.883153 
L 233.634676 255.940793 
L 234.634676 256.011179 
L 235.634676 256.063143 
L 236.634676 256.122233 
L 237.634676 256.210554 
L 238.634676 256.256698 
L 239.634676 256.299109 
L 240.634676 256.329602 
L 241.634676 256.355647 
L 242.634676 256.376847 
L 243.634676 256.431148 
L 244.634676 256.459085 
L 245.634676 256.488809 
L 246.634676 256.514204 
L 247.634676 256.525405 
L 248.634676 256.535529 
L 249.634676 256.535324 
L 250.634676 256.525814 
L 251.634676 256.514161 
L 252.634676 256.483132 
L 253.634676 256.471964 
L 254.634676 256.441846 
L 255.634676 256.382069 
L 256.634676 256.344878 
L 257.634676 256.305782 
L 258.634676 256.263342 
L 259.634676 256.230577 
L 260.634676 256.16315 
L 261.634676 256.124024 
L 262.634676 256.08135 
L 263.634676 256.010769 
L 264.634676 255.974378 
L 265.634676 255.915975 
L 266.634676 255.805023 
L 267.634676 255.734364 
L 268.634676 255.621425 
L 269.634676 255.575652 
L 270.634676 255.514368 
L 271.634676 255.465869 
L 272.634676 255.385046 
L 273.634676 255.266527 
L 274.634676 255.196317 
L 275.634676 255.113054 
L 276.634676 255.079913 
L 277.634676 255.028675 
L 278.634676 254.960277 
L 279.634676 254.894061 
L 280.634676 254.817144 
L 281.634676 254.789829 
L 282.634676 254.763351 
L 283.634676 254.740701 
L 284.634676 254.721169 
L 285.634676 254.694776 
L 286.634676 254.645005 
L 287.634676 254.609932 
L 288.634676 254.574066 
L 289.634676 254.558699 
L 290.634676 254.542929 
L 291.634676 254.539517 
L 292.634676 254.537099 
L 293.634676 254.537585 
L 294.634676 254.539515 
L 295.634676 254.552772 
L 296.634676 254.561162 
L 297.634676 254.582699 
L 298.634676 254.605731 
L 299.634676 254.622965 
L 300.634676 254.641427 
L 301.634676 254.66188 
L 302.634676 254.67848 
L 303.634676 254.741258 
L 304.634676 254.816523 
L 305.634676 254.849163 
L 306.634676 254.916726 
L 307.634676 254.970773 
L 308.634676 255.004478 
L 309.634676 255.094604 
L 310.634676 255.123138 
L 311.634676 255.154625 
L 312.634676 255.185635 
L 313.634676 255.240443 
L 314.634676 255.305031 
L 315.634676 255.343226 
L 316.634676 255.43916 
L 317.634676 255.488418 
L 318.634676 255.532488 
L 319.634676 255.572611 
L 320.634676 255.680978 
L 321.634676 255.722607 
L 322.634676 255.784748 
L 323.634676 255.85471 
L 324.634676 255.959215 
L 325.634676 255.996202 
L 326.634676 256.04208 
L 327.634676 256.110574 
L 328.634676 256.15932 
L 329.634676 256.236918 
L 330.634676 256.267458 
L 331.634676 256.336973 
L 332.634676 256.360946 
L 333.634676 256.389567 
L 334.634676 256.43136 
L 335.634676 256.452936 
L 336.634676 256.466884 
L 337.634676 256.493607 
L 338.634676 256.502917 
L 339.634676 256.515363 
L 340.634676 256.526418 
L 341.634676 256.532083 
L 342.634676 256.536846 
L 343.634676 256.531299 
L 344.634676 256.518011 
L 345.634676 256.510493 
L 346.634676 256.485708 
L 347.634676 256.46214 
L 348.634676 256.425959 
L 349.634676 256.399997 
L 350.634676 256.377676 
L 351.634676 256.308916 
L 352.634676 256.234381 
L 353.634676 256.140401 
L 354.634676 256.089349 
L 355.634676 256.035416 
L 356.634676 256.000165 
L 357.634676 255.894077 
L 358.634676 255.841813 
L 359.634676 255.804906 
L 360.634676 255.773875 
L 361.634676 255.712719 
L 362.634676 255.645299 
L 363.634676 255.596394 
L 364.634676 255.531201 
L 365.634676 255.493014 
L 366.634676 255.451018 
L 367.634676 255.409 
L 368.634676 255.349484 
L 369.634676 255.236324 
L 370.634676 255.184073 
L 371.634676 255.144656 
L 372.634676 255.097554 
L 373.634676 255.040775 
L 374.634676 255.008112 
L 375.634676 254.971934 
L 376.634676 254.939843 
L 377.634676 254.905563 
L 378.634676 254.847186 
L 379.634676 254.802001 
L 380.634676 254.772377 
L 381.634676 254.721991 
L 382.634676 254.696793 
L 383.634676 254.675742 
L 384.634676 254.640774 
L 385.634676 254.616484 
L 386.634676 254.602417 
L 387.634676 254.583476 
L 388.634676 254.567814 
L 389.634676 254.555262 
L 390.634676 254.549427 
L 391.634676 254.542544 
L 392.634676 254.537371 
L 393.634676 254.539153 
L 394.634676 254.541879 
L 395.634676 254.553032 
L 396.634676 254.581268 
L 397.634676 254.625055 
L 398.634676 254.645744 
L 399.634676 254.686718 
L 400.634676 254.726793 
L 401.634676 254.745903 
L 402.634676 254.768411 
L 403.634676 254.835063 
L 404.634676 254.884772 
L 405.634676 254.958479 
L 406.634676 254.989793 
L 407.634676 255.066415 
L 408.634676 255.104713 
L 409.634676 255.178829 
L 410.634676 255.282888 
L 411.634676 255.352718 
L 412.634676 255.457952 
L 413.634676 255.512967 
L 414.634676 255.636442 
L 415.634676 255.707002 
L 416.634676 255.822841 
L 417.634676 255.873021 
L 418.634676 255.908626 
L 419.634676 256.000032 
L 420.634676 256.05354 
L 421.634676 256.141448 
L 422.634676 256.210633 
L 423.634676 256.257398 
L 424.634676 256.329442 
L 425.634676 256.379583 
L 427.141943 256.396973 
" clip-path="url(#p806ef080a8)" style="fill: none; stroke: #ff7f0e; stroke-linecap: round"/>
          <path d="M 423.141943 253.536904 
L 424.022312 254.012236 
L 424.900219 254.49249 
L 425.750932 255.02713 
L 427.053107 255.714578 
L 426.125754 255.740593 
L 425.214079 256.153312 
L 424.303815 256.568851 
L 422.961319 257.175656 
L 423.616218 256.536904 
L 423.668182 255.536904 
L 423.727272 254.536904 
L 423.815593 253.536904 
z
" clip-path="url(#p806ef080a8)" style="fill: #ffffff; stroke: #ffffff; stroke-width: 3; stroke-linecap: round"/>
          <path d="M 423.141943 253.536904 
L 424.022312 254.012236 
L 424.900219 254.49249 
L 425.750932 255.02713 
L 427.053107 255.714578 
L 426.125754 255.740593 
L 425.214079 256.153312 
L 424.303815 256.568851 
L 422.961319 257.175656 
L 423.616218 256.536904 
L 423.668182 255.536904 
L 423.727272 254.536904 
L 423.815593 253.536904 
z
" clip-path="url(#p806ef080a8)" style="fill: #ffffff; stroke: #ff7f0e; stroke-linecap: round"/>
          <path d="M 461.373544 308.960404 
" clip-path="url(#p806ef080a8)" style="fill: none; stroke-dasharray: 3.7,1.6; stroke-dashoffset: 0; stroke: #2ca02c"/>
          <path d="M 460.373544 308.960404 
L 462.373544 309.960404 
L 462.373544 307.960404 
z
" clip-path="url(#p806ef080a8)" style="fill: #2ca02c; stroke: #2ca02c; stroke-linejoin: miter"/>
          <g id="patch_10">
           <path d="M 63.290625 321.621875 
L 63.290625 10.8 
" style="fill: none; stroke: #000000; stroke-width: 0.8; stroke-linejoin: miter; stroke-linecap: square"/>
          </g>
          <g id="text_12">
           <g id="patch_11">
            <path d="M 317.513758 127.021651 
L 338.818446 127.021651 
Q 340.818446 127.021651 340.818446 125.021651 
L 340.818446 115.343526 
Q 340.818446 113.343526 338.818446 113.343526 
L 317.513758 113.343526 
Q 315.513758 113.343526 315.513758 115.343526 
L 315.513758 125.021651 
Q 315.513758 127.021651 317.513758 127.021651 
z
" style="fill: #ffffff; opacity: 0.6"/>
           </g>
           <!-- ANC -->
           <g transform="translate(317.513758 122.941963) scale(0.1 -0.1)">
            <defs>
             <path id="DejaVuSans-4e" d="M 628 4666 
L 1478 4666 
L 3547 763 
L 3547 4666 
L 4159 4666 
L 4159 0 
L 3309 0 
L 1241 3903 
L 1241 0 
L 628 0 
L 628 4666 
z
" transform="scale(0.015625)"/>
            </defs>
            <use xlink:href="#DejaVuSans-41"/>
            <use xlink:href="#DejaVuSans-4e" x="68.408203"/>
            <use xlink:href="#DejaVuSans-43" x="143.212891"/>
           </g>
          </g>
         </g>
        </g>
        <defs>
         <clipPath id="p806ef080a8">
          <rect x="63.290625" y="10.8" width="540.309375" height="310.821875"/>
         </clipPath>
        </defs>
       </g>
      </g>
     </g>
    </g>
   </g>
  </g>
 </g>
</svg>
