<?xml version="1.0" encoding="utf-8" standalone="no"?>
<!DOCTYPE svg PUBLIC "-//W3C//DTD SVG 1.1//EN"
  "http://www.w3.org/Graphics/SVG/1.1/DTD/svg11.dtd">
<svg xmlns:xlink="http://www.w3.org/1999/xlink" width="614.4pt" height="345.6pt" viewBox="0 0 614.4 345.6" xmlns="http://www.w3.org/2000/svg" version="1.1">
 <metadata>
  <rdf:RDF xmlns:dc="http://purl.org/dc/elements/1.1/" xmlns:cc="http://creativecommons.org/ns#" xmlns:rdf="http://www.w3.org/1999/02/22-rdf-syntax-ns#">
   <cc:Work>
    <dc:type rdf:resource="http://purl.org/dc/dcmitype/StillImage"/>
    <dc:date>2024-04-17T19:48:48.248374</dc:date>
    <dc:format>image/svg+xml</dc:format>
    <dc:creator>
     <cc:Agent>
      <dc:title>Matplotlib v3.7.1, https://matplotlib.org/</dc:title>
     </cc:Agent>
    </dc:creator>
   </cc:Work>
  </rdf:RDF>
 </metadata>
 <defs>
  <style type="text/css">*{stroke-linejoin: round; stroke-linecap: butt}</style>
 </defs>
 <g id="figure_1">
  <g id="patch_1">
   <path d="M 0 345.6 
L 614.4 345.6 
L 614.4 0 
L 0 0 
z
" style="fill: #ffffff"/>
  </g>
  <g id="axes_1">
   <g id="patch_2">
    <path d="M 63.290625 321.621875 
L 603.6 321.621875 
L 603.6 10.8 
L 63.290625 10.8 
z
" style="fill: #ffffff"/>
   </g>
   <path d="M 544.881892 298.839747 
L 543.881892 298.80831 
L 542.881892 298.77137 
L 541.881892 298.673623 
L 540.881892 298.641102 
L 539.881892 298.567477 
L 538.881892 298.528911 
L 537.881892 298.493498 
L 536.881892 298.435858 
L 535.881892 298.365472 
L 534.881892 298.313508 
L 533.881892 298.254418 
L 532.881892 298.166097 
L 531.881892 298.119953 
L 530.881892 298.077542 
L 529.881892 298.047049 
L 528.881892 298.021004 
L 527.881892 297.999804 
L 526.881892 297.945503 
L 525.881892 297.917566 
L 524.881892 297.887842 
L 523.881892 297.862447 
L 522.881892 297.851246 
L 521.881892 297.841123 
L 520.881892 297.841327 
L 519.881892 297.850837 
L 518.881892 297.86249 
L 517.881892 297.89352 
L 516.881892 297.904687 
L 515.881892 297.934805 
L 514.881892 297.994582 
L 513.881892 298.031773 
L 512.881892 298.07087 
L 511.881892 298.113309 
L 510.881892 298.146074 
L 509.881892 298.213501 
L 508.881892 298.252627 
L 507.881892 298.295301 
L 506.881892 298.365882 
L 505.881892 298.402273 
L 504.881892 298.460676 
L 503.881892 298.571628 
L 502.881892 298.642287 
L 501.881892 298.755227 
L 500.881892 298.800999 
L 499.881892 298.862283 
L 498.881892 298.910782 
L 497.881892 298.991605 
L 496.881892 299.110124 
L 495.881892 299.180334 
L 494.881892 299.263597 
L 493.881892 299.296739 
L 492.881892 299.347976 
L 491.881892 299.416374 
L 490.881892 299.48259 
L 489.881892 299.559507 
L 488.881892 299.586822 
L 487.881892 299.6133 
L 486.881892 299.63595 
L 485.881892 299.655482 
L 484.881892 299.681876 
L 483.881892 299.731646 
L 482.881892 299.76672 
L 481.881892 299.802585 
L 480.881892 299.817953 
L 479.881892 299.833722 
L 478.881892 299.837134 
L 477.881892 299.839552 
L 476.881892 299.839066 
L 475.881892 299.837137 
L 474.881892 299.82388 
L 473.881892 299.815489 
L 472.881892 299.793952 
L 471.881892 299.77092 
L 470.881892 299.753686 
L 469.881892 299.735224 
L 468.600227 299.714771 
" clip-path="url(#pc84ba53970)" style="fill: none; stroke-dasharray: 3.7,1.6; stroke-dashoffset: 0; stroke: #2ca02c"/>
   <g id="patch_3">
    <path d="M 286.066553 10.8 
L 286.066553 285.113589 
M 377.008767 10.8 
L 377.008767 285.113589 
" clip-path="url(#pc84ba53970)" style="fill: none; stroke: #ffffff; stroke-width: 3; stroke-linejoin: miter"/>
    <path d="M 286.066553 10.8 
L 286.066553 285.113589 
M 377.008767 10.8 
L 377.008767 285.113589 
" clip-path="url(#pc84ba53970)" style="fill: none; stroke: #1f77b4; stroke-linejoin: miter"/>
    <g id="PolyCollection_1">
     <path d="M 377.008767 10.8 
L 286.066553 10.8 
L 286.066553 285.113589 
L 377.008767 285.113589 
L 377.008767 285.113589 
L 377.008767 10.8 
z
" clip-path="url(#pc84ba53970)" style="fill: #1f77b4; fill-opacity: 0.5"/>
    </g>
    <g id="patch_4">
     <path d="M 87.850142 285.113589 
L 87.850142 321.621875 
M 225.537566 285.113589 
L 225.537566 321.621875 
" clip-path="url(#pc84ba53970)" style="fill: none; stroke: #ffffff; stroke-width: 3; stroke-linejoin: miter"/>
     <path d="M 87.850142 285.113589 
L 87.850142 321.621875 
M 225.537566 285.113589 
L 225.537566 321.621875 
" clip-path="url(#pc84ba53970)" style="fill: none; stroke: #ff7f0e; stroke-linejoin: miter"/>
     <g id="PolyCollection_2">
      <path d="M 225.537566 285.113589 
L 87.850142 285.113589 
L 87.850142 321.621875 
L 225.537566 321.621875 
L 225.537566 321.621875 
L 225.537566 285.113589 
z
" clip-path="url(#pc84ba53970)" style="fill: #ff7f0e; fill-opacity: 0.5"/>
     </g>
     <g id="patch_5">
      <path d="M 550.284986 72.964375 
L 550.284986 321.621875 
M 579.040483 72.964375 
L 579.040483 321.621875 
" clip-path="url(#pc84ba53970)" style="fill: none; stroke: #ffffff; stroke-width: 3; stroke-linejoin: miter"/>
      <path d="M 550.284986 72.964375 
L 550.284986 321.621875 
M 579.040483 72.964375 
L 579.040483 321.621875 
" clip-path="url(#pc84ba53970)" style="fill: none; stroke: #2ca02c; stroke-linejoin: miter"/>
      <g id="PolyCollection_3">
       <path d="M 579.040483 72.964375 
L 550.284986 72.964375 
L 550.284986 321.621875 
L 579.040483 321.621875 
L 579.040483 321.621875 
L 579.040483 72.964375 
z
" clip-path="url(#pc84ba53970)" style="fill: #2ca02c; fill-opacity: 0.5"/>
      </g>
      <g id="patch_6">
       <path d="M 433.003261 285.113589 
L 433.003261 321.621875 
M 463.197134 285.113589 
L 463.197134 321.621875 
" clip-path="url(#pc84ba53970)" style="fill: none; stroke: #ffffff; stroke-width: 3; stroke-linejoin: miter"/>
       <path d="M 433.003261 285.113589 
L 433.003261 321.621875 
M 463.197134 285.113589 
L 463.197134 321.621875 
" clip-path="url(#pc84ba53970)" style="fill: none; stroke: #d62728; stroke-linejoin: miter"/>
       <g id="PolyCollection_4">
        <path d="M 463.197134 285.113589 
L 433.003261 285.113589 
L 433.003261 321.621875 
L 463.197134 321.621875 
L 463.197134 321.621875 
L 463.197134 285.113589 
z
" clip-path="url(#pc84ba53970)" style="fill: #d62728; fill-opacity: 0.5"/>
       </g>
       <g id="matplotlib.axis_1">
        <g id="xtick_1">
         <g id="line2d_1"/>
         <g id="text_1">
          <!-- OUT -->
          <g transform="translate(146.044636 332.720312) scale(0.1 -0.1)">
           <defs>
            <path id="DejaVuSans-4f" d="M 2522 4238 
Q 1834 4238 1429 3725 
Q 1025 3213 1025 2328 
Q 1025 1447 1429 934 
Q 1834 422 2522 422 
Q 3209 422 3611 934 
Q 4013 1447 4013 2328 
Q 4013 3213 3611 3725 
Q 3209 4238 2522 4238 
z
M 2522 4750 
Q 3503 4750 4090 4092 
Q 4678 3434 4678 2328 
Q 4678 1225 4090 567 
Q 3503 -91 2522 -91 
Q 1538 -91 948 565 
Q 359 1222 359 2328 
Q 359 3434 948 4092 
Q 1538 4750 2522 4750 
z
" transform="scale(0.015625)"/>
            <path id="DejaVuSans-55" d="M 556 4666 
L 1191 4666 
L 1191 1831 
Q 1191 1081 1462 751 
Q 1734 422 2344 422 
Q 2950 422 3222 751 
Q 3494 1081 3494 1831 
L 3494 4666 
L 4128 4666 
L 4128 1753 
Q 4128 841 3676 375 
Q 3225 -91 2344 -91 
Q 1459 -91 1007 375 
Q 556 841 556 1753 
L 556 4666 
z
" transform="scale(0.015625)"/>
            <path id="DejaVuSans-54" d="M -19 4666 
L 3928 4666 
L 3928 4134 
L 2272 4134 
L 2272 0 
L 1638 0 
L 1638 4134 
L -19 4134 
L -19 4666 
z
" transform="scale(0.015625)"/>
           </defs>
           <use xlink:href="#DejaVuSans-4f"/>
           <use xlink:href="#DejaVuSans-55" x="78.710938"/>
           <use xlink:href="#DejaVuSans-54" x="151.904297"/>
          </g>
         </g>
        </g>
        <g id="xtick_2">
         <g id="line2d_2"/>
         <g id="text_2">
          <!-- SRC -->
          <g transform="translate(554.772891 332.720312) scale(0.1 -0.1)">
           <defs>
            <path id="DejaVuSans-53" d="M 3425 4513 
L 3425 3897 
Q 3066 4069 2747 4153 
Q 2428 4238 2131 4238 
Q 1616 4238 1336 4038 
Q 1056 3838 1056 3469 
Q 1056 3159 1242 3001 
Q 1428 2844 1947 2747 
L 2328 2669 
Q 3034 2534 3370 2195 
Q 3706 1856 3706 1288 
Q 3706 609 3251 259 
Q 2797 -91 1919 -91 
Q 1588 -91 1214 -16 
Q 841 59 441 206 
L 441 856 
Q 825 641 1194 531 
Q 1563 422 1919 422 
Q 2459 422 2753 634 
Q 3047 847 3047 1241 
Q 3047 1584 2836 1778 
Q 2625 1972 2144 2069 
L 1759 2144 
Q 1053 2284 737 2584 
Q 422 2884 422 3419 
Q 422 4038 858 4394 
Q 1294 4750 2059 4750 
Q 2388 4750 2728 4690 
Q 3069 4631 3425 4513 
z
" transform="scale(0.015625)"/>
            <path id="DejaVuSans-52" d="M 2841 2188 
Q 3044 2119 3236 1894 
Q 3428 1669 3622 1275 
L 4263 0 
L 3584 0 
L 2988 1197 
Q 2756 1666 2539 1819 
Q 2322 1972 1947 1972 
L 1259 1972 
L 1259 0 
L 628 0 
L 628 4666 
L 2053 4666 
Q 2853 4666 3247 4331 
Q 3641 3997 3641 3322 
Q 3641 2881 3436 2590 
Q 3231 2300 2841 2188 
z
M 1259 4147 
L 1259 2491 
L 2053 2491 
Q 2509 2491 2742 2702 
Q 2975 2913 2975 3322 
Q 2975 3731 2742 3939 
Q 2509 4147 2053 4147 
L 1259 4147 
z
" transform="scale(0.015625)"/>
            <path id="DejaVuSans-43" d="M 4122 4306 
L 4122 3641 
Q 3803 3938 3442 4084 
Q 3081 4231 2675 4231 
Q 1875 4231 1450 3742 
Q 1025 3253 1025 2328 
Q 1025 1406 1450 917 
Q 1875 428 2675 428 
Q 3081 428 3442 575 
Q 3803 722 4122 1019 
L 4122 359 
Q 3791 134 3420 21 
Q 3050 -91 2638 -91 
Q 1578 -91 968 557 
Q 359 1206 359 2328 
Q 359 3453 968 4101 
Q 1578 4750 2638 4750 
Q 3056 4750 3426 4639 
Q 3797 4528 4122 4306 
z
" transform="scale(0.015625)"/>
           </defs>
           <use xlink:href="#DejaVuSans-53"/>
           <use xlink:href="#DejaVuSans-52" x="63.476562"/>
           <use xlink:href="#DejaVuSans-43" x="127.958984"/>
          </g>
         </g>
        </g>
        <g id="xtick_3">
         <g id="line2d_3"/>
         <g id="text_3">
          <!-- TAR -->
          <g transform="translate(438.53926 332.720312) scale(0.1 -0.1)">
           <defs>
            <path id="DejaVuSans-41" d="M 2188 4044 
L 1331 1722 
L 3047 1722 
L 2188 4044 
z
M 1831 4666 
L 2547 4666 
L 4325 0 
L 3669 0 
L 3244 1197 
L 1141 1197 
L 716 0 
L 50 0 
L 1831 4666 
z
" transform="scale(0.015625)"/>
           </defs>
           <use xlink:href="#DejaVuSans-54"/>
           <use xlink:href="#DejaVuSans-41" x="53.333984"/>
           <use xlink:href="#DejaVuSans-52" x="121.742188"/>
          </g>
         </g>
        </g>
       </g>
       <g id="matplotlib.axis_2">
        <g id="ytick_1">
         <g id="line2d_4">
          <defs>
           <path id="mddb2f76080" d="M 0 0 
L -3.5 0 
" style="stroke: #000000; stroke-width: 0.8"/>
          </defs>
          <g>
           <use xlink:href="#mddb2f76080" x="63.290625" y="321.621875" style="stroke: #000000; stroke-width: 0.8"/>
          </g>
         </g>
         <g id="text_4">
          <!-- 0 -->
          <g transform="translate(49.928125 325.421094) scale(0.1 -0.1)">
           <defs>
            <path id="DejaVuSans-30" d="M 2034 4250 
Q 1547 4250 1301 3770 
Q 1056 3291 1056 2328 
Q 1056 1369 1301 889 
Q 1547 409 2034 409 
Q 2525 409 2770 889 
Q 3016 1369 3016 2328 
Q 3016 3291 2770 3770 
Q 2525 4250 2034 4250 
z
M 2034 4750 
Q 2819 4750 3233 4129 
Q 3647 3509 3647 2328 
Q 3647 1150 3233 529 
Q 2819 -91 2034 -91 
Q 1250 -91 836 529 
Q 422 1150 422 2328 
Q 422 3509 836 4129 
Q 1250 4750 2034 4750 
z
" transform="scale(0.015625)"/>
           </defs>
           <use xlink:href="#DejaVuSans-30"/>
          </g>
         </g>
        </g>
        <g id="ytick_2">
         <g id="line2d_5">
          <g>
           <use xlink:href="#mddb2f76080" x="63.290625" y="284.200508" style="stroke: #000000; stroke-width: 0.8"/>
          </g>
         </g>
         <g id="text_5">
          <!-- 2500 -->
          <g transform="translate(30.840625 287.999727) scale(0.1 -0.1)">
           <defs>
            <path id="DejaVuSans-32" d="M 1228 531 
L 3431 531 
L 3431 0 
L 469 0 
L 469 531 
Q 828 903 1448 1529 
Q 2069 2156 2228 2338 
Q 2531 2678 2651 2914 
Q 2772 3150 2772 3378 
Q 2772 3750 2511 3984 
Q 2250 4219 1831 4219 
Q 1534 4219 1204 4116 
Q 875 4013 500 3803 
L 500 4441 
Q 881 4594 1212 4672 
Q 1544 4750 1819 4750 
Q 2544 4750 2975 4387 
Q 3406 4025 3406 3419 
Q 3406 3131 3298 2873 
Q 3191 2616 2906 2266 
Q 2828 2175 2409 1742 
Q 1991 1309 1228 531 
z
" transform="scale(0.015625)"/>
            <path id="DejaVuSans-35" d="M 691 4666 
L 3169 4666 
L 3169 4134 
L 1269 4134 
L 1269 2991 
Q 1406 3038 1543 3061 
Q 1681 3084 1819 3084 
Q 2600 3084 3056 2656 
Q 3513 2228 3513 1497 
Q 3513 744 3044 326 
Q 2575 -91 1722 -91 
Q 1428 -91 1123 -41 
Q 819 9 494 109 
L 494 744 
Q 775 591 1075 516 
Q 1375 441 1709 441 
Q 2250 441 2565 725 
Q 2881 1009 2881 1497 
Q 2881 1984 2565 2268 
Q 2250 2553 1709 2553 
Q 1456 2553 1204 2497 
Q 953 2441 691 2322 
L 691 4666 
z
" transform="scale(0.015625)"/>
           </defs>
           <use xlink:href="#DejaVuSans-32"/>
           <use xlink:href="#DejaVuSans-35" x="63.623047"/>
           <use xlink:href="#DejaVuSans-30" x="127.246094"/>
           <use xlink:href="#DejaVuSans-30" x="190.869141"/>
          </g>
         </g>
        </g>
        <g id="ytick_3">
         <g id="line2d_6">
          <g>
           <use xlink:href="#mddb2f76080" x="63.290625" y="246.779141" style="stroke: #000000; stroke-width: 0.8"/>
          </g>
         </g>
         <g id="text_6">
          <!-- 5000 -->
          <g transform="translate(30.840625 250.57836) scale(0.1 -0.1)">
           <use xlink:href="#DejaVuSans-35"/>
           <use xlink:href="#DejaVuSans-30" x="63.623047"/>
           <use xlink:href="#DejaVuSans-30" x="127.246094"/>
           <use xlink:href="#DejaVuSans-30" x="190.869141"/>
          </g>
         </g>
        </g>
        <g id="ytick_4">
         <g id="line2d_7">
          <g>
           <use xlink:href="#mddb2f76080" x="63.290625" y="209.357774" style="stroke: #000000; stroke-width: 0.8"/>
          </g>
         </g>
         <g id="text_7">
          <!-- 7500 -->
          <g transform="translate(30.840625 213.156992) scale(0.1 -0.1)">
           <defs>
            <path id="DejaVuSans-37" d="M 525 4666 
L 3525 4666 
L 3525 4397 
L 1831 0 
L 1172 0 
L 2766 4134 
L 525 4134 
L 525 4666 
z
" transform="scale(0.015625)"/>
           </defs>
           <use xlink:href="#DejaVuSans-37"/>
           <use xlink:href="#DejaVuSans-35" x="63.623047"/>
           <use xlink:href="#DejaVuSans-30" x="127.246094"/>
           <use xlink:href="#DejaVuSans-30" x="190.869141"/>
          </g>
         </g>
        </g>
        <g id="ytick_5">
         <g id="line2d_8">
          <g>
           <use xlink:href="#mddb2f76080" x="63.290625" y="171.936407" style="stroke: #000000; stroke-width: 0.8"/>
          </g>
         </g>
         <g id="text_8">
          <!-- 10000 -->
          <g transform="translate(24.478125 175.735625) scale(0.1 -0.1)">
           <defs>
            <path id="DejaVuSans-31" d="M 794 531 
L 1825 531 
L 1825 4091 
L 703 3866 
L 703 4441 
L 1819 4666 
L 2450 4666 
L 2450 531 
L 3481 531 
L 3481 0 
L 794 0 
L 794 531 
z
" transform="scale(0.015625)"/>
           </defs>
           <use xlink:href="#DejaVuSans-31"/>
           <use xlink:href="#DejaVuSans-30" x="63.623047"/>
           <use xlink:href="#DejaVuSans-30" x="127.246094"/>
           <use xlink:href="#DejaVuSans-30" x="190.869141"/>
           <use xlink:href="#DejaVuSans-30" x="254.492188"/>
          </g>
         </g>
        </g>
        <g id="ytick_6">
         <g id="line2d_9">
          <g>
           <use xlink:href="#mddb2f76080" x="63.290625" y="134.51504" style="stroke: #000000; stroke-width: 0.8"/>
          </g>
         </g>
         <g id="text_9">
          <!-- 12500 -->
          <g transform="translate(24.478125 138.314258) scale(0.1 -0.1)">
           <use xlink:href="#DejaVuSans-31"/>
           <use xlink:href="#DejaVuSans-32" x="63.623047"/>
           <use xlink:href="#DejaVuSans-35" x="127.246094"/>
           <use xlink:href="#DejaVuSans-30" x="190.869141"/>
           <use xlink:href="#DejaVuSans-30" x="254.492188"/>
          </g>
         </g>
        </g>
        <g id="ytick_7">
         <g id="line2d_10">
          <g>
           <use xlink:href="#mddb2f76080" x="63.290625" y="97.093672" style="stroke: #000000; stroke-width: 0.8"/>
          </g>
         </g>
         <g id="text_10">
          <!-- 15000 -->
          <g transform="translate(24.478125 100.892891) scale(0.1 -0.1)">
           <use xlink:href="#DejaVuSans-31"/>
           <use xlink:href="#DejaVuSans-35" x="63.623047"/>
           <use xlink:href="#DejaVuSans-30" x="127.246094"/>
           <use xlink:href="#DejaVuSans-30" x="190.869141"/>
           <use xlink:href="#DejaVuSans-30" x="254.492188"/>
          </g>
         </g>
        </g>
        <g id="ytick_8">
         <g id="line2d_11">
          <g>
           <use xlink:href="#mddb2f76080" x="63.290625" y="59.672305" style="stroke: #000000; stroke-width: 0.8"/>
          </g>
         </g>
         <g id="text_11">
          <!-- 17500 -->
          <g transform="translate(24.478125 63.471524) scale(0.1 -0.1)">
           <use xlink:href="#DejaVuSans-31"/>
           <use xlink:href="#DejaVuSans-37" x="63.623047"/>
           <use xlink:href="#DejaVuSans-35" x="127.246094"/>
           <use xlink:href="#DejaVuSans-30" x="190.869141"/>
           <use xlink:href="#DejaVuSans-30" x="254.492188"/>
          </g>
         </g>
        </g>
        <g id="ytick_9">
         <g id="line2d_12">
          <g>
           <use xlink:href="#mddb2f76080" x="63.290625" y="22.250938" style="stroke: #000000; stroke-width: 0.8"/>
          </g>
         </g>
         <g id="text_12">
          <!-- 20000 -->
          <g transform="translate(24.478125 26.050157) scale(0.1 -0.1)">
           <use xlink:href="#DejaVuSans-32"/>
           <use xlink:href="#DejaVuSans-30" x="63.623047"/>
           <use xlink:href="#DejaVuSans-30" x="127.246094"/>
           <use xlink:href="#DejaVuSans-30" x="190.869141"/>
           <use xlink:href="#DejaVuSans-30" x="254.492188"/>
          </g>
         </g>
        </g>
        <g id="text_13">
         <!-- time ago (generations) -->
         <g transform="translate(18.398438 223.682031) rotate(-90) scale(0.1 -0.1)">
          <defs>
           <path id="DejaVuSans-74" d="M 1172 4494 
L 1172 3500 
L 2356 3500 
L 2356 3053 
L 1172 3053 
L 1172 1153 
Q 1172 725 1289 603 
Q 1406 481 1766 481 
L 2356 481 
L 2356 0 
L 1766 0 
Q 1100 0 847 248 
Q 594 497 594 1153 
L 594 3053 
L 172 3053 
L 172 3500 
L 594 3500 
L 594 4494 
L 1172 4494 
z
" transform="scale(0.015625)"/>
           <path id="DejaVuSans-69" d="M 603 3500 
L 1178 3500 
L 1178 0 
L 603 0 
L 603 3500 
z
M 603 4863 
L 1178 4863 
L 1178 4134 
L 603 4134 
L 603 4863 
z
" transform="scale(0.015625)"/>
           <path id="DejaVuSans-6d" d="M 3328 2828 
Q 3544 3216 3844 3400 
Q 4144 3584 4550 3584 
Q 5097 3584 5394 3201 
Q 5691 2819 5691 2113 
L 5691 0 
L 5113 0 
L 5113 2094 
Q 5113 2597 4934 2840 
Q 4756 3084 4391 3084 
Q 3944 3084 3684 2787 
Q 3425 2491 3425 1978 
L 3425 0 
L 2847 0 
L 2847 2094 
Q 2847 2600 2669 2842 
Q 2491 3084 2119 3084 
Q 1678 3084 1418 2786 
Q 1159 2488 1159 1978 
L 1159 0 
L 581 0 
L 581 3500 
L 1159 3500 
L 1159 2956 
Q 1356 3278 1631 3431 
Q 1906 3584 2284 3584 
Q 2666 3584 2933 3390 
Q 3200 3197 3328 2828 
z
" transform="scale(0.015625)"/>
           <path id="DejaVuSans-65" d="M 3597 1894 
L 3597 1613 
L 953 1613 
Q 991 1019 1311 708 
Q 1631 397 2203 397 
Q 2534 397 2845 478 
Q 3156 559 3463 722 
L 3463 178 
Q 3153 47 2828 -22 
Q 2503 -91 2169 -91 
Q 1331 -91 842 396 
Q 353 884 353 1716 
Q 353 2575 817 3079 
Q 1281 3584 2069 3584 
Q 2775 3584 3186 3129 
Q 3597 2675 3597 1894 
z
M 3022 2063 
Q 3016 2534 2758 2815 
Q 2500 3097 2075 3097 
Q 1594 3097 1305 2825 
Q 1016 2553 972 2059 
L 3022 2063 
z
" transform="scale(0.015625)"/>
           <path id="DejaVuSans-20" transform="scale(0.015625)"/>
           <path id="DejaVuSans-61" d="M 2194 1759 
Q 1497 1759 1228 1600 
Q 959 1441 959 1056 
Q 959 750 1161 570 
Q 1363 391 1709 391 
Q 2188 391 2477 730 
Q 2766 1069 2766 1631 
L 2766 1759 
L 2194 1759 
z
M 3341 1997 
L 3341 0 
L 2766 0 
L 2766 531 
Q 2569 213 2275 61 
Q 1981 -91 1556 -91 
Q 1019 -91 701 211 
Q 384 513 384 1019 
Q 384 1609 779 1909 
Q 1175 2209 1959 2209 
L 2766 2209 
L 2766 2266 
Q 2766 2663 2505 2880 
Q 2244 3097 1772 3097 
Q 1472 3097 1187 3025 
Q 903 2953 641 2809 
L 641 3341 
Q 956 3463 1253 3523 
Q 1550 3584 1831 3584 
Q 2591 3584 2966 3190 
Q 3341 2797 3341 1997 
z
" transform="scale(0.015625)"/>
           <path id="DejaVuSans-67" d="M 2906 1791 
Q 2906 2416 2648 2759 
Q 2391 3103 1925 3103 
Q 1463 3103 1205 2759 
Q 947 2416 947 1791 
Q 947 1169 1205 825 
Q 1463 481 1925 481 
Q 2391 481 2648 825 
Q 2906 1169 2906 1791 
z
M 3481 434 
Q 3481 -459 3084 -895 
Q 2688 -1331 1869 -1331 
Q 1566 -1331 1297 -1286 
Q 1028 -1241 775 -1147 
L 775 -588 
Q 1028 -725 1275 -790 
Q 1522 -856 1778 -856 
Q 2344 -856 2625 -561 
Q 2906 -266 2906 331 
L 2906 616 
Q 2728 306 2450 153 
Q 2172 0 1784 0 
Q 1141 0 747 490 
Q 353 981 353 1791 
Q 353 2603 747 3093 
Q 1141 3584 1784 3584 
Q 2172 3584 2450 3431 
Q 2728 3278 2906 2969 
L 2906 3500 
L 3481 3500 
L 3481 434 
z
" transform="scale(0.015625)"/>
           <path id="DejaVuSans-6f" d="M 1959 3097 
Q 1497 3097 1228 2736 
Q 959 2375 959 1747 
Q 959 1119 1226 758 
Q 1494 397 1959 397 
Q 2419 397 2687 759 
Q 2956 1122 2956 1747 
Q 2956 2369 2687 2733 
Q 2419 3097 1959 3097 
z
M 1959 3584 
Q 2709 3584 3137 3096 
Q 3566 2609 3566 1747 
Q 3566 888 3137 398 
Q 2709 -91 1959 -91 
Q 1206 -91 779 398 
Q 353 888 353 1747 
Q 353 2609 779 3096 
Q 1206 3584 1959 3584 
z
" transform="scale(0.015625)"/>
           <path id="DejaVuSans-28" d="M 1984 4856 
Q 1566 4138 1362 3434 
Q 1159 2731 1159 2009 
Q 1159 1288 1364 580 
Q 1569 -128 1984 -844 
L 1484 -844 
Q 1016 -109 783 600 
Q 550 1309 550 2009 
Q 550 2706 781 3412 
Q 1013 4119 1484 4856 
L 1984 4856 
z
" transform="scale(0.015625)"/>
           <path id="DejaVuSans-6e" d="M 3513 2113 
L 3513 0 
L 2938 0 
L 2938 2094 
Q 2938 2591 2744 2837 
Q 2550 3084 2163 3084 
Q 1697 3084 1428 2787 
Q 1159 2491 1159 1978 
L 1159 0 
L 581 0 
L 581 3500 
L 1159 3500 
L 1159 2956 
Q 1366 3272 1645 3428 
Q 1925 3584 2291 3584 
Q 2894 3584 3203 3211 
Q 3513 2838 3513 2113 
z
" transform="scale(0.015625)"/>
           <path id="DejaVuSans-72" d="M 2631 2963 
Q 2534 3019 2420 3045 
Q 2306 3072 2169 3072 
Q 1681 3072 1420 2755 
Q 1159 2438 1159 1844 
L 1159 0 
L 581 0 
L 581 3500 
L 1159 3500 
L 1159 2956 
Q 1341 3275 1631 3429 
Q 1922 3584 2338 3584 
Q 2397 3584 2469 3576 
Q 2541 3569 2628 3553 
L 2631 2963 
z
" transform="scale(0.015625)"/>
           <path id="DejaVuSans-73" d="M 2834 3397 
L 2834 2853 
Q 2591 2978 2328 3040 
Q 2066 3103 1784 3103 
Q 1356 3103 1142 2972 
Q 928 2841 928 2578 
Q 928 2378 1081 2264 
Q 1234 2150 1697 2047 
L 1894 2003 
Q 2506 1872 2764 1633 
Q 3022 1394 3022 966 
Q 3022 478 2636 193 
Q 2250 -91 1575 -91 
Q 1294 -91 989 -36 
Q 684 19 347 128 
L 347 722 
Q 666 556 975 473 
Q 1284 391 1588 391 
Q 1994 391 2212 530 
Q 2431 669 2431 922 
Q 2431 1156 2273 1281 
Q 2116 1406 1581 1522 
L 1381 1569 
Q 847 1681 609 1914 
Q 372 2147 372 2553 
Q 372 3047 722 3315 
Q 1072 3584 1716 3584 
Q 2034 3584 2315 3537 
Q 2597 3491 2834 3397 
z
" transform="scale(0.015625)"/>
           <path id="DejaVuSans-29" d="M 513 4856 
L 1013 4856 
Q 1481 4119 1714 3412 
Q 1947 2706 1947 2009 
Q 1947 1309 1714 600 
Q 1481 -109 1013 -844 
L 513 -844 
Q 928 -128 1133 580 
Q 1338 1288 1338 2009 
Q 1338 2731 1133 3434 
Q 928 4138 513 4856 
z
" transform="scale(0.015625)"/>
          </defs>
          <use xlink:href="#DejaVuSans-74"/>
          <use xlink:href="#DejaVuSans-69" x="39.208984"/>
          <use xlink:href="#DejaVuSans-6d" x="66.992188"/>
          <use xlink:href="#DejaVuSans-65" x="164.404297"/>
          <use xlink:href="#DejaVuSans-20" x="225.927734"/>
          <use xlink:href="#DejaVuSans-61" x="257.714844"/>
          <use xlink:href="#DejaVuSans-67" x="318.994141"/>
          <use xlink:href="#DejaVuSans-6f" x="382.470703"/>
          <use xlink:href="#DejaVuSans-20" x="443.652344"/>
          <use xlink:href="#DejaVuSans-28" x="475.439453"/>
          <use xlink:href="#DejaVuSans-67" x="514.453125"/>
          <use xlink:href="#DejaVuSans-65" x="577.929688"/>
          <use xlink:href="#DejaVuSans-6e" x="639.453125"/>
          <use xlink:href="#DejaVuSans-65" x="702.832031"/>
          <use xlink:href="#DejaVuSans-72" x="764.355469"/>
          <use xlink:href="#DejaVuSans-61" x="805.46875"/>
          <use xlink:href="#DejaVuSans-74" x="866.748047"/>
          <use xlink:href="#DejaVuSans-69" x="905.957031"/>
          <use xlink:href="#DejaVuSans-6f" x="933.740234"/>
          <use xlink:href="#DejaVuSans-6e" x="994.921875"/>
          <use xlink:href="#DejaVuSans-73" x="1058.300781"/>
          <use xlink:href="#DejaVuSans-29" x="1110.400391"/>
         </g>
        </g>
       </g>
       <g id="patch_7">
        <path d="M 284.067885 285.113589 
L 283.067885 285.082153 
L 282.067885 285.045213 
L 281.067885 284.947466 
L 280.067885 284.914944 
L 279.067885 284.84132 
L 278.067885 284.802754 
L 277.067885 284.767341 
L 276.067885 284.709701 
L 275.067885 284.639315 
L 274.067885 284.587351 
L 273.067885 284.528261 
L 272.067885 284.43994 
L 271.067885 284.393796 
L 270.067885 284.351385 
L 269.067885 284.320892 
L 268.067885 284.294847 
L 267.067885 284.273647 
L 266.067885 284.219346 
L 265.067885 284.191408 
L 264.067885 284.161684 
L 263.067885 284.13629 
L 262.067885 284.125089 
L 261.067885 284.114965 
L 260.067885 284.115169 
L 259.067885 284.124679 
L 258.067885 284.136333 
L 257.067885 284.167362 
L 256.067885 284.17853 
L 255.067885 284.208648 
L 254.067885 284.268425 
L 253.067885 284.305616 
L 252.067885 284.344712 
L 251.067885 284.387152 
L 250.067885 284.419917 
L 249.067885 284.487343 
L 248.067885 284.526469 
L 247.067885 284.569144 
L 246.067885 284.639724 
L 245.067885 284.676115 
L 244.067885 284.734519 
L 243.067885 284.845471 
L 242.067885 284.916129 
L 241.067885 285.029069 
L 240.067885 285.074842 
L 239.067885 285.136125 
L 238.067885 285.184625 
L 237.067885 285.265447 
L 236.067885 285.383966 
L 235.067885 285.454177 
L 234.067885 285.537439 
L 233.067885 285.570581 
L 232.067885 285.621818 
L 231.067885 285.690217 
L 230.067885 285.756432 
L 228.652576 285.833349 
" clip-path="url(#pc84ba53970)" style="fill: none; stroke: #ffffff; stroke-width: 3; stroke-linecap: round"/>
        <path d="M 284.067885 285.113589 
L 283.067885 285.082153 
L 282.067885 285.045213 
L 281.067885 284.947466 
L 280.067885 284.914944 
L 279.067885 284.84132 
L 278.067885 284.802754 
L 277.067885 284.767341 
L 276.067885 284.709701 
L 275.067885 284.639315 
L 274.067885 284.587351 
L 273.067885 284.528261 
L 272.067885 284.43994 
L 271.067885 284.393796 
L 270.067885 284.351385 
L 269.067885 284.320892 
L 268.067885 284.294847 
L 267.067885 284.273647 
L 266.067885 284.219346 
L 265.067885 284.191408 
L 264.067885 284.161684 
L 263.067885 284.13629 
L 262.067885 284.125089 
L 261.067885 284.114965 
L 260.067885 284.115169 
L 259.067885 284.124679 
L 258.067885 284.136333 
L 257.067885 284.167362 
L 256.067885 284.17853 
L 255.067885 284.208648 
L 254.067885 284.268425 
L 253.067885 284.305616 
L 252.067885 284.344712 
L 251.067885 284.387152 
L 250.067885 284.419917 
L 249.067885 284.487343 
L 248.067885 284.526469 
L 247.067885 284.569144 
L 246.067885 284.639724 
L 245.067885 284.676115 
L 244.067885 284.734519 
L 243.067885 284.845471 
L 242.067885 284.916129 
L 241.067885 285.029069 
L 240.067885 285.074842 
L 239.067885 285.136125 
L 238.067885 285.184625 
L 237.067885 285.265447 
L 236.067885 285.383966 
L 235.067885 285.454177 
L 234.067885 285.537439 
L 233.067885 285.570581 
L 232.067885 285.621818 
L 231.067885 285.690217 
L 230.067885 285.756432 
L 228.652576 285.833349 
" clip-path="url(#pc84ba53970)" style="fill: none; stroke: #1f77b4; stroke-linecap: round"/>
        <path d="M 232.652576 287.113589 
L 231.772208 286.638258 
L 230.894301 286.158004 
L 230.043587 285.623363 
L 228.741413 284.935916 
L 229.668766 284.909901 
L 230.58044 284.497182 
L 231.490705 284.081642 
L 232.8332 283.474838 
L 232.178302 284.113589 
L 232.126337 285.113589 
L 232.067248 287.113589 
z
" clip-path="url(#pc84ba53970)" style="fill: #ffffff; stroke: #ffffff; stroke-width: 3; stroke-linecap: round"/>
        <path d="M 232.652576 287.113589 
L 231.772208 286.638258 
L 230.894301 286.158004 
L 230.043587 285.623363 
L 228.741413 284.935916 
L 229.668766 284.909901 
L 230.58044 284.497182 
L 231.490705 284.081642 
L 232.8332 283.474838 
L 232.178302 284.113589 
L 232.126337 285.113589 
L 232.067248 287.113589 
z
" clip-path="url(#pc84ba53970)" style="fill: #ffffff; stroke: #1f77b4; stroke-linecap: round"/>
        <g id="patch_8">
         <path d="M 379.010264 72.964375 
L 380.010264 72.995811 
L 381.010264 73.032752 
L 382.010264 73.130498 
L 383.010264 73.16302 
L 384.010264 73.236645 
L 385.010264 73.27521 
L 386.010264 73.310623 
L 387.010264 73.368263 
L 388.010264 73.438649 
L 389.010264 73.490614 
L 390.010264 73.549703 
L 391.010264 73.638024 
L 392.010264 73.684169 
L 393.010264 73.72658 
L 394.010264 73.757072 
L 395.010264 73.783117 
L 396.010264 73.804317 
L 397.010264 73.858618 
L 398.010264 73.886556 
L 399.010264 73.91628 
L 400.010264 73.941675 
L 401.010264 73.952875 
L 402.010264 73.962999 
L 403.010264 73.962795 
L 404.010264 73.953285 
L 405.010264 73.941631 
L 406.010264 73.910602 
L 407.010264 73.899434 
L 408.010264 73.869317 
L 409.010264 73.80954 
L 410.010264 73.772348 
L 411.010264 73.733252 
L 412.010264 73.690812 
L 413.010264 73.658047 
L 414.010264 73.590621 
L 415.010264 73.551495 
L 416.010264 73.50882 
L 417.010264 73.43824 
L 418.010264 73.401849 
L 419.010264 73.343446 
L 420.010264 73.232493 
L 421.010264 73.161835 
L 422.010264 73.048895 
L 423.010264 73.003122 
L 424.010264 72.941839 
L 425.010264 72.89334 
L 426.010264 72.812517 
L 427.010264 72.693998 
L 428.010264 72.623787 
L 429.010264 72.540525 
L 430.010264 72.507383 
L 431.010264 72.456146 
L 432.010264 72.387747 
L 433.010264 72.321532 
L 434.010264 72.244615 
L 435.010264 72.217299 
L 436.010264 72.190822 
L 437.010264 72.168171 
L 438.010264 72.14864 
L 439.010264 72.122246 
L 440.010264 72.072475 
L 441.010264 72.037402 
L 442.010264 72.001536 
L 443.010264 71.986169 
L 444.010264 71.9704 
L 445.010264 71.966987 
L 446.010264 71.96457 
L 447.010264 71.965056 
L 448.010264 71.966985 
L 449.010264 71.980242 
L 450.010264 71.988633 
L 451.010264 72.010169 
L 452.010264 72.033202 
L 453.010264 72.050435 
L 454.010264 72.068898 
L 455.010264 72.08935 
L 456.010264 72.10595 
L 457.010264 72.168729 
L 458.010264 72.243994 
L 459.010264 72.276633 
L 460.010264 72.344197 
L 461.010264 72.398244 
L 462.010264 72.431948 
L 463.010264 72.522074 
L 464.010264 72.550609 
L 465.010264 72.582095 
L 466.010264 72.613106 
L 467.010264 72.667914 
L 468.010264 72.732501 
L 469.010264 72.770697 
L 470.010264 72.866631 
L 471.010264 72.915889 
L 472.010264 72.959958 
L 473.010264 73.000082 
L 474.010264 73.108449 
L 475.010264 73.150077 
L 476.010264 73.212219 
L 477.010264 73.282181 
L 478.010264 73.386685 
L 479.010264 73.423673 
L 480.010264 73.46955 
L 481.010264 73.538045 
L 482.010264 73.586791 
L 483.010264 73.664388 
L 484.010264 73.694929 
L 485.010264 73.764443 
L 486.010264 73.788416 
L 487.010264 73.817038 
L 488.010264 73.858831 
L 489.010264 73.880407 
L 490.010264 73.894355 
L 491.010264 73.921077 
L 492.010264 73.930387 
L 493.010264 73.942834 
L 494.010264 73.953889 
L 495.010264 73.959553 
L 496.010264 73.964317 
L 497.010264 73.958769 
L 498.010264 73.945481 
L 499.010264 73.937964 
L 500.010264 73.913179 
L 501.010264 73.88961 
L 502.010264 73.85343 
L 503.010264 73.827468 
L 504.010264 73.805146 
L 505.010264 73.736386 
L 506.010264 73.661851 
L 507.010264 73.567872 
L 508.010264 73.51682 
L 509.010264 73.462886 
L 510.010264 73.427635 
L 511.010264 73.321547 
L 512.010264 73.269283 
L 513.010264 73.232376 
L 514.010264 73.201345 
L 515.010264 73.14019 
L 516.010264 73.07277 
L 517.010264 73.023864 
L 518.010264 72.958672 
L 519.010264 72.920484 
L 520.010264 72.878488 
L 521.010264 72.836471 
L 522.010264 72.776955 
L 523.010264 72.663795 
L 524.010264 72.611544 
L 525.010264 72.572126 
L 526.010264 72.525025 
L 527.010264 72.468245 
L 528.010264 72.435582 
L 529.010264 72.399404 
L 530.010264 72.367314 
L 531.010264 72.333034 
L 532.010264 72.274656 
L 533.010264 72.229471 
L 534.010264 72.199847 
L 535.010264 72.149461 
L 536.010264 72.124264 
L 537.010264 72.103213 
L 538.010264 72.068245 
L 539.010264 72.043955 
L 540.010264 72.029888 
L 541.010264 72.010946 
L 542.010264 71.995285 
L 543.010264 71.982733 
L 544.010264 71.976897 
L 545.010264 71.970015 
L 546.010264 71.964841 
L 547.167667 71.966624 
" clip-path="url(#pc84ba53970)" style="fill: none; stroke: #ffffff; stroke-width: 3; stroke-linecap: round"/>
         <path d="M 379.010264 72.964375 
L 380.010264 72.995811 
L 381.010264 73.032752 
L 382.010264 73.130498 
L 383.010264 73.16302 
L 384.010264 73.236645 
L 385.010264 73.27521 
L 386.010264 73.310623 
L 387.010264 73.368263 
L 388.010264 73.438649 
L 389.010264 73.490614 
L 390.010264 73.549703 
L 391.010264 73.638024 
L 392.010264 73.684169 
L 393.010264 73.72658 
L 394.010264 73.757072 
L 395.010264 73.783117 
L 396.010264 73.804317 
L 397.010264 73.858618 
L 398.010264 73.886556 
L 399.010264 73.91628 
L 400.010264 73.941675 
L 401.010264 73.952875 
L 402.010264 73.962999 
L 403.010264 73.962795 
L 404.010264 73.953285 
L 405.010264 73.941631 
L 406.010264 73.910602 
L 407.010264 73.899434 
L 408.010264 73.869317 
L 409.010264 73.80954 
L 410.010264 73.772348 
L 411.010264 73.733252 
L 412.010264 73.690812 
L 413.010264 73.658047 
L 414.010264 73.590621 
L 415.010264 73.551495 
L 416.010264 73.50882 
L 417.010264 73.43824 
L 418.010264 73.401849 
L 419.010264 73.343446 
L 420.010264 73.232493 
L 421.010264 73.161835 
L 422.010264 73.048895 
L 423.010264 73.003122 
L 424.010264 72.941839 
L 425.010264 72.89334 
L 426.010264 72.812517 
L 427.010264 72.693998 
L 428.010264 72.623787 
L 429.010264 72.540525 
L 430.010264 72.507383 
L 431.010264 72.456146 
L 432.010264 72.387747 
L 433.010264 72.321532 
L 434.010264 72.244615 
L 435.010264 72.217299 
L 436.010264 72.190822 
L 437.010264 72.168171 
L 438.010264 72.14864 
L 439.010264 72.122246 
L 440.010264 72.072475 
L 441.010264 72.037402 
L 442.010264 72.001536 
L 443.010264 71.986169 
L 444.010264 71.9704 
L 445.010264 71.966987 
L 446.010264 71.96457 
L 447.010264 71.965056 
L 448.010264 71.966985 
L 449.010264 71.980242 
L 450.010264 71.988633 
L 451.010264 72.010169 
L 452.010264 72.033202 
L 453.010264 72.050435 
L 454.010264 72.068898 
L 455.010264 72.08935 
L 456.010264 72.10595 
L 457.010264 72.168729 
L 458.010264 72.243994 
L 459.010264 72.276633 
L 460.010264 72.344197 
L 461.010264 72.398244 
L 462.010264 72.431948 
L 463.010264 72.522074 
L 464.010264 72.550609 
L 465.010264 72.582095 
L 466.010264 72.613106 
L 467.010264 72.667914 
L 468.010264 72.732501 
L 469.010264 72.770697 
L 470.010264 72.866631 
L 471.010264 72.915889 
L 472.010264 72.959958 
L 473.010264 73.000082 
L 474.010264 73.108449 
L 475.010264 73.150077 
L 476.010264 73.212219 
L 477.010264 73.282181 
L 478.010264 73.386685 
L 479.010264 73.423673 
L 480.010264 73.46955 
L 481.010264 73.538045 
L 482.010264 73.586791 
L 483.010264 73.664388 
L 484.010264 73.694929 
L 485.010264 73.764443 
L 486.010264 73.788416 
L 487.010264 73.817038 
L 488.010264 73.858831 
L 489.010264 73.880407 
L 490.010264 73.894355 
L 491.010264 73.921077 
L 492.010264 73.930387 
L 493.010264 73.942834 
L 494.010264 73.953889 
L 495.010264 73.959553 
L 496.010264 73.964317 
L 497.010264 73.958769 
L 498.010264 73.945481 
L 499.010264 73.937964 
L 500.010264 73.913179 
L 501.010264 73.88961 
L 502.010264 73.85343 
L 503.010264 73.827468 
L 504.010264 73.805146 
L 505.010264 73.736386 
L 506.010264 73.661851 
L 507.010264 73.567872 
L 508.010264 73.51682 
L 509.010264 73.462886 
L 510.010264 73.427635 
L 511.010264 73.321547 
L 512.010264 73.269283 
L 513.010264 73.232376 
L 514.010264 73.201345 
L 515.010264 73.14019 
L 516.010264 73.07277 
L 517.010264 73.023864 
L 518.010264 72.958672 
L 519.010264 72.920484 
L 520.010264 72.878488 
L 521.010264 72.836471 
L 522.010264 72.776955 
L 523.010264 72.663795 
L 524.010264 72.611544 
L 525.010264 72.572126 
L 526.010264 72.525025 
L 527.010264 72.468245 
L 528.010264 72.435582 
L 529.010264 72.399404 
L 530.010264 72.367314 
L 531.010264 72.333034 
L 532.010264 72.274656 
L 533.010264 72.229471 
L 534.010264 72.199847 
L 535.010264 72.149461 
L 536.010264 72.124264 
L 537.010264 72.103213 
L 538.010264 72.068245 
L 539.010264 72.043955 
L 540.010264 72.029888 
L 541.010264 72.010946 
L 542.010264 71.995285 
L 543.010264 71.982733 
L 544.010264 71.976897 
L 545.010264 71.970015 
L 546.010264 71.964841 
L 547.167667 71.966624 
" clip-path="url(#pc84ba53970)" style="fill: none; stroke: #1f77b4; stroke-linecap: round"/>
         <path d="M 543.167667 70.964375 
L 544.048035 71.439706 
L 544.925942 71.91996 
L 545.776656 72.454601 
L 547.07883 73.142048 
L 546.151477 73.168063 
L 545.239803 73.580783 
L 544.329538 73.996322 
L 542.987043 74.603126 
L 543.641941 73.964375 
L 543.693906 72.964375 
L 543.752995 70.964375 
z
" clip-path="url(#pc84ba53970)" style="fill: #ffffff; stroke: #ffffff; stroke-width: 3; stroke-linecap: round"/>
         <path d="M 543.167667 70.964375 
L 544.048035 71.439706 
L 544.925942 71.91996 
L 545.776656 72.454601 
L 547.07883 73.142048 
L 546.151477 73.168063 
L 545.239803 73.580783 
L 544.329538 73.996322 
L 542.987043 74.603126 
L 543.641941 73.964375 
L 543.693906 72.964375 
L 543.752995 70.964375 
z
" clip-path="url(#pc84ba53970)" style="fill: #ffffff; stroke: #1f77b4; stroke-linecap: round"/>
         <g id="patch_9">
          <path d="M 379.008082 285.113589 
L 380.008082 285.145026 
L 381.008082 285.181966 
L 382.008082 285.279713 
L 383.008082 285.312234 
L 384.008082 285.385859 
L 385.008082 285.424425 
L 386.008082 285.459838 
L 387.008082 285.517478 
L 388.008082 285.587864 
L 389.008082 285.639828 
L 390.008082 285.698918 
L 391.008082 285.787239 
L 392.008082 285.833383 
L 393.008082 285.875794 
L 394.008082 285.906287 
L 395.008082 285.932332 
L 396.008082 285.953532 
L 397.008082 286.007833 
L 398.008082 286.03577 
L 399.008082 286.065494 
L 400.008082 286.090889 
L 401.008082 286.10209 
L 402.008082 286.112213 
L 403.008082 286.112009 
L 404.008082 286.102499 
L 405.008082 286.090846 
L 406.008082 286.059816 
L 407.008082 286.048649 
L 408.008082 286.018531 
L 409.008082 285.958754 
L 410.008082 285.921563 
L 411.008082 285.882466 
L 412.008082 285.840027 
L 413.008082 285.807262 
L 414.008082 285.739835 
L 415.008082 285.700709 
L 416.008082 285.658035 
L 417.008082 285.587454 
L 418.008082 285.551063 
L 419.008082 285.49266 
L 420.008082 285.381708 
L 421.008082 285.311049 
L 422.008082 285.198109 
L 423.008082 285.152337 
L 424.008082 285.091053 
L 425.008082 285.042554 
L 426.008082 284.961731 
L 427.008082 284.843212 
L 428.008082 284.773002 
L 429.884795 284.689739 
" clip-path="url(#pc84ba53970)" style="fill: none; stroke: #ffffff; stroke-width: 3; stroke-linecap: round"/>
          <path d="M 379.008082 285.113589 
L 380.008082 285.145026 
L 381.008082 285.181966 
L 382.008082 285.279713 
L 383.008082 285.312234 
L 384.008082 285.385859 
L 385.008082 285.424425 
L 386.008082 285.459838 
L 387.008082 285.517478 
L 388.008082 285.587864 
L 389.008082 285.639828 
L 390.008082 285.698918 
L 391.008082 285.787239 
L 392.008082 285.833383 
L 393.008082 285.875794 
L 394.008082 285.906287 
L 395.008082 285.932332 
L 396.008082 285.953532 
L 397.008082 286.007833 
L 398.008082 286.03577 
L 399.008082 286.065494 
L 400.008082 286.090889 
L 401.008082 286.10209 
L 402.008082 286.112213 
L 403.008082 286.112009 
L 404.008082 286.102499 
L 405.008082 286.090846 
L 406.008082 286.059816 
L 407.008082 286.048649 
L 408.008082 286.018531 
L 409.008082 285.958754 
L 410.008082 285.921563 
L 411.008082 285.882466 
L 412.008082 285.840027 
L 413.008082 285.807262 
L 414.008082 285.739835 
L 415.008082 285.700709 
L 416.008082 285.658035 
L 417.008082 285.587454 
L 418.008082 285.551063 
L 419.008082 285.49266 
L 420.008082 285.381708 
L 421.008082 285.311049 
L 422.008082 285.198109 
L 423.008082 285.152337 
L 424.008082 285.091053 
L 425.008082 285.042554 
L 426.008082 284.961731 
L 427.008082 284.843212 
L 428.008082 284.773002 
L 429.884795 284.689739 
" clip-path="url(#pc84ba53970)" style="fill: none; stroke: #1f77b4; stroke-linecap: round"/>
          <path d="M 425.884795 283.113589 
L 426.765164 283.58892 
L 427.643071 284.069174 
L 428.493784 284.603815 
L 429.795959 285.291263 
L 428.868605 285.317278 
L 427.956931 285.729997 
L 427.046667 286.145536 
L 425.704171 286.752341 
L 426.35907 286.113589 
L 426.411034 285.113589 
L 426.470124 283.113589 
z
" clip-path="url(#pc84ba53970)" style="fill: #ffffff; stroke: #ffffff; stroke-width: 3; stroke-linecap: round"/>
          <path d="M 425.884795 283.113589 
L 426.765164 283.58892 
L 427.643071 284.069174 
L 428.493784 284.603815 
L 429.795959 285.291263 
L 428.868605 285.317278 
L 427.956931 285.729997 
L 427.046667 286.145536 
L 425.704171 286.752341 
L 426.35907 286.113589 
L 426.411034 285.113589 
L 426.470124 283.113589 
z
" clip-path="url(#pc84ba53970)" style="fill: #ffffff; stroke: #1f77b4; stroke-linecap: round"/>
          <path d="M 468.600227 298.839747 
" clip-path="url(#pc84ba53970)" style="fill: none; stroke-dasharray: 3.7,1.6; stroke-dashoffset: 0; stroke: #2ca02c"/>
          <path d="M 467.600227 298.839747 
L 469.600227 299.839747 
L 469.600227 297.839747 
z
" clip-path="url(#pc84ba53970)" style="fill: #2ca02c; stroke: #2ca02c; stroke-linejoin: miter"/>
          <g id="patch_10">
           <path d="M 63.290625 321.621875 
L 63.290625 10.8 
" style="fill: none; stroke: #000000; stroke-width: 0.8; stroke-linejoin: miter; stroke-linecap: square"/>
          </g>
          <g id="text_14">
           <g id="patch_11">
            <path d="M 320.885316 154.795857 
L 342.190004 154.795857 
Q 344.190004 154.795857 344.190004 152.795857 
L 344.190004 143.117732 
Q 344.190004 141.117732 342.190004 141.117732 
L 320.885316 141.117732 
Q 318.885316 141.117732 318.885316 143.117732 
L 318.885316 152.795857 
Q 318.885316 154.795857 320.885316 154.795857 
z
" style="fill: #ffffff; opacity: 0.6"/>
           </g>
           <!-- ANC -->
           <g transform="translate(320.885316 150.71617) scale(0.1 -0.1)">
            <defs>
             <path id="DejaVuSans-4e" d="M 628 4666 
L 1478 4666 
L 3547 763 
L 3547 4666 
L 4159 4666 
L 4159 0 
L 3309 0 
L 1241 3903 
L 1241 0 
L 628 0 
L 628 4666 
z
" transform="scale(0.015625)"/>
            </defs>
            <use xlink:href="#DejaVuSans-41"/>
            <use xlink:href="#DejaVuSans-4e" x="68.408203"/>
            <use xlink:href="#DejaVuSans-43" x="143.212891"/>
           </g>
          </g>
         </g>
        </g>
        <defs>
         <clipPath id="pc84ba53970">
          <rect x="63.290625" y="10.8" width="540.309375" height="310.821875"/>
         </clipPath>
        </defs>
       </g>
      </g>
     </g>
    </g>
   </g>
  </g>
 </g>
</svg>
