<?xml version="1.0" encoding="utf-8" standalone="no"?>
<!DOCTYPE svg PUBLIC "-//W3C//DTD SVG 1.1//EN"
  "http://www.w3.org/Graphics/SVG/1.1/DTD/svg11.dtd">
<svg xmlns:xlink="http://www.w3.org/1999/xlink" width="614.4pt" height="345.6pt" viewBox="0 0 614.4 345.6" xmlns="http://www.w3.org/2000/svg" version="1.1">
 <metadata>
  <rdf:RDF xmlns:dc="http://purl.org/dc/elements/1.1/" xmlns:cc="http://creativecommons.org/ns#" xmlns:rdf="http://www.w3.org/1999/02/22-rdf-syntax-ns#">
   <cc:Work>
    <dc:type rdf:resource="http://purl.org/dc/dcmitype/StillImage"/>
    <dc:date>2024-04-17T19:48:48.408428</dc:date>
    <dc:format>image/svg+xml</dc:format>
    <dc:creator>
     <cc:Agent>
      <dc:title>Matplotlib v3.7.1, https://matplotlib.org/</dc:title>
     </cc:Agent>
    </dc:creator>
   </cc:Work>
  </rdf:RDF>
 </metadata>
 <defs>
  <style type="text/css">*{stroke-linejoin: round; stroke-linecap: butt}</style>
 </defs>
 <g id="figure_1">
  <g id="patch_1">
   <path d="M 0 345.6 
L 614.4 345.6 
L 614.4 0 
L 0 0 
z
" style="fill: #ffffff"/>
  </g>
  <g id="axes_1">
   <g id="patch_2">
    <path d="M 63.290625 321.621875 
L 603.6 321.621875 
L 603.6 10.8 
L 63.290625 10.8 
z
" style="fill: #ffffff"/>
   </g>
   <path d="M 558.799259 305.593073 
L 557.799259 305.561636 
L 556.799259 305.524696 
L 555.799259 305.426949 
L 554.799259 305.394428 
L 553.799259 305.320803 
L 552.799259 305.282237 
L 551.799259 305.246824 
L 550.799259 305.189184 
L 549.799259 305.118798 
L 548.799259 305.066834 
L 547.799259 305.007744 
L 546.799259 304.919423 
L 545.799259 304.873279 
L 544.799259 304.830868 
L 543.799259 304.800375 
L 542.799259 304.77433 
L 541.799259 304.75313 
L 540.799259 304.698829 
L 539.799259 304.670892 
L 538.799259 304.641168 
L 537.799259 304.615773 
L 536.799259 304.604572 
L 535.799259 304.594448 
L 534.799259 304.594653 
L 533.799259 304.604163 
L 532.799259 304.615816 
L 531.799259 304.646846 
L 530.799259 304.658013 
L 529.799259 304.688131 
L 528.799259 304.747908 
L 527.799259 304.785099 
L 526.799259 304.824196 
L 525.799259 304.866635 
L 524.799259 304.8994 
L 523.799259 304.966827 
L 522.799259 305.005953 
L 521.799259 305.048627 
L 520.799259 305.119208 
L 519.799259 305.155599 
L 518.799259 305.214002 
L 517.799259 305.324954 
L 516.799259 305.395613 
L 515.799259 305.508553 
L 514.799259 305.554325 
L 513.799259 305.615609 
L 512.799259 305.664108 
L 511.799259 305.744931 
L 510.799259 305.86345 
L 509.799259 305.93366 
L 508.799259 306.016923 
L 507.799259 306.050064 
L 506.799259 306.101302 
L 505.799259 306.1697 
L 504.799259 306.235916 
L 503.799259 306.312833 
L 502.799259 306.340148 
L 501.799259 306.366626 
L 500.799259 306.389276 
L 499.799259 306.408808 
L 498.799259 306.435202 
L 497.799259 306.484972 
L 496.799259 306.520046 
L 495.799259 306.555911 
L 494.799259 306.571278 
L 493.799259 306.587048 
L 492.799259 306.59046 
L 491.799259 306.592878 
L 490.799259 306.592392 
L 489.799259 306.590462 
L 488.799259 306.577206 
L 487.799259 306.568815 
L 486.799259 306.547278 
L 485.799259 306.524246 
L 484.799259 306.507012 
L 483.799259 306.48855 
L 482.799259 306.468097 
L 481.799259 306.451497 
L 480.799259 306.388719 
L 479.799259 306.313454 
L 478.799259 306.280815 
L 477.799259 306.213251 
L 476.799259 306.159204 
L 475.799259 306.1255 
L 474.799259 306.035374 
L 473.799259 306.006839 
L 472.799259 305.975352 
L 471.799259 305.944342 
L 470.799259 305.889534 
L 469.799259 305.824946 
L 468.587975 305.786751 
" clip-path="url(#pa37d8bf338)" style="fill: none; stroke-dasharray: 3.7,1.6; stroke-dashoffset: 0; stroke: #2ca02c"/>
   <g id="patch_3">
    <path d="M 294.522568 10.8 
L 294.522568 274.0179 
M 375.665585 10.8 
L 375.665585 274.0179 
" clip-path="url(#pa37d8bf338)" style="fill: none; stroke: #ffffff; stroke-width: 3; stroke-linejoin: miter"/>
    <path d="M 294.522568 10.8 
L 294.522568 274.0179 
M 375.665585 10.8 
L 375.665585 274.0179 
" clip-path="url(#pa37d8bf338)" style="fill: none; stroke: #1f77b4; stroke-linejoin: miter"/>
    <g id="PolyCollection_1">
     <path d="M 375.665585 10.8 
L 294.522568 10.8 
L 294.522568 274.0179 
L 375.665585 274.0179 
L 375.665585 274.0179 
L 375.665585 10.8 
z
" clip-path="url(#pa37d8bf338)" style="fill: #1f77b4; fill-opacity: 0.5"/>
    </g>
    <g id="patch_4">
     <path d="M 87.850142 274.0179 
L 87.850142 321.621875 
M 227.547 274.0179 
L 227.547 321.621875 
" clip-path="url(#pa37d8bf338)" style="fill: none; stroke: #ffffff; stroke-width: 3; stroke-linejoin: miter"/>
     <path d="M 87.850142 274.0179 
L 87.850142 321.621875 
M 227.547 274.0179 
L 227.547 321.621875 
" clip-path="url(#pa37d8bf338)" style="fill: none; stroke: #ff7f0e; stroke-linejoin: miter"/>
     <g id="PolyCollection_2">
      <path d="M 227.547 274.0179 
L 87.850142 274.0179 
L 87.850142 321.621875 
L 227.547 321.621875 
L 227.547 321.621875 
L 227.547 274.0179 
z
" clip-path="url(#pa37d8bf338)" style="fill: #ff7f0e; fill-opacity: 0.5"/>
     </g>
     <g id="patch_5">
      <path d="M 564.202353 72.964375 
L 564.202353 321.621875 
M 579.040483 72.964375 
L 579.040483 321.621875 
" clip-path="url(#pa37d8bf338)" style="fill: none; stroke: #ffffff; stroke-width: 3; stroke-linejoin: miter"/>
      <path d="M 564.202353 72.964375 
L 564.202353 321.621875 
M 579.040483 72.964375 
L 579.040483 321.621875 
" clip-path="url(#pa37d8bf338)" style="fill: none; stroke: #2ca02c; stroke-linejoin: miter"/>
      <g id="PolyCollection_3">
       <path d="M 579.040483 72.964375 
L 564.202353 72.964375 
L 564.202353 321.621875 
L 579.040483 321.621875 
L 579.040483 321.621875 
L 579.040483 72.964375 
z
" clip-path="url(#pa37d8bf338)" style="fill: #2ca02c; fill-opacity: 0.5"/>
      </g>
      <g id="patch_6">
       <path d="M 443.530613 280.120664 
L 443.530613 321.621875 
M 463.184881 280.120664 
L 463.184881 321.621875 
" clip-path="url(#pa37d8bf338)" style="fill: none; stroke: #ffffff; stroke-width: 3; stroke-linejoin: miter"/>
       <path d="M 443.530613 280.120664 
L 443.530613 321.621875 
M 463.184881 280.120664 
L 463.184881 321.621875 
" clip-path="url(#pa37d8bf338)" style="fill: none; stroke: #d62728; stroke-linejoin: miter"/>
       <g id="PolyCollection_4">
        <path d="M 463.184881 280.120664 
L 443.530613 280.120664 
L 443.530613 321.621875 
L 463.184881 321.621875 
L 463.184881 321.621875 
L 463.184881 280.120664 
z
" clip-path="url(#pa37d8bf338)" style="fill: #d62728; fill-opacity: 0.5"/>
       </g>
       <g id="matplotlib.axis_1">
        <g id="xtick_1">
         <g id="line2d_1"/>
         <g id="text_1">
          <!-- OUT -->
          <g transform="translate(147.049352 332.720312) scale(0.1 -0.1)">
           <defs>
            <path id="DejaVuSans-4f" d="M 2522 4238 
Q 1834 4238 1429 3725 
Q 1025 3213 1025 2328 
Q 1025 1447 1429 934 
Q 1834 422 2522 422 
Q 3209 422 3611 934 
Q 4013 1447 4013 2328 
Q 4013 3213 3611 3725 
Q 3209 4238 2522 4238 
z
M 2522 4750 
Q 3503 4750 4090 4092 
Q 4678 3434 4678 2328 
Q 4678 1225 4090 567 
Q 3503 -91 2522 -91 
Q 1538 -91 948 565 
Q 359 1222 359 2328 
Q 359 3434 948 4092 
Q 1538 4750 2522 4750 
z
" transform="scale(0.015625)"/>
            <path id="DejaVuSans-55" d="M 556 4666 
L 1191 4666 
L 1191 1831 
Q 1191 1081 1462 751 
Q 1734 422 2344 422 
Q 2950 422 3222 751 
Q 3494 1081 3494 1831 
L 3494 4666 
L 4128 4666 
L 4128 1753 
Q 4128 841 3676 375 
Q 3225 -91 2344 -91 
Q 1459 -91 1007 375 
Q 556 841 556 1753 
L 556 4666 
z
" transform="scale(0.015625)"/>
            <path id="DejaVuSans-54" d="M -19 4666 
L 3928 4666 
L 3928 4134 
L 2272 4134 
L 2272 0 
L 1638 0 
L 1638 4134 
L -19 4134 
L -19 4666 
z
" transform="scale(0.015625)"/>
           </defs>
           <use xlink:href="#DejaVuSans-4f"/>
           <use xlink:href="#DejaVuSans-55" x="78.710938"/>
           <use xlink:href="#DejaVuSans-54" x="151.904297"/>
          </g>
         </g>
        </g>
        <g id="xtick_2">
         <g id="line2d_2"/>
         <g id="text_2">
          <!-- SRC -->
          <g transform="translate(561.731574 332.720312) scale(0.1 -0.1)">
           <defs>
            <path id="DejaVuSans-53" d="M 3425 4513 
L 3425 3897 
Q 3066 4069 2747 4153 
Q 2428 4238 2131 4238 
Q 1616 4238 1336 4038 
Q 1056 3838 1056 3469 
Q 1056 3159 1242 3001 
Q 1428 2844 1947 2747 
L 2328 2669 
Q 3034 2534 3370 2195 
Q 3706 1856 3706 1288 
Q 3706 609 3251 259 
Q 2797 -91 1919 -91 
Q 1588 -91 1214 -16 
Q 841 59 441 206 
L 441 856 
Q 825 641 1194 531 
Q 1563 422 1919 422 
Q 2459 422 2753 634 
Q 3047 847 3047 1241 
Q 3047 1584 2836 1778 
Q 2625 1972 2144 2069 
L 1759 2144 
Q 1053 2284 737 2584 
Q 422 2884 422 3419 
Q 422 4038 858 4394 
Q 1294 4750 2059 4750 
Q 2388 4750 2728 4690 
Q 3069 4631 3425 4513 
z
" transform="scale(0.015625)"/>
            <path id="DejaVuSans-52" d="M 2841 2188 
Q 3044 2119 3236 1894 
Q 3428 1669 3622 1275 
L 4263 0 
L 3584 0 
L 2988 1197 
Q 2756 1666 2539 1819 
Q 2322 1972 1947 1972 
L 1259 1972 
L 1259 0 
L 628 0 
L 628 4666 
L 2053 4666 
Q 2853 4666 3247 4331 
Q 3641 3997 3641 3322 
Q 3641 2881 3436 2590 
Q 3231 2300 2841 2188 
z
M 1259 4147 
L 1259 2491 
L 2053 2491 
Q 2509 2491 2742 2702 
Q 2975 2913 2975 3322 
Q 2975 3731 2742 3939 
Q 2509 4147 2053 4147 
L 1259 4147 
z
" transform="scale(0.015625)"/>
            <path id="DejaVuSans-43" d="M 4122 4306 
L 4122 3641 
Q 3803 3938 3442 4084 
Q 3081 4231 2675 4231 
Q 1875 4231 1450 3742 
Q 1025 3253 1025 2328 
Q 1025 1406 1450 917 
Q 1875 428 2675 428 
Q 3081 428 3442 575 
Q 3803 722 4122 1019 
L 4122 359 
Q 3791 134 3420 21 
Q 3050 -91 2638 -91 
Q 1578 -91 968 557 
Q 359 1206 359 2328 
Q 359 3453 968 4101 
Q 1578 4750 2638 4750 
Q 3056 4750 3426 4639 
Q 3797 4528 4122 4306 
z
" transform="scale(0.015625)"/>
           </defs>
           <use xlink:href="#DejaVuSans-53"/>
           <use xlink:href="#DejaVuSans-52" x="63.476562"/>
           <use xlink:href="#DejaVuSans-43" x="127.958984"/>
          </g>
         </g>
        </g>
        <g id="xtick_3">
         <g id="line2d_3"/>
         <g id="text_3">
          <!-- TAR -->
          <g transform="translate(443.79681 332.720312) scale(0.1 -0.1)">
           <defs>
            <path id="DejaVuSans-41" d="M 2188 4044 
L 1331 1722 
L 3047 1722 
L 2188 4044 
z
M 1831 4666 
L 2547 4666 
L 4325 0 
L 3669 0 
L 3244 1197 
L 1141 1197 
L 716 0 
L 50 0 
L 1831 4666 
z
" transform="scale(0.015625)"/>
           </defs>
           <use xlink:href="#DejaVuSans-54"/>
           <use xlink:href="#DejaVuSans-41" x="53.333984"/>
           <use xlink:href="#DejaVuSans-52" x="121.742188"/>
          </g>
         </g>
        </g>
       </g>
       <g id="matplotlib.axis_2">
        <g id="ytick_1">
         <g id="line2d_4">
          <defs>
           <path id="m015f89e3ed" d="M 0 0 
L -3.5 0 
" style="stroke: #000000; stroke-width: 0.8"/>
          </defs>
          <g>
           <use xlink:href="#m015f89e3ed" x="63.290625" y="321.621875" style="stroke: #000000; stroke-width: 0.8"/>
          </g>
         </g>
         <g id="text_4">
          <!-- 0 -->
          <g transform="translate(49.928125 325.421094) scale(0.1 -0.1)">
           <defs>
            <path id="DejaVuSans-30" d="M 2034 4250 
Q 1547 4250 1301 3770 
Q 1056 3291 1056 2328 
Q 1056 1369 1301 889 
Q 1547 409 2034 409 
Q 2525 409 2770 889 
Q 3016 1369 3016 2328 
Q 3016 3291 2770 3770 
Q 2525 4250 2034 4250 
z
M 2034 4750 
Q 2819 4750 3233 4129 
Q 3647 3509 3647 2328 
Q 3647 1150 3233 529 
Q 2819 -91 2034 -91 
Q 1250 -91 836 529 
Q 422 1150 422 2328 
Q 422 3509 836 4129 
Q 1250 4750 2034 4750 
z
" transform="scale(0.015625)"/>
           </defs>
           <use xlink:href="#DejaVuSans-30"/>
          </g>
         </g>
        </g>
        <g id="ytick_2">
         <g id="line2d_5">
          <g>
           <use xlink:href="#m015f89e3ed" x="63.290625" y="261.317878" style="stroke: #000000; stroke-width: 0.8"/>
          </g>
         </g>
         <g id="text_5">
          <!-- 5000 -->
          <g transform="translate(30.840625 265.117097) scale(0.1 -0.1)">
           <defs>
            <path id="DejaVuSans-35" d="M 691 4666 
L 3169 4666 
L 3169 4134 
L 1269 4134 
L 1269 2991 
Q 1406 3038 1543 3061 
Q 1681 3084 1819 3084 
Q 2600 3084 3056 2656 
Q 3513 2228 3513 1497 
Q 3513 744 3044 326 
Q 2575 -91 1722 -91 
Q 1428 -91 1123 -41 
Q 819 9 494 109 
L 494 744 
Q 775 591 1075 516 
Q 1375 441 1709 441 
Q 2250 441 2565 725 
Q 2881 1009 2881 1497 
Q 2881 1984 2565 2268 
Q 2250 2553 1709 2553 
Q 1456 2553 1204 2497 
Q 953 2441 691 2322 
L 691 4666 
z
" transform="scale(0.015625)"/>
           </defs>
           <use xlink:href="#DejaVuSans-35"/>
           <use xlink:href="#DejaVuSans-30" x="63.623047"/>
           <use xlink:href="#DejaVuSans-30" x="127.246094"/>
           <use xlink:href="#DejaVuSans-30" x="190.869141"/>
          </g>
         </g>
        </g>
        <g id="ytick_3">
         <g id="line2d_6">
          <g>
           <use xlink:href="#m015f89e3ed" x="63.290625" y="201.013882" style="stroke: #000000; stroke-width: 0.8"/>
          </g>
         </g>
         <g id="text_6">
          <!-- 10000 -->
          <g transform="translate(24.478125 204.8131) scale(0.1 -0.1)">
           <defs>
            <path id="DejaVuSans-31" d="M 794 531 
L 1825 531 
L 1825 4091 
L 703 3866 
L 703 4441 
L 1819 4666 
L 2450 4666 
L 2450 531 
L 3481 531 
L 3481 0 
L 794 0 
L 794 531 
z
" transform="scale(0.015625)"/>
           </defs>
           <use xlink:href="#DejaVuSans-31"/>
           <use xlink:href="#DejaVuSans-30" x="63.623047"/>
           <use xlink:href="#DejaVuSans-30" x="127.246094"/>
           <use xlink:href="#DejaVuSans-30" x="190.869141"/>
           <use xlink:href="#DejaVuSans-30" x="254.492188"/>
          </g>
         </g>
        </g>
        <g id="ytick_4">
         <g id="line2d_7">
          <g>
           <use xlink:href="#m015f89e3ed" x="63.290625" y="140.709885" style="stroke: #000000; stroke-width: 0.8"/>
          </g>
         </g>
         <g id="text_7">
          <!-- 15000 -->
          <g transform="translate(24.478125 144.509104) scale(0.1 -0.1)">
           <use xlink:href="#DejaVuSans-31"/>
           <use xlink:href="#DejaVuSans-35" x="63.623047"/>
           <use xlink:href="#DejaVuSans-30" x="127.246094"/>
           <use xlink:href="#DejaVuSans-30" x="190.869141"/>
           <use xlink:href="#DejaVuSans-30" x="254.492188"/>
          </g>
         </g>
        </g>
        <g id="ytick_5">
         <g id="line2d_8">
          <g>
           <use xlink:href="#m015f89e3ed" x="63.290625" y="80.405888" style="stroke: #000000; stroke-width: 0.8"/>
          </g>
         </g>
         <g id="text_8">
          <!-- 20000 -->
          <g transform="translate(24.478125 84.205107) scale(0.1 -0.1)">
           <defs>
            <path id="DejaVuSans-32" d="M 1228 531 
L 3431 531 
L 3431 0 
L 469 0 
L 469 531 
Q 828 903 1448 1529 
Q 2069 2156 2228 2338 
Q 2531 2678 2651 2914 
Q 2772 3150 2772 3378 
Q 2772 3750 2511 3984 
Q 2250 4219 1831 4219 
Q 1534 4219 1204 4116 
Q 875 4013 500 3803 
L 500 4441 
Q 881 4594 1212 4672 
Q 1544 4750 1819 4750 
Q 2544 4750 2975 4387 
Q 3406 4025 3406 3419 
Q 3406 3131 3298 2873 
Q 3191 2616 2906 2266 
Q 2828 2175 2409 1742 
Q 1991 1309 1228 531 
z
" transform="scale(0.015625)"/>
           </defs>
           <use xlink:href="#DejaVuSans-32"/>
           <use xlink:href="#DejaVuSans-30" x="63.623047"/>
           <use xlink:href="#DejaVuSans-30" x="127.246094"/>
           <use xlink:href="#DejaVuSans-30" x="190.869141"/>
           <use xlink:href="#DejaVuSans-30" x="254.492188"/>
          </g>
         </g>
        </g>
        <g id="ytick_6">
         <g id="line2d_9">
          <g>
           <use xlink:href="#m015f89e3ed" x="63.290625" y="20.101891" style="stroke: #000000; stroke-width: 0.8"/>
          </g>
         </g>
         <g id="text_9">
          <!-- 25000 -->
          <g transform="translate(24.478125 23.90111) scale(0.1 -0.1)">
           <use xlink:href="#DejaVuSans-32"/>
           <use xlink:href="#DejaVuSans-35" x="63.623047"/>
           <use xlink:href="#DejaVuSans-30" x="127.246094"/>
           <use xlink:href="#DejaVuSans-30" x="190.869141"/>
           <use xlink:href="#DejaVuSans-30" x="254.492188"/>
          </g>
         </g>
        </g>
        <g id="text_10">
         <!-- time ago (generations) -->
         <g transform="translate(18.398438 223.682031) rotate(-90) scale(0.1 -0.1)">
          <defs>
           <path id="DejaVuSans-74" d="M 1172 4494 
L 1172 3500 
L 2356 3500 
L 2356 3053 
L 1172 3053 
L 1172 1153 
Q 1172 725 1289 603 
Q 1406 481 1766 481 
L 2356 481 
L 2356 0 
L 1766 0 
Q 1100 0 847 248 
Q 594 497 594 1153 
L 594 3053 
L 172 3053 
L 172 3500 
L 594 3500 
L 594 4494 
L 1172 4494 
z
" transform="scale(0.015625)"/>
           <path id="DejaVuSans-69" d="M 603 3500 
L 1178 3500 
L 1178 0 
L 603 0 
L 603 3500 
z
M 603 4863 
L 1178 4863 
L 1178 4134 
L 603 4134 
L 603 4863 
z
" transform="scale(0.015625)"/>
           <path id="DejaVuSans-6d" d="M 3328 2828 
Q 3544 3216 3844 3400 
Q 4144 3584 4550 3584 
Q 5097 3584 5394 3201 
Q 5691 2819 5691 2113 
L 5691 0 
L 5113 0 
L 5113 2094 
Q 5113 2597 4934 2840 
Q 4756 3084 4391 3084 
Q 3944 3084 3684 2787 
Q 3425 2491 3425 1978 
L 3425 0 
L 2847 0 
L 2847 2094 
Q 2847 2600 2669 2842 
Q 2491 3084 2119 3084 
Q 1678 3084 1418 2786 
Q 1159 2488 1159 1978 
L 1159 0 
L 581 0 
L 581 3500 
L 1159 3500 
L 1159 2956 
Q 1356 3278 1631 3431 
Q 1906 3584 2284 3584 
Q 2666 3584 2933 3390 
Q 3200 3197 3328 2828 
z
" transform="scale(0.015625)"/>
           <path id="DejaVuSans-65" d="M 3597 1894 
L 3597 1613 
L 953 1613 
Q 991 1019 1311 708 
Q 1631 397 2203 397 
Q 2534 397 2845 478 
Q 3156 559 3463 722 
L 3463 178 
Q 3153 47 2828 -22 
Q 2503 -91 2169 -91 
Q 1331 -91 842 396 
Q 353 884 353 1716 
Q 353 2575 817 3079 
Q 1281 3584 2069 3584 
Q 2775 3584 3186 3129 
Q 3597 2675 3597 1894 
z
M 3022 2063 
Q 3016 2534 2758 2815 
Q 2500 3097 2075 3097 
Q 1594 3097 1305 2825 
Q 1016 2553 972 2059 
L 3022 2063 
z
" transform="scale(0.015625)"/>
           <path id="DejaVuSans-20" transform="scale(0.015625)"/>
           <path id="DejaVuSans-61" d="M 2194 1759 
Q 1497 1759 1228 1600 
Q 959 1441 959 1056 
Q 959 750 1161 570 
Q 1363 391 1709 391 
Q 2188 391 2477 730 
Q 2766 1069 2766 1631 
L 2766 1759 
L 2194 1759 
z
M 3341 1997 
L 3341 0 
L 2766 0 
L 2766 531 
Q 2569 213 2275 61 
Q 1981 -91 1556 -91 
Q 1019 -91 701 211 
Q 384 513 384 1019 
Q 384 1609 779 1909 
Q 1175 2209 1959 2209 
L 2766 2209 
L 2766 2266 
Q 2766 2663 2505 2880 
Q 2244 3097 1772 3097 
Q 1472 3097 1187 3025 
Q 903 2953 641 2809 
L 641 3341 
Q 956 3463 1253 3523 
Q 1550 3584 1831 3584 
Q 2591 3584 2966 3190 
Q 3341 2797 3341 1997 
z
" transform="scale(0.015625)"/>
           <path id="DejaVuSans-67" d="M 2906 1791 
Q 2906 2416 2648 2759 
Q 2391 3103 1925 3103 
Q 1463 3103 1205 2759 
Q 947 2416 947 1791 
Q 947 1169 1205 825 
Q 1463 481 1925 481 
Q 2391 481 2648 825 
Q 2906 1169 2906 1791 
z
M 3481 434 
Q 3481 -459 3084 -895 
Q 2688 -1331 1869 -1331 
Q 1566 -1331 1297 -1286 
Q 1028 -1241 775 -1147 
L 775 -588 
Q 1028 -725 1275 -790 
Q 1522 -856 1778 -856 
Q 2344 -856 2625 -561 
Q 2906 -266 2906 331 
L 2906 616 
Q 2728 306 2450 153 
Q 2172 0 1784 0 
Q 1141 0 747 490 
Q 353 981 353 1791 
Q 353 2603 747 3093 
Q 1141 3584 1784 3584 
Q 2172 3584 2450 3431 
Q 2728 3278 2906 2969 
L 2906 3500 
L 3481 3500 
L 3481 434 
z
" transform="scale(0.015625)"/>
           <path id="DejaVuSans-6f" d="M 1959 3097 
Q 1497 3097 1228 2736 
Q 959 2375 959 1747 
Q 959 1119 1226 758 
Q 1494 397 1959 397 
Q 2419 397 2687 759 
Q 2956 1122 2956 1747 
Q 2956 2369 2687 2733 
Q 2419 3097 1959 3097 
z
M 1959 3584 
Q 2709 3584 3137 3096 
Q 3566 2609 3566 1747 
Q 3566 888 3137 398 
Q 2709 -91 1959 -91 
Q 1206 -91 779 398 
Q 353 888 353 1747 
Q 353 2609 779 3096 
Q 1206 3584 1959 3584 
z
" transform="scale(0.015625)"/>
           <path id="DejaVuSans-28" d="M 1984 4856 
Q 1566 4138 1362 3434 
Q 1159 2731 1159 2009 
Q 1159 1288 1364 580 
Q 1569 -128 1984 -844 
L 1484 -844 
Q 1016 -109 783 600 
Q 550 1309 550 2009 
Q 550 2706 781 3412 
Q 1013 4119 1484 4856 
L 1984 4856 
z
" transform="scale(0.015625)"/>
           <path id="DejaVuSans-6e" d="M 3513 2113 
L 3513 0 
L 2938 0 
L 2938 2094 
Q 2938 2591 2744 2837 
Q 2550 3084 2163 3084 
Q 1697 3084 1428 2787 
Q 1159 2491 1159 1978 
L 1159 0 
L 581 0 
L 581 3500 
L 1159 3500 
L 1159 2956 
Q 1366 3272 1645 3428 
Q 1925 3584 2291 3584 
Q 2894 3584 3203 3211 
Q 3513 2838 3513 2113 
z
" transform="scale(0.015625)"/>
           <path id="DejaVuSans-72" d="M 2631 2963 
Q 2534 3019 2420 3045 
Q 2306 3072 2169 3072 
Q 1681 3072 1420 2755 
Q 1159 2438 1159 1844 
L 1159 0 
L 581 0 
L 581 3500 
L 1159 3500 
L 1159 2956 
Q 1341 3275 1631 3429 
Q 1922 3584 2338 3584 
Q 2397 3584 2469 3576 
Q 2541 3569 2628 3553 
L 2631 2963 
z
" transform="scale(0.015625)"/>
           <path id="DejaVuSans-73" d="M 2834 3397 
L 2834 2853 
Q 2591 2978 2328 3040 
Q 2066 3103 1784 3103 
Q 1356 3103 1142 2972 
Q 928 2841 928 2578 
Q 928 2378 1081 2264 
Q 1234 2150 1697 2047 
L 1894 2003 
Q 2506 1872 2764 1633 
Q 3022 1394 3022 966 
Q 3022 478 2636 193 
Q 2250 -91 1575 -91 
Q 1294 -91 989 -36 
Q 684 19 347 128 
L 347 722 
Q 666 556 975 473 
Q 1284 391 1588 391 
Q 1994 391 2212 530 
Q 2431 669 2431 922 
Q 2431 1156 2273 1281 
Q 2116 1406 1581 1522 
L 1381 1569 
Q 847 1681 609 1914 
Q 372 2147 372 2553 
Q 372 3047 722 3315 
Q 1072 3584 1716 3584 
Q 2034 3584 2315 3537 
Q 2597 3491 2834 3397 
z
" transform="scale(0.015625)"/>
           <path id="DejaVuSans-29" d="M 513 4856 
L 1013 4856 
Q 1481 4119 1714 3412 
Q 1947 2706 1947 2009 
Q 1947 1309 1714 600 
Q 1481 -109 1013 -844 
L 513 -844 
Q 928 -128 1133 580 
Q 1338 1288 1338 2009 
Q 1338 2731 1133 3434 
Q 928 4138 513 4856 
z
" transform="scale(0.015625)"/>
          </defs>
          <use xlink:href="#DejaVuSans-74"/>
          <use xlink:href="#DejaVuSans-69" x="39.208984"/>
          <use xlink:href="#DejaVuSans-6d" x="66.992188"/>
          <use xlink:href="#DejaVuSans-65" x="164.404297"/>
          <use xlink:href="#DejaVuSans-20" x="225.927734"/>
          <use xlink:href="#DejaVuSans-61" x="257.714844"/>
          <use xlink:href="#DejaVuSans-67" x="318.994141"/>
          <use xlink:href="#DejaVuSans-6f" x="382.470703"/>
          <use xlink:href="#DejaVuSans-20" x="443.652344"/>
          <use xlink:href="#DejaVuSans-28" x="475.439453"/>
          <use xlink:href="#DejaVuSans-67" x="514.453125"/>
          <use xlink:href="#DejaVuSans-65" x="577.929688"/>
          <use xlink:href="#DejaVuSans-6e" x="639.453125"/>
          <use xlink:href="#DejaVuSans-65" x="702.832031"/>
          <use xlink:href="#DejaVuSans-72" x="764.355469"/>
          <use xlink:href="#DejaVuSans-61" x="805.46875"/>
          <use xlink:href="#DejaVuSans-74" x="866.748047"/>
          <use xlink:href="#DejaVuSans-69" x="905.957031"/>
          <use xlink:href="#DejaVuSans-6f" x="933.740234"/>
          <use xlink:href="#DejaVuSans-6e" x="994.921875"/>
          <use xlink:href="#DejaVuSans-73" x="1058.300781"/>
          <use xlink:href="#DejaVuSans-29" x="1110.400391"/>
         </g>
        </g>
       </g>
       <g id="patch_7">
        <path d="M 292.523602 274.0179 
L 291.523602 273.986464 
L 290.523602 273.949523 
L 289.523602 273.851777 
L 288.523602 273.819255 
L 287.523602 273.74563 
L 286.523602 273.707065 
L 285.523602 273.671652 
L 284.523602 273.614012 
L 283.523602 273.543626 
L 282.523602 273.491661 
L 281.523602 273.432572 
L 280.523602 273.344251 
L 279.523602 273.298106 
L 278.523602 273.255695 
L 277.523602 273.225203 
L 276.523602 273.199158 
L 275.523602 273.177958 
L 274.523602 273.123657 
L 273.523602 273.095719 
L 272.523602 273.065995 
L 271.523602 273.0406 
L 270.523602 273.0294 
L 269.523602 273.019276 
L 268.523602 273.01948 
L 267.523602 273.02899 
L 266.523602 273.040644 
L 265.523602 273.071673 
L 264.523602 273.082841 
L 263.523602 273.112958 
L 262.523602 273.172735 
L 261.523602 273.209927 
L 260.523602 273.249023 
L 259.523602 273.291463 
L 258.523602 273.324228 
L 257.523602 273.391654 
L 256.523602 273.43078 
L 255.523602 273.473455 
L 254.523602 273.544035 
L 253.523602 273.580426 
L 252.523602 273.638829 
L 251.523602 273.749782 
L 250.523602 273.82044 
L 249.523602 273.93338 
L 248.523602 273.979153 
L 247.523602 274.040436 
L 246.523602 274.088935 
L 245.523602 274.169758 
L 244.523602 274.288277 
L 243.523602 274.358488 
L 242.523602 274.44175 
L 241.523602 274.474892 
L 240.523602 274.526129 
L 239.523602 274.594528 
L 238.523602 274.660743 
L 237.523602 274.73766 
L 236.523602 274.764976 
L 235.523602 274.791453 
L 234.523602 274.814104 
L 233.523602 274.833635 
L 232.523602 274.860029 
L 230.667792 274.9098 
" clip-path="url(#pa37d8bf338)" style="fill: none; stroke: #ffffff; stroke-width: 3; stroke-linecap: round"/>
        <path d="M 292.523602 274.0179 
L 291.523602 273.986464 
L 290.523602 273.949523 
L 289.523602 273.851777 
L 288.523602 273.819255 
L 287.523602 273.74563 
L 286.523602 273.707065 
L 285.523602 273.671652 
L 284.523602 273.614012 
L 283.523602 273.543626 
L 282.523602 273.491661 
L 281.523602 273.432572 
L 280.523602 273.344251 
L 279.523602 273.298106 
L 278.523602 273.255695 
L 277.523602 273.225203 
L 276.523602 273.199158 
L 275.523602 273.177958 
L 274.523602 273.123657 
L 273.523602 273.095719 
L 272.523602 273.065995 
L 271.523602 273.0406 
L 270.523602 273.0294 
L 269.523602 273.019276 
L 268.523602 273.01948 
L 267.523602 273.02899 
L 266.523602 273.040644 
L 265.523602 273.071673 
L 264.523602 273.082841 
L 263.523602 273.112958 
L 262.523602 273.172735 
L 261.523602 273.209927 
L 260.523602 273.249023 
L 259.523602 273.291463 
L 258.523602 273.324228 
L 257.523602 273.391654 
L 256.523602 273.43078 
L 255.523602 273.473455 
L 254.523602 273.544035 
L 253.523602 273.580426 
L 252.523602 273.638829 
L 251.523602 273.749782 
L 250.523602 273.82044 
L 249.523602 273.93338 
L 248.523602 273.979153 
L 247.523602 274.040436 
L 246.523602 274.088935 
L 245.523602 274.169758 
L 244.523602 274.288277 
L 243.523602 274.358488 
L 242.523602 274.44175 
L 241.523602 274.474892 
L 240.523602 274.526129 
L 239.523602 274.594528 
L 238.523602 274.660743 
L 237.523602 274.73766 
L 236.523602 274.764976 
L 235.523602 274.791453 
L 234.523602 274.814104 
L 233.523602 274.833635 
L 232.523602 274.860029 
L 230.667792 274.9098 
" clip-path="url(#pa37d8bf338)" style="fill: none; stroke: #1f77b4; stroke-linecap: round"/>
        <path d="M 234.667792 276.0179 
L 233.787423 275.542569 
L 232.909516 275.062315 
L 232.058803 274.527674 
L 230.756628 273.840227 
L 231.683982 273.814212 
L 232.595656 273.401492 
L 233.50592 272.985953 
L 234.848416 272.379149 
L 234.193517 273.0179 
L 234.141553 274.0179 
L 234.082463 276.0179 
z
" clip-path="url(#pa37d8bf338)" style="fill: #ffffff; stroke: #ffffff; stroke-width: 3; stroke-linecap: round"/>
        <path d="M 234.667792 276.0179 
L 233.787423 275.542569 
L 232.909516 275.062315 
L 232.058803 274.527674 
L 230.756628 273.840227 
L 231.683982 273.814212 
L 232.595656 273.401492 
L 233.50592 272.985953 
L 234.848416 272.379149 
L 234.193517 273.0179 
L 234.141553 274.0179 
L 234.082463 276.0179 
z
" clip-path="url(#pa37d8bf338)" style="fill: #ffffff; stroke: #1f77b4; stroke-linecap: round"/>
        <g id="patch_8">
         <path d="M 377.664991 72.964375 
L 378.664991 72.995811 
L 379.664991 73.032752 
L 380.664991 73.130498 
L 381.664991 73.16302 
L 382.664991 73.236645 
L 383.664991 73.27521 
L 384.664991 73.310623 
L 385.664991 73.368263 
L 386.664991 73.438649 
L 387.664991 73.490614 
L 388.664991 73.549703 
L 389.664991 73.638024 
L 390.664991 73.684169 
L 391.664991 73.72658 
L 392.664991 73.757072 
L 393.664991 73.783117 
L 394.664991 73.804317 
L 395.664991 73.858618 
L 396.664991 73.886556 
L 397.664991 73.91628 
L 398.664991 73.941675 
L 399.664991 73.952875 
L 400.664991 73.962999 
L 401.664991 73.962795 
L 402.664991 73.953285 
L 403.664991 73.941631 
L 404.664991 73.910602 
L 405.664991 73.899434 
L 406.664991 73.869317 
L 407.664991 73.80954 
L 408.664991 73.772348 
L 409.664991 73.733252 
L 410.664991 73.690812 
L 411.664991 73.658047 
L 412.664991 73.590621 
L 413.664991 73.551495 
L 414.664991 73.50882 
L 415.664991 73.43824 
L 416.664991 73.401849 
L 417.664991 73.343446 
L 418.664991 73.232493 
L 419.664991 73.161835 
L 420.664991 73.048895 
L 421.664991 73.003122 
L 422.664991 72.941839 
L 423.664991 72.89334 
L 424.664991 72.812517 
L 425.664991 72.693998 
L 426.664991 72.623787 
L 427.664991 72.540525 
L 428.664991 72.507383 
L 429.664991 72.456146 
L 430.664991 72.387747 
L 431.664991 72.321532 
L 432.664991 72.244615 
L 433.664991 72.217299 
L 434.664991 72.190822 
L 435.664991 72.168171 
L 436.664991 72.14864 
L 437.664991 72.122246 
L 438.664991 72.072475 
L 439.664991 72.037402 
L 440.664991 72.001536 
L 441.664991 71.986169 
L 442.664991 71.9704 
L 443.664991 71.966987 
L 444.664991 71.96457 
L 445.664991 71.965056 
L 446.664991 71.966985 
L 447.664991 71.980242 
L 448.664991 71.988633 
L 449.664991 72.010169 
L 450.664991 72.033202 
L 451.664991 72.050435 
L 452.664991 72.068898 
L 453.664991 72.08935 
L 454.664991 72.10595 
L 455.664991 72.168729 
L 456.664991 72.243994 
L 457.664991 72.276633 
L 458.664991 72.344197 
L 459.664991 72.398244 
L 460.664991 72.431948 
L 461.664991 72.522074 
L 462.664991 72.550609 
L 463.664991 72.582095 
L 464.664991 72.613106 
L 465.664991 72.667914 
L 466.664991 72.732501 
L 467.664991 72.770697 
L 468.664991 72.866631 
L 469.664991 72.915889 
L 470.664991 72.959958 
L 471.664991 73.000082 
L 472.664991 73.108449 
L 473.664991 73.150077 
L 474.664991 73.212219 
L 475.664991 73.282181 
L 476.664991 73.386685 
L 477.664991 73.423673 
L 478.664991 73.46955 
L 479.664991 73.538045 
L 480.664991 73.586791 
L 481.664991 73.664388 
L 482.664991 73.694929 
L 483.664991 73.764443 
L 484.664991 73.788416 
L 485.664991 73.817038 
L 486.664991 73.858831 
L 487.664991 73.880407 
L 488.664991 73.894355 
L 489.664991 73.921077 
L 490.664991 73.930387 
L 491.664991 73.942834 
L 492.664991 73.953889 
L 493.664991 73.959553 
L 494.664991 73.964317 
L 495.664991 73.958769 
L 496.664991 73.945481 
L 497.664991 73.937964 
L 498.664991 73.913179 
L 499.664991 73.88961 
L 500.664991 73.85343 
L 501.664991 73.827468 
L 502.664991 73.805146 
L 503.664991 73.736386 
L 504.664991 73.661851 
L 505.664991 73.567872 
L 506.664991 73.51682 
L 507.664991 73.462886 
L 508.664991 73.427635 
L 509.664991 73.321547 
L 510.664991 73.269283 
L 511.664991 73.232376 
L 512.664991 73.201345 
L 513.664991 73.14019 
L 514.664991 73.07277 
L 515.664991 73.023864 
L 516.664991 72.958672 
L 517.664991 72.920484 
L 518.664991 72.878488 
L 519.664991 72.836471 
L 520.664991 72.776955 
L 521.664991 72.663795 
L 522.664991 72.611544 
L 523.664991 72.572126 
L 524.664991 72.525025 
L 525.664991 72.468245 
L 526.664991 72.435582 
L 527.664991 72.399404 
L 528.664991 72.367314 
L 529.664991 72.333034 
L 530.664991 72.274656 
L 531.664991 72.229471 
L 532.664991 72.199847 
L 533.664991 72.149461 
L 534.664991 72.124264 
L 535.664991 72.103213 
L 536.664991 72.068245 
L 537.664991 72.043955 
L 538.664991 72.029888 
L 539.664991 72.010946 
L 540.664991 71.995285 
L 541.664991 71.982733 
L 542.664991 71.976897 
L 543.664991 71.970015 
L 544.664991 71.964841 
L 545.664991 71.966624 
L 546.664991 71.969349 
L 547.664991 71.980503 
L 548.664991 72.008738 
L 549.664991 72.052526 
L 550.664991 72.073215 
L 551.664991 72.114188 
L 552.664991 72.154263 
L 553.664991 72.173373 
L 554.664991 72.195882 
L 555.664991 72.262533 
L 556.664991 72.312243 
L 557.664991 72.385949 
L 558.664991 72.417263 
L 559.664991 72.493885 
L 561.083346 72.532183 
" clip-path="url(#pa37d8bf338)" style="fill: none; stroke: #ffffff; stroke-width: 3; stroke-linecap: round"/>
         <path d="M 377.664991 72.964375 
L 378.664991 72.995811 
L 379.664991 73.032752 
L 380.664991 73.130498 
L 381.664991 73.16302 
L 382.664991 73.236645 
L 383.664991 73.27521 
L 384.664991 73.310623 
L 385.664991 73.368263 
L 386.664991 73.438649 
L 387.664991 73.490614 
L 388.664991 73.549703 
L 389.664991 73.638024 
L 390.664991 73.684169 
L 391.664991 73.72658 
L 392.664991 73.757072 
L 393.664991 73.783117 
L 394.664991 73.804317 
L 395.664991 73.858618 
L 396.664991 73.886556 
L 397.664991 73.91628 
L 398.664991 73.941675 
L 399.664991 73.952875 
L 400.664991 73.962999 
L 401.664991 73.962795 
L 402.664991 73.953285 
L 403.664991 73.941631 
L 404.664991 73.910602 
L 405.664991 73.899434 
L 406.664991 73.869317 
L 407.664991 73.80954 
L 408.664991 73.772348 
L 409.664991 73.733252 
L 410.664991 73.690812 
L 411.664991 73.658047 
L 412.664991 73.590621 
L 413.664991 73.551495 
L 414.664991 73.50882 
L 415.664991 73.43824 
L 416.664991 73.401849 
L 417.664991 73.343446 
L 418.664991 73.232493 
L 419.664991 73.161835 
L 420.664991 73.048895 
L 421.664991 73.003122 
L 422.664991 72.941839 
L 423.664991 72.89334 
L 424.664991 72.812517 
L 425.664991 72.693998 
L 426.664991 72.623787 
L 427.664991 72.540525 
L 428.664991 72.507383 
L 429.664991 72.456146 
L 430.664991 72.387747 
L 431.664991 72.321532 
L 432.664991 72.244615 
L 433.664991 72.217299 
L 434.664991 72.190822 
L 435.664991 72.168171 
L 436.664991 72.14864 
L 437.664991 72.122246 
L 438.664991 72.072475 
L 439.664991 72.037402 
L 440.664991 72.001536 
L 441.664991 71.986169 
L 442.664991 71.9704 
L 443.664991 71.966987 
L 444.664991 71.96457 
L 445.664991 71.965056 
L 446.664991 71.966985 
L 447.664991 71.980242 
L 448.664991 71.988633 
L 449.664991 72.010169 
L 450.664991 72.033202 
L 451.664991 72.050435 
L 452.664991 72.068898 
L 453.664991 72.08935 
L 454.664991 72.10595 
L 455.664991 72.168729 
L 456.664991 72.243994 
L 457.664991 72.276633 
L 458.664991 72.344197 
L 459.664991 72.398244 
L 460.664991 72.431948 
L 461.664991 72.522074 
L 462.664991 72.550609 
L 463.664991 72.582095 
L 464.664991 72.613106 
L 465.664991 72.667914 
L 466.664991 72.732501 
L 467.664991 72.770697 
L 468.664991 72.866631 
L 469.664991 72.915889 
L 470.664991 72.959958 
L 471.664991 73.000082 
L 472.664991 73.108449 
L 473.664991 73.150077 
L 474.664991 73.212219 
L 475.664991 73.282181 
L 476.664991 73.386685 
L 477.664991 73.423673 
L 478.664991 73.46955 
L 479.664991 73.538045 
L 480.664991 73.586791 
L 481.664991 73.664388 
L 482.664991 73.694929 
L 483.664991 73.764443 
L 484.664991 73.788416 
L 485.664991 73.817038 
L 486.664991 73.858831 
L 487.664991 73.880407 
L 488.664991 73.894355 
L 489.664991 73.921077 
L 490.664991 73.930387 
L 491.664991 73.942834 
L 492.664991 73.953889 
L 493.664991 73.959553 
L 494.664991 73.964317 
L 495.664991 73.958769 
L 496.664991 73.945481 
L 497.664991 73.937964 
L 498.664991 73.913179 
L 499.664991 73.88961 
L 500.664991 73.85343 
L 501.664991 73.827468 
L 502.664991 73.805146 
L 503.664991 73.736386 
L 504.664991 73.661851 
L 505.664991 73.567872 
L 506.664991 73.51682 
L 507.664991 73.462886 
L 508.664991 73.427635 
L 509.664991 73.321547 
L 510.664991 73.269283 
L 511.664991 73.232376 
L 512.664991 73.201345 
L 513.664991 73.14019 
L 514.664991 73.07277 
L 515.664991 73.023864 
L 516.664991 72.958672 
L 517.664991 72.920484 
L 518.664991 72.878488 
L 519.664991 72.836471 
L 520.664991 72.776955 
L 521.664991 72.663795 
L 522.664991 72.611544 
L 523.664991 72.572126 
L 524.664991 72.525025 
L 525.664991 72.468245 
L 526.664991 72.435582 
L 527.664991 72.399404 
L 528.664991 72.367314 
L 529.664991 72.333034 
L 530.664991 72.274656 
L 531.664991 72.229471 
L 532.664991 72.199847 
L 533.664991 72.149461 
L 534.664991 72.124264 
L 535.664991 72.103213 
L 536.664991 72.068245 
L 537.664991 72.043955 
L 538.664991 72.029888 
L 539.664991 72.010946 
L 540.664991 71.995285 
L 541.664991 71.982733 
L 542.664991 71.976897 
L 543.664991 71.970015 
L 544.664991 71.964841 
L 545.664991 71.966624 
L 546.664991 71.969349 
L 547.664991 71.980503 
L 548.664991 72.008738 
L 549.664991 72.052526 
L 550.664991 72.073215 
L 551.664991 72.114188 
L 552.664991 72.154263 
L 553.664991 72.173373 
L 554.664991 72.195882 
L 555.664991 72.262533 
L 556.664991 72.312243 
L 557.664991 72.385949 
L 558.664991 72.417263 
L 559.664991 72.493885 
L 561.083346 72.532183 
" clip-path="url(#pa37d8bf338)" style="fill: none; stroke: #1f77b4; stroke-linecap: round"/>
         <path d="M 557.083346 70.964375 
L 557.963714 71.439706 
L 558.841621 71.91996 
L 559.692335 72.454601 
L 560.994509 73.142048 
L 560.067156 73.168063 
L 559.155482 73.580783 
L 558.245217 73.996322 
L 556.902721 74.603126 
L 557.55762 73.964375 
L 557.609584 72.964375 
L 557.668674 70.964375 
z
" clip-path="url(#pa37d8bf338)" style="fill: #ffffff; stroke: #ffffff; stroke-width: 3; stroke-linecap: round"/>
         <path d="M 557.083346 70.964375 
L 557.963714 71.439706 
L 558.841621 71.91996 
L 559.692335 72.454601 
L 560.994509 73.142048 
L 560.067156 73.168063 
L 559.155482 73.580783 
L 558.245217 73.996322 
L 556.902721 74.603126 
L 557.55762 73.964375 
L 557.609584 72.964375 
L 557.668674 70.964375 
z
" clip-path="url(#pa37d8bf338)" style="fill: #ffffff; stroke: #1f77b4; stroke-linecap: round"/>
         <g id="patch_9">
          <path d="M 229.547459 280.120664 
L 230.547459 280.152101 
L 231.547459 280.189041 
L 232.547459 280.286788 
L 233.547459 280.319309 
L 234.547459 280.392934 
L 235.547459 280.4315 
L 236.547459 280.466913 
L 237.547459 280.524553 
L 238.547459 280.594939 
L 239.547459 280.646903 
L 240.547459 280.705993 
L 241.547459 280.794314 
L 242.547459 280.840458 
L 243.547459 280.882869 
L 244.547459 280.913362 
L 245.547459 280.939407 
L 246.547459 280.960607 
L 247.547459 281.014908 
L 248.547459 281.042845 
L 249.547459 281.072569 
L 250.547459 281.097964 
L 251.547459 281.109165 
L 252.547459 281.119289 
L 253.547459 281.119084 
L 254.547459 281.109574 
L 255.547459 281.097921 
L 256.547459 281.066892 
L 257.547459 281.055724 
L 258.547459 281.025606 
L 259.547459 280.965829 
L 260.547459 280.928638 
L 261.547459 280.889542 
L 262.547459 280.847102 
L 263.547459 280.814337 
L 264.547459 280.74691 
L 265.547459 280.707784 
L 266.547459 280.66511 
L 267.547459 280.594529 
L 268.547459 280.558138 
L 269.547459 280.499735 
L 270.547459 280.388783 
L 271.547459 280.318124 
L 272.547459 280.205185 
L 273.547459 280.159412 
L 274.547459 280.098128 
L 275.547459 280.049629 
L 276.547459 279.968806 
L 277.547459 279.850287 
L 278.547459 279.780077 
L 279.547459 279.696814 
L 280.547459 279.663673 
L 281.547459 279.612435 
L 282.547459 279.544037 
L 283.547459 279.477821 
L 284.547459 279.400904 
L 285.547459 279.373589 
L 286.547459 279.347111 
L 287.547459 279.324461 
L 288.547459 279.30493 
L 289.547459 279.278536 
L 290.547459 279.228765 
L 291.547459 279.193692 
L 292.547459 279.157826 
L 293.547459 279.142459 
L 294.547459 279.126689 
L 295.547459 279.123277 
L 296.547459 279.120859 
L 297.547459 279.121345 
L 298.547459 279.123275 
L 299.547459 279.136532 
L 300.547459 279.144922 
L 301.547459 279.166459 
L 302.547459 279.189491 
L 303.547459 279.206725 
L 304.547459 279.225187 
L 305.547459 279.24564 
L 306.547459 279.26224 
L 307.547459 279.325018 
L 308.547459 279.400283 
L 309.547459 279.432923 
L 310.547459 279.500486 
L 311.547459 279.554533 
L 312.547459 279.588238 
L 313.547459 279.678364 
L 314.547459 279.706898 
L 315.547459 279.738385 
L 316.547459 279.769395 
L 317.547459 279.824203 
L 318.547459 279.888791 
L 319.547459 279.926986 
L 320.547459 280.02292 
L 321.547459 280.072178 
L 322.547459 280.116248 
L 323.547459 280.156372 
L 324.547459 280.264739 
L 325.547459 280.306367 
L 326.547459 280.368508 
L 327.547459 280.43847 
L 328.547459 280.542975 
L 329.547459 280.579962 
L 330.547459 280.62584 
L 331.547459 280.694334 
L 332.547459 280.74308 
L 333.547459 280.820678 
L 334.547459 280.851218 
L 335.547459 280.920733 
L 336.547459 280.944706 
L 337.547459 280.973327 
L 338.547459 281.01512 
L 339.547459 281.036696 
L 340.547459 281.050644 
L 341.547459 281.077367 
L 342.547459 281.086677 
L 343.547459 281.099123 
L 344.547459 281.110178 
L 345.547459 281.115843 
L 346.547459 281.120606 
L 347.547459 281.115059 
L 348.547459 281.101771 
L 349.547459 281.094253 
L 350.547459 281.069468 
L 351.547459 281.0459 
L 352.547459 281.009719 
L 353.547459 280.983757 
L 354.547459 280.961436 
L 355.547459 280.892676 
L 356.547459 280.818141 
L 357.547459 280.724161 
L 358.547459 280.673109 
L 359.547459 280.619176 
L 360.547459 280.583925 
L 361.547459 280.477837 
L 362.547459 280.425573 
L 363.547459 280.388666 
L 364.547459 280.357635 
L 365.547459 280.296479 
L 366.547459 280.229059 
L 367.547459 280.180154 
L 368.547459 280.114961 
L 369.547459 280.076774 
L 370.547459 280.034778 
L 371.547459 279.99276 
L 372.547459 279.933244 
L 373.547459 279.820084 
L 374.547459 279.767833 
L 375.547459 279.728416 
L 376.547459 279.681314 
L 377.547459 279.624535 
L 378.547459 279.591872 
L 379.547459 279.555694 
L 380.547459 279.523603 
L 381.547459 279.489324 
L 382.547459 279.430946 
L 383.547459 279.385761 
L 384.547459 279.356137 
L 385.547459 279.305751 
L 386.547459 279.280553 
L 387.547459 279.259502 
L 388.547459 279.224534 
L 389.547459 279.200245 
L 390.547459 279.186178 
L 391.547459 279.167236 
L 392.547459 279.151574 
L 393.547459 279.139022 
L 394.547459 279.133187 
L 395.547459 279.126304 
L 396.547459 279.121131 
L 397.547459 279.122913 
L 398.547459 279.125639 
L 399.547459 279.136792 
L 400.547459 279.165028 
L 401.547459 279.208815 
L 402.547459 279.229504 
L 403.547459 279.270478 
L 404.547459 279.310553 
L 405.547459 279.329663 
L 406.547459 279.352171 
L 407.547459 279.418823 
L 408.547459 279.468532 
L 409.547459 279.542239 
L 410.547459 279.573553 
L 411.547459 279.650175 
L 412.547459 279.688473 
L 413.547459 279.762589 
L 414.547459 279.866648 
L 415.547459 279.936478 
L 416.547459 280.041712 
L 417.547459 280.096727 
L 418.547459 280.220202 
L 419.547459 280.290762 
L 420.547459 280.406601 
L 421.547459 280.456781 
L 422.547459 280.492386 
L 423.547459 280.583792 
L 424.547459 280.6373 
L 425.547459 280.725209 
L 426.547459 280.794393 
L 427.547459 280.841158 
L 428.547459 280.913202 
L 429.547459 280.963344 
L 430.547459 280.980733 
L 431.547459 281.007737 
L 432.547459 281.027164 
L 433.547459 281.046502 
L 434.547459 281.08475 
L 435.547459 281.101184 
L 436.547459 281.109553 
L 437.547459 281.113871 
L 438.547459 281.120427 
L 440.411059 281.11788 
" clip-path="url(#pa37d8bf338)" style="fill: none; stroke: #ffffff; stroke-width: 3; stroke-linecap: round"/>
          <path d="M 229.547459 280.120664 
L 230.547459 280.152101 
L 231.547459 280.189041 
L 232.547459 280.286788 
L 233.547459 280.319309 
L 234.547459 280.392934 
L 235.547459 280.4315 
L 236.547459 280.466913 
L 237.547459 280.524553 
L 238.547459 280.594939 
L 239.547459 280.646903 
L 240.547459 280.705993 
L 241.547459 280.794314 
L 242.547459 280.840458 
L 243.547459 280.882869 
L 244.547459 280.913362 
L 245.547459 280.939407 
L 246.547459 280.960607 
L 247.547459 281.014908 
L 248.547459 281.042845 
L 249.547459 281.072569 
L 250.547459 281.097964 
L 251.547459 281.109165 
L 252.547459 281.119289 
L 253.547459 281.119084 
L 254.547459 281.109574 
L 255.547459 281.097921 
L 256.547459 281.066892 
L 257.547459 281.055724 
L 258.547459 281.025606 
L 259.547459 280.965829 
L 260.547459 280.928638 
L 261.547459 280.889542 
L 262.547459 280.847102 
L 263.547459 280.814337 
L 264.547459 280.74691 
L 265.547459 280.707784 
L 266.547459 280.66511 
L 267.547459 280.594529 
L 268.547459 280.558138 
L 269.547459 280.499735 
L 270.547459 280.388783 
L 271.547459 280.318124 
L 272.547459 280.205185 
L 273.547459 280.159412 
L 274.547459 280.098128 
L 275.547459 280.049629 
L 276.547459 279.968806 
L 277.547459 279.850287 
L 278.547459 279.780077 
L 279.547459 279.696814 
L 280.547459 279.663673 
L 281.547459 279.612435 
L 282.547459 279.544037 
L 283.547459 279.477821 
L 284.547459 279.400904 
L 285.547459 279.373589 
L 286.547459 279.347111 
L 287.547459 279.324461 
L 288.547459 279.30493 
L 289.547459 279.278536 
L 290.547459 279.228765 
L 291.547459 279.193692 
L 292.547459 279.157826 
L 293.547459 279.142459 
L 294.547459 279.126689 
L 295.547459 279.123277 
L 296.547459 279.120859 
L 297.547459 279.121345 
L 298.547459 279.123275 
L 299.547459 279.136532 
L 300.547459 279.144922 
L 301.547459 279.166459 
L 302.547459 279.189491 
L 303.547459 279.206725 
L 304.547459 279.225187 
L 305.547459 279.24564 
L 306.547459 279.26224 
L 307.547459 279.325018 
L 308.547459 279.400283 
L 309.547459 279.432923 
L 310.547459 279.500486 
L 311.547459 279.554533 
L 312.547459 279.588238 
L 313.547459 279.678364 
L 314.547459 279.706898 
L 315.547459 279.738385 
L 316.547459 279.769395 
L 317.547459 279.824203 
L 318.547459 279.888791 
L 319.547459 279.926986 
L 320.547459 280.02292 
L 321.547459 280.072178 
L 322.547459 280.116248 
L 323.547459 280.156372 
L 324.547459 280.264739 
L 325.547459 280.306367 
L 326.547459 280.368508 
L 327.547459 280.43847 
L 328.547459 280.542975 
L 329.547459 280.579962 
L 330.547459 280.62584 
L 331.547459 280.694334 
L 332.547459 280.74308 
L 333.547459 280.820678 
L 334.547459 280.851218 
L 335.547459 280.920733 
L 336.547459 280.944706 
L 337.547459 280.973327 
L 338.547459 281.01512 
L 339.547459 281.036696 
L 340.547459 281.050644 
L 341.547459 281.077367 
L 342.547459 281.086677 
L 343.547459 281.099123 
L 344.547459 281.110178 
L 345.547459 281.115843 
L 346.547459 281.120606 
L 347.547459 281.115059 
L 348.547459 281.101771 
L 349.547459 281.094253 
L 350.547459 281.069468 
L 351.547459 281.0459 
L 352.547459 281.009719 
L 353.547459 280.983757 
L 354.547459 280.961436 
L 355.547459 280.892676 
L 356.547459 280.818141 
L 357.547459 280.724161 
L 358.547459 280.673109 
L 359.547459 280.619176 
L 360.547459 280.583925 
L 361.547459 280.477837 
L 362.547459 280.425573 
L 363.547459 280.388666 
L 364.547459 280.357635 
L 365.547459 280.296479 
L 366.547459 280.229059 
L 367.547459 280.180154 
L 368.547459 280.114961 
L 369.547459 280.076774 
L 370.547459 280.034778 
L 371.547459 279.99276 
L 372.547459 279.933244 
L 373.547459 279.820084 
L 374.547459 279.767833 
L 375.547459 279.728416 
L 376.547459 279.681314 
L 377.547459 279.624535 
L 378.547459 279.591872 
L 379.547459 279.555694 
L 380.547459 279.523603 
L 381.547459 279.489324 
L 382.547459 279.430946 
L 383.547459 279.385761 
L 384.547459 279.356137 
L 385.547459 279.305751 
L 386.547459 279.280553 
L 387.547459 279.259502 
L 388.547459 279.224534 
L 389.547459 279.200245 
L 390.547459 279.186178 
L 391.547459 279.167236 
L 392.547459 279.151574 
L 393.547459 279.139022 
L 394.547459 279.133187 
L 395.547459 279.126304 
L 396.547459 279.121131 
L 397.547459 279.122913 
L 398.547459 279.125639 
L 399.547459 279.136792 
L 400.547459 279.165028 
L 401.547459 279.208815 
L 402.547459 279.229504 
L 403.547459 279.270478 
L 404.547459 279.310553 
L 405.547459 279.329663 
L 406.547459 279.352171 
L 407.547459 279.418823 
L 408.547459 279.468532 
L 409.547459 279.542239 
L 410.547459 279.573553 
L 411.547459 279.650175 
L 412.547459 279.688473 
L 413.547459 279.762589 
L 414.547459 279.866648 
L 415.547459 279.936478 
L 416.547459 280.041712 
L 417.547459 280.096727 
L 418.547459 280.220202 
L 419.547459 280.290762 
L 420.547459 280.406601 
L 421.547459 280.456781 
L 422.547459 280.492386 
L 423.547459 280.583792 
L 424.547459 280.6373 
L 425.547459 280.725209 
L 426.547459 280.794393 
L 427.547459 280.841158 
L 428.547459 280.913202 
L 429.547459 280.963344 
L 430.547459 280.980733 
L 431.547459 281.007737 
L 432.547459 281.027164 
L 433.547459 281.046502 
L 434.547459 281.08475 
L 435.547459 281.101184 
L 436.547459 281.109553 
L 437.547459 281.113871 
L 438.547459 281.120427 
L 440.411059 281.11788 
" clip-path="url(#pa37d8bf338)" style="fill: none; stroke: #ff7f0e; stroke-linecap: round"/>
          <path d="M 436.411059 278.120664 
L 437.291427 278.595996 
L 438.169334 279.07625 
L 439.020048 279.61089 
L 440.322222 280.298338 
L 439.394869 280.324353 
L 438.483194 280.737072 
L 437.57293 281.152611 
L 436.230434 281.759416 
L 436.885333 281.120664 
L 436.937297 280.120664 
L 436.996387 278.120664 
z
" clip-path="url(#pa37d8bf338)" style="fill: #ffffff; stroke: #ffffff; stroke-width: 3; stroke-linecap: round"/>
          <path d="M 436.411059 278.120664 
L 437.291427 278.595996 
L 438.169334 279.07625 
L 439.020048 279.61089 
L 440.322222 280.298338 
L 439.394869 280.324353 
L 438.483194 280.737072 
L 437.57293 281.152611 
L 436.230434 281.759416 
L 436.885333 281.120664 
L 436.937297 280.120664 
L 436.996387 278.120664 
z
" clip-path="url(#pa37d8bf338)" style="fill: #ffffff; stroke: #ff7f0e; stroke-linecap: round"/>
          <path d="M 468.587975 305.593073 
" clip-path="url(#pa37d8bf338)" style="fill: none; stroke-dasharray: 3.7,1.6; stroke-dashoffset: 0; stroke: #2ca02c"/>
          <path d="M 467.587975 305.593073 
L 469.587975 306.593073 
L 469.587975 304.593073 
z
" clip-path="url(#pa37d8bf338)" style="fill: #2ca02c; stroke: #2ca02c; stroke-linejoin: miter"/>
          <g id="patch_10">
           <path d="M 63.290625 321.621875 
L 63.290625 10.8 
" style="fill: none; stroke: #000000; stroke-width: 0.8; stroke-linejoin: miter; stroke-linecap: square"/>
          </g>
          <g id="text_11">
           <g id="patch_11">
            <path d="M 324.441733 149.248013 
L 345.746421 149.248013 
Q 347.746421 149.248013 347.746421 147.248013 
L 347.746421 137.569888 
Q 347.746421 135.569888 345.746421 135.569888 
L 324.441733 135.569888 
Q 322.441733 135.569888 322.441733 137.569888 
L 322.441733 147.248013 
Q 322.441733 149.248013 324.441733 149.248013 
z
" style="fill: #ffffff; opacity: 0.6"/>
           </g>
           <!-- ANC -->
           <g transform="translate(324.441733 145.168325) scale(0.1 -0.1)">
            <defs>
             <path id="DejaVuSans-4e" d="M 628 4666 
L 1478 4666 
L 3547 763 
L 3547 4666 
L 4159 4666 
L 4159 0 
L 3309 0 
L 1241 3903 
L 1241 0 
L 628 0 
L 628 4666 
z
" transform="scale(0.015625)"/>
            </defs>
            <use xlink:href="#DejaVuSans-41"/>
            <use xlink:href="#DejaVuSans-4e" x="68.408203"/>
            <use xlink:href="#DejaVuSans-43" x="143.212891"/>
           </g>
          </g>
         </g>
        </g>
        <defs>
         <clipPath id="pa37d8bf338">
          <rect x="63.290625" y="10.8" width="540.309375" height="310.821875"/>
         </clipPath>
        </defs>
       </g>
      </g>
     </g>
    </g>
   </g>
  </g>
 </g>
</svg>
