<?xml version="1.0" encoding="utf-8" standalone="no"?>
<!DOCTYPE svg PUBLIC "-//W3C//DTD SVG 1.1//EN"
  "http://www.w3.org/Graphics/SVG/1.1/DTD/svg11.dtd">
<svg xmlns:xlink="http://www.w3.org/1999/xlink" width="614.4pt" height="345.6pt" viewBox="0 0 614.4 345.6" xmlns="http://www.w3.org/2000/svg" version="1.1">
 <metadata>
  <rdf:RDF xmlns:dc="http://purl.org/dc/elements/1.1/" xmlns:cc="http://creativecommons.org/ns#" xmlns:rdf="http://www.w3.org/1999/02/22-rdf-syntax-ns#">
   <cc:Work>
    <dc:type rdf:resource="http://purl.org/dc/dcmitype/StillImage"/>
    <dc:date>2024-04-17T19:48:39.041568</dc:date>
    <dc:format>image/svg+xml</dc:format>
    <dc:creator>
     <cc:Agent>
      <dc:title>Matplotlib v3.7.1, https://matplotlib.org/</dc:title>
     </cc:Agent>
    </dc:creator>
   </cc:Work>
  </rdf:RDF>
 </metadata>
 <defs>
  <style type="text/css">*{stroke-linejoin: round; stroke-linecap: butt}</style>
 </defs>
 <g id="figure_1">
  <g id="patch_1">
   <path d="M 0 345.6 
L 614.4 345.6 
L 614.4 0 
L 0 0 
z
" style="fill: #ffffff"/>
  </g>
  <g id="axes_1">
   <g id="patch_2">
    <path d="M 63.290625 321.621875 
L 603.6 321.621875 
L 603.6 10.8 
L 63.290625 10.8 
z
" style="fill: #ffffff"/>
   </g>
   <path d="M 539.180568 308.001942 
L 538.180568 307.970505 
L 537.180568 307.933565 
L 536.180568 307.835818 
L 535.180568 307.803297 
L 534.180568 307.729672 
L 533.180568 307.691106 
L 532.180568 307.655693 
L 531.180568 307.598053 
L 530.180568 307.527667 
L 529.180568 307.475703 
L 528.180568 307.416613 
L 527.180568 307.328292 
L 526.180568 307.282148 
L 525.180568 307.239737 
L 524.180568 307.209244 
L 523.180568 307.183199 
L 522.180568 307.161999 
L 521.180568 307.107698 
L 520.180568 307.079761 
L 519.180568 307.050037 
L 518.180568 307.024642 
L 517.180568 307.013441 
L 516.180568 307.003317 
L 515.180568 307.003522 
L 514.180568 307.013032 
L 513.180568 307.024685 
L 512.180568 307.055714 
L 511.180568 307.066882 
L 510.180568 307.097 
L 509.180568 307.156777 
L 508.180568 307.193968 
L 507.180568 307.233064 
L 506.180568 307.275504 
L 505.180568 307.308269 
L 504.180568 307.375696 
L 503.180568 307.414822 
L 502.180568 307.457496 
L 501.180568 307.528077 
L 500.180568 307.564468 
L 499.180568 307.622871 
L 498.180568 307.733823 
L 497.180568 307.804482 
L 496.180568 307.917422 
L 495.180568 307.963194 
L 494.180568 308.024478 
L 493.180568 308.072977 
L 492.180568 308.1538 
L 491.180568 308.272319 
L 490.180568 308.342529 
L 489.180568 308.425792 
L 488.180568 308.458933 
L 487.180568 308.510171 
L 486.180568 308.578569 
L 485.180568 308.644785 
L 484.180568 308.721702 
L 483.180568 308.749017 
L 482.180568 308.775495 
L 481.180568 308.798145 
L 480.180568 308.817677 
L 479.180568 308.84407 
L 478.180568 308.893841 
L 476.40841 308.928914 
" clip-path="url(#pb022de6c9b)" style="fill: none; stroke-dasharray: 3.7,1.6; stroke-dashoffset: 0; stroke: #2ca02c"/>
   <g id="patch_3">
    <path d="M 296.254889 10.8 
L 296.254889 229.156272 
M 363.906621 10.8 
L 363.906621 229.156272 
" clip-path="url(#pb022de6c9b)" style="fill: none; stroke: #ffffff; stroke-width: 3; stroke-linejoin: miter"/>
    <path d="M 296.254889 10.8 
L 296.254889 229.156272 
M 363.906621 10.8 
L 363.906621 229.156272 
" clip-path="url(#pb022de6c9b)" style="fill: none; stroke: #1f77b4; stroke-linejoin: miter"/>
    <g id="PolyCollection_1">
     <path d="M 363.906621 10.8 
L 296.254889 10.8 
L 296.254889 229.156272 
L 363.906621 229.156272 
L 363.906621 229.156272 
L 363.906621 10.8 
z
" clip-path="url(#pb022de6c9b)" style="fill: #1f77b4; fill-opacity: 0.5"/>
    </g>
    <g id="patch_4">
     <path d="M 87.850142 229.156272 
L 87.850142 321.621875 
M 224.714391 229.156272 
L 224.714391 321.621875 
" clip-path="url(#pb022de6c9b)" style="fill: none; stroke: #ffffff; stroke-width: 3; stroke-linejoin: miter"/>
     <path d="M 87.850142 229.156272 
L 87.850142 321.621875 
M 224.714391 229.156272 
L 224.714391 321.621875 
" clip-path="url(#pb022de6c9b)" style="fill: none; stroke: #ff7f0e; stroke-linejoin: miter"/>
     <g id="PolyCollection_2">
      <path d="M 224.714391 229.156272 
L 87.850142 229.156272 
L 87.850142 321.621875 
L 224.714391 321.621875 
L 224.714391 321.621875 
L 224.714391 229.156272 
z
" clip-path="url(#pb022de6c9b)" style="fill: #ff7f0e; fill-opacity: 0.5"/>
     </g>
     <g id="patch_5">
      <path d="M 544.583661 72.964375 
L 544.583661 321.621875 
M 579.040483 72.964375 
L 579.040483 321.621875 
" clip-path="url(#pb022de6c9b)" style="fill: none; stroke: #ffffff; stroke-width: 3; stroke-linejoin: miter"/>
      <path d="M 544.583661 72.964375 
L 544.583661 321.621875 
M 579.040483 72.964375 
L 579.040483 321.621875 
" clip-path="url(#pb022de6c9b)" style="fill: none; stroke: #2ca02c; stroke-linejoin: miter"/>
      <g id="PolyCollection_3">
       <path d="M 579.040483 72.964375 
L 544.583661 72.964375 
L 544.583661 321.621875 
L 579.040483 321.621875 
L 579.040483 321.621875 
L 579.040483 72.964375 
z
" clip-path="url(#pb022de6c9b)" style="fill: #2ca02c; fill-opacity: 0.5"/>
      </g>
      <g id="patch_6">
       <path d="M 420.887511 254.82854 
L 420.887511 321.621875 
M 471.005316 254.82854 
L 471.005316 321.621875 
" clip-path="url(#pb022de6c9b)" style="fill: none; stroke: #ffffff; stroke-width: 3; stroke-linejoin: miter"/>
       <path d="M 420.887511 254.82854 
L 420.887511 321.621875 
M 471.005316 254.82854 
L 471.005316 321.621875 
" clip-path="url(#pb022de6c9b)" style="fill: none; stroke: #d62728; stroke-linejoin: miter"/>
       <g id="PolyCollection_4">
        <path d="M 471.005316 254.82854 
L 420.887511 254.82854 
L 420.887511 321.621875 
L 471.005316 321.621875 
L 471.005316 321.621875 
L 471.005316 254.82854 
z
" clip-path="url(#pb022de6c9b)" style="fill: #d62728; fill-opacity: 0.5"/>
       </g>
       <g id="matplotlib.axis_1">
        <g id="xtick_1">
         <g id="line2d_1"/>
         <g id="text_1">
          <!-- OUT -->
          <g transform="translate(145.633048 332.720312) scale(0.1 -0.1)">
           <defs>
            <path id="DejaVuSans-4f" d="M 2522 4238 
Q 1834 4238 1429 3725 
Q 1025 3213 1025 2328 
Q 1025 1447 1429 934 
Q 1834 422 2522 422 
Q 3209 422 3611 934 
Q 4013 1447 4013 2328 
Q 4013 3213 3611 3725 
Q 3209 4238 2522 4238 
z
M 2522 4750 
Q 3503 4750 4090 4092 
Q 4678 3434 4678 2328 
Q 4678 1225 4090 567 
Q 3503 -91 2522 -91 
Q 1538 -91 948 565 
Q 359 1222 359 2328 
Q 359 3434 948 4092 
Q 1538 4750 2522 4750 
z
" transform="scale(0.015625)"/>
            <path id="DejaVuSans-55" d="M 556 4666 
L 1191 4666 
L 1191 1831 
Q 1191 1081 1462 751 
Q 1734 422 2344 422 
Q 2950 422 3222 751 
Q 3494 1081 3494 1831 
L 3494 4666 
L 4128 4666 
L 4128 1753 
Q 4128 841 3676 375 
Q 3225 -91 2344 -91 
Q 1459 -91 1007 375 
Q 556 841 556 1753 
L 556 4666 
z
" transform="scale(0.015625)"/>
            <path id="DejaVuSans-54" d="M -19 4666 
L 3928 4666 
L 3928 4134 
L 2272 4134 
L 2272 0 
L 1638 0 
L 1638 4134 
L -19 4134 
L -19 4666 
z
" transform="scale(0.015625)"/>
           </defs>
           <use xlink:href="#DejaVuSans-4f"/>
           <use xlink:href="#DejaVuSans-55" x="78.710938"/>
           <use xlink:href="#DejaVuSans-54" x="151.904297"/>
          </g>
         </g>
        </g>
        <g id="xtick_2">
         <g id="line2d_2"/>
         <g id="text_2">
          <!-- SRC -->
          <g transform="translate(551.922228 332.720312) scale(0.1 -0.1)">
           <defs>
            <path id="DejaVuSans-53" d="M 3425 4513 
L 3425 3897 
Q 3066 4069 2747 4153 
Q 2428 4238 2131 4238 
Q 1616 4238 1336 4038 
Q 1056 3838 1056 3469 
Q 1056 3159 1242 3001 
Q 1428 2844 1947 2747 
L 2328 2669 
Q 3034 2534 3370 2195 
Q 3706 1856 3706 1288 
Q 3706 609 3251 259 
Q 2797 -91 1919 -91 
Q 1588 -91 1214 -16 
Q 841 59 441 206 
L 441 856 
Q 825 641 1194 531 
Q 1563 422 1919 422 
Q 2459 422 2753 634 
Q 3047 847 3047 1241 
Q 3047 1584 2836 1778 
Q 2625 1972 2144 2069 
L 1759 2144 
Q 1053 2284 737 2584 
Q 422 2884 422 3419 
Q 422 4038 858 4394 
Q 1294 4750 2059 4750 
Q 2388 4750 2728 4690 
Q 3069 4631 3425 4513 
z
" transform="scale(0.015625)"/>
            <path id="DejaVuSans-52" d="M 2841 2188 
Q 3044 2119 3236 1894 
Q 3428 1669 3622 1275 
L 4263 0 
L 3584 0 
L 2988 1197 
Q 2756 1666 2539 1819 
Q 2322 1972 1947 1972 
L 1259 1972 
L 1259 0 
L 628 0 
L 628 4666 
L 2053 4666 
Q 2853 4666 3247 4331 
Q 3641 3997 3641 3322 
Q 3641 2881 3436 2590 
Q 3231 2300 2841 2188 
z
M 1259 4147 
L 1259 2491 
L 2053 2491 
Q 2509 2491 2742 2702 
Q 2975 2913 2975 3322 
Q 2975 3731 2742 3939 
Q 2509 4147 2053 4147 
L 1259 4147 
z
" transform="scale(0.015625)"/>
            <path id="DejaVuSans-43" d="M 4122 4306 
L 4122 3641 
Q 3803 3938 3442 4084 
Q 3081 4231 2675 4231 
Q 1875 4231 1450 3742 
Q 1025 3253 1025 2328 
Q 1025 1406 1450 917 
Q 1875 428 2675 428 
Q 3081 428 3442 575 
Q 3803 722 4122 1019 
L 4122 359 
Q 3791 134 3420 21 
Q 3050 -91 2638 -91 
Q 1578 -91 968 557 
Q 359 1206 359 2328 
Q 359 3453 968 4101 
Q 1578 4750 2638 4750 
Q 3056 4750 3426 4639 
Q 3797 4528 4122 4306 
z
" transform="scale(0.015625)"/>
           </defs>
           <use xlink:href="#DejaVuSans-53"/>
           <use xlink:href="#DejaVuSans-52" x="63.476562"/>
           <use xlink:href="#DejaVuSans-43" x="127.958984"/>
          </g>
         </g>
        </g>
        <g id="xtick_3">
         <g id="line2d_3"/>
         <g id="text_3">
          <!-- TAR -->
          <g transform="translate(436.385476 332.720312) scale(0.1 -0.1)">
           <defs>
            <path id="DejaVuSans-41" d="M 2188 4044 
L 1331 1722 
L 3047 1722 
L 2188 4044 
z
M 1831 4666 
L 2547 4666 
L 4325 0 
L 3669 0 
L 3244 1197 
L 1141 1197 
L 716 0 
L 50 0 
L 1831 4666 
z
" transform="scale(0.015625)"/>
           </defs>
           <use xlink:href="#DejaVuSans-54"/>
           <use xlink:href="#DejaVuSans-41" x="53.333984"/>
           <use xlink:href="#DejaVuSans-52" x="121.742188"/>
          </g>
         </g>
        </g>
       </g>
       <g id="matplotlib.axis_2">
        <g id="ytick_1">
         <g id="line2d_4">
          <defs>
           <path id="m15c9860ae0" d="M 0 0 
L -3.5 0 
" style="stroke: #000000; stroke-width: 0.8"/>
          </defs>
          <g>
           <use xlink:href="#m15c9860ae0" x="63.290625" y="321.621875" style="stroke: #000000; stroke-width: 0.8"/>
          </g>
         </g>
         <g id="text_4">
          <!-- 0 -->
          <g transform="translate(49.928125 325.421094) scale(0.1 -0.1)">
           <defs>
            <path id="DejaVuSans-30" d="M 2034 4250 
Q 1547 4250 1301 3770 
Q 1056 3291 1056 2328 
Q 1056 1369 1301 889 
Q 1547 409 2034 409 
Q 2525 409 2770 889 
Q 3016 1369 3016 2328 
Q 3016 3291 2770 3770 
Q 2525 4250 2034 4250 
z
M 2034 4750 
Q 2819 4750 3233 4129 
Q 3647 3509 3647 2328 
Q 3647 1150 3233 529 
Q 2819 -91 2034 -91 
Q 1250 -91 836 529 
Q 422 1150 422 2328 
Q 422 3509 836 4129 
Q 1250 4750 2034 4750 
z
" transform="scale(0.015625)"/>
           </defs>
           <use xlink:href="#DejaVuSans-30"/>
          </g>
         </g>
        </g>
        <g id="ytick_2">
         <g id="line2d_5">
          <g>
           <use xlink:href="#m15c9860ae0" x="63.290625" y="264.824822" style="stroke: #000000; stroke-width: 0.8"/>
          </g>
         </g>
         <g id="text_5">
          <!-- 5000 -->
          <g transform="translate(30.840625 268.62404) scale(0.1 -0.1)">
           <defs>
            <path id="DejaVuSans-35" d="M 691 4666 
L 3169 4666 
L 3169 4134 
L 1269 4134 
L 1269 2991 
Q 1406 3038 1543 3061 
Q 1681 3084 1819 3084 
Q 2600 3084 3056 2656 
Q 3513 2228 3513 1497 
Q 3513 744 3044 326 
Q 2575 -91 1722 -91 
Q 1428 -91 1123 -41 
Q 819 9 494 109 
L 494 744 
Q 775 591 1075 516 
Q 1375 441 1709 441 
Q 2250 441 2565 725 
Q 2881 1009 2881 1497 
Q 2881 1984 2565 2268 
Q 2250 2553 1709 2553 
Q 1456 2553 1204 2497 
Q 953 2441 691 2322 
L 691 4666 
z
" transform="scale(0.015625)"/>
           </defs>
           <use xlink:href="#DejaVuSans-35"/>
           <use xlink:href="#DejaVuSans-30" x="63.623047"/>
           <use xlink:href="#DejaVuSans-30" x="127.246094"/>
           <use xlink:href="#DejaVuSans-30" x="190.869141"/>
          </g>
         </g>
        </g>
        <g id="ytick_3">
         <g id="line2d_6">
          <g>
           <use xlink:href="#m15c9860ae0" x="63.290625" y="208.027768" style="stroke: #000000; stroke-width: 0.8"/>
          </g>
         </g>
         <g id="text_6">
          <!-- 10000 -->
          <g transform="translate(24.478125 211.826987) scale(0.1 -0.1)">
           <defs>
            <path id="DejaVuSans-31" d="M 794 531 
L 1825 531 
L 1825 4091 
L 703 3866 
L 703 4441 
L 1819 4666 
L 2450 4666 
L 2450 531 
L 3481 531 
L 3481 0 
L 794 0 
L 794 531 
z
" transform="scale(0.015625)"/>
           </defs>
           <use xlink:href="#DejaVuSans-31"/>
           <use xlink:href="#DejaVuSans-30" x="63.623047"/>
           <use xlink:href="#DejaVuSans-30" x="127.246094"/>
           <use xlink:href="#DejaVuSans-30" x="190.869141"/>
           <use xlink:href="#DejaVuSans-30" x="254.492188"/>
          </g>
         </g>
        </g>
        <g id="ytick_4">
         <g id="line2d_7">
          <g>
           <use xlink:href="#m15c9860ae0" x="63.290625" y="151.230715" style="stroke: #000000; stroke-width: 0.8"/>
          </g>
         </g>
         <g id="text_7">
          <!-- 15000 -->
          <g transform="translate(24.478125 155.029933) scale(0.1 -0.1)">
           <use xlink:href="#DejaVuSans-31"/>
           <use xlink:href="#DejaVuSans-35" x="63.623047"/>
           <use xlink:href="#DejaVuSans-30" x="127.246094"/>
           <use xlink:href="#DejaVuSans-30" x="190.869141"/>
           <use xlink:href="#DejaVuSans-30" x="254.492188"/>
          </g>
         </g>
        </g>
        <g id="ytick_5">
         <g id="line2d_8">
          <g>
           <use xlink:href="#m15c9860ae0" x="63.290625" y="94.433661" style="stroke: #000000; stroke-width: 0.8"/>
          </g>
         </g>
         <g id="text_8">
          <!-- 20000 -->
          <g transform="translate(24.478125 98.23288) scale(0.1 -0.1)">
           <defs>
            <path id="DejaVuSans-32" d="M 1228 531 
L 3431 531 
L 3431 0 
L 469 0 
L 469 531 
Q 828 903 1448 1529 
Q 2069 2156 2228 2338 
Q 2531 2678 2651 2914 
Q 2772 3150 2772 3378 
Q 2772 3750 2511 3984 
Q 2250 4219 1831 4219 
Q 1534 4219 1204 4116 
Q 875 4013 500 3803 
L 500 4441 
Q 881 4594 1212 4672 
Q 1544 4750 1819 4750 
Q 2544 4750 2975 4387 
Q 3406 4025 3406 3419 
Q 3406 3131 3298 2873 
Q 3191 2616 2906 2266 
Q 2828 2175 2409 1742 
Q 1991 1309 1228 531 
z
" transform="scale(0.015625)"/>
           </defs>
           <use xlink:href="#DejaVuSans-32"/>
           <use xlink:href="#DejaVuSans-30" x="63.623047"/>
           <use xlink:href="#DejaVuSans-30" x="127.246094"/>
           <use xlink:href="#DejaVuSans-30" x="190.869141"/>
           <use xlink:href="#DejaVuSans-30" x="254.492188"/>
          </g>
         </g>
        </g>
        <g id="ytick_6">
         <g id="line2d_9">
          <g>
           <use xlink:href="#m15c9860ae0" x="63.290625" y="37.636608" style="stroke: #000000; stroke-width: 0.8"/>
          </g>
         </g>
         <g id="text_9">
          <!-- 25000 -->
          <g transform="translate(24.478125 41.435827) scale(0.1 -0.1)">
           <use xlink:href="#DejaVuSans-32"/>
           <use xlink:href="#DejaVuSans-35" x="63.623047"/>
           <use xlink:href="#DejaVuSans-30" x="127.246094"/>
           <use xlink:href="#DejaVuSans-30" x="190.869141"/>
           <use xlink:href="#DejaVuSans-30" x="254.492188"/>
          </g>
         </g>
        </g>
        <g id="text_10">
         <!-- time ago (generations) -->
         <g transform="translate(18.398438 223.682031) rotate(-90) scale(0.1 -0.1)">
          <defs>
           <path id="DejaVuSans-74" d="M 1172 4494 
L 1172 3500 
L 2356 3500 
L 2356 3053 
L 1172 3053 
L 1172 1153 
Q 1172 725 1289 603 
Q 1406 481 1766 481 
L 2356 481 
L 2356 0 
L 1766 0 
Q 1100 0 847 248 
Q 594 497 594 1153 
L 594 3053 
L 172 3053 
L 172 3500 
L 594 3500 
L 594 4494 
L 1172 4494 
z
" transform="scale(0.015625)"/>
           <path id="DejaVuSans-69" d="M 603 3500 
L 1178 3500 
L 1178 0 
L 603 0 
L 603 3500 
z
M 603 4863 
L 1178 4863 
L 1178 4134 
L 603 4134 
L 603 4863 
z
" transform="scale(0.015625)"/>
           <path id="DejaVuSans-6d" d="M 3328 2828 
Q 3544 3216 3844 3400 
Q 4144 3584 4550 3584 
Q 5097 3584 5394 3201 
Q 5691 2819 5691 2113 
L 5691 0 
L 5113 0 
L 5113 2094 
Q 5113 2597 4934 2840 
Q 4756 3084 4391 3084 
Q 3944 3084 3684 2787 
Q 3425 2491 3425 1978 
L 3425 0 
L 2847 0 
L 2847 2094 
Q 2847 2600 2669 2842 
Q 2491 3084 2119 3084 
Q 1678 3084 1418 2786 
Q 1159 2488 1159 1978 
L 1159 0 
L 581 0 
L 581 3500 
L 1159 3500 
L 1159 2956 
Q 1356 3278 1631 3431 
Q 1906 3584 2284 3584 
Q 2666 3584 2933 3390 
Q 3200 3197 3328 2828 
z
" transform="scale(0.015625)"/>
           <path id="DejaVuSans-65" d="M 3597 1894 
L 3597 1613 
L 953 1613 
Q 991 1019 1311 708 
Q 1631 397 2203 397 
Q 2534 397 2845 478 
Q 3156 559 3463 722 
L 3463 178 
Q 3153 47 2828 -22 
Q 2503 -91 2169 -91 
Q 1331 -91 842 396 
Q 353 884 353 1716 
Q 353 2575 817 3079 
Q 1281 3584 2069 3584 
Q 2775 3584 3186 3129 
Q 3597 2675 3597 1894 
z
M 3022 2063 
Q 3016 2534 2758 2815 
Q 2500 3097 2075 3097 
Q 1594 3097 1305 2825 
Q 1016 2553 972 2059 
L 3022 2063 
z
" transform="scale(0.015625)"/>
           <path id="DejaVuSans-20" transform="scale(0.015625)"/>
           <path id="DejaVuSans-61" d="M 2194 1759 
Q 1497 1759 1228 1600 
Q 959 1441 959 1056 
Q 959 750 1161 570 
Q 1363 391 1709 391 
Q 2188 391 2477 730 
Q 2766 1069 2766 1631 
L 2766 1759 
L 2194 1759 
z
M 3341 1997 
L 3341 0 
L 2766 0 
L 2766 531 
Q 2569 213 2275 61 
Q 1981 -91 1556 -91 
Q 1019 -91 701 211 
Q 384 513 384 1019 
Q 384 1609 779 1909 
Q 1175 2209 1959 2209 
L 2766 2209 
L 2766 2266 
Q 2766 2663 2505 2880 
Q 2244 3097 1772 3097 
Q 1472 3097 1187 3025 
Q 903 2953 641 2809 
L 641 3341 
Q 956 3463 1253 3523 
Q 1550 3584 1831 3584 
Q 2591 3584 2966 3190 
Q 3341 2797 3341 1997 
z
" transform="scale(0.015625)"/>
           <path id="DejaVuSans-67" d="M 2906 1791 
Q 2906 2416 2648 2759 
Q 2391 3103 1925 3103 
Q 1463 3103 1205 2759 
Q 947 2416 947 1791 
Q 947 1169 1205 825 
Q 1463 481 1925 481 
Q 2391 481 2648 825 
Q 2906 1169 2906 1791 
z
M 3481 434 
Q 3481 -459 3084 -895 
Q 2688 -1331 1869 -1331 
Q 1566 -1331 1297 -1286 
Q 1028 -1241 775 -1147 
L 775 -588 
Q 1028 -725 1275 -790 
Q 1522 -856 1778 -856 
Q 2344 -856 2625 -561 
Q 2906 -266 2906 331 
L 2906 616 
Q 2728 306 2450 153 
Q 2172 0 1784 0 
Q 1141 0 747 490 
Q 353 981 353 1791 
Q 353 2603 747 3093 
Q 1141 3584 1784 3584 
Q 2172 3584 2450 3431 
Q 2728 3278 2906 2969 
L 2906 3500 
L 3481 3500 
L 3481 434 
z
" transform="scale(0.015625)"/>
           <path id="DejaVuSans-6f" d="M 1959 3097 
Q 1497 3097 1228 2736 
Q 959 2375 959 1747 
Q 959 1119 1226 758 
Q 1494 397 1959 397 
Q 2419 397 2687 759 
Q 2956 1122 2956 1747 
Q 2956 2369 2687 2733 
Q 2419 3097 1959 3097 
z
M 1959 3584 
Q 2709 3584 3137 3096 
Q 3566 2609 3566 1747 
Q 3566 888 3137 398 
Q 2709 -91 1959 -91 
Q 1206 -91 779 398 
Q 353 888 353 1747 
Q 353 2609 779 3096 
Q 1206 3584 1959 3584 
z
" transform="scale(0.015625)"/>
           <path id="DejaVuSans-28" d="M 1984 4856 
Q 1566 4138 1362 3434 
Q 1159 2731 1159 2009 
Q 1159 1288 1364 580 
Q 1569 -128 1984 -844 
L 1484 -844 
Q 1016 -109 783 600 
Q 550 1309 550 2009 
Q 550 2706 781 3412 
Q 1013 4119 1484 4856 
L 1984 4856 
z
" transform="scale(0.015625)"/>
           <path id="DejaVuSans-6e" d="M 3513 2113 
L 3513 0 
L 2938 0 
L 2938 2094 
Q 2938 2591 2744 2837 
Q 2550 3084 2163 3084 
Q 1697 3084 1428 2787 
Q 1159 2491 1159 1978 
L 1159 0 
L 581 0 
L 581 3500 
L 1159 3500 
L 1159 2956 
Q 1366 3272 1645 3428 
Q 1925 3584 2291 3584 
Q 2894 3584 3203 3211 
Q 3513 2838 3513 2113 
z
" transform="scale(0.015625)"/>
           <path id="DejaVuSans-72" d="M 2631 2963 
Q 2534 3019 2420 3045 
Q 2306 3072 2169 3072 
Q 1681 3072 1420 2755 
Q 1159 2438 1159 1844 
L 1159 0 
L 581 0 
L 581 3500 
L 1159 3500 
L 1159 2956 
Q 1341 3275 1631 3429 
Q 1922 3584 2338 3584 
Q 2397 3584 2469 3576 
Q 2541 3569 2628 3553 
L 2631 2963 
z
" transform="scale(0.015625)"/>
           <path id="DejaVuSans-73" d="M 2834 3397 
L 2834 2853 
Q 2591 2978 2328 3040 
Q 2066 3103 1784 3103 
Q 1356 3103 1142 2972 
Q 928 2841 928 2578 
Q 928 2378 1081 2264 
Q 1234 2150 1697 2047 
L 1894 2003 
Q 2506 1872 2764 1633 
Q 3022 1394 3022 966 
Q 3022 478 2636 193 
Q 2250 -91 1575 -91 
Q 1294 -91 989 -36 
Q 684 19 347 128 
L 347 722 
Q 666 556 975 473 
Q 1284 391 1588 391 
Q 1994 391 2212 530 
Q 2431 669 2431 922 
Q 2431 1156 2273 1281 
Q 2116 1406 1581 1522 
L 1381 1569 
Q 847 1681 609 1914 
Q 372 2147 372 2553 
Q 372 3047 722 3315 
Q 1072 3584 1716 3584 
Q 2034 3584 2315 3537 
Q 2597 3491 2834 3397 
z
" transform="scale(0.015625)"/>
           <path id="DejaVuSans-29" d="M 513 4856 
L 1013 4856 
Q 1481 4119 1714 3412 
Q 1947 2706 1947 2009 
Q 1947 1309 1714 600 
Q 1481 -109 1013 -844 
L 513 -844 
Q 928 -128 1133 580 
Q 1338 1288 1338 2009 
Q 1338 2731 1133 3434 
Q 928 4138 513 4856 
z
" transform="scale(0.015625)"/>
          </defs>
          <use xlink:href="#DejaVuSans-74"/>
          <use xlink:href="#DejaVuSans-69" x="39.208984"/>
          <use xlink:href="#DejaVuSans-6d" x="66.992188"/>
          <use xlink:href="#DejaVuSans-65" x="164.404297"/>
          <use xlink:href="#DejaVuSans-20" x="225.927734"/>
          <use xlink:href="#DejaVuSans-61" x="257.714844"/>
          <use xlink:href="#DejaVuSans-67" x="318.994141"/>
          <use xlink:href="#DejaVuSans-6f" x="382.470703"/>
          <use xlink:href="#DejaVuSans-20" x="443.652344"/>
          <use xlink:href="#DejaVuSans-28" x="475.439453"/>
          <use xlink:href="#DejaVuSans-67" x="514.453125"/>
          <use xlink:href="#DejaVuSans-65" x="577.929688"/>
          <use xlink:href="#DejaVuSans-6e" x="639.453125"/>
          <use xlink:href="#DejaVuSans-65" x="702.832031"/>
          <use xlink:href="#DejaVuSans-72" x="764.355469"/>
          <use xlink:href="#DejaVuSans-61" x="805.46875"/>
          <use xlink:href="#DejaVuSans-74" x="866.748047"/>
          <use xlink:href="#DejaVuSans-69" x="905.957031"/>
          <use xlink:href="#DejaVuSans-6f" x="933.740234"/>
          <use xlink:href="#DejaVuSans-6e" x="994.921875"/>
          <use xlink:href="#DejaVuSans-73" x="1058.300781"/>
          <use xlink:href="#DejaVuSans-29" x="1110.400391"/>
         </g>
        </g>
       </g>
       <g id="patch_7">
        <path d="M 294.250672 229.156272 
L 293.250672 229.124836 
L 292.250672 229.087895 
L 291.250672 228.990149 
L 290.250672 228.957627 
L 289.250672 228.884002 
L 288.250672 228.845437 
L 287.250672 228.810024 
L 286.250672 228.752384 
L 285.250672 228.681997 
L 284.250672 228.630033 
L 283.250672 228.570944 
L 282.250672 228.482623 
L 281.250672 228.436478 
L 280.250672 228.394067 
L 279.250672 228.363575 
L 278.250672 228.33753 
L 277.250672 228.31633 
L 276.250672 228.262029 
L 275.250672 228.234091 
L 274.250672 228.204367 
L 273.250672 228.178972 
L 272.250672 228.167772 
L 271.250672 228.157648 
L 270.250672 228.157852 
L 269.250672 228.167362 
L 268.250672 228.179016 
L 267.250672 228.210045 
L 266.250672 228.221213 
L 265.250672 228.25133 
L 264.250672 228.311107 
L 263.250672 228.348299 
L 262.250672 228.387395 
L 261.250672 228.429835 
L 260.250672 228.4626 
L 259.250672 228.530026 
L 258.250672 228.569152 
L 257.250672 228.611827 
L 256.250672 228.682407 
L 255.250672 228.718798 
L 254.250672 228.777201 
L 253.250672 228.888154 
L 252.250672 228.958812 
L 251.250672 229.071752 
L 250.250672 229.117525 
L 249.250672 229.178808 
L 248.250672 229.227307 
L 247.250672 229.30813 
L 246.250672 229.426649 
L 245.250672 229.49686 
L 244.250672 229.580122 
L 243.250672 229.613264 
L 242.250672 229.664501 
L 241.250672 229.7329 
L 240.250672 229.799115 
L 239.250672 229.876032 
L 238.250672 229.903347 
L 237.250672 229.929825 
L 236.250672 229.952476 
L 235.250672 229.972007 
L 234.250672 229.998401 
L 233.250672 230.048172 
L 232.250672 230.083245 
L 231.250672 230.119111 
L 230.250672 230.134478 
L 229.250672 230.150247 
L 227.831423 230.15366 
" clip-path="url(#pb022de6c9b)" style="fill: none; stroke: #ffffff; stroke-width: 3; stroke-linecap: round"/>
        <path d="M 294.250672 229.156272 
L 293.250672 229.124836 
L 292.250672 229.087895 
L 291.250672 228.990149 
L 290.250672 228.957627 
L 289.250672 228.884002 
L 288.250672 228.845437 
L 287.250672 228.810024 
L 286.250672 228.752384 
L 285.250672 228.681997 
L 284.250672 228.630033 
L 283.250672 228.570944 
L 282.250672 228.482623 
L 281.250672 228.436478 
L 280.250672 228.394067 
L 279.250672 228.363575 
L 278.250672 228.33753 
L 277.250672 228.31633 
L 276.250672 228.262029 
L 275.250672 228.234091 
L 274.250672 228.204367 
L 273.250672 228.178972 
L 272.250672 228.167772 
L 271.250672 228.157648 
L 270.250672 228.157852 
L 269.250672 228.167362 
L 268.250672 228.179016 
L 267.250672 228.210045 
L 266.250672 228.221213 
L 265.250672 228.25133 
L 264.250672 228.311107 
L 263.250672 228.348299 
L 262.250672 228.387395 
L 261.250672 228.429835 
L 260.250672 228.4626 
L 259.250672 228.530026 
L 258.250672 228.569152 
L 257.250672 228.611827 
L 256.250672 228.682407 
L 255.250672 228.718798 
L 254.250672 228.777201 
L 253.250672 228.888154 
L 252.250672 228.958812 
L 251.250672 229.071752 
L 250.250672 229.117525 
L 249.250672 229.178808 
L 248.250672 229.227307 
L 247.250672 229.30813 
L 246.250672 229.426649 
L 245.250672 229.49686 
L 244.250672 229.580122 
L 243.250672 229.613264 
L 242.250672 229.664501 
L 241.250672 229.7329 
L 240.250672 229.799115 
L 239.250672 229.876032 
L 238.250672 229.903347 
L 237.250672 229.929825 
L 236.250672 229.952476 
L 235.250672 229.972007 
L 234.250672 229.998401 
L 233.250672 230.048172 
L 232.250672 230.083245 
L 231.250672 230.119111 
L 230.250672 230.134478 
L 229.250672 230.150247 
L 227.831423 230.15366 
" clip-path="url(#pb022de6c9b)" style="fill: none; stroke: #1f77b4; stroke-linecap: round"/>
        <path d="M 231.831423 231.156272 
L 230.951055 230.680941 
L 230.073148 230.200687 
L 229.222434 229.666046 
L 227.92026 228.978599 
L 228.847613 228.952584 
L 229.759288 228.539864 
L 230.669552 228.124325 
L 232.012048 227.517521 
L 231.357149 228.156272 
L 231.305185 229.156272 
L 231.246095 231.156272 
z
" clip-path="url(#pb022de6c9b)" style="fill: #ffffff; stroke: #ffffff; stroke-width: 3; stroke-linecap: round"/>
        <path d="M 231.831423 231.156272 
L 230.951055 230.680941 
L 230.073148 230.200687 
L 229.222434 229.666046 
L 227.92026 228.978599 
L 228.847613 228.952584 
L 229.759288 228.539864 
L 230.669552 228.124325 
L 232.012048 227.517521 
L 231.357149 228.156272 
L 231.305185 229.156272 
L 231.246095 231.156272 
z
" clip-path="url(#pb022de6c9b)" style="fill: #ffffff; stroke: #1f77b4; stroke-linecap: round"/>
        <g id="patch_8">
         <path d="M 365.905382 72.964375 
L 366.905382 72.995811 
L 367.905382 73.032752 
L 368.905382 73.130498 
L 369.905382 73.16302 
L 370.905382 73.236645 
L 371.905382 73.27521 
L 372.905382 73.310623 
L 373.905382 73.368263 
L 374.905382 73.438649 
L 375.905382 73.490614 
L 376.905382 73.549703 
L 377.905382 73.638024 
L 378.905382 73.684169 
L 379.905382 73.72658 
L 380.905382 73.757072 
L 381.905382 73.783117 
L 382.905382 73.804317 
L 383.905382 73.858618 
L 384.905382 73.886556 
L 385.905382 73.91628 
L 386.905382 73.941675 
L 387.905382 73.952875 
L 388.905382 73.962999 
L 389.905382 73.962795 
L 390.905382 73.953285 
L 391.905382 73.941631 
L 392.905382 73.910602 
L 393.905382 73.899434 
L 394.905382 73.869317 
L 395.905382 73.80954 
L 396.905382 73.772348 
L 397.905382 73.733252 
L 398.905382 73.690812 
L 399.905382 73.658047 
L 400.905382 73.590621 
L 401.905382 73.551495 
L 402.905382 73.50882 
L 403.905382 73.43824 
L 404.905382 73.401849 
L 405.905382 73.343446 
L 406.905382 73.232493 
L 407.905382 73.161835 
L 408.905382 73.048895 
L 409.905382 73.003122 
L 410.905382 72.941839 
L 411.905382 72.89334 
L 412.905382 72.812517 
L 413.905382 72.693998 
L 414.905382 72.623787 
L 415.905382 72.540525 
L 416.905382 72.507383 
L 417.905382 72.456146 
L 418.905382 72.387747 
L 419.905382 72.321532 
L 420.905382 72.244615 
L 421.905382 72.217299 
L 422.905382 72.190822 
L 423.905382 72.168171 
L 424.905382 72.14864 
L 425.905382 72.122246 
L 426.905382 72.072475 
L 427.905382 72.037402 
L 428.905382 72.001536 
L 429.905382 71.986169 
L 430.905382 71.9704 
L 431.905382 71.966987 
L 432.905382 71.96457 
L 433.905382 71.965056 
L 434.905382 71.966985 
L 435.905382 71.980242 
L 436.905382 71.988633 
L 437.905382 72.010169 
L 438.905382 72.033202 
L 439.905382 72.050435 
L 440.905382 72.068898 
L 441.905382 72.08935 
L 442.905382 72.10595 
L 443.905382 72.168729 
L 444.905382 72.243994 
L 445.905382 72.276633 
L 446.905382 72.344197 
L 447.905382 72.398244 
L 448.905382 72.431948 
L 449.905382 72.522074 
L 450.905382 72.550609 
L 451.905382 72.582095 
L 452.905382 72.613106 
L 453.905382 72.667914 
L 454.905382 72.732501 
L 455.905382 72.770697 
L 456.905382 72.866631 
L 457.905382 72.915889 
L 458.905382 72.959958 
L 459.905382 73.000082 
L 460.905382 73.108449 
L 461.905382 73.150077 
L 462.905382 73.212219 
L 463.905382 73.282181 
L 464.905382 73.386685 
L 465.905382 73.423673 
L 466.905382 73.46955 
L 467.905382 73.538045 
L 468.905382 73.586791 
L 469.905382 73.664388 
L 470.905382 73.694929 
L 471.905382 73.764443 
L 472.905382 73.788416 
L 473.905382 73.817038 
L 474.905382 73.858831 
L 475.905382 73.880407 
L 476.905382 73.894355 
L 477.905382 73.921077 
L 478.905382 73.930387 
L 479.905382 73.942834 
L 480.905382 73.953889 
L 481.905382 73.959553 
L 482.905382 73.964317 
L 483.905382 73.958769 
L 484.905382 73.945481 
L 485.905382 73.937964 
L 486.905382 73.913179 
L 487.905382 73.88961 
L 488.905382 73.85343 
L 489.905382 73.827468 
L 490.905382 73.805146 
L 491.905382 73.736386 
L 492.905382 73.661851 
L 493.905382 73.567872 
L 494.905382 73.51682 
L 495.905382 73.462886 
L 496.905382 73.427635 
L 497.905382 73.321547 
L 498.905382 73.269283 
L 499.905382 73.232376 
L 500.905382 73.201345 
L 501.905382 73.14019 
L 502.905382 73.07277 
L 503.905382 73.023864 
L 504.905382 72.958672 
L 505.905382 72.920484 
L 506.905382 72.878488 
L 507.905382 72.836471 
L 508.905382 72.776955 
L 509.905382 72.663795 
L 510.905382 72.611544 
L 511.905382 72.572126 
L 512.905382 72.525025 
L 513.905382 72.468245 
L 514.905382 72.435582 
L 515.905382 72.399404 
L 516.905382 72.367314 
L 517.905382 72.333034 
L 518.905382 72.274656 
L 519.905382 72.229471 
L 520.905382 72.199847 
L 521.905382 72.149461 
L 522.905382 72.124264 
L 523.905382 72.103213 
L 524.905382 72.068245 
L 525.905382 72.043955 
L 526.905382 72.029888 
L 527.905382 72.010946 
L 528.905382 71.995285 
L 529.905382 71.982733 
L 530.905382 71.976897 
L 531.905382 71.970015 
L 532.905382 71.964841 
L 533.905382 71.966624 
L 534.905382 71.969349 
L 535.905382 71.980503 
L 536.905382 72.008738 
L 537.905382 72.052526 
L 538.905382 72.073215 
L 539.905382 72.114188 
L 541.467166 72.154263 
" clip-path="url(#pb022de6c9b)" style="fill: none; stroke: #ffffff; stroke-width: 3; stroke-linecap: round"/>
         <path d="M 365.905382 72.964375 
L 366.905382 72.995811 
L 367.905382 73.032752 
L 368.905382 73.130498 
L 369.905382 73.16302 
L 370.905382 73.236645 
L 371.905382 73.27521 
L 372.905382 73.310623 
L 373.905382 73.368263 
L 374.905382 73.438649 
L 375.905382 73.490614 
L 376.905382 73.549703 
L 377.905382 73.638024 
L 378.905382 73.684169 
L 379.905382 73.72658 
L 380.905382 73.757072 
L 381.905382 73.783117 
L 382.905382 73.804317 
L 383.905382 73.858618 
L 384.905382 73.886556 
L 385.905382 73.91628 
L 386.905382 73.941675 
L 387.905382 73.952875 
L 388.905382 73.962999 
L 389.905382 73.962795 
L 390.905382 73.953285 
L 391.905382 73.941631 
L 392.905382 73.910602 
L 393.905382 73.899434 
L 394.905382 73.869317 
L 395.905382 73.80954 
L 396.905382 73.772348 
L 397.905382 73.733252 
L 398.905382 73.690812 
L 399.905382 73.658047 
L 400.905382 73.590621 
L 401.905382 73.551495 
L 402.905382 73.50882 
L 403.905382 73.43824 
L 404.905382 73.401849 
L 405.905382 73.343446 
L 406.905382 73.232493 
L 407.905382 73.161835 
L 408.905382 73.048895 
L 409.905382 73.003122 
L 410.905382 72.941839 
L 411.905382 72.89334 
L 412.905382 72.812517 
L 413.905382 72.693998 
L 414.905382 72.623787 
L 415.905382 72.540525 
L 416.905382 72.507383 
L 417.905382 72.456146 
L 418.905382 72.387747 
L 419.905382 72.321532 
L 420.905382 72.244615 
L 421.905382 72.217299 
L 422.905382 72.190822 
L 423.905382 72.168171 
L 424.905382 72.14864 
L 425.905382 72.122246 
L 426.905382 72.072475 
L 427.905382 72.037402 
L 428.905382 72.001536 
L 429.905382 71.986169 
L 430.905382 71.9704 
L 431.905382 71.966987 
L 432.905382 71.96457 
L 433.905382 71.965056 
L 434.905382 71.966985 
L 435.905382 71.980242 
L 436.905382 71.988633 
L 437.905382 72.010169 
L 438.905382 72.033202 
L 439.905382 72.050435 
L 440.905382 72.068898 
L 441.905382 72.08935 
L 442.905382 72.10595 
L 443.905382 72.168729 
L 444.905382 72.243994 
L 445.905382 72.276633 
L 446.905382 72.344197 
L 447.905382 72.398244 
L 448.905382 72.431948 
L 449.905382 72.522074 
L 450.905382 72.550609 
L 451.905382 72.582095 
L 452.905382 72.613106 
L 453.905382 72.667914 
L 454.905382 72.732501 
L 455.905382 72.770697 
L 456.905382 72.866631 
L 457.905382 72.915889 
L 458.905382 72.959958 
L 459.905382 73.000082 
L 460.905382 73.108449 
L 461.905382 73.150077 
L 462.905382 73.212219 
L 463.905382 73.282181 
L 464.905382 73.386685 
L 465.905382 73.423673 
L 466.905382 73.46955 
L 467.905382 73.538045 
L 468.905382 73.586791 
L 469.905382 73.664388 
L 470.905382 73.694929 
L 471.905382 73.764443 
L 472.905382 73.788416 
L 473.905382 73.817038 
L 474.905382 73.858831 
L 475.905382 73.880407 
L 476.905382 73.894355 
L 477.905382 73.921077 
L 478.905382 73.930387 
L 479.905382 73.942834 
L 480.905382 73.953889 
L 481.905382 73.959553 
L 482.905382 73.964317 
L 483.905382 73.958769 
L 484.905382 73.945481 
L 485.905382 73.937964 
L 486.905382 73.913179 
L 487.905382 73.88961 
L 488.905382 73.85343 
L 489.905382 73.827468 
L 490.905382 73.805146 
L 491.905382 73.736386 
L 492.905382 73.661851 
L 493.905382 73.567872 
L 494.905382 73.51682 
L 495.905382 73.462886 
L 496.905382 73.427635 
L 497.905382 73.321547 
L 498.905382 73.269283 
L 499.905382 73.232376 
L 500.905382 73.201345 
L 501.905382 73.14019 
L 502.905382 73.07277 
L 503.905382 73.023864 
L 504.905382 72.958672 
L 505.905382 72.920484 
L 506.905382 72.878488 
L 507.905382 72.836471 
L 508.905382 72.776955 
L 509.905382 72.663795 
L 510.905382 72.611544 
L 511.905382 72.572126 
L 512.905382 72.525025 
L 513.905382 72.468245 
L 514.905382 72.435582 
L 515.905382 72.399404 
L 516.905382 72.367314 
L 517.905382 72.333034 
L 518.905382 72.274656 
L 519.905382 72.229471 
L 520.905382 72.199847 
L 521.905382 72.149461 
L 522.905382 72.124264 
L 523.905382 72.103213 
L 524.905382 72.068245 
L 525.905382 72.043955 
L 526.905382 72.029888 
L 527.905382 72.010946 
L 528.905382 71.995285 
L 529.905382 71.982733 
L 530.905382 71.976897 
L 531.905382 71.970015 
L 532.905382 71.964841 
L 533.905382 71.966624 
L 534.905382 71.969349 
L 535.905382 71.980503 
L 536.905382 72.008738 
L 537.905382 72.052526 
L 538.905382 72.073215 
L 539.905382 72.114188 
L 541.467166 72.154263 
" clip-path="url(#pb022de6c9b)" style="fill: none; stroke: #1f77b4; stroke-linecap: round"/>
         <path d="M 537.467166 70.964375 
L 538.347534 71.439706 
L 539.225441 71.91996 
L 540.076155 72.454601 
L 541.378329 73.142048 
L 540.450976 73.168063 
L 539.539302 73.580783 
L 538.629037 73.996322 
L 537.286541 74.603126 
L 537.94144 73.964375 
L 537.993404 72.964375 
L 538.052494 70.964375 
z
" clip-path="url(#pb022de6c9b)" style="fill: #ffffff; stroke: #ffffff; stroke-width: 3; stroke-linecap: round"/>
         <path d="M 537.467166 70.964375 
L 538.347534 71.439706 
L 539.225441 71.91996 
L 540.076155 72.454601 
L 541.378329 73.142048 
L 540.450976 73.168063 
L 539.539302 73.580783 
L 538.629037 73.996322 
L 537.286541 74.603126 
L 537.94144 73.964375 
L 537.993404 72.964375 
L 538.052494 70.964375 
z
" clip-path="url(#pb022de6c9b)" style="fill: #ffffff; stroke: #1f77b4; stroke-linecap: round"/>
         <g id="patch_9">
          <path d="M 226.716952 254.82854 
L 227.716952 254.859977 
L 228.716952 254.896917 
L 229.716952 254.994663 
L 230.716952 255.027185 
L 231.716952 255.10081 
L 232.716952 255.139375 
L 233.716952 255.174789 
L 234.716952 255.232428 
L 235.716952 255.302815 
L 236.716952 255.354779 
L 237.716952 255.413869 
L 238.716952 255.50219 
L 239.716952 255.548334 
L 240.716952 255.590745 
L 241.716952 255.621238 
L 242.716952 255.647282 
L 243.716952 255.668483 
L 244.716952 255.722784 
L 245.716952 255.750721 
L 246.716952 255.780445 
L 247.716952 255.80584 
L 248.716952 255.81704 
L 249.716952 255.827164 
L 250.716952 255.82696 
L 251.716952 255.81745 
L 252.716952 255.805797 
L 253.716952 255.774767 
L 254.716952 255.763599 
L 255.716952 255.733482 
L 256.716952 255.673705 
L 257.716952 255.636513 
L 258.716952 255.597417 
L 259.716952 255.554978 
L 260.716952 255.522213 
L 261.716952 255.454786 
L 262.716952 255.41566 
L 263.716952 255.372986 
L 264.716952 255.302405 
L 265.716952 255.266014 
L 266.716952 255.207611 
L 267.716952 255.096658 
L 268.716952 255.026 
L 269.716952 254.91306 
L 270.716952 254.867287 
L 271.716952 254.806004 
L 272.716952 254.757505 
L 273.716952 254.676682 
L 274.716952 254.558163 
L 275.716952 254.487953 
L 276.716952 254.40469 
L 277.716952 254.371548 
L 278.716952 254.320311 
L 279.716952 254.251913 
L 280.716952 254.185697 
L 281.716952 254.10878 
L 282.716952 254.081465 
L 283.716952 254.054987 
L 284.716952 254.032336 
L 285.716952 254.012805 
L 286.716952 253.986411 
L 287.716952 253.93664 
L 288.716952 253.901567 
L 289.716952 253.865702 
L 290.716952 253.850334 
L 291.716952 253.834565 
L 292.716952 253.831153 
L 293.716952 253.828735 
L 294.716952 253.829221 
L 295.716952 253.83115 
L 296.716952 253.844407 
L 297.716952 253.852798 
L 298.716952 253.874335 
L 299.716952 253.897367 
L 300.716952 253.9146 
L 301.716952 253.933063 
L 302.716952 253.953515 
L 303.716952 253.970115 
L 304.716952 254.032894 
L 305.716952 254.108159 
L 306.716952 254.140798 
L 307.716952 254.208362 
L 308.716952 254.262409 
L 309.716952 254.296113 
L 310.716952 254.386239 
L 311.716952 254.414774 
L 312.716952 254.44626 
L 313.716952 254.477271 
L 314.716952 254.532079 
L 315.716952 254.596667 
L 316.716952 254.634862 
L 317.716952 254.730796 
L 318.716952 254.780054 
L 319.716952 254.824124 
L 320.716952 254.864247 
L 321.716952 254.972614 
L 322.716952 255.014242 
L 323.716952 255.076384 
L 324.716952 255.146346 
L 325.716952 255.25085 
L 326.716952 255.287838 
L 327.716952 255.333715 
L 328.716952 255.40221 
L 329.716952 255.450956 
L 330.716952 255.528553 
L 331.716952 255.559094 
L 332.716952 255.628608 
L 333.716952 255.652581 
L 334.716952 255.681203 
L 335.716952 255.722996 
L 336.716952 255.744572 
L 337.716952 255.75852 
L 338.716952 255.785243 
L 339.716952 255.794552 
L 340.716952 255.806999 
L 341.716952 255.818054 
L 342.716952 255.823718 
L 343.716952 255.828482 
L 344.716952 255.822935 
L 345.716952 255.809647 
L 346.716952 255.802129 
L 347.716952 255.777344 
L 348.716952 255.753776 
L 349.716952 255.717595 
L 350.716952 255.691633 
L 351.716952 255.669312 
L 352.716952 255.600551 
L 353.716952 255.526016 
L 354.716952 255.432037 
L 355.716952 255.380985 
L 356.716952 255.327051 
L 357.716952 255.2918 
L 358.716952 255.185712 
L 359.716952 255.133448 
L 360.716952 255.096541 
L 361.716952 255.065511 
L 362.716952 255.004355 
L 363.716952 254.936935 
L 364.716952 254.888029 
L 365.716952 254.822837 
L 366.716952 254.784649 
L 367.716952 254.742654 
L 368.716952 254.700636 
L 369.716952 254.64112 
L 370.716952 254.52796 
L 371.716952 254.475709 
L 372.716952 254.436291 
L 373.716952 254.38919 
L 374.716952 254.332411 
L 375.716952 254.299747 
L 376.716952 254.26357 
L 377.716952 254.231479 
L 378.716952 254.197199 
L 379.716952 254.138821 
L 380.716952 254.093636 
L 381.716952 254.064012 
L 382.716952 254.013627 
L 383.716952 253.988429 
L 384.716952 253.967378 
L 385.716952 253.93241 
L 386.716952 253.90812 
L 387.716952 253.894053 
L 388.716952 253.875111 
L 389.716952 253.85945 
L 390.716952 253.846898 
L 391.716952 253.841062 
L 392.716952 253.83418 
L 393.716952 253.829006 
L 394.716952 253.830789 
L 395.716952 253.833514 
L 396.716952 253.844668 
L 397.716952 253.872903 
L 398.716952 253.916691 
L 399.716952 253.93738 
L 400.716952 253.978354 
L 401.716952 254.018428 
L 402.716952 254.037538 
L 403.716952 254.060047 
L 404.716952 254.126698 
L 405.716952 254.176408 
L 406.716952 254.250115 
L 407.716952 254.281428 
L 408.716952 254.35805 
L 409.716952 254.396348 
L 410.716952 254.470465 
L 411.716952 254.574523 
L 412.716952 254.644354 
L 413.716952 254.749588 
L 414.716952 254.804603 
L 415.716952 254.928078 
L 416.716952 254.998637 
L 417.769581 255.114477 
" clip-path="url(#pb022de6c9b)" style="fill: none; stroke: #ffffff; stroke-width: 3; stroke-linecap: round"/>
          <path d="M 226.716952 254.82854 
L 227.716952 254.859977 
L 228.716952 254.896917 
L 229.716952 254.994663 
L 230.716952 255.027185 
L 231.716952 255.10081 
L 232.716952 255.139375 
L 233.716952 255.174789 
L 234.716952 255.232428 
L 235.716952 255.302815 
L 236.716952 255.354779 
L 237.716952 255.413869 
L 238.716952 255.50219 
L 239.716952 255.548334 
L 240.716952 255.590745 
L 241.716952 255.621238 
L 242.716952 255.647282 
L 243.716952 255.668483 
L 244.716952 255.722784 
L 245.716952 255.750721 
L 246.716952 255.780445 
L 247.716952 255.80584 
L 248.716952 255.81704 
L 249.716952 255.827164 
L 250.716952 255.82696 
L 251.716952 255.81745 
L 252.716952 255.805797 
L 253.716952 255.774767 
L 254.716952 255.763599 
L 255.716952 255.733482 
L 256.716952 255.673705 
L 257.716952 255.636513 
L 258.716952 255.597417 
L 259.716952 255.554978 
L 260.716952 255.522213 
L 261.716952 255.454786 
L 262.716952 255.41566 
L 263.716952 255.372986 
L 264.716952 255.302405 
L 265.716952 255.266014 
L 266.716952 255.207611 
L 267.716952 255.096658 
L 268.716952 255.026 
L 269.716952 254.91306 
L 270.716952 254.867287 
L 271.716952 254.806004 
L 272.716952 254.757505 
L 273.716952 254.676682 
L 274.716952 254.558163 
L 275.716952 254.487953 
L 276.716952 254.40469 
L 277.716952 254.371548 
L 278.716952 254.320311 
L 279.716952 254.251913 
L 280.716952 254.185697 
L 281.716952 254.10878 
L 282.716952 254.081465 
L 283.716952 254.054987 
L 284.716952 254.032336 
L 285.716952 254.012805 
L 286.716952 253.986411 
L 287.716952 253.93664 
L 288.716952 253.901567 
L 289.716952 253.865702 
L 290.716952 253.850334 
L 291.716952 253.834565 
L 292.716952 253.831153 
L 293.716952 253.828735 
L 294.716952 253.829221 
L 295.716952 253.83115 
L 296.716952 253.844407 
L 297.716952 253.852798 
L 298.716952 253.874335 
L 299.716952 253.897367 
L 300.716952 253.9146 
L 301.716952 253.933063 
L 302.716952 253.953515 
L 303.716952 253.970115 
L 304.716952 254.032894 
L 305.716952 254.108159 
L 306.716952 254.140798 
L 307.716952 254.208362 
L 308.716952 254.262409 
L 309.716952 254.296113 
L 310.716952 254.386239 
L 311.716952 254.414774 
L 312.716952 254.44626 
L 313.716952 254.477271 
L 314.716952 254.532079 
L 315.716952 254.596667 
L 316.716952 254.634862 
L 317.716952 254.730796 
L 318.716952 254.780054 
L 319.716952 254.824124 
L 320.716952 254.864247 
L 321.716952 254.972614 
L 322.716952 255.014242 
L 323.716952 255.076384 
L 324.716952 255.146346 
L 325.716952 255.25085 
L 326.716952 255.287838 
L 327.716952 255.333715 
L 328.716952 255.40221 
L 329.716952 255.450956 
L 330.716952 255.528553 
L 331.716952 255.559094 
L 332.716952 255.628608 
L 333.716952 255.652581 
L 334.716952 255.681203 
L 335.716952 255.722996 
L 336.716952 255.744572 
L 337.716952 255.75852 
L 338.716952 255.785243 
L 339.716952 255.794552 
L 340.716952 255.806999 
L 341.716952 255.818054 
L 342.716952 255.823718 
L 343.716952 255.828482 
L 344.716952 255.822935 
L 345.716952 255.809647 
L 346.716952 255.802129 
L 347.716952 255.777344 
L 348.716952 255.753776 
L 349.716952 255.717595 
L 350.716952 255.691633 
L 351.716952 255.669312 
L 352.716952 255.600551 
L 353.716952 255.526016 
L 354.716952 255.432037 
L 355.716952 255.380985 
L 356.716952 255.327051 
L 357.716952 255.2918 
L 358.716952 255.185712 
L 359.716952 255.133448 
L 360.716952 255.096541 
L 361.716952 255.065511 
L 362.716952 255.004355 
L 363.716952 254.936935 
L 364.716952 254.888029 
L 365.716952 254.822837 
L 366.716952 254.784649 
L 367.716952 254.742654 
L 368.716952 254.700636 
L 369.716952 254.64112 
L 370.716952 254.52796 
L 371.716952 254.475709 
L 372.716952 254.436291 
L 373.716952 254.38919 
L 374.716952 254.332411 
L 375.716952 254.299747 
L 376.716952 254.26357 
L 377.716952 254.231479 
L 378.716952 254.197199 
L 379.716952 254.138821 
L 380.716952 254.093636 
L 381.716952 254.064012 
L 382.716952 254.013627 
L 383.716952 253.988429 
L 384.716952 253.967378 
L 385.716952 253.93241 
L 386.716952 253.90812 
L 387.716952 253.894053 
L 388.716952 253.875111 
L 389.716952 253.85945 
L 390.716952 253.846898 
L 391.716952 253.841062 
L 392.716952 253.83418 
L 393.716952 253.829006 
L 394.716952 253.830789 
L 395.716952 253.833514 
L 396.716952 253.844668 
L 397.716952 253.872903 
L 398.716952 253.916691 
L 399.716952 253.93738 
L 400.716952 253.978354 
L 401.716952 254.018428 
L 402.716952 254.037538 
L 403.716952 254.060047 
L 404.716952 254.126698 
L 405.716952 254.176408 
L 406.716952 254.250115 
L 407.716952 254.281428 
L 408.716952 254.35805 
L 409.716952 254.396348 
L 410.716952 254.470465 
L 411.716952 254.574523 
L 412.716952 254.644354 
L 413.716952 254.749588 
L 414.716952 254.804603 
L 415.716952 254.928078 
L 416.716952 254.998637 
L 417.769581 255.114477 
" clip-path="url(#pb022de6c9b)" style="fill: none; stroke: #ff7f0e; stroke-linecap: round"/>
          <path d="M 413.769581 252.82854 
L 414.64995 253.303871 
L 415.527857 253.784125 
L 416.37857 254.318766 
L 417.680745 255.006214 
L 416.753392 255.032228 
L 415.841717 255.444948 
L 414.931453 255.860487 
L 413.588957 256.467291 
L 414.243856 255.82854 
L 414.29582 254.82854 
L 414.35491 252.82854 
z
" clip-path="url(#pb022de6c9b)" style="fill: #ffffff; stroke: #ffffff; stroke-width: 3; stroke-linecap: round"/>
          <path d="M 413.769581 252.82854 
L 414.64995 253.303871 
L 415.527857 253.784125 
L 416.37857 254.318766 
L 417.680745 255.006214 
L 416.753392 255.032228 
L 415.841717 255.444948 
L 414.931453 255.860487 
L 413.588957 256.467291 
L 414.243856 255.82854 
L 414.29582 254.82854 
L 414.35491 252.82854 
z
" clip-path="url(#pb022de6c9b)" style="fill: #ffffff; stroke: #ff7f0e; stroke-linecap: round"/>
          <path d="M 476.40841 308.001942 
" clip-path="url(#pb022de6c9b)" style="fill: none; stroke-dasharray: 3.7,1.6; stroke-dashoffset: 0; stroke: #2ca02c"/>
          <path d="M 475.40841 308.001942 
L 477.40841 309.001942 
L 477.40841 307.001942 
z
" clip-path="url(#pb022de6c9b)" style="fill: #2ca02c; stroke: #2ca02c; stroke-linejoin: miter"/>
          <g id="patch_10">
           <path d="M 63.290625 321.621875 
L 63.290625 10.8 
" style="fill: none; stroke: #000000; stroke-width: 0.8; stroke-linejoin: miter; stroke-linecap: square"/>
          </g>
          <g id="text_11">
           <g id="patch_11">
            <path d="M 319.428411 126.817198 
L 340.733098 126.817198 
Q 342.733098 126.817198 342.733098 124.817198 
L 342.733098 115.139073 
Q 342.733098 113.139073 340.733098 113.139073 
L 319.428411 113.139073 
Q 317.428411 113.139073 317.428411 115.139073 
L 317.428411 124.817198 
Q 317.428411 126.817198 319.428411 126.817198 
z
" style="fill: #ffffff; opacity: 0.6"/>
           </g>
           <!-- ANC -->
           <g transform="translate(319.428411 122.737511) scale(0.1 -0.1)">
            <defs>
             <path id="DejaVuSans-4e" d="M 628 4666 
L 1478 4666 
L 3547 763 
L 3547 4666 
L 4159 4666 
L 4159 0 
L 3309 0 
L 1241 3903 
L 1241 0 
L 628 0 
L 628 4666 
z
" transform="scale(0.015625)"/>
            </defs>
            <use xlink:href="#DejaVuSans-41"/>
            <use xlink:href="#DejaVuSans-4e" x="68.408203"/>
            <use xlink:href="#DejaVuSans-43" x="143.212891"/>
           </g>
          </g>
         </g>
        </g>
        <defs>
         <clipPath id="pb022de6c9b">
          <rect x="63.290625" y="10.8" width="540.309375" height="310.821875"/>
         </clipPath>
        </defs>
       </g>
      </g>
     </g>
    </g>
   </g>
  </g>
 </g>
</svg>
