<?xml version="1.0" encoding="utf-8" standalone="no"?>
<!DOCTYPE svg PUBLIC "-//W3C//DTD SVG 1.1//EN"
  "http://www.w3.org/Graphics/SVG/1.1/DTD/svg11.dtd">
<svg xmlns:xlink="http://www.w3.org/1999/xlink" width="614.4pt" height="345.6pt" viewBox="0 0 614.4 345.6" xmlns="http://www.w3.org/2000/svg" version="1.1">
 <metadata>
  <rdf:RDF xmlns:dc="http://purl.org/dc/elements/1.1/" xmlns:cc="http://creativecommons.org/ns#" xmlns:rdf="http://www.w3.org/1999/02/22-rdf-syntax-ns#">
   <cc:Work>
    <dc:type rdf:resource="http://purl.org/dc/dcmitype/StillImage"/>
    <dc:date>2024-04-17T19:48:41.080803</dc:date>
    <dc:format>image/svg+xml</dc:format>
    <dc:creator>
     <cc:Agent>
      <dc:title>Matplotlib v3.7.1, https://matplotlib.org/</dc:title>
     </cc:Agent>
    </dc:creator>
   </cc:Work>
  </rdf:RDF>
 </metadata>
 <defs>
  <style type="text/css">*{stroke-linejoin: round; stroke-linecap: butt}</style>
 </defs>
 <g id="figure_1">
  <g id="patch_1">
   <path d="M 0 345.6 
L 614.4 345.6 
L 614.4 0 
L 0 0 
z
" style="fill: #ffffff"/>
  </g>
  <g id="axes_1">
   <g id="patch_2">
    <path d="M 63.290625 321.621875 
L 603.6 321.621875 
L 603.6 10.8 
L 63.290625 10.8 
z
" style="fill: #ffffff"/>
   </g>
   <path d="M 519.908008 305.843915 
L 518.908008 305.812479 
L 517.908008 305.775538 
L 516.908008 305.677792 
L 515.908008 305.64527 
L 514.908008 305.571645 
L 513.908008 305.53308 
L 512.908008 305.497667 
L 511.908008 305.440027 
L 510.908008 305.369641 
L 509.908008 305.317676 
L 508.908008 305.258587 
L 507.908008 305.170266 
L 506.908008 305.124121 
L 505.908008 305.08171 
L 504.908008 305.051218 
L 503.908008 305.025173 
L 502.908008 305.003973 
L 501.908008 304.949672 
L 500.908008 304.921734 
L 499.908008 304.89201 
L 498.908008 304.866615 
L 497.908008 304.855415 
L 496.908008 304.845291 
L 495.908008 304.845495 
L 494.908008 304.855005 
L 493.908008 304.866659 
L 492.908008 304.897688 
L 491.908008 304.908856 
L 490.908008 304.938973 
L 489.908008 304.99875 
L 488.908008 305.035942 
L 487.908008 305.075038 
L 486.908008 305.117478 
L 485.908008 305.150243 
L 484.908008 305.217669 
L 483.908008 305.256795 
L 482.908008 305.29947 
L 481.908008 305.37005 
L 480.908008 305.406441 
L 479.908008 305.464844 
L 478.908008 305.575797 
L 477.908008 305.646455 
L 476.908008 305.759395 
L 475.908008 305.805168 
L 474.908008 305.866451 
L 473.908008 305.91495 
L 472.908008 305.995773 
L 471.908008 306.114292 
L 470.908008 306.184503 
L 469.908008 306.267765 
L 468.908008 306.300907 
L 467.908008 306.352144 
L 466.908008 306.420543 
L 465.908008 306.486758 
L 464.908008 306.563675 
L 463.908008 306.590991 
L 462.908008 306.617468 
L 461.908008 306.640119 
L 460.908008 306.65965 
L 459.908008 306.686044 
L 458.908008 306.735815 
L 457.908008 306.770888 
L 456.762295 306.806754 
" clip-path="url(#p9179fdda9f)" style="fill: none; stroke-dasharray: 3.7,1.6; stroke-dashoffset: 0; stroke: #2ca02c"/>
   <g id="patch_3">
    <path d="M 247.211693 10.8 
L 247.211693 297.229576 
M 386.264877 10.8 
L 386.264877 297.229576 
" clip-path="url(#p9179fdda9f)" style="fill: none; stroke: #ffffff; stroke-width: 3; stroke-linejoin: miter"/>
    <path d="M 247.211693 10.8 
L 247.211693 297.229576 
M 386.264877 10.8 
L 386.264877 297.229576 
" clip-path="url(#p9179fdda9f)" style="fill: none; stroke: #1f77b4; stroke-linejoin: miter"/>
    <g id="PolyCollection_1">
     <path d="M 386.264877 10.8 
L 247.211693 10.8 
L 247.211693 297.229576 
L 386.264877 297.229576 
L 386.264877 297.229576 
L 386.264877 10.8 
z
" clip-path="url(#p9179fdda9f)" style="fill: #1f77b4; fill-opacity: 0.5"/>
    </g>
    <g id="patch_4">
     <path d="M 87.850142 297.229576 
L 87.850142 321.621875 
M 192.470168 297.229576 
L 192.470168 321.621875 
" clip-path="url(#p9179fdda9f)" style="fill: none; stroke: #ffffff; stroke-width: 3; stroke-linejoin: miter"/>
     <path d="M 87.850142 297.229576 
L 87.850142 321.621875 
M 192.470168 297.229576 
L 192.470168 321.621875 
" clip-path="url(#p9179fdda9f)" style="fill: none; stroke: #ff7f0e; stroke-linejoin: miter"/>
     <g id="PolyCollection_2">
      <path d="M 192.470168 297.229576 
L 87.850142 297.229576 
L 87.850142 321.621875 
L 192.470168 321.621875 
L 192.470168 321.621875 
L 192.470168 297.229576 
z
" clip-path="url(#p9179fdda9f)" style="fill: #ff7f0e; fill-opacity: 0.5"/>
     </g>
     <g id="patch_5">
      <path d="M 525.311102 72.964375 
L 525.311102 321.621875 
M 579.040483 72.964375 
L 579.040483 321.621875 
" clip-path="url(#p9179fdda9f)" style="fill: none; stroke: #ffffff; stroke-width: 3; stroke-linejoin: miter"/>
      <path d="M 525.311102 72.964375 
L 525.311102 321.621875 
M 579.040483 72.964375 
L 579.040483 321.621875 
" clip-path="url(#p9179fdda9f)" style="fill: none; stroke: #2ca02c; stroke-linejoin: miter"/>
      <g id="PolyCollection_3">
       <path d="M 579.040483 72.964375 
L 525.311102 72.964375 
L 525.311102 321.621875 
L 579.040483 321.621875 
L 579.040483 321.621875 
L 579.040483 72.964375 
z
" clip-path="url(#p9179fdda9f)" style="fill: #2ca02c; fill-opacity: 0.5"/>
      </g>
      <g id="patch_6">
       <path d="M 417.554877 297.229576 
L 417.554877 321.621875 
M 451.359201 297.229576 
L 451.359201 321.621875 
" clip-path="url(#p9179fdda9f)" style="fill: none; stroke: #ffffff; stroke-width: 3; stroke-linejoin: miter"/>
       <path d="M 417.554877 297.229576 
L 417.554877 321.621875 
M 451.359201 297.229576 
L 451.359201 321.621875 
" clip-path="url(#p9179fdda9f)" style="fill: none; stroke: #d62728; stroke-linejoin: miter"/>
       <g id="PolyCollection_4">
        <path d="M 451.359201 297.229576 
L 417.554877 297.229576 
L 417.554877 321.621875 
L 451.359201 321.621875 
L 451.359201 321.621875 
L 451.359201 297.229576 
z
" clip-path="url(#p9179fdda9f)" style="fill: #d62728; fill-opacity: 0.5"/>
       </g>
       <g id="matplotlib.axis_1">
        <g id="xtick_1">
         <g id="line2d_1"/>
         <g id="text_1">
          <!-- OUT -->
          <g transform="translate(129.510936 332.720312) scale(0.1 -0.1)">
           <defs>
            <path id="DejaVuSans-4f" d="M 2522 4238 
Q 1834 4238 1429 3725 
Q 1025 3213 1025 2328 
Q 1025 1447 1429 934 
Q 1834 422 2522 422 
Q 3209 422 3611 934 
Q 4013 1447 4013 2328 
Q 4013 3213 3611 3725 
Q 3209 4238 2522 4238 
z
M 2522 4750 
Q 3503 4750 4090 4092 
Q 4678 3434 4678 2328 
Q 4678 1225 4090 567 
Q 3503 -91 2522 -91 
Q 1538 -91 948 565 
Q 359 1222 359 2328 
Q 359 3434 948 4092 
Q 1538 4750 2522 4750 
z
" transform="scale(0.015625)"/>
            <path id="DejaVuSans-55" d="M 556 4666 
L 1191 4666 
L 1191 1831 
Q 1191 1081 1462 751 
Q 1734 422 2344 422 
Q 2950 422 3222 751 
Q 3494 1081 3494 1831 
L 3494 4666 
L 4128 4666 
L 4128 1753 
Q 4128 841 3676 375 
Q 3225 -91 2344 -91 
Q 1459 -91 1007 375 
Q 556 841 556 1753 
L 556 4666 
z
" transform="scale(0.015625)"/>
            <path id="DejaVuSans-54" d="M -19 4666 
L 3928 4666 
L 3928 4134 
L 2272 4134 
L 2272 0 
L 1638 0 
L 1638 4134 
L -19 4134 
L -19 4666 
z
" transform="scale(0.015625)"/>
           </defs>
           <use xlink:href="#DejaVuSans-4f"/>
           <use xlink:href="#DejaVuSans-55" x="78.710938"/>
           <use xlink:href="#DejaVuSans-54" x="151.904297"/>
          </g>
         </g>
        </g>
        <g id="xtick_2">
         <g id="line2d_2"/>
         <g id="text_2">
          <!-- SRC -->
          <g transform="translate(542.285948 332.720312) scale(0.1 -0.1)">
           <defs>
            <path id="DejaVuSans-53" d="M 3425 4513 
L 3425 3897 
Q 3066 4069 2747 4153 
Q 2428 4238 2131 4238 
Q 1616 4238 1336 4038 
Q 1056 3838 1056 3469 
Q 1056 3159 1242 3001 
Q 1428 2844 1947 2747 
L 2328 2669 
Q 3034 2534 3370 2195 
Q 3706 1856 3706 1288 
Q 3706 609 3251 259 
Q 2797 -91 1919 -91 
Q 1588 -91 1214 -16 
Q 841 59 441 206 
L 441 856 
Q 825 641 1194 531 
Q 1563 422 1919 422 
Q 2459 422 2753 634 
Q 3047 847 3047 1241 
Q 3047 1584 2836 1778 
Q 2625 1972 2144 2069 
L 1759 2144 
Q 1053 2284 737 2584 
Q 422 2884 422 3419 
Q 422 4038 858 4394 
Q 1294 4750 2059 4750 
Q 2388 4750 2728 4690 
Q 3069 4631 3425 4513 
z
" transform="scale(0.015625)"/>
            <path id="DejaVuSans-52" d="M 2841 2188 
Q 3044 2119 3236 1894 
Q 3428 1669 3622 1275 
L 4263 0 
L 3584 0 
L 2988 1197 
Q 2756 1666 2539 1819 
Q 2322 1972 1947 1972 
L 1259 1972 
L 1259 0 
L 628 0 
L 628 4666 
L 2053 4666 
Q 2853 4666 3247 4331 
Q 3641 3997 3641 3322 
Q 3641 2881 3436 2590 
Q 3231 2300 2841 2188 
z
M 1259 4147 
L 1259 2491 
L 2053 2491 
Q 2509 2491 2742 2702 
Q 2975 2913 2975 3322 
Q 2975 3731 2742 3939 
Q 2509 4147 2053 4147 
L 1259 4147 
z
" transform="scale(0.015625)"/>
            <path id="DejaVuSans-43" d="M 4122 4306 
L 4122 3641 
Q 3803 3938 3442 4084 
Q 3081 4231 2675 4231 
Q 1875 4231 1450 3742 
Q 1025 3253 1025 2328 
Q 1025 1406 1450 917 
Q 1875 428 2675 428 
Q 3081 428 3442 575 
Q 3803 722 4122 1019 
L 4122 359 
Q 3791 134 3420 21 
Q 3050 -91 2638 -91 
Q 1578 -91 968 557 
Q 359 1206 359 2328 
Q 359 3453 968 4101 
Q 1578 4750 2638 4750 
Q 3056 4750 3426 4639 
Q 3797 4528 4122 4306 
z
" transform="scale(0.015625)"/>
           </defs>
           <use xlink:href="#DejaVuSans-53"/>
           <use xlink:href="#DejaVuSans-52" x="63.476562"/>
           <use xlink:href="#DejaVuSans-43" x="127.958984"/>
          </g>
         </g>
        </g>
        <g id="xtick_3">
         <g id="line2d_3"/>
         <g id="text_3">
          <!-- TAR -->
          <g transform="translate(424.896101 332.720312) scale(0.1 -0.1)">
           <defs>
            <path id="DejaVuSans-41" d="M 2188 4044 
L 1331 1722 
L 3047 1722 
L 2188 4044 
z
M 1831 4666 
L 2547 4666 
L 4325 0 
L 3669 0 
L 3244 1197 
L 1141 1197 
L 716 0 
L 50 0 
L 1831 4666 
z
" transform="scale(0.015625)"/>
           </defs>
           <use xlink:href="#DejaVuSans-54"/>
           <use xlink:href="#DejaVuSans-41" x="53.333984"/>
           <use xlink:href="#DejaVuSans-52" x="121.742188"/>
          </g>
         </g>
        </g>
       </g>
       <g id="matplotlib.axis_2">
        <g id="ytick_1">
         <g id="line2d_4">
          <defs>
           <path id="m1c3058b883" d="M 0 0 
L -3.5 0 
" style="stroke: #000000; stroke-width: 0.8"/>
          </defs>
          <g>
           <use xlink:href="#m1c3058b883" x="63.290625" y="321.621875" style="stroke: #000000; stroke-width: 0.8"/>
          </g>
         </g>
         <g id="text_4">
          <!-- 0 -->
          <g transform="translate(49.928125 325.421094) scale(0.1 -0.1)">
           <defs>
            <path id="DejaVuSans-30" d="M 2034 4250 
Q 1547 4250 1301 3770 
Q 1056 3291 1056 2328 
Q 1056 1369 1301 889 
Q 1547 409 2034 409 
Q 2525 409 2770 889 
Q 3016 1369 3016 2328 
Q 3016 3291 2770 3770 
Q 2525 4250 2034 4250 
z
M 2034 4750 
Q 2819 4750 3233 4129 
Q 3647 3509 3647 2328 
Q 3647 1150 3233 529 
Q 2819 -91 2034 -91 
Q 1250 -91 836 529 
Q 422 1150 422 2328 
Q 422 3509 836 4129 
Q 1250 4750 2034 4750 
z
" transform="scale(0.015625)"/>
           </defs>
           <use xlink:href="#DejaVuSans-30"/>
          </g>
         </g>
        </g>
        <g id="ytick_2">
         <g id="line2d_5">
          <g>
           <use xlink:href="#m1c3058b883" x="63.290625" y="265.39251" style="stroke: #000000; stroke-width: 0.8"/>
          </g>
         </g>
         <g id="text_5">
          <!-- 5000 -->
          <g transform="translate(30.840625 269.191728) scale(0.1 -0.1)">
           <defs>
            <path id="DejaVuSans-35" d="M 691 4666 
L 3169 4666 
L 3169 4134 
L 1269 4134 
L 1269 2991 
Q 1406 3038 1543 3061 
Q 1681 3084 1819 3084 
Q 2600 3084 3056 2656 
Q 3513 2228 3513 1497 
Q 3513 744 3044 326 
Q 2575 -91 1722 -91 
Q 1428 -91 1123 -41 
Q 819 9 494 109 
L 494 744 
Q 775 591 1075 516 
Q 1375 441 1709 441 
Q 2250 441 2565 725 
Q 2881 1009 2881 1497 
Q 2881 1984 2565 2268 
Q 2250 2553 1709 2553 
Q 1456 2553 1204 2497 
Q 953 2441 691 2322 
L 691 4666 
z
" transform="scale(0.015625)"/>
           </defs>
           <use xlink:href="#DejaVuSans-35"/>
           <use xlink:href="#DejaVuSans-30" x="63.623047"/>
           <use xlink:href="#DejaVuSans-30" x="127.246094"/>
           <use xlink:href="#DejaVuSans-30" x="190.869141"/>
          </g>
         </g>
        </g>
        <g id="ytick_3">
         <g id="line2d_6">
          <g>
           <use xlink:href="#m1c3058b883" x="63.290625" y="209.163144" style="stroke: #000000; stroke-width: 0.8"/>
          </g>
         </g>
         <g id="text_6">
          <!-- 10000 -->
          <g transform="translate(24.478125 212.962363) scale(0.1 -0.1)">
           <defs>
            <path id="DejaVuSans-31" d="M 794 531 
L 1825 531 
L 1825 4091 
L 703 3866 
L 703 4441 
L 1819 4666 
L 2450 4666 
L 2450 531 
L 3481 531 
L 3481 0 
L 794 0 
L 794 531 
z
" transform="scale(0.015625)"/>
           </defs>
           <use xlink:href="#DejaVuSans-31"/>
           <use xlink:href="#DejaVuSans-30" x="63.623047"/>
           <use xlink:href="#DejaVuSans-30" x="127.246094"/>
           <use xlink:href="#DejaVuSans-30" x="190.869141"/>
           <use xlink:href="#DejaVuSans-30" x="254.492188"/>
          </g>
         </g>
        </g>
        <g id="ytick_4">
         <g id="line2d_7">
          <g>
           <use xlink:href="#m1c3058b883" x="63.290625" y="152.933779" style="stroke: #000000; stroke-width: 0.8"/>
          </g>
         </g>
         <g id="text_7">
          <!-- 15000 -->
          <g transform="translate(24.478125 156.732997) scale(0.1 -0.1)">
           <use xlink:href="#DejaVuSans-31"/>
           <use xlink:href="#DejaVuSans-35" x="63.623047"/>
           <use xlink:href="#DejaVuSans-30" x="127.246094"/>
           <use xlink:href="#DejaVuSans-30" x="190.869141"/>
           <use xlink:href="#DejaVuSans-30" x="254.492188"/>
          </g>
         </g>
        </g>
        <g id="ytick_5">
         <g id="line2d_8">
          <g>
           <use xlink:href="#m1c3058b883" x="63.290625" y="96.704413" style="stroke: #000000; stroke-width: 0.8"/>
          </g>
         </g>
         <g id="text_8">
          <!-- 20000 -->
          <g transform="translate(24.478125 100.503632) scale(0.1 -0.1)">
           <defs>
            <path id="DejaVuSans-32" d="M 1228 531 
L 3431 531 
L 3431 0 
L 469 0 
L 469 531 
Q 828 903 1448 1529 
Q 2069 2156 2228 2338 
Q 2531 2678 2651 2914 
Q 2772 3150 2772 3378 
Q 2772 3750 2511 3984 
Q 2250 4219 1831 4219 
Q 1534 4219 1204 4116 
Q 875 4013 500 3803 
L 500 4441 
Q 881 4594 1212 4672 
Q 1544 4750 1819 4750 
Q 2544 4750 2975 4387 
Q 3406 4025 3406 3419 
Q 3406 3131 3298 2873 
Q 3191 2616 2906 2266 
Q 2828 2175 2409 1742 
Q 1991 1309 1228 531 
z
" transform="scale(0.015625)"/>
           </defs>
           <use xlink:href="#DejaVuSans-32"/>
           <use xlink:href="#DejaVuSans-30" x="63.623047"/>
           <use xlink:href="#DejaVuSans-30" x="127.246094"/>
           <use xlink:href="#DejaVuSans-30" x="190.869141"/>
           <use xlink:href="#DejaVuSans-30" x="254.492188"/>
          </g>
         </g>
        </g>
        <g id="ytick_6">
         <g id="line2d_9">
          <g>
           <use xlink:href="#m1c3058b883" x="63.290625" y="40.475048" style="stroke: #000000; stroke-width: 0.8"/>
          </g>
         </g>
         <g id="text_9">
          <!-- 25000 -->
          <g transform="translate(24.478125 44.274266) scale(0.1 -0.1)">
           <use xlink:href="#DejaVuSans-32"/>
           <use xlink:href="#DejaVuSans-35" x="63.623047"/>
           <use xlink:href="#DejaVuSans-30" x="127.246094"/>
           <use xlink:href="#DejaVuSans-30" x="190.869141"/>
           <use xlink:href="#DejaVuSans-30" x="254.492188"/>
          </g>
         </g>
        </g>
        <g id="text_10">
         <!-- time ago (generations) -->
         <g transform="translate(18.398438 223.682031) rotate(-90) scale(0.1 -0.1)">
          <defs>
           <path id="DejaVuSans-74" d="M 1172 4494 
L 1172 3500 
L 2356 3500 
L 2356 3053 
L 1172 3053 
L 1172 1153 
Q 1172 725 1289 603 
Q 1406 481 1766 481 
L 2356 481 
L 2356 0 
L 1766 0 
Q 1100 0 847 248 
Q 594 497 594 1153 
L 594 3053 
L 172 3053 
L 172 3500 
L 594 3500 
L 594 4494 
L 1172 4494 
z
" transform="scale(0.015625)"/>
           <path id="DejaVuSans-69" d="M 603 3500 
L 1178 3500 
L 1178 0 
L 603 0 
L 603 3500 
z
M 603 4863 
L 1178 4863 
L 1178 4134 
L 603 4134 
L 603 4863 
z
" transform="scale(0.015625)"/>
           <path id="DejaVuSans-6d" d="M 3328 2828 
Q 3544 3216 3844 3400 
Q 4144 3584 4550 3584 
Q 5097 3584 5394 3201 
Q 5691 2819 5691 2113 
L 5691 0 
L 5113 0 
L 5113 2094 
Q 5113 2597 4934 2840 
Q 4756 3084 4391 3084 
Q 3944 3084 3684 2787 
Q 3425 2491 3425 1978 
L 3425 0 
L 2847 0 
L 2847 2094 
Q 2847 2600 2669 2842 
Q 2491 3084 2119 3084 
Q 1678 3084 1418 2786 
Q 1159 2488 1159 1978 
L 1159 0 
L 581 0 
L 581 3500 
L 1159 3500 
L 1159 2956 
Q 1356 3278 1631 3431 
Q 1906 3584 2284 3584 
Q 2666 3584 2933 3390 
Q 3200 3197 3328 2828 
z
" transform="scale(0.015625)"/>
           <path id="DejaVuSans-65" d="M 3597 1894 
L 3597 1613 
L 953 1613 
Q 991 1019 1311 708 
Q 1631 397 2203 397 
Q 2534 397 2845 478 
Q 3156 559 3463 722 
L 3463 178 
Q 3153 47 2828 -22 
Q 2503 -91 2169 -91 
Q 1331 -91 842 396 
Q 353 884 353 1716 
Q 353 2575 817 3079 
Q 1281 3584 2069 3584 
Q 2775 3584 3186 3129 
Q 3597 2675 3597 1894 
z
M 3022 2063 
Q 3016 2534 2758 2815 
Q 2500 3097 2075 3097 
Q 1594 3097 1305 2825 
Q 1016 2553 972 2059 
L 3022 2063 
z
" transform="scale(0.015625)"/>
           <path id="DejaVuSans-20" transform="scale(0.015625)"/>
           <path id="DejaVuSans-61" d="M 2194 1759 
Q 1497 1759 1228 1600 
Q 959 1441 959 1056 
Q 959 750 1161 570 
Q 1363 391 1709 391 
Q 2188 391 2477 730 
Q 2766 1069 2766 1631 
L 2766 1759 
L 2194 1759 
z
M 3341 1997 
L 3341 0 
L 2766 0 
L 2766 531 
Q 2569 213 2275 61 
Q 1981 -91 1556 -91 
Q 1019 -91 701 211 
Q 384 513 384 1019 
Q 384 1609 779 1909 
Q 1175 2209 1959 2209 
L 2766 2209 
L 2766 2266 
Q 2766 2663 2505 2880 
Q 2244 3097 1772 3097 
Q 1472 3097 1187 3025 
Q 903 2953 641 2809 
L 641 3341 
Q 956 3463 1253 3523 
Q 1550 3584 1831 3584 
Q 2591 3584 2966 3190 
Q 3341 2797 3341 1997 
z
" transform="scale(0.015625)"/>
           <path id="DejaVuSans-67" d="M 2906 1791 
Q 2906 2416 2648 2759 
Q 2391 3103 1925 3103 
Q 1463 3103 1205 2759 
Q 947 2416 947 1791 
Q 947 1169 1205 825 
Q 1463 481 1925 481 
Q 2391 481 2648 825 
Q 2906 1169 2906 1791 
z
M 3481 434 
Q 3481 -459 3084 -895 
Q 2688 -1331 1869 -1331 
Q 1566 -1331 1297 -1286 
Q 1028 -1241 775 -1147 
L 775 -588 
Q 1028 -725 1275 -790 
Q 1522 -856 1778 -856 
Q 2344 -856 2625 -561 
Q 2906 -266 2906 331 
L 2906 616 
Q 2728 306 2450 153 
Q 2172 0 1784 0 
Q 1141 0 747 490 
Q 353 981 353 1791 
Q 353 2603 747 3093 
Q 1141 3584 1784 3584 
Q 2172 3584 2450 3431 
Q 2728 3278 2906 2969 
L 2906 3500 
L 3481 3500 
L 3481 434 
z
" transform="scale(0.015625)"/>
           <path id="DejaVuSans-6f" d="M 1959 3097 
Q 1497 3097 1228 2736 
Q 959 2375 959 1747 
Q 959 1119 1226 758 
Q 1494 397 1959 397 
Q 2419 397 2687 759 
Q 2956 1122 2956 1747 
Q 2956 2369 2687 2733 
Q 2419 3097 1959 3097 
z
M 1959 3584 
Q 2709 3584 3137 3096 
Q 3566 2609 3566 1747 
Q 3566 888 3137 398 
Q 2709 -91 1959 -91 
Q 1206 -91 779 398 
Q 353 888 353 1747 
Q 353 2609 779 3096 
Q 1206 3584 1959 3584 
z
" transform="scale(0.015625)"/>
           <path id="DejaVuSans-28" d="M 1984 4856 
Q 1566 4138 1362 3434 
Q 1159 2731 1159 2009 
Q 1159 1288 1364 580 
Q 1569 -128 1984 -844 
L 1484 -844 
Q 1016 -109 783 600 
Q 550 1309 550 2009 
Q 550 2706 781 3412 
Q 1013 4119 1484 4856 
L 1984 4856 
z
" transform="scale(0.015625)"/>
           <path id="DejaVuSans-6e" d="M 3513 2113 
L 3513 0 
L 2938 0 
L 2938 2094 
Q 2938 2591 2744 2837 
Q 2550 3084 2163 3084 
Q 1697 3084 1428 2787 
Q 1159 2491 1159 1978 
L 1159 0 
L 581 0 
L 581 3500 
L 1159 3500 
L 1159 2956 
Q 1366 3272 1645 3428 
Q 1925 3584 2291 3584 
Q 2894 3584 3203 3211 
Q 3513 2838 3513 2113 
z
" transform="scale(0.015625)"/>
           <path id="DejaVuSans-72" d="M 2631 2963 
Q 2534 3019 2420 3045 
Q 2306 3072 2169 3072 
Q 1681 3072 1420 2755 
Q 1159 2438 1159 1844 
L 1159 0 
L 581 0 
L 581 3500 
L 1159 3500 
L 1159 2956 
Q 1341 3275 1631 3429 
Q 1922 3584 2338 3584 
Q 2397 3584 2469 3576 
Q 2541 3569 2628 3553 
L 2631 2963 
z
" transform="scale(0.015625)"/>
           <path id="DejaVuSans-73" d="M 2834 3397 
L 2834 2853 
Q 2591 2978 2328 3040 
Q 2066 3103 1784 3103 
Q 1356 3103 1142 2972 
Q 928 2841 928 2578 
Q 928 2378 1081 2264 
Q 1234 2150 1697 2047 
L 1894 2003 
Q 2506 1872 2764 1633 
Q 3022 1394 3022 966 
Q 3022 478 2636 193 
Q 2250 -91 1575 -91 
Q 1294 -91 989 -36 
Q 684 19 347 128 
L 347 722 
Q 666 556 975 473 
Q 1284 391 1588 391 
Q 1994 391 2212 530 
Q 2431 669 2431 922 
Q 2431 1156 2273 1281 
Q 2116 1406 1581 1522 
L 1381 1569 
Q 847 1681 609 1914 
Q 372 2147 372 2553 
Q 372 3047 722 3315 
Q 1072 3584 1716 3584 
Q 2034 3584 2315 3537 
Q 2597 3491 2834 3397 
z
" transform="scale(0.015625)"/>
           <path id="DejaVuSans-29" d="M 513 4856 
L 1013 4856 
Q 1481 4119 1714 3412 
Q 1947 2706 1947 2009 
Q 1947 1309 1714 600 
Q 1481 -109 1013 -844 
L 513 -844 
Q 928 -128 1133 580 
Q 1338 1288 1338 2009 
Q 1338 2731 1133 3434 
Q 928 4138 513 4856 
z
" transform="scale(0.015625)"/>
          </defs>
          <use xlink:href="#DejaVuSans-74"/>
          <use xlink:href="#DejaVuSans-69" x="39.208984"/>
          <use xlink:href="#DejaVuSans-6d" x="66.992188"/>
          <use xlink:href="#DejaVuSans-65" x="164.404297"/>
          <use xlink:href="#DejaVuSans-20" x="225.927734"/>
          <use xlink:href="#DejaVuSans-61" x="257.714844"/>
          <use xlink:href="#DejaVuSans-67" x="318.994141"/>
          <use xlink:href="#DejaVuSans-6f" x="382.470703"/>
          <use xlink:href="#DejaVuSans-20" x="443.652344"/>
          <use xlink:href="#DejaVuSans-28" x="475.439453"/>
          <use xlink:href="#DejaVuSans-67" x="514.453125"/>
          <use xlink:href="#DejaVuSans-65" x="577.929688"/>
          <use xlink:href="#DejaVuSans-6e" x="639.453125"/>
          <use xlink:href="#DejaVuSans-65" x="702.832031"/>
          <use xlink:href="#DejaVuSans-72" x="764.355469"/>
          <use xlink:href="#DejaVuSans-61" x="805.46875"/>
          <use xlink:href="#DejaVuSans-74" x="866.748047"/>
          <use xlink:href="#DejaVuSans-69" x="905.957031"/>
          <use xlink:href="#DejaVuSans-6f" x="933.740234"/>
          <use xlink:href="#DejaVuSans-6e" x="994.921875"/>
          <use xlink:href="#DejaVuSans-73" x="1058.300781"/>
          <use xlink:href="#DejaVuSans-29" x="1110.400391"/>
         </g>
        </g>
       </g>
       <g id="patch_7">
        <path d="M 245.21034 297.229576 
L 244.21034 297.19814 
L 243.21034 297.1612 
L 242.21034 297.063453 
L 241.21034 297.030931 
L 240.21034 296.957307 
L 239.21034 296.918741 
L 238.21034 296.883328 
L 237.21034 296.825688 
L 236.21034 296.755302 
L 235.21034 296.703338 
L 234.21034 296.644248 
L 233.21034 296.555927 
L 232.21034 296.509783 
L 231.21034 296.467372 
L 230.21034 296.436879 
L 229.21034 296.410834 
L 228.21034 296.389634 
L 227.21034 296.335333 
L 226.21034 296.307395 
L 225.21034 296.277671 
L 224.21034 296.252277 
L 223.21034 296.241076 
L 222.21034 296.230952 
L 221.21034 296.231156 
L 220.21034 296.240666 
L 219.21034 296.25232 
L 218.21034 296.283349 
L 217.21034 296.294517 
L 216.21034 296.324635 
L 215.21034 296.384412 
L 214.21034 296.421603 
L 213.21034 296.460699 
L 212.21034 296.503139 
L 211.21034 296.535904 
L 210.21034 296.60333 
L 209.21034 296.642456 
L 208.21034 296.685131 
L 207.21034 296.755711 
L 206.21034 296.792102 
L 205.21034 296.850506 
L 204.21034 296.961458 
L 203.21034 297.032116 
L 202.21034 297.145056 
L 201.21034 297.190829 
L 200.21034 297.252112 
L 199.21034 297.300612 
L 198.21034 297.381434 
L 197.21034 297.499953 
L 195.587204 297.570164 
" clip-path="url(#p9179fdda9f)" style="fill: none; stroke: #ffffff; stroke-width: 3; stroke-linecap: round"/>
        <path d="M 245.21034 297.229576 
L 244.21034 297.19814 
L 243.21034 297.1612 
L 242.21034 297.063453 
L 241.21034 297.030931 
L 240.21034 296.957307 
L 239.21034 296.918741 
L 238.21034 296.883328 
L 237.21034 296.825688 
L 236.21034 296.755302 
L 235.21034 296.703338 
L 234.21034 296.644248 
L 233.21034 296.555927 
L 232.21034 296.509783 
L 231.21034 296.467372 
L 230.21034 296.436879 
L 229.21034 296.410834 
L 228.21034 296.389634 
L 227.21034 296.335333 
L 226.21034 296.307395 
L 225.21034 296.277671 
L 224.21034 296.252277 
L 223.21034 296.241076 
L 222.21034 296.230952 
L 221.21034 296.231156 
L 220.21034 296.240666 
L 219.21034 296.25232 
L 218.21034 296.283349 
L 217.21034 296.294517 
L 216.21034 296.324635 
L 215.21034 296.384412 
L 214.21034 296.421603 
L 213.21034 296.460699 
L 212.21034 296.503139 
L 211.21034 296.535904 
L 210.21034 296.60333 
L 209.21034 296.642456 
L 208.21034 296.685131 
L 207.21034 296.755711 
L 206.21034 296.792102 
L 205.21034 296.850506 
L 204.21034 296.961458 
L 203.21034 297.032116 
L 202.21034 297.145056 
L 201.21034 297.190829 
L 200.21034 297.252112 
L 199.21034 297.300612 
L 198.21034 297.381434 
L 197.21034 297.499953 
L 195.587204 297.570164 
" clip-path="url(#p9179fdda9f)" style="fill: none; stroke: #1f77b4; stroke-linecap: round"/>
        <path d="M 199.587204 299.229576 
L 198.706836 298.754245 
L 197.828929 298.273991 
L 196.978215 297.73935 
L 195.676041 297.051903 
L 196.603394 297.025888 
L 197.515068 296.613169 
L 198.425333 296.197629 
L 199.767828 295.590825 
L 199.11293 296.229576 
L 199.060965 297.229576 
L 199.001876 299.229576 
z
" clip-path="url(#p9179fdda9f)" style="fill: #ffffff; stroke: #ffffff; stroke-width: 3; stroke-linecap: round"/>
        <path d="M 199.587204 299.229576 
L 198.706836 298.754245 
L 197.828929 298.273991 
L 196.978215 297.73935 
L 195.676041 297.051903 
L 196.603394 297.025888 
L 197.515068 296.613169 
L 198.425333 296.197629 
L 199.767828 295.590825 
L 199.11293 296.229576 
L 199.060965 297.229576 
L 199.001876 299.229576 
z
" clip-path="url(#p9179fdda9f)" style="fill: #ffffff; stroke: #1f77b4; stroke-linecap: round"/>
        <g id="patch_8">
         <path d="M 388.263497 72.964375 
L 389.263497 72.995811 
L 390.263497 73.032752 
L 391.263497 73.130498 
L 392.263497 73.16302 
L 393.263497 73.236645 
L 394.263497 73.27521 
L 395.263497 73.310623 
L 396.263497 73.368263 
L 397.263497 73.438649 
L 398.263497 73.490614 
L 399.263497 73.549703 
L 400.263497 73.638024 
L 401.263497 73.684169 
L 402.263497 73.72658 
L 403.263497 73.757072 
L 404.263497 73.783117 
L 405.263497 73.804317 
L 406.263497 73.858618 
L 407.263497 73.886556 
L 408.263497 73.91628 
L 409.263497 73.941675 
L 410.263497 73.952875 
L 411.263497 73.962999 
L 412.263497 73.962795 
L 413.263497 73.953285 
L 414.263497 73.941631 
L 415.263497 73.910602 
L 416.263497 73.899434 
L 417.263497 73.869317 
L 418.263497 73.80954 
L 419.263497 73.772348 
L 420.263497 73.733252 
L 421.263497 73.690812 
L 422.263497 73.658047 
L 423.263497 73.590621 
L 424.263497 73.551495 
L 425.263497 73.50882 
L 426.263497 73.43824 
L 427.263497 73.401849 
L 428.263497 73.343446 
L 429.263497 73.232493 
L 430.263497 73.161835 
L 431.263497 73.048895 
L 432.263497 73.003122 
L 433.263497 72.941839 
L 434.263497 72.89334 
L 435.263497 72.812517 
L 436.263497 72.693998 
L 437.263497 72.623787 
L 438.263497 72.540525 
L 439.263497 72.507383 
L 440.263497 72.456146 
L 441.263497 72.387747 
L 442.263497 72.321532 
L 443.263497 72.244615 
L 444.263497 72.217299 
L 445.263497 72.190822 
L 446.263497 72.168171 
L 447.263497 72.14864 
L 448.263497 72.122246 
L 449.263497 72.072475 
L 450.263497 72.037402 
L 451.263497 72.001536 
L 452.263497 71.986169 
L 453.263497 71.9704 
L 454.263497 71.966987 
L 455.263497 71.96457 
L 456.263497 71.965056 
L 457.263497 71.966985 
L 458.263497 71.980242 
L 459.263497 71.988633 
L 460.263497 72.010169 
L 461.263497 72.033202 
L 462.263497 72.050435 
L 463.263497 72.068898 
L 464.263497 72.08935 
L 465.263497 72.10595 
L 466.263497 72.168729 
L 467.263497 72.243994 
L 468.263497 72.276633 
L 469.263497 72.344197 
L 470.263497 72.398244 
L 471.263497 72.431948 
L 472.263497 72.522074 
L 473.263497 72.550609 
L 474.263497 72.582095 
L 475.263497 72.613106 
L 476.263497 72.667914 
L 477.263497 72.732501 
L 478.263497 72.770697 
L 479.263497 72.866631 
L 480.263497 72.915889 
L 481.263497 72.959958 
L 482.263497 73.000082 
L 483.263497 73.108449 
L 484.263497 73.150077 
L 485.263497 73.212219 
L 486.263497 73.282181 
L 487.263497 73.386685 
L 488.263497 73.423673 
L 489.263497 73.46955 
L 490.263497 73.538045 
L 491.263497 73.586791 
L 492.263497 73.664388 
L 493.263497 73.694929 
L 494.263497 73.764443 
L 495.263497 73.788416 
L 496.263497 73.817038 
L 497.263497 73.858831 
L 498.263497 73.880407 
L 499.263497 73.894355 
L 500.263497 73.921077 
L 501.263497 73.930387 
L 502.263497 73.942834 
L 503.263497 73.953889 
L 504.263497 73.959553 
L 505.263497 73.964317 
L 506.263497 73.958769 
L 507.263497 73.945481 
L 508.263497 73.937964 
L 509.263497 73.913179 
L 510.263497 73.88961 
L 511.263497 73.85343 
L 512.263497 73.827468 
L 513.263497 73.805146 
L 514.263497 73.736386 
L 515.263497 73.661851 
L 516.263497 73.567872 
L 517.263497 73.51682 
L 518.263497 73.462886 
L 519.263497 73.427635 
L 520.263497 73.321547 
L 522.189717 73.269283 
" clip-path="url(#p9179fdda9f)" style="fill: none; stroke: #ffffff; stroke-width: 3; stroke-linecap: round"/>
         <path d="M 388.263497 72.964375 
L 389.263497 72.995811 
L 390.263497 73.032752 
L 391.263497 73.130498 
L 392.263497 73.16302 
L 393.263497 73.236645 
L 394.263497 73.27521 
L 395.263497 73.310623 
L 396.263497 73.368263 
L 397.263497 73.438649 
L 398.263497 73.490614 
L 399.263497 73.549703 
L 400.263497 73.638024 
L 401.263497 73.684169 
L 402.263497 73.72658 
L 403.263497 73.757072 
L 404.263497 73.783117 
L 405.263497 73.804317 
L 406.263497 73.858618 
L 407.263497 73.886556 
L 408.263497 73.91628 
L 409.263497 73.941675 
L 410.263497 73.952875 
L 411.263497 73.962999 
L 412.263497 73.962795 
L 413.263497 73.953285 
L 414.263497 73.941631 
L 415.263497 73.910602 
L 416.263497 73.899434 
L 417.263497 73.869317 
L 418.263497 73.80954 
L 419.263497 73.772348 
L 420.263497 73.733252 
L 421.263497 73.690812 
L 422.263497 73.658047 
L 423.263497 73.590621 
L 424.263497 73.551495 
L 425.263497 73.50882 
L 426.263497 73.43824 
L 427.263497 73.401849 
L 428.263497 73.343446 
L 429.263497 73.232493 
L 430.263497 73.161835 
L 431.263497 73.048895 
L 432.263497 73.003122 
L 433.263497 72.941839 
L 434.263497 72.89334 
L 435.263497 72.812517 
L 436.263497 72.693998 
L 437.263497 72.623787 
L 438.263497 72.540525 
L 439.263497 72.507383 
L 440.263497 72.456146 
L 441.263497 72.387747 
L 442.263497 72.321532 
L 443.263497 72.244615 
L 444.263497 72.217299 
L 445.263497 72.190822 
L 446.263497 72.168171 
L 447.263497 72.14864 
L 448.263497 72.122246 
L 449.263497 72.072475 
L 450.263497 72.037402 
L 451.263497 72.001536 
L 452.263497 71.986169 
L 453.263497 71.9704 
L 454.263497 71.966987 
L 455.263497 71.96457 
L 456.263497 71.965056 
L 457.263497 71.966985 
L 458.263497 71.980242 
L 459.263497 71.988633 
L 460.263497 72.010169 
L 461.263497 72.033202 
L 462.263497 72.050435 
L 463.263497 72.068898 
L 464.263497 72.08935 
L 465.263497 72.10595 
L 466.263497 72.168729 
L 467.263497 72.243994 
L 468.263497 72.276633 
L 469.263497 72.344197 
L 470.263497 72.398244 
L 471.263497 72.431948 
L 472.263497 72.522074 
L 473.263497 72.550609 
L 474.263497 72.582095 
L 475.263497 72.613106 
L 476.263497 72.667914 
L 477.263497 72.732501 
L 478.263497 72.770697 
L 479.263497 72.866631 
L 480.263497 72.915889 
L 481.263497 72.959958 
L 482.263497 73.000082 
L 483.263497 73.108449 
L 484.263497 73.150077 
L 485.263497 73.212219 
L 486.263497 73.282181 
L 487.263497 73.386685 
L 488.263497 73.423673 
L 489.263497 73.46955 
L 490.263497 73.538045 
L 491.263497 73.586791 
L 492.263497 73.664388 
L 493.263497 73.694929 
L 494.263497 73.764443 
L 495.263497 73.788416 
L 496.263497 73.817038 
L 497.263497 73.858831 
L 498.263497 73.880407 
L 499.263497 73.894355 
L 500.263497 73.921077 
L 501.263497 73.930387 
L 502.263497 73.942834 
L 503.263497 73.953889 
L 504.263497 73.959553 
L 505.263497 73.964317 
L 506.263497 73.958769 
L 507.263497 73.945481 
L 508.263497 73.937964 
L 509.263497 73.913179 
L 510.263497 73.88961 
L 511.263497 73.85343 
L 512.263497 73.827468 
L 513.263497 73.805146 
L 514.263497 73.736386 
L 515.263497 73.661851 
L 516.263497 73.567872 
L 517.263497 73.51682 
L 518.263497 73.462886 
L 519.263497 73.427635 
L 520.263497 73.321547 
L 522.189717 73.269283 
" clip-path="url(#p9179fdda9f)" style="fill: none; stroke: #1f77b4; stroke-linecap: round"/>
         <path d="M 518.189717 70.964375 
L 519.070085 71.439706 
L 519.947992 71.91996 
L 520.798706 72.454601 
L 522.10088 73.142048 
L 521.173527 73.168063 
L 520.261853 73.580783 
L 519.351588 73.996322 
L 518.009092 74.603126 
L 518.663991 73.964375 
L 518.715955 72.964375 
L 518.775045 70.964375 
z
" clip-path="url(#p9179fdda9f)" style="fill: #ffffff; stroke: #ffffff; stroke-width: 3; stroke-linecap: round"/>
         <path d="M 518.189717 70.964375 
L 519.070085 71.439706 
L 519.947992 71.91996 
L 520.798706 72.454601 
L 522.10088 73.142048 
L 521.173527 73.168063 
L 520.261853 73.580783 
L 519.351588 73.996322 
L 518.009092 74.603126 
L 518.663991 73.964375 
L 518.715955 72.964375 
L 518.775045 70.964375 
z
" clip-path="url(#p9179fdda9f)" style="fill: #ffffff; stroke: #1f77b4; stroke-linecap: round"/>
         <g id="patch_9">
          <path d="M 388.262518 297.229576 
L 389.262518 297.261013 
L 390.262518 297.297953 
L 391.262518 297.3957 
L 392.262518 297.428221 
L 393.262518 297.501846 
L 394.262518 297.540411 
L 395.262518 297.575825 
L 396.262518 297.633465 
L 397.262518 297.703851 
L 398.262518 297.755815 
L 399.262518 297.814905 
L 400.262518 297.903226 
L 401.262518 297.94937 
L 402.262518 297.991781 
L 403.262518 298.022274 
L 404.262518 298.048319 
L 405.262518 298.069519 
L 406.262518 298.12382 
L 407.262518 298.151757 
L 408.262518 298.181481 
L 409.262518 298.206876 
L 410.262518 298.218077 
L 411.262518 298.2282 
L 412.262518 298.227996 
L 413.262518 298.218486 
L 414.438011 298.206833 
" clip-path="url(#p9179fdda9f)" style="fill: none; stroke: #ffffff; stroke-width: 3; stroke-linecap: round"/>
          <path d="M 388.262518 297.229576 
L 389.262518 297.261013 
L 390.262518 297.297953 
L 391.262518 297.3957 
L 392.262518 297.428221 
L 393.262518 297.501846 
L 394.262518 297.540411 
L 395.262518 297.575825 
L 396.262518 297.633465 
L 397.262518 297.703851 
L 398.262518 297.755815 
L 399.262518 297.814905 
L 400.262518 297.903226 
L 401.262518 297.94937 
L 402.262518 297.991781 
L 403.262518 298.022274 
L 404.262518 298.048319 
L 405.262518 298.069519 
L 406.262518 298.12382 
L 407.262518 298.151757 
L 408.262518 298.181481 
L 409.262518 298.206876 
L 410.262518 298.218077 
L 411.262518 298.2282 
L 412.262518 298.227996 
L 413.262518 298.218486 
L 414.438011 298.206833 
" clip-path="url(#p9179fdda9f)" style="fill: none; stroke: #1f77b4; stroke-linecap: round"/>
          <path d="M 410.438011 295.229576 
L 411.31838 295.704907 
L 412.196286 296.185161 
L 413.047 296.719802 
L 414.349174 297.40725 
L 413.421821 297.433265 
L 412.510147 297.845984 
L 411.599883 298.261523 
L 410.257387 298.868328 
L 410.912286 298.229576 
L 410.96425 297.229576 
L 411.02334 295.229576 
z
" clip-path="url(#p9179fdda9f)" style="fill: #ffffff; stroke: #ffffff; stroke-width: 3; stroke-linecap: round"/>
          <path d="M 410.438011 295.229576 
L 411.31838 295.704907 
L 412.196286 296.185161 
L 413.047 296.719802 
L 414.349174 297.40725 
L 413.421821 297.433265 
L 412.510147 297.845984 
L 411.599883 298.261523 
L 410.257387 298.868328 
L 410.912286 298.229576 
L 410.96425 297.229576 
L 411.02334 295.229576 
z
" clip-path="url(#p9179fdda9f)" style="fill: #ffffff; stroke: #1f77b4; stroke-linecap: round"/>
          <path d="M 456.762295 305.843915 
" clip-path="url(#p9179fdda9f)" style="fill: none; stroke-dasharray: 3.7,1.6; stroke-dashoffset: 0; stroke: #2ca02c"/>
          <path d="M 455.762295 305.843915 
L 457.762295 306.843915 
L 457.762295 304.843915 
z
" clip-path="url(#p9179fdda9f)" style="fill: #2ca02c; stroke: #2ca02c; stroke-linejoin: miter"/>
          <g id="patch_10">
           <path d="M 63.290625 321.621875 
L 63.290625 10.8 
" style="fill: none; stroke: #000000; stroke-width: 0.8; stroke-linejoin: miter; stroke-linecap: square"/>
          </g>
          <g id="text_11">
           <g id="patch_11">
            <path d="M 306.085942 160.853851 
L 327.390629 160.853851 
Q 329.390629 160.853851 329.390629 158.853851 
L 329.390629 149.175726 
Q 329.390629 147.175726 327.390629 147.175726 
L 306.085942 147.175726 
Q 304.085942 147.175726 304.085942 149.175726 
L 304.085942 158.853851 
Q 304.085942 160.853851 306.085942 160.853851 
z
" style="fill: #ffffff; opacity: 0.6"/>
           </g>
           <!-- ANC -->
           <g transform="translate(306.085942 156.774163) scale(0.1 -0.1)">
            <defs>
             <path id="DejaVuSans-4e" d="M 628 4666 
L 1478 4666 
L 3547 763 
L 3547 4666 
L 4159 4666 
L 4159 0 
L 3309 0 
L 1241 3903 
L 1241 0 
L 628 0 
L 628 4666 
z
" transform="scale(0.015625)"/>
            </defs>
            <use xlink:href="#DejaVuSans-41"/>
            <use xlink:href="#DejaVuSans-4e" x="68.408203"/>
            <use xlink:href="#DejaVuSans-43" x="143.212891"/>
           </g>
          </g>
         </g>
        </g>
        <defs>
         <clipPath id="p9179fdda9f">
          <rect x="63.290625" y="10.8" width="540.309375" height="310.821875"/>
         </clipPath>
        </defs>
       </g>
      </g>
     </g>
    </g>
   </g>
  </g>
 </g>
</svg>
