<?xml version="1.0" encoding="utf-8" standalone="no"?>
<!DOCTYPE svg PUBLIC "-//W3C//DTD SVG 1.1//EN"
  "http://www.w3.org/Graphics/SVG/1.1/DTD/svg11.dtd">
<svg xmlns:xlink="http://www.w3.org/1999/xlink" width="614.4pt" height="345.6pt" viewBox="0 0 614.4 345.6" xmlns="http://www.w3.org/2000/svg" version="1.1">
 <metadata>
  <rdf:RDF xmlns:dc="http://purl.org/dc/elements/1.1/" xmlns:cc="http://creativecommons.org/ns#" xmlns:rdf="http://www.w3.org/1999/02/22-rdf-syntax-ns#">
   <cc:Work>
    <dc:type rdf:resource="http://purl.org/dc/dcmitype/StillImage"/>
    <dc:date>2024-04-17T19:48:47.612288</dc:date>
    <dc:format>image/svg+xml</dc:format>
    <dc:creator>
     <cc:Agent>
      <dc:title>Matplotlib v3.7.1, https://matplotlib.org/</dc:title>
     </cc:Agent>
    </dc:creator>
   </cc:Work>
  </rdf:RDF>
 </metadata>
 <defs>
  <style type="text/css">*{stroke-linejoin: round; stroke-linecap: butt}</style>
 </defs>
 <g id="figure_1">
  <g id="patch_1">
   <path d="M 0 345.6 
L 614.4 345.6 
L 614.4 0 
L 0 0 
z
" style="fill: #ffffff"/>
  </g>
  <g id="axes_1">
   <g id="patch_2">
    <path d="M 63.290625 321.621875 
L 603.6 321.621875 
L 603.6 10.8 
L 63.290625 10.8 
z
" style="fill: #ffffff"/>
   </g>
   <path d="M 546.612437 298.96883 
L 545.612437 298.937393 
L 544.612437 298.900453 
L 543.612437 298.802706 
L 542.612437 298.770185 
L 541.612437 298.69656 
L 540.612437 298.657994 
L 539.612437 298.622581 
L 538.612437 298.564941 
L 537.612437 298.494555 
L 536.612437 298.442591 
L 535.612437 298.383501 
L 534.612437 298.29518 
L 533.612437 298.249036 
L 532.612437 298.206625 
L 531.612437 298.176132 
L 530.612437 298.150087 
L 529.612437 298.128887 
L 528.612437 298.074586 
L 527.612437 298.046649 
L 526.612437 298.016925 
L 525.612437 297.99153 
L 524.612437 297.980329 
L 523.612437 297.970205 
L 522.612437 297.97041 
L 521.612437 297.97992 
L 520.612437 297.991573 
L 519.612437 298.022602 
L 518.612437 298.03377 
L 517.612437 298.063888 
L 516.612437 298.123665 
L 515.612437 298.160856 
L 514.612437 298.199952 
L 513.612437 298.242392 
L 512.612437 298.275157 
L 511.612437 298.342584 
L 510.612437 298.38171 
L 509.612437 298.424384 
L 508.612437 298.494965 
L 507.612437 298.531356 
L 506.612437 298.589759 
L 505.612437 298.700711 
L 504.612437 298.77137 
L 503.612437 298.88431 
L 502.612437 298.930082 
L 501.612437 298.991366 
L 500.612437 299.039865 
L 499.612437 299.120688 
L 498.612437 299.239207 
L 497.612437 299.309417 
L 496.612437 299.39268 
L 495.612437 299.425821 
L 494.612437 299.477059 
L 493.612437 299.545457 
L 492.612437 299.611673 
L 491.612437 299.68859 
L 490.612437 299.715905 
L 489.612437 299.742383 
L 488.612437 299.765033 
L 487.612437 299.784565 
L 486.612437 299.810958 
L 485.612437 299.860729 
L 484.612437 299.895802 
L 483.612437 299.931668 
L 482.612437 299.947035 
L 481.612437 299.962805 
L 480.612437 299.966217 
L 479.612437 299.968635 
L 478.612437 299.968149 
L 477.612437 299.966219 
L 476.612437 299.952962 
L 475.612437 299.944572 
L 474.612437 299.923035 
L 473.612437 299.900003 
L 472.612437 299.882769 
L 471.610418 299.864307 
" clip-path="url(#p3d46ef7d12)" style="fill: none; stroke-dasharray: 3.7,1.6; stroke-dashoffset: 0; stroke: #2ca02c"/>
   <g id="patch_3">
    <path d="M 286.561232 10.8 
L 286.561232 267.350415 
M 377.398529 10.8 
L 377.398529 267.350415 
" clip-path="url(#p3d46ef7d12)" style="fill: none; stroke: #ffffff; stroke-width: 3; stroke-linejoin: miter"/>
    <path d="M 286.561232 10.8 
L 286.561232 267.350415 
M 377.398529 10.8 
L 377.398529 267.350415 
" clip-path="url(#p3d46ef7d12)" style="fill: none; stroke: #1f77b4; stroke-linejoin: miter"/>
    <g id="PolyCollection_1">
     <path d="M 377.398529 10.8 
L 286.561232 10.8 
L 286.561232 267.350415 
L 377.398529 267.350415 
L 377.398529 267.350415 
L 377.398529 10.8 
z
" clip-path="url(#p3d46ef7d12)" style="fill: #1f77b4; fill-opacity: 0.5"/>
    </g>
    <g id="patch_4">
     <path d="M 87.850142 267.350415 
L 87.850142 321.621875 
M 225.787428 267.350415 
L 225.787428 321.621875 
" clip-path="url(#p3d46ef7d12)" style="fill: none; stroke: #ffffff; stroke-width: 3; stroke-linejoin: miter"/>
     <path d="M 87.850142 267.350415 
L 87.850142 321.621875 
M 225.787428 267.350415 
L 225.787428 321.621875 
" clip-path="url(#p3d46ef7d12)" style="fill: none; stroke: #ff7f0e; stroke-linejoin: miter"/>
     <g id="PolyCollection_2">
      <path d="M 225.787428 267.350415 
L 87.850142 267.350415 
L 87.850142 321.621875 
L 225.787428 321.621875 
L 225.787428 321.621875 
L 225.787428 267.350415 
z
" clip-path="url(#p3d46ef7d12)" style="fill: #ff7f0e; fill-opacity: 0.5"/>
     </g>
     <g id="patch_5">
      <path d="M 552.015531 72.964375 
L 552.015531 321.621875 
M 579.040483 72.964375 
L 579.040483 321.621875 
" clip-path="url(#p3d46ef7d12)" style="fill: none; stroke: #ffffff; stroke-width: 3; stroke-linejoin: miter"/>
      <path d="M 552.015531 72.964375 
L 552.015531 321.621875 
M 579.040483 72.964375 
L 579.040483 321.621875 
" clip-path="url(#p3d46ef7d12)" style="fill: none; stroke: #2ca02c; stroke-linejoin: miter"/>
      <g id="PolyCollection_3">
       <path d="M 579.040483 72.964375 
L 552.015531 72.964375 
L 552.015531 321.621875 
L 579.040483 321.621875 
L 579.040483 321.621875 
L 579.040483 72.964375 
z
" clip-path="url(#p3d46ef7d12)" style="fill: #2ca02c; fill-opacity: 0.5"/>
      </g>
      <g id="patch_6">
       <path d="M 431.300563 283.036889 
L 431.300563 321.621875 
M 466.207324 283.036889 
L 466.207324 321.621875 
" clip-path="url(#p3d46ef7d12)" style="fill: none; stroke: #ffffff; stroke-width: 3; stroke-linejoin: miter"/>
       <path d="M 431.300563 283.036889 
L 431.300563 321.621875 
M 466.207324 283.036889 
L 466.207324 321.621875 
" clip-path="url(#p3d46ef7d12)" style="fill: none; stroke: #d62728; stroke-linejoin: miter"/>
       <g id="PolyCollection_4">
        <path d="M 466.207324 283.036889 
L 431.300563 283.036889 
L 431.300563 321.621875 
L 466.207324 321.621875 
L 466.207324 321.621875 
L 466.207324 283.036889 
z
" clip-path="url(#p3d46ef7d12)" style="fill: #d62728; fill-opacity: 0.5"/>
       </g>
       <g id="matplotlib.axis_1">
        <g id="xtick_1">
         <g id="line2d_1"/>
         <g id="text_1">
          <!-- OUT -->
          <g transform="translate(146.169566 332.720312) scale(0.1 -0.1)">
           <defs>
            <path id="DejaVuSans-4f" d="M 2522 4238 
Q 1834 4238 1429 3725 
Q 1025 3213 1025 2328 
Q 1025 1447 1429 934 
Q 1834 422 2522 422 
Q 3209 422 3611 934 
Q 4013 1447 4013 2328 
Q 4013 3213 3611 3725 
Q 3209 4238 2522 4238 
z
M 2522 4750 
Q 3503 4750 4090 4092 
Q 4678 3434 4678 2328 
Q 4678 1225 4090 567 
Q 3503 -91 2522 -91 
Q 1538 -91 948 565 
Q 359 1222 359 2328 
Q 359 3434 948 4092 
Q 1538 4750 2522 4750 
z
" transform="scale(0.015625)"/>
            <path id="DejaVuSans-55" d="M 556 4666 
L 1191 4666 
L 1191 1831 
Q 1191 1081 1462 751 
Q 1734 422 2344 422 
Q 2950 422 3222 751 
Q 3494 1081 3494 1831 
L 3494 4666 
L 4128 4666 
L 4128 1753 
Q 4128 841 3676 375 
Q 3225 -91 2344 -91 
Q 1459 -91 1007 375 
Q 556 841 556 1753 
L 556 4666 
z
" transform="scale(0.015625)"/>
            <path id="DejaVuSans-54" d="M -19 4666 
L 3928 4666 
L 3928 4134 
L 2272 4134 
L 2272 0 
L 1638 0 
L 1638 4134 
L -19 4134 
L -19 4666 
z
" transform="scale(0.015625)"/>
           </defs>
           <use xlink:href="#DejaVuSans-4f"/>
           <use xlink:href="#DejaVuSans-55" x="78.710938"/>
           <use xlink:href="#DejaVuSans-54" x="151.904297"/>
          </g>
         </g>
        </g>
        <g id="xtick_2">
         <g id="line2d_2"/>
         <g id="text_2">
          <!-- SRC -->
          <g transform="translate(555.638163 332.720312) scale(0.1 -0.1)">
           <defs>
            <path id="DejaVuSans-53" d="M 3425 4513 
L 3425 3897 
Q 3066 4069 2747 4153 
Q 2428 4238 2131 4238 
Q 1616 4238 1336 4038 
Q 1056 3838 1056 3469 
Q 1056 3159 1242 3001 
Q 1428 2844 1947 2747 
L 2328 2669 
Q 3034 2534 3370 2195 
Q 3706 1856 3706 1288 
Q 3706 609 3251 259 
Q 2797 -91 1919 -91 
Q 1588 -91 1214 -16 
Q 841 59 441 206 
L 441 856 
Q 825 641 1194 531 
Q 1563 422 1919 422 
Q 2459 422 2753 634 
Q 3047 847 3047 1241 
Q 3047 1584 2836 1778 
Q 2625 1972 2144 2069 
L 1759 2144 
Q 1053 2284 737 2584 
Q 422 2884 422 3419 
Q 422 4038 858 4394 
Q 1294 4750 2059 4750 
Q 2388 4750 2728 4690 
Q 3069 4631 3425 4513 
z
" transform="scale(0.015625)"/>
            <path id="DejaVuSans-52" d="M 2841 2188 
Q 3044 2119 3236 1894 
Q 3428 1669 3622 1275 
L 4263 0 
L 3584 0 
L 2988 1197 
Q 2756 1666 2539 1819 
Q 2322 1972 1947 1972 
L 1259 1972 
L 1259 0 
L 628 0 
L 628 4666 
L 2053 4666 
Q 2853 4666 3247 4331 
Q 3641 3997 3641 3322 
Q 3641 2881 3436 2590 
Q 3231 2300 2841 2188 
z
M 1259 4147 
L 1259 2491 
L 2053 2491 
Q 2509 2491 2742 2702 
Q 2975 2913 2975 3322 
Q 2975 3731 2742 3939 
Q 2509 4147 2053 4147 
L 1259 4147 
z
" transform="scale(0.015625)"/>
            <path id="DejaVuSans-43" d="M 4122 4306 
L 4122 3641 
Q 3803 3938 3442 4084 
Q 3081 4231 2675 4231 
Q 1875 4231 1450 3742 
Q 1025 3253 1025 2328 
Q 1025 1406 1450 917 
Q 1875 428 2675 428 
Q 3081 428 3442 575 
Q 3803 722 4122 1019 
L 4122 359 
Q 3791 134 3420 21 
Q 3050 -91 2638 -91 
Q 1578 -91 968 557 
Q 359 1206 359 2328 
Q 359 3453 968 4101 
Q 1578 4750 2638 4750 
Q 3056 4750 3426 4639 
Q 3797 4528 4122 4306 
z
" transform="scale(0.015625)"/>
           </defs>
           <use xlink:href="#DejaVuSans-53"/>
           <use xlink:href="#DejaVuSans-52" x="63.476562"/>
           <use xlink:href="#DejaVuSans-43" x="127.958984"/>
          </g>
         </g>
        </g>
        <g id="xtick_3">
         <g id="line2d_3"/>
         <g id="text_3">
          <!-- TAR -->
          <g transform="translate(439.193006 332.720312) scale(0.1 -0.1)">
           <defs>
            <path id="DejaVuSans-41" d="M 2188 4044 
L 1331 1722 
L 3047 1722 
L 2188 4044 
z
M 1831 4666 
L 2547 4666 
L 4325 0 
L 3669 0 
L 3244 1197 
L 1141 1197 
L 716 0 
L 50 0 
L 1831 4666 
z
" transform="scale(0.015625)"/>
           </defs>
           <use xlink:href="#DejaVuSans-54"/>
           <use xlink:href="#DejaVuSans-41" x="53.333984"/>
           <use xlink:href="#DejaVuSans-52" x="121.742188"/>
          </g>
         </g>
        </g>
       </g>
       <g id="matplotlib.axis_2">
        <g id="ytick_1">
         <g id="line2d_4">
          <defs>
           <path id="m381cec0a2b" d="M 0 0 
L -3.5 0 
" style="stroke: #000000; stroke-width: 0.8"/>
          </defs>
          <g>
           <use xlink:href="#m381cec0a2b" x="63.290625" y="321.621875" style="stroke: #000000; stroke-width: 0.8"/>
          </g>
         </g>
         <g id="text_4">
          <!-- 0 -->
          <g transform="translate(49.928125 325.421094) scale(0.1 -0.1)">
           <defs>
            <path id="DejaVuSans-30" d="M 2034 4250 
Q 1547 4250 1301 3770 
Q 1056 3291 1056 2328 
Q 1056 1369 1301 889 
Q 1547 409 2034 409 
Q 2525 409 2770 889 
Q 3016 1369 3016 2328 
Q 3016 3291 2770 3770 
Q 2525 4250 2034 4250 
z
M 2034 4750 
Q 2819 4750 3233 4129 
Q 3647 3509 3647 2328 
Q 3647 1150 3233 529 
Q 2819 -91 2034 -91 
Q 1250 -91 836 529 
Q 422 1150 422 2328 
Q 422 3509 836 4129 
Q 1250 4750 2034 4750 
z
" transform="scale(0.015625)"/>
           </defs>
           <use xlink:href="#DejaVuSans-30"/>
          </g>
         </g>
        </g>
        <g id="ytick_2">
         <g id="line2d_5">
          <g>
           <use xlink:href="#m381cec0a2b" x="63.290625" y="263.177485" style="stroke: #000000; stroke-width: 0.8"/>
          </g>
         </g>
         <g id="text_5">
          <!-- 5000 -->
          <g transform="translate(30.840625 266.976704) scale(0.1 -0.1)">
           <defs>
            <path id="DejaVuSans-35" d="M 691 4666 
L 3169 4666 
L 3169 4134 
L 1269 4134 
L 1269 2991 
Q 1406 3038 1543 3061 
Q 1681 3084 1819 3084 
Q 2600 3084 3056 2656 
Q 3513 2228 3513 1497 
Q 3513 744 3044 326 
Q 2575 -91 1722 -91 
Q 1428 -91 1123 -41 
Q 819 9 494 109 
L 494 744 
Q 775 591 1075 516 
Q 1375 441 1709 441 
Q 2250 441 2565 725 
Q 2881 1009 2881 1497 
Q 2881 1984 2565 2268 
Q 2250 2553 1709 2553 
Q 1456 2553 1204 2497 
Q 953 2441 691 2322 
L 691 4666 
z
" transform="scale(0.015625)"/>
           </defs>
           <use xlink:href="#DejaVuSans-35"/>
           <use xlink:href="#DejaVuSans-30" x="63.623047"/>
           <use xlink:href="#DejaVuSans-30" x="127.246094"/>
           <use xlink:href="#DejaVuSans-30" x="190.869141"/>
          </g>
         </g>
        </g>
        <g id="ytick_3">
         <g id="line2d_6">
          <g>
           <use xlink:href="#m381cec0a2b" x="63.290625" y="204.733096" style="stroke: #000000; stroke-width: 0.8"/>
          </g>
         </g>
         <g id="text_6">
          <!-- 10000 -->
          <g transform="translate(24.478125 208.532315) scale(0.1 -0.1)">
           <defs>
            <path id="DejaVuSans-31" d="M 794 531 
L 1825 531 
L 1825 4091 
L 703 3866 
L 703 4441 
L 1819 4666 
L 2450 4666 
L 2450 531 
L 3481 531 
L 3481 0 
L 794 0 
L 794 531 
z
" transform="scale(0.015625)"/>
           </defs>
           <use xlink:href="#DejaVuSans-31"/>
           <use xlink:href="#DejaVuSans-30" x="63.623047"/>
           <use xlink:href="#DejaVuSans-30" x="127.246094"/>
           <use xlink:href="#DejaVuSans-30" x="190.869141"/>
           <use xlink:href="#DejaVuSans-30" x="254.492188"/>
          </g>
         </g>
        </g>
        <g id="ytick_4">
         <g id="line2d_7">
          <g>
           <use xlink:href="#m381cec0a2b" x="63.290625" y="146.288706" style="stroke: #000000; stroke-width: 0.8"/>
          </g>
         </g>
         <g id="text_7">
          <!-- 15000 -->
          <g transform="translate(24.478125 150.087925) scale(0.1 -0.1)">
           <use xlink:href="#DejaVuSans-31"/>
           <use xlink:href="#DejaVuSans-35" x="63.623047"/>
           <use xlink:href="#DejaVuSans-30" x="127.246094"/>
           <use xlink:href="#DejaVuSans-30" x="190.869141"/>
           <use xlink:href="#DejaVuSans-30" x="254.492188"/>
          </g>
         </g>
        </g>
        <g id="ytick_5">
         <g id="line2d_8">
          <g>
           <use xlink:href="#m381cec0a2b" x="63.290625" y="87.844317" style="stroke: #000000; stroke-width: 0.8"/>
          </g>
         </g>
         <g id="text_8">
          <!-- 20000 -->
          <g transform="translate(24.478125 91.643535) scale(0.1 -0.1)">
           <defs>
            <path id="DejaVuSans-32" d="M 1228 531 
L 3431 531 
L 3431 0 
L 469 0 
L 469 531 
Q 828 903 1448 1529 
Q 2069 2156 2228 2338 
Q 2531 2678 2651 2914 
Q 2772 3150 2772 3378 
Q 2772 3750 2511 3984 
Q 2250 4219 1831 4219 
Q 1534 4219 1204 4116 
Q 875 4013 500 3803 
L 500 4441 
Q 881 4594 1212 4672 
Q 1544 4750 1819 4750 
Q 2544 4750 2975 4387 
Q 3406 4025 3406 3419 
Q 3406 3131 3298 2873 
Q 3191 2616 2906 2266 
Q 2828 2175 2409 1742 
Q 1991 1309 1228 531 
z
" transform="scale(0.015625)"/>
           </defs>
           <use xlink:href="#DejaVuSans-32"/>
           <use xlink:href="#DejaVuSans-30" x="63.623047"/>
           <use xlink:href="#DejaVuSans-30" x="127.246094"/>
           <use xlink:href="#DejaVuSans-30" x="190.869141"/>
           <use xlink:href="#DejaVuSans-30" x="254.492188"/>
          </g>
         </g>
        </g>
        <g id="ytick_6">
         <g id="line2d_9">
          <g>
           <use xlink:href="#m381cec0a2b" x="63.290625" y="29.399927" style="stroke: #000000; stroke-width: 0.8"/>
          </g>
         </g>
         <g id="text_9">
          <!-- 25000 -->
          <g transform="translate(24.478125 33.199146) scale(0.1 -0.1)">
           <use xlink:href="#DejaVuSans-32"/>
           <use xlink:href="#DejaVuSans-35" x="63.623047"/>
           <use xlink:href="#DejaVuSans-30" x="127.246094"/>
           <use xlink:href="#DejaVuSans-30" x="190.869141"/>
           <use xlink:href="#DejaVuSans-30" x="254.492188"/>
          </g>
         </g>
        </g>
        <g id="text_10">
         <!-- time ago (generations) -->
         <g transform="translate(18.398438 223.682031) rotate(-90) scale(0.1 -0.1)">
          <defs>
           <path id="DejaVuSans-74" d="M 1172 4494 
L 1172 3500 
L 2356 3500 
L 2356 3053 
L 1172 3053 
L 1172 1153 
Q 1172 725 1289 603 
Q 1406 481 1766 481 
L 2356 481 
L 2356 0 
L 1766 0 
Q 1100 0 847 248 
Q 594 497 594 1153 
L 594 3053 
L 172 3053 
L 172 3500 
L 594 3500 
L 594 4494 
L 1172 4494 
z
" transform="scale(0.015625)"/>
           <path id="DejaVuSans-69" d="M 603 3500 
L 1178 3500 
L 1178 0 
L 603 0 
L 603 3500 
z
M 603 4863 
L 1178 4863 
L 1178 4134 
L 603 4134 
L 603 4863 
z
" transform="scale(0.015625)"/>
           <path id="DejaVuSans-6d" d="M 3328 2828 
Q 3544 3216 3844 3400 
Q 4144 3584 4550 3584 
Q 5097 3584 5394 3201 
Q 5691 2819 5691 2113 
L 5691 0 
L 5113 0 
L 5113 2094 
Q 5113 2597 4934 2840 
Q 4756 3084 4391 3084 
Q 3944 3084 3684 2787 
Q 3425 2491 3425 1978 
L 3425 0 
L 2847 0 
L 2847 2094 
Q 2847 2600 2669 2842 
Q 2491 3084 2119 3084 
Q 1678 3084 1418 2786 
Q 1159 2488 1159 1978 
L 1159 0 
L 581 0 
L 581 3500 
L 1159 3500 
L 1159 2956 
Q 1356 3278 1631 3431 
Q 1906 3584 2284 3584 
Q 2666 3584 2933 3390 
Q 3200 3197 3328 2828 
z
" transform="scale(0.015625)"/>
           <path id="DejaVuSans-65" d="M 3597 1894 
L 3597 1613 
L 953 1613 
Q 991 1019 1311 708 
Q 1631 397 2203 397 
Q 2534 397 2845 478 
Q 3156 559 3463 722 
L 3463 178 
Q 3153 47 2828 -22 
Q 2503 -91 2169 -91 
Q 1331 -91 842 396 
Q 353 884 353 1716 
Q 353 2575 817 3079 
Q 1281 3584 2069 3584 
Q 2775 3584 3186 3129 
Q 3597 2675 3597 1894 
z
M 3022 2063 
Q 3016 2534 2758 2815 
Q 2500 3097 2075 3097 
Q 1594 3097 1305 2825 
Q 1016 2553 972 2059 
L 3022 2063 
z
" transform="scale(0.015625)"/>
           <path id="DejaVuSans-20" transform="scale(0.015625)"/>
           <path id="DejaVuSans-61" d="M 2194 1759 
Q 1497 1759 1228 1600 
Q 959 1441 959 1056 
Q 959 750 1161 570 
Q 1363 391 1709 391 
Q 2188 391 2477 730 
Q 2766 1069 2766 1631 
L 2766 1759 
L 2194 1759 
z
M 3341 1997 
L 3341 0 
L 2766 0 
L 2766 531 
Q 2569 213 2275 61 
Q 1981 -91 1556 -91 
Q 1019 -91 701 211 
Q 384 513 384 1019 
Q 384 1609 779 1909 
Q 1175 2209 1959 2209 
L 2766 2209 
L 2766 2266 
Q 2766 2663 2505 2880 
Q 2244 3097 1772 3097 
Q 1472 3097 1187 3025 
Q 903 2953 641 2809 
L 641 3341 
Q 956 3463 1253 3523 
Q 1550 3584 1831 3584 
Q 2591 3584 2966 3190 
Q 3341 2797 3341 1997 
z
" transform="scale(0.015625)"/>
           <path id="DejaVuSans-67" d="M 2906 1791 
Q 2906 2416 2648 2759 
Q 2391 3103 1925 3103 
Q 1463 3103 1205 2759 
Q 947 2416 947 1791 
Q 947 1169 1205 825 
Q 1463 481 1925 481 
Q 2391 481 2648 825 
Q 2906 1169 2906 1791 
z
M 3481 434 
Q 3481 -459 3084 -895 
Q 2688 -1331 1869 -1331 
Q 1566 -1331 1297 -1286 
Q 1028 -1241 775 -1147 
L 775 -588 
Q 1028 -725 1275 -790 
Q 1522 -856 1778 -856 
Q 2344 -856 2625 -561 
Q 2906 -266 2906 331 
L 2906 616 
Q 2728 306 2450 153 
Q 2172 0 1784 0 
Q 1141 0 747 490 
Q 353 981 353 1791 
Q 353 2603 747 3093 
Q 1141 3584 1784 3584 
Q 2172 3584 2450 3431 
Q 2728 3278 2906 2969 
L 2906 3500 
L 3481 3500 
L 3481 434 
z
" transform="scale(0.015625)"/>
           <path id="DejaVuSans-6f" d="M 1959 3097 
Q 1497 3097 1228 2736 
Q 959 2375 959 1747 
Q 959 1119 1226 758 
Q 1494 397 1959 397 
Q 2419 397 2687 759 
Q 2956 1122 2956 1747 
Q 2956 2369 2687 2733 
Q 2419 3097 1959 3097 
z
M 1959 3584 
Q 2709 3584 3137 3096 
Q 3566 2609 3566 1747 
Q 3566 888 3137 398 
Q 2709 -91 1959 -91 
Q 1206 -91 779 398 
Q 353 888 353 1747 
Q 353 2609 779 3096 
Q 1206 3584 1959 3584 
z
" transform="scale(0.015625)"/>
           <path id="DejaVuSans-28" d="M 1984 4856 
Q 1566 4138 1362 3434 
Q 1159 2731 1159 2009 
Q 1159 1288 1364 580 
Q 1569 -128 1984 -844 
L 1484 -844 
Q 1016 -109 783 600 
Q 550 1309 550 2009 
Q 550 2706 781 3412 
Q 1013 4119 1484 4856 
L 1984 4856 
z
" transform="scale(0.015625)"/>
           <path id="DejaVuSans-6e" d="M 3513 2113 
L 3513 0 
L 2938 0 
L 2938 2094 
Q 2938 2591 2744 2837 
Q 2550 3084 2163 3084 
Q 1697 3084 1428 2787 
Q 1159 2491 1159 1978 
L 1159 0 
L 581 0 
L 581 3500 
L 1159 3500 
L 1159 2956 
Q 1366 3272 1645 3428 
Q 1925 3584 2291 3584 
Q 2894 3584 3203 3211 
Q 3513 2838 3513 2113 
z
" transform="scale(0.015625)"/>
           <path id="DejaVuSans-72" d="M 2631 2963 
Q 2534 3019 2420 3045 
Q 2306 3072 2169 3072 
Q 1681 3072 1420 2755 
Q 1159 2438 1159 1844 
L 1159 0 
L 581 0 
L 581 3500 
L 1159 3500 
L 1159 2956 
Q 1341 3275 1631 3429 
Q 1922 3584 2338 3584 
Q 2397 3584 2469 3576 
Q 2541 3569 2628 3553 
L 2631 2963 
z
" transform="scale(0.015625)"/>
           <path id="DejaVuSans-73" d="M 2834 3397 
L 2834 2853 
Q 2591 2978 2328 3040 
Q 2066 3103 1784 3103 
Q 1356 3103 1142 2972 
Q 928 2841 928 2578 
Q 928 2378 1081 2264 
Q 1234 2150 1697 2047 
L 1894 2003 
Q 2506 1872 2764 1633 
Q 3022 1394 3022 966 
Q 3022 478 2636 193 
Q 2250 -91 1575 -91 
Q 1294 -91 989 -36 
Q 684 19 347 128 
L 347 722 
Q 666 556 975 473 
Q 1284 391 1588 391 
Q 1994 391 2212 530 
Q 2431 669 2431 922 
Q 2431 1156 2273 1281 
Q 2116 1406 1581 1522 
L 1381 1569 
Q 847 1681 609 1914 
Q 372 2147 372 2553 
Q 372 3047 722 3315 
Q 1072 3584 1716 3584 
Q 2034 3584 2315 3537 
Q 2597 3491 2834 3397 
z
" transform="scale(0.015625)"/>
           <path id="DejaVuSans-29" d="M 513 4856 
L 1013 4856 
Q 1481 4119 1714 3412 
Q 1947 2706 1947 2009 
Q 1947 1309 1714 600 
Q 1481 -109 1013 -844 
L 513 -844 
Q 928 -128 1133 580 
Q 1338 1288 1338 2009 
Q 1338 2731 1133 3434 
Q 928 4138 513 4856 
z
" transform="scale(0.015625)"/>
          </defs>
          <use xlink:href="#DejaVuSans-74"/>
          <use xlink:href="#DejaVuSans-69" x="39.208984"/>
          <use xlink:href="#DejaVuSans-6d" x="66.992188"/>
          <use xlink:href="#DejaVuSans-65" x="164.404297"/>
          <use xlink:href="#DejaVuSans-20" x="225.927734"/>
          <use xlink:href="#DejaVuSans-61" x="257.714844"/>
          <use xlink:href="#DejaVuSans-67" x="318.994141"/>
          <use xlink:href="#DejaVuSans-6f" x="382.470703"/>
          <use xlink:href="#DejaVuSans-20" x="443.652344"/>
          <use xlink:href="#DejaVuSans-28" x="475.439453"/>
          <use xlink:href="#DejaVuSans-67" x="514.453125"/>
          <use xlink:href="#DejaVuSans-65" x="577.929688"/>
          <use xlink:href="#DejaVuSans-6e" x="639.453125"/>
          <use xlink:href="#DejaVuSans-65" x="702.832031"/>
          <use xlink:href="#DejaVuSans-72" x="764.355469"/>
          <use xlink:href="#DejaVuSans-61" x="805.46875"/>
          <use xlink:href="#DejaVuSans-74" x="866.748047"/>
          <use xlink:href="#DejaVuSans-69" x="905.957031"/>
          <use xlink:href="#DejaVuSans-6f" x="933.740234"/>
          <use xlink:href="#DejaVuSans-6e" x="994.921875"/>
          <use xlink:href="#DejaVuSans-73" x="1058.300781"/>
          <use xlink:href="#DejaVuSans-29" x="1110.400391"/>
         </g>
        </g>
       </g>
       <g id="patch_7">
        <path d="M 284.561898 267.350415 
L 283.561898 267.318978 
L 282.561898 267.282038 
L 281.561898 267.184291 
L 280.561898 267.15177 
L 279.561898 267.078145 
L 278.561898 267.03958 
L 277.561898 267.004166 
L 276.561898 266.946526 
L 275.561898 266.87614 
L 274.561898 266.824176 
L 273.561898 266.765086 
L 272.561898 266.676765 
L 271.561898 266.630621 
L 270.561898 266.58821 
L 269.561898 266.557717 
L 268.561898 266.531673 
L 267.561898 266.510472 
L 266.561898 266.456171 
L 265.561898 266.428234 
L 264.561898 266.39851 
L 263.561898 266.373115 
L 262.561898 266.361915 
L 261.561898 266.351791 
L 260.561898 266.351995 
L 259.561898 266.361505 
L 258.561898 266.373158 
L 257.561898 266.404188 
L 256.561898 266.415356 
L 255.561898 266.445473 
L 254.561898 266.50525 
L 253.561898 266.542442 
L 252.561898 266.581538 
L 251.561898 266.623977 
L 250.561898 266.656742 
L 249.561898 266.724169 
L 248.561898 266.763295 
L 247.561898 266.805969 
L 246.561898 266.87655 
L 245.561898 266.912941 
L 244.561898 266.971344 
L 243.561898 267.082297 
L 242.561898 267.152955 
L 241.561898 267.265895 
L 240.561898 267.311668 
L 239.561898 267.372951 
L 238.561898 267.42145 
L 237.561898 267.502273 
L 236.561898 267.620792 
L 235.561898 267.691002 
L 234.561898 267.774265 
L 233.561898 267.807407 
L 232.561898 267.858644 
L 231.561898 267.927042 
L 230.561898 267.993258 
L 228.903593 268.070175 
" clip-path="url(#p3d46ef7d12)" style="fill: none; stroke: #ffffff; stroke-width: 3; stroke-linecap: round"/>
        <path d="M 284.561898 267.350415 
L 283.561898 267.318978 
L 282.561898 267.282038 
L 281.561898 267.184291 
L 280.561898 267.15177 
L 279.561898 267.078145 
L 278.561898 267.03958 
L 277.561898 267.004166 
L 276.561898 266.946526 
L 275.561898 266.87614 
L 274.561898 266.824176 
L 273.561898 266.765086 
L 272.561898 266.676765 
L 271.561898 266.630621 
L 270.561898 266.58821 
L 269.561898 266.557717 
L 268.561898 266.531673 
L 267.561898 266.510472 
L 266.561898 266.456171 
L 265.561898 266.428234 
L 264.561898 266.39851 
L 263.561898 266.373115 
L 262.561898 266.361915 
L 261.561898 266.351791 
L 260.561898 266.351995 
L 259.561898 266.361505 
L 258.561898 266.373158 
L 257.561898 266.404188 
L 256.561898 266.415356 
L 255.561898 266.445473 
L 254.561898 266.50525 
L 253.561898 266.542442 
L 252.561898 266.581538 
L 251.561898 266.623977 
L 250.561898 266.656742 
L 249.561898 266.724169 
L 248.561898 266.763295 
L 247.561898 266.805969 
L 246.561898 266.87655 
L 245.561898 266.912941 
L 244.561898 266.971344 
L 243.561898 267.082297 
L 242.561898 267.152955 
L 241.561898 267.265895 
L 240.561898 267.311668 
L 239.561898 267.372951 
L 238.561898 267.42145 
L 237.561898 267.502273 
L 236.561898 267.620792 
L 235.561898 267.691002 
L 234.561898 267.774265 
L 233.561898 267.807407 
L 232.561898 267.858644 
L 231.561898 267.927042 
L 230.561898 267.993258 
L 228.903593 268.070175 
" clip-path="url(#p3d46ef7d12)" style="fill: none; stroke: #1f77b4; stroke-linecap: round"/>
        <path d="M 232.903593 269.350415 
L 232.023225 268.875084 
L 231.145318 268.39483 
L 230.294604 267.860189 
L 228.99243 267.172741 
L 229.919783 267.146727 
L 230.831457 266.734007 
L 231.741722 266.318468 
L 233.084217 265.711664 
L 232.429319 266.350415 
L 232.377354 267.350415 
L 232.318265 269.350415 
z
" clip-path="url(#p3d46ef7d12)" style="fill: #ffffff; stroke: #ffffff; stroke-width: 3; stroke-linecap: round"/>
        <path d="M 232.903593 269.350415 
L 232.023225 268.875084 
L 231.145318 268.39483 
L 230.294604 267.860189 
L 228.99243 267.172741 
L 229.919783 267.146727 
L 230.831457 266.734007 
L 231.741722 266.318468 
L 233.084217 265.711664 
L 232.429319 266.350415 
L 232.377354 267.350415 
L 232.318265 269.350415 
z
" clip-path="url(#p3d46ef7d12)" style="fill: #ffffff; stroke: #1f77b4; stroke-linecap: round"/>
        <g id="patch_8">
         <path d="M 379.399526 72.964375 
L 380.399526 72.995811 
L 381.399526 73.032752 
L 382.399526 73.130498 
L 383.399526 73.16302 
L 384.399526 73.236645 
L 385.399526 73.27521 
L 386.399526 73.310623 
L 387.399526 73.368263 
L 388.399526 73.438649 
L 389.399526 73.490614 
L 390.399526 73.549703 
L 391.399526 73.638024 
L 392.399526 73.684169 
L 393.399526 73.72658 
L 394.399526 73.757072 
L 395.399526 73.783117 
L 396.399526 73.804317 
L 397.399526 73.858618 
L 398.399526 73.886556 
L 399.399526 73.91628 
L 400.399526 73.941675 
L 401.399526 73.952875 
L 402.399526 73.962999 
L 403.399526 73.962795 
L 404.399526 73.953285 
L 405.399526 73.941631 
L 406.399526 73.910602 
L 407.399526 73.899434 
L 408.399526 73.869317 
L 409.399526 73.80954 
L 410.399526 73.772348 
L 411.399526 73.733252 
L 412.399526 73.690812 
L 413.399526 73.658047 
L 414.399526 73.590621 
L 415.399526 73.551495 
L 416.399526 73.50882 
L 417.399526 73.43824 
L 418.399526 73.401849 
L 419.399526 73.343446 
L 420.399526 73.232493 
L 421.399526 73.161835 
L 422.399526 73.048895 
L 423.399526 73.003122 
L 424.399526 72.941839 
L 425.399526 72.89334 
L 426.399526 72.812517 
L 427.399526 72.693998 
L 428.399526 72.623787 
L 429.399526 72.540525 
L 430.399526 72.507383 
L 431.399526 72.456146 
L 432.399526 72.387747 
L 433.399526 72.321532 
L 434.399526 72.244615 
L 435.399526 72.217299 
L 436.399526 72.190822 
L 437.399526 72.168171 
L 438.399526 72.14864 
L 439.399526 72.122246 
L 440.399526 72.072475 
L 441.399526 72.037402 
L 442.399526 72.001536 
L 443.399526 71.986169 
L 444.399526 71.9704 
L 445.399526 71.966987 
L 446.399526 71.96457 
L 447.399526 71.965056 
L 448.399526 71.966985 
L 449.399526 71.980242 
L 450.399526 71.988633 
L 451.399526 72.010169 
L 452.399526 72.033202 
L 453.399526 72.050435 
L 454.399526 72.068898 
L 455.399526 72.08935 
L 456.399526 72.10595 
L 457.399526 72.168729 
L 458.399526 72.243994 
L 459.399526 72.276633 
L 460.399526 72.344197 
L 461.399526 72.398244 
L 462.399526 72.431948 
L 463.399526 72.522074 
L 464.399526 72.550609 
L 465.399526 72.582095 
L 466.399526 72.613106 
L 467.399526 72.667914 
L 468.399526 72.732501 
L 469.399526 72.770697 
L 470.399526 72.866631 
L 471.399526 72.915889 
L 472.399526 72.959958 
L 473.399526 73.000082 
L 474.399526 73.108449 
L 475.399526 73.150077 
L 476.399526 73.212219 
L 477.399526 73.282181 
L 478.399526 73.386685 
L 479.399526 73.423673 
L 480.399526 73.46955 
L 481.399526 73.538045 
L 482.399526 73.586791 
L 483.399526 73.664388 
L 484.399526 73.694929 
L 485.399526 73.764443 
L 486.399526 73.788416 
L 487.399526 73.817038 
L 488.399526 73.858831 
L 489.399526 73.880407 
L 490.399526 73.894355 
L 491.399526 73.921077 
L 492.399526 73.930387 
L 493.399526 73.942834 
L 494.399526 73.953889 
L 495.399526 73.959553 
L 496.399526 73.964317 
L 497.399526 73.958769 
L 498.399526 73.945481 
L 499.399526 73.937964 
L 500.399526 73.913179 
L 501.399526 73.88961 
L 502.399526 73.85343 
L 503.399526 73.827468 
L 504.399526 73.805146 
L 505.399526 73.736386 
L 506.399526 73.661851 
L 507.399526 73.567872 
L 508.399526 73.51682 
L 509.399526 73.462886 
L 510.399526 73.427635 
L 511.399526 73.321547 
L 512.399526 73.269283 
L 513.399526 73.232376 
L 514.399526 73.201345 
L 515.399526 73.14019 
L 516.399526 73.07277 
L 517.399526 73.023864 
L 518.399526 72.958672 
L 519.399526 72.920484 
L 520.399526 72.878488 
L 521.399526 72.836471 
L 522.399526 72.776955 
L 523.399526 72.663795 
L 524.399526 72.611544 
L 525.399526 72.572126 
L 526.399526 72.525025 
L 527.399526 72.468245 
L 528.399526 72.435582 
L 529.399526 72.399404 
L 530.399526 72.367314 
L 531.399526 72.333034 
L 532.399526 72.274656 
L 533.399526 72.229471 
L 534.399526 72.199847 
L 535.399526 72.149461 
L 536.399526 72.124264 
L 537.399526 72.103213 
L 538.399526 72.068245 
L 539.399526 72.043955 
L 540.399526 72.029888 
L 541.399526 72.010946 
L 542.399526 71.995285 
L 543.399526 71.982733 
L 544.399526 71.976897 
L 545.399526 71.970015 
L 546.399526 71.964841 
L 547.399526 71.966624 
L 548.898358 71.969349 
" clip-path="url(#p3d46ef7d12)" style="fill: none; stroke: #ffffff; stroke-width: 3; stroke-linecap: round"/>
         <path d="M 379.399526 72.964375 
L 380.399526 72.995811 
L 381.399526 73.032752 
L 382.399526 73.130498 
L 383.399526 73.16302 
L 384.399526 73.236645 
L 385.399526 73.27521 
L 386.399526 73.310623 
L 387.399526 73.368263 
L 388.399526 73.438649 
L 389.399526 73.490614 
L 390.399526 73.549703 
L 391.399526 73.638024 
L 392.399526 73.684169 
L 393.399526 73.72658 
L 394.399526 73.757072 
L 395.399526 73.783117 
L 396.399526 73.804317 
L 397.399526 73.858618 
L 398.399526 73.886556 
L 399.399526 73.91628 
L 400.399526 73.941675 
L 401.399526 73.952875 
L 402.399526 73.962999 
L 403.399526 73.962795 
L 404.399526 73.953285 
L 405.399526 73.941631 
L 406.399526 73.910602 
L 407.399526 73.899434 
L 408.399526 73.869317 
L 409.399526 73.80954 
L 410.399526 73.772348 
L 411.399526 73.733252 
L 412.399526 73.690812 
L 413.399526 73.658047 
L 414.399526 73.590621 
L 415.399526 73.551495 
L 416.399526 73.50882 
L 417.399526 73.43824 
L 418.399526 73.401849 
L 419.399526 73.343446 
L 420.399526 73.232493 
L 421.399526 73.161835 
L 422.399526 73.048895 
L 423.399526 73.003122 
L 424.399526 72.941839 
L 425.399526 72.89334 
L 426.399526 72.812517 
L 427.399526 72.693998 
L 428.399526 72.623787 
L 429.399526 72.540525 
L 430.399526 72.507383 
L 431.399526 72.456146 
L 432.399526 72.387747 
L 433.399526 72.321532 
L 434.399526 72.244615 
L 435.399526 72.217299 
L 436.399526 72.190822 
L 437.399526 72.168171 
L 438.399526 72.14864 
L 439.399526 72.122246 
L 440.399526 72.072475 
L 441.399526 72.037402 
L 442.399526 72.001536 
L 443.399526 71.986169 
L 444.399526 71.9704 
L 445.399526 71.966987 
L 446.399526 71.96457 
L 447.399526 71.965056 
L 448.399526 71.966985 
L 449.399526 71.980242 
L 450.399526 71.988633 
L 451.399526 72.010169 
L 452.399526 72.033202 
L 453.399526 72.050435 
L 454.399526 72.068898 
L 455.399526 72.08935 
L 456.399526 72.10595 
L 457.399526 72.168729 
L 458.399526 72.243994 
L 459.399526 72.276633 
L 460.399526 72.344197 
L 461.399526 72.398244 
L 462.399526 72.431948 
L 463.399526 72.522074 
L 464.399526 72.550609 
L 465.399526 72.582095 
L 466.399526 72.613106 
L 467.399526 72.667914 
L 468.399526 72.732501 
L 469.399526 72.770697 
L 470.399526 72.866631 
L 471.399526 72.915889 
L 472.399526 72.959958 
L 473.399526 73.000082 
L 474.399526 73.108449 
L 475.399526 73.150077 
L 476.399526 73.212219 
L 477.399526 73.282181 
L 478.399526 73.386685 
L 479.399526 73.423673 
L 480.399526 73.46955 
L 481.399526 73.538045 
L 482.399526 73.586791 
L 483.399526 73.664388 
L 484.399526 73.694929 
L 485.399526 73.764443 
L 486.399526 73.788416 
L 487.399526 73.817038 
L 488.399526 73.858831 
L 489.399526 73.880407 
L 490.399526 73.894355 
L 491.399526 73.921077 
L 492.399526 73.930387 
L 493.399526 73.942834 
L 494.399526 73.953889 
L 495.399526 73.959553 
L 496.399526 73.964317 
L 497.399526 73.958769 
L 498.399526 73.945481 
L 499.399526 73.937964 
L 500.399526 73.913179 
L 501.399526 73.88961 
L 502.399526 73.85343 
L 503.399526 73.827468 
L 504.399526 73.805146 
L 505.399526 73.736386 
L 506.399526 73.661851 
L 507.399526 73.567872 
L 508.399526 73.51682 
L 509.399526 73.462886 
L 510.399526 73.427635 
L 511.399526 73.321547 
L 512.399526 73.269283 
L 513.399526 73.232376 
L 514.399526 73.201345 
L 515.399526 73.14019 
L 516.399526 73.07277 
L 517.399526 73.023864 
L 518.399526 72.958672 
L 519.399526 72.920484 
L 520.399526 72.878488 
L 521.399526 72.836471 
L 522.399526 72.776955 
L 523.399526 72.663795 
L 524.399526 72.611544 
L 525.399526 72.572126 
L 526.399526 72.525025 
L 527.399526 72.468245 
L 528.399526 72.435582 
L 529.399526 72.399404 
L 530.399526 72.367314 
L 531.399526 72.333034 
L 532.399526 72.274656 
L 533.399526 72.229471 
L 534.399526 72.199847 
L 535.399526 72.149461 
L 536.399526 72.124264 
L 537.399526 72.103213 
L 538.399526 72.068245 
L 539.399526 72.043955 
L 540.399526 72.029888 
L 541.399526 72.010946 
L 542.399526 71.995285 
L 543.399526 71.982733 
L 544.399526 71.976897 
L 545.399526 71.970015 
L 546.399526 71.964841 
L 547.399526 71.966624 
L 548.898358 71.969349 
" clip-path="url(#p3d46ef7d12)" style="fill: none; stroke: #1f77b4; stroke-linecap: round"/>
         <path d="M 544.898358 70.964375 
L 545.778727 71.439706 
L 546.656634 71.91996 
L 547.507347 72.454601 
L 548.809522 73.142048 
L 547.882169 73.168063 
L 546.970494 73.580783 
L 546.06023 73.996322 
L 544.717734 74.603126 
L 545.372633 73.964375 
L 545.424597 72.964375 
L 545.483687 70.964375 
z
" clip-path="url(#p3d46ef7d12)" style="fill: #ffffff; stroke: #ffffff; stroke-width: 3; stroke-linecap: round"/>
         <path d="M 544.898358 70.964375 
L 545.778727 71.439706 
L 546.656634 71.91996 
L 547.507347 72.454601 
L 548.809522 73.142048 
L 547.882169 73.168063 
L 546.970494 73.580783 
L 546.06023 73.996322 
L 544.717734 74.603126 
L 545.372633 73.964375 
L 545.424597 72.964375 
L 545.483687 70.964375 
z
" clip-path="url(#p3d46ef7d12)" style="fill: #ffffff; stroke: #1f77b4; stroke-linecap: round"/>
         <g id="patch_9">
          <path d="M 227.784985 283.036889 
L 228.784985 283.068325 
L 229.784985 283.105266 
L 230.784985 283.203012 
L 231.784985 283.235534 
L 232.784985 283.309159 
L 233.784985 283.347724 
L 234.784985 283.383137 
L 235.784985 283.440777 
L 236.784985 283.511163 
L 237.784985 283.563128 
L 238.784985 283.622217 
L 239.784985 283.710538 
L 240.784985 283.756683 
L 241.784985 283.799094 
L 242.784985 283.829586 
L 243.784985 283.855631 
L 244.784985 283.876831 
L 245.784985 283.931132 
L 246.784985 283.95907 
L 247.784985 283.988794 
L 248.784985 284.014189 
L 249.784985 284.025389 
L 250.784985 284.035513 
L 251.784985 284.035309 
L 252.784985 284.025799 
L 253.784985 284.014145 
L 254.784985 283.983116 
L 255.784985 283.971948 
L 256.784985 283.941831 
L 257.784985 283.882054 
L 258.784985 283.844862 
L 259.784985 283.805766 
L 260.784985 283.763326 
L 261.784985 283.730561 
L 262.784985 283.663135 
L 263.784985 283.624009 
L 264.784985 283.581334 
L 265.784985 283.510754 
L 266.784985 283.474363 
L 267.784985 283.41596 
L 268.784985 283.305007 
L 269.784985 283.234349 
L 270.784985 283.121409 
L 271.784985 283.075636 
L 272.784985 283.014353 
L 273.784985 282.965854 
L 274.784985 282.885031 
L 275.784985 282.766512 
L 276.784985 282.696301 
L 277.784985 282.613039 
L 278.784985 282.579897 
L 279.784985 282.52866 
L 280.784985 282.460261 
L 281.784985 282.394046 
L 282.784985 282.317129 
L 283.784985 282.289813 
L 284.784985 282.263336 
L 285.784985 282.240685 
L 286.784985 282.221154 
L 287.784985 282.19476 
L 288.784985 282.144989 
L 289.784985 282.109916 
L 290.784985 282.07405 
L 291.784985 282.058683 
L 292.784985 282.042914 
L 293.784985 282.039501 
L 294.784985 282.037084 
L 295.784985 282.03757 
L 296.784985 282.039499 
L 297.784985 282.052756 
L 298.784985 282.061146 
L 299.784985 282.082683 
L 300.784985 282.105716 
L 301.784985 282.122949 
L 302.784985 282.141412 
L 303.784985 282.161864 
L 304.784985 282.178464 
L 305.784985 282.241243 
L 306.784985 282.316508 
L 307.784985 282.349147 
L 308.784985 282.416711 
L 309.784985 282.470758 
L 310.784985 282.504462 
L 311.784985 282.594588 
L 312.784985 282.623123 
L 313.784985 282.654609 
L 314.784985 282.68562 
L 315.784985 282.740428 
L 316.784985 282.805015 
L 317.784985 282.843211 
L 318.784985 282.939145 
L 319.784985 282.988403 
L 320.784985 283.032472 
L 321.784985 283.072596 
L 322.784985 283.180963 
L 323.784985 283.222591 
L 324.784985 283.284733 
L 325.784985 283.354695 
L 326.784985 283.459199 
L 327.784985 283.496187 
L 328.784985 283.542064 
L 329.784985 283.610559 
L 330.784985 283.659305 
L 331.784985 283.736902 
L 332.784985 283.767443 
L 333.784985 283.836957 
L 334.784985 283.86093 
L 335.784985 283.889552 
L 336.784985 283.931345 
L 337.784985 283.952921 
L 338.784985 283.966869 
L 339.784985 283.993591 
L 340.784985 284.002901 
L 341.784985 284.015348 
L 342.784985 284.026403 
L 343.784985 284.032067 
L 344.784985 284.036831 
L 345.784985 284.031283 
L 346.784985 284.017995 
L 347.784985 284.010478 
L 348.784985 283.985693 
L 349.784985 283.962124 
L 350.784985 283.925944 
L 351.784985 283.899982 
L 352.784985 283.87766 
L 353.784985 283.8089 
L 354.784985 283.734365 
L 355.784985 283.640386 
L 356.784985 283.589334 
L 357.784985 283.5354 
L 358.784985 283.500149 
L 359.784985 283.394061 
L 360.784985 283.341797 
L 361.784985 283.30489 
L 362.784985 283.273859 
L 363.784985 283.212704 
L 364.784985 283.145284 
L 365.784985 283.096378 
L 366.784985 283.031186 
L 367.784985 282.992998 
L 368.784985 282.951002 
L 369.784985 282.908985 
L 370.784985 282.849469 
L 371.784985 282.736309 
L 372.784985 282.684058 
L 373.784985 282.64464 
L 374.784985 282.597539 
L 375.784985 282.540759 
L 376.784985 282.508096 
L 377.784985 282.471918 
L 378.784985 282.439828 
L 379.784985 282.405548 
L 380.784985 282.34717 
L 381.784985 282.301985 
L 382.784985 282.272361 
L 383.784985 282.221975 
L 384.784985 282.196778 
L 385.784985 282.175727 
L 386.784985 282.140759 
L 387.784985 282.116469 
L 388.784985 282.102402 
L 389.784985 282.08346 
L 390.784985 282.067799 
L 391.784985 282.055247 
L 392.784985 282.049411 
L 393.784985 282.042529 
L 394.784985 282.037355 
L 395.784985 282.039138 
L 396.784985 282.041863 
L 397.784985 282.053017 
L 398.784985 282.081252 
L 399.784985 282.12504 
L 400.784985 282.145729 
L 401.784985 282.186702 
L 402.784985 282.226777 
L 403.784985 282.245887 
L 404.784985 282.268396 
L 405.784985 282.335047 
L 406.784985 282.384757 
L 407.784985 282.458463 
L 408.784985 282.489777 
L 409.784985 282.566399 
L 410.784985 282.604697 
L 411.784985 282.678814 
L 412.784985 282.782872 
L 413.784985 282.852703 
L 414.784985 282.957936 
L 415.784985 283.012952 
L 416.784985 283.136427 
L 417.784985 283.206986 
L 418.784985 283.322825 
L 419.784985 283.373006 
L 420.784985 283.40861 
L 421.784985 283.500017 
L 422.784985 283.553525 
L 423.784985 283.641433 
L 424.784985 283.710618 
L 425.784985 283.757382 
L 426.784985 283.829426 
L 428.179545 283.879568 
" clip-path="url(#p3d46ef7d12)" style="fill: none; stroke: #ffffff; stroke-width: 3; stroke-linecap: round"/>
          <path d="M 227.784985 283.036889 
L 228.784985 283.068325 
L 229.784985 283.105266 
L 230.784985 283.203012 
L 231.784985 283.235534 
L 232.784985 283.309159 
L 233.784985 283.347724 
L 234.784985 283.383137 
L 235.784985 283.440777 
L 236.784985 283.511163 
L 237.784985 283.563128 
L 238.784985 283.622217 
L 239.784985 283.710538 
L 240.784985 283.756683 
L 241.784985 283.799094 
L 242.784985 283.829586 
L 243.784985 283.855631 
L 244.784985 283.876831 
L 245.784985 283.931132 
L 246.784985 283.95907 
L 247.784985 283.988794 
L 248.784985 284.014189 
L 249.784985 284.025389 
L 250.784985 284.035513 
L 251.784985 284.035309 
L 252.784985 284.025799 
L 253.784985 284.014145 
L 254.784985 283.983116 
L 255.784985 283.971948 
L 256.784985 283.941831 
L 257.784985 283.882054 
L 258.784985 283.844862 
L 259.784985 283.805766 
L 260.784985 283.763326 
L 261.784985 283.730561 
L 262.784985 283.663135 
L 263.784985 283.624009 
L 264.784985 283.581334 
L 265.784985 283.510754 
L 266.784985 283.474363 
L 267.784985 283.41596 
L 268.784985 283.305007 
L 269.784985 283.234349 
L 270.784985 283.121409 
L 271.784985 283.075636 
L 272.784985 283.014353 
L 273.784985 282.965854 
L 274.784985 282.885031 
L 275.784985 282.766512 
L 276.784985 282.696301 
L 277.784985 282.613039 
L 278.784985 282.579897 
L 279.784985 282.52866 
L 280.784985 282.460261 
L 281.784985 282.394046 
L 282.784985 282.317129 
L 283.784985 282.289813 
L 284.784985 282.263336 
L 285.784985 282.240685 
L 286.784985 282.221154 
L 287.784985 282.19476 
L 288.784985 282.144989 
L 289.784985 282.109916 
L 290.784985 282.07405 
L 291.784985 282.058683 
L 292.784985 282.042914 
L 293.784985 282.039501 
L 294.784985 282.037084 
L 295.784985 282.03757 
L 296.784985 282.039499 
L 297.784985 282.052756 
L 298.784985 282.061146 
L 299.784985 282.082683 
L 300.784985 282.105716 
L 301.784985 282.122949 
L 302.784985 282.141412 
L 303.784985 282.161864 
L 304.784985 282.178464 
L 305.784985 282.241243 
L 306.784985 282.316508 
L 307.784985 282.349147 
L 308.784985 282.416711 
L 309.784985 282.470758 
L 310.784985 282.504462 
L 311.784985 282.594588 
L 312.784985 282.623123 
L 313.784985 282.654609 
L 314.784985 282.68562 
L 315.784985 282.740428 
L 316.784985 282.805015 
L 317.784985 282.843211 
L 318.784985 282.939145 
L 319.784985 282.988403 
L 320.784985 283.032472 
L 321.784985 283.072596 
L 322.784985 283.180963 
L 323.784985 283.222591 
L 324.784985 283.284733 
L 325.784985 283.354695 
L 326.784985 283.459199 
L 327.784985 283.496187 
L 328.784985 283.542064 
L 329.784985 283.610559 
L 330.784985 283.659305 
L 331.784985 283.736902 
L 332.784985 283.767443 
L 333.784985 283.836957 
L 334.784985 283.86093 
L 335.784985 283.889552 
L 336.784985 283.931345 
L 337.784985 283.952921 
L 338.784985 283.966869 
L 339.784985 283.993591 
L 340.784985 284.002901 
L 341.784985 284.015348 
L 342.784985 284.026403 
L 343.784985 284.032067 
L 344.784985 284.036831 
L 345.784985 284.031283 
L 346.784985 284.017995 
L 347.784985 284.010478 
L 348.784985 283.985693 
L 349.784985 283.962124 
L 350.784985 283.925944 
L 351.784985 283.899982 
L 352.784985 283.87766 
L 353.784985 283.8089 
L 354.784985 283.734365 
L 355.784985 283.640386 
L 356.784985 283.589334 
L 357.784985 283.5354 
L 358.784985 283.500149 
L 359.784985 283.394061 
L 360.784985 283.341797 
L 361.784985 283.30489 
L 362.784985 283.273859 
L 363.784985 283.212704 
L 364.784985 283.145284 
L 365.784985 283.096378 
L 366.784985 283.031186 
L 367.784985 282.992998 
L 368.784985 282.951002 
L 369.784985 282.908985 
L 370.784985 282.849469 
L 371.784985 282.736309 
L 372.784985 282.684058 
L 373.784985 282.64464 
L 374.784985 282.597539 
L 375.784985 282.540759 
L 376.784985 282.508096 
L 377.784985 282.471918 
L 378.784985 282.439828 
L 379.784985 282.405548 
L 380.784985 282.34717 
L 381.784985 282.301985 
L 382.784985 282.272361 
L 383.784985 282.221975 
L 384.784985 282.196778 
L 385.784985 282.175727 
L 386.784985 282.140759 
L 387.784985 282.116469 
L 388.784985 282.102402 
L 389.784985 282.08346 
L 390.784985 282.067799 
L 391.784985 282.055247 
L 392.784985 282.049411 
L 393.784985 282.042529 
L 394.784985 282.037355 
L 395.784985 282.039138 
L 396.784985 282.041863 
L 397.784985 282.053017 
L 398.784985 282.081252 
L 399.784985 282.12504 
L 400.784985 282.145729 
L 401.784985 282.186702 
L 402.784985 282.226777 
L 403.784985 282.245887 
L 404.784985 282.268396 
L 405.784985 282.335047 
L 406.784985 282.384757 
L 407.784985 282.458463 
L 408.784985 282.489777 
L 409.784985 282.566399 
L 410.784985 282.604697 
L 411.784985 282.678814 
L 412.784985 282.782872 
L 413.784985 282.852703 
L 414.784985 282.957936 
L 415.784985 283.012952 
L 416.784985 283.136427 
L 417.784985 283.206986 
L 418.784985 283.322825 
L 419.784985 283.373006 
L 420.784985 283.40861 
L 421.784985 283.500017 
L 422.784985 283.553525 
L 423.784985 283.641433 
L 424.784985 283.710618 
L 425.784985 283.757382 
L 426.784985 283.829426 
L 428.179545 283.879568 
" clip-path="url(#p3d46ef7d12)" style="fill: none; stroke: #ff7f0e; stroke-linecap: round"/>
          <path d="M 424.179545 281.036889 
L 425.059913 281.51222 
L 425.93782 281.992474 
L 426.788534 282.527115 
L 428.090708 283.214562 
L 427.163355 283.240577 
L 426.251681 283.653297 
L 425.341416 284.068836 
L 423.998921 284.67564 
L 424.653819 284.036889 
L 424.705783 283.036889 
L 424.764873 281.036889 
z
" clip-path="url(#p3d46ef7d12)" style="fill: #ffffff; stroke: #ffffff; stroke-width: 3; stroke-linecap: round"/>
          <path d="M 424.179545 281.036889 
L 425.059913 281.51222 
L 425.93782 281.992474 
L 426.788534 282.527115 
L 428.090708 283.214562 
L 427.163355 283.240577 
L 426.251681 283.653297 
L 425.341416 284.068836 
L 423.998921 284.67564 
L 424.653819 284.036889 
L 424.705783 283.036889 
L 424.764873 281.036889 
z
" clip-path="url(#p3d46ef7d12)" style="fill: #ffffff; stroke: #ff7f0e; stroke-linecap: round"/>
          <path d="M 471.610418 298.96883 
" clip-path="url(#p3d46ef7d12)" style="fill: none; stroke-dasharray: 3.7,1.6; stroke-dashoffset: 0; stroke: #2ca02c"/>
          <path d="M 470.610418 298.96883 
L 472.610418 299.96883 
L 472.610418 297.96883 
z
" clip-path="url(#p3d46ef7d12)" style="fill: #2ca02c; stroke: #2ca02c; stroke-linejoin: miter"/>
          <g id="patch_10">
           <path d="M 63.290625 321.621875 
L 63.290625 10.8 
" style="fill: none; stroke: #000000; stroke-width: 0.8; stroke-linejoin: miter; stroke-linecap: square"/>
          </g>
          <g id="text_11">
           <g id="patch_11">
            <path d="M 321.327536 145.91427 
L 342.632224 145.91427 
Q 344.632224 145.91427 344.632224 143.91427 
L 344.632224 134.236145 
Q 344.632224 132.236145 342.632224 132.236145 
L 321.327536 132.236145 
Q 319.327536 132.236145 319.327536 134.236145 
L 319.327536 143.91427 
Q 319.327536 145.91427 321.327536 145.91427 
z
" style="fill: #ffffff; opacity: 0.6"/>
           </g>
           <!-- ANC -->
           <g transform="translate(321.327536 141.834582) scale(0.1 -0.1)">
            <defs>
             <path id="DejaVuSans-4e" d="M 628 4666 
L 1478 4666 
L 3547 763 
L 3547 4666 
L 4159 4666 
L 4159 0 
L 3309 0 
L 1241 3903 
L 1241 0 
L 628 0 
L 628 4666 
z
" transform="scale(0.015625)"/>
            </defs>
            <use xlink:href="#DejaVuSans-41"/>
            <use xlink:href="#DejaVuSans-4e" x="68.408203"/>
            <use xlink:href="#DejaVuSans-43" x="143.212891"/>
           </g>
          </g>
         </g>
        </g>
        <defs>
         <clipPath id="p3d46ef7d12">
          <rect x="63.290625" y="10.8" width="540.309375" height="310.821875"/>
         </clipPath>
        </defs>
       </g>
      </g>
     </g>
    </g>
   </g>
  </g>
 </g>
</svg>
