<?xml version="1.0" encoding="utf-8" standalone="no"?>
<!DOCTYPE svg PUBLIC "-//W3C//DTD SVG 1.1//EN"
  "http://www.w3.org/Graphics/SVG/1.1/DTD/svg11.dtd">
<svg xmlns:xlink="http://www.w3.org/1999/xlink" width="614.4pt" height="345.6pt" viewBox="0 0 614.4 345.6" xmlns="http://www.w3.org/2000/svg" version="1.1">
 <metadata>
  <rdf:RDF xmlns:dc="http://purl.org/dc/elements/1.1/" xmlns:cc="http://creativecommons.org/ns#" xmlns:rdf="http://www.w3.org/1999/02/22-rdf-syntax-ns#">
   <cc:Work>
    <dc:type rdf:resource="http://purl.org/dc/dcmitype/StillImage"/>
    <dc:date>2024-04-17T19:48:36.896575</dc:date>
    <dc:format>image/svg+xml</dc:format>
    <dc:creator>
     <cc:Agent>
      <dc:title>Matplotlib v3.7.1, https://matplotlib.org/</dc:title>
     </cc:Agent>
    </dc:creator>
   </cc:Work>
  </rdf:RDF>
 </metadata>
 <defs>
  <style type="text/css">*{stroke-linejoin: round; stroke-linecap: butt}</style>
 </defs>
 <g id="figure_1">
  <g id="patch_1">
   <path d="M 0 345.6 
L 614.4 345.6 
L 614.4 0 
L 0 0 
z
" style="fill: #ffffff"/>
  </g>
  <g id="axes_1">
   <g id="patch_2">
    <path d="M 63.290625 321.621875 
L 603.6 321.621875 
L 603.6 10.8 
L 63.290625 10.8 
z
" style="fill: #ffffff"/>
   </g>
   <path d="M 563.794747 308.515292 
L 562.794747 308.483856 
L 561.794747 308.446915 
L 560.794747 308.349169 
L 559.794747 308.316647 
L 558.794747 308.243023 
L 557.794747 308.204457 
L 556.794747 308.169044 
L 555.794747 308.111404 
L 554.794747 308.041018 
L 553.794747 307.989054 
L 552.794747 307.929964 
L 551.794747 307.841643 
L 550.794747 307.795499 
L 549.794747 307.753088 
L 548.794747 307.722595 
L 547.794747 307.69655 
L 546.794747 307.67535 
L 545.794747 307.621049 
L 544.794747 307.593111 
L 543.794747 307.563387 
L 542.794747 307.537992 
L 541.794747 307.526792 
L 540.794747 307.516668 
L 539.794747 307.516872 
L 538.794747 307.526382 
L 537.794747 307.538036 
L 536.794747 307.569065 
L 535.794747 307.580233 
L 534.794747 307.610351 
L 533.794747 307.670128 
L 532.794747 307.707319 
L 531.794747 307.746415 
L 530.794747 307.788855 
L 529.794747 307.82162 
L 528.794747 307.889046 
L 527.794747 307.928172 
L 526.794747 307.970847 
L 525.794747 308.041427 
L 524.794747 308.077818 
L 523.794747 308.136221 
L 522.794747 308.247174 
L 521.794747 308.317832 
L 520.794747 308.430772 
L 519.794747 308.476545 
L 518.794747 308.537828 
L 517.794747 308.586328 
L 516.794747 308.66715 
L 515.794747 308.785669 
L 514.794747 308.85588 
L 513.794747 308.939142 
L 512.794747 308.972284 
L 511.794747 309.023521 
L 510.794747 309.09192 
L 509.794747 309.158135 
L 508.794747 309.235052 
L 507.794747 309.262368 
L 506.794747 309.288845 
L 505.794747 309.311496 
L 504.794747 309.331027 
L 503.794747 309.357421 
L 502.794747 309.407192 
L 501.794747 309.442265 
L 500.794747 309.478131 
L 499.794747 309.493498 
L 498.794747 309.509267 
L 497.794747 309.51268 
L 496.794747 309.515098 
L 495.794747 309.514611 
L 494.794747 309.512682 
L 493.794747 309.499425 
L 492.794747 309.491035 
L 491.794747 309.469498 
L 490.794747 309.446466 
L 489.794747 309.429232 
L 488.794747 309.41077 
L 487.794747 309.390317 
L 486.794747 309.373717 
L 485.794747 309.310938 
L 484.794747 309.235673 
L 483.794747 309.203034 
L 482.794747 309.135471 
L 481.794747 309.081424 
L 480.794747 309.047719 
L 479.794747 308.957593 
L 478.794747 308.929058 
L 477.794747 308.897572 
L 475.969502 308.866561 
" clip-path="url(#pa8be91393e)" style="fill: none; stroke-dasharray: 3.7,1.6; stroke-dashoffset: 0; stroke: #2ca02c"/>
   <g id="patch_3">
    <path d="M 292.959297 10.8 
L 292.959297 300.533719 
M 379.781931 10.8 
L 379.781931 300.533719 
" clip-path="url(#pa8be91393e)" style="fill: none; stroke: #ffffff; stroke-width: 3; stroke-linejoin: miter"/>
    <path d="M 292.959297 10.8 
L 292.959297 300.533719 
M 379.781931 10.8 
L 379.781931 300.533719 
" clip-path="url(#pa8be91393e)" style="fill: none; stroke: #1f77b4; stroke-linejoin: miter"/>
    <g id="PolyCollection_1">
     <path d="M 379.781931 10.8 
L 292.959297 10.8 
L 292.959297 300.533719 
L 379.781931 300.533719 
L 379.781931 300.533719 
L 379.781931 10.8 
z
" clip-path="url(#pa8be91393e)" style="fill: #1f77b4; fill-opacity: 0.5"/>
    </g>
    <g id="patch_4">
     <path d="M 87.850142 300.533719 
L 87.850142 321.621875 
M 228.268264 300.533719 
L 228.268264 321.621875 
" clip-path="url(#pa8be91393e)" style="fill: none; stroke: #ffffff; stroke-width: 3; stroke-linejoin: miter"/>
     <path d="M 87.850142 300.533719 
L 87.850142 321.621875 
M 228.268264 300.533719 
L 228.268264 321.621875 
" clip-path="url(#pa8be91393e)" style="fill: none; stroke: #ff7f0e; stroke-linejoin: miter"/>
     <g id="PolyCollection_2">
      <path d="M 228.268264 300.533719 
L 87.850142 300.533719 
L 87.850142 321.621875 
L 228.268264 321.621875 
L 228.268264 321.621875 
L 228.268264 300.533719 
z
" clip-path="url(#pa8be91393e)" style="fill: #ff7f0e; fill-opacity: 0.5"/>
     </g>
     <g id="patch_5">
      <path d="M 569.197841 72.964375 
L 569.197841 321.621875 
M 579.040483 72.964375 
L 579.040483 321.621875 
" clip-path="url(#pa8be91393e)" style="fill: none; stroke: #ffffff; stroke-width: 3; stroke-linejoin: miter"/>
      <path d="M 569.197841 72.964375 
L 569.197841 321.621875 
M 579.040483 72.964375 
L 579.040483 321.621875 
" clip-path="url(#pa8be91393e)" style="fill: none; stroke: #2ca02c; stroke-linejoin: miter"/>
      <g id="PolyCollection_3">
       <path d="M 579.040483 72.964375 
L 569.197841 72.964375 
L 569.197841 321.621875 
L 579.040483 321.621875 
L 579.040483 321.621875 
L 579.040483 72.964375 
z
" clip-path="url(#pa8be91393e)" style="fill: #2ca02c; fill-opacity: 0.5"/>
      </g>
      <g id="patch_6">
       <path d="M 439.923368 300.533719 
L 439.923368 321.621875 
M 470.566408 300.533719 
L 470.566408 321.621875 
" clip-path="url(#pa8be91393e)" style="fill: none; stroke: #ffffff; stroke-width: 3; stroke-linejoin: miter"/>
       <path d="M 439.923368 300.533719 
L 439.923368 321.621875 
M 470.566408 300.533719 
L 470.566408 321.621875 
" clip-path="url(#pa8be91393e)" style="fill: none; stroke: #d62728; stroke-linejoin: miter"/>
       <g id="PolyCollection_4">
        <path d="M 470.566408 300.533719 
L 439.923368 300.533719 
L 439.923368 321.621875 
L 470.566408 321.621875 
L 470.566408 321.621875 
L 470.566408 300.533719 
z
" clip-path="url(#pa8be91393e)" style="fill: #d62728; fill-opacity: 0.5"/>
       </g>
       <g id="matplotlib.axis_1">
        <g id="xtick_1">
         <g id="line2d_1"/>
         <g id="text_1">
          <!-- OUT -->
          <g transform="translate(147.409984 332.720312) scale(0.1 -0.1)">
           <defs>
            <path id="DejaVuSans-4f" d="M 2522 4238 
Q 1834 4238 1429 3725 
Q 1025 3213 1025 2328 
Q 1025 1447 1429 934 
Q 1834 422 2522 422 
Q 3209 422 3611 934 
Q 4013 1447 4013 2328 
Q 4013 3213 3611 3725 
Q 3209 4238 2522 4238 
z
M 2522 4750 
Q 3503 4750 4090 4092 
Q 4678 3434 4678 2328 
Q 4678 1225 4090 567 
Q 3503 -91 2522 -91 
Q 1538 -91 948 565 
Q 359 1222 359 2328 
Q 359 3434 948 4092 
Q 1538 4750 2522 4750 
z
" transform="scale(0.015625)"/>
            <path id="DejaVuSans-55" d="M 556 4666 
L 1191 4666 
L 1191 1831 
Q 1191 1081 1462 751 
Q 1734 422 2344 422 
Q 2950 422 3222 751 
Q 3494 1081 3494 1831 
L 3494 4666 
L 4128 4666 
L 4128 1753 
Q 4128 841 3676 375 
Q 3225 -91 2344 -91 
Q 1459 -91 1007 375 
Q 556 841 556 1753 
L 556 4666 
z
" transform="scale(0.015625)"/>
            <path id="DejaVuSans-54" d="M -19 4666 
L 3928 4666 
L 3928 4134 
L 2272 4134 
L 2272 0 
L 1638 0 
L 1638 4134 
L -19 4134 
L -19 4666 
z
" transform="scale(0.015625)"/>
           </defs>
           <use xlink:href="#DejaVuSans-4f"/>
           <use xlink:href="#DejaVuSans-55" x="78.710938"/>
           <use xlink:href="#DejaVuSans-54" x="151.904297"/>
          </g>
         </g>
        </g>
        <g id="xtick_2">
         <g id="line2d_2"/>
         <g id="text_2">
          <!-- SRC -->
          <g transform="translate(564.229318 332.720312) scale(0.1 -0.1)">
           <defs>
            <path id="DejaVuSans-53" d="M 3425 4513 
L 3425 3897 
Q 3066 4069 2747 4153 
Q 2428 4238 2131 4238 
Q 1616 4238 1336 4038 
Q 1056 3838 1056 3469 
Q 1056 3159 1242 3001 
Q 1428 2844 1947 2747 
L 2328 2669 
Q 3034 2534 3370 2195 
Q 3706 1856 3706 1288 
Q 3706 609 3251 259 
Q 2797 -91 1919 -91 
Q 1588 -91 1214 -16 
Q 841 59 441 206 
L 441 856 
Q 825 641 1194 531 
Q 1563 422 1919 422 
Q 2459 422 2753 634 
Q 3047 847 3047 1241 
Q 3047 1584 2836 1778 
Q 2625 1972 2144 2069 
L 1759 2144 
Q 1053 2284 737 2584 
Q 422 2884 422 3419 
Q 422 4038 858 4394 
Q 1294 4750 2059 4750 
Q 2388 4750 2728 4690 
Q 3069 4631 3425 4513 
z
" transform="scale(0.015625)"/>
            <path id="DejaVuSans-52" d="M 2841 2188 
Q 3044 2119 3236 1894 
Q 3428 1669 3622 1275 
L 4263 0 
L 3584 0 
L 2988 1197 
Q 2756 1666 2539 1819 
Q 2322 1972 1947 1972 
L 1259 1972 
L 1259 0 
L 628 0 
L 628 4666 
L 2053 4666 
Q 2853 4666 3247 4331 
Q 3641 3997 3641 3322 
Q 3641 2881 3436 2590 
Q 3231 2300 2841 2188 
z
M 1259 4147 
L 1259 2491 
L 2053 2491 
Q 2509 2491 2742 2702 
Q 2975 2913 2975 3322 
Q 2975 3731 2742 3939 
Q 2509 4147 2053 4147 
L 1259 4147 
z
" transform="scale(0.015625)"/>
            <path id="DejaVuSans-43" d="M 4122 4306 
L 4122 3641 
Q 3803 3938 3442 4084 
Q 3081 4231 2675 4231 
Q 1875 4231 1450 3742 
Q 1025 3253 1025 2328 
Q 1025 1406 1450 917 
Q 1875 428 2675 428 
Q 3081 428 3442 575 
Q 3803 722 4122 1019 
L 4122 359 
Q 3791 134 3420 21 
Q 3050 -91 2638 -91 
Q 1578 -91 968 557 
Q 359 1206 359 2328 
Q 359 3453 968 4101 
Q 1578 4750 2638 4750 
Q 3056 4750 3426 4639 
Q 3797 4528 4122 4306 
z
" transform="scale(0.015625)"/>
           </defs>
           <use xlink:href="#DejaVuSans-53"/>
           <use xlink:href="#DejaVuSans-52" x="63.476562"/>
           <use xlink:href="#DejaVuSans-43" x="127.958984"/>
          </g>
         </g>
        </g>
        <g id="xtick_3">
         <g id="line2d_3"/>
         <g id="text_3">
          <!-- TAR -->
          <g transform="translate(445.683951 332.720312) scale(0.1 -0.1)">
           <defs>
            <path id="DejaVuSans-41" d="M 2188 4044 
L 1331 1722 
L 3047 1722 
L 2188 4044 
z
M 1831 4666 
L 2547 4666 
L 4325 0 
L 3669 0 
L 3244 1197 
L 1141 1197 
L 716 0 
L 50 0 
L 1831 4666 
z
" transform="scale(0.015625)"/>
           </defs>
           <use xlink:href="#DejaVuSans-54"/>
           <use xlink:href="#DejaVuSans-41" x="53.333984"/>
           <use xlink:href="#DejaVuSans-52" x="121.742188"/>
          </g>
         </g>
        </g>
       </g>
       <g id="matplotlib.axis_2">
        <g id="ytick_1">
         <g id="line2d_4">
          <defs>
           <path id="m1ae5ad9ee4" d="M 0 0 
L -3.5 0 
" style="stroke: #000000; stroke-width: 0.8"/>
          </defs>
          <g>
           <use xlink:href="#m1ae5ad9ee4" x="63.290625" y="321.621875" style="stroke: #000000; stroke-width: 0.8"/>
          </g>
         </g>
         <g id="text_4">
          <!-- 0 -->
          <g transform="translate(49.928125 325.421094) scale(0.1 -0.1)">
           <defs>
            <path id="DejaVuSans-30" d="M 2034 4250 
Q 1547 4250 1301 3770 
Q 1056 3291 1056 2328 
Q 1056 1369 1301 889 
Q 1547 409 2034 409 
Q 2525 409 2770 889 
Q 3016 1369 3016 2328 
Q 3016 3291 2770 3770 
Q 2525 4250 2034 4250 
z
M 2034 4750 
Q 2819 4750 3233 4129 
Q 3647 3509 3647 2328 
Q 3647 1150 3233 529 
Q 2819 -91 2034 -91 
Q 1250 -91 836 529 
Q 422 1150 422 2328 
Q 422 3509 836 4129 
Q 1250 4750 2034 4750 
z
" transform="scale(0.015625)"/>
           </defs>
           <use xlink:href="#DejaVuSans-30"/>
          </g>
         </g>
        </g>
        <g id="ytick_2">
         <g id="line2d_5">
          <g>
           <use xlink:href="#m1ae5ad9ee4" x="63.290625" y="269.111527" style="stroke: #000000; stroke-width: 0.8"/>
          </g>
         </g>
         <g id="text_5">
          <!-- 5000 -->
          <g transform="translate(30.840625 272.910746) scale(0.1 -0.1)">
           <defs>
            <path id="DejaVuSans-35" d="M 691 4666 
L 3169 4666 
L 3169 4134 
L 1269 4134 
L 1269 2991 
Q 1406 3038 1543 3061 
Q 1681 3084 1819 3084 
Q 2600 3084 3056 2656 
Q 3513 2228 3513 1497 
Q 3513 744 3044 326 
Q 2575 -91 1722 -91 
Q 1428 -91 1123 -41 
Q 819 9 494 109 
L 494 744 
Q 775 591 1075 516 
Q 1375 441 1709 441 
Q 2250 441 2565 725 
Q 2881 1009 2881 1497 
Q 2881 1984 2565 2268 
Q 2250 2553 1709 2553 
Q 1456 2553 1204 2497 
Q 953 2441 691 2322 
L 691 4666 
z
" transform="scale(0.015625)"/>
           </defs>
           <use xlink:href="#DejaVuSans-35"/>
           <use xlink:href="#DejaVuSans-30" x="63.623047"/>
           <use xlink:href="#DejaVuSans-30" x="127.246094"/>
           <use xlink:href="#DejaVuSans-30" x="190.869141"/>
          </g>
         </g>
        </g>
        <g id="ytick_3">
         <g id="line2d_6">
          <g>
           <use xlink:href="#m1ae5ad9ee4" x="63.290625" y="216.60118" style="stroke: #000000; stroke-width: 0.8"/>
          </g>
         </g>
         <g id="text_6">
          <!-- 10000 -->
          <g transform="translate(24.478125 220.400399) scale(0.1 -0.1)">
           <defs>
            <path id="DejaVuSans-31" d="M 794 531 
L 1825 531 
L 1825 4091 
L 703 3866 
L 703 4441 
L 1819 4666 
L 2450 4666 
L 2450 531 
L 3481 531 
L 3481 0 
L 794 0 
L 794 531 
z
" transform="scale(0.015625)"/>
           </defs>
           <use xlink:href="#DejaVuSans-31"/>
           <use xlink:href="#DejaVuSans-30" x="63.623047"/>
           <use xlink:href="#DejaVuSans-30" x="127.246094"/>
           <use xlink:href="#DejaVuSans-30" x="190.869141"/>
           <use xlink:href="#DejaVuSans-30" x="254.492188"/>
          </g>
         </g>
        </g>
        <g id="ytick_4">
         <g id="line2d_7">
          <g>
           <use xlink:href="#m1ae5ad9ee4" x="63.290625" y="164.090832" style="stroke: #000000; stroke-width: 0.8"/>
          </g>
         </g>
         <g id="text_7">
          <!-- 15000 -->
          <g transform="translate(24.478125 167.890051) scale(0.1 -0.1)">
           <use xlink:href="#DejaVuSans-31"/>
           <use xlink:href="#DejaVuSans-35" x="63.623047"/>
           <use xlink:href="#DejaVuSans-30" x="127.246094"/>
           <use xlink:href="#DejaVuSans-30" x="190.869141"/>
           <use xlink:href="#DejaVuSans-30" x="254.492188"/>
          </g>
         </g>
        </g>
        <g id="ytick_5">
         <g id="line2d_8">
          <g>
           <use xlink:href="#m1ae5ad9ee4" x="63.290625" y="111.580485" style="stroke: #000000; stroke-width: 0.8"/>
          </g>
         </g>
         <g id="text_8">
          <!-- 20000 -->
          <g transform="translate(24.478125 115.379703) scale(0.1 -0.1)">
           <defs>
            <path id="DejaVuSans-32" d="M 1228 531 
L 3431 531 
L 3431 0 
L 469 0 
L 469 531 
Q 828 903 1448 1529 
Q 2069 2156 2228 2338 
Q 2531 2678 2651 2914 
Q 2772 3150 2772 3378 
Q 2772 3750 2511 3984 
Q 2250 4219 1831 4219 
Q 1534 4219 1204 4116 
Q 875 4013 500 3803 
L 500 4441 
Q 881 4594 1212 4672 
Q 1544 4750 1819 4750 
Q 2544 4750 2975 4387 
Q 3406 4025 3406 3419 
Q 3406 3131 3298 2873 
Q 3191 2616 2906 2266 
Q 2828 2175 2409 1742 
Q 1991 1309 1228 531 
z
" transform="scale(0.015625)"/>
           </defs>
           <use xlink:href="#DejaVuSans-32"/>
           <use xlink:href="#DejaVuSans-30" x="63.623047"/>
           <use xlink:href="#DejaVuSans-30" x="127.246094"/>
           <use xlink:href="#DejaVuSans-30" x="190.869141"/>
           <use xlink:href="#DejaVuSans-30" x="254.492188"/>
          </g>
         </g>
        </g>
        <g id="ytick_6">
         <g id="line2d_9">
          <g>
           <use xlink:href="#m1ae5ad9ee4" x="63.290625" y="59.070137" style="stroke: #000000; stroke-width: 0.8"/>
          </g>
         </g>
         <g id="text_9">
          <!-- 25000 -->
          <g transform="translate(24.478125 62.869356) scale(0.1 -0.1)">
           <use xlink:href="#DejaVuSans-32"/>
           <use xlink:href="#DejaVuSans-35" x="63.623047"/>
           <use xlink:href="#DejaVuSans-30" x="127.246094"/>
           <use xlink:href="#DejaVuSans-30" x="190.869141"/>
           <use xlink:href="#DejaVuSans-30" x="254.492188"/>
          </g>
         </g>
        </g>
        <g id="text_10">
         <!-- time ago (generations) -->
         <g transform="translate(18.398438 223.682031) rotate(-90) scale(0.1 -0.1)">
          <defs>
           <path id="DejaVuSans-74" d="M 1172 4494 
L 1172 3500 
L 2356 3500 
L 2356 3053 
L 1172 3053 
L 1172 1153 
Q 1172 725 1289 603 
Q 1406 481 1766 481 
L 2356 481 
L 2356 0 
L 1766 0 
Q 1100 0 847 248 
Q 594 497 594 1153 
L 594 3053 
L 172 3053 
L 172 3500 
L 594 3500 
L 594 4494 
L 1172 4494 
z
" transform="scale(0.015625)"/>
           <path id="DejaVuSans-69" d="M 603 3500 
L 1178 3500 
L 1178 0 
L 603 0 
L 603 3500 
z
M 603 4863 
L 1178 4863 
L 1178 4134 
L 603 4134 
L 603 4863 
z
" transform="scale(0.015625)"/>
           <path id="DejaVuSans-6d" d="M 3328 2828 
Q 3544 3216 3844 3400 
Q 4144 3584 4550 3584 
Q 5097 3584 5394 3201 
Q 5691 2819 5691 2113 
L 5691 0 
L 5113 0 
L 5113 2094 
Q 5113 2597 4934 2840 
Q 4756 3084 4391 3084 
Q 3944 3084 3684 2787 
Q 3425 2491 3425 1978 
L 3425 0 
L 2847 0 
L 2847 2094 
Q 2847 2600 2669 2842 
Q 2491 3084 2119 3084 
Q 1678 3084 1418 2786 
Q 1159 2488 1159 1978 
L 1159 0 
L 581 0 
L 581 3500 
L 1159 3500 
L 1159 2956 
Q 1356 3278 1631 3431 
Q 1906 3584 2284 3584 
Q 2666 3584 2933 3390 
Q 3200 3197 3328 2828 
z
" transform="scale(0.015625)"/>
           <path id="DejaVuSans-65" d="M 3597 1894 
L 3597 1613 
L 953 1613 
Q 991 1019 1311 708 
Q 1631 397 2203 397 
Q 2534 397 2845 478 
Q 3156 559 3463 722 
L 3463 178 
Q 3153 47 2828 -22 
Q 2503 -91 2169 -91 
Q 1331 -91 842 396 
Q 353 884 353 1716 
Q 353 2575 817 3079 
Q 1281 3584 2069 3584 
Q 2775 3584 3186 3129 
Q 3597 2675 3597 1894 
z
M 3022 2063 
Q 3016 2534 2758 2815 
Q 2500 3097 2075 3097 
Q 1594 3097 1305 2825 
Q 1016 2553 972 2059 
L 3022 2063 
z
" transform="scale(0.015625)"/>
           <path id="DejaVuSans-20" transform="scale(0.015625)"/>
           <path id="DejaVuSans-61" d="M 2194 1759 
Q 1497 1759 1228 1600 
Q 959 1441 959 1056 
Q 959 750 1161 570 
Q 1363 391 1709 391 
Q 2188 391 2477 730 
Q 2766 1069 2766 1631 
L 2766 1759 
L 2194 1759 
z
M 3341 1997 
L 3341 0 
L 2766 0 
L 2766 531 
Q 2569 213 2275 61 
Q 1981 -91 1556 -91 
Q 1019 -91 701 211 
Q 384 513 384 1019 
Q 384 1609 779 1909 
Q 1175 2209 1959 2209 
L 2766 2209 
L 2766 2266 
Q 2766 2663 2505 2880 
Q 2244 3097 1772 3097 
Q 1472 3097 1187 3025 
Q 903 2953 641 2809 
L 641 3341 
Q 956 3463 1253 3523 
Q 1550 3584 1831 3584 
Q 2591 3584 2966 3190 
Q 3341 2797 3341 1997 
z
" transform="scale(0.015625)"/>
           <path id="DejaVuSans-67" d="M 2906 1791 
Q 2906 2416 2648 2759 
Q 2391 3103 1925 3103 
Q 1463 3103 1205 2759 
Q 947 2416 947 1791 
Q 947 1169 1205 825 
Q 1463 481 1925 481 
Q 2391 481 2648 825 
Q 2906 1169 2906 1791 
z
M 3481 434 
Q 3481 -459 3084 -895 
Q 2688 -1331 1869 -1331 
Q 1566 -1331 1297 -1286 
Q 1028 -1241 775 -1147 
L 775 -588 
Q 1028 -725 1275 -790 
Q 1522 -856 1778 -856 
Q 2344 -856 2625 -561 
Q 2906 -266 2906 331 
L 2906 616 
Q 2728 306 2450 153 
Q 2172 0 1784 0 
Q 1141 0 747 490 
Q 353 981 353 1791 
Q 353 2603 747 3093 
Q 1141 3584 1784 3584 
Q 2172 3584 2450 3431 
Q 2728 3278 2906 2969 
L 2906 3500 
L 3481 3500 
L 3481 434 
z
" transform="scale(0.015625)"/>
           <path id="DejaVuSans-6f" d="M 1959 3097 
Q 1497 3097 1228 2736 
Q 959 2375 959 1747 
Q 959 1119 1226 758 
Q 1494 397 1959 397 
Q 2419 397 2687 759 
Q 2956 1122 2956 1747 
Q 2956 2369 2687 2733 
Q 2419 3097 1959 3097 
z
M 1959 3584 
Q 2709 3584 3137 3096 
Q 3566 2609 3566 1747 
Q 3566 888 3137 398 
Q 2709 -91 1959 -91 
Q 1206 -91 779 398 
Q 353 888 353 1747 
Q 353 2609 779 3096 
Q 1206 3584 1959 3584 
z
" transform="scale(0.015625)"/>
           <path id="DejaVuSans-28" d="M 1984 4856 
Q 1566 4138 1362 3434 
Q 1159 2731 1159 2009 
Q 1159 1288 1364 580 
Q 1569 -128 1984 -844 
L 1484 -844 
Q 1016 -109 783 600 
Q 550 1309 550 2009 
Q 550 2706 781 3412 
Q 1013 4119 1484 4856 
L 1984 4856 
z
" transform="scale(0.015625)"/>
           <path id="DejaVuSans-6e" d="M 3513 2113 
L 3513 0 
L 2938 0 
L 2938 2094 
Q 2938 2591 2744 2837 
Q 2550 3084 2163 3084 
Q 1697 3084 1428 2787 
Q 1159 2491 1159 1978 
L 1159 0 
L 581 0 
L 581 3500 
L 1159 3500 
L 1159 2956 
Q 1366 3272 1645 3428 
Q 1925 3584 2291 3584 
Q 2894 3584 3203 3211 
Q 3513 2838 3513 2113 
z
" transform="scale(0.015625)"/>
           <path id="DejaVuSans-72" d="M 2631 2963 
Q 2534 3019 2420 3045 
Q 2306 3072 2169 3072 
Q 1681 3072 1420 2755 
Q 1159 2438 1159 1844 
L 1159 0 
L 581 0 
L 581 3500 
L 1159 3500 
L 1159 2956 
Q 1341 3275 1631 3429 
Q 1922 3584 2338 3584 
Q 2397 3584 2469 3576 
Q 2541 3569 2628 3553 
L 2631 2963 
z
" transform="scale(0.015625)"/>
           <path id="DejaVuSans-73" d="M 2834 3397 
L 2834 2853 
Q 2591 2978 2328 3040 
Q 2066 3103 1784 3103 
Q 1356 3103 1142 2972 
Q 928 2841 928 2578 
Q 928 2378 1081 2264 
Q 1234 2150 1697 2047 
L 1894 2003 
Q 2506 1872 2764 1633 
Q 3022 1394 3022 966 
Q 3022 478 2636 193 
Q 2250 -91 1575 -91 
Q 1294 -91 989 -36 
Q 684 19 347 128 
L 347 722 
Q 666 556 975 473 
Q 1284 391 1588 391 
Q 1994 391 2212 530 
Q 2431 669 2431 922 
Q 2431 1156 2273 1281 
Q 2116 1406 1581 1522 
L 1381 1569 
Q 847 1681 609 1914 
Q 372 2147 372 2553 
Q 372 3047 722 3315 
Q 1072 3584 1716 3584 
Q 2034 3584 2315 3537 
Q 2597 3491 2834 3397 
z
" transform="scale(0.015625)"/>
           <path id="DejaVuSans-29" d="M 513 4856 
L 1013 4856 
Q 1481 4119 1714 3412 
Q 1947 2706 1947 2009 
Q 1947 1309 1714 600 
Q 1481 -109 1013 -844 
L 513 -844 
Q 928 -128 1133 580 
Q 1338 1288 1338 2009 
Q 1338 2731 1133 3434 
Q 928 4138 513 4856 
z
" transform="scale(0.015625)"/>
          </defs>
          <use xlink:href="#DejaVuSans-74"/>
          <use xlink:href="#DejaVuSans-69" x="39.208984"/>
          <use xlink:href="#DejaVuSans-6d" x="66.992188"/>
          <use xlink:href="#DejaVuSans-65" x="164.404297"/>
          <use xlink:href="#DejaVuSans-20" x="225.927734"/>
          <use xlink:href="#DejaVuSans-61" x="257.714844"/>
          <use xlink:href="#DejaVuSans-67" x="318.994141"/>
          <use xlink:href="#DejaVuSans-6f" x="382.470703"/>
          <use xlink:href="#DejaVuSans-20" x="443.652344"/>
          <use xlink:href="#DejaVuSans-28" x="475.439453"/>
          <use xlink:href="#DejaVuSans-67" x="514.453125"/>
          <use xlink:href="#DejaVuSans-65" x="577.929688"/>
          <use xlink:href="#DejaVuSans-6e" x="639.453125"/>
          <use xlink:href="#DejaVuSans-65" x="702.832031"/>
          <use xlink:href="#DejaVuSans-72" x="764.355469"/>
          <use xlink:href="#DejaVuSans-61" x="805.46875"/>
          <use xlink:href="#DejaVuSans-74" x="866.748047"/>
          <use xlink:href="#DejaVuSans-69" x="905.957031"/>
          <use xlink:href="#DejaVuSans-6f" x="933.740234"/>
          <use xlink:href="#DejaVuSans-6e" x="994.921875"/>
          <use xlink:href="#DejaVuSans-73" x="1058.300781"/>
          <use xlink:href="#DejaVuSans-29" x="1110.400391"/>
         </g>
        </g>
       </g>
       <g id="patch_7">
        <path d="M 290.957445 300.533719 
L 289.957445 300.502283 
L 288.957445 300.465343 
L 287.957445 300.367596 
L 286.957445 300.335075 
L 285.957445 300.26145 
L 284.957445 300.222884 
L 283.957445 300.187471 
L 282.957445 300.129831 
L 281.957445 300.059445 
L 280.957445 300.007481 
L 279.957445 299.948391 
L 278.957445 299.86007 
L 277.957445 299.813926 
L 276.957445 299.771515 
L 275.957445 299.741022 
L 274.957445 299.714977 
L 273.957445 299.693777 
L 272.957445 299.639476 
L 271.957445 299.611538 
L 270.957445 299.581814 
L 269.957445 299.55642 
L 268.957445 299.545219 
L 267.957445 299.535095 
L 266.957445 299.5353 
L 265.957445 299.544809 
L 264.957445 299.556463 
L 263.957445 299.587492 
L 262.957445 299.59866 
L 261.957445 299.628778 
L 260.957445 299.688555 
L 259.957445 299.725746 
L 258.957445 299.764842 
L 257.957445 299.807282 
L 256.957445 299.840047 
L 255.957445 299.907474 
L 254.957445 299.946599 
L 253.957445 299.989274 
L 252.957445 300.059855 
L 251.957445 300.096245 
L 250.957445 300.154649 
L 249.957445 300.265601 
L 248.957445 300.33626 
L 247.957445 300.449199 
L 246.957445 300.494972 
L 245.957445 300.556255 
L 244.957445 300.604755 
L 243.957445 300.685577 
L 242.957445 300.804096 
L 241.957445 300.874307 
L 240.957445 300.95757 
L 239.957445 300.990711 
L 238.957445 301.041949 
L 237.957445 301.110347 
L 236.957445 301.176562 
L 235.957445 301.253479 
L 234.957445 301.280795 
L 233.957445 301.307272 
L 232.957445 301.329923 
L 231.387424 301.349454 
" clip-path="url(#pa8be91393e)" style="fill: none; stroke: #ffffff; stroke-width: 3; stroke-linecap: round"/>
        <path d="M 290.957445 300.533719 
L 289.957445 300.502283 
L 288.957445 300.465343 
L 287.957445 300.367596 
L 286.957445 300.335075 
L 285.957445 300.26145 
L 284.957445 300.222884 
L 283.957445 300.187471 
L 282.957445 300.129831 
L 281.957445 300.059445 
L 280.957445 300.007481 
L 279.957445 299.948391 
L 278.957445 299.86007 
L 277.957445 299.813926 
L 276.957445 299.771515 
L 275.957445 299.741022 
L 274.957445 299.714977 
L 273.957445 299.693777 
L 272.957445 299.639476 
L 271.957445 299.611538 
L 270.957445 299.581814 
L 269.957445 299.55642 
L 268.957445 299.545219 
L 267.957445 299.535095 
L 266.957445 299.5353 
L 265.957445 299.544809 
L 264.957445 299.556463 
L 263.957445 299.587492 
L 262.957445 299.59866 
L 261.957445 299.628778 
L 260.957445 299.688555 
L 259.957445 299.725746 
L 258.957445 299.764842 
L 257.957445 299.807282 
L 256.957445 299.840047 
L 255.957445 299.907474 
L 254.957445 299.946599 
L 253.957445 299.989274 
L 252.957445 300.059855 
L 251.957445 300.096245 
L 250.957445 300.154649 
L 249.957445 300.265601 
L 248.957445 300.33626 
L 247.957445 300.449199 
L 246.957445 300.494972 
L 245.957445 300.556255 
L 244.957445 300.604755 
L 243.957445 300.685577 
L 242.957445 300.804096 
L 241.957445 300.874307 
L 240.957445 300.95757 
L 239.957445 300.990711 
L 238.957445 301.041949 
L 237.957445 301.110347 
L 236.957445 301.176562 
L 235.957445 301.253479 
L 234.957445 301.280795 
L 233.957445 301.307272 
L 232.957445 301.329923 
L 231.387424 301.349454 
" clip-path="url(#pa8be91393e)" style="fill: none; stroke: #1f77b4; stroke-linecap: round"/>
        <path d="M 235.387424 302.533719 
L 234.507056 302.058388 
L 233.629149 301.578134 
L 232.778435 301.043493 
L 231.476261 300.356046 
L 232.403614 300.330031 
L 233.315288 299.917312 
L 234.225552 299.501773 
L 235.568048 298.894968 
L 234.913149 299.533719 
L 234.861185 300.533719 
L 234.802095 302.533719 
z
" clip-path="url(#pa8be91393e)" style="fill: #ffffff; stroke: #ffffff; stroke-width: 3; stroke-linecap: round"/>
        <path d="M 235.387424 302.533719 
L 234.507056 302.058388 
L 233.629149 301.578134 
L 232.778435 301.043493 
L 231.476261 300.356046 
L 232.403614 300.330031 
L 233.315288 299.917312 
L 234.225552 299.501773 
L 235.568048 298.894968 
L 234.913149 299.533719 
L 234.861185 300.533719 
L 234.802095 302.533719 
z
" clip-path="url(#pa8be91393e)" style="fill: #ffffff; stroke: #1f77b4; stroke-linecap: round"/>
        <g id="patch_8">
         <path d="M 381.779099 72.964375 
L 382.779099 72.995811 
L 383.779099 73.032752 
L 384.779099 73.130498 
L 385.779099 73.16302 
L 386.779099 73.236645 
L 387.779099 73.27521 
L 388.779099 73.310623 
L 389.779099 73.368263 
L 390.779099 73.438649 
L 391.779099 73.490614 
L 392.779099 73.549703 
L 393.779099 73.638024 
L 394.779099 73.684169 
L 395.779099 73.72658 
L 396.779099 73.757072 
L 397.779099 73.783117 
L 398.779099 73.804317 
L 399.779099 73.858618 
L 400.779099 73.886556 
L 401.779099 73.91628 
L 402.779099 73.941675 
L 403.779099 73.952875 
L 404.779099 73.962999 
L 405.779099 73.962795 
L 406.779099 73.953285 
L 407.779099 73.941631 
L 408.779099 73.910602 
L 409.779099 73.899434 
L 410.779099 73.869317 
L 411.779099 73.80954 
L 412.779099 73.772348 
L 413.779099 73.733252 
L 414.779099 73.690812 
L 415.779099 73.658047 
L 416.779099 73.590621 
L 417.779099 73.551495 
L 418.779099 73.50882 
L 419.779099 73.43824 
L 420.779099 73.401849 
L 421.779099 73.343446 
L 422.779099 73.232493 
L 423.779099 73.161835 
L 424.779099 73.048895 
L 425.779099 73.003122 
L 426.779099 72.941839 
L 427.779099 72.89334 
L 428.779099 72.812517 
L 429.779099 72.693998 
L 430.779099 72.623787 
L 431.779099 72.540525 
L 432.779099 72.507383 
L 433.779099 72.456146 
L 434.779099 72.387747 
L 435.779099 72.321532 
L 436.779099 72.244615 
L 437.779099 72.217299 
L 438.779099 72.190822 
L 439.779099 72.168171 
L 440.779099 72.14864 
L 441.779099 72.122246 
L 442.779099 72.072475 
L 443.779099 72.037402 
L 444.779099 72.001536 
L 445.779099 71.986169 
L 446.779099 71.9704 
L 447.779099 71.966987 
L 448.779099 71.96457 
L 449.779099 71.965056 
L 450.779099 71.966985 
L 451.779099 71.980242 
L 452.779099 71.988633 
L 453.779099 72.010169 
L 454.779099 72.033202 
L 455.779099 72.050435 
L 456.779099 72.068898 
L 457.779099 72.08935 
L 458.779099 72.10595 
L 459.779099 72.168729 
L 460.779099 72.243994 
L 461.779099 72.276633 
L 462.779099 72.344197 
L 463.779099 72.398244 
L 464.779099 72.431948 
L 465.779099 72.522074 
L 466.779099 72.550609 
L 467.779099 72.582095 
L 468.779099 72.613106 
L 469.779099 72.667914 
L 470.779099 72.732501 
L 471.779099 72.770697 
L 472.779099 72.866631 
L 473.779099 72.915889 
L 474.779099 72.959958 
L 475.779099 73.000082 
L 476.779099 73.108449 
L 477.779099 73.150077 
L 478.779099 73.212219 
L 479.779099 73.282181 
L 480.779099 73.386685 
L 481.779099 73.423673 
L 482.779099 73.46955 
L 483.779099 73.538045 
L 484.779099 73.586791 
L 485.779099 73.664388 
L 486.779099 73.694929 
L 487.779099 73.764443 
L 488.779099 73.788416 
L 489.779099 73.817038 
L 490.779099 73.858831 
L 491.779099 73.880407 
L 492.779099 73.894355 
L 493.779099 73.921077 
L 494.779099 73.930387 
L 495.779099 73.942834 
L 496.779099 73.953889 
L 497.779099 73.959553 
L 498.779099 73.964317 
L 499.779099 73.958769 
L 500.779099 73.945481 
L 501.779099 73.937964 
L 502.779099 73.913179 
L 503.779099 73.88961 
L 504.779099 73.85343 
L 505.779099 73.827468 
L 506.779099 73.805146 
L 507.779099 73.736386 
L 508.779099 73.661851 
L 509.779099 73.567872 
L 510.779099 73.51682 
L 511.779099 73.462886 
L 512.779099 73.427635 
L 513.779099 73.321547 
L 514.779099 73.269283 
L 515.779099 73.232376 
L 516.779099 73.201345 
L 517.779099 73.14019 
L 518.779099 73.07277 
L 519.779099 73.023864 
L 520.779099 72.958672 
L 521.779099 72.920484 
L 522.779099 72.878488 
L 523.779099 72.836471 
L 524.779099 72.776955 
L 525.779099 72.663795 
L 526.779099 72.611544 
L 527.779099 72.572126 
L 528.779099 72.525025 
L 529.779099 72.468245 
L 530.779099 72.435582 
L 531.779099 72.399404 
L 532.779099 72.367314 
L 533.779099 72.333034 
L 534.779099 72.274656 
L 535.779099 72.229471 
L 536.779099 72.199847 
L 537.779099 72.149461 
L 538.779099 72.124264 
L 539.779099 72.103213 
L 540.779099 72.068245 
L 541.779099 72.043955 
L 542.779099 72.029888 
L 543.779099 72.010946 
L 544.779099 71.995285 
L 545.779099 71.982733 
L 546.779099 71.976897 
L 547.779099 71.970015 
L 548.779099 71.964841 
L 549.779099 71.966624 
L 550.779099 71.969349 
L 551.779099 71.980503 
L 552.779099 72.008738 
L 553.779099 72.052526 
L 554.779099 72.073215 
L 555.779099 72.114188 
L 556.779099 72.154263 
L 557.779099 72.173373 
L 558.779099 72.195882 
L 559.779099 72.262533 
L 560.779099 72.312243 
L 561.779099 72.385949 
L 562.779099 72.417263 
L 563.779099 72.493885 
L 564.779099 72.532183 
L 566.080819 72.6063 
" clip-path="url(#pa8be91393e)" style="fill: none; stroke: #ffffff; stroke-width: 3; stroke-linecap: round"/>
         <path d="M 381.779099 72.964375 
L 382.779099 72.995811 
L 383.779099 73.032752 
L 384.779099 73.130498 
L 385.779099 73.16302 
L 386.779099 73.236645 
L 387.779099 73.27521 
L 388.779099 73.310623 
L 389.779099 73.368263 
L 390.779099 73.438649 
L 391.779099 73.490614 
L 392.779099 73.549703 
L 393.779099 73.638024 
L 394.779099 73.684169 
L 395.779099 73.72658 
L 396.779099 73.757072 
L 397.779099 73.783117 
L 398.779099 73.804317 
L 399.779099 73.858618 
L 400.779099 73.886556 
L 401.779099 73.91628 
L 402.779099 73.941675 
L 403.779099 73.952875 
L 404.779099 73.962999 
L 405.779099 73.962795 
L 406.779099 73.953285 
L 407.779099 73.941631 
L 408.779099 73.910602 
L 409.779099 73.899434 
L 410.779099 73.869317 
L 411.779099 73.80954 
L 412.779099 73.772348 
L 413.779099 73.733252 
L 414.779099 73.690812 
L 415.779099 73.658047 
L 416.779099 73.590621 
L 417.779099 73.551495 
L 418.779099 73.50882 
L 419.779099 73.43824 
L 420.779099 73.401849 
L 421.779099 73.343446 
L 422.779099 73.232493 
L 423.779099 73.161835 
L 424.779099 73.048895 
L 425.779099 73.003122 
L 426.779099 72.941839 
L 427.779099 72.89334 
L 428.779099 72.812517 
L 429.779099 72.693998 
L 430.779099 72.623787 
L 431.779099 72.540525 
L 432.779099 72.507383 
L 433.779099 72.456146 
L 434.779099 72.387747 
L 435.779099 72.321532 
L 436.779099 72.244615 
L 437.779099 72.217299 
L 438.779099 72.190822 
L 439.779099 72.168171 
L 440.779099 72.14864 
L 441.779099 72.122246 
L 442.779099 72.072475 
L 443.779099 72.037402 
L 444.779099 72.001536 
L 445.779099 71.986169 
L 446.779099 71.9704 
L 447.779099 71.966987 
L 448.779099 71.96457 
L 449.779099 71.965056 
L 450.779099 71.966985 
L 451.779099 71.980242 
L 452.779099 71.988633 
L 453.779099 72.010169 
L 454.779099 72.033202 
L 455.779099 72.050435 
L 456.779099 72.068898 
L 457.779099 72.08935 
L 458.779099 72.10595 
L 459.779099 72.168729 
L 460.779099 72.243994 
L 461.779099 72.276633 
L 462.779099 72.344197 
L 463.779099 72.398244 
L 464.779099 72.431948 
L 465.779099 72.522074 
L 466.779099 72.550609 
L 467.779099 72.582095 
L 468.779099 72.613106 
L 469.779099 72.667914 
L 470.779099 72.732501 
L 471.779099 72.770697 
L 472.779099 72.866631 
L 473.779099 72.915889 
L 474.779099 72.959958 
L 475.779099 73.000082 
L 476.779099 73.108449 
L 477.779099 73.150077 
L 478.779099 73.212219 
L 479.779099 73.282181 
L 480.779099 73.386685 
L 481.779099 73.423673 
L 482.779099 73.46955 
L 483.779099 73.538045 
L 484.779099 73.586791 
L 485.779099 73.664388 
L 486.779099 73.694929 
L 487.779099 73.764443 
L 488.779099 73.788416 
L 489.779099 73.817038 
L 490.779099 73.858831 
L 491.779099 73.880407 
L 492.779099 73.894355 
L 493.779099 73.921077 
L 494.779099 73.930387 
L 495.779099 73.942834 
L 496.779099 73.953889 
L 497.779099 73.959553 
L 498.779099 73.964317 
L 499.779099 73.958769 
L 500.779099 73.945481 
L 501.779099 73.937964 
L 502.779099 73.913179 
L 503.779099 73.88961 
L 504.779099 73.85343 
L 505.779099 73.827468 
L 506.779099 73.805146 
L 507.779099 73.736386 
L 508.779099 73.661851 
L 509.779099 73.567872 
L 510.779099 73.51682 
L 511.779099 73.462886 
L 512.779099 73.427635 
L 513.779099 73.321547 
L 514.779099 73.269283 
L 515.779099 73.232376 
L 516.779099 73.201345 
L 517.779099 73.14019 
L 518.779099 73.07277 
L 519.779099 73.023864 
L 520.779099 72.958672 
L 521.779099 72.920484 
L 522.779099 72.878488 
L 523.779099 72.836471 
L 524.779099 72.776955 
L 525.779099 72.663795 
L 526.779099 72.611544 
L 527.779099 72.572126 
L 528.779099 72.525025 
L 529.779099 72.468245 
L 530.779099 72.435582 
L 531.779099 72.399404 
L 532.779099 72.367314 
L 533.779099 72.333034 
L 534.779099 72.274656 
L 535.779099 72.229471 
L 536.779099 72.199847 
L 537.779099 72.149461 
L 538.779099 72.124264 
L 539.779099 72.103213 
L 540.779099 72.068245 
L 541.779099 72.043955 
L 542.779099 72.029888 
L 543.779099 72.010946 
L 544.779099 71.995285 
L 545.779099 71.982733 
L 546.779099 71.976897 
L 547.779099 71.970015 
L 548.779099 71.964841 
L 549.779099 71.966624 
L 550.779099 71.969349 
L 551.779099 71.980503 
L 552.779099 72.008738 
L 553.779099 72.052526 
L 554.779099 72.073215 
L 555.779099 72.114188 
L 556.779099 72.154263 
L 557.779099 72.173373 
L 558.779099 72.195882 
L 559.779099 72.262533 
L 560.779099 72.312243 
L 561.779099 72.385949 
L 562.779099 72.417263 
L 563.779099 72.493885 
L 564.779099 72.532183 
L 566.080819 72.6063 
" clip-path="url(#pa8be91393e)" style="fill: none; stroke: #1f77b4; stroke-linecap: round"/>
         <path d="M 562.080819 70.964375 
L 562.961187 71.439706 
L 563.839094 71.91996 
L 564.689808 72.454601 
L 565.991982 73.142048 
L 565.064629 73.168063 
L 564.152955 73.580783 
L 563.24269 73.996322 
L 561.900195 74.603126 
L 562.555093 73.964375 
L 562.607058 72.964375 
L 562.666147 70.964375 
z
" clip-path="url(#pa8be91393e)" style="fill: #ffffff; stroke: #ffffff; stroke-width: 3; stroke-linecap: round"/>
         <path d="M 562.080819 70.964375 
L 562.961187 71.439706 
L 563.839094 71.91996 
L 564.689808 72.454601 
L 565.991982 73.142048 
L 565.064629 73.168063 
L 564.152955 73.580783 
L 563.24269 73.996322 
L 561.900195 74.603126 
L 562.555093 73.964375 
L 562.607058 72.964375 
L 562.666147 70.964375 
z
" clip-path="url(#pa8be91393e)" style="fill: #ffffff; stroke: #1f77b4; stroke-linecap: round"/>
         <g id="patch_9">
          <path d="M 381.782485 300.533719 
L 382.782485 300.565156 
L 383.782485 300.602096 
L 384.782485 300.699843 
L 385.782485 300.732364 
L 386.782485 300.805989 
L 387.782485 300.844555 
L 388.782485 300.879968 
L 389.782485 300.937608 
L 390.782485 301.007994 
L 391.782485 301.059958 
L 392.782485 301.119048 
L 393.782485 301.207369 
L 394.782485 301.253513 
L 395.782485 301.295924 
L 396.782485 301.326417 
L 397.782485 301.352462 
L 398.782485 301.373662 
L 399.782485 301.427963 
L 400.782485 301.4559 
L 401.782485 301.485624 
L 402.782485 301.511019 
L 403.782485 301.52222 
L 404.782485 301.532344 
L 405.782485 301.532139 
L 406.782485 301.522629 
L 407.782485 301.510976 
L 408.782485 301.479947 
L 409.782485 301.468779 
L 410.782485 301.438661 
L 411.782485 301.378884 
L 412.782485 301.341693 
L 413.782485 301.302597 
L 414.782485 301.260157 
L 415.782485 301.227392 
L 416.782485 301.159965 
L 417.782485 301.120839 
L 418.782485 301.078165 
L 419.782485 301.007584 
L 420.782485 300.971193 
L 421.782485 300.91279 
L 422.782485 300.801838 
L 423.782485 300.731179 
L 424.782485 300.618239 
L 425.782485 300.572467 
L 426.782485 300.511183 
L 427.782485 300.462684 
L 428.782485 300.381861 
L 429.782485 300.263342 
L 430.782485 300.193132 
L 431.782485 300.109869 
L 432.782485 300.076728 
L 433.782485 300.02549 
L 434.782485 299.957092 
L 435.782485 299.890876 
L 436.807451 299.813959 
" clip-path="url(#pa8be91393e)" style="fill: none; stroke: #ffffff; stroke-width: 3; stroke-linecap: round"/>
          <path d="M 381.782485 300.533719 
L 382.782485 300.565156 
L 383.782485 300.602096 
L 384.782485 300.699843 
L 385.782485 300.732364 
L 386.782485 300.805989 
L 387.782485 300.844555 
L 388.782485 300.879968 
L 389.782485 300.937608 
L 390.782485 301.007994 
L 391.782485 301.059958 
L 392.782485 301.119048 
L 393.782485 301.207369 
L 394.782485 301.253513 
L 395.782485 301.295924 
L 396.782485 301.326417 
L 397.782485 301.352462 
L 398.782485 301.373662 
L 399.782485 301.427963 
L 400.782485 301.4559 
L 401.782485 301.485624 
L 402.782485 301.511019 
L 403.782485 301.52222 
L 404.782485 301.532344 
L 405.782485 301.532139 
L 406.782485 301.522629 
L 407.782485 301.510976 
L 408.782485 301.479947 
L 409.782485 301.468779 
L 410.782485 301.438661 
L 411.782485 301.378884 
L 412.782485 301.341693 
L 413.782485 301.302597 
L 414.782485 301.260157 
L 415.782485 301.227392 
L 416.782485 301.159965 
L 417.782485 301.120839 
L 418.782485 301.078165 
L 419.782485 301.007584 
L 420.782485 300.971193 
L 421.782485 300.91279 
L 422.782485 300.801838 
L 423.782485 300.731179 
L 424.782485 300.618239 
L 425.782485 300.572467 
L 426.782485 300.511183 
L 427.782485 300.462684 
L 428.782485 300.381861 
L 429.782485 300.263342 
L 430.782485 300.193132 
L 431.782485 300.109869 
L 432.782485 300.076728 
L 433.782485 300.02549 
L 434.782485 299.957092 
L 435.782485 299.890876 
L 436.807451 299.813959 
" clip-path="url(#pa8be91393e)" style="fill: none; stroke: #1f77b4; stroke-linecap: round"/>
          <path d="M 432.807451 298.533719 
L 433.687819 299.009051 
L 434.565726 299.489305 
L 435.41644 300.023945 
L 436.718614 300.711393 
L 435.791261 300.737408 
L 434.879587 301.150127 
L 433.969322 301.565666 
L 432.626826 302.172471 
L 433.281725 301.533719 
L 433.333689 300.533719 
L 433.392779 298.533719 
z
" clip-path="url(#pa8be91393e)" style="fill: #ffffff; stroke: #ffffff; stroke-width: 3; stroke-linecap: round"/>
          <path d="M 432.807451 298.533719 
L 433.687819 299.009051 
L 434.565726 299.489305 
L 435.41644 300.023945 
L 436.718614 300.711393 
L 435.791261 300.737408 
L 434.879587 301.150127 
L 433.969322 301.565666 
L 432.626826 302.172471 
L 433.281725 301.533719 
L 433.333689 300.533719 
L 433.392779 298.533719 
z
" clip-path="url(#pa8be91393e)" style="fill: #ffffff; stroke: #1f77b4; stroke-linecap: round"/>
          <path d="M 475.969502 308.515292 
" clip-path="url(#pa8be91393e)" style="fill: none; stroke-dasharray: 3.7,1.6; stroke-dashoffset: 0; stroke: #2ca02c"/>
          <path d="M 474.969502 308.515292 
L 476.969502 309.515292 
L 476.969502 307.515292 
z
" clip-path="url(#pa8be91393e)" style="fill: #2ca02c; stroke: #2ca02c; stroke-linejoin: miter"/>
          <g id="patch_10">
           <path d="M 63.290625 321.621875 
L 63.290625 10.8 
" style="fill: none; stroke: #000000; stroke-width: 0.8; stroke-linejoin: miter; stroke-linecap: square"/>
          </g>
          <g id="text_11">
           <g id="patch_11">
            <path d="M 325.71827 162.505922 
L 347.022958 162.505922 
Q 349.022958 162.505922 349.022958 160.505922 
L 349.022958 150.827797 
Q 349.022958 148.827797 347.022958 148.827797 
L 325.71827 148.827797 
Q 323.71827 148.827797 323.71827 150.827797 
L 323.71827 160.505922 
Q 323.71827 162.505922 325.71827 162.505922 
z
" style="fill: #ffffff; opacity: 0.6"/>
           </g>
           <!-- ANC -->
           <g transform="translate(325.71827 158.426235) scale(0.1 -0.1)">
            <defs>
             <path id="DejaVuSans-4e" d="M 628 4666 
L 1478 4666 
L 3547 763 
L 3547 4666 
L 4159 4666 
L 4159 0 
L 3309 0 
L 1241 3903 
L 1241 0 
L 628 0 
L 628 4666 
z
" transform="scale(0.015625)"/>
            </defs>
            <use xlink:href="#DejaVuSans-41"/>
            <use xlink:href="#DejaVuSans-4e" x="68.408203"/>
            <use xlink:href="#DejaVuSans-43" x="143.212891"/>
           </g>
          </g>
         </g>
        </g>
        <defs>
         <clipPath id="pa8be91393e">
          <rect x="63.290625" y="10.8" width="540.309375" height="310.821875"/>
         </clipPath>
        </defs>
       </g>
      </g>
     </g>
    </g>
   </g>
  </g>
 </g>
</svg>
