<?xml version="1.0" encoding="utf-8" standalone="no"?>
<!DOCTYPE svg PUBLIC "-//W3C//DTD SVG 1.1//EN"
  "http://www.w3.org/Graphics/SVG/1.1/DTD/svg11.dtd">
<svg xmlns:xlink="http://www.w3.org/1999/xlink" width="614.4pt" height="345.6pt" viewBox="0 0 614.4 345.6" xmlns="http://www.w3.org/2000/svg" version="1.1">
 <metadata>
  <rdf:RDF xmlns:dc="http://purl.org/dc/elements/1.1/" xmlns:cc="http://creativecommons.org/ns#" xmlns:rdf="http://www.w3.org/1999/02/22-rdf-syntax-ns#">
   <cc:Work>
    <dc:type rdf:resource="http://purl.org/dc/dcmitype/StillImage"/>
    <dc:date>2024-04-17T19:48:44.157370</dc:date>
    <dc:format>image/svg+xml</dc:format>
    <dc:creator>
     <cc:Agent>
      <dc:title>Matplotlib v3.7.1, https://matplotlib.org/</dc:title>
     </cc:Agent>
    </dc:creator>
   </cc:Work>
  </rdf:RDF>
 </metadata>
 <defs>
  <style type="text/css">*{stroke-linejoin: round; stroke-linecap: butt}</style>
 </defs>
 <g id="figure_1">
  <g id="patch_1">
   <path d="M 0 345.6 
L 614.4 345.6 
L 614.4 0 
L 0 0 
z
" style="fill: #ffffff"/>
  </g>
  <g id="axes_1">
   <g id="patch_2">
    <path d="M 63.290625 321.621875 
L 603.6 321.621875 
L 603.6 10.8 
L 63.290625 10.8 
z
" style="fill: #ffffff"/>
   </g>
   <path d="M 546.713055 303.459854 
L 545.713055 303.428418 
L 544.713055 303.391477 
L 543.713055 303.293731 
L 542.713055 303.261209 
L 541.713055 303.187584 
L 540.713055 303.149019 
L 539.713055 303.113606 
L 538.713055 303.055966 
L 537.713055 302.98558 
L 536.713055 302.933615 
L 535.713055 302.874526 
L 534.713055 302.786205 
L 533.713055 302.74006 
L 532.713055 302.697649 
L 531.713055 302.667157 
L 530.713055 302.641112 
L 529.713055 302.619912 
L 528.713055 302.565611 
L 527.713055 302.537673 
L 526.713055 302.507949 
L 525.713055 302.482554 
L 524.713055 302.471354 
L 523.713055 302.46123 
L 522.713055 302.461434 
L 521.713055 302.470944 
L 520.713055 302.482598 
L 519.713055 302.513627 
L 518.713055 302.524795 
L 517.713055 302.554912 
L 516.713055 302.614689 
L 515.713055 302.651881 
L 514.713055 302.690977 
L 513.713055 302.733417 
L 512.713055 302.766182 
L 511.713055 302.833608 
L 510.713055 302.872734 
L 509.713055 302.915409 
L 508.713055 302.985989 
L 507.713055 303.02238 
L 506.713055 303.080783 
L 505.713055 303.191736 
L 504.713055 303.262394 
L 503.713055 303.375334 
L 502.713055 303.421107 
L 501.713055 303.48239 
L 500.713055 303.530889 
L 499.713055 303.611712 
L 498.713055 303.730231 
L 497.713055 303.800442 
L 496.713055 303.883704 
L 495.713055 303.916846 
L 494.713055 303.968083 
L 493.713055 304.036482 
L 492.713055 304.102697 
L 491.713055 304.179614 
L 490.713055 304.20693 
L 489.713055 304.233407 
L 488.713055 304.256058 
L 487.713055 304.275589 
L 486.713055 304.301983 
L 485.713055 304.351754 
L 484.713055 304.386827 
L 483.713055 304.422693 
L 482.330342 304.43806 
" clip-path="url(#pc84c3ad9b5)" style="fill: none; stroke-dasharray: 3.7,1.6; stroke-dashoffset: 0; stroke: #2ca02c"/>
   <g id="patch_3">
    <path d="M 269.353046 10.8 
L 269.353046 193.976328 
M 394.658137 10.8 
L 394.658137 193.976328 
" clip-path="url(#pc84c3ad9b5)" style="fill: none; stroke: #ffffff; stroke-width: 3; stroke-linejoin: miter"/>
    <path d="M 269.353046 10.8 
L 269.353046 193.976328 
M 394.658137 10.8 
L 394.658137 193.976328 
" clip-path="url(#pc84c3ad9b5)" style="fill: none; stroke: #1f77b4; stroke-linejoin: miter"/>
    <g id="PolyCollection_1">
     <path d="M 394.658137 10.8 
L 269.353046 10.8 
L 269.353046 193.976328 
L 394.658137 193.976328 
L 394.658137 193.976328 
L 394.658137 10.8 
z
" clip-path="url(#pc84c3ad9b5)" style="fill: #1f77b4; fill-opacity: 0.5"/>
    </g>
    <g id="patch_4">
     <path d="M 87.850142 193.976328 
L 87.850142 321.621875 
M 225.801955 193.976328 
L 225.801955 321.621875 
" clip-path="url(#pc84c3ad9b5)" style="fill: none; stroke: #ffffff; stroke-width: 3; stroke-linejoin: miter"/>
     <path d="M 87.850142 193.976328 
L 87.850142 321.621875 
M 225.801955 193.976328 
L 225.801955 321.621875 
" clip-path="url(#pc84c3ad9b5)" style="fill: none; stroke: #ff7f0e; stroke-linejoin: miter"/>
     <g id="PolyCollection_2">
      <path d="M 225.801955 193.976328 
L 87.850142 193.976328 
L 87.850142 321.621875 
L 225.801955 321.621875 
L 225.801955 321.621875 
L 225.801955 193.976328 
z
" clip-path="url(#pc84c3ad9b5)" style="fill: #ff7f0e; fill-opacity: 0.5"/>
     </g>
     <g id="patch_5">
      <path d="M 552.116148 72.964375 
L 552.116148 321.621875 
M 579.040483 72.964375 
L 579.040483 321.621875 
" clip-path="url(#pc84c3ad9b5)" style="fill: none; stroke: #ffffff; stroke-width: 3; stroke-linejoin: miter"/>
      <path d="M 552.116148 72.964375 
L 552.116148 321.621875 
M 579.040483 72.964375 
L 579.040483 321.621875 
" clip-path="url(#pc84c3ad9b5)" style="fill: none; stroke: #2ca02c; stroke-linejoin: miter"/>
      <g id="PolyCollection_3">
       <path d="M 579.040483 72.964375 
L 552.116148 72.964375 
L 552.116148 321.621875 
L 579.040483 321.621875 
L 579.040483 321.621875 
L 579.040483 72.964375 
z
" clip-path="url(#pc84c3ad9b5)" style="fill: #2ca02c; fill-opacity: 0.5"/>
      </g>
      <g id="patch_6">
       <path d="M 420.656659 266.244514 
L 420.656659 321.621875 
M 476.927249 266.244514 
L 476.927249 321.621875 
" clip-path="url(#pc84c3ad9b5)" style="fill: none; stroke: #ffffff; stroke-width: 3; stroke-linejoin: miter"/>
       <path d="M 420.656659 266.244514 
L 420.656659 321.621875 
M 476.927249 266.244514 
L 476.927249 321.621875 
" clip-path="url(#pc84c3ad9b5)" style="fill: none; stroke: #d62728; stroke-linejoin: miter"/>
       <g id="PolyCollection_4">
        <path d="M 476.927249 266.244514 
L 420.656659 266.244514 
L 420.656659 321.621875 
L 476.927249 321.621875 
L 476.927249 321.621875 
L 476.927249 266.244514 
z
" clip-path="url(#pc84c3ad9b5)" style="fill: #d62728; fill-opacity: 0.5"/>
       </g>
       <g id="matplotlib.axis_1">
        <g id="xtick_1">
         <g id="line2d_1"/>
         <g id="text_1">
          <!-- OUT -->
          <g transform="translate(146.17683 332.720312) scale(0.1 -0.1)">
           <defs>
            <path id="DejaVuSans-4f" d="M 2522 4238 
Q 1834 4238 1429 3725 
Q 1025 3213 1025 2328 
Q 1025 1447 1429 934 
Q 1834 422 2522 422 
Q 3209 422 3611 934 
Q 4013 1447 4013 2328 
Q 4013 3213 3611 3725 
Q 3209 4238 2522 4238 
z
M 2522 4750 
Q 3503 4750 4090 4092 
Q 4678 3434 4678 2328 
Q 4678 1225 4090 567 
Q 3503 -91 2522 -91 
Q 1538 -91 948 565 
Q 359 1222 359 2328 
Q 359 3434 948 4092 
Q 1538 4750 2522 4750 
z
" transform="scale(0.015625)"/>
            <path id="DejaVuSans-55" d="M 556 4666 
L 1191 4666 
L 1191 1831 
Q 1191 1081 1462 751 
Q 1734 422 2344 422 
Q 2950 422 3222 751 
Q 3494 1081 3494 1831 
L 3494 4666 
L 4128 4666 
L 4128 1753 
Q 4128 841 3676 375 
Q 3225 -91 2344 -91 
Q 1459 -91 1007 375 
Q 556 841 556 1753 
L 556 4666 
z
" transform="scale(0.015625)"/>
            <path id="DejaVuSans-54" d="M -19 4666 
L 3928 4666 
L 3928 4134 
L 2272 4134 
L 2272 0 
L 1638 0 
L 1638 4134 
L -19 4134 
L -19 4666 
z
" transform="scale(0.015625)"/>
           </defs>
           <use xlink:href="#DejaVuSans-4f"/>
           <use xlink:href="#DejaVuSans-55" x="78.710938"/>
           <use xlink:href="#DejaVuSans-54" x="151.904297"/>
          </g>
         </g>
        </g>
        <g id="xtick_2">
         <g id="line2d_2"/>
         <g id="text_2">
          <!-- SRC -->
          <g transform="translate(555.688472 332.720312) scale(0.1 -0.1)">
           <defs>
            <path id="DejaVuSans-53" d="M 3425 4513 
L 3425 3897 
Q 3066 4069 2747 4153 
Q 2428 4238 2131 4238 
Q 1616 4238 1336 4038 
Q 1056 3838 1056 3469 
Q 1056 3159 1242 3001 
Q 1428 2844 1947 2747 
L 2328 2669 
Q 3034 2534 3370 2195 
Q 3706 1856 3706 1288 
Q 3706 609 3251 259 
Q 2797 -91 1919 -91 
Q 1588 -91 1214 -16 
Q 841 59 441 206 
L 441 856 
Q 825 641 1194 531 
Q 1563 422 1919 422 
Q 2459 422 2753 634 
Q 3047 847 3047 1241 
Q 3047 1584 2836 1778 
Q 2625 1972 2144 2069 
L 1759 2144 
Q 1053 2284 737 2584 
Q 422 2884 422 3419 
Q 422 4038 858 4394 
Q 1294 4750 2059 4750 
Q 2388 4750 2728 4690 
Q 3069 4631 3425 4513 
z
" transform="scale(0.015625)"/>
            <path id="DejaVuSans-52" d="M 2841 2188 
Q 3044 2119 3236 1894 
Q 3428 1669 3622 1275 
L 4263 0 
L 3584 0 
L 2988 1197 
Q 2756 1666 2539 1819 
Q 2322 1972 1947 1972 
L 1259 1972 
L 1259 0 
L 628 0 
L 628 4666 
L 2053 4666 
Q 2853 4666 3247 4331 
Q 3641 3997 3641 3322 
Q 3641 2881 3436 2590 
Q 3231 2300 2841 2188 
z
M 1259 4147 
L 1259 2491 
L 2053 2491 
Q 2509 2491 2742 2702 
Q 2975 2913 2975 3322 
Q 2975 3731 2742 3939 
Q 2509 4147 2053 4147 
L 1259 4147 
z
" transform="scale(0.015625)"/>
            <path id="DejaVuSans-43" d="M 4122 4306 
L 4122 3641 
Q 3803 3938 3442 4084 
Q 3081 4231 2675 4231 
Q 1875 4231 1450 3742 
Q 1025 3253 1025 2328 
Q 1025 1406 1450 917 
Q 1875 428 2675 428 
Q 3081 428 3442 575 
Q 3803 722 4122 1019 
L 4122 359 
Q 3791 134 3420 21 
Q 3050 -91 2638 -91 
Q 1578 -91 968 557 
Q 359 1206 359 2328 
Q 359 3453 968 4101 
Q 1578 4750 2638 4750 
Q 3056 4750 3426 4639 
Q 3797 4528 4122 4306 
z
" transform="scale(0.015625)"/>
           </defs>
           <use xlink:href="#DejaVuSans-53"/>
           <use xlink:href="#DejaVuSans-52" x="63.476562"/>
           <use xlink:href="#DejaVuSans-43" x="127.958984"/>
          </g>
         </g>
        </g>
        <g id="xtick_3">
         <g id="line2d_3"/>
         <g id="text_3">
          <!-- TAR -->
          <g transform="translate(439.231016 332.720312) scale(0.1 -0.1)">
           <defs>
            <path id="DejaVuSans-41" d="M 2188 4044 
L 1331 1722 
L 3047 1722 
L 2188 4044 
z
M 1831 4666 
L 2547 4666 
L 4325 0 
L 3669 0 
L 3244 1197 
L 1141 1197 
L 716 0 
L 50 0 
L 1831 4666 
z
" transform="scale(0.015625)"/>
           </defs>
           <use xlink:href="#DejaVuSans-54"/>
           <use xlink:href="#DejaVuSans-41" x="53.333984"/>
           <use xlink:href="#DejaVuSans-52" x="121.742188"/>
          </g>
         </g>
        </g>
       </g>
       <g id="matplotlib.axis_2">
        <g id="ytick_1">
         <g id="line2d_4">
          <defs>
           <path id="m2b890200d7" d="M 0 0 
L -3.5 0 
" style="stroke: #000000; stroke-width: 0.8"/>
          </defs>
          <g>
           <use xlink:href="#m2b890200d7" x="63.290625" y="321.621875" style="stroke: #000000; stroke-width: 0.8"/>
          </g>
         </g>
         <g id="text_4">
          <!-- 0 -->
          <g transform="translate(49.928125 325.421094) scale(0.1 -0.1)">
           <defs>
            <path id="DejaVuSans-30" d="M 2034 4250 
Q 1547 4250 1301 3770 
Q 1056 3291 1056 2328 
Q 1056 1369 1301 889 
Q 1547 409 2034 409 
Q 2525 409 2770 889 
Q 3016 1369 3016 2328 
Q 3016 3291 2770 3770 
Q 2525 4250 2034 4250 
z
M 2034 4750 
Q 2819 4750 3233 4129 
Q 3647 3509 3647 2328 
Q 3647 1150 3233 529 
Q 2819 -91 2034 -91 
Q 1250 -91 836 529 
Q 422 1150 422 2328 
Q 422 3509 836 4129 
Q 1250 4750 2034 4750 
z
" transform="scale(0.015625)"/>
           </defs>
           <use xlink:href="#DejaVuSans-30"/>
          </g>
         </g>
        </g>
        <g id="ytick_2">
         <g id="line2d_5">
          <g>
           <use xlink:href="#m2b890200d7" x="63.290625" y="285.093273" style="stroke: #000000; stroke-width: 0.8"/>
          </g>
         </g>
         <g id="text_5">
          <!-- 2500 -->
          <g transform="translate(30.840625 288.892492) scale(0.1 -0.1)">
           <defs>
            <path id="DejaVuSans-32" d="M 1228 531 
L 3431 531 
L 3431 0 
L 469 0 
L 469 531 
Q 828 903 1448 1529 
Q 2069 2156 2228 2338 
Q 2531 2678 2651 2914 
Q 2772 3150 2772 3378 
Q 2772 3750 2511 3984 
Q 2250 4219 1831 4219 
Q 1534 4219 1204 4116 
Q 875 4013 500 3803 
L 500 4441 
Q 881 4594 1212 4672 
Q 1544 4750 1819 4750 
Q 2544 4750 2975 4387 
Q 3406 4025 3406 3419 
Q 3406 3131 3298 2873 
Q 3191 2616 2906 2266 
Q 2828 2175 2409 1742 
Q 1991 1309 1228 531 
z
" transform="scale(0.015625)"/>
            <path id="DejaVuSans-35" d="M 691 4666 
L 3169 4666 
L 3169 4134 
L 1269 4134 
L 1269 2991 
Q 1406 3038 1543 3061 
Q 1681 3084 1819 3084 
Q 2600 3084 3056 2656 
Q 3513 2228 3513 1497 
Q 3513 744 3044 326 
Q 2575 -91 1722 -91 
Q 1428 -91 1123 -41 
Q 819 9 494 109 
L 494 744 
Q 775 591 1075 516 
Q 1375 441 1709 441 
Q 2250 441 2565 725 
Q 2881 1009 2881 1497 
Q 2881 1984 2565 2268 
Q 2250 2553 1709 2553 
Q 1456 2553 1204 2497 
Q 953 2441 691 2322 
L 691 4666 
z
" transform="scale(0.015625)"/>
           </defs>
           <use xlink:href="#DejaVuSans-32"/>
           <use xlink:href="#DejaVuSans-35" x="63.623047"/>
           <use xlink:href="#DejaVuSans-30" x="127.246094"/>
           <use xlink:href="#DejaVuSans-30" x="190.869141"/>
          </g>
         </g>
        </g>
        <g id="ytick_3">
         <g id="line2d_6">
          <g>
           <use xlink:href="#m2b890200d7" x="63.290625" y="248.564671" style="stroke: #000000; stroke-width: 0.8"/>
          </g>
         </g>
         <g id="text_6">
          <!-- 5000 -->
          <g transform="translate(30.840625 252.36389) scale(0.1 -0.1)">
           <use xlink:href="#DejaVuSans-35"/>
           <use xlink:href="#DejaVuSans-30" x="63.623047"/>
           <use xlink:href="#DejaVuSans-30" x="127.246094"/>
           <use xlink:href="#DejaVuSans-30" x="190.869141"/>
          </g>
         </g>
        </g>
        <g id="ytick_4">
         <g id="line2d_7">
          <g>
           <use xlink:href="#m2b890200d7" x="63.290625" y="212.036069" style="stroke: #000000; stroke-width: 0.8"/>
          </g>
         </g>
         <g id="text_7">
          <!-- 7500 -->
          <g transform="translate(30.840625 215.835288) scale(0.1 -0.1)">
           <defs>
            <path id="DejaVuSans-37" d="M 525 4666 
L 3525 4666 
L 3525 4397 
L 1831 0 
L 1172 0 
L 2766 4134 
L 525 4134 
L 525 4666 
z
" transform="scale(0.015625)"/>
           </defs>
           <use xlink:href="#DejaVuSans-37"/>
           <use xlink:href="#DejaVuSans-35" x="63.623047"/>
           <use xlink:href="#DejaVuSans-30" x="127.246094"/>
           <use xlink:href="#DejaVuSans-30" x="190.869141"/>
          </g>
         </g>
        </g>
        <g id="ytick_5">
         <g id="line2d_8">
          <g>
           <use xlink:href="#m2b890200d7" x="63.290625" y="175.507467" style="stroke: #000000; stroke-width: 0.8"/>
          </g>
         </g>
         <g id="text_8">
          <!-- 10000 -->
          <g transform="translate(24.478125 179.306685) scale(0.1 -0.1)">
           <defs>
            <path id="DejaVuSans-31" d="M 794 531 
L 1825 531 
L 1825 4091 
L 703 3866 
L 703 4441 
L 1819 4666 
L 2450 4666 
L 2450 531 
L 3481 531 
L 3481 0 
L 794 0 
L 794 531 
z
" transform="scale(0.015625)"/>
           </defs>
           <use xlink:href="#DejaVuSans-31"/>
           <use xlink:href="#DejaVuSans-30" x="63.623047"/>
           <use xlink:href="#DejaVuSans-30" x="127.246094"/>
           <use xlink:href="#DejaVuSans-30" x="190.869141"/>
           <use xlink:href="#DejaVuSans-30" x="254.492188"/>
          </g>
         </g>
        </g>
        <g id="ytick_6">
         <g id="line2d_9">
          <g>
           <use xlink:href="#m2b890200d7" x="63.290625" y="138.978865" style="stroke: #000000; stroke-width: 0.8"/>
          </g>
         </g>
         <g id="text_9">
          <!-- 12500 -->
          <g transform="translate(24.478125 142.778083) scale(0.1 -0.1)">
           <use xlink:href="#DejaVuSans-31"/>
           <use xlink:href="#DejaVuSans-32" x="63.623047"/>
           <use xlink:href="#DejaVuSans-35" x="127.246094"/>
           <use xlink:href="#DejaVuSans-30" x="190.869141"/>
           <use xlink:href="#DejaVuSans-30" x="254.492188"/>
          </g>
         </g>
        </g>
        <g id="ytick_7">
         <g id="line2d_10">
          <g>
           <use xlink:href="#m2b890200d7" x="63.290625" y="102.450263" style="stroke: #000000; stroke-width: 0.8"/>
          </g>
         </g>
         <g id="text_10">
          <!-- 15000 -->
          <g transform="translate(24.478125 106.249481) scale(0.1 -0.1)">
           <use xlink:href="#DejaVuSans-31"/>
           <use xlink:href="#DejaVuSans-35" x="63.623047"/>
           <use xlink:href="#DejaVuSans-30" x="127.246094"/>
           <use xlink:href="#DejaVuSans-30" x="190.869141"/>
           <use xlink:href="#DejaVuSans-30" x="254.492188"/>
          </g>
         </g>
        </g>
        <g id="ytick_8">
         <g id="line2d_11">
          <g>
           <use xlink:href="#m2b890200d7" x="63.290625" y="65.921661" style="stroke: #000000; stroke-width: 0.8"/>
          </g>
         </g>
         <g id="text_11">
          <!-- 17500 -->
          <g transform="translate(24.478125 69.720879) scale(0.1 -0.1)">
           <use xlink:href="#DejaVuSans-31"/>
           <use xlink:href="#DejaVuSans-37" x="63.623047"/>
           <use xlink:href="#DejaVuSans-35" x="127.246094"/>
           <use xlink:href="#DejaVuSans-30" x="190.869141"/>
           <use xlink:href="#DejaVuSans-30" x="254.492188"/>
          </g>
         </g>
        </g>
        <g id="ytick_9">
         <g id="line2d_12">
          <g>
           <use xlink:href="#m2b890200d7" x="63.290625" y="29.393058" style="stroke: #000000; stroke-width: 0.8"/>
          </g>
         </g>
         <g id="text_12">
          <!-- 20000 -->
          <g transform="translate(24.478125 33.192277) scale(0.1 -0.1)">
           <use xlink:href="#DejaVuSans-32"/>
           <use xlink:href="#DejaVuSans-30" x="63.623047"/>
           <use xlink:href="#DejaVuSans-30" x="127.246094"/>
           <use xlink:href="#DejaVuSans-30" x="190.869141"/>
           <use xlink:href="#DejaVuSans-30" x="254.492188"/>
          </g>
         </g>
        </g>
        <g id="text_13">
         <!-- time ago (generations) -->
         <g transform="translate(18.398438 223.682031) rotate(-90) scale(0.1 -0.1)">
          <defs>
           <path id="DejaVuSans-74" d="M 1172 4494 
L 1172 3500 
L 2356 3500 
L 2356 3053 
L 1172 3053 
L 1172 1153 
Q 1172 725 1289 603 
Q 1406 481 1766 481 
L 2356 481 
L 2356 0 
L 1766 0 
Q 1100 0 847 248 
Q 594 497 594 1153 
L 594 3053 
L 172 3053 
L 172 3500 
L 594 3500 
L 594 4494 
L 1172 4494 
z
" transform="scale(0.015625)"/>
           <path id="DejaVuSans-69" d="M 603 3500 
L 1178 3500 
L 1178 0 
L 603 0 
L 603 3500 
z
M 603 4863 
L 1178 4863 
L 1178 4134 
L 603 4134 
L 603 4863 
z
" transform="scale(0.015625)"/>
           <path id="DejaVuSans-6d" d="M 3328 2828 
Q 3544 3216 3844 3400 
Q 4144 3584 4550 3584 
Q 5097 3584 5394 3201 
Q 5691 2819 5691 2113 
L 5691 0 
L 5113 0 
L 5113 2094 
Q 5113 2597 4934 2840 
Q 4756 3084 4391 3084 
Q 3944 3084 3684 2787 
Q 3425 2491 3425 1978 
L 3425 0 
L 2847 0 
L 2847 2094 
Q 2847 2600 2669 2842 
Q 2491 3084 2119 3084 
Q 1678 3084 1418 2786 
Q 1159 2488 1159 1978 
L 1159 0 
L 581 0 
L 581 3500 
L 1159 3500 
L 1159 2956 
Q 1356 3278 1631 3431 
Q 1906 3584 2284 3584 
Q 2666 3584 2933 3390 
Q 3200 3197 3328 2828 
z
" transform="scale(0.015625)"/>
           <path id="DejaVuSans-65" d="M 3597 1894 
L 3597 1613 
L 953 1613 
Q 991 1019 1311 708 
Q 1631 397 2203 397 
Q 2534 397 2845 478 
Q 3156 559 3463 722 
L 3463 178 
Q 3153 47 2828 -22 
Q 2503 -91 2169 -91 
Q 1331 -91 842 396 
Q 353 884 353 1716 
Q 353 2575 817 3079 
Q 1281 3584 2069 3584 
Q 2775 3584 3186 3129 
Q 3597 2675 3597 1894 
z
M 3022 2063 
Q 3016 2534 2758 2815 
Q 2500 3097 2075 3097 
Q 1594 3097 1305 2825 
Q 1016 2553 972 2059 
L 3022 2063 
z
" transform="scale(0.015625)"/>
           <path id="DejaVuSans-20" transform="scale(0.015625)"/>
           <path id="DejaVuSans-61" d="M 2194 1759 
Q 1497 1759 1228 1600 
Q 959 1441 959 1056 
Q 959 750 1161 570 
Q 1363 391 1709 391 
Q 2188 391 2477 730 
Q 2766 1069 2766 1631 
L 2766 1759 
L 2194 1759 
z
M 3341 1997 
L 3341 0 
L 2766 0 
L 2766 531 
Q 2569 213 2275 61 
Q 1981 -91 1556 -91 
Q 1019 -91 701 211 
Q 384 513 384 1019 
Q 384 1609 779 1909 
Q 1175 2209 1959 2209 
L 2766 2209 
L 2766 2266 
Q 2766 2663 2505 2880 
Q 2244 3097 1772 3097 
Q 1472 3097 1187 3025 
Q 903 2953 641 2809 
L 641 3341 
Q 956 3463 1253 3523 
Q 1550 3584 1831 3584 
Q 2591 3584 2966 3190 
Q 3341 2797 3341 1997 
z
" transform="scale(0.015625)"/>
           <path id="DejaVuSans-67" d="M 2906 1791 
Q 2906 2416 2648 2759 
Q 2391 3103 1925 3103 
Q 1463 3103 1205 2759 
Q 947 2416 947 1791 
Q 947 1169 1205 825 
Q 1463 481 1925 481 
Q 2391 481 2648 825 
Q 2906 1169 2906 1791 
z
M 3481 434 
Q 3481 -459 3084 -895 
Q 2688 -1331 1869 -1331 
Q 1566 -1331 1297 -1286 
Q 1028 -1241 775 -1147 
L 775 -588 
Q 1028 -725 1275 -790 
Q 1522 -856 1778 -856 
Q 2344 -856 2625 -561 
Q 2906 -266 2906 331 
L 2906 616 
Q 2728 306 2450 153 
Q 2172 0 1784 0 
Q 1141 0 747 490 
Q 353 981 353 1791 
Q 353 2603 747 3093 
Q 1141 3584 1784 3584 
Q 2172 3584 2450 3431 
Q 2728 3278 2906 2969 
L 2906 3500 
L 3481 3500 
L 3481 434 
z
" transform="scale(0.015625)"/>
           <path id="DejaVuSans-6f" d="M 1959 3097 
Q 1497 3097 1228 2736 
Q 959 2375 959 1747 
Q 959 1119 1226 758 
Q 1494 397 1959 397 
Q 2419 397 2687 759 
Q 2956 1122 2956 1747 
Q 2956 2369 2687 2733 
Q 2419 3097 1959 3097 
z
M 1959 3584 
Q 2709 3584 3137 3096 
Q 3566 2609 3566 1747 
Q 3566 888 3137 398 
Q 2709 -91 1959 -91 
Q 1206 -91 779 398 
Q 353 888 353 1747 
Q 353 2609 779 3096 
Q 1206 3584 1959 3584 
z
" transform="scale(0.015625)"/>
           <path id="DejaVuSans-28" d="M 1984 4856 
Q 1566 4138 1362 3434 
Q 1159 2731 1159 2009 
Q 1159 1288 1364 580 
Q 1569 -128 1984 -844 
L 1484 -844 
Q 1016 -109 783 600 
Q 550 1309 550 2009 
Q 550 2706 781 3412 
Q 1013 4119 1484 4856 
L 1984 4856 
z
" transform="scale(0.015625)"/>
           <path id="DejaVuSans-6e" d="M 3513 2113 
L 3513 0 
L 2938 0 
L 2938 2094 
Q 2938 2591 2744 2837 
Q 2550 3084 2163 3084 
Q 1697 3084 1428 2787 
Q 1159 2491 1159 1978 
L 1159 0 
L 581 0 
L 581 3500 
L 1159 3500 
L 1159 2956 
Q 1366 3272 1645 3428 
Q 1925 3584 2291 3584 
Q 2894 3584 3203 3211 
Q 3513 2838 3513 2113 
z
" transform="scale(0.015625)"/>
           <path id="DejaVuSans-72" d="M 2631 2963 
Q 2534 3019 2420 3045 
Q 2306 3072 2169 3072 
Q 1681 3072 1420 2755 
Q 1159 2438 1159 1844 
L 1159 0 
L 581 0 
L 581 3500 
L 1159 3500 
L 1159 2956 
Q 1341 3275 1631 3429 
Q 1922 3584 2338 3584 
Q 2397 3584 2469 3576 
Q 2541 3569 2628 3553 
L 2631 2963 
z
" transform="scale(0.015625)"/>
           <path id="DejaVuSans-73" d="M 2834 3397 
L 2834 2853 
Q 2591 2978 2328 3040 
Q 2066 3103 1784 3103 
Q 1356 3103 1142 2972 
Q 928 2841 928 2578 
Q 928 2378 1081 2264 
Q 1234 2150 1697 2047 
L 1894 2003 
Q 2506 1872 2764 1633 
Q 3022 1394 3022 966 
Q 3022 478 2636 193 
Q 2250 -91 1575 -91 
Q 1294 -91 989 -36 
Q 684 19 347 128 
L 347 722 
Q 666 556 975 473 
Q 1284 391 1588 391 
Q 1994 391 2212 530 
Q 2431 669 2431 922 
Q 2431 1156 2273 1281 
Q 2116 1406 1581 1522 
L 1381 1569 
Q 847 1681 609 1914 
Q 372 2147 372 2553 
Q 372 3047 722 3315 
Q 1072 3584 1716 3584 
Q 2034 3584 2315 3537 
Q 2597 3491 2834 3397 
z
" transform="scale(0.015625)"/>
           <path id="DejaVuSans-29" d="M 513 4856 
L 1013 4856 
Q 1481 4119 1714 3412 
Q 1947 2706 1947 2009 
Q 1947 1309 1714 600 
Q 1481 -109 1013 -844 
L 513 -844 
Q 928 -128 1133 580 
Q 1338 1288 1338 2009 
Q 1338 2731 1133 3434 
Q 928 4138 513 4856 
z
" transform="scale(0.015625)"/>
          </defs>
          <use xlink:href="#DejaVuSans-74"/>
          <use xlink:href="#DejaVuSans-69" x="39.208984"/>
          <use xlink:href="#DejaVuSans-6d" x="66.992188"/>
          <use xlink:href="#DejaVuSans-65" x="164.404297"/>
          <use xlink:href="#DejaVuSans-20" x="225.927734"/>
          <use xlink:href="#DejaVuSans-61" x="257.714844"/>
          <use xlink:href="#DejaVuSans-67" x="318.994141"/>
          <use xlink:href="#DejaVuSans-6f" x="382.470703"/>
          <use xlink:href="#DejaVuSans-20" x="443.652344"/>
          <use xlink:href="#DejaVuSans-28" x="475.439453"/>
          <use xlink:href="#DejaVuSans-67" x="514.453125"/>
          <use xlink:href="#DejaVuSans-65" x="577.929688"/>
          <use xlink:href="#DejaVuSans-6e" x="639.453125"/>
          <use xlink:href="#DejaVuSans-65" x="702.832031"/>
          <use xlink:href="#DejaVuSans-72" x="764.355469"/>
          <use xlink:href="#DejaVuSans-61" x="805.46875"/>
          <use xlink:href="#DejaVuSans-74" x="866.748047"/>
          <use xlink:href="#DejaVuSans-69" x="905.957031"/>
          <use xlink:href="#DejaVuSans-6f" x="933.740234"/>
          <use xlink:href="#DejaVuSans-6e" x="994.921875"/>
          <use xlink:href="#DejaVuSans-73" x="1058.300781"/>
          <use xlink:href="#DejaVuSans-29" x="1110.400391"/>
         </g>
        </g>
       </g>
       <g id="patch_7">
        <path d="M 267.351461 193.976328 
L 266.351461 193.944892 
L 265.351461 193.907951 
L 264.351461 193.810205 
L 263.351461 193.777683 
L 262.351461 193.704058 
L 261.351461 193.665493 
L 260.351461 193.63008 
L 259.351461 193.57244 
L 258.351461 193.502053 
L 257.351461 193.450089 
L 256.351461 193.390999 
L 255.351461 193.302678 
L 254.351461 193.256534 
L 253.351461 193.214123 
L 252.351461 193.183631 
L 251.351461 193.157586 
L 250.351461 193.136386 
L 249.351461 193.082084 
L 248.351461 193.054147 
L 247.351461 193.024423 
L 246.351461 192.999028 
L 245.351461 192.987828 
L 244.351461 192.977704 
L 243.351461 192.977908 
L 242.351461 192.987418 
L 241.351461 192.999072 
L 240.351461 193.030101 
L 239.351461 193.041269 
L 238.351461 193.071386 
L 237.351461 193.131163 
L 236.351461 193.168355 
L 235.351461 193.207451 
L 234.351461 193.24989 
L 233.351461 193.282656 
L 232.351461 193.350082 
L 231.351461 193.389208 
L 230.351461 193.431882 
L 228.920878 193.502463 
" clip-path="url(#pc84c3ad9b5)" style="fill: none; stroke: #ffffff; stroke-width: 3; stroke-linecap: round"/>
        <path d="M 267.351461 193.976328 
L 266.351461 193.944892 
L 265.351461 193.907951 
L 264.351461 193.810205 
L 263.351461 193.777683 
L 262.351461 193.704058 
L 261.351461 193.665493 
L 260.351461 193.63008 
L 259.351461 193.57244 
L 258.351461 193.502053 
L 257.351461 193.450089 
L 256.351461 193.390999 
L 255.351461 193.302678 
L 254.351461 193.256534 
L 253.351461 193.214123 
L 252.351461 193.183631 
L 251.351461 193.157586 
L 250.351461 193.136386 
L 249.351461 193.082084 
L 248.351461 193.054147 
L 247.351461 193.024423 
L 246.351461 192.999028 
L 245.351461 192.987828 
L 244.351461 192.977704 
L 243.351461 192.977908 
L 242.351461 192.987418 
L 241.351461 192.999072 
L 240.351461 193.030101 
L 239.351461 193.041269 
L 238.351461 193.071386 
L 237.351461 193.131163 
L 236.351461 193.168355 
L 235.351461 193.207451 
L 234.351461 193.24989 
L 233.351461 193.282656 
L 232.351461 193.350082 
L 231.351461 193.389208 
L 230.351461 193.431882 
L 228.920878 193.502463 
" clip-path="url(#pc84c3ad9b5)" style="fill: none; stroke: #1f77b4; stroke-linecap: round"/>
        <path d="M 232.920878 195.976328 
L 232.04051 195.500997 
L 231.162603 195.020743 
L 230.311889 194.486102 
L 229.009715 193.798655 
L 229.937068 193.77264 
L 230.848742 193.35992 
L 231.759007 192.944381 
L 233.101502 192.337577 
L 232.446604 192.976328 
L 232.394639 193.976328 
L 232.33555 195.976328 
z
" clip-path="url(#pc84c3ad9b5)" style="fill: #ffffff; stroke: #ffffff; stroke-width: 3; stroke-linecap: round"/>
        <path d="M 232.920878 195.976328 
L 232.04051 195.500997 
L 231.162603 195.020743 
L 230.311889 194.486102 
L 229.009715 193.798655 
L 229.937068 193.77264 
L 230.848742 193.35992 
L 231.759007 192.944381 
L 233.101502 192.337577 
L 232.446604 192.976328 
L 232.394639 193.976328 
L 232.33555 195.976328 
z
" clip-path="url(#pc84c3ad9b5)" style="fill: #ffffff; stroke: #1f77b4; stroke-linecap: round"/>
        <g id="patch_8">
         <path d="M 396.661921 72.964375 
L 397.661921 72.995811 
L 398.661921 73.032752 
L 399.661921 73.130498 
L 400.661921 73.16302 
L 401.661921 73.236645 
L 402.661921 73.27521 
L 403.661921 73.310623 
L 404.661921 73.368263 
L 405.661921 73.438649 
L 406.661921 73.490614 
L 407.661921 73.549703 
L 408.661921 73.638024 
L 409.661921 73.684169 
L 410.661921 73.72658 
L 411.661921 73.757072 
L 412.661921 73.783117 
L 413.661921 73.804317 
L 414.661921 73.858618 
L 415.661921 73.886556 
L 416.661921 73.91628 
L 417.661921 73.941675 
L 418.661921 73.952875 
L 419.661921 73.962999 
L 420.661921 73.962795 
L 421.661921 73.953285 
L 422.661921 73.941631 
L 423.661921 73.910602 
L 424.661921 73.899434 
L 425.661921 73.869317 
L 426.661921 73.80954 
L 427.661921 73.772348 
L 428.661921 73.733252 
L 429.661921 73.690812 
L 430.661921 73.658047 
L 431.661921 73.590621 
L 432.661921 73.551495 
L 433.661921 73.50882 
L 434.661921 73.43824 
L 435.661921 73.401849 
L 436.661921 73.343446 
L 437.661921 73.232493 
L 438.661921 73.161835 
L 439.661921 73.048895 
L 440.661921 73.003122 
L 441.661921 72.941839 
L 442.661921 72.89334 
L 443.661921 72.812517 
L 444.661921 72.693998 
L 445.661921 72.623787 
L 446.661921 72.540525 
L 447.661921 72.507383 
L 448.661921 72.456146 
L 449.661921 72.387747 
L 450.661921 72.321532 
L 451.661921 72.244615 
L 452.661921 72.217299 
L 453.661921 72.190822 
L 454.661921 72.168171 
L 455.661921 72.14864 
L 456.661921 72.122246 
L 457.661921 72.072475 
L 458.661921 72.037402 
L 459.661921 72.001536 
L 460.661921 71.986169 
L 461.661921 71.9704 
L 462.661921 71.966987 
L 463.661921 71.96457 
L 464.661921 71.965056 
L 465.661921 71.966985 
L 466.661921 71.980242 
L 467.661921 71.988633 
L 468.661921 72.010169 
L 469.661921 72.033202 
L 470.661921 72.050435 
L 471.661921 72.068898 
L 472.661921 72.08935 
L 473.661921 72.10595 
L 474.661921 72.168729 
L 475.661921 72.243994 
L 476.661921 72.276633 
L 477.661921 72.344197 
L 478.661921 72.398244 
L 479.661921 72.431948 
L 480.661921 72.522074 
L 481.661921 72.550609 
L 482.661921 72.582095 
L 483.661921 72.613106 
L 484.661921 72.667914 
L 485.661921 72.732501 
L 486.661921 72.770697 
L 487.661921 72.866631 
L 488.661921 72.915889 
L 489.661921 72.959958 
L 490.661921 73.000082 
L 491.661921 73.108449 
L 492.661921 73.150077 
L 493.661921 73.212219 
L 494.661921 73.282181 
L 495.661921 73.386685 
L 496.661921 73.423673 
L 497.661921 73.46955 
L 498.661921 73.538045 
L 499.661921 73.586791 
L 500.661921 73.664388 
L 501.661921 73.694929 
L 502.661921 73.764443 
L 503.661921 73.788416 
L 504.661921 73.817038 
L 505.661921 73.858831 
L 506.661921 73.880407 
L 507.661921 73.894355 
L 508.661921 73.921077 
L 509.661921 73.930387 
L 510.661921 73.942834 
L 511.661921 73.953889 
L 512.661921 73.959553 
L 513.661921 73.964317 
L 514.661921 73.958769 
L 515.661921 73.945481 
L 516.661921 73.937964 
L 517.661921 73.913179 
L 518.661921 73.88961 
L 519.661921 73.85343 
L 520.661921 73.827468 
L 521.661921 73.805146 
L 522.661921 73.736386 
L 523.661921 73.661851 
L 524.661921 73.567872 
L 525.661921 73.51682 
L 526.661921 73.462886 
L 527.661921 73.427635 
L 528.661921 73.321547 
L 529.661921 73.269283 
L 530.661921 73.232376 
L 531.661921 73.201345 
L 532.661921 73.14019 
L 533.661921 73.07277 
L 534.661921 73.023864 
L 535.661921 72.958672 
L 536.661921 72.920484 
L 537.661921 72.878488 
L 538.661921 72.836471 
L 539.661921 72.776955 
L 540.661921 72.663795 
L 541.661921 72.611544 
L 542.661921 72.572126 
L 543.661921 72.525025 
L 544.661921 72.468245 
L 545.661921 72.435582 
L 546.661921 72.399404 
L 547.661921 72.367314 
L 549.000854 72.333034 
" clip-path="url(#pc84c3ad9b5)" style="fill: none; stroke: #ffffff; stroke-width: 3; stroke-linecap: round"/>
         <path d="M 396.661921 72.964375 
L 397.661921 72.995811 
L 398.661921 73.032752 
L 399.661921 73.130498 
L 400.661921 73.16302 
L 401.661921 73.236645 
L 402.661921 73.27521 
L 403.661921 73.310623 
L 404.661921 73.368263 
L 405.661921 73.438649 
L 406.661921 73.490614 
L 407.661921 73.549703 
L 408.661921 73.638024 
L 409.661921 73.684169 
L 410.661921 73.72658 
L 411.661921 73.757072 
L 412.661921 73.783117 
L 413.661921 73.804317 
L 414.661921 73.858618 
L 415.661921 73.886556 
L 416.661921 73.91628 
L 417.661921 73.941675 
L 418.661921 73.952875 
L 419.661921 73.962999 
L 420.661921 73.962795 
L 421.661921 73.953285 
L 422.661921 73.941631 
L 423.661921 73.910602 
L 424.661921 73.899434 
L 425.661921 73.869317 
L 426.661921 73.80954 
L 427.661921 73.772348 
L 428.661921 73.733252 
L 429.661921 73.690812 
L 430.661921 73.658047 
L 431.661921 73.590621 
L 432.661921 73.551495 
L 433.661921 73.50882 
L 434.661921 73.43824 
L 435.661921 73.401849 
L 436.661921 73.343446 
L 437.661921 73.232493 
L 438.661921 73.161835 
L 439.661921 73.048895 
L 440.661921 73.003122 
L 441.661921 72.941839 
L 442.661921 72.89334 
L 443.661921 72.812517 
L 444.661921 72.693998 
L 445.661921 72.623787 
L 446.661921 72.540525 
L 447.661921 72.507383 
L 448.661921 72.456146 
L 449.661921 72.387747 
L 450.661921 72.321532 
L 451.661921 72.244615 
L 452.661921 72.217299 
L 453.661921 72.190822 
L 454.661921 72.168171 
L 455.661921 72.14864 
L 456.661921 72.122246 
L 457.661921 72.072475 
L 458.661921 72.037402 
L 459.661921 72.001536 
L 460.661921 71.986169 
L 461.661921 71.9704 
L 462.661921 71.966987 
L 463.661921 71.96457 
L 464.661921 71.965056 
L 465.661921 71.966985 
L 466.661921 71.980242 
L 467.661921 71.988633 
L 468.661921 72.010169 
L 469.661921 72.033202 
L 470.661921 72.050435 
L 471.661921 72.068898 
L 472.661921 72.08935 
L 473.661921 72.10595 
L 474.661921 72.168729 
L 475.661921 72.243994 
L 476.661921 72.276633 
L 477.661921 72.344197 
L 478.661921 72.398244 
L 479.661921 72.431948 
L 480.661921 72.522074 
L 481.661921 72.550609 
L 482.661921 72.582095 
L 483.661921 72.613106 
L 484.661921 72.667914 
L 485.661921 72.732501 
L 486.661921 72.770697 
L 487.661921 72.866631 
L 488.661921 72.915889 
L 489.661921 72.959958 
L 490.661921 73.000082 
L 491.661921 73.108449 
L 492.661921 73.150077 
L 493.661921 73.212219 
L 494.661921 73.282181 
L 495.661921 73.386685 
L 496.661921 73.423673 
L 497.661921 73.46955 
L 498.661921 73.538045 
L 499.661921 73.586791 
L 500.661921 73.664388 
L 501.661921 73.694929 
L 502.661921 73.764443 
L 503.661921 73.788416 
L 504.661921 73.817038 
L 505.661921 73.858831 
L 506.661921 73.880407 
L 507.661921 73.894355 
L 508.661921 73.921077 
L 509.661921 73.930387 
L 510.661921 73.942834 
L 511.661921 73.953889 
L 512.661921 73.959553 
L 513.661921 73.964317 
L 514.661921 73.958769 
L 515.661921 73.945481 
L 516.661921 73.937964 
L 517.661921 73.913179 
L 518.661921 73.88961 
L 519.661921 73.85343 
L 520.661921 73.827468 
L 521.661921 73.805146 
L 522.661921 73.736386 
L 523.661921 73.661851 
L 524.661921 73.567872 
L 525.661921 73.51682 
L 526.661921 73.462886 
L 527.661921 73.427635 
L 528.661921 73.321547 
L 529.661921 73.269283 
L 530.661921 73.232376 
L 531.661921 73.201345 
L 532.661921 73.14019 
L 533.661921 73.07277 
L 534.661921 73.023864 
L 535.661921 72.958672 
L 536.661921 72.920484 
L 537.661921 72.878488 
L 538.661921 72.836471 
L 539.661921 72.776955 
L 540.661921 72.663795 
L 541.661921 72.611544 
L 542.661921 72.572126 
L 543.661921 72.525025 
L 544.661921 72.468245 
L 545.661921 72.435582 
L 546.661921 72.399404 
L 547.661921 72.367314 
L 549.000854 72.333034 
" clip-path="url(#pc84c3ad9b5)" style="fill: none; stroke: #1f77b4; stroke-linecap: round"/>
         <path d="M 545.000854 70.964375 
L 545.881222 71.439706 
L 546.759129 71.91996 
L 547.609843 72.454601 
L 548.912017 73.142048 
L 547.984664 73.168063 
L 547.07299 73.580783 
L 546.162725 73.996322 
L 544.82023 74.603126 
L 545.475128 73.964375 
L 545.527093 72.964375 
L 545.586182 70.964375 
z
" clip-path="url(#pc84c3ad9b5)" style="fill: #ffffff; stroke: #ffffff; stroke-width: 3; stroke-linecap: round"/>
         <path d="M 545.000854 70.964375 
L 545.881222 71.439706 
L 546.759129 71.91996 
L 547.609843 72.454601 
L 548.912017 73.142048 
L 547.984664 73.168063 
L 547.07299 73.580783 
L 546.162725 73.996322 
L 544.82023 74.603126 
L 545.475128 73.964375 
L 545.527093 72.964375 
L 545.586182 70.964375 
z
" clip-path="url(#pc84c3ad9b5)" style="fill: #ffffff; stroke: #1f77b4; stroke-linecap: round"/>
         <g id="patch_9">
          <path d="M 227.802951 266.244514 
L 228.802951 266.275951 
L 229.802951 266.312891 
L 230.802951 266.410638 
L 231.802951 266.443159 
L 232.802951 266.516784 
L 233.802951 266.555349 
L 234.802951 266.590763 
L 235.802951 266.648403 
L 236.802951 266.718789 
L 237.802951 266.770753 
L 238.802951 266.829843 
L 239.802951 266.918164 
L 240.802951 266.964308 
L 241.802951 267.006719 
L 242.802951 267.037212 
L 243.802951 267.063257 
L 244.802951 267.084457 
L 245.802951 267.138758 
L 246.802951 267.166695 
L 247.802951 267.196419 
L 248.802951 267.221814 
L 249.802951 267.233015 
L 250.802951 267.243138 
L 251.802951 267.242934 
L 252.802951 267.233424 
L 253.802951 267.221771 
L 254.802951 267.190741 
L 255.802951 267.179574 
L 256.802951 267.149456 
L 257.802951 267.089679 
L 258.802951 267.052488 
L 259.802951 267.013391 
L 260.802951 266.970952 
L 261.802951 266.938187 
L 262.802951 266.87076 
L 263.802951 266.831634 
L 264.802951 266.78896 
L 265.802951 266.718379 
L 266.802951 266.681988 
L 267.802951 266.623585 
L 268.802951 266.512633 
L 269.802951 266.441974 
L 270.802951 266.329034 
L 271.802951 266.283262 
L 272.802951 266.221978 
L 273.802951 266.173479 
L 274.802951 266.092656 
L 275.802951 265.974137 
L 276.802951 265.903927 
L 277.802951 265.820664 
L 278.802951 265.787522 
L 279.802951 265.736285 
L 280.802951 265.667887 
L 281.802951 265.601671 
L 282.802951 265.524754 
L 283.802951 265.497439 
L 284.802951 265.470961 
L 285.802951 265.448311 
L 286.802951 265.428779 
L 287.802951 265.402385 
L 288.802951 265.352615 
L 289.802951 265.317541 
L 290.802951 265.281676 
L 291.802951 265.266308 
L 292.802951 265.250539 
L 293.802951 265.247127 
L 294.802951 265.244709 
L 295.802951 265.245195 
L 296.802951 265.247124 
L 297.802951 265.260381 
L 298.802951 265.268772 
L 299.802951 265.290309 
L 300.802951 265.313341 
L 301.802951 265.330575 
L 302.802951 265.349037 
L 303.802951 265.36949 
L 304.802951 265.386089 
L 305.802951 265.448868 
L 306.802951 265.524133 
L 307.802951 265.556772 
L 308.802951 265.624336 
L 309.802951 265.678383 
L 310.802951 265.712087 
L 311.802951 265.802213 
L 312.802951 265.830748 
L 313.802951 265.862234 
L 314.802951 265.893245 
L 315.802951 265.948053 
L 316.802951 266.012641 
L 317.802951 266.050836 
L 318.802951 266.14677 
L 319.802951 266.196028 
L 320.802951 266.240098 
L 321.802951 266.280221 
L 322.802951 266.388588 
L 323.802951 266.430216 
L 324.802951 266.492358 
L 325.802951 266.56232 
L 326.802951 266.666825 
L 327.802951 266.703812 
L 328.802951 266.74969 
L 329.802951 266.818184 
L 330.802951 266.86693 
L 331.802951 266.944527 
L 332.802951 266.975068 
L 333.802951 267.044583 
L 334.802951 267.068556 
L 335.802951 267.097177 
L 336.802951 267.13897 
L 337.802951 267.160546 
L 338.802951 267.174494 
L 339.802951 267.201217 
L 340.802951 267.210526 
L 341.802951 267.222973 
L 342.802951 267.234028 
L 343.802951 267.239693 
L 344.802951 267.244456 
L 345.802951 267.238909 
L 346.802951 267.225621 
L 347.802951 267.218103 
L 348.802951 267.193318 
L 349.802951 267.16975 
L 350.802951 267.133569 
L 351.802951 267.107607 
L 352.802951 267.085286 
L 353.802951 267.016526 
L 354.802951 266.94199 
L 355.802951 266.848011 
L 356.802951 266.796959 
L 357.802951 266.743025 
L 358.802951 266.707775 
L 359.802951 266.601687 
L 360.802951 266.549422 
L 361.802951 266.512516 
L 362.802951 266.481485 
L 363.802951 266.420329 
L 364.802951 266.352909 
L 365.802951 266.304003 
L 366.802951 266.238811 
L 367.802951 266.200624 
L 368.802951 266.158628 
L 369.802951 266.11661 
L 370.802951 266.057094 
L 371.802951 265.943934 
L 372.802951 265.891683 
L 373.802951 265.852266 
L 374.802951 265.805164 
L 375.802951 265.748385 
L 376.802951 265.715722 
L 377.802951 265.679544 
L 378.802951 265.647453 
L 379.802951 265.613173 
L 380.802951 265.554795 
L 381.802951 265.50961 
L 382.802951 265.479987 
L 383.802951 265.429601 
L 384.802951 265.404403 
L 385.802951 265.383352 
L 386.802951 265.348384 
L 387.802951 265.324094 
L 388.802951 265.310027 
L 389.802951 265.291086 
L 390.802951 265.275424 
L 391.802951 265.262872 
L 392.802951 265.257037 
L 393.802951 265.250154 
L 394.802951 265.24498 
L 395.802951 265.246763 
L 396.802951 265.249489 
L 397.802951 265.260642 
L 398.802951 265.288877 
L 399.802951 265.332665 
L 400.802951 265.353354 
L 401.802951 265.394328 
L 402.802951 265.434403 
L 403.802951 265.453512 
L 404.802951 265.476021 
L 405.802951 265.542673 
L 406.802951 265.592382 
L 407.802951 265.666089 
L 408.802951 265.697402 
L 409.802951 265.774024 
L 410.802951 265.812323 
L 411.802951 265.886439 
L 412.802951 265.990498 
L 413.802951 266.060328 
L 414.802951 266.165562 
L 415.802951 266.220577 
L 417.540522 266.344052 
" clip-path="url(#pc84c3ad9b5)" style="fill: none; stroke: #ffffff; stroke-width: 3; stroke-linecap: round"/>
          <path d="M 227.802951 266.244514 
L 228.802951 266.275951 
L 229.802951 266.312891 
L 230.802951 266.410638 
L 231.802951 266.443159 
L 232.802951 266.516784 
L 233.802951 266.555349 
L 234.802951 266.590763 
L 235.802951 266.648403 
L 236.802951 266.718789 
L 237.802951 266.770753 
L 238.802951 266.829843 
L 239.802951 266.918164 
L 240.802951 266.964308 
L 241.802951 267.006719 
L 242.802951 267.037212 
L 243.802951 267.063257 
L 244.802951 267.084457 
L 245.802951 267.138758 
L 246.802951 267.166695 
L 247.802951 267.196419 
L 248.802951 267.221814 
L 249.802951 267.233015 
L 250.802951 267.243138 
L 251.802951 267.242934 
L 252.802951 267.233424 
L 253.802951 267.221771 
L 254.802951 267.190741 
L 255.802951 267.179574 
L 256.802951 267.149456 
L 257.802951 267.089679 
L 258.802951 267.052488 
L 259.802951 267.013391 
L 260.802951 266.970952 
L 261.802951 266.938187 
L 262.802951 266.87076 
L 263.802951 266.831634 
L 264.802951 266.78896 
L 265.802951 266.718379 
L 266.802951 266.681988 
L 267.802951 266.623585 
L 268.802951 266.512633 
L 269.802951 266.441974 
L 270.802951 266.329034 
L 271.802951 266.283262 
L 272.802951 266.221978 
L 273.802951 266.173479 
L 274.802951 266.092656 
L 275.802951 265.974137 
L 276.802951 265.903927 
L 277.802951 265.820664 
L 278.802951 265.787522 
L 279.802951 265.736285 
L 280.802951 265.667887 
L 281.802951 265.601671 
L 282.802951 265.524754 
L 283.802951 265.497439 
L 284.802951 265.470961 
L 285.802951 265.448311 
L 286.802951 265.428779 
L 287.802951 265.402385 
L 288.802951 265.352615 
L 289.802951 265.317541 
L 290.802951 265.281676 
L 291.802951 265.266308 
L 292.802951 265.250539 
L 293.802951 265.247127 
L 294.802951 265.244709 
L 295.802951 265.245195 
L 296.802951 265.247124 
L 297.802951 265.260381 
L 298.802951 265.268772 
L 299.802951 265.290309 
L 300.802951 265.313341 
L 301.802951 265.330575 
L 302.802951 265.349037 
L 303.802951 265.36949 
L 304.802951 265.386089 
L 305.802951 265.448868 
L 306.802951 265.524133 
L 307.802951 265.556772 
L 308.802951 265.624336 
L 309.802951 265.678383 
L 310.802951 265.712087 
L 311.802951 265.802213 
L 312.802951 265.830748 
L 313.802951 265.862234 
L 314.802951 265.893245 
L 315.802951 265.948053 
L 316.802951 266.012641 
L 317.802951 266.050836 
L 318.802951 266.14677 
L 319.802951 266.196028 
L 320.802951 266.240098 
L 321.802951 266.280221 
L 322.802951 266.388588 
L 323.802951 266.430216 
L 324.802951 266.492358 
L 325.802951 266.56232 
L 326.802951 266.666825 
L 327.802951 266.703812 
L 328.802951 266.74969 
L 329.802951 266.818184 
L 330.802951 266.86693 
L 331.802951 266.944527 
L 332.802951 266.975068 
L 333.802951 267.044583 
L 334.802951 267.068556 
L 335.802951 267.097177 
L 336.802951 267.13897 
L 337.802951 267.160546 
L 338.802951 267.174494 
L 339.802951 267.201217 
L 340.802951 267.210526 
L 341.802951 267.222973 
L 342.802951 267.234028 
L 343.802951 267.239693 
L 344.802951 267.244456 
L 345.802951 267.238909 
L 346.802951 267.225621 
L 347.802951 267.218103 
L 348.802951 267.193318 
L 349.802951 267.16975 
L 350.802951 267.133569 
L 351.802951 267.107607 
L 352.802951 267.085286 
L 353.802951 267.016526 
L 354.802951 266.94199 
L 355.802951 266.848011 
L 356.802951 266.796959 
L 357.802951 266.743025 
L 358.802951 266.707775 
L 359.802951 266.601687 
L 360.802951 266.549422 
L 361.802951 266.512516 
L 362.802951 266.481485 
L 363.802951 266.420329 
L 364.802951 266.352909 
L 365.802951 266.304003 
L 366.802951 266.238811 
L 367.802951 266.200624 
L 368.802951 266.158628 
L 369.802951 266.11661 
L 370.802951 266.057094 
L 371.802951 265.943934 
L 372.802951 265.891683 
L 373.802951 265.852266 
L 374.802951 265.805164 
L 375.802951 265.748385 
L 376.802951 265.715722 
L 377.802951 265.679544 
L 378.802951 265.647453 
L 379.802951 265.613173 
L 380.802951 265.554795 
L 381.802951 265.50961 
L 382.802951 265.479987 
L 383.802951 265.429601 
L 384.802951 265.404403 
L 385.802951 265.383352 
L 386.802951 265.348384 
L 387.802951 265.324094 
L 388.802951 265.310027 
L 389.802951 265.291086 
L 390.802951 265.275424 
L 391.802951 265.262872 
L 392.802951 265.257037 
L 393.802951 265.250154 
L 394.802951 265.24498 
L 395.802951 265.246763 
L 396.802951 265.249489 
L 397.802951 265.260642 
L 398.802951 265.288877 
L 399.802951 265.332665 
L 400.802951 265.353354 
L 401.802951 265.394328 
L 402.802951 265.434403 
L 403.802951 265.453512 
L 404.802951 265.476021 
L 405.802951 265.542673 
L 406.802951 265.592382 
L 407.802951 265.666089 
L 408.802951 265.697402 
L 409.802951 265.774024 
L 410.802951 265.812323 
L 411.802951 265.886439 
L 412.802951 265.990498 
L 413.802951 266.060328 
L 414.802951 266.165562 
L 415.802951 266.220577 
L 417.540522 266.344052 
" clip-path="url(#pc84c3ad9b5)" style="fill: none; stroke: #ff7f0e; stroke-linecap: round"/>
          <path d="M 413.540522 264.244514 
L 414.42089 264.719845 
L 415.298797 265.200099 
L 416.149511 265.73474 
L 417.451685 266.422188 
L 416.524332 266.448203 
L 415.612658 266.860922 
L 414.702394 267.276461 
L 413.359898 267.883266 
L 414.014797 267.244514 
L 414.066761 266.244514 
L 414.125851 264.244514 
z
" clip-path="url(#pc84c3ad9b5)" style="fill: #ffffff; stroke: #ffffff; stroke-width: 3; stroke-linecap: round"/>
          <path d="M 413.540522 264.244514 
L 414.42089 264.719845 
L 415.298797 265.200099 
L 416.149511 265.73474 
L 417.451685 266.422188 
L 416.524332 266.448203 
L 415.612658 266.860922 
L 414.702394 267.276461 
L 413.359898 267.883266 
L 414.014797 267.244514 
L 414.066761 266.244514 
L 414.125851 264.244514 
z
" clip-path="url(#pc84c3ad9b5)" style="fill: #ffffff; stroke: #ff7f0e; stroke-linecap: round"/>
          <path d="M 482.330342 303.459854 
" clip-path="url(#pc84c3ad9b5)" style="fill: none; stroke-dasharray: 3.7,1.6; stroke-dashoffset: 0; stroke: #2ca02c"/>
          <path d="M 481.330342 303.459854 
L 483.330342 304.459854 
L 483.330342 302.459854 
z
" clip-path="url(#pc84c3ad9b5)" style="fill: #2ca02c; stroke: #2ca02c; stroke-linejoin: miter"/>
          <g id="patch_10">
           <path d="M 63.290625 321.621875 
L 63.290625 10.8 
" style="fill: none; stroke: #000000; stroke-width: 0.8; stroke-linejoin: miter; stroke-linecap: square"/>
          </g>
          <g id="text_14">
           <g id="patch_11">
            <path d="M 321.353248 109.227226 
L 342.657935 109.227226 
Q 344.657935 109.227226 344.657935 107.227226 
L 344.657935 97.549101 
Q 344.657935 95.549101 342.657935 95.549101 
L 321.353248 95.549101 
Q 319.353248 95.549101 319.353248 97.549101 
L 319.353248 107.227226 
Q 319.353248 109.227226 321.353248 109.227226 
z
" style="fill: #ffffff; opacity: 0.6"/>
           </g>
           <!-- ANC -->
           <g transform="translate(321.353248 105.147539) scale(0.1 -0.1)">
            <defs>
             <path id="DejaVuSans-4e" d="M 628 4666 
L 1478 4666 
L 3547 763 
L 3547 4666 
L 4159 4666 
L 4159 0 
L 3309 0 
L 1241 3903 
L 1241 0 
L 628 0 
L 628 4666 
z
" transform="scale(0.015625)"/>
            </defs>
            <use xlink:href="#DejaVuSans-41"/>
            <use xlink:href="#DejaVuSans-4e" x="68.408203"/>
            <use xlink:href="#DejaVuSans-43" x="143.212891"/>
           </g>
          </g>
         </g>
        </g>
        <defs>
         <clipPath id="pc84c3ad9b5">
          <rect x="63.290625" y="10.8" width="540.309375" height="310.821875"/>
         </clipPath>
        </defs>
       </g>
      </g>
     </g>
    </g>
   </g>
  </g>
 </g>
</svg>
