<?xml version="1.0" encoding="utf-8" standalone="no"?>
<!DOCTYPE svg PUBLIC "-//W3C//DTD SVG 1.1//EN"
  "http://www.w3.org/Graphics/SVG/1.1/DTD/svg11.dtd">
<svg xmlns:xlink="http://www.w3.org/1999/xlink" width="614.4pt" height="345.6pt" viewBox="0 0 614.4 345.6" xmlns="http://www.w3.org/2000/svg" version="1.1">
 <metadata>
  <rdf:RDF xmlns:dc="http://purl.org/dc/elements/1.1/" xmlns:cc="http://creativecommons.org/ns#" xmlns:rdf="http://www.w3.org/1999/02/22-rdf-syntax-ns#">
   <cc:Work>
    <dc:type rdf:resource="http://purl.org/dc/dcmitype/StillImage"/>
    <dc:date>2024-04-17T19:48:48.070348</dc:date>
    <dc:format>image/svg+xml</dc:format>
    <dc:creator>
     <cc:Agent>
      <dc:title>Matplotlib v3.7.1, https://matplotlib.org/</dc:title>
     </cc:Agent>
    </dc:creator>
   </cc:Work>
  </rdf:RDF>
 </metadata>
 <defs>
  <style type="text/css">*{stroke-linejoin: round; stroke-linecap: butt}</style>
 </defs>
 <g id="figure_1">
  <g id="patch_1">
   <path d="M 0 345.6 
L 614.4 345.6 
L 614.4 0 
L 0 0 
z
" style="fill: #ffffff"/>
  </g>
  <g id="axes_1">
   <g id="patch_2">
    <path d="M 63.290625 321.621875 
L 603.6 321.621875 
L 603.6 10.8 
L 63.290625 10.8 
z
" style="fill: #ffffff"/>
   </g>
   <path d="M 547.146578 291.132352 
L 546.146578 291.100915 
L 545.146578 291.063975 
L 544.146578 290.966229 
L 543.146578 290.933707 
L 542.146578 290.860082 
L 541.146578 290.821517 
L 540.146578 290.786103 
L 539.146578 290.728464 
L 538.146578 290.658077 
L 537.146578 290.606113 
L 536.146578 290.547023 
L 535.146578 290.458702 
L 534.146578 290.412558 
L 533.146578 290.370147 
L 532.146578 290.339655 
L 531.146578 290.31361 
L 530.146578 290.292409 
L 529.146578 290.238108 
L 528.146578 290.210171 
L 527.146578 290.180447 
L 526.146578 290.155052 
L 525.146578 290.143852 
L 524.146578 290.133728 
L 523.146578 290.133932 
L 522.146578 290.143442 
L 521.146578 290.155095 
L 520.146578 290.186125 
L 519.146578 290.197293 
L 518.146578 290.22741 
L 517.146578 290.287187 
L 516.146578 290.324379 
L 515.146578 290.363475 
L 514.146578 290.405914 
L 513.146578 290.438679 
L 512.146578 290.506106 
L 511.146578 290.545232 
L 510.146578 290.587906 
L 509.146578 290.658487 
L 508.146578 290.694878 
L 507.146578 290.753281 
L 506.146578 290.864234 
L 505.146578 290.934892 
L 504.146578 291.047832 
L 503.146578 291.093605 
L 502.146578 291.154888 
L 501.146578 291.203387 
L 500.146578 291.28421 
L 499.146578 291.402729 
L 498.146578 291.472939 
L 497.146578 291.556202 
L 496.146578 291.589344 
L 495.146578 291.640581 
L 494.146578 291.708979 
L 493.146578 291.775195 
L 492.146578 291.852112 
L 491.146578 291.879427 
L 490.146578 291.905905 
L 489.146578 291.928556 
L 488.146578 291.948087 
L 487.146578 291.974481 
L 486.146578 292.024252 
L 485.146578 292.059325 
L 484.146578 292.09519 
L 483.146578 292.110558 
L 482.146578 292.126327 
L 481.146578 292.129739 
L 480.146578 292.132157 
L 479.146578 292.131671 
L 478.146578 292.129742 
L 477.146578 292.116485 
L 476.146578 292.108094 
L 475.146578 292.086557 
L 474.146578 292.063525 
L 473.146578 292.046292 
L 472.146578 292.027829 
L 471.146578 292.007377 
L 470.146578 291.990777 
L 469.146578 291.927998 
L 468.146578 291.852733 
L 467.146578 291.820094 
L 466.146578 291.75253 
L 465.146578 291.698483 
L 463.314684 291.664779 
" clip-path="url(#p041fd8e305)" style="fill: none; stroke-dasharray: 3.7,1.6; stroke-dashoffset: 0; stroke: #2ca02c"/>
   <g id="patch_3">
    <path d="M 306.078149 10.8 
L 306.078149 266.329032 
M 358.154598 10.8 
L 358.154598 266.329032 
" clip-path="url(#p041fd8e305)" style="fill: none; stroke: #ffffff; stroke-width: 3; stroke-linejoin: miter"/>
    <path d="M 306.078149 10.8 
L 306.078149 266.329032 
M 358.154598 10.8 
L 358.154598 266.329032 
" clip-path="url(#p041fd8e305)" style="fill: none; stroke: #1f77b4; stroke-linejoin: miter"/>
    <g id="PolyCollection_1">
     <path d="M 358.154598 10.8 
L 306.078149 10.8 
L 306.078149 266.329032 
L 358.154598 266.329032 
L 358.154598 266.329032 
L 358.154598 10.8 
z
" clip-path="url(#p041fd8e305)" style="fill: #1f77b4; fill-opacity: 0.5"/>
    </g>
    <g id="patch_4">
     <path d="M 87.850142 266.329032 
L 87.850142 321.621875 
M 225.864549 266.329032 
L 225.864549 321.621875 
" clip-path="url(#p041fd8e305)" style="fill: none; stroke: #ffffff; stroke-width: 3; stroke-linejoin: miter"/>
     <path d="M 87.850142 266.329032 
L 87.850142 321.621875 
M 225.864549 266.329032 
L 225.864549 321.621875 
" clip-path="url(#p041fd8e305)" style="fill: none; stroke: #ff7f0e; stroke-linejoin: miter"/>
     <g id="PolyCollection_2">
      <path d="M 225.864549 266.329032 
L 87.850142 266.329032 
L 87.850142 321.621875 
L 225.864549 321.621875 
L 225.864549 321.621875 
L 225.864549 266.329032 
z
" clip-path="url(#p041fd8e305)" style="fill: #ff7f0e; fill-opacity: 0.5"/>
     </g>
     <g id="patch_5">
      <path d="M 552.549672 72.964375 
L 552.549672 321.621875 
M 579.040483 72.964375 
L 579.040483 321.621875 
" clip-path="url(#p041fd8e305)" style="fill: none; stroke: #ffffff; stroke-width: 3; stroke-linejoin: miter"/>
      <path d="M 552.549672 72.964375 
L 552.549672 321.621875 
M 579.040483 72.964375 
L 579.040483 321.621875 
" clip-path="url(#p041fd8e305)" style="fill: none; stroke: #2ca02c; stroke-linejoin: miter"/>
      <g id="PolyCollection_3">
       <path d="M 579.040483 72.964375 
L 552.549672 72.964375 
L 552.549672 321.621875 
L 579.040483 321.621875 
L 579.040483 321.621875 
L 579.040483 72.964375 
z
" clip-path="url(#p041fd8e305)" style="fill: #2ca02c; fill-opacity: 0.5"/>
      </g>
      <g id="patch_6">
       <path d="M 439.99986 277.178375 
L 439.99986 321.621875 
M 457.91159 277.178375 
L 457.91159 321.621875 
" clip-path="url(#p041fd8e305)" style="fill: none; stroke: #ffffff; stroke-width: 3; stroke-linejoin: miter"/>
       <path d="M 439.99986 277.178375 
L 439.99986 321.621875 
M 457.91159 277.178375 
L 457.91159 321.621875 
" clip-path="url(#p041fd8e305)" style="fill: none; stroke: #d62728; stroke-linejoin: miter"/>
       <g id="PolyCollection_4">
        <path d="M 457.91159 277.178375 
L 439.99986 277.178375 
L 439.99986 321.621875 
L 457.91159 321.621875 
L 457.91159 321.621875 
L 457.91159 277.178375 
z
" clip-path="url(#p041fd8e305)" style="fill: #d62728; fill-opacity: 0.5"/>
       </g>
       <g id="matplotlib.axis_1">
        <g id="xtick_1">
         <g id="line2d_1"/>
         <g id="text_1">
          <!-- OUT -->
          <g transform="translate(146.208127 332.720312) scale(0.1 -0.1)">
           <defs>
            <path id="DejaVuSans-4f" d="M 2522 4238 
Q 1834 4238 1429 3725 
Q 1025 3213 1025 2328 
Q 1025 1447 1429 934 
Q 1834 422 2522 422 
Q 3209 422 3611 934 
Q 4013 1447 4013 2328 
Q 4013 3213 3611 3725 
Q 3209 4238 2522 4238 
z
M 2522 4750 
Q 3503 4750 4090 4092 
Q 4678 3434 4678 2328 
Q 4678 1225 4090 567 
Q 3503 -91 2522 -91 
Q 1538 -91 948 565 
Q 359 1222 359 2328 
Q 359 3434 948 4092 
Q 1538 4750 2522 4750 
z
" transform="scale(0.015625)"/>
            <path id="DejaVuSans-55" d="M 556 4666 
L 1191 4666 
L 1191 1831 
Q 1191 1081 1462 751 
Q 1734 422 2344 422 
Q 2950 422 3222 751 
Q 3494 1081 3494 1831 
L 3494 4666 
L 4128 4666 
L 4128 1753 
Q 4128 841 3676 375 
Q 3225 -91 2344 -91 
Q 1459 -91 1007 375 
Q 556 841 556 1753 
L 556 4666 
z
" transform="scale(0.015625)"/>
            <path id="DejaVuSans-54" d="M -19 4666 
L 3928 4666 
L 3928 4134 
L 2272 4134 
L 2272 0 
L 1638 0 
L 1638 4134 
L -19 4134 
L -19 4666 
z
" transform="scale(0.015625)"/>
           </defs>
           <use xlink:href="#DejaVuSans-4f"/>
           <use xlink:href="#DejaVuSans-55" x="78.710938"/>
           <use xlink:href="#DejaVuSans-54" x="151.904297"/>
          </g>
         </g>
        </g>
        <g id="xtick_2">
         <g id="line2d_2"/>
         <g id="text_2">
          <!-- SRC -->
          <g transform="translate(555.905234 332.720312) scale(0.1 -0.1)">
           <defs>
            <path id="DejaVuSans-53" d="M 3425 4513 
L 3425 3897 
Q 3066 4069 2747 4153 
Q 2428 4238 2131 4238 
Q 1616 4238 1336 4038 
Q 1056 3838 1056 3469 
Q 1056 3159 1242 3001 
Q 1428 2844 1947 2747 
L 2328 2669 
Q 3034 2534 3370 2195 
Q 3706 1856 3706 1288 
Q 3706 609 3251 259 
Q 2797 -91 1919 -91 
Q 1588 -91 1214 -16 
Q 841 59 441 206 
L 441 856 
Q 825 641 1194 531 
Q 1563 422 1919 422 
Q 2459 422 2753 634 
Q 3047 847 3047 1241 
Q 3047 1584 2836 1778 
Q 2625 1972 2144 2069 
L 1759 2144 
Q 1053 2284 737 2584 
Q 422 2884 422 3419 
Q 422 4038 858 4394 
Q 1294 4750 2059 4750 
Q 2388 4750 2728 4690 
Q 3069 4631 3425 4513 
z
" transform="scale(0.015625)"/>
            <path id="DejaVuSans-52" d="M 2841 2188 
Q 3044 2119 3236 1894 
Q 3428 1669 3622 1275 
L 4263 0 
L 3584 0 
L 2988 1197 
Q 2756 1666 2539 1819 
Q 2322 1972 1947 1972 
L 1259 1972 
L 1259 0 
L 628 0 
L 628 4666 
L 2053 4666 
Q 2853 4666 3247 4331 
Q 3641 3997 3641 3322 
Q 3641 2881 3436 2590 
Q 3231 2300 2841 2188 
z
M 1259 4147 
L 1259 2491 
L 2053 2491 
Q 2509 2491 2742 2702 
Q 2975 2913 2975 3322 
Q 2975 3731 2742 3939 
Q 2509 4147 2053 4147 
L 1259 4147 
z
" transform="scale(0.015625)"/>
            <path id="DejaVuSans-43" d="M 4122 4306 
L 4122 3641 
Q 3803 3938 3442 4084 
Q 3081 4231 2675 4231 
Q 1875 4231 1450 3742 
Q 1025 3253 1025 2328 
Q 1025 1406 1450 917 
Q 1875 428 2675 428 
Q 3081 428 3442 575 
Q 3803 722 4122 1019 
L 4122 359 
Q 3791 134 3420 21 
Q 3050 -91 2638 -91 
Q 1578 -91 968 557 
Q 359 1206 359 2328 
Q 359 3453 968 4101 
Q 1578 4750 2638 4750 
Q 3056 4750 3426 4639 
Q 3797 4528 4122 4306 
z
" transform="scale(0.015625)"/>
           </defs>
           <use xlink:href="#DejaVuSans-53"/>
           <use xlink:href="#DejaVuSans-52" x="63.476562"/>
           <use xlink:href="#DejaVuSans-43" x="127.958984"/>
          </g>
         </g>
        </g>
        <g id="xtick_3">
         <g id="line2d_3"/>
         <g id="text_3">
          <!-- TAR -->
          <g transform="translate(439.394788 332.720312) scale(0.1 -0.1)">
           <defs>
            <path id="DejaVuSans-41" d="M 2188 4044 
L 1331 1722 
L 3047 1722 
L 2188 4044 
z
M 1831 4666 
L 2547 4666 
L 4325 0 
L 3669 0 
L 3244 1197 
L 1141 1197 
L 716 0 
L 50 0 
L 1831 4666 
z
" transform="scale(0.015625)"/>
           </defs>
           <use xlink:href="#DejaVuSans-54"/>
           <use xlink:href="#DejaVuSans-41" x="53.333984"/>
           <use xlink:href="#DejaVuSans-52" x="121.742188"/>
          </g>
         </g>
        </g>
       </g>
       <g id="matplotlib.axis_2">
        <g id="ytick_1">
         <g id="line2d_4">
          <defs>
           <path id="m2ba5f07e73" d="M 0 0 
L -3.5 0 
" style="stroke: #000000; stroke-width: 0.8"/>
          </defs>
          <g>
           <use xlink:href="#m2ba5f07e73" x="63.290625" y="321.621875" style="stroke: #000000; stroke-width: 0.8"/>
          </g>
         </g>
         <g id="text_4">
          <!-- 0 -->
          <g transform="translate(49.928125 325.421094) scale(0.1 -0.1)">
           <defs>
            <path id="DejaVuSans-30" d="M 2034 4250 
Q 1547 4250 1301 3770 
Q 1056 3291 1056 2328 
Q 1056 1369 1301 889 
Q 1547 409 2034 409 
Q 2525 409 2770 889 
Q 3016 1369 3016 2328 
Q 3016 3291 2770 3770 
Q 2525 4250 2034 4250 
z
M 2034 4750 
Q 2819 4750 3233 4129 
Q 3647 3509 3647 2328 
Q 3647 1150 3233 529 
Q 2819 -91 2034 -91 
Q 1250 -91 836 529 
Q 422 1150 422 2328 
Q 422 3509 836 4129 
Q 1250 4750 2034 4750 
z
" transform="scale(0.015625)"/>
           </defs>
           <use xlink:href="#DejaVuSans-30"/>
          </g>
         </g>
        </g>
        <g id="ytick_2">
         <g id="line2d_5">
          <g>
           <use xlink:href="#m2ba5f07e73" x="63.290625" y="279.439358" style="stroke: #000000; stroke-width: 0.8"/>
          </g>
         </g>
         <g id="text_5">
          <!-- 2500 -->
          <g transform="translate(30.840625 283.238577) scale(0.1 -0.1)">
           <defs>
            <path id="DejaVuSans-32" d="M 1228 531 
L 3431 531 
L 3431 0 
L 469 0 
L 469 531 
Q 828 903 1448 1529 
Q 2069 2156 2228 2338 
Q 2531 2678 2651 2914 
Q 2772 3150 2772 3378 
Q 2772 3750 2511 3984 
Q 2250 4219 1831 4219 
Q 1534 4219 1204 4116 
Q 875 4013 500 3803 
L 500 4441 
Q 881 4594 1212 4672 
Q 1544 4750 1819 4750 
Q 2544 4750 2975 4387 
Q 3406 4025 3406 3419 
Q 3406 3131 3298 2873 
Q 3191 2616 2906 2266 
Q 2828 2175 2409 1742 
Q 1991 1309 1228 531 
z
" transform="scale(0.015625)"/>
            <path id="DejaVuSans-35" d="M 691 4666 
L 3169 4666 
L 3169 4134 
L 1269 4134 
L 1269 2991 
Q 1406 3038 1543 3061 
Q 1681 3084 1819 3084 
Q 2600 3084 3056 2656 
Q 3513 2228 3513 1497 
Q 3513 744 3044 326 
Q 2575 -91 1722 -91 
Q 1428 -91 1123 -41 
Q 819 9 494 109 
L 494 744 
Q 775 591 1075 516 
Q 1375 441 1709 441 
Q 2250 441 2565 725 
Q 2881 1009 2881 1497 
Q 2881 1984 2565 2268 
Q 2250 2553 1709 2553 
Q 1456 2553 1204 2497 
Q 953 2441 691 2322 
L 691 4666 
z
" transform="scale(0.015625)"/>
           </defs>
           <use xlink:href="#DejaVuSans-32"/>
           <use xlink:href="#DejaVuSans-35" x="63.623047"/>
           <use xlink:href="#DejaVuSans-30" x="127.246094"/>
           <use xlink:href="#DejaVuSans-30" x="190.869141"/>
          </g>
         </g>
        </g>
        <g id="ytick_3">
         <g id="line2d_6">
          <g>
           <use xlink:href="#m2ba5f07e73" x="63.290625" y="237.256841" style="stroke: #000000; stroke-width: 0.8"/>
          </g>
         </g>
         <g id="text_6">
          <!-- 5000 -->
          <g transform="translate(30.840625 241.05606) scale(0.1 -0.1)">
           <use xlink:href="#DejaVuSans-35"/>
           <use xlink:href="#DejaVuSans-30" x="63.623047"/>
           <use xlink:href="#DejaVuSans-30" x="127.246094"/>
           <use xlink:href="#DejaVuSans-30" x="190.869141"/>
          </g>
         </g>
        </g>
        <g id="ytick_4">
         <g id="line2d_7">
          <g>
           <use xlink:href="#m2ba5f07e73" x="63.290625" y="195.074325" style="stroke: #000000; stroke-width: 0.8"/>
          </g>
         </g>
         <g id="text_7">
          <!-- 7500 -->
          <g transform="translate(30.840625 198.873543) scale(0.1 -0.1)">
           <defs>
            <path id="DejaVuSans-37" d="M 525 4666 
L 3525 4666 
L 3525 4397 
L 1831 0 
L 1172 0 
L 2766 4134 
L 525 4134 
L 525 4666 
z
" transform="scale(0.015625)"/>
           </defs>
           <use xlink:href="#DejaVuSans-37"/>
           <use xlink:href="#DejaVuSans-35" x="63.623047"/>
           <use xlink:href="#DejaVuSans-30" x="127.246094"/>
           <use xlink:href="#DejaVuSans-30" x="190.869141"/>
          </g>
         </g>
        </g>
        <g id="ytick_5">
         <g id="line2d_8">
          <g>
           <use xlink:href="#m2ba5f07e73" x="63.290625" y="152.891808" style="stroke: #000000; stroke-width: 0.8"/>
          </g>
         </g>
         <g id="text_8">
          <!-- 10000 -->
          <g transform="translate(24.478125 156.691027) scale(0.1 -0.1)">
           <defs>
            <path id="DejaVuSans-31" d="M 794 531 
L 1825 531 
L 1825 4091 
L 703 3866 
L 703 4441 
L 1819 4666 
L 2450 4666 
L 2450 531 
L 3481 531 
L 3481 0 
L 794 0 
L 794 531 
z
" transform="scale(0.015625)"/>
           </defs>
           <use xlink:href="#DejaVuSans-31"/>
           <use xlink:href="#DejaVuSans-30" x="63.623047"/>
           <use xlink:href="#DejaVuSans-30" x="127.246094"/>
           <use xlink:href="#DejaVuSans-30" x="190.869141"/>
           <use xlink:href="#DejaVuSans-30" x="254.492188"/>
          </g>
         </g>
        </g>
        <g id="ytick_6">
         <g id="line2d_9">
          <g>
           <use xlink:href="#m2ba5f07e73" x="63.290625" y="110.709291" style="stroke: #000000; stroke-width: 0.8"/>
          </g>
         </g>
         <g id="text_9">
          <!-- 12500 -->
          <g transform="translate(24.478125 114.50851) scale(0.1 -0.1)">
           <use xlink:href="#DejaVuSans-31"/>
           <use xlink:href="#DejaVuSans-32" x="63.623047"/>
           <use xlink:href="#DejaVuSans-35" x="127.246094"/>
           <use xlink:href="#DejaVuSans-30" x="190.869141"/>
           <use xlink:href="#DejaVuSans-30" x="254.492188"/>
          </g>
         </g>
        </g>
        <g id="ytick_7">
         <g id="line2d_10">
          <g>
           <use xlink:href="#m2ba5f07e73" x="63.290625" y="68.526774" style="stroke: #000000; stroke-width: 0.8"/>
          </g>
         </g>
         <g id="text_10">
          <!-- 15000 -->
          <g transform="translate(24.478125 72.325993) scale(0.1 -0.1)">
           <use xlink:href="#DejaVuSans-31"/>
           <use xlink:href="#DejaVuSans-35" x="63.623047"/>
           <use xlink:href="#DejaVuSans-30" x="127.246094"/>
           <use xlink:href="#DejaVuSans-30" x="190.869141"/>
           <use xlink:href="#DejaVuSans-30" x="254.492188"/>
          </g>
         </g>
        </g>
        <g id="ytick_8">
         <g id="line2d_11">
          <g>
           <use xlink:href="#m2ba5f07e73" x="63.290625" y="26.344257" style="stroke: #000000; stroke-width: 0.8"/>
          </g>
         </g>
         <g id="text_11">
          <!-- 17500 -->
          <g transform="translate(24.478125 30.143476) scale(0.1 -0.1)">
           <use xlink:href="#DejaVuSans-31"/>
           <use xlink:href="#DejaVuSans-37" x="63.623047"/>
           <use xlink:href="#DejaVuSans-35" x="127.246094"/>
           <use xlink:href="#DejaVuSans-30" x="190.869141"/>
           <use xlink:href="#DejaVuSans-30" x="254.492188"/>
          </g>
         </g>
        </g>
        <g id="text_12">
         <!-- time ago (generations) -->
         <g transform="translate(18.398438 223.682031) rotate(-90) scale(0.1 -0.1)">
          <defs>
           <path id="DejaVuSans-74" d="M 1172 4494 
L 1172 3500 
L 2356 3500 
L 2356 3053 
L 1172 3053 
L 1172 1153 
Q 1172 725 1289 603 
Q 1406 481 1766 481 
L 2356 481 
L 2356 0 
L 1766 0 
Q 1100 0 847 248 
Q 594 497 594 1153 
L 594 3053 
L 172 3053 
L 172 3500 
L 594 3500 
L 594 4494 
L 1172 4494 
z
" transform="scale(0.015625)"/>
           <path id="DejaVuSans-69" d="M 603 3500 
L 1178 3500 
L 1178 0 
L 603 0 
L 603 3500 
z
M 603 4863 
L 1178 4863 
L 1178 4134 
L 603 4134 
L 603 4863 
z
" transform="scale(0.015625)"/>
           <path id="DejaVuSans-6d" d="M 3328 2828 
Q 3544 3216 3844 3400 
Q 4144 3584 4550 3584 
Q 5097 3584 5394 3201 
Q 5691 2819 5691 2113 
L 5691 0 
L 5113 0 
L 5113 2094 
Q 5113 2597 4934 2840 
Q 4756 3084 4391 3084 
Q 3944 3084 3684 2787 
Q 3425 2491 3425 1978 
L 3425 0 
L 2847 0 
L 2847 2094 
Q 2847 2600 2669 2842 
Q 2491 3084 2119 3084 
Q 1678 3084 1418 2786 
Q 1159 2488 1159 1978 
L 1159 0 
L 581 0 
L 581 3500 
L 1159 3500 
L 1159 2956 
Q 1356 3278 1631 3431 
Q 1906 3584 2284 3584 
Q 2666 3584 2933 3390 
Q 3200 3197 3328 2828 
z
" transform="scale(0.015625)"/>
           <path id="DejaVuSans-65" d="M 3597 1894 
L 3597 1613 
L 953 1613 
Q 991 1019 1311 708 
Q 1631 397 2203 397 
Q 2534 397 2845 478 
Q 3156 559 3463 722 
L 3463 178 
Q 3153 47 2828 -22 
Q 2503 -91 2169 -91 
Q 1331 -91 842 396 
Q 353 884 353 1716 
Q 353 2575 817 3079 
Q 1281 3584 2069 3584 
Q 2775 3584 3186 3129 
Q 3597 2675 3597 1894 
z
M 3022 2063 
Q 3016 2534 2758 2815 
Q 2500 3097 2075 3097 
Q 1594 3097 1305 2825 
Q 1016 2553 972 2059 
L 3022 2063 
z
" transform="scale(0.015625)"/>
           <path id="DejaVuSans-20" transform="scale(0.015625)"/>
           <path id="DejaVuSans-61" d="M 2194 1759 
Q 1497 1759 1228 1600 
Q 959 1441 959 1056 
Q 959 750 1161 570 
Q 1363 391 1709 391 
Q 2188 391 2477 730 
Q 2766 1069 2766 1631 
L 2766 1759 
L 2194 1759 
z
M 3341 1997 
L 3341 0 
L 2766 0 
L 2766 531 
Q 2569 213 2275 61 
Q 1981 -91 1556 -91 
Q 1019 -91 701 211 
Q 384 513 384 1019 
Q 384 1609 779 1909 
Q 1175 2209 1959 2209 
L 2766 2209 
L 2766 2266 
Q 2766 2663 2505 2880 
Q 2244 3097 1772 3097 
Q 1472 3097 1187 3025 
Q 903 2953 641 2809 
L 641 3341 
Q 956 3463 1253 3523 
Q 1550 3584 1831 3584 
Q 2591 3584 2966 3190 
Q 3341 2797 3341 1997 
z
" transform="scale(0.015625)"/>
           <path id="DejaVuSans-67" d="M 2906 1791 
Q 2906 2416 2648 2759 
Q 2391 3103 1925 3103 
Q 1463 3103 1205 2759 
Q 947 2416 947 1791 
Q 947 1169 1205 825 
Q 1463 481 1925 481 
Q 2391 481 2648 825 
Q 2906 1169 2906 1791 
z
M 3481 434 
Q 3481 -459 3084 -895 
Q 2688 -1331 1869 -1331 
Q 1566 -1331 1297 -1286 
Q 1028 -1241 775 -1147 
L 775 -588 
Q 1028 -725 1275 -790 
Q 1522 -856 1778 -856 
Q 2344 -856 2625 -561 
Q 2906 -266 2906 331 
L 2906 616 
Q 2728 306 2450 153 
Q 2172 0 1784 0 
Q 1141 0 747 490 
Q 353 981 353 1791 
Q 353 2603 747 3093 
Q 1141 3584 1784 3584 
Q 2172 3584 2450 3431 
Q 2728 3278 2906 2969 
L 2906 3500 
L 3481 3500 
L 3481 434 
z
" transform="scale(0.015625)"/>
           <path id="DejaVuSans-6f" d="M 1959 3097 
Q 1497 3097 1228 2736 
Q 959 2375 959 1747 
Q 959 1119 1226 758 
Q 1494 397 1959 397 
Q 2419 397 2687 759 
Q 2956 1122 2956 1747 
Q 2956 2369 2687 2733 
Q 2419 3097 1959 3097 
z
M 1959 3584 
Q 2709 3584 3137 3096 
Q 3566 2609 3566 1747 
Q 3566 888 3137 398 
Q 2709 -91 1959 -91 
Q 1206 -91 779 398 
Q 353 888 353 1747 
Q 353 2609 779 3096 
Q 1206 3584 1959 3584 
z
" transform="scale(0.015625)"/>
           <path id="DejaVuSans-28" d="M 1984 4856 
Q 1566 4138 1362 3434 
Q 1159 2731 1159 2009 
Q 1159 1288 1364 580 
Q 1569 -128 1984 -844 
L 1484 -844 
Q 1016 -109 783 600 
Q 550 1309 550 2009 
Q 550 2706 781 3412 
Q 1013 4119 1484 4856 
L 1984 4856 
z
" transform="scale(0.015625)"/>
           <path id="DejaVuSans-6e" d="M 3513 2113 
L 3513 0 
L 2938 0 
L 2938 2094 
Q 2938 2591 2744 2837 
Q 2550 3084 2163 3084 
Q 1697 3084 1428 2787 
Q 1159 2491 1159 1978 
L 1159 0 
L 581 0 
L 581 3500 
L 1159 3500 
L 1159 2956 
Q 1366 3272 1645 3428 
Q 1925 3584 2291 3584 
Q 2894 3584 3203 3211 
Q 3513 2838 3513 2113 
z
" transform="scale(0.015625)"/>
           <path id="DejaVuSans-72" d="M 2631 2963 
Q 2534 3019 2420 3045 
Q 2306 3072 2169 3072 
Q 1681 3072 1420 2755 
Q 1159 2438 1159 1844 
L 1159 0 
L 581 0 
L 581 3500 
L 1159 3500 
L 1159 2956 
Q 1341 3275 1631 3429 
Q 1922 3584 2338 3584 
Q 2397 3584 2469 3576 
Q 2541 3569 2628 3553 
L 2631 2963 
z
" transform="scale(0.015625)"/>
           <path id="DejaVuSans-73" d="M 2834 3397 
L 2834 2853 
Q 2591 2978 2328 3040 
Q 2066 3103 1784 3103 
Q 1356 3103 1142 2972 
Q 928 2841 928 2578 
Q 928 2378 1081 2264 
Q 1234 2150 1697 2047 
L 1894 2003 
Q 2506 1872 2764 1633 
Q 3022 1394 3022 966 
Q 3022 478 2636 193 
Q 2250 -91 1575 -91 
Q 1294 -91 989 -36 
Q 684 19 347 128 
L 347 722 
Q 666 556 975 473 
Q 1284 391 1588 391 
Q 1994 391 2212 530 
Q 2431 669 2431 922 
Q 2431 1156 2273 1281 
Q 2116 1406 1581 1522 
L 1381 1569 
Q 847 1681 609 1914 
Q 372 2147 372 2553 
Q 372 3047 722 3315 
Q 1072 3584 1716 3584 
Q 2034 3584 2315 3537 
Q 2597 3491 2834 3397 
z
" transform="scale(0.015625)"/>
           <path id="DejaVuSans-29" d="M 513 4856 
L 1013 4856 
Q 1481 4119 1714 3412 
Q 1947 2706 1947 2009 
Q 1947 1309 1714 600 
Q 1481 -109 1013 -844 
L 513 -844 
Q 928 -128 1133 580 
Q 1338 1288 1338 2009 
Q 1338 2731 1133 3434 
Q 928 4138 513 4856 
z
" transform="scale(0.015625)"/>
          </defs>
          <use xlink:href="#DejaVuSans-74"/>
          <use xlink:href="#DejaVuSans-69" x="39.208984"/>
          <use xlink:href="#DejaVuSans-6d" x="66.992188"/>
          <use xlink:href="#DejaVuSans-65" x="164.404297"/>
          <use xlink:href="#DejaVuSans-20" x="225.927734"/>
          <use xlink:href="#DejaVuSans-61" x="257.714844"/>
          <use xlink:href="#DejaVuSans-67" x="318.994141"/>
          <use xlink:href="#DejaVuSans-6f" x="382.470703"/>
          <use xlink:href="#DejaVuSans-20" x="443.652344"/>
          <use xlink:href="#DejaVuSans-28" x="475.439453"/>
          <use xlink:href="#DejaVuSans-67" x="514.453125"/>
          <use xlink:href="#DejaVuSans-65" x="577.929688"/>
          <use xlink:href="#DejaVuSans-6e" x="639.453125"/>
          <use xlink:href="#DejaVuSans-65" x="702.832031"/>
          <use xlink:href="#DejaVuSans-72" x="764.355469"/>
          <use xlink:href="#DejaVuSans-61" x="805.46875"/>
          <use xlink:href="#DejaVuSans-74" x="866.748047"/>
          <use xlink:href="#DejaVuSans-69" x="905.957031"/>
          <use xlink:href="#DejaVuSans-6f" x="933.740234"/>
          <use xlink:href="#DejaVuSans-6e" x="994.921875"/>
          <use xlink:href="#DejaVuSans-73" x="1058.300781"/>
          <use xlink:href="#DejaVuSans-29" x="1110.400391"/>
         </g>
        </g>
       </g>
       <g id="patch_7">
        <path d="M 304.075746 266.329032 
L 303.075746 266.297596 
L 302.075746 266.260655 
L 301.075746 266.162909 
L 300.075746 266.130387 
L 299.075746 266.056762 
L 298.075746 266.018197 
L 297.075746 265.982784 
L 296.075746 265.925144 
L 295.075746 265.854758 
L 294.075746 265.802793 
L 293.075746 265.743704 
L 292.075746 265.655383 
L 291.075746 265.609238 
L 290.075746 265.566827 
L 289.075746 265.536335 
L 288.075746 265.51029 
L 287.075746 265.48909 
L 286.075746 265.434789 
L 285.075746 265.406851 
L 284.075746 265.377127 
L 283.075746 265.351732 
L 282.075746 265.340532 
L 281.075746 265.330408 
L 280.075746 265.330612 
L 279.075746 265.340122 
L 278.075746 265.351776 
L 277.075746 265.382805 
L 276.075746 265.393973 
L 275.075746 265.42409 
L 274.075746 265.483867 
L 273.075746 265.521059 
L 272.075746 265.560155 
L 271.075746 265.602595 
L 270.075746 265.63536 
L 269.075746 265.702786 
L 268.075746 265.741912 
L 267.075746 265.784587 
L 266.075746 265.855167 
L 265.075746 265.891558 
L 264.075746 265.949961 
L 263.075746 266.060914 
L 262.075746 266.131572 
L 261.075746 266.244512 
L 260.075746 266.290285 
L 259.075746 266.351568 
L 258.075746 266.400067 
L 257.075746 266.48089 
L 256.075746 266.599409 
L 255.075746 266.66962 
L 254.075746 266.752882 
L 253.075746 266.786024 
L 252.075746 266.837261 
L 251.075746 266.90566 
L 250.075746 266.971875 
L 249.075746 267.048792 
L 248.075746 267.076107 
L 247.075746 267.102585 
L 246.075746 267.125236 
L 245.075746 267.144767 
L 244.075746 267.171161 
L 243.075746 267.220932 
L 242.075746 267.256005 
L 241.075746 267.291871 
L 240.075746 267.307238 
L 239.075746 267.323007 
L 238.075746 267.32642 
L 237.075746 267.328837 
L 236.075746 267.328351 
L 235.075746 267.326422 
L 234.075746 267.313165 
L 233.075746 267.304774 
L 232.075746 267.283238 
L 231.075746 267.260205 
L 230.075746 267.242972 
L 228.982735 267.224509 
" clip-path="url(#p041fd8e305)" style="fill: none; stroke: #ffffff; stroke-width: 3; stroke-linecap: round"/>
        <path d="M 304.075746 266.329032 
L 303.075746 266.297596 
L 302.075746 266.260655 
L 301.075746 266.162909 
L 300.075746 266.130387 
L 299.075746 266.056762 
L 298.075746 266.018197 
L 297.075746 265.982784 
L 296.075746 265.925144 
L 295.075746 265.854758 
L 294.075746 265.802793 
L 293.075746 265.743704 
L 292.075746 265.655383 
L 291.075746 265.609238 
L 290.075746 265.566827 
L 289.075746 265.536335 
L 288.075746 265.51029 
L 287.075746 265.48909 
L 286.075746 265.434789 
L 285.075746 265.406851 
L 284.075746 265.377127 
L 283.075746 265.351732 
L 282.075746 265.340532 
L 281.075746 265.330408 
L 280.075746 265.330612 
L 279.075746 265.340122 
L 278.075746 265.351776 
L 277.075746 265.382805 
L 276.075746 265.393973 
L 275.075746 265.42409 
L 274.075746 265.483867 
L 273.075746 265.521059 
L 272.075746 265.560155 
L 271.075746 265.602595 
L 270.075746 265.63536 
L 269.075746 265.702786 
L 268.075746 265.741912 
L 267.075746 265.784587 
L 266.075746 265.855167 
L 265.075746 265.891558 
L 264.075746 265.949961 
L 263.075746 266.060914 
L 262.075746 266.131572 
L 261.075746 266.244512 
L 260.075746 266.290285 
L 259.075746 266.351568 
L 258.075746 266.400067 
L 257.075746 266.48089 
L 256.075746 266.599409 
L 255.075746 266.66962 
L 254.075746 266.752882 
L 253.075746 266.786024 
L 252.075746 266.837261 
L 251.075746 266.90566 
L 250.075746 266.971875 
L 249.075746 267.048792 
L 248.075746 267.076107 
L 247.075746 267.102585 
L 246.075746 267.125236 
L 245.075746 267.144767 
L 244.075746 267.171161 
L 243.075746 267.220932 
L 242.075746 267.256005 
L 241.075746 267.291871 
L 240.075746 267.307238 
L 239.075746 267.323007 
L 238.075746 267.32642 
L 237.075746 267.328837 
L 236.075746 267.328351 
L 235.075746 267.326422 
L 234.075746 267.313165 
L 233.075746 267.304774 
L 232.075746 267.283238 
L 231.075746 267.260205 
L 230.075746 267.242972 
L 228.982735 267.224509 
" clip-path="url(#p041fd8e305)" style="fill: none; stroke: #1f77b4; stroke-linecap: round"/>
        <path d="M 232.982735 268.329032 
L 232.102367 267.853701 
L 231.22446 267.373447 
L 230.373746 266.838806 
L 229.071572 266.151359 
L 229.998925 266.125344 
L 230.910599 265.712624 
L 231.820864 265.297085 
L 233.163359 264.690281 
L 232.508461 265.329032 
L 232.456496 266.329032 
L 232.397407 268.329032 
z
" clip-path="url(#p041fd8e305)" style="fill: #ffffff; stroke: #ffffff; stroke-width: 3; stroke-linecap: round"/>
        <path d="M 232.982735 268.329032 
L 232.102367 267.853701 
L 231.22446 267.373447 
L 230.373746 266.838806 
L 229.071572 266.151359 
L 229.998925 266.125344 
L 230.910599 265.712624 
L 231.820864 265.297085 
L 233.163359 264.690281 
L 232.508461 265.329032 
L 232.456496 266.329032 
L 232.397407 268.329032 
z
" clip-path="url(#p041fd8e305)" style="fill: #ffffff; stroke: #1f77b4; stroke-linecap: round"/>
        <g id="patch_8">
         <path d="M 360.156806 72.964375 
L 361.156806 72.995811 
L 362.156806 73.032752 
L 363.156806 73.130498 
L 364.156806 73.16302 
L 365.156806 73.236645 
L 366.156806 73.27521 
L 367.156806 73.310623 
L 368.156806 73.368263 
L 369.156806 73.438649 
L 370.156806 73.490614 
L 371.156806 73.549703 
L 372.156806 73.638024 
L 373.156806 73.684169 
L 374.156806 73.72658 
L 375.156806 73.757072 
L 376.156806 73.783117 
L 377.156806 73.804317 
L 378.156806 73.858618 
L 379.156806 73.886556 
L 380.156806 73.91628 
L 381.156806 73.941675 
L 382.156806 73.952875 
L 383.156806 73.962999 
L 384.156806 73.962795 
L 385.156806 73.953285 
L 386.156806 73.941631 
L 387.156806 73.910602 
L 388.156806 73.899434 
L 389.156806 73.869317 
L 390.156806 73.80954 
L 391.156806 73.772348 
L 392.156806 73.733252 
L 393.156806 73.690812 
L 394.156806 73.658047 
L 395.156806 73.590621 
L 396.156806 73.551495 
L 397.156806 73.50882 
L 398.156806 73.43824 
L 399.156806 73.401849 
L 400.156806 73.343446 
L 401.156806 73.232493 
L 402.156806 73.161835 
L 403.156806 73.048895 
L 404.156806 73.003122 
L 405.156806 72.941839 
L 406.156806 72.89334 
L 407.156806 72.812517 
L 408.156806 72.693998 
L 409.156806 72.623787 
L 410.156806 72.540525 
L 411.156806 72.507383 
L 412.156806 72.456146 
L 413.156806 72.387747 
L 414.156806 72.321532 
L 415.156806 72.244615 
L 416.156806 72.217299 
L 417.156806 72.190822 
L 418.156806 72.168171 
L 419.156806 72.14864 
L 420.156806 72.122246 
L 421.156806 72.072475 
L 422.156806 72.037402 
L 423.156806 72.001536 
L 424.156806 71.986169 
L 425.156806 71.9704 
L 426.156806 71.966987 
L 427.156806 71.96457 
L 428.156806 71.965056 
L 429.156806 71.966985 
L 430.156806 71.980242 
L 431.156806 71.988633 
L 432.156806 72.010169 
L 433.156806 72.033202 
L 434.156806 72.050435 
L 435.156806 72.068898 
L 436.156806 72.08935 
L 437.156806 72.10595 
L 438.156806 72.168729 
L 439.156806 72.243994 
L 440.156806 72.276633 
L 441.156806 72.344197 
L 442.156806 72.398244 
L 443.156806 72.431948 
L 444.156806 72.522074 
L 445.156806 72.550609 
L 446.156806 72.582095 
L 447.156806 72.613106 
L 448.156806 72.667914 
L 449.156806 72.732501 
L 450.156806 72.770697 
L 451.156806 72.866631 
L 452.156806 72.915889 
L 453.156806 72.959958 
L 454.156806 73.000082 
L 455.156806 73.108449 
L 456.156806 73.150077 
L 457.156806 73.212219 
L 458.156806 73.282181 
L 459.156806 73.386685 
L 460.156806 73.423673 
L 461.156806 73.46955 
L 462.156806 73.538045 
L 463.156806 73.586791 
L 464.156806 73.664388 
L 465.156806 73.694929 
L 466.156806 73.764443 
L 467.156806 73.788416 
L 468.156806 73.817038 
L 469.156806 73.858831 
L 470.156806 73.880407 
L 471.156806 73.894355 
L 472.156806 73.921077 
L 473.156806 73.930387 
L 474.156806 73.942834 
L 475.156806 73.953889 
L 476.156806 73.959553 
L 477.156806 73.964317 
L 478.156806 73.958769 
L 479.156806 73.945481 
L 480.156806 73.937964 
L 481.156806 73.913179 
L 482.156806 73.88961 
L 483.156806 73.85343 
L 484.156806 73.827468 
L 485.156806 73.805146 
L 486.156806 73.736386 
L 487.156806 73.661851 
L 488.156806 73.567872 
L 489.156806 73.51682 
L 490.156806 73.462886 
L 491.156806 73.427635 
L 492.156806 73.321547 
L 493.156806 73.269283 
L 494.156806 73.232376 
L 495.156806 73.201345 
L 496.156806 73.14019 
L 497.156806 73.07277 
L 498.156806 73.023864 
L 499.156806 72.958672 
L 500.156806 72.920484 
L 501.156806 72.878488 
L 502.156806 72.836471 
L 503.156806 72.776955 
L 504.156806 72.663795 
L 505.156806 72.611544 
L 506.156806 72.572126 
L 507.156806 72.525025 
L 508.156806 72.468245 
L 509.156806 72.435582 
L 510.156806 72.399404 
L 511.156806 72.367314 
L 512.156806 72.333034 
L 513.156806 72.274656 
L 514.156806 72.229471 
L 515.156806 72.199847 
L 516.156806 72.149461 
L 517.156806 72.124264 
L 518.156806 72.103213 
L 519.156806 72.068245 
L 520.156806 72.043955 
L 521.156806 72.029888 
L 522.156806 72.010946 
L 523.156806 71.995285 
L 524.156806 71.982733 
L 525.156806 71.976897 
L 526.156806 71.970015 
L 527.156806 71.964841 
L 528.156806 71.966624 
L 529.156806 71.969349 
L 530.156806 71.980503 
L 531.156806 72.008738 
L 532.156806 72.052526 
L 533.156806 72.073215 
L 534.156806 72.114188 
L 535.156806 72.154263 
L 536.156806 72.173373 
L 537.156806 72.195882 
L 538.156806 72.262533 
L 539.156806 72.312243 
L 540.156806 72.385949 
L 541.156806 72.417263 
L 542.156806 72.493885 
L 543.156806 72.532183 
L 544.156806 72.6063 
L 545.156806 72.710358 
L 546.156806 72.780189 
L 547.156806 72.885423 
L 548.156806 72.940438 
L 549.432438 73.063913 
" clip-path="url(#p041fd8e305)" style="fill: none; stroke: #ffffff; stroke-width: 3; stroke-linecap: round"/>
         <path d="M 360.156806 72.964375 
L 361.156806 72.995811 
L 362.156806 73.032752 
L 363.156806 73.130498 
L 364.156806 73.16302 
L 365.156806 73.236645 
L 366.156806 73.27521 
L 367.156806 73.310623 
L 368.156806 73.368263 
L 369.156806 73.438649 
L 370.156806 73.490614 
L 371.156806 73.549703 
L 372.156806 73.638024 
L 373.156806 73.684169 
L 374.156806 73.72658 
L 375.156806 73.757072 
L 376.156806 73.783117 
L 377.156806 73.804317 
L 378.156806 73.858618 
L 379.156806 73.886556 
L 380.156806 73.91628 
L 381.156806 73.941675 
L 382.156806 73.952875 
L 383.156806 73.962999 
L 384.156806 73.962795 
L 385.156806 73.953285 
L 386.156806 73.941631 
L 387.156806 73.910602 
L 388.156806 73.899434 
L 389.156806 73.869317 
L 390.156806 73.80954 
L 391.156806 73.772348 
L 392.156806 73.733252 
L 393.156806 73.690812 
L 394.156806 73.658047 
L 395.156806 73.590621 
L 396.156806 73.551495 
L 397.156806 73.50882 
L 398.156806 73.43824 
L 399.156806 73.401849 
L 400.156806 73.343446 
L 401.156806 73.232493 
L 402.156806 73.161835 
L 403.156806 73.048895 
L 404.156806 73.003122 
L 405.156806 72.941839 
L 406.156806 72.89334 
L 407.156806 72.812517 
L 408.156806 72.693998 
L 409.156806 72.623787 
L 410.156806 72.540525 
L 411.156806 72.507383 
L 412.156806 72.456146 
L 413.156806 72.387747 
L 414.156806 72.321532 
L 415.156806 72.244615 
L 416.156806 72.217299 
L 417.156806 72.190822 
L 418.156806 72.168171 
L 419.156806 72.14864 
L 420.156806 72.122246 
L 421.156806 72.072475 
L 422.156806 72.037402 
L 423.156806 72.001536 
L 424.156806 71.986169 
L 425.156806 71.9704 
L 426.156806 71.966987 
L 427.156806 71.96457 
L 428.156806 71.965056 
L 429.156806 71.966985 
L 430.156806 71.980242 
L 431.156806 71.988633 
L 432.156806 72.010169 
L 433.156806 72.033202 
L 434.156806 72.050435 
L 435.156806 72.068898 
L 436.156806 72.08935 
L 437.156806 72.10595 
L 438.156806 72.168729 
L 439.156806 72.243994 
L 440.156806 72.276633 
L 441.156806 72.344197 
L 442.156806 72.398244 
L 443.156806 72.431948 
L 444.156806 72.522074 
L 445.156806 72.550609 
L 446.156806 72.582095 
L 447.156806 72.613106 
L 448.156806 72.667914 
L 449.156806 72.732501 
L 450.156806 72.770697 
L 451.156806 72.866631 
L 452.156806 72.915889 
L 453.156806 72.959958 
L 454.156806 73.000082 
L 455.156806 73.108449 
L 456.156806 73.150077 
L 457.156806 73.212219 
L 458.156806 73.282181 
L 459.156806 73.386685 
L 460.156806 73.423673 
L 461.156806 73.46955 
L 462.156806 73.538045 
L 463.156806 73.586791 
L 464.156806 73.664388 
L 465.156806 73.694929 
L 466.156806 73.764443 
L 467.156806 73.788416 
L 468.156806 73.817038 
L 469.156806 73.858831 
L 470.156806 73.880407 
L 471.156806 73.894355 
L 472.156806 73.921077 
L 473.156806 73.930387 
L 474.156806 73.942834 
L 475.156806 73.953889 
L 476.156806 73.959553 
L 477.156806 73.964317 
L 478.156806 73.958769 
L 479.156806 73.945481 
L 480.156806 73.937964 
L 481.156806 73.913179 
L 482.156806 73.88961 
L 483.156806 73.85343 
L 484.156806 73.827468 
L 485.156806 73.805146 
L 486.156806 73.736386 
L 487.156806 73.661851 
L 488.156806 73.567872 
L 489.156806 73.51682 
L 490.156806 73.462886 
L 491.156806 73.427635 
L 492.156806 73.321547 
L 493.156806 73.269283 
L 494.156806 73.232376 
L 495.156806 73.201345 
L 496.156806 73.14019 
L 497.156806 73.07277 
L 498.156806 73.023864 
L 499.156806 72.958672 
L 500.156806 72.920484 
L 501.156806 72.878488 
L 502.156806 72.836471 
L 503.156806 72.776955 
L 504.156806 72.663795 
L 505.156806 72.611544 
L 506.156806 72.572126 
L 507.156806 72.525025 
L 508.156806 72.468245 
L 509.156806 72.435582 
L 510.156806 72.399404 
L 511.156806 72.367314 
L 512.156806 72.333034 
L 513.156806 72.274656 
L 514.156806 72.229471 
L 515.156806 72.199847 
L 516.156806 72.149461 
L 517.156806 72.124264 
L 518.156806 72.103213 
L 519.156806 72.068245 
L 520.156806 72.043955 
L 521.156806 72.029888 
L 522.156806 72.010946 
L 523.156806 71.995285 
L 524.156806 71.982733 
L 525.156806 71.976897 
L 526.156806 71.970015 
L 527.156806 71.964841 
L 528.156806 71.966624 
L 529.156806 71.969349 
L 530.156806 71.980503 
L 531.156806 72.008738 
L 532.156806 72.052526 
L 533.156806 72.073215 
L 534.156806 72.114188 
L 535.156806 72.154263 
L 536.156806 72.173373 
L 537.156806 72.195882 
L 538.156806 72.262533 
L 539.156806 72.312243 
L 540.156806 72.385949 
L 541.156806 72.417263 
L 542.156806 72.493885 
L 543.156806 72.532183 
L 544.156806 72.6063 
L 545.156806 72.710358 
L 546.156806 72.780189 
L 547.156806 72.885423 
L 548.156806 72.940438 
L 549.432438 73.063913 
" clip-path="url(#p041fd8e305)" style="fill: none; stroke: #1f77b4; stroke-linecap: round"/>
         <path d="M 545.432438 70.964375 
L 546.312807 71.439706 
L 547.190713 71.91996 
L 548.041427 72.454601 
L 549.343601 73.142048 
L 548.416248 73.168063 
L 547.504574 73.580783 
L 546.59431 73.996322 
L 545.251814 74.603126 
L 545.906713 73.964375 
L 545.958677 72.964375 
L 546.017767 70.964375 
z
" clip-path="url(#p041fd8e305)" style="fill: #ffffff; stroke: #ffffff; stroke-width: 3; stroke-linecap: round"/>
         <path d="M 545.432438 70.964375 
L 546.312807 71.439706 
L 547.190713 71.91996 
L 548.041427 72.454601 
L 549.343601 73.142048 
L 548.416248 73.168063 
L 547.504574 73.580783 
L 546.59431 73.996322 
L 545.251814 74.603126 
L 545.906713 73.964375 
L 545.958677 72.964375 
L 546.017767 70.964375 
z
" clip-path="url(#p041fd8e305)" style="fill: #ffffff; stroke: #1f77b4; stroke-linecap: round"/>
         <g id="patch_9">
          <path d="M 227.867493 277.178375 
L 228.867493 277.209812 
L 229.867493 277.246752 
L 230.867493 277.344499 
L 231.867493 277.37702 
L 232.867493 277.450645 
L 233.867493 277.489211 
L 234.867493 277.524624 
L 235.867493 277.582264 
L 236.867493 277.65265 
L 237.867493 277.704614 
L 238.867493 277.763704 
L 239.867493 277.852025 
L 240.867493 277.898169 
L 241.867493 277.94058 
L 242.867493 277.971073 
L 243.867493 277.997118 
L 244.867493 278.018318 
L 245.867493 278.072619 
L 246.867493 278.100556 
L 247.867493 278.13028 
L 248.867493 278.155675 
L 249.867493 278.166876 
L 250.867493 278.177 
L 251.867493 278.176795 
L 252.867493 278.167285 
L 253.867493 278.155632 
L 254.867493 278.124602 
L 255.867493 278.113435 
L 256.867493 278.083317 
L 257.867493 278.02354 
L 258.867493 277.986349 
L 259.867493 277.947252 
L 260.867493 277.904813 
L 261.867493 277.872048 
L 262.867493 277.804621 
L 263.867493 277.765495 
L 264.867493 277.722821 
L 265.867493 277.65224 
L 266.867493 277.615849 
L 267.867493 277.557446 
L 268.867493 277.446494 
L 269.867493 277.375835 
L 270.867493 277.262895 
L 271.867493 277.217123 
L 272.867493 277.155839 
L 273.867493 277.10734 
L 274.867493 277.026517 
L 275.867493 276.907998 
L 276.867493 276.837788 
L 277.867493 276.754525 
L 278.867493 276.721383 
L 279.867493 276.670146 
L 280.867493 276.601748 
L 281.867493 276.535532 
L 282.867493 276.458615 
L 283.867493 276.4313 
L 284.867493 276.404822 
L 285.867493 276.382172 
L 286.867493 276.36264 
L 287.867493 276.336246 
L 288.867493 276.286476 
L 289.867493 276.251402 
L 290.867493 276.215537 
L 291.867493 276.200169 
L 292.867493 276.1844 
L 293.867493 276.180988 
L 294.867493 276.17857 
L 295.867493 276.179056 
L 296.867493 276.180985 
L 297.867493 276.194242 
L 298.867493 276.202633 
L 299.867493 276.22417 
L 300.867493 276.247202 
L 301.867493 276.264436 
L 302.867493 276.282898 
L 303.867493 276.303351 
L 304.867493 276.319951 
L 305.867493 276.382729 
L 306.867493 276.457994 
L 307.867493 276.490633 
L 308.867493 276.558197 
L 309.867493 276.612244 
L 310.867493 276.645948 
L 311.867493 276.736074 
L 312.867493 276.764609 
L 313.867493 276.796096 
L 314.867493 276.827106 
L 315.867493 276.881914 
L 316.867493 276.946502 
L 317.867493 276.984697 
L 318.867493 277.080631 
L 319.867493 277.129889 
L 320.867493 277.173959 
L 321.867493 277.214082 
L 322.867493 277.322449 
L 323.867493 277.364077 
L 324.867493 277.426219 
L 325.867493 277.496181 
L 326.867493 277.600686 
L 327.867493 277.637673 
L 328.867493 277.683551 
L 329.867493 277.752045 
L 330.867493 277.800791 
L 331.867493 277.878388 
L 332.867493 277.908929 
L 333.867493 277.978444 
L 334.867493 278.002417 
L 335.867493 278.031038 
L 336.867493 278.072831 
L 337.867493 278.094407 
L 338.867493 278.108355 
L 339.867493 278.135078 
L 340.867493 278.144387 
L 341.867493 278.156834 
L 342.867493 278.167889 
L 343.867493 278.173554 
L 344.867493 278.178317 
L 345.867493 278.17277 
L 346.867493 278.159482 
L 347.867493 278.151964 
L 348.867493 278.127179 
L 349.867493 278.103611 
L 350.867493 278.06743 
L 351.867493 278.041468 
L 352.867493 278.019147 
L 353.867493 277.950387 
L 354.867493 277.875852 
L 355.867493 277.781872 
L 356.867493 277.73082 
L 357.867493 277.676886 
L 358.867493 277.641636 
L 359.867493 277.535548 
L 360.867493 277.483283 
L 361.867493 277.446377 
L 362.867493 277.415346 
L 363.867493 277.35419 
L 364.867493 277.28677 
L 365.867493 277.237864 
L 366.867493 277.172672 
L 367.867493 277.134485 
L 368.867493 277.092489 
L 369.867493 277.050471 
L 370.867493 276.990955 
L 371.867493 276.877795 
L 372.867493 276.825544 
L 373.867493 276.786127 
L 374.867493 276.739025 
L 375.867493 276.682246 
L 376.867493 276.649583 
L 377.867493 276.613405 
L 378.867493 276.581314 
L 379.867493 276.547034 
L 380.867493 276.488656 
L 381.867493 276.443471 
L 382.867493 276.413848 
L 383.867493 276.363462 
L 384.867493 276.338264 
L 385.867493 276.317213 
L 386.867493 276.282245 
L 387.867493 276.257955 
L 388.867493 276.243888 
L 389.867493 276.224947 
L 390.867493 276.209285 
L 391.867493 276.196733 
L 392.867493 276.190898 
L 393.867493 276.184015 
L 394.867493 276.178841 
L 395.867493 276.180624 
L 396.867493 276.18335 
L 397.867493 276.194503 
L 398.867493 276.222738 
L 399.867493 276.266526 
L 400.867493 276.287215 
L 401.867493 276.328189 
L 402.867493 276.368264 
L 403.867493 276.387373 
L 404.867493 276.409882 
L 405.867493 276.476534 
L 406.867493 276.526243 
L 407.867493 276.59995 
L 408.867493 276.631263 
L 409.867493 276.707885 
L 410.867493 276.746184 
L 411.867493 276.8203 
L 412.867493 276.924359 
L 413.867493 276.994189 
L 414.867493 277.099423 
L 415.867493 277.154438 
L 416.867493 277.277913 
L 417.867493 277.348472 
L 418.867493 277.464312 
L 419.867493 277.514492 
L 420.867493 277.550097 
L 421.867493 277.641503 
L 422.867493 277.695011 
L 423.867493 277.782919 
L 424.867493 277.852104 
L 425.867493 277.898869 
L 426.867493 277.970912 
L 427.867493 278.021054 
L 428.867493 278.038444 
L 429.867493 278.065447 
L 430.867493 278.084875 
L 431.867493 278.104213 
L 432.867493 278.142461 
L 433.867493 278.158895 
L 434.867493 278.167263 
L 435.867493 278.171582 
L 436.884669 278.178138 
" clip-path="url(#p041fd8e305)" style="fill: none; stroke: #ffffff; stroke-width: 3; stroke-linecap: round"/>
          <path d="M 227.867493 277.178375 
L 228.867493 277.209812 
L 229.867493 277.246752 
L 230.867493 277.344499 
L 231.867493 277.37702 
L 232.867493 277.450645 
L 233.867493 277.489211 
L 234.867493 277.524624 
L 235.867493 277.582264 
L 236.867493 277.65265 
L 237.867493 277.704614 
L 238.867493 277.763704 
L 239.867493 277.852025 
L 240.867493 277.898169 
L 241.867493 277.94058 
L 242.867493 277.971073 
L 243.867493 277.997118 
L 244.867493 278.018318 
L 245.867493 278.072619 
L 246.867493 278.100556 
L 247.867493 278.13028 
L 248.867493 278.155675 
L 249.867493 278.166876 
L 250.867493 278.177 
L 251.867493 278.176795 
L 252.867493 278.167285 
L 253.867493 278.155632 
L 254.867493 278.124602 
L 255.867493 278.113435 
L 256.867493 278.083317 
L 257.867493 278.02354 
L 258.867493 277.986349 
L 259.867493 277.947252 
L 260.867493 277.904813 
L 261.867493 277.872048 
L 262.867493 277.804621 
L 263.867493 277.765495 
L 264.867493 277.722821 
L 265.867493 277.65224 
L 266.867493 277.615849 
L 267.867493 277.557446 
L 268.867493 277.446494 
L 269.867493 277.375835 
L 270.867493 277.262895 
L 271.867493 277.217123 
L 272.867493 277.155839 
L 273.867493 277.10734 
L 274.867493 277.026517 
L 275.867493 276.907998 
L 276.867493 276.837788 
L 277.867493 276.754525 
L 278.867493 276.721383 
L 279.867493 276.670146 
L 280.867493 276.601748 
L 281.867493 276.535532 
L 282.867493 276.458615 
L 283.867493 276.4313 
L 284.867493 276.404822 
L 285.867493 276.382172 
L 286.867493 276.36264 
L 287.867493 276.336246 
L 288.867493 276.286476 
L 289.867493 276.251402 
L 290.867493 276.215537 
L 291.867493 276.200169 
L 292.867493 276.1844 
L 293.867493 276.180988 
L 294.867493 276.17857 
L 295.867493 276.179056 
L 296.867493 276.180985 
L 297.867493 276.194242 
L 298.867493 276.202633 
L 299.867493 276.22417 
L 300.867493 276.247202 
L 301.867493 276.264436 
L 302.867493 276.282898 
L 303.867493 276.303351 
L 304.867493 276.319951 
L 305.867493 276.382729 
L 306.867493 276.457994 
L 307.867493 276.490633 
L 308.867493 276.558197 
L 309.867493 276.612244 
L 310.867493 276.645948 
L 311.867493 276.736074 
L 312.867493 276.764609 
L 313.867493 276.796096 
L 314.867493 276.827106 
L 315.867493 276.881914 
L 316.867493 276.946502 
L 317.867493 276.984697 
L 318.867493 277.080631 
L 319.867493 277.129889 
L 320.867493 277.173959 
L 321.867493 277.214082 
L 322.867493 277.322449 
L 323.867493 277.364077 
L 324.867493 277.426219 
L 325.867493 277.496181 
L 326.867493 277.600686 
L 327.867493 277.637673 
L 328.867493 277.683551 
L 329.867493 277.752045 
L 330.867493 277.800791 
L 331.867493 277.878388 
L 332.867493 277.908929 
L 333.867493 277.978444 
L 334.867493 278.002417 
L 335.867493 278.031038 
L 336.867493 278.072831 
L 337.867493 278.094407 
L 338.867493 278.108355 
L 339.867493 278.135078 
L 340.867493 278.144387 
L 341.867493 278.156834 
L 342.867493 278.167889 
L 343.867493 278.173554 
L 344.867493 278.178317 
L 345.867493 278.17277 
L 346.867493 278.159482 
L 347.867493 278.151964 
L 348.867493 278.127179 
L 349.867493 278.103611 
L 350.867493 278.06743 
L 351.867493 278.041468 
L 352.867493 278.019147 
L 353.867493 277.950387 
L 354.867493 277.875852 
L 355.867493 277.781872 
L 356.867493 277.73082 
L 357.867493 277.676886 
L 358.867493 277.641636 
L 359.867493 277.535548 
L 360.867493 277.483283 
L 361.867493 277.446377 
L 362.867493 277.415346 
L 363.867493 277.35419 
L 364.867493 277.28677 
L 365.867493 277.237864 
L 366.867493 277.172672 
L 367.867493 277.134485 
L 368.867493 277.092489 
L 369.867493 277.050471 
L 370.867493 276.990955 
L 371.867493 276.877795 
L 372.867493 276.825544 
L 373.867493 276.786127 
L 374.867493 276.739025 
L 375.867493 276.682246 
L 376.867493 276.649583 
L 377.867493 276.613405 
L 378.867493 276.581314 
L 379.867493 276.547034 
L 380.867493 276.488656 
L 381.867493 276.443471 
L 382.867493 276.413848 
L 383.867493 276.363462 
L 384.867493 276.338264 
L 385.867493 276.317213 
L 386.867493 276.282245 
L 387.867493 276.257955 
L 388.867493 276.243888 
L 389.867493 276.224947 
L 390.867493 276.209285 
L 391.867493 276.196733 
L 392.867493 276.190898 
L 393.867493 276.184015 
L 394.867493 276.178841 
L 395.867493 276.180624 
L 396.867493 276.18335 
L 397.867493 276.194503 
L 398.867493 276.222738 
L 399.867493 276.266526 
L 400.867493 276.287215 
L 401.867493 276.328189 
L 402.867493 276.368264 
L 403.867493 276.387373 
L 404.867493 276.409882 
L 405.867493 276.476534 
L 406.867493 276.526243 
L 407.867493 276.59995 
L 408.867493 276.631263 
L 409.867493 276.707885 
L 410.867493 276.746184 
L 411.867493 276.8203 
L 412.867493 276.924359 
L 413.867493 276.994189 
L 414.867493 277.099423 
L 415.867493 277.154438 
L 416.867493 277.277913 
L 417.867493 277.348472 
L 418.867493 277.464312 
L 419.867493 277.514492 
L 420.867493 277.550097 
L 421.867493 277.641503 
L 422.867493 277.695011 
L 423.867493 277.782919 
L 424.867493 277.852104 
L 425.867493 277.898869 
L 426.867493 277.970912 
L 427.867493 278.021054 
L 428.867493 278.038444 
L 429.867493 278.065447 
L 430.867493 278.084875 
L 431.867493 278.104213 
L 432.867493 278.142461 
L 433.867493 278.158895 
L 434.867493 278.167263 
L 435.867493 278.171582 
L 436.884669 278.178138 
" clip-path="url(#p041fd8e305)" style="fill: none; stroke: #ff7f0e; stroke-linecap: round"/>
          <path d="M 432.884669 275.178375 
L 433.765038 275.653706 
L 434.642945 276.133961 
L 435.493658 276.668601 
L 436.795833 277.356049 
L 435.86848 277.382064 
L 434.956805 277.794783 
L 434.046541 278.210322 
L 432.704045 278.817127 
L 433.358944 278.178375 
L 433.410908 277.178375 
L 433.469998 275.178375 
z
" clip-path="url(#p041fd8e305)" style="fill: #ffffff; stroke: #ffffff; stroke-width: 3; stroke-linecap: round"/>
          <path d="M 432.884669 275.178375 
L 433.765038 275.653706 
L 434.642945 276.133961 
L 435.493658 276.668601 
L 436.795833 277.356049 
L 435.86848 277.382064 
L 434.956805 277.794783 
L 434.046541 278.210322 
L 432.704045 278.817127 
L 433.358944 278.178375 
L 433.410908 277.178375 
L 433.469998 275.178375 
z
" clip-path="url(#p041fd8e305)" style="fill: #ffffff; stroke: #ff7f0e; stroke-linecap: round"/>
          <path d="M 463.314684 291.132352 
" clip-path="url(#p041fd8e305)" style="fill: none; stroke-dasharray: 3.7,1.6; stroke-dashoffset: 0; stroke: #2ca02c"/>
          <path d="M 462.314684 291.132352 
L 464.314684 292.132352 
L 464.314684 290.132352 
z
" clip-path="url(#p041fd8e305)" style="fill: #2ca02c; stroke: #2ca02c; stroke-linejoin: miter"/>
          <g id="patch_10">
           <path d="M 63.290625 321.621875 
L 63.290625 10.8 
" style="fill: none; stroke: #000000; stroke-width: 0.8; stroke-linejoin: miter; stroke-linecap: square"/>
          </g>
          <g id="text_13">
           <g id="patch_11">
            <path d="M 321.46403 145.403578 
L 342.768717 145.403578 
Q 344.768717 145.403578 344.768717 143.403578 
L 344.768717 133.725453 
Q 344.768717 131.725453 342.768717 131.725453 
L 321.46403 131.725453 
Q 319.46403 131.725453 319.46403 133.725453 
L 319.46403 143.403578 
Q 319.46403 145.403578 321.46403 145.403578 
z
" style="fill: #ffffff; opacity: 0.6"/>
           </g>
           <!-- ANC -->
           <g transform="translate(321.46403 141.323891) scale(0.1 -0.1)">
            <defs>
             <path id="DejaVuSans-4e" d="M 628 4666 
L 1478 4666 
L 3547 763 
L 3547 4666 
L 4159 4666 
L 4159 0 
L 3309 0 
L 1241 3903 
L 1241 0 
L 628 0 
L 628 4666 
z
" transform="scale(0.015625)"/>
            </defs>
            <use xlink:href="#DejaVuSans-41"/>
            <use xlink:href="#DejaVuSans-4e" x="68.408203"/>
            <use xlink:href="#DejaVuSans-43" x="143.212891"/>
           </g>
          </g>
         </g>
        </g>
        <defs>
         <clipPath id="p041fd8e305">
          <rect x="63.290625" y="10.8" width="540.309375" height="310.821875"/>
         </clipPath>
        </defs>
       </g>
      </g>
     </g>
    </g>
   </g>
  </g>
 </g>
</svg>
