<?xml version="1.0" encoding="utf-8" standalone="no"?>
<!DOCTYPE svg PUBLIC "-//W3C//DTD SVG 1.1//EN"
  "http://www.w3.org/Graphics/SVG/1.1/DTD/svg11.dtd">
<svg xmlns:xlink="http://www.w3.org/1999/xlink" width="614.4pt" height="345.6pt" viewBox="0 0 614.4 345.6" xmlns="http://www.w3.org/2000/svg" version="1.1">
 <metadata>
  <rdf:RDF xmlns:dc="http://purl.org/dc/elements/1.1/" xmlns:cc="http://creativecommons.org/ns#" xmlns:rdf="http://www.w3.org/1999/02/22-rdf-syntax-ns#">
   <cc:Work>
    <dc:type rdf:resource="http://purl.org/dc/dcmitype/StillImage"/>
    <dc:date>2024-04-17T19:48:46.077403</dc:date>
    <dc:format>image/svg+xml</dc:format>
    <dc:creator>
     <cc:Agent>
      <dc:title>Matplotlib v3.7.1, https://matplotlib.org/</dc:title>
     </cc:Agent>
    </dc:creator>
   </cc:Work>
  </rdf:RDF>
 </metadata>
 <defs>
  <style type="text/css">*{stroke-linejoin: round; stroke-linecap: butt}</style>
 </defs>
 <g id="figure_1">
  <g id="patch_1">
   <path d="M 0 345.6 
L 614.4 345.6 
L 614.4 0 
L 0 0 
z
" style="fill: #ffffff"/>
  </g>
  <g id="axes_1">
   <g id="patch_2">
    <path d="M 63.290625 321.621875 
L 603.6 321.621875 
L 603.6 10.8 
L 63.290625 10.8 
z
" style="fill: #ffffff"/>
   </g>
   <path d="M 547.42915 303.820319 
L 546.42915 303.788883 
L 545.42915 303.751942 
L 544.42915 303.654196 
L 543.42915 303.621674 
L 542.42915 303.548049 
L 541.42915 303.509484 
L 540.42915 303.474071 
L 539.42915 303.416431 
L 538.42915 303.346045 
L 537.42915 303.29408 
L 536.42915 303.234991 
L 535.42915 303.14667 
L 534.42915 303.100525 
L 533.42915 303.058114 
L 532.42915 303.027622 
L 531.42915 303.001577 
L 530.42915 302.980377 
L 529.42915 302.926076 
L 528.42915 302.898138 
L 527.42915 302.868414 
L 526.42915 302.843019 
L 525.42915 302.831819 
L 524.42915 302.821695 
L 523.42915 302.821899 
L 522.42915 302.831409 
L 521.42915 302.843063 
L 520.42915 302.874092 
L 519.42915 302.88526 
L 518.42915 302.915377 
L 517.42915 302.975154 
L 516.42915 303.012346 
L 515.42915 303.051442 
L 514.42915 303.093882 
L 513.42915 303.126647 
L 512.42915 303.194073 
L 511.42915 303.233199 
L 510.42915 303.275874 
L 509.42915 303.346454 
L 508.42915 303.382845 
L 507.42915 303.441248 
L 506.42915 303.552201 
L 505.42915 303.622859 
L 504.42915 303.735799 
L 503.42915 303.781572 
L 502.42915 303.842855 
L 501.42915 303.891354 
L 500.42915 303.972177 
L 499.42915 304.090696 
L 498.42915 304.160907 
L 497.42915 304.244169 
L 496.42915 304.277311 
L 495.42915 304.328548 
L 494.42915 304.396947 
L 493.42915 304.463162 
L 492.42915 304.540079 
L 491.42915 304.567395 
L 490.42915 304.593872 
L 489.42915 304.616523 
L 488.42915 304.636054 
L 487.42915 304.662448 
L 486.42915 304.712219 
L 485.42915 304.747292 
L 484.42915 304.783158 
L 483.42915 304.798525 
L 482.42915 304.814294 
L 481.42915 304.817707 
L 480.42915 304.820124 
L 479.42915 304.819638 
L 478.42915 304.817709 
L 477.42915 304.804452 
L 476.42915 304.796062 
L 475.42915 304.774525 
L 474.42915 304.751492 
L 473.42915 304.734259 
L 472.42915 304.715796 
L 471.42915 304.695344 
L 470.42915 304.678744 
L 469.42915 304.615965 
L 468.42915 304.5407 
L 467.42915 304.508061 
L 466.42915 304.440497 
L 465.42915 304.38645 
L 464.42915 304.352746 
L 463.42915 304.26262 
L 461.649051 304.234085 
" clip-path="url(#p4da4e18d20)" style="fill: none; stroke-dasharray: 3.7,1.6; stroke-dashoffset: 0; stroke: #2ca02c"/>
   <g id="patch_3">
    <path d="M 269.729439 10.8 
L 269.729439 231.112887 
M 394.647724 10.8 
L 394.647724 231.112887 
" clip-path="url(#p4da4e18d20)" style="fill: none; stroke: #ffffff; stroke-width: 3; stroke-linejoin: miter"/>
    <path d="M 269.729439 10.8 
L 269.729439 231.112887 
M 394.647724 10.8 
L 394.647724 231.112887 
" clip-path="url(#p4da4e18d20)" style="fill: none; stroke: #1f77b4; stroke-linejoin: miter"/>
    <g id="PolyCollection_1">
     <path d="M 394.647724 10.8 
L 269.729439 10.8 
L 269.729439 231.112887 
L 394.647724 231.112887 
L 394.647724 231.112887 
L 394.647724 10.8 
z
" clip-path="url(#p4da4e18d20)" style="fill: #1f77b4; fill-opacity: 0.5"/>
    </g>
    <g id="patch_4">
     <path d="M 87.850142 231.112887 
L 87.850142 321.621875 
M 225.905348 231.112887 
L 225.905348 321.621875 
" clip-path="url(#p4da4e18d20)" style="fill: none; stroke: #ffffff; stroke-width: 3; stroke-linejoin: miter"/>
     <path d="M 87.850142 231.112887 
L 87.850142 321.621875 
M 225.905348 231.112887 
L 225.905348 321.621875 
" clip-path="url(#p4da4e18d20)" style="fill: none; stroke: #ff7f0e; stroke-linejoin: miter"/>
     <g id="PolyCollection_2">
      <path d="M 225.905348 231.112887 
L 87.850142 231.112887 
L 87.850142 321.621875 
L 225.905348 321.621875 
L 225.905348 321.621875 
L 225.905348 231.112887 
z
" clip-path="url(#p4da4e18d20)" style="fill: #ff7f0e; fill-opacity: 0.5"/>
     </g>
     <g id="patch_5">
      <path d="M 552.832244 72.964375 
L 552.832244 321.621875 
M 579.040483 72.964375 
L 579.040483 321.621875 
" clip-path="url(#p4da4e18d20)" style="fill: none; stroke: #ffffff; stroke-width: 3; stroke-linejoin: miter"/>
      <path d="M 552.832244 72.964375 
L 552.832244 321.621875 
M 579.040483 72.964375 
L 579.040483 321.621875 
" clip-path="url(#p4da4e18d20)" style="fill: none; stroke: #2ca02c; stroke-linejoin: miter"/>
      <g id="PolyCollection_3">
       <path d="M 579.040483 72.964375 
L 552.832244 72.964375 
L 552.832244 321.621875 
L 579.040483 321.621875 
L 579.040483 321.621875 
L 579.040483 72.964375 
z
" clip-path="url(#p4da4e18d20)" style="fill: #2ca02c; fill-opacity: 0.5"/>
      </g>
      <g id="patch_6">
       <path d="M 441.878988 234.094009 
L 441.878988 321.621875 
M 456.245957 234.094009 
L 456.245957 321.621875 
" clip-path="url(#p4da4e18d20)" style="fill: none; stroke: #ffffff; stroke-width: 3; stroke-linejoin: miter"/>
       <path d="M 441.878988 234.094009 
L 441.878988 321.621875 
M 456.245957 234.094009 
L 456.245957 321.621875 
" clip-path="url(#p4da4e18d20)" style="fill: none; stroke: #d62728; stroke-linejoin: miter"/>
       <g id="PolyCollection_4">
        <path d="M 456.245957 234.094009 
L 441.878988 234.094009 
L 441.878988 321.621875 
L 456.245957 321.621875 
L 456.245957 321.621875 
L 456.245957 234.094009 
z
" clip-path="url(#p4da4e18d20)" style="fill: #d62728; fill-opacity: 0.5"/>
       </g>
       <g id="matplotlib.axis_1">
        <g id="xtick_1">
         <g id="line2d_1"/>
         <g id="text_1">
          <!-- OUT -->
          <g transform="translate(146.228526 332.720312) scale(0.1 -0.1)">
           <defs>
            <path id="DejaVuSans-4f" d="M 2522 4238 
Q 1834 4238 1429 3725 
Q 1025 3213 1025 2328 
Q 1025 1447 1429 934 
Q 1834 422 2522 422 
Q 3209 422 3611 934 
Q 4013 1447 4013 2328 
Q 4013 3213 3611 3725 
Q 3209 4238 2522 4238 
z
M 2522 4750 
Q 3503 4750 4090 4092 
Q 4678 3434 4678 2328 
Q 4678 1225 4090 567 
Q 3503 -91 2522 -91 
Q 1538 -91 948 565 
Q 359 1222 359 2328 
Q 359 3434 948 4092 
Q 1538 4750 2522 4750 
z
" transform="scale(0.015625)"/>
            <path id="DejaVuSans-55" d="M 556 4666 
L 1191 4666 
L 1191 1831 
Q 1191 1081 1462 751 
Q 1734 422 2344 422 
Q 2950 422 3222 751 
Q 3494 1081 3494 1831 
L 3494 4666 
L 4128 4666 
L 4128 1753 
Q 4128 841 3676 375 
Q 3225 -91 2344 -91 
Q 1459 -91 1007 375 
Q 556 841 556 1753 
L 556 4666 
z
" transform="scale(0.015625)"/>
            <path id="DejaVuSans-54" d="M -19 4666 
L 3928 4666 
L 3928 4134 
L 2272 4134 
L 2272 0 
L 1638 0 
L 1638 4134 
L -19 4134 
L -19 4666 
z
" transform="scale(0.015625)"/>
           </defs>
           <use xlink:href="#DejaVuSans-4f"/>
           <use xlink:href="#DejaVuSans-55" x="78.710938"/>
           <use xlink:href="#DejaVuSans-54" x="151.904297"/>
          </g>
         </g>
        </g>
        <g id="xtick_2">
         <g id="line2d_2"/>
         <g id="text_2">
          <!-- SRC -->
          <g transform="translate(556.04652 332.720312) scale(0.1 -0.1)">
           <defs>
            <path id="DejaVuSans-53" d="M 3425 4513 
L 3425 3897 
Q 3066 4069 2747 4153 
Q 2428 4238 2131 4238 
Q 1616 4238 1336 4038 
Q 1056 3838 1056 3469 
Q 1056 3159 1242 3001 
Q 1428 2844 1947 2747 
L 2328 2669 
Q 3034 2534 3370 2195 
Q 3706 1856 3706 1288 
Q 3706 609 3251 259 
Q 2797 -91 1919 -91 
Q 1588 -91 1214 -16 
Q 841 59 441 206 
L 441 856 
Q 825 641 1194 531 
Q 1563 422 1919 422 
Q 2459 422 2753 634 
Q 3047 847 3047 1241 
Q 3047 1584 2836 1778 
Q 2625 1972 2144 2069 
L 1759 2144 
Q 1053 2284 737 2584 
Q 422 2884 422 3419 
Q 422 4038 858 4394 
Q 1294 4750 2059 4750 
Q 2388 4750 2728 4690 
Q 3069 4631 3425 4513 
z
" transform="scale(0.015625)"/>
            <path id="DejaVuSans-52" d="M 2841 2188 
Q 3044 2119 3236 1894 
Q 3428 1669 3622 1275 
L 4263 0 
L 3584 0 
L 2988 1197 
Q 2756 1666 2539 1819 
Q 2322 1972 1947 1972 
L 1259 1972 
L 1259 0 
L 628 0 
L 628 4666 
L 2053 4666 
Q 2853 4666 3247 4331 
Q 3641 3997 3641 3322 
Q 3641 2881 3436 2590 
Q 3231 2300 2841 2188 
z
M 1259 4147 
L 1259 2491 
L 2053 2491 
Q 2509 2491 2742 2702 
Q 2975 2913 2975 3322 
Q 2975 3731 2742 3939 
Q 2509 4147 2053 4147 
L 1259 4147 
z
" transform="scale(0.015625)"/>
            <path id="DejaVuSans-43" d="M 4122 4306 
L 4122 3641 
Q 3803 3938 3442 4084 
Q 3081 4231 2675 4231 
Q 1875 4231 1450 3742 
Q 1025 3253 1025 2328 
Q 1025 1406 1450 917 
Q 1875 428 2675 428 
Q 3081 428 3442 575 
Q 3803 722 4122 1019 
L 4122 359 
Q 3791 134 3420 21 
Q 3050 -91 2638 -91 
Q 1578 -91 968 557 
Q 359 1206 359 2328 
Q 359 3453 968 4101 
Q 1578 4750 2638 4750 
Q 3056 4750 3426 4639 
Q 3797 4528 4122 4306 
z
" transform="scale(0.015625)"/>
           </defs>
           <use xlink:href="#DejaVuSans-53"/>
           <use xlink:href="#DejaVuSans-52" x="63.476562"/>
           <use xlink:href="#DejaVuSans-43" x="127.958984"/>
          </g>
         </g>
        </g>
        <g id="xtick_3">
         <g id="line2d_3"/>
         <g id="text_3">
          <!-- TAR -->
          <g transform="translate(439.501535 332.720312) scale(0.1 -0.1)">
           <defs>
            <path id="DejaVuSans-41" d="M 2188 4044 
L 1331 1722 
L 3047 1722 
L 2188 4044 
z
M 1831 4666 
L 2547 4666 
L 4325 0 
L 3669 0 
L 3244 1197 
L 1141 1197 
L 716 0 
L 50 0 
L 1831 4666 
z
" transform="scale(0.015625)"/>
           </defs>
           <use xlink:href="#DejaVuSans-54"/>
           <use xlink:href="#DejaVuSans-41" x="53.333984"/>
           <use xlink:href="#DejaVuSans-52" x="121.742188"/>
          </g>
         </g>
        </g>
       </g>
       <g id="matplotlib.axis_2">
        <g id="ytick_1">
         <g id="line2d_4">
          <defs>
           <path id="m96605d70e5" d="M 0 0 
L -3.5 0 
" style="stroke: #000000; stroke-width: 0.8"/>
          </defs>
          <g>
           <use xlink:href="#m96605d70e5" x="63.290625" y="321.621875" style="stroke: #000000; stroke-width: 0.8"/>
          </g>
         </g>
         <g id="text_4">
          <!-- 0 -->
          <g transform="translate(49.928125 325.421094) scale(0.1 -0.1)">
           <defs>
            <path id="DejaVuSans-30" d="M 2034 4250 
Q 1547 4250 1301 3770 
Q 1056 3291 1056 2328 
Q 1056 1369 1301 889 
Q 1547 409 2034 409 
Q 2525 409 2770 889 
Q 3016 1369 3016 2328 
Q 3016 3291 2770 3770 
Q 2525 4250 2034 4250 
z
M 2034 4750 
Q 2819 4750 3233 4129 
Q 3647 3509 3647 2328 
Q 3647 1150 3233 529 
Q 2819 -91 2034 -91 
Q 1250 -91 836 529 
Q 422 1150 422 2328 
Q 422 3509 836 4129 
Q 1250 4750 2034 4750 
z
" transform="scale(0.015625)"/>
           </defs>
           <use xlink:href="#DejaVuSans-30"/>
          </g>
         </g>
        </g>
        <g id="ytick_2">
         <g id="line2d_5">
          <g>
           <use xlink:href="#m96605d70e5" x="63.290625" y="268.387557" style="stroke: #000000; stroke-width: 0.8"/>
          </g>
         </g>
         <g id="text_5">
          <!-- 5000 -->
          <g transform="translate(30.840625 272.186776) scale(0.1 -0.1)">
           <defs>
            <path id="DejaVuSans-35" d="M 691 4666 
L 3169 4666 
L 3169 4134 
L 1269 4134 
L 1269 2991 
Q 1406 3038 1543 3061 
Q 1681 3084 1819 3084 
Q 2600 3084 3056 2656 
Q 3513 2228 3513 1497 
Q 3513 744 3044 326 
Q 2575 -91 1722 -91 
Q 1428 -91 1123 -41 
Q 819 9 494 109 
L 494 744 
Q 775 591 1075 516 
Q 1375 441 1709 441 
Q 2250 441 2565 725 
Q 2881 1009 2881 1497 
Q 2881 1984 2565 2268 
Q 2250 2553 1709 2553 
Q 1456 2553 1204 2497 
Q 953 2441 691 2322 
L 691 4666 
z
" transform="scale(0.015625)"/>
           </defs>
           <use xlink:href="#DejaVuSans-35"/>
           <use xlink:href="#DejaVuSans-30" x="63.623047"/>
           <use xlink:href="#DejaVuSans-30" x="127.246094"/>
           <use xlink:href="#DejaVuSans-30" x="190.869141"/>
          </g>
         </g>
        </g>
        <g id="ytick_3">
         <g id="line2d_6">
          <g>
           <use xlink:href="#m96605d70e5" x="63.290625" y="215.153239" style="stroke: #000000; stroke-width: 0.8"/>
          </g>
         </g>
         <g id="text_6">
          <!-- 10000 -->
          <g transform="translate(24.478125 218.952457) scale(0.1 -0.1)">
           <defs>
            <path id="DejaVuSans-31" d="M 794 531 
L 1825 531 
L 1825 4091 
L 703 3866 
L 703 4441 
L 1819 4666 
L 2450 4666 
L 2450 531 
L 3481 531 
L 3481 0 
L 794 0 
L 794 531 
z
" transform="scale(0.015625)"/>
           </defs>
           <use xlink:href="#DejaVuSans-31"/>
           <use xlink:href="#DejaVuSans-30" x="63.623047"/>
           <use xlink:href="#DejaVuSans-30" x="127.246094"/>
           <use xlink:href="#DejaVuSans-30" x="190.869141"/>
           <use xlink:href="#DejaVuSans-30" x="254.492188"/>
          </g>
         </g>
        </g>
        <g id="ytick_4">
         <g id="line2d_7">
          <g>
           <use xlink:href="#m96605d70e5" x="63.290625" y="161.918921" style="stroke: #000000; stroke-width: 0.8"/>
          </g>
         </g>
         <g id="text_7">
          <!-- 15000 -->
          <g transform="translate(24.478125 165.718139) scale(0.1 -0.1)">
           <use xlink:href="#DejaVuSans-31"/>
           <use xlink:href="#DejaVuSans-35" x="63.623047"/>
           <use xlink:href="#DejaVuSans-30" x="127.246094"/>
           <use xlink:href="#DejaVuSans-30" x="190.869141"/>
           <use xlink:href="#DejaVuSans-30" x="254.492188"/>
          </g>
         </g>
        </g>
        <g id="ytick_5">
         <g id="line2d_8">
          <g>
           <use xlink:href="#m96605d70e5" x="63.290625" y="108.684602" style="stroke: #000000; stroke-width: 0.8"/>
          </g>
         </g>
         <g id="text_8">
          <!-- 20000 -->
          <g transform="translate(24.478125 112.483821) scale(0.1 -0.1)">
           <defs>
            <path id="DejaVuSans-32" d="M 1228 531 
L 3431 531 
L 3431 0 
L 469 0 
L 469 531 
Q 828 903 1448 1529 
Q 2069 2156 2228 2338 
Q 2531 2678 2651 2914 
Q 2772 3150 2772 3378 
Q 2772 3750 2511 3984 
Q 2250 4219 1831 4219 
Q 1534 4219 1204 4116 
Q 875 4013 500 3803 
L 500 4441 
Q 881 4594 1212 4672 
Q 1544 4750 1819 4750 
Q 2544 4750 2975 4387 
Q 3406 4025 3406 3419 
Q 3406 3131 3298 2873 
Q 3191 2616 2906 2266 
Q 2828 2175 2409 1742 
Q 1991 1309 1228 531 
z
" transform="scale(0.015625)"/>
           </defs>
           <use xlink:href="#DejaVuSans-32"/>
           <use xlink:href="#DejaVuSans-30" x="63.623047"/>
           <use xlink:href="#DejaVuSans-30" x="127.246094"/>
           <use xlink:href="#DejaVuSans-30" x="190.869141"/>
           <use xlink:href="#DejaVuSans-30" x="254.492188"/>
          </g>
         </g>
        </g>
        <g id="ytick_6">
         <g id="line2d_9">
          <g>
           <use xlink:href="#m96605d70e5" x="63.290625" y="55.450284" style="stroke: #000000; stroke-width: 0.8"/>
          </g>
         </g>
         <g id="text_9">
          <!-- 25000 -->
          <g transform="translate(24.478125 59.249503) scale(0.1 -0.1)">
           <use xlink:href="#DejaVuSans-32"/>
           <use xlink:href="#DejaVuSans-35" x="63.623047"/>
           <use xlink:href="#DejaVuSans-30" x="127.246094"/>
           <use xlink:href="#DejaVuSans-30" x="190.869141"/>
           <use xlink:href="#DejaVuSans-30" x="254.492188"/>
          </g>
         </g>
        </g>
        <g id="text_10">
         <!-- time ago (generations) -->
         <g transform="translate(18.398438 223.682031) rotate(-90) scale(0.1 -0.1)">
          <defs>
           <path id="DejaVuSans-74" d="M 1172 4494 
L 1172 3500 
L 2356 3500 
L 2356 3053 
L 1172 3053 
L 1172 1153 
Q 1172 725 1289 603 
Q 1406 481 1766 481 
L 2356 481 
L 2356 0 
L 1766 0 
Q 1100 0 847 248 
Q 594 497 594 1153 
L 594 3053 
L 172 3053 
L 172 3500 
L 594 3500 
L 594 4494 
L 1172 4494 
z
" transform="scale(0.015625)"/>
           <path id="DejaVuSans-69" d="M 603 3500 
L 1178 3500 
L 1178 0 
L 603 0 
L 603 3500 
z
M 603 4863 
L 1178 4863 
L 1178 4134 
L 603 4134 
L 603 4863 
z
" transform="scale(0.015625)"/>
           <path id="DejaVuSans-6d" d="M 3328 2828 
Q 3544 3216 3844 3400 
Q 4144 3584 4550 3584 
Q 5097 3584 5394 3201 
Q 5691 2819 5691 2113 
L 5691 0 
L 5113 0 
L 5113 2094 
Q 5113 2597 4934 2840 
Q 4756 3084 4391 3084 
Q 3944 3084 3684 2787 
Q 3425 2491 3425 1978 
L 3425 0 
L 2847 0 
L 2847 2094 
Q 2847 2600 2669 2842 
Q 2491 3084 2119 3084 
Q 1678 3084 1418 2786 
Q 1159 2488 1159 1978 
L 1159 0 
L 581 0 
L 581 3500 
L 1159 3500 
L 1159 2956 
Q 1356 3278 1631 3431 
Q 1906 3584 2284 3584 
Q 2666 3584 2933 3390 
Q 3200 3197 3328 2828 
z
" transform="scale(0.015625)"/>
           <path id="DejaVuSans-65" d="M 3597 1894 
L 3597 1613 
L 953 1613 
Q 991 1019 1311 708 
Q 1631 397 2203 397 
Q 2534 397 2845 478 
Q 3156 559 3463 722 
L 3463 178 
Q 3153 47 2828 -22 
Q 2503 -91 2169 -91 
Q 1331 -91 842 396 
Q 353 884 353 1716 
Q 353 2575 817 3079 
Q 1281 3584 2069 3584 
Q 2775 3584 3186 3129 
Q 3597 2675 3597 1894 
z
M 3022 2063 
Q 3016 2534 2758 2815 
Q 2500 3097 2075 3097 
Q 1594 3097 1305 2825 
Q 1016 2553 972 2059 
L 3022 2063 
z
" transform="scale(0.015625)"/>
           <path id="DejaVuSans-20" transform="scale(0.015625)"/>
           <path id="DejaVuSans-61" d="M 2194 1759 
Q 1497 1759 1228 1600 
Q 959 1441 959 1056 
Q 959 750 1161 570 
Q 1363 391 1709 391 
Q 2188 391 2477 730 
Q 2766 1069 2766 1631 
L 2766 1759 
L 2194 1759 
z
M 3341 1997 
L 3341 0 
L 2766 0 
L 2766 531 
Q 2569 213 2275 61 
Q 1981 -91 1556 -91 
Q 1019 -91 701 211 
Q 384 513 384 1019 
Q 384 1609 779 1909 
Q 1175 2209 1959 2209 
L 2766 2209 
L 2766 2266 
Q 2766 2663 2505 2880 
Q 2244 3097 1772 3097 
Q 1472 3097 1187 3025 
Q 903 2953 641 2809 
L 641 3341 
Q 956 3463 1253 3523 
Q 1550 3584 1831 3584 
Q 2591 3584 2966 3190 
Q 3341 2797 3341 1997 
z
" transform="scale(0.015625)"/>
           <path id="DejaVuSans-67" d="M 2906 1791 
Q 2906 2416 2648 2759 
Q 2391 3103 1925 3103 
Q 1463 3103 1205 2759 
Q 947 2416 947 1791 
Q 947 1169 1205 825 
Q 1463 481 1925 481 
Q 2391 481 2648 825 
Q 2906 1169 2906 1791 
z
M 3481 434 
Q 3481 -459 3084 -895 
Q 2688 -1331 1869 -1331 
Q 1566 -1331 1297 -1286 
Q 1028 -1241 775 -1147 
L 775 -588 
Q 1028 -725 1275 -790 
Q 1522 -856 1778 -856 
Q 2344 -856 2625 -561 
Q 2906 -266 2906 331 
L 2906 616 
Q 2728 306 2450 153 
Q 2172 0 1784 0 
Q 1141 0 747 490 
Q 353 981 353 1791 
Q 353 2603 747 3093 
Q 1141 3584 1784 3584 
Q 2172 3584 2450 3431 
Q 2728 3278 2906 2969 
L 2906 3500 
L 3481 3500 
L 3481 434 
z
" transform="scale(0.015625)"/>
           <path id="DejaVuSans-6f" d="M 1959 3097 
Q 1497 3097 1228 2736 
Q 959 2375 959 1747 
Q 959 1119 1226 758 
Q 1494 397 1959 397 
Q 2419 397 2687 759 
Q 2956 1122 2956 1747 
Q 2956 2369 2687 2733 
Q 2419 3097 1959 3097 
z
M 1959 3584 
Q 2709 3584 3137 3096 
Q 3566 2609 3566 1747 
Q 3566 888 3137 398 
Q 2709 -91 1959 -91 
Q 1206 -91 779 398 
Q 353 888 353 1747 
Q 353 2609 779 3096 
Q 1206 3584 1959 3584 
z
" transform="scale(0.015625)"/>
           <path id="DejaVuSans-28" d="M 1984 4856 
Q 1566 4138 1362 3434 
Q 1159 2731 1159 2009 
Q 1159 1288 1364 580 
Q 1569 -128 1984 -844 
L 1484 -844 
Q 1016 -109 783 600 
Q 550 1309 550 2009 
Q 550 2706 781 3412 
Q 1013 4119 1484 4856 
L 1984 4856 
z
" transform="scale(0.015625)"/>
           <path id="DejaVuSans-6e" d="M 3513 2113 
L 3513 0 
L 2938 0 
L 2938 2094 
Q 2938 2591 2744 2837 
Q 2550 3084 2163 3084 
Q 1697 3084 1428 2787 
Q 1159 2491 1159 1978 
L 1159 0 
L 581 0 
L 581 3500 
L 1159 3500 
L 1159 2956 
Q 1366 3272 1645 3428 
Q 1925 3584 2291 3584 
Q 2894 3584 3203 3211 
Q 3513 2838 3513 2113 
z
" transform="scale(0.015625)"/>
           <path id="DejaVuSans-72" d="M 2631 2963 
Q 2534 3019 2420 3045 
Q 2306 3072 2169 3072 
Q 1681 3072 1420 2755 
Q 1159 2438 1159 1844 
L 1159 0 
L 581 0 
L 581 3500 
L 1159 3500 
L 1159 2956 
Q 1341 3275 1631 3429 
Q 1922 3584 2338 3584 
Q 2397 3584 2469 3576 
Q 2541 3569 2628 3553 
L 2631 2963 
z
" transform="scale(0.015625)"/>
           <path id="DejaVuSans-73" d="M 2834 3397 
L 2834 2853 
Q 2591 2978 2328 3040 
Q 2066 3103 1784 3103 
Q 1356 3103 1142 2972 
Q 928 2841 928 2578 
Q 928 2378 1081 2264 
Q 1234 2150 1697 2047 
L 1894 2003 
Q 2506 1872 2764 1633 
Q 3022 1394 3022 966 
Q 3022 478 2636 193 
Q 2250 -91 1575 -91 
Q 1294 -91 989 -36 
Q 684 19 347 128 
L 347 722 
Q 666 556 975 473 
Q 1284 391 1588 391 
Q 1994 391 2212 530 
Q 2431 669 2431 922 
Q 2431 1156 2273 1281 
Q 2116 1406 1581 1522 
L 1381 1569 
Q 847 1681 609 1914 
Q 372 2147 372 2553 
Q 372 3047 722 3315 
Q 1072 3584 1716 3584 
Q 2034 3584 2315 3537 
Q 2597 3491 2834 3397 
z
" transform="scale(0.015625)"/>
           <path id="DejaVuSans-29" d="M 513 4856 
L 1013 4856 
Q 1481 4119 1714 3412 
Q 1947 2706 1947 2009 
Q 1947 1309 1714 600 
Q 1481 -109 1013 -844 
L 513 -844 
Q 928 -128 1133 580 
Q 1338 1288 1338 2009 
Q 1338 2731 1133 3434 
Q 928 4138 513 4856 
z
" transform="scale(0.015625)"/>
          </defs>
          <use xlink:href="#DejaVuSans-74"/>
          <use xlink:href="#DejaVuSans-69" x="39.208984"/>
          <use xlink:href="#DejaVuSans-6d" x="66.992188"/>
          <use xlink:href="#DejaVuSans-65" x="164.404297"/>
          <use xlink:href="#DejaVuSans-20" x="225.927734"/>
          <use xlink:href="#DejaVuSans-61" x="257.714844"/>
          <use xlink:href="#DejaVuSans-67" x="318.994141"/>
          <use xlink:href="#DejaVuSans-6f" x="382.470703"/>
          <use xlink:href="#DejaVuSans-20" x="443.652344"/>
          <use xlink:href="#DejaVuSans-28" x="475.439453"/>
          <use xlink:href="#DejaVuSans-67" x="514.453125"/>
          <use xlink:href="#DejaVuSans-65" x="577.929688"/>
          <use xlink:href="#DejaVuSans-6e" x="639.453125"/>
          <use xlink:href="#DejaVuSans-65" x="702.832031"/>
          <use xlink:href="#DejaVuSans-72" x="764.355469"/>
          <use xlink:href="#DejaVuSans-61" x="805.46875"/>
          <use xlink:href="#DejaVuSans-74" x="866.748047"/>
          <use xlink:href="#DejaVuSans-69" x="905.957031"/>
          <use xlink:href="#DejaVuSans-6f" x="933.740234"/>
          <use xlink:href="#DejaVuSans-6e" x="994.921875"/>
          <use xlink:href="#DejaVuSans-73" x="1058.300781"/>
          <use xlink:href="#DejaVuSans-29" x="1110.400391"/>
         </g>
        </g>
       </g>
       <g id="patch_7">
        <path d="M 267.731356 231.112887 
L 266.731356 231.081451 
L 265.731356 231.044511 
L 264.731356 230.946764 
L 263.731356 230.914242 
L 262.731356 230.840618 
L 261.731356 230.802052 
L 260.731356 230.766639 
L 259.731356 230.708999 
L 258.731356 230.638613 
L 257.731356 230.586649 
L 256.731356 230.527559 
L 255.731356 230.439238 
L 254.731356 230.393094 
L 253.731356 230.350683 
L 252.731356 230.32019 
L 251.731356 230.294145 
L 250.731356 230.272945 
L 249.731356 230.218644 
L 248.731356 230.190706 
L 247.731356 230.160982 
L 246.731356 230.135588 
L 245.731356 230.124387 
L 244.731356 230.114263 
L 243.731356 230.114468 
L 242.731356 230.123977 
L 241.731356 230.135631 
L 240.731356 230.16666 
L 239.731356 230.177828 
L 238.731356 230.207946 
L 237.731356 230.267723 
L 236.731356 230.304914 
L 235.731356 230.34401 
L 234.731356 230.38645 
L 233.731356 230.419215 
L 232.731356 230.486641 
L 231.731356 230.525767 
L 230.731356 230.568442 
L 229.022269 230.639023 
" clip-path="url(#p4da4e18d20)" style="fill: none; stroke: #ffffff; stroke-width: 3; stroke-linecap: round"/>
        <path d="M 267.731356 231.112887 
L 266.731356 231.081451 
L 265.731356 231.044511 
L 264.731356 230.946764 
L 263.731356 230.914242 
L 262.731356 230.840618 
L 261.731356 230.802052 
L 260.731356 230.766639 
L 259.731356 230.708999 
L 258.731356 230.638613 
L 257.731356 230.586649 
L 256.731356 230.527559 
L 255.731356 230.439238 
L 254.731356 230.393094 
L 253.731356 230.350683 
L 252.731356 230.32019 
L 251.731356 230.294145 
L 250.731356 230.272945 
L 249.731356 230.218644 
L 248.731356 230.190706 
L 247.731356 230.160982 
L 246.731356 230.135588 
L 245.731356 230.124387 
L 244.731356 230.114263 
L 243.731356 230.114468 
L 242.731356 230.123977 
L 241.731356 230.135631 
L 240.731356 230.16666 
L 239.731356 230.177828 
L 238.731356 230.207946 
L 237.731356 230.267723 
L 236.731356 230.304914 
L 235.731356 230.34401 
L 234.731356 230.38645 
L 233.731356 230.419215 
L 232.731356 230.486641 
L 231.731356 230.525767 
L 230.731356 230.568442 
L 229.022269 230.639023 
" clip-path="url(#p4da4e18d20)" style="fill: none; stroke: #1f77b4; stroke-linecap: round"/>
        <path d="M 233.022269 233.112887 
L 232.1419 232.637556 
L 231.263993 232.157302 
L 230.41328 231.622661 
L 229.111105 230.935214 
L 230.038458 230.909199 
L 230.950133 230.49648 
L 231.860397 230.08094 
L 233.202893 229.474136 
L 232.547994 230.112887 
L 232.49603 231.112887 
L 232.43694 233.112887 
z
" clip-path="url(#p4da4e18d20)" style="fill: #ffffff; stroke: #ffffff; stroke-width: 3; stroke-linecap: round"/>
        <path d="M 233.022269 233.112887 
L 232.1419 232.637556 
L 231.263993 232.157302 
L 230.41328 231.622661 
L 229.111105 230.935214 
L 230.038458 230.909199 
L 230.950133 230.49648 
L 231.860397 230.08094 
L 233.202893 229.474136 
L 232.547994 230.112887 
L 232.49603 231.112887 
L 232.43694 233.112887 
z
" clip-path="url(#p4da4e18d20)" style="fill: #ffffff; stroke: #1f77b4; stroke-linecap: round"/>
        <g id="patch_8">
         <path d="M 396.651098 72.964375 
L 397.651098 72.995811 
L 398.651098 73.032752 
L 399.651098 73.130498 
L 400.651098 73.16302 
L 401.651098 73.236645 
L 402.651098 73.27521 
L 403.651098 73.310623 
L 404.651098 73.368263 
L 405.651098 73.438649 
L 406.651098 73.490614 
L 407.651098 73.549703 
L 408.651098 73.638024 
L 409.651098 73.684169 
L 410.651098 73.72658 
L 411.651098 73.757072 
L 412.651098 73.783117 
L 413.651098 73.804317 
L 414.651098 73.858618 
L 415.651098 73.886556 
L 416.651098 73.91628 
L 417.651098 73.941675 
L 418.651098 73.952875 
L 419.651098 73.962999 
L 420.651098 73.962795 
L 421.651098 73.953285 
L 422.651098 73.941631 
L 423.651098 73.910602 
L 424.651098 73.899434 
L 425.651098 73.869317 
L 426.651098 73.80954 
L 427.651098 73.772348 
L 428.651098 73.733252 
L 429.651098 73.690812 
L 430.651098 73.658047 
L 431.651098 73.590621 
L 432.651098 73.551495 
L 433.651098 73.50882 
L 434.651098 73.43824 
L 435.651098 73.401849 
L 436.651098 73.343446 
L 437.651098 73.232493 
L 438.651098 73.161835 
L 439.651098 73.048895 
L 440.651098 73.003122 
L 441.651098 72.941839 
L 442.651098 72.89334 
L 443.651098 72.812517 
L 444.651098 72.693998 
L 445.651098 72.623787 
L 446.651098 72.540525 
L 447.651098 72.507383 
L 448.651098 72.456146 
L 449.651098 72.387747 
L 450.651098 72.321532 
L 451.651098 72.244615 
L 452.651098 72.217299 
L 453.651098 72.190822 
L 454.651098 72.168171 
L 455.651098 72.14864 
L 456.651098 72.122246 
L 457.651098 72.072475 
L 458.651098 72.037402 
L 459.651098 72.001536 
L 460.651098 71.986169 
L 461.651098 71.9704 
L 462.651098 71.966987 
L 463.651098 71.96457 
L 464.651098 71.965056 
L 465.651098 71.966985 
L 466.651098 71.980242 
L 467.651098 71.988633 
L 468.651098 72.010169 
L 469.651098 72.033202 
L 470.651098 72.050435 
L 471.651098 72.068898 
L 472.651098 72.08935 
L 473.651098 72.10595 
L 474.651098 72.168729 
L 475.651098 72.243994 
L 476.651098 72.276633 
L 477.651098 72.344197 
L 478.651098 72.398244 
L 479.651098 72.431948 
L 480.651098 72.522074 
L 481.651098 72.550609 
L 482.651098 72.582095 
L 483.651098 72.613106 
L 484.651098 72.667914 
L 485.651098 72.732501 
L 486.651098 72.770697 
L 487.651098 72.866631 
L 488.651098 72.915889 
L 489.651098 72.959958 
L 490.651098 73.000082 
L 491.651098 73.108449 
L 492.651098 73.150077 
L 493.651098 73.212219 
L 494.651098 73.282181 
L 495.651098 73.386685 
L 496.651098 73.423673 
L 497.651098 73.46955 
L 498.651098 73.538045 
L 499.651098 73.586791 
L 500.651098 73.664388 
L 501.651098 73.694929 
L 502.651098 73.764443 
L 503.651098 73.788416 
L 504.651098 73.817038 
L 505.651098 73.858831 
L 506.651098 73.880407 
L 507.651098 73.894355 
L 508.651098 73.921077 
L 509.651098 73.930387 
L 510.651098 73.942834 
L 511.651098 73.953889 
L 512.651098 73.959553 
L 513.651098 73.964317 
L 514.651098 73.958769 
L 515.651098 73.945481 
L 516.651098 73.937964 
L 517.651098 73.913179 
L 518.651098 73.88961 
L 519.651098 73.85343 
L 520.651098 73.827468 
L 521.651098 73.805146 
L 522.651098 73.736386 
L 523.651098 73.661851 
L 524.651098 73.567872 
L 525.651098 73.51682 
L 526.651098 73.462886 
L 527.651098 73.427635 
L 528.651098 73.321547 
L 529.651098 73.269283 
L 530.651098 73.232376 
L 531.651098 73.201345 
L 532.651098 73.14019 
L 533.651098 73.07277 
L 534.651098 73.023864 
L 535.651098 72.958672 
L 536.651098 72.920484 
L 537.651098 72.878488 
L 538.651098 72.836471 
L 539.651098 72.776955 
L 540.651098 72.663795 
L 541.651098 72.611544 
L 542.651098 72.572126 
L 543.651098 72.525025 
L 544.651098 72.468245 
L 545.651098 72.435582 
L 546.651098 72.399404 
L 547.651098 72.367314 
L 548.651098 72.333034 
L 549.717143 72.274656 
" clip-path="url(#p4da4e18d20)" style="fill: none; stroke: #ffffff; stroke-width: 3; stroke-linecap: round"/>
         <path d="M 396.651098 72.964375 
L 397.651098 72.995811 
L 398.651098 73.032752 
L 399.651098 73.130498 
L 400.651098 73.16302 
L 401.651098 73.236645 
L 402.651098 73.27521 
L 403.651098 73.310623 
L 404.651098 73.368263 
L 405.651098 73.438649 
L 406.651098 73.490614 
L 407.651098 73.549703 
L 408.651098 73.638024 
L 409.651098 73.684169 
L 410.651098 73.72658 
L 411.651098 73.757072 
L 412.651098 73.783117 
L 413.651098 73.804317 
L 414.651098 73.858618 
L 415.651098 73.886556 
L 416.651098 73.91628 
L 417.651098 73.941675 
L 418.651098 73.952875 
L 419.651098 73.962999 
L 420.651098 73.962795 
L 421.651098 73.953285 
L 422.651098 73.941631 
L 423.651098 73.910602 
L 424.651098 73.899434 
L 425.651098 73.869317 
L 426.651098 73.80954 
L 427.651098 73.772348 
L 428.651098 73.733252 
L 429.651098 73.690812 
L 430.651098 73.658047 
L 431.651098 73.590621 
L 432.651098 73.551495 
L 433.651098 73.50882 
L 434.651098 73.43824 
L 435.651098 73.401849 
L 436.651098 73.343446 
L 437.651098 73.232493 
L 438.651098 73.161835 
L 439.651098 73.048895 
L 440.651098 73.003122 
L 441.651098 72.941839 
L 442.651098 72.89334 
L 443.651098 72.812517 
L 444.651098 72.693998 
L 445.651098 72.623787 
L 446.651098 72.540525 
L 447.651098 72.507383 
L 448.651098 72.456146 
L 449.651098 72.387747 
L 450.651098 72.321532 
L 451.651098 72.244615 
L 452.651098 72.217299 
L 453.651098 72.190822 
L 454.651098 72.168171 
L 455.651098 72.14864 
L 456.651098 72.122246 
L 457.651098 72.072475 
L 458.651098 72.037402 
L 459.651098 72.001536 
L 460.651098 71.986169 
L 461.651098 71.9704 
L 462.651098 71.966987 
L 463.651098 71.96457 
L 464.651098 71.965056 
L 465.651098 71.966985 
L 466.651098 71.980242 
L 467.651098 71.988633 
L 468.651098 72.010169 
L 469.651098 72.033202 
L 470.651098 72.050435 
L 471.651098 72.068898 
L 472.651098 72.08935 
L 473.651098 72.10595 
L 474.651098 72.168729 
L 475.651098 72.243994 
L 476.651098 72.276633 
L 477.651098 72.344197 
L 478.651098 72.398244 
L 479.651098 72.431948 
L 480.651098 72.522074 
L 481.651098 72.550609 
L 482.651098 72.582095 
L 483.651098 72.613106 
L 484.651098 72.667914 
L 485.651098 72.732501 
L 486.651098 72.770697 
L 487.651098 72.866631 
L 488.651098 72.915889 
L 489.651098 72.959958 
L 490.651098 73.000082 
L 491.651098 73.108449 
L 492.651098 73.150077 
L 493.651098 73.212219 
L 494.651098 73.282181 
L 495.651098 73.386685 
L 496.651098 73.423673 
L 497.651098 73.46955 
L 498.651098 73.538045 
L 499.651098 73.586791 
L 500.651098 73.664388 
L 501.651098 73.694929 
L 502.651098 73.764443 
L 503.651098 73.788416 
L 504.651098 73.817038 
L 505.651098 73.858831 
L 506.651098 73.880407 
L 507.651098 73.894355 
L 508.651098 73.921077 
L 509.651098 73.930387 
L 510.651098 73.942834 
L 511.651098 73.953889 
L 512.651098 73.959553 
L 513.651098 73.964317 
L 514.651098 73.958769 
L 515.651098 73.945481 
L 516.651098 73.937964 
L 517.651098 73.913179 
L 518.651098 73.88961 
L 519.651098 73.85343 
L 520.651098 73.827468 
L 521.651098 73.805146 
L 522.651098 73.736386 
L 523.651098 73.661851 
L 524.651098 73.567872 
L 525.651098 73.51682 
L 526.651098 73.462886 
L 527.651098 73.427635 
L 528.651098 73.321547 
L 529.651098 73.269283 
L 530.651098 73.232376 
L 531.651098 73.201345 
L 532.651098 73.14019 
L 533.651098 73.07277 
L 534.651098 73.023864 
L 535.651098 72.958672 
L 536.651098 72.920484 
L 537.651098 72.878488 
L 538.651098 72.836471 
L 539.651098 72.776955 
L 540.651098 72.663795 
L 541.651098 72.611544 
L 542.651098 72.572126 
L 543.651098 72.525025 
L 544.651098 72.468245 
L 545.651098 72.435582 
L 546.651098 72.399404 
L 547.651098 72.367314 
L 548.651098 72.333034 
L 549.717143 72.274656 
" clip-path="url(#p4da4e18d20)" style="fill: none; stroke: #1f77b4; stroke-linecap: round"/>
         <path d="M 545.717143 70.964375 
L 546.597511 71.439706 
L 547.475418 71.91996 
L 548.326132 72.454601 
L 549.628306 73.142048 
L 548.700953 73.168063 
L 547.789279 73.580783 
L 546.879014 73.996322 
L 545.536519 74.603126 
L 546.191417 73.964375 
L 546.243381 72.964375 
L 546.302471 70.964375 
z
" clip-path="url(#p4da4e18d20)" style="fill: #ffffff; stroke: #ffffff; stroke-width: 3; stroke-linecap: round"/>
         <path d="M 545.717143 70.964375 
L 546.597511 71.439706 
L 547.475418 71.91996 
L 548.326132 72.454601 
L 549.628306 73.142048 
L 548.700953 73.168063 
L 547.789279 73.580783 
L 546.879014 73.996322 
L 545.536519 74.603126 
L 546.191417 73.964375 
L 546.243381 72.964375 
L 546.302471 70.964375 
z
" clip-path="url(#p4da4e18d20)" style="fill: #ffffff; stroke: #1f77b4; stroke-linecap: round"/>
         <g id="patch_9">
          <path d="M 227.905714 234.094009 
L 228.905714 234.125446 
L 229.905714 234.162386 
L 230.905714 234.260132 
L 231.905714 234.292654 
L 232.905714 234.366279 
L 233.905714 234.404844 
L 234.905714 234.440257 
L 235.905714 234.497897 
L 236.905714 234.568284 
L 237.905714 234.620248 
L 238.905714 234.679338 
L 239.905714 234.767659 
L 240.905714 234.813803 
L 241.905714 234.856214 
L 242.905714 234.886706 
L 243.905714 234.912751 
L 244.905714 234.933952 
L 245.905714 234.988253 
L 246.905714 235.01619 
L 247.905714 235.045914 
L 248.905714 235.071309 
L 249.905714 235.082509 
L 250.905714 235.092633 
L 251.905714 235.092429 
L 252.905714 235.082919 
L 253.905714 235.071266 
L 254.905714 235.040236 
L 255.905714 235.029068 
L 256.905714 234.998951 
L 257.905714 234.939174 
L 258.905714 234.901982 
L 259.905714 234.862886 
L 260.905714 234.820447 
L 261.905714 234.787682 
L 262.905714 234.720255 
L 263.905714 234.681129 
L 264.905714 234.638455 
L 265.905714 234.567874 
L 266.905714 234.531483 
L 267.905714 234.47308 
L 268.905714 234.362127 
L 269.905714 234.291469 
L 270.905714 234.178529 
L 271.905714 234.132756 
L 272.905714 234.071473 
L 273.905714 234.022974 
L 274.905714 233.942151 
L 275.905714 233.823632 
L 276.905714 233.753422 
L 277.905714 233.670159 
L 278.905714 233.637017 
L 279.905714 233.58578 
L 280.905714 233.517382 
L 281.905714 233.451166 
L 282.905714 233.374249 
L 283.905714 233.346934 
L 284.905714 233.320456 
L 285.905714 233.297805 
L 286.905714 233.278274 
L 287.905714 233.25188 
L 288.905714 233.202109 
L 289.905714 233.167036 
L 290.905714 233.131171 
L 291.905714 233.115803 
L 292.905714 233.100034 
L 293.905714 233.096622 
L 294.905714 233.094204 
L 295.905714 233.09469 
L 296.905714 233.096619 
L 297.905714 233.109876 
L 298.905714 233.118267 
L 299.905714 233.139804 
L 300.905714 233.162836 
L 301.905714 233.180069 
L 302.905714 233.198532 
L 303.905714 233.218984 
L 304.905714 233.235584 
L 305.905714 233.298363 
L 306.905714 233.373628 
L 307.905714 233.406267 
L 308.905714 233.473831 
L 309.905714 233.527878 
L 310.905714 233.561582 
L 311.905714 233.651708 
L 312.905714 233.680243 
L 313.905714 233.711729 
L 314.905714 233.74274 
L 315.905714 233.797548 
L 316.905714 233.862136 
L 317.905714 233.900331 
L 318.905714 233.996265 
L 319.905714 234.045523 
L 320.905714 234.089593 
L 321.905714 234.129716 
L 322.905714 234.238083 
L 323.905714 234.279711 
L 324.905714 234.341853 
L 325.905714 234.411815 
L 326.905714 234.516319 
L 327.905714 234.553307 
L 328.905714 234.599184 
L 329.905714 234.667679 
L 330.905714 234.716425 
L 331.905714 234.794022 
L 332.905714 234.824563 
L 333.905714 234.894077 
L 334.905714 234.91805 
L 335.905714 234.946672 
L 336.905714 234.988465 
L 337.905714 235.010041 
L 338.905714 235.023989 
L 339.905714 235.050712 
L 340.905714 235.060021 
L 341.905714 235.072468 
L 342.905714 235.083523 
L 343.905714 235.089187 
L 344.905714 235.093951 
L 345.905714 235.088404 
L 346.905714 235.075115 
L 347.905714 235.067598 
L 348.905714 235.042813 
L 349.905714 235.019244 
L 350.905714 234.983064 
L 351.905714 234.957102 
L 352.905714 234.934781 
L 353.905714 234.86602 
L 354.905714 234.791485 
L 355.905714 234.697506 
L 356.905714 234.646454 
L 357.905714 234.59252 
L 358.905714 234.557269 
L 359.905714 234.451181 
L 360.905714 234.398917 
L 361.905714 234.36201 
L 362.905714 234.33098 
L 363.905714 234.269824 
L 364.905714 234.202404 
L 365.905714 234.153498 
L 366.905714 234.088306 
L 367.905714 234.050118 
L 368.905714 234.008123 
L 369.905714 233.966105 
L 370.905714 233.906589 
L 371.905714 233.793429 
L 372.905714 233.741178 
L 373.905714 233.70176 
L 374.905714 233.654659 
L 375.905714 233.59788 
L 376.905714 233.565216 
L 377.905714 233.529039 
L 378.905714 233.496948 
L 379.905714 233.462668 
L 380.905714 233.40429 
L 381.905714 233.359105 
L 382.905714 233.329481 
L 383.905714 233.279096 
L 384.905714 233.253898 
L 385.905714 233.232847 
L 386.905714 233.197879 
L 387.905714 233.173589 
L 388.905714 233.159522 
L 389.905714 233.14058 
L 390.905714 233.124919 
L 391.905714 233.112367 
L 392.905714 233.106531 
L 393.905714 233.099649 
L 394.905714 233.094475 
L 395.905714 233.096258 
L 396.905714 233.098983 
L 397.905714 233.110137 
L 398.905714 233.138372 
L 399.905714 233.18216 
L 400.905714 233.202849 
L 401.905714 233.243823 
L 402.905714 233.283897 
L 403.905714 233.303007 
L 404.905714 233.325516 
L 405.905714 233.392167 
L 406.905714 233.441877 
L 407.905714 233.515584 
L 408.905714 233.546897 
L 409.905714 233.623519 
L 410.905714 233.661817 
L 411.905714 233.735934 
L 412.905714 233.839992 
L 413.905714 233.909823 
L 414.905714 234.015057 
L 415.905714 234.070072 
L 416.905714 234.193547 
L 417.905714 234.264106 
L 418.905714 234.379946 
L 419.905714 234.430126 
L 420.905714 234.46573 
L 421.905714 234.557137 
L 422.905714 234.610645 
L 423.905714 234.698553 
L 424.905714 234.767738 
L 425.905714 234.814502 
L 426.905714 234.886546 
L 427.905714 234.936688 
L 428.905714 234.954078 
L 429.905714 234.981081 
L 430.905714 235.000509 
L 431.905714 235.019847 
L 432.905714 235.058095 
L 433.905714 235.074528 
L 434.905714 235.082897 
L 435.905714 235.087216 
L 436.905714 235.093771 
L 438.759525 235.091225 
" clip-path="url(#p4da4e18d20)" style="fill: none; stroke: #ffffff; stroke-width: 3; stroke-linecap: round"/>
          <path d="M 227.905714 234.094009 
L 228.905714 234.125446 
L 229.905714 234.162386 
L 230.905714 234.260132 
L 231.905714 234.292654 
L 232.905714 234.366279 
L 233.905714 234.404844 
L 234.905714 234.440257 
L 235.905714 234.497897 
L 236.905714 234.568284 
L 237.905714 234.620248 
L 238.905714 234.679338 
L 239.905714 234.767659 
L 240.905714 234.813803 
L 241.905714 234.856214 
L 242.905714 234.886706 
L 243.905714 234.912751 
L 244.905714 234.933952 
L 245.905714 234.988253 
L 246.905714 235.01619 
L 247.905714 235.045914 
L 248.905714 235.071309 
L 249.905714 235.082509 
L 250.905714 235.092633 
L 251.905714 235.092429 
L 252.905714 235.082919 
L 253.905714 235.071266 
L 254.905714 235.040236 
L 255.905714 235.029068 
L 256.905714 234.998951 
L 257.905714 234.939174 
L 258.905714 234.901982 
L 259.905714 234.862886 
L 260.905714 234.820447 
L 261.905714 234.787682 
L 262.905714 234.720255 
L 263.905714 234.681129 
L 264.905714 234.638455 
L 265.905714 234.567874 
L 266.905714 234.531483 
L 267.905714 234.47308 
L 268.905714 234.362127 
L 269.905714 234.291469 
L 270.905714 234.178529 
L 271.905714 234.132756 
L 272.905714 234.071473 
L 273.905714 234.022974 
L 274.905714 233.942151 
L 275.905714 233.823632 
L 276.905714 233.753422 
L 277.905714 233.670159 
L 278.905714 233.637017 
L 279.905714 233.58578 
L 280.905714 233.517382 
L 281.905714 233.451166 
L 282.905714 233.374249 
L 283.905714 233.346934 
L 284.905714 233.320456 
L 285.905714 233.297805 
L 286.905714 233.278274 
L 287.905714 233.25188 
L 288.905714 233.202109 
L 289.905714 233.167036 
L 290.905714 233.131171 
L 291.905714 233.115803 
L 292.905714 233.100034 
L 293.905714 233.096622 
L 294.905714 233.094204 
L 295.905714 233.09469 
L 296.905714 233.096619 
L 297.905714 233.109876 
L 298.905714 233.118267 
L 299.905714 233.139804 
L 300.905714 233.162836 
L 301.905714 233.180069 
L 302.905714 233.198532 
L 303.905714 233.218984 
L 304.905714 233.235584 
L 305.905714 233.298363 
L 306.905714 233.373628 
L 307.905714 233.406267 
L 308.905714 233.473831 
L 309.905714 233.527878 
L 310.905714 233.561582 
L 311.905714 233.651708 
L 312.905714 233.680243 
L 313.905714 233.711729 
L 314.905714 233.74274 
L 315.905714 233.797548 
L 316.905714 233.862136 
L 317.905714 233.900331 
L 318.905714 233.996265 
L 319.905714 234.045523 
L 320.905714 234.089593 
L 321.905714 234.129716 
L 322.905714 234.238083 
L 323.905714 234.279711 
L 324.905714 234.341853 
L 325.905714 234.411815 
L 326.905714 234.516319 
L 327.905714 234.553307 
L 328.905714 234.599184 
L 329.905714 234.667679 
L 330.905714 234.716425 
L 331.905714 234.794022 
L 332.905714 234.824563 
L 333.905714 234.894077 
L 334.905714 234.91805 
L 335.905714 234.946672 
L 336.905714 234.988465 
L 337.905714 235.010041 
L 338.905714 235.023989 
L 339.905714 235.050712 
L 340.905714 235.060021 
L 341.905714 235.072468 
L 342.905714 235.083523 
L 343.905714 235.089187 
L 344.905714 235.093951 
L 345.905714 235.088404 
L 346.905714 235.075115 
L 347.905714 235.067598 
L 348.905714 235.042813 
L 349.905714 235.019244 
L 350.905714 234.983064 
L 351.905714 234.957102 
L 352.905714 234.934781 
L 353.905714 234.86602 
L 354.905714 234.791485 
L 355.905714 234.697506 
L 356.905714 234.646454 
L 357.905714 234.59252 
L 358.905714 234.557269 
L 359.905714 234.451181 
L 360.905714 234.398917 
L 361.905714 234.36201 
L 362.905714 234.33098 
L 363.905714 234.269824 
L 364.905714 234.202404 
L 365.905714 234.153498 
L 366.905714 234.088306 
L 367.905714 234.050118 
L 368.905714 234.008123 
L 369.905714 233.966105 
L 370.905714 233.906589 
L 371.905714 233.793429 
L 372.905714 233.741178 
L 373.905714 233.70176 
L 374.905714 233.654659 
L 375.905714 233.59788 
L 376.905714 233.565216 
L 377.905714 233.529039 
L 378.905714 233.496948 
L 379.905714 233.462668 
L 380.905714 233.40429 
L 381.905714 233.359105 
L 382.905714 233.329481 
L 383.905714 233.279096 
L 384.905714 233.253898 
L 385.905714 233.232847 
L 386.905714 233.197879 
L 387.905714 233.173589 
L 388.905714 233.159522 
L 389.905714 233.14058 
L 390.905714 233.124919 
L 391.905714 233.112367 
L 392.905714 233.106531 
L 393.905714 233.099649 
L 394.905714 233.094475 
L 395.905714 233.096258 
L 396.905714 233.098983 
L 397.905714 233.110137 
L 398.905714 233.138372 
L 399.905714 233.18216 
L 400.905714 233.202849 
L 401.905714 233.243823 
L 402.905714 233.283897 
L 403.905714 233.303007 
L 404.905714 233.325516 
L 405.905714 233.392167 
L 406.905714 233.441877 
L 407.905714 233.515584 
L 408.905714 233.546897 
L 409.905714 233.623519 
L 410.905714 233.661817 
L 411.905714 233.735934 
L 412.905714 233.839992 
L 413.905714 233.909823 
L 414.905714 234.015057 
L 415.905714 234.070072 
L 416.905714 234.193547 
L 417.905714 234.264106 
L 418.905714 234.379946 
L 419.905714 234.430126 
L 420.905714 234.46573 
L 421.905714 234.557137 
L 422.905714 234.610645 
L 423.905714 234.698553 
L 424.905714 234.767738 
L 425.905714 234.814502 
L 426.905714 234.886546 
L 427.905714 234.936688 
L 428.905714 234.954078 
L 429.905714 234.981081 
L 430.905714 235.000509 
L 431.905714 235.019847 
L 432.905714 235.058095 
L 433.905714 235.074528 
L 434.905714 235.082897 
L 435.905714 235.087216 
L 436.905714 235.093771 
L 438.759525 235.091225 
" clip-path="url(#p4da4e18d20)" style="fill: none; stroke: #ff7f0e; stroke-linecap: round"/>
          <path d="M 434.759525 232.094009 
L 435.639894 232.56934 
L 436.517801 233.049594 
L 437.368514 233.584235 
L 438.670689 234.271683 
L 437.743335 234.297697 
L 436.831661 234.710417 
L 435.921397 235.125956 
L 434.578901 235.73276 
L 435.2338 235.094009 
L 435.285764 234.094009 
L 435.344854 232.094009 
z
" clip-path="url(#p4da4e18d20)" style="fill: #ffffff; stroke: #ffffff; stroke-width: 3; stroke-linecap: round"/>
          <path d="M 434.759525 232.094009 
L 435.639894 232.56934 
L 436.517801 233.049594 
L 437.368514 233.584235 
L 438.670689 234.271683 
L 437.743335 234.297697 
L 436.831661 234.710417 
L 435.921397 235.125956 
L 434.578901 235.73276 
L 435.2338 235.094009 
L 435.285764 234.094009 
L 435.344854 232.094009 
z
" clip-path="url(#p4da4e18d20)" style="fill: #ffffff; stroke: #ff7f0e; stroke-linecap: round"/>
          <path d="M 461.649051 303.820319 
" clip-path="url(#p4da4e18d20)" style="fill: none; stroke-dasharray: 3.7,1.6; stroke-dashoffset: 0; stroke: #2ca02c"/>
          <path d="M 460.649051 303.820319 
L 462.649051 304.820319 
L 462.649051 302.820319 
z
" clip-path="url(#p4da4e18d20)" style="fill: #2ca02c; stroke: #2ca02c; stroke-linejoin: miter"/>
          <g id="patch_10">
           <path d="M 63.290625 321.621875 
L 63.290625 10.8 
" style="fill: none; stroke: #000000; stroke-width: 0.8; stroke-linejoin: miter; stroke-linecap: square"/>
          </g>
          <g id="text_11">
           <g id="patch_11">
            <path d="M 321.536238 127.795506 
L 342.840925 127.795506 
Q 344.840925 127.795506 344.840925 125.795506 
L 344.840925 116.117381 
Q 344.840925 114.117381 342.840925 114.117381 
L 321.536238 114.117381 
Q 319.536238 114.117381 319.536238 116.117381 
L 319.536238 125.795506 
Q 319.536238 127.795506 321.536238 127.795506 
z
" style="fill: #ffffff; opacity: 0.6"/>
           </g>
           <!-- ANC -->
           <g transform="translate(321.536238 123.715819) scale(0.1 -0.1)">
            <defs>
             <path id="DejaVuSans-4e" d="M 628 4666 
L 1478 4666 
L 3547 763 
L 3547 4666 
L 4159 4666 
L 4159 0 
L 3309 0 
L 1241 3903 
L 1241 0 
L 628 0 
L 628 4666 
z
" transform="scale(0.015625)"/>
            </defs>
            <use xlink:href="#DejaVuSans-41"/>
            <use xlink:href="#DejaVuSans-4e" x="68.408203"/>
            <use xlink:href="#DejaVuSans-43" x="143.212891"/>
           </g>
          </g>
         </g>
        </g>
        <defs>
         <clipPath id="p4da4e18d20">
          <rect x="63.290625" y="10.8" width="540.309375" height="310.821875"/>
         </clipPath>
        </defs>
       </g>
      </g>
     </g>
    </g>
   </g>
  </g>
 </g>
</svg>
