<?xml version="1.0" encoding="utf-8" standalone="no"?>
<!DOCTYPE svg PUBLIC "-//W3C//DTD SVG 1.1//EN"
  "http://www.w3.org/Graphics/SVG/1.1/DTD/svg11.dtd">
<svg xmlns:xlink="http://www.w3.org/1999/xlink" width="614.4pt" height="345.6pt" viewBox="0 0 614.4 345.6" xmlns="http://www.w3.org/2000/svg" version="1.1">
 <metadata>
  <rdf:RDF xmlns:dc="http://purl.org/dc/elements/1.1/" xmlns:cc="http://creativecommons.org/ns#" xmlns:rdf="http://www.w3.org/1999/02/22-rdf-syntax-ns#">
   <cc:Work>
    <dc:type rdf:resource="http://purl.org/dc/dcmitype/StillImage"/>
    <dc:date>2024-04-17T19:48:50.391827</dc:date>
    <dc:format>image/svg+xml</dc:format>
    <dc:creator>
     <cc:Agent>
      <dc:title>Matplotlib v3.7.1, https://matplotlib.org/</dc:title>
     </cc:Agent>
    </dc:creator>
   </cc:Work>
  </rdf:RDF>
 </metadata>
 <defs>
  <style type="text/css">*{stroke-linejoin: round; stroke-linecap: butt}</style>
 </defs>
 <g id="figure_1">
  <g id="patch_1">
   <path d="M 0 345.6 
L 614.4 345.6 
L 614.4 0 
L 0 0 
z
" style="fill: #ffffff"/>
  </g>
  <g id="axes_1">
   <g id="patch_2">
    <path d="M 63.290625 321.621875 
L 603.6 321.621875 
L 603.6 10.8 
L 63.290625 10.8 
z
" style="fill: #ffffff"/>
   </g>
   <path d="M 547.744585 295.53391 
L 546.744585 295.502474 
L 545.744585 295.465533 
L 544.744585 295.367787 
L 543.744585 295.335265 
L 542.744585 295.261641 
L 541.744585 295.223075 
L 540.744585 295.187662 
L 539.744585 295.130022 
L 538.744585 295.059636 
L 537.744585 295.007672 
L 536.744585 294.948582 
L 535.744585 294.860261 
L 534.744585 294.814117 
L 533.744585 294.771706 
L 532.744585 294.741213 
L 531.744585 294.715168 
L 530.744585 294.693968 
L 529.744585 294.639667 
L 528.744585 294.611729 
L 527.744585 294.582005 
L 526.744585 294.55661 
L 525.744585 294.54541 
L 524.744585 294.535286 
L 523.744585 294.53549 
L 522.744585 294.545 
L 521.744585 294.556654 
L 520.744585 294.587683 
L 519.744585 294.598851 
L 518.744585 294.628969 
L 517.744585 294.688745 
L 516.744585 294.725937 
L 515.744585 294.765033 
L 514.744585 294.807473 
L 513.744585 294.840238 
L 512.744585 294.907664 
L 511.744585 294.94679 
L 510.744585 294.989465 
L 509.744585 295.060045 
L 508.744585 295.096436 
L 507.744585 295.154839 
L 506.744585 295.265792 
L 505.744585 295.33645 
L 504.744585 295.44939 
L 503.744585 295.495163 
L 502.744585 295.556446 
L 501.744585 295.604946 
L 500.744585 295.685768 
L 499.744585 295.804287 
L 498.744585 295.874498 
L 497.744585 295.95776 
L 496.744585 295.990902 
L 495.744585 296.042139 
L 494.744585 296.110538 
L 493.744585 296.176753 
L 492.744585 296.25367 
L 491.744585 296.280986 
L 490.744585 296.307463 
L 489.744585 296.330114 
L 488.744585 296.349645 
L 487.744585 296.376039 
L 486.744585 296.42581 
L 485.744585 296.460883 
L 484.744585 296.496749 
L 483.744585 296.512116 
L 482.744585 296.527885 
L 481.744585 296.531298 
L 480.744585 296.533716 
L 479.744585 296.533229 
L 478.744585 296.5313 
L 477.744585 296.518043 
L 476.744585 296.509653 
L 475.744585 296.488116 
L 474.744585 296.465084 
L 473.744585 296.44785 
L 472.744585 296.429388 
L 471.744585 296.408935 
L 470.744585 296.392335 
L 469.744585 296.329556 
L 468.198336 296.254291 
" clip-path="url(#p817e6d3729)" style="fill: none; stroke-dasharray: 3.7,1.6; stroke-dashoffset: 0; stroke: #2ca02c"/>
   <g id="patch_3">
    <path d="M 309.403803 10.8 
L 309.403803 260.679715 
M 355.134571 10.8 
L 355.134571 260.679715 
" clip-path="url(#p817e6d3729)" style="fill: none; stroke: #ffffff; stroke-width: 3; stroke-linejoin: miter"/>
    <path d="M 309.403803 10.8 
L 309.403803 260.679715 
M 355.134571 10.8 
L 355.134571 260.679715 
" clip-path="url(#p817e6d3729)" style="fill: none; stroke: #1f77b4; stroke-linejoin: miter"/>
    <g id="PolyCollection_1">
     <path d="M 355.134571 10.8 
L 309.403803 10.8 
L 309.403803 260.679715 
L 355.134571 260.679715 
L 355.134571 260.679715 
L 355.134571 10.8 
z
" clip-path="url(#p817e6d3729)" style="fill: #1f77b4; fill-opacity: 0.5"/>
    </g>
    <g id="patch_4">
     <path d="M 87.850142 260.679715 
L 87.850142 321.621875 
M 225.950891 260.679715 
L 225.950891 321.621875 
" clip-path="url(#p817e6d3729)" style="fill: none; stroke: #ffffff; stroke-width: 3; stroke-linejoin: miter"/>
     <path d="M 87.850142 260.679715 
L 87.850142 321.621875 
M 225.950891 260.679715 
L 225.950891 321.621875 
" clip-path="url(#p817e6d3729)" style="fill: none; stroke: #ff7f0e; stroke-linejoin: miter"/>
     <g id="PolyCollection_2">
      <path d="M 225.950891 260.679715 
L 87.850142 260.679715 
L 87.850142 321.621875 
L 225.950891 321.621875 
L 225.950891 321.621875 
L 225.950891 260.679715 
z
" clip-path="url(#p817e6d3729)" style="fill: #ff7f0e; fill-opacity: 0.5"/>
     </g>
     <g id="patch_5">
      <path d="M 553.147679 72.964375 
L 553.147679 321.621875 
M 579.040483 72.964375 
L 579.040483 321.621875 
" clip-path="url(#p817e6d3729)" style="fill: none; stroke: #ffffff; stroke-width: 3; stroke-linejoin: miter"/>
      <path d="M 553.147679 72.964375 
L 553.147679 321.621875 
M 579.040483 72.964375 
L 579.040483 321.621875 
" clip-path="url(#p817e6d3729)" style="fill: none; stroke: #2ca02c; stroke-linejoin: miter"/>
      <g id="PolyCollection_3">
       <path d="M 579.040483 72.964375 
L 553.147679 72.964375 
L 553.147679 321.621875 
L 579.040483 321.621875 
L 579.040483 321.621875 
L 579.040483 72.964375 
z
" clip-path="url(#p817e6d3729)" style="fill: #2ca02c; fill-opacity: 0.5"/>
      </g>
      <g id="patch_6">
       <path d="M 435.568026 266.411481 
L 435.568026 321.621875 
M 462.795242 266.411481 
L 462.795242 321.621875 
" clip-path="url(#p817e6d3729)" style="fill: none; stroke: #ffffff; stroke-width: 3; stroke-linejoin: miter"/>
       <path d="M 435.568026 266.411481 
L 435.568026 321.621875 
M 462.795242 266.411481 
L 462.795242 321.621875 
" clip-path="url(#p817e6d3729)" style="fill: none; stroke: #d62728; stroke-linejoin: miter"/>
       <g id="PolyCollection_4">
        <path d="M 462.795242 266.411481 
L 435.568026 266.411481 
L 435.568026 321.621875 
L 462.795242 321.621875 
L 462.795242 321.621875 
L 462.795242 266.411481 
z
" clip-path="url(#p817e6d3729)" style="fill: #d62728; fill-opacity: 0.5"/>
       </g>
       <g id="matplotlib.axis_1">
        <g id="xtick_1">
         <g id="line2d_1"/>
         <g id="text_1">
          <!-- OUT -->
          <g transform="translate(146.251298 332.720312) scale(0.1 -0.1)">
           <defs>
            <path id="DejaVuSans-4f" d="M 2522 4238 
Q 1834 4238 1429 3725 
Q 1025 3213 1025 2328 
Q 1025 1447 1429 934 
Q 1834 422 2522 422 
Q 3209 422 3611 934 
Q 4013 1447 4013 2328 
Q 4013 3213 3611 3725 
Q 3209 4238 2522 4238 
z
M 2522 4750 
Q 3503 4750 4090 4092 
Q 4678 3434 4678 2328 
Q 4678 1225 4090 567 
Q 3503 -91 2522 -91 
Q 1538 -91 948 565 
Q 359 1222 359 2328 
Q 359 3434 948 4092 
Q 1538 4750 2522 4750 
z
" transform="scale(0.015625)"/>
            <path id="DejaVuSans-55" d="M 556 4666 
L 1191 4666 
L 1191 1831 
Q 1191 1081 1462 751 
Q 1734 422 2344 422 
Q 2950 422 3222 751 
Q 3494 1081 3494 1831 
L 3494 4666 
L 4128 4666 
L 4128 1753 
Q 4128 841 3676 375 
Q 3225 -91 2344 -91 
Q 1459 -91 1007 375 
Q 556 841 556 1753 
L 556 4666 
z
" transform="scale(0.015625)"/>
            <path id="DejaVuSans-54" d="M -19 4666 
L 3928 4666 
L 3928 4134 
L 2272 4134 
L 2272 0 
L 1638 0 
L 1638 4134 
L -19 4134 
L -19 4666 
z
" transform="scale(0.015625)"/>
           </defs>
           <use xlink:href="#DejaVuSans-4f"/>
           <use xlink:href="#DejaVuSans-55" x="78.710938"/>
           <use xlink:href="#DejaVuSans-54" x="151.904297"/>
          </g>
         </g>
        </g>
        <g id="xtick_2">
         <g id="line2d_2"/>
         <g id="text_2">
          <!-- SRC -->
          <g transform="translate(556.204237 332.720312) scale(0.1 -0.1)">
           <defs>
            <path id="DejaVuSans-53" d="M 3425 4513 
L 3425 3897 
Q 3066 4069 2747 4153 
Q 2428 4238 2131 4238 
Q 1616 4238 1336 4038 
Q 1056 3838 1056 3469 
Q 1056 3159 1242 3001 
Q 1428 2844 1947 2747 
L 2328 2669 
Q 3034 2534 3370 2195 
Q 3706 1856 3706 1288 
Q 3706 609 3251 259 
Q 2797 -91 1919 -91 
Q 1588 -91 1214 -16 
Q 841 59 441 206 
L 441 856 
Q 825 641 1194 531 
Q 1563 422 1919 422 
Q 2459 422 2753 634 
Q 3047 847 3047 1241 
Q 3047 1584 2836 1778 
Q 2625 1972 2144 2069 
L 1759 2144 
Q 1053 2284 737 2584 
Q 422 2884 422 3419 
Q 422 4038 858 4394 
Q 1294 4750 2059 4750 
Q 2388 4750 2728 4690 
Q 3069 4631 3425 4513 
z
" transform="scale(0.015625)"/>
            <path id="DejaVuSans-52" d="M 2841 2188 
Q 3044 2119 3236 1894 
Q 3428 1669 3622 1275 
L 4263 0 
L 3584 0 
L 2988 1197 
Q 2756 1666 2539 1819 
Q 2322 1972 1947 1972 
L 1259 1972 
L 1259 0 
L 628 0 
L 628 4666 
L 2053 4666 
Q 2853 4666 3247 4331 
Q 3641 3997 3641 3322 
Q 3641 2881 3436 2590 
Q 3231 2300 2841 2188 
z
M 1259 4147 
L 1259 2491 
L 2053 2491 
Q 2509 2491 2742 2702 
Q 2975 2913 2975 3322 
Q 2975 3731 2742 3939 
Q 2509 4147 2053 4147 
L 1259 4147 
z
" transform="scale(0.015625)"/>
            <path id="DejaVuSans-43" d="M 4122 4306 
L 4122 3641 
Q 3803 3938 3442 4084 
Q 3081 4231 2675 4231 
Q 1875 4231 1450 3742 
Q 1025 3253 1025 2328 
Q 1025 1406 1450 917 
Q 1875 428 2675 428 
Q 3081 428 3442 575 
Q 3803 722 4122 1019 
L 4122 359 
Q 3791 134 3420 21 
Q 3050 -91 2638 -91 
Q 1578 -91 968 557 
Q 359 1206 359 2328 
Q 359 3453 968 4101 
Q 1578 4750 2638 4750 
Q 3056 4750 3426 4639 
Q 3797 4528 4122 4306 
z
" transform="scale(0.015625)"/>
           </defs>
           <use xlink:href="#DejaVuSans-53"/>
           <use xlink:href="#DejaVuSans-52" x="63.476562"/>
           <use xlink:href="#DejaVuSans-43" x="127.958984"/>
          </g>
         </g>
        </g>
        <g id="xtick_3">
         <g id="line2d_3"/>
         <g id="text_3">
          <!-- TAR -->
          <g transform="translate(439.620697 332.720312) scale(0.1 -0.1)">
           <defs>
            <path id="DejaVuSans-41" d="M 2188 4044 
L 1331 1722 
L 3047 1722 
L 2188 4044 
z
M 1831 4666 
L 2547 4666 
L 4325 0 
L 3669 0 
L 3244 1197 
L 1141 1197 
L 716 0 
L 50 0 
L 1831 4666 
z
" transform="scale(0.015625)"/>
           </defs>
           <use xlink:href="#DejaVuSans-54"/>
           <use xlink:href="#DejaVuSans-41" x="53.333984"/>
           <use xlink:href="#DejaVuSans-52" x="121.742188"/>
          </g>
         </g>
        </g>
       </g>
       <g id="matplotlib.axis_2">
        <g id="ytick_1">
         <g id="line2d_4">
          <defs>
           <path id="meb6b6129e7" d="M 0 0 
L -3.5 0 
" style="stroke: #000000; stroke-width: 0.8"/>
          </defs>
          <g>
           <use xlink:href="#meb6b6129e7" x="63.290625" y="321.621875" style="stroke: #000000; stroke-width: 0.8"/>
          </g>
         </g>
         <g id="text_4">
          <!-- 0 -->
          <g transform="translate(49.928125 325.421094) scale(0.1 -0.1)">
           <defs>
            <path id="DejaVuSans-30" d="M 2034 4250 
Q 1547 4250 1301 3770 
Q 1056 3291 1056 2328 
Q 1056 1369 1301 889 
Q 1547 409 2034 409 
Q 2525 409 2770 889 
Q 3016 1369 3016 2328 
Q 3016 3291 2770 3770 
Q 2525 4250 2034 4250 
z
M 2034 4750 
Q 2819 4750 3233 4129 
Q 3647 3509 3647 2328 
Q 3647 1150 3233 529 
Q 2819 -91 2034 -91 
Q 1250 -91 836 529 
Q 422 1150 422 2328 
Q 422 3509 836 4129 
Q 1250 4750 2034 4750 
z
" transform="scale(0.015625)"/>
           </defs>
           <use xlink:href="#DejaVuSans-30"/>
          </g>
         </g>
        </g>
        <g id="ytick_2">
         <g id="line2d_5">
          <g>
           <use xlink:href="#meb6b6129e7" x="63.290625" y="286.500759" style="stroke: #000000; stroke-width: 0.8"/>
          </g>
         </g>
         <g id="text_5">
          <!-- 2500 -->
          <g transform="translate(30.840625 290.299978) scale(0.1 -0.1)">
           <defs>
            <path id="DejaVuSans-32" d="M 1228 531 
L 3431 531 
L 3431 0 
L 469 0 
L 469 531 
Q 828 903 1448 1529 
Q 2069 2156 2228 2338 
Q 2531 2678 2651 2914 
Q 2772 3150 2772 3378 
Q 2772 3750 2511 3984 
Q 2250 4219 1831 4219 
Q 1534 4219 1204 4116 
Q 875 4013 500 3803 
L 500 4441 
Q 881 4594 1212 4672 
Q 1544 4750 1819 4750 
Q 2544 4750 2975 4387 
Q 3406 4025 3406 3419 
Q 3406 3131 3298 2873 
Q 3191 2616 2906 2266 
Q 2828 2175 2409 1742 
Q 1991 1309 1228 531 
z
" transform="scale(0.015625)"/>
            <path id="DejaVuSans-35" d="M 691 4666 
L 3169 4666 
L 3169 4134 
L 1269 4134 
L 1269 2991 
Q 1406 3038 1543 3061 
Q 1681 3084 1819 3084 
Q 2600 3084 3056 2656 
Q 3513 2228 3513 1497 
Q 3513 744 3044 326 
Q 2575 -91 1722 -91 
Q 1428 -91 1123 -41 
Q 819 9 494 109 
L 494 744 
Q 775 591 1075 516 
Q 1375 441 1709 441 
Q 2250 441 2565 725 
Q 2881 1009 2881 1497 
Q 2881 1984 2565 2268 
Q 2250 2553 1709 2553 
Q 1456 2553 1204 2497 
Q 953 2441 691 2322 
L 691 4666 
z
" transform="scale(0.015625)"/>
           </defs>
           <use xlink:href="#DejaVuSans-32"/>
           <use xlink:href="#DejaVuSans-35" x="63.623047"/>
           <use xlink:href="#DejaVuSans-30" x="127.246094"/>
           <use xlink:href="#DejaVuSans-30" x="190.869141"/>
          </g>
         </g>
        </g>
        <g id="ytick_3">
         <g id="line2d_6">
          <g>
           <use xlink:href="#meb6b6129e7" x="63.290625" y="251.379643" style="stroke: #000000; stroke-width: 0.8"/>
          </g>
         </g>
         <g id="text_6">
          <!-- 5000 -->
          <g transform="translate(30.840625 255.178862) scale(0.1 -0.1)">
           <use xlink:href="#DejaVuSans-35"/>
           <use xlink:href="#DejaVuSans-30" x="63.623047"/>
           <use xlink:href="#DejaVuSans-30" x="127.246094"/>
           <use xlink:href="#DejaVuSans-30" x="190.869141"/>
          </g>
         </g>
        </g>
        <g id="ytick_4">
         <g id="line2d_7">
          <g>
           <use xlink:href="#meb6b6129e7" x="63.290625" y="216.258528" style="stroke: #000000; stroke-width: 0.8"/>
          </g>
         </g>
         <g id="text_7">
          <!-- 7500 -->
          <g transform="translate(30.840625 220.057746) scale(0.1 -0.1)">
           <defs>
            <path id="DejaVuSans-37" d="M 525 4666 
L 3525 4666 
L 3525 4397 
L 1831 0 
L 1172 0 
L 2766 4134 
L 525 4134 
L 525 4666 
z
" transform="scale(0.015625)"/>
           </defs>
           <use xlink:href="#DejaVuSans-37"/>
           <use xlink:href="#DejaVuSans-35" x="63.623047"/>
           <use xlink:href="#DejaVuSans-30" x="127.246094"/>
           <use xlink:href="#DejaVuSans-30" x="190.869141"/>
          </g>
         </g>
        </g>
        <g id="ytick_5">
         <g id="line2d_8">
          <g>
           <use xlink:href="#meb6b6129e7" x="63.290625" y="181.137412" style="stroke: #000000; stroke-width: 0.8"/>
          </g>
         </g>
         <g id="text_8">
          <!-- 10000 -->
          <g transform="translate(24.478125 184.93663) scale(0.1 -0.1)">
           <defs>
            <path id="DejaVuSans-31" d="M 794 531 
L 1825 531 
L 1825 4091 
L 703 3866 
L 703 4441 
L 1819 4666 
L 2450 4666 
L 2450 531 
L 3481 531 
L 3481 0 
L 794 0 
L 794 531 
z
" transform="scale(0.015625)"/>
           </defs>
           <use xlink:href="#DejaVuSans-31"/>
           <use xlink:href="#DejaVuSans-30" x="63.623047"/>
           <use xlink:href="#DejaVuSans-30" x="127.246094"/>
           <use xlink:href="#DejaVuSans-30" x="190.869141"/>
           <use xlink:href="#DejaVuSans-30" x="254.492188"/>
          </g>
         </g>
        </g>
        <g id="ytick_6">
         <g id="line2d_9">
          <g>
           <use xlink:href="#meb6b6129e7" x="63.290625" y="146.016296" style="stroke: #000000; stroke-width: 0.8"/>
          </g>
         </g>
         <g id="text_9">
          <!-- 12500 -->
          <g transform="translate(24.478125 149.815515) scale(0.1 -0.1)">
           <use xlink:href="#DejaVuSans-31"/>
           <use xlink:href="#DejaVuSans-32" x="63.623047"/>
           <use xlink:href="#DejaVuSans-35" x="127.246094"/>
           <use xlink:href="#DejaVuSans-30" x="190.869141"/>
           <use xlink:href="#DejaVuSans-30" x="254.492188"/>
          </g>
         </g>
        </g>
        <g id="ytick_7">
         <g id="line2d_10">
          <g>
           <use xlink:href="#meb6b6129e7" x="63.290625" y="110.89518" style="stroke: #000000; stroke-width: 0.8"/>
          </g>
         </g>
         <g id="text_10">
          <!-- 15000 -->
          <g transform="translate(24.478125 114.694399) scale(0.1 -0.1)">
           <use xlink:href="#DejaVuSans-31"/>
           <use xlink:href="#DejaVuSans-35" x="63.623047"/>
           <use xlink:href="#DejaVuSans-30" x="127.246094"/>
           <use xlink:href="#DejaVuSans-30" x="190.869141"/>
           <use xlink:href="#DejaVuSans-30" x="254.492188"/>
          </g>
         </g>
        </g>
        <g id="ytick_8">
         <g id="line2d_11">
          <g>
           <use xlink:href="#meb6b6129e7" x="63.290625" y="75.774064" style="stroke: #000000; stroke-width: 0.8"/>
          </g>
         </g>
         <g id="text_11">
          <!-- 17500 -->
          <g transform="translate(24.478125 79.573283) scale(0.1 -0.1)">
           <use xlink:href="#DejaVuSans-31"/>
           <use xlink:href="#DejaVuSans-37" x="63.623047"/>
           <use xlink:href="#DejaVuSans-35" x="127.246094"/>
           <use xlink:href="#DejaVuSans-30" x="190.869141"/>
           <use xlink:href="#DejaVuSans-30" x="254.492188"/>
          </g>
         </g>
        </g>
        <g id="ytick_9">
         <g id="line2d_12">
          <g>
           <use xlink:href="#meb6b6129e7" x="63.290625" y="40.652948" style="stroke: #000000; stroke-width: 0.8"/>
          </g>
         </g>
         <g id="text_12">
          <!-- 20000 -->
          <g transform="translate(24.478125 44.452167) scale(0.1 -0.1)">
           <use xlink:href="#DejaVuSans-32"/>
           <use xlink:href="#DejaVuSans-30" x="63.623047"/>
           <use xlink:href="#DejaVuSans-30" x="127.246094"/>
           <use xlink:href="#DejaVuSans-30" x="190.869141"/>
           <use xlink:href="#DejaVuSans-30" x="254.492188"/>
          </g>
         </g>
        </g>
        <g id="text_13">
         <!-- time ago (generations) -->
         <g transform="translate(18.398438 223.682031) rotate(-90) scale(0.1 -0.1)">
          <defs>
           <path id="DejaVuSans-74" d="M 1172 4494 
L 1172 3500 
L 2356 3500 
L 2356 3053 
L 1172 3053 
L 1172 1153 
Q 1172 725 1289 603 
Q 1406 481 1766 481 
L 2356 481 
L 2356 0 
L 1766 0 
Q 1100 0 847 248 
Q 594 497 594 1153 
L 594 3053 
L 172 3053 
L 172 3500 
L 594 3500 
L 594 4494 
L 1172 4494 
z
" transform="scale(0.015625)"/>
           <path id="DejaVuSans-69" d="M 603 3500 
L 1178 3500 
L 1178 0 
L 603 0 
L 603 3500 
z
M 603 4863 
L 1178 4863 
L 1178 4134 
L 603 4134 
L 603 4863 
z
" transform="scale(0.015625)"/>
           <path id="DejaVuSans-6d" d="M 3328 2828 
Q 3544 3216 3844 3400 
Q 4144 3584 4550 3584 
Q 5097 3584 5394 3201 
Q 5691 2819 5691 2113 
L 5691 0 
L 5113 0 
L 5113 2094 
Q 5113 2597 4934 2840 
Q 4756 3084 4391 3084 
Q 3944 3084 3684 2787 
Q 3425 2491 3425 1978 
L 3425 0 
L 2847 0 
L 2847 2094 
Q 2847 2600 2669 2842 
Q 2491 3084 2119 3084 
Q 1678 3084 1418 2786 
Q 1159 2488 1159 1978 
L 1159 0 
L 581 0 
L 581 3500 
L 1159 3500 
L 1159 2956 
Q 1356 3278 1631 3431 
Q 1906 3584 2284 3584 
Q 2666 3584 2933 3390 
Q 3200 3197 3328 2828 
z
" transform="scale(0.015625)"/>
           <path id="DejaVuSans-65" d="M 3597 1894 
L 3597 1613 
L 953 1613 
Q 991 1019 1311 708 
Q 1631 397 2203 397 
Q 2534 397 2845 478 
Q 3156 559 3463 722 
L 3463 178 
Q 3153 47 2828 -22 
Q 2503 -91 2169 -91 
Q 1331 -91 842 396 
Q 353 884 353 1716 
Q 353 2575 817 3079 
Q 1281 3584 2069 3584 
Q 2775 3584 3186 3129 
Q 3597 2675 3597 1894 
z
M 3022 2063 
Q 3016 2534 2758 2815 
Q 2500 3097 2075 3097 
Q 1594 3097 1305 2825 
Q 1016 2553 972 2059 
L 3022 2063 
z
" transform="scale(0.015625)"/>
           <path id="DejaVuSans-20" transform="scale(0.015625)"/>
           <path id="DejaVuSans-61" d="M 2194 1759 
Q 1497 1759 1228 1600 
Q 959 1441 959 1056 
Q 959 750 1161 570 
Q 1363 391 1709 391 
Q 2188 391 2477 730 
Q 2766 1069 2766 1631 
L 2766 1759 
L 2194 1759 
z
M 3341 1997 
L 3341 0 
L 2766 0 
L 2766 531 
Q 2569 213 2275 61 
Q 1981 -91 1556 -91 
Q 1019 -91 701 211 
Q 384 513 384 1019 
Q 384 1609 779 1909 
Q 1175 2209 1959 2209 
L 2766 2209 
L 2766 2266 
Q 2766 2663 2505 2880 
Q 2244 3097 1772 3097 
Q 1472 3097 1187 3025 
Q 903 2953 641 2809 
L 641 3341 
Q 956 3463 1253 3523 
Q 1550 3584 1831 3584 
Q 2591 3584 2966 3190 
Q 3341 2797 3341 1997 
z
" transform="scale(0.015625)"/>
           <path id="DejaVuSans-67" d="M 2906 1791 
Q 2906 2416 2648 2759 
Q 2391 3103 1925 3103 
Q 1463 3103 1205 2759 
Q 947 2416 947 1791 
Q 947 1169 1205 825 
Q 1463 481 1925 481 
Q 2391 481 2648 825 
Q 2906 1169 2906 1791 
z
M 3481 434 
Q 3481 -459 3084 -895 
Q 2688 -1331 1869 -1331 
Q 1566 -1331 1297 -1286 
Q 1028 -1241 775 -1147 
L 775 -588 
Q 1028 -725 1275 -790 
Q 1522 -856 1778 -856 
Q 2344 -856 2625 -561 
Q 2906 -266 2906 331 
L 2906 616 
Q 2728 306 2450 153 
Q 2172 0 1784 0 
Q 1141 0 747 490 
Q 353 981 353 1791 
Q 353 2603 747 3093 
Q 1141 3584 1784 3584 
Q 2172 3584 2450 3431 
Q 2728 3278 2906 2969 
L 2906 3500 
L 3481 3500 
L 3481 434 
z
" transform="scale(0.015625)"/>
           <path id="DejaVuSans-6f" d="M 1959 3097 
Q 1497 3097 1228 2736 
Q 959 2375 959 1747 
Q 959 1119 1226 758 
Q 1494 397 1959 397 
Q 2419 397 2687 759 
Q 2956 1122 2956 1747 
Q 2956 2369 2687 2733 
Q 2419 3097 1959 3097 
z
M 1959 3584 
Q 2709 3584 3137 3096 
Q 3566 2609 3566 1747 
Q 3566 888 3137 398 
Q 2709 -91 1959 -91 
Q 1206 -91 779 398 
Q 353 888 353 1747 
Q 353 2609 779 3096 
Q 1206 3584 1959 3584 
z
" transform="scale(0.015625)"/>
           <path id="DejaVuSans-28" d="M 1984 4856 
Q 1566 4138 1362 3434 
Q 1159 2731 1159 2009 
Q 1159 1288 1364 580 
Q 1569 -128 1984 -844 
L 1484 -844 
Q 1016 -109 783 600 
Q 550 1309 550 2009 
Q 550 2706 781 3412 
Q 1013 4119 1484 4856 
L 1984 4856 
z
" transform="scale(0.015625)"/>
           <path id="DejaVuSans-6e" d="M 3513 2113 
L 3513 0 
L 2938 0 
L 2938 2094 
Q 2938 2591 2744 2837 
Q 2550 3084 2163 3084 
Q 1697 3084 1428 2787 
Q 1159 2491 1159 1978 
L 1159 0 
L 581 0 
L 581 3500 
L 1159 3500 
L 1159 2956 
Q 1366 3272 1645 3428 
Q 1925 3584 2291 3584 
Q 2894 3584 3203 3211 
Q 3513 2838 3513 2113 
z
" transform="scale(0.015625)"/>
           <path id="DejaVuSans-72" d="M 2631 2963 
Q 2534 3019 2420 3045 
Q 2306 3072 2169 3072 
Q 1681 3072 1420 2755 
Q 1159 2438 1159 1844 
L 1159 0 
L 581 0 
L 581 3500 
L 1159 3500 
L 1159 2956 
Q 1341 3275 1631 3429 
Q 1922 3584 2338 3584 
Q 2397 3584 2469 3576 
Q 2541 3569 2628 3553 
L 2631 2963 
z
" transform="scale(0.015625)"/>
           <path id="DejaVuSans-73" d="M 2834 3397 
L 2834 2853 
Q 2591 2978 2328 3040 
Q 2066 3103 1784 3103 
Q 1356 3103 1142 2972 
Q 928 2841 928 2578 
Q 928 2378 1081 2264 
Q 1234 2150 1697 2047 
L 1894 2003 
Q 2506 1872 2764 1633 
Q 3022 1394 3022 966 
Q 3022 478 2636 193 
Q 2250 -91 1575 -91 
Q 1294 -91 989 -36 
Q 684 19 347 128 
L 347 722 
Q 666 556 975 473 
Q 1284 391 1588 391 
Q 1994 391 2212 530 
Q 2431 669 2431 922 
Q 2431 1156 2273 1281 
Q 2116 1406 1581 1522 
L 1381 1569 
Q 847 1681 609 1914 
Q 372 2147 372 2553 
Q 372 3047 722 3315 
Q 1072 3584 1716 3584 
Q 2034 3584 2315 3537 
Q 2597 3491 2834 3397 
z
" transform="scale(0.015625)"/>
           <path id="DejaVuSans-29" d="M 513 4856 
L 1013 4856 
Q 1481 4119 1714 3412 
Q 1947 2706 1947 2009 
Q 1947 1309 1714 600 
Q 1481 -109 1013 -844 
L 513 -844 
Q 928 -128 1133 580 
Q 1338 1288 1338 2009 
Q 1338 2731 1133 3434 
Q 928 4138 513 4856 
z
" transform="scale(0.015625)"/>
          </defs>
          <use xlink:href="#DejaVuSans-74"/>
          <use xlink:href="#DejaVuSans-69" x="39.208984"/>
          <use xlink:href="#DejaVuSans-6d" x="66.992188"/>
          <use xlink:href="#DejaVuSans-65" x="164.404297"/>
          <use xlink:href="#DejaVuSans-20" x="225.927734"/>
          <use xlink:href="#DejaVuSans-61" x="257.714844"/>
          <use xlink:href="#DejaVuSans-67" x="318.994141"/>
          <use xlink:href="#DejaVuSans-6f" x="382.470703"/>
          <use xlink:href="#DejaVuSans-20" x="443.652344"/>
          <use xlink:href="#DejaVuSans-28" x="475.439453"/>
          <use xlink:href="#DejaVuSans-67" x="514.453125"/>
          <use xlink:href="#DejaVuSans-65" x="577.929688"/>
          <use xlink:href="#DejaVuSans-6e" x="639.453125"/>
          <use xlink:href="#DejaVuSans-65" x="702.832031"/>
          <use xlink:href="#DejaVuSans-72" x="764.355469"/>
          <use xlink:href="#DejaVuSans-61" x="805.46875"/>
          <use xlink:href="#DejaVuSans-74" x="866.748047"/>
          <use xlink:href="#DejaVuSans-69" x="905.957031"/>
          <use xlink:href="#DejaVuSans-6f" x="933.740234"/>
          <use xlink:href="#DejaVuSans-6e" x="994.921875"/>
          <use xlink:href="#DejaVuSans-73" x="1058.300781"/>
          <use xlink:href="#DejaVuSans-29" x="1110.400391"/>
         </g>
        </g>
       </g>
       <g id="patch_7">
        <path d="M 307.40458 260.679715 
L 306.40458 260.648278 
L 305.40458 260.611338 
L 304.40458 260.513591 
L 303.40458 260.48107 
L 302.40458 260.407445 
L 301.40458 260.36888 
L 300.40458 260.333466 
L 299.40458 260.275827 
L 298.40458 260.20544 
L 297.40458 260.153476 
L 296.40458 260.094386 
L 295.40458 260.006065 
L 294.40458 259.959921 
L 293.40458 259.91751 
L 292.40458 259.887017 
L 291.40458 259.860973 
L 290.40458 259.839772 
L 289.40458 259.785471 
L 288.40458 259.757534 
L 287.40458 259.72781 
L 286.40458 259.702415 
L 285.40458 259.691215 
L 284.40458 259.681091 
L 283.40458 259.681295 
L 282.40458 259.690805 
L 281.40458 259.702458 
L 280.40458 259.733488 
L 279.40458 259.744656 
L 278.40458 259.774773 
L 277.40458 259.83455 
L 276.40458 259.871742 
L 275.40458 259.910838 
L 274.40458 259.953277 
L 273.40458 259.986042 
L 272.40458 260.053469 
L 271.40458 260.092595 
L 270.40458 260.135269 
L 269.40458 260.20585 
L 268.40458 260.242241 
L 267.40458 260.300644 
L 266.40458 260.411597 
L 265.40458 260.482255 
L 264.40458 260.595195 
L 263.40458 260.640968 
L 262.40458 260.702251 
L 261.40458 260.75075 
L 260.40458 260.831573 
L 259.40458 260.950092 
L 258.40458 261.020302 
L 257.40458 261.103565 
L 256.40458 261.136707 
L 255.40458 261.187944 
L 254.40458 261.256342 
L 253.40458 261.322558 
L 252.40458 261.399475 
L 251.40458 261.42679 
L 250.40458 261.453268 
L 249.40458 261.475918 
L 248.40458 261.49545 
L 247.40458 261.521844 
L 246.40458 261.571615 
L 245.40458 261.606688 
L 244.40458 261.642553 
L 243.40458 261.657921 
L 242.40458 261.67369 
L 241.40458 261.677102 
L 240.40458 261.67952 
L 239.40458 261.679034 
L 238.40458 261.677105 
L 237.40458 261.663848 
L 236.40458 261.655457 
L 235.40458 261.63392 
L 234.40458 261.610888 
L 233.40458 261.593654 
L 232.40458 261.575192 
L 231.40458 261.554739 
L 230.40458 261.53814 
L 229.072455 261.475361 
" clip-path="url(#p817e6d3729)" style="fill: none; stroke: #ffffff; stroke-width: 3; stroke-linecap: round"/>
        <path d="M 307.40458 260.679715 
L 306.40458 260.648278 
L 305.40458 260.611338 
L 304.40458 260.513591 
L 303.40458 260.48107 
L 302.40458 260.407445 
L 301.40458 260.36888 
L 300.40458 260.333466 
L 299.40458 260.275827 
L 298.40458 260.20544 
L 297.40458 260.153476 
L 296.40458 260.094386 
L 295.40458 260.006065 
L 294.40458 259.959921 
L 293.40458 259.91751 
L 292.40458 259.887017 
L 291.40458 259.860973 
L 290.40458 259.839772 
L 289.40458 259.785471 
L 288.40458 259.757534 
L 287.40458 259.72781 
L 286.40458 259.702415 
L 285.40458 259.691215 
L 284.40458 259.681091 
L 283.40458 259.681295 
L 282.40458 259.690805 
L 281.40458 259.702458 
L 280.40458 259.733488 
L 279.40458 259.744656 
L 278.40458 259.774773 
L 277.40458 259.83455 
L 276.40458 259.871742 
L 275.40458 259.910838 
L 274.40458 259.953277 
L 273.40458 259.986042 
L 272.40458 260.053469 
L 271.40458 260.092595 
L 270.40458 260.135269 
L 269.40458 260.20585 
L 268.40458 260.242241 
L 267.40458 260.300644 
L 266.40458 260.411597 
L 265.40458 260.482255 
L 264.40458 260.595195 
L 263.40458 260.640968 
L 262.40458 260.702251 
L 261.40458 260.75075 
L 260.40458 260.831573 
L 259.40458 260.950092 
L 258.40458 261.020302 
L 257.40458 261.103565 
L 256.40458 261.136707 
L 255.40458 261.187944 
L 254.40458 261.256342 
L 253.40458 261.322558 
L 252.40458 261.399475 
L 251.40458 261.42679 
L 250.40458 261.453268 
L 249.40458 261.475918 
L 248.40458 261.49545 
L 247.40458 261.521844 
L 246.40458 261.571615 
L 245.40458 261.606688 
L 244.40458 261.642553 
L 243.40458 261.657921 
L 242.40458 261.67369 
L 241.40458 261.677102 
L 240.40458 261.67952 
L 239.40458 261.679034 
L 238.40458 261.677105 
L 237.40458 261.663848 
L 236.40458 261.655457 
L 235.40458 261.63392 
L 234.40458 261.610888 
L 233.40458 261.593654 
L 232.40458 261.575192 
L 231.40458 261.554739 
L 230.40458 261.53814 
L 229.072455 261.475361 
" clip-path="url(#p817e6d3729)" style="fill: none; stroke: #1f77b4; stroke-linecap: round"/>
        <path d="M 233.072455 262.679715 
L 232.192087 262.204384 
L 231.31418 261.72413 
L 230.463466 261.189489 
L 229.161292 260.502041 
L 230.088645 260.476027 
L 231.000319 260.063307 
L 231.910584 259.647768 
L 233.25308 259.040964 
L 232.598181 259.679715 
L 232.546217 260.679715 
L 232.487127 262.679715 
z
" clip-path="url(#p817e6d3729)" style="fill: #ffffff; stroke: #ffffff; stroke-width: 3; stroke-linecap: round"/>
        <path d="M 233.072455 262.679715 
L 232.192087 262.204384 
L 231.31418 261.72413 
L 230.463466 261.189489 
L 229.161292 260.502041 
L 230.088645 260.476027 
L 231.000319 260.063307 
L 231.910584 259.647768 
L 233.25308 259.040964 
L 232.598181 259.679715 
L 232.546217 260.679715 
L 232.487127 262.679715 
z
" clip-path="url(#p817e6d3729)" style="fill: #ffffff; stroke: #1f77b4; stroke-linecap: round"/>
        <g id="patch_8">
         <path d="M 357.131743 72.964375 
L 358.131743 72.995811 
L 359.131743 73.032752 
L 360.131743 73.130498 
L 361.131743 73.16302 
L 362.131743 73.236645 
L 363.131743 73.27521 
L 364.131743 73.310623 
L 365.131743 73.368263 
L 366.131743 73.438649 
L 367.131743 73.490614 
L 368.131743 73.549703 
L 369.131743 73.638024 
L 370.131743 73.684169 
L 371.131743 73.72658 
L 372.131743 73.757072 
L 373.131743 73.783117 
L 374.131743 73.804317 
L 375.131743 73.858618 
L 376.131743 73.886556 
L 377.131743 73.91628 
L 378.131743 73.941675 
L 379.131743 73.952875 
L 380.131743 73.962999 
L 381.131743 73.962795 
L 382.131743 73.953285 
L 383.131743 73.941631 
L 384.131743 73.910602 
L 385.131743 73.899434 
L 386.131743 73.869317 
L 387.131743 73.80954 
L 388.131743 73.772348 
L 389.131743 73.733252 
L 390.131743 73.690812 
L 391.131743 73.658047 
L 392.131743 73.590621 
L 393.131743 73.551495 
L 394.131743 73.50882 
L 395.131743 73.43824 
L 396.131743 73.401849 
L 397.131743 73.343446 
L 398.131743 73.232493 
L 399.131743 73.161835 
L 400.131743 73.048895 
L 401.131743 73.003122 
L 402.131743 72.941839 
L 403.131743 72.89334 
L 404.131743 72.812517 
L 405.131743 72.693998 
L 406.131743 72.623787 
L 407.131743 72.540525 
L 408.131743 72.507383 
L 409.131743 72.456146 
L 410.131743 72.387747 
L 411.131743 72.321532 
L 412.131743 72.244615 
L 413.131743 72.217299 
L 414.131743 72.190822 
L 415.131743 72.168171 
L 416.131743 72.14864 
L 417.131743 72.122246 
L 418.131743 72.072475 
L 419.131743 72.037402 
L 420.131743 72.001536 
L 421.131743 71.986169 
L 422.131743 71.9704 
L 423.131743 71.966987 
L 424.131743 71.96457 
L 425.131743 71.965056 
L 426.131743 71.966985 
L 427.131743 71.980242 
L 428.131743 71.988633 
L 429.131743 72.010169 
L 430.131743 72.033202 
L 431.131743 72.050435 
L 432.131743 72.068898 
L 433.131743 72.08935 
L 434.131743 72.10595 
L 435.131743 72.168729 
L 436.131743 72.243994 
L 437.131743 72.276633 
L 438.131743 72.344197 
L 439.131743 72.398244 
L 440.131743 72.431948 
L 441.131743 72.522074 
L 442.131743 72.550609 
L 443.131743 72.582095 
L 444.131743 72.613106 
L 445.131743 72.667914 
L 446.131743 72.732501 
L 447.131743 72.770697 
L 448.131743 72.866631 
L 449.131743 72.915889 
L 450.131743 72.959958 
L 451.131743 73.000082 
L 452.131743 73.108449 
L 453.131743 73.150077 
L 454.131743 73.212219 
L 455.131743 73.282181 
L 456.131743 73.386685 
L 457.131743 73.423673 
L 458.131743 73.46955 
L 459.131743 73.538045 
L 460.131743 73.586791 
L 461.131743 73.664388 
L 462.131743 73.694929 
L 463.131743 73.764443 
L 464.131743 73.788416 
L 465.131743 73.817038 
L 466.131743 73.858831 
L 467.131743 73.880407 
L 468.131743 73.894355 
L 469.131743 73.921077 
L 470.131743 73.930387 
L 471.131743 73.942834 
L 472.131743 73.953889 
L 473.131743 73.959553 
L 474.131743 73.964317 
L 475.131743 73.958769 
L 476.131743 73.945481 
L 477.131743 73.937964 
L 478.131743 73.913179 
L 479.131743 73.88961 
L 480.131743 73.85343 
L 481.131743 73.827468 
L 482.131743 73.805146 
L 483.131743 73.736386 
L 484.131743 73.661851 
L 485.131743 73.567872 
L 486.131743 73.51682 
L 487.131743 73.462886 
L 488.131743 73.427635 
L 489.131743 73.321547 
L 490.131743 73.269283 
L 491.131743 73.232376 
L 492.131743 73.201345 
L 493.131743 73.14019 
L 494.131743 73.07277 
L 495.131743 73.023864 
L 496.131743 72.958672 
L 497.131743 72.920484 
L 498.131743 72.878488 
L 499.131743 72.836471 
L 500.131743 72.776955 
L 501.131743 72.663795 
L 502.131743 72.611544 
L 503.131743 72.572126 
L 504.131743 72.525025 
L 505.131743 72.468245 
L 506.131743 72.435582 
L 507.131743 72.399404 
L 508.131743 72.367314 
L 509.131743 72.333034 
L 510.131743 72.274656 
L 511.131743 72.229471 
L 512.131743 72.199847 
L 513.131743 72.149461 
L 514.131743 72.124264 
L 515.131743 72.103213 
L 516.131743 72.068245 
L 517.131743 72.043955 
L 518.131743 72.029888 
L 519.131743 72.010946 
L 520.131743 71.995285 
L 521.131743 71.982733 
L 522.131743 71.976897 
L 523.131743 71.970015 
L 524.131743 71.964841 
L 525.131743 71.966624 
L 526.131743 71.969349 
L 527.131743 71.980503 
L 528.131743 72.008738 
L 529.131743 72.052526 
L 530.131743 72.073215 
L 531.131743 72.114188 
L 532.131743 72.154263 
L 533.131743 72.173373 
L 534.131743 72.195882 
L 535.131743 72.262533 
L 536.131743 72.312243 
L 537.131743 72.385949 
L 538.131743 72.417263 
L 539.131743 72.493885 
L 540.131743 72.532183 
L 541.131743 72.6063 
L 542.131743 72.710358 
L 543.131743 72.780189 
L 544.131743 72.885423 
L 545.131743 72.940438 
L 546.131743 73.063913 
L 547.131743 73.134472 
L 548.131743 73.250311 
L 550.028689 73.300492 
" clip-path="url(#p817e6d3729)" style="fill: none; stroke: #ffffff; stroke-width: 3; stroke-linecap: round"/>
         <path d="M 357.131743 72.964375 
L 358.131743 72.995811 
L 359.131743 73.032752 
L 360.131743 73.130498 
L 361.131743 73.16302 
L 362.131743 73.236645 
L 363.131743 73.27521 
L 364.131743 73.310623 
L 365.131743 73.368263 
L 366.131743 73.438649 
L 367.131743 73.490614 
L 368.131743 73.549703 
L 369.131743 73.638024 
L 370.131743 73.684169 
L 371.131743 73.72658 
L 372.131743 73.757072 
L 373.131743 73.783117 
L 374.131743 73.804317 
L 375.131743 73.858618 
L 376.131743 73.886556 
L 377.131743 73.91628 
L 378.131743 73.941675 
L 379.131743 73.952875 
L 380.131743 73.962999 
L 381.131743 73.962795 
L 382.131743 73.953285 
L 383.131743 73.941631 
L 384.131743 73.910602 
L 385.131743 73.899434 
L 386.131743 73.869317 
L 387.131743 73.80954 
L 388.131743 73.772348 
L 389.131743 73.733252 
L 390.131743 73.690812 
L 391.131743 73.658047 
L 392.131743 73.590621 
L 393.131743 73.551495 
L 394.131743 73.50882 
L 395.131743 73.43824 
L 396.131743 73.401849 
L 397.131743 73.343446 
L 398.131743 73.232493 
L 399.131743 73.161835 
L 400.131743 73.048895 
L 401.131743 73.003122 
L 402.131743 72.941839 
L 403.131743 72.89334 
L 404.131743 72.812517 
L 405.131743 72.693998 
L 406.131743 72.623787 
L 407.131743 72.540525 
L 408.131743 72.507383 
L 409.131743 72.456146 
L 410.131743 72.387747 
L 411.131743 72.321532 
L 412.131743 72.244615 
L 413.131743 72.217299 
L 414.131743 72.190822 
L 415.131743 72.168171 
L 416.131743 72.14864 
L 417.131743 72.122246 
L 418.131743 72.072475 
L 419.131743 72.037402 
L 420.131743 72.001536 
L 421.131743 71.986169 
L 422.131743 71.9704 
L 423.131743 71.966987 
L 424.131743 71.96457 
L 425.131743 71.965056 
L 426.131743 71.966985 
L 427.131743 71.980242 
L 428.131743 71.988633 
L 429.131743 72.010169 
L 430.131743 72.033202 
L 431.131743 72.050435 
L 432.131743 72.068898 
L 433.131743 72.08935 
L 434.131743 72.10595 
L 435.131743 72.168729 
L 436.131743 72.243994 
L 437.131743 72.276633 
L 438.131743 72.344197 
L 439.131743 72.398244 
L 440.131743 72.431948 
L 441.131743 72.522074 
L 442.131743 72.550609 
L 443.131743 72.582095 
L 444.131743 72.613106 
L 445.131743 72.667914 
L 446.131743 72.732501 
L 447.131743 72.770697 
L 448.131743 72.866631 
L 449.131743 72.915889 
L 450.131743 72.959958 
L 451.131743 73.000082 
L 452.131743 73.108449 
L 453.131743 73.150077 
L 454.131743 73.212219 
L 455.131743 73.282181 
L 456.131743 73.386685 
L 457.131743 73.423673 
L 458.131743 73.46955 
L 459.131743 73.538045 
L 460.131743 73.586791 
L 461.131743 73.664388 
L 462.131743 73.694929 
L 463.131743 73.764443 
L 464.131743 73.788416 
L 465.131743 73.817038 
L 466.131743 73.858831 
L 467.131743 73.880407 
L 468.131743 73.894355 
L 469.131743 73.921077 
L 470.131743 73.930387 
L 471.131743 73.942834 
L 472.131743 73.953889 
L 473.131743 73.959553 
L 474.131743 73.964317 
L 475.131743 73.958769 
L 476.131743 73.945481 
L 477.131743 73.937964 
L 478.131743 73.913179 
L 479.131743 73.88961 
L 480.131743 73.85343 
L 481.131743 73.827468 
L 482.131743 73.805146 
L 483.131743 73.736386 
L 484.131743 73.661851 
L 485.131743 73.567872 
L 486.131743 73.51682 
L 487.131743 73.462886 
L 488.131743 73.427635 
L 489.131743 73.321547 
L 490.131743 73.269283 
L 491.131743 73.232376 
L 492.131743 73.201345 
L 493.131743 73.14019 
L 494.131743 73.07277 
L 495.131743 73.023864 
L 496.131743 72.958672 
L 497.131743 72.920484 
L 498.131743 72.878488 
L 499.131743 72.836471 
L 500.131743 72.776955 
L 501.131743 72.663795 
L 502.131743 72.611544 
L 503.131743 72.572126 
L 504.131743 72.525025 
L 505.131743 72.468245 
L 506.131743 72.435582 
L 507.131743 72.399404 
L 508.131743 72.367314 
L 509.131743 72.333034 
L 510.131743 72.274656 
L 511.131743 72.229471 
L 512.131743 72.199847 
L 513.131743 72.149461 
L 514.131743 72.124264 
L 515.131743 72.103213 
L 516.131743 72.068245 
L 517.131743 72.043955 
L 518.131743 72.029888 
L 519.131743 72.010946 
L 520.131743 71.995285 
L 521.131743 71.982733 
L 522.131743 71.976897 
L 523.131743 71.970015 
L 524.131743 71.964841 
L 525.131743 71.966624 
L 526.131743 71.969349 
L 527.131743 71.980503 
L 528.131743 72.008738 
L 529.131743 72.052526 
L 530.131743 72.073215 
L 531.131743 72.114188 
L 532.131743 72.154263 
L 533.131743 72.173373 
L 534.131743 72.195882 
L 535.131743 72.262533 
L 536.131743 72.312243 
L 537.131743 72.385949 
L 538.131743 72.417263 
L 539.131743 72.493885 
L 540.131743 72.532183 
L 541.131743 72.6063 
L 542.131743 72.710358 
L 543.131743 72.780189 
L 544.131743 72.885423 
L 545.131743 72.940438 
L 546.131743 73.063913 
L 547.131743 73.134472 
L 548.131743 73.250311 
L 550.028689 73.300492 
" clip-path="url(#p817e6d3729)" style="fill: none; stroke: #1f77b4; stroke-linecap: round"/>
         <path d="M 546.028689 70.964375 
L 546.909057 71.439706 
L 547.786964 71.91996 
L 548.637678 72.454601 
L 549.939852 73.142048 
L 549.012499 73.168063 
L 548.100825 73.580783 
L 547.19056 73.996322 
L 545.848065 74.603126 
L 546.502964 73.964375 
L 546.554928 72.964375 
L 546.614018 70.964375 
z
" clip-path="url(#p817e6d3729)" style="fill: #ffffff; stroke: #ffffff; stroke-width: 3; stroke-linecap: round"/>
         <path d="M 546.028689 70.964375 
L 546.909057 71.439706 
L 547.786964 71.91996 
L 548.637678 72.454601 
L 549.939852 73.142048 
L 549.012499 73.168063 
L 548.100825 73.580783 
L 547.19056 73.996322 
L 545.848065 74.603126 
L 546.502964 73.964375 
L 546.554928 72.964375 
L 546.614018 70.964375 
z
" clip-path="url(#p817e6d3729)" style="fill: #ffffff; stroke: #1f77b4; stroke-linecap: round"/>
         <g id="patch_9">
          <path d="M 227.949956 266.411481 
L 228.949956 266.442917 
L 229.949956 266.479858 
L 230.949956 266.577604 
L 231.949956 266.610126 
L 232.949956 266.683751 
L 233.949956 266.722316 
L 234.949956 266.757729 
L 235.949956 266.815369 
L 236.949956 266.885755 
L 237.949956 266.93772 
L 238.949956 266.996809 
L 239.949956 267.08513 
L 240.949956 267.131275 
L 241.949956 267.173686 
L 242.949956 267.204178 
L 243.949956 267.230223 
L 244.949956 267.251423 
L 245.949956 267.305724 
L 246.949956 267.333662 
L 247.949956 267.363386 
L 248.949956 267.388781 
L 249.949956 267.399981 
L 250.949956 267.410105 
L 251.949956 267.409901 
L 252.949956 267.400391 
L 253.949956 267.388737 
L 254.949956 267.357708 
L 255.949956 267.34654 
L 256.949956 267.316423 
L 257.949956 267.256646 
L 258.949956 267.219454 
L 259.949956 267.180358 
L 260.949956 267.137918 
L 261.949956 267.105153 
L 262.949956 267.037727 
L 263.949956 266.998601 
L 264.949956 266.955926 
L 265.949956 266.885346 
L 266.949956 266.848955 
L 267.949956 266.790552 
L 268.949956 266.679599 
L 269.949956 266.608941 
L 270.949956 266.496001 
L 271.949956 266.450228 
L 272.949956 266.388945 
L 273.949956 266.340446 
L 274.949956 266.259623 
L 275.949956 266.141104 
L 276.949956 266.070893 
L 277.949956 265.987631 
L 278.949956 265.954489 
L 279.949956 265.903252 
L 280.949956 265.834853 
L 281.949956 265.768638 
L 282.949956 265.691721 
L 283.949956 265.664405 
L 284.949956 265.637928 
L 285.949956 265.615277 
L 286.949956 265.595746 
L 287.949956 265.569352 
L 288.949956 265.519581 
L 289.949956 265.484508 
L 290.949956 265.448642 
L 291.949956 265.433275 
L 292.949956 265.417506 
L 293.949956 265.414093 
L 294.949956 265.411676 
L 295.949956 265.412162 
L 296.949956 265.414091 
L 297.949956 265.427348 
L 298.949956 265.435738 
L 299.949956 265.457275 
L 300.949956 265.480308 
L 301.949956 265.497541 
L 302.949956 265.516004 
L 303.949956 265.536456 
L 304.949956 265.553056 
L 305.949956 265.615835 
L 306.949956 265.6911 
L 307.949956 265.723739 
L 308.949956 265.791302 
L 309.949956 265.84535 
L 310.949956 265.879054 
L 311.949956 265.96918 
L 312.949956 265.997715 
L 313.949956 266.029201 
L 314.949956 266.060212 
L 315.949956 266.11502 
L 316.949956 266.179607 
L 317.949956 266.217803 
L 318.949956 266.313737 
L 319.949956 266.362995 
L 320.949956 266.407064 
L 321.949956 266.447188 
L 322.949956 266.555555 
L 323.949956 266.597183 
L 324.949956 266.659324 
L 325.949956 266.729287 
L 326.949956 266.833791 
L 327.949956 266.870779 
L 328.949956 266.916656 
L 329.949956 266.985151 
L 330.949956 267.033896 
L 331.949956 267.111494 
L 332.949956 267.142035 
L 333.949956 267.211549 
L 334.949956 267.235522 
L 335.949956 267.264144 
L 336.949956 267.305937 
L 337.949956 267.327513 
L 338.949956 267.341461 
L 339.949956 267.368183 
L 340.949956 267.377493 
L 341.949956 267.38994 
L 342.949956 267.400994 
L 343.949956 267.406659 
L 344.949956 267.411423 
L 345.949956 267.405875 
L 346.949956 267.392587 
L 347.949956 267.38507 
L 348.949956 267.360285 
L 349.949956 267.336716 
L 350.949956 267.300536 
L 351.949956 267.274574 
L 352.949956 267.252252 
L 353.949956 267.183492 
L 354.949956 267.108957 
L 355.949956 267.014978 
L 356.949956 266.963926 
L 357.949956 266.909992 
L 358.949956 266.874741 
L 359.949956 266.768653 
L 360.949956 266.716389 
L 361.949956 266.679482 
L 362.949956 266.648451 
L 363.949956 266.587296 
L 364.949956 266.519876 
L 365.949956 266.47097 
L 366.949956 266.405778 
L 367.949956 266.36759 
L 368.949956 266.325594 
L 369.949956 266.283577 
L 370.949956 266.22406 
L 371.949956 266.110901 
L 372.949956 266.05865 
L 373.949956 266.019232 
L 374.949956 265.972131 
L 375.949956 265.915351 
L 376.949956 265.882688 
L 377.949956 265.84651 
L 378.949956 265.814419 
L 379.949956 265.78014 
L 380.949956 265.721762 
L 381.949956 265.676577 
L 382.949956 265.646953 
L 383.949956 265.596567 
L 384.949956 265.57137 
L 385.949956 265.550319 
L 386.949956 265.515351 
L 387.949956 265.491061 
L 388.949956 265.476994 
L 389.949956 265.458052 
L 390.949956 265.44239 
L 391.949956 265.429839 
L 392.949956 265.424003 
L 393.949956 265.417121 
L 394.949956 265.411947 
L 395.949956 265.413729 
L 396.949956 265.416455 
L 397.949956 265.427609 
L 398.949956 265.455844 
L 399.949956 265.499632 
L 400.949956 265.520321 
L 401.949956 265.561294 
L 402.949956 265.601369 
L 403.949956 265.620479 
L 404.949956 265.642988 
L 405.949956 265.709639 
L 406.949956 265.759348 
L 407.949956 265.833055 
L 408.949956 265.864369 
L 409.949956 265.940991 
L 410.949956 265.979289 
L 411.949956 266.053406 
L 412.949956 266.157464 
L 413.949956 266.227295 
L 414.949956 266.332528 
L 415.949956 266.387544 
L 416.949956 266.511019 
L 417.949956 266.581578 
L 418.949956 266.697417 
L 419.949956 266.747598 
L 420.949956 266.783202 
L 421.949956 266.874609 
L 422.949956 266.928116 
L 423.949956 267.016025 
L 424.949956 267.08521 
L 425.949956 267.131974 
L 426.949956 267.204018 
L 427.949956 267.25416 
L 428.949956 267.27155 
L 429.949956 267.298553 
L 430.949956 267.31798 
L 432.450984 267.337318 
" clip-path="url(#p817e6d3729)" style="fill: none; stroke: #ffffff; stroke-width: 3; stroke-linecap: round"/>
          <path d="M 227.949956 266.411481 
L 228.949956 266.442917 
L 229.949956 266.479858 
L 230.949956 266.577604 
L 231.949956 266.610126 
L 232.949956 266.683751 
L 233.949956 266.722316 
L 234.949956 266.757729 
L 235.949956 266.815369 
L 236.949956 266.885755 
L 237.949956 266.93772 
L 238.949956 266.996809 
L 239.949956 267.08513 
L 240.949956 267.131275 
L 241.949956 267.173686 
L 242.949956 267.204178 
L 243.949956 267.230223 
L 244.949956 267.251423 
L 245.949956 267.305724 
L 246.949956 267.333662 
L 247.949956 267.363386 
L 248.949956 267.388781 
L 249.949956 267.399981 
L 250.949956 267.410105 
L 251.949956 267.409901 
L 252.949956 267.400391 
L 253.949956 267.388737 
L 254.949956 267.357708 
L 255.949956 267.34654 
L 256.949956 267.316423 
L 257.949956 267.256646 
L 258.949956 267.219454 
L 259.949956 267.180358 
L 260.949956 267.137918 
L 261.949956 267.105153 
L 262.949956 267.037727 
L 263.949956 266.998601 
L 264.949956 266.955926 
L 265.949956 266.885346 
L 266.949956 266.848955 
L 267.949956 266.790552 
L 268.949956 266.679599 
L 269.949956 266.608941 
L 270.949956 266.496001 
L 271.949956 266.450228 
L 272.949956 266.388945 
L 273.949956 266.340446 
L 274.949956 266.259623 
L 275.949956 266.141104 
L 276.949956 266.070893 
L 277.949956 265.987631 
L 278.949956 265.954489 
L 279.949956 265.903252 
L 280.949956 265.834853 
L 281.949956 265.768638 
L 282.949956 265.691721 
L 283.949956 265.664405 
L 284.949956 265.637928 
L 285.949956 265.615277 
L 286.949956 265.595746 
L 287.949956 265.569352 
L 288.949956 265.519581 
L 289.949956 265.484508 
L 290.949956 265.448642 
L 291.949956 265.433275 
L 292.949956 265.417506 
L 293.949956 265.414093 
L 294.949956 265.411676 
L 295.949956 265.412162 
L 296.949956 265.414091 
L 297.949956 265.427348 
L 298.949956 265.435738 
L 299.949956 265.457275 
L 300.949956 265.480308 
L 301.949956 265.497541 
L 302.949956 265.516004 
L 303.949956 265.536456 
L 304.949956 265.553056 
L 305.949956 265.615835 
L 306.949956 265.6911 
L 307.949956 265.723739 
L 308.949956 265.791302 
L 309.949956 265.84535 
L 310.949956 265.879054 
L 311.949956 265.96918 
L 312.949956 265.997715 
L 313.949956 266.029201 
L 314.949956 266.060212 
L 315.949956 266.11502 
L 316.949956 266.179607 
L 317.949956 266.217803 
L 318.949956 266.313737 
L 319.949956 266.362995 
L 320.949956 266.407064 
L 321.949956 266.447188 
L 322.949956 266.555555 
L 323.949956 266.597183 
L 324.949956 266.659324 
L 325.949956 266.729287 
L 326.949956 266.833791 
L 327.949956 266.870779 
L 328.949956 266.916656 
L 329.949956 266.985151 
L 330.949956 267.033896 
L 331.949956 267.111494 
L 332.949956 267.142035 
L 333.949956 267.211549 
L 334.949956 267.235522 
L 335.949956 267.264144 
L 336.949956 267.305937 
L 337.949956 267.327513 
L 338.949956 267.341461 
L 339.949956 267.368183 
L 340.949956 267.377493 
L 341.949956 267.38994 
L 342.949956 267.400994 
L 343.949956 267.406659 
L 344.949956 267.411423 
L 345.949956 267.405875 
L 346.949956 267.392587 
L 347.949956 267.38507 
L 348.949956 267.360285 
L 349.949956 267.336716 
L 350.949956 267.300536 
L 351.949956 267.274574 
L 352.949956 267.252252 
L 353.949956 267.183492 
L 354.949956 267.108957 
L 355.949956 267.014978 
L 356.949956 266.963926 
L 357.949956 266.909992 
L 358.949956 266.874741 
L 359.949956 266.768653 
L 360.949956 266.716389 
L 361.949956 266.679482 
L 362.949956 266.648451 
L 363.949956 266.587296 
L 364.949956 266.519876 
L 365.949956 266.47097 
L 366.949956 266.405778 
L 367.949956 266.36759 
L 368.949956 266.325594 
L 369.949956 266.283577 
L 370.949956 266.22406 
L 371.949956 266.110901 
L 372.949956 266.05865 
L 373.949956 266.019232 
L 374.949956 265.972131 
L 375.949956 265.915351 
L 376.949956 265.882688 
L 377.949956 265.84651 
L 378.949956 265.814419 
L 379.949956 265.78014 
L 380.949956 265.721762 
L 381.949956 265.676577 
L 382.949956 265.646953 
L 383.949956 265.596567 
L 384.949956 265.57137 
L 385.949956 265.550319 
L 386.949956 265.515351 
L 387.949956 265.491061 
L 388.949956 265.476994 
L 389.949956 265.458052 
L 390.949956 265.44239 
L 391.949956 265.429839 
L 392.949956 265.424003 
L 393.949956 265.417121 
L 394.949956 265.411947 
L 395.949956 265.413729 
L 396.949956 265.416455 
L 397.949956 265.427609 
L 398.949956 265.455844 
L 399.949956 265.499632 
L 400.949956 265.520321 
L 401.949956 265.561294 
L 402.949956 265.601369 
L 403.949956 265.620479 
L 404.949956 265.642988 
L 405.949956 265.709639 
L 406.949956 265.759348 
L 407.949956 265.833055 
L 408.949956 265.864369 
L 409.949956 265.940991 
L 410.949956 265.979289 
L 411.949956 266.053406 
L 412.949956 266.157464 
L 413.949956 266.227295 
L 414.949956 266.332528 
L 415.949956 266.387544 
L 416.949956 266.511019 
L 417.949956 266.581578 
L 418.949956 266.697417 
L 419.949956 266.747598 
L 420.949956 266.783202 
L 421.949956 266.874609 
L 422.949956 266.928116 
L 423.949956 267.016025 
L 424.949956 267.08521 
L 425.949956 267.131974 
L 426.949956 267.204018 
L 427.949956 267.25416 
L 428.949956 267.27155 
L 429.949956 267.298553 
L 430.949956 267.31798 
L 432.450984 267.337318 
" clip-path="url(#p817e6d3729)" style="fill: none; stroke: #ff7f0e; stroke-linecap: round"/>
          <path d="M 428.450984 264.411481 
L 429.331352 264.886812 
L 430.209259 265.367066 
L 431.059973 265.901707 
L 432.362147 266.589154 
L 431.434794 266.615169 
L 430.52312 267.027889 
L 429.612856 267.443428 
L 428.27036 268.050232 
L 428.925259 267.411481 
L 428.977223 266.411481 
L 429.036313 264.411481 
z
" clip-path="url(#p817e6d3729)" style="fill: #ffffff; stroke: #ffffff; stroke-width: 3; stroke-linecap: round"/>
          <path d="M 428.450984 264.411481 
L 429.331352 264.886812 
L 430.209259 265.367066 
L 431.059973 265.901707 
L 432.362147 266.589154 
L 431.434794 266.615169 
L 430.52312 267.027889 
L 429.612856 267.443428 
L 428.27036 268.050232 
L 428.925259 267.411481 
L 428.977223 266.411481 
L 429.036313 264.411481 
z
" clip-path="url(#p817e6d3729)" style="fill: #ffffff; stroke: #ff7f0e; stroke-linecap: round"/>
          <path d="M 468.198336 295.53391 
" clip-path="url(#p817e6d3729)" style="fill: none; stroke-dasharray: 3.7,1.6; stroke-dashoffset: 0; stroke: #2ca02c"/>
          <path d="M 467.198336 295.53391 
L 469.198336 296.53391 
L 469.198336 294.53391 
z
" clip-path="url(#p817e6d3729)" style="fill: #2ca02c; stroke: #2ca02c; stroke-linejoin: miter"/>
          <g id="patch_10">
           <path d="M 63.290625 321.621875 
L 63.290625 10.8 
" style="fill: none; stroke: #000000; stroke-width: 0.8; stroke-linejoin: miter; stroke-linecap: square"/>
          </g>
          <g id="text_14">
           <g id="patch_11">
            <path d="M 321.616843 142.57892 
L 342.921531 142.57892 
Q 344.921531 142.57892 344.921531 140.57892 
L 344.921531 130.900795 
Q 344.921531 128.900795 342.921531 128.900795 
L 321.616843 128.900795 
Q 319.616843 128.900795 319.616843 130.900795 
L 319.616843 140.57892 
Q 319.616843 142.57892 321.616843 142.57892 
z
" style="fill: #ffffff; opacity: 0.6"/>
           </g>
           <!-- ANC -->
           <g transform="translate(321.616843 138.499232) scale(0.1 -0.1)">
            <defs>
             <path id="DejaVuSans-4e" d="M 628 4666 
L 1478 4666 
L 3547 763 
L 3547 4666 
L 4159 4666 
L 4159 0 
L 3309 0 
L 1241 3903 
L 1241 0 
L 628 0 
L 628 4666 
z
" transform="scale(0.015625)"/>
            </defs>
            <use xlink:href="#DejaVuSans-41"/>
            <use xlink:href="#DejaVuSans-4e" x="68.408203"/>
            <use xlink:href="#DejaVuSans-43" x="143.212891"/>
           </g>
          </g>
         </g>
        </g>
        <defs>
         <clipPath id="p817e6d3729">
          <rect x="63.290625" y="10.8" width="540.309375" height="310.821875"/>
         </clipPath>
        </defs>
       </g>
      </g>
     </g>
    </g>
   </g>
  </g>
 </g>
</svg>
