<?xml version="1.0" encoding="utf-8" standalone="no"?>
<!DOCTYPE svg PUBLIC "-//W3C//DTD SVG 1.1//EN"
  "http://www.w3.org/Graphics/SVG/1.1/DTD/svg11.dtd">
<svg xmlns:xlink="http://www.w3.org/1999/xlink" width="614.4pt" height="345.6pt" viewBox="0 0 614.4 345.6" xmlns="http://www.w3.org/2000/svg" version="1.1">
 <metadata>
  <rdf:RDF xmlns:dc="http://purl.org/dc/elements/1.1/" xmlns:cc="http://creativecommons.org/ns#" xmlns:rdf="http://www.w3.org/1999/02/22-rdf-syntax-ns#">
   <cc:Work>
    <dc:type rdf:resource="http://purl.org/dc/dcmitype/StillImage"/>
    <dc:date>2024-04-17T19:48:52.011476</dc:date>
    <dc:format>image/svg+xml</dc:format>
    <dc:creator>
     <cc:Agent>
      <dc:title>Matplotlib v3.7.1, https://matplotlib.org/</dc:title>
     </cc:Agent>
    </dc:creator>
   </cc:Work>
  </rdf:RDF>
 </metadata>
 <defs>
  <style type="text/css">*{stroke-linejoin: round; stroke-linecap: butt}</style>
 </defs>
 <g id="figure_1">
  <g id="patch_1">
   <path d="M 0 345.6 
L 614.4 345.6 
L 614.4 0 
L 0 0 
z
" style="fill: #ffffff"/>
  </g>
  <g id="axes_1">
   <g id="patch_2">
    <path d="M 63.290625 321.621875 
L 603.6 321.621875 
L 603.6 10.8 
L 63.290625 10.8 
z
" style="fill: #ffffff"/>
   </g>
   <path d="M 553.183225 286.895537 
L 552.183225 286.864101 
L 551.183225 286.827161 
L 550.183225 286.729414 
L 549.183225 286.696892 
L 548.183225 286.623268 
L 547.183225 286.584702 
L 546.183225 286.549289 
L 545.183225 286.491649 
L 544.183225 286.421263 
L 543.183225 286.369299 
L 542.183225 286.310209 
L 541.183225 286.221888 
L 540.183225 286.175744 
L 539.183225 286.133333 
L 538.183225 286.10284 
L 537.183225 286.076795 
L 536.183225 286.055595 
L 535.183225 286.001294 
L 534.183225 285.973356 
L 533.183225 285.943632 
L 532.183225 285.918238 
L 531.183225 285.907037 
L 530.183225 285.896913 
L 529.183225 285.897117 
L 528.183225 285.906627 
L 527.183225 285.918281 
L 526.183225 285.94931 
L 525.183225 285.960478 
L 524.183225 285.990596 
L 523.183225 286.050373 
L 522.183225 286.087564 
L 521.183225 286.12666 
L 520.183225 286.1691 
L 519.183225 286.201865 
L 518.183225 286.269291 
L 517.183225 286.308417 
L 516.183225 286.351092 
L 515.183225 286.421672 
L 514.183225 286.458063 
L 513.183225 286.516466 
L 512.183225 286.627419 
L 511.183225 286.698077 
L 510.183225 286.811017 
L 509.183225 286.85679 
L 508.183225 286.918073 
L 507.183225 286.966573 
L 506.183225 287.047395 
L 505.183225 287.165914 
L 504.183225 287.236125 
L 503.183225 287.319387 
L 502.183225 287.352529 
L 501.183225 287.403766 
L 500.183225 287.472165 
L 499.183225 287.53838 
L 498.183225 287.615297 
L 497.183225 287.642613 
L 496.183225 287.66909 
L 495.183225 287.691741 
L 494.183225 287.711272 
L 493.183225 287.737666 
L 492.183225 287.787437 
L 491.183225 287.82251 
L 490.183225 287.858376 
L 489.183225 287.873743 
L 488.183225 287.889512 
L 487.183225 287.892925 
L 486.183225 287.895343 
L 485.183225 287.894856 
L 484.183225 287.892927 
L 483.183225 287.87967 
L 482.183225 287.87128 
L 481.183225 287.849743 
L 480.183225 287.826711 
L 479.183225 287.809477 
L 478.183225 287.791015 
L 477.183225 287.770562 
L 476.183225 287.753962 
L 475.183225 287.691183 
L 474.183225 287.615918 
L 473.183225 287.583279 
L 472.183225 287.515716 
L 471.183225 287.461669 
L 470.183225 287.427964 
L 469.183225 287.337838 
L 468.183225 287.309303 
L 467.183225 287.277817 
L 466.183225 287.246806 
L 465.183225 287.191998 
L 464.183225 287.127411 
L 463.069756 287.089216 
" clip-path="url(#p02208bce27)" style="fill: none; stroke-dasharray: 3.7,1.6; stroke-dashoffset: 0; stroke: #2ca02c"/>
   <g id="patch_3">
    <path d="M 283.896008 10.8 
L 283.896008 267.785016 
M 383.421925 10.8 
L 383.421925 267.785016 
" clip-path="url(#p02208bce27)" style="fill: none; stroke: #ffffff; stroke-width: 3; stroke-linejoin: miter"/>
    <path d="M 283.896008 10.8 
L 283.896008 267.785016 
M 383.421925 10.8 
L 383.421925 267.785016 
" clip-path="url(#p02208bce27)" style="fill: none; stroke: #1f77b4; stroke-linejoin: miter"/>
    <g id="PolyCollection_1">
     <path d="M 383.421925 10.8 
L 283.896008 10.8 
L 283.896008 267.785016 
L 383.421925 267.785016 
L 383.421925 267.785016 
L 383.421925 10.8 
z
" clip-path="url(#p02208bce27)" style="fill: #1f77b4; fill-opacity: 0.5"/>
    </g>
    <g id="patch_4">
     <path d="M 87.850142 267.785016 
L 87.850142 321.621875 
M 226.736139 267.785016 
L 226.736139 321.621875 
" clip-path="url(#p02208bce27)" style="fill: none; stroke: #ffffff; stroke-width: 3; stroke-linejoin: miter"/>
     <path d="M 87.850142 267.785016 
L 87.850142 321.621875 
M 226.736139 267.785016 
L 226.736139 321.621875 
" clip-path="url(#p02208bce27)" style="fill: none; stroke: #ff7f0e; stroke-linejoin: miter"/>
     <g id="PolyCollection_2">
      <path d="M 226.736139 267.785016 
L 87.850142 267.785016 
L 87.850142 321.621875 
L 226.736139 321.621875 
L 226.736139 321.621875 
L 226.736139 267.785016 
z
" clip-path="url(#p02208bce27)" style="fill: #ff7f0e; fill-opacity: 0.5"/>
     </g>
     <g id="patch_5">
      <path d="M 558.586319 72.964375 
L 558.586319 321.621875 
M 579.040483 72.964375 
L 579.040483 321.621875 
" clip-path="url(#p02208bce27)" style="fill: none; stroke: #ffffff; stroke-width: 3; stroke-linejoin: miter"/>
      <path d="M 558.586319 72.964375 
L 558.586319 321.621875 
M 579.040483 72.964375 
L 579.040483 321.621875 
" clip-path="url(#p02208bce27)" style="fill: none; stroke: #2ca02c; stroke-linejoin: miter"/>
      <g id="PolyCollection_3">
       <path d="M 579.040483 72.964375 
L 558.586319 72.964375 
L 558.586319 321.621875 
L 579.040483 321.621875 
L 579.040483 321.621875 
L 579.040483 72.964375 
z
" clip-path="url(#p02208bce27)" style="fill: #2ca02c; fill-opacity: 0.5"/>
      </g>
      <g id="patch_6">
       <path d="M 444.805705 275.179077 
L 444.805705 321.621875 
M 457.666662 275.179077 
L 457.666662 321.621875 
" clip-path="url(#p02208bce27)" style="fill: none; stroke: #ffffff; stroke-width: 3; stroke-linejoin: miter"/>
       <path d="M 444.805705 275.179077 
L 444.805705 321.621875 
M 457.666662 275.179077 
L 457.666662 321.621875 
" clip-path="url(#p02208bce27)" style="fill: none; stroke: #d62728; stroke-linejoin: miter"/>
       <g id="PolyCollection_4">
        <path d="M 457.666662 275.179077 
L 444.805705 275.179077 
L 444.805705 321.621875 
L 457.666662 321.621875 
L 457.666662 321.621875 
L 457.666662 275.179077 
z
" clip-path="url(#p02208bce27)" style="fill: #d62728; fill-opacity: 0.5"/>
       </g>
       <g id="matplotlib.axis_1">
        <g id="xtick_1">
         <g id="line2d_1"/>
         <g id="text_1">
          <!-- OUT -->
          <g transform="translate(146.643922 332.720312) scale(0.1 -0.1)">
           <defs>
            <path id="DejaVuSans-4f" d="M 2522 4238 
Q 1834 4238 1429 3725 
Q 1025 3213 1025 2328 
Q 1025 1447 1429 934 
Q 1834 422 2522 422 
Q 3209 422 3611 934 
Q 4013 1447 4013 2328 
Q 4013 3213 3611 3725 
Q 3209 4238 2522 4238 
z
M 2522 4750 
Q 3503 4750 4090 4092 
Q 4678 3434 4678 2328 
Q 4678 1225 4090 567 
Q 3503 -91 2522 -91 
Q 1538 -91 948 565 
Q 359 1222 359 2328 
Q 359 3434 948 4092 
Q 1538 4750 2522 4750 
z
" transform="scale(0.015625)"/>
            <path id="DejaVuSans-55" d="M 556 4666 
L 1191 4666 
L 1191 1831 
Q 1191 1081 1462 751 
Q 1734 422 2344 422 
Q 2950 422 3222 751 
Q 3494 1081 3494 1831 
L 3494 4666 
L 4128 4666 
L 4128 1753 
Q 4128 841 3676 375 
Q 3225 -91 2344 -91 
Q 1459 -91 1007 375 
Q 556 841 556 1753 
L 556 4666 
z
" transform="scale(0.015625)"/>
            <path id="DejaVuSans-54" d="M -19 4666 
L 3928 4666 
L 3928 4134 
L 2272 4134 
L 2272 0 
L 1638 0 
L 1638 4134 
L -19 4134 
L -19 4666 
z
" transform="scale(0.015625)"/>
           </defs>
           <use xlink:href="#DejaVuSans-4f"/>
           <use xlink:href="#DejaVuSans-55" x="78.710938"/>
           <use xlink:href="#DejaVuSans-54" x="151.904297"/>
          </g>
         </g>
        </g>
        <g id="xtick_2">
         <g id="line2d_2"/>
         <g id="text_2">
          <!-- SRC -->
          <g transform="translate(558.923557 332.720312) scale(0.1 -0.1)">
           <defs>
            <path id="DejaVuSans-53" d="M 3425 4513 
L 3425 3897 
Q 3066 4069 2747 4153 
Q 2428 4238 2131 4238 
Q 1616 4238 1336 4038 
Q 1056 3838 1056 3469 
Q 1056 3159 1242 3001 
Q 1428 2844 1947 2747 
L 2328 2669 
Q 3034 2534 3370 2195 
Q 3706 1856 3706 1288 
Q 3706 609 3251 259 
Q 2797 -91 1919 -91 
Q 1588 -91 1214 -16 
Q 841 59 441 206 
L 441 856 
Q 825 641 1194 531 
Q 1563 422 1919 422 
Q 2459 422 2753 634 
Q 3047 847 3047 1241 
Q 3047 1584 2836 1778 
Q 2625 1972 2144 2069 
L 1759 2144 
Q 1053 2284 737 2584 
Q 422 2884 422 3419 
Q 422 4038 858 4394 
Q 1294 4750 2059 4750 
Q 2388 4750 2728 4690 
Q 3069 4631 3425 4513 
z
" transform="scale(0.015625)"/>
            <path id="DejaVuSans-52" d="M 2841 2188 
Q 3044 2119 3236 1894 
Q 3428 1669 3622 1275 
L 4263 0 
L 3584 0 
L 2988 1197 
Q 2756 1666 2539 1819 
Q 2322 1972 1947 1972 
L 1259 1972 
L 1259 0 
L 628 0 
L 628 4666 
L 2053 4666 
Q 2853 4666 3247 4331 
Q 3641 3997 3641 3322 
Q 3641 2881 3436 2590 
Q 3231 2300 2841 2188 
z
M 1259 4147 
L 1259 2491 
L 2053 2491 
Q 2509 2491 2742 2702 
Q 2975 2913 2975 3322 
Q 2975 3731 2742 3939 
Q 2509 4147 2053 4147 
L 1259 4147 
z
" transform="scale(0.015625)"/>
            <path id="DejaVuSans-43" d="M 4122 4306 
L 4122 3641 
Q 3803 3938 3442 4084 
Q 3081 4231 2675 4231 
Q 1875 4231 1450 3742 
Q 1025 3253 1025 2328 
Q 1025 1406 1450 917 
Q 1875 428 2675 428 
Q 3081 428 3442 575 
Q 3803 722 4122 1019 
L 4122 359 
Q 3791 134 3420 21 
Q 3050 -91 2638 -91 
Q 1578 -91 968 557 
Q 359 1206 359 2328 
Q 359 3453 968 4101 
Q 1578 4750 2638 4750 
Q 3056 4750 3426 4639 
Q 3797 4528 4122 4306 
z
" transform="scale(0.015625)"/>
           </defs>
           <use xlink:href="#DejaVuSans-53"/>
           <use xlink:href="#DejaVuSans-52" x="63.476562"/>
           <use xlink:href="#DejaVuSans-43" x="127.958984"/>
          </g>
         </g>
        </g>
        <g id="xtick_3">
         <g id="line2d_3"/>
         <g id="text_3">
          <!-- TAR -->
          <g transform="translate(441.675246 332.720312) scale(0.1 -0.1)">
           <defs>
            <path id="DejaVuSans-41" d="M 2188 4044 
L 1331 1722 
L 3047 1722 
L 2188 4044 
z
M 1831 4666 
L 2547 4666 
L 4325 0 
L 3669 0 
L 3244 1197 
L 1141 1197 
L 716 0 
L 50 0 
L 1831 4666 
z
" transform="scale(0.015625)"/>
           </defs>
           <use xlink:href="#DejaVuSans-54"/>
           <use xlink:href="#DejaVuSans-41" x="53.333984"/>
           <use xlink:href="#DejaVuSans-52" x="121.742188"/>
          </g>
         </g>
        </g>
       </g>
       <g id="matplotlib.axis_2">
        <g id="ytick_1">
         <g id="line2d_4">
          <defs>
           <path id="m2c006a23f2" d="M 0 0 
L -3.5 0 
" style="stroke: #000000; stroke-width: 0.8"/>
          </defs>
          <g>
           <use xlink:href="#m2c006a23f2" x="63.290625" y="321.621875" style="stroke: #000000; stroke-width: 0.8"/>
          </g>
         </g>
         <g id="text_4">
          <!-- 0 -->
          <g transform="translate(49.928125 325.421094) scale(0.1 -0.1)">
           <defs>
            <path id="DejaVuSans-30" d="M 2034 4250 
Q 1547 4250 1301 3770 
Q 1056 3291 1056 2328 
Q 1056 1369 1301 889 
Q 1547 409 2034 409 
Q 2525 409 2770 889 
Q 3016 1369 3016 2328 
Q 3016 3291 2770 3770 
Q 2525 4250 2034 4250 
z
M 2034 4750 
Q 2819 4750 3233 4129 
Q 3647 3509 3647 2328 
Q 3647 1150 3233 529 
Q 2819 -91 2034 -91 
Q 1250 -91 836 529 
Q 422 1150 422 2328 
Q 422 3509 836 4129 
Q 1250 4750 2034 4750 
z
" transform="scale(0.015625)"/>
           </defs>
           <use xlink:href="#DejaVuSans-30"/>
          </g>
         </g>
        </g>
        <g id="ytick_2">
         <g id="line2d_5">
          <g>
           <use xlink:href="#m2c006a23f2" x="63.290625" y="284.8355" style="stroke: #000000; stroke-width: 0.8"/>
          </g>
         </g>
         <g id="text_5">
          <!-- 2000 -->
          <g transform="translate(30.840625 288.634719) scale(0.1 -0.1)">
           <defs>
            <path id="DejaVuSans-32" d="M 1228 531 
L 3431 531 
L 3431 0 
L 469 0 
L 469 531 
Q 828 903 1448 1529 
Q 2069 2156 2228 2338 
Q 2531 2678 2651 2914 
Q 2772 3150 2772 3378 
Q 2772 3750 2511 3984 
Q 2250 4219 1831 4219 
Q 1534 4219 1204 4116 
Q 875 4013 500 3803 
L 500 4441 
Q 881 4594 1212 4672 
Q 1544 4750 1819 4750 
Q 2544 4750 2975 4387 
Q 3406 4025 3406 3419 
Q 3406 3131 3298 2873 
Q 3191 2616 2906 2266 
Q 2828 2175 2409 1742 
Q 1991 1309 1228 531 
z
" transform="scale(0.015625)"/>
           </defs>
           <use xlink:href="#DejaVuSans-32"/>
           <use xlink:href="#DejaVuSans-30" x="63.623047"/>
           <use xlink:href="#DejaVuSans-30" x="127.246094"/>
           <use xlink:href="#DejaVuSans-30" x="190.869141"/>
          </g>
         </g>
        </g>
        <g id="ytick_3">
         <g id="line2d_6">
          <g>
           <use xlink:href="#m2c006a23f2" x="63.290625" y="248.049126" style="stroke: #000000; stroke-width: 0.8"/>
          </g>
         </g>
         <g id="text_6">
          <!-- 4000 -->
          <g transform="translate(30.840625 251.848344) scale(0.1 -0.1)">
           <defs>
            <path id="DejaVuSans-34" d="M 2419 4116 
L 825 1625 
L 2419 1625 
L 2419 4116 
z
M 2253 4666 
L 3047 4666 
L 3047 1625 
L 3713 1625 
L 3713 1100 
L 3047 1100 
L 3047 0 
L 2419 0 
L 2419 1100 
L 313 1100 
L 313 1709 
L 2253 4666 
z
" transform="scale(0.015625)"/>
           </defs>
           <use xlink:href="#DejaVuSans-34"/>
           <use xlink:href="#DejaVuSans-30" x="63.623047"/>
           <use xlink:href="#DejaVuSans-30" x="127.246094"/>
           <use xlink:href="#DejaVuSans-30" x="190.869141"/>
          </g>
         </g>
        </g>
        <g id="ytick_4">
         <g id="line2d_7">
          <g>
           <use xlink:href="#m2c006a23f2" x="63.290625" y="211.262751" style="stroke: #000000; stroke-width: 0.8"/>
          </g>
         </g>
         <g id="text_7">
          <!-- 6000 -->
          <g transform="translate(30.840625 215.06197) scale(0.1 -0.1)">
           <defs>
            <path id="DejaVuSans-36" d="M 2113 2584 
Q 1688 2584 1439 2293 
Q 1191 2003 1191 1497 
Q 1191 994 1439 701 
Q 1688 409 2113 409 
Q 2538 409 2786 701 
Q 3034 994 3034 1497 
Q 3034 2003 2786 2293 
Q 2538 2584 2113 2584 
z
M 3366 4563 
L 3366 3988 
Q 3128 4100 2886 4159 
Q 2644 4219 2406 4219 
Q 1781 4219 1451 3797 
Q 1122 3375 1075 2522 
Q 1259 2794 1537 2939 
Q 1816 3084 2150 3084 
Q 2853 3084 3261 2657 
Q 3669 2231 3669 1497 
Q 3669 778 3244 343 
Q 2819 -91 2113 -91 
Q 1303 -91 875 529 
Q 447 1150 447 2328 
Q 447 3434 972 4092 
Q 1497 4750 2381 4750 
Q 2619 4750 2861 4703 
Q 3103 4656 3366 4563 
z
" transform="scale(0.015625)"/>
           </defs>
           <use xlink:href="#DejaVuSans-36"/>
           <use xlink:href="#DejaVuSans-30" x="63.623047"/>
           <use xlink:href="#DejaVuSans-30" x="127.246094"/>
           <use xlink:href="#DejaVuSans-30" x="190.869141"/>
          </g>
         </g>
        </g>
        <g id="ytick_5">
         <g id="line2d_8">
          <g>
           <use xlink:href="#m2c006a23f2" x="63.290625" y="174.476376" style="stroke: #000000; stroke-width: 0.8"/>
          </g>
         </g>
         <g id="text_8">
          <!-- 8000 -->
          <g transform="translate(30.840625 178.275595) scale(0.1 -0.1)">
           <defs>
            <path id="DejaVuSans-38" d="M 2034 2216 
Q 1584 2216 1326 1975 
Q 1069 1734 1069 1313 
Q 1069 891 1326 650 
Q 1584 409 2034 409 
Q 2484 409 2743 651 
Q 3003 894 3003 1313 
Q 3003 1734 2745 1975 
Q 2488 2216 2034 2216 
z
M 1403 2484 
Q 997 2584 770 2862 
Q 544 3141 544 3541 
Q 544 4100 942 4425 
Q 1341 4750 2034 4750 
Q 2731 4750 3128 4425 
Q 3525 4100 3525 3541 
Q 3525 3141 3298 2862 
Q 3072 2584 2669 2484 
Q 3125 2378 3379 2068 
Q 3634 1759 3634 1313 
Q 3634 634 3220 271 
Q 2806 -91 2034 -91 
Q 1263 -91 848 271 
Q 434 634 434 1313 
Q 434 1759 690 2068 
Q 947 2378 1403 2484 
z
M 1172 3481 
Q 1172 3119 1398 2916 
Q 1625 2713 2034 2713 
Q 2441 2713 2670 2916 
Q 2900 3119 2900 3481 
Q 2900 3844 2670 4047 
Q 2441 4250 2034 4250 
Q 1625 4250 1398 4047 
Q 1172 3844 1172 3481 
z
" transform="scale(0.015625)"/>
           </defs>
           <use xlink:href="#DejaVuSans-38"/>
           <use xlink:href="#DejaVuSans-30" x="63.623047"/>
           <use xlink:href="#DejaVuSans-30" x="127.246094"/>
           <use xlink:href="#DejaVuSans-30" x="190.869141"/>
          </g>
         </g>
        </g>
        <g id="ytick_6">
         <g id="line2d_9">
          <g>
           <use xlink:href="#m2c006a23f2" x="63.290625" y="137.690001" style="stroke: #000000; stroke-width: 0.8"/>
          </g>
         </g>
         <g id="text_9">
          <!-- 10000 -->
          <g transform="translate(24.478125 141.48922) scale(0.1 -0.1)">
           <defs>
            <path id="DejaVuSans-31" d="M 794 531 
L 1825 531 
L 1825 4091 
L 703 3866 
L 703 4441 
L 1819 4666 
L 2450 4666 
L 2450 531 
L 3481 531 
L 3481 0 
L 794 0 
L 794 531 
z
" transform="scale(0.015625)"/>
           </defs>
           <use xlink:href="#DejaVuSans-31"/>
           <use xlink:href="#DejaVuSans-30" x="63.623047"/>
           <use xlink:href="#DejaVuSans-30" x="127.246094"/>
           <use xlink:href="#DejaVuSans-30" x="190.869141"/>
           <use xlink:href="#DejaVuSans-30" x="254.492188"/>
          </g>
         </g>
        </g>
        <g id="ytick_7">
         <g id="line2d_10">
          <g>
           <use xlink:href="#m2c006a23f2" x="63.290625" y="100.903627" style="stroke: #000000; stroke-width: 0.8"/>
          </g>
         </g>
         <g id="text_10">
          <!-- 12000 -->
          <g transform="translate(24.478125 104.702845) scale(0.1 -0.1)">
           <use xlink:href="#DejaVuSans-31"/>
           <use xlink:href="#DejaVuSans-32" x="63.623047"/>
           <use xlink:href="#DejaVuSans-30" x="127.246094"/>
           <use xlink:href="#DejaVuSans-30" x="190.869141"/>
           <use xlink:href="#DejaVuSans-30" x="254.492188"/>
          </g>
         </g>
        </g>
        <g id="ytick_8">
         <g id="line2d_11">
          <g>
           <use xlink:href="#m2c006a23f2" x="63.290625" y="64.117252" style="stroke: #000000; stroke-width: 0.8"/>
          </g>
         </g>
         <g id="text_11">
          <!-- 14000 -->
          <g transform="translate(24.478125 67.916471) scale(0.1 -0.1)">
           <use xlink:href="#DejaVuSans-31"/>
           <use xlink:href="#DejaVuSans-34" x="63.623047"/>
           <use xlink:href="#DejaVuSans-30" x="127.246094"/>
           <use xlink:href="#DejaVuSans-30" x="190.869141"/>
           <use xlink:href="#DejaVuSans-30" x="254.492188"/>
          </g>
         </g>
        </g>
        <g id="ytick_9">
         <g id="line2d_12">
          <g>
           <use xlink:href="#m2c006a23f2" x="63.290625" y="27.330877" style="stroke: #000000; stroke-width: 0.8"/>
          </g>
         </g>
         <g id="text_12">
          <!-- 16000 -->
          <g transform="translate(24.478125 31.130096) scale(0.1 -0.1)">
           <use xlink:href="#DejaVuSans-31"/>
           <use xlink:href="#DejaVuSans-36" x="63.623047"/>
           <use xlink:href="#DejaVuSans-30" x="127.246094"/>
           <use xlink:href="#DejaVuSans-30" x="190.869141"/>
           <use xlink:href="#DejaVuSans-30" x="254.492188"/>
          </g>
         </g>
        </g>
        <g id="text_13">
         <!-- time ago (generations) -->
         <g transform="translate(18.398438 223.682031) rotate(-90) scale(0.1 -0.1)">
          <defs>
           <path id="DejaVuSans-74" d="M 1172 4494 
L 1172 3500 
L 2356 3500 
L 2356 3053 
L 1172 3053 
L 1172 1153 
Q 1172 725 1289 603 
Q 1406 481 1766 481 
L 2356 481 
L 2356 0 
L 1766 0 
Q 1100 0 847 248 
Q 594 497 594 1153 
L 594 3053 
L 172 3053 
L 172 3500 
L 594 3500 
L 594 4494 
L 1172 4494 
z
" transform="scale(0.015625)"/>
           <path id="DejaVuSans-69" d="M 603 3500 
L 1178 3500 
L 1178 0 
L 603 0 
L 603 3500 
z
M 603 4863 
L 1178 4863 
L 1178 4134 
L 603 4134 
L 603 4863 
z
" transform="scale(0.015625)"/>
           <path id="DejaVuSans-6d" d="M 3328 2828 
Q 3544 3216 3844 3400 
Q 4144 3584 4550 3584 
Q 5097 3584 5394 3201 
Q 5691 2819 5691 2113 
L 5691 0 
L 5113 0 
L 5113 2094 
Q 5113 2597 4934 2840 
Q 4756 3084 4391 3084 
Q 3944 3084 3684 2787 
Q 3425 2491 3425 1978 
L 3425 0 
L 2847 0 
L 2847 2094 
Q 2847 2600 2669 2842 
Q 2491 3084 2119 3084 
Q 1678 3084 1418 2786 
Q 1159 2488 1159 1978 
L 1159 0 
L 581 0 
L 581 3500 
L 1159 3500 
L 1159 2956 
Q 1356 3278 1631 3431 
Q 1906 3584 2284 3584 
Q 2666 3584 2933 3390 
Q 3200 3197 3328 2828 
z
" transform="scale(0.015625)"/>
           <path id="DejaVuSans-65" d="M 3597 1894 
L 3597 1613 
L 953 1613 
Q 991 1019 1311 708 
Q 1631 397 2203 397 
Q 2534 397 2845 478 
Q 3156 559 3463 722 
L 3463 178 
Q 3153 47 2828 -22 
Q 2503 -91 2169 -91 
Q 1331 -91 842 396 
Q 353 884 353 1716 
Q 353 2575 817 3079 
Q 1281 3584 2069 3584 
Q 2775 3584 3186 3129 
Q 3597 2675 3597 1894 
z
M 3022 2063 
Q 3016 2534 2758 2815 
Q 2500 3097 2075 3097 
Q 1594 3097 1305 2825 
Q 1016 2553 972 2059 
L 3022 2063 
z
" transform="scale(0.015625)"/>
           <path id="DejaVuSans-20" transform="scale(0.015625)"/>
           <path id="DejaVuSans-61" d="M 2194 1759 
Q 1497 1759 1228 1600 
Q 959 1441 959 1056 
Q 959 750 1161 570 
Q 1363 391 1709 391 
Q 2188 391 2477 730 
Q 2766 1069 2766 1631 
L 2766 1759 
L 2194 1759 
z
M 3341 1997 
L 3341 0 
L 2766 0 
L 2766 531 
Q 2569 213 2275 61 
Q 1981 -91 1556 -91 
Q 1019 -91 701 211 
Q 384 513 384 1019 
Q 384 1609 779 1909 
Q 1175 2209 1959 2209 
L 2766 2209 
L 2766 2266 
Q 2766 2663 2505 2880 
Q 2244 3097 1772 3097 
Q 1472 3097 1187 3025 
Q 903 2953 641 2809 
L 641 3341 
Q 956 3463 1253 3523 
Q 1550 3584 1831 3584 
Q 2591 3584 2966 3190 
Q 3341 2797 3341 1997 
z
" transform="scale(0.015625)"/>
           <path id="DejaVuSans-67" d="M 2906 1791 
Q 2906 2416 2648 2759 
Q 2391 3103 1925 3103 
Q 1463 3103 1205 2759 
Q 947 2416 947 1791 
Q 947 1169 1205 825 
Q 1463 481 1925 481 
Q 2391 481 2648 825 
Q 2906 1169 2906 1791 
z
M 3481 434 
Q 3481 -459 3084 -895 
Q 2688 -1331 1869 -1331 
Q 1566 -1331 1297 -1286 
Q 1028 -1241 775 -1147 
L 775 -588 
Q 1028 -725 1275 -790 
Q 1522 -856 1778 -856 
Q 2344 -856 2625 -561 
Q 2906 -266 2906 331 
L 2906 616 
Q 2728 306 2450 153 
Q 2172 0 1784 0 
Q 1141 0 747 490 
Q 353 981 353 1791 
Q 353 2603 747 3093 
Q 1141 3584 1784 3584 
Q 2172 3584 2450 3431 
Q 2728 3278 2906 2969 
L 2906 3500 
L 3481 3500 
L 3481 434 
z
" transform="scale(0.015625)"/>
           <path id="DejaVuSans-6f" d="M 1959 3097 
Q 1497 3097 1228 2736 
Q 959 2375 959 1747 
Q 959 1119 1226 758 
Q 1494 397 1959 397 
Q 2419 397 2687 759 
Q 2956 1122 2956 1747 
Q 2956 2369 2687 2733 
Q 2419 3097 1959 3097 
z
M 1959 3584 
Q 2709 3584 3137 3096 
Q 3566 2609 3566 1747 
Q 3566 888 3137 398 
Q 2709 -91 1959 -91 
Q 1206 -91 779 398 
Q 353 888 353 1747 
Q 353 2609 779 3096 
Q 1206 3584 1959 3584 
z
" transform="scale(0.015625)"/>
           <path id="DejaVuSans-28" d="M 1984 4856 
Q 1566 4138 1362 3434 
Q 1159 2731 1159 2009 
Q 1159 1288 1364 580 
Q 1569 -128 1984 -844 
L 1484 -844 
Q 1016 -109 783 600 
Q 550 1309 550 2009 
Q 550 2706 781 3412 
Q 1013 4119 1484 4856 
L 1984 4856 
z
" transform="scale(0.015625)"/>
           <path id="DejaVuSans-6e" d="M 3513 2113 
L 3513 0 
L 2938 0 
L 2938 2094 
Q 2938 2591 2744 2837 
Q 2550 3084 2163 3084 
Q 1697 3084 1428 2787 
Q 1159 2491 1159 1978 
L 1159 0 
L 581 0 
L 581 3500 
L 1159 3500 
L 1159 2956 
Q 1366 3272 1645 3428 
Q 1925 3584 2291 3584 
Q 2894 3584 3203 3211 
Q 3513 2838 3513 2113 
z
" transform="scale(0.015625)"/>
           <path id="DejaVuSans-72" d="M 2631 2963 
Q 2534 3019 2420 3045 
Q 2306 3072 2169 3072 
Q 1681 3072 1420 2755 
Q 1159 2438 1159 1844 
L 1159 0 
L 581 0 
L 581 3500 
L 1159 3500 
L 1159 2956 
Q 1341 3275 1631 3429 
Q 1922 3584 2338 3584 
Q 2397 3584 2469 3576 
Q 2541 3569 2628 3553 
L 2631 2963 
z
" transform="scale(0.015625)"/>
           <path id="DejaVuSans-73" d="M 2834 3397 
L 2834 2853 
Q 2591 2978 2328 3040 
Q 2066 3103 1784 3103 
Q 1356 3103 1142 2972 
Q 928 2841 928 2578 
Q 928 2378 1081 2264 
Q 1234 2150 1697 2047 
L 1894 2003 
Q 2506 1872 2764 1633 
Q 3022 1394 3022 966 
Q 3022 478 2636 193 
Q 2250 -91 1575 -91 
Q 1294 -91 989 -36 
Q 684 19 347 128 
L 347 722 
Q 666 556 975 473 
Q 1284 391 1588 391 
Q 1994 391 2212 530 
Q 2431 669 2431 922 
Q 2431 1156 2273 1281 
Q 2116 1406 1581 1522 
L 1381 1569 
Q 847 1681 609 1914 
Q 372 2147 372 2553 
Q 372 3047 722 3315 
Q 1072 3584 1716 3584 
Q 2034 3584 2315 3537 
Q 2597 3491 2834 3397 
z
" transform="scale(0.015625)"/>
           <path id="DejaVuSans-29" d="M 513 4856 
L 1013 4856 
Q 1481 4119 1714 3412 
Q 1947 2706 1947 2009 
Q 1947 1309 1714 600 
Q 1481 -109 1013 -844 
L 513 -844 
Q 928 -128 1133 580 
Q 1338 1288 1338 2009 
Q 1338 2731 1133 3434 
Q 928 4138 513 4856 
z
" transform="scale(0.015625)"/>
          </defs>
          <use xlink:href="#DejaVuSans-74"/>
          <use xlink:href="#DejaVuSans-69" x="39.208984"/>
          <use xlink:href="#DejaVuSans-6d" x="66.992188"/>
          <use xlink:href="#DejaVuSans-65" x="164.404297"/>
          <use xlink:href="#DejaVuSans-20" x="225.927734"/>
          <use xlink:href="#DejaVuSans-61" x="257.714844"/>
          <use xlink:href="#DejaVuSans-67" x="318.994141"/>
          <use xlink:href="#DejaVuSans-6f" x="382.470703"/>
          <use xlink:href="#DejaVuSans-20" x="443.652344"/>
          <use xlink:href="#DejaVuSans-28" x="475.439453"/>
          <use xlink:href="#DejaVuSans-67" x="514.453125"/>
          <use xlink:href="#DejaVuSans-65" x="577.929688"/>
          <use xlink:href="#DejaVuSans-6e" x="639.453125"/>
          <use xlink:href="#DejaVuSans-65" x="702.832031"/>
          <use xlink:href="#DejaVuSans-72" x="764.355469"/>
          <use xlink:href="#DejaVuSans-61" x="805.46875"/>
          <use xlink:href="#DejaVuSans-74" x="866.748047"/>
          <use xlink:href="#DejaVuSans-69" x="905.957031"/>
          <use xlink:href="#DejaVuSans-6f" x="933.740234"/>
          <use xlink:href="#DejaVuSans-6e" x="994.921875"/>
          <use xlink:href="#DejaVuSans-73" x="1058.300781"/>
          <use xlink:href="#DejaVuSans-29" x="1110.400391"/>
         </g>
        </g>
       </g>
       <g id="patch_7">
        <path d="M 281.896947 267.785016 
L 280.896947 267.753579 
L 279.896947 267.716639 
L 278.896947 267.618892 
L 277.896947 267.586371 
L 276.896947 267.512746 
L 275.896947 267.47418 
L 274.896947 267.438767 
L 273.896947 267.381127 
L 272.896947 267.310741 
L 271.896947 267.258777 
L 270.896947 267.199687 
L 269.896947 267.111366 
L 268.896947 267.065222 
L 267.896947 267.022811 
L 266.896947 266.992318 
L 265.896947 266.966273 
L 264.896947 266.945073 
L 263.896947 266.890772 
L 262.896947 266.862835 
L 261.896947 266.833111 
L 260.896947 266.807716 
L 259.896947 266.796515 
L 258.896947 266.786391 
L 257.896947 266.786596 
L 256.896947 266.796106 
L 255.896947 266.807759 
L 254.896947 266.838788 
L 253.896947 266.849956 
L 252.896947 266.880074 
L 251.896947 266.939851 
L 250.896947 266.977042 
L 249.896947 267.016138 
L 248.896947 267.058578 
L 247.896947 267.091343 
L 246.896947 267.15877 
L 245.896947 267.197896 
L 244.896947 267.24057 
L 243.896947 267.311151 
L 242.896947 267.347542 
L 241.896947 267.405945 
L 240.896947 267.516897 
L 239.896947 267.587556 
L 238.896947 267.700496 
L 237.896947 267.746268 
L 236.896947 267.807552 
L 235.896947 267.856051 
L 234.896947 267.936874 
L 233.896947 268.055393 
L 232.896947 268.125603 
L 231.896947 268.208866 
L 230.896947 268.242007 
L 229.857388 268.293245 
" clip-path="url(#p02208bce27)" style="fill: none; stroke: #ffffff; stroke-width: 3; stroke-linecap: round"/>
        <path d="M 281.896947 267.785016 
L 280.896947 267.753579 
L 279.896947 267.716639 
L 278.896947 267.618892 
L 277.896947 267.586371 
L 276.896947 267.512746 
L 275.896947 267.47418 
L 274.896947 267.438767 
L 273.896947 267.381127 
L 272.896947 267.310741 
L 271.896947 267.258777 
L 270.896947 267.199687 
L 269.896947 267.111366 
L 268.896947 267.065222 
L 267.896947 267.022811 
L 266.896947 266.992318 
L 265.896947 266.966273 
L 264.896947 266.945073 
L 263.896947 266.890772 
L 262.896947 266.862835 
L 261.896947 266.833111 
L 260.896947 266.807716 
L 259.896947 266.796515 
L 258.896947 266.786391 
L 257.896947 266.786596 
L 256.896947 266.796106 
L 255.896947 266.807759 
L 254.896947 266.838788 
L 253.896947 266.849956 
L 252.896947 266.880074 
L 251.896947 266.939851 
L 250.896947 266.977042 
L 249.896947 267.016138 
L 248.896947 267.058578 
L 247.896947 267.091343 
L 246.896947 267.15877 
L 245.896947 267.197896 
L 244.896947 267.24057 
L 243.896947 267.311151 
L 242.896947 267.347542 
L 241.896947 267.405945 
L 240.896947 267.516897 
L 239.896947 267.587556 
L 238.896947 267.700496 
L 237.896947 267.746268 
L 236.896947 267.807552 
L 235.896947 267.856051 
L 234.896947 267.936874 
L 233.896947 268.055393 
L 232.896947 268.125603 
L 231.896947 268.208866 
L 230.896947 268.242007 
L 229.857388 268.293245 
" clip-path="url(#p02208bce27)" style="fill: none; stroke: #1f77b4; stroke-linecap: round"/>
        <path d="M 233.857388 269.785016 
L 232.97702 269.309684 
L 232.099113 268.82943 
L 231.2484 268.29479 
L 229.946225 267.607342 
L 230.873578 267.581327 
L 231.785253 267.168608 
L 232.695517 266.753069 
L 234.038013 266.146264 
L 233.383114 266.785016 
L 233.33115 267.785016 
L 233.27206 269.785016 
z
" clip-path="url(#p02208bce27)" style="fill: #ffffff; stroke: #ffffff; stroke-width: 3; stroke-linecap: round"/>
        <path d="M 233.857388 269.785016 
L 232.97702 269.309684 
L 232.099113 268.82943 
L 231.2484 268.29479 
L 229.946225 267.607342 
L 230.873578 267.581327 
L 231.785253 267.168608 
L 232.695517 266.753069 
L 234.038013 266.146264 
L 233.383114 266.785016 
L 233.33115 267.785016 
L 233.27206 269.785016 
z
" clip-path="url(#p02208bce27)" style="fill: #ffffff; stroke: #1f77b4; stroke-linecap: round"/>
        <g id="patch_8">
         <path d="M 385.42385 72.964375 
L 386.42385 72.995811 
L 387.42385 73.032752 
L 388.42385 73.130498 
L 389.42385 73.16302 
L 390.42385 73.236645 
L 391.42385 73.27521 
L 392.42385 73.310623 
L 393.42385 73.368263 
L 394.42385 73.438649 
L 395.42385 73.490614 
L 396.42385 73.549703 
L 397.42385 73.638024 
L 398.42385 73.684169 
L 399.42385 73.72658 
L 400.42385 73.757072 
L 401.42385 73.783117 
L 402.42385 73.804317 
L 403.42385 73.858618 
L 404.42385 73.886556 
L 405.42385 73.91628 
L 406.42385 73.941675 
L 407.42385 73.952875 
L 408.42385 73.962999 
L 409.42385 73.962795 
L 410.42385 73.953285 
L 411.42385 73.941631 
L 412.42385 73.910602 
L 413.42385 73.899434 
L 414.42385 73.869317 
L 415.42385 73.80954 
L 416.42385 73.772348 
L 417.42385 73.733252 
L 418.42385 73.690812 
L 419.42385 73.658047 
L 420.42385 73.590621 
L 421.42385 73.551495 
L 422.42385 73.50882 
L 423.42385 73.43824 
L 424.42385 73.401849 
L 425.42385 73.343446 
L 426.42385 73.232493 
L 427.42385 73.161835 
L 428.42385 73.048895 
L 429.42385 73.003122 
L 430.42385 72.941839 
L 431.42385 72.89334 
L 432.42385 72.812517 
L 433.42385 72.693998 
L 434.42385 72.623787 
L 435.42385 72.540525 
L 436.42385 72.507383 
L 437.42385 72.456146 
L 438.42385 72.387747 
L 439.42385 72.321532 
L 440.42385 72.244615 
L 441.42385 72.217299 
L 442.42385 72.190822 
L 443.42385 72.168171 
L 444.42385 72.14864 
L 445.42385 72.122246 
L 446.42385 72.072475 
L 447.42385 72.037402 
L 448.42385 72.001536 
L 449.42385 71.986169 
L 450.42385 71.9704 
L 451.42385 71.966987 
L 452.42385 71.96457 
L 453.42385 71.965056 
L 454.42385 71.966985 
L 455.42385 71.980242 
L 456.42385 71.988633 
L 457.42385 72.010169 
L 458.42385 72.033202 
L 459.42385 72.050435 
L 460.42385 72.068898 
L 461.42385 72.08935 
L 462.42385 72.10595 
L 463.42385 72.168729 
L 464.42385 72.243994 
L 465.42385 72.276633 
L 466.42385 72.344197 
L 467.42385 72.398244 
L 468.42385 72.431948 
L 469.42385 72.522074 
L 470.42385 72.550609 
L 471.42385 72.582095 
L 472.42385 72.613106 
L 473.42385 72.667914 
L 474.42385 72.732501 
L 475.42385 72.770697 
L 476.42385 72.866631 
L 477.42385 72.915889 
L 478.42385 72.959958 
L 479.42385 73.000082 
L 480.42385 73.108449 
L 481.42385 73.150077 
L 482.42385 73.212219 
L 483.42385 73.282181 
L 484.42385 73.386685 
L 485.42385 73.423673 
L 486.42385 73.46955 
L 487.42385 73.538045 
L 488.42385 73.586791 
L 489.42385 73.664388 
L 490.42385 73.694929 
L 491.42385 73.764443 
L 492.42385 73.788416 
L 493.42385 73.817038 
L 494.42385 73.858831 
L 495.42385 73.880407 
L 496.42385 73.894355 
L 497.42385 73.921077 
L 498.42385 73.930387 
L 499.42385 73.942834 
L 500.42385 73.953889 
L 501.42385 73.959553 
L 502.42385 73.964317 
L 503.42385 73.958769 
L 504.42385 73.945481 
L 505.42385 73.937964 
L 506.42385 73.913179 
L 507.42385 73.88961 
L 508.42385 73.85343 
L 509.42385 73.827468 
L 510.42385 73.805146 
L 511.42385 73.736386 
L 512.42385 73.661851 
L 513.42385 73.567872 
L 514.42385 73.51682 
L 515.42385 73.462886 
L 516.42385 73.427635 
L 517.42385 73.321547 
L 518.42385 73.269283 
L 519.42385 73.232376 
L 520.42385 73.201345 
L 521.42385 73.14019 
L 522.42385 73.07277 
L 523.42385 73.023864 
L 524.42385 72.958672 
L 525.42385 72.920484 
L 526.42385 72.878488 
L 527.42385 72.836471 
L 528.42385 72.776955 
L 529.42385 72.663795 
L 530.42385 72.611544 
L 531.42385 72.572126 
L 532.42385 72.525025 
L 533.42385 72.468245 
L 534.42385 72.435582 
L 535.42385 72.399404 
L 536.42385 72.367314 
L 537.42385 72.333034 
L 538.42385 72.274656 
L 539.42385 72.229471 
L 540.42385 72.199847 
L 541.42385 72.149461 
L 542.42385 72.124264 
L 543.42385 72.103213 
L 544.42385 72.068245 
L 545.42385 72.043955 
L 546.42385 72.029888 
L 547.42385 72.010946 
L 548.42385 71.995285 
L 549.42385 71.982733 
L 550.42385 71.976897 
L 551.42385 71.970015 
L 552.42385 71.964841 
L 553.42385 71.966624 
L 554.42385 71.969349 
L 555.468102 71.980503 
" clip-path="url(#p02208bce27)" style="fill: none; stroke: #ffffff; stroke-width: 3; stroke-linecap: round"/>
         <path d="M 385.42385 72.964375 
L 386.42385 72.995811 
L 387.42385 73.032752 
L 388.42385 73.130498 
L 389.42385 73.16302 
L 390.42385 73.236645 
L 391.42385 73.27521 
L 392.42385 73.310623 
L 393.42385 73.368263 
L 394.42385 73.438649 
L 395.42385 73.490614 
L 396.42385 73.549703 
L 397.42385 73.638024 
L 398.42385 73.684169 
L 399.42385 73.72658 
L 400.42385 73.757072 
L 401.42385 73.783117 
L 402.42385 73.804317 
L 403.42385 73.858618 
L 404.42385 73.886556 
L 405.42385 73.91628 
L 406.42385 73.941675 
L 407.42385 73.952875 
L 408.42385 73.962999 
L 409.42385 73.962795 
L 410.42385 73.953285 
L 411.42385 73.941631 
L 412.42385 73.910602 
L 413.42385 73.899434 
L 414.42385 73.869317 
L 415.42385 73.80954 
L 416.42385 73.772348 
L 417.42385 73.733252 
L 418.42385 73.690812 
L 419.42385 73.658047 
L 420.42385 73.590621 
L 421.42385 73.551495 
L 422.42385 73.50882 
L 423.42385 73.43824 
L 424.42385 73.401849 
L 425.42385 73.343446 
L 426.42385 73.232493 
L 427.42385 73.161835 
L 428.42385 73.048895 
L 429.42385 73.003122 
L 430.42385 72.941839 
L 431.42385 72.89334 
L 432.42385 72.812517 
L 433.42385 72.693998 
L 434.42385 72.623787 
L 435.42385 72.540525 
L 436.42385 72.507383 
L 437.42385 72.456146 
L 438.42385 72.387747 
L 439.42385 72.321532 
L 440.42385 72.244615 
L 441.42385 72.217299 
L 442.42385 72.190822 
L 443.42385 72.168171 
L 444.42385 72.14864 
L 445.42385 72.122246 
L 446.42385 72.072475 
L 447.42385 72.037402 
L 448.42385 72.001536 
L 449.42385 71.986169 
L 450.42385 71.9704 
L 451.42385 71.966987 
L 452.42385 71.96457 
L 453.42385 71.965056 
L 454.42385 71.966985 
L 455.42385 71.980242 
L 456.42385 71.988633 
L 457.42385 72.010169 
L 458.42385 72.033202 
L 459.42385 72.050435 
L 460.42385 72.068898 
L 461.42385 72.08935 
L 462.42385 72.10595 
L 463.42385 72.168729 
L 464.42385 72.243994 
L 465.42385 72.276633 
L 466.42385 72.344197 
L 467.42385 72.398244 
L 468.42385 72.431948 
L 469.42385 72.522074 
L 470.42385 72.550609 
L 471.42385 72.582095 
L 472.42385 72.613106 
L 473.42385 72.667914 
L 474.42385 72.732501 
L 475.42385 72.770697 
L 476.42385 72.866631 
L 477.42385 72.915889 
L 478.42385 72.959958 
L 479.42385 73.000082 
L 480.42385 73.108449 
L 481.42385 73.150077 
L 482.42385 73.212219 
L 483.42385 73.282181 
L 484.42385 73.386685 
L 485.42385 73.423673 
L 486.42385 73.46955 
L 487.42385 73.538045 
L 488.42385 73.586791 
L 489.42385 73.664388 
L 490.42385 73.694929 
L 491.42385 73.764443 
L 492.42385 73.788416 
L 493.42385 73.817038 
L 494.42385 73.858831 
L 495.42385 73.880407 
L 496.42385 73.894355 
L 497.42385 73.921077 
L 498.42385 73.930387 
L 499.42385 73.942834 
L 500.42385 73.953889 
L 501.42385 73.959553 
L 502.42385 73.964317 
L 503.42385 73.958769 
L 504.42385 73.945481 
L 505.42385 73.937964 
L 506.42385 73.913179 
L 507.42385 73.88961 
L 508.42385 73.85343 
L 509.42385 73.827468 
L 510.42385 73.805146 
L 511.42385 73.736386 
L 512.42385 73.661851 
L 513.42385 73.567872 
L 514.42385 73.51682 
L 515.42385 73.462886 
L 516.42385 73.427635 
L 517.42385 73.321547 
L 518.42385 73.269283 
L 519.42385 73.232376 
L 520.42385 73.201345 
L 521.42385 73.14019 
L 522.42385 73.07277 
L 523.42385 73.023864 
L 524.42385 72.958672 
L 525.42385 72.920484 
L 526.42385 72.878488 
L 527.42385 72.836471 
L 528.42385 72.776955 
L 529.42385 72.663795 
L 530.42385 72.611544 
L 531.42385 72.572126 
L 532.42385 72.525025 
L 533.42385 72.468245 
L 534.42385 72.435582 
L 535.42385 72.399404 
L 536.42385 72.367314 
L 537.42385 72.333034 
L 538.42385 72.274656 
L 539.42385 72.229471 
L 540.42385 72.199847 
L 541.42385 72.149461 
L 542.42385 72.124264 
L 543.42385 72.103213 
L 544.42385 72.068245 
L 545.42385 72.043955 
L 546.42385 72.029888 
L 547.42385 72.010946 
L 548.42385 71.995285 
L 549.42385 71.982733 
L 550.42385 71.976897 
L 551.42385 71.970015 
L 552.42385 71.964841 
L 553.42385 71.966624 
L 554.42385 71.969349 
L 555.468102 71.980503 
" clip-path="url(#p02208bce27)" style="fill: none; stroke: #1f77b4; stroke-linecap: round"/>
         <path d="M 551.468102 70.964375 
L 552.34847 71.439706 
L 553.226377 71.91996 
L 554.077091 72.454601 
L 555.379265 73.142048 
L 554.451912 73.168063 
L 553.540237 73.580783 
L 552.629973 73.996322 
L 551.287477 74.603126 
L 551.942376 73.964375 
L 551.99434 72.964375 
L 552.05343 70.964375 
z
" clip-path="url(#p02208bce27)" style="fill: #ffffff; stroke: #ffffff; stroke-width: 3; stroke-linecap: round"/>
         <path d="M 551.468102 70.964375 
L 552.34847 71.439706 
L 553.226377 71.91996 
L 554.077091 72.454601 
L 555.379265 73.142048 
L 554.451912 73.168063 
L 553.540237 73.580783 
L 552.629973 73.996322 
L 551.287477 74.603126 
L 551.942376 73.964375 
L 551.99434 72.964375 
L 552.05343 70.964375 
z
" clip-path="url(#p02208bce27)" style="fill: #ffffff; stroke: #1f77b4; stroke-linecap: round"/>
         <g id="patch_9">
          <path d="M 228.735953 275.179077 
L 229.735953 275.210513 
L 230.735953 275.247454 
L 231.735953 275.3452 
L 232.735953 275.377722 
L 233.735953 275.451346 
L 234.735953 275.489912 
L 235.735953 275.525325 
L 236.735953 275.582965 
L 237.735953 275.653351 
L 238.735953 275.705316 
L 239.735953 275.764405 
L 240.735953 275.852726 
L 241.735953 275.898871 
L 242.735953 275.941281 
L 243.735953 275.971774 
L 244.735953 275.997819 
L 245.735953 276.019019 
L 246.735953 276.07332 
L 247.735953 276.101258 
L 248.735953 276.130982 
L 249.735953 276.156377 
L 250.735953 276.167577 
L 251.735953 276.177701 
L 252.735953 276.177497 
L 253.735953 276.167987 
L 254.735953 276.156333 
L 255.735953 276.125304 
L 256.735953 276.114136 
L 257.735953 276.084019 
L 258.735953 276.024242 
L 259.735953 275.98705 
L 260.735953 275.947954 
L 261.735953 275.905514 
L 262.735953 275.872749 
L 263.735953 275.805323 
L 264.735953 275.766197 
L 265.735953 275.723522 
L 266.735953 275.652942 
L 267.735953 275.616551 
L 268.735953 275.558148 
L 269.735953 275.447195 
L 270.735953 275.376537 
L 271.735953 275.263597 
L 272.735953 275.217824 
L 273.735953 275.156541 
L 274.735953 275.108041 
L 275.735953 275.027219 
L 276.735953 274.9087 
L 277.735953 274.838489 
L 278.735953 274.755227 
L 279.735953 274.722085 
L 280.735953 274.670848 
L 281.735953 274.602449 
L 282.735953 274.536234 
L 283.735953 274.459317 
L 284.735953 274.432001 
L 285.735953 274.405524 
L 286.735953 274.382873 
L 287.735953 274.363342 
L 288.735953 274.336948 
L 289.735953 274.287177 
L 290.735953 274.252104 
L 291.735953 274.216238 
L 292.735953 274.200871 
L 293.735953 274.185102 
L 294.735953 274.181689 
L 295.735953 274.179272 
L 296.735953 274.179758 
L 297.735953 274.181687 
L 298.735953 274.194944 
L 299.735953 274.203334 
L 300.735953 274.224871 
L 301.735953 274.247904 
L 302.735953 274.265137 
L 303.735953 274.2836 
L 304.735953 274.304052 
L 305.735953 274.320652 
L 306.735953 274.383431 
L 307.735953 274.458696 
L 308.735953 274.491335 
L 309.735953 274.558898 
L 310.735953 274.612946 
L 311.735953 274.64665 
L 312.735953 274.736776 
L 313.735953 274.765311 
L 314.735953 274.796797 
L 315.735953 274.827808 
L 316.735953 274.882616 
L 317.735953 274.947203 
L 318.735953 274.985398 
L 319.735953 275.081333 
L 320.735953 275.130591 
L 321.735953 275.17466 
L 322.735953 275.214784 
L 323.735953 275.323151 
L 324.735953 275.364779 
L 325.735953 275.42692 
L 326.735953 275.496883 
L 327.735953 275.601387 
L 328.735953 275.638375 
L 329.735953 275.684252 
L 330.735953 275.752747 
L 331.735953 275.801492 
L 332.735953 275.87909 
L 333.735953 275.909631 
L 334.735953 275.979145 
L 335.735953 276.003118 
L 336.735953 276.03174 
L 337.735953 276.073533 
L 338.735953 276.095109 
L 339.735953 276.109057 
L 340.735953 276.135779 
L 341.735953 276.145089 
L 342.735953 276.157536 
L 343.735953 276.16859 
L 344.735953 276.174255 
L 345.735953 276.179019 
L 346.735953 276.173471 
L 347.735953 276.160183 
L 348.735953 276.152666 
L 349.735953 276.127881 
L 350.735953 276.104312 
L 351.735953 276.068131 
L 352.735953 276.04217 
L 353.735953 276.019848 
L 354.735953 275.951088 
L 355.735953 275.876553 
L 356.735953 275.782574 
L 357.735953 275.731522 
L 358.735953 275.677588 
L 359.735953 275.642337 
L 360.735953 275.536249 
L 361.735953 275.483985 
L 362.735953 275.447078 
L 363.735953 275.416047 
L 364.735953 275.354892 
L 365.735953 275.287472 
L 366.735953 275.238566 
L 367.735953 275.173374 
L 368.735953 275.135186 
L 369.735953 275.09319 
L 370.735953 275.051173 
L 371.735953 274.991656 
L 372.735953 274.878497 
L 373.735953 274.826246 
L 374.735953 274.786828 
L 375.735953 274.739727 
L 376.735953 274.682947 
L 377.735953 274.650284 
L 378.735953 274.614106 
L 379.735953 274.582015 
L 380.735953 274.547736 
L 381.735953 274.489358 
L 382.735953 274.444173 
L 383.735953 274.414549 
L 384.735953 274.364163 
L 385.735953 274.338966 
L 386.735953 274.317915 
L 387.735953 274.282947 
L 388.735953 274.258657 
L 389.735953 274.24459 
L 390.735953 274.225648 
L 391.735953 274.209986 
L 392.735953 274.197435 
L 393.735953 274.191599 
L 394.735953 274.184716 
L 395.735953 274.179543 
L 396.735953 274.181325 
L 397.735953 274.184051 
L 398.735953 274.195205 
L 399.735953 274.22344 
L 400.735953 274.267228 
L 401.735953 274.287917 
L 402.735953 274.32889 
L 403.735953 274.368965 
L 404.735953 274.388075 
L 405.735953 274.410584 
L 406.735953 274.477235 
L 407.735953 274.526944 
L 408.735953 274.600651 
L 409.735953 274.631965 
L 410.735953 274.708587 
L 411.735953 274.746885 
L 412.735953 274.821002 
L 413.735953 274.92506 
L 414.735953 274.994891 
L 415.735953 275.100124 
L 416.735953 275.15514 
L 417.735953 275.278615 
L 418.735953 275.349174 
L 419.735953 275.465013 
L 420.735953 275.515194 
L 421.735953 275.550798 
L 422.735953 275.642205 
L 423.735953 275.695712 
L 424.735953 275.783621 
L 425.735953 275.852806 
L 426.735953 275.89957 
L 427.735953 275.971614 
L 428.735953 276.021756 
L 429.735953 276.039146 
L 430.735953 276.066149 
L 431.735953 276.085576 
L 432.735953 276.104914 
L 433.735953 276.143163 
L 434.735953 276.159596 
L 435.735953 276.167965 
L 436.735953 276.172284 
L 437.735953 276.178839 
L 438.735953 276.176293 
L 439.735953 276.170834 
L 441.686415 276.154406 
" clip-path="url(#p02208bce27)" style="fill: none; stroke: #ffffff; stroke-width: 3; stroke-linecap: round"/>
          <path d="M 228.735953 275.179077 
L 229.735953 275.210513 
L 230.735953 275.247454 
L 231.735953 275.3452 
L 232.735953 275.377722 
L 233.735953 275.451346 
L 234.735953 275.489912 
L 235.735953 275.525325 
L 236.735953 275.582965 
L 237.735953 275.653351 
L 238.735953 275.705316 
L 239.735953 275.764405 
L 240.735953 275.852726 
L 241.735953 275.898871 
L 242.735953 275.941281 
L 243.735953 275.971774 
L 244.735953 275.997819 
L 245.735953 276.019019 
L 246.735953 276.07332 
L 247.735953 276.101258 
L 248.735953 276.130982 
L 249.735953 276.156377 
L 250.735953 276.167577 
L 251.735953 276.177701 
L 252.735953 276.177497 
L 253.735953 276.167987 
L 254.735953 276.156333 
L 255.735953 276.125304 
L 256.735953 276.114136 
L 257.735953 276.084019 
L 258.735953 276.024242 
L 259.735953 275.98705 
L 260.735953 275.947954 
L 261.735953 275.905514 
L 262.735953 275.872749 
L 263.735953 275.805323 
L 264.735953 275.766197 
L 265.735953 275.723522 
L 266.735953 275.652942 
L 267.735953 275.616551 
L 268.735953 275.558148 
L 269.735953 275.447195 
L 270.735953 275.376537 
L 271.735953 275.263597 
L 272.735953 275.217824 
L 273.735953 275.156541 
L 274.735953 275.108041 
L 275.735953 275.027219 
L 276.735953 274.9087 
L 277.735953 274.838489 
L 278.735953 274.755227 
L 279.735953 274.722085 
L 280.735953 274.670848 
L 281.735953 274.602449 
L 282.735953 274.536234 
L 283.735953 274.459317 
L 284.735953 274.432001 
L 285.735953 274.405524 
L 286.735953 274.382873 
L 287.735953 274.363342 
L 288.735953 274.336948 
L 289.735953 274.287177 
L 290.735953 274.252104 
L 291.735953 274.216238 
L 292.735953 274.200871 
L 293.735953 274.185102 
L 294.735953 274.181689 
L 295.735953 274.179272 
L 296.735953 274.179758 
L 297.735953 274.181687 
L 298.735953 274.194944 
L 299.735953 274.203334 
L 300.735953 274.224871 
L 301.735953 274.247904 
L 302.735953 274.265137 
L 303.735953 274.2836 
L 304.735953 274.304052 
L 305.735953 274.320652 
L 306.735953 274.383431 
L 307.735953 274.458696 
L 308.735953 274.491335 
L 309.735953 274.558898 
L 310.735953 274.612946 
L 311.735953 274.64665 
L 312.735953 274.736776 
L 313.735953 274.765311 
L 314.735953 274.796797 
L 315.735953 274.827808 
L 316.735953 274.882616 
L 317.735953 274.947203 
L 318.735953 274.985398 
L 319.735953 275.081333 
L 320.735953 275.130591 
L 321.735953 275.17466 
L 322.735953 275.214784 
L 323.735953 275.323151 
L 324.735953 275.364779 
L 325.735953 275.42692 
L 326.735953 275.496883 
L 327.735953 275.601387 
L 328.735953 275.638375 
L 329.735953 275.684252 
L 330.735953 275.752747 
L 331.735953 275.801492 
L 332.735953 275.87909 
L 333.735953 275.909631 
L 334.735953 275.979145 
L 335.735953 276.003118 
L 336.735953 276.03174 
L 337.735953 276.073533 
L 338.735953 276.095109 
L 339.735953 276.109057 
L 340.735953 276.135779 
L 341.735953 276.145089 
L 342.735953 276.157536 
L 343.735953 276.16859 
L 344.735953 276.174255 
L 345.735953 276.179019 
L 346.735953 276.173471 
L 347.735953 276.160183 
L 348.735953 276.152666 
L 349.735953 276.127881 
L 350.735953 276.104312 
L 351.735953 276.068131 
L 352.735953 276.04217 
L 353.735953 276.019848 
L 354.735953 275.951088 
L 355.735953 275.876553 
L 356.735953 275.782574 
L 357.735953 275.731522 
L 358.735953 275.677588 
L 359.735953 275.642337 
L 360.735953 275.536249 
L 361.735953 275.483985 
L 362.735953 275.447078 
L 363.735953 275.416047 
L 364.735953 275.354892 
L 365.735953 275.287472 
L 366.735953 275.238566 
L 367.735953 275.173374 
L 368.735953 275.135186 
L 369.735953 275.09319 
L 370.735953 275.051173 
L 371.735953 274.991656 
L 372.735953 274.878497 
L 373.735953 274.826246 
L 374.735953 274.786828 
L 375.735953 274.739727 
L 376.735953 274.682947 
L 377.735953 274.650284 
L 378.735953 274.614106 
L 379.735953 274.582015 
L 380.735953 274.547736 
L 381.735953 274.489358 
L 382.735953 274.444173 
L 383.735953 274.414549 
L 384.735953 274.364163 
L 385.735953 274.338966 
L 386.735953 274.317915 
L 387.735953 274.282947 
L 388.735953 274.258657 
L 389.735953 274.24459 
L 390.735953 274.225648 
L 391.735953 274.209986 
L 392.735953 274.197435 
L 393.735953 274.191599 
L 394.735953 274.184716 
L 395.735953 274.179543 
L 396.735953 274.181325 
L 397.735953 274.184051 
L 398.735953 274.195205 
L 399.735953 274.22344 
L 400.735953 274.267228 
L 401.735953 274.287917 
L 402.735953 274.32889 
L 403.735953 274.368965 
L 404.735953 274.388075 
L 405.735953 274.410584 
L 406.735953 274.477235 
L 407.735953 274.526944 
L 408.735953 274.600651 
L 409.735953 274.631965 
L 410.735953 274.708587 
L 411.735953 274.746885 
L 412.735953 274.821002 
L 413.735953 274.92506 
L 414.735953 274.994891 
L 415.735953 275.100124 
L 416.735953 275.15514 
L 417.735953 275.278615 
L 418.735953 275.349174 
L 419.735953 275.465013 
L 420.735953 275.515194 
L 421.735953 275.550798 
L 422.735953 275.642205 
L 423.735953 275.695712 
L 424.735953 275.783621 
L 425.735953 275.852806 
L 426.735953 275.89957 
L 427.735953 275.971614 
L 428.735953 276.021756 
L 429.735953 276.039146 
L 430.735953 276.066149 
L 431.735953 276.085576 
L 432.735953 276.104914 
L 433.735953 276.143163 
L 434.735953 276.159596 
L 435.735953 276.167965 
L 436.735953 276.172284 
L 437.735953 276.178839 
L 438.735953 276.176293 
L 439.735953 276.170834 
L 441.686415 276.154406 
" clip-path="url(#p02208bce27)" style="fill: none; stroke: #ff7f0e; stroke-linecap: round"/>
          <path d="M 437.686415 273.179077 
L 438.566783 273.654408 
L 439.44469 274.134662 
L 440.295404 274.669303 
L 441.597578 275.35675 
L 440.670225 275.382765 
L 439.758551 275.795485 
L 438.848286 276.211024 
L 437.50579 276.817828 
L 438.160689 276.179077 
L 438.212653 275.179077 
L 438.271743 273.179077 
z
" clip-path="url(#p02208bce27)" style="fill: #ffffff; stroke: #ffffff; stroke-width: 3; stroke-linecap: round"/>
          <path d="M 437.686415 273.179077 
L 438.566783 273.654408 
L 439.44469 274.134662 
L 440.295404 274.669303 
L 441.597578 275.35675 
L 440.670225 275.382765 
L 439.758551 275.795485 
L 438.848286 276.211024 
L 437.50579 276.817828 
L 438.160689 276.179077 
L 438.212653 275.179077 
L 438.271743 273.179077 
z
" clip-path="url(#p02208bce27)" style="fill: #ffffff; stroke: #ff7f0e; stroke-linecap: round"/>
          <path d="M 463.069756 286.895537 
" clip-path="url(#p02208bce27)" style="fill: none; stroke-dasharray: 3.7,1.6; stroke-dashoffset: 0; stroke: #2ca02c"/>
          <path d="M 462.069756 286.895537 
L 464.069756 287.895537 
L 464.069756 285.895537 
z
" clip-path="url(#p02208bce27)" style="fill: #2ca02c; stroke: #2ca02c; stroke-linejoin: miter"/>
          <g id="patch_10">
           <path d="M 63.290625 321.621875 
L 63.290625 10.8 
" style="fill: none; stroke: #000000; stroke-width: 0.8; stroke-linejoin: miter; stroke-linecap: square"/>
          </g>
          <g id="text_14">
           <g id="patch_11">
            <path d="M 323.006623 146.13157 
L 344.31131 146.13157 
Q 346.31131 146.13157 346.31131 144.13157 
L 346.31131 134.453445 
Q 346.31131 132.453445 344.31131 132.453445 
L 323.006623 132.453445 
Q 321.006623 132.453445 321.006623 134.453445 
L 321.006623 144.13157 
Q 321.006623 146.13157 323.006623 146.13157 
z
" style="fill: #ffffff; opacity: 0.6"/>
           </g>
           <!-- ANC -->
           <g transform="translate(323.006623 142.051883) scale(0.1 -0.1)">
            <defs>
             <path id="DejaVuSans-4e" d="M 628 4666 
L 1478 4666 
L 3547 763 
L 3547 4666 
L 4159 4666 
L 4159 0 
L 3309 0 
L 1241 3903 
L 1241 0 
L 628 0 
L 628 4666 
z
" transform="scale(0.015625)"/>
            </defs>
            <use xlink:href="#DejaVuSans-41"/>
            <use xlink:href="#DejaVuSans-4e" x="68.408203"/>
            <use xlink:href="#DejaVuSans-43" x="143.212891"/>
           </g>
          </g>
         </g>
        </g>
        <defs>
         <clipPath id="p02208bce27">
          <rect x="63.290625" y="10.8" width="540.309375" height="310.821875"/>
         </clipPath>
        </defs>
       </g>
      </g>
     </g>
    </g>
   </g>
  </g>
 </g>
</svg>
