<?xml version="1.0" encoding="utf-8" standalone="no"?>
<!DOCTYPE svg PUBLIC "-//W3C//DTD SVG 1.1//EN"
  "http://www.w3.org/Graphics/SVG/1.1/DTD/svg11.dtd">
<svg xmlns:xlink="http://www.w3.org/1999/xlink" width="614.4pt" height="345.6pt" viewBox="0 0 614.4 345.6" xmlns="http://www.w3.org/2000/svg" version="1.1">
 <metadata>
  <rdf:RDF xmlns:dc="http://purl.org/dc/elements/1.1/" xmlns:cc="http://creativecommons.org/ns#" xmlns:rdf="http://www.w3.org/1999/02/22-rdf-syntax-ns#">
   <cc:Work>
    <dc:type rdf:resource="http://purl.org/dc/dcmitype/StillImage"/>
    <dc:date>2024-04-17T19:48:52.496284</dc:date>
    <dc:format>image/svg+xml</dc:format>
    <dc:creator>
     <cc:Agent>
      <dc:title>Matplotlib v3.7.1, https://matplotlib.org/</dc:title>
     </cc:Agent>
    </dc:creator>
   </cc:Work>
  </rdf:RDF>
 </metadata>
 <defs>
  <style type="text/css">*{stroke-linejoin: round; stroke-linecap: butt}</style>
 </defs>
 <g id="figure_1">
  <g id="patch_1">
   <path d="M 0 345.6 
L 614.4 345.6 
L 614.4 0 
L 0 0 
z
" style="fill: #ffffff"/>
  </g>
  <g id="axes_1">
   <g id="patch_2">
    <path d="M 63.290625 321.621875 
L 603.6 321.621875 
L 603.6 10.8 
L 63.290625 10.8 
z
" style="fill: #ffffff"/>
   </g>
   <path d="M 552.612041 300.810478 
L 551.612041 300.779042 
L 550.612041 300.742102 
L 549.612041 300.644355 
L 548.612041 300.611833 
L 547.612041 300.538209 
L 546.612041 300.499643 
L 545.612041 300.46423 
L 544.612041 300.40659 
L 543.612041 300.336204 
L 542.612041 300.28424 
L 541.612041 300.22515 
L 540.612041 300.136829 
L 539.612041 300.090685 
L 538.612041 300.048274 
L 537.612041 300.017781 
L 536.612041 299.991736 
L 535.612041 299.970536 
L 534.612041 299.916235 
L 533.612041 299.888297 
L 532.612041 299.858573 
L 531.612041 299.833179 
L 530.612041 299.821978 
L 529.612041 299.811854 
L 528.612041 299.812059 
L 527.612041 299.821568 
L 526.612041 299.833222 
L 525.612041 299.864251 
L 524.612041 299.875419 
L 523.612041 299.905537 
L 522.612041 299.965314 
L 521.612041 300.002505 
L 520.612041 300.041601 
L 519.612041 300.084041 
L 518.612041 300.116806 
L 517.612041 300.184232 
L 516.612041 300.223358 
L 515.612041 300.266033 
L 514.612041 300.336614 
L 513.612041 300.373004 
L 512.612041 300.431408 
L 511.612041 300.54236 
L 510.612041 300.613018 
L 509.612041 300.725958 
L 508.612041 300.771731 
L 507.612041 300.833014 
L 506.612041 300.881514 
L 505.612041 300.962336 
L 504.612041 301.080855 
L 503.612041 301.151066 
L 502.612041 301.234328 
L 501.612041 301.26747 
L 500.612041 301.318708 
L 499.612041 301.387106 
L 498.612041 301.453321 
L 497.612041 301.530238 
L 496.612041 301.557554 
L 495.612041 301.584031 
L 494.612041 301.606682 
L 493.612041 301.626213 
L 492.612041 301.652607 
L 491.612041 301.702378 
L 490.612041 301.737451 
L 489.612041 301.773317 
L 488.612041 301.788684 
L 487.612041 301.804453 
L 486.612041 301.807866 
L 485.612041 301.810284 
L 484.612041 301.809798 
L 483.612041 301.807868 
L 482.612041 301.794611 
L 481.612041 301.786221 
L 480.612041 301.764684 
L 479.612041 301.741652 
L 478.612041 301.724418 
L 477.612041 301.705956 
L 476.612041 301.685503 
L 475.612041 301.668903 
L 473.754204 301.606124 
" clip-path="url(#p8133851a1b)" style="fill: none; stroke-dasharray: 3.7,1.6; stroke-dashoffset: 0; stroke: #2ca02c"/>
   <g id="patch_3">
    <path d="M 280.262259 10.8 
L 280.262259 271.141002 
M 386.763755 10.8 
L 386.763755 271.141002 
" clip-path="url(#p8133851a1b)" style="fill: none; stroke: #ffffff; stroke-width: 3; stroke-linejoin: miter"/>
    <path d="M 280.262259 10.8 
L 280.262259 271.141002 
M 386.763755 10.8 
L 386.763755 271.141002 
" clip-path="url(#p8133851a1b)" style="fill: none; stroke: #1f77b4; stroke-linejoin: miter"/>
    <g id="PolyCollection_1">
     <path d="M 386.763755 10.8 
L 280.262259 10.8 
L 280.262259 271.141002 
L 386.763755 271.141002 
L 386.763755 271.141002 
L 386.763755 10.8 
z
" clip-path="url(#p8133851a1b)" style="fill: #1f77b4; fill-opacity: 0.5"/>
    </g>
    <g id="patch_4">
     <path d="M 87.850142 271.141002 
L 87.850142 321.621875 
M 226.65367 271.141002 
L 226.65367 321.621875 
" clip-path="url(#p8133851a1b)" style="fill: none; stroke: #ffffff; stroke-width: 3; stroke-linejoin: miter"/>
     <path d="M 87.850142 271.141002 
L 87.850142 321.621875 
M 226.65367 271.141002 
L 226.65367 321.621875 
" clip-path="url(#p8133851a1b)" style="fill: none; stroke: #ff7f0e; stroke-linejoin: miter"/>
     <g id="PolyCollection_2">
      <path d="M 226.65367 271.141002 
L 87.850142 271.141002 
L 87.850142 321.621875 
L 226.65367 321.621875 
L 226.65367 321.621875 
L 226.65367 271.141002 
z
" clip-path="url(#p8133851a1b)" style="fill: #ff7f0e; fill-opacity: 0.5"/>
     </g>
     <g id="patch_5">
      <path d="M 558.015134 72.964375 
L 558.015134 321.621875 
M 579.040483 72.964375 
L 579.040483 321.621875 
" clip-path="url(#p8133851a1b)" style="fill: none; stroke: #ffffff; stroke-width: 3; stroke-linejoin: miter"/>
      <path d="M 558.015134 72.964375 
L 558.015134 321.621875 
M 579.040483 72.964375 
L 579.040483 321.621875 
" clip-path="url(#p8133851a1b)" style="fill: none; stroke: #2ca02c; stroke-linejoin: miter"/>
      <g id="PolyCollection_3">
       <path d="M 579.040483 72.964375 
L 558.015134 72.964375 
L 558.015134 321.621875 
L 579.040483 321.621875 
L 579.040483 321.621875 
L 579.040483 72.964375 
z
" clip-path="url(#p8133851a1b)" style="fill: #2ca02c; fill-opacity: 0.5"/>
      </g>
      <g id="patch_6">
       <path d="M 433.689706 273.055162 
L 433.689706 321.621875 
M 468.35111 273.055162 
L 468.35111 321.621875 
" clip-path="url(#p8133851a1b)" style="fill: none; stroke: #ffffff; stroke-width: 3; stroke-linejoin: miter"/>
       <path d="M 433.689706 273.055162 
L 433.689706 321.621875 
M 468.35111 273.055162 
L 468.35111 321.621875 
" clip-path="url(#p8133851a1b)" style="fill: none; stroke: #d62728; stroke-linejoin: miter"/>
       <g id="PolyCollection_4">
        <path d="M 468.35111 273.055162 
L 433.689706 273.055162 
L 433.689706 321.621875 
L 468.35111 321.621875 
L 468.35111 321.621875 
L 468.35111 273.055162 
z
" clip-path="url(#p8133851a1b)" style="fill: #d62728; fill-opacity: 0.5"/>
       </g>
       <g id="matplotlib.axis_1">
        <g id="xtick_1">
         <g id="line2d_1"/>
         <g id="text_1">
          <!-- OUT -->
          <g transform="translate(146.602687 332.720312) scale(0.1 -0.1)">
           <defs>
            <path id="DejaVuSans-4f" d="M 2522 4238 
Q 1834 4238 1429 3725 
Q 1025 3213 1025 2328 
Q 1025 1447 1429 934 
Q 1834 422 2522 422 
Q 3209 422 3611 934 
Q 4013 1447 4013 2328 
Q 4013 3213 3611 3725 
Q 3209 4238 2522 4238 
z
M 2522 4750 
Q 3503 4750 4090 4092 
Q 4678 3434 4678 2328 
Q 4678 1225 4090 567 
Q 3503 -91 2522 -91 
Q 1538 -91 948 565 
Q 359 1222 359 2328 
Q 359 3434 948 4092 
Q 1538 4750 2522 4750 
z
" transform="scale(0.015625)"/>
            <path id="DejaVuSans-55" d="M 556 4666 
L 1191 4666 
L 1191 1831 
Q 1191 1081 1462 751 
Q 1734 422 2344 422 
Q 2950 422 3222 751 
Q 3494 1081 3494 1831 
L 3494 4666 
L 4128 4666 
L 4128 1753 
Q 4128 841 3676 375 
Q 3225 -91 2344 -91 
Q 1459 -91 1007 375 
Q 556 841 556 1753 
L 556 4666 
z
" transform="scale(0.015625)"/>
            <path id="DejaVuSans-54" d="M -19 4666 
L 3928 4666 
L 3928 4134 
L 2272 4134 
L 2272 0 
L 1638 0 
L 1638 4134 
L -19 4134 
L -19 4666 
z
" transform="scale(0.015625)"/>
           </defs>
           <use xlink:href="#DejaVuSans-4f"/>
           <use xlink:href="#DejaVuSans-55" x="78.710938"/>
           <use xlink:href="#DejaVuSans-54" x="151.904297"/>
          </g>
         </g>
        </g>
        <g id="xtick_2">
         <g id="line2d_2"/>
         <g id="text_2">
          <!-- SRC -->
          <g transform="translate(558.637965 332.720312) scale(0.1 -0.1)">
           <defs>
            <path id="DejaVuSans-53" d="M 3425 4513 
L 3425 3897 
Q 3066 4069 2747 4153 
Q 2428 4238 2131 4238 
Q 1616 4238 1336 4038 
Q 1056 3838 1056 3469 
Q 1056 3159 1242 3001 
Q 1428 2844 1947 2747 
L 2328 2669 
Q 3034 2534 3370 2195 
Q 3706 1856 3706 1288 
Q 3706 609 3251 259 
Q 2797 -91 1919 -91 
Q 1588 -91 1214 -16 
Q 841 59 441 206 
L 441 856 
Q 825 641 1194 531 
Q 1563 422 1919 422 
Q 2459 422 2753 634 
Q 3047 847 3047 1241 
Q 3047 1584 2836 1778 
Q 2625 1972 2144 2069 
L 1759 2144 
Q 1053 2284 737 2584 
Q 422 2884 422 3419 
Q 422 4038 858 4394 
Q 1294 4750 2059 4750 
Q 2388 4750 2728 4690 
Q 3069 4631 3425 4513 
z
" transform="scale(0.015625)"/>
            <path id="DejaVuSans-52" d="M 2841 2188 
Q 3044 2119 3236 1894 
Q 3428 1669 3622 1275 
L 4263 0 
L 3584 0 
L 2988 1197 
Q 2756 1666 2539 1819 
Q 2322 1972 1947 1972 
L 1259 1972 
L 1259 0 
L 628 0 
L 628 4666 
L 2053 4666 
Q 2853 4666 3247 4331 
Q 3641 3997 3641 3322 
Q 3641 2881 3436 2590 
Q 3231 2300 2841 2188 
z
M 1259 4147 
L 1259 2491 
L 2053 2491 
Q 2509 2491 2742 2702 
Q 2975 2913 2975 3322 
Q 2975 3731 2742 3939 
Q 2509 4147 2053 4147 
L 1259 4147 
z
" transform="scale(0.015625)"/>
            <path id="DejaVuSans-43" d="M 4122 4306 
L 4122 3641 
Q 3803 3938 3442 4084 
Q 3081 4231 2675 4231 
Q 1875 4231 1450 3742 
Q 1025 3253 1025 2328 
Q 1025 1406 1450 917 
Q 1875 428 2675 428 
Q 3081 428 3442 575 
Q 3803 722 4122 1019 
L 4122 359 
Q 3791 134 3420 21 
Q 3050 -91 2638 -91 
Q 1578 -91 968 557 
Q 359 1206 359 2328 
Q 359 3453 968 4101 
Q 1578 4750 2638 4750 
Q 3056 4750 3426 4639 
Q 3797 4528 4122 4306 
z
" transform="scale(0.015625)"/>
           </defs>
           <use xlink:href="#DejaVuSans-53"/>
           <use xlink:href="#DejaVuSans-52" x="63.476562"/>
           <use xlink:href="#DejaVuSans-43" x="127.958984"/>
          </g>
         </g>
        </g>
        <g id="xtick_3">
         <g id="line2d_3"/>
         <g id="text_3">
          <!-- TAR -->
          <g transform="translate(441.45947 332.720312) scale(0.1 -0.1)">
           <defs>
            <path id="DejaVuSans-41" d="M 2188 4044 
L 1331 1722 
L 3047 1722 
L 2188 4044 
z
M 1831 4666 
L 2547 4666 
L 4325 0 
L 3669 0 
L 3244 1197 
L 1141 1197 
L 716 0 
L 50 0 
L 1831 4666 
z
" transform="scale(0.015625)"/>
           </defs>
           <use xlink:href="#DejaVuSans-54"/>
           <use xlink:href="#DejaVuSans-41" x="53.333984"/>
           <use xlink:href="#DejaVuSans-52" x="121.742188"/>
          </g>
         </g>
        </g>
       </g>
       <g id="matplotlib.axis_2">
        <g id="ytick_1">
         <g id="line2d_4">
          <defs>
           <path id="m13389589c5" d="M 0 0 
L -3.5 0 
" style="stroke: #000000; stroke-width: 0.8"/>
          </defs>
          <g>
           <use xlink:href="#m13389589c5" x="63.290625" y="321.621875" style="stroke: #000000; stroke-width: 0.8"/>
          </g>
         </g>
         <g id="text_4">
          <!-- 0 -->
          <g transform="translate(49.928125 325.421094) scale(0.1 -0.1)">
           <defs>
            <path id="DejaVuSans-30" d="M 2034 4250 
Q 1547 4250 1301 3770 
Q 1056 3291 1056 2328 
Q 1056 1369 1301 889 
Q 1547 409 2034 409 
Q 2525 409 2770 889 
Q 3016 1369 3016 2328 
Q 3016 3291 2770 3770 
Q 2525 4250 2034 4250 
z
M 2034 4750 
Q 2819 4750 3233 4129 
Q 3647 3509 3647 2328 
Q 3647 1150 3233 529 
Q 2819 -91 2034 -91 
Q 1250 -91 836 529 
Q 422 1150 422 2328 
Q 422 3509 836 4129 
Q 1250 4750 2034 4750 
z
" transform="scale(0.015625)"/>
           </defs>
           <use xlink:href="#DejaVuSans-30"/>
          </g>
         </g>
        </g>
        <g id="ytick_2">
         <g id="line2d_5">
          <g>
           <use xlink:href="#m13389589c5" x="63.290625" y="280.895071" style="stroke: #000000; stroke-width: 0.8"/>
          </g>
         </g>
         <g id="text_5">
          <!-- 2000 -->
          <g transform="translate(30.840625 284.69429) scale(0.1 -0.1)">
           <defs>
            <path id="DejaVuSans-32" d="M 1228 531 
L 3431 531 
L 3431 0 
L 469 0 
L 469 531 
Q 828 903 1448 1529 
Q 2069 2156 2228 2338 
Q 2531 2678 2651 2914 
Q 2772 3150 2772 3378 
Q 2772 3750 2511 3984 
Q 2250 4219 1831 4219 
Q 1534 4219 1204 4116 
Q 875 4013 500 3803 
L 500 4441 
Q 881 4594 1212 4672 
Q 1544 4750 1819 4750 
Q 2544 4750 2975 4387 
Q 3406 4025 3406 3419 
Q 3406 3131 3298 2873 
Q 3191 2616 2906 2266 
Q 2828 2175 2409 1742 
Q 1991 1309 1228 531 
z
" transform="scale(0.015625)"/>
           </defs>
           <use xlink:href="#DejaVuSans-32"/>
           <use xlink:href="#DejaVuSans-30" x="63.623047"/>
           <use xlink:href="#DejaVuSans-30" x="127.246094"/>
           <use xlink:href="#DejaVuSans-30" x="190.869141"/>
          </g>
         </g>
        </g>
        <g id="ytick_3">
         <g id="line2d_6">
          <g>
           <use xlink:href="#m13389589c5" x="63.290625" y="240.168268" style="stroke: #000000; stroke-width: 0.8"/>
          </g>
         </g>
         <g id="text_6">
          <!-- 4000 -->
          <g transform="translate(30.840625 243.967486) scale(0.1 -0.1)">
           <defs>
            <path id="DejaVuSans-34" d="M 2419 4116 
L 825 1625 
L 2419 1625 
L 2419 4116 
z
M 2253 4666 
L 3047 4666 
L 3047 1625 
L 3713 1625 
L 3713 1100 
L 3047 1100 
L 3047 0 
L 2419 0 
L 2419 1100 
L 313 1100 
L 313 1709 
L 2253 4666 
z
" transform="scale(0.015625)"/>
           </defs>
           <use xlink:href="#DejaVuSans-34"/>
           <use xlink:href="#DejaVuSans-30" x="63.623047"/>
           <use xlink:href="#DejaVuSans-30" x="127.246094"/>
           <use xlink:href="#DejaVuSans-30" x="190.869141"/>
          </g>
         </g>
        </g>
        <g id="ytick_4">
         <g id="line2d_7">
          <g>
           <use xlink:href="#m13389589c5" x="63.290625" y="199.441464" style="stroke: #000000; stroke-width: 0.8"/>
          </g>
         </g>
         <g id="text_7">
          <!-- 6000 -->
          <g transform="translate(30.840625 203.240683) scale(0.1 -0.1)">
           <defs>
            <path id="DejaVuSans-36" d="M 2113 2584 
Q 1688 2584 1439 2293 
Q 1191 2003 1191 1497 
Q 1191 994 1439 701 
Q 1688 409 2113 409 
Q 2538 409 2786 701 
Q 3034 994 3034 1497 
Q 3034 2003 2786 2293 
Q 2538 2584 2113 2584 
z
M 3366 4563 
L 3366 3988 
Q 3128 4100 2886 4159 
Q 2644 4219 2406 4219 
Q 1781 4219 1451 3797 
Q 1122 3375 1075 2522 
Q 1259 2794 1537 2939 
Q 1816 3084 2150 3084 
Q 2853 3084 3261 2657 
Q 3669 2231 3669 1497 
Q 3669 778 3244 343 
Q 2819 -91 2113 -91 
Q 1303 -91 875 529 
Q 447 1150 447 2328 
Q 447 3434 972 4092 
Q 1497 4750 2381 4750 
Q 2619 4750 2861 4703 
Q 3103 4656 3366 4563 
z
" transform="scale(0.015625)"/>
           </defs>
           <use xlink:href="#DejaVuSans-36"/>
           <use xlink:href="#DejaVuSans-30" x="63.623047"/>
           <use xlink:href="#DejaVuSans-30" x="127.246094"/>
           <use xlink:href="#DejaVuSans-30" x="190.869141"/>
          </g>
         </g>
        </g>
        <g id="ytick_5">
         <g id="line2d_8">
          <g>
           <use xlink:href="#m13389589c5" x="63.290625" y="158.71466" style="stroke: #000000; stroke-width: 0.8"/>
          </g>
         </g>
         <g id="text_8">
          <!-- 8000 -->
          <g transform="translate(30.840625 162.513879) scale(0.1 -0.1)">
           <defs>
            <path id="DejaVuSans-38" d="M 2034 2216 
Q 1584 2216 1326 1975 
Q 1069 1734 1069 1313 
Q 1069 891 1326 650 
Q 1584 409 2034 409 
Q 2484 409 2743 651 
Q 3003 894 3003 1313 
Q 3003 1734 2745 1975 
Q 2488 2216 2034 2216 
z
M 1403 2484 
Q 997 2584 770 2862 
Q 544 3141 544 3541 
Q 544 4100 942 4425 
Q 1341 4750 2034 4750 
Q 2731 4750 3128 4425 
Q 3525 4100 3525 3541 
Q 3525 3141 3298 2862 
Q 3072 2584 2669 2484 
Q 3125 2378 3379 2068 
Q 3634 1759 3634 1313 
Q 3634 634 3220 271 
Q 2806 -91 2034 -91 
Q 1263 -91 848 271 
Q 434 634 434 1313 
Q 434 1759 690 2068 
Q 947 2378 1403 2484 
z
M 1172 3481 
Q 1172 3119 1398 2916 
Q 1625 2713 2034 2713 
Q 2441 2713 2670 2916 
Q 2900 3119 2900 3481 
Q 2900 3844 2670 4047 
Q 2441 4250 2034 4250 
Q 1625 4250 1398 4047 
Q 1172 3844 1172 3481 
z
" transform="scale(0.015625)"/>
           </defs>
           <use xlink:href="#DejaVuSans-38"/>
           <use xlink:href="#DejaVuSans-30" x="63.623047"/>
           <use xlink:href="#DejaVuSans-30" x="127.246094"/>
           <use xlink:href="#DejaVuSans-30" x="190.869141"/>
          </g>
         </g>
        </g>
        <g id="ytick_6">
         <g id="line2d_9">
          <g>
           <use xlink:href="#m13389589c5" x="63.290625" y="117.987856" style="stroke: #000000; stroke-width: 0.8"/>
          </g>
         </g>
         <g id="text_9">
          <!-- 10000 -->
          <g transform="translate(24.478125 121.787075) scale(0.1 -0.1)">
           <defs>
            <path id="DejaVuSans-31" d="M 794 531 
L 1825 531 
L 1825 4091 
L 703 3866 
L 703 4441 
L 1819 4666 
L 2450 4666 
L 2450 531 
L 3481 531 
L 3481 0 
L 794 0 
L 794 531 
z
" transform="scale(0.015625)"/>
           </defs>
           <use xlink:href="#DejaVuSans-31"/>
           <use xlink:href="#DejaVuSans-30" x="63.623047"/>
           <use xlink:href="#DejaVuSans-30" x="127.246094"/>
           <use xlink:href="#DejaVuSans-30" x="190.869141"/>
           <use xlink:href="#DejaVuSans-30" x="254.492188"/>
          </g>
         </g>
        </g>
        <g id="ytick_7">
         <g id="line2d_10">
          <g>
           <use xlink:href="#m13389589c5" x="63.290625" y="77.261053" style="stroke: #000000; stroke-width: 0.8"/>
          </g>
         </g>
         <g id="text_10">
          <!-- 12000 -->
          <g transform="translate(24.478125 81.060272) scale(0.1 -0.1)">
           <use xlink:href="#DejaVuSans-31"/>
           <use xlink:href="#DejaVuSans-32" x="63.623047"/>
           <use xlink:href="#DejaVuSans-30" x="127.246094"/>
           <use xlink:href="#DejaVuSans-30" x="190.869141"/>
           <use xlink:href="#DejaVuSans-30" x="254.492188"/>
          </g>
         </g>
        </g>
        <g id="ytick_8">
         <g id="line2d_11">
          <g>
           <use xlink:href="#m13389589c5" x="63.290625" y="36.534249" style="stroke: #000000; stroke-width: 0.8"/>
          </g>
         </g>
         <g id="text_11">
          <!-- 14000 -->
          <g transform="translate(24.478125 40.333468) scale(0.1 -0.1)">
           <use xlink:href="#DejaVuSans-31"/>
           <use xlink:href="#DejaVuSans-34" x="63.623047"/>
           <use xlink:href="#DejaVuSans-30" x="127.246094"/>
           <use xlink:href="#DejaVuSans-30" x="190.869141"/>
           <use xlink:href="#DejaVuSans-30" x="254.492188"/>
          </g>
         </g>
        </g>
        <g id="text_12">
         <!-- time ago (generations) -->
         <g transform="translate(18.398438 223.682031) rotate(-90) scale(0.1 -0.1)">
          <defs>
           <path id="DejaVuSans-74" d="M 1172 4494 
L 1172 3500 
L 2356 3500 
L 2356 3053 
L 1172 3053 
L 1172 1153 
Q 1172 725 1289 603 
Q 1406 481 1766 481 
L 2356 481 
L 2356 0 
L 1766 0 
Q 1100 0 847 248 
Q 594 497 594 1153 
L 594 3053 
L 172 3053 
L 172 3500 
L 594 3500 
L 594 4494 
L 1172 4494 
z
" transform="scale(0.015625)"/>
           <path id="DejaVuSans-69" d="M 603 3500 
L 1178 3500 
L 1178 0 
L 603 0 
L 603 3500 
z
M 603 4863 
L 1178 4863 
L 1178 4134 
L 603 4134 
L 603 4863 
z
" transform="scale(0.015625)"/>
           <path id="DejaVuSans-6d" d="M 3328 2828 
Q 3544 3216 3844 3400 
Q 4144 3584 4550 3584 
Q 5097 3584 5394 3201 
Q 5691 2819 5691 2113 
L 5691 0 
L 5113 0 
L 5113 2094 
Q 5113 2597 4934 2840 
Q 4756 3084 4391 3084 
Q 3944 3084 3684 2787 
Q 3425 2491 3425 1978 
L 3425 0 
L 2847 0 
L 2847 2094 
Q 2847 2600 2669 2842 
Q 2491 3084 2119 3084 
Q 1678 3084 1418 2786 
Q 1159 2488 1159 1978 
L 1159 0 
L 581 0 
L 581 3500 
L 1159 3500 
L 1159 2956 
Q 1356 3278 1631 3431 
Q 1906 3584 2284 3584 
Q 2666 3584 2933 3390 
Q 3200 3197 3328 2828 
z
" transform="scale(0.015625)"/>
           <path id="DejaVuSans-65" d="M 3597 1894 
L 3597 1613 
L 953 1613 
Q 991 1019 1311 708 
Q 1631 397 2203 397 
Q 2534 397 2845 478 
Q 3156 559 3463 722 
L 3463 178 
Q 3153 47 2828 -22 
Q 2503 -91 2169 -91 
Q 1331 -91 842 396 
Q 353 884 353 1716 
Q 353 2575 817 3079 
Q 1281 3584 2069 3584 
Q 2775 3584 3186 3129 
Q 3597 2675 3597 1894 
z
M 3022 2063 
Q 3016 2534 2758 2815 
Q 2500 3097 2075 3097 
Q 1594 3097 1305 2825 
Q 1016 2553 972 2059 
L 3022 2063 
z
" transform="scale(0.015625)"/>
           <path id="DejaVuSans-20" transform="scale(0.015625)"/>
           <path id="DejaVuSans-61" d="M 2194 1759 
Q 1497 1759 1228 1600 
Q 959 1441 959 1056 
Q 959 750 1161 570 
Q 1363 391 1709 391 
Q 2188 391 2477 730 
Q 2766 1069 2766 1631 
L 2766 1759 
L 2194 1759 
z
M 3341 1997 
L 3341 0 
L 2766 0 
L 2766 531 
Q 2569 213 2275 61 
Q 1981 -91 1556 -91 
Q 1019 -91 701 211 
Q 384 513 384 1019 
Q 384 1609 779 1909 
Q 1175 2209 1959 2209 
L 2766 2209 
L 2766 2266 
Q 2766 2663 2505 2880 
Q 2244 3097 1772 3097 
Q 1472 3097 1187 3025 
Q 903 2953 641 2809 
L 641 3341 
Q 956 3463 1253 3523 
Q 1550 3584 1831 3584 
Q 2591 3584 2966 3190 
Q 3341 2797 3341 1997 
z
" transform="scale(0.015625)"/>
           <path id="DejaVuSans-67" d="M 2906 1791 
Q 2906 2416 2648 2759 
Q 2391 3103 1925 3103 
Q 1463 3103 1205 2759 
Q 947 2416 947 1791 
Q 947 1169 1205 825 
Q 1463 481 1925 481 
Q 2391 481 2648 825 
Q 2906 1169 2906 1791 
z
M 3481 434 
Q 3481 -459 3084 -895 
Q 2688 -1331 1869 -1331 
Q 1566 -1331 1297 -1286 
Q 1028 -1241 775 -1147 
L 775 -588 
Q 1028 -725 1275 -790 
Q 1522 -856 1778 -856 
Q 2344 -856 2625 -561 
Q 2906 -266 2906 331 
L 2906 616 
Q 2728 306 2450 153 
Q 2172 0 1784 0 
Q 1141 0 747 490 
Q 353 981 353 1791 
Q 353 2603 747 3093 
Q 1141 3584 1784 3584 
Q 2172 3584 2450 3431 
Q 2728 3278 2906 2969 
L 2906 3500 
L 3481 3500 
L 3481 434 
z
" transform="scale(0.015625)"/>
           <path id="DejaVuSans-6f" d="M 1959 3097 
Q 1497 3097 1228 2736 
Q 959 2375 959 1747 
Q 959 1119 1226 758 
Q 1494 397 1959 397 
Q 2419 397 2687 759 
Q 2956 1122 2956 1747 
Q 2956 2369 2687 2733 
Q 2419 3097 1959 3097 
z
M 1959 3584 
Q 2709 3584 3137 3096 
Q 3566 2609 3566 1747 
Q 3566 888 3137 398 
Q 2709 -91 1959 -91 
Q 1206 -91 779 398 
Q 353 888 353 1747 
Q 353 2609 779 3096 
Q 1206 3584 1959 3584 
z
" transform="scale(0.015625)"/>
           <path id="DejaVuSans-28" d="M 1984 4856 
Q 1566 4138 1362 3434 
Q 1159 2731 1159 2009 
Q 1159 1288 1364 580 
Q 1569 -128 1984 -844 
L 1484 -844 
Q 1016 -109 783 600 
Q 550 1309 550 2009 
Q 550 2706 781 3412 
Q 1013 4119 1484 4856 
L 1984 4856 
z
" transform="scale(0.015625)"/>
           <path id="DejaVuSans-6e" d="M 3513 2113 
L 3513 0 
L 2938 0 
L 2938 2094 
Q 2938 2591 2744 2837 
Q 2550 3084 2163 3084 
Q 1697 3084 1428 2787 
Q 1159 2491 1159 1978 
L 1159 0 
L 581 0 
L 581 3500 
L 1159 3500 
L 1159 2956 
Q 1366 3272 1645 3428 
Q 1925 3584 2291 3584 
Q 2894 3584 3203 3211 
Q 3513 2838 3513 2113 
z
" transform="scale(0.015625)"/>
           <path id="DejaVuSans-72" d="M 2631 2963 
Q 2534 3019 2420 3045 
Q 2306 3072 2169 3072 
Q 1681 3072 1420 2755 
Q 1159 2438 1159 1844 
L 1159 0 
L 581 0 
L 581 3500 
L 1159 3500 
L 1159 2956 
Q 1341 3275 1631 3429 
Q 1922 3584 2338 3584 
Q 2397 3584 2469 3576 
Q 2541 3569 2628 3553 
L 2631 2963 
z
" transform="scale(0.015625)"/>
           <path id="DejaVuSans-73" d="M 2834 3397 
L 2834 2853 
Q 2591 2978 2328 3040 
Q 2066 3103 1784 3103 
Q 1356 3103 1142 2972 
Q 928 2841 928 2578 
Q 928 2378 1081 2264 
Q 1234 2150 1697 2047 
L 1894 2003 
Q 2506 1872 2764 1633 
Q 3022 1394 3022 966 
Q 3022 478 2636 193 
Q 2250 -91 1575 -91 
Q 1294 -91 989 -36 
Q 684 19 347 128 
L 347 722 
Q 666 556 975 473 
Q 1284 391 1588 391 
Q 1994 391 2212 530 
Q 2431 669 2431 922 
Q 2431 1156 2273 1281 
Q 2116 1406 1581 1522 
L 1381 1569 
Q 847 1681 609 1914 
Q 372 2147 372 2553 
Q 372 3047 722 3315 
Q 1072 3584 1716 3584 
Q 2034 3584 2315 3537 
Q 2597 3491 2834 3397 
z
" transform="scale(0.015625)"/>
           <path id="DejaVuSans-29" d="M 513 4856 
L 1013 4856 
Q 1481 4119 1714 3412 
Q 1947 2706 1947 2009 
Q 1947 1309 1714 600 
Q 1481 -109 1013 -844 
L 513 -844 
Q 928 -128 1133 580 
Q 1338 1288 1338 2009 
Q 1338 2731 1133 3434 
Q 928 4138 513 4856 
z
" transform="scale(0.015625)"/>
          </defs>
          <use xlink:href="#DejaVuSans-74"/>
          <use xlink:href="#DejaVuSans-69" x="39.208984"/>
          <use xlink:href="#DejaVuSans-6d" x="66.992188"/>
          <use xlink:href="#DejaVuSans-65" x="164.404297"/>
          <use xlink:href="#DejaVuSans-20" x="225.927734"/>
          <use xlink:href="#DejaVuSans-61" x="257.714844"/>
          <use xlink:href="#DejaVuSans-67" x="318.994141"/>
          <use xlink:href="#DejaVuSans-6f" x="382.470703"/>
          <use xlink:href="#DejaVuSans-20" x="443.652344"/>
          <use xlink:href="#DejaVuSans-28" x="475.439453"/>
          <use xlink:href="#DejaVuSans-67" x="514.453125"/>
          <use xlink:href="#DejaVuSans-65" x="577.929688"/>
          <use xlink:href="#DejaVuSans-6e" x="639.453125"/>
          <use xlink:href="#DejaVuSans-65" x="702.832031"/>
          <use xlink:href="#DejaVuSans-72" x="764.355469"/>
          <use xlink:href="#DejaVuSans-61" x="805.46875"/>
          <use xlink:href="#DejaVuSans-74" x="866.748047"/>
          <use xlink:href="#DejaVuSans-69" x="905.957031"/>
          <use xlink:href="#DejaVuSans-6f" x="933.740234"/>
          <use xlink:href="#DejaVuSans-6e" x="994.921875"/>
          <use xlink:href="#DejaVuSans-73" x="1058.300781"/>
          <use xlink:href="#DejaVuSans-29" x="1110.400391"/>
         </g>
        </g>
       </g>
       <g id="patch_7">
        <path d="M 278.263062 271.141002 
L 277.263062 271.109565 
L 276.263062 271.072625 
L 275.263062 270.974878 
L 274.263062 270.942357 
L 273.263062 270.868732 
L 272.263062 270.830167 
L 271.263062 270.794753 
L 270.263062 270.737113 
L 269.263062 270.666727 
L 268.263062 270.614763 
L 267.263062 270.555673 
L 266.263062 270.467352 
L 265.263062 270.421208 
L 264.263062 270.378797 
L 263.263062 270.348304 
L 262.263062 270.32226 
L 261.263062 270.301059 
L 260.263062 270.246758 
L 259.263062 270.218821 
L 258.263062 270.189097 
L 257.263062 270.163702 
L 256.263062 270.152502 
L 255.263062 270.142378 
L 254.263062 270.142582 
L 253.263062 270.152092 
L 252.263062 270.163745 
L 251.263062 270.194775 
L 250.263062 270.205943 
L 249.263062 270.23606 
L 248.263062 270.295837 
L 247.263062 270.333029 
L 246.263062 270.372125 
L 245.263062 270.414564 
L 244.263062 270.447329 
L 243.263062 270.514756 
L 242.263062 270.553882 
L 241.263062 270.596556 
L 240.263062 270.667137 
L 239.263062 270.703528 
L 238.263062 270.761931 
L 237.263062 270.872884 
L 236.263062 270.943542 
L 235.263062 271.056482 
L 234.263062 271.102255 
L 233.263062 271.163538 
L 232.263062 271.212037 
L 231.263062 271.29286 
L 229.771946 271.411379 
" clip-path="url(#p8133851a1b)" style="fill: none; stroke: #ffffff; stroke-width: 3; stroke-linecap: round"/>
        <path d="M 278.263062 271.141002 
L 277.263062 271.109565 
L 276.263062 271.072625 
L 275.263062 270.974878 
L 274.263062 270.942357 
L 273.263062 270.868732 
L 272.263062 270.830167 
L 271.263062 270.794753 
L 270.263062 270.737113 
L 269.263062 270.666727 
L 268.263062 270.614763 
L 267.263062 270.555673 
L 266.263062 270.467352 
L 265.263062 270.421208 
L 264.263062 270.378797 
L 263.263062 270.348304 
L 262.263062 270.32226 
L 261.263062 270.301059 
L 260.263062 270.246758 
L 259.263062 270.218821 
L 258.263062 270.189097 
L 257.263062 270.163702 
L 256.263062 270.152502 
L 255.263062 270.142378 
L 254.263062 270.142582 
L 253.263062 270.152092 
L 252.263062 270.163745 
L 251.263062 270.194775 
L 250.263062 270.205943 
L 249.263062 270.23606 
L 248.263062 270.295837 
L 247.263062 270.333029 
L 246.263062 270.372125 
L 245.263062 270.414564 
L 244.263062 270.447329 
L 243.263062 270.514756 
L 242.263062 270.553882 
L 241.263062 270.596556 
L 240.263062 270.667137 
L 239.263062 270.703528 
L 238.263062 270.761931 
L 237.263062 270.872884 
L 236.263062 270.943542 
L 235.263062 271.056482 
L 234.263062 271.102255 
L 233.263062 271.163538 
L 232.263062 271.212037 
L 231.263062 271.29286 
L 229.771946 271.411379 
" clip-path="url(#p8133851a1b)" style="fill: none; stroke: #1f77b4; stroke-linecap: round"/>
        <path d="M 233.771946 273.141002 
L 232.891577 272.665671 
L 232.01367 272.185417 
L 231.162957 271.650776 
L 229.860782 270.963328 
L 230.788136 270.937314 
L 231.69981 270.524594 
L 232.610074 270.109055 
L 233.95257 269.502251 
L 233.297671 270.141002 
L 233.245707 271.141002 
L 233.186617 273.141002 
z
" clip-path="url(#p8133851a1b)" style="fill: #ffffff; stroke: #ffffff; stroke-width: 3; stroke-linecap: round"/>
        <path d="M 233.771946 273.141002 
L 232.891577 272.665671 
L 232.01367 272.185417 
L 231.162957 271.650776 
L 229.860782 270.963328 
L 230.788136 270.937314 
L 231.69981 270.524594 
L 232.610074 270.109055 
L 233.95257 269.502251 
L 233.297671 270.141002 
L 233.245707 271.141002 
L 233.186617 273.141002 
z
" clip-path="url(#p8133851a1b)" style="fill: #ffffff; stroke: #1f77b4; stroke-linecap: round"/>
        <g id="patch_8">
         <path d="M 388.762768 72.964375 
L 389.762768 72.995811 
L 390.762768 73.032752 
L 391.762768 73.130498 
L 392.762768 73.16302 
L 393.762768 73.236645 
L 394.762768 73.27521 
L 395.762768 73.310623 
L 396.762768 73.368263 
L 397.762768 73.438649 
L 398.762768 73.490614 
L 399.762768 73.549703 
L 400.762768 73.638024 
L 401.762768 73.684169 
L 402.762768 73.72658 
L 403.762768 73.757072 
L 404.762768 73.783117 
L 405.762768 73.804317 
L 406.762768 73.858618 
L 407.762768 73.886556 
L 408.762768 73.91628 
L 409.762768 73.941675 
L 410.762768 73.952875 
L 411.762768 73.962999 
L 412.762768 73.962795 
L 413.762768 73.953285 
L 414.762768 73.941631 
L 415.762768 73.910602 
L 416.762768 73.899434 
L 417.762768 73.869317 
L 418.762768 73.80954 
L 419.762768 73.772348 
L 420.762768 73.733252 
L 421.762768 73.690812 
L 422.762768 73.658047 
L 423.762768 73.590621 
L 424.762768 73.551495 
L 425.762768 73.50882 
L 426.762768 73.43824 
L 427.762768 73.401849 
L 428.762768 73.343446 
L 429.762768 73.232493 
L 430.762768 73.161835 
L 431.762768 73.048895 
L 432.762768 73.003122 
L 433.762768 72.941839 
L 434.762768 72.89334 
L 435.762768 72.812517 
L 436.762768 72.693998 
L 437.762768 72.623787 
L 438.762768 72.540525 
L 439.762768 72.507383 
L 440.762768 72.456146 
L 441.762768 72.387747 
L 442.762768 72.321532 
L 443.762768 72.244615 
L 444.762768 72.217299 
L 445.762768 72.190822 
L 446.762768 72.168171 
L 447.762768 72.14864 
L 448.762768 72.122246 
L 449.762768 72.072475 
L 450.762768 72.037402 
L 451.762768 72.001536 
L 452.762768 71.986169 
L 453.762768 71.9704 
L 454.762768 71.966987 
L 455.762768 71.96457 
L 456.762768 71.965056 
L 457.762768 71.966985 
L 458.762768 71.980242 
L 459.762768 71.988633 
L 460.762768 72.010169 
L 461.762768 72.033202 
L 462.762768 72.050435 
L 463.762768 72.068898 
L 464.762768 72.08935 
L 465.762768 72.10595 
L 466.762768 72.168729 
L 467.762768 72.243994 
L 468.762768 72.276633 
L 469.762768 72.344197 
L 470.762768 72.398244 
L 471.762768 72.431948 
L 472.762768 72.522074 
L 473.762768 72.550609 
L 474.762768 72.582095 
L 475.762768 72.613106 
L 476.762768 72.667914 
L 477.762768 72.732501 
L 478.762768 72.770697 
L 479.762768 72.866631 
L 480.762768 72.915889 
L 481.762768 72.959958 
L 482.762768 73.000082 
L 483.762768 73.108449 
L 484.762768 73.150077 
L 485.762768 73.212219 
L 486.762768 73.282181 
L 487.762768 73.386685 
L 488.762768 73.423673 
L 489.762768 73.46955 
L 490.762768 73.538045 
L 491.762768 73.586791 
L 492.762768 73.664388 
L 493.762768 73.694929 
L 494.762768 73.764443 
L 495.762768 73.788416 
L 496.762768 73.817038 
L 497.762768 73.858831 
L 498.762768 73.880407 
L 499.762768 73.894355 
L 500.762768 73.921077 
L 501.762768 73.930387 
L 502.762768 73.942834 
L 503.762768 73.953889 
L 504.762768 73.959553 
L 505.762768 73.964317 
L 506.762768 73.958769 
L 507.762768 73.945481 
L 508.762768 73.937964 
L 509.762768 73.913179 
L 510.762768 73.88961 
L 511.762768 73.85343 
L 512.762768 73.827468 
L 513.762768 73.805146 
L 514.762768 73.736386 
L 515.762768 73.661851 
L 516.762768 73.567872 
L 517.762768 73.51682 
L 518.762768 73.462886 
L 519.762768 73.427635 
L 520.762768 73.321547 
L 521.762768 73.269283 
L 522.762768 73.232376 
L 523.762768 73.201345 
L 524.762768 73.14019 
L 525.762768 73.07277 
L 526.762768 73.023864 
L 527.762768 72.958672 
L 528.762768 72.920484 
L 529.762768 72.878488 
L 530.762768 72.836471 
L 531.762768 72.776955 
L 532.762768 72.663795 
L 533.762768 72.611544 
L 534.762768 72.572126 
L 535.762768 72.525025 
L 536.762768 72.468245 
L 537.762768 72.435582 
L 538.762768 72.399404 
L 539.762768 72.367314 
L 540.762768 72.333034 
L 541.762768 72.274656 
L 542.762768 72.229471 
L 543.762768 72.199847 
L 544.762768 72.149461 
L 545.762768 72.124264 
L 546.762768 72.103213 
L 547.762768 72.068245 
L 548.762768 72.043955 
L 549.762768 72.029888 
L 550.762768 72.010946 
L 551.762768 71.995285 
L 552.762768 71.982733 
L 553.762768 71.976897 
L 554.895596 71.970015 
" clip-path="url(#p8133851a1b)" style="fill: none; stroke: #ffffff; stroke-width: 3; stroke-linecap: round"/>
         <path d="M 388.762768 72.964375 
L 389.762768 72.995811 
L 390.762768 73.032752 
L 391.762768 73.130498 
L 392.762768 73.16302 
L 393.762768 73.236645 
L 394.762768 73.27521 
L 395.762768 73.310623 
L 396.762768 73.368263 
L 397.762768 73.438649 
L 398.762768 73.490614 
L 399.762768 73.549703 
L 400.762768 73.638024 
L 401.762768 73.684169 
L 402.762768 73.72658 
L 403.762768 73.757072 
L 404.762768 73.783117 
L 405.762768 73.804317 
L 406.762768 73.858618 
L 407.762768 73.886556 
L 408.762768 73.91628 
L 409.762768 73.941675 
L 410.762768 73.952875 
L 411.762768 73.962999 
L 412.762768 73.962795 
L 413.762768 73.953285 
L 414.762768 73.941631 
L 415.762768 73.910602 
L 416.762768 73.899434 
L 417.762768 73.869317 
L 418.762768 73.80954 
L 419.762768 73.772348 
L 420.762768 73.733252 
L 421.762768 73.690812 
L 422.762768 73.658047 
L 423.762768 73.590621 
L 424.762768 73.551495 
L 425.762768 73.50882 
L 426.762768 73.43824 
L 427.762768 73.401849 
L 428.762768 73.343446 
L 429.762768 73.232493 
L 430.762768 73.161835 
L 431.762768 73.048895 
L 432.762768 73.003122 
L 433.762768 72.941839 
L 434.762768 72.89334 
L 435.762768 72.812517 
L 436.762768 72.693998 
L 437.762768 72.623787 
L 438.762768 72.540525 
L 439.762768 72.507383 
L 440.762768 72.456146 
L 441.762768 72.387747 
L 442.762768 72.321532 
L 443.762768 72.244615 
L 444.762768 72.217299 
L 445.762768 72.190822 
L 446.762768 72.168171 
L 447.762768 72.14864 
L 448.762768 72.122246 
L 449.762768 72.072475 
L 450.762768 72.037402 
L 451.762768 72.001536 
L 452.762768 71.986169 
L 453.762768 71.9704 
L 454.762768 71.966987 
L 455.762768 71.96457 
L 456.762768 71.965056 
L 457.762768 71.966985 
L 458.762768 71.980242 
L 459.762768 71.988633 
L 460.762768 72.010169 
L 461.762768 72.033202 
L 462.762768 72.050435 
L 463.762768 72.068898 
L 464.762768 72.08935 
L 465.762768 72.10595 
L 466.762768 72.168729 
L 467.762768 72.243994 
L 468.762768 72.276633 
L 469.762768 72.344197 
L 470.762768 72.398244 
L 471.762768 72.431948 
L 472.762768 72.522074 
L 473.762768 72.550609 
L 474.762768 72.582095 
L 475.762768 72.613106 
L 476.762768 72.667914 
L 477.762768 72.732501 
L 478.762768 72.770697 
L 479.762768 72.866631 
L 480.762768 72.915889 
L 481.762768 72.959958 
L 482.762768 73.000082 
L 483.762768 73.108449 
L 484.762768 73.150077 
L 485.762768 73.212219 
L 486.762768 73.282181 
L 487.762768 73.386685 
L 488.762768 73.423673 
L 489.762768 73.46955 
L 490.762768 73.538045 
L 491.762768 73.586791 
L 492.762768 73.664388 
L 493.762768 73.694929 
L 494.762768 73.764443 
L 495.762768 73.788416 
L 496.762768 73.817038 
L 497.762768 73.858831 
L 498.762768 73.880407 
L 499.762768 73.894355 
L 500.762768 73.921077 
L 501.762768 73.930387 
L 502.762768 73.942834 
L 503.762768 73.953889 
L 504.762768 73.959553 
L 505.762768 73.964317 
L 506.762768 73.958769 
L 507.762768 73.945481 
L 508.762768 73.937964 
L 509.762768 73.913179 
L 510.762768 73.88961 
L 511.762768 73.85343 
L 512.762768 73.827468 
L 513.762768 73.805146 
L 514.762768 73.736386 
L 515.762768 73.661851 
L 516.762768 73.567872 
L 517.762768 73.51682 
L 518.762768 73.462886 
L 519.762768 73.427635 
L 520.762768 73.321547 
L 521.762768 73.269283 
L 522.762768 73.232376 
L 523.762768 73.201345 
L 524.762768 73.14019 
L 525.762768 73.07277 
L 526.762768 73.023864 
L 527.762768 72.958672 
L 528.762768 72.920484 
L 529.762768 72.878488 
L 530.762768 72.836471 
L 531.762768 72.776955 
L 532.762768 72.663795 
L 533.762768 72.611544 
L 534.762768 72.572126 
L 535.762768 72.525025 
L 536.762768 72.468245 
L 537.762768 72.435582 
L 538.762768 72.399404 
L 539.762768 72.367314 
L 540.762768 72.333034 
L 541.762768 72.274656 
L 542.762768 72.229471 
L 543.762768 72.199847 
L 544.762768 72.149461 
L 545.762768 72.124264 
L 546.762768 72.103213 
L 547.762768 72.068245 
L 548.762768 72.043955 
L 549.762768 72.029888 
L 550.762768 72.010946 
L 551.762768 71.995285 
L 552.762768 71.982733 
L 553.762768 71.976897 
L 554.895596 71.970015 
" clip-path="url(#p8133851a1b)" style="fill: none; stroke: #1f77b4; stroke-linecap: round"/>
         <path d="M 550.895596 70.964375 
L 551.775964 71.439706 
L 552.653871 71.91996 
L 553.504585 72.454601 
L 554.806759 73.142048 
L 553.879406 73.168063 
L 552.967732 73.580783 
L 552.057467 73.996322 
L 550.714972 74.603126 
L 551.369871 73.964375 
L 551.421835 72.964375 
L 551.480925 70.964375 
z
" clip-path="url(#p8133851a1b)" style="fill: #ffffff; stroke: #ffffff; stroke-width: 3; stroke-linecap: round"/>
         <path d="M 550.895596 70.964375 
L 551.775964 71.439706 
L 552.653871 71.91996 
L 553.504585 72.454601 
L 554.806759 73.142048 
L 553.879406 73.168063 
L 552.967732 73.580783 
L 552.057467 73.996322 
L 550.714972 74.603126 
L 551.369871 73.964375 
L 551.421835 72.964375 
L 551.480925 70.964375 
z
" clip-path="url(#p8133851a1b)" style="fill: #ffffff; stroke: #1f77b4; stroke-linecap: round"/>
         <g id="patch_9">
          <path d="M 228.653392 273.055162 
L 229.653392 273.086598 
L 230.653392 273.123538 
L 231.653392 273.221285 
L 232.653392 273.253806 
L 233.653392 273.327431 
L 234.653392 273.365997 
L 235.653392 273.40141 
L 236.653392 273.45905 
L 237.653392 273.529436 
L 238.653392 273.5814 
L 239.653392 273.64049 
L 240.653392 273.728811 
L 241.653392 273.774955 
L 242.653392 273.817366 
L 243.653392 273.847859 
L 244.653392 273.873904 
L 245.653392 273.895104 
L 246.653392 273.949405 
L 247.653392 273.977343 
L 248.653392 274.007067 
L 249.653392 274.032461 
L 250.653392 274.043662 
L 251.653392 274.053786 
L 252.653392 274.053581 
L 253.653392 274.044072 
L 254.653392 274.032418 
L 255.653392 274.001389 
L 256.653392 273.990221 
L 257.653392 273.960103 
L 258.653392 273.900326 
L 259.653392 273.863135 
L 260.653392 273.824039 
L 261.653392 273.781599 
L 262.653392 273.748834 
L 263.653392 273.681407 
L 264.653392 273.642282 
L 265.653392 273.599607 
L 266.653392 273.529026 
L 267.653392 273.492636 
L 268.653392 273.434232 
L 269.653392 273.32328 
L 270.653392 273.252621 
L 271.653392 273.139682 
L 272.653392 273.093909 
L 273.653392 273.032626 
L 274.653392 272.984126 
L 275.653392 272.903304 
L 276.653392 272.784785 
L 277.653392 272.714574 
L 278.653392 272.631311 
L 279.653392 272.59817 
L 280.653392 272.546932 
L 281.653392 272.478534 
L 282.653392 272.412319 
L 283.653392 272.335402 
L 284.653392 272.308086 
L 285.653392 272.281609 
L 286.653392 272.258958 
L 287.653392 272.239427 
L 288.653392 272.213033 
L 289.653392 272.163262 
L 290.653392 272.128189 
L 291.653392 272.092323 
L 292.653392 272.076956 
L 293.653392 272.061186 
L 294.653392 272.057774 
L 295.653392 272.055356 
L 296.653392 272.055842 
L 297.653392 272.057772 
L 298.653392 272.071029 
L 299.653392 272.079419 
L 300.653392 272.100956 
L 301.653392 272.123988 
L 302.653392 272.141222 
L 303.653392 272.159684 
L 304.653392 272.180137 
L 305.653392 272.196737 
L 306.653392 272.259515 
L 307.653392 272.33478 
L 308.653392 272.36742 
L 309.653392 272.434983 
L 310.653392 272.48903 
L 311.653392 272.522735 
L 312.653392 272.612861 
L 313.653392 272.641396 
L 314.653392 272.672882 
L 315.653392 272.703893 
L 316.653392 272.7587 
L 317.653392 272.823288 
L 318.653392 272.861483 
L 319.653392 272.957417 
L 320.653392 273.006675 
L 321.653392 273.050745 
L 322.653392 273.090869 
L 323.653392 273.199236 
L 324.653392 273.240864 
L 325.653392 273.303005 
L 326.653392 273.372968 
L 327.653392 273.477472 
L 328.653392 273.514459 
L 329.653392 273.560337 
L 330.653392 273.628831 
L 331.653392 273.677577 
L 332.653392 273.755175 
L 333.653392 273.785715 
L 334.653392 273.85523 
L 335.653392 273.879203 
L 336.653392 273.907824 
L 337.653392 273.949618 
L 338.653392 273.971193 
L 339.653392 273.985141 
L 340.653392 274.011864 
L 341.653392 274.021174 
L 342.653392 274.03362 
L 343.653392 274.044675 
L 344.653392 274.05034 
L 345.653392 274.055104 
L 346.653392 274.049556 
L 347.653392 274.036268 
L 348.653392 274.02875 
L 349.653392 274.003966 
L 350.653392 273.980397 
L 351.653392 273.944216 
L 352.653392 273.918254 
L 353.653392 273.895933 
L 354.653392 273.827173 
L 355.653392 273.752638 
L 356.653392 273.658658 
L 357.653392 273.607606 
L 358.653392 273.553673 
L 359.653392 273.518422 
L 360.653392 273.412334 
L 361.653392 273.36007 
L 362.653392 273.323163 
L 363.653392 273.292132 
L 364.653392 273.230977 
L 365.653392 273.163557 
L 366.653392 273.114651 
L 367.653392 273.049458 
L 368.653392 273.011271 
L 369.653392 272.969275 
L 370.653392 272.927258 
L 371.653392 272.867741 
L 372.653392 272.754581 
L 373.653392 272.702331 
L 374.653392 272.662913 
L 375.653392 272.615811 
L 376.653392 272.559032 
L 377.653392 272.526369 
L 378.653392 272.490191 
L 379.653392 272.4581 
L 380.653392 272.423821 
L 381.653392 272.365443 
L 382.653392 272.320258 
L 383.653392 272.290634 
L 384.653392 272.240248 
L 385.653392 272.21505 
L 386.653392 272.193999 
L 387.653392 272.159032 
L 388.653392 272.134742 
L 389.653392 272.120675 
L 390.653392 272.101733 
L 391.653392 272.086071 
L 392.653392 272.073519 
L 393.653392 272.067684 
L 394.653392 272.060801 
L 395.653392 272.055628 
L 396.653392 272.05741 
L 397.653392 272.060136 
L 398.653392 272.071289 
L 399.653392 272.099525 
L 400.653392 272.143312 
L 401.653392 272.164002 
L 402.653392 272.204975 
L 403.653392 272.24505 
L 404.653392 272.26416 
L 405.653392 272.286668 
L 406.653392 272.35332 
L 407.653392 272.403029 
L 408.653392 272.476736 
L 409.653392 272.50805 
L 410.653392 272.584672 
L 411.653392 272.62297 
L 412.653392 272.697086 
L 413.653392 272.801145 
L 414.653392 272.870976 
L 415.653392 272.976209 
L 416.653392 273.031225 
L 417.653392 273.1547 
L 418.653392 273.225259 
L 419.653392 273.341098 
L 420.653392 273.391279 
L 421.653392 273.426883 
L 422.653392 273.518289 
L 423.653392 273.571797 
L 424.653392 273.659706 
L 425.653392 273.728891 
L 426.653392 273.775655 
L 427.653392 273.847699 
L 428.653392 273.897841 
L 430.572493 273.91523 
" clip-path="url(#p8133851a1b)" style="fill: none; stroke: #ffffff; stroke-width: 3; stroke-linecap: round"/>
          <path d="M 228.653392 273.055162 
L 229.653392 273.086598 
L 230.653392 273.123538 
L 231.653392 273.221285 
L 232.653392 273.253806 
L 233.653392 273.327431 
L 234.653392 273.365997 
L 235.653392 273.40141 
L 236.653392 273.45905 
L 237.653392 273.529436 
L 238.653392 273.5814 
L 239.653392 273.64049 
L 240.653392 273.728811 
L 241.653392 273.774955 
L 242.653392 273.817366 
L 243.653392 273.847859 
L 244.653392 273.873904 
L 245.653392 273.895104 
L 246.653392 273.949405 
L 247.653392 273.977343 
L 248.653392 274.007067 
L 249.653392 274.032461 
L 250.653392 274.043662 
L 251.653392 274.053786 
L 252.653392 274.053581 
L 253.653392 274.044072 
L 254.653392 274.032418 
L 255.653392 274.001389 
L 256.653392 273.990221 
L 257.653392 273.960103 
L 258.653392 273.900326 
L 259.653392 273.863135 
L 260.653392 273.824039 
L 261.653392 273.781599 
L 262.653392 273.748834 
L 263.653392 273.681407 
L 264.653392 273.642282 
L 265.653392 273.599607 
L 266.653392 273.529026 
L 267.653392 273.492636 
L 268.653392 273.434232 
L 269.653392 273.32328 
L 270.653392 273.252621 
L 271.653392 273.139682 
L 272.653392 273.093909 
L 273.653392 273.032626 
L 274.653392 272.984126 
L 275.653392 272.903304 
L 276.653392 272.784785 
L 277.653392 272.714574 
L 278.653392 272.631311 
L 279.653392 272.59817 
L 280.653392 272.546932 
L 281.653392 272.478534 
L 282.653392 272.412319 
L 283.653392 272.335402 
L 284.653392 272.308086 
L 285.653392 272.281609 
L 286.653392 272.258958 
L 287.653392 272.239427 
L 288.653392 272.213033 
L 289.653392 272.163262 
L 290.653392 272.128189 
L 291.653392 272.092323 
L 292.653392 272.076956 
L 293.653392 272.061186 
L 294.653392 272.057774 
L 295.653392 272.055356 
L 296.653392 272.055842 
L 297.653392 272.057772 
L 298.653392 272.071029 
L 299.653392 272.079419 
L 300.653392 272.100956 
L 301.653392 272.123988 
L 302.653392 272.141222 
L 303.653392 272.159684 
L 304.653392 272.180137 
L 305.653392 272.196737 
L 306.653392 272.259515 
L 307.653392 272.33478 
L 308.653392 272.36742 
L 309.653392 272.434983 
L 310.653392 272.48903 
L 311.653392 272.522735 
L 312.653392 272.612861 
L 313.653392 272.641396 
L 314.653392 272.672882 
L 315.653392 272.703893 
L 316.653392 272.7587 
L 317.653392 272.823288 
L 318.653392 272.861483 
L 319.653392 272.957417 
L 320.653392 273.006675 
L 321.653392 273.050745 
L 322.653392 273.090869 
L 323.653392 273.199236 
L 324.653392 273.240864 
L 325.653392 273.303005 
L 326.653392 273.372968 
L 327.653392 273.477472 
L 328.653392 273.514459 
L 329.653392 273.560337 
L 330.653392 273.628831 
L 331.653392 273.677577 
L 332.653392 273.755175 
L 333.653392 273.785715 
L 334.653392 273.85523 
L 335.653392 273.879203 
L 336.653392 273.907824 
L 337.653392 273.949618 
L 338.653392 273.971193 
L 339.653392 273.985141 
L 340.653392 274.011864 
L 341.653392 274.021174 
L 342.653392 274.03362 
L 343.653392 274.044675 
L 344.653392 274.05034 
L 345.653392 274.055104 
L 346.653392 274.049556 
L 347.653392 274.036268 
L 348.653392 274.02875 
L 349.653392 274.003966 
L 350.653392 273.980397 
L 351.653392 273.944216 
L 352.653392 273.918254 
L 353.653392 273.895933 
L 354.653392 273.827173 
L 355.653392 273.752638 
L 356.653392 273.658658 
L 357.653392 273.607606 
L 358.653392 273.553673 
L 359.653392 273.518422 
L 360.653392 273.412334 
L 361.653392 273.36007 
L 362.653392 273.323163 
L 363.653392 273.292132 
L 364.653392 273.230977 
L 365.653392 273.163557 
L 366.653392 273.114651 
L 367.653392 273.049458 
L 368.653392 273.011271 
L 369.653392 272.969275 
L 370.653392 272.927258 
L 371.653392 272.867741 
L 372.653392 272.754581 
L 373.653392 272.702331 
L 374.653392 272.662913 
L 375.653392 272.615811 
L 376.653392 272.559032 
L 377.653392 272.526369 
L 378.653392 272.490191 
L 379.653392 272.4581 
L 380.653392 272.423821 
L 381.653392 272.365443 
L 382.653392 272.320258 
L 383.653392 272.290634 
L 384.653392 272.240248 
L 385.653392 272.21505 
L 386.653392 272.193999 
L 387.653392 272.159032 
L 388.653392 272.134742 
L 389.653392 272.120675 
L 390.653392 272.101733 
L 391.653392 272.086071 
L 392.653392 272.073519 
L 393.653392 272.067684 
L 394.653392 272.060801 
L 395.653392 272.055628 
L 396.653392 272.05741 
L 397.653392 272.060136 
L 398.653392 272.071289 
L 399.653392 272.099525 
L 400.653392 272.143312 
L 401.653392 272.164002 
L 402.653392 272.204975 
L 403.653392 272.24505 
L 404.653392 272.26416 
L 405.653392 272.286668 
L 406.653392 272.35332 
L 407.653392 272.403029 
L 408.653392 272.476736 
L 409.653392 272.50805 
L 410.653392 272.584672 
L 411.653392 272.62297 
L 412.653392 272.697086 
L 413.653392 272.801145 
L 414.653392 272.870976 
L 415.653392 272.976209 
L 416.653392 273.031225 
L 417.653392 273.1547 
L 418.653392 273.225259 
L 419.653392 273.341098 
L 420.653392 273.391279 
L 421.653392 273.426883 
L 422.653392 273.518289 
L 423.653392 273.571797 
L 424.653392 273.659706 
L 425.653392 273.728891 
L 426.653392 273.775655 
L 427.653392 273.847699 
L 428.653392 273.897841 
L 430.572493 273.91523 
" clip-path="url(#p8133851a1b)" style="fill: none; stroke: #ff7f0e; stroke-linecap: round"/>
          <path d="M 426.572493 271.055162 
L 427.452861 271.530493 
L 428.330768 272.010747 
L 429.181482 272.545388 
L 430.483656 273.232835 
L 429.556303 273.25885 
L 428.644628 273.671569 
L 427.734364 274.087108 
L 426.391868 274.693913 
L 427.046767 274.055162 
L 427.098731 273.055162 
L 427.157821 271.055162 
z
" clip-path="url(#p8133851a1b)" style="fill: #ffffff; stroke: #ffffff; stroke-width: 3; stroke-linecap: round"/>
          <path d="M 426.572493 271.055162 
L 427.452861 271.530493 
L 428.330768 272.010747 
L 429.181482 272.545388 
L 430.483656 273.232835 
L 429.556303 273.25885 
L 428.644628 273.671569 
L 427.734364 274.087108 
L 426.391868 274.693913 
L 427.046767 274.055162 
L 427.098731 273.055162 
L 427.157821 271.055162 
z
" clip-path="url(#p8133851a1b)" style="fill: #ffffff; stroke: #ff7f0e; stroke-linecap: round"/>
          <path d="M 473.754204 300.810478 
" clip-path="url(#p8133851a1b)" style="fill: none; stroke-dasharray: 3.7,1.6; stroke-dashoffset: 0; stroke: #2ca02c"/>
          <path d="M 472.754204 300.810478 
L 474.754204 301.810478 
L 474.754204 299.810478 
z
" clip-path="url(#p8133851a1b)" style="fill: #2ca02c; stroke: #2ca02c; stroke-linejoin: miter"/>
          <g id="patch_10">
           <path d="M 63.290625 321.621875 
L 63.290625 10.8 
" style="fill: none; stroke: #000000; stroke-width: 0.8; stroke-linejoin: miter; stroke-linecap: square"/>
          </g>
          <g id="text_13">
           <g id="patch_11">
            <path d="M 322.860663 147.809563 
L 344.165351 147.809563 
Q 346.165351 147.809563 346.165351 145.809563 
L 346.165351 136.131438 
Q 346.165351 134.131438 344.165351 134.131438 
L 322.860663 134.131438 
Q 320.860663 134.131438 320.860663 136.131438 
L 320.860663 145.809563 
Q 320.860663 147.809563 322.860663 147.809563 
z
" style="fill: #ffffff; opacity: 0.6"/>
           </g>
           <!-- ANC -->
           <g transform="translate(322.860663 143.729876) scale(0.1 -0.1)">
            <defs>
             <path id="DejaVuSans-4e" d="M 628 4666 
L 1478 4666 
L 3547 763 
L 3547 4666 
L 4159 4666 
L 4159 0 
L 3309 0 
L 1241 3903 
L 1241 0 
L 628 0 
L 628 4666 
z
" transform="scale(0.015625)"/>
            </defs>
            <use xlink:href="#DejaVuSans-41"/>
            <use xlink:href="#DejaVuSans-4e" x="68.408203"/>
            <use xlink:href="#DejaVuSans-43" x="143.212891"/>
           </g>
          </g>
         </g>
        </g>
        <defs>
         <clipPath id="p8133851a1b">
          <rect x="63.290625" y="10.8" width="540.309375" height="310.821875"/>
         </clipPath>
        </defs>
       </g>
      </g>
     </g>
    </g>
   </g>
  </g>
 </g>
</svg>
