<?xml version="1.0" encoding="utf-8" standalone="no"?>
<!DOCTYPE svg PUBLIC "-//W3C//DTD SVG 1.1//EN"
  "http://www.w3.org/Graphics/SVG/1.1/DTD/svg11.dtd">
<svg xmlns:xlink="http://www.w3.org/1999/xlink" width="614.4pt" height="345.6pt" viewBox="0 0 614.4 345.6" xmlns="http://www.w3.org/2000/svg" version="1.1">
 <metadata>
  <rdf:RDF xmlns:dc="http://purl.org/dc/elements/1.1/" xmlns:cc="http://creativecommons.org/ns#" xmlns:rdf="http://www.w3.org/1999/02/22-rdf-syntax-ns#">
   <cc:Work>
    <dc:type rdf:resource="http://purl.org/dc/dcmitype/StillImage"/>
    <dc:date>2024-04-17T19:48:50.921360</dc:date>
    <dc:format>image/svg+xml</dc:format>
    <dc:creator>
     <cc:Agent>
      <dc:title>Matplotlib v3.7.1, https://matplotlib.org/</dc:title>
     </cc:Agent>
    </dc:creator>
   </cc:Work>
  </rdf:RDF>
 </metadata>
 <defs>
  <style type="text/css">*{stroke-linejoin: round; stroke-linecap: butt}</style>
 </defs>
 <g id="figure_1">
  <g id="patch_1">
   <path d="M 0 345.6 
L 614.4 345.6 
L 614.4 0 
L 0 0 
z
" style="fill: #ffffff"/>
  </g>
  <g id="axes_1">
   <g id="patch_2">
    <path d="M 63.290625 321.621875 
L 603.6 321.621875 
L 603.6 10.8 
L 63.290625 10.8 
z
" style="fill: #ffffff"/>
   </g>
   <path d="M 505.029737 303.296025 
L 504.029737 303.264588 
L 503.029737 303.227648 
L 502.029737 303.129901 
L 501.029737 303.09738 
L 500.029737 303.023755 
L 499.029737 302.98519 
L 498.029737 302.949776 
L 497.029737 302.892136 
L 496.029737 302.82175 
L 495.029737 302.769786 
L 494.029737 302.710696 
L 493.029737 302.622375 
L 492.029737 302.576231 
L 491.029737 302.53382 
L 490.029737 302.503327 
L 489.029737 302.477282 
L 488.029737 302.456082 
L 487.029737 302.401781 
L 486.029737 302.373844 
L 485.029737 302.34412 
L 484.029737 302.318725 
L 483.029737 302.307525 
L 482.029737 302.297401 
L 481.029737 302.297605 
L 480.029737 302.307115 
L 479.029737 302.318768 
L 478.029737 302.349798 
L 477.029737 302.360966 
L 476.029737 302.391083 
L 475.029737 302.45086 
L 474.029737 302.488052 
L 473.029737 302.527148 
L 472.029737 302.569587 
L 471.029737 302.602352 
L 470.029737 302.669779 
L 469.029737 302.708905 
L 468.029737 302.751579 
L 467.029737 302.82216 
L 466.029737 302.858551 
L 465.029737 302.916954 
L 464.029737 303.027907 
L 463.029737 303.098565 
L 462.029737 303.211505 
L 461.029737 303.257278 
L 460.029737 303.318561 
L 459.029737 303.36706 
L 458.029737 303.447883 
L 457.029737 303.566402 
L 456.029737 303.636612 
L 455.029737 303.719875 
L 454.029737 303.753017 
L 452.77563 303.804254 
" clip-path="url(#p57ce79810b)" style="fill: none; stroke-dasharray: 3.7,1.6; stroke-dashoffset: 0; stroke: #2ca02c"/>
   <g id="patch_3">
    <path d="M 278.586193 10.8 
L 278.586193 283.4467 
M 364.121643 10.8 
L 364.121643 283.4467 
" clip-path="url(#p57ce79810b)" style="fill: none; stroke: #ffffff; stroke-width: 3; stroke-linejoin: miter"/>
    <path d="M 278.586193 10.8 
L 278.586193 283.4467 
M 364.121643 10.8 
L 364.121643 283.4467 
" clip-path="url(#p57ce79810b)" style="fill: none; stroke: #1f77b4; stroke-linejoin: miter"/>
    <g id="PolyCollection_1">
     <path d="M 364.121643 10.8 
L 278.586193 10.8 
L 278.586193 283.4467 
L 364.121643 283.4467 
L 364.121643 283.4467 
L 364.121643 10.8 
z
" clip-path="url(#p57ce79810b)" style="fill: #1f77b4; fill-opacity: 0.5"/>
    </g>
    <g id="patch_4">
     <path d="M 87.850142 283.4467 
L 87.850142 321.621875 
M 219.783586 283.4467 
L 219.783586 321.621875 
" clip-path="url(#p57ce79810b)" style="fill: none; stroke: #ffffff; stroke-width: 3; stroke-linejoin: miter"/>
     <path d="M 87.850142 283.4467 
L 87.850142 321.621875 
M 219.783586 283.4467 
L 219.783586 321.621875 
" clip-path="url(#p57ce79810b)" style="fill: none; stroke: #ff7f0e; stroke-linejoin: miter"/>
     <g id="PolyCollection_2">
      <path d="M 219.783586 283.4467 
L 87.850142 283.4467 
L 87.850142 321.621875 
L 219.783586 321.621875 
L 219.783586 321.621875 
L 219.783586 283.4467 
z
" clip-path="url(#p57ce79810b)" style="fill: #ff7f0e; fill-opacity: 0.5"/>
     </g>
     <g id="patch_5">
      <path d="M 510.432831 72.964375 
L 510.432831 321.621875 
M 579.040483 72.964375 
L 579.040483 321.621875 
" clip-path="url(#p57ce79810b)" style="fill: none; stroke: #ffffff; stroke-width: 3; stroke-linejoin: miter"/>
      <path d="M 510.432831 72.964375 
L 510.432831 321.621875 
M 579.040483 72.964375 
L 579.040483 321.621875 
" clip-path="url(#p57ce79810b)" style="fill: none; stroke: #2ca02c; stroke-linejoin: miter"/>
      <g id="PolyCollection_3">
       <path d="M 579.040483 72.964375 
L 510.432831 72.964375 
L 510.432831 321.621875 
L 579.040483 321.621875 
L 579.040483 321.621875 
L 579.040483 72.964375 
z
" clip-path="url(#p57ce79810b)" style="fill: #2ca02c; fill-opacity: 0.5"/>
      </g>
      <g id="patch_6">
       <path d="M 418.718039 290.644564 
L 418.718039 321.621875 
M 447.372536 290.644564 
L 447.372536 321.621875 
" clip-path="url(#p57ce79810b)" style="fill: none; stroke: #ffffff; stroke-width: 3; stroke-linejoin: miter"/>
       <path d="M 418.718039 290.644564 
L 418.718039 321.621875 
M 447.372536 290.644564 
L 447.372536 321.621875 
" clip-path="url(#p57ce79810b)" style="fill: none; stroke: #d62728; stroke-linejoin: miter"/>
       <g id="PolyCollection_4">
        <path d="M 447.372536 290.644564 
L 418.718039 290.644564 
L 418.718039 321.621875 
L 447.372536 321.621875 
L 447.372536 321.621875 
L 447.372536 290.644564 
z
" clip-path="url(#p57ce79810b)" style="fill: #d62728; fill-opacity: 0.5"/>
       </g>
       <g id="matplotlib.axis_1">
        <g id="xtick_1">
         <g id="line2d_1"/>
         <g id="text_1">
          <!-- OUT -->
          <g transform="translate(143.167645 332.720312) scale(0.1 -0.1)">
           <defs>
            <path id="DejaVuSans-4f" d="M 2522 4238 
Q 1834 4238 1429 3725 
Q 1025 3213 1025 2328 
Q 1025 1447 1429 934 
Q 1834 422 2522 422 
Q 3209 422 3611 934 
Q 4013 1447 4013 2328 
Q 4013 3213 3611 3725 
Q 3209 4238 2522 4238 
z
M 2522 4750 
Q 3503 4750 4090 4092 
Q 4678 3434 4678 2328 
Q 4678 1225 4090 567 
Q 3503 -91 2522 -91 
Q 1538 -91 948 565 
Q 359 1222 359 2328 
Q 359 3434 948 4092 
Q 1538 4750 2522 4750 
z
" transform="scale(0.015625)"/>
            <path id="DejaVuSans-55" d="M 556 4666 
L 1191 4666 
L 1191 1831 
Q 1191 1081 1462 751 
Q 1734 422 2344 422 
Q 2950 422 3222 751 
Q 3494 1081 3494 1831 
L 3494 4666 
L 4128 4666 
L 4128 1753 
Q 4128 841 3676 375 
Q 3225 -91 2344 -91 
Q 1459 -91 1007 375 
Q 556 841 556 1753 
L 556 4666 
z
" transform="scale(0.015625)"/>
            <path id="DejaVuSans-54" d="M -19 4666 
L 3928 4666 
L 3928 4134 
L 2272 4134 
L 2272 0 
L 1638 0 
L 1638 4134 
L -19 4134 
L -19 4666 
z
" transform="scale(0.015625)"/>
           </defs>
           <use xlink:href="#DejaVuSans-4f"/>
           <use xlink:href="#DejaVuSans-55" x="78.710938"/>
           <use xlink:href="#DejaVuSans-54" x="151.904297"/>
          </g>
         </g>
        </g>
        <g id="xtick_2">
         <g id="line2d_2"/>
         <g id="text_2">
          <!-- SRC -->
          <g transform="translate(534.846813 332.720312) scale(0.1 -0.1)">
           <defs>
            <path id="DejaVuSans-53" d="M 3425 4513 
L 3425 3897 
Q 3066 4069 2747 4153 
Q 2428 4238 2131 4238 
Q 1616 4238 1336 4038 
Q 1056 3838 1056 3469 
Q 1056 3159 1242 3001 
Q 1428 2844 1947 2747 
L 2328 2669 
Q 3034 2534 3370 2195 
Q 3706 1856 3706 1288 
Q 3706 609 3251 259 
Q 2797 -91 1919 -91 
Q 1588 -91 1214 -16 
Q 841 59 441 206 
L 441 856 
Q 825 641 1194 531 
Q 1563 422 1919 422 
Q 2459 422 2753 634 
Q 3047 847 3047 1241 
Q 3047 1584 2836 1778 
Q 2625 1972 2144 2069 
L 1759 2144 
Q 1053 2284 737 2584 
Q 422 2884 422 3419 
Q 422 4038 858 4394 
Q 1294 4750 2059 4750 
Q 2388 4750 2728 4690 
Q 3069 4631 3425 4513 
z
" transform="scale(0.015625)"/>
            <path id="DejaVuSans-52" d="M 2841 2188 
Q 3044 2119 3236 1894 
Q 3428 1669 3622 1275 
L 4263 0 
L 3584 0 
L 2988 1197 
Q 2756 1666 2539 1819 
Q 2322 1972 1947 1972 
L 1259 1972 
L 1259 0 
L 628 0 
L 628 4666 
L 2053 4666 
Q 2853 4666 3247 4331 
Q 3641 3997 3641 3322 
Q 3641 2881 3436 2590 
Q 3231 2300 2841 2188 
z
M 1259 4147 
L 1259 2491 
L 2053 2491 
Q 2509 2491 2742 2702 
Q 2975 2913 2975 3322 
Q 2975 3731 2742 3939 
Q 2509 4147 2053 4147 
L 1259 4147 
z
" transform="scale(0.015625)"/>
            <path id="DejaVuSans-43" d="M 4122 4306 
L 4122 3641 
Q 3803 3938 3442 4084 
Q 3081 4231 2675 4231 
Q 1875 4231 1450 3742 
Q 1025 3253 1025 2328 
Q 1025 1406 1450 917 
Q 1875 428 2675 428 
Q 3081 428 3442 575 
Q 3803 722 4122 1019 
L 4122 359 
Q 3791 134 3420 21 
Q 3050 -91 2638 -91 
Q 1578 -91 968 557 
Q 359 1206 359 2328 
Q 359 3453 968 4101 
Q 1578 4750 2638 4750 
Q 3056 4750 3426 4639 
Q 3797 4528 4122 4306 
z
" transform="scale(0.015625)"/>
           </defs>
           <use xlink:href="#DejaVuSans-53"/>
           <use xlink:href="#DejaVuSans-52" x="63.476562"/>
           <use xlink:href="#DejaVuSans-43" x="127.958984"/>
          </g>
         </g>
        </g>
        <g id="xtick_3">
         <g id="line2d_3"/>
         <g id="text_3">
          <!-- TAR -->
          <g transform="translate(423.48435 332.720312) scale(0.1 -0.1)">
           <defs>
            <path id="DejaVuSans-41" d="M 2188 4044 
L 1331 1722 
L 3047 1722 
L 2188 4044 
z
M 1831 4666 
L 2547 4666 
L 4325 0 
L 3669 0 
L 3244 1197 
L 1141 1197 
L 716 0 
L 50 0 
L 1831 4666 
z
" transform="scale(0.015625)"/>
           </defs>
           <use xlink:href="#DejaVuSans-54"/>
           <use xlink:href="#DejaVuSans-41" x="53.333984"/>
           <use xlink:href="#DejaVuSans-52" x="121.742188"/>
          </g>
         </g>
        </g>
       </g>
       <g id="matplotlib.axis_2">
        <g id="ytick_1">
         <g id="line2d_4">
          <defs>
           <path id="m2e883d3415" d="M 0 0 
L -3.5 0 
" style="stroke: #000000; stroke-width: 0.8"/>
          </defs>
          <g>
           <use xlink:href="#m2e883d3415" x="63.290625" y="321.621875" style="stroke: #000000; stroke-width: 0.8"/>
          </g>
         </g>
         <g id="text_4">
          <!-- 0 -->
          <g transform="translate(49.928125 325.421094) scale(0.1 -0.1)">
           <defs>
            <path id="DejaVuSans-30" d="M 2034 4250 
Q 1547 4250 1301 3770 
Q 1056 3291 1056 2328 
Q 1056 1369 1301 889 
Q 1547 409 2034 409 
Q 2525 409 2770 889 
Q 3016 1369 3016 2328 
Q 3016 3291 2770 3770 
Q 2525 4250 2034 4250 
z
M 2034 4750 
Q 2819 4750 3233 4129 
Q 3647 3509 3647 2328 
Q 3647 1150 3233 529 
Q 2819 -91 2034 -91 
Q 1250 -91 836 529 
Q 422 1150 422 2328 
Q 422 3509 836 4129 
Q 1250 4750 2034 4750 
z
" transform="scale(0.015625)"/>
           </defs>
           <use xlink:href="#DejaVuSans-30"/>
          </g>
         </g>
        </g>
        <g id="ytick_2">
         <g id="line2d_5">
          <g>
           <use xlink:href="#m2e883d3415" x="63.290625" y="266.423531" style="stroke: #000000; stroke-width: 0.8"/>
          </g>
         </g>
         <g id="text_5">
          <!-- 5000 -->
          <g transform="translate(30.840625 270.22275) scale(0.1 -0.1)">
           <defs>
            <path id="DejaVuSans-35" d="M 691 4666 
L 3169 4666 
L 3169 4134 
L 1269 4134 
L 1269 2991 
Q 1406 3038 1543 3061 
Q 1681 3084 1819 3084 
Q 2600 3084 3056 2656 
Q 3513 2228 3513 1497 
Q 3513 744 3044 326 
Q 2575 -91 1722 -91 
Q 1428 -91 1123 -41 
Q 819 9 494 109 
L 494 744 
Q 775 591 1075 516 
Q 1375 441 1709 441 
Q 2250 441 2565 725 
Q 2881 1009 2881 1497 
Q 2881 1984 2565 2268 
Q 2250 2553 1709 2553 
Q 1456 2553 1204 2497 
Q 953 2441 691 2322 
L 691 4666 
z
" transform="scale(0.015625)"/>
           </defs>
           <use xlink:href="#DejaVuSans-35"/>
           <use xlink:href="#DejaVuSans-30" x="63.623047"/>
           <use xlink:href="#DejaVuSans-30" x="127.246094"/>
           <use xlink:href="#DejaVuSans-30" x="190.869141"/>
          </g>
         </g>
        </g>
        <g id="ytick_3">
         <g id="line2d_6">
          <g>
           <use xlink:href="#m2e883d3415" x="63.290625" y="211.225187" style="stroke: #000000; stroke-width: 0.8"/>
          </g>
         </g>
         <g id="text_6">
          <!-- 10000 -->
          <g transform="translate(24.478125 215.024406) scale(0.1 -0.1)">
           <defs>
            <path id="DejaVuSans-31" d="M 794 531 
L 1825 531 
L 1825 4091 
L 703 3866 
L 703 4441 
L 1819 4666 
L 2450 4666 
L 2450 531 
L 3481 531 
L 3481 0 
L 794 0 
L 794 531 
z
" transform="scale(0.015625)"/>
           </defs>
           <use xlink:href="#DejaVuSans-31"/>
           <use xlink:href="#DejaVuSans-30" x="63.623047"/>
           <use xlink:href="#DejaVuSans-30" x="127.246094"/>
           <use xlink:href="#DejaVuSans-30" x="190.869141"/>
           <use xlink:href="#DejaVuSans-30" x="254.492188"/>
          </g>
         </g>
        </g>
        <g id="ytick_4">
         <g id="line2d_7">
          <g>
           <use xlink:href="#m2e883d3415" x="63.290625" y="156.026843" style="stroke: #000000; stroke-width: 0.8"/>
          </g>
         </g>
         <g id="text_7">
          <!-- 15000 -->
          <g transform="translate(24.478125 159.826062) scale(0.1 -0.1)">
           <use xlink:href="#DejaVuSans-31"/>
           <use xlink:href="#DejaVuSans-35" x="63.623047"/>
           <use xlink:href="#DejaVuSans-30" x="127.246094"/>
           <use xlink:href="#DejaVuSans-30" x="190.869141"/>
           <use xlink:href="#DejaVuSans-30" x="254.492188"/>
          </g>
         </g>
        </g>
        <g id="ytick_5">
         <g id="line2d_8">
          <g>
           <use xlink:href="#m2e883d3415" x="63.290625" y="100.828499" style="stroke: #000000; stroke-width: 0.8"/>
          </g>
         </g>
         <g id="text_8">
          <!-- 20000 -->
          <g transform="translate(24.478125 104.627718) scale(0.1 -0.1)">
           <defs>
            <path id="DejaVuSans-32" d="M 1228 531 
L 3431 531 
L 3431 0 
L 469 0 
L 469 531 
Q 828 903 1448 1529 
Q 2069 2156 2228 2338 
Q 2531 2678 2651 2914 
Q 2772 3150 2772 3378 
Q 2772 3750 2511 3984 
Q 2250 4219 1831 4219 
Q 1534 4219 1204 4116 
Q 875 4013 500 3803 
L 500 4441 
Q 881 4594 1212 4672 
Q 1544 4750 1819 4750 
Q 2544 4750 2975 4387 
Q 3406 4025 3406 3419 
Q 3406 3131 3298 2873 
Q 3191 2616 2906 2266 
Q 2828 2175 2409 1742 
Q 1991 1309 1228 531 
z
" transform="scale(0.015625)"/>
           </defs>
           <use xlink:href="#DejaVuSans-32"/>
           <use xlink:href="#DejaVuSans-30" x="63.623047"/>
           <use xlink:href="#DejaVuSans-30" x="127.246094"/>
           <use xlink:href="#DejaVuSans-30" x="190.869141"/>
           <use xlink:href="#DejaVuSans-30" x="254.492188"/>
          </g>
         </g>
        </g>
        <g id="ytick_6">
         <g id="line2d_9">
          <g>
           <use xlink:href="#m2e883d3415" x="63.290625" y="45.630155" style="stroke: #000000; stroke-width: 0.8"/>
          </g>
         </g>
         <g id="text_9">
          <!-- 25000 -->
          <g transform="translate(24.478125 49.429374) scale(0.1 -0.1)">
           <use xlink:href="#DejaVuSans-32"/>
           <use xlink:href="#DejaVuSans-35" x="63.623047"/>
           <use xlink:href="#DejaVuSans-30" x="127.246094"/>
           <use xlink:href="#DejaVuSans-30" x="190.869141"/>
           <use xlink:href="#DejaVuSans-30" x="254.492188"/>
          </g>
         </g>
        </g>
        <g id="text_10">
         <!-- time ago (generations) -->
         <g transform="translate(18.398438 223.682031) rotate(-90) scale(0.1 -0.1)">
          <defs>
           <path id="DejaVuSans-74" d="M 1172 4494 
L 1172 3500 
L 2356 3500 
L 2356 3053 
L 1172 3053 
L 1172 1153 
Q 1172 725 1289 603 
Q 1406 481 1766 481 
L 2356 481 
L 2356 0 
L 1766 0 
Q 1100 0 847 248 
Q 594 497 594 1153 
L 594 3053 
L 172 3053 
L 172 3500 
L 594 3500 
L 594 4494 
L 1172 4494 
z
" transform="scale(0.015625)"/>
           <path id="DejaVuSans-69" d="M 603 3500 
L 1178 3500 
L 1178 0 
L 603 0 
L 603 3500 
z
M 603 4863 
L 1178 4863 
L 1178 4134 
L 603 4134 
L 603 4863 
z
" transform="scale(0.015625)"/>
           <path id="DejaVuSans-6d" d="M 3328 2828 
Q 3544 3216 3844 3400 
Q 4144 3584 4550 3584 
Q 5097 3584 5394 3201 
Q 5691 2819 5691 2113 
L 5691 0 
L 5113 0 
L 5113 2094 
Q 5113 2597 4934 2840 
Q 4756 3084 4391 3084 
Q 3944 3084 3684 2787 
Q 3425 2491 3425 1978 
L 3425 0 
L 2847 0 
L 2847 2094 
Q 2847 2600 2669 2842 
Q 2491 3084 2119 3084 
Q 1678 3084 1418 2786 
Q 1159 2488 1159 1978 
L 1159 0 
L 581 0 
L 581 3500 
L 1159 3500 
L 1159 2956 
Q 1356 3278 1631 3431 
Q 1906 3584 2284 3584 
Q 2666 3584 2933 3390 
Q 3200 3197 3328 2828 
z
" transform="scale(0.015625)"/>
           <path id="DejaVuSans-65" d="M 3597 1894 
L 3597 1613 
L 953 1613 
Q 991 1019 1311 708 
Q 1631 397 2203 397 
Q 2534 397 2845 478 
Q 3156 559 3463 722 
L 3463 178 
Q 3153 47 2828 -22 
Q 2503 -91 2169 -91 
Q 1331 -91 842 396 
Q 353 884 353 1716 
Q 353 2575 817 3079 
Q 1281 3584 2069 3584 
Q 2775 3584 3186 3129 
Q 3597 2675 3597 1894 
z
M 3022 2063 
Q 3016 2534 2758 2815 
Q 2500 3097 2075 3097 
Q 1594 3097 1305 2825 
Q 1016 2553 972 2059 
L 3022 2063 
z
" transform="scale(0.015625)"/>
           <path id="DejaVuSans-20" transform="scale(0.015625)"/>
           <path id="DejaVuSans-61" d="M 2194 1759 
Q 1497 1759 1228 1600 
Q 959 1441 959 1056 
Q 959 750 1161 570 
Q 1363 391 1709 391 
Q 2188 391 2477 730 
Q 2766 1069 2766 1631 
L 2766 1759 
L 2194 1759 
z
M 3341 1997 
L 3341 0 
L 2766 0 
L 2766 531 
Q 2569 213 2275 61 
Q 1981 -91 1556 -91 
Q 1019 -91 701 211 
Q 384 513 384 1019 
Q 384 1609 779 1909 
Q 1175 2209 1959 2209 
L 2766 2209 
L 2766 2266 
Q 2766 2663 2505 2880 
Q 2244 3097 1772 3097 
Q 1472 3097 1187 3025 
Q 903 2953 641 2809 
L 641 3341 
Q 956 3463 1253 3523 
Q 1550 3584 1831 3584 
Q 2591 3584 2966 3190 
Q 3341 2797 3341 1997 
z
" transform="scale(0.015625)"/>
           <path id="DejaVuSans-67" d="M 2906 1791 
Q 2906 2416 2648 2759 
Q 2391 3103 1925 3103 
Q 1463 3103 1205 2759 
Q 947 2416 947 1791 
Q 947 1169 1205 825 
Q 1463 481 1925 481 
Q 2391 481 2648 825 
Q 2906 1169 2906 1791 
z
M 3481 434 
Q 3481 -459 3084 -895 
Q 2688 -1331 1869 -1331 
Q 1566 -1331 1297 -1286 
Q 1028 -1241 775 -1147 
L 775 -588 
Q 1028 -725 1275 -790 
Q 1522 -856 1778 -856 
Q 2344 -856 2625 -561 
Q 2906 -266 2906 331 
L 2906 616 
Q 2728 306 2450 153 
Q 2172 0 1784 0 
Q 1141 0 747 490 
Q 353 981 353 1791 
Q 353 2603 747 3093 
Q 1141 3584 1784 3584 
Q 2172 3584 2450 3431 
Q 2728 3278 2906 2969 
L 2906 3500 
L 3481 3500 
L 3481 434 
z
" transform="scale(0.015625)"/>
           <path id="DejaVuSans-6f" d="M 1959 3097 
Q 1497 3097 1228 2736 
Q 959 2375 959 1747 
Q 959 1119 1226 758 
Q 1494 397 1959 397 
Q 2419 397 2687 759 
Q 2956 1122 2956 1747 
Q 2956 2369 2687 2733 
Q 2419 3097 1959 3097 
z
M 1959 3584 
Q 2709 3584 3137 3096 
Q 3566 2609 3566 1747 
Q 3566 888 3137 398 
Q 2709 -91 1959 -91 
Q 1206 -91 779 398 
Q 353 888 353 1747 
Q 353 2609 779 3096 
Q 1206 3584 1959 3584 
z
" transform="scale(0.015625)"/>
           <path id="DejaVuSans-28" d="M 1984 4856 
Q 1566 4138 1362 3434 
Q 1159 2731 1159 2009 
Q 1159 1288 1364 580 
Q 1569 -128 1984 -844 
L 1484 -844 
Q 1016 -109 783 600 
Q 550 1309 550 2009 
Q 550 2706 781 3412 
Q 1013 4119 1484 4856 
L 1984 4856 
z
" transform="scale(0.015625)"/>
           <path id="DejaVuSans-6e" d="M 3513 2113 
L 3513 0 
L 2938 0 
L 2938 2094 
Q 2938 2591 2744 2837 
Q 2550 3084 2163 3084 
Q 1697 3084 1428 2787 
Q 1159 2491 1159 1978 
L 1159 0 
L 581 0 
L 581 3500 
L 1159 3500 
L 1159 2956 
Q 1366 3272 1645 3428 
Q 1925 3584 2291 3584 
Q 2894 3584 3203 3211 
Q 3513 2838 3513 2113 
z
" transform="scale(0.015625)"/>
           <path id="DejaVuSans-72" d="M 2631 2963 
Q 2534 3019 2420 3045 
Q 2306 3072 2169 3072 
Q 1681 3072 1420 2755 
Q 1159 2438 1159 1844 
L 1159 0 
L 581 0 
L 581 3500 
L 1159 3500 
L 1159 2956 
Q 1341 3275 1631 3429 
Q 1922 3584 2338 3584 
Q 2397 3584 2469 3576 
Q 2541 3569 2628 3553 
L 2631 2963 
z
" transform="scale(0.015625)"/>
           <path id="DejaVuSans-73" d="M 2834 3397 
L 2834 2853 
Q 2591 2978 2328 3040 
Q 2066 3103 1784 3103 
Q 1356 3103 1142 2972 
Q 928 2841 928 2578 
Q 928 2378 1081 2264 
Q 1234 2150 1697 2047 
L 1894 2003 
Q 2506 1872 2764 1633 
Q 3022 1394 3022 966 
Q 3022 478 2636 193 
Q 2250 -91 1575 -91 
Q 1294 -91 989 -36 
Q 684 19 347 128 
L 347 722 
Q 666 556 975 473 
Q 1284 391 1588 391 
Q 1994 391 2212 530 
Q 2431 669 2431 922 
Q 2431 1156 2273 1281 
Q 2116 1406 1581 1522 
L 1381 1569 
Q 847 1681 609 1914 
Q 372 2147 372 2553 
Q 372 3047 722 3315 
Q 1072 3584 1716 3584 
Q 2034 3584 2315 3537 
Q 2597 3491 2834 3397 
z
" transform="scale(0.015625)"/>
           <path id="DejaVuSans-29" d="M 513 4856 
L 1013 4856 
Q 1481 4119 1714 3412 
Q 1947 2706 1947 2009 
Q 1947 1309 1714 600 
Q 1481 -109 1013 -844 
L 513 -844 
Q 928 -128 1133 580 
Q 1338 1288 1338 2009 
Q 1338 2731 1133 3434 
Q 928 4138 513 4856 
z
" transform="scale(0.015625)"/>
          </defs>
          <use xlink:href="#DejaVuSans-74"/>
          <use xlink:href="#DejaVuSans-69" x="39.208984"/>
          <use xlink:href="#DejaVuSans-6d" x="66.992188"/>
          <use xlink:href="#DejaVuSans-65" x="164.404297"/>
          <use xlink:href="#DejaVuSans-20" x="225.927734"/>
          <use xlink:href="#DejaVuSans-61" x="257.714844"/>
          <use xlink:href="#DejaVuSans-67" x="318.994141"/>
          <use xlink:href="#DejaVuSans-6f" x="382.470703"/>
          <use xlink:href="#DejaVuSans-20" x="443.652344"/>
          <use xlink:href="#DejaVuSans-28" x="475.439453"/>
          <use xlink:href="#DejaVuSans-67" x="514.453125"/>
          <use xlink:href="#DejaVuSans-65" x="577.929688"/>
          <use xlink:href="#DejaVuSans-6e" x="639.453125"/>
          <use xlink:href="#DejaVuSans-65" x="702.832031"/>
          <use xlink:href="#DejaVuSans-72" x="764.355469"/>
          <use xlink:href="#DejaVuSans-61" x="805.46875"/>
          <use xlink:href="#DejaVuSans-74" x="866.748047"/>
          <use xlink:href="#DejaVuSans-69" x="905.957031"/>
          <use xlink:href="#DejaVuSans-6f" x="933.740234"/>
          <use xlink:href="#DejaVuSans-6e" x="994.921875"/>
          <use xlink:href="#DejaVuSans-73" x="1058.300781"/>
          <use xlink:href="#DejaVuSans-29" x="1110.400391"/>
         </g>
        </g>
       </g>
       <g id="patch_7">
        <path d="M 276.587106 283.4467 
L 275.587106 283.415264 
L 274.587106 283.378324 
L 273.587106 283.280577 
L 272.587106 283.248055 
L 271.587106 283.174431 
L 270.587106 283.135865 
L 269.587106 283.100452 
L 268.587106 283.042812 
L 267.587106 282.972426 
L 266.587106 282.920462 
L 265.587106 282.861372 
L 264.587106 282.773051 
L 263.587106 282.726907 
L 262.587106 282.684496 
L 261.587106 282.654003 
L 260.587106 282.627958 
L 259.587106 282.606758 
L 258.587106 282.552457 
L 257.587106 282.524519 
L 256.587106 282.494795 
L 255.587106 282.469401 
L 254.587106 282.4582 
L 253.587106 282.448076 
L 252.587106 282.448281 
L 251.587106 282.45779 
L 250.587106 282.469444 
L 249.587106 282.500473 
L 248.587106 282.511641 
L 247.587106 282.541759 
L 246.587106 282.601536 
L 245.587106 282.638727 
L 244.587106 282.677823 
L 243.587106 282.720263 
L 242.587106 282.753028 
L 241.587106 282.820454 
L 240.587106 282.85958 
L 239.587106 282.902255 
L 238.587106 282.972835 
L 237.587106 283.009226 
L 236.587106 283.06763 
L 235.587106 283.178582 
L 234.587106 283.24924 
L 233.587106 283.36218 
L 232.587106 283.407953 
L 231.587106 283.469236 
L 230.587106 283.517736 
L 229.587106 283.598558 
L 228.587106 283.717077 
L 227.587106 283.787288 
L 226.587106 283.87055 
L 225.587106 283.903692 
L 224.587106 283.954929 
L 222.902086 284.023328 
" clip-path="url(#p57ce79810b)" style="fill: none; stroke: #ffffff; stroke-width: 3; stroke-linecap: round"/>
        <path d="M 276.587106 283.4467 
L 275.587106 283.415264 
L 274.587106 283.378324 
L 273.587106 283.280577 
L 272.587106 283.248055 
L 271.587106 283.174431 
L 270.587106 283.135865 
L 269.587106 283.100452 
L 268.587106 283.042812 
L 267.587106 282.972426 
L 266.587106 282.920462 
L 265.587106 282.861372 
L 264.587106 282.773051 
L 263.587106 282.726907 
L 262.587106 282.684496 
L 261.587106 282.654003 
L 260.587106 282.627958 
L 259.587106 282.606758 
L 258.587106 282.552457 
L 257.587106 282.524519 
L 256.587106 282.494795 
L 255.587106 282.469401 
L 254.587106 282.4582 
L 253.587106 282.448076 
L 252.587106 282.448281 
L 251.587106 282.45779 
L 250.587106 282.469444 
L 249.587106 282.500473 
L 248.587106 282.511641 
L 247.587106 282.541759 
L 246.587106 282.601536 
L 245.587106 282.638727 
L 244.587106 282.677823 
L 243.587106 282.720263 
L 242.587106 282.753028 
L 241.587106 282.820454 
L 240.587106 282.85958 
L 239.587106 282.902255 
L 238.587106 282.972835 
L 237.587106 283.009226 
L 236.587106 283.06763 
L 235.587106 283.178582 
L 234.587106 283.24924 
L 233.587106 283.36218 
L 232.587106 283.407953 
L 231.587106 283.469236 
L 230.587106 283.517736 
L 229.587106 283.598558 
L 228.587106 283.717077 
L 227.587106 283.787288 
L 226.587106 283.87055 
L 225.587106 283.903692 
L 224.587106 283.954929 
L 222.902086 284.023328 
" clip-path="url(#p57ce79810b)" style="fill: none; stroke: #1f77b4; stroke-linecap: round"/>
        <path d="M 226.902086 285.4467 
L 226.021717 284.971369 
L 225.14381 284.491115 
L 224.293097 283.956474 
L 222.990922 283.269027 
L 223.918276 283.243012 
L 224.82995 282.830293 
L 225.740214 282.414753 
L 227.08271 281.807949 
L 226.427811 282.4467 
L 226.375847 283.4467 
L 226.316757 285.4467 
z
" clip-path="url(#p57ce79810b)" style="fill: #ffffff; stroke: #ffffff; stroke-width: 3; stroke-linecap: round"/>
        <path d="M 226.902086 285.4467 
L 226.021717 284.971369 
L 225.14381 284.491115 
L 224.293097 283.956474 
L 222.990922 283.269027 
L 223.918276 283.243012 
L 224.82995 282.830293 
L 225.740214 282.414753 
L 227.08271 281.807949 
L 226.427811 282.4467 
L 226.375847 283.4467 
L 226.316757 285.4467 
z
" clip-path="url(#p57ce79810b)" style="fill: #ffffff; stroke: #1f77b4; stroke-linecap: round"/>
        <g id="patch_8">
         <path d="M 366.117526 72.964375 
L 367.117526 72.995811 
L 368.117526 73.032752 
L 369.117526 73.130498 
L 370.117526 73.16302 
L 371.117526 73.236645 
L 372.117526 73.27521 
L 373.117526 73.310623 
L 374.117526 73.368263 
L 375.117526 73.438649 
L 376.117526 73.490614 
L 377.117526 73.549703 
L 378.117526 73.638024 
L 379.117526 73.684169 
L 380.117526 73.72658 
L 381.117526 73.757072 
L 382.117526 73.783117 
L 383.117526 73.804317 
L 384.117526 73.858618 
L 385.117526 73.886556 
L 386.117526 73.91628 
L 387.117526 73.941675 
L 388.117526 73.952875 
L 389.117526 73.962999 
L 390.117526 73.962795 
L 391.117526 73.953285 
L 392.117526 73.941631 
L 393.117526 73.910602 
L 394.117526 73.899434 
L 395.117526 73.869317 
L 396.117526 73.80954 
L 397.117526 73.772348 
L 398.117526 73.733252 
L 399.117526 73.690812 
L 400.117526 73.658047 
L 401.117526 73.590621 
L 402.117526 73.551495 
L 403.117526 73.50882 
L 404.117526 73.43824 
L 405.117526 73.401849 
L 406.117526 73.343446 
L 407.117526 73.232493 
L 408.117526 73.161835 
L 409.117526 73.048895 
L 410.117526 73.003122 
L 411.117526 72.941839 
L 412.117526 72.89334 
L 413.117526 72.812517 
L 414.117526 72.693998 
L 415.117526 72.623787 
L 416.117526 72.540525 
L 417.117526 72.507383 
L 418.117526 72.456146 
L 419.117526 72.387747 
L 420.117526 72.321532 
L 421.117526 72.244615 
L 422.117526 72.217299 
L 423.117526 72.190822 
L 424.117526 72.168171 
L 425.117526 72.14864 
L 426.117526 72.122246 
L 427.117526 72.072475 
L 428.117526 72.037402 
L 429.117526 72.001536 
L 430.117526 71.986169 
L 431.117526 71.9704 
L 432.117526 71.966987 
L 433.117526 71.96457 
L 434.117526 71.965056 
L 435.117526 71.966985 
L 436.117526 71.980242 
L 437.117526 71.988633 
L 438.117526 72.010169 
L 439.117526 72.033202 
L 440.117526 72.050435 
L 441.117526 72.068898 
L 442.117526 72.08935 
L 443.117526 72.10595 
L 444.117526 72.168729 
L 445.117526 72.243994 
L 446.117526 72.276633 
L 447.117526 72.344197 
L 448.117526 72.398244 
L 449.117526 72.431948 
L 450.117526 72.522074 
L 451.117526 72.550609 
L 452.117526 72.582095 
L 453.117526 72.613106 
L 454.117526 72.667914 
L 455.117526 72.732501 
L 456.117526 72.770697 
L 457.117526 72.866631 
L 458.117526 72.915889 
L 459.117526 72.959958 
L 460.117526 73.000082 
L 461.117526 73.108449 
L 462.117526 73.150077 
L 463.117526 73.212219 
L 464.117526 73.282181 
L 465.117526 73.386685 
L 466.117526 73.423673 
L 467.117526 73.46955 
L 468.117526 73.538045 
L 469.117526 73.586791 
L 470.117526 73.664388 
L 471.117526 73.694929 
L 472.117526 73.764443 
L 473.117526 73.788416 
L 474.117526 73.817038 
L 475.117526 73.858831 
L 476.117526 73.880407 
L 477.117526 73.894355 
L 478.117526 73.921077 
L 479.117526 73.930387 
L 480.117526 73.942834 
L 481.117526 73.953889 
L 482.117526 73.959553 
L 483.117526 73.964317 
L 484.117526 73.958769 
L 485.117526 73.945481 
L 486.117526 73.937964 
L 487.117526 73.913179 
L 488.117526 73.88961 
L 489.117526 73.85343 
L 490.117526 73.827468 
L 491.117526 73.805146 
L 492.117526 73.736386 
L 493.117526 73.661851 
L 494.117526 73.567872 
L 495.117526 73.51682 
L 496.117526 73.462886 
L 497.117526 73.427635 
L 498.117526 73.321547 
L 499.117526 73.269283 
L 500.117526 73.232376 
L 501.117526 73.201345 
L 502.117526 73.14019 
L 503.117526 73.07277 
L 504.117526 73.023864 
L 505.117526 72.958672 
L 506.117526 72.920484 
L 507.310907 72.878488 
" clip-path="url(#p57ce79810b)" style="fill: none; stroke: #ffffff; stroke-width: 3; stroke-linecap: round"/>
         <path d="M 366.117526 72.964375 
L 367.117526 72.995811 
L 368.117526 73.032752 
L 369.117526 73.130498 
L 370.117526 73.16302 
L 371.117526 73.236645 
L 372.117526 73.27521 
L 373.117526 73.310623 
L 374.117526 73.368263 
L 375.117526 73.438649 
L 376.117526 73.490614 
L 377.117526 73.549703 
L 378.117526 73.638024 
L 379.117526 73.684169 
L 380.117526 73.72658 
L 381.117526 73.757072 
L 382.117526 73.783117 
L 383.117526 73.804317 
L 384.117526 73.858618 
L 385.117526 73.886556 
L 386.117526 73.91628 
L 387.117526 73.941675 
L 388.117526 73.952875 
L 389.117526 73.962999 
L 390.117526 73.962795 
L 391.117526 73.953285 
L 392.117526 73.941631 
L 393.117526 73.910602 
L 394.117526 73.899434 
L 395.117526 73.869317 
L 396.117526 73.80954 
L 397.117526 73.772348 
L 398.117526 73.733252 
L 399.117526 73.690812 
L 400.117526 73.658047 
L 401.117526 73.590621 
L 402.117526 73.551495 
L 403.117526 73.50882 
L 404.117526 73.43824 
L 405.117526 73.401849 
L 406.117526 73.343446 
L 407.117526 73.232493 
L 408.117526 73.161835 
L 409.117526 73.048895 
L 410.117526 73.003122 
L 411.117526 72.941839 
L 412.117526 72.89334 
L 413.117526 72.812517 
L 414.117526 72.693998 
L 415.117526 72.623787 
L 416.117526 72.540525 
L 417.117526 72.507383 
L 418.117526 72.456146 
L 419.117526 72.387747 
L 420.117526 72.321532 
L 421.117526 72.244615 
L 422.117526 72.217299 
L 423.117526 72.190822 
L 424.117526 72.168171 
L 425.117526 72.14864 
L 426.117526 72.122246 
L 427.117526 72.072475 
L 428.117526 72.037402 
L 429.117526 72.001536 
L 430.117526 71.986169 
L 431.117526 71.9704 
L 432.117526 71.966987 
L 433.117526 71.96457 
L 434.117526 71.965056 
L 435.117526 71.966985 
L 436.117526 71.980242 
L 437.117526 71.988633 
L 438.117526 72.010169 
L 439.117526 72.033202 
L 440.117526 72.050435 
L 441.117526 72.068898 
L 442.117526 72.08935 
L 443.117526 72.10595 
L 444.117526 72.168729 
L 445.117526 72.243994 
L 446.117526 72.276633 
L 447.117526 72.344197 
L 448.117526 72.398244 
L 449.117526 72.431948 
L 450.117526 72.522074 
L 451.117526 72.550609 
L 452.117526 72.582095 
L 453.117526 72.613106 
L 454.117526 72.667914 
L 455.117526 72.732501 
L 456.117526 72.770697 
L 457.117526 72.866631 
L 458.117526 72.915889 
L 459.117526 72.959958 
L 460.117526 73.000082 
L 461.117526 73.108449 
L 462.117526 73.150077 
L 463.117526 73.212219 
L 464.117526 73.282181 
L 465.117526 73.386685 
L 466.117526 73.423673 
L 467.117526 73.46955 
L 468.117526 73.538045 
L 469.117526 73.586791 
L 470.117526 73.664388 
L 471.117526 73.694929 
L 472.117526 73.764443 
L 473.117526 73.788416 
L 474.117526 73.817038 
L 475.117526 73.858831 
L 476.117526 73.880407 
L 477.117526 73.894355 
L 478.117526 73.921077 
L 479.117526 73.930387 
L 480.117526 73.942834 
L 481.117526 73.953889 
L 482.117526 73.959553 
L 483.117526 73.964317 
L 484.117526 73.958769 
L 485.117526 73.945481 
L 486.117526 73.937964 
L 487.117526 73.913179 
L 488.117526 73.88961 
L 489.117526 73.85343 
L 490.117526 73.827468 
L 491.117526 73.805146 
L 492.117526 73.736386 
L 493.117526 73.661851 
L 494.117526 73.567872 
L 495.117526 73.51682 
L 496.117526 73.462886 
L 497.117526 73.427635 
L 498.117526 73.321547 
L 499.117526 73.269283 
L 500.117526 73.232376 
L 501.117526 73.201345 
L 502.117526 73.14019 
L 503.117526 73.07277 
L 504.117526 73.023864 
L 505.117526 72.958672 
L 506.117526 72.920484 
L 507.310907 72.878488 
" clip-path="url(#p57ce79810b)" style="fill: none; stroke: #1f77b4; stroke-linecap: round"/>
         <path d="M 503.310907 70.964375 
L 504.191275 71.439706 
L 505.069182 71.91996 
L 505.919896 72.454601 
L 507.22207 73.142048 
L 506.294717 73.168063 
L 505.383043 73.580783 
L 504.472778 73.996322 
L 503.130283 74.603126 
L 503.785181 73.964375 
L 503.837145 72.964375 
L 503.896235 70.964375 
z
" clip-path="url(#p57ce79810b)" style="fill: #ffffff; stroke: #ffffff; stroke-width: 3; stroke-linecap: round"/>
         <path d="M 503.310907 70.964375 
L 504.191275 71.439706 
L 505.069182 71.91996 
L 505.919896 72.454601 
L 507.22207 73.142048 
L 506.294717 73.168063 
L 505.383043 73.580783 
L 504.472778 73.996322 
L 503.130283 74.603126 
L 503.785181 73.964375 
L 503.837145 72.964375 
L 503.896235 70.964375 
z
" clip-path="url(#p57ce79810b)" style="fill: #ffffff; stroke: #1f77b4; stroke-linecap: round"/>
         <g id="patch_9">
          <path d="M 221.78398 290.644564 
L 222.78398 290.676001 
L 223.78398 290.712941 
L 224.78398 290.810688 
L 225.78398 290.843209 
L 226.78398 290.916834 
L 227.78398 290.9554 
L 228.78398 290.990813 
L 229.78398 291.048453 
L 230.78398 291.118839 
L 231.78398 291.170803 
L 232.78398 291.229893 
L 233.78398 291.318214 
L 234.78398 291.364358 
L 235.78398 291.406769 
L 236.78398 291.437262 
L 237.78398 291.463307 
L 238.78398 291.484507 
L 239.78398 291.538808 
L 240.78398 291.566745 
L 241.78398 291.596469 
L 242.78398 291.621864 
L 243.78398 291.633065 
L 244.78398 291.643189 
L 245.78398 291.642984 
L 246.78398 291.633474 
L 247.78398 291.621821 
L 248.78398 291.590791 
L 249.78398 291.579624 
L 250.78398 291.549506 
L 251.78398 291.489729 
L 252.78398 291.452538 
L 253.78398 291.413441 
L 254.78398 291.371002 
L 255.78398 291.338237 
L 256.78398 291.27081 
L 257.78398 291.231684 
L 258.78398 291.18901 
L 259.78398 291.118429 
L 260.78398 291.082038 
L 261.78398 291.023635 
L 262.78398 290.912683 
L 263.78398 290.842024 
L 264.78398 290.729084 
L 265.78398 290.683312 
L 266.78398 290.622028 
L 267.78398 290.573529 
L 268.78398 290.492706 
L 269.78398 290.374187 
L 270.78398 290.303977 
L 271.78398 290.220714 
L 272.78398 290.187573 
L 273.78398 290.136335 
L 274.78398 290.067937 
L 275.78398 290.001721 
L 276.78398 289.924804 
L 277.78398 289.897489 
L 278.78398 289.871011 
L 279.78398 289.848361 
L 280.78398 289.828829 
L 281.78398 289.802435 
L 282.78398 289.752665 
L 283.78398 289.717591 
L 284.78398 289.681726 
L 285.78398 289.666359 
L 286.78398 289.650589 
L 287.78398 289.647177 
L 288.78398 289.644759 
L 289.78398 289.645245 
L 290.78398 289.647175 
L 291.78398 289.660431 
L 292.78398 289.668822 
L 293.78398 289.690359 
L 294.78398 289.713391 
L 295.78398 289.730625 
L 296.78398 289.749087 
L 297.78398 289.76954 
L 298.78398 289.78614 
L 299.78398 289.848918 
L 300.78398 289.924183 
L 301.78398 289.956822 
L 302.78398 290.024386 
L 303.78398 290.078433 
L 304.78398 290.112137 
L 305.78398 290.202263 
L 306.78398 290.230798 
L 307.78398 290.262285 
L 308.78398 290.293295 
L 309.78398 290.348103 
L 310.78398 290.412691 
L 311.78398 290.450886 
L 312.78398 290.54682 
L 313.78398 290.596078 
L 314.78398 290.640148 
L 315.78398 290.680271 
L 316.78398 290.788638 
L 317.78398 290.830267 
L 318.78398 290.892408 
L 319.78398 290.96237 
L 320.78398 291.066875 
L 321.78398 291.103862 
L 322.78398 291.14974 
L 323.78398 291.218234 
L 324.78398 291.26698 
L 325.78398 291.344577 
L 326.78398 291.375118 
L 327.78398 291.444633 
L 328.78398 291.468606 
L 329.78398 291.497227 
L 330.78398 291.53902 
L 331.78398 291.560596 
L 332.78398 291.574544 
L 333.78398 291.601267 
L 334.78398 291.610576 
L 335.78398 291.623023 
L 336.78398 291.634078 
L 337.78398 291.639743 
L 338.78398 291.644506 
L 339.78398 291.638959 
L 340.78398 291.625671 
L 341.78398 291.618153 
L 342.78398 291.593368 
L 343.78398 291.5698 
L 344.78398 291.533619 
L 345.78398 291.507657 
L 346.78398 291.485336 
L 347.78398 291.416576 
L 348.78398 291.342041 
L 349.78398 291.248061 
L 350.78398 291.197009 
L 351.78398 291.143075 
L 352.78398 291.107825 
L 353.78398 291.001737 
L 354.78398 290.949472 
L 355.78398 290.912566 
L 356.78398 290.881535 
L 357.78398 290.820379 
L 358.78398 290.752959 
L 359.78398 290.704053 
L 360.78398 290.638861 
L 361.78398 290.600674 
L 362.78398 290.558678 
L 363.78398 290.51666 
L 364.78398 290.457144 
L 365.78398 290.343984 
L 366.78398 290.291733 
L 367.78398 290.252316 
L 368.78398 290.205214 
L 369.78398 290.148435 
L 370.78398 290.115772 
L 371.78398 290.079594 
L 372.78398 290.047503 
L 373.78398 290.013223 
L 374.78398 289.954846 
L 375.78398 289.909661 
L 376.78398 289.880037 
L 377.78398 289.829651 
L 378.78398 289.804453 
L 379.78398 289.783402 
L 380.78398 289.748434 
L 381.78398 289.724144 
L 382.78398 289.710077 
L 383.78398 289.691136 
L 384.78398 289.675474 
L 385.78398 289.662922 
L 386.78398 289.657087 
L 387.78398 289.650204 
L 388.78398 289.64503 
L 389.78398 289.646813 
L 390.78398 289.649539 
L 391.78398 289.660692 
L 392.78398 289.688927 
L 393.78398 289.732715 
L 394.78398 289.753404 
L 395.78398 289.794378 
L 396.78398 289.834453 
L 397.78398 289.853563 
L 398.78398 289.876071 
L 399.78398 289.942723 
L 400.78398 289.992432 
L 401.78398 290.066139 
L 402.78398 290.097452 
L 403.78398 290.174075 
L 404.78398 290.212373 
L 405.78398 290.286489 
L 406.78398 290.390548 
L 407.78398 290.460378 
L 408.78398 290.565612 
L 409.78398 290.620627 
L 410.78398 290.744102 
L 411.78398 290.814661 
L 412.78398 290.930501 
L 413.78398 290.980681 
L 415.601697 291.016286 
" clip-path="url(#p57ce79810b)" style="fill: none; stroke: #ffffff; stroke-width: 3; stroke-linecap: round"/>
          <path d="M 221.78398 290.644564 
L 222.78398 290.676001 
L 223.78398 290.712941 
L 224.78398 290.810688 
L 225.78398 290.843209 
L 226.78398 290.916834 
L 227.78398 290.9554 
L 228.78398 290.990813 
L 229.78398 291.048453 
L 230.78398 291.118839 
L 231.78398 291.170803 
L 232.78398 291.229893 
L 233.78398 291.318214 
L 234.78398 291.364358 
L 235.78398 291.406769 
L 236.78398 291.437262 
L 237.78398 291.463307 
L 238.78398 291.484507 
L 239.78398 291.538808 
L 240.78398 291.566745 
L 241.78398 291.596469 
L 242.78398 291.621864 
L 243.78398 291.633065 
L 244.78398 291.643189 
L 245.78398 291.642984 
L 246.78398 291.633474 
L 247.78398 291.621821 
L 248.78398 291.590791 
L 249.78398 291.579624 
L 250.78398 291.549506 
L 251.78398 291.489729 
L 252.78398 291.452538 
L 253.78398 291.413441 
L 254.78398 291.371002 
L 255.78398 291.338237 
L 256.78398 291.27081 
L 257.78398 291.231684 
L 258.78398 291.18901 
L 259.78398 291.118429 
L 260.78398 291.082038 
L 261.78398 291.023635 
L 262.78398 290.912683 
L 263.78398 290.842024 
L 264.78398 290.729084 
L 265.78398 290.683312 
L 266.78398 290.622028 
L 267.78398 290.573529 
L 268.78398 290.492706 
L 269.78398 290.374187 
L 270.78398 290.303977 
L 271.78398 290.220714 
L 272.78398 290.187573 
L 273.78398 290.136335 
L 274.78398 290.067937 
L 275.78398 290.001721 
L 276.78398 289.924804 
L 277.78398 289.897489 
L 278.78398 289.871011 
L 279.78398 289.848361 
L 280.78398 289.828829 
L 281.78398 289.802435 
L 282.78398 289.752665 
L 283.78398 289.717591 
L 284.78398 289.681726 
L 285.78398 289.666359 
L 286.78398 289.650589 
L 287.78398 289.647177 
L 288.78398 289.644759 
L 289.78398 289.645245 
L 290.78398 289.647175 
L 291.78398 289.660431 
L 292.78398 289.668822 
L 293.78398 289.690359 
L 294.78398 289.713391 
L 295.78398 289.730625 
L 296.78398 289.749087 
L 297.78398 289.76954 
L 298.78398 289.78614 
L 299.78398 289.848918 
L 300.78398 289.924183 
L 301.78398 289.956822 
L 302.78398 290.024386 
L 303.78398 290.078433 
L 304.78398 290.112137 
L 305.78398 290.202263 
L 306.78398 290.230798 
L 307.78398 290.262285 
L 308.78398 290.293295 
L 309.78398 290.348103 
L 310.78398 290.412691 
L 311.78398 290.450886 
L 312.78398 290.54682 
L 313.78398 290.596078 
L 314.78398 290.640148 
L 315.78398 290.680271 
L 316.78398 290.788638 
L 317.78398 290.830267 
L 318.78398 290.892408 
L 319.78398 290.96237 
L 320.78398 291.066875 
L 321.78398 291.103862 
L 322.78398 291.14974 
L 323.78398 291.218234 
L 324.78398 291.26698 
L 325.78398 291.344577 
L 326.78398 291.375118 
L 327.78398 291.444633 
L 328.78398 291.468606 
L 329.78398 291.497227 
L 330.78398 291.53902 
L 331.78398 291.560596 
L 332.78398 291.574544 
L 333.78398 291.601267 
L 334.78398 291.610576 
L 335.78398 291.623023 
L 336.78398 291.634078 
L 337.78398 291.639743 
L 338.78398 291.644506 
L 339.78398 291.638959 
L 340.78398 291.625671 
L 341.78398 291.618153 
L 342.78398 291.593368 
L 343.78398 291.5698 
L 344.78398 291.533619 
L 345.78398 291.507657 
L 346.78398 291.485336 
L 347.78398 291.416576 
L 348.78398 291.342041 
L 349.78398 291.248061 
L 350.78398 291.197009 
L 351.78398 291.143075 
L 352.78398 291.107825 
L 353.78398 291.001737 
L 354.78398 290.949472 
L 355.78398 290.912566 
L 356.78398 290.881535 
L 357.78398 290.820379 
L 358.78398 290.752959 
L 359.78398 290.704053 
L 360.78398 290.638861 
L 361.78398 290.600674 
L 362.78398 290.558678 
L 363.78398 290.51666 
L 364.78398 290.457144 
L 365.78398 290.343984 
L 366.78398 290.291733 
L 367.78398 290.252316 
L 368.78398 290.205214 
L 369.78398 290.148435 
L 370.78398 290.115772 
L 371.78398 290.079594 
L 372.78398 290.047503 
L 373.78398 290.013223 
L 374.78398 289.954846 
L 375.78398 289.909661 
L 376.78398 289.880037 
L 377.78398 289.829651 
L 378.78398 289.804453 
L 379.78398 289.783402 
L 380.78398 289.748434 
L 381.78398 289.724144 
L 382.78398 289.710077 
L 383.78398 289.691136 
L 384.78398 289.675474 
L 385.78398 289.662922 
L 386.78398 289.657087 
L 387.78398 289.650204 
L 388.78398 289.64503 
L 389.78398 289.646813 
L 390.78398 289.649539 
L 391.78398 289.660692 
L 392.78398 289.688927 
L 393.78398 289.732715 
L 394.78398 289.753404 
L 395.78398 289.794378 
L 396.78398 289.834453 
L 397.78398 289.853563 
L 398.78398 289.876071 
L 399.78398 289.942723 
L 400.78398 289.992432 
L 401.78398 290.066139 
L 402.78398 290.097452 
L 403.78398 290.174075 
L 404.78398 290.212373 
L 405.78398 290.286489 
L 406.78398 290.390548 
L 407.78398 290.460378 
L 408.78398 290.565612 
L 409.78398 290.620627 
L 410.78398 290.744102 
L 411.78398 290.814661 
L 412.78398 290.930501 
L 413.78398 290.980681 
L 415.601697 291.016286 
" clip-path="url(#p57ce79810b)" style="fill: none; stroke: #ff7f0e; stroke-linecap: round"/>
          <path d="M 411.601697 288.644564 
L 412.482065 289.119896 
L 413.359972 289.60015 
L 414.210685 290.13479 
L 415.51286 290.822238 
L 414.585507 290.848253 
L 413.673832 291.260972 
L 412.763568 291.676511 
L 411.421072 292.283316 
L 412.075971 291.644564 
L 412.127935 290.644564 
L 412.187025 288.644564 
z
" clip-path="url(#p57ce79810b)" style="fill: #ffffff; stroke: #ffffff; stroke-width: 3; stroke-linecap: round"/>
          <path d="M 411.601697 288.644564 
L 412.482065 289.119896 
L 413.359972 289.60015 
L 414.210685 290.13479 
L 415.51286 290.822238 
L 414.585507 290.848253 
L 413.673832 291.260972 
L 412.763568 291.676511 
L 411.421072 292.283316 
L 412.075971 291.644564 
L 412.127935 290.644564 
L 412.187025 288.644564 
z
" clip-path="url(#p57ce79810b)" style="fill: #ffffff; stroke: #ff7f0e; stroke-linecap: round"/>
          <path d="M 452.77563 303.296025 
" clip-path="url(#p57ce79810b)" style="fill: none; stroke-dasharray: 3.7,1.6; stroke-dashoffset: 0; stroke: #2ca02c"/>
          <path d="M 451.77563 303.296025 
L 453.77563 304.296025 
L 453.77563 302.296025 
z
" clip-path="url(#p57ce79810b)" style="fill: #2ca02c; stroke: #2ca02c; stroke-linejoin: miter"/>
          <g id="patch_10">
           <path d="M 63.290625 321.621875 
L 63.290625 10.8 
" style="fill: none; stroke: #000000; stroke-width: 0.8; stroke-linejoin: miter; stroke-linecap: square"/>
          </g>
          <g id="text_11">
           <g id="patch_11">
            <path d="M 310.701574 153.962413 
L 332.006262 153.962413 
Q 334.006262 153.962413 334.006262 151.962413 
L 334.006262 142.284288 
Q 334.006262 140.284288 332.006262 140.284288 
L 310.701574 140.284288 
Q 308.701574 140.284288 308.701574 142.284288 
L 308.701574 151.962413 
Q 308.701574 153.962413 310.701574 153.962413 
z
" style="fill: #ffffff; opacity: 0.6"/>
           </g>
           <!-- ANC -->
           <g transform="translate(310.701574 149.882725) scale(0.1 -0.1)">
            <defs>
             <path id="DejaVuSans-4e" d="M 628 4666 
L 1478 4666 
L 3547 763 
L 3547 4666 
L 4159 4666 
L 4159 0 
L 3309 0 
L 1241 3903 
L 1241 0 
L 628 0 
L 628 4666 
z
" transform="scale(0.015625)"/>
            </defs>
            <use xlink:href="#DejaVuSans-41"/>
            <use xlink:href="#DejaVuSans-4e" x="68.408203"/>
            <use xlink:href="#DejaVuSans-43" x="143.212891"/>
           </g>
          </g>
         </g>
        </g>
        <defs>
         <clipPath id="p57ce79810b">
          <rect x="63.290625" y="10.8" width="540.309375" height="310.821875"/>
         </clipPath>
        </defs>
       </g>
      </g>
     </g>
    </g>
   </g>
  </g>
 </g>
</svg>
