<?xml version="1.0" encoding="utf-8" standalone="no"?>
<!DOCTYPE svg PUBLIC "-//W3C//DTD SVG 1.1//EN"
  "http://www.w3.org/Graphics/SVG/1.1/DTD/svg11.dtd">
<svg xmlns:xlink="http://www.w3.org/1999/xlink" width="614.4pt" height="345.6pt" viewBox="0 0 614.4 345.6" xmlns="http://www.w3.org/2000/svg" version="1.1">
 <metadata>
  <rdf:RDF xmlns:dc="http://purl.org/dc/elements/1.1/" xmlns:cc="http://creativecommons.org/ns#" xmlns:rdf="http://www.w3.org/1999/02/22-rdf-syntax-ns#">
   <cc:Work>
    <dc:type rdf:resource="http://purl.org/dc/dcmitype/StillImage"/>
    <dc:date>2024-04-17T19:48:41.509776</dc:date>
    <dc:format>image/svg+xml</dc:format>
    <dc:creator>
     <cc:Agent>
      <dc:title>Matplotlib v3.7.1, https://matplotlib.org/</dc:title>
     </cc:Agent>
    </dc:creator>
   </cc:Work>
  </rdf:RDF>
 </metadata>
 <defs>
  <style type="text/css">*{stroke-linejoin: round; stroke-linecap: butt}</style>
 </defs>
 <g id="figure_1">
  <g id="patch_1">
   <path d="M 0 345.6 
L 614.4 345.6 
L 614.4 0 
L 0 0 
z
" style="fill: #ffffff"/>
  </g>
  <g id="axes_1">
   <g id="patch_2">
    <path d="M 63.290625 321.621875 
L 603.6 321.621875 
L 603.6 10.8 
L 63.290625 10.8 
z
" style="fill: #ffffff"/>
   </g>
   <path d="M 551.057868 295.582692 
L 550.057868 295.551255 
L 549.057868 295.514315 
L 548.057868 295.416568 
L 547.057868 295.384047 
L 546.057868 295.310422 
L 545.057868 295.271856 
L 544.057868 295.236443 
L 543.057868 295.178803 
L 542.057868 295.108417 
L 541.057868 295.056453 
L 540.057868 294.997363 
L 539.057868 294.909042 
L 538.057868 294.862898 
L 537.057868 294.820487 
L 536.057868 294.789994 
L 535.057868 294.763949 
L 534.057868 294.742749 
L 533.057868 294.688448 
L 532.057868 294.660511 
L 531.057868 294.630787 
L 530.057868 294.605392 
L 529.057868 294.594191 
L 528.057868 294.584067 
L 527.057868 294.584272 
L 526.057868 294.593782 
L 525.057868 294.605435 
L 524.057868 294.636465 
L 523.057868 294.647632 
L 522.057868 294.67775 
L 521.057868 294.737527 
L 520.057868 294.774718 
L 519.057868 294.813815 
L 518.057868 294.856254 
L 517.057868 294.889019 
L 516.057868 294.956446 
L 515.057868 294.995572 
L 514.057868 295.038246 
L 513.057868 295.108827 
L 512.057868 295.145218 
L 511.057868 295.203621 
L 510.057868 295.314573 
L 509.057868 295.385232 
L 508.057868 295.498172 
L 507.057868 295.543944 
L 506.057868 295.605228 
L 505.057868 295.653727 
L 504.057868 295.73455 
L 503.057868 295.853069 
L 502.057868 295.923279 
L 501.057868 296.006542 
L 500.057868 296.039683 
L 499.057868 296.090921 
L 498.057868 296.159319 
L 497.057868 296.225535 
L 496.057868 296.302452 
L 495.057868 296.329767 
L 494.057868 296.356245 
L 493.057868 296.378895 
L 492.057868 296.398427 
L 491.057868 296.424821 
L 490.057868 296.474591 
L 489.057868 296.509665 
L 488.057868 296.54553 
L 487.057868 296.560897 
L 486.057868 296.576667 
L 485.057868 296.580079 
L 484.057868 296.582497 
L 483.057868 296.582011 
L 482.057868 296.580081 
L 481.057868 296.566825 
L 480.057868 296.558434 
L 479.057868 296.536897 
L 478.057868 296.513865 
L 477.057868 296.496631 
L 476.057868 296.478169 
L 475.057868 296.457716 
L 474.057868 296.441116 
L 473.057868 296.378338 
L 472.057868 296.303073 
L 470.40814 296.270433 
" clip-path="url(#pc9f78a95a4)" style="fill: none; stroke-dasharray: 3.7,1.6; stroke-dashoffset: 0; stroke: #2ca02c"/>
   <g id="patch_3">
    <path d="M 275.491356 10.8 
L 275.491356 235.299005 
M 390.740358 10.8 
L 390.740358 235.299005 
" clip-path="url(#pc9f78a95a4)" style="fill: none; stroke: #ffffff; stroke-width: 3; stroke-linejoin: miter"/>
    <path d="M 275.491356 10.8 
L 275.491356 235.299005 
M 390.740358 10.8 
L 390.740358 235.299005 
" clip-path="url(#pc9f78a95a4)" style="fill: none; stroke: #1f77b4; stroke-linejoin: miter"/>
    <g id="PolyCollection_1">
     <path d="M 390.740358 10.8 
L 275.491356 10.8 
L 275.491356 235.299005 
L 390.740358 235.299005 
L 390.740358 235.299005 
L 390.740358 10.8 
z
" clip-path="url(#pc9f78a95a4)" style="fill: #1f77b4; fill-opacity: 0.5"/>
    </g>
    <g id="patch_4">
     <path d="M 87.850142 235.299005 
L 87.850142 321.621875 
M 226.429273 235.299005 
L 226.429273 321.621875 
" clip-path="url(#pc9f78a95a4)" style="fill: none; stroke: #ffffff; stroke-width: 3; stroke-linejoin: miter"/>
     <path d="M 87.850142 235.299005 
L 87.850142 321.621875 
M 226.429273 235.299005 
L 226.429273 321.621875 
" clip-path="url(#pc9f78a95a4)" style="fill: none; stroke: #ff7f0e; stroke-linejoin: miter"/>
     <g id="PolyCollection_2">
      <path d="M 226.429273 235.299005 
L 87.850142 235.299005 
L 87.850142 321.621875 
L 226.429273 321.621875 
L 226.429273 321.621875 
L 226.429273 235.299005 
z
" clip-path="url(#pc9f78a95a4)" style="fill: #ff7f0e; fill-opacity: 0.5"/>
     </g>
     <g id="patch_5">
      <path d="M 556.460962 72.964375 
L 556.460962 321.621875 
M 579.040483 72.964375 
L 579.040483 321.621875 
" clip-path="url(#pc9f78a95a4)" style="fill: none; stroke: #ffffff; stroke-width: 3; stroke-linejoin: miter"/>
      <path d="M 556.460962 72.964375 
L 556.460962 321.621875 
M 579.040483 72.964375 
L 579.040483 321.621875 
" clip-path="url(#pc9f78a95a4)" style="fill: none; stroke: #2ca02c; stroke-linejoin: miter"/>
      <g id="PolyCollection_3">
       <path d="M 579.040483 72.964375 
L 556.460962 72.964375 
L 556.460962 321.621875 
L 579.040483 321.621875 
L 579.040483 321.621875 
L 579.040483 72.964375 
z
" clip-path="url(#pc9f78a95a4)" style="fill: #2ca02c; fill-opacity: 0.5"/>
      </g>
      <g id="patch_6">
       <path d="M 435.861533 267.858876 
L 435.861533 321.621875 
M 465.005046 267.858876 
L 465.005046 321.621875 
" clip-path="url(#pc9f78a95a4)" style="fill: none; stroke: #ffffff; stroke-width: 3; stroke-linejoin: miter"/>
       <path d="M 435.861533 267.858876 
L 435.861533 321.621875 
M 465.005046 267.858876 
L 465.005046 321.621875 
" clip-path="url(#pc9f78a95a4)" style="fill: none; stroke: #d62728; stroke-linejoin: miter"/>
       <g id="PolyCollection_4">
        <path d="M 465.005046 267.858876 
L 435.861533 267.858876 
L 435.861533 321.621875 
L 465.005046 321.621875 
L 465.005046 321.621875 
L 465.005046 267.858876 
z
" clip-path="url(#pc9f78a95a4)" style="fill: #d62728; fill-opacity: 0.5"/>
       </g>
       <g id="matplotlib.axis_1">
        <g id="xtick_1">
         <g id="line2d_1"/>
         <g id="text_1">
          <!-- OUT -->
          <g transform="translate(146.490489 332.720312) scale(0.1 -0.1)">
           <defs>
            <path id="DejaVuSans-4f" d="M 2522 4238 
Q 1834 4238 1429 3725 
Q 1025 3213 1025 2328 
Q 1025 1447 1429 934 
Q 1834 422 2522 422 
Q 3209 422 3611 934 
Q 4013 1447 4013 2328 
Q 4013 3213 3611 3725 
Q 3209 4238 2522 4238 
z
M 2522 4750 
Q 3503 4750 4090 4092 
Q 4678 3434 4678 2328 
Q 4678 1225 4090 567 
Q 3503 -91 2522 -91 
Q 1538 -91 948 565 
Q 359 1222 359 2328 
Q 359 3434 948 4092 
Q 1538 4750 2522 4750 
z
" transform="scale(0.015625)"/>
            <path id="DejaVuSans-55" d="M 556 4666 
L 1191 4666 
L 1191 1831 
Q 1191 1081 1462 751 
Q 1734 422 2344 422 
Q 2950 422 3222 751 
Q 3494 1081 3494 1831 
L 3494 4666 
L 4128 4666 
L 4128 1753 
Q 4128 841 3676 375 
Q 3225 -91 2344 -91 
Q 1459 -91 1007 375 
Q 556 841 556 1753 
L 556 4666 
z
" transform="scale(0.015625)"/>
            <path id="DejaVuSans-54" d="M -19 4666 
L 3928 4666 
L 3928 4134 
L 2272 4134 
L 2272 0 
L 1638 0 
L 1638 4134 
L -19 4134 
L -19 4666 
z
" transform="scale(0.015625)"/>
           </defs>
           <use xlink:href="#DejaVuSans-4f"/>
           <use xlink:href="#DejaVuSans-55" x="78.710938"/>
           <use xlink:href="#DejaVuSans-54" x="151.904297"/>
          </g>
         </g>
        </g>
        <g id="xtick_2">
         <g id="line2d_2"/>
         <g id="text_2">
          <!-- SRC -->
          <g transform="translate(557.860879 332.720312) scale(0.1 -0.1)">
           <defs>
            <path id="DejaVuSans-53" d="M 3425 4513 
L 3425 3897 
Q 3066 4069 2747 4153 
Q 2428 4238 2131 4238 
Q 1616 4238 1336 4038 
Q 1056 3838 1056 3469 
Q 1056 3159 1242 3001 
Q 1428 2844 1947 2747 
L 2328 2669 
Q 3034 2534 3370 2195 
Q 3706 1856 3706 1288 
Q 3706 609 3251 259 
Q 2797 -91 1919 -91 
Q 1588 -91 1214 -16 
Q 841 59 441 206 
L 441 856 
Q 825 641 1194 531 
Q 1563 422 1919 422 
Q 2459 422 2753 634 
Q 3047 847 3047 1241 
Q 3047 1584 2836 1778 
Q 2625 1972 2144 2069 
L 1759 2144 
Q 1053 2284 737 2584 
Q 422 2884 422 3419 
Q 422 4038 858 4394 
Q 1294 4750 2059 4750 
Q 2388 4750 2728 4690 
Q 3069 4631 3425 4513 
z
" transform="scale(0.015625)"/>
            <path id="DejaVuSans-52" d="M 2841 2188 
Q 3044 2119 3236 1894 
Q 3428 1669 3622 1275 
L 4263 0 
L 3584 0 
L 2988 1197 
Q 2756 1666 2539 1819 
Q 2322 1972 1947 1972 
L 1259 1972 
L 1259 0 
L 628 0 
L 628 4666 
L 2053 4666 
Q 2853 4666 3247 4331 
Q 3641 3997 3641 3322 
Q 3641 2881 3436 2590 
Q 3231 2300 2841 2188 
z
M 1259 4147 
L 1259 2491 
L 2053 2491 
Q 2509 2491 2742 2702 
Q 2975 2913 2975 3322 
Q 2975 3731 2742 3939 
Q 2509 4147 2053 4147 
L 1259 4147 
z
" transform="scale(0.015625)"/>
            <path id="DejaVuSans-43" d="M 4122 4306 
L 4122 3641 
Q 3803 3938 3442 4084 
Q 3081 4231 2675 4231 
Q 1875 4231 1450 3742 
Q 1025 3253 1025 2328 
Q 1025 1406 1450 917 
Q 1875 428 2675 428 
Q 3081 428 3442 575 
Q 3803 722 4122 1019 
L 4122 359 
Q 3791 134 3420 21 
Q 3050 -91 2638 -91 
Q 1578 -91 968 557 
Q 359 1206 359 2328 
Q 359 3453 968 4101 
Q 1578 4750 2638 4750 
Q 3056 4750 3426 4639 
Q 3797 4528 4122 4306 
z
" transform="scale(0.015625)"/>
           </defs>
           <use xlink:href="#DejaVuSans-53"/>
           <use xlink:href="#DejaVuSans-52" x="63.476562"/>
           <use xlink:href="#DejaVuSans-43" x="127.958984"/>
          </g>
         </g>
        </g>
        <g id="xtick_3">
         <g id="line2d_3"/>
         <g id="text_3">
          <!-- TAR -->
          <g transform="translate(440.872352 332.720312) scale(0.1 -0.1)">
           <defs>
            <path id="DejaVuSans-41" d="M 2188 4044 
L 1331 1722 
L 3047 1722 
L 2188 4044 
z
M 1831 4666 
L 2547 4666 
L 4325 0 
L 3669 0 
L 3244 1197 
L 1141 1197 
L 716 0 
L 50 0 
L 1831 4666 
z
" transform="scale(0.015625)"/>
           </defs>
           <use xlink:href="#DejaVuSans-54"/>
           <use xlink:href="#DejaVuSans-41" x="53.333984"/>
           <use xlink:href="#DejaVuSans-52" x="121.742188"/>
          </g>
         </g>
        </g>
       </g>
       <g id="matplotlib.axis_2">
        <g id="ytick_1">
         <g id="line2d_4">
          <defs>
           <path id="m54c2be9afe" d="M 0 0 
L -3.5 0 
" style="stroke: #000000; stroke-width: 0.8"/>
          </defs>
          <g>
           <use xlink:href="#m54c2be9afe" x="63.290625" y="321.621875" style="stroke: #000000; stroke-width: 0.8"/>
          </g>
         </g>
         <g id="text_4">
          <!-- 0 -->
          <g transform="translate(49.928125 325.421094) scale(0.1 -0.1)">
           <defs>
            <path id="DejaVuSans-30" d="M 2034 4250 
Q 1547 4250 1301 3770 
Q 1056 3291 1056 2328 
Q 1056 1369 1301 889 
Q 1547 409 2034 409 
Q 2525 409 2770 889 
Q 3016 1369 3016 2328 
Q 3016 3291 2770 3770 
Q 2525 4250 2034 4250 
z
M 2034 4750 
Q 2819 4750 3233 4129 
Q 3647 3509 3647 2328 
Q 3647 1150 3233 529 
Q 2819 -91 2034 -91 
Q 1250 -91 836 529 
Q 422 1150 422 2328 
Q 422 3509 836 4129 
Q 1250 4750 2034 4750 
z
" transform="scale(0.015625)"/>
           </defs>
           <use xlink:href="#DejaVuSans-30"/>
          </g>
         </g>
        </g>
        <g id="ytick_2">
         <g id="line2d_5">
          <g>
           <use xlink:href="#m54c2be9afe" x="63.290625" y="285.31515" style="stroke: #000000; stroke-width: 0.8"/>
          </g>
         </g>
         <g id="text_5">
          <!-- 2500 -->
          <g transform="translate(30.840625 289.114368) scale(0.1 -0.1)">
           <defs>
            <path id="DejaVuSans-32" d="M 1228 531 
L 3431 531 
L 3431 0 
L 469 0 
L 469 531 
Q 828 903 1448 1529 
Q 2069 2156 2228 2338 
Q 2531 2678 2651 2914 
Q 2772 3150 2772 3378 
Q 2772 3750 2511 3984 
Q 2250 4219 1831 4219 
Q 1534 4219 1204 4116 
Q 875 4013 500 3803 
L 500 4441 
Q 881 4594 1212 4672 
Q 1544 4750 1819 4750 
Q 2544 4750 2975 4387 
Q 3406 4025 3406 3419 
Q 3406 3131 3298 2873 
Q 3191 2616 2906 2266 
Q 2828 2175 2409 1742 
Q 1991 1309 1228 531 
z
" transform="scale(0.015625)"/>
            <path id="DejaVuSans-35" d="M 691 4666 
L 3169 4666 
L 3169 4134 
L 1269 4134 
L 1269 2991 
Q 1406 3038 1543 3061 
Q 1681 3084 1819 3084 
Q 2600 3084 3056 2656 
Q 3513 2228 3513 1497 
Q 3513 744 3044 326 
Q 2575 -91 1722 -91 
Q 1428 -91 1123 -41 
Q 819 9 494 109 
L 494 744 
Q 775 591 1075 516 
Q 1375 441 1709 441 
Q 2250 441 2565 725 
Q 2881 1009 2881 1497 
Q 2881 1984 2565 2268 
Q 2250 2553 1709 2553 
Q 1456 2553 1204 2497 
Q 953 2441 691 2322 
L 691 4666 
z
" transform="scale(0.015625)"/>
           </defs>
           <use xlink:href="#DejaVuSans-32"/>
           <use xlink:href="#DejaVuSans-35" x="63.623047"/>
           <use xlink:href="#DejaVuSans-30" x="127.246094"/>
           <use xlink:href="#DejaVuSans-30" x="190.869141"/>
          </g>
         </g>
        </g>
        <g id="ytick_3">
         <g id="line2d_6">
          <g>
           <use xlink:href="#m54c2be9afe" x="63.290625" y="249.008424" style="stroke: #000000; stroke-width: 0.8"/>
          </g>
         </g>
         <g id="text_6">
          <!-- 5000 -->
          <g transform="translate(30.840625 252.807643) scale(0.1 -0.1)">
           <use xlink:href="#DejaVuSans-35"/>
           <use xlink:href="#DejaVuSans-30" x="63.623047"/>
           <use xlink:href="#DejaVuSans-30" x="127.246094"/>
           <use xlink:href="#DejaVuSans-30" x="190.869141"/>
          </g>
         </g>
        </g>
        <g id="ytick_4">
         <g id="line2d_7">
          <g>
           <use xlink:href="#m54c2be9afe" x="63.290625" y="212.701699" style="stroke: #000000; stroke-width: 0.8"/>
          </g>
         </g>
         <g id="text_7">
          <!-- 7500 -->
          <g transform="translate(30.840625 216.500918) scale(0.1 -0.1)">
           <defs>
            <path id="DejaVuSans-37" d="M 525 4666 
L 3525 4666 
L 3525 4397 
L 1831 0 
L 1172 0 
L 2766 4134 
L 525 4134 
L 525 4666 
z
" transform="scale(0.015625)"/>
           </defs>
           <use xlink:href="#DejaVuSans-37"/>
           <use xlink:href="#DejaVuSans-35" x="63.623047"/>
           <use xlink:href="#DejaVuSans-30" x="127.246094"/>
           <use xlink:href="#DejaVuSans-30" x="190.869141"/>
          </g>
         </g>
        </g>
        <g id="ytick_5">
         <g id="line2d_8">
          <g>
           <use xlink:href="#m54c2be9afe" x="63.290625" y="176.394974" style="stroke: #000000; stroke-width: 0.8"/>
          </g>
         </g>
         <g id="text_8">
          <!-- 10000 -->
          <g transform="translate(24.478125 180.194193) scale(0.1 -0.1)">
           <defs>
            <path id="DejaVuSans-31" d="M 794 531 
L 1825 531 
L 1825 4091 
L 703 3866 
L 703 4441 
L 1819 4666 
L 2450 4666 
L 2450 531 
L 3481 531 
L 3481 0 
L 794 0 
L 794 531 
z
" transform="scale(0.015625)"/>
           </defs>
           <use xlink:href="#DejaVuSans-31"/>
           <use xlink:href="#DejaVuSans-30" x="63.623047"/>
           <use xlink:href="#DejaVuSans-30" x="127.246094"/>
           <use xlink:href="#DejaVuSans-30" x="190.869141"/>
           <use xlink:href="#DejaVuSans-30" x="254.492188"/>
          </g>
         </g>
        </g>
        <g id="ytick_6">
         <g id="line2d_9">
          <g>
           <use xlink:href="#m54c2be9afe" x="63.290625" y="140.088249" style="stroke: #000000; stroke-width: 0.8"/>
          </g>
         </g>
         <g id="text_9">
          <!-- 12500 -->
          <g transform="translate(24.478125 143.887467) scale(0.1 -0.1)">
           <use xlink:href="#DejaVuSans-31"/>
           <use xlink:href="#DejaVuSans-32" x="63.623047"/>
           <use xlink:href="#DejaVuSans-35" x="127.246094"/>
           <use xlink:href="#DejaVuSans-30" x="190.869141"/>
           <use xlink:href="#DejaVuSans-30" x="254.492188"/>
          </g>
         </g>
        </g>
        <g id="ytick_7">
         <g id="line2d_10">
          <g>
           <use xlink:href="#m54c2be9afe" x="63.290625" y="103.781523" style="stroke: #000000; stroke-width: 0.8"/>
          </g>
         </g>
         <g id="text_10">
          <!-- 15000 -->
          <g transform="translate(24.478125 107.580742) scale(0.1 -0.1)">
           <use xlink:href="#DejaVuSans-31"/>
           <use xlink:href="#DejaVuSans-35" x="63.623047"/>
           <use xlink:href="#DejaVuSans-30" x="127.246094"/>
           <use xlink:href="#DejaVuSans-30" x="190.869141"/>
           <use xlink:href="#DejaVuSans-30" x="254.492188"/>
          </g>
         </g>
        </g>
        <g id="ytick_8">
         <g id="line2d_11">
          <g>
           <use xlink:href="#m54c2be9afe" x="63.290625" y="67.474798" style="stroke: #000000; stroke-width: 0.8"/>
          </g>
         </g>
         <g id="text_11">
          <!-- 17500 -->
          <g transform="translate(24.478125 71.274017) scale(0.1 -0.1)">
           <use xlink:href="#DejaVuSans-31"/>
           <use xlink:href="#DejaVuSans-37" x="63.623047"/>
           <use xlink:href="#DejaVuSans-35" x="127.246094"/>
           <use xlink:href="#DejaVuSans-30" x="190.869141"/>
           <use xlink:href="#DejaVuSans-30" x="254.492188"/>
          </g>
         </g>
        </g>
        <g id="ytick_9">
         <g id="line2d_12">
          <g>
           <use xlink:href="#m54c2be9afe" x="63.290625" y="31.168073" style="stroke: #000000; stroke-width: 0.8"/>
          </g>
         </g>
         <g id="text_12">
          <!-- 20000 -->
          <g transform="translate(24.478125 34.967292) scale(0.1 -0.1)">
           <use xlink:href="#DejaVuSans-32"/>
           <use xlink:href="#DejaVuSans-30" x="63.623047"/>
           <use xlink:href="#DejaVuSans-30" x="127.246094"/>
           <use xlink:href="#DejaVuSans-30" x="190.869141"/>
           <use xlink:href="#DejaVuSans-30" x="254.492188"/>
          </g>
         </g>
        </g>
        <g id="text_13">
         <!-- time ago (generations) -->
         <g transform="translate(18.398438 223.682031) rotate(-90) scale(0.1 -0.1)">
          <defs>
           <path id="DejaVuSans-74" d="M 1172 4494 
L 1172 3500 
L 2356 3500 
L 2356 3053 
L 1172 3053 
L 1172 1153 
Q 1172 725 1289 603 
Q 1406 481 1766 481 
L 2356 481 
L 2356 0 
L 1766 0 
Q 1100 0 847 248 
Q 594 497 594 1153 
L 594 3053 
L 172 3053 
L 172 3500 
L 594 3500 
L 594 4494 
L 1172 4494 
z
" transform="scale(0.015625)"/>
           <path id="DejaVuSans-69" d="M 603 3500 
L 1178 3500 
L 1178 0 
L 603 0 
L 603 3500 
z
M 603 4863 
L 1178 4863 
L 1178 4134 
L 603 4134 
L 603 4863 
z
" transform="scale(0.015625)"/>
           <path id="DejaVuSans-6d" d="M 3328 2828 
Q 3544 3216 3844 3400 
Q 4144 3584 4550 3584 
Q 5097 3584 5394 3201 
Q 5691 2819 5691 2113 
L 5691 0 
L 5113 0 
L 5113 2094 
Q 5113 2597 4934 2840 
Q 4756 3084 4391 3084 
Q 3944 3084 3684 2787 
Q 3425 2491 3425 1978 
L 3425 0 
L 2847 0 
L 2847 2094 
Q 2847 2600 2669 2842 
Q 2491 3084 2119 3084 
Q 1678 3084 1418 2786 
Q 1159 2488 1159 1978 
L 1159 0 
L 581 0 
L 581 3500 
L 1159 3500 
L 1159 2956 
Q 1356 3278 1631 3431 
Q 1906 3584 2284 3584 
Q 2666 3584 2933 3390 
Q 3200 3197 3328 2828 
z
" transform="scale(0.015625)"/>
           <path id="DejaVuSans-65" d="M 3597 1894 
L 3597 1613 
L 953 1613 
Q 991 1019 1311 708 
Q 1631 397 2203 397 
Q 2534 397 2845 478 
Q 3156 559 3463 722 
L 3463 178 
Q 3153 47 2828 -22 
Q 2503 -91 2169 -91 
Q 1331 -91 842 396 
Q 353 884 353 1716 
Q 353 2575 817 3079 
Q 1281 3584 2069 3584 
Q 2775 3584 3186 3129 
Q 3597 2675 3597 1894 
z
M 3022 2063 
Q 3016 2534 2758 2815 
Q 2500 3097 2075 3097 
Q 1594 3097 1305 2825 
Q 1016 2553 972 2059 
L 3022 2063 
z
" transform="scale(0.015625)"/>
           <path id="DejaVuSans-20" transform="scale(0.015625)"/>
           <path id="DejaVuSans-61" d="M 2194 1759 
Q 1497 1759 1228 1600 
Q 959 1441 959 1056 
Q 959 750 1161 570 
Q 1363 391 1709 391 
Q 2188 391 2477 730 
Q 2766 1069 2766 1631 
L 2766 1759 
L 2194 1759 
z
M 3341 1997 
L 3341 0 
L 2766 0 
L 2766 531 
Q 2569 213 2275 61 
Q 1981 -91 1556 -91 
Q 1019 -91 701 211 
Q 384 513 384 1019 
Q 384 1609 779 1909 
Q 1175 2209 1959 2209 
L 2766 2209 
L 2766 2266 
Q 2766 2663 2505 2880 
Q 2244 3097 1772 3097 
Q 1472 3097 1187 3025 
Q 903 2953 641 2809 
L 641 3341 
Q 956 3463 1253 3523 
Q 1550 3584 1831 3584 
Q 2591 3584 2966 3190 
Q 3341 2797 3341 1997 
z
" transform="scale(0.015625)"/>
           <path id="DejaVuSans-67" d="M 2906 1791 
Q 2906 2416 2648 2759 
Q 2391 3103 1925 3103 
Q 1463 3103 1205 2759 
Q 947 2416 947 1791 
Q 947 1169 1205 825 
Q 1463 481 1925 481 
Q 2391 481 2648 825 
Q 2906 1169 2906 1791 
z
M 3481 434 
Q 3481 -459 3084 -895 
Q 2688 -1331 1869 -1331 
Q 1566 -1331 1297 -1286 
Q 1028 -1241 775 -1147 
L 775 -588 
Q 1028 -725 1275 -790 
Q 1522 -856 1778 -856 
Q 2344 -856 2625 -561 
Q 2906 -266 2906 331 
L 2906 616 
Q 2728 306 2450 153 
Q 2172 0 1784 0 
Q 1141 0 747 490 
Q 353 981 353 1791 
Q 353 2603 747 3093 
Q 1141 3584 1784 3584 
Q 2172 3584 2450 3431 
Q 2728 3278 2906 2969 
L 2906 3500 
L 3481 3500 
L 3481 434 
z
" transform="scale(0.015625)"/>
           <path id="DejaVuSans-6f" d="M 1959 3097 
Q 1497 3097 1228 2736 
Q 959 2375 959 1747 
Q 959 1119 1226 758 
Q 1494 397 1959 397 
Q 2419 397 2687 759 
Q 2956 1122 2956 1747 
Q 2956 2369 2687 2733 
Q 2419 3097 1959 3097 
z
M 1959 3584 
Q 2709 3584 3137 3096 
Q 3566 2609 3566 1747 
Q 3566 888 3137 398 
Q 2709 -91 1959 -91 
Q 1206 -91 779 398 
Q 353 888 353 1747 
Q 353 2609 779 3096 
Q 1206 3584 1959 3584 
z
" transform="scale(0.015625)"/>
           <path id="DejaVuSans-28" d="M 1984 4856 
Q 1566 4138 1362 3434 
Q 1159 2731 1159 2009 
Q 1159 1288 1364 580 
Q 1569 -128 1984 -844 
L 1484 -844 
Q 1016 -109 783 600 
Q 550 1309 550 2009 
Q 550 2706 781 3412 
Q 1013 4119 1484 4856 
L 1984 4856 
z
" transform="scale(0.015625)"/>
           <path id="DejaVuSans-6e" d="M 3513 2113 
L 3513 0 
L 2938 0 
L 2938 2094 
Q 2938 2591 2744 2837 
Q 2550 3084 2163 3084 
Q 1697 3084 1428 2787 
Q 1159 2491 1159 1978 
L 1159 0 
L 581 0 
L 581 3500 
L 1159 3500 
L 1159 2956 
Q 1366 3272 1645 3428 
Q 1925 3584 2291 3584 
Q 2894 3584 3203 3211 
Q 3513 2838 3513 2113 
z
" transform="scale(0.015625)"/>
           <path id="DejaVuSans-72" d="M 2631 2963 
Q 2534 3019 2420 3045 
Q 2306 3072 2169 3072 
Q 1681 3072 1420 2755 
Q 1159 2438 1159 1844 
L 1159 0 
L 581 0 
L 581 3500 
L 1159 3500 
L 1159 2956 
Q 1341 3275 1631 3429 
Q 1922 3584 2338 3584 
Q 2397 3584 2469 3576 
Q 2541 3569 2628 3553 
L 2631 2963 
z
" transform="scale(0.015625)"/>
           <path id="DejaVuSans-73" d="M 2834 3397 
L 2834 2853 
Q 2591 2978 2328 3040 
Q 2066 3103 1784 3103 
Q 1356 3103 1142 2972 
Q 928 2841 928 2578 
Q 928 2378 1081 2264 
Q 1234 2150 1697 2047 
L 1894 2003 
Q 2506 1872 2764 1633 
Q 3022 1394 3022 966 
Q 3022 478 2636 193 
Q 2250 -91 1575 -91 
Q 1294 -91 989 -36 
Q 684 19 347 128 
L 347 722 
Q 666 556 975 473 
Q 1284 391 1588 391 
Q 1994 391 2212 530 
Q 2431 669 2431 922 
Q 2431 1156 2273 1281 
Q 2116 1406 1581 1522 
L 1381 1569 
Q 847 1681 609 1914 
Q 372 2147 372 2553 
Q 372 3047 722 3315 
Q 1072 3584 1716 3584 
Q 2034 3584 2315 3537 
Q 2597 3491 2834 3397 
z
" transform="scale(0.015625)"/>
           <path id="DejaVuSans-29" d="M 513 4856 
L 1013 4856 
Q 1481 4119 1714 3412 
Q 1947 2706 1947 2009 
Q 1947 1309 1714 600 
Q 1481 -109 1013 -844 
L 513 -844 
Q 928 -128 1133 580 
Q 1338 1288 1338 2009 
Q 1338 2731 1133 3434 
Q 928 4138 513 4856 
z
" transform="scale(0.015625)"/>
          </defs>
          <use xlink:href="#DejaVuSans-74"/>
          <use xlink:href="#DejaVuSans-69" x="39.208984"/>
          <use xlink:href="#DejaVuSans-6d" x="66.992188"/>
          <use xlink:href="#DejaVuSans-65" x="164.404297"/>
          <use xlink:href="#DejaVuSans-20" x="225.927734"/>
          <use xlink:href="#DejaVuSans-61" x="257.714844"/>
          <use xlink:href="#DejaVuSans-67" x="318.994141"/>
          <use xlink:href="#DejaVuSans-6f" x="382.470703"/>
          <use xlink:href="#DejaVuSans-20" x="443.652344"/>
          <use xlink:href="#DejaVuSans-28" x="475.439453"/>
          <use xlink:href="#DejaVuSans-67" x="514.453125"/>
          <use xlink:href="#DejaVuSans-65" x="577.929688"/>
          <use xlink:href="#DejaVuSans-6e" x="639.453125"/>
          <use xlink:href="#DejaVuSans-65" x="702.832031"/>
          <use xlink:href="#DejaVuSans-72" x="764.355469"/>
          <use xlink:href="#DejaVuSans-61" x="805.46875"/>
          <use xlink:href="#DejaVuSans-74" x="866.748047"/>
          <use xlink:href="#DejaVuSans-69" x="905.957031"/>
          <use xlink:href="#DejaVuSans-6f" x="933.740234"/>
          <use xlink:href="#DejaVuSans-6e" x="994.921875"/>
          <use xlink:href="#DejaVuSans-73" x="1058.300781"/>
          <use xlink:href="#DejaVuSans-29" x="1110.400391"/>
         </g>
        </g>
       </g>
       <g id="patch_7">
        <path d="M 273.494017 235.299005 
L 272.494017 235.267569 
L 271.494017 235.230628 
L 270.494017 235.132882 
L 269.494017 235.10036 
L 268.494017 235.026735 
L 267.494017 234.98817 
L 266.494017 234.952757 
L 265.494017 234.895117 
L 264.494017 234.824731 
L 263.494017 234.772766 
L 262.494017 234.713677 
L 261.494017 234.625356 
L 260.494017 234.579211 
L 259.494017 234.5368 
L 258.494017 234.506308 
L 257.494017 234.480263 
L 256.494017 234.459063 
L 255.494017 234.404762 
L 254.494017 234.376824 
L 253.494017 234.3471 
L 252.494017 234.321705 
L 251.494017 234.310505 
L 250.494017 234.300381 
L 249.494017 234.300585 
L 248.494017 234.310095 
L 247.494017 234.321749 
L 246.494017 234.352778 
L 245.494017 234.363946 
L 244.494017 234.394063 
L 243.494017 234.45384 
L 242.494017 234.491032 
L 241.494017 234.530128 
L 240.494017 234.572568 
L 239.494017 234.605333 
L 238.494017 234.672759 
L 237.494017 234.711885 
L 236.494017 234.75456 
L 235.494017 234.82514 
L 234.494017 234.861531 
L 233.494017 234.919934 
L 232.494017 235.030887 
L 231.494017 235.101545 
L 229.549512 235.214485 
" clip-path="url(#pc9f78a95a4)" style="fill: none; stroke: #ffffff; stroke-width: 3; stroke-linecap: round"/>
        <path d="M 273.494017 235.299005 
L 272.494017 235.267569 
L 271.494017 235.230628 
L 270.494017 235.132882 
L 269.494017 235.10036 
L 268.494017 235.026735 
L 267.494017 234.98817 
L 266.494017 234.952757 
L 265.494017 234.895117 
L 264.494017 234.824731 
L 263.494017 234.772766 
L 262.494017 234.713677 
L 261.494017 234.625356 
L 260.494017 234.579211 
L 259.494017 234.5368 
L 258.494017 234.506308 
L 257.494017 234.480263 
L 256.494017 234.459063 
L 255.494017 234.404762 
L 254.494017 234.376824 
L 253.494017 234.3471 
L 252.494017 234.321705 
L 251.494017 234.310505 
L 250.494017 234.300381 
L 249.494017 234.300585 
L 248.494017 234.310095 
L 247.494017 234.321749 
L 246.494017 234.352778 
L 245.494017 234.363946 
L 244.494017 234.394063 
L 243.494017 234.45384 
L 242.494017 234.491032 
L 241.494017 234.530128 
L 240.494017 234.572568 
L 239.494017 234.605333 
L 238.494017 234.672759 
L 237.494017 234.711885 
L 236.494017 234.75456 
L 235.494017 234.82514 
L 234.494017 234.861531 
L 233.494017 234.919934 
L 232.494017 235.030887 
L 231.494017 235.101545 
L 229.549512 235.214485 
" clip-path="url(#pc9f78a95a4)" style="fill: none; stroke: #1f77b4; stroke-linecap: round"/>
        <path d="M 233.549512 237.299005 
L 232.669144 236.823674 
L 231.791237 236.34342 
L 230.940523 235.808779 
L 229.638349 235.121332 
L 230.565702 235.095317 
L 231.477376 234.682597 
L 232.387641 234.267058 
L 233.730137 233.660254 
L 233.075238 234.299005 
L 233.023274 235.299005 
L 232.964184 237.299005 
z
" clip-path="url(#pc9f78a95a4)" style="fill: #ffffff; stroke: #ffffff; stroke-width: 3; stroke-linecap: round"/>
        <path d="M 233.549512 237.299005 
L 232.669144 236.823674 
L 231.791237 236.34342 
L 230.940523 235.808779 
L 229.638349 235.121332 
L 230.565702 235.095317 
L 231.477376 234.682597 
L 232.387641 234.267058 
L 233.730137 233.660254 
L 233.075238 234.299005 
L 233.023274 235.299005 
L 232.964184 237.299005 
z
" clip-path="url(#pc9f78a95a4)" style="fill: #ffffff; stroke: #1f77b4; stroke-linecap: round"/>
        <g id="patch_8">
         <path d="M 392.740556 72.964375 
L 393.740556 72.995811 
L 394.740556 73.032752 
L 395.740556 73.130498 
L 396.740556 73.16302 
L 397.740556 73.236645 
L 398.740556 73.27521 
L 399.740556 73.310623 
L 400.740556 73.368263 
L 401.740556 73.438649 
L 402.740556 73.490614 
L 403.740556 73.549703 
L 404.740556 73.638024 
L 405.740556 73.684169 
L 406.740556 73.72658 
L 407.740556 73.757072 
L 408.740556 73.783117 
L 409.740556 73.804317 
L 410.740556 73.858618 
L 411.740556 73.886556 
L 412.740556 73.91628 
L 413.740556 73.941675 
L 414.740556 73.952875 
L 415.740556 73.962999 
L 416.740556 73.962795 
L 417.740556 73.953285 
L 418.740556 73.941631 
L 419.740556 73.910602 
L 420.740556 73.899434 
L 421.740556 73.869317 
L 422.740556 73.80954 
L 423.740556 73.772348 
L 424.740556 73.733252 
L 425.740556 73.690812 
L 426.740556 73.658047 
L 427.740556 73.590621 
L 428.740556 73.551495 
L 429.740556 73.50882 
L 430.740556 73.43824 
L 431.740556 73.401849 
L 432.740556 73.343446 
L 433.740556 73.232493 
L 434.740556 73.161835 
L 435.740556 73.048895 
L 436.740556 73.003122 
L 437.740556 72.941839 
L 438.740556 72.89334 
L 439.740556 72.812517 
L 440.740556 72.693998 
L 441.740556 72.623787 
L 442.740556 72.540525 
L 443.740556 72.507383 
L 444.740556 72.456146 
L 445.740556 72.387747 
L 446.740556 72.321532 
L 447.740556 72.244615 
L 448.740556 72.217299 
L 449.740556 72.190822 
L 450.740556 72.168171 
L 451.740556 72.14864 
L 452.740556 72.122246 
L 453.740556 72.072475 
L 454.740556 72.037402 
L 455.740556 72.001536 
L 456.740556 71.986169 
L 457.740556 71.9704 
L 458.740556 71.966987 
L 459.740556 71.96457 
L 460.740556 71.965056 
L 461.740556 71.966985 
L 462.740556 71.980242 
L 463.740556 71.988633 
L 464.740556 72.010169 
L 465.740556 72.033202 
L 466.740556 72.050435 
L 467.740556 72.068898 
L 468.740556 72.08935 
L 469.740556 72.10595 
L 470.740556 72.168729 
L 471.740556 72.243994 
L 472.740556 72.276633 
L 473.740556 72.344197 
L 474.740556 72.398244 
L 475.740556 72.431948 
L 476.740556 72.522074 
L 477.740556 72.550609 
L 478.740556 72.582095 
L 479.740556 72.613106 
L 480.740556 72.667914 
L 481.740556 72.732501 
L 482.740556 72.770697 
L 483.740556 72.866631 
L 484.740556 72.915889 
L 485.740556 72.959958 
L 486.740556 73.000082 
L 487.740556 73.108449 
L 488.740556 73.150077 
L 489.740556 73.212219 
L 490.740556 73.282181 
L 491.740556 73.386685 
L 492.740556 73.423673 
L 493.740556 73.46955 
L 494.740556 73.538045 
L 495.740556 73.586791 
L 496.740556 73.664388 
L 497.740556 73.694929 
L 498.740556 73.764443 
L 499.740556 73.788416 
L 500.740556 73.817038 
L 501.740556 73.858831 
L 502.740556 73.880407 
L 503.740556 73.894355 
L 504.740556 73.921077 
L 505.740556 73.930387 
L 506.740556 73.942834 
L 507.740556 73.953889 
L 508.740556 73.959553 
L 509.740556 73.964317 
L 510.740556 73.958769 
L 511.740556 73.945481 
L 512.740556 73.937964 
L 513.740556 73.913179 
L 514.740556 73.88961 
L 515.740556 73.85343 
L 516.740556 73.827468 
L 517.740556 73.805146 
L 518.740556 73.736386 
L 519.740556 73.661851 
L 520.740556 73.567872 
L 521.740556 73.51682 
L 522.740556 73.462886 
L 523.740556 73.427635 
L 524.740556 73.321547 
L 525.740556 73.269283 
L 526.740556 73.232376 
L 527.740556 73.201345 
L 528.740556 73.14019 
L 529.740556 73.07277 
L 530.740556 73.023864 
L 531.740556 72.958672 
L 532.740556 72.920484 
L 533.740556 72.878488 
L 534.740556 72.836471 
L 535.740556 72.776955 
L 536.740556 72.663795 
L 537.740556 72.611544 
L 538.740556 72.572126 
L 539.740556 72.525025 
L 540.740556 72.468245 
L 541.740556 72.435582 
L 542.740556 72.399404 
L 543.740556 72.367314 
L 544.740556 72.333034 
L 545.740556 72.274656 
L 546.740556 72.229471 
L 547.740556 72.199847 
L 548.740556 72.149461 
L 549.740556 72.124264 
L 550.740556 72.103213 
L 551.740556 72.068245 
L 553.339391 72.043955 
" clip-path="url(#pc9f78a95a4)" style="fill: none; stroke: #ffffff; stroke-width: 3; stroke-linecap: round"/>
         <path d="M 392.740556 72.964375 
L 393.740556 72.995811 
L 394.740556 73.032752 
L 395.740556 73.130498 
L 396.740556 73.16302 
L 397.740556 73.236645 
L 398.740556 73.27521 
L 399.740556 73.310623 
L 400.740556 73.368263 
L 401.740556 73.438649 
L 402.740556 73.490614 
L 403.740556 73.549703 
L 404.740556 73.638024 
L 405.740556 73.684169 
L 406.740556 73.72658 
L 407.740556 73.757072 
L 408.740556 73.783117 
L 409.740556 73.804317 
L 410.740556 73.858618 
L 411.740556 73.886556 
L 412.740556 73.91628 
L 413.740556 73.941675 
L 414.740556 73.952875 
L 415.740556 73.962999 
L 416.740556 73.962795 
L 417.740556 73.953285 
L 418.740556 73.941631 
L 419.740556 73.910602 
L 420.740556 73.899434 
L 421.740556 73.869317 
L 422.740556 73.80954 
L 423.740556 73.772348 
L 424.740556 73.733252 
L 425.740556 73.690812 
L 426.740556 73.658047 
L 427.740556 73.590621 
L 428.740556 73.551495 
L 429.740556 73.50882 
L 430.740556 73.43824 
L 431.740556 73.401849 
L 432.740556 73.343446 
L 433.740556 73.232493 
L 434.740556 73.161835 
L 435.740556 73.048895 
L 436.740556 73.003122 
L 437.740556 72.941839 
L 438.740556 72.89334 
L 439.740556 72.812517 
L 440.740556 72.693998 
L 441.740556 72.623787 
L 442.740556 72.540525 
L 443.740556 72.507383 
L 444.740556 72.456146 
L 445.740556 72.387747 
L 446.740556 72.321532 
L 447.740556 72.244615 
L 448.740556 72.217299 
L 449.740556 72.190822 
L 450.740556 72.168171 
L 451.740556 72.14864 
L 452.740556 72.122246 
L 453.740556 72.072475 
L 454.740556 72.037402 
L 455.740556 72.001536 
L 456.740556 71.986169 
L 457.740556 71.9704 
L 458.740556 71.966987 
L 459.740556 71.96457 
L 460.740556 71.965056 
L 461.740556 71.966985 
L 462.740556 71.980242 
L 463.740556 71.988633 
L 464.740556 72.010169 
L 465.740556 72.033202 
L 466.740556 72.050435 
L 467.740556 72.068898 
L 468.740556 72.08935 
L 469.740556 72.10595 
L 470.740556 72.168729 
L 471.740556 72.243994 
L 472.740556 72.276633 
L 473.740556 72.344197 
L 474.740556 72.398244 
L 475.740556 72.431948 
L 476.740556 72.522074 
L 477.740556 72.550609 
L 478.740556 72.582095 
L 479.740556 72.613106 
L 480.740556 72.667914 
L 481.740556 72.732501 
L 482.740556 72.770697 
L 483.740556 72.866631 
L 484.740556 72.915889 
L 485.740556 72.959958 
L 486.740556 73.000082 
L 487.740556 73.108449 
L 488.740556 73.150077 
L 489.740556 73.212219 
L 490.740556 73.282181 
L 491.740556 73.386685 
L 492.740556 73.423673 
L 493.740556 73.46955 
L 494.740556 73.538045 
L 495.740556 73.586791 
L 496.740556 73.664388 
L 497.740556 73.694929 
L 498.740556 73.764443 
L 499.740556 73.788416 
L 500.740556 73.817038 
L 501.740556 73.858831 
L 502.740556 73.880407 
L 503.740556 73.894355 
L 504.740556 73.921077 
L 505.740556 73.930387 
L 506.740556 73.942834 
L 507.740556 73.953889 
L 508.740556 73.959553 
L 509.740556 73.964317 
L 510.740556 73.958769 
L 511.740556 73.945481 
L 512.740556 73.937964 
L 513.740556 73.913179 
L 514.740556 73.88961 
L 515.740556 73.85343 
L 516.740556 73.827468 
L 517.740556 73.805146 
L 518.740556 73.736386 
L 519.740556 73.661851 
L 520.740556 73.567872 
L 521.740556 73.51682 
L 522.740556 73.462886 
L 523.740556 73.427635 
L 524.740556 73.321547 
L 525.740556 73.269283 
L 526.740556 73.232376 
L 527.740556 73.201345 
L 528.740556 73.14019 
L 529.740556 73.07277 
L 530.740556 73.023864 
L 531.740556 72.958672 
L 532.740556 72.920484 
L 533.740556 72.878488 
L 534.740556 72.836471 
L 535.740556 72.776955 
L 536.740556 72.663795 
L 537.740556 72.611544 
L 538.740556 72.572126 
L 539.740556 72.525025 
L 540.740556 72.468245 
L 541.740556 72.435582 
L 542.740556 72.399404 
L 543.740556 72.367314 
L 544.740556 72.333034 
L 545.740556 72.274656 
L 546.740556 72.229471 
L 547.740556 72.199847 
L 548.740556 72.149461 
L 549.740556 72.124264 
L 550.740556 72.103213 
L 551.740556 72.068245 
L 553.339391 72.043955 
" clip-path="url(#pc9f78a95a4)" style="fill: none; stroke: #1f77b4; stroke-linecap: round"/>
         <path d="M 549.339391 70.964375 
L 550.21976 71.439706 
L 551.097667 71.91996 
L 551.94838 72.454601 
L 553.250554 73.142048 
L 552.323201 73.168063 
L 551.411527 73.580783 
L 550.501263 73.996322 
L 549.158767 74.603126 
L 549.813666 73.964375 
L 549.86563 72.964375 
L 549.92472 70.964375 
z
" clip-path="url(#pc9f78a95a4)" style="fill: #ffffff; stroke: #ffffff; stroke-width: 3; stroke-linecap: round"/>
         <path d="M 549.339391 70.964375 
L 550.21976 71.439706 
L 551.097667 71.91996 
L 551.94838 72.454601 
L 553.250554 73.142048 
L 552.323201 73.168063 
L 551.411527 73.580783 
L 550.501263 73.996322 
L 549.158767 74.603126 
L 549.813666 73.964375 
L 549.86563 72.964375 
L 549.92472 70.964375 
z
" clip-path="url(#pc9f78a95a4)" style="fill: #ffffff; stroke: #1f77b4; stroke-linecap: round"/>
         <g id="patch_9">
          <path d="M 228.426575 267.858876 
L 229.426575 267.890313 
L 230.426575 267.927253 
L 231.426575 268.025 
L 232.426575 268.057521 
L 233.426575 268.131146 
L 234.426575 268.169711 
L 235.426575 268.205125 
L 236.426575 268.262765 
L 237.426575 268.333151 
L 238.426575 268.385115 
L 239.426575 268.444205 
L 240.426575 268.532526 
L 241.426575 268.57867 
L 242.426575 268.621081 
L 243.426575 268.651574 
L 244.426575 268.677619 
L 245.426575 268.698819 
L 246.426575 268.75312 
L 247.426575 268.781057 
L 248.426575 268.810781 
L 249.426575 268.836176 
L 250.426575 268.847376 
L 251.426575 268.8575 
L 252.426575 268.857296 
L 253.426575 268.847786 
L 254.426575 268.836133 
L 255.426575 268.805103 
L 256.426575 268.793935 
L 257.426575 268.763818 
L 258.426575 268.704041 
L 259.426575 268.666849 
L 260.426575 268.627753 
L 261.426575 268.585314 
L 262.426575 268.552549 
L 263.426575 268.485122 
L 264.426575 268.445996 
L 265.426575 268.403322 
L 266.426575 268.332741 
L 267.426575 268.29635 
L 268.426575 268.237947 
L 269.426575 268.126994 
L 270.426575 268.056336 
L 271.426575 267.943396 
L 272.426575 267.897623 
L 273.426575 267.83634 
L 274.426575 267.787841 
L 275.426575 267.707018 
L 276.426575 267.588499 
L 277.426575 267.518289 
L 278.426575 267.435026 
L 279.426575 267.401884 
L 280.426575 267.350647 
L 281.426575 267.282249 
L 282.426575 267.216033 
L 283.426575 267.139116 
L 284.426575 267.111801 
L 285.426575 267.085323 
L 286.426575 267.062673 
L 287.426575 267.043141 
L 288.426575 267.016747 
L 289.426575 266.966976 
L 290.426575 266.931903 
L 291.426575 266.896038 
L 292.426575 266.88067 
L 293.426575 266.864901 
L 294.426575 266.861489 
L 295.426575 266.859071 
L 296.426575 266.859557 
L 297.426575 266.861486 
L 298.426575 266.874743 
L 299.426575 266.883134 
L 300.426575 266.904671 
L 301.426575 266.927703 
L 302.426575 266.944937 
L 303.426575 266.963399 
L 304.426575 266.983852 
L 305.426575 267.000451 
L 306.426575 267.06323 
L 307.426575 267.138495 
L 308.426575 267.171134 
L 309.426575 267.238698 
L 310.426575 267.292745 
L 311.426575 267.326449 
L 312.426575 267.416575 
L 313.426575 267.44511 
L 314.426575 267.476596 
L 315.426575 267.507607 
L 316.426575 267.562415 
L 317.426575 267.627003 
L 318.426575 267.665198 
L 319.426575 267.761132 
L 320.426575 267.81039 
L 321.426575 267.85446 
L 322.426575 267.894583 
L 323.426575 268.00295 
L 324.426575 268.044578 
L 325.426575 268.10672 
L 326.426575 268.176682 
L 327.426575 268.281187 
L 328.426575 268.318174 
L 329.426575 268.364051 
L 330.426575 268.432546 
L 331.426575 268.481292 
L 332.426575 268.558889 
L 333.426575 268.58943 
L 334.426575 268.658945 
L 335.426575 268.682917 
L 336.426575 268.711539 
L 337.426575 268.753332 
L 338.426575 268.774908 
L 339.426575 268.788856 
L 340.426575 268.815579 
L 341.426575 268.824888 
L 342.426575 268.837335 
L 343.426575 268.84839 
L 344.426575 268.854055 
L 345.426575 268.858818 
L 346.426575 268.853271 
L 347.426575 268.839983 
L 348.426575 268.832465 
L 349.426575 268.80768 
L 350.426575 268.784112 
L 351.426575 268.747931 
L 352.426575 268.721969 
L 353.426575 268.699648 
L 354.426575 268.630888 
L 355.426575 268.556352 
L 356.426575 268.462373 
L 357.426575 268.411321 
L 358.426575 268.357387 
L 359.426575 268.322136 
L 360.426575 268.216048 
L 361.426575 268.163784 
L 362.426575 268.126878 
L 363.426575 268.095847 
L 364.426575 268.034691 
L 365.426575 267.967271 
L 366.426575 267.918365 
L 367.426575 267.853173 
L 368.426575 267.814986 
L 369.426575 267.77299 
L 370.426575 267.730972 
L 371.426575 267.671456 
L 372.426575 267.558296 
L 373.426575 267.506045 
L 374.426575 267.466628 
L 375.426575 267.419526 
L 376.426575 267.362747 
L 377.426575 267.330084 
L 378.426575 267.293906 
L 379.426575 267.261815 
L 380.426575 267.227535 
L 381.426575 267.169157 
L 382.426575 267.123972 
L 383.426575 267.094348 
L 384.426575 267.043963 
L 385.426575 267.018765 
L 386.426575 266.997714 
L 387.426575 266.962746 
L 388.426575 266.938456 
L 389.426575 266.924389 
L 390.426575 266.905447 
L 391.426575 266.889786 
L 392.426575 266.877234 
L 393.426575 266.871398 
L 394.426575 266.864516 
L 395.426575 266.859342 
L 396.426575 266.861125 
L 397.426575 266.863851 
L 398.426575 266.875004 
L 399.426575 266.903239 
L 400.426575 266.947027 
L 401.426575 266.967716 
L 402.426575 267.00869 
L 403.426575 267.048765 
L 404.426575 267.067874 
L 405.426575 267.090383 
L 406.426575 267.157035 
L 407.426575 267.206744 
L 408.426575 267.280451 
L 409.426575 267.311764 
L 410.426575 267.388386 
L 411.426575 267.426684 
L 412.426575 267.500801 
L 413.426575 267.60486 
L 414.426575 267.67469 
L 415.426575 267.779924 
L 416.426575 267.834939 
L 417.426575 267.958414 
L 418.426575 268.028973 
L 419.426575 268.144813 
L 420.426575 268.194993 
L 421.426575 268.230598 
L 422.426575 268.322004 
L 423.426575 268.375512 
L 424.426575 268.46342 
L 425.426575 268.532605 
L 426.426575 268.57937 
L 427.426575 268.651413 
L 428.426575 268.701555 
L 429.426575 268.718945 
L 430.426575 268.745948 
L 431.426575 268.765376 
L 432.746254 268.784714 
" clip-path="url(#pc9f78a95a4)" style="fill: none; stroke: #ffffff; stroke-width: 3; stroke-linecap: round"/>
          <path d="M 228.426575 267.858876 
L 229.426575 267.890313 
L 230.426575 267.927253 
L 231.426575 268.025 
L 232.426575 268.057521 
L 233.426575 268.131146 
L 234.426575 268.169711 
L 235.426575 268.205125 
L 236.426575 268.262765 
L 237.426575 268.333151 
L 238.426575 268.385115 
L 239.426575 268.444205 
L 240.426575 268.532526 
L 241.426575 268.57867 
L 242.426575 268.621081 
L 243.426575 268.651574 
L 244.426575 268.677619 
L 245.426575 268.698819 
L 246.426575 268.75312 
L 247.426575 268.781057 
L 248.426575 268.810781 
L 249.426575 268.836176 
L 250.426575 268.847376 
L 251.426575 268.8575 
L 252.426575 268.857296 
L 253.426575 268.847786 
L 254.426575 268.836133 
L 255.426575 268.805103 
L 256.426575 268.793935 
L 257.426575 268.763818 
L 258.426575 268.704041 
L 259.426575 268.666849 
L 260.426575 268.627753 
L 261.426575 268.585314 
L 262.426575 268.552549 
L 263.426575 268.485122 
L 264.426575 268.445996 
L 265.426575 268.403322 
L 266.426575 268.332741 
L 267.426575 268.29635 
L 268.426575 268.237947 
L 269.426575 268.126994 
L 270.426575 268.056336 
L 271.426575 267.943396 
L 272.426575 267.897623 
L 273.426575 267.83634 
L 274.426575 267.787841 
L 275.426575 267.707018 
L 276.426575 267.588499 
L 277.426575 267.518289 
L 278.426575 267.435026 
L 279.426575 267.401884 
L 280.426575 267.350647 
L 281.426575 267.282249 
L 282.426575 267.216033 
L 283.426575 267.139116 
L 284.426575 267.111801 
L 285.426575 267.085323 
L 286.426575 267.062673 
L 287.426575 267.043141 
L 288.426575 267.016747 
L 289.426575 266.966976 
L 290.426575 266.931903 
L 291.426575 266.896038 
L 292.426575 266.88067 
L 293.426575 266.864901 
L 294.426575 266.861489 
L 295.426575 266.859071 
L 296.426575 266.859557 
L 297.426575 266.861486 
L 298.426575 266.874743 
L 299.426575 266.883134 
L 300.426575 266.904671 
L 301.426575 266.927703 
L 302.426575 266.944937 
L 303.426575 266.963399 
L 304.426575 266.983852 
L 305.426575 267.000451 
L 306.426575 267.06323 
L 307.426575 267.138495 
L 308.426575 267.171134 
L 309.426575 267.238698 
L 310.426575 267.292745 
L 311.426575 267.326449 
L 312.426575 267.416575 
L 313.426575 267.44511 
L 314.426575 267.476596 
L 315.426575 267.507607 
L 316.426575 267.562415 
L 317.426575 267.627003 
L 318.426575 267.665198 
L 319.426575 267.761132 
L 320.426575 267.81039 
L 321.426575 267.85446 
L 322.426575 267.894583 
L 323.426575 268.00295 
L 324.426575 268.044578 
L 325.426575 268.10672 
L 326.426575 268.176682 
L 327.426575 268.281187 
L 328.426575 268.318174 
L 329.426575 268.364051 
L 330.426575 268.432546 
L 331.426575 268.481292 
L 332.426575 268.558889 
L 333.426575 268.58943 
L 334.426575 268.658945 
L 335.426575 268.682917 
L 336.426575 268.711539 
L 337.426575 268.753332 
L 338.426575 268.774908 
L 339.426575 268.788856 
L 340.426575 268.815579 
L 341.426575 268.824888 
L 342.426575 268.837335 
L 343.426575 268.84839 
L 344.426575 268.854055 
L 345.426575 268.858818 
L 346.426575 268.853271 
L 347.426575 268.839983 
L 348.426575 268.832465 
L 349.426575 268.80768 
L 350.426575 268.784112 
L 351.426575 268.747931 
L 352.426575 268.721969 
L 353.426575 268.699648 
L 354.426575 268.630888 
L 355.426575 268.556352 
L 356.426575 268.462373 
L 357.426575 268.411321 
L 358.426575 268.357387 
L 359.426575 268.322136 
L 360.426575 268.216048 
L 361.426575 268.163784 
L 362.426575 268.126878 
L 363.426575 268.095847 
L 364.426575 268.034691 
L 365.426575 267.967271 
L 366.426575 267.918365 
L 367.426575 267.853173 
L 368.426575 267.814986 
L 369.426575 267.77299 
L 370.426575 267.730972 
L 371.426575 267.671456 
L 372.426575 267.558296 
L 373.426575 267.506045 
L 374.426575 267.466628 
L 375.426575 267.419526 
L 376.426575 267.362747 
L 377.426575 267.330084 
L 378.426575 267.293906 
L 379.426575 267.261815 
L 380.426575 267.227535 
L 381.426575 267.169157 
L 382.426575 267.123972 
L 383.426575 267.094348 
L 384.426575 267.043963 
L 385.426575 267.018765 
L 386.426575 266.997714 
L 387.426575 266.962746 
L 388.426575 266.938456 
L 389.426575 266.924389 
L 390.426575 266.905447 
L 391.426575 266.889786 
L 392.426575 266.877234 
L 393.426575 266.871398 
L 394.426575 266.864516 
L 395.426575 266.859342 
L 396.426575 266.861125 
L 397.426575 266.863851 
L 398.426575 266.875004 
L 399.426575 266.903239 
L 400.426575 266.947027 
L 401.426575 266.967716 
L 402.426575 267.00869 
L 403.426575 267.048765 
L 404.426575 267.067874 
L 405.426575 267.090383 
L 406.426575 267.157035 
L 407.426575 267.206744 
L 408.426575 267.280451 
L 409.426575 267.311764 
L 410.426575 267.388386 
L 411.426575 267.426684 
L 412.426575 267.500801 
L 413.426575 267.60486 
L 414.426575 267.67469 
L 415.426575 267.779924 
L 416.426575 267.834939 
L 417.426575 267.958414 
L 418.426575 268.028973 
L 419.426575 268.144813 
L 420.426575 268.194993 
L 421.426575 268.230598 
L 422.426575 268.322004 
L 423.426575 268.375512 
L 424.426575 268.46342 
L 425.426575 268.532605 
L 426.426575 268.57937 
L 427.426575 268.651413 
L 428.426575 268.701555 
L 429.426575 268.718945 
L 430.426575 268.745948 
L 431.426575 268.765376 
L 432.746254 268.784714 
" clip-path="url(#pc9f78a95a4)" style="fill: none; stroke: #ff7f0e; stroke-linecap: round"/>
          <path d="M 428.746254 265.858876 
L 429.626622 266.334207 
L 430.504529 266.814461 
L 431.355242 267.349102 
L 432.657417 268.03655 
L 431.730064 268.062565 
L 430.818389 268.475284 
L 429.908125 268.890823 
L 428.565629 269.497628 
L 429.220528 268.858876 
L 429.272492 267.858876 
L 429.331582 265.858876 
z
" clip-path="url(#pc9f78a95a4)" style="fill: #ffffff; stroke: #ffffff; stroke-width: 3; stroke-linecap: round"/>
          <path d="M 428.746254 265.858876 
L 429.626622 266.334207 
L 430.504529 266.814461 
L 431.355242 267.349102 
L 432.657417 268.03655 
L 431.730064 268.062565 
L 430.818389 268.475284 
L 429.908125 268.890823 
L 428.565629 269.497628 
L 429.220528 268.858876 
L 429.272492 267.858876 
L 429.331582 265.858876 
z
" clip-path="url(#pc9f78a95a4)" style="fill: #ffffff; stroke: #ff7f0e; stroke-linecap: round"/>
          <path d="M 470.40814 295.582692 
" clip-path="url(#pc9f78a95a4)" style="fill: none; stroke-dasharray: 3.7,1.6; stroke-dashoffset: 0; stroke: #2ca02c"/>
          <path d="M 469.40814 295.582692 
L 471.40814 296.582692 
L 471.40814 294.582692 
z
" clip-path="url(#pc9f78a95a4)" style="fill: #2ca02c; stroke: #2ca02c; stroke-linejoin: miter"/>
          <g id="patch_10">
           <path d="M 63.290625 321.621875 
L 63.290625 10.8 
" style="fill: none; stroke: #000000; stroke-width: 0.8; stroke-linejoin: miter; stroke-linecap: square"/>
          </g>
          <g id="text_14">
           <g id="patch_11">
            <path d="M 322.463513 129.888565 
L 343.768201 129.888565 
Q 345.768201 129.888565 345.768201 127.888565 
L 345.768201 118.21044 
Q 345.768201 116.21044 343.768201 116.21044 
L 322.463513 116.21044 
Q 320.463513 116.21044 320.463513 118.21044 
L 320.463513 127.888565 
Q 320.463513 129.888565 322.463513 129.888565 
z
" style="fill: #ffffff; opacity: 0.6"/>
           </g>
           <!-- ANC -->
           <g transform="translate(322.463513 125.808878) scale(0.1 -0.1)">
            <defs>
             <path id="DejaVuSans-4e" d="M 628 4666 
L 1478 4666 
L 3547 763 
L 3547 4666 
L 4159 4666 
L 4159 0 
L 3309 0 
L 1241 3903 
L 1241 0 
L 628 0 
L 628 4666 
z
" transform="scale(0.015625)"/>
            </defs>
            <use xlink:href="#DejaVuSans-41"/>
            <use xlink:href="#DejaVuSans-4e" x="68.408203"/>
            <use xlink:href="#DejaVuSans-43" x="143.212891"/>
           </g>
          </g>
         </g>
        </g>
        <defs>
         <clipPath id="pc9f78a95a4">
          <rect x="63.290625" y="10.8" width="540.309375" height="310.821875"/>
         </clipPath>
        </defs>
       </g>
      </g>
     </g>
    </g>
   </g>
  </g>
 </g>
</svg>
