<?xml version="1.0" encoding="utf-8" standalone="no"?>
<!DOCTYPE svg PUBLIC "-//W3C//DTD SVG 1.1//EN"
  "http://www.w3.org/Graphics/SVG/1.1/DTD/svg11.dtd">
<svg xmlns:xlink="http://www.w3.org/1999/xlink" width="614.4pt" height="345.6pt" viewBox="0 0 614.4 345.6" xmlns="http://www.w3.org/2000/svg" version="1.1">
 <metadata>
  <rdf:RDF xmlns:dc="http://purl.org/dc/elements/1.1/" xmlns:cc="http://creativecommons.org/ns#" xmlns:rdf="http://www.w3.org/1999/02/22-rdf-syntax-ns#">
   <cc:Work>
    <dc:type rdf:resource="http://purl.org/dc/dcmitype/StillImage"/>
    <dc:date>2024-04-17T19:48:35.998390</dc:date>
    <dc:format>image/svg+xml</dc:format>
    <dc:creator>
     <cc:Agent>
      <dc:title>Matplotlib v3.7.1, https://matplotlib.org/</dc:title>
     </cc:Agent>
    </dc:creator>
   </cc:Work>
  </rdf:RDF>
 </metadata>
 <defs>
  <style type="text/css">*{stroke-linejoin: round; stroke-linecap: butt}</style>
 </defs>
 <g id="figure_1">
  <g id="patch_1">
   <path d="M 0 345.6 
L 614.4 345.6 
L 614.4 0 
L 0 0 
z
" style="fill: #ffffff"/>
  </g>
  <g id="axes_1">
   <g id="patch_2">
    <path d="M 63.290625 321.621875 
L 603.6 321.621875 
L 603.6 10.8 
L 63.290625 10.8 
z
" style="fill: #ffffff"/>
   </g>
   <path d="M 540.218773 308.238736 
L 539.218773 308.2073 
L 538.218773 308.170359 
L 537.218773 308.072613 
L 536.218773 308.040091 
L 535.218773 307.966466 
L 534.218773 307.927901 
L 533.218773 307.892488 
L 532.218773 307.834848 
L 531.218773 307.764462 
L 530.218773 307.712497 
L 529.218773 307.653408 
L 528.218773 307.565087 
L 527.218773 307.518942 
L 526.218773 307.476531 
L 525.218773 307.446039 
L 524.218773 307.419994 
L 523.218773 307.398794 
L 522.218773 307.344493 
L 521.218773 307.316555 
L 520.218773 307.286831 
L 519.218773 307.261436 
L 518.218773 307.250236 
L 517.218773 307.240112 
L 516.218773 307.240316 
L 515.218773 307.249826 
L 514.218773 307.26148 
L 513.218773 307.292509 
L 512.218773 307.303677 
L 511.218773 307.333794 
L 510.218773 307.393571 
L 509.218773 307.430763 
L 508.218773 307.469859 
L 507.218773 307.512299 
L 506.218773 307.545064 
L 505.218773 307.61249 
L 504.218773 307.651616 
L 503.218773 307.694291 
L 502.218773 307.764871 
L 501.218773 307.801262 
L 500.218773 307.859665 
L 499.218773 307.970618 
L 498.218773 308.041276 
L 497.218773 308.154216 
L 496.218773 308.199989 
L 495.218773 308.261272 
L 494.218773 308.309771 
L 493.218773 308.390594 
L 492.218773 308.509113 
L 491.218773 308.579324 
L 490.218773 308.662586 
L 489.218773 308.695728 
L 488.218773 308.746965 
L 487.218773 308.815364 
L 486.218773 308.881579 
L 485.218773 308.958496 
L 484.218773 308.985812 
L 483.218773 309.012289 
L 482.218773 309.03494 
L 481.218773 309.054471 
L 480.218773 309.080865 
L 479.218773 309.130636 
L 478.218773 309.165709 
L 477.218773 309.201575 
L 476.218773 309.216942 
L 475.218773 309.232711 
L 474.218773 309.236124 
L 473.218773 309.238541 
L 472.218773 309.238055 
L 471.218773 309.236126 
L 470.218773 309.222869 
L 469.218773 309.214479 
L 468.218773 309.192942 
L 467.218773 309.169909 
L 466.218773 309.152676 
L 465.218773 309.134213 
L 464.218773 309.113761 
L 463.218773 309.097161 
L 462.218773 309.034382 
L 461.218773 308.959117 
L 460.049555 308.926478 
" clip-path="url(#p4840196bf1)" style="fill: none; stroke-dasharray: 3.7,1.6; stroke-dashoffset: 0; stroke: #2ca02c"/>
   <g id="patch_3">
    <path d="M 308.533605 10.8 
L 308.533605 252.771023 
M 352.158506 10.8 
L 352.158506 252.771023 
" clip-path="url(#p4840196bf1)" style="fill: none; stroke: #ffffff; stroke-width: 3; stroke-linejoin: miter"/>
    <path d="M 308.533605 10.8 
L 308.533605 252.771023 
M 352.158506 10.8 
L 352.158506 252.771023 
" clip-path="url(#p4840196bf1)" style="fill: none; stroke: #1f77b4; stroke-linejoin: miter"/>
    <g id="PolyCollection_1">
     <path d="M 352.158506 10.8 
L 308.533605 10.8 
L 308.533605 252.771023 
L 352.158506 252.771023 
L 352.158506 252.771023 
L 352.158506 10.8 
z
" clip-path="url(#p4840196bf1)" style="fill: #1f77b4; fill-opacity: 0.5"/>
    </g>
    <g id="patch_4">
     <path d="M 87.850142 252.771023 
L 87.850142 321.621875 
M 224.864291 252.771023 
L 224.864291 321.621875 
" clip-path="url(#p4840196bf1)" style="fill: none; stroke: #ffffff; stroke-width: 3; stroke-linejoin: miter"/>
     <path d="M 87.850142 252.771023 
L 87.850142 321.621875 
M 224.864291 252.771023 
L 224.864291 321.621875 
" clip-path="url(#p4840196bf1)" style="fill: none; stroke: #ff7f0e; stroke-linejoin: miter"/>
     <g id="PolyCollection_2">
      <path d="M 224.864291 252.771023 
L 87.850142 252.771023 
L 87.850142 321.621875 
L 224.864291 321.621875 
L 224.864291 321.621875 
L 224.864291 252.771023 
z
" clip-path="url(#p4840196bf1)" style="fill: #ff7f0e; fill-opacity: 0.5"/>
     </g>
     <g id="patch_5">
      <path d="M 545.621867 72.964375 
L 545.621867 321.621875 
M 579.040483 72.964375 
L 579.040483 321.621875 
" clip-path="url(#p4840196bf1)" style="fill: none; stroke: #ffffff; stroke-width: 3; stroke-linejoin: miter"/>
      <path d="M 545.621867 72.964375 
L 545.621867 321.621875 
M 579.040483 72.964375 
L 579.040483 321.621875 
" clip-path="url(#p4840196bf1)" style="fill: none; stroke: #2ca02c; stroke-linejoin: miter"/>
      <g id="PolyCollection_3">
       <path d="M 579.040483 72.964375 
L 545.621867 72.964375 
L 545.621867 321.621875 
L 579.040483 321.621875 
L 579.040483 321.621875 
L 579.040483 72.964375 
z
" clip-path="url(#p4840196bf1)" style="fill: #2ca02c; fill-opacity: 0.5"/>
      </g>
      <g id="patch_6">
       <path d="M 438.030769 259.381112 
L 438.030769 321.621875 
M 454.646462 259.381112 
L 454.646462 321.621875 
" clip-path="url(#p4840196bf1)" style="fill: none; stroke: #ffffff; stroke-width: 3; stroke-linejoin: miter"/>
       <path d="M 438.030769 259.381112 
L 438.030769 321.621875 
M 454.646462 259.381112 
L 454.646462 321.621875 
" clip-path="url(#p4840196bf1)" style="fill: none; stroke: #d62728; stroke-linejoin: miter"/>
       <g id="PolyCollection_4">
        <path d="M 454.646462 259.381112 
L 438.030769 259.381112 
L 438.030769 321.621875 
L 454.646462 321.621875 
L 454.646462 321.621875 
L 454.646462 259.381112 
z
" clip-path="url(#p4840196bf1)" style="fill: #d62728; fill-opacity: 0.5"/>
       </g>
       <g id="matplotlib.axis_1">
        <g id="xtick_1">
         <g id="line2d_1"/>
         <g id="text_1">
          <!-- OUT -->
          <g transform="translate(145.707998 332.720312) scale(0.1 -0.1)">
           <defs>
            <path id="DejaVuSans-4f" d="M 2522 4238 
Q 1834 4238 1429 3725 
Q 1025 3213 1025 2328 
Q 1025 1447 1429 934 
Q 1834 422 2522 422 
Q 3209 422 3611 934 
Q 4013 1447 4013 2328 
Q 4013 3213 3611 3725 
Q 3209 4238 2522 4238 
z
M 2522 4750 
Q 3503 4750 4090 4092 
Q 4678 3434 4678 2328 
Q 4678 1225 4090 567 
Q 3503 -91 2522 -91 
Q 1538 -91 948 565 
Q 359 1222 359 2328 
Q 359 3434 948 4092 
Q 1538 4750 2522 4750 
z
" transform="scale(0.015625)"/>
            <path id="DejaVuSans-55" d="M 556 4666 
L 1191 4666 
L 1191 1831 
Q 1191 1081 1462 751 
Q 1734 422 2344 422 
Q 2950 422 3222 751 
Q 3494 1081 3494 1831 
L 3494 4666 
L 4128 4666 
L 4128 1753 
Q 4128 841 3676 375 
Q 3225 -91 2344 -91 
Q 1459 -91 1007 375 
Q 556 841 556 1753 
L 556 4666 
z
" transform="scale(0.015625)"/>
            <path id="DejaVuSans-54" d="M -19 4666 
L 3928 4666 
L 3928 4134 
L 2272 4134 
L 2272 0 
L 1638 0 
L 1638 4134 
L -19 4134 
L -19 4666 
z
" transform="scale(0.015625)"/>
           </defs>
           <use xlink:href="#DejaVuSans-4f"/>
           <use xlink:href="#DejaVuSans-55" x="78.710938"/>
           <use xlink:href="#DejaVuSans-54" x="151.904297"/>
          </g>
         </g>
        </g>
        <g id="xtick_2">
         <g id="line2d_2"/>
         <g id="text_2">
          <!-- SRC -->
          <g transform="translate(552.441331 332.720312) scale(0.1 -0.1)">
           <defs>
            <path id="DejaVuSans-53" d="M 3425 4513 
L 3425 3897 
Q 3066 4069 2747 4153 
Q 2428 4238 2131 4238 
Q 1616 4238 1336 4038 
Q 1056 3838 1056 3469 
Q 1056 3159 1242 3001 
Q 1428 2844 1947 2747 
L 2328 2669 
Q 3034 2534 3370 2195 
Q 3706 1856 3706 1288 
Q 3706 609 3251 259 
Q 2797 -91 1919 -91 
Q 1588 -91 1214 -16 
Q 841 59 441 206 
L 441 856 
Q 825 641 1194 531 
Q 1563 422 1919 422 
Q 2459 422 2753 634 
Q 3047 847 3047 1241 
Q 3047 1584 2836 1778 
Q 2625 1972 2144 2069 
L 1759 2144 
Q 1053 2284 737 2584 
Q 422 2884 422 3419 
Q 422 4038 858 4394 
Q 1294 4750 2059 4750 
Q 2388 4750 2728 4690 
Q 3069 4631 3425 4513 
z
" transform="scale(0.015625)"/>
            <path id="DejaVuSans-52" d="M 2841 2188 
Q 3044 2119 3236 1894 
Q 3428 1669 3622 1275 
L 4263 0 
L 3584 0 
L 2988 1197 
Q 2756 1666 2539 1819 
Q 2322 1972 1947 1972 
L 1259 1972 
L 1259 0 
L 628 0 
L 628 4666 
L 2053 4666 
Q 2853 4666 3247 4331 
Q 3641 3997 3641 3322 
Q 3641 2881 3436 2590 
Q 3231 2300 2841 2188 
z
M 1259 4147 
L 1259 2491 
L 2053 2491 
Q 2509 2491 2742 2702 
Q 2975 2913 2975 3322 
Q 2975 3731 2742 3939 
Q 2509 4147 2053 4147 
L 1259 4147 
z
" transform="scale(0.015625)"/>
            <path id="DejaVuSans-43" d="M 4122 4306 
L 4122 3641 
Q 3803 3938 3442 4084 
Q 3081 4231 2675 4231 
Q 1875 4231 1450 3742 
Q 1025 3253 1025 2328 
Q 1025 1406 1450 917 
Q 1875 428 2675 428 
Q 3081 428 3442 575 
Q 3803 722 4122 1019 
L 4122 359 
Q 3791 134 3420 21 
Q 3050 -91 2638 -91 
Q 1578 -91 968 557 
Q 359 1206 359 2328 
Q 359 3453 968 4101 
Q 1578 4750 2638 4750 
Q 3056 4750 3426 4639 
Q 3797 4528 4122 4306 
z
" transform="scale(0.015625)"/>
           </defs>
           <use xlink:href="#DejaVuSans-53"/>
           <use xlink:href="#DejaVuSans-52" x="63.476562"/>
           <use xlink:href="#DejaVuSans-43" x="127.958984"/>
          </g>
         </g>
        </g>
        <g id="xtick_3">
         <g id="line2d_3"/>
         <g id="text_3">
          <!-- TAR -->
          <g transform="translate(436.777678 332.720312) scale(0.1 -0.1)">
           <defs>
            <path id="DejaVuSans-41" d="M 2188 4044 
L 1331 1722 
L 3047 1722 
L 2188 4044 
z
M 1831 4666 
L 2547 4666 
L 4325 0 
L 3669 0 
L 3244 1197 
L 1141 1197 
L 716 0 
L 50 0 
L 1831 4666 
z
" transform="scale(0.015625)"/>
           </defs>
           <use xlink:href="#DejaVuSans-54"/>
           <use xlink:href="#DejaVuSans-41" x="53.333984"/>
           <use xlink:href="#DejaVuSans-52" x="121.742188"/>
          </g>
         </g>
        </g>
       </g>
       <g id="matplotlib.axis_2">
        <g id="ytick_1">
         <g id="line2d_4">
          <defs>
           <path id="me459516161" d="M 0 0 
L -3.5 0 
" style="stroke: #000000; stroke-width: 0.8"/>
          </defs>
          <g>
           <use xlink:href="#me459516161" x="63.290625" y="321.621875" style="stroke: #000000; stroke-width: 0.8"/>
          </g>
         </g>
         <g id="text_4">
          <!-- 0 -->
          <g transform="translate(49.928125 325.421094) scale(0.1 -0.1)">
           <defs>
            <path id="DejaVuSans-30" d="M 2034 4250 
Q 1547 4250 1301 3770 
Q 1056 3291 1056 2328 
Q 1056 1369 1301 889 
Q 1547 409 2034 409 
Q 2525 409 2770 889 
Q 3016 1369 3016 2328 
Q 3016 3291 2770 3770 
Q 2525 4250 2034 4250 
z
M 2034 4750 
Q 2819 4750 3233 4129 
Q 3647 3509 3647 2328 
Q 3647 1150 3233 529 
Q 2819 -91 2034 -91 
Q 1250 -91 836 529 
Q 422 1150 422 2328 
Q 422 3509 836 4129 
Q 1250 4750 2034 4750 
z
" transform="scale(0.015625)"/>
           </defs>
           <use xlink:href="#DejaVuSans-30"/>
          </g>
         </g>
        </g>
        <g id="ytick_2">
         <g id="line2d_5">
          <g>
           <use xlink:href="#me459516161" x="63.290625" y="270.696689" style="stroke: #000000; stroke-width: 0.8"/>
          </g>
         </g>
         <g id="text_5">
          <!-- 5000 -->
          <g transform="translate(30.840625 274.495907) scale(0.1 -0.1)">
           <defs>
            <path id="DejaVuSans-35" d="M 691 4666 
L 3169 4666 
L 3169 4134 
L 1269 4134 
L 1269 2991 
Q 1406 3038 1543 3061 
Q 1681 3084 1819 3084 
Q 2600 3084 3056 2656 
Q 3513 2228 3513 1497 
Q 3513 744 3044 326 
Q 2575 -91 1722 -91 
Q 1428 -91 1123 -41 
Q 819 9 494 109 
L 494 744 
Q 775 591 1075 516 
Q 1375 441 1709 441 
Q 2250 441 2565 725 
Q 2881 1009 2881 1497 
Q 2881 1984 2565 2268 
Q 2250 2553 1709 2553 
Q 1456 2553 1204 2497 
Q 953 2441 691 2322 
L 691 4666 
z
" transform="scale(0.015625)"/>
           </defs>
           <use xlink:href="#DejaVuSans-35"/>
           <use xlink:href="#DejaVuSans-30" x="63.623047"/>
           <use xlink:href="#DejaVuSans-30" x="127.246094"/>
           <use xlink:href="#DejaVuSans-30" x="190.869141"/>
          </g>
         </g>
        </g>
        <g id="ytick_3">
         <g id="line2d_6">
          <g>
           <use xlink:href="#me459516161" x="63.290625" y="219.771502" style="stroke: #000000; stroke-width: 0.8"/>
          </g>
         </g>
         <g id="text_6">
          <!-- 10000 -->
          <g transform="translate(24.478125 223.570721) scale(0.1 -0.1)">
           <defs>
            <path id="DejaVuSans-31" d="M 794 531 
L 1825 531 
L 1825 4091 
L 703 3866 
L 703 4441 
L 1819 4666 
L 2450 4666 
L 2450 531 
L 3481 531 
L 3481 0 
L 794 0 
L 794 531 
z
" transform="scale(0.015625)"/>
           </defs>
           <use xlink:href="#DejaVuSans-31"/>
           <use xlink:href="#DejaVuSans-30" x="63.623047"/>
           <use xlink:href="#DejaVuSans-30" x="127.246094"/>
           <use xlink:href="#DejaVuSans-30" x="190.869141"/>
           <use xlink:href="#DejaVuSans-30" x="254.492188"/>
          </g>
         </g>
        </g>
        <g id="ytick_4">
         <g id="line2d_7">
          <g>
           <use xlink:href="#me459516161" x="63.290625" y="168.846316" style="stroke: #000000; stroke-width: 0.8"/>
          </g>
         </g>
         <g id="text_7">
          <!-- 15000 -->
          <g transform="translate(24.478125 172.645535) scale(0.1 -0.1)">
           <use xlink:href="#DejaVuSans-31"/>
           <use xlink:href="#DejaVuSans-35" x="63.623047"/>
           <use xlink:href="#DejaVuSans-30" x="127.246094"/>
           <use xlink:href="#DejaVuSans-30" x="190.869141"/>
           <use xlink:href="#DejaVuSans-30" x="254.492188"/>
          </g>
         </g>
        </g>
        <g id="ytick_5">
         <g id="line2d_8">
          <g>
           <use xlink:href="#me459516161" x="63.290625" y="117.92113" style="stroke: #000000; stroke-width: 0.8"/>
          </g>
         </g>
         <g id="text_8">
          <!-- 20000 -->
          <g transform="translate(24.478125 121.720348) scale(0.1 -0.1)">
           <defs>
            <path id="DejaVuSans-32" d="M 1228 531 
L 3431 531 
L 3431 0 
L 469 0 
L 469 531 
Q 828 903 1448 1529 
Q 2069 2156 2228 2338 
Q 2531 2678 2651 2914 
Q 2772 3150 2772 3378 
Q 2772 3750 2511 3984 
Q 2250 4219 1831 4219 
Q 1534 4219 1204 4116 
Q 875 4013 500 3803 
L 500 4441 
Q 881 4594 1212 4672 
Q 1544 4750 1819 4750 
Q 2544 4750 2975 4387 
Q 3406 4025 3406 3419 
Q 3406 3131 3298 2873 
Q 3191 2616 2906 2266 
Q 2828 2175 2409 1742 
Q 1991 1309 1228 531 
z
" transform="scale(0.015625)"/>
           </defs>
           <use xlink:href="#DejaVuSans-32"/>
           <use xlink:href="#DejaVuSans-30" x="63.623047"/>
           <use xlink:href="#DejaVuSans-30" x="127.246094"/>
           <use xlink:href="#DejaVuSans-30" x="190.869141"/>
           <use xlink:href="#DejaVuSans-30" x="254.492188"/>
          </g>
         </g>
        </g>
        <g id="ytick_6">
         <g id="line2d_9">
          <g>
           <use xlink:href="#me459516161" x="63.290625" y="66.995943" style="stroke: #000000; stroke-width: 0.8"/>
          </g>
         </g>
         <g id="text_9">
          <!-- 25000 -->
          <g transform="translate(24.478125 70.795162) scale(0.1 -0.1)">
           <use xlink:href="#DejaVuSans-32"/>
           <use xlink:href="#DejaVuSans-35" x="63.623047"/>
           <use xlink:href="#DejaVuSans-30" x="127.246094"/>
           <use xlink:href="#DejaVuSans-30" x="190.869141"/>
           <use xlink:href="#DejaVuSans-30" x="254.492188"/>
          </g>
         </g>
        </g>
        <g id="ytick_7">
         <g id="line2d_10">
          <g>
           <use xlink:href="#me459516161" x="63.290625" y="16.070757" style="stroke: #000000; stroke-width: 0.8"/>
          </g>
         </g>
         <g id="text_10">
          <!-- 30000 -->
          <g transform="translate(24.478125 19.869976) scale(0.1 -0.1)">
           <defs>
            <path id="DejaVuSans-33" d="M 2597 2516 
Q 3050 2419 3304 2112 
Q 3559 1806 3559 1356 
Q 3559 666 3084 287 
Q 2609 -91 1734 -91 
Q 1441 -91 1130 -33 
Q 819 25 488 141 
L 488 750 
Q 750 597 1062 519 
Q 1375 441 1716 441 
Q 2309 441 2620 675 
Q 2931 909 2931 1356 
Q 2931 1769 2642 2001 
Q 2353 2234 1838 2234 
L 1294 2234 
L 1294 2753 
L 1863 2753 
Q 2328 2753 2575 2939 
Q 2822 3125 2822 3475 
Q 2822 3834 2567 4026 
Q 2313 4219 1838 4219 
Q 1578 4219 1281 4162 
Q 984 4106 628 3988 
L 628 4550 
Q 988 4650 1302 4700 
Q 1616 4750 1894 4750 
Q 2613 4750 3031 4423 
Q 3450 4097 3450 3541 
Q 3450 3153 3228 2886 
Q 3006 2619 2597 2516 
z
" transform="scale(0.015625)"/>
           </defs>
           <use xlink:href="#DejaVuSans-33"/>
           <use xlink:href="#DejaVuSans-30" x="63.623047"/>
           <use xlink:href="#DejaVuSans-30" x="127.246094"/>
           <use xlink:href="#DejaVuSans-30" x="190.869141"/>
           <use xlink:href="#DejaVuSans-30" x="254.492188"/>
          </g>
         </g>
        </g>
        <g id="text_11">
         <!-- time ago (generations) -->
         <g transform="translate(18.398438 223.682031) rotate(-90) scale(0.1 -0.1)">
          <defs>
           <path id="DejaVuSans-74" d="M 1172 4494 
L 1172 3500 
L 2356 3500 
L 2356 3053 
L 1172 3053 
L 1172 1153 
Q 1172 725 1289 603 
Q 1406 481 1766 481 
L 2356 481 
L 2356 0 
L 1766 0 
Q 1100 0 847 248 
Q 594 497 594 1153 
L 594 3053 
L 172 3053 
L 172 3500 
L 594 3500 
L 594 4494 
L 1172 4494 
z
" transform="scale(0.015625)"/>
           <path id="DejaVuSans-69" d="M 603 3500 
L 1178 3500 
L 1178 0 
L 603 0 
L 603 3500 
z
M 603 4863 
L 1178 4863 
L 1178 4134 
L 603 4134 
L 603 4863 
z
" transform="scale(0.015625)"/>
           <path id="DejaVuSans-6d" d="M 3328 2828 
Q 3544 3216 3844 3400 
Q 4144 3584 4550 3584 
Q 5097 3584 5394 3201 
Q 5691 2819 5691 2113 
L 5691 0 
L 5113 0 
L 5113 2094 
Q 5113 2597 4934 2840 
Q 4756 3084 4391 3084 
Q 3944 3084 3684 2787 
Q 3425 2491 3425 1978 
L 3425 0 
L 2847 0 
L 2847 2094 
Q 2847 2600 2669 2842 
Q 2491 3084 2119 3084 
Q 1678 3084 1418 2786 
Q 1159 2488 1159 1978 
L 1159 0 
L 581 0 
L 581 3500 
L 1159 3500 
L 1159 2956 
Q 1356 3278 1631 3431 
Q 1906 3584 2284 3584 
Q 2666 3584 2933 3390 
Q 3200 3197 3328 2828 
z
" transform="scale(0.015625)"/>
           <path id="DejaVuSans-65" d="M 3597 1894 
L 3597 1613 
L 953 1613 
Q 991 1019 1311 708 
Q 1631 397 2203 397 
Q 2534 397 2845 478 
Q 3156 559 3463 722 
L 3463 178 
Q 3153 47 2828 -22 
Q 2503 -91 2169 -91 
Q 1331 -91 842 396 
Q 353 884 353 1716 
Q 353 2575 817 3079 
Q 1281 3584 2069 3584 
Q 2775 3584 3186 3129 
Q 3597 2675 3597 1894 
z
M 3022 2063 
Q 3016 2534 2758 2815 
Q 2500 3097 2075 3097 
Q 1594 3097 1305 2825 
Q 1016 2553 972 2059 
L 3022 2063 
z
" transform="scale(0.015625)"/>
           <path id="DejaVuSans-20" transform="scale(0.015625)"/>
           <path id="DejaVuSans-61" d="M 2194 1759 
Q 1497 1759 1228 1600 
Q 959 1441 959 1056 
Q 959 750 1161 570 
Q 1363 391 1709 391 
Q 2188 391 2477 730 
Q 2766 1069 2766 1631 
L 2766 1759 
L 2194 1759 
z
M 3341 1997 
L 3341 0 
L 2766 0 
L 2766 531 
Q 2569 213 2275 61 
Q 1981 -91 1556 -91 
Q 1019 -91 701 211 
Q 384 513 384 1019 
Q 384 1609 779 1909 
Q 1175 2209 1959 2209 
L 2766 2209 
L 2766 2266 
Q 2766 2663 2505 2880 
Q 2244 3097 1772 3097 
Q 1472 3097 1187 3025 
Q 903 2953 641 2809 
L 641 3341 
Q 956 3463 1253 3523 
Q 1550 3584 1831 3584 
Q 2591 3584 2966 3190 
Q 3341 2797 3341 1997 
z
" transform="scale(0.015625)"/>
           <path id="DejaVuSans-67" d="M 2906 1791 
Q 2906 2416 2648 2759 
Q 2391 3103 1925 3103 
Q 1463 3103 1205 2759 
Q 947 2416 947 1791 
Q 947 1169 1205 825 
Q 1463 481 1925 481 
Q 2391 481 2648 825 
Q 2906 1169 2906 1791 
z
M 3481 434 
Q 3481 -459 3084 -895 
Q 2688 -1331 1869 -1331 
Q 1566 -1331 1297 -1286 
Q 1028 -1241 775 -1147 
L 775 -588 
Q 1028 -725 1275 -790 
Q 1522 -856 1778 -856 
Q 2344 -856 2625 -561 
Q 2906 -266 2906 331 
L 2906 616 
Q 2728 306 2450 153 
Q 2172 0 1784 0 
Q 1141 0 747 490 
Q 353 981 353 1791 
Q 353 2603 747 3093 
Q 1141 3584 1784 3584 
Q 2172 3584 2450 3431 
Q 2728 3278 2906 2969 
L 2906 3500 
L 3481 3500 
L 3481 434 
z
" transform="scale(0.015625)"/>
           <path id="DejaVuSans-6f" d="M 1959 3097 
Q 1497 3097 1228 2736 
Q 959 2375 959 1747 
Q 959 1119 1226 758 
Q 1494 397 1959 397 
Q 2419 397 2687 759 
Q 2956 1122 2956 1747 
Q 2956 2369 2687 2733 
Q 2419 3097 1959 3097 
z
M 1959 3584 
Q 2709 3584 3137 3096 
Q 3566 2609 3566 1747 
Q 3566 888 3137 398 
Q 2709 -91 1959 -91 
Q 1206 -91 779 398 
Q 353 888 353 1747 
Q 353 2609 779 3096 
Q 1206 3584 1959 3584 
z
" transform="scale(0.015625)"/>
           <path id="DejaVuSans-28" d="M 1984 4856 
Q 1566 4138 1362 3434 
Q 1159 2731 1159 2009 
Q 1159 1288 1364 580 
Q 1569 -128 1984 -844 
L 1484 -844 
Q 1016 -109 783 600 
Q 550 1309 550 2009 
Q 550 2706 781 3412 
Q 1013 4119 1484 4856 
L 1984 4856 
z
" transform="scale(0.015625)"/>
           <path id="DejaVuSans-6e" d="M 3513 2113 
L 3513 0 
L 2938 0 
L 2938 2094 
Q 2938 2591 2744 2837 
Q 2550 3084 2163 3084 
Q 1697 3084 1428 2787 
Q 1159 2491 1159 1978 
L 1159 0 
L 581 0 
L 581 3500 
L 1159 3500 
L 1159 2956 
Q 1366 3272 1645 3428 
Q 1925 3584 2291 3584 
Q 2894 3584 3203 3211 
Q 3513 2838 3513 2113 
z
" transform="scale(0.015625)"/>
           <path id="DejaVuSans-72" d="M 2631 2963 
Q 2534 3019 2420 3045 
Q 2306 3072 2169 3072 
Q 1681 3072 1420 2755 
Q 1159 2438 1159 1844 
L 1159 0 
L 581 0 
L 581 3500 
L 1159 3500 
L 1159 2956 
Q 1341 3275 1631 3429 
Q 1922 3584 2338 3584 
Q 2397 3584 2469 3576 
Q 2541 3569 2628 3553 
L 2631 2963 
z
" transform="scale(0.015625)"/>
           <path id="DejaVuSans-73" d="M 2834 3397 
L 2834 2853 
Q 2591 2978 2328 3040 
Q 2066 3103 1784 3103 
Q 1356 3103 1142 2972 
Q 928 2841 928 2578 
Q 928 2378 1081 2264 
Q 1234 2150 1697 2047 
L 1894 2003 
Q 2506 1872 2764 1633 
Q 3022 1394 3022 966 
Q 3022 478 2636 193 
Q 2250 -91 1575 -91 
Q 1294 -91 989 -36 
Q 684 19 347 128 
L 347 722 
Q 666 556 975 473 
Q 1284 391 1588 391 
Q 1994 391 2212 530 
Q 2431 669 2431 922 
Q 2431 1156 2273 1281 
Q 2116 1406 1581 1522 
L 1381 1569 
Q 847 1681 609 1914 
Q 372 2147 372 2553 
Q 372 3047 722 3315 
Q 1072 3584 1716 3584 
Q 2034 3584 2315 3537 
Q 2597 3491 2834 3397 
z
" transform="scale(0.015625)"/>
           <path id="DejaVuSans-29" d="M 513 4856 
L 1013 4856 
Q 1481 4119 1714 3412 
Q 1947 2706 1947 2009 
Q 1947 1309 1714 600 
Q 1481 -109 1013 -844 
L 513 -844 
Q 928 -128 1133 580 
Q 1338 1288 1338 2009 
Q 1338 2731 1133 3434 
Q 928 4138 513 4856 
z
" transform="scale(0.015625)"/>
          </defs>
          <use xlink:href="#DejaVuSans-74"/>
          <use xlink:href="#DejaVuSans-69" x="39.208984"/>
          <use xlink:href="#DejaVuSans-6d" x="66.992188"/>
          <use xlink:href="#DejaVuSans-65" x="164.404297"/>
          <use xlink:href="#DejaVuSans-20" x="225.927734"/>
          <use xlink:href="#DejaVuSans-61" x="257.714844"/>
          <use xlink:href="#DejaVuSans-67" x="318.994141"/>
          <use xlink:href="#DejaVuSans-6f" x="382.470703"/>
          <use xlink:href="#DejaVuSans-20" x="443.652344"/>
          <use xlink:href="#DejaVuSans-28" x="475.439453"/>
          <use xlink:href="#DejaVuSans-67" x="514.453125"/>
          <use xlink:href="#DejaVuSans-65" x="577.929688"/>
          <use xlink:href="#DejaVuSans-6e" x="639.453125"/>
          <use xlink:href="#DejaVuSans-65" x="702.832031"/>
          <use xlink:href="#DejaVuSans-72" x="764.355469"/>
          <use xlink:href="#DejaVuSans-61" x="805.46875"/>
          <use xlink:href="#DejaVuSans-74" x="866.748047"/>
          <use xlink:href="#DejaVuSans-69" x="905.957031"/>
          <use xlink:href="#DejaVuSans-6f" x="933.740234"/>
          <use xlink:href="#DejaVuSans-6e" x="994.921875"/>
          <use xlink:href="#DejaVuSans-73" x="1058.300781"/>
          <use xlink:href="#DejaVuSans-29" x="1110.400391"/>
         </g>
        </g>
       </g>
       <g id="patch_7">
        <path d="M 306.534305 252.771023 
L 305.534305 252.739587 
L 304.534305 252.702646 
L 303.534305 252.6049 
L 302.534305 252.572378 
L 301.534305 252.498753 
L 300.534305 252.460188 
L 299.534305 252.424775 
L 298.534305 252.367135 
L 297.534305 252.296749 
L 296.534305 252.244784 
L 295.534305 252.185695 
L 294.534305 252.097374 
L 293.534305 252.051229 
L 292.534305 252.008818 
L 291.534305 251.978326 
L 290.534305 251.952281 
L 289.534305 251.931081 
L 288.534305 251.87678 
L 287.534305 251.848842 
L 286.534305 251.819118 
L 285.534305 251.793723 
L 284.534305 251.782523 
L 283.534305 251.772399 
L 282.534305 251.772603 
L 281.534305 251.782113 
L 280.534305 251.793767 
L 279.534305 251.824796 
L 278.534305 251.835964 
L 277.534305 251.866081 
L 276.534305 251.925858 
L 275.534305 251.96305 
L 274.534305 252.002146 
L 273.534305 252.044586 
L 272.534305 252.077351 
L 271.534305 252.144777 
L 270.534305 252.183903 
L 269.534305 252.226578 
L 268.534305 252.297158 
L 267.534305 252.333549 
L 266.534305 252.391952 
L 265.534305 252.502905 
L 264.534305 252.573563 
L 263.534305 252.686503 
L 262.534305 252.732276 
L 261.534305 252.793559 
L 260.534305 252.842058 
L 259.534305 252.922881 
L 258.534305 253.0414 
L 257.534305 253.111611 
L 256.534305 253.194873 
L 255.534305 253.228015 
L 254.534305 253.279252 
L 253.534305 253.347651 
L 252.534305 253.413866 
L 251.534305 253.490783 
L 250.534305 253.518099 
L 249.534305 253.544576 
L 248.534305 253.567227 
L 247.534305 253.586758 
L 246.534305 253.613152 
L 245.534305 253.662923 
L 244.534305 253.697996 
L 243.534305 253.733862 
L 242.534305 253.749229 
L 241.534305 253.764998 
L 240.534305 253.768411 
L 239.534305 253.770828 
L 238.534305 253.770342 
L 237.534305 253.768413 
L 236.534305 253.755156 
L 235.534305 253.746766 
L 234.534305 253.725229 
L 233.534305 253.702196 
L 232.534305 253.684963 
L 231.534305 253.6665 
L 230.534305 253.646048 
L 229.534305 253.629448 
L 227.981206 253.566669 
" clip-path="url(#p4840196bf1)" style="fill: none; stroke: #ffffff; stroke-width: 3; stroke-linecap: round"/>
        <path d="M 306.534305 252.771023 
L 305.534305 252.739587 
L 304.534305 252.702646 
L 303.534305 252.6049 
L 302.534305 252.572378 
L 301.534305 252.498753 
L 300.534305 252.460188 
L 299.534305 252.424775 
L 298.534305 252.367135 
L 297.534305 252.296749 
L 296.534305 252.244784 
L 295.534305 252.185695 
L 294.534305 252.097374 
L 293.534305 252.051229 
L 292.534305 252.008818 
L 291.534305 251.978326 
L 290.534305 251.952281 
L 289.534305 251.931081 
L 288.534305 251.87678 
L 287.534305 251.848842 
L 286.534305 251.819118 
L 285.534305 251.793723 
L 284.534305 251.782523 
L 283.534305 251.772399 
L 282.534305 251.772603 
L 281.534305 251.782113 
L 280.534305 251.793767 
L 279.534305 251.824796 
L 278.534305 251.835964 
L 277.534305 251.866081 
L 276.534305 251.925858 
L 275.534305 251.96305 
L 274.534305 252.002146 
L 273.534305 252.044586 
L 272.534305 252.077351 
L 271.534305 252.144777 
L 270.534305 252.183903 
L 269.534305 252.226578 
L 268.534305 252.297158 
L 267.534305 252.333549 
L 266.534305 252.391952 
L 265.534305 252.502905 
L 264.534305 252.573563 
L 263.534305 252.686503 
L 262.534305 252.732276 
L 261.534305 252.793559 
L 260.534305 252.842058 
L 259.534305 252.922881 
L 258.534305 253.0414 
L 257.534305 253.111611 
L 256.534305 253.194873 
L 255.534305 253.228015 
L 254.534305 253.279252 
L 253.534305 253.347651 
L 252.534305 253.413866 
L 251.534305 253.490783 
L 250.534305 253.518099 
L 249.534305 253.544576 
L 248.534305 253.567227 
L 247.534305 253.586758 
L 246.534305 253.613152 
L 245.534305 253.662923 
L 244.534305 253.697996 
L 243.534305 253.733862 
L 242.534305 253.749229 
L 241.534305 253.764998 
L 240.534305 253.768411 
L 239.534305 253.770828 
L 238.534305 253.770342 
L 237.534305 253.768413 
L 236.534305 253.755156 
L 235.534305 253.746766 
L 234.534305 253.725229 
L 233.534305 253.702196 
L 232.534305 253.684963 
L 231.534305 253.6665 
L 230.534305 253.646048 
L 229.534305 253.629448 
L 227.981206 253.566669 
" clip-path="url(#p4840196bf1)" style="fill: none; stroke: #1f77b4; stroke-linecap: round"/>
        <path d="M 231.981206 254.771023 
L 231.100838 254.295692 
L 230.222931 253.815438 
L 229.372217 253.280797 
L 228.070043 252.59335 
L 228.997396 252.567335 
L 229.90907 252.154615 
L 230.819335 251.739076 
L 232.16183 251.132272 
L 231.506932 251.771023 
L 231.454967 252.771023 
L 231.395878 254.771023 
z
" clip-path="url(#p4840196bf1)" style="fill: #ffffff; stroke: #ffffff; stroke-width: 3; stroke-linecap: round"/>
        <path d="M 231.981206 254.771023 
L 231.100838 254.295692 
L 230.222931 253.815438 
L 229.372217 253.280797 
L 228.070043 252.59335 
L 228.997396 252.567335 
L 229.90907 252.154615 
L 230.819335 251.739076 
L 232.16183 251.132272 
L 231.506932 251.771023 
L 231.454967 252.771023 
L 231.395878 254.771023 
z
" clip-path="url(#p4840196bf1)" style="fill: #ffffff; stroke: #1f77b4; stroke-linecap: round"/>
        <g id="patch_8">
         <path d="M 354.157021 72.964375 
L 355.157021 72.995811 
L 356.157021 73.032752 
L 357.157021 73.130498 
L 358.157021 73.16302 
L 359.157021 73.236645 
L 360.157021 73.27521 
L 361.157021 73.310623 
L 362.157021 73.368263 
L 363.157021 73.438649 
L 364.157021 73.490614 
L 365.157021 73.549703 
L 366.157021 73.638024 
L 367.157021 73.684169 
L 368.157021 73.72658 
L 369.157021 73.757072 
L 370.157021 73.783117 
L 371.157021 73.804317 
L 372.157021 73.858618 
L 373.157021 73.886556 
L 374.157021 73.91628 
L 375.157021 73.941675 
L 376.157021 73.952875 
L 377.157021 73.962999 
L 378.157021 73.962795 
L 379.157021 73.953285 
L 380.157021 73.941631 
L 381.157021 73.910602 
L 382.157021 73.899434 
L 383.157021 73.869317 
L 384.157021 73.80954 
L 385.157021 73.772348 
L 386.157021 73.733252 
L 387.157021 73.690812 
L 388.157021 73.658047 
L 389.157021 73.590621 
L 390.157021 73.551495 
L 391.157021 73.50882 
L 392.157021 73.43824 
L 393.157021 73.401849 
L 394.157021 73.343446 
L 395.157021 73.232493 
L 396.157021 73.161835 
L 397.157021 73.048895 
L 398.157021 73.003122 
L 399.157021 72.941839 
L 400.157021 72.89334 
L 401.157021 72.812517 
L 402.157021 72.693998 
L 403.157021 72.623787 
L 404.157021 72.540525 
L 405.157021 72.507383 
L 406.157021 72.456146 
L 407.157021 72.387747 
L 408.157021 72.321532 
L 409.157021 72.244615 
L 410.157021 72.217299 
L 411.157021 72.190822 
L 412.157021 72.168171 
L 413.157021 72.14864 
L 414.157021 72.122246 
L 415.157021 72.072475 
L 416.157021 72.037402 
L 417.157021 72.001536 
L 418.157021 71.986169 
L 419.157021 71.9704 
L 420.157021 71.966987 
L 421.157021 71.96457 
L 422.157021 71.965056 
L 423.157021 71.966985 
L 424.157021 71.980242 
L 425.157021 71.988633 
L 426.157021 72.010169 
L 427.157021 72.033202 
L 428.157021 72.050435 
L 429.157021 72.068898 
L 430.157021 72.08935 
L 431.157021 72.10595 
L 432.157021 72.168729 
L 433.157021 72.243994 
L 434.157021 72.276633 
L 435.157021 72.344197 
L 436.157021 72.398244 
L 437.157021 72.431948 
L 438.157021 72.522074 
L 439.157021 72.550609 
L 440.157021 72.582095 
L 441.157021 72.613106 
L 442.157021 72.667914 
L 443.157021 72.732501 
L 444.157021 72.770697 
L 445.157021 72.866631 
L 446.157021 72.915889 
L 447.157021 72.959958 
L 448.157021 73.000082 
L 449.157021 73.108449 
L 450.157021 73.150077 
L 451.157021 73.212219 
L 452.157021 73.282181 
L 453.157021 73.386685 
L 454.157021 73.423673 
L 455.157021 73.46955 
L 456.157021 73.538045 
L 457.157021 73.586791 
L 458.157021 73.664388 
L 459.157021 73.694929 
L 460.157021 73.764443 
L 461.157021 73.788416 
L 462.157021 73.817038 
L 463.157021 73.858831 
L 464.157021 73.880407 
L 465.157021 73.894355 
L 466.157021 73.921077 
L 467.157021 73.930387 
L 468.157021 73.942834 
L 469.157021 73.953889 
L 470.157021 73.959553 
L 471.157021 73.964317 
L 472.157021 73.958769 
L 473.157021 73.945481 
L 474.157021 73.937964 
L 475.157021 73.913179 
L 476.157021 73.88961 
L 477.157021 73.85343 
L 478.157021 73.827468 
L 479.157021 73.805146 
L 480.157021 73.736386 
L 481.157021 73.661851 
L 482.157021 73.567872 
L 483.157021 73.51682 
L 484.157021 73.462886 
L 485.157021 73.427635 
L 486.157021 73.321547 
L 487.157021 73.269283 
L 488.157021 73.232376 
L 489.157021 73.201345 
L 490.157021 73.14019 
L 491.157021 73.07277 
L 492.157021 73.023864 
L 493.157021 72.958672 
L 494.157021 72.920484 
L 495.157021 72.878488 
L 496.157021 72.836471 
L 497.157021 72.776955 
L 498.157021 72.663795 
L 499.157021 72.611544 
L 500.157021 72.572126 
L 501.157021 72.525025 
L 502.157021 72.468245 
L 503.157021 72.435582 
L 504.157021 72.399404 
L 505.157021 72.367314 
L 506.157021 72.333034 
L 507.157021 72.274656 
L 508.157021 72.229471 
L 509.157021 72.199847 
L 510.157021 72.149461 
L 511.157021 72.124264 
L 512.157021 72.103213 
L 513.157021 72.068245 
L 514.157021 72.043955 
L 515.157021 72.029888 
L 516.157021 72.010946 
L 517.157021 71.995285 
L 518.157021 71.982733 
L 519.157021 71.976897 
L 520.157021 71.970015 
L 521.157021 71.964841 
L 522.157021 71.966624 
L 523.157021 71.969349 
L 524.157021 71.980503 
L 525.157021 72.008738 
L 526.157021 72.052526 
L 527.157021 72.073215 
L 528.157021 72.114188 
L 529.157021 72.154263 
L 530.157021 72.173373 
L 531.157021 72.195882 
L 532.157021 72.262533 
L 533.157021 72.312243 
L 534.157021 72.385949 
L 535.157021 72.417263 
L 536.157021 72.493885 
L 537.157021 72.532183 
L 538.157021 72.6063 
L 539.157021 72.710358 
L 540.157021 72.780189 
L 541.157021 72.885423 
L 542.502591 72.940438 
" clip-path="url(#p4840196bf1)" style="fill: none; stroke: #ffffff; stroke-width: 3; stroke-linecap: round"/>
         <path d="M 354.157021 72.964375 
L 355.157021 72.995811 
L 356.157021 73.032752 
L 357.157021 73.130498 
L 358.157021 73.16302 
L 359.157021 73.236645 
L 360.157021 73.27521 
L 361.157021 73.310623 
L 362.157021 73.368263 
L 363.157021 73.438649 
L 364.157021 73.490614 
L 365.157021 73.549703 
L 366.157021 73.638024 
L 367.157021 73.684169 
L 368.157021 73.72658 
L 369.157021 73.757072 
L 370.157021 73.783117 
L 371.157021 73.804317 
L 372.157021 73.858618 
L 373.157021 73.886556 
L 374.157021 73.91628 
L 375.157021 73.941675 
L 376.157021 73.952875 
L 377.157021 73.962999 
L 378.157021 73.962795 
L 379.157021 73.953285 
L 380.157021 73.941631 
L 381.157021 73.910602 
L 382.157021 73.899434 
L 383.157021 73.869317 
L 384.157021 73.80954 
L 385.157021 73.772348 
L 386.157021 73.733252 
L 387.157021 73.690812 
L 388.157021 73.658047 
L 389.157021 73.590621 
L 390.157021 73.551495 
L 391.157021 73.50882 
L 392.157021 73.43824 
L 393.157021 73.401849 
L 394.157021 73.343446 
L 395.157021 73.232493 
L 396.157021 73.161835 
L 397.157021 73.048895 
L 398.157021 73.003122 
L 399.157021 72.941839 
L 400.157021 72.89334 
L 401.157021 72.812517 
L 402.157021 72.693998 
L 403.157021 72.623787 
L 404.157021 72.540525 
L 405.157021 72.507383 
L 406.157021 72.456146 
L 407.157021 72.387747 
L 408.157021 72.321532 
L 409.157021 72.244615 
L 410.157021 72.217299 
L 411.157021 72.190822 
L 412.157021 72.168171 
L 413.157021 72.14864 
L 414.157021 72.122246 
L 415.157021 72.072475 
L 416.157021 72.037402 
L 417.157021 72.001536 
L 418.157021 71.986169 
L 419.157021 71.9704 
L 420.157021 71.966987 
L 421.157021 71.96457 
L 422.157021 71.965056 
L 423.157021 71.966985 
L 424.157021 71.980242 
L 425.157021 71.988633 
L 426.157021 72.010169 
L 427.157021 72.033202 
L 428.157021 72.050435 
L 429.157021 72.068898 
L 430.157021 72.08935 
L 431.157021 72.10595 
L 432.157021 72.168729 
L 433.157021 72.243994 
L 434.157021 72.276633 
L 435.157021 72.344197 
L 436.157021 72.398244 
L 437.157021 72.431948 
L 438.157021 72.522074 
L 439.157021 72.550609 
L 440.157021 72.582095 
L 441.157021 72.613106 
L 442.157021 72.667914 
L 443.157021 72.732501 
L 444.157021 72.770697 
L 445.157021 72.866631 
L 446.157021 72.915889 
L 447.157021 72.959958 
L 448.157021 73.000082 
L 449.157021 73.108449 
L 450.157021 73.150077 
L 451.157021 73.212219 
L 452.157021 73.282181 
L 453.157021 73.386685 
L 454.157021 73.423673 
L 455.157021 73.46955 
L 456.157021 73.538045 
L 457.157021 73.586791 
L 458.157021 73.664388 
L 459.157021 73.694929 
L 460.157021 73.764443 
L 461.157021 73.788416 
L 462.157021 73.817038 
L 463.157021 73.858831 
L 464.157021 73.880407 
L 465.157021 73.894355 
L 466.157021 73.921077 
L 467.157021 73.930387 
L 468.157021 73.942834 
L 469.157021 73.953889 
L 470.157021 73.959553 
L 471.157021 73.964317 
L 472.157021 73.958769 
L 473.157021 73.945481 
L 474.157021 73.937964 
L 475.157021 73.913179 
L 476.157021 73.88961 
L 477.157021 73.85343 
L 478.157021 73.827468 
L 479.157021 73.805146 
L 480.157021 73.736386 
L 481.157021 73.661851 
L 482.157021 73.567872 
L 483.157021 73.51682 
L 484.157021 73.462886 
L 485.157021 73.427635 
L 486.157021 73.321547 
L 487.157021 73.269283 
L 488.157021 73.232376 
L 489.157021 73.201345 
L 490.157021 73.14019 
L 491.157021 73.07277 
L 492.157021 73.023864 
L 493.157021 72.958672 
L 494.157021 72.920484 
L 495.157021 72.878488 
L 496.157021 72.836471 
L 497.157021 72.776955 
L 498.157021 72.663795 
L 499.157021 72.611544 
L 500.157021 72.572126 
L 501.157021 72.525025 
L 502.157021 72.468245 
L 503.157021 72.435582 
L 504.157021 72.399404 
L 505.157021 72.367314 
L 506.157021 72.333034 
L 507.157021 72.274656 
L 508.157021 72.229471 
L 509.157021 72.199847 
L 510.157021 72.149461 
L 511.157021 72.124264 
L 512.157021 72.103213 
L 513.157021 72.068245 
L 514.157021 72.043955 
L 515.157021 72.029888 
L 516.157021 72.010946 
L 517.157021 71.995285 
L 518.157021 71.982733 
L 519.157021 71.976897 
L 520.157021 71.970015 
L 521.157021 71.964841 
L 522.157021 71.966624 
L 523.157021 71.969349 
L 524.157021 71.980503 
L 525.157021 72.008738 
L 526.157021 72.052526 
L 527.157021 72.073215 
L 528.157021 72.114188 
L 529.157021 72.154263 
L 530.157021 72.173373 
L 531.157021 72.195882 
L 532.157021 72.262533 
L 533.157021 72.312243 
L 534.157021 72.385949 
L 535.157021 72.417263 
L 536.157021 72.493885 
L 537.157021 72.532183 
L 538.157021 72.6063 
L 539.157021 72.710358 
L 540.157021 72.780189 
L 541.157021 72.885423 
L 542.502591 72.940438 
" clip-path="url(#p4840196bf1)" style="fill: none; stroke: #1f77b4; stroke-linecap: round"/>
         <path d="M 538.502591 70.964375 
L 539.382959 71.439706 
L 540.260866 71.91996 
L 541.11158 72.454601 
L 542.413754 73.142048 
L 541.486401 73.168063 
L 540.574726 73.580783 
L 539.664462 73.996322 
L 538.321966 74.603126 
L 538.976865 73.964375 
L 539.028829 72.964375 
L 539.087919 70.964375 
z
" clip-path="url(#p4840196bf1)" style="fill: #ffffff; stroke: #ffffff; stroke-width: 3; stroke-linecap: round"/>
         <path d="M 538.502591 70.964375 
L 539.382959 71.439706 
L 540.260866 71.91996 
L 541.11158 72.454601 
L 542.413754 73.142048 
L 541.486401 73.168063 
L 540.574726 73.580783 
L 539.664462 73.996322 
L 538.321966 74.603126 
L 538.976865 73.964375 
L 539.028829 72.964375 
L 539.087919 70.964375 
z
" clip-path="url(#p4840196bf1)" style="fill: #ffffff; stroke: #1f77b4; stroke-linecap: round"/>
         <g id="patch_9">
          <path d="M 226.864678 259.381112 
L 227.864678 259.412549 
L 228.864678 259.449489 
L 229.864678 259.547236 
L 230.864678 259.579757 
L 231.864678 259.653382 
L 232.864678 259.691947 
L 233.864678 259.727361 
L 234.864678 259.785001 
L 235.864678 259.855387 
L 236.864678 259.907351 
L 237.864678 259.966441 
L 238.864678 260.054762 
L 239.864678 260.100906 
L 240.864678 260.143317 
L 241.864678 260.17381 
L 242.864678 260.199855 
L 243.864678 260.221055 
L 244.864678 260.275356 
L 245.864678 260.303293 
L 246.864678 260.333017 
L 247.864678 260.358412 
L 248.864678 260.369612 
L 249.864678 260.379736 
L 250.864678 260.379532 
L 251.864678 260.370022 
L 252.864678 260.358369 
L 253.864678 260.327339 
L 254.864678 260.316171 
L 255.864678 260.286054 
L 256.864678 260.226277 
L 257.864678 260.189085 
L 258.864678 260.149989 
L 259.864678 260.10755 
L 260.864678 260.074785 
L 261.864678 260.007358 
L 262.864678 259.968232 
L 263.864678 259.925558 
L 264.864678 259.854977 
L 265.864678 259.818586 
L 266.864678 259.760183 
L 267.864678 259.64923 
L 268.864678 259.578572 
L 269.864678 259.465632 
L 270.864678 259.419859 
L 271.864678 259.358576 
L 272.864678 259.310077 
L 273.864678 259.229254 
L 274.864678 259.110735 
L 275.864678 259.040525 
L 276.864678 258.957262 
L 277.864678 258.92412 
L 278.864678 258.872883 
L 279.864678 258.804485 
L 280.864678 258.738269 
L 281.864678 258.661352 
L 282.864678 258.634037 
L 283.864678 258.607559 
L 284.864678 258.584909 
L 285.864678 258.565377 
L 286.864678 258.538983 
L 287.864678 258.489212 
L 288.864678 258.454139 
L 289.864678 258.418274 
L 290.864678 258.402906 
L 291.864678 258.387137 
L 292.864678 258.383725 
L 293.864678 258.381307 
L 294.864678 258.381793 
L 295.864678 258.383722 
L 296.864678 258.396979 
L 297.864678 258.40537 
L 298.864678 258.426907 
L 299.864678 258.449939 
L 300.864678 258.467173 
L 301.864678 258.485635 
L 302.864678 258.506088 
L 303.864678 258.522687 
L 304.864678 258.585466 
L 305.864678 258.660731 
L 306.864678 258.69337 
L 307.864678 258.760934 
L 308.864678 258.814981 
L 309.864678 258.848685 
L 310.864678 258.938811 
L 311.864678 258.967346 
L 312.864678 258.998832 
L 313.864678 259.029843 
L 314.864678 259.084651 
L 315.864678 259.149239 
L 316.864678 259.187434 
L 317.864678 259.283368 
L 318.864678 259.332626 
L 319.864678 259.376696 
L 320.864678 259.416819 
L 321.864678 259.525186 
L 322.864678 259.566814 
L 323.864678 259.628956 
L 324.864678 259.698918 
L 325.864678 259.803423 
L 326.864678 259.84041 
L 327.864678 259.886287 
L 328.864678 259.954782 
L 329.864678 260.003528 
L 330.864678 260.081125 
L 331.864678 260.111666 
L 332.864678 260.181181 
L 333.864678 260.205153 
L 334.864678 260.233775 
L 335.864678 260.275568 
L 336.864678 260.297144 
L 337.864678 260.311092 
L 338.864678 260.337815 
L 339.864678 260.347124 
L 340.864678 260.359571 
L 341.864678 260.370626 
L 342.864678 260.376291 
L 343.864678 260.381054 
L 344.864678 260.375507 
L 345.864678 260.362219 
L 346.864678 260.354701 
L 347.864678 260.329916 
L 348.864678 260.306348 
L 349.864678 260.270167 
L 350.864678 260.244205 
L 351.864678 260.221884 
L 352.864678 260.153123 
L 353.864678 260.078588 
L 354.864678 259.984609 
L 355.864678 259.933557 
L 356.864678 259.879623 
L 357.864678 259.844372 
L 358.864678 259.738284 
L 359.864678 259.68602 
L 360.864678 259.649114 
L 361.864678 259.618083 
L 362.864678 259.556927 
L 363.864678 259.489507 
L 364.864678 259.440601 
L 365.864678 259.375409 
L 366.864678 259.337222 
L 367.864678 259.295226 
L 368.864678 259.253208 
L 369.864678 259.193692 
L 370.864678 259.080532 
L 371.864678 259.028281 
L 372.864678 258.988864 
L 373.864678 258.941762 
L 374.864678 258.884983 
L 375.864678 258.85232 
L 376.864678 258.816142 
L 377.864678 258.784051 
L 378.864678 258.749771 
L 379.864678 258.691393 
L 380.864678 258.646208 
L 381.864678 258.616584 
L 382.864678 258.566199 
L 383.864678 258.541001 
L 384.864678 258.51995 
L 385.864678 258.484982 
L 386.864678 258.460692 
L 387.864678 258.446625 
L 388.864678 258.427683 
L 389.864678 258.412022 
L 390.864678 258.39947 
L 391.864678 258.393634 
L 392.864678 258.386752 
L 393.864678 258.381578 
L 394.864678 258.383361 
L 395.864678 258.386087 
L 396.864678 258.39724 
L 397.864678 258.425475 
L 398.864678 258.469263 
L 399.864678 258.489952 
L 400.864678 258.530926 
L 401.864678 258.571001 
L 402.864678 258.59011 
L 403.864678 258.612619 
L 404.864678 258.679271 
L 405.864678 258.72898 
L 406.864678 258.802687 
L 407.864678 258.834 
L 408.864678 258.910622 
L 409.864678 258.94892 
L 410.864678 259.023037 
L 411.864678 259.127096 
L 412.864678 259.196926 
L 413.864678 259.30216 
L 414.864678 259.357175 
L 415.864678 259.48065 
L 416.864678 259.551209 
L 417.864678 259.667049 
L 418.864678 259.717229 
L 419.864678 259.752834 
L 420.864678 259.84424 
L 421.864678 259.897748 
L 422.864678 259.985656 
L 423.864678 260.054841 
L 424.864678 260.101606 
L 425.864678 260.173649 
L 426.864678 260.223791 
L 427.864678 260.241181 
L 428.864678 260.268184 
L 429.864678 260.287612 
L 430.864678 260.30695 
L 431.864678 260.345198 
L 432.864678 260.361631 
L 433.864678 260.37 
L 434.911787 260.374319 
" clip-path="url(#p4840196bf1)" style="fill: none; stroke: #ffffff; stroke-width: 3; stroke-linecap: round"/>
          <path d="M 226.864678 259.381112 
L 227.864678 259.412549 
L 228.864678 259.449489 
L 229.864678 259.547236 
L 230.864678 259.579757 
L 231.864678 259.653382 
L 232.864678 259.691947 
L 233.864678 259.727361 
L 234.864678 259.785001 
L 235.864678 259.855387 
L 236.864678 259.907351 
L 237.864678 259.966441 
L 238.864678 260.054762 
L 239.864678 260.100906 
L 240.864678 260.143317 
L 241.864678 260.17381 
L 242.864678 260.199855 
L 243.864678 260.221055 
L 244.864678 260.275356 
L 245.864678 260.303293 
L 246.864678 260.333017 
L 247.864678 260.358412 
L 248.864678 260.369612 
L 249.864678 260.379736 
L 250.864678 260.379532 
L 251.864678 260.370022 
L 252.864678 260.358369 
L 253.864678 260.327339 
L 254.864678 260.316171 
L 255.864678 260.286054 
L 256.864678 260.226277 
L 257.864678 260.189085 
L 258.864678 260.149989 
L 259.864678 260.10755 
L 260.864678 260.074785 
L 261.864678 260.007358 
L 262.864678 259.968232 
L 263.864678 259.925558 
L 264.864678 259.854977 
L 265.864678 259.818586 
L 266.864678 259.760183 
L 267.864678 259.64923 
L 268.864678 259.578572 
L 269.864678 259.465632 
L 270.864678 259.419859 
L 271.864678 259.358576 
L 272.864678 259.310077 
L 273.864678 259.229254 
L 274.864678 259.110735 
L 275.864678 259.040525 
L 276.864678 258.957262 
L 277.864678 258.92412 
L 278.864678 258.872883 
L 279.864678 258.804485 
L 280.864678 258.738269 
L 281.864678 258.661352 
L 282.864678 258.634037 
L 283.864678 258.607559 
L 284.864678 258.584909 
L 285.864678 258.565377 
L 286.864678 258.538983 
L 287.864678 258.489212 
L 288.864678 258.454139 
L 289.864678 258.418274 
L 290.864678 258.402906 
L 291.864678 258.387137 
L 292.864678 258.383725 
L 293.864678 258.381307 
L 294.864678 258.381793 
L 295.864678 258.383722 
L 296.864678 258.396979 
L 297.864678 258.40537 
L 298.864678 258.426907 
L 299.864678 258.449939 
L 300.864678 258.467173 
L 301.864678 258.485635 
L 302.864678 258.506088 
L 303.864678 258.522687 
L 304.864678 258.585466 
L 305.864678 258.660731 
L 306.864678 258.69337 
L 307.864678 258.760934 
L 308.864678 258.814981 
L 309.864678 258.848685 
L 310.864678 258.938811 
L 311.864678 258.967346 
L 312.864678 258.998832 
L 313.864678 259.029843 
L 314.864678 259.084651 
L 315.864678 259.149239 
L 316.864678 259.187434 
L 317.864678 259.283368 
L 318.864678 259.332626 
L 319.864678 259.376696 
L 320.864678 259.416819 
L 321.864678 259.525186 
L 322.864678 259.566814 
L 323.864678 259.628956 
L 324.864678 259.698918 
L 325.864678 259.803423 
L 326.864678 259.84041 
L 327.864678 259.886287 
L 328.864678 259.954782 
L 329.864678 260.003528 
L 330.864678 260.081125 
L 331.864678 260.111666 
L 332.864678 260.181181 
L 333.864678 260.205153 
L 334.864678 260.233775 
L 335.864678 260.275568 
L 336.864678 260.297144 
L 337.864678 260.311092 
L 338.864678 260.337815 
L 339.864678 260.347124 
L 340.864678 260.359571 
L 341.864678 260.370626 
L 342.864678 260.376291 
L 343.864678 260.381054 
L 344.864678 260.375507 
L 345.864678 260.362219 
L 346.864678 260.354701 
L 347.864678 260.329916 
L 348.864678 260.306348 
L 349.864678 260.270167 
L 350.864678 260.244205 
L 351.864678 260.221884 
L 352.864678 260.153123 
L 353.864678 260.078588 
L 354.864678 259.984609 
L 355.864678 259.933557 
L 356.864678 259.879623 
L 357.864678 259.844372 
L 358.864678 259.738284 
L 359.864678 259.68602 
L 360.864678 259.649114 
L 361.864678 259.618083 
L 362.864678 259.556927 
L 363.864678 259.489507 
L 364.864678 259.440601 
L 365.864678 259.375409 
L 366.864678 259.337222 
L 367.864678 259.295226 
L 368.864678 259.253208 
L 369.864678 259.193692 
L 370.864678 259.080532 
L 371.864678 259.028281 
L 372.864678 258.988864 
L 373.864678 258.941762 
L 374.864678 258.884983 
L 375.864678 258.85232 
L 376.864678 258.816142 
L 377.864678 258.784051 
L 378.864678 258.749771 
L 379.864678 258.691393 
L 380.864678 258.646208 
L 381.864678 258.616584 
L 382.864678 258.566199 
L 383.864678 258.541001 
L 384.864678 258.51995 
L 385.864678 258.484982 
L 386.864678 258.460692 
L 387.864678 258.446625 
L 388.864678 258.427683 
L 389.864678 258.412022 
L 390.864678 258.39947 
L 391.864678 258.393634 
L 392.864678 258.386752 
L 393.864678 258.381578 
L 394.864678 258.383361 
L 395.864678 258.386087 
L 396.864678 258.39724 
L 397.864678 258.425475 
L 398.864678 258.469263 
L 399.864678 258.489952 
L 400.864678 258.530926 
L 401.864678 258.571001 
L 402.864678 258.59011 
L 403.864678 258.612619 
L 404.864678 258.679271 
L 405.864678 258.72898 
L 406.864678 258.802687 
L 407.864678 258.834 
L 408.864678 258.910622 
L 409.864678 258.94892 
L 410.864678 259.023037 
L 411.864678 259.127096 
L 412.864678 259.196926 
L 413.864678 259.30216 
L 414.864678 259.357175 
L 415.864678 259.48065 
L 416.864678 259.551209 
L 417.864678 259.667049 
L 418.864678 259.717229 
L 419.864678 259.752834 
L 420.864678 259.84424 
L 421.864678 259.897748 
L 422.864678 259.985656 
L 423.864678 260.054841 
L 424.864678 260.101606 
L 425.864678 260.173649 
L 426.864678 260.223791 
L 427.864678 260.241181 
L 428.864678 260.268184 
L 429.864678 260.287612 
L 430.864678 260.30695 
L 431.864678 260.345198 
L 432.864678 260.361631 
L 433.864678 260.37 
L 434.911787 260.374319 
" clip-path="url(#p4840196bf1)" style="fill: none; stroke: #ff7f0e; stroke-linecap: round"/>
          <path d="M 430.911787 257.381112 
L 431.792155 257.856443 
L 432.670062 258.336697 
L 433.520776 258.871338 
L 434.82295 259.558786 
L 433.895597 259.584801 
L 432.983923 259.99752 
L 432.073658 260.413059 
L 430.731163 261.019864 
L 431.386061 260.381112 
L 431.438026 259.381112 
L 431.497115 257.381112 
z
" clip-path="url(#p4840196bf1)" style="fill: #ffffff; stroke: #ffffff; stroke-width: 3; stroke-linecap: round"/>
          <path d="M 430.911787 257.381112 
L 431.792155 257.856443 
L 432.670062 258.336697 
L 433.520776 258.871338 
L 434.82295 259.558786 
L 433.895597 259.584801 
L 432.983923 259.99752 
L 432.073658 260.413059 
L 430.731163 261.019864 
L 431.386061 260.381112 
L 431.438026 259.381112 
L 431.497115 257.381112 
z
" clip-path="url(#p4840196bf1)" style="fill: #ffffff; stroke: #ff7f0e; stroke-linecap: round"/>
          <path d="M 460.049555 308.238736 
" clip-path="url(#p4840196bf1)" style="fill: none; stroke-dasharray: 3.7,1.6; stroke-dashoffset: 0; stroke: #2ca02c"/>
          <path d="M 459.049555 308.238736 
L 461.049555 309.238736 
L 461.049555 307.238736 
z
" clip-path="url(#p4840196bf1)" style="fill: #2ca02c; stroke: #2ca02c; stroke-linejoin: miter"/>
          <g id="patch_10">
           <path d="M 63.290625 321.621875 
L 63.290625 10.8 
" style="fill: none; stroke: #000000; stroke-width: 0.8; stroke-linejoin: miter; stroke-linecap: square"/>
          </g>
          <g id="text_12">
           <g id="patch_11">
            <path d="M 319.693712 138.624574 
L 340.998399 138.624574 
Q 342.998399 138.624574 342.998399 136.624574 
L 342.998399 126.946449 
Q 342.998399 124.946449 340.998399 124.946449 
L 319.693712 124.946449 
Q 317.693712 124.946449 317.693712 126.946449 
L 317.693712 136.624574 
Q 317.693712 138.624574 319.693712 138.624574 
z
" style="fill: #ffffff; opacity: 0.6"/>
           </g>
           <!-- ANC -->
           <g transform="translate(319.693712 134.544887) scale(0.1 -0.1)">
            <defs>
             <path id="DejaVuSans-4e" d="M 628 4666 
L 1478 4666 
L 3547 763 
L 3547 4666 
L 4159 4666 
L 4159 0 
L 3309 0 
L 1241 3903 
L 1241 0 
L 628 0 
L 628 4666 
z
" transform="scale(0.015625)"/>
            </defs>
            <use xlink:href="#DejaVuSans-41"/>
            <use xlink:href="#DejaVuSans-4e" x="68.408203"/>
            <use xlink:href="#DejaVuSans-43" x="143.212891"/>
           </g>
          </g>
         </g>
        </g>
        <defs>
         <clipPath id="p4840196bf1">
          <rect x="63.290625" y="10.8" width="540.309375" height="310.821875"/>
         </clipPath>
        </defs>
       </g>
      </g>
     </g>
    </g>
   </g>
  </g>
 </g>
</svg>
