<?xml version="1.0" encoding="utf-8" standalone="no"?>
<!DOCTYPE svg PUBLIC "-//W3C//DTD SVG 1.1//EN"
  "http://www.w3.org/Graphics/SVG/1.1/DTD/svg11.dtd">
<svg xmlns:xlink="http://www.w3.org/1999/xlink" width="614.4pt" height="345.6pt" viewBox="0 0 614.4 345.6" xmlns="http://www.w3.org/2000/svg" version="1.1">
 <metadata>
  <rdf:RDF xmlns:dc="http://purl.org/dc/elements/1.1/" xmlns:cc="http://creativecommons.org/ns#" xmlns:rdf="http://www.w3.org/1999/02/22-rdf-syntax-ns#">
   <cc:Work>
    <dc:type rdf:resource="http://purl.org/dc/dcmitype/StillImage"/>
    <dc:date>2024-04-17T19:48:47.759285</dc:date>
    <dc:format>image/svg+xml</dc:format>
    <dc:creator>
     <cc:Agent>
      <dc:title>Matplotlib v3.7.1, https://matplotlib.org/</dc:title>
     </cc:Agent>
    </dc:creator>
   </cc:Work>
  </rdf:RDF>
 </metadata>
 <defs>
  <style type="text/css">*{stroke-linejoin: round; stroke-linecap: butt}</style>
 </defs>
 <g id="figure_1">
  <g id="patch_1">
   <path d="M 0 345.6 
L 614.4 345.6 
L 614.4 0 
L 0 0 
z
" style="fill: #ffffff"/>
  </g>
  <g id="axes_1">
   <g id="patch_2">
    <path d="M 63.290625 321.621875 
L 603.6 321.621875 
L 603.6 10.8 
L 63.290625 10.8 
z
" style="fill: #ffffff"/>
   </g>
   <path d="M 559.937195 297.776283 
L 558.937195 297.744846 
L 557.937195 297.707906 
L 556.937195 297.610159 
L 555.937195 297.577638 
L 554.937195 297.504013 
L 553.937195 297.465447 
L 552.937195 297.430034 
L 551.937195 297.372394 
L 550.937195 297.302008 
L 549.937195 297.250044 
L 548.937195 297.190954 
L 547.937195 297.102633 
L 546.937195 297.056489 
L 545.937195 297.014078 
L 544.937195 296.983585 
L 543.937195 296.95754 
L 542.937195 296.93634 
L 541.937195 296.882039 
L 540.937195 296.854101 
L 539.937195 296.824378 
L 538.937195 296.798983 
L 537.937195 296.787782 
L 536.937195 296.777658 
L 535.937195 296.777863 
L 534.937195 296.787373 
L 533.937195 296.799026 
L 532.937195 296.830055 
L 531.937195 296.841223 
L 530.937195 296.871341 
L 529.937195 296.931118 
L 528.937195 296.968309 
L 527.937195 297.007405 
L 526.937195 297.049845 
L 525.937195 297.08261 
L 524.937195 297.150037 
L 523.937195 297.189163 
L 522.937195 297.231837 
L 521.937195 297.302418 
L 520.937195 297.338809 
L 519.937195 297.397212 
L 518.937195 297.508164 
L 517.937195 297.578823 
L 516.937195 297.691762 
L 515.937195 297.737535 
L 514.937195 297.798819 
L 513.937195 297.847318 
L 512.937195 297.928141 
L 511.937195 298.04666 
L 510.937195 298.11687 
L 509.937195 298.200133 
L 508.937195 298.233274 
L 507.937195 298.284512 
L 506.937195 298.35291 
L 505.937195 298.419125 
L 504.937195 298.496043 
L 503.937195 298.523358 
L 502.937195 298.549836 
L 501.937195 298.572486 
L 500.937195 298.592017 
L 499.937195 298.618411 
L 498.937195 298.668182 
L 497.937195 298.703255 
L 496.937195 298.739121 
L 495.937195 298.754488 
L 494.937195 298.770258 
L 493.937195 298.77367 
L 492.937195 298.776088 
L 491.937195 298.775602 
L 490.937195 298.773672 
L 489.937195 298.760415 
L 488.937195 298.752025 
L 487.937195 298.730488 
L 486.937195 298.707456 
L 485.937195 298.690222 
L 484.937195 298.67176 
L 483.937195 298.651307 
L 482.937195 298.634707 
L 481.937195 298.571929 
L 480.937195 298.496664 
L 479.937195 298.464024 
L 478.937195 298.396461 
L 477.937195 298.342414 
L 476.937195 298.308709 
L 475.937195 298.218583 
L 474.937195 298.190048 
L 473.937195 298.158562 
L 472.937195 298.127552 
L 471.937195 298.072744 
L 470.36965 298.008156 
" clip-path="url(#p9fccfeab7f)" style="fill: none; stroke-dasharray: 3.7,1.6; stroke-dashoffset: 0; stroke: #2ca02c"/>
   <g id="patch_3">
    <path d="M 291.967563 10.8 
L 291.967563 125.324077 
M 378.802162 10.8 
L 378.802162 125.324077 
" clip-path="url(#p9fccfeab7f)" style="fill: none; stroke: #ffffff; stroke-width: 3; stroke-linejoin: miter"/>
    <path d="M 291.967563 10.8 
L 291.967563 125.324077 
M 378.802162 10.8 
L 378.802162 125.324077 
" clip-path="url(#p9fccfeab7f)" style="fill: none; stroke: #1f77b4; stroke-linejoin: miter"/>
    <g id="PolyCollection_1">
     <path d="M 378.802162 10.8 
L 291.967563 10.8 
L 291.967563 125.324077 
L 378.802162 125.324077 
L 378.802162 125.324077 
L 378.802162 10.8 
z
" clip-path="url(#p9fccfeab7f)" style="fill: #1f77b4; fill-opacity: 0.5"/>
    </g>
    <g id="patch_4">
     <path d="M 87.850142 125.324077 
L 87.850142 321.621875 
M 227.711299 125.324077 
L 227.711299 321.621875 
" clip-path="url(#p9fccfeab7f)" style="fill: none; stroke: #ffffff; stroke-width: 3; stroke-linejoin: miter"/>
     <path d="M 87.850142 125.324077 
L 87.850142 321.621875 
M 227.711299 125.324077 
L 227.711299 321.621875 
" clip-path="url(#p9fccfeab7f)" style="fill: none; stroke: #ff7f0e; stroke-linejoin: miter"/>
     <g id="PolyCollection_2">
      <path d="M 227.711299 125.324077 
L 87.850142 125.324077 
L 87.850142 321.621875 
L 227.711299 321.621875 
L 227.711299 321.621875 
L 227.711299 125.324077 
z
" clip-path="url(#p9fccfeab7f)" style="fill: #ff7f0e; fill-opacity: 0.5"/>
     </g>
     <g id="patch_5">
      <path d="M 565.340288 72.964375 
L 565.340288 321.621875 
M 579.040483 72.964375 
L 579.040483 321.621875 
" clip-path="url(#p9fccfeab7f)" style="fill: none; stroke: #ffffff; stroke-width: 3; stroke-linejoin: miter"/>
      <path d="M 565.340288 72.964375 
L 565.340288 321.621875 
M 579.040483 72.964375 
L 579.040483 321.621875 
" clip-path="url(#p9fccfeab7f)" style="fill: none; stroke: #2ca02c; stroke-linejoin: miter"/>
      <g id="PolyCollection_3">
       <path d="M 579.040483 72.964375 
L 565.340288 72.964375 
L 565.340288 321.621875 
L 579.040483 321.621875 
L 579.040483 321.621875 
L 579.040483 72.964375 
z
" clip-path="url(#p9fccfeab7f)" style="fill: #2ca02c; fill-opacity: 0.5"/>
      </g>
      <g id="patch_6">
       <path d="M 442.608692 131.297265 
L 442.608692 321.621875 
M 464.966556 131.297265 
L 464.966556 321.621875 
" clip-path="url(#p9fccfeab7f)" style="fill: none; stroke: #ffffff; stroke-width: 3; stroke-linejoin: miter"/>
       <path d="M 442.608692 131.297265 
L 442.608692 321.621875 
M 464.966556 131.297265 
L 464.966556 321.621875 
" clip-path="url(#p9fccfeab7f)" style="fill: none; stroke: #d62728; stroke-linejoin: miter"/>
       <g id="PolyCollection_4">
        <path d="M 464.966556 131.297265 
L 442.608692 131.297265 
L 442.608692 321.621875 
L 464.966556 321.621875 
L 464.966556 321.621875 
L 464.966556 131.297265 
z
" clip-path="url(#p9fccfeab7f)" style="fill: #d62728; fill-opacity: 0.5"/>
       </g>
       <g id="matplotlib.axis_1">
        <g id="xtick_1">
         <g id="line2d_1"/>
         <g id="text_1">
          <!-- OUT -->
          <g transform="translate(147.131502 332.720312) scale(0.1 -0.1)">
           <defs>
            <path id="DejaVuSans-4f" d="M 2522 4238 
Q 1834 4238 1429 3725 
Q 1025 3213 1025 2328 
Q 1025 1447 1429 934 
Q 1834 422 2522 422 
Q 3209 422 3611 934 
Q 4013 1447 4013 2328 
Q 4013 3213 3611 3725 
Q 3209 4238 2522 4238 
z
M 2522 4750 
Q 3503 4750 4090 4092 
Q 4678 3434 4678 2328 
Q 4678 1225 4090 567 
Q 3503 -91 2522 -91 
Q 1538 -91 948 565 
Q 359 1222 359 2328 
Q 359 3434 948 4092 
Q 1538 4750 2522 4750 
z
" transform="scale(0.015625)"/>
            <path id="DejaVuSans-55" d="M 556 4666 
L 1191 4666 
L 1191 1831 
Q 1191 1081 1462 751 
Q 1734 422 2344 422 
Q 2950 422 3222 751 
Q 3494 1081 3494 1831 
L 3494 4666 
L 4128 4666 
L 4128 1753 
Q 4128 841 3676 375 
Q 3225 -91 2344 -91 
Q 1459 -91 1007 375 
Q 556 841 556 1753 
L 556 4666 
z
" transform="scale(0.015625)"/>
            <path id="DejaVuSans-54" d="M -19 4666 
L 3928 4666 
L 3928 4134 
L 2272 4134 
L 2272 0 
L 1638 0 
L 1638 4134 
L -19 4134 
L -19 4666 
z
" transform="scale(0.015625)"/>
           </defs>
           <use xlink:href="#DejaVuSans-4f"/>
           <use xlink:href="#DejaVuSans-55" x="78.710938"/>
           <use xlink:href="#DejaVuSans-54" x="151.904297"/>
          </g>
         </g>
        </g>
        <g id="xtick_2">
         <g id="line2d_2"/>
         <g id="text_2">
          <!-- SRC -->
          <g transform="translate(562.300542 332.720312) scale(0.1 -0.1)">
           <defs>
            <path id="DejaVuSans-53" d="M 3425 4513 
L 3425 3897 
Q 3066 4069 2747 4153 
Q 2428 4238 2131 4238 
Q 1616 4238 1336 4038 
Q 1056 3838 1056 3469 
Q 1056 3159 1242 3001 
Q 1428 2844 1947 2747 
L 2328 2669 
Q 3034 2534 3370 2195 
Q 3706 1856 3706 1288 
Q 3706 609 3251 259 
Q 2797 -91 1919 -91 
Q 1588 -91 1214 -16 
Q 841 59 441 206 
L 441 856 
Q 825 641 1194 531 
Q 1563 422 1919 422 
Q 2459 422 2753 634 
Q 3047 847 3047 1241 
Q 3047 1584 2836 1778 
Q 2625 1972 2144 2069 
L 1759 2144 
Q 1053 2284 737 2584 
Q 422 2884 422 3419 
Q 422 4038 858 4394 
Q 1294 4750 2059 4750 
Q 2388 4750 2728 4690 
Q 3069 4631 3425 4513 
z
" transform="scale(0.015625)"/>
            <path id="DejaVuSans-52" d="M 2841 2188 
Q 3044 2119 3236 1894 
Q 3428 1669 3622 1275 
L 4263 0 
L 3584 0 
L 2988 1197 
Q 2756 1666 2539 1819 
Q 2322 1972 1947 1972 
L 1259 1972 
L 1259 0 
L 628 0 
L 628 4666 
L 2053 4666 
Q 2853 4666 3247 4331 
Q 3641 3997 3641 3322 
Q 3641 2881 3436 2590 
Q 3231 2300 2841 2188 
z
M 1259 4147 
L 1259 2491 
L 2053 2491 
Q 2509 2491 2742 2702 
Q 2975 2913 2975 3322 
Q 2975 3731 2742 3939 
Q 2509 4147 2053 4147 
L 1259 4147 
z
" transform="scale(0.015625)"/>
            <path id="DejaVuSans-43" d="M 4122 4306 
L 4122 3641 
Q 3803 3938 3442 4084 
Q 3081 4231 2675 4231 
Q 1875 4231 1450 3742 
Q 1025 3253 1025 2328 
Q 1025 1406 1450 917 
Q 1875 428 2675 428 
Q 3081 428 3442 575 
Q 3803 722 4122 1019 
L 4122 359 
Q 3791 134 3420 21 
Q 3050 -91 2638 -91 
Q 1578 -91 968 557 
Q 359 1206 359 2328 
Q 359 3453 968 4101 
Q 1578 4750 2638 4750 
Q 3056 4750 3426 4639 
Q 3797 4528 4122 4306 
z
" transform="scale(0.015625)"/>
           </defs>
           <use xlink:href="#DejaVuSans-53"/>
           <use xlink:href="#DejaVuSans-52" x="63.476562"/>
           <use xlink:href="#DejaVuSans-43" x="127.958984"/>
          </g>
         </g>
        </g>
        <g id="xtick_3">
         <g id="line2d_3"/>
         <g id="text_3">
          <!-- TAR -->
          <g transform="translate(444.226687 332.720312) scale(0.1 -0.1)">
           <defs>
            <path id="DejaVuSans-41" d="M 2188 4044 
L 1331 1722 
L 3047 1722 
L 2188 4044 
z
M 1831 4666 
L 2547 4666 
L 4325 0 
L 3669 0 
L 3244 1197 
L 1141 1197 
L 716 0 
L 50 0 
L 1831 4666 
z
" transform="scale(0.015625)"/>
           </defs>
           <use xlink:href="#DejaVuSans-54"/>
           <use xlink:href="#DejaVuSans-41" x="53.333984"/>
           <use xlink:href="#DejaVuSans-52" x="121.742188"/>
          </g>
         </g>
        </g>
       </g>
       <g id="matplotlib.axis_2">
        <g id="ytick_1">
         <g id="line2d_4">
          <defs>
           <path id="m03e9126db9" d="M 0 0 
L -3.5 0 
" style="stroke: #000000; stroke-width: 0.8"/>
          </defs>
          <g>
           <use xlink:href="#m03e9126db9" x="63.290625" y="321.621875" style="stroke: #000000; stroke-width: 0.8"/>
          </g>
         </g>
         <g id="text_4">
          <!-- 0 -->
          <g transform="translate(49.928125 325.421094) scale(0.1 -0.1)">
           <defs>
            <path id="DejaVuSans-30" d="M 2034 4250 
Q 1547 4250 1301 3770 
Q 1056 3291 1056 2328 
Q 1056 1369 1301 889 
Q 1547 409 2034 409 
Q 2525 409 2770 889 
Q 3016 1369 3016 2328 
Q 3016 3291 2770 3770 
Q 2525 4250 2034 4250 
z
M 2034 4750 
Q 2819 4750 3233 4129 
Q 3647 3509 3647 2328 
Q 3647 1150 3233 529 
Q 2819 -91 2034 -91 
Q 1250 -91 836 529 
Q 422 1150 422 2328 
Q 422 3509 836 4129 
Q 1250 4750 2034 4750 
z
" transform="scale(0.015625)"/>
           </defs>
           <use xlink:href="#DejaVuSans-30"/>
          </g>
         </g>
        </g>
        <g id="ytick_2">
         <g id="line2d_5">
          <g>
           <use xlink:href="#m03e9126db9" x="63.290625" y="282.32459" style="stroke: #000000; stroke-width: 0.8"/>
          </g>
         </g>
         <g id="text_5">
          <!-- 2500 -->
          <g transform="translate(30.840625 286.123809) scale(0.1 -0.1)">
           <defs>
            <path id="DejaVuSans-32" d="M 1228 531 
L 3431 531 
L 3431 0 
L 469 0 
L 469 531 
Q 828 903 1448 1529 
Q 2069 2156 2228 2338 
Q 2531 2678 2651 2914 
Q 2772 3150 2772 3378 
Q 2772 3750 2511 3984 
Q 2250 4219 1831 4219 
Q 1534 4219 1204 4116 
Q 875 4013 500 3803 
L 500 4441 
Q 881 4594 1212 4672 
Q 1544 4750 1819 4750 
Q 2544 4750 2975 4387 
Q 3406 4025 3406 3419 
Q 3406 3131 3298 2873 
Q 3191 2616 2906 2266 
Q 2828 2175 2409 1742 
Q 1991 1309 1228 531 
z
" transform="scale(0.015625)"/>
            <path id="DejaVuSans-35" d="M 691 4666 
L 3169 4666 
L 3169 4134 
L 1269 4134 
L 1269 2991 
Q 1406 3038 1543 3061 
Q 1681 3084 1819 3084 
Q 2600 3084 3056 2656 
Q 3513 2228 3513 1497 
Q 3513 744 3044 326 
Q 2575 -91 1722 -91 
Q 1428 -91 1123 -41 
Q 819 9 494 109 
L 494 744 
Q 775 591 1075 516 
Q 1375 441 1709 441 
Q 2250 441 2565 725 
Q 2881 1009 2881 1497 
Q 2881 1984 2565 2268 
Q 2250 2553 1709 2553 
Q 1456 2553 1204 2497 
Q 953 2441 691 2322 
L 691 4666 
z
" transform="scale(0.015625)"/>
           </defs>
           <use xlink:href="#DejaVuSans-32"/>
           <use xlink:href="#DejaVuSans-35" x="63.623047"/>
           <use xlink:href="#DejaVuSans-30" x="127.246094"/>
           <use xlink:href="#DejaVuSans-30" x="190.869141"/>
          </g>
         </g>
        </g>
        <g id="ytick_3">
         <g id="line2d_6">
          <g>
           <use xlink:href="#m03e9126db9" x="63.290625" y="243.027305" style="stroke: #000000; stroke-width: 0.8"/>
          </g>
         </g>
         <g id="text_6">
          <!-- 5000 -->
          <g transform="translate(30.840625 246.826524) scale(0.1 -0.1)">
           <use xlink:href="#DejaVuSans-35"/>
           <use xlink:href="#DejaVuSans-30" x="63.623047"/>
           <use xlink:href="#DejaVuSans-30" x="127.246094"/>
           <use xlink:href="#DejaVuSans-30" x="190.869141"/>
          </g>
         </g>
        </g>
        <g id="ytick_4">
         <g id="line2d_7">
          <g>
           <use xlink:href="#m03e9126db9" x="63.290625" y="203.73002" style="stroke: #000000; stroke-width: 0.8"/>
          </g>
         </g>
         <g id="text_7">
          <!-- 7500 -->
          <g transform="translate(30.840625 207.529239) scale(0.1 -0.1)">
           <defs>
            <path id="DejaVuSans-37" d="M 525 4666 
L 3525 4666 
L 3525 4397 
L 1831 0 
L 1172 0 
L 2766 4134 
L 525 4134 
L 525 4666 
z
" transform="scale(0.015625)"/>
           </defs>
           <use xlink:href="#DejaVuSans-37"/>
           <use xlink:href="#DejaVuSans-35" x="63.623047"/>
           <use xlink:href="#DejaVuSans-30" x="127.246094"/>
           <use xlink:href="#DejaVuSans-30" x="190.869141"/>
          </g>
         </g>
        </g>
        <g id="ytick_5">
         <g id="line2d_8">
          <g>
           <use xlink:href="#m03e9126db9" x="63.290625" y="164.432735" style="stroke: #000000; stroke-width: 0.8"/>
          </g>
         </g>
         <g id="text_8">
          <!-- 10000 -->
          <g transform="translate(24.478125 168.231954) scale(0.1 -0.1)">
           <defs>
            <path id="DejaVuSans-31" d="M 794 531 
L 1825 531 
L 1825 4091 
L 703 3866 
L 703 4441 
L 1819 4666 
L 2450 4666 
L 2450 531 
L 3481 531 
L 3481 0 
L 794 0 
L 794 531 
z
" transform="scale(0.015625)"/>
           </defs>
           <use xlink:href="#DejaVuSans-31"/>
           <use xlink:href="#DejaVuSans-30" x="63.623047"/>
           <use xlink:href="#DejaVuSans-30" x="127.246094"/>
           <use xlink:href="#DejaVuSans-30" x="190.869141"/>
           <use xlink:href="#DejaVuSans-30" x="254.492188"/>
          </g>
         </g>
        </g>
        <g id="ytick_6">
         <g id="line2d_9">
          <g>
           <use xlink:href="#m03e9126db9" x="63.290625" y="125.13545" style="stroke: #000000; stroke-width: 0.8"/>
          </g>
         </g>
         <g id="text_9">
          <!-- 12500 -->
          <g transform="translate(24.478125 128.934669) scale(0.1 -0.1)">
           <use xlink:href="#DejaVuSans-31"/>
           <use xlink:href="#DejaVuSans-32" x="63.623047"/>
           <use xlink:href="#DejaVuSans-35" x="127.246094"/>
           <use xlink:href="#DejaVuSans-30" x="190.869141"/>
           <use xlink:href="#DejaVuSans-30" x="254.492188"/>
          </g>
         </g>
        </g>
        <g id="ytick_7">
         <g id="line2d_10">
          <g>
           <use xlink:href="#m03e9126db9" x="63.290625" y="85.838166" style="stroke: #000000; stroke-width: 0.8"/>
          </g>
         </g>
         <g id="text_10">
          <!-- 15000 -->
          <g transform="translate(24.478125 89.637384) scale(0.1 -0.1)">
           <use xlink:href="#DejaVuSans-31"/>
           <use xlink:href="#DejaVuSans-35" x="63.623047"/>
           <use xlink:href="#DejaVuSans-30" x="127.246094"/>
           <use xlink:href="#DejaVuSans-30" x="190.869141"/>
           <use xlink:href="#DejaVuSans-30" x="254.492188"/>
          </g>
         </g>
        </g>
        <g id="ytick_8">
         <g id="line2d_11">
          <g>
           <use xlink:href="#m03e9126db9" x="63.290625" y="46.540881" style="stroke: #000000; stroke-width: 0.8"/>
          </g>
         </g>
         <g id="text_11">
          <!-- 17500 -->
          <g transform="translate(24.478125 50.340099) scale(0.1 -0.1)">
           <use xlink:href="#DejaVuSans-31"/>
           <use xlink:href="#DejaVuSans-37" x="63.623047"/>
           <use xlink:href="#DejaVuSans-35" x="127.246094"/>
           <use xlink:href="#DejaVuSans-30" x="190.869141"/>
           <use xlink:href="#DejaVuSans-30" x="254.492188"/>
          </g>
         </g>
        </g>
        <g id="text_12">
         <!-- time ago (generations) -->
         <g transform="translate(18.398438 223.682031) rotate(-90) scale(0.1 -0.1)">
          <defs>
           <path id="DejaVuSans-74" d="M 1172 4494 
L 1172 3500 
L 2356 3500 
L 2356 3053 
L 1172 3053 
L 1172 1153 
Q 1172 725 1289 603 
Q 1406 481 1766 481 
L 2356 481 
L 2356 0 
L 1766 0 
Q 1100 0 847 248 
Q 594 497 594 1153 
L 594 3053 
L 172 3053 
L 172 3500 
L 594 3500 
L 594 4494 
L 1172 4494 
z
" transform="scale(0.015625)"/>
           <path id="DejaVuSans-69" d="M 603 3500 
L 1178 3500 
L 1178 0 
L 603 0 
L 603 3500 
z
M 603 4863 
L 1178 4863 
L 1178 4134 
L 603 4134 
L 603 4863 
z
" transform="scale(0.015625)"/>
           <path id="DejaVuSans-6d" d="M 3328 2828 
Q 3544 3216 3844 3400 
Q 4144 3584 4550 3584 
Q 5097 3584 5394 3201 
Q 5691 2819 5691 2113 
L 5691 0 
L 5113 0 
L 5113 2094 
Q 5113 2597 4934 2840 
Q 4756 3084 4391 3084 
Q 3944 3084 3684 2787 
Q 3425 2491 3425 1978 
L 3425 0 
L 2847 0 
L 2847 2094 
Q 2847 2600 2669 2842 
Q 2491 3084 2119 3084 
Q 1678 3084 1418 2786 
Q 1159 2488 1159 1978 
L 1159 0 
L 581 0 
L 581 3500 
L 1159 3500 
L 1159 2956 
Q 1356 3278 1631 3431 
Q 1906 3584 2284 3584 
Q 2666 3584 2933 3390 
Q 3200 3197 3328 2828 
z
" transform="scale(0.015625)"/>
           <path id="DejaVuSans-65" d="M 3597 1894 
L 3597 1613 
L 953 1613 
Q 991 1019 1311 708 
Q 1631 397 2203 397 
Q 2534 397 2845 478 
Q 3156 559 3463 722 
L 3463 178 
Q 3153 47 2828 -22 
Q 2503 -91 2169 -91 
Q 1331 -91 842 396 
Q 353 884 353 1716 
Q 353 2575 817 3079 
Q 1281 3584 2069 3584 
Q 2775 3584 3186 3129 
Q 3597 2675 3597 1894 
z
M 3022 2063 
Q 3016 2534 2758 2815 
Q 2500 3097 2075 3097 
Q 1594 3097 1305 2825 
Q 1016 2553 972 2059 
L 3022 2063 
z
" transform="scale(0.015625)"/>
           <path id="DejaVuSans-20" transform="scale(0.015625)"/>
           <path id="DejaVuSans-61" d="M 2194 1759 
Q 1497 1759 1228 1600 
Q 959 1441 959 1056 
Q 959 750 1161 570 
Q 1363 391 1709 391 
Q 2188 391 2477 730 
Q 2766 1069 2766 1631 
L 2766 1759 
L 2194 1759 
z
M 3341 1997 
L 3341 0 
L 2766 0 
L 2766 531 
Q 2569 213 2275 61 
Q 1981 -91 1556 -91 
Q 1019 -91 701 211 
Q 384 513 384 1019 
Q 384 1609 779 1909 
Q 1175 2209 1959 2209 
L 2766 2209 
L 2766 2266 
Q 2766 2663 2505 2880 
Q 2244 3097 1772 3097 
Q 1472 3097 1187 3025 
Q 903 2953 641 2809 
L 641 3341 
Q 956 3463 1253 3523 
Q 1550 3584 1831 3584 
Q 2591 3584 2966 3190 
Q 3341 2797 3341 1997 
z
" transform="scale(0.015625)"/>
           <path id="DejaVuSans-67" d="M 2906 1791 
Q 2906 2416 2648 2759 
Q 2391 3103 1925 3103 
Q 1463 3103 1205 2759 
Q 947 2416 947 1791 
Q 947 1169 1205 825 
Q 1463 481 1925 481 
Q 2391 481 2648 825 
Q 2906 1169 2906 1791 
z
M 3481 434 
Q 3481 -459 3084 -895 
Q 2688 -1331 1869 -1331 
Q 1566 -1331 1297 -1286 
Q 1028 -1241 775 -1147 
L 775 -588 
Q 1028 -725 1275 -790 
Q 1522 -856 1778 -856 
Q 2344 -856 2625 -561 
Q 2906 -266 2906 331 
L 2906 616 
Q 2728 306 2450 153 
Q 2172 0 1784 0 
Q 1141 0 747 490 
Q 353 981 353 1791 
Q 353 2603 747 3093 
Q 1141 3584 1784 3584 
Q 2172 3584 2450 3431 
Q 2728 3278 2906 2969 
L 2906 3500 
L 3481 3500 
L 3481 434 
z
" transform="scale(0.015625)"/>
           <path id="DejaVuSans-6f" d="M 1959 3097 
Q 1497 3097 1228 2736 
Q 959 2375 959 1747 
Q 959 1119 1226 758 
Q 1494 397 1959 397 
Q 2419 397 2687 759 
Q 2956 1122 2956 1747 
Q 2956 2369 2687 2733 
Q 2419 3097 1959 3097 
z
M 1959 3584 
Q 2709 3584 3137 3096 
Q 3566 2609 3566 1747 
Q 3566 888 3137 398 
Q 2709 -91 1959 -91 
Q 1206 -91 779 398 
Q 353 888 353 1747 
Q 353 2609 779 3096 
Q 1206 3584 1959 3584 
z
" transform="scale(0.015625)"/>
           <path id="DejaVuSans-28" d="M 1984 4856 
Q 1566 4138 1362 3434 
Q 1159 2731 1159 2009 
Q 1159 1288 1364 580 
Q 1569 -128 1984 -844 
L 1484 -844 
Q 1016 -109 783 600 
Q 550 1309 550 2009 
Q 550 2706 781 3412 
Q 1013 4119 1484 4856 
L 1984 4856 
z
" transform="scale(0.015625)"/>
           <path id="DejaVuSans-6e" d="M 3513 2113 
L 3513 0 
L 2938 0 
L 2938 2094 
Q 2938 2591 2744 2837 
Q 2550 3084 2163 3084 
Q 1697 3084 1428 2787 
Q 1159 2491 1159 1978 
L 1159 0 
L 581 0 
L 581 3500 
L 1159 3500 
L 1159 2956 
Q 1366 3272 1645 3428 
Q 1925 3584 2291 3584 
Q 2894 3584 3203 3211 
Q 3513 2838 3513 2113 
z
" transform="scale(0.015625)"/>
           <path id="DejaVuSans-72" d="M 2631 2963 
Q 2534 3019 2420 3045 
Q 2306 3072 2169 3072 
Q 1681 3072 1420 2755 
Q 1159 2438 1159 1844 
L 1159 0 
L 581 0 
L 581 3500 
L 1159 3500 
L 1159 2956 
Q 1341 3275 1631 3429 
Q 1922 3584 2338 3584 
Q 2397 3584 2469 3576 
Q 2541 3569 2628 3553 
L 2631 2963 
z
" transform="scale(0.015625)"/>
           <path id="DejaVuSans-73" d="M 2834 3397 
L 2834 2853 
Q 2591 2978 2328 3040 
Q 2066 3103 1784 3103 
Q 1356 3103 1142 2972 
Q 928 2841 928 2578 
Q 928 2378 1081 2264 
Q 1234 2150 1697 2047 
L 1894 2003 
Q 2506 1872 2764 1633 
Q 3022 1394 3022 966 
Q 3022 478 2636 193 
Q 2250 -91 1575 -91 
Q 1294 -91 989 -36 
Q 684 19 347 128 
L 347 722 
Q 666 556 975 473 
Q 1284 391 1588 391 
Q 1994 391 2212 530 
Q 2431 669 2431 922 
Q 2431 1156 2273 1281 
Q 2116 1406 1581 1522 
L 1381 1569 
Q 847 1681 609 1914 
Q 372 2147 372 2553 
Q 372 3047 722 3315 
Q 1072 3584 1716 3584 
Q 2034 3584 2315 3537 
Q 2597 3491 2834 3397 
z
" transform="scale(0.015625)"/>
           <path id="DejaVuSans-29" d="M 513 4856 
L 1013 4856 
Q 1481 4119 1714 3412 
Q 1947 2706 1947 2009 
Q 1947 1309 1714 600 
Q 1481 -109 1013 -844 
L 513 -844 
Q 928 -128 1133 580 
Q 1338 1288 1338 2009 
Q 1338 2731 1133 3434 
Q 928 4138 513 4856 
z
" transform="scale(0.015625)"/>
          </defs>
          <use xlink:href="#DejaVuSans-74"/>
          <use xlink:href="#DejaVuSans-69" x="39.208984"/>
          <use xlink:href="#DejaVuSans-6d" x="66.992188"/>
          <use xlink:href="#DejaVuSans-65" x="164.404297"/>
          <use xlink:href="#DejaVuSans-20" x="225.927734"/>
          <use xlink:href="#DejaVuSans-61" x="257.714844"/>
          <use xlink:href="#DejaVuSans-67" x="318.994141"/>
          <use xlink:href="#DejaVuSans-6f" x="382.470703"/>
          <use xlink:href="#DejaVuSans-20" x="443.652344"/>
          <use xlink:href="#DejaVuSans-28" x="475.439453"/>
          <use xlink:href="#DejaVuSans-67" x="514.453125"/>
          <use xlink:href="#DejaVuSans-65" x="577.929688"/>
          <use xlink:href="#DejaVuSans-6e" x="639.453125"/>
          <use xlink:href="#DejaVuSans-65" x="702.832031"/>
          <use xlink:href="#DejaVuSans-72" x="764.355469"/>
          <use xlink:href="#DejaVuSans-61" x="805.46875"/>
          <use xlink:href="#DejaVuSans-74" x="866.748047"/>
          <use xlink:href="#DejaVuSans-69" x="905.957031"/>
          <use xlink:href="#DejaVuSans-6f" x="933.740234"/>
          <use xlink:href="#DejaVuSans-6e" x="994.921875"/>
          <use xlink:href="#DejaVuSans-73" x="1058.300781"/>
          <use xlink:href="#DejaVuSans-29" x="1110.400391"/>
         </g>
        </g>
       </g>
       <g id="patch_7">
        <path d="M 289.97132 125.324077 
L 288.97132 125.292641 
L 287.97132 125.255701 
L 286.97132 125.157954 
L 285.97132 125.125433 
L 284.97132 125.051808 
L 283.97132 125.013242 
L 282.97132 124.977829 
L 281.97132 124.920189 
L 280.97132 124.849803 
L 279.97132 124.797839 
L 278.97132 124.738749 
L 277.97132 124.650428 
L 276.97132 124.604284 
L 275.97132 124.561873 
L 274.97132 124.53138 
L 273.97132 124.505335 
L 272.97132 124.484135 
L 271.97132 124.429834 
L 270.97132 124.401896 
L 269.97132 124.372172 
L 268.97132 124.346778 
L 267.97132 124.335577 
L 266.97132 124.325453 
L 265.97132 124.325658 
L 264.97132 124.335167 
L 263.97132 124.346821 
L 262.97132 124.37785 
L 261.97132 124.389018 
L 260.97132 124.419136 
L 259.97132 124.478913 
L 258.97132 124.516104 
L 257.97132 124.5552 
L 256.97132 124.59764 
L 255.97132 124.630405 
L 254.97132 124.697832 
L 253.97132 124.736957 
L 252.97132 124.779632 
L 251.97132 124.850213 
L 250.97132 124.886603 
L 249.97132 124.945007 
L 248.97132 125.055959 
L 247.97132 125.126618 
L 246.97132 125.239557 
L 245.97132 125.28533 
L 244.97132 125.346613 
L 243.97132 125.395113 
L 242.97132 125.475935 
L 241.97132 125.594454 
L 240.97132 125.664665 
L 239.97132 125.747928 
L 238.97132 125.781069 
L 237.97132 125.832307 
L 236.97132 125.900705 
L 235.97132 125.96692 
L 234.97132 126.043837 
L 233.97132 126.071153 
L 232.97132 126.09763 
L 231.97132 126.120281 
L 230.831959 126.139812 
" clip-path="url(#p9fccfeab7f)" style="fill: none; stroke: #ffffff; stroke-width: 3; stroke-linecap: round"/>
        <path d="M 289.97132 125.324077 
L 288.97132 125.292641 
L 287.97132 125.255701 
L 286.97132 125.157954 
L 285.97132 125.125433 
L 284.97132 125.051808 
L 283.97132 125.013242 
L 282.97132 124.977829 
L 281.97132 124.920189 
L 280.97132 124.849803 
L 279.97132 124.797839 
L 278.97132 124.738749 
L 277.97132 124.650428 
L 276.97132 124.604284 
L 275.97132 124.561873 
L 274.97132 124.53138 
L 273.97132 124.505335 
L 272.97132 124.484135 
L 271.97132 124.429834 
L 270.97132 124.401896 
L 269.97132 124.372172 
L 268.97132 124.346778 
L 267.97132 124.335577 
L 266.97132 124.325453 
L 265.97132 124.325658 
L 264.97132 124.335167 
L 263.97132 124.346821 
L 262.97132 124.37785 
L 261.97132 124.389018 
L 260.97132 124.419136 
L 259.97132 124.478913 
L 258.97132 124.516104 
L 257.97132 124.5552 
L 256.97132 124.59764 
L 255.97132 124.630405 
L 254.97132 124.697832 
L 253.97132 124.736957 
L 252.97132 124.779632 
L 251.97132 124.850213 
L 250.97132 124.886603 
L 249.97132 124.945007 
L 248.97132 125.055959 
L 247.97132 125.126618 
L 246.97132 125.239557 
L 245.97132 125.28533 
L 244.97132 125.346613 
L 243.97132 125.395113 
L 242.97132 125.475935 
L 241.97132 125.594454 
L 240.97132 125.664665 
L 239.97132 125.747928 
L 238.97132 125.781069 
L 237.97132 125.832307 
L 236.97132 125.900705 
L 235.97132 125.96692 
L 234.97132 126.043837 
L 233.97132 126.071153 
L 232.97132 126.09763 
L 231.97132 126.120281 
L 230.831959 126.139812 
" clip-path="url(#p9fccfeab7f)" style="fill: none; stroke: #1f77b4; stroke-linecap: round"/>
        <path d="M 234.831959 127.324077 
L 233.951591 126.848746 
L 233.073684 126.368492 
L 232.22297 125.833851 
L 230.920796 125.146404 
L 231.848149 125.120389 
L 232.759823 124.70767 
L 233.670088 124.292131 
L 235.012583 123.685326 
L 234.357685 124.324077 
L 234.30572 125.324077 
L 234.246631 127.324077 
z
" clip-path="url(#p9fccfeab7f)" style="fill: #ffffff; stroke: #ffffff; stroke-width: 3; stroke-linecap: round"/>
        <path d="M 234.831959 127.324077 
L 233.951591 126.848746 
L 233.073684 126.368492 
L 232.22297 125.833851 
L 230.920796 125.146404 
L 231.848149 125.120389 
L 232.759823 124.70767 
L 233.670088 124.292131 
L 235.012583 123.685326 
L 234.357685 124.324077 
L 234.30572 125.324077 
L 234.246631 127.324077 
z
" clip-path="url(#p9fccfeab7f)" style="fill: #ffffff; stroke: #1f77b4; stroke-linecap: round"/>
        <g id="patch_8">
         <path d="M 380.803144 72.964375 
L 381.803144 72.995811 
L 382.803144 73.032752 
L 383.803144 73.130498 
L 384.803144 73.16302 
L 385.803144 73.236645 
L 386.803144 73.27521 
L 387.803144 73.310623 
L 388.803144 73.368263 
L 389.803144 73.438649 
L 390.803144 73.490614 
L 391.803144 73.549703 
L 392.803144 73.638024 
L 393.803144 73.684169 
L 394.803144 73.72658 
L 395.803144 73.757072 
L 396.803144 73.783117 
L 397.803144 73.804317 
L 398.803144 73.858618 
L 399.803144 73.886556 
L 400.803144 73.91628 
L 401.803144 73.941675 
L 402.803144 73.952875 
L 403.803144 73.962999 
L 404.803144 73.962795 
L 405.803144 73.953285 
L 406.803144 73.941631 
L 407.803144 73.910602 
L 408.803144 73.899434 
L 409.803144 73.869317 
L 410.803144 73.80954 
L 411.803144 73.772348 
L 412.803144 73.733252 
L 413.803144 73.690812 
L 414.803144 73.658047 
L 415.803144 73.590621 
L 416.803144 73.551495 
L 417.803144 73.50882 
L 418.803144 73.43824 
L 419.803144 73.401849 
L 420.803144 73.343446 
L 421.803144 73.232493 
L 422.803144 73.161835 
L 423.803144 73.048895 
L 424.803144 73.003122 
L 425.803144 72.941839 
L 426.803144 72.89334 
L 427.803144 72.812517 
L 428.803144 72.693998 
L 429.803144 72.623787 
L 430.803144 72.540525 
L 431.803144 72.507383 
L 432.803144 72.456146 
L 433.803144 72.387747 
L 434.803144 72.321532 
L 435.803144 72.244615 
L 436.803144 72.217299 
L 437.803144 72.190822 
L 438.803144 72.168171 
L 439.803144 72.14864 
L 440.803144 72.122246 
L 441.803144 72.072475 
L 442.803144 72.037402 
L 443.803144 72.001536 
L 444.803144 71.986169 
L 445.803144 71.9704 
L 446.803144 71.966987 
L 447.803144 71.96457 
L 448.803144 71.965056 
L 449.803144 71.966985 
L 450.803144 71.980242 
L 451.803144 71.988633 
L 452.803144 72.010169 
L 453.803144 72.033202 
L 454.803144 72.050435 
L 455.803144 72.068898 
L 456.803144 72.08935 
L 457.803144 72.10595 
L 458.803144 72.168729 
L 459.803144 72.243994 
L 460.803144 72.276633 
L 461.803144 72.344197 
L 462.803144 72.398244 
L 463.803144 72.431948 
L 464.803144 72.522074 
L 465.803144 72.550609 
L 466.803144 72.582095 
L 467.803144 72.613106 
L 468.803144 72.667914 
L 469.803144 72.732501 
L 470.803144 72.770697 
L 471.803144 72.866631 
L 472.803144 72.915889 
L 473.803144 72.959958 
L 474.803144 73.000082 
L 475.803144 73.108449 
L 476.803144 73.150077 
L 477.803144 73.212219 
L 478.803144 73.282181 
L 479.803144 73.386685 
L 480.803144 73.423673 
L 481.803144 73.46955 
L 482.803144 73.538045 
L 483.803144 73.586791 
L 484.803144 73.664388 
L 485.803144 73.694929 
L 486.803144 73.764443 
L 487.803144 73.788416 
L 488.803144 73.817038 
L 489.803144 73.858831 
L 490.803144 73.880407 
L 491.803144 73.894355 
L 492.803144 73.921077 
L 493.803144 73.930387 
L 494.803144 73.942834 
L 495.803144 73.953889 
L 496.803144 73.959553 
L 497.803144 73.964317 
L 498.803144 73.958769 
L 499.803144 73.945481 
L 500.803144 73.937964 
L 501.803144 73.913179 
L 502.803144 73.88961 
L 503.803144 73.85343 
L 504.803144 73.827468 
L 505.803144 73.805146 
L 506.803144 73.736386 
L 507.803144 73.661851 
L 508.803144 73.567872 
L 509.803144 73.51682 
L 510.803144 73.462886 
L 511.803144 73.427635 
L 512.803144 73.321547 
L 513.803144 73.269283 
L 514.803144 73.232376 
L 515.803144 73.201345 
L 516.803144 73.14019 
L 517.803144 73.07277 
L 518.803144 73.023864 
L 519.803144 72.958672 
L 520.803144 72.920484 
L 521.803144 72.878488 
L 522.803144 72.836471 
L 523.803144 72.776955 
L 524.803144 72.663795 
L 525.803144 72.611544 
L 526.803144 72.572126 
L 527.803144 72.525025 
L 528.803144 72.468245 
L 529.803144 72.435582 
L 530.803144 72.399404 
L 531.803144 72.367314 
L 532.803144 72.333034 
L 533.803144 72.274656 
L 534.803144 72.229471 
L 535.803144 72.199847 
L 536.803144 72.149461 
L 537.803144 72.124264 
L 538.803144 72.103213 
L 539.803144 72.068245 
L 540.803144 72.043955 
L 541.803144 72.029888 
L 542.803144 72.010946 
L 543.803144 71.995285 
L 544.803144 71.982733 
L 545.803144 71.976897 
L 546.803144 71.970015 
L 547.803144 71.964841 
L 548.803144 71.966624 
L 549.803144 71.969349 
L 550.803144 71.980503 
L 551.803144 72.008738 
L 552.803144 72.052526 
L 553.803144 72.073215 
L 554.803144 72.114188 
L 555.803144 72.154263 
L 556.803144 72.173373 
L 557.803144 72.195882 
L 558.803144 72.262533 
L 559.803144 72.312243 
L 560.803144 72.385949 
L 562.220211 72.417263 
" clip-path="url(#p9fccfeab7f)" style="fill: none; stroke: #ffffff; stroke-width: 3; stroke-linecap: round"/>
         <path d="M 380.803144 72.964375 
L 381.803144 72.995811 
L 382.803144 73.032752 
L 383.803144 73.130498 
L 384.803144 73.16302 
L 385.803144 73.236645 
L 386.803144 73.27521 
L 387.803144 73.310623 
L 388.803144 73.368263 
L 389.803144 73.438649 
L 390.803144 73.490614 
L 391.803144 73.549703 
L 392.803144 73.638024 
L 393.803144 73.684169 
L 394.803144 73.72658 
L 395.803144 73.757072 
L 396.803144 73.783117 
L 397.803144 73.804317 
L 398.803144 73.858618 
L 399.803144 73.886556 
L 400.803144 73.91628 
L 401.803144 73.941675 
L 402.803144 73.952875 
L 403.803144 73.962999 
L 404.803144 73.962795 
L 405.803144 73.953285 
L 406.803144 73.941631 
L 407.803144 73.910602 
L 408.803144 73.899434 
L 409.803144 73.869317 
L 410.803144 73.80954 
L 411.803144 73.772348 
L 412.803144 73.733252 
L 413.803144 73.690812 
L 414.803144 73.658047 
L 415.803144 73.590621 
L 416.803144 73.551495 
L 417.803144 73.50882 
L 418.803144 73.43824 
L 419.803144 73.401849 
L 420.803144 73.343446 
L 421.803144 73.232493 
L 422.803144 73.161835 
L 423.803144 73.048895 
L 424.803144 73.003122 
L 425.803144 72.941839 
L 426.803144 72.89334 
L 427.803144 72.812517 
L 428.803144 72.693998 
L 429.803144 72.623787 
L 430.803144 72.540525 
L 431.803144 72.507383 
L 432.803144 72.456146 
L 433.803144 72.387747 
L 434.803144 72.321532 
L 435.803144 72.244615 
L 436.803144 72.217299 
L 437.803144 72.190822 
L 438.803144 72.168171 
L 439.803144 72.14864 
L 440.803144 72.122246 
L 441.803144 72.072475 
L 442.803144 72.037402 
L 443.803144 72.001536 
L 444.803144 71.986169 
L 445.803144 71.9704 
L 446.803144 71.966987 
L 447.803144 71.96457 
L 448.803144 71.965056 
L 449.803144 71.966985 
L 450.803144 71.980242 
L 451.803144 71.988633 
L 452.803144 72.010169 
L 453.803144 72.033202 
L 454.803144 72.050435 
L 455.803144 72.068898 
L 456.803144 72.08935 
L 457.803144 72.10595 
L 458.803144 72.168729 
L 459.803144 72.243994 
L 460.803144 72.276633 
L 461.803144 72.344197 
L 462.803144 72.398244 
L 463.803144 72.431948 
L 464.803144 72.522074 
L 465.803144 72.550609 
L 466.803144 72.582095 
L 467.803144 72.613106 
L 468.803144 72.667914 
L 469.803144 72.732501 
L 470.803144 72.770697 
L 471.803144 72.866631 
L 472.803144 72.915889 
L 473.803144 72.959958 
L 474.803144 73.000082 
L 475.803144 73.108449 
L 476.803144 73.150077 
L 477.803144 73.212219 
L 478.803144 73.282181 
L 479.803144 73.386685 
L 480.803144 73.423673 
L 481.803144 73.46955 
L 482.803144 73.538045 
L 483.803144 73.586791 
L 484.803144 73.664388 
L 485.803144 73.694929 
L 486.803144 73.764443 
L 487.803144 73.788416 
L 488.803144 73.817038 
L 489.803144 73.858831 
L 490.803144 73.880407 
L 491.803144 73.894355 
L 492.803144 73.921077 
L 493.803144 73.930387 
L 494.803144 73.942834 
L 495.803144 73.953889 
L 496.803144 73.959553 
L 497.803144 73.964317 
L 498.803144 73.958769 
L 499.803144 73.945481 
L 500.803144 73.937964 
L 501.803144 73.913179 
L 502.803144 73.88961 
L 503.803144 73.85343 
L 504.803144 73.827468 
L 505.803144 73.805146 
L 506.803144 73.736386 
L 507.803144 73.661851 
L 508.803144 73.567872 
L 509.803144 73.51682 
L 510.803144 73.462886 
L 511.803144 73.427635 
L 512.803144 73.321547 
L 513.803144 73.269283 
L 514.803144 73.232376 
L 515.803144 73.201345 
L 516.803144 73.14019 
L 517.803144 73.07277 
L 518.803144 73.023864 
L 519.803144 72.958672 
L 520.803144 72.920484 
L 521.803144 72.878488 
L 522.803144 72.836471 
L 523.803144 72.776955 
L 524.803144 72.663795 
L 525.803144 72.611544 
L 526.803144 72.572126 
L 527.803144 72.525025 
L 528.803144 72.468245 
L 529.803144 72.435582 
L 530.803144 72.399404 
L 531.803144 72.367314 
L 532.803144 72.333034 
L 533.803144 72.274656 
L 534.803144 72.229471 
L 535.803144 72.199847 
L 536.803144 72.149461 
L 537.803144 72.124264 
L 538.803144 72.103213 
L 539.803144 72.068245 
L 540.803144 72.043955 
L 541.803144 72.029888 
L 542.803144 72.010946 
L 543.803144 71.995285 
L 544.803144 71.982733 
L 545.803144 71.976897 
L 546.803144 71.970015 
L 547.803144 71.964841 
L 548.803144 71.966624 
L 549.803144 71.969349 
L 550.803144 71.980503 
L 551.803144 72.008738 
L 552.803144 72.052526 
L 553.803144 72.073215 
L 554.803144 72.114188 
L 555.803144 72.154263 
L 556.803144 72.173373 
L 557.803144 72.195882 
L 558.803144 72.262533 
L 559.803144 72.312243 
L 560.803144 72.385949 
L 562.220211 72.417263 
" clip-path="url(#p9fccfeab7f)" style="fill: none; stroke: #1f77b4; stroke-linecap: round"/>
         <path d="M 558.220211 70.964375 
L 559.100579 71.439706 
L 559.978486 71.91996 
L 560.8292 72.454601 
L 562.131374 73.142048 
L 561.204021 73.168063 
L 560.292347 73.580783 
L 559.382082 73.996322 
L 558.039587 74.603126 
L 558.694485 73.964375 
L 558.74645 72.964375 
L 558.805539 70.964375 
z
" clip-path="url(#p9fccfeab7f)" style="fill: #ffffff; stroke: #ffffff; stroke-width: 3; stroke-linecap: round"/>
         <path d="M 558.220211 70.964375 
L 559.100579 71.439706 
L 559.978486 71.91996 
L 560.8292 72.454601 
L 562.131374 73.142048 
L 561.204021 73.168063 
L 560.292347 73.580783 
L 559.382082 73.996322 
L 558.039587 74.603126 
L 558.694485 73.964375 
L 558.74645 72.964375 
L 558.805539 70.964375 
z
" clip-path="url(#p9fccfeab7f)" style="fill: #ffffff; stroke: #1f77b4; stroke-linecap: round"/>
         <g id="patch_9">
          <path d="M 229.708255 131.297265 
L 230.708255 131.328701 
L 231.708255 131.365641 
L 232.708255 131.463388 
L 233.708255 131.49591 
L 234.708255 131.569534 
L 235.708255 131.6081 
L 236.708255 131.643513 
L 237.708255 131.701153 
L 238.708255 131.771539 
L 239.708255 131.823503 
L 240.708255 131.882593 
L 241.708255 131.970914 
L 242.708255 132.017058 
L 243.708255 132.059469 
L 244.708255 132.089962 
L 245.708255 132.116007 
L 246.708255 132.137207 
L 247.708255 132.191508 
L 248.708255 132.219446 
L 249.708255 132.24917 
L 250.708255 132.274564 
L 251.708255 132.285765 
L 252.708255 132.295889 
L 253.708255 132.295684 
L 254.708255 132.286175 
L 255.708255 132.274521 
L 256.708255 132.243492 
L 257.708255 132.232324 
L 258.708255 132.202206 
L 259.708255 132.142429 
L 260.708255 132.105238 
L 261.708255 132.066142 
L 262.708255 132.023702 
L 263.708255 131.990937 
L 264.708255 131.923511 
L 265.708255 131.884385 
L 266.708255 131.84171 
L 267.708255 131.77113 
L 268.708255 131.734739 
L 269.708255 131.676335 
L 270.708255 131.565383 
L 271.708255 131.494725 
L 272.708255 131.381785 
L 273.708255 131.336012 
L 274.708255 131.274729 
L 275.708255 131.226229 
L 276.708255 131.145407 
L 277.708255 131.026888 
L 278.708255 130.956677 
L 279.708255 130.873415 
L 280.708255 130.840273 
L 281.708255 130.789036 
L 282.708255 130.720637 
L 283.708255 130.654422 
L 284.708255 130.577505 
L 285.708255 130.550189 
L 286.708255 130.523712 
L 287.708255 130.501061 
L 288.708255 130.48153 
L 289.708255 130.455136 
L 290.708255 130.405365 
L 291.708255 130.370292 
L 292.708255 130.334426 
L 293.708255 130.319059 
L 294.708255 130.30329 
L 295.708255 130.299877 
L 296.708255 130.297459 
L 297.708255 130.297946 
L 298.708255 130.299875 
L 299.708255 130.313132 
L 300.708255 130.321522 
L 301.708255 130.343059 
L 302.708255 130.366091 
L 303.708255 130.383325 
L 304.708255 130.401787 
L 305.708255 130.42224 
L 306.708255 130.43884 
L 307.708255 130.501619 
L 308.708255 130.576884 
L 309.708255 130.609523 
L 310.708255 130.677086 
L 311.708255 130.731133 
L 312.708255 130.764838 
L 313.708255 130.854964 
L 314.708255 130.883499 
L 315.708255 130.914985 
L 316.708255 130.945996 
L 317.708255 131.000804 
L 318.708255 131.065391 
L 319.708255 131.103586 
L 320.708255 131.199521 
L 321.708255 131.248779 
L 322.708255 131.292848 
L 323.708255 131.332972 
L 324.708255 131.441339 
L 325.708255 131.482967 
L 326.708255 131.545108 
L 327.708255 131.615071 
L 328.708255 131.719575 
L 329.708255 131.756563 
L 330.708255 131.80244 
L 331.708255 131.870934 
L 332.708255 131.91968 
L 333.708255 131.997278 
L 334.708255 132.027818 
L 335.708255 132.097333 
L 336.708255 132.121306 
L 337.708255 132.149927 
L 338.708255 132.191721 
L 339.708255 132.213296 
L 340.708255 132.227244 
L 341.708255 132.253967 
L 342.708255 132.263277 
L 343.708255 132.275723 
L 344.708255 132.286778 
L 345.708255 132.292443 
L 346.708255 132.297207 
L 347.708255 132.291659 
L 348.708255 132.278371 
L 349.708255 132.270853 
L 350.708255 132.246069 
L 351.708255 132.2225 
L 352.708255 132.186319 
L 353.708255 132.160357 
L 354.708255 132.138036 
L 355.708255 132.069276 
L 356.708255 131.994741 
L 357.708255 131.900761 
L 358.708255 131.849709 
L 359.708255 131.795776 
L 360.708255 131.760525 
L 361.708255 131.654437 
L 362.708255 131.602173 
L 363.708255 131.565266 
L 364.708255 131.534235 
L 365.708255 131.47308 
L 366.708255 131.40566 
L 367.708255 131.356754 
L 368.708255 131.291561 
L 369.708255 131.253374 
L 370.708255 131.211378 
L 371.708255 131.169361 
L 372.708255 131.109844 
L 373.708255 130.996684 
L 374.708255 130.944434 
L 375.708255 130.905016 
L 376.708255 130.857914 
L 377.708255 130.801135 
L 378.708255 130.768472 
L 379.708255 130.732294 
L 380.708255 130.700203 
L 381.708255 130.665924 
L 382.708255 130.607546 
L 383.708255 130.562361 
L 384.708255 130.532737 
L 385.708255 130.482351 
L 386.708255 130.457153 
L 387.708255 130.436103 
L 388.708255 130.401135 
L 389.708255 130.376845 
L 390.708255 130.362778 
L 391.708255 130.343836 
L 392.708255 130.328174 
L 393.708255 130.315623 
L 394.708255 130.309787 
L 395.708255 130.302904 
L 396.708255 130.297731 
L 397.708255 130.299513 
L 398.708255 130.302239 
L 399.708255 130.313392 
L 400.708255 130.341628 
L 401.708255 130.385415 
L 402.708255 130.406105 
L 403.708255 130.447078 
L 404.708255 130.487153 
L 405.708255 130.506263 
L 406.708255 130.528771 
L 407.708255 130.595423 
L 408.708255 130.645132 
L 409.708255 130.718839 
L 410.708255 130.750153 
L 411.708255 130.826775 
L 412.708255 130.865073 
L 413.708255 130.93919 
L 414.708255 131.043248 
L 415.708255 131.113079 
L 416.708255 131.218312 
L 417.708255 131.273328 
L 418.708255 131.396803 
L 419.708255 131.467362 
L 420.708255 131.583201 
L 421.708255 131.633382 
L 422.708255 131.668986 
L 423.708255 131.760393 
L 424.708255 131.8139 
L 425.708255 131.901809 
L 426.708255 131.970994 
L 427.708255 132.017758 
L 428.708255 132.089802 
L 429.708255 132.139944 
L 430.708255 132.157333 
L 431.708255 132.184337 
L 432.708255 132.203764 
L 433.708255 132.223102 
L 434.708255 132.26135 
L 435.708255 132.277784 
L 436.708255 132.286153 
L 437.708255 132.290472 
L 439.492767 132.297027 
" clip-path="url(#p9fccfeab7f)" style="fill: none; stroke: #ffffff; stroke-width: 3; stroke-linecap: round"/>
          <path d="M 229.708255 131.297265 
L 230.708255 131.328701 
L 231.708255 131.365641 
L 232.708255 131.463388 
L 233.708255 131.49591 
L 234.708255 131.569534 
L 235.708255 131.6081 
L 236.708255 131.643513 
L 237.708255 131.701153 
L 238.708255 131.771539 
L 239.708255 131.823503 
L 240.708255 131.882593 
L 241.708255 131.970914 
L 242.708255 132.017058 
L 243.708255 132.059469 
L 244.708255 132.089962 
L 245.708255 132.116007 
L 246.708255 132.137207 
L 247.708255 132.191508 
L 248.708255 132.219446 
L 249.708255 132.24917 
L 250.708255 132.274564 
L 251.708255 132.285765 
L 252.708255 132.295889 
L 253.708255 132.295684 
L 254.708255 132.286175 
L 255.708255 132.274521 
L 256.708255 132.243492 
L 257.708255 132.232324 
L 258.708255 132.202206 
L 259.708255 132.142429 
L 260.708255 132.105238 
L 261.708255 132.066142 
L 262.708255 132.023702 
L 263.708255 131.990937 
L 264.708255 131.923511 
L 265.708255 131.884385 
L 266.708255 131.84171 
L 267.708255 131.77113 
L 268.708255 131.734739 
L 269.708255 131.676335 
L 270.708255 131.565383 
L 271.708255 131.494725 
L 272.708255 131.381785 
L 273.708255 131.336012 
L 274.708255 131.274729 
L 275.708255 131.226229 
L 276.708255 131.145407 
L 277.708255 131.026888 
L 278.708255 130.956677 
L 279.708255 130.873415 
L 280.708255 130.840273 
L 281.708255 130.789036 
L 282.708255 130.720637 
L 283.708255 130.654422 
L 284.708255 130.577505 
L 285.708255 130.550189 
L 286.708255 130.523712 
L 287.708255 130.501061 
L 288.708255 130.48153 
L 289.708255 130.455136 
L 290.708255 130.405365 
L 291.708255 130.370292 
L 292.708255 130.334426 
L 293.708255 130.319059 
L 294.708255 130.30329 
L 295.708255 130.299877 
L 296.708255 130.297459 
L 297.708255 130.297946 
L 298.708255 130.299875 
L 299.708255 130.313132 
L 300.708255 130.321522 
L 301.708255 130.343059 
L 302.708255 130.366091 
L 303.708255 130.383325 
L 304.708255 130.401787 
L 305.708255 130.42224 
L 306.708255 130.43884 
L 307.708255 130.501619 
L 308.708255 130.576884 
L 309.708255 130.609523 
L 310.708255 130.677086 
L 311.708255 130.731133 
L 312.708255 130.764838 
L 313.708255 130.854964 
L 314.708255 130.883499 
L 315.708255 130.914985 
L 316.708255 130.945996 
L 317.708255 131.000804 
L 318.708255 131.065391 
L 319.708255 131.103586 
L 320.708255 131.199521 
L 321.708255 131.248779 
L 322.708255 131.292848 
L 323.708255 131.332972 
L 324.708255 131.441339 
L 325.708255 131.482967 
L 326.708255 131.545108 
L 327.708255 131.615071 
L 328.708255 131.719575 
L 329.708255 131.756563 
L 330.708255 131.80244 
L 331.708255 131.870934 
L 332.708255 131.91968 
L 333.708255 131.997278 
L 334.708255 132.027818 
L 335.708255 132.097333 
L 336.708255 132.121306 
L 337.708255 132.149927 
L 338.708255 132.191721 
L 339.708255 132.213296 
L 340.708255 132.227244 
L 341.708255 132.253967 
L 342.708255 132.263277 
L 343.708255 132.275723 
L 344.708255 132.286778 
L 345.708255 132.292443 
L 346.708255 132.297207 
L 347.708255 132.291659 
L 348.708255 132.278371 
L 349.708255 132.270853 
L 350.708255 132.246069 
L 351.708255 132.2225 
L 352.708255 132.186319 
L 353.708255 132.160357 
L 354.708255 132.138036 
L 355.708255 132.069276 
L 356.708255 131.994741 
L 357.708255 131.900761 
L 358.708255 131.849709 
L 359.708255 131.795776 
L 360.708255 131.760525 
L 361.708255 131.654437 
L 362.708255 131.602173 
L 363.708255 131.565266 
L 364.708255 131.534235 
L 365.708255 131.47308 
L 366.708255 131.40566 
L 367.708255 131.356754 
L 368.708255 131.291561 
L 369.708255 131.253374 
L 370.708255 131.211378 
L 371.708255 131.169361 
L 372.708255 131.109844 
L 373.708255 130.996684 
L 374.708255 130.944434 
L 375.708255 130.905016 
L 376.708255 130.857914 
L 377.708255 130.801135 
L 378.708255 130.768472 
L 379.708255 130.732294 
L 380.708255 130.700203 
L 381.708255 130.665924 
L 382.708255 130.607546 
L 383.708255 130.562361 
L 384.708255 130.532737 
L 385.708255 130.482351 
L 386.708255 130.457153 
L 387.708255 130.436103 
L 388.708255 130.401135 
L 389.708255 130.376845 
L 390.708255 130.362778 
L 391.708255 130.343836 
L 392.708255 130.328174 
L 393.708255 130.315623 
L 394.708255 130.309787 
L 395.708255 130.302904 
L 396.708255 130.297731 
L 397.708255 130.299513 
L 398.708255 130.302239 
L 399.708255 130.313392 
L 400.708255 130.341628 
L 401.708255 130.385415 
L 402.708255 130.406105 
L 403.708255 130.447078 
L 404.708255 130.487153 
L 405.708255 130.506263 
L 406.708255 130.528771 
L 407.708255 130.595423 
L 408.708255 130.645132 
L 409.708255 130.718839 
L 410.708255 130.750153 
L 411.708255 130.826775 
L 412.708255 130.865073 
L 413.708255 130.93919 
L 414.708255 131.043248 
L 415.708255 131.113079 
L 416.708255 131.218312 
L 417.708255 131.273328 
L 418.708255 131.396803 
L 419.708255 131.467362 
L 420.708255 131.583201 
L 421.708255 131.633382 
L 422.708255 131.668986 
L 423.708255 131.760393 
L 424.708255 131.8139 
L 425.708255 131.901809 
L 426.708255 131.970994 
L 427.708255 132.017758 
L 428.708255 132.089802 
L 429.708255 132.139944 
L 430.708255 132.157333 
L 431.708255 132.184337 
L 432.708255 132.203764 
L 433.708255 132.223102 
L 434.708255 132.26135 
L 435.708255 132.277784 
L 436.708255 132.286153 
L 437.708255 132.290472 
L 439.492767 132.297027 
" clip-path="url(#p9fccfeab7f)" style="fill: none; stroke: #ff7f0e; stroke-linecap: round"/>
          <path d="M 435.492767 129.297265 
L 436.373136 129.772596 
L 437.251043 130.25285 
L 438.101756 130.787491 
L 439.403931 131.474938 
L 438.476578 131.500953 
L 437.564903 131.913672 
L 436.654639 132.329212 
L 435.312143 132.936016 
L 435.967042 132.297265 
L 436.019006 131.297265 
L 436.078096 129.297265 
z
" clip-path="url(#p9fccfeab7f)" style="fill: #ffffff; stroke: #ffffff; stroke-width: 3; stroke-linecap: round"/>
          <path d="M 435.492767 129.297265 
L 436.373136 129.772596 
L 437.251043 130.25285 
L 438.101756 130.787491 
L 439.403931 131.474938 
L 438.476578 131.500953 
L 437.564903 131.913672 
L 436.654639 132.329212 
L 435.312143 132.936016 
L 435.967042 132.297265 
L 436.019006 131.297265 
L 436.078096 129.297265 
z
" clip-path="url(#p9fccfeab7f)" style="fill: #ffffff; stroke: #ff7f0e; stroke-linecap: round"/>
          <path d="M 470.36965 297.776283 
" clip-path="url(#p9fccfeab7f)" style="fill: none; stroke-dasharray: 3.7,1.6; stroke-dashoffset: 0; stroke: #2ca02c"/>
          <path d="M 469.36965 297.776283 
L 471.36965 298.776283 
L 471.36965 296.776283 
z
" clip-path="url(#p9fccfeab7f)" style="fill: #2ca02c; stroke: #2ca02c; stroke-linejoin: miter"/>
          <g id="patch_10">
           <path d="M 63.290625 321.621875 
L 63.290625 10.8 
" style="fill: none; stroke: #000000; stroke-width: 0.8; stroke-linejoin: miter; stroke-linecap: square"/>
          </g>
          <g id="text_13">
           <g id="patch_11">
            <path d="M 324.732519 74.901101 
L 346.037206 74.901101 
Q 348.037206 74.901101 348.037206 72.901101 
L 348.037206 63.222976 
Q 348.037206 61.222976 346.037206 61.222976 
L 324.732519 61.222976 
Q 322.732519 61.222976 322.732519 63.222976 
L 322.732519 72.901101 
Q 322.732519 74.901101 324.732519 74.901101 
z
" style="fill: #ffffff; opacity: 0.6"/>
           </g>
           <!-- ANC -->
           <g transform="translate(324.732519 70.821414) scale(0.1 -0.1)">
            <defs>
             <path id="DejaVuSans-4e" d="M 628 4666 
L 1478 4666 
L 3547 763 
L 3547 4666 
L 4159 4666 
L 4159 0 
L 3309 0 
L 1241 3903 
L 1241 0 
L 628 0 
L 628 4666 
z
" transform="scale(0.015625)"/>
            </defs>
            <use xlink:href="#DejaVuSans-41"/>
            <use xlink:href="#DejaVuSans-4e" x="68.408203"/>
            <use xlink:href="#DejaVuSans-43" x="143.212891"/>
           </g>
          </g>
         </g>
        </g>
        <defs>
         <clipPath id="p9fccfeab7f">
          <rect x="63.290625" y="10.8" width="540.309375" height="310.821875"/>
         </clipPath>
        </defs>
       </g>
      </g>
     </g>
    </g>
   </g>
  </g>
 </g>
</svg>
