<?xml version="1.0" encoding="utf-8" standalone="no"?>
<!DOCTYPE svg PUBLIC "-//W3C//DTD SVG 1.1//EN"
  "http://www.w3.org/Graphics/SVG/1.1/DTD/svg11.dtd">
<svg xmlns:xlink="http://www.w3.org/1999/xlink" width="614.4pt" height="345.6pt" viewBox="0 0 614.4 345.6" xmlns="http://www.w3.org/2000/svg" version="1.1">
 <metadata>
  <rdf:RDF xmlns:dc="http://purl.org/dc/elements/1.1/" xmlns:cc="http://creativecommons.org/ns#" xmlns:rdf="http://www.w3.org/1999/02/22-rdf-syntax-ns#">
   <cc:Work>
    <dc:type rdf:resource="http://purl.org/dc/dcmitype/StillImage"/>
    <dc:date>2024-04-17T19:48:49.270506</dc:date>
    <dc:format>image/svg+xml</dc:format>
    <dc:creator>
     <cc:Agent>
      <dc:title>Matplotlib v3.7.1, https://matplotlib.org/</dc:title>
     </cc:Agent>
    </dc:creator>
   </cc:Work>
  </rdf:RDF>
 </metadata>
 <defs>
  <style type="text/css">*{stroke-linejoin: round; stroke-linecap: butt}</style>
 </defs>
 <g id="figure_1">
  <g id="patch_1">
   <path d="M 0 345.6 
L 614.4 345.6 
L 614.4 0 
L 0 0 
z
" style="fill: #ffffff"/>
  </g>
  <g id="axes_1">
   <g id="patch_2">
    <path d="M 63.290625 321.621875 
L 603.6 321.621875 
L 603.6 12.793128 
L 63.290625 12.793128 
z
" style="fill: #ffffff"/>
   </g>
   <path d="M 556.829727 307.481496 
L 555.829727 307.450059 
L 554.829727 307.413119 
L 553.829727 307.315372 
L 552.829727 307.282851 
L 551.829727 307.209226 
L 550.829727 307.17066 
L 549.829727 307.135247 
L 548.829727 307.077607 
L 547.829727 307.007221 
L 546.829727 306.955257 
L 545.829727 306.896167 
L 544.829727 306.807846 
L 543.829727 306.761702 
L 542.829727 306.719291 
L 541.829727 306.688798 
L 540.829727 306.662753 
L 539.829727 306.641553 
L 538.829727 306.587252 
L 537.829727 306.559315 
L 536.829727 306.529591 
L 535.829727 306.504196 
L 534.829727 306.492995 
L 533.829727 306.482871 
L 532.829727 306.483076 
L 531.829727 306.492586 
L 530.829727 306.504239 
L 529.829727 306.535269 
L 528.829727 306.546436 
L 527.829727 306.576554 
L 526.829727 306.636331 
L 525.829727 306.673522 
L 524.829727 306.712619 
L 523.829727 306.755058 
L 522.829727 306.787823 
L 521.829727 306.85525 
L 520.829727 306.894376 
L 519.829727 306.93705 
L 518.829727 307.007631 
L 517.829727 307.044022 
L 516.829727 307.102425 
L 515.829727 307.213377 
L 514.829727 307.284036 
L 513.829727 307.396976 
L 512.829727 307.442748 
L 511.829727 307.504032 
L 510.829727 307.552531 
L 509.829727 307.633354 
L 508.829727 307.751873 
L 507.829727 307.822083 
L 506.829727 307.905346 
L 505.829727 307.938488 
L 504.829727 307.989725 
L 503.829727 308.058123 
L 502.829727 308.124339 
L 501.829727 308.201256 
L 500.829727 308.228571 
L 499.829727 308.255049 
L 498.829727 308.277699 
L 497.829727 308.297231 
L 496.829727 308.323625 
L 495.829727 308.373395 
L 494.829727 308.408469 
L 493.829727 308.444334 
L 492.829727 308.459702 
L 491.829727 308.475471 
L 490.829727 308.478883 
L 489.829727 308.481301 
L 488.829727 308.480815 
L 487.829727 308.478886 
L 486.829727 308.465629 
L 485.829727 308.457238 
L 484.829727 308.435701 
L 483.829727 308.412669 
L 482.829727 308.395435 
L 481.829727 308.376973 
L 480.829727 308.35652 
L 479.829727 308.33992 
L 478.829727 308.277142 
L 477.829727 308.201877 
L 476.829727 308.169238 
L 475.829727 308.101674 
L 474.829727 308.047627 
L 473.829727 308.013923 
L 472.829727 307.923797 
L 471.829727 307.895262 
L 470.829727 307.863775 
L 469.829727 307.832765 
L 468.829727 307.777957 
L 467.829727 307.713369 
L 466.829727 307.675174 
L 465.829727 307.57924 
L 464.829727 307.529982 
L 463.829727 307.485912 
L 462.829727 307.445789 
L 461.584868 307.337422 
" clip-path="url(#p6cb4588a96)" style="fill: none; stroke-dasharray: 3.7,1.6; stroke-dashoffset: 0; stroke: #2ca02c"/>
   <g id="patch_3">
    <path d="M 238.336475 12.793128 
L 238.336475 205.114556 
M 389.853974 12.793128 
L 389.853974 205.114556 
" clip-path="url(#p6cb4588a96)" style="fill: none; stroke: #ffffff; stroke-width: 3; stroke-linejoin: miter"/>
    <path d="M 238.336475 12.793128 
L 238.336475 205.114556 
M 389.853974 12.793128 
L 389.853974 205.114556 
" clip-path="url(#p6cb4588a96)" style="fill: none; stroke: #1f77b4; stroke-linejoin: miter"/>
    <g id="PolyCollection_1">
     <path d="M 389.853974 12.793128 
L 238.336475 12.793128 
L 238.336475 205.114556 
L 389.853974 205.114556 
L 389.853974 205.114556 
L 389.853974 12.793128 
z
" clip-path="url(#p6cb4588a96)" style="fill: #1f77b4; fill-opacity: 0.5"/>
    </g>
    <g id="patch_4">
     <path d="M 87.850142 205.114556 
L 87.850142 321.621875 
M 155.528166 205.114556 
L 155.528166 321.621875 
" clip-path="url(#p6cb4588a96)" style="fill: none; stroke: #ffffff; stroke-width: 3; stroke-linejoin: miter"/>
     <path d="M 87.850142 205.114556 
L 87.850142 321.621875 
M 155.528166 205.114556 
L 155.528166 321.621875 
" clip-path="url(#p6cb4588a96)" style="fill: none; stroke: #ff7f0e; stroke-linejoin: miter"/>
     <g id="PolyCollection_2">
      <path d="M 155.528166 205.114556 
L 87.850142 205.114556 
L 87.850142 321.621875 
L 155.528166 321.621875 
L 155.528166 321.621875 
L 155.528166 205.114556 
z
" clip-path="url(#p6cb4588a96)" style="fill: #ff7f0e; fill-opacity: 0.5"/>
     </g>
     <g id="patch_5">
      <path d="M 562.232821 74.558878 
L 562.232821 321.621875 
M 579.040483 74.558878 
L 579.040483 321.621875 
" clip-path="url(#p6cb4588a96)" style="fill: none; stroke: #ffffff; stroke-width: 3; stroke-linejoin: miter"/>
      <path d="M 562.232821 74.558878 
L 562.232821 321.621875 
M 579.040483 74.558878 
L 579.040483 321.621875 
" clip-path="url(#p6cb4588a96)" style="fill: none; stroke: #2ca02c; stroke-linejoin: miter"/>
      <g id="PolyCollection_3">
       <path d="M 579.040483 74.558878 
L 562.232821 74.558878 
L 562.232821 321.621875 
L 579.040483 321.621875 
L 579.040483 321.621875 
L 579.040483 74.558878 
z
" clip-path="url(#p6cb4588a96)" style="fill: #2ca02c; fill-opacity: 0.5"/>
      </g>
      <g id="patch_6">
       <path d="M 428.550102 284.282276 
L 428.550102 321.621875 
M 456.181774 284.282276 
L 456.181774 321.621875 
" clip-path="url(#p6cb4588a96)" style="fill: none; stroke: #ffffff; stroke-width: 3; stroke-linejoin: miter"/>
       <path d="M 428.550102 284.282276 
L 428.550102 321.621875 
M 456.181774 284.282276 
L 456.181774 321.621875 
" clip-path="url(#p6cb4588a96)" style="fill: none; stroke: #d62728; stroke-linejoin: miter"/>
       <g id="PolyCollection_4">
        <path d="M 456.181774 284.282276 
L 428.550102 284.282276 
L 428.550102 321.621875 
L 456.181774 321.621875 
L 456.181774 321.621875 
L 456.181774 284.282276 
z
" clip-path="url(#p6cb4588a96)" style="fill: #d62728; fill-opacity: 0.5"/>
       </g>
       <g id="matplotlib.axis_1">
        <g id="xtick_1">
         <g id="line2d_1"/>
         <g id="text_1">
          <!-- OUT -->
          <g transform="translate(111.039935 332.720312) scale(0.1 -0.1)">
           <defs>
            <path id="DejaVuSans-4f" d="M 2522 4238 
Q 1834 4238 1429 3725 
Q 1025 3213 1025 2328 
Q 1025 1447 1429 934 
Q 1834 422 2522 422 
Q 3209 422 3611 934 
Q 4013 1447 4013 2328 
Q 4013 3213 3611 3725 
Q 3209 4238 2522 4238 
z
M 2522 4750 
Q 3503 4750 4090 4092 
Q 4678 3434 4678 2328 
Q 4678 1225 4090 567 
Q 3503 -91 2522 -91 
Q 1538 -91 948 565 
Q 359 1222 359 2328 
Q 359 3434 948 4092 
Q 1538 4750 2522 4750 
z
" transform="scale(0.015625)"/>
            <path id="DejaVuSans-55" d="M 556 4666 
L 1191 4666 
L 1191 1831 
Q 1191 1081 1462 751 
Q 1734 422 2344 422 
Q 2950 422 3222 751 
Q 3494 1081 3494 1831 
L 3494 4666 
L 4128 4666 
L 4128 1753 
Q 4128 841 3676 375 
Q 3225 -91 2344 -91 
Q 1459 -91 1007 375 
Q 556 841 556 1753 
L 556 4666 
z
" transform="scale(0.015625)"/>
            <path id="DejaVuSans-54" d="M -19 4666 
L 3928 4666 
L 3928 4134 
L 2272 4134 
L 2272 0 
L 1638 0 
L 1638 4134 
L -19 4134 
L -19 4666 
z
" transform="scale(0.015625)"/>
           </defs>
           <use xlink:href="#DejaVuSans-4f"/>
           <use xlink:href="#DejaVuSans-55" x="78.710938"/>
           <use xlink:href="#DejaVuSans-54" x="151.904297"/>
          </g>
         </g>
        </g>
        <g id="xtick_2">
         <g id="line2d_2"/>
         <g id="text_2">
          <!-- SRC -->
          <g transform="translate(560.746808 332.720312) scale(0.1 -0.1)">
           <defs>
            <path id="DejaVuSans-53" d="M 3425 4513 
L 3425 3897 
Q 3066 4069 2747 4153 
Q 2428 4238 2131 4238 
Q 1616 4238 1336 4038 
Q 1056 3838 1056 3469 
Q 1056 3159 1242 3001 
Q 1428 2844 1947 2747 
L 2328 2669 
Q 3034 2534 3370 2195 
Q 3706 1856 3706 1288 
Q 3706 609 3251 259 
Q 2797 -91 1919 -91 
Q 1588 -91 1214 -16 
Q 841 59 441 206 
L 441 856 
Q 825 641 1194 531 
Q 1563 422 1919 422 
Q 2459 422 2753 634 
Q 3047 847 3047 1241 
Q 3047 1584 2836 1778 
Q 2625 1972 2144 2069 
L 1759 2144 
Q 1053 2284 737 2584 
Q 422 2884 422 3419 
Q 422 4038 858 4394 
Q 1294 4750 2059 4750 
Q 2388 4750 2728 4690 
Q 3069 4631 3425 4513 
z
" transform="scale(0.015625)"/>
            <path id="DejaVuSans-52" d="M 2841 2188 
Q 3044 2119 3236 1894 
Q 3428 1669 3622 1275 
L 4263 0 
L 3584 0 
L 2988 1197 
Q 2756 1666 2539 1819 
Q 2322 1972 1947 1972 
L 1259 1972 
L 1259 0 
L 628 0 
L 628 4666 
L 2053 4666 
Q 2853 4666 3247 4331 
Q 3641 3997 3641 3322 
Q 3641 2881 3436 2590 
Q 3231 2300 2841 2188 
z
M 1259 4147 
L 1259 2491 
L 2053 2491 
Q 2509 2491 2742 2702 
Q 2975 2913 2975 3322 
Q 2975 3731 2742 3939 
Q 2509 4147 2053 4147 
L 1259 4147 
z
" transform="scale(0.015625)"/>
            <path id="DejaVuSans-43" d="M 4122 4306 
L 4122 3641 
Q 3803 3938 3442 4084 
Q 3081 4231 2675 4231 
Q 1875 4231 1450 3742 
Q 1025 3253 1025 2328 
Q 1025 1406 1450 917 
Q 1875 428 2675 428 
Q 3081 428 3442 575 
Q 3803 722 4122 1019 
L 4122 359 
Q 3791 134 3420 21 
Q 3050 -91 2638 -91 
Q 1578 -91 968 557 
Q 359 1206 359 2328 
Q 359 3453 968 4101 
Q 1578 4750 2638 4750 
Q 3056 4750 3426 4639 
Q 3797 4528 4122 4306 
z
" transform="scale(0.015625)"/>
           </defs>
           <use xlink:href="#DejaVuSans-53"/>
           <use xlink:href="#DejaVuSans-52" x="63.476562"/>
           <use xlink:href="#DejaVuSans-43" x="127.958984"/>
          </g>
         </g>
        </g>
        <g id="xtick_3">
         <g id="line2d_3"/>
         <g id="text_3">
          <!-- TAR -->
          <g transform="translate(432.805001 332.720312) scale(0.1 -0.1)">
           <defs>
            <path id="DejaVuSans-41" d="M 2188 4044 
L 1331 1722 
L 3047 1722 
L 2188 4044 
z
M 1831 4666 
L 2547 4666 
L 4325 0 
L 3669 0 
L 3244 1197 
L 1141 1197 
L 716 0 
L 50 0 
L 1831 4666 
z
" transform="scale(0.015625)"/>
           </defs>
           <use xlink:href="#DejaVuSans-54"/>
           <use xlink:href="#DejaVuSans-41" x="53.333984"/>
           <use xlink:href="#DejaVuSans-52" x="121.742188"/>
          </g>
         </g>
        </g>
       </g>
       <g id="matplotlib.axis_2">
        <g id="ytick_1">
         <g id="line2d_4">
          <defs>
           <path id="m8ce998d54f" d="M 0 0 
L -3.5 0 
" style="stroke: #000000; stroke-width: 0.8"/>
          </defs>
          <g>
           <use xlink:href="#m8ce998d54f" x="63.290625" y="321.621875" style="stroke: #000000; stroke-width: 0.8"/>
          </g>
         </g>
         <g id="text_4">
          <!-- 0 -->
          <g transform="translate(49.928125 325.421094) scale(0.1 -0.1)">
           <defs>
            <path id="DejaVuSans-30" d="M 2034 4250 
Q 1547 4250 1301 3770 
Q 1056 3291 1056 2328 
Q 1056 1369 1301 889 
Q 1547 409 2034 409 
Q 2525 409 2770 889 
Q 3016 1369 3016 2328 
Q 3016 3291 2770 3770 
Q 2525 4250 2034 4250 
z
M 2034 4750 
Q 2819 4750 3233 4129 
Q 3647 3509 3647 2328 
Q 3647 1150 3233 529 
Q 2819 -91 2034 -91 
Q 1250 -91 836 529 
Q 422 1150 422 2328 
Q 422 3509 836 4129 
Q 1250 4750 2034 4750 
z
" transform="scale(0.015625)"/>
           </defs>
           <use xlink:href="#DejaVuSans-30"/>
          </g>
         </g>
        </g>
        <g id="ytick_2">
         <g id="line2d_5">
          <g>
           <use xlink:href="#m8ce998d54f" x="63.290625" y="270.499752" style="stroke: #000000; stroke-width: 0.8"/>
          </g>
         </g>
         <g id="text_5">
          <!-- 5000 -->
          <g transform="translate(30.840625 274.29897) scale(0.1 -0.1)">
           <defs>
            <path id="DejaVuSans-35" d="M 691 4666 
L 3169 4666 
L 3169 4134 
L 1269 4134 
L 1269 2991 
Q 1406 3038 1543 3061 
Q 1681 3084 1819 3084 
Q 2600 3084 3056 2656 
Q 3513 2228 3513 1497 
Q 3513 744 3044 326 
Q 2575 -91 1722 -91 
Q 1428 -91 1123 -41 
Q 819 9 494 109 
L 494 744 
Q 775 591 1075 516 
Q 1375 441 1709 441 
Q 2250 441 2565 725 
Q 2881 1009 2881 1497 
Q 2881 1984 2565 2268 
Q 2250 2553 1709 2553 
Q 1456 2553 1204 2497 
Q 953 2441 691 2322 
L 691 4666 
z
" transform="scale(0.015625)"/>
           </defs>
           <use xlink:href="#DejaVuSans-35"/>
           <use xlink:href="#DejaVuSans-30" x="63.623047"/>
           <use xlink:href="#DejaVuSans-30" x="127.246094"/>
           <use xlink:href="#DejaVuSans-30" x="190.869141"/>
          </g>
         </g>
        </g>
        <g id="ytick_3">
         <g id="line2d_6">
          <g>
           <use xlink:href="#m8ce998d54f" x="63.290625" y="219.377628" style="stroke: #000000; stroke-width: 0.8"/>
          </g>
         </g>
         <g id="text_6">
          <!-- 10000 -->
          <g transform="translate(24.478125 223.176847) scale(0.1 -0.1)">
           <defs>
            <path id="DejaVuSans-31" d="M 794 531 
L 1825 531 
L 1825 4091 
L 703 3866 
L 703 4441 
L 1819 4666 
L 2450 4666 
L 2450 531 
L 3481 531 
L 3481 0 
L 794 0 
L 794 531 
z
" transform="scale(0.015625)"/>
           </defs>
           <use xlink:href="#DejaVuSans-31"/>
           <use xlink:href="#DejaVuSans-30" x="63.623047"/>
           <use xlink:href="#DejaVuSans-30" x="127.246094"/>
           <use xlink:href="#DejaVuSans-30" x="190.869141"/>
           <use xlink:href="#DejaVuSans-30" x="254.492188"/>
          </g>
         </g>
        </g>
        <g id="ytick_4">
         <g id="line2d_7">
          <g>
           <use xlink:href="#m8ce998d54f" x="63.290625" y="168.255505" style="stroke: #000000; stroke-width: 0.8"/>
          </g>
         </g>
         <g id="text_7">
          <!-- 15000 -->
          <g transform="translate(24.478125 172.054724) scale(0.1 -0.1)">
           <use xlink:href="#DejaVuSans-31"/>
           <use xlink:href="#DejaVuSans-35" x="63.623047"/>
           <use xlink:href="#DejaVuSans-30" x="127.246094"/>
           <use xlink:href="#DejaVuSans-30" x="190.869141"/>
           <use xlink:href="#DejaVuSans-30" x="254.492188"/>
          </g>
         </g>
        </g>
        <g id="ytick_5">
         <g id="line2d_8">
          <g>
           <use xlink:href="#m8ce998d54f" x="63.290625" y="117.133382" style="stroke: #000000; stroke-width: 0.8"/>
          </g>
         </g>
         <g id="text_8">
          <!-- 20000 -->
          <g transform="translate(24.478125 120.932601) scale(0.1 -0.1)">
           <defs>
            <path id="DejaVuSans-32" d="M 1228 531 
L 3431 531 
L 3431 0 
L 469 0 
L 469 531 
Q 828 903 1448 1529 
Q 2069 2156 2228 2338 
Q 2531 2678 2651 2914 
Q 2772 3150 2772 3378 
Q 2772 3750 2511 3984 
Q 2250 4219 1831 4219 
Q 1534 4219 1204 4116 
Q 875 4013 500 3803 
L 500 4441 
Q 881 4594 1212 4672 
Q 1544 4750 1819 4750 
Q 2544 4750 2975 4387 
Q 3406 4025 3406 3419 
Q 3406 3131 3298 2873 
Q 3191 2616 2906 2266 
Q 2828 2175 2409 1742 
Q 1991 1309 1228 531 
z
" transform="scale(0.015625)"/>
           </defs>
           <use xlink:href="#DejaVuSans-32"/>
           <use xlink:href="#DejaVuSans-30" x="63.623047"/>
           <use xlink:href="#DejaVuSans-30" x="127.246094"/>
           <use xlink:href="#DejaVuSans-30" x="190.869141"/>
           <use xlink:href="#DejaVuSans-30" x="254.492188"/>
          </g>
         </g>
        </g>
        <g id="ytick_6">
         <g id="line2d_9">
          <g>
           <use xlink:href="#m8ce998d54f" x="63.290625" y="66.011259" style="stroke: #000000; stroke-width: 0.8"/>
          </g>
         </g>
         <g id="text_9">
          <!-- 25000 -->
          <g transform="translate(24.478125 69.810477) scale(0.1 -0.1)">
           <use xlink:href="#DejaVuSans-32"/>
           <use xlink:href="#DejaVuSans-35" x="63.623047"/>
           <use xlink:href="#DejaVuSans-30" x="127.246094"/>
           <use xlink:href="#DejaVuSans-30" x="190.869141"/>
           <use xlink:href="#DejaVuSans-30" x="254.492188"/>
          </g>
         </g>
        </g>
        <g id="ytick_7">
         <g id="line2d_10">
          <g>
           <use xlink:href="#m8ce998d54f" x="63.290625" y="14.889135" style="stroke: #000000; stroke-width: 0.8"/>
          </g>
         </g>
         <g id="text_10">
          <!-- 30000 -->
          <g transform="translate(24.478125 18.688354) scale(0.1 -0.1)">
           <defs>
            <path id="DejaVuSans-33" d="M 2597 2516 
Q 3050 2419 3304 2112 
Q 3559 1806 3559 1356 
Q 3559 666 3084 287 
Q 2609 -91 1734 -91 
Q 1441 -91 1130 -33 
Q 819 25 488 141 
L 488 750 
Q 750 597 1062 519 
Q 1375 441 1716 441 
Q 2309 441 2620 675 
Q 2931 909 2931 1356 
Q 2931 1769 2642 2001 
Q 2353 2234 1838 2234 
L 1294 2234 
L 1294 2753 
L 1863 2753 
Q 2328 2753 2575 2939 
Q 2822 3125 2822 3475 
Q 2822 3834 2567 4026 
Q 2313 4219 1838 4219 
Q 1578 4219 1281 4162 
Q 984 4106 628 3988 
L 628 4550 
Q 988 4650 1302 4700 
Q 1616 4750 1894 4750 
Q 2613 4750 3031 4423 
Q 3450 4097 3450 3541 
Q 3450 3153 3228 2886 
Q 3006 2619 2597 2516 
z
" transform="scale(0.015625)"/>
           </defs>
           <use xlink:href="#DejaVuSans-33"/>
           <use xlink:href="#DejaVuSans-30" x="63.623047"/>
           <use xlink:href="#DejaVuSans-30" x="127.246094"/>
           <use xlink:href="#DejaVuSans-30" x="190.869141"/>
           <use xlink:href="#DejaVuSans-30" x="254.492188"/>
          </g>
         </g>
        </g>
        <g id="text_11">
         <!-- time ago (generations) -->
         <g transform="translate(18.398438 224.678595) rotate(-90) scale(0.1 -0.1)">
          <defs>
           <path id="DejaVuSans-74" d="M 1172 4494 
L 1172 3500 
L 2356 3500 
L 2356 3053 
L 1172 3053 
L 1172 1153 
Q 1172 725 1289 603 
Q 1406 481 1766 481 
L 2356 481 
L 2356 0 
L 1766 0 
Q 1100 0 847 248 
Q 594 497 594 1153 
L 594 3053 
L 172 3053 
L 172 3500 
L 594 3500 
L 594 4494 
L 1172 4494 
z
" transform="scale(0.015625)"/>
           <path id="DejaVuSans-69" d="M 603 3500 
L 1178 3500 
L 1178 0 
L 603 0 
L 603 3500 
z
M 603 4863 
L 1178 4863 
L 1178 4134 
L 603 4134 
L 603 4863 
z
" transform="scale(0.015625)"/>
           <path id="DejaVuSans-6d" d="M 3328 2828 
Q 3544 3216 3844 3400 
Q 4144 3584 4550 3584 
Q 5097 3584 5394 3201 
Q 5691 2819 5691 2113 
L 5691 0 
L 5113 0 
L 5113 2094 
Q 5113 2597 4934 2840 
Q 4756 3084 4391 3084 
Q 3944 3084 3684 2787 
Q 3425 2491 3425 1978 
L 3425 0 
L 2847 0 
L 2847 2094 
Q 2847 2600 2669 2842 
Q 2491 3084 2119 3084 
Q 1678 3084 1418 2786 
Q 1159 2488 1159 1978 
L 1159 0 
L 581 0 
L 581 3500 
L 1159 3500 
L 1159 2956 
Q 1356 3278 1631 3431 
Q 1906 3584 2284 3584 
Q 2666 3584 2933 3390 
Q 3200 3197 3328 2828 
z
" transform="scale(0.015625)"/>
           <path id="DejaVuSans-65" d="M 3597 1894 
L 3597 1613 
L 953 1613 
Q 991 1019 1311 708 
Q 1631 397 2203 397 
Q 2534 397 2845 478 
Q 3156 559 3463 722 
L 3463 178 
Q 3153 47 2828 -22 
Q 2503 -91 2169 -91 
Q 1331 -91 842 396 
Q 353 884 353 1716 
Q 353 2575 817 3079 
Q 1281 3584 2069 3584 
Q 2775 3584 3186 3129 
Q 3597 2675 3597 1894 
z
M 3022 2063 
Q 3016 2534 2758 2815 
Q 2500 3097 2075 3097 
Q 1594 3097 1305 2825 
Q 1016 2553 972 2059 
L 3022 2063 
z
" transform="scale(0.015625)"/>
           <path id="DejaVuSans-20" transform="scale(0.015625)"/>
           <path id="DejaVuSans-61" d="M 2194 1759 
Q 1497 1759 1228 1600 
Q 959 1441 959 1056 
Q 959 750 1161 570 
Q 1363 391 1709 391 
Q 2188 391 2477 730 
Q 2766 1069 2766 1631 
L 2766 1759 
L 2194 1759 
z
M 3341 1997 
L 3341 0 
L 2766 0 
L 2766 531 
Q 2569 213 2275 61 
Q 1981 -91 1556 -91 
Q 1019 -91 701 211 
Q 384 513 384 1019 
Q 384 1609 779 1909 
Q 1175 2209 1959 2209 
L 2766 2209 
L 2766 2266 
Q 2766 2663 2505 2880 
Q 2244 3097 1772 3097 
Q 1472 3097 1187 3025 
Q 903 2953 641 2809 
L 641 3341 
Q 956 3463 1253 3523 
Q 1550 3584 1831 3584 
Q 2591 3584 2966 3190 
Q 3341 2797 3341 1997 
z
" transform="scale(0.015625)"/>
           <path id="DejaVuSans-67" d="M 2906 1791 
Q 2906 2416 2648 2759 
Q 2391 3103 1925 3103 
Q 1463 3103 1205 2759 
Q 947 2416 947 1791 
Q 947 1169 1205 825 
Q 1463 481 1925 481 
Q 2391 481 2648 825 
Q 2906 1169 2906 1791 
z
M 3481 434 
Q 3481 -459 3084 -895 
Q 2688 -1331 1869 -1331 
Q 1566 -1331 1297 -1286 
Q 1028 -1241 775 -1147 
L 775 -588 
Q 1028 -725 1275 -790 
Q 1522 -856 1778 -856 
Q 2344 -856 2625 -561 
Q 2906 -266 2906 331 
L 2906 616 
Q 2728 306 2450 153 
Q 2172 0 1784 0 
Q 1141 0 747 490 
Q 353 981 353 1791 
Q 353 2603 747 3093 
Q 1141 3584 1784 3584 
Q 2172 3584 2450 3431 
Q 2728 3278 2906 2969 
L 2906 3500 
L 3481 3500 
L 3481 434 
z
" transform="scale(0.015625)"/>
           <path id="DejaVuSans-6f" d="M 1959 3097 
Q 1497 3097 1228 2736 
Q 959 2375 959 1747 
Q 959 1119 1226 758 
Q 1494 397 1959 397 
Q 2419 397 2687 759 
Q 2956 1122 2956 1747 
Q 2956 2369 2687 2733 
Q 2419 3097 1959 3097 
z
M 1959 3584 
Q 2709 3584 3137 3096 
Q 3566 2609 3566 1747 
Q 3566 888 3137 398 
Q 2709 -91 1959 -91 
Q 1206 -91 779 398 
Q 353 888 353 1747 
Q 353 2609 779 3096 
Q 1206 3584 1959 3584 
z
" transform="scale(0.015625)"/>
           <path id="DejaVuSans-28" d="M 1984 4856 
Q 1566 4138 1362 3434 
Q 1159 2731 1159 2009 
Q 1159 1288 1364 580 
Q 1569 -128 1984 -844 
L 1484 -844 
Q 1016 -109 783 600 
Q 550 1309 550 2009 
Q 550 2706 781 3412 
Q 1013 4119 1484 4856 
L 1984 4856 
z
" transform="scale(0.015625)"/>
           <path id="DejaVuSans-6e" d="M 3513 2113 
L 3513 0 
L 2938 0 
L 2938 2094 
Q 2938 2591 2744 2837 
Q 2550 3084 2163 3084 
Q 1697 3084 1428 2787 
Q 1159 2491 1159 1978 
L 1159 0 
L 581 0 
L 581 3500 
L 1159 3500 
L 1159 2956 
Q 1366 3272 1645 3428 
Q 1925 3584 2291 3584 
Q 2894 3584 3203 3211 
Q 3513 2838 3513 2113 
z
" transform="scale(0.015625)"/>
           <path id="DejaVuSans-72" d="M 2631 2963 
Q 2534 3019 2420 3045 
Q 2306 3072 2169 3072 
Q 1681 3072 1420 2755 
Q 1159 2438 1159 1844 
L 1159 0 
L 581 0 
L 581 3500 
L 1159 3500 
L 1159 2956 
Q 1341 3275 1631 3429 
Q 1922 3584 2338 3584 
Q 2397 3584 2469 3576 
Q 2541 3569 2628 3553 
L 2631 2963 
z
" transform="scale(0.015625)"/>
           <path id="DejaVuSans-73" d="M 2834 3397 
L 2834 2853 
Q 2591 2978 2328 3040 
Q 2066 3103 1784 3103 
Q 1356 3103 1142 2972 
Q 928 2841 928 2578 
Q 928 2378 1081 2264 
Q 1234 2150 1697 2047 
L 1894 2003 
Q 2506 1872 2764 1633 
Q 3022 1394 3022 966 
Q 3022 478 2636 193 
Q 2250 -91 1575 -91 
Q 1294 -91 989 -36 
Q 684 19 347 128 
L 347 722 
Q 666 556 975 473 
Q 1284 391 1588 391 
Q 1994 391 2212 530 
Q 2431 669 2431 922 
Q 2431 1156 2273 1281 
Q 2116 1406 1581 1522 
L 1381 1569 
Q 847 1681 609 1914 
Q 372 2147 372 2553 
Q 372 3047 722 3315 
Q 1072 3584 1716 3584 
Q 2034 3584 2315 3537 
Q 2597 3491 2834 3397 
z
" transform="scale(0.015625)"/>
           <path id="DejaVuSans-29" d="M 513 4856 
L 1013 4856 
Q 1481 4119 1714 3412 
Q 1947 2706 1947 2009 
Q 1947 1309 1714 600 
Q 1481 -109 1013 -844 
L 513 -844 
Q 928 -128 1133 580 
Q 1338 1288 1338 2009 
Q 1338 2731 1133 3434 
Q 928 4138 513 4856 
z
" transform="scale(0.015625)"/>
          </defs>
          <use xlink:href="#DejaVuSans-74"/>
          <use xlink:href="#DejaVuSans-69" x="39.208984"/>
          <use xlink:href="#DejaVuSans-6d" x="66.992188"/>
          <use xlink:href="#DejaVuSans-65" x="164.404297"/>
          <use xlink:href="#DejaVuSans-20" x="225.927734"/>
          <use xlink:href="#DejaVuSans-61" x="257.714844"/>
          <use xlink:href="#DejaVuSans-67" x="318.994141"/>
          <use xlink:href="#DejaVuSans-6f" x="382.470703"/>
          <use xlink:href="#DejaVuSans-20" x="443.652344"/>
          <use xlink:href="#DejaVuSans-28" x="475.439453"/>
          <use xlink:href="#DejaVuSans-67" x="514.453125"/>
          <use xlink:href="#DejaVuSans-65" x="577.929688"/>
          <use xlink:href="#DejaVuSans-6e" x="639.453125"/>
          <use xlink:href="#DejaVuSans-65" x="702.832031"/>
          <use xlink:href="#DejaVuSans-72" x="764.355469"/>
          <use xlink:href="#DejaVuSans-61" x="805.46875"/>
          <use xlink:href="#DejaVuSans-74" x="866.748047"/>
          <use xlink:href="#DejaVuSans-69" x="905.957031"/>
          <use xlink:href="#DejaVuSans-6f" x="933.740234"/>
          <use xlink:href="#DejaVuSans-6e" x="994.921875"/>
          <use xlink:href="#DejaVuSans-73" x="1058.300781"/>
          <use xlink:href="#DejaVuSans-29" x="1110.400391"/>
         </g>
        </g>
       </g>
       <g id="patch_7">
        <path d="M 236.337531 205.114556 
L 235.337531 205.08312 
L 234.337531 205.046179 
L 233.337531 204.948433 
L 232.337531 204.915911 
L 231.337531 204.842287 
L 230.337531 204.803721 
L 229.337531 204.768308 
L 228.337531 204.710668 
L 227.337531 204.640282 
L 226.337531 204.588317 
L 225.337531 204.529228 
L 224.337531 204.440907 
L 223.337531 204.394762 
L 222.337531 204.352351 
L 221.337531 204.321859 
L 220.337531 204.295814 
L 219.337531 204.274614 
L 218.337531 204.220313 
L 217.337531 204.192375 
L 216.337531 204.162651 
L 215.337531 204.137256 
L 214.337531 204.126056 
L 213.337531 204.115932 
L 212.337531 204.116136 
L 211.337531 204.125646 
L 210.337531 204.1373 
L 209.337531 204.168329 
L 208.337531 204.179497 
L 207.337531 204.209614 
L 206.337531 204.269391 
L 205.337531 204.306583 
L 204.337531 204.345679 
L 203.337531 204.388119 
L 202.337531 204.420884 
L 201.337531 204.48831 
L 200.337531 204.527436 
L 199.337531 204.570111 
L 198.337531 204.640691 
L 197.337531 204.677082 
L 196.337531 204.735485 
L 195.337531 204.846438 
L 194.337531 204.917096 
L 193.337531 205.030036 
L 192.337531 205.075809 
L 191.337531 205.137092 
L 190.337531 205.185592 
L 189.337531 205.266414 
L 188.337531 205.384933 
L 187.337531 205.455144 
L 186.337531 205.538406 
L 185.337531 205.571548 
L 184.337531 205.622785 
L 183.337531 205.691184 
L 182.337531 205.757399 
L 181.337531 205.834316 
L 180.337531 205.861632 
L 179.337531 205.888109 
L 178.337531 205.91076 
L 177.337531 205.930291 
L 176.337531 205.956685 
L 175.337531 206.006456 
L 174.337531 206.041529 
L 173.337531 206.077395 
L 172.337531 206.092762 
L 171.337531 206.108531 
L 170.337531 206.111944 
L 169.337531 206.114361 
L 168.337531 206.113875 
L 167.337531 206.111946 
L 166.337531 206.098689 
L 165.337531 206.090299 
L 164.337531 206.068762 
L 163.337531 206.045729 
L 162.337531 206.028496 
L 161.337531 206.010033 
L 160.337531 205.989581 
L 158.643746 205.972981 
" clip-path="url(#p6cb4588a96)" style="fill: none; stroke: #ffffff; stroke-width: 3; stroke-linecap: round"/>
        <path d="M 236.337531 205.114556 
L 235.337531 205.08312 
L 234.337531 205.046179 
L 233.337531 204.948433 
L 232.337531 204.915911 
L 231.337531 204.842287 
L 230.337531 204.803721 
L 229.337531 204.768308 
L 228.337531 204.710668 
L 227.337531 204.640282 
L 226.337531 204.588317 
L 225.337531 204.529228 
L 224.337531 204.440907 
L 223.337531 204.394762 
L 222.337531 204.352351 
L 221.337531 204.321859 
L 220.337531 204.295814 
L 219.337531 204.274614 
L 218.337531 204.220313 
L 217.337531 204.192375 
L 216.337531 204.162651 
L 215.337531 204.137256 
L 214.337531 204.126056 
L 213.337531 204.115932 
L 212.337531 204.116136 
L 211.337531 204.125646 
L 210.337531 204.1373 
L 209.337531 204.168329 
L 208.337531 204.179497 
L 207.337531 204.209614 
L 206.337531 204.269391 
L 205.337531 204.306583 
L 204.337531 204.345679 
L 203.337531 204.388119 
L 202.337531 204.420884 
L 201.337531 204.48831 
L 200.337531 204.527436 
L 199.337531 204.570111 
L 198.337531 204.640691 
L 197.337531 204.677082 
L 196.337531 204.735485 
L 195.337531 204.846438 
L 194.337531 204.917096 
L 193.337531 205.030036 
L 192.337531 205.075809 
L 191.337531 205.137092 
L 190.337531 205.185592 
L 189.337531 205.266414 
L 188.337531 205.384933 
L 187.337531 205.455144 
L 186.337531 205.538406 
L 185.337531 205.571548 
L 184.337531 205.622785 
L 183.337531 205.691184 
L 182.337531 205.757399 
L 181.337531 205.834316 
L 180.337531 205.861632 
L 179.337531 205.888109 
L 178.337531 205.91076 
L 177.337531 205.930291 
L 176.337531 205.956685 
L 175.337531 206.006456 
L 174.337531 206.041529 
L 173.337531 206.077395 
L 172.337531 206.092762 
L 171.337531 206.108531 
L 170.337531 206.111944 
L 169.337531 206.114361 
L 168.337531 206.113875 
L 167.337531 206.111946 
L 166.337531 206.098689 
L 165.337531 206.090299 
L 164.337531 206.068762 
L 163.337531 206.045729 
L 162.337531 206.028496 
L 161.337531 206.010033 
L 160.337531 205.989581 
L 158.643746 205.972981 
" clip-path="url(#p6cb4588a96)" style="fill: none; stroke: #1f77b4; stroke-linecap: round"/>
        <path d="M 162.643746 207.114556 
L 161.763377 206.639225 
L 160.88547 206.158971 
L 160.034757 205.62433 
L 158.732582 204.936883 
L 159.659936 204.910868 
L 160.57161 204.498148 
L 161.481874 204.082609 
L 162.82437 203.475805 
L 162.169471 204.114556 
L 162.117507 205.114556 
L 162.058417 207.114556 
z
" clip-path="url(#p6cb4588a96)" style="fill: #ffffff; stroke: #ffffff; stroke-width: 3; stroke-linecap: round"/>
        <path d="M 162.643746 207.114556 
L 161.763377 206.639225 
L 160.88547 206.158971 
L 160.034757 205.62433 
L 158.732582 204.936883 
L 159.659936 204.910868 
L 160.57161 204.498148 
L 161.481874 204.082609 
L 162.82437 203.475805 
L 162.169471 204.114556 
L 162.117507 205.114556 
L 162.058417 207.114556 
z
" clip-path="url(#p6cb4588a96)" style="fill: #ffffff; stroke: #1f77b4; stroke-linecap: round"/>
        <g id="patch_8">
         <path d="M 391.855627 74.558878 
L 392.855627 74.590314 
L 393.855627 74.627254 
L 394.855627 74.725001 
L 395.855627 74.757523 
L 396.855627 74.831147 
L 397.855627 74.869713 
L 398.855627 74.905126 
L 399.855627 74.962766 
L 400.855627 75.033152 
L 401.855627 75.085116 
L 402.855627 75.144206 
L 403.855627 75.232527 
L 404.855627 75.278671 
L 405.855627 75.321082 
L 406.855627 75.351575 
L 407.855627 75.37762 
L 408.855627 75.39882 
L 409.855627 75.453121 
L 410.855627 75.481059 
L 411.855627 75.510783 
L 412.855627 75.536177 
L 413.855627 75.547378 
L 414.855627 75.557502 
L 415.855627 75.557297 
L 416.855627 75.547788 
L 417.855627 75.536134 
L 418.855627 75.505105 
L 419.855627 75.493937 
L 420.855627 75.463819 
L 421.855627 75.404042 
L 422.855627 75.366851 
L 423.855627 75.327755 
L 424.855627 75.285315 
L 425.855627 75.25255 
L 426.855627 75.185124 
L 427.855627 75.145998 
L 428.855627 75.103323 
L 429.855627 75.032742 
L 430.855627 74.996352 
L 431.855627 74.937948 
L 432.855627 74.826996 
L 433.855627 74.756338 
L 434.855627 74.643398 
L 435.855627 74.597625 
L 436.855627 74.536342 
L 437.855627 74.487842 
L 438.855627 74.40702 
L 439.855627 74.288501 
L 440.855627 74.21829 
L 441.855627 74.135028 
L 442.855627 74.101886 
L 443.855627 74.050648 
L 444.855627 73.98225 
L 445.855627 73.916035 
L 446.855627 73.839118 
L 447.855627 73.811802 
L 448.855627 73.785325 
L 449.855627 73.762674 
L 450.855627 73.743143 
L 451.855627 73.716749 
L 452.855627 73.666978 
L 453.855627 73.631905 
L 454.855627 73.596039 
L 455.855627 73.580672 
L 456.855627 73.564903 
L 457.855627 73.56149 
L 458.855627 73.559072 
L 459.855627 73.559558 
L 460.855627 73.561488 
L 461.855627 73.574745 
L 462.855627 73.583135 
L 463.855627 73.604672 
L 464.855627 73.627704 
L 465.855627 73.644938 
L 466.855627 73.6634 
L 467.855627 73.683853 
L 468.855627 73.700453 
L 469.855627 73.763232 
L 470.855627 73.838497 
L 471.855627 73.871136 
L 472.855627 73.938699 
L 473.855627 73.992746 
L 474.855627 74.026451 
L 475.855627 74.116577 
L 476.855627 74.145112 
L 477.855627 74.176598 
L 478.855627 74.207609 
L 479.855627 74.262417 
L 480.855627 74.327004 
L 481.855627 74.365199 
L 482.855627 74.461134 
L 483.855627 74.510392 
L 484.855627 74.554461 
L 485.855627 74.594585 
L 486.855627 74.702952 
L 487.855627 74.74458 
L 488.855627 74.806721 
L 489.855627 74.876684 
L 490.855627 74.981188 
L 491.855627 75.018176 
L 492.855627 75.064053 
L 493.855627 75.132547 
L 494.855627 75.181293 
L 495.855627 75.258891 
L 496.855627 75.289431 
L 497.855627 75.358946 
L 498.855627 75.382919 
L 499.855627 75.41154 
L 500.855627 75.453334 
L 501.855627 75.474909 
L 502.855627 75.488857 
L 503.855627 75.51558 
L 504.855627 75.52489 
L 505.855627 75.537336 
L 506.855627 75.548391 
L 507.855627 75.554056 
L 508.855627 75.55882 
L 509.855627 75.553272 
L 510.855627 75.539984 
L 511.855627 75.532466 
L 512.855627 75.507682 
L 513.855627 75.484113 
L 514.855627 75.447932 
L 515.855627 75.42197 
L 516.855627 75.399649 
L 517.855627 75.330889 
L 518.855627 75.256354 
L 519.855627 75.162374 
L 520.855627 75.111322 
L 521.855627 75.057389 
L 522.855627 75.022138 
L 523.855627 74.91605 
L 524.855627 74.863786 
L 525.855627 74.826879 
L 526.855627 74.795848 
L 527.855627 74.734693 
L 528.855627 74.667273 
L 529.855627 74.618367 
L 530.855627 74.553174 
L 531.855627 74.514987 
L 532.855627 74.472991 
L 533.855627 74.430974 
L 534.855627 74.371457 
L 535.855627 74.258297 
L 536.855627 74.206047 
L 537.855627 74.166629 
L 538.855627 74.119527 
L 539.855627 74.062748 
L 540.855627 74.030085 
L 541.855627 73.993907 
L 542.855627 73.961816 
L 543.855627 73.927537 
L 544.855627 73.869159 
L 545.855627 73.823974 
L 546.855627 73.79435 
L 547.855627 73.743964 
L 548.855627 73.718766 
L 549.855627 73.697716 
L 550.855627 73.662748 
L 551.855627 73.638458 
L 552.855627 73.624391 
L 553.855627 73.605449 
L 554.855627 73.589787 
L 555.855627 73.577236 
L 556.855627 73.5714 
L 557.855627 73.564517 
L 559.11558 73.559344 
" clip-path="url(#p6cb4588a96)" style="fill: none; stroke: #ffffff; stroke-width: 3; stroke-linecap: round"/>
         <path d="M 391.855627 74.558878 
L 392.855627 74.590314 
L 393.855627 74.627254 
L 394.855627 74.725001 
L 395.855627 74.757523 
L 396.855627 74.831147 
L 397.855627 74.869713 
L 398.855627 74.905126 
L 399.855627 74.962766 
L 400.855627 75.033152 
L 401.855627 75.085116 
L 402.855627 75.144206 
L 403.855627 75.232527 
L 404.855627 75.278671 
L 405.855627 75.321082 
L 406.855627 75.351575 
L 407.855627 75.37762 
L 408.855627 75.39882 
L 409.855627 75.453121 
L 410.855627 75.481059 
L 411.855627 75.510783 
L 412.855627 75.536177 
L 413.855627 75.547378 
L 414.855627 75.557502 
L 415.855627 75.557297 
L 416.855627 75.547788 
L 417.855627 75.536134 
L 418.855627 75.505105 
L 419.855627 75.493937 
L 420.855627 75.463819 
L 421.855627 75.404042 
L 422.855627 75.366851 
L 423.855627 75.327755 
L 424.855627 75.285315 
L 425.855627 75.25255 
L 426.855627 75.185124 
L 427.855627 75.145998 
L 428.855627 75.103323 
L 429.855627 75.032742 
L 430.855627 74.996352 
L 431.855627 74.937948 
L 432.855627 74.826996 
L 433.855627 74.756338 
L 434.855627 74.643398 
L 435.855627 74.597625 
L 436.855627 74.536342 
L 437.855627 74.487842 
L 438.855627 74.40702 
L 439.855627 74.288501 
L 440.855627 74.21829 
L 441.855627 74.135028 
L 442.855627 74.101886 
L 443.855627 74.050648 
L 444.855627 73.98225 
L 445.855627 73.916035 
L 446.855627 73.839118 
L 447.855627 73.811802 
L 448.855627 73.785325 
L 449.855627 73.762674 
L 450.855627 73.743143 
L 451.855627 73.716749 
L 452.855627 73.666978 
L 453.855627 73.631905 
L 454.855627 73.596039 
L 455.855627 73.580672 
L 456.855627 73.564903 
L 457.855627 73.56149 
L 458.855627 73.559072 
L 459.855627 73.559558 
L 460.855627 73.561488 
L 461.855627 73.574745 
L 462.855627 73.583135 
L 463.855627 73.604672 
L 464.855627 73.627704 
L 465.855627 73.644938 
L 466.855627 73.6634 
L 467.855627 73.683853 
L 468.855627 73.700453 
L 469.855627 73.763232 
L 470.855627 73.838497 
L 471.855627 73.871136 
L 472.855627 73.938699 
L 473.855627 73.992746 
L 474.855627 74.026451 
L 475.855627 74.116577 
L 476.855627 74.145112 
L 477.855627 74.176598 
L 478.855627 74.207609 
L 479.855627 74.262417 
L 480.855627 74.327004 
L 481.855627 74.365199 
L 482.855627 74.461134 
L 483.855627 74.510392 
L 484.855627 74.554461 
L 485.855627 74.594585 
L 486.855627 74.702952 
L 487.855627 74.74458 
L 488.855627 74.806721 
L 489.855627 74.876684 
L 490.855627 74.981188 
L 491.855627 75.018176 
L 492.855627 75.064053 
L 493.855627 75.132547 
L 494.855627 75.181293 
L 495.855627 75.258891 
L 496.855627 75.289431 
L 497.855627 75.358946 
L 498.855627 75.382919 
L 499.855627 75.41154 
L 500.855627 75.453334 
L 501.855627 75.474909 
L 502.855627 75.488857 
L 503.855627 75.51558 
L 504.855627 75.52489 
L 505.855627 75.537336 
L 506.855627 75.548391 
L 507.855627 75.554056 
L 508.855627 75.55882 
L 509.855627 75.553272 
L 510.855627 75.539984 
L 511.855627 75.532466 
L 512.855627 75.507682 
L 513.855627 75.484113 
L 514.855627 75.447932 
L 515.855627 75.42197 
L 516.855627 75.399649 
L 517.855627 75.330889 
L 518.855627 75.256354 
L 519.855627 75.162374 
L 520.855627 75.111322 
L 521.855627 75.057389 
L 522.855627 75.022138 
L 523.855627 74.91605 
L 524.855627 74.863786 
L 525.855627 74.826879 
L 526.855627 74.795848 
L 527.855627 74.734693 
L 528.855627 74.667273 
L 529.855627 74.618367 
L 530.855627 74.553174 
L 531.855627 74.514987 
L 532.855627 74.472991 
L 533.855627 74.430974 
L 534.855627 74.371457 
L 535.855627 74.258297 
L 536.855627 74.206047 
L 537.855627 74.166629 
L 538.855627 74.119527 
L 539.855627 74.062748 
L 540.855627 74.030085 
L 541.855627 73.993907 
L 542.855627 73.961816 
L 543.855627 73.927537 
L 544.855627 73.869159 
L 545.855627 73.823974 
L 546.855627 73.79435 
L 547.855627 73.743964 
L 548.855627 73.718766 
L 549.855627 73.697716 
L 550.855627 73.662748 
L 551.855627 73.638458 
L 552.855627 73.624391 
L 553.855627 73.605449 
L 554.855627 73.589787 
L 555.855627 73.577236 
L 556.855627 73.5714 
L 557.855627 73.564517 
L 559.11558 73.559344 
" clip-path="url(#p6cb4588a96)" style="fill: none; stroke: #1f77b4; stroke-linecap: round"/>
         <path d="M 555.11558 72.558878 
L 555.995948 73.034209 
L 556.873855 73.514463 
L 557.724568 74.049104 
L 559.026743 74.736551 
L 558.09939 74.762566 
L 557.187715 75.175285 
L 556.277451 75.590825 
L 554.934955 76.197629 
L 555.589854 75.558878 
L 555.641818 74.558878 
L 555.700908 72.558878 
z
" clip-path="url(#p6cb4588a96)" style="fill: #ffffff; stroke: #ffffff; stroke-width: 3; stroke-linecap: round"/>
         <path d="M 555.11558 72.558878 
L 555.995948 73.034209 
L 556.873855 73.514463 
L 557.724568 74.049104 
L 559.026743 74.736551 
L 558.09939 74.762566 
L 557.187715 75.175285 
L 556.277451 75.590825 
L 554.934955 76.197629 
L 555.589854 75.558878 
L 555.641818 74.558878 
L 555.700908 72.558878 
z
" clip-path="url(#p6cb4588a96)" style="fill: #ffffff; stroke: #1f77b4; stroke-linecap: round"/>
         <g id="patch_9">
          <path d="M 157.532004 284.282276 
L 158.532004 284.313713 
L 159.532004 284.350653 
L 160.532004 284.4484 
L 161.532004 284.480921 
L 162.532004 284.554546 
L 163.532004 284.593111 
L 164.532004 284.628525 
L 165.532004 284.686164 
L 166.532004 284.756551 
L 167.532004 284.808515 
L 168.532004 284.867605 
L 169.532004 284.955926 
L 170.532004 285.00207 
L 171.532004 285.044481 
L 172.532004 285.074974 
L 173.532004 285.101018 
L 174.532004 285.122219 
L 175.532004 285.17652 
L 176.532004 285.204457 
L 177.532004 285.234181 
L 178.532004 285.259576 
L 179.532004 285.270776 
L 180.532004 285.2809 
L 181.532004 285.280696 
L 182.532004 285.271186 
L 183.532004 285.259533 
L 184.532004 285.228503 
L 185.532004 285.217335 
L 186.532004 285.187218 
L 187.532004 285.127441 
L 188.532004 285.090249 
L 189.532004 285.051153 
L 190.532004 285.008714 
L 191.532004 284.975949 
L 192.532004 284.908522 
L 193.532004 284.869396 
L 194.532004 284.826722 
L 195.532004 284.756141 
L 196.532004 284.71975 
L 197.532004 284.661347 
L 198.532004 284.550394 
L 199.532004 284.479736 
L 200.532004 284.366796 
L 201.532004 284.321023 
L 202.532004 284.25974 
L 203.532004 284.211241 
L 204.532004 284.130418 
L 205.532004 284.011899 
L 206.532004 283.941689 
L 207.532004 283.858426 
L 208.532004 283.825284 
L 209.532004 283.774047 
L 210.532004 283.705649 
L 211.532004 283.639433 
L 212.532004 283.562516 
L 213.532004 283.535201 
L 214.532004 283.508723 
L 215.532004 283.486073 
L 216.532004 283.466541 
L 217.532004 283.440147 
L 218.532004 283.390376 
L 219.532004 283.355303 
L 220.532004 283.319438 
L 221.532004 283.30407 
L 222.532004 283.288301 
L 223.532004 283.284889 
L 224.532004 283.282471 
L 225.532004 283.282957 
L 226.532004 283.284886 
L 227.532004 283.298143 
L 228.532004 283.306534 
L 229.532004 283.328071 
L 230.532004 283.351103 
L 231.532004 283.368337 
L 232.532004 283.386799 
L 233.532004 283.407252 
L 234.532004 283.423851 
L 235.532004 283.48663 
L 236.532004 283.561895 
L 237.532004 283.594534 
L 238.532004 283.662098 
L 239.532004 283.716145 
L 240.532004 283.749849 
L 241.532004 283.839975 
L 242.532004 283.86851 
L 243.532004 283.899996 
L 244.532004 283.931007 
L 245.532004 283.985815 
L 246.532004 284.050403 
L 247.532004 284.088598 
L 248.532004 284.184532 
L 249.532004 284.23379 
L 250.532004 284.27786 
L 251.532004 284.317983 
L 252.532004 284.42635 
L 253.532004 284.467978 
L 254.532004 284.53012 
L 255.532004 284.600082 
L 256.532004 284.704587 
L 257.532004 284.741574 
L 258.532004 284.787451 
L 259.532004 284.855946 
L 260.532004 284.904692 
L 261.532004 284.982289 
L 262.532004 285.01283 
L 263.532004 285.082344 
L 264.532004 285.106317 
L 265.532004 285.134939 
L 266.532004 285.176732 
L 267.532004 285.198308 
L 268.532004 285.212256 
L 269.532004 285.238979 
L 270.532004 285.248288 
L 271.532004 285.260735 
L 272.532004 285.27179 
L 273.532004 285.277454 
L 274.532004 285.282218 
L 275.532004 285.276671 
L 276.532004 285.263383 
L 277.532004 285.255865 
L 278.532004 285.23108 
L 279.532004 285.207512 
L 280.532004 285.171331 
L 281.532004 285.145369 
L 282.532004 285.123048 
L 283.532004 285.054287 
L 284.532004 284.979752 
L 285.532004 284.885773 
L 286.532004 284.834721 
L 287.532004 284.780787 
L 288.532004 284.745536 
L 289.532004 284.639448 
L 290.532004 284.587184 
L 291.532004 284.550277 
L 292.532004 284.519247 
L 293.532004 284.458091 
L 294.532004 284.390671 
L 295.532004 284.341765 
L 296.532004 284.276573 
L 297.532004 284.238385 
L 298.532004 284.19639 
L 299.532004 284.154372 
L 300.532004 284.094856 
L 301.532004 283.981696 
L 302.532004 283.929445 
L 303.532004 283.890027 
L 304.532004 283.842926 
L 305.532004 283.786147 
L 306.532004 283.753483 
L 307.532004 283.717306 
L 308.532004 283.685215 
L 309.532004 283.650935 
L 310.532004 283.592557 
L 311.532004 283.547372 
L 312.532004 283.517748 
L 313.532004 283.467363 
L 314.532004 283.442165 
L 315.532004 283.421114 
L 316.532004 283.386146 
L 317.532004 283.361856 
L 318.532004 283.347789 
L 319.532004 283.328847 
L 320.532004 283.313186 
L 321.532004 283.300634 
L 322.532004 283.294798 
L 323.532004 283.287916 
L 324.532004 283.282742 
L 325.532004 283.284525 
L 326.532004 283.287251 
L 327.532004 283.298404 
L 328.532004 283.326639 
L 329.532004 283.370427 
L 330.532004 283.391116 
L 331.532004 283.43209 
L 332.532004 283.472164 
L 333.532004 283.491274 
L 334.532004 283.513783 
L 335.532004 283.580435 
L 336.532004 283.630144 
L 337.532004 283.703851 
L 338.532004 283.735164 
L 339.532004 283.811786 
L 340.532004 283.850084 
L 341.532004 283.924201 
L 342.532004 284.028259 
L 343.532004 284.09809 
L 344.532004 284.203324 
L 345.532004 284.258339 
L 346.532004 284.381814 
L 347.532004 284.452373 
L 348.532004 284.568213 
L 349.532004 284.618393 
L 350.532004 284.653997 
L 351.532004 284.745404 
L 352.532004 284.798912 
L 353.532004 284.88682 
L 354.532004 284.956005 
L 355.532004 285.002769 
L 356.532004 285.074813 
L 357.532004 285.124955 
L 358.532004 285.142345 
L 359.532004 285.169348 
L 360.532004 285.188776 
L 361.532004 285.208114 
L 362.532004 285.246362 
L 363.532004 285.262795 
L 364.532004 285.271164 
L 365.532004 285.275483 
L 366.532004 285.282038 
L 367.532004 285.279492 
L 368.532004 285.274034 
L 369.532004 285.257605 
L 370.532004 285.22567 
L 371.532004 285.18769 
L 372.532004 285.152886 
L 373.532004 285.089814 
L 374.532004 285.068388 
L 375.532004 285.01777 
L 376.532004 284.992812 
L 377.532004 284.937179 
L 378.532004 284.90595 
L 379.532004 284.855805 
L 380.532004 284.823312 
L 381.532004 284.7429 
L 382.532004 284.673974 
L 383.532004 284.558277 
L 384.532004 284.482798 
L 385.532004 284.367273 
L 386.532004 284.287789 
L 387.532004 284.179348 
L 388.532004 284.13998 
L 389.532004 284.037113 
L 390.532004 283.937315 
L 391.532004 283.891817 
L 392.532004 283.857495 
L 393.532004 283.805539 
L 394.532004 283.765892 
L 395.532004 283.730378 
L 396.532004 283.662733 
L 397.532004 283.623652 
L 398.532004 283.57317 
L 399.532004 283.523864 
L 400.532004 283.472795 
L 401.532004 283.428555 
L 402.532004 283.406535 
L 403.532004 283.390979 
L 404.532004 283.348532 
L 405.532004 283.333664 
L 406.532004 283.310937 
L 407.532004 283.29062 
L 408.532004 283.284823 
L 409.532004 283.282341 
L 410.532004 283.285398 
L 411.532004 283.296994 
L 412.532004 283.313914 
L 413.532004 283.345575 
L 414.532004 283.359659 
L 415.532004 283.41233 
L 416.532004 283.461419 
L 417.532004 283.51612 
L 418.532004 283.560468 
L 419.532004 283.63046 
L 420.532004 283.680843 
L 421.532004 283.73475 
L 422.532004 283.804189 
L 423.532004 283.861577 
L 425.434666 283.911742 
" clip-path="url(#p6cb4588a96)" style="fill: none; stroke: #ffffff; stroke-width: 3; stroke-linecap: round"/>
          <path d="M 157.532004 284.282276 
L 158.532004 284.313713 
L 159.532004 284.350653 
L 160.532004 284.4484 
L 161.532004 284.480921 
L 162.532004 284.554546 
L 163.532004 284.593111 
L 164.532004 284.628525 
L 165.532004 284.686164 
L 166.532004 284.756551 
L 167.532004 284.808515 
L 168.532004 284.867605 
L 169.532004 284.955926 
L 170.532004 285.00207 
L 171.532004 285.044481 
L 172.532004 285.074974 
L 173.532004 285.101018 
L 174.532004 285.122219 
L 175.532004 285.17652 
L 176.532004 285.204457 
L 177.532004 285.234181 
L 178.532004 285.259576 
L 179.532004 285.270776 
L 180.532004 285.2809 
L 181.532004 285.280696 
L 182.532004 285.271186 
L 183.532004 285.259533 
L 184.532004 285.228503 
L 185.532004 285.217335 
L 186.532004 285.187218 
L 187.532004 285.127441 
L 188.532004 285.090249 
L 189.532004 285.051153 
L 190.532004 285.008714 
L 191.532004 284.975949 
L 192.532004 284.908522 
L 193.532004 284.869396 
L 194.532004 284.826722 
L 195.532004 284.756141 
L 196.532004 284.71975 
L 197.532004 284.661347 
L 198.532004 284.550394 
L 199.532004 284.479736 
L 200.532004 284.366796 
L 201.532004 284.321023 
L 202.532004 284.25974 
L 203.532004 284.211241 
L 204.532004 284.130418 
L 205.532004 284.011899 
L 206.532004 283.941689 
L 207.532004 283.858426 
L 208.532004 283.825284 
L 209.532004 283.774047 
L 210.532004 283.705649 
L 211.532004 283.639433 
L 212.532004 283.562516 
L 213.532004 283.535201 
L 214.532004 283.508723 
L 215.532004 283.486073 
L 216.532004 283.466541 
L 217.532004 283.440147 
L 218.532004 283.390376 
L 219.532004 283.355303 
L 220.532004 283.319438 
L 221.532004 283.30407 
L 222.532004 283.288301 
L 223.532004 283.284889 
L 224.532004 283.282471 
L 225.532004 283.282957 
L 226.532004 283.284886 
L 227.532004 283.298143 
L 228.532004 283.306534 
L 229.532004 283.328071 
L 230.532004 283.351103 
L 231.532004 283.368337 
L 232.532004 283.386799 
L 233.532004 283.407252 
L 234.532004 283.423851 
L 235.532004 283.48663 
L 236.532004 283.561895 
L 237.532004 283.594534 
L 238.532004 283.662098 
L 239.532004 283.716145 
L 240.532004 283.749849 
L 241.532004 283.839975 
L 242.532004 283.86851 
L 243.532004 283.899996 
L 244.532004 283.931007 
L 245.532004 283.985815 
L 246.532004 284.050403 
L 247.532004 284.088598 
L 248.532004 284.184532 
L 249.532004 284.23379 
L 250.532004 284.27786 
L 251.532004 284.317983 
L 252.532004 284.42635 
L 253.532004 284.467978 
L 254.532004 284.53012 
L 255.532004 284.600082 
L 256.532004 284.704587 
L 257.532004 284.741574 
L 258.532004 284.787451 
L 259.532004 284.855946 
L 260.532004 284.904692 
L 261.532004 284.982289 
L 262.532004 285.01283 
L 263.532004 285.082344 
L 264.532004 285.106317 
L 265.532004 285.134939 
L 266.532004 285.176732 
L 267.532004 285.198308 
L 268.532004 285.212256 
L 269.532004 285.238979 
L 270.532004 285.248288 
L 271.532004 285.260735 
L 272.532004 285.27179 
L 273.532004 285.277454 
L 274.532004 285.282218 
L 275.532004 285.276671 
L 276.532004 285.263383 
L 277.532004 285.255865 
L 278.532004 285.23108 
L 279.532004 285.207512 
L 280.532004 285.171331 
L 281.532004 285.145369 
L 282.532004 285.123048 
L 283.532004 285.054287 
L 284.532004 284.979752 
L 285.532004 284.885773 
L 286.532004 284.834721 
L 287.532004 284.780787 
L 288.532004 284.745536 
L 289.532004 284.639448 
L 290.532004 284.587184 
L 291.532004 284.550277 
L 292.532004 284.519247 
L 293.532004 284.458091 
L 294.532004 284.390671 
L 295.532004 284.341765 
L 296.532004 284.276573 
L 297.532004 284.238385 
L 298.532004 284.19639 
L 299.532004 284.154372 
L 300.532004 284.094856 
L 301.532004 283.981696 
L 302.532004 283.929445 
L 303.532004 283.890027 
L 304.532004 283.842926 
L 305.532004 283.786147 
L 306.532004 283.753483 
L 307.532004 283.717306 
L 308.532004 283.685215 
L 309.532004 283.650935 
L 310.532004 283.592557 
L 311.532004 283.547372 
L 312.532004 283.517748 
L 313.532004 283.467363 
L 314.532004 283.442165 
L 315.532004 283.421114 
L 316.532004 283.386146 
L 317.532004 283.361856 
L 318.532004 283.347789 
L 319.532004 283.328847 
L 320.532004 283.313186 
L 321.532004 283.300634 
L 322.532004 283.294798 
L 323.532004 283.287916 
L 324.532004 283.282742 
L 325.532004 283.284525 
L 326.532004 283.287251 
L 327.532004 283.298404 
L 328.532004 283.326639 
L 329.532004 283.370427 
L 330.532004 283.391116 
L 331.532004 283.43209 
L 332.532004 283.472164 
L 333.532004 283.491274 
L 334.532004 283.513783 
L 335.532004 283.580435 
L 336.532004 283.630144 
L 337.532004 283.703851 
L 338.532004 283.735164 
L 339.532004 283.811786 
L 340.532004 283.850084 
L 341.532004 283.924201 
L 342.532004 284.028259 
L 343.532004 284.09809 
L 344.532004 284.203324 
L 345.532004 284.258339 
L 346.532004 284.381814 
L 347.532004 284.452373 
L 348.532004 284.568213 
L 349.532004 284.618393 
L 350.532004 284.653997 
L 351.532004 284.745404 
L 352.532004 284.798912 
L 353.532004 284.88682 
L 354.532004 284.956005 
L 355.532004 285.002769 
L 356.532004 285.074813 
L 357.532004 285.124955 
L 358.532004 285.142345 
L 359.532004 285.169348 
L 360.532004 285.188776 
L 361.532004 285.208114 
L 362.532004 285.246362 
L 363.532004 285.262795 
L 364.532004 285.271164 
L 365.532004 285.275483 
L 366.532004 285.282038 
L 367.532004 285.279492 
L 368.532004 285.274034 
L 369.532004 285.257605 
L 370.532004 285.22567 
L 371.532004 285.18769 
L 372.532004 285.152886 
L 373.532004 285.089814 
L 374.532004 285.068388 
L 375.532004 285.01777 
L 376.532004 284.992812 
L 377.532004 284.937179 
L 378.532004 284.90595 
L 379.532004 284.855805 
L 380.532004 284.823312 
L 381.532004 284.7429 
L 382.532004 284.673974 
L 383.532004 284.558277 
L 384.532004 284.482798 
L 385.532004 284.367273 
L 386.532004 284.287789 
L 387.532004 284.179348 
L 388.532004 284.13998 
L 389.532004 284.037113 
L 390.532004 283.937315 
L 391.532004 283.891817 
L 392.532004 283.857495 
L 393.532004 283.805539 
L 394.532004 283.765892 
L 395.532004 283.730378 
L 396.532004 283.662733 
L 397.532004 283.623652 
L 398.532004 283.57317 
L 399.532004 283.523864 
L 400.532004 283.472795 
L 401.532004 283.428555 
L 402.532004 283.406535 
L 403.532004 283.390979 
L 404.532004 283.348532 
L 405.532004 283.333664 
L 406.532004 283.310937 
L 407.532004 283.29062 
L 408.532004 283.284823 
L 409.532004 283.282341 
L 410.532004 283.285398 
L 411.532004 283.296994 
L 412.532004 283.313914 
L 413.532004 283.345575 
L 414.532004 283.359659 
L 415.532004 283.41233 
L 416.532004 283.461419 
L 417.532004 283.51612 
L 418.532004 283.560468 
L 419.532004 283.63046 
L 420.532004 283.680843 
L 421.532004 283.73475 
L 422.532004 283.804189 
L 423.532004 283.861577 
L 425.434666 283.911742 
" clip-path="url(#p6cb4588a96)" style="fill: none; stroke: #ff7f0e; stroke-linecap: round"/>
          <path d="M 421.434666 282.282276 
L 422.315035 282.757607 
L 423.192942 283.237861 
L 424.043655 283.772502 
L 425.345829 284.45995 
L 424.418476 284.485964 
L 423.506802 284.898684 
L 422.596538 285.314223 
L 421.254042 285.921027 
L 421.908941 285.282276 
L 421.960905 284.282276 
L 422.019995 282.282276 
z
" clip-path="url(#p6cb4588a96)" style="fill: #ffffff; stroke: #ffffff; stroke-width: 3; stroke-linecap: round"/>
          <path d="M 421.434666 282.282276 
L 422.315035 282.757607 
L 423.192942 283.237861 
L 424.043655 283.772502 
L 425.345829 284.45995 
L 424.418476 284.485964 
L 423.506802 284.898684 
L 422.596538 285.314223 
L 421.254042 285.921027 
L 421.908941 285.282276 
L 421.960905 284.282276 
L 422.019995 282.282276 
z
" clip-path="url(#p6cb4588a96)" style="fill: #ffffff; stroke: #ff7f0e; stroke-linecap: round"/>
          <path d="M 461.584868 307.481496 
" clip-path="url(#p6cb4588a96)" style="fill: none; stroke-dasharray: 3.7,1.6; stroke-dashoffset: 0; stroke: #2ca02c"/>
          <path d="M 460.584868 307.481496 
L 462.584868 308.481496 
L 462.584868 306.481496 
z
" clip-path="url(#p6cb4588a96)" style="fill: #2ca02c; stroke: #2ca02c; stroke-linejoin: miter"/>
          <g id="patch_10">
           <path d="M 63.290625 321.621875 
L 63.290625 12.793128 
" style="fill: none; stroke: #000000; stroke-width: 0.8; stroke-linejoin: miter; stroke-linecap: square"/>
          </g>
          <g id="text_12">
           <g id="patch_11">
            <path d="M 303.442881 115.792905 
L 324.747568 115.792905 
Q 326.747568 115.792905 326.747568 113.792905 
L 326.747568 104.11478 
Q 326.747568 102.11478 324.747568 102.11478 
L 303.442881 102.11478 
Q 301.442881 102.11478 301.442881 104.11478 
L 301.442881 113.792905 
Q 301.442881 115.792905 303.442881 115.792905 
z
" style="fill: #ffffff; opacity: 0.6"/>
           </g>
           <!-- ANC -->
           <g transform="translate(303.442881 111.713217) scale(0.1 -0.1)">
            <defs>
             <path id="DejaVuSans-4e" d="M 628 4666 
L 1478 4666 
L 3547 763 
L 3547 4666 
L 4159 4666 
L 4159 0 
L 3309 0 
L 1241 3903 
L 1241 0 
L 628 0 
L 628 4666 
z
" transform="scale(0.015625)"/>
            </defs>
            <use xlink:href="#DejaVuSans-41"/>
            <use xlink:href="#DejaVuSans-4e" x="68.408203"/>
            <use xlink:href="#DejaVuSans-43" x="143.212891"/>
           </g>
          </g>
         </g>
        </g>
        <defs>
         <clipPath id="p6cb4588a96">
          <rect x="63.290625" y="12.793128" width="540.309375" height="308.828747"/>
         </clipPath>
        </defs>
       </g>
      </g>
     </g>
    </g>
   </g>
  </g>
 </g>
</svg>
