<?xml version="1.0" encoding="utf-8" standalone="no"?>
<!DOCTYPE svg PUBLIC "-//W3C//DTD SVG 1.1//EN"
  "http://www.w3.org/Graphics/SVG/1.1/DTD/svg11.dtd">
<svg xmlns:xlink="http://www.w3.org/1999/xlink" width="614.4pt" height="345.6pt" viewBox="0 0 614.4 345.6" xmlns="http://www.w3.org/2000/svg" version="1.1">
 <metadata>
  <rdf:RDF xmlns:dc="http://purl.org/dc/elements/1.1/" xmlns:cc="http://creativecommons.org/ns#" xmlns:rdf="http://www.w3.org/1999/02/22-rdf-syntax-ns#">
   <cc:Work>
    <dc:type rdf:resource="http://purl.org/dc/dcmitype/StillImage"/>
    <dc:date>2024-04-17T19:48:55.148478</dc:date>
    <dc:format>image/svg+xml</dc:format>
    <dc:creator>
     <cc:Agent>
      <dc:title>Matplotlib v3.7.1, https://matplotlib.org/</dc:title>
     </cc:Agent>
    </dc:creator>
   </cc:Work>
  </rdf:RDF>
 </metadata>
 <defs>
  <style type="text/css">*{stroke-linejoin: round; stroke-linecap: butt}</style>
 </defs>
 <g id="figure_1">
  <g id="patch_1">
   <path d="M 0 345.6 
L 614.4 345.6 
L 614.4 0 
L 0 0 
z
" style="fill: #ffffff"/>
  </g>
  <g id="axes_1">
   <g id="patch_2">
    <path d="M 63.290625 321.621875 
L 603.6 321.621875 
L 603.6 10.8 
L 63.290625 10.8 
z
" style="fill: #ffffff"/>
   </g>
   <path d="M 559.601179 298.28008 
L 558.601179 298.248643 
L 557.601179 298.211703 
L 556.601179 298.113956 
L 555.601179 298.081435 
L 554.601179 298.00781 
L 553.601179 297.969244 
L 552.601179 297.933831 
L 551.601179 297.876191 
L 550.601179 297.805805 
L 549.601179 297.753841 
L 548.601179 297.694751 
L 547.601179 297.60643 
L 546.601179 297.560286 
L 545.601179 297.517875 
L 544.601179 297.487382 
L 543.601179 297.461337 
L 542.601179 297.440137 
L 541.601179 297.385836 
L 540.601179 297.357899 
L 539.601179 297.328175 
L 538.601179 297.30278 
L 537.601179 297.291579 
L 536.601179 297.281455 
L 535.601179 297.28166 
L 534.601179 297.29117 
L 533.601179 297.302823 
L 532.601179 297.333853 
L 531.601179 297.34502 
L 530.601179 297.375138 
L 529.601179 297.434915 
L 528.601179 297.472106 
L 527.601179 297.511203 
L 526.601179 297.553642 
L 525.601179 297.586407 
L 524.601179 297.653834 
L 523.601179 297.69296 
L 522.601179 297.735634 
L 521.601179 297.806215 
L 520.601179 297.842606 
L 519.601179 297.901009 
L 518.601179 298.011961 
L 517.601179 298.08262 
L 516.601179 298.19556 
L 515.601179 298.241332 
L 514.601179 298.302616 
L 513.601179 298.351115 
L 512.601179 298.431938 
L 511.601179 298.550457 
L 510.601179 298.620667 
L 509.601179 298.70393 
L 508.601179 298.737072 
L 507.601179 298.788309 
L 506.601179 298.856707 
L 505.601179 298.922923 
L 504.601179 298.99984 
L 503.601179 299.027155 
L 502.601179 299.053633 
L 501.601179 299.076283 
L 500.601179 299.095815 
L 499.601179 299.122209 
L 498.601179 299.171979 
L 497.601179 299.207053 
L 496.601179 299.242918 
L 495.601179 299.258286 
L 494.601179 299.274055 
L 493.601179 299.277467 
L 492.601179 299.279885 
L 491.601179 299.279399 
L 490.601179 299.27747 
L 489.601179 299.264213 
L 488.601179 299.255822 
L 487.601179 299.234285 
L 486.601179 299.211253 
L 485.601179 299.194019 
L 484.601179 299.175557 
L 483.601179 299.155104 
L 482.601179 299.138504 
L 481.601179 299.075726 
L 480.601179 299.000461 
L 479.601179 298.967822 
L 478.601179 298.900258 
L 476.679808 298.846211 
" clip-path="url(#pe05c4a0c95)" style="fill: none; stroke-dasharray: 3.7,1.6; stroke-dashoffset: 0; stroke: #2ca02c"/>
   <g id="patch_3">
    <path d="M 286.376229 10.8 
L 286.376229 202.616984 
M 384.221767 10.8 
L 384.221767 202.616984 
" clip-path="url(#pe05c4a0c95)" style="fill: none; stroke: #ffffff; stroke-width: 3; stroke-linejoin: miter"/>
    <path d="M 286.376229 10.8 
L 286.376229 202.616984 
M 384.221767 10.8 
L 384.221767 202.616984 
" clip-path="url(#pe05c4a0c95)" style="fill: none; stroke: #1f77b4; stroke-linejoin: miter"/>
    <g id="PolyCollection_1">
     <path d="M 384.221767 10.8 
L 286.376229 10.8 
L 286.376229 202.616984 
L 384.221767 202.616984 
L 384.221767 202.616984 
L 384.221767 10.8 
z
" clip-path="url(#pe05c4a0c95)" style="fill: #1f77b4; fill-opacity: 0.5"/>
    </g>
    <g id="patch_4">
     <path d="M 87.850142 202.616984 
L 87.850142 321.621875 
M 227.662784 202.616984 
L 227.662784 321.621875 
" clip-path="url(#pe05c4a0c95)" style="fill: none; stroke: #ffffff; stroke-width: 3; stroke-linejoin: miter"/>
     <path d="M 87.850142 202.616984 
L 87.850142 321.621875 
M 227.662784 202.616984 
L 227.662784 321.621875 
" clip-path="url(#pe05c4a0c95)" style="fill: none; stroke: #ff7f0e; stroke-linejoin: miter"/>
     <g id="PolyCollection_2">
      <path d="M 227.662784 202.616984 
L 87.850142 202.616984 
L 87.850142 321.621875 
L 227.662784 321.621875 
L 227.662784 321.621875 
L 227.662784 202.616984 
z
" clip-path="url(#pe05c4a0c95)" style="fill: #ff7f0e; fill-opacity: 0.5"/>
     </g>
     <g id="patch_5">
      <path d="M 565.004273 72.964375 
L 565.004273 321.621875 
M 579.040483 72.964375 
L 579.040483 321.621875 
" clip-path="url(#pe05c4a0c95)" style="fill: none; stroke: #ffffff; stroke-width: 3; stroke-linejoin: miter"/>
      <path d="M 565.004273 72.964375 
L 565.004273 321.621875 
M 579.040483 72.964375 
L 579.040483 321.621875 
" clip-path="url(#pe05c4a0c95)" style="fill: none; stroke: #2ca02c; stroke-linejoin: miter"/>
      <g id="PolyCollection_3">
       <path d="M 579.040483 72.964375 
L 565.004273 72.964375 
L 565.004273 321.621875 
L 579.040483 321.621875 
L 579.040483 321.621875 
L 579.040483 72.964375 
z
" clip-path="url(#pe05c4a0c95)" style="fill: #2ca02c; fill-opacity: 0.5"/>
      </g>
      <g id="patch_6">
       <path d="M 436.044661 279.54675 
L 436.044661 321.621875 
M 471.276714 279.54675 
L 471.276714 321.621875 
" clip-path="url(#pe05c4a0c95)" style="fill: none; stroke: #ffffff; stroke-width: 3; stroke-linejoin: miter"/>
       <path d="M 436.044661 279.54675 
L 436.044661 321.621875 
M 471.276714 279.54675 
L 471.276714 321.621875 
" clip-path="url(#pe05c4a0c95)" style="fill: none; stroke: #d62728; stroke-linejoin: miter"/>
       <g id="PolyCollection_4">
        <path d="M 471.276714 279.54675 
L 436.044661 279.54675 
L 436.044661 321.621875 
L 471.276714 321.621875 
L 471.276714 321.621875 
L 471.276714 279.54675 
z
" clip-path="url(#pe05c4a0c95)" style="fill: #d62728; fill-opacity: 0.5"/>
       </g>
       <g id="matplotlib.axis_1">
        <g id="xtick_1">
         <g id="line2d_1"/>
         <g id="text_1">
          <!-- OUT -->
          <g transform="translate(147.107244 332.720312) scale(0.1 -0.1)">
           <defs>
            <path id="DejaVuSans-4f" d="M 2522 4238 
Q 1834 4238 1429 3725 
Q 1025 3213 1025 2328 
Q 1025 1447 1429 934 
Q 1834 422 2522 422 
Q 3209 422 3611 934 
Q 4013 1447 4013 2328 
Q 4013 3213 3611 3725 
Q 3209 4238 2522 4238 
z
M 2522 4750 
Q 3503 4750 4090 4092 
Q 4678 3434 4678 2328 
Q 4678 1225 4090 567 
Q 3503 -91 2522 -91 
Q 1538 -91 948 565 
Q 359 1222 359 2328 
Q 359 3434 948 4092 
Q 1538 4750 2522 4750 
z
" transform="scale(0.015625)"/>
            <path id="DejaVuSans-55" d="M 556 4666 
L 1191 4666 
L 1191 1831 
Q 1191 1081 1462 751 
Q 1734 422 2344 422 
Q 2950 422 3222 751 
Q 3494 1081 3494 1831 
L 3494 4666 
L 4128 4666 
L 4128 1753 
Q 4128 841 3676 375 
Q 3225 -91 2344 -91 
Q 1459 -91 1007 375 
Q 556 841 556 1753 
L 556 4666 
z
" transform="scale(0.015625)"/>
            <path id="DejaVuSans-54" d="M -19 4666 
L 3928 4666 
L 3928 4134 
L 2272 4134 
L 2272 0 
L 1638 0 
L 1638 4134 
L -19 4134 
L -19 4666 
z
" transform="scale(0.015625)"/>
           </defs>
           <use xlink:href="#DejaVuSans-4f"/>
           <use xlink:href="#DejaVuSans-55" x="78.710938"/>
           <use xlink:href="#DejaVuSans-54" x="151.904297"/>
          </g>
         </g>
        </g>
        <g id="xtick_2">
         <g id="line2d_2"/>
         <g id="text_2">
          <!-- SRC -->
          <g transform="translate(562.132534 332.720312) scale(0.1 -0.1)">
           <defs>
            <path id="DejaVuSans-53" d="M 3425 4513 
L 3425 3897 
Q 3066 4069 2747 4153 
Q 2428 4238 2131 4238 
Q 1616 4238 1336 4038 
Q 1056 3838 1056 3469 
Q 1056 3159 1242 3001 
Q 1428 2844 1947 2747 
L 2328 2669 
Q 3034 2534 3370 2195 
Q 3706 1856 3706 1288 
Q 3706 609 3251 259 
Q 2797 -91 1919 -91 
Q 1588 -91 1214 -16 
Q 841 59 441 206 
L 441 856 
Q 825 641 1194 531 
Q 1563 422 1919 422 
Q 2459 422 2753 634 
Q 3047 847 3047 1241 
Q 3047 1584 2836 1778 
Q 2625 1972 2144 2069 
L 1759 2144 
Q 1053 2284 737 2584 
Q 422 2884 422 3419 
Q 422 4038 858 4394 
Q 1294 4750 2059 4750 
Q 2388 4750 2728 4690 
Q 3069 4631 3425 4513 
z
" transform="scale(0.015625)"/>
            <path id="DejaVuSans-52" d="M 2841 2188 
Q 3044 2119 3236 1894 
Q 3428 1669 3622 1275 
L 4263 0 
L 3584 0 
L 2988 1197 
Q 2756 1666 2539 1819 
Q 2322 1972 1947 1972 
L 1259 1972 
L 1259 0 
L 628 0 
L 628 4666 
L 2053 4666 
Q 2853 4666 3247 4331 
Q 3641 3997 3641 3322 
Q 3641 2881 3436 2590 
Q 3231 2300 2841 2188 
z
M 1259 4147 
L 1259 2491 
L 2053 2491 
Q 2509 2491 2742 2702 
Q 2975 2913 2975 3322 
Q 2975 3731 2742 3939 
Q 2509 4147 2053 4147 
L 1259 4147 
z
" transform="scale(0.015625)"/>
            <path id="DejaVuSans-43" d="M 4122 4306 
L 4122 3641 
Q 3803 3938 3442 4084 
Q 3081 4231 2675 4231 
Q 1875 4231 1450 3742 
Q 1025 3253 1025 2328 
Q 1025 1406 1450 917 
Q 1875 428 2675 428 
Q 3081 428 3442 575 
Q 3803 722 4122 1019 
L 4122 359 
Q 3791 134 3420 21 
Q 3050 -91 2638 -91 
Q 1578 -91 968 557 
Q 359 1206 359 2328 
Q 359 3453 968 4101 
Q 1578 4750 2638 4750 
Q 3056 4750 3426 4639 
Q 3797 4528 4122 4306 
z
" transform="scale(0.015625)"/>
           </defs>
           <use xlink:href="#DejaVuSans-53"/>
           <use xlink:href="#DejaVuSans-52" x="63.476562"/>
           <use xlink:href="#DejaVuSans-43" x="127.958984"/>
          </g>
         </g>
        </g>
        <g id="xtick_3">
         <g id="line2d_3"/>
         <g id="text_3">
          <!-- TAR -->
          <g transform="translate(444.09975 332.720312) scale(0.1 -0.1)">
           <defs>
            <path id="DejaVuSans-41" d="M 2188 4044 
L 1331 1722 
L 3047 1722 
L 2188 4044 
z
M 1831 4666 
L 2547 4666 
L 4325 0 
L 3669 0 
L 3244 1197 
L 1141 1197 
L 716 0 
L 50 0 
L 1831 4666 
z
" transform="scale(0.015625)"/>
           </defs>
           <use xlink:href="#DejaVuSans-54"/>
           <use xlink:href="#DejaVuSans-41" x="53.333984"/>
           <use xlink:href="#DejaVuSans-52" x="121.742188"/>
          </g>
         </g>
        </g>
       </g>
       <g id="matplotlib.axis_2">
        <g id="ytick_1">
         <g id="line2d_4">
          <defs>
           <path id="m5e53165557" d="M 0 0 
L -3.5 0 
" style="stroke: #000000; stroke-width: 0.8"/>
          </defs>
          <g>
           <use xlink:href="#m5e53165557" x="63.290625" y="321.621875" style="stroke: #000000; stroke-width: 0.8"/>
          </g>
         </g>
         <g id="text_4">
          <!-- 0 -->
          <g transform="translate(49.928125 325.421094) scale(0.1 -0.1)">
           <defs>
            <path id="DejaVuSans-30" d="M 2034 4250 
Q 1547 4250 1301 3770 
Q 1056 3291 1056 2328 
Q 1056 1369 1301 889 
Q 1547 409 2034 409 
Q 2525 409 2770 889 
Q 3016 1369 3016 2328 
Q 3016 3291 2770 3770 
Q 2525 4250 2034 4250 
z
M 2034 4750 
Q 2819 4750 3233 4129 
Q 3647 3509 3647 2328 
Q 3647 1150 3233 529 
Q 2819 -91 2034 -91 
Q 1250 -91 836 529 
Q 422 1150 422 2328 
Q 422 3509 836 4129 
Q 1250 4750 2034 4750 
z
" transform="scale(0.015625)"/>
           </defs>
           <use xlink:href="#DejaVuSans-30"/>
          </g>
         </g>
        </g>
        <g id="ytick_2">
         <g id="line2d_5">
          <g>
           <use xlink:href="#m5e53165557" x="63.290625" y="280.029225" style="stroke: #000000; stroke-width: 0.8"/>
          </g>
         </g>
         <g id="text_5">
          <!-- 2500 -->
          <g transform="translate(30.840625 283.828444) scale(0.1 -0.1)">
           <defs>
            <path id="DejaVuSans-32" d="M 1228 531 
L 3431 531 
L 3431 0 
L 469 0 
L 469 531 
Q 828 903 1448 1529 
Q 2069 2156 2228 2338 
Q 2531 2678 2651 2914 
Q 2772 3150 2772 3378 
Q 2772 3750 2511 3984 
Q 2250 4219 1831 4219 
Q 1534 4219 1204 4116 
Q 875 4013 500 3803 
L 500 4441 
Q 881 4594 1212 4672 
Q 1544 4750 1819 4750 
Q 2544 4750 2975 4387 
Q 3406 4025 3406 3419 
Q 3406 3131 3298 2873 
Q 3191 2616 2906 2266 
Q 2828 2175 2409 1742 
Q 1991 1309 1228 531 
z
" transform="scale(0.015625)"/>
            <path id="DejaVuSans-35" d="M 691 4666 
L 3169 4666 
L 3169 4134 
L 1269 4134 
L 1269 2991 
Q 1406 3038 1543 3061 
Q 1681 3084 1819 3084 
Q 2600 3084 3056 2656 
Q 3513 2228 3513 1497 
Q 3513 744 3044 326 
Q 2575 -91 1722 -91 
Q 1428 -91 1123 -41 
Q 819 9 494 109 
L 494 744 
Q 775 591 1075 516 
Q 1375 441 1709 441 
Q 2250 441 2565 725 
Q 2881 1009 2881 1497 
Q 2881 1984 2565 2268 
Q 2250 2553 1709 2553 
Q 1456 2553 1204 2497 
Q 953 2441 691 2322 
L 691 4666 
z
" transform="scale(0.015625)"/>
           </defs>
           <use xlink:href="#DejaVuSans-32"/>
           <use xlink:href="#DejaVuSans-35" x="63.623047"/>
           <use xlink:href="#DejaVuSans-30" x="127.246094"/>
           <use xlink:href="#DejaVuSans-30" x="190.869141"/>
          </g>
         </g>
        </g>
        <g id="ytick_3">
         <g id="line2d_6">
          <g>
           <use xlink:href="#m5e53165557" x="63.290625" y="238.436575" style="stroke: #000000; stroke-width: 0.8"/>
          </g>
         </g>
         <g id="text_6">
          <!-- 5000 -->
          <g transform="translate(30.840625 242.235793) scale(0.1 -0.1)">
           <use xlink:href="#DejaVuSans-35"/>
           <use xlink:href="#DejaVuSans-30" x="63.623047"/>
           <use xlink:href="#DejaVuSans-30" x="127.246094"/>
           <use xlink:href="#DejaVuSans-30" x="190.869141"/>
          </g>
         </g>
        </g>
        <g id="ytick_4">
         <g id="line2d_7">
          <g>
           <use xlink:href="#m5e53165557" x="63.290625" y="196.843924" style="stroke: #000000; stroke-width: 0.8"/>
          </g>
         </g>
         <g id="text_7">
          <!-- 7500 -->
          <g transform="translate(30.840625 200.643143) scale(0.1 -0.1)">
           <defs>
            <path id="DejaVuSans-37" d="M 525 4666 
L 3525 4666 
L 3525 4397 
L 1831 0 
L 1172 0 
L 2766 4134 
L 525 4134 
L 525 4666 
z
" transform="scale(0.015625)"/>
           </defs>
           <use xlink:href="#DejaVuSans-37"/>
           <use xlink:href="#DejaVuSans-35" x="63.623047"/>
           <use xlink:href="#DejaVuSans-30" x="127.246094"/>
           <use xlink:href="#DejaVuSans-30" x="190.869141"/>
          </g>
         </g>
        </g>
        <g id="ytick_5">
         <g id="line2d_8">
          <g>
           <use xlink:href="#m5e53165557" x="63.290625" y="155.251274" style="stroke: #000000; stroke-width: 0.8"/>
          </g>
         </g>
         <g id="text_8">
          <!-- 10000 -->
          <g transform="translate(24.478125 159.050493) scale(0.1 -0.1)">
           <defs>
            <path id="DejaVuSans-31" d="M 794 531 
L 1825 531 
L 1825 4091 
L 703 3866 
L 703 4441 
L 1819 4666 
L 2450 4666 
L 2450 531 
L 3481 531 
L 3481 0 
L 794 0 
L 794 531 
z
" transform="scale(0.015625)"/>
           </defs>
           <use xlink:href="#DejaVuSans-31"/>
           <use xlink:href="#DejaVuSans-30" x="63.623047"/>
           <use xlink:href="#DejaVuSans-30" x="127.246094"/>
           <use xlink:href="#DejaVuSans-30" x="190.869141"/>
           <use xlink:href="#DejaVuSans-30" x="254.492188"/>
          </g>
         </g>
        </g>
        <g id="ytick_6">
         <g id="line2d_9">
          <g>
           <use xlink:href="#m5e53165557" x="63.290625" y="113.658624" style="stroke: #000000; stroke-width: 0.8"/>
          </g>
         </g>
         <g id="text_9">
          <!-- 12500 -->
          <g transform="translate(24.478125 117.457843) scale(0.1 -0.1)">
           <use xlink:href="#DejaVuSans-31"/>
           <use xlink:href="#DejaVuSans-32" x="63.623047"/>
           <use xlink:href="#DejaVuSans-35" x="127.246094"/>
           <use xlink:href="#DejaVuSans-30" x="190.869141"/>
           <use xlink:href="#DejaVuSans-30" x="254.492188"/>
          </g>
         </g>
        </g>
        <g id="ytick_7">
         <g id="line2d_10">
          <g>
           <use xlink:href="#m5e53165557" x="63.290625" y="72.065974" style="stroke: #000000; stroke-width: 0.8"/>
          </g>
         </g>
         <g id="text_10">
          <!-- 15000 -->
          <g transform="translate(24.478125 75.865193) scale(0.1 -0.1)">
           <use xlink:href="#DejaVuSans-31"/>
           <use xlink:href="#DejaVuSans-35" x="63.623047"/>
           <use xlink:href="#DejaVuSans-30" x="127.246094"/>
           <use xlink:href="#DejaVuSans-30" x="190.869141"/>
           <use xlink:href="#DejaVuSans-30" x="254.492188"/>
          </g>
         </g>
        </g>
        <g id="ytick_8">
         <g id="line2d_11">
          <g>
           <use xlink:href="#m5e53165557" x="63.290625" y="30.473324" style="stroke: #000000; stroke-width: 0.8"/>
          </g>
         </g>
         <g id="text_11">
          <!-- 17500 -->
          <g transform="translate(24.478125 34.272542) scale(0.1 -0.1)">
           <use xlink:href="#DejaVuSans-31"/>
           <use xlink:href="#DejaVuSans-37" x="63.623047"/>
           <use xlink:href="#DejaVuSans-35" x="127.246094"/>
           <use xlink:href="#DejaVuSans-30" x="190.869141"/>
           <use xlink:href="#DejaVuSans-30" x="254.492188"/>
          </g>
         </g>
        </g>
        <g id="text_12">
         <!-- time ago (generations) -->
         <g transform="translate(18.398438 223.682031) rotate(-90) scale(0.1 -0.1)">
          <defs>
           <path id="DejaVuSans-74" d="M 1172 4494 
L 1172 3500 
L 2356 3500 
L 2356 3053 
L 1172 3053 
L 1172 1153 
Q 1172 725 1289 603 
Q 1406 481 1766 481 
L 2356 481 
L 2356 0 
L 1766 0 
Q 1100 0 847 248 
Q 594 497 594 1153 
L 594 3053 
L 172 3053 
L 172 3500 
L 594 3500 
L 594 4494 
L 1172 4494 
z
" transform="scale(0.015625)"/>
           <path id="DejaVuSans-69" d="M 603 3500 
L 1178 3500 
L 1178 0 
L 603 0 
L 603 3500 
z
M 603 4863 
L 1178 4863 
L 1178 4134 
L 603 4134 
L 603 4863 
z
" transform="scale(0.015625)"/>
           <path id="DejaVuSans-6d" d="M 3328 2828 
Q 3544 3216 3844 3400 
Q 4144 3584 4550 3584 
Q 5097 3584 5394 3201 
Q 5691 2819 5691 2113 
L 5691 0 
L 5113 0 
L 5113 2094 
Q 5113 2597 4934 2840 
Q 4756 3084 4391 3084 
Q 3944 3084 3684 2787 
Q 3425 2491 3425 1978 
L 3425 0 
L 2847 0 
L 2847 2094 
Q 2847 2600 2669 2842 
Q 2491 3084 2119 3084 
Q 1678 3084 1418 2786 
Q 1159 2488 1159 1978 
L 1159 0 
L 581 0 
L 581 3500 
L 1159 3500 
L 1159 2956 
Q 1356 3278 1631 3431 
Q 1906 3584 2284 3584 
Q 2666 3584 2933 3390 
Q 3200 3197 3328 2828 
z
" transform="scale(0.015625)"/>
           <path id="DejaVuSans-65" d="M 3597 1894 
L 3597 1613 
L 953 1613 
Q 991 1019 1311 708 
Q 1631 397 2203 397 
Q 2534 397 2845 478 
Q 3156 559 3463 722 
L 3463 178 
Q 3153 47 2828 -22 
Q 2503 -91 2169 -91 
Q 1331 -91 842 396 
Q 353 884 353 1716 
Q 353 2575 817 3079 
Q 1281 3584 2069 3584 
Q 2775 3584 3186 3129 
Q 3597 2675 3597 1894 
z
M 3022 2063 
Q 3016 2534 2758 2815 
Q 2500 3097 2075 3097 
Q 1594 3097 1305 2825 
Q 1016 2553 972 2059 
L 3022 2063 
z
" transform="scale(0.015625)"/>
           <path id="DejaVuSans-20" transform="scale(0.015625)"/>
           <path id="DejaVuSans-61" d="M 2194 1759 
Q 1497 1759 1228 1600 
Q 959 1441 959 1056 
Q 959 750 1161 570 
Q 1363 391 1709 391 
Q 2188 391 2477 730 
Q 2766 1069 2766 1631 
L 2766 1759 
L 2194 1759 
z
M 3341 1997 
L 3341 0 
L 2766 0 
L 2766 531 
Q 2569 213 2275 61 
Q 1981 -91 1556 -91 
Q 1019 -91 701 211 
Q 384 513 384 1019 
Q 384 1609 779 1909 
Q 1175 2209 1959 2209 
L 2766 2209 
L 2766 2266 
Q 2766 2663 2505 2880 
Q 2244 3097 1772 3097 
Q 1472 3097 1187 3025 
Q 903 2953 641 2809 
L 641 3341 
Q 956 3463 1253 3523 
Q 1550 3584 1831 3584 
Q 2591 3584 2966 3190 
Q 3341 2797 3341 1997 
z
" transform="scale(0.015625)"/>
           <path id="DejaVuSans-67" d="M 2906 1791 
Q 2906 2416 2648 2759 
Q 2391 3103 1925 3103 
Q 1463 3103 1205 2759 
Q 947 2416 947 1791 
Q 947 1169 1205 825 
Q 1463 481 1925 481 
Q 2391 481 2648 825 
Q 2906 1169 2906 1791 
z
M 3481 434 
Q 3481 -459 3084 -895 
Q 2688 -1331 1869 -1331 
Q 1566 -1331 1297 -1286 
Q 1028 -1241 775 -1147 
L 775 -588 
Q 1028 -725 1275 -790 
Q 1522 -856 1778 -856 
Q 2344 -856 2625 -561 
Q 2906 -266 2906 331 
L 2906 616 
Q 2728 306 2450 153 
Q 2172 0 1784 0 
Q 1141 0 747 490 
Q 353 981 353 1791 
Q 353 2603 747 3093 
Q 1141 3584 1784 3584 
Q 2172 3584 2450 3431 
Q 2728 3278 2906 2969 
L 2906 3500 
L 3481 3500 
L 3481 434 
z
" transform="scale(0.015625)"/>
           <path id="DejaVuSans-6f" d="M 1959 3097 
Q 1497 3097 1228 2736 
Q 959 2375 959 1747 
Q 959 1119 1226 758 
Q 1494 397 1959 397 
Q 2419 397 2687 759 
Q 2956 1122 2956 1747 
Q 2956 2369 2687 2733 
Q 2419 3097 1959 3097 
z
M 1959 3584 
Q 2709 3584 3137 3096 
Q 3566 2609 3566 1747 
Q 3566 888 3137 398 
Q 2709 -91 1959 -91 
Q 1206 -91 779 398 
Q 353 888 353 1747 
Q 353 2609 779 3096 
Q 1206 3584 1959 3584 
z
" transform="scale(0.015625)"/>
           <path id="DejaVuSans-28" d="M 1984 4856 
Q 1566 4138 1362 3434 
Q 1159 2731 1159 2009 
Q 1159 1288 1364 580 
Q 1569 -128 1984 -844 
L 1484 -844 
Q 1016 -109 783 600 
Q 550 1309 550 2009 
Q 550 2706 781 3412 
Q 1013 4119 1484 4856 
L 1984 4856 
z
" transform="scale(0.015625)"/>
           <path id="DejaVuSans-6e" d="M 3513 2113 
L 3513 0 
L 2938 0 
L 2938 2094 
Q 2938 2591 2744 2837 
Q 2550 3084 2163 3084 
Q 1697 3084 1428 2787 
Q 1159 2491 1159 1978 
L 1159 0 
L 581 0 
L 581 3500 
L 1159 3500 
L 1159 2956 
Q 1366 3272 1645 3428 
Q 1925 3584 2291 3584 
Q 2894 3584 3203 3211 
Q 3513 2838 3513 2113 
z
" transform="scale(0.015625)"/>
           <path id="DejaVuSans-72" d="M 2631 2963 
Q 2534 3019 2420 3045 
Q 2306 3072 2169 3072 
Q 1681 3072 1420 2755 
Q 1159 2438 1159 1844 
L 1159 0 
L 581 0 
L 581 3500 
L 1159 3500 
L 1159 2956 
Q 1341 3275 1631 3429 
Q 1922 3584 2338 3584 
Q 2397 3584 2469 3576 
Q 2541 3569 2628 3553 
L 2631 2963 
z
" transform="scale(0.015625)"/>
           <path id="DejaVuSans-73" d="M 2834 3397 
L 2834 2853 
Q 2591 2978 2328 3040 
Q 2066 3103 1784 3103 
Q 1356 3103 1142 2972 
Q 928 2841 928 2578 
Q 928 2378 1081 2264 
Q 1234 2150 1697 2047 
L 1894 2003 
Q 2506 1872 2764 1633 
Q 3022 1394 3022 966 
Q 3022 478 2636 193 
Q 2250 -91 1575 -91 
Q 1294 -91 989 -36 
Q 684 19 347 128 
L 347 722 
Q 666 556 975 473 
Q 1284 391 1588 391 
Q 1994 391 2212 530 
Q 2431 669 2431 922 
Q 2431 1156 2273 1281 
Q 2116 1406 1581 1522 
L 1381 1569 
Q 847 1681 609 1914 
Q 372 2147 372 2553 
Q 372 3047 722 3315 
Q 1072 3584 1716 3584 
Q 2034 3584 2315 3537 
Q 2597 3491 2834 3397 
z
" transform="scale(0.015625)"/>
           <path id="DejaVuSans-29" d="M 513 4856 
L 1013 4856 
Q 1481 4119 1714 3412 
Q 1947 2706 1947 2009 
Q 1947 1309 1714 600 
Q 1481 -109 1013 -844 
L 513 -844 
Q 928 -128 1133 580 
Q 1338 1288 1338 2009 
Q 1338 2731 1133 3434 
Q 928 4138 513 4856 
z
" transform="scale(0.015625)"/>
          </defs>
          <use xlink:href="#DejaVuSans-74"/>
          <use xlink:href="#DejaVuSans-69" x="39.208984"/>
          <use xlink:href="#DejaVuSans-6d" x="66.992188"/>
          <use xlink:href="#DejaVuSans-65" x="164.404297"/>
          <use xlink:href="#DejaVuSans-20" x="225.927734"/>
          <use xlink:href="#DejaVuSans-61" x="257.714844"/>
          <use xlink:href="#DejaVuSans-67" x="318.994141"/>
          <use xlink:href="#DejaVuSans-6f" x="382.470703"/>
          <use xlink:href="#DejaVuSans-20" x="443.652344"/>
          <use xlink:href="#DejaVuSans-28" x="475.439453"/>
          <use xlink:href="#DejaVuSans-67" x="514.453125"/>
          <use xlink:href="#DejaVuSans-65" x="577.929688"/>
          <use xlink:href="#DejaVuSans-6e" x="639.453125"/>
          <use xlink:href="#DejaVuSans-65" x="702.832031"/>
          <use xlink:href="#DejaVuSans-72" x="764.355469"/>
          <use xlink:href="#DejaVuSans-61" x="805.46875"/>
          <use xlink:href="#DejaVuSans-74" x="866.748047"/>
          <use xlink:href="#DejaVuSans-69" x="905.957031"/>
          <use xlink:href="#DejaVuSans-6f" x="933.740234"/>
          <use xlink:href="#DejaVuSans-6e" x="994.921875"/>
          <use xlink:href="#DejaVuSans-73" x="1058.300781"/>
          <use xlink:href="#DejaVuSans-29" x="1110.400391"/>
         </g>
        </g>
       </g>
       <g id="patch_7">
        <path d="M 284.373005 202.616984 
L 283.373005 202.585548 
L 282.373005 202.548607 
L 281.373005 202.450861 
L 280.373005 202.418339 
L 279.373005 202.344715 
L 278.373005 202.306149 
L 277.373005 202.270736 
L 276.373005 202.213096 
L 275.373005 202.14271 
L 274.373005 202.090746 
L 273.373005 202.031656 
L 272.373005 201.943335 
L 271.373005 201.897191 
L 270.373005 201.85478 
L 269.373005 201.824287 
L 268.373005 201.798242 
L 267.373005 201.777042 
L 266.373005 201.722741 
L 265.373005 201.694803 
L 264.373005 201.665079 
L 263.373005 201.639684 
L 262.373005 201.628484 
L 261.373005 201.61836 
L 260.373005 201.618564 
L 259.373005 201.628074 
L 258.373005 201.639728 
L 257.373005 201.670757 
L 256.373005 201.681925 
L 255.373005 201.712043 
L 254.373005 201.77182 
L 253.373005 201.809011 
L 252.373005 201.848107 
L 251.373005 201.890547 
L 250.373005 201.923312 
L 249.373005 201.990738 
L 248.373005 202.029864 
L 247.373005 202.072539 
L 246.373005 202.143119 
L 245.373005 202.17951 
L 244.373005 202.237913 
L 243.373005 202.348866 
L 242.373005 202.419524 
L 241.373005 202.532464 
L 240.373005 202.578237 
L 239.373005 202.63952 
L 238.373005 202.68802 
L 237.373005 202.768842 
L 236.373005 202.887361 
L 235.373005 202.957572 
L 234.373005 203.040834 
L 233.373005 203.073976 
L 232.373005 203.125213 
L 230.777998 203.193612 
" clip-path="url(#pe05c4a0c95)" style="fill: none; stroke: #ffffff; stroke-width: 3; stroke-linecap: round"/>
        <path d="M 284.373005 202.616984 
L 283.373005 202.585548 
L 282.373005 202.548607 
L 281.373005 202.450861 
L 280.373005 202.418339 
L 279.373005 202.344715 
L 278.373005 202.306149 
L 277.373005 202.270736 
L 276.373005 202.213096 
L 275.373005 202.14271 
L 274.373005 202.090746 
L 273.373005 202.031656 
L 272.373005 201.943335 
L 271.373005 201.897191 
L 270.373005 201.85478 
L 269.373005 201.824287 
L 268.373005 201.798242 
L 267.373005 201.777042 
L 266.373005 201.722741 
L 265.373005 201.694803 
L 264.373005 201.665079 
L 263.373005 201.639684 
L 262.373005 201.628484 
L 261.373005 201.61836 
L 260.373005 201.618564 
L 259.373005 201.628074 
L 258.373005 201.639728 
L 257.373005 201.670757 
L 256.373005 201.681925 
L 255.373005 201.712043 
L 254.373005 201.77182 
L 253.373005 201.809011 
L 252.373005 201.848107 
L 251.373005 201.890547 
L 250.373005 201.923312 
L 249.373005 201.990738 
L 248.373005 202.029864 
L 247.373005 202.072539 
L 246.373005 202.143119 
L 245.373005 202.17951 
L 244.373005 202.237913 
L 243.373005 202.348866 
L 242.373005 202.419524 
L 241.373005 202.532464 
L 240.373005 202.578237 
L 239.373005 202.63952 
L 238.373005 202.68802 
L 237.373005 202.768842 
L 236.373005 202.887361 
L 235.373005 202.957572 
L 234.373005 203.040834 
L 233.373005 203.073976 
L 232.373005 203.125213 
L 230.777998 203.193612 
" clip-path="url(#pe05c4a0c95)" style="fill: none; stroke: #1f77b4; stroke-linecap: round"/>
        <path d="M 234.777998 204.616984 
L 233.897629 204.141653 
L 233.019722 203.661399 
L 232.169009 203.126758 
L 230.866834 202.439311 
L 231.794188 202.413296 
L 232.705862 202.000577 
L 233.616126 201.585037 
L 234.958622 200.978233 
L 234.303723 201.616984 
L 234.251759 202.616984 
L 234.192669 204.616984 
z
" clip-path="url(#pe05c4a0c95)" style="fill: #ffffff; stroke: #ffffff; stroke-width: 3; stroke-linecap: round"/>
        <path d="M 234.777998 204.616984 
L 233.897629 204.141653 
L 233.019722 203.661399 
L 232.169009 203.126758 
L 230.866834 202.439311 
L 231.794188 202.413296 
L 232.705862 202.000577 
L 233.616126 201.585037 
L 234.958622 200.978233 
L 234.303723 201.616984 
L 234.251759 202.616984 
L 234.192669 204.616984 
z
" clip-path="url(#pe05c4a0c95)" style="fill: #ffffff; stroke: #1f77b4; stroke-linecap: round"/>
        <g id="patch_8">
         <path d="M 386.221696 72.964375 
L 387.221696 72.995811 
L 388.221696 73.032752 
L 389.221696 73.130498 
L 390.221696 73.16302 
L 391.221696 73.236645 
L 392.221696 73.27521 
L 393.221696 73.310623 
L 394.221696 73.368263 
L 395.221696 73.438649 
L 396.221696 73.490614 
L 397.221696 73.549703 
L 398.221696 73.638024 
L 399.221696 73.684169 
L 400.221696 73.72658 
L 401.221696 73.757072 
L 402.221696 73.783117 
L 403.221696 73.804317 
L 404.221696 73.858618 
L 405.221696 73.886556 
L 406.221696 73.91628 
L 407.221696 73.941675 
L 408.221696 73.952875 
L 409.221696 73.962999 
L 410.221696 73.962795 
L 411.221696 73.953285 
L 412.221696 73.941631 
L 413.221696 73.910602 
L 414.221696 73.899434 
L 415.221696 73.869317 
L 416.221696 73.80954 
L 417.221696 73.772348 
L 418.221696 73.733252 
L 419.221696 73.690812 
L 420.221696 73.658047 
L 421.221696 73.590621 
L 422.221696 73.551495 
L 423.221696 73.50882 
L 424.221696 73.43824 
L 425.221696 73.401849 
L 426.221696 73.343446 
L 427.221696 73.232493 
L 428.221696 73.161835 
L 429.221696 73.048895 
L 430.221696 73.003122 
L 431.221696 72.941839 
L 432.221696 72.89334 
L 433.221696 72.812517 
L 434.221696 72.693998 
L 435.221696 72.623787 
L 436.221696 72.540525 
L 437.221696 72.507383 
L 438.221696 72.456146 
L 439.221696 72.387747 
L 440.221696 72.321532 
L 441.221696 72.244615 
L 442.221696 72.217299 
L 443.221696 72.190822 
L 444.221696 72.168171 
L 445.221696 72.14864 
L 446.221696 72.122246 
L 447.221696 72.072475 
L 448.221696 72.037402 
L 449.221696 72.001536 
L 450.221696 71.986169 
L 451.221696 71.9704 
L 452.221696 71.966987 
L 453.221696 71.96457 
L 454.221696 71.965056 
L 455.221696 71.966985 
L 456.221696 71.980242 
L 457.221696 71.988633 
L 458.221696 72.010169 
L 459.221696 72.033202 
L 460.221696 72.050435 
L 461.221696 72.068898 
L 462.221696 72.08935 
L 463.221696 72.10595 
L 464.221696 72.168729 
L 465.221696 72.243994 
L 466.221696 72.276633 
L 467.221696 72.344197 
L 468.221696 72.398244 
L 469.221696 72.431948 
L 470.221696 72.522074 
L 471.221696 72.550609 
L 472.221696 72.582095 
L 473.221696 72.613106 
L 474.221696 72.667914 
L 475.221696 72.732501 
L 476.221696 72.770697 
L 477.221696 72.866631 
L 478.221696 72.915889 
L 479.221696 72.959958 
L 480.221696 73.000082 
L 481.221696 73.108449 
L 482.221696 73.150077 
L 483.221696 73.212219 
L 484.221696 73.282181 
L 485.221696 73.386685 
L 486.221696 73.423673 
L 487.221696 73.46955 
L 488.221696 73.538045 
L 489.221696 73.586791 
L 490.221696 73.664388 
L 491.221696 73.694929 
L 492.221696 73.764443 
L 493.221696 73.788416 
L 494.221696 73.817038 
L 495.221696 73.858831 
L 496.221696 73.880407 
L 497.221696 73.894355 
L 498.221696 73.921077 
L 499.221696 73.930387 
L 500.221696 73.942834 
L 501.221696 73.953889 
L 502.221696 73.959553 
L 503.221696 73.964317 
L 504.221696 73.958769 
L 505.221696 73.945481 
L 506.221696 73.937964 
L 507.221696 73.913179 
L 508.221696 73.88961 
L 509.221696 73.85343 
L 510.221696 73.827468 
L 511.221696 73.805146 
L 512.221696 73.736386 
L 513.221696 73.661851 
L 514.221696 73.567872 
L 515.221696 73.51682 
L 516.221696 73.462886 
L 517.221696 73.427635 
L 518.221696 73.321547 
L 519.221696 73.269283 
L 520.221696 73.232376 
L 521.221696 73.201345 
L 522.221696 73.14019 
L 523.221696 73.07277 
L 524.221696 73.023864 
L 525.221696 72.958672 
L 526.221696 72.920484 
L 527.221696 72.878488 
L 528.221696 72.836471 
L 529.221696 72.776955 
L 530.221696 72.663795 
L 531.221696 72.611544 
L 532.221696 72.572126 
L 533.221696 72.525025 
L 534.221696 72.468245 
L 535.221696 72.435582 
L 536.221696 72.399404 
L 537.221696 72.367314 
L 538.221696 72.333034 
L 539.221696 72.274656 
L 540.221696 72.229471 
L 541.221696 72.199847 
L 542.221696 72.149461 
L 543.221696 72.124264 
L 544.221696 72.103213 
L 545.221696 72.068245 
L 546.221696 72.043955 
L 547.221696 72.029888 
L 548.221696 72.010946 
L 549.221696 71.995285 
L 550.221696 71.982733 
L 551.221696 71.976897 
L 552.221696 71.970015 
L 553.221696 71.964841 
L 554.221696 71.966624 
L 555.221696 71.969349 
L 556.221696 71.980503 
L 557.221696 72.008738 
L 558.221696 72.052526 
L 559.221696 72.073215 
L 560.221696 72.114188 
L 561.886611 72.154263 
" clip-path="url(#pe05c4a0c95)" style="fill: none; stroke: #ffffff; stroke-width: 3; stroke-linecap: round"/>
         <path d="M 386.221696 72.964375 
L 387.221696 72.995811 
L 388.221696 73.032752 
L 389.221696 73.130498 
L 390.221696 73.16302 
L 391.221696 73.236645 
L 392.221696 73.27521 
L 393.221696 73.310623 
L 394.221696 73.368263 
L 395.221696 73.438649 
L 396.221696 73.490614 
L 397.221696 73.549703 
L 398.221696 73.638024 
L 399.221696 73.684169 
L 400.221696 73.72658 
L 401.221696 73.757072 
L 402.221696 73.783117 
L 403.221696 73.804317 
L 404.221696 73.858618 
L 405.221696 73.886556 
L 406.221696 73.91628 
L 407.221696 73.941675 
L 408.221696 73.952875 
L 409.221696 73.962999 
L 410.221696 73.962795 
L 411.221696 73.953285 
L 412.221696 73.941631 
L 413.221696 73.910602 
L 414.221696 73.899434 
L 415.221696 73.869317 
L 416.221696 73.80954 
L 417.221696 73.772348 
L 418.221696 73.733252 
L 419.221696 73.690812 
L 420.221696 73.658047 
L 421.221696 73.590621 
L 422.221696 73.551495 
L 423.221696 73.50882 
L 424.221696 73.43824 
L 425.221696 73.401849 
L 426.221696 73.343446 
L 427.221696 73.232493 
L 428.221696 73.161835 
L 429.221696 73.048895 
L 430.221696 73.003122 
L 431.221696 72.941839 
L 432.221696 72.89334 
L 433.221696 72.812517 
L 434.221696 72.693998 
L 435.221696 72.623787 
L 436.221696 72.540525 
L 437.221696 72.507383 
L 438.221696 72.456146 
L 439.221696 72.387747 
L 440.221696 72.321532 
L 441.221696 72.244615 
L 442.221696 72.217299 
L 443.221696 72.190822 
L 444.221696 72.168171 
L 445.221696 72.14864 
L 446.221696 72.122246 
L 447.221696 72.072475 
L 448.221696 72.037402 
L 449.221696 72.001536 
L 450.221696 71.986169 
L 451.221696 71.9704 
L 452.221696 71.966987 
L 453.221696 71.96457 
L 454.221696 71.965056 
L 455.221696 71.966985 
L 456.221696 71.980242 
L 457.221696 71.988633 
L 458.221696 72.010169 
L 459.221696 72.033202 
L 460.221696 72.050435 
L 461.221696 72.068898 
L 462.221696 72.08935 
L 463.221696 72.10595 
L 464.221696 72.168729 
L 465.221696 72.243994 
L 466.221696 72.276633 
L 467.221696 72.344197 
L 468.221696 72.398244 
L 469.221696 72.431948 
L 470.221696 72.522074 
L 471.221696 72.550609 
L 472.221696 72.582095 
L 473.221696 72.613106 
L 474.221696 72.667914 
L 475.221696 72.732501 
L 476.221696 72.770697 
L 477.221696 72.866631 
L 478.221696 72.915889 
L 479.221696 72.959958 
L 480.221696 73.000082 
L 481.221696 73.108449 
L 482.221696 73.150077 
L 483.221696 73.212219 
L 484.221696 73.282181 
L 485.221696 73.386685 
L 486.221696 73.423673 
L 487.221696 73.46955 
L 488.221696 73.538045 
L 489.221696 73.586791 
L 490.221696 73.664388 
L 491.221696 73.694929 
L 492.221696 73.764443 
L 493.221696 73.788416 
L 494.221696 73.817038 
L 495.221696 73.858831 
L 496.221696 73.880407 
L 497.221696 73.894355 
L 498.221696 73.921077 
L 499.221696 73.930387 
L 500.221696 73.942834 
L 501.221696 73.953889 
L 502.221696 73.959553 
L 503.221696 73.964317 
L 504.221696 73.958769 
L 505.221696 73.945481 
L 506.221696 73.937964 
L 507.221696 73.913179 
L 508.221696 73.88961 
L 509.221696 73.85343 
L 510.221696 73.827468 
L 511.221696 73.805146 
L 512.221696 73.736386 
L 513.221696 73.661851 
L 514.221696 73.567872 
L 515.221696 73.51682 
L 516.221696 73.462886 
L 517.221696 73.427635 
L 518.221696 73.321547 
L 519.221696 73.269283 
L 520.221696 73.232376 
L 521.221696 73.201345 
L 522.221696 73.14019 
L 523.221696 73.07277 
L 524.221696 73.023864 
L 525.221696 72.958672 
L 526.221696 72.920484 
L 527.221696 72.878488 
L 528.221696 72.836471 
L 529.221696 72.776955 
L 530.221696 72.663795 
L 531.221696 72.611544 
L 532.221696 72.572126 
L 533.221696 72.525025 
L 534.221696 72.468245 
L 535.221696 72.435582 
L 536.221696 72.399404 
L 537.221696 72.367314 
L 538.221696 72.333034 
L 539.221696 72.274656 
L 540.221696 72.229471 
L 541.221696 72.199847 
L 542.221696 72.149461 
L 543.221696 72.124264 
L 544.221696 72.103213 
L 545.221696 72.068245 
L 546.221696 72.043955 
L 547.221696 72.029888 
L 548.221696 72.010946 
L 549.221696 71.995285 
L 550.221696 71.982733 
L 551.221696 71.976897 
L 552.221696 71.970015 
L 553.221696 71.964841 
L 554.221696 71.966624 
L 555.221696 71.969349 
L 556.221696 71.980503 
L 557.221696 72.008738 
L 558.221696 72.052526 
L 559.221696 72.073215 
L 560.221696 72.114188 
L 561.886611 72.154263 
" clip-path="url(#pe05c4a0c95)" style="fill: none; stroke: #1f77b4; stroke-linecap: round"/>
         <path d="M 557.886611 70.964375 
L 558.766979 71.439706 
L 559.644886 71.91996 
L 560.4956 72.454601 
L 561.797774 73.142048 
L 560.870421 73.168063 
L 559.958747 73.580783 
L 559.048482 73.996322 
L 557.705986 74.603126 
L 558.360885 73.964375 
L 558.412849 72.964375 
L 558.471939 70.964375 
z
" clip-path="url(#pe05c4a0c95)" style="fill: #ffffff; stroke: #ffffff; stroke-width: 3; stroke-linecap: round"/>
         <path d="M 557.886611 70.964375 
L 558.766979 71.439706 
L 559.644886 71.91996 
L 560.4956 72.454601 
L 561.797774 73.142048 
L 560.870421 73.168063 
L 559.958747 73.580783 
L 559.048482 73.996322 
L 557.705986 74.603126 
L 558.360885 73.964375 
L 558.412849 72.964375 
L 558.471939 70.964375 
z
" clip-path="url(#pe05c4a0c95)" style="fill: #ffffff; stroke: #1f77b4; stroke-linecap: round"/>
         <g id="patch_9">
          <path d="M 229.662787 279.54675 
L 230.662787 279.578186 
L 231.662787 279.615127 
L 232.662787 279.712873 
L 233.662787 279.745395 
L 234.662787 279.81902 
L 235.662787 279.857585 
L 236.662787 279.892998 
L 237.662787 279.950638 
L 238.662787 280.021025 
L 239.662787 280.072989 
L 240.662787 280.132079 
L 241.662787 280.220399 
L 242.662787 280.266544 
L 243.662787 280.308955 
L 244.662787 280.339447 
L 245.662787 280.365492 
L 246.662787 280.386692 
L 247.662787 280.440994 
L 248.662787 280.468931 
L 249.662787 280.498655 
L 250.662787 280.52405 
L 251.662787 280.53525 
L 252.662787 280.545374 
L 253.662787 280.54517 
L 254.662787 280.53566 
L 255.662787 280.524006 
L 256.662787 280.492977 
L 257.662787 280.481809 
L 258.662787 280.451692 
L 259.662787 280.391915 
L 260.662787 280.354723 
L 261.662787 280.315627 
L 262.662787 280.273188 
L 263.662787 280.240422 
L 264.662787 280.172996 
L 265.662787 280.13387 
L 266.662787 280.091196 
L 267.662787 280.020615 
L 268.662787 279.984224 
L 269.662787 279.925821 
L 270.662787 279.814868 
L 271.662787 279.74421 
L 272.662787 279.63127 
L 273.662787 279.585497 
L 274.662787 279.524214 
L 275.662787 279.475715 
L 276.662787 279.394892 
L 277.662787 279.276373 
L 278.662787 279.206162 
L 279.662787 279.1229 
L 280.662787 279.089758 
L 281.662787 279.038521 
L 282.662787 278.970123 
L 283.662787 278.903907 
L 284.662787 278.82699 
L 285.662787 278.799675 
L 286.662787 278.773197 
L 287.662787 278.750546 
L 288.662787 278.731015 
L 289.662787 278.704621 
L 290.662787 278.65485 
L 291.662787 278.619777 
L 292.662787 278.583912 
L 293.662787 278.568544 
L 294.662787 278.552775 
L 295.662787 278.549362 
L 296.662787 278.546945 
L 297.662787 278.547431 
L 298.662787 278.54936 
L 299.662787 278.562617 
L 300.662787 278.571008 
L 301.662787 278.592544 
L 302.662787 278.615577 
L 303.662787 278.63281 
L 304.662787 278.651273 
L 305.662787 278.671725 
L 306.662787 278.688325 
L 307.662787 278.751104 
L 308.662787 278.826369 
L 309.662787 278.859008 
L 310.662787 278.926572 
L 311.662787 278.980619 
L 312.662787 279.014323 
L 313.662787 279.104449 
L 314.662787 279.132984 
L 315.662787 279.16447 
L 316.662787 279.195481 
L 317.662787 279.250289 
L 318.662787 279.314876 
L 319.662787 279.353072 
L 320.662787 279.449006 
L 321.662787 279.498264 
L 322.662787 279.542333 
L 323.662787 279.582457 
L 324.662787 279.690824 
L 325.662787 279.732452 
L 326.662787 279.794594 
L 327.662787 279.864556 
L 328.662787 279.96906 
L 329.662787 280.006048 
L 330.662787 280.051925 
L 331.662787 280.12042 
L 332.662787 280.169166 
L 333.662787 280.246763 
L 334.662787 280.277304 
L 335.662787 280.346818 
L 336.662787 280.370791 
L 337.662787 280.399413 
L 338.662787 280.441206 
L 339.662787 280.462782 
L 340.662787 280.47673 
L 341.662787 280.503452 
L 342.662787 280.512762 
L 343.662787 280.525209 
L 344.662787 280.536264 
L 345.662787 280.541928 
L 346.662787 280.546692 
L 347.662787 280.541145 
L 348.662787 280.527856 
L 349.662787 280.520339 
L 350.662787 280.495554 
L 351.662787 280.471985 
L 352.662787 280.435805 
L 353.662787 280.409843 
L 354.662787 280.387521 
L 355.662787 280.318761 
L 356.662787 280.244226 
L 357.662787 280.150247 
L 358.662787 280.099195 
L 359.662787 280.045261 
L 360.662787 280.01001 
L 361.662787 279.903922 
L 362.662787 279.851658 
L 363.662787 279.814751 
L 364.662787 279.783721 
L 365.662787 279.722565 
L 366.662787 279.655145 
L 367.662787 279.606239 
L 368.662787 279.541047 
L 369.662787 279.502859 
L 370.662787 279.460864 
L 371.662787 279.418846 
L 372.662787 279.35933 
L 373.662787 279.24617 
L 374.662787 279.193919 
L 375.662787 279.154501 
L 376.662787 279.1074 
L 377.662787 279.050621 
L 378.662787 279.017957 
L 379.662787 278.981779 
L 380.662787 278.949689 
L 381.662787 278.915409 
L 382.662787 278.857031 
L 383.662787 278.811846 
L 384.662787 278.782222 
L 385.662787 278.731836 
L 386.662787 278.706639 
L 387.662787 278.685588 
L 388.662787 278.65062 
L 389.662787 278.62633 
L 390.662787 278.612263 
L 391.662787 278.593321 
L 392.662787 278.57766 
L 393.662787 278.565108 
L 394.662787 278.559272 
L 395.662787 278.55239 
L 396.662787 278.547216 
L 397.662787 278.548999 
L 398.662787 278.551724 
L 399.662787 278.562878 
L 400.662787 278.591113 
L 401.662787 278.634901 
L 402.662787 278.65559 
L 403.662787 278.696563 
L 404.662787 278.736638 
L 405.662787 278.755748 
L 406.662787 278.778257 
L 407.662787 278.844908 
L 408.662787 278.894618 
L 409.662787 278.968325 
L 410.662787 278.999638 
L 411.662787 279.07626 
L 412.662787 279.114558 
L 413.662787 279.188675 
L 414.662787 279.292733 
L 415.662787 279.362564 
L 416.662787 279.467798 
L 417.662787 279.522813 
L 418.662787 279.646288 
L 419.662787 279.716847 
L 420.662787 279.832686 
L 421.662787 279.882867 
L 422.662787 279.918471 
L 423.662787 280.009878 
L 424.662787 280.063386 
L 425.662787 280.151294 
L 426.662787 280.220479 
L 427.662787 280.267243 
L 428.662787 280.339287 
L 429.662787 280.389429 
L 430.662787 280.406819 
L 431.662787 280.433822 
L 432.926925 280.453249 
" clip-path="url(#pe05c4a0c95)" style="fill: none; stroke: #ffffff; stroke-width: 3; stroke-linecap: round"/>
          <path d="M 229.662787 279.54675 
L 230.662787 279.578186 
L 231.662787 279.615127 
L 232.662787 279.712873 
L 233.662787 279.745395 
L 234.662787 279.81902 
L 235.662787 279.857585 
L 236.662787 279.892998 
L 237.662787 279.950638 
L 238.662787 280.021025 
L 239.662787 280.072989 
L 240.662787 280.132079 
L 241.662787 280.220399 
L 242.662787 280.266544 
L 243.662787 280.308955 
L 244.662787 280.339447 
L 245.662787 280.365492 
L 246.662787 280.386692 
L 247.662787 280.440994 
L 248.662787 280.468931 
L 249.662787 280.498655 
L 250.662787 280.52405 
L 251.662787 280.53525 
L 252.662787 280.545374 
L 253.662787 280.54517 
L 254.662787 280.53566 
L 255.662787 280.524006 
L 256.662787 280.492977 
L 257.662787 280.481809 
L 258.662787 280.451692 
L 259.662787 280.391915 
L 260.662787 280.354723 
L 261.662787 280.315627 
L 262.662787 280.273188 
L 263.662787 280.240422 
L 264.662787 280.172996 
L 265.662787 280.13387 
L 266.662787 280.091196 
L 267.662787 280.020615 
L 268.662787 279.984224 
L 269.662787 279.925821 
L 270.662787 279.814868 
L 271.662787 279.74421 
L 272.662787 279.63127 
L 273.662787 279.585497 
L 274.662787 279.524214 
L 275.662787 279.475715 
L 276.662787 279.394892 
L 277.662787 279.276373 
L 278.662787 279.206162 
L 279.662787 279.1229 
L 280.662787 279.089758 
L 281.662787 279.038521 
L 282.662787 278.970123 
L 283.662787 278.903907 
L 284.662787 278.82699 
L 285.662787 278.799675 
L 286.662787 278.773197 
L 287.662787 278.750546 
L 288.662787 278.731015 
L 289.662787 278.704621 
L 290.662787 278.65485 
L 291.662787 278.619777 
L 292.662787 278.583912 
L 293.662787 278.568544 
L 294.662787 278.552775 
L 295.662787 278.549362 
L 296.662787 278.546945 
L 297.662787 278.547431 
L 298.662787 278.54936 
L 299.662787 278.562617 
L 300.662787 278.571008 
L 301.662787 278.592544 
L 302.662787 278.615577 
L 303.662787 278.63281 
L 304.662787 278.651273 
L 305.662787 278.671725 
L 306.662787 278.688325 
L 307.662787 278.751104 
L 308.662787 278.826369 
L 309.662787 278.859008 
L 310.662787 278.926572 
L 311.662787 278.980619 
L 312.662787 279.014323 
L 313.662787 279.104449 
L 314.662787 279.132984 
L 315.662787 279.16447 
L 316.662787 279.195481 
L 317.662787 279.250289 
L 318.662787 279.314876 
L 319.662787 279.353072 
L 320.662787 279.449006 
L 321.662787 279.498264 
L 322.662787 279.542333 
L 323.662787 279.582457 
L 324.662787 279.690824 
L 325.662787 279.732452 
L 326.662787 279.794594 
L 327.662787 279.864556 
L 328.662787 279.96906 
L 329.662787 280.006048 
L 330.662787 280.051925 
L 331.662787 280.12042 
L 332.662787 280.169166 
L 333.662787 280.246763 
L 334.662787 280.277304 
L 335.662787 280.346818 
L 336.662787 280.370791 
L 337.662787 280.399413 
L 338.662787 280.441206 
L 339.662787 280.462782 
L 340.662787 280.47673 
L 341.662787 280.503452 
L 342.662787 280.512762 
L 343.662787 280.525209 
L 344.662787 280.536264 
L 345.662787 280.541928 
L 346.662787 280.546692 
L 347.662787 280.541145 
L 348.662787 280.527856 
L 349.662787 280.520339 
L 350.662787 280.495554 
L 351.662787 280.471985 
L 352.662787 280.435805 
L 353.662787 280.409843 
L 354.662787 280.387521 
L 355.662787 280.318761 
L 356.662787 280.244226 
L 357.662787 280.150247 
L 358.662787 280.099195 
L 359.662787 280.045261 
L 360.662787 280.01001 
L 361.662787 279.903922 
L 362.662787 279.851658 
L 363.662787 279.814751 
L 364.662787 279.783721 
L 365.662787 279.722565 
L 366.662787 279.655145 
L 367.662787 279.606239 
L 368.662787 279.541047 
L 369.662787 279.502859 
L 370.662787 279.460864 
L 371.662787 279.418846 
L 372.662787 279.35933 
L 373.662787 279.24617 
L 374.662787 279.193919 
L 375.662787 279.154501 
L 376.662787 279.1074 
L 377.662787 279.050621 
L 378.662787 279.017957 
L 379.662787 278.981779 
L 380.662787 278.949689 
L 381.662787 278.915409 
L 382.662787 278.857031 
L 383.662787 278.811846 
L 384.662787 278.782222 
L 385.662787 278.731836 
L 386.662787 278.706639 
L 387.662787 278.685588 
L 388.662787 278.65062 
L 389.662787 278.62633 
L 390.662787 278.612263 
L 391.662787 278.593321 
L 392.662787 278.57766 
L 393.662787 278.565108 
L 394.662787 278.559272 
L 395.662787 278.55239 
L 396.662787 278.547216 
L 397.662787 278.548999 
L 398.662787 278.551724 
L 399.662787 278.562878 
L 400.662787 278.591113 
L 401.662787 278.634901 
L 402.662787 278.65559 
L 403.662787 278.696563 
L 404.662787 278.736638 
L 405.662787 278.755748 
L 406.662787 278.778257 
L 407.662787 278.844908 
L 408.662787 278.894618 
L 409.662787 278.968325 
L 410.662787 278.999638 
L 411.662787 279.07626 
L 412.662787 279.114558 
L 413.662787 279.188675 
L 414.662787 279.292733 
L 415.662787 279.362564 
L 416.662787 279.467798 
L 417.662787 279.522813 
L 418.662787 279.646288 
L 419.662787 279.716847 
L 420.662787 279.832686 
L 421.662787 279.882867 
L 422.662787 279.918471 
L 423.662787 280.009878 
L 424.662787 280.063386 
L 425.662787 280.151294 
L 426.662787 280.220479 
L 427.662787 280.267243 
L 428.662787 280.339287 
L 429.662787 280.389429 
L 430.662787 280.406819 
L 431.662787 280.433822 
L 432.926925 280.453249 
" clip-path="url(#pe05c4a0c95)" style="fill: none; stroke: #ff7f0e; stroke-linecap: round"/>
          <path d="M 428.926925 277.54675 
L 429.807293 278.022081 
L 430.6852 278.502335 
L 431.535914 279.036976 
L 432.838088 279.724423 
L 431.910735 279.750438 
L 430.999061 280.163158 
L 430.088796 280.578697 
L 428.746301 281.185501 
L 429.4012 280.54675 
L 429.453164 279.54675 
L 429.512254 277.54675 
z
" clip-path="url(#pe05c4a0c95)" style="fill: #ffffff; stroke: #ffffff; stroke-width: 3; stroke-linecap: round"/>
          <path d="M 428.926925 277.54675 
L 429.807293 278.022081 
L 430.6852 278.502335 
L 431.535914 279.036976 
L 432.838088 279.724423 
L 431.910735 279.750438 
L 430.999061 280.163158 
L 430.088796 280.578697 
L 428.746301 281.185501 
L 429.4012 280.54675 
L 429.453164 279.54675 
L 429.512254 277.54675 
z
" clip-path="url(#pe05c4a0c95)" style="fill: #ffffff; stroke: #ff7f0e; stroke-linecap: round"/>
          <path d="M 476.679808 298.28008 
" clip-path="url(#pe05c4a0c95)" style="fill: none; stroke-dasharray: 3.7,1.6; stroke-dashoffset: 0; stroke: #2ca02c"/>
          <path d="M 475.679808 298.28008 
L 477.679808 299.28008 
L 477.679808 297.28008 
z
" clip-path="url(#pe05c4a0c95)" style="fill: #2ca02c; stroke: #2ca02c; stroke-linejoin: miter"/>
          <g id="patch_10">
           <path d="M 63.290625 321.621875 
L 63.290625 10.8 
" style="fill: none; stroke: #000000; stroke-width: 0.8; stroke-linejoin: miter; stroke-linecap: square"/>
          </g>
          <g id="text_13">
           <g id="patch_11">
            <path d="M 324.646654 113.547555 
L 345.951342 113.547555 
Q 347.951342 113.547555 347.951342 111.547555 
L 347.951342 101.86943 
Q 347.951342 99.86943 345.951342 99.86943 
L 324.646654 99.86943 
Q 322.646654 99.86943 322.646654 101.86943 
L 322.646654 111.547555 
Q 322.646654 113.547555 324.646654 113.547555 
z
" style="fill: #ffffff; opacity: 0.6"/>
           </g>
           <!-- ANC -->
           <g transform="translate(324.646654 109.467867) scale(0.1 -0.1)">
            <defs>
             <path id="DejaVuSans-4e" d="M 628 4666 
L 1478 4666 
L 3547 763 
L 3547 4666 
L 4159 4666 
L 4159 0 
L 3309 0 
L 1241 3903 
L 1241 0 
L 628 0 
L 628 4666 
z
" transform="scale(0.015625)"/>
            </defs>
            <use xlink:href="#DejaVuSans-41"/>
            <use xlink:href="#DejaVuSans-4e" x="68.408203"/>
            <use xlink:href="#DejaVuSans-43" x="143.212891"/>
           </g>
          </g>
         </g>
        </g>
        <defs>
         <clipPath id="pe05c4a0c95">
          <rect x="63.290625" y="10.8" width="540.309375" height="310.821875"/>
         </clipPath>
        </defs>
       </g>
      </g>
     </g>
    </g>
   </g>
  </g>
 </g>
</svg>
