<?xml version="1.0" encoding="utf-8" standalone="no"?>
<!DOCTYPE svg PUBLIC "-//W3C//DTD SVG 1.1//EN"
  "http://www.w3.org/Graphics/SVG/1.1/DTD/svg11.dtd">
<svg xmlns:xlink="http://www.w3.org/1999/xlink" width="614.4pt" height="345.6pt" viewBox="0 0 614.4 345.6" xmlns="http://www.w3.org/2000/svg" version="1.1">
 <metadata>
  <rdf:RDF xmlns:dc="http://purl.org/dc/elements/1.1/" xmlns:cc="http://creativecommons.org/ns#" xmlns:rdf="http://www.w3.org/1999/02/22-rdf-syntax-ns#">
   <cc:Work>
    <dc:type rdf:resource="http://purl.org/dc/dcmitype/StillImage"/>
    <dc:date>2024-04-17T19:48:38.894547</dc:date>
    <dc:format>image/svg+xml</dc:format>
    <dc:creator>
     <cc:Agent>
      <dc:title>Matplotlib v3.7.1, https://matplotlib.org/</dc:title>
     </cc:Agent>
    </dc:creator>
   </cc:Work>
  </rdf:RDF>
 </metadata>
 <defs>
  <style type="text/css">*{stroke-linejoin: round; stroke-linecap: butt}</style>
 </defs>
 <g id="figure_1">
  <g id="patch_1">
   <path d="M 0 345.6 
L 614.4 345.6 
L 614.4 0 
L 0 0 
z
" style="fill: #ffffff"/>
  </g>
  <g id="axes_1">
   <g id="patch_2">
    <path d="M 63.290625 321.621875 
L 603.6 321.621875 
L 603.6 10.8 
L 63.290625 10.8 
z
" style="fill: #ffffff"/>
   </g>
   <path d="M 513.039435 303.700815 
L 512.039435 303.669379 
L 511.039435 303.632439 
L 510.039435 303.534692 
L 509.039435 303.50217 
L 508.039435 303.428546 
L 507.039435 303.38998 
L 506.039435 303.354567 
L 505.039435 303.296927 
L 504.039435 303.226541 
L 503.039435 303.174577 
L 502.039435 303.115487 
L 501.039435 303.027166 
L 500.039435 302.981022 
L 499.039435 302.938611 
L 498.039435 302.908118 
L 497.039435 302.882073 
L 496.039435 302.860873 
L 495.039435 302.806572 
L 494.039435 302.778634 
L 493.039435 302.74891 
L 492.039435 302.723516 
L 491.039435 302.712315 
L 490.039435 302.702191 
L 489.039435 302.702396 
L 488.039435 302.711905 
L 487.039435 302.723559 
L 486.039435 302.754588 
L 485.039435 302.765756 
L 484.039435 302.795874 
L 483.039435 302.855651 
L 482.039435 302.892842 
L 481.039435 302.931938 
L 480.039435 302.974378 
L 479.039435 303.007143 
L 478.039435 303.074569 
L 477.039435 303.113695 
L 476.039435 303.15637 
L 475.039435 303.22695 
L 474.039435 303.263341 
L 473.039435 303.321745 
L 472.039435 303.432697 
L 471.039435 303.503355 
L 470.039435 303.616295 
L 469.039435 303.662068 
L 467.119081 303.723351 
" clip-path="url(#p2ebaa6ea59)" style="fill: none; stroke-dasharray: 3.7,1.6; stroke-dashoffset: 0; stroke: #2ca02c"/>
   <g id="patch_3">
    <path d="M 238.396833 10.8 
L 238.396833 252.655999 
M 379.903374 10.8 
L 379.903374 252.655999 
" clip-path="url(#p2ebaa6ea59)" style="fill: none; stroke: #ffffff; stroke-width: 3; stroke-linejoin: miter"/>
    <path d="M 238.396833 10.8 
L 238.396833 252.655999 
M 379.903374 10.8 
L 379.903374 252.655999 
" clip-path="url(#p2ebaa6ea59)" style="fill: none; stroke: #1f77b4; stroke-linejoin: miter"/>
    <g id="PolyCollection_1">
     <path d="M 379.903374 10.8 
L 238.396833 10.8 
L 238.396833 252.655999 
L 379.903374 252.655999 
L 379.903374 252.655999 
L 379.903374 10.8 
z
" clip-path="url(#p2ebaa6ea59)" style="fill: #1f77b4; fill-opacity: 0.5"/>
    </g>
    <g id="patch_4">
     <path d="M 87.850142 252.655999 
L 87.850142 321.621875 
M 171.062961 252.655999 
L 171.062961 321.621875 
" clip-path="url(#p2ebaa6ea59)" style="fill: none; stroke: #ffffff; stroke-width: 3; stroke-linejoin: miter"/>
     <path d="M 87.850142 252.655999 
L 87.850142 321.621875 
M 171.062961 252.655999 
L 171.062961 321.621875 
" clip-path="url(#p2ebaa6ea59)" style="fill: none; stroke: #ff7f0e; stroke-linejoin: miter"/>
     <g id="PolyCollection_2">
      <path d="M 171.062961 252.655999 
L 87.850142 252.655999 
L 87.850142 321.621875 
L 171.062961 321.621875 
L 171.062961 321.621875 
L 171.062961 252.655999 
z
" clip-path="url(#p2ebaa6ea59)" style="fill: #ff7f0e; fill-opacity: 0.5"/>
     </g>
     <g id="patch_5">
      <path d="M 518.442529 72.964375 
L 518.442529 321.621875 
M 579.040483 72.964375 
L 579.040483 321.621875 
" clip-path="url(#p2ebaa6ea59)" style="fill: none; stroke: #ffffff; stroke-width: 3; stroke-linejoin: miter"/>
      <path d="M 518.442529 72.964375 
L 518.442529 321.621875 
M 579.040483 72.964375 
L 579.040483 321.621875 
" clip-path="url(#p2ebaa6ea59)" style="fill: none; stroke: #2ca02c; stroke-linejoin: miter"/>
      <g id="PolyCollection_3">
       <path d="M 579.040483 72.964375 
L 518.442529 72.964375 
L 518.442529 321.621875 
L 579.040483 321.621875 
L 579.040483 321.621875 
L 579.040483 72.964375 
z
" clip-path="url(#p2ebaa6ea59)" style="fill: #2ca02c; fill-opacity: 0.5"/>
      </g>
      <g id="patch_6">
       <path d="M 396.175623 279.078935 
L 396.175623 321.621875 
M 461.715987 279.078935 
L 461.715987 321.621875 
" clip-path="url(#p2ebaa6ea59)" style="fill: none; stroke: #ffffff; stroke-width: 3; stroke-linejoin: miter"/>
       <path d="M 396.175623 279.078935 
L 396.175623 321.621875 
M 461.715987 279.078935 
L 461.715987 321.621875 
" clip-path="url(#p2ebaa6ea59)" style="fill: none; stroke: #d62728; stroke-linejoin: miter"/>
       <g id="PolyCollection_4">
        <path d="M 461.715987 279.078935 
L 396.175623 279.078935 
L 396.175623 321.621875 
L 461.715987 321.621875 
L 461.715987 321.621875 
L 461.715987 279.078935 
z
" clip-path="url(#p2ebaa6ea59)" style="fill: #d62728; fill-opacity: 0.5"/>
       </g>
       <g id="matplotlib.axis_1">
        <g id="xtick_1">
         <g id="line2d_1"/>
         <g id="text_1">
          <!-- OUT -->
          <g transform="translate(118.807333 332.720312) scale(0.1 -0.1)">
           <defs>
            <path id="DejaVuSans-4f" d="M 2522 4238 
Q 1834 4238 1429 3725 
Q 1025 3213 1025 2328 
Q 1025 1447 1429 934 
Q 1834 422 2522 422 
Q 3209 422 3611 934 
Q 4013 1447 4013 2328 
Q 4013 3213 3611 3725 
Q 3209 4238 2522 4238 
z
M 2522 4750 
Q 3503 4750 4090 4092 
Q 4678 3434 4678 2328 
Q 4678 1225 4090 567 
Q 3503 -91 2522 -91 
Q 1538 -91 948 565 
Q 359 1222 359 2328 
Q 359 3434 948 4092 
Q 1538 4750 2522 4750 
z
" transform="scale(0.015625)"/>
            <path id="DejaVuSans-55" d="M 556 4666 
L 1191 4666 
L 1191 1831 
Q 1191 1081 1462 751 
Q 1734 422 2344 422 
Q 2950 422 3222 751 
Q 3494 1081 3494 1831 
L 3494 4666 
L 4128 4666 
L 4128 1753 
Q 4128 841 3676 375 
Q 3225 -91 2344 -91 
Q 1459 -91 1007 375 
Q 556 841 556 1753 
L 556 4666 
z
" transform="scale(0.015625)"/>
            <path id="DejaVuSans-54" d="M -19 4666 
L 3928 4666 
L 3928 4134 
L 2272 4134 
L 2272 0 
L 1638 0 
L 1638 4134 
L -19 4134 
L -19 4666 
z
" transform="scale(0.015625)"/>
           </defs>
           <use xlink:href="#DejaVuSans-4f"/>
           <use xlink:href="#DejaVuSans-55" x="78.710938"/>
           <use xlink:href="#DejaVuSans-54" x="151.904297"/>
          </g>
         </g>
        </g>
        <g id="xtick_2">
         <g id="line2d_2"/>
         <g id="text_2">
          <!-- SRC -->
          <g transform="translate(538.851662 332.720312) scale(0.1 -0.1)">
           <defs>
            <path id="DejaVuSans-53" d="M 3425 4513 
L 3425 3897 
Q 3066 4069 2747 4153 
Q 2428 4238 2131 4238 
Q 1616 4238 1336 4038 
Q 1056 3838 1056 3469 
Q 1056 3159 1242 3001 
Q 1428 2844 1947 2747 
L 2328 2669 
Q 3034 2534 3370 2195 
Q 3706 1856 3706 1288 
Q 3706 609 3251 259 
Q 2797 -91 1919 -91 
Q 1588 -91 1214 -16 
Q 841 59 441 206 
L 441 856 
Q 825 641 1194 531 
Q 1563 422 1919 422 
Q 2459 422 2753 634 
Q 3047 847 3047 1241 
Q 3047 1584 2836 1778 
Q 2625 1972 2144 2069 
L 1759 2144 
Q 1053 2284 737 2584 
Q 422 2884 422 3419 
Q 422 4038 858 4394 
Q 1294 4750 2059 4750 
Q 2388 4750 2728 4690 
Q 3069 4631 3425 4513 
z
" transform="scale(0.015625)"/>
            <path id="DejaVuSans-52" d="M 2841 2188 
Q 3044 2119 3236 1894 
Q 3428 1669 3622 1275 
L 4263 0 
L 3584 0 
L 2988 1197 
Q 2756 1666 2539 1819 
Q 2322 1972 1947 1972 
L 1259 1972 
L 1259 0 
L 628 0 
L 628 4666 
L 2053 4666 
Q 2853 4666 3247 4331 
Q 3641 3997 3641 3322 
Q 3641 2881 3436 2590 
Q 3231 2300 2841 2188 
z
M 1259 4147 
L 1259 2491 
L 2053 2491 
Q 2509 2491 2742 2702 
Q 2975 2913 2975 3322 
Q 2975 3731 2742 3939 
Q 2509 4147 2053 4147 
L 1259 4147 
z
" transform="scale(0.015625)"/>
            <path id="DejaVuSans-43" d="M 4122 4306 
L 4122 3641 
Q 3803 3938 3442 4084 
Q 3081 4231 2675 4231 
Q 1875 4231 1450 3742 
Q 1025 3253 1025 2328 
Q 1025 1406 1450 917 
Q 1875 428 2675 428 
Q 3081 428 3442 575 
Q 3803 722 4122 1019 
L 4122 359 
Q 3791 134 3420 21 
Q 3050 -91 2638 -91 
Q 1578 -91 968 557 
Q 359 1206 359 2328 
Q 359 3453 968 4101 
Q 1578 4750 2638 4750 
Q 3056 4750 3426 4639 
Q 3797 4528 4122 4306 
z
" transform="scale(0.015625)"/>
           </defs>
           <use xlink:href="#DejaVuSans-53"/>
           <use xlink:href="#DejaVuSans-52" x="63.476562"/>
           <use xlink:href="#DejaVuSans-43" x="127.958984"/>
          </g>
         </g>
        </g>
        <g id="xtick_3">
         <g id="line2d_3"/>
         <g id="text_3">
          <!-- TAR -->
          <g transform="translate(419.384867 332.720312) scale(0.1 -0.1)">
           <defs>
            <path id="DejaVuSans-41" d="M 2188 4044 
L 1331 1722 
L 3047 1722 
L 2188 4044 
z
M 1831 4666 
L 2547 4666 
L 4325 0 
L 3669 0 
L 3244 1197 
L 1141 1197 
L 716 0 
L 50 0 
L 1831 4666 
z
" transform="scale(0.015625)"/>
           </defs>
           <use xlink:href="#DejaVuSans-54"/>
           <use xlink:href="#DejaVuSans-41" x="53.333984"/>
           <use xlink:href="#DejaVuSans-52" x="121.742188"/>
          </g>
         </g>
        </g>
       </g>
       <g id="matplotlib.axis_2">
        <g id="ytick_1">
         <g id="line2d_4">
          <defs>
           <path id="m81fc3c67f7" d="M 0 0 
L -3.5 0 
" style="stroke: #000000; stroke-width: 0.8"/>
          </defs>
          <g>
           <use xlink:href="#m81fc3c67f7" x="63.290625" y="321.621875" style="stroke: #000000; stroke-width: 0.8"/>
          </g>
         </g>
         <g id="text_4">
          <!-- 0 -->
          <g transform="translate(49.928125 325.421094) scale(0.1 -0.1)">
           <defs>
            <path id="DejaVuSans-30" d="M 2034 4250 
Q 1547 4250 1301 3770 
Q 1056 3291 1056 2328 
Q 1056 1369 1301 889 
Q 1547 409 2034 409 
Q 2525 409 2770 889 
Q 3016 1369 3016 2328 
Q 3016 3291 2770 3770 
Q 2525 4250 2034 4250 
z
M 2034 4750 
Q 2819 4750 3233 4129 
Q 3647 3509 3647 2328 
Q 3647 1150 3233 529 
Q 2819 -91 2034 -91 
Q 1250 -91 836 529 
Q 422 1150 422 2328 
Q 422 3509 836 4129 
Q 1250 4750 2034 4750 
z
" transform="scale(0.015625)"/>
           </defs>
           <use xlink:href="#DejaVuSans-30"/>
          </g>
         </g>
        </g>
        <g id="ytick_2">
         <g id="line2d_5">
          <g>
           <use xlink:href="#m81fc3c67f7" x="63.290625" y="265.68848" style="stroke: #000000; stroke-width: 0.8"/>
          </g>
         </g>
         <g id="text_5">
          <!-- 5000 -->
          <g transform="translate(30.840625 269.487699) scale(0.1 -0.1)">
           <defs>
            <path id="DejaVuSans-35" d="M 691 4666 
L 3169 4666 
L 3169 4134 
L 1269 4134 
L 1269 2991 
Q 1406 3038 1543 3061 
Q 1681 3084 1819 3084 
Q 2600 3084 3056 2656 
Q 3513 2228 3513 1497 
Q 3513 744 3044 326 
Q 2575 -91 1722 -91 
Q 1428 -91 1123 -41 
Q 819 9 494 109 
L 494 744 
Q 775 591 1075 516 
Q 1375 441 1709 441 
Q 2250 441 2565 725 
Q 2881 1009 2881 1497 
Q 2881 1984 2565 2268 
Q 2250 2553 1709 2553 
Q 1456 2553 1204 2497 
Q 953 2441 691 2322 
L 691 4666 
z
" transform="scale(0.015625)"/>
           </defs>
           <use xlink:href="#DejaVuSans-35"/>
           <use xlink:href="#DejaVuSans-30" x="63.623047"/>
           <use xlink:href="#DejaVuSans-30" x="127.246094"/>
           <use xlink:href="#DejaVuSans-30" x="190.869141"/>
          </g>
         </g>
        </g>
        <g id="ytick_3">
         <g id="line2d_6">
          <g>
           <use xlink:href="#m81fc3c67f7" x="63.290625" y="209.755085" style="stroke: #000000; stroke-width: 0.8"/>
          </g>
         </g>
         <g id="text_6">
          <!-- 10000 -->
          <g transform="translate(24.478125 213.554304) scale(0.1 -0.1)">
           <defs>
            <path id="DejaVuSans-31" d="M 794 531 
L 1825 531 
L 1825 4091 
L 703 3866 
L 703 4441 
L 1819 4666 
L 2450 4666 
L 2450 531 
L 3481 531 
L 3481 0 
L 794 0 
L 794 531 
z
" transform="scale(0.015625)"/>
           </defs>
           <use xlink:href="#DejaVuSans-31"/>
           <use xlink:href="#DejaVuSans-30" x="63.623047"/>
           <use xlink:href="#DejaVuSans-30" x="127.246094"/>
           <use xlink:href="#DejaVuSans-30" x="190.869141"/>
           <use xlink:href="#DejaVuSans-30" x="254.492188"/>
          </g>
         </g>
        </g>
        <g id="ytick_4">
         <g id="line2d_7">
          <g>
           <use xlink:href="#m81fc3c67f7" x="63.290625" y="153.821691" style="stroke: #000000; stroke-width: 0.8"/>
          </g>
         </g>
         <g id="text_7">
          <!-- 15000 -->
          <g transform="translate(24.478125 157.620909) scale(0.1 -0.1)">
           <use xlink:href="#DejaVuSans-31"/>
           <use xlink:href="#DejaVuSans-35" x="63.623047"/>
           <use xlink:href="#DejaVuSans-30" x="127.246094"/>
           <use xlink:href="#DejaVuSans-30" x="190.869141"/>
           <use xlink:href="#DejaVuSans-30" x="254.492188"/>
          </g>
         </g>
        </g>
        <g id="ytick_5">
         <g id="line2d_8">
          <g>
           <use xlink:href="#m81fc3c67f7" x="63.290625" y="97.888296" style="stroke: #000000; stroke-width: 0.8"/>
          </g>
         </g>
         <g id="text_8">
          <!-- 20000 -->
          <g transform="translate(24.478125 101.687514) scale(0.1 -0.1)">
           <defs>
            <path id="DejaVuSans-32" d="M 1228 531 
L 3431 531 
L 3431 0 
L 469 0 
L 469 531 
Q 828 903 1448 1529 
Q 2069 2156 2228 2338 
Q 2531 2678 2651 2914 
Q 2772 3150 2772 3378 
Q 2772 3750 2511 3984 
Q 2250 4219 1831 4219 
Q 1534 4219 1204 4116 
Q 875 4013 500 3803 
L 500 4441 
Q 881 4594 1212 4672 
Q 1544 4750 1819 4750 
Q 2544 4750 2975 4387 
Q 3406 4025 3406 3419 
Q 3406 3131 3298 2873 
Q 3191 2616 2906 2266 
Q 2828 2175 2409 1742 
Q 1991 1309 1228 531 
z
" transform="scale(0.015625)"/>
           </defs>
           <use xlink:href="#DejaVuSans-32"/>
           <use xlink:href="#DejaVuSans-30" x="63.623047"/>
           <use xlink:href="#DejaVuSans-30" x="127.246094"/>
           <use xlink:href="#DejaVuSans-30" x="190.869141"/>
           <use xlink:href="#DejaVuSans-30" x="254.492188"/>
          </g>
         </g>
        </g>
        <g id="ytick_6">
         <g id="line2d_9">
          <g>
           <use xlink:href="#m81fc3c67f7" x="63.290625" y="41.954901" style="stroke: #000000; stroke-width: 0.8"/>
          </g>
         </g>
         <g id="text_9">
          <!-- 25000 -->
          <g transform="translate(24.478125 45.75412) scale(0.1 -0.1)">
           <use xlink:href="#DejaVuSans-32"/>
           <use xlink:href="#DejaVuSans-35" x="63.623047"/>
           <use xlink:href="#DejaVuSans-30" x="127.246094"/>
           <use xlink:href="#DejaVuSans-30" x="190.869141"/>
           <use xlink:href="#DejaVuSans-30" x="254.492188"/>
          </g>
         </g>
        </g>
        <g id="text_10">
         <!-- time ago (generations) -->
         <g transform="translate(18.398438 223.682031) rotate(-90) scale(0.1 -0.1)">
          <defs>
           <path id="DejaVuSans-74" d="M 1172 4494 
L 1172 3500 
L 2356 3500 
L 2356 3053 
L 1172 3053 
L 1172 1153 
Q 1172 725 1289 603 
Q 1406 481 1766 481 
L 2356 481 
L 2356 0 
L 1766 0 
Q 1100 0 847 248 
Q 594 497 594 1153 
L 594 3053 
L 172 3053 
L 172 3500 
L 594 3500 
L 594 4494 
L 1172 4494 
z
" transform="scale(0.015625)"/>
           <path id="DejaVuSans-69" d="M 603 3500 
L 1178 3500 
L 1178 0 
L 603 0 
L 603 3500 
z
M 603 4863 
L 1178 4863 
L 1178 4134 
L 603 4134 
L 603 4863 
z
" transform="scale(0.015625)"/>
           <path id="DejaVuSans-6d" d="M 3328 2828 
Q 3544 3216 3844 3400 
Q 4144 3584 4550 3584 
Q 5097 3584 5394 3201 
Q 5691 2819 5691 2113 
L 5691 0 
L 5113 0 
L 5113 2094 
Q 5113 2597 4934 2840 
Q 4756 3084 4391 3084 
Q 3944 3084 3684 2787 
Q 3425 2491 3425 1978 
L 3425 0 
L 2847 0 
L 2847 2094 
Q 2847 2600 2669 2842 
Q 2491 3084 2119 3084 
Q 1678 3084 1418 2786 
Q 1159 2488 1159 1978 
L 1159 0 
L 581 0 
L 581 3500 
L 1159 3500 
L 1159 2956 
Q 1356 3278 1631 3431 
Q 1906 3584 2284 3584 
Q 2666 3584 2933 3390 
Q 3200 3197 3328 2828 
z
" transform="scale(0.015625)"/>
           <path id="DejaVuSans-65" d="M 3597 1894 
L 3597 1613 
L 953 1613 
Q 991 1019 1311 708 
Q 1631 397 2203 397 
Q 2534 397 2845 478 
Q 3156 559 3463 722 
L 3463 178 
Q 3153 47 2828 -22 
Q 2503 -91 2169 -91 
Q 1331 -91 842 396 
Q 353 884 353 1716 
Q 353 2575 817 3079 
Q 1281 3584 2069 3584 
Q 2775 3584 3186 3129 
Q 3597 2675 3597 1894 
z
M 3022 2063 
Q 3016 2534 2758 2815 
Q 2500 3097 2075 3097 
Q 1594 3097 1305 2825 
Q 1016 2553 972 2059 
L 3022 2063 
z
" transform="scale(0.015625)"/>
           <path id="DejaVuSans-20" transform="scale(0.015625)"/>
           <path id="DejaVuSans-61" d="M 2194 1759 
Q 1497 1759 1228 1600 
Q 959 1441 959 1056 
Q 959 750 1161 570 
Q 1363 391 1709 391 
Q 2188 391 2477 730 
Q 2766 1069 2766 1631 
L 2766 1759 
L 2194 1759 
z
M 3341 1997 
L 3341 0 
L 2766 0 
L 2766 531 
Q 2569 213 2275 61 
Q 1981 -91 1556 -91 
Q 1019 -91 701 211 
Q 384 513 384 1019 
Q 384 1609 779 1909 
Q 1175 2209 1959 2209 
L 2766 2209 
L 2766 2266 
Q 2766 2663 2505 2880 
Q 2244 3097 1772 3097 
Q 1472 3097 1187 3025 
Q 903 2953 641 2809 
L 641 3341 
Q 956 3463 1253 3523 
Q 1550 3584 1831 3584 
Q 2591 3584 2966 3190 
Q 3341 2797 3341 1997 
z
" transform="scale(0.015625)"/>
           <path id="DejaVuSans-67" d="M 2906 1791 
Q 2906 2416 2648 2759 
Q 2391 3103 1925 3103 
Q 1463 3103 1205 2759 
Q 947 2416 947 1791 
Q 947 1169 1205 825 
Q 1463 481 1925 481 
Q 2391 481 2648 825 
Q 2906 1169 2906 1791 
z
M 3481 434 
Q 3481 -459 3084 -895 
Q 2688 -1331 1869 -1331 
Q 1566 -1331 1297 -1286 
Q 1028 -1241 775 -1147 
L 775 -588 
Q 1028 -725 1275 -790 
Q 1522 -856 1778 -856 
Q 2344 -856 2625 -561 
Q 2906 -266 2906 331 
L 2906 616 
Q 2728 306 2450 153 
Q 2172 0 1784 0 
Q 1141 0 747 490 
Q 353 981 353 1791 
Q 353 2603 747 3093 
Q 1141 3584 1784 3584 
Q 2172 3584 2450 3431 
Q 2728 3278 2906 2969 
L 2906 3500 
L 3481 3500 
L 3481 434 
z
" transform="scale(0.015625)"/>
           <path id="DejaVuSans-6f" d="M 1959 3097 
Q 1497 3097 1228 2736 
Q 959 2375 959 1747 
Q 959 1119 1226 758 
Q 1494 397 1959 397 
Q 2419 397 2687 759 
Q 2956 1122 2956 1747 
Q 2956 2369 2687 2733 
Q 2419 3097 1959 3097 
z
M 1959 3584 
Q 2709 3584 3137 3096 
Q 3566 2609 3566 1747 
Q 3566 888 3137 398 
Q 2709 -91 1959 -91 
Q 1206 -91 779 398 
Q 353 888 353 1747 
Q 353 2609 779 3096 
Q 1206 3584 1959 3584 
z
" transform="scale(0.015625)"/>
           <path id="DejaVuSans-28" d="M 1984 4856 
Q 1566 4138 1362 3434 
Q 1159 2731 1159 2009 
Q 1159 1288 1364 580 
Q 1569 -128 1984 -844 
L 1484 -844 
Q 1016 -109 783 600 
Q 550 1309 550 2009 
Q 550 2706 781 3412 
Q 1013 4119 1484 4856 
L 1984 4856 
z
" transform="scale(0.015625)"/>
           <path id="DejaVuSans-6e" d="M 3513 2113 
L 3513 0 
L 2938 0 
L 2938 2094 
Q 2938 2591 2744 2837 
Q 2550 3084 2163 3084 
Q 1697 3084 1428 2787 
Q 1159 2491 1159 1978 
L 1159 0 
L 581 0 
L 581 3500 
L 1159 3500 
L 1159 2956 
Q 1366 3272 1645 3428 
Q 1925 3584 2291 3584 
Q 2894 3584 3203 3211 
Q 3513 2838 3513 2113 
z
" transform="scale(0.015625)"/>
           <path id="DejaVuSans-72" d="M 2631 2963 
Q 2534 3019 2420 3045 
Q 2306 3072 2169 3072 
Q 1681 3072 1420 2755 
Q 1159 2438 1159 1844 
L 1159 0 
L 581 0 
L 581 3500 
L 1159 3500 
L 1159 2956 
Q 1341 3275 1631 3429 
Q 1922 3584 2338 3584 
Q 2397 3584 2469 3576 
Q 2541 3569 2628 3553 
L 2631 2963 
z
" transform="scale(0.015625)"/>
           <path id="DejaVuSans-73" d="M 2834 3397 
L 2834 2853 
Q 2591 2978 2328 3040 
Q 2066 3103 1784 3103 
Q 1356 3103 1142 2972 
Q 928 2841 928 2578 
Q 928 2378 1081 2264 
Q 1234 2150 1697 2047 
L 1894 2003 
Q 2506 1872 2764 1633 
Q 3022 1394 3022 966 
Q 3022 478 2636 193 
Q 2250 -91 1575 -91 
Q 1294 -91 989 -36 
Q 684 19 347 128 
L 347 722 
Q 666 556 975 473 
Q 1284 391 1588 391 
Q 1994 391 2212 530 
Q 2431 669 2431 922 
Q 2431 1156 2273 1281 
Q 2116 1406 1581 1522 
L 1381 1569 
Q 847 1681 609 1914 
Q 372 2147 372 2553 
Q 372 3047 722 3315 
Q 1072 3584 1716 3584 
Q 2034 3584 2315 3537 
Q 2597 3491 2834 3397 
z
" transform="scale(0.015625)"/>
           <path id="DejaVuSans-29" d="M 513 4856 
L 1013 4856 
Q 1481 4119 1714 3412 
Q 1947 2706 1947 2009 
Q 1947 1309 1714 600 
Q 1481 -109 1013 -844 
L 513 -844 
Q 928 -128 1133 580 
Q 1338 1288 1338 2009 
Q 1338 2731 1133 3434 
Q 928 4138 513 4856 
z
" transform="scale(0.015625)"/>
          </defs>
          <use xlink:href="#DejaVuSans-74"/>
          <use xlink:href="#DejaVuSans-69" x="39.208984"/>
          <use xlink:href="#DejaVuSans-6d" x="66.992188"/>
          <use xlink:href="#DejaVuSans-65" x="164.404297"/>
          <use xlink:href="#DejaVuSans-20" x="225.927734"/>
          <use xlink:href="#DejaVuSans-61" x="257.714844"/>
          <use xlink:href="#DejaVuSans-67" x="318.994141"/>
          <use xlink:href="#DejaVuSans-6f" x="382.470703"/>
          <use xlink:href="#DejaVuSans-20" x="443.652344"/>
          <use xlink:href="#DejaVuSans-28" x="475.439453"/>
          <use xlink:href="#DejaVuSans-67" x="514.453125"/>
          <use xlink:href="#DejaVuSans-65" x="577.929688"/>
          <use xlink:href="#DejaVuSans-6e" x="639.453125"/>
          <use xlink:href="#DejaVuSans-65" x="702.832031"/>
          <use xlink:href="#DejaVuSans-72" x="764.355469"/>
          <use xlink:href="#DejaVuSans-61" x="805.46875"/>
          <use xlink:href="#DejaVuSans-74" x="866.748047"/>
          <use xlink:href="#DejaVuSans-69" x="905.957031"/>
          <use xlink:href="#DejaVuSans-6f" x="933.740234"/>
          <use xlink:href="#DejaVuSans-6e" x="994.921875"/>
          <use xlink:href="#DejaVuSans-73" x="1058.300781"/>
          <use xlink:href="#DejaVuSans-29" x="1110.400391"/>
         </g>
        </g>
       </g>
       <g id="patch_7">
        <path d="M 236.395392 252.655999 
L 235.395392 252.624563 
L 234.395392 252.587622 
L 233.395392 252.489876 
L 232.395392 252.457354 
L 231.395392 252.38373 
L 230.395392 252.345164 
L 229.395392 252.309751 
L 228.395392 252.252111 
L 227.395392 252.181725 
L 226.395392 252.129761 
L 225.395392 252.070671 
L 224.395392 251.98235 
L 223.395392 251.936206 
L 222.395392 251.893795 
L 221.395392 251.863302 
L 220.395392 251.837257 
L 219.395392 251.816057 
L 218.395392 251.761756 
L 217.395392 251.733818 
L 216.395392 251.704094 
L 215.395392 251.678699 
L 214.395392 251.667499 
L 213.395392 251.657375 
L 212.395392 251.657579 
L 211.395392 251.667089 
L 210.395392 251.678743 
L 209.395392 251.709772 
L 208.395392 251.72094 
L 207.395392 251.751058 
L 206.395392 251.810835 
L 205.395392 251.848026 
L 204.395392 251.887122 
L 203.395392 251.929562 
L 202.395392 251.962327 
L 201.395392 252.029753 
L 200.395392 252.068879 
L 199.395392 252.111554 
L 198.395392 252.182134 
L 197.395392 252.218525 
L 196.395392 252.276928 
L 195.395392 252.387881 
L 194.395392 252.458539 
L 193.395392 252.571479 
L 192.395392 252.617252 
L 191.395392 252.678535 
L 190.395392 252.727035 
L 189.395392 252.807857 
L 188.395392 252.926376 
L 187.395392 252.996587 
L 186.395392 253.079849 
L 185.395392 253.112991 
L 184.395392 253.164228 
L 183.395392 253.232627 
L 182.395392 253.298842 
L 181.395392 253.375759 
L 180.395392 253.403075 
L 179.395392 253.429552 
L 178.395392 253.452203 
L 177.395392 253.471734 
L 176.395392 253.498128 
L 175.395392 253.547899 
L 174.178771 253.582972 
" clip-path="url(#p2ebaa6ea59)" style="fill: none; stroke: #ffffff; stroke-width: 3; stroke-linecap: round"/>
        <path d="M 236.395392 252.655999 
L 235.395392 252.624563 
L 234.395392 252.587622 
L 233.395392 252.489876 
L 232.395392 252.457354 
L 231.395392 252.38373 
L 230.395392 252.345164 
L 229.395392 252.309751 
L 228.395392 252.252111 
L 227.395392 252.181725 
L 226.395392 252.129761 
L 225.395392 252.070671 
L 224.395392 251.98235 
L 223.395392 251.936206 
L 222.395392 251.893795 
L 221.395392 251.863302 
L 220.395392 251.837257 
L 219.395392 251.816057 
L 218.395392 251.761756 
L 217.395392 251.733818 
L 216.395392 251.704094 
L 215.395392 251.678699 
L 214.395392 251.667499 
L 213.395392 251.657375 
L 212.395392 251.657579 
L 211.395392 251.667089 
L 210.395392 251.678743 
L 209.395392 251.709772 
L 208.395392 251.72094 
L 207.395392 251.751058 
L 206.395392 251.810835 
L 205.395392 251.848026 
L 204.395392 251.887122 
L 203.395392 251.929562 
L 202.395392 251.962327 
L 201.395392 252.029753 
L 200.395392 252.068879 
L 199.395392 252.111554 
L 198.395392 252.182134 
L 197.395392 252.218525 
L 196.395392 252.276928 
L 195.395392 252.387881 
L 194.395392 252.458539 
L 193.395392 252.571479 
L 192.395392 252.617252 
L 191.395392 252.678535 
L 190.395392 252.727035 
L 189.395392 252.807857 
L 188.395392 252.926376 
L 187.395392 252.996587 
L 186.395392 253.079849 
L 185.395392 253.112991 
L 184.395392 253.164228 
L 183.395392 253.232627 
L 182.395392 253.298842 
L 181.395392 253.375759 
L 180.395392 253.403075 
L 179.395392 253.429552 
L 178.395392 253.452203 
L 177.395392 253.471734 
L 176.395392 253.498128 
L 175.395392 253.547899 
L 174.178771 253.582972 
" clip-path="url(#p2ebaa6ea59)" style="fill: none; stroke: #1f77b4; stroke-linecap: round"/>
        <path d="M 178.178771 254.655999 
L 177.298402 254.180668 
L 176.420495 253.700414 
L 175.569782 253.165773 
L 174.267607 252.478326 
L 175.19496 252.452311 
L 176.106635 252.039591 
L 177.016899 251.624052 
L 178.359395 251.017248 
L 177.704496 251.655999 
L 177.652532 252.655999 
L 177.593442 254.655999 
z
" clip-path="url(#p2ebaa6ea59)" style="fill: #ffffff; stroke: #ffffff; stroke-width: 3; stroke-linecap: round"/>
        <path d="M 178.178771 254.655999 
L 177.298402 254.180668 
L 176.420495 253.700414 
L 175.569782 253.165773 
L 174.267607 252.478326 
L 175.19496 252.452311 
L 176.106635 252.039591 
L 177.016899 251.624052 
L 178.359395 251.017248 
L 177.704496 251.655999 
L 177.652532 252.655999 
L 177.593442 254.655999 
z
" clip-path="url(#p2ebaa6ea59)" style="fill: #ffffff; stroke: #1f77b4; stroke-linecap: round"/>
        <g id="patch_8">
         <path d="M 381.903161 72.964375 
L 382.903161 72.995811 
L 383.903161 73.032752 
L 384.903161 73.130498 
L 385.903161 73.16302 
L 386.903161 73.236645 
L 387.903161 73.27521 
L 388.903161 73.310623 
L 389.903161 73.368263 
L 390.903161 73.438649 
L 391.903161 73.490614 
L 392.903161 73.549703 
L 393.903161 73.638024 
L 394.903161 73.684169 
L 395.903161 73.72658 
L 396.903161 73.757072 
L 397.903161 73.783117 
L 398.903161 73.804317 
L 399.903161 73.858618 
L 400.903161 73.886556 
L 401.903161 73.91628 
L 402.903161 73.941675 
L 403.903161 73.952875 
L 404.903161 73.962999 
L 405.903161 73.962795 
L 406.903161 73.953285 
L 407.903161 73.941631 
L 408.903161 73.910602 
L 409.903161 73.899434 
L 410.903161 73.869317 
L 411.903161 73.80954 
L 412.903161 73.772348 
L 413.903161 73.733252 
L 414.903161 73.690812 
L 415.903161 73.658047 
L 416.903161 73.590621 
L 417.903161 73.551495 
L 418.903161 73.50882 
L 419.903161 73.43824 
L 420.903161 73.401849 
L 421.903161 73.343446 
L 422.903161 73.232493 
L 423.903161 73.161835 
L 424.903161 73.048895 
L 425.903161 73.003122 
L 426.903161 72.941839 
L 427.903161 72.89334 
L 428.903161 72.812517 
L 429.903161 72.693998 
L 430.903161 72.623787 
L 431.903161 72.540525 
L 432.903161 72.507383 
L 433.903161 72.456146 
L 434.903161 72.387747 
L 435.903161 72.321532 
L 436.903161 72.244615 
L 437.903161 72.217299 
L 438.903161 72.190822 
L 439.903161 72.168171 
L 440.903161 72.14864 
L 441.903161 72.122246 
L 442.903161 72.072475 
L 443.903161 72.037402 
L 444.903161 72.001536 
L 445.903161 71.986169 
L 446.903161 71.9704 
L 447.903161 71.966987 
L 448.903161 71.96457 
L 449.903161 71.965056 
L 450.903161 71.966985 
L 451.903161 71.980242 
L 452.903161 71.988633 
L 453.903161 72.010169 
L 454.903161 72.033202 
L 455.903161 72.050435 
L 456.903161 72.068898 
L 457.903161 72.08935 
L 458.903161 72.10595 
L 459.903161 72.168729 
L 460.903161 72.243994 
L 461.903161 72.276633 
L 462.903161 72.344197 
L 463.903161 72.398244 
L 464.903161 72.431948 
L 465.903161 72.522074 
L 466.903161 72.550609 
L 467.903161 72.582095 
L 468.903161 72.613106 
L 469.903161 72.667914 
L 470.903161 72.732501 
L 471.903161 72.770697 
L 472.903161 72.866631 
L 473.903161 72.915889 
L 474.903161 72.959958 
L 475.903161 73.000082 
L 476.903161 73.108449 
L 477.903161 73.150077 
L 478.903161 73.212219 
L 479.903161 73.282181 
L 480.903161 73.386685 
L 481.903161 73.423673 
L 482.903161 73.46955 
L 483.903161 73.538045 
L 484.903161 73.586791 
L 485.903161 73.664388 
L 486.903161 73.694929 
L 487.903161 73.764443 
L 488.903161 73.788416 
L 489.903161 73.817038 
L 490.903161 73.858831 
L 491.903161 73.880407 
L 492.903161 73.894355 
L 493.903161 73.921077 
L 494.903161 73.930387 
L 495.903161 73.942834 
L 496.903161 73.953889 
L 497.903161 73.959553 
L 498.903161 73.964317 
L 499.903161 73.958769 
L 500.903161 73.945481 
L 501.903161 73.937964 
L 502.903161 73.913179 
L 503.903161 73.88961 
L 504.903161 73.85343 
L 505.903161 73.827468 
L 506.903161 73.805146 
L 507.903161 73.736386 
L 508.903161 73.661851 
L 509.903161 73.567872 
L 510.903161 73.51682 
L 511.903161 73.462886 
L 512.903161 73.427635 
L 513.903161 73.321547 
L 515.328573 73.269283 
" clip-path="url(#p2ebaa6ea59)" style="fill: none; stroke: #ffffff; stroke-width: 3; stroke-linecap: round"/>
         <path d="M 381.903161 72.964375 
L 382.903161 72.995811 
L 383.903161 73.032752 
L 384.903161 73.130498 
L 385.903161 73.16302 
L 386.903161 73.236645 
L 387.903161 73.27521 
L 388.903161 73.310623 
L 389.903161 73.368263 
L 390.903161 73.438649 
L 391.903161 73.490614 
L 392.903161 73.549703 
L 393.903161 73.638024 
L 394.903161 73.684169 
L 395.903161 73.72658 
L 396.903161 73.757072 
L 397.903161 73.783117 
L 398.903161 73.804317 
L 399.903161 73.858618 
L 400.903161 73.886556 
L 401.903161 73.91628 
L 402.903161 73.941675 
L 403.903161 73.952875 
L 404.903161 73.962999 
L 405.903161 73.962795 
L 406.903161 73.953285 
L 407.903161 73.941631 
L 408.903161 73.910602 
L 409.903161 73.899434 
L 410.903161 73.869317 
L 411.903161 73.80954 
L 412.903161 73.772348 
L 413.903161 73.733252 
L 414.903161 73.690812 
L 415.903161 73.658047 
L 416.903161 73.590621 
L 417.903161 73.551495 
L 418.903161 73.50882 
L 419.903161 73.43824 
L 420.903161 73.401849 
L 421.903161 73.343446 
L 422.903161 73.232493 
L 423.903161 73.161835 
L 424.903161 73.048895 
L 425.903161 73.003122 
L 426.903161 72.941839 
L 427.903161 72.89334 
L 428.903161 72.812517 
L 429.903161 72.693998 
L 430.903161 72.623787 
L 431.903161 72.540525 
L 432.903161 72.507383 
L 433.903161 72.456146 
L 434.903161 72.387747 
L 435.903161 72.321532 
L 436.903161 72.244615 
L 437.903161 72.217299 
L 438.903161 72.190822 
L 439.903161 72.168171 
L 440.903161 72.14864 
L 441.903161 72.122246 
L 442.903161 72.072475 
L 443.903161 72.037402 
L 444.903161 72.001536 
L 445.903161 71.986169 
L 446.903161 71.9704 
L 447.903161 71.966987 
L 448.903161 71.96457 
L 449.903161 71.965056 
L 450.903161 71.966985 
L 451.903161 71.980242 
L 452.903161 71.988633 
L 453.903161 72.010169 
L 454.903161 72.033202 
L 455.903161 72.050435 
L 456.903161 72.068898 
L 457.903161 72.08935 
L 458.903161 72.10595 
L 459.903161 72.168729 
L 460.903161 72.243994 
L 461.903161 72.276633 
L 462.903161 72.344197 
L 463.903161 72.398244 
L 464.903161 72.431948 
L 465.903161 72.522074 
L 466.903161 72.550609 
L 467.903161 72.582095 
L 468.903161 72.613106 
L 469.903161 72.667914 
L 470.903161 72.732501 
L 471.903161 72.770697 
L 472.903161 72.866631 
L 473.903161 72.915889 
L 474.903161 72.959958 
L 475.903161 73.000082 
L 476.903161 73.108449 
L 477.903161 73.150077 
L 478.903161 73.212219 
L 479.903161 73.282181 
L 480.903161 73.386685 
L 481.903161 73.423673 
L 482.903161 73.46955 
L 483.903161 73.538045 
L 484.903161 73.586791 
L 485.903161 73.664388 
L 486.903161 73.694929 
L 487.903161 73.764443 
L 488.903161 73.788416 
L 489.903161 73.817038 
L 490.903161 73.858831 
L 491.903161 73.880407 
L 492.903161 73.894355 
L 493.903161 73.921077 
L 494.903161 73.930387 
L 495.903161 73.942834 
L 496.903161 73.953889 
L 497.903161 73.959553 
L 498.903161 73.964317 
L 499.903161 73.958769 
L 500.903161 73.945481 
L 501.903161 73.937964 
L 502.903161 73.913179 
L 503.903161 73.88961 
L 504.903161 73.85343 
L 505.903161 73.827468 
L 506.903161 73.805146 
L 507.903161 73.736386 
L 508.903161 73.661851 
L 509.903161 73.567872 
L 510.903161 73.51682 
L 511.903161 73.462886 
L 512.903161 73.427635 
L 513.903161 73.321547 
L 515.328573 73.269283 
" clip-path="url(#p2ebaa6ea59)" style="fill: none; stroke: #1f77b4; stroke-linecap: round"/>
         <path d="M 511.328573 70.964375 
L 512.208942 71.439706 
L 513.086849 71.91996 
L 513.937562 72.454601 
L 515.239737 73.142048 
L 514.312383 73.168063 
L 513.400709 73.580783 
L 512.490445 73.996322 
L 511.147949 74.603126 
L 511.802848 73.964375 
L 511.854812 72.964375 
L 511.913902 70.964375 
z
" clip-path="url(#p2ebaa6ea59)" style="fill: #ffffff; stroke: #ffffff; stroke-width: 3; stroke-linecap: round"/>
         <path d="M 511.328573 70.964375 
L 512.208942 71.439706 
L 513.086849 71.91996 
L 513.937562 72.454601 
L 515.239737 73.142048 
L 514.312383 73.168063 
L 513.400709 73.580783 
L 512.490445 73.996322 
L 511.147949 74.603126 
L 511.802848 73.964375 
L 511.854812 72.964375 
L 511.913902 70.964375 
z
" clip-path="url(#p2ebaa6ea59)" style="fill: #ffffff; stroke: #1f77b4; stroke-linecap: round"/>
         <g id="patch_9">
          <path d="M 173.065535 279.078935 
L 174.065535 279.110371 
L 175.065535 279.147312 
L 176.065535 279.245058 
L 177.065535 279.27758 
L 178.065535 279.351204 
L 179.065535 279.38977 
L 180.065535 279.425183 
L 181.065535 279.482823 
L 182.065535 279.553209 
L 183.065535 279.605174 
L 184.065535 279.664263 
L 185.065535 279.752584 
L 186.065535 279.798729 
L 187.065535 279.841139 
L 188.065535 279.871632 
L 189.065535 279.897677 
L 190.065535 279.918877 
L 191.065535 279.973178 
L 192.065535 280.001116 
L 193.065535 280.03084 
L 194.065535 280.056235 
L 195.065535 280.067435 
L 196.065535 280.077559 
L 197.065535 280.077355 
L 198.065535 280.067845 
L 199.065535 280.056191 
L 200.065535 280.025162 
L 201.065535 280.013994 
L 202.065535 279.983877 
L 203.065535 279.9241 
L 204.065535 279.886908 
L 205.065535 279.847812 
L 206.065535 279.805372 
L 207.065535 279.772607 
L 208.065535 279.705181 
L 209.065535 279.666055 
L 210.065535 279.62338 
L 211.065535 279.5528 
L 212.065535 279.516409 
L 213.065535 279.458006 
L 214.065535 279.347053 
L 215.065535 279.276395 
L 216.065535 279.163455 
L 217.065535 279.117682 
L 218.065535 279.056399 
L 219.065535 279.007899 
L 220.065535 278.927077 
L 221.065535 278.808558 
L 222.065535 278.738347 
L 223.065535 278.655085 
L 224.065535 278.621943 
L 225.065535 278.570706 
L 226.065535 278.502307 
L 227.065535 278.436092 
L 228.065535 278.359175 
L 229.065535 278.331859 
L 230.065535 278.305382 
L 231.065535 278.282731 
L 232.065535 278.2632 
L 233.065535 278.236806 
L 234.065535 278.187035 
L 235.065535 278.151962 
L 236.065535 278.116096 
L 237.065535 278.100729 
L 238.065535 278.08496 
L 239.065535 278.081547 
L 240.065535 278.07913 
L 241.065535 278.079616 
L 242.065535 278.081545 
L 243.065535 278.094802 
L 244.065535 278.103192 
L 245.065535 278.124729 
L 246.065535 278.147762 
L 247.065535 278.164995 
L 248.065535 278.183458 
L 249.065535 278.20391 
L 250.065535 278.22051 
L 251.065535 278.283289 
L 252.065535 278.358554 
L 253.065535 278.391193 
L 254.065535 278.458756 
L 255.065535 278.512804 
L 256.065535 278.546508 
L 257.065535 278.636634 
L 258.065535 278.665169 
L 259.065535 278.696655 
L 260.065535 278.727666 
L 261.065535 278.782474 
L 262.065535 278.847061 
L 263.065535 278.885256 
L 264.065535 278.981191 
L 265.065535 279.030449 
L 266.065535 279.074518 
L 267.065535 279.114642 
L 268.065535 279.223009 
L 269.065535 279.264637 
L 270.065535 279.326778 
L 271.065535 279.396741 
L 272.065535 279.501245 
L 273.065535 279.538233 
L 274.065535 279.58411 
L 275.065535 279.652605 
L 276.065535 279.70135 
L 277.065535 279.778948 
L 278.065535 279.809489 
L 279.065535 279.879003 
L 280.065535 279.902976 
L 281.065535 279.931598 
L 282.065535 279.973391 
L 283.065535 279.994967 
L 284.065535 280.008915 
L 285.065535 280.035637 
L 286.065535 280.044947 
L 287.065535 280.057394 
L 288.065535 280.068448 
L 289.065535 280.074113 
L 290.065535 280.078877 
L 291.065535 280.073329 
L 292.065535 280.060041 
L 293.065535 280.052524 
L 294.065535 280.027739 
L 295.065535 280.00417 
L 296.065535 279.967989 
L 297.065535 279.942028 
L 298.065535 279.919706 
L 299.065535 279.850946 
L 300.065535 279.776411 
L 301.065535 279.682432 
L 302.065535 279.63138 
L 303.065535 279.577446 
L 304.065535 279.542195 
L 305.065535 279.436107 
L 306.065535 279.383843 
L 307.065535 279.346936 
L 308.065535 279.315905 
L 309.065535 279.25475 
L 310.065535 279.18733 
L 311.065535 279.138424 
L 312.065535 279.073232 
L 313.065535 279.035044 
L 314.065535 278.993048 
L 315.065535 278.951031 
L 316.065535 278.891514 
L 317.065535 278.778355 
L 318.065535 278.726104 
L 319.065535 278.686686 
L 320.065535 278.639585 
L 321.065535 278.582805 
L 322.065535 278.550142 
L 323.065535 278.513964 
L 324.065535 278.481873 
L 325.065535 278.447594 
L 326.065535 278.389216 
L 327.065535 278.344031 
L 328.065535 278.314407 
L 329.065535 278.264021 
L 330.065535 278.238824 
L 331.065535 278.217773 
L 332.065535 278.182805 
L 333.065535 278.158515 
L 334.065535 278.144448 
L 335.065535 278.125506 
L 336.065535 278.109844 
L 337.065535 278.097293 
L 338.065535 278.091457 
L 339.065535 278.084574 
L 340.065535 278.079401 
L 341.065535 278.081183 
L 342.065535 278.083909 
L 343.065535 278.095063 
L 344.065535 278.123298 
L 345.065535 278.167086 
L 346.065535 278.187775 
L 347.065535 278.228748 
L 348.065535 278.268823 
L 349.065535 278.287933 
L 350.065535 278.310442 
L 351.065535 278.377093 
L 352.065535 278.426802 
L 353.065535 278.500509 
L 354.065535 278.531823 
L 355.065535 278.608445 
L 356.065535 278.646743 
L 357.065535 278.72086 
L 358.065535 278.824918 
L 359.065535 278.894749 
L 360.065535 278.999982 
L 361.065535 279.054998 
L 362.065535 279.178473 
L 363.065535 279.249032 
L 364.065535 279.364871 
L 365.065535 279.415052 
L 366.065535 279.450656 
L 367.065535 279.542063 
L 368.065535 279.59557 
L 369.065535 279.683479 
L 370.065535 279.752664 
L 371.065535 279.799428 
L 372.065535 279.871472 
L 373.065535 279.921614 
L 374.065535 279.939004 
L 375.065535 279.966007 
L 376.065535 279.985434 
L 377.065535 280.004772 
L 378.065535 280.043021 
L 379.065535 280.059454 
L 380.065535 280.067823 
L 381.065535 280.072142 
L 382.065535 280.078697 
L 383.065535 280.076151 
L 384.065535 280.070692 
L 385.065535 280.054264 
L 386.065535 280.022329 
L 387.065535 279.984349 
L 388.065535 279.949545 
L 389.065535 279.886473 
L 390.065535 279.865046 
L 391.065535 279.814428 
L 393.059212 279.789471 
" clip-path="url(#p2ebaa6ea59)" style="fill: none; stroke: #ffffff; stroke-width: 3; stroke-linecap: round"/>
          <path d="M 173.065535 279.078935 
L 174.065535 279.110371 
L 175.065535 279.147312 
L 176.065535 279.245058 
L 177.065535 279.27758 
L 178.065535 279.351204 
L 179.065535 279.38977 
L 180.065535 279.425183 
L 181.065535 279.482823 
L 182.065535 279.553209 
L 183.065535 279.605174 
L 184.065535 279.664263 
L 185.065535 279.752584 
L 186.065535 279.798729 
L 187.065535 279.841139 
L 188.065535 279.871632 
L 189.065535 279.897677 
L 190.065535 279.918877 
L 191.065535 279.973178 
L 192.065535 280.001116 
L 193.065535 280.03084 
L 194.065535 280.056235 
L 195.065535 280.067435 
L 196.065535 280.077559 
L 197.065535 280.077355 
L 198.065535 280.067845 
L 199.065535 280.056191 
L 200.065535 280.025162 
L 201.065535 280.013994 
L 202.065535 279.983877 
L 203.065535 279.9241 
L 204.065535 279.886908 
L 205.065535 279.847812 
L 206.065535 279.805372 
L 207.065535 279.772607 
L 208.065535 279.705181 
L 209.065535 279.666055 
L 210.065535 279.62338 
L 211.065535 279.5528 
L 212.065535 279.516409 
L 213.065535 279.458006 
L 214.065535 279.347053 
L 215.065535 279.276395 
L 216.065535 279.163455 
L 217.065535 279.117682 
L 218.065535 279.056399 
L 219.065535 279.007899 
L 220.065535 278.927077 
L 221.065535 278.808558 
L 222.065535 278.738347 
L 223.065535 278.655085 
L 224.065535 278.621943 
L 225.065535 278.570706 
L 226.065535 278.502307 
L 227.065535 278.436092 
L 228.065535 278.359175 
L 229.065535 278.331859 
L 230.065535 278.305382 
L 231.065535 278.282731 
L 232.065535 278.2632 
L 233.065535 278.236806 
L 234.065535 278.187035 
L 235.065535 278.151962 
L 236.065535 278.116096 
L 237.065535 278.100729 
L 238.065535 278.08496 
L 239.065535 278.081547 
L 240.065535 278.07913 
L 241.065535 278.079616 
L 242.065535 278.081545 
L 243.065535 278.094802 
L 244.065535 278.103192 
L 245.065535 278.124729 
L 246.065535 278.147762 
L 247.065535 278.164995 
L 248.065535 278.183458 
L 249.065535 278.20391 
L 250.065535 278.22051 
L 251.065535 278.283289 
L 252.065535 278.358554 
L 253.065535 278.391193 
L 254.065535 278.458756 
L 255.065535 278.512804 
L 256.065535 278.546508 
L 257.065535 278.636634 
L 258.065535 278.665169 
L 259.065535 278.696655 
L 260.065535 278.727666 
L 261.065535 278.782474 
L 262.065535 278.847061 
L 263.065535 278.885256 
L 264.065535 278.981191 
L 265.065535 279.030449 
L 266.065535 279.074518 
L 267.065535 279.114642 
L 268.065535 279.223009 
L 269.065535 279.264637 
L 270.065535 279.326778 
L 271.065535 279.396741 
L 272.065535 279.501245 
L 273.065535 279.538233 
L 274.065535 279.58411 
L 275.065535 279.652605 
L 276.065535 279.70135 
L 277.065535 279.778948 
L 278.065535 279.809489 
L 279.065535 279.879003 
L 280.065535 279.902976 
L 281.065535 279.931598 
L 282.065535 279.973391 
L 283.065535 279.994967 
L 284.065535 280.008915 
L 285.065535 280.035637 
L 286.065535 280.044947 
L 287.065535 280.057394 
L 288.065535 280.068448 
L 289.065535 280.074113 
L 290.065535 280.078877 
L 291.065535 280.073329 
L 292.065535 280.060041 
L 293.065535 280.052524 
L 294.065535 280.027739 
L 295.065535 280.00417 
L 296.065535 279.967989 
L 297.065535 279.942028 
L 298.065535 279.919706 
L 299.065535 279.850946 
L 300.065535 279.776411 
L 301.065535 279.682432 
L 302.065535 279.63138 
L 303.065535 279.577446 
L 304.065535 279.542195 
L 305.065535 279.436107 
L 306.065535 279.383843 
L 307.065535 279.346936 
L 308.065535 279.315905 
L 309.065535 279.25475 
L 310.065535 279.18733 
L 311.065535 279.138424 
L 312.065535 279.073232 
L 313.065535 279.035044 
L 314.065535 278.993048 
L 315.065535 278.951031 
L 316.065535 278.891514 
L 317.065535 278.778355 
L 318.065535 278.726104 
L 319.065535 278.686686 
L 320.065535 278.639585 
L 321.065535 278.582805 
L 322.065535 278.550142 
L 323.065535 278.513964 
L 324.065535 278.481873 
L 325.065535 278.447594 
L 326.065535 278.389216 
L 327.065535 278.344031 
L 328.065535 278.314407 
L 329.065535 278.264021 
L 330.065535 278.238824 
L 331.065535 278.217773 
L 332.065535 278.182805 
L 333.065535 278.158515 
L 334.065535 278.144448 
L 335.065535 278.125506 
L 336.065535 278.109844 
L 337.065535 278.097293 
L 338.065535 278.091457 
L 339.065535 278.084574 
L 340.065535 278.079401 
L 341.065535 278.081183 
L 342.065535 278.083909 
L 343.065535 278.095063 
L 344.065535 278.123298 
L 345.065535 278.167086 
L 346.065535 278.187775 
L 347.065535 278.228748 
L 348.065535 278.268823 
L 349.065535 278.287933 
L 350.065535 278.310442 
L 351.065535 278.377093 
L 352.065535 278.426802 
L 353.065535 278.500509 
L 354.065535 278.531823 
L 355.065535 278.608445 
L 356.065535 278.646743 
L 357.065535 278.72086 
L 358.065535 278.824918 
L 359.065535 278.894749 
L 360.065535 278.999982 
L 361.065535 279.054998 
L 362.065535 279.178473 
L 363.065535 279.249032 
L 364.065535 279.364871 
L 365.065535 279.415052 
L 366.065535 279.450656 
L 367.065535 279.542063 
L 368.065535 279.59557 
L 369.065535 279.683479 
L 370.065535 279.752664 
L 371.065535 279.799428 
L 372.065535 279.871472 
L 373.065535 279.921614 
L 374.065535 279.939004 
L 375.065535 279.966007 
L 376.065535 279.985434 
L 377.065535 280.004772 
L 378.065535 280.043021 
L 379.065535 280.059454 
L 380.065535 280.067823 
L 381.065535 280.072142 
L 382.065535 280.078697 
L 383.065535 280.076151 
L 384.065535 280.070692 
L 385.065535 280.054264 
L 386.065535 280.022329 
L 387.065535 279.984349 
L 388.065535 279.949545 
L 389.065535 279.886473 
L 390.065535 279.865046 
L 391.065535 279.814428 
L 393.059212 279.789471 
" clip-path="url(#p2ebaa6ea59)" style="fill: none; stroke: #ff7f0e; stroke-linecap: round"/>
          <path d="M 389.059212 277.078935 
L 389.93958 277.554266 
L 390.817487 278.03452 
L 391.668201 278.569161 
L 392.970375 279.256608 
L 392.043022 279.282623 
L 391.131348 279.695343 
L 390.221083 280.110882 
L 388.878588 280.717686 
L 389.533486 280.078935 
L 389.58545 279.078935 
L 389.64454 277.078935 
z
" clip-path="url(#p2ebaa6ea59)" style="fill: #ffffff; stroke: #ffffff; stroke-width: 3; stroke-linecap: round"/>
          <path d="M 389.059212 277.078935 
L 389.93958 277.554266 
L 390.817487 278.03452 
L 391.668201 278.569161 
L 392.970375 279.256608 
L 392.043022 279.282623 
L 391.131348 279.695343 
L 390.221083 280.110882 
L 388.878588 280.717686 
L 389.533486 280.078935 
L 389.58545 279.078935 
L 389.64454 277.078935 
z
" clip-path="url(#p2ebaa6ea59)" style="fill: #ffffff; stroke: #ff7f0e; stroke-linecap: round"/>
          <path d="M 467.119081 303.700815 
" clip-path="url(#p2ebaa6ea59)" style="fill: none; stroke-dasharray: 3.7,1.6; stroke-dashoffset: 0; stroke: #2ca02c"/>
          <path d="M 466.119081 303.700815 
L 468.119081 304.700815 
L 468.119081 302.700815 
z
" clip-path="url(#p2ebaa6ea59)" style="fill: #2ca02c; stroke: #2ca02c; stroke-linejoin: miter"/>
          <g id="patch_10">
           <path d="M 63.290625 321.621875 
L 63.290625 10.8 
" style="fill: none; stroke: #000000; stroke-width: 0.8; stroke-linejoin: miter; stroke-linecap: square"/>
          </g>
          <g id="text_11">
           <g id="patch_11">
            <path d="M 298.49776 138.567062 
L 319.802447 138.567062 
Q 321.802447 138.567062 321.802447 136.567062 
L 321.802447 126.888937 
Q 321.802447 124.888937 319.802447 124.888937 
L 298.49776 124.888937 
Q 296.49776 124.888937 296.49776 126.888937 
L 296.49776 136.567062 
Q 296.49776 138.567062 298.49776 138.567062 
z
" style="fill: #ffffff; opacity: 0.6"/>
           </g>
           <!-- ANC -->
           <g transform="translate(298.49776 134.487375) scale(0.1 -0.1)">
            <defs>
             <path id="DejaVuSans-4e" d="M 628 4666 
L 1478 4666 
L 3547 763 
L 3547 4666 
L 4159 4666 
L 4159 0 
L 3309 0 
L 1241 3903 
L 1241 0 
L 628 0 
L 628 4666 
z
" transform="scale(0.015625)"/>
            </defs>
            <use xlink:href="#DejaVuSans-41"/>
            <use xlink:href="#DejaVuSans-4e" x="68.408203"/>
            <use xlink:href="#DejaVuSans-43" x="143.212891"/>
           </g>
          </g>
         </g>
        </g>
        <defs>
         <clipPath id="p2ebaa6ea59">
          <rect x="63.290625" y="10.8" width="540.309375" height="310.821875"/>
         </clipPath>
        </defs>
       </g>
      </g>
     </g>
    </g>
   </g>
  </g>
 </g>
</svg>
