<?xml version="1.0" encoding="utf-8" standalone="no"?>
<!DOCTYPE svg PUBLIC "-//W3C//DTD SVG 1.1//EN"
  "http://www.w3.org/Graphics/SVG/1.1/DTD/svg11.dtd">
<svg xmlns:xlink="http://www.w3.org/1999/xlink" width="614.4pt" height="345.6pt" viewBox="0 0 614.4 345.6" xmlns="http://www.w3.org/2000/svg" version="1.1">
 <metadata>
  <rdf:RDF xmlns:dc="http://purl.org/dc/elements/1.1/" xmlns:cc="http://creativecommons.org/ns#" xmlns:rdf="http://www.w3.org/1999/02/22-rdf-syntax-ns#">
   <cc:Work>
    <dc:type rdf:resource="http://purl.org/dc/dcmitype/StillImage"/>
    <dc:date>2024-04-17T19:48:36.218707</dc:date>
    <dc:format>image/svg+xml</dc:format>
    <dc:creator>
     <cc:Agent>
      <dc:title>Matplotlib v3.7.1, https://matplotlib.org/</dc:title>
     </cc:Agent>
    </dc:creator>
   </cc:Work>
  </rdf:RDF>
 </metadata>
 <defs>
  <style type="text/css">*{stroke-linejoin: round; stroke-linecap: butt}</style>
 </defs>
 <g id="figure_1">
  <g id="patch_1">
   <path d="M 0 345.6 
L 614.4 345.6 
L 614.4 0 
L 0 0 
z
" style="fill: #ffffff"/>
  </g>
  <g id="axes_1">
   <g id="patch_2">
    <path d="M 63.290625 321.621875 
L 603.6 321.621875 
L 603.6 10.8 
L 63.290625 10.8 
z
" style="fill: #ffffff"/>
   </g>
   <path d="M 532.766726 290.939247 
L 531.766726 290.90781 
L 530.766726 290.87087 
L 529.766726 290.773123 
L 528.766726 290.740602 
L 527.766726 290.666977 
L 526.766726 290.628411 
L 525.766726 290.592998 
L 524.766726 290.535358 
L 523.766726 290.464972 
L 522.766726 290.413008 
L 521.766726 290.353918 
L 520.766726 290.265597 
L 519.766726 290.219453 
L 518.766726 290.177042 
L 517.766726 290.146549 
L 516.766726 290.120504 
L 515.766726 290.099304 
L 514.766726 290.045003 
L 513.766726 290.017066 
L 512.766726 289.987342 
L 511.766726 289.961947 
L 510.766726 289.950746 
L 509.766726 289.940622 
L 508.766726 289.940827 
L 507.766726 289.950337 
L 506.766726 289.96199 
L 505.766726 289.993019 
L 504.766726 290.004187 
L 503.766726 290.034305 
L 502.766726 290.094082 
L 501.766726 290.131273 
L 500.766726 290.170369 
L 499.766726 290.212809 
L 498.766726 290.245574 
L 497.766726 290.313001 
L 496.766726 290.352127 
L 495.766726 290.394801 
L 494.766726 290.465382 
L 493.766726 290.501773 
L 492.766726 290.560176 
L 491.766726 290.671128 
L 490.766726 290.741787 
L 489.766726 290.854727 
L 488.766726 290.900499 
L 487.766726 290.961783 
L 486.766726 291.010282 
L 485.766726 291.091105 
L 484.766726 291.209624 
L 483.766726 291.279834 
L 482.766726 291.363097 
L 481.766726 291.396238 
L 480.766726 291.447476 
L 479.766726 291.515874 
L 478.766726 291.58209 
L 477.766726 291.659007 
L 476.766726 291.686322 
L 475.766726 291.7128 
L 474.766726 291.73545 
L 473.766726 291.754982 
L 472.766726 291.781376 
L 471.766726 291.831146 
L 470.766726 291.866219 
L 469.766726 291.902085 
L 468.766726 291.917452 
L 467.766726 291.933222 
L 466.766726 291.936634 
L 465.766726 291.939052 
L 464.766726 291.938566 
L 463.766726 291.936636 
L 462.766726 291.923379 
L 461.766726 291.914989 
L 460.766726 291.893452 
L 459.766726 291.87042 
L 458.766726 291.853186 
L 457.766726 291.834724 
L 456.766726 291.814271 
L 455.766726 291.797671 
L 453.995955 291.734893 
" clip-path="url(#p461c277b1d)" style="fill: none; stroke-dasharray: 3.7,1.6; stroke-dashoffset: 0; stroke: #2ca02c"/>
   <g id="patch_3">
    <path d="M 280.135631 10.8 
L 280.135631 198.030773 
M 376.747918 10.8 
L 376.747918 198.030773 
" clip-path="url(#p461c277b1d)" style="fill: none; stroke: #ffffff; stroke-width: 3; stroke-linejoin: miter"/>
    <path d="M 280.135631 10.8 
L 280.135631 198.030773 
M 376.747918 10.8 
L 376.747918 198.030773 
" clip-path="url(#p461c277b1d)" style="fill: none; stroke: #1f77b4; stroke-linejoin: miter"/>
    <g id="PolyCollection_1">
     <path d="M 376.747918 10.8 
L 280.135631 10.8 
L 280.135631 198.030773 
L 376.747918 198.030773 
L 376.747918 198.030773 
L 376.747918 10.8 
z
" clip-path="url(#p461c277b1d)" style="fill: #1f77b4; fill-opacity: 0.5"/>
    </g>
    <g id="patch_4">
     <path d="M 87.850142 198.030773 
L 87.850142 321.621875 
M 223.78834 198.030773 
L 223.78834 321.621875 
" clip-path="url(#p461c277b1d)" style="fill: none; stroke: #ffffff; stroke-width: 3; stroke-linejoin: miter"/>
     <path d="M 87.850142 198.030773 
L 87.850142 321.621875 
M 223.78834 198.030773 
L 223.78834 321.621875 
" clip-path="url(#p461c277b1d)" style="fill: none; stroke: #ff7f0e; stroke-linejoin: miter"/>
     <g id="PolyCollection_2">
      <path d="M 223.78834 198.030773 
L 87.850142 198.030773 
L 87.850142 321.621875 
L 223.78834 321.621875 
L 223.78834 321.621875 
L 223.78834 198.030773 
z
" clip-path="url(#p461c277b1d)" style="fill: #ff7f0e; fill-opacity: 0.5"/>
     </g>
     <g id="patch_5">
      <path d="M 538.169819 72.964375 
L 538.169819 321.621875 
M 579.040483 72.964375 
L 579.040483 321.621875 
" clip-path="url(#p461c277b1d)" style="fill: none; stroke: #ffffff; stroke-width: 3; stroke-linejoin: miter"/>
      <path d="M 538.169819 72.964375 
L 538.169819 321.621875 
M 579.040483 72.964375 
L 579.040483 321.621875 
" clip-path="url(#p461c277b1d)" style="fill: none; stroke: #2ca02c; stroke-linejoin: miter"/>
      <g id="PolyCollection_3">
       <path d="M 579.040483 72.964375 
L 538.169819 72.964375 
L 538.169819 321.621875 
L 579.040483 321.621875 
L 579.040483 321.621875 
L 579.040483 72.964375 
z
" clip-path="url(#p461c277b1d)" style="fill: #2ca02c; fill-opacity: 0.5"/>
      </g>
      <g id="patch_6">
       <path d="M 438.454064 206.197586 
L 438.454064 321.621875 
M 448.592861 206.197586 
L 448.592861 321.621875 
" clip-path="url(#p461c277b1d)" style="fill: none; stroke: #ffffff; stroke-width: 3; stroke-linejoin: miter"/>
       <path d="M 438.454064 206.197586 
L 438.454064 321.621875 
M 448.592861 206.197586 
L 448.592861 321.621875 
" clip-path="url(#p461c277b1d)" style="fill: none; stroke: #d62728; stroke-linejoin: miter"/>
       <g id="PolyCollection_4">
        <path d="M 448.592861 206.197586 
L 438.454064 206.197586 
L 438.454064 321.621875 
L 448.592861 321.621875 
L 448.592861 321.621875 
L 448.592861 206.197586 
z
" clip-path="url(#p461c277b1d)" style="fill: #d62728; fill-opacity: 0.5"/>
       </g>
       <g id="matplotlib.axis_1">
        <g id="xtick_1">
         <g id="line2d_1"/>
         <g id="text_1">
          <!-- OUT -->
          <g transform="translate(145.170022 332.720312) scale(0.1 -0.1)">
           <defs>
            <path id="DejaVuSans-4f" d="M 2522 4238 
Q 1834 4238 1429 3725 
Q 1025 3213 1025 2328 
Q 1025 1447 1429 934 
Q 1834 422 2522 422 
Q 3209 422 3611 934 
Q 4013 1447 4013 2328 
Q 4013 3213 3611 3725 
Q 3209 4238 2522 4238 
z
M 2522 4750 
Q 3503 4750 4090 4092 
Q 4678 3434 4678 2328 
Q 4678 1225 4090 567 
Q 3503 -91 2522 -91 
Q 1538 -91 948 565 
Q 359 1222 359 2328 
Q 359 3434 948 4092 
Q 1538 4750 2522 4750 
z
" transform="scale(0.015625)"/>
            <path id="DejaVuSans-55" d="M 556 4666 
L 1191 4666 
L 1191 1831 
Q 1191 1081 1462 751 
Q 1734 422 2344 422 
Q 2950 422 3222 751 
Q 3494 1081 3494 1831 
L 3494 4666 
L 4128 4666 
L 4128 1753 
Q 4128 841 3676 375 
Q 3225 -91 2344 -91 
Q 1459 -91 1007 375 
Q 556 841 556 1753 
L 556 4666 
z
" transform="scale(0.015625)"/>
            <path id="DejaVuSans-54" d="M -19 4666 
L 3928 4666 
L 3928 4134 
L 2272 4134 
L 2272 0 
L 1638 0 
L 1638 4134 
L -19 4134 
L -19 4666 
z
" transform="scale(0.015625)"/>
           </defs>
           <use xlink:href="#DejaVuSans-4f"/>
           <use xlink:href="#DejaVuSans-55" x="78.710938"/>
           <use xlink:href="#DejaVuSans-54" x="151.904297"/>
          </g>
         </g>
        </g>
        <g id="xtick_2">
         <g id="line2d_2"/>
         <g id="text_2">
          <!-- SRC -->
          <g transform="translate(548.715307 332.720312) scale(0.1 -0.1)">
           <defs>
            <path id="DejaVuSans-53" d="M 3425 4513 
L 3425 3897 
Q 3066 4069 2747 4153 
Q 2428 4238 2131 4238 
Q 1616 4238 1336 4038 
Q 1056 3838 1056 3469 
Q 1056 3159 1242 3001 
Q 1428 2844 1947 2747 
L 2328 2669 
Q 3034 2534 3370 2195 
Q 3706 1856 3706 1288 
Q 3706 609 3251 259 
Q 2797 -91 1919 -91 
Q 1588 -91 1214 -16 
Q 841 59 441 206 
L 441 856 
Q 825 641 1194 531 
Q 1563 422 1919 422 
Q 2459 422 2753 634 
Q 3047 847 3047 1241 
Q 3047 1584 2836 1778 
Q 2625 1972 2144 2069 
L 1759 2144 
Q 1053 2284 737 2584 
Q 422 2884 422 3419 
Q 422 4038 858 4394 
Q 1294 4750 2059 4750 
Q 2388 4750 2728 4690 
Q 3069 4631 3425 4513 
z
" transform="scale(0.015625)"/>
            <path id="DejaVuSans-52" d="M 2841 2188 
Q 3044 2119 3236 1894 
Q 3428 1669 3622 1275 
L 4263 0 
L 3584 0 
L 2988 1197 
Q 2756 1666 2539 1819 
Q 2322 1972 1947 1972 
L 1259 1972 
L 1259 0 
L 628 0 
L 628 4666 
L 2053 4666 
Q 2853 4666 3247 4331 
Q 3641 3997 3641 3322 
Q 3641 2881 3436 2590 
Q 3231 2300 2841 2188 
z
M 1259 4147 
L 1259 2491 
L 2053 2491 
Q 2509 2491 2742 2702 
Q 2975 2913 2975 3322 
Q 2975 3731 2742 3939 
Q 2509 4147 2053 4147 
L 1259 4147 
z
" transform="scale(0.015625)"/>
            <path id="DejaVuSans-43" d="M 4122 4306 
L 4122 3641 
Q 3803 3938 3442 4084 
Q 3081 4231 2675 4231 
Q 1875 4231 1450 3742 
Q 1025 3253 1025 2328 
Q 1025 1406 1450 917 
Q 1875 428 2675 428 
Q 3081 428 3442 575 
Q 3803 722 4122 1019 
L 4122 359 
Q 3791 134 3420 21 
Q 3050 -91 2638 -91 
Q 1578 -91 968 557 
Q 359 1206 359 2328 
Q 359 3453 968 4101 
Q 1578 4750 2638 4750 
Q 3056 4750 3426 4639 
Q 3797 4528 4122 4306 
z
" transform="scale(0.015625)"/>
           </defs>
           <use xlink:href="#DejaVuSans-53"/>
           <use xlink:href="#DejaVuSans-52" x="63.476562"/>
           <use xlink:href="#DejaVuSans-43" x="127.958984"/>
          </g>
         </g>
        </g>
        <g id="xtick_3">
         <g id="line2d_3"/>
         <g id="text_3">
          <!-- TAR -->
          <g transform="translate(433.962525 332.720312) scale(0.1 -0.1)">
           <defs>
            <path id="DejaVuSans-41" d="M 2188 4044 
L 1331 1722 
L 3047 1722 
L 2188 4044 
z
M 1831 4666 
L 2547 4666 
L 4325 0 
L 3669 0 
L 3244 1197 
L 1141 1197 
L 716 0 
L 50 0 
L 1831 4666 
z
" transform="scale(0.015625)"/>
           </defs>
           <use xlink:href="#DejaVuSans-54"/>
           <use xlink:href="#DejaVuSans-41" x="53.333984"/>
           <use xlink:href="#DejaVuSans-52" x="121.742188"/>
          </g>
         </g>
        </g>
       </g>
       <g id="matplotlib.axis_2">
        <g id="ytick_1">
         <g id="line2d_4">
          <defs>
           <path id="m8056943f76" d="M 0 0 
L -3.5 0 
" style="stroke: #000000; stroke-width: 0.8"/>
          </defs>
          <g>
           <use xlink:href="#m8056943f76" x="63.290625" y="321.621875" style="stroke: #000000; stroke-width: 0.8"/>
          </g>
         </g>
         <g id="text_4">
          <!-- 0 -->
          <g transform="translate(49.928125 325.421094) scale(0.1 -0.1)">
           <defs>
            <path id="DejaVuSans-30" d="M 2034 4250 
Q 1547 4250 1301 3770 
Q 1056 3291 1056 2328 
Q 1056 1369 1301 889 
Q 1547 409 2034 409 
Q 2525 409 2770 889 
Q 3016 1369 3016 2328 
Q 3016 3291 2770 3770 
Q 2525 4250 2034 4250 
z
M 2034 4750 
Q 2819 4750 3233 4129 
Q 3647 3509 3647 2328 
Q 3647 1150 3233 529 
Q 2819 -91 2034 -91 
Q 1250 -91 836 529 
Q 422 1150 422 2328 
Q 422 3509 836 4129 
Q 1250 4750 2034 4750 
z
" transform="scale(0.015625)"/>
           </defs>
           <use xlink:href="#DejaVuSans-30"/>
          </g>
         </g>
        </g>
        <g id="ytick_2">
         <g id="line2d_5">
          <g>
           <use xlink:href="#m8056943f76" x="63.290625" y="286.495798" style="stroke: #000000; stroke-width: 0.8"/>
          </g>
         </g>
         <g id="text_5">
          <!-- 2000 -->
          <g transform="translate(30.840625 290.295017) scale(0.1 -0.1)">
           <defs>
            <path id="DejaVuSans-32" d="M 1228 531 
L 3431 531 
L 3431 0 
L 469 0 
L 469 531 
Q 828 903 1448 1529 
Q 2069 2156 2228 2338 
Q 2531 2678 2651 2914 
Q 2772 3150 2772 3378 
Q 2772 3750 2511 3984 
Q 2250 4219 1831 4219 
Q 1534 4219 1204 4116 
Q 875 4013 500 3803 
L 500 4441 
Q 881 4594 1212 4672 
Q 1544 4750 1819 4750 
Q 2544 4750 2975 4387 
Q 3406 4025 3406 3419 
Q 3406 3131 3298 2873 
Q 3191 2616 2906 2266 
Q 2828 2175 2409 1742 
Q 1991 1309 1228 531 
z
" transform="scale(0.015625)"/>
           </defs>
           <use xlink:href="#DejaVuSans-32"/>
           <use xlink:href="#DejaVuSans-30" x="63.623047"/>
           <use xlink:href="#DejaVuSans-30" x="127.246094"/>
           <use xlink:href="#DejaVuSans-30" x="190.869141"/>
          </g>
         </g>
        </g>
        <g id="ytick_3">
         <g id="line2d_6">
          <g>
           <use xlink:href="#m8056943f76" x="63.290625" y="251.369721" style="stroke: #000000; stroke-width: 0.8"/>
          </g>
         </g>
         <g id="text_6">
          <!-- 4000 -->
          <g transform="translate(30.840625 255.168939) scale(0.1 -0.1)">
           <defs>
            <path id="DejaVuSans-34" d="M 2419 4116 
L 825 1625 
L 2419 1625 
L 2419 4116 
z
M 2253 4666 
L 3047 4666 
L 3047 1625 
L 3713 1625 
L 3713 1100 
L 3047 1100 
L 3047 0 
L 2419 0 
L 2419 1100 
L 313 1100 
L 313 1709 
L 2253 4666 
z
" transform="scale(0.015625)"/>
           </defs>
           <use xlink:href="#DejaVuSans-34"/>
           <use xlink:href="#DejaVuSans-30" x="63.623047"/>
           <use xlink:href="#DejaVuSans-30" x="127.246094"/>
           <use xlink:href="#DejaVuSans-30" x="190.869141"/>
          </g>
         </g>
        </g>
        <g id="ytick_4">
         <g id="line2d_7">
          <g>
           <use xlink:href="#m8056943f76" x="63.290625" y="216.243644" style="stroke: #000000; stroke-width: 0.8"/>
          </g>
         </g>
         <g id="text_7">
          <!-- 6000 -->
          <g transform="translate(30.840625 220.042862) scale(0.1 -0.1)">
           <defs>
            <path id="DejaVuSans-36" d="M 2113 2584 
Q 1688 2584 1439 2293 
Q 1191 2003 1191 1497 
Q 1191 994 1439 701 
Q 1688 409 2113 409 
Q 2538 409 2786 701 
Q 3034 994 3034 1497 
Q 3034 2003 2786 2293 
Q 2538 2584 2113 2584 
z
M 3366 4563 
L 3366 3988 
Q 3128 4100 2886 4159 
Q 2644 4219 2406 4219 
Q 1781 4219 1451 3797 
Q 1122 3375 1075 2522 
Q 1259 2794 1537 2939 
Q 1816 3084 2150 3084 
Q 2853 3084 3261 2657 
Q 3669 2231 3669 1497 
Q 3669 778 3244 343 
Q 2819 -91 2113 -91 
Q 1303 -91 875 529 
Q 447 1150 447 2328 
Q 447 3434 972 4092 
Q 1497 4750 2381 4750 
Q 2619 4750 2861 4703 
Q 3103 4656 3366 4563 
z
" transform="scale(0.015625)"/>
           </defs>
           <use xlink:href="#DejaVuSans-36"/>
           <use xlink:href="#DejaVuSans-30" x="63.623047"/>
           <use xlink:href="#DejaVuSans-30" x="127.246094"/>
           <use xlink:href="#DejaVuSans-30" x="190.869141"/>
          </g>
         </g>
        </g>
        <g id="ytick_5">
         <g id="line2d_8">
          <g>
           <use xlink:href="#m8056943f76" x="63.290625" y="181.117566" style="stroke: #000000; stroke-width: 0.8"/>
          </g>
         </g>
         <g id="text_8">
          <!-- 8000 -->
          <g transform="translate(30.840625 184.916785) scale(0.1 -0.1)">
           <defs>
            <path id="DejaVuSans-38" d="M 2034 2216 
Q 1584 2216 1326 1975 
Q 1069 1734 1069 1313 
Q 1069 891 1326 650 
Q 1584 409 2034 409 
Q 2484 409 2743 651 
Q 3003 894 3003 1313 
Q 3003 1734 2745 1975 
Q 2488 2216 2034 2216 
z
M 1403 2484 
Q 997 2584 770 2862 
Q 544 3141 544 3541 
Q 544 4100 942 4425 
Q 1341 4750 2034 4750 
Q 2731 4750 3128 4425 
Q 3525 4100 3525 3541 
Q 3525 3141 3298 2862 
Q 3072 2584 2669 2484 
Q 3125 2378 3379 2068 
Q 3634 1759 3634 1313 
Q 3634 634 3220 271 
Q 2806 -91 2034 -91 
Q 1263 -91 848 271 
Q 434 634 434 1313 
Q 434 1759 690 2068 
Q 947 2378 1403 2484 
z
M 1172 3481 
Q 1172 3119 1398 2916 
Q 1625 2713 2034 2713 
Q 2441 2713 2670 2916 
Q 2900 3119 2900 3481 
Q 2900 3844 2670 4047 
Q 2441 4250 2034 4250 
Q 1625 4250 1398 4047 
Q 1172 3844 1172 3481 
z
" transform="scale(0.015625)"/>
           </defs>
           <use xlink:href="#DejaVuSans-38"/>
           <use xlink:href="#DejaVuSans-30" x="63.623047"/>
           <use xlink:href="#DejaVuSans-30" x="127.246094"/>
           <use xlink:href="#DejaVuSans-30" x="190.869141"/>
          </g>
         </g>
        </g>
        <g id="ytick_6">
         <g id="line2d_9">
          <g>
           <use xlink:href="#m8056943f76" x="63.290625" y="145.991489" style="stroke: #000000; stroke-width: 0.8"/>
          </g>
         </g>
         <g id="text_9">
          <!-- 10000 -->
          <g transform="translate(24.478125 149.790708) scale(0.1 -0.1)">
           <defs>
            <path id="DejaVuSans-31" d="M 794 531 
L 1825 531 
L 1825 4091 
L 703 3866 
L 703 4441 
L 1819 4666 
L 2450 4666 
L 2450 531 
L 3481 531 
L 3481 0 
L 794 0 
L 794 531 
z
" transform="scale(0.015625)"/>
           </defs>
           <use xlink:href="#DejaVuSans-31"/>
           <use xlink:href="#DejaVuSans-30" x="63.623047"/>
           <use xlink:href="#DejaVuSans-30" x="127.246094"/>
           <use xlink:href="#DejaVuSans-30" x="190.869141"/>
           <use xlink:href="#DejaVuSans-30" x="254.492188"/>
          </g>
         </g>
        </g>
        <g id="ytick_7">
         <g id="line2d_10">
          <g>
           <use xlink:href="#m8056943f76" x="63.290625" y="110.865412" style="stroke: #000000; stroke-width: 0.8"/>
          </g>
         </g>
         <g id="text_10">
          <!-- 12000 -->
          <g transform="translate(24.478125 114.664631) scale(0.1 -0.1)">
           <use xlink:href="#DejaVuSans-31"/>
           <use xlink:href="#DejaVuSans-32" x="63.623047"/>
           <use xlink:href="#DejaVuSans-30" x="127.246094"/>
           <use xlink:href="#DejaVuSans-30" x="190.869141"/>
           <use xlink:href="#DejaVuSans-30" x="254.492188"/>
          </g>
         </g>
        </g>
        <g id="ytick_8">
         <g id="line2d_11">
          <g>
           <use xlink:href="#m8056943f76" x="63.290625" y="75.739335" style="stroke: #000000; stroke-width: 0.8"/>
          </g>
         </g>
         <g id="text_11">
          <!-- 14000 -->
          <g transform="translate(24.478125 79.538554) scale(0.1 -0.1)">
           <use xlink:href="#DejaVuSans-31"/>
           <use xlink:href="#DejaVuSans-34" x="63.623047"/>
           <use xlink:href="#DejaVuSans-30" x="127.246094"/>
           <use xlink:href="#DejaVuSans-30" x="190.869141"/>
           <use xlink:href="#DejaVuSans-30" x="254.492188"/>
          </g>
         </g>
        </g>
        <g id="ytick_9">
         <g id="line2d_12">
          <g>
           <use xlink:href="#m8056943f76" x="63.290625" y="40.613258" style="stroke: #000000; stroke-width: 0.8"/>
          </g>
         </g>
         <g id="text_12">
          <!-- 16000 -->
          <g transform="translate(24.478125 44.412477) scale(0.1 -0.1)">
           <use xlink:href="#DejaVuSans-31"/>
           <use xlink:href="#DejaVuSans-36" x="63.623047"/>
           <use xlink:href="#DejaVuSans-30" x="127.246094"/>
           <use xlink:href="#DejaVuSans-30" x="190.869141"/>
           <use xlink:href="#DejaVuSans-30" x="254.492188"/>
          </g>
         </g>
        </g>
        <g id="text_13">
         <!-- time ago (generations) -->
         <g transform="translate(18.398438 223.682031) rotate(-90) scale(0.1 -0.1)">
          <defs>
           <path id="DejaVuSans-74" d="M 1172 4494 
L 1172 3500 
L 2356 3500 
L 2356 3053 
L 1172 3053 
L 1172 1153 
Q 1172 725 1289 603 
Q 1406 481 1766 481 
L 2356 481 
L 2356 0 
L 1766 0 
Q 1100 0 847 248 
Q 594 497 594 1153 
L 594 3053 
L 172 3053 
L 172 3500 
L 594 3500 
L 594 4494 
L 1172 4494 
z
" transform="scale(0.015625)"/>
           <path id="DejaVuSans-69" d="M 603 3500 
L 1178 3500 
L 1178 0 
L 603 0 
L 603 3500 
z
M 603 4863 
L 1178 4863 
L 1178 4134 
L 603 4134 
L 603 4863 
z
" transform="scale(0.015625)"/>
           <path id="DejaVuSans-6d" d="M 3328 2828 
Q 3544 3216 3844 3400 
Q 4144 3584 4550 3584 
Q 5097 3584 5394 3201 
Q 5691 2819 5691 2113 
L 5691 0 
L 5113 0 
L 5113 2094 
Q 5113 2597 4934 2840 
Q 4756 3084 4391 3084 
Q 3944 3084 3684 2787 
Q 3425 2491 3425 1978 
L 3425 0 
L 2847 0 
L 2847 2094 
Q 2847 2600 2669 2842 
Q 2491 3084 2119 3084 
Q 1678 3084 1418 2786 
Q 1159 2488 1159 1978 
L 1159 0 
L 581 0 
L 581 3500 
L 1159 3500 
L 1159 2956 
Q 1356 3278 1631 3431 
Q 1906 3584 2284 3584 
Q 2666 3584 2933 3390 
Q 3200 3197 3328 2828 
z
" transform="scale(0.015625)"/>
           <path id="DejaVuSans-65" d="M 3597 1894 
L 3597 1613 
L 953 1613 
Q 991 1019 1311 708 
Q 1631 397 2203 397 
Q 2534 397 2845 478 
Q 3156 559 3463 722 
L 3463 178 
Q 3153 47 2828 -22 
Q 2503 -91 2169 -91 
Q 1331 -91 842 396 
Q 353 884 353 1716 
Q 353 2575 817 3079 
Q 1281 3584 2069 3584 
Q 2775 3584 3186 3129 
Q 3597 2675 3597 1894 
z
M 3022 2063 
Q 3016 2534 2758 2815 
Q 2500 3097 2075 3097 
Q 1594 3097 1305 2825 
Q 1016 2553 972 2059 
L 3022 2063 
z
" transform="scale(0.015625)"/>
           <path id="DejaVuSans-20" transform="scale(0.015625)"/>
           <path id="DejaVuSans-61" d="M 2194 1759 
Q 1497 1759 1228 1600 
Q 959 1441 959 1056 
Q 959 750 1161 570 
Q 1363 391 1709 391 
Q 2188 391 2477 730 
Q 2766 1069 2766 1631 
L 2766 1759 
L 2194 1759 
z
M 3341 1997 
L 3341 0 
L 2766 0 
L 2766 531 
Q 2569 213 2275 61 
Q 1981 -91 1556 -91 
Q 1019 -91 701 211 
Q 384 513 384 1019 
Q 384 1609 779 1909 
Q 1175 2209 1959 2209 
L 2766 2209 
L 2766 2266 
Q 2766 2663 2505 2880 
Q 2244 3097 1772 3097 
Q 1472 3097 1187 3025 
Q 903 2953 641 2809 
L 641 3341 
Q 956 3463 1253 3523 
Q 1550 3584 1831 3584 
Q 2591 3584 2966 3190 
Q 3341 2797 3341 1997 
z
" transform="scale(0.015625)"/>
           <path id="DejaVuSans-67" d="M 2906 1791 
Q 2906 2416 2648 2759 
Q 2391 3103 1925 3103 
Q 1463 3103 1205 2759 
Q 947 2416 947 1791 
Q 947 1169 1205 825 
Q 1463 481 1925 481 
Q 2391 481 2648 825 
Q 2906 1169 2906 1791 
z
M 3481 434 
Q 3481 -459 3084 -895 
Q 2688 -1331 1869 -1331 
Q 1566 -1331 1297 -1286 
Q 1028 -1241 775 -1147 
L 775 -588 
Q 1028 -725 1275 -790 
Q 1522 -856 1778 -856 
Q 2344 -856 2625 -561 
Q 2906 -266 2906 331 
L 2906 616 
Q 2728 306 2450 153 
Q 2172 0 1784 0 
Q 1141 0 747 490 
Q 353 981 353 1791 
Q 353 2603 747 3093 
Q 1141 3584 1784 3584 
Q 2172 3584 2450 3431 
Q 2728 3278 2906 2969 
L 2906 3500 
L 3481 3500 
L 3481 434 
z
" transform="scale(0.015625)"/>
           <path id="DejaVuSans-6f" d="M 1959 3097 
Q 1497 3097 1228 2736 
Q 959 2375 959 1747 
Q 959 1119 1226 758 
Q 1494 397 1959 397 
Q 2419 397 2687 759 
Q 2956 1122 2956 1747 
Q 2956 2369 2687 2733 
Q 2419 3097 1959 3097 
z
M 1959 3584 
Q 2709 3584 3137 3096 
Q 3566 2609 3566 1747 
Q 3566 888 3137 398 
Q 2709 -91 1959 -91 
Q 1206 -91 779 398 
Q 353 888 353 1747 
Q 353 2609 779 3096 
Q 1206 3584 1959 3584 
z
" transform="scale(0.015625)"/>
           <path id="DejaVuSans-28" d="M 1984 4856 
Q 1566 4138 1362 3434 
Q 1159 2731 1159 2009 
Q 1159 1288 1364 580 
Q 1569 -128 1984 -844 
L 1484 -844 
Q 1016 -109 783 600 
Q 550 1309 550 2009 
Q 550 2706 781 3412 
Q 1013 4119 1484 4856 
L 1984 4856 
z
" transform="scale(0.015625)"/>
           <path id="DejaVuSans-6e" d="M 3513 2113 
L 3513 0 
L 2938 0 
L 2938 2094 
Q 2938 2591 2744 2837 
Q 2550 3084 2163 3084 
Q 1697 3084 1428 2787 
Q 1159 2491 1159 1978 
L 1159 0 
L 581 0 
L 581 3500 
L 1159 3500 
L 1159 2956 
Q 1366 3272 1645 3428 
Q 1925 3584 2291 3584 
Q 2894 3584 3203 3211 
Q 3513 2838 3513 2113 
z
" transform="scale(0.015625)"/>
           <path id="DejaVuSans-72" d="M 2631 2963 
Q 2534 3019 2420 3045 
Q 2306 3072 2169 3072 
Q 1681 3072 1420 2755 
Q 1159 2438 1159 1844 
L 1159 0 
L 581 0 
L 581 3500 
L 1159 3500 
L 1159 2956 
Q 1341 3275 1631 3429 
Q 1922 3584 2338 3584 
Q 2397 3584 2469 3576 
Q 2541 3569 2628 3553 
L 2631 2963 
z
" transform="scale(0.015625)"/>
           <path id="DejaVuSans-73" d="M 2834 3397 
L 2834 2853 
Q 2591 2978 2328 3040 
Q 2066 3103 1784 3103 
Q 1356 3103 1142 2972 
Q 928 2841 928 2578 
Q 928 2378 1081 2264 
Q 1234 2150 1697 2047 
L 1894 2003 
Q 2506 1872 2764 1633 
Q 3022 1394 3022 966 
Q 3022 478 2636 193 
Q 2250 -91 1575 -91 
Q 1294 -91 989 -36 
Q 684 19 347 128 
L 347 722 
Q 666 556 975 473 
Q 1284 391 1588 391 
Q 1994 391 2212 530 
Q 2431 669 2431 922 
Q 2431 1156 2273 1281 
Q 2116 1406 1581 1522 
L 1381 1569 
Q 847 1681 609 1914 
Q 372 2147 372 2553 
Q 372 3047 722 3315 
Q 1072 3584 1716 3584 
Q 2034 3584 2315 3537 
Q 2597 3491 2834 3397 
z
" transform="scale(0.015625)"/>
           <path id="DejaVuSans-29" d="M 513 4856 
L 1013 4856 
Q 1481 4119 1714 3412 
Q 1947 2706 1947 2009 
Q 1947 1309 1714 600 
Q 1481 -109 1013 -844 
L 513 -844 
Q 928 -128 1133 580 
Q 1338 1288 1338 2009 
Q 1338 2731 1133 3434 
Q 928 4138 513 4856 
z
" transform="scale(0.015625)"/>
          </defs>
          <use xlink:href="#DejaVuSans-74"/>
          <use xlink:href="#DejaVuSans-69" x="39.208984"/>
          <use xlink:href="#DejaVuSans-6d" x="66.992188"/>
          <use xlink:href="#DejaVuSans-65" x="164.404297"/>
          <use xlink:href="#DejaVuSans-20" x="225.927734"/>
          <use xlink:href="#DejaVuSans-61" x="257.714844"/>
          <use xlink:href="#DejaVuSans-67" x="318.994141"/>
          <use xlink:href="#DejaVuSans-6f" x="382.470703"/>
          <use xlink:href="#DejaVuSans-20" x="443.652344"/>
          <use xlink:href="#DejaVuSans-28" x="475.439453"/>
          <use xlink:href="#DejaVuSans-67" x="514.453125"/>
          <use xlink:href="#DejaVuSans-65" x="577.929688"/>
          <use xlink:href="#DejaVuSans-6e" x="639.453125"/>
          <use xlink:href="#DejaVuSans-65" x="702.832031"/>
          <use xlink:href="#DejaVuSans-72" x="764.355469"/>
          <use xlink:href="#DejaVuSans-61" x="805.46875"/>
          <use xlink:href="#DejaVuSans-74" x="866.748047"/>
          <use xlink:href="#DejaVuSans-69" x="905.957031"/>
          <use xlink:href="#DejaVuSans-6f" x="933.740234"/>
          <use xlink:href="#DejaVuSans-6e" x="994.921875"/>
          <use xlink:href="#DejaVuSans-73" x="1058.300781"/>
          <use xlink:href="#DejaVuSans-29" x="1110.400391"/>
         </g>
        </g>
       </g>
       <g id="patch_7">
        <path d="M 278.137475 198.030773 
L 277.137475 197.999336 
L 276.137475 197.962396 
L 275.137475 197.864649 
L 274.137475 197.832128 
L 273.137475 197.758503 
L 272.137475 197.719937 
L 271.137475 197.684524 
L 270.137475 197.626884 
L 269.137475 197.556498 
L 268.137475 197.504534 
L 267.137475 197.445444 
L 266.137475 197.357123 
L 265.137475 197.310979 
L 264.137475 197.268568 
L 263.137475 197.238075 
L 262.137475 197.21203 
L 261.137475 197.19083 
L 260.137475 197.136529 
L 259.137475 197.108592 
L 258.137475 197.078868 
L 257.137475 197.053473 
L 256.137475 197.042272 
L 255.137475 197.032148 
L 254.137475 197.032353 
L 253.137475 197.041863 
L 252.137475 197.053516 
L 251.137475 197.084545 
L 250.137475 197.095713 
L 249.137475 197.125831 
L 248.137475 197.185608 
L 247.137475 197.222799 
L 246.137475 197.261895 
L 245.137475 197.304335 
L 244.137475 197.3371 
L 243.137475 197.404527 
L 242.137475 197.443653 
L 241.137475 197.486327 
L 240.137475 197.556908 
L 239.137475 197.593299 
L 238.137475 197.651702 
L 237.137475 197.762654 
L 236.137475 197.833313 
L 235.137475 197.946253 
L 234.137475 197.992025 
L 233.137475 198.053309 
L 232.137475 198.101808 
L 231.137475 198.182631 
L 230.137475 198.30115 
L 229.137475 198.37136 
L 228.137475 198.454623 
L 226.906651 198.487764 
" clip-path="url(#p461c277b1d)" style="fill: none; stroke: #ffffff; stroke-width: 3; stroke-linecap: round"/>
        <path d="M 278.137475 198.030773 
L 277.137475 197.999336 
L 276.137475 197.962396 
L 275.137475 197.864649 
L 274.137475 197.832128 
L 273.137475 197.758503 
L 272.137475 197.719937 
L 271.137475 197.684524 
L 270.137475 197.626884 
L 269.137475 197.556498 
L 268.137475 197.504534 
L 267.137475 197.445444 
L 266.137475 197.357123 
L 265.137475 197.310979 
L 264.137475 197.268568 
L 263.137475 197.238075 
L 262.137475 197.21203 
L 261.137475 197.19083 
L 260.137475 197.136529 
L 259.137475 197.108592 
L 258.137475 197.078868 
L 257.137475 197.053473 
L 256.137475 197.042272 
L 255.137475 197.032148 
L 254.137475 197.032353 
L 253.137475 197.041863 
L 252.137475 197.053516 
L 251.137475 197.084545 
L 250.137475 197.095713 
L 249.137475 197.125831 
L 248.137475 197.185608 
L 247.137475 197.222799 
L 246.137475 197.261895 
L 245.137475 197.304335 
L 244.137475 197.3371 
L 243.137475 197.404527 
L 242.137475 197.443653 
L 241.137475 197.486327 
L 240.137475 197.556908 
L 239.137475 197.593299 
L 238.137475 197.651702 
L 237.137475 197.762654 
L 236.137475 197.833313 
L 235.137475 197.946253 
L 234.137475 197.992025 
L 233.137475 198.053309 
L 232.137475 198.101808 
L 231.137475 198.182631 
L 230.137475 198.30115 
L 229.137475 198.37136 
L 228.137475 198.454623 
L 226.906651 198.487764 
" clip-path="url(#p461c277b1d)" style="fill: none; stroke: #1f77b4; stroke-linecap: round"/>
        <path d="M 230.906651 200.030773 
L 230.026282 199.555441 
L 229.148375 199.075187 
L 228.297662 198.540547 
L 226.995487 197.853099 
L 227.922841 197.827084 
L 228.834515 197.414365 
L 229.744779 196.998826 
L 231.087275 196.392021 
L 230.432376 197.030773 
L 230.380412 198.030773 
L 230.321322 200.030773 
z
" clip-path="url(#p461c277b1d)" style="fill: #ffffff; stroke: #ffffff; stroke-width: 3; stroke-linecap: round"/>
        <path d="M 230.906651 200.030773 
L 230.026282 199.555441 
L 229.148375 199.075187 
L 228.297662 198.540547 
L 226.995487 197.853099 
L 227.922841 197.827084 
L 228.834515 197.414365 
L 229.744779 196.998826 
L 231.087275 196.392021 
L 230.432376 197.030773 
L 230.380412 198.030773 
L 230.321322 200.030773 
z
" clip-path="url(#p461c277b1d)" style="fill: #ffffff; stroke: #1f77b4; stroke-linecap: round"/>
        <g id="patch_8">
         <path d="M 378.743031 72.964375 
L 379.743031 72.995811 
L 380.743031 73.032752 
L 381.743031 73.130498 
L 382.743031 73.16302 
L 383.743031 73.236645 
L 384.743031 73.27521 
L 385.743031 73.310623 
L 386.743031 73.368263 
L 387.743031 73.438649 
L 388.743031 73.490614 
L 389.743031 73.549703 
L 390.743031 73.638024 
L 391.743031 73.684169 
L 392.743031 73.72658 
L 393.743031 73.757072 
L 394.743031 73.783117 
L 395.743031 73.804317 
L 396.743031 73.858618 
L 397.743031 73.886556 
L 398.743031 73.91628 
L 399.743031 73.941675 
L 400.743031 73.952875 
L 401.743031 73.962999 
L 402.743031 73.962795 
L 403.743031 73.953285 
L 404.743031 73.941631 
L 405.743031 73.910602 
L 406.743031 73.899434 
L 407.743031 73.869317 
L 408.743031 73.80954 
L 409.743031 73.772348 
L 410.743031 73.733252 
L 411.743031 73.690812 
L 412.743031 73.658047 
L 413.743031 73.590621 
L 414.743031 73.551495 
L 415.743031 73.50882 
L 416.743031 73.43824 
L 417.743031 73.401849 
L 418.743031 73.343446 
L 419.743031 73.232493 
L 420.743031 73.161835 
L 421.743031 73.048895 
L 422.743031 73.003122 
L 423.743031 72.941839 
L 424.743031 72.89334 
L 425.743031 72.812517 
L 426.743031 72.693998 
L 427.743031 72.623787 
L 428.743031 72.540525 
L 429.743031 72.507383 
L 430.743031 72.456146 
L 431.743031 72.387747 
L 432.743031 72.321532 
L 433.743031 72.244615 
L 434.743031 72.217299 
L 435.743031 72.190822 
L 436.743031 72.168171 
L 437.743031 72.14864 
L 438.743031 72.122246 
L 439.743031 72.072475 
L 440.743031 72.037402 
L 441.743031 72.001536 
L 442.743031 71.986169 
L 443.743031 71.9704 
L 444.743031 71.966987 
L 445.743031 71.96457 
L 446.743031 71.965056 
L 447.743031 71.966985 
L 448.743031 71.980242 
L 449.743031 71.988633 
L 450.743031 72.010169 
L 451.743031 72.033202 
L 452.743031 72.050435 
L 453.743031 72.068898 
L 454.743031 72.08935 
L 455.743031 72.10595 
L 456.743031 72.168729 
L 457.743031 72.243994 
L 458.743031 72.276633 
L 459.743031 72.344197 
L 460.743031 72.398244 
L 461.743031 72.431948 
L 462.743031 72.522074 
L 463.743031 72.550609 
L 464.743031 72.582095 
L 465.743031 72.613106 
L 466.743031 72.667914 
L 467.743031 72.732501 
L 468.743031 72.770697 
L 469.743031 72.866631 
L 470.743031 72.915889 
L 471.743031 72.959958 
L 472.743031 73.000082 
L 473.743031 73.108449 
L 474.743031 73.150077 
L 475.743031 73.212219 
L 476.743031 73.282181 
L 477.743031 73.386685 
L 478.743031 73.423673 
L 479.743031 73.46955 
L 480.743031 73.538045 
L 481.743031 73.586791 
L 482.743031 73.664388 
L 483.743031 73.694929 
L 484.743031 73.764443 
L 485.743031 73.788416 
L 486.743031 73.817038 
L 487.743031 73.858831 
L 488.743031 73.880407 
L 489.743031 73.894355 
L 490.743031 73.921077 
L 491.743031 73.930387 
L 492.743031 73.942834 
L 493.743031 73.953889 
L 494.743031 73.959553 
L 495.743031 73.964317 
L 496.743031 73.958769 
L 497.743031 73.945481 
L 498.743031 73.937964 
L 499.743031 73.913179 
L 500.743031 73.88961 
L 501.743031 73.85343 
L 502.743031 73.827468 
L 503.743031 73.805146 
L 504.743031 73.736386 
L 505.743031 73.661851 
L 506.743031 73.567872 
L 507.743031 73.51682 
L 508.743031 73.462886 
L 509.743031 73.427635 
L 510.743031 73.321547 
L 511.743031 73.269283 
L 512.743031 73.232376 
L 513.743031 73.201345 
L 514.743031 73.14019 
L 515.743031 73.07277 
L 516.743031 73.023864 
L 517.743031 72.958672 
L 518.743031 72.920484 
L 519.743031 72.878488 
L 520.743031 72.836471 
L 521.743031 72.776955 
L 522.743031 72.663795 
L 523.743031 72.611544 
L 524.743031 72.572126 
L 525.743031 72.525025 
L 526.743031 72.468245 
L 527.743031 72.435582 
L 528.743031 72.399404 
L 529.743031 72.367314 
L 530.743031 72.333034 
L 531.743031 72.274656 
L 532.743031 72.229471 
L 533.743031 72.199847 
L 535.052139 72.149461 
" clip-path="url(#p461c277b1d)" style="fill: none; stroke: #ffffff; stroke-width: 3; stroke-linecap: round"/>
         <path d="M 378.743031 72.964375 
L 379.743031 72.995811 
L 380.743031 73.032752 
L 381.743031 73.130498 
L 382.743031 73.16302 
L 383.743031 73.236645 
L 384.743031 73.27521 
L 385.743031 73.310623 
L 386.743031 73.368263 
L 387.743031 73.438649 
L 388.743031 73.490614 
L 389.743031 73.549703 
L 390.743031 73.638024 
L 391.743031 73.684169 
L 392.743031 73.72658 
L 393.743031 73.757072 
L 394.743031 73.783117 
L 395.743031 73.804317 
L 396.743031 73.858618 
L 397.743031 73.886556 
L 398.743031 73.91628 
L 399.743031 73.941675 
L 400.743031 73.952875 
L 401.743031 73.962999 
L 402.743031 73.962795 
L 403.743031 73.953285 
L 404.743031 73.941631 
L 405.743031 73.910602 
L 406.743031 73.899434 
L 407.743031 73.869317 
L 408.743031 73.80954 
L 409.743031 73.772348 
L 410.743031 73.733252 
L 411.743031 73.690812 
L 412.743031 73.658047 
L 413.743031 73.590621 
L 414.743031 73.551495 
L 415.743031 73.50882 
L 416.743031 73.43824 
L 417.743031 73.401849 
L 418.743031 73.343446 
L 419.743031 73.232493 
L 420.743031 73.161835 
L 421.743031 73.048895 
L 422.743031 73.003122 
L 423.743031 72.941839 
L 424.743031 72.89334 
L 425.743031 72.812517 
L 426.743031 72.693998 
L 427.743031 72.623787 
L 428.743031 72.540525 
L 429.743031 72.507383 
L 430.743031 72.456146 
L 431.743031 72.387747 
L 432.743031 72.321532 
L 433.743031 72.244615 
L 434.743031 72.217299 
L 435.743031 72.190822 
L 436.743031 72.168171 
L 437.743031 72.14864 
L 438.743031 72.122246 
L 439.743031 72.072475 
L 440.743031 72.037402 
L 441.743031 72.001536 
L 442.743031 71.986169 
L 443.743031 71.9704 
L 444.743031 71.966987 
L 445.743031 71.96457 
L 446.743031 71.965056 
L 447.743031 71.966985 
L 448.743031 71.980242 
L 449.743031 71.988633 
L 450.743031 72.010169 
L 451.743031 72.033202 
L 452.743031 72.050435 
L 453.743031 72.068898 
L 454.743031 72.08935 
L 455.743031 72.10595 
L 456.743031 72.168729 
L 457.743031 72.243994 
L 458.743031 72.276633 
L 459.743031 72.344197 
L 460.743031 72.398244 
L 461.743031 72.431948 
L 462.743031 72.522074 
L 463.743031 72.550609 
L 464.743031 72.582095 
L 465.743031 72.613106 
L 466.743031 72.667914 
L 467.743031 72.732501 
L 468.743031 72.770697 
L 469.743031 72.866631 
L 470.743031 72.915889 
L 471.743031 72.959958 
L 472.743031 73.000082 
L 473.743031 73.108449 
L 474.743031 73.150077 
L 475.743031 73.212219 
L 476.743031 73.282181 
L 477.743031 73.386685 
L 478.743031 73.423673 
L 479.743031 73.46955 
L 480.743031 73.538045 
L 481.743031 73.586791 
L 482.743031 73.664388 
L 483.743031 73.694929 
L 484.743031 73.764443 
L 485.743031 73.788416 
L 486.743031 73.817038 
L 487.743031 73.858831 
L 488.743031 73.880407 
L 489.743031 73.894355 
L 490.743031 73.921077 
L 491.743031 73.930387 
L 492.743031 73.942834 
L 493.743031 73.953889 
L 494.743031 73.959553 
L 495.743031 73.964317 
L 496.743031 73.958769 
L 497.743031 73.945481 
L 498.743031 73.937964 
L 499.743031 73.913179 
L 500.743031 73.88961 
L 501.743031 73.85343 
L 502.743031 73.827468 
L 503.743031 73.805146 
L 504.743031 73.736386 
L 505.743031 73.661851 
L 506.743031 73.567872 
L 507.743031 73.51682 
L 508.743031 73.462886 
L 509.743031 73.427635 
L 510.743031 73.321547 
L 511.743031 73.269283 
L 512.743031 73.232376 
L 513.743031 73.201345 
L 514.743031 73.14019 
L 515.743031 73.07277 
L 516.743031 73.023864 
L 517.743031 72.958672 
L 518.743031 72.920484 
L 519.743031 72.878488 
L 520.743031 72.836471 
L 521.743031 72.776955 
L 522.743031 72.663795 
L 523.743031 72.611544 
L 524.743031 72.572126 
L 525.743031 72.525025 
L 526.743031 72.468245 
L 527.743031 72.435582 
L 528.743031 72.399404 
L 529.743031 72.367314 
L 530.743031 72.333034 
L 531.743031 72.274656 
L 532.743031 72.229471 
L 533.743031 72.199847 
L 535.052139 72.149461 
" clip-path="url(#p461c277b1d)" style="fill: none; stroke: #1f77b4; stroke-linecap: round"/>
         <path d="M 531.052139 70.964375 
L 531.932508 71.439706 
L 532.810415 71.91996 
L 533.661128 72.454601 
L 534.963302 73.142048 
L 534.035949 73.168063 
L 533.124275 73.580783 
L 532.214011 73.996322 
L 530.871515 74.603126 
L 531.526414 73.964375 
L 531.578378 72.964375 
L 531.637468 70.964375 
z
" clip-path="url(#p461c277b1d)" style="fill: #ffffff; stroke: #ffffff; stroke-width: 3; stroke-linecap: round"/>
         <path d="M 531.052139 70.964375 
L 531.932508 71.439706 
L 532.810415 71.91996 
L 533.661128 72.454601 
L 534.963302 73.142048 
L 534.035949 73.168063 
L 533.124275 73.580783 
L 532.214011 73.996322 
L 530.871515 74.603126 
L 531.526414 73.964375 
L 531.578378 72.964375 
L 531.637468 70.964375 
z
" clip-path="url(#p461c277b1d)" style="fill: #ffffff; stroke: #1f77b4; stroke-linecap: round"/>
         <g id="patch_9">
          <path d="M 225.789695 206.197586 
L 226.789695 206.229022 
L 227.789695 206.265962 
L 228.789695 206.363709 
L 229.789695 206.39623 
L 230.789695 206.469855 
L 231.789695 206.508421 
L 232.789695 206.543834 
L 233.789695 206.601474 
L 234.789695 206.67186 
L 235.789695 206.723824 
L 236.789695 206.782914 
L 237.789695 206.871235 
L 238.789695 206.917379 
L 239.789695 206.95979 
L 240.789695 206.990283 
L 241.789695 207.016328 
L 242.789695 207.037528 
L 243.789695 207.091829 
L 244.789695 207.119767 
L 245.789695 207.149491 
L 246.789695 207.174885 
L 247.789695 207.186086 
L 248.789695 207.19621 
L 249.789695 207.196005 
L 250.789695 207.186495 
L 251.789695 207.174842 
L 252.789695 207.143813 
L 253.789695 207.132645 
L 254.789695 207.102527 
L 255.789695 207.04275 
L 256.789695 207.005559 
L 257.789695 206.966463 
L 258.789695 206.924023 
L 259.789695 206.891258 
L 260.789695 206.823831 
L 261.789695 206.784705 
L 262.789695 206.742031 
L 263.789695 206.67145 
L 264.789695 206.635059 
L 265.789695 206.576656 
L 266.789695 206.465704 
L 267.789695 206.395045 
L 268.789695 206.282106 
L 269.789695 206.236333 
L 270.789695 206.175049 
L 271.789695 206.12655 
L 272.789695 206.045727 
L 273.789695 205.927209 
L 274.789695 205.856998 
L 275.789695 205.773735 
L 276.789695 205.740594 
L 277.789695 205.689356 
L 278.789695 205.620958 
L 279.789695 205.554743 
L 280.789695 205.477826 
L 281.789695 205.45051 
L 282.789695 205.424033 
L 283.789695 205.401382 
L 284.789695 205.381851 
L 285.789695 205.355457 
L 286.789695 205.305686 
L 287.789695 205.270613 
L 288.789695 205.234747 
L 289.789695 205.21938 
L 290.789695 205.20361 
L 291.789695 205.200198 
L 292.789695 205.19778 
L 293.789695 205.198266 
L 294.789695 205.200196 
L 295.789695 205.213453 
L 296.789695 205.221843 
L 297.789695 205.24338 
L 298.789695 205.266412 
L 299.789695 205.283646 
L 300.789695 205.302108 
L 301.789695 205.322561 
L 302.789695 205.339161 
L 303.789695 205.401939 
L 304.789695 205.477204 
L 305.789695 205.509844 
L 306.789695 205.577407 
L 307.789695 205.631454 
L 308.789695 205.665159 
L 309.789695 205.755285 
L 310.789695 205.78382 
L 311.789695 205.815306 
L 312.789695 205.846317 
L 313.789695 205.901124 
L 314.789695 205.965712 
L 315.789695 206.003907 
L 316.789695 206.099841 
L 317.789695 206.149099 
L 318.789695 206.193169 
L 319.789695 206.233293 
L 320.789695 206.34166 
L 321.789695 206.383288 
L 322.789695 206.445429 
L 323.789695 206.515391 
L 324.789695 206.619896 
L 325.789695 206.656883 
L 326.789695 206.702761 
L 327.789695 206.771255 
L 328.789695 206.820001 
L 329.789695 206.897599 
L 330.789695 206.928139 
L 331.789695 206.997654 
L 332.789695 207.021627 
L 333.789695 207.050248 
L 334.789695 207.092042 
L 335.789695 207.113617 
L 336.789695 207.127565 
L 337.789695 207.154288 
L 338.789695 207.163598 
L 339.789695 207.176044 
L 340.789695 207.187099 
L 341.789695 207.192764 
L 342.789695 207.197527 
L 343.789695 207.19198 
L 344.789695 207.178692 
L 345.789695 207.171174 
L 346.789695 207.146389 
L 347.789695 207.122821 
L 348.789695 207.08664 
L 349.789695 207.060678 
L 350.789695 207.038357 
L 351.789695 206.969597 
L 352.789695 206.895062 
L 353.789695 206.801082 
L 354.789695 206.75003 
L 355.789695 206.696097 
L 356.789695 206.660846 
L 357.789695 206.554758 
L 358.789695 206.502494 
L 359.789695 206.465587 
L 360.789695 206.434556 
L 361.789695 206.3734 
L 362.789695 206.305981 
L 363.789695 206.257075 
L 364.789695 206.191882 
L 365.789695 206.153695 
L 366.789695 206.111699 
L 367.789695 206.069682 
L 368.789695 206.010165 
L 369.789695 205.897005 
L 370.789695 205.844755 
L 371.789695 205.805337 
L 372.789695 205.758235 
L 373.789695 205.701456 
L 374.789695 205.668793 
L 375.789695 205.632615 
L 376.789695 205.600524 
L 377.789695 205.566245 
L 378.789695 205.507867 
L 379.789695 205.462682 
L 380.789695 205.433058 
L 381.789695 205.382672 
L 382.789695 205.357474 
L 383.789695 205.336423 
L 384.789695 205.301456 
L 385.789695 205.277166 
L 386.789695 205.263099 
L 387.789695 205.244157 
L 388.789695 205.228495 
L 389.789695 205.215943 
L 390.789695 205.210108 
L 391.789695 205.203225 
L 392.789695 205.198052 
L 393.789695 205.199834 
L 394.789695 205.20256 
L 395.789695 205.213713 
L 396.789695 205.241949 
L 397.789695 205.285736 
L 398.789695 205.306426 
L 399.789695 205.347399 
L 400.789695 205.387474 
L 401.789695 205.406584 
L 402.789695 205.429092 
L 403.789695 205.495744 
L 404.789695 205.545453 
L 405.789695 205.61916 
L 406.789695 205.650474 
L 407.789695 205.727096 
L 408.789695 205.765394 
L 409.789695 205.83951 
L 410.789695 205.943569 
L 411.789695 206.0134 
L 412.789695 206.118633 
L 413.789695 206.173649 
L 414.789695 206.297123 
L 415.789695 206.367683 
L 416.789695 206.483522 
L 417.789695 206.533703 
L 418.789695 206.569307 
L 419.789695 206.660713 
L 420.789695 206.714221 
L 421.789695 206.80213 
L 422.789695 206.871315 
L 423.789695 206.918079 
L 424.789695 206.990123 
L 425.789695 207.040265 
L 426.789695 207.057654 
L 427.789695 207.084658 
L 428.789695 207.104085 
L 429.789695 207.123423 
L 430.789695 207.161671 
L 431.789695 207.178105 
L 432.789695 207.186474 
L 433.789695 207.190793 
L 435.333865 207.197348 
" clip-path="url(#p461c277b1d)" style="fill: none; stroke: #ffffff; stroke-width: 3; stroke-linecap: round"/>
          <path d="M 225.789695 206.197586 
L 226.789695 206.229022 
L 227.789695 206.265962 
L 228.789695 206.363709 
L 229.789695 206.39623 
L 230.789695 206.469855 
L 231.789695 206.508421 
L 232.789695 206.543834 
L 233.789695 206.601474 
L 234.789695 206.67186 
L 235.789695 206.723824 
L 236.789695 206.782914 
L 237.789695 206.871235 
L 238.789695 206.917379 
L 239.789695 206.95979 
L 240.789695 206.990283 
L 241.789695 207.016328 
L 242.789695 207.037528 
L 243.789695 207.091829 
L 244.789695 207.119767 
L 245.789695 207.149491 
L 246.789695 207.174885 
L 247.789695 207.186086 
L 248.789695 207.19621 
L 249.789695 207.196005 
L 250.789695 207.186495 
L 251.789695 207.174842 
L 252.789695 207.143813 
L 253.789695 207.132645 
L 254.789695 207.102527 
L 255.789695 207.04275 
L 256.789695 207.005559 
L 257.789695 206.966463 
L 258.789695 206.924023 
L 259.789695 206.891258 
L 260.789695 206.823831 
L 261.789695 206.784705 
L 262.789695 206.742031 
L 263.789695 206.67145 
L 264.789695 206.635059 
L 265.789695 206.576656 
L 266.789695 206.465704 
L 267.789695 206.395045 
L 268.789695 206.282106 
L 269.789695 206.236333 
L 270.789695 206.175049 
L 271.789695 206.12655 
L 272.789695 206.045727 
L 273.789695 205.927209 
L 274.789695 205.856998 
L 275.789695 205.773735 
L 276.789695 205.740594 
L 277.789695 205.689356 
L 278.789695 205.620958 
L 279.789695 205.554743 
L 280.789695 205.477826 
L 281.789695 205.45051 
L 282.789695 205.424033 
L 283.789695 205.401382 
L 284.789695 205.381851 
L 285.789695 205.355457 
L 286.789695 205.305686 
L 287.789695 205.270613 
L 288.789695 205.234747 
L 289.789695 205.21938 
L 290.789695 205.20361 
L 291.789695 205.200198 
L 292.789695 205.19778 
L 293.789695 205.198266 
L 294.789695 205.200196 
L 295.789695 205.213453 
L 296.789695 205.221843 
L 297.789695 205.24338 
L 298.789695 205.266412 
L 299.789695 205.283646 
L 300.789695 205.302108 
L 301.789695 205.322561 
L 302.789695 205.339161 
L 303.789695 205.401939 
L 304.789695 205.477204 
L 305.789695 205.509844 
L 306.789695 205.577407 
L 307.789695 205.631454 
L 308.789695 205.665159 
L 309.789695 205.755285 
L 310.789695 205.78382 
L 311.789695 205.815306 
L 312.789695 205.846317 
L 313.789695 205.901124 
L 314.789695 205.965712 
L 315.789695 206.003907 
L 316.789695 206.099841 
L 317.789695 206.149099 
L 318.789695 206.193169 
L 319.789695 206.233293 
L 320.789695 206.34166 
L 321.789695 206.383288 
L 322.789695 206.445429 
L 323.789695 206.515391 
L 324.789695 206.619896 
L 325.789695 206.656883 
L 326.789695 206.702761 
L 327.789695 206.771255 
L 328.789695 206.820001 
L 329.789695 206.897599 
L 330.789695 206.928139 
L 331.789695 206.997654 
L 332.789695 207.021627 
L 333.789695 207.050248 
L 334.789695 207.092042 
L 335.789695 207.113617 
L 336.789695 207.127565 
L 337.789695 207.154288 
L 338.789695 207.163598 
L 339.789695 207.176044 
L 340.789695 207.187099 
L 341.789695 207.192764 
L 342.789695 207.197527 
L 343.789695 207.19198 
L 344.789695 207.178692 
L 345.789695 207.171174 
L 346.789695 207.146389 
L 347.789695 207.122821 
L 348.789695 207.08664 
L 349.789695 207.060678 
L 350.789695 207.038357 
L 351.789695 206.969597 
L 352.789695 206.895062 
L 353.789695 206.801082 
L 354.789695 206.75003 
L 355.789695 206.696097 
L 356.789695 206.660846 
L 357.789695 206.554758 
L 358.789695 206.502494 
L 359.789695 206.465587 
L 360.789695 206.434556 
L 361.789695 206.3734 
L 362.789695 206.305981 
L 363.789695 206.257075 
L 364.789695 206.191882 
L 365.789695 206.153695 
L 366.789695 206.111699 
L 367.789695 206.069682 
L 368.789695 206.010165 
L 369.789695 205.897005 
L 370.789695 205.844755 
L 371.789695 205.805337 
L 372.789695 205.758235 
L 373.789695 205.701456 
L 374.789695 205.668793 
L 375.789695 205.632615 
L 376.789695 205.600524 
L 377.789695 205.566245 
L 378.789695 205.507867 
L 379.789695 205.462682 
L 380.789695 205.433058 
L 381.789695 205.382672 
L 382.789695 205.357474 
L 383.789695 205.336423 
L 384.789695 205.301456 
L 385.789695 205.277166 
L 386.789695 205.263099 
L 387.789695 205.244157 
L 388.789695 205.228495 
L 389.789695 205.215943 
L 390.789695 205.210108 
L 391.789695 205.203225 
L 392.789695 205.198052 
L 393.789695 205.199834 
L 394.789695 205.20256 
L 395.789695 205.213713 
L 396.789695 205.241949 
L 397.789695 205.285736 
L 398.789695 205.306426 
L 399.789695 205.347399 
L 400.789695 205.387474 
L 401.789695 205.406584 
L 402.789695 205.429092 
L 403.789695 205.495744 
L 404.789695 205.545453 
L 405.789695 205.61916 
L 406.789695 205.650474 
L 407.789695 205.727096 
L 408.789695 205.765394 
L 409.789695 205.83951 
L 410.789695 205.943569 
L 411.789695 206.0134 
L 412.789695 206.118633 
L 413.789695 206.173649 
L 414.789695 206.297123 
L 415.789695 206.367683 
L 416.789695 206.483522 
L 417.789695 206.533703 
L 418.789695 206.569307 
L 419.789695 206.660713 
L 420.789695 206.714221 
L 421.789695 206.80213 
L 422.789695 206.871315 
L 423.789695 206.918079 
L 424.789695 206.990123 
L 425.789695 207.040265 
L 426.789695 207.057654 
L 427.789695 207.084658 
L 428.789695 207.104085 
L 429.789695 207.123423 
L 430.789695 207.161671 
L 431.789695 207.178105 
L 432.789695 207.186474 
L 433.789695 207.190793 
L 435.333865 207.197348 
" clip-path="url(#p461c277b1d)" style="fill: none; stroke: #ff7f0e; stroke-linecap: round"/>
          <path d="M 431.333865 204.197586 
L 432.214233 204.672917 
L 433.09214 205.153171 
L 433.942854 205.687812 
L 435.245028 206.375259 
L 434.317675 206.401274 
L 433.406001 206.813993 
L 432.495736 207.229532 
L 431.153241 207.836337 
L 431.808139 207.197586 
L 431.860104 206.197586 
L 431.919193 204.197586 
z
" clip-path="url(#p461c277b1d)" style="fill: #ffffff; stroke: #ffffff; stroke-width: 3; stroke-linecap: round"/>
          <path d="M 431.333865 204.197586 
L 432.214233 204.672917 
L 433.09214 205.153171 
L 433.942854 205.687812 
L 435.245028 206.375259 
L 434.317675 206.401274 
L 433.406001 206.813993 
L 432.495736 207.229532 
L 431.153241 207.836337 
L 431.808139 207.197586 
L 431.860104 206.197586 
L 431.919193 204.197586 
z
" clip-path="url(#p461c277b1d)" style="fill: #ffffff; stroke: #ff7f0e; stroke-linecap: round"/>
          <path d="M 453.995955 290.939247 
" clip-path="url(#p461c277b1d)" style="fill: none; stroke-dasharray: 3.7,1.6; stroke-dashoffset: 0; stroke: #2ca02c"/>
          <path d="M 452.995955 290.939247 
L 454.995955 291.939247 
L 454.995955 289.939247 
z
" clip-path="url(#p461c277b1d)" style="fill: #2ca02c; stroke: #2ca02c; stroke-linejoin: miter"/>
          <g id="patch_10">
           <path d="M 63.290625 321.621875 
L 63.290625 10.8 
" style="fill: none; stroke: #000000; stroke-width: 0.8; stroke-linejoin: miter; stroke-linecap: square"/>
          </g>
          <g id="text_14">
           <g id="patch_11">
            <path d="M 317.78943 111.254449 
L 339.094118 111.254449 
Q 341.094118 111.254449 341.094118 109.254449 
L 341.094118 99.576324 
Q 341.094118 97.576324 339.094118 97.576324 
L 317.78943 97.576324 
Q 315.78943 97.576324 315.78943 99.576324 
L 315.78943 109.254449 
Q 315.78943 111.254449 317.78943 111.254449 
z
" style="fill: #ffffff; opacity: 0.6"/>
           </g>
           <!-- ANC -->
           <g transform="translate(317.78943 107.174761) scale(0.1 -0.1)">
            <defs>
             <path id="DejaVuSans-4e" d="M 628 4666 
L 1478 4666 
L 3547 763 
L 3547 4666 
L 4159 4666 
L 4159 0 
L 3309 0 
L 1241 3903 
L 1241 0 
L 628 0 
L 628 4666 
z
" transform="scale(0.015625)"/>
            </defs>
            <use xlink:href="#DejaVuSans-41"/>
            <use xlink:href="#DejaVuSans-4e" x="68.408203"/>
            <use xlink:href="#DejaVuSans-43" x="143.212891"/>
           </g>
          </g>
         </g>
        </g>
        <defs>
         <clipPath id="p461c277b1d">
          <rect x="63.290625" y="10.8" width="540.309375" height="310.821875"/>
         </clipPath>
        </defs>
       </g>
      </g>
     </g>
    </g>
   </g>
  </g>
 </g>
</svg>
